<?xml version="1.0" encoding="utf-8" standalone="no"?>
<!DOCTYPE svg PUBLIC "-//W3C//DTD SVG 1.1//EN"
  "http://www.w3.org/Graphics/SVG/1.1/DTD/svg11.dtd">
<svg xmlns:xlink="http://www.w3.org/1999/xlink" width="720pt" height="432pt" viewBox="0 0 720 432" xmlns="http://www.w3.org/2000/svg" version="1.1">
 <metadata>
  <rdf:RDF xmlns:dc="http://purl.org/dc/elements/1.1/" xmlns:cc="http://creativecommons.org/ns#" xmlns:rdf="http://www.w3.org/1999/02/22-rdf-syntax-ns#">
   <cc:Work>
    <dc:type rdf:resource="http://purl.org/dc/dcmitype/StillImage"/>
    <dc:date>2024-01-08T14:44:39.575052</dc:date>
    <dc:format>image/svg+xml</dc:format>
    <dc:creator>
     <cc:Agent>
      <dc:title>Matplotlib v3.7.2, https://matplotlib.org/</dc:title>
     </cc:Agent>
    </dc:creator>
   </cc:Work>
  </rdf:RDF>
 </metadata>
 <defs>
  <style type="text/css">*{stroke-linejoin: round; stroke-linecap: butt}</style>
 </defs>
 <g id="figure_1">
  <g id="patch_1">
   <path d="M 0 432 
L 720 432 
L 720 0 
L 0 0 
z
" style="fill: #ffffff"/>
  </g>
  <g id="axes_1">
   <g id="patch_2">
    <path d="M 90 384.48 
L 648 384.48 
L 648 51.84 
L 90 51.84 
z
" style="fill: #ffffff"/>
   </g>
   <g id="PathCollection_1">
    <defs>
     <path id="C0_0_49f1e09f86" d="M 0 5 
C 1.326016 5 2.597899 4.473168 3.535534 3.535534 
C 4.473168 2.597899 5 1.326016 5 -0 
C 5 -1.326016 4.473168 -2.597899 3.535534 -3.535534 
C 2.597899 -4.473168 1.326016 -5 0 -5 
C -1.326016 -5 -2.597899 -4.473168 -3.535534 -3.535534 
C -4.473168 -2.597899 -5 -1.326016 -5 0 
C -5 1.326016 -4.473168 2.597899 -3.535534 3.535534 
C -2.597899 4.473168 -1.326016 5 0 5 
z
"/>
    </defs>
    <g clip-path="url(#p94e65eb612)">
     <use xlink:href="#C0_0_49f1e09f86" x="217.981806" y="211.189408" style="fill: #008000"/>
    </g>
    <g clip-path="url(#p94e65eb612)">
     <use xlink:href="#C0_0_49f1e09f86" x="301.470573" y="307.436363" style="fill: #008000"/>
    </g>
    <g clip-path="url(#p94e65eb612)">
     <use xlink:href="#C0_0_49f1e09f86" x="217.590909" y="308.945992" style="fill: #008000"/>
    </g>
    <g clip-path="url(#p94e65eb612)">
     <use xlink:href="#C0_0_49f1e09f86" x="175.590909" y="308.945992" style="fill: #008000"/>
    </g>
    <g clip-path="url(#p94e65eb612)">
     <use xlink:href="#C0_0_49f1e09f86" x="259.590909" y="369.36" style="fill: #008000"/>
    </g>
    <g clip-path="url(#p94e65eb612)">
     <use xlink:href="#C0_0_49f1e09f86" x="219.005929" y="221.141729" style="fill: #008000"/>
    </g>
    <g clip-path="url(#p94e65eb612)">
     <use xlink:href="#C0_0_49f1e09f86" x="228.090909" y="319.69391" style="fill: #008000"/>
    </g>
    <g clip-path="url(#p94e65eb612)">
     <use xlink:href="#C0_0_49f1e09f86" x="270.090909" y="308.945992" style="fill: #008000"/>
    </g>
    <g clip-path="url(#p94e65eb612)">
     <use xlink:href="#C0_0_49f1e09f86" x="238.590909" y="319.69391" style="fill: #008000"/>
    </g>
    <g clip-path="url(#p94e65eb612)">
     <use xlink:href="#C0_0_49f1e09f86" x="228.090909" y="146.110647" style="fill: #008000"/>
    </g>
    <g clip-path="url(#p94e65eb612)">
     <use xlink:href="#C0_0_49f1e09f86" x="207.090909" y="319.69391" style="fill: #008000"/>
    </g>
    <g clip-path="url(#p94e65eb612)">
     <use xlink:href="#C0_0_49f1e09f86" x="228.090909" y="250.157041" style="fill: #008000"/>
    </g>
    <g clip-path="url(#p94e65eb612)">
     <use xlink:href="#C0_0_49f1e09f86" x="196.590909" y="369.36" style="fill: #008000"/>
    </g>
    <g clip-path="url(#p94e65eb612)">
     <use xlink:href="#C0_0_49f1e09f86" x="154.711245" y="307.436363" style="fill: #008000"/>
    </g>
    <g clip-path="url(#p94e65eb612)">
     <use xlink:href="#C0_0_49f1e09f86" x="207.090909" y="308.945992" style="fill: #008000"/>
    </g>
    <g clip-path="url(#p94e65eb612)">
     <use xlink:href="#C0_0_49f1e09f86" x="238.590909" y="308.945992" style="fill: #008000"/>
    </g>
    <g clip-path="url(#p94e65eb612)">
     <use xlink:href="#C0_0_49f1e09f86" x="290.970573" y="307.436363" style="fill: #008000"/>
    </g>
    <g clip-path="url(#p94e65eb612)">
     <use xlink:href="#C0_0_49f1e09f86" x="217.590909" y="350.070335" style="fill: #008000"/>
    </g>
    <g clip-path="url(#p94e65eb612)">
     <use xlink:href="#C0_0_49f1e09f86" x="228.090909" y="369.36" style="fill: #008000"/>
    </g>
    <g clip-path="url(#p94e65eb612)">
     <use xlink:href="#C0_0_49f1e09f86" x="196.590909" y="319.69391" style="fill: #008000"/>
    </g>
    <g clip-path="url(#p94e65eb612)">
     <use xlink:href="#C0_0_49f1e09f86" x="228.090909" y="350.070335" style="fill: #008000"/>
    </g>
    <g clip-path="url(#p94e65eb612)">
     <use xlink:href="#C0_0_49f1e09f86" x="228.090909" y="226.155374" style="fill: #008000"/>
    </g>
    <g clip-path="url(#p94e65eb612)">
     <use xlink:href="#C0_0_49f1e09f86" x="234.987554" y="184.730931" style="fill: #008000"/>
    </g>
    <g clip-path="url(#p94e65eb612)">
     <use xlink:href="#C0_0_49f1e09f86" x="311.893159" y="306.224293" style="fill: #008000"/>
    </g>
    <g clip-path="url(#p94e65eb612)">
     <use xlink:href="#C0_0_49f1e09f86" x="228.090909" y="130.172205" style="fill: #008000"/>
    </g>
    <g clip-path="url(#p94e65eb612)">
     <use xlink:href="#C0_0_49f1e09f86" x="144.288659" y="306.224293" style="fill: #008000"/>
    </g>
    <g clip-path="url(#p94e65eb612)">
     <use xlink:href="#C0_0_49f1e09f86" x="228.090909" y="86.100325" style="fill: #008000"/>
    </g>
    <g clip-path="url(#p94e65eb612)">
     <use xlink:href="#C0_0_49f1e09f86" x="165.211245" y="307.436363" style="fill: #008000"/>
    </g>
    <g clip-path="url(#p94e65eb612)">
     <use xlink:href="#C0_0_49f1e09f86" x="280.590909" y="308.945992" style="fill: #008000"/>
    </g>
    <g clip-path="url(#p94e65eb612)">
     <use xlink:href="#C0_0_49f1e09f86" x="196.590909" y="308.945992" style="fill: #008000"/>
    </g>
    <g clip-path="url(#p94e65eb612)">
     <use xlink:href="#C0_0_49f1e09f86" x="228.090909" y="192.271376" style="fill: #008000"/>
    </g>
    <g clip-path="url(#p94e65eb612)">
     <use xlink:href="#C0_0_49f1e09f86" x="207.090909" y="369.36" style="fill: #008000"/>
    </g>
    <g clip-path="url(#p94e65eb612)">
     <use xlink:href="#C0_0_49f1e09f86" x="249.090909" y="308.945992" style="fill: #008000"/>
    </g>
    <g clip-path="url(#p94e65eb612)">
     <use xlink:href="#C0_0_49f1e09f86" x="228.090909" y="202.540543" style="fill: #008000"/>
    </g>
    <g clip-path="url(#p94e65eb612)">
     <use xlink:href="#C0_0_49f1e09f86" x="249.090909" y="319.69391" style="fill: #008000"/>
    </g>
    <g clip-path="url(#p94e65eb612)">
     <use xlink:href="#C0_0_49f1e09f86" x="238.590909" y="369.36" style="fill: #008000"/>
    </g>
    <g clip-path="url(#p94e65eb612)">
     <use xlink:href="#C0_0_49f1e09f86" x="228.090909" y="215.803188" style="fill: #008000"/>
    </g>
    <g clip-path="url(#p94e65eb612)">
     <use xlink:href="#C0_0_49f1e09f86" x="228.090909" y="162.810968" style="fill: #008000"/>
    </g>
    <g clip-path="url(#p94e65eb612)">
     <use xlink:href="#C0_0_49f1e09f86" x="218.083861" y="127.144143" style="fill: #008000"/>
    </g>
    <g clip-path="url(#p94e65eb612)">
     <use xlink:href="#C0_0_49f1e09f86" x="228.090909" y="296.145156" style="fill: #008000"/>
    </g>
    <g clip-path="url(#p94e65eb612)">
     <use xlink:href="#C0_0_49f1e09f86" x="259.590909" y="308.945992" style="fill: #008000"/>
    </g>
    <g clip-path="url(#p94e65eb612)">
     <use xlink:href="#C0_0_49f1e09f86" x="245.464255" y="184.065122" style="fill: #008000"/>
    </g>
    <g clip-path="url(#p94e65eb612)">
     <use xlink:href="#C0_0_49f1e09f86" x="217.590909" y="319.69391" style="fill: #008000"/>
    </g>
    <g clip-path="url(#p94e65eb612)">
     <use xlink:href="#C0_0_49f1e09f86" x="219.396684" y="244.550076" style="fill: #008000"/>
    </g>
    <g clip-path="url(#p94e65eb612)">
     <use xlink:href="#C0_0_49f1e09f86" x="225.936874" y="179.66133" style="fill: #008000"/>
    </g>
    <g clip-path="url(#p94e65eb612)">
     <use xlink:href="#C0_0_49f1e09f86" x="219.786859" y="290.02521" style="fill: #008000"/>
    </g>
    <g clip-path="url(#p94e65eb612)">
     <use xlink:href="#C0_0_49f1e09f86" x="134.79784" y="301.946591" style="fill: #008000"/>
    </g>
    <g clip-path="url(#p94e65eb612)">
     <use xlink:href="#C0_0_49f1e09f86" x="217.592495" y="145.936837" style="fill: #008000"/>
    </g>
    <g clip-path="url(#p94e65eb612)">
     <use xlink:href="#C0_0_49f1e09f86" x="228.090909" y="308.945992" style="fill: #008000"/>
    </g>
    <g clip-path="url(#p94e65eb612)">
     <use xlink:href="#C0_0_49f1e09f86" x="236.061228" y="123.662208" style="fill: #008000"/>
    </g>
    <g clip-path="url(#p94e65eb612)">
     <use xlink:href="#C0_0_49f1e09f86" x="217.590909" y="369.36" style="fill: #008000"/>
    </g>
    <g clip-path="url(#p94e65eb612)">
     <use xlink:href="#C0_0_49f1e09f86" x="186.090909" y="308.945992" style="fill: #008000"/>
    </g>
    <g clip-path="url(#p94e65eb612)">
     <use xlink:href="#C0_0_49f1e09f86" x="249.090909" y="369.36" style="fill: #008000"/>
    </g>
    <g clip-path="url(#p94e65eb612)">
     <use xlink:href="#C0_0_49f1e09f86" x="218.636074" y="187.921997" style="fill: #008000"/>
    </g>
    <g clip-path="url(#p94e65eb612)">
     <use xlink:href="#C0_0_49f1e09f86" x="238.330207" y="213.588665" style="fill: #008000"/>
    </g>
    <g clip-path="url(#p94e65eb612)">
     <use xlink:href="#C0_0_49f1e09f86" x="236.744476" y="244.493314" style="fill: #008000"/>
    </g>
   </g>
   <g id="PathCollection_2">
    <defs>
     <path id="C1_0_91e14ac193" d="M 0 5 
C 1.326016 5 2.597899 4.473168 3.535534 3.535534 
C 4.473168 2.597899 5 1.326016 5 -0 
C 5 -1.326016 4.473168 -2.597899 3.535534 -3.535534 
C 2.597899 -4.473168 1.326016 -5 0 -5 
C -1.326016 -5 -2.597899 -4.473168 -3.535534 -3.535534 
C -4.473168 -2.597899 -5 -1.326016 -5 0 
C -5 1.326016 -4.473168 2.597899 -3.535534 3.535534 
C -2.597899 4.473168 -1.326016 5 0 5 
z
"/>
    </defs>
    <g clip-path="url(#p94e65eb612)">
     <use xlink:href="#C1_0_91e14ac193" x="513.452264" y="258.543809" style="fill: #800080"/>
    </g>
    <g clip-path="url(#p94e65eb612)">
     <use xlink:href="#C1_0_91e14ac193" x="509.909091" y="132.511705" style="fill: #800080"/>
    </g>
    <g clip-path="url(#p94e65eb612)">
     <use xlink:href="#C1_0_91e14ac193" x="520.335116" y="157.712462" style="fill: #800080"/>
    </g>
    <g clip-path="url(#p94e65eb612)">
     <use xlink:href="#C1_0_91e14ac193" x="499.792567" y="202.445466" style="fill: #800080"/>
    </g>
    <g clip-path="url(#p94e65eb612)">
     <use xlink:href="#C1_0_91e14ac193" x="509.909091" y="193.212641" style="fill: #800080"/>
    </g>
    <g clip-path="url(#p94e65eb612)">
     <use xlink:href="#C1_0_91e14ac193" x="509.909091" y="218.00923" style="fill: #800080"/>
    </g>
    <g clip-path="url(#p94e65eb612)">
     <use xlink:href="#C1_0_91e14ac193" x="509.909091" y="296.37779" style="fill: #800080"/>
    </g>
    <g clip-path="url(#p94e65eb612)">
     <use xlink:href="#C1_0_91e14ac193" x="520.406249" y="296.145156" style="fill: #800080"/>
    </g>
    <g clip-path="url(#p94e65eb612)">
     <use xlink:href="#C1_0_91e14ac193" x="501.034427" y="241.221033" style="fill: #800080"/>
    </g>
    <g clip-path="url(#p94e65eb612)">
     <use xlink:href="#C1_0_91e14ac193" x="500.065948" y="189.731231" style="fill: #800080"/>
    </g>
    <g clip-path="url(#p94e65eb612)">
     <use xlink:href="#C1_0_91e14ac193" x="516.246513" y="124.53856" style="fill: #800080"/>
    </g>
    <g clip-path="url(#p94e65eb612)">
     <use xlink:href="#C1_0_91e14ac193" x="520.407807" y="77.212583" style="fill: #800080"/>
    </g>
    <g clip-path="url(#p94e65eb612)">
     <use xlink:href="#C1_0_91e14ac193" x="488.909091" y="308.945992" style="fill: #800080"/>
    </g>
    <g clip-path="url(#p94e65eb612)">
     <use xlink:href="#C1_0_91e14ac193" x="488.909091" y="350.070335" style="fill: #800080"/>
    </g>
    <g clip-path="url(#p94e65eb612)">
     <use xlink:href="#C1_0_91e14ac193" x="520.409091" y="350.070335" style="fill: #800080"/>
    </g>
    <g clip-path="url(#p94e65eb612)">
     <use xlink:href="#C1_0_91e14ac193" x="509.909091" y="319.69391" style="fill: #800080"/>
    </g>
    <g clip-path="url(#p94e65eb612)">
     <use xlink:href="#C1_0_91e14ac193" x="520.409091" y="308.945992" style="fill: #800080"/>
    </g>
    <g clip-path="url(#p94e65eb612)">
     <use xlink:href="#C1_0_91e14ac193" x="457.606841" y="306.224293" style="fill: #800080"/>
    </g>
    <g clip-path="url(#p94e65eb612)">
     <use xlink:href="#C1_0_91e14ac193" x="541.288755" y="307.436363" style="fill: #800080"/>
    </g>
    <g clip-path="url(#p94e65eb612)">
     <use xlink:href="#C1_0_91e14ac193" x="509.909091" y="158.897401" style="fill: #800080"/>
    </g>
    <g clip-path="url(#p94e65eb612)">
     <use xlink:href="#C1_0_91e14ac193" x="509.909091" y="246.565438" style="fill: #800080"/>
    </g>
    <g clip-path="url(#p94e65eb612)">
     <use xlink:href="#C1_0_91e14ac193" x="520.150407" y="215.803188" style="fill: #800080"/>
    </g>
    <g clip-path="url(#p94e65eb612)">
     <use xlink:href="#C1_0_91e14ac193" x="520.327251" y="266.711158" style="fill: #800080"/>
    </g>
    <g clip-path="url(#p94e65eb612)">
     <use xlink:href="#C1_0_91e14ac193" x="509.909091" y="369.36" style="fill: #800080"/>
    </g>
    <g clip-path="url(#p94e65eb612)">
     <use xlink:href="#C1_0_91e14ac193" x="478.529427" y="307.436363" style="fill: #800080"/>
    </g>
    <g clip-path="url(#p94e65eb612)">
     <use xlink:href="#C1_0_91e14ac193" x="526.736854" y="124.109741" style="fill: #800080"/>
    </g>
    <g clip-path="url(#p94e65eb612)">
     <use xlink:href="#C1_0_91e14ac193" x="530.116079" y="154.075568" style="fill: #800080"/>
    </g>
    <g clip-path="url(#p94e65eb612)">
     <use xlink:href="#C1_0_91e14ac193" x="499.5963" y="157.017481" style="fill: #800080"/>
    </g>
    <g clip-path="url(#p94e65eb612)">
     <use xlink:href="#C1_0_91e14ac193" x="509.909091" y="308.945992" style="fill: #800080"/>
    </g>
    <g clip-path="url(#p94e65eb612)">
     <use xlink:href="#C1_0_91e14ac193" x="551.711341" y="306.224293" style="fill: #800080"/>
    </g>
    <g clip-path="url(#p94e65eb612)">
     <use xlink:href="#C1_0_91e14ac193" x="499.411933" y="296.145156" style="fill: #800080"/>
    </g>
    <g clip-path="url(#p94e65eb612)">
     <use xlink:href="#C1_0_91e14ac193" x="509.909091" y="66.96" style="fill: #800080"/>
    </g>
    <g clip-path="url(#p94e65eb612)">
     <use xlink:href="#C1_0_91e14ac193" x="499.409091" y="369.36" style="fill: #800080"/>
    </g>
    <g clip-path="url(#p94e65eb612)">
     <use xlink:href="#C1_0_91e14ac193" x="530.788755" y="307.436363" style="fill: #800080"/>
    </g>
    <g clip-path="url(#p94e65eb612)">
     <use xlink:href="#C1_0_91e14ac193" x="518.810445" y="170.054615" style="fill: #800080"/>
    </g>
    <g clip-path="url(#p94e65eb612)">
     <use xlink:href="#C1_0_91e14ac193" x="499.409091" y="350.070335" style="fill: #800080"/>
    </g>
    <g clip-path="url(#p94e65eb612)">
     <use xlink:href="#C1_0_91e14ac193" x="499.409091" y="308.945992" style="fill: #800080"/>
    </g>
    <g clip-path="url(#p94e65eb612)">
     <use xlink:href="#C1_0_91e14ac193" x="509.909091" y="77.368946" style="fill: #800080"/>
    </g>
    <g clip-path="url(#p94e65eb612)">
     <use xlink:href="#C1_0_91e14ac193" x="468.029427" y="307.436363" style="fill: #800080"/>
    </g>
    <g clip-path="url(#p94e65eb612)">
     <use xlink:href="#C1_0_91e14ac193" x="509.909091" y="267.957261" style="fill: #800080"/>
    </g>
    <g clip-path="url(#p94e65eb612)">
     <use xlink:href="#C1_0_91e14ac193" x="499.435916" y="174.644255" style="fill: #800080"/>
    </g>
    <g clip-path="url(#p94e65eb612)">
     <use xlink:href="#C1_0_91e14ac193" x="519.68341" y="201.470266" style="fill: #800080"/>
    </g>
    <g clip-path="url(#p94e65eb612)">
     <use xlink:href="#C1_0_91e14ac193" x="509.909091" y="175.358607" style="fill: #800080"/>
    </g>
    <g clip-path="url(#p94e65eb612)">
     <use xlink:href="#C1_0_91e14ac193" x="509.909091" y="350.070335" style="fill: #800080"/>
    </g>
    <g clip-path="url(#p94e65eb612)">
     <use xlink:href="#C1_0_91e14ac193" x="500.475543" y="128.120601" style="fill: #800080"/>
    </g>
    <g clip-path="url(#p94e65eb612)">
     <use xlink:href="#C1_0_91e14ac193" x="509.909091" y="205.123325" style="fill: #800080"/>
    </g>
   </g>
   <g id="PathCollection_3"/>
   <g id="PathCollection_4"/>
   <g id="matplotlib.axis_1">
    <g id="xtick_1">
     <g id="line2d_1">
      <path d="M 228.090909 384.48 
L 228.090909 51.84 
" clip-path="url(#p94e65eb612)" style="fill: none; stroke: #b0b0b0; stroke-width: 0.8; stroke-linecap: square"/>
     </g>
     <g id="line2d_2">
      <defs>
       <path id="med08166756" d="M 0 0 
L 0 3.5 
" style="stroke: #000000; stroke-width: 0.8"/>
      </defs>
      <g>
       <use xlink:href="#med08166756" x="228.090909" y="384.48" style="stroke: #000000; stroke-width: 0.8"/>
      </g>
     </g>
     <g id="text_1">
      <!-- Male -->
      <g transform="translate(216.247159 399.078438) scale(0.1 -0.1)">
       <defs>
        <path id="DejaVuSans-4d" d="M 628 4666 
L 1569 4666 
L 2759 1491 
L 3956 4666 
L 4897 4666 
L 4897 0 
L 4281 0 
L 4281 4097 
L 3078 897 
L 2444 897 
L 1241 4097 
L 1241 0 
L 628 0 
L 628 4666 
z
" transform="scale(0.015625)"/>
        <path id="DejaVuSans-61" d="M 2194 1759 
Q 1497 1759 1228 1600 
Q 959 1441 959 1056 
Q 959 750 1161 570 
Q 1363 391 1709 391 
Q 2188 391 2477 730 
Q 2766 1069 2766 1631 
L 2766 1759 
L 2194 1759 
z
M 3341 1997 
L 3341 0 
L 2766 0 
L 2766 531 
Q 2569 213 2275 61 
Q 1981 -91 1556 -91 
Q 1019 -91 701 211 
Q 384 513 384 1019 
Q 384 1609 779 1909 
Q 1175 2209 1959 2209 
L 2766 2209 
L 2766 2266 
Q 2766 2663 2505 2880 
Q 2244 3097 1772 3097 
Q 1472 3097 1187 3025 
Q 903 2953 641 2809 
L 641 3341 
Q 956 3463 1253 3523 
Q 1550 3584 1831 3584 
Q 2591 3584 2966 3190 
Q 3341 2797 3341 1997 
z
" transform="scale(0.015625)"/>
        <path id="DejaVuSans-6c" d="M 603 4863 
L 1178 4863 
L 1178 0 
L 603 0 
L 603 4863 
z
" transform="scale(0.015625)"/>
        <path id="DejaVuSans-65" d="M 3597 1894 
L 3597 1613 
L 953 1613 
Q 991 1019 1311 708 
Q 1631 397 2203 397 
Q 2534 397 2845 478 
Q 3156 559 3463 722 
L 3463 178 
Q 3153 47 2828 -22 
Q 2503 -91 2169 -91 
Q 1331 -91 842 396 
Q 353 884 353 1716 
Q 353 2575 817 3079 
Q 1281 3584 2069 3584 
Q 2775 3584 3186 3129 
Q 3597 2675 3597 1894 
z
M 3022 2063 
Q 3016 2534 2758 2815 
Q 2500 3097 2075 3097 
Q 1594 3097 1305 2825 
Q 1016 2553 972 2059 
L 3022 2063 
z
" transform="scale(0.015625)"/>
       </defs>
       <use xlink:href="#DejaVuSans-4d"/>
       <use xlink:href="#DejaVuSans-61" x="86.279297"/>
       <use xlink:href="#DejaVuSans-6c" x="147.558594"/>
       <use xlink:href="#DejaVuSans-65" x="175.341797"/>
      </g>
     </g>
    </g>
    <g id="xtick_2">
     <g id="line2d_3">
      <path d="M 509.909091 384.48 
L 509.909091 51.84 
" clip-path="url(#p94e65eb612)" style="fill: none; stroke: #b0b0b0; stroke-width: 0.8; stroke-linecap: square"/>
     </g>
     <g id="line2d_4">
      <g>
       <use xlink:href="#med08166756" x="509.909091" y="384.48" style="stroke: #000000; stroke-width: 0.8"/>
      </g>
     </g>
     <g id="text_2">
      <!-- Female -->
      <g transform="translate(491.831747 399.078438) scale(0.1 -0.1)">
       <defs>
        <path id="DejaVuSans-46" d="M 628 4666 
L 3309 4666 
L 3309 4134 
L 1259 4134 
L 1259 2759 
L 3109 2759 
L 3109 2228 
L 1259 2228 
L 1259 0 
L 628 0 
L 628 4666 
z
" transform="scale(0.015625)"/>
        <path id="DejaVuSans-6d" d="M 3328 2828 
Q 3544 3216 3844 3400 
Q 4144 3584 4550 3584 
Q 5097 3584 5394 3201 
Q 5691 2819 5691 2113 
L 5691 0 
L 5113 0 
L 5113 2094 
Q 5113 2597 4934 2840 
Q 4756 3084 4391 3084 
Q 3944 3084 3684 2787 
Q 3425 2491 3425 1978 
L 3425 0 
L 2847 0 
L 2847 2094 
Q 2847 2600 2669 2842 
Q 2491 3084 2119 3084 
Q 1678 3084 1418 2786 
Q 1159 2488 1159 1978 
L 1159 0 
L 581 0 
L 581 3500 
L 1159 3500 
L 1159 2956 
Q 1356 3278 1631 3431 
Q 1906 3584 2284 3584 
Q 2666 3584 2933 3390 
Q 3200 3197 3328 2828 
z
" transform="scale(0.015625)"/>
       </defs>
       <use xlink:href="#DejaVuSans-46"/>
       <use xlink:href="#DejaVuSans-65" x="52.019531"/>
       <use xlink:href="#DejaVuSans-6d" x="113.542969"/>
       <use xlink:href="#DejaVuSans-61" x="210.955078"/>
       <use xlink:href="#DejaVuSans-6c" x="272.234375"/>
       <use xlink:href="#DejaVuSans-65" x="300.017578"/>
      </g>
     </g>
    </g>
    <g id="text_3">
     <!-- Sex -->
     <g transform="translate(359.877344 412.756563) scale(0.1 -0.1)">
      <defs>
       <path id="DejaVuSans-53" d="M 3425 4513 
L 3425 3897 
Q 3066 4069 2747 4153 
Q 2428 4238 2131 4238 
Q 1616 4238 1336 4038 
Q 1056 3838 1056 3469 
Q 1056 3159 1242 3001 
Q 1428 2844 1947 2747 
L 2328 2669 
Q 3034 2534 3370 2195 
Q 3706 1856 3706 1288 
Q 3706 609 3251 259 
Q 2797 -91 1919 -91 
Q 1588 -91 1214 -16 
Q 841 59 441 206 
L 441 856 
Q 825 641 1194 531 
Q 1563 422 1919 422 
Q 2459 422 2753 634 
Q 3047 847 3047 1241 
Q 3047 1584 2836 1778 
Q 2625 1972 2144 2069 
L 1759 2144 
Q 1053 2284 737 2584 
Q 422 2884 422 3419 
Q 422 4038 858 4394 
Q 1294 4750 2059 4750 
Q 2388 4750 2728 4690 
Q 3069 4631 3425 4513 
z
" transform="scale(0.015625)"/>
       <path id="DejaVuSans-78" d="M 3513 3500 
L 2247 1797 
L 3578 0 
L 2900 0 
L 1881 1375 
L 863 0 
L 184 0 
L 1544 1831 
L 300 3500 
L 978 3500 
L 1906 2253 
L 2834 3500 
L 3513 3500 
z
" transform="scale(0.015625)"/>
      </defs>
      <use xlink:href="#DejaVuSans-53"/>
      <use xlink:href="#DejaVuSans-65" x="63.476562"/>
      <use xlink:href="#DejaVuSans-78" x="123.25"/>
     </g>
    </g>
   </g>
   <g id="matplotlib.axis_2">
    <g id="ytick_1">
     <g id="line2d_5">
      <path d="M 90 344.814273 
L 648 344.814273 
" clip-path="url(#p94e65eb612)" style="fill: none; stroke: #b0b0b0; stroke-width: 0.8; stroke-linecap: square"/>
     </g>
     <g id="line2d_6">
      <defs>
       <path id="m00864fdf6c" d="M 0 0 
L -3.5 0 
" style="stroke: #000000; stroke-width: 0.8"/>
      </defs>
      <g>
       <use xlink:href="#m00864fdf6c" x="90" y="344.814273" style="stroke: #000000; stroke-width: 0.8"/>
      </g>
     </g>
     <g id="text_4">
      <!-- 0.50 -->
      <g transform="translate(60.734375 348.613492) scale(0.1 -0.1)">
       <defs>
        <path id="DejaVuSans-30" d="M 2034 4250 
Q 1547 4250 1301 3770 
Q 1056 3291 1056 2328 
Q 1056 1369 1301 889 
Q 1547 409 2034 409 
Q 2525 409 2770 889 
Q 3016 1369 3016 2328 
Q 3016 3291 2770 3770 
Q 2525 4250 2034 4250 
z
M 2034 4750 
Q 2819 4750 3233 4129 
Q 3647 3509 3647 2328 
Q 3647 1150 3233 529 
Q 2819 -91 2034 -91 
Q 1250 -91 836 529 
Q 422 1150 422 2328 
Q 422 3509 836 4129 
Q 1250 4750 2034 4750 
z
" transform="scale(0.015625)"/>
        <path id="DejaVuSans-2e" d="M 684 794 
L 1344 794 
L 1344 0 
L 684 0 
L 684 794 
z
" transform="scale(0.015625)"/>
        <path id="DejaVuSans-35" d="M 691 4666 
L 3169 4666 
L 3169 4134 
L 1269 4134 
L 1269 2991 
Q 1406 3038 1543 3061 
Q 1681 3084 1819 3084 
Q 2600 3084 3056 2656 
Q 3513 2228 3513 1497 
Q 3513 744 3044 326 
Q 2575 -91 1722 -91 
Q 1428 -91 1123 -41 
Q 819 9 494 109 
L 494 744 
Q 775 591 1075 516 
Q 1375 441 1709 441 
Q 2250 441 2565 725 
Q 2881 1009 2881 1497 
Q 2881 1984 2565 2268 
Q 2250 2553 1709 2553 
Q 1456 2553 1204 2497 
Q 953 2441 691 2322 
L 691 4666 
z
" transform="scale(0.015625)"/>
       </defs>
       <use xlink:href="#DejaVuSans-30"/>
       <use xlink:href="#DejaVuSans-2e" x="63.623047"/>
       <use xlink:href="#DejaVuSans-35" x="95.410156"/>
       <use xlink:href="#DejaVuSans-30" x="159.033203"/>
      </g>
     </g>
    </g>
    <g id="ytick_2">
     <g id="line2d_7">
      <path d="M 90 303.300701 
L 648 303.300701 
" clip-path="url(#p94e65eb612)" style="fill: none; stroke: #b0b0b0; stroke-width: 0.8; stroke-linecap: square"/>
     </g>
     <g id="line2d_8">
      <g>
       <use xlink:href="#m00864fdf6c" x="90" y="303.300701" style="stroke: #000000; stroke-width: 0.8"/>
      </g>
     </g>
     <g id="text_5">
      <!-- 0.75 -->
      <g transform="translate(60.734375 307.09992) scale(0.1 -0.1)">
       <defs>
        <path id="DejaVuSans-37" d="M 525 4666 
L 3525 4666 
L 3525 4397 
L 1831 0 
L 1172 0 
L 2766 4134 
L 525 4134 
L 525 4666 
z
" transform="scale(0.015625)"/>
       </defs>
       <use xlink:href="#DejaVuSans-30"/>
       <use xlink:href="#DejaVuSans-2e" x="63.623047"/>
       <use xlink:href="#DejaVuSans-37" x="95.410156"/>
       <use xlink:href="#DejaVuSans-35" x="159.033203"/>
      </g>
     </g>
    </g>
    <g id="ytick_3">
     <g id="line2d_9">
      <path d="M 90 261.787129 
L 648 261.787129 
" clip-path="url(#p94e65eb612)" style="fill: none; stroke: #b0b0b0; stroke-width: 0.8; stroke-linecap: square"/>
     </g>
     <g id="line2d_10">
      <g>
       <use xlink:href="#m00864fdf6c" x="90" y="261.787129" style="stroke: #000000; stroke-width: 0.8"/>
      </g>
     </g>
     <g id="text_6">
      <!-- 1.00 -->
      <g transform="translate(60.734375 265.586348) scale(0.1 -0.1)">
       <defs>
        <path id="DejaVuSans-31" d="M 794 531 
L 1825 531 
L 1825 4091 
L 703 3866 
L 703 4441 
L 1819 4666 
L 2450 4666 
L 2450 531 
L 3481 531 
L 3481 0 
L 794 0 
L 794 531 
z
" transform="scale(0.015625)"/>
       </defs>
       <use xlink:href="#DejaVuSans-31"/>
       <use xlink:href="#DejaVuSans-2e" x="63.623047"/>
       <use xlink:href="#DejaVuSans-30" x="95.410156"/>
       <use xlink:href="#DejaVuSans-30" x="159.033203"/>
      </g>
     </g>
    </g>
    <g id="ytick_4">
     <g id="line2d_11">
      <path d="M 90 220.273557 
L 648 220.273557 
" clip-path="url(#p94e65eb612)" style="fill: none; stroke: #b0b0b0; stroke-width: 0.8; stroke-linecap: square"/>
     </g>
     <g id="line2d_12">
      <g>
       <use xlink:href="#m00864fdf6c" x="90" y="220.273557" style="stroke: #000000; stroke-width: 0.8"/>
      </g>
     </g>
     <g id="text_7">
      <!-- 1.25 -->
      <g transform="translate(60.734375 224.072776) scale(0.1 -0.1)">
       <defs>
        <path id="DejaVuSans-32" d="M 1228 531 
L 3431 531 
L 3431 0 
L 469 0 
L 469 531 
Q 828 903 1448 1529 
Q 2069 2156 2228 2338 
Q 2531 2678 2651 2914 
Q 2772 3150 2772 3378 
Q 2772 3750 2511 3984 
Q 2250 4219 1831 4219 
Q 1534 4219 1204 4116 
Q 875 4013 500 3803 
L 500 4441 
Q 881 4594 1212 4672 
Q 1544 4750 1819 4750 
Q 2544 4750 2975 4387 
Q 3406 4025 3406 3419 
Q 3406 3131 3298 2873 
Q 3191 2616 2906 2266 
Q 2828 2175 2409 1742 
Q 1991 1309 1228 531 
z
" transform="scale(0.015625)"/>
       </defs>
       <use xlink:href="#DejaVuSans-31"/>
       <use xlink:href="#DejaVuSans-2e" x="63.623047"/>
       <use xlink:href="#DejaVuSans-32" x="95.410156"/>
       <use xlink:href="#DejaVuSans-35" x="159.033203"/>
      </g>
     </g>
    </g>
    <g id="ytick_5">
     <g id="line2d_13">
      <path d="M 90 178.759985 
L 648 178.759985 
" clip-path="url(#p94e65eb612)" style="fill: none; stroke: #b0b0b0; stroke-width: 0.8; stroke-linecap: square"/>
     </g>
     <g id="line2d_14">
      <g>
       <use xlink:href="#m00864fdf6c" x="90" y="178.759985" style="stroke: #000000; stroke-width: 0.8"/>
      </g>
     </g>
     <g id="text_8">
      <!-- 1.50 -->
      <g transform="translate(60.734375 182.559204) scale(0.1 -0.1)">
       <use xlink:href="#DejaVuSans-31"/>
       <use xlink:href="#DejaVuSans-2e" x="63.623047"/>
       <use xlink:href="#DejaVuSans-35" x="95.410156"/>
       <use xlink:href="#DejaVuSans-30" x="159.033203"/>
      </g>
     </g>
    </g>
    <g id="ytick_6">
     <g id="line2d_15">
      <path d="M 90 137.246413 
L 648 137.246413 
" clip-path="url(#p94e65eb612)" style="fill: none; stroke: #b0b0b0; stroke-width: 0.8; stroke-linecap: square"/>
     </g>
     <g id="line2d_16">
      <g>
       <use xlink:href="#m00864fdf6c" x="90" y="137.246413" style="stroke: #000000; stroke-width: 0.8"/>
      </g>
     </g>
     <g id="text_9">
      <!-- 1.75 -->
      <g transform="translate(60.734375 141.045632) scale(0.1 -0.1)">
       <use xlink:href="#DejaVuSans-31"/>
       <use xlink:href="#DejaVuSans-2e" x="63.623047"/>
       <use xlink:href="#DejaVuSans-37" x="95.410156"/>
       <use xlink:href="#DejaVuSans-35" x="159.033203"/>
      </g>
     </g>
    </g>
    <g id="ytick_7">
     <g id="line2d_17">
      <path d="M 90 95.732841 
L 648 95.732841 
" clip-path="url(#p94e65eb612)" style="fill: none; stroke: #b0b0b0; stroke-width: 0.8; stroke-linecap: square"/>
     </g>
     <g id="line2d_18">
      <g>
       <use xlink:href="#m00864fdf6c" x="90" y="95.732841" style="stroke: #000000; stroke-width: 0.8"/>
      </g>
     </g>
     <g id="text_10">
      <!-- 2.00 -->
      <g transform="translate(60.734375 99.53206) scale(0.1 -0.1)">
       <use xlink:href="#DejaVuSans-32"/>
       <use xlink:href="#DejaVuSans-2e" x="63.623047"/>
       <use xlink:href="#DejaVuSans-30" x="95.410156"/>
       <use xlink:href="#DejaVuSans-30" x="159.033203"/>
      </g>
     </g>
    </g>
    <g id="ytick_8">
     <g id="line2d_19">
      <path d="M 90 54.219269 
L 648 54.219269 
" clip-path="url(#p94e65eb612)" style="fill: none; stroke: #b0b0b0; stroke-width: 0.8; stroke-linecap: square"/>
     </g>
     <g id="line2d_20">
      <g>
       <use xlink:href="#m00864fdf6c" x="90" y="54.219269" style="stroke: #000000; stroke-width: 0.8"/>
      </g>
     </g>
     <g id="text_11">
      <!-- 2.25 -->
      <g transform="translate(60.734375 58.018488) scale(0.1 -0.1)">
       <use xlink:href="#DejaVuSans-32"/>
       <use xlink:href="#DejaVuSans-2e" x="63.623047"/>
       <use xlink:href="#DejaVuSans-32" x="95.410156"/>
       <use xlink:href="#DejaVuSans-35" x="159.033203"/>
      </g>
     </g>
    </g>
    <g id="text_12">
     <!-- Eotaxin.N -->
     <g transform="translate(54.654687 242.249844) rotate(-90) scale(0.1 -0.1)">
      <defs>
       <path id="DejaVuSans-45" d="M 628 4666 
L 3578 4666 
L 3578 4134 
L 1259 4134 
L 1259 2753 
L 3481 2753 
L 3481 2222 
L 1259 2222 
L 1259 531 
L 3634 531 
L 3634 0 
L 628 0 
L 628 4666 
z
" transform="scale(0.015625)"/>
       <path id="DejaVuSans-6f" d="M 1959 3097 
Q 1497 3097 1228 2736 
Q 959 2375 959 1747 
Q 959 1119 1226 758 
Q 1494 397 1959 397 
Q 2419 397 2687 759 
Q 2956 1122 2956 1747 
Q 2956 2369 2687 2733 
Q 2419 3097 1959 3097 
z
M 1959 3584 
Q 2709 3584 3137 3096 
Q 3566 2609 3566 1747 
Q 3566 888 3137 398 
Q 2709 -91 1959 -91 
Q 1206 -91 779 398 
Q 353 888 353 1747 
Q 353 2609 779 3096 
Q 1206 3584 1959 3584 
z
" transform="scale(0.015625)"/>
       <path id="DejaVuSans-74" d="M 1172 4494 
L 1172 3500 
L 2356 3500 
L 2356 3053 
L 1172 3053 
L 1172 1153 
Q 1172 725 1289 603 
Q 1406 481 1766 481 
L 2356 481 
L 2356 0 
L 1766 0 
Q 1100 0 847 248 
Q 594 497 594 1153 
L 594 3053 
L 172 3053 
L 172 3500 
L 594 3500 
L 594 4494 
L 1172 4494 
z
" transform="scale(0.015625)"/>
       <path id="DejaVuSans-69" d="M 603 3500 
L 1178 3500 
L 1178 0 
L 603 0 
L 603 3500 
z
M 603 4863 
L 1178 4863 
L 1178 4134 
L 603 4134 
L 603 4863 
z
" transform="scale(0.015625)"/>
       <path id="DejaVuSans-6e" d="M 3513 2113 
L 3513 0 
L 2938 0 
L 2938 2094 
Q 2938 2591 2744 2837 
Q 2550 3084 2163 3084 
Q 1697 3084 1428 2787 
Q 1159 2491 1159 1978 
L 1159 0 
L 581 0 
L 581 3500 
L 1159 3500 
L 1159 2956 
Q 1366 3272 1645 3428 
Q 1925 3584 2291 3584 
Q 2894 3584 3203 3211 
Q 3513 2838 3513 2113 
z
" transform="scale(0.015625)"/>
       <path id="DejaVuSans-4e" d="M 628 4666 
L 1478 4666 
L 3547 763 
L 3547 4666 
L 4159 4666 
L 4159 0 
L 3309 0 
L 1241 3903 
L 1241 0 
L 628 0 
L 628 4666 
z
" transform="scale(0.015625)"/>
      </defs>
      <use xlink:href="#DejaVuSans-45"/>
      <use xlink:href="#DejaVuSans-6f" x="63.183594"/>
      <use xlink:href="#DejaVuSans-74" x="124.365234"/>
      <use xlink:href="#DejaVuSans-61" x="163.574219"/>
      <use xlink:href="#DejaVuSans-78" x="224.853516"/>
      <use xlink:href="#DejaVuSans-69" x="284.033203"/>
      <use xlink:href="#DejaVuSans-6e" x="311.816406"/>
      <use xlink:href="#DejaVuSans-2e" x="375.195312"/>
      <use xlink:href="#DejaVuSans-4e" x="406.982422"/>
     </g>
    </g>
   </g>
   <g id="LineCollection_1">
    <path d="M 228.090909 347.546308 
L 228.090909 195.766137 
" clip-path="url(#p94e65eb612)" style="fill: none; stroke: #000000; stroke-width: 2"/>
   </g>
   <g id="line2d_21">
    <defs>
     <path id="mbe1e0a0f94" d="M 10 0 
L -10 -0 
" style="stroke: #000000; stroke-width: 2"/>
    </defs>
    <g clip-path="url(#p94e65eb612)">
     <use xlink:href="#mbe1e0a0f94" x="228.090909" y="347.546308" style="stroke: #000000; stroke-width: 2"/>
    </g>
   </g>
   <g id="line2d_22">
    <g clip-path="url(#p94e65eb612)">
     <use xlink:href="#mbe1e0a0f94" x="228.090909" y="195.766137" style="stroke: #000000; stroke-width: 2"/>
    </g>
   </g>
   <g id="LineCollection_2">
    <path d="M 115.363636 271.656223 
L 340.818182 271.656223 
" clip-path="url(#p94e65eb612)" style="fill: none; stroke: #000000; stroke-width: 1.5"/>
   </g>
   <g id="LineCollection_3">
    <path d="M 509.909091 325.022421 
L 509.909091 153.704446 
" clip-path="url(#p94e65eb612)" style="fill: none; stroke: #000000; stroke-width: 2"/>
   </g>
   <g id="line2d_23">
    <g clip-path="url(#p94e65eb612)">
     <use xlink:href="#mbe1e0a0f94" x="509.909091" y="325.022421" style="stroke: #000000; stroke-width: 2"/>
    </g>
   </g>
   <g id="line2d_24">
    <g clip-path="url(#p94e65eb612)">
     <use xlink:href="#mbe1e0a0f94" x="509.909091" y="153.704446" style="stroke: #000000; stroke-width: 2"/>
    </g>
   </g>
   <g id="LineCollection_4">
    <path d="M 397.181818 239.363433 
L 622.636364 239.363433 
" clip-path="url(#p94e65eb612)" style="fill: none; stroke: #000000; stroke-width: 1.5"/>
   </g>
   <g id="patch_3">
    <path d="M 90 384.48 
L 90 51.84 
" style="fill: none; stroke: #000000; stroke-width: 0.8; stroke-linejoin: miter; stroke-linecap: square"/>
   </g>
   <g id="patch_4">
    <path d="M 90 384.48 
L 648 384.48 
" style="fill: none; stroke: #000000; stroke-width: 0.8; stroke-linejoin: miter; stroke-linecap: square"/>
   </g>
   <g id="text_13">
    <!-- Eotaxin by Sex - Status: INDEX -->
    <g transform="translate(276.561563 45.84) scale(0.12 -0.12)">
     <defs>
      <path id="DejaVuSans-20" transform="scale(0.015625)"/>
      <path id="DejaVuSans-62" d="M 3116 1747 
Q 3116 2381 2855 2742 
Q 2594 3103 2138 3103 
Q 1681 3103 1420 2742 
Q 1159 2381 1159 1747 
Q 1159 1113 1420 752 
Q 1681 391 2138 391 
Q 2594 391 2855 752 
Q 3116 1113 3116 1747 
z
M 1159 2969 
Q 1341 3281 1617 3432 
Q 1894 3584 2278 3584 
Q 2916 3584 3314 3078 
Q 3713 2572 3713 1747 
Q 3713 922 3314 415 
Q 2916 -91 2278 -91 
Q 1894 -91 1617 61 
Q 1341 213 1159 525 
L 1159 0 
L 581 0 
L 581 4863 
L 1159 4863 
L 1159 2969 
z
" transform="scale(0.015625)"/>
      <path id="DejaVuSans-79" d="M 2059 -325 
Q 1816 -950 1584 -1140 
Q 1353 -1331 966 -1331 
L 506 -1331 
L 506 -850 
L 844 -850 
Q 1081 -850 1212 -737 
Q 1344 -625 1503 -206 
L 1606 56 
L 191 3500 
L 800 3500 
L 1894 763 
L 2988 3500 
L 3597 3500 
L 2059 -325 
z
" transform="scale(0.015625)"/>
      <path id="DejaVuSans-2d" d="M 313 2009 
L 1997 2009 
L 1997 1497 
L 313 1497 
L 313 2009 
z
" transform="scale(0.015625)"/>
      <path id="DejaVuSans-75" d="M 544 1381 
L 544 3500 
L 1119 3500 
L 1119 1403 
Q 1119 906 1312 657 
Q 1506 409 1894 409 
Q 2359 409 2629 706 
Q 2900 1003 2900 1516 
L 2900 3500 
L 3475 3500 
L 3475 0 
L 2900 0 
L 2900 538 
Q 2691 219 2414 64 
Q 2138 -91 1772 -91 
Q 1169 -91 856 284 
Q 544 659 544 1381 
z
M 1991 3584 
L 1991 3584 
z
" transform="scale(0.015625)"/>
      <path id="DejaVuSans-73" d="M 2834 3397 
L 2834 2853 
Q 2591 2978 2328 3040 
Q 2066 3103 1784 3103 
Q 1356 3103 1142 2972 
Q 928 2841 928 2578 
Q 928 2378 1081 2264 
Q 1234 2150 1697 2047 
L 1894 2003 
Q 2506 1872 2764 1633 
Q 3022 1394 3022 966 
Q 3022 478 2636 193 
Q 2250 -91 1575 -91 
Q 1294 -91 989 -36 
Q 684 19 347 128 
L 347 722 
Q 666 556 975 473 
Q 1284 391 1588 391 
Q 1994 391 2212 530 
Q 2431 669 2431 922 
Q 2431 1156 2273 1281 
Q 2116 1406 1581 1522 
L 1381 1569 
Q 847 1681 609 1914 
Q 372 2147 372 2553 
Q 372 3047 722 3315 
Q 1072 3584 1716 3584 
Q 2034 3584 2315 3537 
Q 2597 3491 2834 3397 
z
" transform="scale(0.015625)"/>
      <path id="DejaVuSans-3a" d="M 750 794 
L 1409 794 
L 1409 0 
L 750 0 
L 750 794 
z
M 750 3309 
L 1409 3309 
L 1409 2516 
L 750 2516 
L 750 3309 
z
" transform="scale(0.015625)"/>
      <path id="DejaVuSans-49" d="M 628 4666 
L 1259 4666 
L 1259 0 
L 628 0 
L 628 4666 
z
" transform="scale(0.015625)"/>
      <path id="DejaVuSans-44" d="M 1259 4147 
L 1259 519 
L 2022 519 
Q 2988 519 3436 956 
Q 3884 1394 3884 2338 
Q 3884 3275 3436 3711 
Q 2988 4147 2022 4147 
L 1259 4147 
z
M 628 4666 
L 1925 4666 
Q 3281 4666 3915 4102 
Q 4550 3538 4550 2338 
Q 4550 1131 3912 565 
Q 3275 0 1925 0 
L 628 0 
L 628 4666 
z
" transform="scale(0.015625)"/>
      <path id="DejaVuSans-58" d="M 403 4666 
L 1081 4666 
L 2241 2931 
L 3406 4666 
L 4084 4666 
L 2584 2425 
L 4184 0 
L 3506 0 
L 2194 1984 
L 872 0 
L 191 0 
L 1856 2491 
L 403 4666 
z
" transform="scale(0.015625)"/>
     </defs>
     <use xlink:href="#DejaVuSans-45"/>
     <use xlink:href="#DejaVuSans-6f" x="63.183594"/>
     <use xlink:href="#DejaVuSans-74" x="124.365234"/>
     <use xlink:href="#DejaVuSans-61" x="163.574219"/>
     <use xlink:href="#DejaVuSans-78" x="224.853516"/>
     <use xlink:href="#DejaVuSans-69" x="284.033203"/>
     <use xlink:href="#DejaVuSans-6e" x="311.816406"/>
     <use xlink:href="#DejaVuSans-20" x="375.195312"/>
     <use xlink:href="#DejaVuSans-62" x="406.982422"/>
     <use xlink:href="#DejaVuSans-79" x="470.458984"/>
     <use xlink:href="#DejaVuSans-20" x="529.638672"/>
     <use xlink:href="#DejaVuSans-53" x="561.425781"/>
     <use xlink:href="#DejaVuSans-65" x="624.902344"/>
     <use xlink:href="#DejaVuSans-78" x="684.675781"/>
     <use xlink:href="#DejaVuSans-20" x="743.855469"/>
     <use xlink:href="#DejaVuSans-2d" x="775.642578"/>
     <use xlink:href="#DejaVuSans-20" x="811.726562"/>
     <use xlink:href="#DejaVuSans-53" x="843.513672"/>
     <use xlink:href="#DejaVuSans-74" x="906.990234"/>
     <use xlink:href="#DejaVuSans-61" x="946.199219"/>
     <use xlink:href="#DejaVuSans-74" x="1007.478516"/>
     <use xlink:href="#DejaVuSans-75" x="1046.6875"/>
     <use xlink:href="#DejaVuSans-73" x="1110.066406"/>
     <use xlink:href="#DejaVuSans-3a" x="1162.166016"/>
     <use xlink:href="#DejaVuSans-20" x="1195.857422"/>
     <use xlink:href="#DejaVuSans-49" x="1227.644531"/>
     <use xlink:href="#DejaVuSans-4e" x="1257.136719"/>
     <use xlink:href="#DejaVuSans-44" x="1331.941406"/>
     <use xlink:href="#DejaVuSans-45" x="1408.943359"/>
     <use xlink:href="#DejaVuSans-58" x="1472.126953"/>
    </g>
   </g>
   <g id="patch_5">
    <path d="M 327.992969 74.518125 
L 410.007031 74.518125 
L 410.007031 56.84 
L 327.992969 56.84 
z
" style="fill: #ffffff; stroke: #000000; stroke-linejoin: miter"/>
   </g>
   <g id="text_14">
    <!-- p = 4.63e-02 * -->
    <g transform="translate(331.992969 68.438438) scale(0.1 -0.1)">
     <defs>
      <path id="DejaVuSans-70" d="M 1159 525 
L 1159 -1331 
L 581 -1331 
L 581 3500 
L 1159 3500 
L 1159 2969 
Q 1341 3281 1617 3432 
Q 1894 3584 2278 3584 
Q 2916 3584 3314 3078 
Q 3713 2572 3713 1747 
Q 3713 922 3314 415 
Q 2916 -91 2278 -91 
Q 1894 -91 1617 61 
Q 1341 213 1159 525 
z
M 3116 1747 
Q 3116 2381 2855 2742 
Q 2594 3103 2138 3103 
Q 1681 3103 1420 2742 
Q 1159 2381 1159 1747 
Q 1159 1113 1420 752 
Q 1681 391 2138 391 
Q 2594 391 2855 752 
Q 3116 1113 3116 1747 
z
" transform="scale(0.015625)"/>
      <path id="DejaVuSans-3d" d="M 678 2906 
L 4684 2906 
L 4684 2381 
L 678 2381 
L 678 2906 
z
M 678 1631 
L 4684 1631 
L 4684 1100 
L 678 1100 
L 678 1631 
z
" transform="scale(0.015625)"/>
      <path id="DejaVuSans-34" d="M 2419 4116 
L 825 1625 
L 2419 1625 
L 2419 4116 
z
M 2253 4666 
L 3047 4666 
L 3047 1625 
L 3713 1625 
L 3713 1100 
L 3047 1100 
L 3047 0 
L 2419 0 
L 2419 1100 
L 313 1100 
L 313 1709 
L 2253 4666 
z
" transform="scale(0.015625)"/>
      <path id="DejaVuSans-36" d="M 2113 2584 
Q 1688 2584 1439 2293 
Q 1191 2003 1191 1497 
Q 1191 994 1439 701 
Q 1688 409 2113 409 
Q 2538 409 2786 701 
Q 3034 994 3034 1497 
Q 3034 2003 2786 2293 
Q 2538 2584 2113 2584 
z
M 3366 4563 
L 3366 3988 
Q 3128 4100 2886 4159 
Q 2644 4219 2406 4219 
Q 1781 4219 1451 3797 
Q 1122 3375 1075 2522 
Q 1259 2794 1537 2939 
Q 1816 3084 2150 3084 
Q 2853 3084 3261 2657 
Q 3669 2231 3669 1497 
Q 3669 778 3244 343 
Q 2819 -91 2113 -91 
Q 1303 -91 875 529 
Q 447 1150 447 2328 
Q 447 3434 972 4092 
Q 1497 4750 2381 4750 
Q 2619 4750 2861 4703 
Q 3103 4656 3366 4563 
z
" transform="scale(0.015625)"/>
      <path id="DejaVuSans-33" d="M 2597 2516 
Q 3050 2419 3304 2112 
Q 3559 1806 3559 1356 
Q 3559 666 3084 287 
Q 2609 -91 1734 -91 
Q 1441 -91 1130 -33 
Q 819 25 488 141 
L 488 750 
Q 750 597 1062 519 
Q 1375 441 1716 441 
Q 2309 441 2620 675 
Q 2931 909 2931 1356 
Q 2931 1769 2642 2001 
Q 2353 2234 1838 2234 
L 1294 2234 
L 1294 2753 
L 1863 2753 
Q 2328 2753 2575 2939 
Q 2822 3125 2822 3475 
Q 2822 3834 2567 4026 
Q 2313 4219 1838 4219 
Q 1578 4219 1281 4162 
Q 984 4106 628 3988 
L 628 4550 
Q 988 4650 1302 4700 
Q 1616 4750 1894 4750 
Q 2613 4750 3031 4423 
Q 3450 4097 3450 3541 
Q 3450 3153 3228 2886 
Q 3006 2619 2597 2516 
z
" transform="scale(0.015625)"/>
      <path id="DejaVuSans-2a" d="M 3009 3897 
L 1888 3291 
L 3009 2681 
L 2828 2375 
L 1778 3009 
L 1778 1831 
L 1422 1831 
L 1422 3009 
L 372 2375 
L 191 2681 
L 1313 3291 
L 191 3897 
L 372 4206 
L 1422 3572 
L 1422 4750 
L 1778 4750 
L 1778 3572 
L 2828 4206 
L 3009 3897 
z
" transform="scale(0.015625)"/>
     </defs>
     <use xlink:href="#DejaVuSans-70"/>
     <use xlink:href="#DejaVuSans-20" x="63.476562"/>
     <use xlink:href="#DejaVuSans-3d" x="95.263672"/>
     <use xlink:href="#DejaVuSans-20" x="179.052734"/>
     <use xlink:href="#DejaVuSans-34" x="210.839844"/>
     <use xlink:href="#DejaVuSans-2e" x="274.462891"/>
     <use xlink:href="#DejaVuSans-36" x="306.25"/>
     <use xlink:href="#DejaVuSans-33" x="369.873047"/>
     <use xlink:href="#DejaVuSans-65" x="433.496094"/>
     <use xlink:href="#DejaVuSans-2d" x="495.019531"/>
     <use xlink:href="#DejaVuSans-30" x="531.103516"/>
     <use xlink:href="#DejaVuSans-32" x="594.726562"/>
     <use xlink:href="#DejaVuSans-20" x="658.349609"/>
     <use xlink:href="#DejaVuSans-2a" x="690.136719"/>
    </g>
   </g>
   <g id="legend_1">
    <g id="patch_6">
     <path d="M 572.845312 103.874375 
L 641 103.874375 
Q 643 103.874375 643 101.874375 
L 643 58.84 
Q 643 56.84 641 56.84 
L 572.845312 56.84 
Q 570.845312 56.84 570.845312 58.84 
L 570.845312 101.874375 
Q 570.845312 103.874375 572.845312 103.874375 
z
" style="fill: #ffffff; opacity: 0.8; stroke: #cccccc; stroke-linejoin: miter"/>
    </g>
    <g id="text_15">
     <!-- Sex -->
     <g transform="translate(597.8 68.438437) scale(0.1 -0.1)">
      <use xlink:href="#DejaVuSans-53"/>
      <use xlink:href="#DejaVuSans-65" x="63.476562"/>
      <use xlink:href="#DejaVuSans-78" x="123.25"/>
     </g>
    </g>
    <g id="PathCollection_5">
     <defs>
      <path id="m4af07e2db8" d="M 0 3 
C 0.795609 3 1.55874 2.683901 2.12132 2.12132 
C 2.683901 1.55874 3 0.795609 3 0 
C 3 -0.795609 2.683901 -1.55874 2.12132 -2.12132 
C 1.55874 -2.683901 0.795609 -3 0 -3 
C -0.795609 -3 -1.55874 -2.683901 -2.12132 -2.12132 
C -2.683901 -1.55874 -3 -0.795609 -3 0 
C -3 0.795609 -2.683901 1.55874 -2.12132 2.12132 
C -1.55874 2.683901 -0.795609 3 0 3 
z
" style="stroke: #008000"/>
     </defs>
     <g>
      <use xlink:href="#m4af07e2db8" x="584.845312" y="80.491562" style="fill: #008000; stroke: #008000"/>
     </g>
    </g>
    <g id="text_16">
     <!-- Male -->
     <g transform="translate(602.845312 83.116562) scale(0.1 -0.1)">
      <use xlink:href="#DejaVuSans-4d"/>
      <use xlink:href="#DejaVuSans-61" x="86.279297"/>
      <use xlink:href="#DejaVuSans-6c" x="147.558594"/>
      <use xlink:href="#DejaVuSans-65" x="175.341797"/>
     </g>
    </g>
    <g id="PathCollection_6">
     <defs>
      <path id="m396272d67c" d="M 0 3 
C 0.795609 3 1.55874 2.683901 2.12132 2.12132 
C 2.683901 1.55874 3 0.795609 3 0 
C 3 -0.795609 2.683901 -1.55874 2.12132 -2.12132 
C 1.55874 -2.683901 0.795609 -3 0 -3 
C -0.795609 -3 -1.55874 -2.683901 -2.12132 -2.12132 
C -2.683901 -1.55874 -3 -0.795609 -3 0 
C -3 0.795609 -2.683901 1.55874 -2.12132 2.12132 
C -1.55874 2.683901 -0.795609 3 0 3 
z
" style="stroke: #800080"/>
     </defs>
     <g>
      <use xlink:href="#m396272d67c" x="584.845312" y="95.169688" style="fill: #800080; stroke: #800080"/>
     </g>
    </g>
    <g id="text_17">
     <!-- Female -->
     <g transform="translate(602.845312 97.794688) scale(0.1 -0.1)">
      <use xlink:href="#DejaVuSans-46"/>
      <use xlink:href="#DejaVuSans-65" x="52.019531"/>
      <use xlink:href="#DejaVuSans-6d" x="113.542969"/>
      <use xlink:href="#DejaVuSans-61" x="210.955078"/>
      <use xlink:href="#DejaVuSans-6c" x="272.234375"/>
      <use xlink:href="#DejaVuSans-65" x="300.017578"/>
     </g>
    </g>
   </g>
  </g>
 </g>
 <defs>
  <clipPath id="p94e65eb612">
   <rect x="90" y="51.84" width="558" height="332.64"/>
  </clipPath>
 </defs>
</svg>
