<?xml version="1.0" encoding="utf-8" standalone="no"?>
<!DOCTYPE svg PUBLIC "-//W3C//DTD SVG 1.1//EN"
  "http://www.w3.org/Graphics/SVG/1.1/DTD/svg11.dtd">
<svg xmlns:xlink="http://www.w3.org/1999/xlink" width="709.32pt" height="355.335pt" viewBox="0 0 709.32 355.335" xmlns="http://www.w3.org/2000/svg" version="1.1">
 <metadata>
  <rdf:RDF xmlns:dc="http://purl.org/dc/elements/1.1/" xmlns:cc="http://creativecommons.org/ns#" xmlns:rdf="http://www.w3.org/1999/02/22-rdf-syntax-ns#">
   <cc:Work>
    <dc:type rdf:resource="http://purl.org/dc/dcmitype/StillImage"/>
    <dc:date>2025-03-03T16:17:00.135608</dc:date>
    <dc:format>image/svg+xml</dc:format>
    <dc:creator>
     <cc:Agent>
      <dc:title>Matplotlib v3.10.0, https://matplotlib.org/</dc:title>
     </cc:Agent>
    </dc:creator>
   </cc:Work>
  </rdf:RDF>
 </metadata>
 <defs>
  <style type="text/css">*{stroke-linejoin: round; stroke-linecap: butt}</style>
 </defs>
 <g id="figure_1">
  <g id="patch_1">
   <path d="M 0 355.335 
L 709.32 355.335 
L 709.32 0 
L 0 0 
z
" style="fill: #ffffff"/>
  </g>
  <g id="axes_1">
   <g id="patch_2">
    <path d="M 56.75 290.68 
L 347.565 290.68 
L 347.565 58.32 
L 56.75 58.32 
z
" style="fill: #ffffff"/>
   </g>
   <g id="matplotlib.axis_1">
    <g id="xtick_1">
     <g id="line2d_1">
      <defs>
       <path id="m3883c405cc" d="M 0 0 
L 0 3.5 
" style="stroke: #000000; stroke-width: 0.8"/>
      </defs>
      <g>
       <use xlink:href="#m3883c405cc" x="59.911033" y="290.68" style="stroke: #000000; stroke-width: 0.8"/>
      </g>
     </g>
     <g id="text_1">
      <!-- 0 -->
      <g transform="translate(52.276033 315.91625) scale(0.24 -0.24)">
       <defs>
        <path id="DejaVuSans-30" d="M 2034 4250 
Q 1547 4250 1301 3770 
Q 1056 3291 1056 2328 
Q 1056 1369 1301 889 
Q 1547 409 2034 409 
Q 2525 409 2770 889 
Q 3016 1369 3016 2328 
Q 3016 3291 2770 3770 
Q 2525 4250 2034 4250 
z
M 2034 4750 
Q 2819 4750 3233 4129 
Q 3647 3509 3647 2328 
Q 3647 1150 3233 529 
Q 2819 -91 2034 -91 
Q 1250 -91 836 529 
Q 422 1150 422 2328 
Q 422 3509 836 4129 
Q 1250 4750 2034 4750 
z
" transform="scale(0.015625)"/>
       </defs>
       <use xlink:href="#DejaVuSans-30"/>
      </g>
     </g>
    </g>
    <g id="xtick_2">
     <g id="line2d_2">
      <g>
       <use xlink:href="#m3883c405cc" x="123.131685" y="290.68" style="stroke: #000000; stroke-width: 0.8"/>
      </g>
     </g>
     <g id="text_2">
      <!-- 2 -->
      <g transform="translate(115.496685 315.91625) scale(0.24 -0.24)">
       <defs>
        <path id="DejaVuSans-32" d="M 1228 531 
L 3431 531 
L 3431 0 
L 469 0 
L 469 531 
Q 828 903 1448 1529 
Q 2069 2156 2228 2338 
Q 2531 2678 2651 2914 
Q 2772 3150 2772 3378 
Q 2772 3750 2511 3984 
Q 2250 4219 1831 4219 
Q 1534 4219 1204 4116 
Q 875 4013 500 3803 
L 500 4441 
Q 881 4594 1212 4672 
Q 1544 4750 1819 4750 
Q 2544 4750 2975 4387 
Q 3406 4025 3406 3419 
Q 3406 3131 3298 2873 
Q 3191 2616 2906 2266 
Q 2828 2175 2409 1742 
Q 1991 1309 1228 531 
z
" transform="scale(0.015625)"/>
       </defs>
       <use xlink:href="#DejaVuSans-32"/>
      </g>
     </g>
    </g>
    <g id="xtick_3">
     <g id="line2d_3">
      <g>
       <use xlink:href="#m3883c405cc" x="186.352337" y="290.68" style="stroke: #000000; stroke-width: 0.8"/>
      </g>
     </g>
     <g id="text_3">
      <!-- 4 -->
      <g transform="translate(178.717337 315.91625) scale(0.24 -0.24)">
       <defs>
        <path id="DejaVuSans-34" d="M 2419 4116 
L 825 1625 
L 2419 1625 
L 2419 4116 
z
M 2253 4666 
L 3047 4666 
L 3047 1625 
L 3713 1625 
L 3713 1100 
L 3047 1100 
L 3047 0 
L 2419 0 
L 2419 1100 
L 313 1100 
L 313 1709 
L 2253 4666 
z
" transform="scale(0.015625)"/>
       </defs>
       <use xlink:href="#DejaVuSans-34"/>
      </g>
     </g>
    </g>
    <g id="xtick_4">
     <g id="line2d_4">
      <g>
       <use xlink:href="#m3883c405cc" x="249.572989" y="290.68" style="stroke: #000000; stroke-width: 0.8"/>
      </g>
     </g>
     <g id="text_4">
      <!-- 6 -->
      <g transform="translate(241.937989 315.91625) scale(0.24 -0.24)">
       <defs>
        <path id="DejaVuSans-36" d="M 2113 2584 
Q 1688 2584 1439 2293 
Q 1191 2003 1191 1497 
Q 1191 994 1439 701 
Q 1688 409 2113 409 
Q 2538 409 2786 701 
Q 3034 994 3034 1497 
Q 3034 2003 2786 2293 
Q 2538 2584 2113 2584 
z
M 3366 4563 
L 3366 3988 
Q 3128 4100 2886 4159 
Q 2644 4219 2406 4219 
Q 1781 4219 1451 3797 
Q 1122 3375 1075 2522 
Q 1259 2794 1537 2939 
Q 1816 3084 2150 3084 
Q 2853 3084 3261 2657 
Q 3669 2231 3669 1497 
Q 3669 778 3244 343 
Q 2819 -91 2113 -91 
Q 1303 -91 875 529 
Q 447 1150 447 2328 
Q 447 3434 972 4092 
Q 1497 4750 2381 4750 
Q 2619 4750 2861 4703 
Q 3103 4656 3366 4563 
z
" transform="scale(0.015625)"/>
       </defs>
       <use xlink:href="#DejaVuSans-36"/>
      </g>
     </g>
    </g>
    <g id="xtick_5">
     <g id="line2d_5">
      <g>
       <use xlink:href="#m3883c405cc" x="312.793641" y="290.68" style="stroke: #000000; stroke-width: 0.8"/>
      </g>
     </g>
     <g id="text_5">
      <!-- 8 -->
      <g transform="translate(305.158641 315.91625) scale(0.24 -0.24)">
       <defs>
        <path id="DejaVuSans-38" d="M 2034 2216 
Q 1584 2216 1326 1975 
Q 1069 1734 1069 1313 
Q 1069 891 1326 650 
Q 1584 409 2034 409 
Q 2484 409 2743 651 
Q 3003 894 3003 1313 
Q 3003 1734 2745 1975 
Q 2488 2216 2034 2216 
z
M 1403 2484 
Q 997 2584 770 2862 
Q 544 3141 544 3541 
Q 544 4100 942 4425 
Q 1341 4750 2034 4750 
Q 2731 4750 3128 4425 
Q 3525 4100 3525 3541 
Q 3525 3141 3298 2862 
Q 3072 2584 2669 2484 
Q 3125 2378 3379 2068 
Q 3634 1759 3634 1313 
Q 3634 634 3220 271 
Q 2806 -91 2034 -91 
Q 1263 -91 848 271 
Q 434 634 434 1313 
Q 434 1759 690 2068 
Q 947 2378 1403 2484 
z
M 1172 3481 
Q 1172 3119 1398 2916 
Q 1625 2713 2034 2713 
Q 2441 2713 2670 2916 
Q 2900 3119 2900 3481 
Q 2900 3844 2670 4047 
Q 2441 4250 2034 4250 
Q 1625 4250 1398 4047 
Q 1172 3844 1172 3481 
z
" transform="scale(0.015625)"/>
       </defs>
       <use xlink:href="#DejaVuSans-38"/>
      </g>
     </g>
    </g>
    <g id="text_6">
     <!-- Time (d) -->
     <g transform="translate(152.00125 343.14375) scale(0.24 -0.24)">
      <defs>
       <path id="DejaVuSans-54" d="M -19 4666 
L 3928 4666 
L 3928 4134 
L 2272 4134 
L 2272 0 
L 1638 0 
L 1638 4134 
L -19 4134 
L -19 4666 
z
" transform="scale(0.015625)"/>
       <path id="DejaVuSans-69" d="M 603 3500 
L 1178 3500 
L 1178 0 
L 603 0 
L 603 3500 
z
M 603 4863 
L 1178 4863 
L 1178 4134 
L 603 4134 
L 603 4863 
z
" transform="scale(0.015625)"/>
       <path id="DejaVuSans-6d" d="M 3328 2828 
Q 3544 3216 3844 3400 
Q 4144 3584 4550 3584 
Q 5097 3584 5394 3201 
Q 5691 2819 5691 2113 
L 5691 0 
L 5113 0 
L 5113 2094 
Q 5113 2597 4934 2840 
Q 4756 3084 4391 3084 
Q 3944 3084 3684 2787 
Q 3425 2491 3425 1978 
L 3425 0 
L 2847 0 
L 2847 2094 
Q 2847 2600 2669 2842 
Q 2491 3084 2119 3084 
Q 1678 3084 1418 2786 
Q 1159 2488 1159 1978 
L 1159 0 
L 581 0 
L 581 3500 
L 1159 3500 
L 1159 2956 
Q 1356 3278 1631 3431 
Q 1906 3584 2284 3584 
Q 2666 3584 2933 3390 
Q 3200 3197 3328 2828 
z
" transform="scale(0.015625)"/>
       <path id="DejaVuSans-65" d="M 3597 1894 
L 3597 1613 
L 953 1613 
Q 991 1019 1311 708 
Q 1631 397 2203 397 
Q 2534 397 2845 478 
Q 3156 559 3463 722 
L 3463 178 
Q 3153 47 2828 -22 
Q 2503 -91 2169 -91 
Q 1331 -91 842 396 
Q 353 884 353 1716 
Q 353 2575 817 3079 
Q 1281 3584 2069 3584 
Q 2775 3584 3186 3129 
Q 3597 2675 3597 1894 
z
M 3022 2063 
Q 3016 2534 2758 2815 
Q 2500 3097 2075 3097 
Q 1594 3097 1305 2825 
Q 1016 2553 972 2059 
L 3022 2063 
z
" transform="scale(0.015625)"/>
       <path id="DejaVuSans-20" transform="scale(0.015625)"/>
       <path id="DejaVuSans-28" d="M 1984 4856 
Q 1566 4138 1362 3434 
Q 1159 2731 1159 2009 
Q 1159 1288 1364 580 
Q 1569 -128 1984 -844 
L 1484 -844 
Q 1016 -109 783 600 
Q 550 1309 550 2009 
Q 550 2706 781 3412 
Q 1013 4119 1484 4856 
L 1984 4856 
z
" transform="scale(0.015625)"/>
       <path id="DejaVuSans-64" d="M 2906 2969 
L 2906 4863 
L 3481 4863 
L 3481 0 
L 2906 0 
L 2906 525 
Q 2725 213 2448 61 
Q 2172 -91 1784 -91 
Q 1150 -91 751 415 
Q 353 922 353 1747 
Q 353 2572 751 3078 
Q 1150 3584 1784 3584 
Q 2172 3584 2448 3432 
Q 2725 3281 2906 2969 
z
M 947 1747 
Q 947 1113 1208 752 
Q 1469 391 1925 391 
Q 2381 391 2643 752 
Q 2906 1113 2906 1747 
Q 2906 2381 2643 2742 
Q 2381 3103 1925 3103 
Q 1469 3103 1208 2742 
Q 947 2381 947 1747 
z
" transform="scale(0.015625)"/>
       <path id="DejaVuSans-29" d="M 513 4856 
L 1013 4856 
Q 1481 4119 1714 3412 
Q 1947 2706 1947 2009 
Q 1947 1309 1714 600 
Q 1481 -109 1013 -844 
L 513 -844 
Q 928 -128 1133 580 
Q 1338 1288 1338 2009 
Q 1338 2731 1133 3434 
Q 928 4138 513 4856 
z
" transform="scale(0.015625)"/>
      </defs>
      <use xlink:href="#DejaVuSans-54"/>
      <use xlink:href="#DejaVuSans-69" transform="translate(57.958984 0)"/>
      <use xlink:href="#DejaVuSans-6d" transform="translate(85.742188 0)"/>
      <use xlink:href="#DejaVuSans-65" transform="translate(183.154297 0)"/>
      <use xlink:href="#DejaVuSans-20" transform="translate(244.677734 0)"/>
      <use xlink:href="#DejaVuSans-28" transform="translate(276.464844 0)"/>
      <use xlink:href="#DejaVuSans-64" transform="translate(315.478516 0)"/>
      <use xlink:href="#DejaVuSans-29" transform="translate(378.955078 0)"/>
     </g>
    </g>
   </g>
   <g id="matplotlib.axis_2">
    <g id="ytick_1">
     <g id="line2d_6">
      <defs>
       <path id="m3e298153a2" d="M 0 0 
L -3.5 0 
" style="stroke: #000000; stroke-width: 0.8"/>
      </defs>
      <g>
       <use xlink:href="#m3e298153a2" x="56.75" y="283.638788" style="stroke: #000000; stroke-width: 0.8"/>
      </g>
     </g>
     <g id="text_7">
      <!-- 0 -->
      <g transform="translate(34.48 292.756913) scale(0.24 -0.24)">
       <use xlink:href="#DejaVuSans-30"/>
      </g>
     </g>
    </g>
    <g id="ytick_2">
     <g id="line2d_7">
      <g>
       <use xlink:href="#m3e298153a2" x="56.75" y="227.309091" style="stroke: #000000; stroke-width: 0.8"/>
      </g>
     </g>
     <g id="text_8">
      <!-- 2 -->
      <g transform="translate(34.48 236.427216) scale(0.24 -0.24)">
       <use xlink:href="#DejaVuSans-32"/>
      </g>
     </g>
    </g>
    <g id="ytick_3">
     <g id="line2d_8">
      <g>
       <use xlink:href="#m3e298153a2" x="56.75" y="170.979394" style="stroke: #000000; stroke-width: 0.8"/>
      </g>
     </g>
     <g id="text_9">
      <!-- 4 -->
      <g transform="translate(34.48 180.097519) scale(0.24 -0.24)">
       <use xlink:href="#DejaVuSans-34"/>
      </g>
     </g>
    </g>
    <g id="ytick_4">
     <g id="line2d_9">
      <g>
       <use xlink:href="#m3e298153a2" x="56.75" y="114.649697" style="stroke: #000000; stroke-width: 0.8"/>
      </g>
     </g>
     <g id="text_10">
      <!-- 6 -->
      <g transform="translate(34.48 123.767822) scale(0.24 -0.24)">
       <use xlink:href="#DejaVuSans-36"/>
      </g>
     </g>
    </g>
    <g id="ytick_5">
     <g id="line2d_10">
      <g>
       <use xlink:href="#m3e298153a2" x="56.75" y="58.32" style="stroke: #000000; stroke-width: 0.8"/>
      </g>
     </g>
     <g id="text_11">
      <!-- 8 -->
      <g transform="translate(34.48 67.438125) scale(0.24 -0.24)">
       <use xlink:href="#DejaVuSans-38"/>
      </g>
     </g>
    </g>
    <g id="text_12">
     <!-- Log$_{10}$ Virus -->
     <g transform="translate(25.44 241.46) rotate(-90) scale(0.24 -0.24)">
      <defs>
       <path id="DejaVuSans-4c" d="M 628 4666 
L 1259 4666 
L 1259 531 
L 3531 531 
L 3531 0 
L 628 0 
L 628 4666 
z
" transform="scale(0.015625)"/>
       <path id="DejaVuSans-6f" d="M 1959 3097 
Q 1497 3097 1228 2736 
Q 959 2375 959 1747 
Q 959 1119 1226 758 
Q 1494 397 1959 397 
Q 2419 397 2687 759 
Q 2956 1122 2956 1747 
Q 2956 2369 2687 2733 
Q 2419 3097 1959 3097 
z
M 1959 3584 
Q 2709 3584 3137 3096 
Q 3566 2609 3566 1747 
Q 3566 888 3137 398 
Q 2709 -91 1959 -91 
Q 1206 -91 779 398 
Q 353 888 353 1747 
Q 353 2609 779 3096 
Q 1206 3584 1959 3584 
z
" transform="scale(0.015625)"/>
       <path id="DejaVuSans-67" d="M 2906 1791 
Q 2906 2416 2648 2759 
Q 2391 3103 1925 3103 
Q 1463 3103 1205 2759 
Q 947 2416 947 1791 
Q 947 1169 1205 825 
Q 1463 481 1925 481 
Q 2391 481 2648 825 
Q 2906 1169 2906 1791 
z
M 3481 434 
Q 3481 -459 3084 -895 
Q 2688 -1331 1869 -1331 
Q 1566 -1331 1297 -1286 
Q 1028 -1241 775 -1147 
L 775 -588 
Q 1028 -725 1275 -790 
Q 1522 -856 1778 -856 
Q 2344 -856 2625 -561 
Q 2906 -266 2906 331 
L 2906 616 
Q 2728 306 2450 153 
Q 2172 0 1784 0 
Q 1141 0 747 490 
Q 353 981 353 1791 
Q 353 2603 747 3093 
Q 1141 3584 1784 3584 
Q 2172 3584 2450 3431 
Q 2728 3278 2906 2969 
L 2906 3500 
L 3481 3500 
L 3481 434 
z
" transform="scale(0.015625)"/>
       <path id="DejaVuSans-31" d="M 794 531 
L 1825 531 
L 1825 4091 
L 703 3866 
L 703 4441 
L 1819 4666 
L 2450 4666 
L 2450 531 
L 3481 531 
L 3481 0 
L 794 0 
L 794 531 
z
" transform="scale(0.015625)"/>
       <path id="DejaVuSans-56" d="M 1831 0 
L 50 4666 
L 709 4666 
L 2188 738 
L 3669 4666 
L 4325 4666 
L 2547 0 
L 1831 0 
z
" transform="scale(0.015625)"/>
       <path id="DejaVuSans-72" d="M 2631 2963 
Q 2534 3019 2420 3045 
Q 2306 3072 2169 3072 
Q 1681 3072 1420 2755 
Q 1159 2438 1159 1844 
L 1159 0 
L 581 0 
L 581 3500 
L 1159 3500 
L 1159 2956 
Q 1341 3275 1631 3429 
Q 1922 3584 2338 3584 
Q 2397 3584 2469 3576 
Q 2541 3569 2628 3553 
L 2631 2963 
z
" transform="scale(0.015625)"/>
       <path id="DejaVuSans-75" d="M 544 1381 
L 544 3500 
L 1119 3500 
L 1119 1403 
Q 1119 906 1312 657 
Q 1506 409 1894 409 
Q 2359 409 2629 706 
Q 2900 1003 2900 1516 
L 2900 3500 
L 3475 3500 
L 3475 0 
L 2900 0 
L 2900 538 
Q 2691 219 2414 64 
Q 2138 -91 1772 -91 
Q 1169 -91 856 284 
Q 544 659 544 1381 
z
M 1991 3584 
L 1991 3584 
z
" transform="scale(0.015625)"/>
       <path id="DejaVuSans-73" d="M 2834 3397 
L 2834 2853 
Q 2591 2978 2328 3040 
Q 2066 3103 1784 3103 
Q 1356 3103 1142 2972 
Q 928 2841 928 2578 
Q 928 2378 1081 2264 
Q 1234 2150 1697 2047 
L 1894 2003 
Q 2506 1872 2764 1633 
Q 3022 1394 3022 966 
Q 3022 478 2636 193 
Q 2250 -91 1575 -91 
Q 1294 -91 989 -36 
Q 684 19 347 128 
L 347 722 
Q 666 556 975 473 
Q 1284 391 1588 391 
Q 1994 391 2212 530 
Q 2431 669 2431 922 
Q 2431 1156 2273 1281 
Q 2116 1406 1581 1522 
L 1381 1569 
Q 847 1681 609 1914 
Q 372 2147 372 2553 
Q 372 3047 722 3315 
Q 1072 3584 1716 3584 
Q 2034 3584 2315 3537 
Q 2597 3491 2834 3397 
z
" transform="scale(0.015625)"/>
      </defs>
      <use xlink:href="#DejaVuSans-4c" transform="translate(0 0.015625)"/>
      <use xlink:href="#DejaVuSans-6f" transform="translate(55.712891 0.015625)"/>
      <use xlink:href="#DejaVuSans-67" transform="translate(116.894531 0.015625)"/>
      <use xlink:href="#DejaVuSans-31" transform="translate(181.328125 -16.390625) scale(0.7)"/>
      <use xlink:href="#DejaVuSans-30" transform="translate(225.864258 -16.390625) scale(0.7)"/>
      <use xlink:href="#DejaVuSans-20" transform="translate(273.134766 0.015625)"/>
      <use xlink:href="#DejaVuSans-56" transform="translate(304.921875 0.015625)"/>
      <use xlink:href="#DejaVuSans-69" transform="translate(373.330078 0.015625)"/>
      <use xlink:href="#DejaVuSans-72" transform="translate(401.113281 0.015625)"/>
      <use xlink:href="#DejaVuSans-75" transform="translate(442.226562 0.015625)"/>
      <use xlink:href="#DejaVuSans-73" transform="translate(505.605469 0.015625)"/>
     </g>
    </g>
   </g>
   <g id="line2d_11">
    <path d="M 59.911033 283.638788 
L 61.181799 282.969679 
L 62.452566 270.815845 
L 63.723333 264.819688 
L 64.9941 260.936613 
L 66.264867 257.952386 
L 68.806401 253.052246 
L 73.889468 244.29049 
L 100.575573 199.238011 
L 137.427812 137.459337 
L 143.781647 127.264231 
L 147.593947 121.426653 
L 151.406248 115.950085 
L 154.742011 111.58251 
L 156.489315 109.499548 
L 159.030849 106.761601 
L 161.572383 104.421847 
L 164.113917 102.510357 
L 166.65545 101.043528 
L 169.196984 100.014745 
L 171.738518 99.395616 
L 174.280052 99.145323 
L 176.821585 99.217071 
L 179.363119 99.561128 
L 181.904653 100.130564 
L 184.446187 100.884753 
L 188.258487 102.292339 
L 192.070788 103.951586 
L 197.153855 106.450404 
L 202.236923 109.194976 
L 208.590757 112.906363 
L 213.673825 116.098061 
L 218.756892 119.526575 
L 223.83996 123.267805 
L 227.65226 126.355612 
L 231.464561 129.779536 
L 234.006095 132.314921 
L 236.547629 135.124889 
L 239.089162 138.309515 
L 241.630696 142.036765 
L 242.901463 144.191781 
L 244.17223 146.62185 
L 245.442997 149.427956 
L 246.713764 152.783631 
L 247.984531 157.012051 
L 249.572989 164.736681 
L 250.526064 172.400664 
L 253.067598 204.268441 
L 256.879899 252.615392 
L 258.150666 265.868428 
L 259.421432 274.955277 
L 260.692199 279.914185 
L 261.962966 282.659088 
L 263.233733 283.638788 
L 312.793641 283.638788 
L 312.793641 283.638788 
" clip-path="url(#p3baedd3858)" style="fill: none; stroke: #800080; stroke-width: 4; stroke-linecap: square"/>
   </g>
   <g id="line2d_12">
    <path d="M 59.911033 283.638788 
L 61.181799 282.98054 
L 62.452566 270.829022 
L 63.723333 264.850235 
L 64.9941 260.991242 
L 66.264867 258.0388 
L 68.806401 253.229699 
L 72.618701 246.836345 
L 77.701769 238.770153 
L 81.51407 233.029755 
L 85.32637 227.692099 
L 87.867904 224.43466 
L 90.409438 221.486662 
L 92.950971 218.902357 
L 95.492505 216.743079 
L 98.034039 215.060446 
L 99.304806 214.411376 
L 100.575573 213.900424 
L 101.84634 213.531055 
L 103.117106 213.301104 
L 104.387873 213.216483 
L 105.65864 213.275531 
L 106.929407 213.473925 
L 108.200174 213.811147 
L 109.470941 214.275863 
L 112.012475 215.546977 
L 114.554008 217.173192 
L 118.366309 219.992375 
L 125.99091 225.75846 
L 129.803211 228.378158 
L 133.615512 230.760351 
L 137.427812 232.896336 
L 141.240113 234.783578 
L 145.052413 236.420914 
L 148.864714 237.807108 
L 152.677015 238.940971 
L 156.489315 239.820419 
L 160.301616 240.444135 
L 164.113917 240.812394 
L 167.926217 240.927742 
L 171.738518 240.795443 
L 175.550818 240.423958 
L 179.363119 239.825664 
L 183.17542 239.017235 
L 186.98772 238.019817 
L 192.070788 236.441321 
L 198.424622 234.177548 
L 213.673825 228.516093 
L 218.756892 226.941874 
L 222.569193 225.973505 
L 226.381494 225.224034 
L 230.193794 224.714882 
L 234.006095 224.454259 
L 237.818396 224.435925 
L 241.630696 224.639557 
L 245.442997 225.033735 
L 250.526064 225.788393 
L 258.150666 227.209072 
L 270.858334 229.642448 
L 277.212169 230.645591 
L 283.566003 231.415842 
L 289.919838 231.921668 
L 296.273672 232.154201 
L 302.627506 232.123945 
L 308.981341 231.858417 
L 312.793641 231.603197 
L 312.793641 231.603197 
" clip-path="url(#p3baedd3858)" style="fill: none; stroke: #000000; stroke-width: 4; stroke-linecap: square"/>
   </g>
   <g id="patch_3">
    <path d="M 56.75 290.68 
L 56.75 58.32 
" style="fill: none; stroke: #000000; stroke-width: 0.8; stroke-linejoin: miter; stroke-linecap: square"/>
   </g>
   <g id="patch_4">
    <path d="M 347.565 290.68 
L 347.565 58.32 
" style="fill: none; stroke: #000000; stroke-width: 0.8; stroke-linejoin: miter; stroke-linecap: square"/>
   </g>
   <g id="patch_5">
    <path d="M 56.75 290.68 
L 347.565 290.68 
" style="fill: none; stroke: #000000; stroke-width: 0.8; stroke-linejoin: miter; stroke-linecap: square"/>
   </g>
   <g id="patch_6">
    <path d="M 56.75 58.32 
L 347.565 58.32 
" style="fill: none; stroke: #000000; stroke-width: 0.8; stroke-linejoin: miter; stroke-linecap: square"/>
   </g>
   <g id="line2d_13">
    <defs>
     <path id="mfdd6f9fc26" d="M 0 -3 
L -3 3 
L 3 3 
z
" style="stroke: #800080; stroke-linejoin: miter"/>
    </defs>
    <g clip-path="url(#p3baedd3858)">
     <use xlink:href="#mfdd6f9fc26" x="59.911033" y="283.638788" style="fill: #800080; stroke: #800080; stroke-linejoin: miter"/>
     <use xlink:href="#mfdd6f9fc26" x="91.521359" y="194.448428" style="fill: #800080; stroke: #800080; stroke-linejoin: miter"/>
     <use xlink:href="#mfdd6f9fc26" x="123.131685" y="151.183416" style="fill: #800080; stroke: #800080; stroke-linejoin: miter"/>
     <use xlink:href="#mfdd6f9fc26" x="154.742011" y="130.291734" style="fill: #800080; stroke: #800080; stroke-linejoin: miter"/>
     <use xlink:href="#mfdd6f9fc26" x="186.352337" y="99.956023" style="fill: #800080; stroke: #800080; stroke-linejoin: miter"/>
     <use xlink:href="#mfdd6f9fc26" x="217.962663" y="122.768622" style="fill: #800080; stroke: #800080; stroke-linejoin: miter"/>
     <use xlink:href="#mfdd6f9fc26" x="249.572989" y="160.139507" style="fill: #800080; stroke: #800080; stroke-linejoin: miter"/>
     <use xlink:href="#mfdd6f9fc26" x="281.183315" y="283.638788" style="fill: #800080; stroke: #800080; stroke-linejoin: miter"/>
    </g>
   </g>
   <g id="line2d_14">
    <defs>
     <path id="m748a0e7b38" d="M 0 -6 
L -6 6 
L 6 6 
z
" style="stroke: #000000; stroke-width: 2; stroke-linejoin: miter"/>
    </defs>
    <g clip-path="url(#p3baedd3858)">
     <use xlink:href="#m748a0e7b38" x="59.911033" y="283.638788" style="fill: #800080; stroke: #000000; stroke-width: 2; stroke-linejoin: miter"/>
     <use xlink:href="#m748a0e7b38" x="91.521359" y="194.448428" style="fill: #800080; stroke: #000000; stroke-width: 2; stroke-linejoin: miter"/>
     <use xlink:href="#m748a0e7b38" x="123.131685" y="151.183416" style="fill: #800080; stroke: #000000; stroke-width: 2; stroke-linejoin: miter"/>
     <use xlink:href="#m748a0e7b38" x="154.742011" y="130.291734" style="fill: #800080; stroke: #000000; stroke-width: 2; stroke-linejoin: miter"/>
     <use xlink:href="#m748a0e7b38" x="186.352337" y="99.956023" style="fill: #800080; stroke: #000000; stroke-width: 2; stroke-linejoin: miter"/>
     <use xlink:href="#m748a0e7b38" x="217.962663" y="122.768622" style="fill: #800080; stroke: #000000; stroke-width: 2; stroke-linejoin: miter"/>
     <use xlink:href="#m748a0e7b38" x="249.572989" y="160.139507" style="fill: #800080; stroke: #000000; stroke-width: 2; stroke-linejoin: miter"/>
     <use xlink:href="#m748a0e7b38" x="281.183315" y="283.638788" style="fill: #800080; stroke: #000000; stroke-width: 2; stroke-linejoin: miter"/>
    </g>
   </g>
  </g>
  <g id="axes_2">
   <g id="patch_7">
    <path d="M 411.305 290.68 
L 702.12 290.68 
L 702.12 58.32 
L 411.305 58.32 
z
" style="fill: #ffffff"/>
   </g>
   <g id="matplotlib.axis_3">
    <g id="xtick_6">
     <g id="line2d_15">
      <g>
       <use xlink:href="#m3883c405cc" x="414.466033" y="290.68" style="stroke: #000000; stroke-width: 0.8"/>
      </g>
     </g>
     <g id="text_13">
      <!-- 0 -->
      <g transform="translate(406.831033 315.91625) scale(0.24 -0.24)">
       <use xlink:href="#DejaVuSans-30"/>
      </g>
     </g>
    </g>
    <g id="xtick_7">
     <g id="line2d_16">
      <g>
       <use xlink:href="#m3883c405cc" x="477.686685" y="290.68" style="stroke: #000000; stroke-width: 0.8"/>
      </g>
     </g>
     <g id="text_14">
      <!-- 2 -->
      <g transform="translate(470.051685 315.91625) scale(0.24 -0.24)">
       <use xlink:href="#DejaVuSans-32"/>
      </g>
     </g>
    </g>
    <g id="xtick_8">
     <g id="line2d_17">
      <g>
       <use xlink:href="#m3883c405cc" x="540.907337" y="290.68" style="stroke: #000000; stroke-width: 0.8"/>
      </g>
     </g>
     <g id="text_15">
      <!-- 4 -->
      <g transform="translate(533.272337 315.91625) scale(0.24 -0.24)">
       <use xlink:href="#DejaVuSans-34"/>
      </g>
     </g>
    </g>
    <g id="xtick_9">
     <g id="line2d_18">
      <g>
       <use xlink:href="#m3883c405cc" x="604.127989" y="290.68" style="stroke: #000000; stroke-width: 0.8"/>
      </g>
     </g>
     <g id="text_16">
      <!-- 6 -->
      <g transform="translate(596.492989 315.91625) scale(0.24 -0.24)">
       <use xlink:href="#DejaVuSans-36"/>
      </g>
     </g>
    </g>
    <g id="xtick_10">
     <g id="line2d_19">
      <g>
       <use xlink:href="#m3883c405cc" x="667.348641" y="290.68" style="stroke: #000000; stroke-width: 0.8"/>
      </g>
     </g>
     <g id="text_17">
      <!-- 8 -->
      <g transform="translate(659.713641 315.91625) scale(0.24 -0.24)">
       <use xlink:href="#DejaVuSans-38"/>
      </g>
     </g>
    </g>
    <g id="text_18">
     <!-- Time (d) -->
     <g transform="translate(506.55625 343.14375) scale(0.24 -0.24)">
      <use xlink:href="#DejaVuSans-54"/>
      <use xlink:href="#DejaVuSans-69" transform="translate(57.958984 0)"/>
      <use xlink:href="#DejaVuSans-6d" transform="translate(85.742188 0)"/>
      <use xlink:href="#DejaVuSans-65" transform="translate(183.154297 0)"/>
      <use xlink:href="#DejaVuSans-20" transform="translate(244.677734 0)"/>
      <use xlink:href="#DejaVuSans-28" transform="translate(276.464844 0)"/>
      <use xlink:href="#DejaVuSans-64" transform="translate(315.478516 0)"/>
      <use xlink:href="#DejaVuSans-29" transform="translate(378.955078 0)"/>
     </g>
    </g>
   </g>
   <g id="matplotlib.axis_4">
    <g id="ytick_6">
     <g id="line2d_20">
      <g>
       <use xlink:href="#m3e298153a2" x="411.305" y="290.68" style="stroke: #000000; stroke-width: 0.8"/>
      </g>
     </g>
     <g id="text_19">
      <!-- 4 -->
      <g transform="translate(389.035 299.798125) scale(0.24 -0.24)">
       <use xlink:href="#DejaVuSans-34"/>
      </g>
     </g>
    </g>
    <g id="ytick_7">
     <g id="line2d_21">
      <g>
       <use xlink:href="#m3e298153a2" x="411.305" y="232.59" style="stroke: #000000; stroke-width: 0.8"/>
      </g>
     </g>
     <g id="text_20">
      <!-- 5 -->
      <g transform="translate(389.035 241.708125) scale(0.24 -0.24)">
       <defs>
        <path id="DejaVuSans-35" d="M 691 4666 
L 3169 4666 
L 3169 4134 
L 1269 4134 
L 1269 2991 
Q 1406 3038 1543 3061 
Q 1681 3084 1819 3084 
Q 2600 3084 3056 2656 
Q 3513 2228 3513 1497 
Q 3513 744 3044 326 
Q 2575 -91 1722 -91 
Q 1428 -91 1123 -41 
Q 819 9 494 109 
L 494 744 
Q 775 591 1075 516 
Q 1375 441 1709 441 
Q 2250 441 2565 725 
Q 2881 1009 2881 1497 
Q 2881 1984 2565 2268 
Q 2250 2553 1709 2553 
Q 1456 2553 1204 2497 
Q 953 2441 691 2322 
L 691 4666 
z
" transform="scale(0.015625)"/>
       </defs>
       <use xlink:href="#DejaVuSans-35"/>
      </g>
     </g>
    </g>
    <g id="ytick_8">
     <g id="line2d_22">
      <g>
       <use xlink:href="#m3e298153a2" x="411.305" y="174.5" style="stroke: #000000; stroke-width: 0.8"/>
      </g>
     </g>
     <g id="text_21">
      <!-- 6 -->
      <g transform="translate(389.035 183.618125) scale(0.24 -0.24)">
       <use xlink:href="#DejaVuSans-36"/>
      </g>
     </g>
    </g>
    <g id="ytick_9">
     <g id="line2d_23">
      <g>
       <use xlink:href="#m3e298153a2" x="411.305" y="116.41" style="stroke: #000000; stroke-width: 0.8"/>
      </g>
     </g>
     <g id="text_22">
      <!-- 7 -->
      <g transform="translate(389.035 125.528125) scale(0.24 -0.24)">
       <defs>
        <path id="DejaVuSans-37" d="M 525 4666 
L 3525 4666 
L 3525 4397 
L 1831 0 
L 1172 0 
L 2766 4134 
L 525 4134 
L 525 4666 
z
" transform="scale(0.015625)"/>
       </defs>
       <use xlink:href="#DejaVuSans-37"/>
      </g>
     </g>
    </g>
    <g id="ytick_10">
     <g id="line2d_24">
      <g>
       <use xlink:href="#m3e298153a2" x="411.305" y="58.32" style="stroke: #000000; stroke-width: 0.8"/>
      </g>
     </g>
     <g id="text_23">
      <!-- 8 -->
      <g transform="translate(389.035 67.438125) scale(0.24 -0.24)">
       <use xlink:href="#DejaVuSans-38"/>
      </g>
     </g>
    </g>
    <g id="text_24">
     <!-- Log$_{10}$ T cells -->
     <g transform="translate(379.995 249.14) rotate(-90) scale(0.24 -0.24)">
      <defs>
       <path id="DejaVuSans-63" d="M 3122 3366 
L 3122 2828 
Q 2878 2963 2633 3030 
Q 2388 3097 2138 3097 
Q 1578 3097 1268 2742 
Q 959 2388 959 1747 
Q 959 1106 1268 751 
Q 1578 397 2138 397 
Q 2388 397 2633 464 
Q 2878 531 3122 666 
L 3122 134 
Q 2881 22 2623 -34 
Q 2366 -91 2075 -91 
Q 1284 -91 818 406 
Q 353 903 353 1747 
Q 353 2603 823 3093 
Q 1294 3584 2113 3584 
Q 2378 3584 2631 3529 
Q 2884 3475 3122 3366 
z
" transform="scale(0.015625)"/>
       <path id="DejaVuSans-6c" d="M 603 4863 
L 1178 4863 
L 1178 0 
L 603 0 
L 603 4863 
z
" transform="scale(0.015625)"/>
      </defs>
      <use xlink:href="#DejaVuSans-4c" transform="translate(0 0.015625)"/>
      <use xlink:href="#DejaVuSans-6f" transform="translate(55.712891 0.015625)"/>
      <use xlink:href="#DejaVuSans-67" transform="translate(116.894531 0.015625)"/>
      <use xlink:href="#DejaVuSans-31" transform="translate(181.328125 -16.390625) scale(0.7)"/>
      <use xlink:href="#DejaVuSans-30" transform="translate(225.864258 -16.390625) scale(0.7)"/>
      <use xlink:href="#DejaVuSans-20" transform="translate(273.134766 0.015625)"/>
      <use xlink:href="#DejaVuSans-54" transform="translate(304.921875 0.015625)"/>
      <use xlink:href="#DejaVuSans-20" transform="translate(366.005859 0.015625)"/>
      <use xlink:href="#DejaVuSans-63" transform="translate(397.792969 0.015625)"/>
      <use xlink:href="#DejaVuSans-65" transform="translate(452.773438 0.015625)"/>
      <use xlink:href="#DejaVuSans-6c" transform="translate(514.296875 0.015625)"/>
      <use xlink:href="#DejaVuSans-6c" transform="translate(542.080078 0.015625)"/>
      <use xlink:href="#DejaVuSans-73" transform="translate(569.863281 0.015625)"/>
     </g>
    </g>
   </g>
   <g id="line2d_25">
    <path d="M 414.466033 246.313656 
L 497.06588 246.219544 
L 505.961248 245.994364 
L 511.044315 245.675966 
L 514.856616 245.249661 
L 518.668917 244.550893 
L 521.21045 243.864289 
L 523.751984 242.936409 
L 526.293518 241.703329 
L 528.835052 240.102301 
L 531.376585 238.075559 
L 533.918119 235.582591 
L 536.459653 232.611855 
L 539.001187 229.189103 
L 541.54272 225.380203 
L 545.355021 219.141792 
L 556.791923 199.864674 
L 560.604224 194.156312 
L 563.145757 190.6898 
L 565.687291 187.520025 
L 568.228825 184.658787 
L 570.770359 182.110546 
L 573.311892 179.872705 
L 575.853426 177.939753 
L 578.39496 176.303832 
L 580.936494 174.954609 
L 583.478027 173.879886 
L 586.019561 173.066065 
L 588.561095 172.49946 
L 591.102629 172.166071 
L 593.644162 172.051486 
L 596.185696 172.141155 
L 598.72723 172.421367 
L 601.268764 172.877818 
L 604.127989 173.586296 
L 607.622598 174.7051 
L 611.434899 176.205454 
L 615.247199 177.958253 
L 619.0595 179.925146 
L 624.142567 182.820373 
L 630.496402 186.772807 
L 638.121003 191.836695 
L 667.348641 211.627137 
L 667.348641 211.627137 
" clip-path="url(#p9b1435db3b)" style="fill: none; stroke: #800080; stroke-width: 4; stroke-linecap: square"/>
   </g>
   <g id="line2d_26">
    <path d="M 414.466033 159.027256 
L 530.105818 158.930996 
L 539.001187 158.708011 
L 544.084254 158.407701 
L 547.896555 158.026003 
L 551.708855 157.441761 
L 555.521156 156.579796 
L 558.06269 155.811821 
L 560.604224 154.865068 
L 563.145757 153.724307 
L 565.687291 152.381953 
L 568.228825 150.839934 
L 572.041125 148.181555 
L 575.853426 145.181503 
L 580.936494 140.839971 
L 591.102629 131.992191 
L 596.185696 127.897555 
L 599.997997 125.070236 
L 604.127989 122.270413 
L 607.622598 120.119731 
L 611.434899 118.000416 
L 615.247199 116.108326 
L 619.0595 114.428513 
L 622.871801 112.944177 
L 627.954868 111.238486 
L 633.037936 109.806909 
L 638.121003 108.610059 
L 643.204071 107.612134 
L 649.557905 106.596617 
L 655.911739 105.790499 
L 663.536341 105.039583 
L 667.348641 104.735316 
L 667.348641 104.735316 
" clip-path="url(#p9b1435db3b)" style="fill: none; stroke-dasharray: 14.8,6.4; stroke-dashoffset: 0; stroke: #800080; stroke-width: 4"/>
   </g>
   <g id="line2d_27">
    <path d="M 414.466033 246.313656 
L 428.444468 245.760073 
L 432.256769 245.39001 
L 436.06907 244.798378 
L 438.610603 244.23244 
L 441.152137 243.486262 
L 443.693671 242.532651 
L 446.235205 241.34385 
L 448.776738 239.91772 
L 451.318272 238.269414 
L 455.130573 235.486244 
L 462.755174 229.763151 
L 465.296708 228.107808 
L 467.838241 226.682054 
L 470.379775 225.5106 
L 472.921309 224.601333 
L 475.462843 223.94488 
L 478.004377 223.520441 
L 480.54591 223.301762 
L 483.087444 223.261671 
L 486.899745 223.477325 
L 490.712045 223.951856 
L 495.795113 224.868145 
L 502.148947 226.293502 
L 527.564285 232.32367 
L 533.918119 233.51871 
L 540.271954 234.498996 
L 545.355021 235.106456 
L 550.438089 235.538636 
L 555.521156 235.779108 
L 560.604224 235.813615 
L 565.687291 235.633774 
L 570.770359 235.242572 
L 577.124193 234.488933 
L 584.748794 233.314889 
L 597.456463 231.300881 
L 604.127989 230.506253 
L 610.164132 230.039415 
L 616.517966 229.817692 
L 622.871801 229.845242 
L 630.496402 230.136846 
L 640.662537 230.80047 
L 664.807108 232.514297 
L 667.348641 232.64621 
L 667.348641 232.64621 
" clip-path="url(#p9b1435db3b)" style="fill: none; stroke: #000000; stroke-width: 4; stroke-linecap: square"/>
   </g>
   <g id="line2d_28">
    <path d="M 414.466033 159.027256 
L 608.893365 158.916398 
L 667.348641 158.872321 
L 667.348641 158.872321 
" clip-path="url(#p9b1435db3b)" style="fill: none; stroke-dasharray: 14.8,6.4; stroke-dashoffset: 0; stroke: #000000; stroke-width: 4"/>
   </g>
   <g id="line2d_29">
    <path d="M 414.466033 119.363988 
L 455.130573 119.480404 
L 505.961248 119.941057 
L 619.0595 120.380237 
L 667.348641 120.581057 
L 667.348641 120.581057 
" clip-path="url(#p9b1435db3b)" style="fill: none; stroke-dasharray: 25.6,6.4,4,6.4; stroke-dashoffset: 0; stroke: #000000; stroke-width: 4"/>
   </g>
   <g id="patch_8">
    <path d="M 411.305 290.68 
L 411.305 58.32 
" style="fill: none; stroke: #000000; stroke-width: 0.8; stroke-linejoin: miter; stroke-linecap: square"/>
   </g>
   <g id="patch_9">
    <path d="M 702.12 290.68 
L 702.12 58.32 
" style="fill: none; stroke: #000000; stroke-width: 0.8; stroke-linejoin: miter; stroke-linecap: square"/>
   </g>
   <g id="patch_10">
    <path d="M 411.305 290.68 
L 702.12 290.68 
" style="fill: none; stroke: #000000; stroke-width: 0.8; stroke-linejoin: miter; stroke-linecap: square"/>
   </g>
   <g id="patch_11">
    <path d="M 411.305 58.32 
L 702.12 58.32 
" style="fill: none; stroke: #000000; stroke-width: 0.8; stroke-linejoin: miter; stroke-linecap: square"/>
   </g>
   <g id="line2d_30">
    <defs>
     <path id="m8c3dfad20f" d="M 0 3 
C 0.795609 3 1.55874 2.683901 2.12132 2.12132 
C 2.683901 1.55874 3 0.795609 3 0 
C 3 -0.795609 2.683901 -1.55874 2.12132 -2.12132 
C 1.55874 -2.683901 0.795609 -3 0 -3 
C -0.795609 -3 -1.55874 -2.683901 -2.12132 -2.12132 
C -2.683901 -1.55874 -3 -0.795609 -3 0 
C -3 0.795609 -2.683901 1.55874 -2.12132 2.12132 
C -1.55874 2.683901 -0.795609 3 0 3 
z
" style="stroke: #800080"/>
    </defs>
    <g clip-path="url(#p9b1435db3b)">
     <use xlink:href="#m8c3dfad20f" x="414.466033" y="246.313656" style="fill: #800080; stroke: #800080"/>
     <use xlink:href="#m8c3dfad20f" x="446.076359" y="229.92541" style="fill: #800080; stroke: #800080"/>
     <use xlink:href="#m8c3dfad20f" x="509.297011" y="225.500484" style="fill: #800080; stroke: #800080"/>
     <use xlink:href="#m8c3dfad20f" x="540.907337" y="203.925003" style="fill: #800080; stroke: #800080"/>
     <use xlink:href="#m8c3dfad20f" x="572.517663" y="185.192716" style="fill: #800080; stroke: #800080"/>
     <use xlink:href="#m8c3dfad20f" x="604.127989" y="181.65307" style="fill: #800080; stroke: #800080"/>
     <use xlink:href="#m8c3dfad20f" x="635.738315" y="177.775438" style="fill: #800080; stroke: #800080"/>
    </g>
   </g>
   <g id="line2d_31">
    <defs>
     <path id="m94db633b04" d="M -3 3 
L 3 3 
L 3 -3 
L -3 -3 
z
" style="stroke: #800080; stroke-linejoin: miter"/>
    </defs>
    <g clip-path="url(#p9b1435db3b)">
     <use xlink:href="#m94db633b04" x="414.466033" y="159.027256" style="fill: #800080; stroke: #800080; stroke-linejoin: miter"/>
     <use xlink:href="#m94db633b04" x="446.076359" y="151.944078" style="fill: #800080; stroke: #800080; stroke-linejoin: miter"/>
     <use xlink:href="#m94db633b04" x="477.686685" y="174.252222" style="fill: #800080; stroke: #800080; stroke-linejoin: miter"/>
     <use xlink:href="#m94db633b04" x="509.297011" y="152.581707" style="fill: #800080; stroke: #800080; stroke-linejoin: miter"/>
     <use xlink:href="#m94db633b04" x="540.907337" y="145.007777" style="fill: #800080; stroke: #800080; stroke-linejoin: miter"/>
     <use xlink:href="#m94db633b04" x="572.517663" y="148.689603" style="fill: #800080; stroke: #800080; stroke-linejoin: miter"/>
     <use xlink:href="#m94db633b04" x="604.127989" y="127.416994" style="fill: #800080; stroke: #800080; stroke-linejoin: miter"/>
     <use xlink:href="#m94db633b04" x="635.738315" y="114.605248" style="fill: #800080; stroke: #800080; stroke-linejoin: miter"/>
    </g>
   </g>
   <g id="line2d_32">
    <defs>
     <path id="m0a0fc6c3e3" d="M 0 6 
C 1.591219 6 3.117479 5.367802 4.242641 4.242641 
C 5.367802 3.117479 6 1.591219 6 0 
C 6 -1.591219 5.367802 -3.117479 4.242641 -4.242641 
C 3.117479 -5.367802 1.591219 -6 0 -6 
C -1.591219 -6 -3.117479 -5.367802 -4.242641 -4.242641 
C -5.367802 -3.117479 -6 -1.591219 -6 0 
C -6 1.591219 -5.367802 3.117479 -4.242641 4.242641 
C -3.117479 5.367802 -1.591219 6 0 6 
z
" style="stroke: #000000; stroke-width: 2"/>
    </defs>
    <g clip-path="url(#p9b1435db3b)">
     <use xlink:href="#m0a0fc6c3e3" x="414.466033" y="246.313656" style="fill: #800080; stroke: #000000; stroke-width: 2"/>
     <use xlink:href="#m0a0fc6c3e3" x="446.076359" y="229.92541" style="fill: #800080; stroke: #000000; stroke-width: 2"/>
     <use xlink:href="#m0a0fc6c3e3" x="509.297011" y="225.500484" style="fill: #800080; stroke: #000000; stroke-width: 2"/>
     <use xlink:href="#m0a0fc6c3e3" x="540.907337" y="203.925003" style="fill: #800080; stroke: #000000; stroke-width: 2"/>
     <use xlink:href="#m0a0fc6c3e3" x="572.517663" y="185.192716" style="fill: #800080; stroke: #000000; stroke-width: 2"/>
     <use xlink:href="#m0a0fc6c3e3" x="604.127989" y="181.65307" style="fill: #800080; stroke: #000000; stroke-width: 2"/>
     <use xlink:href="#m0a0fc6c3e3" x="635.738315" y="177.775438" style="fill: #800080; stroke: #000000; stroke-width: 2"/>
    </g>
   </g>
   <g id="line2d_33">
    <defs>
     <path id="m335127de65" d="M -6 6 
L 6 6 
L 6 -6 
L -6 -6 
z
" style="stroke: #000000; stroke-width: 2; stroke-linejoin: miter"/>
    </defs>
    <g clip-path="url(#p9b1435db3b)">
     <use xlink:href="#m335127de65" x="414.466033" y="159.027256" style="fill: #800080; stroke: #000000; stroke-width: 2; stroke-linejoin: miter"/>
     <use xlink:href="#m335127de65" x="446.076359" y="151.944078" style="fill: #800080; stroke: #000000; stroke-width: 2; stroke-linejoin: miter"/>
     <use xlink:href="#m335127de65" x="477.686685" y="174.252222" style="fill: #800080; stroke: #000000; stroke-width: 2; stroke-linejoin: miter"/>
     <use xlink:href="#m335127de65" x="509.297011" y="152.581707" style="fill: #800080; stroke: #000000; stroke-width: 2; stroke-linejoin: miter"/>
     <use xlink:href="#m335127de65" x="540.907337" y="145.007777" style="fill: #800080; stroke: #000000; stroke-width: 2; stroke-linejoin: miter"/>
     <use xlink:href="#m335127de65" x="572.517663" y="148.689603" style="fill: #800080; stroke: #000000; stroke-width: 2; stroke-linejoin: miter"/>
     <use xlink:href="#m335127de65" x="604.127989" y="127.416994" style="fill: #800080; stroke: #000000; stroke-width: 2; stroke-linejoin: miter"/>
     <use xlink:href="#m335127de65" x="635.738315" y="114.605248" style="fill: #800080; stroke: #000000; stroke-width: 2; stroke-linejoin: miter"/>
    </g>
   </g>
  </g>
  <g id="text_25">
   <!-- Individual 107  -->
   <g transform="translate(249.114375 28.475625) scale(0.28 -0.28)">
    <defs>
     <path id="DejaVuSans-49" d="M 628 4666 
L 1259 4666 
L 1259 0 
L 628 0 
L 628 4666 
z
" transform="scale(0.015625)"/>
     <path id="DejaVuSans-6e" d="M 3513 2113 
L 3513 0 
L 2938 0 
L 2938 2094 
Q 2938 2591 2744 2837 
Q 2550 3084 2163 3084 
Q 1697 3084 1428 2787 
Q 1159 2491 1159 1978 
L 1159 0 
L 581 0 
L 581 3500 
L 1159 3500 
L 1159 2956 
Q 1366 3272 1645 3428 
Q 1925 3584 2291 3584 
Q 2894 3584 3203 3211 
Q 3513 2838 3513 2113 
z
" transform="scale(0.015625)"/>
     <path id="DejaVuSans-76" d="M 191 3500 
L 800 3500 
L 1894 563 
L 2988 3500 
L 3597 3500 
L 2284 0 
L 1503 0 
L 191 3500 
z
" transform="scale(0.015625)"/>
     <path id="DejaVuSans-61" d="M 2194 1759 
Q 1497 1759 1228 1600 
Q 959 1441 959 1056 
Q 959 750 1161 570 
Q 1363 391 1709 391 
Q 2188 391 2477 730 
Q 2766 1069 2766 1631 
L 2766 1759 
L 2194 1759 
z
M 3341 1997 
L 3341 0 
L 2766 0 
L 2766 531 
Q 2569 213 2275 61 
Q 1981 -91 1556 -91 
Q 1019 -91 701 211 
Q 384 513 384 1019 
Q 384 1609 779 1909 
Q 1175 2209 1959 2209 
L 2766 2209 
L 2766 2266 
Q 2766 2663 2505 2880 
Q 2244 3097 1772 3097 
Q 1472 3097 1187 3025 
Q 903 2953 641 2809 
L 641 3341 
Q 956 3463 1253 3523 
Q 1550 3584 1831 3584 
Q 2591 3584 2966 3190 
Q 3341 2797 3341 1997 
z
" transform="scale(0.015625)"/>
    </defs>
    <use xlink:href="#DejaVuSans-49"/>
    <use xlink:href="#DejaVuSans-6e" transform="translate(29.492188 0)"/>
    <use xlink:href="#DejaVuSans-64" transform="translate(92.871094 0)"/>
    <use xlink:href="#DejaVuSans-69" transform="translate(156.347656 0)"/>
    <use xlink:href="#DejaVuSans-76" transform="translate(184.130859 0)"/>
    <use xlink:href="#DejaVuSans-69" transform="translate(243.310547 0)"/>
    <use xlink:href="#DejaVuSans-64" transform="translate(271.09375 0)"/>
    <use xlink:href="#DejaVuSans-75" transform="translate(334.570312 0)"/>
    <use xlink:href="#DejaVuSans-61" transform="translate(397.949219 0)"/>
    <use xlink:href="#DejaVuSans-6c" transform="translate(459.228516 0)"/>
    <use xlink:href="#DejaVuSans-20" transform="translate(487.011719 0)"/>
    <use xlink:href="#DejaVuSans-31" transform="translate(518.798828 0)"/>
    <use xlink:href="#DejaVuSans-30" transform="translate(582.421875 0)"/>
    <use xlink:href="#DejaVuSans-37" transform="translate(646.044922 0)"/>
    <use xlink:href="#DejaVuSans-20" transform="translate(709.667969 0)"/>
   </g>
  </g>
 </g>
 <defs>
  <clipPath id="p3baedd3858">
   <rect x="56.75" y="58.32" width="290.815" height="232.36"/>
  </clipPath>
  <clipPath id="p9b1435db3b">
   <rect x="411.305" y="58.32" width="290.815" height="232.36"/>
  </clipPath>
 </defs>
</svg>
