<?xml version="1.0" encoding="utf-8" standalone="no"?>
<!DOCTYPE svg PUBLIC "-//W3C//DTD SVG 1.1//EN"
  "http://www.w3.org/Graphics/SVG/1.1/DTD/svg11.dtd">
<svg xmlns:xlink="http://www.w3.org/1999/xlink" width="709.32pt" height="355.335pt" viewBox="0 0 709.32 355.335" xmlns="http://www.w3.org/2000/svg" version="1.1">
 <metadata>
  <rdf:RDF xmlns:dc="http://purl.org/dc/elements/1.1/" xmlns:cc="http://creativecommons.org/ns#" xmlns:rdf="http://www.w3.org/1999/02/22-rdf-syntax-ns#">
   <cc:Work>
    <dc:type rdf:resource="http://purl.org/dc/dcmitype/StillImage"/>
    <dc:date>2025-03-03T16:17:01.971609</dc:date>
    <dc:format>image/svg+xml</dc:format>
    <dc:creator>
     <cc:Agent>
      <dc:title>Matplotlib v3.10.0, https://matplotlib.org/</dc:title>
     </cc:Agent>
    </dc:creator>
   </cc:Work>
  </rdf:RDF>
 </metadata>
 <defs>
  <style type="text/css">*{stroke-linejoin: round; stroke-linecap: butt}</style>
 </defs>
 <g id="figure_1">
  <g id="patch_1">
   <path d="M 0 355.335 
L 709.32 355.335 
L 709.32 0 
L 0 0 
z
" style="fill: #ffffff"/>
  </g>
  <g id="axes_1">
   <g id="patch_2">
    <path d="M 56.75 290.68 
L 347.565 290.68 
L 347.565 58.32 
L 56.75 58.32 
z
" style="fill: #ffffff"/>
   </g>
   <g id="matplotlib.axis_1">
    <g id="xtick_1">
     <g id="line2d_1">
      <defs>
       <path id="m747c4fdbb8" d="M 0 0 
L 0 3.5 
" style="stroke: #000000; stroke-width: 0.8"/>
      </defs>
      <g>
       <use xlink:href="#m747c4fdbb8" x="59.911033" y="290.68" style="stroke: #000000; stroke-width: 0.8"/>
      </g>
     </g>
     <g id="text_1">
      <!-- 0 -->
      <g transform="translate(52.276033 315.91625) scale(0.24 -0.24)">
       <defs>
        <path id="DejaVuSans-30" d="M 2034 4250 
Q 1547 4250 1301 3770 
Q 1056 3291 1056 2328 
Q 1056 1369 1301 889 
Q 1547 409 2034 409 
Q 2525 409 2770 889 
Q 3016 1369 3016 2328 
Q 3016 3291 2770 3770 
Q 2525 4250 2034 4250 
z
M 2034 4750 
Q 2819 4750 3233 4129 
Q 3647 3509 3647 2328 
Q 3647 1150 3233 529 
Q 2819 -91 2034 -91 
Q 1250 -91 836 529 
Q 422 1150 422 2328 
Q 422 3509 836 4129 
Q 1250 4750 2034 4750 
z
" transform="scale(0.015625)"/>
       </defs>
       <use xlink:href="#DejaVuSans-30"/>
      </g>
     </g>
    </g>
    <g id="xtick_2">
     <g id="line2d_2">
      <g>
       <use xlink:href="#m747c4fdbb8" x="123.131685" y="290.68" style="stroke: #000000; stroke-width: 0.8"/>
      </g>
     </g>
     <g id="text_2">
      <!-- 2 -->
      <g transform="translate(115.496685 315.91625) scale(0.24 -0.24)">
       <defs>
        <path id="DejaVuSans-32" d="M 1228 531 
L 3431 531 
L 3431 0 
L 469 0 
L 469 531 
Q 828 903 1448 1529 
Q 2069 2156 2228 2338 
Q 2531 2678 2651 2914 
Q 2772 3150 2772 3378 
Q 2772 3750 2511 3984 
Q 2250 4219 1831 4219 
Q 1534 4219 1204 4116 
Q 875 4013 500 3803 
L 500 4441 
Q 881 4594 1212 4672 
Q 1544 4750 1819 4750 
Q 2544 4750 2975 4387 
Q 3406 4025 3406 3419 
Q 3406 3131 3298 2873 
Q 3191 2616 2906 2266 
Q 2828 2175 2409 1742 
Q 1991 1309 1228 531 
z
" transform="scale(0.015625)"/>
       </defs>
       <use xlink:href="#DejaVuSans-32"/>
      </g>
     </g>
    </g>
    <g id="xtick_3">
     <g id="line2d_3">
      <g>
       <use xlink:href="#m747c4fdbb8" x="186.352337" y="290.68" style="stroke: #000000; stroke-width: 0.8"/>
      </g>
     </g>
     <g id="text_3">
      <!-- 4 -->
      <g transform="translate(178.717337 315.91625) scale(0.24 -0.24)">
       <defs>
        <path id="DejaVuSans-34" d="M 2419 4116 
L 825 1625 
L 2419 1625 
L 2419 4116 
z
M 2253 4666 
L 3047 4666 
L 3047 1625 
L 3713 1625 
L 3713 1100 
L 3047 1100 
L 3047 0 
L 2419 0 
L 2419 1100 
L 313 1100 
L 313 1709 
L 2253 4666 
z
" transform="scale(0.015625)"/>
       </defs>
       <use xlink:href="#DejaVuSans-34"/>
      </g>
     </g>
    </g>
    <g id="xtick_4">
     <g id="line2d_4">
      <g>
       <use xlink:href="#m747c4fdbb8" x="249.572989" y="290.68" style="stroke: #000000; stroke-width: 0.8"/>
      </g>
     </g>
     <g id="text_4">
      <!-- 6 -->
      <g transform="translate(241.937989 315.91625) scale(0.24 -0.24)">
       <defs>
        <path id="DejaVuSans-36" d="M 2113 2584 
Q 1688 2584 1439 2293 
Q 1191 2003 1191 1497 
Q 1191 994 1439 701 
Q 1688 409 2113 409 
Q 2538 409 2786 701 
Q 3034 994 3034 1497 
Q 3034 2003 2786 2293 
Q 2538 2584 2113 2584 
z
M 3366 4563 
L 3366 3988 
Q 3128 4100 2886 4159 
Q 2644 4219 2406 4219 
Q 1781 4219 1451 3797 
Q 1122 3375 1075 2522 
Q 1259 2794 1537 2939 
Q 1816 3084 2150 3084 
Q 2853 3084 3261 2657 
Q 3669 2231 3669 1497 
Q 3669 778 3244 343 
Q 2819 -91 2113 -91 
Q 1303 -91 875 529 
Q 447 1150 447 2328 
Q 447 3434 972 4092 
Q 1497 4750 2381 4750 
Q 2619 4750 2861 4703 
Q 3103 4656 3366 4563 
z
" transform="scale(0.015625)"/>
       </defs>
       <use xlink:href="#DejaVuSans-36"/>
      </g>
     </g>
    </g>
    <g id="xtick_5">
     <g id="line2d_5">
      <g>
       <use xlink:href="#m747c4fdbb8" x="312.793641" y="290.68" style="stroke: #000000; stroke-width: 0.8"/>
      </g>
     </g>
     <g id="text_5">
      <!-- 8 -->
      <g transform="translate(305.158641 315.91625) scale(0.24 -0.24)">
       <defs>
        <path id="DejaVuSans-38" d="M 2034 2216 
Q 1584 2216 1326 1975 
Q 1069 1734 1069 1313 
Q 1069 891 1326 650 
Q 1584 409 2034 409 
Q 2484 409 2743 651 
Q 3003 894 3003 1313 
Q 3003 1734 2745 1975 
Q 2488 2216 2034 2216 
z
M 1403 2484 
Q 997 2584 770 2862 
Q 544 3141 544 3541 
Q 544 4100 942 4425 
Q 1341 4750 2034 4750 
Q 2731 4750 3128 4425 
Q 3525 4100 3525 3541 
Q 3525 3141 3298 2862 
Q 3072 2584 2669 2484 
Q 3125 2378 3379 2068 
Q 3634 1759 3634 1313 
Q 3634 634 3220 271 
Q 2806 -91 2034 -91 
Q 1263 -91 848 271 
Q 434 634 434 1313 
Q 434 1759 690 2068 
Q 947 2378 1403 2484 
z
M 1172 3481 
Q 1172 3119 1398 2916 
Q 1625 2713 2034 2713 
Q 2441 2713 2670 2916 
Q 2900 3119 2900 3481 
Q 2900 3844 2670 4047 
Q 2441 4250 2034 4250 
Q 1625 4250 1398 4047 
Q 1172 3844 1172 3481 
z
" transform="scale(0.015625)"/>
       </defs>
       <use xlink:href="#DejaVuSans-38"/>
      </g>
     </g>
    </g>
    <g id="text_6">
     <!-- Time (d) -->
     <g transform="translate(152.00125 343.14375) scale(0.24 -0.24)">
      <defs>
       <path id="DejaVuSans-54" d="M -19 4666 
L 3928 4666 
L 3928 4134 
L 2272 4134 
L 2272 0 
L 1638 0 
L 1638 4134 
L -19 4134 
L -19 4666 
z
" transform="scale(0.015625)"/>
       <path id="DejaVuSans-69" d="M 603 3500 
L 1178 3500 
L 1178 0 
L 603 0 
L 603 3500 
z
M 603 4863 
L 1178 4863 
L 1178 4134 
L 603 4134 
L 603 4863 
z
" transform="scale(0.015625)"/>
       <path id="DejaVuSans-6d" d="M 3328 2828 
Q 3544 3216 3844 3400 
Q 4144 3584 4550 3584 
Q 5097 3584 5394 3201 
Q 5691 2819 5691 2113 
L 5691 0 
L 5113 0 
L 5113 2094 
Q 5113 2597 4934 2840 
Q 4756 3084 4391 3084 
Q 3944 3084 3684 2787 
Q 3425 2491 3425 1978 
L 3425 0 
L 2847 0 
L 2847 2094 
Q 2847 2600 2669 2842 
Q 2491 3084 2119 3084 
Q 1678 3084 1418 2786 
Q 1159 2488 1159 1978 
L 1159 0 
L 581 0 
L 581 3500 
L 1159 3500 
L 1159 2956 
Q 1356 3278 1631 3431 
Q 1906 3584 2284 3584 
Q 2666 3584 2933 3390 
Q 3200 3197 3328 2828 
z
" transform="scale(0.015625)"/>
       <path id="DejaVuSans-65" d="M 3597 1894 
L 3597 1613 
L 953 1613 
Q 991 1019 1311 708 
Q 1631 397 2203 397 
Q 2534 397 2845 478 
Q 3156 559 3463 722 
L 3463 178 
Q 3153 47 2828 -22 
Q 2503 -91 2169 -91 
Q 1331 -91 842 396 
Q 353 884 353 1716 
Q 353 2575 817 3079 
Q 1281 3584 2069 3584 
Q 2775 3584 3186 3129 
Q 3597 2675 3597 1894 
z
M 3022 2063 
Q 3016 2534 2758 2815 
Q 2500 3097 2075 3097 
Q 1594 3097 1305 2825 
Q 1016 2553 972 2059 
L 3022 2063 
z
" transform="scale(0.015625)"/>
       <path id="DejaVuSans-20" transform="scale(0.015625)"/>
       <path id="DejaVuSans-28" d="M 1984 4856 
Q 1566 4138 1362 3434 
Q 1159 2731 1159 2009 
Q 1159 1288 1364 580 
Q 1569 -128 1984 -844 
L 1484 -844 
Q 1016 -109 783 600 
Q 550 1309 550 2009 
Q 550 2706 781 3412 
Q 1013 4119 1484 4856 
L 1984 4856 
z
" transform="scale(0.015625)"/>
       <path id="DejaVuSans-64" d="M 2906 2969 
L 2906 4863 
L 3481 4863 
L 3481 0 
L 2906 0 
L 2906 525 
Q 2725 213 2448 61 
Q 2172 -91 1784 -91 
Q 1150 -91 751 415 
Q 353 922 353 1747 
Q 353 2572 751 3078 
Q 1150 3584 1784 3584 
Q 2172 3584 2448 3432 
Q 2725 3281 2906 2969 
z
M 947 1747 
Q 947 1113 1208 752 
Q 1469 391 1925 391 
Q 2381 391 2643 752 
Q 2906 1113 2906 1747 
Q 2906 2381 2643 2742 
Q 2381 3103 1925 3103 
Q 1469 3103 1208 2742 
Q 947 2381 947 1747 
z
" transform="scale(0.015625)"/>
       <path id="DejaVuSans-29" d="M 513 4856 
L 1013 4856 
Q 1481 4119 1714 3412 
Q 1947 2706 1947 2009 
Q 1947 1309 1714 600 
Q 1481 -109 1013 -844 
L 513 -844 
Q 928 -128 1133 580 
Q 1338 1288 1338 2009 
Q 1338 2731 1133 3434 
Q 928 4138 513 4856 
z
" transform="scale(0.015625)"/>
      </defs>
      <use xlink:href="#DejaVuSans-54"/>
      <use xlink:href="#DejaVuSans-69" transform="translate(57.958984 0)"/>
      <use xlink:href="#DejaVuSans-6d" transform="translate(85.742188 0)"/>
      <use xlink:href="#DejaVuSans-65" transform="translate(183.154297 0)"/>
      <use xlink:href="#DejaVuSans-20" transform="translate(244.677734 0)"/>
      <use xlink:href="#DejaVuSans-28" transform="translate(276.464844 0)"/>
      <use xlink:href="#DejaVuSans-64" transform="translate(315.478516 0)"/>
      <use xlink:href="#DejaVuSans-29" transform="translate(378.955078 0)"/>
     </g>
    </g>
   </g>
   <g id="matplotlib.axis_2">
    <g id="ytick_1">
     <g id="line2d_6">
      <defs>
       <path id="mf49716e233" d="M 0 0 
L -3.5 0 
" style="stroke: #000000; stroke-width: 0.8"/>
      </defs>
      <g>
       <use xlink:href="#mf49716e233" x="56.75" y="283.638788" style="stroke: #000000; stroke-width: 0.8"/>
      </g>
     </g>
     <g id="text_7">
      <!-- 0 -->
      <g transform="translate(34.48 292.756913) scale(0.24 -0.24)">
       <use xlink:href="#DejaVuSans-30"/>
      </g>
     </g>
    </g>
    <g id="ytick_2">
     <g id="line2d_7">
      <g>
       <use xlink:href="#mf49716e233" x="56.75" y="227.309091" style="stroke: #000000; stroke-width: 0.8"/>
      </g>
     </g>
     <g id="text_8">
      <!-- 2 -->
      <g transform="translate(34.48 236.427216) scale(0.24 -0.24)">
       <use xlink:href="#DejaVuSans-32"/>
      </g>
     </g>
    </g>
    <g id="ytick_3">
     <g id="line2d_8">
      <g>
       <use xlink:href="#mf49716e233" x="56.75" y="170.979394" style="stroke: #000000; stroke-width: 0.8"/>
      </g>
     </g>
     <g id="text_9">
      <!-- 4 -->
      <g transform="translate(34.48 180.097519) scale(0.24 -0.24)">
       <use xlink:href="#DejaVuSans-34"/>
      </g>
     </g>
    </g>
    <g id="ytick_4">
     <g id="line2d_9">
      <g>
       <use xlink:href="#mf49716e233" x="56.75" y="114.649697" style="stroke: #000000; stroke-width: 0.8"/>
      </g>
     </g>
     <g id="text_10">
      <!-- 6 -->
      <g transform="translate(34.48 123.767822) scale(0.24 -0.24)">
       <use xlink:href="#DejaVuSans-36"/>
      </g>
     </g>
    </g>
    <g id="ytick_5">
     <g id="line2d_10">
      <g>
       <use xlink:href="#mf49716e233" x="56.75" y="58.32" style="stroke: #000000; stroke-width: 0.8"/>
      </g>
     </g>
     <g id="text_11">
      <!-- 8 -->
      <g transform="translate(34.48 67.438125) scale(0.24 -0.24)">
       <use xlink:href="#DejaVuSans-38"/>
      </g>
     </g>
    </g>
    <g id="text_12">
     <!-- Log$_{10}$ Virus -->
     <g transform="translate(25.44 241.46) rotate(-90) scale(0.24 -0.24)">
      <defs>
       <path id="DejaVuSans-4c" d="M 628 4666 
L 1259 4666 
L 1259 531 
L 3531 531 
L 3531 0 
L 628 0 
L 628 4666 
z
" transform="scale(0.015625)"/>
       <path id="DejaVuSans-6f" d="M 1959 3097 
Q 1497 3097 1228 2736 
Q 959 2375 959 1747 
Q 959 1119 1226 758 
Q 1494 397 1959 397 
Q 2419 397 2687 759 
Q 2956 1122 2956 1747 
Q 2956 2369 2687 2733 
Q 2419 3097 1959 3097 
z
M 1959 3584 
Q 2709 3584 3137 3096 
Q 3566 2609 3566 1747 
Q 3566 888 3137 398 
Q 2709 -91 1959 -91 
Q 1206 -91 779 398 
Q 353 888 353 1747 
Q 353 2609 779 3096 
Q 1206 3584 1959 3584 
z
" transform="scale(0.015625)"/>
       <path id="DejaVuSans-67" d="M 2906 1791 
Q 2906 2416 2648 2759 
Q 2391 3103 1925 3103 
Q 1463 3103 1205 2759 
Q 947 2416 947 1791 
Q 947 1169 1205 825 
Q 1463 481 1925 481 
Q 2391 481 2648 825 
Q 2906 1169 2906 1791 
z
M 3481 434 
Q 3481 -459 3084 -895 
Q 2688 -1331 1869 -1331 
Q 1566 -1331 1297 -1286 
Q 1028 -1241 775 -1147 
L 775 -588 
Q 1028 -725 1275 -790 
Q 1522 -856 1778 -856 
Q 2344 -856 2625 -561 
Q 2906 -266 2906 331 
L 2906 616 
Q 2728 306 2450 153 
Q 2172 0 1784 0 
Q 1141 0 747 490 
Q 353 981 353 1791 
Q 353 2603 747 3093 
Q 1141 3584 1784 3584 
Q 2172 3584 2450 3431 
Q 2728 3278 2906 2969 
L 2906 3500 
L 3481 3500 
L 3481 434 
z
" transform="scale(0.015625)"/>
       <path id="DejaVuSans-31" d="M 794 531 
L 1825 531 
L 1825 4091 
L 703 3866 
L 703 4441 
L 1819 4666 
L 2450 4666 
L 2450 531 
L 3481 531 
L 3481 0 
L 794 0 
L 794 531 
z
" transform="scale(0.015625)"/>
       <path id="DejaVuSans-56" d="M 1831 0 
L 50 4666 
L 709 4666 
L 2188 738 
L 3669 4666 
L 4325 4666 
L 2547 0 
L 1831 0 
z
" transform="scale(0.015625)"/>
       <path id="DejaVuSans-72" d="M 2631 2963 
Q 2534 3019 2420 3045 
Q 2306 3072 2169 3072 
Q 1681 3072 1420 2755 
Q 1159 2438 1159 1844 
L 1159 0 
L 581 0 
L 581 3500 
L 1159 3500 
L 1159 2956 
Q 1341 3275 1631 3429 
Q 1922 3584 2338 3584 
Q 2397 3584 2469 3576 
Q 2541 3569 2628 3553 
L 2631 2963 
z
" transform="scale(0.015625)"/>
       <path id="DejaVuSans-75" d="M 544 1381 
L 544 3500 
L 1119 3500 
L 1119 1403 
Q 1119 906 1312 657 
Q 1506 409 1894 409 
Q 2359 409 2629 706 
Q 2900 1003 2900 1516 
L 2900 3500 
L 3475 3500 
L 3475 0 
L 2900 0 
L 2900 538 
Q 2691 219 2414 64 
Q 2138 -91 1772 -91 
Q 1169 -91 856 284 
Q 544 659 544 1381 
z
M 1991 3584 
L 1991 3584 
z
" transform="scale(0.015625)"/>
       <path id="DejaVuSans-73" d="M 2834 3397 
L 2834 2853 
Q 2591 2978 2328 3040 
Q 2066 3103 1784 3103 
Q 1356 3103 1142 2972 
Q 928 2841 928 2578 
Q 928 2378 1081 2264 
Q 1234 2150 1697 2047 
L 1894 2003 
Q 2506 1872 2764 1633 
Q 3022 1394 3022 966 
Q 3022 478 2636 193 
Q 2250 -91 1575 -91 
Q 1294 -91 989 -36 
Q 684 19 347 128 
L 347 722 
Q 666 556 975 473 
Q 1284 391 1588 391 
Q 1994 391 2212 530 
Q 2431 669 2431 922 
Q 2431 1156 2273 1281 
Q 2116 1406 1581 1522 
L 1381 1569 
Q 847 1681 609 1914 
Q 372 2147 372 2553 
Q 372 3047 722 3315 
Q 1072 3584 1716 3584 
Q 2034 3584 2315 3537 
Q 2597 3491 2834 3397 
z
" transform="scale(0.015625)"/>
      </defs>
      <use xlink:href="#DejaVuSans-4c" transform="translate(0 0.015625)"/>
      <use xlink:href="#DejaVuSans-6f" transform="translate(55.712891 0.015625)"/>
      <use xlink:href="#DejaVuSans-67" transform="translate(116.894531 0.015625)"/>
      <use xlink:href="#DejaVuSans-31" transform="translate(181.328125 -16.390625) scale(0.7)"/>
      <use xlink:href="#DejaVuSans-30" transform="translate(225.864258 -16.390625) scale(0.7)"/>
      <use xlink:href="#DejaVuSans-20" transform="translate(273.134766 0.015625)"/>
      <use xlink:href="#DejaVuSans-56" transform="translate(304.921875 0.015625)"/>
      <use xlink:href="#DejaVuSans-69" transform="translate(373.330078 0.015625)"/>
      <use xlink:href="#DejaVuSans-72" transform="translate(401.113281 0.015625)"/>
      <use xlink:href="#DejaVuSans-75" transform="translate(442.226562 0.015625)"/>
      <use xlink:href="#DejaVuSans-73" transform="translate(505.605469 0.015625)"/>
     </g>
    </g>
   </g>
   <g id="line2d_11">
    <path d="M 59.911033 283.638788 
L 61.181799 283.638788 
L 62.452566 271.619495 
L 63.723333 263.565218 
L 64.9941 257.358548 
L 68.806401 240.870669 
L 96.763272 122.593895 
L 99.304806 113.189291 
L 100.575573 108.973238 
L 101.84634 105.186906 
L 103.117106 101.89439 
L 104.387873 99.110609 
L 105.65864 96.820449 
L 106.929407 94.977704 
L 108.200174 93.511486 
L 109.470941 92.348992 
L 110.741708 91.424769 
L 112.012475 90.685634 
L 114.554008 89.608891 
L 117.095542 88.896625 
L 119.637076 88.419677 
L 123.449377 87.981765 
L 128.532444 87.701848 
L 134.886278 87.602692 
L 143.781647 87.689437 
L 152.677015 87.970837 
L 160.301616 88.443837 
L 165.384683 88.948904 
L 170.467751 89.668757 
L 174.280052 90.389504 
L 178.092352 91.303125 
L 181.904653 92.453269 
L 185.716954 93.898986 
L 188.258487 95.067831 
L 190.800021 96.442357 
L 193.341555 98.075372 
L 195.883089 100.046827 
L 198.424622 102.486985 
L 199.695389 103.9493 
L 200.966156 105.630763 
L 202.236923 107.601867 
L 203.50769 109.97277 
L 204.778457 112.938842 
L 206.049224 116.882453 
L 207.31999 122.746793 
L 209.861524 141.624357 
L 216.215359 190.777182 
L 227.65226 280.428448 
L 228.923027 283.638788 
L 312.793641 283.638788 
L 312.793641 283.638788 
" clip-path="url(#pebd00c45ce)" style="fill: none; stroke: #1e90ff; stroke-width: 4; stroke-linecap: square"/>
   </g>
   <g id="line2d_12">
    <path d="M 59.911033 283.638788 
L 61.181799 283.638788 
L 62.452566 272.2402 
L 63.723333 265.080219 
L 64.9941 260.207824 
L 66.264867 256.509131 
L 67.535634 253.70831 
L 68.806401 251.814378 
L 70.077168 250.864509 
L 71.347935 250.808053 
L 72.618701 251.523341 
L 73.889468 252.777635 
L 76.431002 256.136651 
L 81.51407 263.341847 
L 85.32637 268.228692 
L 89.138671 272.60989 
L 92.950971 276.569497 
L 96.763272 280.195454 
L 100.575573 283.539243 
L 103.117106 283.638788 
L 312.793641 283.638788 
L 312.793641 283.638788 
" clip-path="url(#pebd00c45ce)" style="fill: none; stroke: #000000; stroke-width: 4; stroke-linecap: square"/>
   </g>
   <g id="patch_3">
    <path d="M 56.75 290.68 
L 56.75 58.32 
" style="fill: none; stroke: #000000; stroke-width: 0.8; stroke-linejoin: miter; stroke-linecap: square"/>
   </g>
   <g id="patch_4">
    <path d="M 347.565 290.68 
L 347.565 58.32 
" style="fill: none; stroke: #000000; stroke-width: 0.8; stroke-linejoin: miter; stroke-linecap: square"/>
   </g>
   <g id="patch_5">
    <path d="M 56.75 290.68 
L 347.565 290.68 
" style="fill: none; stroke: #000000; stroke-width: 0.8; stroke-linejoin: miter; stroke-linecap: square"/>
   </g>
   <g id="patch_6">
    <path d="M 56.75 58.32 
L 347.565 58.32 
" style="fill: none; stroke: #000000; stroke-width: 0.8; stroke-linejoin: miter; stroke-linecap: square"/>
   </g>
   <g id="line2d_13">
    <defs>
     <path id="mb9e7c39b36" d="M 0 -3 
L -3 3 
L 3 3 
z
" style="stroke: #1e90ff; stroke-linejoin: miter"/>
    </defs>
    <g clip-path="url(#pebd00c45ce)">
     <use xlink:href="#mb9e7c39b36" x="59.911033" y="283.638788" style="fill: #1e90ff; stroke: #1e90ff; stroke-linejoin: miter"/>
     <use xlink:href="#mb9e7c39b36" x="91.521359" y="143.53735" style="fill: #1e90ff; stroke: #1e90ff; stroke-linejoin: miter"/>
     <use xlink:href="#mb9e7c39b36" x="123.131685" y="100.848511" style="fill: #1e90ff; stroke: #1e90ff; stroke-linejoin: miter"/>
     <use xlink:href="#mb9e7c39b36" x="186.352337" y="78.604987" style="fill: #1e90ff; stroke: #1e90ff; stroke-linejoin: miter"/>
     <use xlink:href="#mb9e7c39b36" x="217.962663" y="157.635485" style="fill: #1e90ff; stroke: #1e90ff; stroke-linejoin: miter"/>
     <use xlink:href="#mb9e7c39b36" x="249.572989" y="283.638788" style="fill: #1e90ff; stroke: #1e90ff; stroke-linejoin: miter"/>
     <use xlink:href="#mb9e7c39b36" x="281.183315" y="283.638788" style="fill: #1e90ff; stroke: #1e90ff; stroke-linejoin: miter"/>
    </g>
   </g>
   <g id="line2d_14">
    <defs>
     <path id="m77ed62bede" d="M 0 -6 
L -6 6 
L 6 6 
z
" style="stroke: #000000; stroke-width: 2; stroke-linejoin: miter"/>
    </defs>
    <g clip-path="url(#pebd00c45ce)">
     <use xlink:href="#m77ed62bede" x="59.911033" y="283.638788" style="fill: #1e90ff; stroke: #000000; stroke-width: 2; stroke-linejoin: miter"/>
     <use xlink:href="#m77ed62bede" x="91.521359" y="143.53735" style="fill: #1e90ff; stroke: #000000; stroke-width: 2; stroke-linejoin: miter"/>
     <use xlink:href="#m77ed62bede" x="123.131685" y="100.848511" style="fill: #1e90ff; stroke: #000000; stroke-width: 2; stroke-linejoin: miter"/>
     <use xlink:href="#m77ed62bede" x="186.352337" y="78.604987" style="fill: #1e90ff; stroke: #000000; stroke-width: 2; stroke-linejoin: miter"/>
     <use xlink:href="#m77ed62bede" x="217.962663" y="157.635485" style="fill: #1e90ff; stroke: #000000; stroke-width: 2; stroke-linejoin: miter"/>
     <use xlink:href="#m77ed62bede" x="249.572989" y="283.638788" style="fill: #1e90ff; stroke: #000000; stroke-width: 2; stroke-linejoin: miter"/>
     <use xlink:href="#m77ed62bede" x="281.183315" y="283.638788" style="fill: #1e90ff; stroke: #000000; stroke-width: 2; stroke-linejoin: miter"/>
    </g>
   </g>
  </g>
  <g id="axes_2">
   <g id="patch_7">
    <path d="M 411.305 290.68 
L 702.12 290.68 
L 702.12 58.32 
L 411.305 58.32 
z
" style="fill: #ffffff"/>
   </g>
   <g id="matplotlib.axis_3">
    <g id="xtick_6">
     <g id="line2d_15">
      <g>
       <use xlink:href="#m747c4fdbb8" x="414.466033" y="290.68" style="stroke: #000000; stroke-width: 0.8"/>
      </g>
     </g>
     <g id="text_13">
      <!-- 0 -->
      <g transform="translate(406.831033 315.91625) scale(0.24 -0.24)">
       <use xlink:href="#DejaVuSans-30"/>
      </g>
     </g>
    </g>
    <g id="xtick_7">
     <g id="line2d_16">
      <g>
       <use xlink:href="#m747c4fdbb8" x="477.686685" y="290.68" style="stroke: #000000; stroke-width: 0.8"/>
      </g>
     </g>
     <g id="text_14">
      <!-- 2 -->
      <g transform="translate(470.051685 315.91625) scale(0.24 -0.24)">
       <use xlink:href="#DejaVuSans-32"/>
      </g>
     </g>
    </g>
    <g id="xtick_8">
     <g id="line2d_17">
      <g>
       <use xlink:href="#m747c4fdbb8" x="540.907337" y="290.68" style="stroke: #000000; stroke-width: 0.8"/>
      </g>
     </g>
     <g id="text_15">
      <!-- 4 -->
      <g transform="translate(533.272337 315.91625) scale(0.24 -0.24)">
       <use xlink:href="#DejaVuSans-34"/>
      </g>
     </g>
    </g>
    <g id="xtick_9">
     <g id="line2d_18">
      <g>
       <use xlink:href="#m747c4fdbb8" x="604.127989" y="290.68" style="stroke: #000000; stroke-width: 0.8"/>
      </g>
     </g>
     <g id="text_16">
      <!-- 6 -->
      <g transform="translate(596.492989 315.91625) scale(0.24 -0.24)">
       <use xlink:href="#DejaVuSans-36"/>
      </g>
     </g>
    </g>
    <g id="xtick_10">
     <g id="line2d_19">
      <g>
       <use xlink:href="#m747c4fdbb8" x="667.348641" y="290.68" style="stroke: #000000; stroke-width: 0.8"/>
      </g>
     </g>
     <g id="text_17">
      <!-- 8 -->
      <g transform="translate(659.713641 315.91625) scale(0.24 -0.24)">
       <use xlink:href="#DejaVuSans-38"/>
      </g>
     </g>
    </g>
    <g id="text_18">
     <!-- Time (d) -->
     <g transform="translate(506.55625 343.14375) scale(0.24 -0.24)">
      <use xlink:href="#DejaVuSans-54"/>
      <use xlink:href="#DejaVuSans-69" transform="translate(57.958984 0)"/>
      <use xlink:href="#DejaVuSans-6d" transform="translate(85.742188 0)"/>
      <use xlink:href="#DejaVuSans-65" transform="translate(183.154297 0)"/>
      <use xlink:href="#DejaVuSans-20" transform="translate(244.677734 0)"/>
      <use xlink:href="#DejaVuSans-28" transform="translate(276.464844 0)"/>
      <use xlink:href="#DejaVuSans-64" transform="translate(315.478516 0)"/>
      <use xlink:href="#DejaVuSans-29" transform="translate(378.955078 0)"/>
     </g>
    </g>
   </g>
   <g id="matplotlib.axis_4">
    <g id="ytick_6">
     <g id="line2d_20">
      <g>
       <use xlink:href="#mf49716e233" x="411.305" y="290.68" style="stroke: #000000; stroke-width: 0.8"/>
      </g>
     </g>
     <g id="text_19">
      <!-- 4 -->
      <g transform="translate(389.035 299.798125) scale(0.24 -0.24)">
       <use xlink:href="#DejaVuSans-34"/>
      </g>
     </g>
    </g>
    <g id="ytick_7">
     <g id="line2d_21">
      <g>
       <use xlink:href="#mf49716e233" x="411.305" y="232.59" style="stroke: #000000; stroke-width: 0.8"/>
      </g>
     </g>
     <g id="text_20">
      <!-- 5 -->
      <g transform="translate(389.035 241.708125) scale(0.24 -0.24)">
       <defs>
        <path id="DejaVuSans-35" d="M 691 4666 
L 3169 4666 
L 3169 4134 
L 1269 4134 
L 1269 2991 
Q 1406 3038 1543 3061 
Q 1681 3084 1819 3084 
Q 2600 3084 3056 2656 
Q 3513 2228 3513 1497 
Q 3513 744 3044 326 
Q 2575 -91 1722 -91 
Q 1428 -91 1123 -41 
Q 819 9 494 109 
L 494 744 
Q 775 591 1075 516 
Q 1375 441 1709 441 
Q 2250 441 2565 725 
Q 2881 1009 2881 1497 
Q 2881 1984 2565 2268 
Q 2250 2553 1709 2553 
Q 1456 2553 1204 2497 
Q 953 2441 691 2322 
L 691 4666 
z
" transform="scale(0.015625)"/>
       </defs>
       <use xlink:href="#DejaVuSans-35"/>
      </g>
     </g>
    </g>
    <g id="ytick_8">
     <g id="line2d_22">
      <g>
       <use xlink:href="#mf49716e233" x="411.305" y="174.5" style="stroke: #000000; stroke-width: 0.8"/>
      </g>
     </g>
     <g id="text_21">
      <!-- 6 -->
      <g transform="translate(389.035 183.618125) scale(0.24 -0.24)">
       <use xlink:href="#DejaVuSans-36"/>
      </g>
     </g>
    </g>
    <g id="ytick_9">
     <g id="line2d_23">
      <g>
       <use xlink:href="#mf49716e233" x="411.305" y="116.41" style="stroke: #000000; stroke-width: 0.8"/>
      </g>
     </g>
     <g id="text_22">
      <!-- 7 -->
      <g transform="translate(389.035 125.528125) scale(0.24 -0.24)">
       <defs>
        <path id="DejaVuSans-37" d="M 525 4666 
L 3525 4666 
L 3525 4397 
L 1831 0 
L 1172 0 
L 2766 4134 
L 525 4134 
L 525 4666 
z
" transform="scale(0.015625)"/>
       </defs>
       <use xlink:href="#DejaVuSans-37"/>
      </g>
     </g>
    </g>
    <g id="ytick_10">
     <g id="line2d_24">
      <g>
       <use xlink:href="#mf49716e233" x="411.305" y="58.32" style="stroke: #000000; stroke-width: 0.8"/>
      </g>
     </g>
     <g id="text_23">
      <!-- 8 -->
      <g transform="translate(389.035 67.438125) scale(0.24 -0.24)">
       <use xlink:href="#DejaVuSans-38"/>
      </g>
     </g>
    </g>
    <g id="text_24">
     <!-- Log$_{10}$ T cells -->
     <g transform="translate(379.995 249.14) rotate(-90) scale(0.24 -0.24)">
      <defs>
       <path id="DejaVuSans-63" d="M 3122 3366 
L 3122 2828 
Q 2878 2963 2633 3030 
Q 2388 3097 2138 3097 
Q 1578 3097 1268 2742 
Q 959 2388 959 1747 
Q 959 1106 1268 751 
Q 1578 397 2138 397 
Q 2388 397 2633 464 
Q 2878 531 3122 666 
L 3122 134 
Q 2881 22 2623 -34 
Q 2366 -91 2075 -91 
Q 1284 -91 818 406 
Q 353 903 353 1747 
Q 353 2603 823 3093 
Q 1294 3584 2113 3584 
Q 2378 3584 2631 3529 
Q 2884 3475 3122 3366 
z
" transform="scale(0.015625)"/>
       <path id="DejaVuSans-6c" d="M 603 4863 
L 1178 4863 
L 1178 0 
L 603 0 
L 603 4863 
z
" transform="scale(0.015625)"/>
      </defs>
      <use xlink:href="#DejaVuSans-4c" transform="translate(0 0.015625)"/>
      <use xlink:href="#DejaVuSans-6f" transform="translate(55.712891 0.015625)"/>
      <use xlink:href="#DejaVuSans-67" transform="translate(116.894531 0.015625)"/>
      <use xlink:href="#DejaVuSans-31" transform="translate(181.328125 -16.390625) scale(0.7)"/>
      <use xlink:href="#DejaVuSans-30" transform="translate(225.864258 -16.390625) scale(0.7)"/>
      <use xlink:href="#DejaVuSans-20" transform="translate(273.134766 0.015625)"/>
      <use xlink:href="#DejaVuSans-54" transform="translate(304.921875 0.015625)"/>
      <use xlink:href="#DejaVuSans-20" transform="translate(366.005859 0.015625)"/>
      <use xlink:href="#DejaVuSans-63" transform="translate(397.792969 0.015625)"/>
      <use xlink:href="#DejaVuSans-65" transform="translate(452.773438 0.015625)"/>
      <use xlink:href="#DejaVuSans-6c" transform="translate(514.296875 0.015625)"/>
      <use xlink:href="#DejaVuSans-6c" transform="translate(542.080078 0.015625)"/>
      <use xlink:href="#DejaVuSans-73" transform="translate(569.863281 0.015625)"/>
     </g>
    </g>
   </g>
   <g id="line2d_25">
    <path d="M 414.466033 228.404798 
L 472.921309 228.321142 
L 476.73361 228.137204 
L 479.275143 227.854919 
L 481.816677 227.330176 
L 483.087444 226.933309 
L 484.358211 226.415002 
L 485.628978 225.760807 
L 486.899745 224.942395 
L 488.170512 223.93276 
L 489.441278 222.724333 
L 490.712045 221.297878 
L 491.982812 219.642354 
L 493.253579 217.760557 
L 495.795113 213.40333 
L 498.336647 208.35016 
L 502.148947 200.003202 
L 509.297011 184.0165 
L 512.315082 177.732874 
L 514.856616 172.78331 
L 517.39815 168.17601 
L 519.939683 163.919892 
L 522.481217 160.014369 
L 525.022751 156.452425 
L 527.564285 153.222872 
L 530.105818 150.311295 
L 532.647352 147.701564 
L 535.188886 145.378362 
L 537.73042 143.326229 
L 540.907337 141.118657 
L 542.813487 139.973706 
L 545.355021 138.64311 
L 547.896555 137.524337 
L 550.438089 136.604213 
L 552.979622 135.870048 
L 555.521156 135.309683 
L 558.06269 134.911696 
L 561.87499 134.595588 
L 565.687291 134.586953 
L 569.499592 134.853218 
L 573.311892 135.364813 
L 577.124193 136.09438 
L 580.936494 137.016918 
L 586.019561 138.507302 
L 591.102629 140.250188 
L 597.456463 142.717351 
L 604.127989 145.578384 
L 611.434899 148.946494 
L 621.601034 153.903369 
L 636.850236 161.631844 
L 662.265574 174.525509 
L 667.348641 177.040157 
L 667.348641 177.040157 
" clip-path="url(#pda9dd09d36)" style="fill: none; stroke: #1e90ff; stroke-width: 4; stroke-linecap: square"/>
   </g>
   <g id="line2d_26">
    <path d="M 414.466033 168.0399 
L 502.148947 167.937855 
L 508.502782 167.703942 
L 513.585849 167.287514 
L 517.39815 166.765397 
L 521.21045 166.009526 
L 525.022751 164.978998 
L 528.835052 163.65077 
L 532.647352 162.027228 
L 536.459653 160.135759 
L 541.54272 157.281887 
L 547.896555 153.38805 
L 559.333457 146.290798 
L 565.687291 142.64359 
L 570.770359 139.969669 
L 575.853426 137.536455 
L 580.936494 135.344967 
L 586.019561 133.387185 
L 591.102629 131.64872 
L 596.185696 130.111911 
L 602.539531 128.445378 
L 608.893365 127.026991 
L 615.247199 125.821966 
L 622.871801 124.613487 
L 630.496402 123.620169 
L 639.39177 122.681178 
L 649.557905 121.836946 
L 660.994807 121.110329 
L 667.348641 120.786461 
L 667.348641 120.786461 
" clip-path="url(#pda9dd09d36)" style="fill: none; stroke-dasharray: 14.8,6.4; stroke-dashoffset: 0; stroke: #1e90ff; stroke-width: 4"/>
   </g>
   <g id="line2d_27">
    <path d="M 414.466033 228.404798 
L 419.5491 228.113449 
L 422.090634 227.783425 
L 424.632168 227.217421 
L 428.444468 225.998556 
L 433.527536 224.328823 
L 437.339836 223.394585 
L 441.152137 222.779109 
L 444.964438 222.432559 
L 448.776738 222.291509 
L 453.859806 222.328402 
L 460.21364 222.59996 
L 471.650542 223.369052 
L 495.795113 225.042207 
L 511.044315 225.8515 
L 527.564285 226.492385 
L 544.084254 226.905746 
L 587.290328 227.779743 
L 617.788733 228.085255 
L 662.265574 228.285795 
L 667.348641 228.298571 
L 667.348641 228.298571 
" clip-path="url(#pda9dd09d36)" style="fill: none; stroke: #000000; stroke-width: 4; stroke-linecap: square"/>
   </g>
   <g id="line2d_28">
    <path d="M 414.466033 168.0399 
L 667.348641 168.031871 
L 667.348641 168.031871 
" clip-path="url(#pda9dd09d36)" style="fill: none; stroke-dasharray: 14.8,6.4; stroke-dashoffset: 0; stroke: #000000; stroke-width: 4"/>
   </g>
   <g id="line2d_29">
    <path d="M 414.466033 127.057015 
L 438.610603 127.184735 
L 470.379775 127.266232 
L 663.536341 127.285203 
L 667.348641 127.285203 
L 667.348641 127.285203 
" clip-path="url(#pda9dd09d36)" style="fill: none; stroke-dasharray: 25.6,6.4,4,6.4; stroke-dashoffset: 0; stroke: #000000; stroke-width: 4"/>
   </g>
   <g id="patch_8">
    <path d="M 411.305 290.68 
L 411.305 58.32 
" style="fill: none; stroke: #000000; stroke-width: 0.8; stroke-linejoin: miter; stroke-linecap: square"/>
   </g>
   <g id="patch_9">
    <path d="M 702.12 290.68 
L 702.12 58.32 
" style="fill: none; stroke: #000000; stroke-width: 0.8; stroke-linejoin: miter; stroke-linecap: square"/>
   </g>
   <g id="patch_10">
    <path d="M 411.305 290.68 
L 702.12 290.68 
" style="fill: none; stroke: #000000; stroke-width: 0.8; stroke-linejoin: miter; stroke-linecap: square"/>
   </g>
   <g id="patch_11">
    <path d="M 411.305 58.32 
L 702.12 58.32 
" style="fill: none; stroke: #000000; stroke-width: 0.8; stroke-linejoin: miter; stroke-linecap: square"/>
   </g>
   <g id="line2d_30">
    <defs>
     <path id="m54697bf387" d="M 0 3 
C 0.795609 3 1.55874 2.683901 2.12132 2.12132 
C 2.683901 1.55874 3 0.795609 3 0 
C 3 -0.795609 2.683901 -1.55874 2.12132 -2.12132 
C 1.55874 -2.683901 0.795609 -3 0 -3 
C -0.795609 -3 -1.55874 -2.683901 -2.12132 -2.12132 
C -2.683901 -1.55874 -3 -0.795609 -3 0 
C -3 0.795609 -2.683901 1.55874 -2.12132 2.12132 
C -1.55874 2.683901 -0.795609 3 0 3 
z
" style="stroke: #1e90ff"/>
    </defs>
    <g clip-path="url(#pda9dd09d36)">
     <use xlink:href="#m54697bf387" x="414.466033" y="228.404798" style="fill: #1e90ff; stroke: #1e90ff"/>
     <use xlink:href="#m54697bf387" x="446.076359" y="227.72579" style="fill: #1e90ff; stroke: #1e90ff"/>
     <use xlink:href="#m54697bf387" x="509.297011" y="189.396074" style="fill: #1e90ff; stroke: #1e90ff"/>
     <use xlink:href="#m54697bf387" x="540.907337" y="152.407944" style="fill: #1e90ff; stroke: #1e90ff"/>
     <use xlink:href="#m54697bf387" x="572.517663" y="132.072077" style="fill: #1e90ff; stroke: #1e90ff"/>
     <use xlink:href="#m54697bf387" x="604.127989" y="138.757666" style="fill: #1e90ff; stroke: #1e90ff"/>
     <use xlink:href="#m54697bf387" x="635.738315" y="162.732292" style="fill: #1e90ff; stroke: #1e90ff"/>
    </g>
   </g>
   <g id="line2d_31">
    <defs>
     <path id="mf1f797d2cd" d="M -3 3 
L 3 3 
L 3 -3 
L -3 -3 
z
" style="stroke: #1e90ff; stroke-linejoin: miter"/>
    </defs>
    <g clip-path="url(#pda9dd09d36)">
     <use xlink:href="#mf1f797d2cd" x="414.466033" y="168.0399" style="fill: #1e90ff; stroke: #1e90ff; stroke-linejoin: miter"/>
     <use xlink:href="#mf1f797d2cd" x="446.076359" y="157.002146" style="fill: #1e90ff; stroke: #1e90ff; stroke-linejoin: miter"/>
     <use xlink:href="#mf1f797d2cd" x="477.686685" y="197.27241" style="fill: #1e90ff; stroke: #1e90ff; stroke-linejoin: miter"/>
     <use xlink:href="#mf1f797d2cd" x="509.297011" y="161.6801" style="fill: #1e90ff; stroke: #1e90ff; stroke-linejoin: miter"/>
     <use xlink:href="#mf1f797d2cd" x="540.907337" y="153.16108" style="fill: #1e90ff; stroke: #1e90ff; stroke-linejoin: miter"/>
     <use xlink:href="#mf1f797d2cd" x="572.517663" y="143.156493" style="fill: #1e90ff; stroke: #1e90ff; stroke-linejoin: miter"/>
     <use xlink:href="#mf1f797d2cd" x="604.127989" y="133.270027" style="fill: #1e90ff; stroke: #1e90ff; stroke-linejoin: miter"/>
     <use xlink:href="#mf1f797d2cd" x="635.738315" y="122.520267" style="fill: #1e90ff; stroke: #1e90ff; stroke-linejoin: miter"/>
    </g>
   </g>
   <g id="line2d_32">
    <defs>
     <path id="m5006fb9b2d" d="M 0 6 
C 1.591219 6 3.117479 5.367802 4.242641 4.242641 
C 5.367802 3.117479 6 1.591219 6 0 
C 6 -1.591219 5.367802 -3.117479 4.242641 -4.242641 
C 3.117479 -5.367802 1.591219 -6 0 -6 
C -1.591219 -6 -3.117479 -5.367802 -4.242641 -4.242641 
C -5.367802 -3.117479 -6 -1.591219 -6 0 
C -6 1.591219 -5.367802 3.117479 -4.242641 4.242641 
C -3.117479 5.367802 -1.591219 6 0 6 
z
" style="stroke: #000000; stroke-width: 2"/>
    </defs>
    <g clip-path="url(#pda9dd09d36)">
     <use xlink:href="#m5006fb9b2d" x="414.466033" y="228.404798" style="fill: #1e90ff; stroke: #000000; stroke-width: 2"/>
     <use xlink:href="#m5006fb9b2d" x="446.076359" y="227.72579" style="fill: #1e90ff; stroke: #000000; stroke-width: 2"/>
     <use xlink:href="#m5006fb9b2d" x="509.297011" y="189.396074" style="fill: #1e90ff; stroke: #000000; stroke-width: 2"/>
     <use xlink:href="#m5006fb9b2d" x="540.907337" y="152.407944" style="fill: #1e90ff; stroke: #000000; stroke-width: 2"/>
     <use xlink:href="#m5006fb9b2d" x="572.517663" y="132.072077" style="fill: #1e90ff; stroke: #000000; stroke-width: 2"/>
     <use xlink:href="#m5006fb9b2d" x="604.127989" y="138.757666" style="fill: #1e90ff; stroke: #000000; stroke-width: 2"/>
     <use xlink:href="#m5006fb9b2d" x="635.738315" y="162.732292" style="fill: #1e90ff; stroke: #000000; stroke-width: 2"/>
    </g>
   </g>
   <g id="line2d_33">
    <defs>
     <path id="m65f0d91296" d="M -6 6 
L 6 6 
L 6 -6 
L -6 -6 
z
" style="stroke: #000000; stroke-width: 2; stroke-linejoin: miter"/>
    </defs>
    <g clip-path="url(#pda9dd09d36)">
     <use xlink:href="#m65f0d91296" x="414.466033" y="168.0399" style="fill: #1e90ff; stroke: #000000; stroke-width: 2; stroke-linejoin: miter"/>
     <use xlink:href="#m65f0d91296" x="446.076359" y="157.002146" style="fill: #1e90ff; stroke: #000000; stroke-width: 2; stroke-linejoin: miter"/>
     <use xlink:href="#m65f0d91296" x="477.686685" y="197.27241" style="fill: #1e90ff; stroke: #000000; stroke-width: 2; stroke-linejoin: miter"/>
     <use xlink:href="#m65f0d91296" x="509.297011" y="161.6801" style="fill: #1e90ff; stroke: #000000; stroke-width: 2; stroke-linejoin: miter"/>
     <use xlink:href="#m65f0d91296" x="540.907337" y="153.16108" style="fill: #1e90ff; stroke: #000000; stroke-width: 2; stroke-linejoin: miter"/>
     <use xlink:href="#m65f0d91296" x="572.517663" y="143.156493" style="fill: #1e90ff; stroke: #000000; stroke-width: 2; stroke-linejoin: miter"/>
     <use xlink:href="#m65f0d91296" x="604.127989" y="133.270027" style="fill: #1e90ff; stroke: #000000; stroke-width: 2; stroke-linejoin: miter"/>
     <use xlink:href="#m65f0d91296" x="635.738315" y="122.520267" style="fill: #1e90ff; stroke: #000000; stroke-width: 2; stroke-linejoin: miter"/>
    </g>
   </g>
  </g>
  <g id="text_25">
   <!-- Individual 307  -->
   <g transform="translate(249.114375 28.475625) scale(0.28 -0.28)">
    <defs>
     <path id="DejaVuSans-49" d="M 628 4666 
L 1259 4666 
L 1259 0 
L 628 0 
L 628 4666 
z
" transform="scale(0.015625)"/>
     <path id="DejaVuSans-6e" d="M 3513 2113 
L 3513 0 
L 2938 0 
L 2938 2094 
Q 2938 2591 2744 2837 
Q 2550 3084 2163 3084 
Q 1697 3084 1428 2787 
Q 1159 2491 1159 1978 
L 1159 0 
L 581 0 
L 581 3500 
L 1159 3500 
L 1159 2956 
Q 1366 3272 1645 3428 
Q 1925 3584 2291 3584 
Q 2894 3584 3203 3211 
Q 3513 2838 3513 2113 
z
" transform="scale(0.015625)"/>
     <path id="DejaVuSans-76" d="M 191 3500 
L 800 3500 
L 1894 563 
L 2988 3500 
L 3597 3500 
L 2284 0 
L 1503 0 
L 191 3500 
z
" transform="scale(0.015625)"/>
     <path id="DejaVuSans-61" d="M 2194 1759 
Q 1497 1759 1228 1600 
Q 959 1441 959 1056 
Q 959 750 1161 570 
Q 1363 391 1709 391 
Q 2188 391 2477 730 
Q 2766 1069 2766 1631 
L 2766 1759 
L 2194 1759 
z
M 3341 1997 
L 3341 0 
L 2766 0 
L 2766 531 
Q 2569 213 2275 61 
Q 1981 -91 1556 -91 
Q 1019 -91 701 211 
Q 384 513 384 1019 
Q 384 1609 779 1909 
Q 1175 2209 1959 2209 
L 2766 2209 
L 2766 2266 
Q 2766 2663 2505 2880 
Q 2244 3097 1772 3097 
Q 1472 3097 1187 3025 
Q 903 2953 641 2809 
L 641 3341 
Q 956 3463 1253 3523 
Q 1550 3584 1831 3584 
Q 2591 3584 2966 3190 
Q 3341 2797 3341 1997 
z
" transform="scale(0.015625)"/>
     <path id="DejaVuSans-33" d="M 2597 2516 
Q 3050 2419 3304 2112 
Q 3559 1806 3559 1356 
Q 3559 666 3084 287 
Q 2609 -91 1734 -91 
Q 1441 -91 1130 -33 
Q 819 25 488 141 
L 488 750 
Q 750 597 1062 519 
Q 1375 441 1716 441 
Q 2309 441 2620 675 
Q 2931 909 2931 1356 
Q 2931 1769 2642 2001 
Q 2353 2234 1838 2234 
L 1294 2234 
L 1294 2753 
L 1863 2753 
Q 2328 2753 2575 2939 
Q 2822 3125 2822 3475 
Q 2822 3834 2567 4026 
Q 2313 4219 1838 4219 
Q 1578 4219 1281 4162 
Q 984 4106 628 3988 
L 628 4550 
Q 988 4650 1302 4700 
Q 1616 4750 1894 4750 
Q 2613 4750 3031 4423 
Q 3450 4097 3450 3541 
Q 3450 3153 3228 2886 
Q 3006 2619 2597 2516 
z
" transform="scale(0.015625)"/>
    </defs>
    <use xlink:href="#DejaVuSans-49"/>
    <use xlink:href="#DejaVuSans-6e" transform="translate(29.492188 0)"/>
    <use xlink:href="#DejaVuSans-64" transform="translate(92.871094 0)"/>
    <use xlink:href="#DejaVuSans-69" transform="translate(156.347656 0)"/>
    <use xlink:href="#DejaVuSans-76" transform="translate(184.130859 0)"/>
    <use xlink:href="#DejaVuSans-69" transform="translate(243.310547 0)"/>
    <use xlink:href="#DejaVuSans-64" transform="translate(271.09375 0)"/>
    <use xlink:href="#DejaVuSans-75" transform="translate(334.570312 0)"/>
    <use xlink:href="#DejaVuSans-61" transform="translate(397.949219 0)"/>
    <use xlink:href="#DejaVuSans-6c" transform="translate(459.228516 0)"/>
    <use xlink:href="#DejaVuSans-20" transform="translate(487.011719 0)"/>
    <use xlink:href="#DejaVuSans-33" transform="translate(518.798828 0)"/>
    <use xlink:href="#DejaVuSans-30" transform="translate(582.421875 0)"/>
    <use xlink:href="#DejaVuSans-37" transform="translate(646.044922 0)"/>
    <use xlink:href="#DejaVuSans-20" transform="translate(709.667969 0)"/>
   </g>
  </g>
 </g>
 <defs>
  <clipPath id="pebd00c45ce">
   <rect x="56.75" y="58.32" width="290.815" height="232.36"/>
  </clipPath>
  <clipPath id="pda9dd09d36">
   <rect x="411.305" y="58.32" width="290.815" height="232.36"/>
  </clipPath>
 </defs>
</svg>
