<?xml version="1.0" encoding="utf-8" standalone="no"?>
<!DOCTYPE svg PUBLIC "-//W3C//DTD SVG 1.1//EN"
  "http://www.w3.org/Graphics/SVG/1.1/DTD/svg11.dtd">
<svg xmlns:xlink="http://www.w3.org/1999/xlink" width="360pt" height="360pt" viewBox="0 0 360 360" xmlns="http://www.w3.org/2000/svg" version="1.1">
 <metadata>
  <rdf:RDF xmlns:dc="http://purl.org/dc/elements/1.1/" xmlns:cc="http://creativecommons.org/ns#" xmlns:rdf="http://www.w3.org/1999/02/22-rdf-syntax-ns#">
   <cc:Work>
    <dc:type rdf:resource="http://purl.org/dc/dcmitype/StillImage"/>
    <dc:date>2023-12-20T20:33:45.359556</dc:date>
    <dc:format>image/svg+xml</dc:format>
    <dc:creator>
     <cc:Agent>
      <dc:title>Matplotlib v3.7.2, https://matplotlib.org/</dc:title>
     </cc:Agent>
    </dc:creator>
   </cc:Work>
  </rdf:RDF>
 </metadata>
 <defs>
  <style type="text/css">*{stroke-linejoin: round; stroke-linecap: butt}</style>
 </defs>
 <g id="figure_1">
  <g id="patch_1">
   <path d="M 0 360 
L 360 360 
L 360 0 
L 0 0 
z
" style="fill: #ffffff"/>
  </g>
  <g id="axes_1">
   <g id="patch_2">
    <path d="M 45 320.4 
L 324 320.4 
L 324 43.2 
L 45 43.2 
z
" style="fill: #ffffff"/>
   </g>
   <g id="PathCollection_1">
    <defs>
     <path id="C0_0_1d5aa1d5e3" d="M 0 5 
C 1.326016 5 2.597899 4.473168 3.535534 3.535534 
C 4.473168 2.597899 5 1.326016 5 -0 
C 5 -1.326016 4.473168 -2.597899 3.535534 -3.535534 
C 2.597899 -4.473168 1.326016 -5 0 -5 
C -1.326016 -5 -2.597899 -4.473168 -3.535534 -3.535534 
C -4.473168 -2.597899 -5 -1.326016 -5 0 
C -5 1.326016 -4.473168 2.597899 -3.535534 3.535534 
C -2.597899 4.473168 -1.326016 5 0 5 
z
"/>
    </defs>
    <g clip-path="url(#p518deb39a4)">
     <use xlink:href="#C0_0_1d5aa1d5e3" x="57.681818" y="85.931723" style="fill: #800080"/>
    </g>
    <g clip-path="url(#p518deb39a4)">
     <use xlink:href="#C0_0_1d5aa1d5e3" x="103.547718" y="126.772494" style="fill: #800080"/>
    </g>
    <g clip-path="url(#p518deb39a4)">
     <use xlink:href="#C0_0_1d5aa1d5e3" x="129.648236" y="97.259931" style="fill: #800080"/>
    </g>
    <g clip-path="url(#p518deb39a4)">
     <use xlink:href="#C0_0_1d5aa1d5e3" x="86.104656" y="82.709223" style="fill: #800080"/>
    </g>
    <g clip-path="url(#p518deb39a4)">
     <use xlink:href="#C0_0_1d5aa1d5e3" x="111.972904" y="106.85973" style="fill: #800080"/>
    </g>
    <g clip-path="url(#p518deb39a4)">
     <use xlink:href="#C0_0_1d5aa1d5e3" x="75.647037" y="88.520892" style="fill: #800080"/>
    </g>
    <g clip-path="url(#p518deb39a4)">
     <use xlink:href="#C0_0_1d5aa1d5e3" x="122.828905" y="89.655975" style="fill: #800080"/>
    </g>
    <g clip-path="url(#p518deb39a4)">
     <use xlink:href="#C0_0_1d5aa1d5e3" x="90.25588" y="109.691329" style="fill: #800080"/>
    </g>
    <g clip-path="url(#p518deb39a4)">
     <use xlink:href="#C0_0_1d5aa1d5e3" x="80.784987" y="105.373756" style="fill: #800080"/>
    </g>
    <g clip-path="url(#p518deb39a4)">
     <use xlink:href="#C0_0_1d5aa1d5e3" x="114.045455" y="211.30012" style="fill: #800080"/>
    </g>
    <g clip-path="url(#p518deb39a4)">
     <use xlink:href="#C0_0_1d5aa1d5e3" x="170.409091" y="86.095468" style="fill: #800080"/>
    </g>
    <g clip-path="url(#p518deb39a4)">
     <use xlink:href="#C0_0_1d5aa1d5e3" x="118.557366" y="74.172653" style="fill: #800080"/>
    </g>
    <g clip-path="url(#p518deb39a4)">
     <use xlink:href="#C0_0_1d5aa1d5e3" x="76.942378" y="77.82483" style="fill: #800080"/>
    </g>
    <g clip-path="url(#p518deb39a4)">
     <use xlink:href="#C0_0_1d5aa1d5e3" x="140.876753" y="81.585326" style="fill: #800080"/>
    </g>
    <g clip-path="url(#p518deb39a4)">
     <use xlink:href="#C0_0_1d5aa1d5e3" x="99.807919" y="113.843595" style="fill: #800080"/>
    </g>
    <g clip-path="url(#p518deb39a4)">
     <use xlink:href="#C0_0_1d5aa1d5e3" x="137.705146" y="106.114453" style="fill: #800080"/>
    </g>
    <g clip-path="url(#p518deb39a4)">
     <use xlink:href="#C0_0_1d5aa1d5e3" x="162.42633" y="80.46673" style="fill: #800080"/>
    </g>
    <g clip-path="url(#p518deb39a4)">
     <use xlink:href="#C0_0_1d5aa1d5e3" x="130.451819" y="82.778942" style="fill: #800080"/>
    </g>
    <g clip-path="url(#p518deb39a4)">
     <use xlink:href="#C0_0_1d5aa1d5e3" x="169.435917" y="87.912113" style="fill: #800080"/>
    </g>
    <g clip-path="url(#p518deb39a4)">
     <use xlink:href="#C0_0_1d5aa1d5e3" x="93.823015" y="89.489006" style="fill: #800080"/>
    </g>
    <g clip-path="url(#p518deb39a4)">
     <use xlink:href="#C0_0_1d5aa1d5e3" x="125.69775" y="66.840871" style="fill: #800080"/>
    </g>
    <g clip-path="url(#p518deb39a4)">
     <use xlink:href="#C0_0_1d5aa1d5e3" x="152.245264" y="81.576399" style="fill: #800080"/>
    </g>
    <g clip-path="url(#p518deb39a4)">
     <use xlink:href="#C0_0_1d5aa1d5e3" x="122.097147" y="104.208466" style="fill: #800080"/>
    </g>
    <g clip-path="url(#p518deb39a4)">
     <use xlink:href="#C0_0_1d5aa1d5e3" x="114.564947" y="165.515976" style="fill: #800080"/>
    </g>
    <g clip-path="url(#p518deb39a4)">
     <use xlink:href="#C0_0_1d5aa1d5e3" x="108.99117" y="70.050054" style="fill: #800080"/>
    </g>
    <g clip-path="url(#p518deb39a4)">
     <use xlink:href="#C0_0_1d5aa1d5e3" x="57.681818" y="86.581419" style="fill: #800080"/>
    </g>
    <g clip-path="url(#p518deb39a4)">
     <use xlink:href="#C0_0_1d5aa1d5e3" x="137.961423" y="91.151247" style="fill: #800080"/>
    </g>
    <g clip-path="url(#p518deb39a4)">
     <use xlink:href="#C0_0_1d5aa1d5e3" x="129.313111" y="112.124553" style="fill: #800080"/>
    </g>
    <g clip-path="url(#p518deb39a4)">
     <use xlink:href="#C0_0_1d5aa1d5e3" x="104.021716" y="91.867387" style="fill: #800080"/>
    </g>
    <g clip-path="url(#p518deb39a4)">
     <use xlink:href="#C0_0_1d5aa1d5e3" x="102.561702" y="102.425348" style="fill: #800080"/>
    </g>
    <g clip-path="url(#p518deb39a4)">
     <use xlink:href="#C0_0_1d5aa1d5e3" x="114.045455" y="59.793141" style="fill: #800080"/>
    </g>
    <g clip-path="url(#p518deb39a4)">
     <use xlink:href="#C0_0_1d5aa1d5e3" x="114.045455" y="277.229235" style="fill: #800080"/>
    </g>
    <g clip-path="url(#p518deb39a4)">
     <use xlink:href="#C0_0_1d5aa1d5e3" x="114.045455" y="307.8" style="fill: #800080"/>
    </g>
    <g clip-path="url(#p518deb39a4)">
     <use xlink:href="#C0_0_1d5aa1d5e3" x="109.973283" y="156.522825" style="fill: #800080"/>
    </g>
    <g clip-path="url(#p518deb39a4)">
     <use xlink:href="#C0_0_1d5aa1d5e3" x="65.148734" y="88.341095" style="fill: #800080"/>
    </g>
    <g clip-path="url(#p518deb39a4)">
     <use xlink:href="#C0_0_1d5aa1d5e3" x="109.33795" y="118.041479" style="fill: #800080"/>
    </g>
    <g clip-path="url(#p518deb39a4)">
     <use xlink:href="#C0_0_1d5aa1d5e3" x="114.045455" y="141.599489" style="fill: #800080"/>
    </g>
    <g clip-path="url(#p518deb39a4)">
     <use xlink:href="#C0_0_1d5aa1d5e3" x="72.350136" y="99.418267" style="fill: #800080"/>
    </g>
    <g clip-path="url(#p518deb39a4)">
     <use xlink:href="#C0_0_1d5aa1d5e3" x="146.599503" y="100.799824" style="fill: #800080"/>
    </g>
    <g clip-path="url(#p518deb39a4)">
     <use xlink:href="#C0_0_1d5aa1d5e3" x="159.275056" y="90.433119" style="fill: #800080"/>
    </g>
    <g clip-path="url(#p518deb39a4)">
     <use xlink:href="#C0_0_1d5aa1d5e3" x="123.865587" y="123.440282" style="fill: #800080"/>
    </g>
    <g clip-path="url(#p518deb39a4)">
     <use xlink:href="#C0_0_1d5aa1d5e3" x="114.045455" y="176.152663" style="fill: #800080"/>
    </g>
    <g clip-path="url(#p518deb39a4)">
     <use xlink:href="#C0_0_1d5aa1d5e3" x="104.422374" y="137.598772" style="fill: #800080"/>
    </g>
    <g clip-path="url(#p518deb39a4)">
     <use xlink:href="#C0_0_1d5aa1d5e3" x="105.426686" y="170.441009" style="fill: #800080"/>
    </g>
    <g clip-path="url(#p518deb39a4)">
     <use xlink:href="#C0_0_1d5aa1d5e3" x="114.045455" y="83.202342" style="fill: #800080"/>
    </g>
    <g clip-path="url(#p518deb39a4)">
     <use xlink:href="#C0_0_1d5aa1d5e3" x="84.406171" y="94.035464" style="fill: #800080"/>
    </g>
    <g clip-path="url(#p518deb39a4)">
     <use xlink:href="#C0_0_1d5aa1d5e3" x="117.145031" y="237.587225" style="fill: #800080"/>
    </g>
    <g clip-path="url(#p518deb39a4)">
     <use xlink:href="#C0_0_1d5aa1d5e3" x="114.045455" y="247.141587" style="fill: #800080"/>
    </g>
    <g clip-path="url(#p518deb39a4)">
     <use xlink:href="#C0_0_1d5aa1d5e3" x="104.708507" y="272.65469" style="fill: #800080"/>
    </g>
    <g clip-path="url(#p518deb39a4)">
     <use xlink:href="#C0_0_1d5aa1d5e3" x="103.626618" y="210.059157" style="fill: #800080"/>
    </g>
    <g clip-path="url(#p518deb39a4)">
     <use xlink:href="#C0_0_1d5aa1d5e3" x="92.835647" y="99.997849" style="fill: #800080"/>
    </g>
    <g clip-path="url(#p518deb39a4)">
     <use xlink:href="#C0_0_1d5aa1d5e3" x="103.681241" y="81.599321" style="fill: #800080"/>
    </g>
    <g clip-path="url(#p518deb39a4)">
     <use xlink:href="#C0_0_1d5aa1d5e3" x="114.045455" y="94.844955" style="fill: #800080"/>
    </g>
    <g clip-path="url(#p518deb39a4)">
     <use xlink:href="#C0_0_1d5aa1d5e3" x="119.051943" y="114.245271" style="fill: #800080"/>
    </g>
    <g clip-path="url(#p518deb39a4)">
     <use xlink:href="#C0_0_1d5aa1d5e3" x="114.045455" y="126.980141" style="fill: #800080"/>
    </g>
    <g clip-path="url(#p518deb39a4)">
     <use xlink:href="#C0_0_1d5aa1d5e3" x="148.793185" y="91.020502" style="fill: #800080"/>
    </g>
    <g clip-path="url(#p518deb39a4)">
     <use xlink:href="#C0_0_1d5aa1d5e3" x="127.234307" y="234.817695" style="fill: #800080"/>
    </g>
    <g clip-path="url(#p518deb39a4)">
     <use xlink:href="#C0_0_1d5aa1d5e3" x="104.974671" y="242.104681" style="fill: #800080"/>
    </g>
   </g>
   <g id="PathCollection_2">
    <defs>
     <path id="C1_0_e4163f3b00" d="M 0 5 
C 1.326016 5 2.597899 4.473168 3.535534 3.535534 
C 4.473168 2.597899 5 1.326016 5 -0 
C 5 -1.326016 4.473168 -2.597899 3.535534 -3.535534 
C 2.597899 -4.473168 1.326016 -5 0 -5 
C -1.326016 -5 -2.597899 -4.473168 -3.535534 -3.535534 
C -4.473168 -2.597899 -5 -1.326016 -5 0 
C -5 1.326016 -4.473168 2.597899 -3.535534 3.535534 
C -2.597899 4.473168 -1.326016 5 0 5 
z
"/>
    </defs>
    <g clip-path="url(#p518deb39a4)">
     <use xlink:href="#C1_0_e4163f3b00" x="254.954545" y="56.188801" style="fill: #008000"/>
    </g>
    <g clip-path="url(#p518deb39a4)">
     <use xlink:href="#C1_0_e4163f3b00" x="254.954545" y="92.195388" style="fill: #008000"/>
    </g>
    <g clip-path="url(#p518deb39a4)">
     <use xlink:href="#C1_0_e4163f3b00" x="235.216397" y="102.564483" style="fill: #008000"/>
    </g>
    <g clip-path="url(#p518deb39a4)">
     <use xlink:href="#C1_0_e4163f3b00" x="254.954545" y="162.10598" style="fill: #008000"/>
    </g>
    <g clip-path="url(#p518deb39a4)">
     <use xlink:href="#C1_0_e4163f3b00" x="245.295025" y="75.195732" style="fill: #008000"/>
    </g>
    <g clip-path="url(#p518deb39a4)">
     <use xlink:href="#C1_0_e4163f3b00" x="258.923735" y="69.858006" style="fill: #008000"/>
    </g>
    <g clip-path="url(#p518deb39a4)">
     <use xlink:href="#C1_0_e4163f3b00" x="254.954545" y="79.115988" style="fill: #008000"/>
    </g>
    <g clip-path="url(#p518deb39a4)">
     <use xlink:href="#C1_0_e4163f3b00" x="255.456373" y="260.681345" style="fill: #008000"/>
    </g>
    <g clip-path="url(#p518deb39a4)">
     <use xlink:href="#C1_0_e4163f3b00" x="264.890179" y="145.781575" style="fill: #008000"/>
    </g>
    <g clip-path="url(#p518deb39a4)">
     <use xlink:href="#C1_0_e4163f3b00" x="254.954545" y="274.54288" style="fill: #008000"/>
    </g>
    <g clip-path="url(#p518deb39a4)">
     <use xlink:href="#C1_0_e4163f3b00" x="290.049762" y="99.888404" style="fill: #008000"/>
    </g>
    <g clip-path="url(#p518deb39a4)">
     <use xlink:href="#C1_0_e4163f3b00" x="259.116287" y="105.128637" style="fill: #008000"/>
    </g>
    <g clip-path="url(#p518deb39a4)">
     <use xlink:href="#C1_0_e4163f3b00" x="275.152885" y="143.66762" style="fill: #008000"/>
    </g>
    <g clip-path="url(#p518deb39a4)">
     <use xlink:href="#C1_0_e4163f3b00" x="251.835083" y="112.333703" style="fill: #008000"/>
    </g>
    <g clip-path="url(#p518deb39a4)">
     <use xlink:href="#C1_0_e4163f3b00" x="265.426792" y="91.468793" style="fill: #008000"/>
    </g>
    <g clip-path="url(#p518deb39a4)">
     <use xlink:href="#C1_0_e4163f3b00" x="269.438773" y="103.297616" style="fill: #008000"/>
    </g>
    <g clip-path="url(#p518deb39a4)">
     <use xlink:href="#C1_0_e4163f3b00" x="245.553184" y="104.320803" style="fill: #008000"/>
    </g>
    <g clip-path="url(#p518deb39a4)">
     <use xlink:href="#C1_0_e4163f3b00" x="279.901404" y="102.454685" style="fill: #008000"/>
    </g>
    <g clip-path="url(#p518deb39a4)">
     <use xlink:href="#C1_0_e4163f3b00" x="254.954545" y="149.015913" style="fill: #008000"/>
    </g>
    <g clip-path="url(#p518deb39a4)">
     <use xlink:href="#C1_0_e4163f3b00" x="296.021549" y="86.454668" style="fill: #008000"/>
    </g>
    <g clip-path="url(#p518deb39a4)">
     <use xlink:href="#C1_0_e4163f3b00" x="215.239409" y="97.428314" style="fill: #008000"/>
    </g>
    <g clip-path="url(#p518deb39a4)">
     <use xlink:href="#C1_0_e4163f3b00" x="254.954545" y="125.736885" style="fill: #008000"/>
    </g>
    <g clip-path="url(#p518deb39a4)">
     <use xlink:href="#C1_0_e4163f3b00" x="244.745889" y="146.676594" style="fill: #008000"/>
    </g>
    <g clip-path="url(#p518deb39a4)">
     <use xlink:href="#C1_0_e4163f3b00" x="247.645042" y="267.36385" style="fill: #008000"/>
    </g>
    <g clip-path="url(#p518deb39a4)">
     <use xlink:href="#C1_0_e4163f3b00" x="244.462485" y="55.8" style="fill: #008000"/>
    </g>
    <g clip-path="url(#p518deb39a4)">
     <use xlink:href="#C1_0_e4163f3b00" x="285.539192" y="87.034134" style="fill: #008000"/>
    </g>
    <g clip-path="url(#p518deb39a4)">
     <use xlink:href="#C1_0_e4163f3b00" x="213.77825" y="85.627616" style="fill: #008000"/>
    </g>
    <g clip-path="url(#p518deb39a4)">
     <use xlink:href="#C1_0_e4163f3b00" x="306.287711" y="84.35599" style="fill: #008000"/>
    </g>
    <g clip-path="url(#p518deb39a4)">
     <use xlink:href="#C1_0_e4163f3b00" x="275.048996" y="87.466164" style="fill: #008000"/>
    </g>
    <g clip-path="url(#p518deb39a4)">
     <use xlink:href="#C1_0_e4163f3b00" x="224.761025" y="101.643483" style="fill: #008000"/>
    </g>
    <g clip-path="url(#p518deb39a4)">
     <use xlink:href="#C1_0_e4163f3b00" x="265.324873" y="77.549243" style="fill: #008000"/>
    </g>
    <g clip-path="url(#p518deb39a4)">
     <use xlink:href="#C1_0_e4163f3b00" x="260.849486" y="117.461595" style="fill: #008000"/>
    </g>
    <g clip-path="url(#p518deb39a4)">
     <use xlink:href="#C1_0_e4163f3b00" x="224.206499" y="86.79467" style="fill: #008000"/>
    </g>
    <g clip-path="url(#p518deb39a4)">
     <use xlink:href="#C1_0_e4163f3b00" x="245.09427" y="88.758234" style="fill: #008000"/>
    </g>
    <g clip-path="url(#p518deb39a4)">
     <use xlink:href="#C1_0_e4163f3b00" x="234.68334" y="87.458474" style="fill: #008000"/>
    </g>
   </g>
   <g id="PathCollection_3"/>
   <g id="PathCollection_4"/>
   <g id="matplotlib.axis_1">
    <g id="xtick_1">
     <g id="line2d_1">
      <defs>
       <path id="m8d92a6e25a" d="M 0 0 
L 0 3.5 
" style="stroke: #000000; stroke-width: 0.8"/>
      </defs>
      <g>
       <use xlink:href="#m8d92a6e25a" x="114.045455" y="320.4" style="stroke: #000000; stroke-width: 0.8"/>
      </g>
     </g>
     <g id="text_1">
      <!-- Female -->
      <g transform="translate(95.968111 334.998438) scale(0.1 -0.1)">
       <defs>
        <path id="DejaVuSans-46" d="M 628 4666 
L 3309 4666 
L 3309 4134 
L 1259 4134 
L 1259 2759 
L 3109 2759 
L 3109 2228 
L 1259 2228 
L 1259 0 
L 628 0 
L 628 4666 
z
" transform="scale(0.015625)"/>
        <path id="DejaVuSans-65" d="M 3597 1894 
L 3597 1613 
L 953 1613 
Q 991 1019 1311 708 
Q 1631 397 2203 397 
Q 2534 397 2845 478 
Q 3156 559 3463 722 
L 3463 178 
Q 3153 47 2828 -22 
Q 2503 -91 2169 -91 
Q 1331 -91 842 396 
Q 353 884 353 1716 
Q 353 2575 817 3079 
Q 1281 3584 2069 3584 
Q 2775 3584 3186 3129 
Q 3597 2675 3597 1894 
z
M 3022 2063 
Q 3016 2534 2758 2815 
Q 2500 3097 2075 3097 
Q 1594 3097 1305 2825 
Q 1016 2553 972 2059 
L 3022 2063 
z
" transform="scale(0.015625)"/>
        <path id="DejaVuSans-6d" d="M 3328 2828 
Q 3544 3216 3844 3400 
Q 4144 3584 4550 3584 
Q 5097 3584 5394 3201 
Q 5691 2819 5691 2113 
L 5691 0 
L 5113 0 
L 5113 2094 
Q 5113 2597 4934 2840 
Q 4756 3084 4391 3084 
Q 3944 3084 3684 2787 
Q 3425 2491 3425 1978 
L 3425 0 
L 2847 0 
L 2847 2094 
Q 2847 2600 2669 2842 
Q 2491 3084 2119 3084 
Q 1678 3084 1418 2786 
Q 1159 2488 1159 1978 
L 1159 0 
L 581 0 
L 581 3500 
L 1159 3500 
L 1159 2956 
Q 1356 3278 1631 3431 
Q 1906 3584 2284 3584 
Q 2666 3584 2933 3390 
Q 3200 3197 3328 2828 
z
" transform="scale(0.015625)"/>
        <path id="DejaVuSans-61" d="M 2194 1759 
Q 1497 1759 1228 1600 
Q 959 1441 959 1056 
Q 959 750 1161 570 
Q 1363 391 1709 391 
Q 2188 391 2477 730 
Q 2766 1069 2766 1631 
L 2766 1759 
L 2194 1759 
z
M 3341 1997 
L 3341 0 
L 2766 0 
L 2766 531 
Q 2569 213 2275 61 
Q 1981 -91 1556 -91 
Q 1019 -91 701 211 
Q 384 513 384 1019 
Q 384 1609 779 1909 
Q 1175 2209 1959 2209 
L 2766 2209 
L 2766 2266 
Q 2766 2663 2505 2880 
Q 2244 3097 1772 3097 
Q 1472 3097 1187 3025 
Q 903 2953 641 2809 
L 641 3341 
Q 956 3463 1253 3523 
Q 1550 3584 1831 3584 
Q 2591 3584 2966 3190 
Q 3341 2797 3341 1997 
z
" transform="scale(0.015625)"/>
        <path id="DejaVuSans-6c" d="M 603 4863 
L 1178 4863 
L 1178 0 
L 603 0 
L 603 4863 
z
" transform="scale(0.015625)"/>
       </defs>
       <use xlink:href="#DejaVuSans-46"/>
       <use xlink:href="#DejaVuSans-65" x="52.019531"/>
       <use xlink:href="#DejaVuSans-6d" x="113.542969"/>
       <use xlink:href="#DejaVuSans-61" x="210.955078"/>
       <use xlink:href="#DejaVuSans-6c" x="272.234375"/>
       <use xlink:href="#DejaVuSans-65" x="300.017578"/>
      </g>
     </g>
    </g>
    <g id="xtick_2">
     <g id="line2d_2">
      <g>
       <use xlink:href="#m8d92a6e25a" x="254.954545" y="320.4" style="stroke: #000000; stroke-width: 0.8"/>
      </g>
     </g>
     <g id="text_2">
      <!-- Male -->
      <g transform="translate(243.110795 334.998438) scale(0.1 -0.1)">
       <defs>
        <path id="DejaVuSans-4d" d="M 628 4666 
L 1569 4666 
L 2759 1491 
L 3956 4666 
L 4897 4666 
L 4897 0 
L 4281 0 
L 4281 4097 
L 3078 897 
L 2444 897 
L 1241 4097 
L 1241 0 
L 628 0 
L 628 4666 
z
" transform="scale(0.015625)"/>
       </defs>
       <use xlink:href="#DejaVuSans-4d"/>
       <use xlink:href="#DejaVuSans-61" x="86.279297"/>
       <use xlink:href="#DejaVuSans-6c" x="147.558594"/>
       <use xlink:href="#DejaVuSans-65" x="175.341797"/>
      </g>
     </g>
    </g>
    <g id="text_3">
     <!-- Sex -->
     <g transform="translate(175.377344 348.676562) scale(0.1 -0.1)">
      <defs>
       <path id="DejaVuSans-53" d="M 3425 4513 
L 3425 3897 
Q 3066 4069 2747 4153 
Q 2428 4238 2131 4238 
Q 1616 4238 1336 4038 
Q 1056 3838 1056 3469 
Q 1056 3159 1242 3001 
Q 1428 2844 1947 2747 
L 2328 2669 
Q 3034 2534 3370 2195 
Q 3706 1856 3706 1288 
Q 3706 609 3251 259 
Q 2797 -91 1919 -91 
Q 1588 -91 1214 -16 
Q 841 59 441 206 
L 441 856 
Q 825 641 1194 531 
Q 1563 422 1919 422 
Q 2459 422 2753 634 
Q 3047 847 3047 1241 
Q 3047 1584 2836 1778 
Q 2625 1972 2144 2069 
L 1759 2144 
Q 1053 2284 737 2584 
Q 422 2884 422 3419 
Q 422 4038 858 4394 
Q 1294 4750 2059 4750 
Q 2388 4750 2728 4690 
Q 3069 4631 3425 4513 
z
" transform="scale(0.015625)"/>
       <path id="DejaVuSans-78" d="M 3513 3500 
L 2247 1797 
L 3578 0 
L 2900 0 
L 1881 1375 
L 863 0 
L 184 0 
L 1544 1831 
L 300 3500 
L 978 3500 
L 1906 2253 
L 2834 3500 
L 3513 3500 
z
" transform="scale(0.015625)"/>
      </defs>
      <use xlink:href="#DejaVuSans-53"/>
      <use xlink:href="#DejaVuSans-65" x="63.476562"/>
      <use xlink:href="#DejaVuSans-78" x="123.25"/>
     </g>
    </g>
   </g>
   <g id="matplotlib.axis_2">
    <g id="ytick_1">
     <g id="line2d_3">
      <defs>
       <path id="m00289ade27" d="M 0 0 
L -3.5 0 
" style="stroke: #000000; stroke-width: 0.8"/>
      </defs>
      <g>
       <use xlink:href="#m00289ade27" x="45" y="291.715371" style="stroke: #000000; stroke-width: 0.8"/>
      </g>
     </g>
     <g id="text_4">
      <!-- −1 -->
      <g transform="translate(23.257812 295.51459) scale(0.1 -0.1)">
       <defs>
        <path id="DejaVuSans-2212" d="M 678 2272 
L 4684 2272 
L 4684 1741 
L 678 1741 
L 678 2272 
z
" transform="scale(0.015625)"/>
        <path id="DejaVuSans-31" d="M 794 531 
L 1825 531 
L 1825 4091 
L 703 3866 
L 703 4441 
L 1819 4666 
L 2450 4666 
L 2450 531 
L 3481 531 
L 3481 0 
L 794 0 
L 794 531 
z
" transform="scale(0.015625)"/>
       </defs>
       <use xlink:href="#DejaVuSans-2212"/>
       <use xlink:href="#DejaVuSans-31" x="83.789062"/>
      </g>
     </g>
    </g>
    <g id="ytick_2">
     <g id="line2d_4">
      <g>
       <use xlink:href="#m00289ade27" x="45" y="256.411673" style="stroke: #000000; stroke-width: 0.8"/>
      </g>
     </g>
     <g id="text_5">
      <!-- 0 -->
      <g transform="translate(31.6375 260.210892) scale(0.1 -0.1)">
       <defs>
        <path id="DejaVuSans-30" d="M 2034 4250 
Q 1547 4250 1301 3770 
Q 1056 3291 1056 2328 
Q 1056 1369 1301 889 
Q 1547 409 2034 409 
Q 2525 409 2770 889 
Q 3016 1369 3016 2328 
Q 3016 3291 2770 3770 
Q 2525 4250 2034 4250 
z
M 2034 4750 
Q 2819 4750 3233 4129 
Q 3647 3509 3647 2328 
Q 3647 1150 3233 529 
Q 2819 -91 2034 -91 
Q 1250 -91 836 529 
Q 422 1150 422 2328 
Q 422 3509 836 4129 
Q 1250 4750 2034 4750 
z
" transform="scale(0.015625)"/>
       </defs>
       <use xlink:href="#DejaVuSans-30"/>
      </g>
     </g>
    </g>
    <g id="ytick_3">
     <g id="line2d_5">
      <g>
       <use xlink:href="#m00289ade27" x="45" y="221.107975" style="stroke: #000000; stroke-width: 0.8"/>
      </g>
     </g>
     <g id="text_6">
      <!-- 1 -->
      <g transform="translate(31.6375 224.907194) scale(0.1 -0.1)">
       <use xlink:href="#DejaVuSans-31"/>
      </g>
     </g>
    </g>
    <g id="ytick_4">
     <g id="line2d_6">
      <g>
       <use xlink:href="#m00289ade27" x="45" y="185.804277" style="stroke: #000000; stroke-width: 0.8"/>
      </g>
     </g>
     <g id="text_7">
      <!-- 2 -->
      <g transform="translate(31.6375 189.603495) scale(0.1 -0.1)">
       <defs>
        <path id="DejaVuSans-32" d="M 1228 531 
L 3431 531 
L 3431 0 
L 469 0 
L 469 531 
Q 828 903 1448 1529 
Q 2069 2156 2228 2338 
Q 2531 2678 2651 2914 
Q 2772 3150 2772 3378 
Q 2772 3750 2511 3984 
Q 2250 4219 1831 4219 
Q 1534 4219 1204 4116 
Q 875 4013 500 3803 
L 500 4441 
Q 881 4594 1212 4672 
Q 1544 4750 1819 4750 
Q 2544 4750 2975 4387 
Q 3406 4025 3406 3419 
Q 3406 3131 3298 2873 
Q 3191 2616 2906 2266 
Q 2828 2175 2409 1742 
Q 1991 1309 1228 531 
z
" transform="scale(0.015625)"/>
       </defs>
       <use xlink:href="#DejaVuSans-32"/>
      </g>
     </g>
    </g>
    <g id="ytick_5">
     <g id="line2d_7">
      <g>
       <use xlink:href="#m00289ade27" x="45" y="150.500578" style="stroke: #000000; stroke-width: 0.8"/>
      </g>
     </g>
     <g id="text_8">
      <!-- 3 -->
      <g transform="translate(31.6375 154.299797) scale(0.1 -0.1)">
       <defs>
        <path id="DejaVuSans-33" d="M 2597 2516 
Q 3050 2419 3304 2112 
Q 3559 1806 3559 1356 
Q 3559 666 3084 287 
Q 2609 -91 1734 -91 
Q 1441 -91 1130 -33 
Q 819 25 488 141 
L 488 750 
Q 750 597 1062 519 
Q 1375 441 1716 441 
Q 2309 441 2620 675 
Q 2931 909 2931 1356 
Q 2931 1769 2642 2001 
Q 2353 2234 1838 2234 
L 1294 2234 
L 1294 2753 
L 1863 2753 
Q 2328 2753 2575 2939 
Q 2822 3125 2822 3475 
Q 2822 3834 2567 4026 
Q 2313 4219 1838 4219 
Q 1578 4219 1281 4162 
Q 984 4106 628 3988 
L 628 4550 
Q 988 4650 1302 4700 
Q 1616 4750 1894 4750 
Q 2613 4750 3031 4423 
Q 3450 4097 3450 3541 
Q 3450 3153 3228 2886 
Q 3006 2619 2597 2516 
z
" transform="scale(0.015625)"/>
       </defs>
       <use xlink:href="#DejaVuSans-33"/>
      </g>
     </g>
    </g>
    <g id="ytick_6">
     <g id="line2d_8">
      <g>
       <use xlink:href="#m00289ade27" x="45" y="115.19688" style="stroke: #000000; stroke-width: 0.8"/>
      </g>
     </g>
     <g id="text_9">
      <!-- 4 -->
      <g transform="translate(31.6375 118.996099) scale(0.1 -0.1)">
       <defs>
        <path id="DejaVuSans-34" d="M 2419 4116 
L 825 1625 
L 2419 1625 
L 2419 4116 
z
M 2253 4666 
L 3047 4666 
L 3047 1625 
L 3713 1625 
L 3713 1100 
L 3047 1100 
L 3047 0 
L 2419 0 
L 2419 1100 
L 313 1100 
L 313 1709 
L 2253 4666 
z
" transform="scale(0.015625)"/>
       </defs>
       <use xlink:href="#DejaVuSans-34"/>
      </g>
     </g>
    </g>
    <g id="ytick_7">
     <g id="line2d_9">
      <g>
       <use xlink:href="#m00289ade27" x="45" y="79.893182" style="stroke: #000000; stroke-width: 0.8"/>
      </g>
     </g>
     <g id="text_10">
      <!-- 5 -->
      <g transform="translate(31.6375 83.692401) scale(0.1 -0.1)">
       <defs>
        <path id="DejaVuSans-35" d="M 691 4666 
L 3169 4666 
L 3169 4134 
L 1269 4134 
L 1269 2991 
Q 1406 3038 1543 3061 
Q 1681 3084 1819 3084 
Q 2600 3084 3056 2656 
Q 3513 2228 3513 1497 
Q 3513 744 3044 326 
Q 2575 -91 1722 -91 
Q 1428 -91 1123 -41 
Q 819 9 494 109 
L 494 744 
Q 775 591 1075 516 
Q 1375 441 1709 441 
Q 2250 441 2565 725 
Q 2881 1009 2881 1497 
Q 2881 1984 2565 2268 
Q 2250 2553 1709 2553 
Q 1456 2553 1204 2497 
Q 953 2441 691 2322 
L 691 4666 
z
" transform="scale(0.015625)"/>
       </defs>
       <use xlink:href="#DejaVuSans-35"/>
      </g>
     </g>
    </g>
    <g id="ytick_8">
     <g id="line2d_10">
      <g>
       <use xlink:href="#m00289ade27" x="45" y="44.589484" style="stroke: #000000; stroke-width: 0.8"/>
      </g>
     </g>
     <g id="text_11">
      <!-- 6 -->
      <g transform="translate(31.6375 48.388702) scale(0.1 -0.1)">
       <defs>
        <path id="DejaVuSans-36" d="M 2113 2584 
Q 1688 2584 1439 2293 
Q 1191 2003 1191 1497 
Q 1191 994 1439 701 
Q 1688 409 2113 409 
Q 2538 409 2786 701 
Q 3034 994 3034 1497 
Q 3034 2003 2786 2293 
Q 2538 2584 2113 2584 
z
M 3366 4563 
L 3366 3988 
Q 3128 4100 2886 4159 
Q 2644 4219 2406 4219 
Q 1781 4219 1451 3797 
Q 1122 3375 1075 2522 
Q 1259 2794 1537 2939 
Q 1816 3084 2150 3084 
Q 2853 3084 3261 2657 
Q 3669 2231 3669 1497 
Q 3669 778 3244 343 
Q 2819 -91 2113 -91 
Q 1303 -91 875 529 
Q 447 1150 447 2328 
Q 447 3434 972 4092 
Q 1497 4750 2381 4750 
Q 2619 4750 2861 4703 
Q 3103 4656 3366 4563 
z
" transform="scale(0.015625)"/>
       </defs>
       <use xlink:href="#DejaVuSans-36"/>
      </g>
     </g>
    </g>
    <g id="text_12">
     <!-- Log10(SOCS1) (Δ)Ct -->
     <g transform="translate(17.178125 232.315625) rotate(-90) scale(0.1 -0.1)">
      <defs>
       <path id="DejaVuSans-4c" d="M 628 4666 
L 1259 4666 
L 1259 531 
L 3531 531 
L 3531 0 
L 628 0 
L 628 4666 
z
" transform="scale(0.015625)"/>
       <path id="DejaVuSans-6f" d="M 1959 3097 
Q 1497 3097 1228 2736 
Q 959 2375 959 1747 
Q 959 1119 1226 758 
Q 1494 397 1959 397 
Q 2419 397 2687 759 
Q 2956 1122 2956 1747 
Q 2956 2369 2687 2733 
Q 2419 3097 1959 3097 
z
M 1959 3584 
Q 2709 3584 3137 3096 
Q 3566 2609 3566 1747 
Q 3566 888 3137 398 
Q 2709 -91 1959 -91 
Q 1206 -91 779 398 
Q 353 888 353 1747 
Q 353 2609 779 3096 
Q 1206 3584 1959 3584 
z
" transform="scale(0.015625)"/>
       <path id="DejaVuSans-67" d="M 2906 1791 
Q 2906 2416 2648 2759 
Q 2391 3103 1925 3103 
Q 1463 3103 1205 2759 
Q 947 2416 947 1791 
Q 947 1169 1205 825 
Q 1463 481 1925 481 
Q 2391 481 2648 825 
Q 2906 1169 2906 1791 
z
M 3481 434 
Q 3481 -459 3084 -895 
Q 2688 -1331 1869 -1331 
Q 1566 -1331 1297 -1286 
Q 1028 -1241 775 -1147 
L 775 -588 
Q 1028 -725 1275 -790 
Q 1522 -856 1778 -856 
Q 2344 -856 2625 -561 
Q 2906 -266 2906 331 
L 2906 616 
Q 2728 306 2450 153 
Q 2172 0 1784 0 
Q 1141 0 747 490 
Q 353 981 353 1791 
Q 353 2603 747 3093 
Q 1141 3584 1784 3584 
Q 2172 3584 2450 3431 
Q 2728 3278 2906 2969 
L 2906 3500 
L 3481 3500 
L 3481 434 
z
" transform="scale(0.015625)"/>
       <path id="DejaVuSans-28" d="M 1984 4856 
Q 1566 4138 1362 3434 
Q 1159 2731 1159 2009 
Q 1159 1288 1364 580 
Q 1569 -128 1984 -844 
L 1484 -844 
Q 1016 -109 783 600 
Q 550 1309 550 2009 
Q 550 2706 781 3412 
Q 1013 4119 1484 4856 
L 1984 4856 
z
" transform="scale(0.015625)"/>
       <path id="DejaVuSans-4f" d="M 2522 4238 
Q 1834 4238 1429 3725 
Q 1025 3213 1025 2328 
Q 1025 1447 1429 934 
Q 1834 422 2522 422 
Q 3209 422 3611 934 
Q 4013 1447 4013 2328 
Q 4013 3213 3611 3725 
Q 3209 4238 2522 4238 
z
M 2522 4750 
Q 3503 4750 4090 4092 
Q 4678 3434 4678 2328 
Q 4678 1225 4090 567 
Q 3503 -91 2522 -91 
Q 1538 -91 948 565 
Q 359 1222 359 2328 
Q 359 3434 948 4092 
Q 1538 4750 2522 4750 
z
" transform="scale(0.015625)"/>
       <path id="DejaVuSans-43" d="M 4122 4306 
L 4122 3641 
Q 3803 3938 3442 4084 
Q 3081 4231 2675 4231 
Q 1875 4231 1450 3742 
Q 1025 3253 1025 2328 
Q 1025 1406 1450 917 
Q 1875 428 2675 428 
Q 3081 428 3442 575 
Q 3803 722 4122 1019 
L 4122 359 
Q 3791 134 3420 21 
Q 3050 -91 2638 -91 
Q 1578 -91 968 557 
Q 359 1206 359 2328 
Q 359 3453 968 4101 
Q 1578 4750 2638 4750 
Q 3056 4750 3426 4639 
Q 3797 4528 4122 4306 
z
" transform="scale(0.015625)"/>
       <path id="DejaVuSans-29" d="M 513 4856 
L 1013 4856 
Q 1481 4119 1714 3412 
Q 1947 2706 1947 2009 
Q 1947 1309 1714 600 
Q 1481 -109 1013 -844 
L 513 -844 
Q 928 -128 1133 580 
Q 1338 1288 1338 2009 
Q 1338 2731 1133 3434 
Q 928 4138 513 4856 
z
" transform="scale(0.015625)"/>
       <path id="DejaVuSans-20" transform="scale(0.015625)"/>
       <path id="DejaVuSans-394" d="M 2188 4044 
L 906 525 
L 3472 525 
L 2188 4044 
z
M 50 0 
L 1831 4666 
L 2547 4666 
L 4325 0 
L 50 0 
z
" transform="scale(0.015625)"/>
       <path id="DejaVuSans-74" d="M 1172 4494 
L 1172 3500 
L 2356 3500 
L 2356 3053 
L 1172 3053 
L 1172 1153 
Q 1172 725 1289 603 
Q 1406 481 1766 481 
L 2356 481 
L 2356 0 
L 1766 0 
Q 1100 0 847 248 
Q 594 497 594 1153 
L 594 3053 
L 172 3053 
L 172 3500 
L 594 3500 
L 594 4494 
L 1172 4494 
z
" transform="scale(0.015625)"/>
      </defs>
      <use xlink:href="#DejaVuSans-4c"/>
      <use xlink:href="#DejaVuSans-6f" x="53.962891"/>
      <use xlink:href="#DejaVuSans-67" x="115.144531"/>
      <use xlink:href="#DejaVuSans-31" x="178.621094"/>
      <use xlink:href="#DejaVuSans-30" x="242.244141"/>
      <use xlink:href="#DejaVuSans-28" x="305.867188"/>
      <use xlink:href="#DejaVuSans-53" x="344.880859"/>
      <use xlink:href="#DejaVuSans-4f" x="408.357422"/>
      <use xlink:href="#DejaVuSans-43" x="487.068359"/>
      <use xlink:href="#DejaVuSans-53" x="556.892578"/>
      <use xlink:href="#DejaVuSans-31" x="620.369141"/>
      <use xlink:href="#DejaVuSans-29" x="683.992188"/>
      <use xlink:href="#DejaVuSans-20" x="723.005859"/>
      <use xlink:href="#DejaVuSans-28" x="754.792969"/>
      <use xlink:href="#DejaVuSans-394" x="793.806641"/>
      <use xlink:href="#DejaVuSans-29" x="862.214844"/>
      <use xlink:href="#DejaVuSans-43" x="901.228516"/>
      <use xlink:href="#DejaVuSans-74" x="971.052734"/>
     </g>
    </g>
   </g>
   <g id="LineCollection_1">
    <path d="M 114.045455 167.662359 
L 114.045455 61.675713 
" clip-path="url(#p518deb39a4)" style="fill: none; stroke: #000000; stroke-width: 2"/>
   </g>
   <g id="line2d_11">
    <defs>
     <path id="m2f8e09606d" d="M 10 0 
L -10 -0 
" style="stroke: #000000; stroke-width: 2"/>
    </defs>
    <g clip-path="url(#p518deb39a4)">
     <use xlink:href="#m2f8e09606d" x="114.045455" y="167.662359" style="stroke: #000000; stroke-width: 2"/>
    </g>
   </g>
   <g id="line2d_12">
    <g clip-path="url(#p518deb39a4)">
     <use xlink:href="#m2f8e09606d" x="114.045455" y="61.675713" style="stroke: #000000; stroke-width: 2"/>
    </g>
   </g>
   <g id="LineCollection_2">
    <path d="M 254.954545 184.257095 
L 254.954545 65.211943 
" clip-path="url(#p518deb39a4)" style="fill: none; stroke: #000000; stroke-width: 2"/>
   </g>
   <g id="line2d_13">
    <g clip-path="url(#p518deb39a4)">
     <use xlink:href="#m2f8e09606d" x="254.954545" y="184.257095" style="stroke: #000000; stroke-width: 2"/>
    </g>
   </g>
   <g id="line2d_14">
    <g clip-path="url(#p518deb39a4)">
     <use xlink:href="#m2f8e09606d" x="254.954545" y="65.211943" style="stroke: #000000; stroke-width: 2"/>
    </g>
   </g>
   <g id="LineCollection_3">
    <path d="M 57.681818 114.669036 
L 170.409091 114.669036 
" clip-path="url(#p518deb39a4)" style="fill: none; stroke: #000000; stroke-width: 1.5"/>
   </g>
   <g id="LineCollection_4">
    <path d="M 198.590909 124.734519 
L 311.318182 124.734519 
" clip-path="url(#p518deb39a4)" style="fill: none; stroke: #000000; stroke-width: 1.5"/>
   </g>
   <g id="patch_3">
    <path d="M 45 320.4 
L 45 43.2 
" style="fill: none; stroke: #000000; stroke-width: 0.8; stroke-linejoin: miter; stroke-linecap: square"/>
   </g>
   <g id="patch_4">
    <path d="M 45 320.4 
L 324 320.4 
" style="fill: none; stroke: #000000; stroke-width: 0.8; stroke-linejoin: miter; stroke-linecap: square"/>
   </g>
   <g id="text_13">
    <!-- Gene Expression of SOCS1 by Sex and AT -->
    <g transform="translate(59.717813 37.2) scale(0.12 -0.12)">
     <defs>
      <path id="DejaVuSans-47" d="M 3809 666 
L 3809 1919 
L 2778 1919 
L 2778 2438 
L 4434 2438 
L 4434 434 
Q 4069 175 3628 42 
Q 3188 -91 2688 -91 
Q 1594 -91 976 548 
Q 359 1188 359 2328 
Q 359 3472 976 4111 
Q 1594 4750 2688 4750 
Q 3144 4750 3555 4637 
Q 3966 4525 4313 4306 
L 4313 3634 
Q 3963 3931 3569 4081 
Q 3175 4231 2741 4231 
Q 1884 4231 1454 3753 
Q 1025 3275 1025 2328 
Q 1025 1384 1454 906 
Q 1884 428 2741 428 
Q 3075 428 3337 486 
Q 3600 544 3809 666 
z
" transform="scale(0.015625)"/>
      <path id="DejaVuSans-6e" d="M 3513 2113 
L 3513 0 
L 2938 0 
L 2938 2094 
Q 2938 2591 2744 2837 
Q 2550 3084 2163 3084 
Q 1697 3084 1428 2787 
Q 1159 2491 1159 1978 
L 1159 0 
L 581 0 
L 581 3500 
L 1159 3500 
L 1159 2956 
Q 1366 3272 1645 3428 
Q 1925 3584 2291 3584 
Q 2894 3584 3203 3211 
Q 3513 2838 3513 2113 
z
" transform="scale(0.015625)"/>
      <path id="DejaVuSans-45" d="M 628 4666 
L 3578 4666 
L 3578 4134 
L 1259 4134 
L 1259 2753 
L 3481 2753 
L 3481 2222 
L 1259 2222 
L 1259 531 
L 3634 531 
L 3634 0 
L 628 0 
L 628 4666 
z
" transform="scale(0.015625)"/>
      <path id="DejaVuSans-70" d="M 1159 525 
L 1159 -1331 
L 581 -1331 
L 581 3500 
L 1159 3500 
L 1159 2969 
Q 1341 3281 1617 3432 
Q 1894 3584 2278 3584 
Q 2916 3584 3314 3078 
Q 3713 2572 3713 1747 
Q 3713 922 3314 415 
Q 2916 -91 2278 -91 
Q 1894 -91 1617 61 
Q 1341 213 1159 525 
z
M 3116 1747 
Q 3116 2381 2855 2742 
Q 2594 3103 2138 3103 
Q 1681 3103 1420 2742 
Q 1159 2381 1159 1747 
Q 1159 1113 1420 752 
Q 1681 391 2138 391 
Q 2594 391 2855 752 
Q 3116 1113 3116 1747 
z
" transform="scale(0.015625)"/>
      <path id="DejaVuSans-72" d="M 2631 2963 
Q 2534 3019 2420 3045 
Q 2306 3072 2169 3072 
Q 1681 3072 1420 2755 
Q 1159 2438 1159 1844 
L 1159 0 
L 581 0 
L 581 3500 
L 1159 3500 
L 1159 2956 
Q 1341 3275 1631 3429 
Q 1922 3584 2338 3584 
Q 2397 3584 2469 3576 
Q 2541 3569 2628 3553 
L 2631 2963 
z
" transform="scale(0.015625)"/>
      <path id="DejaVuSans-73" d="M 2834 3397 
L 2834 2853 
Q 2591 2978 2328 3040 
Q 2066 3103 1784 3103 
Q 1356 3103 1142 2972 
Q 928 2841 928 2578 
Q 928 2378 1081 2264 
Q 1234 2150 1697 2047 
L 1894 2003 
Q 2506 1872 2764 1633 
Q 3022 1394 3022 966 
Q 3022 478 2636 193 
Q 2250 -91 1575 -91 
Q 1294 -91 989 -36 
Q 684 19 347 128 
L 347 722 
Q 666 556 975 473 
Q 1284 391 1588 391 
Q 1994 391 2212 530 
Q 2431 669 2431 922 
Q 2431 1156 2273 1281 
Q 2116 1406 1581 1522 
L 1381 1569 
Q 847 1681 609 1914 
Q 372 2147 372 2553 
Q 372 3047 722 3315 
Q 1072 3584 1716 3584 
Q 2034 3584 2315 3537 
Q 2597 3491 2834 3397 
z
" transform="scale(0.015625)"/>
      <path id="DejaVuSans-69" d="M 603 3500 
L 1178 3500 
L 1178 0 
L 603 0 
L 603 3500 
z
M 603 4863 
L 1178 4863 
L 1178 4134 
L 603 4134 
L 603 4863 
z
" transform="scale(0.015625)"/>
      <path id="DejaVuSans-66" d="M 2375 4863 
L 2375 4384 
L 1825 4384 
Q 1516 4384 1395 4259 
Q 1275 4134 1275 3809 
L 1275 3500 
L 2222 3500 
L 2222 3053 
L 1275 3053 
L 1275 0 
L 697 0 
L 697 3053 
L 147 3053 
L 147 3500 
L 697 3500 
L 697 3744 
Q 697 4328 969 4595 
Q 1241 4863 1831 4863 
L 2375 4863 
z
" transform="scale(0.015625)"/>
      <path id="DejaVuSans-62" d="M 3116 1747 
Q 3116 2381 2855 2742 
Q 2594 3103 2138 3103 
Q 1681 3103 1420 2742 
Q 1159 2381 1159 1747 
Q 1159 1113 1420 752 
Q 1681 391 2138 391 
Q 2594 391 2855 752 
Q 3116 1113 3116 1747 
z
M 1159 2969 
Q 1341 3281 1617 3432 
Q 1894 3584 2278 3584 
Q 2916 3584 3314 3078 
Q 3713 2572 3713 1747 
Q 3713 922 3314 415 
Q 2916 -91 2278 -91 
Q 1894 -91 1617 61 
Q 1341 213 1159 525 
L 1159 0 
L 581 0 
L 581 4863 
L 1159 4863 
L 1159 2969 
z
" transform="scale(0.015625)"/>
      <path id="DejaVuSans-79" d="M 2059 -325 
Q 1816 -950 1584 -1140 
Q 1353 -1331 966 -1331 
L 506 -1331 
L 506 -850 
L 844 -850 
Q 1081 -850 1212 -737 
Q 1344 -625 1503 -206 
L 1606 56 
L 191 3500 
L 800 3500 
L 1894 763 
L 2988 3500 
L 3597 3500 
L 2059 -325 
z
" transform="scale(0.015625)"/>
      <path id="DejaVuSans-64" d="M 2906 2969 
L 2906 4863 
L 3481 4863 
L 3481 0 
L 2906 0 
L 2906 525 
Q 2725 213 2448 61 
Q 2172 -91 1784 -91 
Q 1150 -91 751 415 
Q 353 922 353 1747 
Q 353 2572 751 3078 
Q 1150 3584 1784 3584 
Q 2172 3584 2448 3432 
Q 2725 3281 2906 2969 
z
M 947 1747 
Q 947 1113 1208 752 
Q 1469 391 1925 391 
Q 2381 391 2643 752 
Q 2906 1113 2906 1747 
Q 2906 2381 2643 2742 
Q 2381 3103 1925 3103 
Q 1469 3103 1208 2742 
Q 947 2381 947 1747 
z
" transform="scale(0.015625)"/>
      <path id="DejaVuSans-41" d="M 2188 4044 
L 1331 1722 
L 3047 1722 
L 2188 4044 
z
M 1831 4666 
L 2547 4666 
L 4325 0 
L 3669 0 
L 3244 1197 
L 1141 1197 
L 716 0 
L 50 0 
L 1831 4666 
z
" transform="scale(0.015625)"/>
      <path id="DejaVuSans-54" d="M -19 4666 
L 3928 4666 
L 3928 4134 
L 2272 4134 
L 2272 0 
L 1638 0 
L 1638 4134 
L -19 4134 
L -19 4666 
z
" transform="scale(0.015625)"/>
     </defs>
     <use xlink:href="#DejaVuSans-47"/>
     <use xlink:href="#DejaVuSans-65" x="77.490234"/>
     <use xlink:href="#DejaVuSans-6e" x="139.013672"/>
     <use xlink:href="#DejaVuSans-65" x="202.392578"/>
     <use xlink:href="#DejaVuSans-20" x="263.916016"/>
     <use xlink:href="#DejaVuSans-45" x="295.703125"/>
     <use xlink:href="#DejaVuSans-78" x="358.886719"/>
     <use xlink:href="#DejaVuSans-70" x="418.066406"/>
     <use xlink:href="#DejaVuSans-72" x="481.542969"/>
     <use xlink:href="#DejaVuSans-65" x="520.40625"/>
     <use xlink:href="#DejaVuSans-73" x="581.929688"/>
     <use xlink:href="#DejaVuSans-73" x="634.029297"/>
     <use xlink:href="#DejaVuSans-69" x="686.128906"/>
     <use xlink:href="#DejaVuSans-6f" x="713.912109"/>
     <use xlink:href="#DejaVuSans-6e" x="775.09375"/>
     <use xlink:href="#DejaVuSans-20" x="838.472656"/>
     <use xlink:href="#DejaVuSans-6f" x="870.259766"/>
     <use xlink:href="#DejaVuSans-66" x="931.441406"/>
     <use xlink:href="#DejaVuSans-20" x="966.646484"/>
     <use xlink:href="#DejaVuSans-53" x="998.433594"/>
     <use xlink:href="#DejaVuSans-4f" x="1061.910156"/>
     <use xlink:href="#DejaVuSans-43" x="1140.621094"/>
     <use xlink:href="#DejaVuSans-53" x="1210.445312"/>
     <use xlink:href="#DejaVuSans-31" x="1273.921875"/>
     <use xlink:href="#DejaVuSans-20" x="1337.544922"/>
     <use xlink:href="#DejaVuSans-62" x="1369.332031"/>
     <use xlink:href="#DejaVuSans-79" x="1432.808594"/>
     <use xlink:href="#DejaVuSans-20" x="1491.988281"/>
     <use xlink:href="#DejaVuSans-53" x="1523.775391"/>
     <use xlink:href="#DejaVuSans-65" x="1587.251953"/>
     <use xlink:href="#DejaVuSans-78" x="1647.025391"/>
     <use xlink:href="#DejaVuSans-20" x="1706.205078"/>
     <use xlink:href="#DejaVuSans-61" x="1737.992188"/>
     <use xlink:href="#DejaVuSans-6e" x="1799.271484"/>
     <use xlink:href="#DejaVuSans-64" x="1862.650391"/>
     <use xlink:href="#DejaVuSans-20" x="1926.126953"/>
     <use xlink:href="#DejaVuSans-41" x="1957.914062"/>
     <use xlink:href="#DejaVuSans-54" x="2018.572266"/>
    </g>
   </g>
   <g id="patch_5">
    <path d="M 145.992969 65.878125 
L 223.007031 65.878125 
L 223.007031 48.2 
L 145.992969 48.2 
z
" style="fill: #ffffff; stroke: #000000; stroke-linejoin: miter"/>
   </g>
   <g id="text_14">
    <!-- p = 4.18e-01  -->
    <g transform="translate(149.992969 59.798437) scale(0.1 -0.1)">
     <defs>
      <path id="DejaVuSans-3d" d="M 678 2906 
L 4684 2906 
L 4684 2381 
L 678 2381 
L 678 2906 
z
M 678 1631 
L 4684 1631 
L 4684 1100 
L 678 1100 
L 678 1631 
z
" transform="scale(0.015625)"/>
      <path id="DejaVuSans-2e" d="M 684 794 
L 1344 794 
L 1344 0 
L 684 0 
L 684 794 
z
" transform="scale(0.015625)"/>
      <path id="DejaVuSans-38" d="M 2034 2216 
Q 1584 2216 1326 1975 
Q 1069 1734 1069 1313 
Q 1069 891 1326 650 
Q 1584 409 2034 409 
Q 2484 409 2743 651 
Q 3003 894 3003 1313 
Q 3003 1734 2745 1975 
Q 2488 2216 2034 2216 
z
M 1403 2484 
Q 997 2584 770 2862 
Q 544 3141 544 3541 
Q 544 4100 942 4425 
Q 1341 4750 2034 4750 
Q 2731 4750 3128 4425 
Q 3525 4100 3525 3541 
Q 3525 3141 3298 2862 
Q 3072 2584 2669 2484 
Q 3125 2378 3379 2068 
Q 3634 1759 3634 1313 
Q 3634 634 3220 271 
Q 2806 -91 2034 -91 
Q 1263 -91 848 271 
Q 434 634 434 1313 
Q 434 1759 690 2068 
Q 947 2378 1403 2484 
z
M 1172 3481 
Q 1172 3119 1398 2916 
Q 1625 2713 2034 2713 
Q 2441 2713 2670 2916 
Q 2900 3119 2900 3481 
Q 2900 3844 2670 4047 
Q 2441 4250 2034 4250 
Q 1625 4250 1398 4047 
Q 1172 3844 1172 3481 
z
" transform="scale(0.015625)"/>
      <path id="DejaVuSans-2d" d="M 313 2009 
L 1997 2009 
L 1997 1497 
L 313 1497 
L 313 2009 
z
" transform="scale(0.015625)"/>
     </defs>
     <use xlink:href="#DejaVuSans-70"/>
     <use xlink:href="#DejaVuSans-20" x="63.476562"/>
     <use xlink:href="#DejaVuSans-3d" x="95.263672"/>
     <use xlink:href="#DejaVuSans-20" x="179.052734"/>
     <use xlink:href="#DejaVuSans-34" x="210.839844"/>
     <use xlink:href="#DejaVuSans-2e" x="274.462891"/>
     <use xlink:href="#DejaVuSans-31" x="306.25"/>
     <use xlink:href="#DejaVuSans-38" x="369.873047"/>
     <use xlink:href="#DejaVuSans-65" x="433.496094"/>
     <use xlink:href="#DejaVuSans-2d" x="495.019531"/>
     <use xlink:href="#DejaVuSans-30" x="531.103516"/>
     <use xlink:href="#DejaVuSans-31" x="594.726562"/>
     <use xlink:href="#DejaVuSans-20" x="658.349609"/>
    </g>
   </g>
   <g id="legend_1">
    <g id="patch_6">
     <path d="M 150.422656 315.4 
L 218.577344 315.4 
Q 220.577344 315.4 220.577344 313.4 
L 220.577344 270.365625 
Q 220.577344 268.365625 218.577344 268.365625 
L 150.422656 268.365625 
Q 148.422656 268.365625 148.422656 270.365625 
L 148.422656 313.4 
Q 148.422656 315.4 150.422656 315.4 
z
" style="fill: #ffffff; opacity: 0.8; stroke: #cccccc; stroke-linejoin: miter"/>
    </g>
    <g id="text_15">
     <!-- Sex -->
     <g transform="translate(175.377344 279.964063) scale(0.1 -0.1)">
      <use xlink:href="#DejaVuSans-53"/>
      <use xlink:href="#DejaVuSans-65" x="63.476562"/>
      <use xlink:href="#DejaVuSans-78" x="123.25"/>
     </g>
    </g>
    <g id="PathCollection_5">
     <defs>
      <path id="mb3ba280007" d="M 0 3 
C 0.795609 3 1.55874 2.683901 2.12132 2.12132 
C 2.683901 1.55874 3 0.795609 3 0 
C 3 -0.795609 2.683901 -1.55874 2.12132 -2.12132 
C 1.55874 -2.683901 0.795609 -3 0 -3 
C -0.795609 -3 -1.55874 -2.683901 -2.12132 -2.12132 
C -2.683901 -1.55874 -3 -0.795609 -3 0 
C -3 0.795609 -2.683901 1.55874 -2.12132 2.12132 
C -1.55874 2.683901 -0.795609 3 0 3 
z
" style="stroke: #800080"/>
     </defs>
     <g>
      <use xlink:href="#mb3ba280007" x="162.422656" y="292.017187" style="fill: #800080; stroke: #800080"/>
     </g>
    </g>
    <g id="text_16">
     <!-- Female -->
     <g transform="translate(180.422656 294.642187) scale(0.1 -0.1)">
      <use xlink:href="#DejaVuSans-46"/>
      <use xlink:href="#DejaVuSans-65" x="52.019531"/>
      <use xlink:href="#DejaVuSans-6d" x="113.542969"/>
      <use xlink:href="#DejaVuSans-61" x="210.955078"/>
      <use xlink:href="#DejaVuSans-6c" x="272.234375"/>
      <use xlink:href="#DejaVuSans-65" x="300.017578"/>
     </g>
    </g>
    <g id="PathCollection_6">
     <defs>
      <path id="mb1acff5d51" d="M 0 3 
C 0.795609 3 1.55874 2.683901 2.12132 2.12132 
C 2.683901 1.55874 3 0.795609 3 0 
C 3 -0.795609 2.683901 -1.55874 2.12132 -2.12132 
C 1.55874 -2.683901 0.795609 -3 0 -3 
C -0.795609 -3 -1.55874 -2.683901 -2.12132 -2.12132 
C -2.683901 -1.55874 -3 -0.795609 -3 0 
C -3 0.795609 -2.683901 1.55874 -2.12132 2.12132 
C -1.55874 2.683901 -0.795609 3 0 3 
z
" style="stroke: #008000"/>
     </defs>
     <g>
      <use xlink:href="#mb1acff5d51" x="162.422656" y="306.695312" style="fill: #008000; stroke: #008000"/>
     </g>
    </g>
    <g id="text_17">
     <!-- Male -->
     <g transform="translate(180.422656 309.320312) scale(0.1 -0.1)">
      <use xlink:href="#DejaVuSans-4d"/>
      <use xlink:href="#DejaVuSans-61" x="86.279297"/>
      <use xlink:href="#DejaVuSans-6c" x="147.558594"/>
      <use xlink:href="#DejaVuSans-65" x="175.341797"/>
     </g>
    </g>
   </g>
  </g>
 </g>
 <defs>
  <clipPath id="p518deb39a4">
   <rect x="45" y="43.2" width="279" height="277.2"/>
  </clipPath>
 </defs>
</svg>
