<?xml version="1.0" encoding="utf-8" standalone="no"?>
<!DOCTYPE svg PUBLIC "-//W3C//DTD SVG 1.1//EN"
  "http://www.w3.org/Graphics/SVG/1.1/DTD/svg11.dtd">
<svg xmlns:xlink="http://www.w3.org/1999/xlink" width="382.547794pt" height="241.491397pt" viewBox="0 0 382.547794 241.491397" xmlns="http://www.w3.org/2000/svg" version="1.1">
 <metadata>
  <rdf:RDF xmlns:dc="http://purl.org/dc/elements/1.1/" xmlns:cc="http://creativecommons.org/ns#" xmlns:rdf="http://www.w3.org/1999/02/22-rdf-syntax-ns#">
   <cc:Work>
    <dc:type rdf:resource="http://purl.org/dc/dcmitype/StillImage"/>
    <dc:date>2025-03-03T14:48:58.890822</dc:date>
    <dc:format>image/svg+xml</dc:format>
    <dc:creator>
     <cc:Agent>
      <dc:title>Matplotlib v3.10.0, https://matplotlib.org/</dc:title>
     </cc:Agent>
    </dc:creator>
   </cc:Work>
  </rdf:RDF>
 </metadata>
 <defs>
  <style type="text/css">*{stroke-linejoin: round; stroke-linecap: butt}</style>
 </defs>
 <g id="figure_1">
  <g id="patch_1">
   <path d="M 0 241.491397 
L 382.547794 241.491397 
L 382.547794 0 
L 0 0 
z
" style="fill: #ffffff"/>
  </g>
  <g id="axes_1">
   <g id="patch_2">
    <path d="M 47.1125 186.514522 
L 189.823497 186.514522 
L 189.823497 43.803525 
L 47.1125 43.803525 
z
" style="fill: #ffffff"/>
   </g>
   <g id="matplotlib.axis_1">
    <g id="xtick_1">
     <g id="line2d_1">
      <defs>
       <path id="maac267c465" d="M 0 0 
L 0 3.5 
" style="stroke: #000000; stroke-width: 0.8"/>
      </defs>
      <g>
       <use xlink:href="#maac267c465" x="53.599364" y="186.514522" style="stroke: #000000; stroke-width: 0.8"/>
      </g>
     </g>
     <g id="text_1">
      <!-- 0 -->
      <g transform="translate(47.873114 207.19171) scale(0.18 -0.18)">
       <defs>
        <path id="DejaVuSans-30" d="M 2034 4250 
Q 1547 4250 1301 3770 
Q 1056 3291 1056 2328 
Q 1056 1369 1301 889 
Q 1547 409 2034 409 
Q 2525 409 2770 889 
Q 3016 1369 3016 2328 
Q 3016 3291 2770 3770 
Q 2525 4250 2034 4250 
z
M 2034 4750 
Q 2819 4750 3233 4129 
Q 3647 3509 3647 2328 
Q 3647 1150 3233 529 
Q 2819 -91 2034 -91 
Q 1250 -91 836 529 
Q 422 1150 422 2328 
Q 422 3509 836 4129 
Q 1250 4750 2034 4750 
z
" transform="scale(0.015625)"/>
       </defs>
       <use xlink:href="#DejaVuSans-30"/>
      </g>
     </g>
    </g>
    <g id="xtick_2">
     <g id="line2d_2">
      <g>
       <use xlink:href="#maac267c465" x="86.033681" y="186.514522" style="stroke: #000000; stroke-width: 0.8"/>
      </g>
     </g>
     <g id="text_2">
      <!-- 2 -->
      <g transform="translate(80.307431 207.19171) scale(0.18 -0.18)">
       <defs>
        <path id="DejaVuSans-32" d="M 1228 531 
L 3431 531 
L 3431 0 
L 469 0 
L 469 531 
Q 828 903 1448 1529 
Q 2069 2156 2228 2338 
Q 2531 2678 2651 2914 
Q 2772 3150 2772 3378 
Q 2772 3750 2511 3984 
Q 2250 4219 1831 4219 
Q 1534 4219 1204 4116 
Q 875 4013 500 3803 
L 500 4441 
Q 881 4594 1212 4672 
Q 1544 4750 1819 4750 
Q 2544 4750 2975 4387 
Q 3406 4025 3406 3419 
Q 3406 3131 3298 2873 
Q 3191 2616 2906 2266 
Q 2828 2175 2409 1742 
Q 1991 1309 1228 531 
z
" transform="scale(0.015625)"/>
       </defs>
       <use xlink:href="#DejaVuSans-32"/>
      </g>
     </g>
    </g>
    <g id="xtick_3">
     <g id="line2d_3">
      <g>
       <use xlink:href="#maac267c465" x="118.467999" y="186.514522" style="stroke: #000000; stroke-width: 0.8"/>
      </g>
     </g>
     <g id="text_3">
      <!-- 4 -->
      <g transform="translate(112.741749 207.19171) scale(0.18 -0.18)">
       <defs>
        <path id="DejaVuSans-34" d="M 2419 4116 
L 825 1625 
L 2419 1625 
L 2419 4116 
z
M 2253 4666 
L 3047 4666 
L 3047 1625 
L 3713 1625 
L 3713 1100 
L 3047 1100 
L 3047 0 
L 2419 0 
L 2419 1100 
L 313 1100 
L 313 1709 
L 2253 4666 
z
" transform="scale(0.015625)"/>
       </defs>
       <use xlink:href="#DejaVuSans-34"/>
      </g>
     </g>
    </g>
    <g id="xtick_4">
     <g id="line2d_4">
      <g>
       <use xlink:href="#maac267c465" x="150.902316" y="186.514522" style="stroke: #000000; stroke-width: 0.8"/>
      </g>
     </g>
     <g id="text_4">
      <!-- 6 -->
      <g transform="translate(145.176066 207.19171) scale(0.18 -0.18)">
       <defs>
        <path id="DejaVuSans-36" d="M 2113 2584 
Q 1688 2584 1439 2293 
Q 1191 2003 1191 1497 
Q 1191 994 1439 701 
Q 1688 409 2113 409 
Q 2538 409 2786 701 
Q 3034 994 3034 1497 
Q 3034 2003 2786 2293 
Q 2538 2584 2113 2584 
z
M 3366 4563 
L 3366 3988 
Q 3128 4100 2886 4159 
Q 2644 4219 2406 4219 
Q 1781 4219 1451 3797 
Q 1122 3375 1075 2522 
Q 1259 2794 1537 2939 
Q 1816 3084 2150 3084 
Q 2853 3084 3261 2657 
Q 3669 2231 3669 1497 
Q 3669 778 3244 343 
Q 2819 -91 2113 -91 
Q 1303 -91 875 529 
Q 447 1150 447 2328 
Q 447 3434 972 4092 
Q 1497 4750 2381 4750 
Q 2619 4750 2861 4703 
Q 3103 4656 3366 4563 
z
" transform="scale(0.015625)"/>
       </defs>
       <use xlink:href="#DejaVuSans-36"/>
      </g>
     </g>
    </g>
    <g id="xtick_5">
     <g id="line2d_5">
      <g>
       <use xlink:href="#maac267c465" x="183.336634" y="186.514522" style="stroke: #000000; stroke-width: 0.8"/>
      </g>
     </g>
     <g id="text_5">
      <!-- 8 -->
      <g transform="translate(177.610384 207.19171) scale(0.18 -0.18)">
       <defs>
        <path id="DejaVuSans-38" d="M 2034 2216 
Q 1584 2216 1326 1975 
Q 1069 1734 1069 1313 
Q 1069 891 1326 650 
Q 1584 409 2034 409 
Q 2484 409 2743 651 
Q 3003 894 3003 1313 
Q 3003 1734 2745 1975 
Q 2488 2216 2034 2216 
z
M 1403 2484 
Q 997 2584 770 2862 
Q 544 3141 544 3541 
Q 544 4100 942 4425 
Q 1341 4750 2034 4750 
Q 2731 4750 3128 4425 
Q 3525 4100 3525 3541 
Q 3525 3141 3298 2862 
Q 3072 2584 2669 2484 
Q 3125 2378 3379 2068 
Q 3634 1759 3634 1313 
Q 3634 634 3220 271 
Q 2806 -91 2034 -91 
Q 1263 -91 848 271 
Q 434 634 434 1313 
Q 434 1759 690 2068 
Q 947 2378 1403 2484 
z
M 1172 3481 
Q 1172 3119 1398 2916 
Q 1625 2713 2034 2713 
Q 2441 2713 2670 2916 
Q 2900 3119 2900 3481 
Q 2900 3844 2670 4047 
Q 2441 4250 2034 4250 
Q 1625 4250 1398 4047 
Q 1172 3844 1172 3481 
z
" transform="scale(0.015625)"/>
       </defs>
       <use xlink:href="#DejaVuSans-38"/>
      </g>
     </g>
    </g>
    <g id="text_6">
     <!-- Time (d) -->
     <g transform="translate(76.671124 230.132022) scale(0.2 -0.2)">
      <defs>
       <path id="DejaVuSans-54" d="M -19 4666 
L 3928 4666 
L 3928 4134 
L 2272 4134 
L 2272 0 
L 1638 0 
L 1638 4134 
L -19 4134 
L -19 4666 
z
" transform="scale(0.015625)"/>
       <path id="DejaVuSans-69" d="M 603 3500 
L 1178 3500 
L 1178 0 
L 603 0 
L 603 3500 
z
M 603 4863 
L 1178 4863 
L 1178 4134 
L 603 4134 
L 603 4863 
z
" transform="scale(0.015625)"/>
       <path id="DejaVuSans-6d" d="M 3328 2828 
Q 3544 3216 3844 3400 
Q 4144 3584 4550 3584 
Q 5097 3584 5394 3201 
Q 5691 2819 5691 2113 
L 5691 0 
L 5113 0 
L 5113 2094 
Q 5113 2597 4934 2840 
Q 4756 3084 4391 3084 
Q 3944 3084 3684 2787 
Q 3425 2491 3425 1978 
L 3425 0 
L 2847 0 
L 2847 2094 
Q 2847 2600 2669 2842 
Q 2491 3084 2119 3084 
Q 1678 3084 1418 2786 
Q 1159 2488 1159 1978 
L 1159 0 
L 581 0 
L 581 3500 
L 1159 3500 
L 1159 2956 
Q 1356 3278 1631 3431 
Q 1906 3584 2284 3584 
Q 2666 3584 2933 3390 
Q 3200 3197 3328 2828 
z
" transform="scale(0.015625)"/>
       <path id="DejaVuSans-65" d="M 3597 1894 
L 3597 1613 
L 953 1613 
Q 991 1019 1311 708 
Q 1631 397 2203 397 
Q 2534 397 2845 478 
Q 3156 559 3463 722 
L 3463 178 
Q 3153 47 2828 -22 
Q 2503 -91 2169 -91 
Q 1331 -91 842 396 
Q 353 884 353 1716 
Q 353 2575 817 3079 
Q 1281 3584 2069 3584 
Q 2775 3584 3186 3129 
Q 3597 2675 3597 1894 
z
M 3022 2063 
Q 3016 2534 2758 2815 
Q 2500 3097 2075 3097 
Q 1594 3097 1305 2825 
Q 1016 2553 972 2059 
L 3022 2063 
z
" transform="scale(0.015625)"/>
       <path id="DejaVuSans-20" transform="scale(0.015625)"/>
       <path id="DejaVuSans-28" d="M 1984 4856 
Q 1566 4138 1362 3434 
Q 1159 2731 1159 2009 
Q 1159 1288 1364 580 
Q 1569 -128 1984 -844 
L 1484 -844 
Q 1016 -109 783 600 
Q 550 1309 550 2009 
Q 550 2706 781 3412 
Q 1013 4119 1484 4856 
L 1984 4856 
z
" transform="scale(0.015625)"/>
       <path id="DejaVuSans-64" d="M 2906 2969 
L 2906 4863 
L 3481 4863 
L 3481 0 
L 2906 0 
L 2906 525 
Q 2725 213 2448 61 
Q 2172 -91 1784 -91 
Q 1150 -91 751 415 
Q 353 922 353 1747 
Q 353 2572 751 3078 
Q 1150 3584 1784 3584 
Q 2172 3584 2448 3432 
Q 2725 3281 2906 2969 
z
M 947 1747 
Q 947 1113 1208 752 
Q 1469 391 1925 391 
Q 2381 391 2643 752 
Q 2906 1113 2906 1747 
Q 2906 2381 2643 2742 
Q 2381 3103 1925 3103 
Q 1469 3103 1208 2742 
Q 947 2381 947 1747 
z
" transform="scale(0.015625)"/>
       <path id="DejaVuSans-29" d="M 513 4856 
L 1013 4856 
Q 1481 4119 1714 3412 
Q 1947 2706 1947 2009 
Q 1947 1309 1714 600 
Q 1481 -109 1013 -844 
L 513 -844 
Q 928 -128 1133 580 
Q 1338 1288 1338 2009 
Q 1338 2731 1133 3434 
Q 928 4138 513 4856 
z
" transform="scale(0.015625)"/>
      </defs>
      <use xlink:href="#DejaVuSans-54"/>
      <use xlink:href="#DejaVuSans-69" transform="translate(57.958984 0)"/>
      <use xlink:href="#DejaVuSans-6d" transform="translate(85.742188 0)"/>
      <use xlink:href="#DejaVuSans-65" transform="translate(183.154297 0)"/>
      <use xlink:href="#DejaVuSans-20" transform="translate(244.677734 0)"/>
      <use xlink:href="#DejaVuSans-28" transform="translate(276.464844 0)"/>
      <use xlink:href="#DejaVuSans-64" transform="translate(315.478516 0)"/>
      <use xlink:href="#DejaVuSans-29" transform="translate(378.955078 0)"/>
     </g>
    </g>
   </g>
   <g id="matplotlib.axis_2">
    <g id="ytick_1">
     <g id="line2d_6">
      <defs>
       <path id="ma94465bffd" d="M 0 0 
L -3.5 0 
" style="stroke: #000000; stroke-width: 0.8"/>
      </defs>
      <g>
       <use xlink:href="#ma94465bffd" x="47.1125" y="186.514522" style="stroke: #000000; stroke-width: 0.8"/>
      </g>
     </g>
     <g id="text_7">
      <!-- 0 -->
      <g transform="translate(28.66 193.353116) scale(0.18 -0.18)">
       <use xlink:href="#DejaVuSans-30"/>
      </g>
     </g>
    </g>
    <g id="ytick_2">
     <g id="line2d_7">
      <g>
       <use xlink:href="#ma94465bffd" x="47.1125" y="168.675647" style="stroke: #000000; stroke-width: 0.8"/>
      </g>
     </g>
     <g id="text_8">
      <!-- 1 -->
      <g transform="translate(28.66 175.514241) scale(0.18 -0.18)">
       <defs>
        <path id="DejaVuSans-31" d="M 794 531 
L 1825 531 
L 1825 4091 
L 703 3866 
L 703 4441 
L 1819 4666 
L 2450 4666 
L 2450 531 
L 3481 531 
L 3481 0 
L 794 0 
L 794 531 
z
" transform="scale(0.015625)"/>
       </defs>
       <use xlink:href="#DejaVuSans-31"/>
      </g>
     </g>
    </g>
    <g id="ytick_3">
     <g id="line2d_8">
      <g>
       <use xlink:href="#ma94465bffd" x="47.1125" y="150.836773" style="stroke: #000000; stroke-width: 0.8"/>
      </g>
     </g>
     <g id="text_9">
      <!-- 2 -->
      <g transform="translate(28.66 157.675366) scale(0.18 -0.18)">
       <use xlink:href="#DejaVuSans-32"/>
      </g>
     </g>
    </g>
    <g id="ytick_4">
     <g id="line2d_9">
      <g>
       <use xlink:href="#ma94465bffd" x="47.1125" y="132.997898" style="stroke: #000000; stroke-width: 0.8"/>
      </g>
     </g>
     <g id="text_10">
      <!-- 3 -->
      <g transform="translate(28.66 139.836492) scale(0.18 -0.18)">
       <defs>
        <path id="DejaVuSans-33" d="M 2597 2516 
Q 3050 2419 3304 2112 
Q 3559 1806 3559 1356 
Q 3559 666 3084 287 
Q 2609 -91 1734 -91 
Q 1441 -91 1130 -33 
Q 819 25 488 141 
L 488 750 
Q 750 597 1062 519 
Q 1375 441 1716 441 
Q 2309 441 2620 675 
Q 2931 909 2931 1356 
Q 2931 1769 2642 2001 
Q 2353 2234 1838 2234 
L 1294 2234 
L 1294 2753 
L 1863 2753 
Q 2328 2753 2575 2939 
Q 2822 3125 2822 3475 
Q 2822 3834 2567 4026 
Q 2313 4219 1838 4219 
Q 1578 4219 1281 4162 
Q 984 4106 628 3988 
L 628 4550 
Q 988 4650 1302 4700 
Q 1616 4750 1894 4750 
Q 2613 4750 3031 4423 
Q 3450 4097 3450 3541 
Q 3450 3153 3228 2886 
Q 3006 2619 2597 2516 
z
" transform="scale(0.015625)"/>
       </defs>
       <use xlink:href="#DejaVuSans-33"/>
      </g>
     </g>
    </g>
    <g id="ytick_5">
     <g id="line2d_10">
      <g>
       <use xlink:href="#ma94465bffd" x="47.1125" y="115.159023" style="stroke: #000000; stroke-width: 0.8"/>
      </g>
     </g>
     <g id="text_11">
      <!-- 4 -->
      <g transform="translate(28.66 121.997617) scale(0.18 -0.18)">
       <use xlink:href="#DejaVuSans-34"/>
      </g>
     </g>
    </g>
    <g id="ytick_6">
     <g id="line2d_11">
      <g>
       <use xlink:href="#ma94465bffd" x="47.1125" y="97.320149" style="stroke: #000000; stroke-width: 0.8"/>
      </g>
     </g>
     <g id="text_12">
      <!-- 5 -->
      <g transform="translate(28.66 104.158742) scale(0.18 -0.18)">
       <defs>
        <path id="DejaVuSans-35" d="M 691 4666 
L 3169 4666 
L 3169 4134 
L 1269 4134 
L 1269 2991 
Q 1406 3038 1543 3061 
Q 1681 3084 1819 3084 
Q 2600 3084 3056 2656 
Q 3513 2228 3513 1497 
Q 3513 744 3044 326 
Q 2575 -91 1722 -91 
Q 1428 -91 1123 -41 
Q 819 9 494 109 
L 494 744 
Q 775 591 1075 516 
Q 1375 441 1709 441 
Q 2250 441 2565 725 
Q 2881 1009 2881 1497 
Q 2881 1984 2565 2268 
Q 2250 2553 1709 2553 
Q 1456 2553 1204 2497 
Q 953 2441 691 2322 
L 691 4666 
z
" transform="scale(0.015625)"/>
       </defs>
       <use xlink:href="#DejaVuSans-35"/>
      </g>
     </g>
    </g>
    <g id="ytick_7">
     <g id="line2d_12">
      <g>
       <use xlink:href="#ma94465bffd" x="47.1125" y="79.481274" style="stroke: #000000; stroke-width: 0.8"/>
      </g>
     </g>
     <g id="text_13">
      <!-- 6 -->
      <g transform="translate(28.66 86.319868) scale(0.18 -0.18)">
       <use xlink:href="#DejaVuSans-36"/>
      </g>
     </g>
    </g>
    <g id="ytick_8">
     <g id="line2d_13">
      <g>
       <use xlink:href="#ma94465bffd" x="47.1125" y="61.642399" style="stroke: #000000; stroke-width: 0.8"/>
      </g>
     </g>
     <g id="text_14">
      <!-- 7 -->
      <g transform="translate(28.66 68.480993) scale(0.18 -0.18)">
       <defs>
        <path id="DejaVuSans-37" d="M 525 4666 
L 3525 4666 
L 3525 4397 
L 1831 0 
L 1172 0 
L 2766 4134 
L 525 4134 
L 525 4666 
z
" transform="scale(0.015625)"/>
       </defs>
       <use xlink:href="#DejaVuSans-37"/>
      </g>
     </g>
    </g>
    <g id="ytick_9">
     <g id="line2d_14">
      <g>
       <use xlink:href="#ma94465bffd" x="47.1125" y="43.803525" style="stroke: #000000; stroke-width: 0.8"/>
      </g>
     </g>
     <g id="text_15">
      <!-- 8 -->
      <g transform="translate(28.66 50.642118) scale(0.18 -0.18)">
       <use xlink:href="#DejaVuSans-38"/>
      </g>
     </g>
    </g>
    <g id="text_16">
     <!-- Log$_{10}$ Virus -->
     <g transform="translate(20.88 165.379023) rotate(-90) scale(0.18 -0.18)">
      <defs>
       <path id="DejaVuSans-4c" d="M 628 4666 
L 1259 4666 
L 1259 531 
L 3531 531 
L 3531 0 
L 628 0 
L 628 4666 
z
" transform="scale(0.015625)"/>
       <path id="DejaVuSans-6f" d="M 1959 3097 
Q 1497 3097 1228 2736 
Q 959 2375 959 1747 
Q 959 1119 1226 758 
Q 1494 397 1959 397 
Q 2419 397 2687 759 
Q 2956 1122 2956 1747 
Q 2956 2369 2687 2733 
Q 2419 3097 1959 3097 
z
M 1959 3584 
Q 2709 3584 3137 3096 
Q 3566 2609 3566 1747 
Q 3566 888 3137 398 
Q 2709 -91 1959 -91 
Q 1206 -91 779 398 
Q 353 888 353 1747 
Q 353 2609 779 3096 
Q 1206 3584 1959 3584 
z
" transform="scale(0.015625)"/>
       <path id="DejaVuSans-67" d="M 2906 1791 
Q 2906 2416 2648 2759 
Q 2391 3103 1925 3103 
Q 1463 3103 1205 2759 
Q 947 2416 947 1791 
Q 947 1169 1205 825 
Q 1463 481 1925 481 
Q 2391 481 2648 825 
Q 2906 1169 2906 1791 
z
M 3481 434 
Q 3481 -459 3084 -895 
Q 2688 -1331 1869 -1331 
Q 1566 -1331 1297 -1286 
Q 1028 -1241 775 -1147 
L 775 -588 
Q 1028 -725 1275 -790 
Q 1522 -856 1778 -856 
Q 2344 -856 2625 -561 
Q 2906 -266 2906 331 
L 2906 616 
Q 2728 306 2450 153 
Q 2172 0 1784 0 
Q 1141 0 747 490 
Q 353 981 353 1791 
Q 353 2603 747 3093 
Q 1141 3584 1784 3584 
Q 2172 3584 2450 3431 
Q 2728 3278 2906 2969 
L 2906 3500 
L 3481 3500 
L 3481 434 
z
" transform="scale(0.015625)"/>
       <path id="DejaVuSans-56" d="M 1831 0 
L 50 4666 
L 709 4666 
L 2188 738 
L 3669 4666 
L 4325 4666 
L 2547 0 
L 1831 0 
z
" transform="scale(0.015625)"/>
       <path id="DejaVuSans-72" d="M 2631 2963 
Q 2534 3019 2420 3045 
Q 2306 3072 2169 3072 
Q 1681 3072 1420 2755 
Q 1159 2438 1159 1844 
L 1159 0 
L 581 0 
L 581 3500 
L 1159 3500 
L 1159 2956 
Q 1341 3275 1631 3429 
Q 1922 3584 2338 3584 
Q 2397 3584 2469 3576 
Q 2541 3569 2628 3553 
L 2631 2963 
z
" transform="scale(0.015625)"/>
       <path id="DejaVuSans-75" d="M 544 1381 
L 544 3500 
L 1119 3500 
L 1119 1403 
Q 1119 906 1312 657 
Q 1506 409 1894 409 
Q 2359 409 2629 706 
Q 2900 1003 2900 1516 
L 2900 3500 
L 3475 3500 
L 3475 0 
L 2900 0 
L 2900 538 
Q 2691 219 2414 64 
Q 2138 -91 1772 -91 
Q 1169 -91 856 284 
Q 544 659 544 1381 
z
M 1991 3584 
L 1991 3584 
z
" transform="scale(0.015625)"/>
       <path id="DejaVuSans-73" d="M 2834 3397 
L 2834 2853 
Q 2591 2978 2328 3040 
Q 2066 3103 1784 3103 
Q 1356 3103 1142 2972 
Q 928 2841 928 2578 
Q 928 2378 1081 2264 
Q 1234 2150 1697 2047 
L 1894 2003 
Q 2506 1872 2764 1633 
Q 3022 1394 3022 966 
Q 3022 478 2636 193 
Q 2250 -91 1575 -91 
Q 1294 -91 989 -36 
Q 684 19 347 128 
L 347 722 
Q 666 556 975 473 
Q 1284 391 1588 391 
Q 1994 391 2212 530 
Q 2431 669 2431 922 
Q 2431 1156 2273 1281 
Q 2116 1406 1581 1522 
L 1381 1569 
Q 847 1681 609 1914 
Q 372 2147 372 2553 
Q 372 3047 722 3315 
Q 1072 3584 1716 3584 
Q 2034 3584 2315 3537 
Q 2597 3491 2834 3397 
z
" transform="scale(0.015625)"/>
      </defs>
      <use xlink:href="#DejaVuSans-4c" transform="translate(0 0.015625)"/>
      <use xlink:href="#DejaVuSans-6f" transform="translate(55.712891 0.015625)"/>
      <use xlink:href="#DejaVuSans-67" transform="translate(116.894531 0.015625)"/>
      <use xlink:href="#DejaVuSans-31" transform="translate(181.328125 -16.390625) scale(0.7)"/>
      <use xlink:href="#DejaVuSans-30" transform="translate(225.864258 -16.390625) scale(0.7)"/>
      <use xlink:href="#DejaVuSans-20" transform="translate(273.134766 0.015625)"/>
      <use xlink:href="#DejaVuSans-56" transform="translate(304.921875 0.015625)"/>
      <use xlink:href="#DejaVuSans-69" transform="translate(373.330078 0.015625)"/>
      <use xlink:href="#DejaVuSans-72" transform="translate(401.113281 0.015625)"/>
      <use xlink:href="#DejaVuSans-75" transform="translate(442.226562 0.015625)"/>
      <use xlink:href="#DejaVuSans-73" transform="translate(505.605469 0.015625)"/>
     </g>
    </g>
   </g>
   <g id="line2d_15">
    <path d="M 53.599364 186.514522 
L 56.859094 186.514522 
L 57.51104 184.575933 
L 58.162986 183.012659 
L 58.814932 182.042437 
L 59.466878 181.694855 
L 60.118824 181.958776 
L 60.77077 182.768335 
L 62.074663 185.254064 
L 62.726609 186.514522 
L 183.336634 186.514522 
L 183.336634 186.514522 
" clip-path="url(#pa971901ad9)" style="fill: none; stroke: #ff1493; stroke-width: 1.5; stroke-linecap: square"/>
   </g>
   <g id="line2d_16">
    <path d="M 53.599364 186.514522 
L 56.207148 186.514522 
L 56.859094 185.744166 
L 58.162986 180.906462 
L 58.814932 179.104405 
L 59.466878 177.803555 
L 60.118824 177.126371 
L 60.77077 177.068845 
L 61.422717 177.601902 
L 62.074663 178.569749 
L 65.986339 186.463262 
L 67.942177 186.514522 
L 183.336634 186.514522 
L 183.336634 186.514522 
" clip-path="url(#pa971901ad9)" style="fill: none; stroke: #9370db; stroke-width: 1.5; stroke-linecap: square"/>
   </g>
   <g id="line2d_17">
    <path d="M 53.599364 186.514522 
L 56.207148 186.514522 
L 56.859094 185.207724 
L 58.162986 179.608839 
L 59.466878 175.159361 
L 60.118824 173.585692 
L 60.77077 172.522984 
L 61.422717 172.058606 
L 62.074663 172.212929 
L 62.726609 172.951956 
L 63.378555 174.127143 
L 67.290231 182.422739 
L 69.246069 185.867133 
L 69.898016 186.514522 
L 183.336634 186.514522 
L 183.336634 186.514522 
" clip-path="url(#pa971901ad9)" style="fill: none; stroke: #00ced1; stroke-width: 1.5; stroke-linecap: square"/>
   </g>
   <g id="line2d_18">
    <path d="M 53.599364 186.514522 
L 56.207148 186.514522 
L 56.859094 184.904138 
L 58.814932 176.052698 
L 60.118824 171.244363 
L 60.77077 169.344193 
L 61.422717 167.892935 
L 62.074663 166.950951 
L 62.726609 166.573351 
L 63.378555 166.801705 
L 64.030501 167.64137 
L 64.682447 168.98193 
L 67.942177 176.791019 
L 69.898016 180.597888 
L 72.5058 185.010887 
L 73.157746 186.035554 
L 73.809692 186.514522 
L 183.336634 186.514522 
L 183.336634 186.514522 
" clip-path="url(#pa971901ad9)" style="fill: none; stroke: #0000ff; stroke-width: 1.5; stroke-linecap: square"/>
   </g>
   <g id="line2d_19">
    <path d="M 53.599364 186.514522 
L 56.207148 186.514522 
L 56.859094 184.653096 
L 59.466878 171.940889 
L 61.422717 163.451765 
L 62.726609 158.65788 
L 64.030501 154.712426 
L 65.334393 151.726139 
L 65.986339 150.64144 
L 66.638285 149.897606 
L 67.290231 149.536436 
L 67.942177 149.691702 
L 68.594123 150.56258 
L 69.246069 152.447533 
L 69.898016 155.727709 
L 70.549962 159.848685 
L 71.201908 163.235234 
L 72.5058 167.755202 
L 73.809692 171.276861 
L 75.113584 174.318361 
L 77.069422 178.345128 
L 79.677207 183.168701 
L 81.633045 186.514522 
L 183.336634 186.514522 
L 183.336634 186.514522 
" clip-path="url(#pa971901ad9)" style="fill: none; stroke: #008000; stroke-width: 1.5; stroke-linecap: square"/>
   </g>
   <g id="line2d_20">
    <path d="M 53.599364 186.514522 
L 56.207148 186.514522 
L 56.859094 184.595274 
L 60.118824 168.461177 
L 62.074663 159.603944 
L 64.030501 151.639225 
L 66.638285 142.156096 
L 70.549962 128.315678 
L 72.5058 120.479632 
L 77.721369 98.306888 
L 79.025261 94.10811 
L 80.329153 91.077037 
L 80.981099 89.983641 
L 81.633045 89.133006 
L 82.284991 88.482554 
L 83.588883 87.633788 
L 84.892775 87.194167 
L 86.196668 87.015211 
L 88.152506 87.059147 
L 90.108344 87.346181 
L 92.716128 87.972328 
L 95.975859 89.02142 
L 99.235589 90.297931 
L 102.49532 91.792028 
L 105.75505 93.544532 
L 108.362834 95.197464 
L 110.318673 96.641832 
L 112.274511 98.333681 
L 114.230349 100.387779 
L 115.534241 102.060043 
L 116.838134 104.110742 
L 118.142026 106.785734 
L 118.793972 108.516939 
L 119.445918 110.698174 
L 120.097864 113.667262 
L 120.74981 118.394429 
L 121.401756 131.519116 
L 122.053702 186.514522 
L 183.336634 186.514522 
L 183.336634 186.514522 
" clip-path="url(#pa971901ad9)" style="fill: none; stroke: #ff8c00; stroke-width: 1.5; stroke-linecap: square"/>
   </g>
   <g id="line2d_21">
    <path d="M 53.599364 186.514522 
L 56.207148 186.514522 
L 56.859094 184.560173 
L 60.77077 165.023748 
L 63.378555 152.862842 
L 67.942177 132.943946 
L 71.853854 115.499655 
L 75.113584 101.070943 
L 76.417476 96.246727 
L 77.721369 92.502812 
L 78.373315 91.091809 
L 79.025261 89.957737 
L 79.677207 89.074228 
L 80.329153 88.398695 
L 81.633045 87.511932 
L 82.936937 87.044018 
L 84.240829 86.841888 
L 86.196668 86.853781 
L 88.152506 87.107591 
L 90.76029 87.682236 
L 94.020021 88.647732 
L 97.931697 90.06263 
L 101.843374 91.729865 
L 105.103104 93.349565 
L 107.710888 94.848606 
L 110.318673 96.59933 
L 112.274511 98.14314 
L 114.230349 99.972005 
L 115.534241 101.416616 
L 116.838134 103.123309 
L 118.142026 105.221553 
L 118.793972 106.489452 
L 119.445918 107.97231 
L 120.097864 109.764734 
L 120.74981 112.042543 
L 121.401756 115.192404 
L 122.053702 120.402911 
L 122.705648 139.427588 
L 123.357594 186.514522 
L 183.336634 186.514522 
L 183.336634 186.514522 
" clip-path="url(#pa971901ad9)" style="fill: none; stroke: #ffd700; stroke-width: 1.5; stroke-linecap: square"/>
   </g>
   <g id="line2d_22">
    <path d="M 53.599364 186.514522 
L 56.207148 186.514522 
L 56.859094 184.543444 
L 61.422717 161.578364 
L 66.638285 136.762516 
L 73.809692 103.436551 
L 75.113584 98.192991 
L 76.417476 93.916479 
L 77.069422 92.223336 
L 77.721369 90.840124 
L 78.373315 89.737071 
L 79.025261 88.880025 
L 79.677207 88.225852 
L 80.981099 87.367177 
L 82.284991 86.913555 
L 83.588883 86.71596 
L 85.544722 86.723102 
L 87.50056 86.962215 
L 90.108344 87.503668 
L 93.368075 88.404454 
L 97.279751 89.704233 
L 101.191428 91.207851 
L 105.103104 92.948854 
L 108.362834 94.645147 
L 110.970619 96.22566 
L 113.578403 98.085693 
L 115.534241 99.740383 
L 117.49008 101.723192 
L 118.793972 103.312232 
L 120.097864 105.224371 
L 121.401756 107.645864 
L 122.053702 109.160138 
L 122.705648 110.996778 
L 123.357594 113.344013 
L 124.00954 116.62747 
L 124.661487 122.222902 
L 125.313433 145.739215 
L 125.965379 186.514522 
L 183.336634 186.514522 
L 183.336634 186.514522 
" clip-path="url(#pa971901ad9)" style="fill: none; stroke: #ff0000; stroke-width: 1.5; stroke-linecap: square"/>
   </g>
   <g id="line2d_23">
    <path d="M 53.599364 186.514522 
L 56.207148 186.514522 
L 56.859094 184.521799 
L 65.986339 137.857991 
L 71.853854 108.445033 
L 73.809692 99.725765 
L 75.113584 94.952983 
L 76.417476 91.391197 
L 77.069422 90.077975 
L 77.721369 89.041915 
L 78.373315 88.237284 
L 79.677207 87.147381 
L 80.981099 86.517681 
L 82.284991 86.16975 
L 84.240829 85.966435 
L 86.196668 85.991769 
L 89.456398 86.306452 
L 94.020021 87.021292 
L 100.539481 88.285781 
L 107.058942 89.756068 
L 113.578403 91.450966 
L 120.097864 93.374046 
L 126.617325 95.517376 
L 133.136786 97.896128 
L 139.0043 100.289007 
L 143.567923 102.377263 
L 147.479599 104.391787 
L 150.902316 106.397647 
L 153.347114 108.027662 
L 155.954898 110.027755 
L 157.910737 111.782886 
L 159.866575 113.867591 
L 161.170467 115.530449 
L 162.474359 117.528855 
L 163.778251 120.064887 
L 164.430198 121.658477 
L 165.082144 123.603908 
L 165.73409 126.119374 
L 166.386036 129.698275 
L 167.119475 137.235744 
L 167.689928 162.955841 
L 168.341874 186.514522 
L 183.336634 186.514522 
L 183.336634 186.514522 
" clip-path="url(#pa971901ad9)" style="fill: none; stroke: #000000; stroke-width: 2; stroke-linecap: square"/>
   </g>
   <g id="patch_3">
    <path d="M 47.1125 186.514522 
L 47.1125 43.803525 
" style="fill: none; stroke: #000000; stroke-width: 2; stroke-linejoin: miter; stroke-linecap: square"/>
   </g>
   <g id="patch_4">
    <path d="M 189.823497 186.514522 
L 189.823497 43.803525 
" style="fill: none; stroke: #000000; stroke-width: 2; stroke-linejoin: miter; stroke-linecap: square"/>
   </g>
   <g id="patch_5">
    <path d="M 47.1125 186.514522 
L 189.823497 186.514522 
" style="fill: none; stroke: #000000; stroke-width: 2; stroke-linejoin: miter; stroke-linecap: square"/>
   </g>
   <g id="patch_6">
    <path d="M 47.1125 43.803525 
L 189.823497 43.803525 
" style="fill: none; stroke: #000000; stroke-width: 2; stroke-linejoin: miter; stroke-linecap: square"/>
   </g>
   <g id="text_17">
    <!-- Individual 103 -->
    <g transform="translate(47.499249 22.396875) scale(0.2 -0.2)">
     <defs>
      <path id="DejaVuSans-49" d="M 628 4666 
L 1259 4666 
L 1259 0 
L 628 0 
L 628 4666 
z
" transform="scale(0.015625)"/>
      <path id="DejaVuSans-6e" d="M 3513 2113 
L 3513 0 
L 2938 0 
L 2938 2094 
Q 2938 2591 2744 2837 
Q 2550 3084 2163 3084 
Q 1697 3084 1428 2787 
Q 1159 2491 1159 1978 
L 1159 0 
L 581 0 
L 581 3500 
L 1159 3500 
L 1159 2956 
Q 1366 3272 1645 3428 
Q 1925 3584 2291 3584 
Q 2894 3584 3203 3211 
Q 3513 2838 3513 2113 
z
" transform="scale(0.015625)"/>
      <path id="DejaVuSans-76" d="M 191 3500 
L 800 3500 
L 1894 563 
L 2988 3500 
L 3597 3500 
L 2284 0 
L 1503 0 
L 191 3500 
z
" transform="scale(0.015625)"/>
      <path id="DejaVuSans-61" d="M 2194 1759 
Q 1497 1759 1228 1600 
Q 959 1441 959 1056 
Q 959 750 1161 570 
Q 1363 391 1709 391 
Q 2188 391 2477 730 
Q 2766 1069 2766 1631 
L 2766 1759 
L 2194 1759 
z
M 3341 1997 
L 3341 0 
L 2766 0 
L 2766 531 
Q 2569 213 2275 61 
Q 1981 -91 1556 -91 
Q 1019 -91 701 211 
Q 384 513 384 1019 
Q 384 1609 779 1909 
Q 1175 2209 1959 2209 
L 2766 2209 
L 2766 2266 
Q 2766 2663 2505 2880 
Q 2244 3097 1772 3097 
Q 1472 3097 1187 3025 
Q 903 2953 641 2809 
L 641 3341 
Q 956 3463 1253 3523 
Q 1550 3584 1831 3584 
Q 2591 3584 2966 3190 
Q 3341 2797 3341 1997 
z
" transform="scale(0.015625)"/>
      <path id="DejaVuSans-6c" d="M 603 4863 
L 1178 4863 
L 1178 0 
L 603 0 
L 603 4863 
z
" transform="scale(0.015625)"/>
     </defs>
     <use xlink:href="#DejaVuSans-49"/>
     <use xlink:href="#DejaVuSans-6e" transform="translate(29.492188 0)"/>
     <use xlink:href="#DejaVuSans-64" transform="translate(92.871094 0)"/>
     <use xlink:href="#DejaVuSans-69" transform="translate(156.347656 0)"/>
     <use xlink:href="#DejaVuSans-76" transform="translate(184.130859 0)"/>
     <use xlink:href="#DejaVuSans-69" transform="translate(243.310547 0)"/>
     <use xlink:href="#DejaVuSans-64" transform="translate(271.09375 0)"/>
     <use xlink:href="#DejaVuSans-75" transform="translate(334.570312 0)"/>
     <use xlink:href="#DejaVuSans-61" transform="translate(397.949219 0)"/>
     <use xlink:href="#DejaVuSans-6c" transform="translate(459.228516 0)"/>
     <use xlink:href="#DejaVuSans-20" transform="translate(487.011719 0)"/>
     <use xlink:href="#DejaVuSans-31" transform="translate(518.798828 0)"/>
     <use xlink:href="#DejaVuSans-30" transform="translate(582.421875 0)"/>
     <use xlink:href="#DejaVuSans-33" transform="translate(646.044922 0)"/>
    </g>
   </g>
  </g>
  <g id="axes_2">
   <g id="patch_7">
    <path d="M 232.636797 186.514522 
L 375.347794 186.514522 
L 375.347794 43.803525 
L 232.636797 43.803525 
z
" style="fill: #ffffff"/>
   </g>
   <g id="matplotlib.axis_3">
    <g id="xtick_6">
     <g id="line2d_24">
      <g>
       <use xlink:href="#maac267c465" x="239.12366" y="186.514522" style="stroke: #000000; stroke-width: 0.8"/>
      </g>
     </g>
     <g id="text_18">
      <!-- 0 -->
      <g transform="translate(233.39741 207.19171) scale(0.18 -0.18)">
       <use xlink:href="#DejaVuSans-30"/>
      </g>
     </g>
    </g>
    <g id="xtick_7">
     <g id="line2d_25">
      <g>
       <use xlink:href="#maac267c465" x="271.557978" y="186.514522" style="stroke: #000000; stroke-width: 0.8"/>
      </g>
     </g>
     <g id="text_19">
      <!-- 2 -->
      <g transform="translate(265.831728 207.19171) scale(0.18 -0.18)">
       <use xlink:href="#DejaVuSans-32"/>
      </g>
     </g>
    </g>
    <g id="xtick_8">
     <g id="line2d_26">
      <g>
       <use xlink:href="#maac267c465" x="303.992295" y="186.514522" style="stroke: #000000; stroke-width: 0.8"/>
      </g>
     </g>
     <g id="text_20">
      <!-- 4 -->
      <g transform="translate(298.266045 207.19171) scale(0.18 -0.18)">
       <use xlink:href="#DejaVuSans-34"/>
      </g>
     </g>
    </g>
    <g id="xtick_9">
     <g id="line2d_27">
      <g>
       <use xlink:href="#maac267c465" x="336.426613" y="186.514522" style="stroke: #000000; stroke-width: 0.8"/>
      </g>
     </g>
     <g id="text_21">
      <!-- 6 -->
      <g transform="translate(330.700363 207.19171) scale(0.18 -0.18)">
       <use xlink:href="#DejaVuSans-36"/>
      </g>
     </g>
    </g>
    <g id="xtick_10">
     <g id="line2d_28">
      <g>
       <use xlink:href="#maac267c465" x="368.860931" y="186.514522" style="stroke: #000000; stroke-width: 0.8"/>
      </g>
     </g>
     <g id="text_22">
      <!-- 8 -->
      <g transform="translate(363.134681 207.19171) scale(0.18 -0.18)">
       <use xlink:href="#DejaVuSans-38"/>
      </g>
     </g>
    </g>
    <g id="text_23">
     <!-- Time (d) -->
     <g transform="translate(262.19542 230.132022) scale(0.2 -0.2)">
      <use xlink:href="#DejaVuSans-54"/>
      <use xlink:href="#DejaVuSans-69" transform="translate(57.958984 0)"/>
      <use xlink:href="#DejaVuSans-6d" transform="translate(85.742188 0)"/>
      <use xlink:href="#DejaVuSans-65" transform="translate(183.154297 0)"/>
      <use xlink:href="#DejaVuSans-20" transform="translate(244.677734 0)"/>
      <use xlink:href="#DejaVuSans-28" transform="translate(276.464844 0)"/>
      <use xlink:href="#DejaVuSans-64" transform="translate(315.478516 0)"/>
      <use xlink:href="#DejaVuSans-29" transform="translate(378.955078 0)"/>
     </g>
    </g>
   </g>
   <g id="matplotlib.axis_4">
    <g id="ytick_10">
     <g id="line2d_29">
      <g>
       <use xlink:href="#ma94465bffd" x="232.636797" y="147.593341" style="stroke: #000000; stroke-width: 0.8"/>
      </g>
     </g>
     <g id="text_24">
      <!-- 4 -->
      <g transform="translate(214.184297 154.431935) scale(0.18 -0.18)">
       <use xlink:href="#DejaVuSans-34"/>
      </g>
     </g>
    </g>
    <g id="ytick_11">
     <g id="line2d_30">
      <g>
       <use xlink:href="#ma94465bffd" x="232.636797" y="121.645887" style="stroke: #000000; stroke-width: 0.8"/>
      </g>
     </g>
     <g id="text_25">
      <!-- 5 -->
      <g transform="translate(214.184297 128.484481) scale(0.18 -0.18)">
       <use xlink:href="#DejaVuSans-35"/>
      </g>
     </g>
    </g>
    <g id="ytick_12">
     <g id="line2d_31">
      <g>
       <use xlink:href="#ma94465bffd" x="232.636797" y="95.698433" style="stroke: #000000; stroke-width: 0.8"/>
      </g>
     </g>
     <g id="text_26">
      <!-- 6 -->
      <g transform="translate(214.184297 102.537027) scale(0.18 -0.18)">
       <use xlink:href="#DejaVuSans-36"/>
      </g>
     </g>
    </g>
    <g id="ytick_13">
     <g id="line2d_32">
      <g>
       <use xlink:href="#ma94465bffd" x="232.636797" y="69.750979" style="stroke: #000000; stroke-width: 0.8"/>
      </g>
     </g>
     <g id="text_27">
      <!-- 7 -->
      <g transform="translate(214.184297 76.589572) scale(0.18 -0.18)">
       <use xlink:href="#DejaVuSans-37"/>
      </g>
     </g>
    </g>
    <g id="ytick_14">
     <g id="line2d_33">
      <g>
       <use xlink:href="#ma94465bffd" x="232.636797" y="43.803525" style="stroke: #000000; stroke-width: 0.8"/>
      </g>
     </g>
     <g id="text_28">
      <!-- 8 -->
      <g transform="translate(214.184297 50.642118) scale(0.18 -0.18)">
       <use xlink:href="#DejaVuSans-38"/>
      </g>
     </g>
    </g>
    <g id="text_29">
     <!-- Log$_{10}$ T cells -->
     <g transform="translate(206.404297 171.139023) rotate(-90) scale(0.18 -0.18)">
      <defs>
       <path id="DejaVuSans-63" d="M 3122 3366 
L 3122 2828 
Q 2878 2963 2633 3030 
Q 2388 3097 2138 3097 
Q 1578 3097 1268 2742 
Q 959 2388 959 1747 
Q 959 1106 1268 751 
Q 1578 397 2138 397 
Q 2388 397 2633 464 
Q 2878 531 3122 666 
L 3122 134 
Q 2881 22 2623 -34 
Q 2366 -91 2075 -91 
Q 1284 -91 818 406 
Q 353 903 353 1747 
Q 353 2603 823 3093 
Q 1294 3584 2113 3584 
Q 2378 3584 2631 3529 
Q 2884 3475 3122 3366 
z
" transform="scale(0.015625)"/>
      </defs>
      <use xlink:href="#DejaVuSans-4c" transform="translate(0 0.015625)"/>
      <use xlink:href="#DejaVuSans-6f" transform="translate(55.712891 0.015625)"/>
      <use xlink:href="#DejaVuSans-67" transform="translate(116.894531 0.015625)"/>
      <use xlink:href="#DejaVuSans-31" transform="translate(181.328125 -16.390625) scale(0.7)"/>
      <use xlink:href="#DejaVuSans-30" transform="translate(225.864258 -16.390625) scale(0.7)"/>
      <use xlink:href="#DejaVuSans-20" transform="translate(273.134766 0.015625)"/>
      <use xlink:href="#DejaVuSans-54" transform="translate(304.921875 0.015625)"/>
      <use xlink:href="#DejaVuSans-20" transform="translate(366.005859 0.015625)"/>
      <use xlink:href="#DejaVuSans-63" transform="translate(397.792969 0.015625)"/>
      <use xlink:href="#DejaVuSans-65" transform="translate(452.773438 0.015625)"/>
      <use xlink:href="#DejaVuSans-6c" transform="translate(514.296875 0.015625)"/>
      <use xlink:href="#DejaVuSans-6c" transform="translate(542.080078 0.015625)"/>
      <use xlink:href="#DejaVuSans-73" transform="translate(569.863281 0.015625)"/>
     </g>
    </g>
   </g>
   <g id="line2d_34">
    <path d="M 239.208264 242.491397 
L 239.775606 182.864219 
L 240.427552 174.713625 
L 241.731445 164.011974 
L 243.035337 155.04927 
L 244.339229 147.313001 
L 245.643121 141.039759 
L 246.947013 136.284564 
L 248.250905 132.845286 
L 249.554798 130.369558 
L 250.85869 128.583227 
L 252.162582 127.282363 
L 253.466474 126.333571 
L 254.770366 125.645246 
L 256.074258 125.152112 
L 258.030097 124.682063 
L 259.985935 124.444038 
L 262.593719 124.368505 
L 265.85345 124.523233 
L 270.417072 125.00455 
L 276.936533 125.95185 
L 288.671562 127.930494 
L 320.209454 133.560231 
L 368.860931 142.282809 
L 368.860931 142.282809 
" clip-path="url(#p3063599d0d)" style="fill: none; stroke: #ff1493; stroke-width: 1.5; stroke-linecap: square"/>
   </g>
   <g id="line2d_35">
    <path d="M 239.217082 242.491397 
L 239.775606 189.332116 
L 240.427552 181.16287 
L 241.731445 170.339081 
L 243.687283 156.666221 
L 244.991175 148.735013 
L 246.295067 142.135212 
L 247.598959 137.033389 
L 248.902851 133.288725 
L 250.206744 130.606825 
L 251.510636 128.672554 
L 252.814528 127.271466 
L 254.11842 126.252167 
L 255.422312 125.513476 
L 256.726204 124.984107 
L 258.682043 124.476465 
L 260.637881 124.214207 
L 263.245665 124.11938 
L 266.505396 124.26163 
L 271.069018 124.735386 
L 277.588479 125.678786 
L 289.323509 127.654954 
L 320.209454 133.167885 
L 368.860931 141.904923 
L 368.860931 141.904923 
" clip-path="url(#p3063599d0d)" style="fill: none; stroke: #9370db; stroke-width: 1.5; stroke-linecap: square"/>
   </g>
   <g id="line2d_36">
    <path d="M 239.227972 242.491397 
L 239.775606 195.80995 
L 240.427552 187.62261 
L 241.731445 176.715498 
L 243.687283 162.632435 
L 245.643121 150.084978 
L 246.947013 143.136919 
L 248.250905 137.631606 
L 249.554798 133.529205 
L 250.85869 130.584927 
L 252.162582 128.480688 
L 253.466474 126.967231 
L 254.770366 125.873104 
L 256.074258 125.083404 
L 257.378151 124.519342 
L 259.333989 123.979387 
L 261.289827 123.699115 
L 263.897611 123.592866 
L 267.157342 123.730503 
L 271.720964 124.204891 
L 278.240425 125.151071 
L 289.975455 127.128175 
L 320.209454 132.525994 
L 368.860931 141.278145 
L 368.860931 141.278145 
" clip-path="url(#p3063599d0d)" style="fill: none; stroke: #00ced1; stroke-width: 1.5; stroke-linecap: square"/>
   </g>
   <g id="line2d_37">
    <path d="M 239.241737 242.491397 
L 239.775606 202.288428 
L 240.427552 194.094146 
L 241.731445 183.143796 
L 244.339229 164.212237 
L 246.295067 151.409121 
L 247.598959 144.088009 
L 248.902851 138.097208 
L 250.206744 133.504541 
L 251.510636 130.176842 
L 252.814528 127.815339 
L 254.11842 126.141078 
L 255.422312 124.946671 
L 256.726204 124.09415 
L 258.030097 123.490619 
L 259.985935 122.918242 
L 261.941773 122.624026 
L 264.549557 122.514018 
L 267.809288 122.657386 
L 272.37291 123.143497 
L 278.892371 124.100559 
L 291.279347 126.195225 
L 322.572759 131.789641 
L 368.860931 140.127135 
L 368.860931 140.127135 
" clip-path="url(#p3063599d0d)" style="fill: none; stroke: #0000ff; stroke-width: 1.5; stroke-linecap: square"/>
   </g>
   <g id="line2d_38">
    <path d="M 239.284126 242.491397 
L 239.775606 215.257489 
L 240.427552 207.072567 
L 241.731445 196.122402 
L 244.991175 172.060296 
L 247.598959 154.047555 
L 249.554798 142.160677 
L 250.85869 135.34132 
L 252.162582 129.506635 
L 253.466474 124.681635 
L 254.770366 120.878227 
L 256.074258 118.0866 
L 257.378151 116.190757 
L 258.682043 114.919663 
L 259.985935 114.066571 
L 261.289827 113.502815 
L 262.593719 113.144191 
L 264.549557 112.871165 
L 267.157342 112.824757 
L 270.417072 113.055291 
L 274.980695 113.634738 
L 284.10794 115.077379 
L 301.710484 118.102215 
L 346.042818 126.070956 
L 368.860931 130.183532 
L 368.860931 130.183532 
" clip-path="url(#p3063599d0d)" style="fill: none; stroke: #008000; stroke-width: 1.5; stroke-linecap: square"/>
   </g>
   <g id="line2d_39">
    <path d="M 239.319243 242.491397 
L 239.775606 221.743836 
L 240.427552 213.560504 
L 241.731445 202.607536 
L 245.643121 173.615869 
L 248.902851 151.029983 
L 250.85869 138.913818 
L 252.814528 128.198693 
L 254.770366 118.999132 
L 256.074258 113.731074 
L 257.378151 109.163795 
L 258.682043 105.292526 
L 259.985935 102.079048 
L 261.289827 99.445125 
L 262.593719 97.287576 
L 263.897611 95.504557 
L 265.201503 94.011187 
L 267.157342 92.180895 
L 269.11318 90.719275 
L 271.069018 89.536277 
L 273.024856 88.575148 
L 275.632641 87.578575 
L 278.240425 86.857956 
L 280.848209 86.365952 
L 284.10794 85.984234 
L 289.975455 85.589528 
L 297.146862 85.294958 
L 301.710484 85.334282 
L 306.274107 85.614017 
L 311.489675 86.18821 
L 318.009136 87.152642 
L 329.09222 89.055863 
L 368.860931 96.210375 
L 368.860931 96.210375 
" clip-path="url(#p3063599d0d)" style="fill: none; stroke: #ff8c00; stroke-width: 1.5; stroke-linecap: square"/>
   </g>
   <g id="line2d_40">
    <path d="M 239.37404 242.491397 
L 239.775606 228.230518 
L 240.427552 220.046515 
L 241.731445 209.089353 
L 245.643121 179.969997 
L 249.554798 152.243498 
L 252.162582 135.363528 
L 254.11842 124.017717 
L 255.422312 117.370307 
L 256.726204 111.670874 
L 258.030097 107.000572 
L 259.333989 103.284259 
L 260.637881 100.351028 
L 261.941773 98.012957 
L 263.245665 96.117878 
L 264.549557 94.555355 
L 265.85345 93.249209 
L 267.809288 91.660251 
L 269.765126 90.416298 
L 271.720964 89.447241 
L 273.676803 88.709176 
L 275.632641 88.169011 
L 278.240425 87.698426 
L 281.500156 87.377281 
L 295.191023 86.547954 
L 299.754646 86.499431 
L 303.992295 86.692182 
L 308.229945 87.091219 
L 314.09746 87.883358 
L 322.572759 89.27846 
L 344.738926 93.237772 
L 368.860931 97.585019 
L 368.860931 97.585019 
" clip-path="url(#p3063599d0d)" style="fill: none; stroke: #ffd700; stroke-width: 1.5; stroke-linecap: square"/>
   </g>
   <g id="line2d_41">
    <path d="M 239.471487 242.491397 
L 239.775606 234.71696 
L 240.427552 226.532964 
L 241.731445 215.574059 
L 245.643121 186.38282 
L 250.85869 149.017436 
L 253.466474 131.774126 
L 255.422312 120.316374 
L 256.726204 113.898617 
L 258.030097 108.665503 
L 259.333989 104.560793 
L 260.637881 101.370957 
L 261.941773 98.868852 
L 263.245665 96.871446 
L 264.549557 95.2517 
L 265.85345 93.923728 
L 267.157342 92.828009 
L 269.11318 91.532396 
L 271.069018 90.576048 
L 273.024856 89.897874 
L 274.980695 89.446037 
L 277.588479 89.10119 
L 282.152102 88.82728 
L 288.019616 88.418433 
L 295.842969 87.800921 
L 299.754646 87.731323 
L 303.992295 87.903849 
L 308.229945 88.297321 
L 314.09746 89.090384 
L 323.224705 90.601961 
L 348.650602 95.154234 
L 368.860931 98.796675 
L 368.860931 98.796675 
" clip-path="url(#p3063599d0d)" style="fill: none; stroke: #ff0000; stroke-width: 1.5; stroke-linecap: square"/>
   </g>
   <g id="line2d_42">
    <path d="M 259.990251 242.491397 
L 266.505396 194.696106 
L 269.11318 177.052165 
L 271.557978 162.147716 
L 273.024856 154.14146 
L 274.980695 144.605607 
L 276.936533 136.382337 
L 278.892371 129.376999 
L 280.848209 123.440227 
L 282.804048 118.447975 
L 284.759886 114.27657 
L 286.715724 110.818738 
L 288.671562 107.978961 
L 290.627401 105.67269 
L 292.583239 103.825594 
L 294.539077 102.372323 
L 296.494915 101.255129 
L 298.450754 100.422302 
L 300.406592 99.828251 
L 302.36243 99.432917 
L 304.970215 99.15481 
L 307.577999 99.097455 
L 310.837729 99.249957 
L 314.749406 99.651894 
L 320.61692 100.502817 
L 331.048058 102.290865 
L 368.860931 109.093255 
L 368.860931 109.093255 
" clip-path="url(#p3063599d0d)" style="fill: none; stroke: #000000; stroke-width: 2; stroke-linecap: square"/>
   </g>
   <g id="patch_8">
    <path d="M 232.636797 186.514522 
L 232.636797 43.803525 
" style="fill: none; stroke: #000000; stroke-width: 2; stroke-linejoin: miter; stroke-linecap: square"/>
   </g>
   <g id="patch_9">
    <path d="M 375.347794 186.514522 
L 375.347794 43.803525 
" style="fill: none; stroke: #000000; stroke-width: 2; stroke-linejoin: miter; stroke-linecap: square"/>
   </g>
   <g id="patch_10">
    <path d="M 232.636797 186.514522 
L 375.347794 186.514522 
" style="fill: none; stroke: #000000; stroke-width: 2; stroke-linejoin: miter; stroke-linecap: square"/>
   </g>
   <g id="patch_11">
    <path d="M 232.636797 43.803525 
L 375.347794 43.803525 
" style="fill: none; stroke: #000000; stroke-width: 2; stroke-linejoin: miter; stroke-linecap: square"/>
   </g>
  </g>
 </g>
 <defs>
  <clipPath id="pa971901ad9">
   <rect x="47.1125" y="43.803525" width="142.710997" height="142.710997"/>
  </clipPath>
  <clipPath id="p3063599d0d">
   <rect x="232.636797" y="43.803525" width="142.710997" height="142.710997"/>
  </clipPath>
 </defs>
</svg>
