<?xml version="1.0" encoding="utf-8" standalone="no"?>
<!DOCTYPE svg PUBLIC "-//W3C//DTD SVG 1.1//EN"
  "http://www.w3.org/Graphics/SVG/1.1/DTD/svg11.dtd">
<svg xmlns:xlink="http://www.w3.org/1999/xlink" width="382.547794pt" height="241.491397pt" viewBox="0 0 382.547794 241.491397" xmlns="http://www.w3.org/2000/svg" version="1.1">
 <metadata>
  <rdf:RDF xmlns:dc="http://purl.org/dc/elements/1.1/" xmlns:cc="http://creativecommons.org/ns#" xmlns:rdf="http://www.w3.org/1999/02/22-rdf-syntax-ns#">
   <cc:Work>
    <dc:type rdf:resource="http://purl.org/dc/dcmitype/StillImage"/>
    <dc:date>2025-03-03T14:48:48.318324</dc:date>
    <dc:format>image/svg+xml</dc:format>
    <dc:creator>
     <cc:Agent>
      <dc:title>Matplotlib v3.10.0, https://matplotlib.org/</dc:title>
     </cc:Agent>
    </dc:creator>
   </cc:Work>
  </rdf:RDF>
 </metadata>
 <defs>
  <style type="text/css">*{stroke-linejoin: round; stroke-linecap: butt}</style>
 </defs>
 <g id="figure_1">
  <g id="patch_1">
   <path d="M 0 241.491397 
L 382.547794 241.491397 
L 382.547794 0 
L 0 0 
z
" style="fill: #ffffff"/>
  </g>
  <g id="axes_1">
   <g id="patch_2">
    <path d="M 47.1125 186.514522 
L 189.823497 186.514522 
L 189.823497 43.803525 
L 47.1125 43.803525 
z
" style="fill: #ffffff"/>
   </g>
   <g id="matplotlib.axis_1">
    <g id="xtick_1">
     <g id="line2d_1">
      <defs>
       <path id="mf154f3d9ef" d="M 0 0 
L 0 3.5 
" style="stroke: #000000; stroke-width: 0.8"/>
      </defs>
      <g>
       <use xlink:href="#mf154f3d9ef" x="53.599364" y="186.514522" style="stroke: #000000; stroke-width: 0.8"/>
      </g>
     </g>
     <g id="text_1">
      <!-- 0 -->
      <g transform="translate(47.873114 207.19171) scale(0.18 -0.18)">
       <defs>
        <path id="DejaVuSans-30" d="M 2034 4250 
Q 1547 4250 1301 3770 
Q 1056 3291 1056 2328 
Q 1056 1369 1301 889 
Q 1547 409 2034 409 
Q 2525 409 2770 889 
Q 3016 1369 3016 2328 
Q 3016 3291 2770 3770 
Q 2525 4250 2034 4250 
z
M 2034 4750 
Q 2819 4750 3233 4129 
Q 3647 3509 3647 2328 
Q 3647 1150 3233 529 
Q 2819 -91 2034 -91 
Q 1250 -91 836 529 
Q 422 1150 422 2328 
Q 422 3509 836 4129 
Q 1250 4750 2034 4750 
z
" transform="scale(0.015625)"/>
       </defs>
       <use xlink:href="#DejaVuSans-30"/>
      </g>
     </g>
    </g>
    <g id="xtick_2">
     <g id="line2d_2">
      <g>
       <use xlink:href="#mf154f3d9ef" x="86.033681" y="186.514522" style="stroke: #000000; stroke-width: 0.8"/>
      </g>
     </g>
     <g id="text_2">
      <!-- 2 -->
      <g transform="translate(80.307431 207.19171) scale(0.18 -0.18)">
       <defs>
        <path id="DejaVuSans-32" d="M 1228 531 
L 3431 531 
L 3431 0 
L 469 0 
L 469 531 
Q 828 903 1448 1529 
Q 2069 2156 2228 2338 
Q 2531 2678 2651 2914 
Q 2772 3150 2772 3378 
Q 2772 3750 2511 3984 
Q 2250 4219 1831 4219 
Q 1534 4219 1204 4116 
Q 875 4013 500 3803 
L 500 4441 
Q 881 4594 1212 4672 
Q 1544 4750 1819 4750 
Q 2544 4750 2975 4387 
Q 3406 4025 3406 3419 
Q 3406 3131 3298 2873 
Q 3191 2616 2906 2266 
Q 2828 2175 2409 1742 
Q 1991 1309 1228 531 
z
" transform="scale(0.015625)"/>
       </defs>
       <use xlink:href="#DejaVuSans-32"/>
      </g>
     </g>
    </g>
    <g id="xtick_3">
     <g id="line2d_3">
      <g>
       <use xlink:href="#mf154f3d9ef" x="118.467999" y="186.514522" style="stroke: #000000; stroke-width: 0.8"/>
      </g>
     </g>
     <g id="text_3">
      <!-- 4 -->
      <g transform="translate(112.741749 207.19171) scale(0.18 -0.18)">
       <defs>
        <path id="DejaVuSans-34" d="M 2419 4116 
L 825 1625 
L 2419 1625 
L 2419 4116 
z
M 2253 4666 
L 3047 4666 
L 3047 1625 
L 3713 1625 
L 3713 1100 
L 3047 1100 
L 3047 0 
L 2419 0 
L 2419 1100 
L 313 1100 
L 313 1709 
L 2253 4666 
z
" transform="scale(0.015625)"/>
       </defs>
       <use xlink:href="#DejaVuSans-34"/>
      </g>
     </g>
    </g>
    <g id="xtick_4">
     <g id="line2d_4">
      <g>
       <use xlink:href="#mf154f3d9ef" x="150.902316" y="186.514522" style="stroke: #000000; stroke-width: 0.8"/>
      </g>
     </g>
     <g id="text_4">
      <!-- 6 -->
      <g transform="translate(145.176066 207.19171) scale(0.18 -0.18)">
       <defs>
        <path id="DejaVuSans-36" d="M 2113 2584 
Q 1688 2584 1439 2293 
Q 1191 2003 1191 1497 
Q 1191 994 1439 701 
Q 1688 409 2113 409 
Q 2538 409 2786 701 
Q 3034 994 3034 1497 
Q 3034 2003 2786 2293 
Q 2538 2584 2113 2584 
z
M 3366 4563 
L 3366 3988 
Q 3128 4100 2886 4159 
Q 2644 4219 2406 4219 
Q 1781 4219 1451 3797 
Q 1122 3375 1075 2522 
Q 1259 2794 1537 2939 
Q 1816 3084 2150 3084 
Q 2853 3084 3261 2657 
Q 3669 2231 3669 1497 
Q 3669 778 3244 343 
Q 2819 -91 2113 -91 
Q 1303 -91 875 529 
Q 447 1150 447 2328 
Q 447 3434 972 4092 
Q 1497 4750 2381 4750 
Q 2619 4750 2861 4703 
Q 3103 4656 3366 4563 
z
" transform="scale(0.015625)"/>
       </defs>
       <use xlink:href="#DejaVuSans-36"/>
      </g>
     </g>
    </g>
    <g id="xtick_5">
     <g id="line2d_5">
      <g>
       <use xlink:href="#mf154f3d9ef" x="183.336634" y="186.514522" style="stroke: #000000; stroke-width: 0.8"/>
      </g>
     </g>
     <g id="text_5">
      <!-- 8 -->
      <g transform="translate(177.610384 207.19171) scale(0.18 -0.18)">
       <defs>
        <path id="DejaVuSans-38" d="M 2034 2216 
Q 1584 2216 1326 1975 
Q 1069 1734 1069 1313 
Q 1069 891 1326 650 
Q 1584 409 2034 409 
Q 2484 409 2743 651 
Q 3003 894 3003 1313 
Q 3003 1734 2745 1975 
Q 2488 2216 2034 2216 
z
M 1403 2484 
Q 997 2584 770 2862 
Q 544 3141 544 3541 
Q 544 4100 942 4425 
Q 1341 4750 2034 4750 
Q 2731 4750 3128 4425 
Q 3525 4100 3525 3541 
Q 3525 3141 3298 2862 
Q 3072 2584 2669 2484 
Q 3125 2378 3379 2068 
Q 3634 1759 3634 1313 
Q 3634 634 3220 271 
Q 2806 -91 2034 -91 
Q 1263 -91 848 271 
Q 434 634 434 1313 
Q 434 1759 690 2068 
Q 947 2378 1403 2484 
z
M 1172 3481 
Q 1172 3119 1398 2916 
Q 1625 2713 2034 2713 
Q 2441 2713 2670 2916 
Q 2900 3119 2900 3481 
Q 2900 3844 2670 4047 
Q 2441 4250 2034 4250 
Q 1625 4250 1398 4047 
Q 1172 3844 1172 3481 
z
" transform="scale(0.015625)"/>
       </defs>
       <use xlink:href="#DejaVuSans-38"/>
      </g>
     </g>
    </g>
    <g id="text_6">
     <!-- Time (d) -->
     <g transform="translate(76.671124 230.132022) scale(0.2 -0.2)">
      <defs>
       <path id="DejaVuSans-54" d="M -19 4666 
L 3928 4666 
L 3928 4134 
L 2272 4134 
L 2272 0 
L 1638 0 
L 1638 4134 
L -19 4134 
L -19 4666 
z
" transform="scale(0.015625)"/>
       <path id="DejaVuSans-69" d="M 603 3500 
L 1178 3500 
L 1178 0 
L 603 0 
L 603 3500 
z
M 603 4863 
L 1178 4863 
L 1178 4134 
L 603 4134 
L 603 4863 
z
" transform="scale(0.015625)"/>
       <path id="DejaVuSans-6d" d="M 3328 2828 
Q 3544 3216 3844 3400 
Q 4144 3584 4550 3584 
Q 5097 3584 5394 3201 
Q 5691 2819 5691 2113 
L 5691 0 
L 5113 0 
L 5113 2094 
Q 5113 2597 4934 2840 
Q 4756 3084 4391 3084 
Q 3944 3084 3684 2787 
Q 3425 2491 3425 1978 
L 3425 0 
L 2847 0 
L 2847 2094 
Q 2847 2600 2669 2842 
Q 2491 3084 2119 3084 
Q 1678 3084 1418 2786 
Q 1159 2488 1159 1978 
L 1159 0 
L 581 0 
L 581 3500 
L 1159 3500 
L 1159 2956 
Q 1356 3278 1631 3431 
Q 1906 3584 2284 3584 
Q 2666 3584 2933 3390 
Q 3200 3197 3328 2828 
z
" transform="scale(0.015625)"/>
       <path id="DejaVuSans-65" d="M 3597 1894 
L 3597 1613 
L 953 1613 
Q 991 1019 1311 708 
Q 1631 397 2203 397 
Q 2534 397 2845 478 
Q 3156 559 3463 722 
L 3463 178 
Q 3153 47 2828 -22 
Q 2503 -91 2169 -91 
Q 1331 -91 842 396 
Q 353 884 353 1716 
Q 353 2575 817 3079 
Q 1281 3584 2069 3584 
Q 2775 3584 3186 3129 
Q 3597 2675 3597 1894 
z
M 3022 2063 
Q 3016 2534 2758 2815 
Q 2500 3097 2075 3097 
Q 1594 3097 1305 2825 
Q 1016 2553 972 2059 
L 3022 2063 
z
" transform="scale(0.015625)"/>
       <path id="DejaVuSans-20" transform="scale(0.015625)"/>
       <path id="DejaVuSans-28" d="M 1984 4856 
Q 1566 4138 1362 3434 
Q 1159 2731 1159 2009 
Q 1159 1288 1364 580 
Q 1569 -128 1984 -844 
L 1484 -844 
Q 1016 -109 783 600 
Q 550 1309 550 2009 
Q 550 2706 781 3412 
Q 1013 4119 1484 4856 
L 1984 4856 
z
" transform="scale(0.015625)"/>
       <path id="DejaVuSans-64" d="M 2906 2969 
L 2906 4863 
L 3481 4863 
L 3481 0 
L 2906 0 
L 2906 525 
Q 2725 213 2448 61 
Q 2172 -91 1784 -91 
Q 1150 -91 751 415 
Q 353 922 353 1747 
Q 353 2572 751 3078 
Q 1150 3584 1784 3584 
Q 2172 3584 2448 3432 
Q 2725 3281 2906 2969 
z
M 947 1747 
Q 947 1113 1208 752 
Q 1469 391 1925 391 
Q 2381 391 2643 752 
Q 2906 1113 2906 1747 
Q 2906 2381 2643 2742 
Q 2381 3103 1925 3103 
Q 1469 3103 1208 2742 
Q 947 2381 947 1747 
z
" transform="scale(0.015625)"/>
       <path id="DejaVuSans-29" d="M 513 4856 
L 1013 4856 
Q 1481 4119 1714 3412 
Q 1947 2706 1947 2009 
Q 1947 1309 1714 600 
Q 1481 -109 1013 -844 
L 513 -844 
Q 928 -128 1133 580 
Q 1338 1288 1338 2009 
Q 1338 2731 1133 3434 
Q 928 4138 513 4856 
z
" transform="scale(0.015625)"/>
      </defs>
      <use xlink:href="#DejaVuSans-54"/>
      <use xlink:href="#DejaVuSans-69" transform="translate(57.958984 0)"/>
      <use xlink:href="#DejaVuSans-6d" transform="translate(85.742188 0)"/>
      <use xlink:href="#DejaVuSans-65" transform="translate(183.154297 0)"/>
      <use xlink:href="#DejaVuSans-20" transform="translate(244.677734 0)"/>
      <use xlink:href="#DejaVuSans-28" transform="translate(276.464844 0)"/>
      <use xlink:href="#DejaVuSans-64" transform="translate(315.478516 0)"/>
      <use xlink:href="#DejaVuSans-29" transform="translate(378.955078 0)"/>
     </g>
    </g>
   </g>
   <g id="matplotlib.axis_2">
    <g id="ytick_1">
     <g id="line2d_6">
      <defs>
       <path id="m5e6842d394" d="M 0 0 
L -3.5 0 
" style="stroke: #000000; stroke-width: 0.8"/>
      </defs>
      <g>
       <use xlink:href="#m5e6842d394" x="47.1125" y="186.514522" style="stroke: #000000; stroke-width: 0.8"/>
      </g>
     </g>
     <g id="text_7">
      <!-- 0 -->
      <g transform="translate(28.66 193.353116) scale(0.18 -0.18)">
       <use xlink:href="#DejaVuSans-30"/>
      </g>
     </g>
    </g>
    <g id="ytick_2">
     <g id="line2d_7">
      <g>
       <use xlink:href="#m5e6842d394" x="47.1125" y="168.675647" style="stroke: #000000; stroke-width: 0.8"/>
      </g>
     </g>
     <g id="text_8">
      <!-- 1 -->
      <g transform="translate(28.66 175.514241) scale(0.18 -0.18)">
       <defs>
        <path id="DejaVuSans-31" d="M 794 531 
L 1825 531 
L 1825 4091 
L 703 3866 
L 703 4441 
L 1819 4666 
L 2450 4666 
L 2450 531 
L 3481 531 
L 3481 0 
L 794 0 
L 794 531 
z
" transform="scale(0.015625)"/>
       </defs>
       <use xlink:href="#DejaVuSans-31"/>
      </g>
     </g>
    </g>
    <g id="ytick_3">
     <g id="line2d_8">
      <g>
       <use xlink:href="#m5e6842d394" x="47.1125" y="150.836773" style="stroke: #000000; stroke-width: 0.8"/>
      </g>
     </g>
     <g id="text_9">
      <!-- 2 -->
      <g transform="translate(28.66 157.675366) scale(0.18 -0.18)">
       <use xlink:href="#DejaVuSans-32"/>
      </g>
     </g>
    </g>
    <g id="ytick_4">
     <g id="line2d_9">
      <g>
       <use xlink:href="#m5e6842d394" x="47.1125" y="132.997898" style="stroke: #000000; stroke-width: 0.8"/>
      </g>
     </g>
     <g id="text_10">
      <!-- 3 -->
      <g transform="translate(28.66 139.836492) scale(0.18 -0.18)">
       <defs>
        <path id="DejaVuSans-33" d="M 2597 2516 
Q 3050 2419 3304 2112 
Q 3559 1806 3559 1356 
Q 3559 666 3084 287 
Q 2609 -91 1734 -91 
Q 1441 -91 1130 -33 
Q 819 25 488 141 
L 488 750 
Q 750 597 1062 519 
Q 1375 441 1716 441 
Q 2309 441 2620 675 
Q 2931 909 2931 1356 
Q 2931 1769 2642 2001 
Q 2353 2234 1838 2234 
L 1294 2234 
L 1294 2753 
L 1863 2753 
Q 2328 2753 2575 2939 
Q 2822 3125 2822 3475 
Q 2822 3834 2567 4026 
Q 2313 4219 1838 4219 
Q 1578 4219 1281 4162 
Q 984 4106 628 3988 
L 628 4550 
Q 988 4650 1302 4700 
Q 1616 4750 1894 4750 
Q 2613 4750 3031 4423 
Q 3450 4097 3450 3541 
Q 3450 3153 3228 2886 
Q 3006 2619 2597 2516 
z
" transform="scale(0.015625)"/>
       </defs>
       <use xlink:href="#DejaVuSans-33"/>
      </g>
     </g>
    </g>
    <g id="ytick_5">
     <g id="line2d_10">
      <g>
       <use xlink:href="#m5e6842d394" x="47.1125" y="115.159023" style="stroke: #000000; stroke-width: 0.8"/>
      </g>
     </g>
     <g id="text_11">
      <!-- 4 -->
      <g transform="translate(28.66 121.997617) scale(0.18 -0.18)">
       <use xlink:href="#DejaVuSans-34"/>
      </g>
     </g>
    </g>
    <g id="ytick_6">
     <g id="line2d_11">
      <g>
       <use xlink:href="#m5e6842d394" x="47.1125" y="97.320149" style="stroke: #000000; stroke-width: 0.8"/>
      </g>
     </g>
     <g id="text_12">
      <!-- 5 -->
      <g transform="translate(28.66 104.158742) scale(0.18 -0.18)">
       <defs>
        <path id="DejaVuSans-35" d="M 691 4666 
L 3169 4666 
L 3169 4134 
L 1269 4134 
L 1269 2991 
Q 1406 3038 1543 3061 
Q 1681 3084 1819 3084 
Q 2600 3084 3056 2656 
Q 3513 2228 3513 1497 
Q 3513 744 3044 326 
Q 2575 -91 1722 -91 
Q 1428 -91 1123 -41 
Q 819 9 494 109 
L 494 744 
Q 775 591 1075 516 
Q 1375 441 1709 441 
Q 2250 441 2565 725 
Q 2881 1009 2881 1497 
Q 2881 1984 2565 2268 
Q 2250 2553 1709 2553 
Q 1456 2553 1204 2497 
Q 953 2441 691 2322 
L 691 4666 
z
" transform="scale(0.015625)"/>
       </defs>
       <use xlink:href="#DejaVuSans-35"/>
      </g>
     </g>
    </g>
    <g id="ytick_7">
     <g id="line2d_12">
      <g>
       <use xlink:href="#m5e6842d394" x="47.1125" y="79.481274" style="stroke: #000000; stroke-width: 0.8"/>
      </g>
     </g>
     <g id="text_13">
      <!-- 6 -->
      <g transform="translate(28.66 86.319868) scale(0.18 -0.18)">
       <use xlink:href="#DejaVuSans-36"/>
      </g>
     </g>
    </g>
    <g id="ytick_8">
     <g id="line2d_13">
      <g>
       <use xlink:href="#m5e6842d394" x="47.1125" y="61.642399" style="stroke: #000000; stroke-width: 0.8"/>
      </g>
     </g>
     <g id="text_14">
      <!-- 7 -->
      <g transform="translate(28.66 68.480993) scale(0.18 -0.18)">
       <defs>
        <path id="DejaVuSans-37" d="M 525 4666 
L 3525 4666 
L 3525 4397 
L 1831 0 
L 1172 0 
L 2766 4134 
L 525 4134 
L 525 4666 
z
" transform="scale(0.015625)"/>
       </defs>
       <use xlink:href="#DejaVuSans-37"/>
      </g>
     </g>
    </g>
    <g id="ytick_9">
     <g id="line2d_14">
      <g>
       <use xlink:href="#m5e6842d394" x="47.1125" y="43.803525" style="stroke: #000000; stroke-width: 0.8"/>
      </g>
     </g>
     <g id="text_15">
      <!-- 8 -->
      <g transform="translate(28.66 50.642118) scale(0.18 -0.18)">
       <use xlink:href="#DejaVuSans-38"/>
      </g>
     </g>
    </g>
    <g id="text_16">
     <!-- Log$_{10}$ Virus -->
     <g transform="translate(20.88 165.379023) rotate(-90) scale(0.18 -0.18)">
      <defs>
       <path id="DejaVuSans-4c" d="M 628 4666 
L 1259 4666 
L 1259 531 
L 3531 531 
L 3531 0 
L 628 0 
L 628 4666 
z
" transform="scale(0.015625)"/>
       <path id="DejaVuSans-6f" d="M 1959 3097 
Q 1497 3097 1228 2736 
Q 959 2375 959 1747 
Q 959 1119 1226 758 
Q 1494 397 1959 397 
Q 2419 397 2687 759 
Q 2956 1122 2956 1747 
Q 2956 2369 2687 2733 
Q 2419 3097 1959 3097 
z
M 1959 3584 
Q 2709 3584 3137 3096 
Q 3566 2609 3566 1747 
Q 3566 888 3137 398 
Q 2709 -91 1959 -91 
Q 1206 -91 779 398 
Q 353 888 353 1747 
Q 353 2609 779 3096 
Q 1206 3584 1959 3584 
z
" transform="scale(0.015625)"/>
       <path id="DejaVuSans-67" d="M 2906 1791 
Q 2906 2416 2648 2759 
Q 2391 3103 1925 3103 
Q 1463 3103 1205 2759 
Q 947 2416 947 1791 
Q 947 1169 1205 825 
Q 1463 481 1925 481 
Q 2391 481 2648 825 
Q 2906 1169 2906 1791 
z
M 3481 434 
Q 3481 -459 3084 -895 
Q 2688 -1331 1869 -1331 
Q 1566 -1331 1297 -1286 
Q 1028 -1241 775 -1147 
L 775 -588 
Q 1028 -725 1275 -790 
Q 1522 -856 1778 -856 
Q 2344 -856 2625 -561 
Q 2906 -266 2906 331 
L 2906 616 
Q 2728 306 2450 153 
Q 2172 0 1784 0 
Q 1141 0 747 490 
Q 353 981 353 1791 
Q 353 2603 747 3093 
Q 1141 3584 1784 3584 
Q 2172 3584 2450 3431 
Q 2728 3278 2906 2969 
L 2906 3500 
L 3481 3500 
L 3481 434 
z
" transform="scale(0.015625)"/>
       <path id="DejaVuSans-56" d="M 1831 0 
L 50 4666 
L 709 4666 
L 2188 738 
L 3669 4666 
L 4325 4666 
L 2547 0 
L 1831 0 
z
" transform="scale(0.015625)"/>
       <path id="DejaVuSans-72" d="M 2631 2963 
Q 2534 3019 2420 3045 
Q 2306 3072 2169 3072 
Q 1681 3072 1420 2755 
Q 1159 2438 1159 1844 
L 1159 0 
L 581 0 
L 581 3500 
L 1159 3500 
L 1159 2956 
Q 1341 3275 1631 3429 
Q 1922 3584 2338 3584 
Q 2397 3584 2469 3576 
Q 2541 3569 2628 3553 
L 2631 2963 
z
" transform="scale(0.015625)"/>
       <path id="DejaVuSans-75" d="M 544 1381 
L 544 3500 
L 1119 3500 
L 1119 1403 
Q 1119 906 1312 657 
Q 1506 409 1894 409 
Q 2359 409 2629 706 
Q 2900 1003 2900 1516 
L 2900 3500 
L 3475 3500 
L 3475 0 
L 2900 0 
L 2900 538 
Q 2691 219 2414 64 
Q 2138 -91 1772 -91 
Q 1169 -91 856 284 
Q 544 659 544 1381 
z
M 1991 3584 
L 1991 3584 
z
" transform="scale(0.015625)"/>
       <path id="DejaVuSans-73" d="M 2834 3397 
L 2834 2853 
Q 2591 2978 2328 3040 
Q 2066 3103 1784 3103 
Q 1356 3103 1142 2972 
Q 928 2841 928 2578 
Q 928 2378 1081 2264 
Q 1234 2150 1697 2047 
L 1894 2003 
Q 2506 1872 2764 1633 
Q 3022 1394 3022 966 
Q 3022 478 2636 193 
Q 2250 -91 1575 -91 
Q 1294 -91 989 -36 
Q 684 19 347 128 
L 347 722 
Q 666 556 975 473 
Q 1284 391 1588 391 
Q 1994 391 2212 530 
Q 2431 669 2431 922 
Q 2431 1156 2273 1281 
Q 2116 1406 1581 1522 
L 1381 1569 
Q 847 1681 609 1914 
Q 372 2147 372 2553 
Q 372 3047 722 3315 
Q 1072 3584 1716 3584 
Q 2034 3584 2315 3537 
Q 2597 3491 2834 3397 
z
" transform="scale(0.015625)"/>
      </defs>
      <use xlink:href="#DejaVuSans-4c" transform="translate(0 0.015625)"/>
      <use xlink:href="#DejaVuSans-6f" transform="translate(55.712891 0.015625)"/>
      <use xlink:href="#DejaVuSans-67" transform="translate(116.894531 0.015625)"/>
      <use xlink:href="#DejaVuSans-31" transform="translate(181.328125 -16.390625) scale(0.7)"/>
      <use xlink:href="#DejaVuSans-30" transform="translate(225.864258 -16.390625) scale(0.7)"/>
      <use xlink:href="#DejaVuSans-20" transform="translate(273.134766 0.015625)"/>
      <use xlink:href="#DejaVuSans-56" transform="translate(304.921875 0.015625)"/>
      <use xlink:href="#DejaVuSans-69" transform="translate(373.330078 0.015625)"/>
      <use xlink:href="#DejaVuSans-72" transform="translate(401.113281 0.015625)"/>
      <use xlink:href="#DejaVuSans-75" transform="translate(442.226562 0.015625)"/>
      <use xlink:href="#DejaVuSans-73" transform="translate(505.605469 0.015625)"/>
     </g>
    </g>
   </g>
   <g id="line2d_15">
    <path d="M 53.599364 186.514522 
L 56.207148 186.514522 
L 56.859094 184.543425 
L 61.422717 161.574817 
L 73.157746 104.944204 
L 74.461638 99.369343 
L 75.76553 94.701829 
L 77.069422 91.243423 
L 77.721369 89.981688 
L 78.373315 88.982923 
L 79.025261 88.210512 
L 80.329153 87.168468 
L 81.633045 86.572137 
L 82.936937 86.250073 
L 84.892775 86.079669 
L 86.848614 86.136475 
L 90.108344 86.506551 
L 94.671967 87.31138 
L 100.539481 88.585943 
L 106.406996 90.064033 
L 112.274511 91.768576 
L 117.49008 93.497391 
L 122.705648 95.447458 
L 127.269271 97.363403 
L 131.832893 99.527026 
L 135.74457 101.65085 
L 139.0043 103.694295 
L 141.612085 105.590995 
L 143.567923 107.234911 
L 145.523761 109.155731 
L 146.827653 110.657405 
L 148.131545 112.418344 
L 149.435438 114.568992 
L 150.73933 117.372145 
L 151.391276 119.19178 
L 152.043222 121.497914 
L 152.695168 124.678983 
L 153.347114 129.914667 
L 153.99906 147.030826 
L 154.651006 186.514522 
L 183.336634 186.514522 
L 183.336634 186.514522 
" clip-path="url(#p3ba7600f15)" style="fill: none; stroke: #ff1493; stroke-width: 1.5; stroke-linecap: square"/>
   </g>
   <g id="line2d_16">
    <path d="M 53.599364 186.514522 
L 56.207148 186.514522 
L 56.859094 184.560139 
L 60.77077 165.021114 
L 64.030501 149.890109 
L 69.246069 126.108262 
L 74.461638 101.544192 
L 75.76553 96.483939 
L 77.069422 92.537504 
L 77.721369 91.033314 
L 78.373315 89.826934 
L 79.025261 88.877844 
L 79.677207 88.145768 
L 80.981099 87.161735 
L 82.284991 86.604236 
L 83.588883 86.310892 
L 85.544722 86.174448 
L 87.50056 86.260696 
L 90.76029 86.678745 
L 94.671967 87.419979 
L 99.887535 88.626036 
L 105.75505 90.208711 
L 110.970619 91.837184 
L 116.186187 93.714953 
L 120.74981 95.600353 
L 124.661487 97.437349 
L 128.573163 99.541068 
L 131.832893 101.576743 
L 134.685158 103.666468 
L 136.396516 105.11984 
L 138.352354 107.048256 
L 139.656246 108.558811 
L 140.960139 110.333804 
L 142.264031 112.507903 
L 143.567923 115.355123 
L 144.219869 117.214475 
L 144.871815 119.587974 
L 145.523761 122.904433 
L 146.175707 128.53894 
L 146.827653 151.06181 
L 147.479599 186.514522 
L 183.336634 186.514522 
L 183.336634 186.514522 
" clip-path="url(#p3ba7600f15)" style="fill: none; stroke: #9370db; stroke-width: 1.5; stroke-linecap: square"/>
   </g>
   <g id="line2d_17">
    <path d="M 53.599364 186.514522 
L 56.207148 186.514522 
L 56.859094 184.595228 
L 60.118824 168.459285 
L 62.726609 156.817016 
L 65.334393 146.546015 
L 68.594123 133.958737 
L 71.201908 122.590011 
L 76.417476 98.987442 
L 77.721369 94.482257 
L 79.025261 91.172435 
L 79.677207 89.963546 
L 80.329153 89.014883 
L 80.981099 88.283228 
L 82.284991 87.302569 
L 83.588883 86.75428 
L 84.892775 86.474335 
L 86.848614 86.364613 
L 88.804452 86.484383 
L 91.412236 86.854033 
L 95.323913 87.6677 
L 99.887535 88.849305 
L 105.103104 90.435692 
L 109.666727 92.049158 
L 113.578403 93.640767 
L 117.49008 95.477558 
L 120.74981 97.251304 
L 123.357594 98.882501 
L 125.965379 100.773142 
L 127.921217 102.429284 
L 129.877055 104.383091 
L 131.180947 105.924797 
L 132.484839 107.750254 
L 133.788732 110.010254 
L 135.092624 113.022468 
L 135.74457 115.033153 
L 136.396516 117.670213 
L 137.048462 121.55172 
L 137.700408 129.249827 
L 138.352354 169.654256 
L 139.0043 186.514522 
L 183.336634 186.514522 
L 183.336634 186.514522 
" clip-path="url(#p3ba7600f15)" style="fill: none; stroke: #00ced1; stroke-width: 1.5; stroke-linecap: square"/>
   </g>
   <g id="line2d_18">
    <path d="M 53.599364 186.514522 
L 56.207148 186.514522 
L 56.859094 184.653049 
L 59.466878 171.939996 
L 61.422717 163.443674 
L 62.726609 158.629003 
L 64.030501 154.621828 
L 65.334393 151.476238 
L 65.986339 150.242468 
L 66.638285 149.266297 
L 67.290231 148.558062 
L 67.942177 148.18152 
L 68.594123 148.226571 
L 69.246069 148.836341 
L 69.898016 150.274871 
L 70.549962 152.939168 
L 71.853854 160.899383 
L 72.5058 163.756097 
L 73.809692 168.001846 
L 75.113584 171.438299 
L 77.069422 175.84528 
L 79.677207 180.962546 
L 82.284991 185.640024 
L 82.936937 186.514522 
L 183.336634 186.514522 
L 183.336634 186.514522 
" clip-path="url(#p3ba7600f15)" style="fill: none; stroke: #0000ff; stroke-width: 1.5; stroke-linecap: square"/>
   </g>
   <g id="line2d_19">
    <path d="M 53.599364 186.514522 
L 56.207148 186.514522 
L 56.859094 184.904354 
L 58.814932 176.054858 
L 60.118824 171.253415 
L 60.77077 169.361422 
L 61.422717 167.924843 
L 62.074663 167.006945 
L 62.726609 166.666185 
L 63.378555 166.943369 
L 64.030501 167.844049 
L 65.334393 170.904383 
L 67.290231 175.728397 
L 69.246069 179.710493 
L 71.201908 183.175169 
L 73.157746 186.320729 
L 73.809692 186.514522 
L 183.336634 186.514522 
L 183.336634 186.514522 
" clip-path="url(#p3ba7600f15)" style="fill: none; stroke: #008000; stroke-width: 1.5; stroke-linecap: square"/>
   </g>
   <g id="line2d_20">
    <path d="M 53.599364 186.514522 
L 56.207148 186.514522 
L 56.859094 185.208802 
L 58.162986 179.613506 
L 59.466878 175.17803 
L 60.118824 173.621378 
L 60.77077 172.586539 
L 61.422717 172.164884 
L 62.074663 172.376734 
L 62.726609 173.186621 
L 64.030501 175.904644 
L 65.986339 180.276833 
L 67.942177 184.029602 
L 69.246069 186.275204 
L 69.898016 186.514522 
L 183.336634 186.514522 
L 183.336634 186.514522 
" clip-path="url(#p3ba7600f15)" style="fill: none; stroke: #ff8c00; stroke-width: 1.5; stroke-linecap: square"/>
   </g>
   <g id="line2d_21">
    <path d="M 53.599364 186.514522 
L 56.207148 186.514522 
L 56.859094 185.748083 
L 58.162986 180.922261 
L 58.814932 179.134359 
L 59.466878 177.858609 
L 60.118824 177.221342 
L 60.77077 177.220303 
L 61.422717 177.8235 
L 62.074663 178.861492 
L 65.334393 185.682865 
L 65.986339 186.514522 
L 183.336634 186.514522 
L 183.336634 186.514522 
" clip-path="url(#p3ba7600f15)" style="fill: none; stroke: #ffd700; stroke-width: 1.5; stroke-linecap: square"/>
   </g>
   <g id="line2d_22">
    <path d="M 53.599364 186.514522 
L 56.859094 186.514522 
L 57.51104 184.599892 
L 58.162986 183.058011 
L 58.814932 182.121628 
L 59.466878 181.825278 
L 60.118824 182.153923 
L 60.77077 183.038717 
L 62.074663 185.645282 
L 62.726609 186.514522 
L 183.336634 186.514522 
L 183.336634 186.514522 
" clip-path="url(#p3ba7600f15)" style="fill: none; stroke: #ff0000; stroke-width: 1.5; stroke-linecap: square"/>
   </g>
   <g id="line2d_23">
    <path d="M 53.599364 186.514522 
L 56.207148 186.514522 
L 56.859094 184.521799 
L 65.986339 137.857991 
L 71.853854 108.445033 
L 73.809692 99.725765 
L 75.113584 94.952983 
L 76.417476 91.391197 
L 77.069422 90.077975 
L 77.721369 89.041915 
L 78.373315 88.237284 
L 79.677207 87.147381 
L 80.981099 86.517681 
L 82.284991 86.16975 
L 84.240829 85.966435 
L 86.196668 85.991769 
L 89.456398 86.306452 
L 94.020021 87.021292 
L 100.539481 88.285781 
L 107.058942 89.756068 
L 113.578403 91.450966 
L 120.097864 93.374046 
L 126.617325 95.517376 
L 133.136786 97.896128 
L 139.0043 100.289007 
L 143.567923 102.377263 
L 147.479599 104.391787 
L 150.902316 106.397647 
L 153.347114 108.027662 
L 155.954898 110.027755 
L 157.910737 111.782886 
L 159.866575 113.867591 
L 161.170467 115.530449 
L 162.474359 117.528855 
L 163.778251 120.064887 
L 164.430198 121.658477 
L 165.082144 123.603908 
L 165.73409 126.119374 
L 166.386036 129.698275 
L 167.119475 137.235744 
L 167.689928 162.955841 
L 168.341874 186.514522 
L 183.336634 186.514522 
L 183.336634 186.514522 
" clip-path="url(#p3ba7600f15)" style="fill: none; stroke: #000000; stroke-width: 2; stroke-linecap: square"/>
   </g>
   <g id="patch_3">
    <path d="M 47.1125 186.514522 
L 47.1125 43.803525 
" style="fill: none; stroke: #000000; stroke-width: 2; stroke-linejoin: miter; stroke-linecap: square"/>
   </g>
   <g id="patch_4">
    <path d="M 189.823497 186.514522 
L 189.823497 43.803525 
" style="fill: none; stroke: #000000; stroke-width: 2; stroke-linejoin: miter; stroke-linecap: square"/>
   </g>
   <g id="patch_5">
    <path d="M 47.1125 186.514522 
L 189.823497 186.514522 
" style="fill: none; stroke: #000000; stroke-width: 2; stroke-linejoin: miter; stroke-linecap: square"/>
   </g>
   <g id="patch_6">
    <path d="M 47.1125 43.803525 
L 189.823497 43.803525 
" style="fill: none; stroke: #000000; stroke-width: 2; stroke-linejoin: miter; stroke-linecap: square"/>
   </g>
   <g id="text_17">
    <!-- Individual 103 -->
    <g transform="translate(47.499249 22.396875) scale(0.2 -0.2)">
     <defs>
      <path id="DejaVuSans-49" d="M 628 4666 
L 1259 4666 
L 1259 0 
L 628 0 
L 628 4666 
z
" transform="scale(0.015625)"/>
      <path id="DejaVuSans-6e" d="M 3513 2113 
L 3513 0 
L 2938 0 
L 2938 2094 
Q 2938 2591 2744 2837 
Q 2550 3084 2163 3084 
Q 1697 3084 1428 2787 
Q 1159 2491 1159 1978 
L 1159 0 
L 581 0 
L 581 3500 
L 1159 3500 
L 1159 2956 
Q 1366 3272 1645 3428 
Q 1925 3584 2291 3584 
Q 2894 3584 3203 3211 
Q 3513 2838 3513 2113 
z
" transform="scale(0.015625)"/>
      <path id="DejaVuSans-76" d="M 191 3500 
L 800 3500 
L 1894 563 
L 2988 3500 
L 3597 3500 
L 2284 0 
L 1503 0 
L 191 3500 
z
" transform="scale(0.015625)"/>
      <path id="DejaVuSans-61" d="M 2194 1759 
Q 1497 1759 1228 1600 
Q 959 1441 959 1056 
Q 959 750 1161 570 
Q 1363 391 1709 391 
Q 2188 391 2477 730 
Q 2766 1069 2766 1631 
L 2766 1759 
L 2194 1759 
z
M 3341 1997 
L 3341 0 
L 2766 0 
L 2766 531 
Q 2569 213 2275 61 
Q 1981 -91 1556 -91 
Q 1019 -91 701 211 
Q 384 513 384 1019 
Q 384 1609 779 1909 
Q 1175 2209 1959 2209 
L 2766 2209 
L 2766 2266 
Q 2766 2663 2505 2880 
Q 2244 3097 1772 3097 
Q 1472 3097 1187 3025 
Q 903 2953 641 2809 
L 641 3341 
Q 956 3463 1253 3523 
Q 1550 3584 1831 3584 
Q 2591 3584 2966 3190 
Q 3341 2797 3341 1997 
z
" transform="scale(0.015625)"/>
      <path id="DejaVuSans-6c" d="M 603 4863 
L 1178 4863 
L 1178 0 
L 603 0 
L 603 4863 
z
" transform="scale(0.015625)"/>
     </defs>
     <use xlink:href="#DejaVuSans-49"/>
     <use xlink:href="#DejaVuSans-6e" transform="translate(29.492188 0)"/>
     <use xlink:href="#DejaVuSans-64" transform="translate(92.871094 0)"/>
     <use xlink:href="#DejaVuSans-69" transform="translate(156.347656 0)"/>
     <use xlink:href="#DejaVuSans-76" transform="translate(184.130859 0)"/>
     <use xlink:href="#DejaVuSans-69" transform="translate(243.310547 0)"/>
     <use xlink:href="#DejaVuSans-64" transform="translate(271.09375 0)"/>
     <use xlink:href="#DejaVuSans-75" transform="translate(334.570312 0)"/>
     <use xlink:href="#DejaVuSans-61" transform="translate(397.949219 0)"/>
     <use xlink:href="#DejaVuSans-6c" transform="translate(459.228516 0)"/>
     <use xlink:href="#DejaVuSans-20" transform="translate(487.011719 0)"/>
     <use xlink:href="#DejaVuSans-31" transform="translate(518.798828 0)"/>
     <use xlink:href="#DejaVuSans-30" transform="translate(582.421875 0)"/>
     <use xlink:href="#DejaVuSans-33" transform="translate(646.044922 0)"/>
    </g>
   </g>
  </g>
  <g id="axes_2">
   <g id="patch_7">
    <path d="M 232.636797 186.514522 
L 375.347794 186.514522 
L 375.347794 43.803525 
L 232.636797 43.803525 
z
" style="fill: #ffffff"/>
   </g>
   <g id="matplotlib.axis_3">
    <g id="xtick_6">
     <g id="line2d_24">
      <g>
       <use xlink:href="#mf154f3d9ef" x="239.12366" y="186.514522" style="stroke: #000000; stroke-width: 0.8"/>
      </g>
     </g>
     <g id="text_18">
      <!-- 0 -->
      <g transform="translate(233.39741 207.19171) scale(0.18 -0.18)">
       <use xlink:href="#DejaVuSans-30"/>
      </g>
     </g>
    </g>
    <g id="xtick_7">
     <g id="line2d_25">
      <g>
       <use xlink:href="#mf154f3d9ef" x="271.557978" y="186.514522" style="stroke: #000000; stroke-width: 0.8"/>
      </g>
     </g>
     <g id="text_19">
      <!-- 2 -->
      <g transform="translate(265.831728 207.19171) scale(0.18 -0.18)">
       <use xlink:href="#DejaVuSans-32"/>
      </g>
     </g>
    </g>
    <g id="xtick_8">
     <g id="line2d_26">
      <g>
       <use xlink:href="#mf154f3d9ef" x="303.992295" y="186.514522" style="stroke: #000000; stroke-width: 0.8"/>
      </g>
     </g>
     <g id="text_20">
      <!-- 4 -->
      <g transform="translate(298.266045 207.19171) scale(0.18 -0.18)">
       <use xlink:href="#DejaVuSans-34"/>
      </g>
     </g>
    </g>
    <g id="xtick_9">
     <g id="line2d_27">
      <g>
       <use xlink:href="#mf154f3d9ef" x="336.426613" y="186.514522" style="stroke: #000000; stroke-width: 0.8"/>
      </g>
     </g>
     <g id="text_21">
      <!-- 6 -->
      <g transform="translate(330.700363 207.19171) scale(0.18 -0.18)">
       <use xlink:href="#DejaVuSans-36"/>
      </g>
     </g>
    </g>
    <g id="xtick_10">
     <g id="line2d_28">
      <g>
       <use xlink:href="#mf154f3d9ef" x="368.860931" y="186.514522" style="stroke: #000000; stroke-width: 0.8"/>
      </g>
     </g>
     <g id="text_22">
      <!-- 8 -->
      <g transform="translate(363.134681 207.19171) scale(0.18 -0.18)">
       <use xlink:href="#DejaVuSans-38"/>
      </g>
     </g>
    </g>
    <g id="text_23">
     <!-- Time (d) -->
     <g transform="translate(262.19542 230.132022) scale(0.2 -0.2)">
      <use xlink:href="#DejaVuSans-54"/>
      <use xlink:href="#DejaVuSans-69" transform="translate(57.958984 0)"/>
      <use xlink:href="#DejaVuSans-6d" transform="translate(85.742188 0)"/>
      <use xlink:href="#DejaVuSans-65" transform="translate(183.154297 0)"/>
      <use xlink:href="#DejaVuSans-20" transform="translate(244.677734 0)"/>
      <use xlink:href="#DejaVuSans-28" transform="translate(276.464844 0)"/>
      <use xlink:href="#DejaVuSans-64" transform="translate(315.478516 0)"/>
      <use xlink:href="#DejaVuSans-29" transform="translate(378.955078 0)"/>
     </g>
    </g>
   </g>
   <g id="matplotlib.axis_4">
    <g id="ytick_10">
     <g id="line2d_29">
      <g>
       <use xlink:href="#m5e6842d394" x="232.636797" y="147.593341" style="stroke: #000000; stroke-width: 0.8"/>
      </g>
     </g>
     <g id="text_24">
      <!-- 4 -->
      <g transform="translate(214.184297 154.431935) scale(0.18 -0.18)">
       <use xlink:href="#DejaVuSans-34"/>
      </g>
     </g>
    </g>
    <g id="ytick_11">
     <g id="line2d_30">
      <g>
       <use xlink:href="#m5e6842d394" x="232.636797" y="121.645887" style="stroke: #000000; stroke-width: 0.8"/>
      </g>
     </g>
     <g id="text_25">
      <!-- 5 -->
      <g transform="translate(214.184297 128.484481) scale(0.18 -0.18)">
       <use xlink:href="#DejaVuSans-35"/>
      </g>
     </g>
    </g>
    <g id="ytick_12">
     <g id="line2d_31">
      <g>
       <use xlink:href="#m5e6842d394" x="232.636797" y="95.698433" style="stroke: #000000; stroke-width: 0.8"/>
      </g>
     </g>
     <g id="text_26">
      <!-- 6 -->
      <g transform="translate(214.184297 102.537027) scale(0.18 -0.18)">
       <use xlink:href="#DejaVuSans-36"/>
      </g>
     </g>
    </g>
    <g id="ytick_13">
     <g id="line2d_32">
      <g>
       <use xlink:href="#m5e6842d394" x="232.636797" y="69.750979" style="stroke: #000000; stroke-width: 0.8"/>
      </g>
     </g>
     <g id="text_27">
      <!-- 7 -->
      <g transform="translate(214.184297 76.589572) scale(0.18 -0.18)">
       <use xlink:href="#DejaVuSans-37"/>
      </g>
     </g>
    </g>
    <g id="ytick_14">
     <g id="line2d_33">
      <g>
       <use xlink:href="#m5e6842d394" x="232.636797" y="43.803525" style="stroke: #000000; stroke-width: 0.8"/>
      </g>
     </g>
     <g id="text_28">
      <!-- 8 -->
      <g transform="translate(214.184297 50.642118) scale(0.18 -0.18)">
       <use xlink:href="#DejaVuSans-38"/>
      </g>
     </g>
    </g>
    <g id="text_29">
     <!-- Log$_{10}$ T cells -->
     <g transform="translate(206.404297 171.139023) rotate(-90) scale(0.18 -0.18)">
      <defs>
       <path id="DejaVuSans-63" d="M 3122 3366 
L 3122 2828 
Q 2878 2963 2633 3030 
Q 2388 3097 2138 3097 
Q 1578 3097 1268 2742 
Q 959 2388 959 1747 
Q 959 1106 1268 751 
Q 1578 397 2138 397 
Q 2388 397 2633 464 
Q 2878 531 3122 666 
L 3122 134 
Q 2881 22 2623 -34 
Q 2366 -91 2075 -91 
Q 1284 -91 818 406 
Q 353 903 353 1747 
Q 353 2603 823 3093 
Q 1294 3584 2113 3584 
Q 2378 3584 2631 3529 
Q 2884 3475 3122 3366 
z
" transform="scale(0.015625)"/>
      </defs>
      <use xlink:href="#DejaVuSans-4c" transform="translate(0 0.015625)"/>
      <use xlink:href="#DejaVuSans-6f" transform="translate(55.712891 0.015625)"/>
      <use xlink:href="#DejaVuSans-67" transform="translate(116.894531 0.015625)"/>
      <use xlink:href="#DejaVuSans-31" transform="translate(181.328125 -16.390625) scale(0.7)"/>
      <use xlink:href="#DejaVuSans-30" transform="translate(225.864258 -16.390625) scale(0.7)"/>
      <use xlink:href="#DejaVuSans-20" transform="translate(273.134766 0.015625)"/>
      <use xlink:href="#DejaVuSans-54" transform="translate(304.921875 0.015625)"/>
      <use xlink:href="#DejaVuSans-20" transform="translate(366.005859 0.015625)"/>
      <use xlink:href="#DejaVuSans-63" transform="translate(397.792969 0.015625)"/>
      <use xlink:href="#DejaVuSans-65" transform="translate(452.773438 0.015625)"/>
      <use xlink:href="#DejaVuSans-6c" transform="translate(514.296875 0.015625)"/>
      <use xlink:href="#DejaVuSans-6c" transform="translate(542.080078 0.015625)"/>
      <use xlink:href="#DejaVuSans-73" transform="translate(569.863281 0.015625)"/>
     </g>
    </g>
   </g>
   <g id="line2d_34">
    <path d="M 239.471583 242.491397 
L 239.775606 234.72156 
L 240.427552 226.537759 
L 241.731445 215.58111 
L 245.643121 186.457838 
L 248.902851 163.279373 
L 250.85869 150.713801 
L 252.162582 143.415779 
L 253.466474 137.280393 
L 254.770366 132.362968 
L 256.074258 128.512418 
L 257.378151 125.490689 
L 258.682043 123.07444 
L 259.985935 121.095146 
L 261.289827 119.436144 
L 263.245665 117.381 
L 265.201503 115.700204 
L 267.157342 114.28886 
L 269.765126 112.70462 
L 273.676803 110.681082 
L 277.588479 108.611312 
L 280.196263 106.982368 
L 283.455994 104.667641 
L 288.671562 100.938807 
L 291.279347 99.362013 
L 293.887131 98.084118 
L 296.494915 97.122399 
L 299.1027 96.461341 
L 301.710484 96.065641 
L 304.318268 95.89213 
L 307.577999 95.920696 
L 311.489675 96.213937 
L 316.705244 96.875775 
L 324.528597 98.141114 
L 344.086979 101.62478 
L 368.860931 106.089213 
L 368.860931 106.089213 
" clip-path="url(#pe3513cd5f0)" style="fill: none; stroke: #ff1493; stroke-width: 1.5; stroke-linecap: square"/>
   </g>
   <g id="line2d_35">
    <path d="M 239.374085 242.491397 
L 239.775606 228.234721 
L 240.427552 220.050895 
L 241.731445 209.095791 
L 245.643121 180.037725 
L 248.902851 157.184405 
L 250.85869 144.961818 
L 252.162582 137.836027 
L 253.466474 131.751822 
L 254.770366 126.768818 
L 256.074258 122.798403 
L 257.378151 119.655992 
L 258.682043 117.140141 
L 259.985935 115.085458 
L 261.289827 113.370709 
L 263.245665 111.258003 
L 265.201503 109.540522 
L 267.157342 108.107369 
L 269.765126 106.517609 
L 272.37291 105.186438 
L 276.936533 103.16212 
L 282.152102 100.776964 
L 290.627401 96.715703 
L 293.235185 95.719387 
L 295.842969 94.938053 
L 298.450754 94.384355 
L 301.058538 94.047738 
L 304.318268 93.893823 
L 307.577999 93.978395 
L 311.489675 94.30799 
L 316.705244 94.991278 
L 324.528597 96.266114 
L 344.738926 99.869446 
L 368.860931 104.21649 
L 368.860931 104.21649 
" clip-path="url(#pe3513cd5f0)" style="fill: none; stroke: #9370db; stroke-width: 1.5; stroke-linecap: square"/>
   </g>
   <g id="line2d_36">
    <path d="M 239.319266 242.491397 
L 239.775606 221.747332 
L 240.427552 213.564147 
L 241.731445 202.612887 
L 245.643121 173.671168 
L 248.250905 155.605824 
L 250.206744 143.472582 
L 252.162582 133.092586 
L 253.466474 127.256915 
L 254.770366 122.297462 
L 256.074258 118.168713 
L 257.378151 114.788853 
L 258.682043 112.038511 
L 259.985935 109.786725 
L 261.289827 107.918063 
L 262.593719 106.340959 
L 264.549557 104.380274 
L 266.505396 102.775598 
L 268.461234 101.432058 
L 271.069018 99.942313 
L 273.676803 98.707839 
L 276.936533 97.407544 
L 282.152102 95.597816 
L 289.323509 93.317947 
L 293.235185 92.283681 
L 296.494915 91.637909 
L 299.754646 91.232223 
L 303.014376 91.068548 
L 306.274107 91.119439 
L 310.185783 91.404352 
L 315.401352 92.042115 
L 322.572759 93.173366 
L 338.219465 95.936006 
L 368.860931 101.456185 
L 368.860931 101.456185 
" clip-path="url(#pe3513cd5f0)" style="fill: none; stroke: #00ced1; stroke-width: 1.5; stroke-linecap: square"/>
   </g>
   <g id="line2d_37">
    <path d="M 239.284136 242.491397 
L 239.775606 215.259728 
L 240.427552 207.0749 
L 241.731445 196.125827 
L 244.991175 172.082866 
L 247.598959 154.148109 
L 249.554798 142.403207 
L 250.85869 135.715597 
L 252.162582 130.009816 
L 253.466474 125.25731 
L 254.770366 121.397668 
L 256.074258 118.368821 
L 257.378151 116.140158 
L 258.682043 114.582822 
L 259.985935 113.503903 
L 261.289827 112.762653 
L 262.593719 112.264695 
L 264.549557 111.83917 
L 266.505396 111.676322 
L 269.11318 111.715952 
L 272.37291 112.001461 
L 277.588479 112.708931 
L 288.671562 114.494659 
L 306.274107 117.550156 
L 368.860931 128.81739 
L 368.860931 128.81739 
" clip-path="url(#pe3513cd5f0)" style="fill: none; stroke: #0000ff; stroke-width: 1.5; stroke-linecap: square"/>
   </g>
   <g id="line2d_38">
    <path d="M 239.241727 242.491397 
L 239.775606 202.284447 
L 240.427552 194.089986 
L 241.731445 183.137665 
L 244.339229 164.187124 
L 246.295067 151.341401 
L 247.598959 143.97755 
L 248.902851 137.948698 
L 250.206744 133.338572 
L 251.510636 130.013804 
L 252.814528 127.67652 
L 254.11842 126.0262 
L 255.422312 124.854083 
L 256.726204 124.020999 
L 258.030097 123.434586 
L 259.985935 122.883882 
L 261.941773 122.60639 
L 264.549557 122.512095 
L 267.809288 122.667765 
L 272.37291 123.163462 
L 278.892371 124.126481 
L 291.279347 126.224608 
L 323.224705 131.937468 
L 368.860931 140.157593 
L 368.860931 140.157593 
" clip-path="url(#pe3513cd5f0)" style="fill: none; stroke: #008000; stroke-width: 1.5; stroke-linecap: square"/>
   </g>
   <g id="line2d_39">
    <path d="M 239.227951 242.491397 
L 239.775606 195.798896 
L 240.427552 187.611136 
L 241.731445 176.698822 
L 243.687283 162.587224 
L 245.643121 149.969164 
L 246.947013 142.959265 
L 248.250905 137.407113 
L 249.554798 133.289758 
L 250.85869 130.358553 
L 252.162582 128.280705 
L 253.466474 126.797101 
L 254.770366 125.732286 
L 256.074258 124.969342 
L 257.378151 124.429625 
L 259.333989 123.920004 
L 261.289827 123.662189 
L 263.897611 123.577033 
L 267.157342 123.731853 
L 271.720964 124.220011 
L 278.240425 125.174919 
L 289.975455 127.156988 
L 321.268867 132.747097 
L 368.860931 141.308771 
L 368.860931 141.308771 
" clip-path="url(#pe3513cd5f0)" style="fill: none; stroke: #ff8c00; stroke-width: 1.5; stroke-linecap: square"/>
   </g>
   <g id="line2d_40">
    <path d="M 239.217047 242.491397 
L 239.775606 189.308403 
L 240.427552 181.138366 
L 241.731445 170.303975 
L 243.687283 156.578165 
L 244.991175 148.582823 
L 246.295067 141.913187 
L 247.598959 136.767546 
L 248.902851 133.014529 
L 250.206744 130.349912 
L 251.510636 128.44451 
L 252.814528 127.075734 
L 254.11842 126.087971 
L 255.422312 125.378159 
L 256.726204 124.87517 
L 258.682043 124.398993 
L 260.637881 124.160984 
L 263.245665 124.09065 
L 266.505396 124.252207 
L 271.069018 124.741817 
L 277.588479 125.695682 
L 289.323509 127.677897 
L 321.268867 133.383522 
L 368.860931 141.93059 
L 368.860931 141.93059 
" clip-path="url(#pe3513cd5f0)" style="fill: none; stroke: #ffd700; stroke-width: 1.5; stroke-linecap: square"/>
   </g>
   <g id="line2d_41">
    <path d="M 239.208207 242.491397 
L 239.775606 182.818331 
L 240.427552 174.665982 
L 241.731445 163.945493 
L 243.035337 154.936105 
L 244.339229 147.127999 
L 245.643121 140.785789 
L 246.947013 135.992599 
L 248.250905 132.552513 
L 249.554798 130.098843 
L 250.85869 128.343969 
L 252.162582 127.07727 
L 253.466474 126.161281 
L 254.770366 125.502758 
L 256.074258 125.035845 
L 258.030097 124.598324 
L 259.985935 124.385633 
L 262.593719 124.334872 
L 265.85345 124.51003 
L 270.417072 125.007929 
L 276.936533 125.96643 
L 288.671562 127.951624 
L 321.268867 133.774271 
L 368.860931 142.307384 
L 368.860931 142.307384 
" clip-path="url(#pe3513cd5f0)" style="fill: none; stroke: #ff0000; stroke-width: 1.5; stroke-linecap: square"/>
   </g>
   <g id="line2d_42">
    <path d="M 259.990251 242.491397 
L 266.505396 194.696106 
L 269.11318 177.052165 
L 271.557978 162.147716 
L 273.024856 154.14146 
L 274.980695 144.605607 
L 276.936533 136.382337 
L 278.892371 129.376999 
L 280.848209 123.440227 
L 282.804048 118.447975 
L 284.759886 114.27657 
L 286.715724 110.818738 
L 288.671562 107.978961 
L 290.627401 105.67269 
L 292.583239 103.825594 
L 294.539077 102.372323 
L 296.494915 101.255129 
L 298.450754 100.422302 
L 300.406592 99.828251 
L 302.36243 99.432917 
L 304.970215 99.15481 
L 307.577999 99.097455 
L 310.837729 99.249957 
L 314.749406 99.651894 
L 320.61692 100.502817 
L 331.048058 102.290865 
L 368.860931 109.093255 
L 368.860931 109.093255 
" clip-path="url(#pe3513cd5f0)" style="fill: none; stroke: #000000; stroke-width: 2; stroke-linecap: square"/>
   </g>
   <g id="patch_8">
    <path d="M 232.636797 186.514522 
L 232.636797 43.803525 
" style="fill: none; stroke: #000000; stroke-width: 2; stroke-linejoin: miter; stroke-linecap: square"/>
   </g>
   <g id="patch_9">
    <path d="M 375.347794 186.514522 
L 375.347794 43.803525 
" style="fill: none; stroke: #000000; stroke-width: 2; stroke-linejoin: miter; stroke-linecap: square"/>
   </g>
   <g id="patch_10">
    <path d="M 232.636797 186.514522 
L 375.347794 186.514522 
" style="fill: none; stroke: #000000; stroke-width: 2; stroke-linejoin: miter; stroke-linecap: square"/>
   </g>
   <g id="patch_11">
    <path d="M 232.636797 43.803525 
L 375.347794 43.803525 
" style="fill: none; stroke: #000000; stroke-width: 2; stroke-linejoin: miter; stroke-linecap: square"/>
   </g>
  </g>
 </g>
 <defs>
  <clipPath id="p3ba7600f15">
   <rect x="47.1125" y="43.803525" width="142.710997" height="142.710997"/>
  </clipPath>
  <clipPath id="pe3513cd5f0">
   <rect x="232.636797" y="43.803525" width="142.710997" height="142.710997"/>
  </clipPath>
 </defs>
</svg>
