<?xml version="1.0" encoding="utf-8" standalone="no"?>
<!DOCTYPE svg PUBLIC "-//W3C//DTD SVG 1.1//EN"
  "http://www.w3.org/Graphics/SVG/1.1/DTD/svg11.dtd">
<svg xmlns:xlink="http://www.w3.org/1999/xlink" width="382.547794pt" height="241.578897pt" viewBox="0 0 382.547794 241.578897" xmlns="http://www.w3.org/2000/svg" version="1.1">
 <metadata>
  <rdf:RDF xmlns:dc="http://purl.org/dc/elements/1.1/" xmlns:cc="http://creativecommons.org/ns#" xmlns:rdf="http://www.w3.org/1999/02/22-rdf-syntax-ns#">
   <cc:Work>
    <dc:type rdf:resource="http://purl.org/dc/dcmitype/StillImage"/>
    <dc:date>2025-02-25T13:54:55.544699</dc:date>
    <dc:format>image/svg+xml</dc:format>
    <dc:creator>
     <cc:Agent>
      <dc:title>Matplotlib v3.10.0, https://matplotlib.org/</dc:title>
     </cc:Agent>
    </dc:creator>
   </cc:Work>
  </rdf:RDF>
 </metadata>
 <defs>
  <style type="text/css">*{stroke-linejoin: round; stroke-linecap: butt}</style>
 </defs>
 <g id="figure_1">
  <g id="patch_1">
   <path d="M 0 241.578897 
L 382.547794 241.578897 
L 382.547794 0 
L 0 0 
z
" style="fill: #ffffff"/>
  </g>
  <g id="axes_1">
   <g id="patch_2">
    <path d="M 47.1125 186.602022 
L 189.823497 186.602022 
L 189.823497 43.891025 
L 47.1125 43.891025 
z
" style="fill: #ffffff"/>
   </g>
   <g id="matplotlib.axis_1">
    <g id="xtick_1">
     <g id="line2d_1">
      <defs>
       <path id="m1dfef0eb5d" d="M 0 0 
L 0 3.5 
" style="stroke: #000000; stroke-width: 0.8"/>
      </defs>
      <g>
       <use xlink:href="#m1dfef0eb5d" x="53.599364" y="186.602022" style="stroke: #000000; stroke-width: 0.8"/>
      </g>
     </g>
     <g id="text_1">
      <!-- 0 -->
      <g transform="translate(47.873114 207.27921) scale(0.18 -0.18)">
       <defs>
        <path id="DejaVuSans-30" d="M 2034 4250 
Q 1547 4250 1301 3770 
Q 1056 3291 1056 2328 
Q 1056 1369 1301 889 
Q 1547 409 2034 409 
Q 2525 409 2770 889 
Q 3016 1369 3016 2328 
Q 3016 3291 2770 3770 
Q 2525 4250 2034 4250 
z
M 2034 4750 
Q 2819 4750 3233 4129 
Q 3647 3509 3647 2328 
Q 3647 1150 3233 529 
Q 2819 -91 2034 -91 
Q 1250 -91 836 529 
Q 422 1150 422 2328 
Q 422 3509 836 4129 
Q 1250 4750 2034 4750 
z
" transform="scale(0.015625)"/>
       </defs>
       <use xlink:href="#DejaVuSans-30"/>
      </g>
     </g>
    </g>
    <g id="xtick_2">
     <g id="line2d_2">
      <g>
       <use xlink:href="#m1dfef0eb5d" x="86.033681" y="186.602022" style="stroke: #000000; stroke-width: 0.8"/>
      </g>
     </g>
     <g id="text_2">
      <!-- 2 -->
      <g transform="translate(80.307431 207.27921) scale(0.18 -0.18)">
       <defs>
        <path id="DejaVuSans-32" d="M 1228 531 
L 3431 531 
L 3431 0 
L 469 0 
L 469 531 
Q 828 903 1448 1529 
Q 2069 2156 2228 2338 
Q 2531 2678 2651 2914 
Q 2772 3150 2772 3378 
Q 2772 3750 2511 3984 
Q 2250 4219 1831 4219 
Q 1534 4219 1204 4116 
Q 875 4013 500 3803 
L 500 4441 
Q 881 4594 1212 4672 
Q 1544 4750 1819 4750 
Q 2544 4750 2975 4387 
Q 3406 4025 3406 3419 
Q 3406 3131 3298 2873 
Q 3191 2616 2906 2266 
Q 2828 2175 2409 1742 
Q 1991 1309 1228 531 
z
" transform="scale(0.015625)"/>
       </defs>
       <use xlink:href="#DejaVuSans-32"/>
      </g>
     </g>
    </g>
    <g id="xtick_3">
     <g id="line2d_3">
      <g>
       <use xlink:href="#m1dfef0eb5d" x="118.467999" y="186.602022" style="stroke: #000000; stroke-width: 0.8"/>
      </g>
     </g>
     <g id="text_3">
      <!-- 4 -->
      <g transform="translate(112.741749 207.27921) scale(0.18 -0.18)">
       <defs>
        <path id="DejaVuSans-34" d="M 2419 4116 
L 825 1625 
L 2419 1625 
L 2419 4116 
z
M 2253 4666 
L 3047 4666 
L 3047 1625 
L 3713 1625 
L 3713 1100 
L 3047 1100 
L 3047 0 
L 2419 0 
L 2419 1100 
L 313 1100 
L 313 1709 
L 2253 4666 
z
" transform="scale(0.015625)"/>
       </defs>
       <use xlink:href="#DejaVuSans-34"/>
      </g>
     </g>
    </g>
    <g id="xtick_4">
     <g id="line2d_4">
      <g>
       <use xlink:href="#m1dfef0eb5d" x="150.902316" y="186.602022" style="stroke: #000000; stroke-width: 0.8"/>
      </g>
     </g>
     <g id="text_4">
      <!-- 6 -->
      <g transform="translate(145.176066 207.27921) scale(0.18 -0.18)">
       <defs>
        <path id="DejaVuSans-36" d="M 2113 2584 
Q 1688 2584 1439 2293 
Q 1191 2003 1191 1497 
Q 1191 994 1439 701 
Q 1688 409 2113 409 
Q 2538 409 2786 701 
Q 3034 994 3034 1497 
Q 3034 2003 2786 2293 
Q 2538 2584 2113 2584 
z
M 3366 4563 
L 3366 3988 
Q 3128 4100 2886 4159 
Q 2644 4219 2406 4219 
Q 1781 4219 1451 3797 
Q 1122 3375 1075 2522 
Q 1259 2794 1537 2939 
Q 1816 3084 2150 3084 
Q 2853 3084 3261 2657 
Q 3669 2231 3669 1497 
Q 3669 778 3244 343 
Q 2819 -91 2113 -91 
Q 1303 -91 875 529 
Q 447 1150 447 2328 
Q 447 3434 972 4092 
Q 1497 4750 2381 4750 
Q 2619 4750 2861 4703 
Q 3103 4656 3366 4563 
z
" transform="scale(0.015625)"/>
       </defs>
       <use xlink:href="#DejaVuSans-36"/>
      </g>
     </g>
    </g>
    <g id="xtick_5">
     <g id="line2d_5">
      <g>
       <use xlink:href="#m1dfef0eb5d" x="183.336634" y="186.602022" style="stroke: #000000; stroke-width: 0.8"/>
      </g>
     </g>
     <g id="text_5">
      <!-- 8 -->
      <g transform="translate(177.610384 207.27921) scale(0.18 -0.18)">
       <defs>
        <path id="DejaVuSans-38" d="M 2034 2216 
Q 1584 2216 1326 1975 
Q 1069 1734 1069 1313 
Q 1069 891 1326 650 
Q 1584 409 2034 409 
Q 2484 409 2743 651 
Q 3003 894 3003 1313 
Q 3003 1734 2745 1975 
Q 2488 2216 2034 2216 
z
M 1403 2484 
Q 997 2584 770 2862 
Q 544 3141 544 3541 
Q 544 4100 942 4425 
Q 1341 4750 2034 4750 
Q 2731 4750 3128 4425 
Q 3525 4100 3525 3541 
Q 3525 3141 3298 2862 
Q 3072 2584 2669 2484 
Q 3125 2378 3379 2068 
Q 3634 1759 3634 1313 
Q 3634 634 3220 271 
Q 2806 -91 2034 -91 
Q 1263 -91 848 271 
Q 434 634 434 1313 
Q 434 1759 690 2068 
Q 947 2378 1403 2484 
z
M 1172 3481 
Q 1172 3119 1398 2916 
Q 1625 2713 2034 2713 
Q 2441 2713 2670 2916 
Q 2900 3119 2900 3481 
Q 2900 3844 2670 4047 
Q 2441 4250 2034 4250 
Q 1625 4250 1398 4047 
Q 1172 3844 1172 3481 
z
" transform="scale(0.015625)"/>
       </defs>
       <use xlink:href="#DejaVuSans-38"/>
      </g>
     </g>
    </g>
    <g id="text_6">
     <!-- Time (d) -->
     <g transform="translate(76.671124 230.219522) scale(0.2 -0.2)">
      <defs>
       <path id="DejaVuSans-54" d="M -19 4666 
L 3928 4666 
L 3928 4134 
L 2272 4134 
L 2272 0 
L 1638 0 
L 1638 4134 
L -19 4134 
L -19 4666 
z
" transform="scale(0.015625)"/>
       <path id="DejaVuSans-69" d="M 603 3500 
L 1178 3500 
L 1178 0 
L 603 0 
L 603 3500 
z
M 603 4863 
L 1178 4863 
L 1178 4134 
L 603 4134 
L 603 4863 
z
" transform="scale(0.015625)"/>
       <path id="DejaVuSans-6d" d="M 3328 2828 
Q 3544 3216 3844 3400 
Q 4144 3584 4550 3584 
Q 5097 3584 5394 3201 
Q 5691 2819 5691 2113 
L 5691 0 
L 5113 0 
L 5113 2094 
Q 5113 2597 4934 2840 
Q 4756 3084 4391 3084 
Q 3944 3084 3684 2787 
Q 3425 2491 3425 1978 
L 3425 0 
L 2847 0 
L 2847 2094 
Q 2847 2600 2669 2842 
Q 2491 3084 2119 3084 
Q 1678 3084 1418 2786 
Q 1159 2488 1159 1978 
L 1159 0 
L 581 0 
L 581 3500 
L 1159 3500 
L 1159 2956 
Q 1356 3278 1631 3431 
Q 1906 3584 2284 3584 
Q 2666 3584 2933 3390 
Q 3200 3197 3328 2828 
z
" transform="scale(0.015625)"/>
       <path id="DejaVuSans-65" d="M 3597 1894 
L 3597 1613 
L 953 1613 
Q 991 1019 1311 708 
Q 1631 397 2203 397 
Q 2534 397 2845 478 
Q 3156 559 3463 722 
L 3463 178 
Q 3153 47 2828 -22 
Q 2503 -91 2169 -91 
Q 1331 -91 842 396 
Q 353 884 353 1716 
Q 353 2575 817 3079 
Q 1281 3584 2069 3584 
Q 2775 3584 3186 3129 
Q 3597 2675 3597 1894 
z
M 3022 2063 
Q 3016 2534 2758 2815 
Q 2500 3097 2075 3097 
Q 1594 3097 1305 2825 
Q 1016 2553 972 2059 
L 3022 2063 
z
" transform="scale(0.015625)"/>
       <path id="DejaVuSans-20" transform="scale(0.015625)"/>
       <path id="DejaVuSans-28" d="M 1984 4856 
Q 1566 4138 1362 3434 
Q 1159 2731 1159 2009 
Q 1159 1288 1364 580 
Q 1569 -128 1984 -844 
L 1484 -844 
Q 1016 -109 783 600 
Q 550 1309 550 2009 
Q 550 2706 781 3412 
Q 1013 4119 1484 4856 
L 1984 4856 
z
" transform="scale(0.015625)"/>
       <path id="DejaVuSans-64" d="M 2906 2969 
L 2906 4863 
L 3481 4863 
L 3481 0 
L 2906 0 
L 2906 525 
Q 2725 213 2448 61 
Q 2172 -91 1784 -91 
Q 1150 -91 751 415 
Q 353 922 353 1747 
Q 353 2572 751 3078 
Q 1150 3584 1784 3584 
Q 2172 3584 2448 3432 
Q 2725 3281 2906 2969 
z
M 947 1747 
Q 947 1113 1208 752 
Q 1469 391 1925 391 
Q 2381 391 2643 752 
Q 2906 1113 2906 1747 
Q 2906 2381 2643 2742 
Q 2381 3103 1925 3103 
Q 1469 3103 1208 2742 
Q 947 2381 947 1747 
z
" transform="scale(0.015625)"/>
       <path id="DejaVuSans-29" d="M 513 4856 
L 1013 4856 
Q 1481 4119 1714 3412 
Q 1947 2706 1947 2009 
Q 1947 1309 1714 600 
Q 1481 -109 1013 -844 
L 513 -844 
Q 928 -128 1133 580 
Q 1338 1288 1338 2009 
Q 1338 2731 1133 3434 
Q 928 4138 513 4856 
z
" transform="scale(0.015625)"/>
      </defs>
      <use xlink:href="#DejaVuSans-54"/>
      <use xlink:href="#DejaVuSans-69" transform="translate(57.958984 0)"/>
      <use xlink:href="#DejaVuSans-6d" transform="translate(85.742188 0)"/>
      <use xlink:href="#DejaVuSans-65" transform="translate(183.154297 0)"/>
      <use xlink:href="#DejaVuSans-20" transform="translate(244.677734 0)"/>
      <use xlink:href="#DejaVuSans-28" transform="translate(276.464844 0)"/>
      <use xlink:href="#DejaVuSans-64" transform="translate(315.478516 0)"/>
      <use xlink:href="#DejaVuSans-29" transform="translate(378.955078 0)"/>
     </g>
    </g>
   </g>
   <g id="matplotlib.axis_2">
    <g id="ytick_1">
     <g id="line2d_6">
      <defs>
       <path id="m2857edb027" d="M 0 0 
L -3.5 0 
" style="stroke: #000000; stroke-width: 0.8"/>
      </defs>
      <g>
       <use xlink:href="#m2857edb027" x="47.1125" y="186.602022" style="stroke: #000000; stroke-width: 0.8"/>
      </g>
     </g>
     <g id="text_7">
      <!-- 0 -->
      <g transform="translate(28.66 193.440616) scale(0.18 -0.18)">
       <use xlink:href="#DejaVuSans-30"/>
      </g>
     </g>
    </g>
    <g id="ytick_2">
     <g id="line2d_7">
      <g>
       <use xlink:href="#m2857edb027" x="47.1125" y="168.763147" style="stroke: #000000; stroke-width: 0.8"/>
      </g>
     </g>
     <g id="text_8">
      <!-- 1 -->
      <g transform="translate(28.66 175.601741) scale(0.18 -0.18)">
       <defs>
        <path id="DejaVuSans-31" d="M 794 531 
L 1825 531 
L 1825 4091 
L 703 3866 
L 703 4441 
L 1819 4666 
L 2450 4666 
L 2450 531 
L 3481 531 
L 3481 0 
L 794 0 
L 794 531 
z
" transform="scale(0.015625)"/>
       </defs>
       <use xlink:href="#DejaVuSans-31"/>
      </g>
     </g>
    </g>
    <g id="ytick_3">
     <g id="line2d_8">
      <g>
       <use xlink:href="#m2857edb027" x="47.1125" y="150.924273" style="stroke: #000000; stroke-width: 0.8"/>
      </g>
     </g>
     <g id="text_9">
      <!-- 2 -->
      <g transform="translate(28.66 157.762866) scale(0.18 -0.18)">
       <use xlink:href="#DejaVuSans-32"/>
      </g>
     </g>
    </g>
    <g id="ytick_4">
     <g id="line2d_9">
      <g>
       <use xlink:href="#m2857edb027" x="47.1125" y="133.085398" style="stroke: #000000; stroke-width: 0.8"/>
      </g>
     </g>
     <g id="text_10">
      <!-- 3 -->
      <g transform="translate(28.66 139.923992) scale(0.18 -0.18)">
       <defs>
        <path id="DejaVuSans-33" d="M 2597 2516 
Q 3050 2419 3304 2112 
Q 3559 1806 3559 1356 
Q 3559 666 3084 287 
Q 2609 -91 1734 -91 
Q 1441 -91 1130 -33 
Q 819 25 488 141 
L 488 750 
Q 750 597 1062 519 
Q 1375 441 1716 441 
Q 2309 441 2620 675 
Q 2931 909 2931 1356 
Q 2931 1769 2642 2001 
Q 2353 2234 1838 2234 
L 1294 2234 
L 1294 2753 
L 1863 2753 
Q 2328 2753 2575 2939 
Q 2822 3125 2822 3475 
Q 2822 3834 2567 4026 
Q 2313 4219 1838 4219 
Q 1578 4219 1281 4162 
Q 984 4106 628 3988 
L 628 4550 
Q 988 4650 1302 4700 
Q 1616 4750 1894 4750 
Q 2613 4750 3031 4423 
Q 3450 4097 3450 3541 
Q 3450 3153 3228 2886 
Q 3006 2619 2597 2516 
z
" transform="scale(0.015625)"/>
       </defs>
       <use xlink:href="#DejaVuSans-33"/>
      </g>
     </g>
    </g>
    <g id="ytick_5">
     <g id="line2d_10">
      <g>
       <use xlink:href="#m2857edb027" x="47.1125" y="115.246523" style="stroke: #000000; stroke-width: 0.8"/>
      </g>
     </g>
     <g id="text_11">
      <!-- 4 -->
      <g transform="translate(28.66 122.085117) scale(0.18 -0.18)">
       <use xlink:href="#DejaVuSans-34"/>
      </g>
     </g>
    </g>
    <g id="ytick_6">
     <g id="line2d_11">
      <g>
       <use xlink:href="#m2857edb027" x="47.1125" y="97.407649" style="stroke: #000000; stroke-width: 0.8"/>
      </g>
     </g>
     <g id="text_12">
      <!-- 5 -->
      <g transform="translate(28.66 104.246242) scale(0.18 -0.18)">
       <defs>
        <path id="DejaVuSans-35" d="M 691 4666 
L 3169 4666 
L 3169 4134 
L 1269 4134 
L 1269 2991 
Q 1406 3038 1543 3061 
Q 1681 3084 1819 3084 
Q 2600 3084 3056 2656 
Q 3513 2228 3513 1497 
Q 3513 744 3044 326 
Q 2575 -91 1722 -91 
Q 1428 -91 1123 -41 
Q 819 9 494 109 
L 494 744 
Q 775 591 1075 516 
Q 1375 441 1709 441 
Q 2250 441 2565 725 
Q 2881 1009 2881 1497 
Q 2881 1984 2565 2268 
Q 2250 2553 1709 2553 
Q 1456 2553 1204 2497 
Q 953 2441 691 2322 
L 691 4666 
z
" transform="scale(0.015625)"/>
       </defs>
       <use xlink:href="#DejaVuSans-35"/>
      </g>
     </g>
    </g>
    <g id="ytick_7">
     <g id="line2d_12">
      <g>
       <use xlink:href="#m2857edb027" x="47.1125" y="79.568774" style="stroke: #000000; stroke-width: 0.8"/>
      </g>
     </g>
     <g id="text_13">
      <!-- 6 -->
      <g transform="translate(28.66 86.407368) scale(0.18 -0.18)">
       <use xlink:href="#DejaVuSans-36"/>
      </g>
     </g>
    </g>
    <g id="ytick_8">
     <g id="line2d_13">
      <g>
       <use xlink:href="#m2857edb027" x="47.1125" y="61.729899" style="stroke: #000000; stroke-width: 0.8"/>
      </g>
     </g>
     <g id="text_14">
      <!-- 7 -->
      <g transform="translate(28.66 68.568493) scale(0.18 -0.18)">
       <defs>
        <path id="DejaVuSans-37" d="M 525 4666 
L 3525 4666 
L 3525 4397 
L 1831 0 
L 1172 0 
L 2766 4134 
L 525 4134 
L 525 4666 
z
" transform="scale(0.015625)"/>
       </defs>
       <use xlink:href="#DejaVuSans-37"/>
      </g>
     </g>
    </g>
    <g id="ytick_9">
     <g id="line2d_14">
      <g>
       <use xlink:href="#m2857edb027" x="47.1125" y="43.891025" style="stroke: #000000; stroke-width: 0.8"/>
      </g>
     </g>
     <g id="text_15">
      <!-- 8 -->
      <g transform="translate(28.66 50.729618) scale(0.18 -0.18)">
       <use xlink:href="#DejaVuSans-38"/>
      </g>
     </g>
    </g>
    <g id="text_16">
     <!-- Log$_{10}$ Virus (copies/mL) -->
     <g transform="translate(20.88 221.086523) rotate(-90) scale(0.18 -0.18)">
      <defs>
       <path id="DejaVuSans-4c" d="M 628 4666 
L 1259 4666 
L 1259 531 
L 3531 531 
L 3531 0 
L 628 0 
L 628 4666 
z
" transform="scale(0.015625)"/>
       <path id="DejaVuSans-6f" d="M 1959 3097 
Q 1497 3097 1228 2736 
Q 959 2375 959 1747 
Q 959 1119 1226 758 
Q 1494 397 1959 397 
Q 2419 397 2687 759 
Q 2956 1122 2956 1747 
Q 2956 2369 2687 2733 
Q 2419 3097 1959 3097 
z
M 1959 3584 
Q 2709 3584 3137 3096 
Q 3566 2609 3566 1747 
Q 3566 888 3137 398 
Q 2709 -91 1959 -91 
Q 1206 -91 779 398 
Q 353 888 353 1747 
Q 353 2609 779 3096 
Q 1206 3584 1959 3584 
z
" transform="scale(0.015625)"/>
       <path id="DejaVuSans-67" d="M 2906 1791 
Q 2906 2416 2648 2759 
Q 2391 3103 1925 3103 
Q 1463 3103 1205 2759 
Q 947 2416 947 1791 
Q 947 1169 1205 825 
Q 1463 481 1925 481 
Q 2391 481 2648 825 
Q 2906 1169 2906 1791 
z
M 3481 434 
Q 3481 -459 3084 -895 
Q 2688 -1331 1869 -1331 
Q 1566 -1331 1297 -1286 
Q 1028 -1241 775 -1147 
L 775 -588 
Q 1028 -725 1275 -790 
Q 1522 -856 1778 -856 
Q 2344 -856 2625 -561 
Q 2906 -266 2906 331 
L 2906 616 
Q 2728 306 2450 153 
Q 2172 0 1784 0 
Q 1141 0 747 490 
Q 353 981 353 1791 
Q 353 2603 747 3093 
Q 1141 3584 1784 3584 
Q 2172 3584 2450 3431 
Q 2728 3278 2906 2969 
L 2906 3500 
L 3481 3500 
L 3481 434 
z
" transform="scale(0.015625)"/>
       <path id="DejaVuSans-56" d="M 1831 0 
L 50 4666 
L 709 4666 
L 2188 738 
L 3669 4666 
L 4325 4666 
L 2547 0 
L 1831 0 
z
" transform="scale(0.015625)"/>
       <path id="DejaVuSans-72" d="M 2631 2963 
Q 2534 3019 2420 3045 
Q 2306 3072 2169 3072 
Q 1681 3072 1420 2755 
Q 1159 2438 1159 1844 
L 1159 0 
L 581 0 
L 581 3500 
L 1159 3500 
L 1159 2956 
Q 1341 3275 1631 3429 
Q 1922 3584 2338 3584 
Q 2397 3584 2469 3576 
Q 2541 3569 2628 3553 
L 2631 2963 
z
" transform="scale(0.015625)"/>
       <path id="DejaVuSans-75" d="M 544 1381 
L 544 3500 
L 1119 3500 
L 1119 1403 
Q 1119 906 1312 657 
Q 1506 409 1894 409 
Q 2359 409 2629 706 
Q 2900 1003 2900 1516 
L 2900 3500 
L 3475 3500 
L 3475 0 
L 2900 0 
L 2900 538 
Q 2691 219 2414 64 
Q 2138 -91 1772 -91 
Q 1169 -91 856 284 
Q 544 659 544 1381 
z
M 1991 3584 
L 1991 3584 
z
" transform="scale(0.015625)"/>
       <path id="DejaVuSans-73" d="M 2834 3397 
L 2834 2853 
Q 2591 2978 2328 3040 
Q 2066 3103 1784 3103 
Q 1356 3103 1142 2972 
Q 928 2841 928 2578 
Q 928 2378 1081 2264 
Q 1234 2150 1697 2047 
L 1894 2003 
Q 2506 1872 2764 1633 
Q 3022 1394 3022 966 
Q 3022 478 2636 193 
Q 2250 -91 1575 -91 
Q 1294 -91 989 -36 
Q 684 19 347 128 
L 347 722 
Q 666 556 975 473 
Q 1284 391 1588 391 
Q 1994 391 2212 530 
Q 2431 669 2431 922 
Q 2431 1156 2273 1281 
Q 2116 1406 1581 1522 
L 1381 1569 
Q 847 1681 609 1914 
Q 372 2147 372 2553 
Q 372 3047 722 3315 
Q 1072 3584 1716 3584 
Q 2034 3584 2315 3537 
Q 2597 3491 2834 3397 
z
" transform="scale(0.015625)"/>
       <path id="DejaVuSans-63" d="M 3122 3366 
L 3122 2828 
Q 2878 2963 2633 3030 
Q 2388 3097 2138 3097 
Q 1578 3097 1268 2742 
Q 959 2388 959 1747 
Q 959 1106 1268 751 
Q 1578 397 2138 397 
Q 2388 397 2633 464 
Q 2878 531 3122 666 
L 3122 134 
Q 2881 22 2623 -34 
Q 2366 -91 2075 -91 
Q 1284 -91 818 406 
Q 353 903 353 1747 
Q 353 2603 823 3093 
Q 1294 3584 2113 3584 
Q 2378 3584 2631 3529 
Q 2884 3475 3122 3366 
z
" transform="scale(0.015625)"/>
       <path id="DejaVuSans-70" d="M 1159 525 
L 1159 -1331 
L 581 -1331 
L 581 3500 
L 1159 3500 
L 1159 2969 
Q 1341 3281 1617 3432 
Q 1894 3584 2278 3584 
Q 2916 3584 3314 3078 
Q 3713 2572 3713 1747 
Q 3713 922 3314 415 
Q 2916 -91 2278 -91 
Q 1894 -91 1617 61 
Q 1341 213 1159 525 
z
M 3116 1747 
Q 3116 2381 2855 2742 
Q 2594 3103 2138 3103 
Q 1681 3103 1420 2742 
Q 1159 2381 1159 1747 
Q 1159 1113 1420 752 
Q 1681 391 2138 391 
Q 2594 391 2855 752 
Q 3116 1113 3116 1747 
z
" transform="scale(0.015625)"/>
       <path id="DejaVuSans-2f" d="M 1625 4666 
L 2156 4666 
L 531 -594 
L 0 -594 
L 1625 4666 
z
" transform="scale(0.015625)"/>
      </defs>
      <use xlink:href="#DejaVuSans-4c" transform="translate(0 0.015625)"/>
      <use xlink:href="#DejaVuSans-6f" transform="translate(55.712891 0.015625)"/>
      <use xlink:href="#DejaVuSans-67" transform="translate(116.894531 0.015625)"/>
      <use xlink:href="#DejaVuSans-31" transform="translate(181.328125 -16.390625) scale(0.7)"/>
      <use xlink:href="#DejaVuSans-30" transform="translate(225.864258 -16.390625) scale(0.7)"/>
      <use xlink:href="#DejaVuSans-20" transform="translate(273.134766 0.015625)"/>
      <use xlink:href="#DejaVuSans-56" transform="translate(304.921875 0.015625)"/>
      <use xlink:href="#DejaVuSans-69" transform="translate(373.330078 0.015625)"/>
      <use xlink:href="#DejaVuSans-72" transform="translate(401.113281 0.015625)"/>
      <use xlink:href="#DejaVuSans-75" transform="translate(442.226562 0.015625)"/>
      <use xlink:href="#DejaVuSans-73" transform="translate(505.605469 0.015625)"/>
      <use xlink:href="#DejaVuSans-20" transform="translate(557.705078 0.015625)"/>
      <use xlink:href="#DejaVuSans-28" transform="translate(589.492188 0.015625)"/>
      <use xlink:href="#DejaVuSans-63" transform="translate(628.505859 0.015625)"/>
      <use xlink:href="#DejaVuSans-6f" transform="translate(683.486328 0.015625)"/>
      <use xlink:href="#DejaVuSans-70" transform="translate(744.667969 0.015625)"/>
      <use xlink:href="#DejaVuSans-69" transform="translate(808.144531 0.015625)"/>
      <use xlink:href="#DejaVuSans-65" transform="translate(835.927734 0.015625)"/>
      <use xlink:href="#DejaVuSans-73" transform="translate(897.451172 0.015625)"/>
      <use xlink:href="#DejaVuSans-2f" transform="translate(949.550781 0.015625)"/>
      <use xlink:href="#DejaVuSans-6d" transform="translate(983.242188 0.015625)"/>
      <use xlink:href="#DejaVuSans-4c" transform="translate(1080.654297 0.015625)"/>
      <use xlink:href="#DejaVuSans-29" transform="translate(1136.367188 0.015625)"/>
     </g>
    </g>
   </g>
   <g id="line2d_15">
    <path d="M 53.599364 186.602022 
L 56.207148 186.602022 
L 56.859094 184.644622 
L 60.77077 165.100654 
L 64.030501 149.952345 
L 69.898016 123.32336 
L 74.461638 101.993783 
L 75.76553 96.894398 
L 77.069422 92.880751 
L 77.721369 91.341873 
L 78.373315 90.099659 
L 79.025261 89.121985 
L 79.677207 88.367004 
L 80.981099 87.352795 
L 82.284991 86.781069 
L 83.588883 86.483572 
L 85.544722 86.352543 
L 87.50056 86.453695 
L 90.108344 86.801528 
L 94.020021 87.58635 
L 98.583643 88.743299 
L 103.799212 90.314711 
L 108.362834 91.918825 
L 112.926457 93.776346 
L 116.838134 95.616903 
L 120.097864 97.375663 
L 123.357594 99.410813 
L 125.965379 101.319206 
L 127.921217 102.986102 
L 129.877055 104.948613 
L 131.180947 106.495065 
L 132.484839 108.324328 
L 133.788732 110.587031 
L 135.092624 113.60029 
L 135.74457 115.610107 
L 136.396516 118.244589 
L 137.048462 122.121723 
L 137.700408 129.708475 
L 138.352354 169.360915 
L 139.0043 186.602022 
L 183.336634 186.602022 
L 183.336634 186.602022 
" clip-path="url(#p94adb31e28)" style="fill: none; stroke: #ff1493; stroke-width: 1.5; stroke-linecap: square"/>
   </g>
   <g id="line2d_16">
    <path d="M 53.599364 186.602022 
L 56.207148 186.602022 
L 56.859094 184.678896 
L 60.118824 168.538007 
L 62.726609 156.861147 
L 65.334393 146.599854 
L 69.898016 129.063875 
L 72.5058 117.528245 
L 75.76553 102.722204 
L 77.069422 97.588889 
L 78.373315 93.462481 
L 79.025261 91.853106 
L 79.677207 90.545351 
L 80.329153 89.513244 
L 80.981099 88.71441 
L 82.284991 87.644396 
L 83.588883 87.048861 
L 84.892775 86.74882 
L 86.848614 86.640765 
L 88.804452 86.78848 
L 91.412236 87.229694 
L 94.671967 88.034533 
L 98.583643 89.269374 
L 102.49532 90.770159 
L 105.75505 92.24626 
L 109.014781 93.978111 
L 111.622565 95.605949 
L 114.230349 97.533283 
L 116.186187 99.258198 
L 118.142026 101.341219 
L 119.445918 103.027377 
L 120.74981 105.083225 
L 122.053702 107.745067 
L 122.705648 109.45512 
L 123.357594 111.593717 
L 124.00954 114.471606 
L 124.661487 118.943916 
L 125.313433 129.913218 
L 125.965379 183.775145 
L 126.617325 186.602022 
L 183.336634 186.602022 
L 183.336634 186.602022 
" clip-path="url(#p94adb31e28)" style="fill: none; stroke: #9370db; stroke-width: 1.5; stroke-linecap: square"/>
   </g>
   <g id="line2d_17">
    <path d="M 53.599364 186.602022 
L 56.207148 186.602022 
L 56.859094 184.725948 
L 59.466878 172.001868 
L 61.422717 163.483148 
L 62.726609 158.636211 
L 64.030501 154.601967 
L 65.334393 151.454705 
L 65.986339 150.255062 
L 66.638285 149.328633 
L 67.290231 148.734838 
L 67.942177 148.559412 
L 68.594123 148.921034 
L 69.246069 150.061003 
L 69.898016 152.362622 
L 71.853854 163.696253 
L 73.157746 168.088443 
L 74.461638 171.583367 
L 76.417476 176.04204 
L 79.025261 181.200661 
L 81.633045 185.900795 
L 82.284991 186.602022 
L 183.336634 186.602022 
L 183.336634 186.602022 
" clip-path="url(#p94adb31e28)" style="fill: none; stroke: #00ced1; stroke-width: 1.5; stroke-linecap: square"/>
   </g>
   <g id="line2d_18">
    <path d="M 53.599364 186.602022 
L 56.207148 186.602022 
L 56.859094 184.817475 
L 58.814932 175.454183 
L 60.118824 169.849164 
L 61.422717 165.13721 
L 62.074663 163.225057 
L 62.726609 161.689524 
L 63.378555 160.567318 
L 64.030501 159.929498 
L 64.682447 159.872264 
L 65.334393 160.459194 
L 65.986339 161.762094 
L 67.290231 165.837526 
L 68.594123 169.921427 
L 69.898016 173.215357 
L 71.853854 177.350901 
L 73.809692 180.958464 
L 76.417476 185.299816 
L 77.069422 186.325081 
L 77.721369 186.602022 
L 183.336634 186.602022 
L 183.336634 186.602022 
" clip-path="url(#p94adb31e28)" style="fill: none; stroke: #0000ff; stroke-width: 1.5; stroke-linecap: square"/>
   </g>
   <g id="line2d_19">
    <path d="M 53.599364 186.602022 
L 56.207148 186.602022 
L 56.859094 185.278367 
L 58.162986 179.659654 
L 59.466878 175.175745 
L 60.118824 173.58589 
L 60.77077 172.509974 
L 61.422717 172.052712 
L 62.074663 172.235912 
L 62.726609 173.019486 
L 64.030501 175.734698 
L 65.986339 180.160461 
L 67.942177 183.954525 
L 69.246069 186.216516 
L 69.898016 186.602022 
L 183.336634 186.602022 
L 183.336634 186.602022 
" clip-path="url(#p94adb31e28)" style="fill: none; stroke: #008000; stroke-width: 1.5; stroke-linecap: square"/>
   </g>
   <g id="line2d_20">
    <path d="M 53.599364 186.602022 
L 56.207148 186.602022 
L 56.859094 185.805258 
L 58.162986 180.940804 
L 58.814932 179.116322 
L 59.466878 177.805827 
L 60.118824 177.133721 
L 60.77077 177.090874 
L 61.422717 177.667039 
L 62.074663 178.726042 
L 64.030501 182.905655 
L 65.334393 185.568923 
L 65.986339 186.602022 
L 183.336634 186.602022 
L 183.336634 186.602022 
" clip-path="url(#p94adb31e28)" style="fill: none; stroke: #ff8c00; stroke-width: 1.5; stroke-linecap: square"/>
   </g>
   <g id="line2d_21">
    <path d="M 53.599364 186.602022 
L 56.859094 186.602022 
L 57.51104 184.606068 
L 58.162986 183.032615 
L 58.814932 182.046641 
L 59.466878 181.708057 
L 60.118824 182.002105 
L 60.77077 182.868656 
L 62.726609 186.602022 
L 183.336634 186.602022 
L 183.336634 186.602022 
" clip-path="url(#p94adb31e28)" style="fill: none; stroke: #ffd700; stroke-width: 1.5; stroke-linecap: square"/>
   </g>
   <g id="line2d_22">
    <path d="M 53.599364 186.602022 
L 57.51104 186.602022 
L 58.162986 186.22744 
L 58.814932 186.262102 
L 59.466878 186.602022 
L 183.336634 186.602022 
L 183.336634 186.602022 
" clip-path="url(#p94adb31e28)" style="fill: none; stroke: #ff0000; stroke-width: 1.5; stroke-linecap: square"/>
   </g>
   <g id="line2d_23">
    <path d="M 53.599364 186.602022 
L 56.207148 186.602022 
L 56.859094 184.981662 
L 58.814932 176.106665 
L 60.118824 171.263992 
L 60.77077 169.342054 
L 61.422717 167.877645 
L 62.074663 166.91634 
L 62.726609 166.537202 
L 63.378555 166.788173 
L 64.030501 167.671767 
L 64.682447 169.057115 
L 67.942177 177.052415 
L 69.898016 180.879818 
L 72.5058 185.308362 
L 73.157746 186.334677 
L 73.809692 186.602022 
L 183.336634 186.602022 
L 183.336634 186.602022 
" clip-path="url(#p94adb31e28)" style="fill: none; stroke: #000000; stroke-width: 2; stroke-linecap: square"/>
   </g>
   <g id="patch_3">
    <path d="M 47.1125 186.602022 
L 47.1125 43.891025 
" style="fill: none; stroke: #000000; stroke-width: 2; stroke-linejoin: miter; stroke-linecap: square"/>
   </g>
   <g id="patch_4">
    <path d="M 189.823497 186.602022 
L 189.823497 43.891025 
" style="fill: none; stroke: #000000; stroke-width: 2; stroke-linejoin: miter; stroke-linecap: square"/>
   </g>
   <g id="patch_5">
    <path d="M 47.1125 186.602022 
L 189.823497 186.602022 
" style="fill: none; stroke: #000000; stroke-width: 2; stroke-linejoin: miter; stroke-linecap: square"/>
   </g>
   <g id="patch_6">
    <path d="M 47.1125 43.891025 
L 189.823497 43.891025 
" style="fill: none; stroke: #000000; stroke-width: 2; stroke-linejoin: miter; stroke-linecap: square"/>
   </g>
   <g id="text_17">
    <!-- ID: 103 | η -->
    <g transform="translate(66.121124 22.484375) scale(0.2 -0.2)">
     <defs>
      <path id="DejaVuSans-49" d="M 628 4666 
L 1259 4666 
L 1259 0 
L 628 0 
L 628 4666 
z
" transform="scale(0.015625)"/>
      <path id="DejaVuSans-44" d="M 1259 4147 
L 1259 519 
L 2022 519 
Q 2988 519 3436 956 
Q 3884 1394 3884 2338 
Q 3884 3275 3436 3711 
Q 2988 4147 2022 4147 
L 1259 4147 
z
M 628 4666 
L 1925 4666 
Q 3281 4666 3915 4102 
Q 4550 3538 4550 2338 
Q 4550 1131 3912 565 
Q 3275 0 1925 0 
L 628 0 
L 628 4666 
z
" transform="scale(0.015625)"/>
      <path id="DejaVuSans-3a" d="M 750 794 
L 1409 794 
L 1409 0 
L 750 0 
L 750 794 
z
M 750 3309 
L 1409 3309 
L 1409 2516 
L 750 2516 
L 750 3309 
z
" transform="scale(0.015625)"/>
      <path id="DejaVuSans-7c" d="M 1344 4891 
L 1344 -1509 
L 813 -1509 
L 813 4891 
L 1344 4891 
z
" transform="scale(0.015625)"/>
      <path id="DejaVuSans-3b7" d="M 3513 2113 
L 3513 -1331 
L 2938 -1331 
L 2938 2094 
Q 2938 2591 2744 2837 
Q 2550 3084 2163 3084 
Q 1697 3084 1428 2787 
Q 1159 2491 1159 1978 
L 1159 0 
L 581 0 
L 581 3500 
L 1159 3500 
L 1159 2956 
Q 1366 3272 1644 3428 
Q 1925 3584 2291 3584 
Q 2894 3584 3203 3213 
Q 3513 2838 3513 2113 
z
" transform="scale(0.015625)"/>
     </defs>
     <use xlink:href="#DejaVuSans-49"/>
     <use xlink:href="#DejaVuSans-44" transform="translate(29.492188 0)"/>
     <use xlink:href="#DejaVuSans-3a" transform="translate(106.494141 0)"/>
     <use xlink:href="#DejaVuSans-20" transform="translate(140.185547 0)"/>
     <use xlink:href="#DejaVuSans-31" transform="translate(171.972656 0)"/>
     <use xlink:href="#DejaVuSans-30" transform="translate(235.595703 0)"/>
     <use xlink:href="#DejaVuSans-33" transform="translate(299.21875 0)"/>
     <use xlink:href="#DejaVuSans-20" transform="translate(362.841797 0)"/>
     <use xlink:href="#DejaVuSans-7c" transform="translate(394.628906 0)"/>
     <use xlink:href="#DejaVuSans-20" transform="translate(428.320312 0)"/>
     <use xlink:href="#DejaVuSans-3b7" transform="translate(460.107422 0)"/>
    </g>
   </g>
  </g>
  <g id="axes_2">
   <g id="patch_7">
    <path d="M 232.636797 186.602022 
L 375.347794 186.602022 
L 375.347794 43.891025 
L 232.636797 43.891025 
z
" style="fill: #ffffff"/>
   </g>
   <g id="matplotlib.axis_3">
    <g id="xtick_6">
     <g id="line2d_24">
      <g>
       <use xlink:href="#m1dfef0eb5d" x="239.12366" y="186.602022" style="stroke: #000000; stroke-width: 0.8"/>
      </g>
     </g>
     <g id="text_18">
      <!-- 0 -->
      <g transform="translate(233.39741 207.27921) scale(0.18 -0.18)">
       <use xlink:href="#DejaVuSans-30"/>
      </g>
     </g>
    </g>
    <g id="xtick_7">
     <g id="line2d_25">
      <g>
       <use xlink:href="#m1dfef0eb5d" x="271.557978" y="186.602022" style="stroke: #000000; stroke-width: 0.8"/>
      </g>
     </g>
     <g id="text_19">
      <!-- 2 -->
      <g transform="translate(265.831728 207.27921) scale(0.18 -0.18)">
       <use xlink:href="#DejaVuSans-32"/>
      </g>
     </g>
    </g>
    <g id="xtick_8">
     <g id="line2d_26">
      <g>
       <use xlink:href="#m1dfef0eb5d" x="303.992295" y="186.602022" style="stroke: #000000; stroke-width: 0.8"/>
      </g>
     </g>
     <g id="text_20">
      <!-- 4 -->
      <g transform="translate(298.266045 207.27921) scale(0.18 -0.18)">
       <use xlink:href="#DejaVuSans-34"/>
      </g>
     </g>
    </g>
    <g id="xtick_9">
     <g id="line2d_27">
      <g>
       <use xlink:href="#m1dfef0eb5d" x="336.426613" y="186.602022" style="stroke: #000000; stroke-width: 0.8"/>
      </g>
     </g>
     <g id="text_21">
      <!-- 6 -->
      <g transform="translate(330.700363 207.27921) scale(0.18 -0.18)">
       <use xlink:href="#DejaVuSans-36"/>
      </g>
     </g>
    </g>
    <g id="xtick_10">
     <g id="line2d_28">
      <g>
       <use xlink:href="#m1dfef0eb5d" x="368.860931" y="186.602022" style="stroke: #000000; stroke-width: 0.8"/>
      </g>
     </g>
     <g id="text_22">
      <!-- 8 -->
      <g transform="translate(363.134681 207.27921) scale(0.18 -0.18)">
       <use xlink:href="#DejaVuSans-38"/>
      </g>
     </g>
    </g>
    <g id="text_23">
     <!-- Time (d) -->
     <g transform="translate(262.19542 230.219522) scale(0.2 -0.2)">
      <use xlink:href="#DejaVuSans-54"/>
      <use xlink:href="#DejaVuSans-69" transform="translate(57.958984 0)"/>
      <use xlink:href="#DejaVuSans-6d" transform="translate(85.742188 0)"/>
      <use xlink:href="#DejaVuSans-65" transform="translate(183.154297 0)"/>
      <use xlink:href="#DejaVuSans-20" transform="translate(244.677734 0)"/>
      <use xlink:href="#DejaVuSans-28" transform="translate(276.464844 0)"/>
      <use xlink:href="#DejaVuSans-64" transform="translate(315.478516 0)"/>
      <use xlink:href="#DejaVuSans-29" transform="translate(378.955078 0)"/>
     </g>
    </g>
   </g>
   <g id="matplotlib.axis_4">
    <g id="ytick_10">
     <g id="line2d_29">
      <g>
       <use xlink:href="#m2857edb027" x="232.636797" y="173.628295" style="stroke: #000000; stroke-width: 0.8"/>
      </g>
     </g>
     <g id="text_24">
      <!-- 3 -->
      <g transform="translate(214.184297 180.466889) scale(0.18 -0.18)">
       <use xlink:href="#DejaVuSans-33"/>
      </g>
     </g>
    </g>
    <g id="ytick_11">
     <g id="line2d_30">
      <g>
       <use xlink:href="#m2857edb027" x="232.636797" y="147.680841" style="stroke: #000000; stroke-width: 0.8"/>
      </g>
     </g>
     <g id="text_25">
      <!-- 4 -->
      <g transform="translate(214.184297 154.519435) scale(0.18 -0.18)">
       <use xlink:href="#DejaVuSans-34"/>
      </g>
     </g>
    </g>
    <g id="ytick_12">
     <g id="line2d_31">
      <g>
       <use xlink:href="#m2857edb027" x="232.636797" y="121.733387" style="stroke: #000000; stroke-width: 0.8"/>
      </g>
     </g>
     <g id="text_26">
      <!-- 5 -->
      <g transform="translate(214.184297 128.571981) scale(0.18 -0.18)">
       <use xlink:href="#DejaVuSans-35"/>
      </g>
     </g>
    </g>
    <g id="ytick_13">
     <g id="line2d_32">
      <g>
       <use xlink:href="#m2857edb027" x="232.636797" y="95.785933" style="stroke: #000000; stroke-width: 0.8"/>
      </g>
     </g>
     <g id="text_27">
      <!-- 6 -->
      <g transform="translate(214.184297 102.624527) scale(0.18 -0.18)">
       <use xlink:href="#DejaVuSans-36"/>
      </g>
     </g>
    </g>
    <g id="ytick_14">
     <g id="line2d_33">
      <g>
       <use xlink:href="#m2857edb027" x="232.636797" y="69.838479" style="stroke: #000000; stroke-width: 0.8"/>
      </g>
     </g>
     <g id="text_28">
      <!-- 7 -->
      <g transform="translate(214.184297 76.677072) scale(0.18 -0.18)">
       <use xlink:href="#DejaVuSans-37"/>
      </g>
     </g>
    </g>
    <g id="ytick_15">
     <g id="line2d_34">
      <g>
       <use xlink:href="#m2857edb027" x="232.636797" y="43.891025" style="stroke: #000000; stroke-width: 0.8"/>
      </g>
     </g>
     <g id="text_29">
      <!-- 8 -->
      <g transform="translate(214.184297 50.729618) scale(0.18 -0.18)">
       <use xlink:href="#DejaVuSans-38"/>
      </g>
     </g>
    </g>
    <g id="text_30">
     <!-- Log$_{10}$ CD8$^+$ T cells -->
     <g transform="translate(206.404297 201.106523) rotate(-90) scale(0.18 -0.18)">
      <defs>
       <path id="DejaVuSans-43" d="M 4122 4306 
L 4122 3641 
Q 3803 3938 3442 4084 
Q 3081 4231 2675 4231 
Q 1875 4231 1450 3742 
Q 1025 3253 1025 2328 
Q 1025 1406 1450 917 
Q 1875 428 2675 428 
Q 3081 428 3442 575 
Q 3803 722 4122 1019 
L 4122 359 
Q 3791 134 3420 21 
Q 3050 -91 2638 -91 
Q 1578 -91 968 557 
Q 359 1206 359 2328 
Q 359 3453 968 4101 
Q 1578 4750 2638 4750 
Q 3056 4750 3426 4639 
Q 3797 4528 4122 4306 
z
" transform="scale(0.015625)"/>
       <path id="DejaVuSans-2b" d="M 2944 4013 
L 2944 2272 
L 4684 2272 
L 4684 1741 
L 2944 1741 
L 2944 0 
L 2419 0 
L 2419 1741 
L 678 1741 
L 678 2272 
L 2419 2272 
L 2419 4013 
L 2944 4013 
z
" transform="scale(0.015625)"/>
       <path id="DejaVuSans-6c" d="M 603 4863 
L 1178 4863 
L 1178 0 
L 603 0 
L 603 4863 
z
" transform="scale(0.015625)"/>
      </defs>
      <use xlink:href="#DejaVuSans-4c" transform="translate(0 0.826562)"/>
      <use xlink:href="#DejaVuSans-6f" transform="translate(55.712891 0.826562)"/>
      <use xlink:href="#DejaVuSans-67" transform="translate(116.894531 0.826562)"/>
      <use xlink:href="#DejaVuSans-31" transform="translate(181.328125 -15.579688) scale(0.7)"/>
      <use xlink:href="#DejaVuSans-30" transform="translate(225.864258 -15.579688) scale(0.7)"/>
      <use xlink:href="#DejaVuSans-20" transform="translate(273.134766 0.826562)"/>
      <use xlink:href="#DejaVuSans-43" transform="translate(304.921875 0.826562)"/>
      <use xlink:href="#DejaVuSans-44" transform="translate(374.746094 0.826562)"/>
      <use xlink:href="#DejaVuSans-38" transform="translate(451.748047 0.826562)"/>
      <use xlink:href="#DejaVuSans-2b" transform="translate(529.96582 39.107812) scale(0.7)"/>
      <use xlink:href="#DejaVuSans-20" transform="translate(604.990234 0.826562)"/>
      <use xlink:href="#DejaVuSans-54" transform="translate(636.777344 0.826562)"/>
      <use xlink:href="#DejaVuSans-20" transform="translate(697.861328 0.826562)"/>
      <use xlink:href="#DejaVuSans-63" transform="translate(729.648438 0.826562)"/>
      <use xlink:href="#DejaVuSans-65" transform="translate(784.628906 0.826562)"/>
      <use xlink:href="#DejaVuSans-6c" transform="translate(846.152344 0.826562)"/>
      <use xlink:href="#DejaVuSans-6c" transform="translate(873.935547 0.826562)"/>
      <use xlink:href="#DejaVuSans-73" transform="translate(901.71875 0.826562)"/>
     </g>
    </g>
   </g>
   <g id="line2d_35">
    <path d="M 239.12366 132.781084 
L 244.991175 132.673811 
L 246.947013 132.407386 
L 248.250905 131.953815 
L 248.902851 131.575154 
L 249.554798 131.050364 
L 250.206744 130.348973 
L 250.85869 129.441922 
L 252.162582 126.985522 
L 253.466474 123.85198 
L 256.074258 117.312023 
L 257.378151 114.546625 
L 258.682043 112.210991 
L 259.985935 110.243217 
L 261.941773 107.8178 
L 263.897611 105.845083 
L 265.85345 104.189736 
L 268.461234 102.330434 
L 271.557978 100.47363 
L 274.980695 98.682607 
L 280.848209 95.8681 
L 284.759886 94.172172 
L 288.019616 92.976277 
L 291.279347 92.045627 
L 293.887131 91.514358 
L 296.494915 91.173331 
L 299.754646 90.99316 
L 303.014376 91.043424 
L 306.926053 91.333158 
L 312.141621 91.972388 
L 320.209454 93.236112 
L 342.131141 97.005834 
L 368.860931 101.574515 
L 368.860931 101.574515 
" clip-path="url(#p301c952a80)" style="fill: none; stroke: #ff1493; stroke-width: 1.5; stroke-linecap: square"/>
   </g>
   <g id="line2d_36">
    <path d="M 239.12366 132.781084 
L 244.339229 132.657117 
L 245.643121 132.494745 
L 246.947013 132.139329 
L 247.598959 131.837298 
L 248.250905 131.410414 
L 248.902851 130.830897 
L 249.554798 130.066039 
L 250.206744 129.091448 
L 251.510636 126.493382 
L 252.814528 123.175853 
L 256.726204 112.382193 
L 258.030097 109.400884 
L 259.333989 106.863797 
L 260.637881 104.720466 
L 261.941773 102.896753 
L 263.897611 100.61002 
L 265.85345 98.709399 
L 267.809288 97.080211 
L 270.417072 95.206682 
L 273.676803 93.199235 
L 276.936533 91.451357 
L 280.196263 89.91416 
L 283.455994 88.610118 
L 286.715724 87.585069 
L 289.975455 86.849388 
L 293.235185 86.38023 
L 296.494915 86.148747 
L 299.754646 86.125781 
L 303.666322 86.32621 
L 308.229945 86.793747 
L 314.749406 87.725284 
L 325.832489 89.588451 
L 368.860931 97.092548 
L 368.860931 97.092548 
" clip-path="url(#p301c952a80)" style="fill: none; stroke: #9370db; stroke-width: 1.5; stroke-linecap: square"/>
   </g>
   <g id="line2d_37">
    <path d="M 239.12366 132.781084 
L 243.687283 132.637708 
L 244.991175 132.451509 
L 246.295067 132.047852 
L 246.947013 131.707683 
L 247.598959 131.239778 
L 248.250905 130.611238 
L 248.902851 129.807588 
L 250.206744 127.641486 
L 251.510636 124.874823 
L 254.770366 117.529474 
L 256.074258 115.219515 
L 257.378151 113.508736 
L 258.682043 112.311116 
L 259.985935 111.481906 
L 261.289827 110.91457 
L 263.245665 110.404749 
L 265.201503 110.170392 
L 267.809288 110.123923 
L 271.557978 110.35444 
L 276.936533 110.955339 
L 288.671562 112.550706 
L 331.700004 118.523324 
L 350.60644 120.860593 
L 368.860931 122.896522 
L 368.860931 122.896522 
" clip-path="url(#p301c952a80)" style="fill: none; stroke: #00ced1; stroke-width: 1.5; stroke-linecap: square"/>
   </g>
   <g id="line2d_38">
    <path d="M 239.12366 132.781084 
L 243.035337 132.615551 
L 244.339229 132.40115 
L 245.643121 131.94212 
L 246.295067 131.564001 
L 246.947013 131.048846 
L 247.598959 130.382602 
L 248.902851 128.574922 
L 252.814528 121.957148 
L 254.11842 120.3926 
L 255.422312 119.242989 
L 256.726204 118.41145 
L 258.030097 117.81828 
L 259.985935 117.248572 
L 261.941773 116.943648 
L 264.549557 116.800995 
L 267.809288 116.877407 
L 272.37291 117.228624 
L 280.848209 118.161129 
L 321.920813 122.928598 
L 339.523357 124.667423 
L 357.125901 126.184188 
L 368.860931 127.072812 
L 368.860931 127.072812 
" clip-path="url(#p301c952a80)" style="fill: none; stroke: #0000ff; stroke-width: 1.5; stroke-linecap: square"/>
   </g>
   <g id="line2d_39">
    <path d="M 239.12366 132.781084 
L 241.731445 132.561922 
L 243.035337 132.275903 
L 244.339229 131.685961 
L 244.991175 131.220778 
L 246.295067 129.874229 
L 247.598959 128.080759 
L 249.554798 125.276748 
L 250.85869 123.733963 
L 252.162582 122.526169 
L 253.466474 121.607392 
L 254.770366 120.919137 
L 256.074258 120.410937 
L 258.030097 119.900865 
L 259.985935 119.609248 
L 262.593719 119.448357 
L 265.85345 119.477962 
L 270.417072 119.755635 
L 278.240425 120.500668 
L 321.268867 124.923391 
L 338.871411 126.403151 
L 356.473955 127.664905 
L 368.860931 128.42691 
L 368.860931 128.42691 
" clip-path="url(#p301c952a80)" style="fill: none; stroke: #008000; stroke-width: 1.5; stroke-linecap: square"/>
   </g>
   <g id="line2d_40">
    <path d="M 239.12366 132.781084 
L 241.731445 132.397357 
L 243.035337 131.918213 
L 244.339229 131.013337 
L 245.643121 129.582941 
L 249.554798 124.405711 
L 250.85869 123.153806 
L 252.162582 122.189188 
L 253.466474 121.458392 
L 255.422312 120.696586 
L 257.378151 120.225768 
L 259.985935 119.902138 
L 263.245665 119.804385 
L 267.157342 119.942835 
L 273.024856 120.404064 
L 284.759886 121.615198 
L 309.533837 124.167603 
L 327.136381 125.747364 
L 344.738926 127.108184 
L 362.993416 128.293423 
L 368.860931 128.626632 
L 368.860931 128.626632 
" clip-path="url(#p301c952a80)" style="fill: none; stroke: #ff8c00; stroke-width: 1.5; stroke-linecap: square"/>
   </g>
   <g id="line2d_41">
    <path d="M 239.12366 132.781084 
L 241.079498 132.348295 
L 242.383391 131.78688 
L 243.687283 130.771985 
L 244.991175 129.245284 
L 248.250905 124.926301 
L 249.554798 123.610818 
L 250.85869 122.585961 
L 252.162582 121.804071 
L 253.466474 121.216778 
L 255.422312 120.611932 
L 257.378151 120.247529 
L 259.985935 120.014236 
L 263.245665 119.981373 
L 267.809288 120.203818 
L 274.980695 120.833794 
L 326.484435 125.87334 
L 344.086979 127.214918 
L 362.34147 128.380531 
L 368.860931 128.741554 
L 368.860931 128.741554 
" clip-path="url(#p301c952a80)" style="fill: none; stroke: #ffd700; stroke-width: 1.5; stroke-linecap: square"/>
   </g>
   <g id="line2d_42">
    <path d="M 239.12366 132.781084 
L 241.079498 132.0275 
L 242.383391 131.128075 
L 243.687283 129.706864 
L 247.598959 124.591499 
L 248.902851 123.356866 
L 250.206744 122.401582 
L 251.510636 121.675727 
L 253.466474 120.915887 
L 255.422312 120.443231 
L 258.030097 120.114464 
L 261.289827 120.00923 
L 265.201503 120.139721 
L 271.069018 120.591639 
L 282.152102 121.719782 
L 307.577999 124.314155 
L 325.180543 125.873956 
L 342.783087 127.215306 
L 361.037578 128.380574 
L 368.860931 128.809678 
L 368.860931 128.809678 
" clip-path="url(#p301c952a80)" style="fill: none; stroke: #ff0000; stroke-width: 1.5; stroke-linecap: square"/>
   </g>
   <g id="line2d_43">
    <path d="M 239.12366 132.781084 
L 242.383391 132.589951 
L 243.687283 132.342939 
L 244.991175 131.823264 
L 245.643121 131.400456 
L 246.295067 130.843635 
L 247.598959 129.293225 
L 252.162582 122.777617 
L 253.466474 121.564391 
L 254.770366 120.657303 
L 256.074258 119.988648 
L 258.030097 119.315186 
L 259.985935 118.921673 
L 262.593719 118.682216 
L 265.85345 118.666194 
L 270.417072 118.926423 
L 277.588479 119.614735 
L 327.788327 124.903946 
L 345.390872 126.387486 
L 362.993416 127.652641 
L 368.860931 128.027548 
L 368.860931 128.027548 
" clip-path="url(#p301c952a80)" style="fill: none; stroke: #000000; stroke-width: 2; stroke-linecap: square"/>
   </g>
   <g id="patch_8">
    <path d="M 232.636797 186.602022 
L 232.636797 43.891025 
" style="fill: none; stroke: #000000; stroke-width: 2; stroke-linejoin: miter; stroke-linecap: square"/>
   </g>
   <g id="patch_9">
    <path d="M 375.347794 186.602022 
L 375.347794 43.891025 
" style="fill: none; stroke: #000000; stroke-width: 2; stroke-linejoin: miter; stroke-linecap: square"/>
   </g>
   <g id="patch_10">
    <path d="M 232.636797 186.602022 
L 375.347794 186.602022 
" style="fill: none; stroke: #000000; stroke-width: 2; stroke-linejoin: miter; stroke-linecap: square"/>
   </g>
   <g id="patch_11">
    <path d="M 232.636797 43.891025 
L 375.347794 43.891025 
" style="fill: none; stroke: #000000; stroke-width: 2; stroke-linejoin: miter; stroke-linecap: square"/>
   </g>
  </g>
 </g>
 <defs>
  <clipPath id="p94adb31e28">
   <rect x="47.1125" y="43.891025" width="142.710997" height="142.710997"/>
  </clipPath>
  <clipPath id="p301c952a80">
   <rect x="232.636797" y="43.891025" width="142.710997" height="142.710997"/>
  </clipPath>
 </defs>
</svg>
