<?xml version="1.0" encoding="utf-8" standalone="no"?>
<!DOCTYPE svg PUBLIC "-//W3C//DTD SVG 1.1//EN"
  "http://www.w3.org/Graphics/SVG/1.1/DTD/svg11.dtd">
<svg xmlns:xlink="http://www.w3.org/1999/xlink" width="720pt" height="432pt" viewBox="0 0 720 432" xmlns="http://www.w3.org/2000/svg" version="1.1">
 <metadata>
  <rdf:RDF xmlns:dc="http://purl.org/dc/elements/1.1/" xmlns:cc="http://creativecommons.org/ns#" xmlns:rdf="http://www.w3.org/1999/02/22-rdf-syntax-ns#">
   <cc:Work>
    <dc:type rdf:resource="http://purl.org/dc/dcmitype/StillImage"/>
    <dc:date>2024-01-12T14:31:50.820089</dc:date>
    <dc:format>image/svg+xml</dc:format>
    <dc:creator>
     <cc:Agent>
      <dc:title>Matplotlib v3.7.2, https://matplotlib.org/</dc:title>
     </cc:Agent>
    </dc:creator>
   </cc:Work>
  </rdf:RDF>
 </metadata>
 <defs>
  <style type="text/css">*{stroke-linejoin: round; stroke-linecap: butt}</style>
 </defs>
 <g id="figure_1">
  <g id="patch_1">
   <path d="M 0 432 
L 720 432 
L 720 0 
L 0 0 
z
" style="fill: #ffffff"/>
  </g>
  <g id="axes_1">
   <g id="patch_2">
    <path d="M 90 384.48 
L 648 384.48 
L 648 51.84 
L 90 51.84 
z
" style="fill: #ffffff"/>
   </g>
   <g id="PathCollection_1">
    <defs>
     <path id="mb2fa03710d" d="M 0 5 
C 1.326016 5 2.597899 4.473168 3.535534 3.535534 
C 4.473168 2.597899 5 1.326016 5 0 
C 5 -1.326016 4.473168 -2.597899 3.535534 -3.535534 
C 2.597899 -4.473168 1.326016 -5 0 -5 
C -1.326016 -5 -2.597899 -4.473168 -3.535534 -3.535534 
C -4.473168 -2.597899 -5 -1.326016 -5 0 
C -5 1.326016 -4.473168 2.597899 -3.535534 3.535534 
C -2.597899 4.473168 -1.326016 5 0 5 
z
"/>
    </defs>
    <g clip-path="url(#p92ed923e63)">
     <use xlink:href="#mb2fa03710d" x="121.993039" y="233.138157" style="fill: #008000"/>
     <use xlink:href="#mb2fa03710d" x="124.134972" y="214.238324" style="fill: #008000"/>
     <use xlink:href="#mb2fa03710d" x="117.933285" y="272.411563" style="fill: #008000"/>
     <use xlink:href="#mb2fa03710d" x="127.406681" y="204.927705" style="fill: #008000"/>
     <use xlink:href="#mb2fa03710d" x="125.692241" y="349.894461" style="fill: #008000"/>
     <use xlink:href="#mb2fa03710d" x="139.572907" y="349.894461" style="fill: #008000"/>
     <use xlink:href="#mb2fa03710d" x="137.509724" y="301.127275" style="fill: #008000"/>
     <use xlink:href="#mb2fa03710d" x="141.996051" y="349.894461" style="fill: #008000"/>
     <use xlink:href="#mb2fa03710d" x="124.070522" y="273.483499" style="fill: #008000"/>
     <use xlink:href="#mb2fa03710d" x="146.83373" y="301.127275" style="fill: #008000"/>
     <use xlink:href="#mb2fa03710d" x="134.57601" y="349.894461" style="fill: #008000"/>
     <use xlink:href="#mb2fa03710d" x="130.118383" y="273.483499" style="fill: #008000"/>
     <use xlink:href="#mb2fa03710d" x="120.337889" y="144.989872" style="fill: #008000"/>
     <use xlink:href="#mb2fa03710d" x="145.070237" y="260.057744" style="fill: #008000"/>
     <use xlink:href="#mb2fa03710d" x="126.924836" y="232.7294" style="fill: #008000"/>
     <use xlink:href="#mb2fa03710d" x="125.514581" y="298.43952" style="fill: #008000"/>
     <use xlink:href="#mb2fa03710d" x="126.28824" y="349.894461" style="fill: #008000"/>
     <use xlink:href="#mb2fa03710d" x="134.451362" y="273.483499" style="fill: #008000"/>
     <use xlink:href="#mb2fa03710d" x="141.444148" y="349.894461" style="fill: #008000"/>
     <use xlink:href="#mb2fa03710d" x="122.377494" y="273.483499" style="fill: #008000"/>
     <use xlink:href="#mb2fa03710d" x="128.867025" y="349.894461" style="fill: #008000"/>
     <use xlink:href="#mb2fa03710d" x="127.661586" y="291.895527" style="fill: #008000"/>
     <use xlink:href="#mb2fa03710d" x="127.989926" y="273.483499" style="fill: #008000"/>
     <use xlink:href="#mb2fa03710d" x="123.779469" y="239.002186" style="fill: #008000"/>
     <use xlink:href="#mb2fa03710d" x="125.189095" y="167.328432" style="fill: #008000"/>
     <use xlink:href="#mb2fa03710d" x="133.463704" y="349.894461" style="fill: #008000"/>
     <use xlink:href="#mb2fa03710d" x="127.910265" y="87.513566" style="fill: #008000"/>
     <use xlink:href="#mb2fa03710d" x="140.096963" y="290.724834" style="fill: #008000"/>
     <use xlink:href="#mb2fa03710d" x="130.366723" y="349.894461" style="fill: #008000"/>
     <use xlink:href="#mb2fa03710d" x="126.78496" y="273.483499" style="fill: #008000"/>
     <use xlink:href="#mb2fa03710d" x="129.337626" y="177.863031" style="fill: #008000"/>
     <use xlink:href="#mb2fa03710d" x="115.806007" y="169.300226" style="fill: #008000"/>
     <use xlink:href="#mb2fa03710d" x="123.961842" y="215.228094" style="fill: #008000"/>
     <use xlink:href="#mb2fa03710d" x="130.186468" y="271.568216" style="fill: #008000"/>
     <use xlink:href="#mb2fa03710d" x="134.021915" y="281.600201" style="fill: #008000"/>
     <use xlink:href="#mb2fa03710d" x="134.125922" y="203.736411" style="fill: #008000"/>
     <use xlink:href="#mb2fa03710d" x="121.11396" y="301.127275" style="fill: #008000"/>
     <use xlink:href="#mb2fa03710d" x="139.91973" y="349.894461" style="fill: #008000"/>
     <use xlink:href="#mb2fa03710d" x="140.074262" y="236.751515" style="fill: #008000"/>
     <use xlink:href="#mb2fa03710d" x="121.216129" y="124.626112" style="fill: #008000"/>
     <use xlink:href="#mb2fa03710d" x="135.116001" y="276.1406" style="fill: #008000"/>
     <use xlink:href="#mb2fa03710d" x="129.680543" y="349.894461" style="fill: #008000"/>
     <use xlink:href="#mb2fa03710d" x="120.499659" y="266.947329" style="fill: #008000"/>
     <use xlink:href="#mb2fa03710d" x="145.521761" y="174.521049" style="fill: #008000"/>
     <use xlink:href="#mb2fa03710d" x="145.518152" y="96.401557" style="fill: #008000"/>
     <use xlink:href="#mb2fa03710d" x="146.395435" y="204.299888" style="fill: #008000"/>
     <use xlink:href="#mb2fa03710d" x="144.782907" y="299.76887" style="fill: #008000"/>
     <use xlink:href="#mb2fa03710d" x="137.710786" y="275.018578" style="fill: #008000"/>
     <use xlink:href="#mb2fa03710d" x="117.734954" y="278.925382" style="fill: #008000"/>
     <use xlink:href="#mb2fa03710d" x="143.435989" y="349.894461" style="fill: #008000"/>
     <use xlink:href="#mb2fa03710d" x="132.274558" y="301.127275" style="fill: #008000"/>
     <use xlink:href="#mb2fa03710d" x="124.026285" y="273.05232" style="fill: #008000"/>
     <use xlink:href="#mb2fa03710d" x="128.890897" y="182.037395" style="fill: #008000"/>
     <use xlink:href="#mb2fa03710d" x="135.829456" y="273.483499" style="fill: #008000"/>
     <use xlink:href="#mb2fa03710d" x="122.288335" y="301.127275" style="fill: #008000"/>
     <use xlink:href="#mb2fa03710d" x="121.61743" y="277.516336" style="fill: #008000"/>
     <use xlink:href="#mb2fa03710d" x="130.743057" y="279.402723" style="fill: #008000"/>
     <use xlink:href="#mb2fa03710d" x="147.023681" y="369.36" style="fill: #008000"/>
     <use xlink:href="#mb2fa03710d" x="145.295145" y="252.133469" style="fill: #008000"/>
     <use xlink:href="#mb2fa03710d" x="116.735327" y="349.894461" style="fill: #008000"/>
     <use xlink:href="#mb2fa03710d" x="131.676457" y="276.367637" style="fill: #008000"/>
     <use xlink:href="#mb2fa03710d" x="130.03269" y="299.76887" style="fill: #008000"/>
     <use xlink:href="#mb2fa03710d" x="119.877993" y="199.613454" style="fill: #008000"/>
     <use xlink:href="#mb2fa03710d" x="119.534899" y="219.093113" style="fill: #008000"/>
     <use xlink:href="#mb2fa03710d" x="127.207807" y="223.460388" style="fill: #008000"/>
    </g>
   </g>
   <g id="PathCollection_2">
    <defs>
     <path id="m57d72bccb3" d="M 0 5 
C 1.326016 5 2.597899 4.473168 3.535534 3.535534 
C 4.473168 2.597899 5 1.326016 5 0 
C 5 -1.326016 4.473168 -2.597899 3.535534 -3.535534 
C 2.597899 -4.473168 1.326016 -5 0 -5 
C -1.326016 -5 -2.597899 -4.473168 -3.535534 -3.535534 
C -4.473168 -2.597899 -5 -1.326016 -5 0 
C -5 1.326016 -4.473168 2.597899 -3.535534 3.535534 
C -2.597899 4.473168 -1.326016 5 0 5 
z
"/>
    </defs>
    <g clip-path="url(#p92ed923e63)">
     <use xlink:href="#m57d72bccb3" x="299.174853" y="156.439743" style="fill: #800080"/>
     <use xlink:href="#m57d72bccb3" x="279.802192" y="301.127275" style="fill: #800080"/>
     <use xlink:href="#m57d72bccb3" x="304.516213" y="281.600201" style="fill: #800080"/>
     <use xlink:href="#m57d72bccb3" x="276.864944" y="349.894461" style="fill: #800080"/>
     <use xlink:href="#m57d72bccb3" x="299.901554" y="221.471208" style="fill: #800080"/>
     <use xlink:href="#m57d72bccb3" x="290.406911" y="251.401112" style="fill: #800080"/>
     <use xlink:href="#m57d72bccb3" x="300.91488" y="210.472229" style="fill: #800080"/>
     <use xlink:href="#m57d72bccb3" x="278.629623" y="349.894461" style="fill: #800080"/>
     <use xlink:href="#m57d72bccb3" x="284.10851" y="349.894461" style="fill: #800080"/>
     <use xlink:href="#m57d72bccb3" x="284.433614" y="253.780519" style="fill: #800080"/>
     <use xlink:href="#m57d72bccb3" x="297.434433" y="273.483499" style="fill: #800080"/>
     <use xlink:href="#m57d72bccb3" x="280.592127" y="273.05232" style="fill: #800080"/>
     <use xlink:href="#m57d72bccb3" x="288.118834" y="146.507802" style="fill: #800080"/>
     <use xlink:href="#m57d72bccb3" x="287.775474" y="273.917935" style="fill: #800080"/>
     <use xlink:href="#m57d72bccb3" x="300.758929" y="258.37836" style="fill: #800080"/>
     <use xlink:href="#m57d72bccb3" x="280.28157" y="164.095172" style="fill: #800080"/>
     <use xlink:href="#m57d72bccb3" x="288.83748" y="259.211652" style="fill: #800080"/>
     <use xlink:href="#m57d72bccb3" x="282.52416" y="232.122368" style="fill: #800080"/>
     <use xlink:href="#m57d72bccb3" x="284.140219" y="301.127275" style="fill: #800080"/>
     <use xlink:href="#m57d72bccb3" x="296.813147" y="301.127275" style="fill: #800080"/>
     <use xlink:href="#m57d72bccb3" x="289.592565" y="239.580504" style="fill: #800080"/>
     <use xlink:href="#m57d72bccb3" x="297.273286" y="301.127275" style="fill: #800080"/>
     <use xlink:href="#m57d72bccb3" x="293.981054" y="304.6583" style="fill: #800080"/>
     <use xlink:href="#m57d72bccb3" x="303.852213" y="349.894461" style="fill: #800080"/>
     <use xlink:href="#m57d72bccb3" x="279.179275" y="211.71693" style="fill: #800080"/>
     <use xlink:href="#m57d72bccb3" x="293.975647" y="239.117334" style="fill: #800080"/>
     <use xlink:href="#m57d72bccb3" x="299.964522" y="194.165476" style="fill: #800080"/>
     <use xlink:href="#m57d72bccb3" x="301.877305" y="235.662028" style="fill: #800080"/>
     <use xlink:href="#m57d72bccb3" x="292.460825" y="244.326241" style="fill: #800080"/>
     <use xlink:href="#m57d72bccb3" x="288.755109" y="236.422235" style="fill: #800080"/>
     <use xlink:href="#m57d72bccb3" x="299.541884" y="289.861436" style="fill: #800080"/>
     <use xlink:href="#m57d72bccb3" x="293.71236" y="301.127275" style="fill: #800080"/>
     <use xlink:href="#m57d72bccb3" x="298.573533" y="209.196404" style="fill: #800080"/>
     <use xlink:href="#m57d72bccb3" x="290.500615" y="301.127275" style="fill: #800080"/>
     <use xlink:href="#m57d72bccb3" x="304.817648" y="273.483499" style="fill: #800080"/>
     <use xlink:href="#m57d72bccb3" x="277.122276" y="273.483499" style="fill: #800080"/>
     <use xlink:href="#m57d72bccb3" x="296.062127" y="231.225237" style="fill: #800080"/>
     <use xlink:href="#m57d72bccb3" x="292.172465" y="239.930615" style="fill: #800080"/>
     <use xlink:href="#m57d72bccb3" x="281.356765" y="209.007967" style="fill: #800080"/>
     <use xlink:href="#m57d72bccb3" x="285.636619" y="344.415186" style="fill: #800080"/>
     <use xlink:href="#m57d72bccb3" x="288.705162" y="219.093113" style="fill: #800080"/>
     <use xlink:href="#m57d72bccb3" x="275.120804" y="217.870693" style="fill: #800080"/>
     <use xlink:href="#m57d72bccb3" x="276.095177" y="211.452163" style="fill: #800080"/>
     <use xlink:href="#m57d72bccb3" x="276.875823" y="261.61414" style="fill: #800080"/>
     <use xlink:href="#m57d72bccb3" x="290.001439" y="158.840142" style="fill: #800080"/>
     <use xlink:href="#m57d72bccb3" x="302.744324" y="349.894461" style="fill: #800080"/>
     <use xlink:href="#m57d72bccb3" x="292.149823" y="242.94354" style="fill: #800080"/>
     <use xlink:href="#m57d72bccb3" x="283.805942" y="171.802251" style="fill: #800080"/>
     <use xlink:href="#m57d72bccb3" x="291.00676" y="349.894461" style="fill: #800080"/>
     <use xlink:href="#m57d72bccb3" x="301.147389" y="349.894461" style="fill: #800080"/>
     <use xlink:href="#m57d72bccb3" x="300.553691" y="256.90958" style="fill: #800080"/>
     <use xlink:href="#m57d72bccb3" x="298.267119" y="273.483499" style="fill: #800080"/>
     <use xlink:href="#m57d72bccb3" x="286.514147" y="237.416466" style="fill: #800080"/>
     <use xlink:href="#m57d72bccb3" x="280.550925" y="151.735115" style="fill: #800080"/>
     <use xlink:href="#m57d72bccb3" x="288.575533" y="349.894461" style="fill: #800080"/>
     <use xlink:href="#m57d72bccb3" x="285.472688" y="273.483499" style="fill: #800080"/>
     <use xlink:href="#m57d72bccb3" x="288.029078" y="273.483499" style="fill: #800080"/>
     <use xlink:href="#m57d72bccb3" x="301.515786" y="349.894461" style="fill: #800080"/>
     <use xlink:href="#m57d72bccb3" x="304.293007" y="232.323906" style="fill: #800080"/>
     <use xlink:href="#m57d72bccb3" x="282.463667" y="273.483499" style="fill: #800080"/>
     <use xlink:href="#m57d72bccb3" x="292.500652" y="299.100634" style="fill: #800080"/>
     <use xlink:href="#m57d72bccb3" x="299.239812" y="261.439031" style="fill: #800080"/>
     <use xlink:href="#m57d72bccb3" x="293.757443" y="273.483499" style="fill: #800080"/>
     <use xlink:href="#m57d72bccb3" x="288.688712" y="280.613379" style="fill: #800080"/>
     <use xlink:href="#m57d72bccb3" x="298.789431" y="349.894461" style="fill: #800080"/>
     <use xlink:href="#m57d72bccb3" x="300.598371" y="349.894461" style="fill: #800080"/>
     <use xlink:href="#m57d72bccb3" x="280.431224" y="273.483499" style="fill: #800080"/>
     <use xlink:href="#m57d72bccb3" x="283.349216" y="285.988343" style="fill: #800080"/>
     <use xlink:href="#m57d72bccb3" x="281.465446" y="244.453764" style="fill: #800080"/>
     <use xlink:href="#m57d72bccb3" x="301.063417" y="218.021824" style="fill: #800080"/>
     <use xlink:href="#m57d72bccb3" x="296.29578" y="220.825656" style="fill: #800080"/>
     <use xlink:href="#m57d72bccb3" x="281.977161" y="219.093113" style="fill: #800080"/>
     <use xlink:href="#m57d72bccb3" x="294.903531" y="66.96" style="fill: #800080"/>
     <use xlink:href="#m57d72bccb3" x="287.05995" y="273.483499" style="fill: #800080"/>
     <use xlink:href="#m57d72bccb3" x="282.448596" y="243.81922" style="fill: #800080"/>
     <use xlink:href="#m57d72bccb3" x="275.187317" y="335.166807" style="fill: #800080"/>
     <use xlink:href="#m57d72bccb3" x="300.150013" y="245.485203" style="fill: #800080"/>
     <use xlink:href="#m57d72bccb3" x="295.024929" y="349.894461" style="fill: #800080"/>
     <use xlink:href="#m57d72bccb3" x="302.063446" y="290.435663" style="fill: #800080"/>
     <use xlink:href="#m57d72bccb3" x="288.980407" y="257.720707" style="fill: #800080"/>
     <use xlink:href="#m57d72bccb3" x="280.045936" y="299.76887" style="fill: #800080"/>
     <use xlink:href="#m57d72bccb3" x="301.41521" y="273.483499" style="fill: #800080"/>
     <use xlink:href="#m57d72bccb3" x="277.806265" y="349.894461" style="fill: #800080"/>
     <use xlink:href="#m57d72bccb3" x="278.714315" y="217.494914" style="fill: #800080"/>
     <use xlink:href="#m57d72bccb3" x="281.194313" y="327.01482" style="fill: #800080"/>
     <use xlink:href="#m57d72bccb3" x="285.848916" y="349.894461" style="fill: #800080"/>
     <use xlink:href="#m57d72bccb3" x="303.404019" y="301.127275" style="fill: #800080"/>
     <use xlink:href="#m57d72bccb3" x="290.078379" y="273.483499" style="fill: #800080"/>
     <use xlink:href="#m57d72bccb3" x="275.517342" y="292.788602" style="fill: #800080"/>
     <use xlink:href="#m57d72bccb3" x="276.890895" y="301.127275" style="fill: #800080"/>
     <use xlink:href="#m57d72bccb3" x="298.073375" y="212.655381" style="fill: #800080"/>
     <use xlink:href="#m57d72bccb3" x="294.865094" y="349.894461" style="fill: #800080"/>
     <use xlink:href="#m57d72bccb3" x="274.039311" y="310.35499" style="fill: #800080"/>
     <use xlink:href="#m57d72bccb3" x="298.044391" y="131.453724" style="fill: #800080"/>
     <use xlink:href="#m57d72bccb3" x="288.969458" y="151.062422" style="fill: #800080"/>
     <use xlink:href="#m57d72bccb3" x="298.178905" y="349.894461" style="fill: #800080"/>
     <use xlink:href="#m57d72bccb3" x="301.172634" y="235.125842" style="fill: #800080"/>
     <use xlink:href="#m57d72bccb3" x="275.498238" y="70.905434" style="fill: #800080"/>
     <use xlink:href="#m57d72bccb3" x="286.786502" y="199.767358" style="fill: #800080"/>
     <use xlink:href="#m57d72bccb3" x="280.389879" y="294.924775" style="fill: #800080"/>
     <use xlink:href="#m57d72bccb3" x="281.093709" y="349.894461" style="fill: #800080"/>
     <use xlink:href="#m57d72bccb3" x="280.813281" y="301.127275" style="fill: #800080"/>
     <use xlink:href="#m57d72bccb3" x="291.953277" y="273.483499" style="fill: #800080"/>
     <use xlink:href="#m57d72bccb3" x="283.389511" y="169.94424" style="fill: #800080"/>
     <use xlink:href="#m57d72bccb3" x="292.040486" y="257.884383" style="fill: #800080"/>
     <use xlink:href="#m57d72bccb3" x="296.937699" y="225.709814" style="fill: #800080"/>
     <use xlink:href="#m57d72bccb3" x="292.895757" y="234.806806" style="fill: #800080"/>
     <use xlink:href="#m57d72bccb3" x="279.247501" y="273.483499" style="fill: #800080"/>
     <use xlink:href="#m57d72bccb3" x="274.022876" y="273.483499" style="fill: #800080"/>
     <use xlink:href="#m57d72bccb3" x="292.376187" y="301.127275" style="fill: #800080"/>
     <use xlink:href="#m57d72bccb3" x="286.8869" y="349.894461" style="fill: #800080"/>
     <use xlink:href="#m57d72bccb3" x="300.716158" y="254.085445" style="fill: #800080"/>
     <use xlink:href="#m57d72bccb3" x="303.969533" y="285.721047" style="fill: #800080"/>
     <use xlink:href="#m57d72bccb3" x="282.525244" y="301.127275" style="fill: #800080"/>
     <use xlink:href="#m57d72bccb3" x="293.9391" y="211.188863" style="fill: #800080"/>
     <use xlink:href="#m57d72bccb3" x="302.432802" y="221.879037" style="fill: #800080"/>
     <use xlink:href="#m57d72bccb3" x="300.924866" y="337.515317" style="fill: #800080"/>
     <use xlink:href="#m57d72bccb3" x="284.427262" y="349.894461" style="fill: #800080"/>
     <use xlink:href="#m57d72bccb3" x="276.022241" y="262.32015" style="fill: #800080"/>
     <use xlink:href="#m57d72bccb3" x="288.622885" y="198.851604" style="fill: #800080"/>
     <use xlink:href="#m57d72bccb3" x="290.885872" y="238.203242" style="fill: #800080"/>
     <use xlink:href="#m57d72bccb3" x="277.684566" y="301.127275" style="fill: #800080"/>
     <use xlink:href="#m57d72bccb3" x="297.735825" y="234.174648" style="fill: #800080"/>
     <use xlink:href="#m57d72bccb3" x="301.947683" y="349.894461" style="fill: #800080"/>
     <use xlink:href="#m57d72bccb3" x="288.317089" y="127.234508" style="fill: #800080"/>
     <use xlink:href="#m57d72bccb3" x="293.547305" y="301.127275" style="fill: #800080"/>
     <use xlink:href="#m57d72bccb3" x="284.51747" y="349.894461" style="fill: #800080"/>
     <use xlink:href="#m57d72bccb3" x="278.960066" y="349.894461" style="fill: #800080"/>
     <use xlink:href="#m57d72bccb3" x="295.684405" y="273.483499" style="fill: #800080"/>
     <use xlink:href="#m57d72bccb3" x="295.040333" y="255.166382" style="fill: #800080"/>
     <use xlink:href="#m57d72bccb3" x="288.23633" y="290.147867" style="fill: #800080"/>
     <use xlink:href="#m57d72bccb3" x="282.119173" y="301.127275" style="fill: #800080"/>
     <use xlink:href="#m57d72bccb3" x="303.974357" y="349.894461" style="fill: #800080"/>
     <use xlink:href="#m57d72bccb3" x="295.773971" y="349.894461" style="fill: #800080"/>
     <use xlink:href="#m57d72bccb3" x="279.231435" y="273.483499" style="fill: #800080"/>
     <use xlink:href="#m57d72bccb3" x="293.114986" y="230.149935" style="fill: #800080"/>
     <use xlink:href="#m57d72bccb3" x="304.368951" y="169.351382" style="fill: #800080"/>
     <use xlink:href="#m57d72bccb3" x="277.316875" y="274.575797" style="fill: #800080"/>
     <use xlink:href="#m57d72bccb3" x="297.695403" y="240.995326" style="fill: #800080"/>
     <use xlink:href="#m57d72bccb3" x="295.108639" y="309.565342" style="fill: #800080"/>
     <use xlink:href="#m57d72bccb3" x="293.702353" y="162.591206" style="fill: #800080"/>
     <use xlink:href="#m57d72bccb3" x="281.552754" y="248.705859" style="fill: #800080"/>
     <use xlink:href="#m57d72bccb3" x="296.076871" y="256.110306" style="fill: #800080"/>
     <use xlink:href="#m57d72bccb3" x="283.527767" y="349.894461" style="fill: #800080"/>
     <use xlink:href="#m57d72bccb3" x="290.539455" y="290.147867" style="fill: #800080"/>
     <use xlink:href="#m57d72bccb3" x="282.588969" y="349.894461" style="fill: #800080"/>
     <use xlink:href="#m57d72bccb3" x="294.259692" y="243.945518" style="fill: #800080"/>
     <use xlink:href="#m57d72bccb3" x="291.556113" y="217.122028" style="fill: #800080"/>
     <use xlink:href="#m57d72bccb3" x="286.372238" y="224.919557" style="fill: #800080"/>
     <use xlink:href="#m57d72bccb3" x="295.596833" y="221.066742" style="fill: #800080"/>
    </g>
   </g>
   <g id="PathCollection_3">
    <defs>
     <path id="m8081523e42" d="M 0 -5 
L -5 5 
L 5 5 
z
"/>
    </defs>
    <g clip-path="url(#p92ed923e63)">
     <use xlink:href="#m8081523e42" x="446.671967" y="223.375882" style="fill: #008000"/>
     <use xlink:href="#m8081523e42" x="453.763866" y="121.43639" style="fill: #008000"/>
     <use xlink:href="#m8081523e42" x="441.622561" y="172.431197" style="fill: #008000"/>
     <use xlink:href="#m8081523e42" x="458.250968" y="279.883989" style="fill: #008000"/>
     <use xlink:href="#m8081523e42" x="446.825384" y="273.267505" style="fill: #008000"/>
     <use xlink:href="#m8081523e42" x="462.437043" y="279.883989" style="fill: #008000"/>
     <use xlink:href="#m8081523e42" x="455.704817" y="214.09858" style="fill: #008000"/>
     <use xlink:href="#m8081523e42" x="453.284859" y="160.496528" style="fill: #008000"/>
     <use xlink:href="#m8081523e42" x="438.000113" y="279.883989" style="fill: #008000"/>
     <use xlink:href="#m8081523e42" x="463.49521" y="221.552504" style="fill: #008000"/>
     <use xlink:href="#m8081523e42" x="458.897455" y="151.356331" style="fill: #008000"/>
     <use xlink:href="#m8081523e42" x="440.580559" y="279.883989" style="fill: #008000"/>
     <use xlink:href="#m8081523e42" x="437.291456" y="183.050006" style="fill: #008000"/>
     <use xlink:href="#m8081523e42" x="461.516298" y="235.125842" style="fill: #008000"/>
     <use xlink:href="#m8081523e42" x="462.345183" y="241.71742" style="fill: #008000"/>
     <use xlink:href="#m8081523e42" x="459.438292" y="209.385597" style="fill: #008000"/>
     <use xlink:href="#m8081523e42" x="433.689709" y="104.307135" style="fill: #008000"/>
     <use xlink:href="#m8081523e42" x="436.400375" y="279.883989" style="fill: #008000"/>
     <use xlink:href="#m8081523e42" x="444.212898" y="169.479548" style="fill: #008000"/>
     <use xlink:href="#m8081523e42" x="441.775531" y="117.646986" style="fill: #008000"/>
     <use xlink:href="#m8081523e42" x="464.078815" y="279.883989" style="fill: #008000"/>
     <use xlink:href="#m8081523e42" x="450.683033" y="279.883989" style="fill: #008000"/>
     <use xlink:href="#m8081523e42" x="433.586705" y="279.883989" style="fill: #008000"/>
     <use xlink:href="#m8081523e42" x="460.349018" y="279.883989" style="fill: #008000"/>
     <use xlink:href="#m8081523e42" x="455.43575" y="202.739091" style="fill: #008000"/>
     <use xlink:href="#m8081523e42" x="434.85221" y="261.439031" style="fill: #008000"/>
     <use xlink:href="#m8081523e42" x="450.139552" y="279.883989" style="fill: #008000"/>
     <use xlink:href="#m8081523e42" x="440.556321" y="161.944953" style="fill: #008000"/>
     <use xlink:href="#m8081523e42" x="437.617206" y="191.949839" style="fill: #008000"/>
     <use xlink:href="#m8081523e42" x="459.814123" y="164.571055" style="fill: #008000"/>
     <use xlink:href="#m8081523e42" x="451.639696" y="166.317208" style="fill: #008000"/>
     <use xlink:href="#m8081523e42" x="462.085842" y="211.849867" style="fill: #008000"/>
     <use xlink:href="#m8081523e42" x="457.804289" y="125.844317" style="fill: #008000"/>
    </g>
   </g>
   <g id="PathCollection_4">
    <defs>
     <path id="m3332d681e9" d="M 0 -5 
L -5 5 
L 5 5 
z
"/>
    </defs>
    <g clip-path="url(#p92ed923e63)">
     <use xlink:href="#m3332d681e9" x="617.249584" y="220.188505" style="fill: #800080"/>
     <use xlink:href="#m3332d681e9" x="590.964322" y="278.688165" style="fill: #800080"/>
     <use xlink:href="#m3332d681e9" x="595.334186" y="236.312942" style="fill: #800080"/>
     <use xlink:href="#m3332d681e9" x="594.35995" y="167.695673" style="fill: #800080"/>
     <use xlink:href="#m3332d681e9" x="596.879185" y="186.772581" style="fill: #800080"/>
     <use xlink:href="#m3332d681e9" x="608.710578" y="159.538823" style="fill: #800080"/>
     <use xlink:href="#m3332d681e9" x="614.703499" y="199.511138" style="fill: #800080"/>
     <use xlink:href="#m3332d681e9" x="619.195101" y="224.313502" style="fill: #800080"/>
     <use xlink:href="#m3332d681e9" x="596.168761" y="254.238553" style="fill: #800080"/>
     <use xlink:href="#m3332d681e9" x="606.270441" y="279.883989" style="fill: #800080"/>
     <use xlink:href="#m3332d681e9" x="602.579673" y="194.944381" style="fill: #800080"/>
     <use xlink:href="#m3332d681e9" x="605.129996" y="256.110306" style="fill: #800080"/>
     <use xlink:href="#m3332d681e9" x="600.513342" y="242.326888" style="fill: #800080"/>
     <use xlink:href="#m3332d681e9" x="614.35541" y="266.18084" style="fill: #800080"/>
     <use xlink:href="#m3332d681e9" x="604.985062" y="222.955507" style="fill: #800080"/>
     <use xlink:href="#m3332d681e9" x="599.147559" y="198.952454" style="fill: #800080"/>
     <use xlink:href="#m3332d681e9" x="606.230237" y="279.883989" style="fill: #800080"/>
     <use xlink:href="#m3332d681e9" x="620.814916" y="247.475113" style="fill: #800080"/>
     <use xlink:href="#m3332d681e9" x="603.531163" y="194.484573" style="fill: #800080"/>
     <use xlink:href="#m3332d681e9" x="603.052482" y="152.268271" style="fill: #800080"/>
     <use xlink:href="#m3332d681e9" x="613.58011" y="239.813648" style="fill: #800080"/>
     <use xlink:href="#m3332d681e9" x="598.0342" y="258.544012" style="fill: #800080"/>
     <use xlink:href="#m3332d681e9" x="609.553095" y="70.928876" style="fill: #800080"/>
     <use xlink:href="#m3332d681e9" x="599.296435" y="221.390048" style="fill: #800080"/>
     <use xlink:href="#m3332d681e9" x="621.178491" y="258.544012" style="fill: #800080"/>
     <use xlink:href="#m3332d681e9" x="616.728096" y="279.883989" style="fill: #800080"/>
     <use xlink:href="#m3332d681e9" x="620.607245" y="210.407614" style="fill: #800080"/>
     <use xlink:href="#m3332d681e9" x="601.585402" y="231.721679" style="fill: #800080"/>
     <use xlink:href="#m3332d681e9" x="594.993796" y="279.883989" style="fill: #800080"/>
     <use xlink:href="#m3332d681e9" x="597.876156" y="246.008578" style="fill: #800080"/>
     <use xlink:href="#m3332d681e9" x="608.332274" y="184.377186" style="fill: #800080"/>
     <use xlink:href="#m3332d681e9" x="609.377144" y="189.551154" style="fill: #800080"/>
     <use xlink:href="#m3332d681e9" x="596.912708" y="226.60287" style="fill: #800080"/>
     <use xlink:href="#m3332d681e9" x="617.005185" y="162.245259" style="fill: #800080"/>
     <use xlink:href="#m3332d681e9" x="611.575207" y="217.047794" style="fill: #800080"/>
     <use xlink:href="#m3332d681e9" x="599.477418" y="223.460388" style="fill: #800080"/>
     <use xlink:href="#m3332d681e9" x="599.259325" y="211.983177" style="fill: #800080"/>
     <use xlink:href="#m3332d681e9" x="621.539807" y="262.855604" style="fill: #800080"/>
     <use xlink:href="#m3332d681e9" x="607.848108" y="257.884383" style="fill: #800080"/>
     <use xlink:href="#m3332d681e9" x="615.849952" y="210.407614" style="fill: #800080"/>
     <use xlink:href="#m3332d681e9" x="603.686143" y="212.250922" style="fill: #800080"/>
     <use xlink:href="#m3332d681e9" x="595.693948" y="215.875305" style="fill: #800080"/>
     <use xlink:href="#m3332d681e9" x="618.934077" y="240.756834" style="fill: #800080"/>
     <use xlink:href="#m3332d681e9" x="621.095948" y="279.883989" style="fill: #800080"/>
     <use xlink:href="#m3332d681e9" x="601.477263" y="217.644876" style="fill: #800080"/>
    </g>
   </g>
   <g id="matplotlib.axis_1">
    <g id="xtick_1">
     <g id="line2d_1">
      <defs>
       <path id="m93a6649f50" d="M 0 0 
L 0 3.5 
" style="stroke: #000000; stroke-width: 0.8"/>
      </defs>
      <g>
       <use xlink:href="#m93a6649f50" x="210.477273" y="384.48" style="stroke: #000000; stroke-width: 0.8"/>
      </g>
     </g>
     <g id="text_1">
      <!-- FLU09 -->
      <g transform="translate(195.043679 399.078438) scale(0.1 -0.1)">
       <defs>
        <path id="DejaVuSans-46" d="M 628 4666 
L 3309 4666 
L 3309 4134 
L 1259 4134 
L 1259 2759 
L 3109 2759 
L 3109 2228 
L 1259 2228 
L 1259 0 
L 628 0 
L 628 4666 
z
" transform="scale(0.015625)"/>
        <path id="DejaVuSans-4c" d="M 628 4666 
L 1259 4666 
L 1259 531 
L 3531 531 
L 3531 0 
L 628 0 
L 628 4666 
z
" transform="scale(0.015625)"/>
        <path id="DejaVuSans-55" d="M 556 4666 
L 1191 4666 
L 1191 1831 
Q 1191 1081 1462 751 
Q 1734 422 2344 422 
Q 2950 422 3222 751 
Q 3494 1081 3494 1831 
L 3494 4666 
L 4128 4666 
L 4128 1753 
Q 4128 841 3676 375 
Q 3225 -91 2344 -91 
Q 1459 -91 1007 375 
Q 556 841 556 1753 
L 556 4666 
z
" transform="scale(0.015625)"/>
        <path id="DejaVuSans-30" d="M 2034 4250 
Q 1547 4250 1301 3770 
Q 1056 3291 1056 2328 
Q 1056 1369 1301 889 
Q 1547 409 2034 409 
Q 2525 409 2770 889 
Q 3016 1369 3016 2328 
Q 3016 3291 2770 3770 
Q 2525 4250 2034 4250 
z
M 2034 4750 
Q 2819 4750 3233 4129 
Q 3647 3509 3647 2328 
Q 3647 1150 3233 529 
Q 2819 -91 2034 -91 
Q 1250 -91 836 529 
Q 422 1150 422 2328 
Q 422 3509 836 4129 
Q 1250 4750 2034 4750 
z
" transform="scale(0.015625)"/>
        <path id="DejaVuSans-39" d="M 703 97 
L 703 672 
Q 941 559 1184 500 
Q 1428 441 1663 441 
Q 2288 441 2617 861 
Q 2947 1281 2994 2138 
Q 2813 1869 2534 1725 
Q 2256 1581 1919 1581 
Q 1219 1581 811 2004 
Q 403 2428 403 3163 
Q 403 3881 828 4315 
Q 1253 4750 1959 4750 
Q 2769 4750 3195 4129 
Q 3622 3509 3622 2328 
Q 3622 1225 3098 567 
Q 2575 -91 1691 -91 
Q 1453 -91 1209 -44 
Q 966 3 703 97 
z
M 1959 2075 
Q 2384 2075 2632 2365 
Q 2881 2656 2881 3163 
Q 2881 3666 2632 3958 
Q 2384 4250 1959 4250 
Q 1534 4250 1286 3958 
Q 1038 3666 1038 3163 
Q 1038 2656 1286 2365 
Q 1534 2075 1959 2075 
z
" transform="scale(0.015625)"/>
       </defs>
       <use xlink:href="#DejaVuSans-46"/>
       <use xlink:href="#DejaVuSans-4c" x="57.519531"/>
       <use xlink:href="#DejaVuSans-55" x="108.232422"/>
       <use xlink:href="#DejaVuSans-30" x="181.425781"/>
       <use xlink:href="#DejaVuSans-39" x="245.048828"/>
      </g>
     </g>
    </g>
    <g id="xtick_2">
     <g id="line2d_2">
      <g>
       <use xlink:href="#m93a6649f50" x="527.522727" y="384.48" style="stroke: #000000; stroke-width: 0.8"/>
      </g>
     </g>
     <g id="text_2">
      <!-- Hopkins -->
      <g transform="translate(507.471165 399.078438) scale(0.1 -0.1)">
       <defs>
        <path id="DejaVuSans-48" d="M 628 4666 
L 1259 4666 
L 1259 2753 
L 3553 2753 
L 3553 4666 
L 4184 4666 
L 4184 0 
L 3553 0 
L 3553 2222 
L 1259 2222 
L 1259 0 
L 628 0 
L 628 4666 
z
" transform="scale(0.015625)"/>
        <path id="DejaVuSans-6f" d="M 1959 3097 
Q 1497 3097 1228 2736 
Q 959 2375 959 1747 
Q 959 1119 1226 758 
Q 1494 397 1959 397 
Q 2419 397 2687 759 
Q 2956 1122 2956 1747 
Q 2956 2369 2687 2733 
Q 2419 3097 1959 3097 
z
M 1959 3584 
Q 2709 3584 3137 3096 
Q 3566 2609 3566 1747 
Q 3566 888 3137 398 
Q 2709 -91 1959 -91 
Q 1206 -91 779 398 
Q 353 888 353 1747 
Q 353 2609 779 3096 
Q 1206 3584 1959 3584 
z
" transform="scale(0.015625)"/>
        <path id="DejaVuSans-70" d="M 1159 525 
L 1159 -1331 
L 581 -1331 
L 581 3500 
L 1159 3500 
L 1159 2969 
Q 1341 3281 1617 3432 
Q 1894 3584 2278 3584 
Q 2916 3584 3314 3078 
Q 3713 2572 3713 1747 
Q 3713 922 3314 415 
Q 2916 -91 2278 -91 
Q 1894 -91 1617 61 
Q 1341 213 1159 525 
z
M 3116 1747 
Q 3116 2381 2855 2742 
Q 2594 3103 2138 3103 
Q 1681 3103 1420 2742 
Q 1159 2381 1159 1747 
Q 1159 1113 1420 752 
Q 1681 391 2138 391 
Q 2594 391 2855 752 
Q 3116 1113 3116 1747 
z
" transform="scale(0.015625)"/>
        <path id="DejaVuSans-6b" d="M 581 4863 
L 1159 4863 
L 1159 1991 
L 2875 3500 
L 3609 3500 
L 1753 1863 
L 3688 0 
L 2938 0 
L 1159 1709 
L 1159 0 
L 581 0 
L 581 4863 
z
" transform="scale(0.015625)"/>
        <path id="DejaVuSans-69" d="M 603 3500 
L 1178 3500 
L 1178 0 
L 603 0 
L 603 3500 
z
M 603 4863 
L 1178 4863 
L 1178 4134 
L 603 4134 
L 603 4863 
z
" transform="scale(0.015625)"/>
        <path id="DejaVuSans-6e" d="M 3513 2113 
L 3513 0 
L 2938 0 
L 2938 2094 
Q 2938 2591 2744 2837 
Q 2550 3084 2163 3084 
Q 1697 3084 1428 2787 
Q 1159 2491 1159 1978 
L 1159 0 
L 581 0 
L 581 3500 
L 1159 3500 
L 1159 2956 
Q 1366 3272 1645 3428 
Q 1925 3584 2291 3584 
Q 2894 3584 3203 3211 
Q 3513 2838 3513 2113 
z
" transform="scale(0.015625)"/>
        <path id="DejaVuSans-73" d="M 2834 3397 
L 2834 2853 
Q 2591 2978 2328 3040 
Q 2066 3103 1784 3103 
Q 1356 3103 1142 2972 
Q 928 2841 928 2578 
Q 928 2378 1081 2264 
Q 1234 2150 1697 2047 
L 1894 2003 
Q 2506 1872 2764 1633 
Q 3022 1394 3022 966 
Q 3022 478 2636 193 
Q 2250 -91 1575 -91 
Q 1294 -91 989 -36 
Q 684 19 347 128 
L 347 722 
Q 666 556 975 473 
Q 1284 391 1588 391 
Q 1994 391 2212 530 
Q 2431 669 2431 922 
Q 2431 1156 2273 1281 
Q 2116 1406 1581 1522 
L 1381 1569 
Q 847 1681 609 1914 
Q 372 2147 372 2553 
Q 372 3047 722 3315 
Q 1072 3584 1716 3584 
Q 2034 3584 2315 3537 
Q 2597 3491 2834 3397 
z
" transform="scale(0.015625)"/>
       </defs>
       <use xlink:href="#DejaVuSans-48"/>
       <use xlink:href="#DejaVuSans-6f" x="75.195312"/>
       <use xlink:href="#DejaVuSans-70" x="136.376953"/>
       <use xlink:href="#DejaVuSans-6b" x="199.853516"/>
       <use xlink:href="#DejaVuSans-69" x="257.763672"/>
       <use xlink:href="#DejaVuSans-6e" x="285.546875"/>
       <use xlink:href="#DejaVuSans-73" x="348.925781"/>
      </g>
     </g>
    </g>
   </g>
   <g id="matplotlib.axis_2">
    <g id="ytick_1">
     <g id="line2d_3">
      <defs>
       <path id="mdead19e0c2" d="M 0 0 
L -3.5 0 
" style="stroke: #000000; stroke-width: 0.8"/>
      </defs>
      <g>
       <use xlink:href="#mdead19e0c2" x="90" y="324.739224" style="stroke: #000000; stroke-width: 0.8"/>
      </g>
     </g>
     <g id="text_3">
      <!-- 0.1 -->
      <g transform="translate(67.096875 328.538443) scale(0.1 -0.1)">
       <defs>
        <path id="DejaVuSans-2e" d="M 684 794 
L 1344 794 
L 1344 0 
L 684 0 
L 684 794 
z
" transform="scale(0.015625)"/>
        <path id="DejaVuSans-31" d="M 794 531 
L 1825 531 
L 1825 4091 
L 703 3866 
L 703 4441 
L 1819 4666 
L 2450 4666 
L 2450 531 
L 3481 531 
L 3481 0 
L 794 0 
L 794 531 
z
" transform="scale(0.015625)"/>
       </defs>
       <use xlink:href="#DejaVuSans-30"/>
       <use xlink:href="#DejaVuSans-2e" x="63.623047"/>
       <use xlink:href="#DejaVuSans-31" x="95.410156"/>
      </g>
     </g>
    </g>
    <g id="ytick_2">
     <g id="line2d_4">
      <g>
       <use xlink:href="#mdead19e0c2" x="90" y="264.771765" style="stroke: #000000; stroke-width: 0.8"/>
      </g>
     </g>
     <g id="text_4">
      <!-- 0.2 -->
      <g transform="translate(67.096875 268.570984) scale(0.1 -0.1)">
       <defs>
        <path id="DejaVuSans-32" d="M 1228 531 
L 3431 531 
L 3431 0 
L 469 0 
L 469 531 
Q 828 903 1448 1529 
Q 2069 2156 2228 2338 
Q 2531 2678 2651 2914 
Q 2772 3150 2772 3378 
Q 2772 3750 2511 3984 
Q 2250 4219 1831 4219 
Q 1534 4219 1204 4116 
Q 875 4013 500 3803 
L 500 4441 
Q 881 4594 1212 4672 
Q 1544 4750 1819 4750 
Q 2544 4750 2975 4387 
Q 3406 4025 3406 3419 
Q 3406 3131 3298 2873 
Q 3191 2616 2906 2266 
Q 2828 2175 2409 1742 
Q 1991 1309 1228 531 
z
" transform="scale(0.015625)"/>
       </defs>
       <use xlink:href="#DejaVuSans-30"/>
       <use xlink:href="#DejaVuSans-2e" x="63.623047"/>
       <use xlink:href="#DejaVuSans-32" x="95.410156"/>
      </g>
     </g>
    </g>
    <g id="ytick_3">
     <g id="line2d_5">
      <g>
       <use xlink:href="#mdead19e0c2" x="90" y="204.804306" style="stroke: #000000; stroke-width: 0.8"/>
      </g>
     </g>
     <g id="text_5">
      <!-- 0.3 -->
      <g transform="translate(67.096875 208.603525) scale(0.1 -0.1)">
       <defs>
        <path id="DejaVuSans-33" d="M 2597 2516 
Q 3050 2419 3304 2112 
Q 3559 1806 3559 1356 
Q 3559 666 3084 287 
Q 2609 -91 1734 -91 
Q 1441 -91 1130 -33 
Q 819 25 488 141 
L 488 750 
Q 750 597 1062 519 
Q 1375 441 1716 441 
Q 2309 441 2620 675 
Q 2931 909 2931 1356 
Q 2931 1769 2642 2001 
Q 2353 2234 1838 2234 
L 1294 2234 
L 1294 2753 
L 1863 2753 
Q 2328 2753 2575 2939 
Q 2822 3125 2822 3475 
Q 2822 3834 2567 4026 
Q 2313 4219 1838 4219 
Q 1578 4219 1281 4162 
Q 984 4106 628 3988 
L 628 4550 
Q 988 4650 1302 4700 
Q 1616 4750 1894 4750 
Q 2613 4750 3031 4423 
Q 3450 4097 3450 3541 
Q 3450 3153 3228 2886 
Q 3006 2619 2597 2516 
z
" transform="scale(0.015625)"/>
       </defs>
       <use xlink:href="#DejaVuSans-30"/>
       <use xlink:href="#DejaVuSans-2e" x="63.623047"/>
       <use xlink:href="#DejaVuSans-33" x="95.410156"/>
      </g>
     </g>
    </g>
    <g id="ytick_4">
     <g id="line2d_6">
      <g>
       <use xlink:href="#mdead19e0c2" x="90" y="144.836848" style="stroke: #000000; stroke-width: 0.8"/>
      </g>
     </g>
     <g id="text_6">
      <!-- 0.4 -->
      <g transform="translate(67.096875 148.636066) scale(0.1 -0.1)">
       <defs>
        <path id="DejaVuSans-34" d="M 2419 4116 
L 825 1625 
L 2419 1625 
L 2419 4116 
z
M 2253 4666 
L 3047 4666 
L 3047 1625 
L 3713 1625 
L 3713 1100 
L 3047 1100 
L 3047 0 
L 2419 0 
L 2419 1100 
L 313 1100 
L 313 1709 
L 2253 4666 
z
" transform="scale(0.015625)"/>
       </defs>
       <use xlink:href="#DejaVuSans-30"/>
       <use xlink:href="#DejaVuSans-2e" x="63.623047"/>
       <use xlink:href="#DejaVuSans-34" x="95.410156"/>
      </g>
     </g>
    </g>
    <g id="ytick_5">
     <g id="line2d_7">
      <g>
       <use xlink:href="#mdead19e0c2" x="90" y="84.869389" style="stroke: #000000; stroke-width: 0.8"/>
      </g>
     </g>
     <g id="text_7">
      <!-- 0.5 -->
      <g transform="translate(67.096875 88.668608) scale(0.1 -0.1)">
       <defs>
        <path id="DejaVuSans-35" d="M 691 4666 
L 3169 4666 
L 3169 4134 
L 1269 4134 
L 1269 2991 
Q 1406 3038 1543 3061 
Q 1681 3084 1819 3084 
Q 2600 3084 3056 2656 
Q 3513 2228 3513 1497 
Q 3513 744 3044 326 
Q 2575 -91 1722 -91 
Q 1428 -91 1123 -41 
Q 819 9 494 109 
L 494 744 
Q 775 591 1075 516 
Q 1375 441 1709 441 
Q 2250 441 2565 725 
Q 2881 1009 2881 1497 
Q 2881 1984 2565 2268 
Q 2250 2553 1709 2553 
Q 1456 2553 1204 2497 
Q 953 2441 691 2322 
L 691 4666 
z
" transform="scale(0.015625)"/>
       </defs>
       <use xlink:href="#DejaVuSans-30"/>
       <use xlink:href="#DejaVuSans-2e" x="63.623047"/>
       <use xlink:href="#DejaVuSans-35" x="95.410156"/>
      </g>
     </g>
    </g>
    <g id="text_8">
     <!-- Log10 TGFα.P Relative Luminescence -->
     <g transform="translate(61.017187 311.886562) rotate(-90) scale(0.1 -0.1)">
      <defs>
       <path id="DejaVuSans-67" d="M 2906 1791 
Q 2906 2416 2648 2759 
Q 2391 3103 1925 3103 
Q 1463 3103 1205 2759 
Q 947 2416 947 1791 
Q 947 1169 1205 825 
Q 1463 481 1925 481 
Q 2391 481 2648 825 
Q 2906 1169 2906 1791 
z
M 3481 434 
Q 3481 -459 3084 -895 
Q 2688 -1331 1869 -1331 
Q 1566 -1331 1297 -1286 
Q 1028 -1241 775 -1147 
L 775 -588 
Q 1028 -725 1275 -790 
Q 1522 -856 1778 -856 
Q 2344 -856 2625 -561 
Q 2906 -266 2906 331 
L 2906 616 
Q 2728 306 2450 153 
Q 2172 0 1784 0 
Q 1141 0 747 490 
Q 353 981 353 1791 
Q 353 2603 747 3093 
Q 1141 3584 1784 3584 
Q 2172 3584 2450 3431 
Q 2728 3278 2906 2969 
L 2906 3500 
L 3481 3500 
L 3481 434 
z
" transform="scale(0.015625)"/>
       <path id="DejaVuSans-20" transform="scale(0.015625)"/>
       <path id="DejaVuSans-54" d="M -19 4666 
L 3928 4666 
L 3928 4134 
L 2272 4134 
L 2272 0 
L 1638 0 
L 1638 4134 
L -19 4134 
L -19 4666 
z
" transform="scale(0.015625)"/>
       <path id="DejaVuSans-47" d="M 3809 666 
L 3809 1919 
L 2778 1919 
L 2778 2438 
L 4434 2438 
L 4434 434 
Q 4069 175 3628 42 
Q 3188 -91 2688 -91 
Q 1594 -91 976 548 
Q 359 1188 359 2328 
Q 359 3472 976 4111 
Q 1594 4750 2688 4750 
Q 3144 4750 3555 4637 
Q 3966 4525 4313 4306 
L 4313 3634 
Q 3963 3931 3569 4081 
Q 3175 4231 2741 4231 
Q 1884 4231 1454 3753 
Q 1025 3275 1025 2328 
Q 1025 1384 1454 906 
Q 1884 428 2741 428 
Q 3075 428 3337 486 
Q 3600 544 3809 666 
z
" transform="scale(0.015625)"/>
       <path id="DejaVuSans-3b1" d="M 2644 1628 
L 2506 2350 
Q 2366 3091 1809 3091 
Q 1391 3091 1200 2747 
Q 959 2316 959 1747 
Q 959 1059 1194 731 
Q 1431 397 1809 397 
Q 2228 397 2453 1063 
L 2644 1628 
z
M 2966 2584 
L 3275 3500 
L 3788 3500 
L 3147 1603 
L 3272 919 
Q 3300 766 3409 638 
Q 3538 488 3638 488 
L 3913 488 
L 3913 0 
L 3569 0 
Q 3275 0 3013 263 
Q 2884 394 2831 669 
Q 2688 322 2394 50 
Q 2256 -78 1809 -78 
Q 1075 -78 719 397 
Q 353 888 353 1747 
Q 353 2666 750 3097 
Q 1191 3578 1809 3578 
Q 2781 3578 2966 2584 
z
" transform="scale(0.015625)"/>
       <path id="DejaVuSans-50" d="M 1259 4147 
L 1259 2394 
L 2053 2394 
Q 2494 2394 2734 2622 
Q 2975 2850 2975 3272 
Q 2975 3691 2734 3919 
Q 2494 4147 2053 4147 
L 1259 4147 
z
M 628 4666 
L 2053 4666 
Q 2838 4666 3239 4311 
Q 3641 3956 3641 3272 
Q 3641 2581 3239 2228 
Q 2838 1875 2053 1875 
L 1259 1875 
L 1259 0 
L 628 0 
L 628 4666 
z
" transform="scale(0.015625)"/>
       <path id="DejaVuSans-52" d="M 2841 2188 
Q 3044 2119 3236 1894 
Q 3428 1669 3622 1275 
L 4263 0 
L 3584 0 
L 2988 1197 
Q 2756 1666 2539 1819 
Q 2322 1972 1947 1972 
L 1259 1972 
L 1259 0 
L 628 0 
L 628 4666 
L 2053 4666 
Q 2853 4666 3247 4331 
Q 3641 3997 3641 3322 
Q 3641 2881 3436 2590 
Q 3231 2300 2841 2188 
z
M 1259 4147 
L 1259 2491 
L 2053 2491 
Q 2509 2491 2742 2702 
Q 2975 2913 2975 3322 
Q 2975 3731 2742 3939 
Q 2509 4147 2053 4147 
L 1259 4147 
z
" transform="scale(0.015625)"/>
       <path id="DejaVuSans-65" d="M 3597 1894 
L 3597 1613 
L 953 1613 
Q 991 1019 1311 708 
Q 1631 397 2203 397 
Q 2534 397 2845 478 
Q 3156 559 3463 722 
L 3463 178 
Q 3153 47 2828 -22 
Q 2503 -91 2169 -91 
Q 1331 -91 842 396 
Q 353 884 353 1716 
Q 353 2575 817 3079 
Q 1281 3584 2069 3584 
Q 2775 3584 3186 3129 
Q 3597 2675 3597 1894 
z
M 3022 2063 
Q 3016 2534 2758 2815 
Q 2500 3097 2075 3097 
Q 1594 3097 1305 2825 
Q 1016 2553 972 2059 
L 3022 2063 
z
" transform="scale(0.015625)"/>
       <path id="DejaVuSans-6c" d="M 603 4863 
L 1178 4863 
L 1178 0 
L 603 0 
L 603 4863 
z
" transform="scale(0.015625)"/>
       <path id="DejaVuSans-61" d="M 2194 1759 
Q 1497 1759 1228 1600 
Q 959 1441 959 1056 
Q 959 750 1161 570 
Q 1363 391 1709 391 
Q 2188 391 2477 730 
Q 2766 1069 2766 1631 
L 2766 1759 
L 2194 1759 
z
M 3341 1997 
L 3341 0 
L 2766 0 
L 2766 531 
Q 2569 213 2275 61 
Q 1981 -91 1556 -91 
Q 1019 -91 701 211 
Q 384 513 384 1019 
Q 384 1609 779 1909 
Q 1175 2209 1959 2209 
L 2766 2209 
L 2766 2266 
Q 2766 2663 2505 2880 
Q 2244 3097 1772 3097 
Q 1472 3097 1187 3025 
Q 903 2953 641 2809 
L 641 3341 
Q 956 3463 1253 3523 
Q 1550 3584 1831 3584 
Q 2591 3584 2966 3190 
Q 3341 2797 3341 1997 
z
" transform="scale(0.015625)"/>
       <path id="DejaVuSans-74" d="M 1172 4494 
L 1172 3500 
L 2356 3500 
L 2356 3053 
L 1172 3053 
L 1172 1153 
Q 1172 725 1289 603 
Q 1406 481 1766 481 
L 2356 481 
L 2356 0 
L 1766 0 
Q 1100 0 847 248 
Q 594 497 594 1153 
L 594 3053 
L 172 3053 
L 172 3500 
L 594 3500 
L 594 4494 
L 1172 4494 
z
" transform="scale(0.015625)"/>
       <path id="DejaVuSans-76" d="M 191 3500 
L 800 3500 
L 1894 563 
L 2988 3500 
L 3597 3500 
L 2284 0 
L 1503 0 
L 191 3500 
z
" transform="scale(0.015625)"/>
       <path id="DejaVuSans-75" d="M 544 1381 
L 544 3500 
L 1119 3500 
L 1119 1403 
Q 1119 906 1312 657 
Q 1506 409 1894 409 
Q 2359 409 2629 706 
Q 2900 1003 2900 1516 
L 2900 3500 
L 3475 3500 
L 3475 0 
L 2900 0 
L 2900 538 
Q 2691 219 2414 64 
Q 2138 -91 1772 -91 
Q 1169 -91 856 284 
Q 544 659 544 1381 
z
M 1991 3584 
L 1991 3584 
z
" transform="scale(0.015625)"/>
       <path id="DejaVuSans-6d" d="M 3328 2828 
Q 3544 3216 3844 3400 
Q 4144 3584 4550 3584 
Q 5097 3584 5394 3201 
Q 5691 2819 5691 2113 
L 5691 0 
L 5113 0 
L 5113 2094 
Q 5113 2597 4934 2840 
Q 4756 3084 4391 3084 
Q 3944 3084 3684 2787 
Q 3425 2491 3425 1978 
L 3425 0 
L 2847 0 
L 2847 2094 
Q 2847 2600 2669 2842 
Q 2491 3084 2119 3084 
Q 1678 3084 1418 2786 
Q 1159 2488 1159 1978 
L 1159 0 
L 581 0 
L 581 3500 
L 1159 3500 
L 1159 2956 
Q 1356 3278 1631 3431 
Q 1906 3584 2284 3584 
Q 2666 3584 2933 3390 
Q 3200 3197 3328 2828 
z
" transform="scale(0.015625)"/>
       <path id="DejaVuSans-63" d="M 3122 3366 
L 3122 2828 
Q 2878 2963 2633 3030 
Q 2388 3097 2138 3097 
Q 1578 3097 1268 2742 
Q 959 2388 959 1747 
Q 959 1106 1268 751 
Q 1578 397 2138 397 
Q 2388 397 2633 464 
Q 2878 531 3122 666 
L 3122 134 
Q 2881 22 2623 -34 
Q 2366 -91 2075 -91 
Q 1284 -91 818 406 
Q 353 903 353 1747 
Q 353 2603 823 3093 
Q 1294 3584 2113 3584 
Q 2378 3584 2631 3529 
Q 2884 3475 3122 3366 
z
" transform="scale(0.015625)"/>
      </defs>
      <use xlink:href="#DejaVuSans-4c"/>
      <use xlink:href="#DejaVuSans-6f" x="53.962891"/>
      <use xlink:href="#DejaVuSans-67" x="115.144531"/>
      <use xlink:href="#DejaVuSans-31" x="178.621094"/>
      <use xlink:href="#DejaVuSans-30" x="242.244141"/>
      <use xlink:href="#DejaVuSans-20" x="305.867188"/>
      <use xlink:href="#DejaVuSans-54" x="337.654297"/>
      <use xlink:href="#DejaVuSans-47" x="398.738281"/>
      <use xlink:href="#DejaVuSans-46" x="476.228516"/>
      <use xlink:href="#DejaVuSans-3b1" x="533.748047"/>
      <use xlink:href="#DejaVuSans-2e" x="599.666016"/>
      <use xlink:href="#DejaVuSans-50" x="631.453125"/>
      <use xlink:href="#DejaVuSans-20" x="691.755859"/>
      <use xlink:href="#DejaVuSans-52" x="723.542969"/>
      <use xlink:href="#DejaVuSans-65" x="788.525391"/>
      <use xlink:href="#DejaVuSans-6c" x="850.048828"/>
      <use xlink:href="#DejaVuSans-61" x="877.832031"/>
      <use xlink:href="#DejaVuSans-74" x="939.111328"/>
      <use xlink:href="#DejaVuSans-69" x="978.320312"/>
      <use xlink:href="#DejaVuSans-76" x="1006.103516"/>
      <use xlink:href="#DejaVuSans-65" x="1065.283203"/>
      <use xlink:href="#DejaVuSans-20" x="1126.806641"/>
      <use xlink:href="#DejaVuSans-4c" x="1158.59375"/>
      <use xlink:href="#DejaVuSans-75" x="1212.556641"/>
      <use xlink:href="#DejaVuSans-6d" x="1275.935547"/>
      <use xlink:href="#DejaVuSans-69" x="1373.347656"/>
      <use xlink:href="#DejaVuSans-6e" x="1401.130859"/>
      <use xlink:href="#DejaVuSans-65" x="1464.509766"/>
      <use xlink:href="#DejaVuSans-73" x="1526.033203"/>
      <use xlink:href="#DejaVuSans-63" x="1578.132812"/>
      <use xlink:href="#DejaVuSans-65" x="1633.113281"/>
      <use xlink:href="#DejaVuSans-6e" x="1694.636719"/>
      <use xlink:href="#DejaVuSans-63" x="1758.015625"/>
      <use xlink:href="#DejaVuSans-65" x="1812.996094"/>
     </g>
    </g>
   </g>
   <g id="LineCollection_1">
    <path d="M 115.363636 266.31613 
L 147.068182 266.31613 
" clip-path="url(#p92ed923e63)" style="fill: none; stroke: #000000; stroke-width: 1.5"/>
   </g>
   <g id="LineCollection_2">
    <path d="M 273.886364 265.616771 
L 305.590909 265.616771 
" clip-path="url(#p92ed923e63)" style="fill: none; stroke: #000000; stroke-width: 1.5"/>
   </g>
   <g id="LineCollection_3">
    <path d="M 432.409091 214.673415 
L 464.113636 214.673415 
" clip-path="url(#p92ed923e63)" style="fill: none; stroke: #000000; stroke-width: 1.5"/>
   </g>
   <g id="LineCollection_4">
    <path d="M 590.931818 223.837333 
L 622.636364 223.837333 
" clip-path="url(#p92ed923e63)" style="fill: none; stroke: #000000; stroke-width: 1.5"/>
   </g>
   <g id="patch_3">
    <path d="M 90 384.48 
L 90 51.84 
" style="fill: none; stroke: #000000; stroke-width: 0.8; stroke-linejoin: miter; stroke-linecap: square"/>
   </g>
   <g id="patch_4">
    <path d="M 90 384.48 
L 648 384.48 
" style="fill: none; stroke: #000000; stroke-width: 0.8; stroke-linejoin: miter; stroke-linecap: square"/>
   </g>
   <g id="LineCollection_5">
    <path d="M 131.215909 332.589555 
L 131.215909 200.042706 
" clip-path="url(#p92ed923e63)" style="fill: none; stroke: #000000; stroke-width: 2"/>
   </g>
   <g id="line2d_8">
    <defs>
     <path id="m6a5b5bfb0b" d="M 10 0 
L -10 -0 
" style="stroke: #000000; stroke-width: 2"/>
    </defs>
    <g clip-path="url(#p92ed923e63)">
     <use xlink:href="#m6a5b5bfb0b" x="131.215909" y="332.589555" style="stroke: #000000; stroke-width: 2"/>
    </g>
   </g>
   <g id="line2d_9">
    <g clip-path="url(#p92ed923e63)">
     <use xlink:href="#m6a5b5bfb0b" x="131.215909" y="200.042706" style="stroke: #000000; stroke-width: 2"/>
    </g>
   </g>
   <g id="LineCollection_6">
    <path d="M 289.738636 325.817988 
L 289.738636 205.415554 
" clip-path="url(#p92ed923e63)" style="fill: none; stroke: #000000; stroke-width: 2"/>
   </g>
   <g id="line2d_10">
    <g clip-path="url(#p92ed923e63)">
     <use xlink:href="#m6a5b5bfb0b" x="289.738636" y="325.817988" style="stroke: #000000; stroke-width: 2"/>
    </g>
   </g>
   <g id="line2d_11">
    <g clip-path="url(#p92ed923e63)">
     <use xlink:href="#m6a5b5bfb0b" x="289.738636" y="205.415554" style="stroke: #000000; stroke-width: 2"/>
    </g>
   </g>
   <g id="LineCollection_7">
    <path d="M 448.261364 272.684955 
L 448.261364 156.661875 
" clip-path="url(#p92ed923e63)" style="fill: none; stroke: #000000; stroke-width: 2"/>
   </g>
   <g id="line2d_12">
    <g clip-path="url(#p92ed923e63)">
     <use xlink:href="#m6a5b5bfb0b" x="448.261364" y="272.684955" style="stroke: #000000; stroke-width: 2"/>
    </g>
   </g>
   <g id="line2d_13">
    <g clip-path="url(#p92ed923e63)">
     <use xlink:href="#m6a5b5bfb0b" x="448.261364" y="156.661875" style="stroke: #000000; stroke-width: 2"/>
    </g>
   </g>
   <g id="LineCollection_8">
    <path d="M 606.784091 265.703974 
L 606.784091 181.970692 
" clip-path="url(#p92ed923e63)" style="fill: none; stroke: #000000; stroke-width: 2"/>
   </g>
   <g id="line2d_14">
    <g clip-path="url(#p92ed923e63)">
     <use xlink:href="#m6a5b5bfb0b" x="606.784091" y="265.703974" style="stroke: #000000; stroke-width: 2"/>
    </g>
   </g>
   <g id="line2d_15">
    <g clip-path="url(#p92ed923e63)">
     <use xlink:href="#m6a5b5bfb0b" x="606.784091" y="181.970692" style="stroke: #000000; stroke-width: 2"/>
    </g>
   </g>
   <g id="text_9">
    <!-- TGFα.P by Sex -->
    <g transform="translate(325.634063 45.84) scale(0.12 -0.12)">
     <defs>
      <path id="DejaVuSans-62" d="M 3116 1747 
Q 3116 2381 2855 2742 
Q 2594 3103 2138 3103 
Q 1681 3103 1420 2742 
Q 1159 2381 1159 1747 
Q 1159 1113 1420 752 
Q 1681 391 2138 391 
Q 2594 391 2855 752 
Q 3116 1113 3116 1747 
z
M 1159 2969 
Q 1341 3281 1617 3432 
Q 1894 3584 2278 3584 
Q 2916 3584 3314 3078 
Q 3713 2572 3713 1747 
Q 3713 922 3314 415 
Q 2916 -91 2278 -91 
Q 1894 -91 1617 61 
Q 1341 213 1159 525 
L 1159 0 
L 581 0 
L 581 4863 
L 1159 4863 
L 1159 2969 
z
" transform="scale(0.015625)"/>
      <path id="DejaVuSans-79" d="M 2059 -325 
Q 1816 -950 1584 -1140 
Q 1353 -1331 966 -1331 
L 506 -1331 
L 506 -850 
L 844 -850 
Q 1081 -850 1212 -737 
Q 1344 -625 1503 -206 
L 1606 56 
L 191 3500 
L 800 3500 
L 1894 763 
L 2988 3500 
L 3597 3500 
L 2059 -325 
z
" transform="scale(0.015625)"/>
      <path id="DejaVuSans-53" d="M 3425 4513 
L 3425 3897 
Q 3066 4069 2747 4153 
Q 2428 4238 2131 4238 
Q 1616 4238 1336 4038 
Q 1056 3838 1056 3469 
Q 1056 3159 1242 3001 
Q 1428 2844 1947 2747 
L 2328 2669 
Q 3034 2534 3370 2195 
Q 3706 1856 3706 1288 
Q 3706 609 3251 259 
Q 2797 -91 1919 -91 
Q 1588 -91 1214 -16 
Q 841 59 441 206 
L 441 856 
Q 825 641 1194 531 
Q 1563 422 1919 422 
Q 2459 422 2753 634 
Q 3047 847 3047 1241 
Q 3047 1584 2836 1778 
Q 2625 1972 2144 2069 
L 1759 2144 
Q 1053 2284 737 2584 
Q 422 2884 422 3419 
Q 422 4038 858 4394 
Q 1294 4750 2059 4750 
Q 2388 4750 2728 4690 
Q 3069 4631 3425 4513 
z
" transform="scale(0.015625)"/>
      <path id="DejaVuSans-78" d="M 3513 3500 
L 2247 1797 
L 3578 0 
L 2900 0 
L 1881 1375 
L 863 0 
L 184 0 
L 1544 1831 
L 300 3500 
L 978 3500 
L 1906 2253 
L 2834 3500 
L 3513 3500 
z
" transform="scale(0.015625)"/>
     </defs>
     <use xlink:href="#DejaVuSans-54"/>
     <use xlink:href="#DejaVuSans-47" x="61.083984"/>
     <use xlink:href="#DejaVuSans-46" x="138.574219"/>
     <use xlink:href="#DejaVuSans-3b1" x="196.09375"/>
     <use xlink:href="#DejaVuSans-2e" x="262.011719"/>
     <use xlink:href="#DejaVuSans-50" x="293.798828"/>
     <use xlink:href="#DejaVuSans-20" x="354.101562"/>
     <use xlink:href="#DejaVuSans-62" x="385.888672"/>
     <use xlink:href="#DejaVuSans-79" x="449.365234"/>
     <use xlink:href="#DejaVuSans-20" x="508.544922"/>
     <use xlink:href="#DejaVuSans-53" x="540.332031"/>
     <use xlink:href="#DejaVuSans-65" x="603.808594"/>
     <use xlink:href="#DejaVuSans-78" x="663.582031"/>
    </g>
   </g>
   <g id="legend_1">
    <g id="patch_5">
     <path d="M 532.129688 379.48 
L 641 379.48 
Q 643 379.48 643 377.48 
L 643 319.7675 
Q 643 317.7675 641 317.7675 
L 532.129688 317.7675 
Q 530.129688 317.7675 530.129688 319.7675 
L 530.129688 377.48 
Q 530.129688 379.48 532.129688 379.48 
z
" style="fill: #ffffff; opacity: 0.8; stroke: #cccccc; stroke-linejoin: miter"/>
    </g>
    <g id="line2d_16">
     <path d="M 534.129688 325.865937 
L 544.129688 325.865937 
L 554.129688 325.865937 
" style="fill: none; stroke: #ffffff; stroke-width: 1.5; stroke-linecap: square"/>
     <defs>
      <path id="m95e848bc1f" d="M 0 5 
C 1.326016 5 2.597899 4.473168 3.535534 3.535534 
C 4.473168 2.597899 5 1.326016 5 0 
C 5 -1.326016 4.473168 -2.597899 3.535534 -3.535534 
C 2.597899 -4.473168 1.326016 -5 0 -5 
C -1.326016 -5 -2.597899 -4.473168 -3.535534 -3.535534 
C -4.473168 -2.597899 -5 -1.326016 -5 0 
C -5 1.326016 -4.473168 2.597899 -3.535534 3.535534 
C -2.597899 4.473168 -1.326016 5 0 5 
z
" style="stroke: #000000"/>
     </defs>
     <g>
      <use xlink:href="#m95e848bc1f" x="544.129688" y="325.865937" style="fill: #808080; stroke: #000000"/>
     </g>
    </g>
    <g id="text_10">
     <!-- Cohort FLU09 -->
     <g transform="translate(562.129688 329.365937) scale(0.1 -0.1)">
      <defs>
       <path id="DejaVuSans-43" d="M 4122 4306 
L 4122 3641 
Q 3803 3938 3442 4084 
Q 3081 4231 2675 4231 
Q 1875 4231 1450 3742 
Q 1025 3253 1025 2328 
Q 1025 1406 1450 917 
Q 1875 428 2675 428 
Q 3081 428 3442 575 
Q 3803 722 4122 1019 
L 4122 359 
Q 3791 134 3420 21 
Q 3050 -91 2638 -91 
Q 1578 -91 968 557 
Q 359 1206 359 2328 
Q 359 3453 968 4101 
Q 1578 4750 2638 4750 
Q 3056 4750 3426 4639 
Q 3797 4528 4122 4306 
z
" transform="scale(0.015625)"/>
       <path id="DejaVuSans-68" d="M 3513 2113 
L 3513 0 
L 2938 0 
L 2938 2094 
Q 2938 2591 2744 2837 
Q 2550 3084 2163 3084 
Q 1697 3084 1428 2787 
Q 1159 2491 1159 1978 
L 1159 0 
L 581 0 
L 581 4863 
L 1159 4863 
L 1159 2956 
Q 1366 3272 1645 3428 
Q 1925 3584 2291 3584 
Q 2894 3584 3203 3211 
Q 3513 2838 3513 2113 
z
" transform="scale(0.015625)"/>
       <path id="DejaVuSans-72" d="M 2631 2963 
Q 2534 3019 2420 3045 
Q 2306 3072 2169 3072 
Q 1681 3072 1420 2755 
Q 1159 2438 1159 1844 
L 1159 0 
L 581 0 
L 581 3500 
L 1159 3500 
L 1159 2956 
Q 1341 3275 1631 3429 
Q 1922 3584 2338 3584 
Q 2397 3584 2469 3576 
Q 2541 3569 2628 3553 
L 2631 2963 
z
" transform="scale(0.015625)"/>
      </defs>
      <use xlink:href="#DejaVuSans-43"/>
      <use xlink:href="#DejaVuSans-6f" x="69.824219"/>
      <use xlink:href="#DejaVuSans-68" x="131.005859"/>
      <use xlink:href="#DejaVuSans-6f" x="194.384766"/>
      <use xlink:href="#DejaVuSans-72" x="255.566406"/>
      <use xlink:href="#DejaVuSans-74" x="296.679688"/>
      <use xlink:href="#DejaVuSans-20" x="335.888672"/>
      <use xlink:href="#DejaVuSans-46" x="367.675781"/>
      <use xlink:href="#DejaVuSans-4c" x="425.195312"/>
      <use xlink:href="#DejaVuSans-55" x="475.908203"/>
      <use xlink:href="#DejaVuSans-30" x="549.101562"/>
      <use xlink:href="#DejaVuSans-39" x="612.724609"/>
     </g>
    </g>
    <g id="line2d_17">
     <path d="M 534.129688 340.544062 
L 544.129688 340.544062 
L 554.129688 340.544062 
" style="fill: none; stroke: #ffffff; stroke-width: 1.5; stroke-linecap: square"/>
     <defs>
      <path id="m3407a08990" d="M 0 -5 
L -5 5 
L 5 5 
z
" style="stroke: #000000; stroke-linejoin: miter"/>
     </defs>
     <g>
      <use xlink:href="#m3407a08990" x="544.129688" y="340.544062" style="fill: #808080; stroke: #000000; stroke-linejoin: miter"/>
     </g>
    </g>
    <g id="text_11">
     <!-- Cohort Hopkins -->
     <g transform="translate(562.129688 344.044062) scale(0.1 -0.1)">
      <use xlink:href="#DejaVuSans-43"/>
      <use xlink:href="#DejaVuSans-6f" x="69.824219"/>
      <use xlink:href="#DejaVuSans-68" x="131.005859"/>
      <use xlink:href="#DejaVuSans-6f" x="194.384766"/>
      <use xlink:href="#DejaVuSans-72" x="255.566406"/>
      <use xlink:href="#DejaVuSans-74" x="296.679688"/>
      <use xlink:href="#DejaVuSans-20" x="335.888672"/>
      <use xlink:href="#DejaVuSans-48" x="367.675781"/>
      <use xlink:href="#DejaVuSans-6f" x="442.871094"/>
      <use xlink:href="#DejaVuSans-70" x="504.052734"/>
      <use xlink:href="#DejaVuSans-6b" x="567.529297"/>
      <use xlink:href="#DejaVuSans-69" x="625.439453"/>
      <use xlink:href="#DejaVuSans-6e" x="653.222656"/>
      <use xlink:href="#DejaVuSans-73" x="716.601562"/>
     </g>
    </g>
    <g id="line2d_18">
     <path d="M 534.129688 355.222188 
L 544.129688 355.222188 
L 554.129688 355.222188 
" style="fill: none; stroke: #008000; stroke-width: 4; stroke-linecap: square"/>
    </g>
    <g id="text_12">
     <!-- Male -->
     <g transform="translate(562.129688 358.722188) scale(0.1 -0.1)">
      <defs>
       <path id="DejaVuSans-4d" d="M 628 4666 
L 1569 4666 
L 2759 1491 
L 3956 4666 
L 4897 4666 
L 4897 0 
L 4281 0 
L 4281 4097 
L 3078 897 
L 2444 897 
L 1241 4097 
L 1241 0 
L 628 0 
L 628 4666 
z
" transform="scale(0.015625)"/>
      </defs>
      <use xlink:href="#DejaVuSans-4d"/>
      <use xlink:href="#DejaVuSans-61" x="86.279297"/>
      <use xlink:href="#DejaVuSans-6c" x="147.558594"/>
      <use xlink:href="#DejaVuSans-65" x="175.341797"/>
     </g>
    </g>
    <g id="line2d_19">
     <path d="M 534.129688 369.900312 
L 544.129688 369.900312 
L 554.129688 369.900312 
" style="fill: none; stroke: #800080; stroke-width: 4; stroke-linecap: square"/>
    </g>
    <g id="text_13">
     <!-- Female -->
     <g transform="translate(562.129688 373.400312) scale(0.1 -0.1)">
      <use xlink:href="#DejaVuSans-46"/>
      <use xlink:href="#DejaVuSans-65" x="52.019531"/>
      <use xlink:href="#DejaVuSans-6d" x="113.542969"/>
      <use xlink:href="#DejaVuSans-61" x="210.955078"/>
      <use xlink:href="#DejaVuSans-6c" x="272.234375"/>
      <use xlink:href="#DejaVuSans-65" x="300.017578"/>
     </g>
    </g>
   </g>
  </g>
 </g>
 <defs>
  <clipPath id="p92ed923e63">
   <rect x="90" y="51.84" width="558" height="332.64"/>
  </clipPath>
 </defs>
</svg>
