<?xml version="1.0" encoding="utf-8" standalone="no"?>
<!DOCTYPE svg PUBLIC "-//W3C//DTD SVG 1.1//EN"
  "http://www.w3.org/Graphics/SVG/1.1/DTD/svg11.dtd">
<svg xmlns:xlink="http://www.w3.org/1999/xlink" width="1440pt" height="360pt" viewBox="0 0 1440 360" xmlns="http://www.w3.org/2000/svg" version="1.1">
 <metadata>
  <rdf:RDF xmlns:dc="http://purl.org/dc/elements/1.1/" xmlns:cc="http://creativecommons.org/ns#" xmlns:rdf="http://www.w3.org/1999/02/22-rdf-syntax-ns#">
   <cc:Work>
    <dc:type rdf:resource="http://purl.org/dc/dcmitype/StillImage"/>
    <dc:date>2025-01-15T18:59:26.158640</dc:date>
    <dc:format>image/svg+xml</dc:format>
    <dc:creator>
     <cc:Agent>
      <dc:title>Matplotlib v3.9.2, https://matplotlib.org/</dc:title>
     </cc:Agent>
    </dc:creator>
   </cc:Work>
  </rdf:RDF>
 </metadata>
 <defs>
  <style type="text/css">*{stroke-linejoin: round; stroke-linecap: butt}</style>
 </defs>
 <g id="figure_1">
  <g id="patch_1">
   <path d="M 0 360 
L 1440 360 
L 1440 0 
L 0 0 
z
" style="fill: #ffffff"/>
  </g>
  <g id="axes_1">
   <g id="patch_2">
    <path d="M 57.08 300.04 
L 353.803538 300.04 
L 353.803538 72 
L 57.08 72 
z
" style="fill: #ffffff"/>
   </g>
   <g id="matplotlib.axis_1">
    <g id="xtick_1">
     <g id="line2d_1">
      <defs>
       <path id="m9ecac6d773" d="M 0 0 
L 0 3.5 
" style="stroke: #000000; stroke-width: 0.8"/>
      </defs>
      <g>
       <use xlink:href="#m9ecac6d773" x="60.305256" y="300.04" style="stroke: #000000; stroke-width: 0.8"/>
      </g>
     </g>
     <g id="text_1">
      <!-- 0 -->
      <g transform="translate(54.579006 320.717188) scale(0.18 -0.18)">
       <defs>
        <path id="DejaVuSans-30" d="M 2034 4250 
Q 1547 4250 1301 3770 
Q 1056 3291 1056 2328 
Q 1056 1369 1301 889 
Q 1547 409 2034 409 
Q 2525 409 2770 889 
Q 3016 1369 3016 2328 
Q 3016 3291 2770 3770 
Q 2525 4250 2034 4250 
z
M 2034 4750 
Q 2819 4750 3233 4129 
Q 3647 3509 3647 2328 
Q 3647 1150 3233 529 
Q 2819 -91 2034 -91 
Q 1250 -91 836 529 
Q 422 1150 422 2328 
Q 422 3509 836 4129 
Q 1250 4750 2034 4750 
z
" transform="scale(0.015625)"/>
       </defs>
       <use xlink:href="#DejaVuSans-30"/>
      </g>
     </g>
    </g>
    <g id="xtick_2">
     <g id="line2d_2">
      <g>
       <use xlink:href="#m9ecac6d773" x="92.557814" y="300.04" style="stroke: #000000; stroke-width: 0.8"/>
      </g>
     </g>
     <g id="text_2">
      <!-- 1 -->
      <g transform="translate(86.831564 320.717188) scale(0.18 -0.18)">
       <defs>
        <path id="DejaVuSans-31" d="M 794 531 
L 1825 531 
L 1825 4091 
L 703 3866 
L 703 4441 
L 1819 4666 
L 2450 4666 
L 2450 531 
L 3481 531 
L 3481 0 
L 794 0 
L 794 531 
z
" transform="scale(0.015625)"/>
       </defs>
       <use xlink:href="#DejaVuSans-31"/>
      </g>
     </g>
    </g>
    <g id="xtick_3">
     <g id="line2d_3">
      <g>
       <use xlink:href="#m9ecac6d773" x="124.810373" y="300.04" style="stroke: #000000; stroke-width: 0.8"/>
      </g>
     </g>
     <g id="text_3">
      <!-- 2 -->
      <g transform="translate(119.084123 320.717188) scale(0.18 -0.18)">
       <defs>
        <path id="DejaVuSans-32" d="M 1228 531 
L 3431 531 
L 3431 0 
L 469 0 
L 469 531 
Q 828 903 1448 1529 
Q 2069 2156 2228 2338 
Q 2531 2678 2651 2914 
Q 2772 3150 2772 3378 
Q 2772 3750 2511 3984 
Q 2250 4219 1831 4219 
Q 1534 4219 1204 4116 
Q 875 4013 500 3803 
L 500 4441 
Q 881 4594 1212 4672 
Q 1544 4750 1819 4750 
Q 2544 4750 2975 4387 
Q 3406 4025 3406 3419 
Q 3406 3131 3298 2873 
Q 3191 2616 2906 2266 
Q 2828 2175 2409 1742 
Q 1991 1309 1228 531 
z
" transform="scale(0.015625)"/>
       </defs>
       <use xlink:href="#DejaVuSans-32"/>
      </g>
     </g>
    </g>
    <g id="xtick_4">
     <g id="line2d_4">
      <g>
       <use xlink:href="#m9ecac6d773" x="157.062931" y="300.04" style="stroke: #000000; stroke-width: 0.8"/>
      </g>
     </g>
     <g id="text_4">
      <!-- 3 -->
      <g transform="translate(151.336681 320.717188) scale(0.18 -0.18)">
       <defs>
        <path id="DejaVuSans-33" d="M 2597 2516 
Q 3050 2419 3304 2112 
Q 3559 1806 3559 1356 
Q 3559 666 3084 287 
Q 2609 -91 1734 -91 
Q 1441 -91 1130 -33 
Q 819 25 488 141 
L 488 750 
Q 750 597 1062 519 
Q 1375 441 1716 441 
Q 2309 441 2620 675 
Q 2931 909 2931 1356 
Q 2931 1769 2642 2001 
Q 2353 2234 1838 2234 
L 1294 2234 
L 1294 2753 
L 1863 2753 
Q 2328 2753 2575 2939 
Q 2822 3125 2822 3475 
Q 2822 3834 2567 4026 
Q 2313 4219 1838 4219 
Q 1578 4219 1281 4162 
Q 984 4106 628 3988 
L 628 4550 
Q 988 4650 1302 4700 
Q 1616 4750 1894 4750 
Q 2613 4750 3031 4423 
Q 3450 4097 3450 3541 
Q 3450 3153 3228 2886 
Q 3006 2619 2597 2516 
z
" transform="scale(0.015625)"/>
       </defs>
       <use xlink:href="#DejaVuSans-33"/>
      </g>
     </g>
    </g>
    <g id="xtick_5">
     <g id="line2d_5">
      <g>
       <use xlink:href="#m9ecac6d773" x="189.31549" y="300.04" style="stroke: #000000; stroke-width: 0.8"/>
      </g>
     </g>
     <g id="text_5">
      <!-- 4 -->
      <g transform="translate(183.58924 320.717188) scale(0.18 -0.18)">
       <defs>
        <path id="DejaVuSans-34" d="M 2419 4116 
L 825 1625 
L 2419 1625 
L 2419 4116 
z
M 2253 4666 
L 3047 4666 
L 3047 1625 
L 3713 1625 
L 3713 1100 
L 3047 1100 
L 3047 0 
L 2419 0 
L 2419 1100 
L 313 1100 
L 313 1709 
L 2253 4666 
z
" transform="scale(0.015625)"/>
       </defs>
       <use xlink:href="#DejaVuSans-34"/>
      </g>
     </g>
    </g>
    <g id="xtick_6">
     <g id="line2d_6">
      <g>
       <use xlink:href="#m9ecac6d773" x="221.568048" y="300.04" style="stroke: #000000; stroke-width: 0.8"/>
      </g>
     </g>
     <g id="text_6">
      <!-- 5 -->
      <g transform="translate(215.841798 320.717188) scale(0.18 -0.18)">
       <defs>
        <path id="DejaVuSans-35" d="M 691 4666 
L 3169 4666 
L 3169 4134 
L 1269 4134 
L 1269 2991 
Q 1406 3038 1543 3061 
Q 1681 3084 1819 3084 
Q 2600 3084 3056 2656 
Q 3513 2228 3513 1497 
Q 3513 744 3044 326 
Q 2575 -91 1722 -91 
Q 1428 -91 1123 -41 
Q 819 9 494 109 
L 494 744 
Q 775 591 1075 516 
Q 1375 441 1709 441 
Q 2250 441 2565 725 
Q 2881 1009 2881 1497 
Q 2881 1984 2565 2268 
Q 2250 2553 1709 2553 
Q 1456 2553 1204 2497 
Q 953 2441 691 2322 
L 691 4666 
z
" transform="scale(0.015625)"/>
       </defs>
       <use xlink:href="#DejaVuSans-35"/>
      </g>
     </g>
    </g>
    <g id="xtick_7">
     <g id="line2d_7">
      <g>
       <use xlink:href="#m9ecac6d773" x="253.820607" y="300.04" style="stroke: #000000; stroke-width: 0.8"/>
      </g>
     </g>
     <g id="text_7">
      <!-- 6 -->
      <g transform="translate(248.094357 320.717188) scale(0.18 -0.18)">
       <defs>
        <path id="DejaVuSans-36" d="M 2113 2584 
Q 1688 2584 1439 2293 
Q 1191 2003 1191 1497 
Q 1191 994 1439 701 
Q 1688 409 2113 409 
Q 2538 409 2786 701 
Q 3034 994 3034 1497 
Q 3034 2003 2786 2293 
Q 2538 2584 2113 2584 
z
M 3366 4563 
L 3366 3988 
Q 3128 4100 2886 4159 
Q 2644 4219 2406 4219 
Q 1781 4219 1451 3797 
Q 1122 3375 1075 2522 
Q 1259 2794 1537 2939 
Q 1816 3084 2150 3084 
Q 2853 3084 3261 2657 
Q 3669 2231 3669 1497 
Q 3669 778 3244 343 
Q 2819 -91 2113 -91 
Q 1303 -91 875 529 
Q 447 1150 447 2328 
Q 447 3434 972 4092 
Q 1497 4750 2381 4750 
Q 2619 4750 2861 4703 
Q 3103 4656 3366 4563 
z
" transform="scale(0.015625)"/>
       </defs>
       <use xlink:href="#DejaVuSans-36"/>
      </g>
     </g>
    </g>
    <g id="xtick_8">
     <g id="line2d_8">
      <g>
       <use xlink:href="#m9ecac6d773" x="286.073165" y="300.04" style="stroke: #000000; stroke-width: 0.8"/>
      </g>
     </g>
     <g id="text_8">
      <!-- 7 -->
      <g transform="translate(280.346915 320.717188) scale(0.18 -0.18)">
       <defs>
        <path id="DejaVuSans-37" d="M 525 4666 
L 3525 4666 
L 3525 4397 
L 1831 0 
L 1172 0 
L 2766 4134 
L 525 4134 
L 525 4666 
z
" transform="scale(0.015625)"/>
       </defs>
       <use xlink:href="#DejaVuSans-37"/>
      </g>
     </g>
    </g>
    <g id="xtick_9">
     <g id="line2d_9">
      <g>
       <use xlink:href="#m9ecac6d773" x="318.325724" y="300.04" style="stroke: #000000; stroke-width: 0.8"/>
      </g>
     </g>
     <g id="text_9">
      <!-- 8 -->
      <g transform="translate(312.599474 320.717188) scale(0.18 -0.18)">
       <defs>
        <path id="DejaVuSans-38" d="M 2034 2216 
Q 1584 2216 1326 1975 
Q 1069 1734 1069 1313 
Q 1069 891 1326 650 
Q 1584 409 2034 409 
Q 2484 409 2743 651 
Q 3003 894 3003 1313 
Q 3003 1734 2745 1975 
Q 2488 2216 2034 2216 
z
M 1403 2484 
Q 997 2584 770 2862 
Q 544 3141 544 3541 
Q 544 4100 942 4425 
Q 1341 4750 2034 4750 
Q 2731 4750 3128 4425 
Q 3525 4100 3525 3541 
Q 3525 3141 3298 2862 
Q 3072 2584 2669 2484 
Q 3125 2378 3379 2068 
Q 3634 1759 3634 1313 
Q 3634 634 3220 271 
Q 2806 -91 2034 -91 
Q 1263 -91 848 271 
Q 434 634 434 1313 
Q 434 1759 690 2068 
Q 947 2378 1403 2484 
z
M 1172 3481 
Q 1172 3119 1398 2916 
Q 1625 2713 2034 2713 
Q 2441 2713 2670 2916 
Q 2900 3119 2900 3481 
Q 2900 3844 2670 4047 
Q 2441 4250 2034 4250 
Q 1625 4250 1398 4047 
Q 1172 3844 1172 3481 
z
" transform="scale(0.015625)"/>
       </defs>
       <use xlink:href="#DejaVuSans-38"/>
      </g>
     </g>
    </g>
    <g id="xtick_10">
     <g id="line2d_10">
      <g>
       <use xlink:href="#m9ecac6d773" x="350.578282" y="300.04" style="stroke: #000000; stroke-width: 0.8"/>
      </g>
     </g>
     <g id="text_10">
      <!-- 9 -->
      <g transform="translate(344.852032 320.717188) scale(0.18 -0.18)">
       <defs>
        <path id="DejaVuSans-39" d="M 703 97 
L 703 672 
Q 941 559 1184 500 
Q 1428 441 1663 441 
Q 2288 441 2617 861 
Q 2947 1281 2994 2138 
Q 2813 1869 2534 1725 
Q 2256 1581 1919 1581 
Q 1219 1581 811 2004 
Q 403 2428 403 3163 
Q 403 3881 828 4315 
Q 1253 4750 1959 4750 
Q 2769 4750 3195 4129 
Q 3622 3509 3622 2328 
Q 3622 1225 3098 567 
Q 2575 -91 1691 -91 
Q 1453 -91 1209 -44 
Q 966 3 703 97 
z
M 1959 2075 
Q 2384 2075 2632 2365 
Q 2881 2656 2881 3163 
Q 2881 3666 2632 3958 
Q 2384 4250 1959 4250 
Q 1534 4250 1286 3958 
Q 1038 3666 1038 3163 
Q 1038 2656 1286 2365 
Q 1534 2075 1959 2075 
z
" transform="scale(0.015625)"/>
       </defs>
       <use xlink:href="#DejaVuSans-39"/>
      </g>
     </g>
    </g>
    <g id="text_11">
     <!-- Time (d) -->
     <g transform="translate(159.465207 345.177188) scale(0.22 -0.22)">
      <defs>
       <path id="DejaVuSans-54" d="M -19 4666 
L 3928 4666 
L 3928 4134 
L 2272 4134 
L 2272 0 
L 1638 0 
L 1638 4134 
L -19 4134 
L -19 4666 
z
" transform="scale(0.015625)"/>
       <path id="DejaVuSans-69" d="M 603 3500 
L 1178 3500 
L 1178 0 
L 603 0 
L 603 3500 
z
M 603 4863 
L 1178 4863 
L 1178 4134 
L 603 4134 
L 603 4863 
z
" transform="scale(0.015625)"/>
       <path id="DejaVuSans-6d" d="M 3328 2828 
Q 3544 3216 3844 3400 
Q 4144 3584 4550 3584 
Q 5097 3584 5394 3201 
Q 5691 2819 5691 2113 
L 5691 0 
L 5113 0 
L 5113 2094 
Q 5113 2597 4934 2840 
Q 4756 3084 4391 3084 
Q 3944 3084 3684 2787 
Q 3425 2491 3425 1978 
L 3425 0 
L 2847 0 
L 2847 2094 
Q 2847 2600 2669 2842 
Q 2491 3084 2119 3084 
Q 1678 3084 1418 2786 
Q 1159 2488 1159 1978 
L 1159 0 
L 581 0 
L 581 3500 
L 1159 3500 
L 1159 2956 
Q 1356 3278 1631 3431 
Q 1906 3584 2284 3584 
Q 2666 3584 2933 3390 
Q 3200 3197 3328 2828 
z
" transform="scale(0.015625)"/>
       <path id="DejaVuSans-65" d="M 3597 1894 
L 3597 1613 
L 953 1613 
Q 991 1019 1311 708 
Q 1631 397 2203 397 
Q 2534 397 2845 478 
Q 3156 559 3463 722 
L 3463 178 
Q 3153 47 2828 -22 
Q 2503 -91 2169 -91 
Q 1331 -91 842 396 
Q 353 884 353 1716 
Q 353 2575 817 3079 
Q 1281 3584 2069 3584 
Q 2775 3584 3186 3129 
Q 3597 2675 3597 1894 
z
M 3022 2063 
Q 3016 2534 2758 2815 
Q 2500 3097 2075 3097 
Q 1594 3097 1305 2825 
Q 1016 2553 972 2059 
L 3022 2063 
z
" transform="scale(0.015625)"/>
       <path id="DejaVuSans-20" transform="scale(0.015625)"/>
       <path id="DejaVuSans-28" d="M 1984 4856 
Q 1566 4138 1362 3434 
Q 1159 2731 1159 2009 
Q 1159 1288 1364 580 
Q 1569 -128 1984 -844 
L 1484 -844 
Q 1016 -109 783 600 
Q 550 1309 550 2009 
Q 550 2706 781 3412 
Q 1013 4119 1484 4856 
L 1984 4856 
z
" transform="scale(0.015625)"/>
       <path id="DejaVuSans-64" d="M 2906 2969 
L 2906 4863 
L 3481 4863 
L 3481 0 
L 2906 0 
L 2906 525 
Q 2725 213 2448 61 
Q 2172 -91 1784 -91 
Q 1150 -91 751 415 
Q 353 922 353 1747 
Q 353 2572 751 3078 
Q 1150 3584 1784 3584 
Q 2172 3584 2448 3432 
Q 2725 3281 2906 2969 
z
M 947 1747 
Q 947 1113 1208 752 
Q 1469 391 1925 391 
Q 2381 391 2643 752 
Q 2906 1113 2906 1747 
Q 2906 2381 2643 2742 
Q 2381 3103 1925 3103 
Q 1469 3103 1208 2742 
Q 947 2381 947 1747 
z
" transform="scale(0.015625)"/>
       <path id="DejaVuSans-29" d="M 513 4856 
L 1013 4856 
Q 1481 4119 1714 3412 
Q 1947 2706 1947 2009 
Q 1947 1309 1714 600 
Q 1481 -109 1013 -844 
L 513 -844 
Q 928 -128 1133 580 
Q 1338 1288 1338 2009 
Q 1338 2731 1133 3434 
Q 928 4138 513 4856 
z
" transform="scale(0.015625)"/>
      </defs>
      <use xlink:href="#DejaVuSans-54"/>
      <use xlink:href="#DejaVuSans-69" x="57.958984"/>
      <use xlink:href="#DejaVuSans-6d" x="85.742188"/>
      <use xlink:href="#DejaVuSans-65" x="183.154297"/>
      <use xlink:href="#DejaVuSans-20" x="244.677734"/>
      <use xlink:href="#DejaVuSans-28" x="276.464844"/>
      <use xlink:href="#DejaVuSans-64" x="315.478516"/>
      <use xlink:href="#DejaVuSans-29" x="378.955078"/>
     </g>
    </g>
   </g>
   <g id="matplotlib.axis_2">
    <g id="ytick_1">
     <g id="line2d_11">
      <defs>
       <path id="m57fe2c5d09" d="M 0 0 
L -3.5 0 
" style="stroke: #000000; stroke-width: 0.8"/>
      </defs>
      <g>
       <use xlink:href="#m57fe2c5d09" x="57.08" y="300.04" style="stroke: #000000; stroke-width: 0.8"/>
      </g>
     </g>
     <g id="text_12">
      <!-- 0 -->
      <g transform="translate(38.6275 306.878594) scale(0.18 -0.18)">
       <use xlink:href="#DejaVuSans-30"/>
      </g>
     </g>
    </g>
    <g id="ytick_2">
     <g id="line2d_12">
      <g>
       <use xlink:href="#m57fe2c5d09" x="57.08" y="243.03" style="stroke: #000000; stroke-width: 0.8"/>
      </g>
     </g>
     <g id="text_13">
      <!-- 2 -->
      <g transform="translate(38.6275 249.868594) scale(0.18 -0.18)">
       <use xlink:href="#DejaVuSans-32"/>
      </g>
     </g>
    </g>
    <g id="ytick_3">
     <g id="line2d_13">
      <g>
       <use xlink:href="#m57fe2c5d09" x="57.08" y="186.02" style="stroke: #000000; stroke-width: 0.8"/>
      </g>
     </g>
     <g id="text_14">
      <!-- 4 -->
      <g transform="translate(38.6275 192.858594) scale(0.18 -0.18)">
       <use xlink:href="#DejaVuSans-34"/>
      </g>
     </g>
    </g>
    <g id="ytick_4">
     <g id="line2d_14">
      <g>
       <use xlink:href="#m57fe2c5d09" x="57.08" y="129.01" style="stroke: #000000; stroke-width: 0.8"/>
      </g>
     </g>
     <g id="text_15">
      <!-- 6 -->
      <g transform="translate(38.6275 135.848594) scale(0.18 -0.18)">
       <use xlink:href="#DejaVuSans-36"/>
      </g>
     </g>
    </g>
    <g id="ytick_5">
     <g id="line2d_15">
      <g>
       <use xlink:href="#m57fe2c5d09" x="57.08" y="72" style="stroke: #000000; stroke-width: 0.8"/>
      </g>
     </g>
     <g id="text_16">
      <!-- 8 -->
      <g transform="translate(38.6275 78.838594) scale(0.18 -0.18)">
       <use xlink:href="#DejaVuSans-38"/>
      </g>
     </g>
    </g>
    <g id="text_17">
     <!-- Virus (log$_{10}$ copies/mL) -->
     <g transform="translate(30.0075 312.3) rotate(-90) scale(0.22 -0.22)">
      <defs>
       <path id="DejaVuSans-56" d="M 1831 0 
L 50 4666 
L 709 4666 
L 2188 738 
L 3669 4666 
L 4325 4666 
L 2547 0 
L 1831 0 
z
" transform="scale(0.015625)"/>
       <path id="DejaVuSans-72" d="M 2631 2963 
Q 2534 3019 2420 3045 
Q 2306 3072 2169 3072 
Q 1681 3072 1420 2755 
Q 1159 2438 1159 1844 
L 1159 0 
L 581 0 
L 581 3500 
L 1159 3500 
L 1159 2956 
Q 1341 3275 1631 3429 
Q 1922 3584 2338 3584 
Q 2397 3584 2469 3576 
Q 2541 3569 2628 3553 
L 2631 2963 
z
" transform="scale(0.015625)"/>
       <path id="DejaVuSans-75" d="M 544 1381 
L 544 3500 
L 1119 3500 
L 1119 1403 
Q 1119 906 1312 657 
Q 1506 409 1894 409 
Q 2359 409 2629 706 
Q 2900 1003 2900 1516 
L 2900 3500 
L 3475 3500 
L 3475 0 
L 2900 0 
L 2900 538 
Q 2691 219 2414 64 
Q 2138 -91 1772 -91 
Q 1169 -91 856 284 
Q 544 659 544 1381 
z
M 1991 3584 
L 1991 3584 
z
" transform="scale(0.015625)"/>
       <path id="DejaVuSans-73" d="M 2834 3397 
L 2834 2853 
Q 2591 2978 2328 3040 
Q 2066 3103 1784 3103 
Q 1356 3103 1142 2972 
Q 928 2841 928 2578 
Q 928 2378 1081 2264 
Q 1234 2150 1697 2047 
L 1894 2003 
Q 2506 1872 2764 1633 
Q 3022 1394 3022 966 
Q 3022 478 2636 193 
Q 2250 -91 1575 -91 
Q 1294 -91 989 -36 
Q 684 19 347 128 
L 347 722 
Q 666 556 975 473 
Q 1284 391 1588 391 
Q 1994 391 2212 530 
Q 2431 669 2431 922 
Q 2431 1156 2273 1281 
Q 2116 1406 1581 1522 
L 1381 1569 
Q 847 1681 609 1914 
Q 372 2147 372 2553 
Q 372 3047 722 3315 
Q 1072 3584 1716 3584 
Q 2034 3584 2315 3537 
Q 2597 3491 2834 3397 
z
" transform="scale(0.015625)"/>
       <path id="DejaVuSans-6c" d="M 603 4863 
L 1178 4863 
L 1178 0 
L 603 0 
L 603 4863 
z
" transform="scale(0.015625)"/>
       <path id="DejaVuSans-6f" d="M 1959 3097 
Q 1497 3097 1228 2736 
Q 959 2375 959 1747 
Q 959 1119 1226 758 
Q 1494 397 1959 397 
Q 2419 397 2687 759 
Q 2956 1122 2956 1747 
Q 2956 2369 2687 2733 
Q 2419 3097 1959 3097 
z
M 1959 3584 
Q 2709 3584 3137 3096 
Q 3566 2609 3566 1747 
Q 3566 888 3137 398 
Q 2709 -91 1959 -91 
Q 1206 -91 779 398 
Q 353 888 353 1747 
Q 353 2609 779 3096 
Q 1206 3584 1959 3584 
z
" transform="scale(0.015625)"/>
       <path id="DejaVuSans-67" d="M 2906 1791 
Q 2906 2416 2648 2759 
Q 2391 3103 1925 3103 
Q 1463 3103 1205 2759 
Q 947 2416 947 1791 
Q 947 1169 1205 825 
Q 1463 481 1925 481 
Q 2391 481 2648 825 
Q 2906 1169 2906 1791 
z
M 3481 434 
Q 3481 -459 3084 -895 
Q 2688 -1331 1869 -1331 
Q 1566 -1331 1297 -1286 
Q 1028 -1241 775 -1147 
L 775 -588 
Q 1028 -725 1275 -790 
Q 1522 -856 1778 -856 
Q 2344 -856 2625 -561 
Q 2906 -266 2906 331 
L 2906 616 
Q 2728 306 2450 153 
Q 2172 0 1784 0 
Q 1141 0 747 490 
Q 353 981 353 1791 
Q 353 2603 747 3093 
Q 1141 3584 1784 3584 
Q 2172 3584 2450 3431 
Q 2728 3278 2906 2969 
L 2906 3500 
L 3481 3500 
L 3481 434 
z
" transform="scale(0.015625)"/>
       <path id="DejaVuSans-63" d="M 3122 3366 
L 3122 2828 
Q 2878 2963 2633 3030 
Q 2388 3097 2138 3097 
Q 1578 3097 1268 2742 
Q 959 2388 959 1747 
Q 959 1106 1268 751 
Q 1578 397 2138 397 
Q 2388 397 2633 464 
Q 2878 531 3122 666 
L 3122 134 
Q 2881 22 2623 -34 
Q 2366 -91 2075 -91 
Q 1284 -91 818 406 
Q 353 903 353 1747 
Q 353 2603 823 3093 
Q 1294 3584 2113 3584 
Q 2378 3584 2631 3529 
Q 2884 3475 3122 3366 
z
" transform="scale(0.015625)"/>
       <path id="DejaVuSans-70" d="M 1159 525 
L 1159 -1331 
L 581 -1331 
L 581 3500 
L 1159 3500 
L 1159 2969 
Q 1341 3281 1617 3432 
Q 1894 3584 2278 3584 
Q 2916 3584 3314 3078 
Q 3713 2572 3713 1747 
Q 3713 922 3314 415 
Q 2916 -91 2278 -91 
Q 1894 -91 1617 61 
Q 1341 213 1159 525 
z
M 3116 1747 
Q 3116 2381 2855 2742 
Q 2594 3103 2138 3103 
Q 1681 3103 1420 2742 
Q 1159 2381 1159 1747 
Q 1159 1113 1420 752 
Q 1681 391 2138 391 
Q 2594 391 2855 752 
Q 3116 1113 3116 1747 
z
" transform="scale(0.015625)"/>
       <path id="DejaVuSans-2f" d="M 1625 4666 
L 2156 4666 
L 531 -594 
L 0 -594 
L 1625 4666 
z
" transform="scale(0.015625)"/>
       <path id="DejaVuSans-4c" d="M 628 4666 
L 1259 4666 
L 1259 531 
L 3531 531 
L 3531 0 
L 628 0 
L 628 4666 
z
" transform="scale(0.015625)"/>
      </defs>
      <use xlink:href="#DejaVuSans-56" transform="translate(0 0.015625)"/>
      <use xlink:href="#DejaVuSans-69" transform="translate(68.408203 0.015625)"/>
      <use xlink:href="#DejaVuSans-72" transform="translate(96.191406 0.015625)"/>
      <use xlink:href="#DejaVuSans-75" transform="translate(137.304688 0.015625)"/>
      <use xlink:href="#DejaVuSans-73" transform="translate(200.683594 0.015625)"/>
      <use xlink:href="#DejaVuSans-20" transform="translate(252.783203 0.015625)"/>
      <use xlink:href="#DejaVuSans-28" transform="translate(284.570312 0.015625)"/>
      <use xlink:href="#DejaVuSans-6c" transform="translate(323.583984 0.015625)"/>
      <use xlink:href="#DejaVuSans-6f" transform="translate(351.367188 0.015625)"/>
      <use xlink:href="#DejaVuSans-67" transform="translate(412.548828 0.015625)"/>
      <use xlink:href="#DejaVuSans-31" transform="translate(476.982422 -16.390625) scale(0.7)"/>
      <use xlink:href="#DejaVuSans-30" transform="translate(521.518555 -16.390625) scale(0.7)"/>
      <use xlink:href="#DejaVuSans-20" transform="translate(568.789062 0.015625)"/>
      <use xlink:href="#DejaVuSans-63" transform="translate(600.576172 0.015625)"/>
      <use xlink:href="#DejaVuSans-6f" transform="translate(655.556641 0.015625)"/>
      <use xlink:href="#DejaVuSans-70" transform="translate(716.738281 0.015625)"/>
      <use xlink:href="#DejaVuSans-69" transform="translate(780.214844 0.015625)"/>
      <use xlink:href="#DejaVuSans-65" transform="translate(807.998047 0.015625)"/>
      <use xlink:href="#DejaVuSans-73" transform="translate(869.521484 0.015625)"/>
      <use xlink:href="#DejaVuSans-2f" transform="translate(921.621094 0.015625)"/>
      <use xlink:href="#DejaVuSans-6d" transform="translate(955.3125 0.015625)"/>
      <use xlink:href="#DejaVuSans-4c" transform="translate(1052.724609 0.015625)"/>
      <use xlink:href="#DejaVuSans-29" transform="translate(1108.4375 0.015625)"/>
     </g>
    </g>
   </g>
   <g id="patch_3">
    <path d="M 57.08 300.04 
L 57.08 72 
" style="fill: none; stroke: #000000; stroke-width: 0.8; stroke-linejoin: miter; stroke-linecap: square"/>
   </g>
   <g id="patch_4">
    <path d="M 353.803538 300.04 
L 353.803538 72 
" style="fill: none; stroke: #000000; stroke-width: 0.8; stroke-linejoin: miter; stroke-linecap: square"/>
   </g>
   <g id="patch_5">
    <path d="M 57.08 300.04 
L 353.803538 300.04 
" style="fill: none; stroke: #000000; stroke-width: 0.8; stroke-linejoin: miter; stroke-linecap: square"/>
   </g>
   <g id="patch_6">
    <path d="M 57.08 72 
L 353.803538 72 
" style="fill: none; stroke: #000000; stroke-width: 0.8; stroke-linejoin: miter; stroke-linecap: square"/>
   </g>
   <g id="PolyCollection_1">
    <defs>
     <path id="m3e05717e38" d="M 60.305256 -59.96 
L 60.305256 -59.96 
L 60.30562 -59.96 
L 60.309257 -59.96 
L 60.345631 -59.96 
L 60.594528 -59.96 
L 60.747878 -59.96 
L 61.371135 -63.23478 
L 61.740099 -69.58805 
L 63.000697 -83.675077 
L 63.580074 -88.163381 
L 65.015906 -96.757739 
L 65.698817 -100.351914 
L 67.089629 -106.92613 
L 67.868222 -110.373988 
L 69.282955 -116.537442 
L 70.133661 -120.245377 
L 71.539088 -126.360486 
L 72.447556 -130.332918 
L 73.8512 -136.447377 
L 74.802372 -140.612044 
L 76.198635 -146.697254 
L 77.181111 -150.998858 
L 78.716281 -157.693061 
L 79.680003 -161.921585 
L 81.006628 -167.721803 
L 82.00918 -172.094447 
L 83.455349 -178.406582 
L 84.450459 -182.745821 
L 85.792786 -188.617252 
L 86.811093 -193.042654 
L 88.257528 -199.349922 
L 89.267594 -203.727796 
L 90.637933 -209.681254 
L 91.676901 -214.164726 
L 93.168849 -220.565004 
L 94.217456 -225.019123 
L 95.642354 -230.977137 
L 96.718126 -235.401491 
L 98.25687 -241.45131 
L 99.369429 -245.69397 
L 100.488042 -249.650441 
L 101.46177 -252.794886 
L 102.435497 -255.761693 
L 103.246127 -258.025355 
L 104.056758 -259.942537 
L 104.77556 -261.64254 
L 105.494362 -263.081926 
L 106.138667 -264.307133 
L 106.675977 -265.145269 
L 107.125934 -265.847147 
L 107.577937 -266.489701 
L 107.951806 -266.966168 
L 108.376958 -267.505604 
L 110.13605 -269.210138 
L 110.922497 -269.792387 
L 113.041719 -270.425627 
L 114.027053 -270.47787 
L 116.457737 -270.37897 
L 117.682543 -270.206373 
L 120.907799 -269.526659 
L 122.414582 -269.080259 
L 125.639838 -267.991641 
L 127.616738 -267.201754 
L 130.841993 -265.780521 
L 133.3974 -264.593174 
L 136.622656 -263.016433 
L 139.847912 -261.392824 
L 143.073167 -259.719436 
L 146.298423 -258.011913 
L 148.81484 -256.651869 
L 151.347557 -255.261482 
L 153.880274 -253.848698 
L 156.712752 -252.240934 
L 158.936671 -250.954723 
L 161.16059 -249.641148 
L 163.756271 -248.053621 
L 165.820791 -246.758221 
L 169.046047 -244.628942 
L 171.021065 -243.259282 
L 174.246321 -240.942749 
L 176.710172 -239.092224 
L 179.935428 -236.547357 
L 183.160684 -233.834996 
L 186.38594 -230.917684 
L 189.611196 -227.747583 
L 192.836452 -224.26397 
L 196.061708 -220.392255 
L 199.286963 -216.048235 
L 202.512219 -211.153353 
L 205.737475 -205.662788 
L 208.962731 -199.592453 
L 212.187987 -193.019781 
L 215.413243 -186.054218 
L 218.638498 -178.803195 
L 221.863754 -171.354788 
L 225.08901 -163.776028 
L 228.314266 -156.117521 
L 231.539522 -148.418662 
L 234.764778 -140.711753 
L 237.990034 -133.024906 
L 241.215289 -125.384023 
L 244.440545 -117.814086 
L 247.665801 -110.283087 
L 250.891057 -102.855464 
L 254.116313 -95.580224 
L 257.341569 -88.482784 
L 260.566825 -81.624461 
L 263.79208 -74.973776 
L 266.636484 -69.317836 
L 269.54597 -63.68984 
L 272.003087 -59.96 
L 274.664977 -59.96 
L 276.872679 -59.96 
L 280.097935 -59.96 
L 282.703917 -59.96 
L 285.929173 -59.96 
L 289.154429 -59.96 
L 292.379685 -59.96 
L 295.604941 -59.96 
L 298.830197 -59.96 
L 302.055452 -59.96 
L 305.280708 -59.96 
L 308.505964 -59.96 
L 311.73122 -59.96 
L 314.956476 -59.96 
L 318.181732 -59.96 
L 321.406988 -59.96 
L 324.632243 -59.96 
L 327.857499 -59.96 
L 331.082755 -59.96 
L 334.308011 -59.96 
L 337.533267 -59.96 
L 340.758523 -59.96 
L 343.983778 -59.96 
L 347.209034 -59.96 
L 350.43429 -59.96 
L 350.578282 -59.96 
L 350.578282 -59.96 
L 350.578282 -59.96 
L 350.43429 -59.96 
L 347.209034 -59.96 
L 343.983778 -59.96 
L 340.758523 -59.96 
L 337.533267 -59.96 
L 334.308011 -59.96 
L 331.082755 -59.96 
L 327.857499 -59.96 
L 324.632243 -59.96 
L 321.406988 -59.96 
L 318.181732 -59.96 
L 314.956476 -59.96 
L 311.73122 -59.96 
L 308.505964 -59.96 
L 305.280708 -59.96 
L 302.055452 -59.96 
L 298.830197 -59.96 
L 295.604941 -61.021262 
L 292.379685 -65.061618 
L 289.154429 -69.376204 
L 285.929173 -73.853122 
L 282.703917 -78.487191 
L 280.097935 -82.359736 
L 276.872679 -87.303761 
L 274.664977 -90.789921 
L 272.003087 -95.105634 
L 269.54597 -99.21997 
L 266.636484 -104.246235 
L 263.79208 -109.319568 
L 260.566825 -115.258886 
L 257.341569 -121.399287 
L 254.116313 -127.732436 
L 250.891057 -134.244341 
L 247.665801 -140.914841 
L 244.440545 -147.717156 
L 241.215289 -154.617293 
L 237.990034 -161.573108 
L 234.764778 -168.532852 
L 231.539522 -175.433135 
L 228.314266 -182.196884 
L 225.08901 -188.733114 
L 221.863754 -194.942166 
L 218.638498 -200.730039 
L 215.413243 -206.02973 
L 212.187987 -210.81835 
L 208.962731 -215.118145 
L 205.737475 -219.320072 
L 202.512219 -223.199132 
L 199.286963 -226.705507 
L 196.061708 -229.900997 
L 192.836452 -232.840119 
L 189.611196 -235.567863 
L 186.38594 -238.12035 
L 183.160684 -240.5264 
L 179.935428 -242.80914 
L 176.710172 -244.987345 
L 174.246321 -246.597236 
L 171.021065 -248.620411 
L 169.046047 -249.830883 
L 165.820791 -251.755115 
L 163.756271 -252.961667 
L 161.16059 -254.444371 
L 158.936671 -255.69454 
L 156.712752 -256.926038 
L 153.880274 -258.466367 
L 151.347557 -259.879268 
L 148.81484 -261.279387 
L 146.298423 -262.641032 
L 143.073167 -264.349795 
L 139.847912 -266.003868 
L 136.622656 -267.583509 
L 133.3974 -269.098487 
L 130.841993 -270.213191 
L 127.616738 -271.497103 
L 125.639838 -272.231295 
L 122.414582 -273.228055 
L 120.907799 -273.6055 
L 117.682543 -274.168831 
L 116.457737 -274.275078 
L 114.027053 -274.263486 
L 113.041719 -274.157783 
L 110.922497 -273.683231 
L 110.13605 -273.421294 
L 108.376958 -273.051894 
L 107.951806 -272.97972 
L 107.577937 -272.900251 
L 107.125934 -272.791123 
L 106.675977 -272.665304 
L 106.138667 -272.489784 
L 105.494362 -272.238575 
L 104.77556 -271.905897 
L 104.056758 -271.511956 
L 103.246127 -270.970982 
L 102.435497 -270.328854 
L 101.46177 -269.410048 
L 100.488042 -268.267808 
L 99.369429 -266.675296 
L 98.25687 -264.698853 
L 96.718126 -261.204847 
L 95.642354 -258.086254 
L 94.217456 -253.333709 
L 93.168849 -249.178347 
L 91.676901 -242.685625 
L 90.637933 -237.674421 
L 89.267594 -230.837468 
L 88.257528 -225.57828 
L 86.811093 -217.946798 
L 85.792786 -212.467109 
L 84.450459 -205.237695 
L 83.455349 -199.834709 
L 82.00918 -191.987326 
L 81.006628 -186.512497 
L 79.680003 -179.301195 
L 78.716281 -174.043311 
L 77.181111 -165.674103 
L 76.198635 -160.298258 
L 74.802372 -152.689976 
L 73.8512 -147.499856 
L 72.447556 -139.852765 
L 71.539088 -134.905884 
L 70.133661 -127.251133 
L 69.282955 -122.630776 
L 67.868222 -114.939865 
L 67.089629 -110.722477 
L 65.698817 -103.063123 
L 65.015906 -99.198749 
L 63.580074 -90.036249 
L 63.000697 -85.553217 
L 61.740099 -71.30356 
L 61.371135 -64.83269 
L 60.747878 -60.023705 
L 60.594528 -59.96 
L 60.345631 -59.96 
L 60.309257 -59.96 
L 60.30562 -59.96 
L 60.305256 -59.96 
z
" style="stroke: #808080; stroke-opacity: 0.2"/>
    </defs>
    <g clip-path="url(#p57597a1eb5)">
     <use xlink:href="#m3e05717e38" x="0" y="360" style="fill: #808080; fill-opacity: 0.2; stroke: #808080; stroke-opacity: 0.2"/>
    </g>
   </g>
   <g id="PathCollection_1">
    <defs>
     <path id="m751df921da" d="M 0 4.330127 
C 1.148363 4.330127 2.249847 3.873878 3.061862 3.061862 
C 3.873878 2.249847 4.330127 1.148363 4.330127 0 
C 4.330127 -1.148363 3.873878 -2.249847 3.061862 -3.061862 
C 2.249847 -3.873878 1.148363 -4.330127 0 -4.330127 
C -1.148363 -4.330127 -2.249847 -3.873878 -3.061862 -3.061862 
C -3.873878 -2.249847 -4.330127 -1.148363 -4.330127 0 
C -4.330127 1.148363 -3.873878 2.249847 -3.061862 3.061862 
C -2.249847 3.873878 -1.148363 4.330127 0 4.330127 
z
" style="stroke: #808080; stroke-opacity: 0.8"/>
    </defs>
    <g clip-path="url(#p57597a1eb5)">
     <use xlink:href="#m751df921da" x="60.305256" y="300.04" style="fill: #808080; fill-opacity: 0.8; stroke: #808080; stroke-opacity: 0.8"/>
     <use xlink:href="#m751df921da" x="92.557814" y="113.314209" style="fill: #808080; fill-opacity: 0.8; stroke: #808080; stroke-opacity: 0.8"/>
     <use xlink:href="#m751df921da" x="124.810373" y="32.129082" style="fill: #808080; fill-opacity: 0.8; stroke: #808080; stroke-opacity: 0.8"/>
     <use xlink:href="#m751df921da" x="157.062931" y="59.190791" style="fill: #808080; fill-opacity: 0.8; stroke: #808080; stroke-opacity: 0.8"/>
     <use xlink:href="#m751df921da" x="189.31549" y="113.314209" style="fill: #808080; fill-opacity: 0.8; stroke: #808080; stroke-opacity: 0.8"/>
     <use xlink:href="#m751df921da" x="221.568048" y="134.963576" style="fill: #808080; fill-opacity: 0.8; stroke: #808080; stroke-opacity: 0.8"/>
     <use xlink:href="#m751df921da" x="253.820607" y="300.04" style="fill: #808080; fill-opacity: 0.8; stroke: #808080; stroke-opacity: 0.8"/>
     <use xlink:href="#m751df921da" x="286.073165" y="300.04" style="fill: #808080; fill-opacity: 0.8; stroke: #808080; stroke-opacity: 0.8"/>
    </g>
   </g>
   <g id="line2d_16">
    <path d="M 60.305256 300.04 
L 60.747878 300.04 
L 61.371135 295.620532 
L 61.740099 288.750396 
L 63.000697 274.529856 
L 63.580074 270.117515 
L 65.698817 257.649729 
L 72.447556 223.51643 
L 89.267594 138.858968 
L 93.168849 120.282107 
L 95.642354 109.885478 
L 96.718126 105.949848 
L 98.25687 101.102774 
L 99.369429 98.189982 
L 100.488042 95.746321 
L 101.46177 93.977102 
L 103.246127 91.464696 
L 104.77556 89.912812 
L 106.138667 88.892476 
L 107.577937 88.110224 
L 108.376958 87.784832 
L 110.922497 87.159937 
L 114.027053 87.040507 
L 117.682543 87.521224 
L 122.414582 88.797302 
L 127.616738 90.74318 
L 133.3974 93.314144 
L 139.847912 96.492855 
L 148.81484 101.245988 
L 156.712752 105.678846 
L 163.756271 109.848233 
L 171.021065 114.440505 
L 176.710172 118.324593 
L 183.160684 123.157323 
L 186.38594 125.799375 
L 189.611196 128.634122 
L 192.836452 131.703869 
L 196.061708 135.061903 
L 199.286963 138.77337 
L 202.512219 142.912173 
L 205.737475 147.549282 
L 208.962731 152.730111 
L 212.187987 158.450165 
L 215.413243 164.649498 
L 218.638498 171.233822 
L 225.08901 185.176177 
L 234.764778 207.00628 
L 247.665801 236.179389 
L 254.116313 250.323519 
L 260.566825 263.932402 
L 266.636484 276.089188 
L 272.003087 286.223809 
L 276.872679 294.897907 
L 280.097935 300.04 
L 350.578282 300.04 
L 350.578282 300.04 
" clip-path="url(#p57597a1eb5)" style="fill: none; stroke: #808080; stroke-width: 1.5; stroke-linecap: square"/>
   </g>
  </g>
  <g id="axes_2">
   <g id="patch_7">
    <path d="M 415.545487 300.04 
L 712.269026 300.04 
L 712.269026 72 
L 415.545487 72 
z
" style="fill: #ffffff"/>
   </g>
   <g id="matplotlib.axis_3">
    <g id="xtick_11">
     <g id="line2d_17">
      <g>
       <use xlink:href="#m9ecac6d773" x="418.770743" y="300.04" style="stroke: #000000; stroke-width: 0.8"/>
      </g>
     </g>
     <g id="text_18">
      <!-- 0 -->
      <g transform="translate(413.044493 320.717188) scale(0.18 -0.18)">
       <use xlink:href="#DejaVuSans-30"/>
      </g>
     </g>
    </g>
    <g id="xtick_12">
     <g id="line2d_18">
      <g>
       <use xlink:href="#m9ecac6d773" x="451.023302" y="300.04" style="stroke: #000000; stroke-width: 0.8"/>
      </g>
     </g>
     <g id="text_19">
      <!-- 1 -->
      <g transform="translate(445.297052 320.717188) scale(0.18 -0.18)">
       <use xlink:href="#DejaVuSans-31"/>
      </g>
     </g>
    </g>
    <g id="xtick_13">
     <g id="line2d_19">
      <g>
       <use xlink:href="#m9ecac6d773" x="483.27586" y="300.04" style="stroke: #000000; stroke-width: 0.8"/>
      </g>
     </g>
     <g id="text_20">
      <!-- 2 -->
      <g transform="translate(477.54961 320.717188) scale(0.18 -0.18)">
       <use xlink:href="#DejaVuSans-32"/>
      </g>
     </g>
    </g>
    <g id="xtick_14">
     <g id="line2d_20">
      <g>
       <use xlink:href="#m9ecac6d773" x="515.528419" y="300.04" style="stroke: #000000; stroke-width: 0.8"/>
      </g>
     </g>
     <g id="text_21">
      <!-- 3 -->
      <g transform="translate(509.802169 320.717188) scale(0.18 -0.18)">
       <use xlink:href="#DejaVuSans-33"/>
      </g>
     </g>
    </g>
    <g id="xtick_15">
     <g id="line2d_21">
      <g>
       <use xlink:href="#m9ecac6d773" x="547.780977" y="300.04" style="stroke: #000000; stroke-width: 0.8"/>
      </g>
     </g>
     <g id="text_22">
      <!-- 4 -->
      <g transform="translate(542.054727 320.717188) scale(0.18 -0.18)">
       <use xlink:href="#DejaVuSans-34"/>
      </g>
     </g>
    </g>
    <g id="xtick_16">
     <g id="line2d_22">
      <g>
       <use xlink:href="#m9ecac6d773" x="580.033536" y="300.04" style="stroke: #000000; stroke-width: 0.8"/>
      </g>
     </g>
     <g id="text_23">
      <!-- 5 -->
      <g transform="translate(574.307286 320.717188) scale(0.18 -0.18)">
       <use xlink:href="#DejaVuSans-35"/>
      </g>
     </g>
    </g>
    <g id="xtick_17">
     <g id="line2d_23">
      <g>
       <use xlink:href="#m9ecac6d773" x="612.286094" y="300.04" style="stroke: #000000; stroke-width: 0.8"/>
      </g>
     </g>
     <g id="text_24">
      <!-- 6 -->
      <g transform="translate(606.559844 320.717188) scale(0.18 -0.18)">
       <use xlink:href="#DejaVuSans-36"/>
      </g>
     </g>
    </g>
    <g id="xtick_18">
     <g id="line2d_24">
      <g>
       <use xlink:href="#m9ecac6d773" x="644.538653" y="300.04" style="stroke: #000000; stroke-width: 0.8"/>
      </g>
     </g>
     <g id="text_25">
      <!-- 7 -->
      <g transform="translate(638.812403 320.717188) scale(0.18 -0.18)">
       <use xlink:href="#DejaVuSans-37"/>
      </g>
     </g>
    </g>
    <g id="xtick_19">
     <g id="line2d_25">
      <g>
       <use xlink:href="#m9ecac6d773" x="676.791211" y="300.04" style="stroke: #000000; stroke-width: 0.8"/>
      </g>
     </g>
     <g id="text_26">
      <!-- 8 -->
      <g transform="translate(671.064961 320.717188) scale(0.18 -0.18)">
       <use xlink:href="#DejaVuSans-38"/>
      </g>
     </g>
    </g>
    <g id="xtick_20">
     <g id="line2d_26">
      <g>
       <use xlink:href="#m9ecac6d773" x="709.04377" y="300.04" style="stroke: #000000; stroke-width: 0.8"/>
      </g>
     </g>
     <g id="text_27">
      <!-- 9 -->
      <g transform="translate(703.31752 320.717188) scale(0.18 -0.18)">
       <use xlink:href="#DejaVuSans-39"/>
      </g>
     </g>
    </g>
    <g id="text_28">
     <!-- Time (d) -->
     <g transform="translate(517.930694 345.177188) scale(0.22 -0.22)">
      <use xlink:href="#DejaVuSans-54"/>
      <use xlink:href="#DejaVuSans-69" x="57.958984"/>
      <use xlink:href="#DejaVuSans-6d" x="85.742188"/>
      <use xlink:href="#DejaVuSans-65" x="183.154297"/>
      <use xlink:href="#DejaVuSans-20" x="244.677734"/>
      <use xlink:href="#DejaVuSans-28" x="276.464844"/>
      <use xlink:href="#DejaVuSans-64" x="315.478516"/>
      <use xlink:href="#DejaVuSans-29" x="378.955078"/>
     </g>
    </g>
   </g>
   <g id="matplotlib.axis_4">
    <g id="ytick_6">
     <g id="line2d_27">
      <g>
       <use xlink:href="#m57fe2c5d09" x="415.545487" y="300.04" style="stroke: #000000; stroke-width: 0.8"/>
      </g>
     </g>
     <g id="text_29">
      <!-- 3 -->
      <g transform="translate(397.092987 306.878594) scale(0.18 -0.18)">
       <use xlink:href="#DejaVuSans-33"/>
      </g>
     </g>
    </g>
    <g id="ytick_7">
     <g id="line2d_28">
      <g>
       <use xlink:href="#m57fe2c5d09" x="415.545487" y="249.364444" style="stroke: #000000; stroke-width: 0.8"/>
      </g>
     </g>
     <g id="text_30">
      <!-- 4 -->
      <g transform="translate(397.092987 256.203038) scale(0.18 -0.18)">
       <use xlink:href="#DejaVuSans-34"/>
      </g>
     </g>
    </g>
    <g id="ytick_8">
     <g id="line2d_29">
      <g>
       <use xlink:href="#m57fe2c5d09" x="415.545487" y="198.688889" style="stroke: #000000; stroke-width: 0.8"/>
      </g>
     </g>
     <g id="text_31">
      <!-- 5 -->
      <g transform="translate(397.092987 205.527483) scale(0.18 -0.18)">
       <use xlink:href="#DejaVuSans-35"/>
      </g>
     </g>
    </g>
    <g id="ytick_9">
     <g id="line2d_30">
      <g>
       <use xlink:href="#m57fe2c5d09" x="415.545487" y="148.013333" style="stroke: #000000; stroke-width: 0.8"/>
      </g>
     </g>
     <g id="text_32">
      <!-- 6 -->
      <g transform="translate(397.092987 154.851927) scale(0.18 -0.18)">
       <use xlink:href="#DejaVuSans-36"/>
      </g>
     </g>
    </g>
    <g id="ytick_10">
     <g id="line2d_31">
      <g>
       <use xlink:href="#m57fe2c5d09" x="415.545487" y="97.337778" style="stroke: #000000; stroke-width: 0.8"/>
      </g>
     </g>
     <g id="text_33">
      <!-- 7 -->
      <g transform="translate(397.092987 104.176372) scale(0.18 -0.18)">
       <use xlink:href="#DejaVuSans-37"/>
      </g>
     </g>
    </g>
    <g id="text_34">
     <!-- CD8$^+$ T (log$_{10}$ cells) -->
     <g transform="translate(388.472987 296.46) rotate(-90) scale(0.22 -0.22)">
      <defs>
       <path id="DejaVuSans-43" d="M 4122 4306 
L 4122 3641 
Q 3803 3938 3442 4084 
Q 3081 4231 2675 4231 
Q 1875 4231 1450 3742 
Q 1025 3253 1025 2328 
Q 1025 1406 1450 917 
Q 1875 428 2675 428 
Q 3081 428 3442 575 
Q 3803 722 4122 1019 
L 4122 359 
Q 3791 134 3420 21 
Q 3050 -91 2638 -91 
Q 1578 -91 968 557 
Q 359 1206 359 2328 
Q 359 3453 968 4101 
Q 1578 4750 2638 4750 
Q 3056 4750 3426 4639 
Q 3797 4528 4122 4306 
z
" transform="scale(0.015625)"/>
       <path id="DejaVuSans-44" d="M 1259 4147 
L 1259 519 
L 2022 519 
Q 2988 519 3436 956 
Q 3884 1394 3884 2338 
Q 3884 3275 3436 3711 
Q 2988 4147 2022 4147 
L 1259 4147 
z
M 628 4666 
L 1925 4666 
Q 3281 4666 3915 4102 
Q 4550 3538 4550 2338 
Q 4550 1131 3912 565 
Q 3275 0 1925 0 
L 628 0 
L 628 4666 
z
" transform="scale(0.015625)"/>
       <path id="DejaVuSans-2b" d="M 2944 4013 
L 2944 2272 
L 4684 2272 
L 4684 1741 
L 2944 1741 
L 2944 0 
L 2419 0 
L 2419 1741 
L 678 1741 
L 678 2272 
L 2419 2272 
L 2419 4013 
L 2944 4013 
z
" transform="scale(0.015625)"/>
      </defs>
      <use xlink:href="#DejaVuSans-43" transform="translate(0 0.826562)"/>
      <use xlink:href="#DejaVuSans-44" transform="translate(69.824219 0.826562)"/>
      <use xlink:href="#DejaVuSans-38" transform="translate(146.826172 0.826562)"/>
      <use xlink:href="#DejaVuSans-2b" transform="translate(225.043945 39.107812) scale(0.7)"/>
      <use xlink:href="#DejaVuSans-20" transform="translate(300.068359 0.826562)"/>
      <use xlink:href="#DejaVuSans-54" transform="translate(331.855469 0.826562)"/>
      <use xlink:href="#DejaVuSans-20" transform="translate(392.939453 0.826562)"/>
      <use xlink:href="#DejaVuSans-28" transform="translate(424.726562 0.826562)"/>
      <use xlink:href="#DejaVuSans-6c" transform="translate(463.740234 0.826562)"/>
      <use xlink:href="#DejaVuSans-6f" transform="translate(491.523438 0.826562)"/>
      <use xlink:href="#DejaVuSans-67" transform="translate(552.705078 0.826562)"/>
      <use xlink:href="#DejaVuSans-31" transform="translate(617.138672 -15.579688) scale(0.7)"/>
      <use xlink:href="#DejaVuSans-30" transform="translate(661.674805 -15.579688) scale(0.7)"/>
      <use xlink:href="#DejaVuSans-20" transform="translate(708.945312 0.826562)"/>
      <use xlink:href="#DejaVuSans-63" transform="translate(740.732422 0.826562)"/>
      <use xlink:href="#DejaVuSans-65" transform="translate(795.712891 0.826562)"/>
      <use xlink:href="#DejaVuSans-6c" transform="translate(857.236328 0.826562)"/>
      <use xlink:href="#DejaVuSans-6c" transform="translate(885.019531 0.826562)"/>
      <use xlink:href="#DejaVuSans-73" transform="translate(912.802734 0.826562)"/>
      <use xlink:href="#DejaVuSans-29" transform="translate(964.902344 0.826562)"/>
     </g>
    </g>
   </g>
   <g id="patch_8">
    <path d="M 415.545487 300.04 
L 415.545487 72 
" style="fill: none; stroke: #000000; stroke-width: 0.8; stroke-linejoin: miter; stroke-linecap: square"/>
   </g>
   <g id="patch_9">
    <path d="M 712.269026 300.04 
L 712.269026 72 
" style="fill: none; stroke: #000000; stroke-width: 0.8; stroke-linejoin: miter; stroke-linecap: square"/>
   </g>
   <g id="patch_10">
    <path d="M 415.545487 300.04 
L 712.269026 300.04 
" style="fill: none; stroke: #000000; stroke-width: 0.8; stroke-linejoin: miter; stroke-linecap: square"/>
   </g>
   <g id="patch_11">
    <path d="M 415.545487 72 
L 712.269026 72 
" style="fill: none; stroke: #000000; stroke-width: 0.8; stroke-linejoin: miter; stroke-linecap: square"/>
   </g>
   <g id="PolyCollection_2">
    <defs>
     <path id="m6a4ff2dcf8" d="M 418.770743 -163.20772 
L 418.770743 -163.20772 
L 418.771107 -163.20772 
L 418.774744 -163.20772 
L 418.811118 -163.20772 
L 419.060015 -163.20772 
L 419.213366 -163.20772 
L 419.836622 -163.20772 
L 420.205586 -163.20772 
L 421.466185 -163.20772 
L 422.045561 -163.20772 
L 423.481393 -163.20772 
L 424.164304 -163.20772 
L 425.555116 -163.20772 
L 426.33371 -163.20772 
L 427.748442 -163.20772 
L 428.599148 -163.20772 
L 430.004576 -163.20772 
L 430.913043 -163.20772 
L 432.316687 -163.20772 
L 433.267859 -163.20772 
L 434.664122 -163.20772 
L 435.646598 -163.20772 
L 437.181769 -163.20772 
L 438.14549 -163.20772 
L 439.472115 -163.20772 
L 440.474667 -163.20772 
L 441.920837 -163.20772 
L 442.915946 -163.207721 
L 444.258273 -163.207722 
L 445.27658 -163.207723 
L 446.723015 -163.207725 
L 447.733081 -163.207728 
L 449.10342 -163.207734 
L 450.142388 -163.207741 
L 451.634336 -163.207757 
L 452.682944 -163.207774 
L 454.107841 -163.207813 
L 455.183614 -163.207855 
L 456.722357 -163.207963 
L 457.834916 -163.208068 
L 458.95353 -163.208238 
L 459.927257 -163.208471 
L 460.900984 -163.208768 
L 461.711614 -163.209099 
L 462.522245 -163.20963 
L 463.241047 -163.2101 
L 463.959849 -163.210814 
L 464.604154 -163.211519 
L 465.141464 -163.212406 
L 465.591422 -163.213148 
L 466.043424 -163.214062 
L 466.417294 -163.214966 
L 466.842445 -163.216004 
L 468.601537 -163.223015 
L 469.387984 -163.227801 
L 471.507206 -163.24849 
L 472.49254 -163.264515 
L 474.923224 -163.3323 
L 476.14803 -163.390485 
L 479.373286 -163.6839 
L 480.880069 -163.930699 
L 484.105325 -164.843694 
L 486.082225 -165.780997 
L 489.307481 -168.139076 
L 491.862887 -170.932077 
L 495.088143 -175.180416 
L 498.313399 -180.301391 
L 501.538655 -185.744718 
L 504.76391 -191.212799 
L 507.280327 -195.294056 
L 509.813044 -199.14168 
L 512.345762 -202.683545 
L 515.178239 -206.272447 
L 517.402158 -208.76548 
L 519.626078 -211.012771 
L 522.221758 -213.33829 
L 524.286279 -214.955657 
L 527.511535 -217.100304 
L 529.486552 -218.231925 
L 532.711808 -219.722049 
L 535.17566 -220.622373 
L 538.400916 -221.506137 
L 541.626171 -222.09999 
L 544.851427 -222.43958 
L 548.076683 -222.162355 
L 551.301939 -221.739325 
L 554.527195 -221.207018 
L 557.752451 -220.58419 
L 560.977706 -219.887188 
L 564.202962 -219.130115 
L 567.428218 -218.325016 
L 570.653474 -217.482081 
L 573.87873 -216.609845 
L 577.103986 -215.715387 
L 580.329242 -214.804528 
L 583.554497 -213.882017 
L 586.779753 -212.951695 
L 590.005009 -212.016656 
L 593.230265 -211.079375 
L 596.455521 -210.141832 
L 599.680777 -209.205603 
L 602.906033 -208.271954 
L 606.131288 -207.341901 
L 609.356544 -206.416268 
L 612.5818 -205.495736 
L 615.807056 -204.580869 
L 619.032312 -203.672154 
L 622.257568 -202.770009 
L 625.101972 -201.97978 
L 628.011458 -201.178007 
L 630.468574 -200.504952 
L 633.130465 -199.781563 
L 635.338166 -199.186142 
L 638.563422 -198.322395 
L 641.169405 -197.630624 
L 644.39466 -196.782399 
L 647.619916 -195.943133 
L 650.845172 -195.113085 
L 654.070428 -194.29251 
L 657.295684 -193.481659 
L 660.52094 -192.680779 
L 663.746196 -191.890113 
L 666.971451 -191.109899 
L 670.196707 -190.34037 
L 673.421963 -189.581752 
L 676.647219 -188.834265 
L 679.872475 -188.098123 
L 683.097731 -187.373532 
L 686.322986 -186.660686 
L 689.548242 -185.959773 
L 692.773498 -185.27097 
L 695.998754 -184.594443 
L 699.22401 -183.930345 
L 702.449266 -183.278819 
L 705.674522 -182.639993 
L 708.899777 -182.012598 
L 709.04377 -181.984845 
L 709.04377 -183.476768 
L 709.04377 -183.476768 
L 708.899777 -183.505978 
L 705.674522 -184.162835 
L 702.449266 -184.831338 
L 699.22401 -185.512219 
L 695.998754 -186.205318 
L 692.773498 -186.910465 
L 689.548242 -187.627481 
L 686.322986 -188.356176 
L 683.097731 -189.096349 
L 679.872475 -189.847793 
L 676.647219 -190.610292 
L 673.421963 -191.383623 
L 670.196707 -192.167557 
L 666.971451 -192.96186 
L 663.746196 -193.766291 
L 660.52094 -194.580607 
L 657.295684 -195.404558 
L 654.070428 -196.237893 
L 650.845172 -197.080353 
L 647.619916 -197.931679 
L 644.39466 -198.791604 
L 641.169405 -199.659856 
L 638.563422 -200.366737 
L 635.338166 -201.249342 
L 633.130465 -201.858453 
L 630.468574 -202.596799 
L 628.011458 -203.282307 
L 625.101972 -204.099056 
L 622.257568 -204.902457 
L 619.032312 -205.819325 
L 615.807056 -206.741646 
L 612.5818 -207.668811 
L 609.356544 -208.600084 
L 606.131288 -209.534564 
L 602.906033 -210.471141 
L 599.680777 -211.40843 
L 596.455521 -212.344698 
L 593.230265 -213.277778 
L 590.005009 -214.204958 
L 586.779753 -215.122863 
L 583.554497 -216.02731 
L 580.329242 -216.913151 
L 577.103986 -217.774101 
L 573.87873 -218.60255 
L 570.653474 -219.38937 
L 567.428218 -220.123717 
L 564.202962 -220.792839 
L 560.977706 -221.381886 
L 557.752451 -221.87374 
L 554.527195 -222.248861 
L 551.301939 -222.48516 
L 548.076683 -222.56487 
L 544.851427 -222.606632 
L 541.626171 -222.615017 
L 538.400916 -222.551837 
L 535.17566 -222.295832 
L 532.711808 -221.927409 
L 529.486552 -221.236319 
L 527.511535 -220.635586 
L 524.286279 -219.433671 
L 522.221758 -218.458102 
L 519.626078 -216.996784 
L 517.402158 -215.504167 
L 515.178239 -213.819249 
L 512.345762 -211.302544 
L 509.813044 -208.696654 
L 507.280327 -205.769502 
L 504.76391 -202.529235 
L 501.538655 -197.860876 
L 498.313399 -192.734839 
L 495.088143 -187.262472 
L 491.862887 -181.690111 
L 489.307481 -177.444628 
L 486.082225 -172.595852 
L 484.105325 -170.146629 
L 480.880069 -167.017203 
L 479.373286 -165.956164 
L 476.14803 -164.428577 
L 474.923224 -164.082611 
L 472.49254 -163.620779 
L 471.507206 -163.510658 
L 469.387984 -163.358761 
L 468.601537 -163.318309 
L 466.842445 -163.267817 
L 466.417294 -163.257318 
L 466.043424 -163.249261 
L 465.591422 -163.242632 
L 465.141464 -163.237452 
L 464.604154 -163.232399 
L 463.959849 -163.226339 
L 463.241047 -163.221112 
L 462.522245 -163.21762 
L 461.711614 -163.21482 
L 460.900984 -163.21277 
L 459.927257 -163.211027 
L 458.95353 -163.20992 
L 457.834916 -163.209076 
L 456.722357 -163.208554 
L 455.183614 -163.20815 
L 454.107841 -163.207996 
L 452.682944 -163.207862 
L 451.634336 -163.207811 
L 450.142388 -163.207765 
L 449.10342 -163.207749 
L 447.733081 -163.207735 
L 446.723015 -163.207729 
L 445.27658 -163.207724 
L 444.258273 -163.207723 
L 442.915946 -163.207721 
L 441.920837 -163.207721 
L 440.474667 -163.20772 
L 439.472115 -163.20772 
L 438.14549 -163.20772 
L 437.181769 -163.20772 
L 435.646598 -163.20772 
L 434.664122 -163.20772 
L 433.267859 -163.20772 
L 432.316687 -163.20772 
L 430.913043 -163.20772 
L 430.004576 -163.20772 
L 428.599148 -163.20772 
L 427.748442 -163.20772 
L 426.33371 -163.20772 
L 425.555116 -163.20772 
L 424.164304 -163.20772 
L 423.481393 -163.20772 
L 422.045561 -163.20772 
L 421.466185 -163.20772 
L 420.205586 -163.20772 
L 419.836622 -163.20772 
L 419.213366 -163.20772 
L 419.060015 -163.20772 
L 418.811118 -163.20772 
L 418.774744 -163.20772 
L 418.771107 -163.20772 
L 418.770743 -163.20772 
z
" style="stroke: #808080; stroke-opacity: 0.2"/>
    </defs>
    <g clip-path="url(#p61f0378637)">
     <use xlink:href="#m6a4ff2dcf8" x="0" y="360" style="fill: #808080; fill-opacity: 0.2; stroke: #808080; stroke-opacity: 0.2"/>
    </g>
   </g>
   <g id="PolyCollection_3">
    <defs>
     <path id="m7e571b799c" d="M 418.770743 -108.316769 
L 418.770743 -108.316769 
L 418.771107 -108.316769 
L 418.774744 -108.316769 
L 418.811118 -108.316769 
L 419.060015 -108.316769 
L 419.213366 -108.316769 
L 419.836622 -108.316769 
L 420.205586 -108.316769 
L 421.466185 -108.316769 
L 422.045561 -108.316769 
L 423.481393 -108.316769 
L 424.164304 -108.316769 
L 425.555116 -108.316769 
L 426.33371 -108.316769 
L 427.748442 -108.316769 
L 428.599148 -108.316769 
L 430.004576 -108.316769 
L 430.913043 -108.316769 
L 432.316687 -108.316769 
L 433.267859 -108.316769 
L 434.664122 -108.316769 
L 435.646598 -108.316769 
L 437.181769 -108.316769 
L 438.14549 -108.316769 
L 439.472115 -108.316769 
L 440.474667 -108.316769 
L 441.920837 -108.316769 
L 442.915946 -108.316769 
L 444.258273 -108.316769 
L 445.27658 -108.316769 
L 446.723015 -108.316769 
L 447.733081 -108.316769 
L 449.10342 -108.316769 
L 450.142388 -108.316769 
L 451.634336 -108.316769 
L 452.682944 -108.316769 
L 454.107841 -108.316769 
L 455.183614 -108.316769 
L 456.722357 -108.316769 
L 457.834916 -108.316769 
L 458.95353 -108.316769 
L 459.927257 -108.316769 
L 460.900984 -108.316769 
L 461.711614 -108.316769 
L 462.522245 -108.316769 
L 463.241047 -108.316769 
L 463.959849 -108.316769 
L 464.604154 -108.316769 
L 465.141464 -108.316769 
L 465.591422 -108.316769 
L 466.043424 -108.316769 
L 466.417294 -108.316769 
L 466.842445 -108.316769 
L 468.601537 -108.316769 
L 469.387984 -108.316769 
L 471.507206 -108.316769 
L 472.49254 -108.316769 
L 474.923224 -108.316769 
L 476.14803 -108.316769 
L 479.373286 -108.316769 
L 480.880069 -108.316769 
L 484.105325 -108.316769 
L 486.082225 -108.316769 
L 489.307481 -108.316769 
L 491.862887 -108.31677 
L 495.088143 -108.316771 
L 498.313399 -108.316773 
L 501.538655 -108.316781 
L 504.76391 -108.316807 
L 507.280327 -108.31686 
L 509.813044 -108.316989 
L 512.345762 -108.317293 
L 515.178239 -108.318076 
L 517.402158 -108.319511 
L 519.626078 -108.322273 
L 522.221758 -108.328385 
L 524.286279 -108.33727 
L 527.511535 -108.363196 
L 529.486552 -108.388365 
L 532.711808 -108.458901 
L 535.17566 -108.543976 
L 538.400916 -108.717548 
L 541.626171 -108.980295 
L 544.851427 -109.355059 
L 548.076683 -109.861628 
L 551.301939 -110.511522 
L 554.527195 -111.306771 
L 557.752451 -112.239134 
L 560.977706 -113.291717 
L 564.202962 -114.441037 
L 567.428218 -115.660273 
L 570.653474 -116.921588 
L 573.87873 -118.198966 
L 577.103986 -119.46985 
L 580.329242 -120.715828 
L 583.554497 -121.922773 
L 586.779753 -123.080572 
L 590.005009 -124.182606 
L 593.230265 -125.225139 
L 596.455521 -126.206709 
L 599.680777 -127.127567 
L 602.906033 -127.989197 
L 606.131288 -128.793928 
L 609.356544 -129.544621 
L 612.5818 -130.244436 
L 615.807056 -130.896657 
L 619.032312 -131.504564 
L 622.257568 -132.071353 
L 625.101972 -132.538048 
L 628.011458 -132.987698 
L 630.468574 -133.346595 
L 633.130465 -133.716324 
L 635.338166 -134.009493 
L 638.563422 -134.41128 
L 641.169405 -134.715454 
L 644.39466 -135.072619 
L 647.619916 -135.407609 
L 650.845172 -135.722052 
L 654.070428 -136.01744 
L 657.295684 -136.295132 
L 660.52094 -136.556373 
L 663.746196 -136.802303 
L 666.971451 -137.033966 
L 670.196707 -137.252321 
L 673.421963 -137.458249 
L 676.647219 -137.65256 
L 679.872475 -137.836001 
L 683.097731 -138.009263 
L 686.322986 -138.172982 
L 689.548242 -138.327748 
L 692.773498 -138.474109 
L 695.998754 -138.612571 
L 699.22401 -138.743607 
L 702.449266 -138.867655 
L 705.674522 -138.985125 
L 708.899777 -139.096814 
L 709.04377 -139.101744 
L 709.04377 -139.338076 
L 709.04377 -139.338076 
L 708.899777 -139.333817 
L 705.674522 -139.235705 
L 702.449266 -139.132217 
L 699.22401 -139.023005 
L 695.998754 -138.907722 
L 692.773498 -138.785995 
L 689.548242 -138.657426 
L 686.322986 -138.521586 
L 683.097731 -138.378015 
L 679.872475 -138.226219 
L 676.647219 -138.065666 
L 673.421963 -137.89578 
L 670.196707 -137.715941 
L 666.971451 -137.525478 
L 663.746196 -137.323665 
L 660.52094 -137.109714 
L 657.295684 -136.88277 
L 654.070428 -136.641901 
L 650.845172 -136.386094 
L 647.619916 -136.114212 
L 644.39466 -135.82511 
L 641.169405 -135.517437 
L 638.563422 -135.253702 
L 635.338166 -134.908679 
L 633.130465 -134.661046 
L 630.468574 -134.346143 
L 628.011458 -134.037698 
L 625.101972 -133.654728 
L 622.257568 -133.254449 
L 619.032312 -132.772367 
L 615.807056 -132.256005 
L 612.5818 -131.702538 
L 609.356544 -131.108953 
L 606.131288 -130.472076 
L 602.906033 -129.788617 
L 599.680777 -129.055246 
L 596.455521 -128.268698 
L 593.230265 -127.425932 
L 590.005009 -126.524343 
L 586.779753 -125.562047 
L 583.554497 -124.538246 
L 580.329242 -123.453686 
L 577.103986 -122.311194 
L 573.87873 -121.116297 
L 570.653474 -119.877827 
L 567.428218 -118.608985 
L 564.202962 -117.326361 
L 560.977706 -116.051494 
L 557.752451 -114.809972 
L 554.527195 -113.629219 
L 551.301939 -112.5375 
L 548.076683 -111.560381 
L 544.851427 -110.717463 
L 541.626171 -110.020547 
L 538.400916 -109.471093 
L 535.17566 -109.059594 
L 532.711808 -108.830723 
L 529.486552 -108.61057 
L 527.511535 -108.522452 
L 524.286279 -108.419803 
L 522.221758 -108.38253 
L 519.626078 -108.349988 
L 517.402158 -108.335188 
L 515.178239 -108.326223 
L 512.345762 -108.320662 
L 509.813044 -108.318429 
L 507.280327 -108.317413 
L 504.76391 -108.317005 
L 501.538655 -108.316838 
L 498.313399 -108.316787 
L 495.088143 -108.316774 
L 491.862887 -108.31677 
L 489.307481 -108.31677 
L 486.082225 -108.316769 
L 484.105325 -108.316769 
L 480.880069 -108.316769 
L 479.373286 -108.316769 
L 476.14803 -108.316769 
L 474.923224 -108.316769 
L 472.49254 -108.316769 
L 471.507206 -108.316769 
L 469.387984 -108.316769 
L 468.601537 -108.316769 
L 466.842445 -108.316769 
L 466.417294 -108.316769 
L 466.043424 -108.316769 
L 465.591422 -108.316769 
L 465.141464 -108.316769 
L 464.604154 -108.316769 
L 463.959849 -108.316769 
L 463.241047 -108.316769 
L 462.522245 -108.316769 
L 461.711614 -108.316769 
L 460.900984 -108.316769 
L 459.927257 -108.316769 
L 458.95353 -108.316769 
L 457.834916 -108.316769 
L 456.722357 -108.316769 
L 455.183614 -108.316769 
L 454.107841 -108.316769 
L 452.682944 -108.316769 
L 451.634336 -108.316769 
L 450.142388 -108.316769 
L 449.10342 -108.316769 
L 447.733081 -108.316769 
L 446.723015 -108.316769 
L 445.27658 -108.316769 
L 444.258273 -108.316769 
L 442.915946 -108.316769 
L 441.920837 -108.316769 
L 440.474667 -108.316769 
L 439.472115 -108.316769 
L 438.14549 -108.316769 
L 437.181769 -108.316769 
L 435.646598 -108.316769 
L 434.664122 -108.316769 
L 433.267859 -108.316769 
L 432.316687 -108.316769 
L 430.913043 -108.316769 
L 430.004576 -108.316769 
L 428.599148 -108.316769 
L 427.748442 -108.316769 
L 426.33371 -108.316769 
L 425.555116 -108.316769 
L 424.164304 -108.316769 
L 423.481393 -108.316769 
L 422.045561 -108.316769 
L 421.466185 -108.316769 
L 420.205586 -108.316769 
L 419.836622 -108.316769 
L 419.213366 -108.316769 
L 419.060015 -108.316769 
L 418.811118 -108.316769 
L 418.774744 -108.316769 
L 418.771107 -108.316769 
L 418.770743 -108.316769 
z
" style="stroke: #808080; stroke-opacity: 0.2"/>
    </defs>
    <g clip-path="url(#p61f0378637)">
     <use xlink:href="#m7e571b799c" x="0" y="360" style="fill: #808080; fill-opacity: 0.2; stroke: #808080; stroke-opacity: 0.2"/>
    </g>
   </g>
   <g id="line2d_32">
    <path d="M 418.770743 196.79228 
L 469.387984 196.720684 
L 472.49254 196.581535 
L 476.14803 196.133888 
L 479.373286 195.205671 
L 480.880069 194.514352 
L 484.105325 192.261572 
L 486.082225 190.313021 
L 489.307481 186.19582 
L 491.862887 182.27776 
L 501.538655 165.856467 
L 504.76391 160.85374 
L 507.280327 157.297297 
L 509.813044 154.053386 
L 512.345762 151.151592 
L 515.178239 148.304598 
L 517.402158 146.350703 
L 519.626078 144.63257 
L 522.221758 142.907914 
L 524.286279 141.737304 
L 527.511535 140.23765 
L 529.486552 139.500726 
L 532.711808 138.565408 
L 535.17566 138.053796 
L 538.400916 137.619223 
L 541.626171 137.419668 
L 544.851427 137.423398 
L 548.076683 137.601538 
L 551.301939 137.928042 
L 557.752451 138.935611 
L 564.202962 140.290718 
L 570.653474 141.87565 
L 580.329242 144.503612 
L 599.680777 150.084938 
L 622.257568 156.546988 
L 641.169405 161.721098 
L 657.295684 165.905276 
L 673.421963 169.845052 
L 689.548242 173.511017 
L 702.449266 176.229572 
L 709.04377 177.5419 
L 709.04377 177.5419 
" clip-path="url(#p61f0378637)" style="fill: none; stroke: #808080; stroke-width: 1.5; stroke-linecap: square"/>
   </g>
   <g id="line2d_33">
    <path d="M 418.770743 251.683231 
L 524.286279 251.622862 
L 532.711808 251.343951 
L 538.400916 250.851097 
L 541.626171 250.405407 
L 544.851427 249.818877 
L 548.076683 249.084811 
L 551.301939 248.206744 
L 557.752451 246.081868 
L 564.202962 243.630478 
L 577.103986 238.579362 
L 583.554497 236.268851 
L 590.005009 234.191276 
L 596.455521 232.357927 
L 602.906033 230.756747 
L 609.356544 229.364801 
L 615.807056 228.155857 
L 625.101972 226.684794 
L 635.338166 225.364663 
L 644.39466 224.404149 
L 657.295684 223.296939 
L 670.196707 222.42634 
L 686.322986 221.585858 
L 705.674522 220.841969 
L 709.04377 220.735438 
L 709.04377 220.735438 
" clip-path="url(#p61f0378637)" style="fill: none; stroke-dasharray: 5.55,2.4; stroke-dashoffset: 0; stroke: #808080; stroke-width: 1.5"/>
   </g>
  </g>
  <g id="text_35">
   <!-- Volunteer 1 -->
   <g transform="translate(290.98125 25.43625) scale(0.24 -0.24)">
    <defs>
     <path id="DejaVuSans-6e" d="M 3513 2113 
L 3513 0 
L 2938 0 
L 2938 2094 
Q 2938 2591 2744 2837 
Q 2550 3084 2163 3084 
Q 1697 3084 1428 2787 
Q 1159 2491 1159 1978 
L 1159 0 
L 581 0 
L 581 3500 
L 1159 3500 
L 1159 2956 
Q 1366 3272 1645 3428 
Q 1925 3584 2291 3584 
Q 2894 3584 3203 3211 
Q 3513 2838 3513 2113 
z
" transform="scale(0.015625)"/>
     <path id="DejaVuSans-74" d="M 1172 4494 
L 1172 3500 
L 2356 3500 
L 2356 3053 
L 1172 3053 
L 1172 1153 
Q 1172 725 1289 603 
Q 1406 481 1766 481 
L 2356 481 
L 2356 0 
L 1766 0 
Q 1100 0 847 248 
Q 594 497 594 1153 
L 594 3053 
L 172 3053 
L 172 3500 
L 594 3500 
L 594 4494 
L 1172 4494 
z
" transform="scale(0.015625)"/>
    </defs>
    <use xlink:href="#DejaVuSans-56"/>
    <use xlink:href="#DejaVuSans-6f" x="60.658203"/>
    <use xlink:href="#DejaVuSans-6c" x="121.839844"/>
    <use xlink:href="#DejaVuSans-75" x="149.623047"/>
    <use xlink:href="#DejaVuSans-6e" x="213.001953"/>
    <use xlink:href="#DejaVuSans-74" x="276.380859"/>
    <use xlink:href="#DejaVuSans-65" x="315.589844"/>
    <use xlink:href="#DejaVuSans-65" x="377.113281"/>
    <use xlink:href="#DejaVuSans-72" x="438.636719"/>
    <use xlink:href="#DejaVuSans-20" x="479.75"/>
    <use xlink:href="#DejaVuSans-31" x="511.537109"/>
   </g>
  </g>
 </g>
 <defs>
  <clipPath id="p57597a1eb5">
   <rect x="57.08" y="72" width="296.723538" height="228.04"/>
  </clipPath>
  <clipPath id="p61f0378637">
   <rect x="415.545487" y="72" width="296.723538" height="228.04"/>
  </clipPath>
 </defs>
</svg>
