<?xml version="1.0" encoding="utf-8" standalone="no"?>
<!DOCTYPE svg PUBLIC "-//W3C//DTD SVG 1.1//EN"
  "http://www.w3.org/Graphics/SVG/1.1/DTD/svg11.dtd">
<svg xmlns:xlink="http://www.w3.org/1999/xlink" width="1440pt" height="360pt" viewBox="0 0 1440 360" xmlns="http://www.w3.org/2000/svg" version="1.1">
 <metadata>
  <rdf:RDF xmlns:dc="http://purl.org/dc/elements/1.1/" xmlns:cc="http://creativecommons.org/ns#" xmlns:rdf="http://www.w3.org/1999/02/22-rdf-syntax-ns#">
   <cc:Work>
    <dc:type rdf:resource="http://purl.org/dc/dcmitype/StillImage"/>
    <dc:date>2025-01-12T17:09:16.484153</dc:date>
    <dc:format>image/svg+xml</dc:format>
    <dc:creator>
     <cc:Agent>
      <dc:title>Matplotlib v3.9.2, https://matplotlib.org/</dc:title>
     </cc:Agent>
    </dc:creator>
   </cc:Work>
  </rdf:RDF>
 </metadata>
 <defs>
  <style type="text/css">*{stroke-linejoin: round; stroke-linecap: butt}</style>
 </defs>
 <g id="figure_1">
  <g id="patch_1">
   <path d="M 0 360 
L 1440 360 
L 1440 0 
L 0 0 
z
" style="fill: #ffffff"/>
  </g>
  <g id="axes_1">
   <g id="patch_2">
    <path d="M 59.96 297.16 
L 340.567439 297.16 
L 340.567439 36 
L 59.96 36 
z
" style="fill: #ffffff"/>
   </g>
   <g id="matplotlib.axis_1">
    <g id="xtick_1">
     <g id="line2d_1">
      <defs>
       <path id="m91db1a5036" d="M 0 0 
L 0 3.5 
" style="stroke: #000000; stroke-width: 0.8"/>
      </defs>
      <g>
       <use xlink:href="#m91db1a5036" x="63.010081" y="297.16" style="stroke: #000000; stroke-width: 0.8"/>
      </g>
     </g>
     <g id="text_1">
      <!-- 0 -->
      <g transform="translate(57.283831 317.837188) scale(0.18 -0.18)">
       <defs>
        <path id="DejaVuSans-30" d="M 2034 4250 
Q 1547 4250 1301 3770 
Q 1056 3291 1056 2328 
Q 1056 1369 1301 889 
Q 1547 409 2034 409 
Q 2525 409 2770 889 
Q 3016 1369 3016 2328 
Q 3016 3291 2770 3770 
Q 2525 4250 2034 4250 
z
M 2034 4750 
Q 2819 4750 3233 4129 
Q 3647 3509 3647 2328 
Q 3647 1150 3233 529 
Q 2819 -91 2034 -91 
Q 1250 -91 836 529 
Q 422 1150 422 2328 
Q 422 3509 836 4129 
Q 1250 4750 2034 4750 
z
" transform="scale(0.015625)"/>
       </defs>
       <use xlink:href="#DejaVuSans-30"/>
      </g>
     </g>
    </g>
    <g id="xtick_2">
     <g id="line2d_2">
      <g>
       <use xlink:href="#m91db1a5036" x="93.510889" y="297.16" style="stroke: #000000; stroke-width: 0.8"/>
      </g>
     </g>
     <g id="text_2">
      <!-- 1 -->
      <g transform="translate(87.784639 317.837188) scale(0.18 -0.18)">
       <defs>
        <path id="DejaVuSans-31" d="M 794 531 
L 1825 531 
L 1825 4091 
L 703 3866 
L 703 4441 
L 1819 4666 
L 2450 4666 
L 2450 531 
L 3481 531 
L 3481 0 
L 794 0 
L 794 531 
z
" transform="scale(0.015625)"/>
       </defs>
       <use xlink:href="#DejaVuSans-31"/>
      </g>
     </g>
    </g>
    <g id="xtick_3">
     <g id="line2d_3">
      <g>
       <use xlink:href="#m91db1a5036" x="124.011698" y="297.16" style="stroke: #000000; stroke-width: 0.8"/>
      </g>
     </g>
     <g id="text_3">
      <!-- 2 -->
      <g transform="translate(118.285448 317.837188) scale(0.18 -0.18)">
       <defs>
        <path id="DejaVuSans-32" d="M 1228 531 
L 3431 531 
L 3431 0 
L 469 0 
L 469 531 
Q 828 903 1448 1529 
Q 2069 2156 2228 2338 
Q 2531 2678 2651 2914 
Q 2772 3150 2772 3378 
Q 2772 3750 2511 3984 
Q 2250 4219 1831 4219 
Q 1534 4219 1204 4116 
Q 875 4013 500 3803 
L 500 4441 
Q 881 4594 1212 4672 
Q 1544 4750 1819 4750 
Q 2544 4750 2975 4387 
Q 3406 4025 3406 3419 
Q 3406 3131 3298 2873 
Q 3191 2616 2906 2266 
Q 2828 2175 2409 1742 
Q 1991 1309 1228 531 
z
" transform="scale(0.015625)"/>
       </defs>
       <use xlink:href="#DejaVuSans-32"/>
      </g>
     </g>
    </g>
    <g id="xtick_4">
     <g id="line2d_4">
      <g>
       <use xlink:href="#m91db1a5036" x="154.512507" y="297.16" style="stroke: #000000; stroke-width: 0.8"/>
      </g>
     </g>
     <g id="text_4">
      <!-- 3 -->
      <g transform="translate(148.786257 317.837188) scale(0.18 -0.18)">
       <defs>
        <path id="DejaVuSans-33" d="M 2597 2516 
Q 3050 2419 3304 2112 
Q 3559 1806 3559 1356 
Q 3559 666 3084 287 
Q 2609 -91 1734 -91 
Q 1441 -91 1130 -33 
Q 819 25 488 141 
L 488 750 
Q 750 597 1062 519 
Q 1375 441 1716 441 
Q 2309 441 2620 675 
Q 2931 909 2931 1356 
Q 2931 1769 2642 2001 
Q 2353 2234 1838 2234 
L 1294 2234 
L 1294 2753 
L 1863 2753 
Q 2328 2753 2575 2939 
Q 2822 3125 2822 3475 
Q 2822 3834 2567 4026 
Q 2313 4219 1838 4219 
Q 1578 4219 1281 4162 
Q 984 4106 628 3988 
L 628 4550 
Q 988 4650 1302 4700 
Q 1616 4750 1894 4750 
Q 2613 4750 3031 4423 
Q 3450 4097 3450 3541 
Q 3450 3153 3228 2886 
Q 3006 2619 2597 2516 
z
" transform="scale(0.015625)"/>
       </defs>
       <use xlink:href="#DejaVuSans-33"/>
      </g>
     </g>
    </g>
    <g id="xtick_5">
     <g id="line2d_5">
      <g>
       <use xlink:href="#m91db1a5036" x="185.013315" y="297.16" style="stroke: #000000; stroke-width: 0.8"/>
      </g>
     </g>
     <g id="text_5">
      <!-- 4 -->
      <g transform="translate(179.287065 317.837188) scale(0.18 -0.18)">
       <defs>
        <path id="DejaVuSans-34" d="M 2419 4116 
L 825 1625 
L 2419 1625 
L 2419 4116 
z
M 2253 4666 
L 3047 4666 
L 3047 1625 
L 3713 1625 
L 3713 1100 
L 3047 1100 
L 3047 0 
L 2419 0 
L 2419 1100 
L 313 1100 
L 313 1709 
L 2253 4666 
z
" transform="scale(0.015625)"/>
       </defs>
       <use xlink:href="#DejaVuSans-34"/>
      </g>
     </g>
    </g>
    <g id="xtick_6">
     <g id="line2d_6">
      <g>
       <use xlink:href="#m91db1a5036" x="215.514124" y="297.16" style="stroke: #000000; stroke-width: 0.8"/>
      </g>
     </g>
     <g id="text_6">
      <!-- 5 -->
      <g transform="translate(209.787874 317.837188) scale(0.18 -0.18)">
       <defs>
        <path id="DejaVuSans-35" d="M 691 4666 
L 3169 4666 
L 3169 4134 
L 1269 4134 
L 1269 2991 
Q 1406 3038 1543 3061 
Q 1681 3084 1819 3084 
Q 2600 3084 3056 2656 
Q 3513 2228 3513 1497 
Q 3513 744 3044 326 
Q 2575 -91 1722 -91 
Q 1428 -91 1123 -41 
Q 819 9 494 109 
L 494 744 
Q 775 591 1075 516 
Q 1375 441 1709 441 
Q 2250 441 2565 725 
Q 2881 1009 2881 1497 
Q 2881 1984 2565 2268 
Q 2250 2553 1709 2553 
Q 1456 2553 1204 2497 
Q 953 2441 691 2322 
L 691 4666 
z
" transform="scale(0.015625)"/>
       </defs>
       <use xlink:href="#DejaVuSans-35"/>
      </g>
     </g>
    </g>
    <g id="xtick_7">
     <g id="line2d_7">
      <g>
       <use xlink:href="#m91db1a5036" x="246.014932" y="297.16" style="stroke: #000000; stroke-width: 0.8"/>
      </g>
     </g>
     <g id="text_7">
      <!-- 6 -->
      <g transform="translate(240.288682 317.837188) scale(0.18 -0.18)">
       <defs>
        <path id="DejaVuSans-36" d="M 2113 2584 
Q 1688 2584 1439 2293 
Q 1191 2003 1191 1497 
Q 1191 994 1439 701 
Q 1688 409 2113 409 
Q 2538 409 2786 701 
Q 3034 994 3034 1497 
Q 3034 2003 2786 2293 
Q 2538 2584 2113 2584 
z
M 3366 4563 
L 3366 3988 
Q 3128 4100 2886 4159 
Q 2644 4219 2406 4219 
Q 1781 4219 1451 3797 
Q 1122 3375 1075 2522 
Q 1259 2794 1537 2939 
Q 1816 3084 2150 3084 
Q 2853 3084 3261 2657 
Q 3669 2231 3669 1497 
Q 3669 778 3244 343 
Q 2819 -91 2113 -91 
Q 1303 -91 875 529 
Q 447 1150 447 2328 
Q 447 3434 972 4092 
Q 1497 4750 2381 4750 
Q 2619 4750 2861 4703 
Q 3103 4656 3366 4563 
z
" transform="scale(0.015625)"/>
       </defs>
       <use xlink:href="#DejaVuSans-36"/>
      </g>
     </g>
    </g>
    <g id="xtick_8">
     <g id="line2d_8">
      <g>
       <use xlink:href="#m91db1a5036" x="276.515741" y="297.16" style="stroke: #000000; stroke-width: 0.8"/>
      </g>
     </g>
     <g id="text_8">
      <!-- 7 -->
      <g transform="translate(270.789491 317.837188) scale(0.18 -0.18)">
       <defs>
        <path id="DejaVuSans-37" d="M 525 4666 
L 3525 4666 
L 3525 4397 
L 1831 0 
L 1172 0 
L 2766 4134 
L 525 4134 
L 525 4666 
z
" transform="scale(0.015625)"/>
       </defs>
       <use xlink:href="#DejaVuSans-37"/>
      </g>
     </g>
    </g>
    <g id="xtick_9">
     <g id="line2d_9">
      <g>
       <use xlink:href="#m91db1a5036" x="307.01655" y="297.16" style="stroke: #000000; stroke-width: 0.8"/>
      </g>
     </g>
     <g id="text_9">
      <!-- 8 -->
      <g transform="translate(301.2903 317.837188) scale(0.18 -0.18)">
       <defs>
        <path id="DejaVuSans-38" d="M 2034 2216 
Q 1584 2216 1326 1975 
Q 1069 1734 1069 1313 
Q 1069 891 1326 650 
Q 1584 409 2034 409 
Q 2484 409 2743 651 
Q 3003 894 3003 1313 
Q 3003 1734 2745 1975 
Q 2488 2216 2034 2216 
z
M 1403 2484 
Q 997 2584 770 2862 
Q 544 3141 544 3541 
Q 544 4100 942 4425 
Q 1341 4750 2034 4750 
Q 2731 4750 3128 4425 
Q 3525 4100 3525 3541 
Q 3525 3141 3298 2862 
Q 3072 2584 2669 2484 
Q 3125 2378 3379 2068 
Q 3634 1759 3634 1313 
Q 3634 634 3220 271 
Q 2806 -91 2034 -91 
Q 1263 -91 848 271 
Q 434 634 434 1313 
Q 434 1759 690 2068 
Q 947 2378 1403 2484 
z
M 1172 3481 
Q 1172 3119 1398 2916 
Q 1625 2713 2034 2713 
Q 2441 2713 2670 2916 
Q 2900 3119 2900 3481 
Q 2900 3844 2670 4047 
Q 2441 4250 2034 4250 
Q 1625 4250 1398 4047 
Q 1172 3844 1172 3481 
z
" transform="scale(0.015625)"/>
       </defs>
       <use xlink:href="#DejaVuSans-38"/>
      </g>
     </g>
    </g>
    <g id="xtick_10">
     <g id="line2d_10">
      <g>
       <use xlink:href="#m91db1a5036" x="337.517358" y="297.16" style="stroke: #000000; stroke-width: 0.8"/>
      </g>
     </g>
     <g id="text_10">
      <!-- 9 -->
      <g transform="translate(331.791108 317.837188) scale(0.18 -0.18)">
       <defs>
        <path id="DejaVuSans-39" d="M 703 97 
L 703 672 
Q 941 559 1184 500 
Q 1428 441 1663 441 
Q 2288 441 2617 861 
Q 2947 1281 2994 2138 
Q 2813 1869 2534 1725 
Q 2256 1581 1919 1581 
Q 1219 1581 811 2004 
Q 403 2428 403 3163 
Q 403 3881 828 4315 
Q 1253 4750 1959 4750 
Q 2769 4750 3195 4129 
Q 3622 3509 3622 2328 
Q 3622 1225 3098 567 
Q 2575 -91 1691 -91 
Q 1453 -91 1209 -44 
Q 966 3 703 97 
z
M 1959 2075 
Q 2384 2075 2632 2365 
Q 2881 2656 2881 3163 
Q 2881 3666 2632 3958 
Q 2384 4250 1959 4250 
Q 1534 4250 1286 3958 
Q 1038 3666 1038 3163 
Q 1038 2656 1286 2365 
Q 1534 2075 1959 2075 
z
" transform="scale(0.015625)"/>
       </defs>
       <use xlink:href="#DejaVuSans-39"/>
      </g>
     </g>
    </g>
    <g id="text_11">
     <!-- Time (d) -->
     <g transform="translate(150.10747 343.816875) scale(0.24 -0.24)">
      <defs>
       <path id="DejaVuSans-54" d="M -19 4666 
L 3928 4666 
L 3928 4134 
L 2272 4134 
L 2272 0 
L 1638 0 
L 1638 4134 
L -19 4134 
L -19 4666 
z
" transform="scale(0.015625)"/>
       <path id="DejaVuSans-69" d="M 603 3500 
L 1178 3500 
L 1178 0 
L 603 0 
L 603 3500 
z
M 603 4863 
L 1178 4863 
L 1178 4134 
L 603 4134 
L 603 4863 
z
" transform="scale(0.015625)"/>
       <path id="DejaVuSans-6d" d="M 3328 2828 
Q 3544 3216 3844 3400 
Q 4144 3584 4550 3584 
Q 5097 3584 5394 3201 
Q 5691 2819 5691 2113 
L 5691 0 
L 5113 0 
L 5113 2094 
Q 5113 2597 4934 2840 
Q 4756 3084 4391 3084 
Q 3944 3084 3684 2787 
Q 3425 2491 3425 1978 
L 3425 0 
L 2847 0 
L 2847 2094 
Q 2847 2600 2669 2842 
Q 2491 3084 2119 3084 
Q 1678 3084 1418 2786 
Q 1159 2488 1159 1978 
L 1159 0 
L 581 0 
L 581 3500 
L 1159 3500 
L 1159 2956 
Q 1356 3278 1631 3431 
Q 1906 3584 2284 3584 
Q 2666 3584 2933 3390 
Q 3200 3197 3328 2828 
z
" transform="scale(0.015625)"/>
       <path id="DejaVuSans-65" d="M 3597 1894 
L 3597 1613 
L 953 1613 
Q 991 1019 1311 708 
Q 1631 397 2203 397 
Q 2534 397 2845 478 
Q 3156 559 3463 722 
L 3463 178 
Q 3153 47 2828 -22 
Q 2503 -91 2169 -91 
Q 1331 -91 842 396 
Q 353 884 353 1716 
Q 353 2575 817 3079 
Q 1281 3584 2069 3584 
Q 2775 3584 3186 3129 
Q 3597 2675 3597 1894 
z
M 3022 2063 
Q 3016 2534 2758 2815 
Q 2500 3097 2075 3097 
Q 1594 3097 1305 2825 
Q 1016 2553 972 2059 
L 3022 2063 
z
" transform="scale(0.015625)"/>
       <path id="DejaVuSans-20" transform="scale(0.015625)"/>
       <path id="DejaVuSans-28" d="M 1984 4856 
Q 1566 4138 1362 3434 
Q 1159 2731 1159 2009 
Q 1159 1288 1364 580 
Q 1569 -128 1984 -844 
L 1484 -844 
Q 1016 -109 783 600 
Q 550 1309 550 2009 
Q 550 2706 781 3412 
Q 1013 4119 1484 4856 
L 1984 4856 
z
" transform="scale(0.015625)"/>
       <path id="DejaVuSans-64" d="M 2906 2969 
L 2906 4863 
L 3481 4863 
L 3481 0 
L 2906 0 
L 2906 525 
Q 2725 213 2448 61 
Q 2172 -91 1784 -91 
Q 1150 -91 751 415 
Q 353 922 353 1747 
Q 353 2572 751 3078 
Q 1150 3584 1784 3584 
Q 2172 3584 2448 3432 
Q 2725 3281 2906 2969 
z
M 947 1747 
Q 947 1113 1208 752 
Q 1469 391 1925 391 
Q 2381 391 2643 752 
Q 2906 1113 2906 1747 
Q 2906 2381 2643 2742 
Q 2381 3103 1925 3103 
Q 1469 3103 1208 2742 
Q 947 2381 947 1747 
z
" transform="scale(0.015625)"/>
       <path id="DejaVuSans-29" d="M 513 4856 
L 1013 4856 
Q 1481 4119 1714 3412 
Q 1947 2706 1947 2009 
Q 1947 1309 1714 600 
Q 1481 -109 1013 -844 
L 513 -844 
Q 928 -128 1133 580 
Q 1338 1288 1338 2009 
Q 1338 2731 1133 3434 
Q 928 4138 513 4856 
z
" transform="scale(0.015625)"/>
      </defs>
      <use xlink:href="#DejaVuSans-54"/>
      <use xlink:href="#DejaVuSans-69" x="57.958984"/>
      <use xlink:href="#DejaVuSans-6d" x="85.742188"/>
      <use xlink:href="#DejaVuSans-65" x="183.154297"/>
      <use xlink:href="#DejaVuSans-20" x="244.677734"/>
      <use xlink:href="#DejaVuSans-28" x="276.464844"/>
      <use xlink:href="#DejaVuSans-64" x="315.478516"/>
      <use xlink:href="#DejaVuSans-29" x="378.955078"/>
     </g>
    </g>
   </g>
   <g id="matplotlib.axis_2">
    <g id="ytick_1">
     <g id="line2d_11">
      <defs>
       <path id="m06877c0e77" d="M 0 0 
L -3.5 0 
" style="stroke: #000000; stroke-width: 0.8"/>
      </defs>
      <g>
       <use xlink:href="#m06877c0e77" x="59.96" y="297.16" style="stroke: #000000; stroke-width: 0.8"/>
      </g>
     </g>
     <g id="text_12">
      <!-- 0 -->
      <g transform="translate(41.5075 303.998594) scale(0.18 -0.18)">
       <use xlink:href="#DejaVuSans-30"/>
      </g>
     </g>
    </g>
    <g id="ytick_2">
     <g id="line2d_12">
      <g>
       <use xlink:href="#m06877c0e77" x="59.96" y="231.87" style="stroke: #000000; stroke-width: 0.8"/>
      </g>
     </g>
     <g id="text_13">
      <!-- 2 -->
      <g transform="translate(41.5075 238.708594) scale(0.18 -0.18)">
       <use xlink:href="#DejaVuSans-32"/>
      </g>
     </g>
    </g>
    <g id="ytick_3">
     <g id="line2d_13">
      <g>
       <use xlink:href="#m06877c0e77" x="59.96" y="166.58" style="stroke: #000000; stroke-width: 0.8"/>
      </g>
     </g>
     <g id="text_14">
      <!-- 4 -->
      <g transform="translate(41.5075 173.418594) scale(0.18 -0.18)">
       <use xlink:href="#DejaVuSans-34"/>
      </g>
     </g>
    </g>
    <g id="ytick_4">
     <g id="line2d_14">
      <g>
       <use xlink:href="#m06877c0e77" x="59.96" y="101.29" style="stroke: #000000; stroke-width: 0.8"/>
      </g>
     </g>
     <g id="text_15">
      <!-- 6 -->
      <g transform="translate(41.5075 108.128594) scale(0.18 -0.18)">
       <use xlink:href="#DejaVuSans-36"/>
      </g>
     </g>
    </g>
    <g id="ytick_5">
     <g id="line2d_15">
      <g>
       <use xlink:href="#m06877c0e77" x="59.96" y="36" style="stroke: #000000; stroke-width: 0.8"/>
      </g>
     </g>
     <g id="text_16">
      <!-- 8 -->
      <g transform="translate(41.5075 42.838594) scale(0.18 -0.18)">
       <use xlink:href="#DejaVuSans-38"/>
      </g>
     </g>
    </g>
    <g id="text_17">
     <!-- Virus (log$_{10}$ copies/mL) -->
     <g transform="translate(32.4675 304.34) rotate(-90) scale(0.24 -0.24)">
      <defs>
       <path id="DejaVuSans-56" d="M 1831 0 
L 50 4666 
L 709 4666 
L 2188 738 
L 3669 4666 
L 4325 4666 
L 2547 0 
L 1831 0 
z
" transform="scale(0.015625)"/>
       <path id="DejaVuSans-72" d="M 2631 2963 
Q 2534 3019 2420 3045 
Q 2306 3072 2169 3072 
Q 1681 3072 1420 2755 
Q 1159 2438 1159 1844 
L 1159 0 
L 581 0 
L 581 3500 
L 1159 3500 
L 1159 2956 
Q 1341 3275 1631 3429 
Q 1922 3584 2338 3584 
Q 2397 3584 2469 3576 
Q 2541 3569 2628 3553 
L 2631 2963 
z
" transform="scale(0.015625)"/>
       <path id="DejaVuSans-75" d="M 544 1381 
L 544 3500 
L 1119 3500 
L 1119 1403 
Q 1119 906 1312 657 
Q 1506 409 1894 409 
Q 2359 409 2629 706 
Q 2900 1003 2900 1516 
L 2900 3500 
L 3475 3500 
L 3475 0 
L 2900 0 
L 2900 538 
Q 2691 219 2414 64 
Q 2138 -91 1772 -91 
Q 1169 -91 856 284 
Q 544 659 544 1381 
z
M 1991 3584 
L 1991 3584 
z
" transform="scale(0.015625)"/>
       <path id="DejaVuSans-73" d="M 2834 3397 
L 2834 2853 
Q 2591 2978 2328 3040 
Q 2066 3103 1784 3103 
Q 1356 3103 1142 2972 
Q 928 2841 928 2578 
Q 928 2378 1081 2264 
Q 1234 2150 1697 2047 
L 1894 2003 
Q 2506 1872 2764 1633 
Q 3022 1394 3022 966 
Q 3022 478 2636 193 
Q 2250 -91 1575 -91 
Q 1294 -91 989 -36 
Q 684 19 347 128 
L 347 722 
Q 666 556 975 473 
Q 1284 391 1588 391 
Q 1994 391 2212 530 
Q 2431 669 2431 922 
Q 2431 1156 2273 1281 
Q 2116 1406 1581 1522 
L 1381 1569 
Q 847 1681 609 1914 
Q 372 2147 372 2553 
Q 372 3047 722 3315 
Q 1072 3584 1716 3584 
Q 2034 3584 2315 3537 
Q 2597 3491 2834 3397 
z
" transform="scale(0.015625)"/>
       <path id="DejaVuSans-6c" d="M 603 4863 
L 1178 4863 
L 1178 0 
L 603 0 
L 603 4863 
z
" transform="scale(0.015625)"/>
       <path id="DejaVuSans-6f" d="M 1959 3097 
Q 1497 3097 1228 2736 
Q 959 2375 959 1747 
Q 959 1119 1226 758 
Q 1494 397 1959 397 
Q 2419 397 2687 759 
Q 2956 1122 2956 1747 
Q 2956 2369 2687 2733 
Q 2419 3097 1959 3097 
z
M 1959 3584 
Q 2709 3584 3137 3096 
Q 3566 2609 3566 1747 
Q 3566 888 3137 398 
Q 2709 -91 1959 -91 
Q 1206 -91 779 398 
Q 353 888 353 1747 
Q 353 2609 779 3096 
Q 1206 3584 1959 3584 
z
" transform="scale(0.015625)"/>
       <path id="DejaVuSans-67" d="M 2906 1791 
Q 2906 2416 2648 2759 
Q 2391 3103 1925 3103 
Q 1463 3103 1205 2759 
Q 947 2416 947 1791 
Q 947 1169 1205 825 
Q 1463 481 1925 481 
Q 2391 481 2648 825 
Q 2906 1169 2906 1791 
z
M 3481 434 
Q 3481 -459 3084 -895 
Q 2688 -1331 1869 -1331 
Q 1566 -1331 1297 -1286 
Q 1028 -1241 775 -1147 
L 775 -588 
Q 1028 -725 1275 -790 
Q 1522 -856 1778 -856 
Q 2344 -856 2625 -561 
Q 2906 -266 2906 331 
L 2906 616 
Q 2728 306 2450 153 
Q 2172 0 1784 0 
Q 1141 0 747 490 
Q 353 981 353 1791 
Q 353 2603 747 3093 
Q 1141 3584 1784 3584 
Q 2172 3584 2450 3431 
Q 2728 3278 2906 2969 
L 2906 3500 
L 3481 3500 
L 3481 434 
z
" transform="scale(0.015625)"/>
       <path id="DejaVuSans-63" d="M 3122 3366 
L 3122 2828 
Q 2878 2963 2633 3030 
Q 2388 3097 2138 3097 
Q 1578 3097 1268 2742 
Q 959 2388 959 1747 
Q 959 1106 1268 751 
Q 1578 397 2138 397 
Q 2388 397 2633 464 
Q 2878 531 3122 666 
L 3122 134 
Q 2881 22 2623 -34 
Q 2366 -91 2075 -91 
Q 1284 -91 818 406 
Q 353 903 353 1747 
Q 353 2603 823 3093 
Q 1294 3584 2113 3584 
Q 2378 3584 2631 3529 
Q 2884 3475 3122 3366 
z
" transform="scale(0.015625)"/>
       <path id="DejaVuSans-70" d="M 1159 525 
L 1159 -1331 
L 581 -1331 
L 581 3500 
L 1159 3500 
L 1159 2969 
Q 1341 3281 1617 3432 
Q 1894 3584 2278 3584 
Q 2916 3584 3314 3078 
Q 3713 2572 3713 1747 
Q 3713 922 3314 415 
Q 2916 -91 2278 -91 
Q 1894 -91 1617 61 
Q 1341 213 1159 525 
z
M 3116 1747 
Q 3116 2381 2855 2742 
Q 2594 3103 2138 3103 
Q 1681 3103 1420 2742 
Q 1159 2381 1159 1747 
Q 1159 1113 1420 752 
Q 1681 391 2138 391 
Q 2594 391 2855 752 
Q 3116 1113 3116 1747 
z
" transform="scale(0.015625)"/>
       <path id="DejaVuSans-2f" d="M 1625 4666 
L 2156 4666 
L 531 -594 
L 0 -594 
L 1625 4666 
z
" transform="scale(0.015625)"/>
       <path id="DejaVuSans-4c" d="M 628 4666 
L 1259 4666 
L 1259 531 
L 3531 531 
L 3531 0 
L 628 0 
L 628 4666 
z
" transform="scale(0.015625)"/>
      </defs>
      <use xlink:href="#DejaVuSans-56" transform="translate(0 0.015625)"/>
      <use xlink:href="#DejaVuSans-69" transform="translate(68.408203 0.015625)"/>
      <use xlink:href="#DejaVuSans-72" transform="translate(96.191406 0.015625)"/>
      <use xlink:href="#DejaVuSans-75" transform="translate(137.304688 0.015625)"/>
      <use xlink:href="#DejaVuSans-73" transform="translate(200.683594 0.015625)"/>
      <use xlink:href="#DejaVuSans-20" transform="translate(252.783203 0.015625)"/>
      <use xlink:href="#DejaVuSans-28" transform="translate(284.570312 0.015625)"/>
      <use xlink:href="#DejaVuSans-6c" transform="translate(323.583984 0.015625)"/>
      <use xlink:href="#DejaVuSans-6f" transform="translate(351.367188 0.015625)"/>
      <use xlink:href="#DejaVuSans-67" transform="translate(412.548828 0.015625)"/>
      <use xlink:href="#DejaVuSans-31" transform="translate(476.982422 -16.390625) scale(0.7)"/>
      <use xlink:href="#DejaVuSans-30" transform="translate(521.518555 -16.390625) scale(0.7)"/>
      <use xlink:href="#DejaVuSans-20" transform="translate(568.789062 0.015625)"/>
      <use xlink:href="#DejaVuSans-63" transform="translate(600.576172 0.015625)"/>
      <use xlink:href="#DejaVuSans-6f" transform="translate(655.556641 0.015625)"/>
      <use xlink:href="#DejaVuSans-70" transform="translate(716.738281 0.015625)"/>
      <use xlink:href="#DejaVuSans-69" transform="translate(780.214844 0.015625)"/>
      <use xlink:href="#DejaVuSans-65" transform="translate(807.998047 0.015625)"/>
      <use xlink:href="#DejaVuSans-73" transform="translate(869.521484 0.015625)"/>
      <use xlink:href="#DejaVuSans-2f" transform="translate(921.621094 0.015625)"/>
      <use xlink:href="#DejaVuSans-6d" transform="translate(955.3125 0.015625)"/>
      <use xlink:href="#DejaVuSans-4c" transform="translate(1052.724609 0.015625)"/>
      <use xlink:href="#DejaVuSans-29" transform="translate(1108.4375 0.015625)"/>
     </g>
    </g>
   </g>
   <g id="patch_3">
    <path d="M 59.96 297.16 
L 59.96 36 
" style="fill: none; stroke: #000000; stroke-width: 0.8; stroke-linejoin: miter; stroke-linecap: square"/>
   </g>
   <g id="patch_4">
    <path d="M 340.567439 297.16 
L 340.567439 36 
" style="fill: none; stroke: #000000; stroke-width: 0.8; stroke-linejoin: miter; stroke-linecap: square"/>
   </g>
   <g id="patch_5">
    <path d="M 59.96 297.16 
L 340.567439 297.16 
" style="fill: none; stroke: #000000; stroke-width: 0.8; stroke-linejoin: miter; stroke-linecap: square"/>
   </g>
   <g id="patch_6">
    <path d="M 59.96 36 
L 340.567439 36 
" style="fill: none; stroke: #000000; stroke-width: 0.8; stroke-linejoin: miter; stroke-linecap: square"/>
   </g>
   <g id="PolyCollection_1">
    <defs>
     <path id="m255671cd0b" d="M 63.010081 -62.84 
L 63.010081 -62.84 
L 63.010468 -62.84 
L 63.014343 -62.84 
L 63.053088 -62.84 
L 63.135676 -62.84 
L 63.258487 -62.84 
L 63.554835 -62.84 
L 64.080658 -62.84 
L 64.679673 -62.84 
L 65.396326 -62.84 
L 66.675347 -62.84 
L 67.579188 -62.84 
L 69.223177 -68.364947 
L 70.197155 -72.864976 
L 71.77384 -80.485015 
L 72.815969 -85.461237 
L 74.413738 -93.016437 
L 75.500591 -98.134411 
L 77.083376 -105.6129 
L 78.204836 -110.89548 
L 79.940377 -119.108885 
L 81.041168 -124.298513 
L 82.550019 -131.416663 
L 83.692459 -136.797883 
L 85.332574 -144.542513 
L 86.464814 -149.877746 
L 87.982348 -157.02569 
L 89.138273 -162.462525 
L 90.765637 -170.116475 
L 91.90561 -175.464452 
L 93.419165 -182.532126 
L 94.581678 -187.936634 
L 96.205712 -195.415495 
L 97.362892 -200.688423 
L 98.928966 -207.646844 
L 100.117765 -212.797696 
L 101.815254 -219.728433 
L 103.005873 -224.323459 
L 104.61298 -229.814042 
L 105.83388 -233.546928 
L 107.583258 -237.824683 
L 108.834106 -240.3766 
L 110.412363 -242.743788 
L 111.631137 -244.200827 
L 113.080403 -245.422309 
L 114.278982 -246.062841 
L 115.536095 -246.560305 
L 116.793209 -246.919799 
L 117.902625 -247.146173 
L 119.012041 -247.300745 
L 119.842118 -247.378735 
L 120.652855 -247.425706 
L 121.330577 -247.446824 
L 122.036178 -247.451885 
L 122.59943 -247.445873 
L 123.109732 -247.432533 
L 123.620034 -247.41233 
L 124.0347 -247.391698 
L 124.503748 -247.363113 
L 125.844328 -247.255043 
L 126.448596 -247.199062 
L 128.030774 -247.018124 
L 128.843336 -246.914541 
L 131.263524 -246.558747 
L 132.447645 -246.364217 
L 135.091699 -245.895296 
L 136.382137 -245.650741 
L 139.083201 -245.116014 
L 140.81126 -244.759269 
L 143.476644 -244.193065 
L 145.190047 -243.819781 
L 148.240128 -243.141236 
L 150.599455 -242.606019 
L 153.649536 -241.900261 
L 156.699617 -241.142317 
L 159.749698 -240.318836 
L 162.799779 -239.482316 
L 165.84986 -238.629926 
L 168.89994 -237.759289 
L 171.950021 -236.867645 
L 175.000102 -235.952 
L 178.050183 -235.009259 
L 181.100264 -234.036346 
L 184.150345 -233.030293 
L 187.200426 -231.988317 
L 190.250506 -230.907863 
L 193.300587 -229.786635 
L 196.350668 -228.622601 
L 199.400749 -227.413981 
L 202.45083 -226.159221 
L 205.500911 -224.856956 
L 208.550992 -223.505962 
L 211.601073 -222.105092 
L 214.651153 -220.653216 
L 217.701234 -219.149145 
L 220.751315 -217.591551 
L 223.801396 -215.978875 
L 226.851477 -214.309221 
L 229.901558 -212.580237 
L 232.951639 -210.788973 
L 236.001719 -208.931702 
L 239.0518 -207.003699 
L 242.101881 -204.998952 
L 245.151962 -202.909777 
L 248.202043 -200.72629 
L 251.252124 -198.435655 
L 254.302205 -196.020988 
L 257.352285 -193.459693 
L 260.402366 -190.720842 
L 263.452447 -187.760808 
L 266.502528 -184.515598 
L 269.552609 -180.886219 
L 272.60269 -176.707778 
L 275.652771 -171.673597 
L 278.702851 -163.365754 
L 281.752932 -141.040811 
L 284.803013 -62.84 
L 284.849629 -62.84 
L 284.96617 -62.84 
L 285.08891 -62.84 
L 285.119595 -62.84 
L 285.145365 -62.84 
L 285.193549 -62.84 
L 285.217772 -62.84 
L 285.227969 -62.84 
L 285.237498 -62.84 
L 285.264461 -62.84 
L 285.285369 -62.84 
L 285.29601 -62.84 
L 285.308406 -62.84 
L 285.345774 -62.84 
L 285.383385 -62.84 
L 285.475169 -62.84 
L 285.545837 -62.84 
L 285.708842 -62.84 
L 285.871847 -62.84 
L 286.916137 -62.84 
L 288.542832 -62.84 
L 290.413314 -62.84 
L 293.050514 -62.84 
L 295.687714 -62.84 
L 298.737795 -62.84 
L 301.787875 -62.84 
L 304.837956 -62.84 
L 307.888037 -62.84 
L 310.938118 -62.84 
L 313.988199 -62.84 
L 317.03828 -62.84 
L 320.088361 -62.84 
L 323.138441 -62.84 
L 326.188522 -62.84 
L 329.238603 -62.84 
L 332.288684 -62.84 
L 335.338765 -62.84 
L 337.517358 -62.84 
L 337.517358 -62.84 
L 337.517358 -62.84 
L 335.338765 -62.84 
L 332.288684 -62.84 
L 329.238603 -62.84 
L 326.188522 -62.84 
L 323.138441 -62.84 
L 320.088361 -62.84 
L 317.03828 -62.84 
L 313.988199 -62.84 
L 310.938118 -62.84 
L 307.888037 -62.84 
L 304.837956 -62.84 
L 301.787875 -62.84 
L 298.737795 -62.84 
L 295.687714 -62.84 
L 293.050514 -62.84 
L 290.413314 -62.84 
L 288.542832 -134.549266 
L 286.916137 -146.115548 
L 285.871847 -153.503448 
L 285.708842 -154.001822 
L 285.545837 -154.500196 
L 285.475169 -154.716256 
L 285.383385 -154.996878 
L 285.345774 -155.166493 
L 285.308406 -155.438599 
L 285.29601 -155.528869 
L 285.285369 -155.606357 
L 285.264461 -155.758607 
L 285.237498 -155.954953 
L 285.227969 -156.024338 
L 285.217772 -156.098597 
L 285.193549 -156.274988 
L 285.145365 -156.625859 
L 285.119595 -156.813512 
L 285.08891 -157.036959 
L 284.96617 -157.46863 
L 284.849629 -157.823489 
L 284.803013 -157.965433 
L 281.752932 -166.981644 
L 278.702851 -173.107454 
L 275.652771 -177.895841 
L 272.60269 -181.908819 
L 269.552609 -185.414374 
L 266.502528 -188.714066 
L 263.452447 -192.074022 
L 260.402366 -195.192873 
L 257.352285 -198.025685 
L 254.302205 -200.634526 
L 251.252124 -203.061818 
L 248.202043 -205.337717 
L 245.151962 -207.48432 
L 242.101881 -209.518217 
L 239.0518 -211.452113 
L 236.001719 -213.295899 
L 232.951639 -215.057392 
L 229.901558 -216.742854 
L 226.851477 -218.357377 
L 223.801396 -219.905161 
L 220.751315 -221.389739 
L 217.701234 -222.814146 
L 214.651153 -224.181058 
L 211.601073 -225.492906 
L 208.550992 -226.780793 
L 205.500911 -228.061331 
L 202.45083 -229.293504 
L 199.400749 -230.479214 
L 196.350668 -231.620484 
L 193.300587 -232.719499 
L 190.250506 -233.778621 
L 187.200426 -234.800401 
L 184.150345 -235.787572 
L 181.100264 -236.743021 
L 178.050183 -237.669751 
L 175.000102 -238.570824 
L 171.950021 -239.449282 
L 168.89994 -240.315096 
L 165.84986 -241.191592 
L 162.799779 -242.046068 
L 159.749698 -242.881332 
L 156.699617 -243.699798 
L 153.649536 -244.503295 
L 150.599455 -245.292843 
L 148.240128 -245.895282 
L 145.190047 -246.657853 
L 143.476644 -247.08099 
L 140.81126 -247.722037 
L 139.083201 -248.131041 
L 136.382137 -248.745295 
L 135.091699 -249.031692 
L 132.447645 -249.582456 
L 131.263524 -249.819527 
L 128.843336 -250.256608 
L 128.030774 -250.394248 
L 126.448596 -250.636653 
L 125.844328 -250.718411 
L 124.503748 -250.884699 
L 124.0347 -250.931661 
L 123.620034 -250.973178 
L 123.109732 -251.020547 
L 122.59943 -251.059742 
L 122.036178 -251.095624 
L 121.330577 -251.128864 
L 120.652855 -251.146573 
L 119.842118 -251.14958 
L 119.012041 -251.127728 
L 117.902625 -251.058752 
L 116.793209 -250.926878 
L 115.536095 -250.684261 
L 114.278982 -250.331888 
L 113.080403 -249.865232 
L 111.631137 -249.049284 
L 110.412363 -248.152452 
L 108.834106 -246.46436 
L 107.583258 -244.752294 
L 105.83388 -241.83895 
L 104.61298 -239.410053 
L 103.005873 -235.09423 
L 101.815254 -231.368425 
L 100.117765 -224.972634 
L 98.928966 -220.099958 
L 97.362892 -213.079749 
L 96.205712 -207.684503 
L 94.581678 -199.824818 
L 93.419165 -194.101504 
L 91.90561 -186.555489 
L 90.765637 -180.831548 
L 89.138273 -172.612528 
L 87.982348 -166.756737 
L 86.464814 -159.063323 
L 85.332574 -153.317983 
L 83.692459 -144.976791 
L 82.550019 -139.16928 
L 81.041168 -131.499517 
L 79.940377 -125.909969 
L 78.204836 -117.059553 
L 77.083376 -111.508161 
L 75.500591 -103.669647 
L 74.413738 -98.304225 
L 72.815969 -90.38609 
L 71.77384 -85.239689 
L 70.197155 -77.406896 
L 69.223177 -72.565976 
L 67.579188 -64.166938 
L 66.675347 -62.913586 
L 65.396326 -62.84 
L 64.679673 -62.84 
L 64.080658 -62.84 
L 63.554835 -62.84 
L 63.258487 -62.84 
L 63.135676 -62.84 
L 63.053088 -62.84 
L 63.014343 -62.84 
L 63.010468 -62.84 
L 63.010081 -62.84 
z
" style="stroke: #808080; stroke-opacity: 0.2"/>
    </defs>
    <g clip-path="url(#p85c3f92b6b)">
     <use xlink:href="#m255671cd0b" x="0" y="360" style="fill: #808080; fill-opacity: 0.2; stroke: #808080; stroke-opacity: 0.2"/>
    </g>
   </g>
   <g id="PathCollection_1">
    <defs>
     <path id="m3d3d6afa3b" d="M 0 4.330127 
C 1.148363 4.330127 2.249847 3.873878 3.061862 3.061862 
C 3.873878 2.249847 4.330127 1.148363 4.330127 0 
C 4.330127 -1.148363 3.873878 -2.249847 3.061862 -3.061862 
C 2.249847 -3.873878 1.148363 -4.330127 0 -4.330127 
C -1.148363 -4.330127 -2.249847 -3.873878 -3.061862 -3.061862 
C -3.873878 -2.249847 -4.330127 -1.148363 -4.330127 0 
C -4.330127 1.148363 -3.873878 2.249847 -3.061862 3.061862 
C -2.249847 3.873878 -1.148363 4.330127 0 4.330127 
z
" style="stroke: #808080; stroke-opacity: 0.8"/>
    </defs>
    <g clip-path="url(#p85c3f92b6b)">
     <use xlink:href="#m3d3d6afa3b" x="63.010081" y="297.16" style="fill: #808080; fill-opacity: 0.8; stroke: #808080; stroke-opacity: 0.8"/>
     <use xlink:href="#m3d3d6afa3b" x="93.510889" y="172.32779" style="fill: #808080; fill-opacity: 0.8; stroke: #808080; stroke-opacity: 0.8"/>
     <use xlink:href="#m3d3d6afa3b" x="124.011698" y="121.045953" style="fill: #808080; fill-opacity: 0.8; stroke: #808080; stroke-opacity: 0.8"/>
     <use xlink:href="#m3d3d6afa3b" x="154.512507" y="105.488849" style="fill: #808080; fill-opacity: 0.8; stroke: #808080; stroke-opacity: 0.8"/>
     <use xlink:href="#m3d3d6afa3b" x="185.013315" y="129.942802" style="fill: #808080; fill-opacity: 0.8; stroke: #808080; stroke-opacity: 0.8"/>
     <use xlink:href="#m3d3d6afa3b" x="215.514124" y="161.338566" style="fill: #808080; fill-opacity: 0.8; stroke: #808080; stroke-opacity: 0.8"/>
     <use xlink:href="#m3d3d6afa3b" x="246.014932" y="127.510628" style="fill: #808080; fill-opacity: 0.8; stroke: #808080; stroke-opacity: 0.8"/>
     <use xlink:href="#m3d3d6afa3b" x="276.515741" y="217.071423" style="fill: #808080; fill-opacity: 0.8; stroke: #808080; stroke-opacity: 0.8"/>
    </g>
   </g>
   <g id="line2d_16">
    <path d="M 63.010081 297.16 
L 67.579188 297.16 
L 69.223177 290.529669 
L 90.765637 185.804213 
L 97.362892 154.509041 
L 100.117765 142.344142 
L 103.005873 131.175212 
L 104.61298 126.056579 
L 105.83388 122.791968 
L 107.583258 119.086829 
L 108.834106 117.06997 
L 110.412363 115.159103 
L 111.631137 114.068185 
L 113.080403 113.103581 
L 114.278982 112.516838 
L 115.536095 112.059364 
L 117.902625 111.523949 
L 120.652855 111.273436 
L 123.620034 111.295162 
L 126.448596 111.501371 
L 131.263524 112.112022 
L 136.382137 112.973493 
L 145.190047 114.707359 
L 156.699617 117.210402 
L 165.84986 119.37069 
L 175.000102 121.752252 
L 184.150345 124.440082 
L 190.250506 126.437413 
L 196.350668 128.616018 
L 202.45083 130.984605 
L 208.550992 133.548291 
L 214.651153 136.310652 
L 220.751315 139.276114 
L 226.851477 142.452667 
L 232.951639 145.855102 
L 239.0518 149.509361 
L 245.151962 153.459164 
L 251.252124 157.777502 
L 254.302205 160.110804 
L 257.352285 162.589191 
L 260.402366 165.244472 
L 263.452447 168.121542 
L 266.502528 171.28632 
L 269.552609 174.84088 
L 272.60269 178.955288 
L 275.652771 183.94483 
L 278.702851 190.502343 
L 281.752932 200.729902 
L 284.803013 234.116887 
L 284.96617 242.559141 
L 285.193549 272.621642 
L 285.383385 297.16 
L 337.517358 297.16 
L 337.517358 297.16 
" clip-path="url(#p85c3f92b6b)" style="fill: none; stroke: #808080; stroke-width: 1.5; stroke-linecap: square"/>
   </g>
  </g>
  <g id="axes_2">
   <g id="patch_7">
    <path d="M 422.83752 297.16 
L 703.444959 297.16 
L 703.444959 36 
L 422.83752 36 
z
" style="fill: #ffffff"/>
   </g>
   <g id="matplotlib.axis_3">
    <g id="xtick_11">
     <g id="line2d_17">
      <g>
       <use xlink:href="#m91db1a5036" x="425.887601" y="297.16" style="stroke: #000000; stroke-width: 0.8"/>
      </g>
     </g>
     <g id="text_18">
      <!-- 0 -->
      <g transform="translate(420.161351 317.837188) scale(0.18 -0.18)">
       <use xlink:href="#DejaVuSans-30"/>
      </g>
     </g>
    </g>
    <g id="xtick_12">
     <g id="line2d_18">
      <g>
       <use xlink:href="#m91db1a5036" x="456.38841" y="297.16" style="stroke: #000000; stroke-width: 0.8"/>
      </g>
     </g>
     <g id="text_19">
      <!-- 1 -->
      <g transform="translate(450.66216 317.837188) scale(0.18 -0.18)">
       <use xlink:href="#DejaVuSans-31"/>
      </g>
     </g>
    </g>
    <g id="xtick_13">
     <g id="line2d_19">
      <g>
       <use xlink:href="#m91db1a5036" x="486.889218" y="297.16" style="stroke: #000000; stroke-width: 0.8"/>
      </g>
     </g>
     <g id="text_20">
      <!-- 2 -->
      <g transform="translate(481.162968 317.837188) scale(0.18 -0.18)">
       <use xlink:href="#DejaVuSans-32"/>
      </g>
     </g>
    </g>
    <g id="xtick_14">
     <g id="line2d_20">
      <g>
       <use xlink:href="#m91db1a5036" x="517.390027" y="297.16" style="stroke: #000000; stroke-width: 0.8"/>
      </g>
     </g>
     <g id="text_21">
      <!-- 3 -->
      <g transform="translate(511.663777 317.837188) scale(0.18 -0.18)">
       <use xlink:href="#DejaVuSans-33"/>
      </g>
     </g>
    </g>
    <g id="xtick_15">
     <g id="line2d_21">
      <g>
       <use xlink:href="#m91db1a5036" x="547.890836" y="297.16" style="stroke: #000000; stroke-width: 0.8"/>
      </g>
     </g>
     <g id="text_22">
      <!-- 4 -->
      <g transform="translate(542.164586 317.837188) scale(0.18 -0.18)">
       <use xlink:href="#DejaVuSans-34"/>
      </g>
     </g>
    </g>
    <g id="xtick_16">
     <g id="line2d_22">
      <g>
       <use xlink:href="#m91db1a5036" x="578.391644" y="297.16" style="stroke: #000000; stroke-width: 0.8"/>
      </g>
     </g>
     <g id="text_23">
      <!-- 5 -->
      <g transform="translate(572.665394 317.837188) scale(0.18 -0.18)">
       <use xlink:href="#DejaVuSans-35"/>
      </g>
     </g>
    </g>
    <g id="xtick_17">
     <g id="line2d_23">
      <g>
       <use xlink:href="#m91db1a5036" x="608.892453" y="297.16" style="stroke: #000000; stroke-width: 0.8"/>
      </g>
     </g>
     <g id="text_24">
      <!-- 6 -->
      <g transform="translate(603.166203 317.837188) scale(0.18 -0.18)">
       <use xlink:href="#DejaVuSans-36"/>
      </g>
     </g>
    </g>
    <g id="xtick_18">
     <g id="line2d_24">
      <g>
       <use xlink:href="#m91db1a5036" x="639.393261" y="297.16" style="stroke: #000000; stroke-width: 0.8"/>
      </g>
     </g>
     <g id="text_25">
      <!-- 7 -->
      <g transform="translate(633.667011 317.837188) scale(0.18 -0.18)">
       <use xlink:href="#DejaVuSans-37"/>
      </g>
     </g>
    </g>
    <g id="xtick_19">
     <g id="line2d_25">
      <g>
       <use xlink:href="#m91db1a5036" x="669.89407" y="297.16" style="stroke: #000000; stroke-width: 0.8"/>
      </g>
     </g>
     <g id="text_26">
      <!-- 8 -->
      <g transform="translate(664.16782 317.837188) scale(0.18 -0.18)">
       <use xlink:href="#DejaVuSans-38"/>
      </g>
     </g>
    </g>
    <g id="xtick_20">
     <g id="line2d_26">
      <g>
       <use xlink:href="#m91db1a5036" x="700.394878" y="297.16" style="stroke: #000000; stroke-width: 0.8"/>
      </g>
     </g>
     <g id="text_27">
      <!-- 9 -->
      <g transform="translate(694.668628 317.837188) scale(0.18 -0.18)">
       <use xlink:href="#DejaVuSans-39"/>
      </g>
     </g>
    </g>
    <g id="text_28">
     <!-- Time (d) -->
     <g transform="translate(512.98499 343.816875) scale(0.24 -0.24)">
      <use xlink:href="#DejaVuSans-54"/>
      <use xlink:href="#DejaVuSans-69" x="57.958984"/>
      <use xlink:href="#DejaVuSans-6d" x="85.742188"/>
      <use xlink:href="#DejaVuSans-65" x="183.154297"/>
      <use xlink:href="#DejaVuSans-20" x="244.677734"/>
      <use xlink:href="#DejaVuSans-28" x="276.464844"/>
      <use xlink:href="#DejaVuSans-64" x="315.478516"/>
      <use xlink:href="#DejaVuSans-29" x="378.955078"/>
     </g>
    </g>
   </g>
   <g id="matplotlib.axis_4">
    <g id="ytick_6">
     <g id="line2d_27">
      <g>
       <use xlink:href="#m06877c0e77" x="422.83752" y="297.16" style="stroke: #000000; stroke-width: 0.8"/>
      </g>
     </g>
     <g id="text_29">
      <!-- 4.0 -->
      <g transform="translate(387.211895 303.998594) scale(0.18 -0.18)">
       <defs>
        <path id="DejaVuSans-2e" d="M 684 794 
L 1344 794 
L 1344 0 
L 684 0 
L 684 794 
z
" transform="scale(0.015625)"/>
       </defs>
       <use xlink:href="#DejaVuSans-34"/>
       <use xlink:href="#DejaVuSans-2e" x="63.623047"/>
       <use xlink:href="#DejaVuSans-30" x="95.410156"/>
      </g>
     </g>
    </g>
    <g id="ytick_7">
     <g id="line2d_28">
      <g>
       <use xlink:href="#m06877c0e77" x="422.83752" y="259.851429" style="stroke: #000000; stroke-width: 0.8"/>
      </g>
     </g>
     <g id="text_30">
      <!-- 4.5 -->
      <g transform="translate(387.211895 266.690022) scale(0.18 -0.18)">
       <use xlink:href="#DejaVuSans-34"/>
       <use xlink:href="#DejaVuSans-2e" x="63.623047"/>
       <use xlink:href="#DejaVuSans-35" x="95.410156"/>
      </g>
     </g>
    </g>
    <g id="ytick_8">
     <g id="line2d_29">
      <g>
       <use xlink:href="#m06877c0e77" x="422.83752" y="222.542857" style="stroke: #000000; stroke-width: 0.8"/>
      </g>
     </g>
     <g id="text_31">
      <!-- 5.0 -->
      <g transform="translate(387.211895 229.381451) scale(0.18 -0.18)">
       <use xlink:href="#DejaVuSans-35"/>
       <use xlink:href="#DejaVuSans-2e" x="63.623047"/>
       <use xlink:href="#DejaVuSans-30" x="95.410156"/>
      </g>
     </g>
    </g>
    <g id="ytick_9">
     <g id="line2d_30">
      <g>
       <use xlink:href="#m06877c0e77" x="422.83752" y="185.234286" style="stroke: #000000; stroke-width: 0.8"/>
      </g>
     </g>
     <g id="text_32">
      <!-- 5.5 -->
      <g transform="translate(387.211895 192.072879) scale(0.18 -0.18)">
       <use xlink:href="#DejaVuSans-35"/>
       <use xlink:href="#DejaVuSans-2e" x="63.623047"/>
       <use xlink:href="#DejaVuSans-35" x="95.410156"/>
      </g>
     </g>
    </g>
    <g id="ytick_10">
     <g id="line2d_31">
      <g>
       <use xlink:href="#m06877c0e77" x="422.83752" y="147.925714" style="stroke: #000000; stroke-width: 0.8"/>
      </g>
     </g>
     <g id="text_33">
      <!-- 6.0 -->
      <g transform="translate(387.211895 154.764308) scale(0.18 -0.18)">
       <use xlink:href="#DejaVuSans-36"/>
       <use xlink:href="#DejaVuSans-2e" x="63.623047"/>
       <use xlink:href="#DejaVuSans-30" x="95.410156"/>
      </g>
     </g>
    </g>
    <g id="ytick_11">
     <g id="line2d_32">
      <g>
       <use xlink:href="#m06877c0e77" x="422.83752" y="110.617143" style="stroke: #000000; stroke-width: 0.8"/>
      </g>
     </g>
     <g id="text_34">
      <!-- 6.5 -->
      <g transform="translate(387.211895 117.455737) scale(0.18 -0.18)">
       <use xlink:href="#DejaVuSans-36"/>
       <use xlink:href="#DejaVuSans-2e" x="63.623047"/>
       <use xlink:href="#DejaVuSans-35" x="95.410156"/>
      </g>
     </g>
    </g>
    <g id="ytick_12">
     <g id="line2d_33">
      <g>
       <use xlink:href="#m06877c0e77" x="422.83752" y="73.308571" style="stroke: #000000; stroke-width: 0.8"/>
      </g>
     </g>
     <g id="text_35">
      <!-- 7.0 -->
      <g transform="translate(387.211895 80.147165) scale(0.18 -0.18)">
       <use xlink:href="#DejaVuSans-37"/>
       <use xlink:href="#DejaVuSans-2e" x="63.623047"/>
       <use xlink:href="#DejaVuSans-30" x="95.410156"/>
      </g>
     </g>
    </g>
    <g id="ytick_13">
     <g id="line2d_34">
      <g>
       <use xlink:href="#m06877c0e77" x="422.83752" y="36" style="stroke: #000000; stroke-width: 0.8"/>
      </g>
     </g>
     <g id="text_36">
      <!-- 7.5 -->
      <g transform="translate(387.211895 42.838594) scale(0.18 -0.18)">
       <use xlink:href="#DejaVuSans-37"/>
       <use xlink:href="#DejaVuSans-2e" x="63.623047"/>
       <use xlink:href="#DejaVuSans-35" x="95.410156"/>
      </g>
     </g>
    </g>
    <g id="text_37">
     <!-- CD8$^+$ TE (log$_{10}$ cells) -->
     <g transform="translate(378.171895 294.74) rotate(-90) scale(0.24 -0.24)">
      <defs>
       <path id="DejaVuSans-43" d="M 4122 4306 
L 4122 3641 
Q 3803 3938 3442 4084 
Q 3081 4231 2675 4231 
Q 1875 4231 1450 3742 
Q 1025 3253 1025 2328 
Q 1025 1406 1450 917 
Q 1875 428 2675 428 
Q 3081 428 3442 575 
Q 3803 722 4122 1019 
L 4122 359 
Q 3791 134 3420 21 
Q 3050 -91 2638 -91 
Q 1578 -91 968 557 
Q 359 1206 359 2328 
Q 359 3453 968 4101 
Q 1578 4750 2638 4750 
Q 3056 4750 3426 4639 
Q 3797 4528 4122 4306 
z
" transform="scale(0.015625)"/>
       <path id="DejaVuSans-44" d="M 1259 4147 
L 1259 519 
L 2022 519 
Q 2988 519 3436 956 
Q 3884 1394 3884 2338 
Q 3884 3275 3436 3711 
Q 2988 4147 2022 4147 
L 1259 4147 
z
M 628 4666 
L 1925 4666 
Q 3281 4666 3915 4102 
Q 4550 3538 4550 2338 
Q 4550 1131 3912 565 
Q 3275 0 1925 0 
L 628 0 
L 628 4666 
z
" transform="scale(0.015625)"/>
       <path id="DejaVuSans-2b" d="M 2944 4013 
L 2944 2272 
L 4684 2272 
L 4684 1741 
L 2944 1741 
L 2944 0 
L 2419 0 
L 2419 1741 
L 678 1741 
L 678 2272 
L 2419 2272 
L 2419 4013 
L 2944 4013 
z
" transform="scale(0.015625)"/>
       <path id="DejaVuSans-45" d="M 628 4666 
L 3578 4666 
L 3578 4134 
L 1259 4134 
L 1259 2753 
L 3481 2753 
L 3481 2222 
L 1259 2222 
L 1259 531 
L 3634 531 
L 3634 0 
L 628 0 
L 628 4666 
z
" transform="scale(0.015625)"/>
      </defs>
      <use xlink:href="#DejaVuSans-43" transform="translate(0 0.826562)"/>
      <use xlink:href="#DejaVuSans-44" transform="translate(69.824219 0.826562)"/>
      <use xlink:href="#DejaVuSans-38" transform="translate(146.826172 0.826562)"/>
      <use xlink:href="#DejaVuSans-2b" transform="translate(225.043945 39.107812) scale(0.7)"/>
      <use xlink:href="#DejaVuSans-20" transform="translate(300.068359 0.826562)"/>
      <use xlink:href="#DejaVuSans-54" transform="translate(331.855469 0.826562)"/>
      <use xlink:href="#DejaVuSans-45" transform="translate(392.939453 0.826562)"/>
      <use xlink:href="#DejaVuSans-20" transform="translate(456.123047 0.826562)"/>
      <use xlink:href="#DejaVuSans-28" transform="translate(487.910156 0.826562)"/>
      <use xlink:href="#DejaVuSans-6c" transform="translate(526.923828 0.826562)"/>
      <use xlink:href="#DejaVuSans-6f" transform="translate(554.707031 0.826562)"/>
      <use xlink:href="#DejaVuSans-67" transform="translate(615.888672 0.826562)"/>
      <use xlink:href="#DejaVuSans-31" transform="translate(680.322266 -15.579688) scale(0.7)"/>
      <use xlink:href="#DejaVuSans-30" transform="translate(724.858398 -15.579688) scale(0.7)"/>
      <use xlink:href="#DejaVuSans-20" transform="translate(772.128906 0.826562)"/>
      <use xlink:href="#DejaVuSans-63" transform="translate(803.916016 0.826562)"/>
      <use xlink:href="#DejaVuSans-65" transform="translate(858.896484 0.826562)"/>
      <use xlink:href="#DejaVuSans-6c" transform="translate(920.419922 0.826562)"/>
      <use xlink:href="#DejaVuSans-6c" transform="translate(948.203125 0.826562)"/>
      <use xlink:href="#DejaVuSans-73" transform="translate(975.986328 0.826562)"/>
      <use xlink:href="#DejaVuSans-29" transform="translate(1028.085938 0.826562)"/>
     </g>
    </g>
   </g>
   <g id="patch_8">
    <path d="M 422.83752 297.16 
L 422.83752 36 
" style="fill: none; stroke: #000000; stroke-width: 0.8; stroke-linejoin: miter; stroke-linecap: square"/>
   </g>
   <g id="patch_9">
    <path d="M 703.444959 297.16 
L 703.444959 36 
" style="fill: none; stroke: #000000; stroke-width: 0.8; stroke-linejoin: miter; stroke-linecap: square"/>
   </g>
   <g id="patch_10">
    <path d="M 422.83752 297.16 
L 703.444959 297.16 
" style="fill: none; stroke: #000000; stroke-width: 0.8; stroke-linejoin: miter; stroke-linecap: square"/>
   </g>
   <g id="patch_11">
    <path d="M 422.83752 36 
L 703.444959 36 
" style="fill: none; stroke: #000000; stroke-width: 0.8; stroke-linejoin: miter; stroke-linecap: square"/>
   </g>
   <g id="PolyCollection_2">
    <defs>
     <path id="mc0eb9592e6" d="M 425.887601 -138.474456 
L 425.887601 -138.474456 
L 425.887989 -138.474456 
L 425.891863 -138.474456 
L 425.930608 -138.474456 
L 426.013197 -138.474456 
L 426.136007 -138.474456 
L 426.432355 -138.474456 
L 426.958178 -138.474456 
L 427.557194 -138.474456 
L 428.273846 -138.474456 
L 429.552867 -138.474456 
L 430.456709 -138.474456 
L 432.100697 -138.474456 
L 433.074675 -138.474456 
L 434.65136 -138.474456 
L 435.693489 -138.474456 
L 437.291259 -138.474456 
L 438.378111 -138.474456 
L 439.960896 -138.474456 
L 441.082356 -138.474456 
L 442.817897 -138.474456 
L 443.918688 -138.474456 
L 445.42754 -138.474456 
L 446.569979 -138.474456 
L 448.210094 -138.474456 
L 449.342334 -138.474456 
L 450.859869 -138.474456 
L 452.015793 -138.474456 
L 453.643157 -138.474456 
L 454.78313 -138.474456 
L 456.296685 -138.474457 
L 457.459198 -138.474458 
L 459.083233 -138.474459 
L 460.240412 -138.474461 
L 461.806486 -138.474465 
L 462.995286 -138.47447 
L 464.692774 -138.474482 
L 465.883394 -138.474498 
L 467.4905 -138.47453 
L 468.7114 -138.474576 
L 470.460778 -138.474674 
L 471.711626 -138.474803 
L 473.289883 -138.475062 
L 474.508657 -138.475385 
L 475.957923 -138.476015 
L 477.156502 -138.476822 
L 478.413616 -138.47809 
L 479.670729 -138.480021 
L 480.780145 -138.482505 
L 481.889561 -138.486066 
L 482.719638 -138.489656 
L 483.530376 -138.494268 
L 484.208098 -138.499391 
L 484.913698 -138.505121 
L 485.47695 -138.511255 
L 485.987252 -138.517798 
L 486.497554 -138.524341 
L 486.91222 -138.531108 
L 487.381269 -138.53996 
L 488.721849 -138.5712 
L 489.326116 -138.589536 
L 490.908294 -138.662623 
L 491.720857 -138.705818 
L 494.141045 -138.894627 
L 495.325166 -139.041091 
L 497.969219 -139.504555 
L 499.259657 -139.8541 
L 501.960721 -140.749651 
L 503.68878 -141.676618 
L 506.354164 -143.348067 
L 508.067567 -144.897592 
L 511.117648 -148.070791 
L 513.476976 -151.186724 
L 516.527057 -155.86854 
L 519.577137 -161.058735 
L 522.627218 -166.652109 
L 525.677299 -172.357226 
L 528.72738 -178.015848 
L 531.777461 -183.473105 
L 534.827542 -188.627594 
L 537.877623 -193.413922 
L 540.927703 -197.794301 
L 543.977784 -201.750909 
L 547.027865 -205.279777 
L 550.077946 -208.386233 
L 553.128027 -211.081641 
L 556.178108 -213.381131 
L 559.228189 -215.30204 
L 562.278269 -216.86287 
L 565.32835 -218.08259 
L 568.378431 -217.877938 
L 571.428512 -217.356698 
L 574.478593 -216.587141 
L 577.528674 -215.592623 
L 580.578755 -214.395368 
L 583.628835 -213.016499 
L 586.678916 -211.476073 
L 589.728997 -209.793121 
L 592.779078 -207.985678 
L 595.829159 -206.070817 
L 598.87924 -204.064681 
L 601.929321 -201.982508 
L 604.979401 -199.838658 
L 608.029482 -197.646639 
L 611.079563 -195.41913 
L 614.129644 -193.168003 
L 617.179725 -190.904347 
L 620.229806 -188.442361 
L 623.279887 -185.95638 
L 626.329967 -183.487964 
L 629.380048 -181.047502 
L 632.430129 -178.644715 
L 635.48021 -176.288625 
L 638.530291 -173.987517 
L 641.580372 -171.748908 
L 644.630453 -169.579509 
L 647.680533 -167.485197 
L 647.72715 -167.453605 
L 647.843691 -167.374624 
L 647.966431 -167.291441 
L 647.997116 -167.270646 
L 648.022885 -167.253181 
L 648.071069 -167.220527 
L 648.095292 -167.20411 
L 648.10549 -167.197199 
L 648.115018 -167.190742 
L 648.141981 -167.172468 
L 648.162889 -167.158299 
L 648.17353 -167.151087 
L 648.185927 -167.142686 
L 648.223294 -167.117362 
L 648.260905 -167.091872 
L 648.352689 -167.029669 
L 648.423357 -166.981777 
L 648.586362 -166.871306 
L 648.749368 -166.760836 
L 649.793657 -166.080858 
L 651.420352 -165.022038 
L 653.290835 -163.835639 
L 655.928034 -162.228159 
L 658.565234 -160.681942 
L 661.615315 -158.988078 
L 664.665396 -157.379946 
L 667.715477 -155.864213 
L 670.765557 -154.439057 
L 673.815638 -153.104299 
L 676.865719 -151.85809 
L 679.9158 -150.698033 
L 682.965881 -149.621261 
L 686.015962 -148.624515 
L 689.066043 -147.704233 
L 692.116123 -146.856624 
L 695.166204 -146.077744 
L 698.216285 -145.363358 
L 700.394878 -144.885355 
L 700.394878 -150.510186 
L 700.394878 -150.510186 
L 698.216285 -151.207781 
L 695.166204 -152.236029 
L 692.116123 -153.328865 
L 689.066043 -154.488544 
L 686.015962 -155.735498 
L 682.965881 -157.231513 
L 679.9158 -158.815166 
L 676.865719 -160.485538 
L 673.815638 -162.240892 
L 670.765557 -164.078645 
L 667.715477 -165.995378 
L 664.665396 -167.986842 
L 661.615315 -170.047987 
L 658.565234 -172.173011 
L 655.928034 -174.058316 
L 653.290835 -175.981056 
L 651.420352 -177.362365 
L 649.793657 -178.576546 
L 648.749368 -179.363504 
L 648.586362 -179.486342 
L 648.423357 -179.60918 
L 648.352689 -179.662434 
L 648.260905 -179.731601 
L 648.223294 -179.759944 
L 648.185927 -179.788103 
L 648.17353 -179.797445 
L 648.162889 -179.805464 
L 648.141981 -179.82122 
L 648.115018 -179.841539 
L 648.10549 -179.848719 
L 648.095292 -179.856404 
L 648.071069 -179.874658 
L 648.022885 -179.910968 
L 647.997116 -179.930413 
L 647.966431 -179.9537 
L 647.843691 -180.046845 
L 647.72715 -180.135285 
L 647.680533 -180.170661 
L 644.630453 -182.495472 
L 641.580372 -184.841872 
L 638.530291 -187.198218 
L 635.48021 -189.555844 
L 632.430129 -191.904783 
L 629.380048 -194.277979 
L 626.329967 -196.721989 
L 623.279887 -199.139593 
L 620.229806 -201.519651 
L 617.179725 -203.850715 
L 614.129644 -206.121019 
L 611.079563 -208.318475 
L 608.029482 -210.430659 
L 604.979401 -212.444786 
L 601.929321 -214.347689 
L 598.87924 -216.125785 
L 595.829159 -217.91681 
L 592.779078 -219.737474 
L 589.728997 -221.411906 
L 586.678916 -222.923469 
L 583.628835 -224.25476 
L 580.578755 -225.387558 
L 577.528674 -226.302774 
L 574.478593 -226.98039 
L 571.428512 -227.399409 
L 568.378431 -227.537797 
L 565.32835 -227.372446 
L 562.278269 -226.879146 
L 559.228189 -226.032596 
L 556.178108 -224.806465 
L 553.128027 -223.236847 
L 550.077946 -221.986312 
L 547.027865 -220.307717 
L 543.977784 -218.168836 
L 540.927703 -215.537475 
L 537.877623 -212.382595 
L 534.827542 -208.676144 
L 531.777461 -204.395993 
L 528.72738 -199.530529 
L 525.677299 -194.085706 
L 522.627218 -188.095473 
L 519.577137 -181.637006 
L 516.527057 -174.844912 
L 513.476976 -167.931912 
L 511.117648 -162.692244 
L 508.067567 -156.33636 
L 506.354164 -153.124569 
L 503.68878 -148.694279 
L 501.960721 -146.411068 
L 499.259657 -143.409887 
L 497.969219 -142.455644 
L 495.325166 -140.721607 
L 494.141045 -140.229937 
L 491.720857 -139.426242 
L 490.908294 -139.252258 
L 489.326116 -138.992475 
L 488.721849 -138.906719 
L 487.381269 -138.775357 
L 486.91222 -138.735672 
L 486.497554 -138.704444 
L 485.987252 -138.671782 
L 485.47695 -138.64666 
L 484.913698 -138.618956 
L 484.208098 -138.590067 
L 483.530376 -138.569453 
L 482.719638 -138.547157 
L 481.889561 -138.530178 
L 480.780145 -138.513494 
L 479.670729 -138.501757 
L 478.413616 -138.492457 
L 477.156502 -138.486113 
L 475.957923 -138.48219 
L 474.508657 -138.479232 
L 473.289883 -138.477554 
L 471.711626 -138.476279 
L 470.460778 -138.475613 
L 468.7114 -138.475096 
L 467.4905 -138.474859 
L 465.883394 -138.474687 
L 464.692774 -138.474603 
L 462.995286 -138.474538 
L 461.806486 -138.474508 
L 460.240412 -138.474485 
L 459.083233 -138.474475 
L 457.459198 -138.474466 
L 456.296685 -138.474462 
L 454.78313 -138.47446 
L 453.643157 -138.474458 
L 452.015793 -138.474457 
L 450.859869 -138.474457 
L 449.342334 -138.474456 
L 448.210094 -138.474456 
L 446.569979 -138.474456 
L 445.42754 -138.474456 
L 443.918688 -138.474456 
L 442.817897 -138.474456 
L 441.082356 -138.474456 
L 439.960896 -138.474456 
L 438.378111 -138.474456 
L 437.291259 -138.474456 
L 435.693489 -138.474456 
L 434.65136 -138.474456 
L 433.074675 -138.474456 
L 432.100697 -138.474456 
L 430.456709 -138.474456 
L 429.552867 -138.474456 
L 428.273846 -138.474456 
L 427.557194 -138.474456 
L 426.958178 -138.474456 
L 426.432355 -138.474456 
L 426.136007 -138.474456 
L 426.013197 -138.474456 
L 425.930608 -138.474456 
L 425.891863 -138.474456 
L 425.887989 -138.474456 
L 425.887601 -138.474456 
z
" style="stroke: #808080; stroke-opacity: 0.2"/>
    </defs>
    <g clip-path="url(#p8d1b572acb)">
     <use xlink:href="#mc0eb9592e6" x="0" y="360" style="fill: #808080; fill-opacity: 0.2; stroke: #808080; stroke-opacity: 0.2"/>
    </g>
   </g>
   <g id="PathCollection_2">
    <g clip-path="url(#p8d1b572acb)">
     <use xlink:href="#m3d3d6afa3b" x="425.887601" y="221.525544" style="fill: #808080; fill-opacity: 0.8; stroke: #808080; stroke-opacity: 0.8"/>
     <use xlink:href="#m3d3d6afa3b" x="456.38841" y="178.085416" style="fill: #808080; fill-opacity: 0.8; stroke: #808080; stroke-opacity: 0.8"/>
     <use xlink:href="#m3d3d6afa3b" x="486.889218" y="188.020981" style="fill: #808080; fill-opacity: 0.8; stroke: #808080; stroke-opacity: 0.8"/>
     <use xlink:href="#m3d3d6afa3b" x="517.390027" y="191.063382" style="fill: #808080; fill-opacity: 0.8; stroke: #808080; stroke-opacity: 0.8"/>
     <use xlink:href="#m3d3d6afa3b" x="547.890836" y="152.316662" style="fill: #808080; fill-opacity: 0.8; stroke: #808080; stroke-opacity: 0.8"/>
     <use xlink:href="#m3d3d6afa3b" x="578.391644" y="143.362589" style="fill: #808080; fill-opacity: 0.8; stroke: #808080; stroke-opacity: 0.8"/>
     <use xlink:href="#m3d3d6afa3b" x="608.892453" y="154.097368" style="fill: #808080; fill-opacity: 0.8; stroke: #808080; stroke-opacity: 0.8"/>
     <use xlink:href="#m3d3d6afa3b" x="639.393261" y="187.627802" style="fill: #808080; fill-opacity: 0.8; stroke: #808080; stroke-opacity: 0.8"/>
    </g>
   </g>
   <g id="line2d_35">
    <path d="M 425.887601 221.525544 
L 485.47695 221.425109 
L 489.326116 221.220806 
L 491.720857 220.947932 
L 495.325166 220.132066 
L 497.969219 219.039932 
L 499.259657 218.303594 
L 501.960721 216.213219 
L 503.68878 214.448555 
L 506.354164 211.016482 
L 508.067567 208.374905 
L 511.117648 202.925771 
L 513.476976 198.21909 
L 525.677299 172.659866 
L 528.72738 167.004561 
L 531.777461 161.862966 
L 534.827542 157.265275 
L 537.877623 153.217229 
L 540.927703 149.708962 
L 543.977784 146.721064 
L 547.027865 144.228603 
L 550.077946 142.203731 
L 553.128027 140.617345 
L 556.178108 139.440133 
L 559.228189 138.643208 
L 562.278269 138.198489 
L 565.32835 138.07891 
L 568.378431 138.258523 
L 571.428512 138.712545 
L 574.478593 139.417348 
L 577.528674 140.350441 
L 580.578755 141.490432 
L 583.628835 142.816986 
L 586.678916 144.310781 
L 589.728997 145.953467 
L 595.829159 149.616735 
L 601.929321 153.677979 
L 608.029482 158.021695 
L 617.179725 164.844607 
L 632.430129 176.330153 
L 641.580372 182.916812 
L 649.793657 188.458411 
L 655.928034 192.312375 
L 661.615315 195.642273 
L 667.715477 198.9372 
L 673.815638 201.936665 
L 679.9158 204.639166 
L 686.015962 207.050174 
L 692.116123 209.18109 
L 698.216285 211.048033 
L 700.394878 211.654346 
L 700.394878 211.654346 
" clip-path="url(#p8d1b572acb)" style="fill: none; stroke: #808080; stroke-width: 1.5; stroke-linecap: square"/>
   </g>
  </g>
  <g id="axes_3">
   <g id="patch_12">
    <path d="M 785.715041 297.16 
L 1066.32248 297.16 
L 1066.32248 36 
L 785.715041 36 
z
" style="fill: #ffffff"/>
   </g>
   <g id="matplotlib.axis_5">
    <g id="xtick_21">
     <g id="line2d_36">
      <g>
       <use xlink:href="#m91db1a5036" x="788.765122" y="297.16" style="stroke: #000000; stroke-width: 0.8"/>
      </g>
     </g>
     <g id="text_38">
      <!-- 0 -->
      <g transform="translate(783.038872 317.837188) scale(0.18 -0.18)">
       <use xlink:href="#DejaVuSans-30"/>
      </g>
     </g>
    </g>
    <g id="xtick_22">
     <g id="line2d_37">
      <g>
       <use xlink:href="#m91db1a5036" x="819.26593" y="297.16" style="stroke: #000000; stroke-width: 0.8"/>
      </g>
     </g>
     <g id="text_39">
      <!-- 1 -->
      <g transform="translate(813.53968 317.837188) scale(0.18 -0.18)">
       <use xlink:href="#DejaVuSans-31"/>
      </g>
     </g>
    </g>
    <g id="xtick_23">
     <g id="line2d_38">
      <g>
       <use xlink:href="#m91db1a5036" x="849.766739" y="297.16" style="stroke: #000000; stroke-width: 0.8"/>
      </g>
     </g>
     <g id="text_40">
      <!-- 2 -->
      <g transform="translate(844.040489 317.837188) scale(0.18 -0.18)">
       <use xlink:href="#DejaVuSans-32"/>
      </g>
     </g>
    </g>
    <g id="xtick_24">
     <g id="line2d_39">
      <g>
       <use xlink:href="#m91db1a5036" x="880.267547" y="297.16" style="stroke: #000000; stroke-width: 0.8"/>
      </g>
     </g>
     <g id="text_41">
      <!-- 3 -->
      <g transform="translate(874.541297 317.837188) scale(0.18 -0.18)">
       <use xlink:href="#DejaVuSans-33"/>
      </g>
     </g>
    </g>
    <g id="xtick_25">
     <g id="line2d_40">
      <g>
       <use xlink:href="#m91db1a5036" x="910.768356" y="297.16" style="stroke: #000000; stroke-width: 0.8"/>
      </g>
     </g>
     <g id="text_42">
      <!-- 4 -->
      <g transform="translate(905.042106 317.837188) scale(0.18 -0.18)">
       <use xlink:href="#DejaVuSans-34"/>
      </g>
     </g>
    </g>
    <g id="xtick_26">
     <g id="line2d_41">
      <g>
       <use xlink:href="#m91db1a5036" x="941.269164" y="297.16" style="stroke: #000000; stroke-width: 0.8"/>
      </g>
     </g>
     <g id="text_43">
      <!-- 5 -->
      <g transform="translate(935.542914 317.837188) scale(0.18 -0.18)">
       <use xlink:href="#DejaVuSans-35"/>
      </g>
     </g>
    </g>
    <g id="xtick_27">
     <g id="line2d_42">
      <g>
       <use xlink:href="#m91db1a5036" x="971.769973" y="297.16" style="stroke: #000000; stroke-width: 0.8"/>
      </g>
     </g>
     <g id="text_44">
      <!-- 6 -->
      <g transform="translate(966.043723 317.837188) scale(0.18 -0.18)">
       <use xlink:href="#DejaVuSans-36"/>
      </g>
     </g>
    </g>
    <g id="xtick_28">
     <g id="line2d_43">
      <g>
       <use xlink:href="#m91db1a5036" x="1002.270782" y="297.16" style="stroke: #000000; stroke-width: 0.8"/>
      </g>
     </g>
     <g id="text_45">
      <!-- 7 -->
      <g transform="translate(996.544532 317.837188) scale(0.18 -0.18)">
       <use xlink:href="#DejaVuSans-37"/>
      </g>
     </g>
    </g>
    <g id="xtick_29">
     <g id="line2d_44">
      <g>
       <use xlink:href="#m91db1a5036" x="1032.77159" y="297.16" style="stroke: #000000; stroke-width: 0.8"/>
      </g>
     </g>
     <g id="text_46">
      <!-- 8 -->
      <g transform="translate(1027.04534 317.837188) scale(0.18 -0.18)">
       <use xlink:href="#DejaVuSans-38"/>
      </g>
     </g>
    </g>
    <g id="xtick_30">
     <g id="line2d_45">
      <g>
       <use xlink:href="#m91db1a5036" x="1063.272399" y="297.16" style="stroke: #000000; stroke-width: 0.8"/>
      </g>
     </g>
     <g id="text_47">
      <!-- 9 -->
      <g transform="translate(1057.546149 317.837188) scale(0.18 -0.18)">
       <use xlink:href="#DejaVuSans-39"/>
      </g>
     </g>
    </g>
    <g id="text_48">
     <!-- Time (d) -->
     <g transform="translate(875.86251 343.816875) scale(0.24 -0.24)">
      <use xlink:href="#DejaVuSans-54"/>
      <use xlink:href="#DejaVuSans-69" x="57.958984"/>
      <use xlink:href="#DejaVuSans-6d" x="85.742188"/>
      <use xlink:href="#DejaVuSans-65" x="183.154297"/>
      <use xlink:href="#DejaVuSans-20" x="244.677734"/>
      <use xlink:href="#DejaVuSans-28" x="276.464844"/>
      <use xlink:href="#DejaVuSans-64" x="315.478516"/>
      <use xlink:href="#DejaVuSans-29" x="378.955078"/>
     </g>
    </g>
   </g>
   <g id="matplotlib.axis_6">
    <g id="ytick_14">
     <g id="line2d_46">
      <g>
       <use xlink:href="#m06877c0e77" x="785.715041" y="297.16" style="stroke: #000000; stroke-width: 0.8"/>
      </g>
     </g>
     <g id="text_49">
      <!-- 3.0 -->
      <g transform="translate(750.089416 303.998594) scale(0.18 -0.18)">
       <use xlink:href="#DejaVuSans-33"/>
       <use xlink:href="#DejaVuSans-2e" x="63.623047"/>
       <use xlink:href="#DejaVuSans-30" x="95.410156"/>
      </g>
     </g>
    </g>
    <g id="ytick_15">
     <g id="line2d_47">
      <g>
       <use xlink:href="#m06877c0e77" x="785.715041" y="239.124444" style="stroke: #000000; stroke-width: 0.8"/>
      </g>
     </g>
     <g id="text_50">
      <!-- 3.5 -->
      <g transform="translate(750.089416 245.963038) scale(0.18 -0.18)">
       <use xlink:href="#DejaVuSans-33"/>
       <use xlink:href="#DejaVuSans-2e" x="63.623047"/>
       <use xlink:href="#DejaVuSans-35" x="95.410156"/>
      </g>
     </g>
    </g>
    <g id="ytick_16">
     <g id="line2d_48">
      <g>
       <use xlink:href="#m06877c0e77" x="785.715041" y="181.088889" style="stroke: #000000; stroke-width: 0.8"/>
      </g>
     </g>
     <g id="text_51">
      <!-- 4.0 -->
      <g transform="translate(750.089416 187.927483) scale(0.18 -0.18)">
       <use xlink:href="#DejaVuSans-34"/>
       <use xlink:href="#DejaVuSans-2e" x="63.623047"/>
       <use xlink:href="#DejaVuSans-30" x="95.410156"/>
      </g>
     </g>
    </g>
    <g id="ytick_17">
     <g id="line2d_49">
      <g>
       <use xlink:href="#m06877c0e77" x="785.715041" y="123.053333" style="stroke: #000000; stroke-width: 0.8"/>
      </g>
     </g>
     <g id="text_52">
      <!-- 4.5 -->
      <g transform="translate(750.089416 129.891927) scale(0.18 -0.18)">
       <use xlink:href="#DejaVuSans-34"/>
       <use xlink:href="#DejaVuSans-2e" x="63.623047"/>
       <use xlink:href="#DejaVuSans-35" x="95.410156"/>
      </g>
     </g>
    </g>
    <g id="ytick_18">
     <g id="line2d_50">
      <g>
       <use xlink:href="#m06877c0e77" x="785.715041" y="65.017778" style="stroke: #000000; stroke-width: 0.8"/>
      </g>
     </g>
     <g id="text_53">
      <!-- 5.0 -->
      <g transform="translate(750.089416 71.856372) scale(0.18 -0.18)">
       <use xlink:href="#DejaVuSans-35"/>
       <use xlink:href="#DejaVuSans-2e" x="63.623047"/>
       <use xlink:href="#DejaVuSans-30" x="95.410156"/>
      </g>
     </g>
    </g>
    <g id="text_54">
     <!-- CD8$^+$ TEM (log$_{10}$ cells) -->
     <g transform="translate(741.049416 305.06) rotate(-90) scale(0.24 -0.24)">
      <defs>
       <path id="DejaVuSans-4d" d="M 628 4666 
L 1569 4666 
L 2759 1491 
L 3956 4666 
L 4897 4666 
L 4897 0 
L 4281 0 
L 4281 4097 
L 3078 897 
L 2444 897 
L 1241 4097 
L 1241 0 
L 628 0 
L 628 4666 
z
" transform="scale(0.015625)"/>
      </defs>
      <use xlink:href="#DejaVuSans-43" transform="translate(0 0.826562)"/>
      <use xlink:href="#DejaVuSans-44" transform="translate(69.824219 0.826562)"/>
      <use xlink:href="#DejaVuSans-38" transform="translate(146.826172 0.826562)"/>
      <use xlink:href="#DejaVuSans-2b" transform="translate(225.043945 39.107812) scale(0.7)"/>
      <use xlink:href="#DejaVuSans-20" transform="translate(300.068359 0.826562)"/>
      <use xlink:href="#DejaVuSans-54" transform="translate(331.855469 0.826562)"/>
      <use xlink:href="#DejaVuSans-45" transform="translate(392.939453 0.826562)"/>
      <use xlink:href="#DejaVuSans-4d" transform="translate(456.123047 0.826562)"/>
      <use xlink:href="#DejaVuSans-20" transform="translate(542.402344 0.826562)"/>
      <use xlink:href="#DejaVuSans-28" transform="translate(574.189453 0.826562)"/>
      <use xlink:href="#DejaVuSans-6c" transform="translate(613.203125 0.826562)"/>
      <use xlink:href="#DejaVuSans-6f" transform="translate(640.986328 0.826562)"/>
      <use xlink:href="#DejaVuSans-67" transform="translate(702.167969 0.826562)"/>
      <use xlink:href="#DejaVuSans-31" transform="translate(766.601562 -15.579688) scale(0.7)"/>
      <use xlink:href="#DejaVuSans-30" transform="translate(811.137695 -15.579688) scale(0.7)"/>
      <use xlink:href="#DejaVuSans-20" transform="translate(858.408203 0.826562)"/>
      <use xlink:href="#DejaVuSans-63" transform="translate(890.195312 0.826562)"/>
      <use xlink:href="#DejaVuSans-65" transform="translate(945.175781 0.826562)"/>
      <use xlink:href="#DejaVuSans-6c" transform="translate(1006.699219 0.826562)"/>
      <use xlink:href="#DejaVuSans-6c" transform="translate(1034.482422 0.826562)"/>
      <use xlink:href="#DejaVuSans-73" transform="translate(1062.265625 0.826562)"/>
      <use xlink:href="#DejaVuSans-29" transform="translate(1114.365234 0.826562)"/>
     </g>
    </g>
   </g>
   <g id="patch_13">
    <path d="M 785.715041 297.16 
L 785.715041 36 
" style="fill: none; stroke: #000000; stroke-width: 0.8; stroke-linejoin: miter; stroke-linecap: square"/>
   </g>
   <g id="patch_14">
    <path d="M 1066.32248 297.16 
L 1066.32248 36 
" style="fill: none; stroke: #000000; stroke-width: 0.8; stroke-linejoin: miter; stroke-linecap: square"/>
   </g>
   <g id="patch_15">
    <path d="M 785.715041 297.16 
L 1066.32248 297.16 
" style="fill: none; stroke: #000000; stroke-width: 0.8; stroke-linejoin: miter; stroke-linecap: square"/>
   </g>
   <g id="patch_16">
    <path d="M 785.715041 36 
L 1066.32248 36 
" style="fill: none; stroke: #000000; stroke-width: 0.8; stroke-linejoin: miter; stroke-linecap: square"/>
   </g>
   <g id="PolyCollection_3">
    <defs>
     <path id="m4619fc517c" d="M 788.765122 -234.9422 
L 788.765122 -234.9422 
L 788.765509 -234.9422 
L 788.769383 -234.9422 
L 788.808129 -234.9422 
L 788.890717 -234.9422 
L 789.013527 -234.9422 
L 789.309875 -234.9422 
L 789.835699 -234.9422 
L 790.434714 -234.9422 
L 791.151367 -234.9422 
L 792.430387 -234.9422 
L 793.334229 -234.9422 
L 794.978218 -234.9422 
L 795.952196 -234.9422 
L 797.528881 -234.9422 
L 798.57101 -234.9422 
L 800.168779 -234.9422 
L 801.255632 -234.9422 
L 802.838416 -234.9422 
L 803.959877 -234.9422 
L 805.695417 -234.9422 
L 806.796208 -234.9422 
L 808.30506 -234.9422 
L 809.4475 -234.9422 
L 811.087614 -234.9422 
L 812.219854 -234.9422 
L 813.737389 -234.9422 
L 814.893313 -234.9422 
L 816.520677 -234.9422 
L 817.66065 -234.9422 
L 819.174206 -234.9422 
L 820.336718 -234.9422 
L 821.960753 -234.9422 
L 823.117933 -234.9422 
L 824.684007 -234.9422 
L 825.872806 -234.9422 
L 827.570294 -234.9422 
L 828.760914 -234.9422 
L 830.368021 -234.9422 
L 831.588921 -234.9422 
L 833.338298 -234.9422 
L 834.589147 -234.9422 
L 836.167403 -234.9422 
L 837.386177 -234.9422 
L 838.835444 -234.9422 
L 840.034023 -234.9422 
L 841.291136 -234.9422 
L 842.548249 -234.9422 
L 843.657665 -234.9422 
L 844.767082 -234.9422 
L 845.597158 -234.9422 
L 846.407896 -234.9422 
L 847.085618 -234.9422 
L 847.791219 -234.9422 
L 848.35447 -234.9422 
L 848.864772 -234.9422 
L 849.375074 -234.9422 
L 849.78974 -234.9422 
L 850.258789 -234.9422 
L 851.599369 -234.9422 
L 852.203637 -234.9422 
L 853.785814 -234.9422 
L 854.598377 -234.9422 
L 857.018565 -234.9422 
L 858.202686 -234.9422 
L 860.846739 -234.9422 
L 862.137178 -234.9422 
L 864.838241 -234.9422 
L 866.566301 -234.9422 
L 869.231685 -234.9422 
L 870.945088 -234.9422 
L 873.995168 -234.9422 
L 876.354496 -234.9422 
L 879.404577 -234.9422 
L 882.454658 -234.9422 
L 885.504739 -234.9422 
L 888.554819 -234.942201 
L 891.6049 -234.942202 
L 894.654981 -234.942206 
L 897.705062 -234.942217 
L 900.755143 -234.942247 
L 903.805224 -234.942329 
L 906.855305 -234.942534 
L 909.905385 -234.943071 
L 912.955466 -234.944349 
L 916.005547 -234.947252 
L 919.055628 -234.953598 
L 922.105709 -234.966284 
L 925.15579 -234.990618 
L 928.205871 -235.034742 
L 931.255951 -235.109085 
L 934.306032 -235.228257 
L 937.356113 -235.41088 
L 940.406194 -235.677996 
L 943.456275 -236.052137 
L 946.506356 -236.55559 
L 949.556437 -237.208298 
L 952.606517 -238.025735 
L 955.656598 -239.017066 
L 958.706679 -240.183913 
L 961.75676 -241.51991 
L 964.806841 -243.011116 
L 967.856922 -244.636683 
L 970.907003 -246.371357 
L 973.957083 -248.187718 
L 977.007164 -250.057258 
L 980.057245 -251.952104 
L 983.107326 -253.844801 
L 986.157407 -255.713206 
L 989.207488 -257.205761 
L 992.257569 -257.895112 
L 995.307649 -258.531026 
L 998.35773 -259.116044 
L 1001.407811 -259.652954 
L 1004.457892 -260.144693 
L 1007.507973 -260.594256 
L 1010.558054 -261.007699 
L 1010.60467 -261.013633 
L 1010.721211 -261.028467 
L 1010.843951 -261.04409 
L 1010.874636 -261.047996 
L 1010.900406 -261.051276 
L 1010.948589 -261.057409 
L 1010.972812 -261.060493 
L 1010.98301 -261.061791 
L 1010.992538 -261.063004 
L 1011.019502 -261.066436 
L 1011.04041 -261.069097 
L 1011.051051 -261.070451 
L 1011.063447 -261.072029 
L 1011.100814 -261.076786 
L 1011.138426 -261.081573 
L 1011.23021 -261.0932 
L 1011.300877 -261.101987 
L 1011.463883 -261.122256 
L 1011.626888 -261.142524 
L 1012.671177 -261.270427 
L 1014.297873 -261.460896 
L 1016.168355 -261.669286 
L 1018.805555 -261.939905 
L 1021.442754 -262.193675 
L 1024.492835 -262.458414 
L 1027.542916 -262.700682 
L 1030.592997 -262.920596 
L 1033.643078 -263.120145 
L 1036.693159 -263.30116 
L 1039.743239 -263.465327 
L 1042.79332 -263.614188 
L 1045.843401 -263.749181 
L 1048.893482 -263.871596 
L 1051.943563 -263.982568 
L 1054.993644 -264.083157 
L 1058.043725 -264.174335 
L 1061.093805 -264.257001 
L 1063.272399 -264.312167 
L 1063.272399 -311.537687 
L 1063.272399 -311.537687 
L 1061.093805 -311.467815 
L 1058.043725 -311.360756 
L 1054.993644 -311.241849 
L 1051.943563 -311.109779 
L 1048.893482 -310.963086 
L 1045.843401 -310.800148 
L 1042.79332 -310.61917 
L 1039.743239 -310.418231 
L 1036.693159 -310.195035 
L 1033.643078 -309.947123 
L 1030.592997 -309.671828 
L 1027.542916 -309.36634 
L 1024.492835 -309.027248 
L 1021.442754 -308.650823 
L 1018.805555 -308.290426 
L 1016.168355 -307.900265 
L 1014.297873 -307.599579 
L 1012.671177 -307.323999 
L 1011.626888 -307.138524 
L 1011.463883 -307.10895 
L 1011.300877 -307.079157 
L 1011.23021 -307.066217 
L 1011.138426 -307.049411 
L 1011.100814 -307.042489 
L 1011.063447 -307.035603 
L 1011.051051 -307.033318 
L 1011.04041 -307.031357 
L 1011.019502 -307.027504 
L 1010.992538 -307.022535 
L 1010.98301 -307.020768 
L 1010.972812 -307.01887 
L 1010.948589 -307.014361 
L 1010.900406 -307.005391 
L 1010.874636 -307.000594 
L 1010.843951 -306.994881 
L 1010.721211 -306.972033 
L 1010.60467 -306.950338 
L 1010.558054 -306.94166 
L 1007.507973 -306.332511 
L 1004.457892 -305.665133 
L 1001.407811 -304.927223 
L 998.35773 -304.112085 
L 995.307649 -303.212591 
L 992.257569 -302.221207 
L 989.207488 -301.130033 
L 986.157407 -299.930865 
L 983.107326 -298.615289 
L 980.057245 -297.174804 
L 977.007164 -295.600986 
L 973.957083 -293.885706 
L 970.907003 -292.021398 
L 967.856922 -290.001415 
L 964.806841 -287.820452 
L 961.75676 -285.475073 
L 958.706679 -282.96434 
L 955.656598 -280.290553 
L 952.606517 -277.699783 
L 949.556437 -275.249083 
L 946.506356 -272.660577 
L 943.456275 -270.629768 
L 940.406194 -268.572085 
L 937.356113 -266.398158 
L 934.306032 -264.118483 
L 931.255951 -261.748321 
L 928.205871 -259.308241 
L 925.15579 -256.824442 
L 922.105709 -254.328718 
L 919.055628 -251.857896 
L 916.005547 -249.452615 
L 912.955466 -247.199226 
L 909.905385 -245.097567 
L 906.855305 -243.173583 
L 903.805224 -241.455674 
L 900.755143 -239.963028 
L 897.705062 -238.703897 
L 894.654981 -237.675068 
L 891.6049 -236.862685 
L 888.554819 -236.244281 
L 885.504739 -235.791643 
L 882.454658 -235.473501 
L 879.404577 -235.259429 
L 876.354496 -235.122402 
L 873.995168 -235.052207 
L 870.945088 -234.999599 
L 869.231685 -234.980036 
L 866.566301 -234.962554 
L 864.838241 -234.954478 
L 862.137178 -234.948095 
L 860.846739 -234.946228 
L 858.202686 -234.944064 
L 857.018565 -234.943453 
L 854.598377 -234.942795 
L 853.785814 -234.942638 
L 852.203637 -234.942464 
L 851.599369 -234.942411 
L 850.258789 -234.942337 
L 849.78974 -234.942314 
L 849.375074 -234.942299 
L 848.864772 -234.942283 
L 848.35447 -234.94227 
L 847.791219 -234.942258 
L 847.085618 -234.942246 
L 846.407896 -234.942236 
L 845.597158 -234.942227 
L 844.767082 -234.94222 
L 843.657665 -234.942214 
L 842.548249 -234.942209 
L 841.291136 -234.942206 
L 840.034023 -234.942204 
L 838.835444 -234.942202 
L 837.386177 -234.942201 
L 836.167403 -234.942201 
L 834.589147 -234.9422 
L 833.338298 -234.9422 
L 831.588921 -234.9422 
L 830.368021 -234.9422 
L 828.760914 -234.9422 
L 827.570294 -234.9422 
L 825.872806 -234.9422 
L 824.684007 -234.9422 
L 823.117933 -234.9422 
L 821.960753 -234.9422 
L 820.336718 -234.9422 
L 819.174206 -234.9422 
L 817.66065 -234.9422 
L 816.520677 -234.9422 
L 814.893313 -234.9422 
L 813.737389 -234.9422 
L 812.219854 -234.9422 
L 811.087614 -234.9422 
L 809.4475 -234.9422 
L 808.30506 -234.9422 
L 806.796208 -234.9422 
L 805.695417 -234.9422 
L 803.959877 -234.9422 
L 802.838416 -234.9422 
L 801.255632 -234.9422 
L 800.168779 -234.9422 
L 798.57101 -234.9422 
L 797.528881 -234.9422 
L 795.952196 -234.9422 
L 794.978218 -234.9422 
L 793.334229 -234.9422 
L 792.430387 -234.9422 
L 791.151367 -234.9422 
L 790.434714 -234.9422 
L 789.835699 -234.9422 
L 789.309875 -234.9422 
L 789.013527 -234.9422 
L 788.890717 -234.9422 
L 788.808129 -234.9422 
L 788.769383 -234.9422 
L 788.765509 -234.9422 
L 788.765122 -234.9422 
z
" style="stroke: #808080; stroke-opacity: 0.2"/>
    </defs>
    <g clip-path="url(#p158ac7b287)">
     <use xlink:href="#m4619fc517c" x="0" y="360" style="fill: #808080; fill-opacity: 0.2; stroke: #808080; stroke-opacity: 0.2"/>
    </g>
   </g>
   <g id="PathCollection_3">
    <g clip-path="url(#p158ac7b287)">
     <use xlink:href="#m3d3d6afa3b" x="788.765122" y="125.056818" style="fill: #808080; fill-opacity: 0.8; stroke: #808080; stroke-opacity: 0.8"/>
     <use xlink:href="#m3d3d6afa3b" x="819.26593" y="112.965141" style="fill: #808080; fill-opacity: 0.8; stroke: #808080; stroke-opacity: 0.8"/>
     <use xlink:href="#m3d3d6afa3b" x="849.766739" y="110.617722" style="fill: #808080; fill-opacity: 0.8; stroke: #808080; stroke-opacity: 0.8"/>
     <use xlink:href="#m3d3d6afa3b" x="880.267547" y="104.169601" style="fill: #808080; fill-opacity: 0.8; stroke: #808080; stroke-opacity: 0.8"/>
     <use xlink:href="#m3d3d6afa3b" x="910.768356" y="90.748783" style="fill: #808080; fill-opacity: 0.8; stroke: #808080; stroke-opacity: 0.8"/>
     <use xlink:href="#m3d3d6afa3b" x="941.269164" y="90.479131" style="fill: #808080; fill-opacity: 0.8; stroke: #808080; stroke-opacity: 0.8"/>
     <use xlink:href="#m3d3d6afa3b" x="971.769973" y="86.879968" style="fill: #808080; fill-opacity: 0.8; stroke: #808080; stroke-opacity: 0.8"/>
     <use xlink:href="#m3d3d6afa3b" x="1002.270782" y="84.527262" style="fill: #808080; fill-opacity: 0.8; stroke: #808080; stroke-opacity: 0.8"/>
    </g>
   </g>
   <g id="line2d_51">
    <path d="M 788.765122 125.0578 
L 873.995168 124.970933 
L 879.404577 124.805231 
L 885.504739 124.361517 
L 888.554819 123.976606 
L 891.6049 123.44583 
L 894.654981 122.742695 
L 897.705062 121.845365 
L 900.755143 120.73934 
L 903.805224 119.419464 
L 906.855305 117.890895 
L 909.905385 116.168887 
L 912.955466 114.277448 
L 919.055628 110.112675 
L 937.356113 96.991516 
L 943.456275 93.09753 
L 949.556437 89.621474 
L 955.656598 86.586045 
L 961.75676 83.979735 
L 967.856922 81.770597 
L 973.957083 79.916439 
L 980.057245 78.371715 
L 986.157407 77.091835 
L 992.257569 76.035587 
L 998.35773 75.166298 
L 1007.507973 74.144677 
L 1016.168355 73.420965 
L 1027.542916 72.733075 
L 1039.743239 72.229529 
L 1054.993644 71.824537 
L 1063.272399 71.675238 
L 1063.272399 71.675238 
" clip-path="url(#p158ac7b287)" style="fill: none; stroke: #808080; stroke-width: 1.5; stroke-linecap: square"/>
   </g>
  </g>
  <g id="text_55">
   <!-- Volunteer 103 -->
   <g transform="translate(649.759375 22.396875) scale(0.2 -0.2)">
    <defs>
     <path id="DejaVuSans-6e" d="M 3513 2113 
L 3513 0 
L 2938 0 
L 2938 2094 
Q 2938 2591 2744 2837 
Q 2550 3084 2163 3084 
Q 1697 3084 1428 2787 
Q 1159 2491 1159 1978 
L 1159 0 
L 581 0 
L 581 3500 
L 1159 3500 
L 1159 2956 
Q 1366 3272 1645 3428 
Q 1925 3584 2291 3584 
Q 2894 3584 3203 3211 
Q 3513 2838 3513 2113 
z
" transform="scale(0.015625)"/>
     <path id="DejaVuSans-74" d="M 1172 4494 
L 1172 3500 
L 2356 3500 
L 2356 3053 
L 1172 3053 
L 1172 1153 
Q 1172 725 1289 603 
Q 1406 481 1766 481 
L 2356 481 
L 2356 0 
L 1766 0 
Q 1100 0 847 248 
Q 594 497 594 1153 
L 594 3053 
L 172 3053 
L 172 3500 
L 594 3500 
L 594 4494 
L 1172 4494 
z
" transform="scale(0.015625)"/>
    </defs>
    <use xlink:href="#DejaVuSans-56"/>
    <use xlink:href="#DejaVuSans-6f" x="60.658203"/>
    <use xlink:href="#DejaVuSans-6c" x="121.839844"/>
    <use xlink:href="#DejaVuSans-75" x="149.623047"/>
    <use xlink:href="#DejaVuSans-6e" x="213.001953"/>
    <use xlink:href="#DejaVuSans-74" x="276.380859"/>
    <use xlink:href="#DejaVuSans-65" x="315.589844"/>
    <use xlink:href="#DejaVuSans-65" x="377.113281"/>
    <use xlink:href="#DejaVuSans-72" x="438.636719"/>
    <use xlink:href="#DejaVuSans-20" x="479.75"/>
    <use xlink:href="#DejaVuSans-31" x="511.537109"/>
    <use xlink:href="#DejaVuSans-30" x="575.160156"/>
    <use xlink:href="#DejaVuSans-33" x="638.783203"/>
   </g>
  </g>
 </g>
 <defs>
  <clipPath id="p85c3f92b6b">
   <rect x="59.96" y="36" width="280.607439" height="261.16"/>
  </clipPath>
  <clipPath id="p8d1b572acb">
   <rect x="422.83752" y="36" width="280.607439" height="261.16"/>
  </clipPath>
  <clipPath id="p158ac7b287">
   <rect x="785.715041" y="36" width="280.607439" height="261.16"/>
  </clipPath>
 </defs>
</svg>
