<?xml version="1.0" encoding="utf-8" standalone="no"?>
<!DOCTYPE svg PUBLIC "-//W3C//DTD SVG 1.1//EN"
  "http://www.w3.org/Graphics/SVG/1.1/DTD/svg11.dtd">
<svg xmlns:xlink="http://www.w3.org/1999/xlink" width="1440pt" height="360pt" viewBox="0 0 1440 360" xmlns="http://www.w3.org/2000/svg" version="1.1">
 <metadata>
  <rdf:RDF xmlns:dc="http://purl.org/dc/elements/1.1/" xmlns:cc="http://creativecommons.org/ns#" xmlns:rdf="http://www.w3.org/1999/02/22-rdf-syntax-ns#">
   <cc:Work>
    <dc:type rdf:resource="http://purl.org/dc/dcmitype/StillImage"/>
    <dc:date>2025-01-23T10:03:44.308495</dc:date>
    <dc:format>image/svg+xml</dc:format>
    <dc:creator>
     <cc:Agent>
      <dc:title>Matplotlib v3.9.2, https://matplotlib.org/</dc:title>
     </cc:Agent>
    </dc:creator>
   </cc:Work>
  </rdf:RDF>
 </metadata>
 <defs>
  <style type="text/css">*{stroke-linejoin: round; stroke-linecap: butt}</style>
 </defs>
 <g id="figure_1">
  <g id="patch_1">
   <path d="M 0 360 
L 1440 360 
L 1440 0 
L 0 0 
z
" style="fill: #ffffff"/>
  </g>
  <g id="axes_1">
   <g id="patch_2">
    <path d="M 180 320.4 
L 407.755102 320.4 
L 407.755102 43.2 
L 180 43.2 
z
" style="fill: #ffffff"/>
   </g>
   <g id="matplotlib.axis_1">
    <g id="xtick_1">
     <g id="text_1">
      <!-- 0 -->
      <g style="fill: #262626" transform="translate(178.023617 352.232375) scale(0.312 -0.312)">
       <defs>
        <path id="ArialMT-30" d="M 266 2259 
Q 266 3072 433 3567 
Q 600 4063 929 4331 
Q 1259 4600 1759 4600 
Q 2128 4600 2406 4451 
Q 2684 4303 2865 4023 
Q 3047 3744 3150 3342 
Q 3253 2941 3253 2259 
Q 3253 1453 3087 958 
Q 2922 463 2592 192 
Q 2263 -78 1759 -78 
Q 1097 -78 719 397 
Q 266 969 266 2259 
z
M 844 2259 
Q 844 1131 1108 757 
Q 1372 384 1759 384 
Q 2147 384 2411 759 
Q 2675 1134 2675 2259 
Q 2675 3391 2411 3762 
Q 2147 4134 1753 4134 
Q 1366 4134 1134 3806 
Q 844 3388 844 2259 
z
" transform="scale(0.015625)"/>
       </defs>
       <use xlink:href="#ArialMT-30"/>
      </g>
     </g>
    </g>
    <g id="xtick_2">
     <g id="text_2">
      <!-- 2 -->
      <g style="fill: #262626" transform="translate(231.613053 352.232375) scale(0.312 -0.312)">
       <defs>
        <path id="ArialMT-32" d="M 3222 541 
L 3222 0 
L 194 0 
Q 188 203 259 391 
Q 375 700 629 1000 
Q 884 1300 1366 1694 
Q 2113 2306 2375 2664 
Q 2638 3022 2638 3341 
Q 2638 3675 2398 3904 
Q 2159 4134 1775 4134 
Q 1369 4134 1125 3890 
Q 881 3647 878 3216 
L 300 3275 
Q 359 3922 746 4261 
Q 1134 4600 1788 4600 
Q 2447 4600 2831 4234 
Q 3216 3869 3216 3328 
Q 3216 3053 3103 2787 
Q 2991 2522 2730 2228 
Q 2469 1934 1863 1422 
Q 1356 997 1212 845 
Q 1069 694 975 541 
L 3222 541 
z
" transform="scale(0.015625)"/>
       </defs>
       <use xlink:href="#ArialMT-32"/>
      </g>
     </g>
    </g>
    <g id="xtick_3">
     <g id="text_3">
      <!-- 4 -->
      <g style="fill: #262626" transform="translate(285.202489 352.232375) scale(0.312 -0.312)">
       <defs>
        <path id="ArialMT-34" d="M 2069 0 
L 2069 1097 
L 81 1097 
L 81 1613 
L 2172 4581 
L 2631 4581 
L 2631 1613 
L 3250 1613 
L 3250 1097 
L 2631 1097 
L 2631 0 
L 2069 0 
z
M 2069 1613 
L 2069 3678 
L 634 1613 
L 2069 1613 
z
" transform="scale(0.015625)"/>
       </defs>
       <use xlink:href="#ArialMT-34"/>
      </g>
     </g>
    </g>
    <g id="xtick_4">
     <g id="text_4">
      <!-- 6 -->
      <g style="fill: #262626" transform="translate(338.791924 352.232375) scale(0.312 -0.312)">
       <defs>
        <path id="ArialMT-36" d="M 3184 3459 
L 2625 3416 
Q 2550 3747 2413 3897 
Q 2184 4138 1850 4138 
Q 1581 4138 1378 3988 
Q 1113 3794 959 3422 
Q 806 3050 800 2363 
Q 1003 2672 1297 2822 
Q 1591 2972 1913 2972 
Q 2475 2972 2870 2558 
Q 3266 2144 3266 1488 
Q 3266 1056 3080 686 
Q 2894 316 2569 119 
Q 2244 -78 1831 -78 
Q 1128 -78 684 439 
Q 241 956 241 2144 
Q 241 3472 731 4075 
Q 1159 4600 1884 4600 
Q 2425 4600 2770 4297 
Q 3116 3994 3184 3459 
z
M 888 1484 
Q 888 1194 1011 928 
Q 1134 663 1356 523 
Q 1578 384 1822 384 
Q 2178 384 2434 671 
Q 2691 959 2691 1453 
Q 2691 1928 2437 2201 
Q 2184 2475 1800 2475 
Q 1419 2475 1153 2201 
Q 888 1928 888 1484 
z
" transform="scale(0.015625)"/>
       </defs>
       <use xlink:href="#ArialMT-36"/>
      </g>
     </g>
    </g>
    <g id="xtick_5">
     <g id="text_5">
      <!-- 8 -->
      <g style="fill: #262626" transform="translate(392.38136 352.232375) scale(0.312 -0.312)">
       <defs>
        <path id="ArialMT-38" d="M 1131 2484 
Q 781 2613 612 2850 
Q 444 3088 444 3419 
Q 444 3919 803 4259 
Q 1163 4600 1759 4600 
Q 2359 4600 2725 4251 
Q 3091 3903 3091 3403 
Q 3091 3084 2923 2848 
Q 2756 2613 2416 2484 
Q 2838 2347 3058 2040 
Q 3278 1734 3278 1309 
Q 3278 722 2862 322 
Q 2447 -78 1769 -78 
Q 1091 -78 675 323 
Q 259 725 259 1325 
Q 259 1772 486 2073 
Q 713 2375 1131 2484 
z
M 1019 3438 
Q 1019 3113 1228 2906 
Q 1438 2700 1772 2700 
Q 2097 2700 2305 2904 
Q 2513 3109 2513 3406 
Q 2513 3716 2298 3927 
Q 2084 4138 1766 4138 
Q 1444 4138 1231 3931 
Q 1019 3725 1019 3438 
z
M 838 1322 
Q 838 1081 952 856 
Q 1066 631 1291 507 
Q 1516 384 1775 384 
Q 2178 384 2440 643 
Q 2703 903 2703 1303 
Q 2703 1709 2433 1975 
Q 2163 2241 1756 2241 
Q 1359 2241 1098 1978 
Q 838 1716 838 1322 
z
" transform="scale(0.015625)"/>
       </defs>
       <use xlink:href="#ArialMT-38"/>
      </g>
     </g>
    </g>
    <g id="text_6">
     <!-- Time (d) -->
     <g style="fill: #262626" transform="translate(241.190989 383.253281) scale(0.286 -0.286)">
      <defs>
       <path id="ArialMT-54" d="M 1659 0 
L 1659 4041 
L 150 4041 
L 150 4581 
L 3781 4581 
L 3781 4041 
L 2266 4041 
L 2266 0 
L 1659 0 
z
" transform="scale(0.015625)"/>
       <path id="ArialMT-69" d="M 425 3934 
L 425 4581 
L 988 4581 
L 988 3934 
L 425 3934 
z
M 425 0 
L 425 3319 
L 988 3319 
L 988 0 
L 425 0 
z
" transform="scale(0.015625)"/>
       <path id="ArialMT-6d" d="M 422 0 
L 422 3319 
L 925 3319 
L 925 2853 
Q 1081 3097 1340 3245 
Q 1600 3394 1931 3394 
Q 2300 3394 2536 3241 
Q 2772 3088 2869 2813 
Q 3263 3394 3894 3394 
Q 4388 3394 4653 3120 
Q 4919 2847 4919 2278 
L 4919 0 
L 4359 0 
L 4359 2091 
Q 4359 2428 4304 2576 
Q 4250 2725 4106 2815 
Q 3963 2906 3769 2906 
Q 3419 2906 3187 2673 
Q 2956 2441 2956 1928 
L 2956 0 
L 2394 0 
L 2394 2156 
Q 2394 2531 2256 2718 
Q 2119 2906 1806 2906 
Q 1569 2906 1367 2781 
Q 1166 2656 1075 2415 
Q 984 2175 984 1722 
L 984 0 
L 422 0 
z
" transform="scale(0.015625)"/>
       <path id="ArialMT-65" d="M 2694 1069 
L 3275 997 
Q 3138 488 2766 206 
Q 2394 -75 1816 -75 
Q 1088 -75 661 373 
Q 234 822 234 1631 
Q 234 2469 665 2931 
Q 1097 3394 1784 3394 
Q 2450 3394 2872 2941 
Q 3294 2488 3294 1666 
Q 3294 1616 3291 1516 
L 816 1516 
Q 847 969 1125 678 
Q 1403 388 1819 388 
Q 2128 388 2347 550 
Q 2566 713 2694 1069 
z
M 847 1978 
L 2700 1978 
Q 2663 2397 2488 2606 
Q 2219 2931 1791 2931 
Q 1403 2931 1139 2672 
Q 875 2413 847 1978 
z
" transform="scale(0.015625)"/>
       <path id="ArialMT-20" transform="scale(0.015625)"/>
       <path id="ArialMT-28" d="M 1497 -1347 
Q 1031 -759 709 28 
Q 388 816 388 1659 
Q 388 2403 628 3084 
Q 909 3875 1497 4659 
L 1900 4659 
Q 1522 4009 1400 3731 
Q 1209 3300 1100 2831 
Q 966 2247 966 1656 
Q 966 153 1900 -1347 
L 1497 -1347 
z
" transform="scale(0.015625)"/>
       <path id="ArialMT-64" d="M 2575 0 
L 2575 419 
Q 2259 -75 1647 -75 
Q 1250 -75 917 144 
Q 584 363 401 755 
Q 219 1147 219 1656 
Q 219 2153 384 2558 
Q 550 2963 881 3178 
Q 1213 3394 1622 3394 
Q 1922 3394 2156 3267 
Q 2391 3141 2538 2938 
L 2538 4581 
L 3097 4581 
L 3097 0 
L 2575 0 
z
M 797 1656 
Q 797 1019 1065 703 
Q 1334 388 1700 388 
Q 2069 388 2326 689 
Q 2584 991 2584 1609 
Q 2584 2291 2321 2609 
Q 2059 2928 1675 2928 
Q 1300 2928 1048 2622 
Q 797 2316 797 1656 
z
" transform="scale(0.015625)"/>
       <path id="ArialMT-29" d="M 791 -1347 
L 388 -1347 
Q 1322 153 1322 1656 
Q 1322 2244 1188 2822 
Q 1081 3291 891 3722 
Q 769 4003 388 4659 
L 791 4659 
Q 1378 3875 1659 3084 
Q 1900 2403 1900 1659 
Q 1900 816 1576 28 
Q 1253 -759 791 -1347 
z
" transform="scale(0.015625)"/>
      </defs>
      <use xlink:href="#ArialMT-54"/>
      <use xlink:href="#ArialMT-69" x="57.333984"/>
      <use xlink:href="#ArialMT-6d" x="79.550781"/>
      <use xlink:href="#ArialMT-65" x="162.851562"/>
      <use xlink:href="#ArialMT-20" x="218.466797"/>
      <use xlink:href="#ArialMT-28" x="246.25"/>
      <use xlink:href="#ArialMT-64" x="279.550781"/>
      <use xlink:href="#ArialMT-29" x="335.166016"/>
     </g>
    </g>
   </g>
   <g id="matplotlib.axis_2">
    <g id="ytick_1">
     <g id="text_7">
      <!-- 0 -->
      <g style="fill: #262626" transform="translate(153.149875 331.566188) scale(0.312 -0.312)">
       <use xlink:href="#ArialMT-30"/>
      </g>
     </g>
    </g>
    <g id="ytick_2">
     <g id="text_8">
      <!-- 2 -->
      <g style="fill: #262626" transform="translate(153.149875 262.266188) scale(0.312 -0.312)">
       <use xlink:href="#ArialMT-32"/>
      </g>
     </g>
    </g>
    <g id="ytick_3">
     <g id="text_9">
      <!-- 4 -->
      <g style="fill: #262626" transform="translate(153.149875 192.966187) scale(0.312 -0.312)">
       <use xlink:href="#ArialMT-34"/>
      </g>
     </g>
    </g>
    <g id="ytick_4">
     <g id="text_10">
      <!-- 6 -->
      <g style="fill: #262626" transform="translate(153.149875 123.666187) scale(0.312 -0.312)">
       <use xlink:href="#ArialMT-36"/>
      </g>
     </g>
    </g>
    <g id="ytick_5">
     <g id="text_11">
      <!-- 8 -->
      <g style="fill: #262626" transform="translate(153.149875 54.366187) scale(0.312 -0.312)">
       <use xlink:href="#ArialMT-38"/>
      </g>
     </g>
    </g>
    <g id="text_12">
     <!-- Log$_{10}$ Virus (copies/mL) -->
     <g style="fill: #262626" transform="translate(142.857875 334.238) rotate(-90) scale(0.286 -0.286)">
      <defs>
       <path id="ArialMT-4c" d="M 469 0 
L 469 4581 
L 1075 4581 
L 1075 541 
L 3331 541 
L 3331 0 
L 469 0 
z
" transform="scale(0.015625)"/>
       <path id="ArialMT-6f" d="M 213 1659 
Q 213 2581 725 3025 
Q 1153 3394 1769 3394 
Q 2453 3394 2887 2945 
Q 3322 2497 3322 1706 
Q 3322 1066 3130 698 
Q 2938 331 2570 128 
Q 2203 -75 1769 -75 
Q 1072 -75 642 372 
Q 213 819 213 1659 
z
M 791 1659 
Q 791 1022 1069 705 
Q 1347 388 1769 388 
Q 2188 388 2466 706 
Q 2744 1025 2744 1678 
Q 2744 2294 2464 2611 
Q 2184 2928 1769 2928 
Q 1347 2928 1069 2612 
Q 791 2297 791 1659 
z
" transform="scale(0.015625)"/>
       <path id="ArialMT-67" d="M 319 -275 
L 866 -356 
Q 900 -609 1056 -725 
Q 1266 -881 1628 -881 
Q 2019 -881 2231 -725 
Q 2444 -569 2519 -288 
Q 2563 -116 2559 434 
Q 2191 0 1641 0 
Q 956 0 581 494 
Q 206 988 206 1678 
Q 206 2153 378 2554 
Q 550 2956 876 3175 
Q 1203 3394 1644 3394 
Q 2231 3394 2613 2919 
L 2613 3319 
L 3131 3319 
L 3131 450 
Q 3131 -325 2973 -648 
Q 2816 -972 2473 -1159 
Q 2131 -1347 1631 -1347 
Q 1038 -1347 672 -1080 
Q 306 -813 319 -275 
z
M 784 1719 
Q 784 1066 1043 766 
Q 1303 466 1694 466 
Q 2081 466 2343 764 
Q 2606 1063 2606 1700 
Q 2606 2309 2336 2618 
Q 2066 2928 1684 2928 
Q 1309 2928 1046 2623 
Q 784 2319 784 1719 
z
" transform="scale(0.015625)"/>
       <path id="DejaVuSans-31" d="M 794 531 
L 1825 531 
L 1825 4091 
L 703 3866 
L 703 4441 
L 1819 4666 
L 2450 4666 
L 2450 531 
L 3481 531 
L 3481 0 
L 794 0 
L 794 531 
z
" transform="scale(0.015625)"/>
       <path id="DejaVuSans-30" d="M 2034 4250 
Q 1547 4250 1301 3770 
Q 1056 3291 1056 2328 
Q 1056 1369 1301 889 
Q 1547 409 2034 409 
Q 2525 409 2770 889 
Q 3016 1369 3016 2328 
Q 3016 3291 2770 3770 
Q 2525 4250 2034 4250 
z
M 2034 4750 
Q 2819 4750 3233 4129 
Q 3647 3509 3647 2328 
Q 3647 1150 3233 529 
Q 2819 -91 2034 -91 
Q 1250 -91 836 529 
Q 422 1150 422 2328 
Q 422 3509 836 4129 
Q 1250 4750 2034 4750 
z
" transform="scale(0.015625)"/>
       <path id="ArialMT-56" d="M 1803 0 
L 28 4581 
L 684 4581 
L 1875 1253 
Q 2019 853 2116 503 
Q 2222 878 2363 1253 
L 3600 4581 
L 4219 4581 
L 2425 0 
L 1803 0 
z
" transform="scale(0.015625)"/>
       <path id="ArialMT-72" d="M 416 0 
L 416 3319 
L 922 3319 
L 922 2816 
Q 1116 3169 1280 3281 
Q 1444 3394 1641 3394 
Q 1925 3394 2219 3213 
L 2025 2691 
Q 1819 2813 1613 2813 
Q 1428 2813 1281 2702 
Q 1134 2591 1072 2394 
Q 978 2094 978 1738 
L 978 0 
L 416 0 
z
" transform="scale(0.015625)"/>
       <path id="ArialMT-75" d="M 2597 0 
L 2597 488 
Q 2209 -75 1544 -75 
Q 1250 -75 995 37 
Q 741 150 617 320 
Q 494 491 444 738 
Q 409 903 409 1263 
L 409 3319 
L 972 3319 
L 972 1478 
Q 972 1038 1006 884 
Q 1059 663 1231 536 
Q 1403 409 1656 409 
Q 1909 409 2131 539 
Q 2353 669 2445 892 
Q 2538 1116 2538 1541 
L 2538 3319 
L 3100 3319 
L 3100 0 
L 2597 0 
z
" transform="scale(0.015625)"/>
       <path id="ArialMT-73" d="M 197 991 
L 753 1078 
Q 800 744 1014 566 
Q 1228 388 1613 388 
Q 2000 388 2187 545 
Q 2375 703 2375 916 
Q 2375 1106 2209 1216 
Q 2094 1291 1634 1406 
Q 1016 1563 777 1677 
Q 538 1791 414 1992 
Q 291 2194 291 2438 
Q 291 2659 392 2848 
Q 494 3038 669 3163 
Q 800 3259 1026 3326 
Q 1253 3394 1513 3394 
Q 1903 3394 2198 3281 
Q 2494 3169 2634 2976 
Q 2775 2784 2828 2463 
L 2278 2388 
Q 2241 2644 2061 2787 
Q 1881 2931 1553 2931 
Q 1166 2931 1000 2803 
Q 834 2675 834 2503 
Q 834 2394 903 2306 
Q 972 2216 1119 2156 
Q 1203 2125 1616 2013 
Q 2213 1853 2448 1751 
Q 2684 1650 2818 1456 
Q 2953 1263 2953 975 
Q 2953 694 2789 445 
Q 2625 197 2315 61 
Q 2006 -75 1616 -75 
Q 969 -75 630 194 
Q 291 463 197 991 
z
" transform="scale(0.015625)"/>
       <path id="ArialMT-63" d="M 2588 1216 
L 3141 1144 
Q 3050 572 2676 248 
Q 2303 -75 1759 -75 
Q 1078 -75 664 370 
Q 250 816 250 1647 
Q 250 2184 428 2587 
Q 606 2991 970 3192 
Q 1334 3394 1763 3394 
Q 2303 3394 2647 3120 
Q 2991 2847 3088 2344 
L 2541 2259 
Q 2463 2594 2264 2762 
Q 2066 2931 1784 2931 
Q 1359 2931 1093 2626 
Q 828 2322 828 1663 
Q 828 994 1084 691 
Q 1341 388 1753 388 
Q 2084 388 2306 591 
Q 2528 794 2588 1216 
z
" transform="scale(0.015625)"/>
       <path id="ArialMT-70" d="M 422 -1272 
L 422 3319 
L 934 3319 
L 934 2888 
Q 1116 3141 1344 3267 
Q 1572 3394 1897 3394 
Q 2322 3394 2647 3175 
Q 2972 2956 3137 2557 
Q 3303 2159 3303 1684 
Q 3303 1175 3120 767 
Q 2938 359 2589 142 
Q 2241 -75 1856 -75 
Q 1575 -75 1351 44 
Q 1128 163 984 344 
L 984 -1272 
L 422 -1272 
z
M 931 1641 
Q 931 1000 1190 694 
Q 1450 388 1819 388 
Q 2194 388 2461 705 
Q 2728 1022 2728 1688 
Q 2728 2322 2467 2637 
Q 2206 2953 1844 2953 
Q 1484 2953 1207 2617 
Q 931 2281 931 1641 
z
" transform="scale(0.015625)"/>
       <path id="ArialMT-2f" d="M 0 -78 
L 1328 4659 
L 1778 4659 
L 453 -78 
L 0 -78 
z
" transform="scale(0.015625)"/>
      </defs>
      <use xlink:href="#ArialMT-4c" transform="translate(0 0.203125)"/>
      <use xlink:href="#ArialMT-6f" transform="translate(55.615234 0.203125)"/>
      <use xlink:href="#ArialMT-67" transform="translate(111.230469 0.203125)"/>
      <use xlink:href="#DejaVuSans-31" transform="translate(167.802734 -16.203125) scale(0.7)"/>
      <use xlink:href="#DejaVuSans-30" transform="translate(212.338867 -16.203125) scale(0.7)"/>
      <use xlink:href="#ArialMT-20" transform="translate(259.609375 0.203125)"/>
      <use xlink:href="#ArialMT-56" transform="translate(287.392578 0.203125)"/>
      <use xlink:href="#ArialMT-69" transform="translate(354.091797 0.203125)"/>
      <use xlink:href="#ArialMT-72" transform="translate(376.308594 0.203125)"/>
      <use xlink:href="#ArialMT-75" transform="translate(409.609375 0.203125)"/>
      <use xlink:href="#ArialMT-73" transform="translate(465.224609 0.203125)"/>
      <use xlink:href="#ArialMT-20" transform="translate(515.224609 0.203125)"/>
      <use xlink:href="#ArialMT-28" transform="translate(543.007812 0.203125)"/>
      <use xlink:href="#ArialMT-63" transform="translate(576.308594 0.203125)"/>
      <use xlink:href="#ArialMT-6f" transform="translate(626.308594 0.203125)"/>
      <use xlink:href="#ArialMT-70" transform="translate(681.923828 0.203125)"/>
      <use xlink:href="#ArialMT-69" transform="translate(737.539062 0.203125)"/>
      <use xlink:href="#ArialMT-65" transform="translate(759.755859 0.203125)"/>
      <use xlink:href="#ArialMT-73" transform="translate(815.371094 0.203125)"/>
      <use xlink:href="#ArialMT-2f" transform="translate(865.371094 0.203125)"/>
      <use xlink:href="#ArialMT-6d" transform="translate(893.154297 0.203125)"/>
      <use xlink:href="#ArialMT-4c" transform="translate(976.455078 0.203125)"/>
      <use xlink:href="#ArialMT-29" transform="translate(1032.070312 0.203125)"/>
     </g>
    </g>
   </g>
   <g id="patch_3">
    <path d="M 180 320.4 
L 180 43.2 
" style="fill: none; stroke: #262626; stroke-width: 1.25; stroke-linejoin: miter; stroke-linecap: square"/>
   </g>
   <g id="patch_4">
    <path d="M 407.755102 320.4 
L 407.755102 43.2 
" style="fill: none; stroke: #262626; stroke-width: 1.25; stroke-linejoin: miter; stroke-linecap: square"/>
   </g>
   <g id="patch_5">
    <path d="M 180 320.4 
L 407.755102 320.4 
" style="fill: none; stroke: #262626; stroke-width: 1.25; stroke-linejoin: miter; stroke-linecap: square"/>
   </g>
   <g id="patch_6">
    <path d="M 180 43.2 
L 407.755102 43.2 
" style="fill: none; stroke: #262626; stroke-width: 1.25; stroke-linejoin: miter; stroke-linecap: square"/>
   </g>
   <g id="PolyCollection_1">
    <defs>
     <path id="md3361acdea" d="M 186.698679 -39.6 
L 186.698679 -39.6 
L 186.699114 -39.6 
L 186.703464 -39.6 
L 186.746955 -39.6 
L 186.996377 -39.6 
L 187.141468 -39.6 
L 187.716345 -39.6 
L 188.014312 -39.6 
L 189.132566 -50.399401 
L 189.658883 -54.819325 
L 191.50317 -65.076537 
L 192.262885 -68.056687 
L 194.364167 -74.787949 
L 195.350759 -77.629217 
L 197.612106 -83.831663 
L 198.782095 -86.98701 
L 201.071214 -93.145738 
L 202.374583 -96.539275 
L 204.611378 -102.119939 
L 206.011864 -105.607478 
L 208.293958 -111.303674 
L 209.789424 -115.030663 
L 212.110811 -120.831413 
L 213.691724 -124.778214 
L 216.028951 -130.613691 
L 217.672023 -134.718789 
L 220.249549 -141.078188 
L 221.87685 -145.064791 
L 224.187176 -150.718938 
L 225.874182 -154.854119 
L 228.401696 -161.033616 
L 230.078844 -165.143072 
L 232.401599 -170.81271 
L 234.131959 -175.046711 
L 236.65666 -181.197007 
L 238.381983 -185.405539 
L 240.763315 -191.181954 
L 242.542698 -195.494827 
L 245.142372 -201.750315 
L 246.93793 -206.046218 
L 249.617401 -212.382086 
L 251.465278 -216.68748 
L 254.144749 -222.798846 
L 256.090222 -227.093518 
L 258.769694 -232.774766 
L 260.840261 -236.875312 
L 263.437769 -241.660951 
L 266.035278 -245.839132 
L 268.714749 -249.234488 
L 270.938942 -251.268898 
L 273.163135 -252.769366 
L 275.387327 -253.578983 
L 277.61152 -253.371164 
L 279.835713 -253.029651 
L 282.059905 -252.593131 
L 284.284098 -252.077997 
L 286.276409 -251.564531 
L 288.3142 -250.991843 
L 290.351991 -250.370859 
L 292.389782 -249.713052 
L 294.095961 -249.128201 
L 295.925315 -248.472601 
L 297.471608 -247.89053 
L 299.074675 -247.264367 
L 300.42535 -246.715578 
L 301.867877 -246.109895 
L 303.101424 -245.573983 
L 304.385335 -244.999835 
L 305.523983 -244.474554 
L 306.691203 -243.921186 
L 307.858423 -243.320886 
L 308.905445 -242.769782 
L 309.993696 -242.182172 
L 311.081947 -241.580677 
L 312.170197 -240.965095 
L 313.258448 -240.334925 
L 314.346698 -239.687088 
L 315.434949 -239.017687 
L 316.5232 -238.330138 
L 317.61145 -237.642588 
L 318.699701 -236.924372 
L 319.787951 -236.17272 
L 320.900237 -235.39661 
L 322.048582 -234.57649 
L 324.728054 -232.515484 
L 326.184472 -231.343224 
L 328.863943 -228.972779 
L 330.602489 -227.33495 
L 333.28196 -224.101927 
L 335.262346 -221.028479 
L 337.941818 -215.745809 
L 340.119479 -210.095829 
L 342.798951 -201.008923 
L 343.334845 -198.615696 
L 344.004713 -195.056286 
L 344.731131 -190.954633 
L 344.920614 -189.772571 
L 345.01762 -189.167416 
L 345.02148 -189.143338 
L 345.060076 -188.902558 
L 345.103882 -188.629282 
L 345.180194 -188.149704 
L 345.256507 -187.666412 
L 345.360932 -187.005076 
L 345.465357 -186.34374 
L 345.595736 -185.518041 
L 345.757438 -184.493965 
L 346.074694 -182.484747 
L 347.251116 -175.076859 
L 348.016205 -170.225953 
L 349.788582 -158.888094 
L 350.792839 -152.388994 
L 352.972762 -137.208486 
L 354.15217 -127.840487 
L 356.314249 -109.99604 
L 357.648259 -98.955749 
L 359.95983 -79.803999 
L 361.402727 -67.836315 
L 363.773984 -48.226882 
L 365.296192 -41.009622 
L 367.678379 -39.6 
L 369.262581 -39.6 
L 371.638184 -39.6 
L 373.280556 -39.6 
L 375.672948 -39.6 
L 377.404356 -39.6 
L 379.949046 -39.6 
L 381.905369 -39.6 
L 384.584841 -39.6 
L 387.264313 -39.6 
L 389.943785 -39.6 
L 392.623257 -39.6 
L 395.302728 -39.6 
L 397.9822 -39.6 
L 400.661672 -39.6 
L 401.056423 -39.6 
L 401.056423 -39.6 
L 401.056423 -39.6 
L 400.661672 -39.6 
L 397.9822 -39.6 
L 395.302728 -39.6 
L 392.623257 -39.6 
L 389.943785 -39.6 
L 387.264313 -39.6 
L 384.584841 -39.6 
L 381.905369 -39.6 
L 379.949046 -39.6 
L 377.404356 -39.6 
L 375.672948 -41.42908 
L 373.280556 -50.152808 
L 371.638184 -59.015204 
L 369.262581 -71.834601 
L 367.678379 -80.383531 
L 365.296192 -93.407729 
L 363.773984 -101.946675 
L 361.402727 -115.247768 
L 359.95983 -123.332676 
L 357.648259 -136.50902 
L 356.314249 -144.450203 
L 354.15217 -157.319544 
L 352.972762 -164.460677 
L 350.792839 -177.581761 
L 349.788582 -183.612777 
L 348.016205 -194.206522 
L 347.251116 -198.759977 
L 346.074694 -204.301708 
L 345.757438 -205.586518 
L 345.595736 -206.18979 
L 345.465357 -206.6762 
L 345.360932 -207.065786 
L 345.256507 -207.375886 
L 345.180194 -207.632602 
L 345.103882 -207.915514 
L 345.060076 -208.077916 
L 345.02148 -208.221005 
L 345.01762 -208.235314 
L 344.920614 -208.581305 
L 344.731131 -209.132211 
L 344.004713 -211.306978 
L 343.334845 -213.401863 
L 342.798951 -214.634116 
L 340.119479 -220.445645 
L 337.941818 -224.157691 
L 335.262346 -228.085398 
L 333.28196 -231.158299 
L 330.602489 -234.645696 
L 328.863943 -236.702497 
L 326.184472 -239.427709 
L 324.728054 -240.762785 
L 322.048582 -243.008574 
L 320.900237 -243.89953 
L 319.787951 -244.721852 
L 318.699701 -245.495664 
L 317.61145 -246.240745 
L 316.5232 -246.955188 
L 315.434949 -247.64338 
L 314.346698 -248.306931 
L 313.258448 -248.947445 
L 312.170197 -249.563654 
L 311.081947 -250.15721 
L 309.993696 -250.730853 
L 308.905445 -251.284639 
L 307.858423 -251.798554 
L 306.691203 -252.35194 
L 305.523983 -252.883486 
L 304.385335 -253.383213 
L 303.101424 -253.92333 
L 301.867877 -254.465524 
L 300.42535 -255.133498 
L 299.074675 -255.737814 
L 297.471608 -256.405833 
L 295.925315 -257.029618 
L 294.095961 -257.7137 
L 292.389782 -258.308698 
L 290.351991 -258.941974 
L 288.3142 -259.475541 
L 286.276409 -259.901815 
L 284.284098 -260.168668 
L 282.059905 -260.273328 
L 279.835713 -260.110313 
L 277.61152 -259.94455 
L 275.387327 -259.757872 
L 273.163135 -259.252817 
L 270.938942 -258.530008 
L 268.714749 -258.115099 
L 266.035278 -257.275321 
L 263.437769 -255.975815 
L 260.840261 -254.231787 
L 258.769694 -252.191533 
L 256.090222 -248.804488 
L 254.144749 -245.607019 
L 251.465278 -240.527506 
L 249.617401 -236.434478 
L 246.93793 -230.052305 
L 245.142372 -225.416741 
L 242.542698 -218.472251 
L 240.763315 -213.539939 
L 238.381983 -206.844208 
L 236.65666 -201.903535 
L 234.131959 -194.640162 
L 232.401599 -189.616155 
L 230.078844 -182.864535 
L 228.401696 -177.96098 
L 225.874182 -170.57951 
L 224.187176 -165.639195 
L 221.87685 -158.877735 
L 220.249549 -154.101809 
L 217.672023 -146.553565 
L 216.028951 -141.739387 
L 213.691724 -134.879768 
L 212.110811 -130.241468 
L 209.789424 -123.434106 
L 208.293958 -119.052525 
L 206.011864 -112.359273 
L 204.611378 -108.259186 
L 202.374583 -101.700911 
L 201.071214 -97.891373 
L 198.782095 -91.262534 
L 197.612106 -87.9298 
L 195.350759 -81.497736 
L 194.364167 -78.564584 
L 192.262885 -71.429623 
L 191.50317 -68.161909 
L 189.658883 -57.20153 
L 189.132566 -52.397379 
L 188.014312 -40.083732 
L 187.716345 -39.6 
L 187.141468 -39.6 
L 186.996377 -39.6 
L 186.746955 -39.6 
L 186.703464 -39.6 
L 186.699114 -39.6 
L 186.698679 -39.6 
z
" style="stroke: #800080; stroke-opacity: 0.2"/>
    </defs>
    <g clip-path="url(#pd1196e1410)">
     <use xlink:href="#md3361acdea" x="0" y="360" style="fill: #800080; fill-opacity: 0.2; stroke: #800080; stroke-opacity: 0.2"/>
    </g>
   </g>
   <g id="PathCollection_1">
    <defs>
     <path id="m2ff727a9c1" d="M 0 4.330127 
C 1.148363 4.330127 2.249847 3.873878 3.061862 3.061862 
C 3.873878 2.249847 4.330127 1.148363 4.330127 0 
C 4.330127 -1.148363 3.873878 -2.249847 3.061862 -3.061862 
C 2.249847 -3.873878 1.148363 -4.330127 0 -4.330127 
C -1.148363 -4.330127 -2.249847 -3.873878 -3.061862 -3.061862 
C -3.873878 -2.249847 -4.330127 -1.148363 -4.330127 0 
C -4.330127 1.148363 -3.873878 2.249847 -3.061862 3.061862 
C -2.249847 3.873878 -1.148363 4.330127 0 4.330127 
z
" style="stroke: #800080; stroke-opacity: 0.8"/>
    </defs>
    <g clip-path="url(#pd1196e1410)">
     <use xlink:href="#m2ff727a9c1" x="186.698679" y="320.4" style="fill: #800080; fill-opacity: 0.8; stroke: #800080; stroke-opacity: 0.8"/>
     <use xlink:href="#m2ff727a9c1" x="213.493397" y="210.672942" style="fill: #800080; fill-opacity: 0.8; stroke: #800080; stroke-opacity: 0.8"/>
     <use xlink:href="#m2ff727a9c1" x="240.288115" y="157.44586" style="fill: #800080; fill-opacity: 0.8; stroke: #800080; stroke-opacity: 0.8"/>
     <use xlink:href="#m2ff727a9c1" x="267.082833" y="131.743725" style="fill: #800080; fill-opacity: 0.8; stroke: #800080; stroke-opacity: 0.8"/>
     <use xlink:href="#m2ff727a9c1" x="293.877551" y="94.423006" style="fill: #800080; fill-opacity: 0.8; stroke: #800080; stroke-opacity: 0.8"/>
     <use xlink:href="#m2ff727a9c1" x="320.672269" y="122.488363" style="fill: #800080; fill-opacity: 0.8; stroke: #800080; stroke-opacity: 0.8"/>
     <use xlink:href="#m2ff727a9c1" x="347.466987" y="168.464154" style="fill: #800080; fill-opacity: 0.8; stroke: #800080; stroke-opacity: 0.8"/>
     <use xlink:href="#m2ff727a9c1" x="374.261705" y="320.4" style="fill: #800080; fill-opacity: 0.8; stroke: #800080; stroke-opacity: 0.8"/>
    </g>
   </g>
   <g id="line2d_1">
    <path d="M 186.698679 320.4 
L 188.014312 320.4 
L 189.658883 303.318657 
L 191.50317 292.51405 
L 192.262885 289.374394 
L 194.364167 282.360862 
L 197.612106 273.32171 
L 240.763315 158.756785 
L 246.93793 142.949484 
L 251.465278 131.996578 
L 254.144749 125.991763 
L 256.090222 121.954582 
L 258.769694 116.95573 
L 260.840261 113.609938 
L 263.437769 110.13088 
L 266.035278 107.463649 
L 268.714749 105.514588 
L 270.938942 104.439206 
L 273.163135 103.774749 
L 275.387327 103.441526 
L 277.61152 103.368119 
L 279.835713 103.495518 
L 282.059905 103.777728 
L 286.276409 104.623345 
L 290.351991 105.720345 
L 295.925315 107.556508 
L 300.42535 109.293243 
L 305.523983 111.540416 
L 309.993696 113.775719 
L 314.346698 116.222235 
L 318.699701 118.981684 
L 322.048582 121.363762 
L 326.184472 124.705336 
L 328.863943 127.178197 
L 330.602489 128.951223 
L 333.28196 132.022095 
L 335.262346 134.639602 
L 337.941818 138.867948 
L 340.119479 143.203401 
L 342.798951 150.609346 
L 344.004713 155.385106 
L 345.465357 163.251184 
L 350.792839 194.42837 
L 371.638184 318.602163 
L 373.280556 320.4 
L 401.056423 320.4 
L 401.056423 320.4 
" clip-path="url(#pd1196e1410)" style="fill: none; stroke: #800080; stroke-width: 1.5; stroke-linecap: round"/>
   </g>
  </g>
  <g id="axes_2">
   <g id="patch_7">
    <path d="M 476.081633 320.4 
L 703.836735 320.4 
L 703.836735 43.2 
L 476.081633 43.2 
z
" style="fill: #ffffff"/>
   </g>
   <g id="matplotlib.axis_3">
    <g id="xtick_6">
     <g id="text_13">
      <!-- 0 -->
      <g style="fill: #262626" transform="translate(474.10525 352.232375) scale(0.312 -0.312)">
       <use xlink:href="#ArialMT-30"/>
      </g>
     </g>
    </g>
    <g id="xtick_7">
     <g id="text_14">
      <!-- 2 -->
      <g style="fill: #262626" transform="translate(527.694685 352.232375) scale(0.312 -0.312)">
       <use xlink:href="#ArialMT-32"/>
      </g>
     </g>
    </g>
    <g id="xtick_8">
     <g id="text_15">
      <!-- 4 -->
      <g style="fill: #262626" transform="translate(581.284121 352.232375) scale(0.312 -0.312)">
       <use xlink:href="#ArialMT-34"/>
      </g>
     </g>
    </g>
    <g id="xtick_9">
     <g id="text_16">
      <!-- 6 -->
      <g style="fill: #262626" transform="translate(634.873557 352.232375) scale(0.312 -0.312)">
       <use xlink:href="#ArialMT-36"/>
      </g>
     </g>
    </g>
    <g id="xtick_10">
     <g id="text_17">
      <!-- 8 -->
      <g style="fill: #262626" transform="translate(688.462993 352.232375) scale(0.312 -0.312)">
       <use xlink:href="#ArialMT-38"/>
      </g>
     </g>
    </g>
    <g id="text_18">
     <!-- Time (d) -->
     <g style="fill: #262626" transform="translate(537.272621 383.253281) scale(0.286 -0.286)">
      <use xlink:href="#ArialMT-54"/>
      <use xlink:href="#ArialMT-69" x="57.333984"/>
      <use xlink:href="#ArialMT-6d" x="79.550781"/>
      <use xlink:href="#ArialMT-65" x="162.851562"/>
      <use xlink:href="#ArialMT-20" x="218.466797"/>
      <use xlink:href="#ArialMT-28" x="246.25"/>
      <use xlink:href="#ArialMT-64" x="279.550781"/>
      <use xlink:href="#ArialMT-29" x="335.166016"/>
     </g>
    </g>
   </g>
   <g id="matplotlib.axis_4">
    <g id="ytick_6">
     <g id="text_19">
      <!-- 4 -->
      <g style="fill: #262626" transform="translate(449.231508 269.966187) scale(0.312 -0.312)">
       <use xlink:href="#ArialMT-34"/>
      </g>
     </g>
    </g>
    <g id="ytick_7">
     <g id="text_20">
      <!-- 6 -->
      <g style="fill: #262626" transform="translate(449.231508 146.766188) scale(0.312 -0.312)">
       <use xlink:href="#ArialMT-36"/>
      </g>
     </g>
    </g>
    <g id="text_21">
     <!-- Log$_{10}$ CD8$^+$ T cells -->
     <g style="fill: #262626" transform="translate(438.939508 309.642) rotate(-90) scale(0.286 -0.286)">
      <defs>
       <path id="ArialMT-43" d="M 3763 1606 
L 4369 1453 
Q 4178 706 3683 314 
Q 3188 -78 2472 -78 
Q 1731 -78 1267 223 
Q 803 525 561 1097 
Q 319 1669 319 2325 
Q 319 3041 592 3573 
Q 866 4106 1370 4382 
Q 1875 4659 2481 4659 
Q 3169 4659 3637 4309 
Q 4106 3959 4291 3325 
L 3694 3184 
Q 3534 3684 3231 3912 
Q 2928 4141 2469 4141 
Q 1941 4141 1586 3887 
Q 1231 3634 1087 3207 
Q 944 2781 944 2328 
Q 944 1744 1114 1308 
Q 1284 872 1643 656 
Q 2003 441 2422 441 
Q 2931 441 3284 734 
Q 3638 1028 3763 1606 
z
" transform="scale(0.015625)"/>
       <path id="ArialMT-44" d="M 494 0 
L 494 4581 
L 2072 4581 
Q 2606 4581 2888 4516 
Q 3281 4425 3559 4188 
Q 3922 3881 4101 3404 
Q 4281 2928 4281 2316 
Q 4281 1794 4159 1391 
Q 4038 988 3847 723 
Q 3656 459 3429 307 
Q 3203 156 2883 78 
Q 2563 0 2147 0 
L 494 0 
z
M 1100 541 
L 2078 541 
Q 2531 541 2789 625 
Q 3047 709 3200 863 
Q 3416 1078 3536 1442 
Q 3656 1806 3656 2325 
Q 3656 3044 3420 3430 
Q 3184 3816 2847 3947 
Q 2603 4041 2063 4041 
L 1100 4041 
L 1100 541 
z
" transform="scale(0.015625)"/>
       <path id="DejaVuSans-2b" d="M 2944 4013 
L 2944 2272 
L 4684 2272 
L 4684 1741 
L 2944 1741 
L 2944 0 
L 2419 0 
L 2419 1741 
L 678 1741 
L 678 2272 
L 2419 2272 
L 2419 4013 
L 2944 4013 
z
" transform="scale(0.015625)"/>
       <path id="ArialMT-6c" d="M 409 0 
L 409 4581 
L 972 4581 
L 972 0 
L 409 0 
z
" transform="scale(0.015625)"/>
      </defs>
      <use xlink:href="#ArialMT-4c" transform="translate(0 0.826562)"/>
      <use xlink:href="#ArialMT-6f" transform="translate(55.615234 0.826562)"/>
      <use xlink:href="#ArialMT-67" transform="translate(111.230469 0.826562)"/>
      <use xlink:href="#DejaVuSans-31" transform="translate(167.802734 -15.579688) scale(0.7)"/>
      <use xlink:href="#DejaVuSans-30" transform="translate(212.338867 -15.579688) scale(0.7)"/>
      <use xlink:href="#ArialMT-20" transform="translate(259.609375 0.826562)"/>
      <use xlink:href="#ArialMT-43" transform="translate(287.392578 0.826562)"/>
      <use xlink:href="#ArialMT-44" transform="translate(359.609375 0.826562)"/>
      <use xlink:href="#ArialMT-38" transform="translate(431.826172 0.826562)"/>
      <use xlink:href="#DejaVuSans-2b" transform="translate(502.036133 39.107812) scale(0.7)"/>
      <use xlink:href="#ArialMT-20" transform="translate(577.060547 0.826562)"/>
      <use xlink:href="#ArialMT-54" transform="translate(604.84375 0.826562)"/>
      <use xlink:href="#ArialMT-20" transform="translate(665.927734 0.826562)"/>
      <use xlink:href="#ArialMT-63" transform="translate(693.710938 0.826562)"/>
      <use xlink:href="#ArialMT-65" transform="translate(743.710938 0.826562)"/>
      <use xlink:href="#ArialMT-6c" transform="translate(799.326172 0.826562)"/>
      <use xlink:href="#ArialMT-6c" transform="translate(821.542969 0.826562)"/>
      <use xlink:href="#ArialMT-73" transform="translate(843.759766 0.826562)"/>
     </g>
    </g>
   </g>
   <g id="patch_8">
    <path d="M 476.081633 320.4 
L 476.081633 43.2 
" style="fill: none; stroke: #262626; stroke-width: 1.25; stroke-linejoin: miter; stroke-linecap: square"/>
   </g>
   <g id="patch_9">
    <path d="M 703.836735 320.4 
L 703.836735 43.2 
" style="fill: none; stroke: #262626; stroke-width: 1.25; stroke-linejoin: miter; stroke-linecap: square"/>
   </g>
   <g id="patch_10">
    <path d="M 476.081633 320.4 
L 703.836735 320.4 
" style="fill: none; stroke: #262626; stroke-width: 1.25; stroke-linejoin: miter; stroke-linecap: square"/>
   </g>
   <g id="patch_11">
    <path d="M 476.081633 43.2 
L 703.836735 43.2 
" style="fill: none; stroke: #262626; stroke-width: 1.25; stroke-linejoin: miter; stroke-linecap: square"/>
   </g>
   <g id="PolyCollection_2">
    <defs>
     <path id="ma62b6422d2" d="M 482.780312 -148.247113 
L 482.780312 -148.247113 
L 482.780747 -148.247113 
L 482.785096 -148.247113 
L 482.828588 -148.247113 
L 483.07801 -148.247113 
L 483.2231 -148.247113 
L 483.797978 -148.247113 
L 484.095945 -148.247113 
L 485.214198 -148.247113 
L 485.740516 -148.247113 
L 487.584802 -148.247113 
L 488.344518 -148.247113 
L 490.4458 -148.247113 
L 491.432391 -148.247113 
L 493.693738 -148.247113 
L 494.863728 -148.247113 
L 497.152846 -148.247113 
L 498.456216 -148.247113 
L 500.693011 -148.247114 
L 502.093497 -148.247116 
L 504.37559 -148.247122 
L 505.871056 -148.24713 
L 508.192444 -148.247153 
L 509.773356 -148.247181 
L 512.110583 -148.247247 
L 513.753656 -148.247324 
L 516.331182 -148.247517 
L 517.958482 -148.247715 
L 520.268809 -148.248109 
L 521.955815 -148.248558 
L 524.483328 -148.249523 
L 526.160476 -148.250352 
L 528.483232 -148.252131 
L 530.213591 -148.253782 
L 532.738293 -148.257743 
L 534.463615 -148.261163 
L 536.844948 -148.268674 
L 538.624331 -148.276099 
L 541.224005 -148.292846 
L 543.019562 -148.308623 
L 545.699034 -148.345446 
L 547.54691 -148.379783 
L 550.226382 -148.459557 
L 552.171855 -148.536662 
L 554.851327 -148.711072 
L 556.921894 -148.892291 
L 559.519402 -149.255475 
L 562.11691 -149.778444 
L 564.796382 -150.613676 
L 567.020575 -151.569799 
L 569.244767 -152.831427 
L 571.46896 -154.521708 
L 573.693153 -156.676107 
L 575.917345 -159.329804 
L 578.141538 -162.490233 
L 580.365731 -166.096749 
L 582.358042 -169.639798 
L 584.395833 -173.455635 
L 586.433624 -177.380782 
L 588.471414 -181.329521 
L 590.177593 -184.60175 
L 592.006948 -188.036485 
L 593.553241 -190.803913 
L 595.156308 -193.568797 
L 596.506983 -195.83009 
L 597.94951 -198.0608 
L 599.183057 -199.916003 
L 600.466968 -201.716555 
L 601.605616 -203.246616 
L 602.772836 -204.71694 
L 603.940055 -206.115736 
L 604.987078 -207.28722 
L 606.075329 -208.088535 
L 607.163579 -208.699841 
L 608.25183 -209.140186 
L 609.34008 -209.510446 
L 610.428331 -209.835759 
L 611.516582 -210.14704 
L 612.604832 -210.376948 
L 613.693083 -210.606856 
L 614.781333 -210.783606 
L 615.869584 -210.9359 
L 616.981869 -211.076385 
L 618.130215 -211.171682 
L 620.809687 -211.330824 
L 622.266104 -211.379998 
L 624.945576 -211.385247 
L 626.684121 -211.34642 
L 629.363593 -211.248825 
L 631.343978 -211.148114 
L 634.02345 -210.984333 
L 636.201112 -210.833393 
L 638.880583 -210.631461 
L 639.416478 -210.589059 
L 640.086346 -210.535215 
L 640.812763 -210.476319 
L 641.002247 -210.460772 
L 641.099253 -210.452812 
L 641.103112 -210.452496 
L 641.141709 -210.449329 
L 641.185515 -210.445735 
L 641.261827 -210.439439 
L 641.338139 -210.43311 
L 641.442565 -210.42445 
L 641.54699 -210.41579 
L 641.677368 -210.404978 
L 641.83907 -210.391568 
L 642.156327 -210.365258 
L 643.332749 -210.266127 
L 644.097837 -210.201035 
L 645.870214 -210.048413 
L 646.874472 -209.960812 
L 649.054394 -209.769098 
L 650.233803 -209.664259 
L 652.395881 -209.471242 
L 653.729891 -209.351258 
L 656.041463 -209.142864 
L 657.484359 -209.012255 
L 659.855617 -208.797294 
L 661.377824 -208.659039 
L 663.760011 -208.442525 
L 665.344213 -208.298446 
L 667.719816 -208.08236 
L 669.362188 -207.932979 
L 671.754581 -207.71543 
L 673.485988 -207.558062 
L 676.030679 -207.046173 
L 677.987002 -206.651601 
L 680.666474 -206.112316 
L 683.345946 -205.57438 
L 686.025417 -205.037817 
L 688.704889 -204.502685 
L 691.384361 -203.96902 
L 694.063833 -203.436854 
L 696.743305 -202.906077 
L 697.138055 -202.82798 
L 697.138055 -220.73316 
L 697.138055 -220.73316 
L 696.743305 -220.753559 
L 694.063833 -220.892039 
L 691.384361 -221.030559 
L 688.704889 -221.169119 
L 686.025417 -221.307712 
L 683.345946 -221.446331 
L 680.666474 -221.584963 
L 677.987002 -221.723591 
L 676.030679 -221.824787 
L 673.485988 -222.052219 
L 671.754581 -222.222621 
L 669.362188 -222.457857 
L 667.719816 -222.618999 
L 665.344213 -222.851646 
L 663.760011 -223.006139 
L 661.377824 -223.237655 
L 659.855617 -223.384482 
L 657.484359 -223.611623 
L 656.041463 -223.74825 
L 653.729891 -223.964555 
L 652.395881 -224.086979 
L 650.233803 -224.282024 
L 649.054394 -224.385092 
L 646.874472 -224.570759 
L 645.870214 -224.652603 
L 644.097837 -224.792085 
L 643.332749 -224.849431 
L 642.156327 -224.933755 
L 641.83907 -224.955662 
L 641.677368 -224.966693 
L 641.54699 -224.975478 
L 641.442565 -224.982514 
L 641.338139 -224.989455 
L 641.261827 -224.994449 
L 641.185515 -224.999444 
L 641.141709 -225.002311 
L 641.103112 -225.004837 
L 641.099253 -225.005089 
L 641.002247 -225.011438 
L 640.812763 -225.023839 
L 640.086346 -225.069015 
L 639.416478 -225.109055 
L 638.880583 -225.138187 
L 636.201112 -225.260187 
L 634.02345 -225.322379 
L 631.343978 -225.394655 
L 629.363593 -225.456269 
L 626.684121 -225.482679 
L 624.945576 -225.466424 
L 622.266104 -225.400356 
L 620.809687 -225.385268 
L 618.130215 -225.263142 
L 616.981869 -225.184766 
L 615.869584 -225.078835 
L 614.781333 -224.950175 
L 613.693083 -224.795314 
L 612.604832 -224.61131 
L 611.516582 -224.393288 
L 610.428331 -224.140839 
L 609.34008 -223.851138 
L 608.25183 -223.518497 
L 607.163579 -223.140334 
L 606.075329 -222.714869 
L 604.987078 -222.238309 
L 603.940055 -221.723393 
L 602.772836 -221.086208 
L 601.605616 -220.375585 
L 600.466968 -219.607874 
L 599.183057 -218.644847 
L 597.94951 -217.61674 
L 596.506983 -216.282531 
L 595.156308 -214.898068 
L 593.553241 -213.075141 
L 592.006948 -211.11512 
L 590.177593 -208.539432 
L 588.471414 -205.881893 
L 586.433624 -202.825298 
L 584.395833 -199.725221 
L 582.358042 -196.348794 
L 580.365731 -192.705897 
L 578.141538 -188.331713 
L 575.917345 -183.638422 
L 573.693153 -178.782432 
L 571.46896 -173.894638 
L 569.244767 -169.152454 
L 567.020575 -164.767693 
L 564.796382 -160.869249 
L 562.11691 -156.96768 
L 559.519402 -154.156724 
L 556.921894 -152.090639 
L 554.851327 -150.954194 
L 552.171855 -149.894726 
L 550.226382 -149.411401 
L 547.54691 -148.937476 
L 545.699034 -148.74461 
L 543.019562 -148.538855 
L 541.224005 -148.459678 
L 538.624331 -148.373955 
L 536.844948 -148.338563 
L 534.463615 -148.304754 
L 532.738293 -148.288831 
L 530.213591 -148.272758 
L 528.483232 -148.265293 
L 526.160476 -148.259008 
L 524.483328 -148.25571 
L 521.955815 -148.252519 
L 520.268809 -148.250977 
L 517.958482 -148.249602 
L 516.331182 -148.248898 
L 513.753656 -148.24816 
L 512.110583 -148.247827 
L 509.773356 -148.24752 
L 508.192444 -148.247377 
L 505.871056 -148.247247 
L 504.37559 -148.247193 
L 502.093497 -148.247147 
L 500.693011 -148.247131 
L 498.456216 -148.247119 
L 497.152846 -148.247115 
L 494.863728 -148.247113 
L 493.693738 -148.247113 
L 491.432391 -148.247113 
L 490.4458 -148.247113 
L 488.344518 -148.247113 
L 487.584802 -148.247113 
L 485.740516 -148.247113 
L 485.214198 -148.247113 
L 484.095945 -148.247113 
L 483.797978 -148.247113 
L 483.2231 -148.247113 
L 483.07801 -148.247113 
L 482.828588 -148.247113 
L 482.785096 -148.247113 
L 482.780747 -148.247113 
L 482.780312 -148.247113 
z
" style="stroke: #800080; stroke-opacity: 0.2"/>
    </defs>
    <g clip-path="url(#p8da3943fde)">
     <use xlink:href="#ma62b6422d2" x="0" y="360" style="fill: #800080; fill-opacity: 0.2; stroke: #800080; stroke-opacity: 0.2"/>
    </g>
   </g>
   <g id="PolyCollection_3">
    <defs>
     <path id="md7bd476e7b" d="M 482.780312 -91.32346 
L 482.780312 -91.32346 
L 482.780747 -91.32346 
L 482.785096 -91.32346 
L 482.828588 -91.32346 
L 483.07801 -91.32346 
L 483.2231 -91.32346 
L 483.797978 -91.32346 
L 484.095945 -91.32346 
L 485.214198 -91.32346 
L 485.740516 -91.32346 
L 487.584802 -91.32346 
L 488.344518 -91.32346 
L 490.4458 -91.32346 
L 491.432391 -91.32346 
L 493.693738 -91.32346 
L 494.863728 -91.32346 
L 497.152846 -91.32346 
L 498.456216 -91.32346 
L 500.693011 -91.32346 
L 502.093497 -91.32346 
L 504.37559 -91.32346 
L 505.871056 -91.32346 
L 508.192444 -91.32346 
L 509.773356 -91.32346 
L 512.110583 -91.32346 
L 513.753656 -91.32346 
L 516.331182 -91.32346 
L 517.958482 -91.32346 
L 520.268809 -91.323461 
L 521.955815 -91.323461 
L 524.483328 -91.323464 
L 526.160476 -91.323466 
L 528.483232 -91.323472 
L 530.213591 -91.323478 
L 532.738293 -91.323494 
L 534.463615 -91.323509 
L 536.844948 -91.323543 
L 538.624331 -91.323578 
L 541.224005 -91.323657 
L 543.019562 -91.323734 
L 545.699034 -91.323911 
L 547.54691 -91.324081 
L 550.226382 -91.324469 
L 552.171855 -91.32485 
L 554.851327 -91.325704 
L 556.921894 -91.326605 
L 559.519402 -91.328433 
L 562.11691 -91.331172 
L 564.796382 -91.335605 
L 567.020575 -91.340971 
L 569.244767 -91.349273 
L 571.46896 -91.361334 
L 573.693153 -91.378185 
L 575.917345 -91.402322 
L 578.141538 -91.437073 
L 580.365731 -91.48701 
L 582.358042 -91.55057 
L 584.395833 -91.639735 
L 586.433624 -91.760765 
L 588.471414 -91.926817 
L 590.177593 -92.105553 
L 592.006948 -92.356819 
L 593.553241 -92.617032 
L 595.156308 -92.949675 
L 596.506983 -93.284243 
L 597.94951 -93.700831 
L 599.183057 -94.136243 
L 600.466968 -94.614075 
L 601.605616 -95.084908 
L 602.772836 -95.635952 
L 603.940055 -96.252985 
L 604.987078 -96.806477 
L 606.075329 -97.465114 
L 607.163579 -98.130465 
L 608.25183 -98.697255 
L 609.34008 -99.282054 
L 610.428331 -99.883953 
L 611.516582 -100.499817 
L 612.604832 -101.126858 
L 613.693083 -101.763123 
L 614.781333 -102.406676 
L 615.869584 -103.055642 
L 616.981869 -103.72271 
L 618.130215 -104.413471 
L 620.809687 -106.022903 
L 622.266104 -106.890868 
L 624.945576 -108.457845 
L 626.684121 -109.412733 
L 629.363593 -110.802909 
L 631.343978 -111.788569 
L 634.02345 -113.083541 
L 636.201112 -114.08984 
L 638.880583 -115.283113 
L 639.416478 -115.510788 
L 640.086346 -115.774304 
L 640.812763 -116.056517 
L 641.002247 -116.129541 
L 641.099253 -116.166921 
L 641.103112 -116.168391 
L 641.141709 -116.183095 
L 641.185515 -116.199784 
L 641.261827 -116.228857 
L 641.338139 -116.257929 
L 641.442565 -116.297712 
L 641.54699 -116.337495 
L 641.677368 -116.387165 
L 641.83907 -116.448769 
L 642.156327 -116.569184 
L 643.332749 -117.006881 
L 644.097837 -117.288826 
L 645.870214 -117.92419 
L 646.874472 -118.27785 
L 649.054394 -119.021805 
L 650.233803 -119.415781 
L 652.395881 -120.114491 
L 653.729891 -120.535792 
L 656.041463 -121.242659 
L 657.484359 -121.673698 
L 659.855617 -122.356669 
L 661.377824 -122.785454 
L 663.760011 -123.434229 
L 665.344213 -123.855475 
L 667.719816 -124.467759 
L 669.362188 -124.880636 
L 671.754581 -125.464441 
L 673.485988 -125.876347 
L 676.030679 -126.463548 
L 677.987002 -126.903093 
L 680.666474 -127.487872 
L 683.345946 -128.053722 
L 686.025417 -128.601634 
L 688.704889 -129.132522 
L 691.384361 -129.647233 
L 694.063833 -130.146553 
L 696.743305 -130.632449 
L 697.138055 -130.70302 
L 697.138055 -152.705683 
L 697.138055 -152.705683 
L 696.743305 -152.619769 
L 694.063833 -152.030201 
L 691.384361 -151.422881 
L 688.704889 -150.795399 
L 686.025417 -150.146582 
L 683.345946 -149.475157 
L 680.666474 -148.779731 
L 677.987002 -148.059297 
L 676.030679 -147.516729 
L 673.485988 -146.786916 
L 671.754581 -146.275869 
L 669.362188 -145.545856 
L 667.719816 -145.030548 
L 665.344213 -144.259423 
L 663.760011 -143.730413 
L 661.377824 -142.906325 
L 659.855617 -142.364269 
L 657.484359 -141.488234 
L 656.041463 -140.939526 
L 653.729891 -140.026291 
L 652.395881 -139.484849 
L 650.233803 -138.571986 
L 649.054394 -138.059343 
L 646.874472 -137.079488 
L 645.870214 -136.612171 
L 644.097837 -135.767791 
L 643.332749 -135.390489 
L 642.156327 -134.802947 
L 641.83907 -134.642238 
L 641.677368 -134.559992 
L 641.54699 -134.492613 
L 641.442565 -134.438646 
L 641.338139 -134.38468 
L 641.261827 -134.345242 
L 641.185515 -134.305804 
L 641.141709 -134.283165 
L 641.103112 -134.263219 
L 641.099253 -134.261224 
L 641.002247 -134.211092 
L 640.812763 -134.113167 
L 640.086346 -133.731275 
L 639.416478 -133.373657 
L 638.880583 -133.083545 
L 636.201112 -131.579772 
L 634.02345 -130.281996 
L 631.343978 -128.609705 
L 629.363593 -127.288614 
L 626.684121 -125.427029 
L 624.945576 -124.134783 
L 622.266104 -122.076493 
L 620.809687 -120.884169 
L 618.130215 -118.637338 
L 616.981869 -117.63252 
L 615.869584 -116.638412 
L 614.781333 -115.649438 
L 613.693083 -114.645805 
L 612.604832 -113.629034 
L 611.516582 -112.599998 
L 610.428331 -111.560798 
L 609.34008 -110.514549 
L 608.25183 -109.465595 
L 607.163579 -108.416535 
L 606.075329 -107.370051 
L 604.987078 -106.332925 
L 603.940055 -105.348055 
L 602.772836 -104.265286 
L 601.605616 -103.205097 
L 600.466968 -102.206422 
L 599.183057 -101.119574 
L 597.94951 -100.120855 
L 596.506983 -99.06111 
L 595.156308 -98.170472 
L 593.553241 -97.186549 
L 592.006948 -96.314326 
L 590.177593 -95.401976 
L 588.471414 -94.655464 
L 586.433624 -93.894762 
L 584.395833 -93.281458 
L 582.358042 -92.789917 
L 580.365731 -92.410861 
L 578.141538 -92.090092 
L 575.917345 -91.856287 
L 573.693153 -91.694945 
L 571.46896 -91.579972 
L 569.244767 -91.499614 
L 567.020575 -91.442879 
L 564.796382 -91.404129 
L 562.11691 -91.373786 
L 559.519402 -91.355306 
L 556.921894 -91.343555 
L 554.851327 -91.337368 
L 552.171855 -91.332074 
L 550.226382 -91.329548 
L 547.54691 -91.32723 
L 545.699034 -91.326176 
L 543.019562 -91.325133 
L 541.224005 -91.32467 
L 538.624331 -91.32421 
L 536.844948 -91.324 
L 534.463615 -91.323805 
L 532.738293 -91.323708 
L 530.213591 -91.32361 
L 528.483232 -91.323566 
L 526.160476 -91.323524 
L 524.483328 -91.323504 
L 521.955815 -91.323484 
L 520.268809 -91.323476 
L 517.958482 -91.323468 
L 516.331182 -91.323465 
L 513.753656 -91.323462 
L 512.110583 -91.323461 
L 509.773356 -91.32346 
L 508.192444 -91.32346 
L 505.871056 -91.32346 
L 504.37559 -91.32346 
L 502.093497 -91.32346 
L 500.693011 -91.32346 
L 498.456216 -91.32346 
L 497.152846 -91.32346 
L 494.863728 -91.32346 
L 493.693738 -91.32346 
L 491.432391 -91.32346 
L 490.4458 -91.32346 
L 488.344518 -91.32346 
L 487.584802 -91.32346 
L 485.740516 -91.32346 
L 485.214198 -91.32346 
L 484.095945 -91.32346 
L 483.797978 -91.32346 
L 483.2231 -91.32346 
L 483.07801 -91.32346 
L 482.828588 -91.32346 
L 482.785096 -91.32346 
L 482.780747 -91.32346 
L 482.780312 -91.32346 
z
" style="stroke: #800080; stroke-opacity: 0.2"/>
    </defs>
    <g clip-path="url(#p8da3943fde)">
     <use xlink:href="#md7bd476e7b" x="0" y="360" style="fill: #800080; fill-opacity: 0.2; stroke: #800080; stroke-opacity: 0.2"/>
    </g>
   </g>
   <g id="PathCollection_2">
    <g clip-path="url(#p8da3943fde)">
     <use xlink:href="#m2ff727a9c1" x="482.780312" y="211.752887" style="fill: #800080; fill-opacity: 0.8; stroke: #800080; stroke-opacity: 0.8"/>
     <use xlink:href="#m2ff727a9c1" x="509.57503" y="194.374406" style="fill: #800080; fill-opacity: 0.8; stroke: #800080; stroke-opacity: 0.8"/>
     <use xlink:href="#m2ff727a9c1" x="563.164466" y="189.682111" style="fill: #800080; fill-opacity: 0.8; stroke: #800080; stroke-opacity: 0.8"/>
     <use xlink:href="#m2ff727a9c1" x="589.959184" y="166.802964" style="fill: #800080; fill-opacity: 0.8; stroke: #800080; stroke-opacity: 0.8"/>
     <use xlink:href="#m2ff727a9c1" x="616.753902" y="146.938807" style="fill: #800080; fill-opacity: 0.8; stroke: #800080; stroke-opacity: 0.8"/>
     <use xlink:href="#m2ff727a9c1" x="643.548619" y="143.185283" style="fill: #800080; fill-opacity: 0.8; stroke: #800080; stroke-opacity: 0.8"/>
     <use xlink:href="#m2ff727a9c1" x="670.343337" y="139.073351" style="fill: #800080; fill-opacity: 0.8; stroke: #800080; stroke-opacity: 0.8"/>
    </g>
   </g>
   <g id="PathCollection_3">
    <defs>
     <path id="md7228078d3" d="M -4.330127 4.330127 
L 4.330127 4.330127 
L 4.330127 -4.330127 
L -4.330127 -4.330127 
z
" style="stroke: #800080; stroke-opacity: 0.8"/>
    </defs>
    <g clip-path="url(#p8da3943fde)">
     <use xlink:href="#md7228078d3" x="482.780312" y="268.673476" style="fill: #800080; fill-opacity: 0.8; stroke: #800080; stroke-opacity: 0.8"/>
     <use xlink:href="#md7228078d3" x="509.57503" y="261.162308" style="fill: #800080; fill-opacity: 0.8; stroke: #800080; stroke-opacity: 0.8"/>
     <use xlink:href="#md7228078d3" x="536.369748" y="284.818387" style="fill: #800080; fill-opacity: 0.8; stroke: #800080; stroke-opacity: 0.8"/>
     <use xlink:href="#md7228078d3" x="563.164466" y="261.838464" style="fill: #800080; fill-opacity: 0.8; stroke: #800080; stroke-opacity: 0.8"/>
     <use xlink:href="#md7228078d3" x="589.959184" y="253.806891" style="fill: #800080; fill-opacity: 0.8; stroke: #800080; stroke-opacity: 0.8"/>
     <use xlink:href="#md7228078d3" x="616.753902" y="257.711186" style="fill: #800080; fill-opacity: 0.8; stroke: #800080; stroke-opacity: 0.8"/>
     <use xlink:href="#md7228078d3" x="643.548619" y="235.153212" style="fill: #800080; fill-opacity: 0.8; stroke: #800080; stroke-opacity: 0.8"/>
     <use xlink:href="#md7228078d3" x="670.343337" y="221.567336" style="fill: #800080; fill-opacity: 0.8; stroke: #800080; stroke-opacity: 0.8"/>
    </g>
   </g>
   <g id="line2d_2">
    <path d="M 482.780312 211.752887 
L 538.624331 211.663377 
L 545.699034 211.441041 
L 550.226382 211.065362 
L 552.171855 210.791418 
L 554.851327 210.233155 
L 556.921894 209.604524 
L 559.519402 208.470303 
L 562.11691 206.82488 
L 564.796382 204.44188 
L 567.020575 201.853837 
L 569.244767 198.681966 
L 571.46896 194.960653 
L 573.693153 190.783884 
L 578.141538 181.642817 
L 582.358042 172.94796 
L 584.395833 169.002607 
L 586.433624 165.315306 
L 588.471414 161.925897 
L 590.177593 159.332717 
L 592.006948 156.807313 
L 593.553241 154.876847 
L 596.506983 151.692759 
L 599.183057 149.341128 
L 601.605616 147.605707 
L 603.940055 146.246511 
L 606.075329 145.239101 
L 608.25183 144.413223 
L 610.428331 143.761394 
L 613.693083 143.05196 
L 616.981869 142.592187 
L 620.809687 142.290534 
L 624.945576 142.159617 
L 631.343978 142.195932 
L 643.332749 142.601614 
L 673.485988 143.976816 
L 697.138055 145.077902 
L 697.138055 145.077902 
" clip-path="url(#p8da3943fde)" style="fill: none; stroke: #800080; stroke-width: 1.5; stroke-linecap: round"/>
   </g>
   <g id="line2d_3">
    <path d="M 482.780312 268.67654 
L 571.46896 268.567239 
L 578.141538 268.337261 
L 582.358042 268.005447 
L 586.433624 267.433767 
L 590.177593 266.587673 
L 593.553241 265.483262 
L 596.506983 264.219539 
L 599.183057 262.833932 
L 602.772836 260.650785 
L 607.163579 257.597076 
L 614.781333 251.86926 
L 620.809687 247.442313 
L 624.945576 244.603064 
L 629.363593 241.786295 
L 634.02345 239.059964 
L 640.086346 235.862124 
L 644.097837 233.940076 
L 650.233803 231.257232 
L 657.484359 228.426106 
L 665.344213 225.696122 
L 673.485988 223.170181 
L 680.666474 221.152796 
L 688.704889 219.090075 
L 697.138055 217.114374 
L 697.138055 217.114374 
" clip-path="url(#p8da3943fde)" style="fill: none; stroke-dasharray: 5.55,2.4; stroke-dashoffset: 0; stroke: #800080; stroke-width: 1.5"/>
   </g>
  </g>
  <g id="text_22">
   <!-- Volunteer 107 -->
   <g style="fill: #262626" transform="translate(335.723625 29.532375) scale(0.312 -0.312)">
    <defs>
     <path id="ArialMT-6e" d="M 422 0 
L 422 3319 
L 928 3319 
L 928 2847 
Q 1294 3394 1984 3394 
Q 2284 3394 2536 3286 
Q 2788 3178 2913 3003 
Q 3038 2828 3088 2588 
Q 3119 2431 3119 2041 
L 3119 0 
L 2556 0 
L 2556 2019 
Q 2556 2363 2490 2533 
Q 2425 2703 2258 2804 
Q 2091 2906 1866 2906 
Q 1506 2906 1245 2678 
Q 984 2450 984 1813 
L 984 0 
L 422 0 
z
" transform="scale(0.015625)"/>
     <path id="ArialMT-74" d="M 1650 503 
L 1731 6 
Q 1494 -44 1306 -44 
Q 1000 -44 831 53 
Q 663 150 594 308 
Q 525 466 525 972 
L 525 2881 
L 113 2881 
L 113 3319 
L 525 3319 
L 525 4141 
L 1084 4478 
L 1084 3319 
L 1650 3319 
L 1650 2881 
L 1084 2881 
L 1084 941 
Q 1084 700 1114 631 
Q 1144 563 1211 522 
Q 1278 481 1403 481 
Q 1497 481 1650 503 
z
" transform="scale(0.015625)"/>
     <path id="ArialMT-31" d="M 2384 0 
L 1822 0 
L 1822 3584 
Q 1619 3391 1289 3197 
Q 959 3003 697 2906 
L 697 3450 
Q 1169 3672 1522 3987 
Q 1875 4303 2022 4600 
L 2384 4600 
L 2384 0 
z
" transform="scale(0.015625)"/>
     <path id="ArialMT-37" d="M 303 3981 
L 303 4522 
L 3269 4522 
L 3269 4084 
Q 2831 3619 2401 2847 
Q 1972 2075 1738 1259 
Q 1569 684 1522 0 
L 944 0 
Q 953 541 1156 1306 
Q 1359 2072 1739 2783 
Q 2119 3494 2547 3981 
L 303 3981 
z
" transform="scale(0.015625)"/>
    </defs>
    <use xlink:href="#ArialMT-56"/>
    <use xlink:href="#ArialMT-6f" x="61.199219"/>
    <use xlink:href="#ArialMT-6c" x="116.814453"/>
    <use xlink:href="#ArialMT-75" x="139.03125"/>
    <use xlink:href="#ArialMT-6e" x="194.646484"/>
    <use xlink:href="#ArialMT-74" x="250.261719"/>
    <use xlink:href="#ArialMT-65" x="278.044922"/>
    <use xlink:href="#ArialMT-65" x="333.660156"/>
    <use xlink:href="#ArialMT-72" x="389.275391"/>
    <use xlink:href="#ArialMT-20" x="422.576172"/>
    <use xlink:href="#ArialMT-31" x="450.359375"/>
    <use xlink:href="#ArialMT-30" x="505.974609"/>
    <use xlink:href="#ArialMT-37" x="561.589844"/>
   </g>
  </g>
 </g>
 <defs>
  <clipPath id="pd1196e1410">
   <rect x="180" y="43.2" width="227.755102" height="277.2"/>
  </clipPath>
  <clipPath id="p8da3943fde">
   <rect x="476.081633" y="43.2" width="227.755102" height="277.2"/>
  </clipPath>
 </defs>
</svg>
