<?xml version="1.0" encoding="utf-8" standalone="no"?>
<!DOCTYPE svg PUBLIC "-//W3C//DTD SVG 1.1//EN"
  "http://www.w3.org/Graphics/SVG/1.1/DTD/svg11.dtd">
<svg xmlns:xlink="http://www.w3.org/1999/xlink" width="1440pt" height="360pt" viewBox="0 0 1440 360" xmlns="http://www.w3.org/2000/svg" version="1.1">
 <metadata>
  <rdf:RDF xmlns:dc="http://purl.org/dc/elements/1.1/" xmlns:cc="http://creativecommons.org/ns#" xmlns:rdf="http://www.w3.org/1999/02/22-rdf-syntax-ns#">
   <cc:Work>
    <dc:type rdf:resource="http://purl.org/dc/dcmitype/StillImage"/>
    <dc:date>2025-01-15T18:59:29.674641</dc:date>
    <dc:format>image/svg+xml</dc:format>
    <dc:creator>
     <cc:Agent>
      <dc:title>Matplotlib v3.9.2, https://matplotlib.org/</dc:title>
     </cc:Agent>
    </dc:creator>
   </cc:Work>
  </rdf:RDF>
 </metadata>
 <defs>
  <style type="text/css">*{stroke-linejoin: round; stroke-linecap: butt}</style>
 </defs>
 <g id="figure_1">
  <g id="patch_1">
   <path d="M 0 360 
L 1440 360 
L 1440 0 
L 0 0 
z
" style="fill: #ffffff"/>
  </g>
  <g id="axes_1">
   <g id="patch_2">
    <path d="M 57.08 300.04 
L 353.803538 300.04 
L 353.803538 72 
L 57.08 72 
z
" style="fill: #ffffff"/>
   </g>
   <g id="matplotlib.axis_1">
    <g id="xtick_1">
     <g id="line2d_1">
      <defs>
       <path id="m94e7de4452" d="M 0 0 
L 0 3.5 
" style="stroke: #000000; stroke-width: 0.8"/>
      </defs>
      <g>
       <use xlink:href="#m94e7de4452" x="60.305256" y="300.04" style="stroke: #000000; stroke-width: 0.8"/>
      </g>
     </g>
     <g id="text_1">
      <!-- 0 -->
      <g transform="translate(54.579006 320.717188) scale(0.18 -0.18)">
       <defs>
        <path id="DejaVuSans-30" d="M 2034 4250 
Q 1547 4250 1301 3770 
Q 1056 3291 1056 2328 
Q 1056 1369 1301 889 
Q 1547 409 2034 409 
Q 2525 409 2770 889 
Q 3016 1369 3016 2328 
Q 3016 3291 2770 3770 
Q 2525 4250 2034 4250 
z
M 2034 4750 
Q 2819 4750 3233 4129 
Q 3647 3509 3647 2328 
Q 3647 1150 3233 529 
Q 2819 -91 2034 -91 
Q 1250 -91 836 529 
Q 422 1150 422 2328 
Q 422 3509 836 4129 
Q 1250 4750 2034 4750 
z
" transform="scale(0.015625)"/>
       </defs>
       <use xlink:href="#DejaVuSans-30"/>
      </g>
     </g>
    </g>
    <g id="xtick_2">
     <g id="line2d_2">
      <g>
       <use xlink:href="#m94e7de4452" x="92.557814" y="300.04" style="stroke: #000000; stroke-width: 0.8"/>
      </g>
     </g>
     <g id="text_2">
      <!-- 1 -->
      <g transform="translate(86.831564 320.717188) scale(0.18 -0.18)">
       <defs>
        <path id="DejaVuSans-31" d="M 794 531 
L 1825 531 
L 1825 4091 
L 703 3866 
L 703 4441 
L 1819 4666 
L 2450 4666 
L 2450 531 
L 3481 531 
L 3481 0 
L 794 0 
L 794 531 
z
" transform="scale(0.015625)"/>
       </defs>
       <use xlink:href="#DejaVuSans-31"/>
      </g>
     </g>
    </g>
    <g id="xtick_3">
     <g id="line2d_3">
      <g>
       <use xlink:href="#m94e7de4452" x="124.810373" y="300.04" style="stroke: #000000; stroke-width: 0.8"/>
      </g>
     </g>
     <g id="text_3">
      <!-- 2 -->
      <g transform="translate(119.084123 320.717188) scale(0.18 -0.18)">
       <defs>
        <path id="DejaVuSans-32" d="M 1228 531 
L 3431 531 
L 3431 0 
L 469 0 
L 469 531 
Q 828 903 1448 1529 
Q 2069 2156 2228 2338 
Q 2531 2678 2651 2914 
Q 2772 3150 2772 3378 
Q 2772 3750 2511 3984 
Q 2250 4219 1831 4219 
Q 1534 4219 1204 4116 
Q 875 4013 500 3803 
L 500 4441 
Q 881 4594 1212 4672 
Q 1544 4750 1819 4750 
Q 2544 4750 2975 4387 
Q 3406 4025 3406 3419 
Q 3406 3131 3298 2873 
Q 3191 2616 2906 2266 
Q 2828 2175 2409 1742 
Q 1991 1309 1228 531 
z
" transform="scale(0.015625)"/>
       </defs>
       <use xlink:href="#DejaVuSans-32"/>
      </g>
     </g>
    </g>
    <g id="xtick_4">
     <g id="line2d_4">
      <g>
       <use xlink:href="#m94e7de4452" x="157.062931" y="300.04" style="stroke: #000000; stroke-width: 0.8"/>
      </g>
     </g>
     <g id="text_4">
      <!-- 3 -->
      <g transform="translate(151.336681 320.717188) scale(0.18 -0.18)">
       <defs>
        <path id="DejaVuSans-33" d="M 2597 2516 
Q 3050 2419 3304 2112 
Q 3559 1806 3559 1356 
Q 3559 666 3084 287 
Q 2609 -91 1734 -91 
Q 1441 -91 1130 -33 
Q 819 25 488 141 
L 488 750 
Q 750 597 1062 519 
Q 1375 441 1716 441 
Q 2309 441 2620 675 
Q 2931 909 2931 1356 
Q 2931 1769 2642 2001 
Q 2353 2234 1838 2234 
L 1294 2234 
L 1294 2753 
L 1863 2753 
Q 2328 2753 2575 2939 
Q 2822 3125 2822 3475 
Q 2822 3834 2567 4026 
Q 2313 4219 1838 4219 
Q 1578 4219 1281 4162 
Q 984 4106 628 3988 
L 628 4550 
Q 988 4650 1302 4700 
Q 1616 4750 1894 4750 
Q 2613 4750 3031 4423 
Q 3450 4097 3450 3541 
Q 3450 3153 3228 2886 
Q 3006 2619 2597 2516 
z
" transform="scale(0.015625)"/>
       </defs>
       <use xlink:href="#DejaVuSans-33"/>
      </g>
     </g>
    </g>
    <g id="xtick_5">
     <g id="line2d_5">
      <g>
       <use xlink:href="#m94e7de4452" x="189.31549" y="300.04" style="stroke: #000000; stroke-width: 0.8"/>
      </g>
     </g>
     <g id="text_5">
      <!-- 4 -->
      <g transform="translate(183.58924 320.717188) scale(0.18 -0.18)">
       <defs>
        <path id="DejaVuSans-34" d="M 2419 4116 
L 825 1625 
L 2419 1625 
L 2419 4116 
z
M 2253 4666 
L 3047 4666 
L 3047 1625 
L 3713 1625 
L 3713 1100 
L 3047 1100 
L 3047 0 
L 2419 0 
L 2419 1100 
L 313 1100 
L 313 1709 
L 2253 4666 
z
" transform="scale(0.015625)"/>
       </defs>
       <use xlink:href="#DejaVuSans-34"/>
      </g>
     </g>
    </g>
    <g id="xtick_6">
     <g id="line2d_6">
      <g>
       <use xlink:href="#m94e7de4452" x="221.568048" y="300.04" style="stroke: #000000; stroke-width: 0.8"/>
      </g>
     </g>
     <g id="text_6">
      <!-- 5 -->
      <g transform="translate(215.841798 320.717188) scale(0.18 -0.18)">
       <defs>
        <path id="DejaVuSans-35" d="M 691 4666 
L 3169 4666 
L 3169 4134 
L 1269 4134 
L 1269 2991 
Q 1406 3038 1543 3061 
Q 1681 3084 1819 3084 
Q 2600 3084 3056 2656 
Q 3513 2228 3513 1497 
Q 3513 744 3044 326 
Q 2575 -91 1722 -91 
Q 1428 -91 1123 -41 
Q 819 9 494 109 
L 494 744 
Q 775 591 1075 516 
Q 1375 441 1709 441 
Q 2250 441 2565 725 
Q 2881 1009 2881 1497 
Q 2881 1984 2565 2268 
Q 2250 2553 1709 2553 
Q 1456 2553 1204 2497 
Q 953 2441 691 2322 
L 691 4666 
z
" transform="scale(0.015625)"/>
       </defs>
       <use xlink:href="#DejaVuSans-35"/>
      </g>
     </g>
    </g>
    <g id="xtick_7">
     <g id="line2d_7">
      <g>
       <use xlink:href="#m94e7de4452" x="253.820607" y="300.04" style="stroke: #000000; stroke-width: 0.8"/>
      </g>
     </g>
     <g id="text_7">
      <!-- 6 -->
      <g transform="translate(248.094357 320.717188) scale(0.18 -0.18)">
       <defs>
        <path id="DejaVuSans-36" d="M 2113 2584 
Q 1688 2584 1439 2293 
Q 1191 2003 1191 1497 
Q 1191 994 1439 701 
Q 1688 409 2113 409 
Q 2538 409 2786 701 
Q 3034 994 3034 1497 
Q 3034 2003 2786 2293 
Q 2538 2584 2113 2584 
z
M 3366 4563 
L 3366 3988 
Q 3128 4100 2886 4159 
Q 2644 4219 2406 4219 
Q 1781 4219 1451 3797 
Q 1122 3375 1075 2522 
Q 1259 2794 1537 2939 
Q 1816 3084 2150 3084 
Q 2853 3084 3261 2657 
Q 3669 2231 3669 1497 
Q 3669 778 3244 343 
Q 2819 -91 2113 -91 
Q 1303 -91 875 529 
Q 447 1150 447 2328 
Q 447 3434 972 4092 
Q 1497 4750 2381 4750 
Q 2619 4750 2861 4703 
Q 3103 4656 3366 4563 
z
" transform="scale(0.015625)"/>
       </defs>
       <use xlink:href="#DejaVuSans-36"/>
      </g>
     </g>
    </g>
    <g id="xtick_8">
     <g id="line2d_8">
      <g>
       <use xlink:href="#m94e7de4452" x="286.073165" y="300.04" style="stroke: #000000; stroke-width: 0.8"/>
      </g>
     </g>
     <g id="text_8">
      <!-- 7 -->
      <g transform="translate(280.346915 320.717188) scale(0.18 -0.18)">
       <defs>
        <path id="DejaVuSans-37" d="M 525 4666 
L 3525 4666 
L 3525 4397 
L 1831 0 
L 1172 0 
L 2766 4134 
L 525 4134 
L 525 4666 
z
" transform="scale(0.015625)"/>
       </defs>
       <use xlink:href="#DejaVuSans-37"/>
      </g>
     </g>
    </g>
    <g id="xtick_9">
     <g id="line2d_9">
      <g>
       <use xlink:href="#m94e7de4452" x="318.325724" y="300.04" style="stroke: #000000; stroke-width: 0.8"/>
      </g>
     </g>
     <g id="text_9">
      <!-- 8 -->
      <g transform="translate(312.599474 320.717188) scale(0.18 -0.18)">
       <defs>
        <path id="DejaVuSans-38" d="M 2034 2216 
Q 1584 2216 1326 1975 
Q 1069 1734 1069 1313 
Q 1069 891 1326 650 
Q 1584 409 2034 409 
Q 2484 409 2743 651 
Q 3003 894 3003 1313 
Q 3003 1734 2745 1975 
Q 2488 2216 2034 2216 
z
M 1403 2484 
Q 997 2584 770 2862 
Q 544 3141 544 3541 
Q 544 4100 942 4425 
Q 1341 4750 2034 4750 
Q 2731 4750 3128 4425 
Q 3525 4100 3525 3541 
Q 3525 3141 3298 2862 
Q 3072 2584 2669 2484 
Q 3125 2378 3379 2068 
Q 3634 1759 3634 1313 
Q 3634 634 3220 271 
Q 2806 -91 2034 -91 
Q 1263 -91 848 271 
Q 434 634 434 1313 
Q 434 1759 690 2068 
Q 947 2378 1403 2484 
z
M 1172 3481 
Q 1172 3119 1398 2916 
Q 1625 2713 2034 2713 
Q 2441 2713 2670 2916 
Q 2900 3119 2900 3481 
Q 2900 3844 2670 4047 
Q 2441 4250 2034 4250 
Q 1625 4250 1398 4047 
Q 1172 3844 1172 3481 
z
" transform="scale(0.015625)"/>
       </defs>
       <use xlink:href="#DejaVuSans-38"/>
      </g>
     </g>
    </g>
    <g id="xtick_10">
     <g id="line2d_10">
      <g>
       <use xlink:href="#m94e7de4452" x="350.578282" y="300.04" style="stroke: #000000; stroke-width: 0.8"/>
      </g>
     </g>
     <g id="text_10">
      <!-- 9 -->
      <g transform="translate(344.852032 320.717188) scale(0.18 -0.18)">
       <defs>
        <path id="DejaVuSans-39" d="M 703 97 
L 703 672 
Q 941 559 1184 500 
Q 1428 441 1663 441 
Q 2288 441 2617 861 
Q 2947 1281 2994 2138 
Q 2813 1869 2534 1725 
Q 2256 1581 1919 1581 
Q 1219 1581 811 2004 
Q 403 2428 403 3163 
Q 403 3881 828 4315 
Q 1253 4750 1959 4750 
Q 2769 4750 3195 4129 
Q 3622 3509 3622 2328 
Q 3622 1225 3098 567 
Q 2575 -91 1691 -91 
Q 1453 -91 1209 -44 
Q 966 3 703 97 
z
M 1959 2075 
Q 2384 2075 2632 2365 
Q 2881 2656 2881 3163 
Q 2881 3666 2632 3958 
Q 2384 4250 1959 4250 
Q 1534 4250 1286 3958 
Q 1038 3666 1038 3163 
Q 1038 2656 1286 2365 
Q 1534 2075 1959 2075 
z
" transform="scale(0.015625)"/>
       </defs>
       <use xlink:href="#DejaVuSans-39"/>
      </g>
     </g>
    </g>
    <g id="text_11">
     <!-- Time (d) -->
     <g transform="translate(159.465207 345.177188) scale(0.22 -0.22)">
      <defs>
       <path id="DejaVuSans-54" d="M -19 4666 
L 3928 4666 
L 3928 4134 
L 2272 4134 
L 2272 0 
L 1638 0 
L 1638 4134 
L -19 4134 
L -19 4666 
z
" transform="scale(0.015625)"/>
       <path id="DejaVuSans-69" d="M 603 3500 
L 1178 3500 
L 1178 0 
L 603 0 
L 603 3500 
z
M 603 4863 
L 1178 4863 
L 1178 4134 
L 603 4134 
L 603 4863 
z
" transform="scale(0.015625)"/>
       <path id="DejaVuSans-6d" d="M 3328 2828 
Q 3544 3216 3844 3400 
Q 4144 3584 4550 3584 
Q 5097 3584 5394 3201 
Q 5691 2819 5691 2113 
L 5691 0 
L 5113 0 
L 5113 2094 
Q 5113 2597 4934 2840 
Q 4756 3084 4391 3084 
Q 3944 3084 3684 2787 
Q 3425 2491 3425 1978 
L 3425 0 
L 2847 0 
L 2847 2094 
Q 2847 2600 2669 2842 
Q 2491 3084 2119 3084 
Q 1678 3084 1418 2786 
Q 1159 2488 1159 1978 
L 1159 0 
L 581 0 
L 581 3500 
L 1159 3500 
L 1159 2956 
Q 1356 3278 1631 3431 
Q 1906 3584 2284 3584 
Q 2666 3584 2933 3390 
Q 3200 3197 3328 2828 
z
" transform="scale(0.015625)"/>
       <path id="DejaVuSans-65" d="M 3597 1894 
L 3597 1613 
L 953 1613 
Q 991 1019 1311 708 
Q 1631 397 2203 397 
Q 2534 397 2845 478 
Q 3156 559 3463 722 
L 3463 178 
Q 3153 47 2828 -22 
Q 2503 -91 2169 -91 
Q 1331 -91 842 396 
Q 353 884 353 1716 
Q 353 2575 817 3079 
Q 1281 3584 2069 3584 
Q 2775 3584 3186 3129 
Q 3597 2675 3597 1894 
z
M 3022 2063 
Q 3016 2534 2758 2815 
Q 2500 3097 2075 3097 
Q 1594 3097 1305 2825 
Q 1016 2553 972 2059 
L 3022 2063 
z
" transform="scale(0.015625)"/>
       <path id="DejaVuSans-20" transform="scale(0.015625)"/>
       <path id="DejaVuSans-28" d="M 1984 4856 
Q 1566 4138 1362 3434 
Q 1159 2731 1159 2009 
Q 1159 1288 1364 580 
Q 1569 -128 1984 -844 
L 1484 -844 
Q 1016 -109 783 600 
Q 550 1309 550 2009 
Q 550 2706 781 3412 
Q 1013 4119 1484 4856 
L 1984 4856 
z
" transform="scale(0.015625)"/>
       <path id="DejaVuSans-64" d="M 2906 2969 
L 2906 4863 
L 3481 4863 
L 3481 0 
L 2906 0 
L 2906 525 
Q 2725 213 2448 61 
Q 2172 -91 1784 -91 
Q 1150 -91 751 415 
Q 353 922 353 1747 
Q 353 2572 751 3078 
Q 1150 3584 1784 3584 
Q 2172 3584 2448 3432 
Q 2725 3281 2906 2969 
z
M 947 1747 
Q 947 1113 1208 752 
Q 1469 391 1925 391 
Q 2381 391 2643 752 
Q 2906 1113 2906 1747 
Q 2906 2381 2643 2742 
Q 2381 3103 1925 3103 
Q 1469 3103 1208 2742 
Q 947 2381 947 1747 
z
" transform="scale(0.015625)"/>
       <path id="DejaVuSans-29" d="M 513 4856 
L 1013 4856 
Q 1481 4119 1714 3412 
Q 1947 2706 1947 2009 
Q 1947 1309 1714 600 
Q 1481 -109 1013 -844 
L 513 -844 
Q 928 -128 1133 580 
Q 1338 1288 1338 2009 
Q 1338 2731 1133 3434 
Q 928 4138 513 4856 
z
" transform="scale(0.015625)"/>
      </defs>
      <use xlink:href="#DejaVuSans-54"/>
      <use xlink:href="#DejaVuSans-69" x="57.958984"/>
      <use xlink:href="#DejaVuSans-6d" x="85.742188"/>
      <use xlink:href="#DejaVuSans-65" x="183.154297"/>
      <use xlink:href="#DejaVuSans-20" x="244.677734"/>
      <use xlink:href="#DejaVuSans-28" x="276.464844"/>
      <use xlink:href="#DejaVuSans-64" x="315.478516"/>
      <use xlink:href="#DejaVuSans-29" x="378.955078"/>
     </g>
    </g>
   </g>
   <g id="matplotlib.axis_2">
    <g id="ytick_1">
     <g id="line2d_11">
      <defs>
       <path id="m39bf55470c" d="M 0 0 
L -3.5 0 
" style="stroke: #000000; stroke-width: 0.8"/>
      </defs>
      <g>
       <use xlink:href="#m39bf55470c" x="57.08" y="300.04" style="stroke: #000000; stroke-width: 0.8"/>
      </g>
     </g>
     <g id="text_12">
      <!-- 0 -->
      <g transform="translate(38.6275 306.878594) scale(0.18 -0.18)">
       <use xlink:href="#DejaVuSans-30"/>
      </g>
     </g>
    </g>
    <g id="ytick_2">
     <g id="line2d_12">
      <g>
       <use xlink:href="#m39bf55470c" x="57.08" y="243.03" style="stroke: #000000; stroke-width: 0.8"/>
      </g>
     </g>
     <g id="text_13">
      <!-- 2 -->
      <g transform="translate(38.6275 249.868594) scale(0.18 -0.18)">
       <use xlink:href="#DejaVuSans-32"/>
      </g>
     </g>
    </g>
    <g id="ytick_3">
     <g id="line2d_13">
      <g>
       <use xlink:href="#m39bf55470c" x="57.08" y="186.02" style="stroke: #000000; stroke-width: 0.8"/>
      </g>
     </g>
     <g id="text_14">
      <!-- 4 -->
      <g transform="translate(38.6275 192.858594) scale(0.18 -0.18)">
       <use xlink:href="#DejaVuSans-34"/>
      </g>
     </g>
    </g>
    <g id="ytick_4">
     <g id="line2d_14">
      <g>
       <use xlink:href="#m39bf55470c" x="57.08" y="129.01" style="stroke: #000000; stroke-width: 0.8"/>
      </g>
     </g>
     <g id="text_15">
      <!-- 6 -->
      <g transform="translate(38.6275 135.848594) scale(0.18 -0.18)">
       <use xlink:href="#DejaVuSans-36"/>
      </g>
     </g>
    </g>
    <g id="ytick_5">
     <g id="line2d_15">
      <g>
       <use xlink:href="#m39bf55470c" x="57.08" y="72" style="stroke: #000000; stroke-width: 0.8"/>
      </g>
     </g>
     <g id="text_16">
      <!-- 8 -->
      <g transform="translate(38.6275 78.838594) scale(0.18 -0.18)">
       <use xlink:href="#DejaVuSans-38"/>
      </g>
     </g>
    </g>
    <g id="text_17">
     <!-- Virus (log$_{10}$ copies/mL) -->
     <g transform="translate(30.0075 312.3) rotate(-90) scale(0.22 -0.22)">
      <defs>
       <path id="DejaVuSans-56" d="M 1831 0 
L 50 4666 
L 709 4666 
L 2188 738 
L 3669 4666 
L 4325 4666 
L 2547 0 
L 1831 0 
z
" transform="scale(0.015625)"/>
       <path id="DejaVuSans-72" d="M 2631 2963 
Q 2534 3019 2420 3045 
Q 2306 3072 2169 3072 
Q 1681 3072 1420 2755 
Q 1159 2438 1159 1844 
L 1159 0 
L 581 0 
L 581 3500 
L 1159 3500 
L 1159 2956 
Q 1341 3275 1631 3429 
Q 1922 3584 2338 3584 
Q 2397 3584 2469 3576 
Q 2541 3569 2628 3553 
L 2631 2963 
z
" transform="scale(0.015625)"/>
       <path id="DejaVuSans-75" d="M 544 1381 
L 544 3500 
L 1119 3500 
L 1119 1403 
Q 1119 906 1312 657 
Q 1506 409 1894 409 
Q 2359 409 2629 706 
Q 2900 1003 2900 1516 
L 2900 3500 
L 3475 3500 
L 3475 0 
L 2900 0 
L 2900 538 
Q 2691 219 2414 64 
Q 2138 -91 1772 -91 
Q 1169 -91 856 284 
Q 544 659 544 1381 
z
M 1991 3584 
L 1991 3584 
z
" transform="scale(0.015625)"/>
       <path id="DejaVuSans-73" d="M 2834 3397 
L 2834 2853 
Q 2591 2978 2328 3040 
Q 2066 3103 1784 3103 
Q 1356 3103 1142 2972 
Q 928 2841 928 2578 
Q 928 2378 1081 2264 
Q 1234 2150 1697 2047 
L 1894 2003 
Q 2506 1872 2764 1633 
Q 3022 1394 3022 966 
Q 3022 478 2636 193 
Q 2250 -91 1575 -91 
Q 1294 -91 989 -36 
Q 684 19 347 128 
L 347 722 
Q 666 556 975 473 
Q 1284 391 1588 391 
Q 1994 391 2212 530 
Q 2431 669 2431 922 
Q 2431 1156 2273 1281 
Q 2116 1406 1581 1522 
L 1381 1569 
Q 847 1681 609 1914 
Q 372 2147 372 2553 
Q 372 3047 722 3315 
Q 1072 3584 1716 3584 
Q 2034 3584 2315 3537 
Q 2597 3491 2834 3397 
z
" transform="scale(0.015625)"/>
       <path id="DejaVuSans-6c" d="M 603 4863 
L 1178 4863 
L 1178 0 
L 603 0 
L 603 4863 
z
" transform="scale(0.015625)"/>
       <path id="DejaVuSans-6f" d="M 1959 3097 
Q 1497 3097 1228 2736 
Q 959 2375 959 1747 
Q 959 1119 1226 758 
Q 1494 397 1959 397 
Q 2419 397 2687 759 
Q 2956 1122 2956 1747 
Q 2956 2369 2687 2733 
Q 2419 3097 1959 3097 
z
M 1959 3584 
Q 2709 3584 3137 3096 
Q 3566 2609 3566 1747 
Q 3566 888 3137 398 
Q 2709 -91 1959 -91 
Q 1206 -91 779 398 
Q 353 888 353 1747 
Q 353 2609 779 3096 
Q 1206 3584 1959 3584 
z
" transform="scale(0.015625)"/>
       <path id="DejaVuSans-67" d="M 2906 1791 
Q 2906 2416 2648 2759 
Q 2391 3103 1925 3103 
Q 1463 3103 1205 2759 
Q 947 2416 947 1791 
Q 947 1169 1205 825 
Q 1463 481 1925 481 
Q 2391 481 2648 825 
Q 2906 1169 2906 1791 
z
M 3481 434 
Q 3481 -459 3084 -895 
Q 2688 -1331 1869 -1331 
Q 1566 -1331 1297 -1286 
Q 1028 -1241 775 -1147 
L 775 -588 
Q 1028 -725 1275 -790 
Q 1522 -856 1778 -856 
Q 2344 -856 2625 -561 
Q 2906 -266 2906 331 
L 2906 616 
Q 2728 306 2450 153 
Q 2172 0 1784 0 
Q 1141 0 747 490 
Q 353 981 353 1791 
Q 353 2603 747 3093 
Q 1141 3584 1784 3584 
Q 2172 3584 2450 3431 
Q 2728 3278 2906 2969 
L 2906 3500 
L 3481 3500 
L 3481 434 
z
" transform="scale(0.015625)"/>
       <path id="DejaVuSans-63" d="M 3122 3366 
L 3122 2828 
Q 2878 2963 2633 3030 
Q 2388 3097 2138 3097 
Q 1578 3097 1268 2742 
Q 959 2388 959 1747 
Q 959 1106 1268 751 
Q 1578 397 2138 397 
Q 2388 397 2633 464 
Q 2878 531 3122 666 
L 3122 134 
Q 2881 22 2623 -34 
Q 2366 -91 2075 -91 
Q 1284 -91 818 406 
Q 353 903 353 1747 
Q 353 2603 823 3093 
Q 1294 3584 2113 3584 
Q 2378 3584 2631 3529 
Q 2884 3475 3122 3366 
z
" transform="scale(0.015625)"/>
       <path id="DejaVuSans-70" d="M 1159 525 
L 1159 -1331 
L 581 -1331 
L 581 3500 
L 1159 3500 
L 1159 2969 
Q 1341 3281 1617 3432 
Q 1894 3584 2278 3584 
Q 2916 3584 3314 3078 
Q 3713 2572 3713 1747 
Q 3713 922 3314 415 
Q 2916 -91 2278 -91 
Q 1894 -91 1617 61 
Q 1341 213 1159 525 
z
M 3116 1747 
Q 3116 2381 2855 2742 
Q 2594 3103 2138 3103 
Q 1681 3103 1420 2742 
Q 1159 2381 1159 1747 
Q 1159 1113 1420 752 
Q 1681 391 2138 391 
Q 2594 391 2855 752 
Q 3116 1113 3116 1747 
z
" transform="scale(0.015625)"/>
       <path id="DejaVuSans-2f" d="M 1625 4666 
L 2156 4666 
L 531 -594 
L 0 -594 
L 1625 4666 
z
" transform="scale(0.015625)"/>
       <path id="DejaVuSans-4c" d="M 628 4666 
L 1259 4666 
L 1259 531 
L 3531 531 
L 3531 0 
L 628 0 
L 628 4666 
z
" transform="scale(0.015625)"/>
      </defs>
      <use xlink:href="#DejaVuSans-56" transform="translate(0 0.015625)"/>
      <use xlink:href="#DejaVuSans-69" transform="translate(68.408203 0.015625)"/>
      <use xlink:href="#DejaVuSans-72" transform="translate(96.191406 0.015625)"/>
      <use xlink:href="#DejaVuSans-75" transform="translate(137.304688 0.015625)"/>
      <use xlink:href="#DejaVuSans-73" transform="translate(200.683594 0.015625)"/>
      <use xlink:href="#DejaVuSans-20" transform="translate(252.783203 0.015625)"/>
      <use xlink:href="#DejaVuSans-28" transform="translate(284.570312 0.015625)"/>
      <use xlink:href="#DejaVuSans-6c" transform="translate(323.583984 0.015625)"/>
      <use xlink:href="#DejaVuSans-6f" transform="translate(351.367188 0.015625)"/>
      <use xlink:href="#DejaVuSans-67" transform="translate(412.548828 0.015625)"/>
      <use xlink:href="#DejaVuSans-31" transform="translate(476.982422 -16.390625) scale(0.7)"/>
      <use xlink:href="#DejaVuSans-30" transform="translate(521.518555 -16.390625) scale(0.7)"/>
      <use xlink:href="#DejaVuSans-20" transform="translate(568.789062 0.015625)"/>
      <use xlink:href="#DejaVuSans-63" transform="translate(600.576172 0.015625)"/>
      <use xlink:href="#DejaVuSans-6f" transform="translate(655.556641 0.015625)"/>
      <use xlink:href="#DejaVuSans-70" transform="translate(716.738281 0.015625)"/>
      <use xlink:href="#DejaVuSans-69" transform="translate(780.214844 0.015625)"/>
      <use xlink:href="#DejaVuSans-65" transform="translate(807.998047 0.015625)"/>
      <use xlink:href="#DejaVuSans-73" transform="translate(869.521484 0.015625)"/>
      <use xlink:href="#DejaVuSans-2f" transform="translate(921.621094 0.015625)"/>
      <use xlink:href="#DejaVuSans-6d" transform="translate(955.3125 0.015625)"/>
      <use xlink:href="#DejaVuSans-4c" transform="translate(1052.724609 0.015625)"/>
      <use xlink:href="#DejaVuSans-29" transform="translate(1108.4375 0.015625)"/>
     </g>
    </g>
   </g>
   <g id="patch_3">
    <path d="M 57.08 300.04 
L 57.08 72 
" style="fill: none; stroke: #000000; stroke-width: 0.8; stroke-linejoin: miter; stroke-linecap: square"/>
   </g>
   <g id="patch_4">
    <path d="M 353.803538 300.04 
L 353.803538 72 
" style="fill: none; stroke: #000000; stroke-width: 0.8; stroke-linejoin: miter; stroke-linecap: square"/>
   </g>
   <g id="patch_5">
    <path d="M 57.08 300.04 
L 353.803538 300.04 
" style="fill: none; stroke: #000000; stroke-width: 0.8; stroke-linejoin: miter; stroke-linecap: square"/>
   </g>
   <g id="patch_6">
    <path d="M 57.08 72 
L 353.803538 72 
" style="fill: none; stroke: #000000; stroke-width: 0.8; stroke-linejoin: miter; stroke-linecap: square"/>
   </g>
   <g id="PolyCollection_1">
    <defs>
     <path id="md8d3be85a9" d="M 60.305256 -59.96 
L 60.305256 -59.96 
L 60.305758 -59.96 
L 60.310784 -59.96 
L 60.361042 -59.96 
L 60.532941 -59.96 
L 60.675163 -59.96 
L 61.150237 -59.96 
L 61.625311 -59.96 
L 62.654003 -59.96 
L 63.682694 -59.96 
L 65.362929 -59.96 
L 67.043164 -59.96 
L 69.279587 -59.96 
L 71.51601 -59.96 
L 74.030524 -61.391376 
L 75.884971 -64.164685 
L 78.745082 -69.170588 
L 80.51521 -72.252336 
L 83.362008 -77.227559 
L 85.233503 -80.486551 
L 88.047061 -85.394855 
L 89.997861 -88.789694 
L 93.113415 -94.224944 
L 95.037195 -97.57052 
L 97.806578 -102.403292 
L 99.807901 -105.884534 
L 102.855863 -111.210488 
L 104.85165 -114.682613 
L 107.645356 -119.555327 
L 109.709016 -123.144666 
L 112.751185 -128.454132 
L 114.801762 -132.019352 
L 117.609902 -136.913807 
L 119.718321 -140.517245 
L 122.755035 -145.60965 
L 124.849996 -149.12663 
L 127.694137 -153.876805 
L 129.84361 -157.470242 
L 132.917255 -162.564248 
L 135.066455 -166.121909 
L 138.29171 -171.383865 
L 140.441561 -174.871067 
L 143.666817 -179.963235 
L 145.876292 -183.398124 
L 149.101548 -188.164981 
L 151.394891 -191.434706 
L 154.620146 -195.616043 
L 157.012081 -198.488841 
L 160.237337 -201.652178 
L 162.864603 -203.468074 
L 166.089858 -204.97316 
L 169.315114 -205.822536 
L 172.54037 -206.084952 
L 175.765626 -205.458052 
L 178.990882 -204.195891 
L 182.216138 -202.766316 
L 185.441394 -201.20829 
L 188.666649 -199.550188 
L 191.891905 -197.812321 
L 195.117161 -196.008753 
L 198.342417 -194.148567 
L 201.567673 -192.236723 
L 204.792929 -190.274633 
L 208.018185 -188.260529 
L 211.24344 -186.189671 
L 214.468696 -184.0544 
L 217.693952 -181.844038 
L 220.919208 -179.544571 
L 224.144464 -177.138063 
L 227.36972 -174.601678 
L 230.594976 -171.90615 
L 233.820231 -169.013459 
L 237.045487 -165.873388 
L 240.270743 -162.418595 
L 243.495999 -158.558066 
L 246.721255 -153.886844 
L 249.946511 -148.235811 
L 253.171766 -141.561997 
L 256.397022 -133.545088 
L 259.622278 -124.255745 
L 262.847534 -114.459757 
L 266.07279 -104.542778 
L 269.298046 -94.837256 
L 272.179454 -86.499703 
L 275.086118 -78.473907 
L 277.992782 -70.962014 
L 280.899446 -63.986243 
L 283.806109 -59.96 
L 286.712773 -59.96 
L 289.619437 -59.96 
L 292.541854 -59.96 
L 295.511568 -59.96 
L 298.54916 -59.96 
L 301.690195 -59.96 
L 304.91545 -59.96 
L 308.140706 -59.96 
L 311.365962 -59.96 
L 314.591218 -59.96 
L 317.816474 -59.96 
L 320.574337 -59.96 
L 323.3322 -59.96 
L 325.646414 -59.96 
L 328.238434 -59.96 
L 330.360282 -59.96 
L 333.585538 -59.96 
L 336.184696 -59.96 
L 339.409952 -59.96 
L 342.635208 -59.96 
L 345.860464 -59.96 
L 349.08572 -59.96 
L 350.578282 -59.96 
L 350.578282 -59.96 
L 350.578282 -59.96 
L 349.08572 -59.96 
L 345.860464 -59.96 
L 342.635208 -59.96 
L 339.409952 -59.96 
L 336.184696 -59.96 
L 333.585538 -59.96 
L 330.360282 -59.96 
L 328.238434 -59.96 
L 325.646414 -59.96 
L 323.3322 -59.96 
L 320.574337 -59.96 
L 317.816474 -59.96 
L 314.591218 -59.96 
L 311.365962 -59.96 
L 308.140706 -59.96 
L 304.91545 -59.96 
L 301.690195 -59.96 
L 298.54916 -59.96 
L 295.511568 -61.133966 
L 292.541854 -66.915021 
L 289.619437 -73.584071 
L 286.712773 -80.437436 
L 283.806109 -87.540901 
L 280.899446 -94.823322 
L 277.992782 -102.333149 
L 275.086118 -109.905582 
L 272.179454 -117.552181 
L 269.298046 -124.88845 
L 266.07279 -133.032793 
L 262.847534 -141.145374 
L 259.622278 -148.219535 
L 256.397022 -154.251926 
L 253.171766 -159.437212 
L 249.946511 -164.556343 
L 246.721255 -168.970344 
L 243.495999 -172.850496 
L 240.270743 -176.326112 
L 237.045487 -179.491562 
L 233.820231 -182.415645 
L 230.594976 -185.149092 
L 227.36972 -187.729863 
L 224.144464 -190.186676 
L 220.919208 -192.541317 
L 217.693952 -194.810109 
L 214.468696 -197.00482 
L 211.24344 -199.133182 
L 208.018185 -201.199145 
L 204.792929 -203.202915 
L 201.567673 -205.140814 
L 198.342417 -207.005197 
L 195.117161 -208.775778 
L 191.891905 -210.451739 
L 188.666649 -211.984368 
L 185.441394 -213.380647 
L 182.216138 -214.553706 
L 178.990882 -215.463962 
L 175.765626 -215.992061 
L 172.54037 -216.268555 
L 169.315114 -216.372768 
L 166.089858 -215.924886 
L 162.864603 -214.995583 
L 160.237337 -214.287749 
L 157.012081 -212.849681 
L 154.620146 -211.159267 
L 151.394891 -208.311364 
L 149.101548 -205.691732 
L 145.876292 -201.562167 
L 143.666817 -198.378237 
L 140.441561 -193.483074 
L 138.29171 -189.931815 
L 135.066455 -184.373861 
L 132.917255 -180.520462 
L 129.84361 -174.899387 
L 127.694137 -170.900148 
L 124.849996 -165.573198 
L 122.755035 -161.683182 
L 119.718321 -156.043896 
L 117.609902 -152.109953 
L 114.801762 -146.87341 
L 112.751185 -143.032996 
L 109.709016 -137.347246 
L 107.645356 -133.481595 
L 104.85165 -128.25625 
L 102.855863 -124.511018 
L 99.807901 -118.807592 
L 97.806578 -115.056202 
L 95.037195 -109.871604 
L 93.113415 -106.258256 
L 89.997861 -100.42652 
L 88.047061 -96.769441 
L 85.233503 -91.502595 
L 83.362008 -87.99506 
L 80.51521 -82.866879 
L 78.745082 -79.713993 
L 75.884971 -74.607735 
L 74.030524 -71.297774 
L 71.51601 -66.76834 
L 69.279587 -62.903112 
L 67.043164 -60.676386 
L 65.362929 -59.96 
L 63.682694 -59.96 
L 62.654003 -59.96 
L 61.625311 -59.96 
L 61.150237 -59.96 
L 60.675163 -59.96 
L 60.532941 -59.96 
L 60.361042 -59.96 
L 60.310784 -59.96 
L 60.305758 -59.96 
L 60.305256 -59.96 
z
" style="stroke: #006400; stroke-opacity: 0.2"/>
    </defs>
    <g clip-path="url(#pf7bfd2be35)">
     <use xlink:href="#md8d3be85a9" x="0" y="360" style="fill: #006400; fill-opacity: 0.2; stroke: #006400; stroke-opacity: 0.2"/>
    </g>
   </g>
   <g id="PathCollection_1">
    <defs>
     <path id="m516cecd0c9" d="M 0 4.330127 
C 1.148363 4.330127 2.249847 3.873878 3.061862 3.061862 
C 3.873878 2.249847 4.330127 1.148363 4.330127 0 
C 4.330127 -1.148363 3.873878 -2.249847 3.061862 -3.061862 
C 2.249847 -3.873878 1.148363 -4.330127 0 -4.330127 
C -1.148363 -4.330127 -2.249847 -3.873878 -3.061862 -3.061862 
C -3.873878 -2.249847 -4.330127 -1.148363 -4.330127 0 
C -4.330127 1.148363 -3.873878 2.249847 -3.061862 3.061862 
C -2.249847 3.873878 -1.148363 4.330127 0 4.330127 
z
" style="stroke: #006400; stroke-opacity: 0.8"/>
    </defs>
    <g clip-path="url(#pf7bfd2be35)">
     <use xlink:href="#m516cecd0c9" x="60.305256" y="300.04" style="fill: #006400; fill-opacity: 0.8; stroke: #006400; stroke-opacity: 0.8"/>
     <use xlink:href="#m516cecd0c9" x="92.557814" y="283.381234" style="fill: #006400; fill-opacity: 0.8; stroke: #006400; stroke-opacity: 0.8"/>
     <use xlink:href="#m516cecd0c9" x="124.810373" y="222.299091" style="fill: #006400; fill-opacity: 0.8; stroke: #006400; stroke-opacity: 0.8"/>
     <use xlink:href="#m516cecd0c9" x="157.062931" y="108.464188" style="fill: #006400; fill-opacity: 0.8; stroke: #006400; stroke-opacity: 0.8"/>
     <use xlink:href="#m516cecd0c9" x="189.31549" y="150.111104" style="fill: #006400; fill-opacity: 0.8; stroke: #006400; stroke-opacity: 0.8"/>
     <use xlink:href="#m516cecd0c9" x="221.568048" y="194.534481" style="fill: #006400; fill-opacity: 0.8; stroke: #006400; stroke-opacity: 0.8"/>
     <use xlink:href="#m516cecd0c9" x="253.820607" y="191.758019" style="fill: #006400; fill-opacity: 0.8; stroke: #006400; stroke-opacity: 0.8"/>
     <use xlink:href="#m516cecd0c9" x="286.073165" y="300.04" style="fill: #006400; fill-opacity: 0.8; stroke: #006400; stroke-opacity: 0.8"/>
    </g>
   </g>
   <g id="line2d_16">
    <path d="M 60.305256 300.04 
L 60.305758 300.04 
L 60.310784 300.04 
L 60.361042 300.04 
L 60.532941 300.04 
L 60.675163 300.04 
L 61.150237 300.04 
L 61.625311 300.04 
L 62.654003 300.04 
L 63.682694 300.04 
L 65.362929 300.04 
L 67.043164 300.04 
L 69.279587 300.04 
L 71.51601 298.710051 
L 74.030524 294.198114 
L 75.884971 290.862507 
L 78.745082 285.691122 
L 80.51521 282.506138 
L 83.362008 277.364056 
L 85.233503 273.996665 
L 88.047061 268.916012 
L 89.997861 265.405252 
L 93.113415 259.771316 
L 95.037195 256.309697 
L 97.806578 251.310501 
L 99.807901 247.708858 
L 102.855863 242.200451 
L 104.85165 238.609724 
L 107.645356 233.568703 
L 109.709016 229.85682 
L 112.751185 224.365055 
L 114.801762 220.680771 
L 117.609902 215.624735 
L 119.718321 211.843698 
L 122.755035 206.387698 
L 124.849996 202.648096 
L 127.694137 197.576028 
L 129.84361 193.773357 
L 132.917255 188.362453 
L 135.066455 184.635714 
L 138.29171 179.124828 
L 140.441561 175.555675 
L 143.666817 170.388577 
L 145.876292 167.038154 
L 149.101548 162.507001 
L 151.394891 159.609031 
L 154.620146 156.096444 
L 157.012081 153.959127 
L 160.237337 151.761826 
L 162.864603 150.538304 
L 166.089858 149.683543 
L 169.315114 149.445455 
L 172.54037 149.712719 
L 175.765626 150.379374 
L 178.990882 151.355238 
L 182.216138 152.568471 
L 185.441394 153.963958 
L 188.666649 155.500317 
L 191.891905 157.146928 
L 195.117161 158.881518 
L 198.342417 160.688343 
L 201.567673 162.556905 
L 204.792929 164.481057 
L 208.018185 166.458407 
L 211.24344 168.489928 
L 214.468696 170.579749 
L 217.693952 172.735093 
L 220.919208 174.966388 
L 224.144464 177.287583 
L 227.36972 179.716757 
L 230.594976 182.277114 
L 233.820231 184.998567 
L 237.045487 187.920149 
L 240.270743 191.093603 
L 243.495999 194.588592 
L 246.721255 198.499721 
L 249.946511 202.954358 
L 253.171766 208.1159 
L 256.397022 214.166872 
L 259.622278 221.245343 
L 262.847534 229.333551 
L 266.07279 238.189992 
L 269.298046 247.437595 
L 272.179454 255.706678 
L 275.086118 263.924234 
L 277.992782 271.920983 
L 280.899446 279.645016 
L 283.806109 287.06786 
L 286.712773 294.174427 
L 289.619437 300.04 
L 292.541854 300.04 
L 295.511568 300.04 
L 298.54916 300.04 
L 301.690195 300.04 
L 304.91545 300.04 
L 308.140706 300.04 
L 311.365962 300.04 
L 314.591218 300.04 
L 317.816474 300.04 
L 320.574337 300.04 
L 323.3322 300.04 
L 325.646414 300.04 
L 328.238434 300.04 
L 330.360282 300.04 
L 333.585538 300.04 
L 336.184696 300.04 
L 339.409952 300.04 
L 342.635208 300.04 
L 345.860464 300.04 
L 349.08572 300.04 
L 350.578282 300.04 
" clip-path="url(#pf7bfd2be35)" style="fill: none; stroke: #006400; stroke-width: 1.5; stroke-linecap: square"/>
   </g>
  </g>
  <g id="axes_2">
   <g id="patch_7">
    <path d="M 415.545487 300.04 
L 712.269026 300.04 
L 712.269026 72 
L 415.545487 72 
z
" style="fill: #ffffff"/>
   </g>
   <g id="matplotlib.axis_3">
    <g id="xtick_11">
     <g id="line2d_17">
      <g>
       <use xlink:href="#m94e7de4452" x="418.770743" y="300.04" style="stroke: #000000; stroke-width: 0.8"/>
      </g>
     </g>
     <g id="text_18">
      <!-- 0 -->
      <g transform="translate(413.044493 320.717188) scale(0.18 -0.18)">
       <use xlink:href="#DejaVuSans-30"/>
      </g>
     </g>
    </g>
    <g id="xtick_12">
     <g id="line2d_18">
      <g>
       <use xlink:href="#m94e7de4452" x="451.023302" y="300.04" style="stroke: #000000; stroke-width: 0.8"/>
      </g>
     </g>
     <g id="text_19">
      <!-- 1 -->
      <g transform="translate(445.297052 320.717188) scale(0.18 -0.18)">
       <use xlink:href="#DejaVuSans-31"/>
      </g>
     </g>
    </g>
    <g id="xtick_13">
     <g id="line2d_19">
      <g>
       <use xlink:href="#m94e7de4452" x="483.27586" y="300.04" style="stroke: #000000; stroke-width: 0.8"/>
      </g>
     </g>
     <g id="text_20">
      <!-- 2 -->
      <g transform="translate(477.54961 320.717188) scale(0.18 -0.18)">
       <use xlink:href="#DejaVuSans-32"/>
      </g>
     </g>
    </g>
    <g id="xtick_14">
     <g id="line2d_20">
      <g>
       <use xlink:href="#m94e7de4452" x="515.528419" y="300.04" style="stroke: #000000; stroke-width: 0.8"/>
      </g>
     </g>
     <g id="text_21">
      <!-- 3 -->
      <g transform="translate(509.802169 320.717188) scale(0.18 -0.18)">
       <use xlink:href="#DejaVuSans-33"/>
      </g>
     </g>
    </g>
    <g id="xtick_15">
     <g id="line2d_21">
      <g>
       <use xlink:href="#m94e7de4452" x="547.780977" y="300.04" style="stroke: #000000; stroke-width: 0.8"/>
      </g>
     </g>
     <g id="text_22">
      <!-- 4 -->
      <g transform="translate(542.054727 320.717188) scale(0.18 -0.18)">
       <use xlink:href="#DejaVuSans-34"/>
      </g>
     </g>
    </g>
    <g id="xtick_16">
     <g id="line2d_22">
      <g>
       <use xlink:href="#m94e7de4452" x="580.033536" y="300.04" style="stroke: #000000; stroke-width: 0.8"/>
      </g>
     </g>
     <g id="text_23">
      <!-- 5 -->
      <g transform="translate(574.307286 320.717188) scale(0.18 -0.18)">
       <use xlink:href="#DejaVuSans-35"/>
      </g>
     </g>
    </g>
    <g id="xtick_17">
     <g id="line2d_23">
      <g>
       <use xlink:href="#m94e7de4452" x="612.286094" y="300.04" style="stroke: #000000; stroke-width: 0.8"/>
      </g>
     </g>
     <g id="text_24">
      <!-- 6 -->
      <g transform="translate(606.559844 320.717188) scale(0.18 -0.18)">
       <use xlink:href="#DejaVuSans-36"/>
      </g>
     </g>
    </g>
    <g id="xtick_18">
     <g id="line2d_24">
      <g>
       <use xlink:href="#m94e7de4452" x="644.538653" y="300.04" style="stroke: #000000; stroke-width: 0.8"/>
      </g>
     </g>
     <g id="text_25">
      <!-- 7 -->
      <g transform="translate(638.812403 320.717188) scale(0.18 -0.18)">
       <use xlink:href="#DejaVuSans-37"/>
      </g>
     </g>
    </g>
    <g id="xtick_19">
     <g id="line2d_25">
      <g>
       <use xlink:href="#m94e7de4452" x="676.791211" y="300.04" style="stroke: #000000; stroke-width: 0.8"/>
      </g>
     </g>
     <g id="text_26">
      <!-- 8 -->
      <g transform="translate(671.064961 320.717188) scale(0.18 -0.18)">
       <use xlink:href="#DejaVuSans-38"/>
      </g>
     </g>
    </g>
    <g id="xtick_20">
     <g id="line2d_26">
      <g>
       <use xlink:href="#m94e7de4452" x="709.04377" y="300.04" style="stroke: #000000; stroke-width: 0.8"/>
      </g>
     </g>
     <g id="text_27">
      <!-- 9 -->
      <g transform="translate(703.31752 320.717188) scale(0.18 -0.18)">
       <use xlink:href="#DejaVuSans-39"/>
      </g>
     </g>
    </g>
    <g id="text_28">
     <!-- Time (d) -->
     <g transform="translate(517.930694 345.177188) scale(0.22 -0.22)">
      <use xlink:href="#DejaVuSans-54"/>
      <use xlink:href="#DejaVuSans-69" x="57.958984"/>
      <use xlink:href="#DejaVuSans-6d" x="85.742188"/>
      <use xlink:href="#DejaVuSans-65" x="183.154297"/>
      <use xlink:href="#DejaVuSans-20" x="244.677734"/>
      <use xlink:href="#DejaVuSans-28" x="276.464844"/>
      <use xlink:href="#DejaVuSans-64" x="315.478516"/>
      <use xlink:href="#DejaVuSans-29" x="378.955078"/>
     </g>
    </g>
   </g>
   <g id="matplotlib.axis_4">
    <g id="ytick_6">
     <g id="line2d_27">
      <g>
       <use xlink:href="#m39bf55470c" x="415.545487" y="300.04" style="stroke: #000000; stroke-width: 0.8"/>
      </g>
     </g>
     <g id="text_29">
      <!-- 3 -->
      <g transform="translate(397.092987 306.878594) scale(0.18 -0.18)">
       <use xlink:href="#DejaVuSans-33"/>
      </g>
     </g>
    </g>
    <g id="ytick_7">
     <g id="line2d_28">
      <g>
       <use xlink:href="#m39bf55470c" x="415.545487" y="249.364444" style="stroke: #000000; stroke-width: 0.8"/>
      </g>
     </g>
     <g id="text_30">
      <!-- 4 -->
      <g transform="translate(397.092987 256.203038) scale(0.18 -0.18)">
       <use xlink:href="#DejaVuSans-34"/>
      </g>
     </g>
    </g>
    <g id="ytick_8">
     <g id="line2d_29">
      <g>
       <use xlink:href="#m39bf55470c" x="415.545487" y="198.688889" style="stroke: #000000; stroke-width: 0.8"/>
      </g>
     </g>
     <g id="text_31">
      <!-- 5 -->
      <g transform="translate(397.092987 205.527483) scale(0.18 -0.18)">
       <use xlink:href="#DejaVuSans-35"/>
      </g>
     </g>
    </g>
    <g id="ytick_9">
     <g id="line2d_30">
      <g>
       <use xlink:href="#m39bf55470c" x="415.545487" y="148.013333" style="stroke: #000000; stroke-width: 0.8"/>
      </g>
     </g>
     <g id="text_32">
      <!-- 6 -->
      <g transform="translate(397.092987 154.851927) scale(0.18 -0.18)">
       <use xlink:href="#DejaVuSans-36"/>
      </g>
     </g>
    </g>
    <g id="ytick_10">
     <g id="line2d_31">
      <g>
       <use xlink:href="#m39bf55470c" x="415.545487" y="97.337778" style="stroke: #000000; stroke-width: 0.8"/>
      </g>
     </g>
     <g id="text_33">
      <!-- 7 -->
      <g transform="translate(397.092987 104.176372) scale(0.18 -0.18)">
       <use xlink:href="#DejaVuSans-37"/>
      </g>
     </g>
    </g>
    <g id="text_34">
     <!-- CD8$^+$ T (log$_{10}$ cells) -->
     <g transform="translate(388.472987 296.46) rotate(-90) scale(0.22 -0.22)">
      <defs>
       <path id="DejaVuSans-43" d="M 4122 4306 
L 4122 3641 
Q 3803 3938 3442 4084 
Q 3081 4231 2675 4231 
Q 1875 4231 1450 3742 
Q 1025 3253 1025 2328 
Q 1025 1406 1450 917 
Q 1875 428 2675 428 
Q 3081 428 3442 575 
Q 3803 722 4122 1019 
L 4122 359 
Q 3791 134 3420 21 
Q 3050 -91 2638 -91 
Q 1578 -91 968 557 
Q 359 1206 359 2328 
Q 359 3453 968 4101 
Q 1578 4750 2638 4750 
Q 3056 4750 3426 4639 
Q 3797 4528 4122 4306 
z
" transform="scale(0.015625)"/>
       <path id="DejaVuSans-44" d="M 1259 4147 
L 1259 519 
L 2022 519 
Q 2988 519 3436 956 
Q 3884 1394 3884 2338 
Q 3884 3275 3436 3711 
Q 2988 4147 2022 4147 
L 1259 4147 
z
M 628 4666 
L 1925 4666 
Q 3281 4666 3915 4102 
Q 4550 3538 4550 2338 
Q 4550 1131 3912 565 
Q 3275 0 1925 0 
L 628 0 
L 628 4666 
z
" transform="scale(0.015625)"/>
       <path id="DejaVuSans-2b" d="M 2944 4013 
L 2944 2272 
L 4684 2272 
L 4684 1741 
L 2944 1741 
L 2944 0 
L 2419 0 
L 2419 1741 
L 678 1741 
L 678 2272 
L 2419 2272 
L 2419 4013 
L 2944 4013 
z
" transform="scale(0.015625)"/>
      </defs>
      <use xlink:href="#DejaVuSans-43" transform="translate(0 0.826562)"/>
      <use xlink:href="#DejaVuSans-44" transform="translate(69.824219 0.826562)"/>
      <use xlink:href="#DejaVuSans-38" transform="translate(146.826172 0.826562)"/>
      <use xlink:href="#DejaVuSans-2b" transform="translate(225.043945 39.107812) scale(0.7)"/>
      <use xlink:href="#DejaVuSans-20" transform="translate(300.068359 0.826562)"/>
      <use xlink:href="#DejaVuSans-54" transform="translate(331.855469 0.826562)"/>
      <use xlink:href="#DejaVuSans-20" transform="translate(392.939453 0.826562)"/>
      <use xlink:href="#DejaVuSans-28" transform="translate(424.726562 0.826562)"/>
      <use xlink:href="#DejaVuSans-6c" transform="translate(463.740234 0.826562)"/>
      <use xlink:href="#DejaVuSans-6f" transform="translate(491.523438 0.826562)"/>
      <use xlink:href="#DejaVuSans-67" transform="translate(552.705078 0.826562)"/>
      <use xlink:href="#DejaVuSans-31" transform="translate(617.138672 -15.579688) scale(0.7)"/>
      <use xlink:href="#DejaVuSans-30" transform="translate(661.674805 -15.579688) scale(0.7)"/>
      <use xlink:href="#DejaVuSans-20" transform="translate(708.945312 0.826562)"/>
      <use xlink:href="#DejaVuSans-63" transform="translate(740.732422 0.826562)"/>
      <use xlink:href="#DejaVuSans-65" transform="translate(795.712891 0.826562)"/>
      <use xlink:href="#DejaVuSans-6c" transform="translate(857.236328 0.826562)"/>
      <use xlink:href="#DejaVuSans-6c" transform="translate(885.019531 0.826562)"/>
      <use xlink:href="#DejaVuSans-73" transform="translate(912.802734 0.826562)"/>
      <use xlink:href="#DejaVuSans-29" transform="translate(964.902344 0.826562)"/>
     </g>
    </g>
   </g>
   <g id="patch_8">
    <path d="M 415.545487 300.04 
L 415.545487 72 
" style="fill: none; stroke: #000000; stroke-width: 0.8; stroke-linejoin: miter; stroke-linecap: square"/>
   </g>
   <g id="patch_9">
    <path d="M 712.269026 300.04 
L 712.269026 72 
" style="fill: none; stroke: #000000; stroke-width: 0.8; stroke-linejoin: miter; stroke-linecap: square"/>
   </g>
   <g id="patch_10">
    <path d="M 415.545487 300.04 
L 712.269026 300.04 
" style="fill: none; stroke: #000000; stroke-width: 0.8; stroke-linejoin: miter; stroke-linecap: square"/>
   </g>
   <g id="patch_11">
    <path d="M 415.545487 72 
L 712.269026 72 
" style="fill: none; stroke: #000000; stroke-width: 0.8; stroke-linejoin: miter; stroke-linecap: square"/>
   </g>
   <g id="PolyCollection_2">
    <defs>
     <path id="m854e8e95a4" d="M 418.770743 -163.20772 
L 418.770743 -163.20772 
L 418.771246 -163.20772 
L 418.776271 -163.20772 
L 418.826529 -163.20772 
L 418.998428 -163.20772 
L 419.14065 -163.20772 
L 419.615724 -163.20772 
L 420.090798 -163.20772 
L 421.11949 -163.20772 
L 422.148181 -163.20772 
L 423.828416 -163.20772 
L 425.508651 -163.20772 
L 427.745074 -163.20772 
L 429.981497 -163.20772 
L 432.496011 -163.20772 
L 434.350458 -163.20772 
L 437.210569 -163.20772 
L 438.980697 -163.20772 
L 441.827495 -163.20772 
L 443.698991 -163.207721 
L 446.512548 -163.207723 
L 448.463348 -163.207725 
L 451.578903 -163.207732 
L 453.502683 -163.207741 
L 456.272065 -163.20776 
L 458.273388 -163.207781 
L 461.32135 -163.207832 
L 463.317138 -163.20788 
L 466.110843 -163.207985 
L 468.174504 -163.208087 
L 471.216672 -163.208323 
L 473.267249 -163.208533 
L 476.075389 -163.208972 
L 478.183808 -163.209393 
L 481.220522 -163.210336 
L 483.315484 -163.211176 
L 486.159624 -163.212928 
L 488.309098 -163.2146 
L 491.382743 -163.21838 
L 493.531942 -163.221755 
L 496.757198 -163.229858 
L 498.907048 -163.23685 
L 502.132304 -163.253536 
L 504.341779 -163.268502 
L 507.567035 -163.303061 
L 509.860378 -163.335652 
L 513.085634 -163.407721 
L 515.477568 -163.479404 
L 518.702824 -163.630418 
L 521.33009 -163.799882 
L 524.555346 -164.112638 
L 527.780602 -164.54951 
L 531.005857 -165.203489 
L 534.231113 -166.1637 
L 537.456369 -167.507436 
L 540.681625 -169.32124 
L 543.906881 -171.665964 
L 547.132137 -174.554313 
L 550.357393 -177.937818 
L 553.582648 -181.711412 
L 556.807904 -185.733986 
L 560.03316 -189.854938 
L 563.258416 -193.936241 
L 566.483672 -197.86508 
L 569.708928 -201.557663 
L 572.934183 -204.957363 
L 576.159439 -208.030289 
L 579.384695 -210.760284 
L 582.609951 -213.144405 
L 585.835207 -215.189196 
L 589.060463 -216.907802 
L 592.285719 -218.317792 
L 595.510974 -219.439541 
L 598.73623 -220.295043 
L 601.961486 -220.907034 
L 605.186742 -221.298338 
L 608.411998 -220.969322 
L 611.637254 -220.45183 
L 614.86251 -219.851152 
L 618.087765 -219.175274 
L 621.313021 -218.440003 
L 624.538277 -217.656532 
L 627.763533 -216.834157 
L 630.644942 -216.072489 
L 633.551605 -215.284024 
L 636.458269 -214.479831 
L 639.364933 -213.663467 
L 642.271597 -212.839438 
L 645.17826 -212.008698 
L 648.084924 -211.173512 
L 651.007341 -210.331907 
L 653.977056 -209.475877 
L 657.014648 -208.600828 
L 660.155682 -207.698047 
L 663.380938 -206.774014 
L 666.606193 -205.854024 
L 669.831449 -204.938863 
L 673.056705 -204.029184 
L 676.281961 -203.125543 
L 679.039824 -202.357882 
L 681.797687 -201.595084 
L 684.111901 -200.959202 
L 686.703921 -200.252062 
L 688.825769 -199.676596 
L 692.051025 -198.80846 
L 694.650183 -198.114405 
L 697.875439 -197.261367 
L 701.100695 -196.417095 
L 704.325951 -195.581864 
L 707.551207 -194.755677 
L 709.04377 -194.376389 
L 709.04377 -197.661397 
L 709.04377 -197.661397 
L 707.551207 -198.057274 
L 704.325951 -198.918232 
L 701.100695 -199.787026 
L 697.875439 -200.663614 
L 694.650183 -201.54764 
L 692.051025 -202.265443 
L 688.825769 -203.161876 
L 686.703921 -203.754878 
L 684.111901 -204.482585 
L 681.797687 -205.135975 
L 679.039824 -205.917602 
L 676.281961 -206.702253 
L 673.056705 -207.623103 
L 669.831449 -208.546451 
L 666.606193 -209.471028 
L 663.380938 -210.395288 
L 660.155682 -211.317343 
L 657.014648 -212.211063 
L 653.977056 -213.06898 
L 651.007341 -213.898848 
L 648.084924 -214.704099 
L 645.17826 -215.490048 
L 642.271597 -216.25761 
L 639.364933 -217.002447 
L 636.458269 -217.717254 
L 633.551605 -218.395524 
L 630.644942 -219.034178 
L 627.763533 -219.616525 
L 624.538277 -220.197888 
L 621.313021 -220.694164 
L 618.087765 -221.086003 
L 614.86251 -221.368481 
L 611.637254 -221.508429 
L 608.411998 -221.608958 
L 605.186742 -221.682694 
L 601.961486 -221.76076 
L 598.73623 -221.847401 
L 595.510974 -221.822474 
L 592.285719 -221.612679 
L 589.060463 -221.212738 
L 585.835207 -220.589853 
L 582.609951 -219.685471 
L 579.384695 -218.495843 
L 576.159439 -217.006704 
L 572.934183 -215.196161 
L 569.708928 -212.999818 
L 566.483672 -210.429214 
L 563.258416 -207.490795 
L 560.03316 -204.186505 
L 556.807904 -200.494683 
L 553.582648 -196.473969 
L 550.357393 -192.233748 
L 547.132137 -187.856281 
L 543.906881 -183.489286 
L 540.681625 -179.277965 
L 537.456369 -175.469717 
L 534.231113 -172.228582 
L 531.005857 -169.535263 
L 527.780602 -167.484005 
L 524.555346 -166.052699 
L 521.33009 -165.026879 
L 518.702824 -164.466065 
L 515.477568 -163.986495 
L 513.085634 -163.755983 
L 509.860378 -163.541229 
L 507.567035 -163.445122 
L 504.341779 -163.350843 
L 502.132304 -163.310702 
L 498.907048 -163.269513 
L 496.757198 -163.252554 
L 493.531942 -163.234549 
L 491.382743 -163.227127 
L 488.309098 -163.219613 
L 486.159624 -163.216297 
L 483.315484 -163.213152 
L 481.220522 -163.211674 
L 478.183808 -163.210121 
L 476.075389 -163.209449 
L 473.267249 -163.208795 
L 471.216672 -163.208498 
L 468.174504 -163.208172 
L 466.110843 -163.208038 
L 463.317138 -163.207908 
L 461.32135 -163.207849 
L 458.273388 -163.207789 
L 456.272065 -163.207763 
L 453.502683 -163.207743 
L 451.578903 -163.207734 
L 448.463348 -163.207726 
L 446.512548 -163.207723 
L 443.698991 -163.207721 
L 441.827495 -163.20772 
L 438.980697 -163.20772 
L 437.210569 -163.20772 
L 434.350458 -163.20772 
L 432.496011 -163.20772 
L 429.981497 -163.20772 
L 427.745074 -163.20772 
L 425.508651 -163.20772 
L 423.828416 -163.20772 
L 422.148181 -163.20772 
L 421.11949 -163.20772 
L 420.090798 -163.20772 
L 419.615724 -163.20772 
L 419.14065 -163.20772 
L 418.998428 -163.20772 
L 418.826529 -163.20772 
L 418.776271 -163.20772 
L 418.771246 -163.20772 
L 418.770743 -163.20772 
z
" style="stroke: #006400; stroke-opacity: 0.2"/>
    </defs>
    <g clip-path="url(#pc0395b3774)">
     <use xlink:href="#m854e8e95a4" x="0" y="360" style="fill: #006400; fill-opacity: 0.2; stroke: #006400; stroke-opacity: 0.2"/>
    </g>
   </g>
   <g id="PolyCollection_3">
    <defs>
     <path id="mba408b6c15" d="M 418.770743 -108.316769 
L 418.770743 -108.316769 
L 418.771246 -108.316769 
L 418.776271 -108.316769 
L 418.826529 -108.316769 
L 418.998428 -108.316769 
L 419.14065 -108.316769 
L 419.615724 -108.316769 
L 420.090798 -108.316769 
L 421.11949 -108.316769 
L 422.148181 -108.316769 
L 423.828416 -108.316769 
L 425.508651 -108.316769 
L 427.745074 -108.316769 
L 429.981497 -108.316769 
L 432.496011 -108.316769 
L 434.350458 -108.316769 
L 437.210569 -108.316769 
L 438.980697 -108.316769 
L 441.827495 -108.316769 
L 443.698991 -108.316769 
L 446.512548 -108.316769 
L 448.463348 -108.316769 
L 451.578903 -108.316769 
L 453.502683 -108.316769 
L 456.272065 -108.316769 
L 458.273388 -108.316769 
L 461.32135 -108.316769 
L 463.317138 -108.316769 
L 466.110843 -108.316769 
L 468.174504 -108.316769 
L 471.216672 -108.316769 
L 473.267249 -108.316769 
L 476.075389 -108.316769 
L 478.183808 -108.316769 
L 481.220522 -108.316769 
L 483.315484 -108.316769 
L 486.159624 -108.316769 
L 488.309098 -108.316769 
L 491.382743 -108.316769 
L 493.531942 -108.31677 
L 496.757198 -108.31677 
L 498.907048 -108.31677 
L 502.132304 -108.316771 
L 504.341779 -108.316772 
L 507.567035 -108.316774 
L 509.860378 -108.316777 
L 513.085634 -108.316782 
L 515.477568 -108.316788 
L 518.702824 -108.3168 
L 521.33009 -108.316815 
L 524.555346 -108.316843 
L 527.780602 -108.316883 
L 531.005857 -108.316948 
L 534.231113 -108.317051 
L 537.456369 -108.31721 
L 540.681625 -108.317458 
L 543.906881 -108.31784 
L 547.132137 -108.318428 
L 550.357393 -108.31934 
L 553.582648 -108.320747 
L 556.807904 -108.322922 
L 560.03316 -108.326273 
L 563.258416 -108.331434 
L 566.483672 -108.339239 
L 569.708928 -108.35114 
L 572.934183 -108.369172 
L 576.159439 -108.396345 
L 579.384695 -108.436881 
L 582.609951 -108.496561 
L 585.835207 -108.583024 
L 589.060463 -108.705927 
L 592.285719 -108.876878 
L 595.510974 -109.109006 
L 598.73623 -109.416133 
L 601.961486 -109.811533 
L 605.186742 -110.306434 
L 608.411998 -110.908489 
L 611.637254 -111.620516 
L 614.86251 -112.439789 
L 618.087765 -113.362537 
L 621.313021 -114.364455 
L 624.538277 -115.437377 
L 627.763533 -116.560196 
L 630.644942 -117.590801 
L 633.551605 -118.642513 
L 636.458269 -119.694059 
L 639.364933 -120.734244 
L 642.271597 -121.752997 
L 645.17826 -122.744248 
L 648.084924 -123.702915 
L 651.007341 -124.62878 
L 653.977056 -125.528802 
L 657.014648 -126.404042 
L 660.155682 -127.260776 
L 663.380938 -128.089952 
L 666.606193 -128.868748 
L 669.831449 -129.59892 
L 673.056705 -130.282643 
L 676.281961 -130.922339 
L 679.039824 -131.436663 
L 681.797687 -131.923023 
L 684.111901 -132.311504 
L 686.703921 -132.720153 
L 688.825769 -133.039799 
L 692.051025 -133.50096 
L 694.650183 -133.852075 
L 697.875439 -134.261508 
L 701.100695 -134.645203 
L 704.325951 -135.005017 
L 707.551207 -135.343353 
L 709.04377 -135.493507 
L 709.04377 -136.617565 
L 709.04377 -136.617565 
L 707.551207 -136.499997 
L 704.325951 -136.235027 
L 701.100695 -135.953809 
L 697.875439 -135.654677 
L 694.650183 -135.33625 
L 692.051025 -135.063486 
L 688.825769 -134.706331 
L 686.703921 -134.458487 
L 684.111901 -134.142405 
L 681.797687 -133.844309 
L 679.039824 -133.469166 
L 676.281961 -133.072597 
L 673.056705 -132.579714 
L 669.831449 -132.052353 
L 666.606193 -131.487892 
L 663.380938 -130.883611 
L 660.155682 -130.236726 
L 657.014648 -129.565643 
L 653.977056 -128.869181 
L 651.007341 -128.150638 
L 648.084924 -127.394284 
L 645.17826 -126.605051 
L 642.271597 -125.765843 
L 639.364933 -124.881661 
L 636.458269 -123.959719 
L 633.551605 -122.994763 
L 630.644942 -121.991969 
L 627.763533 -120.965783 
L 624.538277 -119.788227 
L 621.313021 -118.592867 
L 618.087765 -117.395345 
L 614.86251 -116.213539 
L 611.637254 -115.069757 
L 608.411998 -113.981278 
L 605.186742 -112.977019 
L 601.961486 -112.062382 
L 598.73623 -111.251977 
L 595.510974 -110.568681 
L 592.285719 -110.001774 
L 589.060463 -109.54277 
L 585.835207 -109.182232 
L 582.609951 -108.917795 
L 579.384695 -108.724973 
L 576.159439 -108.586706 
L 572.934183 -108.490385 
L 569.708928 -108.42801 
L 566.483672 -108.387126 
L 563.258416 -108.360424 
L 560.03316 -108.343374 
L 556.807904 -108.333176 
L 553.582648 -108.326973 
L 550.357393 -108.322975 
L 547.132137 -108.320501 
L 543.906881 -108.319063 
L 540.681625 -108.318125 
L 537.456369 -108.317596 
L 534.231113 -108.317277 
L 531.005857 -108.317072 
L 527.780602 -108.316949 
L 524.555346 -108.316878 
L 521.33009 -108.316833 
L 518.702824 -108.316811 
L 515.477568 -108.316793 
L 513.085634 -108.316785 
L 509.860378 -108.316778 
L 507.567035 -108.316775 
L 504.341779 -108.316772 
L 502.132304 -108.316771 
L 498.907048 -108.31677 
L 496.757198 -108.31677 
L 493.531942 -108.31677 
L 491.382743 -108.316769 
L 488.309098 -108.316769 
L 486.159624 -108.316769 
L 483.315484 -108.316769 
L 481.220522 -108.316769 
L 478.183808 -108.316769 
L 476.075389 -108.316769 
L 473.267249 -108.316769 
L 471.216672 -108.316769 
L 468.174504 -108.316769 
L 466.110843 -108.316769 
L 463.317138 -108.316769 
L 461.32135 -108.316769 
L 458.273388 -108.316769 
L 456.272065 -108.316769 
L 453.502683 -108.316769 
L 451.578903 -108.316769 
L 448.463348 -108.316769 
L 446.512548 -108.316769 
L 443.698991 -108.316769 
L 441.827495 -108.316769 
L 438.980697 -108.316769 
L 437.210569 -108.316769 
L 434.350458 -108.316769 
L 432.496011 -108.316769 
L 429.981497 -108.316769 
L 427.745074 -108.316769 
L 425.508651 -108.316769 
L 423.828416 -108.316769 
L 422.148181 -108.316769 
L 421.11949 -108.316769 
L 420.090798 -108.316769 
L 419.615724 -108.316769 
L 419.14065 -108.316769 
L 418.998428 -108.316769 
L 418.826529 -108.316769 
L 418.776271 -108.316769 
L 418.771246 -108.316769 
L 418.770743 -108.316769 
z
" style="stroke: #006400; stroke-opacity: 0.2"/>
    </defs>
    <g clip-path="url(#pc0395b3774)">
     <use xlink:href="#mba408b6c15" x="0" y="360" style="fill: #006400; fill-opacity: 0.2; stroke: #006400; stroke-opacity: 0.2"/>
    </g>
   </g>
   <g id="line2d_32">
    <path d="M 418.770743 196.79228 
L 418.771246 196.79228 
L 418.776271 196.79228 
L 418.826529 196.79228 
L 418.998428 196.79228 
L 419.14065 196.79228 
L 419.615724 196.79228 
L 420.090798 196.79228 
L 421.11949 196.79228 
L 422.148181 196.79228 
L 423.828416 196.79228 
L 425.508651 196.79228 
L 427.745074 196.79228 
L 429.981497 196.79228 
L 432.496011 196.79228 
L 434.350458 196.79228 
L 437.210569 196.79228 
L 438.980697 196.79228 
L 441.827495 196.79228 
L 443.698991 196.792279 
L 446.512548 196.792277 
L 448.463348 196.792275 
L 451.578903 196.792267 
L 453.502683 196.792259 
L 456.272065 196.79224 
L 458.273388 196.792217 
L 461.32135 196.792163 
L 463.317138 196.79211 
L 466.110843 196.791998 
L 468.174504 196.791878 
L 471.216672 196.791614 
L 473.267249 196.791355 
L 476.075389 196.790844 
L 478.183808 196.790295 
L 481.220522 196.789135 
L 483.315484 196.787981 
L 486.159624 196.78572 
L 488.309098 196.783277 
L 491.382743 196.778125 
L 493.531942 196.7729 
L 496.757198 196.761192 
L 498.907048 196.749771 
L 502.132304 196.724211 
L 504.341779 196.698497 
L 507.567035 196.642416 
L 509.860378 196.583646 
L 513.085634 196.460133 
L 515.477568 196.325031 
L 518.702824 196.054171 
L 521.33009 195.72792 
L 524.555346 195.13821 
L 527.780602 194.259249 
L 531.005857 192.989427 
L 534.231113 191.226526 
L 537.456369 188.893253 
L 540.681625 185.966142 
L 543.906881 182.493654 
L 547.132137 178.592025 
L 550.357393 174.420176 
L 553.582648 170.147031 
L 556.807904 165.925073 
L 560.03316 161.876202 
L 563.258416 158.088442 
L 566.483672 154.619127 
L 569.708928 151.500678 
L 572.934183 148.746618 
L 576.159439 146.356782 
L 579.384695 144.321443 
L 582.609951 142.624426 
L 585.835207 141.245391 
L 589.060463 140.161497 
L 592.285719 139.348598 
L 595.510974 138.782111 
L 598.73623 138.437644 
L 601.961486 138.291463 
L 605.186742 138.320826 
L 608.411998 138.504232 
L 611.637254 138.821599 
L 614.86251 139.25438 
L 618.087765 139.785635 
L 621.313021 140.400062 
L 624.538277 141.08398 
L 627.763533 141.825294 
L 630.644942 142.527545 
L 633.551605 143.267065 
L 636.458269 144.031975 
L 639.364933 144.817187 
L 642.271597 145.618343 
L 645.17826 146.431729 
L 648.084924 147.254206 
L 651.007341 148.087642 
L 653.977056 148.93894 
L 657.014648 149.812233 
L 660.155682 150.716147 
L 663.380938 151.64361 
L 666.606193 152.569003 
L 669.831449 153.491195 
L 673.056705 154.409257 
L 676.281961 155.32242 
L 679.039824 156.098859 
L 681.797687 156.870894 
L 684.111901 157.515099 
L 686.703921 158.232506 
L 688.825769 158.816373 
L 692.051025 159.697799 
L 694.650183 160.402526 
L 697.875439 161.269849 
L 701.100695 162.128921 
L 704.325951 162.979448 
L 707.551207 163.821145 
L 709.04377 164.207567 
" clip-path="url(#pc0395b3774)" style="fill: none; stroke: #006400; stroke-width: 1.5; stroke-linecap: square"/>
   </g>
   <g id="line2d_33">
    <path d="M 418.770743 251.683231 
L 418.771246 251.683231 
L 418.776271 251.683231 
L 418.826529 251.683231 
L 418.998428 251.683231 
L 419.14065 251.683231 
L 419.615724 251.683231 
L 420.090798 251.683231 
L 421.11949 251.683231 
L 422.148181 251.683231 
L 423.828416 251.683231 
L 425.508651 251.683231 
L 427.745074 251.683231 
L 429.981497 251.683231 
L 432.496011 251.683231 
L 434.350458 251.683231 
L 437.210569 251.683231 
L 438.980697 251.683231 
L 441.827495 251.683231 
L 443.698991 251.683231 
L 446.512548 251.683231 
L 448.463348 251.683231 
L 451.578903 251.683231 
L 453.502683 251.683231 
L 456.272065 251.683231 
L 458.273388 251.683231 
L 461.32135 251.683231 
L 463.317138 251.683231 
L 466.110843 251.683231 
L 468.174504 251.683231 
L 471.216672 251.683231 
L 473.267249 251.683231 
L 476.075389 251.683231 
L 478.183808 251.683231 
L 481.220522 251.683231 
L 483.315484 251.683231 
L 486.159624 251.683231 
L 488.309098 251.683231 
L 491.382743 251.683231 
L 493.531942 251.68323 
L 496.757198 251.68323 
L 498.907048 251.68323 
L 502.132304 251.683229 
L 504.341779 251.683228 
L 507.567035 251.683226 
L 509.860378 251.683223 
L 513.085634 251.683217 
L 515.477568 251.68321 
L 518.702824 251.683196 
L 521.33009 251.683178 
L 524.555346 251.683143 
L 527.780602 251.683087 
L 531.005857 251.682997 
L 534.231113 251.682854 
L 537.456369 251.682623 
L 540.681625 251.682254 
L 543.906881 251.68166 
L 547.132137 251.68071 
L 550.357393 251.679204 
L 553.582648 251.676794 
L 556.807904 251.672948 
L 560.03316 251.666846 
L 563.258416 251.657264 
L 566.483672 251.642231 
L 569.708928 251.618859 
L 572.934183 251.582965 
L 576.159439 251.528693 
L 579.384695 251.448157 
L 582.609951 251.331239 
L 585.835207 251.165639 
L 589.060463 250.937333 
L 592.285719 250.631495 
L 595.510974 250.232992 
L 598.73623 249.731633 
L 601.961486 249.11849 
L 605.186742 248.390869 
L 608.411998 247.552134 
L 611.637254 246.611613 
L 614.86251 245.583728 
L 618.087765 244.486535 
L 621.313021 243.340005 
L 624.538277 242.164362 
L 627.763533 240.97869 
L 630.644942 239.92488 
L 633.551605 238.878096 
L 636.458269 237.856132 
L 639.364933 236.865404 
L 642.271597 235.91107 
L 645.17826 234.997138 
L 648.084924 234.125583 
L 651.007341 233.292949 
L 653.977056 232.491734 
L 657.014648 231.718191 
L 660.155682 230.966142 
L 663.380938 230.242498 
L 666.606193 229.565655 
L 669.831449 228.933013 
L 673.056705 228.341822 
L 676.281961 227.789389 
L 679.039824 227.345757 
L 681.797687 226.926934 
L 684.111901 226.593518 
L 686.703921 226.238496 
L 688.825769 225.96157 
L 692.051025 225.562826 
L 694.650183 225.259833 
L 697.875439 224.905063 
L 701.100695 224.572133 
L 704.325951 224.259459 
L 707.551207 223.965639 
L 709.04377 223.835681 
" clip-path="url(#pc0395b3774)" style="fill: none; stroke-dasharray: 5.55,2.4; stroke-dashoffset: 0; stroke: #006400; stroke-width: 1.5"/>
   </g>
  </g>
  <g id="text_35">
   <!-- Volunteer 11 -->
   <g transform="translate(283.34625 25.43625) scale(0.24 -0.24)">
    <defs>
     <path id="DejaVuSans-6e" d="M 3513 2113 
L 3513 0 
L 2938 0 
L 2938 2094 
Q 2938 2591 2744 2837 
Q 2550 3084 2163 3084 
Q 1697 3084 1428 2787 
Q 1159 2491 1159 1978 
L 1159 0 
L 581 0 
L 581 3500 
L 1159 3500 
L 1159 2956 
Q 1366 3272 1645 3428 
Q 1925 3584 2291 3584 
Q 2894 3584 3203 3211 
Q 3513 2838 3513 2113 
z
" transform="scale(0.015625)"/>
     <path id="DejaVuSans-74" d="M 1172 4494 
L 1172 3500 
L 2356 3500 
L 2356 3053 
L 1172 3053 
L 1172 1153 
Q 1172 725 1289 603 
Q 1406 481 1766 481 
L 2356 481 
L 2356 0 
L 1766 0 
Q 1100 0 847 248 
Q 594 497 594 1153 
L 594 3053 
L 172 3053 
L 172 3500 
L 594 3500 
L 594 4494 
L 1172 4494 
z
" transform="scale(0.015625)"/>
    </defs>
    <use xlink:href="#DejaVuSans-56"/>
    <use xlink:href="#DejaVuSans-6f" x="60.658203"/>
    <use xlink:href="#DejaVuSans-6c" x="121.839844"/>
    <use xlink:href="#DejaVuSans-75" x="149.623047"/>
    <use xlink:href="#DejaVuSans-6e" x="213.001953"/>
    <use xlink:href="#DejaVuSans-74" x="276.380859"/>
    <use xlink:href="#DejaVuSans-65" x="315.589844"/>
    <use xlink:href="#DejaVuSans-65" x="377.113281"/>
    <use xlink:href="#DejaVuSans-72" x="438.636719"/>
    <use xlink:href="#DejaVuSans-20" x="479.75"/>
    <use xlink:href="#DejaVuSans-31" x="511.537109"/>
    <use xlink:href="#DejaVuSans-31" x="575.160156"/>
   </g>
  </g>
 </g>
 <defs>
  <clipPath id="pf7bfd2be35">
   <rect x="57.08" y="72" width="296.723538" height="228.04"/>
  </clipPath>
  <clipPath id="pc0395b3774">
   <rect x="415.545487" y="72" width="296.723538" height="228.04"/>
  </clipPath>
 </defs>
</svg>
