<?xml version="1.0" encoding="utf-8" standalone="no"?>
<!DOCTYPE svg PUBLIC "-//W3C//DTD SVG 1.1//EN"
  "http://www.w3.org/Graphics/SVG/1.1/DTD/svg11.dtd">
<svg xmlns:xlink="http://www.w3.org/1999/xlink" width="1440pt" height="360pt" viewBox="0 0 1440 360" xmlns="http://www.w3.org/2000/svg" version="1.1">
 <metadata>
  <rdf:RDF xmlns:dc="http://purl.org/dc/elements/1.1/" xmlns:cc="http://creativecommons.org/ns#" xmlns:rdf="http://www.w3.org/1999/02/22-rdf-syntax-ns#">
   <cc:Work>
    <dc:type rdf:resource="http://purl.org/dc/dcmitype/StillImage"/>
    <dc:date>2025-01-23T10:03:45.033495</dc:date>
    <dc:format>image/svg+xml</dc:format>
    <dc:creator>
     <cc:Agent>
      <dc:title>Matplotlib v3.9.2, https://matplotlib.org/</dc:title>
     </cc:Agent>
    </dc:creator>
   </cc:Work>
  </rdf:RDF>
 </metadata>
 <defs>
  <style type="text/css">*{stroke-linejoin: round; stroke-linecap: butt}</style>
 </defs>
 <g id="figure_1">
  <g id="patch_1">
   <path d="M 0 360 
L 1440 360 
L 1440 0 
L 0 0 
z
" style="fill: #ffffff"/>
  </g>
  <g id="axes_1">
   <g id="patch_2">
    <path d="M 180 320.4 
L 407.755102 320.4 
L 407.755102 43.2 
L 180 43.2 
z
" style="fill: #ffffff"/>
   </g>
   <g id="matplotlib.axis_1">
    <g id="xtick_1">
     <g id="text_1">
      <!-- 0 -->
      <g style="fill: #262626" transform="translate(178.023617 352.232375) scale(0.312 -0.312)">
       <defs>
        <path id="ArialMT-30" d="M 266 2259 
Q 266 3072 433 3567 
Q 600 4063 929 4331 
Q 1259 4600 1759 4600 
Q 2128 4600 2406 4451 
Q 2684 4303 2865 4023 
Q 3047 3744 3150 3342 
Q 3253 2941 3253 2259 
Q 3253 1453 3087 958 
Q 2922 463 2592 192 
Q 2263 -78 1759 -78 
Q 1097 -78 719 397 
Q 266 969 266 2259 
z
M 844 2259 
Q 844 1131 1108 757 
Q 1372 384 1759 384 
Q 2147 384 2411 759 
Q 2675 1134 2675 2259 
Q 2675 3391 2411 3762 
Q 2147 4134 1753 4134 
Q 1366 4134 1134 3806 
Q 844 3388 844 2259 
z
" transform="scale(0.015625)"/>
       </defs>
       <use xlink:href="#ArialMT-30"/>
      </g>
     </g>
    </g>
    <g id="xtick_2">
     <g id="text_2">
      <!-- 2 -->
      <g style="fill: #262626" transform="translate(231.613053 352.232375) scale(0.312 -0.312)">
       <defs>
        <path id="ArialMT-32" d="M 3222 541 
L 3222 0 
L 194 0 
Q 188 203 259 391 
Q 375 700 629 1000 
Q 884 1300 1366 1694 
Q 2113 2306 2375 2664 
Q 2638 3022 2638 3341 
Q 2638 3675 2398 3904 
Q 2159 4134 1775 4134 
Q 1369 4134 1125 3890 
Q 881 3647 878 3216 
L 300 3275 
Q 359 3922 746 4261 
Q 1134 4600 1788 4600 
Q 2447 4600 2831 4234 
Q 3216 3869 3216 3328 
Q 3216 3053 3103 2787 
Q 2991 2522 2730 2228 
Q 2469 1934 1863 1422 
Q 1356 997 1212 845 
Q 1069 694 975 541 
L 3222 541 
z
" transform="scale(0.015625)"/>
       </defs>
       <use xlink:href="#ArialMT-32"/>
      </g>
     </g>
    </g>
    <g id="xtick_3">
     <g id="text_3">
      <!-- 4 -->
      <g style="fill: #262626" transform="translate(285.202489 352.232375) scale(0.312 -0.312)">
       <defs>
        <path id="ArialMT-34" d="M 2069 0 
L 2069 1097 
L 81 1097 
L 81 1613 
L 2172 4581 
L 2631 4581 
L 2631 1613 
L 3250 1613 
L 3250 1097 
L 2631 1097 
L 2631 0 
L 2069 0 
z
M 2069 1613 
L 2069 3678 
L 634 1613 
L 2069 1613 
z
" transform="scale(0.015625)"/>
       </defs>
       <use xlink:href="#ArialMT-34"/>
      </g>
     </g>
    </g>
    <g id="xtick_4">
     <g id="text_4">
      <!-- 6 -->
      <g style="fill: #262626" transform="translate(338.791924 352.232375) scale(0.312 -0.312)">
       <defs>
        <path id="ArialMT-36" d="M 3184 3459 
L 2625 3416 
Q 2550 3747 2413 3897 
Q 2184 4138 1850 4138 
Q 1581 4138 1378 3988 
Q 1113 3794 959 3422 
Q 806 3050 800 2363 
Q 1003 2672 1297 2822 
Q 1591 2972 1913 2972 
Q 2475 2972 2870 2558 
Q 3266 2144 3266 1488 
Q 3266 1056 3080 686 
Q 2894 316 2569 119 
Q 2244 -78 1831 -78 
Q 1128 -78 684 439 
Q 241 956 241 2144 
Q 241 3472 731 4075 
Q 1159 4600 1884 4600 
Q 2425 4600 2770 4297 
Q 3116 3994 3184 3459 
z
M 888 1484 
Q 888 1194 1011 928 
Q 1134 663 1356 523 
Q 1578 384 1822 384 
Q 2178 384 2434 671 
Q 2691 959 2691 1453 
Q 2691 1928 2437 2201 
Q 2184 2475 1800 2475 
Q 1419 2475 1153 2201 
Q 888 1928 888 1484 
z
" transform="scale(0.015625)"/>
       </defs>
       <use xlink:href="#ArialMT-36"/>
      </g>
     </g>
    </g>
    <g id="xtick_5">
     <g id="text_5">
      <!-- 8 -->
      <g style="fill: #262626" transform="translate(392.38136 352.232375) scale(0.312 -0.312)">
       <defs>
        <path id="ArialMT-38" d="M 1131 2484 
Q 781 2613 612 2850 
Q 444 3088 444 3419 
Q 444 3919 803 4259 
Q 1163 4600 1759 4600 
Q 2359 4600 2725 4251 
Q 3091 3903 3091 3403 
Q 3091 3084 2923 2848 
Q 2756 2613 2416 2484 
Q 2838 2347 3058 2040 
Q 3278 1734 3278 1309 
Q 3278 722 2862 322 
Q 2447 -78 1769 -78 
Q 1091 -78 675 323 
Q 259 725 259 1325 
Q 259 1772 486 2073 
Q 713 2375 1131 2484 
z
M 1019 3438 
Q 1019 3113 1228 2906 
Q 1438 2700 1772 2700 
Q 2097 2700 2305 2904 
Q 2513 3109 2513 3406 
Q 2513 3716 2298 3927 
Q 2084 4138 1766 4138 
Q 1444 4138 1231 3931 
Q 1019 3725 1019 3438 
z
M 838 1322 
Q 838 1081 952 856 
Q 1066 631 1291 507 
Q 1516 384 1775 384 
Q 2178 384 2440 643 
Q 2703 903 2703 1303 
Q 2703 1709 2433 1975 
Q 2163 2241 1756 2241 
Q 1359 2241 1098 1978 
Q 838 1716 838 1322 
z
" transform="scale(0.015625)"/>
       </defs>
       <use xlink:href="#ArialMT-38"/>
      </g>
     </g>
    </g>
    <g id="text_6">
     <!-- Time (d) -->
     <g style="fill: #262626" transform="translate(241.190989 383.253281) scale(0.286 -0.286)">
      <defs>
       <path id="ArialMT-54" d="M 1659 0 
L 1659 4041 
L 150 4041 
L 150 4581 
L 3781 4581 
L 3781 4041 
L 2266 4041 
L 2266 0 
L 1659 0 
z
" transform="scale(0.015625)"/>
       <path id="ArialMT-69" d="M 425 3934 
L 425 4581 
L 988 4581 
L 988 3934 
L 425 3934 
z
M 425 0 
L 425 3319 
L 988 3319 
L 988 0 
L 425 0 
z
" transform="scale(0.015625)"/>
       <path id="ArialMT-6d" d="M 422 0 
L 422 3319 
L 925 3319 
L 925 2853 
Q 1081 3097 1340 3245 
Q 1600 3394 1931 3394 
Q 2300 3394 2536 3241 
Q 2772 3088 2869 2813 
Q 3263 3394 3894 3394 
Q 4388 3394 4653 3120 
Q 4919 2847 4919 2278 
L 4919 0 
L 4359 0 
L 4359 2091 
Q 4359 2428 4304 2576 
Q 4250 2725 4106 2815 
Q 3963 2906 3769 2906 
Q 3419 2906 3187 2673 
Q 2956 2441 2956 1928 
L 2956 0 
L 2394 0 
L 2394 2156 
Q 2394 2531 2256 2718 
Q 2119 2906 1806 2906 
Q 1569 2906 1367 2781 
Q 1166 2656 1075 2415 
Q 984 2175 984 1722 
L 984 0 
L 422 0 
z
" transform="scale(0.015625)"/>
       <path id="ArialMT-65" d="M 2694 1069 
L 3275 997 
Q 3138 488 2766 206 
Q 2394 -75 1816 -75 
Q 1088 -75 661 373 
Q 234 822 234 1631 
Q 234 2469 665 2931 
Q 1097 3394 1784 3394 
Q 2450 3394 2872 2941 
Q 3294 2488 3294 1666 
Q 3294 1616 3291 1516 
L 816 1516 
Q 847 969 1125 678 
Q 1403 388 1819 388 
Q 2128 388 2347 550 
Q 2566 713 2694 1069 
z
M 847 1978 
L 2700 1978 
Q 2663 2397 2488 2606 
Q 2219 2931 1791 2931 
Q 1403 2931 1139 2672 
Q 875 2413 847 1978 
z
" transform="scale(0.015625)"/>
       <path id="ArialMT-20" transform="scale(0.015625)"/>
       <path id="ArialMT-28" d="M 1497 -1347 
Q 1031 -759 709 28 
Q 388 816 388 1659 
Q 388 2403 628 3084 
Q 909 3875 1497 4659 
L 1900 4659 
Q 1522 4009 1400 3731 
Q 1209 3300 1100 2831 
Q 966 2247 966 1656 
Q 966 153 1900 -1347 
L 1497 -1347 
z
" transform="scale(0.015625)"/>
       <path id="ArialMT-64" d="M 2575 0 
L 2575 419 
Q 2259 -75 1647 -75 
Q 1250 -75 917 144 
Q 584 363 401 755 
Q 219 1147 219 1656 
Q 219 2153 384 2558 
Q 550 2963 881 3178 
Q 1213 3394 1622 3394 
Q 1922 3394 2156 3267 
Q 2391 3141 2538 2938 
L 2538 4581 
L 3097 4581 
L 3097 0 
L 2575 0 
z
M 797 1656 
Q 797 1019 1065 703 
Q 1334 388 1700 388 
Q 2069 388 2326 689 
Q 2584 991 2584 1609 
Q 2584 2291 2321 2609 
Q 2059 2928 1675 2928 
Q 1300 2928 1048 2622 
Q 797 2316 797 1656 
z
" transform="scale(0.015625)"/>
       <path id="ArialMT-29" d="M 791 -1347 
L 388 -1347 
Q 1322 153 1322 1656 
Q 1322 2244 1188 2822 
Q 1081 3291 891 3722 
Q 769 4003 388 4659 
L 791 4659 
Q 1378 3875 1659 3084 
Q 1900 2403 1900 1659 
Q 1900 816 1576 28 
Q 1253 -759 791 -1347 
z
" transform="scale(0.015625)"/>
      </defs>
      <use xlink:href="#ArialMT-54"/>
      <use xlink:href="#ArialMT-69" x="57.333984"/>
      <use xlink:href="#ArialMT-6d" x="79.550781"/>
      <use xlink:href="#ArialMT-65" x="162.851562"/>
      <use xlink:href="#ArialMT-20" x="218.466797"/>
      <use xlink:href="#ArialMT-28" x="246.25"/>
      <use xlink:href="#ArialMT-64" x="279.550781"/>
      <use xlink:href="#ArialMT-29" x="335.166016"/>
     </g>
    </g>
   </g>
   <g id="matplotlib.axis_2">
    <g id="ytick_1">
     <g id="text_7">
      <!-- 0 -->
      <g style="fill: #262626" transform="translate(153.149875 331.566188) scale(0.312 -0.312)">
       <use xlink:href="#ArialMT-30"/>
      </g>
     </g>
    </g>
    <g id="ytick_2">
     <g id="text_8">
      <!-- 2 -->
      <g style="fill: #262626" transform="translate(153.149875 262.266188) scale(0.312 -0.312)">
       <use xlink:href="#ArialMT-32"/>
      </g>
     </g>
    </g>
    <g id="ytick_3">
     <g id="text_9">
      <!-- 4 -->
      <g style="fill: #262626" transform="translate(153.149875 192.966187) scale(0.312 -0.312)">
       <use xlink:href="#ArialMT-34"/>
      </g>
     </g>
    </g>
    <g id="ytick_4">
     <g id="text_10">
      <!-- 6 -->
      <g style="fill: #262626" transform="translate(153.149875 123.666187) scale(0.312 -0.312)">
       <use xlink:href="#ArialMT-36"/>
      </g>
     </g>
    </g>
    <g id="ytick_5">
     <g id="text_11">
      <!-- 8 -->
      <g style="fill: #262626" transform="translate(153.149875 54.366187) scale(0.312 -0.312)">
       <use xlink:href="#ArialMT-38"/>
      </g>
     </g>
    </g>
    <g id="text_12">
     <!-- Log$_{10}$ Virus (copies/mL) -->
     <g style="fill: #262626" transform="translate(142.857875 334.238) rotate(-90) scale(0.286 -0.286)">
      <defs>
       <path id="ArialMT-4c" d="M 469 0 
L 469 4581 
L 1075 4581 
L 1075 541 
L 3331 541 
L 3331 0 
L 469 0 
z
" transform="scale(0.015625)"/>
       <path id="ArialMT-6f" d="M 213 1659 
Q 213 2581 725 3025 
Q 1153 3394 1769 3394 
Q 2453 3394 2887 2945 
Q 3322 2497 3322 1706 
Q 3322 1066 3130 698 
Q 2938 331 2570 128 
Q 2203 -75 1769 -75 
Q 1072 -75 642 372 
Q 213 819 213 1659 
z
M 791 1659 
Q 791 1022 1069 705 
Q 1347 388 1769 388 
Q 2188 388 2466 706 
Q 2744 1025 2744 1678 
Q 2744 2294 2464 2611 
Q 2184 2928 1769 2928 
Q 1347 2928 1069 2612 
Q 791 2297 791 1659 
z
" transform="scale(0.015625)"/>
       <path id="ArialMT-67" d="M 319 -275 
L 866 -356 
Q 900 -609 1056 -725 
Q 1266 -881 1628 -881 
Q 2019 -881 2231 -725 
Q 2444 -569 2519 -288 
Q 2563 -116 2559 434 
Q 2191 0 1641 0 
Q 956 0 581 494 
Q 206 988 206 1678 
Q 206 2153 378 2554 
Q 550 2956 876 3175 
Q 1203 3394 1644 3394 
Q 2231 3394 2613 2919 
L 2613 3319 
L 3131 3319 
L 3131 450 
Q 3131 -325 2973 -648 
Q 2816 -972 2473 -1159 
Q 2131 -1347 1631 -1347 
Q 1038 -1347 672 -1080 
Q 306 -813 319 -275 
z
M 784 1719 
Q 784 1066 1043 766 
Q 1303 466 1694 466 
Q 2081 466 2343 764 
Q 2606 1063 2606 1700 
Q 2606 2309 2336 2618 
Q 2066 2928 1684 2928 
Q 1309 2928 1046 2623 
Q 784 2319 784 1719 
z
" transform="scale(0.015625)"/>
       <path id="DejaVuSans-31" d="M 794 531 
L 1825 531 
L 1825 4091 
L 703 3866 
L 703 4441 
L 1819 4666 
L 2450 4666 
L 2450 531 
L 3481 531 
L 3481 0 
L 794 0 
L 794 531 
z
" transform="scale(0.015625)"/>
       <path id="DejaVuSans-30" d="M 2034 4250 
Q 1547 4250 1301 3770 
Q 1056 3291 1056 2328 
Q 1056 1369 1301 889 
Q 1547 409 2034 409 
Q 2525 409 2770 889 
Q 3016 1369 3016 2328 
Q 3016 3291 2770 3770 
Q 2525 4250 2034 4250 
z
M 2034 4750 
Q 2819 4750 3233 4129 
Q 3647 3509 3647 2328 
Q 3647 1150 3233 529 
Q 2819 -91 2034 -91 
Q 1250 -91 836 529 
Q 422 1150 422 2328 
Q 422 3509 836 4129 
Q 1250 4750 2034 4750 
z
" transform="scale(0.015625)"/>
       <path id="ArialMT-56" d="M 1803 0 
L 28 4581 
L 684 4581 
L 1875 1253 
Q 2019 853 2116 503 
Q 2222 878 2363 1253 
L 3600 4581 
L 4219 4581 
L 2425 0 
L 1803 0 
z
" transform="scale(0.015625)"/>
       <path id="ArialMT-72" d="M 416 0 
L 416 3319 
L 922 3319 
L 922 2816 
Q 1116 3169 1280 3281 
Q 1444 3394 1641 3394 
Q 1925 3394 2219 3213 
L 2025 2691 
Q 1819 2813 1613 2813 
Q 1428 2813 1281 2702 
Q 1134 2591 1072 2394 
Q 978 2094 978 1738 
L 978 0 
L 416 0 
z
" transform="scale(0.015625)"/>
       <path id="ArialMT-75" d="M 2597 0 
L 2597 488 
Q 2209 -75 1544 -75 
Q 1250 -75 995 37 
Q 741 150 617 320 
Q 494 491 444 738 
Q 409 903 409 1263 
L 409 3319 
L 972 3319 
L 972 1478 
Q 972 1038 1006 884 
Q 1059 663 1231 536 
Q 1403 409 1656 409 
Q 1909 409 2131 539 
Q 2353 669 2445 892 
Q 2538 1116 2538 1541 
L 2538 3319 
L 3100 3319 
L 3100 0 
L 2597 0 
z
" transform="scale(0.015625)"/>
       <path id="ArialMT-73" d="M 197 991 
L 753 1078 
Q 800 744 1014 566 
Q 1228 388 1613 388 
Q 2000 388 2187 545 
Q 2375 703 2375 916 
Q 2375 1106 2209 1216 
Q 2094 1291 1634 1406 
Q 1016 1563 777 1677 
Q 538 1791 414 1992 
Q 291 2194 291 2438 
Q 291 2659 392 2848 
Q 494 3038 669 3163 
Q 800 3259 1026 3326 
Q 1253 3394 1513 3394 
Q 1903 3394 2198 3281 
Q 2494 3169 2634 2976 
Q 2775 2784 2828 2463 
L 2278 2388 
Q 2241 2644 2061 2787 
Q 1881 2931 1553 2931 
Q 1166 2931 1000 2803 
Q 834 2675 834 2503 
Q 834 2394 903 2306 
Q 972 2216 1119 2156 
Q 1203 2125 1616 2013 
Q 2213 1853 2448 1751 
Q 2684 1650 2818 1456 
Q 2953 1263 2953 975 
Q 2953 694 2789 445 
Q 2625 197 2315 61 
Q 2006 -75 1616 -75 
Q 969 -75 630 194 
Q 291 463 197 991 
z
" transform="scale(0.015625)"/>
       <path id="ArialMT-63" d="M 2588 1216 
L 3141 1144 
Q 3050 572 2676 248 
Q 2303 -75 1759 -75 
Q 1078 -75 664 370 
Q 250 816 250 1647 
Q 250 2184 428 2587 
Q 606 2991 970 3192 
Q 1334 3394 1763 3394 
Q 2303 3394 2647 3120 
Q 2991 2847 3088 2344 
L 2541 2259 
Q 2463 2594 2264 2762 
Q 2066 2931 1784 2931 
Q 1359 2931 1093 2626 
Q 828 2322 828 1663 
Q 828 994 1084 691 
Q 1341 388 1753 388 
Q 2084 388 2306 591 
Q 2528 794 2588 1216 
z
" transform="scale(0.015625)"/>
       <path id="ArialMT-70" d="M 422 -1272 
L 422 3319 
L 934 3319 
L 934 2888 
Q 1116 3141 1344 3267 
Q 1572 3394 1897 3394 
Q 2322 3394 2647 3175 
Q 2972 2956 3137 2557 
Q 3303 2159 3303 1684 
Q 3303 1175 3120 767 
Q 2938 359 2589 142 
Q 2241 -75 1856 -75 
Q 1575 -75 1351 44 
Q 1128 163 984 344 
L 984 -1272 
L 422 -1272 
z
M 931 1641 
Q 931 1000 1190 694 
Q 1450 388 1819 388 
Q 2194 388 2461 705 
Q 2728 1022 2728 1688 
Q 2728 2322 2467 2637 
Q 2206 2953 1844 2953 
Q 1484 2953 1207 2617 
Q 931 2281 931 1641 
z
" transform="scale(0.015625)"/>
       <path id="ArialMT-2f" d="M 0 -78 
L 1328 4659 
L 1778 4659 
L 453 -78 
L 0 -78 
z
" transform="scale(0.015625)"/>
      </defs>
      <use xlink:href="#ArialMT-4c" transform="translate(0 0.203125)"/>
      <use xlink:href="#ArialMT-6f" transform="translate(55.615234 0.203125)"/>
      <use xlink:href="#ArialMT-67" transform="translate(111.230469 0.203125)"/>
      <use xlink:href="#DejaVuSans-31" transform="translate(167.802734 -16.203125) scale(0.7)"/>
      <use xlink:href="#DejaVuSans-30" transform="translate(212.338867 -16.203125) scale(0.7)"/>
      <use xlink:href="#ArialMT-20" transform="translate(259.609375 0.203125)"/>
      <use xlink:href="#ArialMT-56" transform="translate(287.392578 0.203125)"/>
      <use xlink:href="#ArialMT-69" transform="translate(354.091797 0.203125)"/>
      <use xlink:href="#ArialMT-72" transform="translate(376.308594 0.203125)"/>
      <use xlink:href="#ArialMT-75" transform="translate(409.609375 0.203125)"/>
      <use xlink:href="#ArialMT-73" transform="translate(465.224609 0.203125)"/>
      <use xlink:href="#ArialMT-20" transform="translate(515.224609 0.203125)"/>
      <use xlink:href="#ArialMT-28" transform="translate(543.007812 0.203125)"/>
      <use xlink:href="#ArialMT-63" transform="translate(576.308594 0.203125)"/>
      <use xlink:href="#ArialMT-6f" transform="translate(626.308594 0.203125)"/>
      <use xlink:href="#ArialMT-70" transform="translate(681.923828 0.203125)"/>
      <use xlink:href="#ArialMT-69" transform="translate(737.539062 0.203125)"/>
      <use xlink:href="#ArialMT-65" transform="translate(759.755859 0.203125)"/>
      <use xlink:href="#ArialMT-73" transform="translate(815.371094 0.203125)"/>
      <use xlink:href="#ArialMT-2f" transform="translate(865.371094 0.203125)"/>
      <use xlink:href="#ArialMT-6d" transform="translate(893.154297 0.203125)"/>
      <use xlink:href="#ArialMT-4c" transform="translate(976.455078 0.203125)"/>
      <use xlink:href="#ArialMT-29" transform="translate(1032.070312 0.203125)"/>
     </g>
    </g>
   </g>
   <g id="patch_3">
    <path d="M 180 320.4 
L 180 43.2 
" style="fill: none; stroke: #262626; stroke-width: 1.25; stroke-linejoin: miter; stroke-linecap: square"/>
   </g>
   <g id="patch_4">
    <path d="M 407.755102 320.4 
L 407.755102 43.2 
" style="fill: none; stroke: #262626; stroke-width: 1.25; stroke-linejoin: miter; stroke-linecap: square"/>
   </g>
   <g id="patch_5">
    <path d="M 180 320.4 
L 407.755102 320.4 
" style="fill: none; stroke: #262626; stroke-width: 1.25; stroke-linejoin: miter; stroke-linecap: square"/>
   </g>
   <g id="patch_6">
    <path d="M 180 43.2 
L 407.755102 43.2 
" style="fill: none; stroke: #262626; stroke-width: 1.25; stroke-linejoin: miter; stroke-linecap: square"/>
   </g>
   <g id="PolyCollection_1">
    <defs>
     <path id="mae6fcb9cfd" d="M 186.698679 -39.6 
L 186.698679 -39.6 
L 186.699055 -39.6 
L 186.702814 -39.6 
L 186.740398 -39.6 
L 186.845948 -39.6 
L 186.966917 -39.6 
L 187.333708 -39.6 
L 187.613575 -39.6 
L 188.32923 -39.6 
L 188.801993 -39.6 
L 189.909288 -39.6 
L 190.505039 -39.6 
L 191.734947 -39.6 
L 192.416598 -39.6 
L 193.650512 -43.773083 
L 194.404941 -48.158003 
L 195.661518 -55.692057 
L 196.471209 -60.528463 
L 197.732099 -68.081009 
L 198.584947 -73.177461 
L 199.849203 -80.747464 
L 200.734201 -86.039157 
L 202.130055 -94.409104 
L 203.002444 -99.634656 
L 204.214365 -106.879111 
L 205.124617 -112.322172 
L 206.450113 -120.249502 
L 207.355548 -125.669426 
L 208.582954 -132.989157 
L 209.511303 -138.530498 
L 210.834783 -146.400707 
L 211.753912 -151.831288 
L 212.9919 -159.079942 
L 213.934431 -164.566401 
L 215.274625 -172.288566 
L 216.222109 -177.667286 
L 217.525134 -184.895661 
L 218.503859 -190.13874 
L 219.914679 -197.304291 
L 220.892352 -201.815593 
L 222.263223 -207.38799 
L 223.285534 -210.854854 
L 224.598745 -214.67537 
L 225.592391 -216.849046 
L 226.777104 -218.91506 
L 227.736625 -220.007186 
L 228.732308 -220.902377 
L 229.727991 -221.636458 
L 230.545546 -222.139681 
L 231.400338 -222.579784 
L 232.273429 -222.963896 
L 233.146521 -223.284652 
L 234.019612 -223.558393 
L 234.892703 -223.790021 
L 235.765795 -223.987267 
L 236.638886 -224.153475 
L 237.601544 -224.305025 
L 238.721704 -224.448899 
L 239.842154 -224.568937 
L 241.147838 -224.665492 
L 242.458694 -224.752422 
L 243.934102 -224.808529 
L 245.409511 -224.849007 
L 246.98617 -224.872596 
L 248.621508 -224.875971 
L 250.340458 -224.869318 
L 252.254586 -224.844394 
L 254.168715 -224.809623 
L 256.334449 -224.758668 
L 258.609722 -224.694016 
L 261.013398 -224.61782 
L 263.692869 -224.520726 
L 266.372341 -224.412209 
L 269.051813 -224.290792 
L 271.731285 -224.153433 
L 274.410757 -223.999895 
L 277.090228 -223.826742 
L 279.7697 -223.631313 
L 282.449172 -223.410961 
L 285.128644 -223.118886 
L 287.808115 -222.764427 
L 290.487587 -222.376229 
L 293.167059 -221.953853 
L 295.846531 -221.497081 
L 298.526003 -221.005854 
L 301.205474 -220.480186 
L 303.884946 -219.920096 
L 306.564418 -219.325533 
L 309.24389 -218.696303 
L 311.923362 -218.032007 
L 314.602833 -217.331971 
L 317.282305 -216.59519 
L 319.961777 -215.820257 
L 322.641249 -215.005295 
L 325.320721 -214.147876 
L 328.000192 -213.244926 
L 330.679664 -212.292603 
L 333.359136 -211.286147 
L 336.038608 -210.219674 
L 338.718079 -209.085905 
L 341.397551 -207.859658 
L 344.077023 -206.452398 
L 346.756495 -204.922943 
L 349.435967 -203.247583 
L 352.115438 -201.394257 
L 354.79491 -199.318271 
L 357.474382 -196.954843 
L 360.153854 -193.93697 
L 362.833326 -189.962425 
L 365.512797 -184.594438 
L 368.192269 -174.63684 
L 370.871741 -144.448953 
L 371.407635 -95.85476 
L 371.94353 -39.6 
L 372.236802 -39.6 
L 372.573748 -39.6 
L 372.733862 -39.6 
L 372.897954 -39.6 
L 372.977842 -39.6 
L 373.174964 -39.6 
L 373.176355 -39.6 
L 373.190265 -39.6 
L 373.203879 -39.6 
L 373.214187 -39.6 
L 373.214493 -39.6 
L 373.217557 -39.6 
L 373.225207 -39.6 
L 373.231474 -39.6 
L 373.233899 -39.6 
L 373.236614 -39.6 
L 373.243637 -39.6 
L 373.250659 -39.6 
L 373.253864 -39.6 
L 373.282808 -39.6 
L 373.302517 -39.6 
L 373.380684 -39.6 
L 373.436662 -39.6 
L 373.558321 -39.6 
L 373.645279 -39.6 
L 373.797894 -39.6 
L 373.921916 -39.6 
L 374.203448 -39.6 
L 374.560892 -39.6 
L 375.406268 -39.6 
L 376.909582 -39.6 
L 378.771018 -39.6 
L 380.234661 -39.6 
L 382.205523 -39.6 
L 384.884995 -39.6 
L 387.564467 -39.6 
L 390.243939 -39.6 
L 392.92341 -39.6 
L 395.602882 -39.6 
L 398.282354 -39.6 
L 400.961826 -39.6 
L 401.056423 -39.6 
L 401.056423 -39.6 
L 401.056423 -39.6 
L 400.961826 -39.6 
L 398.282354 -39.6 
L 395.602882 -39.6 
L 392.92341 -39.6 
L 390.243939 -39.6 
L 387.564467 -39.6 
L 384.884995 -39.6 
L 382.205523 -39.6 
L 380.234661 -81.184883 
L 378.771018 -146.368536 
L 376.909582 -166.526871 
L 375.406268 -175.594878 
L 374.560892 -178.913039 
L 374.203448 -179.99086 
L 373.921916 -180.83978 
L 373.797894 -181.213749 
L 373.645279 -181.673938 
L 373.558321 -181.936147 
L 373.436662 -182.302993 
L 373.380684 -182.471789 
L 373.302517 -182.70749 
L 373.282808 -182.766919 
L 373.253864 -182.854194 
L 373.250659 -182.863859 
L 373.243637 -182.885035 
L 373.236614 -182.906211 
L 373.233899 -182.914396 
L 373.231474 -182.921709 
L 373.225207 -182.940605 
L 373.217557 -182.963674 
L 373.214493 -182.972913 
L 373.214187 -182.973837 
L 373.203879 -183.004918 
L 373.190265 -183.045969 
L 373.176355 -183.087913 
L 373.174964 -183.092107 
L 372.977842 -183.686499 
L 372.897954 -183.927391 
L 372.733862 -184.422187 
L 372.573748 -184.904988 
L 372.236802 -185.621666 
L 371.94353 -186.199149 
L 371.407635 -187.254382 
L 370.871741 -188.309614 
L 368.192269 -192.758908 
L 365.512797 -196.206548 
L 362.833326 -199.030041 
L 360.153854 -201.648636 
L 357.474382 -203.939431 
L 354.79491 -205.94399 
L 352.115438 -207.727304 
L 349.435967 -209.450134 
L 346.756495 -211.128209 
L 344.077023 -212.648853 
L 341.397551 -214.038519 
L 338.718079 -215.31706 
L 336.038608 -216.499684 
L 333.359136 -217.598223 
L 330.679664 -218.621993 
L 328.000192 -219.578395 
L 325.320721 -220.47335 
L 322.641249 -221.311609 
L 319.961777 -222.097001 
L 317.282305 -222.83262 
L 314.602833 -223.520977 
L 311.923362 -224.164126 
L 309.24389 -224.763774 
L 306.564418 -225.321376 
L 303.884946 -225.838222 
L 301.205474 -226.315514 
L 298.526003 -226.754438 
L 295.846531 -227.231227 
L 293.167059 -227.701285 
L 290.487587 -228.133856 
L 287.808115 -228.529355 
L 285.128644 -228.888422 
L 282.449172 -229.212003 
L 279.7697 -229.501393 
L 277.090228 -229.75827 
L 274.410757 -229.984686 
L 271.731285 -230.183011 
L 269.051813 -230.356486 
L 266.372341 -230.505182 
L 263.692869 -230.636378 
L 261.013398 -230.747116 
L 258.609722 -230.832153 
L 256.334449 -230.901591 
L 254.168715 -230.953083 
L 252.254586 -230.989746 
L 250.340458 -231.010457 
L 248.621508 -231.02069 
L 246.98617 -231.010483 
L 245.409511 -230.989755 
L 243.934102 -230.943512 
L 242.458694 -230.88467 
L 241.147838 -230.799168 
L 239.842154 -230.689351 
L 238.721704 -230.576405 
L 237.601544 -230.428735 
L 236.638886 -230.272167 
L 235.765795 -230.102826 
L 234.892703 -229.901721 
L 234.019612 -229.666176 
L 233.146521 -229.386976 
L 232.273429 -229.054966 
L 231.400338 -228.672197 
L 230.545546 -228.218221 
L 229.727991 -227.766499 
L 228.732308 -227.230818 
L 227.736625 -226.577131 
L 226.777104 -225.808034 
L 225.592391 -224.844663 
L 224.598745 -223.888073 
L 223.285534 -222.269806 
L 222.263223 -220.576045 
L 220.892352 -217.670476 
L 219.914679 -214.851498 
L 218.503859 -209.847435 
L 217.525134 -205.583899 
L 216.222109 -199.062845 
L 215.274625 -193.77786 
L 213.934431 -185.745703 
L 212.9919 -179.833446 
L 211.753912 -171.831445 
L 210.834783 -165.781871 
L 209.511303 -156.966394 
L 208.582954 -150.728893 
L 207.355548 -142.468412 
L 206.450113 -136.350419 
L 205.124617 -127.382725 
L 204.214365 -121.210525 
L 203.002444 -113.005082 
L 202.130055 -107.09458 
L 200.734201 -97.614488 
L 199.849203 -91.608957 
L 198.584947 -83.031433 
L 197.732099 -77.254264 
L 196.471209 -68.696468 
L 195.661518 -63.423234 
L 194.404941 -55.353701 
L 193.650512 -50.526428 
L 192.416598 -42.58166 
L 191.734947 -39.912903 
L 190.505039 -39.6 
L 189.909288 -39.6 
L 188.801993 -39.6 
L 188.32923 -39.6 
L 187.613575 -39.6 
L 187.333708 -39.6 
L 186.966917 -39.6 
L 186.845948 -39.6 
L 186.740398 -39.6 
L 186.702814 -39.6 
L 186.699055 -39.6 
L 186.698679 -39.6 
z
" style="stroke: #ff0000; stroke-opacity: 0.2"/>
    </defs>
    <g clip-path="url(#p3c1e2080a4)">
     <use xlink:href="#mae6fcb9cfd" x="0" y="360" style="fill: #ff0000; fill-opacity: 0.2; stroke: #ff0000; stroke-opacity: 0.2"/>
    </g>
   </g>
   <g id="PathCollection_1">
    <defs>
     <path id="m78974fd949" d="M 0 4.330127 
C 1.148363 4.330127 2.249847 3.873878 3.061862 3.061862 
C 3.873878 2.249847 4.330127 1.148363 4.330127 0 
C 4.330127 -1.148363 3.873878 -2.249847 3.061862 -3.061862 
C 2.249847 -3.873878 1.148363 -4.330127 0 -4.330127 
C -1.148363 -4.330127 -2.249847 -3.873878 -3.061862 -3.061862 
C -3.873878 -2.249847 -4.330127 -1.148363 -4.330127 0 
C -4.330127 1.148363 -3.873878 2.249847 -3.061862 3.061862 
C -2.249847 3.873878 -1.148363 4.330127 0 4.330127 
z
" style="stroke: #ff0000; stroke-opacity: 0.8"/>
    </defs>
    <g clip-path="url(#p3c1e2080a4)">
     <use xlink:href="#m78974fd949" x="186.698679" y="320.4" style="fill: #ff0000; fill-opacity: 0.8; stroke: #ff0000; stroke-opacity: 0.8"/>
     <use xlink:href="#m78974fd949" x="213.493397" y="187.90081" style="fill: #ff0000; fill-opacity: 0.8; stroke: #ff0000; stroke-opacity: 0.8"/>
     <use xlink:href="#m78974fd949" x="240.288115" y="139.058831" style="fill: #ff0000; fill-opacity: 0.8; stroke: #ff0000; stroke-opacity: 0.8"/>
     <use xlink:href="#m78974fd949" x="267.082833" y="131.822042" style="fill: #ff0000; fill-opacity: 0.8; stroke: #ff0000; stroke-opacity: 0.8"/>
     <use xlink:href="#m78974fd949" x="293.877551" y="156.987591" style="fill: #ff0000; fill-opacity: 0.8; stroke: #ff0000; stroke-opacity: 0.8"/>
     <use xlink:href="#m78974fd949" x="320.672269" y="120.25042" style="fill: #ff0000; fill-opacity: 0.8; stroke: #ff0000; stroke-opacity: 0.8"/>
     <use xlink:href="#m78974fd949" x="347.466987" y="139.407485" style="fill: #ff0000; fill-opacity: 0.8; stroke: #ff0000; stroke-opacity: 0.8"/>
     <use xlink:href="#m78974fd949" x="374.261705" y="185.092239" style="fill: #ff0000; fill-opacity: 0.8; stroke: #ff0000; stroke-opacity: 0.8"/>
    </g>
   </g>
   <g id="line2d_1">
    <path d="M 186.698679 320.4 
L 192.416598 320.4 
L 194.404941 308.35914 
L 211.753912 198.003558 
L 215.274625 176.507086 
L 217.525134 163.948658 
L 218.503859 159.033061 
L 219.914679 152.766594 
L 220.892352 149.070402 
L 222.263223 144.841491 
L 223.285534 142.358815 
L 224.598745 139.892113 
L 225.592391 138.456529 
L 226.777104 137.114371 
L 227.736625 136.253827 
L 229.727991 134.929011 
L 231.400338 134.154018 
L 233.146521 133.567516 
L 235.765795 132.977395 
L 238.721704 132.581954 
L 242.458694 132.326822 
L 248.621508 132.217218 
L 256.334449 132.323499 
L 266.372341 132.661242 
L 274.410757 133.103732 
L 282.449172 133.764509 
L 290.487587 134.700589 
L 298.526003 135.946904 
L 306.564418 137.521015 
L 311.923362 138.759757 
L 317.282305 140.158688 
L 322.641249 141.73159 
L 328.000192 143.501176 
L 333.359136 145.50334 
L 338.718079 147.794033 
L 344.077023 150.461778 
L 346.756495 151.979364 
L 349.435967 153.65309 
L 352.115438 155.519688 
L 354.79491 157.631024 
L 357.474382 160.063612 
L 360.153854 162.937068 
L 362.833326 166.453953 
L 365.512797 170.999994 
L 368.192269 177.464402 
L 370.871741 188.861278 
L 371.407635 192.697481 
L 372.236802 201.631477 
L 372.733862 211.575807 
L 372.977842 220.758268 
L 373.253864 251.684567 
L 373.645279 320.4 
L 401.056423 320.4 
L 401.056423 320.4 
" clip-path="url(#p3c1e2080a4)" style="fill: none; stroke: #ff0000; stroke-width: 1.5; stroke-linecap: round"/>
   </g>
  </g>
  <g id="axes_2">
   <g id="patch_7">
    <path d="M 476.081633 320.4 
L 703.836735 320.4 
L 703.836735 43.2 
L 476.081633 43.2 
z
" style="fill: #ffffff"/>
   </g>
   <g id="matplotlib.axis_3">
    <g id="xtick_6">
     <g id="text_13">
      <!-- 0 -->
      <g style="fill: #262626" transform="translate(474.10525 352.232375) scale(0.312 -0.312)">
       <use xlink:href="#ArialMT-30"/>
      </g>
     </g>
    </g>
    <g id="xtick_7">
     <g id="text_14">
      <!-- 2 -->
      <g style="fill: #262626" transform="translate(527.694685 352.232375) scale(0.312 -0.312)">
       <use xlink:href="#ArialMT-32"/>
      </g>
     </g>
    </g>
    <g id="xtick_8">
     <g id="text_15">
      <!-- 4 -->
      <g style="fill: #262626" transform="translate(581.284121 352.232375) scale(0.312 -0.312)">
       <use xlink:href="#ArialMT-34"/>
      </g>
     </g>
    </g>
    <g id="xtick_9">
     <g id="text_16">
      <!-- 6 -->
      <g style="fill: #262626" transform="translate(634.873557 352.232375) scale(0.312 -0.312)">
       <use xlink:href="#ArialMT-36"/>
      </g>
     </g>
    </g>
    <g id="xtick_10">
     <g id="text_17">
      <!-- 8 -->
      <g style="fill: #262626" transform="translate(688.462993 352.232375) scale(0.312 -0.312)">
       <use xlink:href="#ArialMT-38"/>
      </g>
     </g>
    </g>
    <g id="text_18">
     <!-- Time (d) -->
     <g style="fill: #262626" transform="translate(537.272621 383.253281) scale(0.286 -0.286)">
      <use xlink:href="#ArialMT-54"/>
      <use xlink:href="#ArialMT-69" x="57.333984"/>
      <use xlink:href="#ArialMT-6d" x="79.550781"/>
      <use xlink:href="#ArialMT-65" x="162.851562"/>
      <use xlink:href="#ArialMT-20" x="218.466797"/>
      <use xlink:href="#ArialMT-28" x="246.25"/>
      <use xlink:href="#ArialMT-64" x="279.550781"/>
      <use xlink:href="#ArialMT-29" x="335.166016"/>
     </g>
    </g>
   </g>
   <g id="matplotlib.axis_4">
    <g id="ytick_6">
     <g id="text_19">
      <!-- 4 -->
      <g style="fill: #262626" transform="translate(449.231508 269.966187) scale(0.312 -0.312)">
       <use xlink:href="#ArialMT-34"/>
      </g>
     </g>
    </g>
    <g id="ytick_7">
     <g id="text_20">
      <!-- 6 -->
      <g style="fill: #262626" transform="translate(449.231508 146.766188) scale(0.312 -0.312)">
       <use xlink:href="#ArialMT-36"/>
      </g>
     </g>
    </g>
    <g id="text_21">
     <!-- Log$_{10}$ CD8$^+$ T cells -->
     <g style="fill: #262626" transform="translate(438.939508 309.642) rotate(-90) scale(0.286 -0.286)">
      <defs>
       <path id="ArialMT-43" d="M 3763 1606 
L 4369 1453 
Q 4178 706 3683 314 
Q 3188 -78 2472 -78 
Q 1731 -78 1267 223 
Q 803 525 561 1097 
Q 319 1669 319 2325 
Q 319 3041 592 3573 
Q 866 4106 1370 4382 
Q 1875 4659 2481 4659 
Q 3169 4659 3637 4309 
Q 4106 3959 4291 3325 
L 3694 3184 
Q 3534 3684 3231 3912 
Q 2928 4141 2469 4141 
Q 1941 4141 1586 3887 
Q 1231 3634 1087 3207 
Q 944 2781 944 2328 
Q 944 1744 1114 1308 
Q 1284 872 1643 656 
Q 2003 441 2422 441 
Q 2931 441 3284 734 
Q 3638 1028 3763 1606 
z
" transform="scale(0.015625)"/>
       <path id="ArialMT-44" d="M 494 0 
L 494 4581 
L 2072 4581 
Q 2606 4581 2888 4516 
Q 3281 4425 3559 4188 
Q 3922 3881 4101 3404 
Q 4281 2928 4281 2316 
Q 4281 1794 4159 1391 
Q 4038 988 3847 723 
Q 3656 459 3429 307 
Q 3203 156 2883 78 
Q 2563 0 2147 0 
L 494 0 
z
M 1100 541 
L 2078 541 
Q 2531 541 2789 625 
Q 3047 709 3200 863 
Q 3416 1078 3536 1442 
Q 3656 1806 3656 2325 
Q 3656 3044 3420 3430 
Q 3184 3816 2847 3947 
Q 2603 4041 2063 4041 
L 1100 4041 
L 1100 541 
z
" transform="scale(0.015625)"/>
       <path id="DejaVuSans-2b" d="M 2944 4013 
L 2944 2272 
L 4684 2272 
L 4684 1741 
L 2944 1741 
L 2944 0 
L 2419 0 
L 2419 1741 
L 678 1741 
L 678 2272 
L 2419 2272 
L 2419 4013 
L 2944 4013 
z
" transform="scale(0.015625)"/>
       <path id="ArialMT-6c" d="M 409 0 
L 409 4581 
L 972 4581 
L 972 0 
L 409 0 
z
" transform="scale(0.015625)"/>
      </defs>
      <use xlink:href="#ArialMT-4c" transform="translate(0 0.826562)"/>
      <use xlink:href="#ArialMT-6f" transform="translate(55.615234 0.826562)"/>
      <use xlink:href="#ArialMT-67" transform="translate(111.230469 0.826562)"/>
      <use xlink:href="#DejaVuSans-31" transform="translate(167.802734 -15.579688) scale(0.7)"/>
      <use xlink:href="#DejaVuSans-30" transform="translate(212.338867 -15.579688) scale(0.7)"/>
      <use xlink:href="#ArialMT-20" transform="translate(259.609375 0.826562)"/>
      <use xlink:href="#ArialMT-43" transform="translate(287.392578 0.826562)"/>
      <use xlink:href="#ArialMT-44" transform="translate(359.609375 0.826562)"/>
      <use xlink:href="#ArialMT-38" transform="translate(431.826172 0.826562)"/>
      <use xlink:href="#DejaVuSans-2b" transform="translate(502.036133 39.107812) scale(0.7)"/>
      <use xlink:href="#ArialMT-20" transform="translate(577.060547 0.826562)"/>
      <use xlink:href="#ArialMT-54" transform="translate(604.84375 0.826562)"/>
      <use xlink:href="#ArialMT-20" transform="translate(665.927734 0.826562)"/>
      <use xlink:href="#ArialMT-63" transform="translate(693.710938 0.826562)"/>
      <use xlink:href="#ArialMT-65" transform="translate(743.710938 0.826562)"/>
      <use xlink:href="#ArialMT-6c" transform="translate(799.326172 0.826562)"/>
      <use xlink:href="#ArialMT-6c" transform="translate(821.542969 0.826562)"/>
      <use xlink:href="#ArialMT-73" transform="translate(843.759766 0.826562)"/>
     </g>
    </g>
   </g>
   <g id="patch_8">
    <path d="M 476.081633 320.4 
L 476.081633 43.2 
" style="fill: none; stroke: #262626; stroke-width: 1.25; stroke-linejoin: miter; stroke-linecap: square"/>
   </g>
   <g id="patch_9">
    <path d="M 703.836735 320.4 
L 703.836735 43.2 
" style="fill: none; stroke: #262626; stroke-width: 1.25; stroke-linejoin: miter; stroke-linecap: square"/>
   </g>
   <g id="patch_10">
    <path d="M 476.081633 320.4 
L 703.836735 320.4 
" style="fill: none; stroke: #262626; stroke-width: 1.25; stroke-linejoin: miter; stroke-linecap: square"/>
   </g>
   <g id="patch_11">
    <path d="M 476.081633 43.2 
L 703.836735 43.2 
" style="fill: none; stroke: #262626; stroke-width: 1.25; stroke-linejoin: miter; stroke-linecap: square"/>
   </g>
   <g id="PolyCollection_2">
    <defs>
     <path id="maf5877490a" d="M 482.780312 -170.544936 
L 482.780312 -170.544936 
L 482.780688 -170.544936 
L 482.784446 -170.544936 
L 482.822031 -170.544936 
L 482.927581 -170.544936 
L 483.04855 -170.544936 
L 483.41534 -170.544936 
L 483.695207 -170.544936 
L 484.410863 -170.544936 
L 484.883625 -170.544936 
L 485.990921 -170.544936 
L 486.586672 -170.544936 
L 487.816579 -170.544936 
L 488.498231 -170.544936 
L 489.732145 -170.544936 
L 490.486574 -170.544936 
L 491.743151 -170.544936 
L 492.552841 -170.544936 
L 493.813731 -170.544936 
L 494.666579 -170.544936 
L 495.930836 -170.544936 
L 496.815833 -170.544936 
L 498.211688 -170.544936 
L 499.084076 -170.544936 
L 500.295998 -170.544936 
L 501.20625 -170.544936 
L 502.531745 -170.544936 
L 503.43718 -170.544936 
L 504.664586 -170.544937 
L 505.592935 -170.544937 
L 506.916415 -170.544939 
L 507.835545 -170.544941 
L 509.073533 -170.544944 
L 510.016064 -170.544949 
L 511.356257 -170.544961 
L 512.303742 -170.544975 
L 513.606767 -170.545006 
L 514.585492 -170.545045 
L 515.996312 -170.545139 
L 516.973984 -170.545245 
L 518.344855 -170.545496 
L 519.367167 -170.545803 
L 520.680377 -170.546484 
L 521.674024 -170.547233 
L 522.858737 -170.548714 
L 523.818258 -170.55051 
L 524.813941 -170.553356 
L 525.809623 -170.557577 
L 526.627179 -170.562433 
L 527.481971 -170.569499 
L 528.355062 -170.579553 
L 529.228153 -170.593413 
L 530.101245 -170.612859 
L 530.974336 -170.639575 
L 531.847427 -170.67638 
L 532.720519 -170.729337 
L 533.683177 -170.801854 
L 534.803337 -170.93437 
L 535.923787 -171.110801 
L 537.229471 -171.448222 
L 538.540326 -171.859114 
L 540.015735 -172.675695 
L 541.491144 -173.629134 
L 543.067803 -175.314543 
L 544.703141 -177.430582 
L 546.42209 -180.369333 
L 548.336219 -184.534832 
L 550.250348 -189.646648 
L 552.416081 -196.035625 
L 554.691354 -203.433095 
L 557.09503 -211.4573 
L 559.774502 -220.367443 
L 562.453974 -228.889074 
L 565.133446 -236.969807 
L 567.812917 -244.418357 
L 570.492389 -251.254656 
L 573.171861 -257.487997 
L 575.851333 -263.14352 
L 578.530805 -268.254164 
L 581.210276 -272.856096 
L 583.889748 -276.98616 
L 586.56922 -280.261624 
L 589.248692 -283.016836 
L 591.928163 -285.429272 
L 594.607635 -287.172801 
L 597.287107 -288.357306 
L 599.966579 -289.330014 
L 602.646051 -290.068655 
L 605.325522 -290.539559 
L 608.004994 -290.891435 
L 610.684466 -291.143885 
L 613.363938 -291.313961 
L 616.04341 -291.416359 
L 618.722881 -291.463617 
L 621.402353 -291.466325 
L 624.081825 -291.433339 
L 626.761297 -291.371987 
L 629.440769 -291.288274 
L 632.12024 -291.187073 
L 634.799712 -291.072299 
L 637.479184 -290.947067 
L 640.158656 -290.813837 
L 642.838127 -290.674531 
L 645.517599 -290.53064 
L 648.197071 -290.383313 
L 650.876543 -290.233425 
L 653.556015 -290.081641 
L 656.235486 -289.928462 
L 658.914958 -289.774261 
L 661.59443 -289.619318 
L 664.273902 -289.463839 
L 666.953374 -289.307974 
L 667.489268 -289.276765 
L 668.025162 -289.245556 
L 668.318434 -289.228477 
L 668.655381 -289.208843 
L 668.815494 -289.199508 
L 668.979586 -289.189941 
L 669.059475 -289.185283 
L 669.256597 -289.173791 
L 669.257988 -289.17371 
L 669.271898 -289.172899 
L 669.285512 -289.172105 
L 669.295819 -289.171504 
L 669.296126 -289.171486 
L 669.29919 -289.171307 
L 669.30684 -289.170861 
L 669.313107 -289.170496 
L 669.315532 -289.170354 
L 669.318246 -289.170196 
L 669.325269 -289.169787 
L 669.332292 -289.169377 
L 669.335497 -289.16919 
L 669.364441 -289.167503 
L 669.384149 -289.166354 
L 669.462316 -289.161796 
L 669.518295 -289.158533 
L 669.639954 -289.15144 
L 669.726912 -289.14637 
L 669.879527 -289.137471 
L 670.003548 -289.130237 
L 670.285081 -289.113816 
L 670.642525 -289.092963 
L 671.487901 -289.043635 
L 672.991215 -288.955881 
L 674.85265 -288.847166 
L 676.316294 -288.761658 
L 678.287156 -288.646479 
L 680.966628 -288.489843 
L 683.6461 -288.312583 
L 686.325571 -288.049795 
L 689.005043 -287.786941 
L 691.684515 -287.524046 
L 694.363987 -287.261131 
L 697.043458 -286.998209 
L 697.138055 -286.988927 
L 697.138055 -304.53647 
L 697.138055 -304.53647 
L 697.043458 -304.544186 
L 694.363987 -304.762807 
L 691.684515 -304.981266 
L 689.005043 -305.199457 
L 686.325571 -305.417265 
L 683.6461 -305.634738 
L 680.966628 -305.851604 
L 678.287156 -306.067788 
L 676.316294 -306.226232 
L 674.85265 -306.343512 
L 672.991215 -306.492092 
L 671.487901 -306.611595 
L 670.642525 -306.678563 
L 670.285081 -306.706812 
L 670.003548 -306.729037 
L 669.879527 -306.73882 
L 669.726912 -306.750852 
L 669.639954 -306.757706 
L 669.518295 -306.767271 
L 669.462316 -306.771656 
L 669.384149 -306.777779 
L 669.364441 -306.779323 
L 669.335497 -306.781591 
L 669.332292 -306.781842 
L 669.325269 -306.782392 
L 669.318246 -306.782942 
L 669.315532 -306.783155 
L 669.313107 -306.783345 
L 669.30684 -306.783836 
L 669.29919 -306.784435 
L 669.296126 -306.784675 
L 669.295819 -306.784699 
L 669.285512 -306.785506 
L 669.271898 -306.786573 
L 669.257988 -306.787662 
L 669.256597 -306.787771 
L 669.059475 -306.803213 
L 668.979586 -306.809471 
L 668.815494 -306.822326 
L 668.655381 -306.834869 
L 668.318434 -306.861264 
L 668.025162 -306.884238 
L 667.489268 -306.926218 
L 666.953374 -306.968198 
L 664.273902 -307.175434 
L 661.59443 -307.379198 
L 658.914958 -307.578548 
L 656.235486 -307.772316 
L 653.556015 -307.959063 
L 650.876543 -308.137023 
L 648.197071 -308.304049 
L 645.517599 -308.457543 
L 642.838127 -308.594387 
L 640.158656 -308.710863 
L 637.479184 -308.802571 
L 634.799712 -308.864339 
L 632.12024 -308.890138 
L 629.440769 -308.872981 
L 626.761297 -308.804842 
L 624.081825 -308.676559 
L 621.402353 -308.477747 
L 618.722881 -308.196718 
L 616.04341 -307.820396 
L 613.363938 -307.334248 
L 610.684466 -306.722204 
L 608.004994 -305.966588 
L 605.325522 -305.048049 
L 602.646051 -303.945479 
L 599.966579 -302.635936 
L 597.287107 -301.094551 
L 594.607635 -299.294427 
L 591.928163 -297.206522 
L 589.248692 -294.861295 
L 586.56922 -292.529493 
L 583.889748 -289.829918 
L 581.210276 -286.723933 
L 578.530805 -283.170045 
L 575.851333 -279.123881 
L 573.171861 -274.810221 
L 570.492389 -270.108377 
L 567.812917 -264.757917 
L 565.133446 -258.70046 
L 562.453974 -252.125377 
L 559.774502 -244.934542 
L 557.09503 -236.831322 
L 554.691354 -228.901049 
L 552.416081 -220.943527 
L 550.250348 -212.939492 
L 548.336219 -205.782817 
L 546.42209 -198.770304 
L 544.703141 -192.708977 
L 543.067803 -187.570945 
L 541.491144 -183.37317 
L 540.015735 -179.802453 
L 538.540326 -177.181625 
L 537.229471 -175.156142 
L 535.923787 -173.717374 
L 534.803337 -172.892584 
L 533.683177 -172.094412 
L 532.720519 -171.682435 
L 531.847427 -171.410577 
L 530.974336 -171.138719 
L 530.101245 -170.980498 
L 529.228153 -170.850466 
L 528.355062 -170.765271 
L 527.481971 -170.699553 
L 526.627179 -170.654879 
L 525.809623 -170.623974 
L 524.813941 -170.597521 
L 523.818258 -170.579755 
L 522.858737 -170.568311 
L 521.674024 -170.55917 
L 520.680377 -170.554308 
L 519.367167 -170.5503 
L 518.344855 -170.548412 
L 516.973984 -170.546847 
L 515.996312 -170.546192 
L 514.585492 -170.545619 
L 513.606767 -170.545383 
L 512.303742 -170.545184 
L 511.356257 -170.545098 
L 510.016064 -170.545025 
L 509.073533 -170.544993 
L 507.835545 -170.544968 
L 506.916415 -170.544956 
L 505.592935 -170.544946 
L 504.664586 -170.544942 
L 503.43718 -170.544939 
L 502.531745 -170.544938 
L 501.20625 -170.544937 
L 500.295998 -170.544936 
L 499.084076 -170.544936 
L 498.211688 -170.544936 
L 496.815833 -170.544936 
L 495.930836 -170.544936 
L 494.666579 -170.544936 
L 493.813731 -170.544936 
L 492.552841 -170.544936 
L 491.743151 -170.544936 
L 490.486574 -170.544936 
L 489.732145 -170.544936 
L 488.498231 -170.544936 
L 487.816579 -170.544936 
L 486.586672 -170.544936 
L 485.990921 -170.544936 
L 484.883625 -170.544936 
L 484.410863 -170.544936 
L 483.695207 -170.544936 
L 483.41534 -170.544936 
L 483.04855 -170.544936 
L 482.927581 -170.544936 
L 482.822031 -170.544936 
L 482.784446 -170.544936 
L 482.780688 -170.544936 
L 482.780312 -170.544936 
z
" style="stroke: #ff0000; stroke-opacity: 0.2"/>
    </defs>
    <g clip-path="url(#p1aa0959985)">
     <use xlink:href="#maf5877490a" x="0" y="360" style="fill: #ff0000; fill-opacity: 0.2; stroke: #ff0000; stroke-opacity: 0.2"/>
    </g>
   </g>
   <g id="PolyCollection_3">
    <defs>
     <path id="m9b5b626a9c" d="M 482.780312 -89.109779 
L 482.780312 -89.109779 
L 482.780688 -89.109779 
L 482.784446 -89.109779 
L 482.822031 -89.109779 
L 482.927581 -89.109779 
L 483.04855 -89.109779 
L 483.41534 -89.109779 
L 483.695207 -89.109779 
L 484.410863 -89.109779 
L 484.883625 -89.109779 
L 485.990921 -89.109779 
L 486.586672 -89.109779 
L 487.816579 -89.109779 
L 488.498231 -89.109779 
L 489.732145 -89.109779 
L 490.486574 -89.109779 
L 491.743151 -89.109779 
L 492.552841 -89.109779 
L 493.813731 -89.109779 
L 494.666579 -89.109779 
L 495.930836 -89.109779 
L 496.815833 -89.109779 
L 498.211688 -89.109779 
L 499.084076 -89.109779 
L 500.295998 -89.109779 
L 501.20625 -89.109779 
L 502.531745 -89.109779 
L 503.43718 -89.109779 
L 504.664586 -89.109779 
L 505.592935 -89.109779 
L 506.916415 -89.109779 
L 507.835545 -89.109779 
L 509.073533 -89.109779 
L 510.016064 -89.109779 
L 511.356257 -89.109779 
L 512.303742 -89.109779 
L 513.606767 -89.109779 
L 514.585492 -89.109779 
L 515.996312 -89.109779 
L 516.973984 -89.109779 
L 518.344855 -89.109779 
L 519.367167 -89.109779 
L 520.680377 -89.109779 
L 521.674024 -89.109779 
L 522.858737 -89.109779 
L 523.818258 -89.109779 
L 524.813941 -89.109779 
L 525.809623 -89.109779 
L 526.627179 -89.109779 
L 527.481971 -89.109779 
L 528.355062 -89.109779 
L 529.228153 -89.109779 
L 530.101245 -89.10978 
L 530.974336 -89.10978 
L 531.847427 -89.109781 
L 532.720519 -89.109782 
L 533.683177 -89.109784 
L 534.803337 -89.109788 
L 535.923787 -89.109795 
L 537.229471 -89.109805 
L 538.540326 -89.109826 
L 540.015735 -89.109863 
L 541.491144 -89.109937 
L 543.067803 -89.110063 
L 544.703141 -89.110312 
L 546.42209 -89.110782 
L 548.336219 -89.111802 
L 550.250348 -89.113634 
L 552.416081 -89.117545 
L 554.691354 -89.125508 
L 557.09503 -89.141931 
L 559.774502 -89.172112 
L 562.453974 -89.229791 
L 565.133446 -89.319804 
L 567.812917 -89.469194 
L 570.492389 -89.696969 
L 573.171861 -90.029263 
L 575.851333 -90.494698 
L 578.530805 -91.119316 
L 581.210276 -91.929044 
L 583.889748 -92.941984 
L 586.56922 -94.167281 
L 589.248692 -95.603584 
L 591.928163 -97.238916 
L 594.607635 -99.051952 
L 597.287107 -101.014378 
L 599.966579 -103.09377 
L 602.646051 -105.256452 
L 605.325522 -107.275867 
L 608.004994 -109.162097 
L 610.684466 -111.018234 
L 613.363938 -112.831512 
L 616.04341 -114.592568 
L 618.722881 -116.294976 
L 621.402353 -117.934753 
L 624.081825 -119.509884 
L 626.761297 -120.875642 
L 629.440769 -122.114128 
L 632.12024 -123.299042 
L 634.799712 -124.433162 
L 637.479184 -125.519323 
L 640.158656 -126.560337 
L 642.838127 -127.558933 
L 645.517599 -128.517721 
L 648.197071 -129.439181 
L 650.876543 -130.325639 
L 653.556015 -131.179262 
L 656.235486 -132.002066 
L 658.914958 -132.79592 
L 661.59443 -133.562554 
L 664.273902 -134.303564 
L 666.953374 -135.020422 
L 667.489268 -135.161903 
L 668.025162 -135.303384 
L 668.318434 -135.378593 
L 668.655381 -135.464981 
L 668.815494 -135.506032 
L 668.979586 -135.548103 
L 669.059475 -135.568585 
L 669.256597 -135.619124 
L 669.257988 -135.619481 
L 669.271898 -135.623047 
L 669.285512 -135.626538 
L 669.295819 -135.62918 
L 669.296126 -135.629259 
L 669.29919 -135.630044 
L 669.30684 -135.632006 
L 669.313107 -135.633613 
L 669.315532 -135.634234 
L 669.318246 -135.63493 
L 669.325269 -135.636731 
L 669.332292 -135.638531 
L 669.335497 -135.639353 
L 669.364441 -135.646774 
L 669.384149 -135.651827 
L 669.462316 -135.671868 
L 669.518295 -135.68622 
L 669.639954 -135.717411 
L 669.726912 -135.739706 
L 669.879527 -135.778834 
L 670.003548 -135.810632 
L 670.285081 -135.882635 
L 670.642525 -135.9725 
L 671.487901 -136.184758 
L 672.991215 -136.556555 
L 674.85265 -137.007914 
L 676.316294 -137.355048 
L 678.287156 -137.816399 
L 680.966628 -138.425995 
L 683.6461 -139.019982 
L 686.325571 -139.596873 
L 689.005043 -140.158209 
L 691.684515 -140.704717 
L 694.363987 -141.237076 
L 697.043458 -141.756406 
L 697.138055 -141.774503 
L 697.138055 -163.529827 
L 697.138055 -163.529827 
L 697.043458 -163.508401 
L 694.363987 -162.898519 
L 691.684515 -162.270913 
L 689.005043 -161.624635 
L 686.325571 -160.958661 
L 683.6461 -160.271908 
L 680.966628 -159.562236 
L 678.287156 -158.830098 
L 676.316294 -158.275834 
L 674.85265 -157.856172 
L 672.991215 -157.31028 
L 671.487901 -156.862838 
L 670.642525 -156.606818 
L 670.285081 -156.497621 
L 670.003548 -156.411146 
L 669.879527 -156.372968 
L 669.726912 -156.325913 
L 669.639954 -156.298539 
L 669.518295 -156.260241 
L 669.462316 -156.242619 
L 669.384149 -156.218013 
L 669.364441 -156.211809 
L 669.335497 -156.202697 
L 669.332292 -156.201688 
L 669.325269 -156.199478 
L 669.318246 -156.197267 
L 669.315532 -156.196412 
L 669.313107 -156.195649 
L 669.30684 -156.193676 
L 669.29919 -156.191268 
L 669.296126 -156.190303 
L 669.295819 -156.190207 
L 669.285512 -156.186962 
L 669.271898 -156.182676 
L 669.257988 -156.178298 
L 669.256597 -156.17786 
L 669.059475 -156.115807 
L 668.979586 -156.090658 
L 668.815494 -156.039003 
L 668.655381 -155.9886 
L 668.318434 -155.88253 
L 668.025162 -155.79021 
L 667.489268 -155.621513 
L 666.953374 -155.45148 
L 664.273902 -154.572397 
L 661.59443 -153.656619 
L 658.914958 -152.701493 
L 656.235486 -151.704119 
L 653.556015 -150.664462 
L 650.876543 -149.584502 
L 648.197071 -148.455352 
L 645.517599 -147.273261 
L 642.838127 -146.034174 
L 640.158656 -144.733721 
L 637.479184 -143.367232 
L 634.799712 -141.929747 
L 632.12024 -140.416055 
L 629.440769 -138.820758 
L 626.761297 -137.138361 
L 624.081825 -135.36341 
L 621.402353 -133.490691 
L 618.722881 -131.515488 
L 616.04341 -129.433947 
L 613.363938 -127.243543 
L 610.684466 -124.943684 
L 608.004994 -122.536475 
L 605.325522 -120.027641 
L 602.646051 -117.427607 
L 599.966579 -114.752688 
L 597.287107 -112.026263 
L 594.607635 -109.279722 
L 591.928163 -106.552866 
L 589.248692 -103.893311 
L 586.56922 -101.354424 
L 583.889748 -98.991504 
L 581.210276 -96.894702 
L 578.530805 -95.157673 
L 575.851333 -93.660172 
L 573.171861 -92.415855 
L 570.492389 -91.422411 
L 567.812917 -90.662308 
L 565.133446 -90.106972 
L 562.453974 -89.721501 
L 559.774502 -89.466937 
L 557.09503 -89.30732 
L 554.691354 -89.218868 
L 552.416081 -89.16811 
L 550.250348 -89.142412 
L 548.336219 -89.126796 
L 546.42209 -89.11929 
L 544.703141 -89.11463 
L 543.067803 -89.112569 
L 541.491144 -89.11124 
L 540.015735 -89.110622 
L 538.540326 -89.110251 
L 537.229471 -89.110035 
L 535.923787 -89.109928 
L 534.803337 -89.10987 
L 533.683177 -89.109836 
L 532.720519 -89.109816 
L 531.847427 -89.109804 
L 530.974336 -89.109796 
L 530.101245 -89.10979 
L 529.228153 -89.109787 
L 528.355062 -89.109784 
L 527.481971 -89.109782 
L 526.627179 -89.109781 
L 525.809623 -89.10978 
L 524.813941 -89.10978 
L 523.818258 -89.109779 
L 522.858737 -89.109779 
L 521.674024 -89.109779 
L 520.680377 -89.109779 
L 519.367167 -89.109779 
L 518.344855 -89.109779 
L 516.973984 -89.109779 
L 515.996312 -89.109779 
L 514.585492 -89.109779 
L 513.606767 -89.109779 
L 512.303742 -89.109779 
L 511.356257 -89.109779 
L 510.016064 -89.109779 
L 509.073533 -89.109779 
L 507.835545 -89.109779 
L 506.916415 -89.109779 
L 505.592935 -89.109779 
L 504.664586 -89.109779 
L 503.43718 -89.109779 
L 502.531745 -89.109779 
L 501.20625 -89.109779 
L 500.295998 -89.109779 
L 499.084076 -89.109779 
L 498.211688 -89.109779 
L 496.815833 -89.109779 
L 495.930836 -89.109779 
L 494.666579 -89.109779 
L 493.813731 -89.109779 
L 492.552841 -89.109779 
L 491.743151 -89.109779 
L 490.486574 -89.109779 
L 489.732145 -89.109779 
L 488.498231 -89.109779 
L 487.816579 -89.109779 
L 486.586672 -89.109779 
L 485.990921 -89.109779 
L 484.883625 -89.109779 
L 484.410863 -89.109779 
L 483.695207 -89.109779 
L 483.41534 -89.109779 
L 483.04855 -89.109779 
L 482.927581 -89.109779 
L 482.822031 -89.109779 
L 482.784446 -89.109779 
L 482.780688 -89.109779 
L 482.780312 -89.109779 
z
" style="stroke: #ff0000; stroke-opacity: 0.2"/>
    </defs>
    <g clip-path="url(#p1aa0959985)">
     <use xlink:href="#m9b5b626a9c" x="0" y="360" style="fill: #ff0000; fill-opacity: 0.2; stroke: #ff0000; stroke-opacity: 0.2"/>
    </g>
   </g>
   <g id="PathCollection_2">
    <g clip-path="url(#p1aa0959985)">
     <use xlink:href="#m78974fd949" x="482.780312" y="189.455064" style="fill: #ff0000; fill-opacity: 0.8; stroke: #ff0000; stroke-opacity: 0.8"/>
     <use xlink:href="#m78974fd949" x="509.57503" y="155.275547" style="fill: #ff0000; fill-opacity: 0.8; stroke: #ff0000; stroke-opacity: 0.8"/>
     <use xlink:href="#m78974fd949" x="536.369748" y="153.333781" style="fill: #ff0000; fill-opacity: 0.8; stroke: #ff0000; stroke-opacity: 0.8"/>
     <use xlink:href="#m78974fd949" x="563.164466" y="117.737891" style="fill: #ff0000; fill-opacity: 0.8; stroke: #ff0000; stroke-opacity: 0.8"/>
     <use xlink:href="#m78974fd949" x="589.959184" y="87.309012" style="fill: #ff0000; fill-opacity: 0.8; stroke: #ff0000; stroke-opacity: 0.8"/>
     <use xlink:href="#m78974fd949" x="616.753902" y="77.002515" style="fill: #ff0000; fill-opacity: 0.8; stroke: #ff0000; stroke-opacity: 0.8"/>
     <use xlink:href="#m78974fd949" x="643.548619" y="51.007836" style="fill: #ff0000; fill-opacity: 0.8; stroke: #ff0000; stroke-opacity: 0.8"/>
     <use xlink:href="#m78974fd949" x="670.343337" y="55.244669" style="fill: #ff0000; fill-opacity: 0.8; stroke: #ff0000; stroke-opacity: 0.8"/>
    </g>
   </g>
   <g id="PathCollection_3">
    <defs>
     <path id="m9125f9f767" d="M -4.330127 4.330127 
L 4.330127 4.330127 
L 4.330127 -4.330127 
L -4.330127 -4.330127 
z
" style="stroke: #ff0000; stroke-opacity: 0.8"/>
    </defs>
    <g clip-path="url(#p1aa0959985)">
     <use xlink:href="#m9125f9f767" x="482.780312" y="270.88875" style="fill: #ff0000; fill-opacity: 0.8; stroke: #ff0000; stroke-opacity: 0.8"/>
     <use xlink:href="#m9125f9f767" x="509.57503" y="272.017583" style="fill: #ff0000; fill-opacity: 0.8; stroke: #ff0000; stroke-opacity: 0.8"/>
     <use xlink:href="#m9125f9f767" x="536.369748" y="269.650037" style="fill: #ff0000; fill-opacity: 0.8; stroke: #ff0000; stroke-opacity: 0.8"/>
     <use xlink:href="#m9125f9f767" x="563.164466" y="265.644895" style="fill: #ff0000; fill-opacity: 0.8; stroke: #ff0000; stroke-opacity: 0.8"/>
     <use xlink:href="#m9125f9f767" x="589.959184" y="255.333597" style="fill: #ff0000; fill-opacity: 0.8; stroke: #ff0000; stroke-opacity: 0.8"/>
     <use xlink:href="#m9125f9f767" x="616.753902" y="237.960375" style="fill: #ff0000; fill-opacity: 0.8; stroke: #ff0000; stroke-opacity: 0.8"/>
     <use xlink:href="#m9125f9f767" x="643.548619" y="231.930045" style="fill: #ff0000; fill-opacity: 0.8; stroke: #ff0000; stroke-opacity: 0.8"/>
     <use xlink:href="#m9125f9f767" x="670.343337" y="211.989579" style="fill: #ff0000; fill-opacity: 0.8; stroke: #ff0000; stroke-opacity: 0.8"/>
    </g>
   </g>
   <g id="line2d_2">
    <path d="M 482.780312 189.455064 
L 528.355062 189.353434 
L 530.974336 189.177176 
L 532.720519 188.929659 
L 534.803337 188.377951 
L 535.923787 187.904056 
L 537.229471 187.131096 
L 538.540326 186.051234 
L 540.015735 184.382427 
L 541.491144 182.15107 
L 543.067803 179.082459 
L 544.703141 175.150259 
L 546.42209 170.275431 
L 548.336219 164.146159 
L 552.416081 149.833873 
L 557.09503 133.560887 
L 559.774502 124.967345 
L 562.453974 117.066904 
L 565.133446 109.887751 
L 567.812917 103.416468 
L 570.492389 97.618463 
L 573.171861 92.449376 
L 575.851333 87.86129 
L 578.530805 83.806022 
L 581.210276 80.236828 
L 583.889748 77.109226 
L 586.56922 74.381352 
L 589.248692 72.014067 
L 591.928163 69.970931 
L 594.607635 68.21812 
L 597.287107 66.724326 
L 599.966579 65.460642 
L 602.646051 64.400459 
L 605.325522 63.51937 
L 608.004994 62.795072 
L 610.684466 62.207287 
L 616.04341 61.369716 
L 621.402353 60.881507 
L 626.761297 60.644017 
L 634.799712 60.598165 
L 645.517599 60.863132 
L 661.59443 61.543956 
L 697.138055 63.288099 
L 697.138055 63.288099 
" clip-path="url(#p1aa0959985)" style="fill: none; stroke: #ff0000; stroke-width: 1.5; stroke-linecap: round"/>
   </g>
   <g id="line2d_3">
    <path d="M 482.780312 270.890221 
L 557.09503 270.780339 
L 562.453974 270.520501 
L 565.133446 270.264828 
L 567.812917 269.884404 
L 570.492389 269.344981 
L 573.171861 268.614115 
L 575.851333 267.665919 
L 578.530805 266.484761 
L 581.210276 265.068028 
L 583.889748 263.426924 
L 586.56922 261.585129 
L 591.928163 257.43732 
L 599.966579 250.637713 
L 608.004994 243.919411 
L 613.363938 239.746251 
L 618.722881 235.894189 
L 624.081825 232.376127 
L 629.440769 229.179061 
L 634.799712 226.277011 
L 640.158656 223.639198 
L 645.517599 221.234243 
L 650.876543 219.03318 
L 656.235486 217.010045 
L 664.273902 214.26047 
L 672.991215 211.601851 
L 680.966628 209.412377 
L 689.005043 207.402024 
L 697.138055 205.538277 
L 697.138055 205.538277 
" clip-path="url(#p1aa0959985)" style="fill: none; stroke-dasharray: 5.55,2.4; stroke-dashoffset: 0; stroke: #ff0000; stroke-width: 1.5"/>
   </g>
  </g>
  <g id="text_22">
   <!-- Volunteer 111 -->
   <g style="fill: #262626" transform="translate(338.024625 29.532375) scale(0.312 -0.312)">
    <defs>
     <path id="ArialMT-6e" d="M 422 0 
L 422 3319 
L 928 3319 
L 928 2847 
Q 1294 3394 1984 3394 
Q 2284 3394 2536 3286 
Q 2788 3178 2913 3003 
Q 3038 2828 3088 2588 
Q 3119 2431 3119 2041 
L 3119 0 
L 2556 0 
L 2556 2019 
Q 2556 2363 2490 2533 
Q 2425 2703 2258 2804 
Q 2091 2906 1866 2906 
Q 1506 2906 1245 2678 
Q 984 2450 984 1813 
L 984 0 
L 422 0 
z
" transform="scale(0.015625)"/>
     <path id="ArialMT-74" d="M 1650 503 
L 1731 6 
Q 1494 -44 1306 -44 
Q 1000 -44 831 53 
Q 663 150 594 308 
Q 525 466 525 972 
L 525 2881 
L 113 2881 
L 113 3319 
L 525 3319 
L 525 4141 
L 1084 4478 
L 1084 3319 
L 1650 3319 
L 1650 2881 
L 1084 2881 
L 1084 941 
Q 1084 700 1114 631 
Q 1144 563 1211 522 
Q 1278 481 1403 481 
Q 1497 481 1650 503 
z
" transform="scale(0.015625)"/>
     <path id="ArialMT-31" d="M 2384 0 
L 1822 0 
L 1822 3584 
Q 1619 3391 1289 3197 
Q 959 3003 697 2906 
L 697 3450 
Q 1169 3672 1522 3987 
Q 1875 4303 2022 4600 
L 2384 4600 
L 2384 0 
z
" transform="scale(0.015625)"/>
    </defs>
    <use xlink:href="#ArialMT-56"/>
    <use xlink:href="#ArialMT-6f" x="61.199219"/>
    <use xlink:href="#ArialMT-6c" x="116.814453"/>
    <use xlink:href="#ArialMT-75" x="139.03125"/>
    <use xlink:href="#ArialMT-6e" x="194.646484"/>
    <use xlink:href="#ArialMT-74" x="250.261719"/>
    <use xlink:href="#ArialMT-65" x="278.044922"/>
    <use xlink:href="#ArialMT-65" x="333.660156"/>
    <use xlink:href="#ArialMT-72" x="389.275391"/>
    <use xlink:href="#ArialMT-20" x="422.576172"/>
    <use xlink:href="#ArialMT-31" x="450.359375"/>
    <use xlink:href="#ArialMT-31" x="498.599609"/>
    <use xlink:href="#ArialMT-31" x="546.839844"/>
   </g>
  </g>
 </g>
 <defs>
  <clipPath id="p3c1e2080a4">
   <rect x="180" y="43.2" width="227.755102" height="277.2"/>
  </clipPath>
  <clipPath id="p1aa0959985">
   <rect x="476.081633" y="43.2" width="227.755102" height="277.2"/>
  </clipPath>
 </defs>
</svg>
