<?xml version="1.0" encoding="utf-8" standalone="no"?>
<!DOCTYPE svg PUBLIC "-//W3C//DTD SVG 1.1//EN"
  "http://www.w3.org/Graphics/SVG/1.1/DTD/svg11.dtd">
<svg xmlns:xlink="http://www.w3.org/1999/xlink" width="1440pt" height="360pt" viewBox="0 0 1440 360" xmlns="http://www.w3.org/2000/svg" version="1.1">
 <metadata>
  <rdf:RDF xmlns:dc="http://purl.org/dc/elements/1.1/" xmlns:cc="http://creativecommons.org/ns#" xmlns:rdf="http://www.w3.org/1999/02/22-rdf-syntax-ns#">
   <cc:Work>
    <dc:type rdf:resource="http://purl.org/dc/dcmitype/StillImage"/>
    <dc:date>2025-01-12T17:09:17.706652</dc:date>
    <dc:format>image/svg+xml</dc:format>
    <dc:creator>
     <cc:Agent>
      <dc:title>Matplotlib v3.9.2, https://matplotlib.org/</dc:title>
     </cc:Agent>
    </dc:creator>
   </cc:Work>
  </rdf:RDF>
 </metadata>
 <defs>
  <style type="text/css">*{stroke-linejoin: round; stroke-linecap: butt}</style>
 </defs>
 <g id="figure_1">
  <g id="patch_1">
   <path d="M 0 360 
L 1440 360 
L 1440 0 
L 0 0 
z
" style="fill: #ffffff"/>
  </g>
  <g id="axes_1">
   <g id="patch_2">
    <path d="M 59.96 297.16 
L 340.567439 297.16 
L 340.567439 36 
L 59.96 36 
z
" style="fill: #ffffff"/>
   </g>
   <g id="matplotlib.axis_1">
    <g id="xtick_1">
     <g id="line2d_1">
      <defs>
       <path id="m931180abd8" d="M 0 0 
L 0 3.5 
" style="stroke: #000000; stroke-width: 0.8"/>
      </defs>
      <g>
       <use xlink:href="#m931180abd8" x="63.010081" y="297.16" style="stroke: #000000; stroke-width: 0.8"/>
      </g>
     </g>
     <g id="text_1">
      <!-- 0 -->
      <g transform="translate(57.283831 317.837188) scale(0.18 -0.18)">
       <defs>
        <path id="DejaVuSans-30" d="M 2034 4250 
Q 1547 4250 1301 3770 
Q 1056 3291 1056 2328 
Q 1056 1369 1301 889 
Q 1547 409 2034 409 
Q 2525 409 2770 889 
Q 3016 1369 3016 2328 
Q 3016 3291 2770 3770 
Q 2525 4250 2034 4250 
z
M 2034 4750 
Q 2819 4750 3233 4129 
Q 3647 3509 3647 2328 
Q 3647 1150 3233 529 
Q 2819 -91 2034 -91 
Q 1250 -91 836 529 
Q 422 1150 422 2328 
Q 422 3509 836 4129 
Q 1250 4750 2034 4750 
z
" transform="scale(0.015625)"/>
       </defs>
       <use xlink:href="#DejaVuSans-30"/>
      </g>
     </g>
    </g>
    <g id="xtick_2">
     <g id="line2d_2">
      <g>
       <use xlink:href="#m931180abd8" x="93.510889" y="297.16" style="stroke: #000000; stroke-width: 0.8"/>
      </g>
     </g>
     <g id="text_2">
      <!-- 1 -->
      <g transform="translate(87.784639 317.837188) scale(0.18 -0.18)">
       <defs>
        <path id="DejaVuSans-31" d="M 794 531 
L 1825 531 
L 1825 4091 
L 703 3866 
L 703 4441 
L 1819 4666 
L 2450 4666 
L 2450 531 
L 3481 531 
L 3481 0 
L 794 0 
L 794 531 
z
" transform="scale(0.015625)"/>
       </defs>
       <use xlink:href="#DejaVuSans-31"/>
      </g>
     </g>
    </g>
    <g id="xtick_3">
     <g id="line2d_3">
      <g>
       <use xlink:href="#m931180abd8" x="124.011698" y="297.16" style="stroke: #000000; stroke-width: 0.8"/>
      </g>
     </g>
     <g id="text_3">
      <!-- 2 -->
      <g transform="translate(118.285448 317.837188) scale(0.18 -0.18)">
       <defs>
        <path id="DejaVuSans-32" d="M 1228 531 
L 3431 531 
L 3431 0 
L 469 0 
L 469 531 
Q 828 903 1448 1529 
Q 2069 2156 2228 2338 
Q 2531 2678 2651 2914 
Q 2772 3150 2772 3378 
Q 2772 3750 2511 3984 
Q 2250 4219 1831 4219 
Q 1534 4219 1204 4116 
Q 875 4013 500 3803 
L 500 4441 
Q 881 4594 1212 4672 
Q 1544 4750 1819 4750 
Q 2544 4750 2975 4387 
Q 3406 4025 3406 3419 
Q 3406 3131 3298 2873 
Q 3191 2616 2906 2266 
Q 2828 2175 2409 1742 
Q 1991 1309 1228 531 
z
" transform="scale(0.015625)"/>
       </defs>
       <use xlink:href="#DejaVuSans-32"/>
      </g>
     </g>
    </g>
    <g id="xtick_4">
     <g id="line2d_4">
      <g>
       <use xlink:href="#m931180abd8" x="154.512507" y="297.16" style="stroke: #000000; stroke-width: 0.8"/>
      </g>
     </g>
     <g id="text_4">
      <!-- 3 -->
      <g transform="translate(148.786257 317.837188) scale(0.18 -0.18)">
       <defs>
        <path id="DejaVuSans-33" d="M 2597 2516 
Q 3050 2419 3304 2112 
Q 3559 1806 3559 1356 
Q 3559 666 3084 287 
Q 2609 -91 1734 -91 
Q 1441 -91 1130 -33 
Q 819 25 488 141 
L 488 750 
Q 750 597 1062 519 
Q 1375 441 1716 441 
Q 2309 441 2620 675 
Q 2931 909 2931 1356 
Q 2931 1769 2642 2001 
Q 2353 2234 1838 2234 
L 1294 2234 
L 1294 2753 
L 1863 2753 
Q 2328 2753 2575 2939 
Q 2822 3125 2822 3475 
Q 2822 3834 2567 4026 
Q 2313 4219 1838 4219 
Q 1578 4219 1281 4162 
Q 984 4106 628 3988 
L 628 4550 
Q 988 4650 1302 4700 
Q 1616 4750 1894 4750 
Q 2613 4750 3031 4423 
Q 3450 4097 3450 3541 
Q 3450 3153 3228 2886 
Q 3006 2619 2597 2516 
z
" transform="scale(0.015625)"/>
       </defs>
       <use xlink:href="#DejaVuSans-33"/>
      </g>
     </g>
    </g>
    <g id="xtick_5">
     <g id="line2d_5">
      <g>
       <use xlink:href="#m931180abd8" x="185.013315" y="297.16" style="stroke: #000000; stroke-width: 0.8"/>
      </g>
     </g>
     <g id="text_5">
      <!-- 4 -->
      <g transform="translate(179.287065 317.837188) scale(0.18 -0.18)">
       <defs>
        <path id="DejaVuSans-34" d="M 2419 4116 
L 825 1625 
L 2419 1625 
L 2419 4116 
z
M 2253 4666 
L 3047 4666 
L 3047 1625 
L 3713 1625 
L 3713 1100 
L 3047 1100 
L 3047 0 
L 2419 0 
L 2419 1100 
L 313 1100 
L 313 1709 
L 2253 4666 
z
" transform="scale(0.015625)"/>
       </defs>
       <use xlink:href="#DejaVuSans-34"/>
      </g>
     </g>
    </g>
    <g id="xtick_6">
     <g id="line2d_6">
      <g>
       <use xlink:href="#m931180abd8" x="215.514124" y="297.16" style="stroke: #000000; stroke-width: 0.8"/>
      </g>
     </g>
     <g id="text_6">
      <!-- 5 -->
      <g transform="translate(209.787874 317.837188) scale(0.18 -0.18)">
       <defs>
        <path id="DejaVuSans-35" d="M 691 4666 
L 3169 4666 
L 3169 4134 
L 1269 4134 
L 1269 2991 
Q 1406 3038 1543 3061 
Q 1681 3084 1819 3084 
Q 2600 3084 3056 2656 
Q 3513 2228 3513 1497 
Q 3513 744 3044 326 
Q 2575 -91 1722 -91 
Q 1428 -91 1123 -41 
Q 819 9 494 109 
L 494 744 
Q 775 591 1075 516 
Q 1375 441 1709 441 
Q 2250 441 2565 725 
Q 2881 1009 2881 1497 
Q 2881 1984 2565 2268 
Q 2250 2553 1709 2553 
Q 1456 2553 1204 2497 
Q 953 2441 691 2322 
L 691 4666 
z
" transform="scale(0.015625)"/>
       </defs>
       <use xlink:href="#DejaVuSans-35"/>
      </g>
     </g>
    </g>
    <g id="xtick_7">
     <g id="line2d_7">
      <g>
       <use xlink:href="#m931180abd8" x="246.014932" y="297.16" style="stroke: #000000; stroke-width: 0.8"/>
      </g>
     </g>
     <g id="text_7">
      <!-- 6 -->
      <g transform="translate(240.288682 317.837188) scale(0.18 -0.18)">
       <defs>
        <path id="DejaVuSans-36" d="M 2113 2584 
Q 1688 2584 1439 2293 
Q 1191 2003 1191 1497 
Q 1191 994 1439 701 
Q 1688 409 2113 409 
Q 2538 409 2786 701 
Q 3034 994 3034 1497 
Q 3034 2003 2786 2293 
Q 2538 2584 2113 2584 
z
M 3366 4563 
L 3366 3988 
Q 3128 4100 2886 4159 
Q 2644 4219 2406 4219 
Q 1781 4219 1451 3797 
Q 1122 3375 1075 2522 
Q 1259 2794 1537 2939 
Q 1816 3084 2150 3084 
Q 2853 3084 3261 2657 
Q 3669 2231 3669 1497 
Q 3669 778 3244 343 
Q 2819 -91 2113 -91 
Q 1303 -91 875 529 
Q 447 1150 447 2328 
Q 447 3434 972 4092 
Q 1497 4750 2381 4750 
Q 2619 4750 2861 4703 
Q 3103 4656 3366 4563 
z
" transform="scale(0.015625)"/>
       </defs>
       <use xlink:href="#DejaVuSans-36"/>
      </g>
     </g>
    </g>
    <g id="xtick_8">
     <g id="line2d_8">
      <g>
       <use xlink:href="#m931180abd8" x="276.515741" y="297.16" style="stroke: #000000; stroke-width: 0.8"/>
      </g>
     </g>
     <g id="text_8">
      <!-- 7 -->
      <g transform="translate(270.789491 317.837188) scale(0.18 -0.18)">
       <defs>
        <path id="DejaVuSans-37" d="M 525 4666 
L 3525 4666 
L 3525 4397 
L 1831 0 
L 1172 0 
L 2766 4134 
L 525 4134 
L 525 4666 
z
" transform="scale(0.015625)"/>
       </defs>
       <use xlink:href="#DejaVuSans-37"/>
      </g>
     </g>
    </g>
    <g id="xtick_9">
     <g id="line2d_9">
      <g>
       <use xlink:href="#m931180abd8" x="307.01655" y="297.16" style="stroke: #000000; stroke-width: 0.8"/>
      </g>
     </g>
     <g id="text_9">
      <!-- 8 -->
      <g transform="translate(301.2903 317.837188) scale(0.18 -0.18)">
       <defs>
        <path id="DejaVuSans-38" d="M 2034 2216 
Q 1584 2216 1326 1975 
Q 1069 1734 1069 1313 
Q 1069 891 1326 650 
Q 1584 409 2034 409 
Q 2484 409 2743 651 
Q 3003 894 3003 1313 
Q 3003 1734 2745 1975 
Q 2488 2216 2034 2216 
z
M 1403 2484 
Q 997 2584 770 2862 
Q 544 3141 544 3541 
Q 544 4100 942 4425 
Q 1341 4750 2034 4750 
Q 2731 4750 3128 4425 
Q 3525 4100 3525 3541 
Q 3525 3141 3298 2862 
Q 3072 2584 2669 2484 
Q 3125 2378 3379 2068 
Q 3634 1759 3634 1313 
Q 3634 634 3220 271 
Q 2806 -91 2034 -91 
Q 1263 -91 848 271 
Q 434 634 434 1313 
Q 434 1759 690 2068 
Q 947 2378 1403 2484 
z
M 1172 3481 
Q 1172 3119 1398 2916 
Q 1625 2713 2034 2713 
Q 2441 2713 2670 2916 
Q 2900 3119 2900 3481 
Q 2900 3844 2670 4047 
Q 2441 4250 2034 4250 
Q 1625 4250 1398 4047 
Q 1172 3844 1172 3481 
z
" transform="scale(0.015625)"/>
       </defs>
       <use xlink:href="#DejaVuSans-38"/>
      </g>
     </g>
    </g>
    <g id="xtick_10">
     <g id="line2d_10">
      <g>
       <use xlink:href="#m931180abd8" x="337.517358" y="297.16" style="stroke: #000000; stroke-width: 0.8"/>
      </g>
     </g>
     <g id="text_10">
      <!-- 9 -->
      <g transform="translate(331.791108 317.837188) scale(0.18 -0.18)">
       <defs>
        <path id="DejaVuSans-39" d="M 703 97 
L 703 672 
Q 941 559 1184 500 
Q 1428 441 1663 441 
Q 2288 441 2617 861 
Q 2947 1281 2994 2138 
Q 2813 1869 2534 1725 
Q 2256 1581 1919 1581 
Q 1219 1581 811 2004 
Q 403 2428 403 3163 
Q 403 3881 828 4315 
Q 1253 4750 1959 4750 
Q 2769 4750 3195 4129 
Q 3622 3509 3622 2328 
Q 3622 1225 3098 567 
Q 2575 -91 1691 -91 
Q 1453 -91 1209 -44 
Q 966 3 703 97 
z
M 1959 2075 
Q 2384 2075 2632 2365 
Q 2881 2656 2881 3163 
Q 2881 3666 2632 3958 
Q 2384 4250 1959 4250 
Q 1534 4250 1286 3958 
Q 1038 3666 1038 3163 
Q 1038 2656 1286 2365 
Q 1534 2075 1959 2075 
z
" transform="scale(0.015625)"/>
       </defs>
       <use xlink:href="#DejaVuSans-39"/>
      </g>
     </g>
    </g>
    <g id="text_11">
     <!-- Time (d) -->
     <g transform="translate(150.10747 343.816875) scale(0.24 -0.24)">
      <defs>
       <path id="DejaVuSans-54" d="M -19 4666 
L 3928 4666 
L 3928 4134 
L 2272 4134 
L 2272 0 
L 1638 0 
L 1638 4134 
L -19 4134 
L -19 4666 
z
" transform="scale(0.015625)"/>
       <path id="DejaVuSans-69" d="M 603 3500 
L 1178 3500 
L 1178 0 
L 603 0 
L 603 3500 
z
M 603 4863 
L 1178 4863 
L 1178 4134 
L 603 4134 
L 603 4863 
z
" transform="scale(0.015625)"/>
       <path id="DejaVuSans-6d" d="M 3328 2828 
Q 3544 3216 3844 3400 
Q 4144 3584 4550 3584 
Q 5097 3584 5394 3201 
Q 5691 2819 5691 2113 
L 5691 0 
L 5113 0 
L 5113 2094 
Q 5113 2597 4934 2840 
Q 4756 3084 4391 3084 
Q 3944 3084 3684 2787 
Q 3425 2491 3425 1978 
L 3425 0 
L 2847 0 
L 2847 2094 
Q 2847 2600 2669 2842 
Q 2491 3084 2119 3084 
Q 1678 3084 1418 2786 
Q 1159 2488 1159 1978 
L 1159 0 
L 581 0 
L 581 3500 
L 1159 3500 
L 1159 2956 
Q 1356 3278 1631 3431 
Q 1906 3584 2284 3584 
Q 2666 3584 2933 3390 
Q 3200 3197 3328 2828 
z
" transform="scale(0.015625)"/>
       <path id="DejaVuSans-65" d="M 3597 1894 
L 3597 1613 
L 953 1613 
Q 991 1019 1311 708 
Q 1631 397 2203 397 
Q 2534 397 2845 478 
Q 3156 559 3463 722 
L 3463 178 
Q 3153 47 2828 -22 
Q 2503 -91 2169 -91 
Q 1331 -91 842 396 
Q 353 884 353 1716 
Q 353 2575 817 3079 
Q 1281 3584 2069 3584 
Q 2775 3584 3186 3129 
Q 3597 2675 3597 1894 
z
M 3022 2063 
Q 3016 2534 2758 2815 
Q 2500 3097 2075 3097 
Q 1594 3097 1305 2825 
Q 1016 2553 972 2059 
L 3022 2063 
z
" transform="scale(0.015625)"/>
       <path id="DejaVuSans-20" transform="scale(0.015625)"/>
       <path id="DejaVuSans-28" d="M 1984 4856 
Q 1566 4138 1362 3434 
Q 1159 2731 1159 2009 
Q 1159 1288 1364 580 
Q 1569 -128 1984 -844 
L 1484 -844 
Q 1016 -109 783 600 
Q 550 1309 550 2009 
Q 550 2706 781 3412 
Q 1013 4119 1484 4856 
L 1984 4856 
z
" transform="scale(0.015625)"/>
       <path id="DejaVuSans-64" d="M 2906 2969 
L 2906 4863 
L 3481 4863 
L 3481 0 
L 2906 0 
L 2906 525 
Q 2725 213 2448 61 
Q 2172 -91 1784 -91 
Q 1150 -91 751 415 
Q 353 922 353 1747 
Q 353 2572 751 3078 
Q 1150 3584 1784 3584 
Q 2172 3584 2448 3432 
Q 2725 3281 2906 2969 
z
M 947 1747 
Q 947 1113 1208 752 
Q 1469 391 1925 391 
Q 2381 391 2643 752 
Q 2906 1113 2906 1747 
Q 2906 2381 2643 2742 
Q 2381 3103 1925 3103 
Q 1469 3103 1208 2742 
Q 947 2381 947 1747 
z
" transform="scale(0.015625)"/>
       <path id="DejaVuSans-29" d="M 513 4856 
L 1013 4856 
Q 1481 4119 1714 3412 
Q 1947 2706 1947 2009 
Q 1947 1309 1714 600 
Q 1481 -109 1013 -844 
L 513 -844 
Q 928 -128 1133 580 
Q 1338 1288 1338 2009 
Q 1338 2731 1133 3434 
Q 928 4138 513 4856 
z
" transform="scale(0.015625)"/>
      </defs>
      <use xlink:href="#DejaVuSans-54"/>
      <use xlink:href="#DejaVuSans-69" x="57.958984"/>
      <use xlink:href="#DejaVuSans-6d" x="85.742188"/>
      <use xlink:href="#DejaVuSans-65" x="183.154297"/>
      <use xlink:href="#DejaVuSans-20" x="244.677734"/>
      <use xlink:href="#DejaVuSans-28" x="276.464844"/>
      <use xlink:href="#DejaVuSans-64" x="315.478516"/>
      <use xlink:href="#DejaVuSans-29" x="378.955078"/>
     </g>
    </g>
   </g>
   <g id="matplotlib.axis_2">
    <g id="ytick_1">
     <g id="line2d_11">
      <defs>
       <path id="mf3e6421fbb" d="M 0 0 
L -3.5 0 
" style="stroke: #000000; stroke-width: 0.8"/>
      </defs>
      <g>
       <use xlink:href="#mf3e6421fbb" x="59.96" y="297.16" style="stroke: #000000; stroke-width: 0.8"/>
      </g>
     </g>
     <g id="text_12">
      <!-- 0 -->
      <g transform="translate(41.5075 303.998594) scale(0.18 -0.18)">
       <use xlink:href="#DejaVuSans-30"/>
      </g>
     </g>
    </g>
    <g id="ytick_2">
     <g id="line2d_12">
      <g>
       <use xlink:href="#mf3e6421fbb" x="59.96" y="231.87" style="stroke: #000000; stroke-width: 0.8"/>
      </g>
     </g>
     <g id="text_13">
      <!-- 2 -->
      <g transform="translate(41.5075 238.708594) scale(0.18 -0.18)">
       <use xlink:href="#DejaVuSans-32"/>
      </g>
     </g>
    </g>
    <g id="ytick_3">
     <g id="line2d_13">
      <g>
       <use xlink:href="#mf3e6421fbb" x="59.96" y="166.58" style="stroke: #000000; stroke-width: 0.8"/>
      </g>
     </g>
     <g id="text_14">
      <!-- 4 -->
      <g transform="translate(41.5075 173.418594) scale(0.18 -0.18)">
       <use xlink:href="#DejaVuSans-34"/>
      </g>
     </g>
    </g>
    <g id="ytick_4">
     <g id="line2d_14">
      <g>
       <use xlink:href="#mf3e6421fbb" x="59.96" y="101.29" style="stroke: #000000; stroke-width: 0.8"/>
      </g>
     </g>
     <g id="text_15">
      <!-- 6 -->
      <g transform="translate(41.5075 108.128594) scale(0.18 -0.18)">
       <use xlink:href="#DejaVuSans-36"/>
      </g>
     </g>
    </g>
    <g id="ytick_5">
     <g id="line2d_15">
      <g>
       <use xlink:href="#mf3e6421fbb" x="59.96" y="36" style="stroke: #000000; stroke-width: 0.8"/>
      </g>
     </g>
     <g id="text_16">
      <!-- 8 -->
      <g transform="translate(41.5075 42.838594) scale(0.18 -0.18)">
       <use xlink:href="#DejaVuSans-38"/>
      </g>
     </g>
    </g>
    <g id="text_17">
     <!-- Virus (log$_{10}$ copies/mL) -->
     <g transform="translate(32.4675 304.34) rotate(-90) scale(0.24 -0.24)">
      <defs>
       <path id="DejaVuSans-56" d="M 1831 0 
L 50 4666 
L 709 4666 
L 2188 738 
L 3669 4666 
L 4325 4666 
L 2547 0 
L 1831 0 
z
" transform="scale(0.015625)"/>
       <path id="DejaVuSans-72" d="M 2631 2963 
Q 2534 3019 2420 3045 
Q 2306 3072 2169 3072 
Q 1681 3072 1420 2755 
Q 1159 2438 1159 1844 
L 1159 0 
L 581 0 
L 581 3500 
L 1159 3500 
L 1159 2956 
Q 1341 3275 1631 3429 
Q 1922 3584 2338 3584 
Q 2397 3584 2469 3576 
Q 2541 3569 2628 3553 
L 2631 2963 
z
" transform="scale(0.015625)"/>
       <path id="DejaVuSans-75" d="M 544 1381 
L 544 3500 
L 1119 3500 
L 1119 1403 
Q 1119 906 1312 657 
Q 1506 409 1894 409 
Q 2359 409 2629 706 
Q 2900 1003 2900 1516 
L 2900 3500 
L 3475 3500 
L 3475 0 
L 2900 0 
L 2900 538 
Q 2691 219 2414 64 
Q 2138 -91 1772 -91 
Q 1169 -91 856 284 
Q 544 659 544 1381 
z
M 1991 3584 
L 1991 3584 
z
" transform="scale(0.015625)"/>
       <path id="DejaVuSans-73" d="M 2834 3397 
L 2834 2853 
Q 2591 2978 2328 3040 
Q 2066 3103 1784 3103 
Q 1356 3103 1142 2972 
Q 928 2841 928 2578 
Q 928 2378 1081 2264 
Q 1234 2150 1697 2047 
L 1894 2003 
Q 2506 1872 2764 1633 
Q 3022 1394 3022 966 
Q 3022 478 2636 193 
Q 2250 -91 1575 -91 
Q 1294 -91 989 -36 
Q 684 19 347 128 
L 347 722 
Q 666 556 975 473 
Q 1284 391 1588 391 
Q 1994 391 2212 530 
Q 2431 669 2431 922 
Q 2431 1156 2273 1281 
Q 2116 1406 1581 1522 
L 1381 1569 
Q 847 1681 609 1914 
Q 372 2147 372 2553 
Q 372 3047 722 3315 
Q 1072 3584 1716 3584 
Q 2034 3584 2315 3537 
Q 2597 3491 2834 3397 
z
" transform="scale(0.015625)"/>
       <path id="DejaVuSans-6c" d="M 603 4863 
L 1178 4863 
L 1178 0 
L 603 0 
L 603 4863 
z
" transform="scale(0.015625)"/>
       <path id="DejaVuSans-6f" d="M 1959 3097 
Q 1497 3097 1228 2736 
Q 959 2375 959 1747 
Q 959 1119 1226 758 
Q 1494 397 1959 397 
Q 2419 397 2687 759 
Q 2956 1122 2956 1747 
Q 2956 2369 2687 2733 
Q 2419 3097 1959 3097 
z
M 1959 3584 
Q 2709 3584 3137 3096 
Q 3566 2609 3566 1747 
Q 3566 888 3137 398 
Q 2709 -91 1959 -91 
Q 1206 -91 779 398 
Q 353 888 353 1747 
Q 353 2609 779 3096 
Q 1206 3584 1959 3584 
z
" transform="scale(0.015625)"/>
       <path id="DejaVuSans-67" d="M 2906 1791 
Q 2906 2416 2648 2759 
Q 2391 3103 1925 3103 
Q 1463 3103 1205 2759 
Q 947 2416 947 1791 
Q 947 1169 1205 825 
Q 1463 481 1925 481 
Q 2391 481 2648 825 
Q 2906 1169 2906 1791 
z
M 3481 434 
Q 3481 -459 3084 -895 
Q 2688 -1331 1869 -1331 
Q 1566 -1331 1297 -1286 
Q 1028 -1241 775 -1147 
L 775 -588 
Q 1028 -725 1275 -790 
Q 1522 -856 1778 -856 
Q 2344 -856 2625 -561 
Q 2906 -266 2906 331 
L 2906 616 
Q 2728 306 2450 153 
Q 2172 0 1784 0 
Q 1141 0 747 490 
Q 353 981 353 1791 
Q 353 2603 747 3093 
Q 1141 3584 1784 3584 
Q 2172 3584 2450 3431 
Q 2728 3278 2906 2969 
L 2906 3500 
L 3481 3500 
L 3481 434 
z
" transform="scale(0.015625)"/>
       <path id="DejaVuSans-63" d="M 3122 3366 
L 3122 2828 
Q 2878 2963 2633 3030 
Q 2388 3097 2138 3097 
Q 1578 3097 1268 2742 
Q 959 2388 959 1747 
Q 959 1106 1268 751 
Q 1578 397 2138 397 
Q 2388 397 2633 464 
Q 2878 531 3122 666 
L 3122 134 
Q 2881 22 2623 -34 
Q 2366 -91 2075 -91 
Q 1284 -91 818 406 
Q 353 903 353 1747 
Q 353 2603 823 3093 
Q 1294 3584 2113 3584 
Q 2378 3584 2631 3529 
Q 2884 3475 3122 3366 
z
" transform="scale(0.015625)"/>
       <path id="DejaVuSans-70" d="M 1159 525 
L 1159 -1331 
L 581 -1331 
L 581 3500 
L 1159 3500 
L 1159 2969 
Q 1341 3281 1617 3432 
Q 1894 3584 2278 3584 
Q 2916 3584 3314 3078 
Q 3713 2572 3713 1747 
Q 3713 922 3314 415 
Q 2916 -91 2278 -91 
Q 1894 -91 1617 61 
Q 1341 213 1159 525 
z
M 3116 1747 
Q 3116 2381 2855 2742 
Q 2594 3103 2138 3103 
Q 1681 3103 1420 2742 
Q 1159 2381 1159 1747 
Q 1159 1113 1420 752 
Q 1681 391 2138 391 
Q 2594 391 2855 752 
Q 3116 1113 3116 1747 
z
" transform="scale(0.015625)"/>
       <path id="DejaVuSans-2f" d="M 1625 4666 
L 2156 4666 
L 531 -594 
L 0 -594 
L 1625 4666 
z
" transform="scale(0.015625)"/>
       <path id="DejaVuSans-4c" d="M 628 4666 
L 1259 4666 
L 1259 531 
L 3531 531 
L 3531 0 
L 628 0 
L 628 4666 
z
" transform="scale(0.015625)"/>
      </defs>
      <use xlink:href="#DejaVuSans-56" transform="translate(0 0.015625)"/>
      <use xlink:href="#DejaVuSans-69" transform="translate(68.408203 0.015625)"/>
      <use xlink:href="#DejaVuSans-72" transform="translate(96.191406 0.015625)"/>
      <use xlink:href="#DejaVuSans-75" transform="translate(137.304688 0.015625)"/>
      <use xlink:href="#DejaVuSans-73" transform="translate(200.683594 0.015625)"/>
      <use xlink:href="#DejaVuSans-20" transform="translate(252.783203 0.015625)"/>
      <use xlink:href="#DejaVuSans-28" transform="translate(284.570312 0.015625)"/>
      <use xlink:href="#DejaVuSans-6c" transform="translate(323.583984 0.015625)"/>
      <use xlink:href="#DejaVuSans-6f" transform="translate(351.367188 0.015625)"/>
      <use xlink:href="#DejaVuSans-67" transform="translate(412.548828 0.015625)"/>
      <use xlink:href="#DejaVuSans-31" transform="translate(476.982422 -16.390625) scale(0.7)"/>
      <use xlink:href="#DejaVuSans-30" transform="translate(521.518555 -16.390625) scale(0.7)"/>
      <use xlink:href="#DejaVuSans-20" transform="translate(568.789062 0.015625)"/>
      <use xlink:href="#DejaVuSans-63" transform="translate(600.576172 0.015625)"/>
      <use xlink:href="#DejaVuSans-6f" transform="translate(655.556641 0.015625)"/>
      <use xlink:href="#DejaVuSans-70" transform="translate(716.738281 0.015625)"/>
      <use xlink:href="#DejaVuSans-69" transform="translate(780.214844 0.015625)"/>
      <use xlink:href="#DejaVuSans-65" transform="translate(807.998047 0.015625)"/>
      <use xlink:href="#DejaVuSans-73" transform="translate(869.521484 0.015625)"/>
      <use xlink:href="#DejaVuSans-2f" transform="translate(921.621094 0.015625)"/>
      <use xlink:href="#DejaVuSans-6d" transform="translate(955.3125 0.015625)"/>
      <use xlink:href="#DejaVuSans-4c" transform="translate(1052.724609 0.015625)"/>
      <use xlink:href="#DejaVuSans-29" transform="translate(1108.4375 0.015625)"/>
     </g>
    </g>
   </g>
   <g id="patch_3">
    <path d="M 59.96 297.16 
L 59.96 36 
" style="fill: none; stroke: #000000; stroke-width: 0.8; stroke-linejoin: miter; stroke-linecap: square"/>
   </g>
   <g id="patch_4">
    <path d="M 340.567439 297.16 
L 340.567439 36 
" style="fill: none; stroke: #000000; stroke-width: 0.8; stroke-linejoin: miter; stroke-linecap: square"/>
   </g>
   <g id="patch_5">
    <path d="M 59.96 297.16 
L 340.567439 297.16 
" style="fill: none; stroke: #000000; stroke-width: 0.8; stroke-linejoin: miter; stroke-linecap: square"/>
   </g>
   <g id="patch_6">
    <path d="M 59.96 36 
L 340.567439 36 
" style="fill: none; stroke: #000000; stroke-width: 0.8; stroke-linejoin: miter; stroke-linecap: square"/>
   </g>
   <g id="PolyCollection_1">
    <defs>
     <path id="ma9db6eac92" d="M 63.010081 -62.84 
L 63.010081 -62.84 
L 63.010426 -62.84 
L 63.013874 -62.84 
L 63.04836 -62.84 
L 63.24065 -62.84 
L 63.372122 -62.84 
L 63.88885 -62.84 
L 64.172405 -62.84 
L 65.147203 -62.84 
L 65.600107 -62.84 
L 66.911394 -62.84 
L 67.48483 -62.84 
L 68.792876 -62.84 
L 69.479854 -62.84 
L 70.850916 -65.79395 
L 71.629291 -69.853257 
L 73.017923 -77.130347 
L 73.872382 -81.581524 
L 75.278279 -88.947608 
L 76.19249 -93.710441 
L 77.605432 -101.114643 
L 78.566104 -106.120286 
L 79.982743 -113.544423 
L 80.978453 -118.73363 
L 82.540163 -126.934487 
L 83.522151 -132.051492 
L 84.88452 -139.177168 
L 85.908359 -144.509415 
L 87.397945 -152.301389 
L 88.417333 -157.599709 
L 89.803299 -164.808536 
L 90.849808 -170.216791 
L 92.348626 -177.944264 
L 93.389953 -183.246888 
L 94.811328 -190.38762 
L 95.884811 -195.658959 
L 97.433438 -202.983782 
L 98.513596 -207.835334 
L 99.981002 -213.887136 
L 101.090115 -218.023432 
L 102.677296 -223.021972 
L 103.805421 -226.010393 
L 105.264129 -229.029816 
L 106.37639 -230.89376 
L 107.706085 -232.593759 
L 108.776267 -233.71526 
L 109.884649 -234.623147 
L 110.993031 -235.37715 
L 111.886071 -235.879646 
L 112.714422 -236.280158 
L 113.412184 -236.571219 
L 114.030788 -236.803738 
L 114.567705 -236.98919 
L 115.049102 -237.142273 
L 115.478742 -237.265634 
L 115.908381 -237.382262 
L 116.261637 -237.472609 
L 116.591241 -237.552021 
L 116.920844 -237.627014 
L 117.19365 -237.686459 
L 117.499931 -237.75014 
L 118.683426 -237.965273 
L 119.122323 -238.033986 
L 120.948055 -238.277589 
L 121.692916 -238.361175 
L 123.908759 -238.541601 
L 124.864986 -238.60543 
L 127.330055 -238.713296 
L 128.495485 -238.750153 
L 130.800843 -238.790891 
L 132.680515 -238.808502 
L 135.379681 -238.807978 
L 137.219545 -238.794476 
L 140.269626 -238.758927 
L 142.119259 -238.728475 
L 145.169339 -238.672083 
L 147.015024 -238.631855 
L 149.765403 -238.567685 
L 152.515782 -238.495084 
L 155.26616 -238.41555 
L 158.316241 -238.316932 
L 161.366322 -238.205697 
L 164.416403 -238.07929 
L 167.466484 -237.934744 
L 170.516565 -237.768792 
L 173.566646 -237.577984 
L 176.616726 -237.358794 
L 179.666807 -237.107707 
L 182.716888 -236.821298 
L 185.766969 -236.496293 
L 188.81705 -236.129606 
L 191.867131 -235.71836 
L 194.917212 -235.259889 
L 197.967293 -234.751726 
L 201.017373 -234.191565 
L 204.067454 -233.577224 
L 207.117535 -232.906583 
L 210.167616 -232.177513 
L 213.217697 -231.387793 
L 216.267778 -230.535011 
L 219.317859 -229.594152 
L 222.367939 -228.560742 
L 225.41802 -227.450454 
L 228.468101 -226.258292 
L 231.518182 -224.978055 
L 234.568263 -223.601931 
L 237.618344 -222.119948 
L 240.668425 -220.519185 
L 243.718505 -218.782638 
L 246.768586 -216.887486 
L 249.818667 -214.80237 
L 252.868748 -212.371555 
L 255.918829 -209.50276 
L 258.96891 -206.149001 
L 262.018991 -202.077808 
L 265.069071 -196.818695 
L 268.119152 -189.158914 
L 271.169233 -173.535286 
L 274.219314 -62.84 
L 274.701103 -62.84 
L 274.956635 -62.84 
L 275.176326 -62.84 
L 275.432608 -62.84 
L 275.62494 -62.84 
L 275.663406 -62.84 
L 275.711712 -62.84 
L 275.792497 -62.84 
L 275.87954 -62.84 
L 276.013329 -62.84 
L 276.159929 -62.84 
L 276.397727 -62.84 
L 276.635526 -62.84 
L 276.94058 -62.84 
L 277.316487 -62.84 
L 278.080171 -62.84 
L 279.953947 -62.84 
L 281.128057 -62.84 
L 283.949269 -62.84 
L 285.343385 -62.84 
L 288.393466 -62.84 
L 290.128594 -62.84 
L 293.178675 -62.84 
L 295.558356 -62.84 
L 298.608437 -62.84 
L 301.658518 -62.84 
L 304.708599 -62.84 
L 307.75868 -62.84 
L 310.808761 -62.84 
L 313.858842 -62.84 
L 316.908922 -62.84 
L 319.959003 -62.84 
L 323.009084 -62.84 
L 326.059165 -62.84 
L 329.109246 -62.84 
L 332.159327 -62.84 
L 335.209408 -62.84 
L 337.517358 -62.84 
L 337.517358 -62.84 
L 337.517358 -62.84 
L 335.209408 -62.84 
L 332.159327 -62.84 
L 329.109246 -62.84 
L 326.059165 -62.84 
L 323.009084 -62.84 
L 319.959003 -62.84 
L 316.908922 -62.84 
L 313.858842 -62.84 
L 310.808761 -62.84 
L 307.75868 -62.84 
L 304.708599 -62.84 
L 301.658518 -62.84 
L 298.608437 -62.84 
L 295.558356 -62.84 
L 293.178675 -62.84 
L 290.128594 -62.84 
L 288.393466 -62.84 
L 285.343385 -62.84 
L 283.949269 -62.84 
L 281.128057 -73.555502 
L 279.953947 -153.741452 
L 278.080171 -172.727801 
L 277.316487 -177.998185 
L 276.94058 -180.54428 
L 276.635526 -181.511003 
L 276.397727 -182.26459 
L 276.159929 -183.018178 
L 276.013329 -183.482754 
L 275.87954 -183.906735 
L 275.792497 -184.182576 
L 275.711712 -184.438586 
L 275.663406 -184.591668 
L 275.62494 -184.713569 
L 275.432608 -185.32307 
L 275.176326 -186.135234 
L 274.956635 -186.831437 
L 274.701103 -187.641222 
L 274.219314 -189.168022 
L 271.169233 -195.676026 
L 268.119152 -200.432185 
L 265.069071 -204.243237 
L 262.018991 -207.567841 
L 258.96891 -210.831895 
L 255.918829 -213.582054 
L 252.868748 -215.967397 
L 249.818667 -218.078844 
L 246.768586 -219.97581 
L 243.718505 -221.699115 
L 240.668425 -223.277873 
L 237.618344 -224.733453 
L 234.568263 -226.08189 
L 231.518182 -227.335432 
L 228.468101 -228.503559 
L 225.41802 -229.593696 
L 222.367939 -230.611712 
L 219.317859 -231.562293 
L 216.267778 -232.449221 
L 213.217697 -233.275586 
L 210.167616 -234.043968 
L 207.117535 -234.756571 
L 204.067454 -235.415347 
L 201.017373 -236.022097 
L 197.967293 -236.57856 
L 194.917212 -237.086485 
L 191.867131 -237.547704 
L 188.81705 -237.964178 
L 185.766969 -238.341518 
L 182.716888 -238.675797 
L 179.666807 -238.968908 
L 176.616726 -239.228508 
L 173.566646 -239.457506 
L 170.516565 -239.657654 
L 167.466484 -239.832159 
L 164.416403 -239.98424 
L 161.366322 -240.117028 
L 158.316241 -240.233465 
L 155.26616 -240.336175 
L 152.515782 -240.418876 
L 149.765403 -240.493342 
L 147.015024 -240.560375 
L 145.169339 -240.60154 
L 142.119259 -240.66123 
L 140.269626 -240.692778 
L 137.219545 -240.732908 
L 135.379681 -240.750405 
L 132.680515 -240.759803 
L 130.800843 -240.753278 
L 128.495485 -240.723861 
L 127.330055 -240.699158 
L 124.864986 -240.61273 
L 123.908759 -240.567041 
L 121.692916 -240.422624 
L 120.948055 -240.36055 
L 119.122323 -240.188307 
L 118.683426 -240.137532 
L 117.499931 -239.977028 
L 117.19365 -239.932498 
L 116.920844 -239.889648 
L 116.591241 -239.831522 
L 116.261637 -239.772776 
L 115.908381 -239.709814 
L 115.478742 -239.626229 
L 115.049102 -239.53451 
L 114.567705 -239.424597 
L 114.030788 -239.29117 
L 113.412184 -239.121582 
L 112.714422 -238.909234 
L 111.886071 -238.623499 
L 110.993031 -238.264172 
L 109.884649 -237.733161 
L 108.776267 -237.095197 
L 107.706085 -236.331956 
L 106.37639 -235.172942 
L 105.264129 -233.887159 
L 103.805421 -231.794423 
L 102.677296 -229.584844 
L 101.090115 -225.75815 
L 99.981002 -222.269377 
L 98.513596 -217.007457 
L 97.433438 -212.432548 
L 95.884811 -205.367914 
L 94.811328 -200.061198 
L 93.389953 -192.821175 
L 92.348626 -187.322615 
L 90.849808 -179.319043 
L 89.803299 -173.636797 
L 88.417333 -166.102863 
L 87.397945 -160.51845 
L 85.908359 -152.363007 
L 84.88452 -146.721577 
L 83.522151 -139.246034 
L 82.540163 -133.83794 
L 80.978453 -125.251918 
L 79.982743 -119.746075 
L 78.566104 -111.960524 
L 77.605432 -106.660862 
L 76.19249 -98.897325 
L 75.278279 -93.85402 
L 73.872382 -86.129803 
L 73.017923 -81.416325 
L 71.629291 -73.784692 
L 70.850916 -69.48864 
L 69.479854 -64.195268 
L 68.792876 -62.84 
L 67.48483 -62.84 
L 66.911394 -62.84 
L 65.600107 -62.84 
L 65.147203 -62.84 
L 64.172405 -62.84 
L 63.88885 -62.84 
L 63.372122 -62.84 
L 63.24065 -62.84 
L 63.04836 -62.84 
L 63.013874 -62.84 
L 63.010426 -62.84 
L 63.010081 -62.84 
z
" style="stroke: #ff0000; stroke-opacity: 0.2"/>
    </defs>
    <g clip-path="url(#pf27ddd44a6)">
     <use xlink:href="#ma9db6eac92" x="0" y="360" style="fill: #ff0000; fill-opacity: 0.2; stroke: #ff0000; stroke-opacity: 0.2"/>
    </g>
   </g>
   <g id="PathCollection_1">
    <defs>
     <path id="mbb257b68fa" d="M 0 4.330127 
C 1.148363 4.330127 2.249847 3.873878 3.061862 3.061862 
C 3.873878 2.249847 4.330127 1.148363 4.330127 0 
C 4.330127 -1.148363 3.873878 -2.249847 3.061862 -3.061862 
C 2.249847 -3.873878 1.148363 -4.330127 0 -4.330127 
C -1.148363 -4.330127 -2.249847 -3.873878 -3.061862 -3.061862 
C -3.873878 -2.249847 -4.330127 -1.148363 -4.330127 0 
C -4.330127 1.148363 -3.873878 2.249847 -3.061862 3.061862 
C -2.249847 3.873878 -1.148363 4.330127 0 4.330127 
z
" style="stroke: #ff0000; stroke-opacity: 0.8"/>
    </defs>
    <g clip-path="url(#pf27ddd44a6)">
     <use xlink:href="#mbb257b68fa" x="63.010081" y="297.16" style="fill: #ff0000; fill-opacity: 0.8; stroke: #ff0000; stroke-opacity: 0.8"/>
     <use xlink:href="#mbb257b68fa" x="93.510889" y="172.32779" style="fill: #ff0000; fill-opacity: 0.8; stroke: #ff0000; stroke-opacity: 0.8"/>
     <use xlink:href="#mbb257b68fa" x="124.011698" y="126.312021" style="fill: #ff0000; fill-opacity: 0.8; stroke: #ff0000; stroke-opacity: 0.8"/>
     <use xlink:href="#mbb257b68fa" x="154.512507" y="119.493985" style="fill: #ff0000; fill-opacity: 0.8; stroke: #ff0000; stroke-opacity: 0.8"/>
     <use xlink:href="#mbb257b68fa" x="185.013315" y="143.203345" style="fill: #ff0000; fill-opacity: 0.8; stroke: #ff0000; stroke-opacity: 0.8"/>
     <use xlink:href="#mbb257b68fa" x="215.514124" y="108.591947" style="fill: #ff0000; fill-opacity: 0.8; stroke: #ff0000; stroke-opacity: 0.8"/>
     <use xlink:href="#mbb257b68fa" x="246.014932" y="126.6405" style="fill: #ff0000; fill-opacity: 0.8; stroke: #ff0000; stroke-opacity: 0.8"/>
     <use xlink:href="#mbb257b68fa" x="276.515741" y="169.681736" style="fill: #ff0000; fill-opacity: 0.8; stroke: #ff0000; stroke-opacity: 0.8"/>
    </g>
   </g>
   <g id="line2d_16">
    <path d="M 63.010081 297.16 
L 69.479854 297.16 
L 70.850916 291.97594 
L 94.811328 163.95747 
L 97.433438 151.350613 
L 98.513596 146.629259 
L 99.981002 140.847393 
L 101.090115 137.051586 
L 102.677296 132.577975 
L 103.805421 130.054651 
L 105.264129 127.511751 
L 106.37639 126.016623 
L 107.706085 124.61778 
L 108.776267 123.728386 
L 109.884649 122.977434 
L 111.886071 121.947252 
L 114.030788 121.172316 
L 116.591241 120.543182 
L 119.122323 120.132397 
L 121.692916 119.859032 
L 127.330055 119.566045 
L 132.680515 119.500185 
L 142.119259 119.595888 
L 158.316241 120.022579 
L 170.516565 120.595127 
L 179.666807 121.281207 
L 185.766969 121.907549 
L 191.867131 122.694629 
L 197.967293 123.660666 
L 204.067454 124.821207 
L 210.167616 126.190651 
L 216.267778 127.784553 
L 222.367939 129.622754 
L 228.468101 131.733761 
L 234.568263 134.161386 
L 240.668425 136.975992 
L 243.718505 138.562553 
L 246.768586 140.295986 
L 249.818667 142.206152 
L 252.868748 144.334974 
L 255.918829 146.743551 
L 258.96891 149.525475 
L 262.018991 152.834186 
L 265.069071 156.947036 
L 268.119152 162.447272 
L 271.169233 170.942994 
L 274.219314 191.268437 
L 274.701103 199.952032 
L 274.956635 207.417366 
L 275.176326 217.242547 
L 275.792497 265.741116 
L 276.159929 297.16 
L 337.517358 297.16 
L 337.517358 297.16 
" clip-path="url(#pf27ddd44a6)" style="fill: none; stroke: #ff0000; stroke-width: 1.5; stroke-linecap: square"/>
   </g>
  </g>
  <g id="axes_2">
   <g id="patch_7">
    <path d="M 422.83752 297.16 
L 703.444959 297.16 
L 703.444959 36 
L 422.83752 36 
z
" style="fill: #ffffff"/>
   </g>
   <g id="matplotlib.axis_3">
    <g id="xtick_11">
     <g id="line2d_17">
      <g>
       <use xlink:href="#m931180abd8" x="425.887601" y="297.16" style="stroke: #000000; stroke-width: 0.8"/>
      </g>
     </g>
     <g id="text_18">
      <!-- 0 -->
      <g transform="translate(420.161351 317.837188) scale(0.18 -0.18)">
       <use xlink:href="#DejaVuSans-30"/>
      </g>
     </g>
    </g>
    <g id="xtick_12">
     <g id="line2d_18">
      <g>
       <use xlink:href="#m931180abd8" x="456.38841" y="297.16" style="stroke: #000000; stroke-width: 0.8"/>
      </g>
     </g>
     <g id="text_19">
      <!-- 1 -->
      <g transform="translate(450.66216 317.837188) scale(0.18 -0.18)">
       <use xlink:href="#DejaVuSans-31"/>
      </g>
     </g>
    </g>
    <g id="xtick_13">
     <g id="line2d_19">
      <g>
       <use xlink:href="#m931180abd8" x="486.889218" y="297.16" style="stroke: #000000; stroke-width: 0.8"/>
      </g>
     </g>
     <g id="text_20">
      <!-- 2 -->
      <g transform="translate(481.162968 317.837188) scale(0.18 -0.18)">
       <use xlink:href="#DejaVuSans-32"/>
      </g>
     </g>
    </g>
    <g id="xtick_14">
     <g id="line2d_20">
      <g>
       <use xlink:href="#m931180abd8" x="517.390027" y="297.16" style="stroke: #000000; stroke-width: 0.8"/>
      </g>
     </g>
     <g id="text_21">
      <!-- 3 -->
      <g transform="translate(511.663777 317.837188) scale(0.18 -0.18)">
       <use xlink:href="#DejaVuSans-33"/>
      </g>
     </g>
    </g>
    <g id="xtick_15">
     <g id="line2d_21">
      <g>
       <use xlink:href="#m931180abd8" x="547.890836" y="297.16" style="stroke: #000000; stroke-width: 0.8"/>
      </g>
     </g>
     <g id="text_22">
      <!-- 4 -->
      <g transform="translate(542.164586 317.837188) scale(0.18 -0.18)">
       <use xlink:href="#DejaVuSans-34"/>
      </g>
     </g>
    </g>
    <g id="xtick_16">
     <g id="line2d_22">
      <g>
       <use xlink:href="#m931180abd8" x="578.391644" y="297.16" style="stroke: #000000; stroke-width: 0.8"/>
      </g>
     </g>
     <g id="text_23">
      <!-- 5 -->
      <g transform="translate(572.665394 317.837188) scale(0.18 -0.18)">
       <use xlink:href="#DejaVuSans-35"/>
      </g>
     </g>
    </g>
    <g id="xtick_17">
     <g id="line2d_23">
      <g>
       <use xlink:href="#m931180abd8" x="608.892453" y="297.16" style="stroke: #000000; stroke-width: 0.8"/>
      </g>
     </g>
     <g id="text_24">
      <!-- 6 -->
      <g transform="translate(603.166203 317.837188) scale(0.18 -0.18)">
       <use xlink:href="#DejaVuSans-36"/>
      </g>
     </g>
    </g>
    <g id="xtick_18">
     <g id="line2d_24">
      <g>
       <use xlink:href="#m931180abd8" x="639.393261" y="297.16" style="stroke: #000000; stroke-width: 0.8"/>
      </g>
     </g>
     <g id="text_25">
      <!-- 7 -->
      <g transform="translate(633.667011 317.837188) scale(0.18 -0.18)">
       <use xlink:href="#DejaVuSans-37"/>
      </g>
     </g>
    </g>
    <g id="xtick_19">
     <g id="line2d_25">
      <g>
       <use xlink:href="#m931180abd8" x="669.89407" y="297.16" style="stroke: #000000; stroke-width: 0.8"/>
      </g>
     </g>
     <g id="text_26">
      <!-- 8 -->
      <g transform="translate(664.16782 317.837188) scale(0.18 -0.18)">
       <use xlink:href="#DejaVuSans-38"/>
      </g>
     </g>
    </g>
    <g id="xtick_20">
     <g id="line2d_26">
      <g>
       <use xlink:href="#m931180abd8" x="700.394878" y="297.16" style="stroke: #000000; stroke-width: 0.8"/>
      </g>
     </g>
     <g id="text_27">
      <!-- 9 -->
      <g transform="translate(694.668628 317.837188) scale(0.18 -0.18)">
       <use xlink:href="#DejaVuSans-39"/>
      </g>
     </g>
    </g>
    <g id="text_28">
     <!-- Time (d) -->
     <g transform="translate(512.98499 343.816875) scale(0.24 -0.24)">
      <use xlink:href="#DejaVuSans-54"/>
      <use xlink:href="#DejaVuSans-69" x="57.958984"/>
      <use xlink:href="#DejaVuSans-6d" x="85.742188"/>
      <use xlink:href="#DejaVuSans-65" x="183.154297"/>
      <use xlink:href="#DejaVuSans-20" x="244.677734"/>
      <use xlink:href="#DejaVuSans-28" x="276.464844"/>
      <use xlink:href="#DejaVuSans-64" x="315.478516"/>
      <use xlink:href="#DejaVuSans-29" x="378.955078"/>
     </g>
    </g>
   </g>
   <g id="matplotlib.axis_4">
    <g id="ytick_6">
     <g id="line2d_27">
      <g>
       <use xlink:href="#mf3e6421fbb" x="422.83752" y="297.16" style="stroke: #000000; stroke-width: 0.8"/>
      </g>
     </g>
     <g id="text_29">
      <!-- 4.0 -->
      <g transform="translate(387.211895 303.998594) scale(0.18 -0.18)">
       <defs>
        <path id="DejaVuSans-2e" d="M 684 794 
L 1344 794 
L 1344 0 
L 684 0 
L 684 794 
z
" transform="scale(0.015625)"/>
       </defs>
       <use xlink:href="#DejaVuSans-34"/>
       <use xlink:href="#DejaVuSans-2e" x="63.623047"/>
       <use xlink:href="#DejaVuSans-30" x="95.410156"/>
      </g>
     </g>
    </g>
    <g id="ytick_7">
     <g id="line2d_28">
      <g>
       <use xlink:href="#mf3e6421fbb" x="422.83752" y="259.851429" style="stroke: #000000; stroke-width: 0.8"/>
      </g>
     </g>
     <g id="text_30">
      <!-- 4.5 -->
      <g transform="translate(387.211895 266.690022) scale(0.18 -0.18)">
       <use xlink:href="#DejaVuSans-34"/>
       <use xlink:href="#DejaVuSans-2e" x="63.623047"/>
       <use xlink:href="#DejaVuSans-35" x="95.410156"/>
      </g>
     </g>
    </g>
    <g id="ytick_8">
     <g id="line2d_29">
      <g>
       <use xlink:href="#mf3e6421fbb" x="422.83752" y="222.542857" style="stroke: #000000; stroke-width: 0.8"/>
      </g>
     </g>
     <g id="text_31">
      <!-- 5.0 -->
      <g transform="translate(387.211895 229.381451) scale(0.18 -0.18)">
       <use xlink:href="#DejaVuSans-35"/>
       <use xlink:href="#DejaVuSans-2e" x="63.623047"/>
       <use xlink:href="#DejaVuSans-30" x="95.410156"/>
      </g>
     </g>
    </g>
    <g id="ytick_9">
     <g id="line2d_30">
      <g>
       <use xlink:href="#mf3e6421fbb" x="422.83752" y="185.234286" style="stroke: #000000; stroke-width: 0.8"/>
      </g>
     </g>
     <g id="text_32">
      <!-- 5.5 -->
      <g transform="translate(387.211895 192.072879) scale(0.18 -0.18)">
       <use xlink:href="#DejaVuSans-35"/>
       <use xlink:href="#DejaVuSans-2e" x="63.623047"/>
       <use xlink:href="#DejaVuSans-35" x="95.410156"/>
      </g>
     </g>
    </g>
    <g id="ytick_10">
     <g id="line2d_31">
      <g>
       <use xlink:href="#mf3e6421fbb" x="422.83752" y="147.925714" style="stroke: #000000; stroke-width: 0.8"/>
      </g>
     </g>
     <g id="text_33">
      <!-- 6.0 -->
      <g transform="translate(387.211895 154.764308) scale(0.18 -0.18)">
       <use xlink:href="#DejaVuSans-36"/>
       <use xlink:href="#DejaVuSans-2e" x="63.623047"/>
       <use xlink:href="#DejaVuSans-30" x="95.410156"/>
      </g>
     </g>
    </g>
    <g id="ytick_11">
     <g id="line2d_32">
      <g>
       <use xlink:href="#mf3e6421fbb" x="422.83752" y="110.617143" style="stroke: #000000; stroke-width: 0.8"/>
      </g>
     </g>
     <g id="text_34">
      <!-- 6.5 -->
      <g transform="translate(387.211895 117.455737) scale(0.18 -0.18)">
       <use xlink:href="#DejaVuSans-36"/>
       <use xlink:href="#DejaVuSans-2e" x="63.623047"/>
       <use xlink:href="#DejaVuSans-35" x="95.410156"/>
      </g>
     </g>
    </g>
    <g id="ytick_12">
     <g id="line2d_33">
      <g>
       <use xlink:href="#mf3e6421fbb" x="422.83752" y="73.308571" style="stroke: #000000; stroke-width: 0.8"/>
      </g>
     </g>
     <g id="text_35">
      <!-- 7.0 -->
      <g transform="translate(387.211895 80.147165) scale(0.18 -0.18)">
       <use xlink:href="#DejaVuSans-37"/>
       <use xlink:href="#DejaVuSans-2e" x="63.623047"/>
       <use xlink:href="#DejaVuSans-30" x="95.410156"/>
      </g>
     </g>
    </g>
    <g id="ytick_13">
     <g id="line2d_34">
      <g>
       <use xlink:href="#mf3e6421fbb" x="422.83752" y="36" style="stroke: #000000; stroke-width: 0.8"/>
      </g>
     </g>
     <g id="text_36">
      <!-- 7.5 -->
      <g transform="translate(387.211895 42.838594) scale(0.18 -0.18)">
       <use xlink:href="#DejaVuSans-37"/>
       <use xlink:href="#DejaVuSans-2e" x="63.623047"/>
       <use xlink:href="#DejaVuSans-35" x="95.410156"/>
      </g>
     </g>
    </g>
    <g id="text_37">
     <!-- CD8$^+$ TE (log$_{10}$ cells) -->
     <g transform="translate(378.171895 294.74) rotate(-90) scale(0.24 -0.24)">
      <defs>
       <path id="DejaVuSans-43" d="M 4122 4306 
L 4122 3641 
Q 3803 3938 3442 4084 
Q 3081 4231 2675 4231 
Q 1875 4231 1450 3742 
Q 1025 3253 1025 2328 
Q 1025 1406 1450 917 
Q 1875 428 2675 428 
Q 3081 428 3442 575 
Q 3803 722 4122 1019 
L 4122 359 
Q 3791 134 3420 21 
Q 3050 -91 2638 -91 
Q 1578 -91 968 557 
Q 359 1206 359 2328 
Q 359 3453 968 4101 
Q 1578 4750 2638 4750 
Q 3056 4750 3426 4639 
Q 3797 4528 4122 4306 
z
" transform="scale(0.015625)"/>
       <path id="DejaVuSans-44" d="M 1259 4147 
L 1259 519 
L 2022 519 
Q 2988 519 3436 956 
Q 3884 1394 3884 2338 
Q 3884 3275 3436 3711 
Q 2988 4147 2022 4147 
L 1259 4147 
z
M 628 4666 
L 1925 4666 
Q 3281 4666 3915 4102 
Q 4550 3538 4550 2338 
Q 4550 1131 3912 565 
Q 3275 0 1925 0 
L 628 0 
L 628 4666 
z
" transform="scale(0.015625)"/>
       <path id="DejaVuSans-2b" d="M 2944 4013 
L 2944 2272 
L 4684 2272 
L 4684 1741 
L 2944 1741 
L 2944 0 
L 2419 0 
L 2419 1741 
L 678 1741 
L 678 2272 
L 2419 2272 
L 2419 4013 
L 2944 4013 
z
" transform="scale(0.015625)"/>
       <path id="DejaVuSans-45" d="M 628 4666 
L 3578 4666 
L 3578 4134 
L 1259 4134 
L 1259 2753 
L 3481 2753 
L 3481 2222 
L 1259 2222 
L 1259 531 
L 3634 531 
L 3634 0 
L 628 0 
L 628 4666 
z
" transform="scale(0.015625)"/>
      </defs>
      <use xlink:href="#DejaVuSans-43" transform="translate(0 0.826562)"/>
      <use xlink:href="#DejaVuSans-44" transform="translate(69.824219 0.826562)"/>
      <use xlink:href="#DejaVuSans-38" transform="translate(146.826172 0.826562)"/>
      <use xlink:href="#DejaVuSans-2b" transform="translate(225.043945 39.107812) scale(0.7)"/>
      <use xlink:href="#DejaVuSans-20" transform="translate(300.068359 0.826562)"/>
      <use xlink:href="#DejaVuSans-54" transform="translate(331.855469 0.826562)"/>
      <use xlink:href="#DejaVuSans-45" transform="translate(392.939453 0.826562)"/>
      <use xlink:href="#DejaVuSans-20" transform="translate(456.123047 0.826562)"/>
      <use xlink:href="#DejaVuSans-28" transform="translate(487.910156 0.826562)"/>
      <use xlink:href="#DejaVuSans-6c" transform="translate(526.923828 0.826562)"/>
      <use xlink:href="#DejaVuSans-6f" transform="translate(554.707031 0.826562)"/>
      <use xlink:href="#DejaVuSans-67" transform="translate(615.888672 0.826562)"/>
      <use xlink:href="#DejaVuSans-31" transform="translate(680.322266 -15.579688) scale(0.7)"/>
      <use xlink:href="#DejaVuSans-30" transform="translate(724.858398 -15.579688) scale(0.7)"/>
      <use xlink:href="#DejaVuSans-20" transform="translate(772.128906 0.826562)"/>
      <use xlink:href="#DejaVuSans-63" transform="translate(803.916016 0.826562)"/>
      <use xlink:href="#DejaVuSans-65" transform="translate(858.896484 0.826562)"/>
      <use xlink:href="#DejaVuSans-6c" transform="translate(920.419922 0.826562)"/>
      <use xlink:href="#DejaVuSans-6c" transform="translate(948.203125 0.826562)"/>
      <use xlink:href="#DejaVuSans-73" transform="translate(975.986328 0.826562)"/>
      <use xlink:href="#DejaVuSans-29" transform="translate(1028.085938 0.826562)"/>
     </g>
    </g>
   </g>
   <g id="patch_8">
    <path d="M 422.83752 297.16 
L 422.83752 36 
" style="fill: none; stroke: #000000; stroke-width: 0.8; stroke-linejoin: miter; stroke-linecap: square"/>
   </g>
   <g id="patch_9">
    <path d="M 703.444959 297.16 
L 703.444959 36 
" style="fill: none; stroke: #000000; stroke-width: 0.8; stroke-linejoin: miter; stroke-linecap: square"/>
   </g>
   <g id="patch_10">
    <path d="M 422.83752 297.16 
L 703.444959 297.16 
" style="fill: none; stroke: #000000; stroke-width: 0.8; stroke-linejoin: miter; stroke-linecap: square"/>
   </g>
   <g id="patch_11">
    <path d="M 422.83752 36 
L 703.444959 36 
" style="fill: none; stroke: #000000; stroke-width: 0.8; stroke-linejoin: miter; stroke-linecap: square"/>
   </g>
   <g id="PolyCollection_2">
    <defs>
     <path id="mba37ad4699" d="M 425.887601 -146.838717 
L 425.887601 -146.838717 
L 425.887946 -146.838717 
L 425.891395 -146.838717 
L 425.925881 -146.838717 
L 426.118171 -146.838717 
L 426.249642 -146.838717 
L 426.76637 -146.838717 
L 427.049925 -146.838717 
L 428.024724 -146.838717 
L 428.477627 -146.838717 
L 429.788914 -146.838717 
L 430.36235 -146.838717 
L 431.670397 -146.838717 
L 432.357375 -146.838717 
L 433.728436 -146.838717 
L 434.506811 -146.838717 
L 435.895443 -146.838717 
L 436.749902 -146.838717 
L 438.155799 -146.838717 
L 439.070011 -146.838717 
L 440.482952 -146.838717 
L 441.443625 -146.838717 
L 442.860263 -146.838717 
L 443.855973 -146.838717 
L 445.417683 -146.838717 
L 446.399672 -146.838717 
L 447.76204 -146.838717 
L 448.785879 -146.838717 
L 450.275465 -146.838718 
L 451.294853 -146.838718 
L 452.68082 -146.838718 
L 453.727328 -146.838719 
L 455.226146 -146.83872 
L 456.267473 -146.838721 
L 457.688849 -146.838725 
L 458.762332 -146.838729 
L 460.310958 -146.838739 
L 461.391117 -146.838752 
L 462.858522 -146.838779 
L 463.967635 -146.838816 
L 465.554816 -146.838896 
L 466.682941 -146.839002 
L 468.141649 -146.839207 
L 469.25391 -146.839485 
L 470.583605 -146.839967 
L 471.653787 -146.840614 
L 472.762169 -146.841573 
L 473.870552 -146.843034 
L 474.763591 -146.844703 
L 475.591942 -146.846818 
L 476.289705 -146.84915 
L 476.908309 -146.851775 
L 477.445225 -146.85459 
L 477.926623 -146.857577 
L 478.356262 -146.860717 
L 478.785901 -146.864367 
L 479.139158 -146.867766 
L 479.468761 -146.871356 
L 479.798364 -146.875606 
L 480.07117 -146.879659 
L 480.377451 -146.884209 
L 481.560946 -146.907489 
L 481.999843 -146.91884 
L 483.825576 -146.989875 
L 484.570436 -147.031047 
L 486.78628 -147.223589 
L 487.742506 -147.353929 
L 490.207575 -147.880226 
L 491.373005 -148.273479 
L 493.678364 -149.350813 
L 495.558036 -150.827053 
L 498.257201 -153.950994 
L 500.097065 -156.935445 
L 503.147146 -163.55835 
L 504.996779 -168.435502 
L 508.04686 -177.988701 
L 509.892545 -184.293352 
L 512.642923 -194.103634 
L 515.393302 -204.085715 
L 518.143681 -213.846853 
L 521.193762 -224.34011 
L 524.243843 -234.180727 
L 527.293923 -243.341755 
L 530.344004 -251.861089 
L 533.394085 -259.650348 
L 536.444166 -266.822319 
L 539.494247 -273.366871 
L 542.544328 -279.316327 
L 545.594409 -284.703774 
L 548.644489 -289.561693 
L 551.69457 -293.92124 
L 554.744651 -297.811901 
L 557.794732 -301.26136 
L 560.844813 -304.295492 
L 563.894894 -306.801763 
L 566.944975 -308.688655 
L 569.995055 -310.252121 
L 573.045136 -311.513816 
L 576.095217 -312.478188 
L 579.145298 -313.137687 
L 582.195379 -313.582817 
L 585.24546 -313.830687 
L 588.295541 -313.89735 
L 591.345621 -313.797601 
L 594.395702 -313.449445 
L 597.445783 -312.931001 
L 600.495864 -312.254697 
L 603.545945 -311.330876 
L 606.596026 -310.104961 
L 609.646107 -308.734653 
L 612.696187 -307.229229 
L 615.746268 -305.597507 
L 618.796349 -303.847874 
L 621.84643 -301.719853 
L 624.896511 -299.460729 
L 627.946592 -297.081493 
L 630.996673 -294.588869 
L 634.046753 -291.98933 
L 637.096834 -289.289122 
L 637.578624 -288.854988 
L 637.834156 -288.62139 
L 638.053846 -288.420557 
L 638.310129 -288.186273 
L 638.50246 -288.01045 
L 638.540926 -287.975286 
L 638.589232 -287.931126 
L 638.670017 -287.857275 
L 638.75706 -287.777704 
L 638.89085 -287.655398 
L 639.037449 -287.521382 
L 639.275248 -287.303996 
L 639.513046 -287.085646 
L 639.8181 -286.802908 
L 640.194007 -286.452694 
L 640.957691 -285.739007 
L 642.831467 -283.963519 
L 644.005577 -282.834568 
L 646.826789 -280.073024 
L 648.220905 -278.681283 
L 651.270986 -275.588018 
L 653.006115 -273.796959 
L 656.056195 -270.600901 
L 658.435877 -268.068332 
L 661.485958 -264.768055 
L 664.536039 -261.416575 
L 667.586119 -258.019033 
L 670.6362 -254.580578 
L 673.686281 -251.106398 
L 676.736362 -247.601741 
L 679.786443 -244.071943 
L 682.836524 -240.522457 
L 685.886605 -236.958878 
L 688.936685 -233.386973 
L 691.986766 -229.812703 
L 695.036847 -226.242252 
L 698.086928 -222.683287 
L 700.394878 -220.006993 
L 700.394878 -270.188314 
L 700.394878 -270.188314 
L 698.086928 -271.345288 
L 695.036847 -272.875181 
L 691.986766 -274.405359 
L 688.936685 -275.935475 
L 685.886605 -277.465131 
L 682.836524 -278.993863 
L 679.786443 -280.521133 
L 676.736362 -282.046313 
L 673.686281 -283.568693 
L 670.6362 -285.087106 
L 667.586119 -286.600389 
L 664.536039 -288.106498 
L 661.485958 -289.602444 
L 658.435877 -291.087977 
L 656.056195 -292.241961 
L 653.006115 -293.713119 
L 651.270986 -294.542867 
L 648.220905 -295.989114 
L 646.826789 -296.644518 
L 644.005577 -297.958312 
L 642.831467 -298.501333 
L 640.957691 -299.358882 
L 640.194007 -299.707117 
L 639.8181 -299.877886 
L 639.513046 -300.01583 
L 639.275248 -300.123267 
L 639.037449 -300.230467 
L 638.89085 -300.296516 
L 638.75706 -300.356731 
L 638.670017 -300.395861 
L 638.589232 -300.432178 
L 638.540926 -300.45388 
L 638.50246 -300.471154 
L 638.310129 -300.55747 
L 638.053846 -300.672314 
L 637.834156 -300.770596 
L 637.578624 -300.884648 
L 637.096834 -301.099288 
L 634.046753 -302.43704 
L 630.996673 -303.745045 
L 627.946592 -305.01528 
L 624.896511 -306.242563 
L 621.84643 -307.421193 
L 618.796349 -308.544921 
L 615.746268 -309.616091 
L 612.696187 -310.791857 
L 609.646107 -312.293595 
L 606.596026 -313.635525 
L 603.545945 -314.808792 
L 600.495864 -315.804069 
L 597.445783 -316.611518 
L 594.395702 -317.220744 
L 591.345621 -317.620744 
L 588.295541 -317.799855 
L 585.24546 -317.745694 
L 582.195379 -317.52548 
L 579.145298 -317.120634 
L 576.095217 -316.456968 
L 573.045136 -315.566887 
L 569.995055 -314.369453 
L 566.944975 -312.846341 
L 563.894894 -310.977877 
L 560.844813 -308.742909 
L 557.794732 -306.118679 
L 554.744651 -303.08068 
L 551.69457 -299.602523 
L 548.644489 -295.655812 
L 545.594409 -291.214545 
L 542.544328 -286.571713 
L 539.494247 -281.383768 
L 536.444166 -275.611971 
L 533.394085 -269.216186 
L 530.344004 -262.156067 
L 527.293923 -254.393307 
L 524.243843 -245.898407 
L 521.193762 -236.64544 
L 518.143681 -226.772387 
L 515.393302 -217.310836 
L 512.642923 -207.371216 
L 509.892545 -197.134998 
L 508.04686 -190.246569 
L 504.996779 -179.193206 
L 503.147146 -172.91551 
L 500.097065 -163.93844 
L 498.257201 -159.357851 
L 495.558036 -154.32228 
L 493.678364 -151.799709 
L 491.373005 -149.710371 
L 490.207575 -148.950453 
L 487.742506 -147.92138 
L 486.78628 -147.646278 
L 484.570436 -147.254902 
L 483.825576 -147.161185 
L 481.999843 -147.019605 
L 481.560946 -146.99075 
L 480.377451 -146.941753 
L 480.07117 -146.92994 
L 479.798364 -146.921774 
L 479.468761 -146.912795 
L 479.139158 -146.904749 
L 478.785901 -146.897078 
L 478.356262 -146.888936 
L 477.926623 -146.881834 
L 477.445225 -146.875056 
L 476.908309 -146.868706 
L 476.289705 -146.862723 
L 475.591942 -146.857354 
L 474.763591 -146.852492 
L 473.870552 -146.848621 
L 472.762169 -146.845283 
L 471.653787 -146.84304 
L 470.583605 -146.841596 
L 469.25391 -146.840455 
L 468.141649 -146.839847 
L 466.682941 -146.839363 
L 465.554816 -146.839132 
L 463.967635 -146.838941 
L 462.858522 -146.83886 
L 461.391117 -146.838797 
L 460.310958 -146.838769 
L 458.762332 -146.838745 
L 457.688849 -146.838735 
L 456.267473 -146.838727 
L 455.226146 -146.838723 
L 453.727328 -146.83872 
L 452.68082 -146.838719 
L 451.294853 -146.838718 
L 450.275465 -146.838718 
L 448.785879 -146.838718 
L 447.76204 -146.838717 
L 446.399672 -146.838717 
L 445.417683 -146.838717 
L 443.855973 -146.838717 
L 442.860263 -146.838717 
L 441.443625 -146.838717 
L 440.482952 -146.838717 
L 439.070011 -146.838717 
L 438.155799 -146.838717 
L 436.749902 -146.838717 
L 435.895443 -146.838717 
L 434.506811 -146.838717 
L 433.728436 -146.838717 
L 432.357375 -146.838717 
L 431.670397 -146.838717 
L 430.36235 -146.838717 
L 429.788914 -146.838717 
L 428.477627 -146.838717 
L 428.024724 -146.838717 
L 427.049925 -146.838717 
L 426.76637 -146.838717 
L 426.249642 -146.838717 
L 426.118171 -146.838717 
L 425.925881 -146.838717 
L 425.891395 -146.838717 
L 425.887946 -146.838717 
L 425.887601 -146.838717 
z
" style="stroke: #ff0000; stroke-opacity: 0.2"/>
    </defs>
    <g clip-path="url(#p25d375a10e)">
     <use xlink:href="#mba37ad4699" x="0" y="360" style="fill: #ff0000; fill-opacity: 0.2; stroke: #ff0000; stroke-opacity: 0.2"/>
    </g>
   </g>
   <g id="PathCollection_2">
    <g clip-path="url(#p25d375a10e)">
     <use xlink:href="#mbb257b68fa" x="425.887601" y="213.161283" style="fill: #ff0000; fill-opacity: 0.8; stroke: #ff0000; stroke-opacity: 0.8"/>
     <use xlink:href="#mbb257b68fa" x="456.38841" y="171.759044" style="fill: #ff0000; fill-opacity: 0.8; stroke: #ff0000; stroke-opacity: 0.8"/>
     <use xlink:href="#mbb257b68fa" x="486.889218" y="169.406949" style="fill: #ff0000; fill-opacity: 0.8; stroke: #ff0000; stroke-opacity: 0.8"/>
     <use xlink:href="#mbb257b68fa" x="517.390027" y="126.289033" style="fill: #ff0000; fill-opacity: 0.8; stroke: #ff0000; stroke-opacity: 0.8"/>
     <use xlink:href="#mbb257b68fa" x="547.890836" y="89.430007" style="fill: #ff0000; fill-opacity: 0.8; stroke: #ff0000; stroke-opacity: 0.8"/>
     <use xlink:href="#mbb257b68fa" x="578.391644" y="76.94557" style="fill: #ff0000; fill-opacity: 0.8; stroke: #ff0000; stroke-opacity: 0.8"/>
     <use xlink:href="#mbb257b68fa" x="608.892453" y="45.457767" style="fill: #ff0000; fill-opacity: 0.8; stroke: #ff0000; stroke-opacity: 0.8"/>
     <use xlink:href="#mbb257b68fa" x="639.393261" y="50.589915" style="fill: #ff0000; fill-opacity: 0.8; stroke: #ff0000; stroke-opacity: 0.8"/>
    </g>
   </g>
   <g id="line2d_35">
    <path d="M 425.887601 213.161283 
L 480.377451 213.065499 
L 483.825576 212.858642 
L 484.570436 212.77817 
L 487.742506 212.159465 
L 490.207575 211.170662 
L 491.373005 210.471728 
L 493.678364 208.459883 
L 495.558036 206.063224 
L 498.257201 201.160683 
L 500.097065 196.803676 
L 503.147146 187.864777 
L 504.996779 181.667249 
L 509.892545 163.742186 
L 515.393302 143.529603 
L 518.143681 134.034792 
L 521.193762 124.166382 
L 524.243843 115.046402 
L 527.293923 106.680251 
L 530.344004 99.047419 
L 533.394085 92.114236 
L 536.444166 85.841117 
L 539.494247 80.18659 
L 542.544328 75.109478 
L 545.594409 70.570046 
L 548.644489 66.530552 
L 551.69457 62.955467 
L 554.744651 59.811503 
L 557.794732 57.067556 
L 560.844813 54.694584 
L 563.894894 52.665477 
L 566.944975 50.954914 
L 569.995055 49.539224 
L 573.045136 48.396262 
L 576.095217 47.505289 
L 579.145298 46.84687 
L 582.195379 46.402776 
L 585.24546 46.155905 
L 588.295541 46.09021 
L 591.345621 46.190633 
L 594.395702 46.443053 
L 597.445783 46.834235 
L 600.495864 47.351792 
L 606.596026 48.720479 
L 612.696187 50.465578 
L 618.796349 52.514989 
L 624.896511 54.807174 
L 630.996673 57.29028 
L 640.957691 61.646741 
L 651.270986 66.422087 
L 664.536039 72.790283 
L 691.986766 86.275928 
L 700.394878 90.42328 
L 700.394878 90.42328 
" clip-path="url(#p25d375a10e)" style="fill: none; stroke: #ff0000; stroke-width: 1.5; stroke-linecap: square"/>
   </g>
  </g>
  <g id="axes_3">
   <g id="patch_12">
    <path d="M 785.715041 297.16 
L 1066.32248 297.16 
L 1066.32248 36 
L 785.715041 36 
z
" style="fill: #ffffff"/>
   </g>
   <g id="matplotlib.axis_5">
    <g id="xtick_21">
     <g id="line2d_36">
      <g>
       <use xlink:href="#m931180abd8" x="788.765122" y="297.16" style="stroke: #000000; stroke-width: 0.8"/>
      </g>
     </g>
     <g id="text_38">
      <!-- 0 -->
      <g transform="translate(783.038872 317.837188) scale(0.18 -0.18)">
       <use xlink:href="#DejaVuSans-30"/>
      </g>
     </g>
    </g>
    <g id="xtick_22">
     <g id="line2d_37">
      <g>
       <use xlink:href="#m931180abd8" x="819.26593" y="297.16" style="stroke: #000000; stroke-width: 0.8"/>
      </g>
     </g>
     <g id="text_39">
      <!-- 1 -->
      <g transform="translate(813.53968 317.837188) scale(0.18 -0.18)">
       <use xlink:href="#DejaVuSans-31"/>
      </g>
     </g>
    </g>
    <g id="xtick_23">
     <g id="line2d_38">
      <g>
       <use xlink:href="#m931180abd8" x="849.766739" y="297.16" style="stroke: #000000; stroke-width: 0.8"/>
      </g>
     </g>
     <g id="text_40">
      <!-- 2 -->
      <g transform="translate(844.040489 317.837188) scale(0.18 -0.18)">
       <use xlink:href="#DejaVuSans-32"/>
      </g>
     </g>
    </g>
    <g id="xtick_24">
     <g id="line2d_39">
      <g>
       <use xlink:href="#m931180abd8" x="880.267547" y="297.16" style="stroke: #000000; stroke-width: 0.8"/>
      </g>
     </g>
     <g id="text_41">
      <!-- 3 -->
      <g transform="translate(874.541297 317.837188) scale(0.18 -0.18)">
       <use xlink:href="#DejaVuSans-33"/>
      </g>
     </g>
    </g>
    <g id="xtick_25">
     <g id="line2d_40">
      <g>
       <use xlink:href="#m931180abd8" x="910.768356" y="297.16" style="stroke: #000000; stroke-width: 0.8"/>
      </g>
     </g>
     <g id="text_42">
      <!-- 4 -->
      <g transform="translate(905.042106 317.837188) scale(0.18 -0.18)">
       <use xlink:href="#DejaVuSans-34"/>
      </g>
     </g>
    </g>
    <g id="xtick_26">
     <g id="line2d_41">
      <g>
       <use xlink:href="#m931180abd8" x="941.269164" y="297.16" style="stroke: #000000; stroke-width: 0.8"/>
      </g>
     </g>
     <g id="text_43">
      <!-- 5 -->
      <g transform="translate(935.542914 317.837188) scale(0.18 -0.18)">
       <use xlink:href="#DejaVuSans-35"/>
      </g>
     </g>
    </g>
    <g id="xtick_27">
     <g id="line2d_42">
      <g>
       <use xlink:href="#m931180abd8" x="971.769973" y="297.16" style="stroke: #000000; stroke-width: 0.8"/>
      </g>
     </g>
     <g id="text_44">
      <!-- 6 -->
      <g transform="translate(966.043723 317.837188) scale(0.18 -0.18)">
       <use xlink:href="#DejaVuSans-36"/>
      </g>
     </g>
    </g>
    <g id="xtick_28">
     <g id="line2d_43">
      <g>
       <use xlink:href="#m931180abd8" x="1002.270782" y="297.16" style="stroke: #000000; stroke-width: 0.8"/>
      </g>
     </g>
     <g id="text_45">
      <!-- 7 -->
      <g transform="translate(996.544532 317.837188) scale(0.18 -0.18)">
       <use xlink:href="#DejaVuSans-37"/>
      </g>
     </g>
    </g>
    <g id="xtick_29">
     <g id="line2d_44">
      <g>
       <use xlink:href="#m931180abd8" x="1032.77159" y="297.16" style="stroke: #000000; stroke-width: 0.8"/>
      </g>
     </g>
     <g id="text_46">
      <!-- 8 -->
      <g transform="translate(1027.04534 317.837188) scale(0.18 -0.18)">
       <use xlink:href="#DejaVuSans-38"/>
      </g>
     </g>
    </g>
    <g id="xtick_30">
     <g id="line2d_45">
      <g>
       <use xlink:href="#m931180abd8" x="1063.272399" y="297.16" style="stroke: #000000; stroke-width: 0.8"/>
      </g>
     </g>
     <g id="text_47">
      <!-- 9 -->
      <g transform="translate(1057.546149 317.837188) scale(0.18 -0.18)">
       <use xlink:href="#DejaVuSans-39"/>
      </g>
     </g>
    </g>
    <g id="text_48">
     <!-- Time (d) -->
     <g transform="translate(875.86251 343.816875) scale(0.24 -0.24)">
      <use xlink:href="#DejaVuSans-54"/>
      <use xlink:href="#DejaVuSans-69" x="57.958984"/>
      <use xlink:href="#DejaVuSans-6d" x="85.742188"/>
      <use xlink:href="#DejaVuSans-65" x="183.154297"/>
      <use xlink:href="#DejaVuSans-20" x="244.677734"/>
      <use xlink:href="#DejaVuSans-28" x="276.464844"/>
      <use xlink:href="#DejaVuSans-64" x="315.478516"/>
      <use xlink:href="#DejaVuSans-29" x="378.955078"/>
     </g>
    </g>
   </g>
   <g id="matplotlib.axis_6">
    <g id="ytick_14">
     <g id="line2d_46">
      <g>
       <use xlink:href="#mf3e6421fbb" x="785.715041" y="297.16" style="stroke: #000000; stroke-width: 0.8"/>
      </g>
     </g>
     <g id="text_49">
      <!-- 3.0 -->
      <g transform="translate(750.089416 303.998594) scale(0.18 -0.18)">
       <use xlink:href="#DejaVuSans-33"/>
       <use xlink:href="#DejaVuSans-2e" x="63.623047"/>
       <use xlink:href="#DejaVuSans-30" x="95.410156"/>
      </g>
     </g>
    </g>
    <g id="ytick_15">
     <g id="line2d_47">
      <g>
       <use xlink:href="#mf3e6421fbb" x="785.715041" y="239.124444" style="stroke: #000000; stroke-width: 0.8"/>
      </g>
     </g>
     <g id="text_50">
      <!-- 3.5 -->
      <g transform="translate(750.089416 245.963038) scale(0.18 -0.18)">
       <use xlink:href="#DejaVuSans-33"/>
       <use xlink:href="#DejaVuSans-2e" x="63.623047"/>
       <use xlink:href="#DejaVuSans-35" x="95.410156"/>
      </g>
     </g>
    </g>
    <g id="ytick_16">
     <g id="line2d_48">
      <g>
       <use xlink:href="#mf3e6421fbb" x="785.715041" y="181.088889" style="stroke: #000000; stroke-width: 0.8"/>
      </g>
     </g>
     <g id="text_51">
      <!-- 4.0 -->
      <g transform="translate(750.089416 187.927483) scale(0.18 -0.18)">
       <use xlink:href="#DejaVuSans-34"/>
       <use xlink:href="#DejaVuSans-2e" x="63.623047"/>
       <use xlink:href="#DejaVuSans-30" x="95.410156"/>
      </g>
     </g>
    </g>
    <g id="ytick_17">
     <g id="line2d_49">
      <g>
       <use xlink:href="#mf3e6421fbb" x="785.715041" y="123.053333" style="stroke: #000000; stroke-width: 0.8"/>
      </g>
     </g>
     <g id="text_52">
      <!-- 4.5 -->
      <g transform="translate(750.089416 129.891927) scale(0.18 -0.18)">
       <use xlink:href="#DejaVuSans-34"/>
       <use xlink:href="#DejaVuSans-2e" x="63.623047"/>
       <use xlink:href="#DejaVuSans-35" x="95.410156"/>
      </g>
     </g>
    </g>
    <g id="ytick_18">
     <g id="line2d_50">
      <g>
       <use xlink:href="#mf3e6421fbb" x="785.715041" y="65.017778" style="stroke: #000000; stroke-width: 0.8"/>
      </g>
     </g>
     <g id="text_53">
      <!-- 5.0 -->
      <g transform="translate(750.089416 71.856372) scale(0.18 -0.18)">
       <use xlink:href="#DejaVuSans-35"/>
       <use xlink:href="#DejaVuSans-2e" x="63.623047"/>
       <use xlink:href="#DejaVuSans-30" x="95.410156"/>
      </g>
     </g>
    </g>
    <g id="text_54">
     <!-- CD8$^+$ TEM (log$_{10}$ cells) -->
     <g transform="translate(741.049416 305.06) rotate(-90) scale(0.24 -0.24)">
      <defs>
       <path id="DejaVuSans-4d" d="M 628 4666 
L 1569 4666 
L 2759 1491 
L 3956 4666 
L 4897 4666 
L 4897 0 
L 4281 0 
L 4281 4097 
L 3078 897 
L 2444 897 
L 1241 4097 
L 1241 0 
L 628 0 
L 628 4666 
z
" transform="scale(0.015625)"/>
      </defs>
      <use xlink:href="#DejaVuSans-43" transform="translate(0 0.826562)"/>
      <use xlink:href="#DejaVuSans-44" transform="translate(69.824219 0.826562)"/>
      <use xlink:href="#DejaVuSans-38" transform="translate(146.826172 0.826562)"/>
      <use xlink:href="#DejaVuSans-2b" transform="translate(225.043945 39.107812) scale(0.7)"/>
      <use xlink:href="#DejaVuSans-20" transform="translate(300.068359 0.826562)"/>
      <use xlink:href="#DejaVuSans-54" transform="translate(331.855469 0.826562)"/>
      <use xlink:href="#DejaVuSans-45" transform="translate(392.939453 0.826562)"/>
      <use xlink:href="#DejaVuSans-4d" transform="translate(456.123047 0.826562)"/>
      <use xlink:href="#DejaVuSans-20" transform="translate(542.402344 0.826562)"/>
      <use xlink:href="#DejaVuSans-28" transform="translate(574.189453 0.826562)"/>
      <use xlink:href="#DejaVuSans-6c" transform="translate(613.203125 0.826562)"/>
      <use xlink:href="#DejaVuSans-6f" transform="translate(640.986328 0.826562)"/>
      <use xlink:href="#DejaVuSans-67" transform="translate(702.167969 0.826562)"/>
      <use xlink:href="#DejaVuSans-31" transform="translate(766.601562 -15.579688) scale(0.7)"/>
      <use xlink:href="#DejaVuSans-30" transform="translate(811.137695 -15.579688) scale(0.7)"/>
      <use xlink:href="#DejaVuSans-20" transform="translate(858.408203 0.826562)"/>
      <use xlink:href="#DejaVuSans-63" transform="translate(890.195312 0.826562)"/>
      <use xlink:href="#DejaVuSans-65" transform="translate(945.175781 0.826562)"/>
      <use xlink:href="#DejaVuSans-6c" transform="translate(1006.699219 0.826562)"/>
      <use xlink:href="#DejaVuSans-6c" transform="translate(1034.482422 0.826562)"/>
      <use xlink:href="#DejaVuSans-73" transform="translate(1062.265625 0.826562)"/>
      <use xlink:href="#DejaVuSans-29" transform="translate(1114.365234 0.826562)"/>
     </g>
    </g>
   </g>
   <g id="patch_13">
    <path d="M 785.715041 297.16 
L 785.715041 36 
" style="fill: none; stroke: #000000; stroke-width: 0.8; stroke-linejoin: miter; stroke-linecap: square"/>
   </g>
   <g id="patch_14">
    <path d="M 1066.32248 297.16 
L 1066.32248 36 
" style="fill: none; stroke: #000000; stroke-width: 0.8; stroke-linejoin: miter; stroke-linecap: square"/>
   </g>
   <g id="patch_15">
    <path d="M 785.715041 297.16 
L 1066.32248 297.16 
" style="fill: none; stroke: #000000; stroke-width: 0.8; stroke-linejoin: miter; stroke-linecap: square"/>
   </g>
   <g id="patch_16">
    <path d="M 785.715041 36 
L 1066.32248 36 
" style="fill: none; stroke: #000000; stroke-width: 0.8; stroke-linejoin: miter; stroke-linecap: square"/>
   </g>
   <g id="PolyCollection_3">
    <defs>
     <path id="ma5ab340aca" d="M 788.765122 -156.129854 
L 788.765122 -156.129854 
L 788.765466 -156.129854 
L 788.768915 -156.129854 
L 788.803401 -156.129854 
L 788.995691 -156.129854 
L 789.127163 -156.129854 
L 789.64389 -156.129854 
L 789.927446 -156.129854 
L 790.902244 -156.129854 
L 791.355147 -156.129854 
L 792.666434 -156.129854 
L 793.23987 -156.129854 
L 794.547917 -156.129854 
L 795.234895 -156.129854 
L 796.605956 -156.129854 
L 797.384332 -156.129854 
L 798.772964 -156.129854 
L 799.627423 -156.129854 
L 801.03332 -156.129854 
L 801.947531 -156.129854 
L 803.360472 -156.129854 
L 804.321145 -156.129854 
L 805.737783 -156.129854 
L 806.733493 -156.129854 
L 808.295204 -156.129854 
L 809.277192 -156.129854 
L 810.639561 -156.129854 
L 811.663399 -156.129854 
L 813.152986 -156.129854 
L 814.172373 -156.129854 
L 815.55834 -156.129854 
L 816.604849 -156.129854 
L 818.103667 -156.129854 
L 819.144993 -156.129854 
L 820.566369 -156.129854 
L 821.639852 -156.129854 
L 823.188478 -156.129854 
L 824.268637 -156.129854 
L 825.736043 -156.129854 
L 826.845155 -156.129854 
L 828.432336 -156.129854 
L 829.560462 -156.129854 
L 831.019169 -156.129854 
L 832.13143 -156.129854 
L 833.461125 -156.129854 
L 834.531307 -156.129854 
L 835.63969 -156.129854 
L 836.748072 -156.129854 
L 837.641111 -156.129854 
L 838.469463 -156.129854 
L 839.167225 -156.129854 
L 839.785829 -156.129854 
L 840.322745 -156.129854 
L 840.804143 -156.129854 
L 841.233782 -156.129854 
L 841.663422 -156.129854 
L 842.016678 -156.129854 
L 842.346281 -156.129854 
L 842.675884 -156.129854 
L 842.948691 -156.129854 
L 843.254971 -156.129854 
L 844.438466 -156.129854 
L 844.877364 -156.129854 
L 846.703096 -156.129854 
L 847.447956 -156.129854 
L 849.6638 -156.129855 
L 850.620026 -156.129855 
L 853.085095 -156.129857 
L 854.250525 -156.129859 
L 856.555884 -156.129865 
L 858.435556 -156.12988 
L 861.134722 -156.129919 
L 862.974585 -156.129991 
L 866.024666 -156.13024 
L 867.874299 -156.130612 
L 870.92438 -156.131866 
L 872.770065 -156.133612 
L 875.520444 -156.138063 
L 878.270822 -156.148426 
L 881.021201 -156.165449 
L 884.071282 -156.205318 
L 887.121363 -156.286567 
L 890.171444 -156.414318 
L 893.221525 -156.640861 
L 896.271605 -156.999835 
L 899.321686 -157.547452 
L 902.371767 -158.348308 
L 905.421848 -159.47091 
L 908.471929 -160.987796 
L 911.52201 -162.956865 
L 914.572091 -165.420921 
L 917.622171 -168.396901 
L 920.672252 -171.873487 
L 923.722333 -175.811656 
L 926.772414 -180.147791 
L 929.822495 -184.801839 
L 932.872576 -189.685861 
L 935.922657 -194.711872 
L 938.972737 -199.797881 
L 942.022818 -204.871741 
L 945.072899 -209.872998 
L 948.12298 -214.753192 
L 951.173061 -219.475147 
L 954.223142 -224.011703 
L 957.273223 -228.344228 
L 960.323303 -232.461118 
L 963.373384 -236.356423 
L 966.423465 -240.028636 
L 969.473546 -243.078431 
L 972.523627 -245.598268 
L 975.573708 -247.939933 
L 978.623789 -250.111142 
L 981.673869 -252.120055 
L 984.72395 -253.975088 
L 987.774031 -255.657888 
L 990.824112 -257.208898 
L 993.874193 -258.542908 
L 996.924274 -259.760651 
L 999.974355 -260.870355 
L 1000.456144 -261.040393 
L 1000.711676 -261.130578 
L 1000.931366 -261.208113 
L 1001.187649 -261.293772 
L 1001.37998 -261.357995 
L 1001.418446 -261.37084 
L 1001.466752 -261.386817 
L 1001.547538 -261.413459 
L 1001.634581 -261.442164 
L 1001.76837 -261.486169 
L 1001.91497 -261.53407 
L 1002.152768 -261.611289 
L 1002.390566 -261.688133 
L 1002.695621 -261.785753 
L 1003.071527 -261.904743 
L 1003.835212 -262.142064 
L 1005.708988 -262.699968 
L 1006.883097 -263.026797 
L 1009.70431 -263.782362 
L 1011.098426 -264.128362 
L 1014.148507 -264.834338 
L 1015.883635 -265.204792 
L 1018.933716 -265.804698 
L 1021.313397 -266.228168 
L 1024.363478 -266.726894 
L 1027.413559 -267.175322 
L 1030.46364 -267.577979 
L 1033.513721 -267.939043 
L 1036.563801 -268.262412 
L 1039.613882 -268.551683 
L 1042.663963 -268.81016 
L 1045.714044 -269.040872 
L 1048.764125 -269.246588 
L 1051.814206 -269.429835 
L 1054.864287 -269.592914 
L 1057.914367 -269.737917 
L 1060.964448 -269.866736 
L 1063.272399 -269.955954 
L 1063.272399 -286.385402 
L 1063.272399 -286.385402 
L 1060.964448 -286.267654 
L 1057.914367 -286.097217 
L 1054.864287 -285.906288 
L 1051.814206 -285.692564 
L 1048.764125 -285.453552 
L 1045.714044 -285.186528 
L 1042.663963 -284.88852 
L 1039.613882 -284.55615 
L 1036.563801 -284.185989 
L 1033.513721 -283.774426 
L 1030.46364 -283.317233 
L 1027.413559 -282.809842 
L 1024.363478 -282.247442 
L 1021.313397 -281.624923 
L 1018.933716 -281.091098 
L 1015.883635 -280.351788 
L 1014.148507 -279.891718 
L 1011.098426 -279.032096 
L 1009.70431 -278.610329 
L 1006.883097 -277.695222 
L 1005.708988 -277.290152 
L 1003.835212 -276.612822 
L 1003.071527 -276.325596 
L 1002.695621 -276.181866 
L 1002.390566 -276.063243 
L 1002.152768 -275.969627 
L 1001.91497 -275.876011 
L 1001.76837 -275.818298 
L 1001.634581 -275.765628 
L 1001.547538 -275.731361 
L 1001.466752 -275.699558 
L 1001.418446 -275.680541 
L 1001.37998 -275.665398 
L 1001.187649 -275.587544 
L 1000.931366 -275.483197 
L 1000.711676 -275.393749 
L 1000.456144 -275.289708 
L 999.974355 -275.088939 
L 996.924274 -273.744921 
L 993.874193 -272.289194 
L 990.824112 -270.842551 
L 987.774031 -269.386109 
L 984.72395 -267.802979 
L 981.673869 -266.083947 
L 978.623789 -264.219454 
L 975.573708 -262.199653 
L 972.523627 -260.014484 
L 969.473546 -257.653782 
L 966.423465 -255.107421 
L 963.373384 -252.365493 
L 960.323303 -249.418549 
L 957.273223 -246.257913 
L 954.223142 -242.876074 
L 951.173061 -239.267194 
L 948.12298 -235.427751 
L 945.072899 -231.357325 
L 942.022818 -227.059584 
L 938.972737 -222.543454 
L 935.922657 -217.824489 
L 932.872576 -212.926404 
L 929.822495 -207.88267 
L 926.772414 -202.737998 
L 923.722333 -197.549412 
L 920.672252 -192.386467 
L 917.622171 -187.330089 
L 914.572091 -182.469472 
L 911.52201 -177.896691 
L 908.471929 -173.80479 
L 905.421848 -170.144328 
L 902.371767 -166.947975 
L 899.321686 -164.243422 
L 896.271605 -162.030707 
L 893.221525 -160.283234 
L 890.171444 -158.953005 
L 887.121363 -157.977583 
L 884.071282 -157.293697 
L 881.021201 -156.834501 
L 878.270822 -156.554694 
L 875.520444 -156.384531 
L 872.770065 -156.269731 
L 870.92438 -156.224819 
L 867.874299 -156.173516 
L 866.024666 -156.158847 
L 862.974585 -156.14186 
L 861.134722 -156.136829 
L 858.435556 -156.133016 
L 856.555884 -156.131503 
L 854.250525 -156.130658 
L 853.085095 -156.13036 
L 850.620026 -156.13008 
L 849.6638 -156.130003 
L 847.447956 -156.129924 
L 846.703096 -156.129903 
L 844.877364 -156.12988 
L 844.438466 -156.129875 
L 843.254971 -156.129867 
L 842.948691 -156.129866 
L 842.675884 -156.129865 
L 842.346281 -156.129863 
L 842.016678 -156.129862 
L 841.663422 -156.129861 
L 841.233782 -156.12986 
L 840.804143 -156.129859 
L 840.322745 -156.129858 
L 839.785829 -156.129857 
L 839.167225 -156.129857 
L 838.469463 -156.129856 
L 837.641111 -156.129855 
L 836.748072 -156.129855 
L 835.63969 -156.129855 
L 834.531307 -156.129854 
L 833.461125 -156.129854 
L 832.13143 -156.129854 
L 831.019169 -156.129854 
L 829.560462 -156.129854 
L 828.432336 -156.129854 
L 826.845155 -156.129854 
L 825.736043 -156.129854 
L 824.268637 -156.129854 
L 823.188478 -156.129854 
L 821.639852 -156.129854 
L 820.566369 -156.129854 
L 819.144993 -156.129854 
L 818.103667 -156.129854 
L 816.604849 -156.129854 
L 815.55834 -156.129854 
L 814.172373 -156.129854 
L 813.152986 -156.129854 
L 811.663399 -156.129854 
L 810.639561 -156.129854 
L 809.277192 -156.129854 
L 808.295204 -156.129854 
L 806.733493 -156.129854 
L 805.737783 -156.129854 
L 804.321145 -156.129854 
L 803.360472 -156.129854 
L 801.947531 -156.129854 
L 801.03332 -156.129854 
L 799.627423 -156.129854 
L 798.772964 -156.129854 
L 797.384332 -156.129854 
L 796.605956 -156.129854 
L 795.234895 -156.129854 
L 794.547917 -156.129854 
L 793.23987 -156.129854 
L 792.666434 -156.129854 
L 791.355147 -156.129854 
L 790.902244 -156.129854 
L 789.927446 -156.129854 
L 789.64389 -156.129854 
L 789.127163 -156.129854 
L 788.995691 -156.129854 
L 788.803401 -156.129854 
L 788.768915 -156.129854 
L 788.765466 -156.129854 
L 788.765122 -156.129854 
z
" style="stroke: #ff0000; stroke-opacity: 0.2"/>
    </defs>
    <g clip-path="url(#pf6799269f9)">
     <use xlink:href="#ma5ab340aca" x="0" y="360" style="fill: #ff0000; fill-opacity: 0.2; stroke: #ff0000; stroke-opacity: 0.2"/>
    </g>
   </g>
   <g id="PathCollection_3">
    <g clip-path="url(#pf6799269f9)">
     <use xlink:href="#mbb257b68fa" x="788.765122" y="203.867373" style="fill: #ff0000; fill-opacity: 0.8; stroke: #ff0000; stroke-opacity: 0.8"/>
     <use xlink:href="#mbb257b68fa" x="819.26593" y="205.994402" style="fill: #ff0000; fill-opacity: 0.8; stroke: #ff0000; stroke-opacity: 0.8"/>
     <use xlink:href="#mbb257b68fa" x="849.766739" y="201.533303" style="fill: #ff0000; fill-opacity: 0.8; stroke: #ff0000; stroke-opacity: 0.8"/>
     <use xlink:href="#mbb257b68fa" x="880.267547" y="193.986528" style="fill: #ff0000; fill-opacity: 0.8; stroke: #ff0000; stroke-opacity: 0.8"/>
     <use xlink:href="#mbb257b68fa" x="910.768356" y="174.557245" style="fill: #ff0000; fill-opacity: 0.8; stroke: #ff0000; stroke-opacity: 0.8"/>
     <use xlink:href="#mbb257b68fa" x="941.269164" y="141.821382" style="fill: #ff0000; fill-opacity: 0.8; stroke: #ff0000; stroke-opacity: 0.8"/>
     <use xlink:href="#mbb257b68fa" x="971.769973" y="130.458604" style="fill: #ff0000; fill-opacity: 0.8; stroke: #ff0000; stroke-opacity: 0.8"/>
     <use xlink:href="#mbb257b68fa" x="1002.270782" y="92.885357" style="fill: #ff0000; fill-opacity: 0.8; stroke: #ff0000; stroke-opacity: 0.8"/>
    </g>
   </g>
   <g id="line2d_51">
    <path d="M 788.765122 203.870146 
L 870.92438 203.789123 
L 875.520444 203.651769 
L 881.021201 203.260553 
L 884.071282 202.859914 
L 887.121363 202.267478 
L 890.171444 201.427391 
L 893.221525 200.28054 
L 896.271605 198.771668 
L 899.321686 196.85715 
L 902.371767 194.510335 
L 905.421848 191.726031 
L 908.471929 188.522149 
L 911.52201 184.938124 
L 914.572091 181.030546 
L 920.672252 172.520195 
L 935.922657 150.298545 
L 942.022818 142.046966 
L 948.12298 134.460977 
L 951.173061 130.939138 
L 954.223142 127.601032 
L 957.273223 124.445113 
L 960.323303 121.467682 
L 963.373384 118.663454 
L 966.423465 116.026022 
L 969.473546 113.548218 
L 972.523627 111.222412 
L 978.623789 106.995235 
L 984.72395 103.281487 
L 990.824112 100.020619 
L 996.924274 97.156618 
L 1003.835212 94.327792 
L 1009.70431 92.225894 
L 1015.883635 90.270848 
L 1021.313397 88.744 
L 1027.413559 87.214857 
L 1033.513721 85.858435 
L 1042.663963 84.1005 
L 1051.814206 82.621051 
L 1060.964448 81.371004 
L 1063.272399 81.087097 
L 1063.272399 81.087097 
" clip-path="url(#pf6799269f9)" style="fill: none; stroke: #ff0000; stroke-width: 1.5; stroke-linecap: square"/>
   </g>
  </g>
  <g id="text_55">
   <!-- Volunteer 111 -->
   <g transform="translate(649.759375 22.396875) scale(0.2 -0.2)">
    <defs>
     <path id="DejaVuSans-6e" d="M 3513 2113 
L 3513 0 
L 2938 0 
L 2938 2094 
Q 2938 2591 2744 2837 
Q 2550 3084 2163 3084 
Q 1697 3084 1428 2787 
Q 1159 2491 1159 1978 
L 1159 0 
L 581 0 
L 581 3500 
L 1159 3500 
L 1159 2956 
Q 1366 3272 1645 3428 
Q 1925 3584 2291 3584 
Q 2894 3584 3203 3211 
Q 3513 2838 3513 2113 
z
" transform="scale(0.015625)"/>
     <path id="DejaVuSans-74" d="M 1172 4494 
L 1172 3500 
L 2356 3500 
L 2356 3053 
L 1172 3053 
L 1172 1153 
Q 1172 725 1289 603 
Q 1406 481 1766 481 
L 2356 481 
L 2356 0 
L 1766 0 
Q 1100 0 847 248 
Q 594 497 594 1153 
L 594 3053 
L 172 3053 
L 172 3500 
L 594 3500 
L 594 4494 
L 1172 4494 
z
" transform="scale(0.015625)"/>
    </defs>
    <use xlink:href="#DejaVuSans-56"/>
    <use xlink:href="#DejaVuSans-6f" x="60.658203"/>
    <use xlink:href="#DejaVuSans-6c" x="121.839844"/>
    <use xlink:href="#DejaVuSans-75" x="149.623047"/>
    <use xlink:href="#DejaVuSans-6e" x="213.001953"/>
    <use xlink:href="#DejaVuSans-74" x="276.380859"/>
    <use xlink:href="#DejaVuSans-65" x="315.589844"/>
    <use xlink:href="#DejaVuSans-65" x="377.113281"/>
    <use xlink:href="#DejaVuSans-72" x="438.636719"/>
    <use xlink:href="#DejaVuSans-20" x="479.75"/>
    <use xlink:href="#DejaVuSans-31" x="511.537109"/>
    <use xlink:href="#DejaVuSans-31" x="575.160156"/>
    <use xlink:href="#DejaVuSans-31" x="638.783203"/>
   </g>
  </g>
 </g>
 <defs>
  <clipPath id="pf27ddd44a6">
   <rect x="59.96" y="36" width="280.607439" height="261.16"/>
  </clipPath>
  <clipPath id="p25d375a10e">
   <rect x="422.83752" y="36" width="280.607439" height="261.16"/>
  </clipPath>
  <clipPath id="pf6799269f9">
   <rect x="785.715041" y="36" width="280.607439" height="261.16"/>
  </clipPath>
 </defs>
</svg>
