<?xml version="1.0" encoding="utf-8" standalone="no"?>
<!DOCTYPE svg PUBLIC "-//W3C//DTD SVG 1.1//EN"
  "http://www.w3.org/Graphics/SVG/1.1/DTD/svg11.dtd">
<svg xmlns:xlink="http://www.w3.org/1999/xlink" width="1440pt" height="360pt" viewBox="0 0 1440 360" xmlns="http://www.w3.org/2000/svg" version="1.1">
 <metadata>
  <rdf:RDF xmlns:dc="http://purl.org/dc/elements/1.1/" xmlns:cc="http://creativecommons.org/ns#" xmlns:rdf="http://www.w3.org/1999/02/22-rdf-syntax-ns#">
   <cc:Work>
    <dc:type rdf:resource="http://purl.org/dc/dcmitype/StillImage"/>
    <dc:date>2025-01-15T19:57:18.736122</dc:date>
    <dc:format>image/svg+xml</dc:format>
    <dc:creator>
     <cc:Agent>
      <dc:title>Matplotlib v3.9.2, https://matplotlib.org/</dc:title>
     </cc:Agent>
    </dc:creator>
   </cc:Work>
  </rdf:RDF>
 </metadata>
 <defs>
  <style type="text/css">*{stroke-linejoin: round; stroke-linecap: butt}</style>
 </defs>
 <g id="figure_1">
  <g id="patch_1">
   <path d="M 0 360 
L 1440 360 
L 1440 0 
L 0 0 
z
" style="fill: #ffffff"/>
  </g>
  <g id="axes_1">
   <g id="patch_2">
    <path d="M 180 320.4 
L 422.608696 320.4 
L 422.608696 43.2 
L 180 43.2 
z
" style="fill: #ffffff"/>
   </g>
   <g id="matplotlib.axis_1">
    <g id="xtick_1">
     <g id="line2d_1">
      <defs>
       <path id="m8931e656b8" d="M 0 0 
L 0 3.5 
" style="stroke: #000000; stroke-width: 0.8"/>
      </defs>
      <g>
       <use xlink:href="#m8931e656b8" x="182.637051" y="320.4" style="stroke: #000000; stroke-width: 0.8"/>
      </g>
     </g>
     <g id="text_1">
      <!-- 0 -->
      <g transform="translate(176.910801 341.077187) scale(0.18 -0.18)">
       <defs>
        <path id="DejaVuSans-30" d="M 2034 4250 
Q 1547 4250 1301 3770 
Q 1056 3291 1056 2328 
Q 1056 1369 1301 889 
Q 1547 409 2034 409 
Q 2525 409 2770 889 
Q 3016 1369 3016 2328 
Q 3016 3291 2770 3770 
Q 2525 4250 2034 4250 
z
M 2034 4750 
Q 2819 4750 3233 4129 
Q 3647 3509 3647 2328 
Q 3647 1150 3233 529 
Q 2819 -91 2034 -91 
Q 1250 -91 836 529 
Q 422 1150 422 2328 
Q 422 3509 836 4129 
Q 1250 4750 2034 4750 
z
" transform="scale(0.015625)"/>
       </defs>
       <use xlink:href="#DejaVuSans-30"/>
      </g>
     </g>
    </g>
    <g id="xtick_2">
     <g id="line2d_2">
      <g>
       <use xlink:href="#m8931e656b8" x="209.007561" y="320.4" style="stroke: #000000; stroke-width: 0.8"/>
      </g>
     </g>
     <g id="text_2">
      <!-- 1 -->
      <g transform="translate(203.281311 341.077187) scale(0.18 -0.18)">
       <defs>
        <path id="DejaVuSans-31" d="M 794 531 
L 1825 531 
L 1825 4091 
L 703 3866 
L 703 4441 
L 1819 4666 
L 2450 4666 
L 2450 531 
L 3481 531 
L 3481 0 
L 794 0 
L 794 531 
z
" transform="scale(0.015625)"/>
       </defs>
       <use xlink:href="#DejaVuSans-31"/>
      </g>
     </g>
    </g>
    <g id="xtick_3">
     <g id="line2d_3">
      <g>
       <use xlink:href="#m8931e656b8" x="235.378072" y="320.4" style="stroke: #000000; stroke-width: 0.8"/>
      </g>
     </g>
     <g id="text_3">
      <!-- 2 -->
      <g transform="translate(229.651822 341.077187) scale(0.18 -0.18)">
       <defs>
        <path id="DejaVuSans-32" d="M 1228 531 
L 3431 531 
L 3431 0 
L 469 0 
L 469 531 
Q 828 903 1448 1529 
Q 2069 2156 2228 2338 
Q 2531 2678 2651 2914 
Q 2772 3150 2772 3378 
Q 2772 3750 2511 3984 
Q 2250 4219 1831 4219 
Q 1534 4219 1204 4116 
Q 875 4013 500 3803 
L 500 4441 
Q 881 4594 1212 4672 
Q 1544 4750 1819 4750 
Q 2544 4750 2975 4387 
Q 3406 4025 3406 3419 
Q 3406 3131 3298 2873 
Q 3191 2616 2906 2266 
Q 2828 2175 2409 1742 
Q 1991 1309 1228 531 
z
" transform="scale(0.015625)"/>
       </defs>
       <use xlink:href="#DejaVuSans-32"/>
      </g>
     </g>
    </g>
    <g id="xtick_4">
     <g id="line2d_4">
      <g>
       <use xlink:href="#m8931e656b8" x="261.748582" y="320.4" style="stroke: #000000; stroke-width: 0.8"/>
      </g>
     </g>
     <g id="text_4">
      <!-- 3 -->
      <g transform="translate(256.022332 341.077187) scale(0.18 -0.18)">
       <defs>
        <path id="DejaVuSans-33" d="M 2597 2516 
Q 3050 2419 3304 2112 
Q 3559 1806 3559 1356 
Q 3559 666 3084 287 
Q 2609 -91 1734 -91 
Q 1441 -91 1130 -33 
Q 819 25 488 141 
L 488 750 
Q 750 597 1062 519 
Q 1375 441 1716 441 
Q 2309 441 2620 675 
Q 2931 909 2931 1356 
Q 2931 1769 2642 2001 
Q 2353 2234 1838 2234 
L 1294 2234 
L 1294 2753 
L 1863 2753 
Q 2328 2753 2575 2939 
Q 2822 3125 2822 3475 
Q 2822 3834 2567 4026 
Q 2313 4219 1838 4219 
Q 1578 4219 1281 4162 
Q 984 4106 628 3988 
L 628 4550 
Q 988 4650 1302 4700 
Q 1616 4750 1894 4750 
Q 2613 4750 3031 4423 
Q 3450 4097 3450 3541 
Q 3450 3153 3228 2886 
Q 3006 2619 2597 2516 
z
" transform="scale(0.015625)"/>
       </defs>
       <use xlink:href="#DejaVuSans-33"/>
      </g>
     </g>
    </g>
    <g id="xtick_5">
     <g id="line2d_5">
      <g>
       <use xlink:href="#m8931e656b8" x="288.119093" y="320.4" style="stroke: #000000; stroke-width: 0.8"/>
      </g>
     </g>
     <g id="text_5">
      <!-- 4 -->
      <g transform="translate(282.392843 341.077187) scale(0.18 -0.18)">
       <defs>
        <path id="DejaVuSans-34" d="M 2419 4116 
L 825 1625 
L 2419 1625 
L 2419 4116 
z
M 2253 4666 
L 3047 4666 
L 3047 1625 
L 3713 1625 
L 3713 1100 
L 3047 1100 
L 3047 0 
L 2419 0 
L 2419 1100 
L 313 1100 
L 313 1709 
L 2253 4666 
z
" transform="scale(0.015625)"/>
       </defs>
       <use xlink:href="#DejaVuSans-34"/>
      </g>
     </g>
    </g>
    <g id="xtick_6">
     <g id="line2d_6">
      <g>
       <use xlink:href="#m8931e656b8" x="314.489603" y="320.4" style="stroke: #000000; stroke-width: 0.8"/>
      </g>
     </g>
     <g id="text_6">
      <!-- 5 -->
      <g transform="translate(308.763353 341.077187) scale(0.18 -0.18)">
       <defs>
        <path id="DejaVuSans-35" d="M 691 4666 
L 3169 4666 
L 3169 4134 
L 1269 4134 
L 1269 2991 
Q 1406 3038 1543 3061 
Q 1681 3084 1819 3084 
Q 2600 3084 3056 2656 
Q 3513 2228 3513 1497 
Q 3513 744 3044 326 
Q 2575 -91 1722 -91 
Q 1428 -91 1123 -41 
Q 819 9 494 109 
L 494 744 
Q 775 591 1075 516 
Q 1375 441 1709 441 
Q 2250 441 2565 725 
Q 2881 1009 2881 1497 
Q 2881 1984 2565 2268 
Q 2250 2553 1709 2553 
Q 1456 2553 1204 2497 
Q 953 2441 691 2322 
L 691 4666 
z
" transform="scale(0.015625)"/>
       </defs>
       <use xlink:href="#DejaVuSans-35"/>
      </g>
     </g>
    </g>
    <g id="xtick_7">
     <g id="line2d_7">
      <g>
       <use xlink:href="#m8931e656b8" x="340.860113" y="320.4" style="stroke: #000000; stroke-width: 0.8"/>
      </g>
     </g>
     <g id="text_7">
      <!-- 6 -->
      <g transform="translate(335.133863 341.077187) scale(0.18 -0.18)">
       <defs>
        <path id="DejaVuSans-36" d="M 2113 2584 
Q 1688 2584 1439 2293 
Q 1191 2003 1191 1497 
Q 1191 994 1439 701 
Q 1688 409 2113 409 
Q 2538 409 2786 701 
Q 3034 994 3034 1497 
Q 3034 2003 2786 2293 
Q 2538 2584 2113 2584 
z
M 3366 4563 
L 3366 3988 
Q 3128 4100 2886 4159 
Q 2644 4219 2406 4219 
Q 1781 4219 1451 3797 
Q 1122 3375 1075 2522 
Q 1259 2794 1537 2939 
Q 1816 3084 2150 3084 
Q 2853 3084 3261 2657 
Q 3669 2231 3669 1497 
Q 3669 778 3244 343 
Q 2819 -91 2113 -91 
Q 1303 -91 875 529 
Q 447 1150 447 2328 
Q 447 3434 972 4092 
Q 1497 4750 2381 4750 
Q 2619 4750 2861 4703 
Q 3103 4656 3366 4563 
z
" transform="scale(0.015625)"/>
       </defs>
       <use xlink:href="#DejaVuSans-36"/>
      </g>
     </g>
    </g>
    <g id="xtick_8">
     <g id="line2d_8">
      <g>
       <use xlink:href="#m8931e656b8" x="367.230624" y="320.4" style="stroke: #000000; stroke-width: 0.8"/>
      </g>
     </g>
     <g id="text_8">
      <!-- 7 -->
      <g transform="translate(361.504374 341.077187) scale(0.18 -0.18)">
       <defs>
        <path id="DejaVuSans-37" d="M 525 4666 
L 3525 4666 
L 3525 4397 
L 1831 0 
L 1172 0 
L 2766 4134 
L 525 4134 
L 525 4666 
z
" transform="scale(0.015625)"/>
       </defs>
       <use xlink:href="#DejaVuSans-37"/>
      </g>
     </g>
    </g>
    <g id="xtick_9">
     <g id="line2d_9">
      <g>
       <use xlink:href="#m8931e656b8" x="393.601134" y="320.4" style="stroke: #000000; stroke-width: 0.8"/>
      </g>
     </g>
     <g id="text_9">
      <!-- 8 -->
      <g transform="translate(387.874884 341.077187) scale(0.18 -0.18)">
       <defs>
        <path id="DejaVuSans-38" d="M 2034 2216 
Q 1584 2216 1326 1975 
Q 1069 1734 1069 1313 
Q 1069 891 1326 650 
Q 1584 409 2034 409 
Q 2484 409 2743 651 
Q 3003 894 3003 1313 
Q 3003 1734 2745 1975 
Q 2488 2216 2034 2216 
z
M 1403 2484 
Q 997 2584 770 2862 
Q 544 3141 544 3541 
Q 544 4100 942 4425 
Q 1341 4750 2034 4750 
Q 2731 4750 3128 4425 
Q 3525 4100 3525 3541 
Q 3525 3141 3298 2862 
Q 3072 2584 2669 2484 
Q 3125 2378 3379 2068 
Q 3634 1759 3634 1313 
Q 3634 634 3220 271 
Q 2806 -91 2034 -91 
Q 1263 -91 848 271 
Q 434 634 434 1313 
Q 434 1759 690 2068 
Q 947 2378 1403 2484 
z
M 1172 3481 
Q 1172 3119 1398 2916 
Q 1625 2713 2034 2713 
Q 2441 2713 2670 2916 
Q 2900 3119 2900 3481 
Q 2900 3844 2670 4047 
Q 2441 4250 2034 4250 
Q 1625 4250 1398 4047 
Q 1172 3844 1172 3481 
z
" transform="scale(0.015625)"/>
       </defs>
       <use xlink:href="#DejaVuSans-38"/>
      </g>
     </g>
    </g>
    <g id="xtick_10">
     <g id="line2d_10">
      <g>
       <use xlink:href="#m8931e656b8" x="419.971645" y="320.4" style="stroke: #000000; stroke-width: 0.8"/>
      </g>
     </g>
     <g id="text_10">
      <!-- 9 -->
      <g transform="translate(414.245395 341.077187) scale(0.18 -0.18)">
       <defs>
        <path id="DejaVuSans-39" d="M 703 97 
L 703 672 
Q 941 559 1184 500 
Q 1428 441 1663 441 
Q 2288 441 2617 861 
Q 2947 1281 2994 2138 
Q 2813 1869 2534 1725 
Q 2256 1581 1919 1581 
Q 1219 1581 811 2004 
Q 403 2428 403 3163 
Q 403 3881 828 4315 
Q 1253 4750 1959 4750 
Q 2769 4750 3195 4129 
Q 3622 3509 3622 2328 
Q 3622 1225 3098 567 
Q 2575 -91 1691 -91 
Q 1453 -91 1209 -44 
Q 966 3 703 97 
z
M 1959 2075 
Q 2384 2075 2632 2365 
Q 2881 2656 2881 3163 
Q 2881 3666 2632 3958 
Q 2384 4250 1959 4250 
Q 1534 4250 1286 3958 
Q 1038 3666 1038 3163 
Q 1038 2656 1286 2365 
Q 1534 2075 1959 2075 
z
" transform="scale(0.015625)"/>
       </defs>
       <use xlink:href="#DejaVuSans-39"/>
      </g>
     </g>
    </g>
    <g id="text_11">
     <!-- Time (d) -->
     <g transform="translate(255.327785 365.537188) scale(0.22 -0.22)">
      <defs>
       <path id="DejaVuSans-54" d="M -19 4666 
L 3928 4666 
L 3928 4134 
L 2272 4134 
L 2272 0 
L 1638 0 
L 1638 4134 
L -19 4134 
L -19 4666 
z
" transform="scale(0.015625)"/>
       <path id="DejaVuSans-69" d="M 603 3500 
L 1178 3500 
L 1178 0 
L 603 0 
L 603 3500 
z
M 603 4863 
L 1178 4863 
L 1178 4134 
L 603 4134 
L 603 4863 
z
" transform="scale(0.015625)"/>
       <path id="DejaVuSans-6d" d="M 3328 2828 
Q 3544 3216 3844 3400 
Q 4144 3584 4550 3584 
Q 5097 3584 5394 3201 
Q 5691 2819 5691 2113 
L 5691 0 
L 5113 0 
L 5113 2094 
Q 5113 2597 4934 2840 
Q 4756 3084 4391 3084 
Q 3944 3084 3684 2787 
Q 3425 2491 3425 1978 
L 3425 0 
L 2847 0 
L 2847 2094 
Q 2847 2600 2669 2842 
Q 2491 3084 2119 3084 
Q 1678 3084 1418 2786 
Q 1159 2488 1159 1978 
L 1159 0 
L 581 0 
L 581 3500 
L 1159 3500 
L 1159 2956 
Q 1356 3278 1631 3431 
Q 1906 3584 2284 3584 
Q 2666 3584 2933 3390 
Q 3200 3197 3328 2828 
z
" transform="scale(0.015625)"/>
       <path id="DejaVuSans-65" d="M 3597 1894 
L 3597 1613 
L 953 1613 
Q 991 1019 1311 708 
Q 1631 397 2203 397 
Q 2534 397 2845 478 
Q 3156 559 3463 722 
L 3463 178 
Q 3153 47 2828 -22 
Q 2503 -91 2169 -91 
Q 1331 -91 842 396 
Q 353 884 353 1716 
Q 353 2575 817 3079 
Q 1281 3584 2069 3584 
Q 2775 3584 3186 3129 
Q 3597 2675 3597 1894 
z
M 3022 2063 
Q 3016 2534 2758 2815 
Q 2500 3097 2075 3097 
Q 1594 3097 1305 2825 
Q 1016 2553 972 2059 
L 3022 2063 
z
" transform="scale(0.015625)"/>
       <path id="DejaVuSans-20" transform="scale(0.015625)"/>
       <path id="DejaVuSans-28" d="M 1984 4856 
Q 1566 4138 1362 3434 
Q 1159 2731 1159 2009 
Q 1159 1288 1364 580 
Q 1569 -128 1984 -844 
L 1484 -844 
Q 1016 -109 783 600 
Q 550 1309 550 2009 
Q 550 2706 781 3412 
Q 1013 4119 1484 4856 
L 1984 4856 
z
" transform="scale(0.015625)"/>
       <path id="DejaVuSans-64" d="M 2906 2969 
L 2906 4863 
L 3481 4863 
L 3481 0 
L 2906 0 
L 2906 525 
Q 2725 213 2448 61 
Q 2172 -91 1784 -91 
Q 1150 -91 751 415 
Q 353 922 353 1747 
Q 353 2572 751 3078 
Q 1150 3584 1784 3584 
Q 2172 3584 2448 3432 
Q 2725 3281 2906 2969 
z
M 947 1747 
Q 947 1113 1208 752 
Q 1469 391 1925 391 
Q 2381 391 2643 752 
Q 2906 1113 2906 1747 
Q 2906 2381 2643 2742 
Q 2381 3103 1925 3103 
Q 1469 3103 1208 2742 
Q 947 2381 947 1747 
z
" transform="scale(0.015625)"/>
       <path id="DejaVuSans-29" d="M 513 4856 
L 1013 4856 
Q 1481 4119 1714 3412 
Q 1947 2706 1947 2009 
Q 1947 1309 1714 600 
Q 1481 -109 1013 -844 
L 513 -844 
Q 928 -128 1133 580 
Q 1338 1288 1338 2009 
Q 1338 2731 1133 3434 
Q 928 4138 513 4856 
z
" transform="scale(0.015625)"/>
      </defs>
      <use xlink:href="#DejaVuSans-54"/>
      <use xlink:href="#DejaVuSans-69" x="57.958984"/>
      <use xlink:href="#DejaVuSans-6d" x="85.742188"/>
      <use xlink:href="#DejaVuSans-65" x="183.154297"/>
      <use xlink:href="#DejaVuSans-20" x="244.677734"/>
      <use xlink:href="#DejaVuSans-28" x="276.464844"/>
      <use xlink:href="#DejaVuSans-64" x="315.478516"/>
      <use xlink:href="#DejaVuSans-29" x="378.955078"/>
     </g>
    </g>
   </g>
   <g id="matplotlib.axis_2">
    <g id="ytick_1">
     <g id="line2d_11">
      <defs>
       <path id="m3b41d47274" d="M 0 0 
L -3.5 0 
" style="stroke: #000000; stroke-width: 0.8"/>
      </defs>
      <g>
       <use xlink:href="#m3b41d47274" x="180" y="320.4" style="stroke: #000000; stroke-width: 0.8"/>
      </g>
     </g>
     <g id="text_12">
      <!-- 0 -->
      <g transform="translate(161.5475 327.238594) scale(0.18 -0.18)">
       <use xlink:href="#DejaVuSans-30"/>
      </g>
     </g>
    </g>
    <g id="ytick_2">
     <g id="line2d_12">
      <g>
       <use xlink:href="#m3b41d47274" x="180" y="251.1" style="stroke: #000000; stroke-width: 0.8"/>
      </g>
     </g>
     <g id="text_13">
      <!-- 2 -->
      <g transform="translate(161.5475 257.938594) scale(0.18 -0.18)">
       <use xlink:href="#DejaVuSans-32"/>
      </g>
     </g>
    </g>
    <g id="ytick_3">
     <g id="line2d_13">
      <g>
       <use xlink:href="#m3b41d47274" x="180" y="181.8" style="stroke: #000000; stroke-width: 0.8"/>
      </g>
     </g>
     <g id="text_14">
      <!-- 4 -->
      <g transform="translate(161.5475 188.638594) scale(0.18 -0.18)">
       <use xlink:href="#DejaVuSans-34"/>
      </g>
     </g>
    </g>
    <g id="ytick_4">
     <g id="line2d_14">
      <g>
       <use xlink:href="#m3b41d47274" x="180" y="112.5" style="stroke: #000000; stroke-width: 0.8"/>
      </g>
     </g>
     <g id="text_15">
      <!-- 6 -->
      <g transform="translate(161.5475 119.338594) scale(0.18 -0.18)">
       <use xlink:href="#DejaVuSans-36"/>
      </g>
     </g>
    </g>
    <g id="ytick_5">
     <g id="line2d_15">
      <g>
       <use xlink:href="#m3b41d47274" x="180" y="43.2" style="stroke: #000000; stroke-width: 0.8"/>
      </g>
     </g>
     <g id="text_16">
      <!-- 8 -->
      <g transform="translate(161.5475 50.038594) scale(0.18 -0.18)">
       <use xlink:href="#DejaVuSans-38"/>
      </g>
     </g>
    </g>
    <g id="text_17">
     <!-- Virus (log$_{10}$ copies/mL) -->
     <g transform="translate(152.9275 308.08) rotate(-90) scale(0.22 -0.22)">
      <defs>
       <path id="DejaVuSans-56" d="M 1831 0 
L 50 4666 
L 709 4666 
L 2188 738 
L 3669 4666 
L 4325 4666 
L 2547 0 
L 1831 0 
z
" transform="scale(0.015625)"/>
       <path id="DejaVuSans-72" d="M 2631 2963 
Q 2534 3019 2420 3045 
Q 2306 3072 2169 3072 
Q 1681 3072 1420 2755 
Q 1159 2438 1159 1844 
L 1159 0 
L 581 0 
L 581 3500 
L 1159 3500 
L 1159 2956 
Q 1341 3275 1631 3429 
Q 1922 3584 2338 3584 
Q 2397 3584 2469 3576 
Q 2541 3569 2628 3553 
L 2631 2963 
z
" transform="scale(0.015625)"/>
       <path id="DejaVuSans-75" d="M 544 1381 
L 544 3500 
L 1119 3500 
L 1119 1403 
Q 1119 906 1312 657 
Q 1506 409 1894 409 
Q 2359 409 2629 706 
Q 2900 1003 2900 1516 
L 2900 3500 
L 3475 3500 
L 3475 0 
L 2900 0 
L 2900 538 
Q 2691 219 2414 64 
Q 2138 -91 1772 -91 
Q 1169 -91 856 284 
Q 544 659 544 1381 
z
M 1991 3584 
L 1991 3584 
z
" transform="scale(0.015625)"/>
       <path id="DejaVuSans-73" d="M 2834 3397 
L 2834 2853 
Q 2591 2978 2328 3040 
Q 2066 3103 1784 3103 
Q 1356 3103 1142 2972 
Q 928 2841 928 2578 
Q 928 2378 1081 2264 
Q 1234 2150 1697 2047 
L 1894 2003 
Q 2506 1872 2764 1633 
Q 3022 1394 3022 966 
Q 3022 478 2636 193 
Q 2250 -91 1575 -91 
Q 1294 -91 989 -36 
Q 684 19 347 128 
L 347 722 
Q 666 556 975 473 
Q 1284 391 1588 391 
Q 1994 391 2212 530 
Q 2431 669 2431 922 
Q 2431 1156 2273 1281 
Q 2116 1406 1581 1522 
L 1381 1569 
Q 847 1681 609 1914 
Q 372 2147 372 2553 
Q 372 3047 722 3315 
Q 1072 3584 1716 3584 
Q 2034 3584 2315 3537 
Q 2597 3491 2834 3397 
z
" transform="scale(0.015625)"/>
       <path id="DejaVuSans-6c" d="M 603 4863 
L 1178 4863 
L 1178 0 
L 603 0 
L 603 4863 
z
" transform="scale(0.015625)"/>
       <path id="DejaVuSans-6f" d="M 1959 3097 
Q 1497 3097 1228 2736 
Q 959 2375 959 1747 
Q 959 1119 1226 758 
Q 1494 397 1959 397 
Q 2419 397 2687 759 
Q 2956 1122 2956 1747 
Q 2956 2369 2687 2733 
Q 2419 3097 1959 3097 
z
M 1959 3584 
Q 2709 3584 3137 3096 
Q 3566 2609 3566 1747 
Q 3566 888 3137 398 
Q 2709 -91 1959 -91 
Q 1206 -91 779 398 
Q 353 888 353 1747 
Q 353 2609 779 3096 
Q 1206 3584 1959 3584 
z
" transform="scale(0.015625)"/>
       <path id="DejaVuSans-67" d="M 2906 1791 
Q 2906 2416 2648 2759 
Q 2391 3103 1925 3103 
Q 1463 3103 1205 2759 
Q 947 2416 947 1791 
Q 947 1169 1205 825 
Q 1463 481 1925 481 
Q 2391 481 2648 825 
Q 2906 1169 2906 1791 
z
M 3481 434 
Q 3481 -459 3084 -895 
Q 2688 -1331 1869 -1331 
Q 1566 -1331 1297 -1286 
Q 1028 -1241 775 -1147 
L 775 -588 
Q 1028 -725 1275 -790 
Q 1522 -856 1778 -856 
Q 2344 -856 2625 -561 
Q 2906 -266 2906 331 
L 2906 616 
Q 2728 306 2450 153 
Q 2172 0 1784 0 
Q 1141 0 747 490 
Q 353 981 353 1791 
Q 353 2603 747 3093 
Q 1141 3584 1784 3584 
Q 2172 3584 2450 3431 
Q 2728 3278 2906 2969 
L 2906 3500 
L 3481 3500 
L 3481 434 
z
" transform="scale(0.015625)"/>
       <path id="DejaVuSans-63" d="M 3122 3366 
L 3122 2828 
Q 2878 2963 2633 3030 
Q 2388 3097 2138 3097 
Q 1578 3097 1268 2742 
Q 959 2388 959 1747 
Q 959 1106 1268 751 
Q 1578 397 2138 397 
Q 2388 397 2633 464 
Q 2878 531 3122 666 
L 3122 134 
Q 2881 22 2623 -34 
Q 2366 -91 2075 -91 
Q 1284 -91 818 406 
Q 353 903 353 1747 
Q 353 2603 823 3093 
Q 1294 3584 2113 3584 
Q 2378 3584 2631 3529 
Q 2884 3475 3122 3366 
z
" transform="scale(0.015625)"/>
       <path id="DejaVuSans-70" d="M 1159 525 
L 1159 -1331 
L 581 -1331 
L 581 3500 
L 1159 3500 
L 1159 2969 
Q 1341 3281 1617 3432 
Q 1894 3584 2278 3584 
Q 2916 3584 3314 3078 
Q 3713 2572 3713 1747 
Q 3713 922 3314 415 
Q 2916 -91 2278 -91 
Q 1894 -91 1617 61 
Q 1341 213 1159 525 
z
M 3116 1747 
Q 3116 2381 2855 2742 
Q 2594 3103 2138 3103 
Q 1681 3103 1420 2742 
Q 1159 2381 1159 1747 
Q 1159 1113 1420 752 
Q 1681 391 2138 391 
Q 2594 391 2855 752 
Q 3116 1113 3116 1747 
z
" transform="scale(0.015625)"/>
       <path id="DejaVuSans-2f" d="M 1625 4666 
L 2156 4666 
L 531 -594 
L 0 -594 
L 1625 4666 
z
" transform="scale(0.015625)"/>
       <path id="DejaVuSans-4c" d="M 628 4666 
L 1259 4666 
L 1259 531 
L 3531 531 
L 3531 0 
L 628 0 
L 628 4666 
z
" transform="scale(0.015625)"/>
      </defs>
      <use xlink:href="#DejaVuSans-56" transform="translate(0 0.015625)"/>
      <use xlink:href="#DejaVuSans-69" transform="translate(68.408203 0.015625)"/>
      <use xlink:href="#DejaVuSans-72" transform="translate(96.191406 0.015625)"/>
      <use xlink:href="#DejaVuSans-75" transform="translate(137.304688 0.015625)"/>
      <use xlink:href="#DejaVuSans-73" transform="translate(200.683594 0.015625)"/>
      <use xlink:href="#DejaVuSans-20" transform="translate(252.783203 0.015625)"/>
      <use xlink:href="#DejaVuSans-28" transform="translate(284.570312 0.015625)"/>
      <use xlink:href="#DejaVuSans-6c" transform="translate(323.583984 0.015625)"/>
      <use xlink:href="#DejaVuSans-6f" transform="translate(351.367188 0.015625)"/>
      <use xlink:href="#DejaVuSans-67" transform="translate(412.548828 0.015625)"/>
      <use xlink:href="#DejaVuSans-31" transform="translate(476.982422 -16.390625) scale(0.7)"/>
      <use xlink:href="#DejaVuSans-30" transform="translate(521.518555 -16.390625) scale(0.7)"/>
      <use xlink:href="#DejaVuSans-20" transform="translate(568.789062 0.015625)"/>
      <use xlink:href="#DejaVuSans-63" transform="translate(600.576172 0.015625)"/>
      <use xlink:href="#DejaVuSans-6f" transform="translate(655.556641 0.015625)"/>
      <use xlink:href="#DejaVuSans-70" transform="translate(716.738281 0.015625)"/>
      <use xlink:href="#DejaVuSans-69" transform="translate(780.214844 0.015625)"/>
      <use xlink:href="#DejaVuSans-65" transform="translate(807.998047 0.015625)"/>
      <use xlink:href="#DejaVuSans-73" transform="translate(869.521484 0.015625)"/>
      <use xlink:href="#DejaVuSans-2f" transform="translate(921.621094 0.015625)"/>
      <use xlink:href="#DejaVuSans-6d" transform="translate(955.3125 0.015625)"/>
      <use xlink:href="#DejaVuSans-4c" transform="translate(1052.724609 0.015625)"/>
      <use xlink:href="#DejaVuSans-29" transform="translate(1108.4375 0.015625)"/>
     </g>
    </g>
   </g>
   <g id="patch_3">
    <path d="M 180 320.4 
L 180 43.2 
" style="fill: none; stroke: #000000; stroke-width: 0.8; stroke-linejoin: miter; stroke-linecap: square"/>
   </g>
   <g id="patch_4">
    <path d="M 422.608696 320.4 
L 422.608696 43.2 
" style="fill: none; stroke: #000000; stroke-width: 0.8; stroke-linejoin: miter; stroke-linecap: square"/>
   </g>
   <g id="patch_5">
    <path d="M 180 320.4 
L 422.608696 320.4 
" style="fill: none; stroke: #000000; stroke-width: 0.8; stroke-linejoin: miter; stroke-linecap: square"/>
   </g>
   <g id="patch_6">
    <path d="M 180 43.2 
L 422.608696 43.2 
" style="fill: none; stroke: #000000; stroke-width: 0.8; stroke-linejoin: miter; stroke-linecap: square"/>
   </g>
   <g id="PolyCollection_1">
    <defs>
     <path id="mc4e937d490" d="M 182.637051 -39.6 
L 182.637051 -39.6 
L 182.637348 -39.6 
L 182.64032 -39.6 
L 182.670039 -39.6 
L 182.799469 -39.6 
L 182.8871 -39.6 
L 183.203925 -39.6 
L 183.413338 -39.6 
L 184.10999 -49.510992 
L 184.619 -55.097128 
L 186.217067 -65.354978 
L 187.02149 -68.840981 
L 189.202477 -77.001616 
L 190.194992 -80.454396 
L 192.296028 -87.636874 
L 193.421986 -91.406182 
L 195.488214 -98.154858 
L 196.72968 -102.194237 
L 198.810066 -108.98315 
L 200.138266 -113.305012 
L 202.207427 -120.056828 
L 203.602478 -124.597814 
L 205.664545 -131.222285 
L 207.108002 -135.806279 
L 209.377192 -143.00638 
L 210.795022 -147.507658 
L 212.753194 -153.723028 
L 214.229054 -158.419407 
L 216.362795 -165.179116 
L 217.827556 -169.827518 
L 219.798969 -176.070395 
L 221.296092 -180.823419 
L 223.411254 -187.509075 
L 224.887883 -192.181204 
L 226.849345 -198.360399 
L 228.3551 -203.105687 
L 230.456978 -209.685648 
L 231.954112 -214.349387 
L 233.973864 -220.584683 
L 235.509732 -225.262893 
L 237.698808 -231.825198 
L 239.248213 -236.310098 
L 241.357014 -242.24267 
L 242.949911 -246.427193 
L 245.219907 -252.007631 
L 246.820673 -255.419395 
L 249.295706 -260.062104 
L 250.922235 -262.326109 
L 253.132235 -264.655652 
L 254.796999 -265.134757 
L 257.045622 -264.968341 
L 258.711893 -264.384787 
L 260.99764 -263.189841 
L 262.703374 -261.97786 
L 265.067188 -260.036662 
L 266.851232 -258.4889 
L 269.433182 -256.107042 
L 271.296537 -254.327769 
L 273.909747 -251.638836 
L 276.032296 -249.233018 
L 278.669347 -246.133011 
L 281.306398 -242.932722 
L 283.943449 -239.638415 
L 286.5805 -236.255014 
L 289.217551 -232.766897 
L 291.854602 -229.155477 
L 294.491653 -225.356816 
L 297.128704 -221.298846 
L 299.765755 -216.536013 
L 302.402806 -210.833253 
L 305.039857 -203.380548 
L 307.676908 -191.544018 
L 308.204319 -187.374913 
L 308.731729 -183.205809 
L 308.9886 -179.249754 
L 309.227728 -174.597034 
L 309.526976 -168.562928 
L 309.703152 -164.914804 
L 309.777108 -163.383374 
L 309.825426 -162.382828 
L 309.874276 -161.371274 
L 309.904867 -160.737813 
L 309.906187 -160.710487 
L 309.919384 -160.437221 
L 309.935483 -160.103852 
L 309.962669 -159.540901 
L 309.990253 -158.969708 
L 310.040951 -157.919875 
L 310.119467 -156.294023 
L 310.316096 -152.353399 
L 310.659481 -144.985314 
L 311.033392 -136.660597 
L 311.542765 -123.899449 
L 312.052138 -111.315579 
L 312.663231 -96.0461 
L 313.28522 -80.714931 
L 313.970888 -63.091283 
L 314.656556 -47.021323 
L 315.376045 -39.6 
L 316.119433 -39.6 
L 316.939173 -39.6 
L 317.910071 -39.6 
L 319.111847 -39.6 
L 321.044723 -39.6 
L 323.31341 -39.6 
L 325.950461 -39.6 
L 328.587512 -39.6 
L 331.224563 -39.6 
L 333.861614 -39.6 
L 336.498665 -39.6 
L 339.135716 -39.6 
L 341.772767 -39.6 
L 344.409818 -39.6 
L 347.046869 -39.6 
L 349.683921 -39.6 
L 352.320972 -39.6 
L 354.958023 -39.6 
L 357.595074 -39.6 
L 360.232125 -39.6 
L 362.869176 -39.6 
L 365.506227 -39.6 
L 368.143278 -39.6 
L 370.780329 -39.6 
L 373.41738 -39.6 
L 376.054431 -39.6 
L 378.691482 -39.6 
L 381.328533 -39.6 
L 383.965584 -39.6 
L 386.602635 -39.6 
L 389.239686 -39.6 
L 391.876737 -39.6 
L 394.513788 -39.6 
L 397.150839 -39.6 
L 399.78789 -39.6 
L 402.424941 -39.6 
L 405.061992 -39.6 
L 407.699043 -39.6 
L 410.336094 -39.6 
L 412.973145 -39.6 
L 415.610197 -39.6 
L 418.247248 -39.6 
L 419.971645 -39.6 
L 419.971645 -39.6 
L 419.971645 -39.6 
L 418.247248 -39.6 
L 415.610197 -39.6 
L 412.973145 -39.6 
L 410.336094 -39.6 
L 407.699043 -39.6 
L 405.061992 -39.6 
L 402.424941 -39.6 
L 399.78789 -39.6 
L 397.150839 -39.6 
L 394.513788 -39.6 
L 391.876737 -39.6 
L 389.239686 -39.6 
L 386.602635 -39.6 
L 383.965584 -39.6 
L 381.328533 -39.6 
L 378.691482 -39.6 
L 376.054431 -39.6 
L 373.41738 -39.6 
L 370.780329 -39.6 
L 368.143278 -39.6 
L 365.506227 -39.6 
L 362.869176 -39.6 
L 360.232125 -39.6 
L 357.595074 -39.6 
L 354.958023 -39.6 
L 352.320972 -39.6 
L 349.683921 -39.6 
L 347.046869 -39.6 
L 344.409818 -39.6 
L 341.772767 -39.6 
L 339.135716 -39.6 
L 336.498665 -39.6 
L 333.861614 -39.6 
L 331.224563 -39.6 
L 328.587512 -39.6 
L 325.950461 -39.6 
L 323.31341 -41.676218 
L 321.044723 -47.32104 
L 319.111847 -52.729066 
L 317.910071 -56.760085 
L 316.939173 -61.160155 
L 316.119433 -66.706687 
L 315.376045 -73.807804 
L 314.656556 -83.68877 
L 313.970888 -97.094711 
L 313.28522 -110.607803 
L 312.663231 -123.915726 
L 312.052138 -139.435517 
L 311.542765 -152.168784 
L 311.033392 -164.861958 
L 310.659481 -173.97301 
L 310.316096 -180.810952 
L 310.119467 -184.148429 
L 310.040951 -185.283293 
L 309.990253 -186.016089 
L 309.962669 -186.414788 
L 309.935483 -186.807735 
L 309.919384 -187.040431 
L 309.906187 -187.231173 
L 309.904867 -187.250247 
L 309.874276 -187.69241 
L 309.825426 -188.398488 
L 309.777108 -188.924142 
L 309.703152 -189.690491 
L 309.526976 -191.516064 
L 309.227728 -194.34341 
L 308.9886 -195.802227 
L 308.731729 -197.690699 
L 308.204319 -200.700867 
L 307.676908 -203.804282 
L 305.039857 -213.583605 
L 302.402806 -220.316312 
L 299.765755 -225.282412 
L 297.128704 -229.475477 
L 294.491653 -233.146242 
L 291.854602 -236.554797 
L 289.217551 -239.794098 
L 286.5805 -242.890293 
L 283.943449 -245.917086 
L 281.306398 -249.061189 
L 278.669347 -252.094669 
L 276.032296 -255.021413 
L 273.909747 -257.290238 
L 271.296537 -259.954651 
L 269.433182 -261.737729 
L 266.851232 -264.060017 
L 265.067188 -265.48506 
L 262.703374 -267.025699 
L 260.99764 -268.036187 
L 258.711893 -269.169008 
L 257.045622 -269.652468 
L 254.796999 -269.867468 
L 253.132235 -269.505397 
L 250.922235 -268.764771 
L 249.295706 -267.804185 
L 246.820673 -265.863644 
L 245.219907 -264.273085 
L 242.949911 -260.707088 
L 241.357014 -257.688939 
L 239.248213 -252.666795 
L 237.698808 -248.585544 
L 235.509732 -242.117709 
L 233.973864 -237.346391 
L 231.954112 -230.738741 
L 230.456978 -225.722041 
L 228.3551 -218.516068 
L 226.849345 -213.293896 
L 224.887883 -206.432497 
L 223.411254 -201.239563 
L 221.296092 -193.766529 
L 219.798969 -188.463765 
L 217.827556 -181.474173 
L 216.362795 -176.276314 
L 214.229054 -168.690151 
L 212.753194 -163.444051 
L 210.795022 -156.482438 
L 209.377192 -151.445226 
L 207.108002 -143.357843 
L 205.664545 -138.22434 
L 203.602478 -130.882672 
L 202.207427 -125.926217 
L 200.138266 -118.64473 
L 198.810066 -114.092913 
L 196.72968 -106.93034 
L 195.488214 -102.676963 
L 193.421986 -95.561914 
L 192.296028 -91.701449 
L 190.194992 -84.508214 
L 189.202477 -81.037721 
L 187.02149 -72.944569 
L 186.217067 -69.225658 
L 184.619 -58.349882 
L 184.10999 -51.975335 
L 183.413338 -40.089358 
L 183.203925 -39.6 
L 182.8871 -39.6 
L 182.799469 -39.6 
L 182.670039 -39.6 
L 182.64032 -39.6 
L 182.637348 -39.6 
L 182.637051 -39.6 
z
" style="stroke: #daa520; stroke-opacity: 0.2"/>
    </defs>
    <g clip-path="url(#pe69d8c629a)">
     <use xlink:href="#mc4e937d490" x="0" y="360" style="fill: #daa520; fill-opacity: 0.2; stroke: #daa520; stroke-opacity: 0.2"/>
    </g>
   </g>
   <g id="PathCollection_1">
    <defs>
     <path id="m4451b9e256" d="M 0 4.330127 
C 1.148363 4.330127 2.249847 3.873878 3.061862 3.061862 
C 3.873878 2.249847 4.330127 1.148363 4.330127 0 
C 4.330127 -1.148363 3.873878 -2.249847 3.061862 -3.061862 
C 2.249847 -3.873878 1.148363 -4.330127 0 -4.330127 
C -1.148363 -4.330127 -2.249847 -3.873878 -3.061862 -3.061862 
C -3.873878 -2.249847 -4.330127 -1.148363 -4.330127 0 
C -4.330127 1.148363 -3.873878 2.249847 -3.061862 3.061862 
C -2.249847 3.873878 -1.148363 4.330127 0 4.330127 
z
" style="stroke: #000000; stroke-opacity: 0.8"/>
    </defs>
    <g clip-path="url(#pe69d8c629a)">
     <use xlink:href="#m4451b9e256" x="182.637051" y="320.4" style="fill-opacity: 0.8; stroke: #000000; stroke-opacity: 0.8"/>
     <use xlink:href="#m4451b9e256" x="209.007561" y="187.90081" style="fill-opacity: 0.8; stroke: #000000; stroke-opacity: 0.8"/>
     <use xlink:href="#m4451b9e256" x="235.378072" y="139.058831" style="fill-opacity: 0.8; stroke: #000000; stroke-opacity: 0.8"/>
     <use xlink:href="#m4451b9e256" x="261.748582" y="116.117139" style="fill-opacity: 0.8; stroke: #000000; stroke-opacity: 0.8"/>
     <use xlink:href="#m4451b9e256" x="288.119093" y="107.460362" style="fill-opacity: 0.8; stroke: #000000; stroke-opacity: 0.8"/>
     <use xlink:href="#m4451b9e256" x="314.489603" y="235.39252" style="fill-opacity: 0.8; stroke: #000000; stroke-opacity: 0.8"/>
     <use xlink:href="#m4451b9e256" x="340.860113" y="320.4" style="fill-opacity: 0.8; stroke: #000000; stroke-opacity: 0.8"/>
     <use xlink:href="#m4451b9e256" x="367.230624" y="320.4" style="fill-opacity: 0.8; stroke: #000000; stroke-opacity: 0.8"/>
    </g>
   </g>
   <g id="PathCollection_2">
    <defs>
     <path id="mfe5a80a389" d="M 0 4.330127 
C 1.148363 4.330127 2.249847 3.873878 3.061862 3.061862 
C 3.873878 2.249847 4.330127 1.148363 4.330127 0 
C 4.330127 -1.148363 3.873878 -2.249847 3.061862 -3.061862 
C 2.249847 -3.873878 1.148363 -4.330127 0 -4.330127 
C -1.148363 -4.330127 -2.249847 -3.873878 -3.061862 -3.061862 
C -3.873878 -2.249847 -4.330127 -1.148363 -4.330127 0 
C -4.330127 1.148363 -3.873878 2.249847 -3.061862 3.061862 
C -2.249847 3.873878 -1.148363 4.330127 0 4.330127 
z
" style="stroke: #daa520; stroke-opacity: 0.8"/>
    </defs>
    <g clip-path="url(#pe69d8c629a)">
     <use xlink:href="#mfe5a80a389" x="182.637051" y="320.4" style="fill: #daa520; fill-opacity: 0.8; stroke: #daa520; stroke-opacity: 0.8"/>
     <use xlink:href="#mfe5a80a389" x="209.007561" y="187.90081" style="fill: #daa520; fill-opacity: 0.8; stroke: #daa520; stroke-opacity: 0.8"/>
     <use xlink:href="#mfe5a80a389" x="235.378072" y="139.058831" style="fill: #daa520; fill-opacity: 0.8; stroke: #daa520; stroke-opacity: 0.8"/>
     <use xlink:href="#mfe5a80a389" x="261.748582" y="116.117139" style="fill: #daa520; fill-opacity: 0.8; stroke: #daa520; stroke-opacity: 0.8"/>
     <use xlink:href="#mfe5a80a389" x="288.119093" y="107.460362" style="fill: #daa520; fill-opacity: 0.8; stroke: #daa520; stroke-opacity: 0.8"/>
     <use xlink:href="#mfe5a80a389" x="314.489603" y="235.39252" style="fill: #daa520; fill-opacity: 0.8; stroke: #daa520; stroke-opacity: 0.8"/>
     <use xlink:href="#mfe5a80a389" x="340.860113" y="320.4" style="fill: #daa520; fill-opacity: 0.8; stroke: #daa520; stroke-opacity: 0.8"/>
     <use xlink:href="#mfe5a80a389" x="367.230624" y="320.4" style="fill: #daa520; fill-opacity: 0.8; stroke: #daa520; stroke-opacity: 0.8"/>
    </g>
   </g>
   <g id="line2d_16">
    <path d="M 182.637051 320.4 
L 183.413338 320.4 
L 184.10999 309.183022 
L 184.619 303.321355 
L 186.217067 292.836138 
L 187.02149 289.29481 
L 190.194992 277.689397 
L 203.602478 232.03246 
L 226.849345 153.152175 
L 233.973864 129.718207 
L 237.698808 118.281124 
L 239.248213 113.864425 
L 241.357014 108.319148 
L 242.949911 104.577561 
L 245.219907 100.067782 
L 246.820673 97.518716 
L 249.295706 94.674597 
L 250.922235 93.485364 
L 253.132235 92.646453 
L 254.796999 92.517386 
L 257.045622 92.890029 
L 258.711893 93.49483 
L 260.99764 94.669621 
L 262.703374 95.756258 
L 265.067188 97.486091 
L 266.851232 98.932118 
L 271.296537 102.914996 
L 276.032296 107.58016 
L 281.306398 113.125615 
L 286.5805 118.984906 
L 291.854602 125.262576 
L 294.491653 128.667562 
L 297.128704 132.376504 
L 299.765755 136.574034 
L 302.402806 141.609358 
L 305.039857 148.257144 
L 307.676908 158.907267 
L 308.204319 162.189081 
L 308.9886 168.794672 
L 309.526976 175.73584 
L 310.040951 186.548494 
L 315.376045 314.623717 
L 316.119433 320.4 
L 419.971645 320.4 
L 419.971645 320.4 
" clip-path="url(#pe69d8c629a)" style="fill: none; stroke: #daa520; stroke-width: 1.5; stroke-linecap: square"/>
   </g>
  </g>
  <g id="axes_2">
   <g id="patch_7">
    <path d="M 471.130435 320.4 
L 713.73913 320.4 
L 713.73913 43.2 
L 471.130435 43.2 
z
" style="fill: #ffffff"/>
   </g>
   <g id="matplotlib.axis_3">
    <g id="xtick_11">
     <g id="line2d_17">
      <g>
       <use xlink:href="#m8931e656b8" x="473.767486" y="320.4" style="stroke: #000000; stroke-width: 0.8"/>
      </g>
     </g>
     <g id="text_18">
      <!-- 0 -->
      <g transform="translate(468.041236 341.077187) scale(0.18 -0.18)">
       <use xlink:href="#DejaVuSans-30"/>
      </g>
     </g>
    </g>
    <g id="xtick_12">
     <g id="line2d_18">
      <g>
       <use xlink:href="#m8931e656b8" x="500.137996" y="320.4" style="stroke: #000000; stroke-width: 0.8"/>
      </g>
     </g>
     <g id="text_19">
      <!-- 1 -->
      <g transform="translate(494.411746 341.077187) scale(0.18 -0.18)">
       <use xlink:href="#DejaVuSans-31"/>
      </g>
     </g>
    </g>
    <g id="xtick_13">
     <g id="line2d_19">
      <g>
       <use xlink:href="#m8931e656b8" x="526.508507" y="320.4" style="stroke: #000000; stroke-width: 0.8"/>
      </g>
     </g>
     <g id="text_20">
      <!-- 2 -->
      <g transform="translate(520.782257 341.077187) scale(0.18 -0.18)">
       <use xlink:href="#DejaVuSans-32"/>
      </g>
     </g>
    </g>
    <g id="xtick_14">
     <g id="line2d_20">
      <g>
       <use xlink:href="#m8931e656b8" x="552.879017" y="320.4" style="stroke: #000000; stroke-width: 0.8"/>
      </g>
     </g>
     <g id="text_21">
      <!-- 3 -->
      <g transform="translate(547.152767 341.077187) scale(0.18 -0.18)">
       <use xlink:href="#DejaVuSans-33"/>
      </g>
     </g>
    </g>
    <g id="xtick_15">
     <g id="line2d_21">
      <g>
       <use xlink:href="#m8931e656b8" x="579.249527" y="320.4" style="stroke: #000000; stroke-width: 0.8"/>
      </g>
     </g>
     <g id="text_22">
      <!-- 4 -->
      <g transform="translate(573.523277 341.077187) scale(0.18 -0.18)">
       <use xlink:href="#DejaVuSans-34"/>
      </g>
     </g>
    </g>
    <g id="xtick_16">
     <g id="line2d_22">
      <g>
       <use xlink:href="#m8931e656b8" x="605.620038" y="320.4" style="stroke: #000000; stroke-width: 0.8"/>
      </g>
     </g>
     <g id="text_23">
      <!-- 5 -->
      <g transform="translate(599.893788 341.077187) scale(0.18 -0.18)">
       <use xlink:href="#DejaVuSans-35"/>
      </g>
     </g>
    </g>
    <g id="xtick_17">
     <g id="line2d_23">
      <g>
       <use xlink:href="#m8931e656b8" x="631.990548" y="320.4" style="stroke: #000000; stroke-width: 0.8"/>
      </g>
     </g>
     <g id="text_24">
      <!-- 6 -->
      <g transform="translate(626.264298 341.077187) scale(0.18 -0.18)">
       <use xlink:href="#DejaVuSans-36"/>
      </g>
     </g>
    </g>
    <g id="xtick_18">
     <g id="line2d_24">
      <g>
       <use xlink:href="#m8931e656b8" x="658.361059" y="320.4" style="stroke: #000000; stroke-width: 0.8"/>
      </g>
     </g>
     <g id="text_25">
      <!-- 7 -->
      <g transform="translate(652.634809 341.077187) scale(0.18 -0.18)">
       <use xlink:href="#DejaVuSans-37"/>
      </g>
     </g>
    </g>
    <g id="xtick_19">
     <g id="line2d_25">
      <g>
       <use xlink:href="#m8931e656b8" x="684.731569" y="320.4" style="stroke: #000000; stroke-width: 0.8"/>
      </g>
     </g>
     <g id="text_26">
      <!-- 8 -->
      <g transform="translate(679.005319 341.077187) scale(0.18 -0.18)">
       <use xlink:href="#DejaVuSans-38"/>
      </g>
     </g>
    </g>
    <g id="xtick_20">
     <g id="line2d_26">
      <g>
       <use xlink:href="#m8931e656b8" x="711.102079" y="320.4" style="stroke: #000000; stroke-width: 0.8"/>
      </g>
     </g>
     <g id="text_27">
      <!-- 9 -->
      <g transform="translate(705.375829 341.077187) scale(0.18 -0.18)">
       <use xlink:href="#DejaVuSans-39"/>
      </g>
     </g>
    </g>
    <g id="text_28">
     <!-- Time (d) -->
     <g transform="translate(546.45822 365.537188) scale(0.22 -0.22)">
      <use xlink:href="#DejaVuSans-54"/>
      <use xlink:href="#DejaVuSans-69" x="57.958984"/>
      <use xlink:href="#DejaVuSans-6d" x="85.742188"/>
      <use xlink:href="#DejaVuSans-65" x="183.154297"/>
      <use xlink:href="#DejaVuSans-20" x="244.677734"/>
      <use xlink:href="#DejaVuSans-28" x="276.464844"/>
      <use xlink:href="#DejaVuSans-64" x="315.478516"/>
      <use xlink:href="#DejaVuSans-29" x="378.955078"/>
     </g>
    </g>
   </g>
   <g id="matplotlib.axis_4">
    <g id="ytick_6">
     <g id="line2d_27">
      <g>
       <use xlink:href="#m3b41d47274" x="471.130435" y="320.4" style="stroke: #000000; stroke-width: 0.8"/>
      </g>
     </g>
     <g id="text_29">
      <!-- 3 -->
      <g transform="translate(452.677935 327.238594) scale(0.18 -0.18)">
       <use xlink:href="#DejaVuSans-33"/>
      </g>
     </g>
    </g>
    <g id="ytick_7">
     <g id="line2d_28">
      <g>
       <use xlink:href="#m3b41d47274" x="471.130435" y="258.8" style="stroke: #000000; stroke-width: 0.8"/>
      </g>
     </g>
     <g id="text_30">
      <!-- 4 -->
      <g transform="translate(452.677935 265.638594) scale(0.18 -0.18)">
       <use xlink:href="#DejaVuSans-34"/>
      </g>
     </g>
    </g>
    <g id="ytick_8">
     <g id="line2d_29">
      <g>
       <use xlink:href="#m3b41d47274" x="471.130435" y="197.2" style="stroke: #000000; stroke-width: 0.8"/>
      </g>
     </g>
     <g id="text_31">
      <!-- 5 -->
      <g transform="translate(452.677935 204.038594) scale(0.18 -0.18)">
       <use xlink:href="#DejaVuSans-35"/>
      </g>
     </g>
    </g>
    <g id="ytick_9">
     <g id="line2d_30">
      <g>
       <use xlink:href="#m3b41d47274" x="471.130435" y="135.6" style="stroke: #000000; stroke-width: 0.8"/>
      </g>
     </g>
     <g id="text_32">
      <!-- 6 -->
      <g transform="translate(452.677935 142.438594) scale(0.18 -0.18)">
       <use xlink:href="#DejaVuSans-36"/>
      </g>
     </g>
    </g>
    <g id="ytick_10">
     <g id="line2d_31">
      <g>
       <use xlink:href="#m3b41d47274" x="471.130435" y="74" style="stroke: #000000; stroke-width: 0.8"/>
      </g>
     </g>
     <g id="text_33">
      <!-- 7 -->
      <g transform="translate(452.677935 80.838594) scale(0.18 -0.18)">
       <use xlink:href="#DejaVuSans-37"/>
      </g>
     </g>
    </g>
    <g id="text_34">
     <!-- CD8$^+$ T (log$_{10}$ cells) -->
     <g transform="translate(444.057935 292.24) rotate(-90) scale(0.22 -0.22)">
      <defs>
       <path id="DejaVuSans-43" d="M 4122 4306 
L 4122 3641 
Q 3803 3938 3442 4084 
Q 3081 4231 2675 4231 
Q 1875 4231 1450 3742 
Q 1025 3253 1025 2328 
Q 1025 1406 1450 917 
Q 1875 428 2675 428 
Q 3081 428 3442 575 
Q 3803 722 4122 1019 
L 4122 359 
Q 3791 134 3420 21 
Q 3050 -91 2638 -91 
Q 1578 -91 968 557 
Q 359 1206 359 2328 
Q 359 3453 968 4101 
Q 1578 4750 2638 4750 
Q 3056 4750 3426 4639 
Q 3797 4528 4122 4306 
z
" transform="scale(0.015625)"/>
       <path id="DejaVuSans-44" d="M 1259 4147 
L 1259 519 
L 2022 519 
Q 2988 519 3436 956 
Q 3884 1394 3884 2338 
Q 3884 3275 3436 3711 
Q 2988 4147 2022 4147 
L 1259 4147 
z
M 628 4666 
L 1925 4666 
Q 3281 4666 3915 4102 
Q 4550 3538 4550 2338 
Q 4550 1131 3912 565 
Q 3275 0 1925 0 
L 628 0 
L 628 4666 
z
" transform="scale(0.015625)"/>
       <path id="DejaVuSans-2b" d="M 2944 4013 
L 2944 2272 
L 4684 2272 
L 4684 1741 
L 2944 1741 
L 2944 0 
L 2419 0 
L 2419 1741 
L 678 1741 
L 678 2272 
L 2419 2272 
L 2419 4013 
L 2944 4013 
z
" transform="scale(0.015625)"/>
      </defs>
      <use xlink:href="#DejaVuSans-43" transform="translate(0 0.826562)"/>
      <use xlink:href="#DejaVuSans-44" transform="translate(69.824219 0.826562)"/>
      <use xlink:href="#DejaVuSans-38" transform="translate(146.826172 0.826562)"/>
      <use xlink:href="#DejaVuSans-2b" transform="translate(225.043945 39.107812) scale(0.7)"/>
      <use xlink:href="#DejaVuSans-20" transform="translate(300.068359 0.826562)"/>
      <use xlink:href="#DejaVuSans-54" transform="translate(331.855469 0.826562)"/>
      <use xlink:href="#DejaVuSans-20" transform="translate(392.939453 0.826562)"/>
      <use xlink:href="#DejaVuSans-28" transform="translate(424.726562 0.826562)"/>
      <use xlink:href="#DejaVuSans-6c" transform="translate(463.740234 0.826562)"/>
      <use xlink:href="#DejaVuSans-6f" transform="translate(491.523438 0.826562)"/>
      <use xlink:href="#DejaVuSans-67" transform="translate(552.705078 0.826562)"/>
      <use xlink:href="#DejaVuSans-31" transform="translate(617.138672 -15.579688) scale(0.7)"/>
      <use xlink:href="#DejaVuSans-30" transform="translate(661.674805 -15.579688) scale(0.7)"/>
      <use xlink:href="#DejaVuSans-20" transform="translate(708.945312 0.826562)"/>
      <use xlink:href="#DejaVuSans-63" transform="translate(740.732422 0.826562)"/>
      <use xlink:href="#DejaVuSans-65" transform="translate(795.712891 0.826562)"/>
      <use xlink:href="#DejaVuSans-6c" transform="translate(857.236328 0.826562)"/>
      <use xlink:href="#DejaVuSans-6c" transform="translate(885.019531 0.826562)"/>
      <use xlink:href="#DejaVuSans-73" transform="translate(912.802734 0.826562)"/>
      <use xlink:href="#DejaVuSans-29" transform="translate(964.902344 0.826562)"/>
     </g>
    </g>
   </g>
   <g id="patch_8">
    <path d="M 471.130435 320.4 
L 471.130435 43.2 
" style="fill: none; stroke: #000000; stroke-width: 0.8; stroke-linejoin: miter; stroke-linecap: square"/>
   </g>
   <g id="patch_9">
    <path d="M 713.73913 320.4 
L 713.73913 43.2 
" style="fill: none; stroke: #000000; stroke-width: 0.8; stroke-linejoin: miter; stroke-linecap: square"/>
   </g>
   <g id="patch_10">
    <path d="M 471.130435 320.4 
L 713.73913 320.4 
" style="fill: none; stroke: #000000; stroke-width: 0.8; stroke-linejoin: miter; stroke-linecap: square"/>
   </g>
   <g id="patch_11">
    <path d="M 471.130435 43.2 
L 713.73913 43.2 
" style="fill: none; stroke: #000000; stroke-width: 0.8; stroke-linejoin: miter; stroke-linecap: square"/>
   </g>
   <g id="PolyCollection_2">
    <defs>
     <path id="mae3ea2db09" d="M 473.767486 -160.532923 
L 473.767486 -160.532923 
L 473.767783 -160.532923 
L 473.770755 -160.532923 
L 473.800474 -160.532923 
L 473.929904 -160.532923 
L 474.017535 -160.532923 
L 474.33436 -160.532923 
L 474.543773 -160.532923 
L 475.240425 -160.532923 
L 475.749435 -160.532923 
L 477.347502 -160.532923 
L 478.151925 -160.532923 
L 480.332911 -160.532923 
L 481.325426 -160.532923 
L 483.426463 -160.532923 
L 484.552421 -160.532923 
L 486.618649 -160.532923 
L 487.860115 -160.532923 
L 489.940501 -160.532923 
L 491.268701 -160.532923 
L 493.337862 -160.532923 
L 494.732913 -160.532923 
L 496.79498 -160.532924 
L 498.238437 -160.532924 
L 500.507627 -160.532924 
L 501.925457 -160.532924 
L 503.883629 -160.532924 
L 505.359488 -160.532924 
L 507.493229 -160.532925 
L 508.957991 -160.532925 
L 510.929404 -160.532927 
L 512.426527 -160.532929 
L 514.541689 -160.532933 
L 516.018318 -160.532938 
L 517.97978 -160.532947 
L 519.485535 -160.532958 
L 521.587413 -160.532981 
L 523.084547 -160.533005 
L 525.104298 -160.533056 
L 526.640167 -160.533111 
L 528.829243 -160.533237 
L 530.378648 -160.533365 
L 532.487449 -160.533643 
L 534.080345 -160.533944 
L 536.350341 -160.534647 
L 537.951108 -160.535358 
L 540.426141 -160.537234 
L 542.052669 -160.539005 
L 544.26267 -160.542973 
L 545.927434 -160.547235 
L 548.176056 -160.55664 
L 549.842328 -160.566431 
L 552.128075 -160.588368 
L 553.833809 -160.610954 
L 556.197623 -160.66209 
L 557.981667 -160.713873 
L 560.563616 -160.836963 
L 562.426972 -160.955023 
L 565.040182 -161.212679 
L 567.162731 -161.499395 
L 569.799782 -162.004079 
L 572.436833 -162.696689 
L 575.073884 -163.617298 
L 577.710935 -164.793609 
L 580.347986 -166.238856 
L 582.985037 -167.947936 
L 585.622088 -169.89659 
L 588.259139 -172.01399 
L 590.89619 -174.223598 
L 593.533241 -176.496875 
L 596.170292 -178.776859 
L 598.807343 -181.012032 
L 599.334753 -181.448186 
L 599.862164 -181.88434 
L 600.119034 -182.096766 
L 600.358163 -182.294518 
L 600.657411 -182.541989 
L 600.833587 -182.684118 
L 600.907543 -182.743659 
L 600.955861 -182.782486 
L 601.004711 -182.821694 
L 601.035302 -182.846226 
L 601.036622 -182.847284 
L 601.049818 -182.857859 
L 601.065917 -182.870758 
L 601.093103 -182.89253 
L 601.120688 -182.914611 
L 601.171386 -182.955147 
L 601.249902 -183.017835 
L 601.44653 -183.173629 
L 601.789916 -183.445049 
L 602.163827 -183.739359 
L 602.6732 -184.132635 
L 603.182573 -184.524713 
L 603.793666 -184.983625 
L 604.415655 -185.446444 
L 605.101323 -185.94208 
L 605.786991 -186.432087 
L 606.50648 -186.929034 
L 607.249867 -187.432727 
L 608.069608 -187.971211 
L 609.040506 -188.583514 
L 610.242281 -189.315621 
L 612.175158 -190.386128 
L 614.443845 -191.553803 
L 617.080896 -192.712312 
L 619.717947 -193.593906 
L 622.354998 -193.446238 
L 624.992049 -193.098308 
L 627.6291 -192.564914 
L 630.266151 -191.861609 
L 632.903202 -191.004541 
L 635.540253 -190.010323 
L 638.177304 -188.895937 
L 640.814355 -187.678631 
L 643.451406 -186.375826 
L 646.088457 -185.005001 
L 648.725508 -183.583561 
L 651.362559 -182.128676 
L 653.999611 -180.657096 
L 656.636662 -179.184941 
L 659.273713 -177.727471 
L 661.910764 -176.298845 
L 664.547815 -174.911886 
L 667.184866 -173.577867 
L 669.821917 -172.306334 
L 672.458968 -171.104976 
L 675.096019 -169.979563 
L 677.73307 -168.933949 
L 680.370121 -167.970149 
L 683.007172 -167.088473 
L 685.644223 -166.287722 
L 688.281274 -165.565408 
L 690.918325 -164.918007 
L 693.555376 -164.341207 
L 696.192427 -163.830151 
L 698.829478 -163.379655 
L 701.466529 -162.984404 
L 704.10358 -162.639107 
L 706.740631 -162.338625 
L 709.377682 -162.077994 
L 711.102079 -161.926936 
L 711.102079 -192.402615 
L 711.102079 -192.402615 
L 709.377682 -192.912722 
L 706.740631 -193.69761 
L 704.10358 -194.489368 
L 701.466529 -195.287177 
L 698.829478 -196.09009 
L 696.192427 -196.897014 
L 693.555376 -197.706682 
L 690.918325 -198.517635 
L 688.281274 -199.328195 
L 685.644223 -200.136436 
L 683.007172 -200.940157 
L 680.370121 -201.736848 
L 677.73307 -202.523665 
L 675.096019 -203.297395 
L 672.458968 -204.054424 
L 669.821917 -204.79071 
L 667.184866 -205.501751 
L 664.547815 -206.182562 
L 661.910764 -206.827649 
L 659.273713 -207.430993 
L 656.636662 -207.986028 
L 653.999611 -208.485635 
L 651.362559 -208.922139 
L 648.725508 -209.287302 
L 646.088457 -209.572338 
L 643.451406 -209.767926 
L 640.814355 -209.864237 
L 638.177304 -209.850969 
L 635.540253 -209.717396 
L 632.903202 -209.452437 
L 630.266151 -209.044746 
L 627.6291 -208.591739 
L 624.992049 -208.136231 
L 622.354998 -207.506354 
L 619.717947 -206.689882 
L 617.080896 -205.675055 
L 614.443845 -204.453382 
L 612.175158 -203.228114 
L 610.242281 -202.196524 
L 609.040506 -201.520782 
L 608.069608 -200.94024 
L 607.249867 -200.425776 
L 606.50648 -199.938756 
L 605.786991 -199.449323 
L 605.101323 -198.965807 
L 604.415655 -198.466491 
L 603.793666 -197.998999 
L 603.182573 -197.526425 
L 602.6732 -197.122895 
L 602.163827 -196.709911 
L 601.789916 -196.401673 
L 601.44653 -196.114408 
L 601.249902 -195.947937 
L 601.171386 -195.881097 
L 601.120688 -195.837744 
L 601.093103 -195.814156 
L 601.065917 -195.790909 
L 601.049818 -195.777142 
L 601.036622 -195.765858 
L 601.035302 -195.764729 
L 601.004711 -195.738509 
L 600.955861 -195.696167 
L 600.907543 -195.654285 
L 600.833587 -195.590182 
L 600.657411 -195.437477 
L 600.358163 -195.171759 
L 600.119034 -194.95231 
L 599.862164 -194.716579 
L 599.334753 -194.232573 
L 598.807343 -193.748567 
L 596.170292 -191.199985 
L 593.533241 -188.453397 
L 590.89619 -185.53898 
L 588.259139 -182.510125 
L 585.622088 -179.441392 
L 582.985037 -176.575133 
L 580.347986 -173.858667 
L 577.710935 -171.280394 
L 575.073884 -168.91365 
L 572.436833 -166.86101 
L 569.799782 -165.15392 
L 567.162731 -163.771854 
L 565.040182 -162.880587 
L 562.426972 -162.08996 
L 560.563616 -161.64818 
L 557.981667 -161.23984 
L 556.197623 -161.025963 
L 553.833809 -160.844684 
L 552.128075 -160.748069 
L 549.842328 -160.667261 
L 548.176056 -160.624761 
L 545.927434 -160.589657 
L 544.26267 -160.571274 
L 542.052669 -160.556531 
L 540.426141 -160.548884 
L 537.951108 -160.542165 
L 536.350341 -160.539148 
L 534.080345 -160.536659 
L 532.487449 -160.535461 
L 530.378648 -160.534501 
L 528.829243 -160.534011 
L 526.640167 -160.53358 
L 525.104298 -160.533397 
L 523.084547 -160.533219 
L 521.587413 -160.533137 
L 519.485535 -160.533053 
L 517.97978 -160.533016 
L 516.018318 -160.53298 
L 514.541689 -160.532964 
L 512.426527 -160.532947 
L 510.929404 -160.532939 
L 508.957991 -160.532933 
L 507.493229 -160.53293 
L 505.359488 -160.532927 
L 503.883629 -160.532925 
L 501.925457 -160.532925 
L 500.507627 -160.532924 
L 498.238437 -160.532924 
L 496.79498 -160.532924 
L 494.732913 -160.532924 
L 493.337862 -160.532924 
L 491.268701 -160.532923 
L 489.940501 -160.532923 
L 487.860115 -160.532923 
L 486.618649 -160.532923 
L 484.552421 -160.532923 
L 483.426463 -160.532923 
L 481.325426 -160.532923 
L 480.332911 -160.532923 
L 478.151925 -160.532923 
L 477.347502 -160.532923 
L 475.749435 -160.532923 
L 475.240425 -160.532923 
L 474.543773 -160.532923 
L 474.33436 -160.532923 
L 474.017535 -160.532923 
L 473.929904 -160.532923 
L 473.800474 -160.532923 
L 473.770755 -160.532923 
L 473.767783 -160.532923 
L 473.767486 -160.532923 
z
" style="stroke: #daa520; stroke-opacity: 0.2"/>
    </defs>
    <g clip-path="url(#pc82f996076)">
     <use xlink:href="#mae3ea2db09" x="0" y="360" style="fill: #daa520; fill-opacity: 0.2; stroke: #daa520; stroke-opacity: 0.2"/>
    </g>
   </g>
   <g id="PolyCollection_3">
    <defs>
     <path id="m8aa1c19d73" d="M 473.767486 -82.050482 
L 473.767486 -82.050482 
L 473.767783 -82.050482 
L 473.770755 -82.050482 
L 473.800474 -82.050482 
L 473.929904 -82.050482 
L 474.017535 -82.050482 
L 474.33436 -82.050482 
L 474.543773 -82.050482 
L 475.240425 -82.050482 
L 475.749435 -82.050482 
L 477.347502 -82.050482 
L 478.151925 -82.050482 
L 480.332911 -82.050482 
L 481.325426 -82.050482 
L 483.426463 -82.050482 
L 484.552421 -82.050482 
L 486.618649 -82.050482 
L 487.860115 -82.050482 
L 489.940501 -82.050482 
L 491.268701 -82.050482 
L 493.337862 -82.050482 
L 494.732913 -82.050482 
L 496.79498 -82.050482 
L 498.238437 -82.050482 
L 500.507627 -82.050482 
L 501.925457 -82.050482 
L 503.883629 -82.050482 
L 505.359488 -82.050482 
L 507.493229 -82.050482 
L 508.957991 -82.050482 
L 510.929404 -82.050482 
L 512.426527 -82.050482 
L 514.541689 -82.050482 
L 516.018318 -82.050482 
L 517.97978 -82.050482 
L 519.485535 -82.050482 
L 521.587413 -82.050482 
L 523.084547 -82.050482 
L 525.104298 -82.050482 
L 526.640167 -82.050482 
L 528.829243 -82.050482 
L 530.378648 -82.050482 
L 532.487449 -82.050482 
L 534.080345 -82.050482 
L 536.350341 -82.050482 
L 537.951108 -82.050482 
L 540.426141 -82.050483 
L 542.052669 -82.050483 
L 544.26267 -82.050484 
L 545.927434 -82.050486 
L 548.176056 -82.050489 
L 549.842328 -82.050492 
L 552.128075 -82.050501 
L 553.833809 -82.050511 
L 556.197623 -82.050534 
L 557.981667 -82.050561 
L 560.563616 -82.050628 
L 562.426972 -82.050707 
L 565.040182 -82.050897 
L 567.162731 -82.051162 
L 569.799782 -82.051718 
L 572.436833 -82.052731 
L 575.073884 -82.054542 
L 577.710935 -82.057767 
L 580.347986 -82.063332 
L 582.985037 -82.073157 
L 585.622088 -82.090124 
L 588.259139 -82.118515 
L 590.89619 -82.165477 
L 593.533241 -82.242498 
L 596.170292 -82.364451 
L 598.807343 -82.551273 
L 599.334753 -82.596028 
L 599.862164 -82.646842 
L 600.119034 -82.673064 
L 600.358163 -82.699529 
L 600.657411 -82.732647 
L 600.833587 -82.752144 
L 600.907543 -82.760329 
L 600.955861 -82.765677 
L 601.004711 -82.771083 
L 601.035302 -82.774468 
L 601.036622 -82.774614 
L 601.049818 -82.776075 
L 601.065917 -82.777857 
L 601.093103 -82.780865 
L 601.120688 -82.783918 
L 601.171386 -82.789903 
L 601.249902 -82.799312 
L 601.44653 -82.823203 
L 601.789916 -82.867169 
L 602.163827 -82.918004 
L 602.6732 -82.991069 
L 603.182573 -83.069299 
L 603.793666 -83.169444 
L 604.415655 -83.279932 
L 605.101323 -83.412543 
L 605.786991 -83.556916 
L 606.50648 -83.721056 
L 607.249867 -83.906039 
L 608.069608 -84.129824 
L 609.040506 -84.421296 
L 610.242281 -84.829642 
L 612.175158 -85.584248 
L 614.443845 -86.646257 
L 617.080896 -88.075965 
L 619.717947 -89.641305 
L 622.354998 -91.40649 
L 624.992049 -93.348691 
L 627.6291 -95.438071 
L 630.266151 -97.640561 
L 632.903202 -99.920664 
L 635.540253 -102.243977 
L 638.177304 -104.579049 
L 640.814355 -106.898207 
L 643.451406 -109.17872 
L 646.088457 -111.402766 
L 648.725508 -113.555793 
L 651.362559 -115.626956 
L 653.999611 -117.609179 
L 656.636662 -119.429998 
L 659.273713 -120.955829 
L 661.910764 -122.396168 
L 664.547815 -123.753479 
L 667.184866 -125.030808 
L 669.821917 -126.231596 
L 672.458968 -127.359532 
L 675.096019 -128.418433 
L 677.73307 -129.412155 
L 680.370121 -130.344524 
L 683.007172 -131.21928 
L 685.644223 -132.040045 
L 688.281274 -132.805026 
L 690.918325 -133.486355 
L 693.555376 -133.778777 
L 696.192427 -134.014327 
L 698.829478 -134.219277 
L 701.466529 -134.397091 
L 704.10358 -134.551116 
L 706.740631 -134.684265 
L 709.377682 -134.799177 
L 711.102079 -134.865595 
L 711.102079 -163.81214 
L 711.102079 -163.81214 
L 709.377682 -163.459143 
L 706.740631 -162.897622 
L 704.10358 -162.300425 
L 701.466529 -161.66485 
L 698.829478 -160.987969 
L 696.192427 -160.26662 
L 693.555376 -159.497386 
L 690.918325 -158.74316 
L 688.281274 -157.961643 
L 685.644223 -157.120006 
L 683.007172 -156.21335 
L 680.370121 -155.236429 
L 677.73307 -154.183637 
L 675.096019 -153.092017 
L 672.458968 -152.009263 
L 669.821917 -150.84317 
L 667.184866 -149.587347 
L 664.547815 -148.235084 
L 661.910764 -146.779396 
L 659.273713 -145.213077 
L 656.636662 -143.528792 
L 653.999611 -141.719197 
L 651.362559 -139.777105 
L 648.725508 -137.695711 
L 646.088457 -135.46889 
L 643.451406 -133.091598 
L 640.814355 -130.560384 
L 638.177304 -127.874057 
L 635.540253 -125.428901 
L 632.903202 -123.180029 
L 630.266151 -120.812179 
L 627.6291 -118.329624 
L 624.992049 -115.740714 
L 622.354998 -113.05778 
L 619.717947 -110.29833 
L 617.080896 -107.486761 
L 614.443845 -104.654051 
L 612.175158 -102.227867 
L 610.242281 -100.192195 
L 609.040506 -98.94656 
L 608.069608 -97.957988 
L 607.249867 -97.136835 
L 606.50648 -96.405107 
L 605.786991 -95.709153 
L 605.101323 -95.057899 
L 604.415655 -94.420059 
L 603.793666 -93.852888 
L 603.182573 -93.307078 
L 602.6732 -92.86052 
L 602.163827 -92.423175 
L 601.789916 -92.107139 
L 601.44653 -91.821325 
L 601.249902 -91.659644 
L 601.171386 -91.595458 
L 601.120688 -91.554203 
L 601.093103 -91.531757 
L 601.065917 -91.509635 
L 601.049818 -91.496535 
L 601.036622 -91.485811 
L 601.035302 -91.484758 
L 601.004711 -91.460355 
L 600.955861 -91.421385 
L 600.907543 -91.38284 
L 600.833587 -91.323843 
L 600.657411 -91.183301 
L 600.358163 -90.944579 
L 600.119034 -90.75918 
L 599.862164 -90.56041 
L 599.334753 -90.164011 
L 598.807343 -89.784253 
L 596.170292 -88.000467 
L 593.533241 -86.51334 
L 590.89619 -85.335073 
L 588.259139 -84.368669 
L 585.622088 -83.659821 
L 582.985037 -83.11975 
L 580.347986 -82.752402 
L 577.710935 -82.501915 
L 575.073884 -82.327521 
L 572.436833 -82.2195 
L 569.799782 -82.149419 
L 567.162731 -82.107977 
L 565.040182 -82.087269 
L 562.426972 -82.071335 
L 560.563616 -82.064383 
L 557.981667 -82.058336 
L 556.197623 -82.055767 
L 553.833809 -82.053583 
L 552.128075 -82.052594 
L 549.842328 -82.051732 
L 548.176056 -82.051338 
L 545.927434 -82.050993 
L 544.26267 -82.05083 
L 542.052669 -82.05069 
L 540.426141 -82.050624 
L 537.951108 -82.050561 
L 536.350341 -82.050536 
L 534.080345 -82.050513 
L 532.487449 -82.050503 
L 530.378648 -82.050494 
L 528.829243 -82.05049 
L 526.640167 -82.050486 
L 525.104298 -82.050485 
L 523.084547 -82.050483 
L 521.587413 -82.050483 
L 519.485535 -82.050482 
L 517.97978 -82.050482 
L 516.018318 -82.050482 
L 514.541689 -82.050482 
L 512.426527 -82.050482 
L 510.929404 -82.050482 
L 508.957991 -82.050482 
L 507.493229 -82.050482 
L 505.359488 -82.050482 
L 503.883629 -82.050482 
L 501.925457 -82.050482 
L 500.507627 -82.050482 
L 498.238437 -82.050482 
L 496.79498 -82.050482 
L 494.732913 -82.050482 
L 493.337862 -82.050482 
L 491.268701 -82.050482 
L 489.940501 -82.050482 
L 487.860115 -82.050482 
L 486.618649 -82.050482 
L 484.552421 -82.050482 
L 483.426463 -82.050482 
L 481.325426 -82.050482 
L 480.332911 -82.050482 
L 478.151925 -82.050482 
L 477.347502 -82.050482 
L 475.749435 -82.050482 
L 475.240425 -82.050482 
L 474.543773 -82.050482 
L 474.33436 -82.050482 
L 474.017535 -82.050482 
L 473.929904 -82.050482 
L 473.800474 -82.050482 
L 473.770755 -82.050482 
L 473.767783 -82.050482 
L 473.767486 -82.050482 
z
" style="stroke: #daa520; stroke-opacity: 0.2"/>
    </defs>
    <g clip-path="url(#pc82f996076)">
     <use xlink:href="#m8aa1c19d73" x="0" y="360" style="fill: #daa520; fill-opacity: 0.2; stroke: #daa520; stroke-opacity: 0.2"/>
    </g>
   </g>
   <g id="PathCollection_3">
    <g clip-path="url(#pc82f996076)">
     <use xlink:href="#m4451b9e256" x="473.767486" y="199.467077" style="fill-opacity: 0.8; stroke: #000000; stroke-opacity: 0.8"/>
     <use xlink:href="#m4451b9e256" x="500.137996" y="162.669421" style="fill-opacity: 0.8; stroke: #000000; stroke-opacity: 0.8"/>
     <use xlink:href="#m4451b9e256" x="526.508507" y="142.560722" style="fill-opacity: 0.8; stroke: #000000; stroke-opacity: 0.8"/>
     <use xlink:href="#m4451b9e256" x="552.879017" y="156.465685" style="fill-opacity: 0.8; stroke: #000000; stroke-opacity: 0.8"/>
     <use xlink:href="#m4451b9e256" x="579.249527" y="178.203971" style="fill-opacity: 0.8; stroke: #000000; stroke-opacity: 0.8"/>
     <use xlink:href="#m4451b9e256" x="605.620038" y="189.659549" style="fill-opacity: 0.8; stroke: #000000; stroke-opacity: 0.8"/>
     <use xlink:href="#m4451b9e256" x="631.990548" y="148.23038" style="fill-opacity: 0.8; stroke: #000000; stroke-opacity: 0.8"/>
    </g>
   </g>
   <g id="PathCollection_4">
    <defs>
     <path id="m1409863bbf" d="M -4.330127 4.330127 
L 4.330127 4.330127 
L 4.330127 -4.330127 
L -4.330127 -4.330127 
z
" style="stroke: #000000; stroke-opacity: 0.8"/>
    </defs>
    <g clip-path="url(#pc82f996076)">
     <use xlink:href="#m1409863bbf" x="473.767486" y="277.947858" style="fill-opacity: 0.8; stroke: #000000; stroke-opacity: 0.8"/>
     <use xlink:href="#m1409863bbf" x="500.137996" y="269.094006" style="fill-opacity: 0.8; stroke: #000000; stroke-opacity: 0.8"/>
     <use xlink:href="#m1409863bbf" x="526.508507" y="281.194637" style="fill-opacity: 0.8; stroke: #000000; stroke-opacity: 0.8"/>
     <use xlink:href="#m1409863bbf" x="552.879017" y="264.736004" style="fill-opacity: 0.8; stroke: #000000; stroke-opacity: 0.8"/>
     <use xlink:href="#m1409863bbf" x="579.249527" y="275.627068" style="fill-opacity: 0.8; stroke: #000000; stroke-opacity: 0.8"/>
     <use xlink:href="#m1409863bbf" x="605.620038" y="263.345034" style="fill-opacity: 0.8; stroke: #000000; stroke-opacity: 0.8"/>
     <use xlink:href="#m1409863bbf" x="631.990548" y="252.928395" style="fill-opacity: 0.8; stroke: #000000; stroke-opacity: 0.8"/>
     <use xlink:href="#m1409863bbf" x="658.361059" y="233.584416" style="fill-opacity: 0.8; stroke: #000000; stroke-opacity: 0.8"/>
    </g>
   </g>
   <g id="PathCollection_5">
    <g clip-path="url(#pc82f996076)">
     <use xlink:href="#mfe5a80a389" x="473.767486" y="199.467077" style="fill: #daa520; fill-opacity: 0.8; stroke: #daa520; stroke-opacity: 0.8"/>
     <use xlink:href="#mfe5a80a389" x="500.137996" y="162.669421" style="fill: #daa520; fill-opacity: 0.8; stroke: #daa520; stroke-opacity: 0.8"/>
     <use xlink:href="#mfe5a80a389" x="526.508507" y="142.560722" style="fill: #daa520; fill-opacity: 0.8; stroke: #daa520; stroke-opacity: 0.8"/>
     <use xlink:href="#mfe5a80a389" x="552.879017" y="156.465685" style="fill: #daa520; fill-opacity: 0.8; stroke: #daa520; stroke-opacity: 0.8"/>
     <use xlink:href="#mfe5a80a389" x="579.249527" y="178.203971" style="fill: #daa520; fill-opacity: 0.8; stroke: #daa520; stroke-opacity: 0.8"/>
     <use xlink:href="#mfe5a80a389" x="605.620038" y="189.659549" style="fill: #daa520; fill-opacity: 0.8; stroke: #daa520; stroke-opacity: 0.8"/>
     <use xlink:href="#mfe5a80a389" x="631.990548" y="148.23038" style="fill: #daa520; fill-opacity: 0.8; stroke: #daa520; stroke-opacity: 0.8"/>
    </g>
   </g>
   <g id="PathCollection_6">
    <defs>
     <path id="m0163585351" d="M -4.330127 4.330127 
L 4.330127 4.330127 
L 4.330127 -4.330127 
L -4.330127 -4.330127 
z
" style="stroke: #daa520; stroke-opacity: 0.8"/>
    </defs>
    <g clip-path="url(#pc82f996076)">
     <use xlink:href="#m0163585351" x="473.767486" y="277.947858" style="fill: #daa520; fill-opacity: 0.8; stroke: #daa520; stroke-opacity: 0.8"/>
     <use xlink:href="#m0163585351" x="500.137996" y="269.094006" style="fill: #daa520; fill-opacity: 0.8; stroke: #daa520; stroke-opacity: 0.8"/>
     <use xlink:href="#m0163585351" x="526.508507" y="281.194637" style="fill: #daa520; fill-opacity: 0.8; stroke: #daa520; stroke-opacity: 0.8"/>
     <use xlink:href="#m0163585351" x="552.879017" y="264.736004" style="fill: #daa520; fill-opacity: 0.8; stroke: #daa520; stroke-opacity: 0.8"/>
     <use xlink:href="#m0163585351" x="579.249527" y="275.627068" style="fill: #daa520; fill-opacity: 0.8; stroke: #daa520; stroke-opacity: 0.8"/>
     <use xlink:href="#m0163585351" x="605.620038" y="263.345034" style="fill: #daa520; fill-opacity: 0.8; stroke: #daa520; stroke-opacity: 0.8"/>
     <use xlink:href="#m0163585351" x="631.990548" y="252.928395" style="fill: #daa520; fill-opacity: 0.8; stroke: #daa520; stroke-opacity: 0.8"/>
     <use xlink:href="#m0163585351" x="658.361059" y="233.584416" style="fill: #daa520; fill-opacity: 0.8; stroke: #daa520; stroke-opacity: 0.8"/>
    </g>
   </g>
   <g id="line2d_32">
    <path d="M 473.767486 199.467077 
L 552.128075 199.377846 
L 557.981667 199.169713 
L 562.426972 198.775842 
L 565.040182 198.372018 
L 567.162731 197.911338 
L 569.799782 197.127718 
L 572.436833 196.064928 
L 575.073884 194.684572 
L 577.710935 192.967929 
L 580.347986 190.921922 
L 582.985037 188.580187 
L 585.622088 185.998824 
L 590.89619 180.404453 
L 596.170292 174.719463 
L 601.44653 169.407357 
L 604.415655 166.698489 
L 607.249867 164.339015 
L 610.242281 162.103714 
L 612.175158 160.803244 
L 614.443845 159.420366 
L 617.080896 158.005247 
L 619.717947 156.791367 
L 622.354998 155.771407 
L 624.992049 154.936635 
L 627.6291 154.277364 
L 630.266151 153.783316 
L 632.903202 153.443889 
L 635.540253 153.24836 
L 638.177304 153.186047 
L 640.814355 153.246419 
L 646.088457 153.694397 
L 651.362559 154.514079 
L 656.636662 155.633648 
L 661.910764 156.988513 
L 669.821917 159.339425 
L 680.370121 162.82901 
L 709.377682 172.696196 
L 711.102079 173.251402 
L 711.102079 173.251402 
" clip-path="url(#pc82f996076)" style="fill: none; stroke: #daa520; stroke-width: 1.5; stroke-linecap: square"/>
   </g>
   <g id="line2d_33">
    <path d="M 473.767486 277.949518 
L 572.436833 277.864394 
L 577.710935 277.714418 
L 582.985037 277.358679 
L 585.622088 277.049098 
L 588.259139 276.612911 
L 590.89619 276.017727 
L 593.533241 275.231399 
L 596.170292 274.225572 
L 600.358163 272.131181 
L 602.6732 270.704133 
L 605.101323 269.008063 
L 608.069608 266.68298 
L 610.242281 264.830312 
L 614.443845 260.975541 
L 630.266151 245.746561 
L 635.540253 241.12959 
L 640.814355 236.922751 
L 646.088457 233.148276 
L 651.362559 229.797653 
L 656.636662 226.844869 
L 661.910764 224.255217 
L 667.184866 221.990839 
L 672.458968 220.01406 
L 677.73307 218.28928 
L 683.007172 216.783942 
L 688.281274 215.468922 
L 696.192427 213.798046 
L 704.10358 212.425578 
L 711.102079 211.413163 
L 711.102079 211.413163 
" clip-path="url(#pc82f996076)" style="fill: none; stroke-dasharray: 5.55,2.4; stroke-dashoffset: 0; stroke: #daa520; stroke-width: 1.5"/>
   </g>
  </g>
  <g id="text_35">
   <!-- Volunteer 112 -->
   <g transform="translate(275.71125 25.43625) scale(0.24 -0.24)">
    <defs>
     <path id="DejaVuSans-6e" d="M 3513 2113 
L 3513 0 
L 2938 0 
L 2938 2094 
Q 2938 2591 2744 2837 
Q 2550 3084 2163 3084 
Q 1697 3084 1428 2787 
Q 1159 2491 1159 1978 
L 1159 0 
L 581 0 
L 581 3500 
L 1159 3500 
L 1159 2956 
Q 1366 3272 1645 3428 
Q 1925 3584 2291 3584 
Q 2894 3584 3203 3211 
Q 3513 2838 3513 2113 
z
" transform="scale(0.015625)"/>
     <path id="DejaVuSans-74" d="M 1172 4494 
L 1172 3500 
L 2356 3500 
L 2356 3053 
L 1172 3053 
L 1172 1153 
Q 1172 725 1289 603 
Q 1406 481 1766 481 
L 2356 481 
L 2356 0 
L 1766 0 
Q 1100 0 847 248 
Q 594 497 594 1153 
L 594 3053 
L 172 3053 
L 172 3500 
L 594 3500 
L 594 4494 
L 1172 4494 
z
" transform="scale(0.015625)"/>
    </defs>
    <use xlink:href="#DejaVuSans-56"/>
    <use xlink:href="#DejaVuSans-6f" x="60.658203"/>
    <use xlink:href="#DejaVuSans-6c" x="121.839844"/>
    <use xlink:href="#DejaVuSans-75" x="149.623047"/>
    <use xlink:href="#DejaVuSans-6e" x="213.001953"/>
    <use xlink:href="#DejaVuSans-74" x="276.380859"/>
    <use xlink:href="#DejaVuSans-65" x="315.589844"/>
    <use xlink:href="#DejaVuSans-65" x="377.113281"/>
    <use xlink:href="#DejaVuSans-72" x="438.636719"/>
    <use xlink:href="#DejaVuSans-20" x="479.75"/>
    <use xlink:href="#DejaVuSans-31" x="511.537109"/>
    <use xlink:href="#DejaVuSans-31" x="575.160156"/>
    <use xlink:href="#DejaVuSans-32" x="638.783203"/>
   </g>
  </g>
 </g>
 <defs>
  <clipPath id="pe69d8c629a">
   <rect x="180" y="43.2" width="242.608696" height="277.2"/>
  </clipPath>
  <clipPath id="pc82f996076">
   <rect x="471.130435" y="43.2" width="242.608696" height="277.2"/>
  </clipPath>
 </defs>
</svg>
