<?xml version="1.0" encoding="utf-8" standalone="no"?>
<!DOCTYPE svg PUBLIC "-//W3C//DTD SVG 1.1//EN"
  "http://www.w3.org/Graphics/SVG/1.1/DTD/svg11.dtd">
<svg xmlns:xlink="http://www.w3.org/1999/xlink" width="1440pt" height="360pt" viewBox="0 0 1440 360" xmlns="http://www.w3.org/2000/svg" version="1.1">
 <metadata>
  <rdf:RDF xmlns:dc="http://purl.org/dc/elements/1.1/" xmlns:cc="http://creativecommons.org/ns#" xmlns:rdf="http://www.w3.org/1999/02/22-rdf-syntax-ns#">
   <cc:Work>
    <dc:type rdf:resource="http://purl.org/dc/dcmitype/StillImage"/>
    <dc:date>2025-01-12T17:09:18.522655</dc:date>
    <dc:format>image/svg+xml</dc:format>
    <dc:creator>
     <cc:Agent>
      <dc:title>Matplotlib v3.9.2, https://matplotlib.org/</dc:title>
     </cc:Agent>
    </dc:creator>
   </cc:Work>
  </rdf:RDF>
 </metadata>
 <defs>
  <style type="text/css">*{stroke-linejoin: round; stroke-linecap: butt}</style>
 </defs>
 <g id="figure_1">
  <g id="patch_1">
   <path d="M 0 360 
L 1440 360 
L 1440 0 
L 0 0 
z
" style="fill: #ffffff"/>
  </g>
  <g id="axes_1">
   <g id="patch_2">
    <path d="M 59.96 297.16 
L 340.567439 297.16 
L 340.567439 36 
L 59.96 36 
z
" style="fill: #ffffff"/>
   </g>
   <g id="matplotlib.axis_1">
    <g id="xtick_1">
     <g id="line2d_1">
      <defs>
       <path id="m4a25653b18" d="M 0 0 
L 0 3.5 
" style="stroke: #000000; stroke-width: 0.8"/>
      </defs>
      <g>
       <use xlink:href="#m4a25653b18" x="63.010081" y="297.16" style="stroke: #000000; stroke-width: 0.8"/>
      </g>
     </g>
     <g id="text_1">
      <!-- 0 -->
      <g transform="translate(57.283831 317.837188) scale(0.18 -0.18)">
       <defs>
        <path id="DejaVuSans-30" d="M 2034 4250 
Q 1547 4250 1301 3770 
Q 1056 3291 1056 2328 
Q 1056 1369 1301 889 
Q 1547 409 2034 409 
Q 2525 409 2770 889 
Q 3016 1369 3016 2328 
Q 3016 3291 2770 3770 
Q 2525 4250 2034 4250 
z
M 2034 4750 
Q 2819 4750 3233 4129 
Q 3647 3509 3647 2328 
Q 3647 1150 3233 529 
Q 2819 -91 2034 -91 
Q 1250 -91 836 529 
Q 422 1150 422 2328 
Q 422 3509 836 4129 
Q 1250 4750 2034 4750 
z
" transform="scale(0.015625)"/>
       </defs>
       <use xlink:href="#DejaVuSans-30"/>
      </g>
     </g>
    </g>
    <g id="xtick_2">
     <g id="line2d_2">
      <g>
       <use xlink:href="#m4a25653b18" x="93.510889" y="297.16" style="stroke: #000000; stroke-width: 0.8"/>
      </g>
     </g>
     <g id="text_2">
      <!-- 1 -->
      <g transform="translate(87.784639 317.837188) scale(0.18 -0.18)">
       <defs>
        <path id="DejaVuSans-31" d="M 794 531 
L 1825 531 
L 1825 4091 
L 703 3866 
L 703 4441 
L 1819 4666 
L 2450 4666 
L 2450 531 
L 3481 531 
L 3481 0 
L 794 0 
L 794 531 
z
" transform="scale(0.015625)"/>
       </defs>
       <use xlink:href="#DejaVuSans-31"/>
      </g>
     </g>
    </g>
    <g id="xtick_3">
     <g id="line2d_3">
      <g>
       <use xlink:href="#m4a25653b18" x="124.011698" y="297.16" style="stroke: #000000; stroke-width: 0.8"/>
      </g>
     </g>
     <g id="text_3">
      <!-- 2 -->
      <g transform="translate(118.285448 317.837188) scale(0.18 -0.18)">
       <defs>
        <path id="DejaVuSans-32" d="M 1228 531 
L 3431 531 
L 3431 0 
L 469 0 
L 469 531 
Q 828 903 1448 1529 
Q 2069 2156 2228 2338 
Q 2531 2678 2651 2914 
Q 2772 3150 2772 3378 
Q 2772 3750 2511 3984 
Q 2250 4219 1831 4219 
Q 1534 4219 1204 4116 
Q 875 4013 500 3803 
L 500 4441 
Q 881 4594 1212 4672 
Q 1544 4750 1819 4750 
Q 2544 4750 2975 4387 
Q 3406 4025 3406 3419 
Q 3406 3131 3298 2873 
Q 3191 2616 2906 2266 
Q 2828 2175 2409 1742 
Q 1991 1309 1228 531 
z
" transform="scale(0.015625)"/>
       </defs>
       <use xlink:href="#DejaVuSans-32"/>
      </g>
     </g>
    </g>
    <g id="xtick_4">
     <g id="line2d_4">
      <g>
       <use xlink:href="#m4a25653b18" x="154.512507" y="297.16" style="stroke: #000000; stroke-width: 0.8"/>
      </g>
     </g>
     <g id="text_4">
      <!-- 3 -->
      <g transform="translate(148.786257 317.837188) scale(0.18 -0.18)">
       <defs>
        <path id="DejaVuSans-33" d="M 2597 2516 
Q 3050 2419 3304 2112 
Q 3559 1806 3559 1356 
Q 3559 666 3084 287 
Q 2609 -91 1734 -91 
Q 1441 -91 1130 -33 
Q 819 25 488 141 
L 488 750 
Q 750 597 1062 519 
Q 1375 441 1716 441 
Q 2309 441 2620 675 
Q 2931 909 2931 1356 
Q 2931 1769 2642 2001 
Q 2353 2234 1838 2234 
L 1294 2234 
L 1294 2753 
L 1863 2753 
Q 2328 2753 2575 2939 
Q 2822 3125 2822 3475 
Q 2822 3834 2567 4026 
Q 2313 4219 1838 4219 
Q 1578 4219 1281 4162 
Q 984 4106 628 3988 
L 628 4550 
Q 988 4650 1302 4700 
Q 1616 4750 1894 4750 
Q 2613 4750 3031 4423 
Q 3450 4097 3450 3541 
Q 3450 3153 3228 2886 
Q 3006 2619 2597 2516 
z
" transform="scale(0.015625)"/>
       </defs>
       <use xlink:href="#DejaVuSans-33"/>
      </g>
     </g>
    </g>
    <g id="xtick_5">
     <g id="line2d_5">
      <g>
       <use xlink:href="#m4a25653b18" x="185.013315" y="297.16" style="stroke: #000000; stroke-width: 0.8"/>
      </g>
     </g>
     <g id="text_5">
      <!-- 4 -->
      <g transform="translate(179.287065 317.837188) scale(0.18 -0.18)">
       <defs>
        <path id="DejaVuSans-34" d="M 2419 4116 
L 825 1625 
L 2419 1625 
L 2419 4116 
z
M 2253 4666 
L 3047 4666 
L 3047 1625 
L 3713 1625 
L 3713 1100 
L 3047 1100 
L 3047 0 
L 2419 0 
L 2419 1100 
L 313 1100 
L 313 1709 
L 2253 4666 
z
" transform="scale(0.015625)"/>
       </defs>
       <use xlink:href="#DejaVuSans-34"/>
      </g>
     </g>
    </g>
    <g id="xtick_6">
     <g id="line2d_6">
      <g>
       <use xlink:href="#m4a25653b18" x="215.514124" y="297.16" style="stroke: #000000; stroke-width: 0.8"/>
      </g>
     </g>
     <g id="text_6">
      <!-- 5 -->
      <g transform="translate(209.787874 317.837188) scale(0.18 -0.18)">
       <defs>
        <path id="DejaVuSans-35" d="M 691 4666 
L 3169 4666 
L 3169 4134 
L 1269 4134 
L 1269 2991 
Q 1406 3038 1543 3061 
Q 1681 3084 1819 3084 
Q 2600 3084 3056 2656 
Q 3513 2228 3513 1497 
Q 3513 744 3044 326 
Q 2575 -91 1722 -91 
Q 1428 -91 1123 -41 
Q 819 9 494 109 
L 494 744 
Q 775 591 1075 516 
Q 1375 441 1709 441 
Q 2250 441 2565 725 
Q 2881 1009 2881 1497 
Q 2881 1984 2565 2268 
Q 2250 2553 1709 2553 
Q 1456 2553 1204 2497 
Q 953 2441 691 2322 
L 691 4666 
z
" transform="scale(0.015625)"/>
       </defs>
       <use xlink:href="#DejaVuSans-35"/>
      </g>
     </g>
    </g>
    <g id="xtick_7">
     <g id="line2d_7">
      <g>
       <use xlink:href="#m4a25653b18" x="246.014932" y="297.16" style="stroke: #000000; stroke-width: 0.8"/>
      </g>
     </g>
     <g id="text_7">
      <!-- 6 -->
      <g transform="translate(240.288682 317.837188) scale(0.18 -0.18)">
       <defs>
        <path id="DejaVuSans-36" d="M 2113 2584 
Q 1688 2584 1439 2293 
Q 1191 2003 1191 1497 
Q 1191 994 1439 701 
Q 1688 409 2113 409 
Q 2538 409 2786 701 
Q 3034 994 3034 1497 
Q 3034 2003 2786 2293 
Q 2538 2584 2113 2584 
z
M 3366 4563 
L 3366 3988 
Q 3128 4100 2886 4159 
Q 2644 4219 2406 4219 
Q 1781 4219 1451 3797 
Q 1122 3375 1075 2522 
Q 1259 2794 1537 2939 
Q 1816 3084 2150 3084 
Q 2853 3084 3261 2657 
Q 3669 2231 3669 1497 
Q 3669 778 3244 343 
Q 2819 -91 2113 -91 
Q 1303 -91 875 529 
Q 447 1150 447 2328 
Q 447 3434 972 4092 
Q 1497 4750 2381 4750 
Q 2619 4750 2861 4703 
Q 3103 4656 3366 4563 
z
" transform="scale(0.015625)"/>
       </defs>
       <use xlink:href="#DejaVuSans-36"/>
      </g>
     </g>
    </g>
    <g id="xtick_8">
     <g id="line2d_8">
      <g>
       <use xlink:href="#m4a25653b18" x="276.515741" y="297.16" style="stroke: #000000; stroke-width: 0.8"/>
      </g>
     </g>
     <g id="text_8">
      <!-- 7 -->
      <g transform="translate(270.789491 317.837188) scale(0.18 -0.18)">
       <defs>
        <path id="DejaVuSans-37" d="M 525 4666 
L 3525 4666 
L 3525 4397 
L 1831 0 
L 1172 0 
L 2766 4134 
L 525 4134 
L 525 4666 
z
" transform="scale(0.015625)"/>
       </defs>
       <use xlink:href="#DejaVuSans-37"/>
      </g>
     </g>
    </g>
    <g id="xtick_9">
     <g id="line2d_9">
      <g>
       <use xlink:href="#m4a25653b18" x="307.01655" y="297.16" style="stroke: #000000; stroke-width: 0.8"/>
      </g>
     </g>
     <g id="text_9">
      <!-- 8 -->
      <g transform="translate(301.2903 317.837188) scale(0.18 -0.18)">
       <defs>
        <path id="DejaVuSans-38" d="M 2034 2216 
Q 1584 2216 1326 1975 
Q 1069 1734 1069 1313 
Q 1069 891 1326 650 
Q 1584 409 2034 409 
Q 2484 409 2743 651 
Q 3003 894 3003 1313 
Q 3003 1734 2745 1975 
Q 2488 2216 2034 2216 
z
M 1403 2484 
Q 997 2584 770 2862 
Q 544 3141 544 3541 
Q 544 4100 942 4425 
Q 1341 4750 2034 4750 
Q 2731 4750 3128 4425 
Q 3525 4100 3525 3541 
Q 3525 3141 3298 2862 
Q 3072 2584 2669 2484 
Q 3125 2378 3379 2068 
Q 3634 1759 3634 1313 
Q 3634 634 3220 271 
Q 2806 -91 2034 -91 
Q 1263 -91 848 271 
Q 434 634 434 1313 
Q 434 1759 690 2068 
Q 947 2378 1403 2484 
z
M 1172 3481 
Q 1172 3119 1398 2916 
Q 1625 2713 2034 2713 
Q 2441 2713 2670 2916 
Q 2900 3119 2900 3481 
Q 2900 3844 2670 4047 
Q 2441 4250 2034 4250 
Q 1625 4250 1398 4047 
Q 1172 3844 1172 3481 
z
" transform="scale(0.015625)"/>
       </defs>
       <use xlink:href="#DejaVuSans-38"/>
      </g>
     </g>
    </g>
    <g id="xtick_10">
     <g id="line2d_10">
      <g>
       <use xlink:href="#m4a25653b18" x="337.517358" y="297.16" style="stroke: #000000; stroke-width: 0.8"/>
      </g>
     </g>
     <g id="text_10">
      <!-- 9 -->
      <g transform="translate(331.791108 317.837188) scale(0.18 -0.18)">
       <defs>
        <path id="DejaVuSans-39" d="M 703 97 
L 703 672 
Q 941 559 1184 500 
Q 1428 441 1663 441 
Q 2288 441 2617 861 
Q 2947 1281 2994 2138 
Q 2813 1869 2534 1725 
Q 2256 1581 1919 1581 
Q 1219 1581 811 2004 
Q 403 2428 403 3163 
Q 403 3881 828 4315 
Q 1253 4750 1959 4750 
Q 2769 4750 3195 4129 
Q 3622 3509 3622 2328 
Q 3622 1225 3098 567 
Q 2575 -91 1691 -91 
Q 1453 -91 1209 -44 
Q 966 3 703 97 
z
M 1959 2075 
Q 2384 2075 2632 2365 
Q 2881 2656 2881 3163 
Q 2881 3666 2632 3958 
Q 2384 4250 1959 4250 
Q 1534 4250 1286 3958 
Q 1038 3666 1038 3163 
Q 1038 2656 1286 2365 
Q 1534 2075 1959 2075 
z
" transform="scale(0.015625)"/>
       </defs>
       <use xlink:href="#DejaVuSans-39"/>
      </g>
     </g>
    </g>
    <g id="text_11">
     <!-- Time (d) -->
     <g transform="translate(150.10747 343.816875) scale(0.24 -0.24)">
      <defs>
       <path id="DejaVuSans-54" d="M -19 4666 
L 3928 4666 
L 3928 4134 
L 2272 4134 
L 2272 0 
L 1638 0 
L 1638 4134 
L -19 4134 
L -19 4666 
z
" transform="scale(0.015625)"/>
       <path id="DejaVuSans-69" d="M 603 3500 
L 1178 3500 
L 1178 0 
L 603 0 
L 603 3500 
z
M 603 4863 
L 1178 4863 
L 1178 4134 
L 603 4134 
L 603 4863 
z
" transform="scale(0.015625)"/>
       <path id="DejaVuSans-6d" d="M 3328 2828 
Q 3544 3216 3844 3400 
Q 4144 3584 4550 3584 
Q 5097 3584 5394 3201 
Q 5691 2819 5691 2113 
L 5691 0 
L 5113 0 
L 5113 2094 
Q 5113 2597 4934 2840 
Q 4756 3084 4391 3084 
Q 3944 3084 3684 2787 
Q 3425 2491 3425 1978 
L 3425 0 
L 2847 0 
L 2847 2094 
Q 2847 2600 2669 2842 
Q 2491 3084 2119 3084 
Q 1678 3084 1418 2786 
Q 1159 2488 1159 1978 
L 1159 0 
L 581 0 
L 581 3500 
L 1159 3500 
L 1159 2956 
Q 1356 3278 1631 3431 
Q 1906 3584 2284 3584 
Q 2666 3584 2933 3390 
Q 3200 3197 3328 2828 
z
" transform="scale(0.015625)"/>
       <path id="DejaVuSans-65" d="M 3597 1894 
L 3597 1613 
L 953 1613 
Q 991 1019 1311 708 
Q 1631 397 2203 397 
Q 2534 397 2845 478 
Q 3156 559 3463 722 
L 3463 178 
Q 3153 47 2828 -22 
Q 2503 -91 2169 -91 
Q 1331 -91 842 396 
Q 353 884 353 1716 
Q 353 2575 817 3079 
Q 1281 3584 2069 3584 
Q 2775 3584 3186 3129 
Q 3597 2675 3597 1894 
z
M 3022 2063 
Q 3016 2534 2758 2815 
Q 2500 3097 2075 3097 
Q 1594 3097 1305 2825 
Q 1016 2553 972 2059 
L 3022 2063 
z
" transform="scale(0.015625)"/>
       <path id="DejaVuSans-20" transform="scale(0.015625)"/>
       <path id="DejaVuSans-28" d="M 1984 4856 
Q 1566 4138 1362 3434 
Q 1159 2731 1159 2009 
Q 1159 1288 1364 580 
Q 1569 -128 1984 -844 
L 1484 -844 
Q 1016 -109 783 600 
Q 550 1309 550 2009 
Q 550 2706 781 3412 
Q 1013 4119 1484 4856 
L 1984 4856 
z
" transform="scale(0.015625)"/>
       <path id="DejaVuSans-64" d="M 2906 2969 
L 2906 4863 
L 3481 4863 
L 3481 0 
L 2906 0 
L 2906 525 
Q 2725 213 2448 61 
Q 2172 -91 1784 -91 
Q 1150 -91 751 415 
Q 353 922 353 1747 
Q 353 2572 751 3078 
Q 1150 3584 1784 3584 
Q 2172 3584 2448 3432 
Q 2725 3281 2906 2969 
z
M 947 1747 
Q 947 1113 1208 752 
Q 1469 391 1925 391 
Q 2381 391 2643 752 
Q 2906 1113 2906 1747 
Q 2906 2381 2643 2742 
Q 2381 3103 1925 3103 
Q 1469 3103 1208 2742 
Q 947 2381 947 1747 
z
" transform="scale(0.015625)"/>
       <path id="DejaVuSans-29" d="M 513 4856 
L 1013 4856 
Q 1481 4119 1714 3412 
Q 1947 2706 1947 2009 
Q 1947 1309 1714 600 
Q 1481 -109 1013 -844 
L 513 -844 
Q 928 -128 1133 580 
Q 1338 1288 1338 2009 
Q 1338 2731 1133 3434 
Q 928 4138 513 4856 
z
" transform="scale(0.015625)"/>
      </defs>
      <use xlink:href="#DejaVuSans-54"/>
      <use xlink:href="#DejaVuSans-69" x="57.958984"/>
      <use xlink:href="#DejaVuSans-6d" x="85.742188"/>
      <use xlink:href="#DejaVuSans-65" x="183.154297"/>
      <use xlink:href="#DejaVuSans-20" x="244.677734"/>
      <use xlink:href="#DejaVuSans-28" x="276.464844"/>
      <use xlink:href="#DejaVuSans-64" x="315.478516"/>
      <use xlink:href="#DejaVuSans-29" x="378.955078"/>
     </g>
    </g>
   </g>
   <g id="matplotlib.axis_2">
    <g id="ytick_1">
     <g id="line2d_11">
      <defs>
       <path id="mf5b8574c62" d="M 0 0 
L -3.5 0 
" style="stroke: #000000; stroke-width: 0.8"/>
      </defs>
      <g>
       <use xlink:href="#mf5b8574c62" x="59.96" y="297.16" style="stroke: #000000; stroke-width: 0.8"/>
      </g>
     </g>
     <g id="text_12">
      <!-- 0 -->
      <g transform="translate(41.5075 303.998594) scale(0.18 -0.18)">
       <use xlink:href="#DejaVuSans-30"/>
      </g>
     </g>
    </g>
    <g id="ytick_2">
     <g id="line2d_12">
      <g>
       <use xlink:href="#mf5b8574c62" x="59.96" y="231.87" style="stroke: #000000; stroke-width: 0.8"/>
      </g>
     </g>
     <g id="text_13">
      <!-- 2 -->
      <g transform="translate(41.5075 238.708594) scale(0.18 -0.18)">
       <use xlink:href="#DejaVuSans-32"/>
      </g>
     </g>
    </g>
    <g id="ytick_3">
     <g id="line2d_13">
      <g>
       <use xlink:href="#mf5b8574c62" x="59.96" y="166.58" style="stroke: #000000; stroke-width: 0.8"/>
      </g>
     </g>
     <g id="text_14">
      <!-- 4 -->
      <g transform="translate(41.5075 173.418594) scale(0.18 -0.18)">
       <use xlink:href="#DejaVuSans-34"/>
      </g>
     </g>
    </g>
    <g id="ytick_4">
     <g id="line2d_14">
      <g>
       <use xlink:href="#mf5b8574c62" x="59.96" y="101.29" style="stroke: #000000; stroke-width: 0.8"/>
      </g>
     </g>
     <g id="text_15">
      <!-- 6 -->
      <g transform="translate(41.5075 108.128594) scale(0.18 -0.18)">
       <use xlink:href="#DejaVuSans-36"/>
      </g>
     </g>
    </g>
    <g id="ytick_5">
     <g id="line2d_15">
      <g>
       <use xlink:href="#mf5b8574c62" x="59.96" y="36" style="stroke: #000000; stroke-width: 0.8"/>
      </g>
     </g>
     <g id="text_16">
      <!-- 8 -->
      <g transform="translate(41.5075 42.838594) scale(0.18 -0.18)">
       <use xlink:href="#DejaVuSans-38"/>
      </g>
     </g>
    </g>
    <g id="text_17">
     <!-- Virus (log$_{10}$ copies/mL) -->
     <g transform="translate(32.4675 304.34) rotate(-90) scale(0.24 -0.24)">
      <defs>
       <path id="DejaVuSans-56" d="M 1831 0 
L 50 4666 
L 709 4666 
L 2188 738 
L 3669 4666 
L 4325 4666 
L 2547 0 
L 1831 0 
z
" transform="scale(0.015625)"/>
       <path id="DejaVuSans-72" d="M 2631 2963 
Q 2534 3019 2420 3045 
Q 2306 3072 2169 3072 
Q 1681 3072 1420 2755 
Q 1159 2438 1159 1844 
L 1159 0 
L 581 0 
L 581 3500 
L 1159 3500 
L 1159 2956 
Q 1341 3275 1631 3429 
Q 1922 3584 2338 3584 
Q 2397 3584 2469 3576 
Q 2541 3569 2628 3553 
L 2631 2963 
z
" transform="scale(0.015625)"/>
       <path id="DejaVuSans-75" d="M 544 1381 
L 544 3500 
L 1119 3500 
L 1119 1403 
Q 1119 906 1312 657 
Q 1506 409 1894 409 
Q 2359 409 2629 706 
Q 2900 1003 2900 1516 
L 2900 3500 
L 3475 3500 
L 3475 0 
L 2900 0 
L 2900 538 
Q 2691 219 2414 64 
Q 2138 -91 1772 -91 
Q 1169 -91 856 284 
Q 544 659 544 1381 
z
M 1991 3584 
L 1991 3584 
z
" transform="scale(0.015625)"/>
       <path id="DejaVuSans-73" d="M 2834 3397 
L 2834 2853 
Q 2591 2978 2328 3040 
Q 2066 3103 1784 3103 
Q 1356 3103 1142 2972 
Q 928 2841 928 2578 
Q 928 2378 1081 2264 
Q 1234 2150 1697 2047 
L 1894 2003 
Q 2506 1872 2764 1633 
Q 3022 1394 3022 966 
Q 3022 478 2636 193 
Q 2250 -91 1575 -91 
Q 1294 -91 989 -36 
Q 684 19 347 128 
L 347 722 
Q 666 556 975 473 
Q 1284 391 1588 391 
Q 1994 391 2212 530 
Q 2431 669 2431 922 
Q 2431 1156 2273 1281 
Q 2116 1406 1581 1522 
L 1381 1569 
Q 847 1681 609 1914 
Q 372 2147 372 2553 
Q 372 3047 722 3315 
Q 1072 3584 1716 3584 
Q 2034 3584 2315 3537 
Q 2597 3491 2834 3397 
z
" transform="scale(0.015625)"/>
       <path id="DejaVuSans-6c" d="M 603 4863 
L 1178 4863 
L 1178 0 
L 603 0 
L 603 4863 
z
" transform="scale(0.015625)"/>
       <path id="DejaVuSans-6f" d="M 1959 3097 
Q 1497 3097 1228 2736 
Q 959 2375 959 1747 
Q 959 1119 1226 758 
Q 1494 397 1959 397 
Q 2419 397 2687 759 
Q 2956 1122 2956 1747 
Q 2956 2369 2687 2733 
Q 2419 3097 1959 3097 
z
M 1959 3584 
Q 2709 3584 3137 3096 
Q 3566 2609 3566 1747 
Q 3566 888 3137 398 
Q 2709 -91 1959 -91 
Q 1206 -91 779 398 
Q 353 888 353 1747 
Q 353 2609 779 3096 
Q 1206 3584 1959 3584 
z
" transform="scale(0.015625)"/>
       <path id="DejaVuSans-67" d="M 2906 1791 
Q 2906 2416 2648 2759 
Q 2391 3103 1925 3103 
Q 1463 3103 1205 2759 
Q 947 2416 947 1791 
Q 947 1169 1205 825 
Q 1463 481 1925 481 
Q 2391 481 2648 825 
Q 2906 1169 2906 1791 
z
M 3481 434 
Q 3481 -459 3084 -895 
Q 2688 -1331 1869 -1331 
Q 1566 -1331 1297 -1286 
Q 1028 -1241 775 -1147 
L 775 -588 
Q 1028 -725 1275 -790 
Q 1522 -856 1778 -856 
Q 2344 -856 2625 -561 
Q 2906 -266 2906 331 
L 2906 616 
Q 2728 306 2450 153 
Q 2172 0 1784 0 
Q 1141 0 747 490 
Q 353 981 353 1791 
Q 353 2603 747 3093 
Q 1141 3584 1784 3584 
Q 2172 3584 2450 3431 
Q 2728 3278 2906 2969 
L 2906 3500 
L 3481 3500 
L 3481 434 
z
" transform="scale(0.015625)"/>
       <path id="DejaVuSans-63" d="M 3122 3366 
L 3122 2828 
Q 2878 2963 2633 3030 
Q 2388 3097 2138 3097 
Q 1578 3097 1268 2742 
Q 959 2388 959 1747 
Q 959 1106 1268 751 
Q 1578 397 2138 397 
Q 2388 397 2633 464 
Q 2878 531 3122 666 
L 3122 134 
Q 2881 22 2623 -34 
Q 2366 -91 2075 -91 
Q 1284 -91 818 406 
Q 353 903 353 1747 
Q 353 2603 823 3093 
Q 1294 3584 2113 3584 
Q 2378 3584 2631 3529 
Q 2884 3475 3122 3366 
z
" transform="scale(0.015625)"/>
       <path id="DejaVuSans-70" d="M 1159 525 
L 1159 -1331 
L 581 -1331 
L 581 3500 
L 1159 3500 
L 1159 2969 
Q 1341 3281 1617 3432 
Q 1894 3584 2278 3584 
Q 2916 3584 3314 3078 
Q 3713 2572 3713 1747 
Q 3713 922 3314 415 
Q 2916 -91 2278 -91 
Q 1894 -91 1617 61 
Q 1341 213 1159 525 
z
M 3116 1747 
Q 3116 2381 2855 2742 
Q 2594 3103 2138 3103 
Q 1681 3103 1420 2742 
Q 1159 2381 1159 1747 
Q 1159 1113 1420 752 
Q 1681 391 2138 391 
Q 2594 391 2855 752 
Q 3116 1113 3116 1747 
z
" transform="scale(0.015625)"/>
       <path id="DejaVuSans-2f" d="M 1625 4666 
L 2156 4666 
L 531 -594 
L 0 -594 
L 1625 4666 
z
" transform="scale(0.015625)"/>
       <path id="DejaVuSans-4c" d="M 628 4666 
L 1259 4666 
L 1259 531 
L 3531 531 
L 3531 0 
L 628 0 
L 628 4666 
z
" transform="scale(0.015625)"/>
      </defs>
      <use xlink:href="#DejaVuSans-56" transform="translate(0 0.015625)"/>
      <use xlink:href="#DejaVuSans-69" transform="translate(68.408203 0.015625)"/>
      <use xlink:href="#DejaVuSans-72" transform="translate(96.191406 0.015625)"/>
      <use xlink:href="#DejaVuSans-75" transform="translate(137.304688 0.015625)"/>
      <use xlink:href="#DejaVuSans-73" transform="translate(200.683594 0.015625)"/>
      <use xlink:href="#DejaVuSans-20" transform="translate(252.783203 0.015625)"/>
      <use xlink:href="#DejaVuSans-28" transform="translate(284.570312 0.015625)"/>
      <use xlink:href="#DejaVuSans-6c" transform="translate(323.583984 0.015625)"/>
      <use xlink:href="#DejaVuSans-6f" transform="translate(351.367188 0.015625)"/>
      <use xlink:href="#DejaVuSans-67" transform="translate(412.548828 0.015625)"/>
      <use xlink:href="#DejaVuSans-31" transform="translate(476.982422 -16.390625) scale(0.7)"/>
      <use xlink:href="#DejaVuSans-30" transform="translate(521.518555 -16.390625) scale(0.7)"/>
      <use xlink:href="#DejaVuSans-20" transform="translate(568.789062 0.015625)"/>
      <use xlink:href="#DejaVuSans-63" transform="translate(600.576172 0.015625)"/>
      <use xlink:href="#DejaVuSans-6f" transform="translate(655.556641 0.015625)"/>
      <use xlink:href="#DejaVuSans-70" transform="translate(716.738281 0.015625)"/>
      <use xlink:href="#DejaVuSans-69" transform="translate(780.214844 0.015625)"/>
      <use xlink:href="#DejaVuSans-65" transform="translate(807.998047 0.015625)"/>
      <use xlink:href="#DejaVuSans-73" transform="translate(869.521484 0.015625)"/>
      <use xlink:href="#DejaVuSans-2f" transform="translate(921.621094 0.015625)"/>
      <use xlink:href="#DejaVuSans-6d" transform="translate(955.3125 0.015625)"/>
      <use xlink:href="#DejaVuSans-4c" transform="translate(1052.724609 0.015625)"/>
      <use xlink:href="#DejaVuSans-29" transform="translate(1108.4375 0.015625)"/>
     </g>
    </g>
   </g>
   <g id="patch_3">
    <path d="M 59.96 297.16 
L 59.96 36 
" style="fill: none; stroke: #000000; stroke-width: 0.8; stroke-linejoin: miter; stroke-linecap: square"/>
   </g>
   <g id="patch_4">
    <path d="M 340.567439 297.16 
L 340.567439 36 
" style="fill: none; stroke: #000000; stroke-width: 0.8; stroke-linejoin: miter; stroke-linecap: square"/>
   </g>
   <g id="patch_5">
    <path d="M 59.96 297.16 
L 340.567439 297.16 
" style="fill: none; stroke: #000000; stroke-width: 0.8; stroke-linejoin: miter; stroke-linecap: square"/>
   </g>
   <g id="patch_6">
    <path d="M 59.96 36 
L 340.567439 36 
" style="fill: none; stroke: #000000; stroke-width: 0.8; stroke-linejoin: miter; stroke-linecap: square"/>
   </g>
   <g id="PolyCollection_1">
    <defs>
     <path id="m4774b7a4a1" d="M 63.010081 -62.84 
L 63.010081 -62.84 
L 63.010559 -62.84 
L 63.015337 -62.84 
L 63.063118 -62.84 
L 63.269023 -62.84 
L 63.474929 -62.84 
L 64.102139 -62.84 
L 64.536178 -62.84 
L 65.696339 -62.84 
L 66.296521 -62.84 
L 67.681551 -62.84 
L 68.371168 -62.84 
L 69.695538 -62.84 
L 70.471861 -62.84 
L 71.828712 -62.84 
L 72.668089 -62.84 
L 74.017166 -69.972464 
L 74.907965 -75.32135 
L 76.259537 -83.518463 
L 77.188414 -89.116379 
L 78.535931 -97.239272 
L 79.493168 -102.895918 
L 80.969677 -111.670574 
L 81.9101 -117.227935 
L 83.200629 -124.864172 
L 84.177193 -130.622938 
L 85.582789 -138.929191 
L 86.553872 -144.633433 
L 87.87114 -152.345603 
L 88.867364 -158.127544 
L 90.294993 -166.321564 
L 91.293266 -171.93519 
L 92.678062 -179.454087 
L 93.713916 -184.821519 
L 95.226446 -191.972323 
L 96.258974 -196.364767 
L 97.676195 -201.388028 
L 98.744439 -204.512445 
L 100.308184 -207.413266 
L 101.347172 -208.752371 
L 102.576197 -209.848628 
L 103.563823 -210.443419 
L 104.701144 -210.879857 
L 105.838465 -211.110847 
L 106.808453 -211.152157 
L 107.629885 -211.11271 
L 108.374343 -211.016458 
L 109.025547 -210.889614 
L 109.676751 -210.736271 
L 110.208664 -210.587893 
L 110.687876 -210.441429 
L 111.167088 -210.294965 
L 111.557078 -210.16282 
L 111.99694 -210.001363 
L 112.344735 -209.869125 
L 113.517318 -209.401485 
L 113.996967 -209.187613 
L 115.414144 -208.537656 
L 116.033375 -208.228789 
L 117.765451 -207.335313 
L 118.6009 -206.880387 
L 120.756914 -205.644838 
L 121.862236 -204.98151 
L 124.31791 -203.452139 
L 125.643901 -202.600015 
L 128.693982 -200.551406 
L 130.235878 -199.429657 
L 133.285959 -197.177725 
L 135.131654 -195.789347 
L 138.181735 -193.467613 
L 140.084371 -192.003401 
L 143.134452 -189.632448 
L 145.173728 -188.03275 
L 148.223809 -185.624171 
L 150.487935 -183.82177 
L 153.538016 -181.374558 
L 155.950945 -179.420124 
L 159.001026 -176.917987 
L 162.051107 -174.368753 
L 165.101188 -171.751778 
L 168.151269 -169.035722 
L 171.201349 -166.173292 
L 174.25143 -163.092069 
L 177.301511 -159.676884 
L 180.351592 -155.731586 
L 183.401673 -150.793194 
L 186.451754 -138.76231 
L 189.501835 -102.75285 
L 190.111851 -62.84 
L 191.636891 -62.84 
L 191.783217 -62.84 
L 191.928116 -62.84 
L 191.93031 -62.84 
L 191.952253 -62.84 
L 191.985275 -62.84 
L 192.006017 -62.84 
L 192.011882 -62.84 
L 192.018657 -62.84 
L 192.03416 -62.84 
L 192.049664 -62.84 
L 192.07776 -62.84 
L 192.112036 -62.84 
L 192.233692 -62.84 
L 192.322822 -62.84 
L 192.505911 -62.84 
L 192.649078 -62.84 
L 192.989037 -62.84 
L 193.351298 -62.84 
L 194.563651 -62.84 
L 196.117433 -62.84 
L 198.732167 -62.84 
L 201.346901 -62.84 
L 204.396982 -62.84 
L 207.447063 -62.84 
L 210.497144 -62.84 
L 213.547225 -62.84 
L 216.597306 -62.84 
L 219.647386 -62.84 
L 222.697467 -62.84 
L 225.747548 -62.84 
L 228.797629 -62.84 
L 231.84771 -62.84 
L 234.897791 -62.84 
L 237.947872 -62.84 
L 240.997952 -62.84 
L 244.048033 -62.84 
L 247.098114 -62.84 
L 250.148195 -62.84 
L 253.198276 -62.84 
L 256.248357 -62.84 
L 259.298438 -62.84 
L 262.348518 -62.84 
L 265.398599 -62.84 
L 268.44868 -62.84 
L 271.498761 -62.84 
L 274.548842 -62.84 
L 277.598923 -62.84 
L 280.649004 -62.84 
L 283.699084 -62.84 
L 286.749165 -62.84 
L 289.799246 -62.84 
L 292.849327 -62.84 
L 295.899408 -62.84 
L 298.949489 -62.84 
L 301.99957 -62.84 
L 305.04965 -62.84 
L 308.099731 -62.84 
L 311.149812 -62.84 
L 314.199893 -62.84 
L 317.249974 -62.84 
L 320.300055 -62.84 
L 323.350136 -62.84 
L 326.400216 -62.84 
L 329.450297 -62.84 
L 332.500378 -62.84 
L 335.550459 -62.84 
L 337.517358 -62.84 
L 337.517358 -62.84 
L 337.517358 -62.84 
L 335.550459 -62.84 
L 332.500378 -62.84 
L 329.450297 -62.84 
L 326.400216 -62.84 
L 323.350136 -62.84 
L 320.300055 -62.84 
L 317.249974 -62.84 
L 314.199893 -62.84 
L 311.149812 -62.84 
L 308.099731 -62.84 
L 305.04965 -62.84 
L 301.99957 -62.84 
L 298.949489 -62.84 
L 295.899408 -62.84 
L 292.849327 -62.84 
L 289.799246 -62.84 
L 286.749165 -62.84 
L 283.699084 -62.84 
L 280.649004 -62.84 
L 277.598923 -62.84 
L 274.548842 -62.84 
L 271.498761 -62.84 
L 268.44868 -62.84 
L 265.398599 -62.84 
L 262.348518 -62.84 
L 259.298438 -62.84 
L 256.248357 -62.84 
L 253.198276 -62.84 
L 250.148195 -62.84 
L 247.098114 -62.84 
L 244.048033 -62.84 
L 240.997952 -62.84 
L 237.947872 -62.84 
L 234.897791 -62.84 
L 231.84771 -62.84 
L 228.797629 -62.84 
L 225.747548 -62.84 
L 222.697467 -62.84 
L 219.647386 -62.84 
L 216.597306 -62.84 
L 213.547225 -62.84 
L 210.497144 -62.84 
L 207.447063 -62.84 
L 204.396982 -62.84 
L 201.346901 -62.84 
L 198.732167 -62.84 
L 196.117433 -117.811248 
L 194.563651 -129.715179 
L 193.351298 -136.311769 
L 192.989037 -137.470287 
L 192.649078 -138.557482 
L 192.505911 -139.01533 
L 192.322822 -139.600852 
L 192.233692 -139.885893 
L 192.112036 -140.274949 
L 192.07776 -140.384565 
L 192.049664 -140.474418 
L 192.03416 -140.523998 
L 192.018657 -140.573579 
L 192.011882 -140.595242 
L 192.006017 -140.614001 
L 191.985275 -140.680332 
L 191.952253 -140.78594 
L 191.93031 -140.856112 
L 191.928116 -140.863129 
L 191.783217 -141.326517 
L 191.636891 -141.79447 
L 190.111851 -146.234572 
L 189.501835 -147.914239 
L 186.451754 -153.99128 
L 183.401673 -158.579178 
L 180.351592 -162.359878 
L 177.301511 -165.648316 
L 174.25143 -168.616738 
L 171.201349 -171.369551 
L 168.151269 -173.974255 
L 165.101188 -176.476183 
L 162.051107 -178.906317 
L 159.001026 -181.285816 
L 155.950945 -183.628826 
L 153.538016 -185.462083 
L 150.487935 -187.759707 
L 148.223809 -189.450613 
L 145.173728 -191.712296 
L 143.134452 -193.212571 
L 140.084371 -195.436273 
L 138.181735 -196.807796 
L 135.131654 -198.980304 
L 133.285959 -200.271983 
L 130.235878 -202.370024 
L 128.693982 -203.40208 
L 125.643901 -205.39463 
L 124.31791 -206.262847 
L 121.862236 -207.869097 
L 120.756914 -208.563929 
L 118.6009 -209.856151 
L 117.765451 -210.332128 
L 116.033375 -211.264518 
L 115.414144 -211.580273 
L 113.996967 -212.261521 
L 113.517318 -212.483522 
L 112.344735 -212.968446 
L 111.99694 -213.106926 
L 111.557078 -213.273667 
L 111.167088 -213.410615 
L 110.687876 -213.567444 
L 110.208664 -213.71219 
L 109.676751 -213.856756 
L 109.025547 -214.008736 
L 108.374343 -214.131588 
L 107.629885 -214.230551 
L 106.808453 -214.282437 
L 105.838465 -214.252638 
L 104.701144 -214.066542 
L 103.563823 -213.679652 
L 102.576197 -213.150437 
L 101.347172 -212.272231 
L 100.308184 -211.347945 
L 98.744439 -209.092348 
L 97.676195 -206.989832 
L 96.258974 -203.075498 
L 95.226446 -199.678945 
L 93.713916 -193.291732 
L 92.678062 -188.372877 
L 91.293266 -180.954052 
L 90.294993 -175.317282 
L 88.867364 -166.848747 
L 87.87114 -160.814875 
L 86.553872 -152.704255 
L 85.582789 -146.680428 
L 84.177193 -137.894495 
L 83.200629 -131.777964 
L 81.9101 -123.680686 
L 80.969677 -117.780902 
L 79.493168 -108.532327 
L 78.535931 -102.554931 
L 77.188414 -94.125594 
L 76.259537 -88.331651 
L 74.907965 -79.873167 
L 74.017166 -74.319451 
L 72.668089 -65.874527 
L 71.828712 -63.231581 
L 70.471861 -62.84 
L 69.695538 -62.84 
L 68.371168 -62.84 
L 67.681551 -62.84 
L 66.296521 -62.84 
L 65.696339 -62.84 
L 64.536178 -62.84 
L 64.102139 -62.84 
L 63.474929 -62.84 
L 63.269023 -62.84 
L 63.063118 -62.84 
L 63.015337 -62.84 
L 63.010559 -62.84 
L 63.010081 -62.84 
z
" style="stroke: #ff8c00; stroke-opacity: 0.2"/>
    </defs>
    <g clip-path="url(#pd8c4715be5)">
     <use xlink:href="#m4774b7a4a1" x="0" y="360" style="fill: #ff8c00; fill-opacity: 0.2; stroke: #ff8c00; stroke-opacity: 0.2"/>
    </g>
   </g>
   <g id="PathCollection_1">
    <defs>
     <path id="m9dff693a06" d="M 0 4.330127 
C 1.148363 4.330127 2.249847 3.873878 3.061862 3.061862 
C 3.873878 2.249847 4.330127 1.148363 4.330127 0 
C 4.330127 -1.148363 3.873878 -2.249847 3.061862 -3.061862 
C 2.249847 -3.873878 1.148363 -4.330127 0 -4.330127 
C -1.148363 -4.330127 -2.249847 -3.873878 -3.061862 -3.061862 
C -3.873878 -2.249847 -4.330127 -1.148363 -4.330127 0 
C -4.330127 1.148363 -3.873878 2.249847 -3.061862 3.061862 
C -2.249847 3.873878 -1.148363 4.330127 0 4.330127 
z
" style="stroke: #ff8c00; stroke-opacity: 0.8"/>
    </defs>
    <g clip-path="url(#pd8c4715be5)">
     <use xlink:href="#m9dff693a06" x="63.010081" y="297.16" style="fill: #ff8c00; fill-opacity: 0.8; stroke: #ff8c00; stroke-opacity: 0.8"/>
     <use xlink:href="#m9dff693a06" x="93.510889" y="172.32779" style="fill: #ff8c00; fill-opacity: 0.8; stroke: #ff8c00; stroke-opacity: 0.8"/>
     <use xlink:href="#m9dff693a06" x="124.011698" y="142.243525" style="fill: #ff8c00; fill-opacity: 0.8; stroke: #ff8c00; stroke-opacity: 0.8"/>
     <use xlink:href="#m9dff693a06" x="154.512507" y="192.766784" style="fill: #ff8c00; fill-opacity: 0.8; stroke: #ff8c00; stroke-opacity: 0.8"/>
     <use xlink:href="#m9dff693a06" x="185.013315" y="201.363298" style="fill: #ff8c00; fill-opacity: 0.8; stroke: #ff8c00; stroke-opacity: 0.8"/>
     <use xlink:href="#m9dff693a06" x="215.514124" y="297.16" style="fill: #ff8c00; fill-opacity: 0.8; stroke: #ff8c00; stroke-opacity: 0.8"/>
     <use xlink:href="#m9dff693a06" x="246.014932" y="297.16" style="fill: #ff8c00; fill-opacity: 0.8; stroke: #ff8c00; stroke-opacity: 0.8"/>
     <use xlink:href="#m9dff693a06" x="276.515741" y="297.16" style="fill: #ff8c00; fill-opacity: 0.8; stroke: #ff8c00; stroke-opacity: 0.8"/>
    </g>
   </g>
   <g id="line2d_16">
    <path d="M 63.010081 297.16 
L 71.828712 297.16 
L 72.668089 295.20091 
L 88.867364 197.840584 
L 91.293266 183.891267 
L 93.713916 171.053025 
L 95.226446 164.060351 
L 96.258974 159.926095 
L 97.676195 155.250483 
L 98.744439 152.496446 
L 100.308184 149.574002 
L 101.347172 148.232377 
L 102.576197 147.129233 
L 103.563823 146.539259 
L 104.701144 146.111327 
L 105.838465 145.894861 
L 107.629885 145.879418 
L 109.676751 146.220566 
L 111.557078 146.779572 
L 113.996967 147.761191 
L 116.033375 148.748077 
L 118.6009 150.156383 
L 121.862236 152.14346 
L 125.643901 154.648912 
L 130.235878 157.893533 
L 138.181735 163.839226 
L 148.223809 171.696683 
L 155.950945 177.930324 
L 162.051107 183.020671 
L 168.151269 188.413076 
L 171.201349 191.316879 
L 174.25143 194.450654 
L 177.301511 197.93364 
L 180.351592 201.968693 
L 183.401673 206.943004 
L 186.451754 213.756985 
L 189.501835 225.56619 
L 190.111851 229.591585 
L 191.636891 251.880107 
L 191.93031 268.424879 
L 192.233692 297.16 
L 337.517358 297.16 
L 337.517358 297.16 
" clip-path="url(#pd8c4715be5)" style="fill: none; stroke: #ff8c00; stroke-width: 1.5; stroke-linecap: square"/>
   </g>
  </g>
  <g id="axes_2">
   <g id="patch_7">
    <path d="M 422.83752 297.16 
L 703.444959 297.16 
L 703.444959 36 
L 422.83752 36 
z
" style="fill: #ffffff"/>
   </g>
   <g id="matplotlib.axis_3">
    <g id="xtick_11">
     <g id="line2d_17">
      <g>
       <use xlink:href="#m4a25653b18" x="425.887601" y="297.16" style="stroke: #000000; stroke-width: 0.8"/>
      </g>
     </g>
     <g id="text_18">
      <!-- 0 -->
      <g transform="translate(420.161351 317.837188) scale(0.18 -0.18)">
       <use xlink:href="#DejaVuSans-30"/>
      </g>
     </g>
    </g>
    <g id="xtick_12">
     <g id="line2d_18">
      <g>
       <use xlink:href="#m4a25653b18" x="456.38841" y="297.16" style="stroke: #000000; stroke-width: 0.8"/>
      </g>
     </g>
     <g id="text_19">
      <!-- 1 -->
      <g transform="translate(450.66216 317.837188) scale(0.18 -0.18)">
       <use xlink:href="#DejaVuSans-31"/>
      </g>
     </g>
    </g>
    <g id="xtick_13">
     <g id="line2d_19">
      <g>
       <use xlink:href="#m4a25653b18" x="486.889218" y="297.16" style="stroke: #000000; stroke-width: 0.8"/>
      </g>
     </g>
     <g id="text_20">
      <!-- 2 -->
      <g transform="translate(481.162968 317.837188) scale(0.18 -0.18)">
       <use xlink:href="#DejaVuSans-32"/>
      </g>
     </g>
    </g>
    <g id="xtick_14">
     <g id="line2d_20">
      <g>
       <use xlink:href="#m4a25653b18" x="517.390027" y="297.16" style="stroke: #000000; stroke-width: 0.8"/>
      </g>
     </g>
     <g id="text_21">
      <!-- 3 -->
      <g transform="translate(511.663777 317.837188) scale(0.18 -0.18)">
       <use xlink:href="#DejaVuSans-33"/>
      </g>
     </g>
    </g>
    <g id="xtick_15">
     <g id="line2d_21">
      <g>
       <use xlink:href="#m4a25653b18" x="547.890836" y="297.16" style="stroke: #000000; stroke-width: 0.8"/>
      </g>
     </g>
     <g id="text_22">
      <!-- 4 -->
      <g transform="translate(542.164586 317.837188) scale(0.18 -0.18)">
       <use xlink:href="#DejaVuSans-34"/>
      </g>
     </g>
    </g>
    <g id="xtick_16">
     <g id="line2d_22">
      <g>
       <use xlink:href="#m4a25653b18" x="578.391644" y="297.16" style="stroke: #000000; stroke-width: 0.8"/>
      </g>
     </g>
     <g id="text_23">
      <!-- 5 -->
      <g transform="translate(572.665394 317.837188) scale(0.18 -0.18)">
       <use xlink:href="#DejaVuSans-35"/>
      </g>
     </g>
    </g>
    <g id="xtick_17">
     <g id="line2d_23">
      <g>
       <use xlink:href="#m4a25653b18" x="608.892453" y="297.16" style="stroke: #000000; stroke-width: 0.8"/>
      </g>
     </g>
     <g id="text_24">
      <!-- 6 -->
      <g transform="translate(603.166203 317.837188) scale(0.18 -0.18)">
       <use xlink:href="#DejaVuSans-36"/>
      </g>
     </g>
    </g>
    <g id="xtick_18">
     <g id="line2d_24">
      <g>
       <use xlink:href="#m4a25653b18" x="639.393261" y="297.16" style="stroke: #000000; stroke-width: 0.8"/>
      </g>
     </g>
     <g id="text_25">
      <!-- 7 -->
      <g transform="translate(633.667011 317.837188) scale(0.18 -0.18)">
       <use xlink:href="#DejaVuSans-37"/>
      </g>
     </g>
    </g>
    <g id="xtick_19">
     <g id="line2d_25">
      <g>
       <use xlink:href="#m4a25653b18" x="669.89407" y="297.16" style="stroke: #000000; stroke-width: 0.8"/>
      </g>
     </g>
     <g id="text_26">
      <!-- 8 -->
      <g transform="translate(664.16782 317.837188) scale(0.18 -0.18)">
       <use xlink:href="#DejaVuSans-38"/>
      </g>
     </g>
    </g>
    <g id="xtick_20">
     <g id="line2d_26">
      <g>
       <use xlink:href="#m4a25653b18" x="700.394878" y="297.16" style="stroke: #000000; stroke-width: 0.8"/>
      </g>
     </g>
     <g id="text_27">
      <!-- 9 -->
      <g transform="translate(694.668628 317.837188) scale(0.18 -0.18)">
       <use xlink:href="#DejaVuSans-39"/>
      </g>
     </g>
    </g>
    <g id="text_28">
     <!-- Time (d) -->
     <g transform="translate(512.98499 343.816875) scale(0.24 -0.24)">
      <use xlink:href="#DejaVuSans-54"/>
      <use xlink:href="#DejaVuSans-69" x="57.958984"/>
      <use xlink:href="#DejaVuSans-6d" x="85.742188"/>
      <use xlink:href="#DejaVuSans-65" x="183.154297"/>
      <use xlink:href="#DejaVuSans-20" x="244.677734"/>
      <use xlink:href="#DejaVuSans-28" x="276.464844"/>
      <use xlink:href="#DejaVuSans-64" x="315.478516"/>
      <use xlink:href="#DejaVuSans-29" x="378.955078"/>
     </g>
    </g>
   </g>
   <g id="matplotlib.axis_4">
    <g id="ytick_6">
     <g id="line2d_27">
      <g>
       <use xlink:href="#mf5b8574c62" x="422.83752" y="297.16" style="stroke: #000000; stroke-width: 0.8"/>
      </g>
     </g>
     <g id="text_29">
      <!-- 4.0 -->
      <g transform="translate(387.211895 303.998594) scale(0.18 -0.18)">
       <defs>
        <path id="DejaVuSans-2e" d="M 684 794 
L 1344 794 
L 1344 0 
L 684 0 
L 684 794 
z
" transform="scale(0.015625)"/>
       </defs>
       <use xlink:href="#DejaVuSans-34"/>
       <use xlink:href="#DejaVuSans-2e" x="63.623047"/>
       <use xlink:href="#DejaVuSans-30" x="95.410156"/>
      </g>
     </g>
    </g>
    <g id="ytick_7">
     <g id="line2d_28">
      <g>
       <use xlink:href="#mf5b8574c62" x="422.83752" y="259.851429" style="stroke: #000000; stroke-width: 0.8"/>
      </g>
     </g>
     <g id="text_30">
      <!-- 4.5 -->
      <g transform="translate(387.211895 266.690022) scale(0.18 -0.18)">
       <use xlink:href="#DejaVuSans-34"/>
       <use xlink:href="#DejaVuSans-2e" x="63.623047"/>
       <use xlink:href="#DejaVuSans-35" x="95.410156"/>
      </g>
     </g>
    </g>
    <g id="ytick_8">
     <g id="line2d_29">
      <g>
       <use xlink:href="#mf5b8574c62" x="422.83752" y="222.542857" style="stroke: #000000; stroke-width: 0.8"/>
      </g>
     </g>
     <g id="text_31">
      <!-- 5.0 -->
      <g transform="translate(387.211895 229.381451) scale(0.18 -0.18)">
       <use xlink:href="#DejaVuSans-35"/>
       <use xlink:href="#DejaVuSans-2e" x="63.623047"/>
       <use xlink:href="#DejaVuSans-30" x="95.410156"/>
      </g>
     </g>
    </g>
    <g id="ytick_9">
     <g id="line2d_30">
      <g>
       <use xlink:href="#mf5b8574c62" x="422.83752" y="185.234286" style="stroke: #000000; stroke-width: 0.8"/>
      </g>
     </g>
     <g id="text_32">
      <!-- 5.5 -->
      <g transform="translate(387.211895 192.072879) scale(0.18 -0.18)">
       <use xlink:href="#DejaVuSans-35"/>
       <use xlink:href="#DejaVuSans-2e" x="63.623047"/>
       <use xlink:href="#DejaVuSans-35" x="95.410156"/>
      </g>
     </g>
    </g>
    <g id="ytick_10">
     <g id="line2d_31">
      <g>
       <use xlink:href="#mf5b8574c62" x="422.83752" y="147.925714" style="stroke: #000000; stroke-width: 0.8"/>
      </g>
     </g>
     <g id="text_33">
      <!-- 6.0 -->
      <g transform="translate(387.211895 154.764308) scale(0.18 -0.18)">
       <use xlink:href="#DejaVuSans-36"/>
       <use xlink:href="#DejaVuSans-2e" x="63.623047"/>
       <use xlink:href="#DejaVuSans-30" x="95.410156"/>
      </g>
     </g>
    </g>
    <g id="ytick_11">
     <g id="line2d_32">
      <g>
       <use xlink:href="#mf5b8574c62" x="422.83752" y="110.617143" style="stroke: #000000; stroke-width: 0.8"/>
      </g>
     </g>
     <g id="text_34">
      <!-- 6.5 -->
      <g transform="translate(387.211895 117.455737) scale(0.18 -0.18)">
       <use xlink:href="#DejaVuSans-36"/>
       <use xlink:href="#DejaVuSans-2e" x="63.623047"/>
       <use xlink:href="#DejaVuSans-35" x="95.410156"/>
      </g>
     </g>
    </g>
    <g id="ytick_12">
     <g id="line2d_33">
      <g>
       <use xlink:href="#mf5b8574c62" x="422.83752" y="73.308571" style="stroke: #000000; stroke-width: 0.8"/>
      </g>
     </g>
     <g id="text_35">
      <!-- 7.0 -->
      <g transform="translate(387.211895 80.147165) scale(0.18 -0.18)">
       <use xlink:href="#DejaVuSans-37"/>
       <use xlink:href="#DejaVuSans-2e" x="63.623047"/>
       <use xlink:href="#DejaVuSans-30" x="95.410156"/>
      </g>
     </g>
    </g>
    <g id="ytick_13">
     <g id="line2d_34">
      <g>
       <use xlink:href="#mf5b8574c62" x="422.83752" y="36" style="stroke: #000000; stroke-width: 0.8"/>
      </g>
     </g>
     <g id="text_36">
      <!-- 7.5 -->
      <g transform="translate(387.211895 42.838594) scale(0.18 -0.18)">
       <use xlink:href="#DejaVuSans-37"/>
       <use xlink:href="#DejaVuSans-2e" x="63.623047"/>
       <use xlink:href="#DejaVuSans-35" x="95.410156"/>
      </g>
     </g>
    </g>
    <g id="text_37">
     <!-- CD8$^+$ TE (log$_{10}$ cells) -->
     <g transform="translate(378.171895 294.74) rotate(-90) scale(0.24 -0.24)">
      <defs>
       <path id="DejaVuSans-43" d="M 4122 4306 
L 4122 3641 
Q 3803 3938 3442 4084 
Q 3081 4231 2675 4231 
Q 1875 4231 1450 3742 
Q 1025 3253 1025 2328 
Q 1025 1406 1450 917 
Q 1875 428 2675 428 
Q 3081 428 3442 575 
Q 3803 722 4122 1019 
L 4122 359 
Q 3791 134 3420 21 
Q 3050 -91 2638 -91 
Q 1578 -91 968 557 
Q 359 1206 359 2328 
Q 359 3453 968 4101 
Q 1578 4750 2638 4750 
Q 3056 4750 3426 4639 
Q 3797 4528 4122 4306 
z
" transform="scale(0.015625)"/>
       <path id="DejaVuSans-44" d="M 1259 4147 
L 1259 519 
L 2022 519 
Q 2988 519 3436 956 
Q 3884 1394 3884 2338 
Q 3884 3275 3436 3711 
Q 2988 4147 2022 4147 
L 1259 4147 
z
M 628 4666 
L 1925 4666 
Q 3281 4666 3915 4102 
Q 4550 3538 4550 2338 
Q 4550 1131 3912 565 
Q 3275 0 1925 0 
L 628 0 
L 628 4666 
z
" transform="scale(0.015625)"/>
       <path id="DejaVuSans-2b" d="M 2944 4013 
L 2944 2272 
L 4684 2272 
L 4684 1741 
L 2944 1741 
L 2944 0 
L 2419 0 
L 2419 1741 
L 678 1741 
L 678 2272 
L 2419 2272 
L 2419 4013 
L 2944 4013 
z
" transform="scale(0.015625)"/>
       <path id="DejaVuSans-45" d="M 628 4666 
L 3578 4666 
L 3578 4134 
L 1259 4134 
L 1259 2753 
L 3481 2753 
L 3481 2222 
L 1259 2222 
L 1259 531 
L 3634 531 
L 3634 0 
L 628 0 
L 628 4666 
z
" transform="scale(0.015625)"/>
      </defs>
      <use xlink:href="#DejaVuSans-43" transform="translate(0 0.826562)"/>
      <use xlink:href="#DejaVuSans-44" transform="translate(69.824219 0.826562)"/>
      <use xlink:href="#DejaVuSans-38" transform="translate(146.826172 0.826562)"/>
      <use xlink:href="#DejaVuSans-2b" transform="translate(225.043945 39.107812) scale(0.7)"/>
      <use xlink:href="#DejaVuSans-20" transform="translate(300.068359 0.826562)"/>
      <use xlink:href="#DejaVuSans-54" transform="translate(331.855469 0.826562)"/>
      <use xlink:href="#DejaVuSans-45" transform="translate(392.939453 0.826562)"/>
      <use xlink:href="#DejaVuSans-20" transform="translate(456.123047 0.826562)"/>
      <use xlink:href="#DejaVuSans-28" transform="translate(487.910156 0.826562)"/>
      <use xlink:href="#DejaVuSans-6c" transform="translate(526.923828 0.826562)"/>
      <use xlink:href="#DejaVuSans-6f" transform="translate(554.707031 0.826562)"/>
      <use xlink:href="#DejaVuSans-67" transform="translate(615.888672 0.826562)"/>
      <use xlink:href="#DejaVuSans-31" transform="translate(680.322266 -15.579688) scale(0.7)"/>
      <use xlink:href="#DejaVuSans-30" transform="translate(724.858398 -15.579688) scale(0.7)"/>
      <use xlink:href="#DejaVuSans-20" transform="translate(772.128906 0.826562)"/>
      <use xlink:href="#DejaVuSans-63" transform="translate(803.916016 0.826562)"/>
      <use xlink:href="#DejaVuSans-65" transform="translate(858.896484 0.826562)"/>
      <use xlink:href="#DejaVuSans-6c" transform="translate(920.419922 0.826562)"/>
      <use xlink:href="#DejaVuSans-6c" transform="translate(948.203125 0.826562)"/>
      <use xlink:href="#DejaVuSans-73" transform="translate(975.986328 0.826562)"/>
      <use xlink:href="#DejaVuSans-29" transform="translate(1028.085938 0.826562)"/>
     </g>
    </g>
   </g>
   <g id="patch_8">
    <path d="M 422.83752 297.16 
L 422.83752 36 
" style="fill: none; stroke: #000000; stroke-width: 0.8; stroke-linejoin: miter; stroke-linecap: square"/>
   </g>
   <g id="patch_9">
    <path d="M 703.444959 297.16 
L 703.444959 36 
" style="fill: none; stroke: #000000; stroke-width: 0.8; stroke-linejoin: miter; stroke-linecap: square"/>
   </g>
   <g id="patch_10">
    <path d="M 422.83752 297.16 
L 703.444959 297.16 
" style="fill: none; stroke: #000000; stroke-width: 0.8; stroke-linejoin: miter; stroke-linecap: square"/>
   </g>
   <g id="patch_11">
    <path d="M 422.83752 36 
L 703.444959 36 
" style="fill: none; stroke: #000000; stroke-width: 0.8; stroke-linejoin: miter; stroke-linecap: square"/>
   </g>
   <g id="PolyCollection_2">
    <defs>
     <path id="m91547f407f" d="M 425.887601 -145.996527 
L 425.887601 -145.996527 
L 425.888079 -145.996527 
L 425.892857 -145.996527 
L 425.940639 -145.996527 
L 426.146544 -145.996527 
L 426.352449 -145.996527 
L 426.979659 -145.996527 
L 427.413698 -145.996527 
L 428.573859 -145.996527 
L 429.174041 -145.996527 
L 430.559071 -145.996527 
L 431.248688 -145.996527 
L 432.573059 -145.996527 
L 433.349381 -145.996527 
L 434.706232 -145.996527 
L 435.545609 -145.996527 
L 436.894686 -145.996527 
L 437.785485 -145.996527 
L 439.137057 -145.996527 
L 440.065935 -145.996527 
L 441.413452 -145.996527 
L 442.370688 -145.996527 
L 443.847197 -145.996527 
L 444.787621 -145.996527 
L 446.078149 -145.996527 
L 447.054714 -145.996527 
L 448.460309 -145.996527 
L 449.431393 -145.996527 
L 450.74866 -145.996527 
L 451.744884 -145.996527 
L 453.172513 -145.996527 
L 454.170787 -145.996527 
L 455.555583 -145.996528 
L 456.591436 -145.996528 
L 458.103966 -145.996528 
L 459.136495 -145.996529 
L 460.553716 -145.99653 
L 461.621959 -145.996531 
L 463.185704 -145.996535 
L 464.224692 -145.99654 
L 465.453717 -145.996549 
L 466.441343 -145.99656 
L 467.578664 -145.996581 
L 468.715985 -145.996615 
L 469.685973 -145.996659 
L 470.507405 -145.996712 
L 471.251863 -145.996778 
L 471.903067 -145.996855 
L 472.554271 -145.996954 
L 473.086184 -145.997055 
L 473.565396 -145.997167 
L 474.044608 -145.9973 
L 474.434598 -145.997429 
L 474.87446 -145.997619 
L 475.222256 -145.997786 
L 476.394838 -145.998458 
L 476.874487 -145.9989 
L 478.291664 -146.000448 
L 478.910895 -146.001623 
L 480.642971 -146.005674 
L 481.478421 -146.009476 
L 483.634435 -146.021785 
L 484.739756 -146.033424 
L 487.19543 -146.071697 
L 488.521421 -146.110303 
L 491.571502 -146.243628 
L 493.113398 -146.368564 
L 496.163479 -146.725973 
L 498.009174 -147.091391 
L 501.059255 -147.952321 
L 502.961891 -148.734277 
L 506.011972 -150.473584 
L 508.051248 -152.034303 
L 511.101329 -155.022247 
L 513.365455 -157.802781 
L 516.415536 -162.15419 
L 518.828465 -166.060198 
L 521.878546 -171.366389 
L 524.928627 -177.11102 
L 527.978708 -183.006842 
L 531.028789 -188.893639 
L 534.07887 -194.624588 
L 537.128951 -200.115811 
L 540.179032 -205.341447 
L 543.229112 -210.279919 
L 546.279193 -214.752447 
L 549.329274 -218.719172 
L 552.379355 -222.348767 
L 552.989371 -223.024997 
L 554.514412 -224.715574 
L 554.660738 -224.877783 
L 554.805636 -225.029511 
L 554.80783 -225.031805 
L 554.829773 -225.054744 
L 554.862796 -225.089268 
L 554.883537 -225.110952 
L 554.889403 -225.117084 
L 554.896177 -225.124166 
L 554.91168 -225.140374 
L 554.927184 -225.156583 
L 554.95528 -225.185956 
L 554.989556 -225.22179 
L 555.111212 -225.348974 
L 555.200343 -225.442155 
L 555.383432 -225.63129 
L 555.526598 -225.777968 
L 555.866557 -226.126267 
L 556.228819 -226.489555 
L 557.441171 -227.68206 
L 558.994954 -229.130467 
L 561.609688 -231.390617 
L 564.224422 -233.452396 
L 567.274502 -235.592148 
L 570.324583 -237.474618 
L 573.374664 -239.108798 
L 576.424745 -240.510444 
L 579.474826 -241.693531 
L 582.524907 -242.671717 
L 585.574988 -243.458147 
L 588.625068 -244.065428 
L 591.675149 -244.505631 
L 594.72523 -244.445078 
L 597.775311 -244.155706 
L 600.825392 -243.730149 
L 603.875473 -243.178599 
L 606.925554 -242.510746 
L 609.975634 -241.735795 
L 613.025715 -240.862485 
L 616.075796 -239.899103 
L 619.125877 -238.853501 
L 622.175958 -237.733104 
L 625.226039 -236.544931 
L 628.27612 -235.295602 
L 631.3262 -233.991353 
L 634.376281 -232.638048 
L 637.426362 -231.24119 
L 640.476443 -229.76496 
L 643.526524 -228.231822 
L 646.576605 -226.671735 
L 649.626686 -225.088863 
L 652.676767 -223.487075 
L 655.726847 -221.869961 
L 658.776928 -220.240846 
L 661.827009 -218.60281 
L 664.87709 -216.9587 
L 667.927171 -215.311151 
L 670.977252 -213.662599 
L 674.027333 -212.015298 
L 677.077413 -210.371335 
L 680.127494 -208.732644 
L 683.177575 -207.101022 
L 686.227656 -205.478138 
L 689.277737 -203.86555 
L 692.327818 -202.264714 
L 695.377899 -200.676994 
L 698.427979 -199.103595 
L 700.394878 -198.097116 
L 700.394878 -226.293275 
L 700.394878 -226.293275 
L 698.427979 -227.06853 
L 695.377899 -228.270391 
L 692.327818 -229.471095 
L 689.277737 -230.669711 
L 686.227656 -231.865208 
L 683.177575 -233.056445 
L 680.127494 -234.242155 
L 677.077413 -235.42094 
L 674.027333 -236.591251 
L 670.977252 -237.75138 
L 667.927171 -238.899447 
L 664.87709 -240.033381 
L 661.827009 -241.150914 
L 658.776928 -242.249562 
L 655.726847 -243.326611 
L 652.676767 -244.379108 
L 649.626686 -245.403841 
L 646.576605 -246.39733 
L 643.526524 -247.355814 
L 640.476443 -248.275234 
L 637.426362 -249.151227 
L 634.376281 -249.979107 
L 631.3262 -250.753858 
L 628.27612 -251.470122 
L 625.226039 -252.122183 
L 622.175958 -252.703961 
L 619.125877 -253.208996 
L 616.075796 -253.630437 
L 613.025715 -253.961032 
L 609.975634 -254.193109 
L 606.925554 -254.318569 
L 603.875473 -254.328864 
L 600.825392 -254.214986 
L 597.775311 -253.967449 
L 594.72523 -253.793436 
L 591.675149 -253.749647 
L 588.625068 -253.554251 
L 585.574988 -253.195405 
L 582.524907 -252.660639 
L 579.474826 -251.936837 
L 576.424745 -251.010214 
L 573.374664 -249.866311 
L 570.324583 -248.502982 
L 567.274502 -246.873247 
L 564.224422 -244.996579 
L 561.609688 -243.162592 
L 558.994954 -241.077531 
L 557.441171 -239.76457 
L 556.228819 -238.678008 
L 555.866557 -238.34002 
L 555.526598 -238.018538 
L 555.383432 -237.881909 
L 555.200343 -237.706034 
L 555.111212 -237.620058 
L 554.989556 -237.502105 
L 554.95528 -237.468781 
L 554.927184 -237.441465 
L 554.91168 -237.426392 
L 554.896177 -237.411319 
L 554.889403 -237.404733 
L 554.883537 -237.39903 
L 554.862796 -237.378865 
L 554.829773 -237.346601 
L 554.80783 -237.325155 
L 554.805636 -237.323011 
L 554.660738 -237.180722 
L 554.514412 -237.03672 
L 552.989371 -235.512787 
L 552.379355 -234.913861 
L 549.329274 -231.71017 
L 546.279193 -228.136407 
L 543.229112 -224.175536 
L 540.179032 -219.8136 
L 537.128951 -215.041807 
L 534.07887 -209.859605 
L 531.028789 -204.279115 
L 527.978708 -198.331315 
L 524.928627 -192.074225 
L 521.878546 -185.602738 
L 518.828465 -179.05832 
L 516.415536 -173.975039 
L 513.365455 -167.833685 
L 511.101329 -163.618066 
L 508.051248 -158.627512 
L 506.011972 -155.752923 
L 502.961891 -152.353117 
L 501.059255 -150.642793 
L 498.009174 -148.735753 
L 496.163479 -147.867124 
L 493.113398 -146.987248 
L 491.571502 -146.671731 
L 488.521421 -146.318702 
L 487.19543 -146.215924 
L 484.739756 -146.108582 
L 483.634435 -146.073391 
L 481.478421 -146.036805 
L 480.642971 -146.025366 
L 478.910895 -146.012892 
L 478.291664 -146.009751 
L 476.874487 -146.003982 
L 476.394838 -146.002886 
L 475.222256 -146.000506 
L 474.87446 -145.999986 
L 474.434598 -145.999497 
L 474.044608 -145.999064 
L 473.565396 -145.99859 
L 473.086184 -145.998245 
L 472.554271 -145.997928 
L 471.903067 -145.997573 
L 471.251863 -145.997327 
L 470.507405 -145.997113 
L 469.685973 -145.996943 
L 468.715985 -145.996806 
L 467.578664 -145.996701 
L 466.441343 -145.996634 
L 465.453717 -145.996597 
L 464.224692 -145.996569 
L 463.185704 -145.996554 
L 461.621959 -145.996541 
L 460.553716 -145.996536 
L 459.136495 -145.996532 
L 458.103966 -145.99653 
L 456.591436 -145.996529 
L 455.555583 -145.996528 
L 454.170787 -145.996528 
L 453.172513 -145.996528 
L 451.744884 -145.996527 
L 450.74866 -145.996527 
L 449.431393 -145.996527 
L 448.460309 -145.996527 
L 447.054714 -145.996527 
L 446.078149 -145.996527 
L 444.787621 -145.996527 
L 443.847197 -145.996527 
L 442.370688 -145.996527 
L 441.413452 -145.996527 
L 440.065935 -145.996527 
L 439.137057 -145.996527 
L 437.785485 -145.996527 
L 436.894686 -145.996527 
L 435.545609 -145.996527 
L 434.706232 -145.996527 
L 433.349381 -145.996527 
L 432.573059 -145.996527 
L 431.248688 -145.996527 
L 430.559071 -145.996527 
L 429.174041 -145.996527 
L 428.573859 -145.996527 
L 427.413698 -145.996527 
L 426.979659 -145.996527 
L 426.352449 -145.996527 
L 426.146544 -145.996527 
L 425.940639 -145.996527 
L 425.892857 -145.996527 
L 425.888079 -145.996527 
L 425.887601 -145.996527 
z
" style="stroke: #ff8c00; stroke-opacity: 0.2"/>
    </defs>
    <g clip-path="url(#pd66f560c2e)">
     <use xlink:href="#m91547f407f" x="0" y="360" style="fill: #ff8c00; fill-opacity: 0.2; stroke: #ff8c00; stroke-opacity: 0.2"/>
    </g>
   </g>
   <g id="PathCollection_2">
    <g clip-path="url(#pd66f560c2e)">
     <use xlink:href="#m9dff693a06" x="425.887601" y="214.003473" style="fill: #ff8c00; fill-opacity: 0.8; stroke: #ff8c00; stroke-opacity: 0.8"/>
     <use xlink:href="#m9dff693a06" x="456.38841" y="200.030517" style="fill: #ff8c00; fill-opacity: 0.8; stroke: #ff8c00; stroke-opacity: 0.8"/>
     <use xlink:href="#m9dff693a06" x="486.889218" y="195.727042" style="fill: #ff8c00; fill-opacity: 0.8; stroke: #ff8c00; stroke-opacity: 0.8"/>
     <use xlink:href="#m9dff693a06" x="517.390027" y="168.164174" style="fill: #ff8c00; fill-opacity: 0.8; stroke: #ff8c00; stroke-opacity: 0.8"/>
     <use xlink:href="#m9dff693a06" x="547.890836" y="152.593365" style="fill: #ff8c00; fill-opacity: 0.8; stroke: #ff8c00; stroke-opacity: 0.8"/>
     <use xlink:href="#m9dff693a06" x="578.391644" y="132.042818" style="fill: #ff8c00; fill-opacity: 0.8; stroke: #ff8c00; stroke-opacity: 0.8"/>
     <use xlink:href="#m9dff693a06" x="608.892453" y="106.338098" style="fill: #ff8c00; fill-opacity: 0.8; stroke: #ff8c00; stroke-opacity: 0.8"/>
     <use xlink:href="#m9dff693a06" x="639.393261" y="105.97475" style="fill: #ff8c00; fill-opacity: 0.8; stroke: #ff8c00; stroke-opacity: 0.8"/>
    </g>
   </g>
   <g id="line2d_35">
    <path d="M 425.887601 214.003473 
L 484.739756 213.940432 
L 488.521421 213.814034 
L 493.113398 213.392151 
L 496.163479 212.791639 
L 498.009174 212.236499 
L 501.059255 210.871746 
L 502.961891 209.679663 
L 506.011972 207.1008 
L 508.051248 204.886966 
L 511.101329 200.82014 
L 513.365455 197.267408 
L 516.415536 191.880241 
L 518.828465 187.262399 
L 531.028789 162.836669 
L 534.07887 157.152754 
L 537.128951 151.798633 
L 540.179032 146.804906 
L 543.229112 142.185171 
L 546.279193 137.941322 
L 549.329274 134.067431 
L 552.989371 129.890979 
L 556.228819 126.604507 
L 558.994954 124.089332 
L 561.609688 121.946757 
L 564.224422 120.02057 
L 567.274502 118.032878 
L 570.324583 116.307782 
L 573.374664 114.828793 
L 576.424745 113.579988 
L 579.474826 112.546056 
L 582.524907 111.712339 
L 585.574988 111.064835 
L 588.625068 110.590202 
L 591.675149 110.275747 
L 594.72523 110.109414 
L 597.775311 110.079767 
L 600.825392 110.175973 
L 606.925554 110.70555 
L 613.025715 111.622964 
L 619.125877 112.861681 
L 625.226039 114.363323 
L 631.3262 116.077174 
L 640.476443 118.952347 
L 649.626686 122.088603 
L 661.827009 126.522247 
L 683.177575 134.585837 
L 700.394878 141.120983 
L 700.394878 141.120983 
" clip-path="url(#pd66f560c2e)" style="fill: none; stroke: #ff8c00; stroke-width: 1.5; stroke-linecap: square"/>
   </g>
  </g>
  <g id="axes_3">
   <g id="patch_12">
    <path d="M 785.715041 297.16 
L 1066.32248 297.16 
L 1066.32248 36 
L 785.715041 36 
z
" style="fill: #ffffff"/>
   </g>
   <g id="matplotlib.axis_5">
    <g id="xtick_21">
     <g id="line2d_36">
      <g>
       <use xlink:href="#m4a25653b18" x="788.765122" y="297.16" style="stroke: #000000; stroke-width: 0.8"/>
      </g>
     </g>
     <g id="text_38">
      <!-- 0 -->
      <g transform="translate(783.038872 317.837188) scale(0.18 -0.18)">
       <use xlink:href="#DejaVuSans-30"/>
      </g>
     </g>
    </g>
    <g id="xtick_22">
     <g id="line2d_37">
      <g>
       <use xlink:href="#m4a25653b18" x="819.26593" y="297.16" style="stroke: #000000; stroke-width: 0.8"/>
      </g>
     </g>
     <g id="text_39">
      <!-- 1 -->
      <g transform="translate(813.53968 317.837188) scale(0.18 -0.18)">
       <use xlink:href="#DejaVuSans-31"/>
      </g>
     </g>
    </g>
    <g id="xtick_23">
     <g id="line2d_38">
      <g>
       <use xlink:href="#m4a25653b18" x="849.766739" y="297.16" style="stroke: #000000; stroke-width: 0.8"/>
      </g>
     </g>
     <g id="text_40">
      <!-- 2 -->
      <g transform="translate(844.040489 317.837188) scale(0.18 -0.18)">
       <use xlink:href="#DejaVuSans-32"/>
      </g>
     </g>
    </g>
    <g id="xtick_24">
     <g id="line2d_39">
      <g>
       <use xlink:href="#m4a25653b18" x="880.267547" y="297.16" style="stroke: #000000; stroke-width: 0.8"/>
      </g>
     </g>
     <g id="text_41">
      <!-- 3 -->
      <g transform="translate(874.541297 317.837188) scale(0.18 -0.18)">
       <use xlink:href="#DejaVuSans-33"/>
      </g>
     </g>
    </g>
    <g id="xtick_25">
     <g id="line2d_40">
      <g>
       <use xlink:href="#m4a25653b18" x="910.768356" y="297.16" style="stroke: #000000; stroke-width: 0.8"/>
      </g>
     </g>
     <g id="text_42">
      <!-- 4 -->
      <g transform="translate(905.042106 317.837188) scale(0.18 -0.18)">
       <use xlink:href="#DejaVuSans-34"/>
      </g>
     </g>
    </g>
    <g id="xtick_26">
     <g id="line2d_41">
      <g>
       <use xlink:href="#m4a25653b18" x="941.269164" y="297.16" style="stroke: #000000; stroke-width: 0.8"/>
      </g>
     </g>
     <g id="text_43">
      <!-- 5 -->
      <g transform="translate(935.542914 317.837188) scale(0.18 -0.18)">
       <use xlink:href="#DejaVuSans-35"/>
      </g>
     </g>
    </g>
    <g id="xtick_27">
     <g id="line2d_42">
      <g>
       <use xlink:href="#m4a25653b18" x="971.769973" y="297.16" style="stroke: #000000; stroke-width: 0.8"/>
      </g>
     </g>
     <g id="text_44">
      <!-- 6 -->
      <g transform="translate(966.043723 317.837188) scale(0.18 -0.18)">
       <use xlink:href="#DejaVuSans-36"/>
      </g>
     </g>
    </g>
    <g id="xtick_28">
     <g id="line2d_43">
      <g>
       <use xlink:href="#m4a25653b18" x="1002.270782" y="297.16" style="stroke: #000000; stroke-width: 0.8"/>
      </g>
     </g>
     <g id="text_45">
      <!-- 7 -->
      <g transform="translate(996.544532 317.837188) scale(0.18 -0.18)">
       <use xlink:href="#DejaVuSans-37"/>
      </g>
     </g>
    </g>
    <g id="xtick_29">
     <g id="line2d_44">
      <g>
       <use xlink:href="#m4a25653b18" x="1032.77159" y="297.16" style="stroke: #000000; stroke-width: 0.8"/>
      </g>
     </g>
     <g id="text_46">
      <!-- 8 -->
      <g transform="translate(1027.04534 317.837188) scale(0.18 -0.18)">
       <use xlink:href="#DejaVuSans-38"/>
      </g>
     </g>
    </g>
    <g id="xtick_30">
     <g id="line2d_45">
      <g>
       <use xlink:href="#m4a25653b18" x="1063.272399" y="297.16" style="stroke: #000000; stroke-width: 0.8"/>
      </g>
     </g>
     <g id="text_47">
      <!-- 9 -->
      <g transform="translate(1057.546149 317.837188) scale(0.18 -0.18)">
       <use xlink:href="#DejaVuSans-39"/>
      </g>
     </g>
    </g>
    <g id="text_48">
     <!-- Time (d) -->
     <g transform="translate(875.86251 343.816875) scale(0.24 -0.24)">
      <use xlink:href="#DejaVuSans-54"/>
      <use xlink:href="#DejaVuSans-69" x="57.958984"/>
      <use xlink:href="#DejaVuSans-6d" x="85.742188"/>
      <use xlink:href="#DejaVuSans-65" x="183.154297"/>
      <use xlink:href="#DejaVuSans-20" x="244.677734"/>
      <use xlink:href="#DejaVuSans-28" x="276.464844"/>
      <use xlink:href="#DejaVuSans-64" x="315.478516"/>
      <use xlink:href="#DejaVuSans-29" x="378.955078"/>
     </g>
    </g>
   </g>
   <g id="matplotlib.axis_6">
    <g id="ytick_14">
     <g id="line2d_46">
      <g>
       <use xlink:href="#mf5b8574c62" x="785.715041" y="297.16" style="stroke: #000000; stroke-width: 0.8"/>
      </g>
     </g>
     <g id="text_49">
      <!-- 3.0 -->
      <g transform="translate(750.089416 303.998594) scale(0.18 -0.18)">
       <use xlink:href="#DejaVuSans-33"/>
       <use xlink:href="#DejaVuSans-2e" x="63.623047"/>
       <use xlink:href="#DejaVuSans-30" x="95.410156"/>
      </g>
     </g>
    </g>
    <g id="ytick_15">
     <g id="line2d_47">
      <g>
       <use xlink:href="#mf5b8574c62" x="785.715041" y="239.124444" style="stroke: #000000; stroke-width: 0.8"/>
      </g>
     </g>
     <g id="text_50">
      <!-- 3.5 -->
      <g transform="translate(750.089416 245.963038) scale(0.18 -0.18)">
       <use xlink:href="#DejaVuSans-33"/>
       <use xlink:href="#DejaVuSans-2e" x="63.623047"/>
       <use xlink:href="#DejaVuSans-35" x="95.410156"/>
      </g>
     </g>
    </g>
    <g id="ytick_16">
     <g id="line2d_48">
      <g>
       <use xlink:href="#mf5b8574c62" x="785.715041" y="181.088889" style="stroke: #000000; stroke-width: 0.8"/>
      </g>
     </g>
     <g id="text_51">
      <!-- 4.0 -->
      <g transform="translate(750.089416 187.927483) scale(0.18 -0.18)">
       <use xlink:href="#DejaVuSans-34"/>
       <use xlink:href="#DejaVuSans-2e" x="63.623047"/>
       <use xlink:href="#DejaVuSans-30" x="95.410156"/>
      </g>
     </g>
    </g>
    <g id="ytick_17">
     <g id="line2d_49">
      <g>
       <use xlink:href="#mf5b8574c62" x="785.715041" y="123.053333" style="stroke: #000000; stroke-width: 0.8"/>
      </g>
     </g>
     <g id="text_52">
      <!-- 4.5 -->
      <g transform="translate(750.089416 129.891927) scale(0.18 -0.18)">
       <use xlink:href="#DejaVuSans-34"/>
       <use xlink:href="#DejaVuSans-2e" x="63.623047"/>
       <use xlink:href="#DejaVuSans-35" x="95.410156"/>
      </g>
     </g>
    </g>
    <g id="ytick_18">
     <g id="line2d_50">
      <g>
       <use xlink:href="#mf5b8574c62" x="785.715041" y="65.017778" style="stroke: #000000; stroke-width: 0.8"/>
      </g>
     </g>
     <g id="text_53">
      <!-- 5.0 -->
      <g transform="translate(750.089416 71.856372) scale(0.18 -0.18)">
       <use xlink:href="#DejaVuSans-35"/>
       <use xlink:href="#DejaVuSans-2e" x="63.623047"/>
       <use xlink:href="#DejaVuSans-30" x="95.410156"/>
      </g>
     </g>
    </g>
    <g id="text_54">
     <!-- CD8$^+$ TEM (log$_{10}$ cells) -->
     <g transform="translate(741.049416 305.06) rotate(-90) scale(0.24 -0.24)">
      <defs>
       <path id="DejaVuSans-4d" d="M 628 4666 
L 1569 4666 
L 2759 1491 
L 3956 4666 
L 4897 4666 
L 4897 0 
L 4281 0 
L 4281 4097 
L 3078 897 
L 2444 897 
L 1241 4097 
L 1241 0 
L 628 0 
L 628 4666 
z
" transform="scale(0.015625)"/>
      </defs>
      <use xlink:href="#DejaVuSans-43" transform="translate(0 0.826562)"/>
      <use xlink:href="#DejaVuSans-44" transform="translate(69.824219 0.826562)"/>
      <use xlink:href="#DejaVuSans-38" transform="translate(146.826172 0.826562)"/>
      <use xlink:href="#DejaVuSans-2b" transform="translate(225.043945 39.107812) scale(0.7)"/>
      <use xlink:href="#DejaVuSans-20" transform="translate(300.068359 0.826562)"/>
      <use xlink:href="#DejaVuSans-54" transform="translate(331.855469 0.826562)"/>
      <use xlink:href="#DejaVuSans-45" transform="translate(392.939453 0.826562)"/>
      <use xlink:href="#DejaVuSans-4d" transform="translate(456.123047 0.826562)"/>
      <use xlink:href="#DejaVuSans-20" transform="translate(542.402344 0.826562)"/>
      <use xlink:href="#DejaVuSans-28" transform="translate(574.189453 0.826562)"/>
      <use xlink:href="#DejaVuSans-6c" transform="translate(613.203125 0.826562)"/>
      <use xlink:href="#DejaVuSans-6f" transform="translate(640.986328 0.826562)"/>
      <use xlink:href="#DejaVuSans-67" transform="translate(702.167969 0.826562)"/>
      <use xlink:href="#DejaVuSans-31" transform="translate(766.601562 -15.579688) scale(0.7)"/>
      <use xlink:href="#DejaVuSans-30" transform="translate(811.137695 -15.579688) scale(0.7)"/>
      <use xlink:href="#DejaVuSans-20" transform="translate(858.408203 0.826562)"/>
      <use xlink:href="#DejaVuSans-63" transform="translate(890.195312 0.826562)"/>
      <use xlink:href="#DejaVuSans-65" transform="translate(945.175781 0.826562)"/>
      <use xlink:href="#DejaVuSans-6c" transform="translate(1006.699219 0.826562)"/>
      <use xlink:href="#DejaVuSans-6c" transform="translate(1034.482422 0.826562)"/>
      <use xlink:href="#DejaVuSans-73" transform="translate(1062.265625 0.826562)"/>
      <use xlink:href="#DejaVuSans-29" transform="translate(1114.365234 0.826562)"/>
     </g>
    </g>
   </g>
   <g id="patch_13">
    <path d="M 785.715041 297.16 
L 785.715041 36 
" style="fill: none; stroke: #000000; stroke-width: 0.8; stroke-linejoin: miter; stroke-linecap: square"/>
   </g>
   <g id="patch_14">
    <path d="M 1066.32248 297.16 
L 1066.32248 36 
" style="fill: none; stroke: #000000; stroke-width: 0.8; stroke-linejoin: miter; stroke-linecap: square"/>
   </g>
   <g id="patch_15">
    <path d="M 785.715041 297.16 
L 1066.32248 297.16 
" style="fill: none; stroke: #000000; stroke-width: 0.8; stroke-linejoin: miter; stroke-linecap: square"/>
   </g>
   <g id="patch_16">
    <path d="M 785.715041 36 
L 1066.32248 36 
" style="fill: none; stroke: #000000; stroke-width: 0.8; stroke-linejoin: miter; stroke-linecap: square"/>
   </g>
   <g id="PolyCollection_3">
    <defs>
     <path id="m0d3f3b5437" d="M 788.765122 -100.144243 
L 788.765122 -100.144243 
L 788.765599 -100.144243 
L 788.770377 -100.144243 
L 788.818159 -100.144243 
L 789.024064 -100.144243 
L 789.229969 -100.144243 
L 789.857179 -100.144243 
L 790.291218 -100.144243 
L 791.451379 -100.144243 
L 792.051562 -100.144243 
L 793.436591 -100.144243 
L 794.126208 -100.144243 
L 795.450579 -100.144243 
L 796.226901 -100.144243 
L 797.583753 -100.144243 
L 798.423129 -100.144243 
L 799.772207 -100.144243 
L 800.663005 -100.144243 
L 802.014577 -100.144243 
L 802.943455 -100.144243 
L 804.290972 -100.144243 
L 805.248209 -100.144243 
L 806.724718 -100.144243 
L 807.665141 -100.144243 
L 808.955669 -100.144243 
L 809.932234 -100.144243 
L 811.33783 -100.144243 
L 812.308913 -100.144243 
L 813.62618 -100.144243 
L 814.622404 -100.144243 
L 816.050034 -100.144243 
L 817.048307 -100.144243 
L 818.433103 -100.144243 
L 819.468957 -100.144243 
L 820.981486 -100.144243 
L 822.014015 -100.144243 
L 823.431236 -100.144243 
L 824.49948 -100.144243 
L 826.063224 -100.144243 
L 827.102213 -100.144243 
L 828.331238 -100.144243 
L 829.318864 -100.144243 
L 830.456185 -100.144243 
L 831.593506 -100.144243 
L 832.563494 -100.144243 
L 833.384926 -100.144243 
L 834.129383 -100.144243 
L 834.780587 -100.144243 
L 835.431791 -100.144243 
L 835.963705 -100.144243 
L 836.442917 -100.144243 
L 836.922128 -100.144243 
L 837.312118 -100.144243 
L 837.75198 -100.144243 
L 838.099776 -100.144243 
L 839.272358 -100.144243 
L 839.752007 -100.144243 
L 841.169185 -100.144243 
L 841.788416 -100.144243 
L 843.520492 -100.144243 
L 844.355941 -100.144243 
L 846.511955 -100.144243 
L 847.617277 -100.144243 
L 850.07295 -100.144243 
L 851.398941 -100.144243 
L 854.449022 -100.144243 
L 855.990919 -100.144243 
L 859.040999 -100.144243 
L 860.886695 -100.144243 
L 863.936775 -100.144243 
L 865.839411 -100.144244 
L 868.889492 -100.144246 
L 870.928768 -100.144248 
L 873.978849 -100.144262 
L 876.242976 -100.144291 
L 879.293057 -100.144393 
L 881.705986 -100.144606 
L 884.756067 -100.145214 
L 887.806148 -100.146662 
L 890.856228 -100.149853 
L 893.906309 -100.156104 
L 896.95639 -100.168362 
L 900.006471 -100.189928 
L 903.056552 -100.228702 
L 906.106633 -100.292828 
L 909.156714 -100.392849 
L 912.206794 -100.545738 
L 915.256875 -100.771553 
L 915.866891 -100.833936 
L 917.391932 -100.989893 
L 917.538258 -101.004857 
L 917.683156 -101.019675 
L 917.685351 -101.019899 
L 917.707293 -101.022143 
L 917.740316 -101.02552 
L 917.761057 -101.027641 
L 917.766923 -101.028241 
L 917.773697 -101.028934 
L 917.789201 -101.030519 
L 917.804704 -101.032105 
L 917.832801 -101.034978 
L 917.867077 -101.038483 
L 917.988732 -101.050924 
L 918.077863 -101.061059 
L 918.260952 -101.084541 
L 918.404118 -101.102903 
L 918.744077 -101.147429 
L 919.106339 -101.197404 
L 920.318692 -101.376885 
L 921.872474 -101.642776 
L 924.487208 -102.188907 
L 927.101942 -102.874106 
L 930.152023 -103.877667 
L 933.202104 -105.093455 
L 936.252184 -106.577813 
L 939.302265 -108.327532 
L 942.352346 -110.345299 
L 945.402427 -112.62506 
L 948.452508 -115.151715 
L 951.502589 -117.902213 
L 954.55267 -120.242853 
L 957.602751 -122.547664 
L 960.652831 -124.68926 
L 963.702912 -126.653232 
L 966.752993 -128.596986 
L 969.803074 -130.509999 
L 972.853155 -132.383345 
L 975.903236 -134.209643 
L 978.953317 -135.98296 
L 982.003397 -137.698696 
L 985.053478 -139.353451 
L 988.103559 -140.94488 
L 991.15364 -142.471564 
L 994.203721 -143.932873 
L 997.253802 -145.328845 
L 1000.303883 -146.660074 
L 1003.353963 -147.92761 
L 1006.404044 -149.132868 
L 1009.454125 -150.277552 
L 1012.504206 -151.363582 
L 1015.554287 -152.393042 
L 1018.604368 -153.368126 
L 1021.654449 -154.23854 
L 1024.704529 -154.928111 
L 1027.75461 -155.577559 
L 1030.804691 -156.189096 
L 1033.854772 -156.764854 
L 1036.904853 -157.306876 
L 1039.954934 -157.817114 
L 1043.005015 -158.263721 
L 1046.055095 -158.655784 
L 1049.105176 -159.02358 
L 1052.155257 -159.368621 
L 1055.205338 -159.692365 
L 1058.255419 -159.99617 
L 1061.3055 -160.281301 
L 1063.272399 -160.456638 
L 1063.272399 -199.322913 
L 1063.272399 -199.322913 
L 1061.3055 -198.772596 
L 1058.255419 -197.881227 
L 1055.205338 -196.940753 
L 1052.155257 -195.947921 
L 1049.105176 -194.899595 
L 1046.055095 -193.79247 
L 1043.005015 -192.623086 
L 1039.954934 -191.387827 
L 1036.904853 -190.082926 
L 1033.854772 -188.704479 
L 1030.804691 -187.248457 
L 1027.75461 -185.710737 
L 1024.704529 -184.087124 
L 1021.654449 -182.373392 
L 1018.604368 -180.565336 
L 1015.554287 -178.658831 
L 1012.504206 -176.649912 
L 1009.454125 -174.534868 
L 1006.404044 -172.310357 
L 1003.353963 -170.655416 
L 1000.303883 -169.471193 
L 997.253802 -168.219808 
L 994.203721 -166.897782 
L 991.15364 -165.501626 
L 988.103559 -164.027889 
L 985.053478 -162.473219 
L 982.003397 -160.834435 
L 978.953317 -159.108625 
L 975.903236 -157.293245 
L 972.853155 -155.386262 
L 969.803074 -153.386298 
L 966.752993 -151.292821 
L 963.702912 -149.106343 
L 960.652831 -146.828664 
L 957.602751 -144.463129 
L 954.55267 -142.014908 
L 951.502589 -139.491296 
L 948.452508 -136.902596 
L 945.402427 -134.260648 
L 942.352346 -131.580168 
L 939.302265 -128.880029 
L 936.252184 -126.181686 
L 933.202104 -123.509272 
L 930.152023 -120.886608 
L 927.101942 -118.344619 
L 924.487208 -116.254299 
L 921.872474 -114.255436 
L 920.318692 -113.120226 
L 919.106339 -112.266101 
L 918.744077 -112.017109 
L 918.404118 -111.787017 
L 918.260952 -111.693812 
L 918.077863 -111.574616 
L 917.988732 -111.51659 
L 917.867077 -111.437389 
L 917.832801 -111.415075 
L 917.804704 -111.396783 
L 917.789201 -111.38669 
L 917.773697 -111.376597 
L 917.766923 -111.372186 
L 917.761057 -111.368368 
L 917.740316 -111.354865 
L 917.707293 -111.333366 
L 917.685351 -111.319081 
L 917.683156 -111.317652 
L 917.538258 -111.22332 
L 917.391932 -111.128057 
L 915.866891 -110.135216 
L 915.256875 -109.750758 
L 912.206794 -107.976258 
L 909.156714 -106.411101 
L 906.106633 -105.059099 
L 903.056552 -103.916881 
L 900.006471 -102.974373 
L 896.95639 -102.215827 
L 893.906309 -101.621259 
L 890.856228 -101.168091 
L 887.806148 -100.832802 
L 884.756067 -100.592505 
L 881.705986 -100.425403 
L 879.293057 -100.33485 
L 876.242976 -100.255472 
L 873.978849 -100.217778 
L 870.928768 -100.183133 
L 868.889492 -100.169223 
L 865.839411 -100.156372 
L 863.936775 -100.151594 
L 860.886695 -100.147586 
L 859.040999 -100.146119 
L 855.990919 -100.145014 
L 854.449022 -100.144677 
L 851.398941 -100.144405 
L 850.07295 -100.144333 
L 847.617277 -100.144281 
L 846.511955 -100.144265 
L 844.355941 -100.144253 
L 843.520492 -100.144249 
L 841.788416 -100.144246 
L 841.169185 -100.144245 
L 839.752007 -100.144244 
L 839.272358 -100.144244 
L 838.099776 -100.144243 
L 837.75198 -100.144243 
L 837.312118 -100.144243 
L 836.922128 -100.144243 
L 836.442917 -100.144243 
L 835.963705 -100.144243 
L 835.431791 -100.144243 
L 834.780587 -100.144243 
L 834.129383 -100.144243 
L 833.384926 -100.144243 
L 832.563494 -100.144243 
L 831.593506 -100.144243 
L 830.456185 -100.144243 
L 829.318864 -100.144243 
L 828.331238 -100.144243 
L 827.102213 -100.144243 
L 826.063224 -100.144243 
L 824.49948 -100.144243 
L 823.431236 -100.144243 
L 822.014015 -100.144243 
L 820.981486 -100.144243 
L 819.468957 -100.144243 
L 818.433103 -100.144243 
L 817.048307 -100.144243 
L 816.050034 -100.144243 
L 814.622404 -100.144243 
L 813.62618 -100.144243 
L 812.308913 -100.144243 
L 811.33783 -100.144243 
L 809.932234 -100.144243 
L 808.955669 -100.144243 
L 807.665141 -100.144243 
L 806.724718 -100.144243 
L 805.248209 -100.144243 
L 804.290972 -100.144243 
L 802.943455 -100.144243 
L 802.014577 -100.144243 
L 800.663005 -100.144243 
L 799.772207 -100.144243 
L 798.423129 -100.144243 
L 797.583753 -100.144243 
L 796.226901 -100.144243 
L 795.450579 -100.144243 
L 794.126208 -100.144243 
L 793.436591 -100.144243 
L 792.051562 -100.144243 
L 791.451379 -100.144243 
L 790.291218 -100.144243 
L 789.857179 -100.144243 
L 789.229969 -100.144243 
L 789.024064 -100.144243 
L 788.818159 -100.144243 
L 788.770377 -100.144243 
L 788.765599 -100.144243 
L 788.765122 -100.144243 
z
" style="stroke: #ff8c00; stroke-opacity: 0.2"/>
    </defs>
    <g clip-path="url(#p267fa8397f)">
     <use xlink:href="#m0d3f3b5437" x="0" y="360" style="fill: #ff8c00; fill-opacity: 0.2; stroke: #ff8c00; stroke-opacity: 0.2"/>
    </g>
   </g>
   <g id="PathCollection_3">
    <g clip-path="url(#p267fa8397f)">
     <use xlink:href="#m9dff693a06" x="788.765122" y="259.83184" style="fill: #ff8c00; fill-opacity: 0.8; stroke: #ff8c00; stroke-opacity: 0.8"/>
     <use xlink:href="#m9dff693a06" x="819.26593" y="251.695804" style="fill: #ff8c00; fill-opacity: 0.8; stroke: #ff8c00; stroke-opacity: 0.8"/>
     <use xlink:href="#m9dff693a06" x="849.766739" y="249.587307" style="fill: #ff8c00; fill-opacity: 0.8; stroke: #ff8c00; stroke-opacity: 0.8"/>
     <use xlink:href="#m9dff693a06" x="880.267547" y="257.505931" style="fill: #ff8c00; fill-opacity: 0.8; stroke: #ff8c00; stroke-opacity: 0.8"/>
     <use xlink:href="#m9dff693a06" x="910.768356" y="242.256631" style="fill: #ff8c00; fill-opacity: 0.8; stroke: #ff8c00; stroke-opacity: 0.8"/>
     <use xlink:href="#m9dff693a06" x="941.269164" y="238.343705" style="fill: #ff8c00; fill-opacity: 0.8; stroke: #ff8c00; stroke-opacity: 0.8"/>
     <use xlink:href="#m9dff693a06" x="971.769973" y="225.264629" style="fill: #ff8c00; fill-opacity: 0.8; stroke: #ff8c00; stroke-opacity: 0.8"/>
     <use xlink:href="#m9dff693a06" x="1002.270782" y="211.351382" style="fill: #ff8c00; fill-opacity: 0.8; stroke: #ff8c00; stroke-opacity: 0.8"/>
    </g>
   </g>
   <g id="line2d_51">
    <path d="M 788.765122 259.855757 
L 879.293057 259.757198 
L 887.806148 259.48025 
L 893.906309 259.02798 
L 900.006471 258.230025 
L 903.056552 257.662009 
L 906.106633 256.96254 
L 909.156714 256.1206 
L 912.206794 255.128655 
L 917.832801 252.897457 
L 920.318692 251.749346 
L 924.487208 249.616336 
L 930.152023 246.355648 
L 936.252184 242.492376 
L 945.402427 236.334746 
L 957.602751 228.147355 
L 963.702912 224.282185 
L 969.803074 220.64703 
L 975.903236 217.2702 
L 982.003397 214.162441 
L 988.103559 211.321955 
L 994.203721 208.738583 
L 1000.303883 206.397053 
L 1006.404044 204.279379 
L 1012.504206 202.366516 
L 1018.604368 200.63951 
L 1024.704529 199.080193 
L 1033.854772 197.018887 
L 1043.005015 195.245721 
L 1052.155257 193.716719 
L 1063.272399 192.134553 
L 1063.272399 192.134553 
" clip-path="url(#p267fa8397f)" style="fill: none; stroke: #ff8c00; stroke-width: 1.5; stroke-linecap: square"/>
   </g>
  </g>
  <g id="text_55">
   <!-- Volunteer 204 -->
   <g transform="translate(649.759375 22.396875) scale(0.2 -0.2)">
    <defs>
     <path id="DejaVuSans-6e" d="M 3513 2113 
L 3513 0 
L 2938 0 
L 2938 2094 
Q 2938 2591 2744 2837 
Q 2550 3084 2163 3084 
Q 1697 3084 1428 2787 
Q 1159 2491 1159 1978 
L 1159 0 
L 581 0 
L 581 3500 
L 1159 3500 
L 1159 2956 
Q 1366 3272 1645 3428 
Q 1925 3584 2291 3584 
Q 2894 3584 3203 3211 
Q 3513 2838 3513 2113 
z
" transform="scale(0.015625)"/>
     <path id="DejaVuSans-74" d="M 1172 4494 
L 1172 3500 
L 2356 3500 
L 2356 3053 
L 1172 3053 
L 1172 1153 
Q 1172 725 1289 603 
Q 1406 481 1766 481 
L 2356 481 
L 2356 0 
L 1766 0 
Q 1100 0 847 248 
Q 594 497 594 1153 
L 594 3053 
L 172 3053 
L 172 3500 
L 594 3500 
L 594 4494 
L 1172 4494 
z
" transform="scale(0.015625)"/>
    </defs>
    <use xlink:href="#DejaVuSans-56"/>
    <use xlink:href="#DejaVuSans-6f" x="60.658203"/>
    <use xlink:href="#DejaVuSans-6c" x="121.839844"/>
    <use xlink:href="#DejaVuSans-75" x="149.623047"/>
    <use xlink:href="#DejaVuSans-6e" x="213.001953"/>
    <use xlink:href="#DejaVuSans-74" x="276.380859"/>
    <use xlink:href="#DejaVuSans-65" x="315.589844"/>
    <use xlink:href="#DejaVuSans-65" x="377.113281"/>
    <use xlink:href="#DejaVuSans-72" x="438.636719"/>
    <use xlink:href="#DejaVuSans-20" x="479.75"/>
    <use xlink:href="#DejaVuSans-32" x="511.537109"/>
    <use xlink:href="#DejaVuSans-30" x="575.160156"/>
    <use xlink:href="#DejaVuSans-34" x="638.783203"/>
   </g>
  </g>
 </g>
 <defs>
  <clipPath id="pd8c4715be5">
   <rect x="59.96" y="36" width="280.607439" height="261.16"/>
  </clipPath>
  <clipPath id="pd66f560c2e">
   <rect x="422.83752" y="36" width="280.607439" height="261.16"/>
  </clipPath>
  <clipPath id="p267fa8397f">
   <rect x="785.715041" y="36" width="280.607439" height="261.16"/>
  </clipPath>
 </defs>
</svg>
