<?xml version="1.0" encoding="utf-8" standalone="no"?>
<!DOCTYPE svg PUBLIC "-//W3C//DTD SVG 1.1//EN"
  "http://www.w3.org/Graphics/SVG/1.1/DTD/svg11.dtd">
<svg xmlns:xlink="http://www.w3.org/1999/xlink" width="1440pt" height="360pt" viewBox="0 0 1440 360" xmlns="http://www.w3.org/2000/svg" version="1.1">
 <metadata>
  <rdf:RDF xmlns:dc="http://purl.org/dc/elements/1.1/" xmlns:cc="http://creativecommons.org/ns#" xmlns:rdf="http://www.w3.org/1999/02/22-rdf-syntax-ns#">
   <cc:Work>
    <dc:type rdf:resource="http://purl.org/dc/dcmitype/StillImage"/>
    <dc:date>2025-01-15T18:59:33.872140</dc:date>
    <dc:format>image/svg+xml</dc:format>
    <dc:creator>
     <cc:Agent>
      <dc:title>Matplotlib v3.9.2, https://matplotlib.org/</dc:title>
     </cc:Agent>
    </dc:creator>
   </cc:Work>
  </rdf:RDF>
 </metadata>
 <defs>
  <style type="text/css">*{stroke-linejoin: round; stroke-linecap: butt}</style>
 </defs>
 <g id="figure_1">
  <g id="patch_1">
   <path d="M 0 360 
L 1440 360 
L 1440 0 
L 0 0 
z
" style="fill: #ffffff"/>
  </g>
  <g id="axes_1">
   <g id="patch_2">
    <path d="M 57.08 300.04 
L 353.803538 300.04 
L 353.803538 72 
L 57.08 72 
z
" style="fill: #ffffff"/>
   </g>
   <g id="matplotlib.axis_1">
    <g id="xtick_1">
     <g id="line2d_1">
      <defs>
       <path id="me52eeb7c61" d="M 0 0 
L 0 3.5 
" style="stroke: #000000; stroke-width: 0.8"/>
      </defs>
      <g>
       <use xlink:href="#me52eeb7c61" x="60.305256" y="300.04" style="stroke: #000000; stroke-width: 0.8"/>
      </g>
     </g>
     <g id="text_1">
      <!-- 0 -->
      <g transform="translate(54.579006 320.717188) scale(0.18 -0.18)">
       <defs>
        <path id="DejaVuSans-30" d="M 2034 4250 
Q 1547 4250 1301 3770 
Q 1056 3291 1056 2328 
Q 1056 1369 1301 889 
Q 1547 409 2034 409 
Q 2525 409 2770 889 
Q 3016 1369 3016 2328 
Q 3016 3291 2770 3770 
Q 2525 4250 2034 4250 
z
M 2034 4750 
Q 2819 4750 3233 4129 
Q 3647 3509 3647 2328 
Q 3647 1150 3233 529 
Q 2819 -91 2034 -91 
Q 1250 -91 836 529 
Q 422 1150 422 2328 
Q 422 3509 836 4129 
Q 1250 4750 2034 4750 
z
" transform="scale(0.015625)"/>
       </defs>
       <use xlink:href="#DejaVuSans-30"/>
      </g>
     </g>
    </g>
    <g id="xtick_2">
     <g id="line2d_2">
      <g>
       <use xlink:href="#me52eeb7c61" x="92.557814" y="300.04" style="stroke: #000000; stroke-width: 0.8"/>
      </g>
     </g>
     <g id="text_2">
      <!-- 1 -->
      <g transform="translate(86.831564 320.717188) scale(0.18 -0.18)">
       <defs>
        <path id="DejaVuSans-31" d="M 794 531 
L 1825 531 
L 1825 4091 
L 703 3866 
L 703 4441 
L 1819 4666 
L 2450 4666 
L 2450 531 
L 3481 531 
L 3481 0 
L 794 0 
L 794 531 
z
" transform="scale(0.015625)"/>
       </defs>
       <use xlink:href="#DejaVuSans-31"/>
      </g>
     </g>
    </g>
    <g id="xtick_3">
     <g id="line2d_3">
      <g>
       <use xlink:href="#me52eeb7c61" x="124.810373" y="300.04" style="stroke: #000000; stroke-width: 0.8"/>
      </g>
     </g>
     <g id="text_3">
      <!-- 2 -->
      <g transform="translate(119.084123 320.717188) scale(0.18 -0.18)">
       <defs>
        <path id="DejaVuSans-32" d="M 1228 531 
L 3431 531 
L 3431 0 
L 469 0 
L 469 531 
Q 828 903 1448 1529 
Q 2069 2156 2228 2338 
Q 2531 2678 2651 2914 
Q 2772 3150 2772 3378 
Q 2772 3750 2511 3984 
Q 2250 4219 1831 4219 
Q 1534 4219 1204 4116 
Q 875 4013 500 3803 
L 500 4441 
Q 881 4594 1212 4672 
Q 1544 4750 1819 4750 
Q 2544 4750 2975 4387 
Q 3406 4025 3406 3419 
Q 3406 3131 3298 2873 
Q 3191 2616 2906 2266 
Q 2828 2175 2409 1742 
Q 1991 1309 1228 531 
z
" transform="scale(0.015625)"/>
       </defs>
       <use xlink:href="#DejaVuSans-32"/>
      </g>
     </g>
    </g>
    <g id="xtick_4">
     <g id="line2d_4">
      <g>
       <use xlink:href="#me52eeb7c61" x="157.062931" y="300.04" style="stroke: #000000; stroke-width: 0.8"/>
      </g>
     </g>
     <g id="text_4">
      <!-- 3 -->
      <g transform="translate(151.336681 320.717188) scale(0.18 -0.18)">
       <defs>
        <path id="DejaVuSans-33" d="M 2597 2516 
Q 3050 2419 3304 2112 
Q 3559 1806 3559 1356 
Q 3559 666 3084 287 
Q 2609 -91 1734 -91 
Q 1441 -91 1130 -33 
Q 819 25 488 141 
L 488 750 
Q 750 597 1062 519 
Q 1375 441 1716 441 
Q 2309 441 2620 675 
Q 2931 909 2931 1356 
Q 2931 1769 2642 2001 
Q 2353 2234 1838 2234 
L 1294 2234 
L 1294 2753 
L 1863 2753 
Q 2328 2753 2575 2939 
Q 2822 3125 2822 3475 
Q 2822 3834 2567 4026 
Q 2313 4219 1838 4219 
Q 1578 4219 1281 4162 
Q 984 4106 628 3988 
L 628 4550 
Q 988 4650 1302 4700 
Q 1616 4750 1894 4750 
Q 2613 4750 3031 4423 
Q 3450 4097 3450 3541 
Q 3450 3153 3228 2886 
Q 3006 2619 2597 2516 
z
" transform="scale(0.015625)"/>
       </defs>
       <use xlink:href="#DejaVuSans-33"/>
      </g>
     </g>
    </g>
    <g id="xtick_5">
     <g id="line2d_5">
      <g>
       <use xlink:href="#me52eeb7c61" x="189.31549" y="300.04" style="stroke: #000000; stroke-width: 0.8"/>
      </g>
     </g>
     <g id="text_5">
      <!-- 4 -->
      <g transform="translate(183.58924 320.717188) scale(0.18 -0.18)">
       <defs>
        <path id="DejaVuSans-34" d="M 2419 4116 
L 825 1625 
L 2419 1625 
L 2419 4116 
z
M 2253 4666 
L 3047 4666 
L 3047 1625 
L 3713 1625 
L 3713 1100 
L 3047 1100 
L 3047 0 
L 2419 0 
L 2419 1100 
L 313 1100 
L 313 1709 
L 2253 4666 
z
" transform="scale(0.015625)"/>
       </defs>
       <use xlink:href="#DejaVuSans-34"/>
      </g>
     </g>
    </g>
    <g id="xtick_6">
     <g id="line2d_6">
      <g>
       <use xlink:href="#me52eeb7c61" x="221.568048" y="300.04" style="stroke: #000000; stroke-width: 0.8"/>
      </g>
     </g>
     <g id="text_6">
      <!-- 5 -->
      <g transform="translate(215.841798 320.717188) scale(0.18 -0.18)">
       <defs>
        <path id="DejaVuSans-35" d="M 691 4666 
L 3169 4666 
L 3169 4134 
L 1269 4134 
L 1269 2991 
Q 1406 3038 1543 3061 
Q 1681 3084 1819 3084 
Q 2600 3084 3056 2656 
Q 3513 2228 3513 1497 
Q 3513 744 3044 326 
Q 2575 -91 1722 -91 
Q 1428 -91 1123 -41 
Q 819 9 494 109 
L 494 744 
Q 775 591 1075 516 
Q 1375 441 1709 441 
Q 2250 441 2565 725 
Q 2881 1009 2881 1497 
Q 2881 1984 2565 2268 
Q 2250 2553 1709 2553 
Q 1456 2553 1204 2497 
Q 953 2441 691 2322 
L 691 4666 
z
" transform="scale(0.015625)"/>
       </defs>
       <use xlink:href="#DejaVuSans-35"/>
      </g>
     </g>
    </g>
    <g id="xtick_7">
     <g id="line2d_7">
      <g>
       <use xlink:href="#me52eeb7c61" x="253.820607" y="300.04" style="stroke: #000000; stroke-width: 0.8"/>
      </g>
     </g>
     <g id="text_7">
      <!-- 6 -->
      <g transform="translate(248.094357 320.717188) scale(0.18 -0.18)">
       <defs>
        <path id="DejaVuSans-36" d="M 2113 2584 
Q 1688 2584 1439 2293 
Q 1191 2003 1191 1497 
Q 1191 994 1439 701 
Q 1688 409 2113 409 
Q 2538 409 2786 701 
Q 3034 994 3034 1497 
Q 3034 2003 2786 2293 
Q 2538 2584 2113 2584 
z
M 3366 4563 
L 3366 3988 
Q 3128 4100 2886 4159 
Q 2644 4219 2406 4219 
Q 1781 4219 1451 3797 
Q 1122 3375 1075 2522 
Q 1259 2794 1537 2939 
Q 1816 3084 2150 3084 
Q 2853 3084 3261 2657 
Q 3669 2231 3669 1497 
Q 3669 778 3244 343 
Q 2819 -91 2113 -91 
Q 1303 -91 875 529 
Q 447 1150 447 2328 
Q 447 3434 972 4092 
Q 1497 4750 2381 4750 
Q 2619 4750 2861 4703 
Q 3103 4656 3366 4563 
z
" transform="scale(0.015625)"/>
       </defs>
       <use xlink:href="#DejaVuSans-36"/>
      </g>
     </g>
    </g>
    <g id="xtick_8">
     <g id="line2d_8">
      <g>
       <use xlink:href="#me52eeb7c61" x="286.073165" y="300.04" style="stroke: #000000; stroke-width: 0.8"/>
      </g>
     </g>
     <g id="text_8">
      <!-- 7 -->
      <g transform="translate(280.346915 320.717188) scale(0.18 -0.18)">
       <defs>
        <path id="DejaVuSans-37" d="M 525 4666 
L 3525 4666 
L 3525 4397 
L 1831 0 
L 1172 0 
L 2766 4134 
L 525 4134 
L 525 4666 
z
" transform="scale(0.015625)"/>
       </defs>
       <use xlink:href="#DejaVuSans-37"/>
      </g>
     </g>
    </g>
    <g id="xtick_9">
     <g id="line2d_9">
      <g>
       <use xlink:href="#me52eeb7c61" x="318.325724" y="300.04" style="stroke: #000000; stroke-width: 0.8"/>
      </g>
     </g>
     <g id="text_9">
      <!-- 8 -->
      <g transform="translate(312.599474 320.717188) scale(0.18 -0.18)">
       <defs>
        <path id="DejaVuSans-38" d="M 2034 2216 
Q 1584 2216 1326 1975 
Q 1069 1734 1069 1313 
Q 1069 891 1326 650 
Q 1584 409 2034 409 
Q 2484 409 2743 651 
Q 3003 894 3003 1313 
Q 3003 1734 2745 1975 
Q 2488 2216 2034 2216 
z
M 1403 2484 
Q 997 2584 770 2862 
Q 544 3141 544 3541 
Q 544 4100 942 4425 
Q 1341 4750 2034 4750 
Q 2731 4750 3128 4425 
Q 3525 4100 3525 3541 
Q 3525 3141 3298 2862 
Q 3072 2584 2669 2484 
Q 3125 2378 3379 2068 
Q 3634 1759 3634 1313 
Q 3634 634 3220 271 
Q 2806 -91 2034 -91 
Q 1263 -91 848 271 
Q 434 634 434 1313 
Q 434 1759 690 2068 
Q 947 2378 1403 2484 
z
M 1172 3481 
Q 1172 3119 1398 2916 
Q 1625 2713 2034 2713 
Q 2441 2713 2670 2916 
Q 2900 3119 2900 3481 
Q 2900 3844 2670 4047 
Q 2441 4250 2034 4250 
Q 1625 4250 1398 4047 
Q 1172 3844 1172 3481 
z
" transform="scale(0.015625)"/>
       </defs>
       <use xlink:href="#DejaVuSans-38"/>
      </g>
     </g>
    </g>
    <g id="xtick_10">
     <g id="line2d_10">
      <g>
       <use xlink:href="#me52eeb7c61" x="350.578282" y="300.04" style="stroke: #000000; stroke-width: 0.8"/>
      </g>
     </g>
     <g id="text_10">
      <!-- 9 -->
      <g transform="translate(344.852032 320.717188) scale(0.18 -0.18)">
       <defs>
        <path id="DejaVuSans-39" d="M 703 97 
L 703 672 
Q 941 559 1184 500 
Q 1428 441 1663 441 
Q 2288 441 2617 861 
Q 2947 1281 2994 2138 
Q 2813 1869 2534 1725 
Q 2256 1581 1919 1581 
Q 1219 1581 811 2004 
Q 403 2428 403 3163 
Q 403 3881 828 4315 
Q 1253 4750 1959 4750 
Q 2769 4750 3195 4129 
Q 3622 3509 3622 2328 
Q 3622 1225 3098 567 
Q 2575 -91 1691 -91 
Q 1453 -91 1209 -44 
Q 966 3 703 97 
z
M 1959 2075 
Q 2384 2075 2632 2365 
Q 2881 2656 2881 3163 
Q 2881 3666 2632 3958 
Q 2384 4250 1959 4250 
Q 1534 4250 1286 3958 
Q 1038 3666 1038 3163 
Q 1038 2656 1286 2365 
Q 1534 2075 1959 2075 
z
" transform="scale(0.015625)"/>
       </defs>
       <use xlink:href="#DejaVuSans-39"/>
      </g>
     </g>
    </g>
    <g id="text_11">
     <!-- Time (d) -->
     <g transform="translate(159.465207 345.177188) scale(0.22 -0.22)">
      <defs>
       <path id="DejaVuSans-54" d="M -19 4666 
L 3928 4666 
L 3928 4134 
L 2272 4134 
L 2272 0 
L 1638 0 
L 1638 4134 
L -19 4134 
L -19 4666 
z
" transform="scale(0.015625)"/>
       <path id="DejaVuSans-69" d="M 603 3500 
L 1178 3500 
L 1178 0 
L 603 0 
L 603 3500 
z
M 603 4863 
L 1178 4863 
L 1178 4134 
L 603 4134 
L 603 4863 
z
" transform="scale(0.015625)"/>
       <path id="DejaVuSans-6d" d="M 3328 2828 
Q 3544 3216 3844 3400 
Q 4144 3584 4550 3584 
Q 5097 3584 5394 3201 
Q 5691 2819 5691 2113 
L 5691 0 
L 5113 0 
L 5113 2094 
Q 5113 2597 4934 2840 
Q 4756 3084 4391 3084 
Q 3944 3084 3684 2787 
Q 3425 2491 3425 1978 
L 3425 0 
L 2847 0 
L 2847 2094 
Q 2847 2600 2669 2842 
Q 2491 3084 2119 3084 
Q 1678 3084 1418 2786 
Q 1159 2488 1159 1978 
L 1159 0 
L 581 0 
L 581 3500 
L 1159 3500 
L 1159 2956 
Q 1356 3278 1631 3431 
Q 1906 3584 2284 3584 
Q 2666 3584 2933 3390 
Q 3200 3197 3328 2828 
z
" transform="scale(0.015625)"/>
       <path id="DejaVuSans-65" d="M 3597 1894 
L 3597 1613 
L 953 1613 
Q 991 1019 1311 708 
Q 1631 397 2203 397 
Q 2534 397 2845 478 
Q 3156 559 3463 722 
L 3463 178 
Q 3153 47 2828 -22 
Q 2503 -91 2169 -91 
Q 1331 -91 842 396 
Q 353 884 353 1716 
Q 353 2575 817 3079 
Q 1281 3584 2069 3584 
Q 2775 3584 3186 3129 
Q 3597 2675 3597 1894 
z
M 3022 2063 
Q 3016 2534 2758 2815 
Q 2500 3097 2075 3097 
Q 1594 3097 1305 2825 
Q 1016 2553 972 2059 
L 3022 2063 
z
" transform="scale(0.015625)"/>
       <path id="DejaVuSans-20" transform="scale(0.015625)"/>
       <path id="DejaVuSans-28" d="M 1984 4856 
Q 1566 4138 1362 3434 
Q 1159 2731 1159 2009 
Q 1159 1288 1364 580 
Q 1569 -128 1984 -844 
L 1484 -844 
Q 1016 -109 783 600 
Q 550 1309 550 2009 
Q 550 2706 781 3412 
Q 1013 4119 1484 4856 
L 1984 4856 
z
" transform="scale(0.015625)"/>
       <path id="DejaVuSans-64" d="M 2906 2969 
L 2906 4863 
L 3481 4863 
L 3481 0 
L 2906 0 
L 2906 525 
Q 2725 213 2448 61 
Q 2172 -91 1784 -91 
Q 1150 -91 751 415 
Q 353 922 353 1747 
Q 353 2572 751 3078 
Q 1150 3584 1784 3584 
Q 2172 3584 2448 3432 
Q 2725 3281 2906 2969 
z
M 947 1747 
Q 947 1113 1208 752 
Q 1469 391 1925 391 
Q 2381 391 2643 752 
Q 2906 1113 2906 1747 
Q 2906 2381 2643 2742 
Q 2381 3103 1925 3103 
Q 1469 3103 1208 2742 
Q 947 2381 947 1747 
z
" transform="scale(0.015625)"/>
       <path id="DejaVuSans-29" d="M 513 4856 
L 1013 4856 
Q 1481 4119 1714 3412 
Q 1947 2706 1947 2009 
Q 1947 1309 1714 600 
Q 1481 -109 1013 -844 
L 513 -844 
Q 928 -128 1133 580 
Q 1338 1288 1338 2009 
Q 1338 2731 1133 3434 
Q 928 4138 513 4856 
z
" transform="scale(0.015625)"/>
      </defs>
      <use xlink:href="#DejaVuSans-54"/>
      <use xlink:href="#DejaVuSans-69" x="57.958984"/>
      <use xlink:href="#DejaVuSans-6d" x="85.742188"/>
      <use xlink:href="#DejaVuSans-65" x="183.154297"/>
      <use xlink:href="#DejaVuSans-20" x="244.677734"/>
      <use xlink:href="#DejaVuSans-28" x="276.464844"/>
      <use xlink:href="#DejaVuSans-64" x="315.478516"/>
      <use xlink:href="#DejaVuSans-29" x="378.955078"/>
     </g>
    </g>
   </g>
   <g id="matplotlib.axis_2">
    <g id="ytick_1">
     <g id="line2d_11">
      <defs>
       <path id="m4927b8f60f" d="M 0 0 
L -3.5 0 
" style="stroke: #000000; stroke-width: 0.8"/>
      </defs>
      <g>
       <use xlink:href="#m4927b8f60f" x="57.08" y="300.04" style="stroke: #000000; stroke-width: 0.8"/>
      </g>
     </g>
     <g id="text_12">
      <!-- 0 -->
      <g transform="translate(38.6275 306.878594) scale(0.18 -0.18)">
       <use xlink:href="#DejaVuSans-30"/>
      </g>
     </g>
    </g>
    <g id="ytick_2">
     <g id="line2d_12">
      <g>
       <use xlink:href="#m4927b8f60f" x="57.08" y="243.03" style="stroke: #000000; stroke-width: 0.8"/>
      </g>
     </g>
     <g id="text_13">
      <!-- 2 -->
      <g transform="translate(38.6275 249.868594) scale(0.18 -0.18)">
       <use xlink:href="#DejaVuSans-32"/>
      </g>
     </g>
    </g>
    <g id="ytick_3">
     <g id="line2d_13">
      <g>
       <use xlink:href="#m4927b8f60f" x="57.08" y="186.02" style="stroke: #000000; stroke-width: 0.8"/>
      </g>
     </g>
     <g id="text_14">
      <!-- 4 -->
      <g transform="translate(38.6275 192.858594) scale(0.18 -0.18)">
       <use xlink:href="#DejaVuSans-34"/>
      </g>
     </g>
    </g>
    <g id="ytick_4">
     <g id="line2d_14">
      <g>
       <use xlink:href="#m4927b8f60f" x="57.08" y="129.01" style="stroke: #000000; stroke-width: 0.8"/>
      </g>
     </g>
     <g id="text_15">
      <!-- 6 -->
      <g transform="translate(38.6275 135.848594) scale(0.18 -0.18)">
       <use xlink:href="#DejaVuSans-36"/>
      </g>
     </g>
    </g>
    <g id="ytick_5">
     <g id="line2d_15">
      <g>
       <use xlink:href="#m4927b8f60f" x="57.08" y="72" style="stroke: #000000; stroke-width: 0.8"/>
      </g>
     </g>
     <g id="text_16">
      <!-- 8 -->
      <g transform="translate(38.6275 78.838594) scale(0.18 -0.18)">
       <use xlink:href="#DejaVuSans-38"/>
      </g>
     </g>
    </g>
    <g id="text_17">
     <!-- Virus (log$_{10}$ copies/mL) -->
     <g transform="translate(30.0075 312.3) rotate(-90) scale(0.22 -0.22)">
      <defs>
       <path id="DejaVuSans-56" d="M 1831 0 
L 50 4666 
L 709 4666 
L 2188 738 
L 3669 4666 
L 4325 4666 
L 2547 0 
L 1831 0 
z
" transform="scale(0.015625)"/>
       <path id="DejaVuSans-72" d="M 2631 2963 
Q 2534 3019 2420 3045 
Q 2306 3072 2169 3072 
Q 1681 3072 1420 2755 
Q 1159 2438 1159 1844 
L 1159 0 
L 581 0 
L 581 3500 
L 1159 3500 
L 1159 2956 
Q 1341 3275 1631 3429 
Q 1922 3584 2338 3584 
Q 2397 3584 2469 3576 
Q 2541 3569 2628 3553 
L 2631 2963 
z
" transform="scale(0.015625)"/>
       <path id="DejaVuSans-75" d="M 544 1381 
L 544 3500 
L 1119 3500 
L 1119 1403 
Q 1119 906 1312 657 
Q 1506 409 1894 409 
Q 2359 409 2629 706 
Q 2900 1003 2900 1516 
L 2900 3500 
L 3475 3500 
L 3475 0 
L 2900 0 
L 2900 538 
Q 2691 219 2414 64 
Q 2138 -91 1772 -91 
Q 1169 -91 856 284 
Q 544 659 544 1381 
z
M 1991 3584 
L 1991 3584 
z
" transform="scale(0.015625)"/>
       <path id="DejaVuSans-73" d="M 2834 3397 
L 2834 2853 
Q 2591 2978 2328 3040 
Q 2066 3103 1784 3103 
Q 1356 3103 1142 2972 
Q 928 2841 928 2578 
Q 928 2378 1081 2264 
Q 1234 2150 1697 2047 
L 1894 2003 
Q 2506 1872 2764 1633 
Q 3022 1394 3022 966 
Q 3022 478 2636 193 
Q 2250 -91 1575 -91 
Q 1294 -91 989 -36 
Q 684 19 347 128 
L 347 722 
Q 666 556 975 473 
Q 1284 391 1588 391 
Q 1994 391 2212 530 
Q 2431 669 2431 922 
Q 2431 1156 2273 1281 
Q 2116 1406 1581 1522 
L 1381 1569 
Q 847 1681 609 1914 
Q 372 2147 372 2553 
Q 372 3047 722 3315 
Q 1072 3584 1716 3584 
Q 2034 3584 2315 3537 
Q 2597 3491 2834 3397 
z
" transform="scale(0.015625)"/>
       <path id="DejaVuSans-6c" d="M 603 4863 
L 1178 4863 
L 1178 0 
L 603 0 
L 603 4863 
z
" transform="scale(0.015625)"/>
       <path id="DejaVuSans-6f" d="M 1959 3097 
Q 1497 3097 1228 2736 
Q 959 2375 959 1747 
Q 959 1119 1226 758 
Q 1494 397 1959 397 
Q 2419 397 2687 759 
Q 2956 1122 2956 1747 
Q 2956 2369 2687 2733 
Q 2419 3097 1959 3097 
z
M 1959 3584 
Q 2709 3584 3137 3096 
Q 3566 2609 3566 1747 
Q 3566 888 3137 398 
Q 2709 -91 1959 -91 
Q 1206 -91 779 398 
Q 353 888 353 1747 
Q 353 2609 779 3096 
Q 1206 3584 1959 3584 
z
" transform="scale(0.015625)"/>
       <path id="DejaVuSans-67" d="M 2906 1791 
Q 2906 2416 2648 2759 
Q 2391 3103 1925 3103 
Q 1463 3103 1205 2759 
Q 947 2416 947 1791 
Q 947 1169 1205 825 
Q 1463 481 1925 481 
Q 2391 481 2648 825 
Q 2906 1169 2906 1791 
z
M 3481 434 
Q 3481 -459 3084 -895 
Q 2688 -1331 1869 -1331 
Q 1566 -1331 1297 -1286 
Q 1028 -1241 775 -1147 
L 775 -588 
Q 1028 -725 1275 -790 
Q 1522 -856 1778 -856 
Q 2344 -856 2625 -561 
Q 2906 -266 2906 331 
L 2906 616 
Q 2728 306 2450 153 
Q 2172 0 1784 0 
Q 1141 0 747 490 
Q 353 981 353 1791 
Q 353 2603 747 3093 
Q 1141 3584 1784 3584 
Q 2172 3584 2450 3431 
Q 2728 3278 2906 2969 
L 2906 3500 
L 3481 3500 
L 3481 434 
z
" transform="scale(0.015625)"/>
       <path id="DejaVuSans-63" d="M 3122 3366 
L 3122 2828 
Q 2878 2963 2633 3030 
Q 2388 3097 2138 3097 
Q 1578 3097 1268 2742 
Q 959 2388 959 1747 
Q 959 1106 1268 751 
Q 1578 397 2138 397 
Q 2388 397 2633 464 
Q 2878 531 3122 666 
L 3122 134 
Q 2881 22 2623 -34 
Q 2366 -91 2075 -91 
Q 1284 -91 818 406 
Q 353 903 353 1747 
Q 353 2603 823 3093 
Q 1294 3584 2113 3584 
Q 2378 3584 2631 3529 
Q 2884 3475 3122 3366 
z
" transform="scale(0.015625)"/>
       <path id="DejaVuSans-70" d="M 1159 525 
L 1159 -1331 
L 581 -1331 
L 581 3500 
L 1159 3500 
L 1159 2969 
Q 1341 3281 1617 3432 
Q 1894 3584 2278 3584 
Q 2916 3584 3314 3078 
Q 3713 2572 3713 1747 
Q 3713 922 3314 415 
Q 2916 -91 2278 -91 
Q 1894 -91 1617 61 
Q 1341 213 1159 525 
z
M 3116 1747 
Q 3116 2381 2855 2742 
Q 2594 3103 2138 3103 
Q 1681 3103 1420 2742 
Q 1159 2381 1159 1747 
Q 1159 1113 1420 752 
Q 1681 391 2138 391 
Q 2594 391 2855 752 
Q 3116 1113 3116 1747 
z
" transform="scale(0.015625)"/>
       <path id="DejaVuSans-2f" d="M 1625 4666 
L 2156 4666 
L 531 -594 
L 0 -594 
L 1625 4666 
z
" transform="scale(0.015625)"/>
       <path id="DejaVuSans-4c" d="M 628 4666 
L 1259 4666 
L 1259 531 
L 3531 531 
L 3531 0 
L 628 0 
L 628 4666 
z
" transform="scale(0.015625)"/>
      </defs>
      <use xlink:href="#DejaVuSans-56" transform="translate(0 0.015625)"/>
      <use xlink:href="#DejaVuSans-69" transform="translate(68.408203 0.015625)"/>
      <use xlink:href="#DejaVuSans-72" transform="translate(96.191406 0.015625)"/>
      <use xlink:href="#DejaVuSans-75" transform="translate(137.304688 0.015625)"/>
      <use xlink:href="#DejaVuSans-73" transform="translate(200.683594 0.015625)"/>
      <use xlink:href="#DejaVuSans-20" transform="translate(252.783203 0.015625)"/>
      <use xlink:href="#DejaVuSans-28" transform="translate(284.570312 0.015625)"/>
      <use xlink:href="#DejaVuSans-6c" transform="translate(323.583984 0.015625)"/>
      <use xlink:href="#DejaVuSans-6f" transform="translate(351.367188 0.015625)"/>
      <use xlink:href="#DejaVuSans-67" transform="translate(412.548828 0.015625)"/>
      <use xlink:href="#DejaVuSans-31" transform="translate(476.982422 -16.390625) scale(0.7)"/>
      <use xlink:href="#DejaVuSans-30" transform="translate(521.518555 -16.390625) scale(0.7)"/>
      <use xlink:href="#DejaVuSans-20" transform="translate(568.789062 0.015625)"/>
      <use xlink:href="#DejaVuSans-63" transform="translate(600.576172 0.015625)"/>
      <use xlink:href="#DejaVuSans-6f" transform="translate(655.556641 0.015625)"/>
      <use xlink:href="#DejaVuSans-70" transform="translate(716.738281 0.015625)"/>
      <use xlink:href="#DejaVuSans-69" transform="translate(780.214844 0.015625)"/>
      <use xlink:href="#DejaVuSans-65" transform="translate(807.998047 0.015625)"/>
      <use xlink:href="#DejaVuSans-73" transform="translate(869.521484 0.015625)"/>
      <use xlink:href="#DejaVuSans-2f" transform="translate(921.621094 0.015625)"/>
      <use xlink:href="#DejaVuSans-6d" transform="translate(955.3125 0.015625)"/>
      <use xlink:href="#DejaVuSans-4c" transform="translate(1052.724609 0.015625)"/>
      <use xlink:href="#DejaVuSans-29" transform="translate(1108.4375 0.015625)"/>
     </g>
    </g>
   </g>
   <g id="patch_3">
    <path d="M 57.08 300.04 
L 57.08 72 
" style="fill: none; stroke: #000000; stroke-width: 0.8; stroke-linejoin: miter; stroke-linecap: square"/>
   </g>
   <g id="patch_4">
    <path d="M 353.803538 300.04 
L 353.803538 72 
" style="fill: none; stroke: #000000; stroke-width: 0.8; stroke-linejoin: miter; stroke-linecap: square"/>
   </g>
   <g id="patch_5">
    <path d="M 57.08 300.04 
L 353.803538 300.04 
" style="fill: none; stroke: #000000; stroke-width: 0.8; stroke-linejoin: miter; stroke-linecap: square"/>
   </g>
   <g id="patch_6">
    <path d="M 57.08 72 
L 353.803538 72 
" style="fill: none; stroke: #000000; stroke-width: 0.8; stroke-linejoin: miter; stroke-linecap: square"/>
   </g>
   <g id="PolyCollection_1">
    <defs>
     <path id="m7cd0a4eb71" d="M 60.305256 -59.96 
L 60.305256 -59.96 
L 60.305795 -59.96 
L 60.311187 -59.96 
L 60.365108 -59.96 
L 60.539749 -59.96 
L 60.760922 -59.96 
L 61.295306 -59.96 
L 61.829691 -59.96 
L 62.807328 -59.96 
L 63.581707 -59.96 
L 64.88578 -59.96 
L 65.749309 -59.96 
L 67.287564 -59.96 
L 68.153126 -59.96 
L 69.446395 -59.96 
L 70.370571 -60.397277 
L 71.826187 -66.838109 
L 72.746614 -71.567149 
L 74.039024 -78.241678 
L 74.996553 -83.159309 
L 76.410981 -90.460574 
L 77.357622 -95.323826 
L 78.639067 -101.954897 
L 79.611099 -106.944635 
L 80.993067 -114.059986 
L 81.952269 -118.972235 
L 83.230884 -125.54684 
L 84.21001 -130.543477 
L 85.583563 -137.535137 
L 86.556146 -142.433272 
L 87.87326 -149.000046 
L 88.872791 -153.882558 
L 90.30458 -160.636615 
L 91.309056 -165.145484 
L 92.66509 -170.733691 
L 93.694154 -174.605575 
L 95.167312 -179.252285 
L 96.223392 -182.022059 
L 97.514643 -184.600823 
L 98.520721 -186.273407 
L 99.679785 -187.662669 
L 100.64159 -188.57565 
L 101.610983 -189.259485 
L 102.606461 -189.779012 
L 103.601939 -190.166511 
L 104.597417 -190.453527 
L 105.592895 -190.649383 
L 106.588372 -190.760956 
L 107.445164 -190.81 
L 108.209328 -190.816262 
L 108.973493 -190.7956 
L 109.603233 -190.759194 
L 110.280926 -190.700973 
L 110.958618 -190.622352 
L 111.636311 -190.538507 
L 112.314003 -190.4318 
L 112.991696 -190.31872 
L 113.669388 -190.193827 
L 114.347081 -190.049779 
L 115.024773 -189.901623 
L 115.702466 -189.753467 
L 116.385169 -189.587157 
L 117.077862 -189.408791 
L 117.783906 -189.212934 
L 118.5069 -189.012375 
L 119.249612 -188.806345 
L 122.474868 -187.822945 
L 123.593177 -187.45903 
L 126.818433 -186.364029 
L 128.447759 -185.781286 
L 131.673015 -184.602941 
L 133.852539 -183.779257 
L 137.077795 -182.538814 
L 139.723779 -181.501607 
L 142.949035 -180.216232 
L 145.050216 -179.36964 
L 147.427861 -178.398778 
L 149.805507 -177.40169 
L 152.183152 -176.389738 
L 154.577245 -175.357828 
L 157.005195 -174.29609 
L 159.63505 -173.131368 
L 162.860305 -171.672502 
L 165.422797 -170.494476 
L 167.985288 -169.290306 
L 171.210544 -167.745915 
L 174.4358 -166.144884 
L 177.661056 -164.487199 
L 180.886311 -162.775741 
L 184.111567 -161.01941 
L 187.336823 -159.209583 
L 190.562079 -157.327453 
L 193.787335 -155.377307 
L 197.012591 -153.348804 
L 200.237847 -151.221454 
L 203.463102 -148.997242 
L 206.688358 -146.650389 
L 209.913614 -144.160708 
L 213.13887 -141.521241 
L 216.364126 -138.67712 
L 219.589382 -135.591144 
L 222.814637 -132.232461 
L 226.039893 -128.572438 
L 229.265149 -124.581291 
L 232.490405 -120.244892 
L 235.715661 -115.576755 
L 238.940917 -110.624501 
L 242.166173 -105.465328 
L 245.391428 -100.19055 
L 248.616684 -94.887144 
L 251.84194 -89.625181 
L 255.067196 -84.454046 
L 258.292452 -79.404783 
L 261.517708 -74.494709 
L 264.742964 -69.731848 
L 267.968219 -65.118323 
L 271.193475 -60.714368 
L 274.418731 -59.96 
L 277.643987 -59.96 
L 280.869243 -59.96 
L 284.094499 -59.96 
L 287.319755 -59.96 
L 290.068962 -59.96 
L 293.294218 -59.96 
L 296.519473 -59.96 
L 299.744729 -59.96 
L 302.969985 -59.96 
L 306.195241 -59.96 
L 309.420497 -59.96 
L 312.645753 -59.96 
L 315.871009 -59.96 
L 319.096264 -59.96 
L 322.32152 -59.96 
L 325.546776 -59.96 
L 328.772032 -59.96 
L 331.997288 -59.96 
L 335.222544 -59.96 
L 338.4478 -59.96 
L 341.673055 -59.96 
L 344.898311 -59.96 
L 348.123567 -59.96 
L 350.578282 -59.96 
L 350.578282 -59.96 
L 350.578282 -59.96 
L 348.123567 -59.96 
L 344.898311 -59.96 
L 341.673055 -59.96 
L 338.4478 -59.96 
L 335.222544 -59.96 
L 331.997288 -59.96 
L 328.772032 -59.96 
L 325.546776 -59.96 
L 322.32152 -59.96 
L 319.096264 -59.96 
L 315.871009 -59.96 
L 312.645753 -59.96 
L 309.420497 -59.96 
L 306.195241 -59.96 
L 302.969985 -59.96 
L 299.744729 -59.96 
L 296.519473 -59.96 
L 293.294218 -59.96 
L 290.068962 -59.96 
L 287.319755 -59.96 
L 284.094499 -59.972147 
L 280.869243 -61.061708 
L 277.643987 -64.555167 
L 274.418731 -68.666591 
L 271.193475 -72.909513 
L 267.968219 -77.284532 
L 264.742964 -81.788978 
L 261.517708 -86.41504 
L 258.292452 -91.147163 
L 255.067196 -95.958817 
L 251.84194 -100.809321 
L 248.616684 -105.642395 
L 245.391428 -110.38892 
L 242.166173 -114.975596 
L 238.940917 -119.337856 
L 235.715661 -123.431557 
L 232.490405 -127.237951 
L 229.265149 -130.760851 
L 226.039893 -134.019362 
L 222.814637 -137.040258 
L 219.589382 -139.852321 
L 216.364126 -142.483007 
L 213.13887 -144.956879 
L 209.913614 -147.295139 
L 206.688358 -149.536217 
L 203.463102 -151.674865 
L 200.237847 -153.720758 
L 197.012591 -155.684656 
L 193.787335 -157.575482 
L 190.562079 -159.400649 
L 187.336823 -161.166335 
L 184.111567 -162.877723 
L 180.886311 -164.539207 
L 177.661056 -166.154565 
L 174.4358 -167.727111 
L 171.210544 -169.259828 
L 167.985288 -170.755475 
L 165.422797 -171.924667 
L 162.860305 -173.077875 
L 159.63505 -174.512275 
L 157.005195 -175.662898 
L 154.577245 -176.709359 
L 152.183152 -177.724459 
L 149.805507 -178.723224 
L 147.427861 -179.708087 
L 145.050216 -180.680725 
L 142.949035 -181.532007 
L 139.723779 -182.820763 
L 137.077795 -183.864055 
L 133.852539 -185.114562 
L 131.673015 -185.947032 
L 128.447759 -187.150997 
L 126.818433 -187.744383 
L 123.593177 -188.883801 
L 122.474868 -189.271651 
L 119.249612 -190.319865 
L 118.5069 -190.554667 
L 117.783906 -190.783235 
L 117.077862 -190.991932 
L 116.385169 -191.19337 
L 115.702466 -191.384655 
L 115.024773 -191.573954 
L 114.347081 -191.756569 
L 113.669388 -191.933 
L 112.991696 -192.102119 
L 112.314003 -192.263355 
L 111.636311 -192.416512 
L 110.958618 -192.560058 
L 110.280926 -192.694242 
L 109.603233 -192.816987 
L 108.973493 -192.921485 
L 108.209328 -193.031978 
L 107.445164 -193.125031 
L 106.588372 -193.205985 
L 105.592895 -193.263919 
L 104.597417 -193.275475 
L 103.601939 -193.237302 
L 102.606461 -193.132995 
L 101.610983 -192.969527 
L 100.64159 -192.727789 
L 99.679785 -192.38987 
L 98.520721 -191.835418 
L 97.514643 -191.170335 
L 96.223392 -189.992875 
L 95.167312 -188.658534 
L 93.694154 -186.105605 
L 92.66509 -183.65527 
L 91.309056 -179.653654 
L 90.30458 -175.9006 
L 88.872791 -169.823634 
L 87.87326 -164.998342 
L 86.556146 -158.273016 
L 85.583563 -153.028594 
L 84.21001 -145.473894 
L 83.230884 -139.972895 
L 81.952269 -132.751555 
L 80.993067 -127.272021 
L 79.611099 -119.388292 
L 78.639067 -113.813836 
L 77.357622 -106.483098 
L 76.410981 -101.025248 
L 74.996553 -92.916756 
L 74.039024 -87.406231 
L 72.746614 -80.001461 
L 71.826187 -74.702404 
L 70.370571 -66.35767 
L 69.446395 -61.617716 
L 68.153126 -59.96 
L 67.287564 -59.96 
L 65.749309 -59.96 
L 64.88578 -59.96 
L 63.581707 -59.96 
L 62.807328 -59.96 
L 61.829691 -59.96 
L 61.295306 -59.96 
L 60.760922 -59.96 
L 60.539749 -59.96 
L 60.365108 -59.96 
L 60.311187 -59.96 
L 60.305795 -59.96 
L 60.305256 -59.96 
z
" style="stroke: #40e0d0; stroke-opacity: 0.2"/>
    </defs>
    <g clip-path="url(#p8b22eb5733)">
     <use xlink:href="#m7cd0a4eb71" x="0" y="360" style="fill: #40e0d0; fill-opacity: 0.2; stroke: #40e0d0; stroke-opacity: 0.2"/>
    </g>
   </g>
   <g id="PathCollection_1">
    <defs>
     <path id="mfd95c3572b" d="M 0 4.330127 
C 1.148363 4.330127 2.249847 3.873878 3.061862 3.061862 
C 3.873878 2.249847 4.330127 1.148363 4.330127 0 
C 4.330127 -1.148363 3.873878 -2.249847 3.061862 -3.061862 
C 2.249847 -3.873878 1.148363 -4.330127 0 -4.330127 
C -1.148363 -4.330127 -2.249847 -3.873878 -3.061862 -3.061862 
C -3.873878 -2.249847 -4.330127 -1.148363 -4.330127 0 
C -4.330127 1.148363 -3.873878 2.249847 -3.061862 3.061862 
C -2.249847 3.873878 -1.148363 4.330127 0 4.330127 
z
" style="stroke: #40e0d0; stroke-opacity: 0.8"/>
    </defs>
    <g clip-path="url(#p8b22eb5733)">
     <use xlink:href="#mfd95c3572b" x="60.305256" y="300.04" style="fill: #40e0d0; fill-opacity: 0.8; stroke: #40e0d0; stroke-opacity: 0.8"/>
     <use xlink:href="#mfd95c3572b" x="92.557814" y="178.629815" style="fill: #40e0d0; fill-opacity: 0.8; stroke: #40e0d0; stroke-opacity: 0.8"/>
     <use xlink:href="#mfd95c3572b" x="124.810373" y="183.908519" style="fill: #40e0d0; fill-opacity: 0.8; stroke: #40e0d0; stroke-opacity: 0.8"/>
     <use xlink:href="#mfd95c3572b" x="157.062931" y="202.383981" style="fill: #40e0d0; fill-opacity: 0.8; stroke: #40e0d0; stroke-opacity: 0.8"/>
     <use xlink:href="#mfd95c3572b" x="189.31549" y="215.580741" style="fill: #40e0d0; fill-opacity: 0.8; stroke: #40e0d0; stroke-opacity: 0.8"/>
     <use xlink:href="#mfd95c3572b" x="221.568048" y="228.7775" style="fill: #40e0d0; fill-opacity: 0.8; stroke: #40e0d0; stroke-opacity: 0.8"/>
     <use xlink:href="#mfd95c3572b" x="253.820607" y="265.728426" style="fill: #40e0d0; fill-opacity: 0.8; stroke: #40e0d0; stroke-opacity: 0.8"/>
     <use xlink:href="#mfd95c3572b" x="286.073165" y="300.04" style="fill: #40e0d0; fill-opacity: 0.8; stroke: #40e0d0; stroke-opacity: 0.8"/>
    </g>
   </g>
   <g id="line2d_16">
    <path d="M 60.305256 300.04 
L 69.446395 300.04 
L 70.370571 297.27679 
L 84.21001 222.206538 
L 87.87326 203.049554 
L 90.30458 191.481963 
L 91.309056 187.239329 
L 92.66509 182.216926 
L 93.694154 179.020524 
L 95.167312 175.418845 
L 96.223392 173.472622 
L 97.514643 171.69677 
L 98.520721 170.675645 
L 99.679785 169.798749 
L 100.64159 169.260236 
L 102.606461 168.55043 
L 104.597417 168.212773 
L 106.588372 168.140838 
L 108.973493 168.302572 
L 111.636311 168.71013 
L 115.024773 169.468311 
L 119.249612 170.663963 
L 126.818433 173.211443 
L 133.852539 175.837305 
L 145.050216 180.296554 
L 154.577245 184.284114 
L 162.860305 187.928151 
L 171.210544 191.814091 
L 177.661056 194.99401 
L 184.111567 198.358157 
L 190.562079 201.940048 
L 197.012591 205.785192 
L 203.463102 209.95869 
L 209.913614 214.555855 
L 213.13887 217.054793 
L 216.364126 219.716344 
L 219.589382 222.567246 
L 222.814637 225.637973 
L 226.039893 228.961288 
L 229.265149 232.568756 
L 232.490405 236.484393 
L 235.715661 240.71565 
L 238.940917 245.244422 
L 245.391428 254.981451 
L 258.292452 275.113984 
L 264.742964 284.67969 
L 271.193475 293.721341 
L 274.418731 298.047107 
L 277.643987 300.04 
L 350.578282 300.04 
L 350.578282 300.04 
" clip-path="url(#p8b22eb5733)" style="fill: none; stroke: #40e0d0; stroke-width: 1.5; stroke-linecap: square"/>
   </g>
  </g>
  <g id="axes_2">
   <g id="patch_7">
    <path d="M 415.545487 300.04 
L 712.269026 300.04 
L 712.269026 72 
L 415.545487 72 
z
" style="fill: #ffffff"/>
   </g>
   <g id="matplotlib.axis_3">
    <g id="xtick_11">
     <g id="line2d_17">
      <g>
       <use xlink:href="#me52eeb7c61" x="418.770743" y="300.04" style="stroke: #000000; stroke-width: 0.8"/>
      </g>
     </g>
     <g id="text_18">
      <!-- 0 -->
      <g transform="translate(413.044493 320.717188) scale(0.18 -0.18)">
       <use xlink:href="#DejaVuSans-30"/>
      </g>
     </g>
    </g>
    <g id="xtick_12">
     <g id="line2d_18">
      <g>
       <use xlink:href="#me52eeb7c61" x="451.023302" y="300.04" style="stroke: #000000; stroke-width: 0.8"/>
      </g>
     </g>
     <g id="text_19">
      <!-- 1 -->
      <g transform="translate(445.297052 320.717188) scale(0.18 -0.18)">
       <use xlink:href="#DejaVuSans-31"/>
      </g>
     </g>
    </g>
    <g id="xtick_13">
     <g id="line2d_19">
      <g>
       <use xlink:href="#me52eeb7c61" x="483.27586" y="300.04" style="stroke: #000000; stroke-width: 0.8"/>
      </g>
     </g>
     <g id="text_20">
      <!-- 2 -->
      <g transform="translate(477.54961 320.717188) scale(0.18 -0.18)">
       <use xlink:href="#DejaVuSans-32"/>
      </g>
     </g>
    </g>
    <g id="xtick_14">
     <g id="line2d_20">
      <g>
       <use xlink:href="#me52eeb7c61" x="515.528419" y="300.04" style="stroke: #000000; stroke-width: 0.8"/>
      </g>
     </g>
     <g id="text_21">
      <!-- 3 -->
      <g transform="translate(509.802169 320.717188) scale(0.18 -0.18)">
       <use xlink:href="#DejaVuSans-33"/>
      </g>
     </g>
    </g>
    <g id="xtick_15">
     <g id="line2d_21">
      <g>
       <use xlink:href="#me52eeb7c61" x="547.780977" y="300.04" style="stroke: #000000; stroke-width: 0.8"/>
      </g>
     </g>
     <g id="text_22">
      <!-- 4 -->
      <g transform="translate(542.054727 320.717188) scale(0.18 -0.18)">
       <use xlink:href="#DejaVuSans-34"/>
      </g>
     </g>
    </g>
    <g id="xtick_16">
     <g id="line2d_22">
      <g>
       <use xlink:href="#me52eeb7c61" x="580.033536" y="300.04" style="stroke: #000000; stroke-width: 0.8"/>
      </g>
     </g>
     <g id="text_23">
      <!-- 5 -->
      <g transform="translate(574.307286 320.717188) scale(0.18 -0.18)">
       <use xlink:href="#DejaVuSans-35"/>
      </g>
     </g>
    </g>
    <g id="xtick_17">
     <g id="line2d_23">
      <g>
       <use xlink:href="#me52eeb7c61" x="612.286094" y="300.04" style="stroke: #000000; stroke-width: 0.8"/>
      </g>
     </g>
     <g id="text_24">
      <!-- 6 -->
      <g transform="translate(606.559844 320.717188) scale(0.18 -0.18)">
       <use xlink:href="#DejaVuSans-36"/>
      </g>
     </g>
    </g>
    <g id="xtick_18">
     <g id="line2d_24">
      <g>
       <use xlink:href="#me52eeb7c61" x="644.538653" y="300.04" style="stroke: #000000; stroke-width: 0.8"/>
      </g>
     </g>
     <g id="text_25">
      <!-- 7 -->
      <g transform="translate(638.812403 320.717188) scale(0.18 -0.18)">
       <use xlink:href="#DejaVuSans-37"/>
      </g>
     </g>
    </g>
    <g id="xtick_19">
     <g id="line2d_25">
      <g>
       <use xlink:href="#me52eeb7c61" x="676.791211" y="300.04" style="stroke: #000000; stroke-width: 0.8"/>
      </g>
     </g>
     <g id="text_26">
      <!-- 8 -->
      <g transform="translate(671.064961 320.717188) scale(0.18 -0.18)">
       <use xlink:href="#DejaVuSans-38"/>
      </g>
     </g>
    </g>
    <g id="xtick_20">
     <g id="line2d_26">
      <g>
       <use xlink:href="#me52eeb7c61" x="709.04377" y="300.04" style="stroke: #000000; stroke-width: 0.8"/>
      </g>
     </g>
     <g id="text_27">
      <!-- 9 -->
      <g transform="translate(703.31752 320.717188) scale(0.18 -0.18)">
       <use xlink:href="#DejaVuSans-39"/>
      </g>
     </g>
    </g>
    <g id="text_28">
     <!-- Time (d) -->
     <g transform="translate(517.930694 345.177188) scale(0.22 -0.22)">
      <use xlink:href="#DejaVuSans-54"/>
      <use xlink:href="#DejaVuSans-69" x="57.958984"/>
      <use xlink:href="#DejaVuSans-6d" x="85.742188"/>
      <use xlink:href="#DejaVuSans-65" x="183.154297"/>
      <use xlink:href="#DejaVuSans-20" x="244.677734"/>
      <use xlink:href="#DejaVuSans-28" x="276.464844"/>
      <use xlink:href="#DejaVuSans-64" x="315.478516"/>
      <use xlink:href="#DejaVuSans-29" x="378.955078"/>
     </g>
    </g>
   </g>
   <g id="matplotlib.axis_4">
    <g id="ytick_6">
     <g id="line2d_27">
      <g>
       <use xlink:href="#m4927b8f60f" x="415.545487" y="300.04" style="stroke: #000000; stroke-width: 0.8"/>
      </g>
     </g>
     <g id="text_29">
      <!-- 3 -->
      <g transform="translate(397.092987 306.878594) scale(0.18 -0.18)">
       <use xlink:href="#DejaVuSans-33"/>
      </g>
     </g>
    </g>
    <g id="ytick_7">
     <g id="line2d_28">
      <g>
       <use xlink:href="#m4927b8f60f" x="415.545487" y="249.364444" style="stroke: #000000; stroke-width: 0.8"/>
      </g>
     </g>
     <g id="text_30">
      <!-- 4 -->
      <g transform="translate(397.092987 256.203038) scale(0.18 -0.18)">
       <use xlink:href="#DejaVuSans-34"/>
      </g>
     </g>
    </g>
    <g id="ytick_8">
     <g id="line2d_29">
      <g>
       <use xlink:href="#m4927b8f60f" x="415.545487" y="198.688889" style="stroke: #000000; stroke-width: 0.8"/>
      </g>
     </g>
     <g id="text_31">
      <!-- 5 -->
      <g transform="translate(397.092987 205.527483) scale(0.18 -0.18)">
       <use xlink:href="#DejaVuSans-35"/>
      </g>
     </g>
    </g>
    <g id="ytick_9">
     <g id="line2d_30">
      <g>
       <use xlink:href="#m4927b8f60f" x="415.545487" y="148.013333" style="stroke: #000000; stroke-width: 0.8"/>
      </g>
     </g>
     <g id="text_32">
      <!-- 6 -->
      <g transform="translate(397.092987 154.851927) scale(0.18 -0.18)">
       <use xlink:href="#DejaVuSans-36"/>
      </g>
     </g>
    </g>
    <g id="ytick_10">
     <g id="line2d_31">
      <g>
       <use xlink:href="#m4927b8f60f" x="415.545487" y="97.337778" style="stroke: #000000; stroke-width: 0.8"/>
      </g>
     </g>
     <g id="text_33">
      <!-- 7 -->
      <g transform="translate(397.092987 104.176372) scale(0.18 -0.18)">
       <use xlink:href="#DejaVuSans-37"/>
      </g>
     </g>
    </g>
    <g id="text_34">
     <!-- CD8$^+$ T (log$_{10}$ cells) -->
     <g transform="translate(388.472987 296.46) rotate(-90) scale(0.22 -0.22)">
      <defs>
       <path id="DejaVuSans-43" d="M 4122 4306 
L 4122 3641 
Q 3803 3938 3442 4084 
Q 3081 4231 2675 4231 
Q 1875 4231 1450 3742 
Q 1025 3253 1025 2328 
Q 1025 1406 1450 917 
Q 1875 428 2675 428 
Q 3081 428 3442 575 
Q 3803 722 4122 1019 
L 4122 359 
Q 3791 134 3420 21 
Q 3050 -91 2638 -91 
Q 1578 -91 968 557 
Q 359 1206 359 2328 
Q 359 3453 968 4101 
Q 1578 4750 2638 4750 
Q 3056 4750 3426 4639 
Q 3797 4528 4122 4306 
z
" transform="scale(0.015625)"/>
       <path id="DejaVuSans-44" d="M 1259 4147 
L 1259 519 
L 2022 519 
Q 2988 519 3436 956 
Q 3884 1394 3884 2338 
Q 3884 3275 3436 3711 
Q 2988 4147 2022 4147 
L 1259 4147 
z
M 628 4666 
L 1925 4666 
Q 3281 4666 3915 4102 
Q 4550 3538 4550 2338 
Q 4550 1131 3912 565 
Q 3275 0 1925 0 
L 628 0 
L 628 4666 
z
" transform="scale(0.015625)"/>
       <path id="DejaVuSans-2b" d="M 2944 4013 
L 2944 2272 
L 4684 2272 
L 4684 1741 
L 2944 1741 
L 2944 0 
L 2419 0 
L 2419 1741 
L 678 1741 
L 678 2272 
L 2419 2272 
L 2419 4013 
L 2944 4013 
z
" transform="scale(0.015625)"/>
      </defs>
      <use xlink:href="#DejaVuSans-43" transform="translate(0 0.826562)"/>
      <use xlink:href="#DejaVuSans-44" transform="translate(69.824219 0.826562)"/>
      <use xlink:href="#DejaVuSans-38" transform="translate(146.826172 0.826562)"/>
      <use xlink:href="#DejaVuSans-2b" transform="translate(225.043945 39.107812) scale(0.7)"/>
      <use xlink:href="#DejaVuSans-20" transform="translate(300.068359 0.826562)"/>
      <use xlink:href="#DejaVuSans-54" transform="translate(331.855469 0.826562)"/>
      <use xlink:href="#DejaVuSans-20" transform="translate(392.939453 0.826562)"/>
      <use xlink:href="#DejaVuSans-28" transform="translate(424.726562 0.826562)"/>
      <use xlink:href="#DejaVuSans-6c" transform="translate(463.740234 0.826562)"/>
      <use xlink:href="#DejaVuSans-6f" transform="translate(491.523438 0.826562)"/>
      <use xlink:href="#DejaVuSans-67" transform="translate(552.705078 0.826562)"/>
      <use xlink:href="#DejaVuSans-31" transform="translate(617.138672 -15.579688) scale(0.7)"/>
      <use xlink:href="#DejaVuSans-30" transform="translate(661.674805 -15.579688) scale(0.7)"/>
      <use xlink:href="#DejaVuSans-20" transform="translate(708.945312 0.826562)"/>
      <use xlink:href="#DejaVuSans-63" transform="translate(740.732422 0.826562)"/>
      <use xlink:href="#DejaVuSans-65" transform="translate(795.712891 0.826562)"/>
      <use xlink:href="#DejaVuSans-6c" transform="translate(857.236328 0.826562)"/>
      <use xlink:href="#DejaVuSans-6c" transform="translate(885.019531 0.826562)"/>
      <use xlink:href="#DejaVuSans-73" transform="translate(912.802734 0.826562)"/>
      <use xlink:href="#DejaVuSans-29" transform="translate(964.902344 0.826562)"/>
     </g>
    </g>
   </g>
   <g id="patch_8">
    <path d="M 415.545487 300.04 
L 415.545487 72 
" style="fill: none; stroke: #000000; stroke-width: 0.8; stroke-linejoin: miter; stroke-linecap: square"/>
   </g>
   <g id="patch_9">
    <path d="M 712.269026 300.04 
L 712.269026 72 
" style="fill: none; stroke: #000000; stroke-width: 0.8; stroke-linejoin: miter; stroke-linecap: square"/>
   </g>
   <g id="patch_10">
    <path d="M 415.545487 300.04 
L 712.269026 300.04 
" style="fill: none; stroke: #000000; stroke-width: 0.8; stroke-linejoin: miter; stroke-linecap: square"/>
   </g>
   <g id="patch_11">
    <path d="M 415.545487 72 
L 712.269026 72 
" style="fill: none; stroke: #000000; stroke-width: 0.8; stroke-linejoin: miter; stroke-linecap: square"/>
   </g>
   <g id="PolyCollection_2">
    <defs>
     <path id="mf3d7b233c1" d="M 418.770743 -163.20772 
L 418.770743 -163.20772 
L 418.771282 -163.20772 
L 418.776674 -163.20772 
L 418.830595 -163.20772 
L 419.005236 -163.20772 
L 419.226409 -163.20772 
L 419.760794 -163.20772 
L 420.295178 -163.20772 
L 421.272815 -163.20772 
L 422.047194 -163.20772 
L 423.351267 -163.20772 
L 424.214796 -163.20772 
L 425.753051 -163.20772 
L 426.618613 -163.20772 
L 427.911882 -163.20772 
L 428.836058 -163.20772 
L 430.291674 -163.20772 
L 431.212101 -163.20772 
L 432.504512 -163.20772 
L 433.46204 -163.20772 
L 434.876468 -163.20772 
L 435.823109 -163.20772 
L 437.104554 -163.20772 
L 438.076586 -163.20772 
L 439.458554 -163.20772 
L 440.417756 -163.20772 
L 441.696371 -163.207721 
L 442.675498 -163.207721 
L 444.04905 -163.207723 
L 445.021633 -163.207725 
L 446.338747 -163.207729 
L 447.338278 -163.207734 
L 448.770067 -163.207746 
L 449.774543 -163.20776 
L 451.130577 -163.207794 
L 452.159641 -163.207834 
L 453.632799 -163.207935 
L 454.68888 -163.208052 
L 455.98013 -163.208308 
L 456.986209 -163.208587 
L 458.145272 -163.209135 
L 459.107078 -163.209775 
L 460.07647 -163.210767 
L 461.071948 -163.212332 
L 462.067426 -163.214672 
L 463.062904 -163.218 
L 464.058382 -163.222786 
L 465.05386 -163.230005 
L 465.910651 -163.238469 
L 466.674816 -163.248815 
L 467.43898 -163.262139 
L 468.06872 -163.276058 
L 468.746413 -163.29516 
L 469.424105 -163.320635 
L 470.101798 -163.348251 
L 470.77949 -163.387589 
L 471.457183 -163.431051 
L 472.134875 -163.484393 
L 472.812568 -163.562534 
L 473.49026 -163.646605 
L 474.167953 -163.730677 
L 474.850656 -163.850048 
L 475.54335 -164.006749 
L 476.249393 -164.225925 
L 476.972387 -164.450364 
L 477.715099 -164.680924 
L 480.940355 -166.346458 
L 482.058664 -167.149599 
L 485.28392 -170.174549 
L 486.913246 -172.255284 
L 490.138502 -176.870884 
L 492.318026 -180.467564 
L 495.543282 -185.969918 
L 498.189267 -190.480418 
L 501.414522 -195.740479 
L 503.515703 -198.998453 
L 505.893349 -202.372741 
L 508.270994 -205.435729 
L 510.64864 -208.202736 
L 513.042733 -210.694419 
L 515.470682 -212.93982 
L 518.100537 -215.049323 
L 521.325793 -217.22042 
L 523.888284 -218.599492 
L 526.450775 -219.770015 
L 529.676031 -220.876457 
L 532.901287 -221.696501 
L 536.126543 -222.212721 
L 539.351799 -222.496993 
L 542.577055 -222.466464 
L 545.80231 -222.188785 
L 549.027566 -221.77831 
L 552.252822 -221.256584 
L 555.478078 -220.642585 
L 558.703334 -219.952866 
L 561.92859 -219.201728 
L 565.153845 -218.401405 
L 568.379101 -217.562256 
L 571.604357 -216.692971 
L 574.829613 -215.800766 
L 578.054869 -214.891584 
L 581.280125 -213.970277 
L 584.505381 -213.040775 
L 587.730636 -212.106245 
L 590.955892 -211.169224 
L 594.181148 -210.231739 
L 597.406404 -209.295411 
L 600.63166 -208.361534 
L 603.856916 -207.43115 
L 607.082172 -206.505103 
L 610.307427 -205.584087 
L 613.532683 -204.668681 
L 616.757939 -203.759377 
L 619.983195 -202.856602 
L 623.208451 -201.960736 
L 626.433707 -201.072123 
L 629.658962 -200.191082 
L 632.884218 -199.317914 
L 636.109474 -198.452905 
L 639.33473 -197.596332 
L 642.559986 -196.748464 
L 645.785242 -195.909566 
L 648.534449 -195.201552 
L 651.759705 -194.379944 
L 654.984961 -193.568033 
L 658.210217 -192.766067 
L 661.435472 -191.97429 
L 664.660728 -191.192939 
L 667.885984 -190.422248 
L 671.11124 -189.662444 
L 674.336496 -188.913749 
L 677.561752 -188.176376 
L 680.787008 -187.450532 
L 684.012263 -186.736414 
L 687.237519 -186.034209 
L 690.462775 -185.344095 
L 693.688031 -184.66624 
L 696.913287 -184.000798 
L 700.138543 -183.347913 
L 703.363798 -182.707716 
L 706.589054 -182.080322 
L 709.04377 -181.610179 
L 709.04377 -182.240003 
L 709.04377 -182.240003 
L 706.589054 -182.720272 
L 703.363798 -183.360718 
L 700.138543 -184.013849 
L 696.913287 -184.679534 
L 693.688031 -185.357629 
L 690.462775 -186.04798 
L 687.237519 -186.750418 
L 684.012263 -187.464766 
L 680.787008 -188.190836 
L 677.561752 -188.92843 
L 674.336496 -189.677343 
L 671.11124 -190.43736 
L 667.885984 -191.208259 
L 664.660728 -191.989814 
L 661.435472 -192.781791 
L 658.210217 -193.583952 
L 654.984961 -194.396052 
L 651.759705 -195.217844 
L 648.534449 -196.049077 
L 645.785242 -196.765016 
L 642.559986 -197.613055 
L 639.33473 -198.469793 
L 636.109474 -199.334961 
L 632.884218 -200.208281 
L 629.658962 -201.089467 
L 626.433707 -201.978216 
L 623.208451 -202.874209 
L 619.983195 -203.7771 
L 616.757939 -204.686507 
L 613.532683 -205.601999 
L 610.307427 -206.523079 
L 607.082172 -207.449166 
L 603.856916 -208.379557 
L 600.63166 -209.313399 
L 597.406404 -210.24964 
L 594.181148 -211.186971 
L 590.955892 -212.123754 
L 587.730636 -213.057941 
L 584.505381 -213.986968 
L 581.280125 -214.907639 
L 578.054869 -215.815986 
L 574.829613 -216.707118 
L 571.604357 -217.575045 
L 568.379101 -218.412501 
L 565.153845 -219.210744 
L 561.92859 -219.95936 
L 558.703334 -220.646064 
L 555.478078 -221.256506 
L 552.252822 -221.774095 
L 549.027566 -222.179831 
L 545.80231 -222.452164 
L 542.577055 -222.625046 
L 539.351799 -222.644783 
L 536.126543 -222.536091 
L 532.901287 -222.259412 
L 529.676031 -221.735747 
L 526.450775 -220.929505 
L 523.888284 -220.087444 
L 521.325793 -218.981521 
L 518.100537 -217.2599 
L 515.470682 -215.561171 
L 513.042733 -213.701885 
L 510.64864 -211.588999 
L 508.270994 -209.207309 
L 505.893349 -206.530846 
L 503.515703 -203.534789 
L 501.414522 -200.650385 
L 498.189267 -195.778564 
L 495.543282 -191.440701 
L 492.318026 -185.888951 
L 490.138502 -182.095 
L 486.913246 -176.686029 
L 485.28392 -174.20148 
L 482.058664 -169.924598 
L 480.940355 -168.752577 
L 477.715099 -166.058647 
L 476.972387 -165.630179 
L 476.249393 -165.311093 
L 475.54335 -165.003416 
L 474.850656 -164.717356 
L 474.167953 -164.435423 
L 473.49026 -164.178255 
L 472.812568 -164.007978 
L 472.134875 -163.862487 
L 471.457183 -163.740873 
L 470.77949 -163.639752 
L 470.101798 -163.554869 
L 469.424105 -163.485183 
L 468.746413 -163.428639 
L 468.06872 -163.382088 
L 467.43898 -163.346773 
L 466.674816 -163.313337 
L 465.910651 -163.286772 
L 465.05386 -163.264842 
L 464.058382 -163.246363 
L 463.062904 -163.233595 
L 462.067426 -163.224844 
L 461.071948 -163.218867 
L 460.07647 -163.214988 
L 459.107078 -163.212491 
L 458.145272 -163.210845 
L 456.986209 -163.209552 
L 455.98013 -163.208881 
L 454.68888 -163.208369 
L 453.632799 -163.208123 
L 452.159641 -163.207922 
L 451.130577 -163.207847 
L 449.774543 -163.207786 
L 448.770067 -163.207762 
L 447.338278 -163.20774 
L 446.338747 -163.207733 
L 445.021633 -163.207726 
L 444.04905 -163.207724 
L 442.675498 -163.207722 
L 441.696371 -163.207721 
L 440.417756 -163.20772 
L 439.458554 -163.20772 
L 438.076586 -163.20772 
L 437.104554 -163.20772 
L 435.823109 -163.20772 
L 434.876468 -163.20772 
L 433.46204 -163.20772 
L 432.504512 -163.20772 
L 431.212101 -163.20772 
L 430.291674 -163.20772 
L 428.836058 -163.20772 
L 427.911882 -163.20772 
L 426.618613 -163.20772 
L 425.753051 -163.20772 
L 424.214796 -163.20772 
L 423.351267 -163.20772 
L 422.047194 -163.20772 
L 421.272815 -163.20772 
L 420.295178 -163.20772 
L 419.760794 -163.20772 
L 419.226409 -163.20772 
L 419.005236 -163.20772 
L 418.830595 -163.20772 
L 418.776674 -163.20772 
L 418.771282 -163.20772 
L 418.770743 -163.20772 
z
" style="stroke: #40e0d0; stroke-opacity: 0.2"/>
    </defs>
    <g clip-path="url(#p1000fb1261)">
     <use xlink:href="#mf3d7b233c1" x="0" y="360" style="fill: #40e0d0; fill-opacity: 0.2; stroke: #40e0d0; stroke-opacity: 0.2"/>
    </g>
   </g>
   <g id="PolyCollection_3">
    <defs>
     <path id="mcb76dc68c0" d="M 418.770743 -108.316769 
L 418.770743 -108.316769 
L 418.771282 -108.316769 
L 418.776674 -108.316769 
L 418.830595 -108.316769 
L 419.005236 -108.316769 
L 419.226409 -108.316769 
L 419.760794 -108.316769 
L 420.295178 -108.316769 
L 421.272815 -108.316769 
L 422.047194 -108.316769 
L 423.351267 -108.316769 
L 424.214796 -108.316769 
L 425.753051 -108.316769 
L 426.618613 -108.316769 
L 427.911882 -108.316769 
L 428.836058 -108.316769 
L 430.291674 -108.316769 
L 431.212101 -108.316769 
L 432.504512 -108.316769 
L 433.46204 -108.316769 
L 434.876468 -108.316769 
L 435.823109 -108.316769 
L 437.104554 -108.316769 
L 438.076586 -108.316769 
L 439.458554 -108.316769 
L 440.417756 -108.316769 
L 441.696371 -108.316769 
L 442.675498 -108.316769 
L 444.04905 -108.316769 
L 445.021633 -108.316769 
L 446.338747 -108.316769 
L 447.338278 -108.316769 
L 448.770067 -108.316769 
L 449.774543 -108.316769 
L 451.130577 -108.316769 
L 452.159641 -108.316769 
L 453.632799 -108.316769 
L 454.68888 -108.316769 
L 455.98013 -108.316769 
L 456.986209 -108.316769 
L 458.145272 -108.316769 
L 459.107078 -108.316769 
L 460.07647 -108.316769 
L 461.071948 -108.316769 
L 462.067426 -108.316769 
L 463.062904 -108.316769 
L 464.058382 -108.316769 
L 465.05386 -108.316769 
L 465.910651 -108.316769 
L 466.674816 -108.316769 
L 467.43898 -108.316769 
L 468.06872 -108.316769 
L 468.746413 -108.316769 
L 469.424105 -108.316769 
L 470.101798 -108.316769 
L 470.77949 -108.316769 
L 471.457183 -108.316769 
L 472.134875 -108.316769 
L 472.812568 -108.316769 
L 473.49026 -108.316769 
L 474.167953 -108.316769 
L 474.850656 -108.316769 
L 475.54335 -108.316769 
L 476.249393 -108.316769 
L 476.972387 -108.316769 
L 477.715099 -108.316769 
L 480.940355 -108.316769 
L 482.058664 -108.316769 
L 485.28392 -108.316769 
L 486.913246 -108.316769 
L 490.138502 -108.31677 
L 492.318026 -108.316771 
L 495.543282 -108.316774 
L 498.189267 -108.316784 
L 501.414522 -108.316825 
L 503.515703 -108.316877 
L 505.893349 -108.317039 
L 508.270994 -108.317452 
L 510.64864 -108.318413 
L 513.042733 -108.320523 
L 515.470682 -108.324716 
L 518.100537 -108.333788 
L 521.325793 -108.356064 
L 523.888284 -108.39227 
L 526.450775 -108.44617 
L 529.676031 -108.568216 
L 532.901287 -108.754619 
L 536.126543 -109.043055 
L 539.351799 -109.443537 
L 542.577055 -109.979719 
L 545.80231 -110.661734 
L 549.027566 -111.48896 
L 552.252822 -112.450747 
L 555.478078 -113.528335 
L 558.703334 -114.697213 
L 561.92859 -115.929543 
L 565.153845 -117.197744 
L 568.379101 -118.477044 
L 571.604357 -119.745278 
L 574.829613 -120.984857 
L 578.054869 -122.182825 
L 581.280125 -123.32965 
L 584.505381 -124.419438 
L 587.730636 -125.449035 
L 590.955892 -126.417432 
L 594.181148 -127.325221 
L 597.406404 -128.174129 
L 600.63166 -128.966652 
L 603.856916 -129.705755 
L 607.082172 -130.394656 
L 610.307427 -131.036659 
L 613.532683 -131.635045 
L 616.757939 -132.192988 
L 619.983195 -132.713511 
L 623.208451 -133.199453 
L 626.433707 -133.653459 
L 629.658962 -134.077973 
L 632.884218 -134.475245 
L 636.109474 -134.84734 
L 639.33473 -135.196147 
L 642.559986 -135.523391 
L 645.785242 -135.830652 
L 648.534449 -136.078148 
L 651.759705 -136.352084 
L 654.984961 -136.60983 
L 658.210217 -136.852504 
L 661.435472 -137.081131 
L 664.660728 -137.296651 
L 667.885984 -137.49993 
L 671.11124 -137.691762 
L 674.336496 -137.872883 
L 677.561752 -138.04397 
L 680.787008 -138.20565 
L 684.012263 -138.358501 
L 687.237519 -138.503063 
L 690.462775 -138.639835 
L 693.688031 -138.769281 
L 696.913287 -138.891832 
L 700.138543 -139.007895 
L 703.363798 -139.117847 
L 706.589054 -139.222024 
L 709.04377 -139.298215 
L 709.04377 -139.397579 
L 709.04377 -139.397579 
L 706.589054 -139.325369 
L 703.363798 -139.226727 
L 700.138543 -139.122651 
L 696.913287 -139.012815 
L 693.688031 -138.896869 
L 690.462775 -138.774439 
L 687.237519 -138.645121 
L 684.012263 -138.508485 
L 680.787008 -138.364068 
L 677.561752 -138.21137 
L 674.336496 -138.049854 
L 671.11124 -137.878942 
L 667.885984 -137.698006 
L 664.660728 -137.506372 
L 661.435472 -137.303305 
L 658.210217 -137.088011 
L 654.984961 -136.859626 
L 651.759705 -136.617211 
L 648.534449 -136.359742 
L 645.785242 -136.128013 
L 642.559986 -135.839667 
L 639.33473 -135.532806 
L 636.109474 -135.205991 
L 632.884218 -134.857647 
L 629.658962 -134.486049 
L 626.433707 -134.08931 
L 623.208451 -133.665368 
L 619.983195 -133.211972 
L 616.757939 -132.726679 
L 613.532683 -132.206843 
L 610.307427 -131.649618 
L 607.082172 -131.051977 
L 603.856916 -130.410733 
L 600.63166 -129.72259 
L 597.406404 -128.984219 
L 594.181148 -128.192371 
L 590.955892 -127.344039 
L 587.730636 -126.436675 
L 584.505381 -125.468526 
L 581.280125 -124.439244 
L 578.054869 -123.349493 
L 574.829613 -122.20235 
L 571.604357 -121.00364 
L 568.379101 -119.762575 
L 565.153845 -118.492317 
L 561.92859 -117.210342 
L 558.703334 -115.938646 
L 555.478078 -114.702769 
L 552.252822 -113.530274 
L 549.027566 -112.448943 
L 545.80231 -111.483909 
L 542.577055 -110.654275 
L 539.351799 -109.970208 
L 536.126543 -109.432207 
L 532.901287 -109.030917 
L 529.676031 -108.74823 
L 526.450775 -108.561251 
L 523.888284 -108.463992 
L 521.325793 -108.39919 
L 518.100537 -108.354556 
L 515.470682 -108.335114 
L 513.042733 -108.325501 
L 510.64864 -108.320839 
L 508.270994 -108.318535 
L 505.893349 -108.317484 
L 503.515703 -108.31704 
L 501.414522 -108.316882 
L 498.189267 -108.316799 
L 495.543282 -108.316778 
L 492.318026 -108.316771 
L 490.138502 -108.31677 
L 486.913246 -108.316769 
L 485.28392 -108.316769 
L 482.058664 -108.316769 
L 480.940355 -108.316769 
L 477.715099 -108.316769 
L 476.972387 -108.316769 
L 476.249393 -108.316769 
L 475.54335 -108.316769 
L 474.850656 -108.316769 
L 474.167953 -108.316769 
L 473.49026 -108.316769 
L 472.812568 -108.316769 
L 472.134875 -108.316769 
L 471.457183 -108.316769 
L 470.77949 -108.316769 
L 470.101798 -108.316769 
L 469.424105 -108.316769 
L 468.746413 -108.316769 
L 468.06872 -108.316769 
L 467.43898 -108.316769 
L 466.674816 -108.316769 
L 465.910651 -108.316769 
L 465.05386 -108.316769 
L 464.058382 -108.316769 
L 463.062904 -108.316769 
L 462.067426 -108.316769 
L 461.071948 -108.316769 
L 460.07647 -108.316769 
L 459.107078 -108.316769 
L 458.145272 -108.316769 
L 456.986209 -108.316769 
L 455.98013 -108.316769 
L 454.68888 -108.316769 
L 453.632799 -108.316769 
L 452.159641 -108.316769 
L 451.130577 -108.316769 
L 449.774543 -108.316769 
L 448.770067 -108.316769 
L 447.338278 -108.316769 
L 446.338747 -108.316769 
L 445.021633 -108.316769 
L 444.04905 -108.316769 
L 442.675498 -108.316769 
L 441.696371 -108.316769 
L 440.417756 -108.316769 
L 439.458554 -108.316769 
L 438.076586 -108.316769 
L 437.104554 -108.316769 
L 435.823109 -108.316769 
L 434.876468 -108.316769 
L 433.46204 -108.316769 
L 432.504512 -108.316769 
L 431.212101 -108.316769 
L 430.291674 -108.316769 
L 428.836058 -108.316769 
L 427.911882 -108.316769 
L 426.618613 -108.316769 
L 425.753051 -108.316769 
L 424.214796 -108.316769 
L 423.351267 -108.316769 
L 422.047194 -108.316769 
L 421.272815 -108.316769 
L 420.295178 -108.316769 
L 419.760794 -108.316769 
L 419.226409 -108.316769 
L 419.005236 -108.316769 
L 418.830595 -108.316769 
L 418.776674 -108.316769 
L 418.771282 -108.316769 
L 418.770743 -108.316769 
z
" style="stroke: #40e0d0; stroke-opacity: 0.2"/>
    </defs>
    <g clip-path="url(#p1000fb1261)">
     <use xlink:href="#mcb76dc68c0" x="0" y="360" style="fill: #40e0d0; fill-opacity: 0.2; stroke: #40e0d0; stroke-opacity: 0.2"/>
    </g>
   </g>
   <g id="line2d_32">
    <path d="M 418.770743 196.79228 
L 468.06872 196.682392 
L 471.457183 196.444901 
L 474.167953 196.002619 
L 476.249393 195.398371 
L 477.715099 194.779504 
L 480.940355 192.661835 
L 482.058664 191.664484 
L 485.28392 187.960064 
L 486.913246 185.679634 
L 490.138502 180.550704 
L 498.189267 166.746165 
L 501.414522 161.699346 
L 503.515703 158.638224 
L 505.893349 155.443644 
L 508.270994 152.554726 
L 510.64864 149.969656 
L 513.042733 147.664721 
L 515.470682 145.618722 
L 518.100537 143.714439 
L 521.325793 141.788474 
L 523.888284 140.551376 
L 526.450775 139.550869 
L 529.676031 138.595294 
L 532.901287 137.940807 
L 536.126543 137.550252 
L 539.351799 137.389319 
L 542.577055 137.426612 
L 545.80231 137.633637 
L 549.027566 137.984756 
L 555.478078 139.030416 
L 561.92859 140.411491 
L 568.379101 142.01328 
L 578.054869 144.654894 
L 600.63166 151.17757 
L 623.208451 157.59824 
L 639.33473 161.982438 
L 654.984961 166.03288 
L 671.11124 169.964487 
L 684.012263 172.913281 
L 696.913287 175.673103 
L 709.04377 178.086175 
L 709.04377 178.086175 
" clip-path="url(#p1000fb1261)" style="fill: none; stroke: #40e0d0; stroke-width: 1.5; stroke-linecap: square"/>
   </g>
   <g id="line2d_33">
    <path d="M 418.770743 251.683231 
L 523.888284 251.58166 
L 529.676031 251.359809 
L 536.126543 250.790549 
L 539.351799 250.324081 
L 542.577055 249.714914 
L 545.80231 248.956463 
L 549.027566 248.055214 
L 555.478078 245.892033 
L 561.92859 243.418789 
L 574.829613 238.373075 
L 581.280125 236.078734 
L 587.730636 234.020547 
L 594.181148 232.20693 
L 600.63166 230.624245 
L 607.082172 229.248859 
L 613.532683 228.054367 
L 623.208451 226.546983 
L 632.884218 225.316226 
L 642.559986 224.303724 
L 654.984961 223.253009 
L 667.885984 222.390753 
L 684.012263 221.558027 
L 703.363798 220.82067 
L 709.04377 220.645959 
L 709.04377 220.645959 
" clip-path="url(#p1000fb1261)" style="fill: none; stroke-dasharray: 5.55,2.4; stroke-dashoffset: 0; stroke: #40e0d0; stroke-width: 1.5"/>
   </g>
  </g>
  <g id="text_35">
   <!-- Volunteer 23 -->
   <g transform="translate(283.34625 25.43625) scale(0.24 -0.24)">
    <defs>
     <path id="DejaVuSans-6e" d="M 3513 2113 
L 3513 0 
L 2938 0 
L 2938 2094 
Q 2938 2591 2744 2837 
Q 2550 3084 2163 3084 
Q 1697 3084 1428 2787 
Q 1159 2491 1159 1978 
L 1159 0 
L 581 0 
L 581 3500 
L 1159 3500 
L 1159 2956 
Q 1366 3272 1645 3428 
Q 1925 3584 2291 3584 
Q 2894 3584 3203 3211 
Q 3513 2838 3513 2113 
z
" transform="scale(0.015625)"/>
     <path id="DejaVuSans-74" d="M 1172 4494 
L 1172 3500 
L 2356 3500 
L 2356 3053 
L 1172 3053 
L 1172 1153 
Q 1172 725 1289 603 
Q 1406 481 1766 481 
L 2356 481 
L 2356 0 
L 1766 0 
Q 1100 0 847 248 
Q 594 497 594 1153 
L 594 3053 
L 172 3053 
L 172 3500 
L 594 3500 
L 594 4494 
L 1172 4494 
z
" transform="scale(0.015625)"/>
    </defs>
    <use xlink:href="#DejaVuSans-56"/>
    <use xlink:href="#DejaVuSans-6f" x="60.658203"/>
    <use xlink:href="#DejaVuSans-6c" x="121.839844"/>
    <use xlink:href="#DejaVuSans-75" x="149.623047"/>
    <use xlink:href="#DejaVuSans-6e" x="213.001953"/>
    <use xlink:href="#DejaVuSans-74" x="276.380859"/>
    <use xlink:href="#DejaVuSans-65" x="315.589844"/>
    <use xlink:href="#DejaVuSans-65" x="377.113281"/>
    <use xlink:href="#DejaVuSans-72" x="438.636719"/>
    <use xlink:href="#DejaVuSans-20" x="479.75"/>
    <use xlink:href="#DejaVuSans-32" x="511.537109"/>
    <use xlink:href="#DejaVuSans-33" x="575.160156"/>
   </g>
  </g>
 </g>
 <defs>
  <clipPath id="p8b22eb5733">
   <rect x="57.08" y="72" width="296.723538" height="228.04"/>
  </clipPath>
  <clipPath id="p1000fb1261">
   <rect x="415.545487" y="72" width="296.723538" height="228.04"/>
  </clipPath>
 </defs>
</svg>
