<?xml version="1.0" encoding="utf-8" standalone="no"?>
<!DOCTYPE svg PUBLIC "-//W3C//DTD SVG 1.1//EN"
  "http://www.w3.org/Graphics/SVG/1.1/DTD/svg11.dtd">
<svg xmlns:xlink="http://www.w3.org/1999/xlink" width="1440pt" height="360pt" viewBox="0 0 1440 360" xmlns="http://www.w3.org/2000/svg" version="1.1">
 <metadata>
  <rdf:RDF xmlns:dc="http://purl.org/dc/elements/1.1/" xmlns:cc="http://creativecommons.org/ns#" xmlns:rdf="http://www.w3.org/1999/02/22-rdf-syntax-ns#">
   <cc:Work>
    <dc:type rdf:resource="http://purl.org/dc/dcmitype/StillImage"/>
    <dc:date>2025-01-15T18:59:34.919141</dc:date>
    <dc:format>image/svg+xml</dc:format>
    <dc:creator>
     <cc:Agent>
      <dc:title>Matplotlib v3.9.2, https://matplotlib.org/</dc:title>
     </cc:Agent>
    </dc:creator>
   </cc:Work>
  </rdf:RDF>
 </metadata>
 <defs>
  <style type="text/css">*{stroke-linejoin: round; stroke-linecap: butt}</style>
 </defs>
 <g id="figure_1">
  <g id="patch_1">
   <path d="M 0 360 
L 1440 360 
L 1440 0 
L 0 0 
z
" style="fill: #ffffff"/>
  </g>
  <g id="axes_1">
   <g id="patch_2">
    <path d="M 57.08 300.04 
L 353.803538 300.04 
L 353.803538 72 
L 57.08 72 
z
" style="fill: #ffffff"/>
   </g>
   <g id="matplotlib.axis_1">
    <g id="xtick_1">
     <g id="line2d_1">
      <defs>
       <path id="m6701f4123a" d="M 0 0 
L 0 3.5 
" style="stroke: #000000; stroke-width: 0.8"/>
      </defs>
      <g>
       <use xlink:href="#m6701f4123a" x="60.305256" y="300.04" style="stroke: #000000; stroke-width: 0.8"/>
      </g>
     </g>
     <g id="text_1">
      <!-- 0 -->
      <g transform="translate(54.579006 320.717188) scale(0.18 -0.18)">
       <defs>
        <path id="DejaVuSans-30" d="M 2034 4250 
Q 1547 4250 1301 3770 
Q 1056 3291 1056 2328 
Q 1056 1369 1301 889 
Q 1547 409 2034 409 
Q 2525 409 2770 889 
Q 3016 1369 3016 2328 
Q 3016 3291 2770 3770 
Q 2525 4250 2034 4250 
z
M 2034 4750 
Q 2819 4750 3233 4129 
Q 3647 3509 3647 2328 
Q 3647 1150 3233 529 
Q 2819 -91 2034 -91 
Q 1250 -91 836 529 
Q 422 1150 422 2328 
Q 422 3509 836 4129 
Q 1250 4750 2034 4750 
z
" transform="scale(0.015625)"/>
       </defs>
       <use xlink:href="#DejaVuSans-30"/>
      </g>
     </g>
    </g>
    <g id="xtick_2">
     <g id="line2d_2">
      <g>
       <use xlink:href="#m6701f4123a" x="92.557814" y="300.04" style="stroke: #000000; stroke-width: 0.8"/>
      </g>
     </g>
     <g id="text_2">
      <!-- 1 -->
      <g transform="translate(86.831564 320.717188) scale(0.18 -0.18)">
       <defs>
        <path id="DejaVuSans-31" d="M 794 531 
L 1825 531 
L 1825 4091 
L 703 3866 
L 703 4441 
L 1819 4666 
L 2450 4666 
L 2450 531 
L 3481 531 
L 3481 0 
L 794 0 
L 794 531 
z
" transform="scale(0.015625)"/>
       </defs>
       <use xlink:href="#DejaVuSans-31"/>
      </g>
     </g>
    </g>
    <g id="xtick_3">
     <g id="line2d_3">
      <g>
       <use xlink:href="#m6701f4123a" x="124.810373" y="300.04" style="stroke: #000000; stroke-width: 0.8"/>
      </g>
     </g>
     <g id="text_3">
      <!-- 2 -->
      <g transform="translate(119.084123 320.717188) scale(0.18 -0.18)">
       <defs>
        <path id="DejaVuSans-32" d="M 1228 531 
L 3431 531 
L 3431 0 
L 469 0 
L 469 531 
Q 828 903 1448 1529 
Q 2069 2156 2228 2338 
Q 2531 2678 2651 2914 
Q 2772 3150 2772 3378 
Q 2772 3750 2511 3984 
Q 2250 4219 1831 4219 
Q 1534 4219 1204 4116 
Q 875 4013 500 3803 
L 500 4441 
Q 881 4594 1212 4672 
Q 1544 4750 1819 4750 
Q 2544 4750 2975 4387 
Q 3406 4025 3406 3419 
Q 3406 3131 3298 2873 
Q 3191 2616 2906 2266 
Q 2828 2175 2409 1742 
Q 1991 1309 1228 531 
z
" transform="scale(0.015625)"/>
       </defs>
       <use xlink:href="#DejaVuSans-32"/>
      </g>
     </g>
    </g>
    <g id="xtick_4">
     <g id="line2d_4">
      <g>
       <use xlink:href="#m6701f4123a" x="157.062931" y="300.04" style="stroke: #000000; stroke-width: 0.8"/>
      </g>
     </g>
     <g id="text_4">
      <!-- 3 -->
      <g transform="translate(151.336681 320.717188) scale(0.18 -0.18)">
       <defs>
        <path id="DejaVuSans-33" d="M 2597 2516 
Q 3050 2419 3304 2112 
Q 3559 1806 3559 1356 
Q 3559 666 3084 287 
Q 2609 -91 1734 -91 
Q 1441 -91 1130 -33 
Q 819 25 488 141 
L 488 750 
Q 750 597 1062 519 
Q 1375 441 1716 441 
Q 2309 441 2620 675 
Q 2931 909 2931 1356 
Q 2931 1769 2642 2001 
Q 2353 2234 1838 2234 
L 1294 2234 
L 1294 2753 
L 1863 2753 
Q 2328 2753 2575 2939 
Q 2822 3125 2822 3475 
Q 2822 3834 2567 4026 
Q 2313 4219 1838 4219 
Q 1578 4219 1281 4162 
Q 984 4106 628 3988 
L 628 4550 
Q 988 4650 1302 4700 
Q 1616 4750 1894 4750 
Q 2613 4750 3031 4423 
Q 3450 4097 3450 3541 
Q 3450 3153 3228 2886 
Q 3006 2619 2597 2516 
z
" transform="scale(0.015625)"/>
       </defs>
       <use xlink:href="#DejaVuSans-33"/>
      </g>
     </g>
    </g>
    <g id="xtick_5">
     <g id="line2d_5">
      <g>
       <use xlink:href="#m6701f4123a" x="189.31549" y="300.04" style="stroke: #000000; stroke-width: 0.8"/>
      </g>
     </g>
     <g id="text_5">
      <!-- 4 -->
      <g transform="translate(183.58924 320.717188) scale(0.18 -0.18)">
       <defs>
        <path id="DejaVuSans-34" d="M 2419 4116 
L 825 1625 
L 2419 1625 
L 2419 4116 
z
M 2253 4666 
L 3047 4666 
L 3047 1625 
L 3713 1625 
L 3713 1100 
L 3047 1100 
L 3047 0 
L 2419 0 
L 2419 1100 
L 313 1100 
L 313 1709 
L 2253 4666 
z
" transform="scale(0.015625)"/>
       </defs>
       <use xlink:href="#DejaVuSans-34"/>
      </g>
     </g>
    </g>
    <g id="xtick_6">
     <g id="line2d_6">
      <g>
       <use xlink:href="#m6701f4123a" x="221.568048" y="300.04" style="stroke: #000000; stroke-width: 0.8"/>
      </g>
     </g>
     <g id="text_6">
      <!-- 5 -->
      <g transform="translate(215.841798 320.717188) scale(0.18 -0.18)">
       <defs>
        <path id="DejaVuSans-35" d="M 691 4666 
L 3169 4666 
L 3169 4134 
L 1269 4134 
L 1269 2991 
Q 1406 3038 1543 3061 
Q 1681 3084 1819 3084 
Q 2600 3084 3056 2656 
Q 3513 2228 3513 1497 
Q 3513 744 3044 326 
Q 2575 -91 1722 -91 
Q 1428 -91 1123 -41 
Q 819 9 494 109 
L 494 744 
Q 775 591 1075 516 
Q 1375 441 1709 441 
Q 2250 441 2565 725 
Q 2881 1009 2881 1497 
Q 2881 1984 2565 2268 
Q 2250 2553 1709 2553 
Q 1456 2553 1204 2497 
Q 953 2441 691 2322 
L 691 4666 
z
" transform="scale(0.015625)"/>
       </defs>
       <use xlink:href="#DejaVuSans-35"/>
      </g>
     </g>
    </g>
    <g id="xtick_7">
     <g id="line2d_7">
      <g>
       <use xlink:href="#m6701f4123a" x="253.820607" y="300.04" style="stroke: #000000; stroke-width: 0.8"/>
      </g>
     </g>
     <g id="text_7">
      <!-- 6 -->
      <g transform="translate(248.094357 320.717188) scale(0.18 -0.18)">
       <defs>
        <path id="DejaVuSans-36" d="M 2113 2584 
Q 1688 2584 1439 2293 
Q 1191 2003 1191 1497 
Q 1191 994 1439 701 
Q 1688 409 2113 409 
Q 2538 409 2786 701 
Q 3034 994 3034 1497 
Q 3034 2003 2786 2293 
Q 2538 2584 2113 2584 
z
M 3366 4563 
L 3366 3988 
Q 3128 4100 2886 4159 
Q 2644 4219 2406 4219 
Q 1781 4219 1451 3797 
Q 1122 3375 1075 2522 
Q 1259 2794 1537 2939 
Q 1816 3084 2150 3084 
Q 2853 3084 3261 2657 
Q 3669 2231 3669 1497 
Q 3669 778 3244 343 
Q 2819 -91 2113 -91 
Q 1303 -91 875 529 
Q 447 1150 447 2328 
Q 447 3434 972 4092 
Q 1497 4750 2381 4750 
Q 2619 4750 2861 4703 
Q 3103 4656 3366 4563 
z
" transform="scale(0.015625)"/>
       </defs>
       <use xlink:href="#DejaVuSans-36"/>
      </g>
     </g>
    </g>
    <g id="xtick_8">
     <g id="line2d_8">
      <g>
       <use xlink:href="#m6701f4123a" x="286.073165" y="300.04" style="stroke: #000000; stroke-width: 0.8"/>
      </g>
     </g>
     <g id="text_8">
      <!-- 7 -->
      <g transform="translate(280.346915 320.717188) scale(0.18 -0.18)">
       <defs>
        <path id="DejaVuSans-37" d="M 525 4666 
L 3525 4666 
L 3525 4397 
L 1831 0 
L 1172 0 
L 2766 4134 
L 525 4134 
L 525 4666 
z
" transform="scale(0.015625)"/>
       </defs>
       <use xlink:href="#DejaVuSans-37"/>
      </g>
     </g>
    </g>
    <g id="xtick_9">
     <g id="line2d_9">
      <g>
       <use xlink:href="#m6701f4123a" x="318.325724" y="300.04" style="stroke: #000000; stroke-width: 0.8"/>
      </g>
     </g>
     <g id="text_9">
      <!-- 8 -->
      <g transform="translate(312.599474 320.717188) scale(0.18 -0.18)">
       <defs>
        <path id="DejaVuSans-38" d="M 2034 2216 
Q 1584 2216 1326 1975 
Q 1069 1734 1069 1313 
Q 1069 891 1326 650 
Q 1584 409 2034 409 
Q 2484 409 2743 651 
Q 3003 894 3003 1313 
Q 3003 1734 2745 1975 
Q 2488 2216 2034 2216 
z
M 1403 2484 
Q 997 2584 770 2862 
Q 544 3141 544 3541 
Q 544 4100 942 4425 
Q 1341 4750 2034 4750 
Q 2731 4750 3128 4425 
Q 3525 4100 3525 3541 
Q 3525 3141 3298 2862 
Q 3072 2584 2669 2484 
Q 3125 2378 3379 2068 
Q 3634 1759 3634 1313 
Q 3634 634 3220 271 
Q 2806 -91 2034 -91 
Q 1263 -91 848 271 
Q 434 634 434 1313 
Q 434 1759 690 2068 
Q 947 2378 1403 2484 
z
M 1172 3481 
Q 1172 3119 1398 2916 
Q 1625 2713 2034 2713 
Q 2441 2713 2670 2916 
Q 2900 3119 2900 3481 
Q 2900 3844 2670 4047 
Q 2441 4250 2034 4250 
Q 1625 4250 1398 4047 
Q 1172 3844 1172 3481 
z
" transform="scale(0.015625)"/>
       </defs>
       <use xlink:href="#DejaVuSans-38"/>
      </g>
     </g>
    </g>
    <g id="xtick_10">
     <g id="line2d_10">
      <g>
       <use xlink:href="#m6701f4123a" x="350.578282" y="300.04" style="stroke: #000000; stroke-width: 0.8"/>
      </g>
     </g>
     <g id="text_10">
      <!-- 9 -->
      <g transform="translate(344.852032 320.717188) scale(0.18 -0.18)">
       <defs>
        <path id="DejaVuSans-39" d="M 703 97 
L 703 672 
Q 941 559 1184 500 
Q 1428 441 1663 441 
Q 2288 441 2617 861 
Q 2947 1281 2994 2138 
Q 2813 1869 2534 1725 
Q 2256 1581 1919 1581 
Q 1219 1581 811 2004 
Q 403 2428 403 3163 
Q 403 3881 828 4315 
Q 1253 4750 1959 4750 
Q 2769 4750 3195 4129 
Q 3622 3509 3622 2328 
Q 3622 1225 3098 567 
Q 2575 -91 1691 -91 
Q 1453 -91 1209 -44 
Q 966 3 703 97 
z
M 1959 2075 
Q 2384 2075 2632 2365 
Q 2881 2656 2881 3163 
Q 2881 3666 2632 3958 
Q 2384 4250 1959 4250 
Q 1534 4250 1286 3958 
Q 1038 3666 1038 3163 
Q 1038 2656 1286 2365 
Q 1534 2075 1959 2075 
z
" transform="scale(0.015625)"/>
       </defs>
       <use xlink:href="#DejaVuSans-39"/>
      </g>
     </g>
    </g>
    <g id="text_11">
     <!-- Time (d) -->
     <g transform="translate(159.465207 345.177188) scale(0.22 -0.22)">
      <defs>
       <path id="DejaVuSans-54" d="M -19 4666 
L 3928 4666 
L 3928 4134 
L 2272 4134 
L 2272 0 
L 1638 0 
L 1638 4134 
L -19 4134 
L -19 4666 
z
" transform="scale(0.015625)"/>
       <path id="DejaVuSans-69" d="M 603 3500 
L 1178 3500 
L 1178 0 
L 603 0 
L 603 3500 
z
M 603 4863 
L 1178 4863 
L 1178 4134 
L 603 4134 
L 603 4863 
z
" transform="scale(0.015625)"/>
       <path id="DejaVuSans-6d" d="M 3328 2828 
Q 3544 3216 3844 3400 
Q 4144 3584 4550 3584 
Q 5097 3584 5394 3201 
Q 5691 2819 5691 2113 
L 5691 0 
L 5113 0 
L 5113 2094 
Q 5113 2597 4934 2840 
Q 4756 3084 4391 3084 
Q 3944 3084 3684 2787 
Q 3425 2491 3425 1978 
L 3425 0 
L 2847 0 
L 2847 2094 
Q 2847 2600 2669 2842 
Q 2491 3084 2119 3084 
Q 1678 3084 1418 2786 
Q 1159 2488 1159 1978 
L 1159 0 
L 581 0 
L 581 3500 
L 1159 3500 
L 1159 2956 
Q 1356 3278 1631 3431 
Q 1906 3584 2284 3584 
Q 2666 3584 2933 3390 
Q 3200 3197 3328 2828 
z
" transform="scale(0.015625)"/>
       <path id="DejaVuSans-65" d="M 3597 1894 
L 3597 1613 
L 953 1613 
Q 991 1019 1311 708 
Q 1631 397 2203 397 
Q 2534 397 2845 478 
Q 3156 559 3463 722 
L 3463 178 
Q 3153 47 2828 -22 
Q 2503 -91 2169 -91 
Q 1331 -91 842 396 
Q 353 884 353 1716 
Q 353 2575 817 3079 
Q 1281 3584 2069 3584 
Q 2775 3584 3186 3129 
Q 3597 2675 3597 1894 
z
M 3022 2063 
Q 3016 2534 2758 2815 
Q 2500 3097 2075 3097 
Q 1594 3097 1305 2825 
Q 1016 2553 972 2059 
L 3022 2063 
z
" transform="scale(0.015625)"/>
       <path id="DejaVuSans-20" transform="scale(0.015625)"/>
       <path id="DejaVuSans-28" d="M 1984 4856 
Q 1566 4138 1362 3434 
Q 1159 2731 1159 2009 
Q 1159 1288 1364 580 
Q 1569 -128 1984 -844 
L 1484 -844 
Q 1016 -109 783 600 
Q 550 1309 550 2009 
Q 550 2706 781 3412 
Q 1013 4119 1484 4856 
L 1984 4856 
z
" transform="scale(0.015625)"/>
       <path id="DejaVuSans-64" d="M 2906 2969 
L 2906 4863 
L 3481 4863 
L 3481 0 
L 2906 0 
L 2906 525 
Q 2725 213 2448 61 
Q 2172 -91 1784 -91 
Q 1150 -91 751 415 
Q 353 922 353 1747 
Q 353 2572 751 3078 
Q 1150 3584 1784 3584 
Q 2172 3584 2448 3432 
Q 2725 3281 2906 2969 
z
M 947 1747 
Q 947 1113 1208 752 
Q 1469 391 1925 391 
Q 2381 391 2643 752 
Q 2906 1113 2906 1747 
Q 2906 2381 2643 2742 
Q 2381 3103 1925 3103 
Q 1469 3103 1208 2742 
Q 947 2381 947 1747 
z
" transform="scale(0.015625)"/>
       <path id="DejaVuSans-29" d="M 513 4856 
L 1013 4856 
Q 1481 4119 1714 3412 
Q 1947 2706 1947 2009 
Q 1947 1309 1714 600 
Q 1481 -109 1013 -844 
L 513 -844 
Q 928 -128 1133 580 
Q 1338 1288 1338 2009 
Q 1338 2731 1133 3434 
Q 928 4138 513 4856 
z
" transform="scale(0.015625)"/>
      </defs>
      <use xlink:href="#DejaVuSans-54"/>
      <use xlink:href="#DejaVuSans-69" x="57.958984"/>
      <use xlink:href="#DejaVuSans-6d" x="85.742188"/>
      <use xlink:href="#DejaVuSans-65" x="183.154297"/>
      <use xlink:href="#DejaVuSans-20" x="244.677734"/>
      <use xlink:href="#DejaVuSans-28" x="276.464844"/>
      <use xlink:href="#DejaVuSans-64" x="315.478516"/>
      <use xlink:href="#DejaVuSans-29" x="378.955078"/>
     </g>
    </g>
   </g>
   <g id="matplotlib.axis_2">
    <g id="ytick_1">
     <g id="line2d_11">
      <defs>
       <path id="mbb79375d54" d="M 0 0 
L -3.5 0 
" style="stroke: #000000; stroke-width: 0.8"/>
      </defs>
      <g>
       <use xlink:href="#mbb79375d54" x="57.08" y="300.04" style="stroke: #000000; stroke-width: 0.8"/>
      </g>
     </g>
     <g id="text_12">
      <!-- 0 -->
      <g transform="translate(38.6275 306.878594) scale(0.18 -0.18)">
       <use xlink:href="#DejaVuSans-30"/>
      </g>
     </g>
    </g>
    <g id="ytick_2">
     <g id="line2d_12">
      <g>
       <use xlink:href="#mbb79375d54" x="57.08" y="243.03" style="stroke: #000000; stroke-width: 0.8"/>
      </g>
     </g>
     <g id="text_13">
      <!-- 2 -->
      <g transform="translate(38.6275 249.868594) scale(0.18 -0.18)">
       <use xlink:href="#DejaVuSans-32"/>
      </g>
     </g>
    </g>
    <g id="ytick_3">
     <g id="line2d_13">
      <g>
       <use xlink:href="#mbb79375d54" x="57.08" y="186.02" style="stroke: #000000; stroke-width: 0.8"/>
      </g>
     </g>
     <g id="text_14">
      <!-- 4 -->
      <g transform="translate(38.6275 192.858594) scale(0.18 -0.18)">
       <use xlink:href="#DejaVuSans-34"/>
      </g>
     </g>
    </g>
    <g id="ytick_4">
     <g id="line2d_14">
      <g>
       <use xlink:href="#mbb79375d54" x="57.08" y="129.01" style="stroke: #000000; stroke-width: 0.8"/>
      </g>
     </g>
     <g id="text_15">
      <!-- 6 -->
      <g transform="translate(38.6275 135.848594) scale(0.18 -0.18)">
       <use xlink:href="#DejaVuSans-36"/>
      </g>
     </g>
    </g>
    <g id="ytick_5">
     <g id="line2d_15">
      <g>
       <use xlink:href="#mbb79375d54" x="57.08" y="72" style="stroke: #000000; stroke-width: 0.8"/>
      </g>
     </g>
     <g id="text_16">
      <!-- 8 -->
      <g transform="translate(38.6275 78.838594) scale(0.18 -0.18)">
       <use xlink:href="#DejaVuSans-38"/>
      </g>
     </g>
    </g>
    <g id="text_17">
     <!-- Virus (log$_{10}$ copies/mL) -->
     <g transform="translate(30.0075 312.3) rotate(-90) scale(0.22 -0.22)">
      <defs>
       <path id="DejaVuSans-56" d="M 1831 0 
L 50 4666 
L 709 4666 
L 2188 738 
L 3669 4666 
L 4325 4666 
L 2547 0 
L 1831 0 
z
" transform="scale(0.015625)"/>
       <path id="DejaVuSans-72" d="M 2631 2963 
Q 2534 3019 2420 3045 
Q 2306 3072 2169 3072 
Q 1681 3072 1420 2755 
Q 1159 2438 1159 1844 
L 1159 0 
L 581 0 
L 581 3500 
L 1159 3500 
L 1159 2956 
Q 1341 3275 1631 3429 
Q 1922 3584 2338 3584 
Q 2397 3584 2469 3576 
Q 2541 3569 2628 3553 
L 2631 2963 
z
" transform="scale(0.015625)"/>
       <path id="DejaVuSans-75" d="M 544 1381 
L 544 3500 
L 1119 3500 
L 1119 1403 
Q 1119 906 1312 657 
Q 1506 409 1894 409 
Q 2359 409 2629 706 
Q 2900 1003 2900 1516 
L 2900 3500 
L 3475 3500 
L 3475 0 
L 2900 0 
L 2900 538 
Q 2691 219 2414 64 
Q 2138 -91 1772 -91 
Q 1169 -91 856 284 
Q 544 659 544 1381 
z
M 1991 3584 
L 1991 3584 
z
" transform="scale(0.015625)"/>
       <path id="DejaVuSans-73" d="M 2834 3397 
L 2834 2853 
Q 2591 2978 2328 3040 
Q 2066 3103 1784 3103 
Q 1356 3103 1142 2972 
Q 928 2841 928 2578 
Q 928 2378 1081 2264 
Q 1234 2150 1697 2047 
L 1894 2003 
Q 2506 1872 2764 1633 
Q 3022 1394 3022 966 
Q 3022 478 2636 193 
Q 2250 -91 1575 -91 
Q 1294 -91 989 -36 
Q 684 19 347 128 
L 347 722 
Q 666 556 975 473 
Q 1284 391 1588 391 
Q 1994 391 2212 530 
Q 2431 669 2431 922 
Q 2431 1156 2273 1281 
Q 2116 1406 1581 1522 
L 1381 1569 
Q 847 1681 609 1914 
Q 372 2147 372 2553 
Q 372 3047 722 3315 
Q 1072 3584 1716 3584 
Q 2034 3584 2315 3537 
Q 2597 3491 2834 3397 
z
" transform="scale(0.015625)"/>
       <path id="DejaVuSans-6c" d="M 603 4863 
L 1178 4863 
L 1178 0 
L 603 0 
L 603 4863 
z
" transform="scale(0.015625)"/>
       <path id="DejaVuSans-6f" d="M 1959 3097 
Q 1497 3097 1228 2736 
Q 959 2375 959 1747 
Q 959 1119 1226 758 
Q 1494 397 1959 397 
Q 2419 397 2687 759 
Q 2956 1122 2956 1747 
Q 2956 2369 2687 2733 
Q 2419 3097 1959 3097 
z
M 1959 3584 
Q 2709 3584 3137 3096 
Q 3566 2609 3566 1747 
Q 3566 888 3137 398 
Q 2709 -91 1959 -91 
Q 1206 -91 779 398 
Q 353 888 353 1747 
Q 353 2609 779 3096 
Q 1206 3584 1959 3584 
z
" transform="scale(0.015625)"/>
       <path id="DejaVuSans-67" d="M 2906 1791 
Q 2906 2416 2648 2759 
Q 2391 3103 1925 3103 
Q 1463 3103 1205 2759 
Q 947 2416 947 1791 
Q 947 1169 1205 825 
Q 1463 481 1925 481 
Q 2391 481 2648 825 
Q 2906 1169 2906 1791 
z
M 3481 434 
Q 3481 -459 3084 -895 
Q 2688 -1331 1869 -1331 
Q 1566 -1331 1297 -1286 
Q 1028 -1241 775 -1147 
L 775 -588 
Q 1028 -725 1275 -790 
Q 1522 -856 1778 -856 
Q 2344 -856 2625 -561 
Q 2906 -266 2906 331 
L 2906 616 
Q 2728 306 2450 153 
Q 2172 0 1784 0 
Q 1141 0 747 490 
Q 353 981 353 1791 
Q 353 2603 747 3093 
Q 1141 3584 1784 3584 
Q 2172 3584 2450 3431 
Q 2728 3278 2906 2969 
L 2906 3500 
L 3481 3500 
L 3481 434 
z
" transform="scale(0.015625)"/>
       <path id="DejaVuSans-63" d="M 3122 3366 
L 3122 2828 
Q 2878 2963 2633 3030 
Q 2388 3097 2138 3097 
Q 1578 3097 1268 2742 
Q 959 2388 959 1747 
Q 959 1106 1268 751 
Q 1578 397 2138 397 
Q 2388 397 2633 464 
Q 2878 531 3122 666 
L 3122 134 
Q 2881 22 2623 -34 
Q 2366 -91 2075 -91 
Q 1284 -91 818 406 
Q 353 903 353 1747 
Q 353 2603 823 3093 
Q 1294 3584 2113 3584 
Q 2378 3584 2631 3529 
Q 2884 3475 3122 3366 
z
" transform="scale(0.015625)"/>
       <path id="DejaVuSans-70" d="M 1159 525 
L 1159 -1331 
L 581 -1331 
L 581 3500 
L 1159 3500 
L 1159 2969 
Q 1341 3281 1617 3432 
Q 1894 3584 2278 3584 
Q 2916 3584 3314 3078 
Q 3713 2572 3713 1747 
Q 3713 922 3314 415 
Q 2916 -91 2278 -91 
Q 1894 -91 1617 61 
Q 1341 213 1159 525 
z
M 3116 1747 
Q 3116 2381 2855 2742 
Q 2594 3103 2138 3103 
Q 1681 3103 1420 2742 
Q 1159 2381 1159 1747 
Q 1159 1113 1420 752 
Q 1681 391 2138 391 
Q 2594 391 2855 752 
Q 3116 1113 3116 1747 
z
" transform="scale(0.015625)"/>
       <path id="DejaVuSans-2f" d="M 1625 4666 
L 2156 4666 
L 531 -594 
L 0 -594 
L 1625 4666 
z
" transform="scale(0.015625)"/>
       <path id="DejaVuSans-4c" d="M 628 4666 
L 1259 4666 
L 1259 531 
L 3531 531 
L 3531 0 
L 628 0 
L 628 4666 
z
" transform="scale(0.015625)"/>
      </defs>
      <use xlink:href="#DejaVuSans-56" transform="translate(0 0.015625)"/>
      <use xlink:href="#DejaVuSans-69" transform="translate(68.408203 0.015625)"/>
      <use xlink:href="#DejaVuSans-72" transform="translate(96.191406 0.015625)"/>
      <use xlink:href="#DejaVuSans-75" transform="translate(137.304688 0.015625)"/>
      <use xlink:href="#DejaVuSans-73" transform="translate(200.683594 0.015625)"/>
      <use xlink:href="#DejaVuSans-20" transform="translate(252.783203 0.015625)"/>
      <use xlink:href="#DejaVuSans-28" transform="translate(284.570312 0.015625)"/>
      <use xlink:href="#DejaVuSans-6c" transform="translate(323.583984 0.015625)"/>
      <use xlink:href="#DejaVuSans-6f" transform="translate(351.367188 0.015625)"/>
      <use xlink:href="#DejaVuSans-67" transform="translate(412.548828 0.015625)"/>
      <use xlink:href="#DejaVuSans-31" transform="translate(476.982422 -16.390625) scale(0.7)"/>
      <use xlink:href="#DejaVuSans-30" transform="translate(521.518555 -16.390625) scale(0.7)"/>
      <use xlink:href="#DejaVuSans-20" transform="translate(568.789062 0.015625)"/>
      <use xlink:href="#DejaVuSans-63" transform="translate(600.576172 0.015625)"/>
      <use xlink:href="#DejaVuSans-6f" transform="translate(655.556641 0.015625)"/>
      <use xlink:href="#DejaVuSans-70" transform="translate(716.738281 0.015625)"/>
      <use xlink:href="#DejaVuSans-69" transform="translate(780.214844 0.015625)"/>
      <use xlink:href="#DejaVuSans-65" transform="translate(807.998047 0.015625)"/>
      <use xlink:href="#DejaVuSans-73" transform="translate(869.521484 0.015625)"/>
      <use xlink:href="#DejaVuSans-2f" transform="translate(921.621094 0.015625)"/>
      <use xlink:href="#DejaVuSans-6d" transform="translate(955.3125 0.015625)"/>
      <use xlink:href="#DejaVuSans-4c" transform="translate(1052.724609 0.015625)"/>
      <use xlink:href="#DejaVuSans-29" transform="translate(1108.4375 0.015625)"/>
     </g>
    </g>
   </g>
   <g id="patch_3">
    <path d="M 57.08 300.04 
L 57.08 72 
" style="fill: none; stroke: #000000; stroke-width: 0.8; stroke-linejoin: miter; stroke-linecap: square"/>
   </g>
   <g id="patch_4">
    <path d="M 353.803538 300.04 
L 353.803538 72 
" style="fill: none; stroke: #000000; stroke-width: 0.8; stroke-linejoin: miter; stroke-linecap: square"/>
   </g>
   <g id="patch_5">
    <path d="M 57.08 300.04 
L 353.803538 300.04 
" style="fill: none; stroke: #000000; stroke-width: 0.8; stroke-linejoin: miter; stroke-linecap: square"/>
   </g>
   <g id="patch_6">
    <path d="M 57.08 72 
L 353.803538 72 
" style="fill: none; stroke: #000000; stroke-width: 0.8; stroke-linejoin: miter; stroke-linecap: square"/>
   </g>
   <g id="PolyCollection_1">
    <defs>
     <path id="mf1b4bf94cc" d="M 60.305256 -59.96 
L 60.305256 -59.96 
L 60.305786 -59.96 
L 60.311087 -59.96 
L 60.3641 -59.96 
L 60.640349 -59.96 
L 60.916599 -59.96 
L 61.59304 -59.96 
L 62.146978 -59.96 
L 63.451083 -59.96 
L 64.396261 -59.96 
L 66.386849 -59.96 
L 67.536435 -59.96 
L 69.677882 -59.96 
L 70.939248 -59.96 
L 73.037253 -59.96 
L 74.391607 -59.96 
L 76.49798 -59.96 
L 77.917138 -59.96 
L 80.007417 -59.96 
L 81.474919 -59.96 
L 83.773227 -62.891021 
L 85.21409 -66.626801 
L 87.199088 -71.821409 
L 88.697404 -75.744028 
L 90.857706 -81.389616 
L 92.342978 -85.283342 
L 94.339746 -90.496068 
L 95.85733 -94.467126 
L 98.001015 -100.060531 
L 99.501649 -103.986747 
L 101.503678 -109.204013 
L 103.03632 -113.196978 
L 105.185418 -118.777392 
L 106.710127 -122.728679 
L 108.766691 -128.032477 
L 110.330892 -132.03251 
L 112.560173 -137.681745 
L 114.141164 -141.615067 
L 116.560137 -147.512645 
L 118.137566 -151.191516 
L 120.322974 -156.107929 
L 121.969003 -159.525691 
L 124.377611 -164.0728 
L 126.090068 -166.848725 
L 128.49085 -170.140359 
L 130.249917 -171.994336 
L 132.629113 -173.883778 
L 134.324509 -174.780198 
L 136.583949 -175.487493 
L 138.240531 -175.75728 
L 140.422756 -175.790218 
L 142.029161 -175.678231 
L 143.898145 -175.061763 
L 145.76713 -174.361382 
L 147.636115 -173.596431 
L 149.24812 -172.901325 
L 150.96242 -172.129515 
L 152.676721 -171.329186 
L 154.210025 -170.593538 
L 155.763526 -169.828523 
L 157.317027 -169.047801 
L 158.870529 -168.253595 
L 160.491923 -167.413365 
L 162.180834 -166.524268 
L 163.520586 -165.81091 
L 164.871102 -165.083984 
L 165.97717 -164.483893 
L 167.2228 -163.800173 
L 170.448056 -162.013177 
L 172.140002 -161.055885 
L 175.365258 -159.212407 
L 176.966888 -158.27908 
L 180.192144 -156.369447 
L 182.394644 -155.039496 
L 185.6199 -153.041273 
L 188.273902 -151.354462 
L 191.499158 -149.232136 
L 194.724414 -147.022043 
L 197.94967 -144.70731 
L 201.174925 -142.267193 
L 204.400181 -139.675754 
L 207.625437 -136.899906 
L 210.850693 -133.896608 
L 214.075949 -130.608939 
L 217.301205 -126.960949 
L 220.526461 -122.851971 
L 223.751716 -118.153615 
L 226.976972 -112.718584 
L 230.202228 -106.417906 
L 233.427484 -99.215478 
L 236.65274 -91.240332 
L 239.877996 -82.770379 
L 243.103252 -74.114876 
L 246.328507 -65.702899 
L 249.553763 -59.96 
L 252.779019 -59.96 
L 256.004275 -59.96 
L 259.229531 -59.96 
L 262.454787 -59.96 
L 265.680042 -59.96 
L 268.905298 -59.96 
L 272.130554 -59.96 
L 275.35581 -59.96 
L 278.581066 -59.96 
L 281.806322 -59.96 
L 285.031578 -59.96 
L 288.256833 -59.96 
L 291.482089 -59.96 
L 294.707345 -59.96 
L 297.932601 -59.96 
L 301.157857 -59.96 
L 304.383113 -59.96 
L 307.608369 -59.96 
L 310.833624 -59.96 
L 314.05888 -59.96 
L 317.284136 -59.96 
L 320.509392 -59.96 
L 323.734648 -59.96 
L 326.959904 -59.96 
L 330.18516 -59.96 
L 333.410415 -59.96 
L 336.635671 -59.96 
L 339.860927 -59.96 
L 343.086183 -59.96 
L 346.311439 -59.96 
L 349.536695 -59.96 
L 350.578282 -59.96 
L 350.578282 -59.96 
L 350.578282 -59.96 
L 349.536695 -59.96 
L 346.311439 -59.96 
L 343.086183 -59.96 
L 339.860927 -59.96 
L 336.635671 -59.96 
L 333.410415 -59.96 
L 330.18516 -59.96 
L 326.959904 -59.96 
L 323.734648 -59.96 
L 320.509392 -59.96 
L 317.284136 -59.96 
L 314.05888 -59.96 
L 310.833624 -59.96 
L 307.608369 -59.96 
L 304.383113 -59.96 
L 301.157857 -59.96 
L 297.932601 -59.96 
L 294.707345 -59.96 
L 291.482089 -59.96 
L 288.256833 -59.96 
L 285.031578 -59.96 
L 281.806322 -59.96 
L 278.581066 -59.96 
L 275.35581 -59.96 
L 272.130554 -61.285692 
L 268.905298 -66.198517 
L 265.680042 -72.516888 
L 262.454787 -78.956221 
L 259.229531 -85.439628 
L 256.004275 -91.850484 
L 252.779019 -98.041178 
L 249.553763 -103.864321 
L 246.328507 -109.213803 
L 243.103252 -114.048774 
L 239.877996 -118.387667 
L 236.65274 -122.495578 
L 233.427484 -126.142982 
L 230.202228 -129.453007 
L 226.976972 -132.481712 
L 223.751716 -135.280885 
L 220.526461 -137.88926 
L 217.301205 -140.336579 
L 214.075949 -142.682875 
L 210.850693 -144.978997 
L 207.625437 -147.162044 
L 204.400181 -149.247754 
L 201.174925 -151.256078 
L 197.94967 -153.370613 
L 194.724414 -155.399282 
L 191.499158 -157.354842 
L 188.273902 -159.24555 
L 185.6199 -160.755886 
L 182.394644 -162.551749 
L 180.192144 -163.750736 
L 176.966888 -165.476769 
L 175.365258 -166.321358 
L 172.140002 -167.994829 
L 170.448056 -168.858708 
L 167.2228 -170.48365 
L 165.97717 -171.104263 
L 164.871102 -171.650744 
L 163.520586 -172.309394 
L 162.180834 -172.960145 
L 160.491923 -173.770906 
L 158.870529 -174.537977 
L 157.317027 -175.261564 
L 155.763526 -175.97305 
L 154.210025 -176.670941 
L 152.676721 -177.344667 
L 150.96242 -178.07671 
L 149.24812 -178.783944 
L 147.636115 -179.422264 
L 145.76713 -180.121612 
L 143.898145 -180.771391 
L 142.029161 -181.359324 
L 140.422756 -181.806925 
L 138.240531 -182.292865 
L 136.583949 -182.653807 
L 134.324509 -183.027339 
L 132.629113 -183.13409 
L 130.249917 -183.054727 
L 128.49085 -182.684571 
L 126.090068 -181.713088 
L 124.377611 -180.940149 
L 121.969003 -179.723552 
L 120.322974 -178.392044 
L 118.137566 -176.001145 
L 116.560137 -173.651279 
L 114.141164 -169.386216 
L 112.560173 -166.05133 
L 110.330892 -160.630135 
L 108.766691 -156.446383 
L 106.710127 -150.568936 
L 105.185418 -146.043565 
L 103.03632 -139.475019 
L 101.503678 -134.716312 
L 99.501649 -128.426064 
L 98.001015 -123.68734 
L 95.85733 -116.884356 
L 94.339746 -112.049081 
L 92.342978 -105.681088 
L 90.857706 -100.938229 
L 88.697404 -94.045085 
L 87.199088 -89.295524 
L 85.21409 -83.045646 
L 83.773227 -78.498212 
L 81.474919 -71.247758 
L 80.007417 -66.608523 
L 77.917138 -61.505031 
L 76.49798 -59.96 
L 74.391607 -59.96 
L 73.037253 -59.96 
L 70.939248 -59.96 
L 69.677882 -59.96 
L 67.536435 -59.96 
L 66.386849 -59.96 
L 64.396261 -59.96 
L 63.451083 -59.96 
L 62.146978 -59.96 
L 61.59304 -59.96 
L 60.916599 -59.96 
L 60.640349 -59.96 
L 60.3641 -59.96 
L 60.311087 -59.96 
L 60.305786 -59.96 
L 60.305256 -59.96 
z
" style="stroke: #808080; stroke-opacity: 0.2"/>
    </defs>
    <g clip-path="url(#p60c05f3184)">
     <use xlink:href="#mf1b4bf94cc" x="0" y="360" style="fill: #808080; fill-opacity: 0.2; stroke: #808080; stroke-opacity: 0.2"/>
    </g>
   </g>
   <g id="PathCollection_1">
    <defs>
     <path id="m0ac8a5d081" d="M 0 4.330127 
C 1.148363 4.330127 2.249847 3.873878 3.061862 3.061862 
C 3.873878 2.249847 4.330127 1.148363 4.330127 0 
C 4.330127 -1.148363 3.873878 -2.249847 3.061862 -3.061862 
C 2.249847 -3.873878 1.148363 -4.330127 0 -4.330127 
C -1.148363 -4.330127 -2.249847 -3.873878 -3.061862 -3.061862 
C -3.873878 -2.249847 -4.330127 -1.148363 -4.330127 0 
C -4.330127 1.148363 -3.873878 2.249847 -3.061862 3.061862 
C -2.249847 3.873878 -1.148363 4.330127 0 4.330127 
z
" style="stroke: #808080; stroke-opacity: 0.8"/>
    </defs>
    <g clip-path="url(#p60c05f3184)">
     <use xlink:href="#m0ac8a5d081" x="60.305256" y="300.04" style="fill: #808080; fill-opacity: 0.8; stroke: #808080; stroke-opacity: 0.8"/>
     <use xlink:href="#m0ac8a5d081" x="92.557814" y="297.400648" style="fill: #808080; fill-opacity: 0.8; stroke: #808080; stroke-opacity: 0.8"/>
     <use xlink:href="#m0ac8a5d081" x="124.810373" y="144.318241" style="fill: #808080; fill-opacity: 0.8; stroke: #808080; stroke-opacity: 0.8"/>
     <use xlink:href="#m0ac8a5d081" x="157.062931" y="236.695556" style="fill: #808080; fill-opacity: 0.8; stroke: #808080; stroke-opacity: 0.8"/>
     <use xlink:href="#m0ac8a5d081" x="189.31549" y="218.220093" style="fill: #808080; fill-opacity: 0.8; stroke: #808080; stroke-opacity: 0.8"/>
     <use xlink:href="#m0ac8a5d081" x="221.568048" y="205.023333" style="fill: #808080; fill-opacity: 0.8; stroke: #808080; stroke-opacity: 0.8"/>
     <use xlink:href="#m0ac8a5d081" x="253.820607" y="286.843241" style="fill: #808080; fill-opacity: 0.8; stroke: #808080; stroke-opacity: 0.8"/>
     <use xlink:href="#m0ac8a5d081" x="286.073165" y="300.04" style="fill: #808080; fill-opacity: 0.8; stroke: #808080; stroke-opacity: 0.8"/>
    </g>
   </g>
   <g id="line2d_16">
    <path d="M 60.305256 300.04 
L 60.305786 300.04 
L 60.311087 300.04 
L 60.3641 300.04 
L 60.640349 300.04 
L 60.916599 300.04 
L 61.59304 300.04 
L 62.146978 300.04 
L 63.451083 300.04 
L 64.396261 300.04 
L 66.386849 300.04 
L 67.536435 300.04 
L 69.677882 300.04 
L 70.939248 300.04 
L 73.037253 300.04 
L 74.391607 300.04 
L 76.49798 300.04 
L 77.917138 300.04 
L 80.007417 300.04 
L 81.474919 297.655988 
L 83.773227 291.056258 
L 85.21409 286.946044 
L 87.199088 281.26241 
L 88.697404 276.987675 
L 90.857706 270.794905 
L 92.342978 266.559764 
L 94.339746 260.847849 
L 95.85733 256.524245 
L 98.001015 250.394822 
L 99.501649 246.13066 
L 101.503678 240.434593 
L 103.03632 236.102466 
L 105.185418 230.034246 
L 106.710127 225.780829 
L 108.766691 220.09243 
L 110.330892 215.852603 
L 112.560173 209.957995 
L 114.141164 205.956268 
L 116.560137 200.211342 
L 118.137566 196.799407 
L 120.322974 192.623524 
L 121.969003 189.956872 
L 124.377611 186.868601 
L 126.090068 185.236249 
L 128.49085 183.664472 
L 130.249917 182.958041 
L 132.629113 182.473449 
L 134.324509 182.388487 
L 136.583949 182.527346 
L 138.240531 182.774083 
L 140.422756 183.241057 
L 142.029161 183.668549 
L 143.898145 184.236423 
L 145.76713 184.866617 
L 147.636115 185.547689 
L 149.24812 186.169127 
L 150.96242 186.858884 
L 152.676721 187.573997 
L 154.210025 188.232048 
L 155.763526 188.914125 
L 157.317027 189.609765 
L 158.870529 190.317384 
L 160.491923 191.067294 
L 162.180834 191.859509 
L 163.520586 192.495268 
L 164.871102 193.14222 
L 165.97717 193.676378 
L 167.2228 194.282398 
L 170.448056 195.873143 
L 172.140002 196.719389 
L 175.365258 198.356149 
L 176.966888 199.180365 
L 180.192144 200.866095 
L 182.394644 202.038066 
L 185.6199 203.789304 
L 188.273902 205.264551 
L 191.499158 207.105209 
L 194.724414 209.005286 
L 197.94967 210.97359 
L 201.174925 213.020355 
L 204.400181 215.157639 
L 207.625437 217.399897 
L 210.850693 219.764799 
L 214.075949 222.274332 
L 217.301205 224.956305 
L 220.526461 227.846336 
L 223.751716 230.990371 
L 226.976972 234.447553 
L 230.202228 238.292574 
L 233.427484 242.615002 
L 236.65274 247.510122 
L 239.877996 253.053384 
L 243.103252 259.257069 
L 246.328507 266.031728 
L 249.553763 273.194258 
L 252.779019 280.530582 
L 256.004275 287.86213 
L 259.229531 295.071658 
L 262.454787 300.04 
L 265.680042 300.04 
L 268.905298 300.04 
L 272.130554 300.04 
L 275.35581 300.04 
L 278.581066 300.04 
L 281.806322 300.04 
L 285.031578 300.04 
L 288.256833 300.04 
L 291.482089 300.04 
L 294.707345 300.04 
L 297.932601 300.04 
L 301.157857 300.04 
L 304.383113 300.04 
L 307.608369 300.04 
L 310.833624 300.04 
L 314.05888 300.04 
L 317.284136 300.04 
L 320.509392 300.04 
L 323.734648 300.04 
L 326.959904 300.04 
L 330.18516 300.04 
L 333.410415 300.04 
L 336.635671 300.04 
L 339.860927 300.04 
L 343.086183 300.04 
L 346.311439 300.04 
L 349.536695 300.04 
L 350.578282 300.04 
" clip-path="url(#p60c05f3184)" style="fill: none; stroke: #808080; stroke-width: 1.5; stroke-linecap: square"/>
   </g>
  </g>
  <g id="axes_2">
   <g id="patch_7">
    <path d="M 415.545487 300.04 
L 712.269026 300.04 
L 712.269026 72 
L 415.545487 72 
z
" style="fill: #ffffff"/>
   </g>
   <g id="matplotlib.axis_3">
    <g id="xtick_11">
     <g id="line2d_17">
      <g>
       <use xlink:href="#m6701f4123a" x="418.770743" y="300.04" style="stroke: #000000; stroke-width: 0.8"/>
      </g>
     </g>
     <g id="text_18">
      <!-- 0 -->
      <g transform="translate(413.044493 320.717188) scale(0.18 -0.18)">
       <use xlink:href="#DejaVuSans-30"/>
      </g>
     </g>
    </g>
    <g id="xtick_12">
     <g id="line2d_18">
      <g>
       <use xlink:href="#m6701f4123a" x="451.023302" y="300.04" style="stroke: #000000; stroke-width: 0.8"/>
      </g>
     </g>
     <g id="text_19">
      <!-- 1 -->
      <g transform="translate(445.297052 320.717188) scale(0.18 -0.18)">
       <use xlink:href="#DejaVuSans-31"/>
      </g>
     </g>
    </g>
    <g id="xtick_13">
     <g id="line2d_19">
      <g>
       <use xlink:href="#m6701f4123a" x="483.27586" y="300.04" style="stroke: #000000; stroke-width: 0.8"/>
      </g>
     </g>
     <g id="text_20">
      <!-- 2 -->
      <g transform="translate(477.54961 320.717188) scale(0.18 -0.18)">
       <use xlink:href="#DejaVuSans-32"/>
      </g>
     </g>
    </g>
    <g id="xtick_14">
     <g id="line2d_20">
      <g>
       <use xlink:href="#m6701f4123a" x="515.528419" y="300.04" style="stroke: #000000; stroke-width: 0.8"/>
      </g>
     </g>
     <g id="text_21">
      <!-- 3 -->
      <g transform="translate(509.802169 320.717188) scale(0.18 -0.18)">
       <use xlink:href="#DejaVuSans-33"/>
      </g>
     </g>
    </g>
    <g id="xtick_15">
     <g id="line2d_21">
      <g>
       <use xlink:href="#m6701f4123a" x="547.780977" y="300.04" style="stroke: #000000; stroke-width: 0.8"/>
      </g>
     </g>
     <g id="text_22">
      <!-- 4 -->
      <g transform="translate(542.054727 320.717188) scale(0.18 -0.18)">
       <use xlink:href="#DejaVuSans-34"/>
      </g>
     </g>
    </g>
    <g id="xtick_16">
     <g id="line2d_22">
      <g>
       <use xlink:href="#m6701f4123a" x="580.033536" y="300.04" style="stroke: #000000; stroke-width: 0.8"/>
      </g>
     </g>
     <g id="text_23">
      <!-- 5 -->
      <g transform="translate(574.307286 320.717188) scale(0.18 -0.18)">
       <use xlink:href="#DejaVuSans-35"/>
      </g>
     </g>
    </g>
    <g id="xtick_17">
     <g id="line2d_23">
      <g>
       <use xlink:href="#m6701f4123a" x="612.286094" y="300.04" style="stroke: #000000; stroke-width: 0.8"/>
      </g>
     </g>
     <g id="text_24">
      <!-- 6 -->
      <g transform="translate(606.559844 320.717188) scale(0.18 -0.18)">
       <use xlink:href="#DejaVuSans-36"/>
      </g>
     </g>
    </g>
    <g id="xtick_18">
     <g id="line2d_24">
      <g>
       <use xlink:href="#m6701f4123a" x="644.538653" y="300.04" style="stroke: #000000; stroke-width: 0.8"/>
      </g>
     </g>
     <g id="text_25">
      <!-- 7 -->
      <g transform="translate(638.812403 320.717188) scale(0.18 -0.18)">
       <use xlink:href="#DejaVuSans-37"/>
      </g>
     </g>
    </g>
    <g id="xtick_19">
     <g id="line2d_25">
      <g>
       <use xlink:href="#m6701f4123a" x="676.791211" y="300.04" style="stroke: #000000; stroke-width: 0.8"/>
      </g>
     </g>
     <g id="text_26">
      <!-- 8 -->
      <g transform="translate(671.064961 320.717188) scale(0.18 -0.18)">
       <use xlink:href="#DejaVuSans-38"/>
      </g>
     </g>
    </g>
    <g id="xtick_20">
     <g id="line2d_26">
      <g>
       <use xlink:href="#m6701f4123a" x="709.04377" y="300.04" style="stroke: #000000; stroke-width: 0.8"/>
      </g>
     </g>
     <g id="text_27">
      <!-- 9 -->
      <g transform="translate(703.31752 320.717188) scale(0.18 -0.18)">
       <use xlink:href="#DejaVuSans-39"/>
      </g>
     </g>
    </g>
    <g id="text_28">
     <!-- Time (d) -->
     <g transform="translate(517.930694 345.177188) scale(0.22 -0.22)">
      <use xlink:href="#DejaVuSans-54"/>
      <use xlink:href="#DejaVuSans-69" x="57.958984"/>
      <use xlink:href="#DejaVuSans-6d" x="85.742188"/>
      <use xlink:href="#DejaVuSans-65" x="183.154297"/>
      <use xlink:href="#DejaVuSans-20" x="244.677734"/>
      <use xlink:href="#DejaVuSans-28" x="276.464844"/>
      <use xlink:href="#DejaVuSans-64" x="315.478516"/>
      <use xlink:href="#DejaVuSans-29" x="378.955078"/>
     </g>
    </g>
   </g>
   <g id="matplotlib.axis_4">
    <g id="ytick_6">
     <g id="line2d_27">
      <g>
       <use xlink:href="#mbb79375d54" x="415.545487" y="300.04" style="stroke: #000000; stroke-width: 0.8"/>
      </g>
     </g>
     <g id="text_29">
      <!-- 3 -->
      <g transform="translate(397.092987 306.878594) scale(0.18 -0.18)">
       <use xlink:href="#DejaVuSans-33"/>
      </g>
     </g>
    </g>
    <g id="ytick_7">
     <g id="line2d_28">
      <g>
       <use xlink:href="#mbb79375d54" x="415.545487" y="249.364444" style="stroke: #000000; stroke-width: 0.8"/>
      </g>
     </g>
     <g id="text_30">
      <!-- 4 -->
      <g transform="translate(397.092987 256.203038) scale(0.18 -0.18)">
       <use xlink:href="#DejaVuSans-34"/>
      </g>
     </g>
    </g>
    <g id="ytick_8">
     <g id="line2d_29">
      <g>
       <use xlink:href="#mbb79375d54" x="415.545487" y="198.688889" style="stroke: #000000; stroke-width: 0.8"/>
      </g>
     </g>
     <g id="text_31">
      <!-- 5 -->
      <g transform="translate(397.092987 205.527483) scale(0.18 -0.18)">
       <use xlink:href="#DejaVuSans-35"/>
      </g>
     </g>
    </g>
    <g id="ytick_9">
     <g id="line2d_30">
      <g>
       <use xlink:href="#mbb79375d54" x="415.545487" y="148.013333" style="stroke: #000000; stroke-width: 0.8"/>
      </g>
     </g>
     <g id="text_32">
      <!-- 6 -->
      <g transform="translate(397.092987 154.851927) scale(0.18 -0.18)">
       <use xlink:href="#DejaVuSans-36"/>
      </g>
     </g>
    </g>
    <g id="ytick_10">
     <g id="line2d_31">
      <g>
       <use xlink:href="#mbb79375d54" x="415.545487" y="97.337778" style="stroke: #000000; stroke-width: 0.8"/>
      </g>
     </g>
     <g id="text_33">
      <!-- 7 -->
      <g transform="translate(397.092987 104.176372) scale(0.18 -0.18)">
       <use xlink:href="#DejaVuSans-37"/>
      </g>
     </g>
    </g>
    <g id="text_34">
     <!-- CD8$^+$ T (log$_{10}$ cells) -->
     <g transform="translate(388.472987 296.46) rotate(-90) scale(0.22 -0.22)">
      <defs>
       <path id="DejaVuSans-43" d="M 4122 4306 
L 4122 3641 
Q 3803 3938 3442 4084 
Q 3081 4231 2675 4231 
Q 1875 4231 1450 3742 
Q 1025 3253 1025 2328 
Q 1025 1406 1450 917 
Q 1875 428 2675 428 
Q 3081 428 3442 575 
Q 3803 722 4122 1019 
L 4122 359 
Q 3791 134 3420 21 
Q 3050 -91 2638 -91 
Q 1578 -91 968 557 
Q 359 1206 359 2328 
Q 359 3453 968 4101 
Q 1578 4750 2638 4750 
Q 3056 4750 3426 4639 
Q 3797 4528 4122 4306 
z
" transform="scale(0.015625)"/>
       <path id="DejaVuSans-44" d="M 1259 4147 
L 1259 519 
L 2022 519 
Q 2988 519 3436 956 
Q 3884 1394 3884 2338 
Q 3884 3275 3436 3711 
Q 2988 4147 2022 4147 
L 1259 4147 
z
M 628 4666 
L 1925 4666 
Q 3281 4666 3915 4102 
Q 4550 3538 4550 2338 
Q 4550 1131 3912 565 
Q 3275 0 1925 0 
L 628 0 
L 628 4666 
z
" transform="scale(0.015625)"/>
       <path id="DejaVuSans-2b" d="M 2944 4013 
L 2944 2272 
L 4684 2272 
L 4684 1741 
L 2944 1741 
L 2944 0 
L 2419 0 
L 2419 1741 
L 678 1741 
L 678 2272 
L 2419 2272 
L 2419 4013 
L 2944 4013 
z
" transform="scale(0.015625)"/>
      </defs>
      <use xlink:href="#DejaVuSans-43" transform="translate(0 0.826562)"/>
      <use xlink:href="#DejaVuSans-44" transform="translate(69.824219 0.826562)"/>
      <use xlink:href="#DejaVuSans-38" transform="translate(146.826172 0.826562)"/>
      <use xlink:href="#DejaVuSans-2b" transform="translate(225.043945 39.107812) scale(0.7)"/>
      <use xlink:href="#DejaVuSans-20" transform="translate(300.068359 0.826562)"/>
      <use xlink:href="#DejaVuSans-54" transform="translate(331.855469 0.826562)"/>
      <use xlink:href="#DejaVuSans-20" transform="translate(392.939453 0.826562)"/>
      <use xlink:href="#DejaVuSans-28" transform="translate(424.726562 0.826562)"/>
      <use xlink:href="#DejaVuSans-6c" transform="translate(463.740234 0.826562)"/>
      <use xlink:href="#DejaVuSans-6f" transform="translate(491.523438 0.826562)"/>
      <use xlink:href="#DejaVuSans-67" transform="translate(552.705078 0.826562)"/>
      <use xlink:href="#DejaVuSans-31" transform="translate(617.138672 -15.579688) scale(0.7)"/>
      <use xlink:href="#DejaVuSans-30" transform="translate(661.674805 -15.579688) scale(0.7)"/>
      <use xlink:href="#DejaVuSans-20" transform="translate(708.945312 0.826562)"/>
      <use xlink:href="#DejaVuSans-63" transform="translate(740.732422 0.826562)"/>
      <use xlink:href="#DejaVuSans-65" transform="translate(795.712891 0.826562)"/>
      <use xlink:href="#DejaVuSans-6c" transform="translate(857.236328 0.826562)"/>
      <use xlink:href="#DejaVuSans-6c" transform="translate(885.019531 0.826562)"/>
      <use xlink:href="#DejaVuSans-73" transform="translate(912.802734 0.826562)"/>
      <use xlink:href="#DejaVuSans-29" transform="translate(964.902344 0.826562)"/>
     </g>
    </g>
   </g>
   <g id="patch_8">
    <path d="M 415.545487 300.04 
L 415.545487 72 
" style="fill: none; stroke: #000000; stroke-width: 0.8; stroke-linejoin: miter; stroke-linecap: square"/>
   </g>
   <g id="patch_9">
    <path d="M 712.269026 300.04 
L 712.269026 72 
" style="fill: none; stroke: #000000; stroke-width: 0.8; stroke-linejoin: miter; stroke-linecap: square"/>
   </g>
   <g id="patch_10">
    <path d="M 415.545487 300.04 
L 712.269026 300.04 
" style="fill: none; stroke: #000000; stroke-width: 0.8; stroke-linejoin: miter; stroke-linecap: square"/>
   </g>
   <g id="patch_11">
    <path d="M 415.545487 72 
L 712.269026 72 
" style="fill: none; stroke: #000000; stroke-width: 0.8; stroke-linejoin: miter; stroke-linecap: square"/>
   </g>
   <g id="PolyCollection_2">
    <defs>
     <path id="mbdc77f6586" d="M 418.770743 -163.20772 
L 418.770743 -163.20772 
L 418.771273 -163.20772 
L 418.776574 -163.20772 
L 418.829587 -163.20772 
L 419.105837 -163.20772 
L 419.382086 -163.20772 
L 420.058527 -163.20772 
L 420.612465 -163.20772 
L 421.91657 -163.20772 
L 422.861748 -163.20772 
L 424.852336 -163.20772 
L 426.001922 -163.20772 
L 428.143369 -163.20772 
L 429.404735 -163.20772 
L 431.50274 -163.20772 
L 432.857094 -163.20772 
L 434.963467 -163.20772 
L 436.382625 -163.20772 
L 438.472904 -163.20772 
L 439.940406 -163.20772 
L 442.238714 -163.20772 
L 443.679577 -163.207721 
L 445.664575 -163.207722 
L 447.162891 -163.207724 
L 449.323194 -163.207729 
L 450.808465 -163.207734 
L 452.805233 -163.207745 
L 454.322817 -163.207758 
L 456.466502 -163.207786 
L 457.967136 -163.207818 
L 459.969165 -163.207876 
L 461.501807 -163.207949 
L 463.650905 -163.208089 
L 465.175615 -163.208252 
L 467.232178 -163.208547 
L 468.796379 -163.208901 
L 471.02566 -163.209611 
L 472.606651 -163.210423 
L 475.025625 -163.212185 
L 476.603054 -163.214098 
L 478.788461 -163.217665 
L 480.43449 -163.22192 
L 482.843098 -163.231209 
L 484.555556 -163.241773 
L 486.956337 -163.263456 
L 488.715404 -163.288999 
L 491.0946 -163.339482 
L 492.789996 -163.395214 
L 495.049436 -163.509159 
L 496.706018 -163.627751 
L 498.888243 -163.862725 
L 500.494648 -164.09137 
L 502.363633 -164.472334 
L 504.232618 -164.959179 
L 506.101602 -165.641113 
L 507.713607 -166.442895 
L 509.427908 -167.43398 
L 511.142209 -168.67651 
L 512.675512 -169.960148 
L 514.229013 -171.48513 
L 515.782515 -173.219695 
L 517.336016 -175.070233 
L 518.95741 -177.219807 
L 520.646321 -179.62241 
L 521.986073 -181.560204 
L 523.336589 -183.60099 
L 524.442658 -185.285351 
L 525.688287 -187.196766 
L 528.913543 -192.102679 
L 530.605489 -194.59894 
L 533.830745 -199.138738 
L 535.432375 -201.250759 
L 538.657631 -205.131345 
L 540.860131 -207.593964 
L 544.085387 -210.718515 
L 546.739389 -213.010637 
L 549.964645 -215.347769 
L 553.189901 -217.324942 
L 556.415157 -218.89161 
L 559.640413 -220.119802 
L 562.865669 -221.03647 
L 566.090924 -221.67393 
L 569.31618 -221.971218 
L 572.541436 -221.556294 
L 575.766692 -221.032831 
L 578.991948 -220.418944 
L 582.217204 -219.730536 
L 585.44246 -218.981432 
L 588.667715 -218.183527 
L 591.892971 -217.346946 
L 595.118227 -216.480227 
L 598.343483 -215.590497 
L 601.568739 -214.68365 
L 604.793995 -213.76452 
L 608.01925 -212.837041 
L 611.244506 -211.904391 
L 614.469762 -210.969129 
L 617.695018 -210.033306 
L 620.920274 -209.098564 
L 624.14553 -208.16622 
L 627.370786 -207.237334 
L 630.596041 -206.312769 
L 633.821297 -205.393231 
L 637.046553 -204.479312 
L 640.271809 -203.571513 
L 643.497065 -202.67027 
L 646.722321 -201.775967 
L 649.947577 -200.888956 
L 653.172832 -200.009557 
L 656.398088 -199.138074 
L 659.623344 -198.274796 
L 662.8486 -197.420002 
L 666.073856 -196.573962 
L 669.299112 -195.736941 
L 672.524367 -194.909198 
L 675.749623 -194.090988 
L 678.974879 -193.282562 
L 682.200135 -192.48408 
L 685.425391 -191.696447 
L 688.650647 -190.918785 
L 691.875903 -190.151978 
L 695.101158 -189.395861 
L 698.326414 -188.650654 
L 701.55167 -187.917916 
L 704.776926 -187.196343 
L 708.002182 -186.485758 
L 709.04377 -186.258782 
L 709.04377 -188.833676 
L 709.04377 -188.833676 
L 708.002182 -189.073964 
L 704.776926 -189.825513 
L 701.55167 -190.587242 
L 698.326414 -191.360621 
L 695.101158 -192.143878 
L 691.875903 -192.938241 
L 688.650647 -193.742187 
L 685.425391 -194.556077 
L 682.200135 -195.380089 
L 678.974879 -196.213151 
L 675.749623 -197.054835 
L 672.524367 -197.905803 
L 669.299112 -198.765867 
L 666.073856 -199.633822 
L 662.8486 -200.509807 
L 659.623344 -201.39352 
L 656.398088 -202.284642 
L 653.172832 -203.182828 
L 649.947577 -204.087699 
L 646.722321 -204.998828 
L 643.497065 -205.915728 
L 640.271809 -206.837824 
L 637.046553 -207.764433 
L 633.821297 -208.694727 
L 630.596041 -209.62769 
L 627.370786 -210.562063 
L 624.14553 -211.496283 
L 620.920274 -212.428402 
L 617.695018 -213.355992 
L 614.469762 -214.276044 
L 611.244506 -215.184836 
L 608.01925 -216.077805 
L 604.793995 -216.949387 
L 601.568739 -217.792865 
L 598.343483 -218.600197 
L 595.118227 -219.361854 
L 591.892971 -220.066656 
L 588.667715 -220.701621 
L 585.44246 -221.251838 
L 582.217204 -221.700349 
L 578.991948 -222.02808 
L 575.766692 -222.215515 
L 572.541436 -222.280295 
L 569.31618 -222.323928 
L 566.090924 -222.366496 
L 562.865669 -222.400223 
L 559.640413 -222.348619 
L 556.415157 -222.101254 
L 553.189901 -221.61932 
L 549.964645 -220.870629 
L 546.739389 -219.821006 
L 544.085387 -218.687554 
L 540.860131 -217.026996 
L 538.657631 -215.60248 
L 535.432375 -213.257165 
L 533.830745 -211.847986 
L 530.605489 -208.802955 
L 528.913543 -206.940756 
L 525.688287 -203.13823 
L 524.442658 -201.50594 
L 523.336589 -199.999083 
L 521.986073 -198.143523 
L 520.646321 -196.183148 
L 518.95741 -193.60313 
L 517.336016 -191.08666 
L 515.782515 -188.592197 
L 514.229013 -186.081539 
L 512.675512 -183.569385 
L 511.142209 -181.119999 
L 509.427908 -178.470006 
L 507.713607 -175.96203 
L 506.101602 -173.775553 
L 504.232618 -171.500381 
L 502.363633 -169.542135 
L 500.494648 -167.918534 
L 498.888243 -166.784869 
L 496.706018 -165.598842 
L 495.049436 -164.924746 
L 492.789996 -164.279557 
L 491.0946 -163.947734 
L 488.715404 -163.628984 
L 486.956337 -163.485658 
L 484.555556 -163.365733 
L 482.843098 -163.309871 
L 480.43449 -163.263864 
L 478.788461 -163.244267 
L 476.603054 -163.229057 
L 475.025625 -163.22161 
L 472.606651 -163.215195 
L 471.02566 -163.212621 
L 468.796379 -163.210445 
L 467.232178 -163.209518 
L 465.175615 -163.208767 
L 463.650905 -163.20842 
L 461.501807 -163.208116 
L 459.969165 -163.207984 
L 457.967136 -163.207871 
L 456.466502 -163.20782 
L 454.322817 -163.207773 
L 452.805233 -163.207754 
L 450.808465 -163.207738 
L 449.323194 -163.207731 
L 447.162891 -163.207725 
L 445.664575 -163.207723 
L 443.679577 -163.207721 
L 442.238714 -163.20772 
L 439.940406 -163.20772 
L 438.472904 -163.20772 
L 436.382625 -163.20772 
L 434.963467 -163.20772 
L 432.857094 -163.20772 
L 431.50274 -163.20772 
L 429.404735 -163.20772 
L 428.143369 -163.20772 
L 426.001922 -163.20772 
L 424.852336 -163.20772 
L 422.861748 -163.20772 
L 421.91657 -163.20772 
L 420.612465 -163.20772 
L 420.058527 -163.20772 
L 419.382086 -163.20772 
L 419.105837 -163.20772 
L 418.829587 -163.20772 
L 418.776574 -163.20772 
L 418.771273 -163.20772 
L 418.770743 -163.20772 
z
" style="stroke: #808080; stroke-opacity: 0.2"/>
    </defs>
    <g clip-path="url(#p6aa111294f)">
     <use xlink:href="#mbdc77f6586" x="0" y="360" style="fill: #808080; fill-opacity: 0.2; stroke: #808080; stroke-opacity: 0.2"/>
    </g>
   </g>
   <g id="PolyCollection_3">
    <defs>
     <path id="mb1df5bf763" d="M 418.770743 -108.316769 
L 418.770743 -108.316769 
L 418.771273 -108.316769 
L 418.776574 -108.316769 
L 418.829587 -108.316769 
L 419.105837 -108.316769 
L 419.382086 -108.316769 
L 420.058527 -108.316769 
L 420.612465 -108.316769 
L 421.91657 -108.316769 
L 422.861748 -108.316769 
L 424.852336 -108.316769 
L 426.001922 -108.316769 
L 428.143369 -108.316769 
L 429.404735 -108.316769 
L 431.50274 -108.316769 
L 432.857094 -108.316769 
L 434.963467 -108.316769 
L 436.382625 -108.316769 
L 438.472904 -108.316769 
L 439.940406 -108.316769 
L 442.238714 -108.316769 
L 443.679577 -108.316769 
L 445.664575 -108.316769 
L 447.162891 -108.316769 
L 449.323194 -108.316769 
L 450.808465 -108.316769 
L 452.805233 -108.316769 
L 454.322817 -108.316769 
L 456.466502 -108.316769 
L 457.967136 -108.316769 
L 459.969165 -108.316769 
L 461.501807 -108.316769 
L 463.650905 -108.316769 
L 465.175615 -108.316769 
L 467.232178 -108.316769 
L 468.796379 -108.316769 
L 471.02566 -108.316769 
L 472.606651 -108.316769 
L 475.025625 -108.316769 
L 476.603054 -108.316769 
L 478.788461 -108.316769 
L 480.43449 -108.316769 
L 482.843098 -108.316769 
L 484.555556 -108.316769 
L 486.956337 -108.316769 
L 488.715404 -108.316769 
L 491.0946 -108.316769 
L 492.789996 -108.31677 
L 495.049436 -108.31677 
L 496.706018 -108.31677 
L 498.888243 -108.316771 
L 500.494648 -108.316771 
L 502.363633 -108.316773 
L 504.232618 -108.316774 
L 506.101602 -108.316777 
L 507.713607 -108.316781 
L 509.427908 -108.316786 
L 511.142209 -108.316794 
L 512.675512 -108.316803 
L 514.229013 -108.316817 
L 515.782515 -108.316838 
L 517.336016 -108.316863 
L 518.95741 -108.316903 
L 520.646321 -108.316967 
L 521.986073 -108.317023 
L 523.336589 -108.317111 
L 524.442658 -108.317202 
L 525.688287 -108.317352 
L 528.913543 -108.317884 
L 530.605489 -108.318369 
L 533.830745 -108.319885 
L 535.432375 -108.321105 
L 538.657631 -108.325274 
L 540.860131 -108.329937 
L 544.085387 -108.341711 
L 546.739389 -108.358582 
L 549.964645 -108.392447 
L 553.189901 -108.449484 
L 556.415157 -108.541939 
L 559.640413 -108.685003 
L 562.865669 -108.896867 
L 566.090924 -109.197253 
L 569.31618 -109.606897 
L 572.541436 -110.136722 
L 575.766692 -110.796004 
L 578.991948 -111.586676 
L 582.217204 -112.501561 
L 585.44246 -113.526286 
L 588.667715 -114.640426 
L 591.892971 -115.820277 
L 595.118227 -117.041902 
L 598.343483 -118.281664 
L 601.568739 -119.51868 
L 604.793995 -120.735508 
L 608.01925 -121.91837 
L 611.244506 -123.057042 
L 614.469762 -124.144499 
L 617.695018 -125.17644 
L 620.920274 -126.150774 
L 624.14553 -127.067132 
L 627.370786 -127.926426 
L 630.596041 -128.730482 
L 633.821297 -129.481737 
L 637.046553 -130.183002 
L 640.271809 -130.837282 
L 643.497065 -131.447642 
L 646.722321 -132.017113 
L 649.947577 -132.548625 
L 653.172832 -133.044966 
L 656.398088 -133.50876 
L 659.623344 -133.94245 
L 662.8486 -134.348301 
L 666.073856 -134.728401 
L 669.299112 -135.084669 
L 672.524367 -135.418693 
L 675.749623 -135.732204 
L 678.974879 -136.026744 
L 682.200135 -136.303677 
L 685.425391 -136.564226 
L 688.650647 -136.809501 
L 691.875903 -137.040559 
L 695.101158 -137.258353 
L 698.326414 -137.463757 
L 701.55167 -137.657581 
L 704.776926 -137.840566 
L 708.002182 -138.013864 
L 709.04377 -138.068315 
L 709.04377 -138.603788 
L 709.04377 -138.603788 
L 708.002182 -138.559562 
L 704.776926 -138.41758 
L 701.55167 -138.268043 
L 698.326414 -138.110233 
L 695.101158 -137.942358 
L 691.875903 -137.764916 
L 688.650647 -137.577283 
L 685.425391 -137.378356 
L 682.200135 -137.168136 
L 678.974879 -136.944503 
L 675.749623 -136.707302 
L 672.524367 -136.455433 
L 669.299112 -136.187819 
L 666.073856 -135.90328 
L 662.8486 -135.600532 
L 659.623344 -135.278166 
L 656.398088 -134.934647 
L 653.172832 -134.568292 
L 649.947577 -134.177265 
L 646.722321 -133.759561 
L 643.497065 -133.312998 
L 640.271809 -132.835207 
L 637.046553 -132.323633 
L 633.821297 -131.775534 
L 630.596041 -131.187998 
L 627.370786 -130.557971 
L 624.14553 -129.882304 
L 620.920274 -129.157824 
L 617.695018 -128.381451 
L 614.469762 -127.550338 
L 611.244506 -126.662086 
L 608.01925 -125.715005 
L 604.793995 -124.70846 
L 601.568739 -123.643287 
L 598.343483 -122.522287 
L 595.118227 -121.350769 
L 591.892971 -120.137111 
L 588.667715 -118.893266 
L 585.44246 -117.635089 
L 582.217204 -116.382352 
L 578.991948 -115.158707 
L 575.766692 -113.989102 
L 572.541436 -112.89951 
L 569.31618 -111.913917 
L 566.090924 -111.051699 
L 562.865669 -110.324831 
L 559.640413 -109.736052 
L 556.415157 -109.279637 
L 553.189901 -108.941928 
L 549.964645 -108.704371 
L 546.739389 -108.545844 
L 544.085387 -108.462207 
L 540.860131 -108.393303 
L 538.657631 -108.367526 
L 535.432375 -108.340991 
L 533.830745 -108.334547 
L 530.605489 -108.32475 
L 528.913543 -108.322336 
L 525.688287 -108.319182 
L 524.442658 -108.318567 
L 523.336589 -108.318163 
L 521.986073 -108.317697 
L 520.646321 -108.317433 
L 518.95741 -108.317221 
L 517.336016 -108.317053 
L 515.782515 -108.316969 
L 514.229013 -108.3169 
L 512.675512 -108.316851 
L 511.142209 -108.316825 
L 509.427908 -108.316804 
L 507.713607 -108.316792 
L 506.101602 -108.316784 
L 504.232618 -108.316778 
L 502.363633 -108.316775 
L 500.494648 -108.316772 
L 498.888243 -108.316771 
L 496.706018 -108.31677 
L 495.049436 -108.31677 
L 492.789996 -108.31677 
L 491.0946 -108.316769 
L 488.715404 -108.316769 
L 486.956337 -108.316769 
L 484.555556 -108.316769 
L 482.843098 -108.316769 
L 480.43449 -108.316769 
L 478.788461 -108.316769 
L 476.603054 -108.316769 
L 475.025625 -108.316769 
L 472.606651 -108.316769 
L 471.02566 -108.316769 
L 468.796379 -108.316769 
L 467.232178 -108.316769 
L 465.175615 -108.316769 
L 463.650905 -108.316769 
L 461.501807 -108.316769 
L 459.969165 -108.316769 
L 457.967136 -108.316769 
L 456.466502 -108.316769 
L 454.322817 -108.316769 
L 452.805233 -108.316769 
L 450.808465 -108.316769 
L 449.323194 -108.316769 
L 447.162891 -108.316769 
L 445.664575 -108.316769 
L 443.679577 -108.316769 
L 442.238714 -108.316769 
L 439.940406 -108.316769 
L 438.472904 -108.316769 
L 436.382625 -108.316769 
L 434.963467 -108.316769 
L 432.857094 -108.316769 
L 431.50274 -108.316769 
L 429.404735 -108.316769 
L 428.143369 -108.316769 
L 426.001922 -108.316769 
L 424.852336 -108.316769 
L 422.861748 -108.316769 
L 421.91657 -108.316769 
L 420.612465 -108.316769 
L 420.058527 -108.316769 
L 419.382086 -108.316769 
L 419.105837 -108.316769 
L 418.829587 -108.316769 
L 418.776574 -108.316769 
L 418.771273 -108.316769 
L 418.770743 -108.316769 
z
" style="stroke: #808080; stroke-opacity: 0.2"/>
    </defs>
    <g clip-path="url(#p6aa111294f)">
     <use xlink:href="#mb1df5bf763" x="0" y="360" style="fill: #808080; fill-opacity: 0.2; stroke: #808080; stroke-opacity: 0.2"/>
    </g>
   </g>
   <g id="line2d_32">
    <path d="M 418.770743 196.79228 
L 418.771273 196.79228 
L 418.776574 196.79228 
L 418.829587 196.79228 
L 419.105837 196.79228 
L 419.382086 196.79228 
L 420.058527 196.79228 
L 420.612465 196.79228 
L 421.91657 196.79228 
L 422.861748 196.79228 
L 424.852336 196.79228 
L 426.001922 196.79228 
L 428.143369 196.79228 
L 429.404735 196.79228 
L 431.50274 196.79228 
L 432.857094 196.79228 
L 434.963467 196.79228 
L 436.382625 196.79228 
L 438.472904 196.79228 
L 439.940406 196.79228 
L 442.238714 196.79228 
L 443.679577 196.792279 
L 445.664575 196.792278 
L 447.162891 196.792276 
L 449.323194 196.792271 
L 450.808465 196.792265 
L 452.805233 196.792252 
L 454.322817 196.792238 
L 456.466502 196.792203 
L 457.967136 196.792166 
L 459.969165 196.79209 
L 461.501807 196.792001 
L 463.650905 196.791806 
L 465.175615 196.791596 
L 467.232178 196.791161 
L 468.796379 196.790662 
L 471.02566 196.789543 
L 472.606651 196.788324 
L 475.025625 196.785315 
L 476.603054 196.782247 
L 478.788461 196.775627 
L 480.43449 196.767953 
L 482.843098 196.749856 
L 484.555556 196.729531 
L 486.956337 196.683715 
L 488.715404 196.630954 
L 491.0946 196.517863 
L 492.789996 196.394868 
L 495.049436 196.147316 
L 496.706018 195.882634 
L 498.888243 195.382234 
L 500.494648 194.872947 
L 502.363633 194.088736 
L 504.232618 193.059071 
L 506.101602 191.748111 
L 507.713607 190.373921 
L 509.427908 188.658734 
L 511.142209 186.691496 
L 512.675512 184.737873 
L 514.229013 182.597828 
L 515.782515 180.327941 
L 517.336016 177.963172 
L 518.95741 175.432041 
L 520.646321 172.767563 
L 521.986073 170.658935 
L 523.336589 168.556363 
L 524.442658 166.861799 
L 525.688287 164.992263 
L 528.913543 160.399603 
L 530.605489 158.152723 
L 533.830745 154.22254 
L 535.432375 152.444891 
L 538.657631 149.226494 
L 540.860131 147.296303 
L 544.085387 144.850045 
L 546.739389 143.155116 
L 549.964645 141.455714 
L 553.189901 140.118189 
L 556.415157 139.107777 
L 559.640413 138.390377 
L 562.865669 137.933231 
L 566.090924 137.705345 
L 569.31618 137.677752 
L 572.541436 137.823667 
L 575.766692 138.118568 
L 578.991948 138.540224 
L 582.217204 139.068682 
L 585.44246 139.686206 
L 588.667715 140.377198 
L 591.892971 141.128075 
L 595.118227 141.927138 
L 598.343483 142.764409 
L 601.568739 143.631466 
L 604.793995 144.521274 
L 608.01925 145.428003 
L 611.244506 146.34687 
L 614.469762 147.273978 
L 617.695018 148.206173 
L 620.920274 149.140917 
L 624.14553 150.076171 
L 627.370786 151.010303 
L 630.596041 151.942001 
L 633.821297 152.870208 
L 637.046553 153.794065 
L 640.271809 154.712866 
L 643.497065 155.626021 
L 646.722321 156.533028 
L 649.947577 157.433452 
L 653.172832 158.326908 
L 656.398088 159.213046 
L 659.623344 160.091542 
L 662.8486 160.962095 
L 666.073856 161.824414 
L 669.299112 162.67822 
L 672.524367 163.523244 
L 675.749623 164.359221 
L 678.974879 165.185892 
L 682.200135 166.003 
L 685.425391 166.810297 
L 688.650647 167.607535 
L 691.875903 168.394473 
L 695.101158 169.170875 
L 698.326414 169.93651 
L 701.55167 170.691152 
L 704.776926 171.434583 
L 708.002182 172.166595 
L 709.04377 172.400502 
" clip-path="url(#p6aa111294f)" style="fill: none; stroke: #808080; stroke-width: 1.5; stroke-linecap: square"/>
   </g>
   <g id="line2d_33">
    <path d="M 418.770743 251.683231 
L 418.771273 251.683231 
L 418.776574 251.683231 
L 418.829587 251.683231 
L 419.105837 251.683231 
L 419.382086 251.683231 
L 420.058527 251.683231 
L 420.612465 251.683231 
L 421.91657 251.683231 
L 422.861748 251.683231 
L 424.852336 251.683231 
L 426.001922 251.683231 
L 428.143369 251.683231 
L 429.404735 251.683231 
L 431.50274 251.683231 
L 432.857094 251.683231 
L 434.963467 251.683231 
L 436.382625 251.683231 
L 438.472904 251.683231 
L 439.940406 251.683231 
L 442.238714 251.683231 
L 443.679577 251.683231 
L 445.664575 251.683231 
L 447.162891 251.683231 
L 449.323194 251.683231 
L 450.808465 251.683231 
L 452.805233 251.683231 
L 454.322817 251.683231 
L 456.466502 251.683231 
L 457.967136 251.683231 
L 459.969165 251.683231 
L 461.501807 251.683231 
L 463.650905 251.683231 
L 465.175615 251.683231 
L 467.232178 251.683231 
L 468.796379 251.683231 
L 471.02566 251.683231 
L 472.606651 251.683231 
L 475.025625 251.683231 
L 476.603054 251.683231 
L 478.788461 251.683231 
L 480.43449 251.683231 
L 482.843098 251.683231 
L 484.555556 251.683231 
L 486.956337 251.683231 
L 488.715404 251.683231 
L 491.0946 251.683231 
L 492.789996 251.68323 
L 495.049436 251.68323 
L 496.706018 251.68323 
L 498.888243 251.683229 
L 500.494648 251.683228 
L 502.363633 251.683227 
L 504.232618 251.683225 
L 506.101602 251.683221 
L 507.713607 251.683216 
L 509.427908 251.683209 
L 511.142209 251.683197 
L 512.675512 251.683183 
L 514.229013 251.683161 
L 515.782515 251.683131 
L 517.336016 251.683087 
L 518.95741 251.683021 
L 520.646321 251.682921 
L 521.986073 251.682808 
L 523.336589 251.682653 
L 524.442658 251.682482 
L 525.688287 251.682232 
L 528.913543 251.681135 
L 530.605489 251.680164 
L 533.830745 251.676875 
L 535.432375 251.674203 
L 538.657631 251.665078 
L 540.860131 251.654552 
L 544.085387 251.628415 
L 546.739389 251.592544 
L 549.964645 251.521351 
L 553.189901 251.406341 
L 556.415157 251.229614 
L 559.640413 250.971051 
L 562.865669 250.610653 
L 566.090924 250.13127 
L 569.31618 249.520559 
L 572.541436 248.774024 
L 575.766692 247.895948 
L 578.991948 246.899521 
L 582.217204 245.804048 
L 585.44246 244.633173 
L 588.667715 243.411842 
L 591.892971 242.165115 
L 595.118227 240.915349 
L 598.343483 239.681512 
L 601.568739 238.478769 
L 604.793995 237.318518 
L 608.01925 236.208728 
L 611.244506 235.154418 
L 614.469762 234.158199 
L 617.695018 233.220799 
L 620.920274 232.341532 
L 624.14553 231.5187 
L 627.370786 230.749919 
L 630.596041 230.032381 
L 633.821297 229.363047 
L 637.046553 228.738793 
L 640.271809 228.156522 
L 643.497065 227.613225 
L 646.722321 227.106036 
L 649.947577 226.632255 
L 653.172832 226.189364 
L 656.398088 225.775029 
L 659.623344 225.387099 
L 662.8486 225.023595 
L 666.073856 224.682705 
L 669.299112 224.362769 
L 672.524367 224.062269 
L 675.749623 223.779815 
L 678.974879 223.514135 
L 682.200135 223.264065 
L 685.425391 223.028538 
L 688.650647 222.806546 
L 691.875903 222.597244 
L 695.101158 222.399774 
L 698.326414 222.213375 
L 701.55167 222.037341 
L 704.776926 221.871021 
L 708.002182 221.713813 
L 709.04377 221.664897 
" clip-path="url(#p6aa111294f)" style="fill: none; stroke-dasharray: 5.55,2.4; stroke-dashoffset: 0; stroke: #808080; stroke-width: 1.5"/>
   </g>
  </g>
  <g id="text_35">
   <!-- Volunteer 26 -->
   <g transform="translate(283.34625 25.43625) scale(0.24 -0.24)">
    <defs>
     <path id="DejaVuSans-6e" d="M 3513 2113 
L 3513 0 
L 2938 0 
L 2938 2094 
Q 2938 2591 2744 2837 
Q 2550 3084 2163 3084 
Q 1697 3084 1428 2787 
Q 1159 2491 1159 1978 
L 1159 0 
L 581 0 
L 581 3500 
L 1159 3500 
L 1159 2956 
Q 1366 3272 1645 3428 
Q 1925 3584 2291 3584 
Q 2894 3584 3203 3211 
Q 3513 2838 3513 2113 
z
" transform="scale(0.015625)"/>
     <path id="DejaVuSans-74" d="M 1172 4494 
L 1172 3500 
L 2356 3500 
L 2356 3053 
L 1172 3053 
L 1172 1153 
Q 1172 725 1289 603 
Q 1406 481 1766 481 
L 2356 481 
L 2356 0 
L 1766 0 
Q 1100 0 847 248 
Q 594 497 594 1153 
L 594 3053 
L 172 3053 
L 172 3500 
L 594 3500 
L 594 4494 
L 1172 4494 
z
" transform="scale(0.015625)"/>
    </defs>
    <use xlink:href="#DejaVuSans-56"/>
    <use xlink:href="#DejaVuSans-6f" x="60.658203"/>
    <use xlink:href="#DejaVuSans-6c" x="121.839844"/>
    <use xlink:href="#DejaVuSans-75" x="149.623047"/>
    <use xlink:href="#DejaVuSans-6e" x="213.001953"/>
    <use xlink:href="#DejaVuSans-74" x="276.380859"/>
    <use xlink:href="#DejaVuSans-65" x="315.589844"/>
    <use xlink:href="#DejaVuSans-65" x="377.113281"/>
    <use xlink:href="#DejaVuSans-72" x="438.636719"/>
    <use xlink:href="#DejaVuSans-20" x="479.75"/>
    <use xlink:href="#DejaVuSans-32" x="511.537109"/>
    <use xlink:href="#DejaVuSans-36" x="575.160156"/>
   </g>
  </g>
 </g>
 <defs>
  <clipPath id="p60c05f3184">
   <rect x="57.08" y="72" width="296.723538" height="228.04"/>
  </clipPath>
  <clipPath id="p6aa111294f">
   <rect x="415.545487" y="72" width="296.723538" height="228.04"/>
  </clipPath>
 </defs>
</svg>
