<?xml version="1.0" encoding="utf-8" standalone="no"?>
<!DOCTYPE svg PUBLIC "-//W3C//DTD SVG 1.1//EN"
  "http://www.w3.org/Graphics/SVG/1.1/DTD/svg11.dtd">
<svg xmlns:xlink="http://www.w3.org/1999/xlink" width="1440pt" height="360pt" viewBox="0 0 1440 360" xmlns="http://www.w3.org/2000/svg" version="1.1">
 <metadata>
  <rdf:RDF xmlns:dc="http://purl.org/dc/elements/1.1/" xmlns:cc="http://creativecommons.org/ns#" xmlns:rdf="http://www.w3.org/1999/02/22-rdf-syntax-ns#">
   <cc:Work>
    <dc:type rdf:resource="http://purl.org/dc/dcmitype/StillImage"/>
    <dc:date>2025-01-15T18:59:35.573640</dc:date>
    <dc:format>image/svg+xml</dc:format>
    <dc:creator>
     <cc:Agent>
      <dc:title>Matplotlib v3.9.2, https://matplotlib.org/</dc:title>
     </cc:Agent>
    </dc:creator>
   </cc:Work>
  </rdf:RDF>
 </metadata>
 <defs>
  <style type="text/css">*{stroke-linejoin: round; stroke-linecap: butt}</style>
 </defs>
 <g id="figure_1">
  <g id="patch_1">
   <path d="M 0 360 
L 1440 360 
L 1440 0 
L 0 0 
z
" style="fill: #ffffff"/>
  </g>
  <g id="axes_1">
   <g id="patch_2">
    <path d="M 57.08 300.04 
L 353.803538 300.04 
L 353.803538 72 
L 57.08 72 
z
" style="fill: #ffffff"/>
   </g>
   <g id="matplotlib.axis_1">
    <g id="xtick_1">
     <g id="line2d_1">
      <defs>
       <path id="m527c9f3f0c" d="M 0 0 
L 0 3.5 
" style="stroke: #000000; stroke-width: 0.8"/>
      </defs>
      <g>
       <use xlink:href="#m527c9f3f0c" x="60.305256" y="300.04" style="stroke: #000000; stroke-width: 0.8"/>
      </g>
     </g>
     <g id="text_1">
      <!-- 0 -->
      <g transform="translate(54.579006 320.717188) scale(0.18 -0.18)">
       <defs>
        <path id="DejaVuSans-30" d="M 2034 4250 
Q 1547 4250 1301 3770 
Q 1056 3291 1056 2328 
Q 1056 1369 1301 889 
Q 1547 409 2034 409 
Q 2525 409 2770 889 
Q 3016 1369 3016 2328 
Q 3016 3291 2770 3770 
Q 2525 4250 2034 4250 
z
M 2034 4750 
Q 2819 4750 3233 4129 
Q 3647 3509 3647 2328 
Q 3647 1150 3233 529 
Q 2819 -91 2034 -91 
Q 1250 -91 836 529 
Q 422 1150 422 2328 
Q 422 3509 836 4129 
Q 1250 4750 2034 4750 
z
" transform="scale(0.015625)"/>
       </defs>
       <use xlink:href="#DejaVuSans-30"/>
      </g>
     </g>
    </g>
    <g id="xtick_2">
     <g id="line2d_2">
      <g>
       <use xlink:href="#m527c9f3f0c" x="92.557814" y="300.04" style="stroke: #000000; stroke-width: 0.8"/>
      </g>
     </g>
     <g id="text_2">
      <!-- 1 -->
      <g transform="translate(86.831564 320.717188) scale(0.18 -0.18)">
       <defs>
        <path id="DejaVuSans-31" d="M 794 531 
L 1825 531 
L 1825 4091 
L 703 3866 
L 703 4441 
L 1819 4666 
L 2450 4666 
L 2450 531 
L 3481 531 
L 3481 0 
L 794 0 
L 794 531 
z
" transform="scale(0.015625)"/>
       </defs>
       <use xlink:href="#DejaVuSans-31"/>
      </g>
     </g>
    </g>
    <g id="xtick_3">
     <g id="line2d_3">
      <g>
       <use xlink:href="#m527c9f3f0c" x="124.810373" y="300.04" style="stroke: #000000; stroke-width: 0.8"/>
      </g>
     </g>
     <g id="text_3">
      <!-- 2 -->
      <g transform="translate(119.084123 320.717188) scale(0.18 -0.18)">
       <defs>
        <path id="DejaVuSans-32" d="M 1228 531 
L 3431 531 
L 3431 0 
L 469 0 
L 469 531 
Q 828 903 1448 1529 
Q 2069 2156 2228 2338 
Q 2531 2678 2651 2914 
Q 2772 3150 2772 3378 
Q 2772 3750 2511 3984 
Q 2250 4219 1831 4219 
Q 1534 4219 1204 4116 
Q 875 4013 500 3803 
L 500 4441 
Q 881 4594 1212 4672 
Q 1544 4750 1819 4750 
Q 2544 4750 2975 4387 
Q 3406 4025 3406 3419 
Q 3406 3131 3298 2873 
Q 3191 2616 2906 2266 
Q 2828 2175 2409 1742 
Q 1991 1309 1228 531 
z
" transform="scale(0.015625)"/>
       </defs>
       <use xlink:href="#DejaVuSans-32"/>
      </g>
     </g>
    </g>
    <g id="xtick_4">
     <g id="line2d_4">
      <g>
       <use xlink:href="#m527c9f3f0c" x="157.062931" y="300.04" style="stroke: #000000; stroke-width: 0.8"/>
      </g>
     </g>
     <g id="text_4">
      <!-- 3 -->
      <g transform="translate(151.336681 320.717188) scale(0.18 -0.18)">
       <defs>
        <path id="DejaVuSans-33" d="M 2597 2516 
Q 3050 2419 3304 2112 
Q 3559 1806 3559 1356 
Q 3559 666 3084 287 
Q 2609 -91 1734 -91 
Q 1441 -91 1130 -33 
Q 819 25 488 141 
L 488 750 
Q 750 597 1062 519 
Q 1375 441 1716 441 
Q 2309 441 2620 675 
Q 2931 909 2931 1356 
Q 2931 1769 2642 2001 
Q 2353 2234 1838 2234 
L 1294 2234 
L 1294 2753 
L 1863 2753 
Q 2328 2753 2575 2939 
Q 2822 3125 2822 3475 
Q 2822 3834 2567 4026 
Q 2313 4219 1838 4219 
Q 1578 4219 1281 4162 
Q 984 4106 628 3988 
L 628 4550 
Q 988 4650 1302 4700 
Q 1616 4750 1894 4750 
Q 2613 4750 3031 4423 
Q 3450 4097 3450 3541 
Q 3450 3153 3228 2886 
Q 3006 2619 2597 2516 
z
" transform="scale(0.015625)"/>
       </defs>
       <use xlink:href="#DejaVuSans-33"/>
      </g>
     </g>
    </g>
    <g id="xtick_5">
     <g id="line2d_5">
      <g>
       <use xlink:href="#m527c9f3f0c" x="189.31549" y="300.04" style="stroke: #000000; stroke-width: 0.8"/>
      </g>
     </g>
     <g id="text_5">
      <!-- 4 -->
      <g transform="translate(183.58924 320.717188) scale(0.18 -0.18)">
       <defs>
        <path id="DejaVuSans-34" d="M 2419 4116 
L 825 1625 
L 2419 1625 
L 2419 4116 
z
M 2253 4666 
L 3047 4666 
L 3047 1625 
L 3713 1625 
L 3713 1100 
L 3047 1100 
L 3047 0 
L 2419 0 
L 2419 1100 
L 313 1100 
L 313 1709 
L 2253 4666 
z
" transform="scale(0.015625)"/>
       </defs>
       <use xlink:href="#DejaVuSans-34"/>
      </g>
     </g>
    </g>
    <g id="xtick_6">
     <g id="line2d_6">
      <g>
       <use xlink:href="#m527c9f3f0c" x="221.568048" y="300.04" style="stroke: #000000; stroke-width: 0.8"/>
      </g>
     </g>
     <g id="text_6">
      <!-- 5 -->
      <g transform="translate(215.841798 320.717188) scale(0.18 -0.18)">
       <defs>
        <path id="DejaVuSans-35" d="M 691 4666 
L 3169 4666 
L 3169 4134 
L 1269 4134 
L 1269 2991 
Q 1406 3038 1543 3061 
Q 1681 3084 1819 3084 
Q 2600 3084 3056 2656 
Q 3513 2228 3513 1497 
Q 3513 744 3044 326 
Q 2575 -91 1722 -91 
Q 1428 -91 1123 -41 
Q 819 9 494 109 
L 494 744 
Q 775 591 1075 516 
Q 1375 441 1709 441 
Q 2250 441 2565 725 
Q 2881 1009 2881 1497 
Q 2881 1984 2565 2268 
Q 2250 2553 1709 2553 
Q 1456 2553 1204 2497 
Q 953 2441 691 2322 
L 691 4666 
z
" transform="scale(0.015625)"/>
       </defs>
       <use xlink:href="#DejaVuSans-35"/>
      </g>
     </g>
    </g>
    <g id="xtick_7">
     <g id="line2d_7">
      <g>
       <use xlink:href="#m527c9f3f0c" x="253.820607" y="300.04" style="stroke: #000000; stroke-width: 0.8"/>
      </g>
     </g>
     <g id="text_7">
      <!-- 6 -->
      <g transform="translate(248.094357 320.717188) scale(0.18 -0.18)">
       <defs>
        <path id="DejaVuSans-36" d="M 2113 2584 
Q 1688 2584 1439 2293 
Q 1191 2003 1191 1497 
Q 1191 994 1439 701 
Q 1688 409 2113 409 
Q 2538 409 2786 701 
Q 3034 994 3034 1497 
Q 3034 2003 2786 2293 
Q 2538 2584 2113 2584 
z
M 3366 4563 
L 3366 3988 
Q 3128 4100 2886 4159 
Q 2644 4219 2406 4219 
Q 1781 4219 1451 3797 
Q 1122 3375 1075 2522 
Q 1259 2794 1537 2939 
Q 1816 3084 2150 3084 
Q 2853 3084 3261 2657 
Q 3669 2231 3669 1497 
Q 3669 778 3244 343 
Q 2819 -91 2113 -91 
Q 1303 -91 875 529 
Q 447 1150 447 2328 
Q 447 3434 972 4092 
Q 1497 4750 2381 4750 
Q 2619 4750 2861 4703 
Q 3103 4656 3366 4563 
z
" transform="scale(0.015625)"/>
       </defs>
       <use xlink:href="#DejaVuSans-36"/>
      </g>
     </g>
    </g>
    <g id="xtick_8">
     <g id="line2d_8">
      <g>
       <use xlink:href="#m527c9f3f0c" x="286.073165" y="300.04" style="stroke: #000000; stroke-width: 0.8"/>
      </g>
     </g>
     <g id="text_8">
      <!-- 7 -->
      <g transform="translate(280.346915 320.717188) scale(0.18 -0.18)">
       <defs>
        <path id="DejaVuSans-37" d="M 525 4666 
L 3525 4666 
L 3525 4397 
L 1831 0 
L 1172 0 
L 2766 4134 
L 525 4134 
L 525 4666 
z
" transform="scale(0.015625)"/>
       </defs>
       <use xlink:href="#DejaVuSans-37"/>
      </g>
     </g>
    </g>
    <g id="xtick_9">
     <g id="line2d_9">
      <g>
       <use xlink:href="#m527c9f3f0c" x="318.325724" y="300.04" style="stroke: #000000; stroke-width: 0.8"/>
      </g>
     </g>
     <g id="text_9">
      <!-- 8 -->
      <g transform="translate(312.599474 320.717188) scale(0.18 -0.18)">
       <defs>
        <path id="DejaVuSans-38" d="M 2034 2216 
Q 1584 2216 1326 1975 
Q 1069 1734 1069 1313 
Q 1069 891 1326 650 
Q 1584 409 2034 409 
Q 2484 409 2743 651 
Q 3003 894 3003 1313 
Q 3003 1734 2745 1975 
Q 2488 2216 2034 2216 
z
M 1403 2484 
Q 997 2584 770 2862 
Q 544 3141 544 3541 
Q 544 4100 942 4425 
Q 1341 4750 2034 4750 
Q 2731 4750 3128 4425 
Q 3525 4100 3525 3541 
Q 3525 3141 3298 2862 
Q 3072 2584 2669 2484 
Q 3125 2378 3379 2068 
Q 3634 1759 3634 1313 
Q 3634 634 3220 271 
Q 2806 -91 2034 -91 
Q 1263 -91 848 271 
Q 434 634 434 1313 
Q 434 1759 690 2068 
Q 947 2378 1403 2484 
z
M 1172 3481 
Q 1172 3119 1398 2916 
Q 1625 2713 2034 2713 
Q 2441 2713 2670 2916 
Q 2900 3119 2900 3481 
Q 2900 3844 2670 4047 
Q 2441 4250 2034 4250 
Q 1625 4250 1398 4047 
Q 1172 3844 1172 3481 
z
" transform="scale(0.015625)"/>
       </defs>
       <use xlink:href="#DejaVuSans-38"/>
      </g>
     </g>
    </g>
    <g id="xtick_10">
     <g id="line2d_10">
      <g>
       <use xlink:href="#m527c9f3f0c" x="350.578282" y="300.04" style="stroke: #000000; stroke-width: 0.8"/>
      </g>
     </g>
     <g id="text_10">
      <!-- 9 -->
      <g transform="translate(344.852032 320.717188) scale(0.18 -0.18)">
       <defs>
        <path id="DejaVuSans-39" d="M 703 97 
L 703 672 
Q 941 559 1184 500 
Q 1428 441 1663 441 
Q 2288 441 2617 861 
Q 2947 1281 2994 2138 
Q 2813 1869 2534 1725 
Q 2256 1581 1919 1581 
Q 1219 1581 811 2004 
Q 403 2428 403 3163 
Q 403 3881 828 4315 
Q 1253 4750 1959 4750 
Q 2769 4750 3195 4129 
Q 3622 3509 3622 2328 
Q 3622 1225 3098 567 
Q 2575 -91 1691 -91 
Q 1453 -91 1209 -44 
Q 966 3 703 97 
z
M 1959 2075 
Q 2384 2075 2632 2365 
Q 2881 2656 2881 3163 
Q 2881 3666 2632 3958 
Q 2384 4250 1959 4250 
Q 1534 4250 1286 3958 
Q 1038 3666 1038 3163 
Q 1038 2656 1286 2365 
Q 1534 2075 1959 2075 
z
" transform="scale(0.015625)"/>
       </defs>
       <use xlink:href="#DejaVuSans-39"/>
      </g>
     </g>
    </g>
    <g id="text_11">
     <!-- Time (d) -->
     <g transform="translate(159.465207 345.177188) scale(0.22 -0.22)">
      <defs>
       <path id="DejaVuSans-54" d="M -19 4666 
L 3928 4666 
L 3928 4134 
L 2272 4134 
L 2272 0 
L 1638 0 
L 1638 4134 
L -19 4134 
L -19 4666 
z
" transform="scale(0.015625)"/>
       <path id="DejaVuSans-69" d="M 603 3500 
L 1178 3500 
L 1178 0 
L 603 0 
L 603 3500 
z
M 603 4863 
L 1178 4863 
L 1178 4134 
L 603 4134 
L 603 4863 
z
" transform="scale(0.015625)"/>
       <path id="DejaVuSans-6d" d="M 3328 2828 
Q 3544 3216 3844 3400 
Q 4144 3584 4550 3584 
Q 5097 3584 5394 3201 
Q 5691 2819 5691 2113 
L 5691 0 
L 5113 0 
L 5113 2094 
Q 5113 2597 4934 2840 
Q 4756 3084 4391 3084 
Q 3944 3084 3684 2787 
Q 3425 2491 3425 1978 
L 3425 0 
L 2847 0 
L 2847 2094 
Q 2847 2600 2669 2842 
Q 2491 3084 2119 3084 
Q 1678 3084 1418 2786 
Q 1159 2488 1159 1978 
L 1159 0 
L 581 0 
L 581 3500 
L 1159 3500 
L 1159 2956 
Q 1356 3278 1631 3431 
Q 1906 3584 2284 3584 
Q 2666 3584 2933 3390 
Q 3200 3197 3328 2828 
z
" transform="scale(0.015625)"/>
       <path id="DejaVuSans-65" d="M 3597 1894 
L 3597 1613 
L 953 1613 
Q 991 1019 1311 708 
Q 1631 397 2203 397 
Q 2534 397 2845 478 
Q 3156 559 3463 722 
L 3463 178 
Q 3153 47 2828 -22 
Q 2503 -91 2169 -91 
Q 1331 -91 842 396 
Q 353 884 353 1716 
Q 353 2575 817 3079 
Q 1281 3584 2069 3584 
Q 2775 3584 3186 3129 
Q 3597 2675 3597 1894 
z
M 3022 2063 
Q 3016 2534 2758 2815 
Q 2500 3097 2075 3097 
Q 1594 3097 1305 2825 
Q 1016 2553 972 2059 
L 3022 2063 
z
" transform="scale(0.015625)"/>
       <path id="DejaVuSans-20" transform="scale(0.015625)"/>
       <path id="DejaVuSans-28" d="M 1984 4856 
Q 1566 4138 1362 3434 
Q 1159 2731 1159 2009 
Q 1159 1288 1364 580 
Q 1569 -128 1984 -844 
L 1484 -844 
Q 1016 -109 783 600 
Q 550 1309 550 2009 
Q 550 2706 781 3412 
Q 1013 4119 1484 4856 
L 1984 4856 
z
" transform="scale(0.015625)"/>
       <path id="DejaVuSans-64" d="M 2906 2969 
L 2906 4863 
L 3481 4863 
L 3481 0 
L 2906 0 
L 2906 525 
Q 2725 213 2448 61 
Q 2172 -91 1784 -91 
Q 1150 -91 751 415 
Q 353 922 353 1747 
Q 353 2572 751 3078 
Q 1150 3584 1784 3584 
Q 2172 3584 2448 3432 
Q 2725 3281 2906 2969 
z
M 947 1747 
Q 947 1113 1208 752 
Q 1469 391 1925 391 
Q 2381 391 2643 752 
Q 2906 1113 2906 1747 
Q 2906 2381 2643 2742 
Q 2381 3103 1925 3103 
Q 1469 3103 1208 2742 
Q 947 2381 947 1747 
z
" transform="scale(0.015625)"/>
       <path id="DejaVuSans-29" d="M 513 4856 
L 1013 4856 
Q 1481 4119 1714 3412 
Q 1947 2706 1947 2009 
Q 1947 1309 1714 600 
Q 1481 -109 1013 -844 
L 513 -844 
Q 928 -128 1133 580 
Q 1338 1288 1338 2009 
Q 1338 2731 1133 3434 
Q 928 4138 513 4856 
z
" transform="scale(0.015625)"/>
      </defs>
      <use xlink:href="#DejaVuSans-54"/>
      <use xlink:href="#DejaVuSans-69" x="57.958984"/>
      <use xlink:href="#DejaVuSans-6d" x="85.742188"/>
      <use xlink:href="#DejaVuSans-65" x="183.154297"/>
      <use xlink:href="#DejaVuSans-20" x="244.677734"/>
      <use xlink:href="#DejaVuSans-28" x="276.464844"/>
      <use xlink:href="#DejaVuSans-64" x="315.478516"/>
      <use xlink:href="#DejaVuSans-29" x="378.955078"/>
     </g>
    </g>
   </g>
   <g id="matplotlib.axis_2">
    <g id="ytick_1">
     <g id="line2d_11">
      <defs>
       <path id="med852f1f2e" d="M 0 0 
L -3.5 0 
" style="stroke: #000000; stroke-width: 0.8"/>
      </defs>
      <g>
       <use xlink:href="#med852f1f2e" x="57.08" y="300.04" style="stroke: #000000; stroke-width: 0.8"/>
      </g>
     </g>
     <g id="text_12">
      <!-- 0 -->
      <g transform="translate(38.6275 306.878594) scale(0.18 -0.18)">
       <use xlink:href="#DejaVuSans-30"/>
      </g>
     </g>
    </g>
    <g id="ytick_2">
     <g id="line2d_12">
      <g>
       <use xlink:href="#med852f1f2e" x="57.08" y="243.03" style="stroke: #000000; stroke-width: 0.8"/>
      </g>
     </g>
     <g id="text_13">
      <!-- 2 -->
      <g transform="translate(38.6275 249.868594) scale(0.18 -0.18)">
       <use xlink:href="#DejaVuSans-32"/>
      </g>
     </g>
    </g>
    <g id="ytick_3">
     <g id="line2d_13">
      <g>
       <use xlink:href="#med852f1f2e" x="57.08" y="186.02" style="stroke: #000000; stroke-width: 0.8"/>
      </g>
     </g>
     <g id="text_14">
      <!-- 4 -->
      <g transform="translate(38.6275 192.858594) scale(0.18 -0.18)">
       <use xlink:href="#DejaVuSans-34"/>
      </g>
     </g>
    </g>
    <g id="ytick_4">
     <g id="line2d_14">
      <g>
       <use xlink:href="#med852f1f2e" x="57.08" y="129.01" style="stroke: #000000; stroke-width: 0.8"/>
      </g>
     </g>
     <g id="text_15">
      <!-- 6 -->
      <g transform="translate(38.6275 135.848594) scale(0.18 -0.18)">
       <use xlink:href="#DejaVuSans-36"/>
      </g>
     </g>
    </g>
    <g id="ytick_5">
     <g id="line2d_15">
      <g>
       <use xlink:href="#med852f1f2e" x="57.08" y="72" style="stroke: #000000; stroke-width: 0.8"/>
      </g>
     </g>
     <g id="text_16">
      <!-- 8 -->
      <g transform="translate(38.6275 78.838594) scale(0.18 -0.18)">
       <use xlink:href="#DejaVuSans-38"/>
      </g>
     </g>
    </g>
    <g id="text_17">
     <!-- Virus (log$_{10}$ copies/mL) -->
     <g transform="translate(30.0075 312.3) rotate(-90) scale(0.22 -0.22)">
      <defs>
       <path id="DejaVuSans-56" d="M 1831 0 
L 50 4666 
L 709 4666 
L 2188 738 
L 3669 4666 
L 4325 4666 
L 2547 0 
L 1831 0 
z
" transform="scale(0.015625)"/>
       <path id="DejaVuSans-72" d="M 2631 2963 
Q 2534 3019 2420 3045 
Q 2306 3072 2169 3072 
Q 1681 3072 1420 2755 
Q 1159 2438 1159 1844 
L 1159 0 
L 581 0 
L 581 3500 
L 1159 3500 
L 1159 2956 
Q 1341 3275 1631 3429 
Q 1922 3584 2338 3584 
Q 2397 3584 2469 3576 
Q 2541 3569 2628 3553 
L 2631 2963 
z
" transform="scale(0.015625)"/>
       <path id="DejaVuSans-75" d="M 544 1381 
L 544 3500 
L 1119 3500 
L 1119 1403 
Q 1119 906 1312 657 
Q 1506 409 1894 409 
Q 2359 409 2629 706 
Q 2900 1003 2900 1516 
L 2900 3500 
L 3475 3500 
L 3475 0 
L 2900 0 
L 2900 538 
Q 2691 219 2414 64 
Q 2138 -91 1772 -91 
Q 1169 -91 856 284 
Q 544 659 544 1381 
z
M 1991 3584 
L 1991 3584 
z
" transform="scale(0.015625)"/>
       <path id="DejaVuSans-73" d="M 2834 3397 
L 2834 2853 
Q 2591 2978 2328 3040 
Q 2066 3103 1784 3103 
Q 1356 3103 1142 2972 
Q 928 2841 928 2578 
Q 928 2378 1081 2264 
Q 1234 2150 1697 2047 
L 1894 2003 
Q 2506 1872 2764 1633 
Q 3022 1394 3022 966 
Q 3022 478 2636 193 
Q 2250 -91 1575 -91 
Q 1294 -91 989 -36 
Q 684 19 347 128 
L 347 722 
Q 666 556 975 473 
Q 1284 391 1588 391 
Q 1994 391 2212 530 
Q 2431 669 2431 922 
Q 2431 1156 2273 1281 
Q 2116 1406 1581 1522 
L 1381 1569 
Q 847 1681 609 1914 
Q 372 2147 372 2553 
Q 372 3047 722 3315 
Q 1072 3584 1716 3584 
Q 2034 3584 2315 3537 
Q 2597 3491 2834 3397 
z
" transform="scale(0.015625)"/>
       <path id="DejaVuSans-6c" d="M 603 4863 
L 1178 4863 
L 1178 0 
L 603 0 
L 603 4863 
z
" transform="scale(0.015625)"/>
       <path id="DejaVuSans-6f" d="M 1959 3097 
Q 1497 3097 1228 2736 
Q 959 2375 959 1747 
Q 959 1119 1226 758 
Q 1494 397 1959 397 
Q 2419 397 2687 759 
Q 2956 1122 2956 1747 
Q 2956 2369 2687 2733 
Q 2419 3097 1959 3097 
z
M 1959 3584 
Q 2709 3584 3137 3096 
Q 3566 2609 3566 1747 
Q 3566 888 3137 398 
Q 2709 -91 1959 -91 
Q 1206 -91 779 398 
Q 353 888 353 1747 
Q 353 2609 779 3096 
Q 1206 3584 1959 3584 
z
" transform="scale(0.015625)"/>
       <path id="DejaVuSans-67" d="M 2906 1791 
Q 2906 2416 2648 2759 
Q 2391 3103 1925 3103 
Q 1463 3103 1205 2759 
Q 947 2416 947 1791 
Q 947 1169 1205 825 
Q 1463 481 1925 481 
Q 2391 481 2648 825 
Q 2906 1169 2906 1791 
z
M 3481 434 
Q 3481 -459 3084 -895 
Q 2688 -1331 1869 -1331 
Q 1566 -1331 1297 -1286 
Q 1028 -1241 775 -1147 
L 775 -588 
Q 1028 -725 1275 -790 
Q 1522 -856 1778 -856 
Q 2344 -856 2625 -561 
Q 2906 -266 2906 331 
L 2906 616 
Q 2728 306 2450 153 
Q 2172 0 1784 0 
Q 1141 0 747 490 
Q 353 981 353 1791 
Q 353 2603 747 3093 
Q 1141 3584 1784 3584 
Q 2172 3584 2450 3431 
Q 2728 3278 2906 2969 
L 2906 3500 
L 3481 3500 
L 3481 434 
z
" transform="scale(0.015625)"/>
       <path id="DejaVuSans-63" d="M 3122 3366 
L 3122 2828 
Q 2878 2963 2633 3030 
Q 2388 3097 2138 3097 
Q 1578 3097 1268 2742 
Q 959 2388 959 1747 
Q 959 1106 1268 751 
Q 1578 397 2138 397 
Q 2388 397 2633 464 
Q 2878 531 3122 666 
L 3122 134 
Q 2881 22 2623 -34 
Q 2366 -91 2075 -91 
Q 1284 -91 818 406 
Q 353 903 353 1747 
Q 353 2603 823 3093 
Q 1294 3584 2113 3584 
Q 2378 3584 2631 3529 
Q 2884 3475 3122 3366 
z
" transform="scale(0.015625)"/>
       <path id="DejaVuSans-70" d="M 1159 525 
L 1159 -1331 
L 581 -1331 
L 581 3500 
L 1159 3500 
L 1159 2969 
Q 1341 3281 1617 3432 
Q 1894 3584 2278 3584 
Q 2916 3584 3314 3078 
Q 3713 2572 3713 1747 
Q 3713 922 3314 415 
Q 2916 -91 2278 -91 
Q 1894 -91 1617 61 
Q 1341 213 1159 525 
z
M 3116 1747 
Q 3116 2381 2855 2742 
Q 2594 3103 2138 3103 
Q 1681 3103 1420 2742 
Q 1159 2381 1159 1747 
Q 1159 1113 1420 752 
Q 1681 391 2138 391 
Q 2594 391 2855 752 
Q 3116 1113 3116 1747 
z
" transform="scale(0.015625)"/>
       <path id="DejaVuSans-2f" d="M 1625 4666 
L 2156 4666 
L 531 -594 
L 0 -594 
L 1625 4666 
z
" transform="scale(0.015625)"/>
       <path id="DejaVuSans-4c" d="M 628 4666 
L 1259 4666 
L 1259 531 
L 3531 531 
L 3531 0 
L 628 0 
L 628 4666 
z
" transform="scale(0.015625)"/>
      </defs>
      <use xlink:href="#DejaVuSans-56" transform="translate(0 0.015625)"/>
      <use xlink:href="#DejaVuSans-69" transform="translate(68.408203 0.015625)"/>
      <use xlink:href="#DejaVuSans-72" transform="translate(96.191406 0.015625)"/>
      <use xlink:href="#DejaVuSans-75" transform="translate(137.304688 0.015625)"/>
      <use xlink:href="#DejaVuSans-73" transform="translate(200.683594 0.015625)"/>
      <use xlink:href="#DejaVuSans-20" transform="translate(252.783203 0.015625)"/>
      <use xlink:href="#DejaVuSans-28" transform="translate(284.570312 0.015625)"/>
      <use xlink:href="#DejaVuSans-6c" transform="translate(323.583984 0.015625)"/>
      <use xlink:href="#DejaVuSans-6f" transform="translate(351.367188 0.015625)"/>
      <use xlink:href="#DejaVuSans-67" transform="translate(412.548828 0.015625)"/>
      <use xlink:href="#DejaVuSans-31" transform="translate(476.982422 -16.390625) scale(0.7)"/>
      <use xlink:href="#DejaVuSans-30" transform="translate(521.518555 -16.390625) scale(0.7)"/>
      <use xlink:href="#DejaVuSans-20" transform="translate(568.789062 0.015625)"/>
      <use xlink:href="#DejaVuSans-63" transform="translate(600.576172 0.015625)"/>
      <use xlink:href="#DejaVuSans-6f" transform="translate(655.556641 0.015625)"/>
      <use xlink:href="#DejaVuSans-70" transform="translate(716.738281 0.015625)"/>
      <use xlink:href="#DejaVuSans-69" transform="translate(780.214844 0.015625)"/>
      <use xlink:href="#DejaVuSans-65" transform="translate(807.998047 0.015625)"/>
      <use xlink:href="#DejaVuSans-73" transform="translate(869.521484 0.015625)"/>
      <use xlink:href="#DejaVuSans-2f" transform="translate(921.621094 0.015625)"/>
      <use xlink:href="#DejaVuSans-6d" transform="translate(955.3125 0.015625)"/>
      <use xlink:href="#DejaVuSans-4c" transform="translate(1052.724609 0.015625)"/>
      <use xlink:href="#DejaVuSans-29" transform="translate(1108.4375 0.015625)"/>
     </g>
    </g>
   </g>
   <g id="patch_3">
    <path d="M 57.08 300.04 
L 57.08 72 
" style="fill: none; stroke: #000000; stroke-width: 0.8; stroke-linejoin: miter; stroke-linecap: square"/>
   </g>
   <g id="patch_4">
    <path d="M 353.803538 300.04 
L 353.803538 72 
" style="fill: none; stroke: #000000; stroke-width: 0.8; stroke-linejoin: miter; stroke-linecap: square"/>
   </g>
   <g id="patch_5">
    <path d="M 57.08 300.04 
L 353.803538 300.04 
" style="fill: none; stroke: #000000; stroke-width: 0.8; stroke-linejoin: miter; stroke-linecap: square"/>
   </g>
   <g id="patch_6">
    <path d="M 57.08 72 
L 353.803538 72 
" style="fill: none; stroke: #000000; stroke-width: 0.8; stroke-linejoin: miter; stroke-linecap: square"/>
   </g>
   <g id="PolyCollection_1">
    <defs>
     <path id="m4e53d60017" d="M 60.305256 -59.96 
L 60.305256 -59.96 
L 60.305668 -59.96 
L 60.30979 -59.96 
L 60.351005 -59.96 
L 60.763156 -59.96 
L 61.012879 -59.96 
L 61.9454 -59.96 
L 62.435356 -59.96 
L 64.231944 -59.96 
L 65.053408 -59.96 
L 67.511118 -59.96 
L 68.566856 -59.96 
L 71.019325 -59.96 
L 72.270384 -59.96 
L 74.759774 -59.96 
L 76.175509 -59.96 
L 78.696809 -59.96 
L 80.244057 -59.96 
L 82.774916 -59.96 
L 84.425061 -59.96 
L 86.955551 -59.96 
L 88.682615 -60.153354 
L 91.204995 -64.642007 
L 92.987318 -68.259043 
L 95.753753 -73.891677 
L 97.514102 -77.465035 
L 99.965428 -82.446182 
L 101.800988 -86.170045 
L 104.483711 -91.623371 
L 106.319655 -95.346712 
L 108.829712 -100.437278 
L 110.718532 -104.260249 
L 113.433317 -109.754249 
L 115.311492 -113.542426 
L 117.853241 -118.650255 
L 119.782308 -122.507699 
L 122.529884 -127.960083 
L 124.461284 -131.725271 
L 127.116746 -136.779854 
L 129.112986 -140.540052 
L 132.017363 -145.815046 
L 134.047724 -149.407324 
L 136.86239 -153.931361 
L 138.963925 -156.995726 
L 142.019067 -160.697328 
L 144.15673 -162.860814 
L 147.381986 -165.041648 
L 149.651719 -166.025416 
L 152.876975 -164.954747 
L 155.201843 -163.045709 
L 158.427099 -160.075507 
L 160.758395 -157.7076 
L 163.983651 -154.215177 
L 166.48918 -151.350355 
L 169.714435 -147.494916 
L 172.939691 -143.473349 
L 176.164947 -139.290436 
L 179.390203 -134.92974 
L 182.615459 -130.348031 
L 185.840715 -125.468446 
L 189.065971 -120.176109 
L 192.291226 -114.32615 
L 195.516482 -107.784099 
L 198.741738 -100.51693 
L 201.966994 -92.70294 
L 205.19225 -84.744678 
L 208.417506 -77.100796 
L 211.642762 -70.057829 
L 214.868017 -63.652985 
L 218.093273 -59.96 
L 221.318529 -59.96 
L 224.543785 -59.96 
L 227.769041 -59.96 
L 230.994297 -59.96 
L 234.219552 -59.96 
L 237.444808 -59.96 
L 240.670064 -59.96 
L 243.89532 -59.96 
L 247.120576 -59.96 
L 250.345832 -59.96 
L 253.571088 -59.96 
L 256.796343 -59.96 
L 260.021599 -59.96 
L 263.246855 -59.96 
L 266.472111 -59.96 
L 269.697367 -59.96 
L 272.922623 -59.96 
L 276.147879 -59.96 
L 279.373134 -59.96 
L 282.59839 -59.96 
L 285.823646 -59.96 
L 289.048902 -59.96 
L 292.274158 -59.96 
L 295.499414 -59.96 
L 298.724669 -59.96 
L 301.949925 -59.96 
L 305.175181 -59.96 
L 308.400437 -59.96 
L 311.625693 -59.96 
L 314.850949 -59.96 
L 318.076205 -59.96 
L 321.30146 -59.96 
L 324.526716 -59.96 
L 327.751972 -59.96 
L 330.977228 -59.96 
L 334.202484 -59.96 
L 337.42774 -59.96 
L 340.652996 -59.96 
L 343.878251 -59.96 
L 347.103507 -59.96 
L 350.328763 -59.96 
L 350.578282 -59.96 
L 350.578282 -59.96 
L 350.578282 -59.96 
L 350.328763 -59.96 
L 347.103507 -59.96 
L 343.878251 -59.96 
L 340.652996 -59.96 
L 337.42774 -59.96 
L 334.202484 -59.96 
L 330.977228 -59.96 
L 327.751972 -59.96 
L 324.526716 -59.96 
L 321.30146 -59.96 
L 318.076205 -59.96 
L 314.850949 -59.96 
L 311.625693 -59.96 
L 308.400437 -59.96 
L 305.175181 -59.96 
L 301.949925 -59.96 
L 298.724669 -59.96 
L 295.499414 -59.96 
L 292.274158 -59.96 
L 289.048902 -59.96 
L 285.823646 -59.96 
L 282.59839 -59.96 
L 279.373134 -59.96 
L 276.147879 -59.96 
L 272.922623 -59.96 
L 269.697367 -59.96 
L 266.472111 -59.96 
L 263.246855 -59.96 
L 260.021599 -59.96 
L 256.796343 -59.96 
L 253.571088 -59.96 
L 250.345832 -59.96 
L 247.120576 -59.96 
L 243.89532 -59.96 
L 240.670064 -59.96 
L 237.444808 -59.96 
L 234.219552 -59.962704 
L 230.994297 -61.583704 
L 227.769041 -67.219068 
L 224.543785 -73.282567 
L 221.318529 -79.892052 
L 218.093273 -87.058017 
L 214.868017 -94.57549 
L 211.642762 -102.04831 
L 208.417506 -109.082807 
L 205.19225 -115.469934 
L 201.966994 -121.203987 
L 198.741738 -126.391089 
L 195.516482 -131.160831 
L 192.291226 -135.622226 
L 189.065971 -139.851764 
L 185.840715 -143.895141 
L 182.615459 -147.772571 
L 179.390203 -151.483733 
L 176.164947 -155.011039 
L 172.939691 -158.320892 
L 169.714435 -161.362993 
L 166.48918 -164.038299 
L 163.983651 -165.871392 
L 160.758395 -167.698362 
L 158.427099 -168.663322 
L 155.201843 -170.330586 
L 152.876975 -171.30455 
L 149.651719 -171.855858 
L 147.381986 -172.125981 
L 144.15673 -171.655882 
L 142.019067 -170.833245 
L 138.963925 -169.784513 
L 136.86239 -168.360028 
L 134.047724 -165.678471 
L 132.017363 -163.031329 
L 129.112986 -158.537956 
L 127.116746 -154.967297 
L 124.461284 -149.844846 
L 122.529884 -145.858735 
L 119.782308 -140.005773 
L 117.853241 -135.765505 
L 115.311492 -130.103805 
L 113.433317 -125.865858 
L 110.718532 -119.706818 
L 108.829712 -115.384517 
L 106.319655 -109.641685 
L 104.483711 -105.423299 
L 101.800988 -99.263672 
L 99.965428 -95.032568 
L 97.514102 -89.397097 
L 95.753753 -85.340709 
L 92.987318 -78.971627 
L 91.204995 -74.857687 
L 88.682615 -69.050887 
L 86.955551 -65.070596 
L 84.425061 -60.995295 
L 82.774916 -59.96 
L 80.244057 -59.96 
L 78.696809 -59.96 
L 76.175509 -59.96 
L 74.759774 -59.96 
L 72.270384 -59.96 
L 71.019325 -59.96 
L 68.566856 -59.96 
L 67.511118 -59.96 
L 65.053408 -59.96 
L 64.231944 -59.96 
L 62.435356 -59.96 
L 61.9454 -59.96 
L 61.012879 -59.96 
L 60.763156 -59.96 
L 60.351005 -59.96 
L 60.30979 -59.96 
L 60.305668 -59.96 
L 60.305256 -59.96 
z
" style="stroke: #ff00ff; stroke-opacity: 0.2"/>
    </defs>
    <g clip-path="url(#pa45d5ddc72)">
     <use xlink:href="#m4e53d60017" x="0" y="360" style="fill: #ff00ff; fill-opacity: 0.2; stroke: #ff00ff; stroke-opacity: 0.2"/>
    </g>
   </g>
   <g id="PathCollection_1">
    <defs>
     <path id="me9607c5fcc" d="M 0 4.330127 
C 1.148363 4.330127 2.249847 3.873878 3.061862 3.061862 
C 3.873878 2.249847 4.330127 1.148363 4.330127 0 
C 4.330127 -1.148363 3.873878 -2.249847 3.061862 -3.061862 
C 2.249847 -3.873878 1.148363 -4.330127 0 -4.330127 
C -1.148363 -4.330127 -2.249847 -3.873878 -3.061862 -3.061862 
C -3.873878 -2.249847 -4.330127 -1.148363 -4.330127 0 
C -4.330127 1.148363 -3.873878 2.249847 -3.061862 3.061862 
C -2.249847 3.873878 -1.148363 4.330127 0 4.330127 
z
" style="stroke: #ff00ff; stroke-opacity: 0.8"/>
    </defs>
    <g clip-path="url(#pa45d5ddc72)">
     <use xlink:href="#me9607c5fcc" x="60.305256" y="300.04" style="fill: #ff00ff; fill-opacity: 0.8; stroke: #ff00ff; stroke-opacity: 0.8"/>
     <use xlink:href="#me9607c5fcc" x="92.557814" y="294.487078" style="fill: #ff00ff; fill-opacity: 0.8; stroke: #ff00ff; stroke-opacity: 0.8"/>
     <use xlink:href="#me9607c5fcc" x="124.810373" y="277.828312" style="fill: #ff00ff; fill-opacity: 0.8; stroke: #ff00ff; stroke-opacity: 0.8"/>
     <use xlink:href="#me9607c5fcc" x="157.062931" y="150.111104" style="fill: #ff00ff; fill-opacity: 0.8; stroke: #ff00ff; stroke-opacity: 0.8"/>
     <use xlink:href="#me9607c5fcc" x="189.31549" y="300.04" style="fill: #ff00ff; fill-opacity: 0.8; stroke: #ff00ff; stroke-opacity: 0.8"/>
     <use xlink:href="#me9607c5fcc" x="221.568048" y="300.04" style="fill: #ff00ff; fill-opacity: 0.8; stroke: #ff00ff; stroke-opacity: 0.8"/>
     <use xlink:href="#me9607c5fcc" x="253.820607" y="300.04" style="fill: #ff00ff; fill-opacity: 0.8; stroke: #ff00ff; stroke-opacity: 0.8"/>
     <use xlink:href="#me9607c5fcc" x="286.073165" y="300.04" style="fill: #ff00ff; fill-opacity: 0.8; stroke: #ff00ff; stroke-opacity: 0.8"/>
    </g>
   </g>
   <g id="line2d_16">
    <path d="M 60.305256 300.04 
L 60.305668 300.04 
L 60.30979 300.04 
L 60.351005 300.04 
L 60.763156 300.04 
L 61.012879 300.04 
L 61.9454 300.04 
L 62.435356 300.04 
L 64.231944 300.04 
L 65.053408 300.04 
L 67.511118 300.04 
L 68.566856 300.04 
L 71.019325 300.04 
L 72.270384 300.04 
L 74.759774 300.04 
L 76.175509 300.04 
L 78.696809 300.04 
L 80.244057 300.04 
L 82.774916 300.04 
L 84.425061 300.04 
L 86.955551 300.04 
L 88.682615 298.911892 
L 91.204995 293.637773 
L 92.987318 289.924322 
L 95.753753 284.132772 
L 97.514102 280.466365 
L 99.965428 275.345575 
L 101.800988 271.523308 
L 104.483711 265.916256 
L 106.319655 262.097501 
L 108.829712 256.86502 
L 110.718532 252.944493 
L 113.433317 247.29896 
L 115.311492 243.420841 
L 117.853241 238.179893 
L 119.782308 234.23811 
L 122.529884 228.659557 
L 124.461284 224.806719 
L 127.116746 219.605661 
L 129.112986 215.819441 
L 132.017363 210.556495 
L 134.047724 207.123624 
L 136.86239 202.809796 
L 138.963925 200.004068 
L 142.019067 196.709724 
L 144.15673 195.001335 
L 147.381986 193.418212 
L 149.651719 192.987135 
L 152.876975 193.251007 
L 155.201843 193.997429 
L 158.427099 195.65242 
L 160.758395 197.224717 
L 163.983651 199.800025 
L 166.48918 202.066754 
L 169.714435 205.252182 
L 172.939691 208.684953 
L 176.164947 212.320266 
L 179.390203 216.129997 
L 182.615459 220.102437 
L 185.840715 224.244293 
L 189.065971 228.584909 
L 192.291226 233.182185 
L 195.516482 238.128384 
L 198.741738 243.550273 
L 201.966994 249.58989 
L 205.19225 256.34369 
L 208.417506 263.755248 
L 211.642762 271.532547 
L 214.868017 279.22055 
L 218.093273 286.430108 
L 221.318529 293.011564 
L 224.543785 299.027198 
L 227.769041 300.04 
L 230.994297 300.04 
L 234.219552 300.04 
L 237.444808 300.04 
L 240.670064 300.04 
L 243.89532 300.04 
L 247.120576 300.04 
L 250.345832 300.04 
L 253.571088 300.04 
L 256.796343 300.04 
L 260.021599 300.04 
L 263.246855 300.04 
L 266.472111 300.04 
L 269.697367 300.04 
L 272.922623 300.04 
L 276.147879 300.04 
L 279.373134 300.04 
L 282.59839 300.04 
L 285.823646 300.04 
L 289.048902 300.04 
L 292.274158 300.04 
L 295.499414 300.04 
L 298.724669 300.04 
L 301.949925 300.04 
L 305.175181 300.04 
L 308.400437 300.04 
L 311.625693 300.04 
L 314.850949 300.04 
L 318.076205 300.04 
L 321.30146 300.04 
L 324.526716 300.04 
L 327.751972 300.04 
L 330.977228 300.04 
L 334.202484 300.04 
L 337.42774 300.04 
L 340.652996 300.04 
L 343.878251 300.04 
L 347.103507 300.04 
L 350.328763 300.04 
L 350.578282 300.04 
" clip-path="url(#pa45d5ddc72)" style="fill: none; stroke: #ff00ff; stroke-width: 1.5; stroke-linecap: square"/>
   </g>
  </g>
  <g id="axes_2">
   <g id="patch_7">
    <path d="M 415.545487 300.04 
L 712.269026 300.04 
L 712.269026 72 
L 415.545487 72 
z
" style="fill: #ffffff"/>
   </g>
   <g id="matplotlib.axis_3">
    <g id="xtick_11">
     <g id="line2d_17">
      <g>
       <use xlink:href="#m527c9f3f0c" x="418.770743" y="300.04" style="stroke: #000000; stroke-width: 0.8"/>
      </g>
     </g>
     <g id="text_18">
      <!-- 0 -->
      <g transform="translate(413.044493 320.717188) scale(0.18 -0.18)">
       <use xlink:href="#DejaVuSans-30"/>
      </g>
     </g>
    </g>
    <g id="xtick_12">
     <g id="line2d_18">
      <g>
       <use xlink:href="#m527c9f3f0c" x="451.023302" y="300.04" style="stroke: #000000; stroke-width: 0.8"/>
      </g>
     </g>
     <g id="text_19">
      <!-- 1 -->
      <g transform="translate(445.297052 320.717188) scale(0.18 -0.18)">
       <use xlink:href="#DejaVuSans-31"/>
      </g>
     </g>
    </g>
    <g id="xtick_13">
     <g id="line2d_19">
      <g>
       <use xlink:href="#m527c9f3f0c" x="483.27586" y="300.04" style="stroke: #000000; stroke-width: 0.8"/>
      </g>
     </g>
     <g id="text_20">
      <!-- 2 -->
      <g transform="translate(477.54961 320.717188) scale(0.18 -0.18)">
       <use xlink:href="#DejaVuSans-32"/>
      </g>
     </g>
    </g>
    <g id="xtick_14">
     <g id="line2d_20">
      <g>
       <use xlink:href="#m527c9f3f0c" x="515.528419" y="300.04" style="stroke: #000000; stroke-width: 0.8"/>
      </g>
     </g>
     <g id="text_21">
      <!-- 3 -->
      <g transform="translate(509.802169 320.717188) scale(0.18 -0.18)">
       <use xlink:href="#DejaVuSans-33"/>
      </g>
     </g>
    </g>
    <g id="xtick_15">
     <g id="line2d_21">
      <g>
       <use xlink:href="#m527c9f3f0c" x="547.780977" y="300.04" style="stroke: #000000; stroke-width: 0.8"/>
      </g>
     </g>
     <g id="text_22">
      <!-- 4 -->
      <g transform="translate(542.054727 320.717188) scale(0.18 -0.18)">
       <use xlink:href="#DejaVuSans-34"/>
      </g>
     </g>
    </g>
    <g id="xtick_16">
     <g id="line2d_22">
      <g>
       <use xlink:href="#m527c9f3f0c" x="580.033536" y="300.04" style="stroke: #000000; stroke-width: 0.8"/>
      </g>
     </g>
     <g id="text_23">
      <!-- 5 -->
      <g transform="translate(574.307286 320.717188) scale(0.18 -0.18)">
       <use xlink:href="#DejaVuSans-35"/>
      </g>
     </g>
    </g>
    <g id="xtick_17">
     <g id="line2d_23">
      <g>
       <use xlink:href="#m527c9f3f0c" x="612.286094" y="300.04" style="stroke: #000000; stroke-width: 0.8"/>
      </g>
     </g>
     <g id="text_24">
      <!-- 6 -->
      <g transform="translate(606.559844 320.717188) scale(0.18 -0.18)">
       <use xlink:href="#DejaVuSans-36"/>
      </g>
     </g>
    </g>
    <g id="xtick_18">
     <g id="line2d_24">
      <g>
       <use xlink:href="#m527c9f3f0c" x="644.538653" y="300.04" style="stroke: #000000; stroke-width: 0.8"/>
      </g>
     </g>
     <g id="text_25">
      <!-- 7 -->
      <g transform="translate(638.812403 320.717188) scale(0.18 -0.18)">
       <use xlink:href="#DejaVuSans-37"/>
      </g>
     </g>
    </g>
    <g id="xtick_19">
     <g id="line2d_25">
      <g>
       <use xlink:href="#m527c9f3f0c" x="676.791211" y="300.04" style="stroke: #000000; stroke-width: 0.8"/>
      </g>
     </g>
     <g id="text_26">
      <!-- 8 -->
      <g transform="translate(671.064961 320.717188) scale(0.18 -0.18)">
       <use xlink:href="#DejaVuSans-38"/>
      </g>
     </g>
    </g>
    <g id="xtick_20">
     <g id="line2d_26">
      <g>
       <use xlink:href="#m527c9f3f0c" x="709.04377" y="300.04" style="stroke: #000000; stroke-width: 0.8"/>
      </g>
     </g>
     <g id="text_27">
      <!-- 9 -->
      <g transform="translate(703.31752 320.717188) scale(0.18 -0.18)">
       <use xlink:href="#DejaVuSans-39"/>
      </g>
     </g>
    </g>
    <g id="text_28">
     <!-- Time (d) -->
     <g transform="translate(517.930694 345.177188) scale(0.22 -0.22)">
      <use xlink:href="#DejaVuSans-54"/>
      <use xlink:href="#DejaVuSans-69" x="57.958984"/>
      <use xlink:href="#DejaVuSans-6d" x="85.742188"/>
      <use xlink:href="#DejaVuSans-65" x="183.154297"/>
      <use xlink:href="#DejaVuSans-20" x="244.677734"/>
      <use xlink:href="#DejaVuSans-28" x="276.464844"/>
      <use xlink:href="#DejaVuSans-64" x="315.478516"/>
      <use xlink:href="#DejaVuSans-29" x="378.955078"/>
     </g>
    </g>
   </g>
   <g id="matplotlib.axis_4">
    <g id="ytick_6">
     <g id="line2d_27">
      <g>
       <use xlink:href="#med852f1f2e" x="415.545487" y="300.04" style="stroke: #000000; stroke-width: 0.8"/>
      </g>
     </g>
     <g id="text_29">
      <!-- 3 -->
      <g transform="translate(397.092987 306.878594) scale(0.18 -0.18)">
       <use xlink:href="#DejaVuSans-33"/>
      </g>
     </g>
    </g>
    <g id="ytick_7">
     <g id="line2d_28">
      <g>
       <use xlink:href="#med852f1f2e" x="415.545487" y="249.364444" style="stroke: #000000; stroke-width: 0.8"/>
      </g>
     </g>
     <g id="text_30">
      <!-- 4 -->
      <g transform="translate(397.092987 256.203038) scale(0.18 -0.18)">
       <use xlink:href="#DejaVuSans-34"/>
      </g>
     </g>
    </g>
    <g id="ytick_8">
     <g id="line2d_29">
      <g>
       <use xlink:href="#med852f1f2e" x="415.545487" y="198.688889" style="stroke: #000000; stroke-width: 0.8"/>
      </g>
     </g>
     <g id="text_31">
      <!-- 5 -->
      <g transform="translate(397.092987 205.527483) scale(0.18 -0.18)">
       <use xlink:href="#DejaVuSans-35"/>
      </g>
     </g>
    </g>
    <g id="ytick_9">
     <g id="line2d_30">
      <g>
       <use xlink:href="#med852f1f2e" x="415.545487" y="148.013333" style="stroke: #000000; stroke-width: 0.8"/>
      </g>
     </g>
     <g id="text_32">
      <!-- 6 -->
      <g transform="translate(397.092987 154.851927) scale(0.18 -0.18)">
       <use xlink:href="#DejaVuSans-36"/>
      </g>
     </g>
    </g>
    <g id="ytick_10">
     <g id="line2d_31">
      <g>
       <use xlink:href="#med852f1f2e" x="415.545487" y="97.337778" style="stroke: #000000; stroke-width: 0.8"/>
      </g>
     </g>
     <g id="text_33">
      <!-- 7 -->
      <g transform="translate(397.092987 104.176372) scale(0.18 -0.18)">
       <use xlink:href="#DejaVuSans-37"/>
      </g>
     </g>
    </g>
    <g id="text_34">
     <!-- CD8$^+$ T (log$_{10}$ cells) -->
     <g transform="translate(388.472987 296.46) rotate(-90) scale(0.22 -0.22)">
      <defs>
       <path id="DejaVuSans-43" d="M 4122 4306 
L 4122 3641 
Q 3803 3938 3442 4084 
Q 3081 4231 2675 4231 
Q 1875 4231 1450 3742 
Q 1025 3253 1025 2328 
Q 1025 1406 1450 917 
Q 1875 428 2675 428 
Q 3081 428 3442 575 
Q 3803 722 4122 1019 
L 4122 359 
Q 3791 134 3420 21 
Q 3050 -91 2638 -91 
Q 1578 -91 968 557 
Q 359 1206 359 2328 
Q 359 3453 968 4101 
Q 1578 4750 2638 4750 
Q 3056 4750 3426 4639 
Q 3797 4528 4122 4306 
z
" transform="scale(0.015625)"/>
       <path id="DejaVuSans-44" d="M 1259 4147 
L 1259 519 
L 2022 519 
Q 2988 519 3436 956 
Q 3884 1394 3884 2338 
Q 3884 3275 3436 3711 
Q 2988 4147 2022 4147 
L 1259 4147 
z
M 628 4666 
L 1925 4666 
Q 3281 4666 3915 4102 
Q 4550 3538 4550 2338 
Q 4550 1131 3912 565 
Q 3275 0 1925 0 
L 628 0 
L 628 4666 
z
" transform="scale(0.015625)"/>
       <path id="DejaVuSans-2b" d="M 2944 4013 
L 2944 2272 
L 4684 2272 
L 4684 1741 
L 2944 1741 
L 2944 0 
L 2419 0 
L 2419 1741 
L 678 1741 
L 678 2272 
L 2419 2272 
L 2419 4013 
L 2944 4013 
z
" transform="scale(0.015625)"/>
      </defs>
      <use xlink:href="#DejaVuSans-43" transform="translate(0 0.826562)"/>
      <use xlink:href="#DejaVuSans-44" transform="translate(69.824219 0.826562)"/>
      <use xlink:href="#DejaVuSans-38" transform="translate(146.826172 0.826562)"/>
      <use xlink:href="#DejaVuSans-2b" transform="translate(225.043945 39.107812) scale(0.7)"/>
      <use xlink:href="#DejaVuSans-20" transform="translate(300.068359 0.826562)"/>
      <use xlink:href="#DejaVuSans-54" transform="translate(331.855469 0.826562)"/>
      <use xlink:href="#DejaVuSans-20" transform="translate(392.939453 0.826562)"/>
      <use xlink:href="#DejaVuSans-28" transform="translate(424.726562 0.826562)"/>
      <use xlink:href="#DejaVuSans-6c" transform="translate(463.740234 0.826562)"/>
      <use xlink:href="#DejaVuSans-6f" transform="translate(491.523438 0.826562)"/>
      <use xlink:href="#DejaVuSans-67" transform="translate(552.705078 0.826562)"/>
      <use xlink:href="#DejaVuSans-31" transform="translate(617.138672 -15.579688) scale(0.7)"/>
      <use xlink:href="#DejaVuSans-30" transform="translate(661.674805 -15.579688) scale(0.7)"/>
      <use xlink:href="#DejaVuSans-20" transform="translate(708.945312 0.826562)"/>
      <use xlink:href="#DejaVuSans-63" transform="translate(740.732422 0.826562)"/>
      <use xlink:href="#DejaVuSans-65" transform="translate(795.712891 0.826562)"/>
      <use xlink:href="#DejaVuSans-6c" transform="translate(857.236328 0.826562)"/>
      <use xlink:href="#DejaVuSans-6c" transform="translate(885.019531 0.826562)"/>
      <use xlink:href="#DejaVuSans-73" transform="translate(912.802734 0.826562)"/>
      <use xlink:href="#DejaVuSans-29" transform="translate(964.902344 0.826562)"/>
     </g>
    </g>
   </g>
   <g id="patch_8">
    <path d="M 415.545487 300.04 
L 415.545487 72 
" style="fill: none; stroke: #000000; stroke-width: 0.8; stroke-linejoin: miter; stroke-linecap: square"/>
   </g>
   <g id="patch_9">
    <path d="M 712.269026 300.04 
L 712.269026 72 
" style="fill: none; stroke: #000000; stroke-width: 0.8; stroke-linejoin: miter; stroke-linecap: square"/>
   </g>
   <g id="patch_10">
    <path d="M 415.545487 300.04 
L 712.269026 300.04 
" style="fill: none; stroke: #000000; stroke-width: 0.8; stroke-linejoin: miter; stroke-linecap: square"/>
   </g>
   <g id="patch_11">
    <path d="M 415.545487 72 
L 712.269026 72 
" style="fill: none; stroke: #000000; stroke-width: 0.8; stroke-linejoin: miter; stroke-linecap: square"/>
   </g>
   <g id="PolyCollection_2">
    <defs>
     <path id="md6fa9c3010" d="M 418.770743 -163.20772 
L 418.770743 -163.20772 
L 418.771155 -163.20772 
L 418.775277 -163.20772 
L 418.816492 -163.20772 
L 419.228643 -163.20772 
L 419.478366 -163.20772 
L 420.410887 -163.20772 
L 420.900843 -163.20772 
L 422.697431 -163.20772 
L 423.518895 -163.20772 
L 425.976606 -163.20772 
L 427.032343 -163.20772 
L 429.484812 -163.20772 
L 430.735871 -163.20772 
L 433.225262 -163.20772 
L 434.640996 -163.20772 
L 437.162296 -163.20772 
L 438.709545 -163.20772 
L 441.240403 -163.20772 
L 442.890549 -163.207721 
L 445.421039 -163.207722 
L 447.148103 -163.207724 
L 449.670482 -163.207729 
L 451.452805 -163.207734 
L 454.21924 -163.207751 
L 455.979589 -163.207766 
L 458.430915 -163.207802 
L 460.266475 -163.20784 
L 462.949198 -163.207931 
L 464.785142 -163.208016 
L 467.295199 -163.208201 
L 469.184019 -163.208388 
L 471.898804 -163.208819 
L 473.77698 -163.20921 
L 476.318729 -163.210046 
L 478.247796 -163.210881 
L 480.995371 -163.212797 
L 482.926771 -163.214532 
L 485.582233 -163.218413 
L 487.578473 -163.222219 
L 490.48285 -163.23146 
L 492.513212 -163.24001 
L 495.327877 -163.259365 
L 497.429412 -163.279751 
L 500.484554 -163.325102 
L 502.622218 -163.373349 
L 505.847473 -163.483026 
L 508.117206 -163.600988 
L 511.342462 -163.857073 
L 513.66733 -164.133476 
L 516.892586 -164.702873 
L 519.223882 -165.311684 
L 522.449138 -166.468249 
L 524.954667 -167.759281 
L 528.179923 -169.873891 
L 531.405179 -172.681378 
L 534.630434 -176.108301 
L 537.85569 -180.040017 
L 541.080946 -184.303018 
L 544.306202 -188.70594 
L 547.531458 -193.07438 
L 550.756714 -197.269743 
L 553.98197 -201.193542 
L 557.207225 -204.783176 
L 560.432481 -208.004557 
L 563.657737 -210.844663 
L 566.882993 -213.305293 
L 570.108249 -215.398275 
L 573.333505 -217.141961 
L 576.55876 -218.55873 
L 579.784016 -219.673224 
L 583.009272 -220.511119 
L 586.234528 -221.098259 
L 589.459784 -221.460043 
L 592.68504 -221.198362 
L 595.910296 -220.695935 
L 599.135551 -220.103233 
L 602.360807 -219.435324 
L 605.586063 -218.705459 
L 608.811319 -217.925177 
L 612.036575 -217.104421 
L 615.261831 -216.251677 
L 618.487087 -215.374114 
L 621.712342 -214.477737 
L 624.937598 -213.56753 
L 628.162854 -212.6476 
L 631.38811 -211.721307 
L 634.613366 -210.791385 
L 637.838622 -209.86005 
L 641.063877 -208.929095 
L 644.289133 -207.99997 
L 647.514389 -207.073851 
L 650.739645 -206.151697 
L 653.964901 -205.234298 
L 657.190157 -204.32231 
L 660.415413 -203.416291 
L 663.640668 -202.516719 
L 666.865924 -201.624016 
L 670.09118 -200.738556 
L 673.316436 -199.860686 
L 676.541692 -198.990724 
L 679.766948 -198.128972 
L 682.992204 -197.275718 
L 686.217459 -196.43124 
L 689.442715 -195.595807 
L 692.667971 -194.769684 
L 695.893227 -193.953127 
L 699.118483 -193.14639 
L 702.343739 -192.34972 
L 705.568994 -191.563359 
L 708.79425 -190.787357 
L 709.04377 -190.727772 
L 709.04377 -193.449625 
L 709.04377 -193.449625 
L 708.79425 -193.511975 
L 705.568994 -194.323188 
L 702.343739 -195.144096 
L 699.118483 -195.97444 
L 695.893227 -196.813956 
L 692.667971 -197.66237 
L 689.442715 -198.519401 
L 686.217459 -199.384755 
L 682.992204 -200.258124 
L 679.766948 -201.13918 
L 676.541692 -202.027569 
L 673.316436 -202.922901 
L 670.09118 -203.824743 
L 666.865924 -204.732599 
L 663.640668 -205.645897 
L 660.415413 -206.563963 
L 657.190157 -207.485992 
L 653.964901 -208.411013 
L 650.739645 -209.337846 
L 647.514389 -210.265048 
L 644.289133 -211.190851 
L 641.063877 -212.113086 
L 637.838622 -213.029106 
L 634.613366 -213.935679 
L 631.38811 -214.82889 
L 628.162854 -215.704023 
L 624.937598 -216.555434 
L 621.712342 -217.376428 
L 618.487087 -218.159126 
L 615.261831 -218.894346 
L 612.036575 -219.571484 
L 608.811319 -220.178415 
L 605.586063 -220.701409 
L 602.360807 -221.125077 
L 599.135551 -221.432342 
L 595.910296 -221.604445 
L 592.68504 -221.693531 
L 589.459784 -221.803905 
L 586.234528 -221.895917 
L 583.009272 -221.984835 
L 579.784016 -221.937377 
L 576.55876 -221.695761 
L 573.333505 -221.233795 
L 570.108249 -220.523844 
L 566.882993 -219.537168 
L 563.657737 -218.244413 
L 560.432481 -216.61635 
L 557.207225 -214.624951 
L 553.98197 -212.245009 
L 550.756714 -209.456546 
L 547.531458 -206.248363 
L 544.306202 -202.623212 
L 541.080946 -198.605046 
L 537.85569 -194.248543 
L 534.630434 -189.650111 
L 531.405179 -184.957199 
L 528.179923 -180.368952 
L 524.954667 -176.117935 
L 522.449138 -173.245131 
L 519.223882 -170.105686 
L 516.892586 -168.266291 
L 513.66733 -166.414561 
L 511.342462 -165.422542 
L 508.117206 -164.507131 
L 505.847473 -164.091476 
L 502.622218 -163.712434 
L 500.484554 -163.556506 
L 497.429412 -163.404409 
L 495.327877 -163.34322 
L 492.513212 -163.286981 
L 490.48285 -163.262652 
L 487.578473 -163.239467 
L 485.582233 -163.229799 
L 482.926771 -163.221023 
L 480.995371 -163.21713 
L 478.247796 -163.213224 
L 476.318729 -163.211595 
L 473.77698 -163.210066 
L 471.898804 -163.209373 
L 469.184019 -163.208669 
L 467.295199 -163.208386 
L 464.785142 -163.208107 
L 462.949198 -163.207988 
L 460.266475 -163.207869 
L 458.430915 -163.207817 
L 455.979589 -163.207774 
L 454.21924 -163.207754 
L 451.452805 -163.207737 
L 449.670482 -163.207729 
L 447.148103 -163.207724 
L 445.421039 -163.207722 
L 442.890549 -163.207721 
L 441.240403 -163.20772 
L 438.709545 -163.20772 
L 437.162296 -163.20772 
L 434.640996 -163.20772 
L 433.225262 -163.20772 
L 430.735871 -163.20772 
L 429.484812 -163.20772 
L 427.032343 -163.20772 
L 425.976606 -163.20772 
L 423.518895 -163.20772 
L 422.697431 -163.20772 
L 420.900843 -163.20772 
L 420.410887 -163.20772 
L 419.478366 -163.20772 
L 419.228643 -163.20772 
L 418.816492 -163.20772 
L 418.775277 -163.20772 
L 418.771155 -163.20772 
L 418.770743 -163.20772 
z
" style="stroke: #ff00ff; stroke-opacity: 0.2"/>
    </defs>
    <g clip-path="url(#p819c0cc24e)">
     <use xlink:href="#md6fa9c3010" x="0" y="360" style="fill: #ff00ff; fill-opacity: 0.2; stroke: #ff00ff; stroke-opacity: 0.2"/>
    </g>
   </g>
   <g id="PolyCollection_3">
    <defs>
     <path id="meed7e0c368" d="M 418.770743 -108.316769 
L 418.770743 -108.316769 
L 418.771155 -108.316769 
L 418.775277 -108.316769 
L 418.816492 -108.316769 
L 419.228643 -108.316769 
L 419.478366 -108.316769 
L 420.410887 -108.316769 
L 420.900843 -108.316769 
L 422.697431 -108.316769 
L 423.518895 -108.316769 
L 425.976606 -108.316769 
L 427.032343 -108.316769 
L 429.484812 -108.316769 
L 430.735871 -108.316769 
L 433.225262 -108.316769 
L 434.640996 -108.316769 
L 437.162296 -108.316769 
L 438.709545 -108.316769 
L 441.240403 -108.316769 
L 442.890549 -108.316769 
L 445.421039 -108.316769 
L 447.148103 -108.316769 
L 449.670482 -108.316769 
L 451.452805 -108.316769 
L 454.21924 -108.316769 
L 455.979589 -108.316769 
L 458.430915 -108.316769 
L 460.266475 -108.316769 
L 462.949198 -108.316769 
L 464.785142 -108.316769 
L 467.295199 -108.316769 
L 469.184019 -108.316769 
L 471.898804 -108.316769 
L 473.77698 -108.316769 
L 476.318729 -108.316769 
L 478.247796 -108.316769 
L 480.995371 -108.316769 
L 482.926771 -108.316769 
L 485.582233 -108.316769 
L 487.578473 -108.316769 
L 490.48285 -108.316769 
L 492.513212 -108.316769 
L 495.327877 -108.31677 
L 497.429412 -108.31677 
L 500.484554 -108.316771 
L 502.622218 -108.316772 
L 505.847473 -108.316774 
L 508.117206 -108.316777 
L 511.342462 -108.316783 
L 513.66733 -108.316791 
L 516.892586 -108.316808 
L 519.223882 -108.316827 
L 522.449138 -108.316869 
L 524.954667 -108.316923 
L 528.179923 -108.317027 
L 531.405179 -108.317205 
L 534.630434 -108.317507 
L 537.85569 -108.318014 
L 541.080946 -108.318864 
L 544.306202 -108.32029 
L 547.531458 -108.322644 
L 550.756714 -108.326602 
L 553.98197 -108.333143 
L 557.207225 -108.343801 
L 560.432481 -108.361185 
L 563.657737 -108.389112 
L 566.882993 -108.432973 
L 570.108249 -108.500072 
L 573.333505 -108.600595 
L 576.55876 -108.746966 
L 579.784016 -108.953635 
L 583.009272 -109.236168 
L 586.234528 -109.609817 
L 589.459784 -110.08773 
L 592.68504 -110.679102 
L 595.910296 -111.387644 
L 599.135551 -112.210733 
L 602.360807 -113.139422 
L 605.586063 -114.159328 
L 608.811319 -115.252133 
L 612.036575 -116.397403 
L 615.261831 -117.574351 
L 618.487087 -118.763311 
L 621.712342 -119.946777 
L 624.937598 -121.110006 
L 628.162854 -122.241229 
L 631.38811 -123.331579 
L 634.613366 -124.374833 
L 637.838622 -125.367051 
L 641.063877 -126.306178 
L 644.289133 -127.191661 
L 647.514389 -128.02409 
L 650.739645 -128.804898 
L 653.964901 -129.536102 
L 657.190157 -130.220097 
L 660.415413 -130.859499 
L 663.640668 -131.457019 
L 666.865924 -132.015374 
L 670.09118 -132.537221 
L 673.316436 -133.025118 
L 676.541692 -133.481491 
L 679.766948 -133.908623 
L 682.992204 -134.30864 
L 686.217459 -134.683521 
L 689.442715 -135.035092 
L 692.667971 -135.365036 
L 695.893227 -135.674904 
L 699.118483 -135.966119 
L 702.343739 -136.239988 
L 705.568994 -136.497714 
L 708.79425 -136.7404 
L 709.04377 -136.75859 
L 709.04377 -137.579324 
L 709.04377 -137.579324 
L 708.79425 -137.564517 
L 705.568994 -137.367057 
L 702.343739 -137.157972 
L 699.118483 -136.936245 
L 695.893227 -136.700979 
L 692.667971 -136.451198 
L 689.442715 -136.185842 
L 686.217459 -135.903754 
L 682.992204 -135.603673 
L 679.766948 -135.284223 
L 676.541692 -134.943903 
L 673.316436 -134.581077 
L 670.09118 -134.193964 
L 666.865924 -133.780626 
L 663.640668 -133.338962 
L 660.415413 -132.866705 
L 657.190157 -132.36142 
L 653.964901 -131.820514 
L 650.739645 -131.241252 
L 647.514389 -130.620788 
L 644.289133 -129.956218 
L 641.063877 -129.244651 
L 637.838622 -128.483317 
L 634.613366 -127.669711 
L 631.38811 -126.80178 
L 628.162854 -125.87817 
L 624.937598 -124.898525 
L 621.712342 -123.86385 
L 618.487087 -122.776931 
L 615.261831 -121.642783 
L 612.036575 -120.469103 
L 608.811319 -119.266664 
L 605.586063 -118.049552 
L 602.360807 -116.835149 
L 599.135551 -115.643721 
L 595.910296 -114.497516 
L 592.68504 -113.419309 
L 589.459784 -112.430496 
L 586.234528 -111.548944 
L 583.009272 -110.787005 
L 579.784016 -110.150107 
L 576.55876 -109.63631 
L 573.333505 -109.236945 
L 570.108249 -108.938204 
L 566.882993 -108.723278 
L 563.657737 -108.574574 
L 560.432481 -108.475563 
L 557.207225 -108.412016 
L 553.98197 -108.372643 
L 550.756714 -108.349048 
L 547.531458 -108.335024 
L 544.306202 -108.326989 
L 541.080946 -108.322435 
L 537.85569 -108.319892 
L 534.630434 -108.318482 
L 531.405179 -108.317709 
L 528.179923 -108.317282 
L 524.954667 -108.317048 
L 522.449138 -108.316948 
L 519.223882 -108.316865 
L 516.892586 -108.316829 
L 513.66733 -108.316801 
L 511.342462 -108.316789 
L 508.117206 -108.316779 
L 505.847473 -108.316776 
L 502.622218 -108.316772 
L 500.484554 -108.316771 
L 497.429412 -108.31677 
L 495.327877 -108.31677 
L 492.513212 -108.31677 
L 490.48285 -108.316769 
L 487.578473 -108.316769 
L 485.582233 -108.316769 
L 482.926771 -108.316769 
L 480.995371 -108.316769 
L 478.247796 -108.316769 
L 476.318729 -108.316769 
L 473.77698 -108.316769 
L 471.898804 -108.316769 
L 469.184019 -108.316769 
L 467.295199 -108.316769 
L 464.785142 -108.316769 
L 462.949198 -108.316769 
L 460.266475 -108.316769 
L 458.430915 -108.316769 
L 455.979589 -108.316769 
L 454.21924 -108.316769 
L 451.452805 -108.316769 
L 449.670482 -108.316769 
L 447.148103 -108.316769 
L 445.421039 -108.316769 
L 442.890549 -108.316769 
L 441.240403 -108.316769 
L 438.709545 -108.316769 
L 437.162296 -108.316769 
L 434.640996 -108.316769 
L 433.225262 -108.316769 
L 430.735871 -108.316769 
L 429.484812 -108.316769 
L 427.032343 -108.316769 
L 425.976606 -108.316769 
L 423.518895 -108.316769 
L 422.697431 -108.316769 
L 420.900843 -108.316769 
L 420.410887 -108.316769 
L 419.478366 -108.316769 
L 419.228643 -108.316769 
L 418.816492 -108.316769 
L 418.775277 -108.316769 
L 418.771155 -108.316769 
L 418.770743 -108.316769 
z
" style="stroke: #ff00ff; stroke-opacity: 0.2"/>
    </defs>
    <g clip-path="url(#p819c0cc24e)">
     <use xlink:href="#meed7e0c368" x="0" y="360" style="fill: #ff00ff; fill-opacity: 0.2; stroke: #ff00ff; stroke-opacity: 0.2"/>
    </g>
   </g>
   <g id="line2d_32">
    <path d="M 418.770743 196.79228 
L 418.771155 196.79228 
L 418.775277 196.79228 
L 418.816492 196.79228 
L 419.228643 196.79228 
L 419.478366 196.79228 
L 420.410887 196.79228 
L 420.900843 196.79228 
L 422.697431 196.79228 
L 423.518895 196.79228 
L 425.976606 196.79228 
L 427.032343 196.79228 
L 429.484812 196.79228 
L 430.735871 196.79228 
L 433.225262 196.79228 
L 434.640996 196.79228 
L 437.162296 196.79228 
L 438.709545 196.79228 
L 441.240403 196.79228 
L 442.890549 196.792279 
L 445.421039 196.792278 
L 447.148103 196.792276 
L 449.670482 196.792271 
L 451.452805 196.792265 
L 454.21924 196.792249 
L 455.979589 196.792232 
L 458.430915 196.792195 
L 460.266475 196.792153 
L 462.949198 196.792058 
L 464.785142 196.791959 
L 467.295199 196.791758 
L 469.184019 196.791536 
L 471.898804 196.791056 
L 473.77698 196.790567 
L 476.318729 196.789594 
L 478.247796 196.788522 
L 480.995371 196.78623 
L 482.926771 196.783857 
L 485.582233 196.779017 
L 487.578473 196.773667 
L 490.48285 196.761786 
L 492.513212 196.749329 
L 495.327877 196.723178 
L 497.429412 196.693959 
L 500.484554 196.628005 
L 502.622218 196.557892 
L 505.847473 196.392076 
L 508.117206 196.212886 
L 511.342462 195.818825 
L 513.66733 195.392895 
L 516.892586 194.513793 
L 519.223882 193.608746 
L 522.449138 191.87227 
L 524.954667 190.081345 
L 528.179923 187.161282 
L 531.405179 183.596937 
L 534.630434 179.521991 
L 537.85569 175.12909 
L 541.080946 170.623001 
L 544.306202 166.184041 
L 547.531458 161.950699 
L 550.756714 158.017814 
L 553.98197 154.442868 
L 557.207225 151.254649 
L 560.432481 148.461339 
L 563.657737 146.056999 
L 566.882993 144.026388 
L 570.108249 142.348403 
L 573.333505 140.998488 
L 576.55876 139.950292 
L 579.784016 139.176827 
L 583.009272 138.651259 
L 586.234528 138.347465 
L 589.459784 138.24042 
L 592.68504 138.306469 
L 595.910296 138.523511 
L 599.135551 138.871122 
L 602.360807 139.330619 
L 605.586063 139.885087 
L 608.811319 140.51937 
L 612.036575 141.220019 
L 615.261831 141.975223 
L 618.487087 142.774713 
L 621.712342 143.609646 
L 624.937598 144.47248 
L 628.162854 145.356842 
L 631.38811 146.257389 
L 634.613366 147.169682 
L 637.838622 148.090055 
L 641.063877 149.0155 
L 644.289133 149.943558 
L 647.514389 150.872228 
L 650.739645 151.799883 
L 653.964901 152.725196 
L 657.190157 153.647083 
L 660.415413 154.564654 
L 663.640668 155.477168 
L 666.865924 156.384002 
L 670.09118 157.284624 
L 673.316436 158.178572 
L 676.541692 159.065436 
L 679.766948 159.944848 
L 682.992204 160.816468 
L 686.217459 161.679979 
L 689.442715 162.535081 
L 692.667971 163.38149 
L 695.893227 164.218927 
L 699.118483 165.047124 
L 702.343739 165.865819 
L 705.568994 166.674757 
L 708.79425 167.473687 
L 709.04377 167.535066 
" clip-path="url(#p819c0cc24e)" style="fill: none; stroke: #ff00ff; stroke-width: 1.5; stroke-linecap: square"/>
   </g>
   <g id="line2d_33">
    <path d="M 418.770743 251.683231 
L 418.771155 251.683231 
L 418.775277 251.683231 
L 418.816492 251.683231 
L 419.228643 251.683231 
L 419.478366 251.683231 
L 420.410887 251.683231 
L 420.900843 251.683231 
L 422.697431 251.683231 
L 423.518895 251.683231 
L 425.976606 251.683231 
L 427.032343 251.683231 
L 429.484812 251.683231 
L 430.735871 251.683231 
L 433.225262 251.683231 
L 434.640996 251.683231 
L 437.162296 251.683231 
L 438.709545 251.683231 
L 441.240403 251.683231 
L 442.890549 251.683231 
L 445.421039 251.683231 
L 447.148103 251.683231 
L 449.670482 251.683231 
L 451.452805 251.683231 
L 454.21924 251.683231 
L 455.979589 251.683231 
L 458.430915 251.683231 
L 460.266475 251.683231 
L 462.949198 251.683231 
L 464.785142 251.683231 
L 467.295199 251.683231 
L 469.184019 251.683231 
L 471.898804 251.683231 
L 473.77698 251.683231 
L 476.318729 251.683231 
L 478.247796 251.683231 
L 480.995371 251.683231 
L 482.926771 251.683231 
L 485.582233 251.683231 
L 487.578473 251.683231 
L 490.48285 251.683231 
L 492.513212 251.683231 
L 495.327877 251.68323 
L 497.429412 251.68323 
L 500.484554 251.683229 
L 502.622218 251.683228 
L 505.847473 251.683226 
L 508.117206 251.683222 
L 511.342462 251.683215 
L 513.66733 251.683207 
L 516.892586 251.683187 
L 519.223882 251.683164 
L 522.449138 251.683112 
L 524.954667 251.683047 
L 528.179923 251.682911 
L 531.405179 251.682676 
L 534.630434 251.682265 
L 537.85569 251.681564 
L 541.080946 251.680355 
L 544.306202 251.678282 
L 547.531458 251.674746 
L 550.756714 251.668697 
L 553.98197 251.658609 
L 557.207225 251.641945 
L 560.432481 251.614602 
L 563.657737 251.570717 
L 566.882993 251.502699 
L 570.108249 251.399656 
L 573.333505 251.248369 
L 576.55876 251.033557 
L 579.784016 250.738933 
L 583.009272 250.348812 
L 586.234528 249.850055 
L 589.459784 249.234011 
L 592.68504 248.498027 
L 595.910296 247.646168 
L 599.135551 246.688996 
L 602.360807 245.642451 
L 605.586063 244.526143 
L 608.811319 243.361416 
L 612.036575 242.169543 
L 615.261831 240.970285 
L 618.487087 239.78093 
L 621.712342 238.615789 
L 624.937598 237.486068 
L 628.162854 236.400026 
L 631.38811 235.363283 
L 634.613366 234.379222 
L 637.838622 233.449403 
L 641.063877 232.573964 
L 644.289133 231.751969 
L 647.514389 230.981715 
L 650.739645 230.260973 
L 653.964901 229.587193 
L 657.190157 228.957649 
L 660.415413 228.369556 
L 663.640668 227.820151 
L 666.865924 227.306753 
L 670.09118 226.826801 
L 673.316436 226.377873 
L 676.541692 225.957703 
L 679.766948 225.564183 
L 682.992204 225.19536 
L 686.217459 224.849434 
L 689.442715 224.524748 
L 692.667971 224.219779 
L 695.893227 223.933129 
L 699.118483 223.663514 
L 702.343739 223.409756 
L 705.568994 223.170775 
L 708.79425 222.945574 
L 709.04377 222.928699 
" clip-path="url(#p819c0cc24e)" style="fill: none; stroke-dasharray: 5.55,2.4; stroke-dashoffset: 0; stroke: #ff00ff; stroke-width: 1.5"/>
   </g>
  </g>
  <g id="text_35">
   <!-- Volunteer 28 -->
   <g transform="translate(283.34625 25.43625) scale(0.24 -0.24)">
    <defs>
     <path id="DejaVuSans-6e" d="M 3513 2113 
L 3513 0 
L 2938 0 
L 2938 2094 
Q 2938 2591 2744 2837 
Q 2550 3084 2163 3084 
Q 1697 3084 1428 2787 
Q 1159 2491 1159 1978 
L 1159 0 
L 581 0 
L 581 3500 
L 1159 3500 
L 1159 2956 
Q 1366 3272 1645 3428 
Q 1925 3584 2291 3584 
Q 2894 3584 3203 3211 
Q 3513 2838 3513 2113 
z
" transform="scale(0.015625)"/>
     <path id="DejaVuSans-74" d="M 1172 4494 
L 1172 3500 
L 2356 3500 
L 2356 3053 
L 1172 3053 
L 1172 1153 
Q 1172 725 1289 603 
Q 1406 481 1766 481 
L 2356 481 
L 2356 0 
L 1766 0 
Q 1100 0 847 248 
Q 594 497 594 1153 
L 594 3053 
L 172 3053 
L 172 3500 
L 594 3500 
L 594 4494 
L 1172 4494 
z
" transform="scale(0.015625)"/>
    </defs>
    <use xlink:href="#DejaVuSans-56"/>
    <use xlink:href="#DejaVuSans-6f" x="60.658203"/>
    <use xlink:href="#DejaVuSans-6c" x="121.839844"/>
    <use xlink:href="#DejaVuSans-75" x="149.623047"/>
    <use xlink:href="#DejaVuSans-6e" x="213.001953"/>
    <use xlink:href="#DejaVuSans-74" x="276.380859"/>
    <use xlink:href="#DejaVuSans-65" x="315.589844"/>
    <use xlink:href="#DejaVuSans-65" x="377.113281"/>
    <use xlink:href="#DejaVuSans-72" x="438.636719"/>
    <use xlink:href="#DejaVuSans-20" x="479.75"/>
    <use xlink:href="#DejaVuSans-32" x="511.537109"/>
    <use xlink:href="#DejaVuSans-38" x="575.160156"/>
   </g>
  </g>
 </g>
 <defs>
  <clipPath id="pa45d5ddc72">
   <rect x="57.08" y="72" width="296.723538" height="228.04"/>
  </clipPath>
  <clipPath id="p819c0cc24e">
   <rect x="415.545487" y="72" width="296.723538" height="228.04"/>
  </clipPath>
 </defs>
</svg>
