<?xml version="1.0" encoding="utf-8" standalone="no"?>
<!DOCTYPE svg PUBLIC "-//W3C//DTD SVG 1.1//EN"
  "http://www.w3.org/Graphics/SVG/1.1/DTD/svg11.dtd">
<svg xmlns:xlink="http://www.w3.org/1999/xlink" width="1440pt" height="360pt" viewBox="0 0 1440 360" xmlns="http://www.w3.org/2000/svg" version="1.1">
 <metadata>
  <rdf:RDF xmlns:dc="http://purl.org/dc/elements/1.1/" xmlns:cc="http://creativecommons.org/ns#" xmlns:rdf="http://www.w3.org/1999/02/22-rdf-syntax-ns#">
   <cc:Work>
    <dc:type rdf:resource="http://purl.org/dc/dcmitype/StillImage"/>
    <dc:date>2025-01-15T18:59:26.859848</dc:date>
    <dc:format>image/svg+xml</dc:format>
    <dc:creator>
     <cc:Agent>
      <dc:title>Matplotlib v3.9.2, https://matplotlib.org/</dc:title>
     </cc:Agent>
    </dc:creator>
   </cc:Work>
  </rdf:RDF>
 </metadata>
 <defs>
  <style type="text/css">*{stroke-linejoin: round; stroke-linecap: butt}</style>
 </defs>
 <g id="figure_1">
  <g id="patch_1">
   <path d="M 0 360 
L 1440 360 
L 1440 0 
L 0 0 
z
" style="fill: #ffffff"/>
  </g>
  <g id="axes_1">
   <g id="patch_2">
    <path d="M 57.08 300.04 
L 353.803538 300.04 
L 353.803538 72 
L 57.08 72 
z
" style="fill: #ffffff"/>
   </g>
   <g id="matplotlib.axis_1">
    <g id="xtick_1">
     <g id="line2d_1">
      <defs>
       <path id="m729429a529" d="M 0 0 
L 0 3.5 
" style="stroke: #000000; stroke-width: 0.8"/>
      </defs>
      <g>
       <use xlink:href="#m729429a529" x="60.305256" y="300.04" style="stroke: #000000; stroke-width: 0.8"/>
      </g>
     </g>
     <g id="text_1">
      <!-- 0 -->
      <g transform="translate(54.579006 320.717188) scale(0.18 -0.18)">
       <defs>
        <path id="DejaVuSans-30" d="M 2034 4250 
Q 1547 4250 1301 3770 
Q 1056 3291 1056 2328 
Q 1056 1369 1301 889 
Q 1547 409 2034 409 
Q 2525 409 2770 889 
Q 3016 1369 3016 2328 
Q 3016 3291 2770 3770 
Q 2525 4250 2034 4250 
z
M 2034 4750 
Q 2819 4750 3233 4129 
Q 3647 3509 3647 2328 
Q 3647 1150 3233 529 
Q 2819 -91 2034 -91 
Q 1250 -91 836 529 
Q 422 1150 422 2328 
Q 422 3509 836 4129 
Q 1250 4750 2034 4750 
z
" transform="scale(0.015625)"/>
       </defs>
       <use xlink:href="#DejaVuSans-30"/>
      </g>
     </g>
    </g>
    <g id="xtick_2">
     <g id="line2d_2">
      <g>
       <use xlink:href="#m729429a529" x="92.557814" y="300.04" style="stroke: #000000; stroke-width: 0.8"/>
      </g>
     </g>
     <g id="text_2">
      <!-- 1 -->
      <g transform="translate(86.831564 320.717188) scale(0.18 -0.18)">
       <defs>
        <path id="DejaVuSans-31" d="M 794 531 
L 1825 531 
L 1825 4091 
L 703 3866 
L 703 4441 
L 1819 4666 
L 2450 4666 
L 2450 531 
L 3481 531 
L 3481 0 
L 794 0 
L 794 531 
z
" transform="scale(0.015625)"/>
       </defs>
       <use xlink:href="#DejaVuSans-31"/>
      </g>
     </g>
    </g>
    <g id="xtick_3">
     <g id="line2d_3">
      <g>
       <use xlink:href="#m729429a529" x="124.810373" y="300.04" style="stroke: #000000; stroke-width: 0.8"/>
      </g>
     </g>
     <g id="text_3">
      <!-- 2 -->
      <g transform="translate(119.084123 320.717188) scale(0.18 -0.18)">
       <defs>
        <path id="DejaVuSans-32" d="M 1228 531 
L 3431 531 
L 3431 0 
L 469 0 
L 469 531 
Q 828 903 1448 1529 
Q 2069 2156 2228 2338 
Q 2531 2678 2651 2914 
Q 2772 3150 2772 3378 
Q 2772 3750 2511 3984 
Q 2250 4219 1831 4219 
Q 1534 4219 1204 4116 
Q 875 4013 500 3803 
L 500 4441 
Q 881 4594 1212 4672 
Q 1544 4750 1819 4750 
Q 2544 4750 2975 4387 
Q 3406 4025 3406 3419 
Q 3406 3131 3298 2873 
Q 3191 2616 2906 2266 
Q 2828 2175 2409 1742 
Q 1991 1309 1228 531 
z
" transform="scale(0.015625)"/>
       </defs>
       <use xlink:href="#DejaVuSans-32"/>
      </g>
     </g>
    </g>
    <g id="xtick_4">
     <g id="line2d_4">
      <g>
       <use xlink:href="#m729429a529" x="157.062931" y="300.04" style="stroke: #000000; stroke-width: 0.8"/>
      </g>
     </g>
     <g id="text_4">
      <!-- 3 -->
      <g transform="translate(151.336681 320.717188) scale(0.18 -0.18)">
       <defs>
        <path id="DejaVuSans-33" d="M 2597 2516 
Q 3050 2419 3304 2112 
Q 3559 1806 3559 1356 
Q 3559 666 3084 287 
Q 2609 -91 1734 -91 
Q 1441 -91 1130 -33 
Q 819 25 488 141 
L 488 750 
Q 750 597 1062 519 
Q 1375 441 1716 441 
Q 2309 441 2620 675 
Q 2931 909 2931 1356 
Q 2931 1769 2642 2001 
Q 2353 2234 1838 2234 
L 1294 2234 
L 1294 2753 
L 1863 2753 
Q 2328 2753 2575 2939 
Q 2822 3125 2822 3475 
Q 2822 3834 2567 4026 
Q 2313 4219 1838 4219 
Q 1578 4219 1281 4162 
Q 984 4106 628 3988 
L 628 4550 
Q 988 4650 1302 4700 
Q 1616 4750 1894 4750 
Q 2613 4750 3031 4423 
Q 3450 4097 3450 3541 
Q 3450 3153 3228 2886 
Q 3006 2619 2597 2516 
z
" transform="scale(0.015625)"/>
       </defs>
       <use xlink:href="#DejaVuSans-33"/>
      </g>
     </g>
    </g>
    <g id="xtick_5">
     <g id="line2d_5">
      <g>
       <use xlink:href="#m729429a529" x="189.31549" y="300.04" style="stroke: #000000; stroke-width: 0.8"/>
      </g>
     </g>
     <g id="text_5">
      <!-- 4 -->
      <g transform="translate(183.58924 320.717188) scale(0.18 -0.18)">
       <defs>
        <path id="DejaVuSans-34" d="M 2419 4116 
L 825 1625 
L 2419 1625 
L 2419 4116 
z
M 2253 4666 
L 3047 4666 
L 3047 1625 
L 3713 1625 
L 3713 1100 
L 3047 1100 
L 3047 0 
L 2419 0 
L 2419 1100 
L 313 1100 
L 313 1709 
L 2253 4666 
z
" transform="scale(0.015625)"/>
       </defs>
       <use xlink:href="#DejaVuSans-34"/>
      </g>
     </g>
    </g>
    <g id="xtick_6">
     <g id="line2d_6">
      <g>
       <use xlink:href="#m729429a529" x="221.568048" y="300.04" style="stroke: #000000; stroke-width: 0.8"/>
      </g>
     </g>
     <g id="text_6">
      <!-- 5 -->
      <g transform="translate(215.841798 320.717188) scale(0.18 -0.18)">
       <defs>
        <path id="DejaVuSans-35" d="M 691 4666 
L 3169 4666 
L 3169 4134 
L 1269 4134 
L 1269 2991 
Q 1406 3038 1543 3061 
Q 1681 3084 1819 3084 
Q 2600 3084 3056 2656 
Q 3513 2228 3513 1497 
Q 3513 744 3044 326 
Q 2575 -91 1722 -91 
Q 1428 -91 1123 -41 
Q 819 9 494 109 
L 494 744 
Q 775 591 1075 516 
Q 1375 441 1709 441 
Q 2250 441 2565 725 
Q 2881 1009 2881 1497 
Q 2881 1984 2565 2268 
Q 2250 2553 1709 2553 
Q 1456 2553 1204 2497 
Q 953 2441 691 2322 
L 691 4666 
z
" transform="scale(0.015625)"/>
       </defs>
       <use xlink:href="#DejaVuSans-35"/>
      </g>
     </g>
    </g>
    <g id="xtick_7">
     <g id="line2d_7">
      <g>
       <use xlink:href="#m729429a529" x="253.820607" y="300.04" style="stroke: #000000; stroke-width: 0.8"/>
      </g>
     </g>
     <g id="text_7">
      <!-- 6 -->
      <g transform="translate(248.094357 320.717188) scale(0.18 -0.18)">
       <defs>
        <path id="DejaVuSans-36" d="M 2113 2584 
Q 1688 2584 1439 2293 
Q 1191 2003 1191 1497 
Q 1191 994 1439 701 
Q 1688 409 2113 409 
Q 2538 409 2786 701 
Q 3034 994 3034 1497 
Q 3034 2003 2786 2293 
Q 2538 2584 2113 2584 
z
M 3366 4563 
L 3366 3988 
Q 3128 4100 2886 4159 
Q 2644 4219 2406 4219 
Q 1781 4219 1451 3797 
Q 1122 3375 1075 2522 
Q 1259 2794 1537 2939 
Q 1816 3084 2150 3084 
Q 2853 3084 3261 2657 
Q 3669 2231 3669 1497 
Q 3669 778 3244 343 
Q 2819 -91 2113 -91 
Q 1303 -91 875 529 
Q 447 1150 447 2328 
Q 447 3434 972 4092 
Q 1497 4750 2381 4750 
Q 2619 4750 2861 4703 
Q 3103 4656 3366 4563 
z
" transform="scale(0.015625)"/>
       </defs>
       <use xlink:href="#DejaVuSans-36"/>
      </g>
     </g>
    </g>
    <g id="xtick_8">
     <g id="line2d_8">
      <g>
       <use xlink:href="#m729429a529" x="286.073165" y="300.04" style="stroke: #000000; stroke-width: 0.8"/>
      </g>
     </g>
     <g id="text_8">
      <!-- 7 -->
      <g transform="translate(280.346915 320.717188) scale(0.18 -0.18)">
       <defs>
        <path id="DejaVuSans-37" d="M 525 4666 
L 3525 4666 
L 3525 4397 
L 1831 0 
L 1172 0 
L 2766 4134 
L 525 4134 
L 525 4666 
z
" transform="scale(0.015625)"/>
       </defs>
       <use xlink:href="#DejaVuSans-37"/>
      </g>
     </g>
    </g>
    <g id="xtick_9">
     <g id="line2d_9">
      <g>
       <use xlink:href="#m729429a529" x="318.325724" y="300.04" style="stroke: #000000; stroke-width: 0.8"/>
      </g>
     </g>
     <g id="text_9">
      <!-- 8 -->
      <g transform="translate(312.599474 320.717188) scale(0.18 -0.18)">
       <defs>
        <path id="DejaVuSans-38" d="M 2034 2216 
Q 1584 2216 1326 1975 
Q 1069 1734 1069 1313 
Q 1069 891 1326 650 
Q 1584 409 2034 409 
Q 2484 409 2743 651 
Q 3003 894 3003 1313 
Q 3003 1734 2745 1975 
Q 2488 2216 2034 2216 
z
M 1403 2484 
Q 997 2584 770 2862 
Q 544 3141 544 3541 
Q 544 4100 942 4425 
Q 1341 4750 2034 4750 
Q 2731 4750 3128 4425 
Q 3525 4100 3525 3541 
Q 3525 3141 3298 2862 
Q 3072 2584 2669 2484 
Q 3125 2378 3379 2068 
Q 3634 1759 3634 1313 
Q 3634 634 3220 271 
Q 2806 -91 2034 -91 
Q 1263 -91 848 271 
Q 434 634 434 1313 
Q 434 1759 690 2068 
Q 947 2378 1403 2484 
z
M 1172 3481 
Q 1172 3119 1398 2916 
Q 1625 2713 2034 2713 
Q 2441 2713 2670 2916 
Q 2900 3119 2900 3481 
Q 2900 3844 2670 4047 
Q 2441 4250 2034 4250 
Q 1625 4250 1398 4047 
Q 1172 3844 1172 3481 
z
" transform="scale(0.015625)"/>
       </defs>
       <use xlink:href="#DejaVuSans-38"/>
      </g>
     </g>
    </g>
    <g id="xtick_10">
     <g id="line2d_10">
      <g>
       <use xlink:href="#m729429a529" x="350.578282" y="300.04" style="stroke: #000000; stroke-width: 0.8"/>
      </g>
     </g>
     <g id="text_10">
      <!-- 9 -->
      <g transform="translate(344.852032 320.717188) scale(0.18 -0.18)">
       <defs>
        <path id="DejaVuSans-39" d="M 703 97 
L 703 672 
Q 941 559 1184 500 
Q 1428 441 1663 441 
Q 2288 441 2617 861 
Q 2947 1281 2994 2138 
Q 2813 1869 2534 1725 
Q 2256 1581 1919 1581 
Q 1219 1581 811 2004 
Q 403 2428 403 3163 
Q 403 3881 828 4315 
Q 1253 4750 1959 4750 
Q 2769 4750 3195 4129 
Q 3622 3509 3622 2328 
Q 3622 1225 3098 567 
Q 2575 -91 1691 -91 
Q 1453 -91 1209 -44 
Q 966 3 703 97 
z
M 1959 2075 
Q 2384 2075 2632 2365 
Q 2881 2656 2881 3163 
Q 2881 3666 2632 3958 
Q 2384 4250 1959 4250 
Q 1534 4250 1286 3958 
Q 1038 3666 1038 3163 
Q 1038 2656 1286 2365 
Q 1534 2075 1959 2075 
z
" transform="scale(0.015625)"/>
       </defs>
       <use xlink:href="#DejaVuSans-39"/>
      </g>
     </g>
    </g>
    <g id="text_11">
     <!-- Time (d) -->
     <g transform="translate(159.465207 345.177188) scale(0.22 -0.22)">
      <defs>
       <path id="DejaVuSans-54" d="M -19 4666 
L 3928 4666 
L 3928 4134 
L 2272 4134 
L 2272 0 
L 1638 0 
L 1638 4134 
L -19 4134 
L -19 4666 
z
" transform="scale(0.015625)"/>
       <path id="DejaVuSans-69" d="M 603 3500 
L 1178 3500 
L 1178 0 
L 603 0 
L 603 3500 
z
M 603 4863 
L 1178 4863 
L 1178 4134 
L 603 4134 
L 603 4863 
z
" transform="scale(0.015625)"/>
       <path id="DejaVuSans-6d" d="M 3328 2828 
Q 3544 3216 3844 3400 
Q 4144 3584 4550 3584 
Q 5097 3584 5394 3201 
Q 5691 2819 5691 2113 
L 5691 0 
L 5113 0 
L 5113 2094 
Q 5113 2597 4934 2840 
Q 4756 3084 4391 3084 
Q 3944 3084 3684 2787 
Q 3425 2491 3425 1978 
L 3425 0 
L 2847 0 
L 2847 2094 
Q 2847 2600 2669 2842 
Q 2491 3084 2119 3084 
Q 1678 3084 1418 2786 
Q 1159 2488 1159 1978 
L 1159 0 
L 581 0 
L 581 3500 
L 1159 3500 
L 1159 2956 
Q 1356 3278 1631 3431 
Q 1906 3584 2284 3584 
Q 2666 3584 2933 3390 
Q 3200 3197 3328 2828 
z
" transform="scale(0.015625)"/>
       <path id="DejaVuSans-65" d="M 3597 1894 
L 3597 1613 
L 953 1613 
Q 991 1019 1311 708 
Q 1631 397 2203 397 
Q 2534 397 2845 478 
Q 3156 559 3463 722 
L 3463 178 
Q 3153 47 2828 -22 
Q 2503 -91 2169 -91 
Q 1331 -91 842 396 
Q 353 884 353 1716 
Q 353 2575 817 3079 
Q 1281 3584 2069 3584 
Q 2775 3584 3186 3129 
Q 3597 2675 3597 1894 
z
M 3022 2063 
Q 3016 2534 2758 2815 
Q 2500 3097 2075 3097 
Q 1594 3097 1305 2825 
Q 1016 2553 972 2059 
L 3022 2063 
z
" transform="scale(0.015625)"/>
       <path id="DejaVuSans-20" transform="scale(0.015625)"/>
       <path id="DejaVuSans-28" d="M 1984 4856 
Q 1566 4138 1362 3434 
Q 1159 2731 1159 2009 
Q 1159 1288 1364 580 
Q 1569 -128 1984 -844 
L 1484 -844 
Q 1016 -109 783 600 
Q 550 1309 550 2009 
Q 550 2706 781 3412 
Q 1013 4119 1484 4856 
L 1984 4856 
z
" transform="scale(0.015625)"/>
       <path id="DejaVuSans-64" d="M 2906 2969 
L 2906 4863 
L 3481 4863 
L 3481 0 
L 2906 0 
L 2906 525 
Q 2725 213 2448 61 
Q 2172 -91 1784 -91 
Q 1150 -91 751 415 
Q 353 922 353 1747 
Q 353 2572 751 3078 
Q 1150 3584 1784 3584 
Q 2172 3584 2448 3432 
Q 2725 3281 2906 2969 
z
M 947 1747 
Q 947 1113 1208 752 
Q 1469 391 1925 391 
Q 2381 391 2643 752 
Q 2906 1113 2906 1747 
Q 2906 2381 2643 2742 
Q 2381 3103 1925 3103 
Q 1469 3103 1208 2742 
Q 947 2381 947 1747 
z
" transform="scale(0.015625)"/>
       <path id="DejaVuSans-29" d="M 513 4856 
L 1013 4856 
Q 1481 4119 1714 3412 
Q 1947 2706 1947 2009 
Q 1947 1309 1714 600 
Q 1481 -109 1013 -844 
L 513 -844 
Q 928 -128 1133 580 
Q 1338 1288 1338 2009 
Q 1338 2731 1133 3434 
Q 928 4138 513 4856 
z
" transform="scale(0.015625)"/>
      </defs>
      <use xlink:href="#DejaVuSans-54"/>
      <use xlink:href="#DejaVuSans-69" x="57.958984"/>
      <use xlink:href="#DejaVuSans-6d" x="85.742188"/>
      <use xlink:href="#DejaVuSans-65" x="183.154297"/>
      <use xlink:href="#DejaVuSans-20" x="244.677734"/>
      <use xlink:href="#DejaVuSans-28" x="276.464844"/>
      <use xlink:href="#DejaVuSans-64" x="315.478516"/>
      <use xlink:href="#DejaVuSans-29" x="378.955078"/>
     </g>
    </g>
   </g>
   <g id="matplotlib.axis_2">
    <g id="ytick_1">
     <g id="line2d_11">
      <defs>
       <path id="m2bb517855f" d="M 0 0 
L -3.5 0 
" style="stroke: #000000; stroke-width: 0.8"/>
      </defs>
      <g>
       <use xlink:href="#m2bb517855f" x="57.08" y="300.04" style="stroke: #000000; stroke-width: 0.8"/>
      </g>
     </g>
     <g id="text_12">
      <!-- 0 -->
      <g transform="translate(38.6275 306.878594) scale(0.18 -0.18)">
       <use xlink:href="#DejaVuSans-30"/>
      </g>
     </g>
    </g>
    <g id="ytick_2">
     <g id="line2d_12">
      <g>
       <use xlink:href="#m2bb517855f" x="57.08" y="243.03" style="stroke: #000000; stroke-width: 0.8"/>
      </g>
     </g>
     <g id="text_13">
      <!-- 2 -->
      <g transform="translate(38.6275 249.868594) scale(0.18 -0.18)">
       <use xlink:href="#DejaVuSans-32"/>
      </g>
     </g>
    </g>
    <g id="ytick_3">
     <g id="line2d_13">
      <g>
       <use xlink:href="#m2bb517855f" x="57.08" y="186.02" style="stroke: #000000; stroke-width: 0.8"/>
      </g>
     </g>
     <g id="text_14">
      <!-- 4 -->
      <g transform="translate(38.6275 192.858594) scale(0.18 -0.18)">
       <use xlink:href="#DejaVuSans-34"/>
      </g>
     </g>
    </g>
    <g id="ytick_4">
     <g id="line2d_14">
      <g>
       <use xlink:href="#m2bb517855f" x="57.08" y="129.01" style="stroke: #000000; stroke-width: 0.8"/>
      </g>
     </g>
     <g id="text_15">
      <!-- 6 -->
      <g transform="translate(38.6275 135.848594) scale(0.18 -0.18)">
       <use xlink:href="#DejaVuSans-36"/>
      </g>
     </g>
    </g>
    <g id="ytick_5">
     <g id="line2d_15">
      <g>
       <use xlink:href="#m2bb517855f" x="57.08" y="72" style="stroke: #000000; stroke-width: 0.8"/>
      </g>
     </g>
     <g id="text_16">
      <!-- 8 -->
      <g transform="translate(38.6275 78.838594) scale(0.18 -0.18)">
       <use xlink:href="#DejaVuSans-38"/>
      </g>
     </g>
    </g>
    <g id="text_17">
     <!-- Virus (log$_{10}$ copies/mL) -->
     <g transform="translate(30.0075 312.3) rotate(-90) scale(0.22 -0.22)">
      <defs>
       <path id="DejaVuSans-56" d="M 1831 0 
L 50 4666 
L 709 4666 
L 2188 738 
L 3669 4666 
L 4325 4666 
L 2547 0 
L 1831 0 
z
" transform="scale(0.015625)"/>
       <path id="DejaVuSans-72" d="M 2631 2963 
Q 2534 3019 2420 3045 
Q 2306 3072 2169 3072 
Q 1681 3072 1420 2755 
Q 1159 2438 1159 1844 
L 1159 0 
L 581 0 
L 581 3500 
L 1159 3500 
L 1159 2956 
Q 1341 3275 1631 3429 
Q 1922 3584 2338 3584 
Q 2397 3584 2469 3576 
Q 2541 3569 2628 3553 
L 2631 2963 
z
" transform="scale(0.015625)"/>
       <path id="DejaVuSans-75" d="M 544 1381 
L 544 3500 
L 1119 3500 
L 1119 1403 
Q 1119 906 1312 657 
Q 1506 409 1894 409 
Q 2359 409 2629 706 
Q 2900 1003 2900 1516 
L 2900 3500 
L 3475 3500 
L 3475 0 
L 2900 0 
L 2900 538 
Q 2691 219 2414 64 
Q 2138 -91 1772 -91 
Q 1169 -91 856 284 
Q 544 659 544 1381 
z
M 1991 3584 
L 1991 3584 
z
" transform="scale(0.015625)"/>
       <path id="DejaVuSans-73" d="M 2834 3397 
L 2834 2853 
Q 2591 2978 2328 3040 
Q 2066 3103 1784 3103 
Q 1356 3103 1142 2972 
Q 928 2841 928 2578 
Q 928 2378 1081 2264 
Q 1234 2150 1697 2047 
L 1894 2003 
Q 2506 1872 2764 1633 
Q 3022 1394 3022 966 
Q 3022 478 2636 193 
Q 2250 -91 1575 -91 
Q 1294 -91 989 -36 
Q 684 19 347 128 
L 347 722 
Q 666 556 975 473 
Q 1284 391 1588 391 
Q 1994 391 2212 530 
Q 2431 669 2431 922 
Q 2431 1156 2273 1281 
Q 2116 1406 1581 1522 
L 1381 1569 
Q 847 1681 609 1914 
Q 372 2147 372 2553 
Q 372 3047 722 3315 
Q 1072 3584 1716 3584 
Q 2034 3584 2315 3537 
Q 2597 3491 2834 3397 
z
" transform="scale(0.015625)"/>
       <path id="DejaVuSans-6c" d="M 603 4863 
L 1178 4863 
L 1178 0 
L 603 0 
L 603 4863 
z
" transform="scale(0.015625)"/>
       <path id="DejaVuSans-6f" d="M 1959 3097 
Q 1497 3097 1228 2736 
Q 959 2375 959 1747 
Q 959 1119 1226 758 
Q 1494 397 1959 397 
Q 2419 397 2687 759 
Q 2956 1122 2956 1747 
Q 2956 2369 2687 2733 
Q 2419 3097 1959 3097 
z
M 1959 3584 
Q 2709 3584 3137 3096 
Q 3566 2609 3566 1747 
Q 3566 888 3137 398 
Q 2709 -91 1959 -91 
Q 1206 -91 779 398 
Q 353 888 353 1747 
Q 353 2609 779 3096 
Q 1206 3584 1959 3584 
z
" transform="scale(0.015625)"/>
       <path id="DejaVuSans-67" d="M 2906 1791 
Q 2906 2416 2648 2759 
Q 2391 3103 1925 3103 
Q 1463 3103 1205 2759 
Q 947 2416 947 1791 
Q 947 1169 1205 825 
Q 1463 481 1925 481 
Q 2391 481 2648 825 
Q 2906 1169 2906 1791 
z
M 3481 434 
Q 3481 -459 3084 -895 
Q 2688 -1331 1869 -1331 
Q 1566 -1331 1297 -1286 
Q 1028 -1241 775 -1147 
L 775 -588 
Q 1028 -725 1275 -790 
Q 1522 -856 1778 -856 
Q 2344 -856 2625 -561 
Q 2906 -266 2906 331 
L 2906 616 
Q 2728 306 2450 153 
Q 2172 0 1784 0 
Q 1141 0 747 490 
Q 353 981 353 1791 
Q 353 2603 747 3093 
Q 1141 3584 1784 3584 
Q 2172 3584 2450 3431 
Q 2728 3278 2906 2969 
L 2906 3500 
L 3481 3500 
L 3481 434 
z
" transform="scale(0.015625)"/>
       <path id="DejaVuSans-63" d="M 3122 3366 
L 3122 2828 
Q 2878 2963 2633 3030 
Q 2388 3097 2138 3097 
Q 1578 3097 1268 2742 
Q 959 2388 959 1747 
Q 959 1106 1268 751 
Q 1578 397 2138 397 
Q 2388 397 2633 464 
Q 2878 531 3122 666 
L 3122 134 
Q 2881 22 2623 -34 
Q 2366 -91 2075 -91 
Q 1284 -91 818 406 
Q 353 903 353 1747 
Q 353 2603 823 3093 
Q 1294 3584 2113 3584 
Q 2378 3584 2631 3529 
Q 2884 3475 3122 3366 
z
" transform="scale(0.015625)"/>
       <path id="DejaVuSans-70" d="M 1159 525 
L 1159 -1331 
L 581 -1331 
L 581 3500 
L 1159 3500 
L 1159 2969 
Q 1341 3281 1617 3432 
Q 1894 3584 2278 3584 
Q 2916 3584 3314 3078 
Q 3713 2572 3713 1747 
Q 3713 922 3314 415 
Q 2916 -91 2278 -91 
Q 1894 -91 1617 61 
Q 1341 213 1159 525 
z
M 3116 1747 
Q 3116 2381 2855 2742 
Q 2594 3103 2138 3103 
Q 1681 3103 1420 2742 
Q 1159 2381 1159 1747 
Q 1159 1113 1420 752 
Q 1681 391 2138 391 
Q 2594 391 2855 752 
Q 3116 1113 3116 1747 
z
" transform="scale(0.015625)"/>
       <path id="DejaVuSans-2f" d="M 1625 4666 
L 2156 4666 
L 531 -594 
L 0 -594 
L 1625 4666 
z
" transform="scale(0.015625)"/>
       <path id="DejaVuSans-4c" d="M 628 4666 
L 1259 4666 
L 1259 531 
L 3531 531 
L 3531 0 
L 628 0 
L 628 4666 
z
" transform="scale(0.015625)"/>
      </defs>
      <use xlink:href="#DejaVuSans-56" transform="translate(0 0.015625)"/>
      <use xlink:href="#DejaVuSans-69" transform="translate(68.408203 0.015625)"/>
      <use xlink:href="#DejaVuSans-72" transform="translate(96.191406 0.015625)"/>
      <use xlink:href="#DejaVuSans-75" transform="translate(137.304688 0.015625)"/>
      <use xlink:href="#DejaVuSans-73" transform="translate(200.683594 0.015625)"/>
      <use xlink:href="#DejaVuSans-20" transform="translate(252.783203 0.015625)"/>
      <use xlink:href="#DejaVuSans-28" transform="translate(284.570312 0.015625)"/>
      <use xlink:href="#DejaVuSans-6c" transform="translate(323.583984 0.015625)"/>
      <use xlink:href="#DejaVuSans-6f" transform="translate(351.367188 0.015625)"/>
      <use xlink:href="#DejaVuSans-67" transform="translate(412.548828 0.015625)"/>
      <use xlink:href="#DejaVuSans-31" transform="translate(476.982422 -16.390625) scale(0.7)"/>
      <use xlink:href="#DejaVuSans-30" transform="translate(521.518555 -16.390625) scale(0.7)"/>
      <use xlink:href="#DejaVuSans-20" transform="translate(568.789062 0.015625)"/>
      <use xlink:href="#DejaVuSans-63" transform="translate(600.576172 0.015625)"/>
      <use xlink:href="#DejaVuSans-6f" transform="translate(655.556641 0.015625)"/>
      <use xlink:href="#DejaVuSans-70" transform="translate(716.738281 0.015625)"/>
      <use xlink:href="#DejaVuSans-69" transform="translate(780.214844 0.015625)"/>
      <use xlink:href="#DejaVuSans-65" transform="translate(807.998047 0.015625)"/>
      <use xlink:href="#DejaVuSans-73" transform="translate(869.521484 0.015625)"/>
      <use xlink:href="#DejaVuSans-2f" transform="translate(921.621094 0.015625)"/>
      <use xlink:href="#DejaVuSans-6d" transform="translate(955.3125 0.015625)"/>
      <use xlink:href="#DejaVuSans-4c" transform="translate(1052.724609 0.015625)"/>
      <use xlink:href="#DejaVuSans-29" transform="translate(1108.4375 0.015625)"/>
     </g>
    </g>
   </g>
   <g id="patch_3">
    <path d="M 57.08 300.04 
L 57.08 72 
" style="fill: none; stroke: #000000; stroke-width: 0.8; stroke-linejoin: miter; stroke-linecap: square"/>
   </g>
   <g id="patch_4">
    <path d="M 353.803538 300.04 
L 353.803538 72 
" style="fill: none; stroke: #000000; stroke-width: 0.8; stroke-linejoin: miter; stroke-linecap: square"/>
   </g>
   <g id="patch_5">
    <path d="M 57.08 300.04 
L 353.803538 300.04 
" style="fill: none; stroke: #000000; stroke-width: 0.8; stroke-linejoin: miter; stroke-linecap: square"/>
   </g>
   <g id="patch_6">
    <path d="M 57.08 72 
L 353.803538 72 
" style="fill: none; stroke: #000000; stroke-width: 0.8; stroke-linejoin: miter; stroke-linecap: square"/>
   </g>
   <g id="PolyCollection_1">
    <defs>
     <path id="m539bdfb9a3" d="M 60.305256 -59.96 
L 60.305256 -59.96 
L 60.305631 -59.96 
L 60.309386 -59.96 
L 60.34693 -59.96 
L 60.579525 -59.96 
L 60.724347 -59.96 
L 61.303124 -59.96 
L 61.653466 -63.374162 
L 62.774488 -76.555935 
L 63.237532 -80.673556 
L 64.332833 -88.820313 
L 64.884405 -92.62143 
L 66.004294 -100.171558 
L 66.626445 -104.317061 
L 67.743025 -111.506049 
L 68.423104 -115.522279 
L 69.54109 -122.106501 
L 70.265524 -126.397261 
L 71.379454 -132.959009 
L 72.137385 -137.449731 
L 73.247011 -143.803312 
L 74.029242 -148.225821 
L 75.249398 -155.139493 
L 76.01637 -159.470987 
L 77.072484 -165.479638 
L 77.870806 -169.988664 
L 79.024474 -176.513244 
L 79.818951 -180.998748 
L 80.903648 -187.12719 
L 81.720611 -191.752292 
L 82.903025 -198.395816 
L 83.727033 -203.033913 
L 84.874574 -209.434806 
L 85.729852 -214.194988 
L 86.967359 -220.988335 
L 87.817301 -225.556274 
L 88.880675 -231.152965 
L 89.696457 -235.259717 
L 90.518618 -239.288977 
L 91.183838 -242.346574 
L 91.85629 -245.269306 
L 92.439494 -247.599601 
L 93.022697 -249.905039 
L 93.605901 -251.899031 
L 94.189105 -253.766189 
L 94.787119 -255.451608 
L 95.47118 -256.919201 
L 97.029532 -259.022899 
L 97.800862 -259.322548 
L 99.341745 -259.689617 
L 100.24421 -259.786798 
L 102.18176 -259.768452 
L 103.204373 -259.654986 
L 105.231493 -259.264258 
L 106.443692 -258.942538 
L 109.006451 -258.079035 
L 110.446295 -257.543674 
L 113.671551 -255.941808 
L 115.437879 -255.025595 
L 118.663135 -253.302553 
L 120.965306 -252.043724 
L 124.190562 -250.250893 
L 127.415818 -248.422886 
L 130.641074 -246.563151 
L 133.86633 -244.663331 
L 137.091586 -242.699566 
L 139.960288 -240.83076 
L 142.282842 -239.250822 
L 144.678367 -237.58834 
L 147.073893 -235.892082 
L 149.469419 -234.154144 
L 151.646197 -232.522486 
L 153.822975 -230.852429 
L 156.51605 -228.694917 
L 159.209124 -226.455144 
L 162.43438 -223.60446 
L 165.659636 -220.517723 
L 168.884892 -217.110285 
L 172.110147 -212.854382 
L 175.335403 -207.872379 
L 178.560659 -202.095128 
L 181.785915 -195.420834 
L 185.011171 -187.849995 
L 188.236427 -179.422844 
L 191.461682 -170.355288 
L 194.686938 -160.937419 
L 197.461134 -152.545013 
L 200.345285 -143.759851 
L 203.229437 -135.007236 
L 206.113588 -126.366982 
L 208.99774 -117.910059 
L 211.881891 -109.700525 
L 214.766043 -101.795315 
L 217.650194 -94.242211 
L 220.534346 -87.076729 
L 223.418497 -80.319057 
L 226.302649 -73.961494 
L 229.230044 -67.906782 
L 232.294034 -61.992213 
L 235.51929 -59.96 
L 238.744545 -59.96 
L 241.969801 -59.96 
L 245.195057 -59.96 
L 248.420313 -59.96 
L 251.645569 -59.96 
L 254.870825 -59.96 
L 258.096081 -59.96 
L 261.321336 -59.96 
L 264.546592 -59.96 
L 267.771848 -59.96 
L 270.997104 -59.96 
L 274.22236 -59.96 
L 277.447616 -59.96 
L 280.672871 -59.96 
L 283.898127 -59.96 
L 287.123383 -59.96 
L 290.348639 -59.96 
L 293.573895 -59.96 
L 296.799151 -59.96 
L 300.024407 -59.96 
L 303.249662 -59.96 
L 306.474918 -59.96 
L 309.700174 -59.96 
L 312.92543 -59.96 
L 316.150686 -59.96 
L 319.375942 -59.96 
L 322.601198 -59.96 
L 325.826453 -59.96 
L 329.051709 -59.96 
L 332.276965 -59.96 
L 335.502221 -59.96 
L 338.727477 -59.96 
L 341.952733 -59.96 
L 345.177989 -59.96 
L 348.403244 -59.96 
L 350.578282 -59.96 
L 350.578282 -59.96 
L 350.578282 -59.96 
L 348.403244 -59.96 
L 345.177989 -59.96 
L 341.952733 -59.96 
L 338.727477 -59.96 
L 335.502221 -59.96 
L 332.276965 -59.96 
L 329.051709 -59.96 
L 325.826453 -59.96 
L 322.601198 -59.96 
L 319.375942 -59.96 
L 316.150686 -59.96 
L 312.92543 -59.96 
L 309.700174 -59.96 
L 306.474918 -59.96 
L 303.249662 -59.96 
L 300.024407 -59.96 
L 296.799151 -59.96 
L 293.573895 -59.96 
L 290.348639 -59.96 
L 287.123383 -59.96 
L 283.898127 -59.96 
L 280.672871 -59.96 
L 277.447616 -59.96 
L 274.22236 -59.96 
L 270.997104 -59.96 
L 267.771848 -59.96 
L 264.546592 -59.96 
L 261.321336 -59.96 
L 258.096081 -59.96 
L 254.870825 -59.96 
L 251.645569 -61.805698 
L 248.420313 -67.222727 
L 245.195057 -73.158022 
L 241.969801 -79.35892 
L 238.744545 -85.815291 
L 235.51929 -92.538983 
L 232.294034 -99.53948 
L 229.230044 -106.456117 
L 226.302649 -113.303844 
L 223.418497 -120.268053 
L 220.534346 -127.433618 
L 217.650194 -134.779681 
L 214.766043 -142.339446 
L 211.881891 -150.124995 
L 208.99774 -157.936796 
L 206.113588 -165.705624 
L 203.229437 -173.346617 
L 200.345285 -180.757383 
L 197.461134 -187.798104 
L 194.686938 -194.049738 
L 191.461682 -200.66516 
L 188.236427 -206.491152 
L 185.011171 -211.571711 
L 181.785915 -216.011644 
L 178.560659 -219.931238 
L 175.335403 -223.438474 
L 172.110147 -226.620271 
L 168.884892 -229.629829 
L 165.659636 -232.557484 
L 162.43438 -235.287557 
L 159.209124 -237.868335 
L 156.51605 -239.954961 
L 153.822975 -241.969411 
L 151.646197 -243.556386 
L 149.469419 -245.096124 
L 147.073893 -246.831184 
L 144.678367 -248.547718 
L 142.282842 -250.230874 
L 139.960288 -251.833682 
L 137.091586 -253.777505 
L 133.86633 -255.914081 
L 130.641074 -257.996097 
L 127.415818 -260.015174 
L 124.190562 -261.957864 
L 120.965306 -263.800774 
L 118.663135 -265.04271 
L 115.437879 -266.648668 
L 113.671551 -267.444279 
L 110.446295 -268.716926 
L 109.006451 -269.190012 
L 106.443692 -269.838827 
L 105.231493 -270.230077 
L 103.204373 -270.767071 
L 102.18176 -270.956122 
L 100.24421 -271.226392 
L 99.341745 -271.293663 
L 97.800862 -271.426259 
L 97.029532 -271.501282 
L 95.47118 -271.538605 
L 94.787119 -271.533336 
L 94.189105 -271.479589 
L 93.605901 -271.389136 
L 93.022697 -271.275223 
L 92.439494 -271.158374 
L 91.85629 -270.977077 
L 91.183838 -270.701598 
L 90.518618 -270.402175 
L 89.696457 -269.954264 
L 88.880675 -269.360446 
L 87.817301 -268.451009 
L 86.967359 -267.481569 
L 85.729852 -265.777884 
L 84.874574 -264.280588 
L 83.727033 -262.269914 
L 82.903025 -260.524537 
L 81.720611 -258.593515 
L 80.903648 -256.945179 
L 79.818951 -254.056482 
L 79.024474 -251.248415 
L 77.870806 -245.675143 
L 77.072484 -240.560994 
L 76.01637 -232.028402 
L 75.249398 -224.834916 
L 74.029242 -212.004038 
L 73.247011 -203.360746 
L 72.137385 -190.91086 
L 71.379454 -182.325543 
L 70.265524 -169.592132 
L 69.54109 -161.361548 
L 68.423104 -148.620125 
L 67.743025 -140.832107 
L 66.626445 -128.103022 
L 66.004294 -121.021231 
L 64.884405 -108.256618 
L 64.332833 -101.985527 
L 63.237532 -89.807276 
L 62.774488 -84.929678 
L 61.653466 -69.684579 
L 61.303124 -63.665154 
L 60.724347 -60.002958 
L 60.579525 -59.96 
L 60.34693 -59.96 
L 60.309386 -59.96 
L 60.305631 -59.96 
L 60.305256 -59.96 
z
" style="stroke: #ff00ff; stroke-opacity: 0.2"/>
    </defs>
    <g clip-path="url(#p033eaa3719)">
     <use xlink:href="#m539bdfb9a3" x="0" y="360" style="fill: #ff00ff; fill-opacity: 0.2; stroke: #ff00ff; stroke-opacity: 0.2"/>
    </g>
   </g>
   <g id="PathCollection_1">
    <defs>
     <path id="mb905be2cd8" d="M 0 4.330127 
C 1.148363 4.330127 2.249847 3.873878 3.061862 3.061862 
C 3.873878 2.249847 4.330127 1.148363 4.330127 0 
C 4.330127 -1.148363 3.873878 -2.249847 3.061862 -3.061862 
C 2.249847 -3.873878 1.148363 -4.330127 0 -4.330127 
C -1.148363 -4.330127 -2.249847 -3.873878 -3.061862 -3.061862 
C -3.873878 -2.249847 -4.330127 -1.148363 -4.330127 0 
C -4.330127 1.148363 -3.873878 2.249847 -3.061862 3.061862 
C -2.249847 3.873878 -1.148363 4.330127 0 4.330127 
z
" style="stroke: #ff00ff; stroke-opacity: 0.8"/>
    </defs>
    <g clip-path="url(#p033eaa3719)">
     <use xlink:href="#mb905be2cd8" x="60.305256" y="300.04" style="fill: #ff00ff; fill-opacity: 0.8; stroke: #ff00ff; stroke-opacity: 0.8"/>
     <use xlink:href="#mb905be2cd8" x="92.557814" y="75.563125" style="fill: #ff00ff; fill-opacity: 0.8; stroke: #ff00ff; stroke-opacity: 0.8"/>
     <use xlink:href="#mb905be2cd8" x="124.810373" y="150.38875" style="fill: #ff00ff; fill-opacity: 0.8; stroke: #ff00ff; stroke-opacity: 0.8"/>
     <use xlink:href="#mb905be2cd8" x="157.062931" y="48.127063" style="fill: #ff00ff; fill-opacity: 0.8; stroke: #ff00ff; stroke-opacity: 0.8"/>
     <use xlink:href="#mb905be2cd8" x="189.31549" y="127.941062" style="fill: #ff00ff; fill-opacity: 0.8; stroke: #ff00ff; stroke-opacity: 0.8"/>
     <use xlink:href="#mb905be2cd8" x="221.568048" y="292.557437" style="fill: #ff00ff; fill-opacity: 0.8; stroke: #ff00ff; stroke-opacity: 0.8"/>
     <use xlink:href="#mb905be2cd8" x="253.820607" y="300.04" style="fill: #ff00ff; fill-opacity: 0.8; stroke: #ff00ff; stroke-opacity: 0.8"/>
     <use xlink:href="#mb905be2cd8" x="286.073165" y="300.04" style="fill: #ff00ff; fill-opacity: 0.8; stroke: #ff00ff; stroke-opacity: 0.8"/>
    </g>
   </g>
   <g id="line2d_16">
    <path d="M 60.305256 300.04 
L 60.724347 300.04 
L 61.303124 298.864304 
L 61.653466 291.969876 
L 62.774488 278.167558 
L 63.237532 274.089094 
L 64.884405 261.790227 
L 80.903648 150.657471 
L 83.727033 131.906585 
L 85.729852 119.923667 
L 86.967359 113.610232 
L 87.817301 109.897073 
L 88.880675 106.011434 
L 89.696457 103.568169 
L 91.183838 100.14387 
L 92.439494 98.069003 
L 93.605901 96.641839 
L 94.787119 95.573702 
L 95.47118 95.095372 
L 97.029532 94.311729 
L 97.800862 94.055795 
L 100.24421 93.681915 
L 103.204373 93.880046 
L 106.443692 94.64301 
L 110.446295 96.10028 
L 115.437879 98.426892 
L 120.965306 101.414957 
L 127.415818 105.236507 
L 133.86633 109.292527 
L 142.282842 114.861857 
L 149.469419 119.905725 
L 153.822975 123.146348 
L 159.209124 127.437793 
L 162.43438 130.20949 
L 165.659636 133.181082 
L 168.884892 136.407613 
L 172.110147 139.962541 
L 175.335403 143.944182 
L 178.560659 148.480913 
L 181.785915 153.727039 
L 185.011171 159.833211 
L 188.236427 166.883346 
L 191.461682 174.834248 
L 194.686938 183.521231 
L 200.345285 199.800774 
L 214.766043 242.34624 
L 220.534346 258.235796 
L 223.418497 265.721107 
L 226.302649 272.850951 
L 229.230044 279.705617 
L 232.294034 286.465948 
L 235.51929 293.133156 
L 238.744545 299.357156 
L 241.969801 300.04 
L 350.578282 300.04 
L 350.578282 300.04 
" clip-path="url(#p033eaa3719)" style="fill: none; stroke: #ff00ff; stroke-width: 1.5; stroke-linecap: square"/>
   </g>
  </g>
  <g id="axes_2">
   <g id="patch_7">
    <path d="M 415.545487 300.04 
L 712.269026 300.04 
L 712.269026 72 
L 415.545487 72 
z
" style="fill: #ffffff"/>
   </g>
   <g id="matplotlib.axis_3">
    <g id="xtick_11">
     <g id="line2d_17">
      <g>
       <use xlink:href="#m729429a529" x="418.770743" y="300.04" style="stroke: #000000; stroke-width: 0.8"/>
      </g>
     </g>
     <g id="text_18">
      <!-- 0 -->
      <g transform="translate(413.044493 320.717188) scale(0.18 -0.18)">
       <use xlink:href="#DejaVuSans-30"/>
      </g>
     </g>
    </g>
    <g id="xtick_12">
     <g id="line2d_18">
      <g>
       <use xlink:href="#m729429a529" x="451.023302" y="300.04" style="stroke: #000000; stroke-width: 0.8"/>
      </g>
     </g>
     <g id="text_19">
      <!-- 1 -->
      <g transform="translate(445.297052 320.717188) scale(0.18 -0.18)">
       <use xlink:href="#DejaVuSans-31"/>
      </g>
     </g>
    </g>
    <g id="xtick_13">
     <g id="line2d_19">
      <g>
       <use xlink:href="#m729429a529" x="483.27586" y="300.04" style="stroke: #000000; stroke-width: 0.8"/>
      </g>
     </g>
     <g id="text_20">
      <!-- 2 -->
      <g transform="translate(477.54961 320.717188) scale(0.18 -0.18)">
       <use xlink:href="#DejaVuSans-32"/>
      </g>
     </g>
    </g>
    <g id="xtick_14">
     <g id="line2d_20">
      <g>
       <use xlink:href="#m729429a529" x="515.528419" y="300.04" style="stroke: #000000; stroke-width: 0.8"/>
      </g>
     </g>
     <g id="text_21">
      <!-- 3 -->
      <g transform="translate(509.802169 320.717188) scale(0.18 -0.18)">
       <use xlink:href="#DejaVuSans-33"/>
      </g>
     </g>
    </g>
    <g id="xtick_15">
     <g id="line2d_21">
      <g>
       <use xlink:href="#m729429a529" x="547.780977" y="300.04" style="stroke: #000000; stroke-width: 0.8"/>
      </g>
     </g>
     <g id="text_22">
      <!-- 4 -->
      <g transform="translate(542.054727 320.717188) scale(0.18 -0.18)">
       <use xlink:href="#DejaVuSans-34"/>
      </g>
     </g>
    </g>
    <g id="xtick_16">
     <g id="line2d_22">
      <g>
       <use xlink:href="#m729429a529" x="580.033536" y="300.04" style="stroke: #000000; stroke-width: 0.8"/>
      </g>
     </g>
     <g id="text_23">
      <!-- 5 -->
      <g transform="translate(574.307286 320.717188) scale(0.18 -0.18)">
       <use xlink:href="#DejaVuSans-35"/>
      </g>
     </g>
    </g>
    <g id="xtick_17">
     <g id="line2d_23">
      <g>
       <use xlink:href="#m729429a529" x="612.286094" y="300.04" style="stroke: #000000; stroke-width: 0.8"/>
      </g>
     </g>
     <g id="text_24">
      <!-- 6 -->
      <g transform="translate(606.559844 320.717188) scale(0.18 -0.18)">
       <use xlink:href="#DejaVuSans-36"/>
      </g>
     </g>
    </g>
    <g id="xtick_18">
     <g id="line2d_24">
      <g>
       <use xlink:href="#m729429a529" x="644.538653" y="300.04" style="stroke: #000000; stroke-width: 0.8"/>
      </g>
     </g>
     <g id="text_25">
      <!-- 7 -->
      <g transform="translate(638.812403 320.717188) scale(0.18 -0.18)">
       <use xlink:href="#DejaVuSans-37"/>
      </g>
     </g>
    </g>
    <g id="xtick_19">
     <g id="line2d_25">
      <g>
       <use xlink:href="#m729429a529" x="676.791211" y="300.04" style="stroke: #000000; stroke-width: 0.8"/>
      </g>
     </g>
     <g id="text_26">
      <!-- 8 -->
      <g transform="translate(671.064961 320.717188) scale(0.18 -0.18)">
       <use xlink:href="#DejaVuSans-38"/>
      </g>
     </g>
    </g>
    <g id="xtick_20">
     <g id="line2d_26">
      <g>
       <use xlink:href="#m729429a529" x="709.04377" y="300.04" style="stroke: #000000; stroke-width: 0.8"/>
      </g>
     </g>
     <g id="text_27">
      <!-- 9 -->
      <g transform="translate(703.31752 320.717188) scale(0.18 -0.18)">
       <use xlink:href="#DejaVuSans-39"/>
      </g>
     </g>
    </g>
    <g id="text_28">
     <!-- Time (d) -->
     <g transform="translate(517.930694 345.177188) scale(0.22 -0.22)">
      <use xlink:href="#DejaVuSans-54"/>
      <use xlink:href="#DejaVuSans-69" x="57.958984"/>
      <use xlink:href="#DejaVuSans-6d" x="85.742188"/>
      <use xlink:href="#DejaVuSans-65" x="183.154297"/>
      <use xlink:href="#DejaVuSans-20" x="244.677734"/>
      <use xlink:href="#DejaVuSans-28" x="276.464844"/>
      <use xlink:href="#DejaVuSans-64" x="315.478516"/>
      <use xlink:href="#DejaVuSans-29" x="378.955078"/>
     </g>
    </g>
   </g>
   <g id="matplotlib.axis_4">
    <g id="ytick_6">
     <g id="line2d_27">
      <g>
       <use xlink:href="#m2bb517855f" x="415.545487" y="300.04" style="stroke: #000000; stroke-width: 0.8"/>
      </g>
     </g>
     <g id="text_29">
      <!-- 3 -->
      <g transform="translate(397.092987 306.878594) scale(0.18 -0.18)">
       <use xlink:href="#DejaVuSans-33"/>
      </g>
     </g>
    </g>
    <g id="ytick_7">
     <g id="line2d_28">
      <g>
       <use xlink:href="#m2bb517855f" x="415.545487" y="249.364444" style="stroke: #000000; stroke-width: 0.8"/>
      </g>
     </g>
     <g id="text_30">
      <!-- 4 -->
      <g transform="translate(397.092987 256.203038) scale(0.18 -0.18)">
       <use xlink:href="#DejaVuSans-34"/>
      </g>
     </g>
    </g>
    <g id="ytick_8">
     <g id="line2d_29">
      <g>
       <use xlink:href="#m2bb517855f" x="415.545487" y="198.688889" style="stroke: #000000; stroke-width: 0.8"/>
      </g>
     </g>
     <g id="text_31">
      <!-- 5 -->
      <g transform="translate(397.092987 205.527483) scale(0.18 -0.18)">
       <use xlink:href="#DejaVuSans-35"/>
      </g>
     </g>
    </g>
    <g id="ytick_9">
     <g id="line2d_30">
      <g>
       <use xlink:href="#m2bb517855f" x="415.545487" y="148.013333" style="stroke: #000000; stroke-width: 0.8"/>
      </g>
     </g>
     <g id="text_32">
      <!-- 6 -->
      <g transform="translate(397.092987 154.851927) scale(0.18 -0.18)">
       <use xlink:href="#DejaVuSans-36"/>
      </g>
     </g>
    </g>
    <g id="ytick_10">
     <g id="line2d_31">
      <g>
       <use xlink:href="#m2bb517855f" x="415.545487" y="97.337778" style="stroke: #000000; stroke-width: 0.8"/>
      </g>
     </g>
     <g id="text_33">
      <!-- 7 -->
      <g transform="translate(397.092987 104.176372) scale(0.18 -0.18)">
       <use xlink:href="#DejaVuSans-37"/>
      </g>
     </g>
    </g>
    <g id="text_34">
     <!-- CD8$^+$ T (log$_{10}$ cells) -->
     <g transform="translate(388.472987 296.46) rotate(-90) scale(0.22 -0.22)">
      <defs>
       <path id="DejaVuSans-43" d="M 4122 4306 
L 4122 3641 
Q 3803 3938 3442 4084 
Q 3081 4231 2675 4231 
Q 1875 4231 1450 3742 
Q 1025 3253 1025 2328 
Q 1025 1406 1450 917 
Q 1875 428 2675 428 
Q 3081 428 3442 575 
Q 3803 722 4122 1019 
L 4122 359 
Q 3791 134 3420 21 
Q 3050 -91 2638 -91 
Q 1578 -91 968 557 
Q 359 1206 359 2328 
Q 359 3453 968 4101 
Q 1578 4750 2638 4750 
Q 3056 4750 3426 4639 
Q 3797 4528 4122 4306 
z
" transform="scale(0.015625)"/>
       <path id="DejaVuSans-44" d="M 1259 4147 
L 1259 519 
L 2022 519 
Q 2988 519 3436 956 
Q 3884 1394 3884 2338 
Q 3884 3275 3436 3711 
Q 2988 4147 2022 4147 
L 1259 4147 
z
M 628 4666 
L 1925 4666 
Q 3281 4666 3915 4102 
Q 4550 3538 4550 2338 
Q 4550 1131 3912 565 
Q 3275 0 1925 0 
L 628 0 
L 628 4666 
z
" transform="scale(0.015625)"/>
       <path id="DejaVuSans-2b" d="M 2944 4013 
L 2944 2272 
L 4684 2272 
L 4684 1741 
L 2944 1741 
L 2944 0 
L 2419 0 
L 2419 1741 
L 678 1741 
L 678 2272 
L 2419 2272 
L 2419 4013 
L 2944 4013 
z
" transform="scale(0.015625)"/>
      </defs>
      <use xlink:href="#DejaVuSans-43" transform="translate(0 0.826562)"/>
      <use xlink:href="#DejaVuSans-44" transform="translate(69.824219 0.826562)"/>
      <use xlink:href="#DejaVuSans-38" transform="translate(146.826172 0.826562)"/>
      <use xlink:href="#DejaVuSans-2b" transform="translate(225.043945 39.107812) scale(0.7)"/>
      <use xlink:href="#DejaVuSans-20" transform="translate(300.068359 0.826562)"/>
      <use xlink:href="#DejaVuSans-54" transform="translate(331.855469 0.826562)"/>
      <use xlink:href="#DejaVuSans-20" transform="translate(392.939453 0.826562)"/>
      <use xlink:href="#DejaVuSans-28" transform="translate(424.726562 0.826562)"/>
      <use xlink:href="#DejaVuSans-6c" transform="translate(463.740234 0.826562)"/>
      <use xlink:href="#DejaVuSans-6f" transform="translate(491.523438 0.826562)"/>
      <use xlink:href="#DejaVuSans-67" transform="translate(552.705078 0.826562)"/>
      <use xlink:href="#DejaVuSans-31" transform="translate(617.138672 -15.579688) scale(0.7)"/>
      <use xlink:href="#DejaVuSans-30" transform="translate(661.674805 -15.579688) scale(0.7)"/>
      <use xlink:href="#DejaVuSans-20" transform="translate(708.945312 0.826562)"/>
      <use xlink:href="#DejaVuSans-63" transform="translate(740.732422 0.826562)"/>
      <use xlink:href="#DejaVuSans-65" transform="translate(795.712891 0.826562)"/>
      <use xlink:href="#DejaVuSans-6c" transform="translate(857.236328 0.826562)"/>
      <use xlink:href="#DejaVuSans-6c" transform="translate(885.019531 0.826562)"/>
      <use xlink:href="#DejaVuSans-73" transform="translate(912.802734 0.826562)"/>
      <use xlink:href="#DejaVuSans-29" transform="translate(964.902344 0.826562)"/>
     </g>
    </g>
   </g>
   <g id="patch_8">
    <path d="M 415.545487 300.04 
L 415.545487 72 
" style="fill: none; stroke: #000000; stroke-width: 0.8; stroke-linejoin: miter; stroke-linecap: square"/>
   </g>
   <g id="patch_9">
    <path d="M 712.269026 300.04 
L 712.269026 72 
" style="fill: none; stroke: #000000; stroke-width: 0.8; stroke-linejoin: miter; stroke-linecap: square"/>
   </g>
   <g id="patch_10">
    <path d="M 415.545487 300.04 
L 712.269026 300.04 
" style="fill: none; stroke: #000000; stroke-width: 0.8; stroke-linejoin: miter; stroke-linecap: square"/>
   </g>
   <g id="patch_11">
    <path d="M 415.545487 72 
L 712.269026 72 
" style="fill: none; stroke: #000000; stroke-width: 0.8; stroke-linejoin: miter; stroke-linecap: square"/>
   </g>
   <g id="PolyCollection_2">
    <defs>
     <path id="m2d8bc12ca6" d="M 418.770743 -163.20772 
L 418.770743 -163.20772 
L 418.771119 -163.20772 
L 418.774873 -163.20772 
L 418.812417 -163.20772 
L 419.045012 -163.20772 
L 419.189835 -163.20772 
L 419.768611 -163.20772 
L 420.118953 -163.20772 
L 421.239975 -163.20772 
L 421.703019 -163.20772 
L 422.798321 -163.20772 
L 423.349893 -163.20772 
L 424.469781 -163.20772 
L 425.091932 -163.20772 
L 426.208512 -163.20772 
L 426.888591 -163.20772 
L 428.006577 -163.20772 
L 428.731011 -163.20772 
L 429.844941 -163.20772 
L 430.602873 -163.20772 
L 431.712498 -163.20772 
L 432.494729 -163.20772 
L 433.714885 -163.20772 
L 434.481857 -163.20772 
L 435.537971 -163.20772 
L 436.336293 -163.20772 
L 437.489962 -163.20772 
L 438.284439 -163.20772 
L 439.369135 -163.20772 
L 440.186099 -163.20772 
L 441.368512 -163.20772 
L 442.19252 -163.207721 
L 443.340061 -163.207722 
L 444.195339 -163.207723 
L 445.432846 -163.207726 
L 446.282788 -163.207729 
L 447.346162 -163.207735 
L 448.161944 -163.207743 
L 448.984106 -163.207753 
L 449.649325 -163.207765 
L 450.321777 -163.207782 
L 450.904981 -163.207802 
L 451.488185 -163.207824 
L 452.071388 -163.207859 
L 452.654592 -163.207902 
L 453.252606 -163.207963 
L 453.936667 -163.208045 
L 455.495019 -163.208381 
L 456.266349 -163.208655 
L 457.807232 -163.209585 
L 458.709697 -163.21049 
L 460.647248 -163.214181 
L 461.669861 -163.217714 
L 463.69698 -163.231142 
L 464.909179 -163.245998 
L 467.471938 -163.310278 
L 468.911783 -163.380414 
L 472.137038 -163.747277 
L 473.903366 -164.076392 
L 477.128622 -165.33331 
L 479.430794 -166.773428 
L 482.65605 -169.703989 
L 485.881305 -173.944124 
L 489.106561 -178.979001 
L 492.331817 -184.516706 
L 495.557073 -190.096724 
L 498.425775 -194.862889 
L 500.748329 -198.528958 
L 503.143855 -201.995263 
L 505.539381 -205.140645 
L 507.934906 -207.978164 
L 510.111685 -210.2866 
L 512.288463 -212.358105 
L 514.981537 -214.616991 
L 517.674611 -216.533574 
L 520.899867 -218.404383 
L 524.125123 -219.880148 
L 527.350379 -220.994713 
L 530.575635 -221.785032 
L 533.80089 -221.986858 
L 537.026146 -221.491639 
L 540.251402 -220.898881 
L 543.476658 -220.225995 
L 546.701914 -219.488026 
L 549.92717 -218.697845 
L 553.152426 -217.866359 
L 555.926621 -217.123843 
L 558.810773 -216.333137 
L 561.694924 -215.527049 
L 564.579076 -214.709256 
L 567.463227 -213.882848 
L 570.347379 -213.050402 
L 573.23153 -212.214057 
L 576.115681 -211.375581 
L 578.999833 -210.536492 
L 581.883984 -209.698192 
L 584.768136 -208.861606 
L 587.695531 -208.014989 
L 590.759521 -207.132292 
L 593.984777 -206.207637 
L 597.210033 -205.288253 
L 600.435289 -204.374677 
L 603.660544 -203.467035 
L 606.8858 -202.566538 
L 610.111056 -201.672933 
L 613.336312 -200.786696 
L 616.561568 -199.908137 
L 619.786824 -199.03755 
L 623.012079 -198.175216 
L 626.237335 -197.321409 
L 629.462591 -196.476396 
L 632.687847 -195.640437 
L 635.913103 -194.81379 
L 639.138359 -193.996709 
L 642.363615 -193.189442 
L 645.58887 -192.392236 
L 648.814126 -191.605331 
L 652.039382 -190.828963 
L 655.264638 -190.063363 
L 658.489894 -189.308756 
L 661.71515 -188.565358 
L 664.940406 -187.833382 
L 668.165661 -187.113028 
L 671.390917 -186.404489 
L 674.616173 -185.707947 
L 677.841429 -185.023577 
L 681.066685 -184.351541 
L 684.291941 -183.691987 
L 687.517196 -183.045053 
L 690.742452 -182.410864 
L 693.967708 -181.789531 
L 697.192964 -181.181148 
L 700.41822 -180.5858 
L 703.643476 -180.003556 
L 706.868732 -179.434462 
L 709.04377 -179.056946 
L 709.04377 -181.754967 
L 709.04377 -181.754967 
L 706.868732 -182.172793 
L 703.643476 -182.802282 
L 700.41822 -183.444389 
L 697.192964 -184.099166 
L 693.967708 -184.766478 
L 690.742452 -185.446183 
L 687.517196 -186.138121 
L 684.291941 -186.842126 
L 681.066685 -187.558016 
L 677.841429 -188.285604 
L 674.616173 -189.024691 
L 671.390917 -189.775068 
L 668.165661 -190.536521 
L 664.940406 -191.308829 
L 661.71515 -192.091762 
L 658.489894 -192.885087 
L 655.264638 -193.688564 
L 652.039382 -194.501949 
L 648.814126 -195.324994 
L 645.58887 -196.157447 
L 642.363615 -196.999053 
L 639.138359 -197.84955 
L 635.913103 -198.708673 
L 632.687847 -199.576152 
L 629.462591 -200.451706 
L 626.237335 -201.335046 
L 623.012079 -202.225868 
L 619.786824 -203.123845 
L 616.561568 -204.028624 
L 613.336312 -204.939815 
L 610.111056 -205.856974 
L 606.8858 -206.779587 
L 603.660544 -207.707047 
L 600.435289 -208.638622 
L 597.210033 -209.573419 
L 593.984777 -210.510319 
L 590.759521 -211.448007 
L 587.695531 -212.338017 
L 584.768136 -213.185809 
L 581.883984 -214.016761 
L 578.999833 -214.841097 
L 576.115681 -215.656023 
L 573.23153 -216.458162 
L 570.347379 -217.243461 
L 567.463227 -218.00708 
L 564.579076 -218.743286 
L 561.694924 -219.445337 
L 558.810773 -220.105498 
L 555.926621 -220.712809 
L 553.152426 -221.245259 
L 549.92717 -221.773846 
L 546.701914 -222.192313 
L 543.476658 -222.4792 
L 540.251402 -222.610341 
L 537.026146 -222.631261 
L 533.80089 -222.68459 
L 530.575635 -222.673589 
L 527.350379 -222.665706 
L 524.125123 -222.674016 
L 520.899867 -222.551715 
L 517.674611 -222.20368 
L 514.981537 -221.714811 
L 512.288463 -221.005307 
L 510.111685 -220.278121 
L 507.934906 -219.400485 
L 505.539381 -218.240007 
L 503.143855 -216.83629 
L 500.748329 -215.172396 
L 498.425775 -213.31566 
L 495.557073 -210.640531 
L 492.331817 -207.098804 
L 489.106561 -203.007082 
L 485.881305 -198.281425 
L 482.65605 -193.075668 
L 479.430794 -187.476802 
L 477.128622 -183.356455 
L 473.903366 -177.714497 
L 472.137038 -174.926041 
L 468.911783 -170.347784 
L 467.471938 -168.740443 
L 464.909179 -166.348103 
L 463.69698 -165.590844 
L 461.669861 -164.667763 
L 460.647248 -164.26876 
L 458.709697 -163.746536 
L 457.807232 -163.624347 
L 456.266349 -163.425197 
L 455.495019 -163.371101 
L 453.936667 -163.2976 
L 453.252606 -163.270824 
L 452.654592 -163.252903 
L 452.071388 -163.241487 
L 451.488185 -163.233852 
L 450.904981 -163.227581 
L 450.321777 -163.22131 
L 449.649325 -163.216854 
L 448.984106 -163.213985 
L 448.161944 -163.21156 
L 447.346162 -163.209881 
L 446.282788 -163.208841 
L 445.432846 -163.208278 
L 444.195339 -163.207946 
L 443.340061 -163.207826 
L 442.19252 -163.20776 
L 441.368512 -163.20774 
L 440.186099 -163.207727 
L 439.369135 -163.207723 
L 438.284439 -163.207721 
L 437.489962 -163.20772 
L 436.336293 -163.20772 
L 435.537971 -163.20772 
L 434.481857 -163.20772 
L 433.714885 -163.20772 
L 432.494729 -163.20772 
L 431.712498 -163.20772 
L 430.602873 -163.20772 
L 429.844941 -163.20772 
L 428.731011 -163.20772 
L 428.006577 -163.20772 
L 426.888591 -163.20772 
L 426.208512 -163.20772 
L 425.091932 -163.20772 
L 424.469781 -163.20772 
L 423.349893 -163.20772 
L 422.798321 -163.20772 
L 421.703019 -163.20772 
L 421.239975 -163.20772 
L 420.118953 -163.20772 
L 419.768611 -163.20772 
L 419.189835 -163.20772 
L 419.045012 -163.20772 
L 418.812417 -163.20772 
L 418.774873 -163.20772 
L 418.771119 -163.20772 
L 418.770743 -163.20772 
z
" style="stroke: #ff00ff; stroke-opacity: 0.2"/>
    </defs>
    <g clip-path="url(#pc4f6f340fe)">
     <use xlink:href="#m2d8bc12ca6" x="0" y="360" style="fill: #ff00ff; fill-opacity: 0.2; stroke: #ff00ff; stroke-opacity: 0.2"/>
    </g>
   </g>
   <g id="PolyCollection_3">
    <defs>
     <path id="m7a27e827e1" d="M 418.770743 -108.316769 
L 418.770743 -108.316769 
L 418.771119 -108.316769 
L 418.774873 -108.316769 
L 418.812417 -108.316769 
L 419.045012 -108.316769 
L 419.189835 -108.316769 
L 419.768611 -108.316769 
L 420.118953 -108.316769 
L 421.239975 -108.316769 
L 421.703019 -108.316769 
L 422.798321 -108.316769 
L 423.349893 -108.316769 
L 424.469781 -108.316769 
L 425.091932 -108.316769 
L 426.208512 -108.316769 
L 426.888591 -108.316769 
L 428.006577 -108.316769 
L 428.731011 -108.316769 
L 429.844941 -108.316769 
L 430.602873 -108.316769 
L 431.712498 -108.316769 
L 432.494729 -108.316769 
L 433.714885 -108.316769 
L 434.481857 -108.316769 
L 435.537971 -108.316769 
L 436.336293 -108.316769 
L 437.489962 -108.316769 
L 438.284439 -108.316769 
L 439.369135 -108.316769 
L 440.186099 -108.316769 
L 441.368512 -108.316769 
L 442.19252 -108.316769 
L 443.340061 -108.316769 
L 444.195339 -108.316769 
L 445.432846 -108.316769 
L 446.282788 -108.316769 
L 447.346162 -108.316769 
L 448.161944 -108.316769 
L 448.984106 -108.316769 
L 449.649325 -108.316769 
L 450.321777 -108.316769 
L 450.904981 -108.316769 
L 451.488185 -108.316769 
L 452.071388 -108.316769 
L 452.654592 -108.316769 
L 453.252606 -108.316769 
L 453.936667 -108.316769 
L 455.495019 -108.316769 
L 456.266349 -108.316769 
L 457.807232 -108.316769 
L 458.709697 -108.316769 
L 460.647248 -108.316769 
L 461.669861 -108.316769 
L 463.69698 -108.316769 
L 464.909179 -108.316769 
L 467.471938 -108.316769 
L 468.911783 -108.316769 
L 472.137038 -108.316769 
L 473.903366 -108.316769 
L 477.128622 -108.316769 
L 479.430794 -108.316769 
L 482.65605 -108.316769 
L 485.881305 -108.316769 
L 489.106561 -108.31677 
L 492.331817 -108.316771 
L 495.557073 -108.316776 
L 498.425775 -108.316792 
L 500.748329 -108.316827 
L 503.143855 -108.316926 
L 505.539381 -108.3172 
L 507.934906 -108.317888 
L 510.111685 -108.319314 
L 512.288463 -108.3222 
L 514.981537 -108.329032 
L 517.674611 -108.34298 
L 520.899867 -108.377616 
L 524.125123 -108.44333 
L 527.350379 -108.558682 
L 530.575635 -108.745828 
L 533.80089 -109.0306 
L 537.026146 -109.434923 
L 540.251402 -109.976966 
L 543.476658 -110.666435 
L 546.701914 -111.502522 
L 549.92717 -112.474756 
L 553.152426 -113.563056 
L 555.926621 -114.576359 
L 558.810773 -115.675457 
L 561.694924 -116.808987 
L 564.579076 -117.956922 
L 567.463227 -119.10263 
L 570.347379 -120.23124 
L 573.23153 -121.331553 
L 576.115681 -122.395338 
L 578.999833 -123.417185 
L 581.883984 -124.392452 
L 584.768136 -125.319087 
L 587.695531 -126.20979 
L 590.759521 -127.086647 
L 593.984777 -127.95013 
L 597.210033 -128.757729 
L 600.435289 -129.511508 
L 603.660544 -130.214047 
L 606.8858 -130.868667 
L 610.111056 -131.478721 
L 613.336312 -132.047445 
L 616.561568 -132.577914 
L 619.786824 -133.073016 
L 623.012079 -133.535453 
L 626.237335 -133.967754 
L 629.462591 -134.372232 
L 632.687847 -134.750979 
L 635.913103 -135.105935 
L 639.138359 -135.438898 
L 642.363615 -135.751431 
L 645.58887 -136.045043 
L 648.814126 -136.321084 
L 652.039382 -136.580789 
L 655.264638 -136.825288 
L 658.489894 -137.055617 
L 661.71515 -137.272727 
L 664.940406 -137.477491 
L 668.165661 -137.670713 
L 671.390917 -137.853136 
L 674.616173 -138.025443 
L 677.841429 -138.188266 
L 681.066685 -138.342193 
L 684.291941 -138.487765 
L 687.517196 -138.625486 
L 690.742452 -138.755824 
L 693.967708 -138.879217 
L 697.192964 -138.996068 
L 700.41822 -139.106758 
L 703.643476 -139.211639 
L 706.868732 -139.311109 
L 709.04377 -139.375475 
L 709.04377 -139.754288 
L 709.04377 -139.754288 
L 706.868732 -139.703715 
L 703.643476 -139.62589 
L 700.41822 -139.543858 
L 697.192964 -139.457374 
L 693.967708 -139.366178 
L 690.742452 -139.269992 
L 687.517196 -139.16852 
L 684.291941 -139.061445 
L 681.066685 -138.948428 
L 677.841429 -138.829107 
L 674.616173 -138.703092 
L 671.390917 -138.569966 
L 668.165661 -138.429282 
L 664.940406 -138.280557 
L 661.71515 -138.123273 
L 658.489894 -137.956872 
L 655.264638 -137.780749 
L 652.039382 -137.594254 
L 648.814126 -137.396679 
L 645.58887 -137.187262 
L 642.363615 -136.965163 
L 639.138359 -136.729469 
L 635.913103 -136.479223 
L 632.687847 -136.213345 
L 629.462591 -135.930664 
L 626.237335 -135.6299 
L 623.012079 -135.309655 
L 619.786824 -134.968397 
L 616.561568 -134.604448 
L 613.336312 -134.215971 
L 610.111056 -133.800956 
L 606.8858 -133.357207 
L 603.660544 -132.883082 
L 600.435289 -132.372654 
L 597.210033 -131.827474 
L 593.984777 -131.242775 
L 590.759521 -130.615388 
L 587.695531 -129.977073 
L 584.768136 -129.326399 
L 581.883984 -128.644088 
L 578.999833 -127.918508 
L 576.115681 -127.145053 
L 573.23153 -126.320328 
L 570.347379 -125.446914 
L 567.463227 -124.524441 
L 564.579076 -123.553516 
L 561.694924 -122.535989 
L 558.810773 -121.475252 
L 555.926621 -120.376555 
L 553.152426 -119.291146 
L 549.92717 -118.00468 
L 546.701914 -116.712938 
L 543.476658 -115.43952 
L 540.251402 -114.211549 
L 537.026146 -113.057835 
L 533.80089 -112.007388 
L 530.575635 -111.084374 
L 527.350379 -110.305826 
L 524.125123 -109.679419 
L 520.899867 -109.201506 
L 517.674611 -108.857152 
L 514.981537 -108.657339 
L 512.288463 -108.523878 
L 510.111685 -108.447546 
L 507.934906 -108.394627 
L 505.539381 -108.357806 
L 503.143855 -108.337619 
L 500.748329 -108.326488 
L 498.425775 -108.320956 
L 495.557073 -108.3181 
L 492.331817 -108.31707 
L 489.106561 -108.316816 
L 485.881305 -108.316776 
L 482.65605 -108.31677 
L 479.430794 -108.316769 
L 477.128622 -108.316769 
L 473.903366 -108.316769 
L 472.137038 -108.316769 
L 468.911783 -108.316769 
L 467.471938 -108.316769 
L 464.909179 -108.316769 
L 463.69698 -108.316769 
L 461.669861 -108.316769 
L 460.647248 -108.316769 
L 458.709697 -108.316769 
L 457.807232 -108.316769 
L 456.266349 -108.316769 
L 455.495019 -108.316769 
L 453.936667 -108.316769 
L 453.252606 -108.316769 
L 452.654592 -108.316769 
L 452.071388 -108.316769 
L 451.488185 -108.316769 
L 450.904981 -108.316769 
L 450.321777 -108.316769 
L 449.649325 -108.316769 
L 448.984106 -108.316769 
L 448.161944 -108.316769 
L 447.346162 -108.316769 
L 446.282788 -108.316769 
L 445.432846 -108.316769 
L 444.195339 -108.316769 
L 443.340061 -108.316769 
L 442.19252 -108.316769 
L 441.368512 -108.316769 
L 440.186099 -108.316769 
L 439.369135 -108.316769 
L 438.284439 -108.316769 
L 437.489962 -108.316769 
L 436.336293 -108.316769 
L 435.537971 -108.316769 
L 434.481857 -108.316769 
L 433.714885 -108.316769 
L 432.494729 -108.316769 
L 431.712498 -108.316769 
L 430.602873 -108.316769 
L 429.844941 -108.316769 
L 428.731011 -108.316769 
L 428.006577 -108.316769 
L 426.888591 -108.316769 
L 426.208512 -108.316769 
L 425.091932 -108.316769 
L 424.469781 -108.316769 
L 423.349893 -108.316769 
L 422.798321 -108.316769 
L 421.703019 -108.316769 
L 421.239975 -108.316769 
L 420.118953 -108.316769 
L 419.768611 -108.316769 
L 419.189835 -108.316769 
L 419.045012 -108.316769 
L 418.812417 -108.316769 
L 418.774873 -108.316769 
L 418.771119 -108.316769 
L 418.770743 -108.316769 
z
" style="stroke: #ff00ff; stroke-opacity: 0.2"/>
    </defs>
    <g clip-path="url(#pc4f6f340fe)">
     <use xlink:href="#m7a27e827e1" x="0" y="360" style="fill: #ff00ff; fill-opacity: 0.2; stroke: #ff00ff; stroke-opacity: 0.2"/>
    </g>
   </g>
   <g id="line2d_32">
    <path d="M 418.770743 196.79228 
L 461.669861 196.729297 
L 464.909179 196.566534 
L 467.471938 196.243998 
L 468.911783 195.93679 
L 472.137038 194.706609 
L 473.903366 193.628465 
L 477.128622 190.709969 
L 479.430794 187.875628 
L 482.65605 183.006152 
L 495.557073 161.169723 
L 498.425775 157.060708 
L 500.748329 154.059882 
L 503.143855 151.27566 
L 505.539381 148.800732 
L 507.934906 146.622979 
L 510.111685 144.888481 
L 512.288463 143.373492 
L 514.981537 141.782775 
L 517.674611 140.480383 
L 520.899867 139.263974 
L 524.125123 138.381226 
L 527.350379 137.792277 
L 530.575635 137.46011 
L 533.80089 137.350684 
L 537.026146 137.432969 
L 540.251402 137.678906 
L 543.476658 138.063334 
L 549.92717 139.160848 
L 555.926621 140.470743 
L 564.579076 142.668833 
L 576.115681 145.894117 
L 619.786824 158.394409 
L 635.913103 162.742985 
L 652.039382 166.871523 
L 668.165661 170.748321 
L 681.066685 173.649175 
L 693.967708 176.358034 
L 709.04377 179.267314 
L 709.04377 179.267314 
" clip-path="url(#pc4f6f340fe)" style="fill: none; stroke: #ff00ff; stroke-width: 1.5; stroke-linecap: square"/>
   </g>
   <g id="line2d_33">
    <path d="M 418.770743 251.683231 
L 517.674611 251.59126 
L 524.125123 251.341548 
L 527.350379 251.09558 
L 530.575635 250.736181 
L 533.80089 250.242792 
L 537.026146 249.601889 
L 540.251402 248.810488 
L 543.476658 247.877352 
L 549.92717 245.662295 
L 558.810773 242.188754 
L 567.463227 238.795901 
L 573.23153 236.697265 
L 578.999833 234.782409 
L 584.768136 233.064763 
L 590.759521 231.484112 
L 597.210033 229.995633 
L 603.660544 228.703253 
L 610.111056 227.580436 
L 619.786824 226.161654 
L 629.462591 225.00072 
L 639.138359 224.043568 
L 652.039382 223.014355 
L 664.940406 222.202697 
L 681.066685 221.417125 
L 700.41822 220.720211 
L 709.04377 220.475078 
L 709.04377 220.475078 
" clip-path="url(#pc4f6f340fe)" style="fill: none; stroke-dasharray: 5.55,2.4; stroke-dashoffset: 0; stroke: #ff00ff; stroke-width: 1.5"/>
   </g>
  </g>
  <g id="text_35">
   <!-- Volunteer 3 -->
   <g transform="translate(290.98125 25.43625) scale(0.24 -0.24)">
    <defs>
     <path id="DejaVuSans-6e" d="M 3513 2113 
L 3513 0 
L 2938 0 
L 2938 2094 
Q 2938 2591 2744 2837 
Q 2550 3084 2163 3084 
Q 1697 3084 1428 2787 
Q 1159 2491 1159 1978 
L 1159 0 
L 581 0 
L 581 3500 
L 1159 3500 
L 1159 2956 
Q 1366 3272 1645 3428 
Q 1925 3584 2291 3584 
Q 2894 3584 3203 3211 
Q 3513 2838 3513 2113 
z
" transform="scale(0.015625)"/>
     <path id="DejaVuSans-74" d="M 1172 4494 
L 1172 3500 
L 2356 3500 
L 2356 3053 
L 1172 3053 
L 1172 1153 
Q 1172 725 1289 603 
Q 1406 481 1766 481 
L 2356 481 
L 2356 0 
L 1766 0 
Q 1100 0 847 248 
Q 594 497 594 1153 
L 594 3053 
L 172 3053 
L 172 3500 
L 594 3500 
L 594 4494 
L 1172 4494 
z
" transform="scale(0.015625)"/>
    </defs>
    <use xlink:href="#DejaVuSans-56"/>
    <use xlink:href="#DejaVuSans-6f" x="60.658203"/>
    <use xlink:href="#DejaVuSans-6c" x="121.839844"/>
    <use xlink:href="#DejaVuSans-75" x="149.623047"/>
    <use xlink:href="#DejaVuSans-6e" x="213.001953"/>
    <use xlink:href="#DejaVuSans-74" x="276.380859"/>
    <use xlink:href="#DejaVuSans-65" x="315.589844"/>
    <use xlink:href="#DejaVuSans-65" x="377.113281"/>
    <use xlink:href="#DejaVuSans-72" x="438.636719"/>
    <use xlink:href="#DejaVuSans-20" x="479.75"/>
    <use xlink:href="#DejaVuSans-33" x="511.537109"/>
   </g>
  </g>
 </g>
 <defs>
  <clipPath id="p033eaa3719">
   <rect x="57.08" y="72" width="296.723538" height="228.04"/>
  </clipPath>
  <clipPath id="pc4f6f340fe">
   <rect x="415.545487" y="72" width="296.723538" height="228.04"/>
  </clipPath>
 </defs>
</svg>
