<?xml version="1.0" encoding="utf-8" standalone="no"?>
<!DOCTYPE svg PUBLIC "-//W3C//DTD SVG 1.1//EN"
  "http://www.w3.org/Graphics/SVG/1.1/DTD/svg11.dtd">
<svg xmlns:xlink="http://www.w3.org/1999/xlink" width="1440pt" height="360pt" viewBox="0 0 1440 360" xmlns="http://www.w3.org/2000/svg" version="1.1">
 <metadata>
  <rdf:RDF xmlns:dc="http://purl.org/dc/elements/1.1/" xmlns:cc="http://creativecommons.org/ns#" xmlns:rdf="http://www.w3.org/1999/02/22-rdf-syntax-ns#">
   <cc:Work>
    <dc:type rdf:resource="http://purl.org/dc/dcmitype/StillImage"/>
    <dc:date>2025-01-13T12:07:20.367487</dc:date>
    <dc:format>image/svg+xml</dc:format>
    <dc:creator>
     <cc:Agent>
      <dc:title>Matplotlib v3.9.2, https://matplotlib.org/</dc:title>
     </cc:Agent>
    </dc:creator>
   </cc:Work>
  </rdf:RDF>
 </metadata>
 <defs>
  <style type="text/css">*{stroke-linejoin: round; stroke-linecap: butt}</style>
 </defs>
 <g id="figure_1">
  <g id="patch_1">
   <path d="M 0 360 
L 1440 360 
L 1440 0 
L 0 0 
z
" style="fill: #ffffff"/>
  </g>
  <g id="axes_1">
   <g id="patch_2">
    <path d="M 59.96 297.16 
L 340.759322 297.16 
L 340.759322 36 
L 59.96 36 
z
" style="fill: #ffffff"/>
   </g>
   <g id="matplotlib.axis_1">
    <g id="xtick_1">
     <g id="line2d_1">
      <defs>
       <path id="mc60e34997d" d="M 0 0 
L 0 3.5 
" style="stroke: #000000; stroke-width: 0.8"/>
      </defs>
      <g>
       <use xlink:href="#mc60e34997d" x="63.384382" y="297.16" style="stroke: #000000; stroke-width: 0.8"/>
      </g>
     </g>
     <g id="text_1">
      <!-- 0 -->
      <g transform="translate(57.658132 317.837188) scale(0.18 -0.18)">
       <defs>
        <path id="DejaVuSans-30" d="M 2034 4250 
Q 1547 4250 1301 3770 
Q 1056 3291 1056 2328 
Q 1056 1369 1301 889 
Q 1547 409 2034 409 
Q 2525 409 2770 889 
Q 3016 1369 3016 2328 
Q 3016 3291 2770 3770 
Q 2525 4250 2034 4250 
z
M 2034 4750 
Q 2819 4750 3233 4129 
Q 3647 3509 3647 2328 
Q 3647 1150 3233 529 
Q 2819 -91 2034 -91 
Q 1250 -91 836 529 
Q 422 1150 422 2328 
Q 422 3509 836 4129 
Q 1250 4750 2034 4750 
z
" transform="scale(0.015625)"/>
       </defs>
       <use xlink:href="#DejaVuSans-30"/>
      </g>
     </g>
    </g>
    <g id="xtick_2">
     <g id="line2d_2">
      <g>
       <use xlink:href="#mc60e34997d" x="97.628202" y="297.16" style="stroke: #000000; stroke-width: 0.8"/>
      </g>
     </g>
     <g id="text_2">
      <!-- 1 -->
      <g transform="translate(91.901952 317.837188) scale(0.18 -0.18)">
       <defs>
        <path id="DejaVuSans-31" d="M 794 531 
L 1825 531 
L 1825 4091 
L 703 3866 
L 703 4441 
L 1819 4666 
L 2450 4666 
L 2450 531 
L 3481 531 
L 3481 0 
L 794 0 
L 794 531 
z
" transform="scale(0.015625)"/>
       </defs>
       <use xlink:href="#DejaVuSans-31"/>
      </g>
     </g>
    </g>
    <g id="xtick_3">
     <g id="line2d_3">
      <g>
       <use xlink:href="#mc60e34997d" x="131.872021" y="297.16" style="stroke: #000000; stroke-width: 0.8"/>
      </g>
     </g>
     <g id="text_3">
      <!-- 2 -->
      <g transform="translate(126.145771 317.837188) scale(0.18 -0.18)">
       <defs>
        <path id="DejaVuSans-32" d="M 1228 531 
L 3431 531 
L 3431 0 
L 469 0 
L 469 531 
Q 828 903 1448 1529 
Q 2069 2156 2228 2338 
Q 2531 2678 2651 2914 
Q 2772 3150 2772 3378 
Q 2772 3750 2511 3984 
Q 2250 4219 1831 4219 
Q 1534 4219 1204 4116 
Q 875 4013 500 3803 
L 500 4441 
Q 881 4594 1212 4672 
Q 1544 4750 1819 4750 
Q 2544 4750 2975 4387 
Q 3406 4025 3406 3419 
Q 3406 3131 3298 2873 
Q 3191 2616 2906 2266 
Q 2828 2175 2409 1742 
Q 1991 1309 1228 531 
z
" transform="scale(0.015625)"/>
       </defs>
       <use xlink:href="#DejaVuSans-32"/>
      </g>
     </g>
    </g>
    <g id="xtick_4">
     <g id="line2d_4">
      <g>
       <use xlink:href="#mc60e34997d" x="166.115841" y="297.16" style="stroke: #000000; stroke-width: 0.8"/>
      </g>
     </g>
     <g id="text_4">
      <!-- 3 -->
      <g transform="translate(160.389591 317.837188) scale(0.18 -0.18)">
       <defs>
        <path id="DejaVuSans-33" d="M 2597 2516 
Q 3050 2419 3304 2112 
Q 3559 1806 3559 1356 
Q 3559 666 3084 287 
Q 2609 -91 1734 -91 
Q 1441 -91 1130 -33 
Q 819 25 488 141 
L 488 750 
Q 750 597 1062 519 
Q 1375 441 1716 441 
Q 2309 441 2620 675 
Q 2931 909 2931 1356 
Q 2931 1769 2642 2001 
Q 2353 2234 1838 2234 
L 1294 2234 
L 1294 2753 
L 1863 2753 
Q 2328 2753 2575 2939 
Q 2822 3125 2822 3475 
Q 2822 3834 2567 4026 
Q 2313 4219 1838 4219 
Q 1578 4219 1281 4162 
Q 984 4106 628 3988 
L 628 4550 
Q 988 4650 1302 4700 
Q 1616 4750 1894 4750 
Q 2613 4750 3031 4423 
Q 3450 4097 3450 3541 
Q 3450 3153 3228 2886 
Q 3006 2619 2597 2516 
z
" transform="scale(0.015625)"/>
       </defs>
       <use xlink:href="#DejaVuSans-33"/>
      </g>
     </g>
    </g>
    <g id="xtick_5">
     <g id="line2d_5">
      <g>
       <use xlink:href="#mc60e34997d" x="200.359661" y="297.16" style="stroke: #000000; stroke-width: 0.8"/>
      </g>
     </g>
     <g id="text_5">
      <!-- 4 -->
      <g transform="translate(194.633411 317.837188) scale(0.18 -0.18)">
       <defs>
        <path id="DejaVuSans-34" d="M 2419 4116 
L 825 1625 
L 2419 1625 
L 2419 4116 
z
M 2253 4666 
L 3047 4666 
L 3047 1625 
L 3713 1625 
L 3713 1100 
L 3047 1100 
L 3047 0 
L 2419 0 
L 2419 1100 
L 313 1100 
L 313 1709 
L 2253 4666 
z
" transform="scale(0.015625)"/>
       </defs>
       <use xlink:href="#DejaVuSans-34"/>
      </g>
     </g>
    </g>
    <g id="xtick_6">
     <g id="line2d_6">
      <g>
       <use xlink:href="#mc60e34997d" x="234.603481" y="297.16" style="stroke: #000000; stroke-width: 0.8"/>
      </g>
     </g>
     <g id="text_6">
      <!-- 5 -->
      <g transform="translate(228.877231 317.837188) scale(0.18 -0.18)">
       <defs>
        <path id="DejaVuSans-35" d="M 691 4666 
L 3169 4666 
L 3169 4134 
L 1269 4134 
L 1269 2991 
Q 1406 3038 1543 3061 
Q 1681 3084 1819 3084 
Q 2600 3084 3056 2656 
Q 3513 2228 3513 1497 
Q 3513 744 3044 326 
Q 2575 -91 1722 -91 
Q 1428 -91 1123 -41 
Q 819 9 494 109 
L 494 744 
Q 775 591 1075 516 
Q 1375 441 1709 441 
Q 2250 441 2565 725 
Q 2881 1009 2881 1497 
Q 2881 1984 2565 2268 
Q 2250 2553 1709 2553 
Q 1456 2553 1204 2497 
Q 953 2441 691 2322 
L 691 4666 
z
" transform="scale(0.015625)"/>
       </defs>
       <use xlink:href="#DejaVuSans-35"/>
      </g>
     </g>
    </g>
    <g id="xtick_7">
     <g id="line2d_7">
      <g>
       <use xlink:href="#mc60e34997d" x="268.8473" y="297.16" style="stroke: #000000; stroke-width: 0.8"/>
      </g>
     </g>
     <g id="text_7">
      <!-- 6 -->
      <g transform="translate(263.12105 317.837188) scale(0.18 -0.18)">
       <defs>
        <path id="DejaVuSans-36" d="M 2113 2584 
Q 1688 2584 1439 2293 
Q 1191 2003 1191 1497 
Q 1191 994 1439 701 
Q 1688 409 2113 409 
Q 2538 409 2786 701 
Q 3034 994 3034 1497 
Q 3034 2003 2786 2293 
Q 2538 2584 2113 2584 
z
M 3366 4563 
L 3366 3988 
Q 3128 4100 2886 4159 
Q 2644 4219 2406 4219 
Q 1781 4219 1451 3797 
Q 1122 3375 1075 2522 
Q 1259 2794 1537 2939 
Q 1816 3084 2150 3084 
Q 2853 3084 3261 2657 
Q 3669 2231 3669 1497 
Q 3669 778 3244 343 
Q 2819 -91 2113 -91 
Q 1303 -91 875 529 
Q 447 1150 447 2328 
Q 447 3434 972 4092 
Q 1497 4750 2381 4750 
Q 2619 4750 2861 4703 
Q 3103 4656 3366 4563 
z
" transform="scale(0.015625)"/>
       </defs>
       <use xlink:href="#DejaVuSans-36"/>
      </g>
     </g>
    </g>
    <g id="xtick_8">
     <g id="line2d_8">
      <g>
       <use xlink:href="#mc60e34997d" x="303.09112" y="297.16" style="stroke: #000000; stroke-width: 0.8"/>
      </g>
     </g>
     <g id="text_8">
      <!-- 7 -->
      <g transform="translate(297.36487 317.837188) scale(0.18 -0.18)">
       <defs>
        <path id="DejaVuSans-37" d="M 525 4666 
L 3525 4666 
L 3525 4397 
L 1831 0 
L 1172 0 
L 2766 4134 
L 525 4134 
L 525 4666 
z
" transform="scale(0.015625)"/>
       </defs>
       <use xlink:href="#DejaVuSans-37"/>
      </g>
     </g>
    </g>
    <g id="xtick_9">
     <g id="line2d_9">
      <g>
       <use xlink:href="#mc60e34997d" x="337.33494" y="297.16" style="stroke: #000000; stroke-width: 0.8"/>
      </g>
     </g>
     <g id="text_9">
      <!-- 8 -->
      <g transform="translate(331.60869 317.837188) scale(0.18 -0.18)">
       <defs>
        <path id="DejaVuSans-38" d="M 2034 2216 
Q 1584 2216 1326 1975 
Q 1069 1734 1069 1313 
Q 1069 891 1326 650 
Q 1584 409 2034 409 
Q 2484 409 2743 651 
Q 3003 894 3003 1313 
Q 3003 1734 2745 1975 
Q 2488 2216 2034 2216 
z
M 1403 2484 
Q 997 2584 770 2862 
Q 544 3141 544 3541 
Q 544 4100 942 4425 
Q 1341 4750 2034 4750 
Q 2731 4750 3128 4425 
Q 3525 4100 3525 3541 
Q 3525 3141 3298 2862 
Q 3072 2584 2669 2484 
Q 3125 2378 3379 2068 
Q 3634 1759 3634 1313 
Q 3634 634 3220 271 
Q 2806 -91 2034 -91 
Q 1263 -91 848 271 
Q 434 634 434 1313 
Q 434 1759 690 2068 
Q 947 2378 1403 2484 
z
M 1172 3481 
Q 1172 3119 1398 2916 
Q 1625 2713 2034 2713 
Q 2441 2713 2670 2916 
Q 2900 3119 2900 3481 
Q 2900 3844 2670 4047 
Q 2441 4250 2034 4250 
Q 1625 4250 1398 4047 
Q 1172 3844 1172 3481 
z
" transform="scale(0.015625)"/>
       </defs>
       <use xlink:href="#DejaVuSans-38"/>
      </g>
     </g>
    </g>
    <g id="text_10">
     <!-- Time (d) -->
     <g transform="translate(150.203411 343.816875) scale(0.24 -0.24)">
      <defs>
       <path id="DejaVuSans-54" d="M -19 4666 
L 3928 4666 
L 3928 4134 
L 2272 4134 
L 2272 0 
L 1638 0 
L 1638 4134 
L -19 4134 
L -19 4666 
z
" transform="scale(0.015625)"/>
       <path id="DejaVuSans-69" d="M 603 3500 
L 1178 3500 
L 1178 0 
L 603 0 
L 603 3500 
z
M 603 4863 
L 1178 4863 
L 1178 4134 
L 603 4134 
L 603 4863 
z
" transform="scale(0.015625)"/>
       <path id="DejaVuSans-6d" d="M 3328 2828 
Q 3544 3216 3844 3400 
Q 4144 3584 4550 3584 
Q 5097 3584 5394 3201 
Q 5691 2819 5691 2113 
L 5691 0 
L 5113 0 
L 5113 2094 
Q 5113 2597 4934 2840 
Q 4756 3084 4391 3084 
Q 3944 3084 3684 2787 
Q 3425 2491 3425 1978 
L 3425 0 
L 2847 0 
L 2847 2094 
Q 2847 2600 2669 2842 
Q 2491 3084 2119 3084 
Q 1678 3084 1418 2786 
Q 1159 2488 1159 1978 
L 1159 0 
L 581 0 
L 581 3500 
L 1159 3500 
L 1159 2956 
Q 1356 3278 1631 3431 
Q 1906 3584 2284 3584 
Q 2666 3584 2933 3390 
Q 3200 3197 3328 2828 
z
" transform="scale(0.015625)"/>
       <path id="DejaVuSans-65" d="M 3597 1894 
L 3597 1613 
L 953 1613 
Q 991 1019 1311 708 
Q 1631 397 2203 397 
Q 2534 397 2845 478 
Q 3156 559 3463 722 
L 3463 178 
Q 3153 47 2828 -22 
Q 2503 -91 2169 -91 
Q 1331 -91 842 396 
Q 353 884 353 1716 
Q 353 2575 817 3079 
Q 1281 3584 2069 3584 
Q 2775 3584 3186 3129 
Q 3597 2675 3597 1894 
z
M 3022 2063 
Q 3016 2534 2758 2815 
Q 2500 3097 2075 3097 
Q 1594 3097 1305 2825 
Q 1016 2553 972 2059 
L 3022 2063 
z
" transform="scale(0.015625)"/>
       <path id="DejaVuSans-20" transform="scale(0.015625)"/>
       <path id="DejaVuSans-28" d="M 1984 4856 
Q 1566 4138 1362 3434 
Q 1159 2731 1159 2009 
Q 1159 1288 1364 580 
Q 1569 -128 1984 -844 
L 1484 -844 
Q 1016 -109 783 600 
Q 550 1309 550 2009 
Q 550 2706 781 3412 
Q 1013 4119 1484 4856 
L 1984 4856 
z
" transform="scale(0.015625)"/>
       <path id="DejaVuSans-64" d="M 2906 2969 
L 2906 4863 
L 3481 4863 
L 3481 0 
L 2906 0 
L 2906 525 
Q 2725 213 2448 61 
Q 2172 -91 1784 -91 
Q 1150 -91 751 415 
Q 353 922 353 1747 
Q 353 2572 751 3078 
Q 1150 3584 1784 3584 
Q 2172 3584 2448 3432 
Q 2725 3281 2906 2969 
z
M 947 1747 
Q 947 1113 1208 752 
Q 1469 391 1925 391 
Q 2381 391 2643 752 
Q 2906 1113 2906 1747 
Q 2906 2381 2643 2742 
Q 2381 3103 1925 3103 
Q 1469 3103 1208 2742 
Q 947 2381 947 1747 
z
" transform="scale(0.015625)"/>
       <path id="DejaVuSans-29" d="M 513 4856 
L 1013 4856 
Q 1481 4119 1714 3412 
Q 1947 2706 1947 2009 
Q 1947 1309 1714 600 
Q 1481 -109 1013 -844 
L 513 -844 
Q 928 -128 1133 580 
Q 1338 1288 1338 2009 
Q 1338 2731 1133 3434 
Q 928 4138 513 4856 
z
" transform="scale(0.015625)"/>
      </defs>
      <use xlink:href="#DejaVuSans-54"/>
      <use xlink:href="#DejaVuSans-69" x="57.958984"/>
      <use xlink:href="#DejaVuSans-6d" x="85.742188"/>
      <use xlink:href="#DejaVuSans-65" x="183.154297"/>
      <use xlink:href="#DejaVuSans-20" x="244.677734"/>
      <use xlink:href="#DejaVuSans-28" x="276.464844"/>
      <use xlink:href="#DejaVuSans-64" x="315.478516"/>
      <use xlink:href="#DejaVuSans-29" x="378.955078"/>
     </g>
    </g>
   </g>
   <g id="matplotlib.axis_2">
    <g id="ytick_1">
     <g id="line2d_10">
      <defs>
       <path id="m61caf0b8c9" d="M 0 0 
L -3.5 0 
" style="stroke: #000000; stroke-width: 0.8"/>
      </defs>
      <g>
       <use xlink:href="#m61caf0b8c9" x="59.96" y="297.16" style="stroke: #000000; stroke-width: 0.8"/>
      </g>
     </g>
     <g id="text_11">
      <!-- 0 -->
      <g transform="translate(41.5075 303.998594) scale(0.18 -0.18)">
       <use xlink:href="#DejaVuSans-30"/>
      </g>
     </g>
    </g>
    <g id="ytick_2">
     <g id="line2d_11">
      <g>
       <use xlink:href="#m61caf0b8c9" x="59.96" y="233.848485" style="stroke: #000000; stroke-width: 0.8"/>
      </g>
     </g>
     <g id="text_12">
      <!-- 2 -->
      <g transform="translate(41.5075 240.687079) scale(0.18 -0.18)">
       <use xlink:href="#DejaVuSans-32"/>
      </g>
     </g>
    </g>
    <g id="ytick_3">
     <g id="line2d_12">
      <g>
       <use xlink:href="#m61caf0b8c9" x="59.96" y="170.53697" style="stroke: #000000; stroke-width: 0.8"/>
      </g>
     </g>
     <g id="text_13">
      <!-- 4 -->
      <g transform="translate(41.5075 177.375563) scale(0.18 -0.18)">
       <use xlink:href="#DejaVuSans-34"/>
      </g>
     </g>
    </g>
    <g id="ytick_4">
     <g id="line2d_13">
      <g>
       <use xlink:href="#m61caf0b8c9" x="59.96" y="107.225455" style="stroke: #000000; stroke-width: 0.8"/>
      </g>
     </g>
     <g id="text_14">
      <!-- 6 -->
      <g transform="translate(41.5075 114.064048) scale(0.18 -0.18)">
       <use xlink:href="#DejaVuSans-36"/>
      </g>
     </g>
    </g>
    <g id="ytick_5">
     <g id="line2d_14">
      <g>
       <use xlink:href="#m61caf0b8c9" x="59.96" y="43.913939" style="stroke: #000000; stroke-width: 0.8"/>
      </g>
     </g>
     <g id="text_15">
      <!-- 8 -->
      <g transform="translate(41.5075 50.752533) scale(0.18 -0.18)">
       <use xlink:href="#DejaVuSans-38"/>
      </g>
     </g>
    </g>
    <g id="text_16">
     <!-- Virus (log$_{10}$ copies/mL) -->
     <g transform="translate(32.4675 304.34) rotate(-90) scale(0.24 -0.24)">
      <defs>
       <path id="DejaVuSans-56" d="M 1831 0 
L 50 4666 
L 709 4666 
L 2188 738 
L 3669 4666 
L 4325 4666 
L 2547 0 
L 1831 0 
z
" transform="scale(0.015625)"/>
       <path id="DejaVuSans-72" d="M 2631 2963 
Q 2534 3019 2420 3045 
Q 2306 3072 2169 3072 
Q 1681 3072 1420 2755 
Q 1159 2438 1159 1844 
L 1159 0 
L 581 0 
L 581 3500 
L 1159 3500 
L 1159 2956 
Q 1341 3275 1631 3429 
Q 1922 3584 2338 3584 
Q 2397 3584 2469 3576 
Q 2541 3569 2628 3553 
L 2631 2963 
z
" transform="scale(0.015625)"/>
       <path id="DejaVuSans-75" d="M 544 1381 
L 544 3500 
L 1119 3500 
L 1119 1403 
Q 1119 906 1312 657 
Q 1506 409 1894 409 
Q 2359 409 2629 706 
Q 2900 1003 2900 1516 
L 2900 3500 
L 3475 3500 
L 3475 0 
L 2900 0 
L 2900 538 
Q 2691 219 2414 64 
Q 2138 -91 1772 -91 
Q 1169 -91 856 284 
Q 544 659 544 1381 
z
M 1991 3584 
L 1991 3584 
z
" transform="scale(0.015625)"/>
       <path id="DejaVuSans-73" d="M 2834 3397 
L 2834 2853 
Q 2591 2978 2328 3040 
Q 2066 3103 1784 3103 
Q 1356 3103 1142 2972 
Q 928 2841 928 2578 
Q 928 2378 1081 2264 
Q 1234 2150 1697 2047 
L 1894 2003 
Q 2506 1872 2764 1633 
Q 3022 1394 3022 966 
Q 3022 478 2636 193 
Q 2250 -91 1575 -91 
Q 1294 -91 989 -36 
Q 684 19 347 128 
L 347 722 
Q 666 556 975 473 
Q 1284 391 1588 391 
Q 1994 391 2212 530 
Q 2431 669 2431 922 
Q 2431 1156 2273 1281 
Q 2116 1406 1581 1522 
L 1381 1569 
Q 847 1681 609 1914 
Q 372 2147 372 2553 
Q 372 3047 722 3315 
Q 1072 3584 1716 3584 
Q 2034 3584 2315 3537 
Q 2597 3491 2834 3397 
z
" transform="scale(0.015625)"/>
       <path id="DejaVuSans-6c" d="M 603 4863 
L 1178 4863 
L 1178 0 
L 603 0 
L 603 4863 
z
" transform="scale(0.015625)"/>
       <path id="DejaVuSans-6f" d="M 1959 3097 
Q 1497 3097 1228 2736 
Q 959 2375 959 1747 
Q 959 1119 1226 758 
Q 1494 397 1959 397 
Q 2419 397 2687 759 
Q 2956 1122 2956 1747 
Q 2956 2369 2687 2733 
Q 2419 3097 1959 3097 
z
M 1959 3584 
Q 2709 3584 3137 3096 
Q 3566 2609 3566 1747 
Q 3566 888 3137 398 
Q 2709 -91 1959 -91 
Q 1206 -91 779 398 
Q 353 888 353 1747 
Q 353 2609 779 3096 
Q 1206 3584 1959 3584 
z
" transform="scale(0.015625)"/>
       <path id="DejaVuSans-67" d="M 2906 1791 
Q 2906 2416 2648 2759 
Q 2391 3103 1925 3103 
Q 1463 3103 1205 2759 
Q 947 2416 947 1791 
Q 947 1169 1205 825 
Q 1463 481 1925 481 
Q 2391 481 2648 825 
Q 2906 1169 2906 1791 
z
M 3481 434 
Q 3481 -459 3084 -895 
Q 2688 -1331 1869 -1331 
Q 1566 -1331 1297 -1286 
Q 1028 -1241 775 -1147 
L 775 -588 
Q 1028 -725 1275 -790 
Q 1522 -856 1778 -856 
Q 2344 -856 2625 -561 
Q 2906 -266 2906 331 
L 2906 616 
Q 2728 306 2450 153 
Q 2172 0 1784 0 
Q 1141 0 747 490 
Q 353 981 353 1791 
Q 353 2603 747 3093 
Q 1141 3584 1784 3584 
Q 2172 3584 2450 3431 
Q 2728 3278 2906 2969 
L 2906 3500 
L 3481 3500 
L 3481 434 
z
" transform="scale(0.015625)"/>
       <path id="DejaVuSans-63" d="M 3122 3366 
L 3122 2828 
Q 2878 2963 2633 3030 
Q 2388 3097 2138 3097 
Q 1578 3097 1268 2742 
Q 959 2388 959 1747 
Q 959 1106 1268 751 
Q 1578 397 2138 397 
Q 2388 397 2633 464 
Q 2878 531 3122 666 
L 3122 134 
Q 2881 22 2623 -34 
Q 2366 -91 2075 -91 
Q 1284 -91 818 406 
Q 353 903 353 1747 
Q 353 2603 823 3093 
Q 1294 3584 2113 3584 
Q 2378 3584 2631 3529 
Q 2884 3475 3122 3366 
z
" transform="scale(0.015625)"/>
       <path id="DejaVuSans-70" d="M 1159 525 
L 1159 -1331 
L 581 -1331 
L 581 3500 
L 1159 3500 
L 1159 2969 
Q 1341 3281 1617 3432 
Q 1894 3584 2278 3584 
Q 2916 3584 3314 3078 
Q 3713 2572 3713 1747 
Q 3713 922 3314 415 
Q 2916 -91 2278 -91 
Q 1894 -91 1617 61 
Q 1341 213 1159 525 
z
M 3116 1747 
Q 3116 2381 2855 2742 
Q 2594 3103 2138 3103 
Q 1681 3103 1420 2742 
Q 1159 2381 1159 1747 
Q 1159 1113 1420 752 
Q 1681 391 2138 391 
Q 2594 391 2855 752 
Q 3116 1113 3116 1747 
z
" transform="scale(0.015625)"/>
       <path id="DejaVuSans-2f" d="M 1625 4666 
L 2156 4666 
L 531 -594 
L 0 -594 
L 1625 4666 
z
" transform="scale(0.015625)"/>
       <path id="DejaVuSans-4c" d="M 628 4666 
L 1259 4666 
L 1259 531 
L 3531 531 
L 3531 0 
L 628 0 
L 628 4666 
z
" transform="scale(0.015625)"/>
      </defs>
      <use xlink:href="#DejaVuSans-56" transform="translate(0 0.015625)"/>
      <use xlink:href="#DejaVuSans-69" transform="translate(68.408203 0.015625)"/>
      <use xlink:href="#DejaVuSans-72" transform="translate(96.191406 0.015625)"/>
      <use xlink:href="#DejaVuSans-75" transform="translate(137.304688 0.015625)"/>
      <use xlink:href="#DejaVuSans-73" transform="translate(200.683594 0.015625)"/>
      <use xlink:href="#DejaVuSans-20" transform="translate(252.783203 0.015625)"/>
      <use xlink:href="#DejaVuSans-28" transform="translate(284.570312 0.015625)"/>
      <use xlink:href="#DejaVuSans-6c" transform="translate(323.583984 0.015625)"/>
      <use xlink:href="#DejaVuSans-6f" transform="translate(351.367188 0.015625)"/>
      <use xlink:href="#DejaVuSans-67" transform="translate(412.548828 0.015625)"/>
      <use xlink:href="#DejaVuSans-31" transform="translate(476.982422 -16.390625) scale(0.7)"/>
      <use xlink:href="#DejaVuSans-30" transform="translate(521.518555 -16.390625) scale(0.7)"/>
      <use xlink:href="#DejaVuSans-20" transform="translate(568.789062 0.015625)"/>
      <use xlink:href="#DejaVuSans-63" transform="translate(600.576172 0.015625)"/>
      <use xlink:href="#DejaVuSans-6f" transform="translate(655.556641 0.015625)"/>
      <use xlink:href="#DejaVuSans-70" transform="translate(716.738281 0.015625)"/>
      <use xlink:href="#DejaVuSans-69" transform="translate(780.214844 0.015625)"/>
      <use xlink:href="#DejaVuSans-65" transform="translate(807.998047 0.015625)"/>
      <use xlink:href="#DejaVuSans-73" transform="translate(869.521484 0.015625)"/>
      <use xlink:href="#DejaVuSans-2f" transform="translate(921.621094 0.015625)"/>
      <use xlink:href="#DejaVuSans-6d" transform="translate(955.3125 0.015625)"/>
      <use xlink:href="#DejaVuSans-4c" transform="translate(1052.724609 0.015625)"/>
      <use xlink:href="#DejaVuSans-29" transform="translate(1108.4375 0.015625)"/>
     </g>
    </g>
   </g>
   <g id="patch_3">
    <path d="M 59.96 297.16 
L 59.96 36 
" style="fill: none; stroke: #000000; stroke-width: 0.8; stroke-linejoin: miter; stroke-linecap: square"/>
   </g>
   <g id="patch_4">
    <path d="M 340.759322 297.16 
L 340.759322 36 
" style="fill: none; stroke: #000000; stroke-width: 0.8; stroke-linejoin: miter; stroke-linecap: square"/>
   </g>
   <g id="patch_5">
    <path d="M 59.96 297.16 
L 340.759322 297.16 
" style="fill: none; stroke: #000000; stroke-width: 0.8; stroke-linejoin: miter; stroke-linecap: square"/>
   </g>
   <g id="patch_6">
    <path d="M 59.96 36 
L 340.759322 36 
" style="fill: none; stroke: #000000; stroke-width: 0.8; stroke-linejoin: miter; stroke-linecap: square"/>
   </g>
   <g id="PolyCollection_1">
    <defs>
     <path id="m99c3a9cafb" d="M 63.384382 -62.84 
L 63.384382 -62.84 
L 63.384831 -62.84 
L 63.389327 -62.84 
L 63.434278 -62.84 
L 63.655245 -62.84 
L 63.796837 -62.84 
L 64.327808 -62.84 
L 64.64519 -62.84 
L 65.728677 -75.429461 
L 66.35076 -80.443676 
L 68.184839 -90.467781 
L 69.006013 -93.882626 
L 70.821969 -100.666252 
L 71.792194 -104.120082 
L 73.654249 -110.724605 
L 74.73456 -114.52748 
L 76.594084 -121.107621 
L 77.762249 -125.223894 
L 79.623486 -131.810467 
L 80.857862 -136.163674 
L 82.710726 -142.719083 
L 83.99385 -147.246606 
L 85.836458 -153.763655 
L 87.153501 -158.412508 
L 89.161606 -165.522781 
L 90.455847 -170.094985 
L 92.230391 -176.362911 
L 93.572602 -181.100023 
L 95.503028 -187.921303 
L 96.840455 -192.642785 
L 98.651002 -199.024188 
L 100.021906 -203.85255 
L 101.974386 -210.716443 
L 103.337235 -215.500168 
L 105.183281 -221.934462 
L 106.584051 -226.796945 
L 108.588125 -233.66021 
L 110.003404 -238.457927 
L 112.185577 -245.60132 
L 113.60825 -250.146867 
L 115.598825 -256.048568 
L 117.087405 -260.21378 
L 119.271077 -265.467338 
L 120.823562 -268.794844 
L 122.834074 -272.129869 
L 124.330207 -274.162903 
L 126.062182 -275.94443 
L 127.459368 -276.936462 
L 128.880658 -277.744497 
L 130.301948 -278.291819 
L 131.429868 -278.601436 
L 132.526576 -278.795248 
L 133.449957 -278.877124 
L 134.299147 -278.92507 
L 135.046002 -278.935874 
L 135.792857 -278.910235 
L 136.410983 -278.876386 
L 136.981574 -278.791191 
L 137.552165 -278.686331 
L 138.017906 -278.592653 
L 138.544557 -278.486723 
L 140.118261 -278.134193 
L 140.795329 -277.968987 
L 142.391878 -277.555922 
L 143.257812 -277.308847 
L 145.294392 -276.714838 
L 146.518803 -276.328324 
L 149.898193 -275.212283 
L 151.720516 -274.570367 
L 155.144898 -273.318483 
L 157.430264 -272.444974 
L 160.854646 -271.095975 
L 164.279028 -269.692218 
L 167.70341 -268.243944 
L 171.127792 -266.748558 
L 174.552174 -265.205936 
L 177.976556 -263.615376 
L 181.400938 -261.975754 
L 184.82532 -260.285527 
L 188.249702 -258.542619 
L 191.674084 -256.744232 
L 195.098466 -254.871403 
L 198.522848 -252.902436 
L 201.94723 -250.859555 
L 205.371612 -248.732785 
L 208.795994 -246.508976 
L 212.220376 -244.17068 
L 215.644758 -241.694443 
L 219.06914 -239.048069 
L 222.493522 -236.186045 
L 225.917904 -233.041398 
L 229.342286 -229.505647 
L 232.766668 -225.312316 
L 236.19105 -219.931623 
L 239.615432 -212.469808 
L 243.039814 -200.569215 
L 246.464196 -175.834752 
L 249.888578 -146.202731 
L 251.465673 -132.356338 
L 252.824198 -120.364039 
L 254.182723 -108.362252 
L 255.541248 -96.334609 
L 256.899773 -84.314465 
L 258.258298 -72.326377 
L 259.616823 -64.752539 
L 260.975348 -62.84 
L 262.333873 -62.84 
L 263.78561 -62.84 
L 265.312451 -62.84 
L 266.873725 -62.84 
L 268.497429 -62.84 
L 270.165922 -62.84 
L 272.140396 -62.84 
L 274.540654 -62.84 
L 277.460009 -62.84 
L 280.879822 -62.84 
L 284.299634 -62.84 
L 287.724016 -62.84 
L 291.148398 -62.84 
L 294.57278 -62.84 
L 297.997162 -62.84 
L 301.421544 -62.84 
L 304.845926 -62.84 
L 308.270308 -62.84 
L 311.69469 -62.84 
L 315.119072 -62.84 
L 318.543454 -62.84 
L 321.967836 -62.84 
L 325.392218 -62.84 
L 328.8166 -62.84 
L 332.240982 -62.84 
L 335.665364 -62.84 
L 337.33494 -62.84 
L 337.33494 -62.84 
L 337.33494 -62.84 
L 335.665364 -62.84 
L 332.240982 -62.84 
L 328.8166 -62.84 
L 325.392218 -62.84 
L 321.967836 -62.84 
L 318.543454 -62.84 
L 315.119072 -62.84 
L 311.69469 -62.84 
L 308.270308 -62.84 
L 304.845926 -62.84 
L 301.421544 -62.84 
L 297.997162 -62.84 
L 294.57278 -62.84 
L 291.148398 -62.84 
L 287.724016 -62.84 
L 284.299634 -62.84 
L 280.879822 -62.84 
L 277.460009 -62.84 
L 274.540654 -62.84 
L 272.140396 -62.84 
L 270.165922 -62.84 
L 268.497429 -62.84 
L 266.873725 -68.91112 
L 265.312451 -81.705553 
L 263.78561 -95.473797 
L 262.333873 -108.525021 
L 260.975348 -120.6277 
L 259.616823 -132.557849 
L 258.258298 -144.228447 
L 256.899773 -155.496988 
L 255.541248 -166.180326 
L 254.182723 -175.960194 
L 252.824198 -184.439316 
L 251.465673 -191.900268 
L 249.888578 -197.984299 
L 246.464196 -208.848513 
L 243.039814 -216.184739 
L 239.615432 -221.687578 
L 236.19105 -226.140856 
L 232.766668 -229.928609 
L 229.342286 -233.260727 
L 225.917904 -236.262856 
L 222.493522 -239.015623 
L 219.06914 -241.740155 
L 215.644758 -244.3837 
L 212.220376 -246.864723 
L 208.795994 -249.212632 
L 205.371612 -251.448892 
L 201.94723 -253.589449 
L 198.522848 -255.646258 
L 195.098466 -257.628316 
L 191.674084 -259.542372 
L 188.249702 -261.393461 
L 184.82532 -263.185312 
L 181.400938 -264.920677 
L 177.976556 -266.601593 
L 174.552174 -268.229556 
L 171.127792 -269.805602 
L 167.70341 -271.330218 
L 164.279028 -272.80305 
L 160.854646 -274.222213 
L 157.430264 -275.585199 
L 155.144898 -276.456629 
L 151.720516 -277.705298 
L 149.898193 -278.328886 
L 146.518803 -279.417274 
L 145.294392 -279.771834 
L 143.257812 -280.327083 
L 142.391878 -280.542027 
L 140.795329 -280.90199 
L 140.118261 -281.038443 
L 138.544557 -281.318285 
L 138.017906 -281.395352 
L 137.552165 -281.455433 
L 136.981574 -281.520034 
L 136.410983 -281.573281 
L 135.792857 -281.620553 
L 135.046002 -281.653417 
L 134.299147 -281.658185 
L 133.449957 -281.631595 
L 132.526576 -281.553826 
L 131.429868 -281.400325 
L 130.301948 -281.149971 
L 128.880658 -280.66212 
L 127.459368 -280.033227 
L 126.062182 -279.683326 
L 124.330207 -278.987204 
L 122.834074 -278.071103 
L 120.823562 -276.241156 
L 119.271077 -274.34762 
L 117.087405 -270.557522 
L 115.598825 -267.485019 
L 113.60825 -262.324733 
L 112.185577 -258.245842 
L 110.003404 -251.180825 
L 108.588125 -246.366455 
L 106.584051 -239.180723 
L 105.183281 -234.044666 
L 103.337235 -227.149515 
L 101.974386 -222.009619 
L 100.021906 -214.586626 
L 98.651002 -209.351711 
L 96.840455 -202.425077 
L 95.503028 -197.299871 
L 93.572602 -189.886862 
L 92.230391 -184.731368 
L 90.455847 -177.915133 
L 89.161606 -172.946136 
L 87.153501 -165.213561 
L 85.836458 -160.151389 
L 83.99385 -153.062503 
L 82.710726 -148.135727 
L 80.857862 -141.005031 
L 79.623486 -136.267585 
L 77.762249 -129.102919 
L 76.594084 -124.622968 
L 74.73456 -117.466751 
L 73.654249 -113.330289 
L 71.792194 -106.159428 
L 70.821969 -102.49521 
L 69.006013 -95.592658 
L 68.184839 -92.092912 
L 66.35076 -82.053575 
L 65.728677 -76.882209 
L 64.64519 -63.381583 
L 64.327808 -62.84 
L 63.796837 -62.84 
L 63.655245 -62.84 
L 63.434278 -62.84 
L 63.389327 -62.84 
L 63.384831 -62.84 
L 63.384382 -62.84 
z
" style="stroke: #0000cd; stroke-opacity: 0.2"/>
    </defs>
    <g clip-path="url(#p4bfaacc153)">
     <use xlink:href="#m99c3a9cafb" x="0" y="360" style="fill: #0000cd; fill-opacity: 0.2; stroke: #0000cd; stroke-opacity: 0.2"/>
    </g>
   </g>
   <g id="PathCollection_1">
    <defs>
     <path id="m164250d450" d="M 0 4.330127 
C 1.148363 4.330127 2.249847 3.873878 3.061862 3.061862 
C 3.873878 2.249847 4.330127 1.148363 4.330127 0 
C 4.330127 -1.148363 3.873878 -2.249847 3.061862 -3.061862 
C 2.249847 -3.873878 1.148363 -4.330127 0 -4.330127 
C -1.148363 -4.330127 -2.249847 -3.873878 -3.061862 -3.061862 
C -3.873878 -2.249847 -4.330127 -1.148363 -4.330127 0 
C -4.330127 1.148363 -3.873878 2.249847 -3.061862 3.061862 
C -2.249847 3.873878 -1.148363 4.330127 0 4.330127 
z
" style="stroke: #0000cd; stroke-opacity: 0.8"/>
    </defs>
    <g clip-path="url(#p4bfaacc153)">
     <use xlink:href="#m164250d450" x="63.384382" y="297.16" style="fill: #0000cd; fill-opacity: 0.8; stroke: #0000cd; stroke-opacity: 0.8"/>
     <use xlink:href="#m164250d450" x="97.628202" y="162.414943" style="fill: #0000cd; fill-opacity: 0.8; stroke: #0000cd; stroke-opacity: 0.8"/>
     <use xlink:href="#m164250d450" x="131.872021" y="65.018291" style="fill: #0000cd; fill-opacity: 0.8; stroke: #0000cd; stroke-opacity: 0.8"/>
     <use xlink:href="#m164250d450" x="166.115841" y="96.177621" style="fill: #0000cd; fill-opacity: 0.8; stroke: #0000cd; stroke-opacity: 0.8"/>
     <use xlink:href="#m164250d450" x="200.359661" y="115.891881" style="fill: #0000cd; fill-opacity: 0.8; stroke: #0000cd; stroke-opacity: 0.8"/>
     <use xlink:href="#m164250d450" x="234.603481" y="131.291592" style="fill: #0000cd; fill-opacity: 0.8; stroke: #0000cd; stroke-opacity: 0.8"/>
     <use xlink:href="#m164250d450" x="268.8473" y="297.16" style="fill: #0000cd; fill-opacity: 0.8; stroke: #0000cd; stroke-opacity: 0.8"/>
     <use xlink:href="#m164250d450" x="303.09112" y="297.16" style="fill: #0000cd; fill-opacity: 0.8; stroke: #0000cd; stroke-opacity: 0.8"/>
    </g>
   </g>
   <g id="line2d_15">
    <path d="M 63.384382 297.16 
L 64.64519 297.16 
L 65.728677 283.684773 
L 66.35076 278.733852 
L 68.184839 268.763858 
L 69.006013 265.303451 
L 71.792194 254.679034 
L 101.974386 143.404416 
L 108.588125 119.662214 
L 112.185577 107.602505 
L 113.60825 103.202669 
L 115.598825 97.556227 
L 117.087405 93.818179 
L 119.271077 89.228935 
L 120.823562 86.631462 
L 122.834074 84.070709 
L 124.330207 82.680647 
L 126.062182 81.529625 
L 127.459368 80.891537 
L 128.880658 80.454327 
L 131.429868 80.077854 
L 133.449957 80.054926 
L 135.792857 80.247046 
L 138.544557 80.692173 
L 142.391878 81.592153 
L 146.518803 82.803012 
L 151.720516 84.566613 
L 157.430264 86.711136 
L 164.279028 89.494089 
L 171.127792 92.472278 
L 177.976556 95.637589 
L 184.82532 98.994207 
L 191.674084 102.554467 
L 198.522848 106.342574 
L 205.371612 110.402462 
L 212.220376 114.810324 
L 215.644758 117.18266 
L 219.06914 119.697841 
L 222.493522 122.389229 
L 225.917904 125.303574 
L 229.342286 128.508817 
L 232.766668 132.108492 
L 236.19105 136.27056 
L 239.615432 141.291292 
L 243.039814 147.755416 
L 246.464196 156.982167 
L 249.888578 171.991052 
L 251.465673 182.045783 
L 252.824198 192.128993 
L 255.541248 214.49048 
L 262.333873 273.904548 
L 263.78561 286.662852 
L 265.312451 297.16 
L 337.33494 297.16 
L 337.33494 297.16 
" clip-path="url(#p4bfaacc153)" style="fill: none; stroke: #0000cd; stroke-width: 1.5; stroke-linecap: square"/>
   </g>
  </g>
  <g id="axes_2">
   <g id="patch_7">
    <path d="M 422.773559 297.16 
L 703.572881 297.16 
L 703.572881 36 
L 422.773559 36 
z
" style="fill: #ffffff"/>
   </g>
   <g id="matplotlib.axis_3">
    <g id="xtick_10">
     <g id="line2d_16">
      <g>
       <use xlink:href="#mc60e34997d" x="426.197941" y="297.16" style="stroke: #000000; stroke-width: 0.8"/>
      </g>
     </g>
     <g id="text_17">
      <!-- 0 -->
      <g transform="translate(420.471691 317.837188) scale(0.18 -0.18)">
       <use xlink:href="#DejaVuSans-30"/>
      </g>
     </g>
    </g>
    <g id="xtick_11">
     <g id="line2d_17">
      <g>
       <use xlink:href="#mc60e34997d" x="460.441761" y="297.16" style="stroke: #000000; stroke-width: 0.8"/>
      </g>
     </g>
     <g id="text_18">
      <!-- 1 -->
      <g transform="translate(454.715511 317.837188) scale(0.18 -0.18)">
       <use xlink:href="#DejaVuSans-31"/>
      </g>
     </g>
    </g>
    <g id="xtick_12">
     <g id="line2d_18">
      <g>
       <use xlink:href="#mc60e34997d" x="494.685581" y="297.16" style="stroke: #000000; stroke-width: 0.8"/>
      </g>
     </g>
     <g id="text_19">
      <!-- 2 -->
      <g transform="translate(488.959331 317.837188) scale(0.18 -0.18)">
       <use xlink:href="#DejaVuSans-32"/>
      </g>
     </g>
    </g>
    <g id="xtick_13">
     <g id="line2d_19">
      <g>
       <use xlink:href="#mc60e34997d" x="528.929401" y="297.16" style="stroke: #000000; stroke-width: 0.8"/>
      </g>
     </g>
     <g id="text_20">
      <!-- 3 -->
      <g transform="translate(523.203151 317.837188) scale(0.18 -0.18)">
       <use xlink:href="#DejaVuSans-33"/>
      </g>
     </g>
    </g>
    <g id="xtick_14">
     <g id="line2d_20">
      <g>
       <use xlink:href="#mc60e34997d" x="563.17322" y="297.16" style="stroke: #000000; stroke-width: 0.8"/>
      </g>
     </g>
     <g id="text_21">
      <!-- 4 -->
      <g transform="translate(557.44697 317.837188) scale(0.18 -0.18)">
       <use xlink:href="#DejaVuSans-34"/>
      </g>
     </g>
    </g>
    <g id="xtick_15">
     <g id="line2d_21">
      <g>
       <use xlink:href="#mc60e34997d" x="597.41704" y="297.16" style="stroke: #000000; stroke-width: 0.8"/>
      </g>
     </g>
     <g id="text_22">
      <!-- 5 -->
      <g transform="translate(591.69079 317.837188) scale(0.18 -0.18)">
       <use xlink:href="#DejaVuSans-35"/>
      </g>
     </g>
    </g>
    <g id="xtick_16">
     <g id="line2d_22">
      <g>
       <use xlink:href="#mc60e34997d" x="631.66086" y="297.16" style="stroke: #000000; stroke-width: 0.8"/>
      </g>
     </g>
     <g id="text_23">
      <!-- 6 -->
      <g transform="translate(625.93461 317.837188) scale(0.18 -0.18)">
       <use xlink:href="#DejaVuSans-36"/>
      </g>
     </g>
    </g>
    <g id="xtick_17">
     <g id="line2d_23">
      <g>
       <use xlink:href="#mc60e34997d" x="665.90468" y="297.16" style="stroke: #000000; stroke-width: 0.8"/>
      </g>
     </g>
     <g id="text_24">
      <!-- 7 -->
      <g transform="translate(660.17843 317.837188) scale(0.18 -0.18)">
       <use xlink:href="#DejaVuSans-37"/>
      </g>
     </g>
    </g>
    <g id="xtick_18">
     <g id="line2d_24">
      <g>
       <use xlink:href="#mc60e34997d" x="700.148499" y="297.16" style="stroke: #000000; stroke-width: 0.8"/>
      </g>
     </g>
     <g id="text_25">
      <!-- 8 -->
      <g transform="translate(694.422249 317.837188) scale(0.18 -0.18)">
       <use xlink:href="#DejaVuSans-38"/>
      </g>
     </g>
    </g>
    <g id="text_26">
     <!-- Time (d) -->
     <g transform="translate(513.01697 343.816875) scale(0.24 -0.24)">
      <use xlink:href="#DejaVuSans-54"/>
      <use xlink:href="#DejaVuSans-69" x="57.958984"/>
      <use xlink:href="#DejaVuSans-6d" x="85.742188"/>
      <use xlink:href="#DejaVuSans-65" x="183.154297"/>
      <use xlink:href="#DejaVuSans-20" x="244.677734"/>
      <use xlink:href="#DejaVuSans-28" x="276.464844"/>
      <use xlink:href="#DejaVuSans-64" x="315.478516"/>
      <use xlink:href="#DejaVuSans-29" x="378.955078"/>
     </g>
    </g>
   </g>
   <g id="matplotlib.axis_4">
    <g id="ytick_6">
     <g id="line2d_25">
      <g>
       <use xlink:href="#m61caf0b8c9" x="422.773559" y="297.16" style="stroke: #000000; stroke-width: 0.8"/>
      </g>
     </g>
     <g id="text_27">
      <!-- 4.5 -->
      <g transform="translate(387.147934 303.998594) scale(0.18 -0.18)">
       <defs>
        <path id="DejaVuSans-2e" d="M 684 794 
L 1344 794 
L 1344 0 
L 684 0 
L 684 794 
z
" transform="scale(0.015625)"/>
       </defs>
       <use xlink:href="#DejaVuSans-34"/>
       <use xlink:href="#DejaVuSans-2e" x="63.623047"/>
       <use xlink:href="#DejaVuSans-35" x="95.410156"/>
      </g>
     </g>
    </g>
    <g id="ytick_7">
     <g id="line2d_26">
      <g>
       <use xlink:href="#m61caf0b8c9" x="422.773559" y="256.981538" style="stroke: #000000; stroke-width: 0.8"/>
      </g>
     </g>
     <g id="text_28">
      <!-- 5.0 -->
      <g transform="translate(387.147934 263.820132) scale(0.18 -0.18)">
       <use xlink:href="#DejaVuSans-35"/>
       <use xlink:href="#DejaVuSans-2e" x="63.623047"/>
       <use xlink:href="#DejaVuSans-30" x="95.410156"/>
      </g>
     </g>
    </g>
    <g id="ytick_8">
     <g id="line2d_27">
      <g>
       <use xlink:href="#m61caf0b8c9" x="422.773559" y="216.803077" style="stroke: #000000; stroke-width: 0.8"/>
      </g>
     </g>
     <g id="text_29">
      <!-- 5.5 -->
      <g transform="translate(387.147934 223.641671) scale(0.18 -0.18)">
       <use xlink:href="#DejaVuSans-35"/>
       <use xlink:href="#DejaVuSans-2e" x="63.623047"/>
       <use xlink:href="#DejaVuSans-35" x="95.410156"/>
      </g>
     </g>
    </g>
    <g id="ytick_9">
     <g id="line2d_28">
      <g>
       <use xlink:href="#m61caf0b8c9" x="422.773559" y="176.624615" style="stroke: #000000; stroke-width: 0.8"/>
      </g>
     </g>
     <g id="text_30">
      <!-- 6.0 -->
      <g transform="translate(387.147934 183.463209) scale(0.18 -0.18)">
       <use xlink:href="#DejaVuSans-36"/>
       <use xlink:href="#DejaVuSans-2e" x="63.623047"/>
       <use xlink:href="#DejaVuSans-30" x="95.410156"/>
      </g>
     </g>
    </g>
    <g id="ytick_10">
     <g id="line2d_29">
      <g>
       <use xlink:href="#m61caf0b8c9" x="422.773559" y="136.446154" style="stroke: #000000; stroke-width: 0.8"/>
      </g>
     </g>
     <g id="text_31">
      <!-- 6.5 -->
      <g transform="translate(387.147934 143.284748) scale(0.18 -0.18)">
       <use xlink:href="#DejaVuSans-36"/>
       <use xlink:href="#DejaVuSans-2e" x="63.623047"/>
       <use xlink:href="#DejaVuSans-35" x="95.410156"/>
      </g>
     </g>
    </g>
    <g id="ytick_11">
     <g id="line2d_30">
      <g>
       <use xlink:href="#m61caf0b8c9" x="422.773559" y="96.267692" style="stroke: #000000; stroke-width: 0.8"/>
      </g>
     </g>
     <g id="text_32">
      <!-- 7.0 -->
      <g transform="translate(387.147934 103.106286) scale(0.18 -0.18)">
       <use xlink:href="#DejaVuSans-37"/>
       <use xlink:href="#DejaVuSans-2e" x="63.623047"/>
       <use xlink:href="#DejaVuSans-30" x="95.410156"/>
      </g>
     </g>
    </g>
    <g id="ytick_12">
     <g id="line2d_31">
      <g>
       <use xlink:href="#m61caf0b8c9" x="422.773559" y="56.089231" style="stroke: #000000; stroke-width: 0.8"/>
      </g>
     </g>
     <g id="text_33">
      <!-- 7.5 -->
      <g transform="translate(387.147934 62.927825) scale(0.18 -0.18)">
       <use xlink:href="#DejaVuSans-37"/>
       <use xlink:href="#DejaVuSans-2e" x="63.623047"/>
       <use xlink:href="#DejaVuSans-35" x="95.410156"/>
      </g>
     </g>
    </g>
    <g id="text_34">
     <!-- CD8$^+$ TE (log$_{10}$ cells) -->
     <g transform="translate(378.107934 294.74) rotate(-90) scale(0.24 -0.24)">
      <defs>
       <path id="DejaVuSans-43" d="M 4122 4306 
L 4122 3641 
Q 3803 3938 3442 4084 
Q 3081 4231 2675 4231 
Q 1875 4231 1450 3742 
Q 1025 3253 1025 2328 
Q 1025 1406 1450 917 
Q 1875 428 2675 428 
Q 3081 428 3442 575 
Q 3803 722 4122 1019 
L 4122 359 
Q 3791 134 3420 21 
Q 3050 -91 2638 -91 
Q 1578 -91 968 557 
Q 359 1206 359 2328 
Q 359 3453 968 4101 
Q 1578 4750 2638 4750 
Q 3056 4750 3426 4639 
Q 3797 4528 4122 4306 
z
" transform="scale(0.015625)"/>
       <path id="DejaVuSans-44" d="M 1259 4147 
L 1259 519 
L 2022 519 
Q 2988 519 3436 956 
Q 3884 1394 3884 2338 
Q 3884 3275 3436 3711 
Q 2988 4147 2022 4147 
L 1259 4147 
z
M 628 4666 
L 1925 4666 
Q 3281 4666 3915 4102 
Q 4550 3538 4550 2338 
Q 4550 1131 3912 565 
Q 3275 0 1925 0 
L 628 0 
L 628 4666 
z
" transform="scale(0.015625)"/>
       <path id="DejaVuSans-2b" d="M 2944 4013 
L 2944 2272 
L 4684 2272 
L 4684 1741 
L 2944 1741 
L 2944 0 
L 2419 0 
L 2419 1741 
L 678 1741 
L 678 2272 
L 2419 2272 
L 2419 4013 
L 2944 4013 
z
" transform="scale(0.015625)"/>
       <path id="DejaVuSans-45" d="M 628 4666 
L 3578 4666 
L 3578 4134 
L 1259 4134 
L 1259 2753 
L 3481 2753 
L 3481 2222 
L 1259 2222 
L 1259 531 
L 3634 531 
L 3634 0 
L 628 0 
L 628 4666 
z
" transform="scale(0.015625)"/>
      </defs>
      <use xlink:href="#DejaVuSans-43" transform="translate(0 0.826562)"/>
      <use xlink:href="#DejaVuSans-44" transform="translate(69.824219 0.826562)"/>
      <use xlink:href="#DejaVuSans-38" transform="translate(146.826172 0.826562)"/>
      <use xlink:href="#DejaVuSans-2b" transform="translate(225.043945 39.107812) scale(0.7)"/>
      <use xlink:href="#DejaVuSans-20" transform="translate(300.068359 0.826562)"/>
      <use xlink:href="#DejaVuSans-54" transform="translate(331.855469 0.826562)"/>
      <use xlink:href="#DejaVuSans-45" transform="translate(392.939453 0.826562)"/>
      <use xlink:href="#DejaVuSans-20" transform="translate(456.123047 0.826562)"/>
      <use xlink:href="#DejaVuSans-28" transform="translate(487.910156 0.826562)"/>
      <use xlink:href="#DejaVuSans-6c" transform="translate(526.923828 0.826562)"/>
      <use xlink:href="#DejaVuSans-6f" transform="translate(554.707031 0.826562)"/>
      <use xlink:href="#DejaVuSans-67" transform="translate(615.888672 0.826562)"/>
      <use xlink:href="#DejaVuSans-31" transform="translate(680.322266 -15.579688) scale(0.7)"/>
      <use xlink:href="#DejaVuSans-30" transform="translate(724.858398 -15.579688) scale(0.7)"/>
      <use xlink:href="#DejaVuSans-20" transform="translate(772.128906 0.826562)"/>
      <use xlink:href="#DejaVuSans-63" transform="translate(803.916016 0.826562)"/>
      <use xlink:href="#DejaVuSans-65" transform="translate(858.896484 0.826562)"/>
      <use xlink:href="#DejaVuSans-6c" transform="translate(920.419922 0.826562)"/>
      <use xlink:href="#DejaVuSans-6c" transform="translate(948.203125 0.826562)"/>
      <use xlink:href="#DejaVuSans-73" transform="translate(975.986328 0.826562)"/>
      <use xlink:href="#DejaVuSans-29" transform="translate(1028.085938 0.826562)"/>
     </g>
    </g>
   </g>
   <g id="patch_8">
    <path d="M 422.773559 297.16 
L 422.773559 36 
" style="fill: none; stroke: #000000; stroke-width: 0.8; stroke-linejoin: miter; stroke-linecap: square"/>
   </g>
   <g id="patch_9">
    <path d="M 703.572881 297.16 
L 703.572881 36 
" style="fill: none; stroke: #000000; stroke-width: 0.8; stroke-linejoin: miter; stroke-linecap: square"/>
   </g>
   <g id="patch_10">
    <path d="M 422.773559 297.16 
L 703.572881 297.16 
" style="fill: none; stroke: #000000; stroke-width: 0.8; stroke-linejoin: miter; stroke-linecap: square"/>
   </g>
   <g id="patch_11">
    <path d="M 422.773559 36 
L 703.572881 36 
" style="fill: none; stroke: #000000; stroke-width: 0.8; stroke-linejoin: miter; stroke-linecap: square"/>
   </g>
   <g id="PolyCollection_2">
    <defs>
     <path id="mf30d8869ed" d="M 426.197941 -118.656115 
L 426.197941 -118.656115 
L 426.198391 -118.656115 
L 426.202886 -118.656115 
L 426.247838 -118.656115 
L 426.468805 -118.656115 
L 426.610396 -118.656115 
L 427.141368 -118.656115 
L 427.458749 -118.656115 
L 428.542236 -118.656115 
L 429.164319 -118.656115 
L 430.998398 -118.656115 
L 431.819572 -118.656115 
L 433.635528 -118.656115 
L 434.605753 -118.656115 
L 436.467808 -118.656115 
L 437.548119 -118.656115 
L 439.407644 -118.656115 
L 440.575808 -118.656115 
L 442.437045 -118.656116 
L 443.671422 -118.656116 
L 445.524285 -118.656117 
L 446.807409 -118.656118 
L 448.650018 -118.656121 
L 449.96706 -118.656125 
L 451.975165 -118.656137 
L 453.269406 -118.656149 
L 455.04395 -118.656177 
L 456.386162 -118.65621 
L 458.316587 -118.656288 
L 459.654015 -118.656373 
L 461.464561 -118.656553 
L 462.835466 -118.656761 
L 464.787946 -118.657236 
L 466.150794 -118.657746 
L 467.99684 -118.658829 
L 469.39761 -118.660085 
L 471.401685 -118.662983 
L 472.816964 -118.666165 
L 474.999136 -118.674325 
L 476.421809 -118.682759 
L 478.412385 -118.701734 
L 479.900964 -118.724003 
L 482.084636 -118.77828 
L 483.637121 -118.840486 
L 485.647633 -118.969391 
L 487.143767 -119.119426 
L 488.875741 -119.381807 
L 490.272928 -119.690358 
L 491.694217 -120.127849 
L 493.115507 -120.729473 
L 494.243427 -121.357497 
L 495.340135 -122.122567 
L 496.263516 -122.905501 
L 497.112706 -123.751197 
L 497.859561 -124.603427 
L 498.606417 -125.568404 
L 499.224542 -126.453681 
L 499.795133 -127.339949 
L 500.365725 -128.305975 
L 500.831466 -129.147933 
L 501.358116 -130.168461 
L 502.93182 -133.55165 
L 503.608889 -135.195847 
L 505.205437 -139.354287 
L 506.071371 -141.821402 
L 508.107951 -147.95309 
L 509.332362 -151.83074 
L 512.711753 -162.760998 
L 514.534075 -168.519796 
L 517.958457 -178.779996 
L 520.243824 -184.980928 
L 523.668206 -193.280331 
L 527.092588 -200.185782 
L 530.51697 -205.954807 
L 533.941352 -210.591811 
L 537.365734 -214.216335 
L 540.790116 -216.823086 
L 544.214498 -218.108416 
L 547.638879 -218.816914 
L 551.063261 -219.055408 
L 554.487643 -218.916738 
L 557.912025 -218.479981 
L 561.336407 -217.811186 
L 564.760789 -216.964482 
L 568.185171 -215.983415 
L 571.609553 -214.902404 
L 575.033935 -213.748204 
L 578.458317 -212.5413 
L 581.882699 -211.297159 
L 585.307081 -210.027319 
L 588.731463 -208.740303 
L 592.155845 -207.442356 
L 595.580227 -206.138025 
L 599.004609 -204.830615 
L 602.428991 -203.522524 
L 605.853373 -202.215501 
L 609.277755 -200.910813 
L 612.702137 -199.609497 
L 614.279232 -199.011495 
L 615.637757 -198.497136 
L 616.996282 -197.983449 
L 618.354807 -197.47056 
L 619.713332 -196.958428 
L 621.071858 -196.447067 
L 622.430383 -195.936531 
L 623.788908 -195.42681 
L 625.147433 -194.91803 
L 626.599169 -194.375308 
L 628.12601 -193.805609 
L 629.687284 -193.22428 
L 631.310989 -192.621039 
L 632.979481 -192.002643 
L 634.953955 -191.271161 
L 637.354213 -190.315866 
L 640.273568 -189.158551 
L 643.693381 -187.810481 
L 647.113194 -186.470485 
L 650.537576 -185.137231 
L 653.961958 -183.812802 
L 657.38634 -182.497485 
L 660.810722 -181.191569 
L 664.235104 -179.895347 
L 667.659486 -178.609111 
L 671.083868 -177.333157 
L 674.50825 -176.067783 
L 677.932632 -174.813287 
L 681.357014 -173.569969 
L 684.781396 -172.33813 
L 688.205778 -171.118071 
L 691.63016 -169.910093 
L 695.054542 -168.714495 
L 698.478923 -167.53119 
L 700.148499 -166.958096 
L 700.148499 -173.583528 
L 700.148499 -173.583528 
L 698.478923 -174.125422 
L 695.054542 -175.241554 
L 691.63016 -176.366547 
L 688.205778 -177.50019 
L 684.781396 -178.642267 
L 681.357014 -179.792567 
L 677.932632 -180.950879 
L 674.50825 -182.116994 
L 671.083868 -183.311687 
L 667.659486 -184.529102 
L 664.235104 -185.754142 
L 660.810722 -186.986587 
L 657.38634 -188.22622 
L 653.961958 -189.472657 
L 650.537576 -190.72603 
L 647.113194 -191.98577 
L 643.693381 -193.249949 
L 640.273568 -194.520952 
L 637.354213 -195.610394 
L 634.953955 -196.509082 
L 632.979481 -197.250286 
L 631.310989 -197.878544 
L 629.687284 -198.490659 
L 628.12601 -199.080386 
L 626.599169 -199.658221 
L 625.147433 -200.208619 
L 623.788908 -200.724451 
L 622.430383 -201.241004 
L 621.071858 -201.758273 
L 619.713332 -202.276236 
L 618.354807 -202.794883 
L 616.996282 -203.314181 
L 615.637757 -203.834123 
L 614.279232 -204.354661 
L 612.702137 -204.959668 
L 609.277755 -206.275658 
L 605.853373 -207.594415 
L 602.428991 -208.914909 
L 599.004609 -210.235744 
L 595.580227 -211.555323 
L 592.155845 -212.871297 
L 588.731463 -214.180424 
L 585.307081 -215.478236 
L 581.882699 -216.758595 
L 578.458317 -218.013117 
L 575.033935 -219.230444 
L 571.609553 -220.395348 
L 568.185171 -221.48765 
L 564.760789 -222.480978 
L 561.336407 -223.34138 
L 557.912025 -224.025863 
L 554.487643 -224.480919 
L 551.063261 -224.641151 
L 547.638879 -224.428106 
L 544.214498 -223.749431 
L 540.790116 -222.498481 
L 537.365734 -220.554561 
L 533.941352 -217.784067 
L 530.51697 -214.123752 
L 527.092588 -209.831002 
L 523.668206 -204.366753 
L 520.243824 -197.430668 
L 517.958457 -192.216051 
L 514.534075 -182.83532 
L 512.711753 -177.518025 
L 509.332362 -166.383736 
L 508.107951 -162.2326 
L 506.071371 -155.214245 
L 505.205437 -152.269911 
L 503.608889 -146.841354 
L 502.93182 -144.631896 
L 501.358116 -139.812044 
L 500.831466 -138.220175 
L 500.365725 -136.916399 
L 499.795133 -135.418665 
L 499.224542 -133.965715 
L 498.606417 -132.406253 
L 497.859561 -130.724092 
L 497.112706 -129.186052 
L 496.263516 -127.603499 
L 495.340135 -126.096743 
L 494.243427 -124.563404 
L 493.115507 -123.264356 
L 491.694217 -121.986446 
L 490.272928 -121.0256 
L 488.875741 -120.325378 
L 487.143767 -119.720275 
L 485.647633 -119.375053 
L 483.637121 -119.077997 
L 482.084636 -118.928287 
L 479.900964 -118.809937 
L 478.412385 -118.754529 
L 476.421809 -118.714109 
L 474.999136 -118.694141 
L 472.816964 -118.677513 
L 471.401685 -118.670017 
L 469.39761 -118.664243 
L 467.99684 -118.661458 
L 466.150794 -118.659345 
L 464.787946 -118.658267 
L 462.835466 -118.657372 
L 461.464561 -118.656942 
L 459.654015 -118.656607 
L 458.316587 -118.656439 
L 456.386162 -118.656297 
L 455.04395 -118.656231 
L 453.269406 -118.65618 
L 451.975165 -118.656156 
L 449.96706 -118.656135 
L 448.650018 -118.656127 
L 446.807409 -118.65612 
L 445.524285 -118.656118 
L 443.671422 -118.656116 
L 442.437045 -118.656116 
L 440.575808 -118.656115 
L 439.407644 -118.656115 
L 437.548119 -118.656115 
L 436.467808 -118.656115 
L 434.605753 -118.656115 
L 433.635528 -118.656115 
L 431.819572 -118.656115 
L 430.998398 -118.656115 
L 429.164319 -118.656115 
L 428.542236 -118.656115 
L 427.458749 -118.656115 
L 427.141368 -118.656115 
L 426.610396 -118.656115 
L 426.468805 -118.656115 
L 426.247838 -118.656115 
L 426.202886 -118.656115 
L 426.198391 -118.656115 
L 426.197941 -118.656115 
z
" style="stroke: #0000cd; stroke-opacity: 0.2"/>
    </defs>
    <g clip-path="url(#p49de32e9ff)">
     <use xlink:href="#mf30d8869ed" x="0" y="360" style="fill: #0000cd; fill-opacity: 0.2; stroke: #0000cd; stroke-opacity: 0.2"/>
    </g>
   </g>
   <g id="PathCollection_2">
    <g clip-path="url(#p49de32e9ff)">
     <use xlink:href="#m164250d450" x="426.197941" y="241.343885" style="fill: #0000cd; fill-opacity: 0.8; stroke: #0000cd; stroke-opacity: 0.8"/>
     <use xlink:href="#m164250d450" x="460.441761" y="260.210976" style="fill: #0000cd; fill-opacity: 0.8; stroke: #0000cd; stroke-opacity: 0.8"/>
     <use xlink:href="#m164250d450" x="494.685581" y="218.24167" style="fill: #0000cd; fill-opacity: 0.8; stroke: #0000cd; stroke-opacity: 0.8"/>
     <use xlink:href="#m164250d450" x="528.929401" y="155.880052" style="fill: #0000cd; fill-opacity: 0.8; stroke: #0000cd; stroke-opacity: 0.8"/>
     <use xlink:href="#m164250d450" x="563.17322" y="144.396433" style="fill: #0000cd; fill-opacity: 0.8; stroke: #0000cd; stroke-opacity: 0.8"/>
     <use xlink:href="#m164250d450" x="597.41704" y="143.698404" style="fill: #0000cd; fill-opacity: 0.8; stroke: #0000cd; stroke-opacity: 0.8"/>
     <use xlink:href="#m164250d450" x="631.66086" y="154.493535" style="fill: #0000cd; fill-opacity: 0.8; stroke: #0000cd; stroke-opacity: 0.8"/>
     <use xlink:href="#m164250d450" x="665.90468" y="175.108188" style="fill: #0000cd; fill-opacity: 0.8; stroke: #0000cd; stroke-opacity: 0.8"/>
    </g>
   </g>
   <g id="line2d_32">
    <path d="M 426.197941 241.343885 
L 479.900964 241.237145 
L 483.637121 241.055436 
L 487.143767 240.623141 
L 488.875741 240.222936 
L 490.272928 239.756176 
L 491.694217 239.100693 
L 493.115507 238.20818 
L 494.243427 237.291326 
L 495.340135 236.188736 
L 497.112706 233.89504 
L 498.606417 231.409571 
L 499.795133 229.046556 
L 501.358116 225.42113 
L 503.608889 219.25276 
L 506.071371 211.534618 
L 514.534075 183.475432 
L 517.958457 173.568783 
L 520.243824 167.713379 
L 523.668206 160.139403 
L 527.092588 153.939837 
L 530.51697 149.002273 
L 533.941352 145.186793 
L 537.365734 142.346341 
L 540.790116 140.337586 
L 544.214498 139.0267 
L 547.638879 138.292347 
L 551.063261 138.027081 
L 554.487643 138.137727 
L 557.912025 138.545087 
L 561.336407 139.183137 
L 564.760789 139.997876 
L 571.609553 141.993146 
L 578.458317 144.285081 
L 588.731463 147.981389 
L 643.693381 168.178624 
L 664.235104 175.40859 
L 684.781396 182.382201 
L 700.148499 187.402559 
L 700.148499 187.402559 
" clip-path="url(#p49de32e9ff)" style="fill: none; stroke: #0000cd; stroke-width: 1.5; stroke-linecap: square"/>
   </g>
  </g>
  <g id="text_35">
   <!-- Volunteer 302.0 -->
   <g transform="translate(640.21875 22.396875) scale(0.2 -0.2)">
    <defs>
     <path id="DejaVuSans-6e" d="M 3513 2113 
L 3513 0 
L 2938 0 
L 2938 2094 
Q 2938 2591 2744 2837 
Q 2550 3084 2163 3084 
Q 1697 3084 1428 2787 
Q 1159 2491 1159 1978 
L 1159 0 
L 581 0 
L 581 3500 
L 1159 3500 
L 1159 2956 
Q 1366 3272 1645 3428 
Q 1925 3584 2291 3584 
Q 2894 3584 3203 3211 
Q 3513 2838 3513 2113 
z
" transform="scale(0.015625)"/>
     <path id="DejaVuSans-74" d="M 1172 4494 
L 1172 3500 
L 2356 3500 
L 2356 3053 
L 1172 3053 
L 1172 1153 
Q 1172 725 1289 603 
Q 1406 481 1766 481 
L 2356 481 
L 2356 0 
L 1766 0 
Q 1100 0 847 248 
Q 594 497 594 1153 
L 594 3053 
L 172 3053 
L 172 3500 
L 594 3500 
L 594 4494 
L 1172 4494 
z
" transform="scale(0.015625)"/>
    </defs>
    <use xlink:href="#DejaVuSans-56"/>
    <use xlink:href="#DejaVuSans-6f" x="60.658203"/>
    <use xlink:href="#DejaVuSans-6c" x="121.839844"/>
    <use xlink:href="#DejaVuSans-75" x="149.623047"/>
    <use xlink:href="#DejaVuSans-6e" x="213.001953"/>
    <use xlink:href="#DejaVuSans-74" x="276.380859"/>
    <use xlink:href="#DejaVuSans-65" x="315.589844"/>
    <use xlink:href="#DejaVuSans-65" x="377.113281"/>
    <use xlink:href="#DejaVuSans-72" x="438.636719"/>
    <use xlink:href="#DejaVuSans-20" x="479.75"/>
    <use xlink:href="#DejaVuSans-33" x="511.537109"/>
    <use xlink:href="#DejaVuSans-30" x="575.160156"/>
    <use xlink:href="#DejaVuSans-32" x="638.783203"/>
    <use xlink:href="#DejaVuSans-2e" x="702.40625"/>
    <use xlink:href="#DejaVuSans-30" x="734.193359"/>
   </g>
  </g>
 </g>
 <defs>
  <clipPath id="p4bfaacc153">
   <rect x="59.96" y="36" width="280.799322" height="261.16"/>
  </clipPath>
  <clipPath id="p49de32e9ff">
   <rect x="422.773559" y="36" width="280.799322" height="261.16"/>
  </clipPath>
 </defs>
</svg>
