<?xml version="1.0" encoding="utf-8" standalone="no"?>
<!DOCTYPE svg PUBLIC "-//W3C//DTD SVG 1.1//EN"
  "http://www.w3.org/Graphics/SVG/1.1/DTD/svg11.dtd">
<svg xmlns:xlink="http://www.w3.org/1999/xlink" width="1440pt" height="360pt" viewBox="0 0 1440 360" xmlns="http://www.w3.org/2000/svg" version="1.1">
 <metadata>
  <rdf:RDF xmlns:dc="http://purl.org/dc/elements/1.1/" xmlns:cc="http://creativecommons.org/ns#" xmlns:rdf="http://www.w3.org/1999/02/22-rdf-syntax-ns#">
   <cc:Work>
    <dc:type rdf:resource="http://purl.org/dc/dcmitype/StillImage"/>
    <dc:date>2025-01-12T17:09:21.336155</dc:date>
    <dc:format>image/svg+xml</dc:format>
    <dc:creator>
     <cc:Agent>
      <dc:title>Matplotlib v3.9.2, https://matplotlib.org/</dc:title>
     </cc:Agent>
    </dc:creator>
   </cc:Work>
  </rdf:RDF>
 </metadata>
 <defs>
  <style type="text/css">*{stroke-linejoin: round; stroke-linecap: butt}</style>
 </defs>
 <g id="figure_1">
  <g id="patch_1">
   <path d="M 0 360 
L 1440 360 
L 1440 0 
L 0 0 
z
" style="fill: #ffffff"/>
  </g>
  <g id="axes_1">
   <g id="patch_2">
    <path d="M 59.96 297.16 
L 340.567439 297.16 
L 340.567439 36 
L 59.96 36 
z
" style="fill: #ffffff"/>
   </g>
   <g id="matplotlib.axis_1">
    <g id="xtick_1">
     <g id="line2d_1">
      <defs>
       <path id="m78e9cbda22" d="M 0 0 
L 0 3.5 
" style="stroke: #000000; stroke-width: 0.8"/>
      </defs>
      <g>
       <use xlink:href="#m78e9cbda22" x="63.010081" y="297.16" style="stroke: #000000; stroke-width: 0.8"/>
      </g>
     </g>
     <g id="text_1">
      <!-- 0 -->
      <g transform="translate(57.283831 317.837188) scale(0.18 -0.18)">
       <defs>
        <path id="DejaVuSans-30" d="M 2034 4250 
Q 1547 4250 1301 3770 
Q 1056 3291 1056 2328 
Q 1056 1369 1301 889 
Q 1547 409 2034 409 
Q 2525 409 2770 889 
Q 3016 1369 3016 2328 
Q 3016 3291 2770 3770 
Q 2525 4250 2034 4250 
z
M 2034 4750 
Q 2819 4750 3233 4129 
Q 3647 3509 3647 2328 
Q 3647 1150 3233 529 
Q 2819 -91 2034 -91 
Q 1250 -91 836 529 
Q 422 1150 422 2328 
Q 422 3509 836 4129 
Q 1250 4750 2034 4750 
z
" transform="scale(0.015625)"/>
       </defs>
       <use xlink:href="#DejaVuSans-30"/>
      </g>
     </g>
    </g>
    <g id="xtick_2">
     <g id="line2d_2">
      <g>
       <use xlink:href="#m78e9cbda22" x="93.510889" y="297.16" style="stroke: #000000; stroke-width: 0.8"/>
      </g>
     </g>
     <g id="text_2">
      <!-- 1 -->
      <g transform="translate(87.784639 317.837188) scale(0.18 -0.18)">
       <defs>
        <path id="DejaVuSans-31" d="M 794 531 
L 1825 531 
L 1825 4091 
L 703 3866 
L 703 4441 
L 1819 4666 
L 2450 4666 
L 2450 531 
L 3481 531 
L 3481 0 
L 794 0 
L 794 531 
z
" transform="scale(0.015625)"/>
       </defs>
       <use xlink:href="#DejaVuSans-31"/>
      </g>
     </g>
    </g>
    <g id="xtick_3">
     <g id="line2d_3">
      <g>
       <use xlink:href="#m78e9cbda22" x="124.011698" y="297.16" style="stroke: #000000; stroke-width: 0.8"/>
      </g>
     </g>
     <g id="text_3">
      <!-- 2 -->
      <g transform="translate(118.285448 317.837188) scale(0.18 -0.18)">
       <defs>
        <path id="DejaVuSans-32" d="M 1228 531 
L 3431 531 
L 3431 0 
L 469 0 
L 469 531 
Q 828 903 1448 1529 
Q 2069 2156 2228 2338 
Q 2531 2678 2651 2914 
Q 2772 3150 2772 3378 
Q 2772 3750 2511 3984 
Q 2250 4219 1831 4219 
Q 1534 4219 1204 4116 
Q 875 4013 500 3803 
L 500 4441 
Q 881 4594 1212 4672 
Q 1544 4750 1819 4750 
Q 2544 4750 2975 4387 
Q 3406 4025 3406 3419 
Q 3406 3131 3298 2873 
Q 3191 2616 2906 2266 
Q 2828 2175 2409 1742 
Q 1991 1309 1228 531 
z
" transform="scale(0.015625)"/>
       </defs>
       <use xlink:href="#DejaVuSans-32"/>
      </g>
     </g>
    </g>
    <g id="xtick_4">
     <g id="line2d_4">
      <g>
       <use xlink:href="#m78e9cbda22" x="154.512507" y="297.16" style="stroke: #000000; stroke-width: 0.8"/>
      </g>
     </g>
     <g id="text_4">
      <!-- 3 -->
      <g transform="translate(148.786257 317.837188) scale(0.18 -0.18)">
       <defs>
        <path id="DejaVuSans-33" d="M 2597 2516 
Q 3050 2419 3304 2112 
Q 3559 1806 3559 1356 
Q 3559 666 3084 287 
Q 2609 -91 1734 -91 
Q 1441 -91 1130 -33 
Q 819 25 488 141 
L 488 750 
Q 750 597 1062 519 
Q 1375 441 1716 441 
Q 2309 441 2620 675 
Q 2931 909 2931 1356 
Q 2931 1769 2642 2001 
Q 2353 2234 1838 2234 
L 1294 2234 
L 1294 2753 
L 1863 2753 
Q 2328 2753 2575 2939 
Q 2822 3125 2822 3475 
Q 2822 3834 2567 4026 
Q 2313 4219 1838 4219 
Q 1578 4219 1281 4162 
Q 984 4106 628 3988 
L 628 4550 
Q 988 4650 1302 4700 
Q 1616 4750 1894 4750 
Q 2613 4750 3031 4423 
Q 3450 4097 3450 3541 
Q 3450 3153 3228 2886 
Q 3006 2619 2597 2516 
z
" transform="scale(0.015625)"/>
       </defs>
       <use xlink:href="#DejaVuSans-33"/>
      </g>
     </g>
    </g>
    <g id="xtick_5">
     <g id="line2d_5">
      <g>
       <use xlink:href="#m78e9cbda22" x="185.013315" y="297.16" style="stroke: #000000; stroke-width: 0.8"/>
      </g>
     </g>
     <g id="text_5">
      <!-- 4 -->
      <g transform="translate(179.287065 317.837188) scale(0.18 -0.18)">
       <defs>
        <path id="DejaVuSans-34" d="M 2419 4116 
L 825 1625 
L 2419 1625 
L 2419 4116 
z
M 2253 4666 
L 3047 4666 
L 3047 1625 
L 3713 1625 
L 3713 1100 
L 3047 1100 
L 3047 0 
L 2419 0 
L 2419 1100 
L 313 1100 
L 313 1709 
L 2253 4666 
z
" transform="scale(0.015625)"/>
       </defs>
       <use xlink:href="#DejaVuSans-34"/>
      </g>
     </g>
    </g>
    <g id="xtick_6">
     <g id="line2d_6">
      <g>
       <use xlink:href="#m78e9cbda22" x="215.514124" y="297.16" style="stroke: #000000; stroke-width: 0.8"/>
      </g>
     </g>
     <g id="text_6">
      <!-- 5 -->
      <g transform="translate(209.787874 317.837188) scale(0.18 -0.18)">
       <defs>
        <path id="DejaVuSans-35" d="M 691 4666 
L 3169 4666 
L 3169 4134 
L 1269 4134 
L 1269 2991 
Q 1406 3038 1543 3061 
Q 1681 3084 1819 3084 
Q 2600 3084 3056 2656 
Q 3513 2228 3513 1497 
Q 3513 744 3044 326 
Q 2575 -91 1722 -91 
Q 1428 -91 1123 -41 
Q 819 9 494 109 
L 494 744 
Q 775 591 1075 516 
Q 1375 441 1709 441 
Q 2250 441 2565 725 
Q 2881 1009 2881 1497 
Q 2881 1984 2565 2268 
Q 2250 2553 1709 2553 
Q 1456 2553 1204 2497 
Q 953 2441 691 2322 
L 691 4666 
z
" transform="scale(0.015625)"/>
       </defs>
       <use xlink:href="#DejaVuSans-35"/>
      </g>
     </g>
    </g>
    <g id="xtick_7">
     <g id="line2d_7">
      <g>
       <use xlink:href="#m78e9cbda22" x="246.014932" y="297.16" style="stroke: #000000; stroke-width: 0.8"/>
      </g>
     </g>
     <g id="text_7">
      <!-- 6 -->
      <g transform="translate(240.288682 317.837188) scale(0.18 -0.18)">
       <defs>
        <path id="DejaVuSans-36" d="M 2113 2584 
Q 1688 2584 1439 2293 
Q 1191 2003 1191 1497 
Q 1191 994 1439 701 
Q 1688 409 2113 409 
Q 2538 409 2786 701 
Q 3034 994 3034 1497 
Q 3034 2003 2786 2293 
Q 2538 2584 2113 2584 
z
M 3366 4563 
L 3366 3988 
Q 3128 4100 2886 4159 
Q 2644 4219 2406 4219 
Q 1781 4219 1451 3797 
Q 1122 3375 1075 2522 
Q 1259 2794 1537 2939 
Q 1816 3084 2150 3084 
Q 2853 3084 3261 2657 
Q 3669 2231 3669 1497 
Q 3669 778 3244 343 
Q 2819 -91 2113 -91 
Q 1303 -91 875 529 
Q 447 1150 447 2328 
Q 447 3434 972 4092 
Q 1497 4750 2381 4750 
Q 2619 4750 2861 4703 
Q 3103 4656 3366 4563 
z
" transform="scale(0.015625)"/>
       </defs>
       <use xlink:href="#DejaVuSans-36"/>
      </g>
     </g>
    </g>
    <g id="xtick_8">
     <g id="line2d_8">
      <g>
       <use xlink:href="#m78e9cbda22" x="276.515741" y="297.16" style="stroke: #000000; stroke-width: 0.8"/>
      </g>
     </g>
     <g id="text_8">
      <!-- 7 -->
      <g transform="translate(270.789491 317.837188) scale(0.18 -0.18)">
       <defs>
        <path id="DejaVuSans-37" d="M 525 4666 
L 3525 4666 
L 3525 4397 
L 1831 0 
L 1172 0 
L 2766 4134 
L 525 4134 
L 525 4666 
z
" transform="scale(0.015625)"/>
       </defs>
       <use xlink:href="#DejaVuSans-37"/>
      </g>
     </g>
    </g>
    <g id="xtick_9">
     <g id="line2d_9">
      <g>
       <use xlink:href="#m78e9cbda22" x="307.01655" y="297.16" style="stroke: #000000; stroke-width: 0.8"/>
      </g>
     </g>
     <g id="text_9">
      <!-- 8 -->
      <g transform="translate(301.2903 317.837188) scale(0.18 -0.18)">
       <defs>
        <path id="DejaVuSans-38" d="M 2034 2216 
Q 1584 2216 1326 1975 
Q 1069 1734 1069 1313 
Q 1069 891 1326 650 
Q 1584 409 2034 409 
Q 2484 409 2743 651 
Q 3003 894 3003 1313 
Q 3003 1734 2745 1975 
Q 2488 2216 2034 2216 
z
M 1403 2484 
Q 997 2584 770 2862 
Q 544 3141 544 3541 
Q 544 4100 942 4425 
Q 1341 4750 2034 4750 
Q 2731 4750 3128 4425 
Q 3525 4100 3525 3541 
Q 3525 3141 3298 2862 
Q 3072 2584 2669 2484 
Q 3125 2378 3379 2068 
Q 3634 1759 3634 1313 
Q 3634 634 3220 271 
Q 2806 -91 2034 -91 
Q 1263 -91 848 271 
Q 434 634 434 1313 
Q 434 1759 690 2068 
Q 947 2378 1403 2484 
z
M 1172 3481 
Q 1172 3119 1398 2916 
Q 1625 2713 2034 2713 
Q 2441 2713 2670 2916 
Q 2900 3119 2900 3481 
Q 2900 3844 2670 4047 
Q 2441 4250 2034 4250 
Q 1625 4250 1398 4047 
Q 1172 3844 1172 3481 
z
" transform="scale(0.015625)"/>
       </defs>
       <use xlink:href="#DejaVuSans-38"/>
      </g>
     </g>
    </g>
    <g id="xtick_10">
     <g id="line2d_10">
      <g>
       <use xlink:href="#m78e9cbda22" x="337.517358" y="297.16" style="stroke: #000000; stroke-width: 0.8"/>
      </g>
     </g>
     <g id="text_10">
      <!-- 9 -->
      <g transform="translate(331.791108 317.837188) scale(0.18 -0.18)">
       <defs>
        <path id="DejaVuSans-39" d="M 703 97 
L 703 672 
Q 941 559 1184 500 
Q 1428 441 1663 441 
Q 2288 441 2617 861 
Q 2947 1281 2994 2138 
Q 2813 1869 2534 1725 
Q 2256 1581 1919 1581 
Q 1219 1581 811 2004 
Q 403 2428 403 3163 
Q 403 3881 828 4315 
Q 1253 4750 1959 4750 
Q 2769 4750 3195 4129 
Q 3622 3509 3622 2328 
Q 3622 1225 3098 567 
Q 2575 -91 1691 -91 
Q 1453 -91 1209 -44 
Q 966 3 703 97 
z
M 1959 2075 
Q 2384 2075 2632 2365 
Q 2881 2656 2881 3163 
Q 2881 3666 2632 3958 
Q 2384 4250 1959 4250 
Q 1534 4250 1286 3958 
Q 1038 3666 1038 3163 
Q 1038 2656 1286 2365 
Q 1534 2075 1959 2075 
z
" transform="scale(0.015625)"/>
       </defs>
       <use xlink:href="#DejaVuSans-39"/>
      </g>
     </g>
    </g>
    <g id="text_11">
     <!-- Time (d) -->
     <g transform="translate(150.10747 343.816875) scale(0.24 -0.24)">
      <defs>
       <path id="DejaVuSans-54" d="M -19 4666 
L 3928 4666 
L 3928 4134 
L 2272 4134 
L 2272 0 
L 1638 0 
L 1638 4134 
L -19 4134 
L -19 4666 
z
" transform="scale(0.015625)"/>
       <path id="DejaVuSans-69" d="M 603 3500 
L 1178 3500 
L 1178 0 
L 603 0 
L 603 3500 
z
M 603 4863 
L 1178 4863 
L 1178 4134 
L 603 4134 
L 603 4863 
z
" transform="scale(0.015625)"/>
       <path id="DejaVuSans-6d" d="M 3328 2828 
Q 3544 3216 3844 3400 
Q 4144 3584 4550 3584 
Q 5097 3584 5394 3201 
Q 5691 2819 5691 2113 
L 5691 0 
L 5113 0 
L 5113 2094 
Q 5113 2597 4934 2840 
Q 4756 3084 4391 3084 
Q 3944 3084 3684 2787 
Q 3425 2491 3425 1978 
L 3425 0 
L 2847 0 
L 2847 2094 
Q 2847 2600 2669 2842 
Q 2491 3084 2119 3084 
Q 1678 3084 1418 2786 
Q 1159 2488 1159 1978 
L 1159 0 
L 581 0 
L 581 3500 
L 1159 3500 
L 1159 2956 
Q 1356 3278 1631 3431 
Q 1906 3584 2284 3584 
Q 2666 3584 2933 3390 
Q 3200 3197 3328 2828 
z
" transform="scale(0.015625)"/>
       <path id="DejaVuSans-65" d="M 3597 1894 
L 3597 1613 
L 953 1613 
Q 991 1019 1311 708 
Q 1631 397 2203 397 
Q 2534 397 2845 478 
Q 3156 559 3463 722 
L 3463 178 
Q 3153 47 2828 -22 
Q 2503 -91 2169 -91 
Q 1331 -91 842 396 
Q 353 884 353 1716 
Q 353 2575 817 3079 
Q 1281 3584 2069 3584 
Q 2775 3584 3186 3129 
Q 3597 2675 3597 1894 
z
M 3022 2063 
Q 3016 2534 2758 2815 
Q 2500 3097 2075 3097 
Q 1594 3097 1305 2825 
Q 1016 2553 972 2059 
L 3022 2063 
z
" transform="scale(0.015625)"/>
       <path id="DejaVuSans-20" transform="scale(0.015625)"/>
       <path id="DejaVuSans-28" d="M 1984 4856 
Q 1566 4138 1362 3434 
Q 1159 2731 1159 2009 
Q 1159 1288 1364 580 
Q 1569 -128 1984 -844 
L 1484 -844 
Q 1016 -109 783 600 
Q 550 1309 550 2009 
Q 550 2706 781 3412 
Q 1013 4119 1484 4856 
L 1984 4856 
z
" transform="scale(0.015625)"/>
       <path id="DejaVuSans-64" d="M 2906 2969 
L 2906 4863 
L 3481 4863 
L 3481 0 
L 2906 0 
L 2906 525 
Q 2725 213 2448 61 
Q 2172 -91 1784 -91 
Q 1150 -91 751 415 
Q 353 922 353 1747 
Q 353 2572 751 3078 
Q 1150 3584 1784 3584 
Q 2172 3584 2448 3432 
Q 2725 3281 2906 2969 
z
M 947 1747 
Q 947 1113 1208 752 
Q 1469 391 1925 391 
Q 2381 391 2643 752 
Q 2906 1113 2906 1747 
Q 2906 2381 2643 2742 
Q 2381 3103 1925 3103 
Q 1469 3103 1208 2742 
Q 947 2381 947 1747 
z
" transform="scale(0.015625)"/>
       <path id="DejaVuSans-29" d="M 513 4856 
L 1013 4856 
Q 1481 4119 1714 3412 
Q 1947 2706 1947 2009 
Q 1947 1309 1714 600 
Q 1481 -109 1013 -844 
L 513 -844 
Q 928 -128 1133 580 
Q 1338 1288 1338 2009 
Q 1338 2731 1133 3434 
Q 928 4138 513 4856 
z
" transform="scale(0.015625)"/>
      </defs>
      <use xlink:href="#DejaVuSans-54"/>
      <use xlink:href="#DejaVuSans-69" x="57.958984"/>
      <use xlink:href="#DejaVuSans-6d" x="85.742188"/>
      <use xlink:href="#DejaVuSans-65" x="183.154297"/>
      <use xlink:href="#DejaVuSans-20" x="244.677734"/>
      <use xlink:href="#DejaVuSans-28" x="276.464844"/>
      <use xlink:href="#DejaVuSans-64" x="315.478516"/>
      <use xlink:href="#DejaVuSans-29" x="378.955078"/>
     </g>
    </g>
   </g>
   <g id="matplotlib.axis_2">
    <g id="ytick_1">
     <g id="line2d_11">
      <defs>
       <path id="mf774e811ac" d="M 0 0 
L -3.5 0 
" style="stroke: #000000; stroke-width: 0.8"/>
      </defs>
      <g>
       <use xlink:href="#mf774e811ac" x="59.96" y="297.16" style="stroke: #000000; stroke-width: 0.8"/>
      </g>
     </g>
     <g id="text_12">
      <!-- 0 -->
      <g transform="translate(41.5075 303.998594) scale(0.18 -0.18)">
       <use xlink:href="#DejaVuSans-30"/>
      </g>
     </g>
    </g>
    <g id="ytick_2">
     <g id="line2d_12">
      <g>
       <use xlink:href="#mf774e811ac" x="59.96" y="231.87" style="stroke: #000000; stroke-width: 0.8"/>
      </g>
     </g>
     <g id="text_13">
      <!-- 2 -->
      <g transform="translate(41.5075 238.708594) scale(0.18 -0.18)">
       <use xlink:href="#DejaVuSans-32"/>
      </g>
     </g>
    </g>
    <g id="ytick_3">
     <g id="line2d_13">
      <g>
       <use xlink:href="#mf774e811ac" x="59.96" y="166.58" style="stroke: #000000; stroke-width: 0.8"/>
      </g>
     </g>
     <g id="text_14">
      <!-- 4 -->
      <g transform="translate(41.5075 173.418594) scale(0.18 -0.18)">
       <use xlink:href="#DejaVuSans-34"/>
      </g>
     </g>
    </g>
    <g id="ytick_4">
     <g id="line2d_14">
      <g>
       <use xlink:href="#mf774e811ac" x="59.96" y="101.29" style="stroke: #000000; stroke-width: 0.8"/>
      </g>
     </g>
     <g id="text_15">
      <!-- 6 -->
      <g transform="translate(41.5075 108.128594) scale(0.18 -0.18)">
       <use xlink:href="#DejaVuSans-36"/>
      </g>
     </g>
    </g>
    <g id="ytick_5">
     <g id="line2d_15">
      <g>
       <use xlink:href="#mf774e811ac" x="59.96" y="36" style="stroke: #000000; stroke-width: 0.8"/>
      </g>
     </g>
     <g id="text_16">
      <!-- 8 -->
      <g transform="translate(41.5075 42.838594) scale(0.18 -0.18)">
       <use xlink:href="#DejaVuSans-38"/>
      </g>
     </g>
    </g>
    <g id="text_17">
     <!-- Virus (log$_{10}$ copies/mL) -->
     <g transform="translate(32.4675 304.34) rotate(-90) scale(0.24 -0.24)">
      <defs>
       <path id="DejaVuSans-56" d="M 1831 0 
L 50 4666 
L 709 4666 
L 2188 738 
L 3669 4666 
L 4325 4666 
L 2547 0 
L 1831 0 
z
" transform="scale(0.015625)"/>
       <path id="DejaVuSans-72" d="M 2631 2963 
Q 2534 3019 2420 3045 
Q 2306 3072 2169 3072 
Q 1681 3072 1420 2755 
Q 1159 2438 1159 1844 
L 1159 0 
L 581 0 
L 581 3500 
L 1159 3500 
L 1159 2956 
Q 1341 3275 1631 3429 
Q 1922 3584 2338 3584 
Q 2397 3584 2469 3576 
Q 2541 3569 2628 3553 
L 2631 2963 
z
" transform="scale(0.015625)"/>
       <path id="DejaVuSans-75" d="M 544 1381 
L 544 3500 
L 1119 3500 
L 1119 1403 
Q 1119 906 1312 657 
Q 1506 409 1894 409 
Q 2359 409 2629 706 
Q 2900 1003 2900 1516 
L 2900 3500 
L 3475 3500 
L 3475 0 
L 2900 0 
L 2900 538 
Q 2691 219 2414 64 
Q 2138 -91 1772 -91 
Q 1169 -91 856 284 
Q 544 659 544 1381 
z
M 1991 3584 
L 1991 3584 
z
" transform="scale(0.015625)"/>
       <path id="DejaVuSans-73" d="M 2834 3397 
L 2834 2853 
Q 2591 2978 2328 3040 
Q 2066 3103 1784 3103 
Q 1356 3103 1142 2972 
Q 928 2841 928 2578 
Q 928 2378 1081 2264 
Q 1234 2150 1697 2047 
L 1894 2003 
Q 2506 1872 2764 1633 
Q 3022 1394 3022 966 
Q 3022 478 2636 193 
Q 2250 -91 1575 -91 
Q 1294 -91 989 -36 
Q 684 19 347 128 
L 347 722 
Q 666 556 975 473 
Q 1284 391 1588 391 
Q 1994 391 2212 530 
Q 2431 669 2431 922 
Q 2431 1156 2273 1281 
Q 2116 1406 1581 1522 
L 1381 1569 
Q 847 1681 609 1914 
Q 372 2147 372 2553 
Q 372 3047 722 3315 
Q 1072 3584 1716 3584 
Q 2034 3584 2315 3537 
Q 2597 3491 2834 3397 
z
" transform="scale(0.015625)"/>
       <path id="DejaVuSans-6c" d="M 603 4863 
L 1178 4863 
L 1178 0 
L 603 0 
L 603 4863 
z
" transform="scale(0.015625)"/>
       <path id="DejaVuSans-6f" d="M 1959 3097 
Q 1497 3097 1228 2736 
Q 959 2375 959 1747 
Q 959 1119 1226 758 
Q 1494 397 1959 397 
Q 2419 397 2687 759 
Q 2956 1122 2956 1747 
Q 2956 2369 2687 2733 
Q 2419 3097 1959 3097 
z
M 1959 3584 
Q 2709 3584 3137 3096 
Q 3566 2609 3566 1747 
Q 3566 888 3137 398 
Q 2709 -91 1959 -91 
Q 1206 -91 779 398 
Q 353 888 353 1747 
Q 353 2609 779 3096 
Q 1206 3584 1959 3584 
z
" transform="scale(0.015625)"/>
       <path id="DejaVuSans-67" d="M 2906 1791 
Q 2906 2416 2648 2759 
Q 2391 3103 1925 3103 
Q 1463 3103 1205 2759 
Q 947 2416 947 1791 
Q 947 1169 1205 825 
Q 1463 481 1925 481 
Q 2391 481 2648 825 
Q 2906 1169 2906 1791 
z
M 3481 434 
Q 3481 -459 3084 -895 
Q 2688 -1331 1869 -1331 
Q 1566 -1331 1297 -1286 
Q 1028 -1241 775 -1147 
L 775 -588 
Q 1028 -725 1275 -790 
Q 1522 -856 1778 -856 
Q 2344 -856 2625 -561 
Q 2906 -266 2906 331 
L 2906 616 
Q 2728 306 2450 153 
Q 2172 0 1784 0 
Q 1141 0 747 490 
Q 353 981 353 1791 
Q 353 2603 747 3093 
Q 1141 3584 1784 3584 
Q 2172 3584 2450 3431 
Q 2728 3278 2906 2969 
L 2906 3500 
L 3481 3500 
L 3481 434 
z
" transform="scale(0.015625)"/>
       <path id="DejaVuSans-63" d="M 3122 3366 
L 3122 2828 
Q 2878 2963 2633 3030 
Q 2388 3097 2138 3097 
Q 1578 3097 1268 2742 
Q 959 2388 959 1747 
Q 959 1106 1268 751 
Q 1578 397 2138 397 
Q 2388 397 2633 464 
Q 2878 531 3122 666 
L 3122 134 
Q 2881 22 2623 -34 
Q 2366 -91 2075 -91 
Q 1284 -91 818 406 
Q 353 903 353 1747 
Q 353 2603 823 3093 
Q 1294 3584 2113 3584 
Q 2378 3584 2631 3529 
Q 2884 3475 3122 3366 
z
" transform="scale(0.015625)"/>
       <path id="DejaVuSans-70" d="M 1159 525 
L 1159 -1331 
L 581 -1331 
L 581 3500 
L 1159 3500 
L 1159 2969 
Q 1341 3281 1617 3432 
Q 1894 3584 2278 3584 
Q 2916 3584 3314 3078 
Q 3713 2572 3713 1747 
Q 3713 922 3314 415 
Q 2916 -91 2278 -91 
Q 1894 -91 1617 61 
Q 1341 213 1159 525 
z
M 3116 1747 
Q 3116 2381 2855 2742 
Q 2594 3103 2138 3103 
Q 1681 3103 1420 2742 
Q 1159 2381 1159 1747 
Q 1159 1113 1420 752 
Q 1681 391 2138 391 
Q 2594 391 2855 752 
Q 3116 1113 3116 1747 
z
" transform="scale(0.015625)"/>
       <path id="DejaVuSans-2f" d="M 1625 4666 
L 2156 4666 
L 531 -594 
L 0 -594 
L 1625 4666 
z
" transform="scale(0.015625)"/>
       <path id="DejaVuSans-4c" d="M 628 4666 
L 1259 4666 
L 1259 531 
L 3531 531 
L 3531 0 
L 628 0 
L 628 4666 
z
" transform="scale(0.015625)"/>
      </defs>
      <use xlink:href="#DejaVuSans-56" transform="translate(0 0.015625)"/>
      <use xlink:href="#DejaVuSans-69" transform="translate(68.408203 0.015625)"/>
      <use xlink:href="#DejaVuSans-72" transform="translate(96.191406 0.015625)"/>
      <use xlink:href="#DejaVuSans-75" transform="translate(137.304688 0.015625)"/>
      <use xlink:href="#DejaVuSans-73" transform="translate(200.683594 0.015625)"/>
      <use xlink:href="#DejaVuSans-20" transform="translate(252.783203 0.015625)"/>
      <use xlink:href="#DejaVuSans-28" transform="translate(284.570312 0.015625)"/>
      <use xlink:href="#DejaVuSans-6c" transform="translate(323.583984 0.015625)"/>
      <use xlink:href="#DejaVuSans-6f" transform="translate(351.367188 0.015625)"/>
      <use xlink:href="#DejaVuSans-67" transform="translate(412.548828 0.015625)"/>
      <use xlink:href="#DejaVuSans-31" transform="translate(476.982422 -16.390625) scale(0.7)"/>
      <use xlink:href="#DejaVuSans-30" transform="translate(521.518555 -16.390625) scale(0.7)"/>
      <use xlink:href="#DejaVuSans-20" transform="translate(568.789062 0.015625)"/>
      <use xlink:href="#DejaVuSans-63" transform="translate(600.576172 0.015625)"/>
      <use xlink:href="#DejaVuSans-6f" transform="translate(655.556641 0.015625)"/>
      <use xlink:href="#DejaVuSans-70" transform="translate(716.738281 0.015625)"/>
      <use xlink:href="#DejaVuSans-69" transform="translate(780.214844 0.015625)"/>
      <use xlink:href="#DejaVuSans-65" transform="translate(807.998047 0.015625)"/>
      <use xlink:href="#DejaVuSans-73" transform="translate(869.521484 0.015625)"/>
      <use xlink:href="#DejaVuSans-2f" transform="translate(921.621094 0.015625)"/>
      <use xlink:href="#DejaVuSans-6d" transform="translate(955.3125 0.015625)"/>
      <use xlink:href="#DejaVuSans-4c" transform="translate(1052.724609 0.015625)"/>
      <use xlink:href="#DejaVuSans-29" transform="translate(1108.4375 0.015625)"/>
     </g>
    </g>
   </g>
   <g id="patch_3">
    <path d="M 59.96 297.16 
L 59.96 36 
" style="fill: none; stroke: #000000; stroke-width: 0.8; stroke-linejoin: miter; stroke-linecap: square"/>
   </g>
   <g id="patch_4">
    <path d="M 340.567439 297.16 
L 340.567439 36 
" style="fill: none; stroke: #000000; stroke-width: 0.8; stroke-linejoin: miter; stroke-linecap: square"/>
   </g>
   <g id="patch_5">
    <path d="M 59.96 297.16 
L 340.567439 297.16 
" style="fill: none; stroke: #000000; stroke-width: 0.8; stroke-linejoin: miter; stroke-linecap: square"/>
   </g>
   <g id="patch_6">
    <path d="M 59.96 36 
L 340.567439 36 
" style="fill: none; stroke: #000000; stroke-width: 0.8; stroke-linejoin: miter; stroke-linecap: square"/>
   </g>
   <g id="PolyCollection_1">
    <defs>
     <path id="m63d4bcc847" d="M 63.010081 -62.84 
L 63.010081 -62.84 
L 63.010509 -62.84 
L 63.014788 -62.84 
L 63.057585 -62.84 
L 63.485549 -62.84 
L 63.728809 -62.84 
L 64.675217 -62.84 
L 65.123669 -62.84 
L 66.839262 -62.84 
L 67.433032 -62.84 
L 68.839722 -62.84 
L 69.572585 -62.84 
L 71.107154 -67.273618 
L 71.928252 -71.150459 
L 73.410694 -78.717927 
L 74.312336 -83.301041 
L 75.805258 -90.928871 
L 76.764498 -95.8095 
L 78.241405 -103.256988 
L 79.24487 -108.145731 
L 80.71352 -115.307453 
L 81.747914 -120.349603 
L 83.358752 -128.212904 
L 84.371421 -133.159278 
L 85.759453 -139.912279 
L 86.811193 -145.035978 
L 88.320586 -152.377178 
L 89.363376 -157.46055 
L 90.767893 -164.265312 
L 91.83416 -169.439165 
L 93.347436 -176.727897 
L 94.408694 -181.837777 
L 95.859772 -188.728806 
L 96.954738 -193.878624 
L 98.541752 -201.160696 
L 99.6559 -206.119633 
L 101.192938 -212.656872 
L 102.342916 -217.133655 
L 104.009926 -223.075933 
L 105.198736 -226.531863 
L 106.666817 -230.224146 
L 107.78136 -232.26014 
L 109.039848 -234.143065 
L 110.079392 -235.204043 
L 111.13598 -235.847693 
L 112.057102 -236.201445 
L 112.993519 -236.343032 
L 113.759313 -236.304969 
L 114.356828 -236.03126 
L 114.940052 -235.719082 
L 115.439366 -235.427828 
L 115.954594 -235.104602 
L 116.378345 -234.823866 
L 117.530063 -233.991168 
L 118.083608 -233.575113 
L 119.402556 -232.483337 
L 120.089145 -231.89904 
L 121.586679 -230.509667 
L 122.452094 -229.680641 
L 124.410055 -227.700481 
L 125.628016 -226.388457 
L 128.678097 -222.992245 
L 130.627405 -220.638697 
L 133.677485 -216.801337 
L 136.136065 -213.414971 
L 139.186146 -208.810085 
L 142.236227 -203.486468 
L 145.286308 -195.397947 
L 147.931289 -185.462261 
L 148.460285 -182.383237 
L 149.070302 -178.47433 
L 149.489184 -175.783513 
L 149.504168 -175.687066 
L 149.654013 -174.722603 
L 149.773526 -173.953374 
L 149.841142 -173.518165 
L 149.888 -173.216568 
L 149.912771 -173.057133 
L 149.929223 -172.95124 
L 149.930063 -172.945838 
L 149.938455 -172.89182 
L 149.943362 -172.860237 
L 149.94368 -172.858191 
L 149.946859 -172.837731 
L 149.95123 -172.809599 
L 149.958167 -172.764947 
L 149.961823 -172.741414 
L 149.974774 -172.658056 
L 150.005333 -172.461371 
L 150.084766 -171.950105 
L 150.315284 -170.464298 
L 151.125653 -165.235761 
L 151.626526 -161.985014 
L 153.056361 -152.706 
L 153.779249 -148.00421 
L 155.708545 -133.130804 
L 156.600549 -123.450586 
L 158.516246 -102.81919 
L 159.558356 -91.877937 
L 161.668139 -71.35715 
L 162.850172 -64.312211 
L 164.786819 -62.84 
L 166.086084 -62.84 
L 168.123816 -62.84 
L 169.533594 -62.84 
L 171.690655 -62.84 
L 173.270655 -62.84 
L 175.794371 -62.84 
L 177.790581 -62.84 
L 180.840662 -62.84 
L 183.196682 -62.84 
L 186.246762 -62.84 
L 189.296843 -62.84 
L 192.346924 -62.84 
L 195.397005 -62.84 
L 198.447086 -62.84 
L 201.497167 -62.84 
L 204.547248 -62.84 
L 207.597328 -62.84 
L 210.647409 -62.84 
L 213.69749 -62.84 
L 216.747571 -62.84 
L 219.797652 -62.84 
L 222.847733 -62.84 
L 225.897814 -62.84 
L 228.947894 -62.84 
L 231.997975 -62.84 
L 235.048056 -62.84 
L 238.098137 -62.84 
L 241.148218 -62.84 
L 244.198299 -62.84 
L 247.24838 -62.84 
L 250.29846 -62.84 
L 253.348541 -62.84 
L 256.398622 -62.84 
L 259.448703 -62.84 
L 262.498784 -62.84 
L 265.548865 -62.84 
L 268.598946 -62.84 
L 271.649026 -62.84 
L 274.699107 -62.84 
L 277.749188 -62.84 
L 280.799269 -62.84 
L 283.84935 -62.84 
L 286.899431 -62.84 
L 289.949512 -62.84 
L 292.999592 -62.84 
L 296.049673 -62.84 
L 299.099754 -62.84 
L 302.149835 -62.84 
L 305.199916 -62.84 
L 308.249997 -62.84 
L 311.300078 -62.84 
L 314.350158 -62.84 
L 317.400239 -62.84 
L 320.45032 -62.84 
L 323.500401 -62.84 
L 326.550482 -62.84 
L 329.600563 -62.84 
L 332.650644 -62.84 
L 335.700724 -62.84 
L 337.517358 -62.84 
L 337.517358 -62.84 
L 337.517358 -62.84 
L 335.700724 -62.84 
L 332.650644 -62.84 
L 329.600563 -62.84 
L 326.550482 -62.84 
L 323.500401 -62.84 
L 320.45032 -62.84 
L 317.400239 -62.84 
L 314.350158 -62.84 
L 311.300078 -62.84 
L 308.249997 -62.84 
L 305.199916 -62.84 
L 302.149835 -62.84 
L 299.099754 -62.84 
L 296.049673 -62.84 
L 292.999592 -62.84 
L 289.949512 -62.84 
L 286.899431 -62.84 
L 283.84935 -62.84 
L 280.799269 -62.84 
L 277.749188 -62.84 
L 274.699107 -62.84 
L 271.649026 -62.84 
L 268.598946 -62.84 
L 265.548865 -62.84 
L 262.498784 -62.84 
L 259.448703 -62.84 
L 256.398622 -62.84 
L 253.348541 -62.84 
L 250.29846 -62.84 
L 247.24838 -62.84 
L 244.198299 -62.84 
L 241.148218 -62.84 
L 238.098137 -62.84 
L 235.048056 -62.84 
L 231.997975 -62.84 
L 228.947894 -62.84 
L 225.897814 -62.84 
L 222.847733 -62.84 
L 219.797652 -62.84 
L 216.747571 -62.84 
L 213.69749 -62.84 
L 210.647409 -62.84 
L 207.597328 -62.84 
L 204.547248 -62.84 
L 201.497167 -62.84 
L 198.447086 -62.84 
L 195.397005 -62.84 
L 192.346924 -62.84 
L 189.296843 -62.84 
L 186.246762 -62.84 
L 183.196682 -62.84 
L 180.840662 -62.84 
L 177.790581 -62.84 
L 175.794371 -62.84 
L 173.270655 -62.84 
L 171.690655 -62.84 
L 169.533594 -71.100761 
L 168.123816 -78.572024 
L 166.086084 -90.016064 
L 164.786819 -97.413418 
L 162.850172 -108.426543 
L 161.668139 -115.277713 
L 159.558356 -127.341844 
L 158.516246 -133.38532 
L 156.600549 -144.392893 
L 155.708545 -150.332546 
L 153.779249 -166.179848 
L 153.056361 -172.075381 
L 151.626526 -182.329607 
L 151.125653 -184.759008 
L 150.315284 -187.850903 
L 150.084766 -188.730425 
L 150.005333 -189.033497 
L 149.974774 -189.150089 
L 149.961823 -189.199503 
L 149.958167 -189.213453 
L 149.95123 -189.239922 
L 149.946859 -189.256598 
L 149.94368 -189.268727 
L 149.943362 -189.26994 
L 149.938455 -189.288662 
L 149.930063 -189.320683 
L 149.929223 -189.323885 
L 149.912771 -189.386657 
L 149.888 -189.481168 
L 149.841142 -189.659951 
L 149.773526 -189.917937 
L 149.654013 -190.373927 
L 149.504168 -190.945649 
L 149.489184 -191.002821 
L 149.070302 -192.60103 
L 148.460285 -194.636942 
L 147.931289 -196.276191 
L 145.286308 -203.84204 
L 142.236227 -211.079629 
L 139.186146 -216.894152 
L 136.136065 -221.819903 
L 133.677485 -225.43078 
L 130.627405 -229.477327 
L 128.678097 -231.955343 
L 125.628016 -235.492382 
L 124.410055 -236.866052 
L 122.452094 -238.892506 
L 121.586679 -239.736355 
L 120.089145 -241.109459 
L 119.402556 -241.699497 
L 118.083608 -242.743196 
L 117.530063 -243.14417 
L 116.378345 -243.90033 
L 115.954594 -244.160717 
L 115.439366 -244.430615 
L 114.940052 -244.687635 
L 114.356828 -244.927986 
L 113.759313 -245.155429 
L 112.993519 -245.357373 
L 112.057102 -245.48501 
L 111.13598 -245.461365 
L 110.079392 -245.225354 
L 109.039848 -244.73014 
L 107.78136 -243.698597 
L 106.666817 -242.349022 
L 105.198736 -239.780686 
L 104.009926 -237.260078 
L 102.342916 -233.550363 
L 101.192938 -230.18985 
L 99.6559 -224.753616 
L 98.541752 -220.155653 
L 96.954738 -212.886274 
L 95.859772 -207.522277 
L 94.408694 -200.083222 
L 93.347436 -194.490201 
L 91.83416 -186.371598 
L 90.767893 -180.580297 
L 89.363376 -172.920507 
L 88.320586 -167.201224 
L 86.811193 -158.909292 
L 85.759453 -153.110664 
L 84.371421 -145.472021 
L 83.358752 -139.88995 
L 81.747914 -130.995423 
L 80.71352 -125.280019 
L 79.24487 -117.510131 
L 78.241405 -112.256626 
L 76.764498 -104.491165 
L 75.805258 -99.470936 
L 74.312336 -91.619897 
L 73.410694 -86.905374 
L 71.928252 -79.121198 
L 71.107154 -74.842599 
L 69.572585 -66.795351 
L 68.839722 -63.2854 
L 67.433032 -62.84 
L 66.839262 -62.84 
L 65.123669 -62.84 
L 64.675217 -62.84 
L 63.728809 -62.84 
L 63.485549 -62.84 
L 63.057585 -62.84 
L 63.014788 -62.84 
L 63.010509 -62.84 
L 63.010081 -62.84 
z
" style="stroke: #006400; stroke-opacity: 0.2"/>
    </defs>
    <g clip-path="url(#p095f1163db)">
     <use xlink:href="#m63d4bcc847" x="0" y="360" style="fill: #006400; fill-opacity: 0.2; stroke: #006400; stroke-opacity: 0.2"/>
    </g>
   </g>
   <g id="PathCollection_1">
    <defs>
     <path id="m9a2e9401af" d="M 0 4.330127 
C 1.148363 4.330127 2.249847 3.873878 3.061862 3.061862 
C 3.873878 2.249847 4.330127 1.148363 4.330127 0 
C 4.330127 -1.148363 3.873878 -2.249847 3.061862 -3.061862 
C 2.249847 -3.873878 1.148363 -4.330127 0 -4.330127 
C -1.148363 -4.330127 -2.249847 -3.873878 -3.061862 -3.061862 
C -3.873878 -2.249847 -4.330127 -1.148363 -4.330127 0 
C -4.330127 1.148363 -3.873878 2.249847 -3.061862 3.061862 
C -2.249847 3.873878 -1.148363 4.330127 0 4.330127 
z
" style="stroke: #006400; stroke-opacity: 0.8"/>
    </defs>
    <g clip-path="url(#p095f1163db)">
     <use xlink:href="#m9a2e9401af" x="63.010081" y="297.16" style="fill: #006400; fill-opacity: 0.8; stroke: #006400; stroke-opacity: 0.8"/>
     <use xlink:href="#m9a2e9401af" x="93.510889" y="180.37278" style="fill: #006400; fill-opacity: 0.8; stroke: #006400; stroke-opacity: 0.8"/>
     <use xlink:href="#m9a2e9401af" x="124.011698" y="122.481862" style="fill: #006400; fill-opacity: 0.8; stroke: #006400; stroke-opacity: 0.8"/>
     <use xlink:href="#m9a2e9401af" x="154.512507" y="202.602902" style="fill: #006400; fill-opacity: 0.8; stroke: #006400; stroke-opacity: 0.8"/>
     <use xlink:href="#m9a2e9401af" x="185.013315" y="297.16" style="fill: #006400; fill-opacity: 0.8; stroke: #006400; stroke-opacity: 0.8"/>
     <use xlink:href="#m9a2e9401af" x="215.514124" y="297.16" style="fill: #006400; fill-opacity: 0.8; stroke: #006400; stroke-opacity: 0.8"/>
     <use xlink:href="#m9a2e9401af" x="246.014932" y="297.16" style="fill: #006400; fill-opacity: 0.8; stroke: #006400; stroke-opacity: 0.8"/>
     <use xlink:href="#m9a2e9401af" x="276.515741" y="297.16" style="fill: #006400; fill-opacity: 0.8; stroke: #006400; stroke-opacity: 0.8"/>
    </g>
   </g>
   <g id="line2d_16">
    <path d="M 63.010081 297.16 
L 69.572585 297.16 
L 71.107154 290.768817 
L 85.759453 214.287571 
L 95.859772 162.280236 
L 98.541752 149.45266 
L 99.6559 144.519441 
L 101.192938 138.284074 
L 102.342916 134.171107 
L 104.009926 129.226426 
L 105.198736 126.465378 
L 106.666817 123.9285 
L 107.78136 122.57907 
L 109.039848 121.570093 
L 110.079392 121.082135 
L 111.13598 120.851343 
L 112.057102 120.833401 
L 113.759313 121.163785 
L 115.439366 121.855423 
L 116.378345 122.367419 
L 118.083608 123.482343 
L 120.089145 125.043703 
L 122.452094 127.155529 
L 125.628016 130.353835 
L 130.627405 136.052579 
L 133.677485 139.909823 
L 136.136065 143.267354 
L 139.186146 147.861634 
L 142.236227 153.192179 
L 145.286308 159.863907 
L 147.931289 167.974598 
L 149.070302 172.932536 
L 150.084766 178.980159 
L 153.779249 204.413792 
L 164.786819 281.785955 
L 166.086084 290.695817 
L 168.123816 297.16 
L 337.517358 297.16 
L 337.517358 297.16 
" clip-path="url(#p095f1163db)" style="fill: none; stroke: #006400; stroke-width: 1.5; stroke-linecap: square"/>
   </g>
  </g>
  <g id="axes_2">
   <g id="patch_7">
    <path d="M 422.83752 297.16 
L 703.444959 297.16 
L 703.444959 36 
L 422.83752 36 
z
" style="fill: #ffffff"/>
   </g>
   <g id="matplotlib.axis_3">
    <g id="xtick_11">
     <g id="line2d_17">
      <g>
       <use xlink:href="#m78e9cbda22" x="425.887601" y="297.16" style="stroke: #000000; stroke-width: 0.8"/>
      </g>
     </g>
     <g id="text_18">
      <!-- 0 -->
      <g transform="translate(420.161351 317.837188) scale(0.18 -0.18)">
       <use xlink:href="#DejaVuSans-30"/>
      </g>
     </g>
    </g>
    <g id="xtick_12">
     <g id="line2d_18">
      <g>
       <use xlink:href="#m78e9cbda22" x="456.38841" y="297.16" style="stroke: #000000; stroke-width: 0.8"/>
      </g>
     </g>
     <g id="text_19">
      <!-- 1 -->
      <g transform="translate(450.66216 317.837188) scale(0.18 -0.18)">
       <use xlink:href="#DejaVuSans-31"/>
      </g>
     </g>
    </g>
    <g id="xtick_13">
     <g id="line2d_19">
      <g>
       <use xlink:href="#m78e9cbda22" x="486.889218" y="297.16" style="stroke: #000000; stroke-width: 0.8"/>
      </g>
     </g>
     <g id="text_20">
      <!-- 2 -->
      <g transform="translate(481.162968 317.837188) scale(0.18 -0.18)">
       <use xlink:href="#DejaVuSans-32"/>
      </g>
     </g>
    </g>
    <g id="xtick_14">
     <g id="line2d_20">
      <g>
       <use xlink:href="#m78e9cbda22" x="517.390027" y="297.16" style="stroke: #000000; stroke-width: 0.8"/>
      </g>
     </g>
     <g id="text_21">
      <!-- 3 -->
      <g transform="translate(511.663777 317.837188) scale(0.18 -0.18)">
       <use xlink:href="#DejaVuSans-33"/>
      </g>
     </g>
    </g>
    <g id="xtick_15">
     <g id="line2d_21">
      <g>
       <use xlink:href="#m78e9cbda22" x="547.890836" y="297.16" style="stroke: #000000; stroke-width: 0.8"/>
      </g>
     </g>
     <g id="text_22">
      <!-- 4 -->
      <g transform="translate(542.164586 317.837188) scale(0.18 -0.18)">
       <use xlink:href="#DejaVuSans-34"/>
      </g>
     </g>
    </g>
    <g id="xtick_16">
     <g id="line2d_22">
      <g>
       <use xlink:href="#m78e9cbda22" x="578.391644" y="297.16" style="stroke: #000000; stroke-width: 0.8"/>
      </g>
     </g>
     <g id="text_23">
      <!-- 5 -->
      <g transform="translate(572.665394 317.837188) scale(0.18 -0.18)">
       <use xlink:href="#DejaVuSans-35"/>
      </g>
     </g>
    </g>
    <g id="xtick_17">
     <g id="line2d_23">
      <g>
       <use xlink:href="#m78e9cbda22" x="608.892453" y="297.16" style="stroke: #000000; stroke-width: 0.8"/>
      </g>
     </g>
     <g id="text_24">
      <!-- 6 -->
      <g transform="translate(603.166203 317.837188) scale(0.18 -0.18)">
       <use xlink:href="#DejaVuSans-36"/>
      </g>
     </g>
    </g>
    <g id="xtick_18">
     <g id="line2d_24">
      <g>
       <use xlink:href="#m78e9cbda22" x="639.393261" y="297.16" style="stroke: #000000; stroke-width: 0.8"/>
      </g>
     </g>
     <g id="text_25">
      <!-- 7 -->
      <g transform="translate(633.667011 317.837188) scale(0.18 -0.18)">
       <use xlink:href="#DejaVuSans-37"/>
      </g>
     </g>
    </g>
    <g id="xtick_19">
     <g id="line2d_25">
      <g>
       <use xlink:href="#m78e9cbda22" x="669.89407" y="297.16" style="stroke: #000000; stroke-width: 0.8"/>
      </g>
     </g>
     <g id="text_26">
      <!-- 8 -->
      <g transform="translate(664.16782 317.837188) scale(0.18 -0.18)">
       <use xlink:href="#DejaVuSans-38"/>
      </g>
     </g>
    </g>
    <g id="xtick_20">
     <g id="line2d_26">
      <g>
       <use xlink:href="#m78e9cbda22" x="700.394878" y="297.16" style="stroke: #000000; stroke-width: 0.8"/>
      </g>
     </g>
     <g id="text_27">
      <!-- 9 -->
      <g transform="translate(694.668628 317.837188) scale(0.18 -0.18)">
       <use xlink:href="#DejaVuSans-39"/>
      </g>
     </g>
    </g>
    <g id="text_28">
     <!-- Time (d) -->
     <g transform="translate(512.98499 343.816875) scale(0.24 -0.24)">
      <use xlink:href="#DejaVuSans-54"/>
      <use xlink:href="#DejaVuSans-69" x="57.958984"/>
      <use xlink:href="#DejaVuSans-6d" x="85.742188"/>
      <use xlink:href="#DejaVuSans-65" x="183.154297"/>
      <use xlink:href="#DejaVuSans-20" x="244.677734"/>
      <use xlink:href="#DejaVuSans-28" x="276.464844"/>
      <use xlink:href="#DejaVuSans-64" x="315.478516"/>
      <use xlink:href="#DejaVuSans-29" x="378.955078"/>
     </g>
    </g>
   </g>
   <g id="matplotlib.axis_4">
    <g id="ytick_6">
     <g id="line2d_27">
      <g>
       <use xlink:href="#mf774e811ac" x="422.83752" y="297.16" style="stroke: #000000; stroke-width: 0.8"/>
      </g>
     </g>
     <g id="text_29">
      <!-- 4.0 -->
      <g transform="translate(387.211895 303.998594) scale(0.18 -0.18)">
       <defs>
        <path id="DejaVuSans-2e" d="M 684 794 
L 1344 794 
L 1344 0 
L 684 0 
L 684 794 
z
" transform="scale(0.015625)"/>
       </defs>
       <use xlink:href="#DejaVuSans-34"/>
       <use xlink:href="#DejaVuSans-2e" x="63.623047"/>
       <use xlink:href="#DejaVuSans-30" x="95.410156"/>
      </g>
     </g>
    </g>
    <g id="ytick_7">
     <g id="line2d_28">
      <g>
       <use xlink:href="#mf774e811ac" x="422.83752" y="259.851429" style="stroke: #000000; stroke-width: 0.8"/>
      </g>
     </g>
     <g id="text_30">
      <!-- 4.5 -->
      <g transform="translate(387.211895 266.690022) scale(0.18 -0.18)">
       <use xlink:href="#DejaVuSans-34"/>
       <use xlink:href="#DejaVuSans-2e" x="63.623047"/>
       <use xlink:href="#DejaVuSans-35" x="95.410156"/>
      </g>
     </g>
    </g>
    <g id="ytick_8">
     <g id="line2d_29">
      <g>
       <use xlink:href="#mf774e811ac" x="422.83752" y="222.542857" style="stroke: #000000; stroke-width: 0.8"/>
      </g>
     </g>
     <g id="text_31">
      <!-- 5.0 -->
      <g transform="translate(387.211895 229.381451) scale(0.18 -0.18)">
       <use xlink:href="#DejaVuSans-35"/>
       <use xlink:href="#DejaVuSans-2e" x="63.623047"/>
       <use xlink:href="#DejaVuSans-30" x="95.410156"/>
      </g>
     </g>
    </g>
    <g id="ytick_9">
     <g id="line2d_30">
      <g>
       <use xlink:href="#mf774e811ac" x="422.83752" y="185.234286" style="stroke: #000000; stroke-width: 0.8"/>
      </g>
     </g>
     <g id="text_32">
      <!-- 5.5 -->
      <g transform="translate(387.211895 192.072879) scale(0.18 -0.18)">
       <use xlink:href="#DejaVuSans-35"/>
       <use xlink:href="#DejaVuSans-2e" x="63.623047"/>
       <use xlink:href="#DejaVuSans-35" x="95.410156"/>
      </g>
     </g>
    </g>
    <g id="ytick_10">
     <g id="line2d_31">
      <g>
       <use xlink:href="#mf774e811ac" x="422.83752" y="147.925714" style="stroke: #000000; stroke-width: 0.8"/>
      </g>
     </g>
     <g id="text_33">
      <!-- 6.0 -->
      <g transform="translate(387.211895 154.764308) scale(0.18 -0.18)">
       <use xlink:href="#DejaVuSans-36"/>
       <use xlink:href="#DejaVuSans-2e" x="63.623047"/>
       <use xlink:href="#DejaVuSans-30" x="95.410156"/>
      </g>
     </g>
    </g>
    <g id="ytick_11">
     <g id="line2d_32">
      <g>
       <use xlink:href="#mf774e811ac" x="422.83752" y="110.617143" style="stroke: #000000; stroke-width: 0.8"/>
      </g>
     </g>
     <g id="text_34">
      <!-- 6.5 -->
      <g transform="translate(387.211895 117.455737) scale(0.18 -0.18)">
       <use xlink:href="#DejaVuSans-36"/>
       <use xlink:href="#DejaVuSans-2e" x="63.623047"/>
       <use xlink:href="#DejaVuSans-35" x="95.410156"/>
      </g>
     </g>
    </g>
    <g id="ytick_12">
     <g id="line2d_33">
      <g>
       <use xlink:href="#mf774e811ac" x="422.83752" y="73.308571" style="stroke: #000000; stroke-width: 0.8"/>
      </g>
     </g>
     <g id="text_35">
      <!-- 7.0 -->
      <g transform="translate(387.211895 80.147165) scale(0.18 -0.18)">
       <use xlink:href="#DejaVuSans-37"/>
       <use xlink:href="#DejaVuSans-2e" x="63.623047"/>
       <use xlink:href="#DejaVuSans-30" x="95.410156"/>
      </g>
     </g>
    </g>
    <g id="ytick_13">
     <g id="line2d_34">
      <g>
       <use xlink:href="#mf774e811ac" x="422.83752" y="36" style="stroke: #000000; stroke-width: 0.8"/>
      </g>
     </g>
     <g id="text_36">
      <!-- 7.5 -->
      <g transform="translate(387.211895 42.838594) scale(0.18 -0.18)">
       <use xlink:href="#DejaVuSans-37"/>
       <use xlink:href="#DejaVuSans-2e" x="63.623047"/>
       <use xlink:href="#DejaVuSans-35" x="95.410156"/>
      </g>
     </g>
    </g>
    <g id="text_37">
     <!-- CD8$^+$ TE (log$_{10}$ cells) -->
     <g transform="translate(378.171895 294.74) rotate(-90) scale(0.24 -0.24)">
      <defs>
       <path id="DejaVuSans-43" d="M 4122 4306 
L 4122 3641 
Q 3803 3938 3442 4084 
Q 3081 4231 2675 4231 
Q 1875 4231 1450 3742 
Q 1025 3253 1025 2328 
Q 1025 1406 1450 917 
Q 1875 428 2675 428 
Q 3081 428 3442 575 
Q 3803 722 4122 1019 
L 4122 359 
Q 3791 134 3420 21 
Q 3050 -91 2638 -91 
Q 1578 -91 968 557 
Q 359 1206 359 2328 
Q 359 3453 968 4101 
Q 1578 4750 2638 4750 
Q 3056 4750 3426 4639 
Q 3797 4528 4122 4306 
z
" transform="scale(0.015625)"/>
       <path id="DejaVuSans-44" d="M 1259 4147 
L 1259 519 
L 2022 519 
Q 2988 519 3436 956 
Q 3884 1394 3884 2338 
Q 3884 3275 3436 3711 
Q 2988 4147 2022 4147 
L 1259 4147 
z
M 628 4666 
L 1925 4666 
Q 3281 4666 3915 4102 
Q 4550 3538 4550 2338 
Q 4550 1131 3912 565 
Q 3275 0 1925 0 
L 628 0 
L 628 4666 
z
" transform="scale(0.015625)"/>
       <path id="DejaVuSans-2b" d="M 2944 4013 
L 2944 2272 
L 4684 2272 
L 4684 1741 
L 2944 1741 
L 2944 0 
L 2419 0 
L 2419 1741 
L 678 1741 
L 678 2272 
L 2419 2272 
L 2419 4013 
L 2944 4013 
z
" transform="scale(0.015625)"/>
       <path id="DejaVuSans-45" d="M 628 4666 
L 3578 4666 
L 3578 4134 
L 1259 4134 
L 1259 2753 
L 3481 2753 
L 3481 2222 
L 1259 2222 
L 1259 531 
L 3634 531 
L 3634 0 
L 628 0 
L 628 4666 
z
" transform="scale(0.015625)"/>
      </defs>
      <use xlink:href="#DejaVuSans-43" transform="translate(0 0.826562)"/>
      <use xlink:href="#DejaVuSans-44" transform="translate(69.824219 0.826562)"/>
      <use xlink:href="#DejaVuSans-38" transform="translate(146.826172 0.826562)"/>
      <use xlink:href="#DejaVuSans-2b" transform="translate(225.043945 39.107812) scale(0.7)"/>
      <use xlink:href="#DejaVuSans-20" transform="translate(300.068359 0.826562)"/>
      <use xlink:href="#DejaVuSans-54" transform="translate(331.855469 0.826562)"/>
      <use xlink:href="#DejaVuSans-45" transform="translate(392.939453 0.826562)"/>
      <use xlink:href="#DejaVuSans-20" transform="translate(456.123047 0.826562)"/>
      <use xlink:href="#DejaVuSans-28" transform="translate(487.910156 0.826562)"/>
      <use xlink:href="#DejaVuSans-6c" transform="translate(526.923828 0.826562)"/>
      <use xlink:href="#DejaVuSans-6f" transform="translate(554.707031 0.826562)"/>
      <use xlink:href="#DejaVuSans-67" transform="translate(615.888672 0.826562)"/>
      <use xlink:href="#DejaVuSans-31" transform="translate(680.322266 -15.579688) scale(0.7)"/>
      <use xlink:href="#DejaVuSans-30" transform="translate(724.858398 -15.579688) scale(0.7)"/>
      <use xlink:href="#DejaVuSans-20" transform="translate(772.128906 0.826562)"/>
      <use xlink:href="#DejaVuSans-63" transform="translate(803.916016 0.826562)"/>
      <use xlink:href="#DejaVuSans-65" transform="translate(858.896484 0.826562)"/>
      <use xlink:href="#DejaVuSans-6c" transform="translate(920.419922 0.826562)"/>
      <use xlink:href="#DejaVuSans-6c" transform="translate(948.203125 0.826562)"/>
      <use xlink:href="#DejaVuSans-73" transform="translate(975.986328 0.826562)"/>
      <use xlink:href="#DejaVuSans-29" transform="translate(1028.085938 0.826562)"/>
     </g>
    </g>
   </g>
   <g id="patch_8">
    <path d="M 422.83752 297.16 
L 422.83752 36 
" style="fill: none; stroke: #000000; stroke-width: 0.8; stroke-linejoin: miter; stroke-linecap: square"/>
   </g>
   <g id="patch_9">
    <path d="M 703.444959 297.16 
L 703.444959 36 
" style="fill: none; stroke: #000000; stroke-width: 0.8; stroke-linejoin: miter; stroke-linecap: square"/>
   </g>
   <g id="patch_10">
    <path d="M 422.83752 297.16 
L 703.444959 297.16 
" style="fill: none; stroke: #000000; stroke-width: 0.8; stroke-linejoin: miter; stroke-linecap: square"/>
   </g>
   <g id="patch_11">
    <path d="M 422.83752 36 
L 703.444959 36 
" style="fill: none; stroke: #000000; stroke-width: 0.8; stroke-linejoin: miter; stroke-linecap: square"/>
   </g>
   <g id="PolyCollection_2">
    <defs>
     <path id="m8ccdcab593" d="M 425.887601 -88.26862 
L 425.887601 -88.26862 
L 425.888029 -88.26862 
L 425.892309 -88.26862 
L 425.935105 -88.26862 
L 426.363069 -88.26862 
L 426.60633 -88.26862 
L 427.552738 -88.26862 
L 428.00119 -88.26862 
L 429.716782 -88.26862 
L 430.310552 -88.26862 
L 431.717242 -88.26862 
L 432.450106 -88.26862 
L 433.984674 -88.26862 
L 434.805772 -88.26862 
L 436.288214 -88.26862 
L 437.189856 -88.26862 
L 438.682778 -88.26862 
L 439.642018 -88.26862 
L 441.118926 -88.26862 
L 442.122391 -88.268621 
L 443.59104 -88.268622 
L 444.625434 -88.268624 
L 446.236273 -88.26863 
L 447.248941 -88.268637 
L 448.636974 -88.268651 
L 449.688713 -88.26867 
L 451.198106 -88.268715 
L 452.240896 -88.268767 
L 453.645413 -88.268877 
L 454.711681 -88.26901 
L 456.224956 -88.269321 
L 457.286214 -88.269624 
L 458.737293 -88.270357 
L 459.832259 -88.27113 
L 461.419272 -88.273192 
L 462.53342 -88.275184 
L 464.070458 -88.279913 
L 465.220437 -88.285587 
L 466.887447 -88.298427 
L 468.076256 -88.314913 
L 469.544337 -88.343569 
L 470.65888 -88.381376 
L 471.917368 -88.437606 
L 472.956912 -88.506674 
L 474.013501 -88.610834 
L 474.934623 -88.731052 
L 475.871039 -88.892934 
L 476.636833 -89.066582 
L 477.234348 -89.233367 
L 477.817573 -89.424333 
L 478.316886 -89.616526 
L 478.832115 -89.852223 
L 479.255866 -90.046073 
L 480.407583 -90.776966 
L 480.961128 -91.201222 
L 482.280076 -92.490363 
L 482.966666 -93.315908 
L 484.464199 -95.582111 
L 485.329615 -97.19299 
L 487.287575 -101.703528 
L 488.505536 -105.096235 
L 491.555617 -115.11782 
L 493.504925 -122.21407 
L 496.555006 -133.308049 
L 499.013586 -141.849224 
L 502.063666 -151.383701 
L 505.113747 -159.389786 
L 508.163828 -166.089911 
L 510.808809 -170.239122 
L 511.337806 -170.912281 
L 511.947822 -171.688541 
L 512.366704 -172.221577 
L 512.381688 -172.240646 
L 512.531533 -172.431327 
L 512.651046 -172.583409 
L 512.718663 -172.669453 
L 512.765521 -172.729081 
L 512.790292 -172.760602 
L 512.806744 -172.781538 
L 512.807583 -172.782606 
L 512.815976 -172.793286 
L 512.820883 -172.79953 
L 512.8212 -172.799935 
L 512.824379 -172.80398 
L 512.82875 -172.809542 
L 512.835687 -172.81837 
L 512.839344 -172.823022 
L 512.852295 -172.839503 
L 512.882853 -172.878389 
L 512.962286 -172.97947 
L 513.192804 -173.272809 
L 514.003173 -174.173938 
L 514.504046 -174.681866 
L 515.933881 -175.993939 
L 516.656769 -176.574333 
L 518.586066 -177.924426 
L 519.47807 -178.469489 
L 521.393766 -179.380589 
L 522.435876 -179.794676 
L 524.545659 -180.400953 
L 525.727693 -180.639182 
L 527.66434 -180.874973 
L 528.963604 -180.93995 
L 531.001336 -180.907282 
L 532.411114 -180.799669 
L 534.568175 -180.521969 
L 536.148175 -180.23598 
L 538.671891 -179.669153 
L 540.668101 -179.146032 
L 543.718182 -178.235728 
L 546.074202 -177.439995 
L 549.124283 -175.854193 
L 552.174364 -174.203375 
L 555.224444 -172.50719 
L 558.274525 -170.779658 
L 561.324606 -169.031823 
L 564.374687 -167.272044 
L 567.424768 -165.506629 
L 570.474849 -163.740342 
L 573.52493 -161.976803 
L 576.57501 -160.218793 
L 579.625091 -158.468478 
L 582.675172 -156.727589 
L 585.725253 -154.99754 
L 588.775334 -153.279528 
L 591.825415 -151.574595 
L 594.875496 -149.883676 
L 597.925576 -148.207635 
L 600.975657 -146.547288 
L 604.025738 -144.903419 
L 607.075819 -143.276792 
L 610.1259 -141.668157 
L 613.175981 -140.078258 
L 616.226062 -138.507828 
L 619.276142 -136.957599 
L 622.326223 -135.428295 
L 625.376304 -133.920632 
L 628.426385 -132.435321 
L 631.476466 -130.973058 
L 634.526547 -129.534528 
L 637.576628 -128.120397 
L 640.626708 -126.731315 
L 643.676789 -125.367904 
L 646.72687 -124.030763 
L 649.776951 -122.720461 
L 652.827032 -121.437532 
L 655.877113 -120.182475 
L 658.927194 -118.955748 
L 661.977274 -117.757767 
L 665.027355 -116.588902 
L 668.077436 -115.449476 
L 671.127517 -114.339759 
L 674.177598 -113.259972 
L 677.227679 -112.210278 
L 680.27776 -111.190789 
L 683.32784 -110.201559 
L 686.377921 -109.242584 
L 689.428002 -108.313807 
L 692.478083 -107.415112 
L 695.528164 -106.54633 
L 698.578245 -105.707236 
L 700.394878 -105.2179 
L 700.394878 -127.517985 
L 700.394878 -127.517985 
L 698.578245 -128.08306 
L 695.528164 -129.040732 
L 692.478083 -130.009773 
L 689.428002 -130.989978 
L 686.377921 -131.981138 
L 683.32784 -132.983038 
L 680.27776 -133.995463 
L 677.227679 -135.018196 
L 674.177598 -136.051015 
L 671.127517 -137.0937 
L 668.077436 -138.146028 
L 665.027355 -139.207775 
L 661.977274 -140.278719 
L 658.927194 -141.358636 
L 655.877113 -142.447303 
L 652.827032 -143.5445 
L 649.776951 -144.650004 
L 646.72687 -145.763598 
L 643.676789 -146.885064 
L 640.626708 -148.014187 
L 637.576628 -149.150754 
L 634.526547 -150.294554 
L 631.476466 -151.445379 
L 628.426385 -152.603024 
L 625.376304 -153.767285 
L 622.326223 -154.937962 
L 619.276142 -156.114857 
L 616.226062 -157.297772 
L 613.175981 -158.486514 
L 610.1259 -159.680885 
L 607.075819 -160.880691 
L 604.025738 -162.085729 
L 600.975657 -163.295794 
L 597.925576 -164.510667 
L 594.875496 -165.73011 
L 591.825415 -166.953858 
L 588.775334 -168.181605 
L 585.725253 -169.412983 
L 582.675172 -170.647532 
L 579.625091 -171.884665 
L 576.57501 -173.123609 
L 573.52493 -174.363325 
L 570.474849 -175.602397 
L 567.424768 -176.838886 
L 564.374687 -178.070113 
L 561.324606 -179.48157 
L 558.274525 -180.941526 
L 555.224444 -182.374994 
L 552.174364 -183.770383 
L 549.124283 -185.112479 
L 546.074202 -186.380436 
L 543.718182 -187.29743 
L 540.668101 -188.373458 
L 538.671891 -188.973803 
L 536.148175 -189.639137 
L 534.568175 -189.970303 
L 532.411114 -190.308939 
L 531.001336 -190.447107 
L 528.963604 -190.506745 
L 527.66434 -190.452554 
L 525.727693 -190.216302 
L 524.545659 -190.017827 
L 522.435876 -189.703656 
L 521.393766 -189.402678 
L 519.47807 -188.743707 
L 518.586066 -188.318959 
L 516.656769 -187.224919 
L 515.933881 -186.739144 
L 514.504046 -185.592392 
L 514.003173 -185.154442 
L 513.192804 -184.376795 
L 512.962286 -184.138552 
L 512.882853 -184.056457 
L 512.852295 -184.024874 
L 512.839344 -184.011489 
L 512.835687 -184.007711 
L 512.82875 -184.000541 
L 512.824379 -183.996023 
L 512.8212 -183.992738 
L 512.820883 -183.99241 
L 512.815976 -183.987338 
L 512.807583 -183.978664 
L 512.806744 -183.977797 
L 512.790292 -183.960793 
L 512.765521 -183.935192 
L 512.718663 -183.886764 
L 512.651046 -183.816881 
L 512.531533 -183.693364 
L 512.381688 -183.538497 
L 512.366704 -183.523011 
L 511.947822 -183.056788 
L 511.337806 -182.345049 
L 510.808809 -181.688895 
L 508.163828 -177.764889 
L 505.113747 -172.560535 
L 502.063666 -166.211235 
L 499.013586 -158.421357 
L 496.555006 -150.990434 
L 493.504925 -140.530616 
L 491.555617 -133.186447 
L 488.505536 -121.221572 
L 487.287575 -116.486086 
L 485.329615 -109.438318 
L 484.464199 -106.323216 
L 482.966666 -101.767184 
L 482.280076 -100.029374 
L 480.961128 -96.777416 
L 480.407583 -95.660363 
L 479.255866 -93.735744 
L 478.832115 -93.10343 
L 478.316886 -92.452391 
L 477.817573 -91.89126 
L 477.234348 -91.277766 
L 476.636833 -90.790532 
L 475.871039 -90.216614 
L 474.934623 -89.697403 
L 474.013501 -89.313618 
L 472.956912 -88.989323 
L 471.917368 -88.76747 
L 470.65888 -88.583978 
L 469.544337 -88.478496 
L 468.076256 -88.388504 
L 466.887447 -88.345401 
L 465.220437 -88.308819 
L 464.070458 -88.294605 
L 462.53342 -88.282705 
L 461.419272 -88.277785 
L 459.832259 -88.27358 
L 458.737293 -88.271801 
L 457.286214 -88.270431 
L 456.224956 -88.269789 
L 454.711681 -88.269275 
L 453.645413 -88.269047 
L 452.240896 -88.268867 
L 451.198106 -88.268781 
L 449.688713 -88.268707 
L 448.636974 -88.268674 
L 447.248941 -88.268649 
L 446.236273 -88.268638 
L 444.625434 -88.268628 
L 443.59104 -88.268624 
L 442.122391 -88.268622 
L 441.118926 -88.268621 
L 439.642018 -88.26862 
L 438.682778 -88.26862 
L 437.189856 -88.26862 
L 436.288214 -88.26862 
L 434.805772 -88.26862 
L 433.984674 -88.26862 
L 432.450106 -88.26862 
L 431.717242 -88.26862 
L 430.310552 -88.26862 
L 429.716782 -88.26862 
L 428.00119 -88.26862 
L 427.552738 -88.26862 
L 426.60633 -88.26862 
L 426.363069 -88.26862 
L 425.935105 -88.26862 
L 425.892309 -88.26862 
L 425.888029 -88.26862 
L 425.887601 -88.26862 
z
" style="stroke: #006400; stroke-opacity: 0.2"/>
    </defs>
    <g clip-path="url(#pd33bf960f7)">
     <use xlink:href="#m8ccdcab593" x="0" y="360" style="fill: #006400; fill-opacity: 0.2; stroke: #006400; stroke-opacity: 0.2"/>
    </g>
   </g>
   <g id="PathCollection_2">
    <g clip-path="url(#pd33bf960f7)">
     <use xlink:href="#m9a2e9401af" x="425.887601" y="271.73138" style="fill: #006400; fill-opacity: 0.8; stroke: #006400; stroke-opacity: 0.8"/>
     <use xlink:href="#m9a2e9401af" x="456.38841" y="216.821341" style="fill: #006400; fill-opacity: 0.8; stroke: #006400; stroke-opacity: 0.8"/>
     <use xlink:href="#m9a2e9401af" x="486.889218" y="202.381403" style="fill: #006400; fill-opacity: 0.8; stroke: #006400; stroke-opacity: 0.8"/>
     <use xlink:href="#m9a2e9401af" x="517.390027" y="187.024859" style="fill: #006400; fill-opacity: 0.8; stroke: #006400; stroke-opacity: 0.8"/>
     <use xlink:href="#m9a2e9401af" x="547.890836" y="197.216113" style="fill: #006400; fill-opacity: 0.8; stroke: #006400; stroke-opacity: 0.8"/>
     <use xlink:href="#m9a2e9401af" x="578.391644" y="193.158008" style="fill: #006400; fill-opacity: 0.8; stroke: #006400; stroke-opacity: 0.8"/>
     <use xlink:href="#m9a2e9401af" x="608.892453" y="199.269545" style="fill: #006400; fill-opacity: 0.8; stroke: #006400; stroke-opacity: 0.8"/>
     <use xlink:href="#m9a2e9401af" x="639.393261" y="213.110055" style="fill: #006400; fill-opacity: 0.8; stroke: #006400; stroke-opacity: 0.8"/>
    </g>
   </g>
   <g id="line2d_35">
    <path d="M 425.887601 271.73138 
L 468.076256 271.649811 
L 471.917368 271.406094 
L 474.013501 271.056254 
L 475.871039 270.471835 
L 477.234348 269.778718 
L 478.316886 269.004232 
L 479.255866 268.129457 
L 480.961128 265.940804 
L 482.280076 263.62423 
L 482.966666 262.186386 
L 484.464199 258.473434 
L 485.329615 255.990094 
L 487.287575 249.56313 
L 488.505536 245.1454 
L 493.504925 225.872176 
L 496.555006 214.834749 
L 499.013586 206.873293 
L 502.063666 198.341273 
L 505.113747 191.289585 
L 508.163828 185.619159 
L 511.337806 181.027707 
L 513.192804 178.89455 
L 514.504046 177.609022 
L 516.656769 175.86164 
L 519.47807 174.178073 
L 522.435876 173.043172 
L 525.727693 172.40446 
L 528.963604 172.29274 
L 532.411114 172.614341 
L 536.148175 173.353959 
L 540.668101 174.640589 
L 546.074202 176.555061 
L 552.174364 179.009245 
L 561.324606 182.974562 
L 610.1259 204.563364 
L 625.376304 210.998634 
L 640.626708 217.209837 
L 655.877113 223.159875 
L 668.077436 227.706278 
L 680.27776 232.041919 
L 692.478083 236.148623 
L 700.394878 238.683167 
L 700.394878 238.683167 
" clip-path="url(#pd33bf960f7)" style="fill: none; stroke: #006400; stroke-width: 1.5; stroke-linecap: square"/>
   </g>
  </g>
  <g id="axes_3">
   <g id="patch_12">
    <path d="M 785.715041 297.16 
L 1066.32248 297.16 
L 1066.32248 36 
L 785.715041 36 
z
" style="fill: #ffffff"/>
   </g>
   <g id="matplotlib.axis_5">
    <g id="xtick_21">
     <g id="line2d_36">
      <g>
       <use xlink:href="#m78e9cbda22" x="788.765122" y="297.16" style="stroke: #000000; stroke-width: 0.8"/>
      </g>
     </g>
     <g id="text_38">
      <!-- 0 -->
      <g transform="translate(783.038872 317.837188) scale(0.18 -0.18)">
       <use xlink:href="#DejaVuSans-30"/>
      </g>
     </g>
    </g>
    <g id="xtick_22">
     <g id="line2d_37">
      <g>
       <use xlink:href="#m78e9cbda22" x="819.26593" y="297.16" style="stroke: #000000; stroke-width: 0.8"/>
      </g>
     </g>
     <g id="text_39">
      <!-- 1 -->
      <g transform="translate(813.53968 317.837188) scale(0.18 -0.18)">
       <use xlink:href="#DejaVuSans-31"/>
      </g>
     </g>
    </g>
    <g id="xtick_23">
     <g id="line2d_38">
      <g>
       <use xlink:href="#m78e9cbda22" x="849.766739" y="297.16" style="stroke: #000000; stroke-width: 0.8"/>
      </g>
     </g>
     <g id="text_40">
      <!-- 2 -->
      <g transform="translate(844.040489 317.837188) scale(0.18 -0.18)">
       <use xlink:href="#DejaVuSans-32"/>
      </g>
     </g>
    </g>
    <g id="xtick_24">
     <g id="line2d_39">
      <g>
       <use xlink:href="#m78e9cbda22" x="880.267547" y="297.16" style="stroke: #000000; stroke-width: 0.8"/>
      </g>
     </g>
     <g id="text_41">
      <!-- 3 -->
      <g transform="translate(874.541297 317.837188) scale(0.18 -0.18)">
       <use xlink:href="#DejaVuSans-33"/>
      </g>
     </g>
    </g>
    <g id="xtick_25">
     <g id="line2d_40">
      <g>
       <use xlink:href="#m78e9cbda22" x="910.768356" y="297.16" style="stroke: #000000; stroke-width: 0.8"/>
      </g>
     </g>
     <g id="text_42">
      <!-- 4 -->
      <g transform="translate(905.042106 317.837188) scale(0.18 -0.18)">
       <use xlink:href="#DejaVuSans-34"/>
      </g>
     </g>
    </g>
    <g id="xtick_26">
     <g id="line2d_41">
      <g>
       <use xlink:href="#m78e9cbda22" x="941.269164" y="297.16" style="stroke: #000000; stroke-width: 0.8"/>
      </g>
     </g>
     <g id="text_43">
      <!-- 5 -->
      <g transform="translate(935.542914 317.837188) scale(0.18 -0.18)">
       <use xlink:href="#DejaVuSans-35"/>
      </g>
     </g>
    </g>
    <g id="xtick_27">
     <g id="line2d_42">
      <g>
       <use xlink:href="#m78e9cbda22" x="971.769973" y="297.16" style="stroke: #000000; stroke-width: 0.8"/>
      </g>
     </g>
     <g id="text_44">
      <!-- 6 -->
      <g transform="translate(966.043723 317.837188) scale(0.18 -0.18)">
       <use xlink:href="#DejaVuSans-36"/>
      </g>
     </g>
    </g>
    <g id="xtick_28">
     <g id="line2d_43">
      <g>
       <use xlink:href="#m78e9cbda22" x="1002.270782" y="297.16" style="stroke: #000000; stroke-width: 0.8"/>
      </g>
     </g>
     <g id="text_45">
      <!-- 7 -->
      <g transform="translate(996.544532 317.837188) scale(0.18 -0.18)">
       <use xlink:href="#DejaVuSans-37"/>
      </g>
     </g>
    </g>
    <g id="xtick_29">
     <g id="line2d_44">
      <g>
       <use xlink:href="#m78e9cbda22" x="1032.77159" y="297.16" style="stroke: #000000; stroke-width: 0.8"/>
      </g>
     </g>
     <g id="text_46">
      <!-- 8 -->
      <g transform="translate(1027.04534 317.837188) scale(0.18 -0.18)">
       <use xlink:href="#DejaVuSans-38"/>
      </g>
     </g>
    </g>
    <g id="xtick_30">
     <g id="line2d_45">
      <g>
       <use xlink:href="#m78e9cbda22" x="1063.272399" y="297.16" style="stroke: #000000; stroke-width: 0.8"/>
      </g>
     </g>
     <g id="text_47">
      <!-- 9 -->
      <g transform="translate(1057.546149 317.837188) scale(0.18 -0.18)">
       <use xlink:href="#DejaVuSans-39"/>
      </g>
     </g>
    </g>
    <g id="text_48">
     <!-- Time (d) -->
     <g transform="translate(875.86251 343.816875) scale(0.24 -0.24)">
      <use xlink:href="#DejaVuSans-54"/>
      <use xlink:href="#DejaVuSans-69" x="57.958984"/>
      <use xlink:href="#DejaVuSans-6d" x="85.742188"/>
      <use xlink:href="#DejaVuSans-65" x="183.154297"/>
      <use xlink:href="#DejaVuSans-20" x="244.677734"/>
      <use xlink:href="#DejaVuSans-28" x="276.464844"/>
      <use xlink:href="#DejaVuSans-64" x="315.478516"/>
      <use xlink:href="#DejaVuSans-29" x="378.955078"/>
     </g>
    </g>
   </g>
   <g id="matplotlib.axis_6">
    <g id="ytick_14">
     <g id="line2d_46">
      <g>
       <use xlink:href="#mf774e811ac" x="785.715041" y="297.16" style="stroke: #000000; stroke-width: 0.8"/>
      </g>
     </g>
     <g id="text_49">
      <!-- 3.0 -->
      <g transform="translate(750.089416 303.998594) scale(0.18 -0.18)">
       <use xlink:href="#DejaVuSans-33"/>
       <use xlink:href="#DejaVuSans-2e" x="63.623047"/>
       <use xlink:href="#DejaVuSans-30" x="95.410156"/>
      </g>
     </g>
    </g>
    <g id="ytick_15">
     <g id="line2d_47">
      <g>
       <use xlink:href="#mf774e811ac" x="785.715041" y="239.124444" style="stroke: #000000; stroke-width: 0.8"/>
      </g>
     </g>
     <g id="text_50">
      <!-- 3.5 -->
      <g transform="translate(750.089416 245.963038) scale(0.18 -0.18)">
       <use xlink:href="#DejaVuSans-33"/>
       <use xlink:href="#DejaVuSans-2e" x="63.623047"/>
       <use xlink:href="#DejaVuSans-35" x="95.410156"/>
      </g>
     </g>
    </g>
    <g id="ytick_16">
     <g id="line2d_48">
      <g>
       <use xlink:href="#mf774e811ac" x="785.715041" y="181.088889" style="stroke: #000000; stroke-width: 0.8"/>
      </g>
     </g>
     <g id="text_51">
      <!-- 4.0 -->
      <g transform="translate(750.089416 187.927483) scale(0.18 -0.18)">
       <use xlink:href="#DejaVuSans-34"/>
       <use xlink:href="#DejaVuSans-2e" x="63.623047"/>
       <use xlink:href="#DejaVuSans-30" x="95.410156"/>
      </g>
     </g>
    </g>
    <g id="ytick_17">
     <g id="line2d_49">
      <g>
       <use xlink:href="#mf774e811ac" x="785.715041" y="123.053333" style="stroke: #000000; stroke-width: 0.8"/>
      </g>
     </g>
     <g id="text_52">
      <!-- 4.5 -->
      <g transform="translate(750.089416 129.891927) scale(0.18 -0.18)">
       <use xlink:href="#DejaVuSans-34"/>
       <use xlink:href="#DejaVuSans-2e" x="63.623047"/>
       <use xlink:href="#DejaVuSans-35" x="95.410156"/>
      </g>
     </g>
    </g>
    <g id="ytick_18">
     <g id="line2d_50">
      <g>
       <use xlink:href="#mf774e811ac" x="785.715041" y="65.017778" style="stroke: #000000; stroke-width: 0.8"/>
      </g>
     </g>
     <g id="text_53">
      <!-- 5.0 -->
      <g transform="translate(750.089416 71.856372) scale(0.18 -0.18)">
       <use xlink:href="#DejaVuSans-35"/>
       <use xlink:href="#DejaVuSans-2e" x="63.623047"/>
       <use xlink:href="#DejaVuSans-30" x="95.410156"/>
      </g>
     </g>
    </g>
    <g id="text_54">
     <!-- CD8$^+$ TEM (log$_{10}$ cells) -->
     <g transform="translate(741.049416 305.06) rotate(-90) scale(0.24 -0.24)">
      <defs>
       <path id="DejaVuSans-4d" d="M 628 4666 
L 1569 4666 
L 2759 1491 
L 3956 4666 
L 4897 4666 
L 4897 0 
L 4281 0 
L 4281 4097 
L 3078 897 
L 2444 897 
L 1241 4097 
L 1241 0 
L 628 0 
L 628 4666 
z
" transform="scale(0.015625)"/>
      </defs>
      <use xlink:href="#DejaVuSans-43" transform="translate(0 0.826562)"/>
      <use xlink:href="#DejaVuSans-44" transform="translate(69.824219 0.826562)"/>
      <use xlink:href="#DejaVuSans-38" transform="translate(146.826172 0.826562)"/>
      <use xlink:href="#DejaVuSans-2b" transform="translate(225.043945 39.107812) scale(0.7)"/>
      <use xlink:href="#DejaVuSans-20" transform="translate(300.068359 0.826562)"/>
      <use xlink:href="#DejaVuSans-54" transform="translate(331.855469 0.826562)"/>
      <use xlink:href="#DejaVuSans-45" transform="translate(392.939453 0.826562)"/>
      <use xlink:href="#DejaVuSans-4d" transform="translate(456.123047 0.826562)"/>
      <use xlink:href="#DejaVuSans-20" transform="translate(542.402344 0.826562)"/>
      <use xlink:href="#DejaVuSans-28" transform="translate(574.189453 0.826562)"/>
      <use xlink:href="#DejaVuSans-6c" transform="translate(613.203125 0.826562)"/>
      <use xlink:href="#DejaVuSans-6f" transform="translate(640.986328 0.826562)"/>
      <use xlink:href="#DejaVuSans-67" transform="translate(702.167969 0.826562)"/>
      <use xlink:href="#DejaVuSans-31" transform="translate(766.601562 -15.579688) scale(0.7)"/>
      <use xlink:href="#DejaVuSans-30" transform="translate(811.137695 -15.579688) scale(0.7)"/>
      <use xlink:href="#DejaVuSans-20" transform="translate(858.408203 0.826562)"/>
      <use xlink:href="#DejaVuSans-63" transform="translate(890.195312 0.826562)"/>
      <use xlink:href="#DejaVuSans-65" transform="translate(945.175781 0.826562)"/>
      <use xlink:href="#DejaVuSans-6c" transform="translate(1006.699219 0.826562)"/>
      <use xlink:href="#DejaVuSans-6c" transform="translate(1034.482422 0.826562)"/>
      <use xlink:href="#DejaVuSans-73" transform="translate(1062.265625 0.826562)"/>
      <use xlink:href="#DejaVuSans-29" transform="translate(1114.365234 0.826562)"/>
     </g>
    </g>
   </g>
   <g id="patch_13">
    <path d="M 785.715041 297.16 
L 785.715041 36 
" style="fill: none; stroke: #000000; stroke-width: 0.8; stroke-linejoin: miter; stroke-linecap: square"/>
   </g>
   <g id="patch_14">
    <path d="M 1066.32248 297.16 
L 1066.32248 36 
" style="fill: none; stroke: #000000; stroke-width: 0.8; stroke-linejoin: miter; stroke-linecap: square"/>
   </g>
   <g id="patch_15">
    <path d="M 785.715041 297.16 
L 1066.32248 297.16 
" style="fill: none; stroke: #000000; stroke-width: 0.8; stroke-linejoin: miter; stroke-linecap: square"/>
   </g>
   <g id="patch_16">
    <path d="M 785.715041 36 
L 1066.32248 36 
" style="fill: none; stroke: #000000; stroke-width: 0.8; stroke-linejoin: miter; stroke-linecap: square"/>
   </g>
   <g id="PolyCollection_3">
    <defs>
     <path id="m8c293e524f" d="M 788.765122 -164.166787 
L 788.765122 -164.166787 
L 788.765549 -164.166787 
L 788.769829 -164.166787 
L 788.812625 -164.166787 
L 789.240589 -164.166787 
L 789.48385 -164.166787 
L 790.430258 -164.166787 
L 790.87871 -164.166787 
L 792.594303 -164.166787 
L 793.188072 -164.166787 
L 794.594763 -164.166787 
L 795.327626 -164.166787 
L 796.862195 -164.166787 
L 797.683293 -164.166787 
L 799.165734 -164.166787 
L 800.067377 -164.166787 
L 801.560299 -164.166787 
L 802.519539 -164.166787 
L 803.996446 -164.166787 
L 804.999911 -164.166787 
L 806.468561 -164.166787 
L 807.502954 -164.166787 
L 809.113793 -164.166787 
L 810.126462 -164.166787 
L 811.514494 -164.166787 
L 812.566234 -164.166787 
L 814.075626 -164.166787 
L 815.118416 -164.166787 
L 816.522934 -164.166787 
L 817.589201 -164.166787 
L 819.102477 -164.166787 
L 820.163734 -164.166787 
L 821.614813 -164.166787 
L 822.709779 -164.166787 
L 824.296793 -164.166787 
L 825.410941 -164.166787 
L 826.947978 -164.166787 
L 828.097957 -164.166787 
L 829.764967 -164.166787 
L 830.953777 -164.166787 
L 832.421857 -164.166787 
L 833.5364 -164.166787 
L 834.794889 -164.166787 
L 835.834432 -164.166787 
L 836.891021 -164.166787 
L 837.812143 -164.166787 
L 838.748559 -164.166787 
L 839.514354 -164.166787 
L 840.111868 -164.166787 
L 840.695093 -164.166787 
L 841.194406 -164.166787 
L 841.709635 -164.166787 
L 842.133386 -164.166787 
L 843.285103 -164.166787 
L 843.838649 -164.166787 
L 845.157597 -164.166787 
L 845.844186 -164.166787 
L 847.34172 -164.166787 
L 848.207135 -164.166787 
L 850.165096 -164.166787 
L 851.383057 -164.166787 
L 854.433137 -164.166787 
L 856.382445 -164.166787 
L 859.432526 -164.166788 
L 861.891106 -164.166789 
L 864.941187 -164.166794 
L 867.991268 -164.166809 
L 871.041348 -164.166858 
L 873.68633 -164.166953 
L 874.215326 -164.166993 
L 874.825342 -164.167042 
L 875.244224 -164.167077 
L 875.259209 -164.167078 
L 875.409054 -164.16709 
L 875.528566 -164.1671 
L 875.596183 -164.167105 
L 875.643041 -164.167109 
L 875.667812 -164.167111 
L 875.684264 -164.167112 
L 875.685103 -164.167112 
L 875.693496 -164.167113 
L 875.698403 -164.167113 
L 875.698721 -164.167113 
L 875.7019 -164.167113 
L 875.70627 -164.167114 
L 875.713208 -164.167114 
L 875.716864 -164.167115 
L 875.729815 -164.167116 
L 875.760373 -164.167118 
L 875.839807 -164.167128 
L 876.070325 -164.167156 
L 876.880694 -164.167272 
L 877.381566 -164.167363 
L 878.811402 -164.167738 
L 879.53429 -164.167998 
L 881.463586 -164.169142 
L 882.35559 -164.170006 
L 884.271287 -164.172899 
L 885.313397 -164.175408 
L 887.423179 -164.184325 
L 888.605213 -164.192244 
L 890.54186 -164.213317 
L 891.841125 -164.235433 
L 893.878857 -164.28925 
L 895.288635 -164.347661 
L 897.445695 -164.479313 
L 899.025696 -164.628788 
L 901.549411 -164.950436 
L 903.545622 -165.328549 
L 906.595702 -166.173741 
L 908.951722 -167.07829 
L 912.001803 -168.593514 
L 915.051884 -170.426277 
L 918.101965 -172.557986 
L 921.152046 -174.86331 
L 924.202126 -177.133453 
L 927.252207 -179.453419 
L 930.302288 -181.76832 
L 933.352369 -184.035846 
L 936.40245 -186.225567 
L 939.452531 -188.317581 
L 942.502612 -190.300654 
L 945.552692 -192.169445 
L 948.602773 -193.924162 
L 951.652854 -195.56774 
L 954.702935 -197.105075 
L 957.753016 -198.542164 
L 960.803097 -199.885484 
L 963.853178 -201.141591 
L 966.903258 -202.316868 
L 969.953339 -203.417377 
L 973.00342 -204.448782 
L 976.053501 -205.416328 
L 979.103582 -206.324841 
L 982.153663 -207.178687 
L 985.203744 -207.981862 
L 988.253824 -208.684415 
L 991.303905 -209.270528 
L 994.353986 -209.825741 
L 997.404067 -210.351989 
L 1000.454148 -210.85106 
L 1003.504229 -211.324601 
L 1006.55431 -211.774138 
L 1009.60439 -212.201084 
L 1012.654471 -212.606751 
L 1015.704552 -212.992356 
L 1018.754633 -213.359034 
L 1021.804714 -213.70784 
L 1024.854795 -214.039761 
L 1027.904876 -214.355716 
L 1030.954957 -214.656566 
L 1034.005037 -214.943117 
L 1037.055118 -215.216124 
L 1040.105199 -215.476295 
L 1043.15528 -215.724295 
L 1046.205361 -215.960749 
L 1049.255442 -216.186245 
L 1052.305523 -216.401337 
L 1055.355603 -216.606546 
L 1058.405684 -216.802362 
L 1061.455765 -216.989252 
L 1063.272399 -217.097524 
L 1063.272399 -235.27434 
L 1063.272399 -235.27434 
L 1061.455765 -235.150402 
L 1058.405684 -234.934564 
L 1055.355603 -234.707535 
L 1052.305523 -234.468442 
L 1049.255442 -234.216583 
L 1046.205361 -233.951206 
L 1043.15528 -233.671509 
L 1040.105199 -233.376633 
L 1037.055118 -233.065657 
L 1034.005037 -232.737595 
L 1030.954957 -232.39251 
L 1027.904876 -232.066968 
L 1024.854795 -231.723458 
L 1021.804714 -231.36087 
L 1018.754633 -230.978029 
L 1015.704552 -230.573622 
L 1012.654471 -230.146235 
L 1009.60439 -229.694348 
L 1006.55431 -229.216317 
L 1003.504229 -228.71036 
L 1000.454148 -228.174538 
L 997.404067 -227.606744 
L 994.353986 -227.004676 
L 991.303905 -226.365822 
L 988.253824 -225.687427 
L 985.203744 -224.96647 
L 982.153663 -224.199624 
L 979.103582 -223.383226 
L 976.053501 -222.513224 
L 973.00342 -221.585136 
L 969.953339 -220.593933 
L 966.903258 -219.534123 
L 963.853178 -218.399659 
L 960.803097 -217.183709 
L 957.753016 -215.878689 
L 954.702935 -214.476253 
L 951.652854 -212.96723 
L 948.602773 -211.341641 
L 945.552692 -209.588794 
L 942.502612 -207.69753 
L 939.452531 -205.656566 
L 936.40245 -203.455181 
L 933.352369 -201.084207 
L 930.302288 -198.536677 
L 927.252207 -195.812045 
L 924.202126 -192.917718 
L 921.152046 -189.87153 
L 918.101965 -186.706337 
L 915.051884 -183.474102 
L 912.001803 -180.247743 
L 908.951722 -177.118774 
L 906.595702 -174.837836 
L 903.545622 -172.141867 
L 901.549411 -170.556988 
L 899.025696 -168.834009 
L 897.445695 -167.927414 
L 895.288635 -166.866311 
L 893.878857 -166.301799 
L 891.841125 -165.63891 
L 890.54186 -165.30421 
L 888.605213 -164.92395 
L 887.423179 -164.744634 
L 885.313397 -164.512158 
L 884.271287 -164.431566 
L 882.35559 -164.321482 
L 881.463586 -164.287671 
L 879.53429 -164.234315 
L 878.811402 -164.220324 
L 877.381566 -164.200608 
L 876.880694 -164.195476 
L 876.070325 -164.188932 
L 875.839807 -164.187651 
L 875.760373 -164.18721 
L 875.729815 -164.18704 
L 875.716864 -164.186969 
L 875.713208 -164.186948 
L 875.70627 -164.18691 
L 875.7019 -164.186885 
L 875.698721 -164.186868 
L 875.698403 -164.186866 
L 875.693496 -164.186839 
L 875.685103 -164.186792 
L 875.684264 -164.186787 
L 875.667812 -164.186696 
L 875.643041 -164.186558 
L 875.596183 -164.186298 
L 875.528566 -164.185923 
L 875.409054 -164.185259 
L 875.259209 -164.184426 
L 875.244224 -164.184343 
L 874.825342 -164.182016 
L 874.215326 -164.178628 
L 873.68633 -164.176757 
L 871.041348 -164.170739 
L 867.991268 -164.168111 
L 864.941187 -164.167237 
L 861.891106 -164.166925 
L 859.432526 -164.166847 
L 856.382445 -164.166805 
L 854.433137 -164.166796 
L 851.383057 -164.16679 
L 850.165096 -164.166789 
L 848.207135 -164.166788 
L 847.34172 -164.166788 
L 845.844186 -164.166787 
L 845.157597 -164.166787 
L 843.838649 -164.166787 
L 843.285103 -164.166787 
L 842.133386 -164.166787 
L 841.709635 -164.166787 
L 841.194406 -164.166787 
L 840.695093 -164.166787 
L 840.111868 -164.166787 
L 839.514354 -164.166787 
L 838.748559 -164.166787 
L 837.812143 -164.166787 
L 836.891021 -164.166787 
L 835.834432 -164.166787 
L 834.794889 -164.166787 
L 833.5364 -164.166787 
L 832.421857 -164.166787 
L 830.953777 -164.166787 
L 829.764967 -164.166787 
L 828.097957 -164.166787 
L 826.947978 -164.166787 
L 825.410941 -164.166787 
L 824.296793 -164.166787 
L 822.709779 -164.166787 
L 821.614813 -164.166787 
L 820.163734 -164.166787 
L 819.102477 -164.166787 
L 817.589201 -164.166787 
L 816.522934 -164.166787 
L 815.118416 -164.166787 
L 814.075626 -164.166787 
L 812.566234 -164.166787 
L 811.514494 -164.166787 
L 810.126462 -164.166787 
L 809.113793 -164.166787 
L 807.502954 -164.166787 
L 806.468561 -164.166787 
L 804.999911 -164.166787 
L 803.996446 -164.166787 
L 802.519539 -164.166787 
L 801.560299 -164.166787 
L 800.067377 -164.166787 
L 799.165734 -164.166787 
L 797.683293 -164.166787 
L 796.862195 -164.166787 
L 795.327626 -164.166787 
L 794.594763 -164.166787 
L 793.188072 -164.166787 
L 792.594303 -164.166787 
L 790.87871 -164.166787 
L 790.430258 -164.166787 
L 789.48385 -164.166787 
L 789.240589 -164.166787 
L 788.812625 -164.166787 
L 788.769829 -164.166787 
L 788.765549 -164.166787 
L 788.765122 -164.166787 
z
" style="stroke: #006400; stroke-opacity: 0.2"/>
    </defs>
    <g clip-path="url(#pcfbbfb24fb)">
     <use xlink:href="#m8c293e524f" x="0" y="360" style="fill: #006400; fill-opacity: 0.2; stroke: #006400; stroke-opacity: 0.2"/>
    </g>
   </g>
   <g id="PathCollection_3">
    <g clip-path="url(#pcfbbfb24fb)">
     <use xlink:href="#m9a2e9401af" x="788.765122" y="195.827621" style="fill: #006400; fill-opacity: 0.8; stroke: #006400; stroke-opacity: 0.8"/>
     <use xlink:href="#m9a2e9401af" x="819.26593" y="198.017115" style="fill: #006400; fill-opacity: 0.8; stroke: #006400; stroke-opacity: 0.8"/>
     <use xlink:href="#m9a2e9401af" x="849.766739" y="173.24577" style="fill: #006400; fill-opacity: 0.8; stroke: #006400; stroke-opacity: 0.8"/>
     <use xlink:href="#m9a2e9401af" x="880.267547" y="183.551884" style="fill: #006400; fill-opacity: 0.8; stroke: #006400; stroke-opacity: 0.8"/>
     <use xlink:href="#m9a2e9401af" x="910.768356" y="176.08454" style="fill: #006400; fill-opacity: 0.8; stroke: #006400; stroke-opacity: 0.8"/>
     <use xlink:href="#m9a2e9401af" x="941.269164" y="166.169755" style="fill: #006400; fill-opacity: 0.8; stroke: #006400; stroke-opacity: 0.8"/>
     <use xlink:href="#m9a2e9401af" x="971.769973" y="151.336493" style="fill: #006400; fill-opacity: 0.8; stroke: #006400; stroke-opacity: 0.8"/>
     <use xlink:href="#m9a2e9401af" x="1002.270782" y="142.801335" style="fill: #006400; fill-opacity: 0.8; stroke: #006400; stroke-opacity: 0.8"/>
    </g>
   </g>
   <g id="line2d_51">
    <path d="M 788.765122 195.833213 
L 885.313397 195.774059 
L 890.54186 195.571237 
L 893.878857 195.245255 
L 895.288635 195.031808 
L 899.025696 194.167134 
L 901.549411 193.286347 
L 903.545622 192.396826 
L 906.595702 190.692229 
L 908.951722 189.099525 
L 912.001803 186.722257 
L 915.051884 184.06208 
L 921.152046 178.263823 
L 927.252207 172.395635 
L 933.352369 166.912646 
L 936.40245 164.386946 
L 939.452531 162.01874 
L 942.502612 159.807639 
L 945.552692 157.748643 
L 948.602773 155.834278 
L 954.702935 152.403176 
L 960.803097 149.437245 
L 966.903258 146.864012 
L 973.00342 144.621173 
L 979.103582 142.657046 
L 985.203744 140.929287 
L 991.303905 139.403418 
L 997.404067 138.051008 
L 1006.55431 136.297376 
L 1015.704552 134.818556 
L 1024.854795 133.565316 
L 1034.005037 132.498908 
L 1046.205361 131.315067 
L 1058.405684 130.351499 
L 1063.272399 130.018404 
L 1063.272399 130.018404 
" clip-path="url(#pcfbbfb24fb)" style="fill: none; stroke: #006400; stroke-width: 1.5; stroke-linecap: square"/>
   </g>
  </g>
  <g id="text_55">
   <!-- Volunteer 311 -->
   <g transform="translate(649.759375 22.396875) scale(0.2 -0.2)">
    <defs>
     <path id="DejaVuSans-6e" d="M 3513 2113 
L 3513 0 
L 2938 0 
L 2938 2094 
Q 2938 2591 2744 2837 
Q 2550 3084 2163 3084 
Q 1697 3084 1428 2787 
Q 1159 2491 1159 1978 
L 1159 0 
L 581 0 
L 581 3500 
L 1159 3500 
L 1159 2956 
Q 1366 3272 1645 3428 
Q 1925 3584 2291 3584 
Q 2894 3584 3203 3211 
Q 3513 2838 3513 2113 
z
" transform="scale(0.015625)"/>
     <path id="DejaVuSans-74" d="M 1172 4494 
L 1172 3500 
L 2356 3500 
L 2356 3053 
L 1172 3053 
L 1172 1153 
Q 1172 725 1289 603 
Q 1406 481 1766 481 
L 2356 481 
L 2356 0 
L 1766 0 
Q 1100 0 847 248 
Q 594 497 594 1153 
L 594 3053 
L 172 3053 
L 172 3500 
L 594 3500 
L 594 4494 
L 1172 4494 
z
" transform="scale(0.015625)"/>
    </defs>
    <use xlink:href="#DejaVuSans-56"/>
    <use xlink:href="#DejaVuSans-6f" x="60.658203"/>
    <use xlink:href="#DejaVuSans-6c" x="121.839844"/>
    <use xlink:href="#DejaVuSans-75" x="149.623047"/>
    <use xlink:href="#DejaVuSans-6e" x="213.001953"/>
    <use xlink:href="#DejaVuSans-74" x="276.380859"/>
    <use xlink:href="#DejaVuSans-65" x="315.589844"/>
    <use xlink:href="#DejaVuSans-65" x="377.113281"/>
    <use xlink:href="#DejaVuSans-72" x="438.636719"/>
    <use xlink:href="#DejaVuSans-20" x="479.75"/>
    <use xlink:href="#DejaVuSans-33" x="511.537109"/>
    <use xlink:href="#DejaVuSans-31" x="575.160156"/>
    <use xlink:href="#DejaVuSans-31" x="638.783203"/>
   </g>
  </g>
 </g>
 <defs>
  <clipPath id="p095f1163db">
   <rect x="59.96" y="36" width="280.607439" height="261.16"/>
  </clipPath>
  <clipPath id="pd33bf960f7">
   <rect x="422.83752" y="36" width="280.607439" height="261.16"/>
  </clipPath>
  <clipPath id="pcfbbfb24fb">
   <rect x="785.715041" y="36" width="280.607439" height="261.16"/>
  </clipPath>
 </defs>
</svg>
