<?xml version="1.0" encoding="utf-8" standalone="no"?>
<!DOCTYPE svg PUBLIC "-//W3C//DTD SVG 1.1//EN"
  "http://www.w3.org/Graphics/SVG/1.1/DTD/svg11.dtd">
<svg xmlns:xlink="http://www.w3.org/1999/xlink" width="1440pt" height="360pt" viewBox="0 0 1440 360" xmlns="http://www.w3.org/2000/svg" version="1.1">
 <metadata>
  <rdf:RDF xmlns:dc="http://purl.org/dc/elements/1.1/" xmlns:cc="http://creativecommons.org/ns#" xmlns:rdf="http://www.w3.org/1999/02/22-rdf-syntax-ns#">
   <cc:Work>
    <dc:type rdf:resource="http://purl.org/dc/dcmitype/StillImage"/>
    <dc:date>2025-01-27T11:07:40.715389</dc:date>
    <dc:format>image/svg+xml</dc:format>
    <dc:creator>
     <cc:Agent>
      <dc:title>Matplotlib v3.9.2, https://matplotlib.org/</dc:title>
     </cc:Agent>
    </dc:creator>
   </cc:Work>
  </rdf:RDF>
 </metadata>
 <defs>
  <style type="text/css">*{stroke-linejoin: round; stroke-linecap: butt}</style>
 </defs>
 <g id="figure_1">
  <g id="patch_1">
   <path d="M 0 360 
L 1440 360 
L 1440 0 
L 0 0 
z
" style="fill: #ffffff"/>
  </g>
  <g id="axes_1">
   <g id="patch_2">
    <path d="M 180 320.4 
L 407.755102 320.4 
L 407.755102 43.2 
L 180 43.2 
z
" style="fill: #ffffff"/>
   </g>
   <g id="matplotlib.axis_1">
    <g id="xtick_1">
     <g id="line2d_1">
      <defs>
       <path id="m7785cb1909" d="M 0 0 
L 0 3.5 
" style="stroke: #000000; stroke-width: 0.8"/>
      </defs>
      <g>
       <use xlink:href="#m7785cb1909" x="186.698679" y="320.4" style="stroke: #000000; stroke-width: 0.8"/>
      </g>
     </g>
     <g id="text_1">
      <!-- 0 -->
      <g transform="translate(176.773179 351.107125) scale(0.312 -0.312)">
       <defs>
        <path id="DejaVuSans-30" d="M 2034 4250 
Q 1547 4250 1301 3770 
Q 1056 3291 1056 2328 
Q 1056 1369 1301 889 
Q 1547 409 2034 409 
Q 2525 409 2770 889 
Q 3016 1369 3016 2328 
Q 3016 3291 2770 3770 
Q 2525 4250 2034 4250 
z
M 2034 4750 
Q 2819 4750 3233 4129 
Q 3647 3509 3647 2328 
Q 3647 1150 3233 529 
Q 2819 -91 2034 -91 
Q 1250 -91 836 529 
Q 422 1150 422 2328 
Q 422 3509 836 4129 
Q 1250 4750 2034 4750 
z
" transform="scale(0.015625)"/>
       </defs>
       <use xlink:href="#DejaVuSans-30"/>
      </g>
     </g>
    </g>
    <g id="xtick_2">
     <g id="line2d_2">
      <g>
       <use xlink:href="#m7785cb1909" x="240.288115" y="320.4" style="stroke: #000000; stroke-width: 0.8"/>
      </g>
     </g>
     <g id="text_2">
      <!-- 2 -->
      <g transform="translate(230.362615 351.107125) scale(0.312 -0.312)">
       <defs>
        <path id="DejaVuSans-32" d="M 1228 531 
L 3431 531 
L 3431 0 
L 469 0 
L 469 531 
Q 828 903 1448 1529 
Q 2069 2156 2228 2338 
Q 2531 2678 2651 2914 
Q 2772 3150 2772 3378 
Q 2772 3750 2511 3984 
Q 2250 4219 1831 4219 
Q 1534 4219 1204 4116 
Q 875 4013 500 3803 
L 500 4441 
Q 881 4594 1212 4672 
Q 1544 4750 1819 4750 
Q 2544 4750 2975 4387 
Q 3406 4025 3406 3419 
Q 3406 3131 3298 2873 
Q 3191 2616 2906 2266 
Q 2828 2175 2409 1742 
Q 1991 1309 1228 531 
z
" transform="scale(0.015625)"/>
       </defs>
       <use xlink:href="#DejaVuSans-32"/>
      </g>
     </g>
    </g>
    <g id="xtick_3">
     <g id="line2d_3">
      <g>
       <use xlink:href="#m7785cb1909" x="293.877551" y="320.4" style="stroke: #000000; stroke-width: 0.8"/>
      </g>
     </g>
     <g id="text_3">
      <!-- 4 -->
      <g transform="translate(283.952051 351.107125) scale(0.312 -0.312)">
       <defs>
        <path id="DejaVuSans-34" d="M 2419 4116 
L 825 1625 
L 2419 1625 
L 2419 4116 
z
M 2253 4666 
L 3047 4666 
L 3047 1625 
L 3713 1625 
L 3713 1100 
L 3047 1100 
L 3047 0 
L 2419 0 
L 2419 1100 
L 313 1100 
L 313 1709 
L 2253 4666 
z
" transform="scale(0.015625)"/>
       </defs>
       <use xlink:href="#DejaVuSans-34"/>
      </g>
     </g>
    </g>
    <g id="xtick_4">
     <g id="line2d_4">
      <g>
       <use xlink:href="#m7785cb1909" x="347.466987" y="320.4" style="stroke: #000000; stroke-width: 0.8"/>
      </g>
     </g>
     <g id="text_4">
      <!-- 6 -->
      <g transform="translate(337.541487 351.107125) scale(0.312 -0.312)">
       <defs>
        <path id="DejaVuSans-36" d="M 2113 2584 
Q 1688 2584 1439 2293 
Q 1191 2003 1191 1497 
Q 1191 994 1439 701 
Q 1688 409 2113 409 
Q 2538 409 2786 701 
Q 3034 994 3034 1497 
Q 3034 2003 2786 2293 
Q 2538 2584 2113 2584 
z
M 3366 4563 
L 3366 3988 
Q 3128 4100 2886 4159 
Q 2644 4219 2406 4219 
Q 1781 4219 1451 3797 
Q 1122 3375 1075 2522 
Q 1259 2794 1537 2939 
Q 1816 3084 2150 3084 
Q 2853 3084 3261 2657 
Q 3669 2231 3669 1497 
Q 3669 778 3244 343 
Q 2819 -91 2113 -91 
Q 1303 -91 875 529 
Q 447 1150 447 2328 
Q 447 3434 972 4092 
Q 1497 4750 2381 4750 
Q 2619 4750 2861 4703 
Q 3103 4656 3366 4563 
z
" transform="scale(0.015625)"/>
       </defs>
       <use xlink:href="#DejaVuSans-36"/>
      </g>
     </g>
    </g>
    <g id="xtick_5">
     <g id="line2d_5">
      <g>
       <use xlink:href="#m7785cb1909" x="401.056423" y="320.4" style="stroke: #000000; stroke-width: 0.8"/>
      </g>
     </g>
     <g id="text_5">
      <!-- 8 -->
      <g transform="translate(391.130923 351.107125) scale(0.312 -0.312)">
       <defs>
        <path id="DejaVuSans-38" d="M 2034 2216 
Q 1584 2216 1326 1975 
Q 1069 1734 1069 1313 
Q 1069 891 1326 650 
Q 1584 409 2034 409 
Q 2484 409 2743 651 
Q 3003 894 3003 1313 
Q 3003 1734 2745 1975 
Q 2488 2216 2034 2216 
z
M 1403 2484 
Q 997 2584 770 2862 
Q 544 3141 544 3541 
Q 544 4100 942 4425 
Q 1341 4750 2034 4750 
Q 2731 4750 3128 4425 
Q 3525 4100 3525 3541 
Q 3525 3141 3298 2862 
Q 3072 2584 2669 2484 
Q 3125 2378 3379 2068 
Q 3634 1759 3634 1313 
Q 3634 634 3220 271 
Q 2806 -91 2034 -91 
Q 1263 -91 848 271 
Q 434 634 434 1313 
Q 434 1759 690 2068 
Q 947 2378 1403 2484 
z
M 1172 3481 
Q 1172 3119 1398 2916 
Q 1625 2713 2034 2713 
Q 2441 2713 2670 2916 
Q 2900 3119 2900 3481 
Q 2900 3844 2670 4047 
Q 2441 4250 2034 4250 
Q 1625 4250 1398 4047 
Q 1172 3844 1172 3481 
z
" transform="scale(0.015625)"/>
       </defs>
       <use xlink:href="#DejaVuSans-38"/>
      </g>
     </g>
    </g>
    <g id="text_6">
     <!-- Time (d) -->
     <g transform="translate(234.10802 383.327281) scale(0.286 -0.286)">
      <defs>
       <path id="DejaVuSans-54" d="M -19 4666 
L 3928 4666 
L 3928 4134 
L 2272 4134 
L 2272 0 
L 1638 0 
L 1638 4134 
L -19 4134 
L -19 4666 
z
" transform="scale(0.015625)"/>
       <path id="DejaVuSans-69" d="M 603 3500 
L 1178 3500 
L 1178 0 
L 603 0 
L 603 3500 
z
M 603 4863 
L 1178 4863 
L 1178 4134 
L 603 4134 
L 603 4863 
z
" transform="scale(0.015625)"/>
       <path id="DejaVuSans-6d" d="M 3328 2828 
Q 3544 3216 3844 3400 
Q 4144 3584 4550 3584 
Q 5097 3584 5394 3201 
Q 5691 2819 5691 2113 
L 5691 0 
L 5113 0 
L 5113 2094 
Q 5113 2597 4934 2840 
Q 4756 3084 4391 3084 
Q 3944 3084 3684 2787 
Q 3425 2491 3425 1978 
L 3425 0 
L 2847 0 
L 2847 2094 
Q 2847 2600 2669 2842 
Q 2491 3084 2119 3084 
Q 1678 3084 1418 2786 
Q 1159 2488 1159 1978 
L 1159 0 
L 581 0 
L 581 3500 
L 1159 3500 
L 1159 2956 
Q 1356 3278 1631 3431 
Q 1906 3584 2284 3584 
Q 2666 3584 2933 3390 
Q 3200 3197 3328 2828 
z
" transform="scale(0.015625)"/>
       <path id="DejaVuSans-65" d="M 3597 1894 
L 3597 1613 
L 953 1613 
Q 991 1019 1311 708 
Q 1631 397 2203 397 
Q 2534 397 2845 478 
Q 3156 559 3463 722 
L 3463 178 
Q 3153 47 2828 -22 
Q 2503 -91 2169 -91 
Q 1331 -91 842 396 
Q 353 884 353 1716 
Q 353 2575 817 3079 
Q 1281 3584 2069 3584 
Q 2775 3584 3186 3129 
Q 3597 2675 3597 1894 
z
M 3022 2063 
Q 3016 2534 2758 2815 
Q 2500 3097 2075 3097 
Q 1594 3097 1305 2825 
Q 1016 2553 972 2059 
L 3022 2063 
z
" transform="scale(0.015625)"/>
       <path id="DejaVuSans-20" transform="scale(0.015625)"/>
       <path id="DejaVuSans-28" d="M 1984 4856 
Q 1566 4138 1362 3434 
Q 1159 2731 1159 2009 
Q 1159 1288 1364 580 
Q 1569 -128 1984 -844 
L 1484 -844 
Q 1016 -109 783 600 
Q 550 1309 550 2009 
Q 550 2706 781 3412 
Q 1013 4119 1484 4856 
L 1984 4856 
z
" transform="scale(0.015625)"/>
       <path id="DejaVuSans-64" d="M 2906 2969 
L 2906 4863 
L 3481 4863 
L 3481 0 
L 2906 0 
L 2906 525 
Q 2725 213 2448 61 
Q 2172 -91 1784 -91 
Q 1150 -91 751 415 
Q 353 922 353 1747 
Q 353 2572 751 3078 
Q 1150 3584 1784 3584 
Q 2172 3584 2448 3432 
Q 2725 3281 2906 2969 
z
M 947 1747 
Q 947 1113 1208 752 
Q 1469 391 1925 391 
Q 2381 391 2643 752 
Q 2906 1113 2906 1747 
Q 2906 2381 2643 2742 
Q 2381 3103 1925 3103 
Q 1469 3103 1208 2742 
Q 947 2381 947 1747 
z
" transform="scale(0.015625)"/>
       <path id="DejaVuSans-29" d="M 513 4856 
L 1013 4856 
Q 1481 4119 1714 3412 
Q 1947 2706 1947 2009 
Q 1947 1309 1714 600 
Q 1481 -109 1013 -844 
L 513 -844 
Q 928 -128 1133 580 
Q 1338 1288 1338 2009 
Q 1338 2731 1133 3434 
Q 928 4138 513 4856 
z
" transform="scale(0.015625)"/>
      </defs>
      <use xlink:href="#DejaVuSans-54"/>
      <use xlink:href="#DejaVuSans-69" x="57.958984"/>
      <use xlink:href="#DejaVuSans-6d" x="85.742188"/>
      <use xlink:href="#DejaVuSans-65" x="183.154297"/>
      <use xlink:href="#DejaVuSans-20" x="244.677734"/>
      <use xlink:href="#DejaVuSans-28" x="276.464844"/>
      <use xlink:href="#DejaVuSans-64" x="315.478516"/>
      <use xlink:href="#DejaVuSans-29" x="378.955078"/>
     </g>
    </g>
   </g>
   <g id="matplotlib.axis_2">
    <g id="ytick_1">
     <g id="line2d_6">
      <defs>
       <path id="me960d7b4be" d="M 0 0 
L -3.5 0 
" style="stroke: #000000; stroke-width: 0.8"/>
      </defs>
      <g>
       <use xlink:href="#me960d7b4be" x="180" y="320.4" style="stroke: #000000; stroke-width: 0.8"/>
      </g>
     </g>
     <g id="text_7">
      <!-- 0 -->
      <g transform="translate(153.149 332.253562) scale(0.312 -0.312)">
       <use xlink:href="#DejaVuSans-30"/>
      </g>
     </g>
    </g>
    <g id="ytick_2">
     <g id="line2d_7">
      <g>
       <use xlink:href="#me960d7b4be" x="180" y="251.1" style="stroke: #000000; stroke-width: 0.8"/>
      </g>
     </g>
     <g id="text_8">
      <!-- 2 -->
      <g transform="translate(153.149 262.953562) scale(0.312 -0.312)">
       <use xlink:href="#DejaVuSans-32"/>
      </g>
     </g>
    </g>
    <g id="ytick_3">
     <g id="line2d_8">
      <g>
       <use xlink:href="#me960d7b4be" x="180" y="181.8" style="stroke: #000000; stroke-width: 0.8"/>
      </g>
     </g>
     <g id="text_9">
      <!-- 4 -->
      <g transform="translate(153.149 193.653562) scale(0.312 -0.312)">
       <use xlink:href="#DejaVuSans-34"/>
      </g>
     </g>
    </g>
    <g id="ytick_4">
     <g id="line2d_9">
      <g>
       <use xlink:href="#me960d7b4be" x="180" y="112.5" style="stroke: #000000; stroke-width: 0.8"/>
      </g>
     </g>
     <g id="text_10">
      <!-- 6 -->
      <g transform="translate(153.149 124.353562) scale(0.312 -0.312)">
       <use xlink:href="#DejaVuSans-36"/>
      </g>
     </g>
    </g>
    <g id="ytick_5">
     <g id="line2d_10">
      <g>
       <use xlink:href="#me960d7b4be" x="180" y="43.2" style="stroke: #000000; stroke-width: 0.8"/>
      </g>
     </g>
     <g id="text_11">
      <!-- 8 -->
      <g transform="translate(153.149 55.053562) scale(0.312 -0.312)">
       <use xlink:href="#DejaVuSans-38"/>
      </g>
     </g>
    </g>
    <g id="text_12">
     <!-- Log$_{10}$ Virus (copies/mL) -->
     <g transform="translate(143.143 349.968) rotate(-90) scale(0.286 -0.286)">
      <defs>
       <path id="DejaVuSans-4c" d="M 628 4666 
L 1259 4666 
L 1259 531 
L 3531 531 
L 3531 0 
L 628 0 
L 628 4666 
z
" transform="scale(0.015625)"/>
       <path id="DejaVuSans-6f" d="M 1959 3097 
Q 1497 3097 1228 2736 
Q 959 2375 959 1747 
Q 959 1119 1226 758 
Q 1494 397 1959 397 
Q 2419 397 2687 759 
Q 2956 1122 2956 1747 
Q 2956 2369 2687 2733 
Q 2419 3097 1959 3097 
z
M 1959 3584 
Q 2709 3584 3137 3096 
Q 3566 2609 3566 1747 
Q 3566 888 3137 398 
Q 2709 -91 1959 -91 
Q 1206 -91 779 398 
Q 353 888 353 1747 
Q 353 2609 779 3096 
Q 1206 3584 1959 3584 
z
" transform="scale(0.015625)"/>
       <path id="DejaVuSans-67" d="M 2906 1791 
Q 2906 2416 2648 2759 
Q 2391 3103 1925 3103 
Q 1463 3103 1205 2759 
Q 947 2416 947 1791 
Q 947 1169 1205 825 
Q 1463 481 1925 481 
Q 2391 481 2648 825 
Q 2906 1169 2906 1791 
z
M 3481 434 
Q 3481 -459 3084 -895 
Q 2688 -1331 1869 -1331 
Q 1566 -1331 1297 -1286 
Q 1028 -1241 775 -1147 
L 775 -588 
Q 1028 -725 1275 -790 
Q 1522 -856 1778 -856 
Q 2344 -856 2625 -561 
Q 2906 -266 2906 331 
L 2906 616 
Q 2728 306 2450 153 
Q 2172 0 1784 0 
Q 1141 0 747 490 
Q 353 981 353 1791 
Q 353 2603 747 3093 
Q 1141 3584 1784 3584 
Q 2172 3584 2450 3431 
Q 2728 3278 2906 2969 
L 2906 3500 
L 3481 3500 
L 3481 434 
z
" transform="scale(0.015625)"/>
       <path id="DejaVuSans-31" d="M 794 531 
L 1825 531 
L 1825 4091 
L 703 3866 
L 703 4441 
L 1819 4666 
L 2450 4666 
L 2450 531 
L 3481 531 
L 3481 0 
L 794 0 
L 794 531 
z
" transform="scale(0.015625)"/>
       <path id="DejaVuSans-56" d="M 1831 0 
L 50 4666 
L 709 4666 
L 2188 738 
L 3669 4666 
L 4325 4666 
L 2547 0 
L 1831 0 
z
" transform="scale(0.015625)"/>
       <path id="DejaVuSans-72" d="M 2631 2963 
Q 2534 3019 2420 3045 
Q 2306 3072 2169 3072 
Q 1681 3072 1420 2755 
Q 1159 2438 1159 1844 
L 1159 0 
L 581 0 
L 581 3500 
L 1159 3500 
L 1159 2956 
Q 1341 3275 1631 3429 
Q 1922 3584 2338 3584 
Q 2397 3584 2469 3576 
Q 2541 3569 2628 3553 
L 2631 2963 
z
" transform="scale(0.015625)"/>
       <path id="DejaVuSans-75" d="M 544 1381 
L 544 3500 
L 1119 3500 
L 1119 1403 
Q 1119 906 1312 657 
Q 1506 409 1894 409 
Q 2359 409 2629 706 
Q 2900 1003 2900 1516 
L 2900 3500 
L 3475 3500 
L 3475 0 
L 2900 0 
L 2900 538 
Q 2691 219 2414 64 
Q 2138 -91 1772 -91 
Q 1169 -91 856 284 
Q 544 659 544 1381 
z
M 1991 3584 
L 1991 3584 
z
" transform="scale(0.015625)"/>
       <path id="DejaVuSans-73" d="M 2834 3397 
L 2834 2853 
Q 2591 2978 2328 3040 
Q 2066 3103 1784 3103 
Q 1356 3103 1142 2972 
Q 928 2841 928 2578 
Q 928 2378 1081 2264 
Q 1234 2150 1697 2047 
L 1894 2003 
Q 2506 1872 2764 1633 
Q 3022 1394 3022 966 
Q 3022 478 2636 193 
Q 2250 -91 1575 -91 
Q 1294 -91 989 -36 
Q 684 19 347 128 
L 347 722 
Q 666 556 975 473 
Q 1284 391 1588 391 
Q 1994 391 2212 530 
Q 2431 669 2431 922 
Q 2431 1156 2273 1281 
Q 2116 1406 1581 1522 
L 1381 1569 
Q 847 1681 609 1914 
Q 372 2147 372 2553 
Q 372 3047 722 3315 
Q 1072 3584 1716 3584 
Q 2034 3584 2315 3537 
Q 2597 3491 2834 3397 
z
" transform="scale(0.015625)"/>
       <path id="DejaVuSans-63" d="M 3122 3366 
L 3122 2828 
Q 2878 2963 2633 3030 
Q 2388 3097 2138 3097 
Q 1578 3097 1268 2742 
Q 959 2388 959 1747 
Q 959 1106 1268 751 
Q 1578 397 2138 397 
Q 2388 397 2633 464 
Q 2878 531 3122 666 
L 3122 134 
Q 2881 22 2623 -34 
Q 2366 -91 2075 -91 
Q 1284 -91 818 406 
Q 353 903 353 1747 
Q 353 2603 823 3093 
Q 1294 3584 2113 3584 
Q 2378 3584 2631 3529 
Q 2884 3475 3122 3366 
z
" transform="scale(0.015625)"/>
       <path id="DejaVuSans-70" d="M 1159 525 
L 1159 -1331 
L 581 -1331 
L 581 3500 
L 1159 3500 
L 1159 2969 
Q 1341 3281 1617 3432 
Q 1894 3584 2278 3584 
Q 2916 3584 3314 3078 
Q 3713 2572 3713 1747 
Q 3713 922 3314 415 
Q 2916 -91 2278 -91 
Q 1894 -91 1617 61 
Q 1341 213 1159 525 
z
M 3116 1747 
Q 3116 2381 2855 2742 
Q 2594 3103 2138 3103 
Q 1681 3103 1420 2742 
Q 1159 2381 1159 1747 
Q 1159 1113 1420 752 
Q 1681 391 2138 391 
Q 2594 391 2855 752 
Q 3116 1113 3116 1747 
z
" transform="scale(0.015625)"/>
       <path id="DejaVuSans-2f" d="M 1625 4666 
L 2156 4666 
L 531 -594 
L 0 -594 
L 1625 4666 
z
" transform="scale(0.015625)"/>
      </defs>
      <use xlink:href="#DejaVuSans-4c" transform="translate(0 0.015625)"/>
      <use xlink:href="#DejaVuSans-6f" transform="translate(55.712891 0.015625)"/>
      <use xlink:href="#DejaVuSans-67" transform="translate(116.894531 0.015625)"/>
      <use xlink:href="#DejaVuSans-31" transform="translate(181.328125 -16.390625) scale(0.7)"/>
      <use xlink:href="#DejaVuSans-30" transform="translate(225.864258 -16.390625) scale(0.7)"/>
      <use xlink:href="#DejaVuSans-20" transform="translate(273.134766 0.015625)"/>
      <use xlink:href="#DejaVuSans-56" transform="translate(304.921875 0.015625)"/>
      <use xlink:href="#DejaVuSans-69" transform="translate(373.330078 0.015625)"/>
      <use xlink:href="#DejaVuSans-72" transform="translate(401.113281 0.015625)"/>
      <use xlink:href="#DejaVuSans-75" transform="translate(442.226562 0.015625)"/>
      <use xlink:href="#DejaVuSans-73" transform="translate(505.605469 0.015625)"/>
      <use xlink:href="#DejaVuSans-20" transform="translate(557.705078 0.015625)"/>
      <use xlink:href="#DejaVuSans-28" transform="translate(589.492188 0.015625)"/>
      <use xlink:href="#DejaVuSans-63" transform="translate(628.505859 0.015625)"/>
      <use xlink:href="#DejaVuSans-6f" transform="translate(683.486328 0.015625)"/>
      <use xlink:href="#DejaVuSans-70" transform="translate(744.667969 0.015625)"/>
      <use xlink:href="#DejaVuSans-69" transform="translate(808.144531 0.015625)"/>
      <use xlink:href="#DejaVuSans-65" transform="translate(835.927734 0.015625)"/>
      <use xlink:href="#DejaVuSans-73" transform="translate(897.451172 0.015625)"/>
      <use xlink:href="#DejaVuSans-2f" transform="translate(949.550781 0.015625)"/>
      <use xlink:href="#DejaVuSans-6d" transform="translate(983.242188 0.015625)"/>
      <use xlink:href="#DejaVuSans-4c" transform="translate(1080.654297 0.015625)"/>
      <use xlink:href="#DejaVuSans-29" transform="translate(1136.367188 0.015625)"/>
     </g>
    </g>
   </g>
   <g id="patch_3">
    <path d="M 180 320.4 
L 180 43.2 
" style="fill: none; stroke: #000000; stroke-width: 0.8; stroke-linejoin: miter; stroke-linecap: square"/>
   </g>
   <g id="patch_4">
    <path d="M 407.755102 320.4 
L 407.755102 43.2 
" style="fill: none; stroke: #000000; stroke-width: 0.8; stroke-linejoin: miter; stroke-linecap: square"/>
   </g>
   <g id="patch_5">
    <path d="M 180 320.4 
L 407.755102 320.4 
" style="fill: none; stroke: #000000; stroke-width: 0.8; stroke-linejoin: miter; stroke-linecap: square"/>
   </g>
   <g id="patch_6">
    <path d="M 180 43.2 
L 407.755102 43.2 
" style="fill: none; stroke: #000000; stroke-width: 0.8; stroke-linejoin: miter; stroke-linecap: square"/>
   </g>
   <g id="PolyCollection_1">
    <defs>
     <path id="md1680fa7ca" d="M 186.698679 -39.6 
L 186.698679 -39.6 
L 186.699047 -39.6 
L 186.702725 -39.6 
L 186.739506 -39.6 
L 186.865785 -39.6 
L 186.968947 -39.6 
L 187.31395 -39.6 
L 187.658952 -39.6 
L 188.513088 -39.6 
L 189.112738 -39.6 
L 190.499671 -39.6 
L 191.238383 -39.6 
L 192.65995 -40.432872 
L 193.478429 -44.704359 
L 194.879167 -52.870449 
L 195.760263 -57.99086 
L 197.153716 -66.073433 
L 198.080187 -71.447604 
L 199.459643 -79.455734 
L 200.418909 -85.03331 
L 201.78634 -92.956004 
L 202.767857 -98.652689 
L 204.252867 -107.262187 
L 205.211614 -112.832153 
L 206.505131 -120.316685 
L 207.49416 -126.050091 
L 208.890341 -134.120296 
L 209.868013 -139.783824 
L 211.169872 -147.273975 
L 212.165486 -153.00465 
L 213.56064 -160.960467 
L 214.548521 -166.580135 
L 215.882083 -174.015219 
L 216.896261 -179.597814 
L 218.345458 -187.267812 
L 219.374422 -192.487144 
L 220.950049 -199.749876 
L 221.975896 -204.071708 
L 223.413781 -209.077996 
L 224.489416 -212.131126 
L 226.103899 -215.540504 
L 227.232857 -217.11904 
L 228.69097 -218.241727 
L 229.79682 -218.235136 
L 231.185454 -217.725678 
L 232.25461 -217.046487 
L 233.579377 -216.029979 
L 234.904143 -214.836783 
L 236.242101 -213.500572 
L 237.619162 -212.006752 
L 239.041978 -210.346774 
L 240.529485 -208.510972 
L 242.08969 -206.488638 
L 243.771688 -204.190127 
L 245.453685 -201.819052 
L 247.358009 -198.977847 
L 249.262333 -196.035233 
L 251.196896 -192.826544 
L 253.611354 -188.58379 
L 256.025813 -183.767209 
L 258.705284 -177.62391 
L 261.384756 -169.031305 
L 264.064228 -155.710016 
L 264.600122 -151.842156 
L 265.136017 -144.525752 
L 265.712544 -136.116241 
L 266.029995 -129.44994 
L 266.297163 -110.097679 
L 266.430747 -97.911729 
L 266.547023 -85.596753 
L 266.663299 -74.391612 
L 266.803338 -64.177873 
L 267.072063 -42.022312 
L 267.260317 -39.6 
L 267.645245 -39.6 
L 268.030172 -39.6 
L 270.709644 -39.6 
L 271.521976 -39.6 
L 274.201448 -39.6 
L 275.278404 -39.6 
L 277.957876 -39.6 
L 279.266122 -39.6 
L 281.945594 -39.6 
L 283.481028 -39.6 
L 286.1605 -39.6 
L 287.899815 -39.6 
L 290.579286 -39.6 
L 292.49209 -39.6 
L 295.171561 -39.6 
L 297.230355 -39.6 
L 299.909827 -39.6 
L 302.093362 -39.6 
L 304.772834 -39.6 
L 307.452306 -39.6 
L 310.131777 -39.6 
L 312.811249 -39.6 
L 315.490721 -39.6 
L 318.170193 -39.6 
L 320.849665 -39.6 
L 323.529136 -39.6 
L 326.208608 -39.6 
L 328.88808 -39.6 
L 331.567552 -39.6 
L 334.247023 -39.6 
L 336.926495 -39.6 
L 339.605967 -39.6 
L 342.285439 -39.6 
L 344.964911 -39.6 
L 347.644382 -39.6 
L 350.323854 -39.6 
L 353.003326 -39.6 
L 355.682798 -39.6 
L 358.36227 -39.6 
L 361.041741 -39.6 
L 363.721213 -39.6 
L 366.400685 -39.6 
L 369.080157 -39.6 
L 371.759629 -39.6 
L 374.4391 -39.6 
L 377.118572 -39.6 
L 379.798044 -39.6 
L 382.477516 -39.6 
L 385.156987 -39.6 
L 387.836459 -39.6 
L 390.515931 -39.6 
L 393.195403 -39.6 
L 395.874875 -39.6 
L 398.554346 -39.6 
L 401.056423 -39.6 
L 401.056423 -39.6 
L 401.056423 -39.6 
L 398.554346 -39.6 
L 395.874875 -39.6 
L 393.195403 -39.6 
L 390.515931 -39.6 
L 387.836459 -39.6 
L 385.156987 -39.6 
L 382.477516 -39.6 
L 379.798044 -39.6 
L 377.118572 -39.6 
L 374.4391 -39.6 
L 371.759629 -39.6 
L 369.080157 -39.6 
L 366.400685 -39.6 
L 363.721213 -39.6 
L 361.041741 -39.6 
L 358.36227 -39.6 
L 355.682798 -39.6 
L 353.003326 -39.6 
L 350.323854 -39.6 
L 347.644382 -39.6 
L 344.964911 -39.6 
L 342.285439 -39.6 
L 339.605967 -39.6 
L 336.926495 -39.6 
L 334.247023 -39.6 
L 331.567552 -39.6 
L 328.88808 -39.6 
L 326.208608 -39.6 
L 323.529136 -39.6 
L 320.849665 -39.6 
L 318.170193 -39.6 
L 315.490721 -39.6 
L 312.811249 -39.6 
L 310.131777 -39.6 
L 307.452306 -39.6 
L 304.772834 -39.6 
L 302.093362 -39.6 
L 299.909827 -39.6 
L 297.230355 -39.6 
L 295.171561 -39.6 
L 292.49209 -40.216989 
L 290.579286 -42.595351 
L 287.899815 -48.051232 
L 286.1605 -51.792669 
L 283.481028 -57.607201 
L 281.945594 -61.013741 
L 279.266122 -67.015689 
L 277.957876 -70.051705 
L 275.278404 -76.324178 
L 274.201448 -78.994856 
L 271.521976 -85.964052 
L 270.709644 -89.010747 
L 268.030172 -117.390332 
L 267.645245 -124.667124 
L 267.260317 -132.288838 
L 267.072063 -136.083558 
L 266.803338 -140.640725 
L 266.663299 -142.378648 
L 266.547023 -144.653546 
L 266.430747 -146.358223 
L 266.297163 -149.268054 
L 266.029995 -153.380614 
L 265.712544 -157.047025 
L 265.136017 -163.741974 
L 264.600122 -168.428611 
L 264.064228 -171.908348 
L 261.384756 -184.878206 
L 258.705284 -192.605533 
L 256.025813 -198.717007 
L 253.611354 -203.269463 
L 251.196896 -207.334908 
L 249.262333 -210.345338 
L 247.358009 -213.141846 
L 245.453685 -215.786386 
L 243.771688 -218.00333 
L 242.08969 -220.111509 
L 240.529485 -221.944796 
L 239.041978 -223.57203 
L 237.619162 -225.004112 
L 236.242101 -226.255946 
L 234.904143 -227.30831 
L 233.579377 -228.23244 
L 232.25461 -228.902112 
L 231.185454 -229.249386 
L 229.79682 -229.297415 
L 228.69097 -229.003103 
L 227.232857 -228.13548 
L 226.103899 -227.305203 
L 224.489416 -224.943444 
L 223.413781 -222.758383 
L 221.975896 -219.014439 
L 220.950049 -215.86542 
L 219.374422 -209.703542 
L 218.345458 -205.032372 
L 216.896261 -197.501953 
L 215.882083 -191.940329 
L 214.548521 -184.19967 
L 213.56064 -178.324556 
L 212.165486 -169.857999 
L 211.169872 -163.750931 
L 209.868013 -155.70341 
L 208.890341 -149.630428 
L 207.49416 -140.945714 
L 206.505131 -134.784636 
L 205.211614 -126.703138 
L 204.252867 -120.712579 
L 202.767857 -111.435366 
L 201.78634 -105.313448 
L 200.418909 -96.954168 
L 199.459643 -91.1475 
L 198.080187 -82.765408 
L 197.153716 -77.159965 
L 195.760263 -68.68925 
L 194.879167 -63.361759 
L 193.478429 -54.835249 
L 192.65995 -49.93469 
L 191.238383 -41.691678 
L 190.499671 -39.613761 
L 189.112738 -39.6 
L 188.513088 -39.6 
L 187.658952 -39.6 
L 187.31395 -39.6 
L 186.968947 -39.6 
L 186.865785 -39.6 
L 186.739506 -39.6 
L 186.702725 -39.6 
L 186.699047 -39.6 
L 186.698679 -39.6 
z
" style="stroke: #006400; stroke-opacity: 0.2"/>
    </defs>
    <g clip-path="url(#pf4758d715d)">
     <use xlink:href="#md1680fa7ca" x="0" y="360" style="fill: #006400; fill-opacity: 0.2; stroke: #006400; stroke-opacity: 0.2"/>
    </g>
   </g>
   <g id="PathCollection_1">
    <defs>
     <path id="m0e49cedf9c" d="M 0 4.330127 
C 1.148363 4.330127 2.249847 3.873878 3.061862 3.061862 
C 3.873878 2.249847 4.330127 1.148363 4.330127 0 
C 4.330127 -1.148363 3.873878 -2.249847 3.061862 -3.061862 
C 2.249847 -3.873878 1.148363 -4.330127 0 -4.330127 
C -1.148363 -4.330127 -2.249847 -3.873878 -3.061862 -3.061862 
C -3.873878 -2.249847 -4.330127 -1.148363 -4.330127 0 
C -4.330127 1.148363 -3.873878 2.249847 -3.061862 3.061862 
C -2.249847 3.873878 -1.148363 4.330127 0 4.330127 
z
" style="stroke: #808080; stroke-opacity: 0.8"/>
    </defs>
    <g clip-path="url(#pf4758d715d)">
     <use xlink:href="#m0e49cedf9c" x="186.698679" y="320.4" style="fill: #808080; fill-opacity: 0.8; stroke: #808080; stroke-opacity: 0.8"/>
     <use xlink:href="#m0e49cedf9c" x="213.493397" y="196.439909" style="fill: #808080; fill-opacity: 0.8; stroke: #808080; stroke-opacity: 0.8"/>
     <use xlink:href="#m0e49cedf9c" x="240.288115" y="134.99343" style="fill: #808080; fill-opacity: 0.8; stroke: #808080; stroke-opacity: 0.8"/>
     <use xlink:href="#m0e49cedf9c" x="267.082833" y="220.035367" style="fill: #808080; fill-opacity: 0.8; stroke: #808080; stroke-opacity: 0.8"/>
     <use xlink:href="#m0e49cedf9c" x="293.877551" y="320.4" style="fill: #808080; fill-opacity: 0.8; stroke: #808080; stroke-opacity: 0.8"/>
     <use xlink:href="#m0e49cedf9c" x="320.672269" y="320.4" style="fill: #808080; fill-opacity: 0.8; stroke: #808080; stroke-opacity: 0.8"/>
     <use xlink:href="#m0e49cedf9c" x="347.466987" y="320.4" style="fill: #808080; fill-opacity: 0.8; stroke: #808080; stroke-opacity: 0.8"/>
     <use xlink:href="#m0e49cedf9c" x="374.261705" y="320.4" style="fill: #808080; fill-opacity: 0.8; stroke: #808080; stroke-opacity: 0.8"/>
    </g>
   </g>
   <g id="PathCollection_2">
    <defs>
     <path id="m719d07839a" d="M 0 4.330127 
C 1.148363 4.330127 2.249847 3.873878 3.061862 3.061862 
C 3.873878 2.249847 4.330127 1.148363 4.330127 0 
C 4.330127 -1.148363 3.873878 -2.249847 3.061862 -3.061862 
C 2.249847 -3.873878 1.148363 -4.330127 0 -4.330127 
C -1.148363 -4.330127 -2.249847 -3.873878 -3.061862 -3.061862 
C -3.873878 -2.249847 -4.330127 -1.148363 -4.330127 0 
C -4.330127 1.148363 -3.873878 2.249847 -3.061862 3.061862 
C -2.249847 3.873878 -1.148363 4.330127 0 4.330127 
z
" style="stroke: #ff8c00; stroke-opacity: 0.8"/>
    </defs>
    <g clip-path="url(#pf4758d715d)">
     <use xlink:href="#m719d07839a" x="186.698679" y="320.4" style="fill: #ff8c00; fill-opacity: 0.8; stroke: #ff8c00; stroke-opacity: 0.8"/>
     <use xlink:href="#m719d07839a" x="213.493397" y="196.439909" style="fill: #ff8c00; fill-opacity: 0.8; stroke: #ff8c00; stroke-opacity: 0.8"/>
     <use xlink:href="#m719d07839a" x="240.288115" y="134.99343" style="fill: #ff8c00; fill-opacity: 0.8; stroke: #ff8c00; stroke-opacity: 0.8"/>
     <use xlink:href="#m719d07839a" x="267.082833" y="220.035367" style="fill: #ff8c00; fill-opacity: 0.8; stroke: #ff8c00; stroke-opacity: 0.8"/>
     <use xlink:href="#m719d07839a" x="293.877551" y="320.4" style="fill: #ff8c00; fill-opacity: 0.8; stroke: #ff8c00; stroke-opacity: 0.8"/>
     <use xlink:href="#m719d07839a" x="320.672269" y="320.4" style="fill: #ff8c00; fill-opacity: 0.8; stroke: #ff8c00; stroke-opacity: 0.8"/>
     <use xlink:href="#m719d07839a" x="347.466987" y="320.4" style="fill: #ff8c00; fill-opacity: 0.8; stroke: #ff8c00; stroke-opacity: 0.8"/>
     <use xlink:href="#m719d07839a" x="374.261705" y="320.4" style="fill: #ff8c00; fill-opacity: 0.8; stroke: #ff8c00; stroke-opacity: 0.8"/>
    </g>
   </g>
   <g id="PathCollection_3">
    <defs>
     <path id="ma101296de3" d="M 0 4.330127 
C 1.148363 4.330127 2.249847 3.873878 3.061862 3.061862 
C 3.873878 2.249847 4.330127 1.148363 4.330127 0 
C 4.330127 -1.148363 3.873878 -2.249847 3.061862 -3.061862 
C 2.249847 -3.873878 1.148363 -4.330127 0 -4.330127 
C -1.148363 -4.330127 -2.249847 -3.873878 -3.061862 -3.061862 
C -3.873878 -2.249847 -4.330127 -1.148363 -4.330127 0 
C -4.330127 1.148363 -3.873878 2.249847 -3.061862 3.061862 
C -2.249847 3.873878 -1.148363 4.330127 0 4.330127 
z
" style="stroke: #ff00ff; stroke-opacity: 0.8"/>
    </defs>
    <g clip-path="url(#pf4758d715d)">
     <use xlink:href="#ma101296de3" x="186.698679" y="320.4" style="fill: #ff00ff; fill-opacity: 0.8; stroke: #ff00ff; stroke-opacity: 0.8"/>
     <use xlink:href="#ma101296de3" x="213.493397" y="196.439909" style="fill: #ff00ff; fill-opacity: 0.8; stroke: #ff00ff; stroke-opacity: 0.8"/>
     <use xlink:href="#ma101296de3" x="240.288115" y="134.99343" style="fill: #ff00ff; fill-opacity: 0.8; stroke: #ff00ff; stroke-opacity: 0.8"/>
     <use xlink:href="#ma101296de3" x="267.082833" y="220.035367" style="fill: #ff00ff; fill-opacity: 0.8; stroke: #ff00ff; stroke-opacity: 0.8"/>
     <use xlink:href="#ma101296de3" x="293.877551" y="320.4" style="fill: #ff00ff; fill-opacity: 0.8; stroke: #ff00ff; stroke-opacity: 0.8"/>
     <use xlink:href="#ma101296de3" x="320.672269" y="320.4" style="fill: #ff00ff; fill-opacity: 0.8; stroke: #ff00ff; stroke-opacity: 0.8"/>
     <use xlink:href="#ma101296de3" x="347.466987" y="320.4" style="fill: #ff00ff; fill-opacity: 0.8; stroke: #ff00ff; stroke-opacity: 0.8"/>
     <use xlink:href="#ma101296de3" x="374.261705" y="320.4" style="fill: #ff00ff; fill-opacity: 0.8; stroke: #ff00ff; stroke-opacity: 0.8"/>
    </g>
   </g>
   <g id="PathCollection_4">
    <defs>
     <path id="ma3e0113081" d="M 0 4.330127 
C 1.148363 4.330127 2.249847 3.873878 3.061862 3.061862 
C 3.873878 2.249847 4.330127 1.148363 4.330127 0 
C 4.330127 -1.148363 3.873878 -2.249847 3.061862 -3.061862 
C 2.249847 -3.873878 1.148363 -4.330127 0 -4.330127 
C -1.148363 -4.330127 -2.249847 -3.873878 -3.061862 -3.061862 
C -3.873878 -2.249847 -4.330127 -1.148363 -4.330127 0 
C -4.330127 1.148363 -3.873878 2.249847 -3.061862 3.061862 
C -2.249847 3.873878 -1.148363 4.330127 0 4.330127 
z
" style="stroke: #8b4513; stroke-opacity: 0.8"/>
    </defs>
    <g clip-path="url(#pf4758d715d)">
     <use xlink:href="#ma3e0113081" x="186.698679" y="320.4" style="fill: #8b4513; fill-opacity: 0.8; stroke: #8b4513; stroke-opacity: 0.8"/>
     <use xlink:href="#ma3e0113081" x="213.493397" y="196.439909" style="fill: #8b4513; fill-opacity: 0.8; stroke: #8b4513; stroke-opacity: 0.8"/>
     <use xlink:href="#ma3e0113081" x="240.288115" y="134.99343" style="fill: #8b4513; fill-opacity: 0.8; stroke: #8b4513; stroke-opacity: 0.8"/>
     <use xlink:href="#ma3e0113081" x="267.082833" y="220.035367" style="fill: #8b4513; fill-opacity: 0.8; stroke: #8b4513; stroke-opacity: 0.8"/>
     <use xlink:href="#ma3e0113081" x="293.877551" y="320.4" style="fill: #8b4513; fill-opacity: 0.8; stroke: #8b4513; stroke-opacity: 0.8"/>
     <use xlink:href="#ma3e0113081" x="320.672269" y="320.4" style="fill: #8b4513; fill-opacity: 0.8; stroke: #8b4513; stroke-opacity: 0.8"/>
     <use xlink:href="#ma3e0113081" x="347.466987" y="320.4" style="fill: #8b4513; fill-opacity: 0.8; stroke: #8b4513; stroke-opacity: 0.8"/>
     <use xlink:href="#ma3e0113081" x="374.261705" y="320.4" style="fill: #8b4513; fill-opacity: 0.8; stroke: #8b4513; stroke-opacity: 0.8"/>
    </g>
   </g>
   <g id="PathCollection_5">
    <defs>
     <path id="m9ffc91c2a7" d="M 0 4.330127 
C 1.148363 4.330127 2.249847 3.873878 3.061862 3.061862 
C 3.873878 2.249847 4.330127 1.148363 4.330127 0 
C 4.330127 -1.148363 3.873878 -2.249847 3.061862 -3.061862 
C 2.249847 -3.873878 1.148363 -4.330127 0 -4.330127 
C -1.148363 -4.330127 -2.249847 -3.873878 -3.061862 -3.061862 
C -3.873878 -2.249847 -4.330127 -1.148363 -4.330127 0 
C -4.330127 1.148363 -3.873878 2.249847 -3.061862 3.061862 
C -2.249847 3.873878 -1.148363 4.330127 0 4.330127 
z
" style="stroke: #ff0000; stroke-opacity: 0.8"/>
    </defs>
    <g clip-path="url(#pf4758d715d)">
     <use xlink:href="#m9ffc91c2a7" x="186.698679" y="320.4" style="fill: #ff0000; fill-opacity: 0.8; stroke: #ff0000; stroke-opacity: 0.8"/>
     <use xlink:href="#m9ffc91c2a7" x="213.493397" y="196.439909" style="fill: #ff0000; fill-opacity: 0.8; stroke: #ff0000; stroke-opacity: 0.8"/>
     <use xlink:href="#m9ffc91c2a7" x="240.288115" y="134.99343" style="fill: #ff0000; fill-opacity: 0.8; stroke: #ff0000; stroke-opacity: 0.8"/>
     <use xlink:href="#m9ffc91c2a7" x="267.082833" y="220.035367" style="fill: #ff0000; fill-opacity: 0.8; stroke: #ff0000; stroke-opacity: 0.8"/>
     <use xlink:href="#m9ffc91c2a7" x="293.877551" y="320.4" style="fill: #ff0000; fill-opacity: 0.8; stroke: #ff0000; stroke-opacity: 0.8"/>
     <use xlink:href="#m9ffc91c2a7" x="320.672269" y="320.4" style="fill: #ff0000; fill-opacity: 0.8; stroke: #ff0000; stroke-opacity: 0.8"/>
     <use xlink:href="#m9ffc91c2a7" x="347.466987" y="320.4" style="fill: #ff0000; fill-opacity: 0.8; stroke: #ff0000; stroke-opacity: 0.8"/>
     <use xlink:href="#m9ffc91c2a7" x="374.261705" y="320.4" style="fill: #ff0000; fill-opacity: 0.8; stroke: #ff0000; stroke-opacity: 0.8"/>
    </g>
   </g>
   <g id="PathCollection_6">
    <defs>
     <path id="m70ce9ce175" d="M 0 4.330127 
C 1.148363 4.330127 2.249847 3.873878 3.061862 3.061862 
C 3.873878 2.249847 4.330127 1.148363 4.330127 0 
C 4.330127 -1.148363 3.873878 -2.249847 3.061862 -3.061862 
C 2.249847 -3.873878 1.148363 -4.330127 0 -4.330127 
C -1.148363 -4.330127 -2.249847 -3.873878 -3.061862 -3.061862 
C -3.873878 -2.249847 -4.330127 -1.148363 -4.330127 0 
C -4.330127 1.148363 -3.873878 2.249847 -3.061862 3.061862 
C -2.249847 3.873878 -1.148363 4.330127 0 4.330127 
z
" style="stroke: #40e0d0; stroke-opacity: 0.8"/>
    </defs>
    <g clip-path="url(#pf4758d715d)">
     <use xlink:href="#m70ce9ce175" x="186.698679" y="320.4" style="fill: #40e0d0; fill-opacity: 0.8; stroke: #40e0d0; stroke-opacity: 0.8"/>
     <use xlink:href="#m70ce9ce175" x="213.493397" y="196.439909" style="fill: #40e0d0; fill-opacity: 0.8; stroke: #40e0d0; stroke-opacity: 0.8"/>
     <use xlink:href="#m70ce9ce175" x="240.288115" y="134.99343" style="fill: #40e0d0; fill-opacity: 0.8; stroke: #40e0d0; stroke-opacity: 0.8"/>
     <use xlink:href="#m70ce9ce175" x="267.082833" y="220.035367" style="fill: #40e0d0; fill-opacity: 0.8; stroke: #40e0d0; stroke-opacity: 0.8"/>
     <use xlink:href="#m70ce9ce175" x="293.877551" y="320.4" style="fill: #40e0d0; fill-opacity: 0.8; stroke: #40e0d0; stroke-opacity: 0.8"/>
     <use xlink:href="#m70ce9ce175" x="320.672269" y="320.4" style="fill: #40e0d0; fill-opacity: 0.8; stroke: #40e0d0; stroke-opacity: 0.8"/>
     <use xlink:href="#m70ce9ce175" x="347.466987" y="320.4" style="fill: #40e0d0; fill-opacity: 0.8; stroke: #40e0d0; stroke-opacity: 0.8"/>
     <use xlink:href="#m70ce9ce175" x="374.261705" y="320.4" style="fill: #40e0d0; fill-opacity: 0.8; stroke: #40e0d0; stroke-opacity: 0.8"/>
    </g>
   </g>
   <g id="PathCollection_7">
    <defs>
     <path id="m18e3091994" d="M 0 4.330127 
C 1.148363 4.330127 2.249847 3.873878 3.061862 3.061862 
C 3.873878 2.249847 4.330127 1.148363 4.330127 0 
C 4.330127 -1.148363 3.873878 -2.249847 3.061862 -3.061862 
C 2.249847 -3.873878 1.148363 -4.330127 0 -4.330127 
C -1.148363 -4.330127 -2.249847 -3.873878 -3.061862 -3.061862 
C -3.873878 -2.249847 -4.330127 -1.148363 -4.330127 0 
C -4.330127 1.148363 -3.873878 2.249847 -3.061862 3.061862 
C -2.249847 3.873878 -1.148363 4.330127 0 4.330127 
z
" style="stroke: #006400; stroke-opacity: 0.8"/>
    </defs>
    <g clip-path="url(#pf4758d715d)">
     <use xlink:href="#m18e3091994" x="186.698679" y="320.4" style="fill: #006400; fill-opacity: 0.8; stroke: #006400; stroke-opacity: 0.8"/>
     <use xlink:href="#m18e3091994" x="213.493397" y="196.439909" style="fill: #006400; fill-opacity: 0.8; stroke: #006400; stroke-opacity: 0.8"/>
     <use xlink:href="#m18e3091994" x="240.288115" y="134.99343" style="fill: #006400; fill-opacity: 0.8; stroke: #006400; stroke-opacity: 0.8"/>
     <use xlink:href="#m18e3091994" x="267.082833" y="220.035367" style="fill: #006400; fill-opacity: 0.8; stroke: #006400; stroke-opacity: 0.8"/>
     <use xlink:href="#m18e3091994" x="293.877551" y="320.4" style="fill: #006400; fill-opacity: 0.8; stroke: #006400; stroke-opacity: 0.8"/>
     <use xlink:href="#m18e3091994" x="320.672269" y="320.4" style="fill: #006400; fill-opacity: 0.8; stroke: #006400; stroke-opacity: 0.8"/>
     <use xlink:href="#m18e3091994" x="347.466987" y="320.4" style="fill: #006400; fill-opacity: 0.8; stroke: #006400; stroke-opacity: 0.8"/>
     <use xlink:href="#m18e3091994" x="374.261705" y="320.4" style="fill: #006400; fill-opacity: 0.8; stroke: #006400; stroke-opacity: 0.8"/>
    </g>
   </g>
   <g id="PathCollection_8">
    <defs>
     <path id="m9d3de6ce41" d="M 0 4.330127 
C 1.148363 4.330127 2.249847 3.873878 3.061862 3.061862 
C 3.873878 2.249847 4.330127 1.148363 4.330127 0 
C 4.330127 -1.148363 3.873878 -2.249847 3.061862 -3.061862 
C 2.249847 -3.873878 1.148363 -4.330127 0 -4.330127 
C -1.148363 -4.330127 -2.249847 -3.873878 -3.061862 -3.061862 
C -3.873878 -2.249847 -4.330127 -1.148363 -4.330127 0 
C -4.330127 1.148363 -3.873878 2.249847 -3.061862 3.061862 
C -2.249847 3.873878 -1.148363 4.330127 0 4.330127 
z
" style="stroke: #7cfc00; stroke-opacity: 0.8"/>
    </defs>
    <g clip-path="url(#pf4758d715d)">
     <use xlink:href="#m9d3de6ce41" x="186.698679" y="320.4" style="fill: #7cfc00; fill-opacity: 0.8; stroke: #7cfc00; stroke-opacity: 0.8"/>
     <use xlink:href="#m9d3de6ce41" x="213.493397" y="196.439909" style="fill: #7cfc00; fill-opacity: 0.8; stroke: #7cfc00; stroke-opacity: 0.8"/>
     <use xlink:href="#m9d3de6ce41" x="240.288115" y="134.99343" style="fill: #7cfc00; fill-opacity: 0.8; stroke: #7cfc00; stroke-opacity: 0.8"/>
     <use xlink:href="#m9d3de6ce41" x="267.082833" y="220.035367" style="fill: #7cfc00; fill-opacity: 0.8; stroke: #7cfc00; stroke-opacity: 0.8"/>
     <use xlink:href="#m9d3de6ce41" x="293.877551" y="320.4" style="fill: #7cfc00; fill-opacity: 0.8; stroke: #7cfc00; stroke-opacity: 0.8"/>
     <use xlink:href="#m9d3de6ce41" x="320.672269" y="320.4" style="fill: #7cfc00; fill-opacity: 0.8; stroke: #7cfc00; stroke-opacity: 0.8"/>
     <use xlink:href="#m9d3de6ce41" x="347.466987" y="320.4" style="fill: #7cfc00; fill-opacity: 0.8; stroke: #7cfc00; stroke-opacity: 0.8"/>
     <use xlink:href="#m9d3de6ce41" x="374.261705" y="320.4" style="fill: #7cfc00; fill-opacity: 0.8; stroke: #7cfc00; stroke-opacity: 0.8"/>
    </g>
   </g>
   <g id="line2d_11">
    <path d="M 186.698679 320.4 
L 191.238383 320.4 
L 193.478429 307.882787 
L 212.165486 198.261296 
L 216.896261 171.39132 
L 219.374422 158.463146 
L 220.950049 151.189609 
L 221.975896 147.024851 
L 223.413781 142.126422 
L 224.489416 139.228195 
L 226.103899 136.127378 
L 227.232857 134.747615 
L 228.69097 133.76419 
L 229.79682 133.498625 
L 231.185454 133.612721 
L 232.25461 133.969631 
L 233.579377 134.662162 
L 234.904143 135.577044 
L 236.242101 136.681354 
L 239.041978 139.441167 
L 242.08969 142.959768 
L 245.453685 147.315682 
L 249.262333 152.787006 
L 251.196896 155.815071 
L 253.611354 159.910551 
L 256.025813 164.503161 
L 258.705284 170.547406 
L 261.384756 178.483948 
L 264.064228 191.373751 
L 264.600122 195.510555 
L 265.136017 200.939673 
L 265.712544 209.730858 
L 266.029995 217.655554 
L 266.430747 237.738934 
L 267.072063 288.65939 
L 267.260317 294.099344 
L 267.645245 297.831995 
L 270.709644 306.237612 
L 274.201448 315.077064 
L 275.278404 317.669662 
L 277.957876 320.4 
L 401.056423 320.4 
L 401.056423 320.4 
" clip-path="url(#pf4758d715d)" style="fill: none; stroke: #006400; stroke-width: 1.5; stroke-linecap: square"/>
   </g>
  </g>
  <g id="axes_2">
   <g id="patch_7">
    <path d="M 476.081633 320.4 
L 703.836735 320.4 
L 703.836735 43.2 
L 476.081633 43.2 
z
" style="fill: #ffffff"/>
   </g>
   <g id="matplotlib.axis_3">
    <g id="xtick_6">
     <g id="line2d_12">
      <g>
       <use xlink:href="#m7785cb1909" x="482.780312" y="320.4" style="stroke: #000000; stroke-width: 0.8"/>
      </g>
     </g>
     <g id="text_13">
      <!-- 0 -->
      <g transform="translate(472.854812 351.107125) scale(0.312 -0.312)">
       <use xlink:href="#DejaVuSans-30"/>
      </g>
     </g>
    </g>
    <g id="xtick_7">
     <g id="line2d_13">
      <g>
       <use xlink:href="#m7785cb1909" x="536.369748" y="320.4" style="stroke: #000000; stroke-width: 0.8"/>
      </g>
     </g>
     <g id="text_14">
      <!-- 2 -->
      <g transform="translate(526.444248 351.107125) scale(0.312 -0.312)">
       <use xlink:href="#DejaVuSans-32"/>
      </g>
     </g>
    </g>
    <g id="xtick_8">
     <g id="line2d_14">
      <g>
       <use xlink:href="#m7785cb1909" x="589.959184" y="320.4" style="stroke: #000000; stroke-width: 0.8"/>
      </g>
     </g>
     <g id="text_15">
      <!-- 4 -->
      <g transform="translate(580.033684 351.107125) scale(0.312 -0.312)">
       <use xlink:href="#DejaVuSans-34"/>
      </g>
     </g>
    </g>
    <g id="xtick_9">
     <g id="line2d_15">
      <g>
       <use xlink:href="#m7785cb1909" x="643.548619" y="320.4" style="stroke: #000000; stroke-width: 0.8"/>
      </g>
     </g>
     <g id="text_16">
      <!-- 6 -->
      <g transform="translate(633.623119 351.107125) scale(0.312 -0.312)">
       <use xlink:href="#DejaVuSans-36"/>
      </g>
     </g>
    </g>
    <g id="xtick_10">
     <g id="line2d_16">
      <g>
       <use xlink:href="#m7785cb1909" x="697.138055" y="320.4" style="stroke: #000000; stroke-width: 0.8"/>
      </g>
     </g>
     <g id="text_17">
      <!-- 8 -->
      <g transform="translate(687.212555 351.107125) scale(0.312 -0.312)">
       <use xlink:href="#DejaVuSans-38"/>
      </g>
     </g>
    </g>
    <g id="text_18">
     <!-- Time (d) -->
     <g transform="translate(530.189652 383.327281) scale(0.286 -0.286)">
      <use xlink:href="#DejaVuSans-54"/>
      <use xlink:href="#DejaVuSans-69" x="57.958984"/>
      <use xlink:href="#DejaVuSans-6d" x="85.742188"/>
      <use xlink:href="#DejaVuSans-65" x="183.154297"/>
      <use xlink:href="#DejaVuSans-20" x="244.677734"/>
      <use xlink:href="#DejaVuSans-28" x="276.464844"/>
      <use xlink:href="#DejaVuSans-64" x="315.478516"/>
      <use xlink:href="#DejaVuSans-29" x="378.955078"/>
     </g>
    </g>
   </g>
   <g id="matplotlib.axis_4">
    <g id="ytick_6">
     <g id="line2d_17">
      <g>
       <use xlink:href="#me960d7b4be" x="476.081633" y="258.8" style="stroke: #000000; stroke-width: 0.8"/>
      </g>
     </g>
     <g id="text_19">
      <!-- 4 -->
      <g transform="translate(449.230633 270.653562) scale(0.312 -0.312)">
       <use xlink:href="#DejaVuSans-34"/>
      </g>
     </g>
    </g>
    <g id="ytick_7">
     <g id="line2d_18">
      <g>
       <use xlink:href="#me960d7b4be" x="476.081633" y="135.6" style="stroke: #000000; stroke-width: 0.8"/>
      </g>
     </g>
     <g id="text_20">
      <!-- 6 -->
      <g transform="translate(449.230633 147.453563) scale(0.312 -0.312)">
       <use xlink:href="#DejaVuSans-36"/>
      </g>
     </g>
    </g>
    <g id="text_21">
     <!-- Log$_{10}$ CD8$^+$ T cells -->
     <g transform="translate(439.224633 318.222) rotate(-90) scale(0.286 -0.286)">
      <defs>
       <path id="DejaVuSans-43" d="M 4122 4306 
L 4122 3641 
Q 3803 3938 3442 4084 
Q 3081 4231 2675 4231 
Q 1875 4231 1450 3742 
Q 1025 3253 1025 2328 
Q 1025 1406 1450 917 
Q 1875 428 2675 428 
Q 3081 428 3442 575 
Q 3803 722 4122 1019 
L 4122 359 
Q 3791 134 3420 21 
Q 3050 -91 2638 -91 
Q 1578 -91 968 557 
Q 359 1206 359 2328 
Q 359 3453 968 4101 
Q 1578 4750 2638 4750 
Q 3056 4750 3426 4639 
Q 3797 4528 4122 4306 
z
" transform="scale(0.015625)"/>
       <path id="DejaVuSans-44" d="M 1259 4147 
L 1259 519 
L 2022 519 
Q 2988 519 3436 956 
Q 3884 1394 3884 2338 
Q 3884 3275 3436 3711 
Q 2988 4147 2022 4147 
L 1259 4147 
z
M 628 4666 
L 1925 4666 
Q 3281 4666 3915 4102 
Q 4550 3538 4550 2338 
Q 4550 1131 3912 565 
Q 3275 0 1925 0 
L 628 0 
L 628 4666 
z
" transform="scale(0.015625)"/>
       <path id="DejaVuSans-2b" d="M 2944 4013 
L 2944 2272 
L 4684 2272 
L 4684 1741 
L 2944 1741 
L 2944 0 
L 2419 0 
L 2419 1741 
L 678 1741 
L 678 2272 
L 2419 2272 
L 2419 4013 
L 2944 4013 
z
" transform="scale(0.015625)"/>
       <path id="DejaVuSans-6c" d="M 603 4863 
L 1178 4863 
L 1178 0 
L 603 0 
L 603 4863 
z
" transform="scale(0.015625)"/>
      </defs>
      <use xlink:href="#DejaVuSans-4c" transform="translate(0 0.826562)"/>
      <use xlink:href="#DejaVuSans-6f" transform="translate(55.712891 0.826562)"/>
      <use xlink:href="#DejaVuSans-67" transform="translate(116.894531 0.826562)"/>
      <use xlink:href="#DejaVuSans-31" transform="translate(181.328125 -15.579688) scale(0.7)"/>
      <use xlink:href="#DejaVuSans-30" transform="translate(225.864258 -15.579688) scale(0.7)"/>
      <use xlink:href="#DejaVuSans-20" transform="translate(273.134766 0.826562)"/>
      <use xlink:href="#DejaVuSans-43" transform="translate(304.921875 0.826562)"/>
      <use xlink:href="#DejaVuSans-44" transform="translate(374.746094 0.826562)"/>
      <use xlink:href="#DejaVuSans-38" transform="translate(451.748047 0.826562)"/>
      <use xlink:href="#DejaVuSans-2b" transform="translate(529.96582 39.107812) scale(0.7)"/>
      <use xlink:href="#DejaVuSans-20" transform="translate(604.990234 0.826562)"/>
      <use xlink:href="#DejaVuSans-54" transform="translate(636.777344 0.826562)"/>
      <use xlink:href="#DejaVuSans-20" transform="translate(697.861328 0.826562)"/>
      <use xlink:href="#DejaVuSans-63" transform="translate(729.648438 0.826562)"/>
      <use xlink:href="#DejaVuSans-65" transform="translate(784.628906 0.826562)"/>
      <use xlink:href="#DejaVuSans-6c" transform="translate(846.152344 0.826562)"/>
      <use xlink:href="#DejaVuSans-6c" transform="translate(873.935547 0.826562)"/>
      <use xlink:href="#DejaVuSans-73" transform="translate(901.71875 0.826562)"/>
     </g>
    </g>
   </g>
   <g id="patch_8">
    <path d="M 476.081633 320.4 
L 476.081633 43.2 
" style="fill: none; stroke: #000000; stroke-width: 0.8; stroke-linejoin: miter; stroke-linecap: square"/>
   </g>
   <g id="patch_9">
    <path d="M 703.836735 320.4 
L 703.836735 43.2 
" style="fill: none; stroke: #000000; stroke-width: 0.8; stroke-linejoin: miter; stroke-linecap: square"/>
   </g>
   <g id="patch_10">
    <path d="M 476.081633 320.4 
L 703.836735 320.4 
" style="fill: none; stroke: #000000; stroke-width: 0.8; stroke-linejoin: miter; stroke-linecap: square"/>
   </g>
   <g id="patch_11">
    <path d="M 476.081633 43.2 
L 703.836735 43.2 
" style="fill: none; stroke: #000000; stroke-width: 0.8; stroke-linejoin: miter; stroke-linecap: square"/>
   </g>
   <g id="PolyCollection_2">
    <defs>
     <path id="m65ee523982" d="M 482.780312 -122.192535 
L 482.780312 -122.192535 
L 482.78068 -122.192535 
L 482.784358 -122.192535 
L 482.821138 -122.192535 
L 482.947418 -122.192535 
L 483.05058 -122.192535 
L 483.395582 -122.192535 
L 483.740585 -122.192535 
L 484.59472 -122.192535 
L 485.19437 -122.192535 
L 486.581304 -122.192535 
L 487.320016 -122.192535 
L 488.741583 -122.192535 
L 489.560062 -122.192535 
L 490.9608 -122.192535 
L 491.841896 -122.192535 
L 493.235349 -122.192535 
L 494.161819 -122.192535 
L 495.541276 -122.192535 
L 496.500541 -122.192536 
L 497.867972 -122.192537 
L 498.849489 -122.192538 
L 500.3345 -122.192542 
L 501.293247 -122.192547 
L 502.586764 -122.192559 
L 503.575792 -122.192573 
L 504.971973 -122.19261 
L 505.949645 -122.19265 
L 507.251504 -122.192744 
L 508.247118 -122.192852 
L 509.642273 -122.193121 
L 510.630154 -122.193387 
L 511.963715 -122.194037 
L 512.977893 -122.194751 
L 514.42709 -122.196512 
L 515.456055 -122.198387 
L 517.031682 -122.20375 
L 518.057528 -122.208721 
L 519.495414 -122.22186 
L 520.571049 -122.236419 
L 522.185531 -122.275209 
L 523.31449 -122.317297 
L 524.772603 -122.413112 
L 525.878453 -122.522511 
L 527.267087 -122.74166 
L 528.336242 -123.000742 
L 529.661009 -123.451654 
L 530.985776 -124.158027 
L 532.323734 -125.187416 
L 533.700795 -126.680336 
L 535.123611 -128.756857 
L 536.611118 -131.552028 
L 538.171323 -135.156499 
L 539.85332 -139.812579 
L 541.535318 -144.918936 
L 543.439642 -151.04547 
L 545.343966 -157.187206 
L 547.278528 -163.185128 
L 549.692987 -170.083174 
L 552.107445 -176.174066 
L 554.786917 -181.919059 
L 557.466389 -186.635144 
L 560.145861 -190.407406 
L 560.681755 -191.005977 
L 561.217649 -191.604548 
L 561.794176 -192.248505 
L 562.111628 -192.603084 
L 562.378796 -192.9015 
L 562.51238 -193.044411 
L 562.628656 -193.156728 
L 562.744932 -193.269044 
L 562.88497 -193.404315 
L 563.153696 -193.655268 
L 563.34195 -193.82676 
L 563.726877 -194.166343 
L 564.111805 -194.490678 
L 566.791277 -196.369282 
L 567.603609 -196.764924 
L 570.283081 -197.61293 
L 571.360037 -197.79805 
L 574.039508 -198.004727 
L 575.347754 -198.01861 
L 578.027226 -197.801352 
L 579.562661 -197.608828 
L 582.242132 -197.083896 
L 583.981447 -196.682355 
L 586.660919 -195.95398 
L 588.573722 -195.37701 
L 591.253194 -194.513399 
L 593.311988 -193.739211 
L 595.99146 -192.633547 
L 598.174995 -191.711583 
L 600.854466 -190.56021 
L 603.533938 -189.395045 
L 606.21341 -188.221262 
L 608.892882 -186.931006 
L 611.572354 -185.639344 
L 614.251825 -184.348772 
L 616.931297 -183.061171 
L 619.610769 -181.777976 
L 622.290241 -180.469478 
L 624.969713 -179.10204 
L 627.649184 -177.742853 
L 630.328656 -176.39269 
L 633.008128 -175.052236 
L 635.6876 -173.722109 
L 638.367071 -172.402889 
L 641.046543 -171.095129 
L 643.726015 -169.799364 
L 646.405487 -168.516119 
L 649.084959 -167.245912 
L 651.76443 -165.98926 
L 654.443902 -164.746675 
L 657.123374 -163.518669 
L 659.802846 -162.30575 
L 662.482318 -161.108426 
L 665.161789 -159.927201 
L 667.841261 -158.762571 
L 670.520733 -157.615029 
L 673.200205 -156.485058 
L 675.879677 -155.373128 
L 678.559148 -154.2797 
L 681.23862 -153.205219 
L 683.918092 -152.150112 
L 686.597564 -151.114789 
L 689.277035 -150.099636 
L 691.956507 -149.105019 
L 694.635979 -148.131271 
L 697.138055 -147.240499 
L 697.138055 -170.236656 
L 697.138055 -170.236656 
L 694.635979 -170.969282 
L 691.956507 -171.75813 
L 689.277035 -172.551327 
L 686.597564 -173.348769 
L 683.918092 -174.150354 
L 681.23862 -174.95598 
L 678.559148 -175.765547 
L 675.879677 -176.578954 
L 673.200205 -177.396105 
L 670.520733 -178.216903 
L 667.841261 -179.041253 
L 665.161789 -179.869061 
L 662.482318 -180.700235 
L 659.802846 -181.534683 
L 657.123374 -182.372316 
L 654.443902 -183.213044 
L 651.76443 -184.056778 
L 649.084959 -184.90343 
L 646.405487 -185.752909 
L 643.726015 -186.605124 
L 641.046543 -187.459981 
L 638.367071 -188.317378 
L 635.6876 -189.177206 
L 633.008128 -190.03934 
L 630.328656 -190.903638 
L 627.649184 -191.769922 
L 624.969713 -192.637974 
L 622.290241 -193.507509 
L 619.610769 -194.378147 
L 616.931297 -195.249373 
L 614.251825 -196.12048 
L 611.572354 -196.990487 
L 608.892882 -197.858023 
L 606.21341 -198.758849 
L 603.533938 -199.712887 
L 600.854466 -200.655132 
L 598.174995 -201.579969 
L 595.99146 -202.316157 
L 593.311988 -203.188343 
L 591.253194 -203.832617 
L 588.573722 -204.613593 
L 586.660919 -205.11834 
L 583.981447 -205.755952 
L 582.242132 -206.081841 
L 579.562661 -206.490772 
L 578.027226 -206.609421 
L 575.347754 -206.687226 
L 574.039508 -206.591281 
L 571.360037 -206.382393 
L 570.283081 -206.160457 
L 567.603609 -205.376116 
L 566.791277 -205.034133 
L 564.111805 -203.50734 
L 563.726877 -203.232423 
L 563.34195 -202.943682 
L 563.153696 -202.796975 
L 562.88497 -202.580876 
L 562.744932 -202.466352 
L 562.628656 -202.36751 
L 562.51238 -202.268364 
L 562.378796 -202.154461 
L 562.111628 -201.915582 
L 561.794176 -201.628552 
L 561.217649 -201.003353 
L 560.681755 -200.422217 
L 560.145861 -199.841081 
L 557.466389 -196.377061 
L 554.786917 -191.930894 
L 552.107445 -187.296813 
L 549.692987 -182.225395 
L 547.278528 -176.145085 
L 545.343966 -170.608143 
L 543.439642 -164.578302 
L 541.535318 -158.066122 
L 539.85332 -152.092718 
L 538.171323 -146.118961 
L 536.611118 -140.839649 
L 535.123611 -136.252264 
L 533.700795 -132.458454 
L 532.323734 -129.451413 
L 530.985776 -127.180178 
L 529.661009 -125.515439 
L 528.336242 -124.340822 
L 527.267087 -123.666717 
L 525.878453 -123.0889 
L 524.772603 -122.773143 
L 523.31449 -122.528728 
L 522.185531 -122.402998 
L 520.571049 -122.304049 
L 519.495414 -122.262868 
L 518.057528 -122.232409 
L 517.031682 -122.217649 
L 515.456055 -122.205825 
L 514.42709 -122.200977 
L 512.977893 -122.197165 
L 511.963715 -122.195507 
L 510.630154 -122.194251 
L 509.642273 -122.193637 
L 508.247118 -122.193141 
L 507.251504 -122.192921 
L 505.949645 -122.19275 
L 504.971973 -122.192671 
L 503.575792 -122.192605 
L 502.586764 -122.192579 
L 501.293247 -122.192557 
L 500.3345 -122.192549 
L 498.849489 -122.192541 
L 497.867972 -122.192538 
L 496.500541 -122.192536 
L 495.541276 -122.192536 
L 494.161819 -122.192535 
L 493.235349 -122.192535 
L 491.841896 -122.192535 
L 490.9608 -122.192535 
L 489.560062 -122.192535 
L 488.741583 -122.192535 
L 487.320016 -122.192535 
L 486.581304 -122.192535 
L 485.19437 -122.192535 
L 484.59472 -122.192535 
L 483.740585 -122.192535 
L 483.395582 -122.192535 
L 483.05058 -122.192535 
L 482.947418 -122.192535 
L 482.821138 -122.192535 
L 482.784358 -122.192535 
L 482.78068 -122.192535 
L 482.780312 -122.192535 
z
" style="stroke: #006400; stroke-opacity: 0.2"/>
    </defs>
    <g clip-path="url(#p8310500d2a)">
     <use xlink:href="#m65ee523982" x="0" y="360" style="fill: #006400; fill-opacity: 0.2; stroke: #006400; stroke-opacity: 0.2"/>
    </g>
   </g>
   <g id="PolyCollection_3">
    <defs>
     <path id="m6556c25984" d="M 482.780312 -93.375052 
L 482.780312 -93.375052 
L 482.78068 -93.375052 
L 482.784358 -93.375052 
L 482.821138 -93.375052 
L 482.947418 -93.375052 
L 483.05058 -93.375052 
L 483.395582 -93.375052 
L 483.740585 -93.375052 
L 484.59472 -93.375052 
L 485.19437 -93.375052 
L 486.581304 -93.375052 
L 487.320016 -93.375052 
L 488.741583 -93.375052 
L 489.560062 -93.375052 
L 490.9608 -93.375052 
L 491.841896 -93.375052 
L 493.235349 -93.375052 
L 494.161819 -93.375052 
L 495.541276 -93.375052 
L 496.500541 -93.375052 
L 497.867972 -93.375052 
L 498.849489 -93.375052 
L 500.3345 -93.375052 
L 501.293247 -93.375052 
L 502.586764 -93.375052 
L 503.575792 -93.375052 
L 504.971973 -93.375052 
L 505.949645 -93.375052 
L 507.251504 -93.375052 
L 508.247118 -93.375052 
L 509.642273 -93.375052 
L 510.630154 -93.375052 
L 511.963715 -93.375052 
L 512.977893 -93.375052 
L 514.42709 -93.375052 
L 515.456055 -93.375053 
L 517.031682 -93.375053 
L 518.057528 -93.375053 
L 519.495414 -93.375053 
L 520.571049 -93.375053 
L 522.185531 -93.375054 
L 523.31449 -93.375055 
L 524.772603 -93.375057 
L 525.878453 -93.37506 
L 527.267087 -93.375065 
L 528.336242 -93.375071 
L 529.661009 -93.375084 
L 530.985776 -93.375105 
L 532.323734 -93.375141 
L 533.700795 -93.375204 
L 535.123611 -93.375313 
L 536.611118 -93.375541 
L 538.171323 -93.375897 
L 539.85332 -93.37671 
L 541.535318 -93.378026 
L 543.439642 -93.381066 
L 545.343966 -93.386688 
L 547.278528 -93.397253 
L 549.692987 -93.421592 
L 552.107445 -93.466373 
L 554.786917 -93.5571 
L 557.466389 -93.709473 
L 560.145861 -93.945649 
L 560.681755 -94.000209 
L 561.217649 -94.06383 
L 561.794176 -94.136765 
L 562.111628 -94.179435 
L 562.378796 -94.215764 
L 562.51238 -94.234704 
L 562.628656 -94.251466 
L 562.744932 -94.268471 
L 562.88497 -94.288993 
L 563.153696 -94.329636 
L 563.34195 -94.358808 
L 563.726877 -94.420277 
L 564.111805 -94.484095 
L 566.791277 -95.000962 
L 567.603609 -95.18428 
L 570.283081 -95.846694 
L 571.360037 -96.149721 
L 574.039508 -96.952937 
L 575.347754 -97.366926 
L 578.027226 -98.204006 
L 579.562661 -98.680794 
L 582.242132 -99.519262 
L 583.981447 -100.062218 
L 586.660919 -100.882478 
L 588.573722 -101.456491 
L 591.253194 -102.230071 
L 593.311988 -102.805325 
L 595.99146 -103.515899 
L 598.174995 -104.071875 
L 600.854466 -104.716503 
L 603.533938 -105.324154 
L 606.21341 -105.896184 
L 608.892882 -106.434339 
L 611.572354 -106.940509 
L 614.251825 -107.416641 
L 616.931297 -107.86466 
L 619.610769 -108.286418 
L 622.290241 -108.683674 
L 624.969713 -109.058076 
L 627.649184 -109.411158 
L 630.328656 -109.744345 
L 633.008128 -110.058952 
L 635.6876 -110.356219 
L 638.367071 -110.637215 
L 641.046543 -110.903002 
L 643.726015 -111.154534 
L 646.405487 -111.392695 
L 649.084959 -111.618302 
L 651.76443 -111.832113 
L 654.443902 -112.034829 
L 657.123374 -112.227104 
L 659.802846 -112.409543 
L 662.482318 -112.582711 
L 665.161789 -112.747135 
L 667.841261 -112.903305 
L 670.520733 -113.05168 
L 673.200205 -113.192689 
L 675.879677 -113.326734 
L 678.559148 -113.45419 
L 681.23862 -113.575411 
L 683.918092 -113.690728 
L 686.597564 -113.800452 
L 689.277035 -113.904875 
L 691.956507 -114.004273 
L 694.635979 -114.098905 
L 697.138055 -114.183189 
L 697.138055 -130.590115 
L 697.138055 -130.590115 
L 694.635979 -130.48122 
L 691.956507 -130.35887 
L 689.277035 -130.230094 
L 686.597564 -130.094521 
L 683.918092 -129.951756 
L 681.23862 -129.801375 
L 678.559148 -129.642925 
L 675.879677 -129.475922 
L 673.200205 -129.299845 
L 670.520733 -129.114137 
L 667.841261 -128.918199 
L 665.161789 -128.711384 
L 662.482318 -128.492999 
L 659.802846 -128.262293 
L 657.123374 -128.018455 
L 654.443902 -127.760606 
L 651.76443 -127.487782 
L 649.084959 -127.198964 
L 646.405487 -126.893035 
L 643.726015 -126.568756 
L 641.046543 -126.224784 
L 638.367071 -125.85965 
L 635.6876 -125.471739 
L 633.008128 -125.059278 
L 630.328656 -124.62031 
L 627.649184 -124.152673 
L 624.969713 -123.653975 
L 622.290241 -123.121564 
L 619.610769 -122.552499 
L 616.931297 -121.94351 
L 614.251825 -121.29095 
L 611.572354 -120.590831 
L 608.892882 -119.838737 
L 606.21341 -119.029793 
L 603.533938 -118.158731 
L 600.854466 -117.219931 
L 598.174995 -116.207543 
L 595.99146 -115.321234 
L 593.311988 -114.160373 
L 591.253194 -113.203044 
L 588.573722 -111.882944 
L 586.660919 -110.884342 
L 583.981447 -109.407458 
L 582.242132 -108.411434 
L 579.562661 -106.79965 
L 578.027226 -105.841251 
L 575.347754 -104.151041 
L 574.039508 -103.320047 
L 571.360037 -101.62983 
L 570.283081 -100.964902 
L 567.603609 -99.368038 
L 566.791277 -98.911704 
L 564.111805 -97.500898 
L 563.726877 -97.314211 
L 563.34195 -97.132133 
L 563.153696 -97.044671 
L 562.88497 -96.921821 
L 562.744932 -96.858764 
L 562.628656 -96.806691 
L 562.51238 -96.756148 
L 562.378796 -96.698125 
L 562.111628 -96.582081 
L 561.794176 -96.447133 
L 561.217649 -96.213885 
L 560.681755 -96.008119 
L 560.145861 -95.802353 
L 557.466389 -94.948654 
L 554.786917 -94.371377 
L 552.107445 -93.965027 
L 549.692987 -93.716403 
L 547.278528 -93.561073 
L 545.343966 -93.481635 
L 543.439642 -93.433683 
L 541.535318 -93.406295 
L 539.85332 -93.392196 
L 538.171323 -93.384265 
L 536.611118 -93.380137 
L 535.123611 -93.377875 
L 533.700795 -93.37664 
L 532.323734 -93.375957 
L 530.985776 -93.375575 
L 529.661009 -93.375353 
L 528.336242 -93.375226 
L 527.267087 -93.375163 
L 525.878453 -93.375115 
L 524.772603 -93.375091 
L 523.31449 -93.375074 
L 522.185531 -93.375065 
L 520.571049 -93.375059 
L 519.495414 -93.375057 
L 518.057528 -93.375055 
L 517.031682 -93.375054 
L 515.456055 -93.375053 
L 514.42709 -93.375053 
L 512.977893 -93.375053 
L 511.963715 -93.375053 
L 510.630154 -93.375053 
L 509.642273 -93.375052 
L 508.247118 -93.375052 
L 507.251504 -93.375052 
L 505.949645 -93.375052 
L 504.971973 -93.375052 
L 503.575792 -93.375052 
L 502.586764 -93.375052 
L 501.293247 -93.375052 
L 500.3345 -93.375052 
L 498.849489 -93.375052 
L 497.867972 -93.375052 
L 496.500541 -93.375052 
L 495.541276 -93.375052 
L 494.161819 -93.375052 
L 493.235349 -93.375052 
L 491.841896 -93.375052 
L 490.9608 -93.375052 
L 489.560062 -93.375052 
L 488.741583 -93.375052 
L 487.320016 -93.375052 
L 486.581304 -93.375052 
L 485.19437 -93.375052 
L 484.59472 -93.375052 
L 483.740585 -93.375052 
L 483.395582 -93.375052 
L 483.05058 -93.375052 
L 482.947418 -93.375052 
L 482.821138 -93.375052 
L 482.784358 -93.375052 
L 482.78068 -93.375052 
L 482.780312 -93.375052 
z
" style="stroke: #006400; stroke-opacity: 0.2"/>
    </defs>
    <g clip-path="url(#p8310500d2a)">
     <use xlink:href="#m6556c25984" x="0" y="360" style="fill: #006400; fill-opacity: 0.2; stroke: #006400; stroke-opacity: 0.2"/>
    </g>
   </g>
   <g id="PathCollection_9">
    <g clip-path="url(#p8310500d2a)">
     <use xlink:href="#m0e49cedf9c" x="482.780312" y="237.807465" style="fill: #808080; fill-opacity: 0.8; stroke: #808080; stroke-opacity: 0.8"/>
     <use xlink:href="#m0e49cedf9c" x="509.57503" y="192.476616" style="fill: #808080; fill-opacity: 0.8; stroke: #808080; stroke-opacity: 0.8"/>
     <use xlink:href="#m0e49cedf9c" x="536.369748" y="180.555761" style="fill: #808080; fill-opacity: 0.8; stroke: #808080; stroke-opacity: 0.8"/>
     <use xlink:href="#m0e49cedf9c" x="563.164466" y="167.878203" style="fill: #808080; fill-opacity: 0.8; stroke: #808080; stroke-opacity: 0.8"/>
     <use xlink:href="#m0e49cedf9c" x="589.959184" y="176.291568" style="fill: #808080; fill-opacity: 0.8; stroke: #808080; stroke-opacity: 0.8"/>
     <use xlink:href="#m0e49cedf9c" x="616.753902" y="172.94141" style="fill: #808080; fill-opacity: 0.8; stroke: #808080; stroke-opacity: 0.8"/>
     <use xlink:href="#m0e49cedf9c" x="643.548619" y="177.986774" style="fill: #808080; fill-opacity: 0.8; stroke: #808080; stroke-opacity: 0.8"/>
     <use xlink:href="#m0e49cedf9c" x="670.343337" y="189.412773" style="fill: #808080; fill-opacity: 0.8; stroke: #808080; stroke-opacity: 0.8"/>
    </g>
   </g>
   <g id="PathCollection_10">
    <defs>
     <path id="m5ce527219c" d="M -4.330127 4.330127 
L 4.330127 4.330127 
L 4.330127 -4.330127 
L -4.330127 -4.330127 
z
" style="stroke: #808080; stroke-opacity: 0.8"/>
    </defs>
    <g clip-path="url(#p8310500d2a)">
     <use xlink:href="#m5ce527219c" x="482.780312" y="266.62198" style="fill: #808080; fill-opacity: 0.8; stroke: #808080; stroke-opacity: 0.8"/>
     <use xlink:href="#m5ce527219c" x="509.57503" y="267.783965" style="fill: #808080; fill-opacity: 0.8; stroke: #808080; stroke-opacity: 0.8"/>
     <use xlink:href="#m5ce527219c" x="536.369748" y="254.637585" style="fill: #808080; fill-opacity: 0.8; stroke: #808080; stroke-opacity: 0.8"/>
     <use xlink:href="#m5ce527219c" x="563.164466" y="260.107134" style="fill: #808080; fill-opacity: 0.8; stroke: #808080; stroke-opacity: 0.8"/>
     <use xlink:href="#m5ce527219c" x="589.959184" y="256.144146" style="fill: #808080; fill-opacity: 0.8; stroke: #808080; stroke-opacity: 0.8"/>
     <use xlink:href="#m5ce527219c" x="616.753902" y="250.882279" style="fill: #808080; fill-opacity: 0.8; stroke: #808080; stroke-opacity: 0.8"/>
     <use xlink:href="#m5ce527219c" x="643.548619" y="243.010132" style="fill: #808080; fill-opacity: 0.8; stroke: #808080; stroke-opacity: 0.8"/>
     <use xlink:href="#m5ce527219c" x="670.343337" y="238.480445" style="fill: #808080; fill-opacity: 0.8; stroke: #808080; stroke-opacity: 0.8"/>
    </g>
   </g>
   <g id="PathCollection_11">
    <g clip-path="url(#p8310500d2a)">
     <use xlink:href="#m719d07839a" x="482.780312" y="237.807465" style="fill: #ff8c00; fill-opacity: 0.8; stroke: #ff8c00; stroke-opacity: 0.8"/>
     <use xlink:href="#m719d07839a" x="509.57503" y="192.476616" style="fill: #ff8c00; fill-opacity: 0.8; stroke: #ff8c00; stroke-opacity: 0.8"/>
     <use xlink:href="#m719d07839a" x="536.369748" y="180.555761" style="fill: #ff8c00; fill-opacity: 0.8; stroke: #ff8c00; stroke-opacity: 0.8"/>
     <use xlink:href="#m719d07839a" x="563.164466" y="167.878203" style="fill: #ff8c00; fill-opacity: 0.8; stroke: #ff8c00; stroke-opacity: 0.8"/>
     <use xlink:href="#m719d07839a" x="589.959184" y="176.291568" style="fill: #ff8c00; fill-opacity: 0.8; stroke: #ff8c00; stroke-opacity: 0.8"/>
     <use xlink:href="#m719d07839a" x="616.753902" y="172.94141" style="fill: #ff8c00; fill-opacity: 0.8; stroke: #ff8c00; stroke-opacity: 0.8"/>
     <use xlink:href="#m719d07839a" x="643.548619" y="177.986774" style="fill: #ff8c00; fill-opacity: 0.8; stroke: #ff8c00; stroke-opacity: 0.8"/>
     <use xlink:href="#m719d07839a" x="670.343337" y="189.412773" style="fill: #ff8c00; fill-opacity: 0.8; stroke: #ff8c00; stroke-opacity: 0.8"/>
    </g>
   </g>
   <g id="PathCollection_12">
    <defs>
     <path id="mb5347e7294" d="M -4.330127 4.330127 
L 4.330127 4.330127 
L 4.330127 -4.330127 
L -4.330127 -4.330127 
z
" style="stroke: #ff8c00; stroke-opacity: 0.8"/>
    </defs>
    <g clip-path="url(#p8310500d2a)">
     <use xlink:href="#mb5347e7294" x="482.780312" y="266.62198" style="fill: #ff8c00; fill-opacity: 0.8; stroke: #ff8c00; stroke-opacity: 0.8"/>
     <use xlink:href="#mb5347e7294" x="509.57503" y="267.783965" style="fill: #ff8c00; fill-opacity: 0.8; stroke: #ff8c00; stroke-opacity: 0.8"/>
     <use xlink:href="#mb5347e7294" x="536.369748" y="254.637585" style="fill: #ff8c00; fill-opacity: 0.8; stroke: #ff8c00; stroke-opacity: 0.8"/>
     <use xlink:href="#mb5347e7294" x="563.164466" y="260.107134" style="fill: #ff8c00; fill-opacity: 0.8; stroke: #ff8c00; stroke-opacity: 0.8"/>
     <use xlink:href="#mb5347e7294" x="589.959184" y="256.144146" style="fill: #ff8c00; fill-opacity: 0.8; stroke: #ff8c00; stroke-opacity: 0.8"/>
     <use xlink:href="#mb5347e7294" x="616.753902" y="250.882279" style="fill: #ff8c00; fill-opacity: 0.8; stroke: #ff8c00; stroke-opacity: 0.8"/>
     <use xlink:href="#mb5347e7294" x="643.548619" y="243.010132" style="fill: #ff8c00; fill-opacity: 0.8; stroke: #ff8c00; stroke-opacity: 0.8"/>
     <use xlink:href="#mb5347e7294" x="670.343337" y="238.480445" style="fill: #ff8c00; fill-opacity: 0.8; stroke: #ff8c00; stroke-opacity: 0.8"/>
    </g>
   </g>
   <g id="PathCollection_13">
    <g clip-path="url(#p8310500d2a)">
     <use xlink:href="#ma101296de3" x="482.780312" y="237.807465" style="fill: #ff00ff; fill-opacity: 0.8; stroke: #ff00ff; stroke-opacity: 0.8"/>
     <use xlink:href="#ma101296de3" x="509.57503" y="192.476616" style="fill: #ff00ff; fill-opacity: 0.8; stroke: #ff00ff; stroke-opacity: 0.8"/>
     <use xlink:href="#ma101296de3" x="536.369748" y="180.555761" style="fill: #ff00ff; fill-opacity: 0.8; stroke: #ff00ff; stroke-opacity: 0.8"/>
     <use xlink:href="#ma101296de3" x="563.164466" y="167.878203" style="fill: #ff00ff; fill-opacity: 0.8; stroke: #ff00ff; stroke-opacity: 0.8"/>
     <use xlink:href="#ma101296de3" x="589.959184" y="176.291568" style="fill: #ff00ff; fill-opacity: 0.8; stroke: #ff00ff; stroke-opacity: 0.8"/>
     <use xlink:href="#ma101296de3" x="616.753902" y="172.94141" style="fill: #ff00ff; fill-opacity: 0.8; stroke: #ff00ff; stroke-opacity: 0.8"/>
     <use xlink:href="#ma101296de3" x="643.548619" y="177.986774" style="fill: #ff00ff; fill-opacity: 0.8; stroke: #ff00ff; stroke-opacity: 0.8"/>
     <use xlink:href="#ma101296de3" x="670.343337" y="189.412773" style="fill: #ff00ff; fill-opacity: 0.8; stroke: #ff00ff; stroke-opacity: 0.8"/>
    </g>
   </g>
   <g id="PathCollection_14">
    <defs>
     <path id="m4d626752d9" d="M -4.330127 4.330127 
L 4.330127 4.330127 
L 4.330127 -4.330127 
L -4.330127 -4.330127 
z
" style="stroke: #ff00ff; stroke-opacity: 0.8"/>
    </defs>
    <g clip-path="url(#p8310500d2a)">
     <use xlink:href="#m4d626752d9" x="482.780312" y="266.62198" style="fill: #ff00ff; fill-opacity: 0.8; stroke: #ff00ff; stroke-opacity: 0.8"/>
     <use xlink:href="#m4d626752d9" x="509.57503" y="267.783965" style="fill: #ff00ff; fill-opacity: 0.8; stroke: #ff00ff; stroke-opacity: 0.8"/>
     <use xlink:href="#m4d626752d9" x="536.369748" y="254.637585" style="fill: #ff00ff; fill-opacity: 0.8; stroke: #ff00ff; stroke-opacity: 0.8"/>
     <use xlink:href="#m4d626752d9" x="563.164466" y="260.107134" style="fill: #ff00ff; fill-opacity: 0.8; stroke: #ff00ff; stroke-opacity: 0.8"/>
     <use xlink:href="#m4d626752d9" x="589.959184" y="256.144146" style="fill: #ff00ff; fill-opacity: 0.8; stroke: #ff00ff; stroke-opacity: 0.8"/>
     <use xlink:href="#m4d626752d9" x="616.753902" y="250.882279" style="fill: #ff00ff; fill-opacity: 0.8; stroke: #ff00ff; stroke-opacity: 0.8"/>
     <use xlink:href="#m4d626752d9" x="643.548619" y="243.010132" style="fill: #ff00ff; fill-opacity: 0.8; stroke: #ff00ff; stroke-opacity: 0.8"/>
     <use xlink:href="#m4d626752d9" x="670.343337" y="238.480445" style="fill: #ff00ff; fill-opacity: 0.8; stroke: #ff00ff; stroke-opacity: 0.8"/>
    </g>
   </g>
   <g id="PathCollection_15">
    <g clip-path="url(#p8310500d2a)">
     <use xlink:href="#ma3e0113081" x="482.780312" y="237.807465" style="fill: #8b4513; fill-opacity: 0.8; stroke: #8b4513; stroke-opacity: 0.8"/>
     <use xlink:href="#ma3e0113081" x="509.57503" y="192.476616" style="fill: #8b4513; fill-opacity: 0.8; stroke: #8b4513; stroke-opacity: 0.8"/>
     <use xlink:href="#ma3e0113081" x="536.369748" y="180.555761" style="fill: #8b4513; fill-opacity: 0.8; stroke: #8b4513; stroke-opacity: 0.8"/>
     <use xlink:href="#ma3e0113081" x="563.164466" y="167.878203" style="fill: #8b4513; fill-opacity: 0.8; stroke: #8b4513; stroke-opacity: 0.8"/>
     <use xlink:href="#ma3e0113081" x="589.959184" y="176.291568" style="fill: #8b4513; fill-opacity: 0.8; stroke: #8b4513; stroke-opacity: 0.8"/>
     <use xlink:href="#ma3e0113081" x="616.753902" y="172.94141" style="fill: #8b4513; fill-opacity: 0.8; stroke: #8b4513; stroke-opacity: 0.8"/>
     <use xlink:href="#ma3e0113081" x="643.548619" y="177.986774" style="fill: #8b4513; fill-opacity: 0.8; stroke: #8b4513; stroke-opacity: 0.8"/>
     <use xlink:href="#ma3e0113081" x="670.343337" y="189.412773" style="fill: #8b4513; fill-opacity: 0.8; stroke: #8b4513; stroke-opacity: 0.8"/>
    </g>
   </g>
   <g id="PathCollection_16">
    <defs>
     <path id="mad61af4b20" d="M -4.330127 4.330127 
L 4.330127 4.330127 
L 4.330127 -4.330127 
L -4.330127 -4.330127 
z
" style="stroke: #8b4513; stroke-opacity: 0.8"/>
    </defs>
    <g clip-path="url(#p8310500d2a)">
     <use xlink:href="#mad61af4b20" x="482.780312" y="266.62198" style="fill: #8b4513; fill-opacity: 0.8; stroke: #8b4513; stroke-opacity: 0.8"/>
     <use xlink:href="#mad61af4b20" x="509.57503" y="267.783965" style="fill: #8b4513; fill-opacity: 0.8; stroke: #8b4513; stroke-opacity: 0.8"/>
     <use xlink:href="#mad61af4b20" x="536.369748" y="254.637585" style="fill: #8b4513; fill-opacity: 0.8; stroke: #8b4513; stroke-opacity: 0.8"/>
     <use xlink:href="#mad61af4b20" x="563.164466" y="260.107134" style="fill: #8b4513; fill-opacity: 0.8; stroke: #8b4513; stroke-opacity: 0.8"/>
     <use xlink:href="#mad61af4b20" x="589.959184" y="256.144146" style="fill: #8b4513; fill-opacity: 0.8; stroke: #8b4513; stroke-opacity: 0.8"/>
     <use xlink:href="#mad61af4b20" x="616.753902" y="250.882279" style="fill: #8b4513; fill-opacity: 0.8; stroke: #8b4513; stroke-opacity: 0.8"/>
     <use xlink:href="#mad61af4b20" x="643.548619" y="243.010132" style="fill: #8b4513; fill-opacity: 0.8; stroke: #8b4513; stroke-opacity: 0.8"/>
     <use xlink:href="#mad61af4b20" x="670.343337" y="238.480445" style="fill: #8b4513; fill-opacity: 0.8; stroke: #8b4513; stroke-opacity: 0.8"/>
    </g>
   </g>
   <g id="PathCollection_17">
    <g clip-path="url(#p8310500d2a)">
     <use xlink:href="#m9ffc91c2a7" x="482.780312" y="237.807465" style="fill: #ff0000; fill-opacity: 0.8; stroke: #ff0000; stroke-opacity: 0.8"/>
     <use xlink:href="#m9ffc91c2a7" x="509.57503" y="192.476616" style="fill: #ff0000; fill-opacity: 0.8; stroke: #ff0000; stroke-opacity: 0.8"/>
     <use xlink:href="#m9ffc91c2a7" x="536.369748" y="180.555761" style="fill: #ff0000; fill-opacity: 0.8; stroke: #ff0000; stroke-opacity: 0.8"/>
     <use xlink:href="#m9ffc91c2a7" x="563.164466" y="167.878203" style="fill: #ff0000; fill-opacity: 0.8; stroke: #ff0000; stroke-opacity: 0.8"/>
     <use xlink:href="#m9ffc91c2a7" x="589.959184" y="176.291568" style="fill: #ff0000; fill-opacity: 0.8; stroke: #ff0000; stroke-opacity: 0.8"/>
     <use xlink:href="#m9ffc91c2a7" x="616.753902" y="172.94141" style="fill: #ff0000; fill-opacity: 0.8; stroke: #ff0000; stroke-opacity: 0.8"/>
     <use xlink:href="#m9ffc91c2a7" x="643.548619" y="177.986774" style="fill: #ff0000; fill-opacity: 0.8; stroke: #ff0000; stroke-opacity: 0.8"/>
     <use xlink:href="#m9ffc91c2a7" x="670.343337" y="189.412773" style="fill: #ff0000; fill-opacity: 0.8; stroke: #ff0000; stroke-opacity: 0.8"/>
    </g>
   </g>
   <g id="PathCollection_18">
    <defs>
     <path id="mf9e7b0c32c" d="M -4.330127 4.330127 
L 4.330127 4.330127 
L 4.330127 -4.330127 
L -4.330127 -4.330127 
z
" style="stroke: #ff0000; stroke-opacity: 0.8"/>
    </defs>
    <g clip-path="url(#p8310500d2a)">
     <use xlink:href="#mf9e7b0c32c" x="482.780312" y="266.62198" style="fill: #ff0000; fill-opacity: 0.8; stroke: #ff0000; stroke-opacity: 0.8"/>
     <use xlink:href="#mf9e7b0c32c" x="509.57503" y="267.783965" style="fill: #ff0000; fill-opacity: 0.8; stroke: #ff0000; stroke-opacity: 0.8"/>
     <use xlink:href="#mf9e7b0c32c" x="536.369748" y="254.637585" style="fill: #ff0000; fill-opacity: 0.8; stroke: #ff0000; stroke-opacity: 0.8"/>
     <use xlink:href="#mf9e7b0c32c" x="563.164466" y="260.107134" style="fill: #ff0000; fill-opacity: 0.8; stroke: #ff0000; stroke-opacity: 0.8"/>
     <use xlink:href="#mf9e7b0c32c" x="589.959184" y="256.144146" style="fill: #ff0000; fill-opacity: 0.8; stroke: #ff0000; stroke-opacity: 0.8"/>
     <use xlink:href="#mf9e7b0c32c" x="616.753902" y="250.882279" style="fill: #ff0000; fill-opacity: 0.8; stroke: #ff0000; stroke-opacity: 0.8"/>
     <use xlink:href="#mf9e7b0c32c" x="643.548619" y="243.010132" style="fill: #ff0000; fill-opacity: 0.8; stroke: #ff0000; stroke-opacity: 0.8"/>
     <use xlink:href="#mf9e7b0c32c" x="670.343337" y="238.480445" style="fill: #ff0000; fill-opacity: 0.8; stroke: #ff0000; stroke-opacity: 0.8"/>
    </g>
   </g>
   <g id="PathCollection_19">
    <g clip-path="url(#p8310500d2a)">
     <use xlink:href="#m70ce9ce175" x="482.780312" y="237.807465" style="fill: #40e0d0; fill-opacity: 0.8; stroke: #40e0d0; stroke-opacity: 0.8"/>
     <use xlink:href="#m70ce9ce175" x="509.57503" y="192.476616" style="fill: #40e0d0; fill-opacity: 0.8; stroke: #40e0d0; stroke-opacity: 0.8"/>
     <use xlink:href="#m70ce9ce175" x="536.369748" y="180.555761" style="fill: #40e0d0; fill-opacity: 0.8; stroke: #40e0d0; stroke-opacity: 0.8"/>
     <use xlink:href="#m70ce9ce175" x="563.164466" y="167.878203" style="fill: #40e0d0; fill-opacity: 0.8; stroke: #40e0d0; stroke-opacity: 0.8"/>
     <use xlink:href="#m70ce9ce175" x="589.959184" y="176.291568" style="fill: #40e0d0; fill-opacity: 0.8; stroke: #40e0d0; stroke-opacity: 0.8"/>
     <use xlink:href="#m70ce9ce175" x="616.753902" y="172.94141" style="fill: #40e0d0; fill-opacity: 0.8; stroke: #40e0d0; stroke-opacity: 0.8"/>
     <use xlink:href="#m70ce9ce175" x="643.548619" y="177.986774" style="fill: #40e0d0; fill-opacity: 0.8; stroke: #40e0d0; stroke-opacity: 0.8"/>
     <use xlink:href="#m70ce9ce175" x="670.343337" y="189.412773" style="fill: #40e0d0; fill-opacity: 0.8; stroke: #40e0d0; stroke-opacity: 0.8"/>
    </g>
   </g>
   <g id="PathCollection_20">
    <defs>
     <path id="m0128e141d3" d="M -4.330127 4.330127 
L 4.330127 4.330127 
L 4.330127 -4.330127 
L -4.330127 -4.330127 
z
" style="stroke: #40e0d0; stroke-opacity: 0.8"/>
    </defs>
    <g clip-path="url(#p8310500d2a)">
     <use xlink:href="#m0128e141d3" x="482.780312" y="266.62198" style="fill: #40e0d0; fill-opacity: 0.8; stroke: #40e0d0; stroke-opacity: 0.8"/>
     <use xlink:href="#m0128e141d3" x="509.57503" y="267.783965" style="fill: #40e0d0; fill-opacity: 0.8; stroke: #40e0d0; stroke-opacity: 0.8"/>
     <use xlink:href="#m0128e141d3" x="536.369748" y="254.637585" style="fill: #40e0d0; fill-opacity: 0.8; stroke: #40e0d0; stroke-opacity: 0.8"/>
     <use xlink:href="#m0128e141d3" x="563.164466" y="260.107134" style="fill: #40e0d0; fill-opacity: 0.8; stroke: #40e0d0; stroke-opacity: 0.8"/>
     <use xlink:href="#m0128e141d3" x="589.959184" y="256.144146" style="fill: #40e0d0; fill-opacity: 0.8; stroke: #40e0d0; stroke-opacity: 0.8"/>
     <use xlink:href="#m0128e141d3" x="616.753902" y="250.882279" style="fill: #40e0d0; fill-opacity: 0.8; stroke: #40e0d0; stroke-opacity: 0.8"/>
     <use xlink:href="#m0128e141d3" x="643.548619" y="243.010132" style="fill: #40e0d0; fill-opacity: 0.8; stroke: #40e0d0; stroke-opacity: 0.8"/>
     <use xlink:href="#m0128e141d3" x="670.343337" y="238.480445" style="fill: #40e0d0; fill-opacity: 0.8; stroke: #40e0d0; stroke-opacity: 0.8"/>
    </g>
   </g>
   <g id="PathCollection_21">
    <g clip-path="url(#p8310500d2a)">
     <use xlink:href="#m18e3091994" x="482.780312" y="237.807465" style="fill: #006400; fill-opacity: 0.8; stroke: #006400; stroke-opacity: 0.8"/>
     <use xlink:href="#m18e3091994" x="509.57503" y="192.476616" style="fill: #006400; fill-opacity: 0.8; stroke: #006400; stroke-opacity: 0.8"/>
     <use xlink:href="#m18e3091994" x="536.369748" y="180.555761" style="fill: #006400; fill-opacity: 0.8; stroke: #006400; stroke-opacity: 0.8"/>
     <use xlink:href="#m18e3091994" x="563.164466" y="167.878203" style="fill: #006400; fill-opacity: 0.8; stroke: #006400; stroke-opacity: 0.8"/>
     <use xlink:href="#m18e3091994" x="589.959184" y="176.291568" style="fill: #006400; fill-opacity: 0.8; stroke: #006400; stroke-opacity: 0.8"/>
     <use xlink:href="#m18e3091994" x="616.753902" y="172.94141" style="fill: #006400; fill-opacity: 0.8; stroke: #006400; stroke-opacity: 0.8"/>
     <use xlink:href="#m18e3091994" x="643.548619" y="177.986774" style="fill: #006400; fill-opacity: 0.8; stroke: #006400; stroke-opacity: 0.8"/>
     <use xlink:href="#m18e3091994" x="670.343337" y="189.412773" style="fill: #006400; fill-opacity: 0.8; stroke: #006400; stroke-opacity: 0.8"/>
    </g>
   </g>
   <g id="PathCollection_22">
    <defs>
     <path id="mab5a0ea348" d="M -4.330127 4.330127 
L 4.330127 4.330127 
L 4.330127 -4.330127 
L -4.330127 -4.330127 
z
" style="stroke: #006400; stroke-opacity: 0.8"/>
    </defs>
    <g clip-path="url(#p8310500d2a)">
     <use xlink:href="#mab5a0ea348" x="482.780312" y="266.62198" style="fill: #006400; fill-opacity: 0.8; stroke: #006400; stroke-opacity: 0.8"/>
     <use xlink:href="#mab5a0ea348" x="509.57503" y="267.783965" style="fill: #006400; fill-opacity: 0.8; stroke: #006400; stroke-opacity: 0.8"/>
     <use xlink:href="#mab5a0ea348" x="536.369748" y="254.637585" style="fill: #006400; fill-opacity: 0.8; stroke: #006400; stroke-opacity: 0.8"/>
     <use xlink:href="#mab5a0ea348" x="563.164466" y="260.107134" style="fill: #006400; fill-opacity: 0.8; stroke: #006400; stroke-opacity: 0.8"/>
     <use xlink:href="#mab5a0ea348" x="589.959184" y="256.144146" style="fill: #006400; fill-opacity: 0.8; stroke: #006400; stroke-opacity: 0.8"/>
     <use xlink:href="#mab5a0ea348" x="616.753902" y="250.882279" style="fill: #006400; fill-opacity: 0.8; stroke: #006400; stroke-opacity: 0.8"/>
     <use xlink:href="#mab5a0ea348" x="643.548619" y="243.010132" style="fill: #006400; fill-opacity: 0.8; stroke: #006400; stroke-opacity: 0.8"/>
     <use xlink:href="#mab5a0ea348" x="670.343337" y="238.480445" style="fill: #006400; fill-opacity: 0.8; stroke: #006400; stroke-opacity: 0.8"/>
    </g>
   </g>
   <g id="PathCollection_23">
    <g clip-path="url(#p8310500d2a)">
     <use xlink:href="#m9d3de6ce41" x="482.780312" y="237.807465" style="fill: #7cfc00; fill-opacity: 0.8; stroke: #7cfc00; stroke-opacity: 0.8"/>
     <use xlink:href="#m9d3de6ce41" x="509.57503" y="192.476616" style="fill: #7cfc00; fill-opacity: 0.8; stroke: #7cfc00; stroke-opacity: 0.8"/>
     <use xlink:href="#m9d3de6ce41" x="536.369748" y="180.555761" style="fill: #7cfc00; fill-opacity: 0.8; stroke: #7cfc00; stroke-opacity: 0.8"/>
     <use xlink:href="#m9d3de6ce41" x="563.164466" y="167.878203" style="fill: #7cfc00; fill-opacity: 0.8; stroke: #7cfc00; stroke-opacity: 0.8"/>
     <use xlink:href="#m9d3de6ce41" x="589.959184" y="176.291568" style="fill: #7cfc00; fill-opacity: 0.8; stroke: #7cfc00; stroke-opacity: 0.8"/>
     <use xlink:href="#m9d3de6ce41" x="616.753902" y="172.94141" style="fill: #7cfc00; fill-opacity: 0.8; stroke: #7cfc00; stroke-opacity: 0.8"/>
     <use xlink:href="#m9d3de6ce41" x="643.548619" y="177.986774" style="fill: #7cfc00; fill-opacity: 0.8; stroke: #7cfc00; stroke-opacity: 0.8"/>
     <use xlink:href="#m9d3de6ce41" x="670.343337" y="189.412773" style="fill: #7cfc00; fill-opacity: 0.8; stroke: #7cfc00; stroke-opacity: 0.8"/>
    </g>
   </g>
   <g id="PathCollection_24">
    <defs>
     <path id="m7aad30e123" d="M -4.330127 4.330127 
L 4.330127 4.330127 
L 4.330127 -4.330127 
L -4.330127 -4.330127 
z
" style="stroke: #7cfc00; stroke-opacity: 0.8"/>
    </defs>
    <g clip-path="url(#p8310500d2a)">
     <use xlink:href="#m7aad30e123" x="482.780312" y="266.62198" style="fill: #7cfc00; fill-opacity: 0.8; stroke: #7cfc00; stroke-opacity: 0.8"/>
     <use xlink:href="#m7aad30e123" x="509.57503" y="267.783965" style="fill: #7cfc00; fill-opacity: 0.8; stroke: #7cfc00; stroke-opacity: 0.8"/>
     <use xlink:href="#m7aad30e123" x="536.369748" y="254.637585" style="fill: #7cfc00; fill-opacity: 0.8; stroke: #7cfc00; stroke-opacity: 0.8"/>
     <use xlink:href="#m7aad30e123" x="563.164466" y="260.107134" style="fill: #7cfc00; fill-opacity: 0.8; stroke: #7cfc00; stroke-opacity: 0.8"/>
     <use xlink:href="#m7aad30e123" x="589.959184" y="256.144146" style="fill: #7cfc00; fill-opacity: 0.8; stroke: #7cfc00; stroke-opacity: 0.8"/>
     <use xlink:href="#m7aad30e123" x="616.753902" y="250.882279" style="fill: #7cfc00; fill-opacity: 0.8; stroke: #7cfc00; stroke-opacity: 0.8"/>
     <use xlink:href="#m7aad30e123" x="643.548619" y="243.010132" style="fill: #7cfc00; fill-opacity: 0.8; stroke: #7cfc00; stroke-opacity: 0.8"/>
     <use xlink:href="#m7aad30e123" x="670.343337" y="238.480445" style="fill: #7cfc00; fill-opacity: 0.8; stroke: #7cfc00; stroke-opacity: 0.8"/>
    </g>
   </g>
   <g id="line2d_19">
    <path d="M 482.780312 237.807465 
L 520.571049 237.745386 
L 524.772603 237.4961 
L 527.267087 237.02656 
L 528.336242 236.666667 
L 529.661009 236.010238 
L 530.985776 235.038129 
L 532.323734 233.635173 
L 533.700795 231.647949 
L 535.123611 228.939328 
L 536.611118 225.378605 
L 538.171323 220.923084 
L 541.535318 209.693775 
L 545.343966 196.53723 
L 547.278528 190.364799 
L 549.692987 183.434211 
L 552.107445 177.442933 
L 554.786917 171.893295 
L 557.466389 167.423123 
L 560.681755 163.329298 
L 562.628656 161.442111 
L 564.111805 160.271022 
L 567.603609 158.301894 
L 570.283081 157.421937 
L 571.360037 157.198865 
L 574.039508 156.916299 
L 575.347754 156.903704 
L 579.562661 157.302378 
L 583.981447 158.259943 
L 588.573722 159.636047 
L 593.311988 161.305735 
L 600.854466 164.238159 
L 619.610769 171.938589 
L 641.046543 180.639571 
L 657.123374 186.939319 
L 673.200205 192.988425 
L 686.597564 197.801888 
L 697.138055 201.422134 
L 697.138055 201.422134 
" clip-path="url(#p8310500d2a)" style="fill: none; stroke: #006400; stroke-width: 1.5; stroke-linecap: square"/>
   </g>
   <g id="line2d_20">
    <path d="M 482.780312 266.624948 
L 549.692987 266.52875 
L 554.786917 266.27123 
L 557.466389 266.000137 
L 562.111628 265.211847 
L 564.111805 264.730283 
L 567.603609 263.684536 
L 571.360037 262.308577 
L 578.027226 259.47894 
L 586.660919 255.72734 
L 593.311988 253.126284 
L 598.174995 251.446281 
L 603.533938 249.809375 
L 608.892882 248.376811 
L 614.251825 247.12288 
L 622.290241 245.522905 
L 630.328656 244.197547 
L 638.367071 243.091072 
L 649.084959 241.884232 
L 659.802846 240.917298 
L 673.200205 239.965408 
L 686.597564 239.229928 
L 697.138055 238.768153 
L 697.138055 238.768153 
" clip-path="url(#p8310500d2a)" style="fill: none; stroke-dasharray: 5.55,2.4; stroke-dashoffset: 0; stroke: #006400; stroke-width: 1.5"/>
   </g>
  </g>
  <g id="text_22">
   <!-- Volunteer 311.0 -->
   <g transform="translate(307.54125 30.907125) scale(0.312 -0.312)">
    <defs>
     <path id="DejaVuSans-6e" d="M 3513 2113 
L 3513 0 
L 2938 0 
L 2938 2094 
Q 2938 2591 2744 2837 
Q 2550 3084 2163 3084 
Q 1697 3084 1428 2787 
Q 1159 2491 1159 1978 
L 1159 0 
L 581 0 
L 581 3500 
L 1159 3500 
L 1159 2956 
Q 1366 3272 1645 3428 
Q 1925 3584 2291 3584 
Q 2894 3584 3203 3211 
Q 3513 2838 3513 2113 
z
" transform="scale(0.015625)"/>
     <path id="DejaVuSans-74" d="M 1172 4494 
L 1172 3500 
L 2356 3500 
L 2356 3053 
L 1172 3053 
L 1172 1153 
Q 1172 725 1289 603 
Q 1406 481 1766 481 
L 2356 481 
L 2356 0 
L 1766 0 
Q 1100 0 847 248 
Q 594 497 594 1153 
L 594 3053 
L 172 3053 
L 172 3500 
L 594 3500 
L 594 4494 
L 1172 4494 
z
" transform="scale(0.015625)"/>
     <path id="DejaVuSans-33" d="M 2597 2516 
Q 3050 2419 3304 2112 
Q 3559 1806 3559 1356 
Q 3559 666 3084 287 
Q 2609 -91 1734 -91 
Q 1441 -91 1130 -33 
Q 819 25 488 141 
L 488 750 
Q 750 597 1062 519 
Q 1375 441 1716 441 
Q 2309 441 2620 675 
Q 2931 909 2931 1356 
Q 2931 1769 2642 2001 
Q 2353 2234 1838 2234 
L 1294 2234 
L 1294 2753 
L 1863 2753 
Q 2328 2753 2575 2939 
Q 2822 3125 2822 3475 
Q 2822 3834 2567 4026 
Q 2313 4219 1838 4219 
Q 1578 4219 1281 4162 
Q 984 4106 628 3988 
L 628 4550 
Q 988 4650 1302 4700 
Q 1616 4750 1894 4750 
Q 2613 4750 3031 4423 
Q 3450 4097 3450 3541 
Q 3450 3153 3228 2886 
Q 3006 2619 2597 2516 
z
" transform="scale(0.015625)"/>
     <path id="DejaVuSans-2e" d="M 684 794 
L 1344 794 
L 1344 0 
L 684 0 
L 684 794 
z
" transform="scale(0.015625)"/>
    </defs>
    <use xlink:href="#DejaVuSans-56"/>
    <use xlink:href="#DejaVuSans-6f" x="60.658203"/>
    <use xlink:href="#DejaVuSans-6c" x="121.839844"/>
    <use xlink:href="#DejaVuSans-75" x="149.623047"/>
    <use xlink:href="#DejaVuSans-6e" x="213.001953"/>
    <use xlink:href="#DejaVuSans-74" x="276.380859"/>
    <use xlink:href="#DejaVuSans-65" x="315.589844"/>
    <use xlink:href="#DejaVuSans-65" x="377.113281"/>
    <use xlink:href="#DejaVuSans-72" x="438.636719"/>
    <use xlink:href="#DejaVuSans-20" x="479.75"/>
    <use xlink:href="#DejaVuSans-33" x="511.537109"/>
    <use xlink:href="#DejaVuSans-31" x="575.160156"/>
    <use xlink:href="#DejaVuSans-31" x="638.783203"/>
    <use xlink:href="#DejaVuSans-2e" x="702.40625"/>
    <use xlink:href="#DejaVuSans-30" x="734.193359"/>
   </g>
  </g>
 </g>
 <defs>
  <clipPath id="pf4758d715d">
   <rect x="180" y="43.2" width="227.755102" height="277.2"/>
  </clipPath>
  <clipPath id="p8310500d2a">
   <rect x="476.081633" y="43.2" width="227.755102" height="277.2"/>
  </clipPath>
 </defs>
</svg>
