<?xml version="1.0" encoding="utf-8" standalone="no"?>
<!DOCTYPE svg PUBLIC "-//W3C//DTD SVG 1.1//EN"
  "http://www.w3.org/Graphics/SVG/1.1/DTD/svg11.dtd">
<svg xmlns:xlink="http://www.w3.org/1999/xlink" width="1440pt" height="360pt" viewBox="0 0 1440 360" xmlns="http://www.w3.org/2000/svg" version="1.1">
 <metadata>
  <rdf:RDF xmlns:dc="http://purl.org/dc/elements/1.1/" xmlns:cc="http://creativecommons.org/ns#" xmlns:rdf="http://www.w3.org/1999/02/22-rdf-syntax-ns#">
   <cc:Work>
    <dc:type rdf:resource="http://purl.org/dc/dcmitype/StillImage"/>
    <dc:date>2025-01-15T18:59:39.872641</dc:date>
    <dc:format>image/svg+xml</dc:format>
    <dc:creator>
     <cc:Agent>
      <dc:title>Matplotlib v3.9.2, https://matplotlib.org/</dc:title>
     </cc:Agent>
    </dc:creator>
   </cc:Work>
  </rdf:RDF>
 </metadata>
 <defs>
  <style type="text/css">*{stroke-linejoin: round; stroke-linecap: butt}</style>
 </defs>
 <g id="figure_1">
  <g id="patch_1">
   <path d="M 0 360 
L 1440 360 
L 1440 0 
L 0 0 
z
" style="fill: #ffffff"/>
  </g>
  <g id="axes_1">
   <g id="patch_2">
    <path d="M 57.08 300.04 
L 353.803538 300.04 
L 353.803538 72 
L 57.08 72 
z
" style="fill: #ffffff"/>
   </g>
   <g id="matplotlib.axis_1">
    <g id="xtick_1">
     <g id="line2d_1">
      <defs>
       <path id="m6ff31a495d" d="M 0 0 
L 0 3.5 
" style="stroke: #000000; stroke-width: 0.8"/>
      </defs>
      <g>
       <use xlink:href="#m6ff31a495d" x="60.305256" y="300.04" style="stroke: #000000; stroke-width: 0.8"/>
      </g>
     </g>
     <g id="text_1">
      <!-- 0 -->
      <g transform="translate(54.579006 320.717188) scale(0.18 -0.18)">
       <defs>
        <path id="DejaVuSans-30" d="M 2034 4250 
Q 1547 4250 1301 3770 
Q 1056 3291 1056 2328 
Q 1056 1369 1301 889 
Q 1547 409 2034 409 
Q 2525 409 2770 889 
Q 3016 1369 3016 2328 
Q 3016 3291 2770 3770 
Q 2525 4250 2034 4250 
z
M 2034 4750 
Q 2819 4750 3233 4129 
Q 3647 3509 3647 2328 
Q 3647 1150 3233 529 
Q 2819 -91 2034 -91 
Q 1250 -91 836 529 
Q 422 1150 422 2328 
Q 422 3509 836 4129 
Q 1250 4750 2034 4750 
z
" transform="scale(0.015625)"/>
       </defs>
       <use xlink:href="#DejaVuSans-30"/>
      </g>
     </g>
    </g>
    <g id="xtick_2">
     <g id="line2d_2">
      <g>
       <use xlink:href="#m6ff31a495d" x="92.557814" y="300.04" style="stroke: #000000; stroke-width: 0.8"/>
      </g>
     </g>
     <g id="text_2">
      <!-- 1 -->
      <g transform="translate(86.831564 320.717188) scale(0.18 -0.18)">
       <defs>
        <path id="DejaVuSans-31" d="M 794 531 
L 1825 531 
L 1825 4091 
L 703 3866 
L 703 4441 
L 1819 4666 
L 2450 4666 
L 2450 531 
L 3481 531 
L 3481 0 
L 794 0 
L 794 531 
z
" transform="scale(0.015625)"/>
       </defs>
       <use xlink:href="#DejaVuSans-31"/>
      </g>
     </g>
    </g>
    <g id="xtick_3">
     <g id="line2d_3">
      <g>
       <use xlink:href="#m6ff31a495d" x="124.810373" y="300.04" style="stroke: #000000; stroke-width: 0.8"/>
      </g>
     </g>
     <g id="text_3">
      <!-- 2 -->
      <g transform="translate(119.084123 320.717188) scale(0.18 -0.18)">
       <defs>
        <path id="DejaVuSans-32" d="M 1228 531 
L 3431 531 
L 3431 0 
L 469 0 
L 469 531 
Q 828 903 1448 1529 
Q 2069 2156 2228 2338 
Q 2531 2678 2651 2914 
Q 2772 3150 2772 3378 
Q 2772 3750 2511 3984 
Q 2250 4219 1831 4219 
Q 1534 4219 1204 4116 
Q 875 4013 500 3803 
L 500 4441 
Q 881 4594 1212 4672 
Q 1544 4750 1819 4750 
Q 2544 4750 2975 4387 
Q 3406 4025 3406 3419 
Q 3406 3131 3298 2873 
Q 3191 2616 2906 2266 
Q 2828 2175 2409 1742 
Q 1991 1309 1228 531 
z
" transform="scale(0.015625)"/>
       </defs>
       <use xlink:href="#DejaVuSans-32"/>
      </g>
     </g>
    </g>
    <g id="xtick_4">
     <g id="line2d_4">
      <g>
       <use xlink:href="#m6ff31a495d" x="157.062931" y="300.04" style="stroke: #000000; stroke-width: 0.8"/>
      </g>
     </g>
     <g id="text_4">
      <!-- 3 -->
      <g transform="translate(151.336681 320.717188) scale(0.18 -0.18)">
       <defs>
        <path id="DejaVuSans-33" d="M 2597 2516 
Q 3050 2419 3304 2112 
Q 3559 1806 3559 1356 
Q 3559 666 3084 287 
Q 2609 -91 1734 -91 
Q 1441 -91 1130 -33 
Q 819 25 488 141 
L 488 750 
Q 750 597 1062 519 
Q 1375 441 1716 441 
Q 2309 441 2620 675 
Q 2931 909 2931 1356 
Q 2931 1769 2642 2001 
Q 2353 2234 1838 2234 
L 1294 2234 
L 1294 2753 
L 1863 2753 
Q 2328 2753 2575 2939 
Q 2822 3125 2822 3475 
Q 2822 3834 2567 4026 
Q 2313 4219 1838 4219 
Q 1578 4219 1281 4162 
Q 984 4106 628 3988 
L 628 4550 
Q 988 4650 1302 4700 
Q 1616 4750 1894 4750 
Q 2613 4750 3031 4423 
Q 3450 4097 3450 3541 
Q 3450 3153 3228 2886 
Q 3006 2619 2597 2516 
z
" transform="scale(0.015625)"/>
       </defs>
       <use xlink:href="#DejaVuSans-33"/>
      </g>
     </g>
    </g>
    <g id="xtick_5">
     <g id="line2d_5">
      <g>
       <use xlink:href="#m6ff31a495d" x="189.31549" y="300.04" style="stroke: #000000; stroke-width: 0.8"/>
      </g>
     </g>
     <g id="text_5">
      <!-- 4 -->
      <g transform="translate(183.58924 320.717188) scale(0.18 -0.18)">
       <defs>
        <path id="DejaVuSans-34" d="M 2419 4116 
L 825 1625 
L 2419 1625 
L 2419 4116 
z
M 2253 4666 
L 3047 4666 
L 3047 1625 
L 3713 1625 
L 3713 1100 
L 3047 1100 
L 3047 0 
L 2419 0 
L 2419 1100 
L 313 1100 
L 313 1709 
L 2253 4666 
z
" transform="scale(0.015625)"/>
       </defs>
       <use xlink:href="#DejaVuSans-34"/>
      </g>
     </g>
    </g>
    <g id="xtick_6">
     <g id="line2d_6">
      <g>
       <use xlink:href="#m6ff31a495d" x="221.568048" y="300.04" style="stroke: #000000; stroke-width: 0.8"/>
      </g>
     </g>
     <g id="text_6">
      <!-- 5 -->
      <g transform="translate(215.841798 320.717188) scale(0.18 -0.18)">
       <defs>
        <path id="DejaVuSans-35" d="M 691 4666 
L 3169 4666 
L 3169 4134 
L 1269 4134 
L 1269 2991 
Q 1406 3038 1543 3061 
Q 1681 3084 1819 3084 
Q 2600 3084 3056 2656 
Q 3513 2228 3513 1497 
Q 3513 744 3044 326 
Q 2575 -91 1722 -91 
Q 1428 -91 1123 -41 
Q 819 9 494 109 
L 494 744 
Q 775 591 1075 516 
Q 1375 441 1709 441 
Q 2250 441 2565 725 
Q 2881 1009 2881 1497 
Q 2881 1984 2565 2268 
Q 2250 2553 1709 2553 
Q 1456 2553 1204 2497 
Q 953 2441 691 2322 
L 691 4666 
z
" transform="scale(0.015625)"/>
       </defs>
       <use xlink:href="#DejaVuSans-35"/>
      </g>
     </g>
    </g>
    <g id="xtick_7">
     <g id="line2d_7">
      <g>
       <use xlink:href="#m6ff31a495d" x="253.820607" y="300.04" style="stroke: #000000; stroke-width: 0.8"/>
      </g>
     </g>
     <g id="text_7">
      <!-- 6 -->
      <g transform="translate(248.094357 320.717188) scale(0.18 -0.18)">
       <defs>
        <path id="DejaVuSans-36" d="M 2113 2584 
Q 1688 2584 1439 2293 
Q 1191 2003 1191 1497 
Q 1191 994 1439 701 
Q 1688 409 2113 409 
Q 2538 409 2786 701 
Q 3034 994 3034 1497 
Q 3034 2003 2786 2293 
Q 2538 2584 2113 2584 
z
M 3366 4563 
L 3366 3988 
Q 3128 4100 2886 4159 
Q 2644 4219 2406 4219 
Q 1781 4219 1451 3797 
Q 1122 3375 1075 2522 
Q 1259 2794 1537 2939 
Q 1816 3084 2150 3084 
Q 2853 3084 3261 2657 
Q 3669 2231 3669 1497 
Q 3669 778 3244 343 
Q 2819 -91 2113 -91 
Q 1303 -91 875 529 
Q 447 1150 447 2328 
Q 447 3434 972 4092 
Q 1497 4750 2381 4750 
Q 2619 4750 2861 4703 
Q 3103 4656 3366 4563 
z
" transform="scale(0.015625)"/>
       </defs>
       <use xlink:href="#DejaVuSans-36"/>
      </g>
     </g>
    </g>
    <g id="xtick_8">
     <g id="line2d_8">
      <g>
       <use xlink:href="#m6ff31a495d" x="286.073165" y="300.04" style="stroke: #000000; stroke-width: 0.8"/>
      </g>
     </g>
     <g id="text_8">
      <!-- 7 -->
      <g transform="translate(280.346915 320.717188) scale(0.18 -0.18)">
       <defs>
        <path id="DejaVuSans-37" d="M 525 4666 
L 3525 4666 
L 3525 4397 
L 1831 0 
L 1172 0 
L 2766 4134 
L 525 4134 
L 525 4666 
z
" transform="scale(0.015625)"/>
       </defs>
       <use xlink:href="#DejaVuSans-37"/>
      </g>
     </g>
    </g>
    <g id="xtick_9">
     <g id="line2d_9">
      <g>
       <use xlink:href="#m6ff31a495d" x="318.325724" y="300.04" style="stroke: #000000; stroke-width: 0.8"/>
      </g>
     </g>
     <g id="text_9">
      <!-- 8 -->
      <g transform="translate(312.599474 320.717188) scale(0.18 -0.18)">
       <defs>
        <path id="DejaVuSans-38" d="M 2034 2216 
Q 1584 2216 1326 1975 
Q 1069 1734 1069 1313 
Q 1069 891 1326 650 
Q 1584 409 2034 409 
Q 2484 409 2743 651 
Q 3003 894 3003 1313 
Q 3003 1734 2745 1975 
Q 2488 2216 2034 2216 
z
M 1403 2484 
Q 997 2584 770 2862 
Q 544 3141 544 3541 
Q 544 4100 942 4425 
Q 1341 4750 2034 4750 
Q 2731 4750 3128 4425 
Q 3525 4100 3525 3541 
Q 3525 3141 3298 2862 
Q 3072 2584 2669 2484 
Q 3125 2378 3379 2068 
Q 3634 1759 3634 1313 
Q 3634 634 3220 271 
Q 2806 -91 2034 -91 
Q 1263 -91 848 271 
Q 434 634 434 1313 
Q 434 1759 690 2068 
Q 947 2378 1403 2484 
z
M 1172 3481 
Q 1172 3119 1398 2916 
Q 1625 2713 2034 2713 
Q 2441 2713 2670 2916 
Q 2900 3119 2900 3481 
Q 2900 3844 2670 4047 
Q 2441 4250 2034 4250 
Q 1625 4250 1398 4047 
Q 1172 3844 1172 3481 
z
" transform="scale(0.015625)"/>
       </defs>
       <use xlink:href="#DejaVuSans-38"/>
      </g>
     </g>
    </g>
    <g id="xtick_10">
     <g id="line2d_10">
      <g>
       <use xlink:href="#m6ff31a495d" x="350.578282" y="300.04" style="stroke: #000000; stroke-width: 0.8"/>
      </g>
     </g>
     <g id="text_10">
      <!-- 9 -->
      <g transform="translate(344.852032 320.717188) scale(0.18 -0.18)">
       <defs>
        <path id="DejaVuSans-39" d="M 703 97 
L 703 672 
Q 941 559 1184 500 
Q 1428 441 1663 441 
Q 2288 441 2617 861 
Q 2947 1281 2994 2138 
Q 2813 1869 2534 1725 
Q 2256 1581 1919 1581 
Q 1219 1581 811 2004 
Q 403 2428 403 3163 
Q 403 3881 828 4315 
Q 1253 4750 1959 4750 
Q 2769 4750 3195 4129 
Q 3622 3509 3622 2328 
Q 3622 1225 3098 567 
Q 2575 -91 1691 -91 
Q 1453 -91 1209 -44 
Q 966 3 703 97 
z
M 1959 2075 
Q 2384 2075 2632 2365 
Q 2881 2656 2881 3163 
Q 2881 3666 2632 3958 
Q 2384 4250 1959 4250 
Q 1534 4250 1286 3958 
Q 1038 3666 1038 3163 
Q 1038 2656 1286 2365 
Q 1534 2075 1959 2075 
z
" transform="scale(0.015625)"/>
       </defs>
       <use xlink:href="#DejaVuSans-39"/>
      </g>
     </g>
    </g>
    <g id="text_11">
     <!-- Time (d) -->
     <g transform="translate(159.465207 345.177188) scale(0.22 -0.22)">
      <defs>
       <path id="DejaVuSans-54" d="M -19 4666 
L 3928 4666 
L 3928 4134 
L 2272 4134 
L 2272 0 
L 1638 0 
L 1638 4134 
L -19 4134 
L -19 4666 
z
" transform="scale(0.015625)"/>
       <path id="DejaVuSans-69" d="M 603 3500 
L 1178 3500 
L 1178 0 
L 603 0 
L 603 3500 
z
M 603 4863 
L 1178 4863 
L 1178 4134 
L 603 4134 
L 603 4863 
z
" transform="scale(0.015625)"/>
       <path id="DejaVuSans-6d" d="M 3328 2828 
Q 3544 3216 3844 3400 
Q 4144 3584 4550 3584 
Q 5097 3584 5394 3201 
Q 5691 2819 5691 2113 
L 5691 0 
L 5113 0 
L 5113 2094 
Q 5113 2597 4934 2840 
Q 4756 3084 4391 3084 
Q 3944 3084 3684 2787 
Q 3425 2491 3425 1978 
L 3425 0 
L 2847 0 
L 2847 2094 
Q 2847 2600 2669 2842 
Q 2491 3084 2119 3084 
Q 1678 3084 1418 2786 
Q 1159 2488 1159 1978 
L 1159 0 
L 581 0 
L 581 3500 
L 1159 3500 
L 1159 2956 
Q 1356 3278 1631 3431 
Q 1906 3584 2284 3584 
Q 2666 3584 2933 3390 
Q 3200 3197 3328 2828 
z
" transform="scale(0.015625)"/>
       <path id="DejaVuSans-65" d="M 3597 1894 
L 3597 1613 
L 953 1613 
Q 991 1019 1311 708 
Q 1631 397 2203 397 
Q 2534 397 2845 478 
Q 3156 559 3463 722 
L 3463 178 
Q 3153 47 2828 -22 
Q 2503 -91 2169 -91 
Q 1331 -91 842 396 
Q 353 884 353 1716 
Q 353 2575 817 3079 
Q 1281 3584 2069 3584 
Q 2775 3584 3186 3129 
Q 3597 2675 3597 1894 
z
M 3022 2063 
Q 3016 2534 2758 2815 
Q 2500 3097 2075 3097 
Q 1594 3097 1305 2825 
Q 1016 2553 972 2059 
L 3022 2063 
z
" transform="scale(0.015625)"/>
       <path id="DejaVuSans-20" transform="scale(0.015625)"/>
       <path id="DejaVuSans-28" d="M 1984 4856 
Q 1566 4138 1362 3434 
Q 1159 2731 1159 2009 
Q 1159 1288 1364 580 
Q 1569 -128 1984 -844 
L 1484 -844 
Q 1016 -109 783 600 
Q 550 1309 550 2009 
Q 550 2706 781 3412 
Q 1013 4119 1484 4856 
L 1984 4856 
z
" transform="scale(0.015625)"/>
       <path id="DejaVuSans-64" d="M 2906 2969 
L 2906 4863 
L 3481 4863 
L 3481 0 
L 2906 0 
L 2906 525 
Q 2725 213 2448 61 
Q 2172 -91 1784 -91 
Q 1150 -91 751 415 
Q 353 922 353 1747 
Q 353 2572 751 3078 
Q 1150 3584 1784 3584 
Q 2172 3584 2448 3432 
Q 2725 3281 2906 2969 
z
M 947 1747 
Q 947 1113 1208 752 
Q 1469 391 1925 391 
Q 2381 391 2643 752 
Q 2906 1113 2906 1747 
Q 2906 2381 2643 2742 
Q 2381 3103 1925 3103 
Q 1469 3103 1208 2742 
Q 947 2381 947 1747 
z
" transform="scale(0.015625)"/>
       <path id="DejaVuSans-29" d="M 513 4856 
L 1013 4856 
Q 1481 4119 1714 3412 
Q 1947 2706 1947 2009 
Q 1947 1309 1714 600 
Q 1481 -109 1013 -844 
L 513 -844 
Q 928 -128 1133 580 
Q 1338 1288 1338 2009 
Q 1338 2731 1133 3434 
Q 928 4138 513 4856 
z
" transform="scale(0.015625)"/>
      </defs>
      <use xlink:href="#DejaVuSans-54"/>
      <use xlink:href="#DejaVuSans-69" x="57.958984"/>
      <use xlink:href="#DejaVuSans-6d" x="85.742188"/>
      <use xlink:href="#DejaVuSans-65" x="183.154297"/>
      <use xlink:href="#DejaVuSans-20" x="244.677734"/>
      <use xlink:href="#DejaVuSans-28" x="276.464844"/>
      <use xlink:href="#DejaVuSans-64" x="315.478516"/>
      <use xlink:href="#DejaVuSans-29" x="378.955078"/>
     </g>
    </g>
   </g>
   <g id="matplotlib.axis_2">
    <g id="ytick_1">
     <g id="line2d_11">
      <defs>
       <path id="m6b8d3f5eb6" d="M 0 0 
L -3.5 0 
" style="stroke: #000000; stroke-width: 0.8"/>
      </defs>
      <g>
       <use xlink:href="#m6b8d3f5eb6" x="57.08" y="300.04" style="stroke: #000000; stroke-width: 0.8"/>
      </g>
     </g>
     <g id="text_12">
      <!-- 0 -->
      <g transform="translate(38.6275 306.878594) scale(0.18 -0.18)">
       <use xlink:href="#DejaVuSans-30"/>
      </g>
     </g>
    </g>
    <g id="ytick_2">
     <g id="line2d_12">
      <g>
       <use xlink:href="#m6b8d3f5eb6" x="57.08" y="243.03" style="stroke: #000000; stroke-width: 0.8"/>
      </g>
     </g>
     <g id="text_13">
      <!-- 2 -->
      <g transform="translate(38.6275 249.868594) scale(0.18 -0.18)">
       <use xlink:href="#DejaVuSans-32"/>
      </g>
     </g>
    </g>
    <g id="ytick_3">
     <g id="line2d_13">
      <g>
       <use xlink:href="#m6b8d3f5eb6" x="57.08" y="186.02" style="stroke: #000000; stroke-width: 0.8"/>
      </g>
     </g>
     <g id="text_14">
      <!-- 4 -->
      <g transform="translate(38.6275 192.858594) scale(0.18 -0.18)">
       <use xlink:href="#DejaVuSans-34"/>
      </g>
     </g>
    </g>
    <g id="ytick_4">
     <g id="line2d_14">
      <g>
       <use xlink:href="#m6b8d3f5eb6" x="57.08" y="129.01" style="stroke: #000000; stroke-width: 0.8"/>
      </g>
     </g>
     <g id="text_15">
      <!-- 6 -->
      <g transform="translate(38.6275 135.848594) scale(0.18 -0.18)">
       <use xlink:href="#DejaVuSans-36"/>
      </g>
     </g>
    </g>
    <g id="ytick_5">
     <g id="line2d_15">
      <g>
       <use xlink:href="#m6b8d3f5eb6" x="57.08" y="72" style="stroke: #000000; stroke-width: 0.8"/>
      </g>
     </g>
     <g id="text_16">
      <!-- 8 -->
      <g transform="translate(38.6275 78.838594) scale(0.18 -0.18)">
       <use xlink:href="#DejaVuSans-38"/>
      </g>
     </g>
    </g>
    <g id="text_17">
     <!-- Virus (log$_{10}$ copies/mL) -->
     <g transform="translate(30.0075 312.3) rotate(-90) scale(0.22 -0.22)">
      <defs>
       <path id="DejaVuSans-56" d="M 1831 0 
L 50 4666 
L 709 4666 
L 2188 738 
L 3669 4666 
L 4325 4666 
L 2547 0 
L 1831 0 
z
" transform="scale(0.015625)"/>
       <path id="DejaVuSans-72" d="M 2631 2963 
Q 2534 3019 2420 3045 
Q 2306 3072 2169 3072 
Q 1681 3072 1420 2755 
Q 1159 2438 1159 1844 
L 1159 0 
L 581 0 
L 581 3500 
L 1159 3500 
L 1159 2956 
Q 1341 3275 1631 3429 
Q 1922 3584 2338 3584 
Q 2397 3584 2469 3576 
Q 2541 3569 2628 3553 
L 2631 2963 
z
" transform="scale(0.015625)"/>
       <path id="DejaVuSans-75" d="M 544 1381 
L 544 3500 
L 1119 3500 
L 1119 1403 
Q 1119 906 1312 657 
Q 1506 409 1894 409 
Q 2359 409 2629 706 
Q 2900 1003 2900 1516 
L 2900 3500 
L 3475 3500 
L 3475 0 
L 2900 0 
L 2900 538 
Q 2691 219 2414 64 
Q 2138 -91 1772 -91 
Q 1169 -91 856 284 
Q 544 659 544 1381 
z
M 1991 3584 
L 1991 3584 
z
" transform="scale(0.015625)"/>
       <path id="DejaVuSans-73" d="M 2834 3397 
L 2834 2853 
Q 2591 2978 2328 3040 
Q 2066 3103 1784 3103 
Q 1356 3103 1142 2972 
Q 928 2841 928 2578 
Q 928 2378 1081 2264 
Q 1234 2150 1697 2047 
L 1894 2003 
Q 2506 1872 2764 1633 
Q 3022 1394 3022 966 
Q 3022 478 2636 193 
Q 2250 -91 1575 -91 
Q 1294 -91 989 -36 
Q 684 19 347 128 
L 347 722 
Q 666 556 975 473 
Q 1284 391 1588 391 
Q 1994 391 2212 530 
Q 2431 669 2431 922 
Q 2431 1156 2273 1281 
Q 2116 1406 1581 1522 
L 1381 1569 
Q 847 1681 609 1914 
Q 372 2147 372 2553 
Q 372 3047 722 3315 
Q 1072 3584 1716 3584 
Q 2034 3584 2315 3537 
Q 2597 3491 2834 3397 
z
" transform="scale(0.015625)"/>
       <path id="DejaVuSans-6c" d="M 603 4863 
L 1178 4863 
L 1178 0 
L 603 0 
L 603 4863 
z
" transform="scale(0.015625)"/>
       <path id="DejaVuSans-6f" d="M 1959 3097 
Q 1497 3097 1228 2736 
Q 959 2375 959 1747 
Q 959 1119 1226 758 
Q 1494 397 1959 397 
Q 2419 397 2687 759 
Q 2956 1122 2956 1747 
Q 2956 2369 2687 2733 
Q 2419 3097 1959 3097 
z
M 1959 3584 
Q 2709 3584 3137 3096 
Q 3566 2609 3566 1747 
Q 3566 888 3137 398 
Q 2709 -91 1959 -91 
Q 1206 -91 779 398 
Q 353 888 353 1747 
Q 353 2609 779 3096 
Q 1206 3584 1959 3584 
z
" transform="scale(0.015625)"/>
       <path id="DejaVuSans-67" d="M 2906 1791 
Q 2906 2416 2648 2759 
Q 2391 3103 1925 3103 
Q 1463 3103 1205 2759 
Q 947 2416 947 1791 
Q 947 1169 1205 825 
Q 1463 481 1925 481 
Q 2391 481 2648 825 
Q 2906 1169 2906 1791 
z
M 3481 434 
Q 3481 -459 3084 -895 
Q 2688 -1331 1869 -1331 
Q 1566 -1331 1297 -1286 
Q 1028 -1241 775 -1147 
L 775 -588 
Q 1028 -725 1275 -790 
Q 1522 -856 1778 -856 
Q 2344 -856 2625 -561 
Q 2906 -266 2906 331 
L 2906 616 
Q 2728 306 2450 153 
Q 2172 0 1784 0 
Q 1141 0 747 490 
Q 353 981 353 1791 
Q 353 2603 747 3093 
Q 1141 3584 1784 3584 
Q 2172 3584 2450 3431 
Q 2728 3278 2906 2969 
L 2906 3500 
L 3481 3500 
L 3481 434 
z
" transform="scale(0.015625)"/>
       <path id="DejaVuSans-63" d="M 3122 3366 
L 3122 2828 
Q 2878 2963 2633 3030 
Q 2388 3097 2138 3097 
Q 1578 3097 1268 2742 
Q 959 2388 959 1747 
Q 959 1106 1268 751 
Q 1578 397 2138 397 
Q 2388 397 2633 464 
Q 2878 531 3122 666 
L 3122 134 
Q 2881 22 2623 -34 
Q 2366 -91 2075 -91 
Q 1284 -91 818 406 
Q 353 903 353 1747 
Q 353 2603 823 3093 
Q 1294 3584 2113 3584 
Q 2378 3584 2631 3529 
Q 2884 3475 3122 3366 
z
" transform="scale(0.015625)"/>
       <path id="DejaVuSans-70" d="M 1159 525 
L 1159 -1331 
L 581 -1331 
L 581 3500 
L 1159 3500 
L 1159 2969 
Q 1341 3281 1617 3432 
Q 1894 3584 2278 3584 
Q 2916 3584 3314 3078 
Q 3713 2572 3713 1747 
Q 3713 922 3314 415 
Q 2916 -91 2278 -91 
Q 1894 -91 1617 61 
Q 1341 213 1159 525 
z
M 3116 1747 
Q 3116 2381 2855 2742 
Q 2594 3103 2138 3103 
Q 1681 3103 1420 2742 
Q 1159 2381 1159 1747 
Q 1159 1113 1420 752 
Q 1681 391 2138 391 
Q 2594 391 2855 752 
Q 3116 1113 3116 1747 
z
" transform="scale(0.015625)"/>
       <path id="DejaVuSans-2f" d="M 1625 4666 
L 2156 4666 
L 531 -594 
L 0 -594 
L 1625 4666 
z
" transform="scale(0.015625)"/>
       <path id="DejaVuSans-4c" d="M 628 4666 
L 1259 4666 
L 1259 531 
L 3531 531 
L 3531 0 
L 628 0 
L 628 4666 
z
" transform="scale(0.015625)"/>
      </defs>
      <use xlink:href="#DejaVuSans-56" transform="translate(0 0.015625)"/>
      <use xlink:href="#DejaVuSans-69" transform="translate(68.408203 0.015625)"/>
      <use xlink:href="#DejaVuSans-72" transform="translate(96.191406 0.015625)"/>
      <use xlink:href="#DejaVuSans-75" transform="translate(137.304688 0.015625)"/>
      <use xlink:href="#DejaVuSans-73" transform="translate(200.683594 0.015625)"/>
      <use xlink:href="#DejaVuSans-20" transform="translate(252.783203 0.015625)"/>
      <use xlink:href="#DejaVuSans-28" transform="translate(284.570312 0.015625)"/>
      <use xlink:href="#DejaVuSans-6c" transform="translate(323.583984 0.015625)"/>
      <use xlink:href="#DejaVuSans-6f" transform="translate(351.367188 0.015625)"/>
      <use xlink:href="#DejaVuSans-67" transform="translate(412.548828 0.015625)"/>
      <use xlink:href="#DejaVuSans-31" transform="translate(476.982422 -16.390625) scale(0.7)"/>
      <use xlink:href="#DejaVuSans-30" transform="translate(521.518555 -16.390625) scale(0.7)"/>
      <use xlink:href="#DejaVuSans-20" transform="translate(568.789062 0.015625)"/>
      <use xlink:href="#DejaVuSans-63" transform="translate(600.576172 0.015625)"/>
      <use xlink:href="#DejaVuSans-6f" transform="translate(655.556641 0.015625)"/>
      <use xlink:href="#DejaVuSans-70" transform="translate(716.738281 0.015625)"/>
      <use xlink:href="#DejaVuSans-69" transform="translate(780.214844 0.015625)"/>
      <use xlink:href="#DejaVuSans-65" transform="translate(807.998047 0.015625)"/>
      <use xlink:href="#DejaVuSans-73" transform="translate(869.521484 0.015625)"/>
      <use xlink:href="#DejaVuSans-2f" transform="translate(921.621094 0.015625)"/>
      <use xlink:href="#DejaVuSans-6d" transform="translate(955.3125 0.015625)"/>
      <use xlink:href="#DejaVuSans-4c" transform="translate(1052.724609 0.015625)"/>
      <use xlink:href="#DejaVuSans-29" transform="translate(1108.4375 0.015625)"/>
     </g>
    </g>
   </g>
   <g id="patch_3">
    <path d="M 57.08 300.04 
L 57.08 72 
" style="fill: none; stroke: #000000; stroke-width: 0.8; stroke-linejoin: miter; stroke-linecap: square"/>
   </g>
   <g id="patch_4">
    <path d="M 353.803538 300.04 
L 353.803538 72 
" style="fill: none; stroke: #000000; stroke-width: 0.8; stroke-linejoin: miter; stroke-linecap: square"/>
   </g>
   <g id="patch_5">
    <path d="M 57.08 300.04 
L 353.803538 300.04 
" style="fill: none; stroke: #000000; stroke-width: 0.8; stroke-linejoin: miter; stroke-linecap: square"/>
   </g>
   <g id="patch_6">
    <path d="M 57.08 72 
L 353.803538 72 
" style="fill: none; stroke: #000000; stroke-width: 0.8; stroke-linejoin: miter; stroke-linecap: square"/>
   </g>
   <g id="PolyCollection_1">
    <defs>
     <path id="m3014bc8806" d="M 60.305256 -59.96 
L 60.305256 -59.96 
L 60.305618 -59.96 
L 60.309234 -59.96 
L 60.3454 -59.96 
L 60.497965 -59.96 
L 60.601602 -59.96 
L 60.973555 -59.96 
L 61.219447 -59.96 
L 62.064879 -59.96 
L 62.650897 -59.96 
L 64.314721 -61.841991 
L 65.244491 -64.033913 
L 67.82122 -66.948554 
L 69.106037 -67.646934 
L 72.331293 -68.53618 
L 73.981439 -68.758246 
L 77.206695 -68.937285 
L 79.29779 -68.965619 
L 82.523046 -68.934972 
L 85.131555 -68.878187 
L 88.356811 -68.788231 
L 90.662441 -68.682027 
L 93.15005 -68.554534 
L 96.375306 -68.386168 
L 98.936843 -68.251166 
L 102.162099 -68.080279 
L 105.387355 -67.908843 
L 108.612611 -67.649247 
L 111.837867 -67.338591 
L 115.063122 -67.027818 
L 118.288378 -66.716985 
L 121.513634 -66.406123 
L 124.73889 -66.095244 
L 127.964146 -65.784356 
L 131.189402 -65.473462 
L 134.414657 -65.162565 
L 137.639913 -64.827497 
L 140.865169 -64.446183 
L 144.090425 -64.064866 
L 147.315681 -63.683549 
L 150.540937 -63.302229 
L 153.766193 -62.920908 
L 156.991448 -62.511616 
L 160.216704 -62.073 
L 163.44196 -61.634384 
L 166.667216 -61.195766 
L 169.892472 -60.757148 
L 173.117728 -60.318529 
L 176.342984 -59.993206 
L 179.568239 -59.96 
L 182.793495 -59.96 
L 186.018751 -59.96 
L 189.244007 -59.96 
L 192.469263 -59.96 
L 195.694519 -59.96 
L 198.919774 -59.96 
L 202.14503 -59.96 
L 205.370286 -59.96 
L 208.595542 -59.96 
L 211.820798 -59.96 
L 215.046054 -59.96 
L 218.27131 -59.96 
L 221.496565 -59.96 
L 224.721821 -59.96 
L 227.947077 -59.96 
L 231.172333 -59.96 
L 234.397589 -59.96 
L 237.622845 -59.96 
L 240.848101 -59.96 
L 244.073356 -59.96 
L 247.298612 -59.96 
L 250.523868 -59.96 
L 253.749124 -59.96 
L 256.97438 -59.96 
L 260.199636 -59.96 
L 263.424892 -59.96 
L 266.650147 -59.96 
L 269.875403 -59.96 
L 273.100659 -59.96 
L 276.325915 -59.96 
L 279.551171 -59.96 
L 282.776427 -59.96 
L 286.001682 -59.96 
L 289.226938 -59.96 
L 292.452194 -59.96 
L 295.67745 -59.96 
L 298.902706 -59.96 
L 302.127962 -59.96 
L 305.353218 -59.96 
L 308.578473 -59.96 
L 311.803729 -59.96 
L 315.028985 -59.96 
L 318.254241 -59.96 
L 321.479497 -59.96 
L 324.704753 -59.96 
L 327.930009 -59.96 
L 331.155264 -59.96 
L 334.38052 -59.96 
L 337.605776 -59.96 
L 340.831032 -59.96 
L 344.056288 -59.96 
L 347.281544 -59.96 
L 350.506799 -59.96 
L 350.578282 -59.96 
L 350.578282 -60.791361 
L 350.578282 -60.791361 
L 350.506799 -60.794745 
L 347.281544 -60.947398 
L 344.056288 -61.100116 
L 340.831032 -61.252834 
L 337.605776 -61.405553 
L 334.38052 -61.558271 
L 331.155264 -61.710989 
L 327.930009 -61.863708 
L 324.704753 -62.016426 
L 321.479497 -62.169144 
L 318.254241 -62.321862 
L 315.028985 -62.47458 
L 311.803729 -62.627298 
L 308.578473 -62.780015 
L 305.353218 -62.932733 
L 302.127962 -63.085451 
L 298.902706 -63.238168 
L 295.67745 -63.390885 
L 292.452194 -63.543602 
L 289.226938 -63.696319 
L 286.001682 -63.849036 
L 282.776427 -64.001753 
L 279.551171 -64.154469 
L 276.325915 -64.307185 
L 273.100659 -64.459901 
L 269.875403 -64.612617 
L 266.650147 -64.765333 
L 263.424892 -64.918048 
L 260.199636 -65.070763 
L 256.97438 -65.223477 
L 253.749124 -65.376192 
L 250.523868 -65.528906 
L 247.298612 -65.681619 
L 244.073356 -65.859421 
L 240.848101 -66.037525 
L 237.622845 -66.215889 
L 234.397589 -66.401866 
L 231.172333 -66.587843 
L 227.947077 -66.77382 
L 224.721821 -66.959796 
L 221.496565 -67.145771 
L 218.27131 -67.331747 
L 215.046054 -67.517721 
L 211.820798 -67.703695 
L 208.595542 -67.889668 
L 205.370286 -68.075641 
L 202.14503 -68.261613 
L 198.919774 -68.447584 
L 195.694519 -68.633555 
L 192.469263 -68.819524 
L 189.244007 -69.005493 
L 186.018751 -69.19146 
L 182.793495 -69.377427 
L 179.568239 -69.563392 
L 176.342984 -69.749356 
L 173.117728 -69.935319 
L 169.892472 -70.121281 
L 166.667216 -70.307241 
L 163.44196 -70.4932 
L 160.216704 -70.679157 
L 156.991448 -70.865112 
L 153.766193 -71.051066 
L 150.540937 -71.237018 
L 147.315681 -71.422968 
L 144.090425 -71.608916 
L 140.865169 -71.794861 
L 137.639913 -71.980805 
L 134.414657 -72.166746 
L 131.189402 -72.352684 
L 127.964146 -72.538621 
L 124.73889 -72.724554 
L 121.513634 -72.910486 
L 118.288378 -73.096415 
L 115.063122 -73.29099 
L 111.837867 -73.486675 
L 108.612611 -73.68236 
L 105.387355 -73.877952 
L 102.162099 -74.073353 
L 98.936843 -74.268814 
L 96.375306 -74.423824 
L 93.15005 -74.61871 
L 90.662441 -74.768204 
L 88.356811 -74.905565 
L 85.131555 -75.093298 
L 82.523046 -75.237163 
L 79.29779 -75.392531 
L 77.206695 -75.462375 
L 73.981439 -75.47206 
L 72.331293 -75.369351 
L 69.106037 -74.771692 
L 67.82122 -74.172555 
L 65.244491 -71.901227 
L 64.314721 -70.253913 
L 62.650897 -64.807298 
L 62.064879 -61.23644 
L 61.219447 -59.99537 
L 60.973555 -59.96 
L 60.601602 -59.96 
L 60.497965 -59.96 
L 60.3454 -59.96 
L 60.309234 -59.96 
L 60.305618 -59.96 
L 60.305256 -59.96 
z
" style="stroke: #800080; stroke-opacity: 0.2"/>
    </defs>
    <g clip-path="url(#p7fd9d9d06b)">
     <use xlink:href="#m3014bc8806" x="0" y="360" style="fill: #800080; fill-opacity: 0.2; stroke: #800080; stroke-opacity: 0.2"/>
    </g>
   </g>
   <g id="PathCollection_1">
    <defs>
     <path id="m007134c940" d="M 0 4.330127 
C 1.148363 4.330127 2.249847 3.873878 3.061862 3.061862 
C 3.873878 2.249847 4.330127 1.148363 4.330127 0 
C 4.330127 -1.148363 3.873878 -2.249847 3.061862 -3.061862 
C 2.249847 -3.873878 1.148363 -4.330127 0 -4.330127 
C -1.148363 -4.330127 -2.249847 -3.873878 -3.061862 -3.061862 
C -3.873878 -2.249847 -4.330127 -1.148363 -4.330127 0 
C -4.330127 1.148363 -3.873878 2.249847 -3.061862 3.061862 
C -2.249847 3.873878 -1.148363 4.330127 0 4.330127 
z
" style="stroke: #800080; stroke-opacity: 0.8"/>
    </defs>
    <g clip-path="url(#p7fd9d9d06b)">
     <use xlink:href="#m007134c940" x="60.305256" y="300.04" style="fill: #800080; fill-opacity: 0.8; stroke: #800080; stroke-opacity: 0.8"/>
     <use xlink:href="#m007134c940" x="92.557814" y="300.04" style="fill: #800080; fill-opacity: 0.8; stroke: #800080; stroke-opacity: 0.8"/>
     <use xlink:href="#m007134c940" x="124.810373" y="259.447437" style="fill: #800080; fill-opacity: 0.8; stroke: #800080; stroke-opacity: 0.8"/>
     <use xlink:href="#m007134c940" x="157.062931" y="300.04" style="fill: #800080; fill-opacity: 0.8; stroke: #800080; stroke-opacity: 0.8"/>
     <use xlink:href="#m007134c940" x="189.31549" y="300.04" style="fill: #800080; fill-opacity: 0.8; stroke: #800080; stroke-opacity: 0.8"/>
     <use xlink:href="#m007134c940" x="221.568048" y="300.04" style="fill: #800080; fill-opacity: 0.8; stroke: #800080; stroke-opacity: 0.8"/>
     <use xlink:href="#m007134c940" x="253.820607" y="300.04" style="fill: #800080; fill-opacity: 0.8; stroke: #800080; stroke-opacity: 0.8"/>
     <use xlink:href="#m007134c940" x="286.073165" y="300.04" style="fill: #800080; fill-opacity: 0.8; stroke: #800080; stroke-opacity: 0.8"/>
    </g>
   </g>
   <g id="line2d_16">
    <path d="M 60.305256 300.04 
L 60.305618 300.04 
L 60.309234 300.04 
L 60.3454 300.04 
L 60.497965 300.04 
L 60.601602 300.04 
L 60.973555 300.04 
L 61.219447 300.04 
L 62.064879 299.066728 
L 62.650897 295.307891 
L 64.314721 289.869073 
L 65.244491 288.322286 
L 67.82122 286.117116 
L 69.106037 285.628871 
L 72.331293 285.117748 
L 73.981439 285.082376 
L 77.206695 285.190188 
L 79.29779 285.329813 
L 82.523046 285.589373 
L 85.131555 285.819184 
L 88.356811 286.113486 
L 90.662441 286.327247 
L 93.15005 286.559145 
L 96.375306 286.861313 
L 98.936843 287.101343 
L 102.162099 287.404161 
L 105.387355 287.707305 
L 108.612611 288.010466 
L 111.837867 288.313642 
L 115.063122 288.616823 
L 118.288378 288.920007 
L 121.513634 289.223194 
L 124.73889 289.526382 
L 127.964146 289.829574 
L 131.189402 290.132767 
L 134.414657 290.435963 
L 137.639913 290.73916 
L 140.865169 291.04236 
L 144.090425 291.345562 
L 147.315681 291.648766 
L 150.540937 291.951971 
L 153.766193 292.255178 
L 156.991448 292.558387 
L 160.216704 292.861597 
L 163.44196 293.164808 
L 166.667216 293.468021 
L 169.892472 293.771235 
L 173.117728 294.07445 
L 176.342984 294.377666 
L 179.568239 294.680882 
L 182.793495 294.9841 
L 186.018751 295.287318 
L 189.244007 295.590537 
L 192.469263 295.893757 
L 195.694519 296.196977 
L 198.919774 296.500198 
L 202.14503 296.803419 
L 205.370286 297.10664 
L 208.595542 297.409862 
L 211.820798 297.713084 
L 215.046054 298.016307 
L 218.27131 298.31953 
L 221.496565 298.622753 
L 224.721821 298.925976 
L 227.947077 299.229199 
L 231.172333 299.532422 
L 234.397589 299.835645 
L 237.622845 300.04 
L 240.848101 300.04 
L 244.073356 300.04 
L 247.298612 300.04 
L 250.523868 300.04 
L 253.749124 300.04 
L 256.97438 300.04 
L 260.199636 300.04 
L 263.424892 300.04 
L 266.650147 300.04 
L 269.875403 300.04 
L 273.100659 300.04 
L 276.325915 300.04 
L 279.551171 300.04 
L 282.776427 300.04 
L 286.001682 300.04 
L 289.226938 300.04 
L 292.452194 300.04 
L 295.67745 300.04 
L 298.902706 300.04 
L 302.127962 300.04 
L 305.353218 300.04 
L 308.578473 300.04 
L 311.803729 300.04 
L 315.028985 300.04 
L 318.254241 300.04 
L 321.479497 300.04 
L 324.704753 300.04 
L 327.930009 300.04 
L 331.155264 300.04 
L 334.38052 300.04 
L 337.605776 300.04 
L 340.831032 300.04 
L 344.056288 300.04 
L 347.281544 300.04 
L 350.506799 300.04 
L 350.578282 300.04 
" clip-path="url(#p7fd9d9d06b)" style="fill: none; stroke: #800080; stroke-width: 1.5; stroke-linecap: square"/>
   </g>
  </g>
  <g id="axes_2">
   <g id="patch_7">
    <path d="M 415.545487 300.04 
L 712.269026 300.04 
L 712.269026 72 
L 415.545487 72 
z
" style="fill: #ffffff"/>
   </g>
   <g id="matplotlib.axis_3">
    <g id="xtick_11">
     <g id="line2d_17">
      <g>
       <use xlink:href="#m6ff31a495d" x="418.770743" y="300.04" style="stroke: #000000; stroke-width: 0.8"/>
      </g>
     </g>
     <g id="text_18">
      <!-- 0 -->
      <g transform="translate(413.044493 320.717188) scale(0.18 -0.18)">
       <use xlink:href="#DejaVuSans-30"/>
      </g>
     </g>
    </g>
    <g id="xtick_12">
     <g id="line2d_18">
      <g>
       <use xlink:href="#m6ff31a495d" x="451.023302" y="300.04" style="stroke: #000000; stroke-width: 0.8"/>
      </g>
     </g>
     <g id="text_19">
      <!-- 1 -->
      <g transform="translate(445.297052 320.717188) scale(0.18 -0.18)">
       <use xlink:href="#DejaVuSans-31"/>
      </g>
     </g>
    </g>
    <g id="xtick_13">
     <g id="line2d_19">
      <g>
       <use xlink:href="#m6ff31a495d" x="483.27586" y="300.04" style="stroke: #000000; stroke-width: 0.8"/>
      </g>
     </g>
     <g id="text_20">
      <!-- 2 -->
      <g transform="translate(477.54961 320.717188) scale(0.18 -0.18)">
       <use xlink:href="#DejaVuSans-32"/>
      </g>
     </g>
    </g>
    <g id="xtick_14">
     <g id="line2d_20">
      <g>
       <use xlink:href="#m6ff31a495d" x="515.528419" y="300.04" style="stroke: #000000; stroke-width: 0.8"/>
      </g>
     </g>
     <g id="text_21">
      <!-- 3 -->
      <g transform="translate(509.802169 320.717188) scale(0.18 -0.18)">
       <use xlink:href="#DejaVuSans-33"/>
      </g>
     </g>
    </g>
    <g id="xtick_15">
     <g id="line2d_21">
      <g>
       <use xlink:href="#m6ff31a495d" x="547.780977" y="300.04" style="stroke: #000000; stroke-width: 0.8"/>
      </g>
     </g>
     <g id="text_22">
      <!-- 4 -->
      <g transform="translate(542.054727 320.717188) scale(0.18 -0.18)">
       <use xlink:href="#DejaVuSans-34"/>
      </g>
     </g>
    </g>
    <g id="xtick_16">
     <g id="line2d_22">
      <g>
       <use xlink:href="#m6ff31a495d" x="580.033536" y="300.04" style="stroke: #000000; stroke-width: 0.8"/>
      </g>
     </g>
     <g id="text_23">
      <!-- 5 -->
      <g transform="translate(574.307286 320.717188) scale(0.18 -0.18)">
       <use xlink:href="#DejaVuSans-35"/>
      </g>
     </g>
    </g>
    <g id="xtick_17">
     <g id="line2d_23">
      <g>
       <use xlink:href="#m6ff31a495d" x="612.286094" y="300.04" style="stroke: #000000; stroke-width: 0.8"/>
      </g>
     </g>
     <g id="text_24">
      <!-- 6 -->
      <g transform="translate(606.559844 320.717188) scale(0.18 -0.18)">
       <use xlink:href="#DejaVuSans-36"/>
      </g>
     </g>
    </g>
    <g id="xtick_18">
     <g id="line2d_24">
      <g>
       <use xlink:href="#m6ff31a495d" x="644.538653" y="300.04" style="stroke: #000000; stroke-width: 0.8"/>
      </g>
     </g>
     <g id="text_25">
      <!-- 7 -->
      <g transform="translate(638.812403 320.717188) scale(0.18 -0.18)">
       <use xlink:href="#DejaVuSans-37"/>
      </g>
     </g>
    </g>
    <g id="xtick_19">
     <g id="line2d_25">
      <g>
       <use xlink:href="#m6ff31a495d" x="676.791211" y="300.04" style="stroke: #000000; stroke-width: 0.8"/>
      </g>
     </g>
     <g id="text_26">
      <!-- 8 -->
      <g transform="translate(671.064961 320.717188) scale(0.18 -0.18)">
       <use xlink:href="#DejaVuSans-38"/>
      </g>
     </g>
    </g>
    <g id="xtick_20">
     <g id="line2d_26">
      <g>
       <use xlink:href="#m6ff31a495d" x="709.04377" y="300.04" style="stroke: #000000; stroke-width: 0.8"/>
      </g>
     </g>
     <g id="text_27">
      <!-- 9 -->
      <g transform="translate(703.31752 320.717188) scale(0.18 -0.18)">
       <use xlink:href="#DejaVuSans-39"/>
      </g>
     </g>
    </g>
    <g id="text_28">
     <!-- Time (d) -->
     <g transform="translate(517.930694 345.177188) scale(0.22 -0.22)">
      <use xlink:href="#DejaVuSans-54"/>
      <use xlink:href="#DejaVuSans-69" x="57.958984"/>
      <use xlink:href="#DejaVuSans-6d" x="85.742188"/>
      <use xlink:href="#DejaVuSans-65" x="183.154297"/>
      <use xlink:href="#DejaVuSans-20" x="244.677734"/>
      <use xlink:href="#DejaVuSans-28" x="276.464844"/>
      <use xlink:href="#DejaVuSans-64" x="315.478516"/>
      <use xlink:href="#DejaVuSans-29" x="378.955078"/>
     </g>
    </g>
   </g>
   <g id="matplotlib.axis_4">
    <g id="ytick_6">
     <g id="line2d_27">
      <g>
       <use xlink:href="#m6b8d3f5eb6" x="415.545487" y="300.04" style="stroke: #000000; stroke-width: 0.8"/>
      </g>
     </g>
     <g id="text_29">
      <!-- 3 -->
      <g transform="translate(397.092987 306.878594) scale(0.18 -0.18)">
       <use xlink:href="#DejaVuSans-33"/>
      </g>
     </g>
    </g>
    <g id="ytick_7">
     <g id="line2d_28">
      <g>
       <use xlink:href="#m6b8d3f5eb6" x="415.545487" y="249.364444" style="stroke: #000000; stroke-width: 0.8"/>
      </g>
     </g>
     <g id="text_30">
      <!-- 4 -->
      <g transform="translate(397.092987 256.203038) scale(0.18 -0.18)">
       <use xlink:href="#DejaVuSans-34"/>
      </g>
     </g>
    </g>
    <g id="ytick_8">
     <g id="line2d_29">
      <g>
       <use xlink:href="#m6b8d3f5eb6" x="415.545487" y="198.688889" style="stroke: #000000; stroke-width: 0.8"/>
      </g>
     </g>
     <g id="text_31">
      <!-- 5 -->
      <g transform="translate(397.092987 205.527483) scale(0.18 -0.18)">
       <use xlink:href="#DejaVuSans-35"/>
      </g>
     </g>
    </g>
    <g id="ytick_9">
     <g id="line2d_30">
      <g>
       <use xlink:href="#m6b8d3f5eb6" x="415.545487" y="148.013333" style="stroke: #000000; stroke-width: 0.8"/>
      </g>
     </g>
     <g id="text_32">
      <!-- 6 -->
      <g transform="translate(397.092987 154.851927) scale(0.18 -0.18)">
       <use xlink:href="#DejaVuSans-36"/>
      </g>
     </g>
    </g>
    <g id="ytick_10">
     <g id="line2d_31">
      <g>
       <use xlink:href="#m6b8d3f5eb6" x="415.545487" y="97.337778" style="stroke: #000000; stroke-width: 0.8"/>
      </g>
     </g>
     <g id="text_33">
      <!-- 7 -->
      <g transform="translate(397.092987 104.176372) scale(0.18 -0.18)">
       <use xlink:href="#DejaVuSans-37"/>
      </g>
     </g>
    </g>
    <g id="text_34">
     <!-- CD8$^+$ T (log$_{10}$ cells) -->
     <g transform="translate(388.472987 296.46) rotate(-90) scale(0.22 -0.22)">
      <defs>
       <path id="DejaVuSans-43" d="M 4122 4306 
L 4122 3641 
Q 3803 3938 3442 4084 
Q 3081 4231 2675 4231 
Q 1875 4231 1450 3742 
Q 1025 3253 1025 2328 
Q 1025 1406 1450 917 
Q 1875 428 2675 428 
Q 3081 428 3442 575 
Q 3803 722 4122 1019 
L 4122 359 
Q 3791 134 3420 21 
Q 3050 -91 2638 -91 
Q 1578 -91 968 557 
Q 359 1206 359 2328 
Q 359 3453 968 4101 
Q 1578 4750 2638 4750 
Q 3056 4750 3426 4639 
Q 3797 4528 4122 4306 
z
" transform="scale(0.015625)"/>
       <path id="DejaVuSans-44" d="M 1259 4147 
L 1259 519 
L 2022 519 
Q 2988 519 3436 956 
Q 3884 1394 3884 2338 
Q 3884 3275 3436 3711 
Q 2988 4147 2022 4147 
L 1259 4147 
z
M 628 4666 
L 1925 4666 
Q 3281 4666 3915 4102 
Q 4550 3538 4550 2338 
Q 4550 1131 3912 565 
Q 3275 0 1925 0 
L 628 0 
L 628 4666 
z
" transform="scale(0.015625)"/>
       <path id="DejaVuSans-2b" d="M 2944 4013 
L 2944 2272 
L 4684 2272 
L 4684 1741 
L 2944 1741 
L 2944 0 
L 2419 0 
L 2419 1741 
L 678 1741 
L 678 2272 
L 2419 2272 
L 2419 4013 
L 2944 4013 
z
" transform="scale(0.015625)"/>
      </defs>
      <use xlink:href="#DejaVuSans-43" transform="translate(0 0.826562)"/>
      <use xlink:href="#DejaVuSans-44" transform="translate(69.824219 0.826562)"/>
      <use xlink:href="#DejaVuSans-38" transform="translate(146.826172 0.826562)"/>
      <use xlink:href="#DejaVuSans-2b" transform="translate(225.043945 39.107812) scale(0.7)"/>
      <use xlink:href="#DejaVuSans-20" transform="translate(300.068359 0.826562)"/>
      <use xlink:href="#DejaVuSans-54" transform="translate(331.855469 0.826562)"/>
      <use xlink:href="#DejaVuSans-20" transform="translate(392.939453 0.826562)"/>
      <use xlink:href="#DejaVuSans-28" transform="translate(424.726562 0.826562)"/>
      <use xlink:href="#DejaVuSans-6c" transform="translate(463.740234 0.826562)"/>
      <use xlink:href="#DejaVuSans-6f" transform="translate(491.523438 0.826562)"/>
      <use xlink:href="#DejaVuSans-67" transform="translate(552.705078 0.826562)"/>
      <use xlink:href="#DejaVuSans-31" transform="translate(617.138672 -15.579688) scale(0.7)"/>
      <use xlink:href="#DejaVuSans-30" transform="translate(661.674805 -15.579688) scale(0.7)"/>
      <use xlink:href="#DejaVuSans-20" transform="translate(708.945312 0.826562)"/>
      <use xlink:href="#DejaVuSans-63" transform="translate(740.732422 0.826562)"/>
      <use xlink:href="#DejaVuSans-65" transform="translate(795.712891 0.826562)"/>
      <use xlink:href="#DejaVuSans-6c" transform="translate(857.236328 0.826562)"/>
      <use xlink:href="#DejaVuSans-6c" transform="translate(885.019531 0.826562)"/>
      <use xlink:href="#DejaVuSans-73" transform="translate(912.802734 0.826562)"/>
      <use xlink:href="#DejaVuSans-29" transform="translate(964.902344 0.826562)"/>
     </g>
    </g>
   </g>
   <g id="patch_8">
    <path d="M 415.545487 300.04 
L 415.545487 72 
" style="fill: none; stroke: #000000; stroke-width: 0.8; stroke-linejoin: miter; stroke-linecap: square"/>
   </g>
   <g id="patch_9">
    <path d="M 712.269026 300.04 
L 712.269026 72 
" style="fill: none; stroke: #000000; stroke-width: 0.8; stroke-linejoin: miter; stroke-linecap: square"/>
   </g>
   <g id="patch_10">
    <path d="M 415.545487 300.04 
L 712.269026 300.04 
" style="fill: none; stroke: #000000; stroke-width: 0.8; stroke-linejoin: miter; stroke-linecap: square"/>
   </g>
   <g id="patch_11">
    <path d="M 415.545487 72 
L 712.269026 72 
" style="fill: none; stroke: #000000; stroke-width: 0.8; stroke-linejoin: miter; stroke-linecap: square"/>
   </g>
   <g id="PolyCollection_2">
    <defs>
     <path id="m23f1277def" d="M 418.770743 -163.20772 
L 418.770743 -163.20772 
L 418.771105 -163.20772 
L 418.774721 -163.20772 
L 418.810887 -163.20772 
L 418.963453 -163.20772 
L 419.06709 -163.20772 
L 419.439043 -163.20772 
L 419.684935 -163.20772 
L 420.530366 -163.20772 
L 421.116384 -163.20772 
L 422.780208 -163.20772 
L 423.709978 -163.20772 
L 426.286708 -163.20772 
L 427.571524 -163.20772 
L 430.79678 -163.20772 
L 432.446927 -163.20772 
L 435.672182 -163.20772 
L 437.763277 -163.20772 
L 440.988533 -163.20772 
L 443.597043 -163.207721 
L 446.822298 -163.207722 
L 449.127929 -163.207725 
L 451.615537 -163.207729 
L 454.840793 -163.207738 
L 457.40233 -163.20775 
L 460.627586 -163.207772 
L 463.852842 -163.207803 
L 467.078098 -163.207844 
L 470.303354 -163.207897 
L 473.52861 -163.207962 
L 476.753865 -163.208034 
L 479.979121 -163.208114 
L 483.204377 -163.2082 
L 486.429633 -163.208289 
L 489.654889 -163.20838 
L 492.880145 -163.208471 
L 496.105401 -163.20856 
L 499.330656 -163.208646 
L 502.555912 -163.208728 
L 505.781168 -163.208805 
L 509.006424 -163.208876 
L 512.23168 -163.208942 
L 515.456936 -163.209003 
L 518.682192 -163.209058 
L 521.907447 -163.209108 
L 525.132703 -163.209153 
L 528.357959 -163.209193 
L 531.583215 -163.209228 
L 534.808471 -163.209259 
L 538.033727 -163.209286 
L 541.258982 -163.20931 
L 544.484238 -163.209329 
L 547.709494 -163.209346 
L 550.93475 -163.209359 
L 554.160006 -163.20937 
L 557.385262 -163.209378 
L 560.610518 -163.209383 
L 563.835773 -163.209386 
L 567.061029 -163.209387 
L 570.286285 -163.209386 
L 573.511541 -163.209383 
L 576.736797 -163.209378 
L 579.962053 -163.209372 
L 583.187309 -163.209364 
L 586.412564 -163.209355 
L 589.63782 -163.209345 
L 592.863076 -163.209333 
L 596.088332 -163.209321 
L 599.313588 -163.209307 
L 602.538844 -163.209293 
L 605.764099 -163.209278 
L 608.989355 -163.209256 
L 612.214611 -163.209232 
L 615.439867 -163.209206 
L 618.665123 -163.209181 
L 621.890379 -163.209155 
L 625.115635 -163.209129 
L 628.34089 -163.209103 
L 631.566146 -163.209076 
L 634.791402 -163.20905 
L 638.016658 -163.209023 
L 641.241914 -163.208997 
L 644.46717 -163.208969 
L 647.692426 -163.208942 
L 650.917681 -163.208915 
L 654.142937 -163.208888 
L 657.368193 -163.208861 
L 660.593449 -163.208835 
L 663.818705 -163.208808 
L 667.043961 -163.208782 
L 670.269217 -163.208757 
L 673.494472 -163.208732 
L 676.719728 -163.208707 
L 679.944984 -163.208682 
L 683.17024 -163.208658 
L 686.395496 -163.208634 
L 689.620752 -163.208611 
L 692.846007 -163.208588 
L 696.071263 -163.208566 
L 699.296519 -163.208544 
L 702.521775 -163.208522 
L 705.747031 -163.208501 
L 708.972287 -163.20848 
L 709.04377 -163.208479 
L 709.04377 -163.209954 
L 709.04377 -163.209954 
L 708.972287 -163.209954 
L 705.747031 -163.209969 
L 702.521775 -163.209984 
L 699.296519 -163.209998 
L 696.071263 -163.210012 
L 692.846007 -163.210026 
L 689.620752 -163.21004 
L 686.395496 -163.210053 
L 683.17024 -163.210067 
L 679.944984 -163.21008 
L 676.719728 -163.210092 
L 673.494472 -163.210105 
L 670.269217 -163.210117 
L 667.043961 -163.210129 
L 663.818705 -163.21014 
L 660.593449 -163.210151 
L 657.368193 -163.210161 
L 654.142937 -163.210172 
L 650.917681 -163.210181 
L 647.692426 -163.21019 
L 644.46717 -163.210198 
L 641.241914 -163.210206 
L 638.016658 -163.210213 
L 634.791402 -163.21022 
L 631.566146 -163.210225 
L 628.34089 -163.21023 
L 625.115635 -163.210234 
L 621.890379 -163.210239 
L 618.665123 -163.21025 
L 615.439867 -163.21026 
L 612.214611 -163.210268 
L 608.989355 -163.210276 
L 605.764099 -163.210282 
L 602.538844 -163.210286 
L 599.313588 -163.21029 
L 596.088332 -163.210291 
L 592.863076 -163.210291 
L 589.63782 -163.210289 
L 586.412564 -163.210285 
L 583.187309 -163.210279 
L 579.962053 -163.210271 
L 576.736797 -163.21026 
L 573.511541 -163.210247 
L 570.286285 -163.210232 
L 567.061029 -163.210213 
L 563.835773 -163.210192 
L 560.610518 -163.210168 
L 557.385262 -163.21014 
L 554.160006 -163.210109 
L 550.93475 -163.210074 
L 547.709494 -163.210035 
L 544.484238 -163.209992 
L 541.258982 -163.209945 
L 538.033727 -163.209893 
L 534.808471 -163.209836 
L 531.583215 -163.209774 
L 528.357959 -163.209707 
L 525.132703 -163.209634 
L 521.907447 -163.209556 
L 518.682192 -163.209472 
L 515.456936 -163.209381 
L 512.23168 -163.209285 
L 509.006424 -163.209183 
L 505.781168 -163.209076 
L 502.555912 -163.208964 
L 499.330656 -163.208848 
L 496.105401 -163.208729 
L 492.880145 -163.208609 
L 489.654889 -163.208489 
L 486.429633 -163.208372 
L 483.204377 -163.208261 
L 479.979121 -163.208157 
L 476.753865 -163.208062 
L 473.52861 -163.207979 
L 470.303354 -163.207909 
L 467.078098 -163.207852 
L 463.852842 -163.207808 
L 460.627586 -163.207775 
L 457.40233 -163.207752 
L 454.840793 -163.20774 
L 451.615537 -163.20773 
L 449.127929 -163.207725 
L 446.822298 -163.207723 
L 443.597043 -163.207721 
L 440.988533 -163.20772 
L 437.763277 -163.20772 
L 435.672182 -163.20772 
L 432.446927 -163.20772 
L 430.79678 -163.20772 
L 427.571524 -163.20772 
L 426.286708 -163.20772 
L 423.709978 -163.20772 
L 422.780208 -163.20772 
L 421.116384 -163.20772 
L 420.530366 -163.20772 
L 419.684935 -163.20772 
L 419.439043 -163.20772 
L 419.06709 -163.20772 
L 418.963453 -163.20772 
L 418.810887 -163.20772 
L 418.774721 -163.20772 
L 418.771105 -163.20772 
L 418.770743 -163.20772 
z
" style="stroke: #800080; stroke-opacity: 0.2"/>
    </defs>
    <g clip-path="url(#pf900c7b24f)">
     <use xlink:href="#m23f1277def" x="0" y="360" style="fill: #800080; fill-opacity: 0.2; stroke: #800080; stroke-opacity: 0.2"/>
    </g>
   </g>
   <g id="PolyCollection_3">
    <defs>
     <path id="mece5f7a6a5" d="M 418.770743 -108.316769 
L 418.770743 -108.316769 
L 418.771105 -108.316769 
L 418.774721 -108.316769 
L 418.810887 -108.316769 
L 418.963453 -108.316769 
L 419.06709 -108.316769 
L 419.439043 -108.316769 
L 419.684935 -108.316769 
L 420.530366 -108.316769 
L 421.116384 -108.316769 
L 422.780208 -108.316769 
L 423.709978 -108.316769 
L 426.286708 -108.316769 
L 427.571524 -108.316769 
L 430.79678 -108.316769 
L 432.446927 -108.316769 
L 435.672182 -108.316769 
L 437.763277 -108.316769 
L 440.988533 -108.316769 
L 443.597043 -108.316769 
L 446.822298 -108.316769 
L 449.127929 -108.316769 
L 451.615537 -108.316769 
L 454.840793 -108.316769 
L 457.40233 -108.316769 
L 460.627586 -108.316769 
L 463.852842 -108.316769 
L 467.078098 -108.316769 
L 470.303354 -108.316769 
L 473.52861 -108.316769 
L 476.753865 -108.316769 
L 479.979121 -108.316769 
L 483.204377 -108.316769 
L 486.429633 -108.316769 
L 489.654889 -108.316769 
L 492.880145 -108.316769 
L 496.105401 -108.31677 
L 499.330656 -108.31677 
L 502.555912 -108.31677 
L 505.781168 -108.316771 
L 509.006424 -108.316772 
L 512.23168 -108.316773 
L 515.456936 -108.316775 
L 518.682192 -108.316778 
L 521.907447 -108.316781 
L 525.132703 -108.316785 
L 528.357959 -108.316789 
L 531.583215 -108.316794 
L 534.808471 -108.3168 
L 538.033727 -108.316807 
L 541.258982 -108.316814 
L 544.484238 -108.316821 
L 547.709494 -108.316829 
L 550.93475 -108.316838 
L 554.160006 -108.316847 
L 557.385262 -108.316856 
L 560.610518 -108.316866 
L 563.835773 -108.316876 
L 567.061029 -108.316887 
L 570.286285 -108.316898 
L 573.511541 -108.316909 
L 576.736797 -108.31692 
L 579.962053 -108.316932 
L 583.187309 -108.316943 
L 586.412564 -108.316955 
L 589.63782 -108.316967 
L 592.863076 -108.316979 
L 596.088332 -108.316991 
L 599.313588 -108.317003 
L 602.538844 -108.317015 
L 605.764099 -108.317027 
L 608.989355 -108.317039 
L 612.214611 -108.317051 
L 615.439867 -108.317063 
L 618.665123 -108.317075 
L 621.890379 -108.317087 
L 625.115635 -108.317099 
L 628.34089 -108.317111 
L 631.566146 -108.317123 
L 634.791402 -108.317135 
L 638.016658 -108.317146 
L 641.241914 -108.317158 
L 644.46717 -108.317169 
L 647.692426 -108.31718 
L 650.917681 -108.317192 
L 654.142937 -108.317203 
L 657.368193 -108.317213 
L 660.593449 -108.317224 
L 663.818705 -108.317235 
L 667.043961 -108.317245 
L 670.269217 -108.317256 
L 673.494472 -108.317266 
L 676.719728 -108.317276 
L 679.944984 -108.317286 
L 683.17024 -108.317296 
L 686.395496 -108.317305 
L 689.620752 -108.317315 
L 692.846007 -108.317324 
L 696.071263 -108.317334 
L 699.296519 -108.317343 
L 702.521775 -108.317352 
L 705.747031 -108.31736 
L 708.972287 -108.317369 
L 709.04377 -108.317369 
L 709.04377 -108.317691 
L 709.04377 -108.317691 
L 708.972287 -108.317691 
L 705.747031 -108.317674 
L 702.521775 -108.317657 
L 699.296519 -108.31764 
L 696.071263 -108.317623 
L 692.846007 -108.317606 
L 689.620752 -108.317589 
L 686.395496 -108.317572 
L 683.17024 -108.317554 
L 679.944984 -108.317536 
L 676.719728 -108.317519 
L 673.494472 -108.317501 
L 670.269217 -108.317483 
L 667.043961 -108.317465 
L 663.818705 -108.317446 
L 660.593449 -108.317428 
L 657.368193 -108.31741 
L 654.142937 -108.317391 
L 650.917681 -108.317373 
L 647.692426 -108.317354 
L 644.46717 -108.317336 
L 641.241914 -108.317317 
L 638.016658 -108.317298 
L 634.791402 -108.31728 
L 631.566146 -108.317261 
L 628.34089 -108.317242 
L 625.115635 -108.317224 
L 621.890379 -108.317205 
L 618.665123 -108.317186 
L 615.439867 -108.317168 
L 612.214611 -108.31715 
L 608.989355 -108.317131 
L 605.764099 -108.317113 
L 602.538844 -108.317095 
L 599.313588 -108.317077 
L 596.088332 -108.31706 
L 592.863076 -108.317042 
L 589.63782 -108.317025 
L 586.412564 -108.317008 
L 583.187309 -108.316991 
L 579.962053 -108.316975 
L 576.736797 -108.316959 
L 573.511541 -108.316944 
L 570.286285 -108.316929 
L 567.061029 -108.316914 
L 563.835773 -108.3169 
L 560.610518 -108.316886 
L 557.385262 -108.316874 
L 554.160006 -108.316861 
L 550.93475 -108.31685 
L 547.709494 -108.316839 
L 544.484238 -108.316829 
L 541.258982 -108.316819 
L 538.033727 -108.316811 
L 534.808471 -108.316803 
L 531.583215 -108.316797 
L 528.357959 -108.316791 
L 525.132703 -108.316786 
L 521.907447 -108.316782 
L 518.682192 -108.316778 
L 515.456936 -108.316776 
L 512.23168 -108.316774 
L 509.006424 -108.316772 
L 505.781168 -108.316771 
L 502.555912 -108.31677 
L 499.330656 -108.31677 
L 496.105401 -108.31677 
L 492.880145 -108.316769 
L 489.654889 -108.316769 
L 486.429633 -108.316769 
L 483.204377 -108.316769 
L 479.979121 -108.316769 
L 476.753865 -108.316769 
L 473.52861 -108.316769 
L 470.303354 -108.316769 
L 467.078098 -108.316769 
L 463.852842 -108.316769 
L 460.627586 -108.316769 
L 457.40233 -108.316769 
L 454.840793 -108.316769 
L 451.615537 -108.316769 
L 449.127929 -108.316769 
L 446.822298 -108.316769 
L 443.597043 -108.316769 
L 440.988533 -108.316769 
L 437.763277 -108.316769 
L 435.672182 -108.316769 
L 432.446927 -108.316769 
L 430.79678 -108.316769 
L 427.571524 -108.316769 
L 426.286708 -108.316769 
L 423.709978 -108.316769 
L 422.780208 -108.316769 
L 421.116384 -108.316769 
L 420.530366 -108.316769 
L 419.684935 -108.316769 
L 419.439043 -108.316769 
L 419.06709 -108.316769 
L 418.963453 -108.316769 
L 418.810887 -108.316769 
L 418.774721 -108.316769 
L 418.771105 -108.316769 
L 418.770743 -108.316769 
z
" style="stroke: #800080; stroke-opacity: 0.2"/>
    </defs>
    <g clip-path="url(#pf900c7b24f)">
     <use xlink:href="#mece5f7a6a5" x="0" y="360" style="fill: #800080; fill-opacity: 0.2; stroke: #800080; stroke-opacity: 0.2"/>
    </g>
   </g>
   <g id="line2d_32">
    <path d="M 418.770743 196.79228 
L 418.771105 196.79228 
L 418.774721 196.79228 
L 418.810887 196.79228 
L 418.963453 196.79228 
L 419.06709 196.79228 
L 419.439043 196.79228 
L 419.684935 196.79228 
L 420.530366 196.79228 
L 421.116384 196.79228 
L 422.780208 196.79228 
L 423.709978 196.79228 
L 426.286708 196.79228 
L 427.571524 196.79228 
L 430.79678 196.79228 
L 432.446927 196.79228 
L 435.672182 196.79228 
L 437.763277 196.79228 
L 440.988533 196.79228 
L 443.597043 196.792279 
L 446.822298 196.792278 
L 449.127929 196.792275 
L 451.615537 196.792271 
L 454.840793 196.792261 
L 457.40233 196.792249 
L 460.627586 196.792227 
L 463.852842 196.792195 
L 467.078098 196.792151 
L 470.303354 196.792095 
L 473.52861 196.792026 
L 476.753865 196.791944 
L 479.979121 196.791851 
L 483.204377 196.791749 
L 486.429633 196.791641 
L 489.654889 196.791528 
L 492.880145 196.791414 
L 496.105401 196.7913 
L 499.330656 196.791188 
L 502.555912 196.79108 
L 505.781168 196.790978 
L 509.006424 196.790881 
L 512.23168 196.79079 
L 515.456936 196.790706 
L 518.682192 196.790629 
L 521.907447 196.790558 
L 525.132703 196.790494 
L 528.357959 196.790436 
L 531.583215 196.790384 
L 534.808471 196.790338 
L 538.033727 196.790298 
L 541.258982 196.790262 
L 544.484238 196.790232 
L 547.709494 196.790206 
L 550.93475 196.790184 
L 554.160006 196.790166 
L 557.385262 196.790152 
L 560.610518 196.790141 
L 563.835773 196.790134 
L 567.061029 196.79013 
L 570.286285 196.790128 
L 573.511541 196.790129 
L 576.736797 196.790133 
L 579.962053 196.790138 
L 583.187309 196.790146 
L 586.412564 196.790156 
L 589.63782 196.790167 
L 592.863076 196.790181 
L 596.088332 196.790195 
L 599.313588 196.790211 
L 602.538844 196.790229 
L 605.764099 196.790247 
L 608.989355 196.790267 
L 612.214611 196.790287 
L 615.439867 196.790308 
L 618.665123 196.790331 
L 621.890379 196.790353 
L 625.115635 196.790377 
L 628.34089 196.790401 
L 631.566146 196.790425 
L 634.791402 196.79045 
L 638.016658 196.790475 
L 641.241914 196.790501 
L 644.46717 196.790527 
L 647.692426 196.790553 
L 650.917681 196.790579 
L 654.142937 196.790605 
L 657.368193 196.790632 
L 660.593449 196.790658 
L 663.818705 196.790684 
L 667.043961 196.790711 
L 670.269217 196.790737 
L 673.494472 196.790763 
L 676.719728 196.790789 
L 679.944984 196.790816 
L 683.17024 196.790841 
L 686.395496 196.790867 
L 689.620752 196.790893 
L 692.846007 196.790918 
L 696.071263 196.790943 
L 699.296519 196.790968 
L 702.521775 196.790993 
L 705.747031 196.791017 
L 708.972287 196.791041 
L 709.04377 196.791042 
" clip-path="url(#pf900c7b24f)" style="fill: none; stroke: #800080; stroke-width: 1.5; stroke-linecap: square"/>
   </g>
   <g id="line2d_33">
    <path d="M 418.770743 251.683231 
L 418.771105 251.683231 
L 418.774721 251.683231 
L 418.810887 251.683231 
L 418.963453 251.683231 
L 419.06709 251.683231 
L 419.439043 251.683231 
L 419.684935 251.683231 
L 420.530366 251.683231 
L 421.116384 251.683231 
L 422.780208 251.683231 
L 423.709978 251.683231 
L 426.286708 251.683231 
L 427.571524 251.683231 
L 430.79678 251.683231 
L 432.446927 251.683231 
L 435.672182 251.683231 
L 437.763277 251.683231 
L 440.988533 251.683231 
L 443.597043 251.683231 
L 446.822298 251.683231 
L 449.127929 251.683231 
L 451.615537 251.683231 
L 454.840793 251.683231 
L 457.40233 251.683231 
L 460.627586 251.683231 
L 463.852842 251.683231 
L 467.078098 251.683231 
L 470.303354 251.683231 
L 473.52861 251.683231 
L 476.753865 251.683231 
L 479.979121 251.683231 
L 483.204377 251.683231 
L 486.429633 251.683231 
L 489.654889 251.683231 
L 492.880145 251.683231 
L 496.105401 251.68323 
L 499.330656 251.68323 
L 502.555912 251.68323 
L 505.781168 251.683229 
L 509.006424 251.683228 
L 512.23168 251.683226 
L 515.456936 251.683224 
L 518.682192 251.683222 
L 521.907447 251.683219 
L 525.132703 251.683214 
L 528.357959 251.68321 
L 531.583215 251.683204 
L 534.808471 251.683197 
L 538.033727 251.68319 
L 541.258982 251.683182 
L 544.484238 251.683173 
L 547.709494 251.683163 
L 550.93475 251.683153 
L 554.160006 251.683142 
L 557.385262 251.68313 
L 560.610518 251.683118 
L 563.835773 251.683105 
L 567.061029 251.683092 
L 570.286285 251.683079 
L 573.511541 251.683065 
L 576.736797 251.683051 
L 579.962053 251.683036 
L 583.187309 251.683021 
L 586.412564 251.683006 
L 589.63782 251.682991 
L 592.863076 251.682976 
L 596.088332 251.682961 
L 599.313588 251.682945 
L 602.538844 251.68293 
L 605.764099 251.682914 
L 608.989355 251.682898 
L 612.214611 251.682883 
L 615.439867 251.682867 
L 618.665123 251.682852 
L 621.890379 251.682836 
L 625.115635 251.68282 
L 628.34089 251.682805 
L 631.566146 251.68279 
L 634.791402 251.682775 
L 638.016658 251.682759 
L 641.241914 251.682744 
L 644.46717 251.68273 
L 647.692426 251.682715 
L 650.917681 251.6827 
L 654.142937 251.682686 
L 657.368193 251.682671 
L 660.593449 251.682657 
L 663.818705 251.682643 
L 667.043961 251.68263 
L 670.269217 251.682616 
L 673.494472 251.682603 
L 676.719728 251.682589 
L 679.944984 251.682576 
L 683.17024 251.682563 
L 686.395496 251.682551 
L 689.620752 251.682538 
L 692.846007 251.682526 
L 696.071263 251.682514 
L 699.296519 251.682502 
L 702.521775 251.68249 
L 705.747031 251.682479 
L 708.972287 251.682467 
L 709.04377 251.682467 
" clip-path="url(#pf900c7b24f)" style="fill: none; stroke-dasharray: 5.55,2.4; stroke-dashoffset: 0; stroke: #800080; stroke-width: 1.5"/>
   </g>
  </g>
  <g id="text_35">
   <!-- Volunteer 43 -->
   <g transform="translate(283.34625 25.43625) scale(0.24 -0.24)">
    <defs>
     <path id="DejaVuSans-6e" d="M 3513 2113 
L 3513 0 
L 2938 0 
L 2938 2094 
Q 2938 2591 2744 2837 
Q 2550 3084 2163 3084 
Q 1697 3084 1428 2787 
Q 1159 2491 1159 1978 
L 1159 0 
L 581 0 
L 581 3500 
L 1159 3500 
L 1159 2956 
Q 1366 3272 1645 3428 
Q 1925 3584 2291 3584 
Q 2894 3584 3203 3211 
Q 3513 2838 3513 2113 
z
" transform="scale(0.015625)"/>
     <path id="DejaVuSans-74" d="M 1172 4494 
L 1172 3500 
L 2356 3500 
L 2356 3053 
L 1172 3053 
L 1172 1153 
Q 1172 725 1289 603 
Q 1406 481 1766 481 
L 2356 481 
L 2356 0 
L 1766 0 
Q 1100 0 847 248 
Q 594 497 594 1153 
L 594 3053 
L 172 3053 
L 172 3500 
L 594 3500 
L 594 4494 
L 1172 4494 
z
" transform="scale(0.015625)"/>
    </defs>
    <use xlink:href="#DejaVuSans-56"/>
    <use xlink:href="#DejaVuSans-6f" x="60.658203"/>
    <use xlink:href="#DejaVuSans-6c" x="121.839844"/>
    <use xlink:href="#DejaVuSans-75" x="149.623047"/>
    <use xlink:href="#DejaVuSans-6e" x="213.001953"/>
    <use xlink:href="#DejaVuSans-74" x="276.380859"/>
    <use xlink:href="#DejaVuSans-65" x="315.589844"/>
    <use xlink:href="#DejaVuSans-65" x="377.113281"/>
    <use xlink:href="#DejaVuSans-72" x="438.636719"/>
    <use xlink:href="#DejaVuSans-20" x="479.75"/>
    <use xlink:href="#DejaVuSans-34" x="511.537109"/>
    <use xlink:href="#DejaVuSans-33" x="575.160156"/>
   </g>
  </g>
 </g>
 <defs>
  <clipPath id="p7fd9d9d06b">
   <rect x="57.08" y="72" width="296.723538" height="228.04"/>
  </clipPath>
  <clipPath id="pf900c7b24f">
   <rect x="415.545487" y="72" width="296.723538" height="228.04"/>
  </clipPath>
 </defs>
</svg>
