<?xml version="1.0" encoding="utf-8" standalone="no"?>
<!DOCTYPE svg PUBLIC "-//W3C//DTD SVG 1.1//EN"
  "http://www.w3.org/Graphics/SVG/1.1/DTD/svg11.dtd">
<svg xmlns:xlink="http://www.w3.org/1999/xlink" width="1440pt" height="360pt" viewBox="0 0 1440 360" xmlns="http://www.w3.org/2000/svg" version="1.1">
 <metadata>
  <rdf:RDF xmlns:dc="http://purl.org/dc/elements/1.1/" xmlns:cc="http://creativecommons.org/ns#" xmlns:rdf="http://www.w3.org/1999/02/22-rdf-syntax-ns#">
   <cc:Work>
    <dc:type rdf:resource="http://purl.org/dc/dcmitype/StillImage"/>
    <dc:date>2025-01-23T10:33:03.814749</dc:date>
    <dc:format>image/svg+xml</dc:format>
    <dc:creator>
     <cc:Agent>
      <dc:title>Matplotlib v3.9.2, https://matplotlib.org/</dc:title>
     </cc:Agent>
    </dc:creator>
   </cc:Work>
  </rdf:RDF>
 </metadata>
 <defs>
  <style type="text/css">*{stroke-linejoin: round; stroke-linecap: butt}</style>
 </defs>
 <g id="figure_1">
  <g id="patch_1">
   <path d="M 0 360 
L 1440 360 
L 1440 0 
L 0 0 
z
" style="fill: #ffffff"/>
  </g>
  <g id="axes_1">
   <g id="patch_2">
    <path d="M 180 320.4 
L 407.755102 320.4 
L 407.755102 43.2 
L 180 43.2 
z
" style="fill: #ffffff"/>
   </g>
   <g id="matplotlib.axis_1">
    <g id="xtick_1">
     <g id="text_1">
      <!-- 0 -->
      <g style="fill: #262626" transform="translate(178.023617 352.232375) scale(0.312 -0.312)">
       <defs>
        <path id="ArialMT-30" d="M 266 2259 
Q 266 3072 433 3567 
Q 600 4063 929 4331 
Q 1259 4600 1759 4600 
Q 2128 4600 2406 4451 
Q 2684 4303 2865 4023 
Q 3047 3744 3150 3342 
Q 3253 2941 3253 2259 
Q 3253 1453 3087 958 
Q 2922 463 2592 192 
Q 2263 -78 1759 -78 
Q 1097 -78 719 397 
Q 266 969 266 2259 
z
M 844 2259 
Q 844 1131 1108 757 
Q 1372 384 1759 384 
Q 2147 384 2411 759 
Q 2675 1134 2675 2259 
Q 2675 3391 2411 3762 
Q 2147 4134 1753 4134 
Q 1366 4134 1134 3806 
Q 844 3388 844 2259 
z
" transform="scale(0.015625)"/>
       </defs>
       <use xlink:href="#ArialMT-30"/>
      </g>
     </g>
    </g>
    <g id="xtick_2">
     <g id="text_2">
      <!-- 2 -->
      <g style="fill: #262626" transform="translate(231.613053 352.232375) scale(0.312 -0.312)">
       <defs>
        <path id="ArialMT-32" d="M 3222 541 
L 3222 0 
L 194 0 
Q 188 203 259 391 
Q 375 700 629 1000 
Q 884 1300 1366 1694 
Q 2113 2306 2375 2664 
Q 2638 3022 2638 3341 
Q 2638 3675 2398 3904 
Q 2159 4134 1775 4134 
Q 1369 4134 1125 3890 
Q 881 3647 878 3216 
L 300 3275 
Q 359 3922 746 4261 
Q 1134 4600 1788 4600 
Q 2447 4600 2831 4234 
Q 3216 3869 3216 3328 
Q 3216 3053 3103 2787 
Q 2991 2522 2730 2228 
Q 2469 1934 1863 1422 
Q 1356 997 1212 845 
Q 1069 694 975 541 
L 3222 541 
z
" transform="scale(0.015625)"/>
       </defs>
       <use xlink:href="#ArialMT-32"/>
      </g>
     </g>
    </g>
    <g id="xtick_3">
     <g id="text_3">
      <!-- 4 -->
      <g style="fill: #262626" transform="translate(285.202489 352.232375) scale(0.312 -0.312)">
       <defs>
        <path id="ArialMT-34" d="M 2069 0 
L 2069 1097 
L 81 1097 
L 81 1613 
L 2172 4581 
L 2631 4581 
L 2631 1613 
L 3250 1613 
L 3250 1097 
L 2631 1097 
L 2631 0 
L 2069 0 
z
M 2069 1613 
L 2069 3678 
L 634 1613 
L 2069 1613 
z
" transform="scale(0.015625)"/>
       </defs>
       <use xlink:href="#ArialMT-34"/>
      </g>
     </g>
    </g>
    <g id="xtick_4">
     <g id="text_4">
      <!-- 6 -->
      <g style="fill: #262626" transform="translate(338.791924 352.232375) scale(0.312 -0.312)">
       <defs>
        <path id="ArialMT-36" d="M 3184 3459 
L 2625 3416 
Q 2550 3747 2413 3897 
Q 2184 4138 1850 4138 
Q 1581 4138 1378 3988 
Q 1113 3794 959 3422 
Q 806 3050 800 2363 
Q 1003 2672 1297 2822 
Q 1591 2972 1913 2972 
Q 2475 2972 2870 2558 
Q 3266 2144 3266 1488 
Q 3266 1056 3080 686 
Q 2894 316 2569 119 
Q 2244 -78 1831 -78 
Q 1128 -78 684 439 
Q 241 956 241 2144 
Q 241 3472 731 4075 
Q 1159 4600 1884 4600 
Q 2425 4600 2770 4297 
Q 3116 3994 3184 3459 
z
M 888 1484 
Q 888 1194 1011 928 
Q 1134 663 1356 523 
Q 1578 384 1822 384 
Q 2178 384 2434 671 
Q 2691 959 2691 1453 
Q 2691 1928 2437 2201 
Q 2184 2475 1800 2475 
Q 1419 2475 1153 2201 
Q 888 1928 888 1484 
z
" transform="scale(0.015625)"/>
       </defs>
       <use xlink:href="#ArialMT-36"/>
      </g>
     </g>
    </g>
    <g id="xtick_5">
     <g id="text_5">
      <!-- 8 -->
      <g style="fill: #262626" transform="translate(392.38136 352.232375) scale(0.312 -0.312)">
       <defs>
        <path id="ArialMT-38" d="M 1131 2484 
Q 781 2613 612 2850 
Q 444 3088 444 3419 
Q 444 3919 803 4259 
Q 1163 4600 1759 4600 
Q 2359 4600 2725 4251 
Q 3091 3903 3091 3403 
Q 3091 3084 2923 2848 
Q 2756 2613 2416 2484 
Q 2838 2347 3058 2040 
Q 3278 1734 3278 1309 
Q 3278 722 2862 322 
Q 2447 -78 1769 -78 
Q 1091 -78 675 323 
Q 259 725 259 1325 
Q 259 1772 486 2073 
Q 713 2375 1131 2484 
z
M 1019 3438 
Q 1019 3113 1228 2906 
Q 1438 2700 1772 2700 
Q 2097 2700 2305 2904 
Q 2513 3109 2513 3406 
Q 2513 3716 2298 3927 
Q 2084 4138 1766 4138 
Q 1444 4138 1231 3931 
Q 1019 3725 1019 3438 
z
M 838 1322 
Q 838 1081 952 856 
Q 1066 631 1291 507 
Q 1516 384 1775 384 
Q 2178 384 2440 643 
Q 2703 903 2703 1303 
Q 2703 1709 2433 1975 
Q 2163 2241 1756 2241 
Q 1359 2241 1098 1978 
Q 838 1716 838 1322 
z
" transform="scale(0.015625)"/>
       </defs>
       <use xlink:href="#ArialMT-38"/>
      </g>
     </g>
    </g>
    <g id="text_6">
     <!-- Time (d) -->
     <g style="fill: #262626" transform="translate(241.190989 383.253281) scale(0.286 -0.286)">
      <defs>
       <path id="ArialMT-54" d="M 1659 0 
L 1659 4041 
L 150 4041 
L 150 4581 
L 3781 4581 
L 3781 4041 
L 2266 4041 
L 2266 0 
L 1659 0 
z
" transform="scale(0.015625)"/>
       <path id="ArialMT-69" d="M 425 3934 
L 425 4581 
L 988 4581 
L 988 3934 
L 425 3934 
z
M 425 0 
L 425 3319 
L 988 3319 
L 988 0 
L 425 0 
z
" transform="scale(0.015625)"/>
       <path id="ArialMT-6d" d="M 422 0 
L 422 3319 
L 925 3319 
L 925 2853 
Q 1081 3097 1340 3245 
Q 1600 3394 1931 3394 
Q 2300 3394 2536 3241 
Q 2772 3088 2869 2813 
Q 3263 3394 3894 3394 
Q 4388 3394 4653 3120 
Q 4919 2847 4919 2278 
L 4919 0 
L 4359 0 
L 4359 2091 
Q 4359 2428 4304 2576 
Q 4250 2725 4106 2815 
Q 3963 2906 3769 2906 
Q 3419 2906 3187 2673 
Q 2956 2441 2956 1928 
L 2956 0 
L 2394 0 
L 2394 2156 
Q 2394 2531 2256 2718 
Q 2119 2906 1806 2906 
Q 1569 2906 1367 2781 
Q 1166 2656 1075 2415 
Q 984 2175 984 1722 
L 984 0 
L 422 0 
z
" transform="scale(0.015625)"/>
       <path id="ArialMT-65" d="M 2694 1069 
L 3275 997 
Q 3138 488 2766 206 
Q 2394 -75 1816 -75 
Q 1088 -75 661 373 
Q 234 822 234 1631 
Q 234 2469 665 2931 
Q 1097 3394 1784 3394 
Q 2450 3394 2872 2941 
Q 3294 2488 3294 1666 
Q 3294 1616 3291 1516 
L 816 1516 
Q 847 969 1125 678 
Q 1403 388 1819 388 
Q 2128 388 2347 550 
Q 2566 713 2694 1069 
z
M 847 1978 
L 2700 1978 
Q 2663 2397 2488 2606 
Q 2219 2931 1791 2931 
Q 1403 2931 1139 2672 
Q 875 2413 847 1978 
z
" transform="scale(0.015625)"/>
       <path id="ArialMT-20" transform="scale(0.015625)"/>
       <path id="ArialMT-28" d="M 1497 -1347 
Q 1031 -759 709 28 
Q 388 816 388 1659 
Q 388 2403 628 3084 
Q 909 3875 1497 4659 
L 1900 4659 
Q 1522 4009 1400 3731 
Q 1209 3300 1100 2831 
Q 966 2247 966 1656 
Q 966 153 1900 -1347 
L 1497 -1347 
z
" transform="scale(0.015625)"/>
       <path id="ArialMT-64" d="M 2575 0 
L 2575 419 
Q 2259 -75 1647 -75 
Q 1250 -75 917 144 
Q 584 363 401 755 
Q 219 1147 219 1656 
Q 219 2153 384 2558 
Q 550 2963 881 3178 
Q 1213 3394 1622 3394 
Q 1922 3394 2156 3267 
Q 2391 3141 2538 2938 
L 2538 4581 
L 3097 4581 
L 3097 0 
L 2575 0 
z
M 797 1656 
Q 797 1019 1065 703 
Q 1334 388 1700 388 
Q 2069 388 2326 689 
Q 2584 991 2584 1609 
Q 2584 2291 2321 2609 
Q 2059 2928 1675 2928 
Q 1300 2928 1048 2622 
Q 797 2316 797 1656 
z
" transform="scale(0.015625)"/>
       <path id="ArialMT-29" d="M 791 -1347 
L 388 -1347 
Q 1322 153 1322 1656 
Q 1322 2244 1188 2822 
Q 1081 3291 891 3722 
Q 769 4003 388 4659 
L 791 4659 
Q 1378 3875 1659 3084 
Q 1900 2403 1900 1659 
Q 1900 816 1576 28 
Q 1253 -759 791 -1347 
z
" transform="scale(0.015625)"/>
      </defs>
      <use xlink:href="#ArialMT-54"/>
      <use xlink:href="#ArialMT-69" x="57.333984"/>
      <use xlink:href="#ArialMT-6d" x="79.550781"/>
      <use xlink:href="#ArialMT-65" x="162.851562"/>
      <use xlink:href="#ArialMT-20" x="218.466797"/>
      <use xlink:href="#ArialMT-28" x="246.25"/>
      <use xlink:href="#ArialMT-64" x="279.550781"/>
      <use xlink:href="#ArialMT-29" x="335.166016"/>
     </g>
    </g>
   </g>
   <g id="matplotlib.axis_2">
    <g id="ytick_1">
     <g id="text_7">
      <!-- 0 -->
      <g style="fill: #262626" transform="translate(153.149875 331.566188) scale(0.312 -0.312)">
       <use xlink:href="#ArialMT-30"/>
      </g>
     </g>
    </g>
    <g id="ytick_2">
     <g id="text_8">
      <!-- 2 -->
      <g style="fill: #262626" transform="translate(153.149875 262.266188) scale(0.312 -0.312)">
       <use xlink:href="#ArialMT-32"/>
      </g>
     </g>
    </g>
    <g id="ytick_3">
     <g id="text_9">
      <!-- 4 -->
      <g style="fill: #262626" transform="translate(153.149875 192.966187) scale(0.312 -0.312)">
       <use xlink:href="#ArialMT-34"/>
      </g>
     </g>
    </g>
    <g id="ytick_4">
     <g id="text_10">
      <!-- 6 -->
      <g style="fill: #262626" transform="translate(153.149875 123.666187) scale(0.312 -0.312)">
       <use xlink:href="#ArialMT-36"/>
      </g>
     </g>
    </g>
    <g id="ytick_5">
     <g id="text_11">
      <!-- 8 -->
      <g style="fill: #262626" transform="translate(153.149875 54.366187) scale(0.312 -0.312)">
       <use xlink:href="#ArialMT-38"/>
      </g>
     </g>
    </g>
    <g id="text_12">
     <!-- Log$_{10}$ Virus (copies/mL) -->
     <g style="fill: #262626" transform="translate(142.857875 334.238) rotate(-90) scale(0.286 -0.286)">
      <defs>
       <path id="ArialMT-4c" d="M 469 0 
L 469 4581 
L 1075 4581 
L 1075 541 
L 3331 541 
L 3331 0 
L 469 0 
z
" transform="scale(0.015625)"/>
       <path id="ArialMT-6f" d="M 213 1659 
Q 213 2581 725 3025 
Q 1153 3394 1769 3394 
Q 2453 3394 2887 2945 
Q 3322 2497 3322 1706 
Q 3322 1066 3130 698 
Q 2938 331 2570 128 
Q 2203 -75 1769 -75 
Q 1072 -75 642 372 
Q 213 819 213 1659 
z
M 791 1659 
Q 791 1022 1069 705 
Q 1347 388 1769 388 
Q 2188 388 2466 706 
Q 2744 1025 2744 1678 
Q 2744 2294 2464 2611 
Q 2184 2928 1769 2928 
Q 1347 2928 1069 2612 
Q 791 2297 791 1659 
z
" transform="scale(0.015625)"/>
       <path id="ArialMT-67" d="M 319 -275 
L 866 -356 
Q 900 -609 1056 -725 
Q 1266 -881 1628 -881 
Q 2019 -881 2231 -725 
Q 2444 -569 2519 -288 
Q 2563 -116 2559 434 
Q 2191 0 1641 0 
Q 956 0 581 494 
Q 206 988 206 1678 
Q 206 2153 378 2554 
Q 550 2956 876 3175 
Q 1203 3394 1644 3394 
Q 2231 3394 2613 2919 
L 2613 3319 
L 3131 3319 
L 3131 450 
Q 3131 -325 2973 -648 
Q 2816 -972 2473 -1159 
Q 2131 -1347 1631 -1347 
Q 1038 -1347 672 -1080 
Q 306 -813 319 -275 
z
M 784 1719 
Q 784 1066 1043 766 
Q 1303 466 1694 466 
Q 2081 466 2343 764 
Q 2606 1063 2606 1700 
Q 2606 2309 2336 2618 
Q 2066 2928 1684 2928 
Q 1309 2928 1046 2623 
Q 784 2319 784 1719 
z
" transform="scale(0.015625)"/>
       <path id="DejaVuSans-31" d="M 794 531 
L 1825 531 
L 1825 4091 
L 703 3866 
L 703 4441 
L 1819 4666 
L 2450 4666 
L 2450 531 
L 3481 531 
L 3481 0 
L 794 0 
L 794 531 
z
" transform="scale(0.015625)"/>
       <path id="DejaVuSans-30" d="M 2034 4250 
Q 1547 4250 1301 3770 
Q 1056 3291 1056 2328 
Q 1056 1369 1301 889 
Q 1547 409 2034 409 
Q 2525 409 2770 889 
Q 3016 1369 3016 2328 
Q 3016 3291 2770 3770 
Q 2525 4250 2034 4250 
z
M 2034 4750 
Q 2819 4750 3233 4129 
Q 3647 3509 3647 2328 
Q 3647 1150 3233 529 
Q 2819 -91 2034 -91 
Q 1250 -91 836 529 
Q 422 1150 422 2328 
Q 422 3509 836 4129 
Q 1250 4750 2034 4750 
z
" transform="scale(0.015625)"/>
       <path id="ArialMT-56" d="M 1803 0 
L 28 4581 
L 684 4581 
L 1875 1253 
Q 2019 853 2116 503 
Q 2222 878 2363 1253 
L 3600 4581 
L 4219 4581 
L 2425 0 
L 1803 0 
z
" transform="scale(0.015625)"/>
       <path id="ArialMT-72" d="M 416 0 
L 416 3319 
L 922 3319 
L 922 2816 
Q 1116 3169 1280 3281 
Q 1444 3394 1641 3394 
Q 1925 3394 2219 3213 
L 2025 2691 
Q 1819 2813 1613 2813 
Q 1428 2813 1281 2702 
Q 1134 2591 1072 2394 
Q 978 2094 978 1738 
L 978 0 
L 416 0 
z
" transform="scale(0.015625)"/>
       <path id="ArialMT-75" d="M 2597 0 
L 2597 488 
Q 2209 -75 1544 -75 
Q 1250 -75 995 37 
Q 741 150 617 320 
Q 494 491 444 738 
Q 409 903 409 1263 
L 409 3319 
L 972 3319 
L 972 1478 
Q 972 1038 1006 884 
Q 1059 663 1231 536 
Q 1403 409 1656 409 
Q 1909 409 2131 539 
Q 2353 669 2445 892 
Q 2538 1116 2538 1541 
L 2538 3319 
L 3100 3319 
L 3100 0 
L 2597 0 
z
" transform="scale(0.015625)"/>
       <path id="ArialMT-73" d="M 197 991 
L 753 1078 
Q 800 744 1014 566 
Q 1228 388 1613 388 
Q 2000 388 2187 545 
Q 2375 703 2375 916 
Q 2375 1106 2209 1216 
Q 2094 1291 1634 1406 
Q 1016 1563 777 1677 
Q 538 1791 414 1992 
Q 291 2194 291 2438 
Q 291 2659 392 2848 
Q 494 3038 669 3163 
Q 800 3259 1026 3326 
Q 1253 3394 1513 3394 
Q 1903 3394 2198 3281 
Q 2494 3169 2634 2976 
Q 2775 2784 2828 2463 
L 2278 2388 
Q 2241 2644 2061 2787 
Q 1881 2931 1553 2931 
Q 1166 2931 1000 2803 
Q 834 2675 834 2503 
Q 834 2394 903 2306 
Q 972 2216 1119 2156 
Q 1203 2125 1616 2013 
Q 2213 1853 2448 1751 
Q 2684 1650 2818 1456 
Q 2953 1263 2953 975 
Q 2953 694 2789 445 
Q 2625 197 2315 61 
Q 2006 -75 1616 -75 
Q 969 -75 630 194 
Q 291 463 197 991 
z
" transform="scale(0.015625)"/>
       <path id="ArialMT-63" d="M 2588 1216 
L 3141 1144 
Q 3050 572 2676 248 
Q 2303 -75 1759 -75 
Q 1078 -75 664 370 
Q 250 816 250 1647 
Q 250 2184 428 2587 
Q 606 2991 970 3192 
Q 1334 3394 1763 3394 
Q 2303 3394 2647 3120 
Q 2991 2847 3088 2344 
L 2541 2259 
Q 2463 2594 2264 2762 
Q 2066 2931 1784 2931 
Q 1359 2931 1093 2626 
Q 828 2322 828 1663 
Q 828 994 1084 691 
Q 1341 388 1753 388 
Q 2084 388 2306 591 
Q 2528 794 2588 1216 
z
" transform="scale(0.015625)"/>
       <path id="ArialMT-70" d="M 422 -1272 
L 422 3319 
L 934 3319 
L 934 2888 
Q 1116 3141 1344 3267 
Q 1572 3394 1897 3394 
Q 2322 3394 2647 3175 
Q 2972 2956 3137 2557 
Q 3303 2159 3303 1684 
Q 3303 1175 3120 767 
Q 2938 359 2589 142 
Q 2241 -75 1856 -75 
Q 1575 -75 1351 44 
Q 1128 163 984 344 
L 984 -1272 
L 422 -1272 
z
M 931 1641 
Q 931 1000 1190 694 
Q 1450 388 1819 388 
Q 2194 388 2461 705 
Q 2728 1022 2728 1688 
Q 2728 2322 2467 2637 
Q 2206 2953 1844 2953 
Q 1484 2953 1207 2617 
Q 931 2281 931 1641 
z
" transform="scale(0.015625)"/>
       <path id="ArialMT-2f" d="M 0 -78 
L 1328 4659 
L 1778 4659 
L 453 -78 
L 0 -78 
z
" transform="scale(0.015625)"/>
      </defs>
      <use xlink:href="#ArialMT-4c" transform="translate(0 0.203125)"/>
      <use xlink:href="#ArialMT-6f" transform="translate(55.615234 0.203125)"/>
      <use xlink:href="#ArialMT-67" transform="translate(111.230469 0.203125)"/>
      <use xlink:href="#DejaVuSans-31" transform="translate(167.802734 -16.203125) scale(0.7)"/>
      <use xlink:href="#DejaVuSans-30" transform="translate(212.338867 -16.203125) scale(0.7)"/>
      <use xlink:href="#ArialMT-20" transform="translate(259.609375 0.203125)"/>
      <use xlink:href="#ArialMT-56" transform="translate(287.392578 0.203125)"/>
      <use xlink:href="#ArialMT-69" transform="translate(354.091797 0.203125)"/>
      <use xlink:href="#ArialMT-72" transform="translate(376.308594 0.203125)"/>
      <use xlink:href="#ArialMT-75" transform="translate(409.609375 0.203125)"/>
      <use xlink:href="#ArialMT-73" transform="translate(465.224609 0.203125)"/>
      <use xlink:href="#ArialMT-20" transform="translate(515.224609 0.203125)"/>
      <use xlink:href="#ArialMT-28" transform="translate(543.007812 0.203125)"/>
      <use xlink:href="#ArialMT-63" transform="translate(576.308594 0.203125)"/>
      <use xlink:href="#ArialMT-6f" transform="translate(626.308594 0.203125)"/>
      <use xlink:href="#ArialMT-70" transform="translate(681.923828 0.203125)"/>
      <use xlink:href="#ArialMT-69" transform="translate(737.539062 0.203125)"/>
      <use xlink:href="#ArialMT-65" transform="translate(759.755859 0.203125)"/>
      <use xlink:href="#ArialMT-73" transform="translate(815.371094 0.203125)"/>
      <use xlink:href="#ArialMT-2f" transform="translate(865.371094 0.203125)"/>
      <use xlink:href="#ArialMT-6d" transform="translate(893.154297 0.203125)"/>
      <use xlink:href="#ArialMT-4c" transform="translate(976.455078 0.203125)"/>
      <use xlink:href="#ArialMT-29" transform="translate(1032.070312 0.203125)"/>
     </g>
    </g>
   </g>
   <g id="patch_3">
    <path d="M 180 320.4 
L 180 43.2 
" style="fill: none; stroke: #262626; stroke-width: 1.25; stroke-linejoin: miter; stroke-linecap: square"/>
   </g>
   <g id="patch_4">
    <path d="M 407.755102 320.4 
L 407.755102 43.2 
" style="fill: none; stroke: #262626; stroke-width: 1.25; stroke-linejoin: miter; stroke-linecap: square"/>
   </g>
   <g id="patch_5">
    <path d="M 180 320.4 
L 407.755102 320.4 
" style="fill: none; stroke: #262626; stroke-width: 1.25; stroke-linejoin: miter; stroke-linecap: square"/>
   </g>
   <g id="patch_6">
    <path d="M 180 43.2 
L 407.755102 43.2 
" style="fill: none; stroke: #262626; stroke-width: 1.25; stroke-linejoin: miter; stroke-linecap: square"/>
   </g>
   <g id="PolyCollection_1">
    <defs>
     <path id="m1822e292b3" d="M 186.698679 -39.6 
L 186.698679 -39.6 
L 186.699011 -39.6 
L 186.702326 -39.6 
L 186.735479 -39.6 
L 186.843839 -39.6 
L 186.952198 -39.6 
L 187.328672 -39.6 
L 187.705146 -39.6 
L 188.459269 -39.6 
L 189.213391 -39.6 
L 190.465304 -39.6 
L 191.490575 -39.6 
L 193.086498 -39.6 
L 194.215055 -39.6 
L 196.048973 -46.062353 
L 197.187109 -51.048475 
L 198.82514 -58.256776 
L 200.016297 -63.483881 
L 201.821708 -71.440818 
L 203.001063 -76.617835 
L 204.616196 -83.72184 
L 205.833002 -89.061724 
L 207.58076 -96.757171 
L 208.781664 -102.027602 
L 210.381144 -109.056872 
L 211.605811 -114.427149 
L 213.315612 -121.941248 
L 214.521611 -127.223611 
L 216.113489 -134.196049 
L 217.339848 -139.549341 
L 219.039818 -146.963118 
L 220.25496 -152.229109 
L 221.872646 -159.195155 
L 223.112768 -164.477494 
L 224.853099 -171.770443 
L 226.097601 -176.8621 
L 227.975218 -184.217139 
L 229.217628 -188.831264 
L 230.938964 -194.651444 
L 232.236005 -198.584204 
L 234.113504 -203.246468 
L 235.432267 -205.8703 
L 237.504636 -208.556892 
L 238.864292 -209.625169 
L 240.80007 -209.942338 
L 242.221344 -209.440846 
L 244.275614 -208.188006 
L 245.723727 -206.817549 
L 247.918458 -204.387121 
L 249.515034 -202.270368 
L 251.937642 -198.750567 
L 253.700373 -195.935521 
L 256.379845 -191.396419 
L 258.208387 -188.152215 
L 260.651943 -183.661972 
L 263.0955 -179.022339 
L 265.539057 -174.250012 
L 268.218528 -168.867345 
L 270.898 -163.320655 
L 273.577472 -157.57894 
L 276.256944 -151.588601 
L 278.936416 -145.27668 
L 281.615887 -138.564293 
L 284.295359 -131.394297 
L 286.974831 -123.768248 
L 289.654303 -115.772764 
L 292.333774 -107.571513 
L 295.013246 -99.361106 
L 297.692718 -91.288019 
L 300.37219 -83.496736 
L 303.051662 -76.039457 
L 305.731133 -68.911987 
L 308.410605 -62.076049 
L 311.090077 -55.47974 
L 313.769549 -49.071366 
L 316.449021 -42.964129 
L 319.128492 -39.6 
L 321.807964 -39.6 
L 324.487436 -39.6 
L 327.166908 -39.6 
L 329.84638 -39.6 
L 332.525851 -39.6 
L 335.205323 -39.6 
L 337.884795 -39.6 
L 340.564267 -39.6 
L 343.243738 -39.6 
L 345.92321 -39.6 
L 348.602682 -39.6 
L 351.282154 -39.6 
L 353.961626 -39.6 
L 356.641097 -39.6 
L 359.320569 -39.6 
L 362.000041 -39.6 
L 364.679513 -39.6 
L 367.358985 -39.6 
L 370.038456 -39.6 
L 372.717928 -39.6 
L 375.3974 -39.6 
L 378.076872 -39.6 
L 380.756343 -39.6 
L 383.435815 -39.6 
L 386.115287 -39.6 
L 388.794759 -39.6 
L 391.474231 -39.6 
L 394.153702 -39.6 
L 396.833174 -39.6 
L 399.512646 -39.6 
L 401.056423 -39.6 
L 401.056423 -39.6 
L 401.056423 -39.6 
L 399.512646 -39.6 
L 396.833174 -39.6 
L 394.153702 -39.6 
L 391.474231 -39.6 
L 388.794759 -39.6 
L 386.115287 -39.6 
L 383.435815 -39.6 
L 380.756343 -39.6 
L 378.076872 -39.6 
L 375.3974 -39.6 
L 372.717928 -39.6 
L 370.038456 -39.6 
L 367.358985 -39.6 
L 364.679513 -39.6 
L 362.000041 -39.6 
L 359.320569 -39.6 
L 356.641097 -39.6 
L 353.961626 -39.6 
L 351.282154 -39.6 
L 348.602682 -39.6 
L 345.92321 -39.6 
L 343.243738 -39.6 
L 340.564267 -39.6 
L 337.884795 -39.6 
L 335.205323 -39.6 
L 332.525851 -39.6 
L 329.84638 -39.6 
L 327.166908 -39.6 
L 324.487436 -39.6 
L 321.807964 -39.6 
L 319.128492 -40.350936 
L 316.449021 -44.873813 
L 313.769549 -51.163193 
L 311.090077 -57.603009 
L 308.410605 -64.238804 
L 305.731133 -71.121819 
L 303.051662 -78.300932 
L 300.37219 -85.807531 
L 297.692718 -93.634749 
L 295.013246 -101.717399 
L 292.333774 -109.924099 
L 289.654303 -118.073 
L 286.974831 -125.973641 
L 284.295359 -133.480182 
L 281.615887 -140.553091 
L 278.936416 -147.204572 
L 276.256944 -153.465339 
L 273.577472 -159.414833 
L 270.898 -165.123927 
L 268.218528 -170.643194 
L 265.539057 -176.000774 
L 263.0955 -180.749574 
L 260.651943 -185.363781 
L 258.208387 -189.825368 
L 256.379845 -193.042508 
L 253.700373 -197.538388 
L 251.937642 -200.314401 
L 249.515034 -203.835098 
L 247.918458 -205.91802 
L 245.723727 -208.383316 
L 244.275614 -209.696939 
L 242.221344 -211.003573 
L 240.80007 -211.417555 
L 238.864292 -211.161502 
L 237.504636 -210.389334 
L 235.432267 -208.04425 
L 234.113504 -205.729363 
L 232.236005 -201.315761 
L 230.938964 -197.570305 
L 229.217628 -191.853858 
L 227.975218 -187.319415 
L 226.097601 -179.953003 
L 224.853099 -174.857637 
L 223.112768 -167.49923 
L 221.872646 -162.174294 
L 220.25496 -155.124615 
L 219.039818 -149.804655 
L 217.339848 -142.291342 
L 216.113489 -136.874881 
L 214.521611 -129.806561 
L 213.315612 -124.46199 
L 211.605811 -116.841867 
L 210.381144 -111.405031 
L 208.781664 -104.277328 
L 207.58076 -98.943703 
L 205.833002 -91.13889 
L 204.616196 -85.732403 
L 203.001063 -78.528855 
L 201.821708 -73.289839 
L 200.016297 -65.219754 
L 198.82514 -59.927334 
L 197.187109 -52.618639 
L 196.048973 -47.563408 
L 194.215055 -40.055671 
L 193.086498 -39.6 
L 191.490575 -39.6 
L 190.465304 -39.6 
L 189.213391 -39.6 
L 188.459269 -39.6 
L 187.705146 -39.6 
L 187.328672 -39.6 
L 186.952198 -39.6 
L 186.843839 -39.6 
L 186.735479 -39.6 
L 186.702326 -39.6 
L 186.699011 -39.6 
L 186.698679 -39.6 
z
" style="stroke: #1e90ff; stroke-opacity: 0.2"/>
    </defs>
    <g clip-path="url(#pa44232591a)">
     <use xlink:href="#m1822e292b3" x="0" y="360" style="fill: #1e90ff; fill-opacity: 0.2; stroke: #1e90ff; stroke-opacity: 0.2"/>
    </g>
   </g>
   <g id="PathCollection_1">
    <defs>
     <path id="md55b1dc78d" d="M 0 4.330127 
C 1.148363 4.330127 2.249847 3.873878 3.061862 3.061862 
C 3.873878 2.249847 4.330127 1.148363 4.330127 0 
C 4.330127 -1.148363 3.873878 -2.249847 3.061862 -3.061862 
C 2.249847 -3.873878 1.148363 -4.330127 0 -4.330127 
C -1.148363 -4.330127 -2.249847 -3.873878 -3.061862 -3.061862 
C -3.873878 -2.249847 -4.330127 -1.148363 -4.330127 0 
C -4.330127 1.148363 -3.873878 2.249847 -3.061862 3.061862 
C -2.249847 3.873878 -1.148363 4.330127 0 4.330127 
z
" style="stroke: #1e90ff; stroke-opacity: 0.8"/>
    </defs>
    <g clip-path="url(#pa44232591a)">
     <use xlink:href="#md55b1dc78d" x="186.698679" y="320.4" style="fill: #1e90ff; fill-opacity: 0.8; stroke: #1e90ff; stroke-opacity: 0.8"/>
     <use xlink:href="#md55b1dc78d" x="213.493397" y="238.539375" style="fill: #1e90ff; fill-opacity: 0.8; stroke: #1e90ff; stroke-opacity: 0.8"/>
     <use xlink:href="#md55b1dc78d" x="240.288115" y="144.55125" style="fill: #1e90ff; fill-opacity: 0.8; stroke: #1e90ff; stroke-opacity: 0.8"/>
     <use xlink:href="#md55b1dc78d" x="267.082833" y="190.029375" style="fill: #1e90ff; fill-opacity: 0.8; stroke: #1e90ff; stroke-opacity: 0.8"/>
     <use xlink:href="#md55b1dc78d" x="293.877551" y="253.69875" style="fill: #1e90ff; fill-opacity: 0.8; stroke: #1e90ff; stroke-opacity: 0.8"/>
     <use xlink:href="#md55b1dc78d" x="320.672269" y="320.4" style="fill: #1e90ff; fill-opacity: 0.8; stroke: #1e90ff; stroke-opacity: 0.8"/>
     <use xlink:href="#md55b1dc78d" x="347.466987" y="320.4" style="fill: #1e90ff; fill-opacity: 0.8; stroke: #1e90ff; stroke-opacity: 0.8"/>
     <use xlink:href="#md55b1dc78d" x="374.261705" y="320.4" style="fill: #1e90ff; fill-opacity: 0.8; stroke: #1e90ff; stroke-opacity: 0.8"/>
    </g>
   </g>
   <g id="line2d_1">
    <path d="M 186.698679 320.4 
L 186.699011 320.4 
L 186.702326 320.4 
L 186.735479 320.4 
L 186.843839 320.4 
L 186.952198 320.4 
L 187.328672 320.4 
L 187.705146 320.4 
L 188.459269 320.4 
L 189.213391 320.4 
L 190.465304 320.4 
L 191.490575 320.4 
L 193.086498 320.4 
L 194.215055 320.4 
L 196.048973 313.145556 
L 197.187109 308.109805 
L 198.82514 300.830048 
L 200.016297 295.558929 
L 201.821708 287.520755 
L 203.001063 282.302712 
L 204.616196 275.127838 
L 205.833002 269.743099 
L 207.58076 261.969026 
L 208.781664 256.656854 
L 210.381144 249.557096 
L 211.605811 244.14217 
L 213.315612 236.551293 
L 214.521611 231.227861 
L 216.113489 224.185951 
L 217.339848 218.790131 
L 219.039818 211.30253 
L 220.25496 206.000258 
L 221.872646 198.970087 
L 223.112768 193.65673 
L 224.853099 186.306509 
L 226.097601 181.206868 
L 227.975218 173.82208 
L 229.217628 169.251225 
L 230.938964 163.471272 
L 232.236005 159.648452 
L 234.113504 155.119165 
L 235.432267 152.697767 
L 237.504636 150.216113 
L 238.864292 149.394174 
L 240.80007 149.181739 
L 242.221344 149.626281 
L 244.275614 150.963625 
L 245.723727 152.307454 
L 247.918458 154.81201 
L 249.515034 156.922916 
L 251.937642 160.471546 
L 253.700373 163.267557 
L 256.379845 167.784336 
L 258.208387 171.015454 
L 260.651943 175.490965 
L 263.0955 180.117948 
L 265.539057 184.878349 
L 268.218528 190.248259 
L 270.898 195.7806 
L 273.577472 201.5047 
L 276.256944 207.472535 
L 278.936416 213.756103 
L 281.615887 220.434973 
L 284.295359 227.569582 
L 286.974831 235.164142 
L 289.654303 243.138285 
L 292.333774 251.332164 
L 295.013246 259.54898 
L 297.692718 267.610225 
L 300.37219 275.394513 
L 303.051662 282.848425 
L 305.731133 289.974793 
L 308.410605 296.811001 
L 311.090077 303.408381 
L 313.769549 309.818242 
L 316.449021 316.085064 
L 319.128492 320.4 
L 321.807964 320.4 
L 324.487436 320.4 
L 327.166908 320.4 
L 329.84638 320.4 
L 332.525851 320.4 
L 335.205323 320.4 
L 337.884795 320.4 
L 340.564267 320.4 
L 343.243738 320.4 
L 345.92321 320.4 
L 348.602682 320.4 
L 351.282154 320.4 
L 353.961626 320.4 
L 356.641097 320.4 
L 359.320569 320.4 
L 362.000041 320.4 
L 364.679513 320.4 
L 367.358985 320.4 
L 370.038456 320.4 
L 372.717928 320.4 
L 375.3974 320.4 
L 378.076872 320.4 
L 380.756343 320.4 
L 383.435815 320.4 
L 386.115287 320.4 
L 388.794759 320.4 
L 391.474231 320.4 
L 394.153702 320.4 
L 396.833174 320.4 
L 399.512646 320.4 
L 401.056423 320.4 
" clip-path="url(#pa44232591a)" style="fill: none; stroke: #1e90ff; stroke-width: 1.5; stroke-linecap: round"/>
   </g>
  </g>
  <g id="text_13">
   <!-- Volunteer 9 -->
   <g style="fill: #262626" transform="translate(353.07375 29.532375) scale(0.312 -0.312)">
    <defs>
     <path id="ArialMT-6c" d="M 409 0 
L 409 4581 
L 972 4581 
L 972 0 
L 409 0 
z
" transform="scale(0.015625)"/>
     <path id="ArialMT-6e" d="M 422 0 
L 422 3319 
L 928 3319 
L 928 2847 
Q 1294 3394 1984 3394 
Q 2284 3394 2536 3286 
Q 2788 3178 2913 3003 
Q 3038 2828 3088 2588 
Q 3119 2431 3119 2041 
L 3119 0 
L 2556 0 
L 2556 2019 
Q 2556 2363 2490 2533 
Q 2425 2703 2258 2804 
Q 2091 2906 1866 2906 
Q 1506 2906 1245 2678 
Q 984 2450 984 1813 
L 984 0 
L 422 0 
z
" transform="scale(0.015625)"/>
     <path id="ArialMT-74" d="M 1650 503 
L 1731 6 
Q 1494 -44 1306 -44 
Q 1000 -44 831 53 
Q 663 150 594 308 
Q 525 466 525 972 
L 525 2881 
L 113 2881 
L 113 3319 
L 525 3319 
L 525 4141 
L 1084 4478 
L 1084 3319 
L 1650 3319 
L 1650 2881 
L 1084 2881 
L 1084 941 
Q 1084 700 1114 631 
Q 1144 563 1211 522 
Q 1278 481 1403 481 
Q 1497 481 1650 503 
z
" transform="scale(0.015625)"/>
     <path id="ArialMT-39" d="M 350 1059 
L 891 1109 
Q 959 728 1153 556 
Q 1347 384 1650 384 
Q 1909 384 2104 503 
Q 2300 622 2425 820 
Q 2550 1019 2634 1356 
Q 2719 1694 2719 2044 
Q 2719 2081 2716 2156 
Q 2547 1888 2255 1720 
Q 1963 1553 1622 1553 
Q 1053 1553 659 1965 
Q 266 2378 266 3053 
Q 266 3750 677 4175 
Q 1088 4600 1706 4600 
Q 2153 4600 2523 4359 
Q 2894 4119 3086 3673 
Q 3278 3228 3278 2384 
Q 3278 1506 3087 986 
Q 2897 466 2520 194 
Q 2144 -78 1638 -78 
Q 1100 -78 759 220 
Q 419 519 350 1059 
z
M 2653 3081 
Q 2653 3566 2395 3850 
Q 2138 4134 1775 4134 
Q 1400 4134 1122 3828 
Q 844 3522 844 3034 
Q 844 2597 1108 2323 
Q 1372 2050 1759 2050 
Q 2150 2050 2401 2323 
Q 2653 2597 2653 3081 
z
" transform="scale(0.015625)"/>
    </defs>
    <use xlink:href="#ArialMT-56"/>
    <use xlink:href="#ArialMT-6f" x="61.199219"/>
    <use xlink:href="#ArialMT-6c" x="116.814453"/>
    <use xlink:href="#ArialMT-75" x="139.03125"/>
    <use xlink:href="#ArialMT-6e" x="194.646484"/>
    <use xlink:href="#ArialMT-74" x="250.261719"/>
    <use xlink:href="#ArialMT-65" x="278.044922"/>
    <use xlink:href="#ArialMT-65" x="333.660156"/>
    <use xlink:href="#ArialMT-72" x="389.275391"/>
    <use xlink:href="#ArialMT-20" x="422.576172"/>
    <use xlink:href="#ArialMT-39" x="450.359375"/>
   </g>
  </g>
 </g>
 <defs>
  <clipPath id="pa44232591a">
   <rect x="180" y="43.2" width="227.755102" height="277.2"/>
  </clipPath>
 </defs>
</svg>
