<?xml version="1.0" encoding="utf-8" standalone="no"?>
<!DOCTYPE svg PUBLIC "-//W3C//DTD SVG 1.1//EN"
  "http://www.w3.org/Graphics/SVG/1.1/DTD/svg11.dtd">
<svg xmlns:xlink="http://www.w3.org/1999/xlink" width="1440pt" height="360pt" viewBox="0 0 1440 360" xmlns="http://www.w3.org/2000/svg" version="1.1">
 <metadata>
  <rdf:RDF xmlns:dc="http://purl.org/dc/elements/1.1/" xmlns:cc="http://creativecommons.org/ns#" xmlns:rdf="http://www.w3.org/1999/02/22-rdf-syntax-ns#">
   <cc:Work>
    <dc:type rdf:resource="http://purl.org/dc/dcmitype/StillImage"/>
    <dc:date>2025-02-07T13:23:30.896768</dc:date>
    <dc:format>image/svg+xml</dc:format>
    <dc:creator>
     <cc:Agent>
      <dc:title>Matplotlib v3.10.0, https://matplotlib.org/</dc:title>
     </cc:Agent>
    </dc:creator>
   </cc:Work>
  </rdf:RDF>
 </metadata>
 <defs>
  <style type="text/css">*{stroke-linejoin: round; stroke-linecap: butt}</style>
 </defs>
 <g id="figure_1">
  <g id="patch_1">
   <path d="M 0 360 
L 1440 360 
L 1440 0 
L 0 0 
L 0 360 
z
" style="fill: none"/>
  </g>
  <g id="axes_1">
   <g id="patch_2">
    <path d="M 180 320.4 
L 407.755102 320.4 
L 407.755102 43.2 
L 180 43.2 
L 180 320.4 
z
" style="fill: none"/>
   </g>
   <g id="matplotlib.axis_1">
    <g id="xtick_1">
     <g id="line2d_1">
      <defs>
       <path id="m302175d0ea" d="M 0 0 
L 0 3.5 
" style="stroke: #000000; stroke-width: 0.8"/>
      </defs>
      <g>
       <use xlink:href="#m302175d0ea" x="186.698679" y="320.4" style="stroke: #000000; stroke-width: 0.8"/>
      </g>
     </g>
     <g id="text_1">
      <!-- 0 -->
      <g transform="translate(176.773179 351.107125) scale(0.312 -0.312)">
       <defs>
        <path id="DejaVuSans-30" d="M 2034 4250 
Q 1547 4250 1301 3770 
Q 1056 3291 1056 2328 
Q 1056 1369 1301 889 
Q 1547 409 2034 409 
Q 2525 409 2770 889 
Q 3016 1369 3016 2328 
Q 3016 3291 2770 3770 
Q 2525 4250 2034 4250 
z
M 2034 4750 
Q 2819 4750 3233 4129 
Q 3647 3509 3647 2328 
Q 3647 1150 3233 529 
Q 2819 -91 2034 -91 
Q 1250 -91 836 529 
Q 422 1150 422 2328 
Q 422 3509 836 4129 
Q 1250 4750 2034 4750 
z
" transform="scale(0.015625)"/>
       </defs>
       <use xlink:href="#DejaVuSans-30"/>
      </g>
     </g>
    </g>
    <g id="xtick_2">
     <g id="line2d_2">
      <g>
       <use xlink:href="#m302175d0ea" x="240.288115" y="320.4" style="stroke: #000000; stroke-width: 0.8"/>
      </g>
     </g>
     <g id="text_2">
      <!-- 2 -->
      <g transform="translate(230.362615 351.107125) scale(0.312 -0.312)">
       <defs>
        <path id="DejaVuSans-32" d="M 1228 531 
L 3431 531 
L 3431 0 
L 469 0 
L 469 531 
Q 828 903 1448 1529 
Q 2069 2156 2228 2338 
Q 2531 2678 2651 2914 
Q 2772 3150 2772 3378 
Q 2772 3750 2511 3984 
Q 2250 4219 1831 4219 
Q 1534 4219 1204 4116 
Q 875 4013 500 3803 
L 500 4441 
Q 881 4594 1212 4672 
Q 1544 4750 1819 4750 
Q 2544 4750 2975 4387 
Q 3406 4025 3406 3419 
Q 3406 3131 3298 2873 
Q 3191 2616 2906 2266 
Q 2828 2175 2409 1742 
Q 1991 1309 1228 531 
z
" transform="scale(0.015625)"/>
       </defs>
       <use xlink:href="#DejaVuSans-32"/>
      </g>
     </g>
    </g>
    <g id="xtick_3">
     <g id="line2d_3">
      <g>
       <use xlink:href="#m302175d0ea" x="293.877551" y="320.4" style="stroke: #000000; stroke-width: 0.8"/>
      </g>
     </g>
     <g id="text_3">
      <!-- 4 -->
      <g transform="translate(283.952051 351.107125) scale(0.312 -0.312)">
       <defs>
        <path id="DejaVuSans-34" d="M 2419 4116 
L 825 1625 
L 2419 1625 
L 2419 4116 
z
M 2253 4666 
L 3047 4666 
L 3047 1625 
L 3713 1625 
L 3713 1100 
L 3047 1100 
L 3047 0 
L 2419 0 
L 2419 1100 
L 313 1100 
L 313 1709 
L 2253 4666 
z
" transform="scale(0.015625)"/>
       </defs>
       <use xlink:href="#DejaVuSans-34"/>
      </g>
     </g>
    </g>
    <g id="xtick_4">
     <g id="line2d_4">
      <g>
       <use xlink:href="#m302175d0ea" x="347.466987" y="320.4" style="stroke: #000000; stroke-width: 0.8"/>
      </g>
     </g>
     <g id="text_4">
      <!-- 6 -->
      <g transform="translate(337.541487 351.107125) scale(0.312 -0.312)">
       <defs>
        <path id="DejaVuSans-36" d="M 2113 2584 
Q 1688 2584 1439 2293 
Q 1191 2003 1191 1497 
Q 1191 994 1439 701 
Q 1688 409 2113 409 
Q 2538 409 2786 701 
Q 3034 994 3034 1497 
Q 3034 2003 2786 2293 
Q 2538 2584 2113 2584 
z
M 3366 4563 
L 3366 3988 
Q 3128 4100 2886 4159 
Q 2644 4219 2406 4219 
Q 1781 4219 1451 3797 
Q 1122 3375 1075 2522 
Q 1259 2794 1537 2939 
Q 1816 3084 2150 3084 
Q 2853 3084 3261 2657 
Q 3669 2231 3669 1497 
Q 3669 778 3244 343 
Q 2819 -91 2113 -91 
Q 1303 -91 875 529 
Q 447 1150 447 2328 
Q 447 3434 972 4092 
Q 1497 4750 2381 4750 
Q 2619 4750 2861 4703 
Q 3103 4656 3366 4563 
z
" transform="scale(0.015625)"/>
       </defs>
       <use xlink:href="#DejaVuSans-36"/>
      </g>
     </g>
    </g>
    <g id="xtick_5">
     <g id="line2d_5">
      <g>
       <use xlink:href="#m302175d0ea" x="401.056423" y="320.4" style="stroke: #000000; stroke-width: 0.8"/>
      </g>
     </g>
     <g id="text_5">
      <!-- 8 -->
      <g transform="translate(391.130923 351.107125) scale(0.312 -0.312)">
       <defs>
        <path id="DejaVuSans-38" d="M 2034 2216 
Q 1584 2216 1326 1975 
Q 1069 1734 1069 1313 
Q 1069 891 1326 650 
Q 1584 409 2034 409 
Q 2484 409 2743 651 
Q 3003 894 3003 1313 
Q 3003 1734 2745 1975 
Q 2488 2216 2034 2216 
z
M 1403 2484 
Q 997 2584 770 2862 
Q 544 3141 544 3541 
Q 544 4100 942 4425 
Q 1341 4750 2034 4750 
Q 2731 4750 3128 4425 
Q 3525 4100 3525 3541 
Q 3525 3141 3298 2862 
Q 3072 2584 2669 2484 
Q 3125 2378 3379 2068 
Q 3634 1759 3634 1313 
Q 3634 634 3220 271 
Q 2806 -91 2034 -91 
Q 1263 -91 848 271 
Q 434 634 434 1313 
Q 434 1759 690 2068 
Q 947 2378 1403 2484 
z
M 1172 3481 
Q 1172 3119 1398 2916 
Q 1625 2713 2034 2713 
Q 2441 2713 2670 2916 
Q 2900 3119 2900 3481 
Q 2900 3844 2670 4047 
Q 2441 4250 2034 4250 
Q 1625 4250 1398 4047 
Q 1172 3844 1172 3481 
z
" transform="scale(0.015625)"/>
       </defs>
       <use xlink:href="#DejaVuSans-38"/>
      </g>
     </g>
    </g>
    <g id="text_6">
     <!-- Time (d) -->
     <g transform="translate(241.190989 382.415656) scale(0.286 -0.286)">
      <defs>
       <path id="ArialMT-54" d="M 1659 0 
L 1659 4041 
L 150 4041 
L 150 4581 
L 3781 4581 
L 3781 4041 
L 2266 4041 
L 2266 0 
L 1659 0 
z
" transform="scale(0.015625)"/>
       <path id="ArialMT-69" d="M 425 3934 
L 425 4581 
L 988 4581 
L 988 3934 
L 425 3934 
z
M 425 0 
L 425 3319 
L 988 3319 
L 988 0 
L 425 0 
z
" transform="scale(0.015625)"/>
       <path id="ArialMT-6d" d="M 422 0 
L 422 3319 
L 925 3319 
L 925 2853 
Q 1081 3097 1340 3245 
Q 1600 3394 1931 3394 
Q 2300 3394 2536 3241 
Q 2772 3088 2869 2813 
Q 3263 3394 3894 3394 
Q 4388 3394 4653 3120 
Q 4919 2847 4919 2278 
L 4919 0 
L 4359 0 
L 4359 2091 
Q 4359 2428 4304 2576 
Q 4250 2725 4106 2815 
Q 3963 2906 3769 2906 
Q 3419 2906 3187 2673 
Q 2956 2441 2956 1928 
L 2956 0 
L 2394 0 
L 2394 2156 
Q 2394 2531 2256 2718 
Q 2119 2906 1806 2906 
Q 1569 2906 1367 2781 
Q 1166 2656 1075 2415 
Q 984 2175 984 1722 
L 984 0 
L 422 0 
z
" transform="scale(0.015625)"/>
       <path id="ArialMT-65" d="M 2694 1069 
L 3275 997 
Q 3138 488 2766 206 
Q 2394 -75 1816 -75 
Q 1088 -75 661 373 
Q 234 822 234 1631 
Q 234 2469 665 2931 
Q 1097 3394 1784 3394 
Q 2450 3394 2872 2941 
Q 3294 2488 3294 1666 
Q 3294 1616 3291 1516 
L 816 1516 
Q 847 969 1125 678 
Q 1403 388 1819 388 
Q 2128 388 2347 550 
Q 2566 713 2694 1069 
z
M 847 1978 
L 2700 1978 
Q 2663 2397 2488 2606 
Q 2219 2931 1791 2931 
Q 1403 2931 1139 2672 
Q 875 2413 847 1978 
z
" transform="scale(0.015625)"/>
       <path id="ArialMT-20" transform="scale(0.015625)"/>
       <path id="ArialMT-28" d="M 1497 -1347 
Q 1031 -759 709 28 
Q 388 816 388 1659 
Q 388 2403 628 3084 
Q 909 3875 1497 4659 
L 1900 4659 
Q 1522 4009 1400 3731 
Q 1209 3300 1100 2831 
Q 966 2247 966 1656 
Q 966 153 1900 -1347 
L 1497 -1347 
z
" transform="scale(0.015625)"/>
       <path id="ArialMT-64" d="M 2575 0 
L 2575 419 
Q 2259 -75 1647 -75 
Q 1250 -75 917 144 
Q 584 363 401 755 
Q 219 1147 219 1656 
Q 219 2153 384 2558 
Q 550 2963 881 3178 
Q 1213 3394 1622 3394 
Q 1922 3394 2156 3267 
Q 2391 3141 2538 2938 
L 2538 4581 
L 3097 4581 
L 3097 0 
L 2575 0 
z
M 797 1656 
Q 797 1019 1065 703 
Q 1334 388 1700 388 
Q 2069 388 2326 689 
Q 2584 991 2584 1609 
Q 2584 2291 2321 2609 
Q 2059 2928 1675 2928 
Q 1300 2928 1048 2622 
Q 797 2316 797 1656 
z
" transform="scale(0.015625)"/>
       <path id="ArialMT-29" d="M 791 -1347 
L 388 -1347 
Q 1322 153 1322 1656 
Q 1322 2244 1188 2822 
Q 1081 3291 891 3722 
Q 769 4003 388 4659 
L 791 4659 
Q 1378 3875 1659 3084 
Q 1900 2403 1900 1659 
Q 1900 816 1576 28 
Q 1253 -759 791 -1347 
z
" transform="scale(0.015625)"/>
      </defs>
      <use xlink:href="#ArialMT-54"/>
      <use xlink:href="#ArialMT-69" transform="translate(57.333984 0)"/>
      <use xlink:href="#ArialMT-6d" transform="translate(79.550781 0)"/>
      <use xlink:href="#ArialMT-65" transform="translate(162.851562 0)"/>
      <use xlink:href="#ArialMT-20" transform="translate(218.466797 0)"/>
      <use xlink:href="#ArialMT-28" transform="translate(246.25 0)"/>
      <use xlink:href="#ArialMT-64" transform="translate(279.550781 0)"/>
      <use xlink:href="#ArialMT-29" transform="translate(335.166016 0)"/>
     </g>
    </g>
   </g>
   <g id="matplotlib.axis_2">
    <g id="ytick_1">
     <g id="line2d_6">
      <defs>
       <path id="m3d6404a642" d="M 0 0 
L -3.5 0 
" style="stroke: #000000; stroke-width: 0.8"/>
      </defs>
      <g>
       <use xlink:href="#m3d6404a642" x="180" y="320.4" style="stroke: #000000; stroke-width: 0.8"/>
      </g>
     </g>
     <g id="text_7">
      <!-- 0 -->
      <g transform="translate(153.149 332.253562) scale(0.312 -0.312)">
       <use xlink:href="#DejaVuSans-30"/>
      </g>
     </g>
    </g>
    <g id="ytick_2">
     <g id="line2d_7">
      <g>
       <use xlink:href="#m3d6404a642" x="180" y="251.1" style="stroke: #000000; stroke-width: 0.8"/>
      </g>
     </g>
     <g id="text_8">
      <!-- 2 -->
      <g transform="translate(153.149 262.953562) scale(0.312 -0.312)">
       <use xlink:href="#DejaVuSans-32"/>
      </g>
     </g>
    </g>
    <g id="ytick_3">
     <g id="line2d_8">
      <g>
       <use xlink:href="#m3d6404a642" x="180" y="181.8" style="stroke: #000000; stroke-width: 0.8"/>
      </g>
     </g>
     <g id="text_9">
      <!-- 4 -->
      <g transform="translate(153.149 193.653562) scale(0.312 -0.312)">
       <use xlink:href="#DejaVuSans-34"/>
      </g>
     </g>
    </g>
    <g id="ytick_4">
     <g id="line2d_9">
      <g>
       <use xlink:href="#m3d6404a642" x="180" y="112.5" style="stroke: #000000; stroke-width: 0.8"/>
      </g>
     </g>
     <g id="text_10">
      <!-- 6 -->
      <g transform="translate(153.149 124.353562) scale(0.312 -0.312)">
       <use xlink:href="#DejaVuSans-36"/>
      </g>
     </g>
    </g>
    <g id="ytick_5">
     <g id="line2d_10">
      <g>
       <use xlink:href="#m3d6404a642" x="180" y="43.2" style="stroke: #000000; stroke-width: 0.8"/>
      </g>
     </g>
     <g id="text_11">
      <!-- 8 -->
      <g transform="translate(153.149 55.053562) scale(0.312 -0.312)">
       <use xlink:href="#DejaVuSans-38"/>
      </g>
     </g>
    </g>
    <g id="text_12">
     <!-- Log$_{10}$ Virus (copies/mL) -->
     <g transform="translate(142.857 334.238) rotate(-90) scale(0.286 -0.286)">
      <defs>
       <path id="ArialMT-4c" d="M 469 0 
L 469 4581 
L 1075 4581 
L 1075 541 
L 3331 541 
L 3331 0 
L 469 0 
z
" transform="scale(0.015625)"/>
       <path id="ArialMT-6f" d="M 213 1659 
Q 213 2581 725 3025 
Q 1153 3394 1769 3394 
Q 2453 3394 2887 2945 
Q 3322 2497 3322 1706 
Q 3322 1066 3130 698 
Q 2938 331 2570 128 
Q 2203 -75 1769 -75 
Q 1072 -75 642 372 
Q 213 819 213 1659 
z
M 791 1659 
Q 791 1022 1069 705 
Q 1347 388 1769 388 
Q 2188 388 2466 706 
Q 2744 1025 2744 1678 
Q 2744 2294 2464 2611 
Q 2184 2928 1769 2928 
Q 1347 2928 1069 2612 
Q 791 2297 791 1659 
z
" transform="scale(0.015625)"/>
       <path id="ArialMT-67" d="M 319 -275 
L 866 -356 
Q 900 -609 1056 -725 
Q 1266 -881 1628 -881 
Q 2019 -881 2231 -725 
Q 2444 -569 2519 -288 
Q 2563 -116 2559 434 
Q 2191 0 1641 0 
Q 956 0 581 494 
Q 206 988 206 1678 
Q 206 2153 378 2554 
Q 550 2956 876 3175 
Q 1203 3394 1644 3394 
Q 2231 3394 2613 2919 
L 2613 3319 
L 3131 3319 
L 3131 450 
Q 3131 -325 2973 -648 
Q 2816 -972 2473 -1159 
Q 2131 -1347 1631 -1347 
Q 1038 -1347 672 -1080 
Q 306 -813 319 -275 
z
M 784 1719 
Q 784 1066 1043 766 
Q 1303 466 1694 466 
Q 2081 466 2343 764 
Q 2606 1063 2606 1700 
Q 2606 2309 2336 2618 
Q 2066 2928 1684 2928 
Q 1309 2928 1046 2623 
Q 784 2319 784 1719 
z
" transform="scale(0.015625)"/>
       <path id="DejaVuSans-31" d="M 794 531 
L 1825 531 
L 1825 4091 
L 703 3866 
L 703 4441 
L 1819 4666 
L 2450 4666 
L 2450 531 
L 3481 531 
L 3481 0 
L 794 0 
L 794 531 
z
" transform="scale(0.015625)"/>
       <path id="ArialMT-56" d="M 1803 0 
L 28 4581 
L 684 4581 
L 1875 1253 
Q 2019 853 2116 503 
Q 2222 878 2363 1253 
L 3600 4581 
L 4219 4581 
L 2425 0 
L 1803 0 
z
" transform="scale(0.015625)"/>
       <path id="ArialMT-72" d="M 416 0 
L 416 3319 
L 922 3319 
L 922 2816 
Q 1116 3169 1280 3281 
Q 1444 3394 1641 3394 
Q 1925 3394 2219 3213 
L 2025 2691 
Q 1819 2813 1613 2813 
Q 1428 2813 1281 2702 
Q 1134 2591 1072 2394 
Q 978 2094 978 1738 
L 978 0 
L 416 0 
z
" transform="scale(0.015625)"/>
       <path id="ArialMT-75" d="M 2597 0 
L 2597 488 
Q 2209 -75 1544 -75 
Q 1250 -75 995 37 
Q 741 150 617 320 
Q 494 491 444 738 
Q 409 903 409 1263 
L 409 3319 
L 972 3319 
L 972 1478 
Q 972 1038 1006 884 
Q 1059 663 1231 536 
Q 1403 409 1656 409 
Q 1909 409 2131 539 
Q 2353 669 2445 892 
Q 2538 1116 2538 1541 
L 2538 3319 
L 3100 3319 
L 3100 0 
L 2597 0 
z
" transform="scale(0.015625)"/>
       <path id="ArialMT-73" d="M 197 991 
L 753 1078 
Q 800 744 1014 566 
Q 1228 388 1613 388 
Q 2000 388 2187 545 
Q 2375 703 2375 916 
Q 2375 1106 2209 1216 
Q 2094 1291 1634 1406 
Q 1016 1563 777 1677 
Q 538 1791 414 1992 
Q 291 2194 291 2438 
Q 291 2659 392 2848 
Q 494 3038 669 3163 
Q 800 3259 1026 3326 
Q 1253 3394 1513 3394 
Q 1903 3394 2198 3281 
Q 2494 3169 2634 2976 
Q 2775 2784 2828 2463 
L 2278 2388 
Q 2241 2644 2061 2787 
Q 1881 2931 1553 2931 
Q 1166 2931 1000 2803 
Q 834 2675 834 2503 
Q 834 2394 903 2306 
Q 972 2216 1119 2156 
Q 1203 2125 1616 2013 
Q 2213 1853 2448 1751 
Q 2684 1650 2818 1456 
Q 2953 1263 2953 975 
Q 2953 694 2789 445 
Q 2625 197 2315 61 
Q 2006 -75 1616 -75 
Q 969 -75 630 194 
Q 291 463 197 991 
z
" transform="scale(0.015625)"/>
       <path id="ArialMT-63" d="M 2588 1216 
L 3141 1144 
Q 3050 572 2676 248 
Q 2303 -75 1759 -75 
Q 1078 -75 664 370 
Q 250 816 250 1647 
Q 250 2184 428 2587 
Q 606 2991 970 3192 
Q 1334 3394 1763 3394 
Q 2303 3394 2647 3120 
Q 2991 2847 3088 2344 
L 2541 2259 
Q 2463 2594 2264 2762 
Q 2066 2931 1784 2931 
Q 1359 2931 1093 2626 
Q 828 2322 828 1663 
Q 828 994 1084 691 
Q 1341 388 1753 388 
Q 2084 388 2306 591 
Q 2528 794 2588 1216 
z
" transform="scale(0.015625)"/>
       <path id="ArialMT-70" d="M 422 -1272 
L 422 3319 
L 934 3319 
L 934 2888 
Q 1116 3141 1344 3267 
Q 1572 3394 1897 3394 
Q 2322 3394 2647 3175 
Q 2972 2956 3137 2557 
Q 3303 2159 3303 1684 
Q 3303 1175 3120 767 
Q 2938 359 2589 142 
Q 2241 -75 1856 -75 
Q 1575 -75 1351 44 
Q 1128 163 984 344 
L 984 -1272 
L 422 -1272 
z
M 931 1641 
Q 931 1000 1190 694 
Q 1450 388 1819 388 
Q 2194 388 2461 705 
Q 2728 1022 2728 1688 
Q 2728 2322 2467 2637 
Q 2206 2953 1844 2953 
Q 1484 2953 1207 2617 
Q 931 2281 931 1641 
z
" transform="scale(0.015625)"/>
       <path id="ArialMT-2f" d="M 0 -78 
L 1328 4659 
L 1778 4659 
L 453 -78 
L 0 -78 
z
" transform="scale(0.015625)"/>
      </defs>
      <use xlink:href="#ArialMT-4c" transform="translate(0 0.203125)"/>
      <use xlink:href="#ArialMT-6f" transform="translate(55.615234 0.203125)"/>
      <use xlink:href="#ArialMT-67" transform="translate(111.230469 0.203125)"/>
      <use xlink:href="#DejaVuSans-31" transform="translate(167.802734 -16.203125) scale(0.7)"/>
      <use xlink:href="#DejaVuSans-30" transform="translate(212.338867 -16.203125) scale(0.7)"/>
      <use xlink:href="#ArialMT-20" transform="translate(259.609375 0.203125)"/>
      <use xlink:href="#ArialMT-56" transform="translate(287.392578 0.203125)"/>
      <use xlink:href="#ArialMT-69" transform="translate(354.091797 0.203125)"/>
      <use xlink:href="#ArialMT-72" transform="translate(376.308594 0.203125)"/>
      <use xlink:href="#ArialMT-75" transform="translate(409.609375 0.203125)"/>
      <use xlink:href="#ArialMT-73" transform="translate(465.224609 0.203125)"/>
      <use xlink:href="#ArialMT-20" transform="translate(515.224609 0.203125)"/>
      <use xlink:href="#ArialMT-28" transform="translate(543.007812 0.203125)"/>
      <use xlink:href="#ArialMT-63" transform="translate(576.308594 0.203125)"/>
      <use xlink:href="#ArialMT-6f" transform="translate(626.308594 0.203125)"/>
      <use xlink:href="#ArialMT-70" transform="translate(681.923828 0.203125)"/>
      <use xlink:href="#ArialMT-69" transform="translate(737.539062 0.203125)"/>
      <use xlink:href="#ArialMT-65" transform="translate(759.755859 0.203125)"/>
      <use xlink:href="#ArialMT-73" transform="translate(815.371094 0.203125)"/>
      <use xlink:href="#ArialMT-2f" transform="translate(865.371094 0.203125)"/>
      <use xlink:href="#ArialMT-6d" transform="translate(893.154297 0.203125)"/>
      <use xlink:href="#ArialMT-4c" transform="translate(976.455078 0.203125)"/>
      <use xlink:href="#ArialMT-29" transform="translate(1032.070312 0.203125)"/>
     </g>
    </g>
   </g>
   <g id="patch_3">
    <path d="M 180 320.4 
L 180 43.2 
" style="fill: none; stroke: #000000; stroke-width: 0.8; stroke-linejoin: miter; stroke-linecap: square"/>
   </g>
   <g id="patch_4">
    <path d="M 407.755102 320.4 
L 407.755102 43.2 
" style="fill: none; stroke: #000000; stroke-width: 0.8; stroke-linejoin: miter; stroke-linecap: square"/>
   </g>
   <g id="patch_5">
    <path d="M 180 320.4 
L 407.755102 320.4 
" style="fill: none; stroke: #000000; stroke-width: 0.8; stroke-linejoin: miter; stroke-linecap: square"/>
   </g>
   <g id="patch_6">
    <path d="M 180 43.2 
L 407.755102 43.2 
" style="fill: none; stroke: #000000; stroke-width: 0.8; stroke-linejoin: miter; stroke-linecap: square"/>
   </g>
   <g id="FillBetweenPolyCollection_1">
    <defs>
     <path id="mbf868ea5a8" d="M 186.698679 -39.6 
L 186.698679 -39.6 
L 186.699132 -39.6 
L 186.703658 -39.6 
L 186.748915 -39.6 
L 186.870805 -39.6 
L 186.997546 -39.6 
L 187.33549 -39.6 
L 187.725231 -39.6 
L 188.557172 -39.6 
L 189.203883 -39.6 
L 190.502974 -39.6 
L 191.288883 -39.6 
L 192.732746 -41.826379 
L 193.57929 -46.93934 
L 194.959354 -55.212317 
L 195.864055 -60.661797 
L 197.253997 -68.992248 
L 198.196449 -74.640139 
L 199.5683 -82.140445 
L 200.539308 -87.407418 
L 202.041984 -95.552453 
L 202.992477 -100.725028 
L 204.291326 -107.745299 
L 205.27698 -113.090817 
L 206.687043 -120.71555 
L 207.662673 -126.013809 
L 208.966413 -133.058386 
L 209.961138 -138.444969 
L 211.357249 -145.979259 
L 212.337377 -151.278518 
L 213.637255 -158.279107 
L 214.636346 -163.639558 
L 216.031881 -171.094436 
L 217.029591 -176.381152 
L 218.530593 -184.258155 
L 219.521778 -189.34569 
L 220.886761 -196.226062 
L 221.91961 -201.198583 
L 223.404627 -207.974622 
L 224.454461 -212.355517 
L 225.927169 -217.892329 
L 227.01445 -221.370217 
L 228.429417 -225.055908 
L 229.414926 -226.413448 
L 230.64007 -227.290112 
L 231.604645 -227.823985 
L 232.611579 -228.242575 
L 233.422512 -228.505259 
L 234.167971 -228.695293 
L 234.808632 -228.824699 
L 235.450629 -228.929812 
L 235.969628 -228.995695 
L 236.420471 -229.041623 
L 236.87792 -229.077956 
L 237.256236 -229.101205 
L 238.253404 -229.13237 
L 238.742826 -229.13677 
L 239.843693 -229.113837 
L 240.434169 -229.089686 
L 241.683523 -229.00679 
L 242.451525 -228.941 
L 244.303803 -228.737884 
L 245.473124 -228.582878 
L 248.124333 -228.177345 
L 249.500984 -227.940426 
L 252.180456 -227.44812 
L 253.73892 -227.141221 
L 256.418391 -226.595048 
L 258.156862 -226.224124 
L 260.770476 -225.649681 
L 263.38409 -225.053702 
L 266.037518 -224.427715 
L 268.71699 -223.77288 
L 271.396462 -223.093949 
L 274.075933 -222.389456 
L 276.755405 -221.658 
L 279.434877 -220.898394 
L 282.114349 -220.109748 
L 284.793821 -219.291481 
L 287.473292 -218.443304 
L 290.152764 -217.565155 
L 292.832236 -216.657134 
L 295.511708 -215.719411 
L 298.191179 -214.752155 
L 300.870651 -213.755449 
L 303.550123 -212.729222 
L 306.229595 -211.673187 
L 308.909067 -210.586786 
L 311.588538 -209.469139 
L 314.26801 -208.318995 
L 316.947482 -207.134682 
L 319.626954 -205.914052 
L 322.306426 -204.654415 
L 324.985897 -203.352454 
L 327.665369 -201.87572 
L 330.344841 -200.24532 
L 333.024313 -198.563096 
L 335.703785 -196.823013 
L 338.383256 -195.01769 
L 341.062728 -193.138023 
L 343.7422 -191.17268 
L 346.421672 -189.107357 
L 349.101143 -186.923702 
L 351.780615 -184.597679 
L 354.460087 -182.096994 
L 357.139559 -179.376873 
L 359.819031 -176.372701 
L 362.498502 -172.986278 
L 365.177974 -169.057579 
L 367.857446 -164.170255 
L 370.536918 -156.041787 
L 373.21639 -140.900509 
L 374.556125 -105.084298 
L 374.824073 -75.237781 
L 374.919875 -62.772634 
L 375.037427 -47.054079 
L 375.06466 -43.382592 
L 375.168933 -39.6 
L 375.214558 -39.6 
L 375.237908 -39.6 
L 375.322827 -39.6 
L 375.366675 -39.6 
L 375.397201 -39.6 
L 375.515026 -39.6 
L 375.592842 -39.6 
L 375.808596 -39.6 
L 375.93243 -39.6 
L 376.220496 -39.6 
L 376.412472 -39.6 
L 376.996068 -39.6 
L 377.579665 -39.6 
L 379.082419 -39.6 
L 381.133348 -39.6 
L 383.378636 -39.6 
L 386.058108 -39.6 
L 388.73758 -39.6 
L 391.417052 -39.6 
L 394.096523 -39.6 
L 396.775995 -39.6 
L 399.455467 -39.6 
L 401.056423 -39.6 
L 401.056423 -39.6 
L 401.056423 -39.6 
L 399.455467 -39.6 
L 396.775995 -39.6 
L 394.096523 -39.6 
L 391.417052 -39.6 
L 388.73758 -39.6 
L 386.058108 -39.6 
L 383.378636 -39.6 
L 381.133348 -39.6 
L 379.082419 -39.6 
L 377.579665 -112.02709 
L 376.996068 -125.781177 
L 376.412472 -134.616141 
L 376.220496 -137.522418 
L 375.93243 -140.995794 
L 375.808596 -141.679439 
L 375.592842 -142.87054 
L 375.515026 -143.300133 
L 375.397201 -143.950604 
L 375.366675 -144.119132 
L 375.322827 -144.361201 
L 375.237908 -144.830005 
L 375.214558 -144.958916 
L 375.168933 -145.210792 
L 375.06466 -145.786451 
L 375.037427 -145.936792 
L 374.919875 -146.585756 
L 374.824073 -147.114649 
L 374.556125 -148.806406 
L 373.21639 -155.694301 
L 370.536918 -166.109941 
L 367.857446 -173.140825 
L 365.177974 -178.665692 
L 362.498502 -183.022798 
L 359.819031 -186.564336 
L 357.139559 -189.574166 
L 354.460087 -192.209146 
L 351.780615 -194.565391 
L 349.101143 -196.706164 
L 346.421672 -198.675346 
L 343.7422 -200.504637 
L 341.062728 -202.217686 
L 338.383256 -203.832599 
L 335.703785 -205.363543 
L 333.024313 -206.821805 
L 330.344841 -208.216507 
L 327.665369 -209.555117 
L 324.985897 -210.843809 
L 322.306426 -212.087722 
L 319.626954 -213.453701 
L 316.947482 -214.842034 
L 314.26801 -216.194028 
L 311.588538 -217.511225 
L 308.909067 -218.794738 
L 306.229595 -220.045318 
L 303.550123 -221.263402 
L 300.870651 -222.449179 
L 298.191179 -223.602649 
L 295.511708 -224.723694 
L 292.832236 -225.812151 
L 290.152764 -226.867892 
L 287.473292 -227.890907 
L 284.793821 -228.88138 
L 282.114349 -229.839761 
L 279.434877 -230.766817 
L 276.755405 -231.663658 
L 274.075933 -232.531716 
L 271.396462 -233.37268 
L 268.71699 -234.188364 
L 266.037518 -234.980499 
L 263.38409 -235.7431 
L 260.770476 -236.473637 
L 258.156862 -237.184614 
L 256.418391 -237.642515 
L 253.73892 -238.432506 
L 252.180456 -238.916073 
L 249.500984 -239.694145 
L 248.124333 -240.072021 
L 245.473124 -240.723256 
L 244.303803 -240.972432 
L 242.451525 -241.304979 
L 241.683523 -241.418566 
L 240.434169 -241.555942 
L 239.843693 -241.607169 
L 238.742826 -241.64762 
L 238.253404 -241.648727 
L 237.256236 -241.613935 
L 236.87792 -241.580083 
L 236.420471 -241.526877 
L 235.969628 -241.463169 
L 235.450629 -241.361472 
L 234.808632 -241.200339 
L 234.167971 -241.007012 
L 233.422512 -240.734587 
L 232.611579 -240.47012 
L 231.604645 -240.018917 
L 230.64007 -239.432255 
L 229.414926 -238.410051 
L 228.429417 -237.438542 
L 227.01445 -235.562081 
L 225.927169 -233.618367 
L 224.454461 -230.492512 
L 223.404627 -227.788647 
L 221.91961 -223.410674 
L 220.886761 -219.749529 
L 219.521778 -213.964902 
L 218.530593 -209.195267 
L 217.029591 -201.202292 
L 216.031881 -195.585884 
L 214.636346 -187.358808 
L 213.637255 -181.330197 
L 212.337377 -173.364798 
L 211.357249 -167.298133 
L 209.961138 -158.606953 
L 208.966413 -152.37936 
L 207.662673 -144.220184 
L 206.687043 -138.097927 
L 205.27698 -129.242989 
L 204.291326 -123.074414 
L 202.992477 -115.174526 
L 202.041984 -109.386147 
L 200.539308 -100.258345 
L 199.5683 -94.359688 
L 198.196449 -86.108589 
L 197.253997 -80.521225 
L 195.864055 -72.205819 
L 194.959354 -66.832044 
L 193.57929 -58.599154 
L 192.732746 -53.559733 
L 191.288883 -44.815287 
L 190.502974 -41.643039 
L 189.203883 -39.6 
L 188.557172 -39.6 
L 187.725231 -39.6 
L 187.33549 -39.6 
L 186.997546 -39.6 
L 186.870805 -39.6 
L 186.748915 -39.6 
L 186.703658 -39.6 
L 186.699132 -39.6 
L 186.698679 -39.6 
z
" style="stroke: #808080; stroke-opacity: 0.2"/>
    </defs>
    <g clip-path="url(#p1e09ab7196)">
     <use xlink:href="#mbf868ea5a8" x="0" y="360" style="fill: #808080; fill-opacity: 0.2; stroke: #808080; stroke-opacity: 0.2"/>
    </g>
   </g>
   <g id="PathCollection_1">
    <defs>
     <path id="mb98a4f1972" d="M 0 7.071068 
C 1.875269 7.071068 3.673985 6.326016 5 5 
C 6.326016 3.673985 7.071068 1.875269 7.071068 0 
C 7.071068 -1.875269 6.326016 -3.673985 5 -5 
C 3.673985 -6.326016 1.875269 -7.071068 0 -7.071068 
C -1.875269 -7.071068 -3.673985 -6.326016 -5 -5 
C -6.326016 -3.673985 -7.071068 -1.875269 -7.071068 0 
C -7.071068 1.875269 -6.326016 3.673985 -5 5 
C -3.673985 6.326016 -1.875269 7.071068 0 7.071068 
z
" style="stroke: #000000; stroke-opacity: 0.8"/>
    </defs>
    <g clip-path="url(#p1e09ab7196)">
     <use xlink:href="#mb98a4f1972" x="186.698679" y="320.4" style="fill-opacity: 0.8; stroke: #000000; stroke-opacity: 0.8"/>
     <use xlink:href="#mb98a4f1972" x="213.493397" y="187.90081" style="fill-opacity: 0.8; stroke: #000000; stroke-opacity: 0.8"/>
     <use xlink:href="#mb98a4f1972" x="240.288115" y="133.46933" style="fill-opacity: 0.8; stroke: #000000; stroke-opacity: 0.8"/>
     <use xlink:href="#mb98a4f1972" x="267.082833" y="116.956735" style="fill-opacity: 0.8; stroke: #000000; stroke-opacity: 0.8"/>
     <use xlink:href="#mb98a4f1972" x="293.877551" y="142.912608" style="fill-opacity: 0.8; stroke: #000000; stroke-opacity: 0.8"/>
     <use xlink:href="#mb98a4f1972" x="320.672269" y="176.236646" style="fill-opacity: 0.8; stroke: #000000; stroke-opacity: 0.8"/>
     <use xlink:href="#mb98a4f1972" x="347.466987" y="140.331054" style="fill-opacity: 0.8; stroke: #000000; stroke-opacity: 0.8"/>
     <use xlink:href="#mb98a4f1972" x="374.261705" y="235.39252" style="fill-opacity: 0.8; stroke: #000000; stroke-opacity: 0.8"/>
    </g>
   </g>
   <g id="line2d_11">
    <path d="M 186.698679 320.4 
L 191.288883 320.4 
L 193.57929 307.519223 
L 212.337377 195.07512 
L 217.029591 167.873983 
L 219.521778 154.645666 
L 221.91961 143.853055 
L 223.404627 138.556449 
L 224.454461 135.515673 
L 225.927169 132.202953 
L 227.01445 130.368128 
L 228.429417 128.599017 
L 229.414926 127.686921 
L 230.64007 126.828239 
L 232.611579 125.91311 
L 234.167971 125.477872 
L 236.420471 125.152465 
L 238.742826 125.076874 
L 241.683523 125.229947 
L 245.473124 125.685369 
L 252.180456 126.877413 
L 258.156862 128.158424 
L 266.037518 130.043588 
L 274.075933 132.185582 
L 282.114349 134.569852 
L 290.152764 137.203897 
L 298.191179 140.080363 
L 306.229595 143.193982 
L 314.26801 146.556721 
L 322.306426 150.20791 
L 327.665369 152.838402 
L 333.024313 155.666304 
L 338.383256 158.744041 
L 343.7422 162.150213 
L 349.101143 166.008948 
L 351.780615 168.168749 
L 354.460087 170.532342 
L 357.139559 173.157151 
L 359.819031 176.128866 
L 362.498502 179.583668 
L 365.177974 183.757735 
L 367.857446 189.117645 
L 370.536918 196.810553 
L 373.21639 211.373913 
L 374.556125 232.019506 
L 374.919875 249.219735 
L 375.808596 320.4 
L 401.056423 320.4 
L 401.056423 320.4 
" clip-path="url(#p1e09ab7196)" style="fill: none; stroke: #808080; stroke-width: 3; stroke-linecap: square"/>
   </g>
  </g>
  <g id="axes_2">
   <g id="patch_7">
    <path d="M 476.081633 320.4 
L 703.836735 320.4 
L 703.836735 43.2 
L 476.081633 43.2 
L 476.081633 320.4 
z
" style="fill: none"/>
   </g>
   <g id="matplotlib.axis_3">
    <g id="xtick_6">
     <g id="line2d_12">
      <g>
       <use xlink:href="#m302175d0ea" x="482.780312" y="320.4" style="stroke: #000000; stroke-width: 0.8"/>
      </g>
     </g>
     <g id="text_13">
      <!-- 0 -->
      <g transform="translate(472.854812 351.107125) scale(0.312 -0.312)">
       <use xlink:href="#DejaVuSans-30"/>
      </g>
     </g>
    </g>
    <g id="xtick_7">
     <g id="line2d_13">
      <g>
       <use xlink:href="#m302175d0ea" x="536.369748" y="320.4" style="stroke: #000000; stroke-width: 0.8"/>
      </g>
     </g>
     <g id="text_14">
      <!-- 2 -->
      <g transform="translate(526.444248 351.107125) scale(0.312 -0.312)">
       <use xlink:href="#DejaVuSans-32"/>
      </g>
     </g>
    </g>
    <g id="xtick_8">
     <g id="line2d_14">
      <g>
       <use xlink:href="#m302175d0ea" x="589.959184" y="320.4" style="stroke: #000000; stroke-width: 0.8"/>
      </g>
     </g>
     <g id="text_15">
      <!-- 4 -->
      <g transform="translate(580.033684 351.107125) scale(0.312 -0.312)">
       <use xlink:href="#DejaVuSans-34"/>
      </g>
     </g>
    </g>
    <g id="xtick_9">
     <g id="line2d_15">
      <g>
       <use xlink:href="#m302175d0ea" x="643.548619" y="320.4" style="stroke: #000000; stroke-width: 0.8"/>
      </g>
     </g>
     <g id="text_16">
      <!-- 6 -->
      <g transform="translate(633.623119 351.107125) scale(0.312 -0.312)">
       <use xlink:href="#DejaVuSans-36"/>
      </g>
     </g>
    </g>
    <g id="xtick_10">
     <g id="line2d_16">
      <g>
       <use xlink:href="#m302175d0ea" x="697.138055" y="320.4" style="stroke: #000000; stroke-width: 0.8"/>
      </g>
     </g>
     <g id="text_17">
      <!-- 8 -->
      <g transform="translate(687.212555 351.107125) scale(0.312 -0.312)">
       <use xlink:href="#DejaVuSans-38"/>
      </g>
     </g>
    </g>
    <g id="text_18">
     <!-- Time (d) -->
     <g transform="translate(537.272621 382.415656) scale(0.286 -0.286)">
      <use xlink:href="#ArialMT-54"/>
      <use xlink:href="#ArialMT-69" transform="translate(57.333984 0)"/>
      <use xlink:href="#ArialMT-6d" transform="translate(79.550781 0)"/>
      <use xlink:href="#ArialMT-65" transform="translate(162.851562 0)"/>
      <use xlink:href="#ArialMT-20" transform="translate(218.466797 0)"/>
      <use xlink:href="#ArialMT-28" transform="translate(246.25 0)"/>
      <use xlink:href="#ArialMT-64" transform="translate(279.550781 0)"/>
      <use xlink:href="#ArialMT-29" transform="translate(335.166016 0)"/>
     </g>
    </g>
   </g>
   <g id="matplotlib.axis_4">
    <g id="ytick_6">
     <g id="line2d_17">
      <g>
       <use xlink:href="#m3d6404a642" x="476.081633" y="258.8" style="stroke: #000000; stroke-width: 0.8"/>
      </g>
     </g>
     <g id="text_19">
      <!-- 4 -->
      <g transform="translate(449.230633 270.653562) scale(0.312 -0.312)">
       <use xlink:href="#DejaVuSans-34"/>
      </g>
     </g>
    </g>
    <g id="ytick_7">
     <g id="line2d_18">
      <g>
       <use xlink:href="#m3d6404a642" x="476.081633" y="135.6" style="stroke: #000000; stroke-width: 0.8"/>
      </g>
     </g>
     <g id="text_20">
      <!-- 6 -->
      <g transform="translate(449.230633 147.453563) scale(0.312 -0.312)">
       <use xlink:href="#DejaVuSans-36"/>
      </g>
     </g>
    </g>
    <g id="text_21">
     <!-- Log$_{10}$ CD8$^+$ T cells -->
     <g transform="translate(438.938633 309.642) rotate(-90) scale(0.286 -0.286)">
      <defs>
       <path id="ArialMT-43" d="M 3763 1606 
L 4369 1453 
Q 4178 706 3683 314 
Q 3188 -78 2472 -78 
Q 1731 -78 1267 223 
Q 803 525 561 1097 
Q 319 1669 319 2325 
Q 319 3041 592 3573 
Q 866 4106 1370 4382 
Q 1875 4659 2481 4659 
Q 3169 4659 3637 4309 
Q 4106 3959 4291 3325 
L 3694 3184 
Q 3534 3684 3231 3912 
Q 2928 4141 2469 4141 
Q 1941 4141 1586 3887 
Q 1231 3634 1087 3207 
Q 944 2781 944 2328 
Q 944 1744 1114 1308 
Q 1284 872 1643 656 
Q 2003 441 2422 441 
Q 2931 441 3284 734 
Q 3638 1028 3763 1606 
z
" transform="scale(0.015625)"/>
       <path id="ArialMT-44" d="M 494 0 
L 494 4581 
L 2072 4581 
Q 2606 4581 2888 4516 
Q 3281 4425 3559 4188 
Q 3922 3881 4101 3404 
Q 4281 2928 4281 2316 
Q 4281 1794 4159 1391 
Q 4038 988 3847 723 
Q 3656 459 3429 307 
Q 3203 156 2883 78 
Q 2563 0 2147 0 
L 494 0 
z
M 1100 541 
L 2078 541 
Q 2531 541 2789 625 
Q 3047 709 3200 863 
Q 3416 1078 3536 1442 
Q 3656 1806 3656 2325 
Q 3656 3044 3420 3430 
Q 3184 3816 2847 3947 
Q 2603 4041 2063 4041 
L 1100 4041 
L 1100 541 
z
" transform="scale(0.015625)"/>
       <path id="ArialMT-38" d="M 1131 2484 
Q 781 2613 612 2850 
Q 444 3088 444 3419 
Q 444 3919 803 4259 
Q 1163 4600 1759 4600 
Q 2359 4600 2725 4251 
Q 3091 3903 3091 3403 
Q 3091 3084 2923 2848 
Q 2756 2613 2416 2484 
Q 2838 2347 3058 2040 
Q 3278 1734 3278 1309 
Q 3278 722 2862 322 
Q 2447 -78 1769 -78 
Q 1091 -78 675 323 
Q 259 725 259 1325 
Q 259 1772 486 2073 
Q 713 2375 1131 2484 
z
M 1019 3438 
Q 1019 3113 1228 2906 
Q 1438 2700 1772 2700 
Q 2097 2700 2305 2904 
Q 2513 3109 2513 3406 
Q 2513 3716 2298 3927 
Q 2084 4138 1766 4138 
Q 1444 4138 1231 3931 
Q 1019 3725 1019 3438 
z
M 838 1322 
Q 838 1081 952 856 
Q 1066 631 1291 507 
Q 1516 384 1775 384 
Q 2178 384 2440 643 
Q 2703 903 2703 1303 
Q 2703 1709 2433 1975 
Q 2163 2241 1756 2241 
Q 1359 2241 1098 1978 
Q 838 1716 838 1322 
z
" transform="scale(0.015625)"/>
       <path id="DejaVuSans-2b" d="M 2944 4013 
L 2944 2272 
L 4684 2272 
L 4684 1741 
L 2944 1741 
L 2944 0 
L 2419 0 
L 2419 1741 
L 678 1741 
L 678 2272 
L 2419 2272 
L 2419 4013 
L 2944 4013 
z
" transform="scale(0.015625)"/>
       <path id="ArialMT-6c" d="M 409 0 
L 409 4581 
L 972 4581 
L 972 0 
L 409 0 
z
" transform="scale(0.015625)"/>
      </defs>
      <use xlink:href="#ArialMT-4c" transform="translate(0 0.826562)"/>
      <use xlink:href="#ArialMT-6f" transform="translate(55.615234 0.826562)"/>
      <use xlink:href="#ArialMT-67" transform="translate(111.230469 0.826562)"/>
      <use xlink:href="#DejaVuSans-31" transform="translate(167.802734 -15.579688) scale(0.7)"/>
      <use xlink:href="#DejaVuSans-30" transform="translate(212.338867 -15.579688) scale(0.7)"/>
      <use xlink:href="#ArialMT-20" transform="translate(259.609375 0.826562)"/>
      <use xlink:href="#ArialMT-43" transform="translate(287.392578 0.826562)"/>
      <use xlink:href="#ArialMT-44" transform="translate(359.609375 0.826562)"/>
      <use xlink:href="#ArialMT-38" transform="translate(431.826172 0.826562)"/>
      <use xlink:href="#DejaVuSans-2b" transform="translate(502.036133 39.107812) scale(0.7)"/>
      <use xlink:href="#ArialMT-20" transform="translate(577.060547 0.826562)"/>
      <use xlink:href="#ArialMT-54" transform="translate(604.84375 0.826562)"/>
      <use xlink:href="#ArialMT-20" transform="translate(665.927734 0.826562)"/>
      <use xlink:href="#ArialMT-63" transform="translate(693.710938 0.826562)"/>
      <use xlink:href="#ArialMT-65" transform="translate(743.710938 0.826562)"/>
      <use xlink:href="#ArialMT-6c" transform="translate(799.326172 0.826562)"/>
      <use xlink:href="#ArialMT-6c" transform="translate(821.542969 0.826562)"/>
      <use xlink:href="#ArialMT-73" transform="translate(843.759766 0.826562)"/>
     </g>
    </g>
   </g>
   <g id="patch_8">
    <path d="M 476.081633 320.4 
L 476.081633 43.2 
" style="fill: none; stroke: #000000; stroke-width: 0.8; stroke-linejoin: miter; stroke-linecap: square"/>
   </g>
   <g id="patch_9">
    <path d="M 703.836735 320.4 
L 703.836735 43.2 
" style="fill: none; stroke: #000000; stroke-width: 0.8; stroke-linejoin: miter; stroke-linecap: square"/>
   </g>
   <g id="patch_10">
    <path d="M 476.081633 320.4 
L 703.836735 320.4 
" style="fill: none; stroke: #000000; stroke-width: 0.8; stroke-linejoin: miter; stroke-linecap: square"/>
   </g>
   <g id="patch_11">
    <path d="M 476.081633 43.2 
L 703.836735 43.2 
" style="fill: none; stroke: #000000; stroke-width: 0.8; stroke-linejoin: miter; stroke-linecap: square"/>
   </g>
   <g id="FillBetweenPolyCollection_2">
    <defs>
     <path id="mfb217a9fe8" d="M 482.780312 -163.63984 
L 482.780312 -163.63984 
L 482.780765 -163.63984 
L 482.78529 -163.63984 
L 482.830548 -163.63984 
L 482.952437 -163.63984 
L 483.079179 -163.63984 
L 483.417122 -163.63984 
L 483.806864 -163.63984 
L 484.638804 -163.63984 
L 485.285516 -163.63984 
L 486.584606 -163.63984 
L 487.370516 -163.63984 
L 488.814378 -163.63984 
L 489.660923 -163.63984 
L 491.040986 -163.63984 
L 491.945687 -163.63984 
L 493.335629 -163.63984 
L 494.278081 -163.63984 
L 495.649932 -163.63984 
L 496.62094 -163.63984 
L 498.123617 -163.63984 
L 499.07411 -163.63984 
L 500.372959 -163.63984 
L 501.358613 -163.63984 
L 502.768676 -163.639841 
L 503.744306 -163.639841 
L 505.048045 -163.639841 
L 506.04277 -163.639842 
L 507.438882 -163.639843 
L 508.419009 -163.639844 
L 509.718887 -163.639848 
L 510.717978 -163.639851 
L 512.113514 -163.639861 
L 513.111224 -163.639871 
L 514.612226 -163.639898 
L 515.60341 -163.639925 
L 516.968394 -163.639988 
L 518.001243 -163.64006 
L 519.48626 -163.640243 
L 520.536094 -163.64044 
L 522.008802 -163.64094 
L 523.096083 -163.641478 
L 524.51105 -163.642611 
L 525.496559 -163.643762 
L 526.721703 -163.646046 
L 527.686278 -163.648613 
L 528.693211 -163.652568 
L 529.504145 -163.656392 
L 530.249604 -163.661608 
L 530.890265 -163.667181 
L 531.532262 -163.673839 
L 532.05126 -163.680742 
L 532.502104 -163.687695 
L 532.959553 -163.694924 
L 533.337869 -163.703308 
L 534.335037 -163.728535 
L 534.824459 -163.743678 
L 535.925326 -163.788072 
L 536.515801 -163.818715 
L 537.765156 -163.905072 
L 538.533157 -163.975787 
L 540.385436 -164.221583 
L 541.554756 -164.444778 
L 544.205965 -165.249816 
L 545.582616 -165.898416 
L 548.262088 -167.712541 
L 549.820552 -169.042182 
L 552.500024 -172.208545 
L 554.238495 -174.564905 
L 556.852108 -178.608791 
L 559.465722 -182.823849 
L 562.119151 -187.223064 
L 564.798622 -191.59682 
L 567.478094 -195.755288 
L 570.157566 -199.601502 
L 572.837038 -203.0803 
L 575.51651 -206.167807 
L 578.195981 -208.387348 
L 580.875453 -210.057459 
L 583.554925 -211.393205 
L 586.234397 -212.428076 
L 588.913869 -213.195819 
L 591.59334 -213.729243 
L 594.272812 -214.059441 
L 596.952284 -214.215296 
L 599.631756 -214.223198 
L 602.311228 -214.106892 
L 604.990699 -213.73494 
L 607.670171 -213.270954 
L 610.349643 -212.783584 
L 613.029115 -212.279422 
L 615.708586 -211.763503 
L 618.388058 -211.239629 
L 621.06753 -210.710645 
L 623.747002 -210.178661 
L 626.426474 -209.645229 
L 629.105945 -208.89246 
L 631.785417 -207.998756 
L 634.464889 -207.102787 
L 637.144361 -206.207168 
L 639.823833 -205.313957 
L 642.503304 -204.424774 
L 645.182776 -203.540895 
L 647.862248 -202.663326 
L 650.54172 -201.792869 
L 653.221191 -200.930171 
L 655.900663 -200.075757 
L 658.580135 -199.230063 
L 661.259607 -198.393458 
L 663.939079 -197.566261 
L 666.61855 -196.748748 
L 669.298022 -195.941171 
L 670.637758 -195.532126 
L 670.905705 -195.437535 
L 671.001508 -195.403715 
L 671.11906 -195.362216 
L 671.146292 -195.352603 
L 671.250566 -195.315792 
L 671.29619 -195.299686 
L 671.319541 -195.291443 
L 671.404459 -195.261465 
L 671.448307 -195.245986 
L 671.478834 -195.235209 
L 671.596659 -195.193614 
L 671.674475 -195.166144 
L 671.890228 -195.089979 
L 672.014062 -195.046263 
L 672.302129 -194.945158 
L 672.494104 -194.877847 
L 673.077701 -194.673724 
L 673.661298 -194.470238 
L 675.164052 -193.949726 
L 677.214981 -193.247462 
L 679.460269 -192.488259 
L 682.139741 -191.596975 
L 684.819213 -190.721212 
L 687.498684 -189.8615 
L 690.178156 -189.018059 
L 692.857628 -188.19109 
L 695.5371 -187.380546 
L 697.138055 -186.903987 
L 697.138055 -207.930629 
L 697.138055 -207.930629 
L 695.5371 -208.234895 
L 692.857628 -208.745831 
L 690.178156 -209.258993 
L 687.498684 -209.774347 
L 684.819213 -210.291857 
L 682.139741 -210.81149 
L 679.460269 -211.333188 
L 677.214981 -211.772046 
L 675.164052 -212.173949 
L 673.661298 -212.469225 
L 673.077701 -212.584061 
L 672.494104 -212.699001 
L 672.302129 -212.73683 
L 672.014062 -212.793612 
L 671.890228 -212.818029 
L 671.674475 -212.86058 
L 671.596659 -212.875929 
L 671.478834 -212.899175 
L 671.448307 -212.905198 
L 671.404459 -212.913849 
L 671.319541 -212.930607 
L 671.29619 -212.935216 
L 671.250566 -212.944221 
L 671.146292 -212.964801 
L 671.11906 -212.970176 
L 671.001508 -212.993382 
L 670.905705 -213.012297 
L 670.637758 -213.065215 
L 669.298022 -213.330088 
L 666.61855 -213.861236 
L 663.939079 -214.394203 
L 661.259607 -214.928918 
L 658.580135 -215.465294 
L 655.900663 -216.003222 
L 653.221191 -216.542564 
L 650.54172 -217.083137 
L 647.862248 -217.624703 
L 645.182776 -218.166945 
L 642.503304 -218.709442 
L 639.823833 -219.251634 
L 637.144361 -219.792775 
L 634.464889 -220.331878 
L 631.785417 -220.86764 
L 629.105945 -221.398353 
L 626.426474 -221.921795 
L 623.747002 -222.435097 
L 621.06753 -222.934583 
L 618.388058 -223.415595 
L 615.708586 -223.872285 
L 613.029115 -224.339032 
L 610.349643 -224.744207 
L 607.670171 -225.061108 
L 604.990699 -225.284094 
L 602.311228 -225.473186 
L 599.631756 -225.564419 
L 596.952284 -225.536879 
L 594.272812 -225.36666 
L 591.59334 -225.026774 
L 588.913869 -224.487136 
L 586.234397 -223.71465 
L 583.554925 -222.673422 
L 580.875453 -221.325166 
L 578.195981 -220.39654 
L 575.51651 -219.455239 
L 572.837038 -218.132229 
L 570.157566 -216.367423 
L 567.478094 -214.099899 
L 564.798622 -211.271866 
L 562.119151 -207.835217 
L 559.465722 -203.843338 
L 556.852108 -199.253541 
L 554.238495 -194.149587 
L 552.500024 -190.51179 
L 549.820552 -184.76835 
L 548.262088 -181.44034 
L 545.582616 -176.134378 
L 544.205965 -173.622777 
L 541.554756 -169.743197 
L 540.385436 -168.282105 
L 538.533157 -166.624831 
L 537.765156 -166.067037 
L 536.515801 -165.357635 
L 535.925326 -165.09535 
L 534.824459 -164.6813 
L 534.335037 -164.534322 
L 533.337869 -164.291762 
L 532.959553 -164.215882 
L 532.502104 -164.134453 
L 532.05126 -164.065925 
L 531.532262 -163.997681 
L 530.890265 -163.926939 
L 530.249604 -163.869804 
L 529.504145 -163.816572 
L 528.693211 -163.771947 
L 527.686278 -163.731542 
L 526.721703 -163.703211 
L 525.496559 -163.679741 
L 524.51105 -163.667274 
L 523.096083 -163.655791 
L 522.008802 -163.650414 
L 520.536094 -163.645667 
L 519.48626 -163.643718 
L 518.001243 -163.641996 
L 516.968394 -163.641279 
L 515.60341 -163.640677 
L 514.612226 -163.640406 
L 513.111224 -163.64015 
L 512.113514 -163.640048 
L 510.717978 -163.639958 
L 509.718887 -163.639918 
L 508.419009 -163.639886 
L 507.438882 -163.63987 
L 506.04277 -163.639856 
L 505.048045 -163.63985 
L 503.744306 -163.639846 
L 502.768676 -163.639844 
L 501.358613 -163.639842 
L 500.372959 -163.639841 
L 499.07411 -163.639841 
L 498.123617 -163.639841 
L 496.62094 -163.63984 
L 495.649932 -163.63984 
L 494.278081 -163.63984 
L 493.335629 -163.63984 
L 491.945687 -163.63984 
L 491.040986 -163.63984 
L 489.660923 -163.63984 
L 488.814378 -163.63984 
L 487.370516 -163.63984 
L 486.584606 -163.63984 
L 485.285516 -163.63984 
L 484.638804 -163.63984 
L 483.806864 -163.63984 
L 483.417122 -163.63984 
L 483.079179 -163.63984 
L 482.952437 -163.63984 
L 482.830548 -163.63984 
L 482.78529 -163.63984 
L 482.780765 -163.63984 
L 482.780312 -163.63984 
z
" style="stroke: #808080; stroke-opacity: 0.2"/>
    </defs>
    <g clip-path="url(#pac240d363b)">
     <use xlink:href="#mfb217a9fe8" x="0" y="360" style="fill: #808080; fill-opacity: 0.2; stroke: #808080; stroke-opacity: 0.2"/>
    </g>
   </g>
   <g id="FillBetweenPolyCollection_3">
    <defs>
     <path id="ma2bf73d1e2" d="M 482.780312 -130.936211 
L 482.780312 -130.936211 
L 482.780765 -130.936211 
L 482.78529 -130.936211 
L 482.830548 -130.936211 
L 482.952437 -130.936211 
L 483.079179 -130.936211 
L 483.417122 -130.936211 
L 483.806864 -130.936211 
L 484.638804 -130.936211 
L 485.285516 -130.936211 
L 486.584606 -130.936211 
L 487.370516 -130.936211 
L 488.814378 -130.936211 
L 489.660923 -130.936211 
L 491.040986 -130.936211 
L 491.945687 -130.936211 
L 493.335629 -130.936211 
L 494.278081 -130.936211 
L 495.649932 -130.936211 
L 496.62094 -130.936211 
L 498.123617 -130.936211 
L 499.07411 -130.936211 
L 500.372959 -130.936211 
L 501.358613 -130.936211 
L 502.768676 -130.936211 
L 503.744306 -130.936211 
L 505.048045 -130.936211 
L 506.04277 -130.936211 
L 507.438882 -130.936211 
L 508.419009 -130.936211 
L 509.718887 -130.936211 
L 510.717978 -130.936211 
L 512.113514 -130.936211 
L 513.111224 -130.936211 
L 514.612226 -130.936211 
L 515.60341 -130.936211 
L 516.968394 -130.936211 
L 518.001243 -130.936211 
L 519.48626 -130.936211 
L 520.536094 -130.936211 
L 522.008802 -130.936211 
L 523.096083 -130.936211 
L 524.51105 -130.936211 
L 525.496559 -130.936211 
L 526.721703 -130.936211 
L 527.686278 -130.936211 
L 528.693211 -130.936212 
L 529.504145 -130.936212 
L 530.249604 -130.936212 
L 530.890265 -130.936212 
L 531.532262 -130.936213 
L 532.05126 -130.936213 
L 532.502104 -130.936213 
L 532.959553 -130.936214 
L 533.337869 -130.936214 
L 534.335037 -130.936215 
L 534.824459 -130.936216 
L 535.925326 -130.936219 
L 536.515801 -130.936221 
L 537.765156 -130.936227 
L 538.533157 -130.936233 
L 540.385436 -130.936256 
L 541.554756 -130.936285 
L 544.205965 -130.936416 
L 545.582616 -130.936542 
L 548.262088 -130.937129 
L 549.820552 -130.93773 
L 552.500024 -130.940137 
L 554.238495 -130.942931 
L 556.852108 -130.951459 
L 559.465722 -130.966941 
L 562.119151 -130.99774 
L 564.798622 -131.053158 
L 567.478094 -131.141435 
L 570.157566 -131.276871 
L 572.837038 -131.472011 
L 575.51651 -131.739092 
L 578.195981 -132.087363 
L 580.875453 -132.52268 
L 583.554925 -133.046084 
L 586.234397 -133.65373 
L 588.913869 -134.337719 
L 591.59334 -135.08694 
L 594.272812 -135.888285 
L 596.952284 -136.545454 
L 599.631756 -137.1563 
L 602.311228 -137.76164 
L 604.990699 -138.357091 
L 607.670171 -138.939296 
L 610.349643 -139.505813 
L 613.029115 -140.054977 
L 615.708586 -140.585763 
L 618.388058 -141.097653 
L 621.06753 -141.590524 
L 623.747002 -142.064546 
L 626.426474 -142.520098 
L 629.105945 -142.957705 
L 631.785417 -143.377986 
L 634.464889 -143.781618 
L 637.144361 -144.169299 
L 639.823833 -144.541736 
L 642.503304 -144.899627 
L 645.182776 -145.243649 
L 647.862248 -145.574458 
L 650.54172 -145.892677 
L 653.221191 -146.1989 
L 655.900663 -146.493692 
L 658.580135 -146.777586 
L 661.259607 -147.051083 
L 663.939079 -147.314662 
L 666.61855 -147.568773 
L 669.298022 -147.814281 
L 670.637758 -147.933772 
L 670.905705 -147.957326 
L 671.001508 -147.965748 
L 671.11906 -147.976081 
L 671.146292 -147.978475 
L 671.250566 -147.987612 
L 671.29619 -147.991603 
L 671.319541 -147.993645 
L 671.404459 -148.001065 
L 671.448307 -148.004894 
L 671.478834 -148.007554 
L 671.596659 -148.017823 
L 671.674475 -148.024599 
L 671.890228 -148.043343 
L 672.014062 -148.054073 
L 672.302129 -148.078964 
L 672.494104 -148.095518 
L 673.077701 -148.145539 
L 673.661298 -148.195104 
L 675.164052 -148.320786 
L 677.214981 -148.489088 
L 679.460269 -148.667458 
L 682.139741 -148.874829 
L 684.819213 -149.074531 
L 687.498684 -149.2676 
L 690.178156 -149.454205 
L 692.857628 -149.634599 
L 695.5371 -149.809032 
L 697.138055 -149.910823 
L 697.138055 -173.022434 
L 697.138055 -173.022434 
L 695.5371 -172.864768 
L 692.857628 -172.592294 
L 690.178156 -172.30817 
L 687.498684 -172.011556 
L 684.819213 -171.701745 
L 682.139741 -171.378004 
L 679.460269 -171.039533 
L 677.214981 -170.744571 
L 675.164052 -170.464619 
L 673.661298 -170.253137 
L 673.077701 -170.169635 
L 672.494104 -170.085153 
L 672.302129 -170.057185 
L 672.014062 -170.015031 
L 671.890228 -169.996847 
L 671.674475 -169.965066 
L 671.596659 -169.953576 
L 671.478834 -169.936143 
L 671.448307 -169.931616 
L 671.404459 -169.925114 
L 671.319541 -169.912523 
L 671.29619 -169.909016 
L 671.250566 -169.902159 
L 671.146292 -169.88649 
L 671.11906 -169.882398 
L 671.001508 -169.864733 
L 670.905705 -169.850336 
L 670.637758 -169.81007 
L 669.298022 -169.606403 
L 666.61855 -169.184058 
L 663.939079 -168.740866 
L 661.259607 -168.275451 
L 658.580135 -167.786312 
L 655.900663 -167.271817 
L 653.221191 -166.730191 
L 650.54172 -166.159501 
L 647.862248 -165.557646 
L 645.182776 -164.922343 
L 642.503304 -164.251125 
L 639.823833 -163.541326 
L 637.144361 -162.790089 
L 634.464889 -161.994371 
L 631.785417 -161.150964 
L 629.105945 -160.256532 
L 626.426474 -159.30767 
L 623.747002 -158.300992 
L 621.06753 -157.233257 
L 618.388058 -156.101544 
L 615.708586 -154.903485 
L 613.029115 -153.637567 
L 610.349643 -152.30351 
L 607.670171 -150.90274 
L 604.990699 -149.548753 
L 602.311228 -148.295331 
L 599.631756 -146.986405 
L 596.952284 -145.702242 
L 594.272812 -144.503456 
L 591.59334 -143.265686 
L 588.913869 -141.998561 
L 586.234397 -140.715447 
L 583.554925 -139.43373 
L 580.875453 -138.17468 
L 578.195981 -136.962729 
L 575.51651 -135.823991 
L 572.837038 -134.78402 
L 570.157566 -133.864999 
L 567.478094 -133.082793 
L 564.798622 -132.444508 
L 562.119151 -131.947347 
L 559.465722 -131.581518 
L 556.852108 -131.338847 
L 554.238495 -131.170999 
L 552.500024 -131.096308 
L 549.820552 -131.018416 
L 548.262088 -130.990869 
L 545.582616 -130.960978 
L 544.205965 -130.952612 
L 541.554756 -130.942897 
L 540.385436 -130.940727 
L 538.533157 -130.93847 
L 537.765156 -130.937934 
L 536.515801 -130.93727 
L 535.925326 -130.937069 
L 534.824459 -130.936764 
L 534.335037 -130.936674 
L 533.337869 -130.936521 
L 532.959553 -130.936479 
L 532.502104 -130.936435 
L 532.05126 -130.936399 
L 531.532262 -130.936365 
L 530.890265 -130.936331 
L 530.249604 -130.936304 
L 529.504145 -130.936281 
L 528.693211 -130.936262 
L 527.686278 -130.936245 
L 526.721703 -130.936234 
L 525.496559 -130.936225 
L 524.51105 -130.936221 
L 523.096083 -130.936217 
L 522.008802 -130.936215 
L 520.536094 -130.936213 
L 519.48626 -130.936212 
L 518.001243 -130.936212 
L 516.968394 -130.936212 
L 515.60341 -130.936211 
L 514.612226 -130.936211 
L 513.111224 -130.936211 
L 512.113514 -130.936211 
L 510.717978 -130.936211 
L 509.718887 -130.936211 
L 508.419009 -130.936211 
L 507.438882 -130.936211 
L 506.04277 -130.936211 
L 505.048045 -130.936211 
L 503.744306 -130.936211 
L 502.768676 -130.936211 
L 501.358613 -130.936211 
L 500.372959 -130.936211 
L 499.07411 -130.936211 
L 498.123617 -130.936211 
L 496.62094 -130.936211 
L 495.649932 -130.936211 
L 494.278081 -130.936211 
L 493.335629 -130.936211 
L 491.945687 -130.936211 
L 491.040986 -130.936211 
L 489.660923 -130.936211 
L 488.814378 -130.936211 
L 487.370516 -130.936211 
L 486.584606 -130.936211 
L 485.285516 -130.936211 
L 484.638804 -130.936211 
L 483.806864 -130.936211 
L 483.417122 -130.936211 
L 483.079179 -130.936211 
L 482.952437 -130.936211 
L 482.830548 -130.936211 
L 482.78529 -130.936211 
L 482.780765 -130.936211 
L 482.780312 -130.936211 
z
" style="stroke: #808080; stroke-opacity: 0.2"/>
    </defs>
    <g clip-path="url(#pac240d363b)">
     <use xlink:href="#ma2bf73d1e2" x="0" y="360" style="fill: #808080; fill-opacity: 0.2; stroke: #808080; stroke-opacity: 0.2"/>
    </g>
   </g>
   <g id="PathCollection_2">
    <g clip-path="url(#pac240d363b)">
     <use xlink:href="#mb98a4f1972" x="482.780312" y="196.36016" style="fill-opacity: 0.8; stroke: #000000; stroke-opacity: 0.8"/>
     <use xlink:href="#mb98a4f1972" x="509.57503" y="160.498268" style="fill-opacity: 0.8; stroke: #000000; stroke-opacity: 0.8"/>
     <use xlink:href="#mb98a4f1972" x="536.369748" y="168.700549" style="fill-opacity: 0.8; stroke: #000000; stroke-opacity: 0.8"/>
     <use xlink:href="#mb98a4f1972" x="563.164466" y="171.212196" style="fill-opacity: 0.8; stroke: #000000; stroke-opacity: 0.8"/>
     <use xlink:href="#mb98a4f1972" x="589.959184" y="139.224936" style="fill-opacity: 0.8; stroke: #000000; stroke-opacity: 0.8"/>
     <use xlink:href="#mb98a4f1972" x="616.753902" y="131.832923" style="fill-opacity: 0.8; stroke: #000000; stroke-opacity: 0.8"/>
     <use xlink:href="#mb98a4f1972" x="643.548619" y="140.694994" style="fill-opacity: 0.8; stroke: #000000; stroke-opacity: 0.8"/>
     <use xlink:href="#mb98a4f1972" x="670.343337" y="168.375962" style="fill-opacity: 0.8; stroke: #000000; stroke-opacity: 0.8"/>
    </g>
   </g>
   <g id="PathCollection_3">
    <defs>
     <path id="m0b4cc74583" d="M -7.071068 7.071068 
L 7.071068 7.071068 
L 7.071068 -7.071068 
L -7.071068 -7.071068 
z
" style="stroke: #000000; stroke-opacity: 0.8"/>
    </defs>
    <g clip-path="url(#pac240d363b)">
     <use xlink:href="#m0b4cc74583" x="482.780312" y="229.063268" style="fill-opacity: 0.8; stroke: #000000; stroke-opacity: 0.8"/>
     <use xlink:href="#m0b4cc74583" x="509.57503" y="222.646104" style="fill-opacity: 0.8; stroke: #000000; stroke-opacity: 0.8"/>
     <use xlink:href="#m0b4cc74583" x="536.369748" y="221.400307" style="fill-opacity: 0.8; stroke: #000000; stroke-opacity: 0.8"/>
     <use xlink:href="#m0b4cc74583" x="563.164466" y="217.978231" style="fill-opacity: 0.8; stroke: #000000; stroke-opacity: 0.8"/>
     <use xlink:href="#m0b4cc74583" x="589.959184" y="210.85568" style="fill-opacity: 0.8; stroke: #000000; stroke-opacity: 0.8"/>
     <use xlink:href="#m0b4cc74583" x="616.753902" y="210.712573" style="fill-opacity: 0.8; stroke: #000000; stroke-opacity: 0.8"/>
     <use xlink:href="#m0b4cc74583" x="643.548619" y="208.802464" style="fill-opacity: 0.8; stroke: #000000; stroke-opacity: 0.8"/>
     <use xlink:href="#m0b4cc74583" x="670.343337" y="207.553862" style="fill-opacity: 0.8; stroke: #000000; stroke-opacity: 0.8"/>
    </g>
   </g>
   <g id="line2d_19">
    <path d="M 482.780312 196.36016 
L 530.249604 196.269998 
L 533.337869 196.094526 
L 535.925326 195.748053 
L 537.765156 195.303148 
L 538.533157 195.049292 
L 540.385436 194.221326 
L 541.554756 193.51769 
L 544.205965 191.287485 
L 545.582616 189.765974 
L 548.262088 186.092011 
L 549.820552 183.588185 
L 554.238495 175.588942 
L 559.465722 165.931919 
L 562.119151 161.456937 
L 564.798622 157.384899 
L 567.478094 153.806194 
L 570.157566 150.727362 
L 572.837038 148.130939 
L 575.51651 145.985381 
L 578.195981 144.251647 
L 580.875453 142.887469 
L 583.554925 141.850074 
L 586.234397 141.097909 
L 588.913869 140.591724 
L 591.59334 140.295225 
L 594.272812 140.175444 
L 596.952284 140.202907 
L 602.311228 140.599138 
L 607.670171 141.316115 
L 615.708586 142.740958 
L 626.426474 144.938411 
L 677.214981 155.648218 
L 697.138055 159.593213 
L 697.138055 159.593213 
" clip-path="url(#pac240d363b)" style="fill: none; stroke: #808080; stroke-width: 3; stroke-linecap: square"/>
   </g>
   <g id="line2d_20">
    <path d="M 482.780312 229.063789 
L 552.500024 228.978578 
L 556.852108 228.837409 
L 562.119151 228.468655 
L 567.478094 227.762316 
L 572.837038 226.65344 
L 578.195981 225.158023 
L 583.554925 223.3702 
L 607.670171 214.806037 
L 615.708586 212.427493 
L 623.747002 210.35546 
L 631.785417 208.554337 
L 639.823833 206.983361 
L 647.862248 205.605703 
L 658.580135 204.017446 
L 671.001508 202.465018 
L 682.139741 201.28483 
L 697.138055 199.94829 
L 697.138055 199.94829 
" clip-path="url(#pac240d363b)" style="fill: none; stroke-dasharray: 11.1,4.8; stroke-dashoffset: 0; stroke: #808080; stroke-width: 3"/>
   </g>
  </g>
  <g id="text_22">
   <!-- Individual 103 -->
   <g transform="translate(335.733375 29.532375) scale(0.312 -0.312)">
    <defs>
     <path id="ArialMT-49" d="M 597 0 
L 597 4581 
L 1203 4581 
L 1203 0 
L 597 0 
z
" transform="scale(0.015625)"/>
     <path id="ArialMT-6e" d="M 422 0 
L 422 3319 
L 928 3319 
L 928 2847 
Q 1294 3394 1984 3394 
Q 2284 3394 2536 3286 
Q 2788 3178 2913 3003 
Q 3038 2828 3088 2588 
Q 3119 2431 3119 2041 
L 3119 0 
L 2556 0 
L 2556 2019 
Q 2556 2363 2490 2533 
Q 2425 2703 2258 2804 
Q 2091 2906 1866 2906 
Q 1506 2906 1245 2678 
Q 984 2450 984 1813 
L 984 0 
L 422 0 
z
" transform="scale(0.015625)"/>
     <path id="ArialMT-76" d="M 1344 0 
L 81 3319 
L 675 3319 
L 1388 1331 
Q 1503 1009 1600 663 
Q 1675 925 1809 1294 
L 2547 3319 
L 3125 3319 
L 1869 0 
L 1344 0 
z
" transform="scale(0.015625)"/>
     <path id="ArialMT-61" d="M 2588 409 
Q 2275 144 1986 34 
Q 1697 -75 1366 -75 
Q 819 -75 525 192 
Q 231 459 231 875 
Q 231 1119 342 1320 
Q 453 1522 633 1644 
Q 813 1766 1038 1828 
Q 1203 1872 1538 1913 
Q 2219 1994 2541 2106 
Q 2544 2222 2544 2253 
Q 2544 2597 2384 2738 
Q 2169 2928 1744 2928 
Q 1347 2928 1158 2789 
Q 969 2650 878 2297 
L 328 2372 
Q 403 2725 575 2942 
Q 747 3159 1072 3276 
Q 1397 3394 1825 3394 
Q 2250 3394 2515 3294 
Q 2781 3194 2906 3042 
Q 3031 2891 3081 2659 
Q 3109 2516 3109 2141 
L 3109 1391 
Q 3109 606 3145 398 
Q 3181 191 3288 0 
L 2700 0 
Q 2613 175 2588 409 
z
M 2541 1666 
Q 2234 1541 1622 1453 
Q 1275 1403 1131 1340 
Q 988 1278 909 1158 
Q 831 1038 831 891 
Q 831 666 1001 516 
Q 1172 366 1500 366 
Q 1825 366 2078 508 
Q 2331 650 2450 897 
Q 2541 1088 2541 1459 
L 2541 1666 
z
" transform="scale(0.015625)"/>
     <path id="ArialMT-31" d="M 2384 0 
L 1822 0 
L 1822 3584 
Q 1619 3391 1289 3197 
Q 959 3003 697 2906 
L 697 3450 
Q 1169 3672 1522 3987 
Q 1875 4303 2022 4600 
L 2384 4600 
L 2384 0 
z
" transform="scale(0.015625)"/>
     <path id="ArialMT-30" d="M 266 2259 
Q 266 3072 433 3567 
Q 600 4063 929 4331 
Q 1259 4600 1759 4600 
Q 2128 4600 2406 4451 
Q 2684 4303 2865 4023 
Q 3047 3744 3150 3342 
Q 3253 2941 3253 2259 
Q 3253 1453 3087 958 
Q 2922 463 2592 192 
Q 2263 -78 1759 -78 
Q 1097 -78 719 397 
Q 266 969 266 2259 
z
M 844 2259 
Q 844 1131 1108 757 
Q 1372 384 1759 384 
Q 2147 384 2411 759 
Q 2675 1134 2675 2259 
Q 2675 3391 2411 3762 
Q 2147 4134 1753 4134 
Q 1366 4134 1134 3806 
Q 844 3388 844 2259 
z
" transform="scale(0.015625)"/>
     <path id="ArialMT-33" d="M 269 1209 
L 831 1284 
Q 928 806 1161 595 
Q 1394 384 1728 384 
Q 2125 384 2398 659 
Q 2672 934 2672 1341 
Q 2672 1728 2419 1979 
Q 2166 2231 1775 2231 
Q 1616 2231 1378 2169 
L 1441 2663 
Q 1497 2656 1531 2656 
Q 1891 2656 2178 2843 
Q 2466 3031 2466 3422 
Q 2466 3731 2256 3934 
Q 2047 4138 1716 4138 
Q 1388 4138 1169 3931 
Q 950 3725 888 3313 
L 325 3413 
Q 428 3978 793 4289 
Q 1159 4600 1703 4600 
Q 2078 4600 2393 4439 
Q 2709 4278 2876 4000 
Q 3044 3722 3044 3409 
Q 3044 3113 2884 2869 
Q 2725 2625 2413 2481 
Q 2819 2388 3044 2092 
Q 3269 1797 3269 1353 
Q 3269 753 2831 336 
Q 2394 -81 1725 -81 
Q 1122 -81 723 278 
Q 325 638 269 1209 
z
" transform="scale(0.015625)"/>
    </defs>
    <use xlink:href="#ArialMT-49"/>
    <use xlink:href="#ArialMT-6e" transform="translate(27.783203 0)"/>
    <use xlink:href="#ArialMT-64" transform="translate(83.398438 0)"/>
    <use xlink:href="#ArialMT-69" transform="translate(139.013672 0)"/>
    <use xlink:href="#ArialMT-76" transform="translate(161.230469 0)"/>
    <use xlink:href="#ArialMT-69" transform="translate(211.230469 0)"/>
    <use xlink:href="#ArialMT-64" transform="translate(233.447266 0)"/>
    <use xlink:href="#ArialMT-75" transform="translate(289.0625 0)"/>
    <use xlink:href="#ArialMT-61" transform="translate(344.677734 0)"/>
    <use xlink:href="#ArialMT-6c" transform="translate(400.292969 0)"/>
    <use xlink:href="#ArialMT-20" transform="translate(422.509766 0)"/>
    <use xlink:href="#ArialMT-31" transform="translate(450.292969 0)"/>
    <use xlink:href="#ArialMT-30" transform="translate(505.908203 0)"/>
    <use xlink:href="#ArialMT-33" transform="translate(561.523438 0)"/>
   </g>
  </g>
 </g>
 <defs>
  <clipPath id="p1e09ab7196">
   <rect x="180" y="43.2" width="227.755102" height="277.2"/>
  </clipPath>
  <clipPath id="pac240d363b">
   <rect x="476.081633" y="43.2" width="227.755102" height="277.2"/>
  </clipPath>
 </defs>
</svg>
