<?xml version="1.0" encoding="utf-8" standalone="no"?>
<!DOCTYPE svg PUBLIC "-//W3C//DTD SVG 1.1//EN"
  "http://www.w3.org/Graphics/SVG/1.1/DTD/svg11.dtd">
<svg xmlns:xlink="http://www.w3.org/1999/xlink" width="1440pt" height="360pt" viewBox="0 0 1440 360" xmlns="http://www.w3.org/2000/svg" version="1.1">
 <metadata>
  <rdf:RDF xmlns:dc="http://purl.org/dc/elements/1.1/" xmlns:cc="http://creativecommons.org/ns#" xmlns:rdf="http://www.w3.org/1999/02/22-rdf-syntax-ns#">
   <cc:Work>
    <dc:type rdf:resource="http://purl.org/dc/dcmitype/StillImage"/>
    <dc:date>2025-01-27T12:23:53.651103</dc:date>
    <dc:format>image/svg+xml</dc:format>
    <dc:creator>
     <cc:Agent>
      <dc:title>Matplotlib v3.9.2, https://matplotlib.org/</dc:title>
     </cc:Agent>
    </dc:creator>
   </cc:Work>
  </rdf:RDF>
 </metadata>
 <defs>
  <style type="text/css">*{stroke-linejoin: round; stroke-linecap: butt}</style>
 </defs>
 <g id="figure_1">
  <g id="patch_1">
   <path d="M 0 360 
L 1440 360 
L 1440 0 
L 0 0 
z
" style="fill: #ffffff"/>
  </g>
  <g id="axes_1">
   <g id="patch_2">
    <path d="M 180 320.4 
L 407.755102 320.4 
L 407.755102 43.2 
L 180 43.2 
z
" style="fill: #ffffff"/>
   </g>
   <g id="matplotlib.axis_1">
    <g id="xtick_1">
     <g id="line2d_1">
      <defs>
       <path id="m7bcd4b9754" d="M 0 0 
L 0 3.5 
" style="stroke: #000000; stroke-width: 0.8"/>
      </defs>
      <g>
       <use xlink:href="#m7bcd4b9754" x="186.698679" y="320.4" style="stroke: #000000; stroke-width: 0.8"/>
      </g>
     </g>
     <g id="text_1">
      <!-- 0 -->
      <g transform="translate(176.773179 351.107125) scale(0.312 -0.312)">
       <defs>
        <path id="DejaVuSans-30" d="M 2034 4250 
Q 1547 4250 1301 3770 
Q 1056 3291 1056 2328 
Q 1056 1369 1301 889 
Q 1547 409 2034 409 
Q 2525 409 2770 889 
Q 3016 1369 3016 2328 
Q 3016 3291 2770 3770 
Q 2525 4250 2034 4250 
z
M 2034 4750 
Q 2819 4750 3233 4129 
Q 3647 3509 3647 2328 
Q 3647 1150 3233 529 
Q 2819 -91 2034 -91 
Q 1250 -91 836 529 
Q 422 1150 422 2328 
Q 422 3509 836 4129 
Q 1250 4750 2034 4750 
z
" transform="scale(0.015625)"/>
       </defs>
       <use xlink:href="#DejaVuSans-30"/>
      </g>
     </g>
    </g>
    <g id="xtick_2">
     <g id="line2d_2">
      <g>
       <use xlink:href="#m7bcd4b9754" x="240.288115" y="320.4" style="stroke: #000000; stroke-width: 0.8"/>
      </g>
     </g>
     <g id="text_2">
      <!-- 2 -->
      <g transform="translate(230.362615 351.107125) scale(0.312 -0.312)">
       <defs>
        <path id="DejaVuSans-32" d="M 1228 531 
L 3431 531 
L 3431 0 
L 469 0 
L 469 531 
Q 828 903 1448 1529 
Q 2069 2156 2228 2338 
Q 2531 2678 2651 2914 
Q 2772 3150 2772 3378 
Q 2772 3750 2511 3984 
Q 2250 4219 1831 4219 
Q 1534 4219 1204 4116 
Q 875 4013 500 3803 
L 500 4441 
Q 881 4594 1212 4672 
Q 1544 4750 1819 4750 
Q 2544 4750 2975 4387 
Q 3406 4025 3406 3419 
Q 3406 3131 3298 2873 
Q 3191 2616 2906 2266 
Q 2828 2175 2409 1742 
Q 1991 1309 1228 531 
z
" transform="scale(0.015625)"/>
       </defs>
       <use xlink:href="#DejaVuSans-32"/>
      </g>
     </g>
    </g>
    <g id="xtick_3">
     <g id="line2d_3">
      <g>
       <use xlink:href="#m7bcd4b9754" x="293.877551" y="320.4" style="stroke: #000000; stroke-width: 0.8"/>
      </g>
     </g>
     <g id="text_3">
      <!-- 4 -->
      <g transform="translate(283.952051 351.107125) scale(0.312 -0.312)">
       <defs>
        <path id="DejaVuSans-34" d="M 2419 4116 
L 825 1625 
L 2419 1625 
L 2419 4116 
z
M 2253 4666 
L 3047 4666 
L 3047 1625 
L 3713 1625 
L 3713 1100 
L 3047 1100 
L 3047 0 
L 2419 0 
L 2419 1100 
L 313 1100 
L 313 1709 
L 2253 4666 
z
" transform="scale(0.015625)"/>
       </defs>
       <use xlink:href="#DejaVuSans-34"/>
      </g>
     </g>
    </g>
    <g id="xtick_4">
     <g id="line2d_4">
      <g>
       <use xlink:href="#m7bcd4b9754" x="347.466987" y="320.4" style="stroke: #000000; stroke-width: 0.8"/>
      </g>
     </g>
     <g id="text_4">
      <!-- 6 -->
      <g transform="translate(337.541487 351.107125) scale(0.312 -0.312)">
       <defs>
        <path id="DejaVuSans-36" d="M 2113 2584 
Q 1688 2584 1439 2293 
Q 1191 2003 1191 1497 
Q 1191 994 1439 701 
Q 1688 409 2113 409 
Q 2538 409 2786 701 
Q 3034 994 3034 1497 
Q 3034 2003 2786 2293 
Q 2538 2584 2113 2584 
z
M 3366 4563 
L 3366 3988 
Q 3128 4100 2886 4159 
Q 2644 4219 2406 4219 
Q 1781 4219 1451 3797 
Q 1122 3375 1075 2522 
Q 1259 2794 1537 2939 
Q 1816 3084 2150 3084 
Q 2853 3084 3261 2657 
Q 3669 2231 3669 1497 
Q 3669 778 3244 343 
Q 2819 -91 2113 -91 
Q 1303 -91 875 529 
Q 447 1150 447 2328 
Q 447 3434 972 4092 
Q 1497 4750 2381 4750 
Q 2619 4750 2861 4703 
Q 3103 4656 3366 4563 
z
" transform="scale(0.015625)"/>
       </defs>
       <use xlink:href="#DejaVuSans-36"/>
      </g>
     </g>
    </g>
    <g id="xtick_5">
     <g id="line2d_5">
      <g>
       <use xlink:href="#m7bcd4b9754" x="401.056423" y="320.4" style="stroke: #000000; stroke-width: 0.8"/>
      </g>
     </g>
     <g id="text_5">
      <!-- 8 -->
      <g transform="translate(391.130923 351.107125) scale(0.312 -0.312)">
       <defs>
        <path id="DejaVuSans-38" d="M 2034 2216 
Q 1584 2216 1326 1975 
Q 1069 1734 1069 1313 
Q 1069 891 1326 650 
Q 1584 409 2034 409 
Q 2484 409 2743 651 
Q 3003 894 3003 1313 
Q 3003 1734 2745 1975 
Q 2488 2216 2034 2216 
z
M 1403 2484 
Q 997 2584 770 2862 
Q 544 3141 544 3541 
Q 544 4100 942 4425 
Q 1341 4750 2034 4750 
Q 2731 4750 3128 4425 
Q 3525 4100 3525 3541 
Q 3525 3141 3298 2862 
Q 3072 2584 2669 2484 
Q 3125 2378 3379 2068 
Q 3634 1759 3634 1313 
Q 3634 634 3220 271 
Q 2806 -91 2034 -91 
Q 1263 -91 848 271 
Q 434 634 434 1313 
Q 434 1759 690 2068 
Q 947 2378 1403 2484 
z
M 1172 3481 
Q 1172 3119 1398 2916 
Q 1625 2713 2034 2713 
Q 2441 2713 2670 2916 
Q 2900 3119 2900 3481 
Q 2900 3844 2670 4047 
Q 2441 4250 2034 4250 
Q 1625 4250 1398 4047 
Q 1172 3844 1172 3481 
z
" transform="scale(0.015625)"/>
       </defs>
       <use xlink:href="#DejaVuSans-38"/>
      </g>
     </g>
    </g>
    <g id="text_6">
     <!-- Time (d) -->
     <g transform="translate(234.10802 383.327281) scale(0.286 -0.286)">
      <defs>
       <path id="DejaVuSans-54" d="M -19 4666 
L 3928 4666 
L 3928 4134 
L 2272 4134 
L 2272 0 
L 1638 0 
L 1638 4134 
L -19 4134 
L -19 4666 
z
" transform="scale(0.015625)"/>
       <path id="DejaVuSans-69" d="M 603 3500 
L 1178 3500 
L 1178 0 
L 603 0 
L 603 3500 
z
M 603 4863 
L 1178 4863 
L 1178 4134 
L 603 4134 
L 603 4863 
z
" transform="scale(0.015625)"/>
       <path id="DejaVuSans-6d" d="M 3328 2828 
Q 3544 3216 3844 3400 
Q 4144 3584 4550 3584 
Q 5097 3584 5394 3201 
Q 5691 2819 5691 2113 
L 5691 0 
L 5113 0 
L 5113 2094 
Q 5113 2597 4934 2840 
Q 4756 3084 4391 3084 
Q 3944 3084 3684 2787 
Q 3425 2491 3425 1978 
L 3425 0 
L 2847 0 
L 2847 2094 
Q 2847 2600 2669 2842 
Q 2491 3084 2119 3084 
Q 1678 3084 1418 2786 
Q 1159 2488 1159 1978 
L 1159 0 
L 581 0 
L 581 3500 
L 1159 3500 
L 1159 2956 
Q 1356 3278 1631 3431 
Q 1906 3584 2284 3584 
Q 2666 3584 2933 3390 
Q 3200 3197 3328 2828 
z
" transform="scale(0.015625)"/>
       <path id="DejaVuSans-65" d="M 3597 1894 
L 3597 1613 
L 953 1613 
Q 991 1019 1311 708 
Q 1631 397 2203 397 
Q 2534 397 2845 478 
Q 3156 559 3463 722 
L 3463 178 
Q 3153 47 2828 -22 
Q 2503 -91 2169 -91 
Q 1331 -91 842 396 
Q 353 884 353 1716 
Q 353 2575 817 3079 
Q 1281 3584 2069 3584 
Q 2775 3584 3186 3129 
Q 3597 2675 3597 1894 
z
M 3022 2063 
Q 3016 2534 2758 2815 
Q 2500 3097 2075 3097 
Q 1594 3097 1305 2825 
Q 1016 2553 972 2059 
L 3022 2063 
z
" transform="scale(0.015625)"/>
       <path id="DejaVuSans-20" transform="scale(0.015625)"/>
       <path id="DejaVuSans-28" d="M 1984 4856 
Q 1566 4138 1362 3434 
Q 1159 2731 1159 2009 
Q 1159 1288 1364 580 
Q 1569 -128 1984 -844 
L 1484 -844 
Q 1016 -109 783 600 
Q 550 1309 550 2009 
Q 550 2706 781 3412 
Q 1013 4119 1484 4856 
L 1984 4856 
z
" transform="scale(0.015625)"/>
       <path id="DejaVuSans-64" d="M 2906 2969 
L 2906 4863 
L 3481 4863 
L 3481 0 
L 2906 0 
L 2906 525 
Q 2725 213 2448 61 
Q 2172 -91 1784 -91 
Q 1150 -91 751 415 
Q 353 922 353 1747 
Q 353 2572 751 3078 
Q 1150 3584 1784 3584 
Q 2172 3584 2448 3432 
Q 2725 3281 2906 2969 
z
M 947 1747 
Q 947 1113 1208 752 
Q 1469 391 1925 391 
Q 2381 391 2643 752 
Q 2906 1113 2906 1747 
Q 2906 2381 2643 2742 
Q 2381 3103 1925 3103 
Q 1469 3103 1208 2742 
Q 947 2381 947 1747 
z
" transform="scale(0.015625)"/>
       <path id="DejaVuSans-29" d="M 513 4856 
L 1013 4856 
Q 1481 4119 1714 3412 
Q 1947 2706 1947 2009 
Q 1947 1309 1714 600 
Q 1481 -109 1013 -844 
L 513 -844 
Q 928 -128 1133 580 
Q 1338 1288 1338 2009 
Q 1338 2731 1133 3434 
Q 928 4138 513 4856 
z
" transform="scale(0.015625)"/>
      </defs>
      <use xlink:href="#DejaVuSans-54"/>
      <use xlink:href="#DejaVuSans-69" x="57.958984"/>
      <use xlink:href="#DejaVuSans-6d" x="85.742188"/>
      <use xlink:href="#DejaVuSans-65" x="183.154297"/>
      <use xlink:href="#DejaVuSans-20" x="244.677734"/>
      <use xlink:href="#DejaVuSans-28" x="276.464844"/>
      <use xlink:href="#DejaVuSans-64" x="315.478516"/>
      <use xlink:href="#DejaVuSans-29" x="378.955078"/>
     </g>
    </g>
   </g>
   <g id="matplotlib.axis_2">
    <g id="ytick_1">
     <g id="line2d_6">
      <defs>
       <path id="m2f381d5604" d="M 0 0 
L -3.5 0 
" style="stroke: #000000; stroke-width: 0.8"/>
      </defs>
      <g>
       <use xlink:href="#m2f381d5604" x="180" y="320.4" style="stroke: #000000; stroke-width: 0.8"/>
      </g>
     </g>
     <g id="text_7">
      <!-- 0 -->
      <g transform="translate(153.149 332.253562) scale(0.312 -0.312)">
       <use xlink:href="#DejaVuSans-30"/>
      </g>
     </g>
    </g>
    <g id="ytick_2">
     <g id="line2d_7">
      <g>
       <use xlink:href="#m2f381d5604" x="180" y="251.1" style="stroke: #000000; stroke-width: 0.8"/>
      </g>
     </g>
     <g id="text_8">
      <!-- 2 -->
      <g transform="translate(153.149 262.953562) scale(0.312 -0.312)">
       <use xlink:href="#DejaVuSans-32"/>
      </g>
     </g>
    </g>
    <g id="ytick_3">
     <g id="line2d_8">
      <g>
       <use xlink:href="#m2f381d5604" x="180" y="181.8" style="stroke: #000000; stroke-width: 0.8"/>
      </g>
     </g>
     <g id="text_9">
      <!-- 4 -->
      <g transform="translate(153.149 193.653562) scale(0.312 -0.312)">
       <use xlink:href="#DejaVuSans-34"/>
      </g>
     </g>
    </g>
    <g id="ytick_4">
     <g id="line2d_9">
      <g>
       <use xlink:href="#m2f381d5604" x="180" y="112.5" style="stroke: #000000; stroke-width: 0.8"/>
      </g>
     </g>
     <g id="text_10">
      <!-- 6 -->
      <g transform="translate(153.149 124.353562) scale(0.312 -0.312)">
       <use xlink:href="#DejaVuSans-36"/>
      </g>
     </g>
    </g>
    <g id="ytick_5">
     <g id="line2d_10">
      <g>
       <use xlink:href="#m2f381d5604" x="180" y="43.2" style="stroke: #000000; stroke-width: 0.8"/>
      </g>
     </g>
     <g id="text_11">
      <!-- 8 -->
      <g transform="translate(153.149 55.053562) scale(0.312 -0.312)">
       <use xlink:href="#DejaVuSans-38"/>
      </g>
     </g>
    </g>
    <g id="text_12">
     <!-- Log$_{10}$ Virus (copies/mL) -->
     <g transform="translate(143.143 349.968) rotate(-90) scale(0.286 -0.286)">
      <defs>
       <path id="DejaVuSans-4c" d="M 628 4666 
L 1259 4666 
L 1259 531 
L 3531 531 
L 3531 0 
L 628 0 
L 628 4666 
z
" transform="scale(0.015625)"/>
       <path id="DejaVuSans-6f" d="M 1959 3097 
Q 1497 3097 1228 2736 
Q 959 2375 959 1747 
Q 959 1119 1226 758 
Q 1494 397 1959 397 
Q 2419 397 2687 759 
Q 2956 1122 2956 1747 
Q 2956 2369 2687 2733 
Q 2419 3097 1959 3097 
z
M 1959 3584 
Q 2709 3584 3137 3096 
Q 3566 2609 3566 1747 
Q 3566 888 3137 398 
Q 2709 -91 1959 -91 
Q 1206 -91 779 398 
Q 353 888 353 1747 
Q 353 2609 779 3096 
Q 1206 3584 1959 3584 
z
" transform="scale(0.015625)"/>
       <path id="DejaVuSans-67" d="M 2906 1791 
Q 2906 2416 2648 2759 
Q 2391 3103 1925 3103 
Q 1463 3103 1205 2759 
Q 947 2416 947 1791 
Q 947 1169 1205 825 
Q 1463 481 1925 481 
Q 2391 481 2648 825 
Q 2906 1169 2906 1791 
z
M 3481 434 
Q 3481 -459 3084 -895 
Q 2688 -1331 1869 -1331 
Q 1566 -1331 1297 -1286 
Q 1028 -1241 775 -1147 
L 775 -588 
Q 1028 -725 1275 -790 
Q 1522 -856 1778 -856 
Q 2344 -856 2625 -561 
Q 2906 -266 2906 331 
L 2906 616 
Q 2728 306 2450 153 
Q 2172 0 1784 0 
Q 1141 0 747 490 
Q 353 981 353 1791 
Q 353 2603 747 3093 
Q 1141 3584 1784 3584 
Q 2172 3584 2450 3431 
Q 2728 3278 2906 2969 
L 2906 3500 
L 3481 3500 
L 3481 434 
z
" transform="scale(0.015625)"/>
       <path id="DejaVuSans-31" d="M 794 531 
L 1825 531 
L 1825 4091 
L 703 3866 
L 703 4441 
L 1819 4666 
L 2450 4666 
L 2450 531 
L 3481 531 
L 3481 0 
L 794 0 
L 794 531 
z
" transform="scale(0.015625)"/>
       <path id="DejaVuSans-56" d="M 1831 0 
L 50 4666 
L 709 4666 
L 2188 738 
L 3669 4666 
L 4325 4666 
L 2547 0 
L 1831 0 
z
" transform="scale(0.015625)"/>
       <path id="DejaVuSans-72" d="M 2631 2963 
Q 2534 3019 2420 3045 
Q 2306 3072 2169 3072 
Q 1681 3072 1420 2755 
Q 1159 2438 1159 1844 
L 1159 0 
L 581 0 
L 581 3500 
L 1159 3500 
L 1159 2956 
Q 1341 3275 1631 3429 
Q 1922 3584 2338 3584 
Q 2397 3584 2469 3576 
Q 2541 3569 2628 3553 
L 2631 2963 
z
" transform="scale(0.015625)"/>
       <path id="DejaVuSans-75" d="M 544 1381 
L 544 3500 
L 1119 3500 
L 1119 1403 
Q 1119 906 1312 657 
Q 1506 409 1894 409 
Q 2359 409 2629 706 
Q 2900 1003 2900 1516 
L 2900 3500 
L 3475 3500 
L 3475 0 
L 2900 0 
L 2900 538 
Q 2691 219 2414 64 
Q 2138 -91 1772 -91 
Q 1169 -91 856 284 
Q 544 659 544 1381 
z
M 1991 3584 
L 1991 3584 
z
" transform="scale(0.015625)"/>
       <path id="DejaVuSans-73" d="M 2834 3397 
L 2834 2853 
Q 2591 2978 2328 3040 
Q 2066 3103 1784 3103 
Q 1356 3103 1142 2972 
Q 928 2841 928 2578 
Q 928 2378 1081 2264 
Q 1234 2150 1697 2047 
L 1894 2003 
Q 2506 1872 2764 1633 
Q 3022 1394 3022 966 
Q 3022 478 2636 193 
Q 2250 -91 1575 -91 
Q 1294 -91 989 -36 
Q 684 19 347 128 
L 347 722 
Q 666 556 975 473 
Q 1284 391 1588 391 
Q 1994 391 2212 530 
Q 2431 669 2431 922 
Q 2431 1156 2273 1281 
Q 2116 1406 1581 1522 
L 1381 1569 
Q 847 1681 609 1914 
Q 372 2147 372 2553 
Q 372 3047 722 3315 
Q 1072 3584 1716 3584 
Q 2034 3584 2315 3537 
Q 2597 3491 2834 3397 
z
" transform="scale(0.015625)"/>
       <path id="DejaVuSans-63" d="M 3122 3366 
L 3122 2828 
Q 2878 2963 2633 3030 
Q 2388 3097 2138 3097 
Q 1578 3097 1268 2742 
Q 959 2388 959 1747 
Q 959 1106 1268 751 
Q 1578 397 2138 397 
Q 2388 397 2633 464 
Q 2878 531 3122 666 
L 3122 134 
Q 2881 22 2623 -34 
Q 2366 -91 2075 -91 
Q 1284 -91 818 406 
Q 353 903 353 1747 
Q 353 2603 823 3093 
Q 1294 3584 2113 3584 
Q 2378 3584 2631 3529 
Q 2884 3475 3122 3366 
z
" transform="scale(0.015625)"/>
       <path id="DejaVuSans-70" d="M 1159 525 
L 1159 -1331 
L 581 -1331 
L 581 3500 
L 1159 3500 
L 1159 2969 
Q 1341 3281 1617 3432 
Q 1894 3584 2278 3584 
Q 2916 3584 3314 3078 
Q 3713 2572 3713 1747 
Q 3713 922 3314 415 
Q 2916 -91 2278 -91 
Q 1894 -91 1617 61 
Q 1341 213 1159 525 
z
M 3116 1747 
Q 3116 2381 2855 2742 
Q 2594 3103 2138 3103 
Q 1681 3103 1420 2742 
Q 1159 2381 1159 1747 
Q 1159 1113 1420 752 
Q 1681 391 2138 391 
Q 2594 391 2855 752 
Q 3116 1113 3116 1747 
z
" transform="scale(0.015625)"/>
       <path id="DejaVuSans-2f" d="M 1625 4666 
L 2156 4666 
L 531 -594 
L 0 -594 
L 1625 4666 
z
" transform="scale(0.015625)"/>
      </defs>
      <use xlink:href="#DejaVuSans-4c" transform="translate(0 0.015625)"/>
      <use xlink:href="#DejaVuSans-6f" transform="translate(55.712891 0.015625)"/>
      <use xlink:href="#DejaVuSans-67" transform="translate(116.894531 0.015625)"/>
      <use xlink:href="#DejaVuSans-31" transform="translate(181.328125 -16.390625) scale(0.7)"/>
      <use xlink:href="#DejaVuSans-30" transform="translate(225.864258 -16.390625) scale(0.7)"/>
      <use xlink:href="#DejaVuSans-20" transform="translate(273.134766 0.015625)"/>
      <use xlink:href="#DejaVuSans-56" transform="translate(304.921875 0.015625)"/>
      <use xlink:href="#DejaVuSans-69" transform="translate(373.330078 0.015625)"/>
      <use xlink:href="#DejaVuSans-72" transform="translate(401.113281 0.015625)"/>
      <use xlink:href="#DejaVuSans-75" transform="translate(442.226562 0.015625)"/>
      <use xlink:href="#DejaVuSans-73" transform="translate(505.605469 0.015625)"/>
      <use xlink:href="#DejaVuSans-20" transform="translate(557.705078 0.015625)"/>
      <use xlink:href="#DejaVuSans-28" transform="translate(589.492188 0.015625)"/>
      <use xlink:href="#DejaVuSans-63" transform="translate(628.505859 0.015625)"/>
      <use xlink:href="#DejaVuSans-6f" transform="translate(683.486328 0.015625)"/>
      <use xlink:href="#DejaVuSans-70" transform="translate(744.667969 0.015625)"/>
      <use xlink:href="#DejaVuSans-69" transform="translate(808.144531 0.015625)"/>
      <use xlink:href="#DejaVuSans-65" transform="translate(835.927734 0.015625)"/>
      <use xlink:href="#DejaVuSans-73" transform="translate(897.451172 0.015625)"/>
      <use xlink:href="#DejaVuSans-2f" transform="translate(949.550781 0.015625)"/>
      <use xlink:href="#DejaVuSans-6d" transform="translate(983.242188 0.015625)"/>
      <use xlink:href="#DejaVuSans-4c" transform="translate(1080.654297 0.015625)"/>
      <use xlink:href="#DejaVuSans-29" transform="translate(1136.367188 0.015625)"/>
     </g>
    </g>
   </g>
   <g id="patch_3">
    <path d="M 180 320.4 
L 180 43.2 
" style="fill: none; stroke: #000000; stroke-width: 0.8; stroke-linejoin: miter; stroke-linecap: square"/>
   </g>
   <g id="patch_4">
    <path d="M 407.755102 320.4 
L 407.755102 43.2 
" style="fill: none; stroke: #000000; stroke-width: 0.8; stroke-linejoin: miter; stroke-linecap: square"/>
   </g>
   <g id="patch_5">
    <path d="M 180 320.4 
L 407.755102 320.4 
" style="fill: none; stroke: #000000; stroke-width: 0.8; stroke-linejoin: miter; stroke-linecap: square"/>
   </g>
   <g id="patch_6">
    <path d="M 180 43.2 
L 407.755102 43.2 
" style="fill: none; stroke: #000000; stroke-width: 0.8; stroke-linejoin: miter; stroke-linecap: square"/>
   </g>
   <g id="PolyCollection_1">
    <defs>
     <path id="m5e895cf452" d="M 186.698679 -39.6 
L 186.698679 -39.6 
L 186.698979 -39.6 
L 186.70197 -39.6 
L 186.731881 -39.6 
L 186.866361 -39.6 
L 186.956481 -39.6 
L 187.285555 -39.6 
L 187.500711 -39.6 
L 188.218962 -49.607379 
L 188.732945 -55.406658 
L 190.370598 -65.721047 
L 191.195542 -69.188864 
L 193.45072 -77.361219 
L 194.473175 -80.787413 
L 196.654804 -88.034695 
L 197.812178 -91.833556 
L 199.951773 -98.657577 
L 201.226893 -102.708945 
L 203.368979 -109.535779 
L 204.735521 -113.877721 
L 206.870737 -120.682951 
L 208.306748 -125.146294 
L 210.433286 -131.751326 
L 211.920081 -136.364264 
L 214.261917 -143.637167 
L 215.722646 -148.167736 
L 217.742288 -154.445077 
L 219.263428 -159.171659 
L 221.465132 -165.998293 
L 222.975042 -170.680044 
L 225.008494 -176.983906 
L 226.55211 -181.77216 
L 228.734304 -188.518679 
L 230.25679 -193.224976 
L 232.279283 -199.455633 
L 233.831811 -204.238922 
L 235.998824 -210.855864 
L 237.541939 -215.553219 
L 239.622066 -221.797169 
L 241.204573 -226.508909 
L 243.458164 -233.02895 
L 245.054369 -237.534641 
L 247.227897 -243.387329 
L 248.869363 -247.527335 
L 251.208444 -252.904707 
L 252.85508 -256.212562 
L 255.39861 -260.46384 
L 257.070566 -262.585992 
L 259.375446 -264.667319 
L 261.095654 -264.70232 
L 263.395668 -263.631554 
L 265.149298 -262.569979 
L 267.374431 -260.972958 
L 269.211752 -259.53329 
L 271.595649 -257.48679 
L 273.510007 -255.762049 
L 276.104605 -253.289242 
L 278.177715 -251.24826 
L 280.857187 -248.462792 
L 283.536659 -245.41814 
L 286.216131 -242.292832 
L 288.895602 -239.101951 
L 291.575074 -235.838108 
L 294.254546 -232.271567 
L 296.934018 -228.589565 
L 299.61349 -224.746766 
L 302.292961 -220.572182 
L 304.972433 -215.709874 
L 307.651905 -210.109472 
L 310.331377 -203.066889 
L 313.010849 -185.082033 
L 314.350584 -168.009669 
L 314.886479 -161.137022 
L 315.292315 -155.8992 
L 315.423661 -154.204022 
L 315.579396 -152.194254 
L 315.680006 -150.896605 
L 315.764959 -149.800899 
L 315.808721 -149.236465 
L 315.810435 -149.214369 
L 315.827566 -148.993409 
L 315.845395 -148.763456 
L 315.876754 -148.358988 
L 315.908114 -147.954519 
L 315.967318 -147.190919 
L 316.06086 -145.984425 
L 316.284721 -143.097115 
L 316.669597 -138.112992 
L 317.079543 -132.78888 
L 317.639326 -122.353422 
L 318.199109 -109.955086 
L 318.865365 -94.845011 
L 319.542888 -76.703585 
L 320.287005 -57.630335 
L 321.031122 -43.676135 
L 321.812624 -39.6 
L 322.621996 -39.6 
L 323.516775 -39.6 
L 324.574055 -39.6 
L 325.866184 -39.6 
L 327.887772 -39.6 
L 330.197882 -39.6 
L 332.877354 -39.6 
L 335.556826 -39.6 
L 338.236298 -39.6 
L 340.91577 -39.6 
L 343.595241 -39.6 
L 346.274713 -39.6 
L 348.954185 -39.6 
L 351.633657 -39.6 
L 354.313128 -39.6 
L 356.9926 -39.6 
L 359.672072 -39.6 
L 362.351544 -39.6 
L 365.031016 -39.6 
L 367.710487 -39.6 
L 370.389959 -39.6 
L 373.069431 -39.6 
L 375.748903 -39.6 
L 378.428375 -39.6 
L 381.107846 -39.6 
L 383.787318 -39.6 
L 386.46679 -39.6 
L 389.146262 -39.6 
L 391.825734 -39.6 
L 394.505205 -39.6 
L 397.184677 -39.6 
L 399.864149 -39.6 
L 401.056423 -39.6 
L 401.056423 -39.6 
L 401.056423 -39.6 
L 399.864149 -39.6 
L 397.184677 -39.6 
L 394.505205 -39.6 
L 391.825734 -39.6 
L 389.146262 -39.6 
L 386.46679 -39.6 
L 383.787318 -39.6 
L 381.107846 -39.6 
L 378.428375 -39.6 
L 375.748903 -39.6 
L 373.069431 -39.6 
L 370.389959 -39.6 
L 367.710487 -39.6 
L 365.031016 -39.6 
L 362.351544 -39.6 
L 359.672072 -39.6 
L 356.9926 -39.6 
L 354.313128 -39.6 
L 351.633657 -39.6 
L 348.954185 -39.6 
L 346.274713 -39.6 
L 343.595241 -39.6 
L 340.91577 -39.6 
L 338.236298 -39.6 
L 335.556826 -39.6 
L 332.877354 -42.792886 
L 330.197882 -49.0478 
L 327.887772 -55.259326 
L 325.866184 -60.846969 
L 324.574055 -64.966018 
L 323.516775 -68.83221 
L 322.621996 -74.719501 
L 321.812624 -83.961965 
L 321.031122 -94.290226 
L 320.287005 -104.990412 
L 319.542888 -116.510184 
L 318.865365 -127.009492 
L 318.199109 -139.262807 
L 317.639326 -151.634688 
L 317.079543 -166.933144 
L 316.669597 -176.781499 
L 316.284721 -182.771071 
L 316.06086 -185.404336 
L 315.967318 -186.456597 
L 315.908114 -187.020978 
L 315.876754 -187.313955 
L 315.845395 -187.606932 
L 315.827566 -187.773498 
L 315.810435 -187.933551 
L 315.808721 -187.949556 
L 315.764959 -188.358404 
L 315.680006 -189.152079 
L 315.579396 -189.975727 
L 315.423661 -191.144515 
L 315.292315 -192.181485 
L 314.886479 -195.861708 
L 314.350584 -199.139323 
L 313.010849 -208.293896 
L 310.331377 -217.011631 
L 307.651905 -222.891932 
L 304.972433 -227.503007 
L 302.292961 -231.419328 
L 299.61349 -234.916539 
L 296.934018 -238.52162 
L 294.254546 -242.049048 
L 291.575074 -245.445349 
L 288.895602 -248.711579 
L 286.216131 -251.876387 
L 283.536659 -254.937939 
L 280.857187 -257.870261 
L 278.177715 -260.842318 
L 276.104605 -263.061997 
L 273.510007 -265.651164 
L 271.595649 -267.43161 
L 269.211752 -269.400483 
L 267.374431 -270.727005 
L 265.149298 -271.982902 
L 263.395668 -272.692165 
L 261.095654 -273.0645 
L 259.375446 -272.893967 
L 257.070566 -271.865385 
L 255.39861 -270.673143 
L 252.85508 -268.952188 
L 251.208444 -267.241365 
L 248.869363 -263.625821 
L 247.227897 -260.505671 
L 245.054369 -255.406164 
L 243.458164 -251.268283 
L 241.204573 -244.748071 
L 239.622066 -239.949118 
L 237.541939 -233.325681 
L 235.998824 -228.299654 
L 233.831811 -221.089432 
L 232.279283 -215.865977 
L 230.25679 -209.008183 
L 228.734304 -203.818649 
L 226.55211 -196.349753 
L 225.008494 -191.052414 
L 222.975042 -184.069569 
L 221.465132 -178.879276 
L 219.263428 -171.298622 
L 217.742288 -166.061342 
L 215.722646 -159.107801 
L 214.261917 -154.081434 
L 211.920081 -145.999405 
L 210.433286 -140.878691 
L 208.306748 -133.546615 
L 206.870737 -128.605867 
L 204.735521 -121.241774 
L 203.368979 -116.542468 
L 201.226893 -109.25754 
L 199.951773 -105.055338 
L 197.812178 -97.977127 
L 196.654804 -94.195275 
L 194.473175 -87.007951 
L 193.45072 -83.556017 
L 191.195542 -75.381476 
L 190.370598 -71.523297 
L 188.732945 -60.296109 
L 188.218962 -53.409069 
L 187.500711 -40.649805 
L 187.285555 -39.6 
L 186.956481 -39.6 
L 186.866361 -39.6 
L 186.731881 -39.6 
L 186.70197 -39.6 
L 186.698979 -39.6 
L 186.698679 -39.6 
z
" style="stroke: #daa520; stroke-opacity: 0.2"/>
    </defs>
    <g clip-path="url(#p46898bab1f)">
     <use xlink:href="#m5e895cf452" x="0" y="360" style="fill: #daa520; fill-opacity: 0.2; stroke: #daa520; stroke-opacity: 0.2"/>
    </g>
   </g>
   <g id="PathCollection_1">
    <defs>
     <path id="mf18f53d461" d="M 0 4.330127 
C 1.148363 4.330127 2.249847 3.873878 3.061862 3.061862 
C 3.873878 2.249847 4.330127 1.148363 4.330127 0 
C 4.330127 -1.148363 3.873878 -2.249847 3.061862 -3.061862 
C 2.249847 -3.873878 1.148363 -4.330127 0 -4.330127 
C -1.148363 -4.330127 -2.249847 -3.873878 -3.061862 -3.061862 
C -3.873878 -2.249847 -4.330127 -1.148363 -4.330127 0 
C -4.330127 1.148363 -3.873878 2.249847 -3.061862 3.061862 
C -2.249847 3.873878 -1.148363 4.330127 0 4.330127 
z
" style="stroke: #daa520; stroke-opacity: 0.8"/>
    </defs>
    <g clip-path="url(#p46898bab1f)">
     <use xlink:href="#mf18f53d461" x="186.698679" y="320.4" style="fill: #daa520; fill-opacity: 0.8; stroke: #daa520; stroke-opacity: 0.8"/>
     <use xlink:href="#mf18f53d461" x="213.493397" y="187.90081" style="fill: #daa520; fill-opacity: 0.8; stroke: #daa520; stroke-opacity: 0.8"/>
     <use xlink:href="#mf18f53d461" x="240.288115" y="139.058831" style="fill: #daa520; fill-opacity: 0.8; stroke: #daa520; stroke-opacity: 0.8"/>
     <use xlink:href="#mf18f53d461" x="267.082833" y="116.117139" style="fill: #daa520; fill-opacity: 0.8; stroke: #daa520; stroke-opacity: 0.8"/>
     <use xlink:href="#mf18f53d461" x="293.877551" y="107.460362" style="fill: #daa520; fill-opacity: 0.8; stroke: #daa520; stroke-opacity: 0.8"/>
     <use xlink:href="#mf18f53d461" x="320.672269" y="235.39252" style="fill: #daa520; fill-opacity: 0.8; stroke: #daa520; stroke-opacity: 0.8"/>
     <use xlink:href="#mf18f53d461" x="347.466987" y="320.4" style="fill: #daa520; fill-opacity: 0.8; stroke: #daa520; stroke-opacity: 0.8"/>
     <use xlink:href="#mf18f53d461" x="374.261705" y="320.4" style="fill: #daa520; fill-opacity: 0.8; stroke: #daa520; stroke-opacity: 0.8"/>
    </g>
   </g>
   <g id="line2d_11">
    <path d="M 186.698679 320.4 
L 187.500711 320.4 
L 188.218962 307.98126 
L 188.732945 302.14802 
L 190.370598 291.583243 
L 191.195542 288.04838 
L 194.473175 276.476739 
L 208.306748 231.028444 
L 232.279283 152.537509 
L 239.622066 129.206602 
L 243.458164 117.79611 
L 245.054369 113.374635 
L 247.227897 107.802341 
L 248.869363 104.02779 
L 251.208444 99.453846 
L 252.85508 96.856934 
L 255.39861 93.942629 
L 257.070566 92.715695 
L 259.375446 91.842691 
L 261.095654 91.722684 
L 263.395668 92.13478 
L 265.149298 92.807866 
L 267.374431 94.005593 
L 269.211752 95.228121 
L 271.595649 97.055508 
L 273.510007 98.682928 
L 278.177715 103.084605 
L 283.536659 108.66937 
L 288.895602 114.645471 
L 294.254546 120.972038 
L 299.61349 127.809876 
L 302.292961 131.576349 
L 304.972433 135.762346 
L 307.651905 140.664579 
L 310.331377 146.917705 
L 313.010849 156.301694 
L 314.350584 164.097205 
L 314.886479 168.69978 
L 315.579396 177.732829 
L 316.284721 192.520193 
L 321.812624 311.015808 
L 322.621996 320.4 
L 401.056423 320.4 
L 401.056423 320.4 
" clip-path="url(#p46898bab1f)" style="fill: none; stroke: #daa520; stroke-width: 1.5; stroke-linecap: square"/>
   </g>
  </g>
  <g id="axes_2">
   <g id="patch_7">
    <path d="M 476.081633 320.4 
L 703.836735 320.4 
L 703.836735 43.2 
L 476.081633 43.2 
z
" style="fill: #ffffff"/>
   </g>
   <g id="matplotlib.axis_3">
    <g id="xtick_6">
     <g id="line2d_12">
      <g>
       <use xlink:href="#m7bcd4b9754" x="482.780312" y="320.4" style="stroke: #000000; stroke-width: 0.8"/>
      </g>
     </g>
     <g id="text_13">
      <!-- 0 -->
      <g transform="translate(472.854812 351.107125) scale(0.312 -0.312)">
       <use xlink:href="#DejaVuSans-30"/>
      </g>
     </g>
    </g>
    <g id="xtick_7">
     <g id="line2d_13">
      <g>
       <use xlink:href="#m7bcd4b9754" x="536.369748" y="320.4" style="stroke: #000000; stroke-width: 0.8"/>
      </g>
     </g>
     <g id="text_14">
      <!-- 2 -->
      <g transform="translate(526.444248 351.107125) scale(0.312 -0.312)">
       <use xlink:href="#DejaVuSans-32"/>
      </g>
     </g>
    </g>
    <g id="xtick_8">
     <g id="line2d_14">
      <g>
       <use xlink:href="#m7bcd4b9754" x="589.959184" y="320.4" style="stroke: #000000; stroke-width: 0.8"/>
      </g>
     </g>
     <g id="text_15">
      <!-- 4 -->
      <g transform="translate(580.033684 351.107125) scale(0.312 -0.312)">
       <use xlink:href="#DejaVuSans-34"/>
      </g>
     </g>
    </g>
    <g id="xtick_9">
     <g id="line2d_15">
      <g>
       <use xlink:href="#m7bcd4b9754" x="643.548619" y="320.4" style="stroke: #000000; stroke-width: 0.8"/>
      </g>
     </g>
     <g id="text_16">
      <!-- 6 -->
      <g transform="translate(633.623119 351.107125) scale(0.312 -0.312)">
       <use xlink:href="#DejaVuSans-36"/>
      </g>
     </g>
    </g>
    <g id="xtick_10">
     <g id="line2d_16">
      <g>
       <use xlink:href="#m7bcd4b9754" x="697.138055" y="320.4" style="stroke: #000000; stroke-width: 0.8"/>
      </g>
     </g>
     <g id="text_17">
      <!-- 8 -->
      <g transform="translate(687.212555 351.107125) scale(0.312 -0.312)">
       <use xlink:href="#DejaVuSans-38"/>
      </g>
     </g>
    </g>
    <g id="text_18">
     <!-- Time (d) -->
     <g transform="translate(530.189652 383.327281) scale(0.286 -0.286)">
      <use xlink:href="#DejaVuSans-54"/>
      <use xlink:href="#DejaVuSans-69" x="57.958984"/>
      <use xlink:href="#DejaVuSans-6d" x="85.742188"/>
      <use xlink:href="#DejaVuSans-65" x="183.154297"/>
      <use xlink:href="#DejaVuSans-20" x="244.677734"/>
      <use xlink:href="#DejaVuSans-28" x="276.464844"/>
      <use xlink:href="#DejaVuSans-64" x="315.478516"/>
      <use xlink:href="#DejaVuSans-29" x="378.955078"/>
     </g>
    </g>
   </g>
   <g id="matplotlib.axis_4">
    <g id="ytick_6">
     <g id="line2d_17">
      <g>
       <use xlink:href="#m2f381d5604" x="476.081633" y="258.8" style="stroke: #000000; stroke-width: 0.8"/>
      </g>
     </g>
     <g id="text_19">
      <!-- 4 -->
      <g transform="translate(449.230633 270.653562) scale(0.312 -0.312)">
       <use xlink:href="#DejaVuSans-34"/>
      </g>
     </g>
    </g>
    <g id="ytick_7">
     <g id="line2d_18">
      <g>
       <use xlink:href="#m2f381d5604" x="476.081633" y="135.6" style="stroke: #000000; stroke-width: 0.8"/>
      </g>
     </g>
     <g id="text_20">
      <!-- 6 -->
      <g transform="translate(449.230633 147.453563) scale(0.312 -0.312)">
       <use xlink:href="#DejaVuSans-36"/>
      </g>
     </g>
    </g>
    <g id="text_21">
     <!-- Log$_{10}$ CD8$^+$ T cells -->
     <g transform="translate(439.224633 318.222) rotate(-90) scale(0.286 -0.286)">
      <defs>
       <path id="DejaVuSans-43" d="M 4122 4306 
L 4122 3641 
Q 3803 3938 3442 4084 
Q 3081 4231 2675 4231 
Q 1875 4231 1450 3742 
Q 1025 3253 1025 2328 
Q 1025 1406 1450 917 
Q 1875 428 2675 428 
Q 3081 428 3442 575 
Q 3803 722 4122 1019 
L 4122 359 
Q 3791 134 3420 21 
Q 3050 -91 2638 -91 
Q 1578 -91 968 557 
Q 359 1206 359 2328 
Q 359 3453 968 4101 
Q 1578 4750 2638 4750 
Q 3056 4750 3426 4639 
Q 3797 4528 4122 4306 
z
" transform="scale(0.015625)"/>
       <path id="DejaVuSans-44" d="M 1259 4147 
L 1259 519 
L 2022 519 
Q 2988 519 3436 956 
Q 3884 1394 3884 2338 
Q 3884 3275 3436 3711 
Q 2988 4147 2022 4147 
L 1259 4147 
z
M 628 4666 
L 1925 4666 
Q 3281 4666 3915 4102 
Q 4550 3538 4550 2338 
Q 4550 1131 3912 565 
Q 3275 0 1925 0 
L 628 0 
L 628 4666 
z
" transform="scale(0.015625)"/>
       <path id="DejaVuSans-2b" d="M 2944 4013 
L 2944 2272 
L 4684 2272 
L 4684 1741 
L 2944 1741 
L 2944 0 
L 2419 0 
L 2419 1741 
L 678 1741 
L 678 2272 
L 2419 2272 
L 2419 4013 
L 2944 4013 
z
" transform="scale(0.015625)"/>
       <path id="DejaVuSans-6c" d="M 603 4863 
L 1178 4863 
L 1178 0 
L 603 0 
L 603 4863 
z
" transform="scale(0.015625)"/>
      </defs>
      <use xlink:href="#DejaVuSans-4c" transform="translate(0 0.826562)"/>
      <use xlink:href="#DejaVuSans-6f" transform="translate(55.712891 0.826562)"/>
      <use xlink:href="#DejaVuSans-67" transform="translate(116.894531 0.826562)"/>
      <use xlink:href="#DejaVuSans-31" transform="translate(181.328125 -15.579688) scale(0.7)"/>
      <use xlink:href="#DejaVuSans-30" transform="translate(225.864258 -15.579688) scale(0.7)"/>
      <use xlink:href="#DejaVuSans-20" transform="translate(273.134766 0.826562)"/>
      <use xlink:href="#DejaVuSans-43" transform="translate(304.921875 0.826562)"/>
      <use xlink:href="#DejaVuSans-44" transform="translate(374.746094 0.826562)"/>
      <use xlink:href="#DejaVuSans-38" transform="translate(451.748047 0.826562)"/>
      <use xlink:href="#DejaVuSans-2b" transform="translate(529.96582 39.107812) scale(0.7)"/>
      <use xlink:href="#DejaVuSans-20" transform="translate(604.990234 0.826562)"/>
      <use xlink:href="#DejaVuSans-54" transform="translate(636.777344 0.826562)"/>
      <use xlink:href="#DejaVuSans-20" transform="translate(697.861328 0.826562)"/>
      <use xlink:href="#DejaVuSans-63" transform="translate(729.648438 0.826562)"/>
      <use xlink:href="#DejaVuSans-65" transform="translate(784.628906 0.826562)"/>
      <use xlink:href="#DejaVuSans-6c" transform="translate(846.152344 0.826562)"/>
      <use xlink:href="#DejaVuSans-6c" transform="translate(873.935547 0.826562)"/>
      <use xlink:href="#DejaVuSans-73" transform="translate(901.71875 0.826562)"/>
     </g>
    </g>
   </g>
   <g id="patch_8">
    <path d="M 476.081633 320.4 
L 476.081633 43.2 
" style="fill: none; stroke: #000000; stroke-width: 0.8; stroke-linejoin: miter; stroke-linecap: square"/>
   </g>
   <g id="patch_9">
    <path d="M 703.836735 320.4 
L 703.836735 43.2 
" style="fill: none; stroke: #000000; stroke-width: 0.8; stroke-linejoin: miter; stroke-linecap: square"/>
   </g>
   <g id="patch_10">
    <path d="M 476.081633 320.4 
L 703.836735 320.4 
" style="fill: none; stroke: #000000; stroke-width: 0.8; stroke-linejoin: miter; stroke-linecap: square"/>
   </g>
   <g id="patch_11">
    <path d="M 476.081633 43.2 
L 703.836735 43.2 
" style="fill: none; stroke: #000000; stroke-width: 0.8; stroke-linejoin: miter; stroke-linecap: square"/>
   </g>
   <g id="PolyCollection_2">
    <defs>
     <path id="m82d748dcb1" d="M 482.780312 -160.532923 
L 482.780312 -160.532923 
L 482.780611 -160.532923 
L 482.783602 -160.532923 
L 482.813513 -160.532923 
L 482.947993 -160.532923 
L 483.038113 -160.532923 
L 483.367188 -160.532923 
L 483.582343 -160.532923 
L 484.300595 -160.532923 
L 484.814578 -160.532923 
L 486.452231 -160.532923 
L 487.277175 -160.532923 
L 489.532352 -160.532923 
L 490.554808 -160.532923 
L 492.736437 -160.532923 
L 493.89381 -160.532923 
L 496.033405 -160.532923 
L 497.308526 -160.532923 
L 499.450612 -160.532923 
L 500.817154 -160.532923 
L 502.95237 -160.532923 
L 504.38838 -160.532923 
L 506.514919 -160.532923 
L 508.001714 -160.532924 
L 510.34355 -160.532924 
L 511.804279 -160.532924 
L 513.823921 -160.532924 
L 515.345061 -160.532924 
L 517.546764 -160.532924 
L 519.056674 -160.532924 
L 521.090127 -160.532925 
L 522.633742 -160.532926 
L 524.815937 -160.532928 
L 526.338422 -160.53293 
L 528.360916 -160.532935 
L 529.913444 -160.532941 
L 532.080457 -160.532953 
L 533.623572 -160.532967 
L 535.703698 -160.532994 
L 537.286205 -160.533028 
L 539.539797 -160.533097 
L 541.136001 -160.533179 
L 543.309529 -160.533339 
L 544.950995 -160.53354 
L 547.290076 -160.533954 
L 548.936713 -160.534401 
L 551.480242 -160.535516 
L 553.152198 -160.536595 
L 555.457079 -160.538978 
L 557.177286 -160.541592 
L 559.4773 -160.547118 
L 561.230931 -160.553235 
L 563.456063 -160.565037 
L 565.293385 -160.579496 
L 567.677281 -160.608855 
L 569.591639 -160.64528 
L 572.186238 -160.715944 
L 574.259348 -160.807747 
L 576.93882 -160.968825 
L 579.618292 -161.225431 
L 582.297763 -161.60601 
L 584.977235 -162.14016 
L 587.656707 -162.874113 
L 590.336179 -163.869495 
L 593.01565 -165.128564 
L 595.695122 -166.69034 
L 598.374594 -168.576719 
L 601.054066 -170.735541 
L 603.733538 -173.149364 
L 606.413009 -175.784681 
L 609.092481 -178.559896 
L 610.432217 -179.982618 
L 610.968111 -180.557893 
L 611.373948 -180.993553 
L 611.505293 -181.126746 
L 611.661029 -181.274053 
L 611.761639 -181.369217 
L 611.846592 -181.449572 
L 611.890354 -181.490965 
L 611.892067 -181.492586 
L 611.909199 -181.508759 
L 611.927028 -181.525578 
L 611.958387 -181.555162 
L 611.989747 -181.584746 
L 612.04895 -181.640598 
L 612.142493 -181.728844 
L 612.366353 -181.939764 
L 612.751229 -182.301622 
L 613.161176 -182.685695 
L 613.720959 -183.207502 
L 614.280741 -183.726479 
L 614.946998 -184.339368 
L 615.62452 -184.956362 
L 616.368638 -185.627601 
L 617.112755 -186.28968 
L 617.894257 -186.97581 
L 618.703629 -187.674581 
L 619.598408 -188.432512 
L 620.655688 -189.282043 
L 621.947816 -190.055066 
L 623.969404 -191.172339 
L 626.279515 -192.306785 
L 628.958987 -193.289741 
L 631.638459 -193.648732 
L 634.31793 -193.752944 
L 636.997402 -193.678512 
L 639.676874 -193.439545 
L 642.356346 -193.050535 
L 645.035818 -192.526116 
L 647.715289 -191.880886 
L 650.394761 -191.129253 
L 653.074233 -190.285318 
L 655.753705 -189.362772 
L 658.433177 -188.374807 
L 661.112648 -187.334042 
L 663.79212 -186.252453 
L 666.471592 -185.141314 
L 669.151064 -184.011146 
L 671.830535 -182.871676 
L 674.510007 -181.731799 
L 677.189479 -180.501902 
L 679.868951 -179.095287 
L 682.548423 -177.716517 
L 685.227894 -176.375454 
L 687.907366 -175.08077 
L 690.586838 -173.839847 
L 693.26631 -172.658723 
L 695.945782 -171.539801 
L 697.138055 -171.058772 
L 697.138055 -222.043214 
L 697.138055 -222.043214 
L 695.945782 -222.188945 
L 693.26631 -222.502146 
L 690.586838 -222.78919 
L 687.907366 -223.04639 
L 685.227894 -223.269695 
L 682.548423 -223.454672 
L 679.868951 -223.596494 
L 677.189479 -223.689927 
L 674.510007 -223.729325 
L 671.830535 -223.70862 
L 669.151064 -223.970397 
L 666.471592 -224.257075 
L 663.79212 -224.418112 
L 661.112648 -224.445482 
L 658.433177 -224.330951 
L 655.753705 -224.066093 
L 653.074233 -223.642313 
L 650.394761 -223.050887 
L 647.715289 -222.283015 
L 645.035818 -221.329907 
L 642.356346 -220.182889 
L 639.676874 -218.833567 
L 636.997402 -217.274039 
L 634.31793 -215.497196 
L 631.638459 -213.49712 
L 628.958987 -211.271425 
L 626.279515 -208.814665 
L 623.969404 -206.579459 
L 621.947816 -204.741858 
L 620.655688 -203.501883 
L 619.598408 -202.447382 
L 618.703629 -201.530252 
L 617.894257 -200.679698 
L 617.112755 -199.990356 
L 616.368638 -199.467939 
L 615.62452 -198.924282 
L 614.946998 -198.411829 
L 614.280741 -197.890451 
L 613.720959 -197.440734 
L 613.161176 -196.977238 
L 612.751229 -196.629381 
L 612.366353 -196.298939 
L 612.142493 -196.104316 
L 612.04895 -196.022362 
L 611.989747 -195.969994 
L 611.958387 -195.942255 
L 611.927028 -195.914517 
L 611.909199 -195.898746 
L 611.892067 -195.883593 
L 611.890354 -195.882078 
L 611.846592 -195.843368 
L 611.761639 -195.768224 
L 611.661029 -195.678829 
L 611.505293 -195.539335 
L 611.373948 -195.420951 
L 610.968111 -195.051305 
L 610.432217 -194.537 
L 609.092481 -193.243959 
L 606.413009 -190.503751 
L 603.733538 -187.562116 
L 601.054066 -184.46841 
L 598.374594 -181.288494 
L 595.695122 -178.104428 
L 593.01565 -175.010957 
L 590.336179 -172.107775 
L 587.656707 -169.55611 
L 584.977235 -167.379413 
L 582.297763 -165.545356 
L 579.618292 -164.070898 
L 576.93882 -162.920535 
L 574.259348 -162.104008 
L 572.186238 -161.63372 
L 569.591639 -161.229743 
L 567.677281 -161.017037 
L 565.293385 -160.839361 
L 563.456063 -160.743539 
L 561.230931 -160.667444 
L 559.4773 -160.62561 
L 557.177286 -160.590171 
L 555.457079 -160.572299 
L 553.152198 -160.556965 
L 551.480242 -160.549547 
L 548.936713 -160.542533 
L 547.290076 -160.539558 
L 544.950995 -160.536915 
L 543.309529 -160.535683 
L 541.136001 -160.534638 
L 539.539797 -160.53412 
L 537.286205 -160.533651 
L 535.703698 -160.53343 
L 533.623572 -160.533241 
L 532.080457 -160.533146 
L 529.913444 -160.533058 
L 528.360916 -160.533017 
L 526.338422 -160.532981 
L 524.815937 -160.532963 
L 522.633742 -160.532946 
L 521.090127 -160.532939 
L 519.056674 -160.532932 
L 517.546764 -160.532929 
L 515.345061 -160.532926 
L 513.823921 -160.532925 
L 511.804279 -160.532924 
L 510.34355 -160.532924 
L 508.001714 -160.532924 
L 506.514919 -160.532924 
L 504.38838 -160.532924 
L 502.95237 -160.532924 
L 500.817154 -160.532923 
L 499.450612 -160.532923 
L 497.308526 -160.532923 
L 496.033405 -160.532923 
L 493.89381 -160.532923 
L 492.736437 -160.532923 
L 490.554808 -160.532923 
L 489.532352 -160.532923 
L 487.277175 -160.532923 
L 486.452231 -160.532923 
L 484.814578 -160.532923 
L 484.300595 -160.532923 
L 483.582343 -160.532923 
L 483.367188 -160.532923 
L 483.038113 -160.532923 
L 482.947993 -160.532923 
L 482.813513 -160.532923 
L 482.783602 -160.532923 
L 482.780611 -160.532923 
L 482.780312 -160.532923 
z
" style="stroke: #daa520; stroke-opacity: 0.2"/>
    </defs>
    <g clip-path="url(#p501c878dbd)">
     <use xlink:href="#m82d748dcb1" x="0" y="360" style="fill: #daa520; fill-opacity: 0.2; stroke: #daa520; stroke-opacity: 0.2"/>
    </g>
   </g>
   <g id="PolyCollection_3">
    <defs>
     <path id="mff3623497a" d="M 482.780312 -82.050482 
L 482.780312 -82.050482 
L 482.780611 -82.050482 
L 482.783602 -82.050482 
L 482.813513 -82.050482 
L 482.947993 -82.050482 
L 483.038113 -82.050482 
L 483.367188 -82.050482 
L 483.582343 -82.050482 
L 484.300595 -82.050482 
L 484.814578 -82.050482 
L 486.452231 -82.050482 
L 487.277175 -82.050482 
L 489.532352 -82.050482 
L 490.554808 -82.050482 
L 492.736437 -82.050482 
L 493.89381 -82.050482 
L 496.033405 -82.050482 
L 497.308526 -82.050482 
L 499.450612 -82.050482 
L 500.817154 -82.050482 
L 502.95237 -82.050482 
L 504.38838 -82.050482 
L 506.514919 -82.050482 
L 508.001714 -82.050482 
L 510.34355 -82.050482 
L 511.804279 -82.050482 
L 513.823921 -82.050482 
L 515.345061 -82.050482 
L 517.546764 -82.050482 
L 519.056674 -82.050482 
L 521.090127 -82.050482 
L 522.633742 -82.050482 
L 524.815937 -82.050482 
L 526.338422 -82.050482 
L 528.360916 -82.050482 
L 529.913444 -82.050482 
L 532.080457 -82.050482 
L 533.623572 -82.050482 
L 535.703698 -82.050482 
L 537.286205 -82.050482 
L 539.539797 -82.050483 
L 541.136001 -82.050484 
L 543.309529 -82.050485 
L 544.950995 -82.050487 
L 547.290076 -82.050491 
L 548.936713 -82.050495 
L 551.480242 -82.050506 
L 553.152198 -82.050517 
L 555.457079 -82.050541 
L 557.177286 -82.050567 
L 559.4773 -82.050625 
L 561.230931 -82.050691 
L 563.456063 -82.050826 
L 565.293385 -82.05099 
L 567.677281 -82.0513 
L 569.591639 -82.051706 
L 572.186238 -82.052572 
L 574.259348 -82.053643 
L 576.93882 -82.056093 
L 579.618292 -82.05994 
L 582.297763 -82.0665 
L 584.977235 -82.077196 
L 587.656707 -82.094891 
L 590.336179 -82.122941 
L 593.01565 -82.168058 
L 595.695122 -82.237136 
L 598.374594 -82.338338 
L 601.054066 -82.492757 
L 603.733538 -82.711467 
L 606.413009 -83.013484 
L 609.092481 -83.408832 
L 610.432217 -83.626219 
L 610.968111 -83.726403 
L 611.373948 -83.805723 
L 611.505293 -83.831772 
L 611.661029 -83.863391 
L 611.761639 -83.884076 
L 611.846592 -83.90164 
L 611.890354 -83.91083 
L 611.892067 -83.91119 
L 611.909199 -83.914788 
L 611.927028 -83.918532 
L 611.958387 -83.925118 
L 611.989747 -83.931703 
L 612.04895 -83.944136 
L 612.142493 -83.96386 
L 612.366353 -84.01221 
L 612.751229 -84.097181 
L 613.161176 -84.190532 
L 613.720959 -84.322828 
L 614.280741 -84.46151 
L 614.946998 -84.634577 
L 615.62452 -84.819571 
L 616.368638 -85.033161 
L 617.112755 -85.258553 
L 617.894257 -85.508072 
L 618.703629 -85.780073 
L 619.598408 -86.097211 
L 620.655688 -86.49546 
L 621.947816 -87.016372 
L 623.969404 -87.905665 
L 626.279515 -89.025764 
L 628.958987 -90.460536 
L 631.638459 -92.027627 
L 634.31793 -93.709278 
L 636.997402 -95.484988 
L 639.676874 -97.332969 
L 642.356346 -99.231434 
L 645.035818 -101.159569 
L 647.715289 -103.098195 
L 650.394761 -105.030232 
L 653.074233 -106.941406 
L 655.753705 -108.550467 
L 658.433177 -109.941626 
L 661.112648 -111.259107 
L 663.79212 -112.501379 
L 666.471592 -113.668161 
L 669.151064 -114.760178 
L 671.830535 -115.778959 
L 674.510007 -116.726651 
L 677.189479 -117.605869 
L 679.868951 -118.419567 
L 682.548423 -119.170929 
L 685.227894 -119.863278 
L 687.907366 -120.50001 
L 690.586838 -121.084544 
L 693.26631 -121.620263 
L 695.945782 -122.112015 
L 697.138055 -122.319282 
L 697.138055 -157.878344 
L 697.138055 -157.878344 
L 695.945782 -157.483659 
L 693.26631 -156.567908 
L 690.586838 -155.597021 
L 687.907366 -154.567111 
L 685.227894 -153.474046 
L 682.548423 -152.31345 
L 679.868951 -151.080712 
L 677.189479 -149.770995 
L 674.510007 -148.379259 
L 671.830535 -146.900293 
L 669.151064 -145.328756 
L 666.471592 -143.659246 
L 663.79212 -141.886385 
L 661.112648 -140.004933 
L 658.433177 -138.00994 
L 655.753705 -135.89695 
L 653.074233 -133.662251 
L 650.394761 -131.303211 
L 647.715289 -128.818693 
L 645.035818 -126.209673 
L 642.356346 -123.479999 
L 639.676874 -120.636168 
L 636.997402 -117.689237 
L 634.31793 -114.65623 
L 631.638459 -111.559999 
L 628.958987 -108.492052 
L 626.279515 -105.525324 
L 623.969404 -102.973479 
L 621.947816 -100.79768 
L 620.655688 -99.438755 
L 619.598408 -98.349138 
L 618.703629 -97.438295 
L 617.894257 -96.631663 
L 617.112755 -95.87014 
L 616.368638 -95.154598 
L 615.62452 -94.458613 
L 614.946998 -93.832225 
L 614.280741 -93.236273 
L 613.720959 -92.747621 
L 613.161176 -92.26413 
L 612.751229 -91.919837 
L 612.366353 -91.603197 
L 612.142493 -91.419026 
L 612.04895 -91.342068 
L 611.989747 -91.294179 
L 611.958387 -91.269128 
L 611.927028 -91.244076 
L 611.909199 -91.229834 
L 611.892067 -91.216148 
L 611.890354 -91.21478 
L 611.846592 -91.179821 
L 611.761639 -91.111956 
L 611.661029 -91.031724 
L 611.505293 -90.909903 
L 611.373948 -90.807161 
L 610.968111 -90.491345 
L 610.432217 -90.085897 
L 609.092481 -89.124085 
L 606.413009 -87.437752 
L 603.733538 -86.031444 
L 601.054066 -84.910814 
L 598.374594 -84.048751 
L 595.695122 -83.415115 
L 593.01565 -82.968676 
L 590.336179 -82.653106 
L 587.656707 -82.436296 
L 584.977235 -82.291347 
L 582.297763 -82.197507 
L 579.618292 -82.138628 
L 576.93882 -82.10198 
L 574.259348 -82.080091 
L 572.186238 -82.069707 
L 569.591639 -82.061771 
L 567.677281 -82.05805 
L 565.293385 -82.055071 
L 563.456063 -82.053591 
L 561.230931 -82.052384 
L 559.4773 -82.05182 
L 557.177286 -82.051285 
L 555.457079 -82.05105 
L 553.152198 -82.050821 
L 551.480242 -82.050727 
L 548.936713 -82.050617 
L 547.290076 -82.050579 
L 544.950995 -82.050538 
L 543.309529 -82.050521 
L 541.136001 -82.050505 
L 539.539797 -82.050498 
L 537.286205 -82.050491 
L 535.703698 -82.050488 
L 533.623572 -82.050485 
L 532.080457 -82.050484 
L 529.913444 -82.050483 
L 528.360916 -82.050483 
L 526.338422 -82.050482 
L 524.815937 -82.050482 
L 522.633742 -82.050482 
L 521.090127 -82.050482 
L 519.056674 -82.050482 
L 517.546764 -82.050482 
L 515.345061 -82.050482 
L 513.823921 -82.050482 
L 511.804279 -82.050482 
L 510.34355 -82.050482 
L 508.001714 -82.050482 
L 506.514919 -82.050482 
L 504.38838 -82.050482 
L 502.95237 -82.050482 
L 500.817154 -82.050482 
L 499.450612 -82.050482 
L 497.308526 -82.050482 
L 496.033405 -82.050482 
L 493.89381 -82.050482 
L 492.736437 -82.050482 
L 490.554808 -82.050482 
L 489.532352 -82.050482 
L 487.277175 -82.050482 
L 486.452231 -82.050482 
L 484.814578 -82.050482 
L 484.300595 -82.050482 
L 483.582343 -82.050482 
L 483.367188 -82.050482 
L 483.038113 -82.050482 
L 482.947993 -82.050482 
L 482.813513 -82.050482 
L 482.783602 -82.050482 
L 482.780611 -82.050482 
L 482.780312 -82.050482 
z
" style="stroke: #daa520; stroke-opacity: 0.2"/>
    </defs>
    <g clip-path="url(#p501c878dbd)">
     <use xlink:href="#mff3623497a" x="0" y="360" style="fill: #daa520; fill-opacity: 0.2; stroke: #daa520; stroke-opacity: 0.2"/>
    </g>
   </g>
   <g id="PathCollection_2">
    <g clip-path="url(#p501c878dbd)">
     <use xlink:href="#mf18f53d461" x="482.780312" y="199.467077" style="fill: #daa520; fill-opacity: 0.8; stroke: #daa520; stroke-opacity: 0.8"/>
     <use xlink:href="#mf18f53d461" x="509.57503" y="162.669421" style="fill: #daa520; fill-opacity: 0.8; stroke: #daa520; stroke-opacity: 0.8"/>
     <use xlink:href="#mf18f53d461" x="536.369748" y="142.560722" style="fill: #daa520; fill-opacity: 0.8; stroke: #daa520; stroke-opacity: 0.8"/>
     <use xlink:href="#mf18f53d461" x="563.164466" y="156.465685" style="fill: #daa520; fill-opacity: 0.8; stroke: #daa520; stroke-opacity: 0.8"/>
     <use xlink:href="#mf18f53d461" x="589.959184" y="178.203971" style="fill: #daa520; fill-opacity: 0.8; stroke: #daa520; stroke-opacity: 0.8"/>
     <use xlink:href="#mf18f53d461" x="616.753902" y="189.659549" style="fill: #daa520; fill-opacity: 0.8; stroke: #daa520; stroke-opacity: 0.8"/>
     <use xlink:href="#mf18f53d461" x="643.548619" y="148.23038" style="fill: #daa520; fill-opacity: 0.8; stroke: #daa520; stroke-opacity: 0.8"/>
    </g>
   </g>
   <g id="PathCollection_3">
    <defs>
     <path id="m39c836977e" d="M -4.330127 4.330127 
L 4.330127 4.330127 
L 4.330127 -4.330127 
L -4.330127 -4.330127 
z
" style="stroke: #daa520; stroke-opacity: 0.8"/>
    </defs>
    <g clip-path="url(#p501c878dbd)">
     <use xlink:href="#m39c836977e" x="482.780312" y="277.947858" style="fill: #daa520; fill-opacity: 0.8; stroke: #daa520; stroke-opacity: 0.8"/>
     <use xlink:href="#m39c836977e" x="509.57503" y="269.094006" style="fill: #daa520; fill-opacity: 0.8; stroke: #daa520; stroke-opacity: 0.8"/>
     <use xlink:href="#m39c836977e" x="536.369748" y="281.194637" style="fill: #daa520; fill-opacity: 0.8; stroke: #daa520; stroke-opacity: 0.8"/>
     <use xlink:href="#m39c836977e" x="563.164466" y="264.736004" style="fill: #daa520; fill-opacity: 0.8; stroke: #daa520; stroke-opacity: 0.8"/>
     <use xlink:href="#m39c836977e" x="589.959184" y="275.627068" style="fill: #daa520; fill-opacity: 0.8; stroke: #daa520; stroke-opacity: 0.8"/>
     <use xlink:href="#m39c836977e" x="616.753902" y="263.345034" style="fill: #daa520; fill-opacity: 0.8; stroke: #daa520; stroke-opacity: 0.8"/>
     <use xlink:href="#m39c836977e" x="643.548619" y="252.928395" style="fill: #daa520; fill-opacity: 0.8; stroke: #daa520; stroke-opacity: 0.8"/>
     <use xlink:href="#m39c836977e" x="670.343337" y="233.584416" style="fill: #daa520; fill-opacity: 0.8; stroke: #daa520; stroke-opacity: 0.8"/>
    </g>
   </g>
   <g id="line2d_19">
    <path d="M 482.780312 199.467077 
L 563.456063 199.385162 
L 569.591639 199.188412 
L 574.259348 198.80793 
L 576.93882 198.423748 
L 579.618292 197.863091 
L 582.297763 197.076171 
L 584.977235 196.015635 
L 587.656707 194.64457 
L 590.336179 192.944499 
L 593.01565 190.920941 
L 595.695122 188.604546 
L 598.374594 186.047369 
L 603.733538 180.480965 
L 612.142493 171.643862 
L 615.62452 168.272898 
L 618.703629 165.51987 
L 621.947816 162.88063 
L 626.279515 159.799906 
L 628.958987 158.150444 
L 631.638459 156.6932 
L 634.31793 155.422577 
L 636.997402 154.331227 
L 639.676874 153.410594 
L 642.356346 152.651324 
L 645.035818 152.043584 
L 647.715289 151.577308 
L 650.394761 151.242383 
L 653.074233 151.028791 
L 658.433177 150.926637 
L 663.79212 151.196152 
L 669.151064 151.76892 
L 674.510007 152.583796 
L 679.868951 153.587337 
L 687.907366 155.348389 
L 697.138055 157.611021 
L 697.138055 157.611021 
" clip-path="url(#p501c878dbd)" style="fill: none; stroke: #daa520; stroke-width: 1.5; stroke-linecap: square"/>
   </g>
   <g id="line2d_20">
    <path d="M 482.780312 277.949518 
L 582.297763 277.881371 
L 590.336179 277.644766 
L 595.695122 277.211648 
L 598.374594 276.843789 
L 601.054066 276.334752 
L 603.733538 275.651925 
L 606.413009 274.764219 
L 610.432217 272.995886 
L 613.161176 271.475923 
L 615.62452 269.879645 
L 618.703629 267.603092 
L 621.947816 264.907996 
L 626.279515 260.949437 
L 634.31793 253.066075 
L 642.356346 245.283527 
L 647.715289 240.454067 
L 653.074233 236.014625 
L 658.433177 231.992646 
L 663.79212 228.385152 
L 669.151064 225.17 
L 674.510007 222.315517 
L 679.868951 219.786244 
L 685.227894 217.546416 
L 690.586838 215.561953 
L 697.138055 213.437387 
L 697.138055 213.437387 
" clip-path="url(#p501c878dbd)" style="fill: none; stroke-dasharray: 5.55,2.4; stroke-dashoffset: 0; stroke: #daa520; stroke-width: 1.5"/>
   </g>
  </g>
  <g id="text_22">
   <!-- Volunteer [p]112 -->
   <g transform="translate(300.348187 30.907125) scale(0.312 -0.312)">
    <defs>
     <path id="DejaVuSans-6e" d="M 3513 2113 
L 3513 0 
L 2938 0 
L 2938 2094 
Q 2938 2591 2744 2837 
Q 2550 3084 2163 3084 
Q 1697 3084 1428 2787 
Q 1159 2491 1159 1978 
L 1159 0 
L 581 0 
L 581 3500 
L 1159 3500 
L 1159 2956 
Q 1366 3272 1645 3428 
Q 1925 3584 2291 3584 
Q 2894 3584 3203 3211 
Q 3513 2838 3513 2113 
z
" transform="scale(0.015625)"/>
     <path id="DejaVuSans-74" d="M 1172 4494 
L 1172 3500 
L 2356 3500 
L 2356 3053 
L 1172 3053 
L 1172 1153 
Q 1172 725 1289 603 
Q 1406 481 1766 481 
L 2356 481 
L 2356 0 
L 1766 0 
Q 1100 0 847 248 
Q 594 497 594 1153 
L 594 3053 
L 172 3053 
L 172 3500 
L 594 3500 
L 594 4494 
L 1172 4494 
z
" transform="scale(0.015625)"/>
     <path id="DejaVuSans-5b" d="M 550 4863 
L 1875 4863 
L 1875 4416 
L 1125 4416 
L 1125 -397 
L 1875 -397 
L 1875 -844 
L 550 -844 
L 550 4863 
z
" transform="scale(0.015625)"/>
     <path id="DejaVuSans-5d" d="M 1947 4863 
L 1947 -844 
L 622 -844 
L 622 -397 
L 1369 -397 
L 1369 4416 
L 622 4416 
L 622 4863 
L 1947 4863 
z
" transform="scale(0.015625)"/>
    </defs>
    <use xlink:href="#DejaVuSans-56"/>
    <use xlink:href="#DejaVuSans-6f" x="60.658203"/>
    <use xlink:href="#DejaVuSans-6c" x="121.839844"/>
    <use xlink:href="#DejaVuSans-75" x="149.623047"/>
    <use xlink:href="#DejaVuSans-6e" x="213.001953"/>
    <use xlink:href="#DejaVuSans-74" x="276.380859"/>
    <use xlink:href="#DejaVuSans-65" x="315.589844"/>
    <use xlink:href="#DejaVuSans-65" x="377.113281"/>
    <use xlink:href="#DejaVuSans-72" x="438.636719"/>
    <use xlink:href="#DejaVuSans-20" x="479.75"/>
    <use xlink:href="#DejaVuSans-5b" x="511.537109"/>
    <use xlink:href="#DejaVuSans-70" x="550.550781"/>
    <use xlink:href="#DejaVuSans-5d" x="614.027344"/>
    <use xlink:href="#DejaVuSans-31" x="653.041016"/>
    <use xlink:href="#DejaVuSans-31" x="716.664062"/>
    <use xlink:href="#DejaVuSans-32" x="780.287109"/>
   </g>
  </g>
 </g>
 <defs>
  <clipPath id="p46898bab1f">
   <rect x="180" y="43.2" width="227.755102" height="277.2"/>
  </clipPath>
  <clipPath id="p501c878dbd">
   <rect x="476.081633" y="43.2" width="227.755102" height="277.2"/>
  </clipPath>
 </defs>
</svg>
