<?xml version="1.0" encoding="utf-8" standalone="no"?>
<!DOCTYPE svg PUBLIC "-//W3C//DTD SVG 1.1//EN"
  "http://www.w3.org/Graphics/SVG/1.1/DTD/svg11.dtd">
<svg xmlns:xlink="http://www.w3.org/1999/xlink" width="1440pt" height="360pt" viewBox="0 0 1440 360" xmlns="http://www.w3.org/2000/svg" version="1.1">
 <metadata>
  <rdf:RDF xmlns:dc="http://purl.org/dc/elements/1.1/" xmlns:cc="http://creativecommons.org/ns#" xmlns:rdf="http://www.w3.org/1999/02/22-rdf-syntax-ns#">
   <cc:Work>
    <dc:type rdf:resource="http://purl.org/dc/dcmitype/StillImage"/>
    <dc:date>2025-01-27T12:23:52.220604</dc:date>
    <dc:format>image/svg+xml</dc:format>
    <dc:creator>
     <cc:Agent>
      <dc:title>Matplotlib v3.9.2, https://matplotlib.org/</dc:title>
     </cc:Agent>
    </dc:creator>
   </cc:Work>
  </rdf:RDF>
 </metadata>
 <defs>
  <style type="text/css">*{stroke-linejoin: round; stroke-linecap: butt}</style>
 </defs>
 <g id="figure_1">
  <g id="patch_1">
   <path d="M 0 360 
L 1440 360 
L 1440 0 
L 0 0 
z
" style="fill: #ffffff"/>
  </g>
  <g id="axes_1">
   <g id="patch_2">
    <path d="M 180 320.4 
L 407.755102 320.4 
L 407.755102 43.2 
L 180 43.2 
z
" style="fill: #ffffff"/>
   </g>
   <g id="matplotlib.axis_1">
    <g id="xtick_1">
     <g id="line2d_1">
      <defs>
       <path id="m6e5420aedf" d="M 0 0 
L 0 3.5 
" style="stroke: #000000; stroke-width: 0.8"/>
      </defs>
      <g>
       <use xlink:href="#m6e5420aedf" x="186.698679" y="320.4" style="stroke: #000000; stroke-width: 0.8"/>
      </g>
     </g>
     <g id="text_1">
      <!-- 0 -->
      <g transform="translate(176.773179 351.107125) scale(0.312 -0.312)">
       <defs>
        <path id="DejaVuSans-30" d="M 2034 4250 
Q 1547 4250 1301 3770 
Q 1056 3291 1056 2328 
Q 1056 1369 1301 889 
Q 1547 409 2034 409 
Q 2525 409 2770 889 
Q 3016 1369 3016 2328 
Q 3016 3291 2770 3770 
Q 2525 4250 2034 4250 
z
M 2034 4750 
Q 2819 4750 3233 4129 
Q 3647 3509 3647 2328 
Q 3647 1150 3233 529 
Q 2819 -91 2034 -91 
Q 1250 -91 836 529 
Q 422 1150 422 2328 
Q 422 3509 836 4129 
Q 1250 4750 2034 4750 
z
" transform="scale(0.015625)"/>
       </defs>
       <use xlink:href="#DejaVuSans-30"/>
      </g>
     </g>
    </g>
    <g id="xtick_2">
     <g id="line2d_2">
      <g>
       <use xlink:href="#m6e5420aedf" x="240.288115" y="320.4" style="stroke: #000000; stroke-width: 0.8"/>
      </g>
     </g>
     <g id="text_2">
      <!-- 2 -->
      <g transform="translate(230.362615 351.107125) scale(0.312 -0.312)">
       <defs>
        <path id="DejaVuSans-32" d="M 1228 531 
L 3431 531 
L 3431 0 
L 469 0 
L 469 531 
Q 828 903 1448 1529 
Q 2069 2156 2228 2338 
Q 2531 2678 2651 2914 
Q 2772 3150 2772 3378 
Q 2772 3750 2511 3984 
Q 2250 4219 1831 4219 
Q 1534 4219 1204 4116 
Q 875 4013 500 3803 
L 500 4441 
Q 881 4594 1212 4672 
Q 1544 4750 1819 4750 
Q 2544 4750 2975 4387 
Q 3406 4025 3406 3419 
Q 3406 3131 3298 2873 
Q 3191 2616 2906 2266 
Q 2828 2175 2409 1742 
Q 1991 1309 1228 531 
z
" transform="scale(0.015625)"/>
       </defs>
       <use xlink:href="#DejaVuSans-32"/>
      </g>
     </g>
    </g>
    <g id="xtick_3">
     <g id="line2d_3">
      <g>
       <use xlink:href="#m6e5420aedf" x="293.877551" y="320.4" style="stroke: #000000; stroke-width: 0.8"/>
      </g>
     </g>
     <g id="text_3">
      <!-- 4 -->
      <g transform="translate(283.952051 351.107125) scale(0.312 -0.312)">
       <defs>
        <path id="DejaVuSans-34" d="M 2419 4116 
L 825 1625 
L 2419 1625 
L 2419 4116 
z
M 2253 4666 
L 3047 4666 
L 3047 1625 
L 3713 1625 
L 3713 1100 
L 3047 1100 
L 3047 0 
L 2419 0 
L 2419 1100 
L 313 1100 
L 313 1709 
L 2253 4666 
z
" transform="scale(0.015625)"/>
       </defs>
       <use xlink:href="#DejaVuSans-34"/>
      </g>
     </g>
    </g>
    <g id="xtick_4">
     <g id="line2d_4">
      <g>
       <use xlink:href="#m6e5420aedf" x="347.466987" y="320.4" style="stroke: #000000; stroke-width: 0.8"/>
      </g>
     </g>
     <g id="text_4">
      <!-- 6 -->
      <g transform="translate(337.541487 351.107125) scale(0.312 -0.312)">
       <defs>
        <path id="DejaVuSans-36" d="M 2113 2584 
Q 1688 2584 1439 2293 
Q 1191 2003 1191 1497 
Q 1191 994 1439 701 
Q 1688 409 2113 409 
Q 2538 409 2786 701 
Q 3034 994 3034 1497 
Q 3034 2003 2786 2293 
Q 2538 2584 2113 2584 
z
M 3366 4563 
L 3366 3988 
Q 3128 4100 2886 4159 
Q 2644 4219 2406 4219 
Q 1781 4219 1451 3797 
Q 1122 3375 1075 2522 
Q 1259 2794 1537 2939 
Q 1816 3084 2150 3084 
Q 2853 3084 3261 2657 
Q 3669 2231 3669 1497 
Q 3669 778 3244 343 
Q 2819 -91 2113 -91 
Q 1303 -91 875 529 
Q 447 1150 447 2328 
Q 447 3434 972 4092 
Q 1497 4750 2381 4750 
Q 2619 4750 2861 4703 
Q 3103 4656 3366 4563 
z
" transform="scale(0.015625)"/>
       </defs>
       <use xlink:href="#DejaVuSans-36"/>
      </g>
     </g>
    </g>
    <g id="xtick_5">
     <g id="line2d_5">
      <g>
       <use xlink:href="#m6e5420aedf" x="401.056423" y="320.4" style="stroke: #000000; stroke-width: 0.8"/>
      </g>
     </g>
     <g id="text_5">
      <!-- 8 -->
      <g transform="translate(391.130923 351.107125) scale(0.312 -0.312)">
       <defs>
        <path id="DejaVuSans-38" d="M 2034 2216 
Q 1584 2216 1326 1975 
Q 1069 1734 1069 1313 
Q 1069 891 1326 650 
Q 1584 409 2034 409 
Q 2484 409 2743 651 
Q 3003 894 3003 1313 
Q 3003 1734 2745 1975 
Q 2488 2216 2034 2216 
z
M 1403 2484 
Q 997 2584 770 2862 
Q 544 3141 544 3541 
Q 544 4100 942 4425 
Q 1341 4750 2034 4750 
Q 2731 4750 3128 4425 
Q 3525 4100 3525 3541 
Q 3525 3141 3298 2862 
Q 3072 2584 2669 2484 
Q 3125 2378 3379 2068 
Q 3634 1759 3634 1313 
Q 3634 634 3220 271 
Q 2806 -91 2034 -91 
Q 1263 -91 848 271 
Q 434 634 434 1313 
Q 434 1759 690 2068 
Q 947 2378 1403 2484 
z
M 1172 3481 
Q 1172 3119 1398 2916 
Q 1625 2713 2034 2713 
Q 2441 2713 2670 2916 
Q 2900 3119 2900 3481 
Q 2900 3844 2670 4047 
Q 2441 4250 2034 4250 
Q 1625 4250 1398 4047 
Q 1172 3844 1172 3481 
z
" transform="scale(0.015625)"/>
       </defs>
       <use xlink:href="#DejaVuSans-38"/>
      </g>
     </g>
    </g>
    <g id="text_6">
     <!-- Time (d) -->
     <g transform="translate(234.10802 383.327281) scale(0.286 -0.286)">
      <defs>
       <path id="DejaVuSans-54" d="M -19 4666 
L 3928 4666 
L 3928 4134 
L 2272 4134 
L 2272 0 
L 1638 0 
L 1638 4134 
L -19 4134 
L -19 4666 
z
" transform="scale(0.015625)"/>
       <path id="DejaVuSans-69" d="M 603 3500 
L 1178 3500 
L 1178 0 
L 603 0 
L 603 3500 
z
M 603 4863 
L 1178 4863 
L 1178 4134 
L 603 4134 
L 603 4863 
z
" transform="scale(0.015625)"/>
       <path id="DejaVuSans-6d" d="M 3328 2828 
Q 3544 3216 3844 3400 
Q 4144 3584 4550 3584 
Q 5097 3584 5394 3201 
Q 5691 2819 5691 2113 
L 5691 0 
L 5113 0 
L 5113 2094 
Q 5113 2597 4934 2840 
Q 4756 3084 4391 3084 
Q 3944 3084 3684 2787 
Q 3425 2491 3425 1978 
L 3425 0 
L 2847 0 
L 2847 2094 
Q 2847 2600 2669 2842 
Q 2491 3084 2119 3084 
Q 1678 3084 1418 2786 
Q 1159 2488 1159 1978 
L 1159 0 
L 581 0 
L 581 3500 
L 1159 3500 
L 1159 2956 
Q 1356 3278 1631 3431 
Q 1906 3584 2284 3584 
Q 2666 3584 2933 3390 
Q 3200 3197 3328 2828 
z
" transform="scale(0.015625)"/>
       <path id="DejaVuSans-65" d="M 3597 1894 
L 3597 1613 
L 953 1613 
Q 991 1019 1311 708 
Q 1631 397 2203 397 
Q 2534 397 2845 478 
Q 3156 559 3463 722 
L 3463 178 
Q 3153 47 2828 -22 
Q 2503 -91 2169 -91 
Q 1331 -91 842 396 
Q 353 884 353 1716 
Q 353 2575 817 3079 
Q 1281 3584 2069 3584 
Q 2775 3584 3186 3129 
Q 3597 2675 3597 1894 
z
M 3022 2063 
Q 3016 2534 2758 2815 
Q 2500 3097 2075 3097 
Q 1594 3097 1305 2825 
Q 1016 2553 972 2059 
L 3022 2063 
z
" transform="scale(0.015625)"/>
       <path id="DejaVuSans-20" transform="scale(0.015625)"/>
       <path id="DejaVuSans-28" d="M 1984 4856 
Q 1566 4138 1362 3434 
Q 1159 2731 1159 2009 
Q 1159 1288 1364 580 
Q 1569 -128 1984 -844 
L 1484 -844 
Q 1016 -109 783 600 
Q 550 1309 550 2009 
Q 550 2706 781 3412 
Q 1013 4119 1484 4856 
L 1984 4856 
z
" transform="scale(0.015625)"/>
       <path id="DejaVuSans-64" d="M 2906 2969 
L 2906 4863 
L 3481 4863 
L 3481 0 
L 2906 0 
L 2906 525 
Q 2725 213 2448 61 
Q 2172 -91 1784 -91 
Q 1150 -91 751 415 
Q 353 922 353 1747 
Q 353 2572 751 3078 
Q 1150 3584 1784 3584 
Q 2172 3584 2448 3432 
Q 2725 3281 2906 2969 
z
M 947 1747 
Q 947 1113 1208 752 
Q 1469 391 1925 391 
Q 2381 391 2643 752 
Q 2906 1113 2906 1747 
Q 2906 2381 2643 2742 
Q 2381 3103 1925 3103 
Q 1469 3103 1208 2742 
Q 947 2381 947 1747 
z
" transform="scale(0.015625)"/>
       <path id="DejaVuSans-29" d="M 513 4856 
L 1013 4856 
Q 1481 4119 1714 3412 
Q 1947 2706 1947 2009 
Q 1947 1309 1714 600 
Q 1481 -109 1013 -844 
L 513 -844 
Q 928 -128 1133 580 
Q 1338 1288 1338 2009 
Q 1338 2731 1133 3434 
Q 928 4138 513 4856 
z
" transform="scale(0.015625)"/>
      </defs>
      <use xlink:href="#DejaVuSans-54"/>
      <use xlink:href="#DejaVuSans-69" x="57.958984"/>
      <use xlink:href="#DejaVuSans-6d" x="85.742188"/>
      <use xlink:href="#DejaVuSans-65" x="183.154297"/>
      <use xlink:href="#DejaVuSans-20" x="244.677734"/>
      <use xlink:href="#DejaVuSans-28" x="276.464844"/>
      <use xlink:href="#DejaVuSans-64" x="315.478516"/>
      <use xlink:href="#DejaVuSans-29" x="378.955078"/>
     </g>
    </g>
   </g>
   <g id="matplotlib.axis_2">
    <g id="ytick_1">
     <g id="line2d_6">
      <defs>
       <path id="m25fdbac390" d="M 0 0 
L -3.5 0 
" style="stroke: #000000; stroke-width: 0.8"/>
      </defs>
      <g>
       <use xlink:href="#m25fdbac390" x="180" y="320.4" style="stroke: #000000; stroke-width: 0.8"/>
      </g>
     </g>
     <g id="text_7">
      <!-- 0 -->
      <g transform="translate(153.149 332.253562) scale(0.312 -0.312)">
       <use xlink:href="#DejaVuSans-30"/>
      </g>
     </g>
    </g>
    <g id="ytick_2">
     <g id="line2d_7">
      <g>
       <use xlink:href="#m25fdbac390" x="180" y="251.1" style="stroke: #000000; stroke-width: 0.8"/>
      </g>
     </g>
     <g id="text_8">
      <!-- 2 -->
      <g transform="translate(153.149 262.953562) scale(0.312 -0.312)">
       <use xlink:href="#DejaVuSans-32"/>
      </g>
     </g>
    </g>
    <g id="ytick_3">
     <g id="line2d_8">
      <g>
       <use xlink:href="#m25fdbac390" x="180" y="181.8" style="stroke: #000000; stroke-width: 0.8"/>
      </g>
     </g>
     <g id="text_9">
      <!-- 4 -->
      <g transform="translate(153.149 193.653562) scale(0.312 -0.312)">
       <use xlink:href="#DejaVuSans-34"/>
      </g>
     </g>
    </g>
    <g id="ytick_4">
     <g id="line2d_9">
      <g>
       <use xlink:href="#m25fdbac390" x="180" y="112.5" style="stroke: #000000; stroke-width: 0.8"/>
      </g>
     </g>
     <g id="text_10">
      <!-- 6 -->
      <g transform="translate(153.149 124.353562) scale(0.312 -0.312)">
       <use xlink:href="#DejaVuSans-36"/>
      </g>
     </g>
    </g>
    <g id="ytick_5">
     <g id="line2d_10">
      <g>
       <use xlink:href="#m25fdbac390" x="180" y="43.2" style="stroke: #000000; stroke-width: 0.8"/>
      </g>
     </g>
     <g id="text_11">
      <!-- 8 -->
      <g transform="translate(153.149 55.053562) scale(0.312 -0.312)">
       <use xlink:href="#DejaVuSans-38"/>
      </g>
     </g>
    </g>
    <g id="text_12">
     <!-- Log$_{10}$ Virus (copies/mL) -->
     <g transform="translate(143.143 349.968) rotate(-90) scale(0.286 -0.286)">
      <defs>
       <path id="DejaVuSans-4c" d="M 628 4666 
L 1259 4666 
L 1259 531 
L 3531 531 
L 3531 0 
L 628 0 
L 628 4666 
z
" transform="scale(0.015625)"/>
       <path id="DejaVuSans-6f" d="M 1959 3097 
Q 1497 3097 1228 2736 
Q 959 2375 959 1747 
Q 959 1119 1226 758 
Q 1494 397 1959 397 
Q 2419 397 2687 759 
Q 2956 1122 2956 1747 
Q 2956 2369 2687 2733 
Q 2419 3097 1959 3097 
z
M 1959 3584 
Q 2709 3584 3137 3096 
Q 3566 2609 3566 1747 
Q 3566 888 3137 398 
Q 2709 -91 1959 -91 
Q 1206 -91 779 398 
Q 353 888 353 1747 
Q 353 2609 779 3096 
Q 1206 3584 1959 3584 
z
" transform="scale(0.015625)"/>
       <path id="DejaVuSans-67" d="M 2906 1791 
Q 2906 2416 2648 2759 
Q 2391 3103 1925 3103 
Q 1463 3103 1205 2759 
Q 947 2416 947 1791 
Q 947 1169 1205 825 
Q 1463 481 1925 481 
Q 2391 481 2648 825 
Q 2906 1169 2906 1791 
z
M 3481 434 
Q 3481 -459 3084 -895 
Q 2688 -1331 1869 -1331 
Q 1566 -1331 1297 -1286 
Q 1028 -1241 775 -1147 
L 775 -588 
Q 1028 -725 1275 -790 
Q 1522 -856 1778 -856 
Q 2344 -856 2625 -561 
Q 2906 -266 2906 331 
L 2906 616 
Q 2728 306 2450 153 
Q 2172 0 1784 0 
Q 1141 0 747 490 
Q 353 981 353 1791 
Q 353 2603 747 3093 
Q 1141 3584 1784 3584 
Q 2172 3584 2450 3431 
Q 2728 3278 2906 2969 
L 2906 3500 
L 3481 3500 
L 3481 434 
z
" transform="scale(0.015625)"/>
       <path id="DejaVuSans-31" d="M 794 531 
L 1825 531 
L 1825 4091 
L 703 3866 
L 703 4441 
L 1819 4666 
L 2450 4666 
L 2450 531 
L 3481 531 
L 3481 0 
L 794 0 
L 794 531 
z
" transform="scale(0.015625)"/>
       <path id="DejaVuSans-56" d="M 1831 0 
L 50 4666 
L 709 4666 
L 2188 738 
L 3669 4666 
L 4325 4666 
L 2547 0 
L 1831 0 
z
" transform="scale(0.015625)"/>
       <path id="DejaVuSans-72" d="M 2631 2963 
Q 2534 3019 2420 3045 
Q 2306 3072 2169 3072 
Q 1681 3072 1420 2755 
Q 1159 2438 1159 1844 
L 1159 0 
L 581 0 
L 581 3500 
L 1159 3500 
L 1159 2956 
Q 1341 3275 1631 3429 
Q 1922 3584 2338 3584 
Q 2397 3584 2469 3576 
Q 2541 3569 2628 3553 
L 2631 2963 
z
" transform="scale(0.015625)"/>
       <path id="DejaVuSans-75" d="M 544 1381 
L 544 3500 
L 1119 3500 
L 1119 1403 
Q 1119 906 1312 657 
Q 1506 409 1894 409 
Q 2359 409 2629 706 
Q 2900 1003 2900 1516 
L 2900 3500 
L 3475 3500 
L 3475 0 
L 2900 0 
L 2900 538 
Q 2691 219 2414 64 
Q 2138 -91 1772 -91 
Q 1169 -91 856 284 
Q 544 659 544 1381 
z
M 1991 3584 
L 1991 3584 
z
" transform="scale(0.015625)"/>
       <path id="DejaVuSans-73" d="M 2834 3397 
L 2834 2853 
Q 2591 2978 2328 3040 
Q 2066 3103 1784 3103 
Q 1356 3103 1142 2972 
Q 928 2841 928 2578 
Q 928 2378 1081 2264 
Q 1234 2150 1697 2047 
L 1894 2003 
Q 2506 1872 2764 1633 
Q 3022 1394 3022 966 
Q 3022 478 2636 193 
Q 2250 -91 1575 -91 
Q 1294 -91 989 -36 
Q 684 19 347 128 
L 347 722 
Q 666 556 975 473 
Q 1284 391 1588 391 
Q 1994 391 2212 530 
Q 2431 669 2431 922 
Q 2431 1156 2273 1281 
Q 2116 1406 1581 1522 
L 1381 1569 
Q 847 1681 609 1914 
Q 372 2147 372 2553 
Q 372 3047 722 3315 
Q 1072 3584 1716 3584 
Q 2034 3584 2315 3537 
Q 2597 3491 2834 3397 
z
" transform="scale(0.015625)"/>
       <path id="DejaVuSans-63" d="M 3122 3366 
L 3122 2828 
Q 2878 2963 2633 3030 
Q 2388 3097 2138 3097 
Q 1578 3097 1268 2742 
Q 959 2388 959 1747 
Q 959 1106 1268 751 
Q 1578 397 2138 397 
Q 2388 397 2633 464 
Q 2878 531 3122 666 
L 3122 134 
Q 2881 22 2623 -34 
Q 2366 -91 2075 -91 
Q 1284 -91 818 406 
Q 353 903 353 1747 
Q 353 2603 823 3093 
Q 1294 3584 2113 3584 
Q 2378 3584 2631 3529 
Q 2884 3475 3122 3366 
z
" transform="scale(0.015625)"/>
       <path id="DejaVuSans-70" d="M 1159 525 
L 1159 -1331 
L 581 -1331 
L 581 3500 
L 1159 3500 
L 1159 2969 
Q 1341 3281 1617 3432 
Q 1894 3584 2278 3584 
Q 2916 3584 3314 3078 
Q 3713 2572 3713 1747 
Q 3713 922 3314 415 
Q 2916 -91 2278 -91 
Q 1894 -91 1617 61 
Q 1341 213 1159 525 
z
M 3116 1747 
Q 3116 2381 2855 2742 
Q 2594 3103 2138 3103 
Q 1681 3103 1420 2742 
Q 1159 2381 1159 1747 
Q 1159 1113 1420 752 
Q 1681 391 2138 391 
Q 2594 391 2855 752 
Q 3116 1113 3116 1747 
z
" transform="scale(0.015625)"/>
       <path id="DejaVuSans-2f" d="M 1625 4666 
L 2156 4666 
L 531 -594 
L 0 -594 
L 1625 4666 
z
" transform="scale(0.015625)"/>
      </defs>
      <use xlink:href="#DejaVuSans-4c" transform="translate(0 0.015625)"/>
      <use xlink:href="#DejaVuSans-6f" transform="translate(55.712891 0.015625)"/>
      <use xlink:href="#DejaVuSans-67" transform="translate(116.894531 0.015625)"/>
      <use xlink:href="#DejaVuSans-31" transform="translate(181.328125 -16.390625) scale(0.7)"/>
      <use xlink:href="#DejaVuSans-30" transform="translate(225.864258 -16.390625) scale(0.7)"/>
      <use xlink:href="#DejaVuSans-20" transform="translate(273.134766 0.015625)"/>
      <use xlink:href="#DejaVuSans-56" transform="translate(304.921875 0.015625)"/>
      <use xlink:href="#DejaVuSans-69" transform="translate(373.330078 0.015625)"/>
      <use xlink:href="#DejaVuSans-72" transform="translate(401.113281 0.015625)"/>
      <use xlink:href="#DejaVuSans-75" transform="translate(442.226562 0.015625)"/>
      <use xlink:href="#DejaVuSans-73" transform="translate(505.605469 0.015625)"/>
      <use xlink:href="#DejaVuSans-20" transform="translate(557.705078 0.015625)"/>
      <use xlink:href="#DejaVuSans-28" transform="translate(589.492188 0.015625)"/>
      <use xlink:href="#DejaVuSans-63" transform="translate(628.505859 0.015625)"/>
      <use xlink:href="#DejaVuSans-6f" transform="translate(683.486328 0.015625)"/>
      <use xlink:href="#DejaVuSans-70" transform="translate(744.667969 0.015625)"/>
      <use xlink:href="#DejaVuSans-69" transform="translate(808.144531 0.015625)"/>
      <use xlink:href="#DejaVuSans-65" transform="translate(835.927734 0.015625)"/>
      <use xlink:href="#DejaVuSans-73" transform="translate(897.451172 0.015625)"/>
      <use xlink:href="#DejaVuSans-2f" transform="translate(949.550781 0.015625)"/>
      <use xlink:href="#DejaVuSans-6d" transform="translate(983.242188 0.015625)"/>
      <use xlink:href="#DejaVuSans-4c" transform="translate(1080.654297 0.015625)"/>
      <use xlink:href="#DejaVuSans-29" transform="translate(1136.367188 0.015625)"/>
     </g>
    </g>
   </g>
   <g id="patch_3">
    <path d="M 180 320.4 
L 180 43.2 
" style="fill: none; stroke: #000000; stroke-width: 0.8; stroke-linejoin: miter; stroke-linecap: square"/>
   </g>
   <g id="patch_4">
    <path d="M 407.755102 320.4 
L 407.755102 43.2 
" style="fill: none; stroke: #000000; stroke-width: 0.8; stroke-linejoin: miter; stroke-linecap: square"/>
   </g>
   <g id="patch_5">
    <path d="M 180 320.4 
L 407.755102 320.4 
" style="fill: none; stroke: #000000; stroke-width: 0.8; stroke-linejoin: miter; stroke-linecap: square"/>
   </g>
   <g id="patch_6">
    <path d="M 180 43.2 
L 407.755102 43.2 
" style="fill: none; stroke: #000000; stroke-width: 0.8; stroke-linejoin: miter; stroke-linecap: square"/>
   </g>
   <g id="PolyCollection_1">
    <defs>
     <path id="m82864cc31b" d="M 186.698679 -39.6 
L 186.698679 -39.6 
L 186.699132 -39.6 
L 186.703658 -39.6 
L 186.748915 -39.6 
L 186.870805 -39.6 
L 186.997546 -39.6 
L 187.33549 -39.6 
L 187.725231 -39.6 
L 188.557172 -39.6 
L 189.203883 -39.6 
L 190.502974 -39.6 
L 191.288883 -39.6 
L 192.732746 -41.826379 
L 193.57929 -46.93934 
L 194.959354 -55.212317 
L 195.864055 -60.661797 
L 197.253997 -68.992248 
L 198.196449 -74.640139 
L 199.5683 -82.850364 
L 200.539308 -88.462338 
L 202.041984 -96.758976 
L 202.992477 -102.020511 
L 204.291326 -109.175888 
L 205.27698 -114.621937 
L 206.687043 -122.391868 
L 207.662673 -127.790666 
L 208.966413 -134.963841 
L 209.961138 -140.450663 
L 211.357249 -148.120772 
L 212.337377 -153.518857 
L 213.637255 -160.635728 
L 214.636346 -166.090356 
L 216.031881 -173.658804 
L 217.029591 -179.020734 
L 218.530593 -186.981702 
L 219.521778 -192.09276 
L 220.886761 -198.964574 
L 221.91961 -203.866122 
L 223.404627 -210.489656 
L 224.454461 -214.633875 
L 225.927169 -219.826803 
L 227.01445 -222.928845 
L 228.429417 -225.48553 
L 229.414926 -226.413448 
L 230.64007 -227.290112 
L 231.604645 -227.823985 
L 232.611579 -228.242575 
L 233.422512 -228.505259 
L 234.167971 -228.695293 
L 234.808632 -228.824699 
L 235.450629 -228.929812 
L 235.969628 -228.995695 
L 236.420471 -229.041623 
L 236.87792 -229.077956 
L 237.256236 -229.101205 
L 238.253404 -229.13237 
L 238.742826 -229.13677 
L 239.843693 -229.113837 
L 240.434169 -229.089686 
L 241.683523 -229.00679 
L 242.451525 -228.941 
L 244.303803 -228.737884 
L 245.473124 -228.582878 
L 248.124333 -228.177345 
L 249.500984 -227.940426 
L 252.180456 -227.44812 
L 253.73892 -227.141221 
L 256.418391 -226.595048 
L 258.156862 -226.224124 
L 260.770476 -225.649681 
L 263.38409 -225.053702 
L 266.037518 -224.427715 
L 268.71699 -223.77288 
L 271.396462 -223.093949 
L 274.075933 -222.389456 
L 276.755405 -221.658 
L 279.434877 -220.898394 
L 282.114349 -220.109748 
L 284.793821 -219.291481 
L 287.473292 -218.443304 
L 290.152764 -217.565155 
L 292.832236 -216.657134 
L 295.511708 -215.719411 
L 298.191179 -214.752155 
L 300.870651 -213.755449 
L 303.550123 -212.729222 
L 306.229595 -211.673187 
L 308.909067 -210.586786 
L 311.588538 -209.469139 
L 314.26801 -208.318995 
L 316.947482 -207.134682 
L 319.626954 -205.914052 
L 322.306426 -204.654415 
L 324.985897 -203.352454 
L 327.665369 -202.004121 
L 330.344841 -200.604494 
L 333.024313 -199.147585 
L 335.703785 -197.626089 
L 338.383256 -195.873858 
L 341.062728 -193.992337 
L 343.7422 -192.021485 
L 346.421672 -189.945572 
L 349.101143 -187.744312 
L 351.780615 -185.390951 
L 354.460087 -182.84921 
L 357.139559 -180.068189 
L 359.819031 -176.973316 
L 362.498502 -173.448996 
L 365.177974 -169.301797 
L 367.857446 -164.170255 
L 370.536918 -156.041787 
L 373.21639 -139.693519 
L 374.556125 -67.97345 
L 374.824073 -45.086069 
L 374.919875 -42.398976 
L 375.037427 -39.6 
L 375.06466 -39.6 
L 375.168933 -39.6 
L 375.214558 -39.6 
L 375.237908 -39.6 
L 375.322827 -39.6 
L 375.366675 -39.6 
L 375.397201 -39.6 
L 375.515026 -39.6 
L 375.592842 -39.6 
L 375.808596 -39.6 
L 375.93243 -39.6 
L 376.220496 -39.6 
L 376.412472 -39.6 
L 376.996068 -39.6 
L 377.579665 -39.6 
L 379.082419 -39.6 
L 381.133348 -39.6 
L 383.378636 -39.6 
L 386.058108 -39.6 
L 388.73758 -39.6 
L 391.417052 -39.6 
L 394.096523 -39.6 
L 396.775995 -39.6 
L 399.455467 -39.6 
L 401.056423 -39.6 
L 401.056423 -39.6 
L 401.056423 -39.6 
L 399.455467 -39.6 
L 396.775995 -39.6 
L 394.096523 -39.6 
L 391.417052 -39.6 
L 388.73758 -39.6 
L 386.058108 -39.6 
L 383.378636 -39.6 
L 381.133348 -39.6 
L 379.082419 -39.6 
L 377.579665 -99.100609 
L 376.996068 -117.234926 
L 376.412472 -129.105373 
L 376.220496 -132.646014 
L 375.93243 -136.183803 
L 375.808596 -137.704628 
L 375.592842 -140.354331 
L 375.515026 -140.889939 
L 375.397201 -141.581164 
L 375.366675 -141.760249 
L 375.322827 -142.017484 
L 375.237908 -142.51566 
L 375.214558 -142.652647 
L 375.168933 -142.920304 
L 375.06466 -143.532029 
L 375.037427 -143.691788 
L 374.919875 -144.381411 
L 374.824073 -144.964101 
L 374.556125 -146.518522 
L 373.21639 -155.284625 
L 370.536918 -165.739496 
L 367.857446 -173.261746 
L 365.177974 -178.534778 
L 362.498502 -182.660993 
L 359.819031 -186.088929 
L 357.139559 -189.046301 
L 354.460087 -191.664815 
L 351.780615 -194.027587 
L 349.101143 -196.190451 
L 346.421672 -198.192734 
L 343.7422 -200.063173 
L 341.062728 -201.823404 
L 338.383256 -203.490109 
L 335.703785 -205.076413 
L 333.024313 -206.592813 
L 330.344841 -208.047815 
L 327.665369 -209.511635 
L 324.985897 -210.99629 
L 322.306426 -212.436661 
L 319.626954 -213.836493 
L 316.947482 -215.198854 
L 314.26801 -216.526238 
L 311.588538 -217.82064 
L 308.909067 -219.083619 
L 306.229595 -220.316358 
L 303.550123 -221.519711 
L 300.870651 -222.694256 
L 298.191179 -223.840348 
L 295.511708 -224.958175 
L 292.832236 -226.047822 
L 290.152764 -227.109337 
L 287.473292 -228.142802 
L 284.793821 -229.148404 
L 282.114349 -230.126495 
L 279.434877 -231.077647 
L 276.755405 -232.002673 
L 274.075933 -232.902617 
L 271.396462 -233.778694 
L 268.71699 -234.63217 
L 266.037518 -235.464682 
L 263.38409 -236.269288 
L 260.770476 -237.040146 
L 258.156862 -237.791069 
L 256.418391 -238.276374 
L 253.73892 -239.001659 
L 252.180456 -239.406895 
L 249.500984 -240.067918 
L 248.124333 -240.389409 
L 245.473124 -240.939366 
L 244.303803 -241.161665 
L 242.451525 -241.455525 
L 241.683523 -241.554745 
L 240.434169 -241.686878 
L 239.843693 -241.729153 
L 238.742826 -241.788565 
L 238.253404 -241.797585 
L 237.256236 -241.78428 
L 236.87792 -241.765658 
L 236.420471 -241.734064 
L 235.969628 -241.6914 
L 235.450629 -241.626124 
L 234.808632 -241.517119 
L 234.167971 -241.373197 
L 233.422512 -241.158948 
L 232.611579 -240.857357 
L 231.604645 -240.361513 
L 230.64007 -239.751477 
L 229.414926 -238.703502 
L 228.429417 -237.569368 
L 227.01445 -235.896814 
L 225.927169 -234.301659 
L 224.454461 -231.209547 
L 223.404627 -228.489529 
L 221.91961 -223.357408 
L 220.886761 -219.268776 
L 219.521778 -212.884031 
L 218.530593 -207.883982 
L 217.029591 -199.696449 
L 216.031881 -194.051643 
L 214.636346 -185.905132 
L 213.637255 -179.982741 
L 212.337377 -172.190312 
L 211.357249 -166.26789 
L 209.961138 -157.816348 
L 208.966413 -151.772053 
L 207.662673 -143.839606 
L 206.687043 -137.885309 
L 205.27698 -129.299828 
L 204.291326 -123.292675 
L 202.992477 -115.360376 
L 202.041984 -109.621043 
L 200.539308 -100.516453 
L 199.5683 -94.654086 
L 198.196449 -86.356548 
L 197.253997 -80.672676 
L 195.864055 -72.261776 
L 194.959354 -66.898665 
L 193.57929 -58.779157 
L 192.732746 -53.819953 
L 191.288883 -45.197584 
L 190.502974 -41.503551 
L 189.203883 -39.624326 
L 188.557172 -39.6 
L 187.725231 -39.6 
L 187.33549 -39.6 
L 186.997546 -39.6 
L 186.870805 -39.6 
L 186.748915 -39.6 
L 186.703658 -39.6 
L 186.699132 -39.6 
L 186.698679 -39.6 
z
" style="stroke: #808080; stroke-opacity: 0.2"/>
    </defs>
    <g clip-path="url(#p58507b6717)">
     <use xlink:href="#m82864cc31b" x="0" y="360" style="fill: #808080; fill-opacity: 0.2; stroke: #808080; stroke-opacity: 0.2"/>
    </g>
   </g>
   <g id="PathCollection_1">
    <defs>
     <path id="m285628ac6f" d="M 0 4.330127 
C 1.148363 4.330127 2.249847 3.873878 3.061862 3.061862 
C 3.873878 2.249847 4.330127 1.148363 4.330127 0 
C 4.330127 -1.148363 3.873878 -2.249847 3.061862 -3.061862 
C 2.249847 -3.873878 1.148363 -4.330127 0 -4.330127 
C -1.148363 -4.330127 -2.249847 -3.873878 -3.061862 -3.061862 
C -3.873878 -2.249847 -4.330127 -1.148363 -4.330127 0 
C -4.330127 1.148363 -3.873878 2.249847 -3.061862 3.061862 
C -2.249847 3.873878 -1.148363 4.330127 0 4.330127 
z
" style="stroke: #808080; stroke-opacity: 0.8"/>
    </defs>
    <g clip-path="url(#p58507b6717)">
     <use xlink:href="#m285628ac6f" x="186.698679" y="320.4" style="fill: #808080; fill-opacity: 0.8; stroke: #808080; stroke-opacity: 0.8"/>
     <use xlink:href="#m285628ac6f" x="213.493397" y="187.90081" style="fill: #808080; fill-opacity: 0.8; stroke: #808080; stroke-opacity: 0.8"/>
     <use xlink:href="#m285628ac6f" x="240.288115" y="133.46933" style="fill: #808080; fill-opacity: 0.8; stroke: #808080; stroke-opacity: 0.8"/>
     <use xlink:href="#m285628ac6f" x="267.082833" y="116.956735" style="fill: #808080; fill-opacity: 0.8; stroke: #808080; stroke-opacity: 0.8"/>
     <use xlink:href="#m285628ac6f" x="293.877551" y="142.912608" style="fill: #808080; fill-opacity: 0.8; stroke: #808080; stroke-opacity: 0.8"/>
     <use xlink:href="#m285628ac6f" x="320.672269" y="176.236646" style="fill: #808080; fill-opacity: 0.8; stroke: #808080; stroke-opacity: 0.8"/>
     <use xlink:href="#m285628ac6f" x="347.466987" y="140.331054" style="fill: #808080; fill-opacity: 0.8; stroke: #808080; stroke-opacity: 0.8"/>
     <use xlink:href="#m285628ac6f" x="374.261705" y="235.39252" style="fill: #808080; fill-opacity: 0.8; stroke: #808080; stroke-opacity: 0.8"/>
    </g>
   </g>
   <g id="line2d_11">
    <path d="M 186.698679 320.4 
L 191.288883 320.4 
L 193.57929 307.519223 
L 212.337377 195.07512 
L 217.029591 167.873983 
L 219.521778 154.645666 
L 221.91961 143.853055 
L 223.404627 138.556449 
L 224.454461 135.515673 
L 225.927169 132.202953 
L 227.01445 130.368128 
L 228.429417 128.599017 
L 229.414926 127.686921 
L 230.64007 126.828239 
L 232.611579 125.91311 
L 234.167971 125.477872 
L 236.420471 125.152465 
L 238.742826 125.076874 
L 241.683523 125.229947 
L 245.473124 125.685369 
L 252.180456 126.877413 
L 258.156862 128.158424 
L 266.037518 130.043588 
L 274.075933 132.185582 
L 282.114349 134.569852 
L 290.152764 137.203897 
L 298.191179 140.080363 
L 306.229595 143.193982 
L 314.26801 146.556721 
L 322.306426 150.20791 
L 327.665369 152.838402 
L 333.024313 155.666304 
L 338.383256 158.744041 
L 343.7422 162.150213 
L 349.101143 166.008948 
L 351.780615 168.168749 
L 354.460087 170.532342 
L 357.139559 173.157151 
L 359.819031 176.128866 
L 362.498502 179.583668 
L 365.177974 183.757735 
L 367.857446 189.117645 
L 370.536918 196.810553 
L 373.21639 211.373913 
L 374.556125 232.019506 
L 374.919875 249.219735 
L 375.808596 320.4 
L 401.056423 320.4 
L 401.056423 320.4 
" clip-path="url(#p58507b6717)" style="fill: none; stroke: #808080; stroke-width: 1.5; stroke-linecap: square"/>
   </g>
  </g>
  <g id="axes_2">
   <g id="patch_7">
    <path d="M 476.081633 320.4 
L 703.836735 320.4 
L 703.836735 43.2 
L 476.081633 43.2 
z
" style="fill: #ffffff"/>
   </g>
   <g id="matplotlib.axis_3">
    <g id="xtick_6">
     <g id="line2d_12">
      <g>
       <use xlink:href="#m6e5420aedf" x="482.780312" y="320.4" style="stroke: #000000; stroke-width: 0.8"/>
      </g>
     </g>
     <g id="text_13">
      <!-- 0 -->
      <g transform="translate(472.854812 351.107125) scale(0.312 -0.312)">
       <use xlink:href="#DejaVuSans-30"/>
      </g>
     </g>
    </g>
    <g id="xtick_7">
     <g id="line2d_13">
      <g>
       <use xlink:href="#m6e5420aedf" x="536.369748" y="320.4" style="stroke: #000000; stroke-width: 0.8"/>
      </g>
     </g>
     <g id="text_14">
      <!-- 2 -->
      <g transform="translate(526.444248 351.107125) scale(0.312 -0.312)">
       <use xlink:href="#DejaVuSans-32"/>
      </g>
     </g>
    </g>
    <g id="xtick_8">
     <g id="line2d_14">
      <g>
       <use xlink:href="#m6e5420aedf" x="589.959184" y="320.4" style="stroke: #000000; stroke-width: 0.8"/>
      </g>
     </g>
     <g id="text_15">
      <!-- 4 -->
      <g transform="translate(580.033684 351.107125) scale(0.312 -0.312)">
       <use xlink:href="#DejaVuSans-34"/>
      </g>
     </g>
    </g>
    <g id="xtick_9">
     <g id="line2d_15">
      <g>
       <use xlink:href="#m6e5420aedf" x="643.548619" y="320.4" style="stroke: #000000; stroke-width: 0.8"/>
      </g>
     </g>
     <g id="text_16">
      <!-- 6 -->
      <g transform="translate(633.623119 351.107125) scale(0.312 -0.312)">
       <use xlink:href="#DejaVuSans-36"/>
      </g>
     </g>
    </g>
    <g id="xtick_10">
     <g id="line2d_16">
      <g>
       <use xlink:href="#m6e5420aedf" x="697.138055" y="320.4" style="stroke: #000000; stroke-width: 0.8"/>
      </g>
     </g>
     <g id="text_17">
      <!-- 8 -->
      <g transform="translate(687.212555 351.107125) scale(0.312 -0.312)">
       <use xlink:href="#DejaVuSans-38"/>
      </g>
     </g>
    </g>
    <g id="text_18">
     <!-- Time (d) -->
     <g transform="translate(530.189652 383.327281) scale(0.286 -0.286)">
      <use xlink:href="#DejaVuSans-54"/>
      <use xlink:href="#DejaVuSans-69" x="57.958984"/>
      <use xlink:href="#DejaVuSans-6d" x="85.742188"/>
      <use xlink:href="#DejaVuSans-65" x="183.154297"/>
      <use xlink:href="#DejaVuSans-20" x="244.677734"/>
      <use xlink:href="#DejaVuSans-28" x="276.464844"/>
      <use xlink:href="#DejaVuSans-64" x="315.478516"/>
      <use xlink:href="#DejaVuSans-29" x="378.955078"/>
     </g>
    </g>
   </g>
   <g id="matplotlib.axis_4">
    <g id="ytick_6">
     <g id="line2d_17">
      <g>
       <use xlink:href="#m25fdbac390" x="476.081633" y="258.8" style="stroke: #000000; stroke-width: 0.8"/>
      </g>
     </g>
     <g id="text_19">
      <!-- 4 -->
      <g transform="translate(449.230633 270.653562) scale(0.312 -0.312)">
       <use xlink:href="#DejaVuSans-34"/>
      </g>
     </g>
    </g>
    <g id="ytick_7">
     <g id="line2d_18">
      <g>
       <use xlink:href="#m25fdbac390" x="476.081633" y="135.6" style="stroke: #000000; stroke-width: 0.8"/>
      </g>
     </g>
     <g id="text_20">
      <!-- 6 -->
      <g transform="translate(449.230633 147.453563) scale(0.312 -0.312)">
       <use xlink:href="#DejaVuSans-36"/>
      </g>
     </g>
    </g>
    <g id="text_21">
     <!-- Log$_{10}$ CD8$^+$ T cells -->
     <g transform="translate(439.224633 318.222) rotate(-90) scale(0.286 -0.286)">
      <defs>
       <path id="DejaVuSans-43" d="M 4122 4306 
L 4122 3641 
Q 3803 3938 3442 4084 
Q 3081 4231 2675 4231 
Q 1875 4231 1450 3742 
Q 1025 3253 1025 2328 
Q 1025 1406 1450 917 
Q 1875 428 2675 428 
Q 3081 428 3442 575 
Q 3803 722 4122 1019 
L 4122 359 
Q 3791 134 3420 21 
Q 3050 -91 2638 -91 
Q 1578 -91 968 557 
Q 359 1206 359 2328 
Q 359 3453 968 4101 
Q 1578 4750 2638 4750 
Q 3056 4750 3426 4639 
Q 3797 4528 4122 4306 
z
" transform="scale(0.015625)"/>
       <path id="DejaVuSans-44" d="M 1259 4147 
L 1259 519 
L 2022 519 
Q 2988 519 3436 956 
Q 3884 1394 3884 2338 
Q 3884 3275 3436 3711 
Q 2988 4147 2022 4147 
L 1259 4147 
z
M 628 4666 
L 1925 4666 
Q 3281 4666 3915 4102 
Q 4550 3538 4550 2338 
Q 4550 1131 3912 565 
Q 3275 0 1925 0 
L 628 0 
L 628 4666 
z
" transform="scale(0.015625)"/>
       <path id="DejaVuSans-2b" d="M 2944 4013 
L 2944 2272 
L 4684 2272 
L 4684 1741 
L 2944 1741 
L 2944 0 
L 2419 0 
L 2419 1741 
L 678 1741 
L 678 2272 
L 2419 2272 
L 2419 4013 
L 2944 4013 
z
" transform="scale(0.015625)"/>
       <path id="DejaVuSans-6c" d="M 603 4863 
L 1178 4863 
L 1178 0 
L 603 0 
L 603 4863 
z
" transform="scale(0.015625)"/>
      </defs>
      <use xlink:href="#DejaVuSans-4c" transform="translate(0 0.826562)"/>
      <use xlink:href="#DejaVuSans-6f" transform="translate(55.712891 0.826562)"/>
      <use xlink:href="#DejaVuSans-67" transform="translate(116.894531 0.826562)"/>
      <use xlink:href="#DejaVuSans-31" transform="translate(181.328125 -15.579688) scale(0.7)"/>
      <use xlink:href="#DejaVuSans-30" transform="translate(225.864258 -15.579688) scale(0.7)"/>
      <use xlink:href="#DejaVuSans-20" transform="translate(273.134766 0.826562)"/>
      <use xlink:href="#DejaVuSans-43" transform="translate(304.921875 0.826562)"/>
      <use xlink:href="#DejaVuSans-44" transform="translate(374.746094 0.826562)"/>
      <use xlink:href="#DejaVuSans-38" transform="translate(451.748047 0.826562)"/>
      <use xlink:href="#DejaVuSans-2b" transform="translate(529.96582 39.107812) scale(0.7)"/>
      <use xlink:href="#DejaVuSans-20" transform="translate(604.990234 0.826562)"/>
      <use xlink:href="#DejaVuSans-54" transform="translate(636.777344 0.826562)"/>
      <use xlink:href="#DejaVuSans-20" transform="translate(697.861328 0.826562)"/>
      <use xlink:href="#DejaVuSans-63" transform="translate(729.648438 0.826562)"/>
      <use xlink:href="#DejaVuSans-65" transform="translate(784.628906 0.826562)"/>
      <use xlink:href="#DejaVuSans-6c" transform="translate(846.152344 0.826562)"/>
      <use xlink:href="#DejaVuSans-6c" transform="translate(873.935547 0.826562)"/>
      <use xlink:href="#DejaVuSans-73" transform="translate(901.71875 0.826562)"/>
     </g>
    </g>
   </g>
   <g id="patch_8">
    <path d="M 476.081633 320.4 
L 476.081633 43.2 
" style="fill: none; stroke: #000000; stroke-width: 0.8; stroke-linejoin: miter; stroke-linecap: square"/>
   </g>
   <g id="patch_9">
    <path d="M 703.836735 320.4 
L 703.836735 43.2 
" style="fill: none; stroke: #000000; stroke-width: 0.8; stroke-linejoin: miter; stroke-linecap: square"/>
   </g>
   <g id="patch_10">
    <path d="M 476.081633 320.4 
L 703.836735 320.4 
" style="fill: none; stroke: #000000; stroke-width: 0.8; stroke-linejoin: miter; stroke-linecap: square"/>
   </g>
   <g id="patch_11">
    <path d="M 476.081633 43.2 
L 703.836735 43.2 
" style="fill: none; stroke: #000000; stroke-width: 0.8; stroke-linejoin: miter; stroke-linecap: square"/>
   </g>
   <g id="PolyCollection_2">
    <defs>
     <path id="m2993430793" d="M 482.780312 -163.63984 
L 482.780312 -163.63984 
L 482.780765 -163.63984 
L 482.78529 -163.63984 
L 482.830548 -163.63984 
L 482.952437 -163.63984 
L 483.079179 -163.63984 
L 483.417122 -163.63984 
L 483.806864 -163.63984 
L 484.638804 -163.63984 
L 485.285516 -163.63984 
L 486.584606 -163.63984 
L 487.370516 -163.63984 
L 488.814378 -163.63984 
L 489.660923 -163.63984 
L 491.040986 -163.63984 
L 491.945687 -163.63984 
L 493.335629 -163.63984 
L 494.278081 -163.63984 
L 495.649932 -163.63984 
L 496.62094 -163.63984 
L 498.123617 -163.63984 
L 499.07411 -163.63984 
L 500.372959 -163.63984 
L 501.358613 -163.63984 
L 502.768676 -163.63984 
L 503.744306 -163.639841 
L 505.048045 -163.639841 
L 506.04277 -163.639841 
L 507.438882 -163.639841 
L 508.419009 -163.639842 
L 509.718887 -163.639844 
L 510.717978 -163.639845 
L 512.113514 -163.63985 
L 513.111224 -163.639854 
L 514.612226 -163.639867 
L 515.60341 -163.63988 
L 516.968394 -163.63991 
L 518.001243 -163.639946 
L 519.48626 -163.640034 
L 520.536094 -163.640132 
L 522.008802 -163.64037 
L 523.096083 -163.640648 
L 524.51105 -163.641261 
L 525.496559 -163.641913 
L 526.721703 -163.643193 
L 527.686278 -163.64468 
L 528.693211 -163.646955 
L 529.504145 -163.649472 
L 530.249604 -163.652547 
L 530.890265 -163.65591 
L 531.532262 -163.660144 
L 532.05126 -163.664318 
L 532.502104 -163.668605 
L 532.959553 -163.673643 
L 533.337869 -163.678439 
L 534.335037 -163.69449 
L 534.824459 -163.704598 
L 535.925326 -163.733433 
L 536.515801 -163.75428 
L 537.765156 -163.80993 
L 538.533157 -163.859479 
L 540.385436 -164.015084 
L 541.554756 -164.17949 
L 544.205965 -164.69172 
L 545.582616 -165.122191 
L 548.262088 -166.268016 
L 549.820552 -167.170088 
L 552.500024 -169.339769 
L 554.238495 -170.992566 
L 556.852108 -174.109669 
L 559.465722 -177.634657 
L 562.119151 -181.577862 
L 564.798622 -185.700085 
L 567.478094 -189.813625 
L 570.157566 -193.785499 
L 572.837038 -197.521183 
L 575.51651 -200.960703 
L 578.195981 -204.071567 
L 580.875453 -206.841518 
L 583.554925 -209.272418 
L 586.234397 -211.375536 
L 588.913869 -213.168122 
L 591.59334 -213.729243 
L 594.272812 -214.059441 
L 596.952284 -214.215296 
L 599.631756 -214.223198 
L 602.311228 -214.106892 
L 604.990699 -213.887458 
L 607.670171 -213.583354 
L 610.349643 -213.210539 
L 613.029115 -212.782638 
L 615.708586 -212.31114 
L 618.388058 -211.805618 
L 621.06753 -211.273954 
L 623.747002 -210.447535 
L 626.426474 -209.556538 
L 629.105945 -208.665129 
L 631.785417 -207.77541 
L 634.464889 -206.888998 
L 637.144361 -206.007141 
L 639.823833 -205.130807 
L 642.503304 -204.260754 
L 645.182776 -203.397585 
L 647.862248 -202.541785 
L 650.54172 -201.693755 
L 653.221191 -200.853832 
L 655.900663 -200.02231 
L 658.580135 -199.199445 
L 661.259607 -198.312764 
L 663.939079 -197.43055 
L 666.61855 -196.559469 
L 669.298022 -195.699803 
L 670.637758 -195.273738 
L 670.905705 -195.188907 
L 671.001508 -195.158576 
L 671.11906 -195.121359 
L 671.146292 -195.112737 
L 671.250566 -195.079735 
L 671.29619 -195.065367 
L 671.319541 -195.058013 
L 671.404459 -195.031271 
L 671.448307 -195.017462 
L 671.478834 -195.007849 
L 671.596659 -194.970743 
L 671.674475 -194.946237 
L 671.890228 -194.878292 
L 672.014062 -194.83941 
L 672.302129 -194.748989 
L 672.494104 -194.688735 
L 673.077701 -194.506125 
L 673.661298 -194.324086 
L 675.164052 -193.858171 
L 677.214981 -193.228842 
L 679.460269 -192.547378 
L 682.139741 -191.746134 
L 684.819213 -190.957184 
L 687.498684 -190.181107 
L 690.178156 -189.418068 
L 692.857628 -188.668217 
L 695.5371 -187.931694 
L 697.138055 -187.49682 
L 697.138055 -207.930629 
L 697.138055 -207.930629 
L 695.5371 -208.234895 
L 692.857628 -208.745831 
L 690.178156 -209.258993 
L 687.498684 -209.774347 
L 684.819213 -210.291857 
L 682.139741 -210.81149 
L 679.460269 -211.333188 
L 677.214981 -211.772046 
L 675.164052 -212.173949 
L 673.661298 -212.469225 
L 673.077701 -212.584061 
L 672.494104 -212.699001 
L 672.302129 -212.73683 
L 672.014062 -212.793612 
L 671.890228 -212.818029 
L 671.674475 -212.86058 
L 671.596659 -212.875929 
L 671.478834 -212.899175 
L 671.448307 -212.905198 
L 671.404459 -212.913849 
L 671.319541 -212.930607 
L 671.29619 -212.935216 
L 671.250566 -212.944221 
L 671.146292 -212.964801 
L 671.11906 -212.970176 
L 671.001508 -212.993382 
L 670.905705 -213.012297 
L 670.637758 -213.065215 
L 669.298022 -213.330088 
L 666.61855 -213.861236 
L 663.939079 -214.394203 
L 661.259607 -214.928918 
L 658.580135 -215.465294 
L 655.900663 -216.003222 
L 653.221191 -216.542564 
L 650.54172 -217.083137 
L 647.862248 -217.624703 
L 645.182776 -218.166945 
L 642.503304 -218.709442 
L 639.823833 -219.251634 
L 637.144361 -219.792775 
L 634.464889 -220.331878 
L 631.785417 -220.86764 
L 629.105945 -221.398353 
L 626.426474 -221.921795 
L 623.747002 -222.435097 
L 621.06753 -222.934583 
L 618.388058 -223.454974 
L 615.708586 -224.100097 
L 613.029115 -224.699169 
L 610.349643 -225.240743 
L 607.670171 -225.711375 
L 604.990699 -226.095433 
L 602.311228 -226.374942 
L 599.631756 -226.529441 
L 596.952284 -226.535886 
L 594.272812 -226.368596 
L 591.59334 -225.999244 
L 588.913869 -225.396928 
L 586.234397 -224.638894 
L 583.554925 -224.175541 
L 580.875453 -223.422507 
L 578.195981 -222.33505 
L 575.51651 -220.865773 
L 572.837038 -218.965731 
L 570.157566 -216.586268 
L 567.478094 -213.682054 
L 564.798622 -210.216035 
L 562.119151 -206.392655 
L 559.465722 -202.223289 
L 556.852108 -197.569279 
L 554.238495 -192.459229 
L 552.500024 -188.898176 
L 549.820552 -183.29377 
L 548.262088 -180.097164 
L 545.582616 -175.034282 
L 544.205965 -172.725356 
L 541.554756 -169.121304 
L 540.385436 -167.920112 
L 538.533157 -166.342739 
L 537.765156 -165.851898 
L 536.515801 -165.208496 
L 535.925326 -164.955804 
L 534.824459 -164.587867 
L 534.335037 -164.450224 
L 533.337869 -164.232269 
L 532.959553 -164.159015 
L 532.502104 -164.084921 
L 532.05126 -164.022214 
L 531.532262 -163.960064 
L 530.890265 -163.895372 
L 530.249604 -163.843381 
L 529.504145 -163.795721 
L 528.693211 -163.7556 
L 527.686278 -163.718751 
L 526.721703 -163.694266 
L 525.496559 -163.673719 
L 524.51105 -163.662804 
L 523.096083 -163.653153 
L 522.008802 -163.648341 
L 520.536094 -163.644656 
L 519.48626 -163.642896 
L 518.001243 -163.641617 
L 516.968394 -163.640995 
L 515.60341 -163.640532 
L 514.612226 -163.640305 
L 513.111224 -163.640103 
L 512.113514 -163.640014 
L 510.717978 -163.63994 
L 509.718887 -163.639906 
L 508.419009 -163.639878 
L 507.438882 -163.639866 
L 506.04277 -163.639854 
L 505.048045 -163.639849 
L 503.744306 -163.639845 
L 502.768676 -163.639843 
L 501.358613 -163.639842 
L 500.372959 -163.639841 
L 499.07411 -163.639841 
L 498.123617 -163.639841 
L 496.62094 -163.63984 
L 495.649932 -163.63984 
L 494.278081 -163.63984 
L 493.335629 -163.63984 
L 491.945687 -163.63984 
L 491.040986 -163.63984 
L 489.660923 -163.63984 
L 488.814378 -163.63984 
L 487.370516 -163.63984 
L 486.584606 -163.63984 
L 485.285516 -163.63984 
L 484.638804 -163.63984 
L 483.806864 -163.63984 
L 483.417122 -163.63984 
L 483.079179 -163.63984 
L 482.952437 -163.63984 
L 482.830548 -163.63984 
L 482.78529 -163.63984 
L 482.780765 -163.63984 
L 482.780312 -163.63984 
z
" style="stroke: #808080; stroke-opacity: 0.2"/>
    </defs>
    <g clip-path="url(#padedd99e20)">
     <use xlink:href="#m2993430793" x="0" y="360" style="fill: #808080; fill-opacity: 0.2; stroke: #808080; stroke-opacity: 0.2"/>
    </g>
   </g>
   <g id="PolyCollection_3">
    <defs>
     <path id="ma71fc14cb2" d="M 482.780312 -130.936211 
L 482.780312 -130.936211 
L 482.780765 -130.936211 
L 482.78529 -130.936211 
L 482.830548 -130.936211 
L 482.952437 -130.936211 
L 483.079179 -130.936211 
L 483.417122 -130.936211 
L 483.806864 -130.936211 
L 484.638804 -130.936211 
L 485.285516 -130.936211 
L 486.584606 -130.936211 
L 487.370516 -130.936211 
L 488.814378 -130.936211 
L 489.660923 -130.936211 
L 491.040986 -130.936211 
L 491.945687 -130.936211 
L 493.335629 -130.936211 
L 494.278081 -130.936211 
L 495.649932 -130.936211 
L 496.62094 -130.936211 
L 498.123617 -130.936211 
L 499.07411 -130.936211 
L 500.372959 -130.936211 
L 501.358613 -130.936211 
L 502.768676 -130.936211 
L 503.744306 -130.936211 
L 505.048045 -130.936211 
L 506.04277 -130.936211 
L 507.438882 -130.936211 
L 508.419009 -130.936211 
L 509.718887 -130.936211 
L 510.717978 -130.936211 
L 512.113514 -130.936211 
L 513.111224 -130.936211 
L 514.612226 -130.936211 
L 515.60341 -130.936211 
L 516.968394 -130.936211 
L 518.001243 -130.936211 
L 519.48626 -130.936211 
L 520.536094 -130.936211 
L 522.008802 -130.936211 
L 523.096083 -130.936211 
L 524.51105 -130.936211 
L 525.496559 -130.936211 
L 526.721703 -130.936211 
L 527.686278 -130.936212 
L 528.693211 -130.936212 
L 529.504145 -130.936212 
L 530.249604 -130.936213 
L 530.890265 -130.936213 
L 531.532262 -130.936214 
L 532.05126 -130.936214 
L 532.502104 -130.936215 
L 532.959553 -130.936215 
L 533.337869 -130.936216 
L 534.335037 -130.936219 
L 534.824459 -130.93622 
L 535.925326 -130.936226 
L 536.515801 -130.93623 
L 537.765156 -130.936242 
L 538.533157 -130.936253 
L 540.385436 -130.936299 
L 541.554756 -130.93635 
L 544.205965 -130.93659 
L 545.582616 -130.936821 
L 548.262088 -130.937775 
L 549.820552 -130.938806 
L 552.500024 -130.942415 
L 554.238495 -130.946556 
L 556.852108 -130.958292 
L 559.465722 -130.98155 
L 562.119151 -131.021511 
L 564.798622 -131.088268 
L 567.478094 -131.19323 
L 570.157566 -131.348679 
L 572.837038 -131.564671 
L 575.51651 -131.84635 
L 578.195981 -132.16584 
L 580.875453 -132.54633 
L 583.554925 -132.985888 
L 586.234397 -133.480024 
L 588.913869 -134.022062 
L 591.59334 -134.603803 
L 594.272812 -135.098401 
L 596.952284 -135.557072 
L 599.631756 -136.013266 
L 602.311228 -136.464172 
L 604.990699 -136.907678 
L 607.670171 -137.342275 
L 610.349643 -137.766943 
L 613.029115 -138.181049 
L 615.708586 -138.584262 
L 618.388058 -138.976471 
L 621.06753 -139.357727 
L 623.747002 -139.728194 
L 626.426474 -140.088112 
L 629.105945 -140.43777 
L 631.785417 -140.777484 
L 634.464889 -141.107585 
L 637.144361 -141.428408 
L 639.823833 -141.740286 
L 642.503304 -142.043544 
L 645.182776 -142.338496 
L 647.862248 -142.625448 
L 650.54172 -142.90469 
L 653.221191 -143.176501 
L 655.900663 -143.441148 
L 658.580135 -143.698885 
L 661.259607 -143.949955 
L 663.939079 -144.19459 
L 666.61855 -144.433009 
L 669.298022 -144.665846 
L 670.637758 -144.779842 
L 670.905705 -144.802493 
L 671.001508 -144.81057 
L 671.11906 -144.820472 
L 671.146292 -144.822764 
L 671.250566 -144.831535 
L 671.29619 -144.83537 
L 671.319541 -144.837333 
L 671.404459 -144.844465 
L 671.448307 -144.848145 
L 671.478834 -144.850707 
L 671.596659 -144.860587 
L 671.674475 -144.867103 
L 671.890228 -144.885154 
L 672.014062 -144.895499 
L 672.302129 -144.919514 
L 672.494104 -144.935478 
L 673.077701 -144.983777 
L 673.661298 -145.031845 
L 675.164052 -145.154618 
L 677.214981 -145.31927 
L 679.460269 -145.495705 
L 682.139741 -145.701978 
L 684.819213 -145.903294 
L 687.498684 -146.099806 
L 690.178156 -146.291664 
L 692.857628 -146.479009 
L 695.5371 -146.661979 
L 697.138055 -146.769591 
L 697.138055 -171.779857 
L 697.138055 -171.779857 
L 695.5371 -171.636219 
L 692.857628 -171.389581 
L 690.178156 -171.132468 
L 687.498684 -170.864334 
L 684.819213 -170.584994 
L 682.139741 -170.292409 
L 679.460269 -169.988933 
L 677.214981 -169.72202 
L 675.164052 -169.471595 
L 673.661298 -169.281742 
L 673.077701 -169.206699 
L 672.494104 -169.130913 
L 672.302129 -169.1058 
L 672.014062 -169.068002 
L 671.890228 -169.051651 
L 671.674475 -169.023074 
L 671.596659 -169.012767 
L 671.478834 -168.99716 
L 671.448307 -168.993117 
L 671.404459 -168.987309 
L 671.319541 -168.976061 
L 671.29619 -168.972968 
L 671.250566 -168.966885 
L 671.146292 -168.952832 
L 671.11906 -168.949162 
L 671.001508 -168.93332 
L 670.905705 -168.920408 
L 670.637758 -168.884297 
L 669.298022 -168.700762 
L 666.61855 -168.322802 
L 663.939079 -167.926825 
L 661.259607 -167.511691 
L 658.580135 -167.076162 
L 655.900663 -166.618896 
L 653.221191 -166.138428 
L 650.54172 -165.633165 
L 647.862248 -165.10137 
L 645.182776 -164.541148 
L 642.503304 -163.950437 
L 639.823833 -163.326991 
L 637.144361 -162.668371 
L 634.464889 -161.971939 
L 631.785417 -161.234853 
L 629.105945 -160.454075 
L 626.426474 -159.62639 
L 623.747002 -158.74844 
L 621.06753 -157.816781 
L 618.388058 -156.827982 
L 615.708586 -155.77875 
L 613.029115 -154.666124 
L 610.349643 -153.487723 
L 607.670171 -152.278072 
L 604.990699 -151.088397 
L 602.311228 -149.83703 
L 599.631756 -148.524755 
L 596.952284 -147.154566 
L 594.272812 -145.732391 
L 591.59334 -144.267866 
L 588.913869 -142.775071 
L 586.234397 -141.287972 
L 583.554925 -139.851246 
L 580.875453 -138.552096 
L 578.195981 -137.29727 
L 575.51651 -136.113278 
L 572.837038 -135.026655 
L 570.157566 -134.061137 
L 567.478094 -133.234598 
L 564.798622 -132.556215 
L 562.119151 -132.024813 
L 559.465722 -131.633165 
L 556.852108 -131.358225 
L 554.238495 -131.18261 
L 552.500024 -131.0948 
L 549.820552 -131.019961 
L 548.262088 -130.988252 
L 545.582616 -130.960946 
L 544.205965 -130.951089 
L 541.554756 -130.942723 
L 540.385436 -130.940166 
L 538.533157 -130.938278 
L 537.765156 -130.937694 
L 536.515801 -130.937151 
L 535.925326 -130.936944 
L 534.824459 -130.936696 
L 534.335037 -130.936604 
L 533.337869 -130.936477 
L 532.959553 -130.936439 
L 532.502104 -130.936402 
L 532.05126 -130.936371 
L 531.532262 -130.936341 
L 530.890265 -130.936312 
L 530.249604 -130.93629 
L 529.504145 -130.93627 
L 528.693211 -130.936254 
L 527.686278 -130.93624 
L 526.721703 -130.93623 
L 525.496559 -130.936223 
L 524.51105 -130.936219 
L 523.096083 -130.936216 
L 522.008802 -130.936214 
L 520.536094 -130.936213 
L 519.48626 -130.936212 
L 518.001243 -130.936212 
L 516.968394 -130.936211 
L 515.60341 -130.936211 
L 514.612226 -130.936211 
L 513.111224 -130.936211 
L 512.113514 -130.936211 
L 510.717978 -130.936211 
L 509.718887 -130.936211 
L 508.419009 -130.936211 
L 507.438882 -130.936211 
L 506.04277 -130.936211 
L 505.048045 -130.936211 
L 503.744306 -130.936211 
L 502.768676 -130.936211 
L 501.358613 -130.936211 
L 500.372959 -130.936211 
L 499.07411 -130.936211 
L 498.123617 -130.936211 
L 496.62094 -130.936211 
L 495.649932 -130.936211 
L 494.278081 -130.936211 
L 493.335629 -130.936211 
L 491.945687 -130.936211 
L 491.040986 -130.936211 
L 489.660923 -130.936211 
L 488.814378 -130.936211 
L 487.370516 -130.936211 
L 486.584606 -130.936211 
L 485.285516 -130.936211 
L 484.638804 -130.936211 
L 483.806864 -130.936211 
L 483.417122 -130.936211 
L 483.079179 -130.936211 
L 482.952437 -130.936211 
L 482.830548 -130.936211 
L 482.78529 -130.936211 
L 482.780765 -130.936211 
L 482.780312 -130.936211 
z
" style="stroke: #808080; stroke-opacity: 0.2"/>
    </defs>
    <g clip-path="url(#padedd99e20)">
     <use xlink:href="#ma71fc14cb2" x="0" y="360" style="fill: #808080; fill-opacity: 0.2; stroke: #808080; stroke-opacity: 0.2"/>
    </g>
   </g>
   <g id="PathCollection_2">
    <g clip-path="url(#padedd99e20)">
     <use xlink:href="#m285628ac6f" x="482.780312" y="196.36016" style="fill: #808080; fill-opacity: 0.8; stroke: #808080; stroke-opacity: 0.8"/>
     <use xlink:href="#m285628ac6f" x="509.57503" y="160.498268" style="fill: #808080; fill-opacity: 0.8; stroke: #808080; stroke-opacity: 0.8"/>
     <use xlink:href="#m285628ac6f" x="536.369748" y="168.700549" style="fill: #808080; fill-opacity: 0.8; stroke: #808080; stroke-opacity: 0.8"/>
     <use xlink:href="#m285628ac6f" x="563.164466" y="171.212196" style="fill: #808080; fill-opacity: 0.8; stroke: #808080; stroke-opacity: 0.8"/>
     <use xlink:href="#m285628ac6f" x="589.959184" y="139.224936" style="fill: #808080; fill-opacity: 0.8; stroke: #808080; stroke-opacity: 0.8"/>
     <use xlink:href="#m285628ac6f" x="616.753902" y="131.832923" style="fill: #808080; fill-opacity: 0.8; stroke: #808080; stroke-opacity: 0.8"/>
     <use xlink:href="#m285628ac6f" x="643.548619" y="140.694994" style="fill: #808080; fill-opacity: 0.8; stroke: #808080; stroke-opacity: 0.8"/>
     <use xlink:href="#m285628ac6f" x="670.343337" y="168.375962" style="fill: #808080; fill-opacity: 0.8; stroke: #808080; stroke-opacity: 0.8"/>
    </g>
   </g>
   <g id="PathCollection_3">
    <defs>
     <path id="me27991db91" d="M -4.330127 4.330127 
L 4.330127 4.330127 
L 4.330127 -4.330127 
L -4.330127 -4.330127 
z
" style="stroke: #808080; stroke-opacity: 0.8"/>
    </defs>
    <g clip-path="url(#padedd99e20)">
     <use xlink:href="#me27991db91" x="482.780312" y="229.063268" style="fill: #808080; fill-opacity: 0.8; stroke: #808080; stroke-opacity: 0.8"/>
     <use xlink:href="#me27991db91" x="509.57503" y="222.646104" style="fill: #808080; fill-opacity: 0.8; stroke: #808080; stroke-opacity: 0.8"/>
     <use xlink:href="#me27991db91" x="536.369748" y="221.400307" style="fill: #808080; fill-opacity: 0.8; stroke: #808080; stroke-opacity: 0.8"/>
     <use xlink:href="#me27991db91" x="563.164466" y="217.978231" style="fill: #808080; fill-opacity: 0.8; stroke: #808080; stroke-opacity: 0.8"/>
     <use xlink:href="#me27991db91" x="589.959184" y="210.85568" style="fill: #808080; fill-opacity: 0.8; stroke: #808080; stroke-opacity: 0.8"/>
     <use xlink:href="#me27991db91" x="616.753902" y="210.712573" style="fill: #808080; fill-opacity: 0.8; stroke: #808080; stroke-opacity: 0.8"/>
     <use xlink:href="#me27991db91" x="643.548619" y="208.802464" style="fill: #808080; fill-opacity: 0.8; stroke: #808080; stroke-opacity: 0.8"/>
     <use xlink:href="#me27991db91" x="670.343337" y="207.553862" style="fill: #808080; fill-opacity: 0.8; stroke: #808080; stroke-opacity: 0.8"/>
    </g>
   </g>
   <g id="line2d_19">
    <path d="M 482.780312 196.36016 
L 530.249604 196.269998 
L 533.337869 196.094526 
L 535.925326 195.748053 
L 537.765156 195.303148 
L 538.533157 195.049292 
L 540.385436 194.221326 
L 541.554756 193.51769 
L 544.205965 191.287485 
L 545.582616 189.765974 
L 548.262088 186.092011 
L 549.820552 183.588185 
L 554.238495 175.588942 
L 559.465722 165.931919 
L 562.119151 161.456937 
L 564.798622 157.384899 
L 567.478094 153.806194 
L 570.157566 150.727362 
L 572.837038 148.130939 
L 575.51651 145.985381 
L 578.195981 144.251647 
L 580.875453 142.887469 
L 583.554925 141.850074 
L 586.234397 141.097909 
L 588.913869 140.591724 
L 591.59334 140.295225 
L 594.272812 140.175444 
L 596.952284 140.202907 
L 602.311228 140.599138 
L 607.670171 141.316115 
L 615.708586 142.740958 
L 626.426474 144.938411 
L 677.214981 155.648218 
L 697.138055 159.593213 
L 697.138055 159.593213 
" clip-path="url(#padedd99e20)" style="fill: none; stroke: #808080; stroke-width: 1.5; stroke-linecap: square"/>
   </g>
   <g id="line2d_20">
    <path d="M 482.780312 229.063789 
L 552.500024 228.978578 
L 556.852108 228.837409 
L 562.119151 228.468655 
L 567.478094 227.762316 
L 572.837038 226.65344 
L 578.195981 225.158023 
L 583.554925 223.3702 
L 607.670171 214.806037 
L 615.708586 212.427493 
L 623.747002 210.35546 
L 631.785417 208.554337 
L 639.823833 206.983361 
L 647.862248 205.605703 
L 658.580135 204.017446 
L 671.001508 202.465018 
L 682.139741 201.28483 
L 697.138055 199.94829 
L 697.138055 199.94829 
" clip-path="url(#padedd99e20)" style="fill: none; stroke-dasharray: 5.55,2.4; stroke-dashoffset: 0; stroke: #808080; stroke-width: 1.5"/>
   </g>
  </g>
  <g id="text_22">
   <!-- Volunteer [p]103 -->
   <g transform="translate(300.348187 30.907125) scale(0.312 -0.312)">
    <defs>
     <path id="DejaVuSans-6e" d="M 3513 2113 
L 3513 0 
L 2938 0 
L 2938 2094 
Q 2938 2591 2744 2837 
Q 2550 3084 2163 3084 
Q 1697 3084 1428 2787 
Q 1159 2491 1159 1978 
L 1159 0 
L 581 0 
L 581 3500 
L 1159 3500 
L 1159 2956 
Q 1366 3272 1645 3428 
Q 1925 3584 2291 3584 
Q 2894 3584 3203 3211 
Q 3513 2838 3513 2113 
z
" transform="scale(0.015625)"/>
     <path id="DejaVuSans-74" d="M 1172 4494 
L 1172 3500 
L 2356 3500 
L 2356 3053 
L 1172 3053 
L 1172 1153 
Q 1172 725 1289 603 
Q 1406 481 1766 481 
L 2356 481 
L 2356 0 
L 1766 0 
Q 1100 0 847 248 
Q 594 497 594 1153 
L 594 3053 
L 172 3053 
L 172 3500 
L 594 3500 
L 594 4494 
L 1172 4494 
z
" transform="scale(0.015625)"/>
     <path id="DejaVuSans-5b" d="M 550 4863 
L 1875 4863 
L 1875 4416 
L 1125 4416 
L 1125 -397 
L 1875 -397 
L 1875 -844 
L 550 -844 
L 550 4863 
z
" transform="scale(0.015625)"/>
     <path id="DejaVuSans-5d" d="M 1947 4863 
L 1947 -844 
L 622 -844 
L 622 -397 
L 1369 -397 
L 1369 4416 
L 622 4416 
L 622 4863 
L 1947 4863 
z
" transform="scale(0.015625)"/>
     <path id="DejaVuSans-33" d="M 2597 2516 
Q 3050 2419 3304 2112 
Q 3559 1806 3559 1356 
Q 3559 666 3084 287 
Q 2609 -91 1734 -91 
Q 1441 -91 1130 -33 
Q 819 25 488 141 
L 488 750 
Q 750 597 1062 519 
Q 1375 441 1716 441 
Q 2309 441 2620 675 
Q 2931 909 2931 1356 
Q 2931 1769 2642 2001 
Q 2353 2234 1838 2234 
L 1294 2234 
L 1294 2753 
L 1863 2753 
Q 2328 2753 2575 2939 
Q 2822 3125 2822 3475 
Q 2822 3834 2567 4026 
Q 2313 4219 1838 4219 
Q 1578 4219 1281 4162 
Q 984 4106 628 3988 
L 628 4550 
Q 988 4650 1302 4700 
Q 1616 4750 1894 4750 
Q 2613 4750 3031 4423 
Q 3450 4097 3450 3541 
Q 3450 3153 3228 2886 
Q 3006 2619 2597 2516 
z
" transform="scale(0.015625)"/>
    </defs>
    <use xlink:href="#DejaVuSans-56"/>
    <use xlink:href="#DejaVuSans-6f" x="60.658203"/>
    <use xlink:href="#DejaVuSans-6c" x="121.839844"/>
    <use xlink:href="#DejaVuSans-75" x="149.623047"/>
    <use xlink:href="#DejaVuSans-6e" x="213.001953"/>
    <use xlink:href="#DejaVuSans-74" x="276.380859"/>
    <use xlink:href="#DejaVuSans-65" x="315.589844"/>
    <use xlink:href="#DejaVuSans-65" x="377.113281"/>
    <use xlink:href="#DejaVuSans-72" x="438.636719"/>
    <use xlink:href="#DejaVuSans-20" x="479.75"/>
    <use xlink:href="#DejaVuSans-5b" x="511.537109"/>
    <use xlink:href="#DejaVuSans-70" x="550.550781"/>
    <use xlink:href="#DejaVuSans-5d" x="614.027344"/>
    <use xlink:href="#DejaVuSans-31" x="653.041016"/>
    <use xlink:href="#DejaVuSans-30" x="716.664062"/>
    <use xlink:href="#DejaVuSans-33" x="780.287109"/>
   </g>
  </g>
 </g>
 <defs>
  <clipPath id="p58507b6717">
   <rect x="180" y="43.2" width="227.755102" height="277.2"/>
  </clipPath>
  <clipPath id="padedd99e20">
   <rect x="476.081633" y="43.2" width="227.755102" height="277.2"/>
  </clipPath>
 </defs>
</svg>
