<?xml version="1.0" encoding="utf-8" standalone="no"?>
<!DOCTYPE svg PUBLIC "-//W3C//DTD SVG 1.1//EN"
  "http://www.w3.org/Graphics/SVG/1.1/DTD/svg11.dtd">
<svg xmlns:xlink="http://www.w3.org/1999/xlink" width="1440pt" height="360pt" viewBox="0 0 1440 360" xmlns="http://www.w3.org/2000/svg" version="1.1">
 <metadata>
  <rdf:RDF xmlns:dc="http://purl.org/dc/elements/1.1/" xmlns:cc="http://creativecommons.org/ns#" xmlns:rdf="http://www.w3.org/1999/02/22-rdf-syntax-ns#">
   <cc:Work>
    <dc:type rdf:resource="http://purl.org/dc/dcmitype/StillImage"/>
    <dc:date>2025-02-07T13:23:32.748768</dc:date>
    <dc:format>image/svg+xml</dc:format>
    <dc:creator>
     <cc:Agent>
      <dc:title>Matplotlib v3.10.0, https://matplotlib.org/</dc:title>
     </cc:Agent>
    </dc:creator>
   </cc:Work>
  </rdf:RDF>
 </metadata>
 <defs>
  <style type="text/css">*{stroke-linejoin: round; stroke-linecap: butt}</style>
 </defs>
 <g id="figure_1">
  <g id="patch_1">
   <path d="M 0 360 
L 1440 360 
L 1440 0 
L 0 0 
L 0 360 
z
" style="fill: none"/>
  </g>
  <g id="axes_1">
   <g id="patch_2">
    <path d="M 180 320.4 
L 407.755102 320.4 
L 407.755102 43.2 
L 180 43.2 
L 180 320.4 
z
" style="fill: none"/>
   </g>
   <g id="matplotlib.axis_1">
    <g id="xtick_1">
     <g id="line2d_1">
      <defs>
       <path id="m5334203f2c" d="M 0 0 
L 0 3.5 
" style="stroke: #000000; stroke-width: 0.8"/>
      </defs>
      <g>
       <use xlink:href="#m5334203f2c" x="186.698679" y="320.4" style="stroke: #000000; stroke-width: 0.8"/>
      </g>
     </g>
     <g id="text_1">
      <!-- 0 -->
      <g transform="translate(176.773179 351.107125) scale(0.312 -0.312)">
       <defs>
        <path id="DejaVuSans-30" d="M 2034 4250 
Q 1547 4250 1301 3770 
Q 1056 3291 1056 2328 
Q 1056 1369 1301 889 
Q 1547 409 2034 409 
Q 2525 409 2770 889 
Q 3016 1369 3016 2328 
Q 3016 3291 2770 3770 
Q 2525 4250 2034 4250 
z
M 2034 4750 
Q 2819 4750 3233 4129 
Q 3647 3509 3647 2328 
Q 3647 1150 3233 529 
Q 2819 -91 2034 -91 
Q 1250 -91 836 529 
Q 422 1150 422 2328 
Q 422 3509 836 4129 
Q 1250 4750 2034 4750 
z
" transform="scale(0.015625)"/>
       </defs>
       <use xlink:href="#DejaVuSans-30"/>
      </g>
     </g>
    </g>
    <g id="xtick_2">
     <g id="line2d_2">
      <g>
       <use xlink:href="#m5334203f2c" x="240.288115" y="320.4" style="stroke: #000000; stroke-width: 0.8"/>
      </g>
     </g>
     <g id="text_2">
      <!-- 2 -->
      <g transform="translate(230.362615 351.107125) scale(0.312 -0.312)">
       <defs>
        <path id="DejaVuSans-32" d="M 1228 531 
L 3431 531 
L 3431 0 
L 469 0 
L 469 531 
Q 828 903 1448 1529 
Q 2069 2156 2228 2338 
Q 2531 2678 2651 2914 
Q 2772 3150 2772 3378 
Q 2772 3750 2511 3984 
Q 2250 4219 1831 4219 
Q 1534 4219 1204 4116 
Q 875 4013 500 3803 
L 500 4441 
Q 881 4594 1212 4672 
Q 1544 4750 1819 4750 
Q 2544 4750 2975 4387 
Q 3406 4025 3406 3419 
Q 3406 3131 3298 2873 
Q 3191 2616 2906 2266 
Q 2828 2175 2409 1742 
Q 1991 1309 1228 531 
z
" transform="scale(0.015625)"/>
       </defs>
       <use xlink:href="#DejaVuSans-32"/>
      </g>
     </g>
    </g>
    <g id="xtick_3">
     <g id="line2d_3">
      <g>
       <use xlink:href="#m5334203f2c" x="293.877551" y="320.4" style="stroke: #000000; stroke-width: 0.8"/>
      </g>
     </g>
     <g id="text_3">
      <!-- 4 -->
      <g transform="translate(283.952051 351.107125) scale(0.312 -0.312)">
       <defs>
        <path id="DejaVuSans-34" d="M 2419 4116 
L 825 1625 
L 2419 1625 
L 2419 4116 
z
M 2253 4666 
L 3047 4666 
L 3047 1625 
L 3713 1625 
L 3713 1100 
L 3047 1100 
L 3047 0 
L 2419 0 
L 2419 1100 
L 313 1100 
L 313 1709 
L 2253 4666 
z
" transform="scale(0.015625)"/>
       </defs>
       <use xlink:href="#DejaVuSans-34"/>
      </g>
     </g>
    </g>
    <g id="xtick_4">
     <g id="line2d_4">
      <g>
       <use xlink:href="#m5334203f2c" x="347.466987" y="320.4" style="stroke: #000000; stroke-width: 0.8"/>
      </g>
     </g>
     <g id="text_4">
      <!-- 6 -->
      <g transform="translate(337.541487 351.107125) scale(0.312 -0.312)">
       <defs>
        <path id="DejaVuSans-36" d="M 2113 2584 
Q 1688 2584 1439 2293 
Q 1191 2003 1191 1497 
Q 1191 994 1439 701 
Q 1688 409 2113 409 
Q 2538 409 2786 701 
Q 3034 994 3034 1497 
Q 3034 2003 2786 2293 
Q 2538 2584 2113 2584 
z
M 3366 4563 
L 3366 3988 
Q 3128 4100 2886 4159 
Q 2644 4219 2406 4219 
Q 1781 4219 1451 3797 
Q 1122 3375 1075 2522 
Q 1259 2794 1537 2939 
Q 1816 3084 2150 3084 
Q 2853 3084 3261 2657 
Q 3669 2231 3669 1497 
Q 3669 778 3244 343 
Q 2819 -91 2113 -91 
Q 1303 -91 875 529 
Q 447 1150 447 2328 
Q 447 3434 972 4092 
Q 1497 4750 2381 4750 
Q 2619 4750 2861 4703 
Q 3103 4656 3366 4563 
z
" transform="scale(0.015625)"/>
       </defs>
       <use xlink:href="#DejaVuSans-36"/>
      </g>
     </g>
    </g>
    <g id="xtick_5">
     <g id="line2d_5">
      <g>
       <use xlink:href="#m5334203f2c" x="401.056423" y="320.4" style="stroke: #000000; stroke-width: 0.8"/>
      </g>
     </g>
     <g id="text_5">
      <!-- 8 -->
      <g transform="translate(391.130923 351.107125) scale(0.312 -0.312)">
       <defs>
        <path id="DejaVuSans-38" d="M 2034 2216 
Q 1584 2216 1326 1975 
Q 1069 1734 1069 1313 
Q 1069 891 1326 650 
Q 1584 409 2034 409 
Q 2484 409 2743 651 
Q 3003 894 3003 1313 
Q 3003 1734 2745 1975 
Q 2488 2216 2034 2216 
z
M 1403 2484 
Q 997 2584 770 2862 
Q 544 3141 544 3541 
Q 544 4100 942 4425 
Q 1341 4750 2034 4750 
Q 2731 4750 3128 4425 
Q 3525 4100 3525 3541 
Q 3525 3141 3298 2862 
Q 3072 2584 2669 2484 
Q 3125 2378 3379 2068 
Q 3634 1759 3634 1313 
Q 3634 634 3220 271 
Q 2806 -91 2034 -91 
Q 1263 -91 848 271 
Q 434 634 434 1313 
Q 434 1759 690 2068 
Q 947 2378 1403 2484 
z
M 1172 3481 
Q 1172 3119 1398 2916 
Q 1625 2713 2034 2713 
Q 2441 2713 2670 2916 
Q 2900 3119 2900 3481 
Q 2900 3844 2670 4047 
Q 2441 4250 2034 4250 
Q 1625 4250 1398 4047 
Q 1172 3844 1172 3481 
z
" transform="scale(0.015625)"/>
       </defs>
       <use xlink:href="#DejaVuSans-38"/>
      </g>
     </g>
    </g>
    <g id="text_6">
     <!-- Time (d) -->
     <g transform="translate(241.190989 382.415656) scale(0.286 -0.286)">
      <defs>
       <path id="ArialMT-54" d="M 1659 0 
L 1659 4041 
L 150 4041 
L 150 4581 
L 3781 4581 
L 3781 4041 
L 2266 4041 
L 2266 0 
L 1659 0 
z
" transform="scale(0.015625)"/>
       <path id="ArialMT-69" d="M 425 3934 
L 425 4581 
L 988 4581 
L 988 3934 
L 425 3934 
z
M 425 0 
L 425 3319 
L 988 3319 
L 988 0 
L 425 0 
z
" transform="scale(0.015625)"/>
       <path id="ArialMT-6d" d="M 422 0 
L 422 3319 
L 925 3319 
L 925 2853 
Q 1081 3097 1340 3245 
Q 1600 3394 1931 3394 
Q 2300 3394 2536 3241 
Q 2772 3088 2869 2813 
Q 3263 3394 3894 3394 
Q 4388 3394 4653 3120 
Q 4919 2847 4919 2278 
L 4919 0 
L 4359 0 
L 4359 2091 
Q 4359 2428 4304 2576 
Q 4250 2725 4106 2815 
Q 3963 2906 3769 2906 
Q 3419 2906 3187 2673 
Q 2956 2441 2956 1928 
L 2956 0 
L 2394 0 
L 2394 2156 
Q 2394 2531 2256 2718 
Q 2119 2906 1806 2906 
Q 1569 2906 1367 2781 
Q 1166 2656 1075 2415 
Q 984 2175 984 1722 
L 984 0 
L 422 0 
z
" transform="scale(0.015625)"/>
       <path id="ArialMT-65" d="M 2694 1069 
L 3275 997 
Q 3138 488 2766 206 
Q 2394 -75 1816 -75 
Q 1088 -75 661 373 
Q 234 822 234 1631 
Q 234 2469 665 2931 
Q 1097 3394 1784 3394 
Q 2450 3394 2872 2941 
Q 3294 2488 3294 1666 
Q 3294 1616 3291 1516 
L 816 1516 
Q 847 969 1125 678 
Q 1403 388 1819 388 
Q 2128 388 2347 550 
Q 2566 713 2694 1069 
z
M 847 1978 
L 2700 1978 
Q 2663 2397 2488 2606 
Q 2219 2931 1791 2931 
Q 1403 2931 1139 2672 
Q 875 2413 847 1978 
z
" transform="scale(0.015625)"/>
       <path id="ArialMT-20" transform="scale(0.015625)"/>
       <path id="ArialMT-28" d="M 1497 -1347 
Q 1031 -759 709 28 
Q 388 816 388 1659 
Q 388 2403 628 3084 
Q 909 3875 1497 4659 
L 1900 4659 
Q 1522 4009 1400 3731 
Q 1209 3300 1100 2831 
Q 966 2247 966 1656 
Q 966 153 1900 -1347 
L 1497 -1347 
z
" transform="scale(0.015625)"/>
       <path id="ArialMT-64" d="M 2575 0 
L 2575 419 
Q 2259 -75 1647 -75 
Q 1250 -75 917 144 
Q 584 363 401 755 
Q 219 1147 219 1656 
Q 219 2153 384 2558 
Q 550 2963 881 3178 
Q 1213 3394 1622 3394 
Q 1922 3394 2156 3267 
Q 2391 3141 2538 2938 
L 2538 4581 
L 3097 4581 
L 3097 0 
L 2575 0 
z
M 797 1656 
Q 797 1019 1065 703 
Q 1334 388 1700 388 
Q 2069 388 2326 689 
Q 2584 991 2584 1609 
Q 2584 2291 2321 2609 
Q 2059 2928 1675 2928 
Q 1300 2928 1048 2622 
Q 797 2316 797 1656 
z
" transform="scale(0.015625)"/>
       <path id="ArialMT-29" d="M 791 -1347 
L 388 -1347 
Q 1322 153 1322 1656 
Q 1322 2244 1188 2822 
Q 1081 3291 891 3722 
Q 769 4003 388 4659 
L 791 4659 
Q 1378 3875 1659 3084 
Q 1900 2403 1900 1659 
Q 1900 816 1576 28 
Q 1253 -759 791 -1347 
z
" transform="scale(0.015625)"/>
      </defs>
      <use xlink:href="#ArialMT-54"/>
      <use xlink:href="#ArialMT-69" transform="translate(57.333984 0)"/>
      <use xlink:href="#ArialMT-6d" transform="translate(79.550781 0)"/>
      <use xlink:href="#ArialMT-65" transform="translate(162.851562 0)"/>
      <use xlink:href="#ArialMT-20" transform="translate(218.466797 0)"/>
      <use xlink:href="#ArialMT-28" transform="translate(246.25 0)"/>
      <use xlink:href="#ArialMT-64" transform="translate(279.550781 0)"/>
      <use xlink:href="#ArialMT-29" transform="translate(335.166016 0)"/>
     </g>
    </g>
   </g>
   <g id="matplotlib.axis_2">
    <g id="ytick_1">
     <g id="line2d_6">
      <defs>
       <path id="m5ff290bf1e" d="M 0 0 
L -3.5 0 
" style="stroke: #000000; stroke-width: 0.8"/>
      </defs>
      <g>
       <use xlink:href="#m5ff290bf1e" x="180" y="320.4" style="stroke: #000000; stroke-width: 0.8"/>
      </g>
     </g>
     <g id="text_7">
      <!-- 0 -->
      <g transform="translate(153.149 332.253562) scale(0.312 -0.312)">
       <use xlink:href="#DejaVuSans-30"/>
      </g>
     </g>
    </g>
    <g id="ytick_2">
     <g id="line2d_7">
      <g>
       <use xlink:href="#m5ff290bf1e" x="180" y="251.1" style="stroke: #000000; stroke-width: 0.8"/>
      </g>
     </g>
     <g id="text_8">
      <!-- 2 -->
      <g transform="translate(153.149 262.953562) scale(0.312 -0.312)">
       <use xlink:href="#DejaVuSans-32"/>
      </g>
     </g>
    </g>
    <g id="ytick_3">
     <g id="line2d_8">
      <g>
       <use xlink:href="#m5ff290bf1e" x="180" y="181.8" style="stroke: #000000; stroke-width: 0.8"/>
      </g>
     </g>
     <g id="text_9">
      <!-- 4 -->
      <g transform="translate(153.149 193.653562) scale(0.312 -0.312)">
       <use xlink:href="#DejaVuSans-34"/>
      </g>
     </g>
    </g>
    <g id="ytick_4">
     <g id="line2d_9">
      <g>
       <use xlink:href="#m5ff290bf1e" x="180" y="112.5" style="stroke: #000000; stroke-width: 0.8"/>
      </g>
     </g>
     <g id="text_10">
      <!-- 6 -->
      <g transform="translate(153.149 124.353562) scale(0.312 -0.312)">
       <use xlink:href="#DejaVuSans-36"/>
      </g>
     </g>
    </g>
    <g id="ytick_5">
     <g id="line2d_10">
      <g>
       <use xlink:href="#m5ff290bf1e" x="180" y="43.2" style="stroke: #000000; stroke-width: 0.8"/>
      </g>
     </g>
     <g id="text_11">
      <!-- 8 -->
      <g transform="translate(153.149 55.053562) scale(0.312 -0.312)">
       <use xlink:href="#DejaVuSans-38"/>
      </g>
     </g>
    </g>
    <g id="text_12">
     <!-- Log$_{10}$ Virus (copies/mL) -->
     <g transform="translate(142.857 334.238) rotate(-90) scale(0.286 -0.286)">
      <defs>
       <path id="ArialMT-4c" d="M 469 0 
L 469 4581 
L 1075 4581 
L 1075 541 
L 3331 541 
L 3331 0 
L 469 0 
z
" transform="scale(0.015625)"/>
       <path id="ArialMT-6f" d="M 213 1659 
Q 213 2581 725 3025 
Q 1153 3394 1769 3394 
Q 2453 3394 2887 2945 
Q 3322 2497 3322 1706 
Q 3322 1066 3130 698 
Q 2938 331 2570 128 
Q 2203 -75 1769 -75 
Q 1072 -75 642 372 
Q 213 819 213 1659 
z
M 791 1659 
Q 791 1022 1069 705 
Q 1347 388 1769 388 
Q 2188 388 2466 706 
Q 2744 1025 2744 1678 
Q 2744 2294 2464 2611 
Q 2184 2928 1769 2928 
Q 1347 2928 1069 2612 
Q 791 2297 791 1659 
z
" transform="scale(0.015625)"/>
       <path id="ArialMT-67" d="M 319 -275 
L 866 -356 
Q 900 -609 1056 -725 
Q 1266 -881 1628 -881 
Q 2019 -881 2231 -725 
Q 2444 -569 2519 -288 
Q 2563 -116 2559 434 
Q 2191 0 1641 0 
Q 956 0 581 494 
Q 206 988 206 1678 
Q 206 2153 378 2554 
Q 550 2956 876 3175 
Q 1203 3394 1644 3394 
Q 2231 3394 2613 2919 
L 2613 3319 
L 3131 3319 
L 3131 450 
Q 3131 -325 2973 -648 
Q 2816 -972 2473 -1159 
Q 2131 -1347 1631 -1347 
Q 1038 -1347 672 -1080 
Q 306 -813 319 -275 
z
M 784 1719 
Q 784 1066 1043 766 
Q 1303 466 1694 466 
Q 2081 466 2343 764 
Q 2606 1063 2606 1700 
Q 2606 2309 2336 2618 
Q 2066 2928 1684 2928 
Q 1309 2928 1046 2623 
Q 784 2319 784 1719 
z
" transform="scale(0.015625)"/>
       <path id="DejaVuSans-31" d="M 794 531 
L 1825 531 
L 1825 4091 
L 703 3866 
L 703 4441 
L 1819 4666 
L 2450 4666 
L 2450 531 
L 3481 531 
L 3481 0 
L 794 0 
L 794 531 
z
" transform="scale(0.015625)"/>
       <path id="ArialMT-56" d="M 1803 0 
L 28 4581 
L 684 4581 
L 1875 1253 
Q 2019 853 2116 503 
Q 2222 878 2363 1253 
L 3600 4581 
L 4219 4581 
L 2425 0 
L 1803 0 
z
" transform="scale(0.015625)"/>
       <path id="ArialMT-72" d="M 416 0 
L 416 3319 
L 922 3319 
L 922 2816 
Q 1116 3169 1280 3281 
Q 1444 3394 1641 3394 
Q 1925 3394 2219 3213 
L 2025 2691 
Q 1819 2813 1613 2813 
Q 1428 2813 1281 2702 
Q 1134 2591 1072 2394 
Q 978 2094 978 1738 
L 978 0 
L 416 0 
z
" transform="scale(0.015625)"/>
       <path id="ArialMT-75" d="M 2597 0 
L 2597 488 
Q 2209 -75 1544 -75 
Q 1250 -75 995 37 
Q 741 150 617 320 
Q 494 491 444 738 
Q 409 903 409 1263 
L 409 3319 
L 972 3319 
L 972 1478 
Q 972 1038 1006 884 
Q 1059 663 1231 536 
Q 1403 409 1656 409 
Q 1909 409 2131 539 
Q 2353 669 2445 892 
Q 2538 1116 2538 1541 
L 2538 3319 
L 3100 3319 
L 3100 0 
L 2597 0 
z
" transform="scale(0.015625)"/>
       <path id="ArialMT-73" d="M 197 991 
L 753 1078 
Q 800 744 1014 566 
Q 1228 388 1613 388 
Q 2000 388 2187 545 
Q 2375 703 2375 916 
Q 2375 1106 2209 1216 
Q 2094 1291 1634 1406 
Q 1016 1563 777 1677 
Q 538 1791 414 1992 
Q 291 2194 291 2438 
Q 291 2659 392 2848 
Q 494 3038 669 3163 
Q 800 3259 1026 3326 
Q 1253 3394 1513 3394 
Q 1903 3394 2198 3281 
Q 2494 3169 2634 2976 
Q 2775 2784 2828 2463 
L 2278 2388 
Q 2241 2644 2061 2787 
Q 1881 2931 1553 2931 
Q 1166 2931 1000 2803 
Q 834 2675 834 2503 
Q 834 2394 903 2306 
Q 972 2216 1119 2156 
Q 1203 2125 1616 2013 
Q 2213 1853 2448 1751 
Q 2684 1650 2818 1456 
Q 2953 1263 2953 975 
Q 2953 694 2789 445 
Q 2625 197 2315 61 
Q 2006 -75 1616 -75 
Q 969 -75 630 194 
Q 291 463 197 991 
z
" transform="scale(0.015625)"/>
       <path id="ArialMT-63" d="M 2588 1216 
L 3141 1144 
Q 3050 572 2676 248 
Q 2303 -75 1759 -75 
Q 1078 -75 664 370 
Q 250 816 250 1647 
Q 250 2184 428 2587 
Q 606 2991 970 3192 
Q 1334 3394 1763 3394 
Q 2303 3394 2647 3120 
Q 2991 2847 3088 2344 
L 2541 2259 
Q 2463 2594 2264 2762 
Q 2066 2931 1784 2931 
Q 1359 2931 1093 2626 
Q 828 2322 828 1663 
Q 828 994 1084 691 
Q 1341 388 1753 388 
Q 2084 388 2306 591 
Q 2528 794 2588 1216 
z
" transform="scale(0.015625)"/>
       <path id="ArialMT-70" d="M 422 -1272 
L 422 3319 
L 934 3319 
L 934 2888 
Q 1116 3141 1344 3267 
Q 1572 3394 1897 3394 
Q 2322 3394 2647 3175 
Q 2972 2956 3137 2557 
Q 3303 2159 3303 1684 
Q 3303 1175 3120 767 
Q 2938 359 2589 142 
Q 2241 -75 1856 -75 
Q 1575 -75 1351 44 
Q 1128 163 984 344 
L 984 -1272 
L 422 -1272 
z
M 931 1641 
Q 931 1000 1190 694 
Q 1450 388 1819 388 
Q 2194 388 2461 705 
Q 2728 1022 2728 1688 
Q 2728 2322 2467 2637 
Q 2206 2953 1844 2953 
Q 1484 2953 1207 2617 
Q 931 2281 931 1641 
z
" transform="scale(0.015625)"/>
       <path id="ArialMT-2f" d="M 0 -78 
L 1328 4659 
L 1778 4659 
L 453 -78 
L 0 -78 
z
" transform="scale(0.015625)"/>
      </defs>
      <use xlink:href="#ArialMT-4c" transform="translate(0 0.203125)"/>
      <use xlink:href="#ArialMT-6f" transform="translate(55.615234 0.203125)"/>
      <use xlink:href="#ArialMT-67" transform="translate(111.230469 0.203125)"/>
      <use xlink:href="#DejaVuSans-31" transform="translate(167.802734 -16.203125) scale(0.7)"/>
      <use xlink:href="#DejaVuSans-30" transform="translate(212.338867 -16.203125) scale(0.7)"/>
      <use xlink:href="#ArialMT-20" transform="translate(259.609375 0.203125)"/>
      <use xlink:href="#ArialMT-56" transform="translate(287.392578 0.203125)"/>
      <use xlink:href="#ArialMT-69" transform="translate(354.091797 0.203125)"/>
      <use xlink:href="#ArialMT-72" transform="translate(376.308594 0.203125)"/>
      <use xlink:href="#ArialMT-75" transform="translate(409.609375 0.203125)"/>
      <use xlink:href="#ArialMT-73" transform="translate(465.224609 0.203125)"/>
      <use xlink:href="#ArialMT-20" transform="translate(515.224609 0.203125)"/>
      <use xlink:href="#ArialMT-28" transform="translate(543.007812 0.203125)"/>
      <use xlink:href="#ArialMT-63" transform="translate(576.308594 0.203125)"/>
      <use xlink:href="#ArialMT-6f" transform="translate(626.308594 0.203125)"/>
      <use xlink:href="#ArialMT-70" transform="translate(681.923828 0.203125)"/>
      <use xlink:href="#ArialMT-69" transform="translate(737.539062 0.203125)"/>
      <use xlink:href="#ArialMT-65" transform="translate(759.755859 0.203125)"/>
      <use xlink:href="#ArialMT-73" transform="translate(815.371094 0.203125)"/>
      <use xlink:href="#ArialMT-2f" transform="translate(865.371094 0.203125)"/>
      <use xlink:href="#ArialMT-6d" transform="translate(893.154297 0.203125)"/>
      <use xlink:href="#ArialMT-4c" transform="translate(976.455078 0.203125)"/>
      <use xlink:href="#ArialMT-29" transform="translate(1032.070312 0.203125)"/>
     </g>
    </g>
   </g>
   <g id="patch_3">
    <path d="M 180 320.4 
L 180 43.2 
" style="fill: none; stroke: #000000; stroke-width: 0.8; stroke-linejoin: miter; stroke-linecap: square"/>
   </g>
   <g id="patch_4">
    <path d="M 407.755102 320.4 
L 407.755102 43.2 
" style="fill: none; stroke: #000000; stroke-width: 0.8; stroke-linejoin: miter; stroke-linecap: square"/>
   </g>
   <g id="patch_5">
    <path d="M 180 320.4 
L 407.755102 320.4 
" style="fill: none; stroke: #000000; stroke-width: 0.8; stroke-linejoin: miter; stroke-linecap: square"/>
   </g>
   <g id="patch_6">
    <path d="M 180 43.2 
L 407.755102 43.2 
" style="fill: none; stroke: #000000; stroke-width: 0.8; stroke-linejoin: miter; stroke-linecap: square"/>
   </g>
   <g id="FillBetweenPolyCollection_1">
    <defs>
     <path id="m5b55579dda" d="M 186.698679 -39.6 
L 186.698679 -39.6 
L 186.699016 -39.6 
L 186.702377 -39.6 
L 186.735988 -39.6 
L 186.963148 -39.6 
L 187.089574 -39.6 
L 187.613429 -39.6 
L 187.868033 -39.6 
L 188.87308 -39.6 
L 189.267162 -39.6 
L 190.440419 -39.6 
L 190.95175 -39.6 
L 192.147827 -39.6 
L 192.760407 -39.6 
L 193.991877 -46.194903 
L 194.686197 -50.404866 
L 195.929638 -58.060924 
L 196.690478 -62.725958 
L 197.942495 -70.4509 
L 198.755379 -75.447124 
L 200.00987 -83.194203 
L 200.862685 -88.441086 
L 202.116979 -96.186982 
L 202.99952 -101.619077 
L 204.379874 -110.158186 
L 205.248528 -115.507813 
L 206.448488 -122.90744 
L 207.352758 -128.471731 
L 208.661666 -136.549434 
L 209.560476 -141.978664 
L 210.778303 -149.314604 
L 211.699705 -154.864934 
L 213.01435 -162.763906 
L 213.93055 -168.265802 
L 215.176043 -175.682776 
L 216.118988 -181.278902 
L 217.47469 -189.199835 
L 218.428302 -194.717403 
L 219.750106 -202.086698 
L 220.737713 -207.448968 
L 222.166131 -214.608627 
L 223.158189 -219.311378 
L 224.47035 -224.720063 
L 225.464036 -228.327165 
L 226.388622 -231.055331 
L 227.191441 -233.140699 
L 227.99426 -234.951803 
L 228.695281 -236.332602 
L 229.396302 -237.576887 
L 230.014792 -238.558338 
L 230.633282 -239.452944 
L 231.251773 -240.260311 
L 231.870263 -240.991966 
L 232.515686 -241.682787 
L 233.389105 -242.51599 
L 235.002346 -243.754718 
L 236.128947 -244.385138 
L 238.12929 -245.211337 
L 239.381997 -245.60588 
L 241.565518 -246.132084 
L 243.148588 -246.397021 
L 244.947127 -246.626194 
L 246.308433 -246.744128 
L 248.524531 -246.858041 
L 249.903632 -246.894209 
L 252.474286 -246.874587 
L 254.026022 -246.832806 
L 256.705494 -246.652788 
L 258.497152 -246.490134 
L 261.176624 -246.10892 
L 263.276662 -245.723318 
L 265.956134 -245.032999 
L 268.635606 -244.113485 
L 271.315078 -242.882668 
L 273.99455 -241.240556 
L 276.674021 -239.033041 
L 279.353493 -235.993446 
L 282.032965 -230.382693 
L 282.568859 -228.788505 
L 283.104754 -227.157501 
L 283.188652 -226.901819 
L 283.252188 -226.708191 
L 283.253533 -226.704093 
L 283.266982 -226.663107 
L 283.276881 -226.63294 
L 283.29044 -226.591618 
L 283.293673 -226.581767 
L 283.294068 -226.580563 
L 283.29802 -226.568519 
L 283.305473 -226.545805 
L 283.314681 -226.517743 
L 283.329436 -226.472776 
L 283.345832 -226.42281 
L 283.391975 -226.282189 
L 283.496703 -225.96303 
L 283.727827 -225.258675 
L 284.367114 -223.309718 
L 285.670889 -219.329741 
L 286.974665 -215.341167 
L 288.998074 -209.149927 
L 290.460517 -204.659954 
L 293.139988 -196.433474 
L 294.87931 -191.084259 
L 297.558781 -182.840017 
L 299.537169 -176.748911 
L 302.216641 -168.468321 
L 304.392023 -161.694261 
L 307.071495 -153.350121 
L 309.750967 -145.005984 
L 312.430439 -136.661849 
L 315.10991 -128.317715 
L 317.789382 -119.973585 
L 320.468854 -111.629457 
L 323.148326 -103.221815 
L 325.827798 -94.797668 
L 328.507269 -86.332697 
L 331.186741 -77.713776 
L 333.866213 -69.094864 
L 336.545685 -60.475965 
L 339.225157 -51.857077 
L 341.904628 -43.238203 
L 344.5841 -39.6 
L 347.263572 -39.6 
L 349.943044 -39.6 
L 352.622516 -39.6 
L 355.301987 -39.6 
L 357.981459 -39.6 
L 360.660931 -39.6 
L 363.340403 -39.6 
L 366.019874 -39.6 
L 368.699346 -39.6 
L 371.378818 -39.6 
L 374.05829 -39.6 
L 376.737762 -39.6 
L 379.417233 -39.6 
L 382.096705 -39.6 
L 384.776177 -39.6 
L 387.455649 -39.6 
L 390.135121 -39.6 
L 392.814592 -39.6 
L 395.494064 -39.6 
L 398.173536 -39.6 
L 400.853008 -39.6 
L 401.056423 -39.6 
L 401.056423 -39.6 
L 401.056423 -39.6 
L 400.853008 -39.6 
L 398.173536 -39.6 
L 395.494064 -39.6 
L 392.814592 -39.6 
L 390.135121 -39.6 
L 387.455649 -39.6 
L 384.776177 -39.6 
L 382.096705 -39.6 
L 379.417233 -39.6 
L 376.737762 -39.6 
L 374.05829 -39.6 
L 371.378818 -39.6 
L 368.699346 -39.6 
L 366.019874 -39.6 
L 363.340403 -39.6 
L 360.660931 -39.6 
L 357.981459 -39.6 
L 355.301987 -39.6 
L 352.622516 -39.6 
L 349.943044 -39.6 
L 347.263572 -40.1685 
L 344.5841 -44.32647 
L 341.904628 -52.57999 
L 339.225157 -60.833521 
L 336.545685 -69.087062 
L 333.866213 -77.340611 
L 331.186741 -85.594167 
L 328.507269 -93.847728 
L 325.827798 -102.101293 
L 323.148326 -110.354862 
L 320.468854 -118.608434 
L 317.789382 -126.862009 
L 315.10991 -135.115586 
L 312.430439 -143.369164 
L 309.750967 -151.622744 
L 307.071495 -159.923329 
L 304.392023 -168.299916 
L 302.216641 -175.08922 
L 299.537169 -183.520551 
L 297.558781 -189.761252 
L 294.87931 -198.1925 
L 293.139988 -203.665223 
L 290.460517 -212.071624 
L 288.998074 -216.658046 
L 286.974665 -223.120593 
L 285.670889 -227.319393 
L 284.367114 -230.96633 
L 283.727827 -232.302136 
L 283.496703 -232.785075 
L 283.391975 -233.003906 
L 283.345832 -233.100322 
L 283.329436 -233.134582 
L 283.314681 -233.165413 
L 283.305473 -233.184654 
L 283.29802 -233.200228 
L 283.294068 -233.208485 
L 283.293673 -233.209311 
L 283.29044 -233.216065 
L 283.276881 -233.244398 
L 283.266982 -233.265082 
L 283.253533 -233.293184 
L 283.252188 -233.295994 
L 283.188652 -233.428754 
L 283.104754 -233.604062 
L 282.568859 -234.723826 
L 282.032965 -235.84359 
L 279.353493 -240.107895 
L 276.674021 -243.172356 
L 273.99455 -245.618677 
L 271.315078 -247.395186 
L 268.635606 -248.673118 
L 265.956134 -249.686031 
L 263.276662 -250.45293 
L 261.176624 -250.952014 
L 258.497152 -251.439614 
L 256.705494 -251.684379 
L 254.026022 -251.91442 
L 252.474286 -252.004251 
L 249.903632 -252.033367 
L 248.524531 -252.010334 
L 246.308433 -251.866594 
L 244.947127 -251.724315 
L 243.148588 -251.427357 
L 241.565518 -251.091003 
L 239.381997 -250.399506 
L 238.12929 -249.856596 
L 236.128947 -248.773918 
L 235.002346 -248.049518 
L 233.389105 -246.84782 
L 232.515686 -246.056052 
L 231.870263 -245.482098 
L 231.251773 -244.87034 
L 230.633282 -244.194611 
L 230.014792 -243.449088 
L 229.396302 -242.666905 
L 228.695281 -241.689882 
L 227.99426 -240.626146 
L 227.191441 -239.245157 
L 226.388622 -237.661369 
L 225.464036 -235.534931 
L 224.47035 -232.876282 
L 223.158189 -228.811085 
L 222.166131 -225.272671 
L 220.737713 -219.15538 
L 219.750106 -214.426835 
L 218.428302 -207.307318 
L 217.47469 -201.851945 
L 216.118988 -193.631303 
L 215.176043 -187.758506 
L 213.93055 -179.818779 
L 213.01435 -173.918387 
L 211.699705 -165.358092 
L 210.778303 -159.340765 
L 209.560476 -151.355039 
L 208.661666 -145.460837 
L 207.352758 -136.83914 
L 206.448488 -130.895582 
L 205.248528 -122.992194 
L 204.379874 -117.287075 
L 202.99952 -108.297352 
L 202.116979 -102.580624 
L 200.862685 -94.425455 
L 200.00987 -88.90544 
L 198.755379 -80.748056 
L 197.942495 -75.490904 
L 196.690478 -67.388338 
L 195.929638 -62.560927 
L 194.686197 -54.880372 
L 193.991877 -50.634152 
L 192.760407 -43.167387 
L 192.147827 -39.935195 
L 190.95175 -39.6 
L 190.440419 -39.6 
L 189.267162 -39.6 
L 188.87308 -39.6 
L 187.868033 -39.6 
L 187.613429 -39.6 
L 187.089574 -39.6 
L 186.963148 -39.6 
L 186.735988 -39.6 
L 186.702377 -39.6 
L 186.699016 -39.6 
L 186.698679 -39.6 
z
" style="stroke: #8b4513; stroke-opacity: 0.2"/>
    </defs>
    <g clip-path="url(#p84e9cdbc8e)">
     <use xlink:href="#m5b55579dda" x="0" y="360" style="fill: #8b4513; fill-opacity: 0.2; stroke: #8b4513; stroke-opacity: 0.2"/>
    </g>
   </g>
   <g id="PathCollection_1">
    <defs>
     <path id="mf7ae13ebc3" d="M 0 7.071068 
C 1.875269 7.071068 3.673985 6.326016 5 5 
C 6.326016 3.673985 7.071068 1.875269 7.071068 0 
C 7.071068 -1.875269 6.326016 -3.673985 5 -5 
C 3.673985 -6.326016 1.875269 -7.071068 0 -7.071068 
C -1.875269 -7.071068 -3.673985 -6.326016 -5 -5 
C -6.326016 -3.673985 -7.071068 -1.875269 -7.071068 0 
C -7.071068 1.875269 -6.326016 3.673985 -5 5 
C -3.673985 6.326016 -1.875269 7.071068 0 7.071068 
z
" style="stroke: #000000; stroke-opacity: 0.8"/>
    </defs>
    <g clip-path="url(#p84e9cdbc8e)">
     <use xlink:href="#mf7ae13ebc3" x="186.698679" y="320.4" style="fill-opacity: 0.8; stroke: #000000; stroke-opacity: 0.8"/>
     <use xlink:href="#mf7ae13ebc3" x="213.493397" y="187.90081" style="fill-opacity: 0.8; stroke: #000000; stroke-opacity: 0.8"/>
     <use xlink:href="#mf7ae13ebc3" x="240.288115" y="120.896523" style="fill-opacity: 0.8; stroke: #000000; stroke-opacity: 0.8"/>
     <use xlink:href="#mf7ae13ebc3" x="267.082833" y="103.351149" style="fill-opacity: 0.8; stroke: #000000; stroke-opacity: 0.8"/>
     <use xlink:href="#mf7ae13ebc3" x="293.877551" y="154.992607" style="fill-opacity: 0.8; stroke: #000000; stroke-opacity: 0.8"/>
     <use xlink:href="#mf7ae13ebc3" x="320.672269" y="227.811809" style="fill-opacity: 0.8; stroke: #000000; stroke-opacity: 0.8"/>
     <use xlink:href="#mf7ae13ebc3" x="347.466987" y="320.4" style="fill-opacity: 0.8; stroke: #000000; stroke-opacity: 0.8"/>
     <use xlink:href="#mf7ae13ebc3" x="374.261705" y="320.4" style="fill-opacity: 0.8; stroke: #000000; stroke-opacity: 0.8"/>
    </g>
   </g>
   <g id="line2d_11">
    <path d="M 186.698679 320.4 
L 192.147827 320.4 
L 192.760407 319.533258 
L 210.778303 205.683178 
L 217.47469 164.289965 
L 219.750106 151.374441 
L 220.737713 146.225706 
L 222.166131 139.463029 
L 223.158189 135.326039 
L 224.47035 130.614844 
L 225.464036 127.602976 
L 227.191441 123.383381 
L 228.695281 120.570077 
L 230.014792 118.611351 
L 231.251773 117.115945 
L 232.515686 115.861226 
L 233.389105 115.127555 
L 235.002346 114.006081 
L 236.128947 113.3722 
L 238.12929 112.48366 
L 239.381997 112.052838 
L 243.148588 111.176061 
L 246.308433 110.782348 
L 249.903632 110.586201 
L 254.026022 110.613948 
L 258.497152 110.940098 
L 261.176624 111.313605 
L 263.276662 111.724146 
L 265.956134 112.435931 
L 268.635606 113.412626 
L 271.315078 114.733456 
L 273.99455 116.512977 
L 276.674021 118.932033 
L 279.353493 122.313109 
L 282.032965 127.342166 
L 283.345832 130.879694 
L 297.558781 174.44567 
L 320.468854 244.978569 
L 344.5841 319.290694 
L 347.263572 320.4 
L 401.056423 320.4 
L 401.056423 320.4 
" clip-path="url(#p84e9cdbc8e)" style="fill: none; stroke: #8b4513; stroke-width: 3; stroke-linecap: square"/>
   </g>
  </g>
  <g id="axes_2">
   <g id="patch_7">
    <path d="M 476.081633 320.4 
L 703.836735 320.4 
L 703.836735 43.2 
L 476.081633 43.2 
L 476.081633 320.4 
z
" style="fill: none"/>
   </g>
   <g id="matplotlib.axis_3">
    <g id="xtick_6">
     <g id="line2d_12">
      <g>
       <use xlink:href="#m5334203f2c" x="482.780312" y="320.4" style="stroke: #000000; stroke-width: 0.8"/>
      </g>
     </g>
     <g id="text_13">
      <!-- 0 -->
      <g transform="translate(472.854812 351.107125) scale(0.312 -0.312)">
       <use xlink:href="#DejaVuSans-30"/>
      </g>
     </g>
    </g>
    <g id="xtick_7">
     <g id="line2d_13">
      <g>
       <use xlink:href="#m5334203f2c" x="536.369748" y="320.4" style="stroke: #000000; stroke-width: 0.8"/>
      </g>
     </g>
     <g id="text_14">
      <!-- 2 -->
      <g transform="translate(526.444248 351.107125) scale(0.312 -0.312)">
       <use xlink:href="#DejaVuSans-32"/>
      </g>
     </g>
    </g>
    <g id="xtick_8">
     <g id="line2d_14">
      <g>
       <use xlink:href="#m5334203f2c" x="589.959184" y="320.4" style="stroke: #000000; stroke-width: 0.8"/>
      </g>
     </g>
     <g id="text_15">
      <!-- 4 -->
      <g transform="translate(580.033684 351.107125) scale(0.312 -0.312)">
       <use xlink:href="#DejaVuSans-34"/>
      </g>
     </g>
    </g>
    <g id="xtick_9">
     <g id="line2d_15">
      <g>
       <use xlink:href="#m5334203f2c" x="643.548619" y="320.4" style="stroke: #000000; stroke-width: 0.8"/>
      </g>
     </g>
     <g id="text_16">
      <!-- 6 -->
      <g transform="translate(633.623119 351.107125) scale(0.312 -0.312)">
       <use xlink:href="#DejaVuSans-36"/>
      </g>
     </g>
    </g>
    <g id="xtick_10">
     <g id="line2d_16">
      <g>
       <use xlink:href="#m5334203f2c" x="697.138055" y="320.4" style="stroke: #000000; stroke-width: 0.8"/>
      </g>
     </g>
     <g id="text_17">
      <!-- 8 -->
      <g transform="translate(687.212555 351.107125) scale(0.312 -0.312)">
       <use xlink:href="#DejaVuSans-38"/>
      </g>
     </g>
    </g>
    <g id="text_18">
     <!-- Time (d) -->
     <g transform="translate(537.272621 382.415656) scale(0.286 -0.286)">
      <use xlink:href="#ArialMT-54"/>
      <use xlink:href="#ArialMT-69" transform="translate(57.333984 0)"/>
      <use xlink:href="#ArialMT-6d" transform="translate(79.550781 0)"/>
      <use xlink:href="#ArialMT-65" transform="translate(162.851562 0)"/>
      <use xlink:href="#ArialMT-20" transform="translate(218.466797 0)"/>
      <use xlink:href="#ArialMT-28" transform="translate(246.25 0)"/>
      <use xlink:href="#ArialMT-64" transform="translate(279.550781 0)"/>
      <use xlink:href="#ArialMT-29" transform="translate(335.166016 0)"/>
     </g>
    </g>
   </g>
   <g id="matplotlib.axis_4">
    <g id="ytick_6">
     <g id="line2d_17">
      <g>
       <use xlink:href="#m5ff290bf1e" x="476.081633" y="258.8" style="stroke: #000000; stroke-width: 0.8"/>
      </g>
     </g>
     <g id="text_19">
      <!-- 4 -->
      <g transform="translate(449.230633 270.653562) scale(0.312 -0.312)">
       <use xlink:href="#DejaVuSans-34"/>
      </g>
     </g>
    </g>
    <g id="ytick_7">
     <g id="line2d_18">
      <g>
       <use xlink:href="#m5ff290bf1e" x="476.081633" y="135.6" style="stroke: #000000; stroke-width: 0.8"/>
      </g>
     </g>
     <g id="text_20">
      <!-- 6 -->
      <g transform="translate(449.230633 147.453563) scale(0.312 -0.312)">
       <use xlink:href="#DejaVuSans-36"/>
      </g>
     </g>
    </g>
    <g id="text_21">
     <!-- Log$_{10}$ CD8$^+$ T cells -->
     <g transform="translate(438.938633 309.642) rotate(-90) scale(0.286 -0.286)">
      <defs>
       <path id="ArialMT-43" d="M 3763 1606 
L 4369 1453 
Q 4178 706 3683 314 
Q 3188 -78 2472 -78 
Q 1731 -78 1267 223 
Q 803 525 561 1097 
Q 319 1669 319 2325 
Q 319 3041 592 3573 
Q 866 4106 1370 4382 
Q 1875 4659 2481 4659 
Q 3169 4659 3637 4309 
Q 4106 3959 4291 3325 
L 3694 3184 
Q 3534 3684 3231 3912 
Q 2928 4141 2469 4141 
Q 1941 4141 1586 3887 
Q 1231 3634 1087 3207 
Q 944 2781 944 2328 
Q 944 1744 1114 1308 
Q 1284 872 1643 656 
Q 2003 441 2422 441 
Q 2931 441 3284 734 
Q 3638 1028 3763 1606 
z
" transform="scale(0.015625)"/>
       <path id="ArialMT-44" d="M 494 0 
L 494 4581 
L 2072 4581 
Q 2606 4581 2888 4516 
Q 3281 4425 3559 4188 
Q 3922 3881 4101 3404 
Q 4281 2928 4281 2316 
Q 4281 1794 4159 1391 
Q 4038 988 3847 723 
Q 3656 459 3429 307 
Q 3203 156 2883 78 
Q 2563 0 2147 0 
L 494 0 
z
M 1100 541 
L 2078 541 
Q 2531 541 2789 625 
Q 3047 709 3200 863 
Q 3416 1078 3536 1442 
Q 3656 1806 3656 2325 
Q 3656 3044 3420 3430 
Q 3184 3816 2847 3947 
Q 2603 4041 2063 4041 
L 1100 4041 
L 1100 541 
z
" transform="scale(0.015625)"/>
       <path id="ArialMT-38" d="M 1131 2484 
Q 781 2613 612 2850 
Q 444 3088 444 3419 
Q 444 3919 803 4259 
Q 1163 4600 1759 4600 
Q 2359 4600 2725 4251 
Q 3091 3903 3091 3403 
Q 3091 3084 2923 2848 
Q 2756 2613 2416 2484 
Q 2838 2347 3058 2040 
Q 3278 1734 3278 1309 
Q 3278 722 2862 322 
Q 2447 -78 1769 -78 
Q 1091 -78 675 323 
Q 259 725 259 1325 
Q 259 1772 486 2073 
Q 713 2375 1131 2484 
z
M 1019 3438 
Q 1019 3113 1228 2906 
Q 1438 2700 1772 2700 
Q 2097 2700 2305 2904 
Q 2513 3109 2513 3406 
Q 2513 3716 2298 3927 
Q 2084 4138 1766 4138 
Q 1444 4138 1231 3931 
Q 1019 3725 1019 3438 
z
M 838 1322 
Q 838 1081 952 856 
Q 1066 631 1291 507 
Q 1516 384 1775 384 
Q 2178 384 2440 643 
Q 2703 903 2703 1303 
Q 2703 1709 2433 1975 
Q 2163 2241 1756 2241 
Q 1359 2241 1098 1978 
Q 838 1716 838 1322 
z
" transform="scale(0.015625)"/>
       <path id="DejaVuSans-2b" d="M 2944 4013 
L 2944 2272 
L 4684 2272 
L 4684 1741 
L 2944 1741 
L 2944 0 
L 2419 0 
L 2419 1741 
L 678 1741 
L 678 2272 
L 2419 2272 
L 2419 4013 
L 2944 4013 
z
" transform="scale(0.015625)"/>
       <path id="ArialMT-6c" d="M 409 0 
L 409 4581 
L 972 4581 
L 972 0 
L 409 0 
z
" transform="scale(0.015625)"/>
      </defs>
      <use xlink:href="#ArialMT-4c" transform="translate(0 0.826562)"/>
      <use xlink:href="#ArialMT-6f" transform="translate(55.615234 0.826562)"/>
      <use xlink:href="#ArialMT-67" transform="translate(111.230469 0.826562)"/>
      <use xlink:href="#DejaVuSans-31" transform="translate(167.802734 -15.579688) scale(0.7)"/>
      <use xlink:href="#DejaVuSans-30" transform="translate(212.338867 -15.579688) scale(0.7)"/>
      <use xlink:href="#ArialMT-20" transform="translate(259.609375 0.826562)"/>
      <use xlink:href="#ArialMT-43" transform="translate(287.392578 0.826562)"/>
      <use xlink:href="#ArialMT-44" transform="translate(359.609375 0.826562)"/>
      <use xlink:href="#ArialMT-38" transform="translate(431.826172 0.826562)"/>
      <use xlink:href="#DejaVuSans-2b" transform="translate(502.036133 39.107812) scale(0.7)"/>
      <use xlink:href="#ArialMT-20" transform="translate(577.060547 0.826562)"/>
      <use xlink:href="#ArialMT-54" transform="translate(604.84375 0.826562)"/>
      <use xlink:href="#ArialMT-20" transform="translate(665.927734 0.826562)"/>
      <use xlink:href="#ArialMT-63" transform="translate(693.710938 0.826562)"/>
      <use xlink:href="#ArialMT-65" transform="translate(743.710938 0.826562)"/>
      <use xlink:href="#ArialMT-6c" transform="translate(799.326172 0.826562)"/>
      <use xlink:href="#ArialMT-6c" transform="translate(821.542969 0.826562)"/>
      <use xlink:href="#ArialMT-73" transform="translate(843.759766 0.826562)"/>
     </g>
    </g>
   </g>
   <g id="patch_8">
    <path d="M 476.081633 320.4 
L 476.081633 43.2 
" style="fill: none; stroke: #000000; stroke-width: 0.8; stroke-linejoin: miter; stroke-linecap: square"/>
   </g>
   <g id="patch_9">
    <path d="M 703.836735 320.4 
L 703.836735 43.2 
" style="fill: none; stroke: #000000; stroke-width: 0.8; stroke-linejoin: miter; stroke-linecap: square"/>
   </g>
   <g id="patch_10">
    <path d="M 476.081633 320.4 
L 703.836735 320.4 
" style="fill: none; stroke: #000000; stroke-width: 0.8; stroke-linejoin: miter; stroke-linecap: square"/>
   </g>
   <g id="patch_11">
    <path d="M 476.081633 43.2 
L 703.836735 43.2 
" style="fill: none; stroke: #000000; stroke-width: 0.8; stroke-linejoin: miter; stroke-linecap: square"/>
   </g>
   <g id="FillBetweenPolyCollection_2">
    <defs>
     <path id="m67a6b705ea" d="M 482.780312 -225.753549 
L 482.780312 -225.753549 
L 482.780648 -225.753549 
L 482.784009 -225.753549 
L 482.817621 -225.753549 
L 483.04478 -225.753549 
L 483.171206 -225.753549 
L 483.695062 -225.753549 
L 483.949665 -225.753549 
L 484.954713 -225.753549 
L 485.348794 -225.753549 
L 486.522052 -225.753549 
L 487.033383 -225.753549 
L 488.22946 -225.753549 
L 488.842039 -225.753549 
L 490.07351 -225.753549 
L 490.767829 -225.753549 
L 492.01127 -225.753549 
L 492.77211 -225.753549 
L 494.024127 -225.753549 
L 494.837012 -225.753549 
L 496.091503 -225.753549 
L 496.944317 -225.753549 
L 498.198612 -225.753549 
L 499.081153 -225.753549 
L 500.461507 -225.753549 
L 501.33016 -225.753549 
L 502.530121 -225.753549 
L 503.43439 -225.75355 
L 504.743299 -225.75355 
L 505.642108 -225.753551 
L 506.859936 -225.753553 
L 507.781337 -225.753556 
L 509.095983 -225.753561 
L 510.012183 -225.753568 
L 511.257676 -225.753582 
L 512.20062 -225.753599 
L 513.556323 -225.75364 
L 514.509935 -225.753686 
L 515.831739 -225.753791 
L 516.819345 -225.753917 
L 518.247764 -225.754227 
L 519.239822 -225.75458 
L 520.551982 -225.755351 
L 521.545669 -225.756289 
L 522.470255 -225.757564 
L 523.273074 -225.759153 
L 524.075892 -225.761369 
L 524.776913 -225.763999 
L 525.477934 -225.76749 
L 526.096425 -225.771496 
L 526.714915 -225.776618 
L 527.333406 -225.783152 
L 527.951896 -225.791477 
L 528.597319 -225.802447 
L 529.470738 -225.822525 
L 531.083979 -225.882343 
L 532.21058 -225.948838 
L 534.210923 -226.154581 
L 535.46363 -226.363434 
L 537.647151 -226.996609 
L 539.230221 -227.677998 
L 541.02876 -228.88804 
L 542.390066 -230.06045 
L 544.606164 -232.725347 
L 545.985265 -234.763937 
L 548.555918 -239.447929 
L 550.107655 -242.796066 
L 552.787127 -249.0184 
L 554.578785 -253.362143 
L 557.258256 -259.841306 
L 559.358295 -264.776886 
L 562.037767 -270.369032 
L 564.717239 -275.368808 
L 567.39671 -279.297669 
L 570.076182 -282.655091 
L 572.755654 -285.477743 
L 575.435126 -287.810195 
L 578.114598 -289.700496 
L 578.650492 -290.030406 
L 579.186386 -290.360316 
L 579.270285 -290.411966 
L 579.333821 -290.45108 
L 579.335166 -290.451908 
L 579.348615 -290.460188 
L 579.358513 -290.466282 
L 579.372073 -290.474629 
L 579.375305 -290.476619 
L 579.3757 -290.476862 
L 579.379652 -290.479295 
L 579.387106 -290.483884 
L 579.396314 -290.489552 
L 579.411069 -290.498636 
L 579.427465 -290.50873 
L 579.473607 -290.537136 
L 579.578335 -290.601609 
L 579.809459 -290.73241 
L 580.448746 -291.065491 
L 581.752522 -291.68563 
L 583.056298 -292.214378 
L 585.079707 -292.910076 
L 586.542149 -293.298193 
L 589.221621 -293.851357 
L 590.960942 -294.099274 
L 593.640414 -294.296409 
L 595.618802 -294.357591 
L 598.298274 -294.287266 
L 600.473656 -294.15975 
L 603.153128 -293.898756 
L 605.8326 -293.566471 
L 608.512071 -293.163124 
L 611.191543 -292.709883 
L 613.871015 -292.216181 
L 616.550487 -291.691153 
L 619.229958 -291.142179 
L 621.90943 -290.559864 
L 624.588902 -289.470394 
L 627.268374 -288.366238 
L 629.947846 -287.252054 
L 632.627317 -286.131596 
L 635.306789 -285.007872 
L 637.986261 -283.883285 
L 640.665733 -282.759752 
L 643.345205 -281.638805 
L 646.024676 -280.521675 
L 648.704148 -279.409357 
L 651.38362 -278.302666 
L 654.063092 -277.202282 
L 656.742564 -276.108779 
L 659.422035 -275.022654 
L 662.101507 -273.944348 
L 664.780979 -272.87426 
L 667.460451 -271.812759 
L 670.139922 -270.760189 
L 672.819394 -269.716882 
L 675.498866 -268.683156 
L 678.178338 -267.659323 
L 680.85781 -266.645687 
L 683.537281 -265.642548 
L 686.216753 -264.650202 
L 688.896225 -263.668939 
L 691.575697 -262.699049 
L 694.255169 -261.740814 
L 696.93464 -260.794516 
L 697.138055 -260.723102 
L 697.138055 -280.920629 
L 697.138055 -280.920629 
L 696.93464 -280.963749 
L 694.255169 -281.532145 
L 691.575697 -282.102148 
L 688.896225 -282.673837 
L 686.216753 -283.247178 
L 683.537281 -283.822142 
L 680.85781 -284.398695 
L 678.178338 -284.976804 
L 675.498866 -285.556436 
L 672.819394 -286.137555 
L 670.139922 -286.720123 
L 667.460451 -287.304098 
L 664.780979 -287.889435 
L 662.101507 -288.476078 
L 659.422035 -289.063963 
L 656.742564 -289.653008 
L 654.063092 -290.243113 
L 651.38362 -290.834146 
L 648.704148 -291.425934 
L 646.024676 -292.018247 
L 643.345205 -292.610779 
L 640.665733 -293.203118 
L 637.986261 -293.794713 
L 635.306789 -294.413929 
L 632.627317 -295.269055 
L 629.947846 -296.114143 
L 627.268374 -296.945557 
L 624.588902 -297.758785 
L 621.90943 -298.548286 
L 619.229958 -299.494644 
L 616.550487 -300.488555 
L 613.871015 -301.431308 
L 611.191543 -302.310831 
L 608.512071 -303.113082 
L 605.8326 -303.821882 
L 603.153128 -304.41875 
L 600.473656 -304.882757 
L 598.298274 -305.137827 
L 595.618802 -305.298773 
L 593.640414 -305.285238 
L 590.960942 -305.072259 
L 589.221621 -304.805469 
L 586.542149 -304.136038 
L 585.079707 -303.653091 
L 583.056298 -302.795391 
L 581.752522 -302.12846 
L 580.448746 -301.370027 
L 579.809459 -300.962093 
L 579.578335 -300.808292 
L 579.473607 -300.737378 
L 579.427465 -300.705912 
L 579.411069 -300.694708 
L 579.396314 -300.684606 
L 579.387106 -300.678299 
L 579.379652 -300.673173 
L 579.3757 -300.670455 
L 579.375305 -300.670183 
L 579.372073 -300.667961 
L 579.358513 -300.658635 
L 579.348615 -300.651828 
L 579.335166 -300.642579 
L 579.333821 -300.641654 
L 579.270285 -300.59765 
L 579.186386 -300.53943 
L 578.650492 -300.155973 
L 578.114598 -299.719366 
L 575.435126 -297.427145 
L 572.755654 -294.625672 
L 570.076182 -291.35 
L 567.39671 -287.894981 
L 564.717239 -283.788895 
L 562.037767 -279.004986 
L 559.358295 -273.682562 
L 557.258256 -269.115196 
L 554.578785 -262.753601 
L 552.787127 -258.217389 
L 550.107655 -251.317343 
L 548.555918 -247.341561 
L 545.985265 -241.180772 
L 544.606164 -238.062234 
L 542.390066 -234.008413 
L 541.02876 -231.851754 
L 539.230221 -229.756155 
L 537.647151 -228.395573 
L 535.46363 -227.153824 
L 534.210923 -226.663029 
L 532.21058 -226.236533 
L 531.083979 -226.05886 
L 529.470738 -225.922458 
L 528.597319 -225.874991 
L 527.951896 -225.848332 
L 527.333406 -225.828145 
L 526.714915 -225.81214 
L 526.096425 -225.799579 
L 525.477934 -225.789508 
L 524.776913 -225.780759 
L 524.075892 -225.773953 
L 523.273074 -225.768317 
L 522.470255 -225.764368 
L 521.545669 -225.761026 
L 520.551982 -225.758629 
L 519.239822 -225.756462 
L 518.247764 -225.755524 
L 516.819345 -225.754626 
L 515.831739 -225.754275 
L 514.509935 -225.753963 
L 513.556323 -225.753831 
L 512.20062 -225.753707 
L 511.257676 -225.753656 
L 510.012183 -225.753611 
L 509.095983 -225.753591 
L 507.781337 -225.753572 
L 506.859936 -225.753565 
L 505.642108 -225.753558 
L 504.743299 -225.753555 
L 503.43439 -225.753552 
L 502.530121 -225.753551 
L 501.33016 -225.75355 
L 500.461507 -225.75355 
L 499.081153 -225.753549 
L 498.198612 -225.753549 
L 496.944317 -225.753549 
L 496.091503 -225.753549 
L 494.837012 -225.753549 
L 494.024127 -225.753549 
L 492.77211 -225.753549 
L 492.01127 -225.753549 
L 490.767829 -225.753549 
L 490.07351 -225.753549 
L 488.842039 -225.753549 
L 488.22946 -225.753549 
L 487.033383 -225.753549 
L 486.522052 -225.753549 
L 485.348794 -225.753549 
L 484.954713 -225.753549 
L 483.949665 -225.753549 
L 483.695062 -225.753549 
L 483.171206 -225.753549 
L 483.04478 -225.753549 
L 482.817621 -225.753549 
L 482.784009 -225.753549 
L 482.780648 -225.753549 
L 482.780312 -225.753549 
z
" style="stroke: #8b4513; stroke-opacity: 0.2"/>
    </defs>
    <g clip-path="url(#pd049f963e8)">
     <use xlink:href="#m67a6b705ea" x="0" y="360" style="fill: #8b4513; fill-opacity: 0.2; stroke: #8b4513; stroke-opacity: 0.2"/>
    </g>
   </g>
   <g id="FillBetweenPolyCollection_3">
    <defs>
     <path id="m4d18382e8b" d="M 482.780312 -115.926967 
L 482.780312 -115.926967 
L 482.780648 -115.926967 
L 482.784009 -115.926967 
L 482.817621 -115.926967 
L 483.04478 -115.926967 
L 483.171206 -115.926967 
L 483.695062 -115.926967 
L 483.949665 -115.926967 
L 484.954713 -115.926967 
L 485.348794 -115.926967 
L 486.522052 -115.926967 
L 487.033383 -115.926967 
L 488.22946 -115.926967 
L 488.842039 -115.926967 
L 490.07351 -115.926967 
L 490.767829 -115.926967 
L 492.01127 -115.926967 
L 492.77211 -115.926967 
L 494.024127 -115.926967 
L 494.837012 -115.926967 
L 496.091503 -115.926967 
L 496.944317 -115.926967 
L 498.198612 -115.926967 
L 499.081153 -115.926967 
L 500.461507 -115.926967 
L 501.33016 -115.926967 
L 502.530121 -115.926967 
L 503.43439 -115.926967 
L 504.743299 -115.926967 
L 505.642108 -115.926967 
L 506.859936 -115.926967 
L 507.781337 -115.926967 
L 509.095983 -115.926967 
L 510.012183 -115.926967 
L 511.257676 -115.926967 
L 512.20062 -115.926967 
L 513.556323 -115.926967 
L 514.509935 -115.926967 
L 515.831739 -115.926967 
L 516.819345 -115.926967 
L 518.247764 -115.926967 
L 519.239822 -115.926967 
L 520.551982 -115.926967 
L 521.545669 -115.926967 
L 522.470255 -115.926967 
L 523.273074 -115.926967 
L 524.075892 -115.926967 
L 524.776913 -115.926967 
L 525.477934 -115.926967 
L 526.096425 -115.926967 
L 526.714915 -115.926967 
L 527.333406 -115.926967 
L 527.951896 -115.926967 
L 528.597319 -115.926967 
L 529.470738 -115.926968 
L 531.083979 -115.926969 
L 532.21058 -115.926969 
L 534.210923 -115.926973 
L 535.46363 -115.926977 
L 537.647151 -115.926995 
L 539.230221 -115.927019 
L 541.02876 -115.927084 
L 542.390066 -115.927162 
L 544.606164 -115.927472 
L 545.985265 -115.927781 
L 548.555918 -115.929238 
L 550.107655 -115.931051 
L 552.787127 -115.937122 
L 554.578785 -115.945322 
L 557.258256 -115.968634 
L 559.358295 -116.002731 
L 562.037767 -116.078179 
L 564.717239 -116.205982 
L 567.39671 -116.410542 
L 570.076182 -116.717372 
L 572.755654 -117.151347 
L 575.435126 -117.733557 
L 578.114598 -118.478599 
L 578.650492 -118.636628 
L 579.186386 -118.807537 
L 579.270285 -118.835409 
L 579.333821 -118.856518 
L 579.335166 -118.856964 
L 579.348615 -118.861432 
L 579.358513 -118.864721 
L 579.372073 -118.869226 
L 579.375305 -118.8703 
L 579.3757 -118.870431 
L 579.379652 -118.871773 
L 579.387106 -118.87434 
L 579.396314 -118.877512 
L 579.411069 -118.882595 
L 579.427465 -118.888243 
L 579.473607 -118.904138 
L 579.578335 -118.940215 
L 579.809459 -119.019832 
L 580.448746 -119.246848 
L 581.752522 -119.746036 
L 583.056298 -120.270298 
L 585.079707 -121.173371 
L 586.542149 -121.850617 
L 589.221621 -123.204986 
L 590.960942 -124.121515 
L 593.640414 -125.593702 
L 595.618802 -126.701719 
L 598.298274 -128.215064 
L 600.473656 -129.437882 
L 603.153128 -130.918933 
L 605.8326 -132.3534 
L 608.512071 -133.737274 
L 611.191543 -135.05999 
L 613.871015 -136.31708 
L 616.550487 -137.505986 
L 619.229958 -138.626383 
L 621.90943 -139.679813 
L 624.588902 -140.668509 
L 627.268374 -141.583617 
L 629.947846 -142.29948 
L 632.627317 -142.972014 
L 635.306789 -143.604189 
L 637.986261 -144.198819 
L 640.665733 -144.758548 
L 643.345205 -145.285837 
L 646.024676 -145.782968 
L 648.704148 -146.252046 
L 651.38362 -146.695011 
L 654.063092 -147.113657 
L 656.742564 -147.509614 
L 659.422035 -147.884367 
L 662.101507 -148.239314 
L 664.780979 -148.575729 
L 667.460451 -148.894782 
L 670.139922 -149.197551 
L 672.819394 -149.485032 
L 675.498866 -149.758144 
L 678.178338 -150.017739 
L 680.85781 -150.264605 
L 683.537281 -150.499473 
L 686.216753 -150.723023 
L 688.896225 -150.935879 
L 691.575697 -151.138639 
L 694.255169 -151.331853 
L 696.93464 -151.516034 
L 697.138055 -151.529703 
L 697.138055 -163.078621 
L 697.138055 -163.078621 
L 696.93464 -163.059467 
L 694.255169 -162.805088 
L 691.575697 -162.539718 
L 688.896225 -162.262417 
L 686.216753 -161.972513 
L 683.537281 -161.669289 
L 680.85781 -161.351967 
L 678.178338 -161.019707 
L 675.498866 -160.671631 
L 672.819394 -160.306751 
L 670.139922 -159.924014 
L 667.460451 -159.522274 
L 664.780979 -159.100287 
L 662.101507 -158.656699 
L 659.422035 -158.190031 
L 656.742564 -157.69867 
L 654.063092 -157.180853 
L 651.38362 -156.634649 
L 648.704148 -156.057942 
L 646.024676 -155.448415 
L 643.345205 -154.803531 
L 640.665733 -154.120511 
L 637.986261 -153.396322 
L 635.306789 -152.62766 
L 632.627317 -151.810942 
L 629.947846 -150.942308 
L 627.268374 -150.017632 
L 624.588902 -149.032555 
L 621.90943 -147.982545 
L 619.229958 -146.862992 
L 616.550487 -145.66935 
L 613.871015 -144.397346 
L 611.191543 -143.043266 
L 608.512071 -141.604343 
L 605.8326 -140.079264 
L 603.153128 -138.512193 
L 600.473656 -137.088184 
L 598.298274 -135.89082 
L 595.618802 -134.373358 
L 593.640414 -133.213068 
L 590.960942 -131.585332 
L 589.221621 -130.506306 
L 586.542149 -128.820231 
L 585.079707 -127.895985 
L 583.056298 -126.623151 
L 581.752522 -125.811815 
L 580.448746 -125.013186 
L 579.809459 -124.633291 
L 579.578335 -124.497103 
L 579.473607 -124.435393 
L 579.427465 -124.408204 
L 579.411069 -124.398543 
L 579.396314 -124.389849 
L 579.387106 -124.384423 
L 579.379652 -124.380031 
L 579.3757 -124.377702 
L 579.375305 -124.377469 
L 579.372073 -124.375565 
L 579.358513 -124.367575 
L 579.348615 -124.361742 
L 579.335166 -124.353818 
L 579.333821 -124.353025 
L 579.270285 -124.315587 
L 579.186386 -124.266151 
L 578.650492 -123.95038 
L 578.114598 -123.634609 
L 575.435126 -122.143949 
L 572.755654 -120.790357 
L 570.076182 -119.603001 
L 567.39671 -118.601194 
L 564.717239 -117.791585 
L 562.037767 -117.189858 
L 559.358295 -116.730396 
L 557.258256 -116.472107 
L 554.578785 -116.241258 
L 552.787127 -116.134495 
L 550.107655 -116.034969 
L 548.555918 -115.995973 
L 545.985265 -115.960565 
L 544.606164 -115.947512 
L 542.390066 -115.937168 
L 541.02876 -115.93282 
L 539.230221 -115.929992 
L 537.647151 -115.928619 
L 535.46363 -115.927672 
L 534.210923 -115.927399 
L 532.21058 -115.92716 
L 531.083979 -115.927088 
L 529.470738 -115.92703 
L 528.597319 -115.927011 
L 527.951896 -115.927001 
L 527.333406 -115.926993 
L 526.714915 -115.926987 
L 526.096425 -115.926983 
L 525.477934 -115.926979 
L 524.776913 -115.926976 
L 524.075892 -115.926974 
L 523.273074 -115.926972 
L 522.470255 -115.92697 
L 521.545669 -115.926969 
L 520.551982 -115.926969 
L 519.239822 -115.926968 
L 518.247764 -115.926968 
L 516.819345 -115.926967 
L 515.831739 -115.926967 
L 514.509935 -115.926967 
L 513.556323 -115.926967 
L 512.20062 -115.926967 
L 511.257676 -115.926967 
L 510.012183 -115.926967 
L 509.095983 -115.926967 
L 507.781337 -115.926967 
L 506.859936 -115.926967 
L 505.642108 -115.926967 
L 504.743299 -115.926967 
L 503.43439 -115.926967 
L 502.530121 -115.926967 
L 501.33016 -115.926967 
L 500.461507 -115.926967 
L 499.081153 -115.926967 
L 498.198612 -115.926967 
L 496.944317 -115.926967 
L 496.091503 -115.926967 
L 494.837012 -115.926967 
L 494.024127 -115.926967 
L 492.77211 -115.926967 
L 492.01127 -115.926967 
L 490.767829 -115.926967 
L 490.07351 -115.926967 
L 488.842039 -115.926967 
L 488.22946 -115.926967 
L 487.033383 -115.926967 
L 486.522052 -115.926967 
L 485.348794 -115.926967 
L 484.954713 -115.926967 
L 483.949665 -115.926967 
L 483.695062 -115.926967 
L 483.171206 -115.926967 
L 483.04478 -115.926967 
L 482.817621 -115.926967 
L 482.784009 -115.926967 
L 482.780648 -115.926967 
L 482.780312 -115.926967 
z
" style="stroke: #8b4513; stroke-opacity: 0.2"/>
    </defs>
    <g clip-path="url(#pd049f963e8)">
     <use xlink:href="#m4d18382e8b" x="0" y="360" style="fill: #8b4513; fill-opacity: 0.2; stroke: #8b4513; stroke-opacity: 0.2"/>
    </g>
   </g>
   <g id="PathCollection_2">
    <g clip-path="url(#pd049f963e8)">
     <use xlink:href="#mf7ae13ebc3" x="482.780312" y="134.246451" style="fill-opacity: 0.8; stroke: #000000; stroke-opacity: 0.8"/>
     <use xlink:href="#mf7ae13ebc3" x="509.57503" y="134.437168" style="fill-opacity: 0.8; stroke: #000000; stroke-opacity: 0.8"/>
     <use xlink:href="#mf7ae13ebc3" x="536.369748" y="154.402924" style="fill-opacity: 0.8; stroke: #000000; stroke-opacity: 0.8"/>
     <use xlink:href="#mf7ae13ebc3" x="563.164466" y="90.018895" style="fill-opacity: 0.8; stroke: #000000; stroke-opacity: 0.8"/>
     <use xlink:href="#mf7ae13ebc3" x="589.959184" y="57.637848" style="fill-opacity: 0.8; stroke: #000000; stroke-opacity: 0.8"/>
     <use xlink:href="#mf7ae13ebc3" x="616.753902" y="67.03355" style="fill-opacity: 0.8; stroke: #000000; stroke-opacity: 0.8"/>
     <use xlink:href="#mf7ae13ebc3" x="643.548619" y="73.152034" style="fill-opacity: 0.8; stroke: #000000; stroke-opacity: 0.8"/>
     <use xlink:href="#mf7ae13ebc3" x="670.343337" y="79.917552" style="fill-opacity: 0.8; stroke: #000000; stroke-opacity: 0.8"/>
    </g>
   </g>
   <g id="PathCollection_3">
    <defs>
     <path id="m7f657dbdfb" d="M -7.071068 7.071068 
L 7.071068 7.071068 
L 7.071068 -7.071068 
L -7.071068 -7.071068 
z
" style="stroke: #000000; stroke-opacity: 0.8"/>
    </defs>
    <g clip-path="url(#pd049f963e8)">
     <use xlink:href="#m7f657dbdfb" x="482.780312" y="244.071904" style="fill-opacity: 0.8; stroke: #000000; stroke-opacity: 0.8"/>
     <use xlink:href="#m7f657dbdfb" x="509.57503" y="241.511644" style="fill-opacity: 0.8; stroke: #000000; stroke-opacity: 0.8"/>
     <use xlink:href="#m7f657dbdfb" x="536.369748" y="244.774466" style="fill-opacity: 0.8; stroke: #000000; stroke-opacity: 0.8"/>
     <use xlink:href="#m7f657dbdfb" x="563.164466" y="234.491648" style="fill-opacity: 0.8; stroke: #000000; stroke-opacity: 0.8"/>
     <use xlink:href="#m7f657dbdfb" x="589.959184" y="228.486714" style="fill-opacity: 0.8; stroke: #000000; stroke-opacity: 0.8"/>
     <use xlink:href="#m7f657dbdfb" x="616.753902" y="224.232205" style="fill-opacity: 0.8; stroke: #000000; stroke-opacity: 0.8"/>
     <use xlink:href="#m7f657dbdfb" x="643.548619" y="220.327699" style="fill-opacity: 0.8; stroke: #000000; stroke-opacity: 0.8"/>
     <use xlink:href="#m7f657dbdfb" x="670.343337" y="197.574294" style="fill-opacity: 0.8; stroke: #000000; stroke-opacity: 0.8"/>
    </g>
   </g>
   <g id="line2d_19">
    <path d="M 482.780312 134.246451 
L 529.470738 134.140577 
L 532.21058 133.950671 
L 534.210923 133.648978 
L 535.46363 133.345106 
L 537.647151 132.483806 
L 539.230221 131.508392 
L 541.02876 129.928564 
L 542.390066 128.349712 
L 544.606164 125.007046 
L 545.985265 122.468983 
L 548.555918 116.93522 
L 550.107655 113.239623 
L 557.258256 95.524589 
L 559.358295 90.725129 
L 562.037767 85.112087 
L 564.717239 80.123561 
L 567.39671 75.770438 
L 570.076182 72.0334 
L 572.755654 68.876605 
L 575.435126 66.256005 
L 579.270285 63.343284 
L 580.448746 62.627792 
L 583.056298 61.315317 
L 586.542149 60.082903 
L 589.221621 59.488482 
L 590.960942 59.246838 
L 593.640414 59.069641 
L 595.618802 59.074619 
L 598.298274 59.240102 
L 600.473656 59.492304 
L 603.153128 59.926046 
L 608.512071 61.120312 
L 613.871015 62.631764 
L 621.90943 65.262556 
L 632.627317 69.100503 
L 670.139922 82.802151 
L 686.216753 88.40093 
L 697.138055 92.066354 
L 697.138055 92.066354 
" clip-path="url(#pd049f963e8)" style="fill: none; stroke: #8b4513; stroke-width: 3; stroke-linecap: square"/>
   </g>
   <g id="line2d_20">
    <path d="M 482.780312 244.073033 
L 550.107655 244.00572 
L 554.578785 243.864274 
L 559.358295 243.503685 
L 562.037767 243.151572 
L 564.717239 242.658686 
L 567.39671 242.005239 
L 570.076182 241.179355 
L 572.755654 240.180016 
L 575.435126 239.017909 
L 580.448746 236.483033 
L 586.542149 233.013436 
L 595.618802 227.760463 
L 600.473656 225.146747 
L 605.8326 222.512159 
L 611.191543 220.16016 
L 616.550487 218.082766 
L 621.90943 216.257072 
L 627.268374 214.654484 
L 632.627317 213.246071 
L 640.665733 211.44004 
L 648.704148 209.935347 
L 656.742564 208.672131 
L 664.780979 207.604074 
L 675.498866 206.42297 
L 686.216753 205.462314 
L 697.138055 204.661729 
L 697.138055 204.661729 
" clip-path="url(#pd049f963e8)" style="fill: none; stroke-dasharray: 11.1,4.8; stroke-dashoffset: 0; stroke: #8b4513; stroke-width: 3"/>
   </g>
  </g>
  <g id="text_22">
   <!-- Individual 207 -->
   <g transform="translate(335.733375 29.532375) scale(0.312 -0.312)">
    <defs>
     <path id="ArialMT-49" d="M 597 0 
L 597 4581 
L 1203 4581 
L 1203 0 
L 597 0 
z
" transform="scale(0.015625)"/>
     <path id="ArialMT-6e" d="M 422 0 
L 422 3319 
L 928 3319 
L 928 2847 
Q 1294 3394 1984 3394 
Q 2284 3394 2536 3286 
Q 2788 3178 2913 3003 
Q 3038 2828 3088 2588 
Q 3119 2431 3119 2041 
L 3119 0 
L 2556 0 
L 2556 2019 
Q 2556 2363 2490 2533 
Q 2425 2703 2258 2804 
Q 2091 2906 1866 2906 
Q 1506 2906 1245 2678 
Q 984 2450 984 1813 
L 984 0 
L 422 0 
z
" transform="scale(0.015625)"/>
     <path id="ArialMT-76" d="M 1344 0 
L 81 3319 
L 675 3319 
L 1388 1331 
Q 1503 1009 1600 663 
Q 1675 925 1809 1294 
L 2547 3319 
L 3125 3319 
L 1869 0 
L 1344 0 
z
" transform="scale(0.015625)"/>
     <path id="ArialMT-61" d="M 2588 409 
Q 2275 144 1986 34 
Q 1697 -75 1366 -75 
Q 819 -75 525 192 
Q 231 459 231 875 
Q 231 1119 342 1320 
Q 453 1522 633 1644 
Q 813 1766 1038 1828 
Q 1203 1872 1538 1913 
Q 2219 1994 2541 2106 
Q 2544 2222 2544 2253 
Q 2544 2597 2384 2738 
Q 2169 2928 1744 2928 
Q 1347 2928 1158 2789 
Q 969 2650 878 2297 
L 328 2372 
Q 403 2725 575 2942 
Q 747 3159 1072 3276 
Q 1397 3394 1825 3394 
Q 2250 3394 2515 3294 
Q 2781 3194 2906 3042 
Q 3031 2891 3081 2659 
Q 3109 2516 3109 2141 
L 3109 1391 
Q 3109 606 3145 398 
Q 3181 191 3288 0 
L 2700 0 
Q 2613 175 2588 409 
z
M 2541 1666 
Q 2234 1541 1622 1453 
Q 1275 1403 1131 1340 
Q 988 1278 909 1158 
Q 831 1038 831 891 
Q 831 666 1001 516 
Q 1172 366 1500 366 
Q 1825 366 2078 508 
Q 2331 650 2450 897 
Q 2541 1088 2541 1459 
L 2541 1666 
z
" transform="scale(0.015625)"/>
     <path id="ArialMT-32" d="M 3222 541 
L 3222 0 
L 194 0 
Q 188 203 259 391 
Q 375 700 629 1000 
Q 884 1300 1366 1694 
Q 2113 2306 2375 2664 
Q 2638 3022 2638 3341 
Q 2638 3675 2398 3904 
Q 2159 4134 1775 4134 
Q 1369 4134 1125 3890 
Q 881 3647 878 3216 
L 300 3275 
Q 359 3922 746 4261 
Q 1134 4600 1788 4600 
Q 2447 4600 2831 4234 
Q 3216 3869 3216 3328 
Q 3216 3053 3103 2787 
Q 2991 2522 2730 2228 
Q 2469 1934 1863 1422 
Q 1356 997 1212 845 
Q 1069 694 975 541 
L 3222 541 
z
" transform="scale(0.015625)"/>
     <path id="ArialMT-30" d="M 266 2259 
Q 266 3072 433 3567 
Q 600 4063 929 4331 
Q 1259 4600 1759 4600 
Q 2128 4600 2406 4451 
Q 2684 4303 2865 4023 
Q 3047 3744 3150 3342 
Q 3253 2941 3253 2259 
Q 3253 1453 3087 958 
Q 2922 463 2592 192 
Q 2263 -78 1759 -78 
Q 1097 -78 719 397 
Q 266 969 266 2259 
z
M 844 2259 
Q 844 1131 1108 757 
Q 1372 384 1759 384 
Q 2147 384 2411 759 
Q 2675 1134 2675 2259 
Q 2675 3391 2411 3762 
Q 2147 4134 1753 4134 
Q 1366 4134 1134 3806 
Q 844 3388 844 2259 
z
" transform="scale(0.015625)"/>
     <path id="ArialMT-37" d="M 303 3981 
L 303 4522 
L 3269 4522 
L 3269 4084 
Q 2831 3619 2401 2847 
Q 1972 2075 1738 1259 
Q 1569 684 1522 0 
L 944 0 
Q 953 541 1156 1306 
Q 1359 2072 1739 2783 
Q 2119 3494 2547 3981 
L 303 3981 
z
" transform="scale(0.015625)"/>
    </defs>
    <use xlink:href="#ArialMT-49"/>
    <use xlink:href="#ArialMT-6e" transform="translate(27.783203 0)"/>
    <use xlink:href="#ArialMT-64" transform="translate(83.398438 0)"/>
    <use xlink:href="#ArialMT-69" transform="translate(139.013672 0)"/>
    <use xlink:href="#ArialMT-76" transform="translate(161.230469 0)"/>
    <use xlink:href="#ArialMT-69" transform="translate(211.230469 0)"/>
    <use xlink:href="#ArialMT-64" transform="translate(233.447266 0)"/>
    <use xlink:href="#ArialMT-75" transform="translate(289.0625 0)"/>
    <use xlink:href="#ArialMT-61" transform="translate(344.677734 0)"/>
    <use xlink:href="#ArialMT-6c" transform="translate(400.292969 0)"/>
    <use xlink:href="#ArialMT-20" transform="translate(422.509766 0)"/>
    <use xlink:href="#ArialMT-32" transform="translate(450.292969 0)"/>
    <use xlink:href="#ArialMT-30" transform="translate(505.908203 0)"/>
    <use xlink:href="#ArialMT-37" transform="translate(561.523438 0)"/>
   </g>
  </g>
 </g>
 <defs>
  <clipPath id="p84e9cdbc8e">
   <rect x="180" y="43.2" width="227.755102" height="277.2"/>
  </clipPath>
  <clipPath id="pd049f963e8">
   <rect x="476.081633" y="43.2" width="227.755102" height="277.2"/>
  </clipPath>
 </defs>
</svg>
