<?xml version="1.0" encoding="utf-8" standalone="no"?>
<!DOCTYPE svg PUBLIC "-//W3C//DTD SVG 1.1//EN"
  "http://www.w3.org/Graphics/SVG/1.1/DTD/svg11.dtd">
<svg xmlns:xlink="http://www.w3.org/1999/xlink" width="1440pt" height="360pt" viewBox="0 0 1440 360" xmlns="http://www.w3.org/2000/svg" version="1.1">
 <metadata>
  <rdf:RDF xmlns:dc="http://purl.org/dc/elements/1.1/" xmlns:cc="http://creativecommons.org/ns#" xmlns:rdf="http://www.w3.org/1999/02/22-rdf-syntax-ns#">
   <cc:Work>
    <dc:type rdf:resource="http://purl.org/dc/dcmitype/StillImage"/>
    <dc:date>2025-02-05T15:11:49.605320</dc:date>
    <dc:format>image/svg+xml</dc:format>
    <dc:creator>
     <cc:Agent>
      <dc:title>Matplotlib v3.10.0, https://matplotlib.org/</dc:title>
     </cc:Agent>
    </dc:creator>
   </cc:Work>
  </rdf:RDF>
 </metadata>
 <defs>
  <style type="text/css">*{stroke-linejoin: round; stroke-linecap: butt}</style>
 </defs>
 <g id="figure_1">
  <g id="patch_1">
   <path d="M 0 360 
L 1440 360 
L 1440 0 
L 0 0 
L 0 360 
z
" style="fill: none"/>
  </g>
  <g id="axes_1">
   <g id="patch_2">
    <path d="M 180 320.4 
L 407.755102 320.4 
L 407.755102 43.2 
L 180 43.2 
L 180 320.4 
z
" style="fill: none"/>
   </g>
   <g id="matplotlib.axis_1">
    <g id="xtick_1">
     <g id="text_1">
      <!-- 0 -->
      <g style="fill: #262626" transform="translate(178.023617 352.232375) scale(0.312 -0.312)">
       <defs>
        <path id="ArialMT-30" d="M 266 2259 
Q 266 3072 433 3567 
Q 600 4063 929 4331 
Q 1259 4600 1759 4600 
Q 2128 4600 2406 4451 
Q 2684 4303 2865 4023 
Q 3047 3744 3150 3342 
Q 3253 2941 3253 2259 
Q 3253 1453 3087 958 
Q 2922 463 2592 192 
Q 2263 -78 1759 -78 
Q 1097 -78 719 397 
Q 266 969 266 2259 
z
M 844 2259 
Q 844 1131 1108 757 
Q 1372 384 1759 384 
Q 2147 384 2411 759 
Q 2675 1134 2675 2259 
Q 2675 3391 2411 3762 
Q 2147 4134 1753 4134 
Q 1366 4134 1134 3806 
Q 844 3388 844 2259 
z
" transform="scale(0.015625)"/>
       </defs>
       <use xlink:href="#ArialMT-30"/>
      </g>
     </g>
    </g>
    <g id="xtick_2">
     <g id="text_2">
      <!-- 2 -->
      <g style="fill: #262626" transform="translate(231.613053 352.232375) scale(0.312 -0.312)">
       <defs>
        <path id="ArialMT-32" d="M 3222 541 
L 3222 0 
L 194 0 
Q 188 203 259 391 
Q 375 700 629 1000 
Q 884 1300 1366 1694 
Q 2113 2306 2375 2664 
Q 2638 3022 2638 3341 
Q 2638 3675 2398 3904 
Q 2159 4134 1775 4134 
Q 1369 4134 1125 3890 
Q 881 3647 878 3216 
L 300 3275 
Q 359 3922 746 4261 
Q 1134 4600 1788 4600 
Q 2447 4600 2831 4234 
Q 3216 3869 3216 3328 
Q 3216 3053 3103 2787 
Q 2991 2522 2730 2228 
Q 2469 1934 1863 1422 
Q 1356 997 1212 845 
Q 1069 694 975 541 
L 3222 541 
z
" transform="scale(0.015625)"/>
       </defs>
       <use xlink:href="#ArialMT-32"/>
      </g>
     </g>
    </g>
    <g id="xtick_3">
     <g id="text_3">
      <!-- 4 -->
      <g style="fill: #262626" transform="translate(285.202489 352.232375) scale(0.312 -0.312)">
       <defs>
        <path id="ArialMT-34" d="M 2069 0 
L 2069 1097 
L 81 1097 
L 81 1613 
L 2172 4581 
L 2631 4581 
L 2631 1613 
L 3250 1613 
L 3250 1097 
L 2631 1097 
L 2631 0 
L 2069 0 
z
M 2069 1613 
L 2069 3678 
L 634 1613 
L 2069 1613 
z
" transform="scale(0.015625)"/>
       </defs>
       <use xlink:href="#ArialMT-34"/>
      </g>
     </g>
    </g>
    <g id="xtick_4">
     <g id="text_4">
      <!-- 6 -->
      <g style="fill: #262626" transform="translate(338.791924 352.232375) scale(0.312 -0.312)">
       <defs>
        <path id="ArialMT-36" d="M 3184 3459 
L 2625 3416 
Q 2550 3747 2413 3897 
Q 2184 4138 1850 4138 
Q 1581 4138 1378 3988 
Q 1113 3794 959 3422 
Q 806 3050 800 2363 
Q 1003 2672 1297 2822 
Q 1591 2972 1913 2972 
Q 2475 2972 2870 2558 
Q 3266 2144 3266 1488 
Q 3266 1056 3080 686 
Q 2894 316 2569 119 
Q 2244 -78 1831 -78 
Q 1128 -78 684 439 
Q 241 956 241 2144 
Q 241 3472 731 4075 
Q 1159 4600 1884 4600 
Q 2425 4600 2770 4297 
Q 3116 3994 3184 3459 
z
M 888 1484 
Q 888 1194 1011 928 
Q 1134 663 1356 523 
Q 1578 384 1822 384 
Q 2178 384 2434 671 
Q 2691 959 2691 1453 
Q 2691 1928 2437 2201 
Q 2184 2475 1800 2475 
Q 1419 2475 1153 2201 
Q 888 1928 888 1484 
z
" transform="scale(0.015625)"/>
       </defs>
       <use xlink:href="#ArialMT-36"/>
      </g>
     </g>
    </g>
    <g id="xtick_5">
     <g id="text_5">
      <!-- 8 -->
      <g style="fill: #262626" transform="translate(392.38136 352.232375) scale(0.312 -0.312)">
       <defs>
        <path id="ArialMT-38" d="M 1131 2484 
Q 781 2613 612 2850 
Q 444 3088 444 3419 
Q 444 3919 803 4259 
Q 1163 4600 1759 4600 
Q 2359 4600 2725 4251 
Q 3091 3903 3091 3403 
Q 3091 3084 2923 2848 
Q 2756 2613 2416 2484 
Q 2838 2347 3058 2040 
Q 3278 1734 3278 1309 
Q 3278 722 2862 322 
Q 2447 -78 1769 -78 
Q 1091 -78 675 323 
Q 259 725 259 1325 
Q 259 1772 486 2073 
Q 713 2375 1131 2484 
z
M 1019 3438 
Q 1019 3113 1228 2906 
Q 1438 2700 1772 2700 
Q 2097 2700 2305 2904 
Q 2513 3109 2513 3406 
Q 2513 3716 2298 3927 
Q 2084 4138 1766 4138 
Q 1444 4138 1231 3931 
Q 1019 3725 1019 3438 
z
M 838 1322 
Q 838 1081 952 856 
Q 1066 631 1291 507 
Q 1516 384 1775 384 
Q 2178 384 2440 643 
Q 2703 903 2703 1303 
Q 2703 1709 2433 1975 
Q 2163 2241 1756 2241 
Q 1359 2241 1098 1978 
Q 838 1716 838 1322 
z
" transform="scale(0.015625)"/>
       </defs>
       <use xlink:href="#ArialMT-38"/>
      </g>
     </g>
    </g>
    <g id="text_6">
     <!-- Time (d) -->
     <g style="fill: #262626" transform="translate(241.190989 383.253281) scale(0.286 -0.286)">
      <defs>
       <path id="ArialMT-54" d="M 1659 0 
L 1659 4041 
L 150 4041 
L 150 4581 
L 3781 4581 
L 3781 4041 
L 2266 4041 
L 2266 0 
L 1659 0 
z
" transform="scale(0.015625)"/>
       <path id="ArialMT-69" d="M 425 3934 
L 425 4581 
L 988 4581 
L 988 3934 
L 425 3934 
z
M 425 0 
L 425 3319 
L 988 3319 
L 988 0 
L 425 0 
z
" transform="scale(0.015625)"/>
       <path id="ArialMT-6d" d="M 422 0 
L 422 3319 
L 925 3319 
L 925 2853 
Q 1081 3097 1340 3245 
Q 1600 3394 1931 3394 
Q 2300 3394 2536 3241 
Q 2772 3088 2869 2813 
Q 3263 3394 3894 3394 
Q 4388 3394 4653 3120 
Q 4919 2847 4919 2278 
L 4919 0 
L 4359 0 
L 4359 2091 
Q 4359 2428 4304 2576 
Q 4250 2725 4106 2815 
Q 3963 2906 3769 2906 
Q 3419 2906 3187 2673 
Q 2956 2441 2956 1928 
L 2956 0 
L 2394 0 
L 2394 2156 
Q 2394 2531 2256 2718 
Q 2119 2906 1806 2906 
Q 1569 2906 1367 2781 
Q 1166 2656 1075 2415 
Q 984 2175 984 1722 
L 984 0 
L 422 0 
z
" transform="scale(0.015625)"/>
       <path id="ArialMT-65" d="M 2694 1069 
L 3275 997 
Q 3138 488 2766 206 
Q 2394 -75 1816 -75 
Q 1088 -75 661 373 
Q 234 822 234 1631 
Q 234 2469 665 2931 
Q 1097 3394 1784 3394 
Q 2450 3394 2872 2941 
Q 3294 2488 3294 1666 
Q 3294 1616 3291 1516 
L 816 1516 
Q 847 969 1125 678 
Q 1403 388 1819 388 
Q 2128 388 2347 550 
Q 2566 713 2694 1069 
z
M 847 1978 
L 2700 1978 
Q 2663 2397 2488 2606 
Q 2219 2931 1791 2931 
Q 1403 2931 1139 2672 
Q 875 2413 847 1978 
z
" transform="scale(0.015625)"/>
       <path id="ArialMT-20" transform="scale(0.015625)"/>
       <path id="ArialMT-28" d="M 1497 -1347 
Q 1031 -759 709 28 
Q 388 816 388 1659 
Q 388 2403 628 3084 
Q 909 3875 1497 4659 
L 1900 4659 
Q 1522 4009 1400 3731 
Q 1209 3300 1100 2831 
Q 966 2247 966 1656 
Q 966 153 1900 -1347 
L 1497 -1347 
z
" transform="scale(0.015625)"/>
       <path id="ArialMT-64" d="M 2575 0 
L 2575 419 
Q 2259 -75 1647 -75 
Q 1250 -75 917 144 
Q 584 363 401 755 
Q 219 1147 219 1656 
Q 219 2153 384 2558 
Q 550 2963 881 3178 
Q 1213 3394 1622 3394 
Q 1922 3394 2156 3267 
Q 2391 3141 2538 2938 
L 2538 4581 
L 3097 4581 
L 3097 0 
L 2575 0 
z
M 797 1656 
Q 797 1019 1065 703 
Q 1334 388 1700 388 
Q 2069 388 2326 689 
Q 2584 991 2584 1609 
Q 2584 2291 2321 2609 
Q 2059 2928 1675 2928 
Q 1300 2928 1048 2622 
Q 797 2316 797 1656 
z
" transform="scale(0.015625)"/>
       <path id="ArialMT-29" d="M 791 -1347 
L 388 -1347 
Q 1322 153 1322 1656 
Q 1322 2244 1188 2822 
Q 1081 3291 891 3722 
Q 769 4003 388 4659 
L 791 4659 
Q 1378 3875 1659 3084 
Q 1900 2403 1900 1659 
Q 1900 816 1576 28 
Q 1253 -759 791 -1347 
z
" transform="scale(0.015625)"/>
      </defs>
      <use xlink:href="#ArialMT-54"/>
      <use xlink:href="#ArialMT-69" transform="translate(57.333984 0)"/>
      <use xlink:href="#ArialMT-6d" transform="translate(79.550781 0)"/>
      <use xlink:href="#ArialMT-65" transform="translate(162.851562 0)"/>
      <use xlink:href="#ArialMT-20" transform="translate(218.466797 0)"/>
      <use xlink:href="#ArialMT-28" transform="translate(246.25 0)"/>
      <use xlink:href="#ArialMT-64" transform="translate(279.550781 0)"/>
      <use xlink:href="#ArialMT-29" transform="translate(335.166016 0)"/>
     </g>
    </g>
   </g>
   <g id="matplotlib.axis_2">
    <g id="ytick_1">
     <g id="text_7">
      <!-- 0 -->
      <g style="fill: #262626" transform="translate(153.149875 331.566188) scale(0.312 -0.312)">
       <use xlink:href="#ArialMT-30"/>
      </g>
     </g>
    </g>
    <g id="ytick_2">
     <g id="text_8">
      <!-- 2 -->
      <g style="fill: #262626" transform="translate(153.149875 262.266188) scale(0.312 -0.312)">
       <use xlink:href="#ArialMT-32"/>
      </g>
     </g>
    </g>
    <g id="ytick_3">
     <g id="text_9">
      <!-- 4 -->
      <g style="fill: #262626" transform="translate(153.149875 192.966187) scale(0.312 -0.312)">
       <use xlink:href="#ArialMT-34"/>
      </g>
     </g>
    </g>
    <g id="ytick_4">
     <g id="text_10">
      <!-- 6 -->
      <g style="fill: #262626" transform="translate(153.149875 123.666187) scale(0.312 -0.312)">
       <use xlink:href="#ArialMT-36"/>
      </g>
     </g>
    </g>
    <g id="ytick_5">
     <g id="text_11">
      <!-- 8 -->
      <g style="fill: #262626" transform="translate(153.149875 54.366187) scale(0.312 -0.312)">
       <use xlink:href="#ArialMT-38"/>
      </g>
     </g>
    </g>
    <g id="text_12">
     <!-- Log$_{10}$ Virus (copies/mL) -->
     <g style="fill: #262626" transform="translate(142.857875 334.238) rotate(-90) scale(0.286 -0.286)">
      <defs>
       <path id="ArialMT-4c" d="M 469 0 
L 469 4581 
L 1075 4581 
L 1075 541 
L 3331 541 
L 3331 0 
L 469 0 
z
" transform="scale(0.015625)"/>
       <path id="ArialMT-6f" d="M 213 1659 
Q 213 2581 725 3025 
Q 1153 3394 1769 3394 
Q 2453 3394 2887 2945 
Q 3322 2497 3322 1706 
Q 3322 1066 3130 698 
Q 2938 331 2570 128 
Q 2203 -75 1769 -75 
Q 1072 -75 642 372 
Q 213 819 213 1659 
z
M 791 1659 
Q 791 1022 1069 705 
Q 1347 388 1769 388 
Q 2188 388 2466 706 
Q 2744 1025 2744 1678 
Q 2744 2294 2464 2611 
Q 2184 2928 1769 2928 
Q 1347 2928 1069 2612 
Q 791 2297 791 1659 
z
" transform="scale(0.015625)"/>
       <path id="ArialMT-67" d="M 319 -275 
L 866 -356 
Q 900 -609 1056 -725 
Q 1266 -881 1628 -881 
Q 2019 -881 2231 -725 
Q 2444 -569 2519 -288 
Q 2563 -116 2559 434 
Q 2191 0 1641 0 
Q 956 0 581 494 
Q 206 988 206 1678 
Q 206 2153 378 2554 
Q 550 2956 876 3175 
Q 1203 3394 1644 3394 
Q 2231 3394 2613 2919 
L 2613 3319 
L 3131 3319 
L 3131 450 
Q 3131 -325 2973 -648 
Q 2816 -972 2473 -1159 
Q 2131 -1347 1631 -1347 
Q 1038 -1347 672 -1080 
Q 306 -813 319 -275 
z
M 784 1719 
Q 784 1066 1043 766 
Q 1303 466 1694 466 
Q 2081 466 2343 764 
Q 2606 1063 2606 1700 
Q 2606 2309 2336 2618 
Q 2066 2928 1684 2928 
Q 1309 2928 1046 2623 
Q 784 2319 784 1719 
z
" transform="scale(0.015625)"/>
       <path id="DejaVuSans-31" d="M 794 531 
L 1825 531 
L 1825 4091 
L 703 3866 
L 703 4441 
L 1819 4666 
L 2450 4666 
L 2450 531 
L 3481 531 
L 3481 0 
L 794 0 
L 794 531 
z
" transform="scale(0.015625)"/>
       <path id="DejaVuSans-30" d="M 2034 4250 
Q 1547 4250 1301 3770 
Q 1056 3291 1056 2328 
Q 1056 1369 1301 889 
Q 1547 409 2034 409 
Q 2525 409 2770 889 
Q 3016 1369 3016 2328 
Q 3016 3291 2770 3770 
Q 2525 4250 2034 4250 
z
M 2034 4750 
Q 2819 4750 3233 4129 
Q 3647 3509 3647 2328 
Q 3647 1150 3233 529 
Q 2819 -91 2034 -91 
Q 1250 -91 836 529 
Q 422 1150 422 2328 
Q 422 3509 836 4129 
Q 1250 4750 2034 4750 
z
" transform="scale(0.015625)"/>
       <path id="ArialMT-56" d="M 1803 0 
L 28 4581 
L 684 4581 
L 1875 1253 
Q 2019 853 2116 503 
Q 2222 878 2363 1253 
L 3600 4581 
L 4219 4581 
L 2425 0 
L 1803 0 
z
" transform="scale(0.015625)"/>
       <path id="ArialMT-72" d="M 416 0 
L 416 3319 
L 922 3319 
L 922 2816 
Q 1116 3169 1280 3281 
Q 1444 3394 1641 3394 
Q 1925 3394 2219 3213 
L 2025 2691 
Q 1819 2813 1613 2813 
Q 1428 2813 1281 2702 
Q 1134 2591 1072 2394 
Q 978 2094 978 1738 
L 978 0 
L 416 0 
z
" transform="scale(0.015625)"/>
       <path id="ArialMT-75" d="M 2597 0 
L 2597 488 
Q 2209 -75 1544 -75 
Q 1250 -75 995 37 
Q 741 150 617 320 
Q 494 491 444 738 
Q 409 903 409 1263 
L 409 3319 
L 972 3319 
L 972 1478 
Q 972 1038 1006 884 
Q 1059 663 1231 536 
Q 1403 409 1656 409 
Q 1909 409 2131 539 
Q 2353 669 2445 892 
Q 2538 1116 2538 1541 
L 2538 3319 
L 3100 3319 
L 3100 0 
L 2597 0 
z
" transform="scale(0.015625)"/>
       <path id="ArialMT-73" d="M 197 991 
L 753 1078 
Q 800 744 1014 566 
Q 1228 388 1613 388 
Q 2000 388 2187 545 
Q 2375 703 2375 916 
Q 2375 1106 2209 1216 
Q 2094 1291 1634 1406 
Q 1016 1563 777 1677 
Q 538 1791 414 1992 
Q 291 2194 291 2438 
Q 291 2659 392 2848 
Q 494 3038 669 3163 
Q 800 3259 1026 3326 
Q 1253 3394 1513 3394 
Q 1903 3394 2198 3281 
Q 2494 3169 2634 2976 
Q 2775 2784 2828 2463 
L 2278 2388 
Q 2241 2644 2061 2787 
Q 1881 2931 1553 2931 
Q 1166 2931 1000 2803 
Q 834 2675 834 2503 
Q 834 2394 903 2306 
Q 972 2216 1119 2156 
Q 1203 2125 1616 2013 
Q 2213 1853 2448 1751 
Q 2684 1650 2818 1456 
Q 2953 1263 2953 975 
Q 2953 694 2789 445 
Q 2625 197 2315 61 
Q 2006 -75 1616 -75 
Q 969 -75 630 194 
Q 291 463 197 991 
z
" transform="scale(0.015625)"/>
       <path id="ArialMT-63" d="M 2588 1216 
L 3141 1144 
Q 3050 572 2676 248 
Q 2303 -75 1759 -75 
Q 1078 -75 664 370 
Q 250 816 250 1647 
Q 250 2184 428 2587 
Q 606 2991 970 3192 
Q 1334 3394 1763 3394 
Q 2303 3394 2647 3120 
Q 2991 2847 3088 2344 
L 2541 2259 
Q 2463 2594 2264 2762 
Q 2066 2931 1784 2931 
Q 1359 2931 1093 2626 
Q 828 2322 828 1663 
Q 828 994 1084 691 
Q 1341 388 1753 388 
Q 2084 388 2306 591 
Q 2528 794 2588 1216 
z
" transform="scale(0.015625)"/>
       <path id="ArialMT-70" d="M 422 -1272 
L 422 3319 
L 934 3319 
L 934 2888 
Q 1116 3141 1344 3267 
Q 1572 3394 1897 3394 
Q 2322 3394 2647 3175 
Q 2972 2956 3137 2557 
Q 3303 2159 3303 1684 
Q 3303 1175 3120 767 
Q 2938 359 2589 142 
Q 2241 -75 1856 -75 
Q 1575 -75 1351 44 
Q 1128 163 984 344 
L 984 -1272 
L 422 -1272 
z
M 931 1641 
Q 931 1000 1190 694 
Q 1450 388 1819 388 
Q 2194 388 2461 705 
Q 2728 1022 2728 1688 
Q 2728 2322 2467 2637 
Q 2206 2953 1844 2953 
Q 1484 2953 1207 2617 
Q 931 2281 931 1641 
z
" transform="scale(0.015625)"/>
       <path id="ArialMT-2f" d="M 0 -78 
L 1328 4659 
L 1778 4659 
L 453 -78 
L 0 -78 
z
" transform="scale(0.015625)"/>
      </defs>
      <use xlink:href="#ArialMT-4c" transform="translate(0 0.203125)"/>
      <use xlink:href="#ArialMT-6f" transform="translate(55.615234 0.203125)"/>
      <use xlink:href="#ArialMT-67" transform="translate(111.230469 0.203125)"/>
      <use xlink:href="#DejaVuSans-31" transform="translate(167.802734 -16.203125) scale(0.7)"/>
      <use xlink:href="#DejaVuSans-30" transform="translate(212.338867 -16.203125) scale(0.7)"/>
      <use xlink:href="#ArialMT-20" transform="translate(259.609375 0.203125)"/>
      <use xlink:href="#ArialMT-56" transform="translate(287.392578 0.203125)"/>
      <use xlink:href="#ArialMT-69" transform="translate(354.091797 0.203125)"/>
      <use xlink:href="#ArialMT-72" transform="translate(376.308594 0.203125)"/>
      <use xlink:href="#ArialMT-75" transform="translate(409.609375 0.203125)"/>
      <use xlink:href="#ArialMT-73" transform="translate(465.224609 0.203125)"/>
      <use xlink:href="#ArialMT-20" transform="translate(515.224609 0.203125)"/>
      <use xlink:href="#ArialMT-28" transform="translate(543.007812 0.203125)"/>
      <use xlink:href="#ArialMT-63" transform="translate(576.308594 0.203125)"/>
      <use xlink:href="#ArialMT-6f" transform="translate(626.308594 0.203125)"/>
      <use xlink:href="#ArialMT-70" transform="translate(681.923828 0.203125)"/>
      <use xlink:href="#ArialMT-69" transform="translate(737.539062 0.203125)"/>
      <use xlink:href="#ArialMT-65" transform="translate(759.755859 0.203125)"/>
      <use xlink:href="#ArialMT-73" transform="translate(815.371094 0.203125)"/>
      <use xlink:href="#ArialMT-2f" transform="translate(865.371094 0.203125)"/>
      <use xlink:href="#ArialMT-6d" transform="translate(893.154297 0.203125)"/>
      <use xlink:href="#ArialMT-4c" transform="translate(976.455078 0.203125)"/>
      <use xlink:href="#ArialMT-29" transform="translate(1032.070312 0.203125)"/>
     </g>
    </g>
   </g>
   <g id="patch_3">
    <path d="M 180 320.4 
L 180 43.2 
" style="fill: none; stroke: #262626; stroke-width: 1.25; stroke-linejoin: miter; stroke-linecap: square"/>
   </g>
   <g id="patch_4">
    <path d="M 407.755102 320.4 
L 407.755102 43.2 
" style="fill: none; stroke: #262626; stroke-width: 1.25; stroke-linejoin: miter; stroke-linecap: square"/>
   </g>
   <g id="patch_5">
    <path d="M 180 320.4 
L 407.755102 320.4 
" style="fill: none; stroke: #262626; stroke-width: 1.25; stroke-linejoin: miter; stroke-linecap: square"/>
   </g>
   <g id="patch_6">
    <path d="M 180 43.2 
L 407.755102 43.2 
" style="fill: none; stroke: #262626; stroke-width: 1.25; stroke-linejoin: miter; stroke-linecap: square"/>
   </g>
   <g id="FillBetweenPolyCollection_1">
    <defs>
     <path id="m563e452b92" d="M 186.698679 -39.6 
L 186.698679 -39.6 
L 186.699151 -39.6 
L 186.703867 -39.6 
L 186.751022 -39.6 
L 186.891896 -39.6 
L 187.03277 -39.6 
L 187.399668 -39.6 
L 187.800546 -39.6 
L 188.734728 -39.6 
L 189.392015 -39.6 
L 190.859464 -39.6 
L 191.649944 -39.6 
L 193.141327 -42.690005 
L 194.0134 -46.583566 
L 195.488272 -54.428993 
L 196.423902 -59.401936 
L 197.890938 -67.162825 
L 198.873007 -72.368783 
L 200.327188 -80.061684 
L 201.342765 -85.194069 
L 202.944324 -93.274793 
L 203.938631 -98.292529 
L 205.308998 -105.212497 
L 206.344156 -110.456198 
L 207.837545 -117.976366 
L 208.863382 -123.154516 
L 210.240582 -130.08908 
L 211.288007 -135.382882 
L 212.764835 -142.807893 
L 213.796559 -148.004256 
L 215.165788 -154.868857 
L 216.217694 -160.150032 
L 217.686908 -167.478153 
L 218.735552 -172.681198 
L 220.313069 -180.43685 
L 221.353177 -185.472731 
L 222.795532 -192.339103 
L 223.883205 -197.323115 
L 225.455983 -204.285426 
L 226.553804 -208.763165 
L 228.275201 -215.218337 
L 229.397397 -218.772416 
L 230.779674 -222.674988 
L 231.851995 -225.126276 
L 233.10134 -226.783522 
L 234.138508 -227.799833 
L 235.201462 -228.614567 
L 236.128582 -229.205576 
L 237.056949 -229.682177 
L 237.829649 -230.017382 
L 238.984335 -230.403029 
L 239.785298 -230.619448 
L 240.880608 -230.848102 
L 241.703778 -230.983617 
L 242.759433 -231.114996 
L 243.600857 -231.187324 
L 244.64689 -231.255503 
L 245.692922 -231.289989 
L 246.929827 -231.302485 
L 248.501304 -231.280265 
L 250.36553 -231.20597 
L 252.440065 -231.074232 
L 254.518359 -230.913371 
L 257.197831 -230.655458 
L 259.303028 -230.425581 
L 261.901614 -230.110044 
L 264.581086 -229.74694 
L 267.260558 -229.353054 
L 269.940029 -228.925034 
L 272.619501 -228.462358 
L 275.298973 -227.964619 
L 277.978445 -227.431735 
L 280.657917 -226.864009 
L 283.337388 -226.262085 
L 286.01686 -225.626842 
L 288.696332 -224.959262 
L 291.375804 -224.260295 
L 294.055276 -223.530743 
L 296.734747 -222.671061 
L 299.414219 -221.757539 
L 302.093691 -220.816339 
L 304.773163 -219.846675 
L 307.452635 -218.847375 
L 310.132106 -217.816849 
L 312.811578 -216.753036 
L 315.49105 -215.65336 
L 318.170522 -214.514657 
L 320.849993 -213.33309 
L 323.529465 -212.104024 
L 326.208937 -210.82187 
L 328.888409 -209.479857 
L 331.567881 -208.069734 
L 334.247352 -206.506424 
L 336.926824 -204.793896 
L 339.606296 -202.812146 
L 342.285768 -200.534434 
L 344.96524 -197.919479 
L 347.644711 -194.902875 
L 350.324183 -190.951274 
L 353.003655 -185.531119 
L 355.683127 -177.365432 
L 358.362599 -159.044282 
L 361.04207 -39.6 
L 363.721542 -39.6 
L 366.401014 -39.6 
L 369.080486 -39.6 
L 370.420222 -39.6 
L 370.956116 -39.6 
L 371.262566 -39.6 
L 371.406094 -39.6 
L 371.511631 -39.6 
L 371.658727 -39.6 
L 371.807915 -39.6 
L 371.86706 -39.6 
L 371.899428 -39.6 
L 371.957465 -39.6 
L 372.003159 -39.6 
L 372.073348 -39.6 
L 372.143537 -39.6 
L 372.51287 -39.6 
L 372.629798 -39.6 
L 373.048849 -39.6 
L 373.216012 -39.6 
L 373.316494 -39.6 
L 373.653303 -39.6 
L 373.852191 -39.6 
L 374.682905 -39.6 
L 375.280025 -39.6 
L 377.29335 -39.6 
L 378.926835 -39.6 
L 381.606307 -39.6 
L 383.796895 -39.6 
L 386.476367 -39.6 
L 389.155839 -39.6 
L 391.835311 -39.6 
L 394.514782 -39.6 
L 397.194254 -39.6 
L 399.873726 -39.6 
L 401.056423 -39.6 
L 401.056423 -39.6 
L 401.056423 -39.6 
L 399.873726 -39.6 
L 397.194254 -39.6 
L 394.514782 -39.6 
L 391.835311 -39.6 
L 389.155839 -39.6 
L 386.476367 -39.6 
L 383.796895 -39.6 
L 381.606307 -39.6 
L 378.926835 -39.6 
L 377.29335 -39.6 
L 375.280025 -39.6 
L 374.682905 -39.6 
L 373.852191 -41.755177 
L 373.653303 -43.267557 
L 373.316494 -49.466442 
L 373.216012 -54.484684 
L 373.048849 -66.021152 
L 372.629798 -96.840515 
L 372.51287 -107.023611 
L 372.143537 -134.129351 
L 372.073348 -136.828207 
L 372.003159 -139.389072 
L 371.957465 -141.056208 
L 371.899428 -143.087079 
L 371.86706 -143.7405 
L 371.807915 -144.934434 
L 371.658727 -147.946082 
L 371.511631 -150.91548 
L 371.406094 -153.045939 
L 371.262566 -154.57794 
L 370.956116 -156.827347 
L 370.420222 -161.995733 
L 369.080486 -171.164229 
L 366.401014 -181.600663 
L 363.721542 -188.071157 
L 361.04207 -192.695803 
L 358.362599 -196.453178 
L 355.683127 -199.657288 
L 353.003655 -202.371947 
L 350.324183 -204.737313 
L 347.644711 -206.840664 
L 344.96524 -208.740117 
L 342.285768 -210.476355 
L 339.606296 -212.213421 
L 336.926824 -213.935814 
L 334.247352 -215.538851 
L 331.567881 -217.041348 
L 328.888409 -218.457958 
L 326.208937 -219.800291 
L 323.529465 -221.077676 
L 320.849993 -222.297685 
L 318.170522 -223.466511 
L 315.49105 -224.589239 
L 312.811578 -225.67004 
L 310.132106 -226.712324 
L 307.452635 -227.718844 
L 304.773163 -228.69179 
L 302.093691 -229.63285 
L 299.414219 -230.543279 
L 296.734747 -231.42395 
L 294.055276 -232.275419 
L 291.375804 -233.097986 
L 288.696332 -233.891772 
L 286.01686 -234.6568 
L 283.337388 -235.393084 
L 280.657917 -236.100718 
L 277.978445 -236.779955 
L 275.298973 -237.431256 
L 272.619501 -238.0553 
L 269.940029 -238.65292 
L 267.260558 -239.224944 
L 264.581086 -239.770417 
L 261.901614 -240.293261 
L 259.303028 -240.771266 
L 257.197831 -241.142897 
L 254.518359 -241.578992 
L 252.440065 -241.884847 
L 250.36553 -242.16171 
L 248.501304 -242.364608 
L 246.929827 -242.507755 
L 245.692922 -242.585954 
L 244.64689 -242.627394 
L 243.600857 -242.646823 
L 242.759433 -242.637661 
L 241.703778 -242.593379 
L 240.880608 -242.528001 
L 239.785298 -242.3939 
L 238.984335 -242.254874 
L 237.829649 -241.977815 
L 237.056949 -241.741293 
L 236.128582 -241.366134 
L 235.201462 -240.89682 
L 234.138508 -240.219022 
L 233.10134 -239.349849 
L 231.851995 -238.02493 
L 230.779674 -236.856376 
L 229.397397 -235.219309 
L 228.275201 -233.770281 
L 226.553804 -231.208431 
L 225.455983 -228.907336 
L 223.883205 -225.047718 
L 222.795532 -221.601726 
L 221.353177 -216.195458 
L 220.313069 -211.581557 
L 218.735552 -203.843871 
L 217.686908 -198.205182 
L 216.217694 -190.021332 
L 215.165788 -183.927245 
L 213.796559 -175.890482 
L 212.764835 -169.743091 
L 211.288007 -160.906891 
L 210.240582 -154.576153 
L 208.863382 -146.270392 
L 207.837545 -140.054586 
L 206.344156 -131.020072 
L 205.308998 -124.726721 
L 203.938631 -116.4332 
L 202.944324 -110.398289 
L 201.342765 -100.680318 
L 200.327188 -94.511443 
L 198.873007 -85.800486 
L 197.890938 -79.950712 
L 196.423902 -71.387424 
L 195.488272 -66.139001 
L 194.0134 -58.132339 
L 193.141327 -53.418055 
L 191.649944 -45.213705 
L 190.859464 -41.78923 
L 189.392015 -39.653265 
L 188.734728 -39.6 
L 187.800546 -39.6 
L 187.399668 -39.6 
L 187.03277 -39.6 
L 186.891896 -39.6 
L 186.751022 -39.6 
L 186.703867 -39.6 
L 186.699151 -39.6 
L 186.698679 -39.6 
z
" style="stroke: #40e0d0; stroke-opacity: 0.2"/>
    </defs>
    <g clip-path="url(#p15c405d2ff)">
     <use xlink:href="#m563e452b92" x="0" y="360" style="fill: #40e0d0; fill-opacity: 0.2; stroke: #40e0d0; stroke-opacity: 0.2"/>
    </g>
   </g>
   <g id="PathCollection_1">
    <defs>
     <path id="m7665aa6964" d="M 0 7.071068 
C 1.875269 7.071068 3.673985 6.326016 5 5 
C 6.326016 3.673985 7.071068 1.875269 7.071068 0 
C 7.071068 -1.875269 6.326016 -3.673985 5 -5 
C 3.673985 -6.326016 1.875269 -7.071068 0 -7.071068 
C -1.875269 -7.071068 -3.673985 -6.326016 -5 -5 
C -6.326016 -3.673985 -7.071068 -1.875269 -7.071068 0 
C -7.071068 1.875269 -6.326016 3.673985 -5 5 
C -3.673985 6.326016 -1.875269 7.071068 0 7.071068 
z
" style="stroke: #000000; stroke-opacity: 0.8"/>
    </defs>
    <g clip-path="url(#p15c405d2ff)">
     <use xlink:href="#m7665aa6964" x="186.698679" y="320.4" style="fill-opacity: 0.8; stroke: #000000; stroke-opacity: 0.8"/>
     <use xlink:href="#m7665aa6964" x="213.493397" y="202.024942" style="fill-opacity: 0.8; stroke: #000000; stroke-opacity: 0.8"/>
     <use xlink:href="#m7665aa6964" x="240.288115" y="96.434503" style="fill-opacity: 0.8; stroke: #000000; stroke-opacity: 0.8"/>
     <use xlink:href="#m7665aa6964" x="267.082833" y="163.234082" style="fill-opacity: 0.8; stroke: #000000; stroke-opacity: 0.8"/>
     <use xlink:href="#m7665aa6964" x="293.877551" y="133.629077" style="fill-opacity: 0.8; stroke: #000000; stroke-opacity: 0.8"/>
     <use xlink:href="#m7665aa6964" x="320.672269" y="140.216802" style="fill-opacity: 0.8; stroke: #000000; stroke-opacity: 0.8"/>
     <use xlink:href="#m7665aa6964" x="347.466987" y="143.371238" style="fill-opacity: 0.8; stroke: #000000; stroke-opacity: 0.8"/>
     <use xlink:href="#m7665aa6964" x="374.261705" y="320.4" style="fill-opacity: 0.8; stroke: #000000; stroke-opacity: 0.8"/>
    </g>
   </g>
   <g id="line2d_1">
    <path d="M 186.698679 320.4 
L 191.649944 320.4 
L 196.423902 294.0965 
L 215.165788 190.081537 
L 218.735552 170.879537 
L 221.353177 157.630961 
L 223.883205 146.367587 
L 225.455983 140.564195 
L 226.553804 137.162607 
L 228.275201 132.953864 
L 229.397397 130.872538 
L 230.779674 128.916087 
L 231.851995 127.767233 
L 233.10134 126.741282 
L 234.138508 126.088606 
L 236.128582 125.205646 
L 237.829649 124.728065 
L 239.785298 124.396572 
L 242.759433 124.194291 
L 245.692922 124.226036 
L 250.36553 124.553504 
L 257.197831 125.357225 
L 264.581086 126.459346 
L 272.619501 127.873021 
L 280.657917 129.521648 
L 288.696332 131.417321 
L 296.734747 133.557026 
L 304.773163 135.937874 
L 312.811578 138.574259 
L 320.849993 141.509834 
L 326.208937 143.672932 
L 331.567881 146.045525 
L 336.926824 148.686238 
L 342.285768 151.684203 
L 344.96524 153.358787 
L 347.644711 155.183073 
L 350.324183 157.192297 
L 353.003655 159.43578 
L 355.683127 161.985589 
L 358.362599 164.953079 
L 361.04207 168.52388 
L 363.721542 173.04329 
L 366.401014 179.275685 
L 369.080486 189.578067 
L 370.420222 199.323481 
L 370.956116 205.961356 
L 371.406094 215.090569 
L 371.658727 224.016019 
L 372.073348 252.410768 
L 373.048849 320.4 
L 401.056423 320.4 
L 401.056423 320.4 
" clip-path="url(#p15c405d2ff)" style="fill: none; stroke: #40e0d0; stroke-width: 3; stroke-linecap: round"/>
   </g>
  </g>
  <g id="axes_2">
   <g id="patch_7">
    <path d="M 476.081633 320.4 
L 703.836735 320.4 
L 703.836735 43.2 
L 476.081633 43.2 
L 476.081633 320.4 
z
" style="fill: none"/>
   </g>
   <g id="matplotlib.axis_3">
    <g id="xtick_6">
     <g id="text_13">
      <!-- 0 -->
      <g style="fill: #262626" transform="translate(474.10525 352.232375) scale(0.312 -0.312)">
       <use xlink:href="#ArialMT-30"/>
      </g>
     </g>
    </g>
    <g id="xtick_7">
     <g id="text_14">
      <!-- 2 -->
      <g style="fill: #262626" transform="translate(527.694685 352.232375) scale(0.312 -0.312)">
       <use xlink:href="#ArialMT-32"/>
      </g>
     </g>
    </g>
    <g id="xtick_8">
     <g id="text_15">
      <!-- 4 -->
      <g style="fill: #262626" transform="translate(581.284121 352.232375) scale(0.312 -0.312)">
       <use xlink:href="#ArialMT-34"/>
      </g>
     </g>
    </g>
    <g id="xtick_9">
     <g id="text_16">
      <!-- 6 -->
      <g style="fill: #262626" transform="translate(634.873557 352.232375) scale(0.312 -0.312)">
       <use xlink:href="#ArialMT-36"/>
      </g>
     </g>
    </g>
    <g id="xtick_10">
     <g id="text_17">
      <!-- 8 -->
      <g style="fill: #262626" transform="translate(688.462993 352.232375) scale(0.312 -0.312)">
       <use xlink:href="#ArialMT-38"/>
      </g>
     </g>
    </g>
    <g id="text_18">
     <!-- Time (d) -->
     <g style="fill: #262626" transform="translate(537.272621 383.253281) scale(0.286 -0.286)">
      <use xlink:href="#ArialMT-54"/>
      <use xlink:href="#ArialMT-69" transform="translate(57.333984 0)"/>
      <use xlink:href="#ArialMT-6d" transform="translate(79.550781 0)"/>
      <use xlink:href="#ArialMT-65" transform="translate(162.851562 0)"/>
      <use xlink:href="#ArialMT-20" transform="translate(218.466797 0)"/>
      <use xlink:href="#ArialMT-28" transform="translate(246.25 0)"/>
      <use xlink:href="#ArialMT-64" transform="translate(279.550781 0)"/>
      <use xlink:href="#ArialMT-29" transform="translate(335.166016 0)"/>
     </g>
    </g>
   </g>
   <g id="matplotlib.axis_4">
    <g id="ytick_6">
     <g id="text_19">
      <!-- 4 -->
      <g style="fill: #262626" transform="translate(449.231508 269.966187) scale(0.312 -0.312)">
       <use xlink:href="#ArialMT-34"/>
      </g>
     </g>
    </g>
    <g id="ytick_7">
     <g id="text_20">
      <!-- 6 -->
      <g style="fill: #262626" transform="translate(449.231508 146.766188) scale(0.312 -0.312)">
       <use xlink:href="#ArialMT-36"/>
      </g>
     </g>
    </g>
    <g id="text_21">
     <!-- Log$_{10}$ CD8$^+$ T cells -->
     <g style="fill: #262626" transform="translate(438.939508 309.642) rotate(-90) scale(0.286 -0.286)">
      <defs>
       <path id="ArialMT-43" d="M 3763 1606 
L 4369 1453 
Q 4178 706 3683 314 
Q 3188 -78 2472 -78 
Q 1731 -78 1267 223 
Q 803 525 561 1097 
Q 319 1669 319 2325 
Q 319 3041 592 3573 
Q 866 4106 1370 4382 
Q 1875 4659 2481 4659 
Q 3169 4659 3637 4309 
Q 4106 3959 4291 3325 
L 3694 3184 
Q 3534 3684 3231 3912 
Q 2928 4141 2469 4141 
Q 1941 4141 1586 3887 
Q 1231 3634 1087 3207 
Q 944 2781 944 2328 
Q 944 1744 1114 1308 
Q 1284 872 1643 656 
Q 2003 441 2422 441 
Q 2931 441 3284 734 
Q 3638 1028 3763 1606 
z
" transform="scale(0.015625)"/>
       <path id="ArialMT-44" d="M 494 0 
L 494 4581 
L 2072 4581 
Q 2606 4581 2888 4516 
Q 3281 4425 3559 4188 
Q 3922 3881 4101 3404 
Q 4281 2928 4281 2316 
Q 4281 1794 4159 1391 
Q 4038 988 3847 723 
Q 3656 459 3429 307 
Q 3203 156 2883 78 
Q 2563 0 2147 0 
L 494 0 
z
M 1100 541 
L 2078 541 
Q 2531 541 2789 625 
Q 3047 709 3200 863 
Q 3416 1078 3536 1442 
Q 3656 1806 3656 2325 
Q 3656 3044 3420 3430 
Q 3184 3816 2847 3947 
Q 2603 4041 2063 4041 
L 1100 4041 
L 1100 541 
z
" transform="scale(0.015625)"/>
       <path id="DejaVuSans-2b" d="M 2944 4013 
L 2944 2272 
L 4684 2272 
L 4684 1741 
L 2944 1741 
L 2944 0 
L 2419 0 
L 2419 1741 
L 678 1741 
L 678 2272 
L 2419 2272 
L 2419 4013 
L 2944 4013 
z
" transform="scale(0.015625)"/>
       <path id="ArialMT-6c" d="M 409 0 
L 409 4581 
L 972 4581 
L 972 0 
L 409 0 
z
" transform="scale(0.015625)"/>
      </defs>
      <use xlink:href="#ArialMT-4c" transform="translate(0 0.826562)"/>
      <use xlink:href="#ArialMT-6f" transform="translate(55.615234 0.826562)"/>
      <use xlink:href="#ArialMT-67" transform="translate(111.230469 0.826562)"/>
      <use xlink:href="#DejaVuSans-31" transform="translate(167.802734 -15.579688) scale(0.7)"/>
      <use xlink:href="#DejaVuSans-30" transform="translate(212.338867 -15.579688) scale(0.7)"/>
      <use xlink:href="#ArialMT-20" transform="translate(259.609375 0.826562)"/>
      <use xlink:href="#ArialMT-43" transform="translate(287.392578 0.826562)"/>
      <use xlink:href="#ArialMT-44" transform="translate(359.609375 0.826562)"/>
      <use xlink:href="#ArialMT-38" transform="translate(431.826172 0.826562)"/>
      <use xlink:href="#DejaVuSans-2b" transform="translate(502.036133 39.107812) scale(0.7)"/>
      <use xlink:href="#ArialMT-20" transform="translate(577.060547 0.826562)"/>
      <use xlink:href="#ArialMT-54" transform="translate(604.84375 0.826562)"/>
      <use xlink:href="#ArialMT-20" transform="translate(665.927734 0.826562)"/>
      <use xlink:href="#ArialMT-63" transform="translate(693.710938 0.826562)"/>
      <use xlink:href="#ArialMT-65" transform="translate(743.710938 0.826562)"/>
      <use xlink:href="#ArialMT-6c" transform="translate(799.326172 0.826562)"/>
      <use xlink:href="#ArialMT-6c" transform="translate(821.542969 0.826562)"/>
      <use xlink:href="#ArialMT-73" transform="translate(843.759766 0.826562)"/>
     </g>
    </g>
   </g>
   <g id="patch_8">
    <path d="M 476.081633 320.4 
L 476.081633 43.2 
" style="fill: none; stroke: #262626; stroke-width: 1.25; stroke-linejoin: miter; stroke-linecap: square"/>
   </g>
   <g id="patch_9">
    <path d="M 703.836735 320.4 
L 703.836735 43.2 
" style="fill: none; stroke: #262626; stroke-width: 1.25; stroke-linejoin: miter; stroke-linecap: square"/>
   </g>
   <g id="patch_10">
    <path d="M 476.081633 320.4 
L 703.836735 320.4 
" style="fill: none; stroke: #262626; stroke-width: 1.25; stroke-linejoin: miter; stroke-linecap: square"/>
   </g>
   <g id="patch_11">
    <path d="M 476.081633 43.2 
L 703.836735 43.2 
" style="fill: none; stroke: #262626; stroke-width: 1.25; stroke-linejoin: miter; stroke-linecap: square"/>
   </g>
   <g id="FillBetweenPolyCollection_2">
    <defs>
     <path id="madd4a2ab23" d="M 482.780312 -158.553666 
L 482.780312 -158.553666 
L 482.780784 -158.553666 
L 482.785499 -158.553666 
L 482.832654 -158.553666 
L 482.973528 -158.553666 
L 483.114403 -158.553666 
L 483.481301 -158.553666 
L 483.882179 -158.553666 
L 484.81636 -158.553666 
L 485.473648 -158.553666 
L 486.941096 -158.553666 
L 487.731577 -158.553666 
L 489.22296 -158.553666 
L 490.095032 -158.553666 
L 491.569905 -158.553666 
L 492.505535 -158.553666 
L 493.97257 -158.553666 
L 494.95464 -158.553666 
L 496.408821 -158.553666 
L 497.424398 -158.553666 
L 499.025957 -158.553666 
L 500.020263 -158.553666 
L 501.390631 -158.553666 
L 502.425788 -158.553666 
L 503.919177 -158.553666 
L 504.945015 -158.553667 
L 506.322215 -158.553667 
L 507.36964 -158.553668 
L 508.846468 -158.553669 
L 509.878191 -158.55367 
L 511.24742 -158.553674 
L 512.299327 -158.553678 
L 513.768541 -158.553688 
L 514.817185 -158.553699 
L 516.394701 -158.553727 
L 517.43481 -158.553756 
L 518.877165 -158.553823 
L 519.964838 -158.553902 
L 521.537616 -158.554094 
L 522.635436 -158.554309 
L 524.356834 -158.554893 
L 525.47903 -158.555518 
L 526.861306 -158.556742 
L 527.933628 -158.558212 
L 529.182973 -158.560819 
L 530.220141 -158.564177 
L 531.283095 -158.568975 
L 532.210215 -158.574861 
L 533.138581 -158.582937 
L 533.911281 -158.591804 
L 535.065967 -158.610085 
L 535.866931 -158.627477 
L 536.96224 -158.660307 
L 537.78541 -158.691133 
L 538.841066 -158.746678 
L 539.68249 -158.800837 
L 540.728522 -158.893503 
L 541.774555 -159.007887 
L 543.01146 -159.202131 
L 544.582937 -159.521216 
L 546.447162 -160.112101 
L 548.521698 -161.010013 
L 550.599992 -162.292404 
L 553.279463 -164.602264 
L 555.384661 -166.82277 
L 557.983247 -170.259174 
L 560.662719 -174.218079 
L 563.34219 -178.566622 
L 566.021662 -183.027605 
L 568.701134 -187.431154 
L 571.380606 -191.627928 
L 574.060078 -195.558304 
L 576.739549 -199.160346 
L 579.419021 -202.410185 
L 582.098493 -205.303766 
L 584.777965 -207.850296 
L 587.457436 -210.06742 
L 590.136908 -211.977806 
L 592.81638 -212.698272 
L 595.495852 -213.077778 
L 598.175324 -212.994421 
L 600.854795 -212.84944 
L 603.534267 -212.658431 
L 606.213739 -212.433492 
L 608.893211 -212.183864 
L 611.572683 -211.9165 
L 614.252154 -211.636562 
L 616.931626 -211.347839 
L 619.611098 -211.05308 
L 622.29057 -210.754261 
L 624.970042 -210.452789 
L 627.649513 -210.149661 
L 630.328985 -209.845578 
L 633.008457 -209.541029 
L 635.687929 -209.236357 
L 638.3674 -208.9318 
L 641.046872 -208.627524 
L 643.726344 -208.323643 
L 646.405816 -208.02024 
L 649.085288 -207.717371 
L 651.764759 -207.415077 
L 654.444231 -207.113387 
L 657.123703 -206.812324 
L 659.803175 -206.511905 
L 662.482647 -206.212143 
L 665.162118 -205.912994 
L 666.501854 -205.763686 
L 667.037749 -205.704009 
L 667.344199 -205.669897 
L 667.487726 -205.653928 
L 667.593263 -205.642188 
L 667.740359 -205.625824 
L 667.889548 -205.609227 
L 667.948692 -205.602648 
L 667.981061 -205.599047 
L 668.039098 -205.592591 
L 668.084791 -205.587507 
L 668.15498 -205.579699 
L 668.225169 -205.571891 
L 668.594503 -205.530827 
L 668.711431 -205.517827 
L 669.130482 -205.471261 
L 669.297645 -205.452687 
L 669.398126 -205.441523 
L 669.734935 -205.404105 
L 669.933824 -205.38202 
L 670.764538 -205.289813 
L 671.361657 -205.223569 
L 673.374983 -205.00048 
L 675.008468 -204.819769 
L 677.687939 -204.523946 
L 679.878528 -204.282625 
L 682.558 -203.988083 
L 685.237471 -203.694248 
L 687.916943 -203.401143 
L 690.596415 -203.108775 
L 693.275887 -202.81715 
L 695.955359 -202.526249 
L 697.138055 -202.398036 
L 697.138055 -219.786975 
L 697.138055 -219.786975 
L 695.955359 -219.863936 
L 693.275887 -220.038388 
L 690.596415 -220.212977 
L 687.916943 -220.387689 
L 685.237471 -220.562523 
L 682.558 -220.737477 
L 679.878528 -220.912547 
L 677.687939 -221.055757 
L 675.008468 -221.231025 
L 673.374983 -221.337912 
L 671.361657 -221.469721 
L 670.764538 -221.508814 
L 669.933824 -221.56322 
L 669.734935 -221.576246 
L 669.398126 -221.598305 
L 669.297645 -221.604886 
L 669.130482 -221.615834 
L 668.711431 -221.643284 
L 668.594503 -221.650944 
L 668.225169 -221.67514 
L 668.15498 -221.679739 
L 668.084791 -221.684337 
L 668.039098 -221.687331 
L 667.981061 -221.691133 
L 667.948692 -221.693254 
L 667.889548 -221.697128 
L 667.740359 -221.706902 
L 667.593263 -221.716539 
L 667.487726 -221.723453 
L 667.344199 -221.732856 
L 667.037749 -221.752933 
L 666.501854 -221.788042 
L 665.162118 -221.875827 
L 662.482647 -222.051417 
L 659.803175 -222.226996 
L 657.123703 -222.402505 
L 654.444231 -222.577856 
L 651.764759 -222.752937 
L 649.085288 -222.927581 
L 646.405816 -223.101558 
L 643.726344 -223.274549 
L 641.046872 -223.446108 
L 638.3674 -223.615626 
L 635.687929 -223.782271 
L 633.008457 -223.944914 
L 630.328985 -224.102039 
L 627.649513 -224.251626 
L 624.970042 -224.391011 
L 622.29057 -224.516709 
L 619.611098 -224.624219 
L 616.931626 -224.707785 
L 614.252154 -224.760133 
L 611.572683 -224.772183 
L 608.893211 -224.732745 
L 606.213739 -224.628208 
L 603.534267 -224.442237 
L 600.854795 -224.155492 
L 598.175324 -223.745399 
L 595.495852 -223.185973 
L 592.81638 -222.447735 
L 590.136908 -221.497735 
L 587.457436 -220.929609 
L 584.777965 -220.30695 
L 582.098493 -219.449758 
L 579.419021 -218.312382 
L 576.739549 -216.844791 
L 574.060078 -214.993516 
L 571.380606 -213.581659 
L 568.701134 -211.97133 
L 566.021662 -209.88332 
L 563.34219 -207.237359 
L 560.662719 -203.95835 
L 557.983247 -199.988303 
L 555.384661 -195.463994 
L 553.279463 -191.349785 
L 550.599992 -185.575234 
L 548.521698 -180.862335 
L 546.447162 -176.165641 
L 544.582937 -172.163013 
L 543.01146 -169.109141 
L 541.774555 -166.965235 
L 540.728522 -165.363826 
L 539.68249 -163.973755 
L 538.841066 -163.013738 
L 537.78541 -161.977126 
L 536.96224 -161.322882 
L 535.866931 -160.59088 
L 535.065967 -160.180354 
L 533.911281 -159.693542 
L 533.138581 -159.453455 
L 532.210215 -159.221062 
L 531.283095 -159.04766 
L 530.220141 -158.898398 
L 529.182973 -158.79408 
L 527.933628 -158.710029 
L 526.861306 -158.658996 
L 525.47903 -158.61865 
L 524.356834 -158.595806 
L 522.635436 -158.576754 
L 521.537616 -158.568569 
L 519.964838 -158.562187 
L 518.877165 -158.559234 
L 517.43481 -158.557011 
L 516.394701 -158.555853 
L 514.817185 -158.554913 
L 513.768541 -158.554485 
L 512.299327 -158.554146 
L 511.24742 -158.553982 
L 509.878191 -158.553856 
L 508.846468 -158.55379 
L 507.36964 -158.553736 
L 506.322215 -158.553711 
L 504.945015 -158.553691 
L 503.919177 -158.553682 
L 502.425788 -158.553674 
L 501.390631 -158.553671 
L 500.020263 -158.553668 
L 499.025957 -158.553667 
L 497.424398 -158.553667 
L 496.408821 -158.553666 
L 494.95464 -158.553666 
L 493.97257 -158.553666 
L 492.505535 -158.553666 
L 491.569905 -158.553666 
L 490.095032 -158.553666 
L 489.22296 -158.553666 
L 487.731577 -158.553666 
L 486.941096 -158.553666 
L 485.473648 -158.553666 
L 484.81636 -158.553666 
L 483.882179 -158.553666 
L 483.481301 -158.553666 
L 483.114403 -158.553666 
L 482.973528 -158.553666 
L 482.832654 -158.553666 
L 482.785499 -158.553666 
L 482.780784 -158.553666 
L 482.780312 -158.553666 
z
" style="stroke: #40e0d0; stroke-opacity: 0.2"/>
    </defs>
    <g clip-path="url(#p4dfb55c892)">
     <use xlink:href="#madd4a2ab23" x="0" y="360" style="fill: #40e0d0; fill-opacity: 0.2; stroke: #40e0d0; stroke-opacity: 0.2"/>
    </g>
   </g>
   <g id="FillBetweenPolyCollection_3">
    <defs>
     <path id="m450036a0a2" d="M 482.780312 -114.973746 
L 482.780312 -114.973746 
L 482.780784 -114.973746 
L 482.785499 -114.973746 
L 482.832654 -114.973746 
L 482.973528 -114.973746 
L 483.114403 -114.973746 
L 483.481301 -114.973746 
L 483.882179 -114.973746 
L 484.81636 -114.973746 
L 485.473648 -114.973746 
L 486.941096 -114.973746 
L 487.731577 -114.973746 
L 489.22296 -114.973746 
L 490.095032 -114.973746 
L 491.569905 -114.973746 
L 492.505535 -114.973746 
L 493.97257 -114.973746 
L 494.95464 -114.973746 
L 496.408821 -114.973746 
L 497.424398 -114.973746 
L 499.025957 -114.973746 
L 500.020263 -114.973746 
L 501.390631 -114.973746 
L 502.425788 -114.973746 
L 503.919177 -114.973746 
L 504.945015 -114.973746 
L 506.322215 -114.973746 
L 507.36964 -114.973746 
L 508.846468 -114.973746 
L 509.878191 -114.973746 
L 511.24742 -114.973746 
L 512.299327 -114.973746 
L 513.768541 -114.973746 
L 514.817185 -114.973746 
L 516.394701 -114.973746 
L 517.43481 -114.973746 
L 518.877165 -114.973746 
L 519.964838 -114.973746 
L 521.537616 -114.973746 
L 522.635436 -114.973746 
L 524.356834 -114.973746 
L 525.47903 -114.973746 
L 526.861306 -114.973746 
L 527.933628 -114.973746 
L 529.182973 -114.973746 
L 530.220141 -114.973746 
L 531.283095 -114.973747 
L 532.210215 -114.973747 
L 533.138581 -114.973748 
L 533.911281 -114.973749 
L 535.065967 -114.973751 
L 535.866931 -114.973752 
L 536.96224 -114.973755 
L 537.78541 -114.973759 
L 538.841066 -114.973765 
L 539.68249 -114.973771 
L 540.728522 -114.973782 
L 541.774555 -114.973799 
L 543.01146 -114.973829 
L 544.582937 -114.97389 
L 546.447162 -114.974021 
L 548.521698 -114.974298 
L 550.599992 -114.974927 
L 553.279463 -114.976549 
L 555.384661 -114.978887 
L 557.983247 -114.985592 
L 560.662719 -114.997598 
L 563.34219 -115.022018 
L 566.021662 -115.063221 
L 568.701134 -115.136391 
L 571.380606 -115.248371 
L 574.060078 -115.41454 
L 576.739549 -115.649136 
L 579.419021 -115.964884 
L 582.098493 -116.371422 
L 584.777965 -116.874827 
L 587.457436 -117.476774 
L 590.136908 -118.173805 
L 592.81638 -118.957782 
L 595.495852 -119.817087 
L 598.175324 -120.737866 
L 600.854795 -121.705306 
L 603.534267 -122.704761 
L 606.213739 -123.722618 
L 608.893211 -124.746862 
L 611.572683 -125.767366 
L 614.252154 -126.775965 
L 616.931626 -127.766356 
L 619.611098 -128.733914 
L 622.29057 -129.675448 
L 624.970042 -130.588948 
L 627.649513 -131.473346 
L 630.328985 -132.328294 
L 633.008457 -133.153984 
L 635.687929 -133.950995 
L 638.3674 -134.720165 
L 641.046872 -135.462506 
L 643.726344 -136.167745 
L 646.405816 -136.751988 
L 649.085288 -137.320133 
L 651.764759 -137.872916 
L 654.444231 -138.411033 
L 657.123703 -138.935139 
L 659.803175 -139.445851 
L 662.482647 -139.943748 
L 665.162118 -140.429493 
L 666.501854 -140.667837 
L 667.037749 -140.762368 
L 667.344199 -140.816207 
L 667.487726 -140.841423 
L 667.593263 -140.859889 
L 667.740359 -140.885601 
L 667.889548 -140.911678 
L 667.948692 -140.922016 
L 667.981061 -140.927674 
L 668.039098 -140.937819 
L 668.084791 -140.945783 
L 668.15498 -140.957913 
L 668.225169 -140.970043 
L 668.594503 -141.033872 
L 668.711431 -141.05408 
L 669.130482 -141.126501 
L 669.297645 -141.155391 
L 669.398126 -141.172756 
L 669.734935 -141.230964 
L 669.933824 -141.265336 
L 670.764538 -141.406758 
L 671.361657 -141.508161 
L 673.374983 -141.845459 
L 675.008468 -142.116131 
L 677.687939 -142.550735 
L 679.878528 -142.898948 
L 682.558 -143.316126 
L 685.237471 -143.724219 
L 687.916943 -144.12356 
L 690.596415 -144.514461 
L 693.275887 -144.897218 
L 695.955359 -145.272115 
L 697.138055 -145.435406 
L 697.138055 -168.879732 
L 697.138055 -168.879732 
L 695.955359 -168.676349 
L 693.275887 -168.209387 
L 690.596415 -167.729445 
L 687.916943 -167.235917 
L 685.237471 -166.728156 
L 682.558 -166.205466 
L 679.878528 -165.667689 
L 677.687939 -165.21457 
L 675.008468 -164.646951 
L 673.374983 -164.290052 
L 671.361657 -163.843927 
L 670.764538 -163.709177 
L 669.933824 -163.519948 
L 669.734935 -163.474289 
L 669.398126 -163.396818 
L 669.297645 -163.373652 
L 669.130482 -163.334989 
L 668.711431 -163.23782 
L 668.594503 -163.210608 
L 668.225169 -163.124425 
L 668.15498 -163.108007 
L 668.084791 -163.091568 
L 668.039098 -163.080858 
L 667.981061 -163.067246 
L 667.948692 -163.05965 
L 667.889548 -163.045763 
L 667.740359 -163.010679 
L 667.593263 -162.976023 
L 667.487726 -162.951135 
L 667.344199 -162.917176 
L 667.037749 -162.843483 
L 666.501854 -162.714616 
L 665.162118 -162.392446 
L 662.482647 -161.72976 
L 659.803175 -161.04357 
L 657.123703 -160.332418 
L 654.444231 -159.594721 
L 651.764759 -158.828748 
L 649.085288 -158.032613 
L 646.405816 -157.204255 
L 643.726344 -156.341431 
L 641.046872 -155.441695 
L 638.3674 -154.50239 
L 635.687929 -153.520641 
L 633.008457 -152.493353 
L 630.328985 -151.41722 
L 627.649513 -150.28875 
L 624.970042 -149.207924 
L 622.29057 -148.122339 
L 619.611098 -146.987453 
L 616.931626 -145.799804 
L 614.252154 -144.55586 
L 611.572683 -143.252144 
L 608.893211 -141.885419 
L 606.213739 -140.452957 
L 603.534267 -138.952898 
L 600.854795 -137.384753 
L 598.175324 -135.750025 
L 595.495852 -134.05299 
L 592.81638 -132.301591 
L 590.136908 -130.508393 
L 587.457436 -128.691472 
L 584.777965 -126.875007 
L 582.098493 -125.089304 
L 579.419021 -123.54114 
L 576.739549 -122.130064 
L 574.060078 -120.790306 
L 571.380606 -119.554457 
L 568.701134 -118.452979 
L 566.021662 -117.509924 
L 563.34219 -116.738924 
L 560.662719 -116.140651 
L 557.983247 -115.702542 
L 555.384661 -115.408349 
L 553.279463 -115.242836 
L 550.599992 -115.112964 
L 548.521698 -115.052309 
L 546.447162 -115.016637 
L 544.582937 -114.997681 
L 543.01146 -114.988156 
L 541.774555 -114.983304 
L 540.728522 -114.980457 
L 539.68249 -114.978414 
L 538.841066 -114.97723 
L 537.78541 -114.976141 
L 536.96224 -114.975537 
L 535.866931 -114.974952 
L 535.065967 -114.974651 
L 533.911281 -114.974339 
L 533.138581 -114.974194 
L 532.210215 -114.974065 
L 531.283095 -114.973973 
L 530.220141 -114.973898 
L 529.182973 -114.973849 
L 527.933628 -114.973811 
L 526.861306 -114.97379 
L 525.47903 -114.973772 
L 524.356834 -114.973763 
L 522.635436 -114.973754 
L 521.537616 -114.973751 
L 519.964838 -114.973749 
L 518.877165 -114.973748 
L 517.43481 -114.973747 
L 516.394701 -114.973746 
L 514.817185 -114.973746 
L 513.768541 -114.973746 
L 512.299327 -114.973746 
L 511.24742 -114.973746 
L 509.878191 -114.973746 
L 508.846468 -114.973746 
L 507.36964 -114.973746 
L 506.322215 -114.973746 
L 504.945015 -114.973746 
L 503.919177 -114.973746 
L 502.425788 -114.973746 
L 501.390631 -114.973746 
L 500.020263 -114.973746 
L 499.025957 -114.973746 
L 497.424398 -114.973746 
L 496.408821 -114.973746 
L 494.95464 -114.973746 
L 493.97257 -114.973746 
L 492.505535 -114.973746 
L 491.569905 -114.973746 
L 490.095032 -114.973746 
L 489.22296 -114.973746 
L 487.731577 -114.973746 
L 486.941096 -114.973746 
L 485.473648 -114.973746 
L 484.81636 -114.973746 
L 483.882179 -114.973746 
L 483.481301 -114.973746 
L 483.114403 -114.973746 
L 482.973528 -114.973746 
L 482.832654 -114.973746 
L 482.785499 -114.973746 
L 482.780784 -114.973746 
L 482.780312 -114.973746 
z
" style="stroke: #40e0d0; stroke-opacity: 0.2"/>
    </defs>
    <g clip-path="url(#p4dfb55c892)">
     <use xlink:href="#m450036a0a2" x="0" y="360" style="fill: #40e0d0; fill-opacity: 0.2; stroke: #40e0d0; stroke-opacity: 0.2"/>
    </g>
   </g>
   <g id="PathCollection_2">
    <g clip-path="url(#p4dfb55c892)">
     <use xlink:href="#m7665aa6964" x="482.780312" y="201.446334" style="fill-opacity: 0.8; stroke: #000000; stroke-opacity: 0.8"/>
     <use xlink:href="#m7665aa6964" x="509.57503" y="180.841044" style="fill-opacity: 0.8; stroke: #000000; stroke-opacity: 0.8"/>
     <use xlink:href="#m7665aa6964" x="536.369748" y="174.505274" style="fill-opacity: 0.8; stroke: #000000; stroke-opacity: 0.8"/>
     <use xlink:href="#m7665aa6964" x="563.164466" y="172.264434" style="fill-opacity: 0.8; stroke: #000000; stroke-opacity: 0.8"/>
     <use xlink:href="#m7665aa6964" x="589.959184" y="149.697872" style="fill-opacity: 0.8; stroke: #000000; stroke-opacity: 0.8"/>
     <use xlink:href="#m7665aa6964" x="616.753902" y="134.769519" style="fill-opacity: 0.8; stroke: #000000; stroke-opacity: 0.8"/>
     <use xlink:href="#m7665aa6964" x="643.548619" y="147.784747" style="fill-opacity: 0.8; stroke: #000000; stroke-opacity: 0.8"/>
     <use xlink:href="#m7665aa6964" x="670.343337" y="147.628485" style="fill-opacity: 0.8; stroke: #000000; stroke-opacity: 0.8"/>
    </g>
   </g>
   <g id="PathCollection_3">
    <defs>
     <path id="m95510473b6" d="M -7.071068 7.071068 
L 7.071068 7.071068 
L 7.071068 -7.071068 
L -7.071068 -7.071068 
z
" style="stroke: #000000; stroke-opacity: 0.8"/>
    </defs>
    <g clip-path="url(#p4dfb55c892)">
     <use xlink:href="#m95510473b6" x="482.780312" y="245.025734" style="fill-opacity: 0.8; stroke: #000000; stroke-opacity: 0.8"/>
     <use xlink:href="#m95510473b6" x="509.57503" y="250.178734" style="fill-opacity: 0.8; stroke: #000000; stroke-opacity: 0.8"/>
     <use xlink:href="#m95510473b6" x="536.369748" y="242.537704" style="fill-opacity: 0.8; stroke: #000000; stroke-opacity: 0.8"/>
     <use xlink:href="#m95510473b6" x="563.164466" y="235.811414" style="fill-opacity: 0.8; stroke: #000000; stroke-opacity: 0.8"/>
     <use xlink:href="#m95510473b6" x="589.959184" y="231.114575" style="fill-opacity: 0.8; stroke: #000000; stroke-opacity: 0.8"/>
     <use xlink:href="#m95510473b6" x="616.753902" y="221.881537" style="fill-opacity: 0.8; stroke: #000000; stroke-opacity: 0.8"/>
     <use xlink:href="#m95510473b6" x="643.548619" y="216.580747" style="fill-opacity: 0.8; stroke: #000000; stroke-opacity: 0.8"/>
     <use xlink:href="#m95510473b6" x="670.343337" y="210.076192" style="fill-opacity: 0.8; stroke: #000000; stroke-opacity: 0.8"/>
    </g>
   </g>
   <g id="line2d_2">
    <path d="M 482.780312 201.446334 
L 532.210215 201.351553 
L 535.866931 201.128319 
L 537.78541 200.871845 
L 539.68249 200.452143 
L 541.774555 199.708385 
L 543.01146 199.086345 
L 544.582937 198.057704 
L 546.447162 196.446107 
L 548.521698 194.121143 
L 550.599992 191.252361 
L 553.279463 186.898161 
L 557.983247 178.318299 
L 560.662719 173.405786 
L 563.34219 168.750972 
L 566.021662 164.482232 
L 568.701134 160.664899 
L 571.380606 157.319389 
L 574.060078 154.436755 
L 576.739549 151.990187 
L 579.419021 149.94292 
L 582.098493 148.253479 
L 584.777965 146.879083 
L 587.457436 145.777841 
L 590.136908 144.910134 
L 592.81638 144.239463 
L 595.495852 143.732916 
L 600.854795 143.099542 
L 606.213739 142.821846 
L 611.572683 142.766014 
L 619.611098 142.911625 
L 635.687929 143.516527 
L 697.138055 146.216346 
L 697.138055 146.216346 
" clip-path="url(#p4dfb55c892)" style="fill: none; stroke: #40e0d0; stroke-width: 3; stroke-linecap: round"/>
   </g>
   <g id="line2d_3">
    <path d="M 482.780312 245.026254 
L 553.279463 244.931093 
L 557.983247 244.745436 
L 563.34219 244.254953 
L 566.021662 243.846867 
L 568.701134 243.30504 
L 571.380606 242.618862 
L 574.060078 241.786451 
L 576.739549 240.814839 
L 582.098493 238.519142 
L 587.457436 235.903858 
L 603.534267 227.800998 
L 608.893211 225.337489 
L 614.252154 223.048006 
L 619.611098 220.929533 
L 627.649513 218.045135 
L 635.687929 215.466485 
L 643.726344 213.144269 
L 651.764759 211.037076 
L 662.482647 208.505458 
L 673.374983 206.201847 
L 685.237471 203.9466 
L 697.138055 201.904677 
L 697.138055 201.904677 
" clip-path="url(#p4dfb55c892)" style="fill: none; stroke-dasharray: 11.1,4.8; stroke-dashoffset: 0; stroke: #40e0d0; stroke-width: 3"/>
   </g>
  </g>
  <g id="text_22">
   <!-- Individual 308 -->
   <g style="fill: #262626" transform="translate(335.733375 29.532375) scale(0.312 -0.312)">
    <defs>
     <path id="ArialMT-49" d="M 597 0 
L 597 4581 
L 1203 4581 
L 1203 0 
L 597 0 
z
" transform="scale(0.015625)"/>
     <path id="ArialMT-6e" d="M 422 0 
L 422 3319 
L 928 3319 
L 928 2847 
Q 1294 3394 1984 3394 
Q 2284 3394 2536 3286 
Q 2788 3178 2913 3003 
Q 3038 2828 3088 2588 
Q 3119 2431 3119 2041 
L 3119 0 
L 2556 0 
L 2556 2019 
Q 2556 2363 2490 2533 
Q 2425 2703 2258 2804 
Q 2091 2906 1866 2906 
Q 1506 2906 1245 2678 
Q 984 2450 984 1813 
L 984 0 
L 422 0 
z
" transform="scale(0.015625)"/>
     <path id="ArialMT-76" d="M 1344 0 
L 81 3319 
L 675 3319 
L 1388 1331 
Q 1503 1009 1600 663 
Q 1675 925 1809 1294 
L 2547 3319 
L 3125 3319 
L 1869 0 
L 1344 0 
z
" transform="scale(0.015625)"/>
     <path id="ArialMT-61" d="M 2588 409 
Q 2275 144 1986 34 
Q 1697 -75 1366 -75 
Q 819 -75 525 192 
Q 231 459 231 875 
Q 231 1119 342 1320 
Q 453 1522 633 1644 
Q 813 1766 1038 1828 
Q 1203 1872 1538 1913 
Q 2219 1994 2541 2106 
Q 2544 2222 2544 2253 
Q 2544 2597 2384 2738 
Q 2169 2928 1744 2928 
Q 1347 2928 1158 2789 
Q 969 2650 878 2297 
L 328 2372 
Q 403 2725 575 2942 
Q 747 3159 1072 3276 
Q 1397 3394 1825 3394 
Q 2250 3394 2515 3294 
Q 2781 3194 2906 3042 
Q 3031 2891 3081 2659 
Q 3109 2516 3109 2141 
L 3109 1391 
Q 3109 606 3145 398 
Q 3181 191 3288 0 
L 2700 0 
Q 2613 175 2588 409 
z
M 2541 1666 
Q 2234 1541 1622 1453 
Q 1275 1403 1131 1340 
Q 988 1278 909 1158 
Q 831 1038 831 891 
Q 831 666 1001 516 
Q 1172 366 1500 366 
Q 1825 366 2078 508 
Q 2331 650 2450 897 
Q 2541 1088 2541 1459 
L 2541 1666 
z
" transform="scale(0.015625)"/>
     <path id="ArialMT-33" d="M 269 1209 
L 831 1284 
Q 928 806 1161 595 
Q 1394 384 1728 384 
Q 2125 384 2398 659 
Q 2672 934 2672 1341 
Q 2672 1728 2419 1979 
Q 2166 2231 1775 2231 
Q 1616 2231 1378 2169 
L 1441 2663 
Q 1497 2656 1531 2656 
Q 1891 2656 2178 2843 
Q 2466 3031 2466 3422 
Q 2466 3731 2256 3934 
Q 2047 4138 1716 4138 
Q 1388 4138 1169 3931 
Q 950 3725 888 3313 
L 325 3413 
Q 428 3978 793 4289 
Q 1159 4600 1703 4600 
Q 2078 4600 2393 4439 
Q 2709 4278 2876 4000 
Q 3044 3722 3044 3409 
Q 3044 3113 2884 2869 
Q 2725 2625 2413 2481 
Q 2819 2388 3044 2092 
Q 3269 1797 3269 1353 
Q 3269 753 2831 336 
Q 2394 -81 1725 -81 
Q 1122 -81 723 278 
Q 325 638 269 1209 
z
" transform="scale(0.015625)"/>
    </defs>
    <use xlink:href="#ArialMT-49"/>
    <use xlink:href="#ArialMT-6e" transform="translate(27.783203 0)"/>
    <use xlink:href="#ArialMT-64" transform="translate(83.398438 0)"/>
    <use xlink:href="#ArialMT-69" transform="translate(139.013672 0)"/>
    <use xlink:href="#ArialMT-76" transform="translate(161.230469 0)"/>
    <use xlink:href="#ArialMT-69" transform="translate(211.230469 0)"/>
    <use xlink:href="#ArialMT-64" transform="translate(233.447266 0)"/>
    <use xlink:href="#ArialMT-75" transform="translate(289.0625 0)"/>
    <use xlink:href="#ArialMT-61" transform="translate(344.677734 0)"/>
    <use xlink:href="#ArialMT-6c" transform="translate(400.292969 0)"/>
    <use xlink:href="#ArialMT-20" transform="translate(422.509766 0)"/>
    <use xlink:href="#ArialMT-33" transform="translate(450.292969 0)"/>
    <use xlink:href="#ArialMT-30" transform="translate(505.908203 0)"/>
    <use xlink:href="#ArialMT-38" transform="translate(561.523438 0)"/>
   </g>
  </g>
 </g>
 <defs>
  <clipPath id="p15c405d2ff">
   <rect x="180" y="43.2" width="227.755102" height="277.2"/>
  </clipPath>
  <clipPath id="p4dfb55c892">
   <rect x="476.081633" y="43.2" width="227.755102" height="277.2"/>
  </clipPath>
 </defs>
</svg>
