<?xml version="1.0" encoding="utf-8" standalone="no"?>
<!DOCTYPE svg PUBLIC "-//W3C//DTD SVG 1.1//EN"
  "http://www.w3.org/Graphics/SVG/1.1/DTD/svg11.dtd">
<svg xmlns:xlink="http://www.w3.org/1999/xlink" width="1440pt" height="360pt" viewBox="0 0 1440 360" xmlns="http://www.w3.org/2000/svg" version="1.1">
 <metadata>
  <rdf:RDF xmlns:dc="http://purl.org/dc/elements/1.1/" xmlns:cc="http://creativecommons.org/ns#" xmlns:rdf="http://www.w3.org/1999/02/22-rdf-syntax-ns#">
   <cc:Work>
    <dc:type rdf:resource="http://purl.org/dc/dcmitype/StillImage"/>
    <dc:date>2025-02-07T13:23:33.744267</dc:date>
    <dc:format>image/svg+xml</dc:format>
    <dc:creator>
     <cc:Agent>
      <dc:title>Matplotlib v3.10.0, https://matplotlib.org/</dc:title>
     </cc:Agent>
    </dc:creator>
   </cc:Work>
  </rdf:RDF>
 </metadata>
 <defs>
  <style type="text/css">*{stroke-linejoin: round; stroke-linecap: butt}</style>
 </defs>
 <g id="figure_1">
  <g id="patch_1">
   <path d="M 0 360 
L 1440 360 
L 1440 0 
L 0 0 
L 0 360 
z
" style="fill: none"/>
  </g>
  <g id="axes_1">
   <g id="patch_2">
    <path d="M 180 320.4 
L 407.755102 320.4 
L 407.755102 43.2 
L 180 43.2 
L 180 320.4 
z
" style="fill: none"/>
   </g>
   <g id="matplotlib.axis_1">
    <g id="xtick_1">
     <g id="line2d_1">
      <defs>
       <path id="m83f441d342" d="M 0 0 
L 0 3.5 
" style="stroke: #000000; stroke-width: 0.8"/>
      </defs>
      <g>
       <use xlink:href="#m83f441d342" x="186.698679" y="320.4" style="stroke: #000000; stroke-width: 0.8"/>
      </g>
     </g>
     <g id="text_1">
      <!-- 0 -->
      <g transform="translate(176.773179 351.107125) scale(0.312 -0.312)">
       <defs>
        <path id="DejaVuSans-30" d="M 2034 4250 
Q 1547 4250 1301 3770 
Q 1056 3291 1056 2328 
Q 1056 1369 1301 889 
Q 1547 409 2034 409 
Q 2525 409 2770 889 
Q 3016 1369 3016 2328 
Q 3016 3291 2770 3770 
Q 2525 4250 2034 4250 
z
M 2034 4750 
Q 2819 4750 3233 4129 
Q 3647 3509 3647 2328 
Q 3647 1150 3233 529 
Q 2819 -91 2034 -91 
Q 1250 -91 836 529 
Q 422 1150 422 2328 
Q 422 3509 836 4129 
Q 1250 4750 2034 4750 
z
" transform="scale(0.015625)"/>
       </defs>
       <use xlink:href="#DejaVuSans-30"/>
      </g>
     </g>
    </g>
    <g id="xtick_2">
     <g id="line2d_2">
      <g>
       <use xlink:href="#m83f441d342" x="240.288115" y="320.4" style="stroke: #000000; stroke-width: 0.8"/>
      </g>
     </g>
     <g id="text_2">
      <!-- 2 -->
      <g transform="translate(230.362615 351.107125) scale(0.312 -0.312)">
       <defs>
        <path id="DejaVuSans-32" d="M 1228 531 
L 3431 531 
L 3431 0 
L 469 0 
L 469 531 
Q 828 903 1448 1529 
Q 2069 2156 2228 2338 
Q 2531 2678 2651 2914 
Q 2772 3150 2772 3378 
Q 2772 3750 2511 3984 
Q 2250 4219 1831 4219 
Q 1534 4219 1204 4116 
Q 875 4013 500 3803 
L 500 4441 
Q 881 4594 1212 4672 
Q 1544 4750 1819 4750 
Q 2544 4750 2975 4387 
Q 3406 4025 3406 3419 
Q 3406 3131 3298 2873 
Q 3191 2616 2906 2266 
Q 2828 2175 2409 1742 
Q 1991 1309 1228 531 
z
" transform="scale(0.015625)"/>
       </defs>
       <use xlink:href="#DejaVuSans-32"/>
      </g>
     </g>
    </g>
    <g id="xtick_3">
     <g id="line2d_3">
      <g>
       <use xlink:href="#m83f441d342" x="293.877551" y="320.4" style="stroke: #000000; stroke-width: 0.8"/>
      </g>
     </g>
     <g id="text_3">
      <!-- 4 -->
      <g transform="translate(283.952051 351.107125) scale(0.312 -0.312)">
       <defs>
        <path id="DejaVuSans-34" d="M 2419 4116 
L 825 1625 
L 2419 1625 
L 2419 4116 
z
M 2253 4666 
L 3047 4666 
L 3047 1625 
L 3713 1625 
L 3713 1100 
L 3047 1100 
L 3047 0 
L 2419 0 
L 2419 1100 
L 313 1100 
L 313 1709 
L 2253 4666 
z
" transform="scale(0.015625)"/>
       </defs>
       <use xlink:href="#DejaVuSans-34"/>
      </g>
     </g>
    </g>
    <g id="xtick_4">
     <g id="line2d_4">
      <g>
       <use xlink:href="#m83f441d342" x="347.466987" y="320.4" style="stroke: #000000; stroke-width: 0.8"/>
      </g>
     </g>
     <g id="text_4">
      <!-- 6 -->
      <g transform="translate(337.541487 351.107125) scale(0.312 -0.312)">
       <defs>
        <path id="DejaVuSans-36" d="M 2113 2584 
Q 1688 2584 1439 2293 
Q 1191 2003 1191 1497 
Q 1191 994 1439 701 
Q 1688 409 2113 409 
Q 2538 409 2786 701 
Q 3034 994 3034 1497 
Q 3034 2003 2786 2293 
Q 2538 2584 2113 2584 
z
M 3366 4563 
L 3366 3988 
Q 3128 4100 2886 4159 
Q 2644 4219 2406 4219 
Q 1781 4219 1451 3797 
Q 1122 3375 1075 2522 
Q 1259 2794 1537 2939 
Q 1816 3084 2150 3084 
Q 2853 3084 3261 2657 
Q 3669 2231 3669 1497 
Q 3669 778 3244 343 
Q 2819 -91 2113 -91 
Q 1303 -91 875 529 
Q 447 1150 447 2328 
Q 447 3434 972 4092 
Q 1497 4750 2381 4750 
Q 2619 4750 2861 4703 
Q 3103 4656 3366 4563 
z
" transform="scale(0.015625)"/>
       </defs>
       <use xlink:href="#DejaVuSans-36"/>
      </g>
     </g>
    </g>
    <g id="xtick_5">
     <g id="line2d_5">
      <g>
       <use xlink:href="#m83f441d342" x="401.056423" y="320.4" style="stroke: #000000; stroke-width: 0.8"/>
      </g>
     </g>
     <g id="text_5">
      <!-- 8 -->
      <g transform="translate(391.130923 351.107125) scale(0.312 -0.312)">
       <defs>
        <path id="DejaVuSans-38" d="M 2034 2216 
Q 1584 2216 1326 1975 
Q 1069 1734 1069 1313 
Q 1069 891 1326 650 
Q 1584 409 2034 409 
Q 2484 409 2743 651 
Q 3003 894 3003 1313 
Q 3003 1734 2745 1975 
Q 2488 2216 2034 2216 
z
M 1403 2484 
Q 997 2584 770 2862 
Q 544 3141 544 3541 
Q 544 4100 942 4425 
Q 1341 4750 2034 4750 
Q 2731 4750 3128 4425 
Q 3525 4100 3525 3541 
Q 3525 3141 3298 2862 
Q 3072 2584 2669 2484 
Q 3125 2378 3379 2068 
Q 3634 1759 3634 1313 
Q 3634 634 3220 271 
Q 2806 -91 2034 -91 
Q 1263 -91 848 271 
Q 434 634 434 1313 
Q 434 1759 690 2068 
Q 947 2378 1403 2484 
z
M 1172 3481 
Q 1172 3119 1398 2916 
Q 1625 2713 2034 2713 
Q 2441 2713 2670 2916 
Q 2900 3119 2900 3481 
Q 2900 3844 2670 4047 
Q 2441 4250 2034 4250 
Q 1625 4250 1398 4047 
Q 1172 3844 1172 3481 
z
" transform="scale(0.015625)"/>
       </defs>
       <use xlink:href="#DejaVuSans-38"/>
      </g>
     </g>
    </g>
    <g id="text_6">
     <!-- Time (d) -->
     <g transform="translate(241.190989 382.415656) scale(0.286 -0.286)">
      <defs>
       <path id="ArialMT-54" d="M 1659 0 
L 1659 4041 
L 150 4041 
L 150 4581 
L 3781 4581 
L 3781 4041 
L 2266 4041 
L 2266 0 
L 1659 0 
z
" transform="scale(0.015625)"/>
       <path id="ArialMT-69" d="M 425 3934 
L 425 4581 
L 988 4581 
L 988 3934 
L 425 3934 
z
M 425 0 
L 425 3319 
L 988 3319 
L 988 0 
L 425 0 
z
" transform="scale(0.015625)"/>
       <path id="ArialMT-6d" d="M 422 0 
L 422 3319 
L 925 3319 
L 925 2853 
Q 1081 3097 1340 3245 
Q 1600 3394 1931 3394 
Q 2300 3394 2536 3241 
Q 2772 3088 2869 2813 
Q 3263 3394 3894 3394 
Q 4388 3394 4653 3120 
Q 4919 2847 4919 2278 
L 4919 0 
L 4359 0 
L 4359 2091 
Q 4359 2428 4304 2576 
Q 4250 2725 4106 2815 
Q 3963 2906 3769 2906 
Q 3419 2906 3187 2673 
Q 2956 2441 2956 1928 
L 2956 0 
L 2394 0 
L 2394 2156 
Q 2394 2531 2256 2718 
Q 2119 2906 1806 2906 
Q 1569 2906 1367 2781 
Q 1166 2656 1075 2415 
Q 984 2175 984 1722 
L 984 0 
L 422 0 
z
" transform="scale(0.015625)"/>
       <path id="ArialMT-65" d="M 2694 1069 
L 3275 997 
Q 3138 488 2766 206 
Q 2394 -75 1816 -75 
Q 1088 -75 661 373 
Q 234 822 234 1631 
Q 234 2469 665 2931 
Q 1097 3394 1784 3394 
Q 2450 3394 2872 2941 
Q 3294 2488 3294 1666 
Q 3294 1616 3291 1516 
L 816 1516 
Q 847 969 1125 678 
Q 1403 388 1819 388 
Q 2128 388 2347 550 
Q 2566 713 2694 1069 
z
M 847 1978 
L 2700 1978 
Q 2663 2397 2488 2606 
Q 2219 2931 1791 2931 
Q 1403 2931 1139 2672 
Q 875 2413 847 1978 
z
" transform="scale(0.015625)"/>
       <path id="ArialMT-20" transform="scale(0.015625)"/>
       <path id="ArialMT-28" d="M 1497 -1347 
Q 1031 -759 709 28 
Q 388 816 388 1659 
Q 388 2403 628 3084 
Q 909 3875 1497 4659 
L 1900 4659 
Q 1522 4009 1400 3731 
Q 1209 3300 1100 2831 
Q 966 2247 966 1656 
Q 966 153 1900 -1347 
L 1497 -1347 
z
" transform="scale(0.015625)"/>
       <path id="ArialMT-64" d="M 2575 0 
L 2575 419 
Q 2259 -75 1647 -75 
Q 1250 -75 917 144 
Q 584 363 401 755 
Q 219 1147 219 1656 
Q 219 2153 384 2558 
Q 550 2963 881 3178 
Q 1213 3394 1622 3394 
Q 1922 3394 2156 3267 
Q 2391 3141 2538 2938 
L 2538 4581 
L 3097 4581 
L 3097 0 
L 2575 0 
z
M 797 1656 
Q 797 1019 1065 703 
Q 1334 388 1700 388 
Q 2069 388 2326 689 
Q 2584 991 2584 1609 
Q 2584 2291 2321 2609 
Q 2059 2928 1675 2928 
Q 1300 2928 1048 2622 
Q 797 2316 797 1656 
z
" transform="scale(0.015625)"/>
       <path id="ArialMT-29" d="M 791 -1347 
L 388 -1347 
Q 1322 153 1322 1656 
Q 1322 2244 1188 2822 
Q 1081 3291 891 3722 
Q 769 4003 388 4659 
L 791 4659 
Q 1378 3875 1659 3084 
Q 1900 2403 1900 1659 
Q 1900 816 1576 28 
Q 1253 -759 791 -1347 
z
" transform="scale(0.015625)"/>
      </defs>
      <use xlink:href="#ArialMT-54"/>
      <use xlink:href="#ArialMT-69" transform="translate(57.333984 0)"/>
      <use xlink:href="#ArialMT-6d" transform="translate(79.550781 0)"/>
      <use xlink:href="#ArialMT-65" transform="translate(162.851562 0)"/>
      <use xlink:href="#ArialMT-20" transform="translate(218.466797 0)"/>
      <use xlink:href="#ArialMT-28" transform="translate(246.25 0)"/>
      <use xlink:href="#ArialMT-64" transform="translate(279.550781 0)"/>
      <use xlink:href="#ArialMT-29" transform="translate(335.166016 0)"/>
     </g>
    </g>
   </g>
   <g id="matplotlib.axis_2">
    <g id="ytick_1">
     <g id="line2d_6">
      <defs>
       <path id="mdf8742a2ca" d="M 0 0 
L -3.5 0 
" style="stroke: #000000; stroke-width: 0.8"/>
      </defs>
      <g>
       <use xlink:href="#mdf8742a2ca" x="180" y="320.4" style="stroke: #000000; stroke-width: 0.8"/>
      </g>
     </g>
     <g id="text_7">
      <!-- 0 -->
      <g transform="translate(153.149 332.253562) scale(0.312 -0.312)">
       <use xlink:href="#DejaVuSans-30"/>
      </g>
     </g>
    </g>
    <g id="ytick_2">
     <g id="line2d_7">
      <g>
       <use xlink:href="#mdf8742a2ca" x="180" y="251.1" style="stroke: #000000; stroke-width: 0.8"/>
      </g>
     </g>
     <g id="text_8">
      <!-- 2 -->
      <g transform="translate(153.149 262.953562) scale(0.312 -0.312)">
       <use xlink:href="#DejaVuSans-32"/>
      </g>
     </g>
    </g>
    <g id="ytick_3">
     <g id="line2d_8">
      <g>
       <use xlink:href="#mdf8742a2ca" x="180" y="181.8" style="stroke: #000000; stroke-width: 0.8"/>
      </g>
     </g>
     <g id="text_9">
      <!-- 4 -->
      <g transform="translate(153.149 193.653562) scale(0.312 -0.312)">
       <use xlink:href="#DejaVuSans-34"/>
      </g>
     </g>
    </g>
    <g id="ytick_4">
     <g id="line2d_9">
      <g>
       <use xlink:href="#mdf8742a2ca" x="180" y="112.5" style="stroke: #000000; stroke-width: 0.8"/>
      </g>
     </g>
     <g id="text_10">
      <!-- 6 -->
      <g transform="translate(153.149 124.353562) scale(0.312 -0.312)">
       <use xlink:href="#DejaVuSans-36"/>
      </g>
     </g>
    </g>
    <g id="ytick_5">
     <g id="line2d_10">
      <g>
       <use xlink:href="#mdf8742a2ca" x="180" y="43.2" style="stroke: #000000; stroke-width: 0.8"/>
      </g>
     </g>
     <g id="text_11">
      <!-- 8 -->
      <g transform="translate(153.149 55.053562) scale(0.312 -0.312)">
       <use xlink:href="#DejaVuSans-38"/>
      </g>
     </g>
    </g>
    <g id="text_12">
     <!-- Log$_{10}$ Virus (copies/mL) -->
     <g transform="translate(142.857 334.238) rotate(-90) scale(0.286 -0.286)">
      <defs>
       <path id="ArialMT-4c" d="M 469 0 
L 469 4581 
L 1075 4581 
L 1075 541 
L 3331 541 
L 3331 0 
L 469 0 
z
" transform="scale(0.015625)"/>
       <path id="ArialMT-6f" d="M 213 1659 
Q 213 2581 725 3025 
Q 1153 3394 1769 3394 
Q 2453 3394 2887 2945 
Q 3322 2497 3322 1706 
Q 3322 1066 3130 698 
Q 2938 331 2570 128 
Q 2203 -75 1769 -75 
Q 1072 -75 642 372 
Q 213 819 213 1659 
z
M 791 1659 
Q 791 1022 1069 705 
Q 1347 388 1769 388 
Q 2188 388 2466 706 
Q 2744 1025 2744 1678 
Q 2744 2294 2464 2611 
Q 2184 2928 1769 2928 
Q 1347 2928 1069 2612 
Q 791 2297 791 1659 
z
" transform="scale(0.015625)"/>
       <path id="ArialMT-67" d="M 319 -275 
L 866 -356 
Q 900 -609 1056 -725 
Q 1266 -881 1628 -881 
Q 2019 -881 2231 -725 
Q 2444 -569 2519 -288 
Q 2563 -116 2559 434 
Q 2191 0 1641 0 
Q 956 0 581 494 
Q 206 988 206 1678 
Q 206 2153 378 2554 
Q 550 2956 876 3175 
Q 1203 3394 1644 3394 
Q 2231 3394 2613 2919 
L 2613 3319 
L 3131 3319 
L 3131 450 
Q 3131 -325 2973 -648 
Q 2816 -972 2473 -1159 
Q 2131 -1347 1631 -1347 
Q 1038 -1347 672 -1080 
Q 306 -813 319 -275 
z
M 784 1719 
Q 784 1066 1043 766 
Q 1303 466 1694 466 
Q 2081 466 2343 764 
Q 2606 1063 2606 1700 
Q 2606 2309 2336 2618 
Q 2066 2928 1684 2928 
Q 1309 2928 1046 2623 
Q 784 2319 784 1719 
z
" transform="scale(0.015625)"/>
       <path id="DejaVuSans-31" d="M 794 531 
L 1825 531 
L 1825 4091 
L 703 3866 
L 703 4441 
L 1819 4666 
L 2450 4666 
L 2450 531 
L 3481 531 
L 3481 0 
L 794 0 
L 794 531 
z
" transform="scale(0.015625)"/>
       <path id="ArialMT-56" d="M 1803 0 
L 28 4581 
L 684 4581 
L 1875 1253 
Q 2019 853 2116 503 
Q 2222 878 2363 1253 
L 3600 4581 
L 4219 4581 
L 2425 0 
L 1803 0 
z
" transform="scale(0.015625)"/>
       <path id="ArialMT-72" d="M 416 0 
L 416 3319 
L 922 3319 
L 922 2816 
Q 1116 3169 1280 3281 
Q 1444 3394 1641 3394 
Q 1925 3394 2219 3213 
L 2025 2691 
Q 1819 2813 1613 2813 
Q 1428 2813 1281 2702 
Q 1134 2591 1072 2394 
Q 978 2094 978 1738 
L 978 0 
L 416 0 
z
" transform="scale(0.015625)"/>
       <path id="ArialMT-75" d="M 2597 0 
L 2597 488 
Q 2209 -75 1544 -75 
Q 1250 -75 995 37 
Q 741 150 617 320 
Q 494 491 444 738 
Q 409 903 409 1263 
L 409 3319 
L 972 3319 
L 972 1478 
Q 972 1038 1006 884 
Q 1059 663 1231 536 
Q 1403 409 1656 409 
Q 1909 409 2131 539 
Q 2353 669 2445 892 
Q 2538 1116 2538 1541 
L 2538 3319 
L 3100 3319 
L 3100 0 
L 2597 0 
z
" transform="scale(0.015625)"/>
       <path id="ArialMT-73" d="M 197 991 
L 753 1078 
Q 800 744 1014 566 
Q 1228 388 1613 388 
Q 2000 388 2187 545 
Q 2375 703 2375 916 
Q 2375 1106 2209 1216 
Q 2094 1291 1634 1406 
Q 1016 1563 777 1677 
Q 538 1791 414 1992 
Q 291 2194 291 2438 
Q 291 2659 392 2848 
Q 494 3038 669 3163 
Q 800 3259 1026 3326 
Q 1253 3394 1513 3394 
Q 1903 3394 2198 3281 
Q 2494 3169 2634 2976 
Q 2775 2784 2828 2463 
L 2278 2388 
Q 2241 2644 2061 2787 
Q 1881 2931 1553 2931 
Q 1166 2931 1000 2803 
Q 834 2675 834 2503 
Q 834 2394 903 2306 
Q 972 2216 1119 2156 
Q 1203 2125 1616 2013 
Q 2213 1853 2448 1751 
Q 2684 1650 2818 1456 
Q 2953 1263 2953 975 
Q 2953 694 2789 445 
Q 2625 197 2315 61 
Q 2006 -75 1616 -75 
Q 969 -75 630 194 
Q 291 463 197 991 
z
" transform="scale(0.015625)"/>
       <path id="ArialMT-63" d="M 2588 1216 
L 3141 1144 
Q 3050 572 2676 248 
Q 2303 -75 1759 -75 
Q 1078 -75 664 370 
Q 250 816 250 1647 
Q 250 2184 428 2587 
Q 606 2991 970 3192 
Q 1334 3394 1763 3394 
Q 2303 3394 2647 3120 
Q 2991 2847 3088 2344 
L 2541 2259 
Q 2463 2594 2264 2762 
Q 2066 2931 1784 2931 
Q 1359 2931 1093 2626 
Q 828 2322 828 1663 
Q 828 994 1084 691 
Q 1341 388 1753 388 
Q 2084 388 2306 591 
Q 2528 794 2588 1216 
z
" transform="scale(0.015625)"/>
       <path id="ArialMT-70" d="M 422 -1272 
L 422 3319 
L 934 3319 
L 934 2888 
Q 1116 3141 1344 3267 
Q 1572 3394 1897 3394 
Q 2322 3394 2647 3175 
Q 2972 2956 3137 2557 
Q 3303 2159 3303 1684 
Q 3303 1175 3120 767 
Q 2938 359 2589 142 
Q 2241 -75 1856 -75 
Q 1575 -75 1351 44 
Q 1128 163 984 344 
L 984 -1272 
L 422 -1272 
z
M 931 1641 
Q 931 1000 1190 694 
Q 1450 388 1819 388 
Q 2194 388 2461 705 
Q 2728 1022 2728 1688 
Q 2728 2322 2467 2637 
Q 2206 2953 1844 2953 
Q 1484 2953 1207 2617 
Q 931 2281 931 1641 
z
" transform="scale(0.015625)"/>
       <path id="ArialMT-2f" d="M 0 -78 
L 1328 4659 
L 1778 4659 
L 453 -78 
L 0 -78 
z
" transform="scale(0.015625)"/>
      </defs>
      <use xlink:href="#ArialMT-4c" transform="translate(0 0.203125)"/>
      <use xlink:href="#ArialMT-6f" transform="translate(55.615234 0.203125)"/>
      <use xlink:href="#ArialMT-67" transform="translate(111.230469 0.203125)"/>
      <use xlink:href="#DejaVuSans-31" transform="translate(167.802734 -16.203125) scale(0.7)"/>
      <use xlink:href="#DejaVuSans-30" transform="translate(212.338867 -16.203125) scale(0.7)"/>
      <use xlink:href="#ArialMT-20" transform="translate(259.609375 0.203125)"/>
      <use xlink:href="#ArialMT-56" transform="translate(287.392578 0.203125)"/>
      <use xlink:href="#ArialMT-69" transform="translate(354.091797 0.203125)"/>
      <use xlink:href="#ArialMT-72" transform="translate(376.308594 0.203125)"/>
      <use xlink:href="#ArialMT-75" transform="translate(409.609375 0.203125)"/>
      <use xlink:href="#ArialMT-73" transform="translate(465.224609 0.203125)"/>
      <use xlink:href="#ArialMT-20" transform="translate(515.224609 0.203125)"/>
      <use xlink:href="#ArialMT-28" transform="translate(543.007812 0.203125)"/>
      <use xlink:href="#ArialMT-63" transform="translate(576.308594 0.203125)"/>
      <use xlink:href="#ArialMT-6f" transform="translate(626.308594 0.203125)"/>
      <use xlink:href="#ArialMT-70" transform="translate(681.923828 0.203125)"/>
      <use xlink:href="#ArialMT-69" transform="translate(737.539062 0.203125)"/>
      <use xlink:href="#ArialMT-65" transform="translate(759.755859 0.203125)"/>
      <use xlink:href="#ArialMT-73" transform="translate(815.371094 0.203125)"/>
      <use xlink:href="#ArialMT-2f" transform="translate(865.371094 0.203125)"/>
      <use xlink:href="#ArialMT-6d" transform="translate(893.154297 0.203125)"/>
      <use xlink:href="#ArialMT-4c" transform="translate(976.455078 0.203125)"/>
      <use xlink:href="#ArialMT-29" transform="translate(1032.070312 0.203125)"/>
     </g>
    </g>
   </g>
   <g id="patch_3">
    <path d="M 180 320.4 
L 180 43.2 
" style="fill: none; stroke: #000000; stroke-width: 0.8; stroke-linejoin: miter; stroke-linecap: square"/>
   </g>
   <g id="patch_4">
    <path d="M 407.755102 320.4 
L 407.755102 43.2 
" style="fill: none; stroke: #000000; stroke-width: 0.8; stroke-linejoin: miter; stroke-linecap: square"/>
   </g>
   <g id="patch_5">
    <path d="M 180 320.4 
L 407.755102 320.4 
" style="fill: none; stroke: #000000; stroke-width: 0.8; stroke-linejoin: miter; stroke-linecap: square"/>
   </g>
   <g id="patch_6">
    <path d="M 180 43.2 
L 407.755102 43.2 
" style="fill: none; stroke: #000000; stroke-width: 0.8; stroke-linejoin: miter; stroke-linecap: square"/>
   </g>
   <g id="FillBetweenPolyCollection_1">
    <defs>
     <path id="m96e15cbd56" d="M 186.698679 -39.6 
L 186.698679 -39.6 
L 186.699151 -39.6 
L 186.703867 -39.6 
L 186.751022 -39.6 
L 186.891896 -39.6 
L 187.03277 -39.6 
L 187.399668 -39.6 
L 187.800546 -39.6 
L 188.734728 -39.6 
L 189.392015 -39.6 
L 190.859464 -39.6 
L 191.649944 -39.6 
L 193.141327 -44.118333 
L 194.0134 -48.285004 
L 195.488272 -56.004528 
L 196.423902 -60.876929 
L 197.890938 -68.534035 
L 198.873007 -73.644777 
L 200.327188 -81.232449 
L 201.342765 -86.51963 
L 202.944324 -94.874024 
L 203.938631 -100.048089 
L 205.308998 -107.206944 
L 206.344156 -112.607518 
L 207.837545 -120.382304 
L 208.863382 -125.720963 
L 210.240582 -132.778272 
L 211.288007 -138.047884 
L 212.764835 -145.448687 
L 213.796559 -150.618788 
L 215.165788 -157.461097 
L 216.217694 -162.710796 
L 217.686908 -170.017513 
L 218.735552 -175.193219 
L 220.313069 -182.920094 
L 221.353177 -187.933781 
L 222.795532 -194.781889 
L 223.883205 -199.765491 
L 225.455983 -206.713273 
L 226.553804 -211.225666 
L 228.275201 -217.639615 
L 229.397397 -221.277573 
L 230.779674 -224.689328 
L 231.851995 -226.565129 
L 233.10134 -228.405637 
L 234.138508 -229.553518 
L 235.201462 -230.53997 
L 236.128582 -231.194815 
L 237.056949 -231.707754 
L 237.829649 -232.07105 
L 238.984335 -232.500999 
L 239.785298 -232.73526 
L 240.880608 -232.937621 
L 241.703778 -233.044856 
L 242.759433 -233.136231 
L 243.600857 -233.127617 
L 244.64689 -233.059586 
L 245.692922 -232.977392 
L 246.929827 -232.850082 
L 248.501304 -232.672444 
L 250.36553 -232.419406 
L 252.440065 -232.113007 
L 254.518359 -231.773701 
L 257.197831 -231.313849 
L 259.303028 -230.930226 
L 261.901614 -230.441874 
L 264.581086 -229.919458 
L 267.260558 -229.377985 
L 269.940029 -228.821888 
L 272.619501 -228.246067 
L 275.298973 -227.65118 
L 277.978445 -227.034772 
L 280.657917 -226.394989 
L 283.337388 -225.730048 
L 286.01686 -225.038329 
L 288.696332 -224.318419 
L 291.375804 -223.569119 
L 294.055276 -222.789417 
L 296.734747 -221.978451 
L 299.414219 -221.135437 
L 302.093691 -220.259607 
L 304.773163 -219.350129 
L 307.452635 -218.406031 
L 310.132106 -217.426117 
L 312.811578 -216.408889 
L 315.49105 -215.352459 
L 318.170522 -214.254454 
L 320.849993 -213.111916 
L 323.529465 -211.921171 
L 326.208937 -210.677675 
L 328.888409 -209.37582 
L 331.567881 -208.008666 
L 334.247352 -206.567589 
L 336.926824 -205.041786 
L 339.606296 -203.194723 
L 342.285768 -201.016894 
L 344.96524 -198.5802 
L 347.644711 -195.799165 
L 350.324183 -192.537036 
L 353.003655 -188.09617 
L 355.683127 -181.119829 
L 358.362599 -168.197676 
L 361.04207 -112.501504 
L 363.721542 -39.6 
L 366.401014 -39.6 
L 369.080486 -39.6 
L 370.420222 -39.6 
L 370.956116 -39.6 
L 371.262566 -39.6 
L 371.406094 -39.6 
L 371.511631 -39.6 
L 371.658727 -39.6 
L 371.807915 -39.6 
L 371.86706 -39.6 
L 371.899428 -39.6 
L 371.957465 -39.6 
L 372.003159 -39.6 
L 372.073348 -39.6 
L 372.143537 -39.6 
L 372.51287 -39.6 
L 372.629798 -39.6 
L 373.048849 -39.6 
L 373.216012 -39.6 
L 373.316494 -39.6 
L 373.653303 -39.6 
L 373.852191 -39.6 
L 374.682905 -39.6 
L 375.280025 -39.6 
L 377.29335 -39.6 
L 378.926835 -39.6 
L 381.606307 -39.6 
L 383.796895 -39.6 
L 386.476367 -39.6 
L 389.155839 -39.6 
L 391.835311 -39.6 
L 394.514782 -39.6 
L 397.194254 -39.6 
L 399.873726 -39.6 
L 401.056423 -39.6 
L 401.056423 -39.6 
L 401.056423 -39.6 
L 399.873726 -39.6 
L 397.194254 -39.6 
L 394.514782 -39.6 
L 391.835311 -39.6 
L 389.155839 -39.6 
L 386.476367 -39.6 
L 383.796895 -39.6 
L 381.606307 -39.6 
L 378.926835 -39.6 
L 377.29335 -39.6 
L 375.280025 -39.6 
L 374.682905 -39.6 
L 373.852191 -39.6 
L 373.653303 -41.509248 
L 373.316494 -62.423081 
L 373.216012 -70.130828 
L 373.048849 -84.055322 
L 372.629798 -116.386866 
L 372.51287 -123.867274 
L 372.143537 -137.212541 
L 372.073348 -138.346278 
L 372.003159 -139.480016 
L 371.957465 -140.218085 
L 371.899428 -141.155532 
L 371.86706 -141.678371 
L 371.807915 -142.633704 
L 371.658727 -145.082474 
L 371.511631 -147.908075 
L 371.406094 -149.935364 
L 371.262566 -152.692428 
L 370.956116 -156.03564 
L 370.420222 -161.776877 
L 369.080486 -171.210271 
L 366.401014 -182.305526 
L 363.721542 -189.078455 
L 361.04207 -193.856233 
L 358.362599 -197.576088 
L 355.683127 -200.694135 
L 353.003655 -203.469239 
L 350.324183 -205.880785 
L 347.644711 -208.020938 
L 344.96524 -209.950683 
L 342.285768 -211.712493 
L 339.606296 -213.337135 
L 336.926824 -214.847609 
L 334.247352 -216.261549 
L 331.567881 -217.592752 
L 328.888409 -218.852201 
L 326.208937 -220.048754 
L 323.529465 -221.18963 
L 320.849993 -222.280757 
L 318.170522 -223.327015 
L 315.49105 -224.332428 
L 312.811578 -225.300292 
L 310.132106 -226.233281 
L 307.452635 -227.13352 
L 304.773163 -228.014926 
L 302.093691 -228.901487 
L 299.414219 -229.754935 
L 296.734747 -230.576137 
L 294.055276 -231.365519 
L 291.375804 -232.123124 
L 288.696332 -232.848687 
L 286.01686 -233.541727 
L 283.337388 -234.255965 
L 280.657917 -235.048574 
L 277.978445 -235.816029 
L 275.298973 -236.558115 
L 272.619501 -237.274765 
L 269.940029 -237.966057 
L 267.260558 -238.632149 
L 264.581086 -239.273096 
L 261.901614 -239.888587 
L 259.303028 -240.457463 
L 257.197831 -240.902619 
L 254.518359 -241.430803 
L 252.440065 -241.819662 
L 250.36553 -242.165779 
L 248.501304 -242.455832 
L 246.929827 -242.658521 
L 245.692922 -242.802139 
L 244.64689 -242.894915 
L 243.600857 -242.972868 
L 242.759433 -243.009895 
L 241.703778 -243.036639 
L 240.880608 -243.02971 
L 239.785298 -242.980906 
L 238.984335 -242.912371 
L 237.829649 -242.751726 
L 237.056949 -242.596869 
L 236.128582 -242.353215 
L 235.201462 -242.028154 
L 234.138508 -241.545877 
L 233.10134 -240.93059 
L 231.851995 -239.920208 
L 230.779674 -238.810671 
L 229.397397 -236.816752 
L 228.275201 -234.796243 
L 226.553804 -231.466497 
L 225.455983 -229.156197 
L 223.883205 -225.021718 
L 222.795532 -221.464782 
L 221.353177 -215.996503 
L 220.313069 -211.330802 
L 218.735552 -203.589925 
L 217.686908 -197.965365 
L 216.217694 -189.77794 
L 215.165788 -183.703868 
L 213.796559 -175.686997 
L 212.764835 -169.546655 
L 211.288007 -160.728969 
L 210.240582 -154.428139 
L 208.863382 -146.148655 
L 207.837545 -139.941695 
L 206.344156 -130.935025 
L 205.308998 -124.672512 
L 203.938631 -116.396979 
L 202.944324 -110.412383 
L 201.342765 -100.847854 
L 200.327188 -95.027621 
L 198.873007 -86.920738 
L 197.890938 -81.45667 
L 196.423902 -73.275634 
L 195.488272 -68.072749 
L 194.0134 -59.828223 
L 193.141327 -54.963804 
L 191.649944 -46.525383 
L 190.859464 -42.298466 
L 189.392015 -39.77546 
L 188.734728 -39.6 
L 187.800546 -39.6 
L 187.399668 -39.6 
L 187.03277 -39.6 
L 186.891896 -39.6 
L 186.751022 -39.6 
L 186.703867 -39.6 
L 186.699151 -39.6 
L 186.698679 -39.6 
z
" style="stroke: #40e0d0; stroke-opacity: 0.2"/>
    </defs>
    <g clip-path="url(#p1d30739e3c)">
     <use xlink:href="#m96e15cbd56" x="0" y="360" style="fill: #40e0d0; fill-opacity: 0.2; stroke: #40e0d0; stroke-opacity: 0.2"/>
    </g>
   </g>
   <g id="PathCollection_1">
    <defs>
     <path id="m9bb1650655" d="M 0 7.071068 
C 1.875269 7.071068 3.673985 6.326016 5 5 
C 6.326016 3.673985 7.071068 1.875269 7.071068 0 
C 7.071068 -1.875269 6.326016 -3.673985 5 -5 
C 3.673985 -6.326016 1.875269 -7.071068 0 -7.071068 
C -1.875269 -7.071068 -3.673985 -6.326016 -5 -5 
C -6.326016 -3.673985 -7.071068 -1.875269 -7.071068 0 
C -7.071068 1.875269 -6.326016 3.673985 -5 5 
C -3.673985 6.326016 -1.875269 7.071068 0 7.071068 
z
" style="stroke: #000000; stroke-opacity: 0.8"/>
    </defs>
    <g clip-path="url(#p1d30739e3c)">
     <use xlink:href="#m9bb1650655" x="186.698679" y="320.4" style="fill-opacity: 0.8; stroke: #000000; stroke-opacity: 0.8"/>
     <use xlink:href="#m9bb1650655" x="213.493397" y="202.024942" style="fill-opacity: 0.8; stroke: #000000; stroke-opacity: 0.8"/>
     <use xlink:href="#m9bb1650655" x="240.288115" y="96.434503" style="fill-opacity: 0.8; stroke: #000000; stroke-opacity: 0.8"/>
     <use xlink:href="#m9bb1650655" x="267.082833" y="163.234082" style="fill-opacity: 0.8; stroke: #000000; stroke-opacity: 0.8"/>
     <use xlink:href="#m9bb1650655" x="293.877551" y="133.629077" style="fill-opacity: 0.8; stroke: #000000; stroke-opacity: 0.8"/>
     <use xlink:href="#m9bb1650655" x="320.672269" y="140.216802" style="fill-opacity: 0.8; stroke: #000000; stroke-opacity: 0.8"/>
     <use xlink:href="#m9bb1650655" x="347.466987" y="143.371238" style="fill-opacity: 0.8; stroke: #000000; stroke-opacity: 0.8"/>
     <use xlink:href="#m9bb1650655" x="374.261705" y="320.4" style="fill-opacity: 0.8; stroke: #000000; stroke-opacity: 0.8"/>
    </g>
   </g>
   <g id="line2d_11">
    <path d="M 186.698679 320.4 
L 191.649944 320.4 
L 196.423902 294.0965 
L 215.165788 190.081537 
L 218.735552 170.879537 
L 221.353177 157.630961 
L 223.883205 146.367587 
L 225.455983 140.564195 
L 226.553804 137.162607 
L 228.275201 132.953864 
L 229.397397 130.872538 
L 230.779674 128.916087 
L 231.851995 127.767233 
L 233.10134 126.741282 
L 234.138508 126.088606 
L 236.128582 125.205646 
L 237.829649 124.728065 
L 239.785298 124.396572 
L 242.759433 124.194291 
L 245.692922 124.226036 
L 250.36553 124.553504 
L 257.197831 125.357225 
L 264.581086 126.459346 
L 272.619501 127.873021 
L 280.657917 129.521648 
L 288.696332 131.417321 
L 296.734747 133.557026 
L 304.773163 135.937874 
L 312.811578 138.574259 
L 320.849993 141.509834 
L 326.208937 143.672932 
L 331.567881 146.045525 
L 336.926824 148.686238 
L 342.285768 151.684203 
L 344.96524 153.358787 
L 347.644711 155.183073 
L 350.324183 157.192297 
L 353.003655 159.43578 
L 355.683127 161.985589 
L 358.362599 164.953079 
L 361.04207 168.52388 
L 363.721542 173.04329 
L 366.401014 179.275685 
L 369.080486 189.578067 
L 370.420222 199.323481 
L 370.956116 205.961356 
L 371.406094 215.090569 
L 371.658727 224.016019 
L 372.073348 252.410768 
L 373.048849 320.4 
L 401.056423 320.4 
L 401.056423 320.4 
" clip-path="url(#p1d30739e3c)" style="fill: none; stroke: #40e0d0; stroke-width: 3; stroke-linecap: square"/>
   </g>
  </g>
  <g id="axes_2">
   <g id="patch_7">
    <path d="M 476.081633 320.4 
L 703.836735 320.4 
L 703.836735 43.2 
L 476.081633 43.2 
L 476.081633 320.4 
z
" style="fill: none"/>
   </g>
   <g id="matplotlib.axis_3">
    <g id="xtick_6">
     <g id="line2d_12">
      <g>
       <use xlink:href="#m83f441d342" x="482.780312" y="320.4" style="stroke: #000000; stroke-width: 0.8"/>
      </g>
     </g>
     <g id="text_13">
      <!-- 0 -->
      <g transform="translate(472.854812 351.107125) scale(0.312 -0.312)">
       <use xlink:href="#DejaVuSans-30"/>
      </g>
     </g>
    </g>
    <g id="xtick_7">
     <g id="line2d_13">
      <g>
       <use xlink:href="#m83f441d342" x="536.369748" y="320.4" style="stroke: #000000; stroke-width: 0.8"/>
      </g>
     </g>
     <g id="text_14">
      <!-- 2 -->
      <g transform="translate(526.444248 351.107125) scale(0.312 -0.312)">
       <use xlink:href="#DejaVuSans-32"/>
      </g>
     </g>
    </g>
    <g id="xtick_8">
     <g id="line2d_14">
      <g>
       <use xlink:href="#m83f441d342" x="589.959184" y="320.4" style="stroke: #000000; stroke-width: 0.8"/>
      </g>
     </g>
     <g id="text_15">
      <!-- 4 -->
      <g transform="translate(580.033684 351.107125) scale(0.312 -0.312)">
       <use xlink:href="#DejaVuSans-34"/>
      </g>
     </g>
    </g>
    <g id="xtick_9">
     <g id="line2d_15">
      <g>
       <use xlink:href="#m83f441d342" x="643.548619" y="320.4" style="stroke: #000000; stroke-width: 0.8"/>
      </g>
     </g>
     <g id="text_16">
      <!-- 6 -->
      <g transform="translate(633.623119 351.107125) scale(0.312 -0.312)">
       <use xlink:href="#DejaVuSans-36"/>
      </g>
     </g>
    </g>
    <g id="xtick_10">
     <g id="line2d_16">
      <g>
       <use xlink:href="#m83f441d342" x="697.138055" y="320.4" style="stroke: #000000; stroke-width: 0.8"/>
      </g>
     </g>
     <g id="text_17">
      <!-- 8 -->
      <g transform="translate(687.212555 351.107125) scale(0.312 -0.312)">
       <use xlink:href="#DejaVuSans-38"/>
      </g>
     </g>
    </g>
    <g id="text_18">
     <!-- Time (d) -->
     <g transform="translate(537.272621 382.415656) scale(0.286 -0.286)">
      <use xlink:href="#ArialMT-54"/>
      <use xlink:href="#ArialMT-69" transform="translate(57.333984 0)"/>
      <use xlink:href="#ArialMT-6d" transform="translate(79.550781 0)"/>
      <use xlink:href="#ArialMT-65" transform="translate(162.851562 0)"/>
      <use xlink:href="#ArialMT-20" transform="translate(218.466797 0)"/>
      <use xlink:href="#ArialMT-28" transform="translate(246.25 0)"/>
      <use xlink:href="#ArialMT-64" transform="translate(279.550781 0)"/>
      <use xlink:href="#ArialMT-29" transform="translate(335.166016 0)"/>
     </g>
    </g>
   </g>
   <g id="matplotlib.axis_4">
    <g id="ytick_6">
     <g id="line2d_17">
      <g>
       <use xlink:href="#mdf8742a2ca" x="476.081633" y="258.8" style="stroke: #000000; stroke-width: 0.8"/>
      </g>
     </g>
     <g id="text_19">
      <!-- 4 -->
      <g transform="translate(449.230633 270.653562) scale(0.312 -0.312)">
       <use xlink:href="#DejaVuSans-34"/>
      </g>
     </g>
    </g>
    <g id="ytick_7">
     <g id="line2d_18">
      <g>
       <use xlink:href="#mdf8742a2ca" x="476.081633" y="135.6" style="stroke: #000000; stroke-width: 0.8"/>
      </g>
     </g>
     <g id="text_20">
      <!-- 6 -->
      <g transform="translate(449.230633 147.453563) scale(0.312 -0.312)">
       <use xlink:href="#DejaVuSans-36"/>
      </g>
     </g>
    </g>
    <g id="text_21">
     <!-- Log$_{10}$ CD8$^+$ T cells -->
     <g transform="translate(438.938633 309.642) rotate(-90) scale(0.286 -0.286)">
      <defs>
       <path id="ArialMT-43" d="M 3763 1606 
L 4369 1453 
Q 4178 706 3683 314 
Q 3188 -78 2472 -78 
Q 1731 -78 1267 223 
Q 803 525 561 1097 
Q 319 1669 319 2325 
Q 319 3041 592 3573 
Q 866 4106 1370 4382 
Q 1875 4659 2481 4659 
Q 3169 4659 3637 4309 
Q 4106 3959 4291 3325 
L 3694 3184 
Q 3534 3684 3231 3912 
Q 2928 4141 2469 4141 
Q 1941 4141 1586 3887 
Q 1231 3634 1087 3207 
Q 944 2781 944 2328 
Q 944 1744 1114 1308 
Q 1284 872 1643 656 
Q 2003 441 2422 441 
Q 2931 441 3284 734 
Q 3638 1028 3763 1606 
z
" transform="scale(0.015625)"/>
       <path id="ArialMT-44" d="M 494 0 
L 494 4581 
L 2072 4581 
Q 2606 4581 2888 4516 
Q 3281 4425 3559 4188 
Q 3922 3881 4101 3404 
Q 4281 2928 4281 2316 
Q 4281 1794 4159 1391 
Q 4038 988 3847 723 
Q 3656 459 3429 307 
Q 3203 156 2883 78 
Q 2563 0 2147 0 
L 494 0 
z
M 1100 541 
L 2078 541 
Q 2531 541 2789 625 
Q 3047 709 3200 863 
Q 3416 1078 3536 1442 
Q 3656 1806 3656 2325 
Q 3656 3044 3420 3430 
Q 3184 3816 2847 3947 
Q 2603 4041 2063 4041 
L 1100 4041 
L 1100 541 
z
" transform="scale(0.015625)"/>
       <path id="ArialMT-38" d="M 1131 2484 
Q 781 2613 612 2850 
Q 444 3088 444 3419 
Q 444 3919 803 4259 
Q 1163 4600 1759 4600 
Q 2359 4600 2725 4251 
Q 3091 3903 3091 3403 
Q 3091 3084 2923 2848 
Q 2756 2613 2416 2484 
Q 2838 2347 3058 2040 
Q 3278 1734 3278 1309 
Q 3278 722 2862 322 
Q 2447 -78 1769 -78 
Q 1091 -78 675 323 
Q 259 725 259 1325 
Q 259 1772 486 2073 
Q 713 2375 1131 2484 
z
M 1019 3438 
Q 1019 3113 1228 2906 
Q 1438 2700 1772 2700 
Q 2097 2700 2305 2904 
Q 2513 3109 2513 3406 
Q 2513 3716 2298 3927 
Q 2084 4138 1766 4138 
Q 1444 4138 1231 3931 
Q 1019 3725 1019 3438 
z
M 838 1322 
Q 838 1081 952 856 
Q 1066 631 1291 507 
Q 1516 384 1775 384 
Q 2178 384 2440 643 
Q 2703 903 2703 1303 
Q 2703 1709 2433 1975 
Q 2163 2241 1756 2241 
Q 1359 2241 1098 1978 
Q 838 1716 838 1322 
z
" transform="scale(0.015625)"/>
       <path id="DejaVuSans-2b" d="M 2944 4013 
L 2944 2272 
L 4684 2272 
L 4684 1741 
L 2944 1741 
L 2944 0 
L 2419 0 
L 2419 1741 
L 678 1741 
L 678 2272 
L 2419 2272 
L 2419 4013 
L 2944 4013 
z
" transform="scale(0.015625)"/>
       <path id="ArialMT-6c" d="M 409 0 
L 409 4581 
L 972 4581 
L 972 0 
L 409 0 
z
" transform="scale(0.015625)"/>
      </defs>
      <use xlink:href="#ArialMT-4c" transform="translate(0 0.826562)"/>
      <use xlink:href="#ArialMT-6f" transform="translate(55.615234 0.826562)"/>
      <use xlink:href="#ArialMT-67" transform="translate(111.230469 0.826562)"/>
      <use xlink:href="#DejaVuSans-31" transform="translate(167.802734 -15.579688) scale(0.7)"/>
      <use xlink:href="#DejaVuSans-30" transform="translate(212.338867 -15.579688) scale(0.7)"/>
      <use xlink:href="#ArialMT-20" transform="translate(259.609375 0.826562)"/>
      <use xlink:href="#ArialMT-43" transform="translate(287.392578 0.826562)"/>
      <use xlink:href="#ArialMT-44" transform="translate(359.609375 0.826562)"/>
      <use xlink:href="#ArialMT-38" transform="translate(431.826172 0.826562)"/>
      <use xlink:href="#DejaVuSans-2b" transform="translate(502.036133 39.107812) scale(0.7)"/>
      <use xlink:href="#ArialMT-20" transform="translate(577.060547 0.826562)"/>
      <use xlink:href="#ArialMT-54" transform="translate(604.84375 0.826562)"/>
      <use xlink:href="#ArialMT-20" transform="translate(665.927734 0.826562)"/>
      <use xlink:href="#ArialMT-63" transform="translate(693.710938 0.826562)"/>
      <use xlink:href="#ArialMT-65" transform="translate(743.710938 0.826562)"/>
      <use xlink:href="#ArialMT-6c" transform="translate(799.326172 0.826562)"/>
      <use xlink:href="#ArialMT-6c" transform="translate(821.542969 0.826562)"/>
      <use xlink:href="#ArialMT-73" transform="translate(843.759766 0.826562)"/>
     </g>
    </g>
   </g>
   <g id="patch_8">
    <path d="M 476.081633 320.4 
L 476.081633 43.2 
" style="fill: none; stroke: #000000; stroke-width: 0.8; stroke-linejoin: miter; stroke-linecap: square"/>
   </g>
   <g id="patch_9">
    <path d="M 703.836735 320.4 
L 703.836735 43.2 
" style="fill: none; stroke: #000000; stroke-width: 0.8; stroke-linejoin: miter; stroke-linecap: square"/>
   </g>
   <g id="patch_10">
    <path d="M 476.081633 320.4 
L 703.836735 320.4 
" style="fill: none; stroke: #000000; stroke-width: 0.8; stroke-linejoin: miter; stroke-linecap: square"/>
   </g>
   <g id="patch_11">
    <path d="M 476.081633 43.2 
L 703.836735 43.2 
" style="fill: none; stroke: #000000; stroke-width: 0.8; stroke-linejoin: miter; stroke-linecap: square"/>
   </g>
   <g id="FillBetweenPolyCollection_2">
    <defs>
     <path id="m8a8f0bee43" d="M 482.780312 -158.553666 
L 482.780312 -158.553666 
L 482.780784 -158.553666 
L 482.785499 -158.553666 
L 482.832654 -158.553666 
L 482.973528 -158.553666 
L 483.114403 -158.553666 
L 483.481301 -158.553666 
L 483.882179 -158.553666 
L 484.81636 -158.553666 
L 485.473648 -158.553666 
L 486.941096 -158.553666 
L 487.731577 -158.553666 
L 489.22296 -158.553666 
L 490.095032 -158.553666 
L 491.569905 -158.553666 
L 492.505535 -158.553666 
L 493.97257 -158.553666 
L 494.95464 -158.553666 
L 496.408821 -158.553666 
L 497.424398 -158.553666 
L 499.025957 -158.553666 
L 500.020263 -158.553666 
L 501.390631 -158.553666 
L 502.425788 -158.553666 
L 503.919177 -158.553666 
L 504.945015 -158.553667 
L 506.322215 -158.553667 
L 507.36964 -158.553668 
L 508.846468 -158.553669 
L 509.878191 -158.553671 
L 511.24742 -158.553675 
L 512.299327 -158.55368 
L 513.768541 -158.553692 
L 514.817185 -158.553705 
L 516.394701 -158.553737 
L 517.43481 -158.553772 
L 518.877165 -158.553846 
L 519.964838 -158.553937 
L 521.537616 -158.55415 
L 522.635436 -158.554394 
L 524.356834 -158.555037 
L 525.47903 -158.555737 
L 526.861306 -158.557074 
L 527.933628 -158.55868 
L 529.182973 -158.561566 
L 530.220141 -158.565121 
L 531.283095 -158.570048 
L 532.210215 -158.575968 
L 533.138581 -158.584135 
L 533.911281 -158.593623 
L 535.065967 -158.6119 
L 535.866931 -158.629276 
L 536.96224 -158.660658 
L 537.78541 -158.692291 
L 538.841066 -158.74507 
L 539.68249 -158.80089 
L 540.728522 -158.890347 
L 541.774555 -159.007544 
L 543.01146 -159.194388 
L 544.582937 -159.535111 
L 546.447162 -160.130786 
L 548.521698 -161.039754 
L 550.599992 -162.400497 
L 553.279463 -164.872477 
L 555.384661 -167.259742 
L 557.983247 -170.930087 
L 560.662719 -175.15289 
L 563.34219 -179.649528 
L 566.021662 -184.104832 
L 568.701134 -188.416824 
L 571.380606 -192.508615 
L 574.060078 -196.255731 
L 576.739549 -199.659922 
L 579.419021 -202.692327 
L 582.098493 -205.357187 
L 584.777965 -207.670486 
L 587.457436 -209.655352 
L 590.136908 -210.369778 
L 592.81638 -210.849769 
L 595.495852 -211.186397 
L 598.175324 -211.405491 
L 600.854795 -211.529393 
L 603.534267 -211.577115 
L 606.213739 -211.564584 
L 608.893211 -211.504943 
L 611.572683 -211.408881 
L 614.252154 -211.284968 
L 616.931626 -211.139986 
L 619.611098 -210.979236 
L 622.29057 -210.806808 
L 624.970042 -210.617595 
L 627.649513 -210.3231 
L 630.328985 -210.023459 
L 633.008457 -209.720249 
L 635.687929 -209.414642 
L 638.3674 -209.107497 
L 641.046872 -208.799445 
L 643.726344 -208.490941 
L 646.405816 -208.182317 
L 649.085288 -207.873809 
L 651.764759 -207.565589 
L 654.444231 -207.257779 
L 657.123703 -206.944255 
L 659.803175 -206.604076 
L 662.482647 -206.264607 
L 665.162118 -205.926036 
L 666.501854 -205.757066 
L 667.037749 -205.689541 
L 667.344199 -205.650946 
L 667.487726 -205.63287 
L 667.593263 -205.619578 
L 667.740359 -205.601057 
L 667.889548 -205.582284 
L 667.948692 -205.574841 
L 667.981061 -205.570768 
L 668.039098 -205.563465 
L 668.084791 -205.557715 
L 668.15498 -205.548883 
L 668.225169 -205.540051 
L 668.594503 -205.493575 
L 668.711431 -205.478862 
L 669.130482 -205.426217 
L 669.297645 -205.405219 
L 669.398126 -205.392598 
L 669.734935 -205.350291 
L 669.933824 -205.325309 
L 670.764538 -205.220963 
L 671.361657 -205.145959 
L 673.374983 -204.893673 
L 675.008468 -204.689355 
L 677.687939 -204.35481 
L 679.878528 -204.081783 
L 682.558 -203.748419 
L 685.237471 -203.415956 
L 687.916943 -203.08444 
L 690.596415 -202.75388 
L 693.275887 -202.424284 
L 695.955359 -202.095662 
L 697.138055 -201.95092 
L 697.138055 -223.285904 
L 697.138055 -223.285904 
L 695.955359 -223.345127 
L 693.275887 -223.479343 
L 690.596415 -223.613622 
L 687.916943 -223.74796 
L 685.237471 -223.882355 
L 682.558 -224.016803 
L 679.878528 -224.151299 
L 677.687939 -224.261288 
L 675.008468 -224.395849 
L 673.374983 -224.477892 
L 671.361657 -224.579014 
L 670.764538 -224.609004 
L 669.933824 -224.650727 
L 669.734935 -224.660716 
L 669.398126 -224.677631 
L 669.297645 -224.682677 
L 669.130482 -224.691072 
L 668.711431 -224.712117 
L 668.594503 -224.717989 
L 668.225169 -224.736535 
L 668.15498 -224.740059 
L 668.084791 -224.743584 
L 668.039098 -224.745878 
L 667.981061 -224.748792 
L 667.948692 -224.750418 
L 667.889548 -224.753388 
L 667.740359 -224.760879 
L 667.593263 -224.768265 
L 667.487726 -224.773564 
L 667.344199 -224.78077 
L 667.037749 -224.796156 
L 666.501854 -224.823059 
L 665.162118 -224.890302 
L 662.482647 -225.024678 
L 659.803175 -225.158883 
L 657.123703 -225.292803 
L 654.444231 -225.426296 
L 651.764759 -225.559165 
L 649.085288 -225.69114 
L 646.405816 -225.821846 
L 643.726344 -225.950778 
L 641.046872 -226.077249 
L 638.3674 -226.200337 
L 635.687929 -226.318814 
L 633.008457 -226.431057 
L 630.328985 -226.534936 
L 627.649513 -226.62769 
L 624.970042 -226.705766 
L 622.29057 -226.764641 
L 619.611098 -226.798623 
L 616.931626 -226.800621 
L 614.252154 -226.761911 
L 611.572683 -226.671877 
L 608.893211 -226.517768 
L 606.213739 -226.284449 
L 603.534267 -225.954189 
L 600.854795 -225.50647 
L 598.175324 -224.917859 
L 595.495852 -224.161938 
L 592.81638 -223.367109 
L 590.136908 -223.048068 
L 587.457436 -222.573751 
L 584.777965 -221.90908 
L 582.098493 -221.014018 
L 579.419021 -219.843694 
L 576.739549 -218.348813 
L 574.060078 -216.4765 
L 571.380606 -214.171769 
L 568.701134 -211.379994 
L 566.021662 -208.050993 
L 563.34219 -204.145689 
L 560.662719 -199.646845 
L 557.983247 -194.575759 
L 555.384661 -189.197116 
L 553.279463 -184.591016 
L 550.599992 -178.707591 
L 548.521698 -174.565775 
L 546.447162 -170.792569 
L 544.582937 -167.632856 
L 543.01146 -165.452356 
L 541.774555 -163.886463 
L 540.728522 -162.774716 
L 539.68249 -161.899997 
L 538.841066 -161.237579 
L 537.78541 -160.607244 
L 536.96224 -160.176423 
L 535.866931 -159.743069 
L 535.065967 -159.483811 
L 533.911281 -159.203716 
L 533.138581 -159.060966 
L 532.210215 -158.926544 
L 531.283095 -158.827111 
L 530.220141 -158.74335 
L 529.182973 -158.685026 
L 527.933628 -158.637109 
L 526.861306 -158.610105 
L 525.47903 -158.587053 
L 524.356834 -158.575478 
L 522.635436 -158.565409 
L 521.537616 -158.561171 
L 519.964838 -158.557875 
L 518.877165 -158.556462 
L 517.43481 -158.555307 
L 516.394701 -158.554774 
L 514.817185 -158.554281 
L 513.768541 -158.554078 
L 512.299327 -158.553902 
L 511.24742 -158.553823 
L 509.878191 -158.553758 
L 508.846468 -158.553727 
L 507.36964 -158.553699 
L 506.322215 -158.553687 
L 504.945015 -158.553678 
L 503.919177 -158.553673 
L 502.425788 -158.55367 
L 501.390631 -158.553668 
L 500.020263 -158.553667 
L 499.025957 -158.553667 
L 497.424398 -158.553666 
L 496.408821 -158.553666 
L 494.95464 -158.553666 
L 493.97257 -158.553666 
L 492.505535 -158.553666 
L 491.569905 -158.553666 
L 490.095032 -158.553666 
L 489.22296 -158.553666 
L 487.731577 -158.553666 
L 486.941096 -158.553666 
L 485.473648 -158.553666 
L 484.81636 -158.553666 
L 483.882179 -158.553666 
L 483.481301 -158.553666 
L 483.114403 -158.553666 
L 482.973528 -158.553666 
L 482.832654 -158.553666 
L 482.785499 -158.553666 
L 482.780784 -158.553666 
L 482.780312 -158.553666 
z
" style="stroke: #40e0d0; stroke-opacity: 0.2"/>
    </defs>
    <g clip-path="url(#p8eded7295a)">
     <use xlink:href="#m8a8f0bee43" x="0" y="360" style="fill: #40e0d0; fill-opacity: 0.2; stroke: #40e0d0; stroke-opacity: 0.2"/>
    </g>
   </g>
   <g id="FillBetweenPolyCollection_3">
    <defs>
     <path id="m60768fca08" d="M 482.780312 -114.973746 
L 482.780312 -114.973746 
L 482.780784 -114.973746 
L 482.785499 -114.973746 
L 482.832654 -114.973746 
L 482.973528 -114.973746 
L 483.114403 -114.973746 
L 483.481301 -114.973746 
L 483.882179 -114.973746 
L 484.81636 -114.973746 
L 485.473648 -114.973746 
L 486.941096 -114.973746 
L 487.731577 -114.973746 
L 489.22296 -114.973746 
L 490.095032 -114.973746 
L 491.569905 -114.973746 
L 492.505535 -114.973746 
L 493.97257 -114.973746 
L 494.95464 -114.973746 
L 496.408821 -114.973746 
L 497.424398 -114.973746 
L 499.025957 -114.973746 
L 500.020263 -114.973746 
L 501.390631 -114.973746 
L 502.425788 -114.973746 
L 503.919177 -114.973746 
L 504.945015 -114.973746 
L 506.322215 -114.973746 
L 507.36964 -114.973746 
L 508.846468 -114.973746 
L 509.878191 -114.973746 
L 511.24742 -114.973746 
L 512.299327 -114.973746 
L 513.768541 -114.973746 
L 514.817185 -114.973746 
L 516.394701 -114.973746 
L 517.43481 -114.973746 
L 518.877165 -114.973746 
L 519.964838 -114.973746 
L 521.537616 -114.973746 
L 522.635436 -114.973746 
L 524.356834 -114.973746 
L 525.47903 -114.973746 
L 526.861306 -114.973746 
L 527.933628 -114.973746 
L 529.182973 -114.973746 
L 530.220141 -114.973746 
L 531.283095 -114.973746 
L 532.210215 -114.973747 
L 533.138581 -114.973747 
L 533.911281 -114.973748 
L 535.065967 -114.973749 
L 535.866931 -114.973751 
L 536.96224 -114.973754 
L 537.78541 -114.973757 
L 538.841066 -114.973763 
L 539.68249 -114.973769 
L 540.728522 -114.97378 
L 541.774555 -114.973795 
L 543.01146 -114.973822 
L 544.582937 -114.973881 
L 546.447162 -114.974012 
L 548.521698 -114.974263 
L 550.599992 -114.974818 
L 553.279463 -114.976503 
L 555.384661 -114.978837 
L 557.983247 -114.985321 
L 560.662719 -114.996984 
L 563.34219 -115.020792 
L 566.021662 -115.066735 
L 568.701134 -115.141154 
L 571.380606 -115.260165 
L 574.060078 -115.440692 
L 576.739549 -115.701345 
L 579.419021 -116.059406 
L 582.098493 -116.531063 
L 584.777965 -117.127929 
L 587.457436 -117.855391 
L 590.136908 -118.665721 
L 592.81638 -119.580011 
L 595.495852 -120.588183 
L 598.175324 -121.675083 
L 600.854795 -122.823864 
L 603.534267 -124.017316 
L 606.213739 -124.978829 
L 608.893211 -125.79807 
L 611.572683 -126.598294 
L 614.252154 -127.377579 
L 616.931626 -128.134835 
L 619.611098 -128.869608 
L 622.29057 -129.581911 
L 624.970042 -130.272083 
L 627.649513 -130.940689 
L 630.328985 -131.588433 
L 633.008457 -132.216102 
L 635.687929 -132.824521 
L 638.3674 -133.414525 
L 641.046872 -133.986936 
L 643.726344 -134.542554 
L 646.405816 -135.082145 
L 649.085288 -135.606438 
L 651.764759 -136.116127 
L 654.444231 -136.611863 
L 657.123703 -137.094262 
L 659.803175 -137.563904 
L 662.482647 -138.021539 
L 665.162118 -138.467395 
L 666.501854 -138.686023 
L 667.037749 -138.772687 
L 667.344199 -138.821946 
L 667.487726 -138.845017 
L 667.593263 -138.861982 
L 667.740359 -138.885626 
L 667.889548 -138.909564 
L 667.948692 -138.918947 
L 667.981061 -138.924082 
L 668.039098 -138.933289 
L 668.084791 -138.940538 
L 668.15498 -138.951673 
L 668.225169 -138.962808 
L 668.594503 -139.021399 
L 668.711431 -139.039949 
L 669.130482 -139.106427 
L 669.297645 -139.132946 
L 669.398126 -139.148887 
L 669.734935 -139.202319 
L 669.933824 -139.233514 
L 670.764538 -139.362866 
L 671.361657 -139.455844 
L 673.374983 -139.764403 
L 675.008468 -140.011727 
L 677.687939 -140.408749 
L 679.878528 -140.726903 
L 682.558 -141.107256 
L 685.237471 -141.478923 
L 687.916943 -141.842219 
L 690.596415 -142.197442 
L 693.275887 -142.544873 
L 695.955359 -142.884779 
L 697.138055 -143.032564 
L 697.138055 -171.950615 
L 697.138055 -171.950615 
L 695.955359 -171.740986 
L 693.275887 -171.259037 
L 690.596415 -170.76512 
L 687.916943 -170.258708 
L 685.237471 -169.739236 
L 682.558 -169.206101 
L 679.878528 -168.658658 
L 677.687939 -168.200303 
L 675.008468 -167.625406 
L 673.374983 -167.265762 
L 671.361657 -166.81571 
L 670.764538 -166.680379 
L 669.933824 -166.490532 
L 669.734935 -166.444792 
L 669.398126 -166.367051 
L 669.297645 -166.34384 
L 669.130482 -166.305112 
L 668.711431 -166.207734 
L 668.594503 -166.180473 
L 668.225169 -166.094161 
L 668.15498 -166.077712 
L 668.084791 -166.061257 
L 668.039098 -166.050535 
L 667.981061 -166.036912 
L 667.948692 -166.029309 
L 667.889548 -166.01541 
L 667.740359 -165.980311 
L 667.593263 -165.945644 
L 667.487726 -165.920734 
L 667.344199 -165.886802 
L 667.037749 -165.814181 
L 666.501854 -165.686557 
L 665.162118 -165.362695 
L 662.482647 -164.702954 
L 659.803175 -164.022217 
L 657.123703 -163.319252 
L 654.444231 -162.592719 
L 651.764759 -161.841157 
L 649.085288 -161.062968 
L 646.405816 -160.256402 
L 643.726344 -159.419545 
L 641.046872 -158.550291 
L 638.3674 -157.646331 
L 635.687929 -156.705128 
L 633.008457 -155.723896 
L 630.328985 -154.699583 
L 627.649513 -153.628857 
L 624.970042 -152.508096 
L 622.29057 -151.333393 
L 619.611098 -150.100582 
L 616.931626 -148.805289 
L 614.252154 -147.443027 
L 611.572683 -146.009346 
L 608.893211 -144.500068 
L 606.213739 -142.911615 
L 603.534267 -141.241484 
L 600.854795 -139.488866 
L 598.175324 -137.655465 
L 595.495852 -135.746494 
L 592.81638 -133.771842 
L 590.136908 -131.747312 
L 587.457436 -129.695747 
L 584.777965 -127.647751 
L 582.098493 -125.641556 
L 579.419021 -123.813075 
L 576.739549 -122.149848 
L 574.060078 -120.622552 
L 571.380606 -119.26743 
L 568.701134 -118.111665 
L 566.021662 -117.182111 
L 563.34219 -116.494594 
L 560.662719 -115.986837 
L 557.983247 -115.606267 
L 555.384661 -115.354179 
L 553.279463 -115.207556 
L 550.599992 -115.098174 
L 548.521698 -115.042236 
L 546.447162 -115.013358 
L 544.582937 -114.994875 
L 543.01146 -114.986964 
L 541.774555 -114.98266 
L 540.728522 -114.979622 
L 539.68249 -114.977901 
L 538.841066 -114.976815 
L 537.78541 -114.975762 
L 536.96224 -114.975255 
L 535.866931 -114.974754 
L 535.065967 -114.974496 
L 533.911281 -114.974239 
L 533.138581 -114.974116 
L 532.210215 -114.974009 
L 531.283095 -114.973932 
L 530.220141 -114.973871 
L 529.182973 -114.973831 
L 527.933628 -114.973799 
L 526.861306 -114.973781 
L 525.47903 -114.973767 
L 524.356834 -114.973759 
L 522.635436 -114.973753 
L 521.537616 -114.97375 
L 519.964838 -114.973748 
L 518.877165 -114.973747 
L 517.43481 -114.973746 
L 516.394701 -114.973746 
L 514.817185 -114.973746 
L 513.768541 -114.973746 
L 512.299327 -114.973746 
L 511.24742 -114.973746 
L 509.878191 -114.973746 
L 508.846468 -114.973746 
L 507.36964 -114.973746 
L 506.322215 -114.973746 
L 504.945015 -114.973746 
L 503.919177 -114.973746 
L 502.425788 -114.973746 
L 501.390631 -114.973746 
L 500.020263 -114.973746 
L 499.025957 -114.973746 
L 497.424398 -114.973746 
L 496.408821 -114.973746 
L 494.95464 -114.973746 
L 493.97257 -114.973746 
L 492.505535 -114.973746 
L 491.569905 -114.973746 
L 490.095032 -114.973746 
L 489.22296 -114.973746 
L 487.731577 -114.973746 
L 486.941096 -114.973746 
L 485.473648 -114.973746 
L 484.81636 -114.973746 
L 483.882179 -114.973746 
L 483.481301 -114.973746 
L 483.114403 -114.973746 
L 482.973528 -114.973746 
L 482.832654 -114.973746 
L 482.785499 -114.973746 
L 482.780784 -114.973746 
L 482.780312 -114.973746 
z
" style="stroke: #40e0d0; stroke-opacity: 0.2"/>
    </defs>
    <g clip-path="url(#p8eded7295a)">
     <use xlink:href="#m60768fca08" x="0" y="360" style="fill: #40e0d0; fill-opacity: 0.2; stroke: #40e0d0; stroke-opacity: 0.2"/>
    </g>
   </g>
   <g id="PathCollection_2">
    <g clip-path="url(#p8eded7295a)">
     <use xlink:href="#m9bb1650655" x="482.780312" y="201.446334" style="fill-opacity: 0.8; stroke: #000000; stroke-opacity: 0.8"/>
     <use xlink:href="#m9bb1650655" x="509.57503" y="180.841044" style="fill-opacity: 0.8; stroke: #000000; stroke-opacity: 0.8"/>
     <use xlink:href="#m9bb1650655" x="536.369748" y="174.505274" style="fill-opacity: 0.8; stroke: #000000; stroke-opacity: 0.8"/>
     <use xlink:href="#m9bb1650655" x="563.164466" y="172.264434" style="fill-opacity: 0.8; stroke: #000000; stroke-opacity: 0.8"/>
     <use xlink:href="#m9bb1650655" x="589.959184" y="149.697872" style="fill-opacity: 0.8; stroke: #000000; stroke-opacity: 0.8"/>
     <use xlink:href="#m9bb1650655" x="616.753902" y="134.769519" style="fill-opacity: 0.8; stroke: #000000; stroke-opacity: 0.8"/>
     <use xlink:href="#m9bb1650655" x="643.548619" y="147.784747" style="fill-opacity: 0.8; stroke: #000000; stroke-opacity: 0.8"/>
     <use xlink:href="#m9bb1650655" x="670.343337" y="147.628485" style="fill-opacity: 0.8; stroke: #000000; stroke-opacity: 0.8"/>
    </g>
   </g>
   <g id="PathCollection_3">
    <defs>
     <path id="mdf7c96f7d8" d="M -7.071068 7.071068 
L 7.071068 7.071068 
L 7.071068 -7.071068 
L -7.071068 -7.071068 
z
" style="stroke: #000000; stroke-opacity: 0.8"/>
    </defs>
    <g clip-path="url(#p8eded7295a)">
     <use xlink:href="#mdf7c96f7d8" x="482.780312" y="245.025734" style="fill-opacity: 0.8; stroke: #000000; stroke-opacity: 0.8"/>
     <use xlink:href="#mdf7c96f7d8" x="509.57503" y="250.178734" style="fill-opacity: 0.8; stroke: #000000; stroke-opacity: 0.8"/>
     <use xlink:href="#mdf7c96f7d8" x="536.369748" y="242.537704" style="fill-opacity: 0.8; stroke: #000000; stroke-opacity: 0.8"/>
     <use xlink:href="#mdf7c96f7d8" x="563.164466" y="235.811414" style="fill-opacity: 0.8; stroke: #000000; stroke-opacity: 0.8"/>
     <use xlink:href="#mdf7c96f7d8" x="589.959184" y="231.114575" style="fill-opacity: 0.8; stroke: #000000; stroke-opacity: 0.8"/>
     <use xlink:href="#mdf7c96f7d8" x="616.753902" y="221.881537" style="fill-opacity: 0.8; stroke: #000000; stroke-opacity: 0.8"/>
     <use xlink:href="#mdf7c96f7d8" x="643.548619" y="216.580747" style="fill-opacity: 0.8; stroke: #000000; stroke-opacity: 0.8"/>
     <use xlink:href="#mdf7c96f7d8" x="670.343337" y="210.076192" style="fill-opacity: 0.8; stroke: #000000; stroke-opacity: 0.8"/>
    </g>
   </g>
   <g id="line2d_19">
    <path d="M 482.780312 201.446334 
L 532.210215 201.351553 
L 535.866931 201.128319 
L 537.78541 200.871845 
L 539.68249 200.452143 
L 541.774555 199.708385 
L 543.01146 199.086345 
L 544.582937 198.057704 
L 546.447162 196.446107 
L 548.521698 194.121143 
L 550.599992 191.252361 
L 553.279463 186.898161 
L 557.983247 178.318299 
L 560.662719 173.405786 
L 563.34219 168.750972 
L 566.021662 164.482232 
L 568.701134 160.664899 
L 571.380606 157.319389 
L 574.060078 154.436755 
L 576.739549 151.990187 
L 579.419021 149.94292 
L 582.098493 148.253479 
L 584.777965 146.879083 
L 587.457436 145.777841 
L 590.136908 144.910134 
L 592.81638 144.239463 
L 595.495852 143.732916 
L 600.854795 143.099542 
L 606.213739 142.821846 
L 611.572683 142.766014 
L 619.611098 142.911625 
L 635.687929 143.516527 
L 697.138055 146.216346 
L 697.138055 146.216346 
" clip-path="url(#p8eded7295a)" style="fill: none; stroke: #40e0d0; stroke-width: 3; stroke-linecap: square"/>
   </g>
   <g id="line2d_20">
    <path d="M 482.780312 245.026254 
L 553.279463 244.931093 
L 557.983247 244.745436 
L 563.34219 244.254953 
L 566.021662 243.846867 
L 568.701134 243.30504 
L 571.380606 242.618862 
L 574.060078 241.786451 
L 576.739549 240.814839 
L 582.098493 238.519142 
L 587.457436 235.903858 
L 603.534267 227.800998 
L 608.893211 225.337489 
L 614.252154 223.048006 
L 619.611098 220.929533 
L 627.649513 218.045135 
L 635.687929 215.466485 
L 643.726344 213.144269 
L 651.764759 211.037076 
L 662.482647 208.505458 
L 673.374983 206.201847 
L 685.237471 203.9466 
L 697.138055 201.904677 
L 697.138055 201.904677 
" clip-path="url(#p8eded7295a)" style="fill: none; stroke-dasharray: 11.1,4.8; stroke-dashoffset: 0; stroke: #40e0d0; stroke-width: 3"/>
   </g>
  </g>
  <g id="text_22">
   <!-- Individual 308 -->
   <g transform="translate(335.733375 29.532375) scale(0.312 -0.312)">
    <defs>
     <path id="ArialMT-49" d="M 597 0 
L 597 4581 
L 1203 4581 
L 1203 0 
L 597 0 
z
" transform="scale(0.015625)"/>
     <path id="ArialMT-6e" d="M 422 0 
L 422 3319 
L 928 3319 
L 928 2847 
Q 1294 3394 1984 3394 
Q 2284 3394 2536 3286 
Q 2788 3178 2913 3003 
Q 3038 2828 3088 2588 
Q 3119 2431 3119 2041 
L 3119 0 
L 2556 0 
L 2556 2019 
Q 2556 2363 2490 2533 
Q 2425 2703 2258 2804 
Q 2091 2906 1866 2906 
Q 1506 2906 1245 2678 
Q 984 2450 984 1813 
L 984 0 
L 422 0 
z
" transform="scale(0.015625)"/>
     <path id="ArialMT-76" d="M 1344 0 
L 81 3319 
L 675 3319 
L 1388 1331 
Q 1503 1009 1600 663 
Q 1675 925 1809 1294 
L 2547 3319 
L 3125 3319 
L 1869 0 
L 1344 0 
z
" transform="scale(0.015625)"/>
     <path id="ArialMT-61" d="M 2588 409 
Q 2275 144 1986 34 
Q 1697 -75 1366 -75 
Q 819 -75 525 192 
Q 231 459 231 875 
Q 231 1119 342 1320 
Q 453 1522 633 1644 
Q 813 1766 1038 1828 
Q 1203 1872 1538 1913 
Q 2219 1994 2541 2106 
Q 2544 2222 2544 2253 
Q 2544 2597 2384 2738 
Q 2169 2928 1744 2928 
Q 1347 2928 1158 2789 
Q 969 2650 878 2297 
L 328 2372 
Q 403 2725 575 2942 
Q 747 3159 1072 3276 
Q 1397 3394 1825 3394 
Q 2250 3394 2515 3294 
Q 2781 3194 2906 3042 
Q 3031 2891 3081 2659 
Q 3109 2516 3109 2141 
L 3109 1391 
Q 3109 606 3145 398 
Q 3181 191 3288 0 
L 2700 0 
Q 2613 175 2588 409 
z
M 2541 1666 
Q 2234 1541 1622 1453 
Q 1275 1403 1131 1340 
Q 988 1278 909 1158 
Q 831 1038 831 891 
Q 831 666 1001 516 
Q 1172 366 1500 366 
Q 1825 366 2078 508 
Q 2331 650 2450 897 
Q 2541 1088 2541 1459 
L 2541 1666 
z
" transform="scale(0.015625)"/>
     <path id="ArialMT-33" d="M 269 1209 
L 831 1284 
Q 928 806 1161 595 
Q 1394 384 1728 384 
Q 2125 384 2398 659 
Q 2672 934 2672 1341 
Q 2672 1728 2419 1979 
Q 2166 2231 1775 2231 
Q 1616 2231 1378 2169 
L 1441 2663 
Q 1497 2656 1531 2656 
Q 1891 2656 2178 2843 
Q 2466 3031 2466 3422 
Q 2466 3731 2256 3934 
Q 2047 4138 1716 4138 
Q 1388 4138 1169 3931 
Q 950 3725 888 3313 
L 325 3413 
Q 428 3978 793 4289 
Q 1159 4600 1703 4600 
Q 2078 4600 2393 4439 
Q 2709 4278 2876 4000 
Q 3044 3722 3044 3409 
Q 3044 3113 2884 2869 
Q 2725 2625 2413 2481 
Q 2819 2388 3044 2092 
Q 3269 1797 3269 1353 
Q 3269 753 2831 336 
Q 2394 -81 1725 -81 
Q 1122 -81 723 278 
Q 325 638 269 1209 
z
" transform="scale(0.015625)"/>
     <path id="ArialMT-30" d="M 266 2259 
Q 266 3072 433 3567 
Q 600 4063 929 4331 
Q 1259 4600 1759 4600 
Q 2128 4600 2406 4451 
Q 2684 4303 2865 4023 
Q 3047 3744 3150 3342 
Q 3253 2941 3253 2259 
Q 3253 1453 3087 958 
Q 2922 463 2592 192 
Q 2263 -78 1759 -78 
Q 1097 -78 719 397 
Q 266 969 266 2259 
z
M 844 2259 
Q 844 1131 1108 757 
Q 1372 384 1759 384 
Q 2147 384 2411 759 
Q 2675 1134 2675 2259 
Q 2675 3391 2411 3762 
Q 2147 4134 1753 4134 
Q 1366 4134 1134 3806 
Q 844 3388 844 2259 
z
" transform="scale(0.015625)"/>
    </defs>
    <use xlink:href="#ArialMT-49"/>
    <use xlink:href="#ArialMT-6e" transform="translate(27.783203 0)"/>
    <use xlink:href="#ArialMT-64" transform="translate(83.398438 0)"/>
    <use xlink:href="#ArialMT-69" transform="translate(139.013672 0)"/>
    <use xlink:href="#ArialMT-76" transform="translate(161.230469 0)"/>
    <use xlink:href="#ArialMT-69" transform="translate(211.230469 0)"/>
    <use xlink:href="#ArialMT-64" transform="translate(233.447266 0)"/>
    <use xlink:href="#ArialMT-75" transform="translate(289.0625 0)"/>
    <use xlink:href="#ArialMT-61" transform="translate(344.677734 0)"/>
    <use xlink:href="#ArialMT-6c" transform="translate(400.292969 0)"/>
    <use xlink:href="#ArialMT-20" transform="translate(422.509766 0)"/>
    <use xlink:href="#ArialMT-33" transform="translate(450.292969 0)"/>
    <use xlink:href="#ArialMT-30" transform="translate(505.908203 0)"/>
    <use xlink:href="#ArialMT-38" transform="translate(561.523438 0)"/>
   </g>
  </g>
 </g>
 <defs>
  <clipPath id="p1d30739e3c">
   <rect x="180" y="43.2" width="227.755102" height="277.2"/>
  </clipPath>
  <clipPath id="p8eded7295a">
   <rect x="476.081633" y="43.2" width="227.755102" height="277.2"/>
  </clipPath>
 </defs>
</svg>
