<?xml version="1.0" encoding="utf-8" standalone="no"?>
<!DOCTYPE svg PUBLIC "-//W3C//DTD SVG 1.1//EN"
  "http://www.w3.org/Graphics/SVG/1.1/DTD/svg11.dtd">
<svg xmlns:xlink="http://www.w3.org/1999/xlink" width="1440pt" height="360pt" viewBox="0 0 1440 360" xmlns="http://www.w3.org/2000/svg" version="1.1">
 <metadata>
  <rdf:RDF xmlns:dc="http://purl.org/dc/elements/1.1/" xmlns:cc="http://creativecommons.org/ns#" xmlns:rdf="http://www.w3.org/1999/02/22-rdf-syntax-ns#">
   <cc:Work>
    <dc:type rdf:resource="http://purl.org/dc/dcmitype/StillImage"/>
    <dc:date>2025-02-07T13:23:33.034266</dc:date>
    <dc:format>image/svg+xml</dc:format>
    <dc:creator>
     <cc:Agent>
      <dc:title>Matplotlib v3.10.0, https://matplotlib.org/</dc:title>
     </cc:Agent>
    </dc:creator>
   </cc:Work>
  </rdf:RDF>
 </metadata>
 <defs>
  <style type="text/css">*{stroke-linejoin: round; stroke-linecap: butt}</style>
 </defs>
 <g id="figure_1">
  <g id="patch_1">
   <path d="M 0 360 
L 1440 360 
L 1440 0 
L 0 0 
L 0 360 
z
" style="fill: none"/>
  </g>
  <g id="axes_1">
   <g id="patch_2">
    <path d="M 180 320.4 
L 407.755102 320.4 
L 407.755102 43.2 
L 180 43.2 
L 180 320.4 
z
" style="fill: none"/>
   </g>
   <g id="matplotlib.axis_1">
    <g id="xtick_1">
     <g id="line2d_1">
      <defs>
       <path id="m6533cc712d" d="M 0 0 
L 0 3.5 
" style="stroke: #000000; stroke-width: 0.8"/>
      </defs>
      <g>
       <use xlink:href="#m6533cc712d" x="186.698679" y="320.4" style="stroke: #000000; stroke-width: 0.8"/>
      </g>
     </g>
     <g id="text_1">
      <!-- 0 -->
      <g transform="translate(176.773179 351.107125) scale(0.312 -0.312)">
       <defs>
        <path id="DejaVuSans-30" d="M 2034 4250 
Q 1547 4250 1301 3770 
Q 1056 3291 1056 2328 
Q 1056 1369 1301 889 
Q 1547 409 2034 409 
Q 2525 409 2770 889 
Q 3016 1369 3016 2328 
Q 3016 3291 2770 3770 
Q 2525 4250 2034 4250 
z
M 2034 4750 
Q 2819 4750 3233 4129 
Q 3647 3509 3647 2328 
Q 3647 1150 3233 529 
Q 2819 -91 2034 -91 
Q 1250 -91 836 529 
Q 422 1150 422 2328 
Q 422 3509 836 4129 
Q 1250 4750 2034 4750 
z
" transform="scale(0.015625)"/>
       </defs>
       <use xlink:href="#DejaVuSans-30"/>
      </g>
     </g>
    </g>
    <g id="xtick_2">
     <g id="line2d_2">
      <g>
       <use xlink:href="#m6533cc712d" x="240.288115" y="320.4" style="stroke: #000000; stroke-width: 0.8"/>
      </g>
     </g>
     <g id="text_2">
      <!-- 2 -->
      <g transform="translate(230.362615 351.107125) scale(0.312 -0.312)">
       <defs>
        <path id="DejaVuSans-32" d="M 1228 531 
L 3431 531 
L 3431 0 
L 469 0 
L 469 531 
Q 828 903 1448 1529 
Q 2069 2156 2228 2338 
Q 2531 2678 2651 2914 
Q 2772 3150 2772 3378 
Q 2772 3750 2511 3984 
Q 2250 4219 1831 4219 
Q 1534 4219 1204 4116 
Q 875 4013 500 3803 
L 500 4441 
Q 881 4594 1212 4672 
Q 1544 4750 1819 4750 
Q 2544 4750 2975 4387 
Q 3406 4025 3406 3419 
Q 3406 3131 3298 2873 
Q 3191 2616 2906 2266 
Q 2828 2175 2409 1742 
Q 1991 1309 1228 531 
z
" transform="scale(0.015625)"/>
       </defs>
       <use xlink:href="#DejaVuSans-32"/>
      </g>
     </g>
    </g>
    <g id="xtick_3">
     <g id="line2d_3">
      <g>
       <use xlink:href="#m6533cc712d" x="293.877551" y="320.4" style="stroke: #000000; stroke-width: 0.8"/>
      </g>
     </g>
     <g id="text_3">
      <!-- 4 -->
      <g transform="translate(283.952051 351.107125) scale(0.312 -0.312)">
       <defs>
        <path id="DejaVuSans-34" d="M 2419 4116 
L 825 1625 
L 2419 1625 
L 2419 4116 
z
M 2253 4666 
L 3047 4666 
L 3047 1625 
L 3713 1625 
L 3713 1100 
L 3047 1100 
L 3047 0 
L 2419 0 
L 2419 1100 
L 313 1100 
L 313 1709 
L 2253 4666 
z
" transform="scale(0.015625)"/>
       </defs>
       <use xlink:href="#DejaVuSans-34"/>
      </g>
     </g>
    </g>
    <g id="xtick_4">
     <g id="line2d_4">
      <g>
       <use xlink:href="#m6533cc712d" x="347.466987" y="320.4" style="stroke: #000000; stroke-width: 0.8"/>
      </g>
     </g>
     <g id="text_4">
      <!-- 6 -->
      <g transform="translate(337.541487 351.107125) scale(0.312 -0.312)">
       <defs>
        <path id="DejaVuSans-36" d="M 2113 2584 
Q 1688 2584 1439 2293 
Q 1191 2003 1191 1497 
Q 1191 994 1439 701 
Q 1688 409 2113 409 
Q 2538 409 2786 701 
Q 3034 994 3034 1497 
Q 3034 2003 2786 2293 
Q 2538 2584 2113 2584 
z
M 3366 4563 
L 3366 3988 
Q 3128 4100 2886 4159 
Q 2644 4219 2406 4219 
Q 1781 4219 1451 3797 
Q 1122 3375 1075 2522 
Q 1259 2794 1537 2939 
Q 1816 3084 2150 3084 
Q 2853 3084 3261 2657 
Q 3669 2231 3669 1497 
Q 3669 778 3244 343 
Q 2819 -91 2113 -91 
Q 1303 -91 875 529 
Q 447 1150 447 2328 
Q 447 3434 972 4092 
Q 1497 4750 2381 4750 
Q 2619 4750 2861 4703 
Q 3103 4656 3366 4563 
z
" transform="scale(0.015625)"/>
       </defs>
       <use xlink:href="#DejaVuSans-36"/>
      </g>
     </g>
    </g>
    <g id="xtick_5">
     <g id="line2d_5">
      <g>
       <use xlink:href="#m6533cc712d" x="401.056423" y="320.4" style="stroke: #000000; stroke-width: 0.8"/>
      </g>
     </g>
     <g id="text_5">
      <!-- 8 -->
      <g transform="translate(391.130923 351.107125) scale(0.312 -0.312)">
       <defs>
        <path id="DejaVuSans-38" d="M 2034 2216 
Q 1584 2216 1326 1975 
Q 1069 1734 1069 1313 
Q 1069 891 1326 650 
Q 1584 409 2034 409 
Q 2484 409 2743 651 
Q 3003 894 3003 1313 
Q 3003 1734 2745 1975 
Q 2488 2216 2034 2216 
z
M 1403 2484 
Q 997 2584 770 2862 
Q 544 3141 544 3541 
Q 544 4100 942 4425 
Q 1341 4750 2034 4750 
Q 2731 4750 3128 4425 
Q 3525 4100 3525 3541 
Q 3525 3141 3298 2862 
Q 3072 2584 2669 2484 
Q 3125 2378 3379 2068 
Q 3634 1759 3634 1313 
Q 3634 634 3220 271 
Q 2806 -91 2034 -91 
Q 1263 -91 848 271 
Q 434 634 434 1313 
Q 434 1759 690 2068 
Q 947 2378 1403 2484 
z
M 1172 3481 
Q 1172 3119 1398 2916 
Q 1625 2713 2034 2713 
Q 2441 2713 2670 2916 
Q 2900 3119 2900 3481 
Q 2900 3844 2670 4047 
Q 2441 4250 2034 4250 
Q 1625 4250 1398 4047 
Q 1172 3844 1172 3481 
z
" transform="scale(0.015625)"/>
       </defs>
       <use xlink:href="#DejaVuSans-38"/>
      </g>
     </g>
    </g>
    <g id="text_6">
     <!-- Time (d) -->
     <g transform="translate(241.190989 382.415656) scale(0.286 -0.286)">
      <defs>
       <path id="ArialMT-54" d="M 1659 0 
L 1659 4041 
L 150 4041 
L 150 4581 
L 3781 4581 
L 3781 4041 
L 2266 4041 
L 2266 0 
L 1659 0 
z
" transform="scale(0.015625)"/>
       <path id="ArialMT-69" d="M 425 3934 
L 425 4581 
L 988 4581 
L 988 3934 
L 425 3934 
z
M 425 0 
L 425 3319 
L 988 3319 
L 988 0 
L 425 0 
z
" transform="scale(0.015625)"/>
       <path id="ArialMT-6d" d="M 422 0 
L 422 3319 
L 925 3319 
L 925 2853 
Q 1081 3097 1340 3245 
Q 1600 3394 1931 3394 
Q 2300 3394 2536 3241 
Q 2772 3088 2869 2813 
Q 3263 3394 3894 3394 
Q 4388 3394 4653 3120 
Q 4919 2847 4919 2278 
L 4919 0 
L 4359 0 
L 4359 2091 
Q 4359 2428 4304 2576 
Q 4250 2725 4106 2815 
Q 3963 2906 3769 2906 
Q 3419 2906 3187 2673 
Q 2956 2441 2956 1928 
L 2956 0 
L 2394 0 
L 2394 2156 
Q 2394 2531 2256 2718 
Q 2119 2906 1806 2906 
Q 1569 2906 1367 2781 
Q 1166 2656 1075 2415 
Q 984 2175 984 1722 
L 984 0 
L 422 0 
z
" transform="scale(0.015625)"/>
       <path id="ArialMT-65" d="M 2694 1069 
L 3275 997 
Q 3138 488 2766 206 
Q 2394 -75 1816 -75 
Q 1088 -75 661 373 
Q 234 822 234 1631 
Q 234 2469 665 2931 
Q 1097 3394 1784 3394 
Q 2450 3394 2872 2941 
Q 3294 2488 3294 1666 
Q 3294 1616 3291 1516 
L 816 1516 
Q 847 969 1125 678 
Q 1403 388 1819 388 
Q 2128 388 2347 550 
Q 2566 713 2694 1069 
z
M 847 1978 
L 2700 1978 
Q 2663 2397 2488 2606 
Q 2219 2931 1791 2931 
Q 1403 2931 1139 2672 
Q 875 2413 847 1978 
z
" transform="scale(0.015625)"/>
       <path id="ArialMT-20" transform="scale(0.015625)"/>
       <path id="ArialMT-28" d="M 1497 -1347 
Q 1031 -759 709 28 
Q 388 816 388 1659 
Q 388 2403 628 3084 
Q 909 3875 1497 4659 
L 1900 4659 
Q 1522 4009 1400 3731 
Q 1209 3300 1100 2831 
Q 966 2247 966 1656 
Q 966 153 1900 -1347 
L 1497 -1347 
z
" transform="scale(0.015625)"/>
       <path id="ArialMT-64" d="M 2575 0 
L 2575 419 
Q 2259 -75 1647 -75 
Q 1250 -75 917 144 
Q 584 363 401 755 
Q 219 1147 219 1656 
Q 219 2153 384 2558 
Q 550 2963 881 3178 
Q 1213 3394 1622 3394 
Q 1922 3394 2156 3267 
Q 2391 3141 2538 2938 
L 2538 4581 
L 3097 4581 
L 3097 0 
L 2575 0 
z
M 797 1656 
Q 797 1019 1065 703 
Q 1334 388 1700 388 
Q 2069 388 2326 689 
Q 2584 991 2584 1609 
Q 2584 2291 2321 2609 
Q 2059 2928 1675 2928 
Q 1300 2928 1048 2622 
Q 797 2316 797 1656 
z
" transform="scale(0.015625)"/>
       <path id="ArialMT-29" d="M 791 -1347 
L 388 -1347 
Q 1322 153 1322 1656 
Q 1322 2244 1188 2822 
Q 1081 3291 891 3722 
Q 769 4003 388 4659 
L 791 4659 
Q 1378 3875 1659 3084 
Q 1900 2403 1900 1659 
Q 1900 816 1576 28 
Q 1253 -759 791 -1347 
z
" transform="scale(0.015625)"/>
      </defs>
      <use xlink:href="#ArialMT-54"/>
      <use xlink:href="#ArialMT-69" transform="translate(57.333984 0)"/>
      <use xlink:href="#ArialMT-6d" transform="translate(79.550781 0)"/>
      <use xlink:href="#ArialMT-65" transform="translate(162.851562 0)"/>
      <use xlink:href="#ArialMT-20" transform="translate(218.466797 0)"/>
      <use xlink:href="#ArialMT-28" transform="translate(246.25 0)"/>
      <use xlink:href="#ArialMT-64" transform="translate(279.550781 0)"/>
      <use xlink:href="#ArialMT-29" transform="translate(335.166016 0)"/>
     </g>
    </g>
   </g>
   <g id="matplotlib.axis_2">
    <g id="ytick_1">
     <g id="line2d_6">
      <defs>
       <path id="md45d9831b0" d="M 0 0 
L -3.5 0 
" style="stroke: #000000; stroke-width: 0.8"/>
      </defs>
      <g>
       <use xlink:href="#md45d9831b0" x="180" y="320.4" style="stroke: #000000; stroke-width: 0.8"/>
      </g>
     </g>
     <g id="text_7">
      <!-- 0 -->
      <g transform="translate(153.149 332.253562) scale(0.312 -0.312)">
       <use xlink:href="#DejaVuSans-30"/>
      </g>
     </g>
    </g>
    <g id="ytick_2">
     <g id="line2d_7">
      <g>
       <use xlink:href="#md45d9831b0" x="180" y="251.1" style="stroke: #000000; stroke-width: 0.8"/>
      </g>
     </g>
     <g id="text_8">
      <!-- 2 -->
      <g transform="translate(153.149 262.953562) scale(0.312 -0.312)">
       <use xlink:href="#DejaVuSans-32"/>
      </g>
     </g>
    </g>
    <g id="ytick_3">
     <g id="line2d_8">
      <g>
       <use xlink:href="#md45d9831b0" x="180" y="181.8" style="stroke: #000000; stroke-width: 0.8"/>
      </g>
     </g>
     <g id="text_9">
      <!-- 4 -->
      <g transform="translate(153.149 193.653562) scale(0.312 -0.312)">
       <use xlink:href="#DejaVuSans-34"/>
      </g>
     </g>
    </g>
    <g id="ytick_4">
     <g id="line2d_9">
      <g>
       <use xlink:href="#md45d9831b0" x="180" y="112.5" style="stroke: #000000; stroke-width: 0.8"/>
      </g>
     </g>
     <g id="text_10">
      <!-- 6 -->
      <g transform="translate(153.149 124.353562) scale(0.312 -0.312)">
       <use xlink:href="#DejaVuSans-36"/>
      </g>
     </g>
    </g>
    <g id="ytick_5">
     <g id="line2d_10">
      <g>
       <use xlink:href="#md45d9831b0" x="180" y="43.2" style="stroke: #000000; stroke-width: 0.8"/>
      </g>
     </g>
     <g id="text_11">
      <!-- 8 -->
      <g transform="translate(153.149 55.053562) scale(0.312 -0.312)">
       <use xlink:href="#DejaVuSans-38"/>
      </g>
     </g>
    </g>
    <g id="text_12">
     <!-- Log$_{10}$ Virus (copies/mL) -->
     <g transform="translate(142.857 334.238) rotate(-90) scale(0.286 -0.286)">
      <defs>
       <path id="ArialMT-4c" d="M 469 0 
L 469 4581 
L 1075 4581 
L 1075 541 
L 3331 541 
L 3331 0 
L 469 0 
z
" transform="scale(0.015625)"/>
       <path id="ArialMT-6f" d="M 213 1659 
Q 213 2581 725 3025 
Q 1153 3394 1769 3394 
Q 2453 3394 2887 2945 
Q 3322 2497 3322 1706 
Q 3322 1066 3130 698 
Q 2938 331 2570 128 
Q 2203 -75 1769 -75 
Q 1072 -75 642 372 
Q 213 819 213 1659 
z
M 791 1659 
Q 791 1022 1069 705 
Q 1347 388 1769 388 
Q 2188 388 2466 706 
Q 2744 1025 2744 1678 
Q 2744 2294 2464 2611 
Q 2184 2928 1769 2928 
Q 1347 2928 1069 2612 
Q 791 2297 791 1659 
z
" transform="scale(0.015625)"/>
       <path id="ArialMT-67" d="M 319 -275 
L 866 -356 
Q 900 -609 1056 -725 
Q 1266 -881 1628 -881 
Q 2019 -881 2231 -725 
Q 2444 -569 2519 -288 
Q 2563 -116 2559 434 
Q 2191 0 1641 0 
Q 956 0 581 494 
Q 206 988 206 1678 
Q 206 2153 378 2554 
Q 550 2956 876 3175 
Q 1203 3394 1644 3394 
Q 2231 3394 2613 2919 
L 2613 3319 
L 3131 3319 
L 3131 450 
Q 3131 -325 2973 -648 
Q 2816 -972 2473 -1159 
Q 2131 -1347 1631 -1347 
Q 1038 -1347 672 -1080 
Q 306 -813 319 -275 
z
M 784 1719 
Q 784 1066 1043 766 
Q 1303 466 1694 466 
Q 2081 466 2343 764 
Q 2606 1063 2606 1700 
Q 2606 2309 2336 2618 
Q 2066 2928 1684 2928 
Q 1309 2928 1046 2623 
Q 784 2319 784 1719 
z
" transform="scale(0.015625)"/>
       <path id="DejaVuSans-31" d="M 794 531 
L 1825 531 
L 1825 4091 
L 703 3866 
L 703 4441 
L 1819 4666 
L 2450 4666 
L 2450 531 
L 3481 531 
L 3481 0 
L 794 0 
L 794 531 
z
" transform="scale(0.015625)"/>
       <path id="ArialMT-56" d="M 1803 0 
L 28 4581 
L 684 4581 
L 1875 1253 
Q 2019 853 2116 503 
Q 2222 878 2363 1253 
L 3600 4581 
L 4219 4581 
L 2425 0 
L 1803 0 
z
" transform="scale(0.015625)"/>
       <path id="ArialMT-72" d="M 416 0 
L 416 3319 
L 922 3319 
L 922 2816 
Q 1116 3169 1280 3281 
Q 1444 3394 1641 3394 
Q 1925 3394 2219 3213 
L 2025 2691 
Q 1819 2813 1613 2813 
Q 1428 2813 1281 2702 
Q 1134 2591 1072 2394 
Q 978 2094 978 1738 
L 978 0 
L 416 0 
z
" transform="scale(0.015625)"/>
       <path id="ArialMT-75" d="M 2597 0 
L 2597 488 
Q 2209 -75 1544 -75 
Q 1250 -75 995 37 
Q 741 150 617 320 
Q 494 491 444 738 
Q 409 903 409 1263 
L 409 3319 
L 972 3319 
L 972 1478 
Q 972 1038 1006 884 
Q 1059 663 1231 536 
Q 1403 409 1656 409 
Q 1909 409 2131 539 
Q 2353 669 2445 892 
Q 2538 1116 2538 1541 
L 2538 3319 
L 3100 3319 
L 3100 0 
L 2597 0 
z
" transform="scale(0.015625)"/>
       <path id="ArialMT-73" d="M 197 991 
L 753 1078 
Q 800 744 1014 566 
Q 1228 388 1613 388 
Q 2000 388 2187 545 
Q 2375 703 2375 916 
Q 2375 1106 2209 1216 
Q 2094 1291 1634 1406 
Q 1016 1563 777 1677 
Q 538 1791 414 1992 
Q 291 2194 291 2438 
Q 291 2659 392 2848 
Q 494 3038 669 3163 
Q 800 3259 1026 3326 
Q 1253 3394 1513 3394 
Q 1903 3394 2198 3281 
Q 2494 3169 2634 2976 
Q 2775 2784 2828 2463 
L 2278 2388 
Q 2241 2644 2061 2787 
Q 1881 2931 1553 2931 
Q 1166 2931 1000 2803 
Q 834 2675 834 2503 
Q 834 2394 903 2306 
Q 972 2216 1119 2156 
Q 1203 2125 1616 2013 
Q 2213 1853 2448 1751 
Q 2684 1650 2818 1456 
Q 2953 1263 2953 975 
Q 2953 694 2789 445 
Q 2625 197 2315 61 
Q 2006 -75 1616 -75 
Q 969 -75 630 194 
Q 291 463 197 991 
z
" transform="scale(0.015625)"/>
       <path id="ArialMT-63" d="M 2588 1216 
L 3141 1144 
Q 3050 572 2676 248 
Q 2303 -75 1759 -75 
Q 1078 -75 664 370 
Q 250 816 250 1647 
Q 250 2184 428 2587 
Q 606 2991 970 3192 
Q 1334 3394 1763 3394 
Q 2303 3394 2647 3120 
Q 2991 2847 3088 2344 
L 2541 2259 
Q 2463 2594 2264 2762 
Q 2066 2931 1784 2931 
Q 1359 2931 1093 2626 
Q 828 2322 828 1663 
Q 828 994 1084 691 
Q 1341 388 1753 388 
Q 2084 388 2306 591 
Q 2528 794 2588 1216 
z
" transform="scale(0.015625)"/>
       <path id="ArialMT-70" d="M 422 -1272 
L 422 3319 
L 934 3319 
L 934 2888 
Q 1116 3141 1344 3267 
Q 1572 3394 1897 3394 
Q 2322 3394 2647 3175 
Q 2972 2956 3137 2557 
Q 3303 2159 3303 1684 
Q 3303 1175 3120 767 
Q 2938 359 2589 142 
Q 2241 -75 1856 -75 
Q 1575 -75 1351 44 
Q 1128 163 984 344 
L 984 -1272 
L 422 -1272 
z
M 931 1641 
Q 931 1000 1190 694 
Q 1450 388 1819 388 
Q 2194 388 2461 705 
Q 2728 1022 2728 1688 
Q 2728 2322 2467 2637 
Q 2206 2953 1844 2953 
Q 1484 2953 1207 2617 
Q 931 2281 931 1641 
z
" transform="scale(0.015625)"/>
       <path id="ArialMT-2f" d="M 0 -78 
L 1328 4659 
L 1778 4659 
L 453 -78 
L 0 -78 
z
" transform="scale(0.015625)"/>
      </defs>
      <use xlink:href="#ArialMT-4c" transform="translate(0 0.203125)"/>
      <use xlink:href="#ArialMT-6f" transform="translate(55.615234 0.203125)"/>
      <use xlink:href="#ArialMT-67" transform="translate(111.230469 0.203125)"/>
      <use xlink:href="#DejaVuSans-31" transform="translate(167.802734 -16.203125) scale(0.7)"/>
      <use xlink:href="#DejaVuSans-30" transform="translate(212.338867 -16.203125) scale(0.7)"/>
      <use xlink:href="#ArialMT-20" transform="translate(259.609375 0.203125)"/>
      <use xlink:href="#ArialMT-56" transform="translate(287.392578 0.203125)"/>
      <use xlink:href="#ArialMT-69" transform="translate(354.091797 0.203125)"/>
      <use xlink:href="#ArialMT-72" transform="translate(376.308594 0.203125)"/>
      <use xlink:href="#ArialMT-75" transform="translate(409.609375 0.203125)"/>
      <use xlink:href="#ArialMT-73" transform="translate(465.224609 0.203125)"/>
      <use xlink:href="#ArialMT-20" transform="translate(515.224609 0.203125)"/>
      <use xlink:href="#ArialMT-28" transform="translate(543.007812 0.203125)"/>
      <use xlink:href="#ArialMT-63" transform="translate(576.308594 0.203125)"/>
      <use xlink:href="#ArialMT-6f" transform="translate(626.308594 0.203125)"/>
      <use xlink:href="#ArialMT-70" transform="translate(681.923828 0.203125)"/>
      <use xlink:href="#ArialMT-69" transform="translate(737.539062 0.203125)"/>
      <use xlink:href="#ArialMT-65" transform="translate(759.755859 0.203125)"/>
      <use xlink:href="#ArialMT-73" transform="translate(815.371094 0.203125)"/>
      <use xlink:href="#ArialMT-2f" transform="translate(865.371094 0.203125)"/>
      <use xlink:href="#ArialMT-6d" transform="translate(893.154297 0.203125)"/>
      <use xlink:href="#ArialMT-4c" transform="translate(976.455078 0.203125)"/>
      <use xlink:href="#ArialMT-29" transform="translate(1032.070312 0.203125)"/>
     </g>
    </g>
   </g>
   <g id="patch_3">
    <path d="M 180 320.4 
L 180 43.2 
" style="fill: none; stroke: #000000; stroke-width: 0.8; stroke-linejoin: miter; stroke-linecap: square"/>
   </g>
   <g id="patch_4">
    <path d="M 407.755102 320.4 
L 407.755102 43.2 
" style="fill: none; stroke: #000000; stroke-width: 0.8; stroke-linejoin: miter; stroke-linecap: square"/>
   </g>
   <g id="patch_5">
    <path d="M 180 320.4 
L 407.755102 320.4 
" style="fill: none; stroke: #000000; stroke-width: 0.8; stroke-linejoin: miter; stroke-linecap: square"/>
   </g>
   <g id="patch_6">
    <path d="M 180 43.2 
L 407.755102 43.2 
" style="fill: none; stroke: #000000; stroke-width: 0.8; stroke-linejoin: miter; stroke-linecap: square"/>
   </g>
   <g id="FillBetweenPolyCollection_1">
    <defs>
     <path id="m4155eaa8cc" d="M 186.698679 -39.6 
L 186.698679 -39.6 
L 186.698983 -39.6 
L 186.702014 -39.6 
L 186.732328 -39.6 
L 186.893615 -39.6 
L 186.996604 -39.6 
L 187.390402 -39.6 
L 187.627287 -41.280339 
L 188.433929 -56.499226 
L 188.903306 -61.918821 
L 190.297235 -72.703273 
L 190.941828 -76.484429 
L 192.41138 -84.313834 
L 193.176474 -88.189174 
L 194.660291 -95.684554 
L 195.51883 -99.951823 
L 197.013572 -107.27795 
L 197.944388 -111.820046 
L 199.438603 -119.147953 
L 200.424953 -123.964437 
L 201.914441 -131.269068 
L 202.941456 -136.285815 
L 204.422954 -143.550115 
L 205.478545 -148.707427 
L 207.096238 -156.651312 
L 208.135153 -161.727267 
L 209.565666 -168.734233 
L 210.644732 -174.004389 
L 212.203438 -181.51877 
L 213.279374 -186.677466 
L 214.739017 -193.678584 
L 215.842797 -198.96046 
L 217.41779 -206.499169 
L 218.514671 -211.728733 
L 219.998486 -218.773739 
L 221.125188 -224.090816 
L 222.733333 -231.605907 
L 223.868296 -236.839424 
L 225.614967 -244.674049 
L 226.754307 -249.63344 
L 228.358415 -256.191189 
L 229.554637 -260.778214 
L 231.309324 -266.66535 
L 232.534416 -270.286024 
L 234.282951 -274.119396 
L 235.562339 -275.940993 
L 237.128823 -277.156869 
L 238.323688 -277.692818 
L 239.572983 -277.997224 
L 240.65863 -278.081262 
L 241.762718 -278.038044 
L 242.634006 -277.920477 
L 243.465455 -277.754444 
L 244.18725 -277.570469 
L 244.915704 -277.354929 
L 245.519766 -277.147469 
L 246.764046 -276.683698 
L 247.486796 -276.377858 
L 248.832699 -275.770149 
L 249.662265 -275.362624 
L 251.083577 -274.628806 
L 252.018952 -274.116762 
L 253.544554 -273.249021 
L 254.609174 -272.616799 
L 256.401792 -271.51852 
L 257.676181 -270.709965 
L 260.013521 -269.187198 
L 261.654166 -268.085191 
L 264.333638 -266.243696 
L 266.290949 -264.867325 
L 268.970421 -262.912814 
L 271.649892 -260.834553 
L 274.329364 -258.718671 
L 277.008836 -256.566352 
L 279.688308 -254.377809 
L 282.36778 -252.077042 
L 285.047251 -249.700332 
L 287.726723 -247.286361 
L 290.406195 -244.833059 
L 293.085667 -242.337512 
L 295.765139 -239.795826 
L 298.44461 -237.202924 
L 301.124082 -234.552286 
L 303.803554 -231.835582 
L 306.483026 -229.042161 
L 309.162497 -226.046091 
L 311.841969 -222.898614 
L 314.521441 -219.592803 
L 317.200913 -216.086317 
L 319.880385 -212.318241 
L 322.559856 -207.700869 
L 325.239328 -201.853549 
L 327.9188 -194.079201 
L 330.598272 -182.538871 
L 333.277744 -156.61672 
L 335.957215 -125.920631 
L 336.49311 -119.713025 
L 336.877802 -115.256661 
L 337.089222 -112.805814 
L 337.219924 -111.29068 
L 337.223459 -111.249695 
L 337.258815 -110.839844 
L 337.299285 -110.370697 
L 337.364235 -109.617782 
L 337.429185 -108.864866 
L 337.516776 -107.849484 
L 337.60497 -106.827111 
L 337.731823 -105.356586 
L 337.923648 -103.131946 
L 338.642747 -94.739272 
L 339.151162 -88.805717 
L 340.200928 -76.556834 
L 340.879954 -68.619109 
L 342.142992 -53.858599 
L 342.953472 -45.831972 
L 344.323241 -39.6 
L 345.23138 -39.6 
L 346.641355 -39.6 
L 347.623398 -39.6 
L 349.04878 -39.6 
L 350.101649 -39.6 
L 351.593107 -39.6 
L 352.797622 -39.6 
L 354.65681 -39.6 
L 356.515997 -39.6 
L 359.195469 -39.6 
L 361.874941 -39.6 
L 364.554413 -39.6 
L 367.233884 -39.6 
L 369.913356 -39.6 
L 372.592828 -39.6 
L 375.2723 -39.6 
L 377.951772 -39.6 
L 380.631243 -39.6 
L 383.310715 -39.6 
L 385.990187 -39.6 
L 388.669659 -39.6 
L 391.349131 -39.6 
L 394.028602 -39.6 
L 396.708074 -39.6 
L 399.387546 -39.6 
L 401.056423 -39.6 
L 401.056423 -39.6 
L 401.056423 -39.6 
L 399.387546 -39.6 
L 396.708074 -39.6 
L 394.028602 -39.6 
L 391.349131 -39.6 
L 388.669659 -39.6 
L 385.990187 -39.6 
L 383.310715 -39.6 
L 380.631243 -39.6 
L 377.951772 -39.6 
L 375.2723 -39.6 
L 372.592828 -39.6 
L 369.913356 -39.6 
L 367.233884 -39.6 
L 364.554413 -39.6 
L 361.874941 -39.6 
L 359.195469 -39.6 
L 356.515997 -39.6 
L 354.65681 -39.6 
L 352.797622 -39.6 
L 351.593107 -39.6 
L 350.101649 -39.6 
L 349.04878 -41.201887 
L 347.623398 -51.261233 
L 346.641355 -63.225543 
L 345.23138 -81.384741 
L 344.323241 -93.099043 
L 342.953472 -113.110418 
L 342.142992 -125.607255 
L 340.879954 -144.782603 
L 340.200928 -154.890126 
L 339.151162 -167.747517 
L 338.642747 -171.548844 
L 337.923648 -176.888188 
L 337.731823 -178.092678 
L 337.60497 -178.640001 
L 337.516776 -179.020524 
L 337.429185 -179.398445 
L 337.364235 -179.678678 
L 337.299285 -179.95891 
L 337.258815 -180.133524 
L 337.223459 -180.286069 
L 337.219924 -180.301324 
L 337.089222 -180.86525 
L 336.877802 -181.777446 
L 336.49311 -183.437241 
L 335.957215 -185.749416 
L 333.277744 -194.488619 
L 330.598272 -200.738656 
L 327.9188 -205.769917 
L 325.239328 -210.356521 
L 322.559856 -214.812104 
L 319.880385 -218.76005 
L 317.200913 -222.348458 
L 314.521441 -225.669855 
L 311.841969 -228.785762 
L 309.162497 -231.739034 
L 306.483026 -234.572831 
L 303.803554 -237.302687 
L 301.124082 -239.939391 
L 298.44461 -242.496146 
L 295.765139 -244.983167 
L 293.085667 -247.4084 
L 290.406195 -249.778033 
L 287.726723 -252.096875 
L 285.047251 -254.406445 
L 282.36778 -256.684294 
L 279.688308 -258.921871 
L 277.008836 -261.12027 
L 274.329364 -263.279772 
L 271.649892 -265.399702 
L 268.970421 -267.478137 
L 266.290949 -269.547722 
L 264.333638 -271.085253 
L 261.654166 -273.142041 
L 260.013521 -274.359626 
L 257.676181 -276.050284 
L 256.401792 -276.932101 
L 254.609174 -278.133493 
L 253.544554 -278.809272 
L 252.018952 -279.7422 
L 251.083577 -280.275203 
L 249.662265 -281.071494 
L 248.832699 -281.49142 
L 247.486796 -282.129357 
L 246.764046 -282.433718 
L 245.519766 -282.885655 
L 244.915704 -283.066902 
L 244.18725 -283.248158 
L 243.465455 -283.38457 
L 242.634006 -283.492683 
L 241.762718 -283.535566 
L 240.65863 -283.445189 
L 239.572983 -283.19115 
L 238.323688 -282.673708 
L 237.128823 -281.994648 
L 235.562339 -280.804065 
L 234.282951 -279.447353 
L 232.534416 -276.606115 
L 231.309324 -274.00984 
L 229.554637 -269.081809 
L 228.358415 -265.141693 
L 226.754307 -258.974174 
L 225.614967 -254.224943 
L 223.868296 -246.34381 
L 222.733333 -241.030636 
L 221.125188 -233.242533 
L 219.998486 -227.706394 
L 218.514671 -220.318176 
L 217.41779 -214.828304 
L 215.842797 -206.885354 
L 214.739017 -201.314664 
L 213.279374 -193.924318 
L 212.203438 -188.480698 
L 210.644732 -180.564157 
L 209.565666 -175.0963 
L 208.135153 -167.833354 
L 207.096238 -162.570287 
L 205.478545 -154.335516 
L 204.422954 -148.984316 
L 202.941456 -141.452527 
L 201.914441 -136.249219 
L 200.424953 -128.675054 
L 199.438603 -123.679755 
L 197.944388 -116.080829 
L 197.013572 -111.370329 
L 195.51883 -103.772378 
L 194.660291 -99.434717 
L 193.176474 -91.978219 
L 192.41138 -88.186605 
L 190.941828 -80.447363 
L 190.297235 -76.550364 
L 188.903306 -65.472005 
L 188.433929 -59.793515 
L 187.627287 -44.324677 
L 187.390402 -39.862724 
L 186.996604 -39.6 
L 186.893615 -39.6 
L 186.732328 -39.6 
L 186.702014 -39.6 
L 186.698983 -39.6 
L 186.698679 -39.6 
z
" style="stroke: #0000cd; stroke-opacity: 0.2"/>
    </defs>
    <g clip-path="url(#pcd1fc0120c)">
     <use xlink:href="#m4155eaa8cc" x="0" y="360" style="fill: #0000cd; fill-opacity: 0.2; stroke: #0000cd; stroke-opacity: 0.2"/>
    </g>
   </g>
   <g id="PathCollection_1">
    <defs>
     <path id="mb2ca8046a0" d="M 0 7.071068 
C 1.875269 7.071068 3.673985 6.326016 5 5 
C 6.326016 3.673985 7.071068 1.875269 7.071068 0 
C 7.071068 -1.875269 6.326016 -3.673985 5 -5 
C 3.673985 -6.326016 1.875269 -7.071068 0 -7.071068 
C -1.875269 -7.071068 -3.673985 -6.326016 -5 -5 
C -6.326016 -3.673985 -7.071068 -1.875269 -7.071068 0 
C -7.071068 1.875269 -6.326016 3.673985 -5 5 
C -3.673985 6.326016 -1.875269 7.071068 0 7.071068 
z
" style="stroke: #000000; stroke-opacity: 0.8"/>
    </defs>
    <g clip-path="url(#pcd1fc0120c)">
     <use xlink:href="#mb2ca8046a0" x="186.698679" y="320.4" style="fill-opacity: 0.8; stroke: #000000; stroke-opacity: 0.8"/>
     <use xlink:href="#mb2ca8046a0" x="213.493397" y="172.90973" style="fill-opacity: 0.8; stroke: #000000; stroke-opacity: 0.8"/>
     <use xlink:href="#mb2ca8046a0" x="240.288115" y="66.300562" style="fill-opacity: 0.8; stroke: #000000; stroke-opacity: 0.8"/>
     <use xlink:href="#mb2ca8046a0" x="267.082833" y="100.407178" style="fill-opacity: 0.8; stroke: #000000; stroke-opacity: 0.8"/>
     <use xlink:href="#mb2ca8046a0" x="293.877551" y="121.986163" style="fill-opacity: 0.8; stroke: #000000; stroke-opacity: 0.8"/>
     <use xlink:href="#mb2ca8046a0" x="320.672269" y="138.842496" style="fill-opacity: 0.8; stroke: #000000; stroke-opacity: 0.8"/>
     <use xlink:href="#mb2ca8046a0" x="347.466987" y="320.4" style="fill-opacity: 0.8; stroke: #000000; stroke-opacity: 0.8"/>
     <use xlink:href="#mb2ca8046a0" x="374.261705" y="320.4" style="fill-opacity: 0.8; stroke: #000000; stroke-opacity: 0.8"/>
    </g>
   </g>
   <g id="line2d_11">
    <path d="M 186.698679 320.4 
L 187.390402 320.4 
L 188.903306 295.182735 
L 190.297235 284.211072 
L 190.941828 280.405439 
L 193.176474 268.827392 
L 218.514671 143.581341 
L 223.868296 117.919107 
L 226.754307 105.114913 
L 228.358415 98.694385 
L 229.554637 94.372578 
L 231.309324 88.934421 
L 232.534416 85.829517 
L 234.282951 82.429351 
L 235.562339 80.643753 
L 237.128823 79.15678 
L 238.323688 78.447269 
L 239.572983 78.018555 
L 240.65863 77.855832 
L 242.634006 77.943995 
L 244.18725 78.278235 
L 245.519766 78.70548 
L 247.486796 79.519263 
L 249.662265 80.615078 
L 253.544554 82.929859 
L 257.676181 85.731267 
L 261.654166 88.642657 
L 268.970421 94.35245 
L 277.008836 100.993202 
L 285.047251 107.952614 
L 293.085667 115.248429 
L 298.44461 120.340305 
L 303.803554 125.671802 
L 309.162497 131.328468 
L 314.521441 137.454875 
L 317.200913 140.768495 
L 319.880385 144.313109 
L 322.559856 148.165257 
L 325.239328 152.444595 
L 327.9188 157.353546 
L 330.598272 163.276485 
L 333.277744 171.092972 
L 335.957215 183.685969 
L 336.877802 191.116818 
L 337.923648 202.771814 
L 344.323241 277.798506 
L 347.623398 316.732279 
L 349.04878 320.4 
L 401.056423 320.4 
L 401.056423 320.4 
" clip-path="url(#pcd1fc0120c)" style="fill: none; stroke: #0000cd; stroke-width: 3; stroke-linecap: square"/>
   </g>
  </g>
  <g id="axes_2">
   <g id="patch_7">
    <path d="M 476.081633 320.4 
L 703.836735 320.4 
L 703.836735 43.2 
L 476.081633 43.2 
L 476.081633 320.4 
z
" style="fill: none"/>
   </g>
   <g id="matplotlib.axis_3">
    <g id="xtick_6">
     <g id="line2d_12">
      <g>
       <use xlink:href="#m6533cc712d" x="482.780312" y="320.4" style="stroke: #000000; stroke-width: 0.8"/>
      </g>
     </g>
     <g id="text_13">
      <!-- 0 -->
      <g transform="translate(472.854812 351.107125) scale(0.312 -0.312)">
       <use xlink:href="#DejaVuSans-30"/>
      </g>
     </g>
    </g>
    <g id="xtick_7">
     <g id="line2d_13">
      <g>
       <use xlink:href="#m6533cc712d" x="536.369748" y="320.4" style="stroke: #000000; stroke-width: 0.8"/>
      </g>
     </g>
     <g id="text_14">
      <!-- 2 -->
      <g transform="translate(526.444248 351.107125) scale(0.312 -0.312)">
       <use xlink:href="#DejaVuSans-32"/>
      </g>
     </g>
    </g>
    <g id="xtick_8">
     <g id="line2d_14">
      <g>
       <use xlink:href="#m6533cc712d" x="589.959184" y="320.4" style="stroke: #000000; stroke-width: 0.8"/>
      </g>
     </g>
     <g id="text_15">
      <!-- 4 -->
      <g transform="translate(580.033684 351.107125) scale(0.312 -0.312)">
       <use xlink:href="#DejaVuSans-34"/>
      </g>
     </g>
    </g>
    <g id="xtick_9">
     <g id="line2d_15">
      <g>
       <use xlink:href="#m6533cc712d" x="643.548619" y="320.4" style="stroke: #000000; stroke-width: 0.8"/>
      </g>
     </g>
     <g id="text_16">
      <!-- 6 -->
      <g transform="translate(633.623119 351.107125) scale(0.312 -0.312)">
       <use xlink:href="#DejaVuSans-36"/>
      </g>
     </g>
    </g>
    <g id="xtick_10">
     <g id="line2d_16">
      <g>
       <use xlink:href="#m6533cc712d" x="697.138055" y="320.4" style="stroke: #000000; stroke-width: 0.8"/>
      </g>
     </g>
     <g id="text_17">
      <!-- 8 -->
      <g transform="translate(687.212555 351.107125) scale(0.312 -0.312)">
       <use xlink:href="#DejaVuSans-38"/>
      </g>
     </g>
    </g>
    <g id="text_18">
     <!-- Time (d) -->
     <g transform="translate(537.272621 382.415656) scale(0.286 -0.286)">
      <use xlink:href="#ArialMT-54"/>
      <use xlink:href="#ArialMT-69" transform="translate(57.333984 0)"/>
      <use xlink:href="#ArialMT-6d" transform="translate(79.550781 0)"/>
      <use xlink:href="#ArialMT-65" transform="translate(162.851562 0)"/>
      <use xlink:href="#ArialMT-20" transform="translate(218.466797 0)"/>
      <use xlink:href="#ArialMT-28" transform="translate(246.25 0)"/>
      <use xlink:href="#ArialMT-64" transform="translate(279.550781 0)"/>
      <use xlink:href="#ArialMT-29" transform="translate(335.166016 0)"/>
     </g>
    </g>
   </g>
   <g id="matplotlib.axis_4">
    <g id="ytick_6">
     <g id="line2d_17">
      <g>
       <use xlink:href="#md45d9831b0" x="476.081633" y="258.8" style="stroke: #000000; stroke-width: 0.8"/>
      </g>
     </g>
     <g id="text_19">
      <!-- 4 -->
      <g transform="translate(449.230633 270.653562) scale(0.312 -0.312)">
       <use xlink:href="#DejaVuSans-34"/>
      </g>
     </g>
    </g>
    <g id="ytick_7">
     <g id="line2d_18">
      <g>
       <use xlink:href="#md45d9831b0" x="476.081633" y="135.6" style="stroke: #000000; stroke-width: 0.8"/>
      </g>
     </g>
     <g id="text_20">
      <!-- 6 -->
      <g transform="translate(449.230633 147.453563) scale(0.312 -0.312)">
       <use xlink:href="#DejaVuSans-36"/>
      </g>
     </g>
    </g>
    <g id="text_21">
     <!-- Log$_{10}$ CD8$^+$ T cells -->
     <g transform="translate(438.938633 309.642) rotate(-90) scale(0.286 -0.286)">
      <defs>
       <path id="ArialMT-43" d="M 3763 1606 
L 4369 1453 
Q 4178 706 3683 314 
Q 3188 -78 2472 -78 
Q 1731 -78 1267 223 
Q 803 525 561 1097 
Q 319 1669 319 2325 
Q 319 3041 592 3573 
Q 866 4106 1370 4382 
Q 1875 4659 2481 4659 
Q 3169 4659 3637 4309 
Q 4106 3959 4291 3325 
L 3694 3184 
Q 3534 3684 3231 3912 
Q 2928 4141 2469 4141 
Q 1941 4141 1586 3887 
Q 1231 3634 1087 3207 
Q 944 2781 944 2328 
Q 944 1744 1114 1308 
Q 1284 872 1643 656 
Q 2003 441 2422 441 
Q 2931 441 3284 734 
Q 3638 1028 3763 1606 
z
" transform="scale(0.015625)"/>
       <path id="ArialMT-44" d="M 494 0 
L 494 4581 
L 2072 4581 
Q 2606 4581 2888 4516 
Q 3281 4425 3559 4188 
Q 3922 3881 4101 3404 
Q 4281 2928 4281 2316 
Q 4281 1794 4159 1391 
Q 4038 988 3847 723 
Q 3656 459 3429 307 
Q 3203 156 2883 78 
Q 2563 0 2147 0 
L 494 0 
z
M 1100 541 
L 2078 541 
Q 2531 541 2789 625 
Q 3047 709 3200 863 
Q 3416 1078 3536 1442 
Q 3656 1806 3656 2325 
Q 3656 3044 3420 3430 
Q 3184 3816 2847 3947 
Q 2603 4041 2063 4041 
L 1100 4041 
L 1100 541 
z
" transform="scale(0.015625)"/>
       <path id="ArialMT-38" d="M 1131 2484 
Q 781 2613 612 2850 
Q 444 3088 444 3419 
Q 444 3919 803 4259 
Q 1163 4600 1759 4600 
Q 2359 4600 2725 4251 
Q 3091 3903 3091 3403 
Q 3091 3084 2923 2848 
Q 2756 2613 2416 2484 
Q 2838 2347 3058 2040 
Q 3278 1734 3278 1309 
Q 3278 722 2862 322 
Q 2447 -78 1769 -78 
Q 1091 -78 675 323 
Q 259 725 259 1325 
Q 259 1772 486 2073 
Q 713 2375 1131 2484 
z
M 1019 3438 
Q 1019 3113 1228 2906 
Q 1438 2700 1772 2700 
Q 2097 2700 2305 2904 
Q 2513 3109 2513 3406 
Q 2513 3716 2298 3927 
Q 2084 4138 1766 4138 
Q 1444 4138 1231 3931 
Q 1019 3725 1019 3438 
z
M 838 1322 
Q 838 1081 952 856 
Q 1066 631 1291 507 
Q 1516 384 1775 384 
Q 2178 384 2440 643 
Q 2703 903 2703 1303 
Q 2703 1709 2433 1975 
Q 2163 2241 1756 2241 
Q 1359 2241 1098 1978 
Q 838 1716 838 1322 
z
" transform="scale(0.015625)"/>
       <path id="DejaVuSans-2b" d="M 2944 4013 
L 2944 2272 
L 4684 2272 
L 4684 1741 
L 2944 1741 
L 2944 0 
L 2419 0 
L 2419 1741 
L 678 1741 
L 678 2272 
L 2419 2272 
L 2419 4013 
L 2944 4013 
z
" transform="scale(0.015625)"/>
       <path id="ArialMT-6c" d="M 409 0 
L 409 4581 
L 972 4581 
L 972 0 
L 409 0 
z
" transform="scale(0.015625)"/>
      </defs>
      <use xlink:href="#ArialMT-4c" transform="translate(0 0.826562)"/>
      <use xlink:href="#ArialMT-6f" transform="translate(55.615234 0.826562)"/>
      <use xlink:href="#ArialMT-67" transform="translate(111.230469 0.826562)"/>
      <use xlink:href="#DejaVuSans-31" transform="translate(167.802734 -15.579688) scale(0.7)"/>
      <use xlink:href="#DejaVuSans-30" transform="translate(212.338867 -15.579688) scale(0.7)"/>
      <use xlink:href="#ArialMT-20" transform="translate(259.609375 0.826562)"/>
      <use xlink:href="#ArialMT-43" transform="translate(287.392578 0.826562)"/>
      <use xlink:href="#ArialMT-44" transform="translate(359.609375 0.826562)"/>
      <use xlink:href="#ArialMT-38" transform="translate(431.826172 0.826562)"/>
      <use xlink:href="#DejaVuSans-2b" transform="translate(502.036133 39.107812) scale(0.7)"/>
      <use xlink:href="#ArialMT-20" transform="translate(577.060547 0.826562)"/>
      <use xlink:href="#ArialMT-54" transform="translate(604.84375 0.826562)"/>
      <use xlink:href="#ArialMT-20" transform="translate(665.927734 0.826562)"/>
      <use xlink:href="#ArialMT-63" transform="translate(693.710938 0.826562)"/>
      <use xlink:href="#ArialMT-65" transform="translate(743.710938 0.826562)"/>
      <use xlink:href="#ArialMT-6c" transform="translate(799.326172 0.826562)"/>
      <use xlink:href="#ArialMT-6c" transform="translate(821.542969 0.826562)"/>
      <use xlink:href="#ArialMT-73" transform="translate(843.759766 0.826562)"/>
     </g>
    </g>
   </g>
   <g id="patch_8">
    <path d="M 476.081633 320.4 
L 476.081633 43.2 
" style="fill: none; stroke: #000000; stroke-width: 0.8; stroke-linejoin: miter; stroke-linecap: square"/>
   </g>
   <g id="patch_9">
    <path d="M 703.836735 320.4 
L 703.836735 43.2 
" style="fill: none; stroke: #000000; stroke-width: 0.8; stroke-linejoin: miter; stroke-linecap: square"/>
   </g>
   <g id="patch_10">
    <path d="M 476.081633 320.4 
L 703.836735 320.4 
" style="fill: none; stroke: #000000; stroke-width: 0.8; stroke-linejoin: miter; stroke-linecap: square"/>
   </g>
   <g id="patch_11">
    <path d="M 476.081633 43.2 
L 703.836735 43.2 
" style="fill: none; stroke: #000000; stroke-width: 0.8; stroke-linejoin: miter; stroke-linecap: square"/>
   </g>
   <g id="FillBetweenPolyCollection_2">
    <defs>
     <path id="m7db2191db0" d="M 482.780312 -174.787511 
L 482.780312 -174.787511 
L 482.780615 -174.787511 
L 482.783647 -174.787511 
L 482.813961 -174.787511 
L 482.975247 -174.787511 
L 483.078237 -174.787511 
L 483.472035 -174.787511 
L 483.70892 -174.787511 
L 484.515562 -174.787511 
L 484.984939 -174.787511 
L 486.378868 -174.787511 
L 487.02346 -174.787511 
L 488.493012 -174.787511 
L 489.258107 -174.787511 
L 490.741923 -174.787511 
L 491.600462 -174.787511 
L 493.095205 -174.787511 
L 494.02602 -174.787511 
L 495.520235 -174.787511 
L 496.506586 -174.787511 
L 497.996073 -174.787512 
L 499.023089 -174.787513 
L 500.504587 -174.787516 
L 501.560178 -174.787519 
L 503.17787 -174.78753 
L 504.216786 -174.78754 
L 505.647299 -174.787565 
L 506.726365 -174.787594 
L 508.28507 -174.787662 
L 509.361006 -174.787733 
L 510.820649 -174.787887 
L 511.92443 -174.78806 
L 513.499423 -174.788459 
L 514.596304 -174.788869 
L 516.080119 -174.789755 
L 517.206821 -174.790744 
L 518.814966 -174.793053 
L 519.949928 -174.795469 
L 521.696599 -174.801787 
L 522.835939 -174.807939 
L 524.440048 -174.822284 
L 525.63627 -174.838309 
L 527.390956 -174.878347 
L 528.616048 -174.920771 
L 530.364584 -175.024007 
L 531.643972 -175.138787 
L 533.210455 -175.366154 
L 534.405321 -175.616272 
L 535.654616 -175.99758 
L 536.740263 -176.447001 
L 537.84435 -177.064258 
L 538.715638 -177.672833 
L 539.547088 -178.393005 
L 540.268883 -179.129951 
L 540.997336 -180.004276 
L 541.601399 -180.821398 
L 542.845679 -182.881021 
L 543.568429 -184.197811 
L 544.914331 -187.1644 
L 545.743898 -189.152526 
L 547.16521 -193.024335 
L 548.100584 -195.723175 
L 549.626186 -200.424378 
L 550.690806 -203.785004 
L 552.483425 -209.491299 
L 553.757814 -213.488929 
L 556.095154 -220.434535 
L 557.735799 -224.99787 
L 560.41527 -231.607647 
L 562.372581 -235.869045 
L 565.052053 -240.804397 
L 567.731525 -244.854619 
L 570.410997 -248.075432 
L 573.090469 -250.235319 
L 575.76994 -251.650946 
L 578.449412 -252.523384 
L 581.128884 -253.002461 
L 583.808356 -253.037757 
L 586.487828 -252.781909 
L 589.167299 -252.329973 
L 591.846771 -251.726195 
L 594.526243 -251.006579 
L 597.205715 -250.199907 
L 599.885187 -249.3288 
L 602.564658 -248.410758 
L 605.24413 -247.459124 
L 607.923602 -246.483941 
L 610.603074 -245.492684 
L 613.282545 -244.490865 
L 615.962017 -243.482522 
L 618.641489 -242.470596 
L 621.320961 -241.457228 
L 624.000433 -240.416112 
L 626.679904 -239.300628 
L 629.359376 -238.188014 
L 632.038848 -237.078752 
L 632.574742 -236.857279 
L 632.959434 -236.698379 
L 633.170855 -236.611195 
L 633.301556 -236.557298 
L 633.305092 -236.55584 
L 633.340447 -236.54126 
L 633.380918 -236.524571 
L 633.445868 -236.497788 
L 633.510817 -236.471005 
L 633.598408 -236.434885 
L 633.686602 -236.398516 
L 633.813456 -236.346205 
L 634.00528 -236.267163 
L 634.72438 -235.971078 
L 635.232795 -235.761921 
L 636.282561 -235.330624 
L 636.961587 -235.052018 
L 638.224625 -234.534659 
L 639.035105 -234.203339 
L 640.404874 -233.644276 
L 641.313012 -233.274431 
L 642.722988 -232.701435 
L 643.70503 -232.303166 
L 645.130413 -231.726641 
L 646.183282 -231.301654 
L 647.67474 -230.701426 
L 648.879255 -230.217876 
L 650.738442 -229.474299 
L 652.59763 -228.733559 
L 655.277102 -227.671842 
L 657.956574 -226.616438 
L 660.636045 -225.567952 
L 663.315517 -224.526643 
L 665.994989 -223.49275 
L 668.674461 -222.349177 
L 671.353932 -221.214092 
L 674.033404 -220.08922 
L 676.712876 -218.974904 
L 679.392348 -217.871489 
L 682.07182 -216.779321 
L 684.751291 -215.698747 
L 687.430763 -214.630116 
L 690.110235 -213.573773 
L 692.789707 -212.530065 
L 695.469179 -211.499333 
L 697.138055 -210.863743 
L 697.138055 -225.102352 
L 697.138055 -225.102352 
L 695.469179 -225.564982 
L 692.789707 -226.31053 
L 690.110235 -227.059641 
L 687.430763 -227.812231 
L 684.751291 -228.568219 
L 682.07182 -229.327526 
L 679.392348 -230.090071 
L 676.712876 -230.864439 
L 674.033404 -231.64702 
L 671.353932 -232.432716 
L 668.674461 -233.221446 
L 665.994989 -234.013133 
L 663.315517 -234.807697 
L 660.636045 -235.605062 
L 657.956574 -236.40515 
L 655.277102 -237.207882 
L 652.59763 -238.013138 
L 650.738442 -238.573238 
L 648.879255 -239.134668 
L 647.67474 -239.498988 
L 646.183282 -239.950732 
L 645.130413 -240.269974 
L 643.70503 -240.702865 
L 642.722988 -241.001381 
L 641.313012 -241.430596 
L 640.404874 -241.707299 
L 639.035105 -242.129039 
L 638.224625 -242.423999 
L 636.961587 -242.88412 
L 636.282561 -243.131734 
L 635.232795 -243.514863 
L 634.72438 -243.70054 
L 634.00528 -243.963322 
L 633.813456 -244.033451 
L 633.686602 -244.079831 
L 633.598408 -244.112079 
L 633.510817 -244.144112 
L 633.445868 -244.167865 
L 633.380918 -244.191618 
L 633.340447 -244.20642 
L 633.305092 -244.219352 
L 633.301556 -244.220645 
L 633.170855 -244.268458 
L 632.959434 -244.345805 
L 632.574742 -244.48657 
L 632.038848 -244.682801 
L 629.359376 -245.664933 
L 626.679904 -246.648425 
L 624.000433 -247.632786 
L 621.320961 -248.617149 
L 618.641489 -249.600323 
L 615.962017 -250.580661 
L 613.282545 -251.555885 
L 610.603074 -252.522843 
L 607.923602 -253.477191 
L 605.24413 -254.412979 
L 602.564658 -255.322125 
L 599.885187 -256.193764 
L 597.205715 -257.013459 
L 594.526243 -257.762289 
L 591.846771 -258.41583 
L 589.167299 -259.137316 
L 586.487828 -259.708023 
L 583.808356 -260.072939 
L 581.128884 -260.177138 
L 578.449412 -259.955745 
L 575.76994 -259.333482 
L 573.090469 -258.224565 
L 570.410997 -256.533068 
L 567.731525 -254.153999 
L 565.052053 -250.975544 
L 562.372581 -246.883434 
L 560.41527 -243.319302 
L 557.735799 -237.331424 
L 556.095154 -233.246305 
L 553.757814 -226.494506 
L 552.483425 -222.633757 
L 550.690806 -216.6939 
L 549.626186 -213.057317 
L 548.100584 -207.677384 
L 547.16521 -204.361072 
L 545.743898 -199.429894 
L 544.914331 -196.609904 
L 543.568429 -192.372644 
L 542.845679 -190.205982 
L 541.601399 -186.914225 
L 540.997336 -185.438928 
L 540.268883 -183.824779 
L 539.547088 -182.419522 
L 538.715638 -181.020992 
L 537.84435 -179.77196 
L 536.740263 -178.503729 
L 535.654616 -177.520003 
L 534.405321 -176.687555 
L 533.210455 -176.106916 
L 531.643972 -175.604747 
L 530.364584 -175.325563 
L 528.616048 -175.09716 
L 527.390956 -174.991058 
L 525.63627 -174.90347 
L 524.440048 -174.864096 
L 522.835939 -174.833017 
L 521.696599 -174.818214 
L 519.949928 -174.804953 
L 518.814966 -174.799225 
L 517.206821 -174.794433 
L 516.080119 -174.792185 
L 514.596304 -174.790368 
L 513.499423 -174.789457 
L 511.92443 -174.788656 
L 510.820649 -174.78828 
L 509.361006 -174.787972 
L 508.28507 -174.78782 
L 506.726365 -174.787685 
L 505.647299 -174.787623 
L 504.216786 -174.787574 
L 503.17787 -174.787551 
L 501.560178 -174.78753 
L 500.504587 -174.787522 
L 499.023089 -174.787516 
L 497.996073 -174.787513 
L 496.506586 -174.787512 
L 495.520235 -174.787511 
L 494.02602 -174.787511 
L 493.095205 -174.787511 
L 491.600462 -174.787511 
L 490.741923 -174.787511 
L 489.258107 -174.787511 
L 488.493012 -174.787511 
L 487.02346 -174.787511 
L 486.378868 -174.787511 
L 484.984939 -174.787511 
L 484.515562 -174.787511 
L 483.70892 -174.787511 
L 483.472035 -174.787511 
L 483.078237 -174.787511 
L 482.975247 -174.787511 
L 482.813961 -174.787511 
L 482.783647 -174.787511 
L 482.780615 -174.787511 
L 482.780312 -174.787511 
z
" style="stroke: #0000cd; stroke-opacity: 0.2"/>
    </defs>
    <g clip-path="url(#p48a0022562)">
     <use xlink:href="#m7db2191db0" x="0" y="360" style="fill: #0000cd; fill-opacity: 0.2; stroke: #0000cd; stroke-opacity: 0.2"/>
    </g>
   </g>
   <g id="FillBetweenPolyCollection_3">
    <defs>
     <path id="m3218915414" d="M 482.780312 -84.536508 
L 482.780312 -84.536508 
L 482.780615 -84.536508 
L 482.783647 -84.536508 
L 482.813961 -84.536508 
L 482.975247 -84.536508 
L 483.078237 -84.536508 
L 483.472035 -84.536508 
L 483.70892 -84.536508 
L 484.515562 -84.536508 
L 484.984939 -84.536508 
L 486.378868 -84.536508 
L 487.02346 -84.536508 
L 488.493012 -84.536508 
L 489.258107 -84.536508 
L 490.741923 -84.536508 
L 491.600462 -84.536508 
L 493.095205 -84.536508 
L 494.02602 -84.536508 
L 495.520235 -84.536508 
L 496.506586 -84.536508 
L 497.996073 -84.536508 
L 499.023089 -84.536508 
L 500.504587 -84.536508 
L 501.560178 -84.536508 
L 503.17787 -84.536508 
L 504.216786 -84.536508 
L 505.647299 -84.536508 
L 506.726365 -84.536508 
L 508.28507 -84.536508 
L 509.361006 -84.536508 
L 510.820649 -84.536508 
L 511.92443 -84.536508 
L 513.499423 -84.536508 
L 514.596304 -84.536508 
L 516.080119 -84.536508 
L 517.206821 -84.536508 
L 518.814966 -84.536508 
L 519.949928 -84.536509 
L 521.696599 -84.536509 
L 522.835939 -84.53651 
L 524.440048 -84.536511 
L 525.63627 -84.536513 
L 527.390956 -84.536518 
L 528.616048 -84.536523 
L 530.364584 -84.536535 
L 531.643972 -84.53655 
L 533.210455 -84.536579 
L 534.405321 -84.536615 
L 535.654616 -84.53667 
L 536.740263 -84.536742 
L 537.84435 -84.536844 
L 538.715638 -84.536957 
L 539.547088 -84.537098 
L 540.268883 -84.537258 
L 540.997336 -84.53746 
L 541.601399 -84.53769 
L 542.845679 -84.538271 
L 543.568429 -84.538789 
L 544.914331 -84.540033 
L 545.743898 -84.541217 
L 547.16521 -84.543901 
L 548.100584 -84.546678 
L 549.626186 -84.552946 
L 550.690806 -84.560033 
L 552.483425 -84.57724 
L 553.757814 -84.598331 
L 556.095154 -84.656809 
L 557.735799 -84.733631 
L 560.41527 -84.921883 
L 562.372581 -85.166583 
L 565.052053 -85.651543 
L 567.731525 -86.414782 
L 570.410997 -87.476456 
L 573.090469 -88.865839 
L 575.76994 -90.56671 
L 578.449412 -92.528264 
L 581.128884 -94.67835 
L 583.808356 -96.937198 
L 586.487828 -99.229051 
L 589.167299 -101.491494 
L 591.846771 -103.678582 
L 594.526243 -105.759927 
L 597.205715 -107.714901 
L 599.885187 -109.269741 
L 602.564658 -110.699111 
L 605.24413 -111.879452 
L 607.923602 -112.958666 
L 610.603074 -113.9632 
L 613.282545 -114.899342 
L 615.962017 -115.772951 
L 618.641489 -116.589398 
L 621.320961 -117.353566 
L 624.000433 -118.06986 
L 626.679904 -118.742247 
L 629.359376 -119.374288 
L 632.038848 -119.969862 
L 632.574742 -120.084713 
L 632.959434 -120.166282 
L 633.170855 -120.210778 
L 633.301556 -120.238198 
L 633.305092 -120.23894 
L 633.340447 -120.246357 
L 633.380918 -120.254818 
L 633.445868 -120.268332 
L 633.510817 -120.281846 
L 633.598408 -120.300071 
L 633.686602 -120.318422 
L 633.813456 -120.344816 
L 634.00528 -120.384386 
L 634.72438 -120.531449 
L 635.232795 -120.634319 
L 636.282561 -120.842627 
L 636.961587 -120.975091 
L 638.224625 -121.216258 
L 639.035105 -121.36762 
L 640.404874 -121.617874 
L 641.313012 -121.779696 
L 642.722988 -122.025241 
L 643.70503 -122.192027 
L 645.130413 -122.428223 
L 646.183282 -122.598437 
L 647.67474 -122.833423 
L 648.879255 -123.017661 
L 650.738442 -123.294235 
L 652.59763 -123.559416 
L 655.277102 -123.927489 
L 657.956574 -124.276912 
L 660.636045 -124.609185 
L 663.315517 -124.925228 
L 665.994989 -125.22601 
L 668.674461 -125.512428 
L 671.353932 -125.76006 
L 674.033404 -125.984186 
L 676.712876 -126.196714 
L 679.392348 -126.39833 
L 682.07182 -126.589669 
L 684.751291 -126.771324 
L 687.430763 -126.943844 
L 690.110235 -127.107745 
L 692.789707 -127.263504 
L 695.469179 -127.411572 
L 697.138055 -127.500919 
L 697.138055 -139.072151 
L 697.138055 -139.072151 
L 695.469179 -138.948689 
L 692.789707 -138.744953 
L 690.110235 -138.531924 
L 687.430763 -138.3091 
L 684.751291 -138.075948 
L 682.07182 -137.831892 
L 679.392348 -137.576313 
L 676.712876 -137.308547 
L 674.033404 -137.027882 
L 671.353932 -136.73355 
L 668.674461 -136.424723 
L 665.994989 -136.100507 
L 663.315517 -135.759932 
L 660.636045 -135.401947 
L 657.956574 -135.02541 
L 655.277102 -134.629075 
L 652.59763 -134.211586 
L 650.738442 -133.910719 
L 648.879255 -133.596478 
L 647.67474 -133.38686 
L 646.183282 -133.120221 
L 645.130413 -132.926008 
L 643.70503 -132.658004 
L 642.722988 -132.467086 
L 641.313012 -132.188332 
L 640.404874 -132.002701 
L 639.035105 -131.718322 
L 638.224625 -131.544542 
L 636.961587 -131.269914 
L 636.282561 -131.118056 
L 635.232795 -130.880401 
L 634.72438 -130.763109 
L 634.00528 -130.593983 
L 633.813456 -130.548859 
L 633.686602 -130.519018 
L 633.598408 -130.498127 
L 633.510817 -130.477164 
L 633.445868 -130.46162 
L 633.380918 -130.446075 
L 633.340447 -130.43639 
L 633.305092 -130.427928 
L 633.301556 -130.427082 
L 633.170855 -130.395764 
L 632.959434 -130.344709 
L 632.574742 -130.251333 
L 632.038848 -130.119815 
L 629.359376 -129.436205 
L 626.679904 -128.707386 
L 624.000433 -127.932112 
L 621.320961 -127.103923 
L 618.641489 -126.217649 
L 615.962017 -125.267475 
L 613.282545 -124.246869 
L 610.603074 -123.148522 
L 607.923602 -121.964309 
L 605.24413 -120.685295 
L 602.564658 -119.301804 
L 599.885187 -117.803622 
L 597.205715 -116.180363 
L 594.526243 -114.422111 
L 591.846771 -112.520433 
L 589.167299 -110.46989 
L 586.487828 -108.270172 
L 583.808356 -105.984532 
L 581.128884 -103.609986 
L 578.449412 -101.137629 
L 575.76994 -98.614028 
L 573.090469 -96.105042 
L 570.410997 -93.694742 
L 567.731525 -91.475542 
L 565.052053 -89.534108 
L 562.372581 -87.935536 
L 560.41527 -87.003522 
L 557.735799 -86.043126 
L 556.095154 -85.604584 
L 553.757814 -85.179638 
L 552.483425 -84.999089 
L 550.690806 -84.83252 
L 549.626186 -84.762009 
L 548.100584 -84.681475 
L 547.16521 -84.649625 
L 545.743898 -84.609654 
L 544.914331 -84.594368 
L 543.568429 -84.574023 
L 542.845679 -84.566868 
L 541.601399 -84.556569 
L 540.997336 -84.553223 
L 540.268883 -84.549462 
L 539.547088 -84.546768 
L 538.715638 -84.544324 
L 537.84435 -84.542378 
L 536.740263 -84.54057 
L 535.654616 -84.539343 
L 534.405321 -84.538385 
L 533.210455 -84.537764 
L 531.643972 -84.537264 
L 530.364584 -84.536997 
L 528.616048 -84.536785 
L 527.390956 -84.536688 
L 525.63627 -84.536609 
L 524.440048 -84.536574 
L 522.835939 -84.536547 
L 521.696599 -84.536534 
L 519.949928 -84.536522 
L 518.814966 -84.536517 
L 517.206821 -84.536513 
L 516.080119 -84.536511 
L 514.596304 -84.53651 
L 513.499423 -84.536509 
L 511.92443 -84.536509 
L 510.820649 -84.536509 
L 509.361006 -84.536508 
L 508.28507 -84.536508 
L 506.726365 -84.536508 
L 505.647299 -84.536508 
L 504.216786 -84.536508 
L 503.17787 -84.536508 
L 501.560178 -84.536508 
L 500.504587 -84.536508 
L 499.023089 -84.536508 
L 497.996073 -84.536508 
L 496.506586 -84.536508 
L 495.520235 -84.536508 
L 494.02602 -84.536508 
L 493.095205 -84.536508 
L 491.600462 -84.536508 
L 490.741923 -84.536508 
L 489.258107 -84.536508 
L 488.493012 -84.536508 
L 487.02346 -84.536508 
L 486.378868 -84.536508 
L 484.984939 -84.536508 
L 484.515562 -84.536508 
L 483.70892 -84.536508 
L 483.472035 -84.536508 
L 483.078237 -84.536508 
L 482.975247 -84.536508 
L 482.813961 -84.536508 
L 482.783647 -84.536508 
L 482.780615 -84.536508 
L 482.780312 -84.536508 
z
" style="stroke: #0000cd; stroke-opacity: 0.2"/>
    </defs>
    <g clip-path="url(#p48a0022562)">
     <use xlink:href="#m3218915414" x="0" y="360" style="fill: #0000cd; fill-opacity: 0.2; stroke: #0000cd; stroke-opacity: 0.2"/>
    </g>
   </g>
   <g id="PathCollection_2">
    <g clip-path="url(#p48a0022562)">
     <use xlink:href="#mb2ca8046a0" x="482.780312" y="185.212489" style="fill-opacity: 0.8; stroke: #000000; stroke-opacity: 0.8"/>
     <use xlink:href="#mb2ca8046a0" x="509.57503" y="199.675622" style="fill-opacity: 0.8; stroke: #000000; stroke-opacity: 0.8"/>
     <use xlink:href="#mb2ca8046a0" x="536.369748" y="167.502796" style="fill-opacity: 0.8; stroke: #000000; stroke-opacity: 0.8"/>
     <use xlink:href="#mb2ca8046a0" x="563.164466" y="119.697635" style="fill-opacity: 0.8; stroke: #000000; stroke-opacity: 0.8"/>
     <use xlink:href="#mb2ca8046a0" x="589.959184" y="110.894524" style="fill-opacity: 0.8; stroke: #000000; stroke-opacity: 0.8"/>
     <use xlink:href="#mb2ca8046a0" x="616.753902" y="110.359429" style="fill-opacity: 0.8; stroke: #000000; stroke-opacity: 0.8"/>
     <use xlink:href="#mb2ca8046a0" x="643.548619" y="118.634759" style="fill-opacity: 0.8; stroke: #000000; stroke-opacity: 0.8"/>
     <use xlink:href="#mb2ca8046a0" x="670.343337" y="134.437537" style="fill-opacity: 0.8; stroke: #000000; stroke-opacity: 0.8"/>
    </g>
   </g>
   <g id="PathCollection_3">
    <defs>
     <path id="mfdc1c1ce7e" d="M -7.071068 7.071068 
L 7.071068 7.071068 
L 7.071068 -7.071068 
L -7.071068 -7.071068 
z
" style="stroke: #000000; stroke-opacity: 0.8"/>
    </defs>
    <g clip-path="url(#p48a0022562)">
     <use xlink:href="#mfdc1c1ce7e" x="482.780312" y="275.462086" style="fill-opacity: 0.8; stroke: #000000; stroke-opacity: 0.8"/>
     <use xlink:href="#mfdc1c1ce7e" x="509.57503" y="278.555276" style="fill-opacity: 0.8; stroke: #000000; stroke-opacity: 0.8"/>
     <use xlink:href="#mfdc1c1ce7e" x="536.369748" y="278.275175" style="fill-opacity: 0.8; stroke: #000000; stroke-opacity: 0.8"/>
     <use xlink:href="#mfdc1c1ce7e" x="563.164466" y="250.144439" style="fill-opacity: 0.8; stroke: #000000; stroke-opacity: 0.8"/>
     <use xlink:href="#mfdc1c1ce7e" x="589.959184" y="250.53809" style="fill-opacity: 0.8; stroke: #000000; stroke-opacity: 0.8"/>
     <use xlink:href="#mfdc1c1ce7e" x="616.753902" y="240.780976" style="fill-opacity: 0.8; stroke: #000000; stroke-opacity: 0.8"/>
     <use xlink:href="#mfdc1c1ce7e" x="643.548619" y="235.696975" style="fill-opacity: 0.8; stroke: #000000; stroke-opacity: 0.8"/>
     <use xlink:href="#mfdc1c1ce7e" x="670.343337" y="228.885067" style="fill-opacity: 0.8; stroke: #000000; stroke-opacity: 0.8"/>
    </g>
   </g>
   <g id="line2d_19">
    <path d="M 482.780312 185.212489 
L 525.63627 185.126608 
L 528.616048 184.98528 
L 531.643972 184.611431 
L 533.210455 184.230094 
L 534.405321 183.797251 
L 535.654616 183.160172 
L 536.740263 182.408326 
L 537.84435 181.406687 
L 538.715638 180.418304 
L 540.268883 178.154516 
L 541.601399 175.650936 
L 543.568429 170.992361 
L 545.743898 164.703775 
L 549.626186 151.943067 
L 552.483425 142.614577 
L 553.757814 138.702117 
L 556.095154 132.091374 
L 557.735799 127.925612 
L 560.41527 122.009098 
L 562.372581 118.352579 
L 565.052053 114.208041 
L 567.731525 110.957485 
L 570.410997 108.490145 
L 573.090469 106.69573 
L 575.76994 105.469795 
L 578.449412 104.716603 
L 581.128884 104.350563 
L 583.808356 104.296791 
L 586.487828 104.491091 
L 589.167299 104.879502 
L 591.846771 105.417537 
L 597.205715 106.805929 
L 602.564658 108.450414 
L 613.282545 112.071684 
L 657.956574 127.541938 
L 676.712876 133.76304 
L 695.469179 139.74514 
L 697.138055 140.264248 
L 697.138055 140.264248 
" clip-path="url(#p48a0022562)" style="fill: none; stroke: #0000cd; stroke-width: 3; stroke-linecap: square"/>
   </g>
   <g id="line2d_20">
    <path d="M 482.780312 275.463492 
L 547.16521 275.370609 
L 550.690806 275.215888 
L 553.757814 274.928499 
L 557.735799 274.185155 
L 560.41527 273.352136 
L 562.372581 272.544313 
L 565.052053 271.148547 
L 567.731525 269.439923 
L 570.410997 267.47093 
L 575.76994 263.050124 
L 583.808356 256.307476 
L 589.167299 252.271107 
L 594.526243 248.745669 
L 599.885187 245.716597 
L 605.24413 243.123894 
L 610.603074 240.898356 
L 615.962017 238.976713 
L 621.320961 237.306049 
L 626.679904 235.843698 
L 634.00528 234.121214 
L 641.313012 232.661751 
L 648.879255 231.370413 
L 657.956574 230.059427 
L 668.674461 228.778524 
L 679.392348 227.726041 
L 692.789707 226.660661 
L 697.138055 226.364008 
L 697.138055 226.364008 
" clip-path="url(#p48a0022562)" style="fill: none; stroke-dasharray: 11.1,4.8; stroke-dashoffset: 0; stroke: #0000cd; stroke-width: 3"/>
   </g>
  </g>
  <g id="text_22">
   <!-- Individual 302 -->
   <g transform="translate(335.733375 29.532375) scale(0.312 -0.312)">
    <defs>
     <path id="ArialMT-49" d="M 597 0 
L 597 4581 
L 1203 4581 
L 1203 0 
L 597 0 
z
" transform="scale(0.015625)"/>
     <path id="ArialMT-6e" d="M 422 0 
L 422 3319 
L 928 3319 
L 928 2847 
Q 1294 3394 1984 3394 
Q 2284 3394 2536 3286 
Q 2788 3178 2913 3003 
Q 3038 2828 3088 2588 
Q 3119 2431 3119 2041 
L 3119 0 
L 2556 0 
L 2556 2019 
Q 2556 2363 2490 2533 
Q 2425 2703 2258 2804 
Q 2091 2906 1866 2906 
Q 1506 2906 1245 2678 
Q 984 2450 984 1813 
L 984 0 
L 422 0 
z
" transform="scale(0.015625)"/>
     <path id="ArialMT-76" d="M 1344 0 
L 81 3319 
L 675 3319 
L 1388 1331 
Q 1503 1009 1600 663 
Q 1675 925 1809 1294 
L 2547 3319 
L 3125 3319 
L 1869 0 
L 1344 0 
z
" transform="scale(0.015625)"/>
     <path id="ArialMT-61" d="M 2588 409 
Q 2275 144 1986 34 
Q 1697 -75 1366 -75 
Q 819 -75 525 192 
Q 231 459 231 875 
Q 231 1119 342 1320 
Q 453 1522 633 1644 
Q 813 1766 1038 1828 
Q 1203 1872 1538 1913 
Q 2219 1994 2541 2106 
Q 2544 2222 2544 2253 
Q 2544 2597 2384 2738 
Q 2169 2928 1744 2928 
Q 1347 2928 1158 2789 
Q 969 2650 878 2297 
L 328 2372 
Q 403 2725 575 2942 
Q 747 3159 1072 3276 
Q 1397 3394 1825 3394 
Q 2250 3394 2515 3294 
Q 2781 3194 2906 3042 
Q 3031 2891 3081 2659 
Q 3109 2516 3109 2141 
L 3109 1391 
Q 3109 606 3145 398 
Q 3181 191 3288 0 
L 2700 0 
Q 2613 175 2588 409 
z
M 2541 1666 
Q 2234 1541 1622 1453 
Q 1275 1403 1131 1340 
Q 988 1278 909 1158 
Q 831 1038 831 891 
Q 831 666 1001 516 
Q 1172 366 1500 366 
Q 1825 366 2078 508 
Q 2331 650 2450 897 
Q 2541 1088 2541 1459 
L 2541 1666 
z
" transform="scale(0.015625)"/>
     <path id="ArialMT-33" d="M 269 1209 
L 831 1284 
Q 928 806 1161 595 
Q 1394 384 1728 384 
Q 2125 384 2398 659 
Q 2672 934 2672 1341 
Q 2672 1728 2419 1979 
Q 2166 2231 1775 2231 
Q 1616 2231 1378 2169 
L 1441 2663 
Q 1497 2656 1531 2656 
Q 1891 2656 2178 2843 
Q 2466 3031 2466 3422 
Q 2466 3731 2256 3934 
Q 2047 4138 1716 4138 
Q 1388 4138 1169 3931 
Q 950 3725 888 3313 
L 325 3413 
Q 428 3978 793 4289 
Q 1159 4600 1703 4600 
Q 2078 4600 2393 4439 
Q 2709 4278 2876 4000 
Q 3044 3722 3044 3409 
Q 3044 3113 2884 2869 
Q 2725 2625 2413 2481 
Q 2819 2388 3044 2092 
Q 3269 1797 3269 1353 
Q 3269 753 2831 336 
Q 2394 -81 1725 -81 
Q 1122 -81 723 278 
Q 325 638 269 1209 
z
" transform="scale(0.015625)"/>
     <path id="ArialMT-30" d="M 266 2259 
Q 266 3072 433 3567 
Q 600 4063 929 4331 
Q 1259 4600 1759 4600 
Q 2128 4600 2406 4451 
Q 2684 4303 2865 4023 
Q 3047 3744 3150 3342 
Q 3253 2941 3253 2259 
Q 3253 1453 3087 958 
Q 2922 463 2592 192 
Q 2263 -78 1759 -78 
Q 1097 -78 719 397 
Q 266 969 266 2259 
z
M 844 2259 
Q 844 1131 1108 757 
Q 1372 384 1759 384 
Q 2147 384 2411 759 
Q 2675 1134 2675 2259 
Q 2675 3391 2411 3762 
Q 2147 4134 1753 4134 
Q 1366 4134 1134 3806 
Q 844 3388 844 2259 
z
" transform="scale(0.015625)"/>
     <path id="ArialMT-32" d="M 3222 541 
L 3222 0 
L 194 0 
Q 188 203 259 391 
Q 375 700 629 1000 
Q 884 1300 1366 1694 
Q 2113 2306 2375 2664 
Q 2638 3022 2638 3341 
Q 2638 3675 2398 3904 
Q 2159 4134 1775 4134 
Q 1369 4134 1125 3890 
Q 881 3647 878 3216 
L 300 3275 
Q 359 3922 746 4261 
Q 1134 4600 1788 4600 
Q 2447 4600 2831 4234 
Q 3216 3869 3216 3328 
Q 3216 3053 3103 2787 
Q 2991 2522 2730 2228 
Q 2469 1934 1863 1422 
Q 1356 997 1212 845 
Q 1069 694 975 541 
L 3222 541 
z
" transform="scale(0.015625)"/>
    </defs>
    <use xlink:href="#ArialMT-49"/>
    <use xlink:href="#ArialMT-6e" transform="translate(27.783203 0)"/>
    <use xlink:href="#ArialMT-64" transform="translate(83.398438 0)"/>
    <use xlink:href="#ArialMT-69" transform="translate(139.013672 0)"/>
    <use xlink:href="#ArialMT-76" transform="translate(161.230469 0)"/>
    <use xlink:href="#ArialMT-69" transform="translate(211.230469 0)"/>
    <use xlink:href="#ArialMT-64" transform="translate(233.447266 0)"/>
    <use xlink:href="#ArialMT-75" transform="translate(289.0625 0)"/>
    <use xlink:href="#ArialMT-61" transform="translate(344.677734 0)"/>
    <use xlink:href="#ArialMT-6c" transform="translate(400.292969 0)"/>
    <use xlink:href="#ArialMT-20" transform="translate(422.509766 0)"/>
    <use xlink:href="#ArialMT-33" transform="translate(450.292969 0)"/>
    <use xlink:href="#ArialMT-30" transform="translate(505.908203 0)"/>
    <use xlink:href="#ArialMT-32" transform="translate(561.523438 0)"/>
   </g>
  </g>
 </g>
 <defs>
  <clipPath id="pcd1fc0120c">
   <rect x="180" y="43.2" width="227.755102" height="277.2"/>
  </clipPath>
  <clipPath id="p48a0022562">
   <rect x="476.081633" y="43.2" width="227.755102" height="277.2"/>
  </clipPath>
 </defs>
</svg>
