<?xml version="1.0" encoding="utf-8" standalone="no"?>
<!DOCTYPE svg PUBLIC "-//W3C//DTD SVG 1.1//EN"
  "http://www.w3.org/Graphics/SVG/1.1/DTD/svg11.dtd">
<svg xmlns:xlink="http://www.w3.org/1999/xlink" width="1440pt" height="360pt" viewBox="0 0 1440 360" xmlns="http://www.w3.org/2000/svg" version="1.1">
 <metadata>
  <rdf:RDF xmlns:dc="http://purl.org/dc/elements/1.1/" xmlns:cc="http://creativecommons.org/ns#" xmlns:rdf="http://www.w3.org/1999/02/22-rdf-syntax-ns#">
   <cc:Work>
    <dc:type rdf:resource="http://purl.org/dc/dcmitype/StillImage"/>
    <dc:date>2025-01-29T14:03:24.174305</dc:date>
    <dc:format>image/svg+xml</dc:format>
    <dc:creator>
     <cc:Agent>
      <dc:title>Matplotlib v3.10.0, https://matplotlib.org/</dc:title>
     </cc:Agent>
    </dc:creator>
   </cc:Work>
  </rdf:RDF>
 </metadata>
 <defs>
  <style type="text/css">*{stroke-linejoin: round; stroke-linecap: butt}</style>
 </defs>
 <g id="figure_1">
  <g id="patch_1">
   <path d="M 0 360 
L 1440 360 
L 1440 0 
L 0 0 
z
" style="fill: #ffffff"/>
  </g>
  <g id="axes_1">
   <g id="patch_2">
    <path d="M 180 320.4 
L 407.755102 320.4 
L 407.755102 43.2 
L 180 43.2 
z
" style="fill: #ffffff"/>
   </g>
   <g id="matplotlib.axis_1">
    <g id="xtick_1">
     <g id="text_1">
      <!-- 0 -->
      <g style="fill: #262626" transform="translate(178.023617 352.232375) scale(0.312 -0.312)">
       <defs>
        <path id="ArialMT-30" d="M 266 2259 
Q 266 3072 433 3567 
Q 600 4063 929 4331 
Q 1259 4600 1759 4600 
Q 2128 4600 2406 4451 
Q 2684 4303 2865 4023 
Q 3047 3744 3150 3342 
Q 3253 2941 3253 2259 
Q 3253 1453 3087 958 
Q 2922 463 2592 192 
Q 2263 -78 1759 -78 
Q 1097 -78 719 397 
Q 266 969 266 2259 
z
M 844 2259 
Q 844 1131 1108 757 
Q 1372 384 1759 384 
Q 2147 384 2411 759 
Q 2675 1134 2675 2259 
Q 2675 3391 2411 3762 
Q 2147 4134 1753 4134 
Q 1366 4134 1134 3806 
Q 844 3388 844 2259 
z
" transform="scale(0.015625)"/>
       </defs>
       <use xlink:href="#ArialMT-30"/>
      </g>
     </g>
    </g>
    <g id="xtick_2">
     <g id="text_2">
      <!-- 2 -->
      <g style="fill: #262626" transform="translate(231.613053 352.232375) scale(0.312 -0.312)">
       <defs>
        <path id="ArialMT-32" d="M 3222 541 
L 3222 0 
L 194 0 
Q 188 203 259 391 
Q 375 700 629 1000 
Q 884 1300 1366 1694 
Q 2113 2306 2375 2664 
Q 2638 3022 2638 3341 
Q 2638 3675 2398 3904 
Q 2159 4134 1775 4134 
Q 1369 4134 1125 3890 
Q 881 3647 878 3216 
L 300 3275 
Q 359 3922 746 4261 
Q 1134 4600 1788 4600 
Q 2447 4600 2831 4234 
Q 3216 3869 3216 3328 
Q 3216 3053 3103 2787 
Q 2991 2522 2730 2228 
Q 2469 1934 1863 1422 
Q 1356 997 1212 845 
Q 1069 694 975 541 
L 3222 541 
z
" transform="scale(0.015625)"/>
       </defs>
       <use xlink:href="#ArialMT-32"/>
      </g>
     </g>
    </g>
    <g id="xtick_3">
     <g id="text_3">
      <!-- 4 -->
      <g style="fill: #262626" transform="translate(285.202489 352.232375) scale(0.312 -0.312)">
       <defs>
        <path id="ArialMT-34" d="M 2069 0 
L 2069 1097 
L 81 1097 
L 81 1613 
L 2172 4581 
L 2631 4581 
L 2631 1613 
L 3250 1613 
L 3250 1097 
L 2631 1097 
L 2631 0 
L 2069 0 
z
M 2069 1613 
L 2069 3678 
L 634 1613 
L 2069 1613 
z
" transform="scale(0.015625)"/>
       </defs>
       <use xlink:href="#ArialMT-34"/>
      </g>
     </g>
    </g>
    <g id="xtick_4">
     <g id="text_4">
      <!-- 6 -->
      <g style="fill: #262626" transform="translate(338.791924 352.232375) scale(0.312 -0.312)">
       <defs>
        <path id="ArialMT-36" d="M 3184 3459 
L 2625 3416 
Q 2550 3747 2413 3897 
Q 2184 4138 1850 4138 
Q 1581 4138 1378 3988 
Q 1113 3794 959 3422 
Q 806 3050 800 2363 
Q 1003 2672 1297 2822 
Q 1591 2972 1913 2972 
Q 2475 2972 2870 2558 
Q 3266 2144 3266 1488 
Q 3266 1056 3080 686 
Q 2894 316 2569 119 
Q 2244 -78 1831 -78 
Q 1128 -78 684 439 
Q 241 956 241 2144 
Q 241 3472 731 4075 
Q 1159 4600 1884 4600 
Q 2425 4600 2770 4297 
Q 3116 3994 3184 3459 
z
M 888 1484 
Q 888 1194 1011 928 
Q 1134 663 1356 523 
Q 1578 384 1822 384 
Q 2178 384 2434 671 
Q 2691 959 2691 1453 
Q 2691 1928 2437 2201 
Q 2184 2475 1800 2475 
Q 1419 2475 1153 2201 
Q 888 1928 888 1484 
z
" transform="scale(0.015625)"/>
       </defs>
       <use xlink:href="#ArialMT-36"/>
      </g>
     </g>
    </g>
    <g id="xtick_5">
     <g id="text_5">
      <!-- 8 -->
      <g style="fill: #262626" transform="translate(392.38136 352.232375) scale(0.312 -0.312)">
       <defs>
        <path id="ArialMT-38" d="M 1131 2484 
Q 781 2613 612 2850 
Q 444 3088 444 3419 
Q 444 3919 803 4259 
Q 1163 4600 1759 4600 
Q 2359 4600 2725 4251 
Q 3091 3903 3091 3403 
Q 3091 3084 2923 2848 
Q 2756 2613 2416 2484 
Q 2838 2347 3058 2040 
Q 3278 1734 3278 1309 
Q 3278 722 2862 322 
Q 2447 -78 1769 -78 
Q 1091 -78 675 323 
Q 259 725 259 1325 
Q 259 1772 486 2073 
Q 713 2375 1131 2484 
z
M 1019 3438 
Q 1019 3113 1228 2906 
Q 1438 2700 1772 2700 
Q 2097 2700 2305 2904 
Q 2513 3109 2513 3406 
Q 2513 3716 2298 3927 
Q 2084 4138 1766 4138 
Q 1444 4138 1231 3931 
Q 1019 3725 1019 3438 
z
M 838 1322 
Q 838 1081 952 856 
Q 1066 631 1291 507 
Q 1516 384 1775 384 
Q 2178 384 2440 643 
Q 2703 903 2703 1303 
Q 2703 1709 2433 1975 
Q 2163 2241 1756 2241 
Q 1359 2241 1098 1978 
Q 838 1716 838 1322 
z
" transform="scale(0.015625)"/>
       </defs>
       <use xlink:href="#ArialMT-38"/>
      </g>
     </g>
    </g>
    <g id="text_6">
     <!-- Time (d) -->
     <g style="fill: #262626" transform="translate(241.190989 383.253281) scale(0.286 -0.286)">
      <defs>
       <path id="ArialMT-54" d="M 1659 0 
L 1659 4041 
L 150 4041 
L 150 4581 
L 3781 4581 
L 3781 4041 
L 2266 4041 
L 2266 0 
L 1659 0 
z
" transform="scale(0.015625)"/>
       <path id="ArialMT-69" d="M 425 3934 
L 425 4581 
L 988 4581 
L 988 3934 
L 425 3934 
z
M 425 0 
L 425 3319 
L 988 3319 
L 988 0 
L 425 0 
z
" transform="scale(0.015625)"/>
       <path id="ArialMT-6d" d="M 422 0 
L 422 3319 
L 925 3319 
L 925 2853 
Q 1081 3097 1340 3245 
Q 1600 3394 1931 3394 
Q 2300 3394 2536 3241 
Q 2772 3088 2869 2813 
Q 3263 3394 3894 3394 
Q 4388 3394 4653 3120 
Q 4919 2847 4919 2278 
L 4919 0 
L 4359 0 
L 4359 2091 
Q 4359 2428 4304 2576 
Q 4250 2725 4106 2815 
Q 3963 2906 3769 2906 
Q 3419 2906 3187 2673 
Q 2956 2441 2956 1928 
L 2956 0 
L 2394 0 
L 2394 2156 
Q 2394 2531 2256 2718 
Q 2119 2906 1806 2906 
Q 1569 2906 1367 2781 
Q 1166 2656 1075 2415 
Q 984 2175 984 1722 
L 984 0 
L 422 0 
z
" transform="scale(0.015625)"/>
       <path id="ArialMT-65" d="M 2694 1069 
L 3275 997 
Q 3138 488 2766 206 
Q 2394 -75 1816 -75 
Q 1088 -75 661 373 
Q 234 822 234 1631 
Q 234 2469 665 2931 
Q 1097 3394 1784 3394 
Q 2450 3394 2872 2941 
Q 3294 2488 3294 1666 
Q 3294 1616 3291 1516 
L 816 1516 
Q 847 969 1125 678 
Q 1403 388 1819 388 
Q 2128 388 2347 550 
Q 2566 713 2694 1069 
z
M 847 1978 
L 2700 1978 
Q 2663 2397 2488 2606 
Q 2219 2931 1791 2931 
Q 1403 2931 1139 2672 
Q 875 2413 847 1978 
z
" transform="scale(0.015625)"/>
       <path id="ArialMT-20" transform="scale(0.015625)"/>
       <path id="ArialMT-28" d="M 1497 -1347 
Q 1031 -759 709 28 
Q 388 816 388 1659 
Q 388 2403 628 3084 
Q 909 3875 1497 4659 
L 1900 4659 
Q 1522 4009 1400 3731 
Q 1209 3300 1100 2831 
Q 966 2247 966 1656 
Q 966 153 1900 -1347 
L 1497 -1347 
z
" transform="scale(0.015625)"/>
       <path id="ArialMT-64" d="M 2575 0 
L 2575 419 
Q 2259 -75 1647 -75 
Q 1250 -75 917 144 
Q 584 363 401 755 
Q 219 1147 219 1656 
Q 219 2153 384 2558 
Q 550 2963 881 3178 
Q 1213 3394 1622 3394 
Q 1922 3394 2156 3267 
Q 2391 3141 2538 2938 
L 2538 4581 
L 3097 4581 
L 3097 0 
L 2575 0 
z
M 797 1656 
Q 797 1019 1065 703 
Q 1334 388 1700 388 
Q 2069 388 2326 689 
Q 2584 991 2584 1609 
Q 2584 2291 2321 2609 
Q 2059 2928 1675 2928 
Q 1300 2928 1048 2622 
Q 797 2316 797 1656 
z
" transform="scale(0.015625)"/>
       <path id="ArialMT-29" d="M 791 -1347 
L 388 -1347 
Q 1322 153 1322 1656 
Q 1322 2244 1188 2822 
Q 1081 3291 891 3722 
Q 769 4003 388 4659 
L 791 4659 
Q 1378 3875 1659 3084 
Q 1900 2403 1900 1659 
Q 1900 816 1576 28 
Q 1253 -759 791 -1347 
z
" transform="scale(0.015625)"/>
      </defs>
      <use xlink:href="#ArialMT-54"/>
      <use xlink:href="#ArialMT-69" transform="translate(57.333984 0)"/>
      <use xlink:href="#ArialMT-6d" transform="translate(79.550781 0)"/>
      <use xlink:href="#ArialMT-65" transform="translate(162.851562 0)"/>
      <use xlink:href="#ArialMT-20" transform="translate(218.466797 0)"/>
      <use xlink:href="#ArialMT-28" transform="translate(246.25 0)"/>
      <use xlink:href="#ArialMT-64" transform="translate(279.550781 0)"/>
      <use xlink:href="#ArialMT-29" transform="translate(335.166016 0)"/>
     </g>
    </g>
   </g>
   <g id="matplotlib.axis_2">
    <g id="ytick_1">
     <g id="text_7">
      <!-- 0 -->
      <g style="fill: #262626" transform="translate(153.149875 331.566188) scale(0.312 -0.312)">
       <use xlink:href="#ArialMT-30"/>
      </g>
     </g>
    </g>
    <g id="ytick_2">
     <g id="text_8">
      <!-- 2 -->
      <g style="fill: #262626" transform="translate(153.149875 262.266188) scale(0.312 -0.312)">
       <use xlink:href="#ArialMT-32"/>
      </g>
     </g>
    </g>
    <g id="ytick_3">
     <g id="text_9">
      <!-- 4 -->
      <g style="fill: #262626" transform="translate(153.149875 192.966187) scale(0.312 -0.312)">
       <use xlink:href="#ArialMT-34"/>
      </g>
     </g>
    </g>
    <g id="ytick_4">
     <g id="text_10">
      <!-- 6 -->
      <g style="fill: #262626" transform="translate(153.149875 123.666187) scale(0.312 -0.312)">
       <use xlink:href="#ArialMT-36"/>
      </g>
     </g>
    </g>
    <g id="ytick_5">
     <g id="text_11">
      <!-- 8 -->
      <g style="fill: #262626" transform="translate(153.149875 54.366187) scale(0.312 -0.312)">
       <use xlink:href="#ArialMT-38"/>
      </g>
     </g>
    </g>
    <g id="text_12">
     <!-- Log$_{10}$ Virus (copies/mL) -->
     <g style="fill: #262626" transform="translate(142.857875 334.238) rotate(-90) scale(0.286 -0.286)">
      <defs>
       <path id="ArialMT-4c" d="M 469 0 
L 469 4581 
L 1075 4581 
L 1075 541 
L 3331 541 
L 3331 0 
L 469 0 
z
" transform="scale(0.015625)"/>
       <path id="ArialMT-6f" d="M 213 1659 
Q 213 2581 725 3025 
Q 1153 3394 1769 3394 
Q 2453 3394 2887 2945 
Q 3322 2497 3322 1706 
Q 3322 1066 3130 698 
Q 2938 331 2570 128 
Q 2203 -75 1769 -75 
Q 1072 -75 642 372 
Q 213 819 213 1659 
z
M 791 1659 
Q 791 1022 1069 705 
Q 1347 388 1769 388 
Q 2188 388 2466 706 
Q 2744 1025 2744 1678 
Q 2744 2294 2464 2611 
Q 2184 2928 1769 2928 
Q 1347 2928 1069 2612 
Q 791 2297 791 1659 
z
" transform="scale(0.015625)"/>
       <path id="ArialMT-67" d="M 319 -275 
L 866 -356 
Q 900 -609 1056 -725 
Q 1266 -881 1628 -881 
Q 2019 -881 2231 -725 
Q 2444 -569 2519 -288 
Q 2563 -116 2559 434 
Q 2191 0 1641 0 
Q 956 0 581 494 
Q 206 988 206 1678 
Q 206 2153 378 2554 
Q 550 2956 876 3175 
Q 1203 3394 1644 3394 
Q 2231 3394 2613 2919 
L 2613 3319 
L 3131 3319 
L 3131 450 
Q 3131 -325 2973 -648 
Q 2816 -972 2473 -1159 
Q 2131 -1347 1631 -1347 
Q 1038 -1347 672 -1080 
Q 306 -813 319 -275 
z
M 784 1719 
Q 784 1066 1043 766 
Q 1303 466 1694 466 
Q 2081 466 2343 764 
Q 2606 1063 2606 1700 
Q 2606 2309 2336 2618 
Q 2066 2928 1684 2928 
Q 1309 2928 1046 2623 
Q 784 2319 784 1719 
z
" transform="scale(0.015625)"/>
       <path id="DejaVuSans-31" d="M 794 531 
L 1825 531 
L 1825 4091 
L 703 3866 
L 703 4441 
L 1819 4666 
L 2450 4666 
L 2450 531 
L 3481 531 
L 3481 0 
L 794 0 
L 794 531 
z
" transform="scale(0.015625)"/>
       <path id="DejaVuSans-30" d="M 2034 4250 
Q 1547 4250 1301 3770 
Q 1056 3291 1056 2328 
Q 1056 1369 1301 889 
Q 1547 409 2034 409 
Q 2525 409 2770 889 
Q 3016 1369 3016 2328 
Q 3016 3291 2770 3770 
Q 2525 4250 2034 4250 
z
M 2034 4750 
Q 2819 4750 3233 4129 
Q 3647 3509 3647 2328 
Q 3647 1150 3233 529 
Q 2819 -91 2034 -91 
Q 1250 -91 836 529 
Q 422 1150 422 2328 
Q 422 3509 836 4129 
Q 1250 4750 2034 4750 
z
" transform="scale(0.015625)"/>
       <path id="ArialMT-56" d="M 1803 0 
L 28 4581 
L 684 4581 
L 1875 1253 
Q 2019 853 2116 503 
Q 2222 878 2363 1253 
L 3600 4581 
L 4219 4581 
L 2425 0 
L 1803 0 
z
" transform="scale(0.015625)"/>
       <path id="ArialMT-72" d="M 416 0 
L 416 3319 
L 922 3319 
L 922 2816 
Q 1116 3169 1280 3281 
Q 1444 3394 1641 3394 
Q 1925 3394 2219 3213 
L 2025 2691 
Q 1819 2813 1613 2813 
Q 1428 2813 1281 2702 
Q 1134 2591 1072 2394 
Q 978 2094 978 1738 
L 978 0 
L 416 0 
z
" transform="scale(0.015625)"/>
       <path id="ArialMT-75" d="M 2597 0 
L 2597 488 
Q 2209 -75 1544 -75 
Q 1250 -75 995 37 
Q 741 150 617 320 
Q 494 491 444 738 
Q 409 903 409 1263 
L 409 3319 
L 972 3319 
L 972 1478 
Q 972 1038 1006 884 
Q 1059 663 1231 536 
Q 1403 409 1656 409 
Q 1909 409 2131 539 
Q 2353 669 2445 892 
Q 2538 1116 2538 1541 
L 2538 3319 
L 3100 3319 
L 3100 0 
L 2597 0 
z
" transform="scale(0.015625)"/>
       <path id="ArialMT-73" d="M 197 991 
L 753 1078 
Q 800 744 1014 566 
Q 1228 388 1613 388 
Q 2000 388 2187 545 
Q 2375 703 2375 916 
Q 2375 1106 2209 1216 
Q 2094 1291 1634 1406 
Q 1016 1563 777 1677 
Q 538 1791 414 1992 
Q 291 2194 291 2438 
Q 291 2659 392 2848 
Q 494 3038 669 3163 
Q 800 3259 1026 3326 
Q 1253 3394 1513 3394 
Q 1903 3394 2198 3281 
Q 2494 3169 2634 2976 
Q 2775 2784 2828 2463 
L 2278 2388 
Q 2241 2644 2061 2787 
Q 1881 2931 1553 2931 
Q 1166 2931 1000 2803 
Q 834 2675 834 2503 
Q 834 2394 903 2306 
Q 972 2216 1119 2156 
Q 1203 2125 1616 2013 
Q 2213 1853 2448 1751 
Q 2684 1650 2818 1456 
Q 2953 1263 2953 975 
Q 2953 694 2789 445 
Q 2625 197 2315 61 
Q 2006 -75 1616 -75 
Q 969 -75 630 194 
Q 291 463 197 991 
z
" transform="scale(0.015625)"/>
       <path id="ArialMT-63" d="M 2588 1216 
L 3141 1144 
Q 3050 572 2676 248 
Q 2303 -75 1759 -75 
Q 1078 -75 664 370 
Q 250 816 250 1647 
Q 250 2184 428 2587 
Q 606 2991 970 3192 
Q 1334 3394 1763 3394 
Q 2303 3394 2647 3120 
Q 2991 2847 3088 2344 
L 2541 2259 
Q 2463 2594 2264 2762 
Q 2066 2931 1784 2931 
Q 1359 2931 1093 2626 
Q 828 2322 828 1663 
Q 828 994 1084 691 
Q 1341 388 1753 388 
Q 2084 388 2306 591 
Q 2528 794 2588 1216 
z
" transform="scale(0.015625)"/>
       <path id="ArialMT-70" d="M 422 -1272 
L 422 3319 
L 934 3319 
L 934 2888 
Q 1116 3141 1344 3267 
Q 1572 3394 1897 3394 
Q 2322 3394 2647 3175 
Q 2972 2956 3137 2557 
Q 3303 2159 3303 1684 
Q 3303 1175 3120 767 
Q 2938 359 2589 142 
Q 2241 -75 1856 -75 
Q 1575 -75 1351 44 
Q 1128 163 984 344 
L 984 -1272 
L 422 -1272 
z
M 931 1641 
Q 931 1000 1190 694 
Q 1450 388 1819 388 
Q 2194 388 2461 705 
Q 2728 1022 2728 1688 
Q 2728 2322 2467 2637 
Q 2206 2953 1844 2953 
Q 1484 2953 1207 2617 
Q 931 2281 931 1641 
z
" transform="scale(0.015625)"/>
       <path id="ArialMT-2f" d="M 0 -78 
L 1328 4659 
L 1778 4659 
L 453 -78 
L 0 -78 
z
" transform="scale(0.015625)"/>
      </defs>
      <use xlink:href="#ArialMT-4c" transform="translate(0 0.203125)"/>
      <use xlink:href="#ArialMT-6f" transform="translate(55.615234 0.203125)"/>
      <use xlink:href="#ArialMT-67" transform="translate(111.230469 0.203125)"/>
      <use xlink:href="#DejaVuSans-31" transform="translate(167.802734 -16.203125) scale(0.7)"/>
      <use xlink:href="#DejaVuSans-30" transform="translate(212.338867 -16.203125) scale(0.7)"/>
      <use xlink:href="#ArialMT-20" transform="translate(259.609375 0.203125)"/>
      <use xlink:href="#ArialMT-56" transform="translate(287.392578 0.203125)"/>
      <use xlink:href="#ArialMT-69" transform="translate(354.091797 0.203125)"/>
      <use xlink:href="#ArialMT-72" transform="translate(376.308594 0.203125)"/>
      <use xlink:href="#ArialMT-75" transform="translate(409.609375 0.203125)"/>
      <use xlink:href="#ArialMT-73" transform="translate(465.224609 0.203125)"/>
      <use xlink:href="#ArialMT-20" transform="translate(515.224609 0.203125)"/>
      <use xlink:href="#ArialMT-28" transform="translate(543.007812 0.203125)"/>
      <use xlink:href="#ArialMT-63" transform="translate(576.308594 0.203125)"/>
      <use xlink:href="#ArialMT-6f" transform="translate(626.308594 0.203125)"/>
      <use xlink:href="#ArialMT-70" transform="translate(681.923828 0.203125)"/>
      <use xlink:href="#ArialMT-69" transform="translate(737.539062 0.203125)"/>
      <use xlink:href="#ArialMT-65" transform="translate(759.755859 0.203125)"/>
      <use xlink:href="#ArialMT-73" transform="translate(815.371094 0.203125)"/>
      <use xlink:href="#ArialMT-2f" transform="translate(865.371094 0.203125)"/>
      <use xlink:href="#ArialMT-6d" transform="translate(893.154297 0.203125)"/>
      <use xlink:href="#ArialMT-4c" transform="translate(976.455078 0.203125)"/>
      <use xlink:href="#ArialMT-29" transform="translate(1032.070312 0.203125)"/>
     </g>
    </g>
   </g>
   <g id="patch_3">
    <path d="M 180 320.4 
L 180 43.2 
" style="fill: none; stroke: #262626; stroke-width: 1.25; stroke-linejoin: miter; stroke-linecap: square"/>
   </g>
   <g id="patch_4">
    <path d="M 407.755102 320.4 
L 407.755102 43.2 
" style="fill: none; stroke: #262626; stroke-width: 1.25; stroke-linejoin: miter; stroke-linecap: square"/>
   </g>
   <g id="patch_5">
    <path d="M 180 320.4 
L 407.755102 320.4 
" style="fill: none; stroke: #262626; stroke-width: 1.25; stroke-linejoin: miter; stroke-linecap: square"/>
   </g>
   <g id="patch_6">
    <path d="M 180 43.2 
L 407.755102 43.2 
" style="fill: none; stroke: #262626; stroke-width: 1.25; stroke-linejoin: miter; stroke-linecap: square"/>
   </g>
   <g id="FillBetweenPolyCollection_1">
    <defs>
     <path id="m185d8fcacf" d="M 186.698679 -39.6 
L 186.698679 -39.6 
L 186.699122 -39.6 
L 186.70355 -39.6 
L 186.747831 -39.6 
L 186.890072 -39.6 
L 187.008575 -39.6 
L 187.36745 -39.6 
L 187.645329 -39.6 
L 188.407057 -39.6 
L 188.912814 -39.6 
L 190.158419 -39.6 
L 190.894191 -39.6 
L 192.671311 -39.6 
L 193.610898 -39.6 
L 195.663815 -39.6 
L 196.793943 -41.49388 
L 199.015101 -46.094942 
L 200.320927 -48.801769 
L 202.598008 -53.476382 
L 204.030043 -56.412637 
L 206.681113 -61.831407 
L 208.203906 -64.947744 
L 210.883378 -70.418441 
L 212.631757 -73.993901 
L 215.311229 -79.461797 
L 217.245353 -83.414401 
L 219.924825 -88.8791 
L 221.99237 -93.100925 
L 224.671842 -98.562181 
L 226.847634 -102.941159 
L 229.115509 -107.460908 
L 231.53586 -112.283786 
L 234.036352 -117.265599 
L 236.631899 -122.435905 
L 239.276481 -127.702767 
L 241.955953 -133.037617 
L 244.635424 -138.316365 
L 247.314896 -143.559901 
L 249.994368 -148.800012 
L 252.67384 -154.035295 
L 255.353311 -159.263759 
L 258.032783 -164.4826 
L 260.712255 -169.681981 
L 263.391727 -174.832034 
L 266.071199 -179.956463 
L 268.75067 -185.045356 
L 271.430142 -190.066128 
L 274.109614 -195.012174 
L 276.789086 -199.872309 
L 279.468558 -204.616417 
L 282.148029 -209.206243 
L 284.827501 -213.595049 
L 287.506973 -217.728643 
L 290.186445 -221.528874 
L 292.865917 -224.783688 
L 295.545388 -227.296505 
L 298.22486 -229.312199 
L 300.904332 -230.854455 
L 303.583804 -231.889545 
L 306.263275 -232.216255 
L 308.942747 -232.262347 
L 311.622219 -232.072949 
L 314.301691 -231.680927 
L 316.981163 -231.106661 
L 319.660634 -230.358967 
L 322.340106 -229.436301 
L 325.019578 -228.327656 
L 327.69905 -227.012642 
L 329.763498 -225.838092 
L 331.703691 -224.584244 
L 333.643884 -223.186393 
L 335.271836 -221.877114 
L 337.088605 -220.197665 
L 338.580583 -218.545057 
L 341.260055 -212.173077 
L 343.150988 -202.015855 
L 345.83046 -138.793883 
L 346.270018 -105.910425 
L 346.805913 -64.818015 
L 347.49622 -39.6 
L 347.672401 -39.6 
L 347.743991 -39.6 
L 347.866613 -39.6 
L 347.946925 -39.6 
L 348.048969 -39.6 
L 348.151013 -39.6 
L 348.313454 -39.6 
L 348.583552 -39.6 
L 348.85365 -39.6 
L 349.165184 -39.6 
L 349.488148 -39.6 
L 349.861531 -39.6 
L 350.30167 -39.6 
L 351.070395 -39.6 
L 352.502649 -39.6 
L 354.572738 -39.6 
L 356.642827 -39.6 
L 359.141084 -39.6 
L 361.639341 -39.6 
L 364.318813 -39.6 
L 366.998285 -39.6 
L 369.677757 -39.6 
L 372.357228 -39.6 
L 375.0367 -39.6 
L 377.716172 -39.6 
L 380.395644 -39.6 
L 383.075115 -39.6 
L 385.754587 -39.6 
L 388.434059 -39.6 
L 391.113531 -39.6 
L 393.793003 -39.6 
L 396.472474 -39.6 
L 399.151946 -39.6 
L 401.056423 -39.6 
L 401.056423 -39.6 
L 401.056423 -39.6 
L 399.151946 -39.6 
L 396.472474 -39.6 
L 393.793003 -39.6 
L 391.113531 -39.6 
L 388.434059 -39.6 
L 385.754587 -39.6 
L 383.075115 -39.6 
L 380.395644 -39.6 
L 377.716172 -39.6 
L 375.0367 -39.6 
L 372.357228 -39.6 
L 369.677757 -39.6 
L 366.998285 -39.6 
L 364.318813 -39.6 
L 361.639341 -39.6 
L 359.141084 -141.540177 
L 356.642827 -194.612931 
L 354.572738 -204.257212 
L 352.502649 -210.414823 
L 351.070395 -213.75174 
L 350.30167 -215.357178 
L 349.861531 -216.398808 
L 349.488148 -217.170997 
L 349.165184 -217.717981 
L 348.85365 -218.245606 
L 348.583552 -218.703053 
L 348.313454 -219.1605 
L 348.151013 -219.435615 
L 348.048969 -219.608441 
L 347.946925 -219.781267 
L 347.866613 -219.917285 
L 347.743991 -220.124963 
L 347.672401 -220.24621 
L 347.49622 -220.544597 
L 346.805913 -221.649962 
L 346.270018 -222.546073 
L 345.83046 -223.337942 
L 343.150988 -227.545564 
L 341.260055 -229.827594 
L 338.580583 -232.483462 
L 337.088605 -233.706373 
L 335.271836 -235.030927 
L 333.643884 -236.065657 
L 331.703691 -237.147765 
L 329.763498 -238.427109 
L 327.69905 -239.714637 
L 325.019578 -241.064692 
L 322.340106 -242.082569 
L 319.660634 -242.813186 
L 316.981163 -243.282467 
L 314.301691 -243.499987 
L 311.622219 -243.459818 
L 308.942747 -243.141085 
L 306.263275 -242.799812 
L 303.583804 -242.472414 
L 300.904332 -241.865458 
L 298.22486 -240.921226 
L 295.545388 -239.575609 
L 292.865917 -237.767625 
L 290.186445 -235.45126 
L 287.506973 -232.606215 
L 284.827501 -229.243564 
L 282.148029 -225.403989 
L 279.468558 -221.218119 
L 276.789086 -216.750815 
L 274.109614 -211.956396 
L 271.430142 -206.904219 
L 268.75067 -201.650376 
L 266.071199 -196.263266 
L 263.391727 -190.764205 
L 260.712255 -185.199342 
L 258.032783 -179.62009 
L 255.353311 -174.074178 
L 252.67384 -168.508596 
L 249.994368 -162.92911 
L 247.314896 -157.339656 
L 244.635424 -151.742894 
L 241.955953 -146.140683 
L 239.276481 -140.53454 
L 236.631899 -134.998464 
L 234.036352 -129.563695 
L 231.53586 -124.326602 
L 229.115509 -119.257797 
L 226.847634 -114.507988 
L 224.671842 -109.953005 
L 221.99237 -104.340272 
L 219.924825 -100.003916 
L 217.245353 -94.391193 
L 215.311229 -90.333487 
L 212.631757 -84.721604 
L 210.883378 -81.053156 
L 208.203906 -75.49376 
L 206.681113 -72.346209 
L 204.030043 -66.861634 
L 202.598008 -63.894041 
L 200.320927 -59.141081 
L 199.015101 -56.398782 
L 196.793943 -51.671083 
L 195.663815 -49.277666 
L 193.610898 -44.648817 
L 192.671311 -42.33674 
L 190.894191 -39.649263 
L 190.158419 -39.6 
L 188.912814 -39.6 
L 188.407057 -39.6 
L 187.645329 -39.6 
L 187.36745 -39.6 
L 187.008575 -39.6 
L 186.890072 -39.6 
L 186.747831 -39.6 
L 186.70355 -39.6 
L 186.699122 -39.6 
L 186.698679 -39.6 
z
" style="stroke: #7cfc00; stroke-opacity: 0.2"/>
    </defs>
    <g clip-path="url(#p0a5ba510f0)">
     <use xlink:href="#m185d8fcacf" x="0" y="360" style="fill: #7cfc00; fill-opacity: 0.2; stroke: #7cfc00; stroke-opacity: 0.2"/>
    </g>
   </g>
   <g id="PathCollection_1">
    <defs>
     <path id="md8894a2e3d" d="M 0 4.330127 
C 1.148363 4.330127 2.249847 3.873878 3.061862 3.061862 
C 3.873878 2.249847 4.330127 1.148363 4.330127 0 
C 4.330127 -1.148363 3.873878 -2.249847 3.061862 -3.061862 
C 2.249847 -3.873878 1.148363 -4.330127 0 -4.330127 
C -1.148363 -4.330127 -2.249847 -3.873878 -3.061862 -3.061862 
C -3.873878 -2.249847 -4.330127 -1.148363 -4.330127 0 
C -4.330127 1.148363 -3.873878 2.249847 -3.061862 3.061862 
C -2.249847 3.873878 -1.148363 4.330127 0 4.330127 
z
" style="stroke: #000000; stroke-opacity: 0.8"/>
    </defs>
    <g clip-path="url(#p0a5ba510f0)">
     <use xlink:href="#md8894a2e3d" x="186.698679" y="320.4" style="fill-opacity: 0.8; stroke: #000000; stroke-opacity: 0.8"/>
     <use xlink:href="#md8894a2e3d" x="213.493397" y="320.4" style="fill-opacity: 0.8; stroke: #000000; stroke-opacity: 0.8"/>
     <use xlink:href="#md8894a2e3d" x="240.288115" y="208.616185" style="fill-opacity: 0.8; stroke: #000000; stroke-opacity: 0.8"/>
     <use xlink:href="#md8894a2e3d" x="267.082833" y="187.19748" style="fill-opacity: 0.8; stroke: #000000; stroke-opacity: 0.8"/>
     <use xlink:href="#md8894a2e3d" x="293.877551" y="96.663931" style="fill-opacity: 0.8; stroke: #000000; stroke-opacity: 0.8"/>
     <use xlink:href="#md8894a2e3d" x="320.672269" y="107.816408" style="fill-opacity: 0.8; stroke: #000000; stroke-opacity: 0.8"/>
     <use xlink:href="#md8894a2e3d" x="347.466987" y="152.78675" style="fill-opacity: 0.8; stroke: #000000; stroke-opacity: 0.8"/>
     <use xlink:href="#md8894a2e3d" x="374.261705" y="320.4" style="fill-opacity: 0.8; stroke: #000000; stroke-opacity: 0.8"/>
    </g>
   </g>
   <g id="line2d_1">
    <path d="M 186.698679 320.4 
L 186.699122 320.4 
L 186.70355 320.4 
L 186.747831 320.4 
L 186.890072 320.4 
L 187.008575 320.4 
L 187.36745 320.4 
L 187.645329 320.4 
L 188.407057 320.4 
L 188.912814 320.4 
L 190.158419 320.4 
L 190.894191 320.4 
L 192.671311 320.4 
L 193.610898 319.237271 
L 195.663815 314.570626 
L 196.793943 312.156271 
L 199.015101 307.533817 
L 200.320927 304.8657 
L 202.598008 300.233881 
L 204.030043 297.337799 
L 206.681113 291.965985 
L 208.203906 288.892842 
L 210.883378 283.46839 
L 212.631757 279.939597 
L 215.311229 274.516242 
L 217.245353 270.611127 
L 219.924825 265.188337 
L 221.99237 261.012779 
L 224.671842 255.590865 
L 226.847634 251.196222 
L 229.115509 246.614988 
L 231.53586 241.724314 
L 234.036352 236.67173 
L 236.631899 231.427272 
L 239.276481 226.085422 
L 241.955953 220.67583 
L 244.635424 215.270527 
L 247.314896 209.870517 
L 249.994368 204.477064 
L 252.67384 199.091876 
L 255.353311 193.717394 
L 258.032783 188.357174 
L 260.712255 183.016398 
L 263.391727 177.702534 
L 266.071199 172.426202 
L 268.75067 167.202285 
L 271.430142 162.051294 
L 274.109614 157.00095 
L 276.789086 152.087748 
L 279.468558 147.358092 
L 282.148029 142.868253 
L 284.827501 138.682179 
L 287.506973 134.866347 
L 290.186445 131.481591 
L 292.865917 128.573364 
L 295.545388 126.163351 
L 298.22486 124.245685 
L 300.904332 122.7895 
L 303.583804 121.746897 
L 306.263275 121.063351 
L 308.942747 120.687281 
L 311.622219 120.576759 
L 314.301691 120.702947 
L 316.981163 121.051006 
L 319.660634 121.619648 
L 322.340106 122.420421 
L 325.019578 123.477763 
L 327.69905 124.830805 
L 329.763498 126.111399 
L 331.703691 127.540692 
L 333.643884 129.234365 
L 335.271836 130.906203 
L 337.088605 133.114378 
L 338.580583 135.277983 
L 341.260055 140.34159 
L 343.150988 145.458116 
L 345.83046 158.372564 
L 346.270018 162.133934 
L 346.805913 168.435087 
L 347.49622 183.551805 
L 347.672401 190.953659 
L 347.743991 194.815344 
L 347.866613 202.451312 
L 347.946925 207.843081 
L 348.048969 214.815199 
L 348.151013 221.807926 
L 348.313454 233.093041 
L 348.583552 252.699523 
L 348.85365 271.766485 
L 349.165184 292.077014 
L 349.488148 306.478049 
L 349.861531 313.201274 
L 350.30167 315.321941 
L 351.070395 317.120318 
L 352.502649 320.23068 
L 354.572738 320.4 
L 356.642827 320.4 
L 359.141084 320.4 
L 361.639341 320.4 
L 364.318813 320.4 
L 366.998285 320.4 
L 369.677757 320.4 
L 372.357228 320.4 
L 375.0367 320.4 
L 377.716172 320.4 
L 380.395644 320.4 
L 383.075115 320.4 
L 385.754587 320.4 
L 388.434059 320.4 
L 391.113531 320.4 
L 393.793003 320.4 
L 396.472474 320.4 
L 399.151946 320.4 
L 401.056423 320.4 
" clip-path="url(#p0a5ba510f0)" style="fill: none; stroke: #7cfc00; stroke-width: 1.5; stroke-linecap: round"/>
   </g>
  </g>
  <g id="axes_2">
   <g id="patch_7">
    <path d="M 476.081633 320.4 
L 703.836735 320.4 
L 703.836735 43.2 
L 476.081633 43.2 
z
" style="fill: #ffffff"/>
   </g>
   <g id="matplotlib.axis_3">
    <g id="xtick_6">
     <g id="text_13">
      <!-- 0 -->
      <g style="fill: #262626" transform="translate(474.10525 352.232375) scale(0.312 -0.312)">
       <use xlink:href="#ArialMT-30"/>
      </g>
     </g>
    </g>
    <g id="xtick_7">
     <g id="text_14">
      <!-- 2 -->
      <g style="fill: #262626" transform="translate(527.694685 352.232375) scale(0.312 -0.312)">
       <use xlink:href="#ArialMT-32"/>
      </g>
     </g>
    </g>
    <g id="xtick_8">
     <g id="text_15">
      <!-- 4 -->
      <g style="fill: #262626" transform="translate(581.284121 352.232375) scale(0.312 -0.312)">
       <use xlink:href="#ArialMT-34"/>
      </g>
     </g>
    </g>
    <g id="xtick_9">
     <g id="text_16">
      <!-- 6 -->
      <g style="fill: #262626" transform="translate(634.873557 352.232375) scale(0.312 -0.312)">
       <use xlink:href="#ArialMT-36"/>
      </g>
     </g>
    </g>
    <g id="xtick_10">
     <g id="text_17">
      <!-- 8 -->
      <g style="fill: #262626" transform="translate(688.462993 352.232375) scale(0.312 -0.312)">
       <use xlink:href="#ArialMT-38"/>
      </g>
     </g>
    </g>
    <g id="text_18">
     <!-- Time (d) -->
     <g style="fill: #262626" transform="translate(537.272621 383.253281) scale(0.286 -0.286)">
      <use xlink:href="#ArialMT-54"/>
      <use xlink:href="#ArialMT-69" transform="translate(57.333984 0)"/>
      <use xlink:href="#ArialMT-6d" transform="translate(79.550781 0)"/>
      <use xlink:href="#ArialMT-65" transform="translate(162.851562 0)"/>
      <use xlink:href="#ArialMT-20" transform="translate(218.466797 0)"/>
      <use xlink:href="#ArialMT-28" transform="translate(246.25 0)"/>
      <use xlink:href="#ArialMT-64" transform="translate(279.550781 0)"/>
      <use xlink:href="#ArialMT-29" transform="translate(335.166016 0)"/>
     </g>
    </g>
   </g>
   <g id="matplotlib.axis_4">
    <g id="ytick_6">
     <g id="text_19">
      <!-- 4 -->
      <g style="fill: #262626" transform="translate(449.231508 269.966187) scale(0.312 -0.312)">
       <use xlink:href="#ArialMT-34"/>
      </g>
     </g>
    </g>
    <g id="ytick_7">
     <g id="text_20">
      <!-- 6 -->
      <g style="fill: #262626" transform="translate(449.231508 146.766188) scale(0.312 -0.312)">
       <use xlink:href="#ArialMT-36"/>
      </g>
     </g>
    </g>
    <g id="text_21">
     <!-- Log$_{10}$ CD8$^+$ T cells -->
     <g style="fill: #262626" transform="translate(438.939508 309.642) rotate(-90) scale(0.286 -0.286)">
      <defs>
       <path id="ArialMT-43" d="M 3763 1606 
L 4369 1453 
Q 4178 706 3683 314 
Q 3188 -78 2472 -78 
Q 1731 -78 1267 223 
Q 803 525 561 1097 
Q 319 1669 319 2325 
Q 319 3041 592 3573 
Q 866 4106 1370 4382 
Q 1875 4659 2481 4659 
Q 3169 4659 3637 4309 
Q 4106 3959 4291 3325 
L 3694 3184 
Q 3534 3684 3231 3912 
Q 2928 4141 2469 4141 
Q 1941 4141 1586 3887 
Q 1231 3634 1087 3207 
Q 944 2781 944 2328 
Q 944 1744 1114 1308 
Q 1284 872 1643 656 
Q 2003 441 2422 441 
Q 2931 441 3284 734 
Q 3638 1028 3763 1606 
z
" transform="scale(0.015625)"/>
       <path id="ArialMT-44" d="M 494 0 
L 494 4581 
L 2072 4581 
Q 2606 4581 2888 4516 
Q 3281 4425 3559 4188 
Q 3922 3881 4101 3404 
Q 4281 2928 4281 2316 
Q 4281 1794 4159 1391 
Q 4038 988 3847 723 
Q 3656 459 3429 307 
Q 3203 156 2883 78 
Q 2563 0 2147 0 
L 494 0 
z
M 1100 541 
L 2078 541 
Q 2531 541 2789 625 
Q 3047 709 3200 863 
Q 3416 1078 3536 1442 
Q 3656 1806 3656 2325 
Q 3656 3044 3420 3430 
Q 3184 3816 2847 3947 
Q 2603 4041 2063 4041 
L 1100 4041 
L 1100 541 
z
" transform="scale(0.015625)"/>
       <path id="DejaVuSans-2b" d="M 2944 4013 
L 2944 2272 
L 4684 2272 
L 4684 1741 
L 2944 1741 
L 2944 0 
L 2419 0 
L 2419 1741 
L 678 1741 
L 678 2272 
L 2419 2272 
L 2419 4013 
L 2944 4013 
z
" transform="scale(0.015625)"/>
       <path id="ArialMT-6c" d="M 409 0 
L 409 4581 
L 972 4581 
L 972 0 
L 409 0 
z
" transform="scale(0.015625)"/>
      </defs>
      <use xlink:href="#ArialMT-4c" transform="translate(0 0.826562)"/>
      <use xlink:href="#ArialMT-6f" transform="translate(55.615234 0.826562)"/>
      <use xlink:href="#ArialMT-67" transform="translate(111.230469 0.826562)"/>
      <use xlink:href="#DejaVuSans-31" transform="translate(167.802734 -15.579688) scale(0.7)"/>
      <use xlink:href="#DejaVuSans-30" transform="translate(212.338867 -15.579688) scale(0.7)"/>
      <use xlink:href="#ArialMT-20" transform="translate(259.609375 0.826562)"/>
      <use xlink:href="#ArialMT-43" transform="translate(287.392578 0.826562)"/>
      <use xlink:href="#ArialMT-44" transform="translate(359.609375 0.826562)"/>
      <use xlink:href="#ArialMT-38" transform="translate(431.826172 0.826562)"/>
      <use xlink:href="#DejaVuSans-2b" transform="translate(502.036133 39.107812) scale(0.7)"/>
      <use xlink:href="#ArialMT-20" transform="translate(577.060547 0.826562)"/>
      <use xlink:href="#ArialMT-54" transform="translate(604.84375 0.826562)"/>
      <use xlink:href="#ArialMT-20" transform="translate(665.927734 0.826562)"/>
      <use xlink:href="#ArialMT-63" transform="translate(693.710938 0.826562)"/>
      <use xlink:href="#ArialMT-65" transform="translate(743.710938 0.826562)"/>
      <use xlink:href="#ArialMT-6c" transform="translate(799.326172 0.826562)"/>
      <use xlink:href="#ArialMT-6c" transform="translate(821.542969 0.826562)"/>
      <use xlink:href="#ArialMT-73" transform="translate(843.759766 0.826562)"/>
     </g>
    </g>
   </g>
   <g id="patch_8">
    <path d="M 476.081633 320.4 
L 476.081633 43.2 
" style="fill: none; stroke: #262626; stroke-width: 1.25; stroke-linejoin: miter; stroke-linecap: square"/>
   </g>
   <g id="patch_9">
    <path d="M 703.836735 320.4 
L 703.836735 43.2 
" style="fill: none; stroke: #262626; stroke-width: 1.25; stroke-linejoin: miter; stroke-linecap: square"/>
   </g>
   <g id="patch_10">
    <path d="M 476.081633 320.4 
L 703.836735 320.4 
" style="fill: none; stroke: #262626; stroke-width: 1.25; stroke-linejoin: miter; stroke-linecap: square"/>
   </g>
   <g id="patch_11">
    <path d="M 476.081633 43.2 
L 703.836735 43.2 
" style="fill: none; stroke: #262626; stroke-width: 1.25; stroke-linejoin: miter; stroke-linecap: square"/>
   </g>
   <g id="FillBetweenPolyCollection_2">
    <defs>
     <path id="m8a03987489" d="M 482.780312 -161.678569 
L 482.780312 -161.678569 
L 482.780755 -161.678569 
L 482.785183 -161.678569 
L 482.829463 -161.678569 
L 482.971705 -161.678569 
L 483.090208 -161.678569 
L 483.449082 -161.678569 
L 483.726962 -161.678569 
L 484.48869 -161.678569 
L 484.994447 -161.678569 
L 486.240052 -161.678569 
L 486.975824 -161.678569 
L 488.752944 -161.678569 
L 489.692531 -161.678569 
L 491.745448 -161.678569 
L 492.875576 -161.678569 
L 495.096734 -161.678569 
L 496.40256 -161.678569 
L 498.67964 -161.67857 
L 500.111676 -161.67857 
L 502.762746 -161.678573 
L 504.285539 -161.678576 
L 506.96501 -161.678589 
L 508.71339 -161.678605 
L 511.392862 -161.67865 
L 513.326986 -161.678702 
L 516.006458 -161.678824 
L 518.074003 -161.678966 
L 520.753475 -161.67925 
L 522.929267 -161.679582 
L 525.197141 -161.68009 
L 527.617493 -161.680816 
L 530.117984 -161.681917 
L 532.713531 -161.683515 
L 535.358113 -161.685938 
L 538.037585 -161.689464 
L 540.717057 -161.69459 
L 543.396529 -161.702016 
L 546.076001 -161.712842 
L 548.755472 -161.728584 
L 551.434944 -161.751533 
L 554.114416 -161.784927 
L 556.793888 -161.833536 
L 559.47336 -161.904238 
L 562.152831 -162.006952 
L 564.832303 -162.155905 
L 567.511775 -162.371355 
L 570.191247 -162.681829 
L 572.870718 -163.126874 
L 575.55019 -163.760081 
L 578.229662 -164.606921 
L 580.909134 -165.757629 
L 583.588606 -167.279285 
L 586.268077 -169.238763 
L 588.947549 -171.778004 
L 591.627021 -174.987868 
L 594.306493 -178.857705 
L 596.985965 -183.471377 
L 599.665436 -188.699075 
L 602.344908 -194.428848 
L 605.02438 -200.506655 
L 607.703852 -206.763427 
L 610.383323 -213.033883 
L 613.062795 -219.170096 
L 615.742267 -225.049025 
L 618.421739 -230.575051 
L 621.101211 -235.53251 
L 623.780682 -239.708911 
L 625.845131 -242.631645 
L 627.785324 -245.05497 
L 629.725517 -247.115407 
L 631.353469 -248.576373 
L 633.170238 -249.948945 
L 634.662216 -250.565479 
L 637.341688 -250.740576 
L 639.232621 -250.654002 
L 641.912092 -250.289667 
L 642.351651 -250.221263 
L 642.887545 -250.09085 
L 643.577852 -249.918006 
L 643.754034 -249.873892 
L 643.825624 -249.855967 
L 643.948246 -249.825264 
L 644.028557 -249.805155 
L 644.130602 -249.779604 
L 644.232646 -249.754054 
L 644.395087 -249.713381 
L 644.665185 -249.645752 
L 644.935282 -249.578122 
L 645.246816 -249.491084 
L 645.569781 -249.393632 
L 645.943163 -249.27652 
L 646.383302 -249.133283 
L 647.152028 -248.870425 
L 648.584281 -248.336309 
L 650.654371 -247.484225 
L 652.72446 -246.548392 
L 655.222717 -245.314 
L 657.720974 -243.989775 
L 660.400446 -242.492718 
L 663.079917 -240.930723 
L 665.759389 -239.319891 
L 668.438861 -237.671787 
L 671.118333 -235.996782 
L 673.797805 -233.785744 
L 676.477276 -231.33378 
L 679.156748 -228.858055 
L 681.83622 -226.369489 
L 684.515692 -223.692502 
L 687.195163 -220.637655 
L 689.874635 -217.603674 
L 692.554107 -214.600498 
L 695.233579 -211.636889 
L 697.138055 -209.557468 
L 697.138055 -269.893082 
L 697.138055 -269.893082 
L 695.233579 -270.16048 
L 692.554107 -270.535492 
L 689.874635 -270.908225 
L 687.195163 -271.277727 
L 684.515692 -271.642694 
L 681.83622 -272.001359 
L 679.156748 -272.351346 
L 676.477276 -272.689499 
L 673.797805 -273.01167 
L 671.118333 -273.312476 
L 668.438861 -273.585024 
L 665.759389 -273.823076 
L 663.079917 -274.009781 
L 660.400446 -274.144511 
L 657.720974 -274.196119 
L 655.222717 -274.356508 
L 652.72446 -274.430794 
L 650.654371 -274.385193 
L 648.584281 -274.182444 
L 647.152028 -273.974172 
L 646.383302 -273.830344 
L 645.943163 -273.735486 
L 645.569781 -273.648076 
L 645.246816 -273.567963 
L 644.935282 -273.486635 
L 644.665185 -273.412896 
L 644.395087 -273.336062 
L 644.232646 -273.288231 
L 644.130602 -273.257678 
L 644.028557 -273.226677 
L 643.948246 -273.202133 
L 643.825624 -273.163894 
L 643.754034 -273.141195 
L 643.577852 -273.084645 
L 642.887545 -272.849176 
L 642.351651 -272.650718 
L 641.912092 -272.479664 
L 639.232621 -271.204318 
L 637.341688 -270.079706 
L 634.662216 -268.173589 
L 633.170238 -266.967782 
L 631.353469 -265.252059 
L 629.725517 -263.888603 
L 627.785324 -262.028302 
L 625.845131 -259.917583 
L 623.780682 -257.726568 
L 621.101211 -255.039909 
L 618.421739 -251.741342 
L 615.742267 -247.808292 
L 613.062795 -243.266791 
L 610.383323 -238.139633 
L 607.703852 -232.475763 
L 605.02438 -226.349133 
L 602.344908 -219.860942 
L 599.665436 -213.140477 
L 596.985965 -206.34355 
L 594.306493 -199.647208 
L 591.627021 -193.239158 
L 588.947549 -187.301043 
L 586.268077 -181.98698 
L 583.588606 -177.40222 
L 580.909134 -173.589255 
L 578.229662 -170.527225 
L 575.55019 -168.144798 
L 572.870718 -166.340792 
L 570.191247 -165.00485 
L 567.511775 -164.032746 
L 564.832303 -163.334815 
L 562.152831 -162.838722 
L 559.47336 -162.488672 
L 556.793888 -162.242979 
L 554.114416 -162.071188 
L 551.434944 -161.951394 
L 548.755472 -161.86802 
L 546.076001 -161.81007 
L 543.396529 -161.769828 
L 540.717057 -161.741897 
L 538.037585 -161.722508 
L 535.358113 -161.709008 
L 532.713531 -161.69974 
L 530.117984 -161.693357 
L 527.617493 -161.68905 
L 525.197141 -161.686046 
L 522.929267 -161.683976 
L 520.753475 -161.682482 
L 518.074003 -161.681195 
L 516.006458 -161.680415 
L 513.326986 -161.679721 
L 511.392862 -161.679329 
L 508.71339 -161.67899 
L 506.96501 -161.678826 
L 504.285539 -161.678687 
L 502.762746 -161.678634 
L 500.111676 -161.678592 
L 498.67964 -161.678579 
L 496.40256 -161.678572 
L 495.096734 -161.67857 
L 492.875576 -161.678569 
L 491.745448 -161.678569 
L 489.692531 -161.678569 
L 488.752944 -161.678569 
L 486.975824 -161.678569 
L 486.240052 -161.678569 
L 484.994447 -161.678569 
L 484.48869 -161.678569 
L 483.726962 -161.678569 
L 483.449082 -161.678569 
L 483.090208 -161.678569 
L 482.971705 -161.678569 
L 482.829463 -161.678569 
L 482.785183 -161.678569 
L 482.780755 -161.678569 
L 482.780312 -161.678569 
z
" style="stroke: #7cfc00; stroke-opacity: 0.2"/>
    </defs>
    <g clip-path="url(#p6c93567fc0)">
     <use xlink:href="#m8a03987489" x="0" y="360" style="fill: #7cfc00; fill-opacity: 0.2; stroke: #7cfc00; stroke-opacity: 0.2"/>
    </g>
   </g>
   <g id="FillBetweenPolyCollection_3">
    <defs>
     <path id="m4db16c2bed" d="M 482.780312 -88.711681 
L 482.780312 -88.711681 
L 482.780755 -88.711681 
L 482.785183 -88.711681 
L 482.829463 -88.711681 
L 482.971705 -88.711681 
L 483.090208 -88.711681 
L 483.449082 -88.711681 
L 483.726962 -88.711681 
L 484.48869 -88.711681 
L 484.994447 -88.711681 
L 486.240052 -88.711681 
L 486.975824 -88.711681 
L 488.752944 -88.711681 
L 489.692531 -88.711681 
L 491.745448 -88.711681 
L 492.875576 -88.711681 
L 495.096734 -88.711681 
L 496.40256 -88.711681 
L 498.67964 -88.711681 
L 500.111676 -88.711681 
L 502.762746 -88.711681 
L 504.285539 -88.711681 
L 506.96501 -88.711681 
L 508.71339 -88.711681 
L 511.392862 -88.711681 
L 513.326986 -88.711681 
L 516.006458 -88.711681 
L 518.074003 -88.711681 
L 520.753475 -88.711681 
L 522.929267 -88.711681 
L 525.197141 -88.711681 
L 527.617493 -88.711682 
L 530.117984 -88.711683 
L 532.713531 -88.711684 
L 535.358113 -88.711686 
L 538.037585 -88.71169 
L 540.717057 -88.711695 
L 543.396529 -88.711702 
L 546.076001 -88.711713 
L 548.755472 -88.711728 
L 551.434944 -88.711751 
L 554.114416 -88.711783 
L 556.793888 -88.711829 
L 559.47336 -88.711895 
L 562.152831 -88.711991 
L 564.832303 -88.712126 
L 567.511775 -88.712327 
L 570.191247 -88.712608 
L 572.870718 -88.713022 
L 575.55019 -88.713606 
L 578.229662 -88.714444 
L 580.909134 -88.715629 
L 583.588606 -88.717321 
L 586.268077 -88.719735 
L 588.947549 -88.723177 
L 591.627021 -88.728079 
L 594.306493 -88.735052 
L 596.985965 -88.744953 
L 599.665436 -88.758976 
L 602.344908 -88.778771 
L 605.02438 -88.806591 
L 607.703852 -88.845458 
L 610.383323 -88.89935 
L 613.062795 -88.973363 
L 615.742267 -89.07382 
L 618.421739 -89.208263 
L 621.101211 -89.385255 
L 623.780682 -89.613956 
L 625.845131 -89.836809 
L 627.785324 -90.076049 
L 629.725517 -90.347313 
L 631.353469 -90.602914 
L 633.170238 -90.906459 
L 634.662216 -91.17733 
L 637.341688 -91.712969 
L 639.232621 -92.126765 
L 641.912092 -92.750399 
L 642.351651 -92.856198 
L 642.887545 -92.985184 
L 643.577852 -93.154716 
L 643.754034 -93.198658 
L 643.825624 -93.216712 
L 643.948246 -93.247742 
L 644.028557 -93.268065 
L 644.130602 -93.293887 
L 644.232646 -93.319709 
L 644.395087 -93.360815 
L 644.665185 -93.429163 
L 644.935282 -93.497838 
L 645.246816 -93.577768 
L 645.569781 -93.660806 
L 645.943163 -93.757309 
L 646.383302 -93.871684 
L 647.152028 -94.072869 
L 648.584281 -94.451846 
L 650.654371 -95.005783 
L 652.72446 -95.561393 
L 655.222717 -96.23033 
L 657.720974 -96.888891 
L 660.400446 -97.582314 
L 663.079917 -98.115686 
L 665.759389 -98.599113 
L 668.438861 -99.046167 
L 671.118333 -99.457582 
L 673.797805 -99.834743 
L 676.477276 -100.179438 
L 679.156748 -100.493686 
L 681.83622 -100.77966 
L 684.515692 -101.039564 
L 687.195163 -101.275551 
L 689.874635 -101.489683 
L 692.554107 -101.683928 
L 695.233579 -101.860097 
L 697.138055 -101.977003 
L 697.138055 -143.53326 
L 697.138055 -143.53326 
L 695.233579 -143.061279 
L 692.554107 -142.367484 
L 689.874635 -141.631948 
L 687.195163 -140.851048 
L 684.515692 -140.020752 
L 681.83622 -139.136572 
L 679.156748 -138.193524 
L 676.477276 -137.186086 
L 673.797805 -136.108178 
L 671.118333 -134.954573 
L 668.438861 -133.709167 
L 665.759389 -132.38261 
L 663.079917 -130.945894 
L 660.400446 -129.418964 
L 657.720974 -127.764264 
L 655.222717 -126.095584 
L 652.72446 -124.342775 
L 650.654371 -122.781506 
L 648.584281 -121.16861 
L 647.152028 -119.997349 
L 646.383302 -119.353309 
L 645.943163 -118.980119 
L 645.569781 -118.660982 
L 645.246816 -118.383057 
L 644.935282 -118.113292 
L 644.665185 -117.877826 
L 644.395087 -117.641327 
L 644.232646 -117.499048 
L 644.130602 -117.40898 
L 644.028557 -117.318913 
L 643.948246 -117.248028 
L 643.825624 -117.139265 
L 643.754034 -117.074988 
L 643.577852 -116.916802 
L 642.887545 -116.297003 
L 642.351651 -115.815845 
L 641.912092 -115.415364 
L 639.232621 -112.92403 
L 637.341688 -111.127948 
L 634.662216 -108.553521 
L 633.170238 -107.121361 
L 631.353469 -105.395443 
L 629.725517 -103.873263 
L 627.785324 -102.115809 
L 625.845131 -100.434806 
L 623.780682 -98.775952 
L 621.101211 -96.804242 
L 618.421739 -95.08616 
L 615.742267 -93.63479 
L 613.062795 -92.445159 
L 610.383323 -91.497246 
L 607.703852 -90.760991 
L 605.02438 -90.201736 
L 602.344908 -89.784842 
L 599.665436 -89.478812 
L 596.985965 -89.256894 
L 594.306493 -89.097488 
L 591.627021 -88.983807 
L 588.947549 -88.903166 
L 586.268077 -88.846189 
L 583.588606 -88.806046 
L 580.909134 -88.777821 
L 578.229662 -88.758005 
L 575.55019 -88.744109 
L 572.870718 -88.73437 
L 570.191247 -88.727549 
L 567.511775 -88.722774 
L 564.832303 -88.719432 
L 562.152831 -88.717093 
L 559.47336 -88.715458 
L 556.793888 -88.714313 
L 554.114416 -88.713513 
L 551.434944 -88.712954 
L 548.755472 -88.712563 
L 546.076001 -88.712289 
L 543.396529 -88.712099 
L 540.717057 -88.711965 
L 538.037585 -88.711873 
L 535.358113 -88.711808 
L 532.713531 -88.711764 
L 530.117984 -88.711735 
L 527.617493 -88.711715 
L 525.197141 -88.711702 
L 522.929267 -88.711694 
L 520.753475 -88.711688 
L 518.074003 -88.711684 
L 516.006458 -88.711683 
L 513.326986 -88.711681 
L 511.392862 -88.711681 
L 508.71339 -88.711681 
L 506.96501 -88.711681 
L 504.285539 -88.711681 
L 502.762746 -88.711681 
L 500.111676 -88.711681 
L 498.67964 -88.711681 
L 496.40256 -88.711681 
L 495.096734 -88.711681 
L 492.875576 -88.711681 
L 491.745448 -88.711681 
L 489.692531 -88.711681 
L 488.752944 -88.711681 
L 486.975824 -88.711681 
L 486.240052 -88.711681 
L 484.994447 -88.711681 
L 484.48869 -88.711681 
L 483.726962 -88.711681 
L 483.449082 -88.711681 
L 483.090208 -88.711681 
L 482.971705 -88.711681 
L 482.829463 -88.711681 
L 482.785183 -88.711681 
L 482.780755 -88.711681 
L 482.780312 -88.711681 
z
" style="stroke: #7cfc00; stroke-opacity: 0.2"/>
    </defs>
    <g clip-path="url(#p6c93567fc0)">
     <use xlink:href="#m4db16c2bed" x="0" y="360" style="fill: #7cfc00; fill-opacity: 0.2; stroke: #7cfc00; stroke-opacity: 0.2"/>
    </g>
   </g>
   <g id="PathCollection_2">
    <g clip-path="url(#p6c93567fc0)">
     <use xlink:href="#md8894a2e3d" x="482.780312" y="198.321431" style="fill-opacity: 0.8; stroke: #000000; stroke-opacity: 0.8"/>
     <use xlink:href="#md8894a2e3d" x="509.57503" y="196.624374" style="fill-opacity: 0.8; stroke: #000000; stroke-opacity: 0.8"/>
     <use xlink:href="#md8894a2e3d" x="536.369748" y="221.790687" style="fill-opacity: 0.8; stroke: #000000; stroke-opacity: 0.8"/>
     <use xlink:href="#md8894a2e3d" x="563.164466" y="209.112501" style="fill-opacity: 0.8; stroke: #000000; stroke-opacity: 0.8"/>
     <use xlink:href="#md8894a2e3d" x="589.959184" y="185.489042" style="fill-opacity: 0.8; stroke: #000000; stroke-opacity: 0.8"/>
     <use xlink:href="#md8894a2e3d" x="616.753902" y="120.506023" style="fill-opacity: 0.8; stroke: #000000; stroke-opacity: 0.8"/>
     <use xlink:href="#md8894a2e3d" x="643.548619" y="102.922887" style="fill-opacity: 0.8; stroke: #000000; stroke-opacity: 0.8"/>
     <use xlink:href="#md8894a2e3d" x="670.343337" y="104.980216" style="fill-opacity: 0.8; stroke: #000000; stroke-opacity: 0.8"/>
    </g>
   </g>
   <g id="PathCollection_3">
    <defs>
     <path id="mbc4a3053d8" d="M -4.330127 4.330127 
L 4.330127 4.330127 
L 4.330127 -4.330127 
L -4.330127 -4.330127 
z
" style="stroke: #000000; stroke-opacity: 0.8"/>
    </defs>
    <g clip-path="url(#p6c93567fc0)">
     <use xlink:href="#mbc4a3053d8" x="482.780312" y="271.287876" style="fill-opacity: 0.8; stroke: #000000; stroke-opacity: 0.8"/>
     <use xlink:href="#mbc4a3053d8" x="509.57503" y="273.658291" style="fill-opacity: 0.8; stroke: #000000; stroke-opacity: 0.8"/>
     <use xlink:href="#mbc4a3053d8" x="536.369748" y="267.707369" style="fill-opacity: 0.8; stroke: #000000; stroke-opacity: 0.8"/>
     <use xlink:href="#mbc4a3053d8" x="563.164466" y="278.450196" style="fill-opacity: 0.8; stroke: #000000; stroke-opacity: 0.8"/>
     <use xlink:href="#mbc4a3053d8" x="589.959184" y="277.198489" style="fill-opacity: 0.8; stroke: #000000; stroke-opacity: 0.8"/>
     <use xlink:href="#mbc4a3053d8" x="616.753902" y="263.535463" style="fill-opacity: 0.8; stroke: #000000; stroke-opacity: 0.8"/>
     <use xlink:href="#mbc4a3053d8" x="643.548619" y="257.708397" style="fill-opacity: 0.8; stroke: #000000; stroke-opacity: 0.8"/>
     <use xlink:href="#mbc4a3053d8" x="670.343337" y="244.888303" style="fill-opacity: 0.8; stroke: #000000; stroke-opacity: 0.8"/>
    </g>
   </g>
   <g id="line2d_2">
    <path d="M 482.780312 198.321431 
L 482.780755 198.321431 
L 482.785183 198.321431 
L 482.829463 198.321431 
L 482.971705 198.321431 
L 483.090208 198.321431 
L 483.449082 198.321431 
L 483.726962 198.321431 
L 484.48869 198.321431 
L 484.994447 198.321431 
L 486.240052 198.321431 
L 486.975824 198.321431 
L 488.752944 198.321431 
L 489.692531 198.321431 
L 491.745448 198.321431 
L 492.875576 198.321431 
L 495.096734 198.32143 
L 496.40256 198.321429 
L 498.67964 198.321425 
L 500.111676 198.321419 
L 502.762746 198.321394 
L 504.285539 198.321367 
L 506.96501 198.32128 
L 508.71339 198.321187 
L 511.392862 198.320963 
L 513.326986 198.320723 
L 516.006458 198.320248 
L 518.074003 198.319737 
L 520.753475 198.318823 
L 522.929267 198.317808 
L 525.197141 198.316396 
L 527.617493 198.314354 
L 530.117984 198.311442 
L 532.713531 198.307212 
L 535.358113 198.301109 
L 538.037585 198.292287 
L 540.717057 198.279661 
L 543.396529 198.261584 
L 546.076001 198.235697 
L 548.755472 198.198635 
L 551.434944 198.145601 
L 554.114416 198.069772 
L 556.793888 197.961482 
L 559.47336 197.807094 
L 562.152831 197.587514 
L 564.832303 197.276262 
L 567.511775 196.837125 
L 570.191247 196.221556 
L 572.870718 195.366268 
L 575.55019 194.191965 
L 578.229662 192.604741 
L 580.909134 190.50209 
L 583.588606 187.785065 
L 586.268077 184.37622 
L 588.947549 180.239612 
L 591.627021 175.396115 
L 594.306493 169.92756 
L 596.985965 163.967524 
L 599.665436 157.682629 
L 602.344908 151.251138 
L 605.02438 144.844671 
L 607.703852 138.615767 
L 610.383323 132.691216 
L 613.062795 127.169802 
L 615.742267 122.12294 
L 618.421739 117.596979 
L 621.101211 113.61637 
L 623.780682 110.187115 
L 625.845131 107.914391 
L 627.785324 106.064495 
L 629.725517 104.481658 
L 631.353469 103.350468 
L 633.170238 102.290007 
L 634.662216 101.569919 
L 637.341688 100.594046 
L 639.232621 100.131144 
L 641.912092 99.761472 
L 642.351651 99.730592 
L 642.887545 99.703532 
L 643.577852 99.685301 
L 643.754034 99.683578 
L 643.825624 99.683212 
L 643.948246 99.68303 
L 644.028557 99.683214 
L 644.130602 99.683791 
L 644.232646 99.684752 
L 644.395087 99.687064 
L 644.665185 99.693019 
L 644.935282 99.701573 
L 645.246816 99.714615 
L 645.569781 99.731664 
L 645.943163 99.755759 
L 646.383302 99.790063 
L 647.152028 99.864783 
L 648.584281 100.051418 
L 650.654371 100.420615 
L 652.72446 100.893914 
L 655.222717 101.583004 
L 657.720974 102.380314 
L 660.400446 103.333118 
L 663.079917 104.366809 
L 665.759389 105.463856 
L 668.438861 106.609805 
L 671.118333 107.792931 
L 673.797805 109.003849 
L 676.477276 110.235153 
L 679.156748 111.481059 
L 681.83622 112.7371 
L 684.515692 113.99985 
L 687.195163 115.266696 
L 689.874635 116.535656 
L 692.554107 117.805222 
L 695.233579 119.074247 
L 697.138055 119.97537 
" clip-path="url(#p6c93567fc0)" style="fill: none; stroke: #7cfc00; stroke-width: 1.5; stroke-linecap: round"/>
   </g>
   <g id="line2d_3">
    <path d="M 482.780312 271.288319 
L 482.780755 271.288319 
L 482.785183 271.288319 
L 482.829463 271.288319 
L 482.971705 271.288319 
L 483.090208 271.288319 
L 483.449082 271.288319 
L 483.726962 271.288319 
L 484.48869 271.288319 
L 484.994447 271.288319 
L 486.240052 271.288319 
L 486.975824 271.288319 
L 488.752944 271.288319 
L 489.692531 271.288319 
L 491.745448 271.288319 
L 492.875576 271.288319 
L 495.096734 271.288319 
L 496.40256 271.288319 
L 498.67964 271.288319 
L 500.111676 271.288319 
L 502.762746 271.288319 
L 504.285539 271.288319 
L 506.96501 271.288319 
L 508.71339 271.288319 
L 511.392862 271.288319 
L 513.326986 271.288319 
L 516.006458 271.288319 
L 518.074003 271.288319 
L 520.753475 271.288317 
L 522.929267 271.288316 
L 525.197141 271.288313 
L 527.617493 271.288309 
L 530.117984 271.288303 
L 532.713531 271.288293 
L 535.358113 271.288278 
L 538.037585 271.288256 
L 540.717057 271.288225 
L 543.396529 271.288179 
L 546.076001 271.288114 
L 548.755472 271.288021 
L 551.434944 271.287887 
L 554.114416 271.287696 
L 556.793888 271.287421 
L 559.47336 271.287027 
L 562.152831 271.286462 
L 564.832303 271.285653 
L 567.511775 271.284494 
L 570.191247 271.282833 
L 572.870718 271.280452 
L 575.55019 271.277043 
L 578.229662 271.272162 
L 580.909134 271.265177 
L 583.588606 271.25519 
L 586.268077 271.240924 
L 588.947549 271.220577 
L 591.627021 271.191609 
L 594.306493 271.150481 
L 596.985965 271.092297 
L 599.665436 271.010386 
L 602.344908 270.895825 
L 605.02438 270.736963 
L 607.703852 270.519076 
L 610.383323 270.224319 
L 613.062795 269.832203 
L 615.742267 269.320835 
L 618.421739 268.668996 
L 621.101211 267.858951 
L 623.780682 266.879534 
L 625.845131 266.007532 
L 627.785324 265.097812 
L 629.725517 264.107312 
L 631.353469 263.21995 
L 633.170238 262.177436 
L 634.662216 261.286665 
L 637.341688 259.628874 
L 639.232621 258.429974 
L 641.912092 256.716525 
L 642.351651 256.435508 
L 642.887545 256.093474 
L 643.577852 255.654131 
L 643.754034 255.542268 
L 643.825624 255.496848 
L 643.948246 255.419098 
L 644.028557 255.368208 
L 644.130602 255.303587 
L 644.232646 255.239012 
L 644.395087 255.136309 
L 644.665185 254.965795 
L 644.935282 254.7956 
L 645.246816 254.59969 
L 645.569781 254.397185 
L 645.943163 254.164207 
L 646.383302 253.890793 
L 647.152028 253.416484 
L 648.584281 252.545426 
L 650.654371 251.319298 
L 652.72446 250.137978 
L 655.222717 248.776595 
L 657.720974 247.48934 
L 660.400446 246.192782 
L 663.079917 244.98224 
L 665.759389 243.855119 
L 668.438861 242.807708 
L 671.118333 241.835433 
L 673.797805 240.933325 
L 676.477276 240.096276 
L 679.156748 239.319282 
L 681.83622 238.597553 
L 684.515692 237.926597 
L 687.195163 237.302242 
L 689.874635 236.720598 
L 692.554107 236.17823 
L 695.233579 235.67201 
L 697.138055 235.332535 
" clip-path="url(#p6c93567fc0)" style="fill: none; stroke-dasharray: 5.55,2.4; stroke-dashoffset: 0; stroke: #7cfc00; stroke-width: 1.5"/>
   </g>
  </g>
  <g id="text_22">
   <!-- Individual 312 -->
   <g style="fill: #262626" transform="translate(335.733375 29.532375) scale(0.312 -0.312)">
    <defs>
     <path id="ArialMT-49" d="M 597 0 
L 597 4581 
L 1203 4581 
L 1203 0 
L 597 0 
z
" transform="scale(0.015625)"/>
     <path id="ArialMT-6e" d="M 422 0 
L 422 3319 
L 928 3319 
L 928 2847 
Q 1294 3394 1984 3394 
Q 2284 3394 2536 3286 
Q 2788 3178 2913 3003 
Q 3038 2828 3088 2588 
Q 3119 2431 3119 2041 
L 3119 0 
L 2556 0 
L 2556 2019 
Q 2556 2363 2490 2533 
Q 2425 2703 2258 2804 
Q 2091 2906 1866 2906 
Q 1506 2906 1245 2678 
Q 984 2450 984 1813 
L 984 0 
L 422 0 
z
" transform="scale(0.015625)"/>
     <path id="ArialMT-76" d="M 1344 0 
L 81 3319 
L 675 3319 
L 1388 1331 
Q 1503 1009 1600 663 
Q 1675 925 1809 1294 
L 2547 3319 
L 3125 3319 
L 1869 0 
L 1344 0 
z
" transform="scale(0.015625)"/>
     <path id="ArialMT-61" d="M 2588 409 
Q 2275 144 1986 34 
Q 1697 -75 1366 -75 
Q 819 -75 525 192 
Q 231 459 231 875 
Q 231 1119 342 1320 
Q 453 1522 633 1644 
Q 813 1766 1038 1828 
Q 1203 1872 1538 1913 
Q 2219 1994 2541 2106 
Q 2544 2222 2544 2253 
Q 2544 2597 2384 2738 
Q 2169 2928 1744 2928 
Q 1347 2928 1158 2789 
Q 969 2650 878 2297 
L 328 2372 
Q 403 2725 575 2942 
Q 747 3159 1072 3276 
Q 1397 3394 1825 3394 
Q 2250 3394 2515 3294 
Q 2781 3194 2906 3042 
Q 3031 2891 3081 2659 
Q 3109 2516 3109 2141 
L 3109 1391 
Q 3109 606 3145 398 
Q 3181 191 3288 0 
L 2700 0 
Q 2613 175 2588 409 
z
M 2541 1666 
Q 2234 1541 1622 1453 
Q 1275 1403 1131 1340 
Q 988 1278 909 1158 
Q 831 1038 831 891 
Q 831 666 1001 516 
Q 1172 366 1500 366 
Q 1825 366 2078 508 
Q 2331 650 2450 897 
Q 2541 1088 2541 1459 
L 2541 1666 
z
" transform="scale(0.015625)"/>
     <path id="ArialMT-33" d="M 269 1209 
L 831 1284 
Q 928 806 1161 595 
Q 1394 384 1728 384 
Q 2125 384 2398 659 
Q 2672 934 2672 1341 
Q 2672 1728 2419 1979 
Q 2166 2231 1775 2231 
Q 1616 2231 1378 2169 
L 1441 2663 
Q 1497 2656 1531 2656 
Q 1891 2656 2178 2843 
Q 2466 3031 2466 3422 
Q 2466 3731 2256 3934 
Q 2047 4138 1716 4138 
Q 1388 4138 1169 3931 
Q 950 3725 888 3313 
L 325 3413 
Q 428 3978 793 4289 
Q 1159 4600 1703 4600 
Q 2078 4600 2393 4439 
Q 2709 4278 2876 4000 
Q 3044 3722 3044 3409 
Q 3044 3113 2884 2869 
Q 2725 2625 2413 2481 
Q 2819 2388 3044 2092 
Q 3269 1797 3269 1353 
Q 3269 753 2831 336 
Q 2394 -81 1725 -81 
Q 1122 -81 723 278 
Q 325 638 269 1209 
z
" transform="scale(0.015625)"/>
     <path id="ArialMT-31" d="M 2384 0 
L 1822 0 
L 1822 3584 
Q 1619 3391 1289 3197 
Q 959 3003 697 2906 
L 697 3450 
Q 1169 3672 1522 3987 
Q 1875 4303 2022 4600 
L 2384 4600 
L 2384 0 
z
" transform="scale(0.015625)"/>
    </defs>
    <use xlink:href="#ArialMT-49"/>
    <use xlink:href="#ArialMT-6e" transform="translate(27.783203 0)"/>
    <use xlink:href="#ArialMT-64" transform="translate(83.398438 0)"/>
    <use xlink:href="#ArialMT-69" transform="translate(139.013672 0)"/>
    <use xlink:href="#ArialMT-76" transform="translate(161.230469 0)"/>
    <use xlink:href="#ArialMT-69" transform="translate(211.230469 0)"/>
    <use xlink:href="#ArialMT-64" transform="translate(233.447266 0)"/>
    <use xlink:href="#ArialMT-75" transform="translate(289.0625 0)"/>
    <use xlink:href="#ArialMT-61" transform="translate(344.677734 0)"/>
    <use xlink:href="#ArialMT-6c" transform="translate(400.292969 0)"/>
    <use xlink:href="#ArialMT-20" transform="translate(422.509766 0)"/>
    <use xlink:href="#ArialMT-33" transform="translate(450.292969 0)"/>
    <use xlink:href="#ArialMT-31" transform="translate(505.908203 0)"/>
    <use xlink:href="#ArialMT-32" transform="translate(561.523438 0)"/>
   </g>
  </g>
 </g>
 <defs>
  <clipPath id="p0a5ba510f0">
   <rect x="180" y="43.2" width="227.755102" height="277.2"/>
  </clipPath>
  <clipPath id="p6c93567fc0">
   <rect x="476.081633" y="43.2" width="227.755102" height="277.2"/>
  </clipPath>
 </defs>
</svg>
