<?xml version="1.0" encoding="utf-8" standalone="no"?>
<!DOCTYPE svg PUBLIC "-//W3C//DTD SVG 1.1//EN"
  "http://www.w3.org/Graphics/SVG/1.1/DTD/svg11.dtd">
<svg xmlns:xlink="http://www.w3.org/1999/xlink" width="360pt" height="360pt" viewBox="0 0 360 360" xmlns="http://www.w3.org/2000/svg" version="1.1">
 <metadata>
  <rdf:RDF xmlns:dc="http://purl.org/dc/elements/1.1/" xmlns:cc="http://creativecommons.org/ns#" xmlns:rdf="http://www.w3.org/1999/02/22-rdf-syntax-ns#">
   <cc:Work>
    <dc:type rdf:resource="http://purl.org/dc/dcmitype/StillImage"/>
    <dc:date>2025-02-05T14:13:22.176171</dc:date>
    <dc:format>image/svg+xml</dc:format>
    <dc:creator>
     <cc:Agent>
      <dc:title>Matplotlib v3.10.0, https://matplotlib.org/</dc:title>
     </cc:Agent>
    </dc:creator>
   </cc:Work>
  </rdf:RDF>
 </metadata>
 <defs>
  <style type="text/css">*{stroke-linejoin: round; stroke-linecap: butt}</style>
 </defs>
 <g id="figure_1">
  <g id="patch_1">
   <path d="M 0 360 
L 360 360 
L 360 0 
L 0 0 
L 0 360 
z
" style="fill: none"/>
  </g>
  <g id="axes_1">
   <g id="patch_2">
    <path d="M 45 320.4 
L 324 320.4 
L 324 43.2 
L 45 43.2 
L 45 320.4 
z
" style="fill: none"/>
   </g>
   <g id="matplotlib.axis_1">
    <g id="xtick_1">
     <g id="line2d_1">
      <defs>
       <path id="me31a0eb75b" d="M 0 0 
L 0 3.5 
" style="stroke: #000000; stroke-width: 0.8"/>
      </defs>
      <g>
       <use xlink:href="#me31a0eb75b" x="53.205882" y="320.4" style="stroke: #000000; stroke-width: 0.8"/>
      </g>
     </g>
     <g id="text_1">
      <!-- 0 -->
      <g transform="translate(43.280382 351.107125) scale(0.312 -0.312)">
       <defs>
        <path id="DejaVuSans-30" d="M 2034 4250 
Q 1547 4250 1301 3770 
Q 1056 3291 1056 2328 
Q 1056 1369 1301 889 
Q 1547 409 2034 409 
Q 2525 409 2770 889 
Q 3016 1369 3016 2328 
Q 3016 3291 2770 3770 
Q 2525 4250 2034 4250 
z
M 2034 4750 
Q 2819 4750 3233 4129 
Q 3647 3509 3647 2328 
Q 3647 1150 3233 529 
Q 2819 -91 2034 -91 
Q 1250 -91 836 529 
Q 422 1150 422 2328 
Q 422 3509 836 4129 
Q 1250 4750 2034 4750 
z
" transform="scale(0.015625)"/>
       </defs>
       <use xlink:href="#DejaVuSans-30"/>
      </g>
     </g>
    </g>
    <g id="xtick_2">
     <g id="line2d_2">
      <g>
       <use xlink:href="#me31a0eb75b" x="118.852941" y="320.4" style="stroke: #000000; stroke-width: 0.8"/>
      </g>
     </g>
     <g id="text_2">
      <!-- 2 -->
      <g transform="translate(108.927441 351.107125) scale(0.312 -0.312)">
       <defs>
        <path id="DejaVuSans-32" d="M 1228 531 
L 3431 531 
L 3431 0 
L 469 0 
L 469 531 
Q 828 903 1448 1529 
Q 2069 2156 2228 2338 
Q 2531 2678 2651 2914 
Q 2772 3150 2772 3378 
Q 2772 3750 2511 3984 
Q 2250 4219 1831 4219 
Q 1534 4219 1204 4116 
Q 875 4013 500 3803 
L 500 4441 
Q 881 4594 1212 4672 
Q 1544 4750 1819 4750 
Q 2544 4750 2975 4387 
Q 3406 4025 3406 3419 
Q 3406 3131 3298 2873 
Q 3191 2616 2906 2266 
Q 2828 2175 2409 1742 
Q 1991 1309 1228 531 
z
" transform="scale(0.015625)"/>
       </defs>
       <use xlink:href="#DejaVuSans-32"/>
      </g>
     </g>
    </g>
    <g id="xtick_3">
     <g id="line2d_3">
      <g>
       <use xlink:href="#me31a0eb75b" x="184.5" y="320.4" style="stroke: #000000; stroke-width: 0.8"/>
      </g>
     </g>
     <g id="text_3">
      <!-- 4 -->
      <g transform="translate(174.5745 351.107125) scale(0.312 -0.312)">
       <defs>
        <path id="DejaVuSans-34" d="M 2419 4116 
L 825 1625 
L 2419 1625 
L 2419 4116 
z
M 2253 4666 
L 3047 4666 
L 3047 1625 
L 3713 1625 
L 3713 1100 
L 3047 1100 
L 3047 0 
L 2419 0 
L 2419 1100 
L 313 1100 
L 313 1709 
L 2253 4666 
z
" transform="scale(0.015625)"/>
       </defs>
       <use xlink:href="#DejaVuSans-34"/>
      </g>
     </g>
    </g>
    <g id="xtick_4">
     <g id="line2d_4">
      <g>
       <use xlink:href="#me31a0eb75b" x="250.147059" y="320.4" style="stroke: #000000; stroke-width: 0.8"/>
      </g>
     </g>
     <g id="text_4">
      <!-- 6 -->
      <g transform="translate(240.221559 351.107125) scale(0.312 -0.312)">
       <defs>
        <path id="DejaVuSans-36" d="M 2113 2584 
Q 1688 2584 1439 2293 
Q 1191 2003 1191 1497 
Q 1191 994 1439 701 
Q 1688 409 2113 409 
Q 2538 409 2786 701 
Q 3034 994 3034 1497 
Q 3034 2003 2786 2293 
Q 2538 2584 2113 2584 
z
M 3366 4563 
L 3366 3988 
Q 3128 4100 2886 4159 
Q 2644 4219 2406 4219 
Q 1781 4219 1451 3797 
Q 1122 3375 1075 2522 
Q 1259 2794 1537 2939 
Q 1816 3084 2150 3084 
Q 2853 3084 3261 2657 
Q 3669 2231 3669 1497 
Q 3669 778 3244 343 
Q 2819 -91 2113 -91 
Q 1303 -91 875 529 
Q 447 1150 447 2328 
Q 447 3434 972 4092 
Q 1497 4750 2381 4750 
Q 2619 4750 2861 4703 
Q 3103 4656 3366 4563 
z
" transform="scale(0.015625)"/>
       </defs>
       <use xlink:href="#DejaVuSans-36"/>
      </g>
     </g>
    </g>
    <g id="xtick_5">
     <g id="line2d_5">
      <g>
       <use xlink:href="#me31a0eb75b" x="315.794118" y="320.4" style="stroke: #000000; stroke-width: 0.8"/>
      </g>
     </g>
     <g id="text_5">
      <!-- 8 -->
      <g transform="translate(305.868618 351.107125) scale(0.312 -0.312)">
       <defs>
        <path id="DejaVuSans-38" d="M 2034 2216 
Q 1584 2216 1326 1975 
Q 1069 1734 1069 1313 
Q 1069 891 1326 650 
Q 1584 409 2034 409 
Q 2484 409 2743 651 
Q 3003 894 3003 1313 
Q 3003 1734 2745 1975 
Q 2488 2216 2034 2216 
z
M 1403 2484 
Q 997 2584 770 2862 
Q 544 3141 544 3541 
Q 544 4100 942 4425 
Q 1341 4750 2034 4750 
Q 2731 4750 3128 4425 
Q 3525 4100 3525 3541 
Q 3525 3141 3298 2862 
Q 3072 2584 2669 2484 
Q 3125 2378 3379 2068 
Q 3634 1759 3634 1313 
Q 3634 634 3220 271 
Q 2806 -91 2034 -91 
Q 1263 -91 848 271 
Q 434 634 434 1313 
Q 434 1759 690 2068 
Q 947 2378 1403 2484 
z
M 1172 3481 
Q 1172 3119 1398 2916 
Q 1625 2713 2034 2713 
Q 2441 2713 2670 2916 
Q 2900 3119 2900 3481 
Q 2900 3844 2670 4047 
Q 2441 4250 2034 4250 
Q 1625 4250 1398 4047 
Q 1172 3844 1172 3481 
z
" transform="scale(0.015625)"/>
       </defs>
       <use xlink:href="#DejaVuSans-38"/>
      </g>
     </g>
    </g>
    <g id="text_6">
     <!-- Time (d) -->
     <g transform="translate(131.813437 382.415656) scale(0.286 -0.286)">
      <defs>
       <path id="ArialMT-54" d="M 1659 0 
L 1659 4041 
L 150 4041 
L 150 4581 
L 3781 4581 
L 3781 4041 
L 2266 4041 
L 2266 0 
L 1659 0 
z
" transform="scale(0.015625)"/>
       <path id="ArialMT-69" d="M 425 3934 
L 425 4581 
L 988 4581 
L 988 3934 
L 425 3934 
z
M 425 0 
L 425 3319 
L 988 3319 
L 988 0 
L 425 0 
z
" transform="scale(0.015625)"/>
       <path id="ArialMT-6d" d="M 422 0 
L 422 3319 
L 925 3319 
L 925 2853 
Q 1081 3097 1340 3245 
Q 1600 3394 1931 3394 
Q 2300 3394 2536 3241 
Q 2772 3088 2869 2813 
Q 3263 3394 3894 3394 
Q 4388 3394 4653 3120 
Q 4919 2847 4919 2278 
L 4919 0 
L 4359 0 
L 4359 2091 
Q 4359 2428 4304 2576 
Q 4250 2725 4106 2815 
Q 3963 2906 3769 2906 
Q 3419 2906 3187 2673 
Q 2956 2441 2956 1928 
L 2956 0 
L 2394 0 
L 2394 2156 
Q 2394 2531 2256 2718 
Q 2119 2906 1806 2906 
Q 1569 2906 1367 2781 
Q 1166 2656 1075 2415 
Q 984 2175 984 1722 
L 984 0 
L 422 0 
z
" transform="scale(0.015625)"/>
       <path id="ArialMT-65" d="M 2694 1069 
L 3275 997 
Q 3138 488 2766 206 
Q 2394 -75 1816 -75 
Q 1088 -75 661 373 
Q 234 822 234 1631 
Q 234 2469 665 2931 
Q 1097 3394 1784 3394 
Q 2450 3394 2872 2941 
Q 3294 2488 3294 1666 
Q 3294 1616 3291 1516 
L 816 1516 
Q 847 969 1125 678 
Q 1403 388 1819 388 
Q 2128 388 2347 550 
Q 2566 713 2694 1069 
z
M 847 1978 
L 2700 1978 
Q 2663 2397 2488 2606 
Q 2219 2931 1791 2931 
Q 1403 2931 1139 2672 
Q 875 2413 847 1978 
z
" transform="scale(0.015625)"/>
       <path id="ArialMT-20" transform="scale(0.015625)"/>
       <path id="ArialMT-28" d="M 1497 -1347 
Q 1031 -759 709 28 
Q 388 816 388 1659 
Q 388 2403 628 3084 
Q 909 3875 1497 4659 
L 1900 4659 
Q 1522 4009 1400 3731 
Q 1209 3300 1100 2831 
Q 966 2247 966 1656 
Q 966 153 1900 -1347 
L 1497 -1347 
z
" transform="scale(0.015625)"/>
       <path id="ArialMT-64" d="M 2575 0 
L 2575 419 
Q 2259 -75 1647 -75 
Q 1250 -75 917 144 
Q 584 363 401 755 
Q 219 1147 219 1656 
Q 219 2153 384 2558 
Q 550 2963 881 3178 
Q 1213 3394 1622 3394 
Q 1922 3394 2156 3267 
Q 2391 3141 2538 2938 
L 2538 4581 
L 3097 4581 
L 3097 0 
L 2575 0 
z
M 797 1656 
Q 797 1019 1065 703 
Q 1334 388 1700 388 
Q 2069 388 2326 689 
Q 2584 991 2584 1609 
Q 2584 2291 2321 2609 
Q 2059 2928 1675 2928 
Q 1300 2928 1048 2622 
Q 797 2316 797 1656 
z
" transform="scale(0.015625)"/>
       <path id="ArialMT-29" d="M 791 -1347 
L 388 -1347 
Q 1322 153 1322 1656 
Q 1322 2244 1188 2822 
Q 1081 3291 891 3722 
Q 769 4003 388 4659 
L 791 4659 
Q 1378 3875 1659 3084 
Q 1900 2403 1900 1659 
Q 1900 816 1576 28 
Q 1253 -759 791 -1347 
z
" transform="scale(0.015625)"/>
      </defs>
      <use xlink:href="#ArialMT-54"/>
      <use xlink:href="#ArialMT-69" transform="translate(57.333984 0)"/>
      <use xlink:href="#ArialMT-6d" transform="translate(79.550781 0)"/>
      <use xlink:href="#ArialMT-65" transform="translate(162.851562 0)"/>
      <use xlink:href="#ArialMT-20" transform="translate(218.466797 0)"/>
      <use xlink:href="#ArialMT-28" transform="translate(246.25 0)"/>
      <use xlink:href="#ArialMT-64" transform="translate(279.550781 0)"/>
      <use xlink:href="#ArialMT-29" transform="translate(335.166016 0)"/>
     </g>
    </g>
   </g>
   <g id="matplotlib.axis_2">
    <g id="ytick_1">
     <g id="line2d_6">
      <defs>
       <path id="md82d1f1155" d="M 0 0 
L -3.5 0 
" style="stroke: #000000; stroke-width: 0.8"/>
      </defs>
      <g>
       <use xlink:href="#md82d1f1155" x="45" y="320.4" style="stroke: #000000; stroke-width: 0.8"/>
      </g>
     </g>
     <g id="text_7">
      <!-- 0 -->
      <g transform="translate(18.149 332.253562) scale(0.312 -0.312)">
       <use xlink:href="#DejaVuSans-30"/>
      </g>
     </g>
    </g>
    <g id="ytick_2">
     <g id="line2d_7">
      <g>
       <use xlink:href="#md82d1f1155" x="45" y="251.1" style="stroke: #000000; stroke-width: 0.8"/>
      </g>
     </g>
     <g id="text_8">
      <!-- 2 -->
      <g transform="translate(18.149 262.953562) scale(0.312 -0.312)">
       <use xlink:href="#DejaVuSans-32"/>
      </g>
     </g>
    </g>
    <g id="ytick_3">
     <g id="line2d_8">
      <g>
       <use xlink:href="#md82d1f1155" x="45" y="181.8" style="stroke: #000000; stroke-width: 0.8"/>
      </g>
     </g>
     <g id="text_9">
      <!-- 4 -->
      <g transform="translate(18.149 193.653562) scale(0.312 -0.312)">
       <use xlink:href="#DejaVuSans-34"/>
      </g>
     </g>
    </g>
    <g id="ytick_4">
     <g id="line2d_9">
      <g>
       <use xlink:href="#md82d1f1155" x="45" y="112.5" style="stroke: #000000; stroke-width: 0.8"/>
      </g>
     </g>
     <g id="text_10">
      <!-- 6 -->
      <g transform="translate(18.149 124.353562) scale(0.312 -0.312)">
       <use xlink:href="#DejaVuSans-36"/>
      </g>
     </g>
    </g>
    <g id="ytick_5">
     <g id="line2d_10">
      <g>
       <use xlink:href="#md82d1f1155" x="45" y="43.2" style="stroke: #000000; stroke-width: 0.8"/>
      </g>
     </g>
     <g id="text_11">
      <!-- 8 -->
      <g transform="translate(18.149 55.053562) scale(0.312 -0.312)">
       <use xlink:href="#DejaVuSans-38"/>
      </g>
     </g>
    </g>
    <g id="text_12">
     <!-- Log$_{10}$ Virus (copies/mL) -->
     <g transform="translate(7.857 334.238) rotate(-90) scale(0.286 -0.286)">
      <defs>
       <path id="ArialMT-4c" d="M 469 0 
L 469 4581 
L 1075 4581 
L 1075 541 
L 3331 541 
L 3331 0 
L 469 0 
z
" transform="scale(0.015625)"/>
       <path id="ArialMT-6f" d="M 213 1659 
Q 213 2581 725 3025 
Q 1153 3394 1769 3394 
Q 2453 3394 2887 2945 
Q 3322 2497 3322 1706 
Q 3322 1066 3130 698 
Q 2938 331 2570 128 
Q 2203 -75 1769 -75 
Q 1072 -75 642 372 
Q 213 819 213 1659 
z
M 791 1659 
Q 791 1022 1069 705 
Q 1347 388 1769 388 
Q 2188 388 2466 706 
Q 2744 1025 2744 1678 
Q 2744 2294 2464 2611 
Q 2184 2928 1769 2928 
Q 1347 2928 1069 2612 
Q 791 2297 791 1659 
z
" transform="scale(0.015625)"/>
       <path id="ArialMT-67" d="M 319 -275 
L 866 -356 
Q 900 -609 1056 -725 
Q 1266 -881 1628 -881 
Q 2019 -881 2231 -725 
Q 2444 -569 2519 -288 
Q 2563 -116 2559 434 
Q 2191 0 1641 0 
Q 956 0 581 494 
Q 206 988 206 1678 
Q 206 2153 378 2554 
Q 550 2956 876 3175 
Q 1203 3394 1644 3394 
Q 2231 3394 2613 2919 
L 2613 3319 
L 3131 3319 
L 3131 450 
Q 3131 -325 2973 -648 
Q 2816 -972 2473 -1159 
Q 2131 -1347 1631 -1347 
Q 1038 -1347 672 -1080 
Q 306 -813 319 -275 
z
M 784 1719 
Q 784 1066 1043 766 
Q 1303 466 1694 466 
Q 2081 466 2343 764 
Q 2606 1063 2606 1700 
Q 2606 2309 2336 2618 
Q 2066 2928 1684 2928 
Q 1309 2928 1046 2623 
Q 784 2319 784 1719 
z
" transform="scale(0.015625)"/>
       <path id="DejaVuSans-31" d="M 794 531 
L 1825 531 
L 1825 4091 
L 703 3866 
L 703 4441 
L 1819 4666 
L 2450 4666 
L 2450 531 
L 3481 531 
L 3481 0 
L 794 0 
L 794 531 
z
" transform="scale(0.015625)"/>
       <path id="ArialMT-56" d="M 1803 0 
L 28 4581 
L 684 4581 
L 1875 1253 
Q 2019 853 2116 503 
Q 2222 878 2363 1253 
L 3600 4581 
L 4219 4581 
L 2425 0 
L 1803 0 
z
" transform="scale(0.015625)"/>
       <path id="ArialMT-72" d="M 416 0 
L 416 3319 
L 922 3319 
L 922 2816 
Q 1116 3169 1280 3281 
Q 1444 3394 1641 3394 
Q 1925 3394 2219 3213 
L 2025 2691 
Q 1819 2813 1613 2813 
Q 1428 2813 1281 2702 
Q 1134 2591 1072 2394 
Q 978 2094 978 1738 
L 978 0 
L 416 0 
z
" transform="scale(0.015625)"/>
       <path id="ArialMT-75" d="M 2597 0 
L 2597 488 
Q 2209 -75 1544 -75 
Q 1250 -75 995 37 
Q 741 150 617 320 
Q 494 491 444 738 
Q 409 903 409 1263 
L 409 3319 
L 972 3319 
L 972 1478 
Q 972 1038 1006 884 
Q 1059 663 1231 536 
Q 1403 409 1656 409 
Q 1909 409 2131 539 
Q 2353 669 2445 892 
Q 2538 1116 2538 1541 
L 2538 3319 
L 3100 3319 
L 3100 0 
L 2597 0 
z
" transform="scale(0.015625)"/>
       <path id="ArialMT-73" d="M 197 991 
L 753 1078 
Q 800 744 1014 566 
Q 1228 388 1613 388 
Q 2000 388 2187 545 
Q 2375 703 2375 916 
Q 2375 1106 2209 1216 
Q 2094 1291 1634 1406 
Q 1016 1563 777 1677 
Q 538 1791 414 1992 
Q 291 2194 291 2438 
Q 291 2659 392 2848 
Q 494 3038 669 3163 
Q 800 3259 1026 3326 
Q 1253 3394 1513 3394 
Q 1903 3394 2198 3281 
Q 2494 3169 2634 2976 
Q 2775 2784 2828 2463 
L 2278 2388 
Q 2241 2644 2061 2787 
Q 1881 2931 1553 2931 
Q 1166 2931 1000 2803 
Q 834 2675 834 2503 
Q 834 2394 903 2306 
Q 972 2216 1119 2156 
Q 1203 2125 1616 2013 
Q 2213 1853 2448 1751 
Q 2684 1650 2818 1456 
Q 2953 1263 2953 975 
Q 2953 694 2789 445 
Q 2625 197 2315 61 
Q 2006 -75 1616 -75 
Q 969 -75 630 194 
Q 291 463 197 991 
z
" transform="scale(0.015625)"/>
       <path id="ArialMT-63" d="M 2588 1216 
L 3141 1144 
Q 3050 572 2676 248 
Q 2303 -75 1759 -75 
Q 1078 -75 664 370 
Q 250 816 250 1647 
Q 250 2184 428 2587 
Q 606 2991 970 3192 
Q 1334 3394 1763 3394 
Q 2303 3394 2647 3120 
Q 2991 2847 3088 2344 
L 2541 2259 
Q 2463 2594 2264 2762 
Q 2066 2931 1784 2931 
Q 1359 2931 1093 2626 
Q 828 2322 828 1663 
Q 828 994 1084 691 
Q 1341 388 1753 388 
Q 2084 388 2306 591 
Q 2528 794 2588 1216 
z
" transform="scale(0.015625)"/>
       <path id="ArialMT-70" d="M 422 -1272 
L 422 3319 
L 934 3319 
L 934 2888 
Q 1116 3141 1344 3267 
Q 1572 3394 1897 3394 
Q 2322 3394 2647 3175 
Q 2972 2956 3137 2557 
Q 3303 2159 3303 1684 
Q 3303 1175 3120 767 
Q 2938 359 2589 142 
Q 2241 -75 1856 -75 
Q 1575 -75 1351 44 
Q 1128 163 984 344 
L 984 -1272 
L 422 -1272 
z
M 931 1641 
Q 931 1000 1190 694 
Q 1450 388 1819 388 
Q 2194 388 2461 705 
Q 2728 1022 2728 1688 
Q 2728 2322 2467 2637 
Q 2206 2953 1844 2953 
Q 1484 2953 1207 2617 
Q 931 2281 931 1641 
z
" transform="scale(0.015625)"/>
       <path id="ArialMT-2f" d="M 0 -78 
L 1328 4659 
L 1778 4659 
L 453 -78 
L 0 -78 
z
" transform="scale(0.015625)"/>
      </defs>
      <use xlink:href="#ArialMT-4c" transform="translate(0 0.203125)"/>
      <use xlink:href="#ArialMT-6f" transform="translate(55.615234 0.203125)"/>
      <use xlink:href="#ArialMT-67" transform="translate(111.230469 0.203125)"/>
      <use xlink:href="#DejaVuSans-31" transform="translate(167.802734 -16.203125) scale(0.7)"/>
      <use xlink:href="#DejaVuSans-30" transform="translate(212.338867 -16.203125) scale(0.7)"/>
      <use xlink:href="#ArialMT-20" transform="translate(259.609375 0.203125)"/>
      <use xlink:href="#ArialMT-56" transform="translate(287.392578 0.203125)"/>
      <use xlink:href="#ArialMT-69" transform="translate(354.091797 0.203125)"/>
      <use xlink:href="#ArialMT-72" transform="translate(376.308594 0.203125)"/>
      <use xlink:href="#ArialMT-75" transform="translate(409.609375 0.203125)"/>
      <use xlink:href="#ArialMT-73" transform="translate(465.224609 0.203125)"/>
      <use xlink:href="#ArialMT-20" transform="translate(515.224609 0.203125)"/>
      <use xlink:href="#ArialMT-28" transform="translate(543.007812 0.203125)"/>
      <use xlink:href="#ArialMT-63" transform="translate(576.308594 0.203125)"/>
      <use xlink:href="#ArialMT-6f" transform="translate(626.308594 0.203125)"/>
      <use xlink:href="#ArialMT-70" transform="translate(681.923828 0.203125)"/>
      <use xlink:href="#ArialMT-69" transform="translate(737.539062 0.203125)"/>
      <use xlink:href="#ArialMT-65" transform="translate(759.755859 0.203125)"/>
      <use xlink:href="#ArialMT-73" transform="translate(815.371094 0.203125)"/>
      <use xlink:href="#ArialMT-2f" transform="translate(865.371094 0.203125)"/>
      <use xlink:href="#ArialMT-6d" transform="translate(893.154297 0.203125)"/>
      <use xlink:href="#ArialMT-4c" transform="translate(976.455078 0.203125)"/>
      <use xlink:href="#ArialMT-29" transform="translate(1032.070312 0.203125)"/>
     </g>
    </g>
   </g>
   <g id="patch_3">
    <path d="M 45 320.4 
L 45 43.2 
" style="fill: none; stroke: #000000; stroke-width: 0.8; stroke-linejoin: miter; stroke-linecap: square"/>
   </g>
   <g id="patch_4">
    <path d="M 324 320.4 
L 324 43.2 
" style="fill: none; stroke: #000000; stroke-width: 0.8; stroke-linejoin: miter; stroke-linecap: square"/>
   </g>
   <g id="patch_5">
    <path d="M 45 320.4 
L 324 320.4 
" style="fill: none; stroke: #000000; stroke-width: 0.8; stroke-linejoin: miter; stroke-linecap: square"/>
   </g>
   <g id="patch_6">
    <path d="M 45 43.2 
L 324 43.2 
" style="fill: none; stroke: #000000; stroke-width: 0.8; stroke-linejoin: miter; stroke-linecap: square"/>
   </g>
   <g id="FillBetweenPolyCollection_1">
    <defs>
     <path id="m690c932089" d="M 53.205882 -39.6 
L 53.205882 -39.6 
L 53.206297 -39.6 
L 53.210446 -39.6 
L 53.251931 -39.6 
L 53.522522 -39.6 
L 53.674846 -39.6 
L 54.308518 -39.6 
L 54.641923 -39.6 
L 55.919506 -39.962395 
L 56.585803 -40.230771 
L 58.943059 -49.15703 
L 59.979668 -52.55909 
L 63.262021 -59.795346 
L 64.60034 -62.237932 
L 67.882693 -67.956748 
L 69.437742 -70.646183 
L 72.720095 -76.320661 
L 74.451311 -79.310143 
L 77.733664 -84.982785 
L 79.603253 -88.210275 
L 82.885606 -93.883678 
L 84.849527 -97.273414 
L 88.13188 -102.94764 
L 90.178482 -106.479524 
L 93.460834 -112.154463 
L 95.596481 -115.839536 
L 98.878834 -121.514887 
L 101.095323 -125.338836 
L 104.377676 -131.013997 
L 106.662077 -134.954511 
L 109.944429 -140.627342 
L 112.285467 -144.664701 
L 115.56782 -150.33242 
L 117.957023 -154.450189 
L 121.239376 -160.101391 
L 123.671693 -164.286609 
L 126.954046 -169.926542 
L 129.429417 -174.17098 
L 132.71177 -179.783167 
L 135.239007 -184.084789 
L 138.52136 -189.639061 
L 141.123855 -194.005765 
L 144.406208 -199.445517 
L 147.127746 -203.885007 
L 149.865641 -208.262192 
L 152.902744 -212.954499 
L 155.939846 -217.43844 
L 159.222199 -221.986066 
L 162.504551 -226.124912 
L 165.786904 -229.752941 
L 169.069257 -232.770714 
L 172.35161 -235.095342 
L 175.633963 -236.673782 
L 178.916316 -237.490868 
L 182.198669 -237.569304 
L 185.481022 -236.962207 
L 188.763375 -234.56665 
L 192.045728 -231.504998 
L 195.328081 -227.988795 
L 198.610434 -223.773956 
L 201.892787 -219.299932 
L 205.17514 -214.52345 
L 208.457493 -209.34582 
L 211.739846 -203.570872 
L 215.022199 -196.805287 
L 218.304551 -188.047468 
L 221.586904 -175.434745 
L 224.869257 -155.955236 
L 228.15161 -134.957665 
L 231.433963 -121.958794 
L 233.139994 -113.478357 
L 234.666015 -108.648432 
L 236.192037 -105.286386 
L 238.166962 -101.146511 
L 240.141886 -97.134195 
L 242.402751 -92.620342 
L 244.911214 -86.549405 
L 247.714218 -78.644566 
L 250.933061 -71.695933 
L 254.151904 -65.462141 
L 257.434256 -59.312548 
L 260.716609 -53.260963 
L 263.998962 -47.266506 
L 267.281315 -41.640253 
L 270.563668 -39.6 
L 273.846021 -39.6 
L 277.128374 -39.6 
L 280.410727 -39.6 
L 283.69308 -39.6 
L 286.975433 -39.6 
L 290.257786 -39.6 
L 293.540139 -39.6 
L 296.822492 -39.6 
L 300.104845 -39.6 
L 303.387198 -39.6 
L 306.669551 -39.6 
L 309.951904 -39.6 
L 313.234256 -39.6 
L 315.794118 -39.6 
L 315.794118 -39.6 
L 315.794118 -39.6 
L 313.234256 -39.6 
L 309.951904 -39.6 
L 306.669551 -39.6 
L 303.387198 -39.6 
L 300.104845 -39.6 
L 296.822492 -39.6 
L 293.540139 -41.843457 
L 290.257786 -46.856129 
L 286.975433 -52.72433 
L 283.69308 -58.619836 
L 280.410727 -64.549434 
L 277.128374 -70.521464 
L 273.846021 -76.546285 
L 270.563668 -82.636914 
L 267.281315 -88.810328 
L 263.998962 -95.090765 
L 260.716609 -101.516518 
L 257.434256 -108.223806 
L 254.151904 -115.508639 
L 250.933061 -124.847332 
L 247.714218 -147.25247 
L 244.911214 -168.516305 
L 242.402751 -181.9058 
L 240.141886 -190.290627 
L 238.166962 -196.312386 
L 236.192037 -200.810237 
L 234.666015 -204.061426 
L 233.139994 -206.854301 
L 231.433963 -209.860721 
L 228.15161 -214.950855 
L 224.869257 -219.526594 
L 221.586904 -223.743889 
L 218.304551 -227.690897 
L 215.022199 -231.416007 
L 211.739846 -234.941648 
L 208.457493 -239.139844 
L 205.17514 -243.22749 
L 201.892787 -247.089575 
L 198.610434 -250.702489 
L 195.328081 -254.086762 
L 192.045728 -257.175645 
L 188.763375 -259.940448 
L 185.481022 -262.286769 
L 182.198669 -264.079214 
L 178.916316 -265.273727 
L 175.633963 -265.779634 
L 172.35161 -265.53725 
L 169.069257 -265.339701 
L 165.786904 -264.238208 
L 162.504551 -262.956153 
L 159.222199 -261.266936 
L 155.939846 -258.588777 
L 152.902744 -255.315116 
L 149.865641 -251.287686 
L 147.127746 -247.247639 
L 144.406208 -242.827621 
L 141.123855 -237.150111 
L 138.52136 -232.433874 
L 135.239007 -226.310591 
L 132.71177 -221.491974 
L 129.429417 -215.148059 
L 126.954046 -210.313726 
L 123.671693 -203.864733 
L 121.239376 -199.05939 
L 117.957023 -192.561907 
L 115.56782 -187.814604 
L 112.285467 -181.295738 
L 109.944429 -176.630014 
L 106.662077 -170.101014 
L 104.377676 -165.541648 
L 101.095323 -159.007101 
L 98.878834 -154.581005 
L 95.596481 -148.043883 
L 93.460834 -143.778129 
L 90.178482 -137.239791 
L 88.13188 -133.151377 
L 84.849527 -126.612434 
L 82.885606 -122.688936 
L 79.603253 -116.149661 
L 77.733664 -112.414516 
L 74.451311 -105.948831 
L 72.720095 -102.568018 
L 69.437742 -96.167654 
L 67.882693 -93.132665 
L 64.60034 -86.732522 
L 63.262021 -84.113293 
L 59.979668 -76.964956 
L 58.943059 -74.565807 
L 56.585803 -64.719941 
L 55.919506 -61.165456 
L 54.641923 -45.820227 
L 54.308518 -41.194283 
L 53.674846 -39.6 
L 53.522522 -39.6 
L 53.251931 -39.6 
L 53.210446 -39.6 
L 53.206297 -39.6 
L 53.205882 -39.6 
z
" style="stroke: #ff9a00; stroke-opacity: 0.2"/>
    </defs>
    <g clip-path="url(#p2728e64b4f)">
     <use xlink:href="#m690c932089" x="0" y="360" style="fill: #ff9a00; fill-opacity: 0.2; stroke: #ff9a00; stroke-opacity: 0.2"/>
    </g>
   </g>
   <g id="PathCollection_1">
    <defs>
     <path id="m88a011107d" d="M 0 7.071068 
C 1.875269 7.071068 3.673985 6.326016 5 5 
C 6.326016 3.673985 7.071068 1.875269 7.071068 0 
C 7.071068 -1.875269 6.326016 -3.673985 5 -5 
C 3.673985 -6.326016 1.875269 -7.071068 0 -7.071068 
C -1.875269 -7.071068 -3.673985 -6.326016 -5 -5 
C -6.326016 -3.673985 -7.071068 -1.875269 -7.071068 0 
C -7.071068 1.875269 -6.326016 3.673985 -5 5 
C -3.673985 6.326016 -1.875269 7.071068 0 7.071068 
z
" style="stroke: #000000; stroke-opacity: 0.8"/>
    </defs>
    <g clip-path="url(#p2728e64b4f)">
     <use xlink:href="#m88a011107d" x="53.205882" y="320.4" style="fill-opacity: 0.8; stroke: #000000; stroke-opacity: 0.8"/>
     <use xlink:href="#m88a011107d" x="86.029412" y="220.348125" style="fill-opacity: 0.8; stroke: #000000; stroke-opacity: 0.8"/>
     <use xlink:href="#m88a011107d" x="118.852941" y="147.583125" style="fill-opacity: 0.8; stroke: #000000; stroke-opacity: 0.8"/>
     <use xlink:href="#m88a011107d" x="151.676471" y="223.38" style="fill-opacity: 0.8; stroke: #000000; stroke-opacity: 0.8"/>
     <use xlink:href="#m88a011107d" x="184.5" y="17.2125" style="fill-opacity: 0.8; stroke: #000000; stroke-opacity: 0.8"/>
     <use xlink:href="#m88a011107d" x="217.323529" y="171.838125" style="fill-opacity: 0.8; stroke: #000000; stroke-opacity: 0.8"/>
     <use xlink:href="#m88a011107d" x="250.147059" y="277.95375" style="fill-opacity: 0.8; stroke: #000000; stroke-opacity: 0.8"/>
     <use xlink:href="#m88a011107d" x="282.970588" y="320.4" style="fill-opacity: 0.8; stroke: #000000; stroke-opacity: 0.8"/>
    </g>
   </g>
   <g id="line2d_11">
    <path d="M 53.205882 320.4 
L 53.206297 320.4 
L 53.210446 320.4 
L 53.251931 320.4 
L 53.522522 320.4 
L 53.674846 320.4 
L 54.308518 320.4 
L 54.641923 320.4 
L 55.919506 311.470861 
L 56.585803 306.995409 
L 58.943059 297.638461 
L 59.979668 294.977279 
L 63.262021 288.232019 
L 64.60034 285.762143 
L 67.882693 279.733566 
L 69.437742 276.892363 
L 72.720095 270.85843 
L 74.451311 267.688597 
L 77.733664 261.651145 
L 79.603253 258.226702 
L 82.885606 252.189303 
L 84.849527 248.591411 
L 88.13188 242.554195 
L 90.178482 238.804257 
L 93.460834 232.767375 
L 95.596481 228.853732 
L 98.878834 222.817508 
L 101.095323 218.7555 
L 104.377676 212.720572 
L 106.662077 208.534604 
L 109.944429 202.502243 
L 112.285467 198.214369 
L 115.56782 192.187113 
L 117.957023 187.815583 
L 121.239376 181.798527 
L 123.671693 177.358074 
L 126.954046 171.361495 
L 129.429417 166.863392 
L 132.71177 160.908024 
L 135.239007 156.359279 
L 138.52136 150.486843 
L 141.123855 145.89358 
L 144.406208 140.187325 
L 147.127746 135.575057 
L 149.865641 131.077998 
L 152.902744 126.314211 
L 155.939846 121.862283 
L 159.222199 117.505637 
L 162.504551 113.740809 
L 165.786904 110.684679 
L 169.069257 108.430574 
L 172.35161 107.031453 
L 175.633963 106.491653 
L 178.916316 106.769967 
L 182.198669 107.791763 
L 185.481022 109.464786 
L 188.763375 111.693461 
L 192.045728 114.388979 
L 195.328081 117.475038 
L 198.610434 120.89053 
L 201.892787 124.590908 
L 205.17514 128.549776 
L 208.457493 132.762107 
L 211.739846 137.250757 
L 215.022199 142.079194 
L 218.304551 147.376938 
L 221.586904 153.394565 
L 224.869257 160.637374 
L 228.15161 170.224739 
L 231.433963 184.545679 
L 233.139994 194.612707 
L 234.666015 204.239751 
L 236.192037 213.282786 
L 238.166962 223.352671 
L 240.141886 231.253922 
L 242.402751 238.351925 
L 244.911214 244.757663 
L 247.714218 251.029282 
L 250.933061 257.725166 
L 254.151904 264.143791 
L 257.434256 270.524644 
L 260.716609 276.783583 
L 263.998962 282.947174 
L 267.281315 289.034055 
L 270.563668 295.058697 
L 273.846021 301.032828 
L 277.128374 306.966072 
L 280.410727 312.866357 
L 283.69308 318.740205 
L 286.975433 320.4 
L 290.257786 320.4 
L 293.540139 320.4 
L 296.822492 320.4 
L 300.104845 320.4 
L 303.387198 320.4 
L 306.669551 320.4 
L 309.951904 320.4 
L 313.234256 320.4 
L 315.794118 320.4 
" clip-path="url(#p2728e64b4f)" style="fill: none; stroke: #ff9a00; stroke-width: 3; stroke-linecap: square"/>
   </g>
  </g>
  <g id="text_13">
   <!-- Individual 4 -->
   <g transform="translate(29.0835 29.532375) scale(0.312 -0.312)">
    <defs>
     <path id="ArialMT-49" d="M 597 0 
L 597 4581 
L 1203 4581 
L 1203 0 
L 597 0 
z
" transform="scale(0.015625)"/>
     <path id="ArialMT-6e" d="M 422 0 
L 422 3319 
L 928 3319 
L 928 2847 
Q 1294 3394 1984 3394 
Q 2284 3394 2536 3286 
Q 2788 3178 2913 3003 
Q 3038 2828 3088 2588 
Q 3119 2431 3119 2041 
L 3119 0 
L 2556 0 
L 2556 2019 
Q 2556 2363 2490 2533 
Q 2425 2703 2258 2804 
Q 2091 2906 1866 2906 
Q 1506 2906 1245 2678 
Q 984 2450 984 1813 
L 984 0 
L 422 0 
z
" transform="scale(0.015625)"/>
     <path id="ArialMT-76" d="M 1344 0 
L 81 3319 
L 675 3319 
L 1388 1331 
Q 1503 1009 1600 663 
Q 1675 925 1809 1294 
L 2547 3319 
L 3125 3319 
L 1869 0 
L 1344 0 
z
" transform="scale(0.015625)"/>
     <path id="ArialMT-61" d="M 2588 409 
Q 2275 144 1986 34 
Q 1697 -75 1366 -75 
Q 819 -75 525 192 
Q 231 459 231 875 
Q 231 1119 342 1320 
Q 453 1522 633 1644 
Q 813 1766 1038 1828 
Q 1203 1872 1538 1913 
Q 2219 1994 2541 2106 
Q 2544 2222 2544 2253 
Q 2544 2597 2384 2738 
Q 2169 2928 1744 2928 
Q 1347 2928 1158 2789 
Q 969 2650 878 2297 
L 328 2372 
Q 403 2725 575 2942 
Q 747 3159 1072 3276 
Q 1397 3394 1825 3394 
Q 2250 3394 2515 3294 
Q 2781 3194 2906 3042 
Q 3031 2891 3081 2659 
Q 3109 2516 3109 2141 
L 3109 1391 
Q 3109 606 3145 398 
Q 3181 191 3288 0 
L 2700 0 
Q 2613 175 2588 409 
z
M 2541 1666 
Q 2234 1541 1622 1453 
Q 1275 1403 1131 1340 
Q 988 1278 909 1158 
Q 831 1038 831 891 
Q 831 666 1001 516 
Q 1172 366 1500 366 
Q 1825 366 2078 508 
Q 2331 650 2450 897 
Q 2541 1088 2541 1459 
L 2541 1666 
z
" transform="scale(0.015625)"/>
     <path id="ArialMT-6c" d="M 409 0 
L 409 4581 
L 972 4581 
L 972 0 
L 409 0 
z
" transform="scale(0.015625)"/>
     <path id="ArialMT-34" d="M 2069 0 
L 2069 1097 
L 81 1097 
L 81 1613 
L 2172 4581 
L 2631 4581 
L 2631 1613 
L 3250 1613 
L 3250 1097 
L 2631 1097 
L 2631 0 
L 2069 0 
z
M 2069 1613 
L 2069 3678 
L 634 1613 
L 2069 1613 
z
" transform="scale(0.015625)"/>
    </defs>
    <use xlink:href="#ArialMT-49"/>
    <use xlink:href="#ArialMT-6e" transform="translate(27.783203 0)"/>
    <use xlink:href="#ArialMT-64" transform="translate(83.398438 0)"/>
    <use xlink:href="#ArialMT-69" transform="translate(139.013672 0)"/>
    <use xlink:href="#ArialMT-76" transform="translate(161.230469 0)"/>
    <use xlink:href="#ArialMT-69" transform="translate(211.230469 0)"/>
    <use xlink:href="#ArialMT-64" transform="translate(233.447266 0)"/>
    <use xlink:href="#ArialMT-75" transform="translate(289.0625 0)"/>
    <use xlink:href="#ArialMT-61" transform="translate(344.677734 0)"/>
    <use xlink:href="#ArialMT-6c" transform="translate(400.292969 0)"/>
    <use xlink:href="#ArialMT-20" transform="translate(422.509766 0)"/>
    <use xlink:href="#ArialMT-34" transform="translate(450.292969 0)"/>
   </g>
  </g>
 </g>
 <defs>
  <clipPath id="p2728e64b4f">
   <rect x="45" y="43.2" width="279" height="277.2"/>
  </clipPath>
 </defs>
</svg>
