<?xml version="1.0" encoding="utf-8" standalone="no"?>
<!DOCTYPE svg PUBLIC "-//W3C//DTD SVG 1.1//EN"
  "http://www.w3.org/Graphics/SVG/1.1/DTD/svg11.dtd">
<svg xmlns:xlink="http://www.w3.org/1999/xlink" width="360pt" height="360pt" viewBox="0 0 360 360" xmlns="http://www.w3.org/2000/svg" version="1.1">
 <metadata>
  <rdf:RDF xmlns:dc="http://purl.org/dc/elements/1.1/" xmlns:cc="http://creativecommons.org/ns#" xmlns:rdf="http://www.w3.org/1999/02/22-rdf-syntax-ns#">
   <cc:Work>
    <dc:type rdf:resource="http://purl.org/dc/dcmitype/StillImage"/>
    <dc:date>2025-02-05T14:13:25.579670</dc:date>
    <dc:format>image/svg+xml</dc:format>
    <dc:creator>
     <cc:Agent>
      <dc:title>Matplotlib v3.10.0, https://matplotlib.org/</dc:title>
     </cc:Agent>
    </dc:creator>
   </cc:Work>
  </rdf:RDF>
 </metadata>
 <defs>
  <style type="text/css">*{stroke-linejoin: round; stroke-linecap: butt}</style>
 </defs>
 <g id="figure_1">
  <g id="patch_1">
   <path d="M 0 360 
L 360 360 
L 360 0 
L 0 0 
L 0 360 
z
" style="fill: none"/>
  </g>
  <g id="axes_1">
   <g id="patch_2">
    <path d="M 45 320.4 
L 324 320.4 
L 324 43.2 
L 45 43.2 
L 45 320.4 
z
" style="fill: none"/>
   </g>
   <g id="matplotlib.axis_1">
    <g id="xtick_1">
     <g id="line2d_1">
      <defs>
       <path id="md9bb3401ef" d="M 0 0 
L 0 3.5 
" style="stroke: #000000; stroke-width: 0.8"/>
      </defs>
      <g>
       <use xlink:href="#md9bb3401ef" x="53.205882" y="320.4" style="stroke: #000000; stroke-width: 0.8"/>
      </g>
     </g>
     <g id="text_1">
      <!-- 0 -->
      <g transform="translate(43.280382 351.107125) scale(0.312 -0.312)">
       <defs>
        <path id="DejaVuSans-30" d="M 2034 4250 
Q 1547 4250 1301 3770 
Q 1056 3291 1056 2328 
Q 1056 1369 1301 889 
Q 1547 409 2034 409 
Q 2525 409 2770 889 
Q 3016 1369 3016 2328 
Q 3016 3291 2770 3770 
Q 2525 4250 2034 4250 
z
M 2034 4750 
Q 2819 4750 3233 4129 
Q 3647 3509 3647 2328 
Q 3647 1150 3233 529 
Q 2819 -91 2034 -91 
Q 1250 -91 836 529 
Q 422 1150 422 2328 
Q 422 3509 836 4129 
Q 1250 4750 2034 4750 
z
" transform="scale(0.015625)"/>
       </defs>
       <use xlink:href="#DejaVuSans-30"/>
      </g>
     </g>
    </g>
    <g id="xtick_2">
     <g id="line2d_2">
      <g>
       <use xlink:href="#md9bb3401ef" x="118.852941" y="320.4" style="stroke: #000000; stroke-width: 0.8"/>
      </g>
     </g>
     <g id="text_2">
      <!-- 2 -->
      <g transform="translate(108.927441 351.107125) scale(0.312 -0.312)">
       <defs>
        <path id="DejaVuSans-32" d="M 1228 531 
L 3431 531 
L 3431 0 
L 469 0 
L 469 531 
Q 828 903 1448 1529 
Q 2069 2156 2228 2338 
Q 2531 2678 2651 2914 
Q 2772 3150 2772 3378 
Q 2772 3750 2511 3984 
Q 2250 4219 1831 4219 
Q 1534 4219 1204 4116 
Q 875 4013 500 3803 
L 500 4441 
Q 881 4594 1212 4672 
Q 1544 4750 1819 4750 
Q 2544 4750 2975 4387 
Q 3406 4025 3406 3419 
Q 3406 3131 3298 2873 
Q 3191 2616 2906 2266 
Q 2828 2175 2409 1742 
Q 1991 1309 1228 531 
z
" transform="scale(0.015625)"/>
       </defs>
       <use xlink:href="#DejaVuSans-32"/>
      </g>
     </g>
    </g>
    <g id="xtick_3">
     <g id="line2d_3">
      <g>
       <use xlink:href="#md9bb3401ef" x="184.5" y="320.4" style="stroke: #000000; stroke-width: 0.8"/>
      </g>
     </g>
     <g id="text_3">
      <!-- 4 -->
      <g transform="translate(174.5745 351.107125) scale(0.312 -0.312)">
       <defs>
        <path id="DejaVuSans-34" d="M 2419 4116 
L 825 1625 
L 2419 1625 
L 2419 4116 
z
M 2253 4666 
L 3047 4666 
L 3047 1625 
L 3713 1625 
L 3713 1100 
L 3047 1100 
L 3047 0 
L 2419 0 
L 2419 1100 
L 313 1100 
L 313 1709 
L 2253 4666 
z
" transform="scale(0.015625)"/>
       </defs>
       <use xlink:href="#DejaVuSans-34"/>
      </g>
     </g>
    </g>
    <g id="xtick_4">
     <g id="line2d_4">
      <g>
       <use xlink:href="#md9bb3401ef" x="250.147059" y="320.4" style="stroke: #000000; stroke-width: 0.8"/>
      </g>
     </g>
     <g id="text_4">
      <!-- 6 -->
      <g transform="translate(240.221559 351.107125) scale(0.312 -0.312)">
       <defs>
        <path id="DejaVuSans-36" d="M 2113 2584 
Q 1688 2584 1439 2293 
Q 1191 2003 1191 1497 
Q 1191 994 1439 701 
Q 1688 409 2113 409 
Q 2538 409 2786 701 
Q 3034 994 3034 1497 
Q 3034 2003 2786 2293 
Q 2538 2584 2113 2584 
z
M 3366 4563 
L 3366 3988 
Q 3128 4100 2886 4159 
Q 2644 4219 2406 4219 
Q 1781 4219 1451 3797 
Q 1122 3375 1075 2522 
Q 1259 2794 1537 2939 
Q 1816 3084 2150 3084 
Q 2853 3084 3261 2657 
Q 3669 2231 3669 1497 
Q 3669 778 3244 343 
Q 2819 -91 2113 -91 
Q 1303 -91 875 529 
Q 447 1150 447 2328 
Q 447 3434 972 4092 
Q 1497 4750 2381 4750 
Q 2619 4750 2861 4703 
Q 3103 4656 3366 4563 
z
" transform="scale(0.015625)"/>
       </defs>
       <use xlink:href="#DejaVuSans-36"/>
      </g>
     </g>
    </g>
    <g id="xtick_5">
     <g id="line2d_5">
      <g>
       <use xlink:href="#md9bb3401ef" x="315.794118" y="320.4" style="stroke: #000000; stroke-width: 0.8"/>
      </g>
     </g>
     <g id="text_5">
      <!-- 8 -->
      <g transform="translate(305.868618 351.107125) scale(0.312 -0.312)">
       <defs>
        <path id="DejaVuSans-38" d="M 2034 2216 
Q 1584 2216 1326 1975 
Q 1069 1734 1069 1313 
Q 1069 891 1326 650 
Q 1584 409 2034 409 
Q 2484 409 2743 651 
Q 3003 894 3003 1313 
Q 3003 1734 2745 1975 
Q 2488 2216 2034 2216 
z
M 1403 2484 
Q 997 2584 770 2862 
Q 544 3141 544 3541 
Q 544 4100 942 4425 
Q 1341 4750 2034 4750 
Q 2731 4750 3128 4425 
Q 3525 4100 3525 3541 
Q 3525 3141 3298 2862 
Q 3072 2584 2669 2484 
Q 3125 2378 3379 2068 
Q 3634 1759 3634 1313 
Q 3634 634 3220 271 
Q 2806 -91 2034 -91 
Q 1263 -91 848 271 
Q 434 634 434 1313 
Q 434 1759 690 2068 
Q 947 2378 1403 2484 
z
M 1172 3481 
Q 1172 3119 1398 2916 
Q 1625 2713 2034 2713 
Q 2441 2713 2670 2916 
Q 2900 3119 2900 3481 
Q 2900 3844 2670 4047 
Q 2441 4250 2034 4250 
Q 1625 4250 1398 4047 
Q 1172 3844 1172 3481 
z
" transform="scale(0.015625)"/>
       </defs>
       <use xlink:href="#DejaVuSans-38"/>
      </g>
     </g>
    </g>
    <g id="text_6">
     <!-- Time (d) -->
     <g transform="translate(131.813437 382.415656) scale(0.286 -0.286)">
      <defs>
       <path id="ArialMT-54" d="M 1659 0 
L 1659 4041 
L 150 4041 
L 150 4581 
L 3781 4581 
L 3781 4041 
L 2266 4041 
L 2266 0 
L 1659 0 
z
" transform="scale(0.015625)"/>
       <path id="ArialMT-69" d="M 425 3934 
L 425 4581 
L 988 4581 
L 988 3934 
L 425 3934 
z
M 425 0 
L 425 3319 
L 988 3319 
L 988 0 
L 425 0 
z
" transform="scale(0.015625)"/>
       <path id="ArialMT-6d" d="M 422 0 
L 422 3319 
L 925 3319 
L 925 2853 
Q 1081 3097 1340 3245 
Q 1600 3394 1931 3394 
Q 2300 3394 2536 3241 
Q 2772 3088 2869 2813 
Q 3263 3394 3894 3394 
Q 4388 3394 4653 3120 
Q 4919 2847 4919 2278 
L 4919 0 
L 4359 0 
L 4359 2091 
Q 4359 2428 4304 2576 
Q 4250 2725 4106 2815 
Q 3963 2906 3769 2906 
Q 3419 2906 3187 2673 
Q 2956 2441 2956 1928 
L 2956 0 
L 2394 0 
L 2394 2156 
Q 2394 2531 2256 2718 
Q 2119 2906 1806 2906 
Q 1569 2906 1367 2781 
Q 1166 2656 1075 2415 
Q 984 2175 984 1722 
L 984 0 
L 422 0 
z
" transform="scale(0.015625)"/>
       <path id="ArialMT-65" d="M 2694 1069 
L 3275 997 
Q 3138 488 2766 206 
Q 2394 -75 1816 -75 
Q 1088 -75 661 373 
Q 234 822 234 1631 
Q 234 2469 665 2931 
Q 1097 3394 1784 3394 
Q 2450 3394 2872 2941 
Q 3294 2488 3294 1666 
Q 3294 1616 3291 1516 
L 816 1516 
Q 847 969 1125 678 
Q 1403 388 1819 388 
Q 2128 388 2347 550 
Q 2566 713 2694 1069 
z
M 847 1978 
L 2700 1978 
Q 2663 2397 2488 2606 
Q 2219 2931 1791 2931 
Q 1403 2931 1139 2672 
Q 875 2413 847 1978 
z
" transform="scale(0.015625)"/>
       <path id="ArialMT-20" transform="scale(0.015625)"/>
       <path id="ArialMT-28" d="M 1497 -1347 
Q 1031 -759 709 28 
Q 388 816 388 1659 
Q 388 2403 628 3084 
Q 909 3875 1497 4659 
L 1900 4659 
Q 1522 4009 1400 3731 
Q 1209 3300 1100 2831 
Q 966 2247 966 1656 
Q 966 153 1900 -1347 
L 1497 -1347 
z
" transform="scale(0.015625)"/>
       <path id="ArialMT-64" d="M 2575 0 
L 2575 419 
Q 2259 -75 1647 -75 
Q 1250 -75 917 144 
Q 584 363 401 755 
Q 219 1147 219 1656 
Q 219 2153 384 2558 
Q 550 2963 881 3178 
Q 1213 3394 1622 3394 
Q 1922 3394 2156 3267 
Q 2391 3141 2538 2938 
L 2538 4581 
L 3097 4581 
L 3097 0 
L 2575 0 
z
M 797 1656 
Q 797 1019 1065 703 
Q 1334 388 1700 388 
Q 2069 388 2326 689 
Q 2584 991 2584 1609 
Q 2584 2291 2321 2609 
Q 2059 2928 1675 2928 
Q 1300 2928 1048 2622 
Q 797 2316 797 1656 
z
" transform="scale(0.015625)"/>
       <path id="ArialMT-29" d="M 791 -1347 
L 388 -1347 
Q 1322 153 1322 1656 
Q 1322 2244 1188 2822 
Q 1081 3291 891 3722 
Q 769 4003 388 4659 
L 791 4659 
Q 1378 3875 1659 3084 
Q 1900 2403 1900 1659 
Q 1900 816 1576 28 
Q 1253 -759 791 -1347 
z
" transform="scale(0.015625)"/>
      </defs>
      <use xlink:href="#ArialMT-54"/>
      <use xlink:href="#ArialMT-69" transform="translate(57.333984 0)"/>
      <use xlink:href="#ArialMT-6d" transform="translate(79.550781 0)"/>
      <use xlink:href="#ArialMT-65" transform="translate(162.851562 0)"/>
      <use xlink:href="#ArialMT-20" transform="translate(218.466797 0)"/>
      <use xlink:href="#ArialMT-28" transform="translate(246.25 0)"/>
      <use xlink:href="#ArialMT-64" transform="translate(279.550781 0)"/>
      <use xlink:href="#ArialMT-29" transform="translate(335.166016 0)"/>
     </g>
    </g>
   </g>
   <g id="matplotlib.axis_2">
    <g id="ytick_1">
     <g id="line2d_6">
      <defs>
       <path id="m76f49f6991" d="M 0 0 
L -3.5 0 
" style="stroke: #000000; stroke-width: 0.8"/>
      </defs>
      <g>
       <use xlink:href="#m76f49f6991" x="45" y="320.4" style="stroke: #000000; stroke-width: 0.8"/>
      </g>
     </g>
     <g id="text_7">
      <!-- 0 -->
      <g transform="translate(18.149 332.253562) scale(0.312 -0.312)">
       <use xlink:href="#DejaVuSans-30"/>
      </g>
     </g>
    </g>
    <g id="ytick_2">
     <g id="line2d_7">
      <g>
       <use xlink:href="#m76f49f6991" x="45" y="251.1" style="stroke: #000000; stroke-width: 0.8"/>
      </g>
     </g>
     <g id="text_8">
      <!-- 2 -->
      <g transform="translate(18.149 262.953562) scale(0.312 -0.312)">
       <use xlink:href="#DejaVuSans-32"/>
      </g>
     </g>
    </g>
    <g id="ytick_3">
     <g id="line2d_8">
      <g>
       <use xlink:href="#m76f49f6991" x="45" y="181.8" style="stroke: #000000; stroke-width: 0.8"/>
      </g>
     </g>
     <g id="text_9">
      <!-- 4 -->
      <g transform="translate(18.149 193.653562) scale(0.312 -0.312)">
       <use xlink:href="#DejaVuSans-34"/>
      </g>
     </g>
    </g>
    <g id="ytick_4">
     <g id="line2d_9">
      <g>
       <use xlink:href="#m76f49f6991" x="45" y="112.5" style="stroke: #000000; stroke-width: 0.8"/>
      </g>
     </g>
     <g id="text_10">
      <!-- 6 -->
      <g transform="translate(18.149 124.353562) scale(0.312 -0.312)">
       <use xlink:href="#DejaVuSans-36"/>
      </g>
     </g>
    </g>
    <g id="ytick_5">
     <g id="line2d_10">
      <g>
       <use xlink:href="#m76f49f6991" x="45" y="43.2" style="stroke: #000000; stroke-width: 0.8"/>
      </g>
     </g>
     <g id="text_11">
      <!-- 8 -->
      <g transform="translate(18.149 55.053562) scale(0.312 -0.312)">
       <use xlink:href="#DejaVuSans-38"/>
      </g>
     </g>
    </g>
    <g id="text_12">
     <!-- Log$_{10}$ Virus (copies/mL) -->
     <g transform="translate(7.857 334.238) rotate(-90) scale(0.286 -0.286)">
      <defs>
       <path id="ArialMT-4c" d="M 469 0 
L 469 4581 
L 1075 4581 
L 1075 541 
L 3331 541 
L 3331 0 
L 469 0 
z
" transform="scale(0.015625)"/>
       <path id="ArialMT-6f" d="M 213 1659 
Q 213 2581 725 3025 
Q 1153 3394 1769 3394 
Q 2453 3394 2887 2945 
Q 3322 2497 3322 1706 
Q 3322 1066 3130 698 
Q 2938 331 2570 128 
Q 2203 -75 1769 -75 
Q 1072 -75 642 372 
Q 213 819 213 1659 
z
M 791 1659 
Q 791 1022 1069 705 
Q 1347 388 1769 388 
Q 2188 388 2466 706 
Q 2744 1025 2744 1678 
Q 2744 2294 2464 2611 
Q 2184 2928 1769 2928 
Q 1347 2928 1069 2612 
Q 791 2297 791 1659 
z
" transform="scale(0.015625)"/>
       <path id="ArialMT-67" d="M 319 -275 
L 866 -356 
Q 900 -609 1056 -725 
Q 1266 -881 1628 -881 
Q 2019 -881 2231 -725 
Q 2444 -569 2519 -288 
Q 2563 -116 2559 434 
Q 2191 0 1641 0 
Q 956 0 581 494 
Q 206 988 206 1678 
Q 206 2153 378 2554 
Q 550 2956 876 3175 
Q 1203 3394 1644 3394 
Q 2231 3394 2613 2919 
L 2613 3319 
L 3131 3319 
L 3131 450 
Q 3131 -325 2973 -648 
Q 2816 -972 2473 -1159 
Q 2131 -1347 1631 -1347 
Q 1038 -1347 672 -1080 
Q 306 -813 319 -275 
z
M 784 1719 
Q 784 1066 1043 766 
Q 1303 466 1694 466 
Q 2081 466 2343 764 
Q 2606 1063 2606 1700 
Q 2606 2309 2336 2618 
Q 2066 2928 1684 2928 
Q 1309 2928 1046 2623 
Q 784 2319 784 1719 
z
" transform="scale(0.015625)"/>
       <path id="DejaVuSans-31" d="M 794 531 
L 1825 531 
L 1825 4091 
L 703 3866 
L 703 4441 
L 1819 4666 
L 2450 4666 
L 2450 531 
L 3481 531 
L 3481 0 
L 794 0 
L 794 531 
z
" transform="scale(0.015625)"/>
       <path id="ArialMT-56" d="M 1803 0 
L 28 4581 
L 684 4581 
L 1875 1253 
Q 2019 853 2116 503 
Q 2222 878 2363 1253 
L 3600 4581 
L 4219 4581 
L 2425 0 
L 1803 0 
z
" transform="scale(0.015625)"/>
       <path id="ArialMT-72" d="M 416 0 
L 416 3319 
L 922 3319 
L 922 2816 
Q 1116 3169 1280 3281 
Q 1444 3394 1641 3394 
Q 1925 3394 2219 3213 
L 2025 2691 
Q 1819 2813 1613 2813 
Q 1428 2813 1281 2702 
Q 1134 2591 1072 2394 
Q 978 2094 978 1738 
L 978 0 
L 416 0 
z
" transform="scale(0.015625)"/>
       <path id="ArialMT-75" d="M 2597 0 
L 2597 488 
Q 2209 -75 1544 -75 
Q 1250 -75 995 37 
Q 741 150 617 320 
Q 494 491 444 738 
Q 409 903 409 1263 
L 409 3319 
L 972 3319 
L 972 1478 
Q 972 1038 1006 884 
Q 1059 663 1231 536 
Q 1403 409 1656 409 
Q 1909 409 2131 539 
Q 2353 669 2445 892 
Q 2538 1116 2538 1541 
L 2538 3319 
L 3100 3319 
L 3100 0 
L 2597 0 
z
" transform="scale(0.015625)"/>
       <path id="ArialMT-73" d="M 197 991 
L 753 1078 
Q 800 744 1014 566 
Q 1228 388 1613 388 
Q 2000 388 2187 545 
Q 2375 703 2375 916 
Q 2375 1106 2209 1216 
Q 2094 1291 1634 1406 
Q 1016 1563 777 1677 
Q 538 1791 414 1992 
Q 291 2194 291 2438 
Q 291 2659 392 2848 
Q 494 3038 669 3163 
Q 800 3259 1026 3326 
Q 1253 3394 1513 3394 
Q 1903 3394 2198 3281 
Q 2494 3169 2634 2976 
Q 2775 2784 2828 2463 
L 2278 2388 
Q 2241 2644 2061 2787 
Q 1881 2931 1553 2931 
Q 1166 2931 1000 2803 
Q 834 2675 834 2503 
Q 834 2394 903 2306 
Q 972 2216 1119 2156 
Q 1203 2125 1616 2013 
Q 2213 1853 2448 1751 
Q 2684 1650 2818 1456 
Q 2953 1263 2953 975 
Q 2953 694 2789 445 
Q 2625 197 2315 61 
Q 2006 -75 1616 -75 
Q 969 -75 630 194 
Q 291 463 197 991 
z
" transform="scale(0.015625)"/>
       <path id="ArialMT-63" d="M 2588 1216 
L 3141 1144 
Q 3050 572 2676 248 
Q 2303 -75 1759 -75 
Q 1078 -75 664 370 
Q 250 816 250 1647 
Q 250 2184 428 2587 
Q 606 2991 970 3192 
Q 1334 3394 1763 3394 
Q 2303 3394 2647 3120 
Q 2991 2847 3088 2344 
L 2541 2259 
Q 2463 2594 2264 2762 
Q 2066 2931 1784 2931 
Q 1359 2931 1093 2626 
Q 828 2322 828 1663 
Q 828 994 1084 691 
Q 1341 388 1753 388 
Q 2084 388 2306 591 
Q 2528 794 2588 1216 
z
" transform="scale(0.015625)"/>
       <path id="ArialMT-70" d="M 422 -1272 
L 422 3319 
L 934 3319 
L 934 2888 
Q 1116 3141 1344 3267 
Q 1572 3394 1897 3394 
Q 2322 3394 2647 3175 
Q 2972 2956 3137 2557 
Q 3303 2159 3303 1684 
Q 3303 1175 3120 767 
Q 2938 359 2589 142 
Q 2241 -75 1856 -75 
Q 1575 -75 1351 44 
Q 1128 163 984 344 
L 984 -1272 
L 422 -1272 
z
M 931 1641 
Q 931 1000 1190 694 
Q 1450 388 1819 388 
Q 2194 388 2461 705 
Q 2728 1022 2728 1688 
Q 2728 2322 2467 2637 
Q 2206 2953 1844 2953 
Q 1484 2953 1207 2617 
Q 931 2281 931 1641 
z
" transform="scale(0.015625)"/>
       <path id="ArialMT-2f" d="M 0 -78 
L 1328 4659 
L 1778 4659 
L 453 -78 
L 0 -78 
z
" transform="scale(0.015625)"/>
      </defs>
      <use xlink:href="#ArialMT-4c" transform="translate(0 0.203125)"/>
      <use xlink:href="#ArialMT-6f" transform="translate(55.615234 0.203125)"/>
      <use xlink:href="#ArialMT-67" transform="translate(111.230469 0.203125)"/>
      <use xlink:href="#DejaVuSans-31" transform="translate(167.802734 -16.203125) scale(0.7)"/>
      <use xlink:href="#DejaVuSans-30" transform="translate(212.338867 -16.203125) scale(0.7)"/>
      <use xlink:href="#ArialMT-20" transform="translate(259.609375 0.203125)"/>
      <use xlink:href="#ArialMT-56" transform="translate(287.392578 0.203125)"/>
      <use xlink:href="#ArialMT-69" transform="translate(354.091797 0.203125)"/>
      <use xlink:href="#ArialMT-72" transform="translate(376.308594 0.203125)"/>
      <use xlink:href="#ArialMT-75" transform="translate(409.609375 0.203125)"/>
      <use xlink:href="#ArialMT-73" transform="translate(465.224609 0.203125)"/>
      <use xlink:href="#ArialMT-20" transform="translate(515.224609 0.203125)"/>
      <use xlink:href="#ArialMT-28" transform="translate(543.007812 0.203125)"/>
      <use xlink:href="#ArialMT-63" transform="translate(576.308594 0.203125)"/>
      <use xlink:href="#ArialMT-6f" transform="translate(626.308594 0.203125)"/>
      <use xlink:href="#ArialMT-70" transform="translate(681.923828 0.203125)"/>
      <use xlink:href="#ArialMT-69" transform="translate(737.539062 0.203125)"/>
      <use xlink:href="#ArialMT-65" transform="translate(759.755859 0.203125)"/>
      <use xlink:href="#ArialMT-73" transform="translate(815.371094 0.203125)"/>
      <use xlink:href="#ArialMT-2f" transform="translate(865.371094 0.203125)"/>
      <use xlink:href="#ArialMT-6d" transform="translate(893.154297 0.203125)"/>
      <use xlink:href="#ArialMT-4c" transform="translate(976.455078 0.203125)"/>
      <use xlink:href="#ArialMT-29" transform="translate(1032.070312 0.203125)"/>
     </g>
    </g>
   </g>
   <g id="patch_3">
    <path d="M 45 320.4 
L 45 43.2 
" style="fill: none; stroke: #000000; stroke-width: 0.8; stroke-linejoin: miter; stroke-linecap: square"/>
   </g>
   <g id="patch_4">
    <path d="M 324 320.4 
L 324 43.2 
" style="fill: none; stroke: #000000; stroke-width: 0.8; stroke-linejoin: miter; stroke-linecap: square"/>
   </g>
   <g id="patch_5">
    <path d="M 45 320.4 
L 324 320.4 
" style="fill: none; stroke: #000000; stroke-width: 0.8; stroke-linejoin: miter; stroke-linecap: square"/>
   </g>
   <g id="patch_6">
    <path d="M 45 43.2 
L 324 43.2 
" style="fill: none; stroke: #000000; stroke-width: 0.8; stroke-linejoin: miter; stroke-linecap: square"/>
   </g>
   <g id="FillBetweenPolyCollection_1">
    <defs>
     <path id="m934b9bb0c8" d="M 53.205882 -39.6 
L 53.205882 -39.6 
L 53.206389 -39.6 
L 53.211451 -39.6 
L 53.262078 -39.6 
L 53.667175 -39.6 
L 53.936211 -39.6 
L 54.878724 -39.6 
L 55.408189 -39.6 
L 57.235695 -39.6 
L 58.12699 -39.6 
L 60.686842 -39.6 
L 61.807292 -39.6 
L 64.269568 -39.6 
L 65.573081 -39.6 
L 68.052576 -39.6 
L 69.501674 -39.6 
L 71.98356 -39.6 
L 73.545722 -39.6 
L 76.020185 -39.6 
L 77.667627 -39.6 
L 80.128232 -39.6 
L 81.837319 -41.132895 
L 84.553154 -47.391998 
L 86.231364 -51.714187 
L 88.570915 -57.752571 
L 90.323831 -62.275013 
L 92.88736 -68.87746 
L 94.638428 -73.387556 
L 97.0326 -79.553987 
L 98.832613 -84.193398 
L 101.420629 -90.844336 
L 103.207568 -95.437466 
L 105.618513 -101.617438 
L 107.451832 -106.320366 
L 110.052292 -112.94041 
L 111.8811 -117.588114 
L 114.370481 -123.844433 
L 116.252954 -128.54975 
L 118.962206 -135.173371 
L 120.871132 -139.75549 
L 123.822176 -146.548257 
L 125.733951 -150.750787 
L 128.398399 -156.148597 
L 130.399116 -159.812066 
L 133.348824 -164.520071 
L 135.436403 -167.193586 
L 138.718756 -170.324354 
L 140.821879 -171.033199 
L 143.938192 -171.166254 
L 146.160749 -170.615435 
L 149.082932 -169.344759 
L 151.486558 -168.02868 
L 154.624108 -166.121698 
L 157.081336 -164.4685 
L 160.176504 -162.258187 
L 163.271673 -159.922736 
L 166.554026 -157.337799 
L 169.836379 -154.66847 
L 173.118731 -151.93252 
L 176.401084 -149.143605 
L 179.683437 -146.312189 
L 182.96579 -143.446324 
L 186.248143 -140.552211 
L 189.530496 -137.634602 
L 192.812849 -134.697091 
L 196.095202 -131.741778 
L 199.377555 -128.6813 
L 202.659908 -125.596879 
L 205.942261 -122.494346 
L 209.224614 -119.328862 
L 212.506967 -115.978561 
L 215.78932 -112.606736 
L 219.071673 -109.21137 
L 222.354026 -105.789785 
L 225.636379 -102.338658 
L 228.918731 -98.854065 
L 232.201084 -95.331561 
L 235.483437 -91.76633 
L 238.76579 -88.153433 
L 242.048143 -84.488143 
L 245.330496 -80.766397 
L 248.612849 -76.985292 
L 251.895202 -73.143583 
L 255.177555 -69.242057 
L 258.459908 -65.283683 
L 261.742261 -61.273468 
L 265.024614 -57.218034 
L 268.306967 -53.125006 
L 271.58932 -49.002337 
L 274.871673 -44.857725 
L 278.154026 -40.828906 
L 281.436379 -39.6 
L 284.718731 -39.6 
L 288.001084 -39.6 
L 291.283437 -39.6 
L 294.56579 -39.6 
L 297.848143 -39.6 
L 301.130496 -39.6 
L 304.412849 -39.6 
L 307.695202 -39.6 
L 310.977555 -39.6 
L 314.259908 -39.6 
L 315.794118 -39.6 
L 315.794118 -39.6 
L 315.794118 -39.6 
L 314.259908 -39.6 
L 310.977555 -39.6 
L 307.695202 -39.6 
L 304.412849 -39.6 
L 301.130496 -39.6 
L 297.848143 -39.6 
L 294.56579 -39.6 
L 291.283437 -39.686919 
L 288.001084 -42.138794 
L 284.718731 -45.811758 
L 281.436379 -49.467208 
L 278.154026 -53.0995 
L 274.871673 -56.702836 
L 271.58932 -60.271605 
L 268.306967 -63.800767 
L 265.024614 -67.286226 
L 261.742261 -70.725112 
L 258.459908 -74.115947 
L 255.177555 -77.458649 
L 251.895202 -80.754395 
L 248.612849 -84.124217 
L 245.330496 -87.640595 
L 242.048143 -91.108654 
L 238.76579 -94.532625 
L 235.483437 -97.916945 
L 232.201084 -101.265964 
L 228.918731 -104.583748 
L 225.636379 -107.873943 
L 222.354026 -111.139696 
L 219.071673 -114.383626 
L 215.78932 -117.607803 
L 212.506967 -120.813744 
L 209.224614 -124.002412 
L 205.942261 -127.1742 
L 202.659908 -130.328911 
L 199.377555 -133.465712 
L 196.095202 -136.583069 
L 192.812849 -139.67865 
L 189.530496 -142.749193 
L 186.248143 -145.79032 
L 182.96579 -148.79629 
L 179.683437 -151.759666 
L 176.401084 -154.670847 
L 173.118731 -157.517426 
L 169.836379 -160.283274 
L 166.554026 -162.947235 
L 163.271673 -165.482913 
L 160.176504 -167.714936 
L 157.081336 -169.756743 
L 154.624108 -171.20952 
L 151.486558 -172.766539 
L 149.082932 -173.685522 
L 146.160749 -174.391086 
L 143.938192 -174.743749 
L 140.821879 -174.939172 
L 138.718756 -174.63066 
L 135.436403 -173.147927 
L 133.348824 -171.516702 
L 130.399116 -168.139005 
L 128.398399 -165.242962 
L 125.733951 -161.032688 
L 123.822176 -157.566348 
L 120.871132 -151.233691 
L 118.962206 -146.835973 
L 116.252954 -140.066273 
L 114.370481 -135.197758 
L 111.8811 -128.542521 
L 110.052292 -123.574625 
L 107.451832 -116.402789 
L 105.618513 -111.30867 
L 103.207568 -104.571679 
L 101.420629 -99.562116 
L 98.832613 -92.28002 
L 97.0326 -87.24859 
L 94.638428 -80.699389 
L 92.88736 -75.923515 
L 90.323831 -68.914426 
L 88.570915 -64.133952 
L 86.231364 -57.720075 
L 84.553154 -53.137304 
L 81.837319 -45.704487 
L 80.128232 -41.041119 
L 77.667627 -39.643115 
L 76.020185 -39.6 
L 73.545722 -39.6 
L 71.98356 -39.6 
L 69.501674 -39.6 
L 68.052576 -39.6 
L 65.573081 -39.6 
L 64.269568 -39.6 
L 61.807292 -39.6 
L 60.686842 -39.6 
L 58.12699 -39.6 
L 57.235695 -39.6 
L 55.408189 -39.6 
L 54.878724 -39.6 
L 53.936211 -39.6 
L 53.667175 -39.6 
L 53.262078 -39.6 
L 53.211451 -39.6 
L 53.206389 -39.6 
L 53.205882 -39.6 
z
" style="stroke: #e200ff; stroke-opacity: 0.2"/>
    </defs>
    <g clip-path="url(#pe626f97e0d)">
     <use xlink:href="#m934b9bb0c8" x="0" y="360" style="fill: #e200ff; fill-opacity: 0.2; stroke: #e200ff; stroke-opacity: 0.2"/>
    </g>
   </g>
   <g id="PathCollection_1">
    <defs>
     <path id="mf73726e647" d="M 0 7.071068 
C 1.875269 7.071068 3.673985 6.326016 5 5 
C 6.326016 3.673985 7.071068 1.875269 7.071068 0 
C 7.071068 -1.875269 6.326016 -3.673985 5 -5 
C 3.673985 -6.326016 1.875269 -7.071068 0 -7.071068 
C -1.875269 -7.071068 -3.673985 -6.326016 -5 -5 
C -6.326016 -3.673985 -7.071068 -1.875269 -7.071068 0 
C -7.071068 1.875269 -6.326016 3.673985 -5 5 
C -3.673985 6.326016 -1.875269 7.071068 0 7.071068 
z
" style="stroke: #000000; stroke-opacity: 0.8"/>
    </defs>
    <g clip-path="url(#pe626f97e0d)">
     <use xlink:href="#mf73726e647" x="53.205882" y="320.4" style="fill-opacity: 0.8; stroke: #000000; stroke-opacity: 0.8"/>
     <use xlink:href="#mf73726e647" x="86.029412" y="317.191667" style="fill-opacity: 0.8; stroke: #000000; stroke-opacity: 0.8"/>
     <use xlink:href="#mf73726e647" x="118.852941" y="220.941667" style="fill-opacity: 0.8; stroke: #000000; stroke-opacity: 0.8"/>
     <use xlink:href="#mf73726e647" x="151.676471" y="172.816667" style="fill-opacity: 0.8; stroke: #000000; stroke-opacity: 0.8"/>
     <use xlink:href="#mf73726e647" x="184.5" y="262.65" style="fill-opacity: 0.8; stroke: #000000; stroke-opacity: 0.8"/>
     <use xlink:href="#mf73726e647" x="217.323529" y="236.983333" style="fill-opacity: 0.8; stroke: #000000; stroke-opacity: 0.8"/>
     <use xlink:href="#mf73726e647" x="250.147059" y="272.275" style="fill-opacity: 0.8; stroke: #000000; stroke-opacity: 0.8"/>
     <use xlink:href="#mf73726e647" x="282.970588" y="320.4" style="fill-opacity: 0.8; stroke: #000000; stroke-opacity: 0.8"/>
    </g>
   </g>
   <g id="line2d_11">
    <path d="M 53.205882 320.4 
L 53.206389 320.4 
L 53.211451 320.4 
L 53.262078 320.4 
L 53.667175 320.4 
L 53.936211 320.4 
L 54.878724 320.4 
L 55.408189 320.4 
L 57.235695 320.4 
L 58.12699 320.4 
L 60.686842 320.4 
L 61.807292 320.4 
L 64.269568 320.4 
L 65.573081 320.4 
L 68.052576 320.4 
L 69.501674 320.4 
L 71.98356 320.4 
L 73.545722 320.4 
L 76.020185 320.4 
L 77.667627 320.4 
L 80.128232 320.4 
L 81.837319 318.412273 
L 84.553154 310.994628 
L 86.231364 306.437629 
L 88.570915 300.064264 
L 90.323831 295.304214 
L 92.88736 288.314161 
L 94.638428 283.562243 
L 97.0326 277.047009 
L 98.832613 272.167748 
L 101.420629 265.131341 
L 103.207568 260.302618 
L 105.618513 253.784119 
L 107.451832 248.860559 
L 110.052292 241.891572 
L 111.8811 237.051321 
L 114.370481 230.526886 
L 116.252954 225.695263 
L 118.962206 218.921942 
L 120.871132 214.356282 
L 123.822176 207.742184 
L 125.733951 203.842074 
L 128.398399 199.049255 
L 130.399116 196.012373 
L 133.348824 192.526459 
L 135.436403 190.764327 
L 138.718756 189.111303 
L 140.821879 188.675316 
L 143.938192 188.755322 
L 146.160749 189.243727 
L 149.082932 190.300815 
L 151.486558 191.452228 
L 154.624108 193.243234 
L 157.081336 194.828118 
L 160.176504 196.997692 
L 163.271673 199.320924 
L 166.554026 201.915095 
L 169.836379 204.614591 
L 173.118731 207.396986 
L 176.401084 210.245292 
L 179.683437 213.146504 
L 182.96579 216.090597 
L 186.248143 219.069823 
L 189.530496 222.078203 
L 192.812849 225.111163 
L 196.095202 228.165267 
L 199.377555 231.238013 
L 202.659908 234.327693 
L 205.942261 237.43328 
L 209.224614 240.554356 
L 212.506967 243.69106 
L 215.78932 246.844053 
L 219.071673 250.014505 
L 222.354026 253.20409 
L 225.636379 256.414982 
L 228.918731 259.649854 
L 232.201084 262.911862 
L 235.483437 266.204606 
L 238.76579 269.532056 
L 242.048143 272.898419 
L 245.330496 276.307938 
L 248.612849 279.764622 
L 251.895202 283.271899 
L 255.177555 286.832228 
L 258.459908 290.446729 
L 261.742261 294.114885 
L 265.024614 297.834413 
L 268.306967 301.601337 
L 271.58932 305.410276 
L 274.871673 309.254892 
L 278.154026 313.128397 
L 281.436379 317.024048 
L 284.718731 320.4 
L 288.001084 320.4 
L 291.283437 320.4 
L 294.56579 320.4 
L 297.848143 320.4 
L 301.130496 320.4 
L 304.412849 320.4 
L 307.695202 320.4 
L 310.977555 320.4 
L 314.259908 320.4 
L 315.794118 320.4 
" clip-path="url(#pe626f97e0d)" style="fill: none; stroke: #e200ff; stroke-width: 3; stroke-linecap: square"/>
   </g>
  </g>
  <g id="text_13">
   <!-- Individual 27 -->
   <g transform="translate(20.408438 29.532375) scale(0.312 -0.312)">
    <defs>
     <path id="ArialMT-49" d="M 597 0 
L 597 4581 
L 1203 4581 
L 1203 0 
L 597 0 
z
" transform="scale(0.015625)"/>
     <path id="ArialMT-6e" d="M 422 0 
L 422 3319 
L 928 3319 
L 928 2847 
Q 1294 3394 1984 3394 
Q 2284 3394 2536 3286 
Q 2788 3178 2913 3003 
Q 3038 2828 3088 2588 
Q 3119 2431 3119 2041 
L 3119 0 
L 2556 0 
L 2556 2019 
Q 2556 2363 2490 2533 
Q 2425 2703 2258 2804 
Q 2091 2906 1866 2906 
Q 1506 2906 1245 2678 
Q 984 2450 984 1813 
L 984 0 
L 422 0 
z
" transform="scale(0.015625)"/>
     <path id="ArialMT-76" d="M 1344 0 
L 81 3319 
L 675 3319 
L 1388 1331 
Q 1503 1009 1600 663 
Q 1675 925 1809 1294 
L 2547 3319 
L 3125 3319 
L 1869 0 
L 1344 0 
z
" transform="scale(0.015625)"/>
     <path id="ArialMT-61" d="M 2588 409 
Q 2275 144 1986 34 
Q 1697 -75 1366 -75 
Q 819 -75 525 192 
Q 231 459 231 875 
Q 231 1119 342 1320 
Q 453 1522 633 1644 
Q 813 1766 1038 1828 
Q 1203 1872 1538 1913 
Q 2219 1994 2541 2106 
Q 2544 2222 2544 2253 
Q 2544 2597 2384 2738 
Q 2169 2928 1744 2928 
Q 1347 2928 1158 2789 
Q 969 2650 878 2297 
L 328 2372 
Q 403 2725 575 2942 
Q 747 3159 1072 3276 
Q 1397 3394 1825 3394 
Q 2250 3394 2515 3294 
Q 2781 3194 2906 3042 
Q 3031 2891 3081 2659 
Q 3109 2516 3109 2141 
L 3109 1391 
Q 3109 606 3145 398 
Q 3181 191 3288 0 
L 2700 0 
Q 2613 175 2588 409 
z
M 2541 1666 
Q 2234 1541 1622 1453 
Q 1275 1403 1131 1340 
Q 988 1278 909 1158 
Q 831 1038 831 891 
Q 831 666 1001 516 
Q 1172 366 1500 366 
Q 1825 366 2078 508 
Q 2331 650 2450 897 
Q 2541 1088 2541 1459 
L 2541 1666 
z
" transform="scale(0.015625)"/>
     <path id="ArialMT-6c" d="M 409 0 
L 409 4581 
L 972 4581 
L 972 0 
L 409 0 
z
" transform="scale(0.015625)"/>
     <path id="ArialMT-32" d="M 3222 541 
L 3222 0 
L 194 0 
Q 188 203 259 391 
Q 375 700 629 1000 
Q 884 1300 1366 1694 
Q 2113 2306 2375 2664 
Q 2638 3022 2638 3341 
Q 2638 3675 2398 3904 
Q 2159 4134 1775 4134 
Q 1369 4134 1125 3890 
Q 881 3647 878 3216 
L 300 3275 
Q 359 3922 746 4261 
Q 1134 4600 1788 4600 
Q 2447 4600 2831 4234 
Q 3216 3869 3216 3328 
Q 3216 3053 3103 2787 
Q 2991 2522 2730 2228 
Q 2469 1934 1863 1422 
Q 1356 997 1212 845 
Q 1069 694 975 541 
L 3222 541 
z
" transform="scale(0.015625)"/>
     <path id="ArialMT-37" d="M 303 3981 
L 303 4522 
L 3269 4522 
L 3269 4084 
Q 2831 3619 2401 2847 
Q 1972 2075 1738 1259 
Q 1569 684 1522 0 
L 944 0 
Q 953 541 1156 1306 
Q 1359 2072 1739 2783 
Q 2119 3494 2547 3981 
L 303 3981 
z
" transform="scale(0.015625)"/>
    </defs>
    <use xlink:href="#ArialMT-49"/>
    <use xlink:href="#ArialMT-6e" transform="translate(27.783203 0)"/>
    <use xlink:href="#ArialMT-64" transform="translate(83.398438 0)"/>
    <use xlink:href="#ArialMT-69" transform="translate(139.013672 0)"/>
    <use xlink:href="#ArialMT-76" transform="translate(161.230469 0)"/>
    <use xlink:href="#ArialMT-69" transform="translate(211.230469 0)"/>
    <use xlink:href="#ArialMT-64" transform="translate(233.447266 0)"/>
    <use xlink:href="#ArialMT-75" transform="translate(289.0625 0)"/>
    <use xlink:href="#ArialMT-61" transform="translate(344.677734 0)"/>
    <use xlink:href="#ArialMT-6c" transform="translate(400.292969 0)"/>
    <use xlink:href="#ArialMT-20" transform="translate(422.509766 0)"/>
    <use xlink:href="#ArialMT-32" transform="translate(450.292969 0)"/>
    <use xlink:href="#ArialMT-37" transform="translate(505.908203 0)"/>
   </g>
  </g>
 </g>
 <defs>
  <clipPath id="pe626f97e0d">
   <rect x="45" y="43.2" width="279" height="277.2"/>
  </clipPath>
 </defs>
</svg>
