<?xml version="1.0" encoding="utf-8" standalone="no"?>
<!DOCTYPE svg PUBLIC "-//W3C//DTD SVG 1.1//EN"
  "http://www.w3.org/Graphics/SVG/1.1/DTD/svg11.dtd">
<svg xmlns:xlink="http://www.w3.org/1999/xlink" width="720pt" height="360pt" viewBox="0 0 720 360" xmlns="http://www.w3.org/2000/svg" version="1.1">
 <metadata>
  <rdf:RDF xmlns:dc="http://purl.org/dc/elements/1.1/" xmlns:cc="http://creativecommons.org/ns#" xmlns:rdf="http://www.w3.org/1999/02/22-rdf-syntax-ns#">
   <cc:Work>
    <dc:type rdf:resource="http://purl.org/dc/dcmitype/StillImage"/>
    <dc:date>2024-11-05T00:02:35.232069</dc:date>
    <dc:format>image/svg+xml</dc:format>
    <dc:creator>
     <cc:Agent>
      <dc:title>Matplotlib v3.9.2, https://matplotlib.org/</dc:title>
     </cc:Agent>
    </dc:creator>
   </cc:Work>
  </rdf:RDF>
 </metadata>
 <defs>
  <style type="text/css">*{stroke-linejoin: round; stroke-linecap: butt}</style>
 </defs>
 <g id="figure_1">
  <g id="patch_1">
   <path d="M 0 360 
L 720 360 
L 720 0 
L 0 0 
z
" style="fill: #ffffff"/>
  </g>
  <g id="axes_1">
   <g id="patch_2">
    <path d="M 90 320.4 
L 327.272727 320.4 
L 327.272727 43.2 
L 90 43.2 
z
" style="fill: #ffffff"/>
   </g>
   <g id="matplotlib.axis_1">
    <g id="xtick_1">
     <g id="line2d_1">
      <defs>
       <path id="m393620ad11" d="M 0 0 
L 0 3.5 
" style="stroke: #000000; stroke-width: 0.8"/>
      </defs>
      <g>
       <use xlink:href="#m393620ad11" x="92.89357" y="320.4" style="stroke: #000000; stroke-width: 0.8"/>
      </g>
     </g>
     <g id="text_1">
      <!-- 0 -->
      <g transform="translate(88.31257 338.34175) scale(0.144 -0.144)">
       <defs>
        <path id="DejaVuSans-30" d="M 2034 4250 
Q 1547 4250 1301 3770 
Q 1056 3291 1056 2328 
Q 1056 1369 1301 889 
Q 1547 409 2034 409 
Q 2525 409 2770 889 
Q 3016 1369 3016 2328 
Q 3016 3291 2770 3770 
Q 2525 4250 2034 4250 
z
M 2034 4750 
Q 2819 4750 3233 4129 
Q 3647 3509 3647 2328 
Q 3647 1150 3233 529 
Q 2819 -91 2034 -91 
Q 1250 -91 836 529 
Q 422 1150 422 2328 
Q 422 3509 836 4129 
Q 1250 4750 2034 4750 
z
" transform="scale(0.015625)"/>
       </defs>
       <use xlink:href="#DejaVuSans-30"/>
      </g>
     </g>
    </g>
    <g id="xtick_2">
     <g id="line2d_2">
      <g>
       <use xlink:href="#m393620ad11" x="121.829268" y="320.4" style="stroke: #000000; stroke-width: 0.8"/>
      </g>
     </g>
     <g id="text_2">
      <!-- 1 -->
      <g transform="translate(117.248268 338.34175) scale(0.144 -0.144)">
       <defs>
        <path id="DejaVuSans-31" d="M 794 531 
L 1825 531 
L 1825 4091 
L 703 3866 
L 703 4441 
L 1819 4666 
L 2450 4666 
L 2450 531 
L 3481 531 
L 3481 0 
L 794 0 
L 794 531 
z
" transform="scale(0.015625)"/>
       </defs>
       <use xlink:href="#DejaVuSans-31"/>
      </g>
     </g>
    </g>
    <g id="xtick_3">
     <g id="line2d_3">
      <g>
       <use xlink:href="#m393620ad11" x="150.764967" y="320.4" style="stroke: #000000; stroke-width: 0.8"/>
      </g>
     </g>
     <g id="text_3">
      <!-- 2 -->
      <g transform="translate(146.183967 338.34175) scale(0.144 -0.144)">
       <defs>
        <path id="DejaVuSans-32" d="M 1228 531 
L 3431 531 
L 3431 0 
L 469 0 
L 469 531 
Q 828 903 1448 1529 
Q 2069 2156 2228 2338 
Q 2531 2678 2651 2914 
Q 2772 3150 2772 3378 
Q 2772 3750 2511 3984 
Q 2250 4219 1831 4219 
Q 1534 4219 1204 4116 
Q 875 4013 500 3803 
L 500 4441 
Q 881 4594 1212 4672 
Q 1544 4750 1819 4750 
Q 2544 4750 2975 4387 
Q 3406 4025 3406 3419 
Q 3406 3131 3298 2873 
Q 3191 2616 2906 2266 
Q 2828 2175 2409 1742 
Q 1991 1309 1228 531 
z
" transform="scale(0.015625)"/>
       </defs>
       <use xlink:href="#DejaVuSans-32"/>
      </g>
     </g>
    </g>
    <g id="xtick_4">
     <g id="line2d_4">
      <g>
       <use xlink:href="#m393620ad11" x="179.700665" y="320.4" style="stroke: #000000; stroke-width: 0.8"/>
      </g>
     </g>
     <g id="text_4">
      <!-- 3 -->
      <g transform="translate(175.119665 338.34175) scale(0.144 -0.144)">
       <defs>
        <path id="DejaVuSans-33" d="M 2597 2516 
Q 3050 2419 3304 2112 
Q 3559 1806 3559 1356 
Q 3559 666 3084 287 
Q 2609 -91 1734 -91 
Q 1441 -91 1130 -33 
Q 819 25 488 141 
L 488 750 
Q 750 597 1062 519 
Q 1375 441 1716 441 
Q 2309 441 2620 675 
Q 2931 909 2931 1356 
Q 2931 1769 2642 2001 
Q 2353 2234 1838 2234 
L 1294 2234 
L 1294 2753 
L 1863 2753 
Q 2328 2753 2575 2939 
Q 2822 3125 2822 3475 
Q 2822 3834 2567 4026 
Q 2313 4219 1838 4219 
Q 1578 4219 1281 4162 
Q 984 4106 628 3988 
L 628 4550 
Q 988 4650 1302 4700 
Q 1616 4750 1894 4750 
Q 2613 4750 3031 4423 
Q 3450 4097 3450 3541 
Q 3450 3153 3228 2886 
Q 3006 2619 2597 2516 
z
" transform="scale(0.015625)"/>
       </defs>
       <use xlink:href="#DejaVuSans-33"/>
      </g>
     </g>
    </g>
    <g id="xtick_5">
     <g id="line2d_5">
      <g>
       <use xlink:href="#m393620ad11" x="208.636364" y="320.4" style="stroke: #000000; stroke-width: 0.8"/>
      </g>
     </g>
     <g id="text_5">
      <!-- 4 -->
      <g transform="translate(204.055364 338.34175) scale(0.144 -0.144)">
       <defs>
        <path id="DejaVuSans-34" d="M 2419 4116 
L 825 1625 
L 2419 1625 
L 2419 4116 
z
M 2253 4666 
L 3047 4666 
L 3047 1625 
L 3713 1625 
L 3713 1100 
L 3047 1100 
L 3047 0 
L 2419 0 
L 2419 1100 
L 313 1100 
L 313 1709 
L 2253 4666 
z
" transform="scale(0.015625)"/>
       </defs>
       <use xlink:href="#DejaVuSans-34"/>
      </g>
     </g>
    </g>
    <g id="xtick_6">
     <g id="line2d_6">
      <g>
       <use xlink:href="#m393620ad11" x="237.572062" y="320.4" style="stroke: #000000; stroke-width: 0.8"/>
      </g>
     </g>
     <g id="text_6">
      <!-- 5 -->
      <g transform="translate(232.991062 338.34175) scale(0.144 -0.144)">
       <defs>
        <path id="DejaVuSans-35" d="M 691 4666 
L 3169 4666 
L 3169 4134 
L 1269 4134 
L 1269 2991 
Q 1406 3038 1543 3061 
Q 1681 3084 1819 3084 
Q 2600 3084 3056 2656 
Q 3513 2228 3513 1497 
Q 3513 744 3044 326 
Q 2575 -91 1722 -91 
Q 1428 -91 1123 -41 
Q 819 9 494 109 
L 494 744 
Q 775 591 1075 516 
Q 1375 441 1709 441 
Q 2250 441 2565 725 
Q 2881 1009 2881 1497 
Q 2881 1984 2565 2268 
Q 2250 2553 1709 2553 
Q 1456 2553 1204 2497 
Q 953 2441 691 2322 
L 691 4666 
z
" transform="scale(0.015625)"/>
       </defs>
       <use xlink:href="#DejaVuSans-35"/>
      </g>
     </g>
    </g>
    <g id="xtick_7">
     <g id="line2d_7">
      <g>
       <use xlink:href="#m393620ad11" x="266.507761" y="320.4" style="stroke: #000000; stroke-width: 0.8"/>
      </g>
     </g>
     <g id="text_7">
      <!-- 6 -->
      <g transform="translate(261.926761 338.34175) scale(0.144 -0.144)">
       <defs>
        <path id="DejaVuSans-36" d="M 2113 2584 
Q 1688 2584 1439 2293 
Q 1191 2003 1191 1497 
Q 1191 994 1439 701 
Q 1688 409 2113 409 
Q 2538 409 2786 701 
Q 3034 994 3034 1497 
Q 3034 2003 2786 2293 
Q 2538 2584 2113 2584 
z
M 3366 4563 
L 3366 3988 
Q 3128 4100 2886 4159 
Q 2644 4219 2406 4219 
Q 1781 4219 1451 3797 
Q 1122 3375 1075 2522 
Q 1259 2794 1537 2939 
Q 1816 3084 2150 3084 
Q 2853 3084 3261 2657 
Q 3669 2231 3669 1497 
Q 3669 778 3244 343 
Q 2819 -91 2113 -91 
Q 1303 -91 875 529 
Q 447 1150 447 2328 
Q 447 3434 972 4092 
Q 1497 4750 2381 4750 
Q 2619 4750 2861 4703 
Q 3103 4656 3366 4563 
z
" transform="scale(0.015625)"/>
       </defs>
       <use xlink:href="#DejaVuSans-36"/>
      </g>
     </g>
    </g>
    <g id="xtick_8">
     <g id="line2d_8">
      <g>
       <use xlink:href="#m393620ad11" x="295.443459" y="320.4" style="stroke: #000000; stroke-width: 0.8"/>
      </g>
     </g>
     <g id="text_8">
      <!-- 7 -->
      <g transform="translate(290.862459 338.34175) scale(0.144 -0.144)">
       <defs>
        <path id="DejaVuSans-37" d="M 525 4666 
L 3525 4666 
L 3525 4397 
L 1831 0 
L 1172 0 
L 2766 4134 
L 525 4134 
L 525 4666 
z
" transform="scale(0.015625)"/>
       </defs>
       <use xlink:href="#DejaVuSans-37"/>
      </g>
     </g>
    </g>
    <g id="xtick_9">
     <g id="line2d_9">
      <g>
       <use xlink:href="#m393620ad11" x="324.379157" y="320.4" style="stroke: #000000; stroke-width: 0.8"/>
      </g>
     </g>
     <g id="text_9">
      <!-- 8 -->
      <g transform="translate(319.798157 338.34175) scale(0.144 -0.144)">
       <defs>
        <path id="DejaVuSans-38" d="M 2034 2216 
Q 1584 2216 1326 1975 
Q 1069 1734 1069 1313 
Q 1069 891 1326 650 
Q 1584 409 2034 409 
Q 2484 409 2743 651 
Q 3003 894 3003 1313 
Q 3003 1734 2745 1975 
Q 2488 2216 2034 2216 
z
M 1403 2484 
Q 997 2584 770 2862 
Q 544 3141 544 3541 
Q 544 4100 942 4425 
Q 1341 4750 2034 4750 
Q 2731 4750 3128 4425 
Q 3525 4100 3525 3541 
Q 3525 3141 3298 2862 
Q 3072 2584 2669 2484 
Q 3125 2378 3379 2068 
Q 3634 1759 3634 1313 
Q 3634 634 3220 271 
Q 2806 -91 2034 -91 
Q 1263 -91 848 271 
Q 434 634 434 1313 
Q 434 1759 690 2068 
Q 947 2378 1403 2484 
z
M 1172 3481 
Q 1172 3119 1398 2916 
Q 1625 2713 2034 2713 
Q 2441 2713 2670 2916 
Q 2900 3119 2900 3481 
Q 2900 3844 2670 4047 
Q 2441 4250 2034 4250 
Q 1625 4250 1398 4047 
Q 1172 3844 1172 3481 
z
" transform="scale(0.015625)"/>
       </defs>
       <use xlink:href="#DejaVuSans-38"/>
      </g>
     </g>
    </g>
    <g id="text_10">
     <!-- Time (d) -->
     <g transform="translate(168.511364 359.9255) scale(0.192 -0.192)">
      <defs>
       <path id="DejaVuSans-54" d="M -19 4666 
L 3928 4666 
L 3928 4134 
L 2272 4134 
L 2272 0 
L 1638 0 
L 1638 4134 
L -19 4134 
L -19 4666 
z
" transform="scale(0.015625)"/>
       <path id="DejaVuSans-69" d="M 603 3500 
L 1178 3500 
L 1178 0 
L 603 0 
L 603 3500 
z
M 603 4863 
L 1178 4863 
L 1178 4134 
L 603 4134 
L 603 4863 
z
" transform="scale(0.015625)"/>
       <path id="DejaVuSans-6d" d="M 3328 2828 
Q 3544 3216 3844 3400 
Q 4144 3584 4550 3584 
Q 5097 3584 5394 3201 
Q 5691 2819 5691 2113 
L 5691 0 
L 5113 0 
L 5113 2094 
Q 5113 2597 4934 2840 
Q 4756 3084 4391 3084 
Q 3944 3084 3684 2787 
Q 3425 2491 3425 1978 
L 3425 0 
L 2847 0 
L 2847 2094 
Q 2847 2600 2669 2842 
Q 2491 3084 2119 3084 
Q 1678 3084 1418 2786 
Q 1159 2488 1159 1978 
L 1159 0 
L 581 0 
L 581 3500 
L 1159 3500 
L 1159 2956 
Q 1356 3278 1631 3431 
Q 1906 3584 2284 3584 
Q 2666 3584 2933 3390 
Q 3200 3197 3328 2828 
z
" transform="scale(0.015625)"/>
       <path id="DejaVuSans-65" d="M 3597 1894 
L 3597 1613 
L 953 1613 
Q 991 1019 1311 708 
Q 1631 397 2203 397 
Q 2534 397 2845 478 
Q 3156 559 3463 722 
L 3463 178 
Q 3153 47 2828 -22 
Q 2503 -91 2169 -91 
Q 1331 -91 842 396 
Q 353 884 353 1716 
Q 353 2575 817 3079 
Q 1281 3584 2069 3584 
Q 2775 3584 3186 3129 
Q 3597 2675 3597 1894 
z
M 3022 2063 
Q 3016 2534 2758 2815 
Q 2500 3097 2075 3097 
Q 1594 3097 1305 2825 
Q 1016 2553 972 2059 
L 3022 2063 
z
" transform="scale(0.015625)"/>
       <path id="DejaVuSans-20" transform="scale(0.015625)"/>
       <path id="DejaVuSans-28" d="M 1984 4856 
Q 1566 4138 1362 3434 
Q 1159 2731 1159 2009 
Q 1159 1288 1364 580 
Q 1569 -128 1984 -844 
L 1484 -844 
Q 1016 -109 783 600 
Q 550 1309 550 2009 
Q 550 2706 781 3412 
Q 1013 4119 1484 4856 
L 1984 4856 
z
" transform="scale(0.015625)"/>
       <path id="DejaVuSans-64" d="M 2906 2969 
L 2906 4863 
L 3481 4863 
L 3481 0 
L 2906 0 
L 2906 525 
Q 2725 213 2448 61 
Q 2172 -91 1784 -91 
Q 1150 -91 751 415 
Q 353 922 353 1747 
Q 353 2572 751 3078 
Q 1150 3584 1784 3584 
Q 2172 3584 2448 3432 
Q 2725 3281 2906 2969 
z
M 947 1747 
Q 947 1113 1208 752 
Q 1469 391 1925 391 
Q 2381 391 2643 752 
Q 2906 1113 2906 1747 
Q 2906 2381 2643 2742 
Q 2381 3103 1925 3103 
Q 1469 3103 1208 2742 
Q 947 2381 947 1747 
z
" transform="scale(0.015625)"/>
       <path id="DejaVuSans-29" d="M 513 4856 
L 1013 4856 
Q 1481 4119 1714 3412 
Q 1947 2706 1947 2009 
Q 1947 1309 1714 600 
Q 1481 -109 1013 -844 
L 513 -844 
Q 928 -128 1133 580 
Q 1338 1288 1338 2009 
Q 1338 2731 1133 3434 
Q 928 4138 513 4856 
z
" transform="scale(0.015625)"/>
      </defs>
      <use xlink:href="#DejaVuSans-54"/>
      <use xlink:href="#DejaVuSans-69" x="57.958984"/>
      <use xlink:href="#DejaVuSans-6d" x="85.742188"/>
      <use xlink:href="#DejaVuSans-65" x="183.154297"/>
      <use xlink:href="#DejaVuSans-20" x="244.677734"/>
      <use xlink:href="#DejaVuSans-28" x="276.464844"/>
      <use xlink:href="#DejaVuSans-64" x="315.478516"/>
      <use xlink:href="#DejaVuSans-29" x="378.955078"/>
     </g>
    </g>
   </g>
   <g id="matplotlib.axis_2">
    <g id="ytick_1">
     <g id="line2d_10">
      <defs>
       <path id="m00fae3eaf3" d="M 0 0 
L -3.5 0 
" style="stroke: #000000; stroke-width: 0.8"/>
      </defs>
      <g>
       <use xlink:href="#m00fae3eaf3" x="90" y="320.4" style="stroke: #000000; stroke-width: 0.8"/>
      </g>
     </g>
     <g id="text_11">
      <!-- 0 -->
      <g transform="translate(73.838 325.870875) scale(0.144 -0.144)">
       <use xlink:href="#DejaVuSans-30"/>
      </g>
     </g>
    </g>
    <g id="ytick_2">
     <g id="line2d_11">
      <g>
       <use xlink:href="#m00fae3eaf3" x="90" y="286.8" style="stroke: #000000; stroke-width: 0.8"/>
      </g>
     </g>
     <g id="text_12">
      <!-- 1 -->
      <g transform="translate(73.838 292.270875) scale(0.144 -0.144)">
       <use xlink:href="#DejaVuSans-31"/>
      </g>
     </g>
    </g>
    <g id="ytick_3">
     <g id="line2d_12">
      <g>
       <use xlink:href="#m00fae3eaf3" x="90" y="253.2" style="stroke: #000000; stroke-width: 0.8"/>
      </g>
     </g>
     <g id="text_13">
      <!-- 2 -->
      <g transform="translate(73.838 258.670875) scale(0.144 -0.144)">
       <use xlink:href="#DejaVuSans-32"/>
      </g>
     </g>
    </g>
    <g id="ytick_4">
     <g id="line2d_13">
      <g>
       <use xlink:href="#m00fae3eaf3" x="90" y="219.6" style="stroke: #000000; stroke-width: 0.8"/>
      </g>
     </g>
     <g id="text_14">
      <!-- 3 -->
      <g transform="translate(73.838 225.070875) scale(0.144 -0.144)">
       <use xlink:href="#DejaVuSans-33"/>
      </g>
     </g>
    </g>
    <g id="ytick_5">
     <g id="line2d_14">
      <g>
       <use xlink:href="#m00fae3eaf3" x="90" y="186" style="stroke: #000000; stroke-width: 0.8"/>
      </g>
     </g>
     <g id="text_15">
      <!-- 4 -->
      <g transform="translate(73.838 191.470875) scale(0.144 -0.144)">
       <use xlink:href="#DejaVuSans-34"/>
      </g>
     </g>
    </g>
    <g id="ytick_6">
     <g id="line2d_15">
      <g>
       <use xlink:href="#m00fae3eaf3" x="90" y="152.4" style="stroke: #000000; stroke-width: 0.8"/>
      </g>
     </g>
     <g id="text_16">
      <!-- 5 -->
      <g transform="translate(73.838 157.870875) scale(0.144 -0.144)">
       <use xlink:href="#DejaVuSans-35"/>
      </g>
     </g>
    </g>
    <g id="ytick_7">
     <g id="line2d_16">
      <g>
       <use xlink:href="#m00fae3eaf3" x="90" y="118.8" style="stroke: #000000; stroke-width: 0.8"/>
      </g>
     </g>
     <g id="text_17">
      <!-- 6 -->
      <g transform="translate(73.838 124.270875) scale(0.144 -0.144)">
       <use xlink:href="#DejaVuSans-36"/>
      </g>
     </g>
    </g>
    <g id="ytick_8">
     <g id="line2d_17">
      <g>
       <use xlink:href="#m00fae3eaf3" x="90" y="85.2" style="stroke: #000000; stroke-width: 0.8"/>
      </g>
     </g>
     <g id="text_18">
      <!-- 7 -->
      <g transform="translate(73.838 90.670875) scale(0.144 -0.144)">
       <use xlink:href="#DejaVuSans-37"/>
      </g>
     </g>
    </g>
    <g id="ytick_9">
     <g id="line2d_18">
      <g>
       <use xlink:href="#m00fae3eaf3" x="90" y="51.6" style="stroke: #000000; stroke-width: 0.8"/>
      </g>
     </g>
     <g id="text_19">
      <!-- 8 -->
      <g transform="translate(73.838 57.070875) scale(0.144 -0.144)">
       <use xlink:href="#DejaVuSans-38"/>
      </g>
     </g>
    </g>
    <g id="text_20">
     <!-- Log10(V) -->
     <g transform="translate(65.845 225.2235) rotate(-90) scale(0.192 -0.192)">
      <defs>
       <path id="DejaVuSans-4c" d="M 628 4666 
L 1259 4666 
L 1259 531 
L 3531 531 
L 3531 0 
L 628 0 
L 628 4666 
z
" transform="scale(0.015625)"/>
       <path id="DejaVuSans-6f" d="M 1959 3097 
Q 1497 3097 1228 2736 
Q 959 2375 959 1747 
Q 959 1119 1226 758 
Q 1494 397 1959 397 
Q 2419 397 2687 759 
Q 2956 1122 2956 1747 
Q 2956 2369 2687 2733 
Q 2419 3097 1959 3097 
z
M 1959 3584 
Q 2709 3584 3137 3096 
Q 3566 2609 3566 1747 
Q 3566 888 3137 398 
Q 2709 -91 1959 -91 
Q 1206 -91 779 398 
Q 353 888 353 1747 
Q 353 2609 779 3096 
Q 1206 3584 1959 3584 
z
" transform="scale(0.015625)"/>
       <path id="DejaVuSans-67" d="M 2906 1791 
Q 2906 2416 2648 2759 
Q 2391 3103 1925 3103 
Q 1463 3103 1205 2759 
Q 947 2416 947 1791 
Q 947 1169 1205 825 
Q 1463 481 1925 481 
Q 2391 481 2648 825 
Q 2906 1169 2906 1791 
z
M 3481 434 
Q 3481 -459 3084 -895 
Q 2688 -1331 1869 -1331 
Q 1566 -1331 1297 -1286 
Q 1028 -1241 775 -1147 
L 775 -588 
Q 1028 -725 1275 -790 
Q 1522 -856 1778 -856 
Q 2344 -856 2625 -561 
Q 2906 -266 2906 331 
L 2906 616 
Q 2728 306 2450 153 
Q 2172 0 1784 0 
Q 1141 0 747 490 
Q 353 981 353 1791 
Q 353 2603 747 3093 
Q 1141 3584 1784 3584 
Q 2172 3584 2450 3431 
Q 2728 3278 2906 2969 
L 2906 3500 
L 3481 3500 
L 3481 434 
z
" transform="scale(0.015625)"/>
       <path id="DejaVuSans-56" d="M 1831 0 
L 50 4666 
L 709 4666 
L 2188 738 
L 3669 4666 
L 4325 4666 
L 2547 0 
L 1831 0 
z
" transform="scale(0.015625)"/>
      </defs>
      <use xlink:href="#DejaVuSans-4c"/>
      <use xlink:href="#DejaVuSans-6f" x="53.962891"/>
      <use xlink:href="#DejaVuSans-67" x="115.144531"/>
      <use xlink:href="#DejaVuSans-31" x="178.621094"/>
      <use xlink:href="#DejaVuSans-30" x="242.244141"/>
      <use xlink:href="#DejaVuSans-28" x="305.867188"/>
      <use xlink:href="#DejaVuSans-56" x="344.880859"/>
      <use xlink:href="#DejaVuSans-29" x="413.289062"/>
     </g>
    </g>
   </g>
   <g id="patch_3">
    <path d="M 90 320.4 
L 90 43.2 
" style="fill: none; stroke: #000000; stroke-width: 0.8; stroke-linejoin: miter; stroke-linecap: square"/>
   </g>
   <g id="patch_4">
    <path d="M 327.272727 320.4 
L 327.272727 43.2 
" style="fill: none; stroke: #000000; stroke-width: 0.8; stroke-linejoin: miter; stroke-linecap: square"/>
   </g>
   <g id="patch_5">
    <path d="M 90 320.4 
L 327.272727 320.4 
" style="fill: none; stroke: #000000; stroke-width: 0.8; stroke-linejoin: miter; stroke-linecap: square"/>
   </g>
   <g id="patch_6">
    <path d="M 90 43.2 
L 327.272727 43.2 
" style="fill: none; stroke: #000000; stroke-width: 0.8; stroke-linejoin: miter; stroke-linecap: square"/>
   </g>
   <g id="PolyCollection_1">
    <defs>
     <path id="m38444927c0" d="M 92.89357 -39.6 
L 92.89357 -39.6 
L 92.89465 -39.6 
L 92.905447 -39.6 
L 93.01342 -39.6 
L 93.164978 -39.6 
L 93.466846 -48.92275 
L 93.900204 -57.752496 
L 94.820668 -67.886603 
L 95.741131 -73.304284 
L 97.353126 -79.381718 
L 98.96512 -83.887944 
L 101.364325 -89.288768 
L 103.76353 -94.194649 
L 106.549946 -99.720182 
L 108.490885 -103.528536 
L 111.384455 -109.169371 
L 113.129275 -112.570011 
L 116.022845 -118.204654 
L 117.94772 -121.951735 
L 120.841289 -127.43578 
L 122.90874 -131.335525 
L 125.80231 -136.805125 
L 127.977105 -140.906731 
L 130.870675 -146.373202 
L 133.12129 -150.582957 
L 136.01486 -155.897739 
L 138.315581 -160.120369 
L 141.209151 -165.425437 
L 143.54488 -169.701901 
L 146.43845 -174.98841 
L 149.33202 -180.258016 
L 152.22559 -185.503472 
L 155.11916 -190.714548 
L 158.01273 -195.876927 
L 160.906299 -200.970797 
L 163.799869 -205.969218 
L 166.693439 -210.836406 
L 169.587009 -215.526386 
L 172.480579 -219.982706 
L 175.374149 -224.140228 
L 178.267719 -227.929928 
L 181.161288 -230.832939 
L 184.054858 -233.171001 
L 186.948428 -234.580327 
L 189.841998 -235.505241 
L 192.735568 -236.057416 
L 195.629138 -236.311901 
L 198.522707 -236.335947 
L 201.416277 -236.185512 
L 204.309847 -235.896824 
L 207.203417 -235.477796 
L 210.096987 -234.993034 
L 212.990557 -234.457827 
L 215.884127 -233.880733 
L 218.777696 -233.267761 
L 221.671266 -232.618907 
L 224.564836 -231.938884 
L 227.458406 -231.221359 
L 230.351976 -230.46091 
L 233.245546 -229.653048 
L 236.139115 -228.782809 
L 239.032685 -227.844186 
L 241.926255 -226.824565 
L 244.819825 -225.709713 
L 247.713395 -224.421827 
L 250.606965 -222.827621 
L 253.500535 -221.042597 
L 256.394104 -219.03228 
L 259.287674 -216.75333 
L 262.181244 -214.15047 
L 265.074814 -211.152646 
L 267.968384 -207.668927 
L 270.861954 -203.446809 
L 273.755523 -198.130122 
L 276.649093 -191.85851 
L 279.542663 -184.584698 
L 282.436233 -176.396614 
L 285.329803 -167.516916 
L 288.223373 -158.22881 
L 291.116943 -148.558102 
L 294.010512 -138.236578 
L 296.525698 -129.218628 
L 299.105069 -119.502917 
L 301.684439 -109.618628 
L 304.26381 -99.995878 
L 306.843181 -90.655916 
L 309.422551 -81.326459 
L 312.001922 -71.957809 
L 314.581293 -62.479256 
L 317.160664 -53.083153 
L 319.740034 -44.024522 
L 322.319405 -39.6 
L 324.379157 -39.6 
L 324.379157 -69.069105 
L 324.379157 -69.069105 
L 322.319405 -73.641943 
L 319.740034 -80.085464 
L 317.160664 -87.145616 
L 314.581293 -94.461082 
L 312.001922 -102.030346 
L 309.422551 -110.614476 
L 306.843181 -119.939015 
L 304.26381 -130.578292 
L 301.684439 -141.371229 
L 299.105069 -152.19392 
L 296.525698 -163.863749 
L 294.010512 -174.842652 
L 291.116943 -186.033506 
L 288.223373 -195.264612 
L 285.329803 -203.082518 
L 282.436233 -209.519771 
L 279.542663 -214.636758 
L 276.649093 -218.783724 
L 273.755523 -222.216684 
L 270.861954 -225.113187 
L 267.968384 -227.596144 
L 265.074814 -229.752268 
L 262.181244 -231.644381 
L 259.287674 -233.319328 
L 256.394104 -234.813073 
L 253.500535 -236.153998 
L 250.606965 -237.420291 
L 247.713395 -238.582104 
L 244.819825 -239.639996 
L 241.926255 -240.609011 
L 239.032685 -241.502044 
L 236.139115 -242.330149 
L 233.245546 -243.1027 
L 230.351976 -243.892954 
L 227.458406 -244.6479 
L 224.564836 -245.361976 
L 221.671266 -246.038188 
L 218.777696 -246.677044 
L 215.884127 -247.276091 
L 212.990557 -247.829263 
L 210.096987 -248.326009 
L 207.203417 -248.750138 
L 204.309847 -249.078387 
L 201.416277 -249.278785 
L 198.522707 -249.309052 
L 195.629138 -249.21297 
L 192.735568 -248.881543 
L 189.841998 -248.534421 
L 186.948428 -248.068298 
L 184.054858 -247.230795 
L 181.161288 -246.101497 
L 178.267719 -244.772255 
L 175.374149 -242.870905 
L 172.480579 -240.334118 
L 169.587009 -237.140828 
L 166.693439 -233.318638 
L 163.799869 -228.936831 
L 160.906299 -224.089339 
L 158.01273 -218.887337 
L 155.11916 -213.403241 
L 152.22559 -207.71771 
L 149.33202 -201.908492 
L 146.43845 -195.999899 
L 143.54488 -190.035843 
L 141.209151 -185.182678 
L 138.315581 -179.150854 
L 136.01486 -174.334299 
L 133.12129 -168.270041 
L 130.870675 -163.541679 
L 127.977105 -157.461826 
L 125.80231 -152.885412 
L 122.90874 -146.797776 
L 120.841289 -142.444537 
L 117.94772 -136.35246 
L 116.022845 -132.299071 
L 113.129275 -126.202833 
L 111.384455 -122.528401 
L 108.490885 -116.42009 
L 106.549946 -112.396902 
L 103.76353 -106.606458 
L 101.364325 -101.465582 
L 98.96512 -95.83802 
L 97.353126 -91.182765 
L 95.741131 -84.790683 
L 94.820668 -78.781643 
L 93.900204 -67.842546 
L 93.466846 -56.520652 
L 93.164978 -40.143024 
L 93.01342 -39.600003 
L 92.905447 -39.6 
L 92.89465 -39.6 
L 92.89357 -39.6 
z
" style="stroke: #ff0000; stroke-opacity: 0.2"/>
    </defs>
    <g clip-path="url(#pbd790f6140)">
     <use xlink:href="#m38444927c0" x="0" y="360" style="fill: #ff0000; fill-opacity: 0.2; stroke: #ff0000; stroke-opacity: 0.2"/>
    </g>
   </g>
   <g id="PathCollection_1">
    <defs>
     <path id="mea305f8f5d" d="M 0 3 
C 0.795609 3 1.55874 2.683901 2.12132 2.12132 
C 2.683901 1.55874 3 0.795609 3 0 
C 3 -0.795609 2.683901 -1.55874 2.12132 -2.12132 
C 1.55874 -2.683901 0.795609 -3 0 -3 
C -0.795609 -3 -1.55874 -2.683901 -2.12132 -2.12132 
C -2.683901 -1.55874 -3 -0.795609 -3 0 
C -3 0.795609 -2.683901 1.55874 -2.12132 2.12132 
C -1.55874 2.683901 -0.795609 3 0 3 
z
" style="stroke: #000000; stroke-opacity: 0.8"/>
    </defs>
    <g clip-path="url(#pbd790f6140)">
     <use xlink:href="#mea305f8f5d" x="92.89357" y="320.4" style="fill: #ff0000; fill-opacity: 0.8; stroke: #000000; stroke-opacity: 0.8"/>
     <use xlink:href="#mea305f8f5d" x="121.829268" y="191.915937" style="fill: #ff0000; fill-opacity: 0.8; stroke: #000000; stroke-opacity: 0.8"/>
     <use xlink:href="#mea305f8f5d" x="150.764967" y="144.554018" style="fill: #ff0000; fill-opacity: 0.8; stroke: #000000; stroke-opacity: 0.8"/>
     <use xlink:href="#mea305f8f5d" x="179.700665" y="137.536526" style="fill: #ff0000; fill-opacity: 0.8; stroke: #000000; stroke-opacity: 0.8"/>
     <use xlink:href="#mea305f8f5d" x="208.636364" y="161.939482" style="fill: #ff0000; fill-opacity: 0.8; stroke: #000000; stroke-opacity: 0.8"/>
     <use xlink:href="#mea305f8f5d" x="237.572062" y="126.315559" style="fill: #ff0000; fill-opacity: 0.8; stroke: #000000; stroke-opacity: 0.8"/>
     <use xlink:href="#mea305f8f5d" x="266.507761" y="144.892106" style="fill: #ff0000; fill-opacity: 0.8; stroke: #000000; stroke-opacity: 0.8"/>
     <use xlink:href="#mea305f8f5d" x="295.443459" y="189.192474" style="fill: #ff0000; fill-opacity: 0.8; stroke: #000000; stroke-opacity: 0.8"/>
     <use xlink:href="#mea305f8f5d" x="324.379157" y="320.4" style="fill: #ff0000; fill-opacity: 0.8; stroke: #000000; stroke-opacity: 0.8"/>
    </g>
   </g>
   <g id="line2d_19">
    <path d="M 92.89357 320.4 
L 92.89465 320.4 
L 92.905447 320.4 
L 93.01342 320.4 
L 93.164978 320.4 
L 93.466846 306.878012 
L 93.900204 296.567853 
L 94.820668 286.37483 
L 95.741131 280.802374 
L 97.353126 274.551568 
L 98.96512 270.057541 
L 101.364325 264.5319 
L 103.76353 259.52955 
L 106.549946 254.029474 
L 108.490885 250.20113 
L 111.384455 244.468179 
L 113.129275 241.029309 
L 116.022845 235.307712 
L 117.94772 231.51516 
L 120.841289 225.7961 
L 122.90874 221.722408 
L 125.80231 216.005727 
L 127.977105 211.721491 
L 130.870675 206.00927 
L 133.12129 201.579449 
L 136.01486 195.876217 
L 138.315581 191.357043 
L 141.209151 185.67199 
L 143.54488 181.104075 
L 146.43845 175.455726 
L 149.33202 169.841745 
L 152.22559 164.27777 
L 155.11916 158.786117 
L 158.01273 153.398009 
L 160.906299 148.156014 
L 163.799869 143.116065 
L 166.693439 138.347935 
L 169.587009 133.93254 
L 172.480579 129.954542 
L 175.374149 126.490094 
L 178.267719 123.592262 
L 181.161288 121.279189 
L 184.054858 119.530136 
L 186.948428 118.291154 
L 189.841998 117.487566 
L 192.735568 117.037969 
L 195.629138 116.865296 
L 198.522707 116.903192 
L 201.416277 117.098211 
L 204.309847 117.409363 
L 207.203417 117.806405 
L 210.096987 118.267826 
L 212.990557 118.778987 
L 215.884127 119.3306 
L 218.777696 119.917553 
L 221.671266 120.538038 
L 224.564836 121.192924 
L 227.458406 121.885299 
L 230.351976 122.620159 
L 233.245546 123.404186 
L 236.139115 124.24563 
L 239.032685 125.154262 
L 241.926255 126.141431 
L 244.819825 127.220229 
L 247.713395 128.405801 
L 250.606965 129.715844 
L 253.500535 131.171371 
L 256.394104 132.797829 
L 259.287674 134.626741 
L 262.181244 136.698097 
L 265.074814 139.063855 
L 267.968384 141.793035 
L 270.861954 144.978989 
L 273.755523 148.749152 
L 276.649093 153.275748 
L 279.542663 158.779972 
L 282.436233 165.508319 
L 285.329803 173.64746 
L 288.223373 183.182183 
L 291.116943 193.816607 
L 294.010512 205.090324 
L 296.525698 215.01675 
L 299.105069 225.18051 
L 301.684439 235.202378 
L 304.26381 245.014541 
L 306.843181 254.577338 
L 309.422551 263.866922 
L 312.001922 272.868808 
L 314.581293 281.574479 
L 317.160664 289.979595 
L 319.740034 298.082951 
L 322.319405 305.885744 
L 324.379157 311.87226 
" clip-path="url(#pbd790f6140)" style="fill: none; stroke: #ff0000; stroke-width: 1.5; stroke-linecap: square"/>
   </g>
  </g>
  <g id="axes_2">
   <g id="patch_7">
    <path d="M 374.727273 320.4 
L 612 320.4 
L 612 43.2 
L 374.727273 43.2 
z
" style="fill: #ffffff"/>
   </g>
   <g id="matplotlib.axis_3">
    <g id="xtick_10">
     <g id="line2d_20">
      <g>
       <use xlink:href="#m393620ad11" x="377.620843" y="320.4" style="stroke: #000000; stroke-width: 0.8"/>
      </g>
     </g>
     <g id="text_21">
      <!-- 0 -->
      <g transform="translate(373.039843 338.34175) scale(0.144 -0.144)">
       <use xlink:href="#DejaVuSans-30"/>
      </g>
     </g>
    </g>
    <g id="xtick_11">
     <g id="line2d_21">
      <g>
       <use xlink:href="#m393620ad11" x="406.556541" y="320.4" style="stroke: #000000; stroke-width: 0.8"/>
      </g>
     </g>
     <g id="text_22">
      <!-- 1 -->
      <g transform="translate(401.975541 338.34175) scale(0.144 -0.144)">
       <use xlink:href="#DejaVuSans-31"/>
      </g>
     </g>
    </g>
    <g id="xtick_12">
     <g id="line2d_22">
      <g>
       <use xlink:href="#m393620ad11" x="435.492239" y="320.4" style="stroke: #000000; stroke-width: 0.8"/>
      </g>
     </g>
     <g id="text_23">
      <!-- 2 -->
      <g transform="translate(430.911239 338.34175) scale(0.144 -0.144)">
       <use xlink:href="#DejaVuSans-32"/>
      </g>
     </g>
    </g>
    <g id="xtick_13">
     <g id="line2d_23">
      <g>
       <use xlink:href="#m393620ad11" x="464.427938" y="320.4" style="stroke: #000000; stroke-width: 0.8"/>
      </g>
     </g>
     <g id="text_24">
      <!-- 3 -->
      <g transform="translate(459.846938 338.34175) scale(0.144 -0.144)">
       <use xlink:href="#DejaVuSans-33"/>
      </g>
     </g>
    </g>
    <g id="xtick_14">
     <g id="line2d_24">
      <g>
       <use xlink:href="#m393620ad11" x="493.363636" y="320.4" style="stroke: #000000; stroke-width: 0.8"/>
      </g>
     </g>
     <g id="text_25">
      <!-- 4 -->
      <g transform="translate(488.782636 338.34175) scale(0.144 -0.144)">
       <use xlink:href="#DejaVuSans-34"/>
      </g>
     </g>
    </g>
    <g id="xtick_15">
     <g id="line2d_25">
      <g>
       <use xlink:href="#m393620ad11" x="522.299335" y="320.4" style="stroke: #000000; stroke-width: 0.8"/>
      </g>
     </g>
     <g id="text_26">
      <!-- 5 -->
      <g transform="translate(517.718335 338.34175) scale(0.144 -0.144)">
       <use xlink:href="#DejaVuSans-35"/>
      </g>
     </g>
    </g>
    <g id="xtick_16">
     <g id="line2d_26">
      <g>
       <use xlink:href="#m393620ad11" x="551.235033" y="320.4" style="stroke: #000000; stroke-width: 0.8"/>
      </g>
     </g>
     <g id="text_27">
      <!-- 6 -->
      <g transform="translate(546.654033 338.34175) scale(0.144 -0.144)">
       <use xlink:href="#DejaVuSans-36"/>
      </g>
     </g>
    </g>
    <g id="xtick_17">
     <g id="line2d_27">
      <g>
       <use xlink:href="#m393620ad11" x="580.170732" y="320.4" style="stroke: #000000; stroke-width: 0.8"/>
      </g>
     </g>
     <g id="text_28">
      <!-- 7 -->
      <g transform="translate(575.589732 338.34175) scale(0.144 -0.144)">
       <use xlink:href="#DejaVuSans-37"/>
      </g>
     </g>
    </g>
    <g id="xtick_18">
     <g id="line2d_28">
      <g>
       <use xlink:href="#m393620ad11" x="609.10643" y="320.4" style="stroke: #000000; stroke-width: 0.8"/>
      </g>
     </g>
     <g id="text_29">
      <!-- 8 -->
      <g transform="translate(604.52543 338.34175) scale(0.144 -0.144)">
       <use xlink:href="#DejaVuSans-38"/>
      </g>
     </g>
    </g>
    <g id="text_30">
     <!-- Time (d) -->
     <g transform="translate(453.238636 359.9255) scale(0.192 -0.192)">
      <use xlink:href="#DejaVuSans-54"/>
      <use xlink:href="#DejaVuSans-69" x="57.958984"/>
      <use xlink:href="#DejaVuSans-6d" x="85.742188"/>
      <use xlink:href="#DejaVuSans-65" x="183.154297"/>
      <use xlink:href="#DejaVuSans-20" x="244.677734"/>
      <use xlink:href="#DejaVuSans-28" x="276.464844"/>
      <use xlink:href="#DejaVuSans-64" x="315.478516"/>
      <use xlink:href="#DejaVuSans-29" x="378.955078"/>
     </g>
    </g>
   </g>
   <g id="matplotlib.axis_4">
    <g id="ytick_10">
     <g id="line2d_29">
      <g>
       <use xlink:href="#m00fae3eaf3" x="374.727273" y="320.4" style="stroke: #000000; stroke-width: 0.8"/>
      </g>
     </g>
     <g id="text_31">
      <!-- 4.5 -->
      <g transform="translate(344.826773 325.870875) scale(0.144 -0.144)">
       <defs>
        <path id="DejaVuSans-2e" d="M 684 794 
L 1344 794 
L 1344 0 
L 684 0 
L 684 794 
z
" transform="scale(0.015625)"/>
       </defs>
       <use xlink:href="#DejaVuSans-34"/>
       <use xlink:href="#DejaVuSans-2e" x="63.623047"/>
       <use xlink:href="#DejaVuSans-35" x="95.410156"/>
      </g>
     </g>
    </g>
    <g id="ytick_11">
     <g id="line2d_30">
      <g>
       <use xlink:href="#m00fae3eaf3" x="374.727273" y="277.753846" style="stroke: #000000; stroke-width: 0.8"/>
      </g>
     </g>
     <g id="text_32">
      <!-- 5.0 -->
      <g transform="translate(344.826773 283.224721) scale(0.144 -0.144)">
       <use xlink:href="#DejaVuSans-35"/>
       <use xlink:href="#DejaVuSans-2e" x="63.623047"/>
       <use xlink:href="#DejaVuSans-30" x="95.410156"/>
      </g>
     </g>
    </g>
    <g id="ytick_12">
     <g id="line2d_31">
      <g>
       <use xlink:href="#m00fae3eaf3" x="374.727273" y="235.107692" style="stroke: #000000; stroke-width: 0.8"/>
      </g>
     </g>
     <g id="text_33">
      <!-- 5.5 -->
      <g transform="translate(344.826773 240.578567) scale(0.144 -0.144)">
       <use xlink:href="#DejaVuSans-35"/>
       <use xlink:href="#DejaVuSans-2e" x="63.623047"/>
       <use xlink:href="#DejaVuSans-35" x="95.410156"/>
      </g>
     </g>
    </g>
    <g id="ytick_13">
     <g id="line2d_32">
      <g>
       <use xlink:href="#m00fae3eaf3" x="374.727273" y="192.461538" style="stroke: #000000; stroke-width: 0.8"/>
      </g>
     </g>
     <g id="text_34">
      <!-- 6.0 -->
      <g transform="translate(344.826773 197.932413) scale(0.144 -0.144)">
       <use xlink:href="#DejaVuSans-36"/>
       <use xlink:href="#DejaVuSans-2e" x="63.623047"/>
       <use xlink:href="#DejaVuSans-30" x="95.410156"/>
      </g>
     </g>
    </g>
    <g id="ytick_14">
     <g id="line2d_33">
      <g>
       <use xlink:href="#m00fae3eaf3" x="374.727273" y="149.815385" style="stroke: #000000; stroke-width: 0.8"/>
      </g>
     </g>
     <g id="text_35">
      <!-- 6.5 -->
      <g transform="translate(344.826773 155.28626) scale(0.144 -0.144)">
       <use xlink:href="#DejaVuSans-36"/>
       <use xlink:href="#DejaVuSans-2e" x="63.623047"/>
       <use xlink:href="#DejaVuSans-35" x="95.410156"/>
      </g>
     </g>
    </g>
    <g id="ytick_15">
     <g id="line2d_34">
      <g>
       <use xlink:href="#m00fae3eaf3" x="374.727273" y="107.169231" style="stroke: #000000; stroke-width: 0.8"/>
      </g>
     </g>
     <g id="text_36">
      <!-- 7.0 -->
      <g transform="translate(344.826773 112.640106) scale(0.144 -0.144)">
       <use xlink:href="#DejaVuSans-37"/>
       <use xlink:href="#DejaVuSans-2e" x="63.623047"/>
       <use xlink:href="#DejaVuSans-30" x="95.410156"/>
      </g>
     </g>
    </g>
    <g id="ytick_16">
     <g id="line2d_35">
      <g>
       <use xlink:href="#m00fae3eaf3" x="374.727273" y="64.523077" style="stroke: #000000; stroke-width: 0.8"/>
      </g>
     </g>
     <g id="text_37">
      <!-- 7.5 -->
      <g transform="translate(344.826773 69.993952) scale(0.144 -0.144)">
       <use xlink:href="#DejaVuSans-37"/>
       <use xlink:href="#DejaVuSans-2e" x="63.623047"/>
       <use xlink:href="#DejaVuSans-35" x="95.410156"/>
      </g>
     </g>
    </g>
    <g id="text_38">
     <!-- Log10(CD8TE) -->
     <g transform="translate(336.833773 250.7895) rotate(-90) scale(0.192 -0.192)">
      <defs>
       <path id="DejaVuSans-43" d="M 4122 4306 
L 4122 3641 
Q 3803 3938 3442 4084 
Q 3081 4231 2675 4231 
Q 1875 4231 1450 3742 
Q 1025 3253 1025 2328 
Q 1025 1406 1450 917 
Q 1875 428 2675 428 
Q 3081 428 3442 575 
Q 3803 722 4122 1019 
L 4122 359 
Q 3791 134 3420 21 
Q 3050 -91 2638 -91 
Q 1578 -91 968 557 
Q 359 1206 359 2328 
Q 359 3453 968 4101 
Q 1578 4750 2638 4750 
Q 3056 4750 3426 4639 
Q 3797 4528 4122 4306 
z
" transform="scale(0.015625)"/>
       <path id="DejaVuSans-44" d="M 1259 4147 
L 1259 519 
L 2022 519 
Q 2988 519 3436 956 
Q 3884 1394 3884 2338 
Q 3884 3275 3436 3711 
Q 2988 4147 2022 4147 
L 1259 4147 
z
M 628 4666 
L 1925 4666 
Q 3281 4666 3915 4102 
Q 4550 3538 4550 2338 
Q 4550 1131 3912 565 
Q 3275 0 1925 0 
L 628 0 
L 628 4666 
z
" transform="scale(0.015625)"/>
       <path id="DejaVuSans-45" d="M 628 4666 
L 3578 4666 
L 3578 4134 
L 1259 4134 
L 1259 2753 
L 3481 2753 
L 3481 2222 
L 1259 2222 
L 1259 531 
L 3634 531 
L 3634 0 
L 628 0 
L 628 4666 
z
" transform="scale(0.015625)"/>
      </defs>
      <use xlink:href="#DejaVuSans-4c"/>
      <use xlink:href="#DejaVuSans-6f" x="53.962891"/>
      <use xlink:href="#DejaVuSans-67" x="115.144531"/>
      <use xlink:href="#DejaVuSans-31" x="178.621094"/>
      <use xlink:href="#DejaVuSans-30" x="242.244141"/>
      <use xlink:href="#DejaVuSans-28" x="305.867188"/>
      <use xlink:href="#DejaVuSans-43" x="344.880859"/>
      <use xlink:href="#DejaVuSans-44" x="414.705078"/>
      <use xlink:href="#DejaVuSans-38" x="491.707031"/>
      <use xlink:href="#DejaVuSans-54" x="555.330078"/>
      <use xlink:href="#DejaVuSans-45" x="616.414062"/>
      <use xlink:href="#DejaVuSans-29" x="679.597656"/>
     </g>
    </g>
   </g>
   <g id="patch_8">
    <path d="M 374.727273 320.4 
L 374.727273 43.2 
" style="fill: none; stroke: #000000; stroke-width: 0.8; stroke-linejoin: miter; stroke-linecap: square"/>
   </g>
   <g id="patch_9">
    <path d="M 612 320.4 
L 612 43.2 
" style="fill: none; stroke: #000000; stroke-width: 0.8; stroke-linejoin: miter; stroke-linecap: square"/>
   </g>
   <g id="patch_10">
    <path d="M 374.727273 320.4 
L 612 320.4 
" style="fill: none; stroke: #000000; stroke-width: 0.8; stroke-linejoin: miter; stroke-linecap: square"/>
   </g>
   <g id="patch_11">
    <path d="M 374.727273 43.2 
L 612 43.2 
" style="fill: none; stroke: #000000; stroke-width: 0.8; stroke-linejoin: miter; stroke-linecap: square"/>
   </g>
   <g id="PolyCollection_2">
    <defs>
     <path id="md1d2d584c1" d="M 377.620843 -136.656835 
L 377.620843 -136.656835 
L 377.621922 -136.656835 
L 377.63272 -136.656835 
L 377.740693 -136.656835 
L 377.892251 -136.656835 
L 378.194118 -136.656835 
L 378.627477 -136.656835 
L 379.54794 -136.656835 
L 380.468404 -136.656835 
L 382.080399 -136.656835 
L 383.692393 -136.656835 
L 386.091598 -136.656835 
L 388.490802 -136.656835 
L 391.277219 -136.656835 
L 393.218158 -136.656835 
L 396.111728 -136.656835 
L 397.856548 -136.656835 
L 400.750118 -136.656835 
L 402.674992 -136.656836 
L 405.568562 -136.65684 
L 407.636013 -136.656844 
L 410.529583 -136.656858 
L 412.704378 -136.656878 
L 415.597948 -136.656926 
L 417.848562 -136.656991 
L 420.742132 -136.657128 
L 423.042854 -136.657304 
L 425.936424 -136.657643 
L 428.272153 -136.658069 
L 431.165723 -136.65886 
L 434.059293 -136.660078 
L 436.952863 -136.661828 
L 439.846433 -136.664397 
L 442.740002 -136.668138 
L 445.633572 -136.673554 
L 448.527142 -136.681367 
L 451.420712 -136.692611 
L 454.314282 -136.708763 
L 457.207852 -136.731937 
L 460.101421 -136.765148 
L 462.994991 -136.812685 
L 465.888561 -136.880624 
L 468.782131 -136.977513 
L 471.675701 -137.115285 
L 474.569271 -137.310396 
L 477.462841 -137.585192 
L 480.35641 -137.969382 
L 483.24998 -138.501372 
L 486.14355 -139.229016 
L 489.03712 -140.209114 
L 491.93069 -141.504857 
L 494.82426 -143.180569 
L 497.717829 -145.293682 
L 500.611399 -147.884929 
L 503.504969 -150.968937 
L 506.398539 -154.528028 
L 509.292109 -158.418166 
L 512.185679 -162.595878 
L 515.079248 -166.98602 
L 517.972818 -171.489129 
L 520.866388 -176.009641 
L 523.759958 -180.462113 
L 526.653528 -184.774606 
L 529.547098 -188.889717 
L 532.440668 -192.763995 
L 535.334237 -196.366454 
L 538.227807 -199.676707 
L 541.121377 -202.683075 
L 544.014947 -205.350666 
L 546.908517 -207.525309 
L 549.802087 -209.284925 
L 552.695656 -210.431553 
L 555.589226 -211.089814 
L 558.482796 -211.519717 
L 561.376366 -211.705044 
L 564.269936 -211.624249 
L 567.163506 -211.365804 
L 570.057076 -210.961119 
L 572.950645 -210.395426 
L 575.844215 -209.714578 
L 578.737785 -208.902332 
L 581.252971 -208.115654 
L 583.832341 -207.224051 
L 586.411712 -206.271404 
L 588.991083 -205.250983 
L 591.570454 -204.178892 
L 594.149824 -203.0605 
L 596.729195 -201.9018 
L 599.308566 -200.708407 
L 601.887936 -199.485564 
L 604.467307 -198.238152 
L 607.046678 -196.970713 
L 609.10643 -195.946347 
L 609.10643 -215.815553 
L 609.10643 -215.815553 
L 607.046678 -216.802876 
L 604.467307 -218.000855 
L 601.887936 -219.149232 
L 599.308566 -220.24169 
L 596.729195 -221.27152 
L 594.149824 -222.231626 
L 591.570454 -223.114523 
L 588.991083 -223.909069 
L 586.411712 -224.603121 
L 583.832341 -225.193591 
L 581.252971 -225.671426 
L 578.737785 -226.016079 
L 575.844215 -226.255031 
L 572.950645 -226.315798 
L 570.057076 -226.179386 
L 567.163506 -225.830479 
L 564.269936 -225.253537 
L 561.376366 -224.432934 
L 558.482796 -223.353124 
L 555.589226 -222.067343 
L 552.695656 -220.625308 
L 549.802087 -218.973797 
L 546.908517 -217.239578 
L 544.014947 -215.406714 
L 541.121377 -213.339461 
L 538.227807 -210.948676 
L 535.334237 -208.225149 
L 532.440668 -205.163303 
L 529.547098 -201.762495 
L 526.653528 -198.178073 
L 523.759958 -194.564888 
L 520.866388 -190.668833 
L 517.972818 -186.517381 
L 515.079248 -182.119042 
L 512.185679 -177.57872 
L 509.292109 -172.915225 
L 506.398539 -168.217245 
L 503.504969 -163.58916 
L 500.611399 -159.1391 
L 497.717829 -154.973735 
L 494.82426 -151.250385 
L 491.93069 -147.993749 
L 489.03712 -145.23837 
L 486.14355 -142.97645 
L 483.24998 -141.225099 
L 480.35641 -139.910508 
L 477.462841 -138.92485 
L 474.569271 -138.215298 
L 471.675701 -137.715307 
L 468.782131 -137.36953 
L 465.888561 -137.133382 
L 462.994991 -136.973704 
L 460.101421 -136.866612 
L 457.207852 -136.795219 
L 454.314282 -136.747832 
L 451.420712 -136.716478 
L 448.527142 -136.695904 
L 445.633572 -136.682077 
L 442.740002 -136.673292 
L 439.846433 -136.667275 
L 436.952863 -136.663483 
L 434.059293 -136.661029 
L 431.165723 -136.659395 
L 428.272153 -136.65839 
L 425.936424 -136.657842 
L 423.042854 -136.657413 
L 420.742132 -136.657195 
L 417.848562 -136.657026 
L 415.597948 -136.656947 
L 412.704378 -136.656889 
L 410.529583 -136.656864 
L 407.636013 -136.656847 
L 405.568562 -136.656841 
L 402.674992 -136.656837 
L 400.750118 -136.656836 
L 397.856548 -136.656835 
L 396.111728 -136.656835 
L 393.218158 -136.656835 
L 391.277219 -136.656835 
L 388.490802 -136.656835 
L 386.091598 -136.656835 
L 383.692393 -136.656835 
L 382.080399 -136.656835 
L 380.468404 -136.656835 
L 379.54794 -136.656835 
L 378.627477 -136.656835 
L 378.194118 -136.656835 
L 377.892251 -136.656835 
L 377.740693 -136.656835 
L 377.63272 -136.656835 
L 377.621922 -136.656835 
L 377.620843 -136.656835 
z
" style="stroke: #ff0000; stroke-opacity: 0.2"/>
    </defs>
    <g clip-path="url(#pd8932ad5a3)">
     <use xlink:href="#md1d2d584c1" x="0" y="360" style="fill: #ff0000; fill-opacity: 0.2; stroke: #ff0000; stroke-opacity: 0.2"/>
    </g>
   </g>
   <g id="PathCollection_2">
    <g clip-path="url(#pd8932ad5a3)">
     <use xlink:href="#mea305f8f5d" x="348.685144" y="204.5505" style="fill: #ff0000; fill-opacity: 0.8; stroke: #000000; stroke-opacity: 0.8"/>
     <use xlink:href="#mea305f8f5d" x="377.620843" y="223.343165" style="fill: #ff0000; fill-opacity: 0.8; stroke: #000000; stroke-opacity: 0.8"/>
     <use xlink:href="#mea305f8f5d" x="406.556541" y="198.221473" style="fill: #ff0000; fill-opacity: 0.8; stroke: #000000; stroke-opacity: 0.8"/>
     <use xlink:href="#mea305f8f5d" x="435.492239" y="193.353304" style="fill: #ff0000; fill-opacity: 0.8; stroke: #000000; stroke-opacity: 0.8"/>
     <use xlink:href="#mea305f8f5d" x="464.427938" y="190.471507" style="fill: #ff0000; fill-opacity: 0.8; stroke: #000000; stroke-opacity: 0.8"/>
     <use xlink:href="#mea305f8f5d" x="493.363636" y="171.217807" style="fill: #ff0000; fill-opacity: 0.8; stroke: #000000; stroke-opacity: 0.8"/>
     <use xlink:href="#mea305f8f5d" x="522.299335" y="158.892645" style="fill: #ff0000; fill-opacity: 0.8; stroke: #000000; stroke-opacity: 0.8"/>
     <use xlink:href="#mea305f8f5d" x="551.235033" y="121.548002" style="fill: #ff0000; fill-opacity: 0.8; stroke: #000000; stroke-opacity: 0.8"/>
     <use xlink:href="#mea305f8f5d" x="580.170732" y="122.184733" style="fill: #ff0000; fill-opacity: 0.8; stroke: #000000; stroke-opacity: 0.8"/>
    </g>
   </g>
   <g id="line2d_36">
    <path d="M 377.620843 223.343165 
L 377.621922 223.343165 
L 377.63272 223.343165 
L 377.740693 223.343165 
L 377.892251 223.343165 
L 378.194118 223.343165 
L 378.627477 223.343165 
L 379.54794 223.343165 
L 380.468404 223.343165 
L 382.080399 223.343165 
L 383.692393 223.343165 
L 386.091598 223.343165 
L 388.490802 223.343165 
L 391.277219 223.343165 
L 393.218158 223.343165 
L 396.111728 223.343165 
L 397.856548 223.343165 
L 400.750118 223.343165 
L 402.674992 223.343164 
L 405.568562 223.34316 
L 407.636013 223.343154 
L 410.529583 223.343139 
L 412.704378 223.343117 
L 415.597948 223.343063 
L 417.848562 223.342991 
L 420.742132 223.342838 
L 423.042854 223.342643 
L 425.936424 223.342259 
L 428.272153 223.341788 
L 431.165723 223.340908 
L 434.059293 223.339553 
L 436.952863 223.337495 
L 439.846433 223.334398 
L 442.740002 223.32977 
L 445.633572 223.322884 
L 448.527142 223.312673 
L 451.420712 223.29756 
L 454.314282 223.275231 
L 457.207852 223.242289 
L 460.101421 223.193775 
L 462.994991 223.122483 
L 465.888561 223.01804 
L 468.782131 222.865675 
L 471.675701 222.644694 
L 474.569271 222.326717 
L 477.462841 221.873915 
L 480.35641 221.237722 
L 483.24998 220.358787 
L 486.14355 219.169166 
L 489.03712 217.597681 
L 491.93069 215.578765 
L 494.82426 213.063822 
L 497.717829 210.032553 
L 500.611399 206.500733 
L 503.504969 202.521539 
L 506.398539 198.179714 
L 509.292109 193.580496 
L 512.185679 188.836783 
L 515.079248 184.057771 
L 517.972818 179.340982 
L 520.866388 174.767989 
L 523.759958 170.403214 
L 526.653528 166.294762 
L 529.547098 162.476345 
L 532.440668 158.969623 
L 535.334237 155.786512 
L 538.227807 152.931282 
L 541.121377 150.402317 
L 544.014947 148.193568 
L 546.908517 146.295707 
L 549.802087 144.697032 
L 552.695656 143.384178 
L 555.589226 142.342657 
L 558.482796 141.557277 
L 561.376366 141.012466 
L 564.269936 140.692522 
L 567.163506 140.581796 
L 570.057076 140.66485 
L 572.950645 140.926565 
L 575.844215 141.352235 
L 578.737785 141.927637 
L 581.252971 142.538965 
L 583.832341 143.263572 
L 586.411712 144.078261 
L 588.991083 144.974504 
L 591.570454 145.944184 
L 594.149824 146.97961 
L 596.729195 148.073512 
L 599.308566 149.21905 
L 601.887936 150.409807 
L 604.467307 151.639786 
L 607.046678 152.903402 
L 609.10643 153.933197 
" clip-path="url(#pd8932ad5a3)" style="fill: none; stroke: #ff0000; stroke-width: 1.5; stroke-linecap: square"/>
   </g>
  </g>
  <g id="legend_1">
   <g id="patch_12">
    <path d="M 769.44 43.542 
L 867.528 43.542 
Q 871.368 43.542 871.368 39.702 
L 871.368 13.44 
Q 871.368 9.6 867.528 9.6 
L 769.44 9.6 
Q 765.6 9.6 765.6 13.44 
L 765.6 39.702 
Q 765.6 43.542 769.44 43.542 
z
" style="fill: #ffffff; opacity: 0.8; stroke: #cccccc; stroke-linejoin: miter"/>
   </g>
   <g id="PathCollection_3">
    <g>
     <use xlink:href="#mea305f8f5d" x="792.48" y="26.829" style="fill: #ff0000; fill-opacity: 0.8; stroke: #000000; stroke-opacity: 0.8"/>
    </g>
   </g>
   <g id="text_39">
    <!-- 111 -->
    <g transform="translate(827.04 31.869) scale(0.192 -0.192)">
     <use xlink:href="#DejaVuSans-31"/>
     <use xlink:href="#DejaVuSans-31" x="63.623047"/>
     <use xlink:href="#DejaVuSans-31" x="127.246094"/>
    </g>
   </g>
  </g>
 </g>
 <defs>
  <clipPath id="pbd790f6140">
   <rect x="90" y="43.2" width="237.272727" height="277.2"/>
  </clipPath>
  <clipPath id="pd8932ad5a3">
   <rect x="374.727273" y="43.2" width="237.272727" height="277.2"/>
  </clipPath>
 </defs>
</svg>
