<?xml version="1.0" encoding="utf-8" standalone="no"?>
<!DOCTYPE svg PUBLIC "-//W3C//DTD SVG 1.1//EN"
  "http://www.w3.org/Graphics/SVG/1.1/DTD/svg11.dtd">
<svg xmlns:xlink="http://www.w3.org/1999/xlink" width="720pt" height="360pt" viewBox="0 0 720 360" xmlns="http://www.w3.org/2000/svg" version="1.1">
 <metadata>
  <rdf:RDF xmlns:dc="http://purl.org/dc/elements/1.1/" xmlns:cc="http://creativecommons.org/ns#" xmlns:rdf="http://www.w3.org/1999/02/22-rdf-syntax-ns#">
   <cc:Work>
    <dc:type rdf:resource="http://purl.org/dc/dcmitype/StillImage"/>
    <dc:date>2024-11-05T00:02:35.886183</dc:date>
    <dc:format>image/svg+xml</dc:format>
    <dc:creator>
     <cc:Agent>
      <dc:title>Matplotlib v3.9.2, https://matplotlib.org/</dc:title>
     </cc:Agent>
    </dc:creator>
   </cc:Work>
  </rdf:RDF>
 </metadata>
 <defs>
  <style type="text/css">*{stroke-linejoin: round; stroke-linecap: butt}</style>
 </defs>
 <g id="figure_1">
  <g id="patch_1">
   <path d="M 0 360 
L 720 360 
L 720 0 
L 0 0 
z
" style="fill: #ffffff"/>
  </g>
  <g id="axes_1">
   <g id="patch_2">
    <path d="M 90 320.4 
L 327.272727 320.4 
L 327.272727 43.2 
L 90 43.2 
z
" style="fill: #ffffff"/>
   </g>
   <g id="matplotlib.axis_1">
    <g id="xtick_1">
     <g id="line2d_1">
      <defs>
       <path id="mb1a6c94e63" d="M 0 0 
L 0 3.5 
" style="stroke: #000000; stroke-width: 0.8"/>
      </defs>
      <g>
       <use xlink:href="#mb1a6c94e63" x="92.89357" y="320.4" style="stroke: #000000; stroke-width: 0.8"/>
      </g>
     </g>
     <g id="text_1">
      <!-- 0 -->
      <g transform="translate(88.31257 338.34175) scale(0.144 -0.144)">
       <defs>
        <path id="DejaVuSans-30" d="M 2034 4250 
Q 1547 4250 1301 3770 
Q 1056 3291 1056 2328 
Q 1056 1369 1301 889 
Q 1547 409 2034 409 
Q 2525 409 2770 889 
Q 3016 1369 3016 2328 
Q 3016 3291 2770 3770 
Q 2525 4250 2034 4250 
z
M 2034 4750 
Q 2819 4750 3233 4129 
Q 3647 3509 3647 2328 
Q 3647 1150 3233 529 
Q 2819 -91 2034 -91 
Q 1250 -91 836 529 
Q 422 1150 422 2328 
Q 422 3509 836 4129 
Q 1250 4750 2034 4750 
z
" transform="scale(0.015625)"/>
       </defs>
       <use xlink:href="#DejaVuSans-30"/>
      </g>
     </g>
    </g>
    <g id="xtick_2">
     <g id="line2d_2">
      <g>
       <use xlink:href="#mb1a6c94e63" x="121.829268" y="320.4" style="stroke: #000000; stroke-width: 0.8"/>
      </g>
     </g>
     <g id="text_2">
      <!-- 1 -->
      <g transform="translate(117.248268 338.34175) scale(0.144 -0.144)">
       <defs>
        <path id="DejaVuSans-31" d="M 794 531 
L 1825 531 
L 1825 4091 
L 703 3866 
L 703 4441 
L 1819 4666 
L 2450 4666 
L 2450 531 
L 3481 531 
L 3481 0 
L 794 0 
L 794 531 
z
" transform="scale(0.015625)"/>
       </defs>
       <use xlink:href="#DejaVuSans-31"/>
      </g>
     </g>
    </g>
    <g id="xtick_3">
     <g id="line2d_3">
      <g>
       <use xlink:href="#mb1a6c94e63" x="150.764967" y="320.4" style="stroke: #000000; stroke-width: 0.8"/>
      </g>
     </g>
     <g id="text_3">
      <!-- 2 -->
      <g transform="translate(146.183967 338.34175) scale(0.144 -0.144)">
       <defs>
        <path id="DejaVuSans-32" d="M 1228 531 
L 3431 531 
L 3431 0 
L 469 0 
L 469 531 
Q 828 903 1448 1529 
Q 2069 2156 2228 2338 
Q 2531 2678 2651 2914 
Q 2772 3150 2772 3378 
Q 2772 3750 2511 3984 
Q 2250 4219 1831 4219 
Q 1534 4219 1204 4116 
Q 875 4013 500 3803 
L 500 4441 
Q 881 4594 1212 4672 
Q 1544 4750 1819 4750 
Q 2544 4750 2975 4387 
Q 3406 4025 3406 3419 
Q 3406 3131 3298 2873 
Q 3191 2616 2906 2266 
Q 2828 2175 2409 1742 
Q 1991 1309 1228 531 
z
" transform="scale(0.015625)"/>
       </defs>
       <use xlink:href="#DejaVuSans-32"/>
      </g>
     </g>
    </g>
    <g id="xtick_4">
     <g id="line2d_4">
      <g>
       <use xlink:href="#mb1a6c94e63" x="179.700665" y="320.4" style="stroke: #000000; stroke-width: 0.8"/>
      </g>
     </g>
     <g id="text_4">
      <!-- 3 -->
      <g transform="translate(175.119665 338.34175) scale(0.144 -0.144)">
       <defs>
        <path id="DejaVuSans-33" d="M 2597 2516 
Q 3050 2419 3304 2112 
Q 3559 1806 3559 1356 
Q 3559 666 3084 287 
Q 2609 -91 1734 -91 
Q 1441 -91 1130 -33 
Q 819 25 488 141 
L 488 750 
Q 750 597 1062 519 
Q 1375 441 1716 441 
Q 2309 441 2620 675 
Q 2931 909 2931 1356 
Q 2931 1769 2642 2001 
Q 2353 2234 1838 2234 
L 1294 2234 
L 1294 2753 
L 1863 2753 
Q 2328 2753 2575 2939 
Q 2822 3125 2822 3475 
Q 2822 3834 2567 4026 
Q 2313 4219 1838 4219 
Q 1578 4219 1281 4162 
Q 984 4106 628 3988 
L 628 4550 
Q 988 4650 1302 4700 
Q 1616 4750 1894 4750 
Q 2613 4750 3031 4423 
Q 3450 4097 3450 3541 
Q 3450 3153 3228 2886 
Q 3006 2619 2597 2516 
z
" transform="scale(0.015625)"/>
       </defs>
       <use xlink:href="#DejaVuSans-33"/>
      </g>
     </g>
    </g>
    <g id="xtick_5">
     <g id="line2d_5">
      <g>
       <use xlink:href="#mb1a6c94e63" x="208.636364" y="320.4" style="stroke: #000000; stroke-width: 0.8"/>
      </g>
     </g>
     <g id="text_5">
      <!-- 4 -->
      <g transform="translate(204.055364 338.34175) scale(0.144 -0.144)">
       <defs>
        <path id="DejaVuSans-34" d="M 2419 4116 
L 825 1625 
L 2419 1625 
L 2419 4116 
z
M 2253 4666 
L 3047 4666 
L 3047 1625 
L 3713 1625 
L 3713 1100 
L 3047 1100 
L 3047 0 
L 2419 0 
L 2419 1100 
L 313 1100 
L 313 1709 
L 2253 4666 
z
" transform="scale(0.015625)"/>
       </defs>
       <use xlink:href="#DejaVuSans-34"/>
      </g>
     </g>
    </g>
    <g id="xtick_6">
     <g id="line2d_6">
      <g>
       <use xlink:href="#mb1a6c94e63" x="237.572062" y="320.4" style="stroke: #000000; stroke-width: 0.8"/>
      </g>
     </g>
     <g id="text_6">
      <!-- 5 -->
      <g transform="translate(232.991062 338.34175) scale(0.144 -0.144)">
       <defs>
        <path id="DejaVuSans-35" d="M 691 4666 
L 3169 4666 
L 3169 4134 
L 1269 4134 
L 1269 2991 
Q 1406 3038 1543 3061 
Q 1681 3084 1819 3084 
Q 2600 3084 3056 2656 
Q 3513 2228 3513 1497 
Q 3513 744 3044 326 
Q 2575 -91 1722 -91 
Q 1428 -91 1123 -41 
Q 819 9 494 109 
L 494 744 
Q 775 591 1075 516 
Q 1375 441 1709 441 
Q 2250 441 2565 725 
Q 2881 1009 2881 1497 
Q 2881 1984 2565 2268 
Q 2250 2553 1709 2553 
Q 1456 2553 1204 2497 
Q 953 2441 691 2322 
L 691 4666 
z
" transform="scale(0.015625)"/>
       </defs>
       <use xlink:href="#DejaVuSans-35"/>
      </g>
     </g>
    </g>
    <g id="xtick_7">
     <g id="line2d_7">
      <g>
       <use xlink:href="#mb1a6c94e63" x="266.507761" y="320.4" style="stroke: #000000; stroke-width: 0.8"/>
      </g>
     </g>
     <g id="text_7">
      <!-- 6 -->
      <g transform="translate(261.926761 338.34175) scale(0.144 -0.144)">
       <defs>
        <path id="DejaVuSans-36" d="M 2113 2584 
Q 1688 2584 1439 2293 
Q 1191 2003 1191 1497 
Q 1191 994 1439 701 
Q 1688 409 2113 409 
Q 2538 409 2786 701 
Q 3034 994 3034 1497 
Q 3034 2003 2786 2293 
Q 2538 2584 2113 2584 
z
M 3366 4563 
L 3366 3988 
Q 3128 4100 2886 4159 
Q 2644 4219 2406 4219 
Q 1781 4219 1451 3797 
Q 1122 3375 1075 2522 
Q 1259 2794 1537 2939 
Q 1816 3084 2150 3084 
Q 2853 3084 3261 2657 
Q 3669 2231 3669 1497 
Q 3669 778 3244 343 
Q 2819 -91 2113 -91 
Q 1303 -91 875 529 
Q 447 1150 447 2328 
Q 447 3434 972 4092 
Q 1497 4750 2381 4750 
Q 2619 4750 2861 4703 
Q 3103 4656 3366 4563 
z
" transform="scale(0.015625)"/>
       </defs>
       <use xlink:href="#DejaVuSans-36"/>
      </g>
     </g>
    </g>
    <g id="xtick_8">
     <g id="line2d_8">
      <g>
       <use xlink:href="#mb1a6c94e63" x="295.443459" y="320.4" style="stroke: #000000; stroke-width: 0.8"/>
      </g>
     </g>
     <g id="text_8">
      <!-- 7 -->
      <g transform="translate(290.862459 338.34175) scale(0.144 -0.144)">
       <defs>
        <path id="DejaVuSans-37" d="M 525 4666 
L 3525 4666 
L 3525 4397 
L 1831 0 
L 1172 0 
L 2766 4134 
L 525 4134 
L 525 4666 
z
" transform="scale(0.015625)"/>
       </defs>
       <use xlink:href="#DejaVuSans-37"/>
      </g>
     </g>
    </g>
    <g id="xtick_9">
     <g id="line2d_9">
      <g>
       <use xlink:href="#mb1a6c94e63" x="324.379157" y="320.4" style="stroke: #000000; stroke-width: 0.8"/>
      </g>
     </g>
     <g id="text_9">
      <!-- 8 -->
      <g transform="translate(319.798157 338.34175) scale(0.144 -0.144)">
       <defs>
        <path id="DejaVuSans-38" d="M 2034 2216 
Q 1584 2216 1326 1975 
Q 1069 1734 1069 1313 
Q 1069 891 1326 650 
Q 1584 409 2034 409 
Q 2484 409 2743 651 
Q 3003 894 3003 1313 
Q 3003 1734 2745 1975 
Q 2488 2216 2034 2216 
z
M 1403 2484 
Q 997 2584 770 2862 
Q 544 3141 544 3541 
Q 544 4100 942 4425 
Q 1341 4750 2034 4750 
Q 2731 4750 3128 4425 
Q 3525 4100 3525 3541 
Q 3525 3141 3298 2862 
Q 3072 2584 2669 2484 
Q 3125 2378 3379 2068 
Q 3634 1759 3634 1313 
Q 3634 634 3220 271 
Q 2806 -91 2034 -91 
Q 1263 -91 848 271 
Q 434 634 434 1313 
Q 434 1759 690 2068 
Q 947 2378 1403 2484 
z
M 1172 3481 
Q 1172 3119 1398 2916 
Q 1625 2713 2034 2713 
Q 2441 2713 2670 2916 
Q 2900 3119 2900 3481 
Q 2900 3844 2670 4047 
Q 2441 4250 2034 4250 
Q 1625 4250 1398 4047 
Q 1172 3844 1172 3481 
z
" transform="scale(0.015625)"/>
       </defs>
       <use xlink:href="#DejaVuSans-38"/>
      </g>
     </g>
    </g>
    <g id="text_10">
     <!-- Time (d) -->
     <g transform="translate(168.511364 359.9255) scale(0.192 -0.192)">
      <defs>
       <path id="DejaVuSans-54" d="M -19 4666 
L 3928 4666 
L 3928 4134 
L 2272 4134 
L 2272 0 
L 1638 0 
L 1638 4134 
L -19 4134 
L -19 4666 
z
" transform="scale(0.015625)"/>
       <path id="DejaVuSans-69" d="M 603 3500 
L 1178 3500 
L 1178 0 
L 603 0 
L 603 3500 
z
M 603 4863 
L 1178 4863 
L 1178 4134 
L 603 4134 
L 603 4863 
z
" transform="scale(0.015625)"/>
       <path id="DejaVuSans-6d" d="M 3328 2828 
Q 3544 3216 3844 3400 
Q 4144 3584 4550 3584 
Q 5097 3584 5394 3201 
Q 5691 2819 5691 2113 
L 5691 0 
L 5113 0 
L 5113 2094 
Q 5113 2597 4934 2840 
Q 4756 3084 4391 3084 
Q 3944 3084 3684 2787 
Q 3425 2491 3425 1978 
L 3425 0 
L 2847 0 
L 2847 2094 
Q 2847 2600 2669 2842 
Q 2491 3084 2119 3084 
Q 1678 3084 1418 2786 
Q 1159 2488 1159 1978 
L 1159 0 
L 581 0 
L 581 3500 
L 1159 3500 
L 1159 2956 
Q 1356 3278 1631 3431 
Q 1906 3584 2284 3584 
Q 2666 3584 2933 3390 
Q 3200 3197 3328 2828 
z
" transform="scale(0.015625)"/>
       <path id="DejaVuSans-65" d="M 3597 1894 
L 3597 1613 
L 953 1613 
Q 991 1019 1311 708 
Q 1631 397 2203 397 
Q 2534 397 2845 478 
Q 3156 559 3463 722 
L 3463 178 
Q 3153 47 2828 -22 
Q 2503 -91 2169 -91 
Q 1331 -91 842 396 
Q 353 884 353 1716 
Q 353 2575 817 3079 
Q 1281 3584 2069 3584 
Q 2775 3584 3186 3129 
Q 3597 2675 3597 1894 
z
M 3022 2063 
Q 3016 2534 2758 2815 
Q 2500 3097 2075 3097 
Q 1594 3097 1305 2825 
Q 1016 2553 972 2059 
L 3022 2063 
z
" transform="scale(0.015625)"/>
       <path id="DejaVuSans-20" transform="scale(0.015625)"/>
       <path id="DejaVuSans-28" d="M 1984 4856 
Q 1566 4138 1362 3434 
Q 1159 2731 1159 2009 
Q 1159 1288 1364 580 
Q 1569 -128 1984 -844 
L 1484 -844 
Q 1016 -109 783 600 
Q 550 1309 550 2009 
Q 550 2706 781 3412 
Q 1013 4119 1484 4856 
L 1984 4856 
z
" transform="scale(0.015625)"/>
       <path id="DejaVuSans-64" d="M 2906 2969 
L 2906 4863 
L 3481 4863 
L 3481 0 
L 2906 0 
L 2906 525 
Q 2725 213 2448 61 
Q 2172 -91 1784 -91 
Q 1150 -91 751 415 
Q 353 922 353 1747 
Q 353 2572 751 3078 
Q 1150 3584 1784 3584 
Q 2172 3584 2448 3432 
Q 2725 3281 2906 2969 
z
M 947 1747 
Q 947 1113 1208 752 
Q 1469 391 1925 391 
Q 2381 391 2643 752 
Q 2906 1113 2906 1747 
Q 2906 2381 2643 2742 
Q 2381 3103 1925 3103 
Q 1469 3103 1208 2742 
Q 947 2381 947 1747 
z
" transform="scale(0.015625)"/>
       <path id="DejaVuSans-29" d="M 513 4856 
L 1013 4856 
Q 1481 4119 1714 3412 
Q 1947 2706 1947 2009 
Q 1947 1309 1714 600 
Q 1481 -109 1013 -844 
L 513 -844 
Q 928 -128 1133 580 
Q 1338 1288 1338 2009 
Q 1338 2731 1133 3434 
Q 928 4138 513 4856 
z
" transform="scale(0.015625)"/>
      </defs>
      <use xlink:href="#DejaVuSans-54"/>
      <use xlink:href="#DejaVuSans-69" x="57.958984"/>
      <use xlink:href="#DejaVuSans-6d" x="85.742188"/>
      <use xlink:href="#DejaVuSans-65" x="183.154297"/>
      <use xlink:href="#DejaVuSans-20" x="244.677734"/>
      <use xlink:href="#DejaVuSans-28" x="276.464844"/>
      <use xlink:href="#DejaVuSans-64" x="315.478516"/>
      <use xlink:href="#DejaVuSans-29" x="378.955078"/>
     </g>
    </g>
   </g>
   <g id="matplotlib.axis_2">
    <g id="ytick_1">
     <g id="line2d_10">
      <defs>
       <path id="mb6a05517c8" d="M 0 0 
L -3.5 0 
" style="stroke: #000000; stroke-width: 0.8"/>
      </defs>
      <g>
       <use xlink:href="#mb6a05517c8" x="90" y="320.4" style="stroke: #000000; stroke-width: 0.8"/>
      </g>
     </g>
     <g id="text_11">
      <!-- 0 -->
      <g transform="translate(73.838 325.870875) scale(0.144 -0.144)">
       <use xlink:href="#DejaVuSans-30"/>
      </g>
     </g>
    </g>
    <g id="ytick_2">
     <g id="line2d_11">
      <g>
       <use xlink:href="#mb6a05517c8" x="90" y="286.8" style="stroke: #000000; stroke-width: 0.8"/>
      </g>
     </g>
     <g id="text_12">
      <!-- 1 -->
      <g transform="translate(73.838 292.270875) scale(0.144 -0.144)">
       <use xlink:href="#DejaVuSans-31"/>
      </g>
     </g>
    </g>
    <g id="ytick_3">
     <g id="line2d_12">
      <g>
       <use xlink:href="#mb6a05517c8" x="90" y="253.2" style="stroke: #000000; stroke-width: 0.8"/>
      </g>
     </g>
     <g id="text_13">
      <!-- 2 -->
      <g transform="translate(73.838 258.670875) scale(0.144 -0.144)">
       <use xlink:href="#DejaVuSans-32"/>
      </g>
     </g>
    </g>
    <g id="ytick_4">
     <g id="line2d_13">
      <g>
       <use xlink:href="#mb6a05517c8" x="90" y="219.6" style="stroke: #000000; stroke-width: 0.8"/>
      </g>
     </g>
     <g id="text_14">
      <!-- 3 -->
      <g transform="translate(73.838 225.070875) scale(0.144 -0.144)">
       <use xlink:href="#DejaVuSans-33"/>
      </g>
     </g>
    </g>
    <g id="ytick_5">
     <g id="line2d_14">
      <g>
       <use xlink:href="#mb6a05517c8" x="90" y="186" style="stroke: #000000; stroke-width: 0.8"/>
      </g>
     </g>
     <g id="text_15">
      <!-- 4 -->
      <g transform="translate(73.838 191.470875) scale(0.144 -0.144)">
       <use xlink:href="#DejaVuSans-34"/>
      </g>
     </g>
    </g>
    <g id="ytick_6">
     <g id="line2d_15">
      <g>
       <use xlink:href="#mb6a05517c8" x="90" y="152.4" style="stroke: #000000; stroke-width: 0.8"/>
      </g>
     </g>
     <g id="text_16">
      <!-- 5 -->
      <g transform="translate(73.838 157.870875) scale(0.144 -0.144)">
       <use xlink:href="#DejaVuSans-35"/>
      </g>
     </g>
    </g>
    <g id="ytick_7">
     <g id="line2d_16">
      <g>
       <use xlink:href="#mb6a05517c8" x="90" y="118.8" style="stroke: #000000; stroke-width: 0.8"/>
      </g>
     </g>
     <g id="text_17">
      <!-- 6 -->
      <g transform="translate(73.838 124.270875) scale(0.144 -0.144)">
       <use xlink:href="#DejaVuSans-36"/>
      </g>
     </g>
    </g>
    <g id="ytick_8">
     <g id="line2d_17">
      <g>
       <use xlink:href="#mb6a05517c8" x="90" y="85.2" style="stroke: #000000; stroke-width: 0.8"/>
      </g>
     </g>
     <g id="text_18">
      <!-- 7 -->
      <g transform="translate(73.838 90.670875) scale(0.144 -0.144)">
       <use xlink:href="#DejaVuSans-37"/>
      </g>
     </g>
    </g>
    <g id="ytick_9">
     <g id="line2d_18">
      <g>
       <use xlink:href="#mb6a05517c8" x="90" y="51.6" style="stroke: #000000; stroke-width: 0.8"/>
      </g>
     </g>
     <g id="text_19">
      <!-- 8 -->
      <g transform="translate(73.838 57.070875) scale(0.144 -0.144)">
       <use xlink:href="#DejaVuSans-38"/>
      </g>
     </g>
    </g>
    <g id="text_20">
     <!-- Log10(V) -->
     <g transform="translate(65.845 225.2235) rotate(-90) scale(0.192 -0.192)">
      <defs>
       <path id="DejaVuSans-4c" d="M 628 4666 
L 1259 4666 
L 1259 531 
L 3531 531 
L 3531 0 
L 628 0 
L 628 4666 
z
" transform="scale(0.015625)"/>
       <path id="DejaVuSans-6f" d="M 1959 3097 
Q 1497 3097 1228 2736 
Q 959 2375 959 1747 
Q 959 1119 1226 758 
Q 1494 397 1959 397 
Q 2419 397 2687 759 
Q 2956 1122 2956 1747 
Q 2956 2369 2687 2733 
Q 2419 3097 1959 3097 
z
M 1959 3584 
Q 2709 3584 3137 3096 
Q 3566 2609 3566 1747 
Q 3566 888 3137 398 
Q 2709 -91 1959 -91 
Q 1206 -91 779 398 
Q 353 888 353 1747 
Q 353 2609 779 3096 
Q 1206 3584 1959 3584 
z
" transform="scale(0.015625)"/>
       <path id="DejaVuSans-67" d="M 2906 1791 
Q 2906 2416 2648 2759 
Q 2391 3103 1925 3103 
Q 1463 3103 1205 2759 
Q 947 2416 947 1791 
Q 947 1169 1205 825 
Q 1463 481 1925 481 
Q 2391 481 2648 825 
Q 2906 1169 2906 1791 
z
M 3481 434 
Q 3481 -459 3084 -895 
Q 2688 -1331 1869 -1331 
Q 1566 -1331 1297 -1286 
Q 1028 -1241 775 -1147 
L 775 -588 
Q 1028 -725 1275 -790 
Q 1522 -856 1778 -856 
Q 2344 -856 2625 -561 
Q 2906 -266 2906 331 
L 2906 616 
Q 2728 306 2450 153 
Q 2172 0 1784 0 
Q 1141 0 747 490 
Q 353 981 353 1791 
Q 353 2603 747 3093 
Q 1141 3584 1784 3584 
Q 2172 3584 2450 3431 
Q 2728 3278 2906 2969 
L 2906 3500 
L 3481 3500 
L 3481 434 
z
" transform="scale(0.015625)"/>
       <path id="DejaVuSans-56" d="M 1831 0 
L 50 4666 
L 709 4666 
L 2188 738 
L 3669 4666 
L 4325 4666 
L 2547 0 
L 1831 0 
z
" transform="scale(0.015625)"/>
      </defs>
      <use xlink:href="#DejaVuSans-4c"/>
      <use xlink:href="#DejaVuSans-6f" x="53.962891"/>
      <use xlink:href="#DejaVuSans-67" x="115.144531"/>
      <use xlink:href="#DejaVuSans-31" x="178.621094"/>
      <use xlink:href="#DejaVuSans-30" x="242.244141"/>
      <use xlink:href="#DejaVuSans-28" x="305.867188"/>
      <use xlink:href="#DejaVuSans-56" x="344.880859"/>
      <use xlink:href="#DejaVuSans-29" x="413.289062"/>
     </g>
    </g>
   </g>
   <g id="patch_3">
    <path d="M 90 320.4 
L 90 43.2 
" style="fill: none; stroke: #000000; stroke-width: 0.8; stroke-linejoin: miter; stroke-linecap: square"/>
   </g>
   <g id="patch_4">
    <path d="M 327.272727 320.4 
L 327.272727 43.2 
" style="fill: none; stroke: #000000; stroke-width: 0.8; stroke-linejoin: miter; stroke-linecap: square"/>
   </g>
   <g id="patch_5">
    <path d="M 90 320.4 
L 327.272727 320.4 
" style="fill: none; stroke: #000000; stroke-width: 0.8; stroke-linejoin: miter; stroke-linecap: square"/>
   </g>
   <g id="patch_6">
    <path d="M 90 43.2 
L 327.272727 43.2 
" style="fill: none; stroke: #000000; stroke-width: 0.8; stroke-linejoin: miter; stroke-linecap: square"/>
   </g>
   <g id="PolyCollection_1">
    <defs>
     <path id="mdff802098a" d="M 92.89357 -39.6 
L 92.89357 -39.6 
L 92.894649 -39.6 
L 92.905445 -39.6 
L 93.0134 -39.6 
L 93.428073 -39.6 
L 93.734586 -39.6 
L 94.69849 -39.6 
L 95.278683 -39.6 
L 96.968632 -39.6 
L 97.688565 -41.470284 
L 99.258427 -48.395249 
L 100.099887 -52.192606 
L 101.719627 -59.438292 
L 102.649701 -63.58518 
L 104.243462 -70.679399 
L 105.246624 -75.148042 
L 106.837683 -82.220393 
L 107.893779 -86.927299 
L 109.473562 -93.941472 
L 110.569427 -98.824458 
L 112.318135 -106.581545 
L 113.39582 -111.375866 
L 114.904738 -118.052902 
L 116.032885 -123.061899 
L 117.693445 -130.384654 
L 118.824897 -135.350163 
L 120.408605 -142.250117 
L 121.582938 -147.307324 
L 123.329391 -154.721648 
L 124.522736 -159.625501 
L 126.172845 -166.198657 
L 127.405468 -170.786109 
L 129.188819 -176.978961 
L 130.43159 -180.763278 
L 132.128616 -185.249065 
L 133.400623 -187.969617 
L 135.064893 -190.195913 
L 136.251745 -191.095884 
L 137.772177 -191.897219 
L 138.892062 -192.23571 
L 140.143064 -192.40241 
L 141.394067 -192.439201 
L 142.437656 -192.353064 
L 143.54025 -192.07428 
L 144.447345 -191.78776 
L 146.14676 -191.179107 
L 147.217195 -190.758261 
L 149.359305 -189.843044 
L 150.701428 -189.228878 
L 153.134163 -188.048493 
L 154.658275 -187.269818 
L 157.551845 -185.74728 
L 159.252126 -184.816143 
L 162.145696 -183.20062 
L 164.137865 -182.056 
L 167.031435 -180.364221 
L 169.441035 -178.916441 
L 172.334605 -177.133005 
L 175.228175 -175.283842 
L 178.121745 -173.346642 
L 181.015314 -171.231142 
L 183.908884 -168.847817 
L 186.802454 -166.221453 
L 189.696024 -163.256056 
L 192.589594 -159.817279 
L 195.483164 -155.715444 
L 198.376733 -150.684002 
L 201.270303 -144.365078 
L 204.163873 -136.336913 
L 207.057443 -126.116019 
L 209.951013 -111.864429 
L 212.463288 -94.928542 
L 214.524296 -79.066467 
L 216.585304 -62.3815 
L 218.646312 -45.289442 
L 220.70732 -39.669314 
L 222.768328 -39.6 
L 224.829336 -39.6 
L 226.890344 -39.6 
L 228.951352 -39.6 
L 231.401544 -39.6 
L 234.137619 -39.6 
L 237.031189 -39.6 
L 239.924759 -39.6 
L 242.818329 -39.6 
L 245.711899 -39.6 
L 248.605469 -39.6 
L 251.499038 -39.6 
L 254.392608 -39.6 
L 257.286178 -39.6 
L 260.179748 -39.6 
L 263.073318 -39.6 
L 265.966888 -39.6 
L 268.860457 -39.6 
L 271.754027 -39.6 
L 274.647597 -39.6 
L 277.541167 -39.6 
L 280.434737 -39.6 
L 283.328307 -39.6 
L 286.221877 -39.6 
L 289.115446 -39.6 
L 292.009016 -39.6 
L 294.902586 -39.6 
L 297.796156 -39.6 
L 300.689726 -39.6 
L 303.583296 -39.6 
L 306.476865 -39.6 
L 309.370435 -39.6 
L 312.264005 -39.6 
L 315.157575 -39.6 
L 318.051145 -39.6 
L 320.944715 -39.6 
L 323.838285 -39.6 
L 324.379157 -39.6 
L 324.379157 -39.6 
L 324.379157 -39.6 
L 323.838285 -39.6 
L 320.944715 -39.6 
L 318.051145 -39.6 
L 315.157575 -39.6 
L 312.264005 -39.6 
L 309.370435 -39.6 
L 306.476865 -39.6 
L 303.583296 -39.6 
L 300.689726 -39.6 
L 297.796156 -39.6 
L 294.902586 -39.6 
L 292.009016 -39.6 
L 289.115446 -39.6 
L 286.221877 -39.6 
L 283.328307 -39.6 
L 280.434737 -39.6 
L 277.541167 -39.6 
L 274.647597 -39.6 
L 271.754027 -39.6 
L 268.860457 -39.6 
L 265.966888 -39.6 
L 263.073318 -39.6 
L 260.179748 -39.6 
L 257.286178 -39.6 
L 254.392608 -39.6 
L 251.499038 -39.6 
L 248.605469 -39.6 
L 245.711899 -39.6 
L 242.818329 -39.6 
L 239.924759 -39.6 
L 237.031189 -39.6 
L 234.137619 -39.6 
L 231.401544 -40.689376 
L 228.951352 -47.897102 
L 226.890344 -58.529574 
L 224.829336 -68.979229 
L 222.768328 -79.208034 
L 220.70732 -89.154071 
L 218.646312 -98.898899 
L 216.585304 -108.450086 
L 214.524296 -118.311373 
L 212.463288 -128.34932 
L 209.951013 -138.635749 
L 207.057443 -147.931817 
L 204.163873 -154.941621 
L 201.270303 -160.775877 
L 198.376733 -165.538635 
L 195.483164 -169.327766 
L 192.589594 -172.747912 
L 189.696024 -175.680747 
L 186.802454 -178.235325 
L 183.908884 -180.523756 
L 181.015314 -182.623436 
L 178.121745 -184.588662 
L 175.228175 -186.45735 
L 172.334605 -188.255141 
L 169.441035 -189.998035 
L 167.031435 -191.416452 
L 164.137865 -193.072029 
L 162.145696 -194.190327 
L 159.252126 -195.75699 
L 157.551845 -196.654543 
L 154.658275 -198.103272 
L 153.134163 -198.830326 
L 150.701428 -199.902796 
L 149.359305 -200.441038 
L 147.217195 -201.216433 
L 146.14676 -201.547948 
L 144.447345 -201.983775 
L 143.54025 -202.159397 
L 142.437656 -202.311425 
L 141.394067 -202.373005 
L 140.143064 -202.340507 
L 138.892062 -202.182776 
L 137.772177 -202.155037 
L 136.251745 -201.876101 
L 135.064893 -201.48477 
L 133.400623 -200.457722 
L 132.128616 -199.316209 
L 130.43159 -196.951394 
L 129.188819 -194.824038 
L 127.405468 -191.725583 
L 126.172845 -189.250749 
L 124.522736 -185.027437 
L 123.329391 -181.055389 
L 121.582938 -174.248543 
L 120.408605 -168.922254 
L 118.824897 -161.293426 
L 117.693445 -155.474972 
L 116.032885 -146.718981 
L 114.904738 -140.58904 
L 113.39582 -132.355684 
L 112.318135 -126.405846 
L 110.569427 -116.734115 
L 109.473562 -110.622621 
L 107.893779 -101.851375 
L 106.837683 -95.963509 
L 105.246624 -87.116072 
L 104.243462 -81.523009 
L 102.649701 -72.827672 
L 101.719627 -68.20743 
L 100.099887 -60.12701 
L 99.258427 -55.958614 
L 97.688565 -48.063008 
L 96.968632 -44.302413 
L 95.278683 -39.692241 
L 94.69849 -39.6 
L 93.734586 -39.6 
L 93.428073 -39.6 
L 93.0134 -39.6 
L 92.905445 -39.6 
L 92.894649 -39.6 
L 92.89357 -39.6 
z
" style="stroke: #ff8c00; stroke-opacity: 0.2"/>
    </defs>
    <g clip-path="url(#p8cfdd34866)">
     <use xlink:href="#mdff802098a" x="0" y="360" style="fill: #ff8c00; fill-opacity: 0.2; stroke: #ff8c00; stroke-opacity: 0.2"/>
    </g>
   </g>
   <g id="PathCollection_1">
    <defs>
     <path id="m7b3c7e2b32" d="M 0 3 
C 0.795609 3 1.55874 2.683901 2.12132 2.12132 
C 2.683901 1.55874 3 0.795609 3 0 
C 3 -0.795609 2.683901 -1.55874 2.12132 -2.12132 
C 1.55874 -2.683901 0.795609 -3 0 -3 
C -0.795609 -3 -1.55874 -2.683901 -2.12132 -2.12132 
C -2.683901 -1.55874 -3 -0.795609 -3 0 
C -3 0.795609 -2.683901 1.55874 -2.12132 2.12132 
C -1.55874 2.683901 -0.795609 3 0 3 
z
" style="stroke: #000000; stroke-opacity: 0.8"/>
    </defs>
    <g clip-path="url(#p8cfdd34866)">
     <use xlink:href="#m7b3c7e2b32" x="92.89357" y="320.4" style="fill: #ff8c00; fill-opacity: 0.8; stroke: #000000; stroke-opacity: 0.8"/>
     <use xlink:href="#m7b3c7e2b32" x="121.829268" y="191.915937" style="fill: #ff8c00; fill-opacity: 0.8; stroke: #000000; stroke-opacity: 0.8"/>
     <use xlink:href="#m7b3c7e2b32" x="150.764967" y="160.951584" style="fill: #ff8c00; fill-opacity: 0.8; stroke: #000000; stroke-opacity: 0.8"/>
     <use xlink:href="#m7b3c7e2b32" x="179.700665" y="212.952855" style="fill: #ff8c00; fill-opacity: 0.8; stroke: #000000; stroke-opacity: 0.8"/>
     <use xlink:href="#m7b3c7e2b32" x="208.636364" y="221.800852" style="fill: #ff8c00; fill-opacity: 0.8; stroke: #000000; stroke-opacity: 0.8"/>
     <use xlink:href="#m7b3c7e2b32" x="237.572062" y="320.4" style="fill: #ff8c00; fill-opacity: 0.8; stroke: #000000; stroke-opacity: 0.8"/>
     <use xlink:href="#m7b3c7e2b32" x="266.507761" y="320.4" style="fill: #ff8c00; fill-opacity: 0.8; stroke: #000000; stroke-opacity: 0.8"/>
     <use xlink:href="#m7b3c7e2b32" x="295.443459" y="320.4" style="fill: #ff8c00; fill-opacity: 0.8; stroke: #000000; stroke-opacity: 0.8"/>
    </g>
   </g>
   <g id="line2d_19">
    <path d="M 92.89357 320.4 
L 92.894649 320.4 
L 92.905445 320.4 
L 93.0134 320.4 
L 93.428073 320.4 
L 93.734586 320.4 
L 94.69849 320.4 
L 95.278683 320.4 
L 96.968632 320.4 
L 97.688565 317.539503 
L 99.258427 309.529286 
L 100.099887 305.331337 
L 101.719627 297.218456 
L 102.649701 292.604874 
L 104.243462 284.644651 
L 105.246624 279.669823 
L 106.837683 271.727694 
L 107.893779 266.490468 
L 109.473562 258.611645 
L 110.569427 253.18101 
L 112.318135 244.454697 
L 113.39582 239.130788 
L 114.904738 231.660783 
L 116.032885 226.122479 
L 117.693445 217.980303 
L 118.824897 212.525031 
L 120.408605 204.988444 
L 121.582938 199.566264 
L 123.329391 191.831276 
L 124.522736 186.905291 
L 126.172845 180.728283 
L 127.405468 176.706253 
L 129.188819 171.936704 
L 130.43159 169.346218 
L 132.128616 166.725595 
L 133.400623 165.348177 
L 135.064893 164.147319 
L 136.251745 163.616006 
L 137.772177 163.233041 
L 138.892062 163.120085 
L 140.143064 163.12668 
L 141.394067 163.247248 
L 142.437656 163.419806 
L 143.54025 163.661458 
L 144.447345 163.899689 
L 146.14676 164.425325 
L 147.217195 164.802413 
L 149.359305 165.641104 
L 150.701428 166.215357 
L 153.134163 167.329787 
L 154.658275 168.068679 
L 157.551845 169.536928 
L 159.252126 170.433276 
L 162.145696 172.003335 
L 164.137865 173.112629 
L 167.031435 174.760468 
L 169.441035 176.165325 
L 172.334605 177.895922 
L 175.228175 179.684585 
L 178.121745 181.550183 
L 181.015314 183.521193 
L 183.908884 185.638202 
L 186.802454 187.957731 
L 189.696024 190.558328 
L 192.589594 193.550641 
L 195.483164 197.094369 
L 198.376733 201.426373 
L 201.270303 206.903367 
L 204.163873 214.047363 
L 207.057443 223.522882 
L 209.951013 235.89982 
L 212.463288 248.994361 
L 214.524296 260.984055 
L 216.585304 273.859298 
L 218.646312 287.398909 
L 220.70732 301.425981 
L 222.768328 315.76482 
L 224.829336 320.4 
L 226.890344 320.4 
L 228.951352 320.4 
L 231.401544 320.4 
L 234.137619 320.4 
L 237.031189 320.4 
L 239.924759 320.4 
L 242.818329 320.4 
L 245.711899 320.4 
L 248.605469 320.4 
L 251.499038 320.4 
L 254.392608 320.4 
L 257.286178 320.4 
L 260.179748 320.4 
L 263.073318 320.4 
L 265.966888 320.4 
L 268.860457 320.4 
L 271.754027 320.4 
L 274.647597 320.4 
L 277.541167 320.4 
L 280.434737 320.4 
L 283.328307 320.4 
L 286.221877 320.4 
L 289.115446 320.4 
L 292.009016 320.4 
L 294.902586 320.4 
L 297.796156 320.4 
L 300.689726 320.4 
L 303.583296 320.4 
L 306.476865 320.4 
L 309.370435 320.4 
L 312.264005 320.4 
L 315.157575 320.4 
L 318.051145 320.4 
L 320.944715 320.4 
L 323.838285 320.4 
L 324.379157 320.4 
" clip-path="url(#p8cfdd34866)" style="fill: none; stroke: #ff8c00; stroke-width: 1.5; stroke-linecap: square"/>
   </g>
  </g>
  <g id="axes_2">
   <g id="patch_7">
    <path d="M 374.727273 320.4 
L 612 320.4 
L 612 43.2 
L 374.727273 43.2 
z
" style="fill: #ffffff"/>
   </g>
   <g id="matplotlib.axis_3">
    <g id="xtick_10">
     <g id="line2d_20">
      <g>
       <use xlink:href="#mb1a6c94e63" x="377.620843" y="320.4" style="stroke: #000000; stroke-width: 0.8"/>
      </g>
     </g>
     <g id="text_21">
      <!-- 0 -->
      <g transform="translate(373.039843 338.34175) scale(0.144 -0.144)">
       <use xlink:href="#DejaVuSans-30"/>
      </g>
     </g>
    </g>
    <g id="xtick_11">
     <g id="line2d_21">
      <g>
       <use xlink:href="#mb1a6c94e63" x="406.556541" y="320.4" style="stroke: #000000; stroke-width: 0.8"/>
      </g>
     </g>
     <g id="text_22">
      <!-- 1 -->
      <g transform="translate(401.975541 338.34175) scale(0.144 -0.144)">
       <use xlink:href="#DejaVuSans-31"/>
      </g>
     </g>
    </g>
    <g id="xtick_12">
     <g id="line2d_22">
      <g>
       <use xlink:href="#mb1a6c94e63" x="435.492239" y="320.4" style="stroke: #000000; stroke-width: 0.8"/>
      </g>
     </g>
     <g id="text_23">
      <!-- 2 -->
      <g transform="translate(430.911239 338.34175) scale(0.144 -0.144)">
       <use xlink:href="#DejaVuSans-32"/>
      </g>
     </g>
    </g>
    <g id="xtick_13">
     <g id="line2d_23">
      <g>
       <use xlink:href="#mb1a6c94e63" x="464.427938" y="320.4" style="stroke: #000000; stroke-width: 0.8"/>
      </g>
     </g>
     <g id="text_24">
      <!-- 3 -->
      <g transform="translate(459.846938 338.34175) scale(0.144 -0.144)">
       <use xlink:href="#DejaVuSans-33"/>
      </g>
     </g>
    </g>
    <g id="xtick_14">
     <g id="line2d_24">
      <g>
       <use xlink:href="#mb1a6c94e63" x="493.363636" y="320.4" style="stroke: #000000; stroke-width: 0.8"/>
      </g>
     </g>
     <g id="text_25">
      <!-- 4 -->
      <g transform="translate(488.782636 338.34175) scale(0.144 -0.144)">
       <use xlink:href="#DejaVuSans-34"/>
      </g>
     </g>
    </g>
    <g id="xtick_15">
     <g id="line2d_25">
      <g>
       <use xlink:href="#mb1a6c94e63" x="522.299335" y="320.4" style="stroke: #000000; stroke-width: 0.8"/>
      </g>
     </g>
     <g id="text_26">
      <!-- 5 -->
      <g transform="translate(517.718335 338.34175) scale(0.144 -0.144)">
       <use xlink:href="#DejaVuSans-35"/>
      </g>
     </g>
    </g>
    <g id="xtick_16">
     <g id="line2d_26">
      <g>
       <use xlink:href="#mb1a6c94e63" x="551.235033" y="320.4" style="stroke: #000000; stroke-width: 0.8"/>
      </g>
     </g>
     <g id="text_27">
      <!-- 6 -->
      <g transform="translate(546.654033 338.34175) scale(0.144 -0.144)">
       <use xlink:href="#DejaVuSans-36"/>
      </g>
     </g>
    </g>
    <g id="xtick_17">
     <g id="line2d_27">
      <g>
       <use xlink:href="#mb1a6c94e63" x="580.170732" y="320.4" style="stroke: #000000; stroke-width: 0.8"/>
      </g>
     </g>
     <g id="text_28">
      <!-- 7 -->
      <g transform="translate(575.589732 338.34175) scale(0.144 -0.144)">
       <use xlink:href="#DejaVuSans-37"/>
      </g>
     </g>
    </g>
    <g id="xtick_18">
     <g id="line2d_28">
      <g>
       <use xlink:href="#mb1a6c94e63" x="609.10643" y="320.4" style="stroke: #000000; stroke-width: 0.8"/>
      </g>
     </g>
     <g id="text_29">
      <!-- 8 -->
      <g transform="translate(604.52543 338.34175) scale(0.144 -0.144)">
       <use xlink:href="#DejaVuSans-38"/>
      </g>
     </g>
    </g>
    <g id="text_30">
     <!-- Time (d) -->
     <g transform="translate(453.238636 359.9255) scale(0.192 -0.192)">
      <use xlink:href="#DejaVuSans-54"/>
      <use xlink:href="#DejaVuSans-69" x="57.958984"/>
      <use xlink:href="#DejaVuSans-6d" x="85.742188"/>
      <use xlink:href="#DejaVuSans-65" x="183.154297"/>
      <use xlink:href="#DejaVuSans-20" x="244.677734"/>
      <use xlink:href="#DejaVuSans-28" x="276.464844"/>
      <use xlink:href="#DejaVuSans-64" x="315.478516"/>
      <use xlink:href="#DejaVuSans-29" x="378.955078"/>
     </g>
    </g>
   </g>
   <g id="matplotlib.axis_4">
    <g id="ytick_10">
     <g id="line2d_29">
      <g>
       <use xlink:href="#mb6a05517c8" x="374.727273" y="320.4" style="stroke: #000000; stroke-width: 0.8"/>
      </g>
     </g>
     <g id="text_31">
      <!-- 4.5 -->
      <g transform="translate(344.826773 325.870875) scale(0.144 -0.144)">
       <defs>
        <path id="DejaVuSans-2e" d="M 684 794 
L 1344 794 
L 1344 0 
L 684 0 
L 684 794 
z
" transform="scale(0.015625)"/>
       </defs>
       <use xlink:href="#DejaVuSans-34"/>
       <use xlink:href="#DejaVuSans-2e" x="63.623047"/>
       <use xlink:href="#DejaVuSans-35" x="95.410156"/>
      </g>
     </g>
    </g>
    <g id="ytick_11">
     <g id="line2d_30">
      <g>
       <use xlink:href="#mb6a05517c8" x="374.727273" y="277.753846" style="stroke: #000000; stroke-width: 0.8"/>
      </g>
     </g>
     <g id="text_32">
      <!-- 5.0 -->
      <g transform="translate(344.826773 283.224721) scale(0.144 -0.144)">
       <use xlink:href="#DejaVuSans-35"/>
       <use xlink:href="#DejaVuSans-2e" x="63.623047"/>
       <use xlink:href="#DejaVuSans-30" x="95.410156"/>
      </g>
     </g>
    </g>
    <g id="ytick_12">
     <g id="line2d_31">
      <g>
       <use xlink:href="#mb6a05517c8" x="374.727273" y="235.107692" style="stroke: #000000; stroke-width: 0.8"/>
      </g>
     </g>
     <g id="text_33">
      <!-- 5.5 -->
      <g transform="translate(344.826773 240.578567) scale(0.144 -0.144)">
       <use xlink:href="#DejaVuSans-35"/>
       <use xlink:href="#DejaVuSans-2e" x="63.623047"/>
       <use xlink:href="#DejaVuSans-35" x="95.410156"/>
      </g>
     </g>
    </g>
    <g id="ytick_13">
     <g id="line2d_32">
      <g>
       <use xlink:href="#mb6a05517c8" x="374.727273" y="192.461538" style="stroke: #000000; stroke-width: 0.8"/>
      </g>
     </g>
     <g id="text_34">
      <!-- 6.0 -->
      <g transform="translate(344.826773 197.932413) scale(0.144 -0.144)">
       <use xlink:href="#DejaVuSans-36"/>
       <use xlink:href="#DejaVuSans-2e" x="63.623047"/>
       <use xlink:href="#DejaVuSans-30" x="95.410156"/>
      </g>
     </g>
    </g>
    <g id="ytick_14">
     <g id="line2d_33">
      <g>
       <use xlink:href="#mb6a05517c8" x="374.727273" y="149.815385" style="stroke: #000000; stroke-width: 0.8"/>
      </g>
     </g>
     <g id="text_35">
      <!-- 6.5 -->
      <g transform="translate(344.826773 155.28626) scale(0.144 -0.144)">
       <use xlink:href="#DejaVuSans-36"/>
       <use xlink:href="#DejaVuSans-2e" x="63.623047"/>
       <use xlink:href="#DejaVuSans-35" x="95.410156"/>
      </g>
     </g>
    </g>
    <g id="ytick_15">
     <g id="line2d_34">
      <g>
       <use xlink:href="#mb6a05517c8" x="374.727273" y="107.169231" style="stroke: #000000; stroke-width: 0.8"/>
      </g>
     </g>
     <g id="text_36">
      <!-- 7.0 -->
      <g transform="translate(344.826773 112.640106) scale(0.144 -0.144)">
       <use xlink:href="#DejaVuSans-37"/>
       <use xlink:href="#DejaVuSans-2e" x="63.623047"/>
       <use xlink:href="#DejaVuSans-30" x="95.410156"/>
      </g>
     </g>
    </g>
    <g id="ytick_16">
     <g id="line2d_35">
      <g>
       <use xlink:href="#mb6a05517c8" x="374.727273" y="64.523077" style="stroke: #000000; stroke-width: 0.8"/>
      </g>
     </g>
     <g id="text_37">
      <!-- 7.5 -->
      <g transform="translate(344.826773 69.993952) scale(0.144 -0.144)">
       <use xlink:href="#DejaVuSans-37"/>
       <use xlink:href="#DejaVuSans-2e" x="63.623047"/>
       <use xlink:href="#DejaVuSans-35" x="95.410156"/>
      </g>
     </g>
    </g>
    <g id="text_38">
     <!-- Log10(CD8TE) -->
     <g transform="translate(336.833773 250.7895) rotate(-90) scale(0.192 -0.192)">
      <defs>
       <path id="DejaVuSans-43" d="M 4122 4306 
L 4122 3641 
Q 3803 3938 3442 4084 
Q 3081 4231 2675 4231 
Q 1875 4231 1450 3742 
Q 1025 3253 1025 2328 
Q 1025 1406 1450 917 
Q 1875 428 2675 428 
Q 3081 428 3442 575 
Q 3803 722 4122 1019 
L 4122 359 
Q 3791 134 3420 21 
Q 3050 -91 2638 -91 
Q 1578 -91 968 557 
Q 359 1206 359 2328 
Q 359 3453 968 4101 
Q 1578 4750 2638 4750 
Q 3056 4750 3426 4639 
Q 3797 4528 4122 4306 
z
" transform="scale(0.015625)"/>
       <path id="DejaVuSans-44" d="M 1259 4147 
L 1259 519 
L 2022 519 
Q 2988 519 3436 956 
Q 3884 1394 3884 2338 
Q 3884 3275 3436 3711 
Q 2988 4147 2022 4147 
L 1259 4147 
z
M 628 4666 
L 1925 4666 
Q 3281 4666 3915 4102 
Q 4550 3538 4550 2338 
Q 4550 1131 3912 565 
Q 3275 0 1925 0 
L 628 0 
L 628 4666 
z
" transform="scale(0.015625)"/>
       <path id="DejaVuSans-45" d="M 628 4666 
L 3578 4666 
L 3578 4134 
L 1259 4134 
L 1259 2753 
L 3481 2753 
L 3481 2222 
L 1259 2222 
L 1259 531 
L 3634 531 
L 3634 0 
L 628 0 
L 628 4666 
z
" transform="scale(0.015625)"/>
      </defs>
      <use xlink:href="#DejaVuSans-4c"/>
      <use xlink:href="#DejaVuSans-6f" x="53.962891"/>
      <use xlink:href="#DejaVuSans-67" x="115.144531"/>
      <use xlink:href="#DejaVuSans-31" x="178.621094"/>
      <use xlink:href="#DejaVuSans-30" x="242.244141"/>
      <use xlink:href="#DejaVuSans-28" x="305.867188"/>
      <use xlink:href="#DejaVuSans-43" x="344.880859"/>
      <use xlink:href="#DejaVuSans-44" x="414.705078"/>
      <use xlink:href="#DejaVuSans-38" x="491.707031"/>
      <use xlink:href="#DejaVuSans-54" x="555.330078"/>
      <use xlink:href="#DejaVuSans-45" x="616.414062"/>
      <use xlink:href="#DejaVuSans-29" x="679.597656"/>
     </g>
    </g>
   </g>
   <g id="patch_8">
    <path d="M 374.727273 320.4 
L 374.727273 43.2 
" style="fill: none; stroke: #000000; stroke-width: 0.8; stroke-linejoin: miter; stroke-linecap: square"/>
   </g>
   <g id="patch_9">
    <path d="M 612 320.4 
L 612 43.2 
" style="fill: none; stroke: #000000; stroke-width: 0.8; stroke-linejoin: miter; stroke-linecap: square"/>
   </g>
   <g id="patch_10">
    <path d="M 374.727273 320.4 
L 612 320.4 
" style="fill: none; stroke: #000000; stroke-width: 0.8; stroke-linejoin: miter; stroke-linecap: square"/>
   </g>
   <g id="patch_11">
    <path d="M 374.727273 43.2 
L 612 43.2 
" style="fill: none; stroke: #000000; stroke-width: 0.8; stroke-linejoin: miter; stroke-linecap: square"/>
   </g>
   <g id="PolyCollection_2">
    <defs>
     <path id="mcc88f7fd86" d="M 377.620843 -149.682346 
L 377.620843 -149.682346 
L 377.621922 -149.682346 
L 377.632718 -149.682346 
L 377.740672 -149.682346 
L 378.155346 -149.682346 
L 378.461859 -149.682346 
L 379.425763 -149.682346 
L 380.005956 -149.682346 
L 381.695905 -149.682346 
L 382.415838 -149.682346 
L 383.9857 -149.682346 
L 384.82716 -149.682346 
L 386.4469 -149.682346 
L 387.376974 -149.682346 
L 388.970735 -149.682346 
L 389.973897 -149.682346 
L 391.564956 -149.682346 
L 392.621052 -149.682346 
L 394.200835 -149.682346 
L 395.2967 -149.682346 
L 397.045408 -149.682346 
L 398.123093 -149.682346 
L 399.632011 -149.682347 
L 400.760158 -149.682347 
L 402.420718 -149.682348 
L 403.55217 -149.682349 
L 405.135878 -149.682352 
L 406.310211 -149.682355 
L 408.056664 -149.682364 
L 409.250009 -149.682374 
L 410.900118 -149.682397 
L 412.132741 -149.682425 
L 413.916092 -149.682489 
L 415.158863 -149.682564 
L 416.855889 -149.682717 
L 418.127896 -149.682904 
L 419.792165 -149.683307 
L 420.979018 -149.683744 
L 422.49945 -149.684648 
L 423.619334 -149.685507 
L 424.870337 -149.686973 
L 426.12134 -149.689091 
L 427.164928 -149.691609 
L 428.267522 -149.695333 
L 429.174618 -149.698949 
L 430.874033 -149.709469 
L 431.944468 -149.72 
L 434.086578 -149.749659 
L 435.428701 -149.780707 
L 437.861436 -149.871065 
L 439.385548 -149.958941 
L 442.279118 -150.244391 
L 443.979399 -150.512101 
L 446.872969 -151.218122 
L 448.865138 -151.963212 
L 451.758707 -153.513042 
L 454.168308 -155.338426 
L 457.061878 -158.209179 
L 459.955447 -161.704665 
L 462.849017 -165.851057 
L 465.742587 -170.516754 
L 468.636157 -175.530627 
L 471.529727 -180.71275 
L 474.423297 -185.89855 
L 477.316867 -190.952295 
L 480.210436 -195.771097 
L 483.104006 -200.113581 
L 485.997576 -203.992907 
L 488.891146 -207.499128 
L 491.784716 -210.625431 
L 494.678286 -213.374562 
L 497.190561 -215.451519 
L 499.251569 -216.961599 
L 501.312577 -218.326483 
L 503.373585 -219.499528 
L 505.434593 -220.491532 
L 507.495601 -221.339026 
L 509.556609 -222.0478 
L 511.617617 -222.623755 
L 513.678625 -223.069141 
L 516.128816 -223.418623 
L 518.864892 -223.612575 
L 521.758462 -223.605492 
L 524.652032 -223.418399 
L 527.545602 -223.055318 
L 530.439171 -222.533152 
L 533.332741 -221.867955 
L 536.226311 -221.074908 
L 539.119881 -220.168306 
L 542.013451 -219.161553 
L 544.907021 -218.067165 
L 547.800591 -216.896777 
L 550.69416 -215.661166 
L 553.58773 -214.370261 
L 556.4813 -213.033178 
L 559.37487 -211.658247 
L 562.26844 -210.253046 
L 565.16201 -208.82444 
L 568.055579 -207.378622 
L 570.949149 -205.921156 
L 573.842719 -204.457023 
L 576.736289 -202.990664 
L 579.629859 -201.526028 
L 582.523429 -200.066612 
L 585.416998 -198.615509 
L 588.310568 -197.175443 
L 591.204138 -195.748814 
L 594.097708 -194.337729 
L 596.991278 -192.944035 
L 599.884848 -191.56935 
L 602.778418 -190.215091 
L 605.671987 -188.882496 
L 608.565557 -187.570767 
L 609.10643 -187.327789 
L 609.10643 -207.753017 
L 609.10643 -207.753017 
L 608.565557 -208.053869 
L 605.671987 -209.668937 
L 602.778418 -211.297347 
L 599.884848 -212.938762 
L 596.991278 -214.591669 
L 594.097708 -216.254378 
L 591.204138 -217.925002 
L 588.310568 -219.601424 
L 585.416998 -221.281262 
L 582.523429 -222.961838 
L 579.629859 -224.640133 
L 576.736289 -226.31275 
L 573.842719 -227.975869 
L 570.949149 -229.625201 
L 568.055579 -231.25594 
L 565.16201 -232.862718 
L 562.26844 -234.439559 
L 559.37487 -235.979828 
L 556.4813 -237.476186 
L 553.58773 -238.92055 
L 550.69416 -240.30405 
L 547.800591 -241.616988 
L 544.907021 -242.848803 
L 542.013451 -243.988042 
L 539.119881 -245.022324 
L 536.226311 -245.93832 
L 533.332741 -246.721719 
L 530.439171 -247.357218 
L 527.545602 -247.828493 
L 524.652032 -248.145186 
L 521.758462 -248.273848 
L 518.864892 -248.186658 
L 516.128816 -247.888816 
L 513.678625 -247.437174 
L 511.617617 -246.914576 
L 509.556609 -246.223505 
L 507.495601 -245.385394 
L 505.434593 -244.376044 
L 503.373585 -243.185341 
L 501.312577 -241.812747 
L 499.251569 -240.249354 
L 497.190561 -238.486274 
L 494.678286 -236.263375 
L 491.784716 -233.326518 
L 488.891146 -229.97277 
L 485.997576 -226.156304 
L 483.104006 -221.861807 
L 480.210436 -217.08195 
L 477.316867 -211.821726 
L 474.423297 -206.104489 
L 471.529727 -199.979972 
L 468.636157 -193.534059 
L 465.742587 -186.89893 
L 462.849017 -180.260005 
L 459.955447 -174.008251 
L 457.061878 -168.211887 
L 454.168308 -163.253293 
L 451.758707 -159.78626 
L 448.865138 -156.429617 
L 446.872969 -154.637559 
L 443.979399 -152.647325 
L 442.279118 -151.842832 
L 439.385548 -150.838421 
L 437.861436 -150.511825 
L 435.428701 -150.117821 
L 434.086578 -150.001975 
L 431.944468 -149.849887 
L 430.874033 -149.807992 
L 429.174618 -149.754886 
L 428.267522 -149.736883 
L 427.164928 -149.722313 
L 426.12134 -149.70891 
L 424.870337 -149.700054 
L 423.619334 -149.693566 
L 422.49945 -149.689911 
L 420.979018 -149.686723 
L 419.792165 -149.685157 
L 418.127896 -149.683887 
L 416.855889 -149.683293 
L 415.158863 -149.682833 
L 413.916092 -149.682649 
L 412.132741 -149.682497 
L 410.900118 -149.68244 
L 409.250009 -149.682393 
L 408.056664 -149.682375 
L 406.310211 -149.682359 
L 405.135878 -149.682354 
L 403.55217 -149.68235 
L 402.420718 -149.682349 
L 400.760158 -149.682347 
L 399.632011 -149.682347 
L 398.123093 -149.682346 
L 397.045408 -149.682346 
L 395.2967 -149.682346 
L 394.200835 -149.682346 
L 392.621052 -149.682346 
L 391.564956 -149.682346 
L 389.973897 -149.682346 
L 388.970735 -149.682346 
L 387.376974 -149.682346 
L 386.4469 -149.682346 
L 384.82716 -149.682346 
L 383.9857 -149.682346 
L 382.415838 -149.682346 
L 381.695905 -149.682346 
L 380.005956 -149.682346 
L 379.425763 -149.682346 
L 378.461859 -149.682346 
L 378.155346 -149.682346 
L 377.740672 -149.682346 
L 377.632718 -149.682346 
L 377.621922 -149.682346 
L 377.620843 -149.682346 
z
" style="stroke: #ff8c00; stroke-opacity: 0.2"/>
    </defs>
    <g clip-path="url(#p10adceb38c)">
     <use xlink:href="#mcc88f7fd86" x="0" y="360" style="fill: #ff8c00; fill-opacity: 0.2; stroke: #ff8c00; stroke-opacity: 0.2"/>
    </g>
   </g>
   <g id="PathCollection_2">
    <g clip-path="url(#p10adceb38c)">
     <use xlink:href="#m7b3c7e2b32" x="348.685144" y="203.331276" style="fill: #ff8c00; fill-opacity: 0.8; stroke: #000000; stroke-opacity: 0.8"/>
     <use xlink:href="#m7b3c7e2b32" x="377.620843" y="210.317654" style="fill: #ff8c00; fill-opacity: 0.8; stroke: #000000; stroke-opacity: 0.8"/>
     <use xlink:href="#m7b3c7e2b32" x="406.556541" y="217.325685" style="fill: #ff8c00; fill-opacity: 0.8; stroke: #000000; stroke-opacity: 0.8"/>
     <use xlink:href="#m7b3c7e2b32" x="435.492239" y="187.774487" style="fill: #ff8c00; fill-opacity: 0.8; stroke: #000000; stroke-opacity: 0.8"/>
     <use xlink:href="#m7b3c7e2b32" x="464.427938" y="190.209538" style="fill: #ff8c00; fill-opacity: 0.8; stroke: #000000; stroke-opacity: 0.8"/>
     <use xlink:href="#m7b3c7e2b32" x="493.363636" y="168.048161" style="fill: #ff8c00; fill-opacity: 0.8; stroke: #000000; stroke-opacity: 0.8"/>
     <use xlink:href="#m7b3c7e2b32" x="522.299335" y="130.888016" style="fill: #ff8c00; fill-opacity: 0.8; stroke: #000000; stroke-opacity: 0.8"/>
     <use xlink:href="#m7b3c7e2b32" x="551.235033" y="96.454122" style="fill: #ff8c00; fill-opacity: 0.8; stroke: #000000; stroke-opacity: 0.8"/>
     <use xlink:href="#m7b3c7e2b32" x="580.170732" y="75.333926" style="fill: #ff8c00; fill-opacity: 0.8; stroke: #000000; stroke-opacity: 0.8"/>
    </g>
   </g>
   <g id="line2d_36">
    <path d="M 377.620843 210.317654 
L 377.621922 210.317654 
L 377.632718 210.317654 
L 377.740672 210.317654 
L 378.155346 210.317654 
L 378.461859 210.317654 
L 379.425763 210.317654 
L 380.005956 210.317654 
L 381.695905 210.317654 
L 382.415838 210.317654 
L 383.9857 210.317654 
L 384.82716 210.317654 
L 386.4469 210.317654 
L 387.376974 210.317654 
L 388.970735 210.317654 
L 389.973897 210.317654 
L 391.564956 210.317654 
L 392.621052 210.317654 
L 394.200835 210.317654 
L 395.2967 210.317654 
L 397.045408 210.317654 
L 398.123093 210.317654 
L 399.632011 210.317653 
L 400.760158 210.317653 
L 402.420718 210.317652 
L 403.55217 210.317651 
L 405.135878 210.317647 
L 406.310211 210.317643 
L 408.056664 210.317633 
L 409.250009 210.31762 
L 410.900118 210.31759 
L 412.132741 210.317552 
L 413.916092 210.317457 
L 415.158863 210.317346 
L 416.855889 210.317091 
L 418.127896 210.316774 
L 419.792165 210.316085 
L 420.979018 210.315299 
L 422.49945 210.313706 
L 423.619334 210.311911 
L 424.870337 210.308963 
L 426.12134 210.304573 
L 427.164928 210.299354 
L 428.267522 210.291692 
L 429.174618 210.283198 
L 430.874033 210.259595 
L 431.944468 210.237823 
L 434.086578 210.16915 
L 435.428701 210.102565 
L 437.861436 209.908277 
L 439.385548 209.720087 
L 442.279118 209.143694 
L 443.979399 208.62779 
L 446.872969 207.32148 
L 448.865138 206.038704 
L 451.758707 203.491827 
L 454.168308 200.701205 
L 457.061878 196.535491 
L 459.955447 191.580035 
L 462.849017 186.019205 
L 465.742587 180.081673 
L 468.636157 173.995773 
L 471.529727 167.959051 
L 474.423297 162.125131 
L 477.316867 156.60334 
L 480.210436 151.464923 
L 483.104006 146.751282 
L 485.997576 142.481797 
L 488.891146 138.660263 
L 491.784716 135.279811 
L 494.678286 132.326519 
L 497.190561 130.094228 
L 499.251569 128.483269 
L 501.312577 127.062617 
L 503.373585 125.823932 
L 505.434593 124.758762 
L 507.495601 123.858643 
L 509.556609 123.115175 
L 511.617617 122.520078 
L 513.678625 122.065229 
L 516.128816 121.695908 
L 518.864892 121.48848 
L 521.758462 121.485937 
L 524.652032 121.687194 
L 527.545602 122.073701 
L 530.439171 122.627884 
L 533.332741 123.333156 
L 536.226311 124.173909 
L 539.119881 125.13551 
L 542.013451 126.204283 
L 544.907021 127.367494 
L 547.800591 128.61333 
L 550.69416 129.930875 
L 553.58773 131.310079 
L 556.4813 132.741727 
L 559.37487 134.217406 
L 562.26844 135.72946 
L 565.16201 137.270955 
L 568.055579 138.835631 
L 570.949149 140.417857 
L 573.842719 142.012588 
L 576.736289 143.615312 
L 579.629859 145.222007 
L 582.523429 146.829097 
L 585.416998 148.433402 
L 588.310568 150.032103 
L 591.204138 151.622699 
L 594.097708 153.202968 
L 596.991278 154.770939 
L 599.884848 156.324855 
L 602.778418 157.863153 
L 605.671987 159.384431 
L 608.565557 160.887432 
L 609.10643 161.166228 
" clip-path="url(#p10adceb38c)" style="fill: none; stroke: #ff8c00; stroke-width: 1.5; stroke-linecap: square"/>
   </g>
  </g>
  <g id="legend_1">
   <g id="patch_12">
    <path d="M 769.44 43.542 
L 867.528 43.542 
Q 871.368 43.542 871.368 39.702 
L 871.368 13.44 
Q 871.368 9.6 867.528 9.6 
L 769.44 9.6 
Q 765.6 9.6 765.6 13.44 
L 765.6 39.702 
Q 765.6 43.542 769.44 43.542 
z
" style="fill: #ffffff; opacity: 0.8; stroke: #cccccc; stroke-linejoin: miter"/>
   </g>
   <g id="PathCollection_3">
    <g>
     <use xlink:href="#m7b3c7e2b32" x="792.48" y="26.829" style="fill: #ff8c00; fill-opacity: 0.8; stroke: #000000; stroke-opacity: 0.8"/>
    </g>
   </g>
   <g id="text_39">
    <!-- 204 -->
    <g transform="translate(827.04 31.869) scale(0.192 -0.192)">
     <use xlink:href="#DejaVuSans-32"/>
     <use xlink:href="#DejaVuSans-30" x="63.623047"/>
     <use xlink:href="#DejaVuSans-34" x="127.246094"/>
    </g>
   </g>
  </g>
 </g>
 <defs>
  <clipPath id="p8cfdd34866">
   <rect x="90" y="43.2" width="237.272727" height="277.2"/>
  </clipPath>
  <clipPath id="p10adceb38c">
   <rect x="374.727273" y="43.2" width="237.272727" height="277.2"/>
  </clipPath>
 </defs>
</svg>
