<?xml version="1.0" encoding="utf-8" standalone="no"?>
<!DOCTYPE svg PUBLIC "-//W3C//DTD SVG 1.1//EN"
  "http://www.w3.org/Graphics/SVG/1.1/DTD/svg11.dtd">
<svg xmlns:xlink="http://www.w3.org/1999/xlink" width="720pt" height="360pt" viewBox="0 0 720 360" xmlns="http://www.w3.org/2000/svg" version="1.1">
 <metadata>
  <rdf:RDF xmlns:dc="http://purl.org/dc/elements/1.1/" xmlns:cc="http://creativecommons.org/ns#" xmlns:rdf="http://www.w3.org/1999/02/22-rdf-syntax-ns#">
   <cc:Work>
    <dc:type rdf:resource="http://purl.org/dc/dcmitype/StillImage"/>
    <dc:date>2024-11-26T15:37:56.367188</dc:date>
    <dc:format>image/svg+xml</dc:format>
    <dc:creator>
     <cc:Agent>
      <dc:title>Matplotlib v3.9.2, https://matplotlib.org/</dc:title>
     </cc:Agent>
    </dc:creator>
   </cc:Work>
  </rdf:RDF>
 </metadata>
 <defs>
  <style type="text/css">*{stroke-linejoin: round; stroke-linecap: butt}</style>
 </defs>
 <g id="figure_1">
  <g id="patch_1">
   <path d="M 0 360 
L 720 360 
L 720 0 
L 0 0 
z
" style="fill: #ffffff"/>
  </g>
  <g id="axes_1">
   <g id="patch_2">
    <path d="M 90 320.4 
L 327.272727 320.4 
L 327.272727 43.2 
L 90 43.2 
z
" style="fill: #ffffff"/>
   </g>
   <g id="matplotlib.axis_1">
    <g id="xtick_1">
     <g id="text_1">
      <!-- 0 -->
      <g style="fill: #262626" transform="translate(88.889695 340.20725) scale(0.144 -0.144)">
       <defs>
        <path id="ArialMT-30" d="M 266 2259 
Q 266 3072 433 3567 
Q 600 4063 929 4331 
Q 1259 4600 1759 4600 
Q 2128 4600 2406 4451 
Q 2684 4303 2865 4023 
Q 3047 3744 3150 3342 
Q 3253 2941 3253 2259 
Q 3253 1453 3087 958 
Q 2922 463 2592 192 
Q 2263 -78 1759 -78 
Q 1097 -78 719 397 
Q 266 969 266 2259 
z
M 844 2259 
Q 844 1131 1108 757 
Q 1372 384 1759 384 
Q 2147 384 2411 759 
Q 2675 1134 2675 2259 
Q 2675 3391 2411 3762 
Q 2147 4134 1753 4134 
Q 1366 4134 1134 3806 
Q 844 3388 844 2259 
z
" transform="scale(0.015625)"/>
       </defs>
       <use xlink:href="#ArialMT-30"/>
      </g>
     </g>
    </g>
    <g id="xtick_2">
     <g id="text_2">
      <!-- 1 -->
      <g style="fill: #262626" transform="translate(117.825393 340.20725) scale(0.144 -0.144)">
       <defs>
        <path id="ArialMT-31" d="M 2384 0 
L 1822 0 
L 1822 3584 
Q 1619 3391 1289 3197 
Q 959 3003 697 2906 
L 697 3450 
Q 1169 3672 1522 3987 
Q 1875 4303 2022 4600 
L 2384 4600 
L 2384 0 
z
" transform="scale(0.015625)"/>
       </defs>
       <use xlink:href="#ArialMT-31"/>
      </g>
     </g>
    </g>
    <g id="xtick_3">
     <g id="text_3">
      <!-- 2 -->
      <g style="fill: #262626" transform="translate(146.761092 340.20725) scale(0.144 -0.144)">
       <defs>
        <path id="ArialMT-32" d="M 3222 541 
L 3222 0 
L 194 0 
Q 188 203 259 391 
Q 375 700 629 1000 
Q 884 1300 1366 1694 
Q 2113 2306 2375 2664 
Q 2638 3022 2638 3341 
Q 2638 3675 2398 3904 
Q 2159 4134 1775 4134 
Q 1369 4134 1125 3890 
Q 881 3647 878 3216 
L 300 3275 
Q 359 3922 746 4261 
Q 1134 4600 1788 4600 
Q 2447 4600 2831 4234 
Q 3216 3869 3216 3328 
Q 3216 3053 3103 2787 
Q 2991 2522 2730 2228 
Q 2469 1934 1863 1422 
Q 1356 997 1212 845 
Q 1069 694 975 541 
L 3222 541 
z
" transform="scale(0.015625)"/>
       </defs>
       <use xlink:href="#ArialMT-32"/>
      </g>
     </g>
    </g>
    <g id="xtick_4">
     <g id="text_4">
      <!-- 3 -->
      <g style="fill: #262626" transform="translate(175.69679 340.20725) scale(0.144 -0.144)">
       <defs>
        <path id="ArialMT-33" d="M 269 1209 
L 831 1284 
Q 928 806 1161 595 
Q 1394 384 1728 384 
Q 2125 384 2398 659 
Q 2672 934 2672 1341 
Q 2672 1728 2419 1979 
Q 2166 2231 1775 2231 
Q 1616 2231 1378 2169 
L 1441 2663 
Q 1497 2656 1531 2656 
Q 1891 2656 2178 2843 
Q 2466 3031 2466 3422 
Q 2466 3731 2256 3934 
Q 2047 4138 1716 4138 
Q 1388 4138 1169 3931 
Q 950 3725 888 3313 
L 325 3413 
Q 428 3978 793 4289 
Q 1159 4600 1703 4600 
Q 2078 4600 2393 4439 
Q 2709 4278 2876 4000 
Q 3044 3722 3044 3409 
Q 3044 3113 2884 2869 
Q 2725 2625 2413 2481 
Q 2819 2388 3044 2092 
Q 3269 1797 3269 1353 
Q 3269 753 2831 336 
Q 2394 -81 1725 -81 
Q 1122 -81 723 278 
Q 325 638 269 1209 
z
" transform="scale(0.015625)"/>
       </defs>
       <use xlink:href="#ArialMT-33"/>
      </g>
     </g>
    </g>
    <g id="xtick_5">
     <g id="text_5">
      <!-- 4 -->
      <g style="fill: #262626" transform="translate(204.632489 340.20725) scale(0.144 -0.144)">
       <defs>
        <path id="ArialMT-34" d="M 2069 0 
L 2069 1097 
L 81 1097 
L 81 1613 
L 2172 4581 
L 2631 4581 
L 2631 1613 
L 3250 1613 
L 3250 1097 
L 2631 1097 
L 2631 0 
L 2069 0 
z
M 2069 1613 
L 2069 3678 
L 634 1613 
L 2069 1613 
z
" transform="scale(0.015625)"/>
       </defs>
       <use xlink:href="#ArialMT-34"/>
      </g>
     </g>
    </g>
    <g id="xtick_6">
     <g id="text_6">
      <!-- 5 -->
      <g style="fill: #262626" transform="translate(233.568187 340.20725) scale(0.144 -0.144)">
       <defs>
        <path id="ArialMT-35" d="M 266 1200 
L 856 1250 
Q 922 819 1161 601 
Q 1400 384 1738 384 
Q 2144 384 2425 690 
Q 2706 997 2706 1503 
Q 2706 1984 2436 2262 
Q 2166 2541 1728 2541 
Q 1456 2541 1237 2417 
Q 1019 2294 894 2097 
L 366 2166 
L 809 4519 
L 3088 4519 
L 3088 3981 
L 1259 3981 
L 1013 2750 
Q 1425 3038 1878 3038 
Q 2478 3038 2890 2622 
Q 3303 2206 3303 1553 
Q 3303 931 2941 478 
Q 2500 -78 1738 -78 
Q 1113 -78 717 272 
Q 322 622 266 1200 
z
" transform="scale(0.015625)"/>
       </defs>
       <use xlink:href="#ArialMT-35"/>
      </g>
     </g>
    </g>
    <g id="xtick_7">
     <g id="text_7">
      <!-- 6 -->
      <g style="fill: #262626" transform="translate(262.503886 340.20725) scale(0.144 -0.144)">
       <defs>
        <path id="ArialMT-36" d="M 3184 3459 
L 2625 3416 
Q 2550 3747 2413 3897 
Q 2184 4138 1850 4138 
Q 1581 4138 1378 3988 
Q 1113 3794 959 3422 
Q 806 3050 800 2363 
Q 1003 2672 1297 2822 
Q 1591 2972 1913 2972 
Q 2475 2972 2870 2558 
Q 3266 2144 3266 1488 
Q 3266 1056 3080 686 
Q 2894 316 2569 119 
Q 2244 -78 1831 -78 
Q 1128 -78 684 439 
Q 241 956 241 2144 
Q 241 3472 731 4075 
Q 1159 4600 1884 4600 
Q 2425 4600 2770 4297 
Q 3116 3994 3184 3459 
z
M 888 1484 
Q 888 1194 1011 928 
Q 1134 663 1356 523 
Q 1578 384 1822 384 
Q 2178 384 2434 671 
Q 2691 959 2691 1453 
Q 2691 1928 2437 2201 
Q 2184 2475 1800 2475 
Q 1419 2475 1153 2201 
Q 888 1928 888 1484 
z
" transform="scale(0.015625)"/>
       </defs>
       <use xlink:href="#ArialMT-36"/>
      </g>
     </g>
    </g>
    <g id="xtick_8">
     <g id="text_8">
      <!-- 7 -->
      <g style="fill: #262626" transform="translate(291.439584 340.20725) scale(0.144 -0.144)">
       <defs>
        <path id="ArialMT-37" d="M 303 3981 
L 303 4522 
L 3269 4522 
L 3269 4084 
Q 2831 3619 2401 2847 
Q 1972 2075 1738 1259 
Q 1569 684 1522 0 
L 944 0 
Q 953 541 1156 1306 
Q 1359 2072 1739 2783 
Q 2119 3494 2547 3981 
L 303 3981 
z
" transform="scale(0.015625)"/>
       </defs>
       <use xlink:href="#ArialMT-37"/>
      </g>
     </g>
    </g>
    <g id="xtick_9">
     <g id="text_9">
      <!-- 8 -->
      <g style="fill: #262626" transform="translate(320.375282 340.20725) scale(0.144 -0.144)">
       <defs>
        <path id="ArialMT-38" d="M 1131 2484 
Q 781 2613 612 2850 
Q 444 3088 444 3419 
Q 444 3919 803 4259 
Q 1163 4600 1759 4600 
Q 2359 4600 2725 4251 
Q 3091 3903 3091 3403 
Q 3091 3084 2923 2848 
Q 2756 2613 2416 2484 
Q 2838 2347 3058 2040 
Q 3278 1734 3278 1309 
Q 3278 722 2862 322 
Q 2447 -78 1769 -78 
Q 1091 -78 675 323 
Q 259 725 259 1325 
Q 259 1772 486 2073 
Q 713 2375 1131 2484 
z
M 1019 3438 
Q 1019 3113 1228 2906 
Q 1438 2700 1772 2700 
Q 2097 2700 2305 2904 
Q 2513 3109 2513 3406 
Q 2513 3716 2298 3927 
Q 2084 4138 1766 4138 
Q 1444 4138 1231 3931 
Q 1019 3725 1019 3438 
z
M 838 1322 
Q 838 1081 952 856 
Q 1066 631 1291 507 
Q 1516 384 1775 384 
Q 2178 384 2440 643 
Q 2703 903 2703 1303 
Q 2703 1709 2433 1975 
Q 2163 2241 1756 2241 
Q 1359 2241 1098 1978 
Q 838 1716 838 1322 
z
" transform="scale(0.015625)"/>
       </defs>
       <use xlink:href="#ArialMT-38"/>
      </g>
     </g>
    </g>
    <g id="text_10">
     <!-- Time (d) -->
     <g style="fill: #262626" transform="translate(173.266364 361.04625) scale(0.192 -0.192)">
      <defs>
       <path id="ArialMT-54" d="M 1659 0 
L 1659 4041 
L 150 4041 
L 150 4581 
L 3781 4581 
L 3781 4041 
L 2266 4041 
L 2266 0 
L 1659 0 
z
" transform="scale(0.015625)"/>
       <path id="ArialMT-69" d="M 425 3934 
L 425 4581 
L 988 4581 
L 988 3934 
L 425 3934 
z
M 425 0 
L 425 3319 
L 988 3319 
L 988 0 
L 425 0 
z
" transform="scale(0.015625)"/>
       <path id="ArialMT-6d" d="M 422 0 
L 422 3319 
L 925 3319 
L 925 2853 
Q 1081 3097 1340 3245 
Q 1600 3394 1931 3394 
Q 2300 3394 2536 3241 
Q 2772 3088 2869 2813 
Q 3263 3394 3894 3394 
Q 4388 3394 4653 3120 
Q 4919 2847 4919 2278 
L 4919 0 
L 4359 0 
L 4359 2091 
Q 4359 2428 4304 2576 
Q 4250 2725 4106 2815 
Q 3963 2906 3769 2906 
Q 3419 2906 3187 2673 
Q 2956 2441 2956 1928 
L 2956 0 
L 2394 0 
L 2394 2156 
Q 2394 2531 2256 2718 
Q 2119 2906 1806 2906 
Q 1569 2906 1367 2781 
Q 1166 2656 1075 2415 
Q 984 2175 984 1722 
L 984 0 
L 422 0 
z
" transform="scale(0.015625)"/>
       <path id="ArialMT-65" d="M 2694 1069 
L 3275 997 
Q 3138 488 2766 206 
Q 2394 -75 1816 -75 
Q 1088 -75 661 373 
Q 234 822 234 1631 
Q 234 2469 665 2931 
Q 1097 3394 1784 3394 
Q 2450 3394 2872 2941 
Q 3294 2488 3294 1666 
Q 3294 1616 3291 1516 
L 816 1516 
Q 847 969 1125 678 
Q 1403 388 1819 388 
Q 2128 388 2347 550 
Q 2566 713 2694 1069 
z
M 847 1978 
L 2700 1978 
Q 2663 2397 2488 2606 
Q 2219 2931 1791 2931 
Q 1403 2931 1139 2672 
Q 875 2413 847 1978 
z
" transform="scale(0.015625)"/>
       <path id="ArialMT-20" transform="scale(0.015625)"/>
       <path id="ArialMT-28" d="M 1497 -1347 
Q 1031 -759 709 28 
Q 388 816 388 1659 
Q 388 2403 628 3084 
Q 909 3875 1497 4659 
L 1900 4659 
Q 1522 4009 1400 3731 
Q 1209 3300 1100 2831 
Q 966 2247 966 1656 
Q 966 153 1900 -1347 
L 1497 -1347 
z
" transform="scale(0.015625)"/>
       <path id="ArialMT-64" d="M 2575 0 
L 2575 419 
Q 2259 -75 1647 -75 
Q 1250 -75 917 144 
Q 584 363 401 755 
Q 219 1147 219 1656 
Q 219 2153 384 2558 
Q 550 2963 881 3178 
Q 1213 3394 1622 3394 
Q 1922 3394 2156 3267 
Q 2391 3141 2538 2938 
L 2538 4581 
L 3097 4581 
L 3097 0 
L 2575 0 
z
M 797 1656 
Q 797 1019 1065 703 
Q 1334 388 1700 388 
Q 2069 388 2326 689 
Q 2584 991 2584 1609 
Q 2584 2291 2321 2609 
Q 2059 2928 1675 2928 
Q 1300 2928 1048 2622 
Q 797 2316 797 1656 
z
" transform="scale(0.015625)"/>
       <path id="ArialMT-29" d="M 791 -1347 
L 388 -1347 
Q 1322 153 1322 1656 
Q 1322 2244 1188 2822 
Q 1081 3291 891 3722 
Q 769 4003 388 4659 
L 791 4659 
Q 1378 3875 1659 3084 
Q 1900 2403 1900 1659 
Q 1900 816 1576 28 
Q 1253 -759 791 -1347 
z
" transform="scale(0.015625)"/>
      </defs>
      <use xlink:href="#ArialMT-54"/>
      <use xlink:href="#ArialMT-69" x="57.333984"/>
      <use xlink:href="#ArialMT-6d" x="79.550781"/>
      <use xlink:href="#ArialMT-65" x="162.851562"/>
      <use xlink:href="#ArialMT-20" x="218.466797"/>
      <use xlink:href="#ArialMT-28" x="246.25"/>
      <use xlink:href="#ArialMT-64" x="279.550781"/>
      <use xlink:href="#ArialMT-29" x="335.166016"/>
     </g>
    </g>
   </g>
   <g id="matplotlib.axis_2">
    <g id="ytick_1">
     <g id="text_11">
      <!-- 0 -->
      <g style="fill: #262626" transform="translate(72.49225 325.553625) scale(0.144 -0.144)">
       <use xlink:href="#ArialMT-30"/>
      </g>
     </g>
    </g>
    <g id="ytick_2">
     <g id="text_12">
      <!-- 1 -->
      <g style="fill: #262626" transform="translate(72.49225 291.953625) scale(0.144 -0.144)">
       <use xlink:href="#ArialMT-31"/>
      </g>
     </g>
    </g>
    <g id="ytick_3">
     <g id="text_13">
      <!-- 2 -->
      <g style="fill: #262626" transform="translate(72.49225 258.353625) scale(0.144 -0.144)">
       <use xlink:href="#ArialMT-32"/>
      </g>
     </g>
    </g>
    <g id="ytick_4">
     <g id="text_14">
      <!-- 3 -->
      <g style="fill: #262626" transform="translate(72.49225 224.753625) scale(0.144 -0.144)">
       <use xlink:href="#ArialMT-33"/>
      </g>
     </g>
    </g>
    <g id="ytick_5">
     <g id="text_15">
      <!-- 4 -->
      <g style="fill: #262626" transform="translate(72.49225 191.153625) scale(0.144 -0.144)">
       <use xlink:href="#ArialMT-34"/>
      </g>
     </g>
    </g>
    <g id="ytick_6">
     <g id="text_16">
      <!-- 5 -->
      <g style="fill: #262626" transform="translate(72.49225 157.553625) scale(0.144 -0.144)">
       <use xlink:href="#ArialMT-35"/>
      </g>
     </g>
    </g>
    <g id="ytick_7">
     <g id="text_17">
      <!-- 6 -->
      <g style="fill: #262626" transform="translate(72.49225 123.953625) scale(0.144 -0.144)">
       <use xlink:href="#ArialMT-36"/>
      </g>
     </g>
    </g>
    <g id="ytick_8">
     <g id="text_18">
      <!-- 7 -->
      <g style="fill: #262626" transform="translate(72.49225 90.353625) scale(0.144 -0.144)">
       <use xlink:href="#ArialMT-37"/>
      </g>
     </g>
    </g>
    <g id="ytick_9">
     <g id="text_19">
      <!-- 8 -->
      <g style="fill: #262626" transform="translate(72.49225 56.753625) scale(0.144 -0.144)">
       <use xlink:href="#ArialMT-38"/>
      </g>
     </g>
    </g>
    <g id="text_20">
     <!-- Log10(V) -->
     <g style="fill: #262626" transform="translate(64.45125 221.289) rotate(-90) scale(0.192 -0.192)">
      <defs>
       <path id="ArialMT-4c" d="M 469 0 
L 469 4581 
L 1075 4581 
L 1075 541 
L 3331 541 
L 3331 0 
L 469 0 
z
" transform="scale(0.015625)"/>
       <path id="ArialMT-6f" d="M 213 1659 
Q 213 2581 725 3025 
Q 1153 3394 1769 3394 
Q 2453 3394 2887 2945 
Q 3322 2497 3322 1706 
Q 3322 1066 3130 698 
Q 2938 331 2570 128 
Q 2203 -75 1769 -75 
Q 1072 -75 642 372 
Q 213 819 213 1659 
z
M 791 1659 
Q 791 1022 1069 705 
Q 1347 388 1769 388 
Q 2188 388 2466 706 
Q 2744 1025 2744 1678 
Q 2744 2294 2464 2611 
Q 2184 2928 1769 2928 
Q 1347 2928 1069 2612 
Q 791 2297 791 1659 
z
" transform="scale(0.015625)"/>
       <path id="ArialMT-67" d="M 319 -275 
L 866 -356 
Q 900 -609 1056 -725 
Q 1266 -881 1628 -881 
Q 2019 -881 2231 -725 
Q 2444 -569 2519 -288 
Q 2563 -116 2559 434 
Q 2191 0 1641 0 
Q 956 0 581 494 
Q 206 988 206 1678 
Q 206 2153 378 2554 
Q 550 2956 876 3175 
Q 1203 3394 1644 3394 
Q 2231 3394 2613 2919 
L 2613 3319 
L 3131 3319 
L 3131 450 
Q 3131 -325 2973 -648 
Q 2816 -972 2473 -1159 
Q 2131 -1347 1631 -1347 
Q 1038 -1347 672 -1080 
Q 306 -813 319 -275 
z
M 784 1719 
Q 784 1066 1043 766 
Q 1303 466 1694 466 
Q 2081 466 2343 764 
Q 2606 1063 2606 1700 
Q 2606 2309 2336 2618 
Q 2066 2928 1684 2928 
Q 1309 2928 1046 2623 
Q 784 2319 784 1719 
z
" transform="scale(0.015625)"/>
       <path id="ArialMT-56" d="M 1803 0 
L 28 4581 
L 684 4581 
L 1875 1253 
Q 2019 853 2116 503 
Q 2222 878 2363 1253 
L 3600 4581 
L 4219 4581 
L 2425 0 
L 1803 0 
z
" transform="scale(0.015625)"/>
      </defs>
      <use xlink:href="#ArialMT-4c"/>
      <use xlink:href="#ArialMT-6f" x="55.615234"/>
      <use xlink:href="#ArialMT-67" x="111.230469"/>
      <use xlink:href="#ArialMT-31" x="166.845703"/>
      <use xlink:href="#ArialMT-30" x="222.460938"/>
      <use xlink:href="#ArialMT-28" x="278.076172"/>
      <use xlink:href="#ArialMT-56" x="311.376953"/>
      <use xlink:href="#ArialMT-29" x="378.076172"/>
     </g>
    </g>
   </g>
   <g id="patch_3">
    <path d="M 90 320.4 
L 90 43.2 
" style="fill: none; stroke: #262626; stroke-width: 1.25; stroke-linejoin: miter; stroke-linecap: square"/>
   </g>
   <g id="patch_4">
    <path d="M 327.272727 320.4 
L 327.272727 43.2 
" style="fill: none; stroke: #262626; stroke-width: 1.25; stroke-linejoin: miter; stroke-linecap: square"/>
   </g>
   <g id="patch_5">
    <path d="M 90 320.4 
L 327.272727 320.4 
" style="fill: none; stroke: #262626; stroke-width: 1.25; stroke-linejoin: miter; stroke-linecap: square"/>
   </g>
   <g id="patch_6">
    <path d="M 90 43.2 
L 327.272727 43.2 
" style="fill: none; stroke: #262626; stroke-width: 1.25; stroke-linejoin: miter; stroke-linecap: square"/>
   </g>
   <g id="PolyCollection_1">
    <defs>
     <path id="m4f396e47ad" d="M 92.89357 -39.6 
L 92.89357 -39.6 
L 92.893912 -39.6 
L 92.897335 -39.6 
L 92.931567 -39.6 
L 93.056236 -39.6 
L 93.147836 -39.6 
L 93.461792 -39.6 
L 93.692457 -39.6 
L 94.460395 -39.6 
L 94.897937 -39.6 
L 96.187095 -44.907548 
L 96.777187 -48.162985 
L 98.206629 -55.518601 
L 98.923755 -59.047021 
L 100.400042 -66.244441 
L 101.226161 -70.128744 
L 102.742923 -77.216174 
L 103.657792 -81.466315 
L 105.195449 -88.643573 
L 106.181771 -93.226719 
L 107.732756 -100.465356 
L 108.77484 -105.309973 
L 110.332156 -112.577412 
L 111.416847 -117.621982 
L 113.141625 -125.68482 
L 114.21349 -130.656511 
L 115.712079 -137.542746 
L 116.832874 -142.490431 
L 118.475857 -149.515595 
L 119.592538 -154.308277 
L 121.113846 -160.813982 
L 122.260911 -165.714869 
L 123.904503 -172.722588 
L 125.04175 -177.562467 
L 126.577608 -184.08186 
L 127.744874 -188.995375 
L 129.407408 -195.949351 
L 130.578259 -200.772996 
L 132.181544 -207.289231 
L 133.388975 -212.042896 
L 135.121336 -218.598125 
L 136.320809 -222.873084 
L 137.965797 -228.23004 
L 139.20723 -231.857129 
L 141.007843 -236.303066 
L 142.222877 -238.741487 
L 143.707884 -240.090961 
L 144.884525 -240.795245 
L 146.291153 -241.296447 
L 147.697782 -241.526041 
L 149.10441 -241.502376 
L 150.511038 -241.346433 
L 151.917667 -241.084944 
L 153.324295 -240.73815 
L 154.730924 -240.321641 
L 156.137552 -239.847621 
L 157.544181 -239.325782 
L 158.950809 -238.76392 
L 160.357437 -238.168372 
L 161.764066 -237.544337 
L 163.170694 -236.841706 
L 164.577323 -236.10009 
L 165.983951 -235.339451 
L 167.39058 -234.562434 
L 168.828422 -233.75348 
L 170.380198 -232.866011 
L 173.273768 -231.177293 
L 175.167896 -230.055041 
L 178.061466 -228.314486 
L 180.387837 -226.897835 
L 183.281407 -225.117574 
L 186.174977 -223.31703 
L 189.068547 -221.494935 
L 191.962117 -219.415346 
L 194.855686 -217.093674 
L 197.749256 -214.731382 
L 200.642826 -212.315006 
L 203.536396 -209.824567 
L 206.429966 -207.231498 
L 209.323536 -204.495546 
L 212.217105 -201.559903 
L 215.110675 -198.343152 
L 218.004245 -194.725231 
L 220.897815 -190.521828 
L 223.791385 -185.178857 
L 226.684955 -178.260017 
L 229.578524 -169.235388 
L 232.472094 -157.418148 
L 235.365664 -140.782838 
L 236.808575 -125.855196 
L 238.251485 -103.349617 
L 239.349846 -74.883348 
L 240.58291 -42.225458 
L 241.815974 -39.6 
L 243.049038 -39.6 
L 244.282102 -39.6 
L 245.515166 -39.6 
L 246.74823 -39.6 
L 247.981294 -39.6 
L 249.214358 -39.6 
L 250.2935 -39.6 
L 252.601916 -39.6 
L 254.270283 -39.6 
L 257.163853 -39.6 
L 259.383699 -39.6 
L 262.277269 -39.6 
L 265.170839 -39.6 
L 268.064409 -39.6 
L 270.957978 -39.6 
L 273.851548 -39.6 
L 276.745118 -39.6 
L 279.638688 -39.6 
L 282.532258 -39.6 
L 285.425828 -39.6 
L 288.319397 -39.6 
L 291.212967 -39.6 
L 294.106537 -39.6 
L 297.000107 -39.6 
L 299.893677 -39.6 
L 302.787247 -39.6 
L 305.680816 -39.6 
L 308.574386 -39.6 
L 311.467956 -39.6 
L 314.361526 -39.6 
L 317.255096 -39.6 
L 320.148666 -39.6 
L 323.042236 -39.6 
L 324.379157 -39.6 
L 324.379157 -39.6 
L 324.379157 -39.6 
L 323.042236 -39.6 
L 320.148666 -39.6 
L 317.255096 -39.6 
L 314.361526 -39.6 
L 311.467956 -39.6 
L 308.574386 -39.6 
L 305.680816 -39.6 
L 302.787247 -39.6 
L 299.893677 -39.6 
L 297.000107 -39.6 
L 294.106537 -39.6 
L 291.212967 -39.6 
L 288.319397 -39.6 
L 285.425828 -39.6 
L 282.532258 -39.6 
L 279.638688 -39.6 
L 276.745118 -39.6 
L 273.851548 -39.6 
L 270.957978 -39.6 
L 268.064409 -39.6 
L 265.170839 -39.6 
L 262.277269 -39.6 
L 259.383699 -39.6 
L 257.163853 -39.6 
L 254.270283 -39.6 
L 252.601916 -39.6 
L 250.2935 -43.824764 
L 249.214358 -51.066169 
L 247.981294 -59.523751 
L 246.74823 -68.086266 
L 245.515166 -76.70567 
L 244.282102 -85.279727 
L 243.049038 -93.791398 
L 241.815974 -102.197737 
L 240.58291 -110.443191 
L 239.349846 -118.564677 
L 238.251485 -130.596196 
L 236.808575 -145.399872 
L 235.365664 -156.963948 
L 232.472094 -174.980325 
L 229.578524 -185.662137 
L 226.684955 -192.48146 
L 223.791385 -197.462684 
L 220.897815 -201.456575 
L 218.004245 -204.773737 
L 215.110675 -207.629639 
L 212.217105 -210.156466 
L 209.323536 -212.441546 
L 206.429966 -214.54588 
L 203.536396 -216.513854 
L 200.642826 -218.378677 
L 197.749256 -220.165576 
L 194.855686 -222.04719 
L 191.962117 -224.094149 
L 189.068547 -226.108298 
L 186.174977 -228.095774 
L 183.281407 -230.059383 
L 180.387837 -231.999017 
L 178.061466 -233.572924 
L 175.167896 -235.699512 
L 173.273768 -237.063456 
L 170.380198 -239.098901 
L 168.828422 -240.162479 
L 167.39058 -241.127216 
L 165.983951 -242.043453 
L 164.577323 -242.931926 
L 163.170694 -243.789315 
L 161.764066 -244.610248 
L 160.357437 -245.388363 
L 158.950809 -246.11578 
L 157.544181 -246.783353 
L 156.137552 -247.379797 
L 154.730924 -247.890928 
L 153.324295 -248.28939 
L 151.917667 -248.551058 
L 150.511038 -248.646049 
L 149.10441 -248.530843 
L 147.697782 -248.170311 
L 146.291153 -247.434377 
L 144.884525 -246.326649 
L 143.707884 -244.936087 
L 142.222877 -243.633039 
L 141.007843 -242.700724 
L 139.20723 -240.595222 
L 137.965797 -238.55566 
L 136.320809 -234.965272 
L 135.121336 -231.713638 
L 133.388975 -226.087874 
L 132.181544 -221.627493 
L 130.578259 -215.134632 
L 129.407408 -210.109503 
L 127.744874 -202.643846 
L 126.577608 -197.278533 
L 125.04175 -190.076395 
L 123.904503 -184.70435 
L 122.260911 -176.845492 
L 121.113846 -171.362076 
L 119.592538 -164.042679 
L 118.475857 -158.68199 
L 116.832874 -150.740695 
L 115.712079 -145.349838 
L 114.21349 -138.110028 
L 113.141625 -133.193361 
L 111.416847 -125.480369 
L 110.332156 -120.623524 
L 108.77484 -113.66529 
L 107.732756 -109.001181 
L 106.181771 -102.069684 
L 105.195449 -97.657522 
L 103.657792 -90.784037 
L 102.742923 -86.692529 
L 101.226161 -79.904998 
L 100.400042 -76.196927 
L 98.923755 -69.527931 
L 98.206629 -66.190932 
L 96.777187 -59.249486 
L 96.187095 -55.787397 
L 94.897937 -46.709282 
L 94.460395 -43.17979 
L 93.692457 -39.6 
L 93.461792 -39.6 
L 93.147836 -39.6 
L 93.056236 -39.6 
L 92.931567 -39.6 
L 92.897335 -39.6 
L 92.893912 -39.6 
L 92.89357 -39.6 
z
" style="stroke: #8b4513; stroke-opacity: 0.2"/>
    </defs>
    <g clip-path="url(#p177fecc147)">
     <use xlink:href="#m4f396e47ad" x="0" y="360" style="fill: #8b4513; fill-opacity: 0.2; stroke: #8b4513; stroke-opacity: 0.2"/>
    </g>
   </g>
   <g id="PathCollection_1">
    <defs>
     <path id="mb75f111bd9" d="M 0 4.330127 
C 1.148363 4.330127 2.249847 3.873878 3.061862 3.061862 
C 3.873878 2.249847 4.330127 1.148363 4.330127 0 
C 4.330127 -1.148363 3.873878 -2.249847 3.061862 -3.061862 
C 2.249847 -3.873878 1.148363 -4.330127 0 -4.330127 
C -1.148363 -4.330127 -2.249847 -3.873878 -3.061862 -3.061862 
C -3.873878 -2.249847 -4.330127 -1.148363 -4.330127 0 
C -4.330127 1.148363 -3.873878 2.249847 -3.061862 3.061862 
C -2.249847 3.873878 -1.148363 4.330127 0 4.330127 
z
" style="stroke: #8b4513; stroke-opacity: 0.8"/>
    </defs>
    <g clip-path="url(#p177fecc147)">
     <use xlink:href="#mb75f111bd9" x="92.89357" y="320.4" style="fill: #8b4513; fill-opacity: 0.8; stroke: #8b4513; stroke-opacity: 0.8"/>
     <use xlink:href="#mb75f111bd9" x="121.829268" y="191.915937" style="fill: #8b4513; fill-opacity: 0.8; stroke: #8b4513; stroke-opacity: 0.8"/>
     <use xlink:href="#mb75f111bd9" x="150.764967" y="126.942083" style="fill: #8b4513; fill-opacity: 0.8; stroke: #8b4513; stroke-opacity: 0.8"/>
     <use xlink:href="#mb75f111bd9" x="179.700665" y="109.928387" style="fill: #8b4513; fill-opacity: 0.8; stroke: #8b4513; stroke-opacity: 0.8"/>
     <use xlink:href="#mb75f111bd9" x="208.636364" y="160.004952" style="fill: #8b4513; fill-opacity: 0.8; stroke: #8b4513; stroke-opacity: 0.8"/>
     <use xlink:href="#mb75f111bd9" x="237.572062" y="230.617512" style="fill: #8b4513; fill-opacity: 0.8; stroke: #8b4513; stroke-opacity: 0.8"/>
     <use xlink:href="#mb75f111bd9" x="266.507761" y="320.4" style="fill: #8b4513; fill-opacity: 0.8; stroke: #8b4513; stroke-opacity: 0.8"/>
     <use xlink:href="#mb75f111bd9" x="295.443459" y="320.4" style="fill: #8b4513; fill-opacity: 0.8; stroke: #8b4513; stroke-opacity: 0.8"/>
    </g>
   </g>
   <g id="line2d_1">
    <path d="M 92.89357 320.4 
L 94.897937 320.4 
L 96.777187 309.9443 
L 100.400042 292.111913 
L 127.744874 162.53435 
L 130.578259 149.992656 
L 133.388975 138.734307 
L 135.121336 132.779771 
L 136.320809 129.226954 
L 137.965797 125.217517 
L 139.20723 122.846189 
L 141.007843 120.336127 
L 142.222877 119.164956 
L 143.707884 118.19079 
L 144.884525 117.702302 
L 146.291153 117.371978 
L 147.697782 117.257772 
L 149.10441 117.311464 
L 151.917667 117.789061 
L 154.730924 118.613461 
L 157.544181 119.671799 
L 161.764066 121.549805 
L 167.39058 124.388685 
L 175.167896 128.653234 
L 186.174977 135.029215 
L 194.855686 140.299408 
L 200.642826 144.028305 
L 206.429966 148.088349 
L 209.323536 150.316452 
L 212.217105 152.736867 
L 215.110675 155.416472 
L 218.004245 158.451669 
L 220.897815 161.989212 
L 223.791385 166.269024 
L 226.684955 171.720865 
L 229.578524 179.205842 
L 232.472094 190.639429 
L 235.365664 210.111451 
L 236.808575 224.209879 
L 239.349846 254.034205 
L 244.282102 316.650107 
L 245.515166 320.4 
L 324.379157 320.4 
L 324.379157 320.4 
" clip-path="url(#p177fecc147)" style="fill: none; stroke: #8b4513; stroke-width: 1.5; stroke-linecap: round"/>
   </g>
  </g>
  <g id="axes_2">
   <g id="patch_7">
    <path d="M 374.727273 320.4 
L 612 320.4 
L 612 43.2 
L 374.727273 43.2 
z
" style="fill: #ffffff"/>
   </g>
   <g id="matplotlib.axis_3">
    <g id="xtick_10">
     <g id="text_21">
      <!-- 0 -->
      <g style="fill: #262626" transform="translate(373.616968 340.20725) scale(0.144 -0.144)">
       <use xlink:href="#ArialMT-30"/>
      </g>
     </g>
    </g>
    <g id="xtick_11">
     <g id="text_22">
      <!-- 1 -->
      <g style="fill: #262626" transform="translate(402.552666 340.20725) scale(0.144 -0.144)">
       <use xlink:href="#ArialMT-31"/>
      </g>
     </g>
    </g>
    <g id="xtick_12">
     <g id="text_23">
      <!-- 2 -->
      <g style="fill: #262626" transform="translate(431.488364 340.20725) scale(0.144 -0.144)">
       <use xlink:href="#ArialMT-32"/>
      </g>
     </g>
    </g>
    <g id="xtick_13">
     <g id="text_24">
      <!-- 3 -->
      <g style="fill: #262626" transform="translate(460.424063 340.20725) scale(0.144 -0.144)">
       <use xlink:href="#ArialMT-33"/>
      </g>
     </g>
    </g>
    <g id="xtick_14">
     <g id="text_25">
      <!-- 4 -->
      <g style="fill: #262626" transform="translate(489.359761 340.20725) scale(0.144 -0.144)">
       <use xlink:href="#ArialMT-34"/>
      </g>
     </g>
    </g>
    <g id="xtick_15">
     <g id="text_26">
      <!-- 5 -->
      <g style="fill: #262626" transform="translate(518.29546 340.20725) scale(0.144 -0.144)">
       <use xlink:href="#ArialMT-35"/>
      </g>
     </g>
    </g>
    <g id="xtick_16">
     <g id="text_27">
      <!-- 6 -->
      <g style="fill: #262626" transform="translate(547.231158 340.20725) scale(0.144 -0.144)">
       <use xlink:href="#ArialMT-36"/>
      </g>
     </g>
    </g>
    <g id="xtick_17">
     <g id="text_28">
      <!-- 7 -->
      <g style="fill: #262626" transform="translate(576.166857 340.20725) scale(0.144 -0.144)">
       <use xlink:href="#ArialMT-37"/>
      </g>
     </g>
    </g>
    <g id="xtick_18">
     <g id="text_29">
      <!-- 8 -->
      <g style="fill: #262626" transform="translate(605.102555 340.20725) scale(0.144 -0.144)">
       <use xlink:href="#ArialMT-38"/>
      </g>
     </g>
    </g>
    <g id="text_30">
     <!-- Time (d) -->
     <g style="fill: #262626" transform="translate(457.993636 361.04625) scale(0.192 -0.192)">
      <use xlink:href="#ArialMT-54"/>
      <use xlink:href="#ArialMT-69" x="57.333984"/>
      <use xlink:href="#ArialMT-6d" x="79.550781"/>
      <use xlink:href="#ArialMT-65" x="162.851562"/>
      <use xlink:href="#ArialMT-20" x="218.466797"/>
      <use xlink:href="#ArialMT-28" x="246.25"/>
      <use xlink:href="#ArialMT-64" x="279.550781"/>
      <use xlink:href="#ArialMT-29" x="335.166016"/>
     </g>
    </g>
   </g>
   <g id="matplotlib.axis_4">
    <g id="ytick_10">
     <g id="text_31">
      <!-- 4.5 -->
      <g style="fill: #262626" transform="translate(345.211273 325.553625) scale(0.144 -0.144)">
       <defs>
        <path id="ArialMT-2e" d="M 581 0 
L 581 641 
L 1222 641 
L 1222 0 
L 581 0 
z
" transform="scale(0.015625)"/>
       </defs>
       <use xlink:href="#ArialMT-34"/>
       <use xlink:href="#ArialMT-2e" x="55.615234"/>
       <use xlink:href="#ArialMT-35" x="83.398438"/>
      </g>
     </g>
    </g>
    <g id="ytick_11">
     <g id="text_32">
      <!-- 5.0 -->
      <g style="fill: #262626" transform="translate(345.211273 282.907471) scale(0.144 -0.144)">
       <use xlink:href="#ArialMT-35"/>
       <use xlink:href="#ArialMT-2e" x="55.615234"/>
       <use xlink:href="#ArialMT-30" x="83.398438"/>
      </g>
     </g>
    </g>
    <g id="ytick_12">
     <g id="text_33">
      <!-- 5.5 -->
      <g style="fill: #262626" transform="translate(345.211273 240.261317) scale(0.144 -0.144)">
       <use xlink:href="#ArialMT-35"/>
       <use xlink:href="#ArialMT-2e" x="55.615234"/>
       <use xlink:href="#ArialMT-35" x="83.398438"/>
      </g>
     </g>
    </g>
    <g id="ytick_13">
     <g id="text_34">
      <!-- 6.0 -->
      <g style="fill: #262626" transform="translate(345.211273 197.615163) scale(0.144 -0.144)">
       <use xlink:href="#ArialMT-36"/>
       <use xlink:href="#ArialMT-2e" x="55.615234"/>
       <use xlink:href="#ArialMT-30" x="83.398438"/>
      </g>
     </g>
    </g>
    <g id="ytick_14">
     <g id="text_35">
      <!-- 6.5 -->
      <g style="fill: #262626" transform="translate(345.211273 154.96901) scale(0.144 -0.144)">
       <use xlink:href="#ArialMT-36"/>
       <use xlink:href="#ArialMT-2e" x="55.615234"/>
       <use xlink:href="#ArialMT-35" x="83.398438"/>
      </g>
     </g>
    </g>
    <g id="ytick_15">
     <g id="text_36">
      <!-- 7.0 -->
      <g style="fill: #262626" transform="translate(345.211273 112.322856) scale(0.144 -0.144)">
       <use xlink:href="#ArialMT-37"/>
       <use xlink:href="#ArialMT-2e" x="55.615234"/>
       <use xlink:href="#ArialMT-30" x="83.398438"/>
      </g>
     </g>
    </g>
    <g id="ytick_16">
     <g id="text_37">
      <!-- 7.5 -->
      <g style="fill: #262626" transform="translate(345.211273 69.676702) scale(0.144 -0.144)">
       <use xlink:href="#ArialMT-37"/>
       <use xlink:href="#ArialMT-2e" x="55.615234"/>
       <use xlink:href="#ArialMT-35" x="83.398438"/>
      </g>
     </g>
    </g>
    <g id="text_38">
     <!-- Log10(CD8TE) -->
     <g style="fill: #262626" transform="translate(337.170273 246.357) rotate(-90) scale(0.192 -0.192)">
      <defs>
       <path id="ArialMT-43" d="M 3763 1606 
L 4369 1453 
Q 4178 706 3683 314 
Q 3188 -78 2472 -78 
Q 1731 -78 1267 223 
Q 803 525 561 1097 
Q 319 1669 319 2325 
Q 319 3041 592 3573 
Q 866 4106 1370 4382 
Q 1875 4659 2481 4659 
Q 3169 4659 3637 4309 
Q 4106 3959 4291 3325 
L 3694 3184 
Q 3534 3684 3231 3912 
Q 2928 4141 2469 4141 
Q 1941 4141 1586 3887 
Q 1231 3634 1087 3207 
Q 944 2781 944 2328 
Q 944 1744 1114 1308 
Q 1284 872 1643 656 
Q 2003 441 2422 441 
Q 2931 441 3284 734 
Q 3638 1028 3763 1606 
z
" transform="scale(0.015625)"/>
       <path id="ArialMT-44" d="M 494 0 
L 494 4581 
L 2072 4581 
Q 2606 4581 2888 4516 
Q 3281 4425 3559 4188 
Q 3922 3881 4101 3404 
Q 4281 2928 4281 2316 
Q 4281 1794 4159 1391 
Q 4038 988 3847 723 
Q 3656 459 3429 307 
Q 3203 156 2883 78 
Q 2563 0 2147 0 
L 494 0 
z
M 1100 541 
L 2078 541 
Q 2531 541 2789 625 
Q 3047 709 3200 863 
Q 3416 1078 3536 1442 
Q 3656 1806 3656 2325 
Q 3656 3044 3420 3430 
Q 3184 3816 2847 3947 
Q 2603 4041 2063 4041 
L 1100 4041 
L 1100 541 
z
" transform="scale(0.015625)"/>
       <path id="ArialMT-45" d="M 506 0 
L 506 4581 
L 3819 4581 
L 3819 4041 
L 1113 4041 
L 1113 2638 
L 3647 2638 
L 3647 2100 
L 1113 2100 
L 1113 541 
L 3925 541 
L 3925 0 
L 506 0 
z
" transform="scale(0.015625)"/>
      </defs>
      <use xlink:href="#ArialMT-4c"/>
      <use xlink:href="#ArialMT-6f" x="55.615234"/>
      <use xlink:href="#ArialMT-67" x="111.230469"/>
      <use xlink:href="#ArialMT-31" x="166.845703"/>
      <use xlink:href="#ArialMT-30" x="222.460938"/>
      <use xlink:href="#ArialMT-28" x="278.076172"/>
      <use xlink:href="#ArialMT-43" x="311.376953"/>
      <use xlink:href="#ArialMT-44" x="383.59375"/>
      <use xlink:href="#ArialMT-38" x="455.810547"/>
      <use xlink:href="#ArialMT-54" x="511.425781"/>
      <use xlink:href="#ArialMT-45" x="572.509766"/>
      <use xlink:href="#ArialMT-29" x="639.208984"/>
     </g>
    </g>
   </g>
   <g id="patch_8">
    <path d="M 374.727273 320.4 
L 374.727273 43.2 
" style="fill: none; stroke: #262626; stroke-width: 1.25; stroke-linejoin: miter; stroke-linecap: square"/>
   </g>
   <g id="patch_9">
    <path d="M 612 320.4 
L 612 43.2 
" style="fill: none; stroke: #262626; stroke-width: 1.25; stroke-linejoin: miter; stroke-linecap: square"/>
   </g>
   <g id="patch_10">
    <path d="M 374.727273 320.4 
L 612 320.4 
" style="fill: none; stroke: #262626; stroke-width: 1.25; stroke-linejoin: miter; stroke-linecap: square"/>
   </g>
   <g id="patch_11">
    <path d="M 374.727273 43.2 
L 612 43.2 
" style="fill: none; stroke: #262626; stroke-width: 1.25; stroke-linejoin: miter; stroke-linecap: square"/>
   </g>
   <g id="PolyCollection_2">
    <defs>
     <path id="mf01e8569c1" d="M 377.620843 -162.383692 
L 377.620843 -162.383692 
L 377.621185 -162.383692 
L 377.624608 -162.383692 
L 377.65884 -162.383692 
L 377.783509 -162.383692 
L 377.875109 -162.383692 
L 378.189064 -162.383692 
L 378.41973 -162.383692 
L 379.187667 -162.383692 
L 379.62521 -162.383692 
L 380.914368 -162.383692 
L 381.50446 -162.383692 
L 382.933902 -162.383692 
L 383.651027 -162.383692 
L 385.127315 -162.383692 
L 385.953434 -162.383692 
L 387.470195 -162.383692 
L 388.385065 -162.383692 
L 389.922722 -162.383692 
L 390.909044 -162.383692 
L 392.460029 -162.383692 
L 393.502113 -162.383692 
L 395.059428 -162.383692 
L 396.14412 -162.383692 
L 397.868898 -162.383692 
L 398.940763 -162.383692 
L 400.439352 -162.383692 
L 401.560147 -162.383692 
L 403.203129 -162.383692 
L 404.319811 -162.383692 
L 405.841119 -162.383692 
L 406.988184 -162.383693 
L 408.631776 -162.383693 
L 409.769023 -162.383693 
L 411.304881 -162.383694 
L 412.472147 -162.383695 
L 414.134681 -162.383697 
L 415.305532 -162.3837 
L 416.908817 -162.383705 
L 418.116248 -162.383711 
L 419.848609 -162.383725 
L 421.048082 -162.383739 
L 422.693069 -162.383771 
L 423.934502 -162.383807 
L 425.735115 -162.383891 
L 426.950149 -162.38398 
L 428.435157 -162.384153 
L 429.611797 -162.384335 
L 431.018426 -162.384677 
L 432.425054 -162.385164 
L 433.831683 -162.385934 
L 435.238311 -162.387052 
L 436.64494 -162.388703 
L 438.051568 -162.391145 
L 439.458196 -162.394886 
L 440.864825 -162.400386 
L 442.271453 -162.40839 
L 443.678082 -162.419808 
L 445.08471 -162.435971 
L 446.491339 -162.458603 
L 447.897967 -162.489772 
L 449.304595 -162.532267 
L 450.711224 -162.593236 
L 452.117852 -162.675294 
L 453.555695 -162.786015 
L 455.107471 -162.943686 
L 458.001041 -163.389632 
L 459.895169 -163.828343 
L 462.788739 -164.774184 
L 465.11511 -165.863091 
L 468.00868 -167.695879 
L 470.90225 -170.119747 
L 473.795819 -173.173743 
L 476.689389 -176.833182 
L 479.582959 -181.018792 
L 482.476529 -185.610321 
L 485.370099 -190.466783 
L 488.263669 -195.446303 
L 491.157238 -200.420712 
L 494.050808 -205.283448 
L 496.944378 -209.951792 
L 499.837948 -214.365454 
L 502.731518 -218.483356 
L 505.625088 -222.252435 
L 508.518658 -225.619187 
L 511.412227 -228.637268 
L 514.305797 -231.309082 
L 517.199367 -233.514245 
L 520.092937 -235.380011 
L 521.535847 -236.200215 
L 522.978758 -236.947161 
L 524.077119 -237.466069 
L 525.310183 -238.003621 
L 526.543247 -238.492133 
L 527.776311 -238.932729 
L 529.009375 -239.32654 
L 530.242439 -239.674698 
L 531.475503 -239.978335 
L 532.708567 -240.238459 
L 533.941631 -240.455559 
L 535.020772 -240.616049 
L 537.329189 -240.842755 
L 538.997556 -240.927391 
L 541.891126 -240.918846 
L 544.110972 -240.783094 
L 547.004542 -240.449018 
L 549.898111 -239.949803 
L 552.791681 -239.295856 
L 555.685251 -238.501503 
L 558.578821 -237.58031 
L 561.472391 -236.467178 
L 564.365961 -235.1536 
L 567.25953 -233.527385 
L 570.1531 -231.749895 
L 573.04667 -229.886023 
L 575.94024 -227.946322 
L 578.83381 -225.941096 
L 581.72738 -223.880407 
L 584.62095 -221.774075 
L 587.514519 -219.631677 
L 590.408089 -217.462534 
L 593.301659 -215.275702 
L 596.195229 -213.079957 
L 599.088799 -210.883774 
L 601.982369 -208.695303 
L 604.875938 -206.522345 
L 607.769508 -204.3712 
L 609.10643 -203.385221 
L 609.10643 -222.079043 
L 609.10643 -222.079043 
L 607.769508 -222.909322 
L 604.875938 -224.707145 
L 601.982369 -226.502907 
L 599.088799 -228.292331 
L 596.195229 -230.070815 
L 593.301659 -231.833424 
L 590.408089 -233.574872 
L 587.514519 -235.289504 
L 584.62095 -237.15896 
L 581.72738 -239.046877 
L 578.83381 -240.874883 
L 575.94024 -242.634717 
L 573.04667 -244.317806 
L 570.1531 -245.915259 
L 567.25953 -247.417853 
L 564.365961 -248.816019 
L 561.472391 -250.099834 
L 558.578821 -251.259002 
L 555.685251 -252.282842 
L 552.791681 -253.160268 
L 549.898111 -253.991637 
L 547.004542 -254.735475 
L 544.110972 -255.393016 
L 541.891126 -255.887087 
L 538.997556 -256.344323 
L 537.329189 -256.51464 
L 535.020772 -256.617649 
L 533.941631 -256.612375 
L 532.708567 -256.56631 
L 531.475503 -256.475993 
L 530.242439 -256.339505 
L 529.009375 -256.151784 
L 527.776311 -255.912552 
L 526.543247 -255.623994 
L 525.310183 -255.284928 
L 524.077119 -254.892157 
L 522.978758 -254.495265 
L 521.535847 -253.898847 
L 520.092937 -253.217807 
L 517.199367 -251.628741 
L 514.305797 -249.696023 
L 511.412227 -247.402474 
L 508.518658 -244.731609 
L 505.625088 -241.668319 
L 502.731518 -238.199845 
L 499.837948 -234.317184 
L 496.944378 -230.017072 
L 494.050808 -225.304735 
L 491.157238 -220.197615 
L 488.263669 -214.730236 
L 485.370099 -208.96015 
L 482.476529 -202.974478 
L 479.582959 -196.895604 
L 476.689389 -190.883262 
L 473.795819 -185.128865 
L 470.90225 -179.837876 
L 468.00868 -175.199305 
L 465.11511 -171.338155 
L 462.788739 -168.86696 
L 459.895169 -166.492969 
L 458.001041 -165.365279 
L 455.107471 -164.100145 
L 453.555695 -163.636026 
L 452.117852 -163.323744 
L 450.711224 -163.058415 
L 449.304595 -162.870919 
L 447.897967 -162.73718 
L 446.491339 -162.629306 
L 445.08471 -162.556432 
L 443.678082 -162.500863 
L 442.271453 -162.464139 
L 440.864825 -162.436778 
L 439.458196 -162.419275 
L 438.051568 -162.406987 
L 436.64494 -162.398645 
L 435.238311 -162.393371 
L 433.831683 -162.389908 
L 432.425054 -162.387691 
L 431.018426 -162.386226 
L 429.611797 -162.38529 
L 428.435157 -162.384767 
L 426.950149 -162.384356 
L 425.735115 -162.38413 
L 423.934502 -162.383936 
L 422.693069 -162.383849 
L 421.048082 -162.383783 
L 419.848609 -162.383752 
L 418.116248 -162.383725 
L 416.908817 -162.383714 
L 415.305532 -162.383704 
L 414.134681 -162.3837 
L 412.472147 -162.383697 
L 411.304881 -162.383695 
L 409.769023 -162.383694 
L 408.631776 -162.383693 
L 406.988184 -162.383693 
L 405.841119 -162.383693 
L 404.319811 -162.383692 
L 403.203129 -162.383692 
L 401.560147 -162.383692 
L 400.439352 -162.383692 
L 398.940763 -162.383692 
L 397.868898 -162.383692 
L 396.14412 -162.383692 
L 395.059428 -162.383692 
L 393.502113 -162.383692 
L 392.460029 -162.383692 
L 390.909044 -162.383692 
L 389.922722 -162.383692 
L 388.385065 -162.383692 
L 387.470195 -162.383692 
L 385.953434 -162.383692 
L 385.127315 -162.383692 
L 383.651027 -162.383692 
L 382.933902 -162.383692 
L 381.50446 -162.383692 
L 380.914368 -162.383692 
L 379.62521 -162.383692 
L 379.187667 -162.383692 
L 378.41973 -162.383692 
L 378.189064 -162.383692 
L 377.875109 -162.383692 
L 377.783509 -162.383692 
L 377.65884 -162.383692 
L 377.624608 -162.383692 
L 377.621185 -162.383692 
L 377.620843 -162.383692 
z
" style="stroke: #8b4513; stroke-opacity: 0.2"/>
    </defs>
    <g clip-path="url(#pe3701750b5)">
     <use xlink:href="#mf01e8569c1" x="0" y="360" style="fill: #8b4513; fill-opacity: 0.2; stroke: #8b4513; stroke-opacity: 0.2"/>
    </g>
   </g>
   <g id="PathCollection_2">
    <g clip-path="url(#pe3701750b5)">
     <use xlink:href="#mb75f111bd9" x="348.685144" y="187.292667" style="fill: #8b4513; fill-opacity: 0.8; stroke: #8b4513; stroke-opacity: 0.8"/>
     <use xlink:href="#mb75f111bd9" x="377.620843" y="197.616308" style="fill: #8b4513; fill-opacity: 0.8; stroke: #8b4513; stroke-opacity: 0.8"/>
     <use xlink:href="#mb75f111bd9" x="406.556541" y="184.387561" style="fill: #8b4513; fill-opacity: 0.8; stroke: #8b4513; stroke-opacity: 0.8"/>
     <use xlink:href="#mb75f111bd9" x="435.492239" y="193.110461" style="fill: #8b4513; fill-opacity: 0.8; stroke: #8b4513; stroke-opacity: 0.8"/>
     <use xlink:href="#mb75f111bd9" x="464.427938" y="150.23223" style="fill: #8b4513; fill-opacity: 0.8; stroke: #8b4513; stroke-opacity: 0.8"/>
     <use xlink:href="#mb75f111bd9" x="493.363636" y="119.558957" style="fill: #8b4513; fill-opacity: 0.8; stroke: #8b4513; stroke-opacity: 0.8"/>
     <use xlink:href="#mb75f111bd9" x="522.299335" y="125.022805" style="fill: #8b4513; fill-opacity: 0.8; stroke: #8b4513; stroke-opacity: 0.8"/>
     <use xlink:href="#mb75f111bd9" x="551.235033" y="132.332602" style="fill: #8b4513; fill-opacity: 0.8; stroke: #8b4513; stroke-opacity: 0.8"/>
     <use xlink:href="#mb75f111bd9" x="580.170732" y="123.420878" style="fill: #8b4513; fill-opacity: 0.8; stroke: #8b4513; stroke-opacity: 0.8"/>
    </g>
   </g>
   <g id="line2d_2">
    <path d="M 377.620843 197.616308 
L 443.678082 197.519038 
L 447.897967 197.326295 
L 450.711224 197.052019 
L 453.555695 196.566575 
L 455.107471 196.175754 
L 458.001041 195.117933 
L 459.895169 194.143109 
L 462.788739 192.11341 
L 465.11511 189.951788 
L 468.00868 186.554529 
L 470.90225 182.399567 
L 473.795819 177.588691 
L 476.689389 172.282724 
L 491.157238 144.426686 
L 494.050808 139.478486 
L 496.944378 134.897247 
L 499.837948 130.706467 
L 502.731518 126.916343 
L 505.625088 123.527604 
L 508.518658 120.534403 
L 511.412227 117.926462 
L 514.305797 115.690601 
L 517.199367 113.811842 
L 521.535847 111.629505 
L 524.077119 110.684361 
L 526.543247 109.990074 
L 529.009375 109.504993 
L 531.475503 109.21901 
L 533.941631 109.122215 
L 535.020772 109.136893 
L 538.997556 109.474317 
L 541.891126 109.98366 
L 544.110972 110.51535 
L 547.004542 111.379947 
L 549.898111 112.426672 
L 552.791681 113.642403 
L 555.685251 115.014403 
L 558.578821 116.530298 
L 564.365961 119.945933 
L 570.1531 123.796592 
L 575.94024 127.993838 
L 581.72738 132.45297 
L 590.408089 139.455823 
L 609.10643 154.728399 
L 609.10643 154.728399 
" clip-path="url(#pe3701750b5)" style="fill: none; stroke: #8b4513; stroke-width: 1.5; stroke-linecap: round"/>
   </g>
  </g>
  <g id="legend_1">
   <g id="patch_12">
    <path d="M 769.44 42.519 
L 862.911 42.519 
Q 866.751 42.519 866.751 38.679 
L 866.751 13.44 
Q 866.751 9.6 862.911 9.6 
L 769.44 9.6 
Q 765.6 9.6 765.6 13.44 
L 765.6 38.679 
Q 765.6 42.519 769.44 42.519 
z
" style="fill: #ffffff; opacity: 0.8; stroke: #cccccc; stroke-linejoin: miter"/>
   </g>
   <g id="PathCollection_3">
    <g>
     <use xlink:href="#mb75f111bd9" x="792.48" y="25.983" style="fill: #8b4513; fill-opacity: 0.8; stroke: #8b4513; stroke-opacity: 0.8"/>
    </g>
   </g>
   <g id="text_39">
    <!-- 207 -->
    <g style="fill: #262626" transform="translate(827.04 31.023) scale(0.192 -0.192)">
     <use xlink:href="#ArialMT-32"/>
     <use xlink:href="#ArialMT-30" x="55.615234"/>
     <use xlink:href="#ArialMT-37" x="111.230469"/>
    </g>
   </g>
  </g>
 </g>
 <defs>
  <clipPath id="p177fecc147">
   <rect x="90" y="43.2" width="237.272727" height="277.2"/>
  </clipPath>
  <clipPath id="pe3701750b5">
   <rect x="374.727273" y="43.2" width="237.272727" height="277.2"/>
  </clipPath>
 </defs>
</svg>
