<?xml version="1.0" encoding="utf-8" standalone="no"?>
<!DOCTYPE svg PUBLIC "-//W3C//DTD SVG 1.1//EN"
  "http://www.w3.org/Graphics/SVG/1.1/DTD/svg11.dtd">
<svg xmlns:xlink="http://www.w3.org/1999/xlink" width="720pt" height="360pt" viewBox="0 0 720 360" xmlns="http://www.w3.org/2000/svg" version="1.1">
 <metadata>
  <rdf:RDF xmlns:dc="http://purl.org/dc/elements/1.1/" xmlns:cc="http://creativecommons.org/ns#" xmlns:rdf="http://www.w3.org/1999/02/22-rdf-syntax-ns#">
   <cc:Work>
    <dc:type rdf:resource="http://purl.org/dc/dcmitype/StillImage"/>
    <dc:date>2024-11-05T15:49:04.776322</dc:date>
    <dc:format>image/svg+xml</dc:format>
    <dc:creator>
     <cc:Agent>
      <dc:title>Matplotlib v3.9.2, https://matplotlib.org/</dc:title>
     </cc:Agent>
    </dc:creator>
   </cc:Work>
  </rdf:RDF>
 </metadata>
 <defs>
  <style type="text/css">*{stroke-linejoin: round; stroke-linecap: butt}</style>
 </defs>
 <g id="figure_1">
  <g id="patch_1">
   <path d="M 0 360 
L 720 360 
L 720 0 
L 0 0 
z
" style="fill: #ffffff"/>
  </g>
  <g id="axes_1">
   <g id="patch_2">
    <path d="M 90 320.4 
L 327.272727 320.4 
L 327.272727 43.2 
L 90 43.2 
z
" style="fill: #ffffff"/>
   </g>
   <g id="matplotlib.axis_1">
    <g id="xtick_1">
     <g id="line2d_1">
      <defs>
       <path id="m849e6174eb" d="M 0 0 
L 0 3.5 
" style="stroke: #000000; stroke-width: 0.8"/>
      </defs>
      <g>
       <use xlink:href="#m849e6174eb" x="92.89357" y="320.4" style="stroke: #000000; stroke-width: 0.8"/>
      </g>
     </g>
     <g id="text_1">
      <!-- 0 -->
      <g transform="translate(88.31257 338.34175) scale(0.144 -0.144)">
       <defs>
        <path id="DejaVuSans-30" d="M 2034 4250 
Q 1547 4250 1301 3770 
Q 1056 3291 1056 2328 
Q 1056 1369 1301 889 
Q 1547 409 2034 409 
Q 2525 409 2770 889 
Q 3016 1369 3016 2328 
Q 3016 3291 2770 3770 
Q 2525 4250 2034 4250 
z
M 2034 4750 
Q 2819 4750 3233 4129 
Q 3647 3509 3647 2328 
Q 3647 1150 3233 529 
Q 2819 -91 2034 -91 
Q 1250 -91 836 529 
Q 422 1150 422 2328 
Q 422 3509 836 4129 
Q 1250 4750 2034 4750 
z
" transform="scale(0.015625)"/>
       </defs>
       <use xlink:href="#DejaVuSans-30"/>
      </g>
     </g>
    </g>
    <g id="xtick_2">
     <g id="line2d_2">
      <g>
       <use xlink:href="#m849e6174eb" x="121.829268" y="320.4" style="stroke: #000000; stroke-width: 0.8"/>
      </g>
     </g>
     <g id="text_2">
      <!-- 1 -->
      <g transform="translate(117.248268 338.34175) scale(0.144 -0.144)">
       <defs>
        <path id="DejaVuSans-31" d="M 794 531 
L 1825 531 
L 1825 4091 
L 703 3866 
L 703 4441 
L 1819 4666 
L 2450 4666 
L 2450 531 
L 3481 531 
L 3481 0 
L 794 0 
L 794 531 
z
" transform="scale(0.015625)"/>
       </defs>
       <use xlink:href="#DejaVuSans-31"/>
      </g>
     </g>
    </g>
    <g id="xtick_3">
     <g id="line2d_3">
      <g>
       <use xlink:href="#m849e6174eb" x="150.764967" y="320.4" style="stroke: #000000; stroke-width: 0.8"/>
      </g>
     </g>
     <g id="text_3">
      <!-- 2 -->
      <g transform="translate(146.183967 338.34175) scale(0.144 -0.144)">
       <defs>
        <path id="DejaVuSans-32" d="M 1228 531 
L 3431 531 
L 3431 0 
L 469 0 
L 469 531 
Q 828 903 1448 1529 
Q 2069 2156 2228 2338 
Q 2531 2678 2651 2914 
Q 2772 3150 2772 3378 
Q 2772 3750 2511 3984 
Q 2250 4219 1831 4219 
Q 1534 4219 1204 4116 
Q 875 4013 500 3803 
L 500 4441 
Q 881 4594 1212 4672 
Q 1544 4750 1819 4750 
Q 2544 4750 2975 4387 
Q 3406 4025 3406 3419 
Q 3406 3131 3298 2873 
Q 3191 2616 2906 2266 
Q 2828 2175 2409 1742 
Q 1991 1309 1228 531 
z
" transform="scale(0.015625)"/>
       </defs>
       <use xlink:href="#DejaVuSans-32"/>
      </g>
     </g>
    </g>
    <g id="xtick_4">
     <g id="line2d_4">
      <g>
       <use xlink:href="#m849e6174eb" x="179.700665" y="320.4" style="stroke: #000000; stroke-width: 0.8"/>
      </g>
     </g>
     <g id="text_4">
      <!-- 3 -->
      <g transform="translate(175.119665 338.34175) scale(0.144 -0.144)">
       <defs>
        <path id="DejaVuSans-33" d="M 2597 2516 
Q 3050 2419 3304 2112 
Q 3559 1806 3559 1356 
Q 3559 666 3084 287 
Q 2609 -91 1734 -91 
Q 1441 -91 1130 -33 
Q 819 25 488 141 
L 488 750 
Q 750 597 1062 519 
Q 1375 441 1716 441 
Q 2309 441 2620 675 
Q 2931 909 2931 1356 
Q 2931 1769 2642 2001 
Q 2353 2234 1838 2234 
L 1294 2234 
L 1294 2753 
L 1863 2753 
Q 2328 2753 2575 2939 
Q 2822 3125 2822 3475 
Q 2822 3834 2567 4026 
Q 2313 4219 1838 4219 
Q 1578 4219 1281 4162 
Q 984 4106 628 3988 
L 628 4550 
Q 988 4650 1302 4700 
Q 1616 4750 1894 4750 
Q 2613 4750 3031 4423 
Q 3450 4097 3450 3541 
Q 3450 3153 3228 2886 
Q 3006 2619 2597 2516 
z
" transform="scale(0.015625)"/>
       </defs>
       <use xlink:href="#DejaVuSans-33"/>
      </g>
     </g>
    </g>
    <g id="xtick_5">
     <g id="line2d_5">
      <g>
       <use xlink:href="#m849e6174eb" x="208.636364" y="320.4" style="stroke: #000000; stroke-width: 0.8"/>
      </g>
     </g>
     <g id="text_5">
      <!-- 4 -->
      <g transform="translate(204.055364 338.34175) scale(0.144 -0.144)">
       <defs>
        <path id="DejaVuSans-34" d="M 2419 4116 
L 825 1625 
L 2419 1625 
L 2419 4116 
z
M 2253 4666 
L 3047 4666 
L 3047 1625 
L 3713 1625 
L 3713 1100 
L 3047 1100 
L 3047 0 
L 2419 0 
L 2419 1100 
L 313 1100 
L 313 1709 
L 2253 4666 
z
" transform="scale(0.015625)"/>
       </defs>
       <use xlink:href="#DejaVuSans-34"/>
      </g>
     </g>
    </g>
    <g id="xtick_6">
     <g id="line2d_6">
      <g>
       <use xlink:href="#m849e6174eb" x="237.572062" y="320.4" style="stroke: #000000; stroke-width: 0.8"/>
      </g>
     </g>
     <g id="text_6">
      <!-- 5 -->
      <g transform="translate(232.991062 338.34175) scale(0.144 -0.144)">
       <defs>
        <path id="DejaVuSans-35" d="M 691 4666 
L 3169 4666 
L 3169 4134 
L 1269 4134 
L 1269 2991 
Q 1406 3038 1543 3061 
Q 1681 3084 1819 3084 
Q 2600 3084 3056 2656 
Q 3513 2228 3513 1497 
Q 3513 744 3044 326 
Q 2575 -91 1722 -91 
Q 1428 -91 1123 -41 
Q 819 9 494 109 
L 494 744 
Q 775 591 1075 516 
Q 1375 441 1709 441 
Q 2250 441 2565 725 
Q 2881 1009 2881 1497 
Q 2881 1984 2565 2268 
Q 2250 2553 1709 2553 
Q 1456 2553 1204 2497 
Q 953 2441 691 2322 
L 691 4666 
z
" transform="scale(0.015625)"/>
       </defs>
       <use xlink:href="#DejaVuSans-35"/>
      </g>
     </g>
    </g>
    <g id="xtick_7">
     <g id="line2d_7">
      <g>
       <use xlink:href="#m849e6174eb" x="266.507761" y="320.4" style="stroke: #000000; stroke-width: 0.8"/>
      </g>
     </g>
     <g id="text_7">
      <!-- 6 -->
      <g transform="translate(261.926761 338.34175) scale(0.144 -0.144)">
       <defs>
        <path id="DejaVuSans-36" d="M 2113 2584 
Q 1688 2584 1439 2293 
Q 1191 2003 1191 1497 
Q 1191 994 1439 701 
Q 1688 409 2113 409 
Q 2538 409 2786 701 
Q 3034 994 3034 1497 
Q 3034 2003 2786 2293 
Q 2538 2584 2113 2584 
z
M 3366 4563 
L 3366 3988 
Q 3128 4100 2886 4159 
Q 2644 4219 2406 4219 
Q 1781 4219 1451 3797 
Q 1122 3375 1075 2522 
Q 1259 2794 1537 2939 
Q 1816 3084 2150 3084 
Q 2853 3084 3261 2657 
Q 3669 2231 3669 1497 
Q 3669 778 3244 343 
Q 2819 -91 2113 -91 
Q 1303 -91 875 529 
Q 447 1150 447 2328 
Q 447 3434 972 4092 
Q 1497 4750 2381 4750 
Q 2619 4750 2861 4703 
Q 3103 4656 3366 4563 
z
" transform="scale(0.015625)"/>
       </defs>
       <use xlink:href="#DejaVuSans-36"/>
      </g>
     </g>
    </g>
    <g id="xtick_8">
     <g id="line2d_8">
      <g>
       <use xlink:href="#m849e6174eb" x="295.443459" y="320.4" style="stroke: #000000; stroke-width: 0.8"/>
      </g>
     </g>
     <g id="text_8">
      <!-- 7 -->
      <g transform="translate(290.862459 338.34175) scale(0.144 -0.144)">
       <defs>
        <path id="DejaVuSans-37" d="M 525 4666 
L 3525 4666 
L 3525 4397 
L 1831 0 
L 1172 0 
L 2766 4134 
L 525 4134 
L 525 4666 
z
" transform="scale(0.015625)"/>
       </defs>
       <use xlink:href="#DejaVuSans-37"/>
      </g>
     </g>
    </g>
    <g id="xtick_9">
     <g id="line2d_9">
      <g>
       <use xlink:href="#m849e6174eb" x="324.379157" y="320.4" style="stroke: #000000; stroke-width: 0.8"/>
      </g>
     </g>
     <g id="text_9">
      <!-- 8 -->
      <g transform="translate(319.798157 338.34175) scale(0.144 -0.144)">
       <defs>
        <path id="DejaVuSans-38" d="M 2034 2216 
Q 1584 2216 1326 1975 
Q 1069 1734 1069 1313 
Q 1069 891 1326 650 
Q 1584 409 2034 409 
Q 2484 409 2743 651 
Q 3003 894 3003 1313 
Q 3003 1734 2745 1975 
Q 2488 2216 2034 2216 
z
M 1403 2484 
Q 997 2584 770 2862 
Q 544 3141 544 3541 
Q 544 4100 942 4425 
Q 1341 4750 2034 4750 
Q 2731 4750 3128 4425 
Q 3525 4100 3525 3541 
Q 3525 3141 3298 2862 
Q 3072 2584 2669 2484 
Q 3125 2378 3379 2068 
Q 3634 1759 3634 1313 
Q 3634 634 3220 271 
Q 2806 -91 2034 -91 
Q 1263 -91 848 271 
Q 434 634 434 1313 
Q 434 1759 690 2068 
Q 947 2378 1403 2484 
z
M 1172 3481 
Q 1172 3119 1398 2916 
Q 1625 2713 2034 2713 
Q 2441 2713 2670 2916 
Q 2900 3119 2900 3481 
Q 2900 3844 2670 4047 
Q 2441 4250 2034 4250 
Q 1625 4250 1398 4047 
Q 1172 3844 1172 3481 
z
" transform="scale(0.015625)"/>
       </defs>
       <use xlink:href="#DejaVuSans-38"/>
      </g>
     </g>
    </g>
    <g id="text_10">
     <!-- Time (d) -->
     <g transform="translate(168.511364 359.9255) scale(0.192 -0.192)">
      <defs>
       <path id="DejaVuSans-54" d="M -19 4666 
L 3928 4666 
L 3928 4134 
L 2272 4134 
L 2272 0 
L 1638 0 
L 1638 4134 
L -19 4134 
L -19 4666 
z
" transform="scale(0.015625)"/>
       <path id="DejaVuSans-69" d="M 603 3500 
L 1178 3500 
L 1178 0 
L 603 0 
L 603 3500 
z
M 603 4863 
L 1178 4863 
L 1178 4134 
L 603 4134 
L 603 4863 
z
" transform="scale(0.015625)"/>
       <path id="DejaVuSans-6d" d="M 3328 2828 
Q 3544 3216 3844 3400 
Q 4144 3584 4550 3584 
Q 5097 3584 5394 3201 
Q 5691 2819 5691 2113 
L 5691 0 
L 5113 0 
L 5113 2094 
Q 5113 2597 4934 2840 
Q 4756 3084 4391 3084 
Q 3944 3084 3684 2787 
Q 3425 2491 3425 1978 
L 3425 0 
L 2847 0 
L 2847 2094 
Q 2847 2600 2669 2842 
Q 2491 3084 2119 3084 
Q 1678 3084 1418 2786 
Q 1159 2488 1159 1978 
L 1159 0 
L 581 0 
L 581 3500 
L 1159 3500 
L 1159 2956 
Q 1356 3278 1631 3431 
Q 1906 3584 2284 3584 
Q 2666 3584 2933 3390 
Q 3200 3197 3328 2828 
z
" transform="scale(0.015625)"/>
       <path id="DejaVuSans-65" d="M 3597 1894 
L 3597 1613 
L 953 1613 
Q 991 1019 1311 708 
Q 1631 397 2203 397 
Q 2534 397 2845 478 
Q 3156 559 3463 722 
L 3463 178 
Q 3153 47 2828 -22 
Q 2503 -91 2169 -91 
Q 1331 -91 842 396 
Q 353 884 353 1716 
Q 353 2575 817 3079 
Q 1281 3584 2069 3584 
Q 2775 3584 3186 3129 
Q 3597 2675 3597 1894 
z
M 3022 2063 
Q 3016 2534 2758 2815 
Q 2500 3097 2075 3097 
Q 1594 3097 1305 2825 
Q 1016 2553 972 2059 
L 3022 2063 
z
" transform="scale(0.015625)"/>
       <path id="DejaVuSans-20" transform="scale(0.015625)"/>
       <path id="DejaVuSans-28" d="M 1984 4856 
Q 1566 4138 1362 3434 
Q 1159 2731 1159 2009 
Q 1159 1288 1364 580 
Q 1569 -128 1984 -844 
L 1484 -844 
Q 1016 -109 783 600 
Q 550 1309 550 2009 
Q 550 2706 781 3412 
Q 1013 4119 1484 4856 
L 1984 4856 
z
" transform="scale(0.015625)"/>
       <path id="DejaVuSans-64" d="M 2906 2969 
L 2906 4863 
L 3481 4863 
L 3481 0 
L 2906 0 
L 2906 525 
Q 2725 213 2448 61 
Q 2172 -91 1784 -91 
Q 1150 -91 751 415 
Q 353 922 353 1747 
Q 353 2572 751 3078 
Q 1150 3584 1784 3584 
Q 2172 3584 2448 3432 
Q 2725 3281 2906 2969 
z
M 947 1747 
Q 947 1113 1208 752 
Q 1469 391 1925 391 
Q 2381 391 2643 752 
Q 2906 1113 2906 1747 
Q 2906 2381 2643 2742 
Q 2381 3103 1925 3103 
Q 1469 3103 1208 2742 
Q 947 2381 947 1747 
z
" transform="scale(0.015625)"/>
       <path id="DejaVuSans-29" d="M 513 4856 
L 1013 4856 
Q 1481 4119 1714 3412 
Q 1947 2706 1947 2009 
Q 1947 1309 1714 600 
Q 1481 -109 1013 -844 
L 513 -844 
Q 928 -128 1133 580 
Q 1338 1288 1338 2009 
Q 1338 2731 1133 3434 
Q 928 4138 513 4856 
z
" transform="scale(0.015625)"/>
      </defs>
      <use xlink:href="#DejaVuSans-54"/>
      <use xlink:href="#DejaVuSans-69" x="57.958984"/>
      <use xlink:href="#DejaVuSans-6d" x="85.742188"/>
      <use xlink:href="#DejaVuSans-65" x="183.154297"/>
      <use xlink:href="#DejaVuSans-20" x="244.677734"/>
      <use xlink:href="#DejaVuSans-28" x="276.464844"/>
      <use xlink:href="#DejaVuSans-64" x="315.478516"/>
      <use xlink:href="#DejaVuSans-29" x="378.955078"/>
     </g>
    </g>
   </g>
   <g id="matplotlib.axis_2">
    <g id="ytick_1">
     <g id="line2d_10">
      <defs>
       <path id="m384d73ed69" d="M 0 0 
L -3.5 0 
" style="stroke: #000000; stroke-width: 0.8"/>
      </defs>
      <g>
       <use xlink:href="#m384d73ed69" x="90" y="320.4" style="stroke: #000000; stroke-width: 0.8"/>
      </g>
     </g>
     <g id="text_11">
      <!-- 0 -->
      <g transform="translate(73.838 325.870875) scale(0.144 -0.144)">
       <use xlink:href="#DejaVuSans-30"/>
      </g>
     </g>
    </g>
    <g id="ytick_2">
     <g id="line2d_11">
      <g>
       <use xlink:href="#m384d73ed69" x="90" y="286.8" style="stroke: #000000; stroke-width: 0.8"/>
      </g>
     </g>
     <g id="text_12">
      <!-- 1 -->
      <g transform="translate(73.838 292.270875) scale(0.144 -0.144)">
       <use xlink:href="#DejaVuSans-31"/>
      </g>
     </g>
    </g>
    <g id="ytick_3">
     <g id="line2d_12">
      <g>
       <use xlink:href="#m384d73ed69" x="90" y="253.2" style="stroke: #000000; stroke-width: 0.8"/>
      </g>
     </g>
     <g id="text_13">
      <!-- 2 -->
      <g transform="translate(73.838 258.670875) scale(0.144 -0.144)">
       <use xlink:href="#DejaVuSans-32"/>
      </g>
     </g>
    </g>
    <g id="ytick_4">
     <g id="line2d_13">
      <g>
       <use xlink:href="#m384d73ed69" x="90" y="219.6" style="stroke: #000000; stroke-width: 0.8"/>
      </g>
     </g>
     <g id="text_14">
      <!-- 3 -->
      <g transform="translate(73.838 225.070875) scale(0.144 -0.144)">
       <use xlink:href="#DejaVuSans-33"/>
      </g>
     </g>
    </g>
    <g id="ytick_5">
     <g id="line2d_14">
      <g>
       <use xlink:href="#m384d73ed69" x="90" y="186" style="stroke: #000000; stroke-width: 0.8"/>
      </g>
     </g>
     <g id="text_15">
      <!-- 4 -->
      <g transform="translate(73.838 191.470875) scale(0.144 -0.144)">
       <use xlink:href="#DejaVuSans-34"/>
      </g>
     </g>
    </g>
    <g id="ytick_6">
     <g id="line2d_15">
      <g>
       <use xlink:href="#m384d73ed69" x="90" y="152.4" style="stroke: #000000; stroke-width: 0.8"/>
      </g>
     </g>
     <g id="text_16">
      <!-- 5 -->
      <g transform="translate(73.838 157.870875) scale(0.144 -0.144)">
       <use xlink:href="#DejaVuSans-35"/>
      </g>
     </g>
    </g>
    <g id="ytick_7">
     <g id="line2d_16">
      <g>
       <use xlink:href="#m384d73ed69" x="90" y="118.8" style="stroke: #000000; stroke-width: 0.8"/>
      </g>
     </g>
     <g id="text_17">
      <!-- 6 -->
      <g transform="translate(73.838 124.270875) scale(0.144 -0.144)">
       <use xlink:href="#DejaVuSans-36"/>
      </g>
     </g>
    </g>
    <g id="ytick_8">
     <g id="line2d_17">
      <g>
       <use xlink:href="#m384d73ed69" x="90" y="85.2" style="stroke: #000000; stroke-width: 0.8"/>
      </g>
     </g>
     <g id="text_18">
      <!-- 7 -->
      <g transform="translate(73.838 90.670875) scale(0.144 -0.144)">
       <use xlink:href="#DejaVuSans-37"/>
      </g>
     </g>
    </g>
    <g id="ytick_9">
     <g id="line2d_18">
      <g>
       <use xlink:href="#m384d73ed69" x="90" y="51.6" style="stroke: #000000; stroke-width: 0.8"/>
      </g>
     </g>
     <g id="text_19">
      <!-- 8 -->
      <g transform="translate(73.838 57.070875) scale(0.144 -0.144)">
       <use xlink:href="#DejaVuSans-38"/>
      </g>
     </g>
    </g>
    <g id="text_20">
     <!-- Log10(V) -->
     <g transform="translate(65.845 225.2235) rotate(-90) scale(0.192 -0.192)">
      <defs>
       <path id="DejaVuSans-4c" d="M 628 4666 
L 1259 4666 
L 1259 531 
L 3531 531 
L 3531 0 
L 628 0 
L 628 4666 
z
" transform="scale(0.015625)"/>
       <path id="DejaVuSans-6f" d="M 1959 3097 
Q 1497 3097 1228 2736 
Q 959 2375 959 1747 
Q 959 1119 1226 758 
Q 1494 397 1959 397 
Q 2419 397 2687 759 
Q 2956 1122 2956 1747 
Q 2956 2369 2687 2733 
Q 2419 3097 1959 3097 
z
M 1959 3584 
Q 2709 3584 3137 3096 
Q 3566 2609 3566 1747 
Q 3566 888 3137 398 
Q 2709 -91 1959 -91 
Q 1206 -91 779 398 
Q 353 888 353 1747 
Q 353 2609 779 3096 
Q 1206 3584 1959 3584 
z
" transform="scale(0.015625)"/>
       <path id="DejaVuSans-67" d="M 2906 1791 
Q 2906 2416 2648 2759 
Q 2391 3103 1925 3103 
Q 1463 3103 1205 2759 
Q 947 2416 947 1791 
Q 947 1169 1205 825 
Q 1463 481 1925 481 
Q 2391 481 2648 825 
Q 2906 1169 2906 1791 
z
M 3481 434 
Q 3481 -459 3084 -895 
Q 2688 -1331 1869 -1331 
Q 1566 -1331 1297 -1286 
Q 1028 -1241 775 -1147 
L 775 -588 
Q 1028 -725 1275 -790 
Q 1522 -856 1778 -856 
Q 2344 -856 2625 -561 
Q 2906 -266 2906 331 
L 2906 616 
Q 2728 306 2450 153 
Q 2172 0 1784 0 
Q 1141 0 747 490 
Q 353 981 353 1791 
Q 353 2603 747 3093 
Q 1141 3584 1784 3584 
Q 2172 3584 2450 3431 
Q 2728 3278 2906 2969 
L 2906 3500 
L 3481 3500 
L 3481 434 
z
" transform="scale(0.015625)"/>
       <path id="DejaVuSans-56" d="M 1831 0 
L 50 4666 
L 709 4666 
L 2188 738 
L 3669 4666 
L 4325 4666 
L 2547 0 
L 1831 0 
z
" transform="scale(0.015625)"/>
      </defs>
      <use xlink:href="#DejaVuSans-4c"/>
      <use xlink:href="#DejaVuSans-6f" x="53.962891"/>
      <use xlink:href="#DejaVuSans-67" x="115.144531"/>
      <use xlink:href="#DejaVuSans-31" x="178.621094"/>
      <use xlink:href="#DejaVuSans-30" x="242.244141"/>
      <use xlink:href="#DejaVuSans-28" x="305.867188"/>
      <use xlink:href="#DejaVuSans-56" x="344.880859"/>
      <use xlink:href="#DejaVuSans-29" x="413.289062"/>
     </g>
    </g>
   </g>
   <g id="patch_3">
    <path d="M 90 320.4 
L 90 43.2 
" style="fill: none; stroke: #000000; stroke-width: 0.8; stroke-linejoin: miter; stroke-linecap: square"/>
   </g>
   <g id="patch_4">
    <path d="M 327.272727 320.4 
L 327.272727 43.2 
" style="fill: none; stroke: #000000; stroke-width: 0.8; stroke-linejoin: miter; stroke-linecap: square"/>
   </g>
   <g id="patch_5">
    <path d="M 90 320.4 
L 327.272727 320.4 
" style="fill: none; stroke: #000000; stroke-width: 0.8; stroke-linejoin: miter; stroke-linecap: square"/>
   </g>
   <g id="patch_6">
    <path d="M 90 43.2 
L 327.272727 43.2 
" style="fill: none; stroke: #000000; stroke-width: 0.8; stroke-linejoin: miter; stroke-linecap: square"/>
   </g>
   <g id="PolyCollection_1">
    <defs>
     <path id="m99a0646cde" d="M 92.89357 -39.6 
L 92.89357 -39.6 
L 92.895996 -39.6 
L 92.920256 -39.6 
L 93.162861 -39.6 
L 93.534393 -39.6 
L 94.092327 -47.844907 
L 94.82922 -58.419981 
L 95.860605 -66.981861 
L 97.134793 -74.097028 
L 98.408982 -79.216991 
L 99.943016 -84.820579 
L 102.226696 -92.605631 
L 103.670839 -97.467477 
L 105.845777 -104.796753 
L 107.34886 -109.72029 
L 109.517454 -116.80569 
L 111.054165 -121.796682 
L 113.413455 -129.47151 
L 114.910673 -134.323612 
L 116.943392 -140.938115 
L 118.49283 -145.923849 
L 120.695319 -152.670543 
L 122.232624 -157.36198 
L 124.302309 -163.643802 
L 125.873729 -168.384308 
L 128.106618 -175.027737 
L 129.678388 -179.614996 
L 131.83985 -185.773787 
L 133.464778 -190.220746 
L 135.811743 -196.308019 
L 137.433757 -200.193514 
L 139.650653 -204.961607 
L 141.324489 -208.130479 
L 143.780043 -211.794003 
L 145.515771 -213.562084 
L 147.645459 -214.806375 
L 149.317662 -215.336439 
L 151.307127 -215.355529 
L 153.296592 -214.777312 
L 155.286057 -213.91682 
L 157.275522 -212.806419 
L 159.264987 -211.470992 
L 161.254451 -209.900016 
L 163.332456 -207.956187 
L 165.637401 -204.635233 
L 168.191283 -198.366755 
L 171.084853 -185.607911 
L 173.978423 -168.283911 
L 174.036294 -167.934724 
L 174.325651 -166.188786 
L 174.475872 -165.285845 
L 174.601136 -164.539265 
L 174.689311 -164.013733 
L 174.803173 -163.335109 
L 174.895884 -162.782549 
L 175.822988 -157.202735 
L 176.206064 -154.864832 
L 177.720978 -145.061044 
L 178.268827 -141.411606 
L 179.866292 -129.092192 
L 180.578288 -121.955905 
L 182.198493 -106.099683 
L 183.065427 -96.570826 
L 184.855016 -78.114848 
L 185.865501 -69.39251 
L 187.86576 -54.641975 
L 189.10461 -46.294242 
L 191.787256 -39.6 
L 193.600826 -39.6 
L 196.494396 -39.6 
L 198.772488 -39.6 
L 201.666058 -39.6 
L 204.559628 -39.6 
L 207.453198 -39.6 
L 210.346768 -39.6 
L 213.240337 -39.6 
L 216.133907 -39.6 
L 219.027477 -39.6 
L 221.921047 -39.6 
L 224.814617 -39.6 
L 227.708187 -39.6 
L 230.601757 -39.6 
L 233.495326 -39.6 
L 236.388896 -39.6 
L 239.282466 -39.6 
L 242.176036 -39.6 
L 245.069606 -39.6 
L 247.963176 -39.6 
L 250.856745 -39.6 
L 253.750315 -39.6 
L 256.643885 -39.6 
L 259.537455 -39.6 
L 262.431025 -39.6 
L 265.324595 -39.6 
L 268.218164 -39.6 
L 271.111734 -39.6 
L 274.005304 -39.6 
L 276.898874 -39.6 
L 279.792444 -39.6 
L 282.686014 -39.6 
L 285.579584 -39.6 
L 288.473153 -39.6 
L 291.366723 -39.6 
L 294.260293 -39.6 
L 297.153863 -39.6 
L 300.047433 -39.6 
L 302.941003 -39.6 
L 305.834572 -39.6 
L 308.728142 -39.6 
L 311.621712 -39.6 
L 314.515282 -39.6 
L 317.408852 -39.6 
L 320.302422 -39.6 
L 323.195992 -39.6 
L 324.379157 -39.6 
L 324.379157 -39.6 
L 324.379157 -39.6 
L 323.195992 -39.6 
L 320.302422 -39.6 
L 317.408852 -39.6 
L 314.515282 -39.6 
L 311.621712 -39.6 
L 308.728142 -39.6 
L 305.834572 -39.6 
L 302.941003 -39.6 
L 300.047433 -39.6 
L 297.153863 -39.6 
L 294.260293 -39.6 
L 291.366723 -39.6 
L 288.473153 -39.6 
L 285.579584 -39.6 
L 282.686014 -39.6 
L 279.792444 -39.6 
L 276.898874 -39.6 
L 274.005304 -39.6 
L 271.111734 -39.6 
L 268.218164 -39.6 
L 265.324595 -39.6 
L 262.431025 -39.6 
L 259.537455 -39.6 
L 256.643885 -39.6 
L 253.750315 -39.6 
L 250.856745 -39.6 
L 247.963176 -39.6 
L 245.069606 -39.6 
L 242.176036 -39.6 
L 239.282466 -39.6 
L 236.388896 -39.6 
L 233.495326 -39.6 
L 230.601757 -39.6 
L 227.708187 -39.6 
L 224.814617 -39.6 
L 221.921047 -39.6 
L 219.027477 -39.6 
L 216.133907 -39.6 
L 213.240337 -39.6 
L 210.346768 -39.6 
L 207.453198 -39.6 
L 204.559628 -39.631545 
L 201.666058 -41.017341 
L 198.772488 -47.76514 
L 196.494396 -53.291256 
L 193.600826 -60.842075 
L 191.787256 -67.528879 
L 189.10461 -83.722869 
L 187.86576 -91.199942 
L 185.865501 -103.267846 
L 184.855016 -109.369087 
L 183.065427 -120.168393 
L 182.198493 -125.395213 
L 180.578288 -135.213085 
L 179.866292 -140.01649 
L 178.268827 -158.388941 
L 177.720978 -164.884882 
L 176.206064 -182.149626 
L 175.822988 -185.409155 
L 174.895884 -191.230584 
L 174.803173 -191.812727 
L 174.689311 -192.527682 
L 174.601136 -193.08135 
L 174.475872 -193.809578 
L 174.325651 -194.446742 
L 174.036294 -195.674051 
L 173.978423 -195.919513 
L 171.084853 -204.015166 
L 168.191283 -208.905188 
L 165.637401 -212.200578 
L 163.332456 -214.60875 
L 161.254451 -216.434627 
L 159.264987 -217.947924 
L 157.275522 -219.241397 
L 155.286057 -220.301183 
L 153.296592 -221.088538 
L 151.307127 -221.540737 
L 149.317662 -221.597722 
L 147.645459 -221.242543 
L 145.515771 -220.699626 
L 143.780043 -219.726198 
L 141.324489 -217.321871 
L 139.650653 -214.913388 
L 137.433757 -210.747889 
L 135.811743 -207.061972 
L 133.464778 -200.890947 
L 131.83985 -196.171562 
L 129.678388 -189.510365 
L 128.106618 -184.445287 
L 125.873729 -177.029123 
L 124.302309 -171.722304 
L 122.232624 -164.747534 
L 120.695319 -159.693191 
L 118.49283 -152.41439 
L 116.943392 -147.272001 
L 114.910673 -140.512538 
L 113.413455 -135.525789 
L 111.054165 -127.659317 
L 109.517454 -122.532048 
L 107.34886 -115.295319 
L 105.845777 -110.281963 
L 103.670839 -103.049309 
L 102.226696 -98.325953 
L 99.943016 -90.646206 
L 98.408982 -85.078096 
L 97.134793 -79.39271 
L 95.860605 -71.339609 
L 94.82922 -61.666117 
L 94.092327 -49.458789 
L 93.534393 -40.329831 
L 93.162861 -39.6 
L 92.920256 -39.6 
L 92.895996 -39.6 
L 92.89357 -39.6 
z
" style="stroke: #006400; stroke-opacity: 0.2"/>
    </defs>
    <g clip-path="url(#p745e06c2e7)">
     <use xlink:href="#m99a0646cde" x="0" y="360" style="fill: #006400; fill-opacity: 0.2; stroke: #006400; stroke-opacity: 0.2"/>
    </g>
   </g>
   <g id="PolyCollection_2">
    <defs>
     <path id="m182182da58" d="M 92.89357 -39.6 
L 92.89357 -39.6 
L 92.894404 -39.6 
L 92.902741 -39.6 
L 92.986111 -39.6 
L 93.274644 -39.6 
L 93.476339 -39.6 
L 94.128864 -52.015259 
L 94.528651 -59.35918 
L 95.778627 -74.180691 
L 96.443081 -79.306502 
L 98.420154 -90.142958 
L 99.319066 -93.764745 
L 101.402621 -100.953391 
L 102.491604 -104.310457 
L 104.626212 -110.622447 
L 105.856688 -114.186583 
L 108.008966 -120.421751 
L 109.347332 -124.287258 
L 111.502857 -130.541428 
L 112.922884 -134.652769 
L 115.070824 -140.890484 
L 116.550151 -145.176239 
L 118.69304 -151.404577 
L 120.215956 -155.819614 
L 122.56255 -162.616334 
L 124.068554 -166.967783 
L 126.158357 -173.010669 
L 127.72636 -177.529315 
L 130.012128 -184.092262 
L 131.583964 -188.580182 
L 133.762202 -194.757129 
L 135.388562 -199.325594 
L 137.774748 -205.902851 
L 139.425655 -210.357089 
L 141.747181 -216.38004 
L 143.466518 -220.672321 
L 145.990592 -226.472603 
L 147.717287 -230.125307 
L 150.465011 -235.11722 
L 152.247936 -237.907363 
L 154.319974 -240.536911 
L 155.940575 -242.087591 
L 157.724262 -243.432188 
L 159.50795 -244.490921 
L 161.003915 -245.123661 
L 162.506602 -245.533388 
L 164.009288 -245.825587 
L 165.337364 -246.000589 
L 166.719571 -246.109619 
L 168.655035 -246.15124 
L 170.680621 -246.0848 
L 173.574191 -245.798975 
L 176.46776 -245.315846 
L 179.36133 -244.543323 
L 182.2549 -243.575678 
L 185.14847 -242.362459 
L 188.04204 -240.716897 
L 190.93561 -238.581047 
L 193.829179 -235.555661 
L 196.722749 -230.939168 
L 198.169534 -228.126093 
L 198.717787 -226.756036 
L 199.349767 -225.040753 
L 199.544673 -224.509157 
L 199.792605 -223.832936 
L 199.997309 -223.274617 
L 200.202014 -222.716297 
L 200.436214 -222.076979 
L 200.908268 -220.78833 
L 203.801838 -212.86958 
L 204.569097 -210.768338 
L 207.462667 -202.824459 
L 208.558829 -199.811378 
L 211.452399 -191.852438 
L 212.881531 -187.915351 
L 215.775101 -179.943816 
L 217.52208 -175.128002 
L 220.41565 -167.149874 
L 222.444952 -161.554732 
L 225.338522 -153.576726 
L 227.604804 -147.328307 
L 230.498374 -139.350488 
L 233.391944 -131.37281 
L 236.285513 -123.395303 
L 239.179083 -115.393207 
L 242.072653 -107.308702 
L 244.966223 -99.225861 
L 247.859793 -91.145073 
L 250.753363 -83.066812 
L 253.646933 -74.991663 
L 256.540502 -66.920343 
L 259.434072 -58.853727 
L 262.327642 -50.792891 
L 265.221212 -42.721879 
L 268.114782 -39.6 
L 271.008352 -39.6 
L 273.901921 -39.6 
L 276.795491 -39.6 
L 279.689061 -39.6 
L 282.582631 -39.6 
L 285.476201 -39.6 
L 288.369771 -39.6 
L 291.263341 -39.6 
L 294.15691 -39.6 
L 297.05048 -39.6 
L 299.94405 -39.6 
L 302.83762 -39.6 
L 305.73119 -39.6 
L 308.62476 -39.6 
L 311.518329 -39.6 
L 314.411899 -39.6 
L 317.305469 -39.6 
L 320.199039 -39.6 
L 323.092609 -39.6 
L 324.379157 -39.6 
L 324.379157 -39.6 
L 324.379157 -39.6 
L 323.092609 -39.6 
L 320.199039 -39.6 
L 317.305469 -39.6 
L 314.411899 -39.6 
L 311.518329 -39.6 
L 308.62476 -39.6 
L 305.73119 -39.6 
L 302.83762 -39.6 
L 299.94405 -39.6 
L 297.05048 -39.6 
L 294.15691 -39.6 
L 291.263341 -39.6 
L 288.369771 -39.6 
L 285.476201 -39.6 
L 282.582631 -39.6 
L 279.689061 -39.6 
L 276.795491 -39.6 
L 273.901921 -39.6 
L 271.008352 -39.607813 
L 268.114782 -42.331868 
L 265.221212 -49.304207 
L 262.327642 -57.244835 
L 259.434072 -65.187313 
L 256.540502 -73.131312 
L 253.646933 -81.07656 
L 250.753363 -89.022854 
L 247.859793 -96.970007 
L 244.966223 -104.917853 
L 242.072653 -112.881341 
L 239.179083 -120.975206 
L 236.285513 -129.069446 
L 233.391944 -137.16399 
L 230.498374 -145.25878 
L 227.604804 -153.411873 
L 225.338522 -159.86604 
L 222.444952 -168.085639 
L 220.41565 -173.853501 
L 217.52208 -182.072045 
L 215.775101 -187.03106 
L 212.881531 -195.252196 
L 211.452399 -199.299838 
L 208.558829 -207.528319 
L 207.462667 -210.620021 
L 204.569097 -218.801399 
L 203.801838 -220.960434 
L 200.908268 -228.707625 
L 200.436214 -229.784774 
L 200.202014 -230.273841 
L 199.997309 -230.697286 
L 199.792605 -231.087891 
L 199.544673 -231.560981 
L 199.349767 -231.896396 
L 198.717787 -232.925166 
L 198.169534 -233.988613 
L 196.722749 -236.434056 
L 193.829179 -239.989951 
L 190.93561 -242.524358 
L 188.04204 -244.624867 
L 185.14847 -246.445385 
L 182.2549 -247.796431 
L 179.36133 -248.79841 
L 176.46776 -249.521129 
L 173.574191 -250.000355 
L 170.680621 -250.234877 
L 168.655035 -250.247612 
L 166.719571 -250.117532 
L 165.337364 -249.924706 
L 164.009288 -249.653278 
L 162.506602 -249.226297 
L 161.003915 -248.652972 
L 159.50795 -247.919231 
L 157.724262 -246.995733 
L 155.940575 -245.782349 
L 154.319974 -244.566785 
L 152.247936 -242.597486 
L 150.465011 -240.509316 
L 147.717287 -236.30686 
L 145.990592 -233.217218 
L 143.466518 -227.806443 
L 141.747181 -223.737487 
L 139.425655 -217.696388 
L 137.774748 -213.243017 
L 135.388562 -206.462038 
L 133.762202 -201.71787 
L 131.583964 -195.207578 
L 130.012128 -190.455214 
L 127.72636 -183.459535 
L 126.158357 -178.638443 
L 124.068554 -172.180986 
L 122.56255 -167.52102 
L 120.215956 -160.223764 
L 118.69304 -155.493129 
L 116.550151 -148.821709 
L 115.070824 -144.223604 
L 112.922884 -137.529885 
L 111.502857 -133.119918 
L 109.347332 -126.426652 
L 108.008966 -122.290152 
L 105.856688 -115.620422 
L 104.626212 -111.819333 
L 102.491604 -105.111566 
L 101.402621 -101.589996 
L 99.319066 -94.17374 
L 98.420154 -90.45831 
L 96.443081 -79.664655 
L 95.778627 -74.493455 
L 94.528651 -59.775069 
L 94.128864 -52.256861 
L 93.476339 -40.237791 
L 93.274644 -39.6 
L 92.986111 -39.6 
L 92.902741 -39.6 
L 92.894404 -39.6 
L 92.89357 -39.6 
z
" style="stroke: #8b4513; stroke-opacity: 0.2"/>
    </defs>
    <g clip-path="url(#p745e06c2e7)">
     <use xlink:href="#m182182da58" x="0" y="360" style="fill: #8b4513; fill-opacity: 0.2; stroke: #8b4513; stroke-opacity: 0.2"/>
    </g>
   </g>
   <g id="PathCollection_1">
    <defs>
     <path id="m38a7896b87" d="M 0 3 
C 0.795609 3 1.55874 2.683901 2.12132 2.12132 
C 2.683901 1.55874 3 0.795609 3 0 
C 3 -0.795609 2.683901 -1.55874 2.12132 -2.12132 
C 1.55874 -2.683901 0.795609 -3 0 -3 
C -0.795609 -3 -1.55874 -2.683901 -2.12132 -2.12132 
C -2.683901 -1.55874 -3 -0.795609 -3 0 
C -3 0.795609 -2.683901 1.55874 -2.12132 2.12132 
C -1.55874 2.683901 -0.795609 3 0 3 
z
" style="stroke: #000000; stroke-opacity: 0.8"/>
    </defs>
    <g clip-path="url(#p745e06c2e7)">
     <use xlink:href="#m38a7896b87" x="92.89357" y="320.4" style="fill: #8b4513; fill-opacity: 0.8; stroke: #000000; stroke-opacity: 0.8"/>
     <use xlink:href="#m38a7896b87" x="121.829268" y="191.915937" style="fill: #8b4513; fill-opacity: 0.8; stroke: #000000; stroke-opacity: 0.8"/>
     <use xlink:href="#m38a7896b87" x="150.764967" y="126.942083" style="fill: #8b4513; fill-opacity: 0.8; stroke: #000000; stroke-opacity: 0.8"/>
     <use xlink:href="#m38a7896b87" x="179.700665" y="109.928387" style="fill: #8b4513; fill-opacity: 0.8; stroke: #000000; stroke-opacity: 0.8"/>
     <use xlink:href="#m38a7896b87" x="208.636364" y="160.004952" style="fill: #8b4513; fill-opacity: 0.8; stroke: #000000; stroke-opacity: 0.8"/>
     <use xlink:href="#m38a7896b87" x="237.572062" y="230.617512" style="fill: #8b4513; fill-opacity: 0.8; stroke: #000000; stroke-opacity: 0.8"/>
     <use xlink:href="#m38a7896b87" x="266.507761" y="320.4" style="fill: #8b4513; fill-opacity: 0.8; stroke: #000000; stroke-opacity: 0.8"/>
     <use xlink:href="#m38a7896b87" x="295.443459" y="320.4" style="fill: #8b4513; fill-opacity: 0.8; stroke: #000000; stroke-opacity: 0.8"/>
    </g>
   </g>
   <g id="PathCollection_2">
    <defs>
     <path id="m907ecbe7c9" d="M 0 3 
C 0.795609 3 1.55874 2.683901 2.12132 2.12132 
C 2.683901 1.55874 3 0.795609 3 0 
C 3 -0.795609 2.683901 -1.55874 2.12132 -2.12132 
C 1.55874 -2.683901 0.795609 -3 0 -3 
C -0.795609 -3 -1.55874 -2.683901 -2.12132 -2.12132 
C -2.683901 -1.55874 -3 -0.795609 -3 0 
C -3 0.795609 -2.683901 1.55874 -2.12132 2.12132 
C -1.55874 2.683901 -0.795609 3 0 3 
z
" style="stroke: #000000; stroke-opacity: 0.8"/>
    </defs>
    <g clip-path="url(#p745e06c2e7)">
     <use xlink:href="#m907ecbe7c9" x="92.89357" y="320.4" style="fill: #006400; fill-opacity: 0.8; stroke: #000000; stroke-opacity: 0.8"/>
     <use xlink:href="#m907ecbe7c9" x="121.829268" y="200.196276" style="fill: #006400; fill-opacity: 0.8; stroke: #000000; stroke-opacity: 0.8"/>
     <use xlink:href="#m907ecbe7c9" x="150.764967" y="140.611811" style="fill: #006400; fill-opacity: 0.8; stroke: #000000; stroke-opacity: 0.8"/>
     <use xlink:href="#m907ecbe7c9" x="179.700665" y="223.076719" style="fill: #006400; fill-opacity: 0.8; stroke: #000000; stroke-opacity: 0.8"/>
     <use xlink:href="#m907ecbe7c9" x="208.636364" y="320.4" style="fill: #006400; fill-opacity: 0.8; stroke: #000000; stroke-opacity: 0.8"/>
     <use xlink:href="#m907ecbe7c9" x="237.572062" y="320.4" style="fill: #006400; fill-opacity: 0.8; stroke: #000000; stroke-opacity: 0.8"/>
     <use xlink:href="#m907ecbe7c9" x="266.507761" y="320.4" style="fill: #006400; fill-opacity: 0.8; stroke: #000000; stroke-opacity: 0.8"/>
     <use xlink:href="#m907ecbe7c9" x="295.443459" y="320.4" style="fill: #006400; fill-opacity: 0.8; stroke: #000000; stroke-opacity: 0.8"/>
    </g>
   </g>
   <g id="line2d_19">
    <path d="M 92.89357 320.4 
L 92.895996 320.4 
L 92.920256 320.4 
L 93.162861 320.4 
L 93.534393 320.4 
L 94.092327 311.327341 
L 94.82922 299.90693 
L 95.860605 290.634455 
L 97.134793 283.452446 
L 98.408982 278.203335 
L 99.943016 272.751579 
L 102.226696 265.054868 
L 103.670839 260.27178 
L 105.845777 253.027337 
L 107.34886 248.042664 
L 109.517454 240.815762 
L 111.054165 235.719836 
L 113.413455 227.851066 
L 114.910673 222.894534 
L 116.943392 216.148705 
L 118.49283 211.033558 
L 120.695319 203.750741 
L 122.232624 198.713926 
L 124.302309 191.954636 
L 125.873729 186.889183 
L 128.106618 179.778521 
L 129.678388 174.907683 
L 131.83985 168.425845 
L 133.464778 163.805645 
L 135.811743 157.645095 
L 137.433757 153.842625 
L 139.650653 149.391542 
L 141.324489 146.656953 
L 143.780043 143.684042 
L 145.515771 142.281389 
L 147.645459 141.270824 
L 149.317662 140.943796 
L 151.307127 140.989469 
L 153.296592 141.41693 
L 155.286057 142.151013 
L 157.275522 143.140305 
L 159.264987 144.357274 
L 161.254451 145.79947 
L 163.332456 147.576392 
L 165.637401 149.969409 
L 168.191283 153.422392 
L 171.084853 159.320147 
L 173.978423 171.29234 
L 174.036294 171.688734 
L 174.325651 173.851851 
L 174.475872 175.105059 
L 174.601136 176.211694 
L 174.689311 177.010974 
L 174.803173 178.049955 
L 174.895884 178.896749 
L 175.822988 187.486866 
L 176.206064 190.991752 
L 177.720978 205.403594 
L 178.268827 210.419482 
L 179.866292 225.648966 
L 180.578288 232.15694 
L 182.198493 247.487909 
L 183.065427 255.326073 
L 184.855016 271.979273 
L 185.865501 280.692358 
L 187.86576 297.769806 
L 189.10461 306.699536 
L 191.787256 320.4 
L 193.600826 320.4 
L 196.494396 320.4 
L 198.772488 320.4 
L 201.666058 320.4 
L 204.559628 320.4 
L 207.453198 320.4 
L 210.346768 320.4 
L 213.240337 320.4 
L 216.133907 320.4 
L 219.027477 320.4 
L 221.921047 320.4 
L 224.814617 320.4 
L 227.708187 320.4 
L 230.601757 320.4 
L 233.495326 320.4 
L 236.388896 320.4 
L 239.282466 320.4 
L 242.176036 320.4 
L 245.069606 320.4 
L 247.963176 320.4 
L 250.856745 320.4 
L 253.750315 320.4 
L 256.643885 320.4 
L 259.537455 320.4 
L 262.431025 320.4 
L 265.324595 320.4 
L 268.218164 320.4 
L 271.111734 320.4 
L 274.005304 320.4 
L 276.898874 320.4 
L 279.792444 320.4 
L 282.686014 320.4 
L 285.579584 320.4 
L 288.473153 320.4 
L 291.366723 320.4 
L 294.260293 320.4 
L 297.153863 320.4 
L 300.047433 320.4 
L 302.941003 320.4 
L 305.834572 320.4 
L 308.728142 320.4 
L 311.621712 320.4 
L 314.515282 320.4 
L 317.408852 320.4 
L 320.302422 320.4 
L 323.195992 320.4 
L 324.379157 320.4 
" clip-path="url(#p745e06c2e7)" style="fill: none; stroke: #006400; stroke-width: 1.5; stroke-linecap: square"/>
   </g>
   <g id="line2d_20">
    <path d="M 92.89357 320.4 
L 92.894404 320.4 
L 92.902741 320.4 
L 92.986111 320.4 
L 93.274644 320.4 
L 93.476339 320.4 
L 94.128864 307.805761 
L 94.528651 300.230105 
L 95.778627 285.538956 
L 96.443081 280.37517 
L 98.420154 269.645352 
L 99.319066 265.976785 
L 101.402621 258.711154 
L 102.491604 255.288074 
L 104.626212 248.799258 
L 105.856688 245.134347 
L 108.008966 238.704571 
L 109.347332 234.721591 
L 111.502857 228.269149 
L 112.922884 224.03343 
L 115.070824 217.598267 
L 116.550151 213.184157 
L 118.69304 206.767736 
L 120.215956 202.227081 
L 122.56255 195.201844 
L 124.068554 190.722621 
L 126.158357 184.498554 
L 127.72636 179.8554 
L 130.012128 173.08853 
L 131.583964 168.483538 
L 133.762202 162.140348 
L 135.388562 157.479761 
L 137.774748 150.760854 
L 139.425655 146.2639 
L 141.747181 140.19621 
L 143.466518 135.972338 
L 145.990592 130.301457 
L 147.717287 126.854243 
L 150.465011 122.204669 
L 152.247936 119.739948 
L 154.319974 117.411269 
L 155.940575 115.955037 
L 157.724262 114.680104 
L 159.50795 113.700328 
L 161.003915 113.071909 
L 162.506602 112.591451 
L 164.009288 112.240226 
L 165.337364 112.02256 
L 166.719571 111.876239 
L 168.655035 111.790053 
L 170.680621 111.82824 
L 173.574191 112.078632 
L 176.46776 112.539775 
L 179.36133 113.211714 
L 182.2549 114.119476 
L 185.14847 115.315586 
L 188.04204 116.887966 
L 190.93561 118.979068 
L 193.829179 121.832078 
L 196.722749 125.912983 
L 198.169534 128.701548 
L 198.717787 129.947735 
L 199.349767 131.535045 
L 199.544673 132.055607 
L 199.792605 132.72981 
L 199.997309 133.290195 
L 200.202014 133.851037 
L 200.436214 134.492743 
L 200.908268 135.786482 
L 203.801838 143.816118 
L 204.569097 145.920021 
L 207.462667 153.949624 
L 208.558829 156.958101 
L 211.452399 164.987653 
L 212.881531 168.914842 
L 215.775101 176.944313 
L 217.52208 181.752152 
L 220.41565 189.781499 
L 222.444952 195.375263 
L 225.338522 203.40442 
L 227.604804 209.661016 
L 230.498374 217.689887 
L 233.391944 225.718543 
L 236.285513 233.746934 
L 239.179083 241.774998 
L 242.072653 249.802663 
L 244.966223 257.829839 
L 247.859793 265.856417 
L 250.753363 273.882272 
L 253.646933 281.90726 
L 256.540502 289.931226 
L 259.434072 297.954017 
L 262.327642 305.975516 
L 265.221212 313.995707 
L 268.114782 320.4 
L 271.008352 320.4 
L 273.901921 320.4 
L 276.795491 320.4 
L 279.689061 320.4 
L 282.582631 320.4 
L 285.476201 320.4 
L 288.369771 320.4 
L 291.263341 320.4 
L 294.15691 320.4 
L 297.05048 320.4 
L 299.94405 320.4 
L 302.83762 320.4 
L 305.73119 320.4 
L 308.62476 320.4 
L 311.518329 320.4 
L 314.411899 320.4 
L 317.305469 320.4 
L 320.199039 320.4 
L 323.092609 320.4 
L 324.379157 320.4 
" clip-path="url(#p745e06c2e7)" style="fill: none; stroke: #8b4513; stroke-width: 1.5; stroke-linecap: square"/>
   </g>
  </g>
  <g id="axes_2">
   <g id="patch_7">
    <path d="M 374.727273 320.4 
L 612 320.4 
L 612 43.2 
L 374.727273 43.2 
z
" style="fill: #ffffff"/>
   </g>
   <g id="matplotlib.axis_3">
    <g id="xtick_10">
     <g id="line2d_21">
      <g>
       <use xlink:href="#m849e6174eb" x="377.620843" y="320.4" style="stroke: #000000; stroke-width: 0.8"/>
      </g>
     </g>
     <g id="text_21">
      <!-- 0 -->
      <g transform="translate(373.039843 338.34175) scale(0.144 -0.144)">
       <use xlink:href="#DejaVuSans-30"/>
      </g>
     </g>
    </g>
    <g id="xtick_11">
     <g id="line2d_22">
      <g>
       <use xlink:href="#m849e6174eb" x="406.556541" y="320.4" style="stroke: #000000; stroke-width: 0.8"/>
      </g>
     </g>
     <g id="text_22">
      <!-- 1 -->
      <g transform="translate(401.975541 338.34175) scale(0.144 -0.144)">
       <use xlink:href="#DejaVuSans-31"/>
      </g>
     </g>
    </g>
    <g id="xtick_12">
     <g id="line2d_23">
      <g>
       <use xlink:href="#m849e6174eb" x="435.492239" y="320.4" style="stroke: #000000; stroke-width: 0.8"/>
      </g>
     </g>
     <g id="text_23">
      <!-- 2 -->
      <g transform="translate(430.911239 338.34175) scale(0.144 -0.144)">
       <use xlink:href="#DejaVuSans-32"/>
      </g>
     </g>
    </g>
    <g id="xtick_13">
     <g id="line2d_24">
      <g>
       <use xlink:href="#m849e6174eb" x="464.427938" y="320.4" style="stroke: #000000; stroke-width: 0.8"/>
      </g>
     </g>
     <g id="text_24">
      <!-- 3 -->
      <g transform="translate(459.846938 338.34175) scale(0.144 -0.144)">
       <use xlink:href="#DejaVuSans-33"/>
      </g>
     </g>
    </g>
    <g id="xtick_14">
     <g id="line2d_25">
      <g>
       <use xlink:href="#m849e6174eb" x="493.363636" y="320.4" style="stroke: #000000; stroke-width: 0.8"/>
      </g>
     </g>
     <g id="text_25">
      <!-- 4 -->
      <g transform="translate(488.782636 338.34175) scale(0.144 -0.144)">
       <use xlink:href="#DejaVuSans-34"/>
      </g>
     </g>
    </g>
    <g id="xtick_15">
     <g id="line2d_26">
      <g>
       <use xlink:href="#m849e6174eb" x="522.299335" y="320.4" style="stroke: #000000; stroke-width: 0.8"/>
      </g>
     </g>
     <g id="text_26">
      <!-- 5 -->
      <g transform="translate(517.718335 338.34175) scale(0.144 -0.144)">
       <use xlink:href="#DejaVuSans-35"/>
      </g>
     </g>
    </g>
    <g id="xtick_16">
     <g id="line2d_27">
      <g>
       <use xlink:href="#m849e6174eb" x="551.235033" y="320.4" style="stroke: #000000; stroke-width: 0.8"/>
      </g>
     </g>
     <g id="text_27">
      <!-- 6 -->
      <g transform="translate(546.654033 338.34175) scale(0.144 -0.144)">
       <use xlink:href="#DejaVuSans-36"/>
      </g>
     </g>
    </g>
    <g id="xtick_17">
     <g id="line2d_28">
      <g>
       <use xlink:href="#m849e6174eb" x="580.170732" y="320.4" style="stroke: #000000; stroke-width: 0.8"/>
      </g>
     </g>
     <g id="text_28">
      <!-- 7 -->
      <g transform="translate(575.589732 338.34175) scale(0.144 -0.144)">
       <use xlink:href="#DejaVuSans-37"/>
      </g>
     </g>
    </g>
    <g id="xtick_18">
     <g id="line2d_29">
      <g>
       <use xlink:href="#m849e6174eb" x="609.10643" y="320.4" style="stroke: #000000; stroke-width: 0.8"/>
      </g>
     </g>
     <g id="text_29">
      <!-- 8 -->
      <g transform="translate(604.52543 338.34175) scale(0.144 -0.144)">
       <use xlink:href="#DejaVuSans-38"/>
      </g>
     </g>
    </g>
    <g id="text_30">
     <!-- Time (d) -->
     <g transform="translate(453.238636 359.9255) scale(0.192 -0.192)">
      <use xlink:href="#DejaVuSans-54"/>
      <use xlink:href="#DejaVuSans-69" x="57.958984"/>
      <use xlink:href="#DejaVuSans-6d" x="85.742188"/>
      <use xlink:href="#DejaVuSans-65" x="183.154297"/>
      <use xlink:href="#DejaVuSans-20" x="244.677734"/>
      <use xlink:href="#DejaVuSans-28" x="276.464844"/>
      <use xlink:href="#DejaVuSans-64" x="315.478516"/>
      <use xlink:href="#DejaVuSans-29" x="378.955078"/>
     </g>
    </g>
   </g>
   <g id="matplotlib.axis_4">
    <g id="ytick_10">
     <g id="line2d_30">
      <g>
       <use xlink:href="#m384d73ed69" x="374.727273" y="320.4" style="stroke: #000000; stroke-width: 0.8"/>
      </g>
     </g>
     <g id="text_31">
      <!-- 4.5 -->
      <g transform="translate(344.826773 325.870875) scale(0.144 -0.144)">
       <defs>
        <path id="DejaVuSans-2e" d="M 684 794 
L 1344 794 
L 1344 0 
L 684 0 
L 684 794 
z
" transform="scale(0.015625)"/>
       </defs>
       <use xlink:href="#DejaVuSans-34"/>
       <use xlink:href="#DejaVuSans-2e" x="63.623047"/>
       <use xlink:href="#DejaVuSans-35" x="95.410156"/>
      </g>
     </g>
    </g>
    <g id="ytick_11">
     <g id="line2d_31">
      <g>
       <use xlink:href="#m384d73ed69" x="374.727273" y="277.753846" style="stroke: #000000; stroke-width: 0.8"/>
      </g>
     </g>
     <g id="text_32">
      <!-- 5.0 -->
      <g transform="translate(344.826773 283.224721) scale(0.144 -0.144)">
       <use xlink:href="#DejaVuSans-35"/>
       <use xlink:href="#DejaVuSans-2e" x="63.623047"/>
       <use xlink:href="#DejaVuSans-30" x="95.410156"/>
      </g>
     </g>
    </g>
    <g id="ytick_12">
     <g id="line2d_32">
      <g>
       <use xlink:href="#m384d73ed69" x="374.727273" y="235.107692" style="stroke: #000000; stroke-width: 0.8"/>
      </g>
     </g>
     <g id="text_33">
      <!-- 5.5 -->
      <g transform="translate(344.826773 240.578567) scale(0.144 -0.144)">
       <use xlink:href="#DejaVuSans-35"/>
       <use xlink:href="#DejaVuSans-2e" x="63.623047"/>
       <use xlink:href="#DejaVuSans-35" x="95.410156"/>
      </g>
     </g>
    </g>
    <g id="ytick_13">
     <g id="line2d_33">
      <g>
       <use xlink:href="#m384d73ed69" x="374.727273" y="192.461538" style="stroke: #000000; stroke-width: 0.8"/>
      </g>
     </g>
     <g id="text_34">
      <!-- 6.0 -->
      <g transform="translate(344.826773 197.932413) scale(0.144 -0.144)">
       <use xlink:href="#DejaVuSans-36"/>
       <use xlink:href="#DejaVuSans-2e" x="63.623047"/>
       <use xlink:href="#DejaVuSans-30" x="95.410156"/>
      </g>
     </g>
    </g>
    <g id="ytick_14">
     <g id="line2d_34">
      <g>
       <use xlink:href="#m384d73ed69" x="374.727273" y="149.815385" style="stroke: #000000; stroke-width: 0.8"/>
      </g>
     </g>
     <g id="text_35">
      <!-- 6.5 -->
      <g transform="translate(344.826773 155.28626) scale(0.144 -0.144)">
       <use xlink:href="#DejaVuSans-36"/>
       <use xlink:href="#DejaVuSans-2e" x="63.623047"/>
       <use xlink:href="#DejaVuSans-35" x="95.410156"/>
      </g>
     </g>
    </g>
    <g id="ytick_15">
     <g id="line2d_35">
      <g>
       <use xlink:href="#m384d73ed69" x="374.727273" y="107.169231" style="stroke: #000000; stroke-width: 0.8"/>
      </g>
     </g>
     <g id="text_36">
      <!-- 7.0 -->
      <g transform="translate(344.826773 112.640106) scale(0.144 -0.144)">
       <use xlink:href="#DejaVuSans-37"/>
       <use xlink:href="#DejaVuSans-2e" x="63.623047"/>
       <use xlink:href="#DejaVuSans-30" x="95.410156"/>
      </g>
     </g>
    </g>
    <g id="ytick_16">
     <g id="line2d_36">
      <g>
       <use xlink:href="#m384d73ed69" x="374.727273" y="64.523077" style="stroke: #000000; stroke-width: 0.8"/>
      </g>
     </g>
     <g id="text_37">
      <!-- 7.5 -->
      <g transform="translate(344.826773 69.993952) scale(0.144 -0.144)">
       <use xlink:href="#DejaVuSans-37"/>
       <use xlink:href="#DejaVuSans-2e" x="63.623047"/>
       <use xlink:href="#DejaVuSans-35" x="95.410156"/>
      </g>
     </g>
    </g>
    <g id="text_38">
     <!-- Log10(CD8TE) -->
     <g transform="translate(336.833773 250.7895) rotate(-90) scale(0.192 -0.192)">
      <defs>
       <path id="DejaVuSans-43" d="M 4122 4306 
L 4122 3641 
Q 3803 3938 3442 4084 
Q 3081 4231 2675 4231 
Q 1875 4231 1450 3742 
Q 1025 3253 1025 2328 
Q 1025 1406 1450 917 
Q 1875 428 2675 428 
Q 3081 428 3442 575 
Q 3803 722 4122 1019 
L 4122 359 
Q 3791 134 3420 21 
Q 3050 -91 2638 -91 
Q 1578 -91 968 557 
Q 359 1206 359 2328 
Q 359 3453 968 4101 
Q 1578 4750 2638 4750 
Q 3056 4750 3426 4639 
Q 3797 4528 4122 4306 
z
" transform="scale(0.015625)"/>
       <path id="DejaVuSans-44" d="M 1259 4147 
L 1259 519 
L 2022 519 
Q 2988 519 3436 956 
Q 3884 1394 3884 2338 
Q 3884 3275 3436 3711 
Q 2988 4147 2022 4147 
L 1259 4147 
z
M 628 4666 
L 1925 4666 
Q 3281 4666 3915 4102 
Q 4550 3538 4550 2338 
Q 4550 1131 3912 565 
Q 3275 0 1925 0 
L 628 0 
L 628 4666 
z
" transform="scale(0.015625)"/>
       <path id="DejaVuSans-45" d="M 628 4666 
L 3578 4666 
L 3578 4134 
L 1259 4134 
L 1259 2753 
L 3481 2753 
L 3481 2222 
L 1259 2222 
L 1259 531 
L 3634 531 
L 3634 0 
L 628 0 
L 628 4666 
z
" transform="scale(0.015625)"/>
      </defs>
      <use xlink:href="#DejaVuSans-4c"/>
      <use xlink:href="#DejaVuSans-6f" x="53.962891"/>
      <use xlink:href="#DejaVuSans-67" x="115.144531"/>
      <use xlink:href="#DejaVuSans-31" x="178.621094"/>
      <use xlink:href="#DejaVuSans-30" x="242.244141"/>
      <use xlink:href="#DejaVuSans-28" x="305.867188"/>
      <use xlink:href="#DejaVuSans-43" x="344.880859"/>
      <use xlink:href="#DejaVuSans-44" x="414.705078"/>
      <use xlink:href="#DejaVuSans-38" x="491.707031"/>
      <use xlink:href="#DejaVuSans-54" x="555.330078"/>
      <use xlink:href="#DejaVuSans-45" x="616.414062"/>
      <use xlink:href="#DejaVuSans-29" x="679.597656"/>
     </g>
    </g>
   </g>
   <g id="patch_8">
    <path d="M 374.727273 320.4 
L 374.727273 43.2 
" style="fill: none; stroke: #000000; stroke-width: 0.8; stroke-linejoin: miter; stroke-linecap: square"/>
   </g>
   <g id="patch_9">
    <path d="M 612 320.4 
L 612 43.2 
" style="fill: none; stroke: #000000; stroke-width: 0.8; stroke-linejoin: miter; stroke-linecap: square"/>
   </g>
   <g id="patch_10">
    <path d="M 374.727273 320.4 
L 612 320.4 
" style="fill: none; stroke: #000000; stroke-width: 0.8; stroke-linejoin: miter; stroke-linecap: square"/>
   </g>
   <g id="patch_11">
    <path d="M 374.727273 43.2 
L 612 43.2 
" style="fill: none; stroke: #000000; stroke-width: 0.8; stroke-linejoin: miter; stroke-linecap: square"/>
   </g>
   <g id="PolyCollection_3">
    <defs>
     <path id="mc0abe3ca1e" d="M 377.620843 -88.403462 
L 377.620843 -88.403462 
L 377.623269 -88.403462 
L 377.647529 -88.403462 
L 377.890134 -88.403462 
L 378.261666 -88.403462 
L 378.8196 -88.403462 
L 379.556492 -88.403462 
L 380.587877 -88.403462 
L 381.862066 -88.403462 
L 383.136254 -88.403462 
L 384.670288 -88.403462 
L 386.953969 -88.403462 
L 388.398112 -88.403462 
L 390.57305 -88.403462 
L 392.076133 -88.403463 
L 394.244727 -88.403463 
L 395.781438 -88.403465 
L 398.140728 -88.403471 
L 399.637946 -88.403479 
L 401.670665 -88.403502 
L 403.220103 -88.403534 
L 405.422592 -88.403623 
L 406.959897 -88.403726 
L 409.029582 -88.403975 
L 410.601002 -88.404269 
L 412.83389 -88.405007 
L 414.40566 -88.405793 
L 416.567123 -88.407676 
L 418.192051 -88.409687 
L 420.539015 -88.414762 
L 422.16103 -88.420069 
L 424.377926 -88.432192 
L 426.051761 -88.445587 
L 428.507316 -88.478967 
L 430.243044 -88.515092 
L 432.372732 -88.586366 
L 434.044934 -88.667009 
L 436.034399 -88.814888 
L 438.023864 -89.02615 
L 440.013329 -89.349152 
L 442.002794 -89.812901 
L 443.992259 -90.465071 
L 445.981724 -91.397549 
L 448.059729 -92.650421 
L 450.364674 -94.483073 
L 452.918556 -97.182006 
L 455.812125 -101.011828 
L 458.705695 -105.593033 
L 458.763567 -105.691684 
L 459.052924 -106.184941 
L 459.203145 -106.441018 
L 459.328409 -106.654551 
L 459.416584 -106.804861 
L 459.530446 -106.998957 
L 459.623156 -107.156997 
L 460.550261 -108.798286 
L 460.933337 -109.491008 
L 462.44825 -112.289153 
L 462.9961 -113.316688 
L 464.593565 -116.343587 
L 465.305561 -117.699055 
L 466.925766 -120.771974 
L 467.7927 -122.401162 
L 469.582289 -125.696461 
L 470.592773 -127.515476 
L 472.593032 -130.962661 
L 473.831883 -133.013942 
L 476.514529 -137.099137 
L 478.328099 -139.690083 
L 481.221668 -143.303377 
L 483.499761 -145.768342 
L 486.393331 -148.450711 
L 489.286901 -150.63018 
L 492.18047 -152.336614 
L 495.07404 -153.191911 
L 497.96761 -153.424274 
L 500.86118 -153.336026 
L 503.75475 -152.969756 
L 506.64832 -152.365366 
L 509.54189 -151.43404 
L 512.435459 -150.320305 
L 515.329029 -149.080132 
L 518.222599 -147.719883 
L 521.116169 -146.307847 
L 524.009739 -144.859576 
L 526.903309 -143.387841 
L 529.796878 -141.903027 
L 532.690448 -140.413501 
L 535.584018 -138.925958 
L 538.477588 -137.445721 
L 541.371158 -135.977012 
L 544.264728 -134.52317 
L 547.158298 -133.086841 
L 550.051867 -131.670129 
L 552.945437 -130.236128 
L 555.839007 -128.784149 
L 558.732577 -127.357884 
L 561.626147 -125.958661 
L 564.519717 -124.587566 
L 567.413286 -123.245488 
L 570.306856 -121.933158 
L 573.200426 -120.651177 
L 576.093996 -119.400033 
L 578.987566 -118.180119 
L 581.881136 -116.991743 
L 584.774706 -115.835132 
L 587.668275 -114.701197 
L 590.561845 -113.571799 
L 593.455415 -112.47668 
L 596.348985 -111.415797 
L 599.242555 -110.389032 
L 602.136125 -109.396207 
L 605.029694 -108.437087 
L 607.923264 -107.510471 
L 609.10643 -107.138322 
L 609.10643 -114.903239 
L 609.10643 -114.903239 
L 607.923264 -115.336405 
L 605.029694 -116.407603 
L 602.136125 -117.50693 
L 599.242555 -118.634263 
L 596.348985 -119.789438 
L 593.455415 -120.972242 
L 590.561845 -122.182419 
L 587.668275 -123.419669 
L 584.774706 -124.683643 
L 581.881136 -125.973941 
L 578.987566 -127.290115 
L 576.093996 -128.631652 
L 573.200426 -129.997978 
L 570.306856 -131.388437 
L 567.413286 -132.80228 
L 564.519717 -134.238641 
L 561.626147 -135.696507 
L 558.732577 -137.174679 
L 555.839007 -138.671722 
L 552.945437 -140.185897 
L 550.051867 -141.715077 
L 547.158298 -143.256645 
L 544.264728 -144.807364 
L 541.371158 -146.363223 
L 538.477588 -147.919256 
L 535.584018 -149.469329 
L 532.690448 -151.0059 
L 529.796878 -152.519755 
L 526.903309 -153.999719 
L 524.009739 -155.43236 
L 521.116169 -156.801685 
L 518.222599 -158.133633 
L 515.329029 -159.382393 
L 512.435459 -160.510767 
L 509.54189 -161.491061 
L 506.64832 -162.291969 
L 503.75475 -162.878515 
L 500.86118 -163.212106 
L 497.96761 -163.250693 
L 495.07404 -162.94909 
L 492.18047 -162.259487 
L 489.286901 -161.404771 
L 486.393331 -160.585136 
L 483.499761 -159.274077 
L 481.221668 -157.834496 
L 478.328099 -155.553048 
L 476.514529 -153.706378 
L 473.831883 -150.645297 
L 472.593032 -148.955017 
L 470.592773 -146.052363 
L 469.582289 -144.415442 
L 467.7927 -141.365161 
L 466.925766 -139.766366 
L 465.305561 -136.672073 
L 464.593565 -135.242761 
L 462.9961 -131.903209 
L 462.44825 -130.726578 
L 460.933337 -127.375453 
L 460.550261 -126.5249 
L 459.623156 -124.423073 
L 459.530446 -124.211742 
L 459.416584 -123.951736 
L 459.328409 -123.749855 
L 459.203145 -123.463059 
L 459.052924 -123.118111 
L 458.763567 -122.453521 
L 458.705695 -122.320603 
L 455.812125 -115.670231 
L 452.918556 -109.297185 
L 450.364674 -104.157678 
L 448.059729 -100.210893 
L 445.981724 -97.165769 
L 443.992259 -94.815244 
L 442.002794 -92.973744 
L 440.013329 -91.584316 
L 438.023864 -90.571431 
L 436.034399 -89.855105 
L 434.044934 -89.361421 
L 432.372732 -89.072464 
L 430.243044 -88.822433 
L 428.507316 -88.695185 
L 426.051761 -88.570088 
L 424.377926 -88.518492 
L 422.16103 -88.472454 
L 420.539015 -88.450815 
L 418.192051 -88.430684 
L 416.567123 -88.421785 
L 414.40566 -88.414291 
L 412.83389 -88.410599 
L 410.601002 -88.407506 
L 409.029582 -88.406041 
L 406.959897 -88.4049 
L 405.422592 -88.404347 
L 403.220103 -88.403901 
L 401.670665 -88.403707 
L 399.637946 -88.403574 
L 398.140728 -88.403522 
L 395.781438 -88.403482 
L 394.244727 -88.403471 
L 392.076133 -88.403465 
L 390.57305 -88.403463 
L 388.398112 -88.403462 
L 386.953969 -88.403462 
L 384.670288 -88.403462 
L 383.136254 -88.403462 
L 381.862066 -88.403462 
L 380.587877 -88.403462 
L 379.556492 -88.403462 
L 378.8196 -88.403462 
L 378.261666 -88.403462 
L 377.890134 -88.403462 
L 377.647529 -88.403462 
L 377.623269 -88.403462 
L 377.620843 -88.403462 
z
" style="stroke: #006400; stroke-opacity: 0.2"/>
    </defs>
    <g clip-path="url(#p15079cd7f3)">
     <use xlink:href="#mc0abe3ca1e" x="0" y="360" style="fill: #006400; fill-opacity: 0.2; stroke: #006400; stroke-opacity: 0.2"/>
    </g>
   </g>
   <g id="PolyCollection_4">
    <defs>
     <path id="m91ad70fdc3" d="M 377.620843 -162.383692 
L 377.620843 -162.383692 
L 377.621676 -162.383692 
L 377.630013 -162.383692 
L 377.713383 -162.383692 
L 378.001916 -162.383692 
L 378.203612 -162.383692 
L 378.856137 -162.383692 
L 379.255924 -162.383692 
L 380.505899 -162.383692 
L 381.170353 -162.383692 
L 383.147427 -162.383692 
L 384.046339 -162.383692 
L 386.129893 -162.383692 
L 387.218877 -162.383692 
L 389.353484 -162.383692 
L 390.583961 -162.383692 
L 392.736238 -162.383693 
L 394.074605 -162.383695 
L 396.23013 -162.383702 
L 397.650156 -162.383711 
L 399.798097 -162.383741 
L 401.277424 -162.38378 
L 403.420312 -162.383886 
L 404.943229 -162.384013 
L 407.289823 -162.384359 
L 408.795827 -162.384707 
L 410.88563 -162.38548 
L 412.453632 -162.386341 
L 414.739401 -162.388327 
L 416.311237 -162.390328 
L 418.489475 -162.394573 
L 420.115834 -162.399157 
L 422.50202 -162.409655 
L 424.152928 -162.42026 
L 426.474454 -162.443339 
L 428.193791 -162.468373 
L 430.717864 -162.526724 
L 432.444559 -162.585796 
L 435.192284 -162.739056 
L 436.975209 -162.888024 
L 439.047247 -163.144613 
L 440.667847 -163.424591 
L 442.451535 -163.850792 
L 444.235222 -164.434843 
L 445.731188 -165.078586 
L 447.233874 -165.906831 
L 448.736561 -166.94967 
L 450.064637 -168.084871 
L 451.446844 -169.49453 
L 453.382308 -171.881556 
L 455.407893 -174.980973 
L 458.301463 -180.399372 
L 461.195033 -186.872505 
L 464.088603 -193.98407 
L 466.982173 -201.408479 
L 469.875743 -208.763854 
L 472.769312 -215.771133 
L 475.662882 -222.240426 
L 478.556452 -228.059438 
L 481.450022 -233.178811 
L 482.896807 -235.43648 
L 483.44506 -236.292014 
L 484.07704 -237.204894 
L 484.271946 -237.481398 
L 484.519878 -237.833126 
L 484.724582 -238.118918 
L 484.929286 -238.387345 
L 485.163487 -238.69445 
L 485.635541 -239.313452 
L 488.529111 -242.72681 
L 489.29637 -243.52432 
L 492.18994 -245.998778 
L 493.286102 -246.76969 
L 496.179672 -248.254917 
L 497.608804 -248.737667 
L 500.502373 -249.288528 
L 502.249352 -249.433807 
L 505.142922 -249.243513 
L 507.172224 -248.906459 
L 510.065794 -248.161288 
L 512.332077 -247.423786 
L 515.225647 -246.313429 
L 518.119216 -245.045125 
L 521.012786 -243.649651 
L 523.906356 -242.153526 
L 526.799926 -240.57932 
L 529.693496 -238.946016 
L 532.587066 -237.269403 
L 535.480635 -235.562478 
L 538.374205 -233.835843 
L 541.267775 -232.098077 
L 544.161345 -230.356083 
L 547.054915 -228.615388 
L 549.948485 -226.880418 
L 552.842055 -225.145798 
L 555.735624 -223.389627 
L 558.629194 -221.648202 
L 561.522764 -219.92365 
L 564.416334 -218.217749 
L 567.309904 -216.532009 
L 570.203474 -214.867731 
L 573.097043 -213.226058 
L 575.990613 -211.608014 
L 578.884183 -210.014525 
L 581.777753 -208.446442 
L 584.671323 -206.90455 
L 587.564893 -205.389585 
L 590.458462 -203.901946 
L 593.352032 -202.444875 
L 596.245602 -201.016255 
L 599.139172 -199.612814 
L 602.032742 -198.242767 
L 604.926312 -196.902202 
L 607.819882 -195.592421 
L 609.10643 -195.016857 
L 609.10643 -203.394935 
L 609.10643 -203.394935 
L 607.819882 -204.005074 
L 604.926312 -205.393613 
L 602.032742 -206.807946 
L 599.139172 -208.244331 
L 596.245602 -209.702881 
L 593.352032 -211.183403 
L 590.458462 -212.688528 
L 587.564893 -214.213602 
L 584.671323 -215.758137 
L 581.777753 -217.323614 
L 578.884183 -218.908304 
L 575.990613 -220.511429 
L 573.097043 -222.132138 
L 570.203474 -223.769489 
L 567.309904 -225.422417 
L 564.416334 -227.089697 
L 561.522764 -228.769892 
L 558.629194 -230.461288 
L 555.735624 -232.161812 
L 552.842055 -233.86893 
L 549.948485 -235.579517 
L 547.054915 -237.28971 
L 544.161345 -238.994724 
L 541.267775 -240.688642 
L 538.374205 -242.406516 
L 535.480635 -244.126422 
L 532.587066 -245.812982 
L 529.693496 -247.45367 
L 526.799926 -249.033398 
L 523.906356 -250.534169 
L 521.012786 -251.934744 
L 518.119216 -253.210329 
L 515.225647 -254.332308 
L 512.332077 -255.268029 
L 510.065794 -255.839606 
L 507.172224 -256.347677 
L 505.142922 -256.507864 
L 502.249352 -256.707839 
L 500.502373 -256.904739 
L 497.608804 -256.917821 
L 496.179672 -256.793213 
L 493.286102 -256.201599 
L 492.18994 -255.798443 
L 489.29637 -254.502015 
L 488.529111 -254.024036 
L 485.635541 -251.928062 
L 485.163487 -251.516618 
L 484.929286 -251.305361 
L 484.724582 -251.116498 
L 484.519878 -250.924235 
L 484.271946 -250.684664 
L 484.07704 -250.493073 
L 483.44506 -249.81177 
L 482.896807 -249.186707 
L 481.450022 -247.537228 
L 478.556452 -243.57416 
L 475.662882 -238.762134 
L 472.769312 -233.07181 
L 469.875743 -226.511198 
L 466.982173 -219.146346 
L 464.088603 -211.127779 
L 461.195033 -202.717751 
L 458.301463 -194.303717 
L 455.407893 -186.352882 
L 453.382308 -181.358186 
L 451.446844 -177.129685 
L 450.064637 -174.529494 
L 448.736561 -172.351203 
L 447.233874 -170.2469 
L 445.731188 -168.509973 
L 444.235222 -167.109829 
L 442.451535 -165.807043 
L 440.667847 -164.84873 
L 439.047247 -164.18753 
L 436.975209 -163.5976 
L 435.192284 -163.229475 
L 432.444559 -162.877385 
L 430.717864 -162.725109 
L 428.193791 -162.590012 
L 426.474454 -162.526446 
L 424.152928 -162.472804 
L 422.50202 -162.44612 
L 420.115834 -162.421862 
L 418.489475 -162.410309 
L 416.311237 -162.400388 
L 414.739401 -162.395328 
L 412.453632 -162.390632 
L 410.88563 -162.388388 
L 408.795827 -162.386489 
L 407.289823 -162.385547 
L 404.943229 -162.384653 
L 403.420312 -162.384278 
L 401.277424 -162.383979 
L 399.798097 -162.383853 
L 397.650156 -162.38376 
L 396.23013 -162.383726 
L 394.074605 -162.383704 
L 392.736238 -162.383697 
L 390.583961 -162.383693 
L 389.353484 -162.383693 
L 387.218877 -162.383692 
L 386.129893 -162.383692 
L 384.046339 -162.383692 
L 383.147427 -162.383692 
L 381.170353 -162.383692 
L 380.505899 -162.383692 
L 379.255924 -162.383692 
L 378.856137 -162.383692 
L 378.203612 -162.383692 
L 378.001916 -162.383692 
L 377.713383 -162.383692 
L 377.630013 -162.383692 
L 377.621676 -162.383692 
L 377.620843 -162.383692 
z
" style="stroke: #8b4513; stroke-opacity: 0.2"/>
    </defs>
    <g clip-path="url(#p15079cd7f3)">
     <use xlink:href="#m91ad70fdc3" x="0" y="360" style="fill: #8b4513; fill-opacity: 0.2; stroke: #8b4513; stroke-opacity: 0.2"/>
    </g>
   </g>
   <g id="PathCollection_3">
    <g clip-path="url(#p15079cd7f3)">
     <use xlink:href="#m38a7896b87" x="348.685144" y="187.292667" style="fill: #8b4513; fill-opacity: 0.8; stroke: #000000; stroke-opacity: 0.8"/>
     <use xlink:href="#m38a7896b87" x="377.620843" y="197.616308" style="fill: #8b4513; fill-opacity: 0.8; stroke: #000000; stroke-opacity: 0.8"/>
     <use xlink:href="#m38a7896b87" x="406.556541" y="184.387561" style="fill: #8b4513; fill-opacity: 0.8; stroke: #000000; stroke-opacity: 0.8"/>
     <use xlink:href="#m38a7896b87" x="435.492239" y="193.110461" style="fill: #8b4513; fill-opacity: 0.8; stroke: #000000; stroke-opacity: 0.8"/>
     <use xlink:href="#m38a7896b87" x="464.427938" y="150.23223" style="fill: #8b4513; fill-opacity: 0.8; stroke: #000000; stroke-opacity: 0.8"/>
     <use xlink:href="#m38a7896b87" x="493.363636" y="119.558957" style="fill: #8b4513; fill-opacity: 0.8; stroke: #000000; stroke-opacity: 0.8"/>
     <use xlink:href="#m38a7896b87" x="522.299335" y="125.022805" style="fill: #8b4513; fill-opacity: 0.8; stroke: #000000; stroke-opacity: 0.8"/>
     <use xlink:href="#m38a7896b87" x="551.235033" y="132.332602" style="fill: #8b4513; fill-opacity: 0.8; stroke: #000000; stroke-opacity: 0.8"/>
     <use xlink:href="#m38a7896b87" x="580.170732" y="123.420878" style="fill: #8b4513; fill-opacity: 0.8; stroke: #000000; stroke-opacity: 0.8"/>
    </g>
   </g>
   <g id="PathCollection_4">
    <g clip-path="url(#p15079cd7f3)">
     <use xlink:href="#m907ecbe7c9" x="377.620843" y="271.596538" style="fill: #006400; fill-opacity: 0.8; stroke: #000000; stroke-opacity: 0.8"/>
     <use xlink:href="#m907ecbe7c9" x="406.556541" y="271.503435" style="fill: #006400; fill-opacity: 0.8; stroke: #000000; stroke-opacity: 0.8"/>
     <use xlink:href="#m907ecbe7c9" x="435.492239" y="239.978391" style="fill: #006400; fill-opacity: 0.8; stroke: #000000; stroke-opacity: 0.8"/>
     <use xlink:href="#m907ecbe7c9" x="464.427938" y="233.081172" style="fill: #006400; fill-opacity: 0.8; stroke: #000000; stroke-opacity: 0.8"/>
     <use xlink:href="#m907ecbe7c9" x="493.363636" y="208.398587" style="fill: #006400; fill-opacity: 0.8; stroke: #000000; stroke-opacity: 0.8"/>
     <use xlink:href="#m907ecbe7c9" x="522.299335" y="229.435453" style="fill: #006400; fill-opacity: 0.8; stroke: #000000; stroke-opacity: 0.8"/>
     <use xlink:href="#m907ecbe7c9" x="551.235033" y="205.03575" style="fill: #006400; fill-opacity: 0.8; stroke: #000000; stroke-opacity: 0.8"/>
     <use xlink:href="#m907ecbe7c9" x="580.170732" y="226.566409" style="fill: #006400; fill-opacity: 0.8; stroke: #000000; stroke-opacity: 0.8"/>
    </g>
   </g>
   <g id="line2d_37">
    <path d="M 377.620843 271.596538 
L 377.623269 271.596538 
L 377.647529 271.596538 
L 377.890134 271.596538 
L 378.261666 271.596538 
L 378.8196 271.596538 
L 379.556492 271.596538 
L 380.587877 271.596538 
L 381.862066 271.596538 
L 383.136254 271.596538 
L 384.670288 271.596538 
L 386.953969 271.596538 
L 388.398112 271.596538 
L 390.57305 271.596537 
L 392.076133 271.596537 
L 394.244727 271.596535 
L 395.781438 271.596532 
L 398.140728 271.596518 
L 399.637946 271.596499 
L 401.670665 271.596449 
L 403.220103 271.596378 
L 405.422592 271.596191 
L 406.959897 271.595967 
L 409.029582 271.595463 
L 410.601002 271.59485 
L 412.83389 271.593418 
L 414.40566 271.591828 
L 416.567123 271.588375 
L 418.192051 271.584357 
L 420.539015 271.57504 
L 422.16103 271.565002 
L 424.377926 271.543567 
L 426.051761 271.51867 
L 428.507316 271.45995 
L 430.243044 271.394767 
L 432.372732 271.272492 
L 434.044934 271.12969 
L 436.034399 270.88105 
L 438.023864 270.512147 
L 440.013329 269.975484 
L 442.002794 269.212976 
L 443.992259 268.158902 
L 445.981724 266.74625 
L 448.059729 264.824081 
L 450.364674 262.106857 
L 452.918556 258.373435 
L 455.812125 253.332309 
L 458.705695 247.667735 
L 458.763567 247.550153 
L 459.052924 246.960394 
L 459.203145 246.653072 
L 459.328409 246.396253 
L 459.416584 246.215186 
L 459.530446 245.981037 
L 459.623156 245.790118 
L 460.550261 243.870236 
L 460.933337 243.072702 
L 462.44825 239.912209 
L 462.9961 238.771636 
L 464.593565 235.477475 
L 465.305561 234.031189 
L 466.925766 230.813826 
L 467.7927 229.141625 
L 469.582289 225.821855 
L 470.592773 224.032603 
L 472.593032 220.693267 
L 473.831883 218.764677 
L 476.514529 214.975822 
L 478.328099 212.712753 
L 481.221668 209.600188 
L 483.499761 207.562843 
L 486.393331 205.473107 
L 489.286901 203.899821 
L 492.18047 202.796787 
L 495.07404 202.116232 
L 497.96761 201.810637 
L 500.86118 201.833988 
L 503.75475 202.142627 
L 506.64832 202.695812 
L 509.54189 203.456077 
L 512.435459 204.389423 
L 515.329029 205.465388 
L 518.222599 206.657013 
L 521.116169 207.940721 
L 524.009739 209.296134 
L 526.903309 210.705836 
L 529.796878 212.1551 
L 532.690448 213.631604 
L 535.584018 215.125129 
L 538.477588 216.627278 
L 541.371158 218.131197 
L 544.264728 219.631323 
L 547.158298 221.123165 
L 550.051867 222.603103 
L 552.945437 224.068221 
L 555.839007 225.516166 
L 558.732577 226.945031 
L 561.626147 228.353262 
L 564.519717 229.739583 
L 567.413286 231.102935 
L 570.306856 232.44243 
L 573.200426 233.757321 
L 576.093996 235.046968 
L 578.987566 236.310827 
L 581.881136 237.548428 
L 584.774706 238.759368 
L 587.668275 239.943307 
L 590.561845 241.099957 
L 593.455415 242.229081 
L 596.348985 243.330493 
L 599.242555 244.404053 
L 602.136125 245.449666 
L 605.029694 246.467286 
L 607.923264 247.456907 
L 609.10643 247.853461 
" clip-path="url(#p15079cd7f3)" style="fill: none; stroke: #006400; stroke-width: 1.5; stroke-linecap: square"/>
   </g>
   <g id="line2d_38">
    <path d="M 377.620843 197.616308 
L 377.621676 197.616308 
L 377.630013 197.616308 
L 377.713383 197.616308 
L 378.001916 197.616308 
L 378.203612 197.616308 
L 378.856137 197.616308 
L 379.255924 197.616308 
L 380.505899 197.616308 
L 381.170353 197.616308 
L 383.147427 197.616308 
L 384.046339 197.616308 
L 386.129893 197.616308 
L 387.218877 197.616308 
L 389.353484 197.616308 
L 390.583961 197.616307 
L 392.736238 197.616305 
L 394.074605 197.616302 
L 396.23013 197.61629 
L 397.650156 197.616273 
L 399.798097 197.61622 
L 401.277424 197.616152 
L 403.420312 197.615974 
L 404.943229 197.615762 
L 407.289823 197.615205 
L 408.795827 197.614635 
L 410.88563 197.613421 
L 412.453632 197.612057 
L 414.739401 197.609003 
L 416.311237 197.605871 
L 418.489475 197.599404 
L 420.115834 197.592301 
L 422.50202 197.576403 
L 424.152928 197.559944 
L 426.474454 197.524932 
L 428.193791 197.48614 
L 430.717864 197.397605 
L 432.444559 197.305692 
L 435.192284 197.073814 
L 436.975209 196.84216 
L 439.047247 196.451366 
L 440.667847 196.022004 
L 442.451535 195.37896 
L 444.235222 194.504425 
L 445.731188 193.547882 
L 447.233874 192.339269 
L 448.736561 190.843356 
L 450.064637 189.255174 
L 451.446844 187.316318 
L 453.382308 184.090573 
L 455.407893 180.094038 
L 458.301463 173.423225 
L 461.195033 165.967506 
L 464.088603 158.166689 
L 466.982173 150.432341 
L 469.875743 143.084815 
L 472.769312 136.339226 
L 475.662882 130.319231 
L 478.556452 125.079519 
L 481.450022 120.627005 
L 482.896807 118.687028 
L 483.44506 118.000753 
L 484.07704 117.242596 
L 484.271946 117.015799 
L 484.519878 116.732055 
L 484.724582 116.501773 
L 484.929286 116.27508 
L 485.163487 116.020103 
L 485.635541 115.520273 
L 488.529111 112.856443 
L 489.29637 112.259169 
L 492.18994 110.392643 
L 493.286102 109.835202 
L 496.179672 108.72491 
L 497.608804 108.356036 
L 500.502373 107.933542 
L 502.249352 107.870587 
L 505.142922 108.04389 
L 507.172224 108.350234 
L 510.065794 109.011778 
L 512.332077 109.690857 
L 515.225647 110.729094 
L 518.119216 111.927825 
L 521.012786 113.256273 
L 523.906356 114.687918 
L 526.799926 116.200183 
L 529.693496 117.774085 
L 532.587066 119.393834 
L 535.480635 121.046444 
L 538.374205 122.721331 
L 541.267775 124.40994 
L 544.161345 126.105407 
L 547.054915 127.802248 
L 549.948485 129.496092 
L 552.842055 131.183453 
L 555.735624 132.861543 
L 558.629194 134.528115 
L 561.522764 136.181335 
L 564.416334 137.819687 
L 567.309904 139.441896 
L 570.203474 141.046865 
L 573.097043 142.633631 
L 575.990613 144.201334 
L 578.884183 145.749192 
L 581.777753 147.276478 
L 584.671323 148.782514 
L 587.564893 150.266659 
L 590.458462 151.728305 
L 593.352032 153.16687 
L 596.245602 154.581801 
L 599.139172 155.972572 
L 602.032742 157.338681 
L 604.926312 158.679657 
L 607.819882 159.995053 
L 609.10643 160.571528 
" clip-path="url(#p15079cd7f3)" style="fill: none; stroke: #8b4513; stroke-width: 1.5; stroke-linecap: square"/>
   </g>
  </g>
  <g id="legend_1">
   <g id="patch_12">
    <path d="M 769.44 71.724 
L 867.528 71.724 
Q 871.368 71.724 871.368 67.884 
L 871.368 13.44 
Q 871.368 9.6 867.528 9.6 
L 769.44 9.6 
Q 765.6 9.6 765.6 13.44 
L 765.6 67.884 
Q 765.6 71.724 769.44 71.724 
z
" style="fill: #ffffff; opacity: 0.8; stroke: #cccccc; stroke-linejoin: miter"/>
   </g>
   <g id="PathCollection_5">
    <g>
     <use xlink:href="#m38a7896b87" x="792.48" y="26.829" style="fill: #8b4513; fill-opacity: 0.8; stroke: #000000; stroke-opacity: 0.8"/>
    </g>
   </g>
   <g id="text_39">
    <!-- 207 -->
    <g transform="translate(827.04 31.869) scale(0.192 -0.192)">
     <use xlink:href="#DejaVuSans-32"/>
     <use xlink:href="#DejaVuSans-30" x="63.623047"/>
     <use xlink:href="#DejaVuSans-37" x="127.246094"/>
    </g>
   </g>
   <g id="PathCollection_6">
    <g>
     <use xlink:href="#m907ecbe7c9" x="792.48" y="55.011" style="fill: #006400; fill-opacity: 0.8; stroke: #000000; stroke-opacity: 0.8"/>
    </g>
   </g>
   <g id="text_40">
    <!-- 311 -->
    <g transform="translate(827.04 60.051) scale(0.192 -0.192)">
     <use xlink:href="#DejaVuSans-33"/>
     <use xlink:href="#DejaVuSans-31" x="63.623047"/>
     <use xlink:href="#DejaVuSans-31" x="127.246094"/>
    </g>
   </g>
  </g>
 </g>
 <defs>
  <clipPath id="p745e06c2e7">
   <rect x="90" y="43.2" width="237.272727" height="277.2"/>
  </clipPath>
  <clipPath id="p15079cd7f3">
   <rect x="374.727273" y="43.2" width="237.272727" height="277.2"/>
  </clipPath>
 </defs>
</svg>
