<?xml version="1.0" encoding="utf-8" standalone="no"?>
<!DOCTYPE svg PUBLIC "-//W3C//DTD SVG 1.1//EN"
  "http://www.w3.org/Graphics/SVG/1.1/DTD/svg11.dtd">
<svg xmlns:xlink="http://www.w3.org/1999/xlink" width="720pt" height="360pt" viewBox="0 0 720 360" xmlns="http://www.w3.org/2000/svg" version="1.1">
 <metadata>
  <rdf:RDF xmlns:dc="http://purl.org/dc/elements/1.1/" xmlns:cc="http://creativecommons.org/ns#" xmlns:rdf="http://www.w3.org/1999/02/22-rdf-syntax-ns#">
   <cc:Work>
    <dc:type rdf:resource="http://purl.org/dc/dcmitype/StillImage"/>
    <dc:date>2024-10-29T11:59:15.372559</dc:date>
    <dc:format>image/svg+xml</dc:format>
    <dc:creator>
     <cc:Agent>
      <dc:title>Matplotlib v3.9.2, https://matplotlib.org/</dc:title>
     </cc:Agent>
    </dc:creator>
   </cc:Work>
  </rdf:RDF>
 </metadata>
 <defs>
  <style type="text/css">*{stroke-linejoin: round; stroke-linecap: butt}</style>
 </defs>
 <g id="figure_1">
  <g id="patch_1">
   <path d="M 0 360 
L 720 360 
L 720 0 
L 0 0 
z
" style="fill: #ffffff"/>
  </g>
  <g id="axes_1">
   <g id="patch_2">
    <path d="M 90 320.4 
L 343.636364 320.4 
L 343.636364 43.2 
L 90 43.2 
z
" style="fill: #ffffff"/>
   </g>
   <g id="matplotlib.axis_1">
    <g id="xtick_1">
     <g id="line2d_1">
      <defs>
       <path id="mcd3b32f1b2" d="M 0 0 
L 0 3.5 
" style="stroke: #000000; stroke-width: 0.8"/>
      </defs>
      <g>
       <use xlink:href="#mcd3b32f1b2" x="93.093126" y="320.4" style="stroke: #000000; stroke-width: 0.8"/>
      </g>
     </g>
     <g id="text_1">
      <!-- 0 -->
      <g transform="translate(88.512126 338.34175) scale(0.144 -0.144)">
       <defs>
        <path id="DejaVuSans-30" d="M 2034 4250 
Q 1547 4250 1301 3770 
Q 1056 3291 1056 2328 
Q 1056 1369 1301 889 
Q 1547 409 2034 409 
Q 2525 409 2770 889 
Q 3016 1369 3016 2328 
Q 3016 3291 2770 3770 
Q 2525 4250 2034 4250 
z
M 2034 4750 
Q 2819 4750 3233 4129 
Q 3647 3509 3647 2328 
Q 3647 1150 3233 529 
Q 2819 -91 2034 -91 
Q 1250 -91 836 529 
Q 422 1150 422 2328 
Q 422 3509 836 4129 
Q 1250 4750 2034 4750 
z
" transform="scale(0.015625)"/>
       </defs>
       <use xlink:href="#DejaVuSans-30"/>
      </g>
     </g>
    </g>
    <g id="xtick_2">
     <g id="line2d_2">
      <g>
       <use xlink:href="#mcd3b32f1b2" x="124.02439" y="320.4" style="stroke: #000000; stroke-width: 0.8"/>
      </g>
     </g>
     <g id="text_2">
      <!-- 1 -->
      <g transform="translate(119.44339 338.34175) scale(0.144 -0.144)">
       <defs>
        <path id="DejaVuSans-31" d="M 794 531 
L 1825 531 
L 1825 4091 
L 703 3866 
L 703 4441 
L 1819 4666 
L 2450 4666 
L 2450 531 
L 3481 531 
L 3481 0 
L 794 0 
L 794 531 
z
" transform="scale(0.015625)"/>
       </defs>
       <use xlink:href="#DejaVuSans-31"/>
      </g>
     </g>
    </g>
    <g id="xtick_3">
     <g id="line2d_3">
      <g>
       <use xlink:href="#mcd3b32f1b2" x="154.955654" y="320.4" style="stroke: #000000; stroke-width: 0.8"/>
      </g>
     </g>
     <g id="text_3">
      <!-- 2 -->
      <g transform="translate(150.374654 338.34175) scale(0.144 -0.144)">
       <defs>
        <path id="DejaVuSans-32" d="M 1228 531 
L 3431 531 
L 3431 0 
L 469 0 
L 469 531 
Q 828 903 1448 1529 
Q 2069 2156 2228 2338 
Q 2531 2678 2651 2914 
Q 2772 3150 2772 3378 
Q 2772 3750 2511 3984 
Q 2250 4219 1831 4219 
Q 1534 4219 1204 4116 
Q 875 4013 500 3803 
L 500 4441 
Q 881 4594 1212 4672 
Q 1544 4750 1819 4750 
Q 2544 4750 2975 4387 
Q 3406 4025 3406 3419 
Q 3406 3131 3298 2873 
Q 3191 2616 2906 2266 
Q 2828 2175 2409 1742 
Q 1991 1309 1228 531 
z
" transform="scale(0.015625)"/>
       </defs>
       <use xlink:href="#DejaVuSans-32"/>
      </g>
     </g>
    </g>
    <g id="xtick_4">
     <g id="line2d_4">
      <g>
       <use xlink:href="#mcd3b32f1b2" x="185.886918" y="320.4" style="stroke: #000000; stroke-width: 0.8"/>
      </g>
     </g>
     <g id="text_4">
      <!-- 3 -->
      <g transform="translate(181.305918 338.34175) scale(0.144 -0.144)">
       <defs>
        <path id="DejaVuSans-33" d="M 2597 2516 
Q 3050 2419 3304 2112 
Q 3559 1806 3559 1356 
Q 3559 666 3084 287 
Q 2609 -91 1734 -91 
Q 1441 -91 1130 -33 
Q 819 25 488 141 
L 488 750 
Q 750 597 1062 519 
Q 1375 441 1716 441 
Q 2309 441 2620 675 
Q 2931 909 2931 1356 
Q 2931 1769 2642 2001 
Q 2353 2234 1838 2234 
L 1294 2234 
L 1294 2753 
L 1863 2753 
Q 2328 2753 2575 2939 
Q 2822 3125 2822 3475 
Q 2822 3834 2567 4026 
Q 2313 4219 1838 4219 
Q 1578 4219 1281 4162 
Q 984 4106 628 3988 
L 628 4550 
Q 988 4650 1302 4700 
Q 1616 4750 1894 4750 
Q 2613 4750 3031 4423 
Q 3450 4097 3450 3541 
Q 3450 3153 3228 2886 
Q 3006 2619 2597 2516 
z
" transform="scale(0.015625)"/>
       </defs>
       <use xlink:href="#DejaVuSans-33"/>
      </g>
     </g>
    </g>
    <g id="xtick_5">
     <g id="line2d_5">
      <g>
       <use xlink:href="#mcd3b32f1b2" x="216.818182" y="320.4" style="stroke: #000000; stroke-width: 0.8"/>
      </g>
     </g>
     <g id="text_5">
      <!-- 4 -->
      <g transform="translate(212.237182 338.34175) scale(0.144 -0.144)">
       <defs>
        <path id="DejaVuSans-34" d="M 2419 4116 
L 825 1625 
L 2419 1625 
L 2419 4116 
z
M 2253 4666 
L 3047 4666 
L 3047 1625 
L 3713 1625 
L 3713 1100 
L 3047 1100 
L 3047 0 
L 2419 0 
L 2419 1100 
L 313 1100 
L 313 1709 
L 2253 4666 
z
" transform="scale(0.015625)"/>
       </defs>
       <use xlink:href="#DejaVuSans-34"/>
      </g>
     </g>
    </g>
    <g id="xtick_6">
     <g id="line2d_6">
      <g>
       <use xlink:href="#mcd3b32f1b2" x="247.749446" y="320.4" style="stroke: #000000; stroke-width: 0.8"/>
      </g>
     </g>
     <g id="text_6">
      <!-- 5 -->
      <g transform="translate(243.168446 338.34175) scale(0.144 -0.144)">
       <defs>
        <path id="DejaVuSans-35" d="M 691 4666 
L 3169 4666 
L 3169 4134 
L 1269 4134 
L 1269 2991 
Q 1406 3038 1543 3061 
Q 1681 3084 1819 3084 
Q 2600 3084 3056 2656 
Q 3513 2228 3513 1497 
Q 3513 744 3044 326 
Q 2575 -91 1722 -91 
Q 1428 -91 1123 -41 
Q 819 9 494 109 
L 494 744 
Q 775 591 1075 516 
Q 1375 441 1709 441 
Q 2250 441 2565 725 
Q 2881 1009 2881 1497 
Q 2881 1984 2565 2268 
Q 2250 2553 1709 2553 
Q 1456 2553 1204 2497 
Q 953 2441 691 2322 
L 691 4666 
z
" transform="scale(0.015625)"/>
       </defs>
       <use xlink:href="#DejaVuSans-35"/>
      </g>
     </g>
    </g>
    <g id="xtick_7">
     <g id="line2d_7">
      <g>
       <use xlink:href="#mcd3b32f1b2" x="278.68071" y="320.4" style="stroke: #000000; stroke-width: 0.8"/>
      </g>
     </g>
     <g id="text_7">
      <!-- 6 -->
      <g transform="translate(274.09971 338.34175) scale(0.144 -0.144)">
       <defs>
        <path id="DejaVuSans-36" d="M 2113 2584 
Q 1688 2584 1439 2293 
Q 1191 2003 1191 1497 
Q 1191 994 1439 701 
Q 1688 409 2113 409 
Q 2538 409 2786 701 
Q 3034 994 3034 1497 
Q 3034 2003 2786 2293 
Q 2538 2584 2113 2584 
z
M 3366 4563 
L 3366 3988 
Q 3128 4100 2886 4159 
Q 2644 4219 2406 4219 
Q 1781 4219 1451 3797 
Q 1122 3375 1075 2522 
Q 1259 2794 1537 2939 
Q 1816 3084 2150 3084 
Q 2853 3084 3261 2657 
Q 3669 2231 3669 1497 
Q 3669 778 3244 343 
Q 2819 -91 2113 -91 
Q 1303 -91 875 529 
Q 447 1150 447 2328 
Q 447 3434 972 4092 
Q 1497 4750 2381 4750 
Q 2619 4750 2861 4703 
Q 3103 4656 3366 4563 
z
" transform="scale(0.015625)"/>
       </defs>
       <use xlink:href="#DejaVuSans-36"/>
      </g>
     </g>
    </g>
    <g id="xtick_8">
     <g id="line2d_8">
      <g>
       <use xlink:href="#mcd3b32f1b2" x="309.611973" y="320.4" style="stroke: #000000; stroke-width: 0.8"/>
      </g>
     </g>
     <g id="text_8">
      <!-- 7 -->
      <g transform="translate(305.030973 338.34175) scale(0.144 -0.144)">
       <defs>
        <path id="DejaVuSans-37" d="M 525 4666 
L 3525 4666 
L 3525 4397 
L 1831 0 
L 1172 0 
L 2766 4134 
L 525 4134 
L 525 4666 
z
" transform="scale(0.015625)"/>
       </defs>
       <use xlink:href="#DejaVuSans-37"/>
      </g>
     </g>
    </g>
    <g id="xtick_9">
     <g id="line2d_9">
      <g>
       <use xlink:href="#mcd3b32f1b2" x="340.543237" y="320.4" style="stroke: #000000; stroke-width: 0.8"/>
      </g>
     </g>
     <g id="text_9">
      <!-- 8 -->
      <g transform="translate(335.962237 338.34175) scale(0.144 -0.144)">
       <defs>
        <path id="DejaVuSans-38" d="M 2034 2216 
Q 1584 2216 1326 1975 
Q 1069 1734 1069 1313 
Q 1069 891 1326 650 
Q 1584 409 2034 409 
Q 2484 409 2743 651 
Q 3003 894 3003 1313 
Q 3003 1734 2745 1975 
Q 2488 2216 2034 2216 
z
M 1403 2484 
Q 997 2584 770 2862 
Q 544 3141 544 3541 
Q 544 4100 942 4425 
Q 1341 4750 2034 4750 
Q 2731 4750 3128 4425 
Q 3525 4100 3525 3541 
Q 3525 3141 3298 2862 
Q 3072 2584 2669 2484 
Q 3125 2378 3379 2068 
Q 3634 1759 3634 1313 
Q 3634 634 3220 271 
Q 2806 -91 2034 -91 
Q 1263 -91 848 271 
Q 434 634 434 1313 
Q 434 1759 690 2068 
Q 947 2378 1403 2484 
z
M 1172 3481 
Q 1172 3119 1398 2916 
Q 1625 2713 2034 2713 
Q 2441 2713 2670 2916 
Q 2900 3119 2900 3481 
Q 2900 3844 2670 4047 
Q 2441 4250 2034 4250 
Q 1625 4250 1398 4047 
Q 1172 3844 1172 3481 
z
" transform="scale(0.015625)"/>
       </defs>
       <use xlink:href="#DejaVuSans-38"/>
      </g>
     </g>
    </g>
    <g id="text_10">
     <!-- Time (d) -->
     <g transform="translate(176.693182 359.9255) scale(0.192 -0.192)">
      <defs>
       <path id="DejaVuSans-54" d="M -19 4666 
L 3928 4666 
L 3928 4134 
L 2272 4134 
L 2272 0 
L 1638 0 
L 1638 4134 
L -19 4134 
L -19 4666 
z
" transform="scale(0.015625)"/>
       <path id="DejaVuSans-69" d="M 603 3500 
L 1178 3500 
L 1178 0 
L 603 0 
L 603 3500 
z
M 603 4863 
L 1178 4863 
L 1178 4134 
L 603 4134 
L 603 4863 
z
" transform="scale(0.015625)"/>
       <path id="DejaVuSans-6d" d="M 3328 2828 
Q 3544 3216 3844 3400 
Q 4144 3584 4550 3584 
Q 5097 3584 5394 3201 
Q 5691 2819 5691 2113 
L 5691 0 
L 5113 0 
L 5113 2094 
Q 5113 2597 4934 2840 
Q 4756 3084 4391 3084 
Q 3944 3084 3684 2787 
Q 3425 2491 3425 1978 
L 3425 0 
L 2847 0 
L 2847 2094 
Q 2847 2600 2669 2842 
Q 2491 3084 2119 3084 
Q 1678 3084 1418 2786 
Q 1159 2488 1159 1978 
L 1159 0 
L 581 0 
L 581 3500 
L 1159 3500 
L 1159 2956 
Q 1356 3278 1631 3431 
Q 1906 3584 2284 3584 
Q 2666 3584 2933 3390 
Q 3200 3197 3328 2828 
z
" transform="scale(0.015625)"/>
       <path id="DejaVuSans-65" d="M 3597 1894 
L 3597 1613 
L 953 1613 
Q 991 1019 1311 708 
Q 1631 397 2203 397 
Q 2534 397 2845 478 
Q 3156 559 3463 722 
L 3463 178 
Q 3153 47 2828 -22 
Q 2503 -91 2169 -91 
Q 1331 -91 842 396 
Q 353 884 353 1716 
Q 353 2575 817 3079 
Q 1281 3584 2069 3584 
Q 2775 3584 3186 3129 
Q 3597 2675 3597 1894 
z
M 3022 2063 
Q 3016 2534 2758 2815 
Q 2500 3097 2075 3097 
Q 1594 3097 1305 2825 
Q 1016 2553 972 2059 
L 3022 2063 
z
" transform="scale(0.015625)"/>
       <path id="DejaVuSans-20" transform="scale(0.015625)"/>
       <path id="DejaVuSans-28" d="M 1984 4856 
Q 1566 4138 1362 3434 
Q 1159 2731 1159 2009 
Q 1159 1288 1364 580 
Q 1569 -128 1984 -844 
L 1484 -844 
Q 1016 -109 783 600 
Q 550 1309 550 2009 
Q 550 2706 781 3412 
Q 1013 4119 1484 4856 
L 1984 4856 
z
" transform="scale(0.015625)"/>
       <path id="DejaVuSans-64" d="M 2906 2969 
L 2906 4863 
L 3481 4863 
L 3481 0 
L 2906 0 
L 2906 525 
Q 2725 213 2448 61 
Q 2172 -91 1784 -91 
Q 1150 -91 751 415 
Q 353 922 353 1747 
Q 353 2572 751 3078 
Q 1150 3584 1784 3584 
Q 2172 3584 2448 3432 
Q 2725 3281 2906 2969 
z
M 947 1747 
Q 947 1113 1208 752 
Q 1469 391 1925 391 
Q 2381 391 2643 752 
Q 2906 1113 2906 1747 
Q 2906 2381 2643 2742 
Q 2381 3103 1925 3103 
Q 1469 3103 1208 2742 
Q 947 2381 947 1747 
z
" transform="scale(0.015625)"/>
       <path id="DejaVuSans-29" d="M 513 4856 
L 1013 4856 
Q 1481 4119 1714 3412 
Q 1947 2706 1947 2009 
Q 1947 1309 1714 600 
Q 1481 -109 1013 -844 
L 513 -844 
Q 928 -128 1133 580 
Q 1338 1288 1338 2009 
Q 1338 2731 1133 3434 
Q 928 4138 513 4856 
z
" transform="scale(0.015625)"/>
      </defs>
      <use xlink:href="#DejaVuSans-54"/>
      <use xlink:href="#DejaVuSans-69" x="57.958984"/>
      <use xlink:href="#DejaVuSans-6d" x="85.742188"/>
      <use xlink:href="#DejaVuSans-65" x="183.154297"/>
      <use xlink:href="#DejaVuSans-20" x="244.677734"/>
      <use xlink:href="#DejaVuSans-28" x="276.464844"/>
      <use xlink:href="#DejaVuSans-64" x="315.478516"/>
      <use xlink:href="#DejaVuSans-29" x="378.955078"/>
     </g>
    </g>
   </g>
   <g id="matplotlib.axis_2">
    <g id="ytick_1">
     <g id="line2d_10">
      <defs>
       <path id="ma19e210b0a" d="M 0 0 
L -3.5 0 
" style="stroke: #000000; stroke-width: 0.8"/>
      </defs>
      <g>
       <use xlink:href="#ma19e210b0a" x="90" y="320.4" style="stroke: #000000; stroke-width: 0.8"/>
      </g>
     </g>
     <g id="text_11">
      <!-- 0 -->
      <g transform="translate(73.838 325.870875) scale(0.144 -0.144)">
       <use xlink:href="#DejaVuSans-30"/>
      </g>
     </g>
    </g>
    <g id="ytick_2">
     <g id="line2d_11">
      <g>
       <use xlink:href="#ma19e210b0a" x="90" y="286.8" style="stroke: #000000; stroke-width: 0.8"/>
      </g>
     </g>
     <g id="text_12">
      <!-- 1 -->
      <g transform="translate(73.838 292.270875) scale(0.144 -0.144)">
       <use xlink:href="#DejaVuSans-31"/>
      </g>
     </g>
    </g>
    <g id="ytick_3">
     <g id="line2d_12">
      <g>
       <use xlink:href="#ma19e210b0a" x="90" y="253.2" style="stroke: #000000; stroke-width: 0.8"/>
      </g>
     </g>
     <g id="text_13">
      <!-- 2 -->
      <g transform="translate(73.838 258.670875) scale(0.144 -0.144)">
       <use xlink:href="#DejaVuSans-32"/>
      </g>
     </g>
    </g>
    <g id="ytick_4">
     <g id="line2d_13">
      <g>
       <use xlink:href="#ma19e210b0a" x="90" y="219.6" style="stroke: #000000; stroke-width: 0.8"/>
      </g>
     </g>
     <g id="text_14">
      <!-- 3 -->
      <g transform="translate(73.838 225.070875) scale(0.144 -0.144)">
       <use xlink:href="#DejaVuSans-33"/>
      </g>
     </g>
    </g>
    <g id="ytick_5">
     <g id="line2d_14">
      <g>
       <use xlink:href="#ma19e210b0a" x="90" y="186" style="stroke: #000000; stroke-width: 0.8"/>
      </g>
     </g>
     <g id="text_15">
      <!-- 4 -->
      <g transform="translate(73.838 191.470875) scale(0.144 -0.144)">
       <use xlink:href="#DejaVuSans-34"/>
      </g>
     </g>
    </g>
    <g id="ytick_6">
     <g id="line2d_15">
      <g>
       <use xlink:href="#ma19e210b0a" x="90" y="152.4" style="stroke: #000000; stroke-width: 0.8"/>
      </g>
     </g>
     <g id="text_16">
      <!-- 5 -->
      <g transform="translate(73.838 157.870875) scale(0.144 -0.144)">
       <use xlink:href="#DejaVuSans-35"/>
      </g>
     </g>
    </g>
    <g id="ytick_7">
     <g id="line2d_16">
      <g>
       <use xlink:href="#ma19e210b0a" x="90" y="118.8" style="stroke: #000000; stroke-width: 0.8"/>
      </g>
     </g>
     <g id="text_17">
      <!-- 6 -->
      <g transform="translate(73.838 124.270875) scale(0.144 -0.144)">
       <use xlink:href="#DejaVuSans-36"/>
      </g>
     </g>
    </g>
    <g id="ytick_8">
     <g id="line2d_17">
      <g>
       <use xlink:href="#ma19e210b0a" x="90" y="85.2" style="stroke: #000000; stroke-width: 0.8"/>
      </g>
     </g>
     <g id="text_18">
      <!-- 7 -->
      <g transform="translate(73.838 90.670875) scale(0.144 -0.144)">
       <use xlink:href="#DejaVuSans-37"/>
      </g>
     </g>
    </g>
    <g id="ytick_9">
     <g id="line2d_18">
      <g>
       <use xlink:href="#ma19e210b0a" x="90" y="51.6" style="stroke: #000000; stroke-width: 0.8"/>
      </g>
     </g>
     <g id="text_19">
      <!-- 8 -->
      <g transform="translate(73.838 57.070875) scale(0.144 -0.144)">
       <use xlink:href="#DejaVuSans-38"/>
      </g>
     </g>
    </g>
    <g id="text_20">
     <!-- Log10(V) -->
     <g transform="translate(65.845 225.2235) rotate(-90) scale(0.192 -0.192)">
      <defs>
       <path id="DejaVuSans-4c" d="M 628 4666 
L 1259 4666 
L 1259 531 
L 3531 531 
L 3531 0 
L 628 0 
L 628 4666 
z
" transform="scale(0.015625)"/>
       <path id="DejaVuSans-6f" d="M 1959 3097 
Q 1497 3097 1228 2736 
Q 959 2375 959 1747 
Q 959 1119 1226 758 
Q 1494 397 1959 397 
Q 2419 397 2687 759 
Q 2956 1122 2956 1747 
Q 2956 2369 2687 2733 
Q 2419 3097 1959 3097 
z
M 1959 3584 
Q 2709 3584 3137 3096 
Q 3566 2609 3566 1747 
Q 3566 888 3137 398 
Q 2709 -91 1959 -91 
Q 1206 -91 779 398 
Q 353 888 353 1747 
Q 353 2609 779 3096 
Q 1206 3584 1959 3584 
z
" transform="scale(0.015625)"/>
       <path id="DejaVuSans-67" d="M 2906 1791 
Q 2906 2416 2648 2759 
Q 2391 3103 1925 3103 
Q 1463 3103 1205 2759 
Q 947 2416 947 1791 
Q 947 1169 1205 825 
Q 1463 481 1925 481 
Q 2391 481 2648 825 
Q 2906 1169 2906 1791 
z
M 3481 434 
Q 3481 -459 3084 -895 
Q 2688 -1331 1869 -1331 
Q 1566 -1331 1297 -1286 
Q 1028 -1241 775 -1147 
L 775 -588 
Q 1028 -725 1275 -790 
Q 1522 -856 1778 -856 
Q 2344 -856 2625 -561 
Q 2906 -266 2906 331 
L 2906 616 
Q 2728 306 2450 153 
Q 2172 0 1784 0 
Q 1141 0 747 490 
Q 353 981 353 1791 
Q 353 2603 747 3093 
Q 1141 3584 1784 3584 
Q 2172 3584 2450 3431 
Q 2728 3278 2906 2969 
L 2906 3500 
L 3481 3500 
L 3481 434 
z
" transform="scale(0.015625)"/>
       <path id="DejaVuSans-56" d="M 1831 0 
L 50 4666 
L 709 4666 
L 2188 738 
L 3669 4666 
L 4325 4666 
L 2547 0 
L 1831 0 
z
" transform="scale(0.015625)"/>
      </defs>
      <use xlink:href="#DejaVuSans-4c"/>
      <use xlink:href="#DejaVuSans-6f" x="53.962891"/>
      <use xlink:href="#DejaVuSans-67" x="115.144531"/>
      <use xlink:href="#DejaVuSans-31" x="178.621094"/>
      <use xlink:href="#DejaVuSans-30" x="242.244141"/>
      <use xlink:href="#DejaVuSans-28" x="305.867188"/>
      <use xlink:href="#DejaVuSans-56" x="344.880859"/>
      <use xlink:href="#DejaVuSans-29" x="413.289062"/>
     </g>
    </g>
   </g>
   <g id="patch_3">
    <path d="M 90 320.4 
L 90 43.2 
" style="fill: none; stroke: #000000; stroke-width: 0.8; stroke-linejoin: miter; stroke-linecap: square"/>
   </g>
   <g id="patch_4">
    <path d="M 343.636364 320.4 
L 343.636364 43.2 
" style="fill: none; stroke: #000000; stroke-width: 0.8; stroke-linejoin: miter; stroke-linecap: square"/>
   </g>
   <g id="patch_5">
    <path d="M 90 320.4 
L 343.636364 320.4 
" style="fill: none; stroke: #000000; stroke-width: 0.8; stroke-linejoin: miter; stroke-linecap: square"/>
   </g>
   <g id="patch_6">
    <path d="M 90 43.2 
L 343.636364 43.2 
" style="fill: none; stroke: #000000; stroke-width: 0.8; stroke-linejoin: miter; stroke-linecap: square"/>
   </g>
   <g id="PolyCollection_1">
    <defs>
     <path id="m10047da9ac" d="M 93.093126 -39.6 
L 93.093126 -39.6 
L 93.094305 -39.6 
L 93.106089 -39.6 
L 93.223934 -39.6 
L 93.858414 -39.6 
L 94.294397 -39.6 
L 95.736524 -39.6 
L 96.487731 -39.6 
L 98.826963 -45.138573 
L 99.66991 -48.802043 
L 101.486693 -56.761428 
L 102.499152 -61.086517 
L 104.476106 -69.289356 
L 105.585328 -73.829962 
L 107.466552 -81.534437 
L 108.661809 -86.45299 
L 110.546013 -94.052766 
L 111.796911 -99.071911 
L 113.651422 -106.486623 
L 114.944975 -111.689578 
L 116.989947 -119.868394 
L 118.256002 -124.94377 
L 120.00631 -131.935602 
L 121.326029 -137.223432 
L 123.238888 -144.867006 
L 124.551078 -150.047854 
L 126.33874 -157.113588 
L 127.686283 -162.406481 
L 129.628527 -169.998467 
L 130.983082 -175.248703 
L 133.106 -183.360873 
L 134.473928 -188.491402 
L 136.419965 -195.508823 
L 137.862051 -200.557467 
L 139.977269 -207.270464 
L 141.437466 -211.497193 
L 143.5043 -216.353551 
L 145.019398 -219.243339 
L 146.907593 -221.847295 
L 148.343474 -223.380819 
L 149.860753 -224.585712 
L 151.217712 -225.462786 
L 152.574671 -226.049298 
L 153.701118 -226.185213 
L 154.760954 -226.271836 
L 155.688008 -226.321533 
L 156.615061 -226.349459 
L 157.385404 -226.358377 
L 158.099622 -226.35583 
L 158.813839 -226.344487 
L 159.437627 -226.328062 
L 160.101345 -226.304524 
L 160.765063 -226.275205 
L 161.428781 -226.239954 
L 162.092499 -226.199541 
L 162.756218 -226.154793 
L 163.419936 -226.106035 
L 164.083654 -226.053574 
L 164.747372 -225.997735 
L 165.41109 -225.938537 
L 166.074808 -225.875975 
L 166.738526 -225.810889 
L 167.404725 -225.743249 
L 168.079728 -225.672558 
L 168.765066 -225.598055 
L 169.46498 -225.517864 
L 170.180728 -225.434497 
L 170.915517 -225.348911 
L 174.008643 -224.970599 
L 174.960456 -224.835022 
L 178.053582 -224.278833 
L 179.257061 -224.057086 
L 182.350188 -223.48217 
L 183.859394 -223.197434 
L 186.95252 -222.60979 
L 188.84598 -222.24734 
L 191.939106 -221.651869 
L 194.312315 -221.192912 
L 197.405441 -220.592666 
L 200.498568 -219.990574 
L 203.591694 -219.386921 
L 206.68482 -218.781789 
L 209.777947 -218.123805 
L 212.871073 -217.442857 
L 215.9642 -216.760143 
L 219.057326 -216.075228 
L 222.150452 -215.387475 
L 225.243579 -214.696021 
L 228.336705 -213.99974 
L 231.429832 -213.297197 
L 234.522958 -212.5866 
L 237.616084 -211.865736 
L 240.709211 -211.131907 
L 243.802337 -210.381843 
L 246.895464 -209.611607 
L 249.98859 -208.816476 
L 253.081716 -207.990794 
L 256.174843 -207.127781 
L 259.267969 -206.219281 
L 262.361095 -205.255421 
L 265.454222 -204.224142 
L 268.547348 -203.053346 
L 271.640475 -201.433841 
L 274.733601 -199.631183 
L 277.826727 -197.599608 
L 280.919854 -195.273218 
L 284.01298 -192.551639 
L 287.106107 -189.270215 
L 290.199233 -185.128991 
L 293.292359 -179.335271 
L 296.385486 -166.045103 
L 299.478612 -39.6 
L 302.571738 -39.6 
L 305.664865 -39.6 
L 308.757991 -39.6 
L 309.376617 -39.6 
L 309.442092 -39.6 
L 309.452433 -39.6 
L 309.473116 -39.6 
L 309.506126 -39.6 
L 309.521989 -39.6 
L 309.533952 -39.6 
L 309.539232 -39.6 
L 309.543068 -39.6 
L 309.543248 -39.6 
L 309.545047 -39.6 
L 309.546527 -39.6 
L 309.548703 -39.6 
L 309.549303 -39.6 
L 309.549423 -39.6 
L 309.550623 -39.6 
L 309.551483 -39.6 
L 309.552784 -39.6 
L 309.554379 -39.6 
L 309.556771 -39.6 
L 309.559846 -39.6 
L 309.563129 -39.6 
L 309.566894 -39.6 
L 309.57122 -39.6 
L 309.576367 -39.6 
L 309.582697 -39.6 
L 309.590899 -39.6 
L 309.602403 -39.6 
L 309.695484 -39.6 
L 310.033349 -39.6 
L 311.256006 -39.6 
L 312.956608 -39.6 
L 315.548145 -39.6 
L 318.440713 -39.6 
L 321.533839 -39.6 
L 324.626965 -39.6 
L 327.720092 -39.6 
L 330.813218 -39.6 
L 333.906345 -39.6 
L 336.999471 -39.6 
L 340.092597 -39.6 
L 340.543237 -39.6 
L 340.543237 -39.6 
L 340.543237 -39.6 
L 340.092597 -39.6 
L 336.999471 -39.6 
L 333.906345 -39.6 
L 330.813218 -39.6 
L 327.720092 -39.6 
L 324.626965 -39.6 
L 321.533839 -39.6 
L 318.440713 -39.6 
L 315.548145 -39.6 
L 312.956608 -39.6 
L 311.256006 -39.6 
L 310.033349 -39.6 
L 309.695484 -39.6 
L 309.602403 -39.6 
L 309.590899 -39.6 
L 309.582697 -39.6 
L 309.576367 -39.6 
L 309.57122 -39.6 
L 309.566894 -39.6 
L 309.563129 -39.6 
L 309.559846 -40.224611 
L 309.556771 -47.519644 
L 309.554379 -53.170374 
L 309.552784 -56.923436 
L 309.551483 -59.979284 
L 309.550623 -61.996524 
L 309.549423 -64.804698 
L 309.549303 -65.084361 
L 309.548703 -66.479548 
L 309.546527 -71.408472 
L 309.545047 -74.520729 
L 309.543248 -77.906554 
L 309.543068 -78.220046 
L 309.539232 -83.915669 
L 309.533952 -89.580193 
L 309.521989 -97.822993 
L 309.506126 -104.558343 
L 309.473116 -112.973023 
L 309.452433 -116.535574 
L 309.442092 -118.039367 
L 309.376617 -125.095972 
L 308.757991 -147.534547 
L 305.664865 -174.245374 
L 302.571738 -184.408331 
L 299.478612 -190.205391 
L 296.385486 -194.370035 
L 293.292359 -197.633808 
L 290.199233 -200.63622 
L 287.106107 -203.392104 
L 284.01298 -205.657711 
L 280.919854 -207.572268 
L 277.826727 -209.222644 
L 274.733601 -210.66698 
L 271.640475 -211.946317 
L 268.547348 -213.090871 
L 265.454222 -214.123676 
L 262.361095 -215.0628 
L 259.267969 -215.922772 
L 256.174843 -216.715514 
L 253.081716 -217.450985 
L 249.98859 -218.137617 
L 246.895464 -218.782637 
L 243.802337 -219.392283 
L 240.709211 -219.971975 
L 237.616084 -220.526436 
L 234.522958 -221.126252 
L 231.429832 -221.79468 
L 228.336705 -222.450444 
L 225.243579 -223.095871 
L 222.150452 -223.732945 
L 219.057326 -224.363333 
L 215.9642 -224.988405 
L 212.871073 -225.609253 
L 209.777947 -226.226708 
L 206.68482 -226.84135 
L 203.591694 -227.453511 
L 200.498568 -228.063264 
L 197.405441 -228.670399 
L 194.312315 -229.274368 
L 191.939106 -229.734712 
L 188.84598 -230.330942 
L 186.95252 -230.69126 
L 183.859394 -231.274823 
L 182.350188 -231.552998 
L 179.257061 -232.116081 
L 178.053582 -232.326735 
L 174.960456 -232.857027 
L 174.008643 -233.011078 
L 170.915517 -233.489482 
L 170.180728 -233.595699 
L 169.46498 -233.689134 
L 168.765066 -233.779089 
L 168.079728 -233.86717 
L 167.404725 -233.953923 
L 166.738526 -234.032468 
L 166.074808 -234.103985 
L 165.41109 -234.16627 
L 164.747372 -234.228554 
L 164.083654 -234.287581 
L 163.419936 -234.336136 
L 162.756218 -234.378619 
L 162.092499 -234.411924 
L 161.428781 -234.435783 
L 160.765063 -234.451715 
L 160.101345 -234.459106 
L 159.437627 -234.450841 
L 158.813839 -234.434066 
L 158.099622 -234.402445 
L 157.385404 -234.343619 
L 156.615061 -234.27535 
L 155.688008 -234.139415 
L 154.760954 -233.962241 
L 153.701118 -233.7209 
L 152.574671 -233.342003 
L 151.217712 -232.974372 
L 149.860753 -232.789452 
L 148.343474 -232.460724 
L 146.907593 -232.008922 
L 145.019398 -231.145828 
L 143.5043 -230.106637 
L 141.437466 -228.011231 
L 139.977269 -226.037801 
L 137.862051 -221.815544 
L 136.419965 -218.3345 
L 134.473928 -212.251523 
L 133.106 -207.478143 
L 130.983082 -199.009034 
L 129.628527 -193.309829 
L 127.686283 -184.718608 
L 126.33874 -178.62732 
L 124.551078 -170.405984 
L 123.238888 -164.318729 
L 121.326029 -155.403477 
L 120.00631 -149.233033 
L 118.256002 -141.021482 
L 116.989947 -135.073531 
L 114.944975 -125.472143 
L 113.651422 -119.403849 
L 111.796911 -110.65786 
L 110.546013 -104.773271 
L 108.661809 -95.905499 
L 107.466552 -90.289878 
L 105.585328 -81.738096 
L 104.476106 -77.004639 
L 102.499152 -68.693285 
L 101.486693 -64.539975 
L 99.66991 -57.151256 
L 98.826963 -53.592328 
L 96.487731 -43.032216 
L 95.736524 -41.045888 
L 94.294397 -39.6 
L 93.858414 -39.6 
L 93.223934 -39.6 
L 93.106089 -39.6 
L 93.094305 -39.6 
L 93.093126 -39.6 
z
" style="stroke: #40e0d0; stroke-opacity: 0.2"/>
    </defs>
    <g clip-path="url(#p30c50eb609)">
     <use xlink:href="#m10047da9ac" x="0" y="360" style="fill: #40e0d0; fill-opacity: 0.2; stroke: #40e0d0; stroke-opacity: 0.2"/>
    </g>
   </g>
   <g id="legend_1">
    <g id="patch_7">
     <path d="M 232.108364 86.742 
L 330.196364 86.742 
Q 334.036364 86.742 334.036364 82.902 
L 334.036364 56.64 
Q 334.036364 52.8 330.196364 52.8 
L 232.108364 52.8 
Q 228.268364 52.8 228.268364 56.64 
L 228.268364 82.902 
Q 228.268364 86.742 232.108364 86.742 
z
" style="fill: #ffffff; opacity: 0.8; stroke: #cccccc; stroke-linejoin: miter"/>
    </g>
    <g id="PathCollection_1">
     <defs>
      <path id="m973c423759" d="M 0 3 
C 0.795609 3 1.55874 2.683901 2.12132 2.12132 
C 2.683901 1.55874 3 0.795609 3 0 
C 3 -0.795609 2.683901 -1.55874 2.12132 -2.12132 
C 1.55874 -2.683901 0.795609 -3 0 -3 
C -0.795609 -3 -1.55874 -2.683901 -2.12132 -2.12132 
C -2.683901 -1.55874 -3 -0.795609 -3 0 
C -3 0.795609 -2.683901 1.55874 -2.12132 2.12132 
C -1.55874 2.683901 -0.795609 3 0 3 
z
" style="stroke: #000000; stroke-opacity: 0.8"/>
     </defs>
     <g>
      <use xlink:href="#m973c423759" x="255.148364" y="70.029" style="fill: #40e0d0; fill-opacity: 0.8; stroke: #000000; stroke-opacity: 0.8"/>
     </g>
    </g>
    <g id="text_21">
     <!-- 308 -->
     <g transform="translate(289.708364 75.069) scale(0.192 -0.192)">
      <use xlink:href="#DejaVuSans-33"/>
      <use xlink:href="#DejaVuSans-30" x="63.623047"/>
      <use xlink:href="#DejaVuSans-38" x="127.246094"/>
     </g>
    </g>
   </g>
   <g id="PathCollection_2">
    <g clip-path="url(#p30c50eb609)">
     <use xlink:href="#m973c423759" x="93.093126" y="320.4" style="fill: #40e0d0; fill-opacity: 0.8; stroke: #000000; stroke-opacity: 0.8"/>
     <use xlink:href="#m973c423759" x="124.02439" y="205.612065" style="fill: #40e0d0; fill-opacity: 0.8; stroke: #000000; stroke-opacity: 0.8"/>
     <use xlink:href="#m973c423759" x="154.955654" y="103.221336" style="fill: #40e0d0; fill-opacity: 0.8; stroke: #000000; stroke-opacity: 0.8"/>
     <use xlink:href="#m973c423759" x="185.886918" y="167.996685" style="fill: #40e0d0; fill-opacity: 0.8; stroke: #000000; stroke-opacity: 0.8"/>
     <use xlink:href="#m973c423759" x="216.818182" y="139.288802" style="fill: #40e0d0; fill-opacity: 0.8; stroke: #000000; stroke-opacity: 0.8"/>
     <use xlink:href="#m973c423759" x="247.749446" y="145.676899" style="fill: #40e0d0; fill-opacity: 0.8; stroke: #000000; stroke-opacity: 0.8"/>
     <use xlink:href="#m973c423759" x="278.68071" y="148.735746" style="fill: #40e0d0; fill-opacity: 0.8; stroke: #000000; stroke-opacity: 0.8"/>
     <use xlink:href="#m973c423759" x="309.611973" y="320.4" style="fill: #40e0d0; fill-opacity: 0.8; stroke: #000000; stroke-opacity: 0.8"/>
    </g>
   </g>
   <g id="line2d_19">
    <path d="M 93.093126 320.4 
L 96.487731 320.4 
L 98.826963 314.714327 
L 107.466552 276.160006 
L 130.983082 172.684158 
L 134.473928 158.814446 
L 136.419965 151.952071 
L 137.862051 147.446797 
L 139.977269 141.927859 
L 141.437466 138.897526 
L 143.5043 135.65462 
L 145.019398 133.932516 
L 146.907593 132.392625 
L 148.343474 131.564199 
L 149.860753 130.928367 
L 151.217712 130.520608 
L 153.701118 130.063388 
L 156.615061 129.859333 
L 160.101345 129.917723 
L 164.083654 130.233981 
L 169.46498 130.904971 
L 174.960456 131.746727 
L 188.84598 134.157444 
L 212.871073 138.598557 
L 228.336705 141.633575 
L 237.616084 143.619918 
L 246.895464 145.827124 
L 253.081716 147.475487 
L 259.267969 149.314508 
L 265.454222 151.399663 
L 271.640475 153.806298 
L 274.733601 155.16256 
L 277.826727 156.644579 
L 280.919854 158.276676 
L 284.01298 160.091256 
L 287.106107 162.133053 
L 290.199233 164.466551 
L 293.292359 167.189905 
L 296.385486 170.463748 
L 299.478612 174.579235 
L 302.571738 180.154564 
L 305.664865 188.940644 
L 308.757991 212.465453 
L 309.376617 234.904028 
L 309.521989 262.177007 
L 309.695484 320.4 
L 340.543237 320.4 
L 340.543237 320.4 
" clip-path="url(#p30c50eb609)" style="fill: none; stroke: #40e0d0; stroke-width: 1.5; stroke-linecap: square"/>
   </g>
  </g>
  <g id="axes_2">
   <g id="patch_8">
    <path d="M 394.363636 320.4 
L 648 320.4 
L 648 43.2 
L 394.363636 43.2 
z
" style="fill: #ffffff"/>
   </g>
   <g id="matplotlib.axis_3">
    <g id="xtick_10">
     <g id="line2d_20">
      <g>
       <use xlink:href="#mcd3b32f1b2" x="397.456763" y="320.4" style="stroke: #000000; stroke-width: 0.8"/>
      </g>
     </g>
     <g id="text_22">
      <!-- 0 -->
      <g transform="translate(392.875763 338.34175) scale(0.144 -0.144)">
       <use xlink:href="#DejaVuSans-30"/>
      </g>
     </g>
    </g>
    <g id="xtick_11">
     <g id="line2d_21">
      <g>
       <use xlink:href="#mcd3b32f1b2" x="428.388027" y="320.4" style="stroke: #000000; stroke-width: 0.8"/>
      </g>
     </g>
     <g id="text_23">
      <!-- 1 -->
      <g transform="translate(423.807027 338.34175) scale(0.144 -0.144)">
       <use xlink:href="#DejaVuSans-31"/>
      </g>
     </g>
    </g>
    <g id="xtick_12">
     <g id="line2d_22">
      <g>
       <use xlink:href="#mcd3b32f1b2" x="459.31929" y="320.4" style="stroke: #000000; stroke-width: 0.8"/>
      </g>
     </g>
     <g id="text_24">
      <!-- 2 -->
      <g transform="translate(454.73829 338.34175) scale(0.144 -0.144)">
       <use xlink:href="#DejaVuSans-32"/>
      </g>
     </g>
    </g>
    <g id="xtick_13">
     <g id="line2d_23">
      <g>
       <use xlink:href="#mcd3b32f1b2" x="490.250554" y="320.4" style="stroke: #000000; stroke-width: 0.8"/>
      </g>
     </g>
     <g id="text_25">
      <!-- 3 -->
      <g transform="translate(485.669554 338.34175) scale(0.144 -0.144)">
       <use xlink:href="#DejaVuSans-33"/>
      </g>
     </g>
    </g>
    <g id="xtick_14">
     <g id="line2d_24">
      <g>
       <use xlink:href="#mcd3b32f1b2" x="521.181818" y="320.4" style="stroke: #000000; stroke-width: 0.8"/>
      </g>
     </g>
     <g id="text_26">
      <!-- 4 -->
      <g transform="translate(516.600818 338.34175) scale(0.144 -0.144)">
       <use xlink:href="#DejaVuSans-34"/>
      </g>
     </g>
    </g>
    <g id="xtick_15">
     <g id="line2d_25">
      <g>
       <use xlink:href="#mcd3b32f1b2" x="552.113082" y="320.4" style="stroke: #000000; stroke-width: 0.8"/>
      </g>
     </g>
     <g id="text_27">
      <!-- 5 -->
      <g transform="translate(547.532082 338.34175) scale(0.144 -0.144)">
       <use xlink:href="#DejaVuSans-35"/>
      </g>
     </g>
    </g>
    <g id="xtick_16">
     <g id="line2d_26">
      <g>
       <use xlink:href="#mcd3b32f1b2" x="583.044346" y="320.4" style="stroke: #000000; stroke-width: 0.8"/>
      </g>
     </g>
     <g id="text_28">
      <!-- 6 -->
      <g transform="translate(578.463346 338.34175) scale(0.144 -0.144)">
       <use xlink:href="#DejaVuSans-36"/>
      </g>
     </g>
    </g>
    <g id="xtick_17">
     <g id="line2d_27">
      <g>
       <use xlink:href="#mcd3b32f1b2" x="613.97561" y="320.4" style="stroke: #000000; stroke-width: 0.8"/>
      </g>
     </g>
     <g id="text_29">
      <!-- 7 -->
      <g transform="translate(609.39461 338.34175) scale(0.144 -0.144)">
       <use xlink:href="#DejaVuSans-37"/>
      </g>
     </g>
    </g>
    <g id="xtick_18">
     <g id="line2d_28">
      <g>
       <use xlink:href="#mcd3b32f1b2" x="644.906874" y="320.4" style="stroke: #000000; stroke-width: 0.8"/>
      </g>
     </g>
     <g id="text_30">
      <!-- 8 -->
      <g transform="translate(640.325874 338.34175) scale(0.144 -0.144)">
       <use xlink:href="#DejaVuSans-38"/>
      </g>
     </g>
    </g>
    <g id="text_31">
     <!-- Time (d) -->
     <g transform="translate(481.056818 359.9255) scale(0.192 -0.192)">
      <use xlink:href="#DejaVuSans-54"/>
      <use xlink:href="#DejaVuSans-69" x="57.958984"/>
      <use xlink:href="#DejaVuSans-6d" x="85.742188"/>
      <use xlink:href="#DejaVuSans-65" x="183.154297"/>
      <use xlink:href="#DejaVuSans-20" x="244.677734"/>
      <use xlink:href="#DejaVuSans-28" x="276.464844"/>
      <use xlink:href="#DejaVuSans-64" x="315.478516"/>
      <use xlink:href="#DejaVuSans-29" x="378.955078"/>
     </g>
    </g>
   </g>
   <g id="matplotlib.axis_4">
    <g id="ytick_10">
     <g id="line2d_29">
      <g>
       <use xlink:href="#ma19e210b0a" x="394.363636" y="320.4" style="stroke: #000000; stroke-width: 0.8"/>
      </g>
     </g>
     <g id="text_32">
      <!-- 4.5 -->
      <g transform="translate(364.463136 325.870875) scale(0.144 -0.144)">
       <defs>
        <path id="DejaVuSans-2e" d="M 684 794 
L 1344 794 
L 1344 0 
L 684 0 
L 684 794 
z
" transform="scale(0.015625)"/>
       </defs>
       <use xlink:href="#DejaVuSans-34"/>
       <use xlink:href="#DejaVuSans-2e" x="63.623047"/>
       <use xlink:href="#DejaVuSans-35" x="95.410156"/>
      </g>
     </g>
    </g>
    <g id="ytick_11">
     <g id="line2d_30">
      <g>
       <use xlink:href="#ma19e210b0a" x="394.363636" y="277.753846" style="stroke: #000000; stroke-width: 0.8"/>
      </g>
     </g>
     <g id="text_33">
      <!-- 5.0 -->
      <g transform="translate(364.463136 283.224721) scale(0.144 -0.144)">
       <use xlink:href="#DejaVuSans-35"/>
       <use xlink:href="#DejaVuSans-2e" x="63.623047"/>
       <use xlink:href="#DejaVuSans-30" x="95.410156"/>
      </g>
     </g>
    </g>
    <g id="ytick_12">
     <g id="line2d_31">
      <g>
       <use xlink:href="#ma19e210b0a" x="394.363636" y="235.107692" style="stroke: #000000; stroke-width: 0.8"/>
      </g>
     </g>
     <g id="text_34">
      <!-- 5.5 -->
      <g transform="translate(364.463136 240.578567) scale(0.144 -0.144)">
       <use xlink:href="#DejaVuSans-35"/>
       <use xlink:href="#DejaVuSans-2e" x="63.623047"/>
       <use xlink:href="#DejaVuSans-35" x="95.410156"/>
      </g>
     </g>
    </g>
    <g id="ytick_13">
     <g id="line2d_32">
      <g>
       <use xlink:href="#ma19e210b0a" x="394.363636" y="192.461538" style="stroke: #000000; stroke-width: 0.8"/>
      </g>
     </g>
     <g id="text_35">
      <!-- 6.0 -->
      <g transform="translate(364.463136 197.932413) scale(0.144 -0.144)">
       <use xlink:href="#DejaVuSans-36"/>
       <use xlink:href="#DejaVuSans-2e" x="63.623047"/>
       <use xlink:href="#DejaVuSans-30" x="95.410156"/>
      </g>
     </g>
    </g>
    <g id="ytick_14">
     <g id="line2d_33">
      <g>
       <use xlink:href="#ma19e210b0a" x="394.363636" y="149.815385" style="stroke: #000000; stroke-width: 0.8"/>
      </g>
     </g>
     <g id="text_36">
      <!-- 6.5 -->
      <g transform="translate(364.463136 155.28626) scale(0.144 -0.144)">
       <use xlink:href="#DejaVuSans-36"/>
       <use xlink:href="#DejaVuSans-2e" x="63.623047"/>
       <use xlink:href="#DejaVuSans-35" x="95.410156"/>
      </g>
     </g>
    </g>
    <g id="ytick_15">
     <g id="line2d_34">
      <g>
       <use xlink:href="#ma19e210b0a" x="394.363636" y="107.169231" style="stroke: #000000; stroke-width: 0.8"/>
      </g>
     </g>
     <g id="text_37">
      <!-- 7.0 -->
      <g transform="translate(364.463136 112.640106) scale(0.144 -0.144)">
       <use xlink:href="#DejaVuSans-37"/>
       <use xlink:href="#DejaVuSans-2e" x="63.623047"/>
       <use xlink:href="#DejaVuSans-30" x="95.410156"/>
      </g>
     </g>
    </g>
    <g id="ytick_16">
     <g id="line2d_35">
      <g>
       <use xlink:href="#ma19e210b0a" x="394.363636" y="64.523077" style="stroke: #000000; stroke-width: 0.8"/>
      </g>
     </g>
     <g id="text_38">
      <!-- 7.5 -->
      <g transform="translate(364.463136 69.993952) scale(0.144 -0.144)">
       <use xlink:href="#DejaVuSans-37"/>
       <use xlink:href="#DejaVuSans-2e" x="63.623047"/>
       <use xlink:href="#DejaVuSans-35" x="95.410156"/>
      </g>
     </g>
    </g>
    <g id="text_39">
     <!-- Log10(CD8TE) -->
     <g transform="translate(356.470136 250.7895) rotate(-90) scale(0.192 -0.192)">
      <defs>
       <path id="DejaVuSans-43" d="M 4122 4306 
L 4122 3641 
Q 3803 3938 3442 4084 
Q 3081 4231 2675 4231 
Q 1875 4231 1450 3742 
Q 1025 3253 1025 2328 
Q 1025 1406 1450 917 
Q 1875 428 2675 428 
Q 3081 428 3442 575 
Q 3803 722 4122 1019 
L 4122 359 
Q 3791 134 3420 21 
Q 3050 -91 2638 -91 
Q 1578 -91 968 557 
Q 359 1206 359 2328 
Q 359 3453 968 4101 
Q 1578 4750 2638 4750 
Q 3056 4750 3426 4639 
Q 3797 4528 4122 4306 
z
" transform="scale(0.015625)"/>
       <path id="DejaVuSans-44" d="M 1259 4147 
L 1259 519 
L 2022 519 
Q 2988 519 3436 956 
Q 3884 1394 3884 2338 
Q 3884 3275 3436 3711 
Q 2988 4147 2022 4147 
L 1259 4147 
z
M 628 4666 
L 1925 4666 
Q 3281 4666 3915 4102 
Q 4550 3538 4550 2338 
Q 4550 1131 3912 565 
Q 3275 0 1925 0 
L 628 0 
L 628 4666 
z
" transform="scale(0.015625)"/>
       <path id="DejaVuSans-45" d="M 628 4666 
L 3578 4666 
L 3578 4134 
L 1259 4134 
L 1259 2753 
L 3481 2753 
L 3481 2222 
L 1259 2222 
L 1259 531 
L 3634 531 
L 3634 0 
L 628 0 
L 628 4666 
z
" transform="scale(0.015625)"/>
      </defs>
      <use xlink:href="#DejaVuSans-4c"/>
      <use xlink:href="#DejaVuSans-6f" x="53.962891"/>
      <use xlink:href="#DejaVuSans-67" x="115.144531"/>
      <use xlink:href="#DejaVuSans-31" x="178.621094"/>
      <use xlink:href="#DejaVuSans-30" x="242.244141"/>
      <use xlink:href="#DejaVuSans-28" x="305.867188"/>
      <use xlink:href="#DejaVuSans-43" x="344.880859"/>
      <use xlink:href="#DejaVuSans-44" x="414.705078"/>
      <use xlink:href="#DejaVuSans-38" x="491.707031"/>
      <use xlink:href="#DejaVuSans-54" x="555.330078"/>
      <use xlink:href="#DejaVuSans-45" x="616.414062"/>
      <use xlink:href="#DejaVuSans-29" x="679.597656"/>
     </g>
    </g>
   </g>
   <g id="patch_9">
    <path d="M 394.363636 320.4 
L 394.363636 43.2 
" style="fill: none; stroke: #000000; stroke-width: 0.8; stroke-linejoin: miter; stroke-linecap: square"/>
   </g>
   <g id="patch_10">
    <path d="M 648 320.4 
L 648 43.2 
" style="fill: none; stroke: #000000; stroke-width: 0.8; stroke-linejoin: miter; stroke-linecap: square"/>
   </g>
   <g id="patch_11">
    <path d="M 394.363636 320.4 
L 648 320.4 
" style="fill: none; stroke: #000000; stroke-width: 0.8; stroke-linejoin: miter; stroke-linecap: square"/>
   </g>
   <g id="patch_12">
    <path d="M 394.363636 43.2 
L 648 43.2 
" style="fill: none; stroke: #000000; stroke-width: 0.8; stroke-linejoin: miter; stroke-linecap: square"/>
   </g>
   <g id="PolyCollection_2">
    <defs>
     <path id="m406f09e998" d="M 397.456763 -115.441864 
L 397.456763 -115.441864 
L 397.457941 -115.441864 
L 397.469726 -115.441864 
L 397.587571 -115.441864 
L 398.22205 -115.441864 
L 398.658033 -115.441864 
L 400.100161 -115.441864 
L 400.851367 -115.441864 
L 403.190599 -115.441864 
L 404.033546 -115.441864 
L 405.850329 -115.441864 
L 406.862789 -115.441864 
L 408.839742 -115.441864 
L 409.948964 -115.441864 
L 411.830188 -115.441864 
L 413.025446 -115.441864 
L 414.909649 -115.441864 
L 416.160548 -115.441864 
L 418.015058 -115.441864 
L 419.308612 -115.441864 
L 421.353583 -115.441864 
L 422.619638 -115.441864 
L 424.369947 -115.441864 
L 425.689665 -115.441864 
L 427.602524 -115.441864 
L 428.914714 -115.441864 
L 430.702376 -115.441864 
L 432.049919 -115.441864 
L 433.992163 -115.441864 
L 435.346718 -115.441864 
L 437.469636 -115.441864 
L 438.837565 -115.441864 
L 440.783602 -115.441864 
L 442.225687 -115.441864 
L 444.340906 -115.441864 
L 445.801103 -115.441864 
L 447.867936 -115.441864 
L 449.383034 -115.441864 
L 451.271229 -115.441865 
L 452.70711 -115.441866 
L 454.224389 -115.441866 
L 455.581348 -115.441868 
L 456.938307 -115.44187 
L 458.064754 -115.441872 
L 459.124591 -115.441875 
L 460.051644 -115.441878 
L 460.978697 -115.441882 
L 461.74904 -115.441887 
L 462.463258 -115.441891 
L 463.177476 -115.441897 
L 463.801263 -115.441903 
L 464.464981 -115.441911 
L 465.128699 -115.44192 
L 465.792418 -115.441932 
L 466.456136 -115.441945 
L 467.119854 -115.441961 
L 467.783572 -115.441981 
L 468.44729 -115.442001 
L 469.111008 -115.442027 
L 469.774727 -115.442061 
L 470.438445 -115.442101 
L 471.102163 -115.442141 
L 471.768362 -115.44219 
L 472.443364 -115.442249 
L 473.128702 -115.442338 
L 473.828616 -115.442443 
L 474.544364 -115.442551 
L 475.279153 -115.442662 
L 478.37228 -115.443576 
L 479.324092 -115.443975 
L 482.417219 -115.445964 
L 483.620698 -115.44729 
L 486.713824 -115.4517 
L 488.22303 -115.455511 
L 491.316157 -115.465725 
L 493.209616 -115.475748 
L 496.302743 -115.498602 
L 498.675951 -115.525428 
L 501.769078 -115.575586 
L 504.862204 -115.649921 
L 507.95533 -115.757128 
L 511.048457 -115.907824 
L 514.141583 -116.11455 
L 517.23471 -116.391631 
L 520.327836 -116.754841 
L 523.420962 -117.220869 
L 526.514089 -117.806572 
L 529.607215 -118.528059 
L 532.700342 -119.399643 
L 535.793468 -120.432787 
L 538.886594 -121.635131 
L 541.979721 -123.009736 
L 545.072847 -124.554643 
L 548.165973 -126.262807 
L 551.2591 -128.122422 
L 554.352226 -130.117572 
L 557.445353 -132.229131 
L 560.538479 -134.435799 
L 563.631605 -136.715142 
L 566.724732 -139.044556 
L 569.817858 -141.402084 
L 572.910985 -143.767039 
L 576.004111 -146.120457 
L 579.097237 -148.445354 
L 582.190364 -150.726854 
L 585.28349 -152.95219 
L 588.376617 -155.110627 
L 591.469743 -157.193327 
L 594.562869 -159.193183 
L 597.655996 -161.104637 
L 600.749122 -162.554276 
L 603.842248 -163.699429 
L 606.935375 -164.743941 
L 610.028501 -165.689378 
L 613.121628 -166.534593 
L 613.740253 -166.695262 
L 613.805728 -166.712267 
L 613.816069 -166.714953 
L 613.836752 -166.720325 
L 613.869763 -166.728898 
L 613.885625 -166.733018 
L 613.897588 -166.736125 
L 613.902869 -166.737497 
L 613.906705 -166.738493 
L 613.906885 -166.73854 
L 613.908684 -166.739007 
L 613.910163 -166.739391 
L 613.912339 -166.739957 
L 613.912939 -166.740112 
L 613.91306 -166.740144 
L 613.91426 -166.740455 
L 613.91512 -166.740679 
L 613.91642 -166.741016 
L 613.918015 -166.741431 
L 613.920407 -166.742052 
L 613.923482 -166.74285 
L 613.926765 -166.743703 
L 613.930531 -166.744681 
L 613.934857 -166.745805 
L 613.940004 -166.747141 
L 613.946333 -166.748785 
L 613.954536 -166.750916 
L 613.96604 -166.753904 
L 614.05912 -166.778079 
L 614.396985 -166.862839 
L 615.619642 -167.147578 
L 617.320244 -167.543623 
L 619.911782 -168.073388 
L 622.804349 -168.597178 
L 625.897475 -169.077245 
L 628.990602 -169.064401 
L 632.083728 -168.703209 
L 635.176855 -168.277859 
L 638.269981 -167.79282 
L 641.363107 -167.252444 
L 644.456234 -166.660966 
L 644.906874 -166.572568 
L 644.906874 -203.503132 
L 644.906874 -203.503132 
L 644.456234 -203.423849 
L 641.363107 -202.832927 
L 638.269981 -202.158579 
L 635.176855 -201.396646 
L 632.083728 -200.543719 
L 628.990602 -199.596362 
L 625.897475 -198.551126 
L 622.804349 -197.543612 
L 619.911782 -196.960442 
L 617.320244 -196.346673 
L 615.619642 -195.916414 
L 614.396985 -195.577694 
L 614.05912 -195.477109 
L 613.96604 -195.449398 
L 613.954536 -195.445973 
L 613.946333 -195.443531 
L 613.940004 -195.441647 
L 613.934857 -195.440114 
L 613.930531 -195.438826 
L 613.926765 -195.437706 
L 613.923482 -195.436728 
L 613.920407 -195.435813 
L 613.918015 -195.4351 
L 613.91642 -195.434626 
L 613.91512 -195.434239 
L 613.91426 -195.433982 
L 613.91306 -195.433625 
L 613.912939 -195.433589 
L 613.912339 -195.433411 
L 613.910163 -195.432763 
L 613.908684 -195.432322 
L 613.906885 -195.431787 
L 613.906705 -195.431733 
L 613.902869 -195.430591 
L 613.897588 -195.429019 
L 613.885625 -195.425458 
L 613.869763 -195.420735 
L 613.836752 -195.410908 
L 613.816069 -195.40475 
L 613.805728 -195.401672 
L 613.740253 -195.382179 
L 613.121628 -195.198009 
L 610.028501 -194.216698 
L 606.935375 -193.091256 
L 603.842248 -191.850422 
L 600.749122 -190.477757 
L 597.655996 -189.107677 
L 594.562869 -188.194391 
L 591.469743 -187.144825 
L 588.376617 -185.95302 
L 585.28349 -184.613178 
L 582.190364 -183.119763 
L 579.097237 -181.467628 
L 576.004111 -179.652175 
L 572.910985 -177.669555 
L 569.817858 -175.564803 
L 566.724732 -173.569956 
L 563.631605 -171.396356 
L 560.538479 -169.043314 
L 557.445353 -166.512338 
L 554.352226 -163.80772 
L 551.2591 -160.937223 
L 548.165973 -157.912868 
L 545.072847 -154.751787 
L 541.979721 -151.477088 
L 538.886594 -148.118629 
L 535.793468 -144.713539 
L 532.700342 -141.306263 
L 529.607215 -137.947863 
L 526.514089 -134.694304 
L 523.420962 -131.603555 
L 520.327836 -128.73155 
L 517.23471 -126.127382 
L 514.141583 -123.828485 
L 511.048457 -121.856761 
L 507.95533 -120.216588 
L 504.862204 -118.895204 
L 501.769078 -117.865402 
L 498.675951 -117.089829 
L 496.302743 -116.645702 
L 493.209616 -116.213556 
L 491.316157 -116.009285 
L 488.22303 -115.790727 
L 486.713824 -115.705342 
L 483.620698 -115.594553 
L 482.417219 -115.563121 
L 479.324092 -115.50709 
L 478.37228 -115.495546 
L 475.279153 -115.468802 
L 474.544364 -115.465086 
L 473.828616 -115.461466 
L 473.128702 -115.458144 
L 472.443364 -115.455965 
L 471.768362 -115.453982 
L 471.102163 -115.452025 
L 470.438445 -115.450287 
L 469.774727 -115.44917 
L 469.111008 -115.448052 
L 468.44729 -115.446935 
L 467.783572 -115.446186 
L 467.119854 -115.445545 
L 466.456136 -115.444903 
L 465.792418 -115.444352 
L 465.128699 -115.443982 
L 464.464981 -115.443612 
L 463.801263 -115.44329 
L 463.177476 -115.443084 
L 462.463258 -115.442848 
L 461.74904 -115.442655 
L 460.978697 -115.442503 
L 460.051644 -115.442356 
L 459.124591 -115.442243 
L 458.064754 -115.442141 
L 456.938307 -115.442063 
L 455.581348 -115.441999 
L 454.224389 -115.441955 
L 452.70711 -115.441922 
L 451.271229 -115.441902 
L 449.383034 -115.441885 
L 447.867936 -115.441878 
L 445.801103 -115.441871 
L 444.340906 -115.441868 
L 442.225687 -115.441866 
L 440.783602 -115.441865 
L 438.837565 -115.441865 
L 437.469636 -115.441864 
L 435.346718 -115.441864 
L 433.992163 -115.441864 
L 432.049919 -115.441864 
L 430.702376 -115.441864 
L 428.914714 -115.441864 
L 427.602524 -115.441864 
L 425.689665 -115.441864 
L 424.369947 -115.441864 
L 422.619638 -115.441864 
L 421.353583 -115.441864 
L 419.308612 -115.441864 
L 418.015058 -115.441864 
L 416.160548 -115.441864 
L 414.909649 -115.441864 
L 413.025446 -115.441864 
L 411.830188 -115.441864 
L 409.948964 -115.441864 
L 408.839742 -115.441864 
L 406.862789 -115.441864 
L 405.850329 -115.441864 
L 404.033546 -115.441864 
L 403.190599 -115.441864 
L 400.851367 -115.441864 
L 400.100161 -115.441864 
L 398.658033 -115.441864 
L 398.22205 -115.441864 
L 397.587571 -115.441864 
L 397.469726 -115.441864 
L 397.457941 -115.441864 
L 397.456763 -115.441864 
z
" style="stroke: #40e0d0; stroke-opacity: 0.2"/>
    </defs>
    <g clip-path="url(#p155454c53d)">
     <use xlink:href="#m406f09e998" x="0" y="360" style="fill: #40e0d0; fill-opacity: 0.2; stroke: #40e0d0; stroke-opacity: 0.2"/>
    </g>
   </g>
   <g id="legend_2">
    <g id="patch_13">
     <path d="M 536.472 86.742 
L 634.56 86.742 
Q 638.4 86.742 638.4 82.902 
L 638.4 56.64 
Q 638.4 52.8 634.56 52.8 
L 536.472 52.8 
Q 532.632 52.8 532.632 56.64 
L 532.632 82.902 
Q 532.632 86.742 536.472 86.742 
z
" style="fill: #ffffff; opacity: 0.8; stroke: #cccccc; stroke-linejoin: miter"/>
    </g>
    <g id="PathCollection_3">
     <g>
      <use xlink:href="#m973c423759" x="559.512" y="70.029" style="fill: #40e0d0; fill-opacity: 0.8; stroke: #000000; stroke-opacity: 0.8"/>
     </g>
    </g>
    <g id="text_40">
     <!-- 308 -->
     <g transform="translate(594.072 75.069) scale(0.192 -0.192)">
      <use xlink:href="#DejaVuSans-33"/>
      <use xlink:href="#DejaVuSans-30" x="63.623047"/>
      <use xlink:href="#DejaVuSans-38" x="127.246094"/>
     </g>
    </g>
   </g>
   <g id="PathCollection_4">
    <g clip-path="url(#p155454c53d)">
     <use xlink:href="#m973c423759" x="366.525499" y="216.26894" style="fill: #40e0d0; fill-opacity: 0.8; stroke: #000000; stroke-opacity: 0.8"/>
     <use xlink:href="#m973c423759" x="397.456763" y="244.558136" style="fill: #40e0d0; fill-opacity: 0.8; stroke: #000000; stroke-opacity: 0.8"/>
     <use xlink:href="#m973c423759" x="428.388027" y="233.61985" style="fill: #40e0d0; fill-opacity: 0.8; stroke: #000000; stroke-opacity: 0.8"/>
     <use xlink:href="#m973c423759" x="459.31929" y="239.866476" style="fill: #40e0d0; fill-opacity: 0.8; stroke: #000000; stroke-opacity: 0.8"/>
     <use xlink:href="#m973c423759" x="490.250554" y="269.192863" style="fill: #40e0d0; fill-opacity: 0.8; stroke: #000000; stroke-opacity: 0.8"/>
     <use xlink:href="#m973c423759" x="521.181818" y="220.536999" style="fill: #40e0d0; fill-opacity: 0.8; stroke: #000000; stroke-opacity: 0.8"/>
     <use xlink:href="#m973c423759" x="552.113082" y="209.011156" style="fill: #40e0d0; fill-opacity: 0.8; stroke: #000000; stroke-opacity: 0.8"/>
     <use xlink:href="#m973c423759" x="583.044346" y="188.415134" style="fill: #40e0d0; fill-opacity: 0.8; stroke: #000000; stroke-opacity: 0.8"/>
     <use xlink:href="#m973c423759" x="613.97561" y="186.121103" style="fill: #40e0d0; fill-opacity: 0.8; stroke: #000000; stroke-opacity: 0.8"/>
    </g>
   </g>
   <g id="line2d_36">
    <path d="M 397.456763 244.558136 
L 483.620698 244.467908 
L 491.316157 244.208945 
L 496.302743 243.818975 
L 498.675951 243.534914 
L 501.769078 243.03794 
L 504.862204 242.36806 
L 507.95533 241.493582 
L 511.048457 240.386746 
L 514.141583 239.026942 
L 517.23471 237.403521 
L 520.327836 235.517652 
L 523.420962 233.382823 
L 526.514089 231.023887 
L 529.607215 228.474871 
L 535.793468 222.970593 
L 551.2591 208.756104 
L 557.445353 203.560985 
L 563.631605 198.874356 
L 566.724732 196.743605 
L 569.817858 194.760312 
L 572.910985 192.925956 
L 576.004111 191.240264 
L 579.097237 189.701562 
L 582.190364 188.307074 
L 585.28349 187.053164 
L 588.376617 185.935547 
L 591.469743 184.949448 
L 594.562869 184.089743 
L 597.655996 183.351065 
L 603.842248 182.214624 
L 610.028501 181.495316 
L 615.619642 181.167102 
L 619.911782 181.101641 
L 625.897475 181.251988 
L 632.083728 181.668829 
L 638.269981 182.31488 
L 644.906874 183.224096 
L 644.906874 183.224096 
" clip-path="url(#p155454c53d)" style="fill: none; stroke: #40e0d0; stroke-width: 1.5; stroke-linecap: square"/>
   </g>
  </g>
 </g>
 <defs>
  <clipPath id="p30c50eb609">
   <rect x="90" y="43.2" width="253.636364" height="277.2"/>
  </clipPath>
  <clipPath id="p155454c53d">
   <rect x="394.363636" y="43.2" width="253.636364" height="277.2"/>
  </clipPath>
 </defs>
</svg>
