<?xml version="1.0" encoding="utf-8" standalone="no"?>
<!DOCTYPE svg PUBLIC "-//W3C//DTD SVG 1.1//EN"
  "http://www.w3.org/Graphics/SVG/1.1/DTD/svg11.dtd">
<svg xmlns:xlink="http://www.w3.org/1999/xlink" width="720pt" height="360pt" viewBox="0 0 720 360" xmlns="http://www.w3.org/2000/svg" version="1.1">
 <metadata>
  <rdf:RDF xmlns:dc="http://purl.org/dc/elements/1.1/" xmlns:cc="http://creativecommons.org/ns#" xmlns:rdf="http://www.w3.org/1999/02/22-rdf-syntax-ns#">
   <cc:Work>
    <dc:type rdf:resource="http://purl.org/dc/dcmitype/StillImage"/>
    <dc:date>2024-10-25T19:54:59.977293</dc:date>
    <dc:format>image/svg+xml</dc:format>
    <dc:creator>
     <cc:Agent>
      <dc:title>Matplotlib v3.9.2, https://matplotlib.org/</dc:title>
     </cc:Agent>
    </dc:creator>
   </cc:Work>
  </rdf:RDF>
 </metadata>
 <defs>
  <style type="text/css">*{stroke-linejoin: round; stroke-linecap: butt}</style>
 </defs>
 <g id="figure_1">
  <g id="patch_1">
   <path d="M 0 360 
L 720 360 
L 720 0 
L 0 0 
z
" style="fill: #ffffff"/>
  </g>
  <g id="axes_1">
   <g id="patch_2">
    <path d="M 90 320.4 
L 343.636364 320.4 
L 343.636364 43.2 
L 90 43.2 
z
" style="fill: #ffffff"/>
   </g>
   <g id="matplotlib.axis_1">
    <g id="xtick_1">
     <g id="line2d_1">
      <defs>
       <path id="m3c7fa1bf4a" d="M 0 0 
L 0 3.5 
" style="stroke: #000000; stroke-width: 0.8"/>
      </defs>
      <g>
       <use xlink:href="#m3c7fa1bf4a" x="93.093126" y="320.4" style="stroke: #000000; stroke-width: 0.8"/>
      </g>
     </g>
     <g id="text_1">
      <!-- 0 -->
      <g transform="translate(88.512126 338.34175) scale(0.144 -0.144)">
       <defs>
        <path id="DejaVuSans-30" d="M 2034 4250 
Q 1547 4250 1301 3770 
Q 1056 3291 1056 2328 
Q 1056 1369 1301 889 
Q 1547 409 2034 409 
Q 2525 409 2770 889 
Q 3016 1369 3016 2328 
Q 3016 3291 2770 3770 
Q 2525 4250 2034 4250 
z
M 2034 4750 
Q 2819 4750 3233 4129 
Q 3647 3509 3647 2328 
Q 3647 1150 3233 529 
Q 2819 -91 2034 -91 
Q 1250 -91 836 529 
Q 422 1150 422 2328 
Q 422 3509 836 4129 
Q 1250 4750 2034 4750 
z
" transform="scale(0.015625)"/>
       </defs>
       <use xlink:href="#DejaVuSans-30"/>
      </g>
     </g>
    </g>
    <g id="xtick_2">
     <g id="line2d_2">
      <g>
       <use xlink:href="#m3c7fa1bf4a" x="124.02439" y="320.4" style="stroke: #000000; stroke-width: 0.8"/>
      </g>
     </g>
     <g id="text_2">
      <!-- 1 -->
      <g transform="translate(119.44339 338.34175) scale(0.144 -0.144)">
       <defs>
        <path id="DejaVuSans-31" d="M 794 531 
L 1825 531 
L 1825 4091 
L 703 3866 
L 703 4441 
L 1819 4666 
L 2450 4666 
L 2450 531 
L 3481 531 
L 3481 0 
L 794 0 
L 794 531 
z
" transform="scale(0.015625)"/>
       </defs>
       <use xlink:href="#DejaVuSans-31"/>
      </g>
     </g>
    </g>
    <g id="xtick_3">
     <g id="line2d_3">
      <g>
       <use xlink:href="#m3c7fa1bf4a" x="154.955654" y="320.4" style="stroke: #000000; stroke-width: 0.8"/>
      </g>
     </g>
     <g id="text_3">
      <!-- 2 -->
      <g transform="translate(150.374654 338.34175) scale(0.144 -0.144)">
       <defs>
        <path id="DejaVuSans-32" d="M 1228 531 
L 3431 531 
L 3431 0 
L 469 0 
L 469 531 
Q 828 903 1448 1529 
Q 2069 2156 2228 2338 
Q 2531 2678 2651 2914 
Q 2772 3150 2772 3378 
Q 2772 3750 2511 3984 
Q 2250 4219 1831 4219 
Q 1534 4219 1204 4116 
Q 875 4013 500 3803 
L 500 4441 
Q 881 4594 1212 4672 
Q 1544 4750 1819 4750 
Q 2544 4750 2975 4387 
Q 3406 4025 3406 3419 
Q 3406 3131 3298 2873 
Q 3191 2616 2906 2266 
Q 2828 2175 2409 1742 
Q 1991 1309 1228 531 
z
" transform="scale(0.015625)"/>
       </defs>
       <use xlink:href="#DejaVuSans-32"/>
      </g>
     </g>
    </g>
    <g id="xtick_4">
     <g id="line2d_4">
      <g>
       <use xlink:href="#m3c7fa1bf4a" x="185.886918" y="320.4" style="stroke: #000000; stroke-width: 0.8"/>
      </g>
     </g>
     <g id="text_4">
      <!-- 3 -->
      <g transform="translate(181.305918 338.34175) scale(0.144 -0.144)">
       <defs>
        <path id="DejaVuSans-33" d="M 2597 2516 
Q 3050 2419 3304 2112 
Q 3559 1806 3559 1356 
Q 3559 666 3084 287 
Q 2609 -91 1734 -91 
Q 1441 -91 1130 -33 
Q 819 25 488 141 
L 488 750 
Q 750 597 1062 519 
Q 1375 441 1716 441 
Q 2309 441 2620 675 
Q 2931 909 2931 1356 
Q 2931 1769 2642 2001 
Q 2353 2234 1838 2234 
L 1294 2234 
L 1294 2753 
L 1863 2753 
Q 2328 2753 2575 2939 
Q 2822 3125 2822 3475 
Q 2822 3834 2567 4026 
Q 2313 4219 1838 4219 
Q 1578 4219 1281 4162 
Q 984 4106 628 3988 
L 628 4550 
Q 988 4650 1302 4700 
Q 1616 4750 1894 4750 
Q 2613 4750 3031 4423 
Q 3450 4097 3450 3541 
Q 3450 3153 3228 2886 
Q 3006 2619 2597 2516 
z
" transform="scale(0.015625)"/>
       </defs>
       <use xlink:href="#DejaVuSans-33"/>
      </g>
     </g>
    </g>
    <g id="xtick_5">
     <g id="line2d_5">
      <g>
       <use xlink:href="#m3c7fa1bf4a" x="216.818182" y="320.4" style="stroke: #000000; stroke-width: 0.8"/>
      </g>
     </g>
     <g id="text_5">
      <!-- 4 -->
      <g transform="translate(212.237182 338.34175) scale(0.144 -0.144)">
       <defs>
        <path id="DejaVuSans-34" d="M 2419 4116 
L 825 1625 
L 2419 1625 
L 2419 4116 
z
M 2253 4666 
L 3047 4666 
L 3047 1625 
L 3713 1625 
L 3713 1100 
L 3047 1100 
L 3047 0 
L 2419 0 
L 2419 1100 
L 313 1100 
L 313 1709 
L 2253 4666 
z
" transform="scale(0.015625)"/>
       </defs>
       <use xlink:href="#DejaVuSans-34"/>
      </g>
     </g>
    </g>
    <g id="xtick_6">
     <g id="line2d_6">
      <g>
       <use xlink:href="#m3c7fa1bf4a" x="247.749446" y="320.4" style="stroke: #000000; stroke-width: 0.8"/>
      </g>
     </g>
     <g id="text_6">
      <!-- 5 -->
      <g transform="translate(243.168446 338.34175) scale(0.144 -0.144)">
       <defs>
        <path id="DejaVuSans-35" d="M 691 4666 
L 3169 4666 
L 3169 4134 
L 1269 4134 
L 1269 2991 
Q 1406 3038 1543 3061 
Q 1681 3084 1819 3084 
Q 2600 3084 3056 2656 
Q 3513 2228 3513 1497 
Q 3513 744 3044 326 
Q 2575 -91 1722 -91 
Q 1428 -91 1123 -41 
Q 819 9 494 109 
L 494 744 
Q 775 591 1075 516 
Q 1375 441 1709 441 
Q 2250 441 2565 725 
Q 2881 1009 2881 1497 
Q 2881 1984 2565 2268 
Q 2250 2553 1709 2553 
Q 1456 2553 1204 2497 
Q 953 2441 691 2322 
L 691 4666 
z
" transform="scale(0.015625)"/>
       </defs>
       <use xlink:href="#DejaVuSans-35"/>
      </g>
     </g>
    </g>
    <g id="xtick_7">
     <g id="line2d_7">
      <g>
       <use xlink:href="#m3c7fa1bf4a" x="278.68071" y="320.4" style="stroke: #000000; stroke-width: 0.8"/>
      </g>
     </g>
     <g id="text_7">
      <!-- 6 -->
      <g transform="translate(274.09971 338.34175) scale(0.144 -0.144)">
       <defs>
        <path id="DejaVuSans-36" d="M 2113 2584 
Q 1688 2584 1439 2293 
Q 1191 2003 1191 1497 
Q 1191 994 1439 701 
Q 1688 409 2113 409 
Q 2538 409 2786 701 
Q 3034 994 3034 1497 
Q 3034 2003 2786 2293 
Q 2538 2584 2113 2584 
z
M 3366 4563 
L 3366 3988 
Q 3128 4100 2886 4159 
Q 2644 4219 2406 4219 
Q 1781 4219 1451 3797 
Q 1122 3375 1075 2522 
Q 1259 2794 1537 2939 
Q 1816 3084 2150 3084 
Q 2853 3084 3261 2657 
Q 3669 2231 3669 1497 
Q 3669 778 3244 343 
Q 2819 -91 2113 -91 
Q 1303 -91 875 529 
Q 447 1150 447 2328 
Q 447 3434 972 4092 
Q 1497 4750 2381 4750 
Q 2619 4750 2861 4703 
Q 3103 4656 3366 4563 
z
" transform="scale(0.015625)"/>
       </defs>
       <use xlink:href="#DejaVuSans-36"/>
      </g>
     </g>
    </g>
    <g id="xtick_8">
     <g id="line2d_8">
      <g>
       <use xlink:href="#m3c7fa1bf4a" x="309.611973" y="320.4" style="stroke: #000000; stroke-width: 0.8"/>
      </g>
     </g>
     <g id="text_8">
      <!-- 7 -->
      <g transform="translate(305.030973 338.34175) scale(0.144 -0.144)">
       <defs>
        <path id="DejaVuSans-37" d="M 525 4666 
L 3525 4666 
L 3525 4397 
L 1831 0 
L 1172 0 
L 2766 4134 
L 525 4134 
L 525 4666 
z
" transform="scale(0.015625)"/>
       </defs>
       <use xlink:href="#DejaVuSans-37"/>
      </g>
     </g>
    </g>
    <g id="xtick_9">
     <g id="line2d_9">
      <g>
       <use xlink:href="#m3c7fa1bf4a" x="340.543237" y="320.4" style="stroke: #000000; stroke-width: 0.8"/>
      </g>
     </g>
     <g id="text_9">
      <!-- 8 -->
      <g transform="translate(335.962237 338.34175) scale(0.144 -0.144)">
       <defs>
        <path id="DejaVuSans-38" d="M 2034 2216 
Q 1584 2216 1326 1975 
Q 1069 1734 1069 1313 
Q 1069 891 1326 650 
Q 1584 409 2034 409 
Q 2484 409 2743 651 
Q 3003 894 3003 1313 
Q 3003 1734 2745 1975 
Q 2488 2216 2034 2216 
z
M 1403 2484 
Q 997 2584 770 2862 
Q 544 3141 544 3541 
Q 544 4100 942 4425 
Q 1341 4750 2034 4750 
Q 2731 4750 3128 4425 
Q 3525 4100 3525 3541 
Q 3525 3141 3298 2862 
Q 3072 2584 2669 2484 
Q 3125 2378 3379 2068 
Q 3634 1759 3634 1313 
Q 3634 634 3220 271 
Q 2806 -91 2034 -91 
Q 1263 -91 848 271 
Q 434 634 434 1313 
Q 434 1759 690 2068 
Q 947 2378 1403 2484 
z
M 1172 3481 
Q 1172 3119 1398 2916 
Q 1625 2713 2034 2713 
Q 2441 2713 2670 2916 
Q 2900 3119 2900 3481 
Q 2900 3844 2670 4047 
Q 2441 4250 2034 4250 
Q 1625 4250 1398 4047 
Q 1172 3844 1172 3481 
z
" transform="scale(0.015625)"/>
       </defs>
       <use xlink:href="#DejaVuSans-38"/>
      </g>
     </g>
    </g>
    <g id="text_10">
     <!-- Time (d) -->
     <g transform="translate(176.693182 359.9255) scale(0.192 -0.192)">
      <defs>
       <path id="DejaVuSans-54" d="M -19 4666 
L 3928 4666 
L 3928 4134 
L 2272 4134 
L 2272 0 
L 1638 0 
L 1638 4134 
L -19 4134 
L -19 4666 
z
" transform="scale(0.015625)"/>
       <path id="DejaVuSans-69" d="M 603 3500 
L 1178 3500 
L 1178 0 
L 603 0 
L 603 3500 
z
M 603 4863 
L 1178 4863 
L 1178 4134 
L 603 4134 
L 603 4863 
z
" transform="scale(0.015625)"/>
       <path id="DejaVuSans-6d" d="M 3328 2828 
Q 3544 3216 3844 3400 
Q 4144 3584 4550 3584 
Q 5097 3584 5394 3201 
Q 5691 2819 5691 2113 
L 5691 0 
L 5113 0 
L 5113 2094 
Q 5113 2597 4934 2840 
Q 4756 3084 4391 3084 
Q 3944 3084 3684 2787 
Q 3425 2491 3425 1978 
L 3425 0 
L 2847 0 
L 2847 2094 
Q 2847 2600 2669 2842 
Q 2491 3084 2119 3084 
Q 1678 3084 1418 2786 
Q 1159 2488 1159 1978 
L 1159 0 
L 581 0 
L 581 3500 
L 1159 3500 
L 1159 2956 
Q 1356 3278 1631 3431 
Q 1906 3584 2284 3584 
Q 2666 3584 2933 3390 
Q 3200 3197 3328 2828 
z
" transform="scale(0.015625)"/>
       <path id="DejaVuSans-65" d="M 3597 1894 
L 3597 1613 
L 953 1613 
Q 991 1019 1311 708 
Q 1631 397 2203 397 
Q 2534 397 2845 478 
Q 3156 559 3463 722 
L 3463 178 
Q 3153 47 2828 -22 
Q 2503 -91 2169 -91 
Q 1331 -91 842 396 
Q 353 884 353 1716 
Q 353 2575 817 3079 
Q 1281 3584 2069 3584 
Q 2775 3584 3186 3129 
Q 3597 2675 3597 1894 
z
M 3022 2063 
Q 3016 2534 2758 2815 
Q 2500 3097 2075 3097 
Q 1594 3097 1305 2825 
Q 1016 2553 972 2059 
L 3022 2063 
z
" transform="scale(0.015625)"/>
       <path id="DejaVuSans-20" transform="scale(0.015625)"/>
       <path id="DejaVuSans-28" d="M 1984 4856 
Q 1566 4138 1362 3434 
Q 1159 2731 1159 2009 
Q 1159 1288 1364 580 
Q 1569 -128 1984 -844 
L 1484 -844 
Q 1016 -109 783 600 
Q 550 1309 550 2009 
Q 550 2706 781 3412 
Q 1013 4119 1484 4856 
L 1984 4856 
z
" transform="scale(0.015625)"/>
       <path id="DejaVuSans-64" d="M 2906 2969 
L 2906 4863 
L 3481 4863 
L 3481 0 
L 2906 0 
L 2906 525 
Q 2725 213 2448 61 
Q 2172 -91 1784 -91 
Q 1150 -91 751 415 
Q 353 922 353 1747 
Q 353 2572 751 3078 
Q 1150 3584 1784 3584 
Q 2172 3584 2448 3432 
Q 2725 3281 2906 2969 
z
M 947 1747 
Q 947 1113 1208 752 
Q 1469 391 1925 391 
Q 2381 391 2643 752 
Q 2906 1113 2906 1747 
Q 2906 2381 2643 2742 
Q 2381 3103 1925 3103 
Q 1469 3103 1208 2742 
Q 947 2381 947 1747 
z
" transform="scale(0.015625)"/>
       <path id="DejaVuSans-29" d="M 513 4856 
L 1013 4856 
Q 1481 4119 1714 3412 
Q 1947 2706 1947 2009 
Q 1947 1309 1714 600 
Q 1481 -109 1013 -844 
L 513 -844 
Q 928 -128 1133 580 
Q 1338 1288 1338 2009 
Q 1338 2731 1133 3434 
Q 928 4138 513 4856 
z
" transform="scale(0.015625)"/>
      </defs>
      <use xlink:href="#DejaVuSans-54"/>
      <use xlink:href="#DejaVuSans-69" x="57.958984"/>
      <use xlink:href="#DejaVuSans-6d" x="85.742188"/>
      <use xlink:href="#DejaVuSans-65" x="183.154297"/>
      <use xlink:href="#DejaVuSans-20" x="244.677734"/>
      <use xlink:href="#DejaVuSans-28" x="276.464844"/>
      <use xlink:href="#DejaVuSans-64" x="315.478516"/>
      <use xlink:href="#DejaVuSans-29" x="378.955078"/>
     </g>
    </g>
   </g>
   <g id="matplotlib.axis_2">
    <g id="ytick_1">
     <g id="line2d_10">
      <defs>
       <path id="m715c2f93db" d="M 0 0 
L -3.5 0 
" style="stroke: #000000; stroke-width: 0.8"/>
      </defs>
      <g>
       <use xlink:href="#m715c2f93db" x="90" y="320.4" style="stroke: #000000; stroke-width: 0.8"/>
      </g>
     </g>
     <g id="text_11">
      <!-- 0 -->
      <g transform="translate(73.838 325.870875) scale(0.144 -0.144)">
       <use xlink:href="#DejaVuSans-30"/>
      </g>
     </g>
    </g>
    <g id="ytick_2">
     <g id="line2d_11">
      <g>
       <use xlink:href="#m715c2f93db" x="90" y="286.8" style="stroke: #000000; stroke-width: 0.8"/>
      </g>
     </g>
     <g id="text_12">
      <!-- 1 -->
      <g transform="translate(73.838 292.270875) scale(0.144 -0.144)">
       <use xlink:href="#DejaVuSans-31"/>
      </g>
     </g>
    </g>
    <g id="ytick_3">
     <g id="line2d_12">
      <g>
       <use xlink:href="#m715c2f93db" x="90" y="253.2" style="stroke: #000000; stroke-width: 0.8"/>
      </g>
     </g>
     <g id="text_13">
      <!-- 2 -->
      <g transform="translate(73.838 258.670875) scale(0.144 -0.144)">
       <use xlink:href="#DejaVuSans-32"/>
      </g>
     </g>
    </g>
    <g id="ytick_4">
     <g id="line2d_13">
      <g>
       <use xlink:href="#m715c2f93db" x="90" y="219.6" style="stroke: #000000; stroke-width: 0.8"/>
      </g>
     </g>
     <g id="text_14">
      <!-- 3 -->
      <g transform="translate(73.838 225.070875) scale(0.144 -0.144)">
       <use xlink:href="#DejaVuSans-33"/>
      </g>
     </g>
    </g>
    <g id="ytick_5">
     <g id="line2d_14">
      <g>
       <use xlink:href="#m715c2f93db" x="90" y="186" style="stroke: #000000; stroke-width: 0.8"/>
      </g>
     </g>
     <g id="text_15">
      <!-- 4 -->
      <g transform="translate(73.838 191.470875) scale(0.144 -0.144)">
       <use xlink:href="#DejaVuSans-34"/>
      </g>
     </g>
    </g>
    <g id="ytick_6">
     <g id="line2d_15">
      <g>
       <use xlink:href="#m715c2f93db" x="90" y="152.4" style="stroke: #000000; stroke-width: 0.8"/>
      </g>
     </g>
     <g id="text_16">
      <!-- 5 -->
      <g transform="translate(73.838 157.870875) scale(0.144 -0.144)">
       <use xlink:href="#DejaVuSans-35"/>
      </g>
     </g>
    </g>
    <g id="ytick_7">
     <g id="line2d_16">
      <g>
       <use xlink:href="#m715c2f93db" x="90" y="118.8" style="stroke: #000000; stroke-width: 0.8"/>
      </g>
     </g>
     <g id="text_17">
      <!-- 6 -->
      <g transform="translate(73.838 124.270875) scale(0.144 -0.144)">
       <use xlink:href="#DejaVuSans-36"/>
      </g>
     </g>
    </g>
    <g id="ytick_8">
     <g id="line2d_17">
      <g>
       <use xlink:href="#m715c2f93db" x="90" y="85.2" style="stroke: #000000; stroke-width: 0.8"/>
      </g>
     </g>
     <g id="text_18">
      <!-- 7 -->
      <g transform="translate(73.838 90.670875) scale(0.144 -0.144)">
       <use xlink:href="#DejaVuSans-37"/>
      </g>
     </g>
    </g>
    <g id="ytick_9">
     <g id="line2d_18">
      <g>
       <use xlink:href="#m715c2f93db" x="90" y="51.6" style="stroke: #000000; stroke-width: 0.8"/>
      </g>
     </g>
     <g id="text_19">
      <!-- 8 -->
      <g transform="translate(73.838 57.070875) scale(0.144 -0.144)">
       <use xlink:href="#DejaVuSans-38"/>
      </g>
     </g>
    </g>
    <g id="text_20">
     <!-- Log10(V) -->
     <g transform="translate(65.845 225.2235) rotate(-90) scale(0.192 -0.192)">
      <defs>
       <path id="DejaVuSans-4c" d="M 628 4666 
L 1259 4666 
L 1259 531 
L 3531 531 
L 3531 0 
L 628 0 
L 628 4666 
z
" transform="scale(0.015625)"/>
       <path id="DejaVuSans-6f" d="M 1959 3097 
Q 1497 3097 1228 2736 
Q 959 2375 959 1747 
Q 959 1119 1226 758 
Q 1494 397 1959 397 
Q 2419 397 2687 759 
Q 2956 1122 2956 1747 
Q 2956 2369 2687 2733 
Q 2419 3097 1959 3097 
z
M 1959 3584 
Q 2709 3584 3137 3096 
Q 3566 2609 3566 1747 
Q 3566 888 3137 398 
Q 2709 -91 1959 -91 
Q 1206 -91 779 398 
Q 353 888 353 1747 
Q 353 2609 779 3096 
Q 1206 3584 1959 3584 
z
" transform="scale(0.015625)"/>
       <path id="DejaVuSans-67" d="M 2906 1791 
Q 2906 2416 2648 2759 
Q 2391 3103 1925 3103 
Q 1463 3103 1205 2759 
Q 947 2416 947 1791 
Q 947 1169 1205 825 
Q 1463 481 1925 481 
Q 2391 481 2648 825 
Q 2906 1169 2906 1791 
z
M 3481 434 
Q 3481 -459 3084 -895 
Q 2688 -1331 1869 -1331 
Q 1566 -1331 1297 -1286 
Q 1028 -1241 775 -1147 
L 775 -588 
Q 1028 -725 1275 -790 
Q 1522 -856 1778 -856 
Q 2344 -856 2625 -561 
Q 2906 -266 2906 331 
L 2906 616 
Q 2728 306 2450 153 
Q 2172 0 1784 0 
Q 1141 0 747 490 
Q 353 981 353 1791 
Q 353 2603 747 3093 
Q 1141 3584 1784 3584 
Q 2172 3584 2450 3431 
Q 2728 3278 2906 2969 
L 2906 3500 
L 3481 3500 
L 3481 434 
z
" transform="scale(0.015625)"/>
       <path id="DejaVuSans-56" d="M 1831 0 
L 50 4666 
L 709 4666 
L 2188 738 
L 3669 4666 
L 4325 4666 
L 2547 0 
L 1831 0 
z
" transform="scale(0.015625)"/>
      </defs>
      <use xlink:href="#DejaVuSans-4c"/>
      <use xlink:href="#DejaVuSans-6f" x="53.962891"/>
      <use xlink:href="#DejaVuSans-67" x="115.144531"/>
      <use xlink:href="#DejaVuSans-31" x="178.621094"/>
      <use xlink:href="#DejaVuSans-30" x="242.244141"/>
      <use xlink:href="#DejaVuSans-28" x="305.867188"/>
      <use xlink:href="#DejaVuSans-56" x="344.880859"/>
      <use xlink:href="#DejaVuSans-29" x="413.289062"/>
     </g>
    </g>
   </g>
   <g id="patch_3">
    <path d="M 90 320.4 
L 90 43.2 
" style="fill: none; stroke: #000000; stroke-width: 0.8; stroke-linejoin: miter; stroke-linecap: square"/>
   </g>
   <g id="patch_4">
    <path d="M 343.636364 320.4 
L 343.636364 43.2 
" style="fill: none; stroke: #000000; stroke-width: 0.8; stroke-linejoin: miter; stroke-linecap: square"/>
   </g>
   <g id="patch_5">
    <path d="M 90 320.4 
L 343.636364 320.4 
" style="fill: none; stroke: #000000; stroke-width: 0.8; stroke-linejoin: miter; stroke-linecap: square"/>
   </g>
   <g id="patch_6">
    <path d="M 90 43.2 
L 343.636364 43.2 
" style="fill: none; stroke: #000000; stroke-width: 0.8; stroke-linejoin: miter; stroke-linecap: square"/>
   </g>
   <g id="PolyCollection_1">
    <defs>
     <path id="m2a5946f5e2" d="M 93.093126 -39.6 
L 93.093126 -39.6 
L 93.093345 -39.6 
L 93.095536 -39.6 
L 93.117438 -39.6 
L 93.180557 -39.6 
L 93.243677 -39.6 
L 93.407272 -44.611131 
L 93.570868 -55.969786 
L 93.863431 -68.774046 
L 94.155994 -77.722302 
L 94.550733 -85.728418 
L 94.98388 -92.242387 
L 95.666949 -99.190049 
L 96.20186 -103.413026 
L 97.632223 -110.89678 
L 99.062586 -116.016237 
L 101.49118 -122.161736 
L 103.478188 -126.26025 
L 106.571315 -132.162361 
L 108.712669 -136.112673 
L 111.805796 -141.792826 
L 114.042459 -145.87809 
L 117.135585 -151.527476 
L 119.454868 -155.750642 
L 122.547995 -161.233637 
L 124.942053 -165.456788 
L 128.035179 -170.896133 
L 130.509851 -175.235107 
L 133.015833 -179.619517 
L 135.760953 -184.408091 
L 138.585523 -189.314363 
L 141.60407 -194.524087 
L 144.697196 -199.782816 
L 147.790323 -204.931752 
L 150.883449 -209.967158 
L 153.976576 -214.844875 
L 157.069702 -219.497157 
L 160.162828 -223.90861 
L 163.255955 -228.090618 
L 166.349081 -231.820382 
L 169.442208 -235.086042 
L 172.535334 -237.744946 
L 175.62846 -239.7807 
L 178.721587 -241.251181 
L 181.814713 -241.975466 
L 184.90784 -241.899963 
L 188.000966 -241.487379 
L 191.094092 -240.802221 
L 194.187219 -239.894716 
L 197.280345 -238.808428 
L 200.373471 -237.545037 
L 203.12778 -236.300241 
L 205.882089 -234.940252 
L 208.636398 -233.462326 
L 211.390707 -231.81018 
L 214.145016 -230.010602 
L 216.899325 -228.04491 
L 219.705764 -225.839858 
L 222.656412 -223.224566 
L 225.749538 -219.962187 
L 228.842664 -215.356854 
L 231.935791 -208.276371 
L 234.345672 -197.468426 
L 235.749835 -189.751357 
L 238.069146 -176.910971 
L 238.344591 -175.292084 
L 238.462831 -174.569878 
L 238.600337 -173.729788 
L 238.737843 -172.883322 
L 238.889712 -171.948438 
L 240.03784 -164.880735 
L 240.550718 -161.723766 
L 242.336426 -150.710153 
L 243.045653 -146.320765 
L 244.933651 -134.199056 
L 245.829915 -128.332607 
L 247.732846 -114.326551 
L 248.798874 -106.31327 
L 250.861029 -90.652698 
L 252.06783 -81.46758 
L 254.259796 -64.722607 
L 255.642169 -53.728998 
L 258.227537 -39.6 
L 260.040206 -39.6 
L 263.133332 -39.6 
L 266.226459 -39.6 
L 269.319585 -39.6 
L 272.412712 -39.6 
L 275.505838 -39.6 
L 278.598964 -39.6 
L 281.692091 -39.6 
L 284.785217 -39.6 
L 287.878344 -39.6 
L 290.97147 -39.6 
L 294.064596 -39.6 
L 297.157723 -39.6 
L 300.250849 -39.6 
L 303.343975 -39.6 
L 306.437102 -39.6 
L 309.530228 -39.6 
L 312.623355 -39.6 
L 315.716481 -39.6 
L 318.809607 -39.6 
L 321.902734 -39.6 
L 324.99586 -39.6 
L 328.088987 -39.6 
L 331.182113 -39.6 
L 334.275239 -39.6 
L 337.368366 -39.6 
L 340.461492 -39.6 
L 340.543237 -39.6 
L 340.543237 -39.6 
L 340.543237 -39.6 
L 340.461492 -39.6 
L 337.368366 -39.6 
L 334.275239 -39.6 
L 331.182113 -39.6 
L 328.088987 -39.6 
L 324.99586 -39.6 
L 321.902734 -39.6 
L 318.809607 -39.6 
L 315.716481 -39.6 
L 312.623355 -39.6 
L 309.530228 -39.6 
L 306.437102 -39.6 
L 303.343975 -39.6 
L 300.250849 -39.6 
L 297.157723 -39.6 
L 294.064596 -39.6 
L 290.97147 -39.6 
L 287.878344 -39.6 
L 284.785217 -39.6 
L 281.692091 -39.6 
L 278.598964 -39.6 
L 275.505838 -39.6 
L 272.412712 -39.809925 
L 269.319585 -41.709285 
L 266.226459 -47.073126 
L 263.133332 -52.992439 
L 260.040206 -60.419263 
L 258.227537 -65.901409 
L 255.642169 -78.412092 
L 254.259796 -86.548152 
L 252.06783 -100.528103 
L 250.861029 -108.236904 
L 248.798874 -122.205666 
L 247.732846 -130.179003 
L 245.829915 -145.015709 
L 244.933651 -151.784068 
L 243.045653 -166.301352 
L 242.336426 -171.650236 
L 240.550718 -185.129593 
L 240.03784 -189.077189 
L 238.889712 -196.591584 
L 238.737843 -197.360649 
L 238.600337 -198.053774 
L 238.462831 -198.763043 
L 238.344591 -199.452238 
L 238.069146 -200.802984 
L 235.749835 -209.238604 
L 234.345672 -212.95258 
L 231.935791 -217.789882 
L 228.842664 -222.451977 
L 225.749538 -226.287125 
L 222.656412 -229.57217 
L 219.705764 -232.230144 
L 216.899325 -234.690049 
L 214.145016 -236.809702 
L 211.390707 -238.694644 
L 208.636398 -240.372132 
L 205.882089 -241.863031 
L 203.12778 -243.191762 
L 200.373471 -244.358584 
L 197.280345 -245.468683 
L 194.187219 -246.339907 
L 191.094092 -246.958988 
L 188.000966 -247.264177 
L 184.90784 -247.22922 
L 181.814713 -247.250279 
L 178.721587 -246.92341 
L 175.62846 -246.097452 
L 172.535334 -244.692198 
L 169.442208 -242.648143 
L 166.349081 -239.940994 
L 163.255955 -236.589177 
L 160.162828 -232.650803 
L 157.069702 -228.211367 
L 153.976576 -223.367447 
L 150.883449 -218.212264 
L 147.790323 -212.968137 
L 144.697196 -207.54124 
L 141.60407 -201.977137 
L 138.585523 -196.463167 
L 135.760953 -191.236656 
L 133.015833 -186.127882 
L 130.509851 -181.429525 
L 128.035179 -176.779719 
L 124.942053 -170.93682 
L 122.547995 -166.410301 
L 119.454868 -160.52521 
L 117.135585 -156.109809 
L 114.042459 -150.184958 
L 111.805796 -145.886017 
L 108.712669 -139.919741 
L 106.571315 -135.78306 
L 103.478188 -129.684734 
L 101.49118 -125.548982 
L 99.062586 -119.039583 
L 97.632223 -113.583357 
L 96.20186 -105.530514 
L 95.666949 -101.230196 
L 94.98388 -93.703646 
L 94.550733 -87.095198 
L 94.155994 -78.833002 
L 93.863431 -70.156863 
L 93.570868 -56.956969 
L 93.407272 -46.756737 
L 93.243677 -39.845612 
L 93.180557 -39.6 
L 93.117438 -39.6 
L 93.095536 -39.6 
L 93.093345 -39.6 
L 93.093126 -39.6 
z
" style="stroke: #ffff00; stroke-opacity: 0.2"/>
    </defs>
    <g clip-path="url(#pbf87d44893)">
     <use xlink:href="#m2a5946f5e2" x="0" y="360" style="fill: #ffff00; fill-opacity: 0.2; stroke: #ffff00; stroke-opacity: 0.2"/>
    </g>
   </g>
   <g id="PathCollection_1">
    <defs>
     <path id="ma8296f4d49" d="M 0 3 
C 0.795609 3 1.55874 2.683901 2.12132 2.12132 
C 2.683901 1.55874 3 0.795609 3 0 
C 3 -0.795609 2.683901 -1.55874 2.12132 -2.12132 
C 1.55874 -2.683901 0.795609 -3 0 -3 
C -0.795609 -3 -1.55874 -2.683901 -2.12132 -2.12132 
C -2.683901 -1.55874 -3 -0.795609 -3 0 
C -3 0.795609 -2.683901 1.55874 -2.12132 2.12132 
C -1.55874 2.683901 -0.795609 3 0 3 
z
" style="stroke: #000000; stroke-opacity: 0.8"/>
    </defs>
    <g clip-path="url(#pbf87d44893)">
     <use xlink:href="#ma8296f4d49" x="93.093126" y="320.4" style="fill: #ffff00; fill-opacity: 0.8; stroke: #000000; stroke-opacity: 0.8"/>
     <use xlink:href="#ma8296f4d49" x="124.02439" y="191.915937" style="fill: #ffff00; fill-opacity: 0.8; stroke: #000000; stroke-opacity: 0.8"/>
     <use xlink:href="#ma8296f4d49" x="154.955654" y="144.554018" style="fill: #ffff00; fill-opacity: 0.8; stroke: #000000; stroke-opacity: 0.8"/>
     <use xlink:href="#ma8296f4d49" x="185.886918" y="122.307529" style="fill: #ffff00; fill-opacity: 0.8; stroke: #000000; stroke-opacity: 0.8"/>
     <use xlink:href="#ma8296f4d49" x="216.818182" y="113.913078" style="fill: #ffff00; fill-opacity: 0.8; stroke: #000000; stroke-opacity: 0.8"/>
     <use xlink:href="#ma8296f4d49" x="247.749446" y="237.968504" style="fill: #ffff00; fill-opacity: 0.8; stroke: #000000; stroke-opacity: 0.8"/>
     <use xlink:href="#ma8296f4d49" x="278.68071" y="320.4" style="fill: #ffff00; fill-opacity: 0.8; stroke: #000000; stroke-opacity: 0.8"/>
     <use xlink:href="#ma8296f4d49" x="309.611973" y="320.4" style="fill: #ffff00; fill-opacity: 0.8; stroke: #000000; stroke-opacity: 0.8"/>
    </g>
   </g>
   <g id="line2d_19">
    <path d="M 93.093126 320.4 
L 93.093345 320.4 
L 93.095536 320.4 
L 93.117438 320.4 
L 93.180557 320.4 
L 93.243677 320.4 
L 93.407272 315.03428 
L 93.570868 303.290067 
L 93.863431 290.234293 
L 94.155994 281.694789 
L 94.550733 273.612834 
L 94.98388 267.245716 
L 95.666949 260.063972 
L 96.20186 255.902615 
L 97.632223 248.158509 
L 99.062586 242.952848 
L 101.49118 236.56114 
L 103.478188 232.292344 
L 106.571315 226.168347 
L 108.712669 222.076271 
L 111.805796 216.212437 
L 114.042459 212.016259 
L 117.135585 206.232726 
L 119.454868 201.932762 
L 122.547995 196.212578 
L 124.942053 191.81668 
L 128.035179 186.147909 
L 130.509851 181.64135 
L 133.015833 177.097847 
L 135.760953 172.142109 
L 138.585523 167.072933 
L 141.60407 161.697856 
L 144.697196 156.255244 
L 147.790323 150.906328 
L 150.883449 145.688116 
L 153.976576 140.650481 
L 157.069702 135.857499 
L 160.162828 131.386652 
L 163.255955 127.324182 
L 166.349081 123.755752 
L 169.442208 120.753226 
L 172.535334 118.361095 
L 175.62846 116.587556 
L 178.721587 115.404005 
L 181.814713 114.753063 
L 184.90784 114.561564 
L 188.000966 114.753659 
L 191.094092 115.260529 
L 194.187219 116.025641 
L 197.280345 117.006376 
L 200.373471 118.17352 
L 203.12778 119.355871 
L 205.882089 120.667402 
L 208.636398 122.109842 
L 211.390707 123.69153 
L 214.145016 125.428226 
L 216.899325 127.344916 
L 219.705764 129.52204 
L 222.656412 132.121064 
L 225.749538 135.306967 
L 228.842664 139.184211 
L 231.935791 144.189421 
L 234.345672 149.498632 
L 235.749835 153.646051 
L 238.069146 164.285527 
L 238.344591 166.146841 
L 238.462831 166.99704 
L 238.600337 168.007334 
L 238.737843 169.024706 
L 238.889712 170.149151 
L 240.03784 178.774118 
L 240.550718 182.581019 
L 242.336426 196.310119 
L 243.045653 201.587215 
L 244.933651 216.169767 
L 245.829915 222.856455 
L 247.732846 237.546737 
L 248.798874 245.511939 
L 250.861029 261.494788 
L 252.06783 270.463861 
L 254.259796 287.261007 
L 255.642169 297.197603 
L 258.227537 315.787913 
L 260.040206 320.4 
L 263.133332 320.4 
L 266.226459 320.4 
L 269.319585 320.4 
L 272.412712 320.4 
L 275.505838 320.4 
L 278.598964 320.4 
L 281.692091 320.4 
L 284.785217 320.4 
L 287.878344 320.4 
L 290.97147 320.4 
L 294.064596 320.4 
L 297.157723 320.4 
L 300.250849 320.4 
L 303.343975 320.4 
L 306.437102 320.4 
L 309.530228 320.4 
L 312.623355 320.4 
L 315.716481 320.4 
L 318.809607 320.4 
L 321.902734 320.4 
L 324.99586 320.4 
L 328.088987 320.4 
L 331.182113 320.4 
L 334.275239 320.4 
L 337.368366 320.4 
L 340.461492 320.4 
L 340.543237 320.4 
" clip-path="url(#pbf87d44893)" style="fill: none; stroke: #ffff00; stroke-width: 1.5; stroke-linecap: square"/>
   </g>
  </g>
  <g id="axes_2">
   <g id="patch_7">
    <path d="M 394.363636 320.4 
L 648 320.4 
L 648 43.2 
L 394.363636 43.2 
z
" style="fill: #ffffff"/>
   </g>
   <g id="matplotlib.axis_3">
    <g id="xtick_10">
     <g id="line2d_20">
      <g>
       <use xlink:href="#m3c7fa1bf4a" x="397.456763" y="320.4" style="stroke: #000000; stroke-width: 0.8"/>
      </g>
     </g>
     <g id="text_21">
      <!-- 0 -->
      <g transform="translate(392.875763 338.34175) scale(0.144 -0.144)">
       <use xlink:href="#DejaVuSans-30"/>
      </g>
     </g>
    </g>
    <g id="xtick_11">
     <g id="line2d_21">
      <g>
       <use xlink:href="#m3c7fa1bf4a" x="428.388027" y="320.4" style="stroke: #000000; stroke-width: 0.8"/>
      </g>
     </g>
     <g id="text_22">
      <!-- 1 -->
      <g transform="translate(423.807027 338.34175) scale(0.144 -0.144)">
       <use xlink:href="#DejaVuSans-31"/>
      </g>
     </g>
    </g>
    <g id="xtick_12">
     <g id="line2d_22">
      <g>
       <use xlink:href="#m3c7fa1bf4a" x="459.31929" y="320.4" style="stroke: #000000; stroke-width: 0.8"/>
      </g>
     </g>
     <g id="text_23">
      <!-- 2 -->
      <g transform="translate(454.73829 338.34175) scale(0.144 -0.144)">
       <use xlink:href="#DejaVuSans-32"/>
      </g>
     </g>
    </g>
    <g id="xtick_13">
     <g id="line2d_23">
      <g>
       <use xlink:href="#m3c7fa1bf4a" x="490.250554" y="320.4" style="stroke: #000000; stroke-width: 0.8"/>
      </g>
     </g>
     <g id="text_24">
      <!-- 3 -->
      <g transform="translate(485.669554 338.34175) scale(0.144 -0.144)">
       <use xlink:href="#DejaVuSans-33"/>
      </g>
     </g>
    </g>
    <g id="xtick_14">
     <g id="line2d_24">
      <g>
       <use xlink:href="#m3c7fa1bf4a" x="521.181818" y="320.4" style="stroke: #000000; stroke-width: 0.8"/>
      </g>
     </g>
     <g id="text_25">
      <!-- 4 -->
      <g transform="translate(516.600818 338.34175) scale(0.144 -0.144)">
       <use xlink:href="#DejaVuSans-34"/>
      </g>
     </g>
    </g>
    <g id="xtick_15">
     <g id="line2d_25">
      <g>
       <use xlink:href="#m3c7fa1bf4a" x="552.113082" y="320.4" style="stroke: #000000; stroke-width: 0.8"/>
      </g>
     </g>
     <g id="text_26">
      <!-- 5 -->
      <g transform="translate(547.532082 338.34175) scale(0.144 -0.144)">
       <use xlink:href="#DejaVuSans-35"/>
      </g>
     </g>
    </g>
    <g id="xtick_16">
     <g id="line2d_26">
      <g>
       <use xlink:href="#m3c7fa1bf4a" x="583.044346" y="320.4" style="stroke: #000000; stroke-width: 0.8"/>
      </g>
     </g>
     <g id="text_27">
      <!-- 6 -->
      <g transform="translate(578.463346 338.34175) scale(0.144 -0.144)">
       <use xlink:href="#DejaVuSans-36"/>
      </g>
     </g>
    </g>
    <g id="xtick_17">
     <g id="line2d_27">
      <g>
       <use xlink:href="#m3c7fa1bf4a" x="613.97561" y="320.4" style="stroke: #000000; stroke-width: 0.8"/>
      </g>
     </g>
     <g id="text_28">
      <!-- 7 -->
      <g transform="translate(609.39461 338.34175) scale(0.144 -0.144)">
       <use xlink:href="#DejaVuSans-37"/>
      </g>
     </g>
    </g>
    <g id="xtick_18">
     <g id="line2d_28">
      <g>
       <use xlink:href="#m3c7fa1bf4a" x="644.906874" y="320.4" style="stroke: #000000; stroke-width: 0.8"/>
      </g>
     </g>
     <g id="text_29">
      <!-- 8 -->
      <g transform="translate(640.325874 338.34175) scale(0.144 -0.144)">
       <use xlink:href="#DejaVuSans-38"/>
      </g>
     </g>
    </g>
    <g id="text_30">
     <!-- Time (d) -->
     <g transform="translate(481.056818 359.9255) scale(0.192 -0.192)">
      <use xlink:href="#DejaVuSans-54"/>
      <use xlink:href="#DejaVuSans-69" x="57.958984"/>
      <use xlink:href="#DejaVuSans-6d" x="85.742188"/>
      <use xlink:href="#DejaVuSans-65" x="183.154297"/>
      <use xlink:href="#DejaVuSans-20" x="244.677734"/>
      <use xlink:href="#DejaVuSans-28" x="276.464844"/>
      <use xlink:href="#DejaVuSans-64" x="315.478516"/>
      <use xlink:href="#DejaVuSans-29" x="378.955078"/>
     </g>
    </g>
   </g>
   <g id="matplotlib.axis_4">
    <g id="ytick_10">
     <g id="line2d_29">
      <g>
       <use xlink:href="#m715c2f93db" x="394.363636" y="320.4" style="stroke: #000000; stroke-width: 0.8"/>
      </g>
     </g>
     <g id="text_31">
      <!-- 4.5 -->
      <g transform="translate(364.463136 325.870875) scale(0.144 -0.144)">
       <defs>
        <path id="DejaVuSans-2e" d="M 684 794 
L 1344 794 
L 1344 0 
L 684 0 
L 684 794 
z
" transform="scale(0.015625)"/>
       </defs>
       <use xlink:href="#DejaVuSans-34"/>
       <use xlink:href="#DejaVuSans-2e" x="63.623047"/>
       <use xlink:href="#DejaVuSans-35" x="95.410156"/>
      </g>
     </g>
    </g>
    <g id="ytick_11">
     <g id="line2d_30">
      <g>
       <use xlink:href="#m715c2f93db" x="394.363636" y="277.753846" style="stroke: #000000; stroke-width: 0.8"/>
      </g>
     </g>
     <g id="text_32">
      <!-- 5.0 -->
      <g transform="translate(364.463136 283.224721) scale(0.144 -0.144)">
       <use xlink:href="#DejaVuSans-35"/>
       <use xlink:href="#DejaVuSans-2e" x="63.623047"/>
       <use xlink:href="#DejaVuSans-30" x="95.410156"/>
      </g>
     </g>
    </g>
    <g id="ytick_12">
     <g id="line2d_31">
      <g>
       <use xlink:href="#m715c2f93db" x="394.363636" y="235.107692" style="stroke: #000000; stroke-width: 0.8"/>
      </g>
     </g>
     <g id="text_33">
      <!-- 5.5 -->
      <g transform="translate(364.463136 240.578567) scale(0.144 -0.144)">
       <use xlink:href="#DejaVuSans-35"/>
       <use xlink:href="#DejaVuSans-2e" x="63.623047"/>
       <use xlink:href="#DejaVuSans-35" x="95.410156"/>
      </g>
     </g>
    </g>
    <g id="ytick_13">
     <g id="line2d_32">
      <g>
       <use xlink:href="#m715c2f93db" x="394.363636" y="192.461538" style="stroke: #000000; stroke-width: 0.8"/>
      </g>
     </g>
     <g id="text_34">
      <!-- 6.0 -->
      <g transform="translate(364.463136 197.932413) scale(0.144 -0.144)">
       <use xlink:href="#DejaVuSans-36"/>
       <use xlink:href="#DejaVuSans-2e" x="63.623047"/>
       <use xlink:href="#DejaVuSans-30" x="95.410156"/>
      </g>
     </g>
    </g>
    <g id="ytick_14">
     <g id="line2d_33">
      <g>
       <use xlink:href="#m715c2f93db" x="394.363636" y="149.815385" style="stroke: #000000; stroke-width: 0.8"/>
      </g>
     </g>
     <g id="text_35">
      <!-- 6.5 -->
      <g transform="translate(364.463136 155.28626) scale(0.144 -0.144)">
       <use xlink:href="#DejaVuSans-36"/>
       <use xlink:href="#DejaVuSans-2e" x="63.623047"/>
       <use xlink:href="#DejaVuSans-35" x="95.410156"/>
      </g>
     </g>
    </g>
    <g id="ytick_15">
     <g id="line2d_34">
      <g>
       <use xlink:href="#m715c2f93db" x="394.363636" y="107.169231" style="stroke: #000000; stroke-width: 0.8"/>
      </g>
     </g>
     <g id="text_36">
      <!-- 7.0 -->
      <g transform="translate(364.463136 112.640106) scale(0.144 -0.144)">
       <use xlink:href="#DejaVuSans-37"/>
       <use xlink:href="#DejaVuSans-2e" x="63.623047"/>
       <use xlink:href="#DejaVuSans-30" x="95.410156"/>
      </g>
     </g>
    </g>
    <g id="ytick_16">
     <g id="line2d_35">
      <g>
       <use xlink:href="#m715c2f93db" x="394.363636" y="64.523077" style="stroke: #000000; stroke-width: 0.8"/>
      </g>
     </g>
     <g id="text_37">
      <!-- 7.5 -->
      <g transform="translate(364.463136 69.993952) scale(0.144 -0.144)">
       <use xlink:href="#DejaVuSans-37"/>
       <use xlink:href="#DejaVuSans-2e" x="63.623047"/>
       <use xlink:href="#DejaVuSans-35" x="95.410156"/>
      </g>
     </g>
    </g>
    <g id="text_38">
     <!-- Log10(CD8TE) -->
     <g transform="translate(356.470136 250.7895) rotate(-90) scale(0.192 -0.192)">
      <defs>
       <path id="DejaVuSans-43" d="M 4122 4306 
L 4122 3641 
Q 3803 3938 3442 4084 
Q 3081 4231 2675 4231 
Q 1875 4231 1450 3742 
Q 1025 3253 1025 2328 
Q 1025 1406 1450 917 
Q 1875 428 2675 428 
Q 3081 428 3442 575 
Q 3803 722 4122 1019 
L 4122 359 
Q 3791 134 3420 21 
Q 3050 -91 2638 -91 
Q 1578 -91 968 557 
Q 359 1206 359 2328 
Q 359 3453 968 4101 
Q 1578 4750 2638 4750 
Q 3056 4750 3426 4639 
Q 3797 4528 4122 4306 
z
" transform="scale(0.015625)"/>
       <path id="DejaVuSans-44" d="M 1259 4147 
L 1259 519 
L 2022 519 
Q 2988 519 3436 956 
Q 3884 1394 3884 2338 
Q 3884 3275 3436 3711 
Q 2988 4147 2022 4147 
L 1259 4147 
z
M 628 4666 
L 1925 4666 
Q 3281 4666 3915 4102 
Q 4550 3538 4550 2338 
Q 4550 1131 3912 565 
Q 3275 0 1925 0 
L 628 0 
L 628 4666 
z
" transform="scale(0.015625)"/>
       <path id="DejaVuSans-45" d="M 628 4666 
L 3578 4666 
L 3578 4134 
L 1259 4134 
L 1259 2753 
L 3481 2753 
L 3481 2222 
L 1259 2222 
L 1259 531 
L 3634 531 
L 3634 0 
L 628 0 
L 628 4666 
z
" transform="scale(0.015625)"/>
      </defs>
      <use xlink:href="#DejaVuSans-4c"/>
      <use xlink:href="#DejaVuSans-6f" x="53.962891"/>
      <use xlink:href="#DejaVuSans-67" x="115.144531"/>
      <use xlink:href="#DejaVuSans-31" x="178.621094"/>
      <use xlink:href="#DejaVuSans-30" x="242.244141"/>
      <use xlink:href="#DejaVuSans-28" x="305.867188"/>
      <use xlink:href="#DejaVuSans-43" x="344.880859"/>
      <use xlink:href="#DejaVuSans-44" x="414.705078"/>
      <use xlink:href="#DejaVuSans-38" x="491.707031"/>
      <use xlink:href="#DejaVuSans-54" x="555.330078"/>
      <use xlink:href="#DejaVuSans-45" x="616.414062"/>
      <use xlink:href="#DejaVuSans-29" x="679.597656"/>
     </g>
    </g>
   </g>
   <g id="patch_8">
    <path d="M 394.363636 320.4 
L 394.363636 43.2 
" style="fill: none; stroke: #000000; stroke-width: 0.8; stroke-linejoin: miter; stroke-linecap: square"/>
   </g>
   <g id="patch_9">
    <path d="M 648 320.4 
L 648 43.2 
" style="fill: none; stroke: #000000; stroke-width: 0.8; stroke-linejoin: miter; stroke-linecap: square"/>
   </g>
   <g id="patch_10">
    <path d="M 394.363636 320.4 
L 648 320.4 
" style="fill: none; stroke: #000000; stroke-width: 0.8; stroke-linejoin: miter; stroke-linecap: square"/>
   </g>
   <g id="patch_11">
    <path d="M 394.363636 43.2 
L 648 43.2 
" style="fill: none; stroke: #000000; stroke-width: 0.8; stroke-linejoin: miter; stroke-linecap: square"/>
   </g>
   <g id="PolyCollection_2">
    <defs>
     <path id="m5eafa30f69" d="M 397.456763 -121.410241 
L 397.456763 -121.410241 
L 397.456982 -121.410241 
L 397.459172 -121.410241 
L 397.481075 -121.410241 
L 397.544194 -121.410241 
L 397.607313 -121.410241 
L 397.770909 -121.410241 
L 397.934504 -121.410241 
L 398.227067 -121.410241 
L 398.519631 -121.410244 
L 398.914369 -121.410276 
L 399.347517 -121.410391 
L 400.030585 -121.411406 
L 400.565497 -121.413006 
L 401.995859 -121.423294 
L 403.426222 -121.434743 
L 405.854816 -121.45105 
L 407.841825 -121.465469 
L 410.934951 -121.494402 
L 413.076306 -121.520321 
L 416.169432 -121.5744 
L 418.406095 -121.626901 
L 421.499221 -121.731026 
L 423.818505 -121.835127 
L 426.911631 -122.035031 
L 429.305689 -122.232811 
L 432.398816 -122.614781 
L 434.873488 -123.0073 
L 437.37947 -123.557082 
L 440.124589 -124.337841 
L 442.94916 -125.456866 
L 445.967706 -127.081089 
L 449.060833 -129.315682 
L 452.153959 -132.239913 
L 455.247086 -135.970254 
L 458.340212 -140.557455 
L 461.433338 -145.963371 
L 464.526465 -152.041949 
L 467.619591 -158.542532 
L 470.712718 -165.139434 
L 473.805844 -171.48092 
L 476.89897 -177.244995 
L 479.992097 -182.188046 
L 483.085223 -186.174509 
L 486.178349 -189.180935 
L 489.271476 -191.275957 
L 492.364602 -192.252272 
L 495.457729 -192.188804 
L 498.550855 -191.821782 
L 501.643981 -191.225055 
L 504.737108 -190.463149 
L 507.491417 -189.69487 
L 510.245726 -188.867352 
L 513.000034 -187.998142 
L 515.754343 -187.100101 
L 518.508652 -186.182645 
L 521.262961 -185.252636 
L 524.069401 -184.297366 
L 527.020048 -183.288941 
L 530.113174 -182.230811 
L 533.206301 -181.174247 
L 536.299427 -180.121208 
L 538.709308 -179.303604 
L 540.113472 -178.828922 
L 542.432782 -178.047956 
L 542.708227 -177.955487 
L 542.826467 -177.915799 
L 542.963973 -177.869643 
L 543.101479 -177.823488 
L 543.253349 -177.772607 
L 544.401477 -177.365161 
L 544.914355 -177.114622 
L 546.700063 -176.245294 
L 547.40929 -175.901492 
L 549.297287 -174.990922 
L 550.193552 -174.560244 
L 552.096482 -173.652314 
L 553.16251 -173.145657 
L 555.224665 -172.173484 
L 556.431467 -171.608072 
L 558.623433 -170.588409 
L 560.005806 -169.951125 
L 562.591173 -168.768262 
L 564.403842 -167.949004 
L 567.496969 -166.565857 
L 570.590095 -165.203456 
L 573.683222 -163.86273 
L 576.776348 -162.544178 
L 579.869474 -161.248242 
L 582.962601 -159.975332 
L 586.055727 -158.725836 
L 589.148853 -157.50011 
L 592.24198 -156.298485 
L 595.335106 -155.12126 
L 598.428233 -153.968708 
L 601.521359 -152.841066 
L 604.614485 -151.738544 
L 607.707612 -150.661314 
L 610.800738 -149.609519 
L 613.893865 -148.583263 
L 616.986991 -147.582619 
L 620.080117 -146.607622 
L 623.173244 -145.658272 
L 626.26637 -144.734533 
L 629.359497 -143.836337 
L 632.452623 -142.963576 
L 635.545749 -142.116112 
L 638.638876 -141.29377 
L 641.732002 -140.496345 
L 644.825128 -139.721286 
L 644.906874 -139.700971 
L 644.906874 -159.227286 
L 644.906874 -159.227286 
L 644.825128 -159.244714 
L 641.732002 -159.90526 
L 638.638876 -160.572376 
L 635.545749 -161.245951 
L 632.452623 -161.925928 
L 629.359497 -162.612251 
L 626.26637 -163.304861 
L 623.173244 -164.003697 
L 620.080117 -164.708697 
L 616.986991 -165.419797 
L 613.893865 -166.136934 
L 610.800738 -166.860041 
L 607.707612 -167.589051 
L 604.614485 -168.323896 
L 601.521359 -169.064505 
L 598.428233 -169.810809 
L 595.335106 -170.562736 
L 592.24198 -171.320214 
L 589.148853 -172.08317 
L 586.055727 -172.851528 
L 582.962601 -173.625214 
L 579.869474 -174.659327 
L 576.776348 -175.746591 
L 573.683222 -176.843467 
L 570.590095 -177.949736 
L 567.496969 -179.06517 
L 564.403842 -180.189115 
L 562.591173 -180.851883 
L 560.005806 -181.802386 
L 558.623433 -182.312958 
L 556.431467 -183.125978 
L 555.224665 -183.575211 
L 553.16251 -184.345721 
L 552.096482 -184.74517 
L 550.193552 -185.460669 
L 549.297287 -185.798451 
L 547.40929 -186.512067 
L 546.700063 -186.780765 
L 544.914355 -187.458655 
L 544.401477 -187.653712 
L 543.253349 -188.09095 
L 543.101479 -188.148842 
L 542.963973 -188.20126 
L 542.826467 -188.253701 
L 542.708227 -188.298799 
L 542.432782 -188.403897 
L 540.113472 -189.290821 
L 538.709308 -189.879065 
L 536.299427 -190.897348 
L 533.206301 -192.206287 
L 530.113174 -193.514711 
L 527.020048 -194.818675 
L 524.069401 -196.053461 
L 521.262961 -197.245241 
L 518.508652 -198.470963 
L 515.754343 -199.679617 
L 513.000034 -200.862453 
L 510.245726 -202.007588 
L 507.491417 -203.09893 
L 504.737108 -204.114725 
L 501.643981 -205.135 
L 498.550855 -205.96512 
L 495.457729 -206.526885 
L 492.364602 -206.718801 
L 489.271476 -206.462621 
L 486.178349 -205.73334 
L 483.085223 -204.211877 
L 479.992097 -201.709758 
L 476.89897 -198.068431 
L 473.805844 -193.206292 
L 470.712718 -187.696401 
L 467.619591 -181.327932 
L 464.526465 -174.062465 
L 461.433338 -166.279054 
L 458.340212 -158.43048 
L 455.247086 -150.966283 
L 452.153959 -144.258267 
L 449.060833 -138.546545 
L 445.967706 -133.92002 
L 442.94916 -130.365606 
L 440.124589 -127.918789 
L 437.37947 -126.061424 
L 434.873488 -124.862838 
L 432.398816 -123.917682 
L 429.305689 -123.113296 
L 426.911631 -122.645477 
L 423.818505 -122.236489 
L 421.499221 -122.021048 
L 418.406095 -121.817211 
L 416.169432 -121.718479 
L 413.076306 -121.617039 
L 410.934951 -121.567036 
L 407.841825 -121.515025 
L 405.854816 -121.490024 
L 403.426222 -121.463105 
L 401.995859 -121.447073 
L 400.565497 -121.429888 
L 400.030585 -121.423169 
L 399.347517 -121.415249 
L 398.914369 -121.411842 
L 398.519631 -121.410553 
L 398.227067 -121.41028 
L 397.934504 -121.410243 
L 397.770909 -121.410241 
L 397.607313 -121.410241 
L 397.544194 -121.410241 
L 397.481075 -121.410241 
L 397.459172 -121.410241 
L 397.456982 -121.410241 
L 397.456763 -121.410241 
z
" style="stroke: #ffff00; stroke-opacity: 0.2"/>
    </defs>
    <g clip-path="url(#p15ac3e4eb9)">
     <use xlink:href="#m5eafa30f69" x="0" y="360" style="fill: #ffff00; fill-opacity: 0.2; stroke: #ffff00; stroke-opacity: 0.2"/>
    </g>
   </g>
   <g id="PathCollection_2">
    <g clip-path="url(#p15ac3e4eb9)">
     <use xlink:href="#ma8296f4d49" x="397.456763" y="238.589759" style="fill: #ffff00; fill-opacity: 0.8; stroke: #000000; stroke-opacity: 0.8"/>
     <use xlink:href="#ma8296f4d49" x="459.31929" y="172.350651" style="fill: #ffff00; fill-opacity: 0.8; stroke: #000000; stroke-opacity: 0.8"/>
     <use xlink:href="#ma8296f4d49" x="490.250554" y="162.025371" style="fill: #ffff00; fill-opacity: 0.8; stroke: #000000; stroke-opacity: 0.8"/>
     <use xlink:href="#ma8296f4d49" x="521.181818" y="185.370985" style="fill: #ffff00; fill-opacity: 0.8; stroke: #000000; stroke-opacity: 0.8"/>
     <use xlink:href="#ma8296f4d49" x="552.113082" y="201.232556" style="fill: #ffff00; fill-opacity: 0.8; stroke: #000000; stroke-opacity: 0.8"/>
     <use xlink:href="#ma8296f4d49" x="583.044346" y="176.298185" style="fill: #ffff00; fill-opacity: 0.8; stroke: #000000; stroke-opacity: 0.8"/>
    </g>
   </g>
   <g id="line2d_36">
    <path d="M 397.456763 238.589759 
L 397.456982 238.589759 
L 397.459172 238.589759 
L 397.481075 238.589759 
L 397.544194 238.589759 
L 397.607313 238.589759 
L 397.770909 238.589759 
L 397.934504 238.589759 
L 398.227067 238.589739 
L 398.519631 238.589588 
L 398.914369 238.588705 
L 399.347517 238.586406 
L 400.030585 238.580779 
L 400.565497 238.576123 
L 401.995859 238.565015 
L 403.426222 238.554961 
L 405.854816 238.537552 
L 407.841825 238.520868 
L 410.934951 238.485792 
L 413.076306 238.452111 
L 416.169432 238.383185 
L 418.406095 238.313157 
L 421.499221 238.175855 
L 423.818505 238.031305 
L 426.911631 237.758841 
L 429.305689 237.463752 
L 432.398816 236.928255 
L 434.873488 236.332788 
L 437.37947 235.526366 
L 440.124589 234.336094 
L 442.94916 232.679718 
L 445.967706 230.294241 
L 449.060833 227.04372 
L 452.153959 222.852698 
L 455.247086 217.665196 
L 458.340212 211.536272 
L 461.433338 204.653541 
L 464.526465 197.327014 
L 467.619591 189.947403 
L 470.712718 182.924741 
L 473.805844 176.622792 
L 476.89897 171.304398 
L 479.992097 167.100812 
L 483.085223 164.012429 
L 486.178349 161.937951 
L 489.271476 160.718261 
L 492.364602 160.178241 
L 495.457729 160.155551 
L 498.550855 160.514454 
L 501.643981 161.148641 
L 504.737108 161.978223 
L 507.491417 162.833905 
L 510.245726 163.76747 
L 513.000034 164.756547 
L 515.754343 165.784621 
L 518.508652 166.839532 
L 521.262961 167.912331 
L 524.069401 169.017024 
L 527.020048 170.185546 
L 530.113174 171.413663 
L 533.206301 172.641503 
L 536.299427 173.866464 
L 538.709308 174.817609 
L 540.113472 175.370189 
L 542.432782 176.279953 
L 542.708227 176.387735 
L 542.826467 176.433984 
L 542.963973 176.487756 
L 543.101479 176.541514 
L 543.253349 176.600869 
L 544.401477 177.049011 
L 544.914355 177.248856 
L 546.700063 177.942969 
L 547.40929 178.217888 
L 549.297287 178.947574 
L 550.193552 179.292829 
L 552.096482 180.02338 
L 553.16251 180.431115 
L 555.224665 181.216687 
L 556.431467 181.674426 
L 558.623433 182.502026 
L 560.005806 183.021359 
L 562.591173 183.987179 
L 564.403842 184.659982 
L 567.496969 185.799639 
L 570.590095 186.928397 
L 573.683222 188.045994 
L 576.776348 189.152183 
L 579.869474 190.246722 
L 582.962601 191.329381 
L 586.055727 192.399935 
L 589.148853 193.458165 
L 592.24198 194.503858 
L 595.335106 195.536808 
L 598.428233 196.556815 
L 601.521359 197.563686 
L 604.614485 198.557234 
L 607.707612 199.537279 
L 610.800738 200.503652 
L 613.893865 201.456187 
L 616.986991 202.394731 
L 620.080117 203.319138 
L 623.173244 204.229272 
L 626.26637 205.125005 
L 629.359497 206.006223 
L 632.452623 206.87282 
L 635.545749 207.724699 
L 638.638876 208.561779 
L 641.732002 209.383986 
L 644.825128 210.19126 
L 644.906874 210.21239 
" clip-path="url(#p15ac3e4eb9)" style="fill: none; stroke: #ffff00; stroke-width: 1.5; stroke-linecap: square"/>
   </g>
  </g>
  <g id="text_39">
   <!-- DoseT0_112 -->
   <g transform="translate(290.85225 23.825) scale(0.224 -0.224)">
    <defs>
     <path id="DejaVuSans-73" d="M 2834 3397 
L 2834 2853 
Q 2591 2978 2328 3040 
Q 2066 3103 1784 3103 
Q 1356 3103 1142 2972 
Q 928 2841 928 2578 
Q 928 2378 1081 2264 
Q 1234 2150 1697 2047 
L 1894 2003 
Q 2506 1872 2764 1633 
Q 3022 1394 3022 966 
Q 3022 478 2636 193 
Q 2250 -91 1575 -91 
Q 1294 -91 989 -36 
Q 684 19 347 128 
L 347 722 
Q 666 556 975 473 
Q 1284 391 1588 391 
Q 1994 391 2212 530 
Q 2431 669 2431 922 
Q 2431 1156 2273 1281 
Q 2116 1406 1581 1522 
L 1381 1569 
Q 847 1681 609 1914 
Q 372 2147 372 2553 
Q 372 3047 722 3315 
Q 1072 3584 1716 3584 
Q 2034 3584 2315 3537 
Q 2597 3491 2834 3397 
z
" transform="scale(0.015625)"/>
     <path id="DejaVuSans-5f" d="M 3263 -1063 
L 3263 -1509 
L -63 -1509 
L -63 -1063 
L 3263 -1063 
z
" transform="scale(0.015625)"/>
    </defs>
    <use xlink:href="#DejaVuSans-44"/>
    <use xlink:href="#DejaVuSans-6f" x="77.001953"/>
    <use xlink:href="#DejaVuSans-73" x="138.183594"/>
    <use xlink:href="#DejaVuSans-65" x="190.283203"/>
    <use xlink:href="#DejaVuSans-54" x="251.806641"/>
    <use xlink:href="#DejaVuSans-30" x="312.890625"/>
    <use xlink:href="#DejaVuSans-5f" x="376.513672"/>
    <use xlink:href="#DejaVuSans-31" x="426.513672"/>
    <use xlink:href="#DejaVuSans-31" x="490.136719"/>
    <use xlink:href="#DejaVuSans-32" x="553.759766"/>
   </g>
  </g>
 </g>
 <defs>
  <clipPath id="pbf87d44893">
   <rect x="90" y="43.2" width="253.636364" height="277.2"/>
  </clipPath>
  <clipPath id="p15ac3e4eb9">
   <rect x="394.363636" y="43.2" width="253.636364" height="277.2"/>
  </clipPath>
 </defs>
</svg>
