<?xml version="1.0" encoding="utf-8" standalone="no"?>
<!DOCTYPE svg PUBLIC "-//W3C//DTD SVG 1.1//EN"
  "http://www.w3.org/Graphics/SVG/1.1/DTD/svg11.dtd">
<svg xmlns:xlink="http://www.w3.org/1999/xlink" width="720pt" height="360pt" viewBox="0 0 720 360" xmlns="http://www.w3.org/2000/svg" version="1.1">
 <metadata>
  <rdf:RDF xmlns:dc="http://purl.org/dc/elements/1.1/" xmlns:cc="http://creativecommons.org/ns#" xmlns:rdf="http://www.w3.org/1999/02/22-rdf-syntax-ns#">
   <cc:Work>
    <dc:type rdf:resource="http://purl.org/dc/dcmitype/StillImage"/>
    <dc:date>2024-10-28T14:30:01.866732</dc:date>
    <dc:format>image/svg+xml</dc:format>
    <dc:creator>
     <cc:Agent>
      <dc:title>Matplotlib v3.9.2, https://matplotlib.org/</dc:title>
     </cc:Agent>
    </dc:creator>
   </cc:Work>
  </rdf:RDF>
 </metadata>
 <defs>
  <style type="text/css">*{stroke-linejoin: round; stroke-linecap: butt}</style>
 </defs>
 <g id="figure_1">
  <g id="patch_1">
   <path d="M 0 360 
L 720 360 
L 720 0 
L 0 0 
z
" style="fill: #ffffff"/>
  </g>
  <g id="axes_1">
   <g id="patch_2">
    <path d="M 90 320.4 
L 343.636364 320.4 
L 343.636364 43.2 
L 90 43.2 
z
" style="fill: #ffffff"/>
   </g>
   <g id="matplotlib.axis_1">
    <g id="xtick_1">
     <g id="line2d_1">
      <defs>
       <path id="m7a26b2daab" d="M 0 0 
L 0 3.5 
" style="stroke: #000000; stroke-width: 0.8"/>
      </defs>
      <g>
       <use xlink:href="#m7a26b2daab" x="93.093126" y="320.4" style="stroke: #000000; stroke-width: 0.8"/>
      </g>
     </g>
     <g id="text_1">
      <!-- 0 -->
      <g transform="translate(88.512126 338.34175) scale(0.144 -0.144)">
       <defs>
        <path id="DejaVuSans-30" d="M 2034 4250 
Q 1547 4250 1301 3770 
Q 1056 3291 1056 2328 
Q 1056 1369 1301 889 
Q 1547 409 2034 409 
Q 2525 409 2770 889 
Q 3016 1369 3016 2328 
Q 3016 3291 2770 3770 
Q 2525 4250 2034 4250 
z
M 2034 4750 
Q 2819 4750 3233 4129 
Q 3647 3509 3647 2328 
Q 3647 1150 3233 529 
Q 2819 -91 2034 -91 
Q 1250 -91 836 529 
Q 422 1150 422 2328 
Q 422 3509 836 4129 
Q 1250 4750 2034 4750 
z
" transform="scale(0.015625)"/>
       </defs>
       <use xlink:href="#DejaVuSans-30"/>
      </g>
     </g>
    </g>
    <g id="xtick_2">
     <g id="line2d_2">
      <g>
       <use xlink:href="#m7a26b2daab" x="124.02439" y="320.4" style="stroke: #000000; stroke-width: 0.8"/>
      </g>
     </g>
     <g id="text_2">
      <!-- 1 -->
      <g transform="translate(119.44339 338.34175) scale(0.144 -0.144)">
       <defs>
        <path id="DejaVuSans-31" d="M 794 531 
L 1825 531 
L 1825 4091 
L 703 3866 
L 703 4441 
L 1819 4666 
L 2450 4666 
L 2450 531 
L 3481 531 
L 3481 0 
L 794 0 
L 794 531 
z
" transform="scale(0.015625)"/>
       </defs>
       <use xlink:href="#DejaVuSans-31"/>
      </g>
     </g>
    </g>
    <g id="xtick_3">
     <g id="line2d_3">
      <g>
       <use xlink:href="#m7a26b2daab" x="154.955654" y="320.4" style="stroke: #000000; stroke-width: 0.8"/>
      </g>
     </g>
     <g id="text_3">
      <!-- 2 -->
      <g transform="translate(150.374654 338.34175) scale(0.144 -0.144)">
       <defs>
        <path id="DejaVuSans-32" d="M 1228 531 
L 3431 531 
L 3431 0 
L 469 0 
L 469 531 
Q 828 903 1448 1529 
Q 2069 2156 2228 2338 
Q 2531 2678 2651 2914 
Q 2772 3150 2772 3378 
Q 2772 3750 2511 3984 
Q 2250 4219 1831 4219 
Q 1534 4219 1204 4116 
Q 875 4013 500 3803 
L 500 4441 
Q 881 4594 1212 4672 
Q 1544 4750 1819 4750 
Q 2544 4750 2975 4387 
Q 3406 4025 3406 3419 
Q 3406 3131 3298 2873 
Q 3191 2616 2906 2266 
Q 2828 2175 2409 1742 
Q 1991 1309 1228 531 
z
" transform="scale(0.015625)"/>
       </defs>
       <use xlink:href="#DejaVuSans-32"/>
      </g>
     </g>
    </g>
    <g id="xtick_4">
     <g id="line2d_4">
      <g>
       <use xlink:href="#m7a26b2daab" x="185.886918" y="320.4" style="stroke: #000000; stroke-width: 0.8"/>
      </g>
     </g>
     <g id="text_4">
      <!-- 3 -->
      <g transform="translate(181.305918 338.34175) scale(0.144 -0.144)">
       <defs>
        <path id="DejaVuSans-33" d="M 2597 2516 
Q 3050 2419 3304 2112 
Q 3559 1806 3559 1356 
Q 3559 666 3084 287 
Q 2609 -91 1734 -91 
Q 1441 -91 1130 -33 
Q 819 25 488 141 
L 488 750 
Q 750 597 1062 519 
Q 1375 441 1716 441 
Q 2309 441 2620 675 
Q 2931 909 2931 1356 
Q 2931 1769 2642 2001 
Q 2353 2234 1838 2234 
L 1294 2234 
L 1294 2753 
L 1863 2753 
Q 2328 2753 2575 2939 
Q 2822 3125 2822 3475 
Q 2822 3834 2567 4026 
Q 2313 4219 1838 4219 
Q 1578 4219 1281 4162 
Q 984 4106 628 3988 
L 628 4550 
Q 988 4650 1302 4700 
Q 1616 4750 1894 4750 
Q 2613 4750 3031 4423 
Q 3450 4097 3450 3541 
Q 3450 3153 3228 2886 
Q 3006 2619 2597 2516 
z
" transform="scale(0.015625)"/>
       </defs>
       <use xlink:href="#DejaVuSans-33"/>
      </g>
     </g>
    </g>
    <g id="xtick_5">
     <g id="line2d_5">
      <g>
       <use xlink:href="#m7a26b2daab" x="216.818182" y="320.4" style="stroke: #000000; stroke-width: 0.8"/>
      </g>
     </g>
     <g id="text_5">
      <!-- 4 -->
      <g transform="translate(212.237182 338.34175) scale(0.144 -0.144)">
       <defs>
        <path id="DejaVuSans-34" d="M 2419 4116 
L 825 1625 
L 2419 1625 
L 2419 4116 
z
M 2253 4666 
L 3047 4666 
L 3047 1625 
L 3713 1625 
L 3713 1100 
L 3047 1100 
L 3047 0 
L 2419 0 
L 2419 1100 
L 313 1100 
L 313 1709 
L 2253 4666 
z
" transform="scale(0.015625)"/>
       </defs>
       <use xlink:href="#DejaVuSans-34"/>
      </g>
     </g>
    </g>
    <g id="xtick_6">
     <g id="line2d_6">
      <g>
       <use xlink:href="#m7a26b2daab" x="247.749446" y="320.4" style="stroke: #000000; stroke-width: 0.8"/>
      </g>
     </g>
     <g id="text_6">
      <!-- 5 -->
      <g transform="translate(243.168446 338.34175) scale(0.144 -0.144)">
       <defs>
        <path id="DejaVuSans-35" d="M 691 4666 
L 3169 4666 
L 3169 4134 
L 1269 4134 
L 1269 2991 
Q 1406 3038 1543 3061 
Q 1681 3084 1819 3084 
Q 2600 3084 3056 2656 
Q 3513 2228 3513 1497 
Q 3513 744 3044 326 
Q 2575 -91 1722 -91 
Q 1428 -91 1123 -41 
Q 819 9 494 109 
L 494 744 
Q 775 591 1075 516 
Q 1375 441 1709 441 
Q 2250 441 2565 725 
Q 2881 1009 2881 1497 
Q 2881 1984 2565 2268 
Q 2250 2553 1709 2553 
Q 1456 2553 1204 2497 
Q 953 2441 691 2322 
L 691 4666 
z
" transform="scale(0.015625)"/>
       </defs>
       <use xlink:href="#DejaVuSans-35"/>
      </g>
     </g>
    </g>
    <g id="xtick_7">
     <g id="line2d_7">
      <g>
       <use xlink:href="#m7a26b2daab" x="278.68071" y="320.4" style="stroke: #000000; stroke-width: 0.8"/>
      </g>
     </g>
     <g id="text_7">
      <!-- 6 -->
      <g transform="translate(274.09971 338.34175) scale(0.144 -0.144)">
       <defs>
        <path id="DejaVuSans-36" d="M 2113 2584 
Q 1688 2584 1439 2293 
Q 1191 2003 1191 1497 
Q 1191 994 1439 701 
Q 1688 409 2113 409 
Q 2538 409 2786 701 
Q 3034 994 3034 1497 
Q 3034 2003 2786 2293 
Q 2538 2584 2113 2584 
z
M 3366 4563 
L 3366 3988 
Q 3128 4100 2886 4159 
Q 2644 4219 2406 4219 
Q 1781 4219 1451 3797 
Q 1122 3375 1075 2522 
Q 1259 2794 1537 2939 
Q 1816 3084 2150 3084 
Q 2853 3084 3261 2657 
Q 3669 2231 3669 1497 
Q 3669 778 3244 343 
Q 2819 -91 2113 -91 
Q 1303 -91 875 529 
Q 447 1150 447 2328 
Q 447 3434 972 4092 
Q 1497 4750 2381 4750 
Q 2619 4750 2861 4703 
Q 3103 4656 3366 4563 
z
" transform="scale(0.015625)"/>
       </defs>
       <use xlink:href="#DejaVuSans-36"/>
      </g>
     </g>
    </g>
    <g id="xtick_8">
     <g id="line2d_8">
      <g>
       <use xlink:href="#m7a26b2daab" x="309.611973" y="320.4" style="stroke: #000000; stroke-width: 0.8"/>
      </g>
     </g>
     <g id="text_8">
      <!-- 7 -->
      <g transform="translate(305.030973 338.34175) scale(0.144 -0.144)">
       <defs>
        <path id="DejaVuSans-37" d="M 525 4666 
L 3525 4666 
L 3525 4397 
L 1831 0 
L 1172 0 
L 2766 4134 
L 525 4134 
L 525 4666 
z
" transform="scale(0.015625)"/>
       </defs>
       <use xlink:href="#DejaVuSans-37"/>
      </g>
     </g>
    </g>
    <g id="xtick_9">
     <g id="line2d_9">
      <g>
       <use xlink:href="#m7a26b2daab" x="340.543237" y="320.4" style="stroke: #000000; stroke-width: 0.8"/>
      </g>
     </g>
     <g id="text_9">
      <!-- 8 -->
      <g transform="translate(335.962237 338.34175) scale(0.144 -0.144)">
       <defs>
        <path id="DejaVuSans-38" d="M 2034 2216 
Q 1584 2216 1326 1975 
Q 1069 1734 1069 1313 
Q 1069 891 1326 650 
Q 1584 409 2034 409 
Q 2484 409 2743 651 
Q 3003 894 3003 1313 
Q 3003 1734 2745 1975 
Q 2488 2216 2034 2216 
z
M 1403 2484 
Q 997 2584 770 2862 
Q 544 3141 544 3541 
Q 544 4100 942 4425 
Q 1341 4750 2034 4750 
Q 2731 4750 3128 4425 
Q 3525 4100 3525 3541 
Q 3525 3141 3298 2862 
Q 3072 2584 2669 2484 
Q 3125 2378 3379 2068 
Q 3634 1759 3634 1313 
Q 3634 634 3220 271 
Q 2806 -91 2034 -91 
Q 1263 -91 848 271 
Q 434 634 434 1313 
Q 434 1759 690 2068 
Q 947 2378 1403 2484 
z
M 1172 3481 
Q 1172 3119 1398 2916 
Q 1625 2713 2034 2713 
Q 2441 2713 2670 2916 
Q 2900 3119 2900 3481 
Q 2900 3844 2670 4047 
Q 2441 4250 2034 4250 
Q 1625 4250 1398 4047 
Q 1172 3844 1172 3481 
z
" transform="scale(0.015625)"/>
       </defs>
       <use xlink:href="#DejaVuSans-38"/>
      </g>
     </g>
    </g>
    <g id="text_10">
     <!-- Time (d) -->
     <g transform="translate(176.693182 359.9255) scale(0.192 -0.192)">
      <defs>
       <path id="DejaVuSans-54" d="M -19 4666 
L 3928 4666 
L 3928 4134 
L 2272 4134 
L 2272 0 
L 1638 0 
L 1638 4134 
L -19 4134 
L -19 4666 
z
" transform="scale(0.015625)"/>
       <path id="DejaVuSans-69" d="M 603 3500 
L 1178 3500 
L 1178 0 
L 603 0 
L 603 3500 
z
M 603 4863 
L 1178 4863 
L 1178 4134 
L 603 4134 
L 603 4863 
z
" transform="scale(0.015625)"/>
       <path id="DejaVuSans-6d" d="M 3328 2828 
Q 3544 3216 3844 3400 
Q 4144 3584 4550 3584 
Q 5097 3584 5394 3201 
Q 5691 2819 5691 2113 
L 5691 0 
L 5113 0 
L 5113 2094 
Q 5113 2597 4934 2840 
Q 4756 3084 4391 3084 
Q 3944 3084 3684 2787 
Q 3425 2491 3425 1978 
L 3425 0 
L 2847 0 
L 2847 2094 
Q 2847 2600 2669 2842 
Q 2491 3084 2119 3084 
Q 1678 3084 1418 2786 
Q 1159 2488 1159 1978 
L 1159 0 
L 581 0 
L 581 3500 
L 1159 3500 
L 1159 2956 
Q 1356 3278 1631 3431 
Q 1906 3584 2284 3584 
Q 2666 3584 2933 3390 
Q 3200 3197 3328 2828 
z
" transform="scale(0.015625)"/>
       <path id="DejaVuSans-65" d="M 3597 1894 
L 3597 1613 
L 953 1613 
Q 991 1019 1311 708 
Q 1631 397 2203 397 
Q 2534 397 2845 478 
Q 3156 559 3463 722 
L 3463 178 
Q 3153 47 2828 -22 
Q 2503 -91 2169 -91 
Q 1331 -91 842 396 
Q 353 884 353 1716 
Q 353 2575 817 3079 
Q 1281 3584 2069 3584 
Q 2775 3584 3186 3129 
Q 3597 2675 3597 1894 
z
M 3022 2063 
Q 3016 2534 2758 2815 
Q 2500 3097 2075 3097 
Q 1594 3097 1305 2825 
Q 1016 2553 972 2059 
L 3022 2063 
z
" transform="scale(0.015625)"/>
       <path id="DejaVuSans-20" transform="scale(0.015625)"/>
       <path id="DejaVuSans-28" d="M 1984 4856 
Q 1566 4138 1362 3434 
Q 1159 2731 1159 2009 
Q 1159 1288 1364 580 
Q 1569 -128 1984 -844 
L 1484 -844 
Q 1016 -109 783 600 
Q 550 1309 550 2009 
Q 550 2706 781 3412 
Q 1013 4119 1484 4856 
L 1984 4856 
z
" transform="scale(0.015625)"/>
       <path id="DejaVuSans-64" d="M 2906 2969 
L 2906 4863 
L 3481 4863 
L 3481 0 
L 2906 0 
L 2906 525 
Q 2725 213 2448 61 
Q 2172 -91 1784 -91 
Q 1150 -91 751 415 
Q 353 922 353 1747 
Q 353 2572 751 3078 
Q 1150 3584 1784 3584 
Q 2172 3584 2448 3432 
Q 2725 3281 2906 2969 
z
M 947 1747 
Q 947 1113 1208 752 
Q 1469 391 1925 391 
Q 2381 391 2643 752 
Q 2906 1113 2906 1747 
Q 2906 2381 2643 2742 
Q 2381 3103 1925 3103 
Q 1469 3103 1208 2742 
Q 947 2381 947 1747 
z
" transform="scale(0.015625)"/>
       <path id="DejaVuSans-29" d="M 513 4856 
L 1013 4856 
Q 1481 4119 1714 3412 
Q 1947 2706 1947 2009 
Q 1947 1309 1714 600 
Q 1481 -109 1013 -844 
L 513 -844 
Q 928 -128 1133 580 
Q 1338 1288 1338 2009 
Q 1338 2731 1133 3434 
Q 928 4138 513 4856 
z
" transform="scale(0.015625)"/>
      </defs>
      <use xlink:href="#DejaVuSans-54"/>
      <use xlink:href="#DejaVuSans-69" x="57.958984"/>
      <use xlink:href="#DejaVuSans-6d" x="85.742188"/>
      <use xlink:href="#DejaVuSans-65" x="183.154297"/>
      <use xlink:href="#DejaVuSans-20" x="244.677734"/>
      <use xlink:href="#DejaVuSans-28" x="276.464844"/>
      <use xlink:href="#DejaVuSans-64" x="315.478516"/>
      <use xlink:href="#DejaVuSans-29" x="378.955078"/>
     </g>
    </g>
   </g>
   <g id="matplotlib.axis_2">
    <g id="ytick_1">
     <g id="line2d_10">
      <defs>
       <path id="m6469e96081" d="M 0 0 
L -3.5 0 
" style="stroke: #000000; stroke-width: 0.8"/>
      </defs>
      <g>
       <use xlink:href="#m6469e96081" x="90" y="320.4" style="stroke: #000000; stroke-width: 0.8"/>
      </g>
     </g>
     <g id="text_11">
      <!-- 0 -->
      <g transform="translate(73.838 325.870875) scale(0.144 -0.144)">
       <use xlink:href="#DejaVuSans-30"/>
      </g>
     </g>
    </g>
    <g id="ytick_2">
     <g id="line2d_11">
      <g>
       <use xlink:href="#m6469e96081" x="90" y="286.8" style="stroke: #000000; stroke-width: 0.8"/>
      </g>
     </g>
     <g id="text_12">
      <!-- 1 -->
      <g transform="translate(73.838 292.270875) scale(0.144 -0.144)">
       <use xlink:href="#DejaVuSans-31"/>
      </g>
     </g>
    </g>
    <g id="ytick_3">
     <g id="line2d_12">
      <g>
       <use xlink:href="#m6469e96081" x="90" y="253.2" style="stroke: #000000; stroke-width: 0.8"/>
      </g>
     </g>
     <g id="text_13">
      <!-- 2 -->
      <g transform="translate(73.838 258.670875) scale(0.144 -0.144)">
       <use xlink:href="#DejaVuSans-32"/>
      </g>
     </g>
    </g>
    <g id="ytick_4">
     <g id="line2d_13">
      <g>
       <use xlink:href="#m6469e96081" x="90" y="219.6" style="stroke: #000000; stroke-width: 0.8"/>
      </g>
     </g>
     <g id="text_14">
      <!-- 3 -->
      <g transform="translate(73.838 225.070875) scale(0.144 -0.144)">
       <use xlink:href="#DejaVuSans-33"/>
      </g>
     </g>
    </g>
    <g id="ytick_5">
     <g id="line2d_14">
      <g>
       <use xlink:href="#m6469e96081" x="90" y="186" style="stroke: #000000; stroke-width: 0.8"/>
      </g>
     </g>
     <g id="text_15">
      <!-- 4 -->
      <g transform="translate(73.838 191.470875) scale(0.144 -0.144)">
       <use xlink:href="#DejaVuSans-34"/>
      </g>
     </g>
    </g>
    <g id="ytick_6">
     <g id="line2d_15">
      <g>
       <use xlink:href="#m6469e96081" x="90" y="152.4" style="stroke: #000000; stroke-width: 0.8"/>
      </g>
     </g>
     <g id="text_16">
      <!-- 5 -->
      <g transform="translate(73.838 157.870875) scale(0.144 -0.144)">
       <use xlink:href="#DejaVuSans-35"/>
      </g>
     </g>
    </g>
    <g id="ytick_7">
     <g id="line2d_16">
      <g>
       <use xlink:href="#m6469e96081" x="90" y="118.8" style="stroke: #000000; stroke-width: 0.8"/>
      </g>
     </g>
     <g id="text_17">
      <!-- 6 -->
      <g transform="translate(73.838 124.270875) scale(0.144 -0.144)">
       <use xlink:href="#DejaVuSans-36"/>
      </g>
     </g>
    </g>
    <g id="ytick_8">
     <g id="line2d_17">
      <g>
       <use xlink:href="#m6469e96081" x="90" y="85.2" style="stroke: #000000; stroke-width: 0.8"/>
      </g>
     </g>
     <g id="text_18">
      <!-- 7 -->
      <g transform="translate(73.838 90.670875) scale(0.144 -0.144)">
       <use xlink:href="#DejaVuSans-37"/>
      </g>
     </g>
    </g>
    <g id="ytick_9">
     <g id="line2d_18">
      <g>
       <use xlink:href="#m6469e96081" x="90" y="51.6" style="stroke: #000000; stroke-width: 0.8"/>
      </g>
     </g>
     <g id="text_19">
      <!-- 8 -->
      <g transform="translate(73.838 57.070875) scale(0.144 -0.144)">
       <use xlink:href="#DejaVuSans-38"/>
      </g>
     </g>
    </g>
    <g id="text_20">
     <!-- Log10(V) -->
     <g transform="translate(65.845 225.2235) rotate(-90) scale(0.192 -0.192)">
      <defs>
       <path id="DejaVuSans-4c" d="M 628 4666 
L 1259 4666 
L 1259 531 
L 3531 531 
L 3531 0 
L 628 0 
L 628 4666 
z
" transform="scale(0.015625)"/>
       <path id="DejaVuSans-6f" d="M 1959 3097 
Q 1497 3097 1228 2736 
Q 959 2375 959 1747 
Q 959 1119 1226 758 
Q 1494 397 1959 397 
Q 2419 397 2687 759 
Q 2956 1122 2956 1747 
Q 2956 2369 2687 2733 
Q 2419 3097 1959 3097 
z
M 1959 3584 
Q 2709 3584 3137 3096 
Q 3566 2609 3566 1747 
Q 3566 888 3137 398 
Q 2709 -91 1959 -91 
Q 1206 -91 779 398 
Q 353 888 353 1747 
Q 353 2609 779 3096 
Q 1206 3584 1959 3584 
z
" transform="scale(0.015625)"/>
       <path id="DejaVuSans-67" d="M 2906 1791 
Q 2906 2416 2648 2759 
Q 2391 3103 1925 3103 
Q 1463 3103 1205 2759 
Q 947 2416 947 1791 
Q 947 1169 1205 825 
Q 1463 481 1925 481 
Q 2391 481 2648 825 
Q 2906 1169 2906 1791 
z
M 3481 434 
Q 3481 -459 3084 -895 
Q 2688 -1331 1869 -1331 
Q 1566 -1331 1297 -1286 
Q 1028 -1241 775 -1147 
L 775 -588 
Q 1028 -725 1275 -790 
Q 1522 -856 1778 -856 
Q 2344 -856 2625 -561 
Q 2906 -266 2906 331 
L 2906 616 
Q 2728 306 2450 153 
Q 2172 0 1784 0 
Q 1141 0 747 490 
Q 353 981 353 1791 
Q 353 2603 747 3093 
Q 1141 3584 1784 3584 
Q 2172 3584 2450 3431 
Q 2728 3278 2906 2969 
L 2906 3500 
L 3481 3500 
L 3481 434 
z
" transform="scale(0.015625)"/>
       <path id="DejaVuSans-56" d="M 1831 0 
L 50 4666 
L 709 4666 
L 2188 738 
L 3669 4666 
L 4325 4666 
L 2547 0 
L 1831 0 
z
" transform="scale(0.015625)"/>
      </defs>
      <use xlink:href="#DejaVuSans-4c"/>
      <use xlink:href="#DejaVuSans-6f" x="53.962891"/>
      <use xlink:href="#DejaVuSans-67" x="115.144531"/>
      <use xlink:href="#DejaVuSans-31" x="178.621094"/>
      <use xlink:href="#DejaVuSans-30" x="242.244141"/>
      <use xlink:href="#DejaVuSans-28" x="305.867188"/>
      <use xlink:href="#DejaVuSans-56" x="344.880859"/>
      <use xlink:href="#DejaVuSans-29" x="413.289062"/>
     </g>
    </g>
   </g>
   <g id="patch_3">
    <path d="M 90 320.4 
L 90 43.2 
" style="fill: none; stroke: #000000; stroke-width: 0.8; stroke-linejoin: miter; stroke-linecap: square"/>
   </g>
   <g id="patch_4">
    <path d="M 343.636364 320.4 
L 343.636364 43.2 
" style="fill: none; stroke: #000000; stroke-width: 0.8; stroke-linejoin: miter; stroke-linecap: square"/>
   </g>
   <g id="patch_5">
    <path d="M 90 320.4 
L 343.636364 320.4 
" style="fill: none; stroke: #000000; stroke-width: 0.8; stroke-linejoin: miter; stroke-linecap: square"/>
   </g>
   <g id="patch_6">
    <path d="M 90 43.2 
L 343.636364 43.2 
" style="fill: none; stroke: #000000; stroke-width: 0.8; stroke-linejoin: miter; stroke-linecap: square"/>
   </g>
   <g id="PolyCollection_1">
    <defs>
     <path id="m201bf669ff" d="M 93.093126 -39.6 
L 93.093126 -39.6 
L 93.09373 -39.6 
L 93.09977 -39.6 
L 93.160165 -39.6 
L 93.407901 -44.985346 
L 93.568017 -56.392985 
L 94.13368 -77.465466 
L 94.455604 -84.82089 
L 95.544221 -99.041101 
L 96.082794 -103.54746 
L 97.81805 -113.008607 
L 98.568711 -115.857343 
L 100.584632 -121.676649 
L 101.550236 -123.945639 
L 103.800486 -128.624037 
L 104.977745 -130.895881 
L 107.396318 -135.423767 
L 108.768119 -137.886673 
L 111.237273 -142.21063 
L 112.752777 -144.852041 
L 115.681488 -149.970022 
L 117.312552 -152.809451 
L 120.405678 -158.209013 
L 122.177044 -161.288372 
L 125.270171 -166.674803 
L 127.165254 -169.960864 
L 130.25838 -175.326426 
L 132.274724 -178.807893 
L 135.36785 -184.139653 
L 137.504123 -187.800237 
L 140.59725 -193.072917 
L 142.871019 -196.913498 
L 145.964145 -202.077893 
L 148.420448 -206.109975 
L 151.513574 -211.076091 
L 154.6067 -215.870861 
L 157.699827 -220.438024 
L 160.792953 -224.711802 
L 163.886079 -228.621444 
L 166.979206 -232.099209 
L 170.072332 -235.090764 
L 173.165459 -237.447156 
L 176.258585 -238.989 
L 179.351711 -239.830549 
L 182.061603 -240.254206 
L 184.771494 -240.4526 
L 187.171014 -240.468286 
L 189.608708 -240.35501 
L 192.046402 -240.12219 
L 194.166525 -239.793356 
L 196.405793 -239.372324 
L 199.498919 -238.637243 
L 202.063972 -237.892067 
L 205.157098 -236.805166 
L 208.250225 -235.502585 
L 211.343351 -233.959835 
L 214.436477 -232.144087 
L 217.529604 -230.009728 
L 220.62273 -227.489701 
L 223.715857 -224.478314 
L 226.808983 -219.696587 
L 229.902109 -210.910054 
L 232.995236 -195.892295 
L 236.088362 -179.815026 
L 236.212087 -179.170195 
L 236.261577 -178.912263 
L 236.334146 -178.534051 
L 236.387601 -178.255452 
L 236.409224 -178.142755 
L 236.410588 -178.135649 
L 236.424224 -178.064583 
L 236.435889 -178.003785 
L 236.456031 -177.898807 
L 236.472641 -177.812238 
L 236.528881 -177.519128 
L 236.700682 -176.623735 
L 237.110044 -174.490222 
L 237.949991 -170.098288 
L 238.789939 -165.693504 
L 240.078559 -158.934369 
L 241.36718 -151.622591 
L 242.932251 -141.850672 
L 244.50934 -131.95972 
L 246.339103 -120.484889 
L 247.726902 -111.765198 
L 249.853554 -97.573411 
L 251.347836 -87.344809 
L 253.538813 -72.315336 
L 255.15787 -61.224617 
L 257.551337 -45.045828 
L 259.466764 -39.6 
L 262.544574 -39.6 
L 264.995931 -39.6 
L 268.089058 -39.6 
L 271.182184 -39.6 
L 274.27531 -39.6 
L 277.368437 -39.6 
L 280.461563 -39.6 
L 283.554689 -39.6 
L 286.647816 -39.6 
L 289.740942 -39.6 
L 292.834069 -39.6 
L 295.927195 -39.6 
L 299.020321 -39.6 
L 302.113448 -39.6 
L 305.206574 -39.6 
L 308.299701 -39.6 
L 311.392827 -39.6 
L 314.485953 -39.6 
L 317.57908 -39.6 
L 320.672206 -39.6 
L 323.765332 -39.6 
L 326.858459 -39.6 
L 329.951585 -39.6 
L 333.044712 -39.6 
L 336.137838 -39.6 
L 339.230964 -39.6 
L 340.543237 -39.6 
L 340.543237 -39.6 
L 340.543237 -39.6 
L 339.230964 -39.6 
L 336.137838 -39.6 
L 333.044712 -39.6 
L 329.951585 -39.6 
L 326.858459 -39.6 
L 323.765332 -39.6 
L 320.672206 -39.6 
L 317.57908 -39.6 
L 314.485953 -39.6 
L 311.392827 -39.6 
L 308.299701 -39.6 
L 305.206574 -39.6 
L 302.113448 -39.6 
L 299.020321 -39.6 
L 295.927195 -39.6 
L 292.834069 -39.6 
L 289.740942 -39.6 
L 286.647816 -39.6 
L 283.554689 -39.6 
L 280.461563 -39.6 
L 277.368437 -39.6 
L 274.27531 -39.6 
L 271.182184 -39.6 
L 268.089058 -39.6 
L 264.995931 -39.6 
L 262.544574 -43.226431 
L 259.466764 -56.940734 
L 257.551337 -68.889161 
L 255.15787 -83.815882 
L 253.538813 -94.062809 
L 251.347836 -108.239789 
L 249.853554 -117.900938 
L 247.726902 -131.634602 
L 246.339103 -140.58875 
L 244.50934 -152.367939 
L 242.932251 -162.484446 
L 241.36718 -172.781728 
L 240.078559 -181.268965 
L 238.789939 -189.69902 
L 237.949991 -195.173118 
L 237.110044 -200.155796 
L 236.700682 -202.1833 
L 236.528881 -203.013979 
L 236.472641 -203.265927 
L 236.456031 -203.340338 
L 236.435889 -203.430574 
L 236.424224 -203.482834 
L 236.410588 -203.54392 
L 236.409224 -203.550029 
L 236.387601 -203.646899 
L 236.334146 -203.886374 
L 236.261577 -204.211472 
L 236.212087 -204.433182 
L 236.088362 -204.987457 
L 232.995236 -214.541508 
L 229.902109 -220.891871 
L 226.808983 -226.413617 
L 223.715857 -230.758582 
L 220.62273 -234.066618 
L 217.529604 -236.691411 
L 214.436477 -238.838324 
L 211.343351 -240.557618 
L 208.250225 -241.999468 
L 205.157098 -243.145183 
L 202.063972 -244.059009 
L 199.498919 -244.645681 
L 196.405793 -245.171834 
L 194.166525 -245.422222 
L 192.046402 -245.569385 
L 189.608708 -245.605509 
L 187.171014 -245.476629 
L 184.771494 -245.148272 
L 182.061603 -244.61383 
L 179.351711 -243.951989 
L 176.258585 -242.777987 
L 173.165459 -241.111562 
L 170.072332 -239.553813 
L 166.979206 -237.461425 
L 163.886079 -234.774112 
L 160.792953 -231.483935 
L 157.699827 -227.624529 
L 154.6067 -223.262925 
L 151.513574 -218.522324 
L 148.420448 -213.480218 
L 145.964145 -209.301105 
L 142.871019 -203.854812 
L 140.59725 -199.77039 
L 137.504123 -194.109599 
L 135.36785 -190.166516 
L 132.274724 -184.393896 
L 130.25838 -180.621056 
L 127.165254 -174.78967 
L 125.270171 -171.218844 
L 122.177044 -165.355401 
L 120.405678 -162.005301 
L 117.312552 -156.123898 
L 115.681488 -153.033508 
L 112.752777 -147.750945 
L 111.237273 -145.039405 
L 108.768119 -140.603626 
L 107.396318 -138.124226 
L 104.977745 -133.654021 
L 103.800486 -131.374238 
L 101.550236 -126.608501 
L 100.584632 -124.221611 
L 98.568711 -118.072781 
L 97.81805 -114.962841 
L 96.082794 -104.994186 
L 95.544221 -100.163534 
L 94.455604 -85.53087 
L 94.13368 -78.189871 
L 93.568017 -56.794443 
L 93.407901 -45.952576 
L 93.160165 -39.651548 
L 93.09977 -39.6 
L 93.09373 -39.6 
L 93.093126 -39.6 
z
" style="stroke: #ffff00; stroke-opacity: 0.2"/>
    </defs>
    <g clip-path="url(#p4f2e8038d3)">
     <use xlink:href="#m201bf669ff" x="0" y="360" style="fill: #ffff00; fill-opacity: 0.2; stroke: #ffff00; stroke-opacity: 0.2"/>
    </g>
   </g>
   <g id="PolyCollection_2">
    <defs>
     <path id="m951c05b13e" d="M 93.093126 -39.6 
L 93.093126 -39.6 
L 93.093695 -39.6 
L 93.099382 -39.6 
L 93.156251 -39.6 
L 93.40142 -44.720761 
L 93.55784 -55.924673 
L 94.11973 -77.510429 
L 94.436755 -85.293918 
L 95.517762 -100.019486 
L 96.041673 -105.048693 
L 97.754562 -115.034388 
L 98.480343 -118.285572 
L 100.427476 -124.322187 
L 101.360501 -126.838157 
L 103.527487 -131.634585 
L 104.661503 -134.021026 
L 106.979525 -138.659203 
L 108.296856 -141.278908 
L 110.656197 -145.962892 
L 112.109356 -148.854908 
L 114.89424 -154.410832 
L 116.437047 -157.495808 
L 119.192273 -162.997199 
L 120.930466 -166.476784 
L 124.023593 -172.591127 
L 125.842083 -176.120771 
L 128.935209 -182.138968 
L 130.817687 -185.780786 
L 133.910814 -191.76892 
L 135.860362 -195.515953 
L 138.953488 -201.446029 
L 140.980882 -205.292163 
L 144.074009 -211.109269 
L 146.206609 -215.050268 
L 149.299735 -220.648821 
L 151.587792 -224.658649 
L 154.680918 -229.843997 
L 157.164308 -233.753014 
L 160.257435 -238.205195 
L 163.350561 -242.095422 
L 166.443687 -245.315316 
L 169.536814 -247.786926 
L 172.62994 -249.472546 
L 175.723067 -250.378417 
L 178.816193 -250.547723 
L 181.909319 -250.046747 
L 184.684392 -249.068172 
L 187.099555 -247.879584 
L 189.640265 -246.309088 
L 192.180975 -244.43414 
L 194.721685 -242.250978 
L 197.262395 -239.724117 
L 199.803106 -236.841887 
L 202.584449 -233.197003 
L 205.677576 -228.310894 
L 208.770702 -222.122391 
L 210.02275 -219.070825 
L 210.123391 -218.811507 
L 210.234264 -218.525809 
L 210.235713 -218.522073 
L 210.250205 -218.484719 
L 210.262492 -218.453051 
L 210.286015 -218.392422 
L 210.303888 -218.346355 
L 210.482616 -217.885686 
L 212.112842 -213.674141 
L 212.867954 -211.724337 
L 215.961081 -203.694716 
L 217.059312 -200.853067 
L 220.152439 -192.797008 
L 221.613928 -188.997842 
L 224.707054 -180.949711 
L 226.51737 -176.233876 
L 229.610496 -168.188096 
L 231.728719 -162.664564 
L 234.821845 -154.61707 
L 237.193749 -148.427514 
L 240.286876 -140.356372 
L 242.857353 -133.649442 
L 245.95048 -125.579408 
L 249.043606 -117.51016 
L 252.136733 -109.441857 
L 255.229859 -101.374688 
L 258.322985 -93.308879 
L 261.416112 -85.244698 
L 264.509238 -77.182466 
L 267.602365 -69.122563 
L 270.695491 -61.065443 
L 273.788617 -53.011645 
L 276.881744 -44.961811 
L 279.97487 -39.6 
L 283.067996 -39.6 
L 286.161123 -39.6 
L 289.254249 -39.6 
L 292.347376 -39.6 
L 295.440502 -39.6 
L 298.533628 -39.6 
L 301.626755 -39.6 
L 304.719881 -39.6 
L 307.813008 -39.6 
L 310.906134 -39.6 
L 313.99926 -39.6 
L 317.092387 -39.6 
L 320.185513 -39.6 
L 323.278639 -39.6 
L 326.371766 -39.6 
L 329.464892 -39.6 
L 332.558019 -39.6 
L 335.651145 -39.6 
L 338.744271 -39.6 
L 340.543237 -39.6 
L 340.543237 -39.6 
L 340.543237 -39.6 
L 338.744271 -39.6 
L 335.651145 -39.6 
L 332.558019 -39.6 
L 329.464892 -39.6 
L 326.371766 -39.6 
L 323.278639 -39.6 
L 320.185513 -39.6 
L 317.092387 -39.6 
L 313.99926 -39.6 
L 310.906134 -39.6 
L 307.813008 -39.6 
L 304.719881 -39.6 
L 301.626755 -39.6 
L 298.533628 -39.6 
L 295.440502 -39.6 
L 292.347376 -39.6 
L 289.254249 -39.6 
L 286.161123 -39.6 
L 283.067996 -39.611464 
L 279.97487 -41.62678 
L 276.881744 -48.729265 
L 273.788617 -56.755884 
L 270.695491 -64.784365 
L 267.602365 -72.814464 
L 264.509238 -80.845957 
L 261.416112 -88.878636 
L 258.322985 -96.912323 
L 255.229859 -104.946863 
L 252.136733 -112.982121 
L 249.043606 -121.01798 
L 245.95048 -129.054342 
L 242.857353 -137.091123 
L 240.286876 -143.770171 
L 237.193749 -151.807548 
L 234.821845 -157.971036 
L 231.728719 -166.008818 
L 229.610496 -171.51333 
L 226.51737 -179.551381 
L 224.707054 -184.254175 
L 221.613928 -192.273367 
L 220.152439 -196.062381 
L 217.059312 -204.060725 
L 215.961081 -206.898122 
L 212.867954 -214.868588 
L 212.112842 -216.811201 
L 210.482616 -220.956888 
L 210.303888 -221.391108 
L 210.286015 -221.43453 
L 210.262492 -221.491678 
L 210.250205 -221.521528 
L 210.235713 -221.556737 
L 210.234264 -221.560258 
L 210.123391 -221.826213 
L 210.02275 -222.027965 
L 208.770702 -224.537908 
L 205.677576 -230.12814 
L 202.584449 -234.582967 
L 199.803106 -237.957756 
L 197.262395 -240.884691 
L 194.721685 -243.633583 
L 192.180975 -246.049331 
L 189.640265 -248.162092 
L 187.099555 -249.952977 
L 184.684392 -251.33909 
L 181.909319 -252.467764 
L 178.816193 -253.146476 
L 175.723067 -253.138716 
L 172.62994 -252.33284 
L 169.536814 -250.682871 
L 166.443687 -248.352763 
L 163.350561 -245.226539 
L 160.257435 -241.520239 
L 157.164308 -237.141341 
L 154.680918 -233.247104 
L 151.587792 -228.008156 
L 149.299735 -223.932544 
L 146.206609 -218.202729 
L 144.074009 -214.15798 
L 140.980882 -208.1706 
L 138.953488 -204.207584 
L 135.860362 -198.089101 
L 133.910814 -194.221498 
L 130.817687 -188.037024 
L 128.935209 -184.275043 
L 125.842083 -178.057282 
L 124.023593 -174.409842 
L 120.930466 -168.174994 
L 119.192273 -164.68304 
L 116.437047 -159.131232 
L 114.89424 -156.032142 
L 112.109356 -150.42511 
L 110.656197 -147.515291 
L 108.296856 -142.787982 
L 106.979525 -140.149639 
L 104.661503 -135.434885 
L 103.527487 -133.040445 
L 101.360501 -128.068764 
L 100.427476 -125.604773 
L 98.480343 -119.242646 
L 97.754562 -116.144275 
L 96.041673 -105.703266 
L 95.517762 -100.924646 
L 94.436755 -85.744886 
L 94.11973 -78.472402 
L 93.55784 -56.458286 
L 93.40142 -46.363216 
L 93.156251 -39.616299 
L 93.099382 -39.6 
L 93.093695 -39.6 
L 93.093126 -39.6 
z
" style="stroke: #8b4513; stroke-opacity: 0.2"/>
    </defs>
    <g clip-path="url(#p4f2e8038d3)">
     <use xlink:href="#m951c05b13e" x="0" y="360" style="fill: #8b4513; fill-opacity: 0.2; stroke: #8b4513; stroke-opacity: 0.2"/>
    </g>
   </g>
   <g id="line2d_19">
    <path d="M 93.093126 320.4 
L 93.09373 320.4 
L 93.09977 320.4 
L 93.160165 320.4 
L 93.407901 314.951292 
L 93.568017 303.345974 
L 94.13368 282.030263 
L 94.455604 274.978434 
L 95.544221 260.616022 
L 96.082794 256.071922 
L 97.81805 246.446514 
L 98.568711 243.556353 
L 100.584632 237.611435 
L 101.550236 235.305434 
L 103.800486 230.537 
L 104.977745 228.229598 
L 107.396318 223.625271 
L 108.768119 221.060076 
L 111.237273 216.45186 
L 112.752777 213.635352 
L 115.681488 208.174494 
L 117.312552 205.146349 
L 120.405678 199.38392 
L 122.177044 196.100879 
L 125.270171 190.354311 
L 127.165254 186.853484 
L 130.25838 181.134399 
L 132.274724 177.431789 
L 135.36785 171.762076 
L 137.504123 167.883712 
L 140.59725 162.306824 
L 142.871019 158.270253 
L 145.964145 152.870492 
L 148.420448 148.700023 
L 151.513574 143.633395 
L 154.6067 138.848421 
L 157.699827 134.427019 
L 160.792953 130.453593 
L 163.886079 127.001959 
L 166.979206 124.120362 
L 170.072332 121.82025 
L 173.165459 120.073904 
L 176.258585 118.822321 
L 179.351711 117.989915 
L 182.061603 117.544897 
L 184.771494 117.317602 
L 187.171014 117.269379 
L 189.608708 117.347954 
L 192.046402 117.54289 
L 194.166525 117.801739 
L 196.405793 118.163309 
L 199.498919 118.813206 
L 202.063972 119.49038 
L 205.157098 120.485193 
L 208.250225 121.693168 
L 211.343351 123.139601 
L 214.436477 124.858548 
L 217.529604 126.897856 
L 220.62273 129.328743 
L 223.715857 132.264634 
L 226.808983 135.90198 
L 229.902109 140.623521 
L 232.995236 147.333095 
L 236.088362 159.187209 
L 236.212087 159.913478 
L 236.261577 160.213676 
L 236.334146 160.664325 
L 236.387601 161.004306 
L 236.409224 161.143681 
L 236.410588 161.152502 
L 236.424224 161.240895 
L 236.435889 161.316726 
L 236.456031 161.447881 
L 236.472641 161.556096 
L 236.528881 161.922517 
L 236.700682 163.042101 
L 237.110044 165.712841 
L 237.949991 171.217823 
L 238.789939 176.722801 
L 240.078559 185.240148 
L 241.36718 193.757474 
L 242.932251 204.792002 
L 244.50934 216.286719 
L 246.339103 228.877252 
L 247.726902 238.071826 
L 249.853554 252.523274 
L 251.347836 262.449788 
L 253.538813 277.376312 
L 255.15787 288.163692 
L 257.551337 304.608304 
L 259.466764 317.459087 
L 262.544574 320.4 
L 264.995931 320.4 
L 268.089058 320.4 
L 271.182184 320.4 
L 274.27531 320.4 
L 277.368437 320.4 
L 280.461563 320.4 
L 283.554689 320.4 
L 286.647816 320.4 
L 289.740942 320.4 
L 292.834069 320.4 
L 295.927195 320.4 
L 299.020321 320.4 
L 302.113448 320.4 
L 305.206574 320.4 
L 308.299701 320.4 
L 311.392827 320.4 
L 314.485953 320.4 
L 317.57908 320.4 
L 320.672206 320.4 
L 323.765332 320.4 
L 326.858459 320.4 
L 329.951585 320.4 
L 333.044712 320.4 
L 336.137838 320.4 
L 339.230964 320.4 
L 340.543237 320.4 
" clip-path="url(#p4f2e8038d3)" style="fill: none; stroke: #ffff00; stroke-width: 1.5; stroke-linecap: square"/>
   </g>
   <g id="line2d_20">
    <path d="M 93.093126 320.4 
L 93.093695 320.4 
L 93.099382 320.4 
L 93.156251 320.4 
L 93.40142 315.249648 
L 93.55784 303.543628 
L 94.11973 281.534532 
L 94.436755 274.26114 
L 95.517762 259.097414 
L 96.041673 254.320229 
L 97.754562 243.898939 
L 98.480343 240.805328 
L 100.427476 234.471124 
L 101.360501 232.044095 
L 103.527487 227.132954 
L 104.661503 224.78975 
L 106.979525 220.161185 
L 108.296856 217.577407 
L 110.656197 212.94338 
L 112.109356 210.092007 
L 114.89424 204.595028 
L 116.437047 201.558177 
L 119.192273 196.113984 
L 120.930466 192.691603 
L 124.023593 186.578225 
L 125.842083 183.003734 
L 128.935209 176.906904 
L 130.817687 173.219492 
L 133.910814 167.154309 
L 135.860362 163.361853 
L 138.953488 157.358405 
L 140.980882 153.468922 
L 144.074009 147.586555 
L 146.206609 143.60838 
L 149.299735 137.961511 
L 151.587792 133.929623 
L 154.680918 128.728597 
L 157.164308 124.829743 
L 160.257435 120.415148 
L 163.350561 116.601408 
L 166.443687 113.490957 
L 169.536814 111.15362 
L 172.62994 109.614591 
L 175.723067 108.853813 
L 178.816193 108.816221 
L 181.909319 109.427588 
L 184.684392 110.465738 
L 187.099555 111.704922 
L 189.640265 113.3125 
L 192.180975 115.211003 
L 194.721685 117.391541 
L 197.262395 119.861404 
L 199.803106 122.649616 
L 202.584449 126.140149 
L 205.677576 130.749559 
L 208.770702 136.566454 
L 210.02275 139.473827 
L 210.123391 139.726745 
L 210.234264 140.008894 
L 210.235713 140.012605 
L 210.250205 140.049734 
L 210.262492 140.08124 
L 210.286015 140.14159 
L 210.303888 140.187451 
L 210.482616 140.646086 
L 212.112842 144.843592 
L 212.867954 146.7826 
L 215.961081 154.821774 
L 217.059312 157.644142 
L 220.152439 165.68324 
L 221.613928 169.443637 
L 224.707054 177.482608 
L 226.51737 182.147431 
L 229.610496 190.186206 
L 231.728719 195.653067 
L 234.821845 203.691547 
L 237.193749 209.822241 
L 240.286876 217.860287 
L 242.857353 224.512663 
L 245.95048 232.550081 
L 249.043606 240.587041 
L 252.136733 248.623466 
L 255.229859 256.65925 
L 258.322985 264.694267 
L 261.416112 272.72837 
L 264.509238 280.761382 
L 267.602365 288.793091 
L 270.695491 296.82325 
L 273.788617 304.85156 
L 276.881744 312.877669 
L 279.97487 320.4 
L 283.067996 320.4 
L 286.161123 320.4 
L 289.254249 320.4 
L 292.347376 320.4 
L 295.440502 320.4 
L 298.533628 320.4 
L 301.626755 320.4 
L 304.719881 320.4 
L 307.813008 320.4 
L 310.906134 320.4 
L 313.99926 320.4 
L 317.092387 320.4 
L 320.185513 320.4 
L 323.278639 320.4 
L 326.371766 320.4 
L 329.464892 320.4 
L 332.558019 320.4 
L 335.651145 320.4 
L 338.744271 320.4 
L 340.543237 320.4 
" clip-path="url(#p4f2e8038d3)" style="fill: none; stroke: #8b4513; stroke-width: 1.5; stroke-linecap: square"/>
   </g>
  </g>
  <g id="axes_2">
   <g id="patch_7">
    <path d="M 394.363636 320.4 
L 648 320.4 
L 648 43.2 
L 394.363636 43.2 
z
" style="fill: #ffffff"/>
   </g>
   <g id="matplotlib.axis_3">
    <g id="xtick_10">
     <g id="line2d_21">
      <g>
       <use xlink:href="#m7a26b2daab" x="397.456763" y="320.4" style="stroke: #000000; stroke-width: 0.8"/>
      </g>
     </g>
     <g id="text_21">
      <!-- 0 -->
      <g transform="translate(392.875763 338.34175) scale(0.144 -0.144)">
       <use xlink:href="#DejaVuSans-30"/>
      </g>
     </g>
    </g>
    <g id="xtick_11">
     <g id="line2d_22">
      <g>
       <use xlink:href="#m7a26b2daab" x="428.388027" y="320.4" style="stroke: #000000; stroke-width: 0.8"/>
      </g>
     </g>
     <g id="text_22">
      <!-- 1 -->
      <g transform="translate(423.807027 338.34175) scale(0.144 -0.144)">
       <use xlink:href="#DejaVuSans-31"/>
      </g>
     </g>
    </g>
    <g id="xtick_12">
     <g id="line2d_23">
      <g>
       <use xlink:href="#m7a26b2daab" x="459.31929" y="320.4" style="stroke: #000000; stroke-width: 0.8"/>
      </g>
     </g>
     <g id="text_23">
      <!-- 2 -->
      <g transform="translate(454.73829 338.34175) scale(0.144 -0.144)">
       <use xlink:href="#DejaVuSans-32"/>
      </g>
     </g>
    </g>
    <g id="xtick_13">
     <g id="line2d_24">
      <g>
       <use xlink:href="#m7a26b2daab" x="490.250554" y="320.4" style="stroke: #000000; stroke-width: 0.8"/>
      </g>
     </g>
     <g id="text_24">
      <!-- 3 -->
      <g transform="translate(485.669554 338.34175) scale(0.144 -0.144)">
       <use xlink:href="#DejaVuSans-33"/>
      </g>
     </g>
    </g>
    <g id="xtick_14">
     <g id="line2d_25">
      <g>
       <use xlink:href="#m7a26b2daab" x="521.181818" y="320.4" style="stroke: #000000; stroke-width: 0.8"/>
      </g>
     </g>
     <g id="text_25">
      <!-- 4 -->
      <g transform="translate(516.600818 338.34175) scale(0.144 -0.144)">
       <use xlink:href="#DejaVuSans-34"/>
      </g>
     </g>
    </g>
    <g id="xtick_15">
     <g id="line2d_26">
      <g>
       <use xlink:href="#m7a26b2daab" x="552.113082" y="320.4" style="stroke: #000000; stroke-width: 0.8"/>
      </g>
     </g>
     <g id="text_26">
      <!-- 5 -->
      <g transform="translate(547.532082 338.34175) scale(0.144 -0.144)">
       <use xlink:href="#DejaVuSans-35"/>
      </g>
     </g>
    </g>
    <g id="xtick_16">
     <g id="line2d_27">
      <g>
       <use xlink:href="#m7a26b2daab" x="583.044346" y="320.4" style="stroke: #000000; stroke-width: 0.8"/>
      </g>
     </g>
     <g id="text_27">
      <!-- 6 -->
      <g transform="translate(578.463346 338.34175) scale(0.144 -0.144)">
       <use xlink:href="#DejaVuSans-36"/>
      </g>
     </g>
    </g>
    <g id="xtick_17">
     <g id="line2d_28">
      <g>
       <use xlink:href="#m7a26b2daab" x="613.97561" y="320.4" style="stroke: #000000; stroke-width: 0.8"/>
      </g>
     </g>
     <g id="text_28">
      <!-- 7 -->
      <g transform="translate(609.39461 338.34175) scale(0.144 -0.144)">
       <use xlink:href="#DejaVuSans-37"/>
      </g>
     </g>
    </g>
    <g id="xtick_18">
     <g id="line2d_29">
      <g>
       <use xlink:href="#m7a26b2daab" x="644.906874" y="320.4" style="stroke: #000000; stroke-width: 0.8"/>
      </g>
     </g>
     <g id="text_29">
      <!-- 8 -->
      <g transform="translate(640.325874 338.34175) scale(0.144 -0.144)">
       <use xlink:href="#DejaVuSans-38"/>
      </g>
     </g>
    </g>
    <g id="text_30">
     <!-- Time (d) -->
     <g transform="translate(481.056818 359.9255) scale(0.192 -0.192)">
      <use xlink:href="#DejaVuSans-54"/>
      <use xlink:href="#DejaVuSans-69" x="57.958984"/>
      <use xlink:href="#DejaVuSans-6d" x="85.742188"/>
      <use xlink:href="#DejaVuSans-65" x="183.154297"/>
      <use xlink:href="#DejaVuSans-20" x="244.677734"/>
      <use xlink:href="#DejaVuSans-28" x="276.464844"/>
      <use xlink:href="#DejaVuSans-64" x="315.478516"/>
      <use xlink:href="#DejaVuSans-29" x="378.955078"/>
     </g>
    </g>
   </g>
   <g id="matplotlib.axis_4">
    <g id="ytick_10">
     <g id="line2d_30">
      <g>
       <use xlink:href="#m6469e96081" x="394.363636" y="320.4" style="stroke: #000000; stroke-width: 0.8"/>
      </g>
     </g>
     <g id="text_31">
      <!-- 4.5 -->
      <g transform="translate(364.463136 325.870875) scale(0.144 -0.144)">
       <defs>
        <path id="DejaVuSans-2e" d="M 684 794 
L 1344 794 
L 1344 0 
L 684 0 
L 684 794 
z
" transform="scale(0.015625)"/>
       </defs>
       <use xlink:href="#DejaVuSans-34"/>
       <use xlink:href="#DejaVuSans-2e" x="63.623047"/>
       <use xlink:href="#DejaVuSans-35" x="95.410156"/>
      </g>
     </g>
    </g>
    <g id="ytick_11">
     <g id="line2d_31">
      <g>
       <use xlink:href="#m6469e96081" x="394.363636" y="277.753846" style="stroke: #000000; stroke-width: 0.8"/>
      </g>
     </g>
     <g id="text_32">
      <!-- 5.0 -->
      <g transform="translate(364.463136 283.224721) scale(0.144 -0.144)">
       <use xlink:href="#DejaVuSans-35"/>
       <use xlink:href="#DejaVuSans-2e" x="63.623047"/>
       <use xlink:href="#DejaVuSans-30" x="95.410156"/>
      </g>
     </g>
    </g>
    <g id="ytick_12">
     <g id="line2d_32">
      <g>
       <use xlink:href="#m6469e96081" x="394.363636" y="235.107692" style="stroke: #000000; stroke-width: 0.8"/>
      </g>
     </g>
     <g id="text_33">
      <!-- 5.5 -->
      <g transform="translate(364.463136 240.578567) scale(0.144 -0.144)">
       <use xlink:href="#DejaVuSans-35"/>
       <use xlink:href="#DejaVuSans-2e" x="63.623047"/>
       <use xlink:href="#DejaVuSans-35" x="95.410156"/>
      </g>
     </g>
    </g>
    <g id="ytick_13">
     <g id="line2d_33">
      <g>
       <use xlink:href="#m6469e96081" x="394.363636" y="192.461538" style="stroke: #000000; stroke-width: 0.8"/>
      </g>
     </g>
     <g id="text_34">
      <!-- 6.0 -->
      <g transform="translate(364.463136 197.932413) scale(0.144 -0.144)">
       <use xlink:href="#DejaVuSans-36"/>
       <use xlink:href="#DejaVuSans-2e" x="63.623047"/>
       <use xlink:href="#DejaVuSans-30" x="95.410156"/>
      </g>
     </g>
    </g>
    <g id="ytick_14">
     <g id="line2d_34">
      <g>
       <use xlink:href="#m6469e96081" x="394.363636" y="149.815385" style="stroke: #000000; stroke-width: 0.8"/>
      </g>
     </g>
     <g id="text_35">
      <!-- 6.5 -->
      <g transform="translate(364.463136 155.28626) scale(0.144 -0.144)">
       <use xlink:href="#DejaVuSans-36"/>
       <use xlink:href="#DejaVuSans-2e" x="63.623047"/>
       <use xlink:href="#DejaVuSans-35" x="95.410156"/>
      </g>
     </g>
    </g>
    <g id="ytick_15">
     <g id="line2d_35">
      <g>
       <use xlink:href="#m6469e96081" x="394.363636" y="107.169231" style="stroke: #000000; stroke-width: 0.8"/>
      </g>
     </g>
     <g id="text_36">
      <!-- 7.0 -->
      <g transform="translate(364.463136 112.640106) scale(0.144 -0.144)">
       <use xlink:href="#DejaVuSans-37"/>
       <use xlink:href="#DejaVuSans-2e" x="63.623047"/>
       <use xlink:href="#DejaVuSans-30" x="95.410156"/>
      </g>
     </g>
    </g>
    <g id="ytick_16">
     <g id="line2d_36">
      <g>
       <use xlink:href="#m6469e96081" x="394.363636" y="64.523077" style="stroke: #000000; stroke-width: 0.8"/>
      </g>
     </g>
     <g id="text_37">
      <!-- 7.5 -->
      <g transform="translate(364.463136 69.993952) scale(0.144 -0.144)">
       <use xlink:href="#DejaVuSans-37"/>
       <use xlink:href="#DejaVuSans-2e" x="63.623047"/>
       <use xlink:href="#DejaVuSans-35" x="95.410156"/>
      </g>
     </g>
    </g>
    <g id="text_38">
     <!-- Log10(CD8TE) -->
     <g transform="translate(356.470136 250.7895) rotate(-90) scale(0.192 -0.192)">
      <defs>
       <path id="DejaVuSans-43" d="M 4122 4306 
L 4122 3641 
Q 3803 3938 3442 4084 
Q 3081 4231 2675 4231 
Q 1875 4231 1450 3742 
Q 1025 3253 1025 2328 
Q 1025 1406 1450 917 
Q 1875 428 2675 428 
Q 3081 428 3442 575 
Q 3803 722 4122 1019 
L 4122 359 
Q 3791 134 3420 21 
Q 3050 -91 2638 -91 
Q 1578 -91 968 557 
Q 359 1206 359 2328 
Q 359 3453 968 4101 
Q 1578 4750 2638 4750 
Q 3056 4750 3426 4639 
Q 3797 4528 4122 4306 
z
" transform="scale(0.015625)"/>
       <path id="DejaVuSans-44" d="M 1259 4147 
L 1259 519 
L 2022 519 
Q 2988 519 3436 956 
Q 3884 1394 3884 2338 
Q 3884 3275 3436 3711 
Q 2988 4147 2022 4147 
L 1259 4147 
z
M 628 4666 
L 1925 4666 
Q 3281 4666 3915 4102 
Q 4550 3538 4550 2338 
Q 4550 1131 3912 565 
Q 3275 0 1925 0 
L 628 0 
L 628 4666 
z
" transform="scale(0.015625)"/>
       <path id="DejaVuSans-45" d="M 628 4666 
L 3578 4666 
L 3578 4134 
L 1259 4134 
L 1259 2753 
L 3481 2753 
L 3481 2222 
L 1259 2222 
L 1259 531 
L 3634 531 
L 3634 0 
L 628 0 
L 628 4666 
z
" transform="scale(0.015625)"/>
      </defs>
      <use xlink:href="#DejaVuSans-4c"/>
      <use xlink:href="#DejaVuSans-6f" x="53.962891"/>
      <use xlink:href="#DejaVuSans-67" x="115.144531"/>
      <use xlink:href="#DejaVuSans-31" x="178.621094"/>
      <use xlink:href="#DejaVuSans-30" x="242.244141"/>
      <use xlink:href="#DejaVuSans-28" x="305.867188"/>
      <use xlink:href="#DejaVuSans-43" x="344.880859"/>
      <use xlink:href="#DejaVuSans-44" x="414.705078"/>
      <use xlink:href="#DejaVuSans-38" x="491.707031"/>
      <use xlink:href="#DejaVuSans-54" x="555.330078"/>
      <use xlink:href="#DejaVuSans-45" x="616.414062"/>
      <use xlink:href="#DejaVuSans-29" x="679.597656"/>
     </g>
    </g>
   </g>
   <g id="patch_8">
    <path d="M 394.363636 320.4 
L 394.363636 43.2 
" style="fill: none; stroke: #000000; stroke-width: 0.8; stroke-linejoin: miter; stroke-linecap: square"/>
   </g>
   <g id="patch_9">
    <path d="M 648 320.4 
L 648 43.2 
" style="fill: none; stroke: #000000; stroke-width: 0.8; stroke-linejoin: miter; stroke-linecap: square"/>
   </g>
   <g id="patch_10">
    <path d="M 394.363636 320.4 
L 648 320.4 
" style="fill: none; stroke: #000000; stroke-width: 0.8; stroke-linejoin: miter; stroke-linecap: square"/>
   </g>
   <g id="patch_11">
    <path d="M 394.363636 43.2 
L 648 43.2 
" style="fill: none; stroke: #000000; stroke-width: 0.8; stroke-linejoin: miter; stroke-linecap: square"/>
   </g>
   <g id="PolyCollection_3">
    <defs>
     <path id="m02e513ee47" d="M 397.456763 -121.410241 
L 397.456763 -121.410241 
L 397.457367 -121.410241 
L 397.463406 -121.410241 
L 397.523802 -121.410241 
L 397.771537 -121.410241 
L 397.931653 -121.410241 
L 398.497316 -121.410241 
L 398.819241 -121.410241 
L 399.907857 -121.410241 
L 400.446431 -121.410241 
L 402.181686 -121.410241 
L 402.932347 -121.410241 
L 404.948268 -121.410241 
L 405.913872 -121.410241 
L 408.164122 -121.410243 
L 409.341381 -121.410245 
L 411.759955 -121.410264 
L 413.131755 -121.41029 
L 415.600909 -121.410434 
L 417.116413 -121.4106 
L 420.045124 -121.411408 
L 421.676188 -121.412206 
L 424.769315 -121.415244 
L 426.540681 -121.417913 
L 429.633807 -121.425882 
L 431.52889 -121.432736 
L 434.622016 -121.44991 
L 436.63836 -121.464886 
L 439.731486 -121.498317 
L 441.86776 -121.528731 
L 444.960886 -121.591808 
L 447.234655 -121.653335 
L 450.327782 -121.773434 
L 452.784084 -121.902509 
L 455.87721 -122.136407 
L 458.970337 -122.471956 
L 462.063463 -122.95579 
L 465.156589 -123.647878 
L 468.249716 -124.626135 
L 471.342842 -125.986127 
L 474.435969 -127.835515 
L 477.529095 -130.242724 
L 480.622221 -133.296437 
L 483.715348 -137.053807 
L 486.425239 -140.894024 
L 489.13513 -145.196164 
L 491.53465 -149.331751 
L 493.972344 -153.734941 
L 496.410038 -158.228065 
L 498.530161 -162.114127 
L 500.769429 -166.145943 
L 503.862556 -171.19844 
L 506.427608 -175.023037 
L 509.520735 -179.105938 
L 512.613861 -182.499751 
L 515.706987 -185.223326 
L 518.800114 -187.270741 
L 521.89324 -188.673289 
L 524.986367 -189.425073 
L 528.079493 -189.609027 
L 531.172619 -189.282865 
L 534.265746 -188.290343 
L 537.358872 -186.584205 
L 540.451998 -184.604093 
L 540.575723 -184.519042 
L 540.625214 -184.485021 
L 540.697782 -184.435136 
L 540.751237 -184.398389 
L 540.772861 -184.383525 
L 540.774224 -184.382587 
L 540.78786 -184.373214 
L 540.799525 -184.365195 
L 540.819668 -184.351348 
L 540.836278 -184.33993 
L 540.892517 -184.30127 
L 541.064319 -184.183169 
L 541.473681 -183.897848 
L 542.313628 -183.293967 
L 543.153575 -182.675978 
L 544.442196 -181.69939 
L 545.730816 -180.698229 
L 547.295887 -179.448867 
L 548.872977 -178.160593 
L 550.70274 -176.634583 
L 552.090538 -175.458829 
L 554.21719 -173.636832 
L 555.711472 -172.345164 
L 557.90245 -170.443894 
L 559.521506 -169.037762 
L 561.914973 -166.965212 
L 563.830401 -165.319489 
L 566.90821 -162.707433 
L 569.359567 -160.667835 
L 572.452694 -158.152907 
L 575.54582 -155.715292 
L 578.638947 -153.364643 
L 581.732073 -151.107983 
L 584.825199 -148.950561 
L 587.918326 -146.896072 
L 591.011452 -144.946855 
L 594.104579 -143.104048 
L 597.197705 -141.367739 
L 600.290831 -139.737083 
L 603.383958 -138.210427 
L 606.477084 -136.785413 
L 609.570211 -135.459084 
L 612.663337 -134.227987 
L 615.756463 -133.088266 
L 618.84959 -132.035752 
L 621.942716 -131.066053 
L 625.035842 -130.174629 
L 628.128969 -129.356866 
L 631.222095 -128.608138 
L 634.315222 -127.923865 
L 637.408348 -127.299555 
L 640.501474 -126.730849 
L 643.594601 -126.213546 
L 644.906874 -126.003486 
L 644.906874 -139.157955 
L 644.906874 -139.157955 
L 643.594601 -139.591157 
L 640.501474 -140.639016 
L 637.408348 -141.730367 
L 634.315222 -142.951031 
L 631.222095 -144.259753 
L 628.128969 -145.624981 
L 625.035842 -147.046961 
L 621.942716 -148.525756 
L 618.84959 -150.06124 
L 615.756463 -151.653099 
L 612.663337 -153.300823 
L 609.570211 -155.003702 
L 606.477084 -156.760818 
L 603.383958 -158.571039 
L 600.290831 -160.433001 
L 597.197705 -162.345083 
L 594.104579 -164.305371 
L 591.011452 -166.311613 
L 587.918326 -168.361139 
L 584.825199 -170.450765 
L 581.732073 -172.576659 
L 578.638947 -174.734163 
L 575.54582 -176.917566 
L 572.452694 -179.119821 
L 569.359567 -181.332204 
L 566.90821 -183.085597 
L 563.830401 -185.277659 
L 561.914973 -186.630603 
L 559.521506 -188.29965 
L 557.90245 -189.412971 
L 555.711472 -190.886453 
L 554.21719 -191.871097 
L 552.090538 -193.225275 
L 550.70274 -194.082756 
L 548.872977 -195.167997 
L 547.295887 -196.055178 
L 545.730816 -196.891141 
L 544.442196 -197.537645 
L 543.153575 -198.149402 
L 542.313628 -198.526007 
L 541.473681 -198.883703 
L 541.064319 -199.050703 
L 540.892517 -199.118535 
L 540.836278 -199.140741 
L 540.819668 -199.147299 
L 540.799525 -199.155252 
L 540.78786 -199.159858 
L 540.774224 -199.165241 
L 540.772861 -199.16578 
L 540.751237 -199.174317 
L 540.697782 -199.195423 
L 540.625214 -199.224076 
L 540.575723 -199.243616 
L 540.451998 -199.292467 
L 537.358872 -200.280398 
L 534.265746 -200.950975 
L 531.172619 -201.379223 
L 528.079493 -201.483627 
L 524.986367 -201.083078 
L 521.89324 -200.118363 
L 518.800114 -199.330381 
L 515.706987 -198.046329 
L 512.613861 -196.089017 
L 509.520735 -193.419493 
L 506.427608 -189.997041 
L 503.862556 -186.562637 
L 500.769429 -181.771116 
L 498.530161 -177.853917 
L 496.410038 -173.877213 
L 493.972344 -169.026017 
L 491.53465 -164.042879 
L 489.13513 -159.039011 
L 486.425239 -153.426995 
L 483.715348 -148.027301 
L 480.622221 -142.367414 
L 477.529095 -137.413344 
L 474.435969 -133.289435 
L 471.342842 -130.010862 
L 468.249716 -127.508785 
L 465.156589 -125.663736 
L 462.063463 -124.33985 
L 458.970337 -123.409386 
L 455.87721 -122.765134 
L 452.784084 -122.323561 
L 450.327782 -122.072507 
L 447.234655 -121.854216 
L 444.960886 -121.736616 
L 441.86776 -121.625302 
L 439.731486 -121.568278 
L 436.63836 -121.51048 
L 434.622016 -121.482486 
L 431.52889 -121.452806 
L 429.633807 -121.439616 
L 426.540681 -121.425516 
L 424.769315 -121.420034 
L 421.676188 -121.414436 
L 420.045124 -121.412661 
L 417.116413 -121.411064 
L 415.600909 -121.410647 
L 413.131755 -121.410359 
L 411.759955 -121.410291 
L 409.341381 -121.410251 
L 408.164122 -121.410244 
L 405.913872 -121.410241 
L 404.948268 -121.410241 
L 402.932347 -121.410241 
L 402.181686 -121.410241 
L 400.446431 -121.410241 
L 399.907857 -121.410241 
L 398.819241 -121.410241 
L 398.497316 -121.410241 
L 397.931653 -121.410241 
L 397.771537 -121.410241 
L 397.523802 -121.410241 
L 397.463406 -121.410241 
L 397.457367 -121.410241 
L 397.456763 -121.410241 
z
" style="stroke: #ffff00; stroke-opacity: 0.2"/>
    </defs>
    <g clip-path="url(#p2549c6ec60)">
     <use xlink:href="#m02e513ee47" x="0" y="360" style="fill: #ffff00; fill-opacity: 0.2; stroke: #ffff00; stroke-opacity: 0.2"/>
    </g>
   </g>
   <g id="PolyCollection_4">
    <defs>
     <path id="me127c6fff6" d="M 397.456763 -167.904008 
L 397.456763 -167.904008 
L 397.457331 -167.904008 
L 397.463018 -167.904008 
L 397.519887 -167.904008 
L 397.765057 -167.904008 
L 397.921476 -167.904008 
L 398.483366 -167.904008 
L 398.800391 -167.904008 
L 399.881399 -167.904008 
L 400.405309 -167.904008 
L 402.118198 -167.904008 
L 402.843979 -167.904008 
L 404.791113 -167.904008 
L 405.724137 -167.904008 
L 407.891123 -167.904008 
L 409.025139 -167.904009 
L 411.343162 -167.904017 
L 412.660492 -167.904025 
L 415.019833 -167.904079 
L 416.472992 -167.90413 
L 419.257876 -167.904428 
L 420.800683 -167.904657 
L 423.555909 -167.90563 
L 425.294103 -167.906475 
L 428.387229 -167.909314 
L 430.205719 -167.911574 
L 433.298845 -167.918118 
L 435.181324 -167.923246 
L 438.27445 -167.936988 
L 440.223998 -167.947849 
L 443.317125 -167.975809 
L 445.344519 -167.998794 
L 448.437645 -168.05525 
L 450.570245 -168.105065 
L 453.663372 -168.219727 
L 455.951428 -168.331564 
L 459.044555 -168.567363 
L 461.527945 -168.824757 
L 464.621071 -169.314157 
L 467.714197 -170.014593 
L 470.807324 -171.067842 
L 473.90045 -172.565006 
L 476.993577 -174.654423 
L 480.086703 -177.469323 
L 483.179829 -181.10305 
L 486.272956 -185.571114 
L 489.048028 -190.221864 
L 491.463191 -194.638729 
L 494.003901 -199.572624 
L 496.544611 -204.635439 
L 499.085322 -209.681172 
L 501.626032 -214.577843 
L 504.166742 -219.186114 
L 506.948086 -223.822465 
L 510.041212 -228.43689 
L 513.134339 -232.415834 
L 514.386386 -233.895713 
L 514.487027 -234.006013 
L 514.5979 -234.126748 
L 514.599349 -234.128322 
L 514.613842 -234.144022 
L 514.626128 -234.15733 
L 514.649651 -234.182808 
L 514.667524 -234.202132 
L 514.846253 -234.39406 
L 516.476478 -236.026532 
L 517.231591 -236.745285 
L 520.324717 -239.226496 
L 521.422949 -240.030219 
L 524.516075 -241.748323 
L 525.977564 -242.46289 
L 529.07069 -243.526068 
L 530.881006 -243.996258 
L 533.974133 -244.506902 
L 536.092355 -244.670012 
L 539.185482 -244.727854 
L 541.557386 -244.601403 
L 544.650512 -244.308126 
L 547.22099 -243.956267 
L 550.314116 -243.416921 
L 553.407243 -242.750128 
L 556.500369 -242.027919 
L 559.593495 -241.265343 
L 562.686622 -240.473966 
L 565.779748 -239.662547 
L 568.872874 -238.837638 
L 571.966001 -238.004085 
L 575.059127 -237.165444 
L 578.152254 -236.324302 
L 581.24538 -235.482533 
L 584.338506 -234.641493 
L 587.431633 -233.80216 
L 590.524759 -232.965247 
L 593.617886 -232.131271 
L 596.711012 -231.300617 
L 599.804138 -230.473576 
L 602.897265 -229.640927 
L 605.990391 -228.793865 
L 609.083517 -227.932033 
L 612.176644 -227.074997 
L 615.26977 -226.222881 
L 618.362897 -225.375799 
L 621.456023 -224.533856 
L 624.549149 -223.697151 
L 627.642276 -222.865778 
L 630.735402 -222.039829 
L 633.828529 -221.219395 
L 636.921655 -220.404564 
L 640.014781 -219.595423 
L 643.107908 -218.791986 
L 644.906874 -218.326844 
L 644.906874 -221.554278 
L 644.906874 -221.554278 
L 643.107908 -221.969378 
L 640.014781 -222.685817 
L 636.921655 -223.406367 
L 633.828529 -224.130971 
L 630.735402 -224.85957 
L 627.642276 -225.592105 
L 624.549149 -226.328516 
L 621.456023 -227.068741 
L 618.362897 -227.812716 
L 615.26977 -228.560373 
L 612.176644 -229.311637 
L 609.083517 -230.066429 
L 605.990391 -230.824657 
L 602.897265 -231.586212 
L 599.804138 -232.350964 
L 596.711012 -233.150779 
L 593.617886 -233.979929 
L 590.524759 -234.81216 
L 587.431633 -235.647097 
L 584.338506 -236.484229 
L 581.24538 -237.322858 
L 578.152254 -238.162019 
L 575.059127 -239.000375 
L 571.966001 -239.836075 
L 568.872874 -240.666561 
L 565.779748 -241.488316 
L 562.686622 -242.296536 
L 559.593495 -243.084723 
L 556.500369 -243.844179 
L 553.407243 -244.563407 
L 550.314116 -245.227429 
L 547.22099 -245.817039 
L 544.650512 -246.234308 
L 541.557386 -246.621167 
L 539.185482 -246.799659 
L 536.092355 -246.893041 
L 533.974133 -246.791589 
L 530.881006 -246.466157 
L 529.07069 -246.08263 
L 525.977564 -245.217198 
L 524.516075 -244.61619 
L 521.422949 -243.103074 
L 520.324717 -242.420952 
L 517.231591 -240.225032 
L 516.476478 -239.614055 
L 514.846253 -238.163727 
L 514.667524 -237.996626 
L 514.649651 -237.979916 
L 514.626128 -237.957923 
L 514.613842 -237.946436 
L 514.599349 -237.932886 
L 514.5979 -237.931532 
L 514.487027 -237.824221 
L 514.386386 -237.726375 
L 513.134339 -236.431668 
L 510.041212 -232.761505 
L 506.948086 -228.501962 
L 504.166742 -224.134847 
L 501.626032 -219.744526 
L 499.085322 -215.018683 
L 496.544611 -210.031198 
L 494.003901 -204.893255 
L 491.463191 -199.740352 
L 489.048028 -194.966749 
L 486.272956 -189.811863 
L 483.179829 -184.636188 
L 480.086703 -180.295622 
L 476.993577 -176.81208 
L 473.90045 -174.149085 
L 470.807324 -172.196951 
L 467.714197 -170.814611 
L 464.621071 -169.855043 
L 461.527945 -169.200873 
L 459.044555 -168.831976 
L 455.951428 -168.515669 
L 453.663372 -168.350148 
L 450.570245 -168.195633 
L 448.437645 -168.119772 
L 445.344519 -168.043321 
L 443.317125 -168.007451 
L 440.223998 -167.969245 
L 438.27445 -167.951989 
L 435.181324 -167.93292 
L 433.298845 -167.924693 
L 430.205719 -167.915486 
L 428.387229 -167.911794 
L 425.294103 -167.907769 
L 423.555909 -167.906352 
L 420.800683 -167.905022 
L 419.257876 -167.904596 
L 416.472992 -167.9042 
L 415.019833 -167.904103 
L 412.660492 -167.904034 
L 411.343162 -167.904019 
L 409.025139 -167.90401 
L 407.891123 -167.904008 
L 405.724137 -167.904008 
L 404.791113 -167.904008 
L 402.843979 -167.904008 
L 402.118198 -167.904008 
L 400.405309 -167.904008 
L 399.881399 -167.904008 
L 398.800391 -167.904008 
L 398.483366 -167.904008 
L 397.921476 -167.904008 
L 397.765057 -167.904008 
L 397.519887 -167.904008 
L 397.463018 -167.904008 
L 397.457331 -167.904008 
L 397.456763 -167.904008 
z
" style="stroke: #8b4513; stroke-opacity: 0.2"/>
    </defs>
    <g clip-path="url(#p2549c6ec60)">
     <use xlink:href="#me127c6fff6" x="0" y="360" style="fill: #8b4513; fill-opacity: 0.2; stroke: #8b4513; stroke-opacity: 0.2"/>
    </g>
   </g>
   <g id="line2d_37">
    <path d="M 397.456763 238.589759 
L 397.457367 238.589759 
L 397.463406 238.589759 
L 397.523802 238.589759 
L 397.771537 238.589759 
L 397.931653 238.589759 
L 398.497316 238.589759 
L 398.819241 238.589759 
L 399.907857 238.589759 
L 400.446431 238.589759 
L 402.181686 238.589759 
L 402.932347 238.589759 
L 404.948268 238.589759 
L 405.913872 238.589759 
L 408.164122 238.589756 
L 409.341381 238.589752 
L 411.759955 238.589715 
L 413.131755 238.589659 
L 415.600909 238.589393 
L 417.116413 238.589045 
L 420.045124 238.587556 
L 421.676188 238.586021 
L 424.769315 238.580792 
L 426.540681 238.575962 
L 429.633807 238.562912 
L 431.52889 238.551262 
L 434.622016 238.524128 
L 436.63836 238.499615 
L 439.731486 238.447552 
L 441.86776 238.398308 
L 444.960886 238.299628 
L 447.234655 238.199459 
L 450.327782 238.00902 
L 452.784084 237.797324 
L 455.87721 237.421468 
L 458.970337 236.875146 
L 462.063463 236.087412 
L 465.156589 234.965386 
L 468.249716 233.394573 
L 471.342842 231.246079 
L 474.435969 228.394337 
L 477.529095 224.746011 
L 480.622221 220.273968 
L 483.715348 215.042898 
L 486.425239 209.961009 
L 489.13513 204.570718 
L 491.53465 199.681467 
L 493.972344 194.734968 
L 496.410038 189.928246 
L 498.530161 185.940674 
L 500.769429 181.989258 
L 503.862556 177.063182 
L 506.427608 173.493772 
L 509.520735 169.854921 
L 512.613861 166.948124 
L 515.706987 164.755012 
L 518.800114 163.236849 
L 521.89324 162.341129 
L 524.986367 162.00693 
L 528.079493 162.169145 
L 531.172619 162.761795 
L 534.265746 163.720555 
L 537.358872 164.98463 
L 540.451998 166.498058 
L 540.575723 166.563164 
L 540.625214 166.589295 
L 540.697782 166.627701 
L 540.751237 166.65606 
L 540.772861 166.667548 
L 540.774224 166.668273 
L 540.78786 166.675522 
L 540.799525 166.681727 
L 540.819668 166.692448 
L 540.836278 166.701294 
L 540.892517 166.731289 
L 541.064319 166.823305 
L 541.473681 167.044882 
L 542.313628 167.509368 
L 543.153575 167.986414 
L 544.442196 168.740644 
L 545.730816 169.519492 
L 547.295887 170.494342 
L 548.872977 171.505552 
L 550.70274 172.7087 
L 552.090538 173.638829 
L 554.21719 175.087327 
L 555.711472 176.118529 
L 557.90245 177.644636 
L 559.521506 178.779905 
L 561.914973 180.4642 
L 563.830401 181.813493 
L 566.90821 183.97638 
L 569.359567 185.688738 
L 572.452694 187.829405 
L 575.54582 189.941399 
L 578.638947 192.019165 
L 581.732073 194.058206 
L 584.825199 196.054858 
L 587.918326 198.006106 
L 591.011452 199.90945 
L 594.104579 201.762809 
L 597.197705 203.564448 
L 600.290831 205.312927 
L 603.383958 207.00707 
L 606.477084 208.645938 
L 609.570211 210.228813 
L 612.663337 211.755193 
L 615.756463 213.224773 
L 618.84959 214.637452 
L 621.942716 215.993315 
L 625.035842 217.292635 
L 628.128969 218.535861 
L 631.222095 219.723615 
L 634.315222 220.856676 
L 637.408348 221.935978 
L 640.501474 222.96259 
L 643.594601 223.93771 
L 644.906874 224.336088 
" clip-path="url(#p2549c6ec60)" style="fill: none; stroke: #ffff00; stroke-width: 1.5; stroke-linecap: square"/>
   </g>
   <g id="line2d_38">
    <path d="M 397.456763 192.095992 
L 397.457331 192.095992 
L 397.463018 192.095992 
L 397.519887 192.095992 
L 397.765057 192.095992 
L 397.921476 192.095992 
L 398.483366 192.095992 
L 398.800391 192.095992 
L 399.881399 192.095992 
L 400.405309 192.095992 
L 402.118198 192.095992 
L 402.843979 192.095992 
L 404.791113 192.095992 
L 405.724137 192.095992 
L 407.891123 192.095992 
L 409.025139 192.095991 
L 411.343162 192.095981 
L 412.660492 192.095967 
L 415.019833 192.095901 
L 416.472992 192.095811 
L 419.257876 192.095425 
L 420.800683 192.095023 
L 423.555909 192.09373 
L 425.294103 192.092388 
L 428.387229 192.088467 
L 430.205719 192.084955 
L 433.298845 192.076012 
L 435.181324 192.068196 
L 438.27445 192.049747 
L 440.223998 192.033417 
L 443.317125 191.996629 
L 445.344519 191.962853 
L 448.437645 191.889627 
L 450.570245 191.818531 
L 453.663372 191.671387 
L 455.951428 191.51682 
L 459.044555 191.217355 
L 461.527945 190.873569 
L 464.621071 190.259937 
L 467.714197 189.359795 
L 470.807324 188.06137 
L 473.90045 186.231199 
L 476.993577 183.728936 
L 480.086703 180.436129 
L 483.179829 176.294802 
L 486.272956 171.341595 
L 489.048028 166.322674 
L 491.463191 161.639789 
L 494.003901 156.54143 
L 496.544611 151.415625 
L 499.085322 146.401858 
L 501.626032 141.61757 
L 504.166742 137.153382 
L 506.948086 132.708699 
L 510.041212 128.364909 
L 513.134339 124.672916 
L 514.386386 123.361011 
L 514.487027 123.260087 
L 514.5979 123.14968 
L 514.599349 123.148242 
L 514.613842 123.133872 
L 514.626128 123.1217 
L 514.649651 123.098425 
L 514.667524 123.080765 
L 514.846253 122.905326 
L 516.476478 121.401873 
L 517.231591 120.762991 
L 520.324717 118.510412 
L 521.422949 117.843293 
L 524.516075 116.307727 
L 525.977564 115.745113 
L 529.07069 114.859284 
L 530.881006 114.513978 
L 533.974133 114.176203 
L 536.092355 114.105249 
L 539.185482 114.194458 
L 541.557386 114.393606 
L 544.650512 114.789076 
L 547.22099 115.21267 
L 550.314116 115.810452 
L 553.407243 116.482356 
L 556.500369 117.209207 
L 559.593495 117.976049 
L 562.686622 118.771403 
L 565.779748 119.586583 
L 568.872874 120.415102 
L 571.966001 121.252162 
L 575.059127 122.09425 
L 578.152254 122.93881 
L 581.24538 123.783992 
L 584.338506 124.628458 
L 587.431633 125.471243 
L 590.524759 126.311646 
L 593.617886 127.149154 
L 596.711012 127.983389 
L 599.804138 128.814065 
L 602.897265 129.640961 
L 605.990391 130.463902 
L 609.083517 131.282745 
L 612.176644 132.097369 
L 615.26977 132.907667 
L 618.362897 133.713542 
L 621.456023 134.514907 
L 624.549149 135.311676 
L 627.642276 136.103771 
L 630.735402 136.891111 
L 633.828529 137.673623 
L 636.921655 138.45123 
L 640.014781 139.223858 
L 643.107908 139.991433 
L 644.906874 140.435495 
" clip-path="url(#p2549c6ec60)" style="fill: none; stroke: #8b4513; stroke-width: 1.5; stroke-linecap: square"/>
   </g>
  </g>
  <g id="text_39">
   <!-- DoseT0_Cluster_0 -->
   <g transform="translate(259.753 24.2205) scale(0.224 -0.224)">
    <defs>
     <path id="DejaVuSans-73" d="M 2834 3397 
L 2834 2853 
Q 2591 2978 2328 3040 
Q 2066 3103 1784 3103 
Q 1356 3103 1142 2972 
Q 928 2841 928 2578 
Q 928 2378 1081 2264 
Q 1234 2150 1697 2047 
L 1894 2003 
Q 2506 1872 2764 1633 
Q 3022 1394 3022 966 
Q 3022 478 2636 193 
Q 2250 -91 1575 -91 
Q 1294 -91 989 -36 
Q 684 19 347 128 
L 347 722 
Q 666 556 975 473 
Q 1284 391 1588 391 
Q 1994 391 2212 530 
Q 2431 669 2431 922 
Q 2431 1156 2273 1281 
Q 2116 1406 1581 1522 
L 1381 1569 
Q 847 1681 609 1914 
Q 372 2147 372 2553 
Q 372 3047 722 3315 
Q 1072 3584 1716 3584 
Q 2034 3584 2315 3537 
Q 2597 3491 2834 3397 
z
" transform="scale(0.015625)"/>
     <path id="DejaVuSans-5f" d="M 3263 -1063 
L 3263 -1509 
L -63 -1509 
L -63 -1063 
L 3263 -1063 
z
" transform="scale(0.015625)"/>
     <path id="DejaVuSans-6c" d="M 603 4863 
L 1178 4863 
L 1178 0 
L 603 0 
L 603 4863 
z
" transform="scale(0.015625)"/>
     <path id="DejaVuSans-75" d="M 544 1381 
L 544 3500 
L 1119 3500 
L 1119 1403 
Q 1119 906 1312 657 
Q 1506 409 1894 409 
Q 2359 409 2629 706 
Q 2900 1003 2900 1516 
L 2900 3500 
L 3475 3500 
L 3475 0 
L 2900 0 
L 2900 538 
Q 2691 219 2414 64 
Q 2138 -91 1772 -91 
Q 1169 -91 856 284 
Q 544 659 544 1381 
z
M 1991 3584 
L 1991 3584 
z
" transform="scale(0.015625)"/>
     <path id="DejaVuSans-74" d="M 1172 4494 
L 1172 3500 
L 2356 3500 
L 2356 3053 
L 1172 3053 
L 1172 1153 
Q 1172 725 1289 603 
Q 1406 481 1766 481 
L 2356 481 
L 2356 0 
L 1766 0 
Q 1100 0 847 248 
Q 594 497 594 1153 
L 594 3053 
L 172 3053 
L 172 3500 
L 594 3500 
L 594 4494 
L 1172 4494 
z
" transform="scale(0.015625)"/>
     <path id="DejaVuSans-72" d="M 2631 2963 
Q 2534 3019 2420 3045 
Q 2306 3072 2169 3072 
Q 1681 3072 1420 2755 
Q 1159 2438 1159 1844 
L 1159 0 
L 581 0 
L 581 3500 
L 1159 3500 
L 1159 2956 
Q 1341 3275 1631 3429 
Q 1922 3584 2338 3584 
Q 2397 3584 2469 3576 
Q 2541 3569 2628 3553 
L 2631 2963 
z
" transform="scale(0.015625)"/>
    </defs>
    <use xlink:href="#DejaVuSans-44"/>
    <use xlink:href="#DejaVuSans-6f" x="77.001953"/>
    <use xlink:href="#DejaVuSans-73" x="138.183594"/>
    <use xlink:href="#DejaVuSans-65" x="190.283203"/>
    <use xlink:href="#DejaVuSans-54" x="251.806641"/>
    <use xlink:href="#DejaVuSans-30" x="312.890625"/>
    <use xlink:href="#DejaVuSans-5f" x="376.513672"/>
    <use xlink:href="#DejaVuSans-43" x="426.513672"/>
    <use xlink:href="#DejaVuSans-6c" x="496.337891"/>
    <use xlink:href="#DejaVuSans-75" x="524.121094"/>
    <use xlink:href="#DejaVuSans-73" x="587.5"/>
    <use xlink:href="#DejaVuSans-74" x="639.599609"/>
    <use xlink:href="#DejaVuSans-65" x="678.808594"/>
    <use xlink:href="#DejaVuSans-72" x="740.332031"/>
    <use xlink:href="#DejaVuSans-5f" x="781.445312"/>
    <use xlink:href="#DejaVuSans-30" x="831.445312"/>
   </g>
  </g>
 </g>
 <defs>
  <clipPath id="p4f2e8038d3">
   <rect x="90" y="43.2" width="253.636364" height="277.2"/>
  </clipPath>
  <clipPath id="p2549c6ec60">
   <rect x="394.363636" y="43.2" width="253.636364" height="277.2"/>
  </clipPath>
 </defs>
</svg>
