<?xml version="1.0" encoding="utf-8" standalone="no"?>
<!DOCTYPE svg PUBLIC "-//W3C//DTD SVG 1.1//EN"
  "http://www.w3.org/Graphics/SVG/1.1/DTD/svg11.dtd">
<svg xmlns:xlink="http://www.w3.org/1999/xlink" width="720pt" height="360pt" viewBox="0 0 720 360" xmlns="http://www.w3.org/2000/svg" version="1.1">
 <metadata>
  <rdf:RDF xmlns:dc="http://purl.org/dc/elements/1.1/" xmlns:cc="http://creativecommons.org/ns#" xmlns:rdf="http://www.w3.org/1999/02/22-rdf-syntax-ns#">
   <cc:Work>
    <dc:type rdf:resource="http://purl.org/dc/dcmitype/StillImage"/>
    <dc:date>2024-10-29T11:59:14.115840</dc:date>
    <dc:format>image/svg+xml</dc:format>
    <dc:creator>
     <cc:Agent>
      <dc:title>Matplotlib v3.9.2, https://matplotlib.org/</dc:title>
     </cc:Agent>
    </dc:creator>
   </cc:Work>
  </rdf:RDF>
 </metadata>
 <defs>
  <style type="text/css">*{stroke-linejoin: round; stroke-linecap: butt}</style>
 </defs>
 <g id="figure_1">
  <g id="patch_1">
   <path d="M 0 360 
L 720 360 
L 720 0 
L 0 0 
z
" style="fill: #ffffff"/>
  </g>
  <g id="axes_1">
   <g id="patch_2">
    <path d="M 90 320.4 
L 343.636364 320.4 
L 343.636364 43.2 
L 90 43.2 
z
" style="fill: #ffffff"/>
   </g>
   <g id="matplotlib.axis_1">
    <g id="xtick_1">
     <g id="line2d_1">
      <defs>
       <path id="m741e14deb1" d="M 0 0 
L 0 3.5 
" style="stroke: #000000; stroke-width: 0.8"/>
      </defs>
      <g>
       <use xlink:href="#m741e14deb1" x="93.093126" y="320.4" style="stroke: #000000; stroke-width: 0.8"/>
      </g>
     </g>
     <g id="text_1">
      <!-- 0 -->
      <g transform="translate(88.512126 338.34175) scale(0.144 -0.144)">
       <defs>
        <path id="DejaVuSans-30" d="M 2034 4250 
Q 1547 4250 1301 3770 
Q 1056 3291 1056 2328 
Q 1056 1369 1301 889 
Q 1547 409 2034 409 
Q 2525 409 2770 889 
Q 3016 1369 3016 2328 
Q 3016 3291 2770 3770 
Q 2525 4250 2034 4250 
z
M 2034 4750 
Q 2819 4750 3233 4129 
Q 3647 3509 3647 2328 
Q 3647 1150 3233 529 
Q 2819 -91 2034 -91 
Q 1250 -91 836 529 
Q 422 1150 422 2328 
Q 422 3509 836 4129 
Q 1250 4750 2034 4750 
z
" transform="scale(0.015625)"/>
       </defs>
       <use xlink:href="#DejaVuSans-30"/>
      </g>
     </g>
    </g>
    <g id="xtick_2">
     <g id="line2d_2">
      <g>
       <use xlink:href="#m741e14deb1" x="124.02439" y="320.4" style="stroke: #000000; stroke-width: 0.8"/>
      </g>
     </g>
     <g id="text_2">
      <!-- 1 -->
      <g transform="translate(119.44339 338.34175) scale(0.144 -0.144)">
       <defs>
        <path id="DejaVuSans-31" d="M 794 531 
L 1825 531 
L 1825 4091 
L 703 3866 
L 703 4441 
L 1819 4666 
L 2450 4666 
L 2450 531 
L 3481 531 
L 3481 0 
L 794 0 
L 794 531 
z
" transform="scale(0.015625)"/>
       </defs>
       <use xlink:href="#DejaVuSans-31"/>
      </g>
     </g>
    </g>
    <g id="xtick_3">
     <g id="line2d_3">
      <g>
       <use xlink:href="#m741e14deb1" x="154.955654" y="320.4" style="stroke: #000000; stroke-width: 0.8"/>
      </g>
     </g>
     <g id="text_3">
      <!-- 2 -->
      <g transform="translate(150.374654 338.34175) scale(0.144 -0.144)">
       <defs>
        <path id="DejaVuSans-32" d="M 1228 531 
L 3431 531 
L 3431 0 
L 469 0 
L 469 531 
Q 828 903 1448 1529 
Q 2069 2156 2228 2338 
Q 2531 2678 2651 2914 
Q 2772 3150 2772 3378 
Q 2772 3750 2511 3984 
Q 2250 4219 1831 4219 
Q 1534 4219 1204 4116 
Q 875 4013 500 3803 
L 500 4441 
Q 881 4594 1212 4672 
Q 1544 4750 1819 4750 
Q 2544 4750 2975 4387 
Q 3406 4025 3406 3419 
Q 3406 3131 3298 2873 
Q 3191 2616 2906 2266 
Q 2828 2175 2409 1742 
Q 1991 1309 1228 531 
z
" transform="scale(0.015625)"/>
       </defs>
       <use xlink:href="#DejaVuSans-32"/>
      </g>
     </g>
    </g>
    <g id="xtick_4">
     <g id="line2d_4">
      <g>
       <use xlink:href="#m741e14deb1" x="185.886918" y="320.4" style="stroke: #000000; stroke-width: 0.8"/>
      </g>
     </g>
     <g id="text_4">
      <!-- 3 -->
      <g transform="translate(181.305918 338.34175) scale(0.144 -0.144)">
       <defs>
        <path id="DejaVuSans-33" d="M 2597 2516 
Q 3050 2419 3304 2112 
Q 3559 1806 3559 1356 
Q 3559 666 3084 287 
Q 2609 -91 1734 -91 
Q 1441 -91 1130 -33 
Q 819 25 488 141 
L 488 750 
Q 750 597 1062 519 
Q 1375 441 1716 441 
Q 2309 441 2620 675 
Q 2931 909 2931 1356 
Q 2931 1769 2642 2001 
Q 2353 2234 1838 2234 
L 1294 2234 
L 1294 2753 
L 1863 2753 
Q 2328 2753 2575 2939 
Q 2822 3125 2822 3475 
Q 2822 3834 2567 4026 
Q 2313 4219 1838 4219 
Q 1578 4219 1281 4162 
Q 984 4106 628 3988 
L 628 4550 
Q 988 4650 1302 4700 
Q 1616 4750 1894 4750 
Q 2613 4750 3031 4423 
Q 3450 4097 3450 3541 
Q 3450 3153 3228 2886 
Q 3006 2619 2597 2516 
z
" transform="scale(0.015625)"/>
       </defs>
       <use xlink:href="#DejaVuSans-33"/>
      </g>
     </g>
    </g>
    <g id="xtick_5">
     <g id="line2d_5">
      <g>
       <use xlink:href="#m741e14deb1" x="216.818182" y="320.4" style="stroke: #000000; stroke-width: 0.8"/>
      </g>
     </g>
     <g id="text_5">
      <!-- 4 -->
      <g transform="translate(212.237182 338.34175) scale(0.144 -0.144)">
       <defs>
        <path id="DejaVuSans-34" d="M 2419 4116 
L 825 1625 
L 2419 1625 
L 2419 4116 
z
M 2253 4666 
L 3047 4666 
L 3047 1625 
L 3713 1625 
L 3713 1100 
L 3047 1100 
L 3047 0 
L 2419 0 
L 2419 1100 
L 313 1100 
L 313 1709 
L 2253 4666 
z
" transform="scale(0.015625)"/>
       </defs>
       <use xlink:href="#DejaVuSans-34"/>
      </g>
     </g>
    </g>
    <g id="xtick_6">
     <g id="line2d_6">
      <g>
       <use xlink:href="#m741e14deb1" x="247.749446" y="320.4" style="stroke: #000000; stroke-width: 0.8"/>
      </g>
     </g>
     <g id="text_6">
      <!-- 5 -->
      <g transform="translate(243.168446 338.34175) scale(0.144 -0.144)">
       <defs>
        <path id="DejaVuSans-35" d="M 691 4666 
L 3169 4666 
L 3169 4134 
L 1269 4134 
L 1269 2991 
Q 1406 3038 1543 3061 
Q 1681 3084 1819 3084 
Q 2600 3084 3056 2656 
Q 3513 2228 3513 1497 
Q 3513 744 3044 326 
Q 2575 -91 1722 -91 
Q 1428 -91 1123 -41 
Q 819 9 494 109 
L 494 744 
Q 775 591 1075 516 
Q 1375 441 1709 441 
Q 2250 441 2565 725 
Q 2881 1009 2881 1497 
Q 2881 1984 2565 2268 
Q 2250 2553 1709 2553 
Q 1456 2553 1204 2497 
Q 953 2441 691 2322 
L 691 4666 
z
" transform="scale(0.015625)"/>
       </defs>
       <use xlink:href="#DejaVuSans-35"/>
      </g>
     </g>
    </g>
    <g id="xtick_7">
     <g id="line2d_7">
      <g>
       <use xlink:href="#m741e14deb1" x="278.68071" y="320.4" style="stroke: #000000; stroke-width: 0.8"/>
      </g>
     </g>
     <g id="text_7">
      <!-- 6 -->
      <g transform="translate(274.09971 338.34175) scale(0.144 -0.144)">
       <defs>
        <path id="DejaVuSans-36" d="M 2113 2584 
Q 1688 2584 1439 2293 
Q 1191 2003 1191 1497 
Q 1191 994 1439 701 
Q 1688 409 2113 409 
Q 2538 409 2786 701 
Q 3034 994 3034 1497 
Q 3034 2003 2786 2293 
Q 2538 2584 2113 2584 
z
M 3366 4563 
L 3366 3988 
Q 3128 4100 2886 4159 
Q 2644 4219 2406 4219 
Q 1781 4219 1451 3797 
Q 1122 3375 1075 2522 
Q 1259 2794 1537 2939 
Q 1816 3084 2150 3084 
Q 2853 3084 3261 2657 
Q 3669 2231 3669 1497 
Q 3669 778 3244 343 
Q 2819 -91 2113 -91 
Q 1303 -91 875 529 
Q 447 1150 447 2328 
Q 447 3434 972 4092 
Q 1497 4750 2381 4750 
Q 2619 4750 2861 4703 
Q 3103 4656 3366 4563 
z
" transform="scale(0.015625)"/>
       </defs>
       <use xlink:href="#DejaVuSans-36"/>
      </g>
     </g>
    </g>
    <g id="xtick_8">
     <g id="line2d_8">
      <g>
       <use xlink:href="#m741e14deb1" x="309.611973" y="320.4" style="stroke: #000000; stroke-width: 0.8"/>
      </g>
     </g>
     <g id="text_8">
      <!-- 7 -->
      <g transform="translate(305.030973 338.34175) scale(0.144 -0.144)">
       <defs>
        <path id="DejaVuSans-37" d="M 525 4666 
L 3525 4666 
L 3525 4397 
L 1831 0 
L 1172 0 
L 2766 4134 
L 525 4134 
L 525 4666 
z
" transform="scale(0.015625)"/>
       </defs>
       <use xlink:href="#DejaVuSans-37"/>
      </g>
     </g>
    </g>
    <g id="xtick_9">
     <g id="line2d_9">
      <g>
       <use xlink:href="#m741e14deb1" x="340.543237" y="320.4" style="stroke: #000000; stroke-width: 0.8"/>
      </g>
     </g>
     <g id="text_9">
      <!-- 8 -->
      <g transform="translate(335.962237 338.34175) scale(0.144 -0.144)">
       <defs>
        <path id="DejaVuSans-38" d="M 2034 2216 
Q 1584 2216 1326 1975 
Q 1069 1734 1069 1313 
Q 1069 891 1326 650 
Q 1584 409 2034 409 
Q 2484 409 2743 651 
Q 3003 894 3003 1313 
Q 3003 1734 2745 1975 
Q 2488 2216 2034 2216 
z
M 1403 2484 
Q 997 2584 770 2862 
Q 544 3141 544 3541 
Q 544 4100 942 4425 
Q 1341 4750 2034 4750 
Q 2731 4750 3128 4425 
Q 3525 4100 3525 3541 
Q 3525 3141 3298 2862 
Q 3072 2584 2669 2484 
Q 3125 2378 3379 2068 
Q 3634 1759 3634 1313 
Q 3634 634 3220 271 
Q 2806 -91 2034 -91 
Q 1263 -91 848 271 
Q 434 634 434 1313 
Q 434 1759 690 2068 
Q 947 2378 1403 2484 
z
M 1172 3481 
Q 1172 3119 1398 2916 
Q 1625 2713 2034 2713 
Q 2441 2713 2670 2916 
Q 2900 3119 2900 3481 
Q 2900 3844 2670 4047 
Q 2441 4250 2034 4250 
Q 1625 4250 1398 4047 
Q 1172 3844 1172 3481 
z
" transform="scale(0.015625)"/>
       </defs>
       <use xlink:href="#DejaVuSans-38"/>
      </g>
     </g>
    </g>
    <g id="text_10">
     <!-- Time (d) -->
     <g transform="translate(176.693182 359.9255) scale(0.192 -0.192)">
      <defs>
       <path id="DejaVuSans-54" d="M -19 4666 
L 3928 4666 
L 3928 4134 
L 2272 4134 
L 2272 0 
L 1638 0 
L 1638 4134 
L -19 4134 
L -19 4666 
z
" transform="scale(0.015625)"/>
       <path id="DejaVuSans-69" d="M 603 3500 
L 1178 3500 
L 1178 0 
L 603 0 
L 603 3500 
z
M 603 4863 
L 1178 4863 
L 1178 4134 
L 603 4134 
L 603 4863 
z
" transform="scale(0.015625)"/>
       <path id="DejaVuSans-6d" d="M 3328 2828 
Q 3544 3216 3844 3400 
Q 4144 3584 4550 3584 
Q 5097 3584 5394 3201 
Q 5691 2819 5691 2113 
L 5691 0 
L 5113 0 
L 5113 2094 
Q 5113 2597 4934 2840 
Q 4756 3084 4391 3084 
Q 3944 3084 3684 2787 
Q 3425 2491 3425 1978 
L 3425 0 
L 2847 0 
L 2847 2094 
Q 2847 2600 2669 2842 
Q 2491 3084 2119 3084 
Q 1678 3084 1418 2786 
Q 1159 2488 1159 1978 
L 1159 0 
L 581 0 
L 581 3500 
L 1159 3500 
L 1159 2956 
Q 1356 3278 1631 3431 
Q 1906 3584 2284 3584 
Q 2666 3584 2933 3390 
Q 3200 3197 3328 2828 
z
" transform="scale(0.015625)"/>
       <path id="DejaVuSans-65" d="M 3597 1894 
L 3597 1613 
L 953 1613 
Q 991 1019 1311 708 
Q 1631 397 2203 397 
Q 2534 397 2845 478 
Q 3156 559 3463 722 
L 3463 178 
Q 3153 47 2828 -22 
Q 2503 -91 2169 -91 
Q 1331 -91 842 396 
Q 353 884 353 1716 
Q 353 2575 817 3079 
Q 1281 3584 2069 3584 
Q 2775 3584 3186 3129 
Q 3597 2675 3597 1894 
z
M 3022 2063 
Q 3016 2534 2758 2815 
Q 2500 3097 2075 3097 
Q 1594 3097 1305 2825 
Q 1016 2553 972 2059 
L 3022 2063 
z
" transform="scale(0.015625)"/>
       <path id="DejaVuSans-20" transform="scale(0.015625)"/>
       <path id="DejaVuSans-28" d="M 1984 4856 
Q 1566 4138 1362 3434 
Q 1159 2731 1159 2009 
Q 1159 1288 1364 580 
Q 1569 -128 1984 -844 
L 1484 -844 
Q 1016 -109 783 600 
Q 550 1309 550 2009 
Q 550 2706 781 3412 
Q 1013 4119 1484 4856 
L 1984 4856 
z
" transform="scale(0.015625)"/>
       <path id="DejaVuSans-64" d="M 2906 2969 
L 2906 4863 
L 3481 4863 
L 3481 0 
L 2906 0 
L 2906 525 
Q 2725 213 2448 61 
Q 2172 -91 1784 -91 
Q 1150 -91 751 415 
Q 353 922 353 1747 
Q 353 2572 751 3078 
Q 1150 3584 1784 3584 
Q 2172 3584 2448 3432 
Q 2725 3281 2906 2969 
z
M 947 1747 
Q 947 1113 1208 752 
Q 1469 391 1925 391 
Q 2381 391 2643 752 
Q 2906 1113 2906 1747 
Q 2906 2381 2643 2742 
Q 2381 3103 1925 3103 
Q 1469 3103 1208 2742 
Q 947 2381 947 1747 
z
" transform="scale(0.015625)"/>
       <path id="DejaVuSans-29" d="M 513 4856 
L 1013 4856 
Q 1481 4119 1714 3412 
Q 1947 2706 1947 2009 
Q 1947 1309 1714 600 
Q 1481 -109 1013 -844 
L 513 -844 
Q 928 -128 1133 580 
Q 1338 1288 1338 2009 
Q 1338 2731 1133 3434 
Q 928 4138 513 4856 
z
" transform="scale(0.015625)"/>
      </defs>
      <use xlink:href="#DejaVuSans-54"/>
      <use xlink:href="#DejaVuSans-69" x="57.958984"/>
      <use xlink:href="#DejaVuSans-6d" x="85.742188"/>
      <use xlink:href="#DejaVuSans-65" x="183.154297"/>
      <use xlink:href="#DejaVuSans-20" x="244.677734"/>
      <use xlink:href="#DejaVuSans-28" x="276.464844"/>
      <use xlink:href="#DejaVuSans-64" x="315.478516"/>
      <use xlink:href="#DejaVuSans-29" x="378.955078"/>
     </g>
    </g>
   </g>
   <g id="matplotlib.axis_2">
    <g id="ytick_1">
     <g id="line2d_10">
      <defs>
       <path id="m2a889579b6" d="M 0 0 
L -3.5 0 
" style="stroke: #000000; stroke-width: 0.8"/>
      </defs>
      <g>
       <use xlink:href="#m2a889579b6" x="90" y="320.4" style="stroke: #000000; stroke-width: 0.8"/>
      </g>
     </g>
     <g id="text_11">
      <!-- 0 -->
      <g transform="translate(73.838 325.870875) scale(0.144 -0.144)">
       <use xlink:href="#DejaVuSans-30"/>
      </g>
     </g>
    </g>
    <g id="ytick_2">
     <g id="line2d_11">
      <g>
       <use xlink:href="#m2a889579b6" x="90" y="286.8" style="stroke: #000000; stroke-width: 0.8"/>
      </g>
     </g>
     <g id="text_12">
      <!-- 1 -->
      <g transform="translate(73.838 292.270875) scale(0.144 -0.144)">
       <use xlink:href="#DejaVuSans-31"/>
      </g>
     </g>
    </g>
    <g id="ytick_3">
     <g id="line2d_12">
      <g>
       <use xlink:href="#m2a889579b6" x="90" y="253.2" style="stroke: #000000; stroke-width: 0.8"/>
      </g>
     </g>
     <g id="text_13">
      <!-- 2 -->
      <g transform="translate(73.838 258.670875) scale(0.144 -0.144)">
       <use xlink:href="#DejaVuSans-32"/>
      </g>
     </g>
    </g>
    <g id="ytick_4">
     <g id="line2d_13">
      <g>
       <use xlink:href="#m2a889579b6" x="90" y="219.6" style="stroke: #000000; stroke-width: 0.8"/>
      </g>
     </g>
     <g id="text_14">
      <!-- 3 -->
      <g transform="translate(73.838 225.070875) scale(0.144 -0.144)">
       <use xlink:href="#DejaVuSans-33"/>
      </g>
     </g>
    </g>
    <g id="ytick_5">
     <g id="line2d_14">
      <g>
       <use xlink:href="#m2a889579b6" x="90" y="186" style="stroke: #000000; stroke-width: 0.8"/>
      </g>
     </g>
     <g id="text_15">
      <!-- 4 -->
      <g transform="translate(73.838 191.470875) scale(0.144 -0.144)">
       <use xlink:href="#DejaVuSans-34"/>
      </g>
     </g>
    </g>
    <g id="ytick_6">
     <g id="line2d_15">
      <g>
       <use xlink:href="#m2a889579b6" x="90" y="152.4" style="stroke: #000000; stroke-width: 0.8"/>
      </g>
     </g>
     <g id="text_16">
      <!-- 5 -->
      <g transform="translate(73.838 157.870875) scale(0.144 -0.144)">
       <use xlink:href="#DejaVuSans-35"/>
      </g>
     </g>
    </g>
    <g id="ytick_7">
     <g id="line2d_16">
      <g>
       <use xlink:href="#m2a889579b6" x="90" y="118.8" style="stroke: #000000; stroke-width: 0.8"/>
      </g>
     </g>
     <g id="text_17">
      <!-- 6 -->
      <g transform="translate(73.838 124.270875) scale(0.144 -0.144)">
       <use xlink:href="#DejaVuSans-36"/>
      </g>
     </g>
    </g>
    <g id="ytick_8">
     <g id="line2d_17">
      <g>
       <use xlink:href="#m2a889579b6" x="90" y="85.2" style="stroke: #000000; stroke-width: 0.8"/>
      </g>
     </g>
     <g id="text_18">
      <!-- 7 -->
      <g transform="translate(73.838 90.670875) scale(0.144 -0.144)">
       <use xlink:href="#DejaVuSans-37"/>
      </g>
     </g>
    </g>
    <g id="ytick_9">
     <g id="line2d_18">
      <g>
       <use xlink:href="#m2a889579b6" x="90" y="51.6" style="stroke: #000000; stroke-width: 0.8"/>
      </g>
     </g>
     <g id="text_19">
      <!-- 8 -->
      <g transform="translate(73.838 57.070875) scale(0.144 -0.144)">
       <use xlink:href="#DejaVuSans-38"/>
      </g>
     </g>
    </g>
    <g id="text_20">
     <!-- Log10(V) -->
     <g transform="translate(65.845 225.2235) rotate(-90) scale(0.192 -0.192)">
      <defs>
       <path id="DejaVuSans-4c" d="M 628 4666 
L 1259 4666 
L 1259 531 
L 3531 531 
L 3531 0 
L 628 0 
L 628 4666 
z
" transform="scale(0.015625)"/>
       <path id="DejaVuSans-6f" d="M 1959 3097 
Q 1497 3097 1228 2736 
Q 959 2375 959 1747 
Q 959 1119 1226 758 
Q 1494 397 1959 397 
Q 2419 397 2687 759 
Q 2956 1122 2956 1747 
Q 2956 2369 2687 2733 
Q 2419 3097 1959 3097 
z
M 1959 3584 
Q 2709 3584 3137 3096 
Q 3566 2609 3566 1747 
Q 3566 888 3137 398 
Q 2709 -91 1959 -91 
Q 1206 -91 779 398 
Q 353 888 353 1747 
Q 353 2609 779 3096 
Q 1206 3584 1959 3584 
z
" transform="scale(0.015625)"/>
       <path id="DejaVuSans-67" d="M 2906 1791 
Q 2906 2416 2648 2759 
Q 2391 3103 1925 3103 
Q 1463 3103 1205 2759 
Q 947 2416 947 1791 
Q 947 1169 1205 825 
Q 1463 481 1925 481 
Q 2391 481 2648 825 
Q 2906 1169 2906 1791 
z
M 3481 434 
Q 3481 -459 3084 -895 
Q 2688 -1331 1869 -1331 
Q 1566 -1331 1297 -1286 
Q 1028 -1241 775 -1147 
L 775 -588 
Q 1028 -725 1275 -790 
Q 1522 -856 1778 -856 
Q 2344 -856 2625 -561 
Q 2906 -266 2906 331 
L 2906 616 
Q 2728 306 2450 153 
Q 2172 0 1784 0 
Q 1141 0 747 490 
Q 353 981 353 1791 
Q 353 2603 747 3093 
Q 1141 3584 1784 3584 
Q 2172 3584 2450 3431 
Q 2728 3278 2906 2969 
L 2906 3500 
L 3481 3500 
L 3481 434 
z
" transform="scale(0.015625)"/>
       <path id="DejaVuSans-56" d="M 1831 0 
L 50 4666 
L 709 4666 
L 2188 738 
L 3669 4666 
L 4325 4666 
L 2547 0 
L 1831 0 
z
" transform="scale(0.015625)"/>
      </defs>
      <use xlink:href="#DejaVuSans-4c"/>
      <use xlink:href="#DejaVuSans-6f" x="53.962891"/>
      <use xlink:href="#DejaVuSans-67" x="115.144531"/>
      <use xlink:href="#DejaVuSans-31" x="178.621094"/>
      <use xlink:href="#DejaVuSans-30" x="242.244141"/>
      <use xlink:href="#DejaVuSans-28" x="305.867188"/>
      <use xlink:href="#DejaVuSans-56" x="344.880859"/>
      <use xlink:href="#DejaVuSans-29" x="413.289062"/>
     </g>
    </g>
   </g>
   <g id="patch_3">
    <path d="M 90 320.4 
L 90 43.2 
" style="fill: none; stroke: #000000; stroke-width: 0.8; stroke-linejoin: miter; stroke-linecap: square"/>
   </g>
   <g id="patch_4">
    <path d="M 343.636364 320.4 
L 343.636364 43.2 
" style="fill: none; stroke: #000000; stroke-width: 0.8; stroke-linejoin: miter; stroke-linecap: square"/>
   </g>
   <g id="patch_5">
    <path d="M 90 320.4 
L 343.636364 320.4 
" style="fill: none; stroke: #000000; stroke-width: 0.8; stroke-linejoin: miter; stroke-linecap: square"/>
   </g>
   <g id="patch_6">
    <path d="M 90 43.2 
L 343.636364 43.2 
" style="fill: none; stroke: #000000; stroke-width: 0.8; stroke-linejoin: miter; stroke-linecap: square"/>
   </g>
   <g id="PolyCollection_1">
    <defs>
     <path id="m69fcc15d95" d="M 93.093126 -39.6 
L 93.093126 -39.6 
L 93.093935 -39.6 
L 93.10202 -39.6 
L 93.182875 -39.6 
L 93.527349 -54.309078 
L 93.744241 -65.679246 
L 94.525193 -86.904666 
L 94.95516 -93.685533 
L 96.445614 -107.751545 
L 97.230588 -112.431328 
L 99.768495 -122.12685 
L 100.886664 -125.113538 
L 103.979791 -131.585961 
L 105.374386 -134.088065 
L 108.467512 -139.330998 
L 110.1322 -142.063826 
L 113.225326 -147.105894 
L 115.147405 -150.181794 
L 118.240531 -155.136806 
L 120.40167 -158.591418 
L 123.494796 -163.543793 
L 125.872137 -167.341052 
L 128.965263 -172.284159 
L 131.534901 -176.383591 
L 134.285244 -180.761518 
L 137.148653 -185.305508 
L 140.178345 -190.092404 
L 143.271471 -194.948792 
L 146.364598 -199.762286 
L 149.457724 -204.516937 
L 152.55085 -209.191473 
L 155.643977 -213.758058 
L 158.737103 -218.181212 
L 161.83023 -222.417328 
L 164.923356 -226.415433 
L 168.016482 -230.119883 
L 171.109609 -233.475452 
L 174.202735 -236.434447 
L 177.295861 -238.964371 
L 180.388988 -241.053738 
L 183.482114 -242.574776 
L 186.575241 -243.629277 
L 189.668367 -244.355299 
L 192.761493 -244.804756 
L 195.85462 -245.023078 
L 198.947746 -245.043717 
L 202.040873 -244.884446 
L 205.133999 -244.544308 
L 208.227125 -243.999571 
L 211.320252 -243.196193 
L 214.413378 -242.034162 
L 217.506505 -240.314078 
L 220.599631 -237.534512 
L 223.692757 -232.579896 
L 226.785884 -222.191026 
L 226.909609 -221.603709 
L 227.157059 -220.429074 
L 227.194825 -220.249799 
L 227.260392 -219.938553 
L 227.286694 -219.813703 
L 227.298183 -219.759162 
L 227.307357 -219.715615 
L 227.319013 -219.660283 
L 227.330669 -219.604951 
L 227.357408 -219.478027 
L 227.418905 -219.18621 
L 227.568591 -218.47638 
L 227.942057 -216.705351 
L 229.045571 -211.428394 
L 229.82291 -207.716125 
L 231.65201 -198.924973 
L 232.750491 -193.606197 
L 235.120281 -182.171929 
L 236.464308 -175.597609 
L 239.143917 -162.377843 
L 240.666919 -154.82029 
L 243.48459 -140.815768 
L 245.138596 -132.586509 
L 247.691499 -119.871942 
L 249.483564 -110.942145 
L 252.12165 -97.793557 
L 254.02872 -88.269191 
L 256.76521 -74.557507 
L 258.840366 -64.133634 
L 261.903123 -48.552882 
L 264.404937 -39.6 
L 267.498063 -39.6 
L 270.59119 -39.6 
L 273.684316 -39.6 
L 276.777442 -39.6 
L 279.870569 -39.6 
L 282.963695 -39.6 
L 286.056822 -39.6 
L 289.149948 -39.6 
L 292.243074 -39.6 
L 295.336201 -39.6 
L 298.429327 -39.6 
L 301.522454 -39.6 
L 304.61558 -39.6 
L 307.708706 -39.6 
L 310.801833 -39.6 
L 311.420458 -39.6 
L 314.513584 -39.6 
L 315.711958 -39.6 
L 318.805084 -39.6 
L 320.813019 -39.6 
L 323.906145 -39.6 
L 326.999272 -39.6 
L 330.092398 -39.6 
L 333.185524 -39.6 
L 336.278651 -39.6 
L 339.371777 -39.6 
L 340.543237 -39.6 
L 340.543237 -39.6 
L 340.543237 -39.6 
L 339.371777 -39.6 
L 336.278651 -39.6 
L 333.185524 -39.6 
L 330.092398 -39.6 
L 326.999272 -39.6 
L 323.906145 -39.6 
L 320.813019 -39.6 
L 318.805084 -39.6 
L 315.711958 -39.6 
L 314.513584 -39.6 
L 311.420458 -39.6 
L 310.801833 -39.6 
L 307.708706 -39.6 
L 304.61558 -39.6 
L 301.522454 -39.6 
L 298.429327 -39.6 
L 295.336201 -39.6 
L 292.243074 -39.6 
L 289.149948 -39.6 
L 286.056822 -39.6 
L 282.963695 -39.6 
L 279.870569 -39.6 
L 276.777442 -39.6 
L 273.684316 -39.6 
L 270.59119 -39.6 
L 267.498063 -39.6 
L 264.404937 -44.108406 
L 261.903123 -54.291938 
L 258.840366 -69.359934 
L 256.76521 -79.375616 
L 254.02872 -92.741695 
L 252.12165 -102.178006 
L 249.483564 -115.320632 
L 247.691499 -124.247517 
L 245.138596 -136.962349 
L 243.48459 -145.187006 
L 240.666919 -159.188721 
L 239.143917 -166.856788 
L 236.464308 -180.548634 
L 235.120281 -187.354849 
L 232.750491 -199.371225 
L 231.65201 -204.902173 
L 229.82291 -214.088344 
L 229.045571 -217.974339 
L 227.942057 -223.470569 
L 227.568591 -225.220897 
L 227.418905 -225.796808 
L 227.357408 -226.032004 
L 227.330669 -226.134262 
L 227.319013 -226.178842 
L 227.307357 -226.223421 
L 227.298183 -226.258505 
L 227.286694 -226.302446 
L 227.260392 -226.403034 
L 227.194825 -226.653794 
L 227.157059 -226.798229 
L 226.909609 -227.744592 
L 226.785884 -228.039918 
L 223.692757 -235.206829 
L 220.599631 -239.368094 
L 217.506505 -241.901249 
L 214.413378 -243.567349 
L 211.320252 -244.763643 
L 208.227125 -245.594914 
L 205.133999 -246.148252 
L 202.040873 -246.454176 
L 198.947746 -246.554206 
L 195.85462 -246.464826 
L 192.761493 -246.235301 
L 189.668367 -245.772117 
L 186.575241 -245.027554 
L 183.482114 -243.94685 
L 180.388988 -242.489563 
L 177.295861 -240.695942 
L 174.202735 -238.454321 
L 171.109609 -235.747682 
L 168.016482 -232.592676 
L 164.923356 -229.028309 
L 161.83023 -225.108639 
L 158.737103 -220.894108 
L 155.643977 -216.444016 
L 152.55085 -211.811493 
L 149.457724 -207.041105 
L 146.364598 -202.168462 
L 143.271471 -197.221018 
L 140.178345 -192.219614 
L 137.148653 -187.283915 
L 134.285244 -182.596337 
L 131.534901 -178.078578 
L 128.965263 -173.848975 
L 125.872137 -168.74017 
L 123.494796 -164.815953 
L 120.40167 -159.695537 
L 118.240531 -156.124753 
L 115.147405 -151.000959 
L 113.225326 -147.826078 
L 110.1322 -142.694457 
L 108.467512 -139.924075 
L 105.374386 -134.621698 
L 103.979791 -132.089164 
L 100.886664 -125.534137 
L 99.768495 -122.541418 
L 97.230588 -112.726008 
L 96.445614 -108.017563 
L 94.95516 -93.840553 
L 94.525193 -87.034297 
L 93.744241 -65.747555 
L 93.527349 -54.391611 
L 93.182875 -39.663682 
L 93.10202 -39.6 
L 93.093935 -39.6 
L 93.093126 -39.6 
z
" style="stroke: #ffff00; stroke-opacity: 0.2"/>
    </defs>
    <g clip-path="url(#p6a2eefd06b)">
     <use xlink:href="#m69fcc15d95" x="0" y="360" style="fill: #ffff00; fill-opacity: 0.2; stroke: #ffff00; stroke-opacity: 0.2"/>
    </g>
   </g>
   <g id="legend_1">
    <g id="patch_7">
     <path d="M 232.108364 86.742 
L 330.196364 86.742 
Q 334.036364 86.742 334.036364 82.902 
L 334.036364 56.64 
Q 334.036364 52.8 330.196364 52.8 
L 232.108364 52.8 
Q 228.268364 52.8 228.268364 56.64 
L 228.268364 82.902 
Q 228.268364 86.742 232.108364 86.742 
z
" style="fill: #ffffff; opacity: 0.8; stroke: #cccccc; stroke-linejoin: miter"/>
    </g>
    <g id="PathCollection_1">
     <defs>
      <path id="mba8cc72c38" d="M 0 3 
C 0.795609 3 1.55874 2.683901 2.12132 2.12132 
C 2.683901 1.55874 3 0.795609 3 0 
C 3 -0.795609 2.683901 -1.55874 2.12132 -2.12132 
C 1.55874 -2.683901 0.795609 -3 0 -3 
C -0.795609 -3 -1.55874 -2.683901 -2.12132 -2.12132 
C -2.683901 -1.55874 -3 -0.795609 -3 0 
C -3 0.795609 -2.683901 1.55874 -2.12132 2.12132 
C -1.55874 2.683901 -0.795609 3 0 3 
z
" style="stroke: #000000; stroke-opacity: 0.8"/>
     </defs>
     <g>
      <use xlink:href="#mba8cc72c38" x="255.148364" y="70.029" style="fill: #ffff00; fill-opacity: 0.8; stroke: #000000; stroke-opacity: 0.8"/>
     </g>
    </g>
    <g id="text_21">
     <!-- 112 -->
     <g transform="translate(289.708364 75.069) scale(0.192 -0.192)">
      <use xlink:href="#DejaVuSans-31"/>
      <use xlink:href="#DejaVuSans-31" x="63.623047"/>
      <use xlink:href="#DejaVuSans-32" x="127.246094"/>
     </g>
    </g>
   </g>
   <g id="PathCollection_2">
    <g clip-path="url(#p6a2eefd06b)">
     <use xlink:href="#mba8cc72c38" x="93.093126" y="320.4" style="fill: #ffff00; fill-opacity: 0.8; stroke: #000000; stroke-opacity: 0.8"/>
     <use xlink:href="#mba8cc72c38" x="124.02439" y="191.915937" style="fill: #ffff00; fill-opacity: 0.8; stroke: #000000; stroke-opacity: 0.8"/>
     <use xlink:href="#mba8cc72c38" x="154.955654" y="144.554018" style="fill: #ffff00; fill-opacity: 0.8; stroke: #000000; stroke-opacity: 0.8"/>
     <use xlink:href="#mba8cc72c38" x="185.886918" y="122.307529" style="fill: #ffff00; fill-opacity: 0.8; stroke: #000000; stroke-opacity: 0.8"/>
     <use xlink:href="#mba8cc72c38" x="216.818182" y="113.913078" style="fill: #ffff00; fill-opacity: 0.8; stroke: #000000; stroke-opacity: 0.8"/>
     <use xlink:href="#mba8cc72c38" x="247.749446" y="237.968504" style="fill: #ffff00; fill-opacity: 0.8; stroke: #000000; stroke-opacity: 0.8"/>
     <use xlink:href="#mba8cc72c38" x="278.68071" y="320.4" style="fill: #ffff00; fill-opacity: 0.8; stroke: #000000; stroke-opacity: 0.8"/>
     <use xlink:href="#mba8cc72c38" x="309.611973" y="320.4" style="fill: #ffff00; fill-opacity: 0.8; stroke: #000000; stroke-opacity: 0.8"/>
    </g>
   </g>
   <g id="line2d_19">
    <path d="M 93.093126 320.4 
L 93.093935 320.4 
L 93.10202 320.4 
L 93.182875 320.4 
L 93.527349 305.67166 
L 93.744241 294.277889 
L 94.525193 273.025621 
L 94.95516 266.237769 
L 96.445614 252.116843 
L 97.230588 247.429006 
L 99.768495 237.66562 
L 100.886664 234.690737 
L 103.979791 228.199363 
L 105.374386 225.701826 
L 108.467512 220.46207 
L 110.1322 217.72696 
L 113.225326 212.660031 
L 115.147405 209.525756 
L 118.240531 204.467784 
L 120.40167 200.942799 
L 123.494796 195.888263 
L 125.872137 192.014095 
L 128.965263 186.970531 
L 131.534901 182.79408 
L 134.285244 178.332568 
L 137.148653 173.702338 
L 140.178345 168.825482 
L 143.271471 163.881396 
L 146.364598 158.987205 
L 149.457724 154.16171 
L 152.55085 149.429973 
L 155.643977 144.824607 
L 158.737103 140.38669 
L 161.83023 136.165744 
L 164.923356 132.218016 
L 168.016482 128.602388 
L 171.109609 125.373799 
L 174.202735 122.575109 
L 177.295861 120.229503 
L 180.388988 118.336017 
L 183.482114 116.869989 
L 186.575241 115.788445 
L 189.668367 115.038625 
L 192.761493 114.567101 
L 195.85462 114.327462 
L 198.947746 114.28575 
L 202.040873 114.424028 
L 205.133999 114.743257 
L 208.227125 115.267154 
L 211.320252 116.049422 
L 214.413378 117.188801 
L 217.506505 118.862605 
L 220.599631 121.410846 
L 223.692757 125.596655 
L 226.785884 133.808466 
L 226.909609 134.317192 
L 227.157059 135.406907 
L 227.194825 135.58239 
L 227.260392 135.893024 
L 227.286694 136.019671 
L 227.298183 136.075299 
L 227.307357 136.119801 
L 227.319013 136.176396 
L 227.330669 136.233007 
L 227.357408 136.362869 
L 227.418905 136.661559 
L 227.568591 137.388628 
L 227.942057 139.203636 
L 229.045571 144.593775 
L 229.82291 148.37969 
L 231.65201 157.408509 
L 232.750491 162.773769 
L 235.120281 174.611938 
L 236.464308 181.195536 
L 239.143917 194.697414 
L 240.666919 202.1765 
L 243.48459 216.435264 
L 245.138596 224.574427 
L 247.691499 237.389935 
L 249.483564 246.229415 
L 252.12165 259.504622 
L 254.02872 268.931269 
L 256.76521 282.741455 
L 258.840366 293.03243 
L 261.903123 308.648099 
L 264.404937 320.4 
L 267.498063 320.4 
L 270.59119 320.4 
L 273.684316 320.4 
L 276.777442 320.4 
L 279.870569 320.4 
L 282.963695 320.4 
L 286.056822 320.4 
L 289.149948 320.4 
L 292.243074 320.4 
L 295.336201 320.4 
L 298.429327 320.4 
L 301.522454 320.4 
L 304.61558 320.4 
L 307.708706 320.4 
L 310.801833 320.4 
L 311.420458 320.4 
L 314.513584 320.4 
L 315.711958 320.4 
L 318.805084 320.4 
L 320.813019 320.4 
L 323.906145 320.4 
L 326.999272 320.4 
L 330.092398 320.4 
L 333.185524 320.4 
L 336.278651 320.4 
L 339.371777 320.4 
L 340.543237 320.4 
" clip-path="url(#p6a2eefd06b)" style="fill: none; stroke: #ffff00; stroke-width: 1.5; stroke-linecap: square"/>
   </g>
  </g>
  <g id="axes_2">
   <g id="patch_8">
    <path d="M 394.363636 320.4 
L 648 320.4 
L 648 43.2 
L 394.363636 43.2 
z
" style="fill: #ffffff"/>
   </g>
   <g id="matplotlib.axis_3">
    <g id="xtick_10">
     <g id="line2d_20">
      <g>
       <use xlink:href="#m741e14deb1" x="397.456763" y="320.4" style="stroke: #000000; stroke-width: 0.8"/>
      </g>
     </g>
     <g id="text_22">
      <!-- 0 -->
      <g transform="translate(392.875763 338.34175) scale(0.144 -0.144)">
       <use xlink:href="#DejaVuSans-30"/>
      </g>
     </g>
    </g>
    <g id="xtick_11">
     <g id="line2d_21">
      <g>
       <use xlink:href="#m741e14deb1" x="428.388027" y="320.4" style="stroke: #000000; stroke-width: 0.8"/>
      </g>
     </g>
     <g id="text_23">
      <!-- 1 -->
      <g transform="translate(423.807027 338.34175) scale(0.144 -0.144)">
       <use xlink:href="#DejaVuSans-31"/>
      </g>
     </g>
    </g>
    <g id="xtick_12">
     <g id="line2d_22">
      <g>
       <use xlink:href="#m741e14deb1" x="459.31929" y="320.4" style="stroke: #000000; stroke-width: 0.8"/>
      </g>
     </g>
     <g id="text_24">
      <!-- 2 -->
      <g transform="translate(454.73829 338.34175) scale(0.144 -0.144)">
       <use xlink:href="#DejaVuSans-32"/>
      </g>
     </g>
    </g>
    <g id="xtick_13">
     <g id="line2d_23">
      <g>
       <use xlink:href="#m741e14deb1" x="490.250554" y="320.4" style="stroke: #000000; stroke-width: 0.8"/>
      </g>
     </g>
     <g id="text_25">
      <!-- 3 -->
      <g transform="translate(485.669554 338.34175) scale(0.144 -0.144)">
       <use xlink:href="#DejaVuSans-33"/>
      </g>
     </g>
    </g>
    <g id="xtick_14">
     <g id="line2d_24">
      <g>
       <use xlink:href="#m741e14deb1" x="521.181818" y="320.4" style="stroke: #000000; stroke-width: 0.8"/>
      </g>
     </g>
     <g id="text_26">
      <!-- 4 -->
      <g transform="translate(516.600818 338.34175) scale(0.144 -0.144)">
       <use xlink:href="#DejaVuSans-34"/>
      </g>
     </g>
    </g>
    <g id="xtick_15">
     <g id="line2d_25">
      <g>
       <use xlink:href="#m741e14deb1" x="552.113082" y="320.4" style="stroke: #000000; stroke-width: 0.8"/>
      </g>
     </g>
     <g id="text_27">
      <!-- 5 -->
      <g transform="translate(547.532082 338.34175) scale(0.144 -0.144)">
       <use xlink:href="#DejaVuSans-35"/>
      </g>
     </g>
    </g>
    <g id="xtick_16">
     <g id="line2d_26">
      <g>
       <use xlink:href="#m741e14deb1" x="583.044346" y="320.4" style="stroke: #000000; stroke-width: 0.8"/>
      </g>
     </g>
     <g id="text_28">
      <!-- 6 -->
      <g transform="translate(578.463346 338.34175) scale(0.144 -0.144)">
       <use xlink:href="#DejaVuSans-36"/>
      </g>
     </g>
    </g>
    <g id="xtick_17">
     <g id="line2d_27">
      <g>
       <use xlink:href="#m741e14deb1" x="613.97561" y="320.4" style="stroke: #000000; stroke-width: 0.8"/>
      </g>
     </g>
     <g id="text_29">
      <!-- 7 -->
      <g transform="translate(609.39461 338.34175) scale(0.144 -0.144)">
       <use xlink:href="#DejaVuSans-37"/>
      </g>
     </g>
    </g>
    <g id="xtick_18">
     <g id="line2d_28">
      <g>
       <use xlink:href="#m741e14deb1" x="644.906874" y="320.4" style="stroke: #000000; stroke-width: 0.8"/>
      </g>
     </g>
     <g id="text_30">
      <!-- 8 -->
      <g transform="translate(640.325874 338.34175) scale(0.144 -0.144)">
       <use xlink:href="#DejaVuSans-38"/>
      </g>
     </g>
    </g>
    <g id="text_31">
     <!-- Time (d) -->
     <g transform="translate(481.056818 359.9255) scale(0.192 -0.192)">
      <use xlink:href="#DejaVuSans-54"/>
      <use xlink:href="#DejaVuSans-69" x="57.958984"/>
      <use xlink:href="#DejaVuSans-6d" x="85.742188"/>
      <use xlink:href="#DejaVuSans-65" x="183.154297"/>
      <use xlink:href="#DejaVuSans-20" x="244.677734"/>
      <use xlink:href="#DejaVuSans-28" x="276.464844"/>
      <use xlink:href="#DejaVuSans-64" x="315.478516"/>
      <use xlink:href="#DejaVuSans-29" x="378.955078"/>
     </g>
    </g>
   </g>
   <g id="matplotlib.axis_4">
    <g id="ytick_10">
     <g id="line2d_29">
      <g>
       <use xlink:href="#m2a889579b6" x="394.363636" y="320.4" style="stroke: #000000; stroke-width: 0.8"/>
      </g>
     </g>
     <g id="text_32">
      <!-- 4.5 -->
      <g transform="translate(364.463136 325.870875) scale(0.144 -0.144)">
       <defs>
        <path id="DejaVuSans-2e" d="M 684 794 
L 1344 794 
L 1344 0 
L 684 0 
L 684 794 
z
" transform="scale(0.015625)"/>
       </defs>
       <use xlink:href="#DejaVuSans-34"/>
       <use xlink:href="#DejaVuSans-2e" x="63.623047"/>
       <use xlink:href="#DejaVuSans-35" x="95.410156"/>
      </g>
     </g>
    </g>
    <g id="ytick_11">
     <g id="line2d_30">
      <g>
       <use xlink:href="#m2a889579b6" x="394.363636" y="277.753846" style="stroke: #000000; stroke-width: 0.8"/>
      </g>
     </g>
     <g id="text_33">
      <!-- 5.0 -->
      <g transform="translate(364.463136 283.224721) scale(0.144 -0.144)">
       <use xlink:href="#DejaVuSans-35"/>
       <use xlink:href="#DejaVuSans-2e" x="63.623047"/>
       <use xlink:href="#DejaVuSans-30" x="95.410156"/>
      </g>
     </g>
    </g>
    <g id="ytick_12">
     <g id="line2d_31">
      <g>
       <use xlink:href="#m2a889579b6" x="394.363636" y="235.107692" style="stroke: #000000; stroke-width: 0.8"/>
      </g>
     </g>
     <g id="text_34">
      <!-- 5.5 -->
      <g transform="translate(364.463136 240.578567) scale(0.144 -0.144)">
       <use xlink:href="#DejaVuSans-35"/>
       <use xlink:href="#DejaVuSans-2e" x="63.623047"/>
       <use xlink:href="#DejaVuSans-35" x="95.410156"/>
      </g>
     </g>
    </g>
    <g id="ytick_13">
     <g id="line2d_32">
      <g>
       <use xlink:href="#m2a889579b6" x="394.363636" y="192.461538" style="stroke: #000000; stroke-width: 0.8"/>
      </g>
     </g>
     <g id="text_35">
      <!-- 6.0 -->
      <g transform="translate(364.463136 197.932413) scale(0.144 -0.144)">
       <use xlink:href="#DejaVuSans-36"/>
       <use xlink:href="#DejaVuSans-2e" x="63.623047"/>
       <use xlink:href="#DejaVuSans-30" x="95.410156"/>
      </g>
     </g>
    </g>
    <g id="ytick_14">
     <g id="line2d_33">
      <g>
       <use xlink:href="#m2a889579b6" x="394.363636" y="149.815385" style="stroke: #000000; stroke-width: 0.8"/>
      </g>
     </g>
     <g id="text_36">
      <!-- 6.5 -->
      <g transform="translate(364.463136 155.28626) scale(0.144 -0.144)">
       <use xlink:href="#DejaVuSans-36"/>
       <use xlink:href="#DejaVuSans-2e" x="63.623047"/>
       <use xlink:href="#DejaVuSans-35" x="95.410156"/>
      </g>
     </g>
    </g>
    <g id="ytick_15">
     <g id="line2d_34">
      <g>
       <use xlink:href="#m2a889579b6" x="394.363636" y="107.169231" style="stroke: #000000; stroke-width: 0.8"/>
      </g>
     </g>
     <g id="text_37">
      <!-- 7.0 -->
      <g transform="translate(364.463136 112.640106) scale(0.144 -0.144)">
       <use xlink:href="#DejaVuSans-37"/>
       <use xlink:href="#DejaVuSans-2e" x="63.623047"/>
       <use xlink:href="#DejaVuSans-30" x="95.410156"/>
      </g>
     </g>
    </g>
    <g id="ytick_16">
     <g id="line2d_35">
      <g>
       <use xlink:href="#m2a889579b6" x="394.363636" y="64.523077" style="stroke: #000000; stroke-width: 0.8"/>
      </g>
     </g>
     <g id="text_38">
      <!-- 7.5 -->
      <g transform="translate(364.463136 69.993952) scale(0.144 -0.144)">
       <use xlink:href="#DejaVuSans-37"/>
       <use xlink:href="#DejaVuSans-2e" x="63.623047"/>
       <use xlink:href="#DejaVuSans-35" x="95.410156"/>
      </g>
     </g>
    </g>
    <g id="text_39">
     <!-- Log10(CD8TE) -->
     <g transform="translate(356.470136 250.7895) rotate(-90) scale(0.192 -0.192)">
      <defs>
       <path id="DejaVuSans-43" d="M 4122 4306 
L 4122 3641 
Q 3803 3938 3442 4084 
Q 3081 4231 2675 4231 
Q 1875 4231 1450 3742 
Q 1025 3253 1025 2328 
Q 1025 1406 1450 917 
Q 1875 428 2675 428 
Q 3081 428 3442 575 
Q 3803 722 4122 1019 
L 4122 359 
Q 3791 134 3420 21 
Q 3050 -91 2638 -91 
Q 1578 -91 968 557 
Q 359 1206 359 2328 
Q 359 3453 968 4101 
Q 1578 4750 2638 4750 
Q 3056 4750 3426 4639 
Q 3797 4528 4122 4306 
z
" transform="scale(0.015625)"/>
       <path id="DejaVuSans-44" d="M 1259 4147 
L 1259 519 
L 2022 519 
Q 2988 519 3436 956 
Q 3884 1394 3884 2338 
Q 3884 3275 3436 3711 
Q 2988 4147 2022 4147 
L 1259 4147 
z
M 628 4666 
L 1925 4666 
Q 3281 4666 3915 4102 
Q 4550 3538 4550 2338 
Q 4550 1131 3912 565 
Q 3275 0 1925 0 
L 628 0 
L 628 4666 
z
" transform="scale(0.015625)"/>
       <path id="DejaVuSans-45" d="M 628 4666 
L 3578 4666 
L 3578 4134 
L 1259 4134 
L 1259 2753 
L 3481 2753 
L 3481 2222 
L 1259 2222 
L 1259 531 
L 3634 531 
L 3634 0 
L 628 0 
L 628 4666 
z
" transform="scale(0.015625)"/>
      </defs>
      <use xlink:href="#DejaVuSans-4c"/>
      <use xlink:href="#DejaVuSans-6f" x="53.962891"/>
      <use xlink:href="#DejaVuSans-67" x="115.144531"/>
      <use xlink:href="#DejaVuSans-31" x="178.621094"/>
      <use xlink:href="#DejaVuSans-30" x="242.244141"/>
      <use xlink:href="#DejaVuSans-28" x="305.867188"/>
      <use xlink:href="#DejaVuSans-43" x="344.880859"/>
      <use xlink:href="#DejaVuSans-44" x="414.705078"/>
      <use xlink:href="#DejaVuSans-38" x="491.707031"/>
      <use xlink:href="#DejaVuSans-54" x="555.330078"/>
      <use xlink:href="#DejaVuSans-45" x="616.414062"/>
      <use xlink:href="#DejaVuSans-29" x="679.597656"/>
     </g>
    </g>
   </g>
   <g id="patch_9">
    <path d="M 394.363636 320.4 
L 394.363636 43.2 
" style="fill: none; stroke: #000000; stroke-width: 0.8; stroke-linejoin: miter; stroke-linecap: square"/>
   </g>
   <g id="patch_10">
    <path d="M 648 320.4 
L 648 43.2 
" style="fill: none; stroke: #000000; stroke-width: 0.8; stroke-linejoin: miter; stroke-linecap: square"/>
   </g>
   <g id="patch_11">
    <path d="M 394.363636 320.4 
L 648 320.4 
" style="fill: none; stroke: #000000; stroke-width: 0.8; stroke-linejoin: miter; stroke-linecap: square"/>
   </g>
   <g id="patch_12">
    <path d="M 394.363636 43.2 
L 648 43.2 
" style="fill: none; stroke: #000000; stroke-width: 0.8; stroke-linejoin: miter; stroke-linecap: square"/>
   </g>
   <g id="PolyCollection_2">
    <defs>
     <path id="m31dedf0491" d="M 397.456763 -147.085784 
L 397.456763 -147.085784 
L 397.457571 -147.085784 
L 397.465657 -147.085784 
L 397.546511 -147.085784 
L 397.890985 -147.085784 
L 398.107878 -147.085784 
L 398.888829 -147.085784 
L 399.318797 -147.085784 
L 400.80925 -147.085784 
L 401.594224 -147.085784 
L 404.132131 -147.085784 
L 405.250301 -147.085784 
L 408.343427 -147.085784 
L 409.738022 -147.085784 
L 412.831148 -147.085784 
L 414.495836 -147.085784 
L 417.588962 -147.085784 
L 419.511041 -147.085784 
L 422.604168 -147.085784 
L 424.765306 -147.085784 
L 427.858432 -147.085784 
L 430.235773 -147.085785 
L 433.3289 -147.085786 
L 435.898537 -147.085788 
L 438.64888 -147.085793 
L 441.512289 -147.085801 
L 444.541981 -147.085819 
L 447.635108 -147.085851 
L 450.728234 -147.085907 
L 453.82136 -147.086002 
L 456.914487 -147.086157 
L 460.007613 -147.086403 
L 463.10074 -147.086785 
L 466.193866 -147.08737 
L 469.286992 -147.088249 
L 472.380119 -147.089555 
L 475.473245 -147.091473 
L 478.566371 -147.094265 
L 481.659498 -147.098298 
L 484.752624 -147.103947 
L 487.845751 -147.112011 
L 490.938877 -147.123563 
L 494.032003 -147.140331 
L 497.12513 -147.163469 
L 500.218256 -147.195759 
L 503.311383 -147.240517 
L 506.404509 -147.302087 
L 509.497635 -147.386111 
L 512.590762 -147.499564 
L 515.683888 -147.651088 
L 518.777014 -147.851239 
L 521.870141 -148.112311 
L 524.963267 -148.448278 
L 528.056394 -148.874481 
L 531.14952 -149.393544 
L 531.273245 -149.416934 
L 531.520695 -149.464513 
L 531.558462 -149.47189 
L 531.624029 -149.484748 
L 531.65033 -149.489918 
L 531.66182 -149.492176 
L 531.670993 -149.493986 
L 531.68265 -149.496294 
L 531.694306 -149.498602 
L 531.721044 -149.503896 
L 531.782542 -149.516073 
L 531.932227 -149.546069 
L 532.305693 -149.622516 
L 533.409208 -149.858198 
L 534.186546 -150.034375 
L 536.015646 -150.485114 
L 537.114127 -150.776102 
L 539.483918 -151.48086 
L 540.827944 -151.91284 
L 543.507553 -152.886811 
L 545.030555 -153.484426 
L 547.848227 -154.721138 
L 549.502233 -155.499178 
L 552.055135 -156.810305 
L 553.8472 -157.791105 
L 556.485287 -159.326737 
L 558.392357 -160.503226 
L 561.128846 -162.267025 
L 563.204003 -163.666947 
L 566.26676 -165.798031 
L 568.768573 -167.595675 
L 571.8617 -169.853193 
L 574.954826 -172.134073 
L 578.047952 -174.415467 
L 581.141079 -176.672134 
L 584.234205 -178.889581 
L 587.327332 -181.05155 
L 590.420458 -183.144219 
L 593.513584 -185.156138 
L 596.606711 -187.078085 
L 599.699837 -188.902872 
L 602.792964 -190.625136 
L 605.88609 -192.241121 
L 608.979216 -193.748467 
L 612.072343 -195.146012 
L 615.165469 -195.978347 
L 615.784094 -196.124295 
L 618.877221 -196.745373 
L 620.075594 -196.968974 
L 623.168721 -197.42449 
L 625.176655 -197.67522 
L 628.269782 -197.956941 
L 631.362908 -198.14248 
L 634.456034 -198.216871 
L 637.549161 -198.128816 
L 640.642287 -197.952702 
L 643.735413 -197.695305 
L 644.906874 -197.577642 
L 644.906874 -205.322696 
L 644.906874 -205.322696 
L 643.735413 -205.248962 
L 640.642287 -205.007476 
L 637.549161 -204.698096 
L 634.456034 -204.440634 
L 631.362908 -204.092042 
L 628.269782 -203.647598 
L 625.176655 -203.102658 
L 623.168721 -202.693182 
L 620.075594 -201.97243 
L 618.877221 -201.663794 
L 615.784094 -200.786187 
L 615.165469 -200.597682 
L 612.072343 -199.578735 
L 608.979216 -198.439626 
L 605.88609 -197.176955 
L 602.792964 -195.788965 
L 599.699837 -194.274834 
L 596.606711 -192.634872 
L 593.513584 -191.027166 
L 590.420458 -189.422719 
L 587.327332 -187.682214 
L 584.234205 -185.810833 
L 581.141079 -183.816124 
L 578.047952 -181.708326 
L 574.954826 -179.500681 
L 571.8617 -177.209691 
L 568.768573 -174.855438 
L 566.26676 -172.920245 
L 563.204003 -170.535817 
L 561.128846 -168.923742 
L 558.392357 -166.81913 
L 556.485287 -165.378206 
L 553.8472 -163.435754 
L 552.055135 -162.158101 
L 549.502233 -160.41273 
L 547.848227 -159.330146 
L 545.030555 -157.590599 
L 543.507553 -156.710369 
L 540.827944 -155.27342 
L 539.483918 -154.602319 
L 537.114127 -153.516195 
L 536.015646 -153.045229 
L 534.186546 -152.325545 
L 533.409208 -152.033033 
L 532.305693 -151.647119 
L 531.932227 -151.519733 
L 531.782542 -151.468677 
L 531.721044 -151.447709 
L 531.694306 -151.439004 
L 531.68265 -151.435209 
L 531.670993 -151.431414 
L 531.66182 -151.428427 
L 531.65033 -151.424687 
L 531.624029 -151.416124 
L 531.558462 -151.394777 
L 531.520695 -151.382481 
L 531.273245 -151.301974 
L 531.14952 -151.262406 
L 528.056394 -150.381722 
L 524.963267 -149.639795 
L 521.870141 -149.041 
L 518.777014 -148.565686 
L 515.683888 -148.192678 
L 512.590762 -147.905324 
L 509.497635 -147.685282 
L 506.404509 -147.523335 
L 503.311383 -147.402742 
L 500.218256 -147.313959 
L 497.12513 -147.249108 
L 494.032003 -147.202057 
L 490.938877 -147.168191 
L 487.845751 -147.143809 
L 484.752624 -147.126776 
L 481.659498 -147.114336 
L 478.566371 -147.105517 
L 475.473245 -147.099297 
L 472.380119 -147.094938 
L 469.286992 -147.091907 
L 466.193866 -147.089819 
L 463.10074 -147.088396 
L 460.007613 -147.087441 
L 456.914487 -147.08681 
L 453.82136 -147.086402 
L 450.728234 -147.086144 
L 447.635108 -147.085987 
L 444.541981 -147.085893 
L 441.512289 -147.085841 
L 438.64888 -147.085813 
L 435.898537 -147.085798 
L 433.3289 -147.085791 
L 430.235773 -147.085787 
L 427.858432 -147.085785 
L 424.765306 -147.085784 
L 422.604168 -147.085784 
L 419.511041 -147.085784 
L 417.588962 -147.085784 
L 414.495836 -147.085784 
L 412.831148 -147.085784 
L 409.738022 -147.085784 
L 408.343427 -147.085784 
L 405.250301 -147.085784 
L 404.132131 -147.085784 
L 401.594224 -147.085784 
L 400.80925 -147.085784 
L 399.318797 -147.085784 
L 398.888829 -147.085784 
L 398.107878 -147.085784 
L 397.890985 -147.085784 
L 397.546511 -147.085784 
L 397.465657 -147.085784 
L 397.457571 -147.085784 
L 397.456763 -147.085784 
z
" style="stroke: #ffff00; stroke-opacity: 0.2"/>
    </defs>
    <g clip-path="url(#pb2dad095d1)">
     <use xlink:href="#m31dedf0491" x="0" y="360" style="fill: #ffff00; fill-opacity: 0.2; stroke: #ffff00; stroke-opacity: 0.2"/>
    </g>
   </g>
   <g id="legend_2">
    <g id="patch_13">
     <path d="M 536.472 86.742 
L 634.56 86.742 
Q 638.4 86.742 638.4 82.902 
L 638.4 56.64 
Q 638.4 52.8 634.56 52.8 
L 536.472 52.8 
Q 532.632 52.8 532.632 56.64 
L 532.632 82.902 
Q 532.632 86.742 536.472 86.742 
z
" style="fill: #ffffff; opacity: 0.8; stroke: #cccccc; stroke-linejoin: miter"/>
    </g>
    <g id="PathCollection_3">
     <g>
      <use xlink:href="#mba8cc72c38" x="559.512" y="70.029" style="fill: #ffff00; fill-opacity: 0.8; stroke: #000000; stroke-opacity: 0.8"/>
     </g>
    </g>
    <g id="text_40">
     <!-- 112 -->
     <g transform="translate(594.072 75.069) scale(0.192 -0.192)">
      <use xlink:href="#DejaVuSans-31"/>
      <use xlink:href="#DejaVuSans-31" x="63.623047"/>
      <use xlink:href="#DejaVuSans-32" x="127.246094"/>
     </g>
    </g>
   </g>
   <g id="PathCollection_4">
    <g clip-path="url(#pb2dad095d1)">
     <use xlink:href="#mba8cc72c38" x="397.456763" y="212.914216" style="fill: #ffff00; fill-opacity: 0.8; stroke: #000000; stroke-opacity: 0.8"/>
     <use xlink:href="#mba8cc72c38" x="459.31929" y="172.350651" style="fill: #ffff00; fill-opacity: 0.8; stroke: #000000; stroke-opacity: 0.8"/>
     <use xlink:href="#mba8cc72c38" x="490.250554" y="162.025371" style="fill: #ffff00; fill-opacity: 0.8; stroke: #000000; stroke-opacity: 0.8"/>
     <use xlink:href="#mba8cc72c38" x="521.181818" y="185.370985" style="fill: #ffff00; fill-opacity: 0.8; stroke: #000000; stroke-opacity: 0.8"/>
     <use xlink:href="#mba8cc72c38" x="552.113082" y="201.232556" style="fill: #ffff00; fill-opacity: 0.8; stroke: #000000; stroke-opacity: 0.8"/>
     <use xlink:href="#mba8cc72c38" x="583.044346" y="176.298185" style="fill: #ffff00; fill-opacity: 0.8; stroke: #000000; stroke-opacity: 0.8"/>
    </g>
   </g>
   <g id="line2d_36">
    <path d="M 397.456763 212.914216 
L 397.457571 212.914216 
L 397.465657 212.914216 
L 397.546511 212.914216 
L 397.890985 212.914216 
L 398.107878 212.914216 
L 398.888829 212.914216 
L 399.318797 212.914216 
L 400.80925 212.914216 
L 401.594224 212.914216 
L 404.132131 212.914216 
L 405.250301 212.914216 
L 408.343427 212.914216 
L 409.738022 212.914216 
L 412.831148 212.914216 
L 414.495836 212.914216 
L 417.588962 212.914216 
L 419.511041 212.914216 
L 422.604168 212.914216 
L 424.765306 212.914216 
L 427.858432 212.914215 
L 430.235773 212.914215 
L 433.3289 212.914212 
L 435.898537 212.914209 
L 438.64888 212.914201 
L 441.512289 212.914186 
L 444.541981 212.914158 
L 447.635108 212.914105 
L 450.728234 212.914014 
L 453.82136 212.913863 
L 456.914487 212.913619 
L 460.007613 212.913234 
L 463.10074 212.912641 
L 466.193866 212.911743 
L 469.286992 212.910403 
L 472.380119 212.908432 
L 475.473245 212.905558 
L 478.566371 212.901407 
L 481.659498 212.895453 
L 484.752624 212.886964 
L 487.845751 212.874926 
L 490.938877 212.857945 
L 494.032003 212.834111 
L 497.12513 212.800839 
L 500.218256 212.754669 
L 503.311383 212.691035 
L 506.404509 212.604007 
L 509.497635 212.486036 
L 512.590762 212.327712 
L 515.683888 212.117599 
L 518.777014 211.842177 
L 521.870141 211.485972 
L 524.963267 211.031909 
L 528.056394 210.461955 
L 531.14952 209.758036 
L 531.273245 209.726889 
L 531.520695 209.663864 
L 531.558462 209.654159 
L 531.624029 209.637256 
L 531.65033 209.630457 
L 531.66182 209.627483 
L 531.670993 209.625107 
L 531.68265 209.622086 
L 531.694306 209.619063 
L 531.721044 209.61212 
L 531.782542 209.596107 
L 531.932227 209.556877 
L 532.305693 209.45741 
L 533.409208 209.150001 
L 534.186546 208.921127 
L 536.015646 208.34083 
L 537.114127 207.963584 
L 539.483918 207.073415 
L 540.827944 206.5217 
L 543.507553 205.318529 
L 545.030555 204.574067 
L 547.848227 203.082648 
L 549.502233 202.141008 
L 552.055135 200.597004 
L 553.8472 199.452356 
L 556.485287 197.685623 
L 558.392357 196.355355 
L 561.128846 194.382253 
L 563.204003 192.845773 
L 566.26676 190.53437 
L 568.768573 188.62389 
L 571.8617 186.256641 
L 574.954826 183.906388 
L 578.047952 181.595248 
L 581.141079 179.342541 
L 584.234205 177.164686 
L 587.327332 175.075259 
L 590.420458 173.085151 
L 593.513584 171.202795 
L 596.606711 169.434425 
L 599.699837 167.784346 
L 602.792964 166.255193 
L 605.88609 164.848178 
L 608.979216 163.563314 
L 612.072343 162.399614 
L 615.165469 161.355264 
L 615.784094 161.160464 
L 618.877221 160.256014 
L 620.075594 159.936159 
L 623.168721 159.187817 
L 625.176655 158.76015 
L 628.269782 158.188122 
L 631.362908 157.717623 
L 634.456034 157.344375 
L 637.549161 157.06398 
L 640.642287 156.871968 
L 643.735413 156.763833 
L 644.906874 156.7439 
" clip-path="url(#pb2dad095d1)" style="fill: none; stroke: #ffff00; stroke-width: 1.5; stroke-linecap: square"/>
   </g>
  </g>
 </g>
 <defs>
  <clipPath id="p6a2eefd06b">
   <rect x="90" y="43.2" width="253.636364" height="277.2"/>
  </clipPath>
  <clipPath id="pb2dad095d1">
   <rect x="394.363636" y="43.2" width="253.636364" height="277.2"/>
  </clipPath>
 </defs>
</svg>
