<?xml version="1.0" encoding="utf-8" standalone="no"?>
<!DOCTYPE svg PUBLIC "-//W3C//DTD SVG 1.1//EN"
  "http://www.w3.org/Graphics/SVG/1.1/DTD/svg11.dtd">
<svg xmlns:xlink="http://www.w3.org/1999/xlink" width="720pt" height="360pt" viewBox="0 0 720 360" xmlns="http://www.w3.org/2000/svg" version="1.1">
 <metadata>
  <rdf:RDF xmlns:dc="http://purl.org/dc/elements/1.1/" xmlns:cc="http://creativecommons.org/ns#" xmlns:rdf="http://www.w3.org/1999/02/22-rdf-syntax-ns#">
   <cc:Work>
    <dc:type rdf:resource="http://purl.org/dc/dcmitype/StillImage"/>
    <dc:date>2024-11-26T15:37:54.121689</dc:date>
    <dc:format>image/svg+xml</dc:format>
    <dc:creator>
     <cc:Agent>
      <dc:title>Matplotlib v3.9.2, https://matplotlib.org/</dc:title>
     </cc:Agent>
    </dc:creator>
   </cc:Work>
  </rdf:RDF>
 </metadata>
 <defs>
  <style type="text/css">*{stroke-linejoin: round; stroke-linecap: butt}</style>
 </defs>
 <g id="figure_1">
  <g id="patch_1">
   <path d="M 0 360 
L 720 360 
L 720 0 
L 0 0 
z
" style="fill: #ffffff"/>
  </g>
  <g id="axes_1">
   <g id="patch_2">
    <path d="M 90 320.4 
L 327.272727 320.4 
L 327.272727 43.2 
L 90 43.2 
z
" style="fill: #ffffff"/>
   </g>
   <g id="matplotlib.axis_1">
    <g id="xtick_1">
     <g id="text_1">
      <!-- 0 -->
      <g style="fill: #262626" transform="translate(88.889695 340.20725) scale(0.144 -0.144)">
       <defs>
        <path id="ArialMT-30" d="M 266 2259 
Q 266 3072 433 3567 
Q 600 4063 929 4331 
Q 1259 4600 1759 4600 
Q 2128 4600 2406 4451 
Q 2684 4303 2865 4023 
Q 3047 3744 3150 3342 
Q 3253 2941 3253 2259 
Q 3253 1453 3087 958 
Q 2922 463 2592 192 
Q 2263 -78 1759 -78 
Q 1097 -78 719 397 
Q 266 969 266 2259 
z
M 844 2259 
Q 844 1131 1108 757 
Q 1372 384 1759 384 
Q 2147 384 2411 759 
Q 2675 1134 2675 2259 
Q 2675 3391 2411 3762 
Q 2147 4134 1753 4134 
Q 1366 4134 1134 3806 
Q 844 3388 844 2259 
z
" transform="scale(0.015625)"/>
       </defs>
       <use xlink:href="#ArialMT-30"/>
      </g>
     </g>
    </g>
    <g id="xtick_2">
     <g id="text_2">
      <!-- 1 -->
      <g style="fill: #262626" transform="translate(117.825393 340.20725) scale(0.144 -0.144)">
       <defs>
        <path id="ArialMT-31" d="M 2384 0 
L 1822 0 
L 1822 3584 
Q 1619 3391 1289 3197 
Q 959 3003 697 2906 
L 697 3450 
Q 1169 3672 1522 3987 
Q 1875 4303 2022 4600 
L 2384 4600 
L 2384 0 
z
" transform="scale(0.015625)"/>
       </defs>
       <use xlink:href="#ArialMT-31"/>
      </g>
     </g>
    </g>
    <g id="xtick_3">
     <g id="text_3">
      <!-- 2 -->
      <g style="fill: #262626" transform="translate(146.761092 340.20725) scale(0.144 -0.144)">
       <defs>
        <path id="ArialMT-32" d="M 3222 541 
L 3222 0 
L 194 0 
Q 188 203 259 391 
Q 375 700 629 1000 
Q 884 1300 1366 1694 
Q 2113 2306 2375 2664 
Q 2638 3022 2638 3341 
Q 2638 3675 2398 3904 
Q 2159 4134 1775 4134 
Q 1369 4134 1125 3890 
Q 881 3647 878 3216 
L 300 3275 
Q 359 3922 746 4261 
Q 1134 4600 1788 4600 
Q 2447 4600 2831 4234 
Q 3216 3869 3216 3328 
Q 3216 3053 3103 2787 
Q 2991 2522 2730 2228 
Q 2469 1934 1863 1422 
Q 1356 997 1212 845 
Q 1069 694 975 541 
L 3222 541 
z
" transform="scale(0.015625)"/>
       </defs>
       <use xlink:href="#ArialMT-32"/>
      </g>
     </g>
    </g>
    <g id="xtick_4">
     <g id="text_4">
      <!-- 3 -->
      <g style="fill: #262626" transform="translate(175.69679 340.20725) scale(0.144 -0.144)">
       <defs>
        <path id="ArialMT-33" d="M 269 1209 
L 831 1284 
Q 928 806 1161 595 
Q 1394 384 1728 384 
Q 2125 384 2398 659 
Q 2672 934 2672 1341 
Q 2672 1728 2419 1979 
Q 2166 2231 1775 2231 
Q 1616 2231 1378 2169 
L 1441 2663 
Q 1497 2656 1531 2656 
Q 1891 2656 2178 2843 
Q 2466 3031 2466 3422 
Q 2466 3731 2256 3934 
Q 2047 4138 1716 4138 
Q 1388 4138 1169 3931 
Q 950 3725 888 3313 
L 325 3413 
Q 428 3978 793 4289 
Q 1159 4600 1703 4600 
Q 2078 4600 2393 4439 
Q 2709 4278 2876 4000 
Q 3044 3722 3044 3409 
Q 3044 3113 2884 2869 
Q 2725 2625 2413 2481 
Q 2819 2388 3044 2092 
Q 3269 1797 3269 1353 
Q 3269 753 2831 336 
Q 2394 -81 1725 -81 
Q 1122 -81 723 278 
Q 325 638 269 1209 
z
" transform="scale(0.015625)"/>
       </defs>
       <use xlink:href="#ArialMT-33"/>
      </g>
     </g>
    </g>
    <g id="xtick_5">
     <g id="text_5">
      <!-- 4 -->
      <g style="fill: #262626" transform="translate(204.632489 340.20725) scale(0.144 -0.144)">
       <defs>
        <path id="ArialMT-34" d="M 2069 0 
L 2069 1097 
L 81 1097 
L 81 1613 
L 2172 4581 
L 2631 4581 
L 2631 1613 
L 3250 1613 
L 3250 1097 
L 2631 1097 
L 2631 0 
L 2069 0 
z
M 2069 1613 
L 2069 3678 
L 634 1613 
L 2069 1613 
z
" transform="scale(0.015625)"/>
       </defs>
       <use xlink:href="#ArialMT-34"/>
      </g>
     </g>
    </g>
    <g id="xtick_6">
     <g id="text_6">
      <!-- 5 -->
      <g style="fill: #262626" transform="translate(233.568187 340.20725) scale(0.144 -0.144)">
       <defs>
        <path id="ArialMT-35" d="M 266 1200 
L 856 1250 
Q 922 819 1161 601 
Q 1400 384 1738 384 
Q 2144 384 2425 690 
Q 2706 997 2706 1503 
Q 2706 1984 2436 2262 
Q 2166 2541 1728 2541 
Q 1456 2541 1237 2417 
Q 1019 2294 894 2097 
L 366 2166 
L 809 4519 
L 3088 4519 
L 3088 3981 
L 1259 3981 
L 1013 2750 
Q 1425 3038 1878 3038 
Q 2478 3038 2890 2622 
Q 3303 2206 3303 1553 
Q 3303 931 2941 478 
Q 2500 -78 1738 -78 
Q 1113 -78 717 272 
Q 322 622 266 1200 
z
" transform="scale(0.015625)"/>
       </defs>
       <use xlink:href="#ArialMT-35"/>
      </g>
     </g>
    </g>
    <g id="xtick_7">
     <g id="text_7">
      <!-- 6 -->
      <g style="fill: #262626" transform="translate(262.503886 340.20725) scale(0.144 -0.144)">
       <defs>
        <path id="ArialMT-36" d="M 3184 3459 
L 2625 3416 
Q 2550 3747 2413 3897 
Q 2184 4138 1850 4138 
Q 1581 4138 1378 3988 
Q 1113 3794 959 3422 
Q 806 3050 800 2363 
Q 1003 2672 1297 2822 
Q 1591 2972 1913 2972 
Q 2475 2972 2870 2558 
Q 3266 2144 3266 1488 
Q 3266 1056 3080 686 
Q 2894 316 2569 119 
Q 2244 -78 1831 -78 
Q 1128 -78 684 439 
Q 241 956 241 2144 
Q 241 3472 731 4075 
Q 1159 4600 1884 4600 
Q 2425 4600 2770 4297 
Q 3116 3994 3184 3459 
z
M 888 1484 
Q 888 1194 1011 928 
Q 1134 663 1356 523 
Q 1578 384 1822 384 
Q 2178 384 2434 671 
Q 2691 959 2691 1453 
Q 2691 1928 2437 2201 
Q 2184 2475 1800 2475 
Q 1419 2475 1153 2201 
Q 888 1928 888 1484 
z
" transform="scale(0.015625)"/>
       </defs>
       <use xlink:href="#ArialMT-36"/>
      </g>
     </g>
    </g>
    <g id="xtick_8">
     <g id="text_8">
      <!-- 7 -->
      <g style="fill: #262626" transform="translate(291.439584 340.20725) scale(0.144 -0.144)">
       <defs>
        <path id="ArialMT-37" d="M 303 3981 
L 303 4522 
L 3269 4522 
L 3269 4084 
Q 2831 3619 2401 2847 
Q 1972 2075 1738 1259 
Q 1569 684 1522 0 
L 944 0 
Q 953 541 1156 1306 
Q 1359 2072 1739 2783 
Q 2119 3494 2547 3981 
L 303 3981 
z
" transform="scale(0.015625)"/>
       </defs>
       <use xlink:href="#ArialMT-37"/>
      </g>
     </g>
    </g>
    <g id="xtick_9">
     <g id="text_9">
      <!-- 8 -->
      <g style="fill: #262626" transform="translate(320.375282 340.20725) scale(0.144 -0.144)">
       <defs>
        <path id="ArialMT-38" d="M 1131 2484 
Q 781 2613 612 2850 
Q 444 3088 444 3419 
Q 444 3919 803 4259 
Q 1163 4600 1759 4600 
Q 2359 4600 2725 4251 
Q 3091 3903 3091 3403 
Q 3091 3084 2923 2848 
Q 2756 2613 2416 2484 
Q 2838 2347 3058 2040 
Q 3278 1734 3278 1309 
Q 3278 722 2862 322 
Q 2447 -78 1769 -78 
Q 1091 -78 675 323 
Q 259 725 259 1325 
Q 259 1772 486 2073 
Q 713 2375 1131 2484 
z
M 1019 3438 
Q 1019 3113 1228 2906 
Q 1438 2700 1772 2700 
Q 2097 2700 2305 2904 
Q 2513 3109 2513 3406 
Q 2513 3716 2298 3927 
Q 2084 4138 1766 4138 
Q 1444 4138 1231 3931 
Q 1019 3725 1019 3438 
z
M 838 1322 
Q 838 1081 952 856 
Q 1066 631 1291 507 
Q 1516 384 1775 384 
Q 2178 384 2440 643 
Q 2703 903 2703 1303 
Q 2703 1709 2433 1975 
Q 2163 2241 1756 2241 
Q 1359 2241 1098 1978 
Q 838 1716 838 1322 
z
" transform="scale(0.015625)"/>
       </defs>
       <use xlink:href="#ArialMT-38"/>
      </g>
     </g>
    </g>
    <g id="text_10">
     <!-- Time (d) -->
     <g style="fill: #262626" transform="translate(173.266364 361.04625) scale(0.192 -0.192)">
      <defs>
       <path id="ArialMT-54" d="M 1659 0 
L 1659 4041 
L 150 4041 
L 150 4581 
L 3781 4581 
L 3781 4041 
L 2266 4041 
L 2266 0 
L 1659 0 
z
" transform="scale(0.015625)"/>
       <path id="ArialMT-69" d="M 425 3934 
L 425 4581 
L 988 4581 
L 988 3934 
L 425 3934 
z
M 425 0 
L 425 3319 
L 988 3319 
L 988 0 
L 425 0 
z
" transform="scale(0.015625)"/>
       <path id="ArialMT-6d" d="M 422 0 
L 422 3319 
L 925 3319 
L 925 2853 
Q 1081 3097 1340 3245 
Q 1600 3394 1931 3394 
Q 2300 3394 2536 3241 
Q 2772 3088 2869 2813 
Q 3263 3394 3894 3394 
Q 4388 3394 4653 3120 
Q 4919 2847 4919 2278 
L 4919 0 
L 4359 0 
L 4359 2091 
Q 4359 2428 4304 2576 
Q 4250 2725 4106 2815 
Q 3963 2906 3769 2906 
Q 3419 2906 3187 2673 
Q 2956 2441 2956 1928 
L 2956 0 
L 2394 0 
L 2394 2156 
Q 2394 2531 2256 2718 
Q 2119 2906 1806 2906 
Q 1569 2906 1367 2781 
Q 1166 2656 1075 2415 
Q 984 2175 984 1722 
L 984 0 
L 422 0 
z
" transform="scale(0.015625)"/>
       <path id="ArialMT-65" d="M 2694 1069 
L 3275 997 
Q 3138 488 2766 206 
Q 2394 -75 1816 -75 
Q 1088 -75 661 373 
Q 234 822 234 1631 
Q 234 2469 665 2931 
Q 1097 3394 1784 3394 
Q 2450 3394 2872 2941 
Q 3294 2488 3294 1666 
Q 3294 1616 3291 1516 
L 816 1516 
Q 847 969 1125 678 
Q 1403 388 1819 388 
Q 2128 388 2347 550 
Q 2566 713 2694 1069 
z
M 847 1978 
L 2700 1978 
Q 2663 2397 2488 2606 
Q 2219 2931 1791 2931 
Q 1403 2931 1139 2672 
Q 875 2413 847 1978 
z
" transform="scale(0.015625)"/>
       <path id="ArialMT-20" transform="scale(0.015625)"/>
       <path id="ArialMT-28" d="M 1497 -1347 
Q 1031 -759 709 28 
Q 388 816 388 1659 
Q 388 2403 628 3084 
Q 909 3875 1497 4659 
L 1900 4659 
Q 1522 4009 1400 3731 
Q 1209 3300 1100 2831 
Q 966 2247 966 1656 
Q 966 153 1900 -1347 
L 1497 -1347 
z
" transform="scale(0.015625)"/>
       <path id="ArialMT-64" d="M 2575 0 
L 2575 419 
Q 2259 -75 1647 -75 
Q 1250 -75 917 144 
Q 584 363 401 755 
Q 219 1147 219 1656 
Q 219 2153 384 2558 
Q 550 2963 881 3178 
Q 1213 3394 1622 3394 
Q 1922 3394 2156 3267 
Q 2391 3141 2538 2938 
L 2538 4581 
L 3097 4581 
L 3097 0 
L 2575 0 
z
M 797 1656 
Q 797 1019 1065 703 
Q 1334 388 1700 388 
Q 2069 388 2326 689 
Q 2584 991 2584 1609 
Q 2584 2291 2321 2609 
Q 2059 2928 1675 2928 
Q 1300 2928 1048 2622 
Q 797 2316 797 1656 
z
" transform="scale(0.015625)"/>
       <path id="ArialMT-29" d="M 791 -1347 
L 388 -1347 
Q 1322 153 1322 1656 
Q 1322 2244 1188 2822 
Q 1081 3291 891 3722 
Q 769 4003 388 4659 
L 791 4659 
Q 1378 3875 1659 3084 
Q 1900 2403 1900 1659 
Q 1900 816 1576 28 
Q 1253 -759 791 -1347 
z
" transform="scale(0.015625)"/>
      </defs>
      <use xlink:href="#ArialMT-54"/>
      <use xlink:href="#ArialMT-69" x="57.333984"/>
      <use xlink:href="#ArialMT-6d" x="79.550781"/>
      <use xlink:href="#ArialMT-65" x="162.851562"/>
      <use xlink:href="#ArialMT-20" x="218.466797"/>
      <use xlink:href="#ArialMT-28" x="246.25"/>
      <use xlink:href="#ArialMT-64" x="279.550781"/>
      <use xlink:href="#ArialMT-29" x="335.166016"/>
     </g>
    </g>
   </g>
   <g id="matplotlib.axis_2">
    <g id="ytick_1">
     <g id="text_11">
      <!-- 0 -->
      <g style="fill: #262626" transform="translate(72.49225 325.553625) scale(0.144 -0.144)">
       <use xlink:href="#ArialMT-30"/>
      </g>
     </g>
    </g>
    <g id="ytick_2">
     <g id="text_12">
      <!-- 1 -->
      <g style="fill: #262626" transform="translate(72.49225 291.953625) scale(0.144 -0.144)">
       <use xlink:href="#ArialMT-31"/>
      </g>
     </g>
    </g>
    <g id="ytick_3">
     <g id="text_13">
      <!-- 2 -->
      <g style="fill: #262626" transform="translate(72.49225 258.353625) scale(0.144 -0.144)">
       <use xlink:href="#ArialMT-32"/>
      </g>
     </g>
    </g>
    <g id="ytick_4">
     <g id="text_14">
      <!-- 3 -->
      <g style="fill: #262626" transform="translate(72.49225 224.753625) scale(0.144 -0.144)">
       <use xlink:href="#ArialMT-33"/>
      </g>
     </g>
    </g>
    <g id="ytick_5">
     <g id="text_15">
      <!-- 4 -->
      <g style="fill: #262626" transform="translate(72.49225 191.153625) scale(0.144 -0.144)">
       <use xlink:href="#ArialMT-34"/>
      </g>
     </g>
    </g>
    <g id="ytick_6">
     <g id="text_16">
      <!-- 5 -->
      <g style="fill: #262626" transform="translate(72.49225 157.553625) scale(0.144 -0.144)">
       <use xlink:href="#ArialMT-35"/>
      </g>
     </g>
    </g>
    <g id="ytick_7">
     <g id="text_17">
      <!-- 6 -->
      <g style="fill: #262626" transform="translate(72.49225 123.953625) scale(0.144 -0.144)">
       <use xlink:href="#ArialMT-36"/>
      </g>
     </g>
    </g>
    <g id="ytick_8">
     <g id="text_18">
      <!-- 7 -->
      <g style="fill: #262626" transform="translate(72.49225 90.353625) scale(0.144 -0.144)">
       <use xlink:href="#ArialMT-37"/>
      </g>
     </g>
    </g>
    <g id="ytick_9">
     <g id="text_19">
      <!-- 8 -->
      <g style="fill: #262626" transform="translate(72.49225 56.753625) scale(0.144 -0.144)">
       <use xlink:href="#ArialMT-38"/>
      </g>
     </g>
    </g>
    <g id="text_20">
     <!-- Log10(V) -->
     <g style="fill: #262626" transform="translate(64.45125 221.289) rotate(-90) scale(0.192 -0.192)">
      <defs>
       <path id="ArialMT-4c" d="M 469 0 
L 469 4581 
L 1075 4581 
L 1075 541 
L 3331 541 
L 3331 0 
L 469 0 
z
" transform="scale(0.015625)"/>
       <path id="ArialMT-6f" d="M 213 1659 
Q 213 2581 725 3025 
Q 1153 3394 1769 3394 
Q 2453 3394 2887 2945 
Q 3322 2497 3322 1706 
Q 3322 1066 3130 698 
Q 2938 331 2570 128 
Q 2203 -75 1769 -75 
Q 1072 -75 642 372 
Q 213 819 213 1659 
z
M 791 1659 
Q 791 1022 1069 705 
Q 1347 388 1769 388 
Q 2188 388 2466 706 
Q 2744 1025 2744 1678 
Q 2744 2294 2464 2611 
Q 2184 2928 1769 2928 
Q 1347 2928 1069 2612 
Q 791 2297 791 1659 
z
" transform="scale(0.015625)"/>
       <path id="ArialMT-67" d="M 319 -275 
L 866 -356 
Q 900 -609 1056 -725 
Q 1266 -881 1628 -881 
Q 2019 -881 2231 -725 
Q 2444 -569 2519 -288 
Q 2563 -116 2559 434 
Q 2191 0 1641 0 
Q 956 0 581 494 
Q 206 988 206 1678 
Q 206 2153 378 2554 
Q 550 2956 876 3175 
Q 1203 3394 1644 3394 
Q 2231 3394 2613 2919 
L 2613 3319 
L 3131 3319 
L 3131 450 
Q 3131 -325 2973 -648 
Q 2816 -972 2473 -1159 
Q 2131 -1347 1631 -1347 
Q 1038 -1347 672 -1080 
Q 306 -813 319 -275 
z
M 784 1719 
Q 784 1066 1043 766 
Q 1303 466 1694 466 
Q 2081 466 2343 764 
Q 2606 1063 2606 1700 
Q 2606 2309 2336 2618 
Q 2066 2928 1684 2928 
Q 1309 2928 1046 2623 
Q 784 2319 784 1719 
z
" transform="scale(0.015625)"/>
       <path id="ArialMT-56" d="M 1803 0 
L 28 4581 
L 684 4581 
L 1875 1253 
Q 2019 853 2116 503 
Q 2222 878 2363 1253 
L 3600 4581 
L 4219 4581 
L 2425 0 
L 1803 0 
z
" transform="scale(0.015625)"/>
      </defs>
      <use xlink:href="#ArialMT-4c"/>
      <use xlink:href="#ArialMT-6f" x="55.615234"/>
      <use xlink:href="#ArialMT-67" x="111.230469"/>
      <use xlink:href="#ArialMT-31" x="166.845703"/>
      <use xlink:href="#ArialMT-30" x="222.460938"/>
      <use xlink:href="#ArialMT-28" x="278.076172"/>
      <use xlink:href="#ArialMT-56" x="311.376953"/>
      <use xlink:href="#ArialMT-29" x="378.076172"/>
     </g>
    </g>
   </g>
   <g id="patch_3">
    <path d="M 90 320.4 
L 90 43.2 
" style="fill: none; stroke: #262626; stroke-width: 1.25; stroke-linejoin: miter; stroke-linecap: square"/>
   </g>
   <g id="patch_4">
    <path d="M 327.272727 320.4 
L 327.272727 43.2 
" style="fill: none; stroke: #262626; stroke-width: 1.25; stroke-linejoin: miter; stroke-linecap: square"/>
   </g>
   <g id="patch_5">
    <path d="M 90 320.4 
L 327.272727 320.4 
" style="fill: none; stroke: #262626; stroke-width: 1.25; stroke-linejoin: miter; stroke-linecap: square"/>
   </g>
   <g id="patch_6">
    <path d="M 90 43.2 
L 327.272727 43.2 
" style="fill: none; stroke: #262626; stroke-width: 1.25; stroke-linejoin: miter; stroke-linecap: square"/>
   </g>
   <g id="PolyCollection_1">
    <defs>
     <path id="m9d2d54b32c" d="M 92.89357 -39.6 
L 92.89357 -39.6 
L 92.893951 -39.6 
L 92.897764 -39.6 
L 92.935892 -39.6 
L 93.04713 -39.6 
L 93.158368 -39.6 
L 93.437554 -39.6 
L 93.732401 -39.6 
L 94.529587 -39.6 
L 95.060615 -39.6 
L 96.368161 -40.959949 
L 97.077701 -44.05175 
L 98.618872 -52.154402 
L 99.435964 -56.317444 
L 100.956286 -64.02754 
L 101.870342 -68.621187 
L 103.430772 -76.500574 
L 104.417668 -81.452881 
L 105.981899 -89.349029 
L 107.02707 -94.593901 
L 108.598399 -102.17007 
L 109.68728 -107.300587 
L 111.431071 -115.528413 
L 112.506305 -120.590889 
L 114.014203 -127.710406 
L 115.140324 -133.021808 
L 116.796986 -140.808336 
L 117.920483 -146.082122 
L 119.460871 -153.296539 
L 120.617639 -158.704074 
L 122.290286 -166.443625 
L 123.445314 -171.750451 
L 125.041146 -178.939824 
L 126.237463 -184.251429 
L 127.986359 -191.628479 
L 129.193168 -196.510699 
L 130.832476 -202.492541 
L 132.071042 -206.675565 
L 133.845093 -211.570862 
L 135.103799 -214.546655 
L 136.709931 -217.397637 
L 137.943655 -219.118678 
L 139.429065 -220.711578 
L 140.636559 -221.619452 
L 141.907842 -222.202296 
L 143.179125 -222.555937 
L 144.287722 -222.778937 
L 145.396319 -222.93091 
L 146.249135 -223.00814 
L 147.073479 -223.052091 
L 147.771328 -223.067583 
L 148.489368 -223.072545 
L 149.069292 -223.065095 
L 149.596681 -223.047721 
L 150.124071 -223.024552 
L 150.556362 -223.005561 
L 151.041821 -222.974232 
L 151.430596 -222.947109 
L 152.757662 -222.832992 
L 153.304404 -222.77624 
L 155.17772 -222.555018 
L 155.982221 -222.447685 
L 158.161467 -222.123431 
L 159.184874 -221.963998 
L 161.578825 -221.552942 
L 162.801259 -221.336343 
L 165.694828 -220.79099 
L 167.086422 -220.5237 
L 169.979991 -219.946581 
L 171.610052 -219.61762 
L 174.503622 -219.02137 
L 176.456825 -218.615631 
L 179.350394 -218.0079 
L 181.726482 -217.506007 
L 184.620051 -216.891404 
L 187.513621 -216.274105 
L 190.407191 -215.654581 
L 193.300761 -215.033016 
L 196.194331 -214.409354 
L 199.087901 -213.783318 
L 201.98147 -213.15442 
L 204.87504 -212.521959 
L 207.76861 -211.885015 
L 210.66218 -211.24243 
L 213.55575 -210.592802 
L 216.44932 -209.934459 
L 219.34289 -209.26545 
L 222.236459 -208.583524 
L 225.130029 -207.886113 
L 228.023599 -207.17031 
L 230.917169 -206.432849 
L 233.810739 -205.670071 
L 236.704309 -204.877885 
L 239.597878 -204.051719 
L 242.491448 -203.186449 
L 245.385018 -202.276298 
L 248.278588 -201.314713 
L 251.172158 -200.294178 
L 254.065728 -199.205968 
L 256.959297 -198.039801 
L 259.852867 -196.730653 
L 262.746437 -195.206188 
L 265.640007 -193.552698 
L 268.533577 -191.747522 
L 271.427147 -189.760569 
L 274.320717 -187.550477 
L 277.214286 -185.057984 
L 280.107856 -181.994145 
L 283.001426 -177.951282 
L 285.894996 -172.686988 
L 288.788566 -165.173373 
L 291.682136 -152.978907 
L 294.575705 -129.394197 
L 295.154419 -118.520666 
L 295.198492 -117.311628 
L 295.286636 -114.893552 
L 295.377432 -112.205651 
L 295.437256 -109.897547 
L 295.441853 -109.56326 
L 295.487826 -106.203053 
L 295.490735 -105.990464 
L 295.51982 -103.864577 
L 295.521886 -103.713574 
L 295.542546 -102.200201 
L 295.543996 -102.093308 
L 295.558496 -101.024377 
L 295.584461 -99.110233 
L 295.597444 -98.153161 
L 295.604995 -97.596504 
L 295.605412 -97.565745 
L 295.609584 -97.258161 
L 295.616394 -96.756178 
L 295.625117 -96.113101 
L 295.627598 -95.930219 
L 295.632202 -95.590803 
L 295.640789 -94.957802 
L 295.656407 -93.806416 
L 295.702919 -90.305808 
L 295.811831 -81.721241 
L 295.937807 -69.358884 
L 296.133325 -48.835725 
L 296.328842 -39.6 
L 296.586092 -39.6 
L 296.843342 -39.6 
L 297.146846 -39.6 
L 297.480519 -39.6 
L 297.920362 -39.6 
L 298.637769 -39.6 
L 300.668703 -39.6 
L 302.699638 -39.6 
L 305.576867 -39.6 
L 308.454095 -39.6 
L 311.347665 -39.6 
L 314.241235 -39.6 
L 317.134805 -39.6 
L 320.028375 -39.6 
L 322.921944 -39.6 
L 324.379157 -39.6 
L 324.379157 -39.6 
L 324.379157 -39.6 
L 322.921944 -39.6 
L 320.028375 -39.6 
L 317.134805 -39.6 
L 314.241235 -39.6 
L 311.347665 -39.6 
L 308.454095 -39.6 
L 305.576867 -39.6 
L 302.699638 -39.6 
L 300.668703 -39.6 
L 298.637769 -66.439256 
L 297.920362 -78.711524 
L 297.480519 -86.286754 
L 297.146846 -92.033453 
L 296.843342 -97.574309 
L 296.586092 -102.633477 
L 296.328842 -108.008247 
L 296.133325 -115.618478 
L 295.937807 -120.51915 
L 295.811831 -123.676762 
L 295.702919 -126.40667 
L 295.656407 -127.572496 
L 295.640789 -127.963974 
L 295.632202 -128.194936 
L 295.627598 -128.294602 
L 295.625117 -128.356783 
L 295.616394 -128.575433 
L 295.609584 -128.74611 
L 295.605412 -128.863811 
L 295.604995 -128.878027 
L 295.597444 -129.1353 
L 295.584461 -129.577636 
L 295.558496 -130.462307 
L 295.543996 -130.751476 
L 295.542546 -130.7713 
L 295.521886 -131.053757 
L 295.51982 -131.082002 
L 295.490735 -131.873423 
L 295.487826 -131.952899 
L 295.441853 -132.974308 
L 295.437256 -133.062271 
L 295.377432 -134.405111 
L 295.286636 -136.41192 
L 295.198492 -138.409106 
L 295.154419 -139.394986 
L 294.575705 -148.265886 
L 291.682136 -168.062542 
L 288.788566 -176.308075 
L 285.894996 -181.611244 
L 283.001426 -185.53485 
L 280.107856 -188.651276 
L 277.214286 -191.235334 
L 274.320717 -193.440634 
L 271.427147 -195.362024 
L 268.533577 -197.062391 
L 265.640007 -198.58575 
L 262.746437 -199.964262 
L 259.852867 -201.222273 
L 256.959297 -202.378767 
L 254.065728 -203.448928 
L 251.172158 -204.44517 
L 248.278588 -205.377837 
L 245.385018 -206.25568 
L 242.491448 -207.086211 
L 239.597878 -207.875936 
L 236.704309 -208.630547 
L 233.810739 -209.355041 
L 230.917169 -210.053829 
L 228.023599 -210.7308 
L 225.130029 -211.389385 
L 222.236459 -212.032597 
L 219.34289 -212.663067 
L 216.44932 -213.283081 
L 213.55575 -213.8946 
L 210.66218 -214.514018 
L 207.76861 -215.162817 
L 204.87504 -215.805957 
L 201.98147 -216.444595 
L 199.087901 -217.079649 
L 196.194331 -217.71181 
L 193.300761 -218.341546 
L 190.407191 -218.969104 
L 187.513621 -219.594498 
L 184.620051 -220.217482 
L 181.726482 -220.837562 
L 179.350394 -221.343658 
L 176.456825 -221.955684 
L 174.503622 -222.364423 
L 171.610052 -222.963218 
L 169.979991 -223.294057 
L 167.086422 -223.870934 
L 165.694828 -224.139141 
L 162.801259 -224.680055 
L 161.578825 -224.893977 
L 159.184874 -225.324668 
L 158.161467 -225.499953 
L 155.982221 -225.848411 
L 155.17772 -225.961133 
L 153.304404 -226.202295 
L 152.757662 -226.258836 
L 151.430596 -226.385049 
L 151.041821 -226.414722 
L 150.556362 -226.447274 
L 150.124071 -226.471116 
L 149.596681 -226.494445 
L 149.069292 -226.510065 
L 148.489368 -226.517377 
L 147.771328 -226.512858 
L 147.073479 -226.489916 
L 146.249135 -226.43878 
L 145.396319 -226.351005 
L 144.287722 -226.182484 
L 143.179125 -225.933327 
L 141.907842 -225.531241 
L 140.636559 -224.970527 
L 139.429065 -224.395269 
L 137.943655 -223.632424 
L 136.709931 -222.74531 
L 135.103799 -221.123276 
L 133.845093 -219.453785 
L 132.071042 -216.066018 
L 130.832476 -213.178424 
L 129.193168 -208.170576 
L 127.986359 -203.960341 
L 126.237463 -196.837545 
L 125.041146 -191.620745 
L 123.445314 -184.162928 
L 122.290286 -178.600151 
L 120.617639 -170.313341 
L 119.460871 -164.509319 
L 117.920483 -156.708678 
L 116.796986 -150.991775 
L 115.140324 -142.517968 
L 114.014203 -136.750552 
L 112.506305 -129.020281 
L 111.431071 -123.509731 
L 109.68728 -114.53361 
L 108.598399 -108.943015 
L 107.02707 -100.863568 
L 105.981899 -95.50414 
L 104.417668 -87.458007 
L 103.430772 -82.400189 
L 101.870342 -74.367638 
L 100.956286 -69.681249 
L 99.435964 -61.822672 
L 98.618872 -57.671782 
L 97.077701 -49.881969 
L 96.368161 -46.070318 
L 95.060615 -39.679603 
L 94.529587 -39.6 
L 93.732401 -39.6 
L 93.437554 -39.6 
L 93.158368 -39.6 
L 93.04713 -39.6 
L 92.935892 -39.6 
L 92.897764 -39.6 
L 92.893951 -39.6 
L 92.89357 -39.6 
z
" style="stroke: #808080; stroke-opacity: 0.2"/>
    </defs>
    <g clip-path="url(#p2ca2569135)">
     <use xlink:href="#m9d2d54b32c" x="0" y="360" style="fill: #808080; fill-opacity: 0.2; stroke: #808080; stroke-opacity: 0.2"/>
    </g>
   </g>
   <g id="PathCollection_1">
    <defs>
     <path id="m89af85f00e" d="M 0 4.330127 
C 1.148363 4.330127 2.249847 3.873878 3.061862 3.061862 
C 3.873878 2.249847 4.330127 1.148363 4.330127 0 
C 4.330127 -1.148363 3.873878 -2.249847 3.061862 -3.061862 
C 2.249847 -3.873878 1.148363 -4.330127 0 -4.330127 
C -1.148363 -4.330127 -2.249847 -3.873878 -3.061862 -3.061862 
C -3.873878 -2.249847 -4.330127 -1.148363 -4.330127 0 
C -4.330127 1.148363 -3.873878 2.249847 -3.061862 3.061862 
C -2.249847 3.873878 -1.148363 4.330127 0 4.330127 
z
" style="stroke: #808080; stroke-opacity: 0.8"/>
    </defs>
    <g clip-path="url(#p2ca2569135)">
     <use xlink:href="#m89af85f00e" x="92.89357" y="320.4" style="fill: #808080; fill-opacity: 0.8; stroke: #808080; stroke-opacity: 0.8"/>
     <use xlink:href="#m89af85f00e" x="121.829268" y="191.915937" style="fill: #808080; fill-opacity: 0.8; stroke: #808080; stroke-opacity: 0.8"/>
     <use xlink:href="#m89af85f00e" x="150.764967" y="139.133896" style="fill: #808080; fill-opacity: 0.8; stroke: #808080; stroke-opacity: 0.8"/>
     <use xlink:href="#m89af85f00e" x="179.700665" y="123.121682" style="fill: #808080; fill-opacity: 0.8; stroke: #808080; stroke-opacity: 0.8"/>
     <use xlink:href="#m89af85f00e" x="208.636364" y="148.291014" style="fill: #808080; fill-opacity: 0.8; stroke: #808080; stroke-opacity: 0.8"/>
     <use xlink:href="#m89af85f00e" x="237.572062" y="180.605232" style="fill: #808080; fill-opacity: 0.8; stroke: #808080; stroke-opacity: 0.8"/>
     <use xlink:href="#m89af85f00e" x="266.507761" y="145.787689" style="fill: #808080; fill-opacity: 0.8; stroke: #808080; stroke-opacity: 0.8"/>
     <use xlink:href="#m89af85f00e" x="295.443459" y="237.968504" style="fill: #808080; fill-opacity: 0.8; stroke: #808080; stroke-opacity: 0.8"/>
    </g>
   </g>
   <g id="line2d_1">
    <path d="M 92.89357 320.4 
L 95.060615 320.4 
L 96.368161 315.263838 
L 98.618872 303.514572 
L 111.431071 240.941214 
L 123.445314 183.049718 
L 126.237463 170.427572 
L 129.193168 158.42707 
L 130.832476 152.775435 
L 132.071042 149.109598 
L 133.845093 144.856065 
L 135.103799 142.513351 
L 136.709931 140.246641 
L 137.943655 138.955274 
L 139.429065 137.802356 
L 140.636559 137.115172 
L 141.907842 136.57668 
L 144.287722 135.942382 
L 147.073479 135.621354 
L 150.124071 135.599838 
L 153.304404 135.808589 
L 158.161467 136.398193 
L 162.801259 137.136275 
L 171.610052 138.755915 
L 190.407191 142.517687 
L 207.76861 146.163587 
L 219.34289 148.799028 
L 228.023599 150.992545 
L 236.704309 153.474722 
L 242.491448 155.346731 
L 248.278588 157.441648 
L 254.065728 159.813433 
L 259.852867 162.534404 
L 262.746437 164.056736 
L 265.640007 165.709595 
L 268.533577 167.516052 
L 271.427147 169.50676 
L 274.320717 171.723866 
L 277.214286 174.227776 
L 280.107856 177.109689 
L 283.001426 180.51707 
L 285.894996 184.71235 
L 288.788566 190.235996 
L 291.682136 198.527263 
L 294.575705 216.940819 
L 295.286636 230.100174 
L 295.584461 243.382117 
L 296.586092 319.763773 
L 296.843342 320.4 
L 324.379157 320.4 
L 324.379157 320.4 
" clip-path="url(#p2ca2569135)" style="fill: none; stroke: #808080; stroke-width: 1.5; stroke-linecap: round"/>
   </g>
  </g>
  <g id="axes_2">
   <g id="patch_7">
    <path d="M 374.727273 320.4 
L 612 320.4 
L 612 43.2 
L 374.727273 43.2 
z
" style="fill: #ffffff"/>
   </g>
   <g id="matplotlib.axis_3">
    <g id="xtick_10">
     <g id="text_21">
      <!-- 0 -->
      <g style="fill: #262626" transform="translate(373.616968 340.20725) scale(0.144 -0.144)">
       <use xlink:href="#ArialMT-30"/>
      </g>
     </g>
    </g>
    <g id="xtick_11">
     <g id="text_22">
      <!-- 1 -->
      <g style="fill: #262626" transform="translate(402.552666 340.20725) scale(0.144 -0.144)">
       <use xlink:href="#ArialMT-31"/>
      </g>
     </g>
    </g>
    <g id="xtick_12">
     <g id="text_23">
      <!-- 2 -->
      <g style="fill: #262626" transform="translate(431.488364 340.20725) scale(0.144 -0.144)">
       <use xlink:href="#ArialMT-32"/>
      </g>
     </g>
    </g>
    <g id="xtick_13">
     <g id="text_24">
      <!-- 3 -->
      <g style="fill: #262626" transform="translate(460.424063 340.20725) scale(0.144 -0.144)">
       <use xlink:href="#ArialMT-33"/>
      </g>
     </g>
    </g>
    <g id="xtick_14">
     <g id="text_25">
      <!-- 4 -->
      <g style="fill: #262626" transform="translate(489.359761 340.20725) scale(0.144 -0.144)">
       <use xlink:href="#ArialMT-34"/>
      </g>
     </g>
    </g>
    <g id="xtick_15">
     <g id="text_26">
      <!-- 5 -->
      <g style="fill: #262626" transform="translate(518.29546 340.20725) scale(0.144 -0.144)">
       <use xlink:href="#ArialMT-35"/>
      </g>
     </g>
    </g>
    <g id="xtick_16">
     <g id="text_27">
      <!-- 6 -->
      <g style="fill: #262626" transform="translate(547.231158 340.20725) scale(0.144 -0.144)">
       <use xlink:href="#ArialMT-36"/>
      </g>
     </g>
    </g>
    <g id="xtick_17">
     <g id="text_28">
      <!-- 7 -->
      <g style="fill: #262626" transform="translate(576.166857 340.20725) scale(0.144 -0.144)">
       <use xlink:href="#ArialMT-37"/>
      </g>
     </g>
    </g>
    <g id="xtick_18">
     <g id="text_29">
      <!-- 8 -->
      <g style="fill: #262626" transform="translate(605.102555 340.20725) scale(0.144 -0.144)">
       <use xlink:href="#ArialMT-38"/>
      </g>
     </g>
    </g>
    <g id="text_30">
     <!-- Time (d) -->
     <g style="fill: #262626" transform="translate(457.993636 361.04625) scale(0.192 -0.192)">
      <use xlink:href="#ArialMT-54"/>
      <use xlink:href="#ArialMT-69" x="57.333984"/>
      <use xlink:href="#ArialMT-6d" x="79.550781"/>
      <use xlink:href="#ArialMT-65" x="162.851562"/>
      <use xlink:href="#ArialMT-20" x="218.466797"/>
      <use xlink:href="#ArialMT-28" x="246.25"/>
      <use xlink:href="#ArialMT-64" x="279.550781"/>
      <use xlink:href="#ArialMT-29" x="335.166016"/>
     </g>
    </g>
   </g>
   <g id="matplotlib.axis_4">
    <g id="ytick_10">
     <g id="text_31">
      <!-- 4.5 -->
      <g style="fill: #262626" transform="translate(345.211273 325.553625) scale(0.144 -0.144)">
       <defs>
        <path id="ArialMT-2e" d="M 581 0 
L 581 641 
L 1222 641 
L 1222 0 
L 581 0 
z
" transform="scale(0.015625)"/>
       </defs>
       <use xlink:href="#ArialMT-34"/>
       <use xlink:href="#ArialMT-2e" x="55.615234"/>
       <use xlink:href="#ArialMT-35" x="83.398438"/>
      </g>
     </g>
    </g>
    <g id="ytick_11">
     <g id="text_32">
      <!-- 5.0 -->
      <g style="fill: #262626" transform="translate(345.211273 282.907471) scale(0.144 -0.144)">
       <use xlink:href="#ArialMT-35"/>
       <use xlink:href="#ArialMT-2e" x="55.615234"/>
       <use xlink:href="#ArialMT-30" x="83.398438"/>
      </g>
     </g>
    </g>
    <g id="ytick_12">
     <g id="text_33">
      <!-- 5.5 -->
      <g style="fill: #262626" transform="translate(345.211273 240.261317) scale(0.144 -0.144)">
       <use xlink:href="#ArialMT-35"/>
       <use xlink:href="#ArialMT-2e" x="55.615234"/>
       <use xlink:href="#ArialMT-35" x="83.398438"/>
      </g>
     </g>
    </g>
    <g id="ytick_13">
     <g id="text_34">
      <!-- 6.0 -->
      <g style="fill: #262626" transform="translate(345.211273 197.615163) scale(0.144 -0.144)">
       <use xlink:href="#ArialMT-36"/>
       <use xlink:href="#ArialMT-2e" x="55.615234"/>
       <use xlink:href="#ArialMT-30" x="83.398438"/>
      </g>
     </g>
    </g>
    <g id="ytick_14">
     <g id="text_35">
      <!-- 6.5 -->
      <g style="fill: #262626" transform="translate(345.211273 154.96901) scale(0.144 -0.144)">
       <use xlink:href="#ArialMT-36"/>
       <use xlink:href="#ArialMT-2e" x="55.615234"/>
       <use xlink:href="#ArialMT-35" x="83.398438"/>
      </g>
     </g>
    </g>
    <g id="ytick_15">
     <g id="text_36">
      <!-- 7.0 -->
      <g style="fill: #262626" transform="translate(345.211273 112.322856) scale(0.144 -0.144)">
       <use xlink:href="#ArialMT-37"/>
       <use xlink:href="#ArialMT-2e" x="55.615234"/>
       <use xlink:href="#ArialMT-30" x="83.398438"/>
      </g>
     </g>
    </g>
    <g id="ytick_16">
     <g id="text_37">
      <!-- 7.5 -->
      <g style="fill: #262626" transform="translate(345.211273 69.676702) scale(0.144 -0.144)">
       <use xlink:href="#ArialMT-37"/>
       <use xlink:href="#ArialMT-2e" x="55.615234"/>
       <use xlink:href="#ArialMT-35" x="83.398438"/>
      </g>
     </g>
    </g>
    <g id="text_38">
     <!-- Log10(CD8TE) -->
     <g style="fill: #262626" transform="translate(337.170273 246.357) rotate(-90) scale(0.192 -0.192)">
      <defs>
       <path id="ArialMT-43" d="M 3763 1606 
L 4369 1453 
Q 4178 706 3683 314 
Q 3188 -78 2472 -78 
Q 1731 -78 1267 223 
Q 803 525 561 1097 
Q 319 1669 319 2325 
Q 319 3041 592 3573 
Q 866 4106 1370 4382 
Q 1875 4659 2481 4659 
Q 3169 4659 3637 4309 
Q 4106 3959 4291 3325 
L 3694 3184 
Q 3534 3684 3231 3912 
Q 2928 4141 2469 4141 
Q 1941 4141 1586 3887 
Q 1231 3634 1087 3207 
Q 944 2781 944 2328 
Q 944 1744 1114 1308 
Q 1284 872 1643 656 
Q 2003 441 2422 441 
Q 2931 441 3284 734 
Q 3638 1028 3763 1606 
z
" transform="scale(0.015625)"/>
       <path id="ArialMT-44" d="M 494 0 
L 494 4581 
L 2072 4581 
Q 2606 4581 2888 4516 
Q 3281 4425 3559 4188 
Q 3922 3881 4101 3404 
Q 4281 2928 4281 2316 
Q 4281 1794 4159 1391 
Q 4038 988 3847 723 
Q 3656 459 3429 307 
Q 3203 156 2883 78 
Q 2563 0 2147 0 
L 494 0 
z
M 1100 541 
L 2078 541 
Q 2531 541 2789 625 
Q 3047 709 3200 863 
Q 3416 1078 3536 1442 
Q 3656 1806 3656 2325 
Q 3656 3044 3420 3430 
Q 3184 3816 2847 3947 
Q 2603 4041 2063 4041 
L 1100 4041 
L 1100 541 
z
" transform="scale(0.015625)"/>
       <path id="ArialMT-45" d="M 506 0 
L 506 4581 
L 3819 4581 
L 3819 4041 
L 1113 4041 
L 1113 2638 
L 3647 2638 
L 3647 2100 
L 1113 2100 
L 1113 541 
L 3925 541 
L 3925 0 
L 506 0 
z
" transform="scale(0.015625)"/>
      </defs>
      <use xlink:href="#ArialMT-4c"/>
      <use xlink:href="#ArialMT-6f" x="55.615234"/>
      <use xlink:href="#ArialMT-67" x="111.230469"/>
      <use xlink:href="#ArialMT-31" x="166.845703"/>
      <use xlink:href="#ArialMT-30" x="222.460938"/>
      <use xlink:href="#ArialMT-28" x="278.076172"/>
      <use xlink:href="#ArialMT-43" x="311.376953"/>
      <use xlink:href="#ArialMT-44" x="383.59375"/>
      <use xlink:href="#ArialMT-38" x="455.810547"/>
      <use xlink:href="#ArialMT-54" x="511.425781"/>
      <use xlink:href="#ArialMT-45" x="572.509766"/>
      <use xlink:href="#ArialMT-29" x="639.208984"/>
     </g>
    </g>
   </g>
   <g id="patch_8">
    <path d="M 374.727273 320.4 
L 374.727273 43.2 
" style="fill: none; stroke: #262626; stroke-width: 1.25; stroke-linejoin: miter; stroke-linecap: square"/>
   </g>
   <g id="patch_9">
    <path d="M 612 320.4 
L 612 43.2 
" style="fill: none; stroke: #262626; stroke-width: 1.25; stroke-linejoin: miter; stroke-linecap: square"/>
   </g>
   <g id="patch_10">
    <path d="M 374.727273 320.4 
L 612 320.4 
" style="fill: none; stroke: #262626; stroke-width: 1.25; stroke-linejoin: miter; stroke-linecap: square"/>
   </g>
   <g id="patch_11">
    <path d="M 374.727273 43.2 
L 612 43.2 
" style="fill: none; stroke: #262626; stroke-width: 1.25; stroke-linejoin: miter; stroke-linecap: square"/>
   </g>
   <g id="PolyCollection_2">
    <defs>
     <path id="md49b36094d" d="M 377.620843 -133.178411 
L 377.620843 -133.178411 
L 377.621224 -133.178411 
L 377.625037 -133.178411 
L 377.663165 -133.178411 
L 377.774403 -133.178411 
L 377.885641 -133.178411 
L 378.164827 -133.178411 
L 378.459674 -133.178411 
L 379.25686 -133.178411 
L 379.787888 -133.178411 
L 381.095434 -133.178411 
L 381.804973 -133.178411 
L 383.346145 -133.178411 
L 384.163236 -133.178411 
L 385.683559 -133.178411 
L 386.597615 -133.178411 
L 388.158045 -133.178411 
L 389.144941 -133.178411 
L 390.709172 -133.178411 
L 391.754343 -133.178411 
L 393.325671 -133.178411 
L 394.414553 -133.178411 
L 396.158344 -133.178411 
L 397.233578 -133.178411 
L 398.741476 -133.178411 
L 399.867597 -133.178411 
L 401.524259 -133.178411 
L 402.647756 -133.178411 
L 404.188144 -133.178411 
L 405.344912 -133.178411 
L 407.017558 -133.178411 
L 408.172587 -133.178411 
L 409.768418 -133.178411 
L 410.964736 -133.178411 
L 412.713632 -133.178411 
L 413.92044 -133.178411 
L 415.559749 -133.178411 
L 416.798314 -133.178411 
L 418.572366 -133.178411 
L 419.831071 -133.178411 
L 421.437204 -133.178411 
L 422.670928 -133.178412 
L 424.156337 -133.178412 
L 425.363832 -133.178413 
L 426.635115 -133.178414 
L 427.906397 -133.178416 
L 429.014994 -133.178419 
L 430.123591 -133.178422 
L 430.976408 -133.178426 
L 431.800751 -133.178431 
L 432.498601 -133.178436 
L 433.216641 -133.178443 
L 433.796564 -133.178449 
L 434.323954 -133.178457 
L 434.851343 -133.178465 
L 435.283634 -133.178473 
L 435.769093 -133.178484 
L 436.157868 -133.178495 
L 437.484935 -133.178536 
L 438.031677 -133.178563 
L 439.904993 -133.178672 
L 440.709494 -133.178758 
L 442.888739 -133.179042 
L 443.912146 -133.179287 
L 446.306098 -133.180035 
L 447.528531 -133.180741 
L 450.422101 -133.183111 
L 451.813694 -133.185134 
L 454.707264 -133.191277 
L 456.337325 -133.196996 
L 459.230894 -133.2115 
L 461.184097 -133.227375 
L 464.077667 -133.260851 
L 466.453754 -133.303017 
L 469.347324 -133.378493 
L 472.240894 -133.489773 
L 475.134464 -133.649367 
L 478.028034 -133.872058 
L 480.921603 -134.174819 
L 483.815173 -134.576353 
L 486.708743 -135.096356 
L 489.602313 -135.754483 
L 492.495883 -136.569093 
L 495.389453 -137.555855 
L 498.283023 -138.726377 
L 501.176592 -140.087022 
L 504.070162 -141.638091 
L 506.963732 -143.373502 
L 509.857302 -145.280993 
L 512.750872 -147.342847 
L 515.644442 -149.536992 
L 518.538011 -151.838337 
L 521.431581 -154.220156 
L 524.325151 -156.655379 
L 527.218721 -159.117689 
L 530.112291 -161.582357 
L 533.005861 -164.02682 
L 535.899431 -165.962409 
L 538.793 -167.767496 
L 541.68657 -169.468706 
L 544.58014 -171.058922 
L 547.47371 -172.532864 
L 550.36728 -173.886854 
L 553.26085 -175.11859 
L 556.154419 -176.226938 
L 559.047989 -177.21175 
L 561.941559 -178.073703 
L 564.835129 -178.814159 
L 567.728699 -179.435048 
L 570.622269 -179.938768 
L 573.515839 -180.2954 
L 576.409408 -180.533489 
L 579.302978 -180.664153 
L 579.881692 -180.678197 
L 579.925764 -180.67916 
L 580.013909 -180.68071 
L 580.104705 -180.682305 
L 580.164529 -180.683357 
L 580.169126 -180.683437 
L 580.215099 -180.684235 
L 580.218008 -180.684279 
L 580.247093 -180.684723 
L 580.249159 -180.684755 
L 580.269819 -180.68507 
L 580.271269 -180.685093 
L 580.285769 -180.685314 
L 580.311734 -180.685695 
L 580.324717 -180.685881 
L 580.332268 -180.68599 
L 580.332685 -180.685996 
L 580.336857 -180.686056 
L 580.343666 -180.686154 
L 580.35239 -180.686278 
L 580.35487 -180.686312 
L 580.359475 -180.686375 
L 580.368061 -180.686493 
L 580.38368 -180.686708 
L 580.430192 -180.687332 
L 580.539104 -180.688684 
L 580.66508 -180.690046 
L 580.860598 -180.691788 
L 581.056115 -180.693082 
L 581.313365 -180.694074 
L 581.570614 -180.694289 
L 581.874119 -180.693506 
L 582.207791 -180.691384 
L 582.647635 -180.68657 
L 583.365042 -180.67337 
L 585.395976 -180.602824 
L 587.426911 -180.484264 
L 590.304139 -180.239776 
L 593.181368 -179.908061 
L 596.074938 -179.312684 
L 598.968508 -178.044672 
L 601.862077 -176.728523 
L 604.755647 -175.370736 
L 607.649217 -173.977747 
L 609.10643 -173.266954 
L 609.10643 -196.719755 
L 609.10643 -196.719755 
L 607.649217 -196.819506 
L 604.755647 -196.9557 
L 601.862077 -197.001209 
L 598.968508 -196.952932 
L 596.074938 -196.807791 
L 593.181368 -196.562736 
L 590.304139 -196.217292 
L 587.426911 -195.767713 
L 585.395976 -195.78012 
L 583.365042 -196.073264 
L 582.647635 -196.1643 
L 582.207791 -196.216252 
L 581.874119 -196.255663 
L 581.570614 -196.289181 
L 581.313365 -196.317167 
L 581.056115 -196.34382 
L 580.860598 -196.363252 
L 580.66508 -196.382684 
L 580.539104 -196.395205 
L 580.430192 -196.40603 
L 580.38368 -196.410652 
L 580.368061 -196.412205 
L 580.359475 -196.413058 
L 580.35487 -196.413516 
L 580.35239 -196.413762 
L 580.343666 -196.414629 
L 580.336857 -196.415306 
L 580.332685 -196.415721 
L 580.332268 -196.415762 
L 580.324717 -196.416486 
L 580.311734 -196.417657 
L 580.285769 -196.419998 
L 580.271269 -196.421305 
L 580.269819 -196.421436 
L 580.249159 -196.423299 
L 580.247093 -196.423485 
L 580.218008 -196.426108 
L 580.215099 -196.42637 
L 580.169126 -196.430516 
L 580.164529 -196.43093 
L 580.104705 -196.436324 
L 580.013909 -196.444511 
L 579.925764 -196.452459 
L 579.881692 -196.456433 
L 579.302978 -196.501276 
L 576.409408 -196.673622 
L 573.515839 -196.777808 
L 570.622269 -197.098399 
L 567.728699 -197.291706 
L 564.835129 -197.351615 
L 561.941559 -197.272017 
L 559.047989 -197.04683 
L 556.154419 -196.670035 
L 553.26085 -196.135715 
L 550.36728 -195.438118 
L 547.47371 -194.571734 
L 544.58014 -193.53139 
L 541.68657 -192.312383 
L 538.793 -190.910637 
L 535.899431 -189.322914 
L 533.005861 -187.54707 
L 530.112291 -185.58237 
L 527.218721 -183.429882 
L 524.325151 -181.092953 
L 521.431581 -178.577764 
L 518.538011 -175.95942 
L 515.644442 -173.47563 
L 512.750872 -170.833832 
L 509.857302 -168.052206 
L 506.963732 -165.154598 
L 504.070162 -162.171116 
L 501.176592 -159.13845 
L 498.283023 -156.099707 
L 495.389453 -153.103532 
L 492.495883 -150.202316 
L 489.602313 -147.449392 
L 486.708743 -144.895322 
L 483.815173 -142.583671 
L 480.921603 -140.546928 
L 478.028034 -138.803386 
L 475.134464 -137.355704 
L 472.240894 -136.191516 
L 469.347324 -135.285942 
L 466.453754 -134.605408 
L 464.077667 -134.17826 
L 461.184097 -133.820556 
L 459.230894 -133.633607 
L 456.337325 -133.454037 
L 454.707264 -133.378443 
L 451.813694 -133.290817 
L 450.422101 -133.261544 
L 447.528531 -133.221406 
L 446.306098 -133.210261 
L 443.912146 -133.195849 
L 442.888739 -133.191783 
L 440.709494 -133.185738 
L 439.904993 -133.184313 
L 438.031677 -133.181771 
L 437.484935 -133.181334 
L 436.157868 -133.18028 
L 435.769093 -133.180074 
L 435.283634 -133.179862 
L 434.851343 -133.179687 
L 434.323954 -133.179473 
L 433.796564 -133.179309 
L 433.216641 -133.179158 
L 432.498601 -133.179004 
L 431.800751 -133.178886 
L 430.976408 -133.178774 
L 430.123591 -133.178684 
L 429.014994 -133.178601 
L 427.906397 -133.178543 
L 426.635115 -133.178496 
L 425.363832 -133.178466 
L 424.156337 -133.178447 
L 422.670928 -133.178432 
L 421.437204 -133.178425 
L 419.831071 -133.178419 
L 418.572366 -133.178416 
L 416.798314 -133.178413 
L 415.559749 -133.178412 
L 413.92044 -133.178412 
L 412.713632 -133.178411 
L 410.964736 -133.178411 
L 409.768418 -133.178411 
L 408.172587 -133.178411 
L 407.017558 -133.178411 
L 405.344912 -133.178411 
L 404.188144 -133.178411 
L 402.647756 -133.178411 
L 401.524259 -133.178411 
L 399.867597 -133.178411 
L 398.741476 -133.178411 
L 397.233578 -133.178411 
L 396.158344 -133.178411 
L 394.414553 -133.178411 
L 393.325671 -133.178411 
L 391.754343 -133.178411 
L 390.709172 -133.178411 
L 389.144941 -133.178411 
L 388.158045 -133.178411 
L 386.597615 -133.178411 
L 385.683559 -133.178411 
L 384.163236 -133.178411 
L 383.346145 -133.178411 
L 381.804973 -133.178411 
L 381.095434 -133.178411 
L 379.787888 -133.178411 
L 379.25686 -133.178411 
L 378.459674 -133.178411 
L 378.164827 -133.178411 
L 377.885641 -133.178411 
L 377.774403 -133.178411 
L 377.663165 -133.178411 
L 377.625037 -133.178411 
L 377.621224 -133.178411 
L 377.620843 -133.178411 
z
" style="stroke: #808080; stroke-opacity: 0.2"/>
    </defs>
    <g clip-path="url(#pcc771e2bce)">
     <use xlink:href="#md49b36094d" x="0" y="360" style="fill: #808080; fill-opacity: 0.2; stroke: #808080; stroke-opacity: 0.2"/>
    </g>
   </g>
   <g id="PathCollection_2">
    <g clip-path="url(#pcc771e2bce)">
     <use xlink:href="#m89af85f00e" x="348.685144" y="208.054073" style="fill: #808080; fill-opacity: 0.8; stroke: #808080; stroke-opacity: 0.8"/>
     <use xlink:href="#m89af85f00e" x="377.620843" y="226.821589" style="fill: #808080; fill-opacity: 0.8; stroke: #808080; stroke-opacity: 0.8"/>
     <use xlink:href="#m89af85f00e" x="406.556541" y="180.820895" style="fill: #808080; fill-opacity: 0.8; stroke: #808080; stroke-opacity: 0.8"/>
     <use xlink:href="#m89af85f00e" x="435.492239" y="189.622265" style="fill: #808080; fill-opacity: 0.8; stroke: #808080; stroke-opacity: 0.8"/>
     <use xlink:href="#m89af85f00e" x="464.427938" y="193.099931" style="fill: #808080; fill-opacity: 0.8; stroke: #808080; stroke-opacity: 0.8"/>
     <use xlink:href="#m89af85f00e" x="493.363636" y="195.214697" style="fill: #808080; fill-opacity: 0.8; stroke: #808080; stroke-opacity: 0.8"/>
     <use xlink:href="#m89af85f00e" x="522.299335" y="174.323288" style="fill: #808080; fill-opacity: 0.8; stroke: #808080; stroke-opacity: 0.8"/>
     <use xlink:href="#m89af85f00e" x="551.235033" y="178.766541" style="fill: #808080; fill-opacity: 0.8; stroke: #808080; stroke-opacity: 0.8"/>
     <use xlink:href="#m89af85f00e" x="580.170732" y="189.172838" style="fill: #808080; fill-opacity: 0.8; stroke: #808080; stroke-opacity: 0.8"/>
    </g>
   </g>
   <g id="line2d_2">
    <path d="M 377.620843 226.821589 
L 451.813694 226.739088 
L 459.230894 226.465462 
L 464.077667 226.022606 
L 466.453754 225.678828 
L 469.347324 225.108885 
L 472.240894 224.338237 
L 475.134464 223.331854 
L 478.028034 222.061058 
L 480.921603 220.507524 
L 483.815173 218.666413 
L 486.708743 216.547918 
L 489.602313 214.176863 
L 492.495883 211.590463 
L 498.283023 205.960629 
L 509.857302 194.266547 
L 515.644442 188.862499 
L 518.538011 186.369732 
L 521.431581 184.038821 
L 524.325151 181.880782 
L 527.218721 179.902883 
L 530.112291 178.109301 
L 533.005861 176.501706 
L 535.899431 175.079758 
L 538.793 173.841528 
L 541.68657 172.783838 
L 544.58014 171.902548 
L 547.47371 171.192774 
L 550.36728 170.649075 
L 553.26085 170.265593 
L 556.154419 170.036164 
L 559.047989 169.954405 
L 561.941559 170.013782 
L 564.835129 170.207661 
L 567.728699 170.529346 
L 570.622269 170.972108 
L 576.409408 172.193901 
L 582.207791 173.823223 
L 585.395976 174.87226 
L 590.304139 176.673874 
L 596.074938 179.043202 
L 601.862077 181.642508 
L 609.10643 185.133045 
L 609.10643 185.133045 
" clip-path="url(#pcc771e2bce)" style="fill: none; stroke: #808080; stroke-width: 1.5; stroke-linecap: round"/>
   </g>
  </g>
  <g id="legend_1">
   <g id="patch_12">
    <path d="M 769.44 42.519 
L 862.911 42.519 
Q 866.751 42.519 866.751 38.679 
L 866.751 13.44 
Q 866.751 9.6 862.911 9.6 
L 769.44 9.6 
Q 765.6 9.6 765.6 13.44 
L 765.6 38.679 
Q 765.6 42.519 769.44 42.519 
z
" style="fill: #ffffff; opacity: 0.8; stroke: #cccccc; stroke-linejoin: miter"/>
   </g>
   <g id="PathCollection_3">
    <g>
     <use xlink:href="#m89af85f00e" x="792.48" y="25.983" style="fill: #808080; fill-opacity: 0.8; stroke: #808080; stroke-opacity: 0.8"/>
    </g>
   </g>
   <g id="text_39">
    <!-- 103 -->
    <g style="fill: #262626" transform="translate(827.04 31.023) scale(0.192 -0.192)">
     <use xlink:href="#ArialMT-31"/>
     <use xlink:href="#ArialMT-30" x="55.615234"/>
     <use xlink:href="#ArialMT-33" x="111.230469"/>
    </g>
   </g>
  </g>
 </g>
 <defs>
  <clipPath id="p2ca2569135">
   <rect x="90" y="43.2" width="237.272727" height="277.2"/>
  </clipPath>
  <clipPath id="pcc771e2bce">
   <rect x="374.727273" y="43.2" width="237.272727" height="277.2"/>
  </clipPath>
 </defs>
</svg>
