<?xml version="1.0" encoding="utf-8" standalone="no"?>
<!DOCTYPE svg PUBLIC "-//W3C//DTD SVG 1.1//EN"
  "http://www.w3.org/Graphics/SVG/1.1/DTD/svg11.dtd">
<svg xmlns:xlink="http://www.w3.org/1999/xlink" width="720pt" height="360pt" viewBox="0 0 720 360" xmlns="http://www.w3.org/2000/svg" version="1.1">
 <metadata>
  <rdf:RDF xmlns:dc="http://purl.org/dc/elements/1.1/" xmlns:cc="http://creativecommons.org/ns#" xmlns:rdf="http://www.w3.org/1999/02/22-rdf-syntax-ns#">
   <cc:Work>
    <dc:type rdf:resource="http://purl.org/dc/dcmitype/StillImage"/>
    <dc:date>2024-11-13T15:46:01.299417</dc:date>
    <dc:format>image/svg+xml</dc:format>
    <dc:creator>
     <cc:Agent>
      <dc:title>Matplotlib v3.9.2, https://matplotlib.org/</dc:title>
     </cc:Agent>
    </dc:creator>
   </cc:Work>
  </rdf:RDF>
 </metadata>
 <defs>
  <style type="text/css">*{stroke-linejoin: round; stroke-linecap: butt}</style>
 </defs>
 <g id="figure_1">
  <g id="patch_1">
   <path d="M 0 360 
L 720 360 
L 720 0 
L 0 0 
z
" style="fill: #ffffff"/>
  </g>
  <g id="axes_1">
   <g id="patch_2">
    <path d="M 90 320.4 
L 327.272727 320.4 
L 327.272727 43.2 
L 90 43.2 
z
" style="fill: #ffffff"/>
   </g>
   <g id="matplotlib.axis_1">
    <g id="xtick_1">
     <g id="text_1">
      <!-- 0 -->
      <g style="fill: #262626" transform="translate(88.889695 340.20725) scale(0.144 -0.144)">
       <defs>
        <path id="ArialMT-30" d="M 266 2259 
Q 266 3072 433 3567 
Q 600 4063 929 4331 
Q 1259 4600 1759 4600 
Q 2128 4600 2406 4451 
Q 2684 4303 2865 4023 
Q 3047 3744 3150 3342 
Q 3253 2941 3253 2259 
Q 3253 1453 3087 958 
Q 2922 463 2592 192 
Q 2263 -78 1759 -78 
Q 1097 -78 719 397 
Q 266 969 266 2259 
z
M 844 2259 
Q 844 1131 1108 757 
Q 1372 384 1759 384 
Q 2147 384 2411 759 
Q 2675 1134 2675 2259 
Q 2675 3391 2411 3762 
Q 2147 4134 1753 4134 
Q 1366 4134 1134 3806 
Q 844 3388 844 2259 
z
" transform="scale(0.015625)"/>
       </defs>
       <use xlink:href="#ArialMT-30"/>
      </g>
     </g>
    </g>
    <g id="xtick_2">
     <g id="text_2">
      <!-- 1 -->
      <g style="fill: #262626" transform="translate(117.825393 340.20725) scale(0.144 -0.144)">
       <defs>
        <path id="ArialMT-31" d="M 2384 0 
L 1822 0 
L 1822 3584 
Q 1619 3391 1289 3197 
Q 959 3003 697 2906 
L 697 3450 
Q 1169 3672 1522 3987 
Q 1875 4303 2022 4600 
L 2384 4600 
L 2384 0 
z
" transform="scale(0.015625)"/>
       </defs>
       <use xlink:href="#ArialMT-31"/>
      </g>
     </g>
    </g>
    <g id="xtick_3">
     <g id="text_3">
      <!-- 2 -->
      <g style="fill: #262626" transform="translate(146.761092 340.20725) scale(0.144 -0.144)">
       <defs>
        <path id="ArialMT-32" d="M 3222 541 
L 3222 0 
L 194 0 
Q 188 203 259 391 
Q 375 700 629 1000 
Q 884 1300 1366 1694 
Q 2113 2306 2375 2664 
Q 2638 3022 2638 3341 
Q 2638 3675 2398 3904 
Q 2159 4134 1775 4134 
Q 1369 4134 1125 3890 
Q 881 3647 878 3216 
L 300 3275 
Q 359 3922 746 4261 
Q 1134 4600 1788 4600 
Q 2447 4600 2831 4234 
Q 3216 3869 3216 3328 
Q 3216 3053 3103 2787 
Q 2991 2522 2730 2228 
Q 2469 1934 1863 1422 
Q 1356 997 1212 845 
Q 1069 694 975 541 
L 3222 541 
z
" transform="scale(0.015625)"/>
       </defs>
       <use xlink:href="#ArialMT-32"/>
      </g>
     </g>
    </g>
    <g id="xtick_4">
     <g id="text_4">
      <!-- 3 -->
      <g style="fill: #262626" transform="translate(175.69679 340.20725) scale(0.144 -0.144)">
       <defs>
        <path id="ArialMT-33" d="M 269 1209 
L 831 1284 
Q 928 806 1161 595 
Q 1394 384 1728 384 
Q 2125 384 2398 659 
Q 2672 934 2672 1341 
Q 2672 1728 2419 1979 
Q 2166 2231 1775 2231 
Q 1616 2231 1378 2169 
L 1441 2663 
Q 1497 2656 1531 2656 
Q 1891 2656 2178 2843 
Q 2466 3031 2466 3422 
Q 2466 3731 2256 3934 
Q 2047 4138 1716 4138 
Q 1388 4138 1169 3931 
Q 950 3725 888 3313 
L 325 3413 
Q 428 3978 793 4289 
Q 1159 4600 1703 4600 
Q 2078 4600 2393 4439 
Q 2709 4278 2876 4000 
Q 3044 3722 3044 3409 
Q 3044 3113 2884 2869 
Q 2725 2625 2413 2481 
Q 2819 2388 3044 2092 
Q 3269 1797 3269 1353 
Q 3269 753 2831 336 
Q 2394 -81 1725 -81 
Q 1122 -81 723 278 
Q 325 638 269 1209 
z
" transform="scale(0.015625)"/>
       </defs>
       <use xlink:href="#ArialMT-33"/>
      </g>
     </g>
    </g>
    <g id="xtick_5">
     <g id="text_5">
      <!-- 4 -->
      <g style="fill: #262626" transform="translate(204.632489 340.20725) scale(0.144 -0.144)">
       <defs>
        <path id="ArialMT-34" d="M 2069 0 
L 2069 1097 
L 81 1097 
L 81 1613 
L 2172 4581 
L 2631 4581 
L 2631 1613 
L 3250 1613 
L 3250 1097 
L 2631 1097 
L 2631 0 
L 2069 0 
z
M 2069 1613 
L 2069 3678 
L 634 1613 
L 2069 1613 
z
" transform="scale(0.015625)"/>
       </defs>
       <use xlink:href="#ArialMT-34"/>
      </g>
     </g>
    </g>
    <g id="xtick_6">
     <g id="text_6">
      <!-- 5 -->
      <g style="fill: #262626" transform="translate(233.568187 340.20725) scale(0.144 -0.144)">
       <defs>
        <path id="ArialMT-35" d="M 266 1200 
L 856 1250 
Q 922 819 1161 601 
Q 1400 384 1738 384 
Q 2144 384 2425 690 
Q 2706 997 2706 1503 
Q 2706 1984 2436 2262 
Q 2166 2541 1728 2541 
Q 1456 2541 1237 2417 
Q 1019 2294 894 2097 
L 366 2166 
L 809 4519 
L 3088 4519 
L 3088 3981 
L 1259 3981 
L 1013 2750 
Q 1425 3038 1878 3038 
Q 2478 3038 2890 2622 
Q 3303 2206 3303 1553 
Q 3303 931 2941 478 
Q 2500 -78 1738 -78 
Q 1113 -78 717 272 
Q 322 622 266 1200 
z
" transform="scale(0.015625)"/>
       </defs>
       <use xlink:href="#ArialMT-35"/>
      </g>
     </g>
    </g>
    <g id="xtick_7">
     <g id="text_7">
      <!-- 6 -->
      <g style="fill: #262626" transform="translate(262.503886 340.20725) scale(0.144 -0.144)">
       <defs>
        <path id="ArialMT-36" d="M 3184 3459 
L 2625 3416 
Q 2550 3747 2413 3897 
Q 2184 4138 1850 4138 
Q 1581 4138 1378 3988 
Q 1113 3794 959 3422 
Q 806 3050 800 2363 
Q 1003 2672 1297 2822 
Q 1591 2972 1913 2972 
Q 2475 2972 2870 2558 
Q 3266 2144 3266 1488 
Q 3266 1056 3080 686 
Q 2894 316 2569 119 
Q 2244 -78 1831 -78 
Q 1128 -78 684 439 
Q 241 956 241 2144 
Q 241 3472 731 4075 
Q 1159 4600 1884 4600 
Q 2425 4600 2770 4297 
Q 3116 3994 3184 3459 
z
M 888 1484 
Q 888 1194 1011 928 
Q 1134 663 1356 523 
Q 1578 384 1822 384 
Q 2178 384 2434 671 
Q 2691 959 2691 1453 
Q 2691 1928 2437 2201 
Q 2184 2475 1800 2475 
Q 1419 2475 1153 2201 
Q 888 1928 888 1484 
z
" transform="scale(0.015625)"/>
       </defs>
       <use xlink:href="#ArialMT-36"/>
      </g>
     </g>
    </g>
    <g id="xtick_8">
     <g id="text_8">
      <!-- 7 -->
      <g style="fill: #262626" transform="translate(291.439584 340.20725) scale(0.144 -0.144)">
       <defs>
        <path id="ArialMT-37" d="M 303 3981 
L 303 4522 
L 3269 4522 
L 3269 4084 
Q 2831 3619 2401 2847 
Q 1972 2075 1738 1259 
Q 1569 684 1522 0 
L 944 0 
Q 953 541 1156 1306 
Q 1359 2072 1739 2783 
Q 2119 3494 2547 3981 
L 303 3981 
z
" transform="scale(0.015625)"/>
       </defs>
       <use xlink:href="#ArialMT-37"/>
      </g>
     </g>
    </g>
    <g id="xtick_9">
     <g id="text_9">
      <!-- 8 -->
      <g style="fill: #262626" transform="translate(320.375282 340.20725) scale(0.144 -0.144)">
       <defs>
        <path id="ArialMT-38" d="M 1131 2484 
Q 781 2613 612 2850 
Q 444 3088 444 3419 
Q 444 3919 803 4259 
Q 1163 4600 1759 4600 
Q 2359 4600 2725 4251 
Q 3091 3903 3091 3403 
Q 3091 3084 2923 2848 
Q 2756 2613 2416 2484 
Q 2838 2347 3058 2040 
Q 3278 1734 3278 1309 
Q 3278 722 2862 322 
Q 2447 -78 1769 -78 
Q 1091 -78 675 323 
Q 259 725 259 1325 
Q 259 1772 486 2073 
Q 713 2375 1131 2484 
z
M 1019 3438 
Q 1019 3113 1228 2906 
Q 1438 2700 1772 2700 
Q 2097 2700 2305 2904 
Q 2513 3109 2513 3406 
Q 2513 3716 2298 3927 
Q 2084 4138 1766 4138 
Q 1444 4138 1231 3931 
Q 1019 3725 1019 3438 
z
M 838 1322 
Q 838 1081 952 856 
Q 1066 631 1291 507 
Q 1516 384 1775 384 
Q 2178 384 2440 643 
Q 2703 903 2703 1303 
Q 2703 1709 2433 1975 
Q 2163 2241 1756 2241 
Q 1359 2241 1098 1978 
Q 838 1716 838 1322 
z
" transform="scale(0.015625)"/>
       </defs>
       <use xlink:href="#ArialMT-38"/>
      </g>
     </g>
    </g>
    <g id="text_10">
     <!-- Time (d) -->
     <g style="fill: #262626" transform="translate(173.266364 361.04625) scale(0.192 -0.192)">
      <defs>
       <path id="ArialMT-54" d="M 1659 0 
L 1659 4041 
L 150 4041 
L 150 4581 
L 3781 4581 
L 3781 4041 
L 2266 4041 
L 2266 0 
L 1659 0 
z
" transform="scale(0.015625)"/>
       <path id="ArialMT-69" d="M 425 3934 
L 425 4581 
L 988 4581 
L 988 3934 
L 425 3934 
z
M 425 0 
L 425 3319 
L 988 3319 
L 988 0 
L 425 0 
z
" transform="scale(0.015625)"/>
       <path id="ArialMT-6d" d="M 422 0 
L 422 3319 
L 925 3319 
L 925 2853 
Q 1081 3097 1340 3245 
Q 1600 3394 1931 3394 
Q 2300 3394 2536 3241 
Q 2772 3088 2869 2813 
Q 3263 3394 3894 3394 
Q 4388 3394 4653 3120 
Q 4919 2847 4919 2278 
L 4919 0 
L 4359 0 
L 4359 2091 
Q 4359 2428 4304 2576 
Q 4250 2725 4106 2815 
Q 3963 2906 3769 2906 
Q 3419 2906 3187 2673 
Q 2956 2441 2956 1928 
L 2956 0 
L 2394 0 
L 2394 2156 
Q 2394 2531 2256 2718 
Q 2119 2906 1806 2906 
Q 1569 2906 1367 2781 
Q 1166 2656 1075 2415 
Q 984 2175 984 1722 
L 984 0 
L 422 0 
z
" transform="scale(0.015625)"/>
       <path id="ArialMT-65" d="M 2694 1069 
L 3275 997 
Q 3138 488 2766 206 
Q 2394 -75 1816 -75 
Q 1088 -75 661 373 
Q 234 822 234 1631 
Q 234 2469 665 2931 
Q 1097 3394 1784 3394 
Q 2450 3394 2872 2941 
Q 3294 2488 3294 1666 
Q 3294 1616 3291 1516 
L 816 1516 
Q 847 969 1125 678 
Q 1403 388 1819 388 
Q 2128 388 2347 550 
Q 2566 713 2694 1069 
z
M 847 1978 
L 2700 1978 
Q 2663 2397 2488 2606 
Q 2219 2931 1791 2931 
Q 1403 2931 1139 2672 
Q 875 2413 847 1978 
z
" transform="scale(0.015625)"/>
       <path id="ArialMT-20" transform="scale(0.015625)"/>
       <path id="ArialMT-28" d="M 1497 -1347 
Q 1031 -759 709 28 
Q 388 816 388 1659 
Q 388 2403 628 3084 
Q 909 3875 1497 4659 
L 1900 4659 
Q 1522 4009 1400 3731 
Q 1209 3300 1100 2831 
Q 966 2247 966 1656 
Q 966 153 1900 -1347 
L 1497 -1347 
z
" transform="scale(0.015625)"/>
       <path id="ArialMT-64" d="M 2575 0 
L 2575 419 
Q 2259 -75 1647 -75 
Q 1250 -75 917 144 
Q 584 363 401 755 
Q 219 1147 219 1656 
Q 219 2153 384 2558 
Q 550 2963 881 3178 
Q 1213 3394 1622 3394 
Q 1922 3394 2156 3267 
Q 2391 3141 2538 2938 
L 2538 4581 
L 3097 4581 
L 3097 0 
L 2575 0 
z
M 797 1656 
Q 797 1019 1065 703 
Q 1334 388 1700 388 
Q 2069 388 2326 689 
Q 2584 991 2584 1609 
Q 2584 2291 2321 2609 
Q 2059 2928 1675 2928 
Q 1300 2928 1048 2622 
Q 797 2316 797 1656 
z
" transform="scale(0.015625)"/>
       <path id="ArialMT-29" d="M 791 -1347 
L 388 -1347 
Q 1322 153 1322 1656 
Q 1322 2244 1188 2822 
Q 1081 3291 891 3722 
Q 769 4003 388 4659 
L 791 4659 
Q 1378 3875 1659 3084 
Q 1900 2403 1900 1659 
Q 1900 816 1576 28 
Q 1253 -759 791 -1347 
z
" transform="scale(0.015625)"/>
      </defs>
      <use xlink:href="#ArialMT-54"/>
      <use xlink:href="#ArialMT-69" x="57.333984"/>
      <use xlink:href="#ArialMT-6d" x="79.550781"/>
      <use xlink:href="#ArialMT-65" x="162.851562"/>
      <use xlink:href="#ArialMT-20" x="218.466797"/>
      <use xlink:href="#ArialMT-28" x="246.25"/>
      <use xlink:href="#ArialMT-64" x="279.550781"/>
      <use xlink:href="#ArialMT-29" x="335.166016"/>
     </g>
    </g>
   </g>
   <g id="matplotlib.axis_2">
    <g id="ytick_1">
     <g id="text_11">
      <!-- 0 -->
      <g style="fill: #262626" transform="translate(72.49225 325.553625) scale(0.144 -0.144)">
       <use xlink:href="#ArialMT-30"/>
      </g>
     </g>
    </g>
    <g id="ytick_2">
     <g id="text_12">
      <!-- 1 -->
      <g style="fill: #262626" transform="translate(72.49225 291.953625) scale(0.144 -0.144)">
       <use xlink:href="#ArialMT-31"/>
      </g>
     </g>
    </g>
    <g id="ytick_3">
     <g id="text_13">
      <!-- 2 -->
      <g style="fill: #262626" transform="translate(72.49225 258.353625) scale(0.144 -0.144)">
       <use xlink:href="#ArialMT-32"/>
      </g>
     </g>
    </g>
    <g id="ytick_4">
     <g id="text_14">
      <!-- 3 -->
      <g style="fill: #262626" transform="translate(72.49225 224.753625) scale(0.144 -0.144)">
       <use xlink:href="#ArialMT-33"/>
      </g>
     </g>
    </g>
    <g id="ytick_5">
     <g id="text_15">
      <!-- 4 -->
      <g style="fill: #262626" transform="translate(72.49225 191.153625) scale(0.144 -0.144)">
       <use xlink:href="#ArialMT-34"/>
      </g>
     </g>
    </g>
    <g id="ytick_6">
     <g id="text_16">
      <!-- 5 -->
      <g style="fill: #262626" transform="translate(72.49225 157.553625) scale(0.144 -0.144)">
       <use xlink:href="#ArialMT-35"/>
      </g>
     </g>
    </g>
    <g id="ytick_7">
     <g id="text_17">
      <!-- 6 -->
      <g style="fill: #262626" transform="translate(72.49225 123.953625) scale(0.144 -0.144)">
       <use xlink:href="#ArialMT-36"/>
      </g>
     </g>
    </g>
    <g id="ytick_8">
     <g id="text_18">
      <!-- 7 -->
      <g style="fill: #262626" transform="translate(72.49225 90.353625) scale(0.144 -0.144)">
       <use xlink:href="#ArialMT-37"/>
      </g>
     </g>
    </g>
    <g id="ytick_9">
     <g id="text_19">
      <!-- 8 -->
      <g style="fill: #262626" transform="translate(72.49225 56.753625) scale(0.144 -0.144)">
       <use xlink:href="#ArialMT-38"/>
      </g>
     </g>
    </g>
    <g id="text_20">
     <!-- Log10(V) -->
     <g style="fill: #262626" transform="translate(64.45125 221.289) rotate(-90) scale(0.192 -0.192)">
      <defs>
       <path id="ArialMT-4c" d="M 469 0 
L 469 4581 
L 1075 4581 
L 1075 541 
L 3331 541 
L 3331 0 
L 469 0 
z
" transform="scale(0.015625)"/>
       <path id="ArialMT-6f" d="M 213 1659 
Q 213 2581 725 3025 
Q 1153 3394 1769 3394 
Q 2453 3394 2887 2945 
Q 3322 2497 3322 1706 
Q 3322 1066 3130 698 
Q 2938 331 2570 128 
Q 2203 -75 1769 -75 
Q 1072 -75 642 372 
Q 213 819 213 1659 
z
M 791 1659 
Q 791 1022 1069 705 
Q 1347 388 1769 388 
Q 2188 388 2466 706 
Q 2744 1025 2744 1678 
Q 2744 2294 2464 2611 
Q 2184 2928 1769 2928 
Q 1347 2928 1069 2612 
Q 791 2297 791 1659 
z
" transform="scale(0.015625)"/>
       <path id="ArialMT-67" d="M 319 -275 
L 866 -356 
Q 900 -609 1056 -725 
Q 1266 -881 1628 -881 
Q 2019 -881 2231 -725 
Q 2444 -569 2519 -288 
Q 2563 -116 2559 434 
Q 2191 0 1641 0 
Q 956 0 581 494 
Q 206 988 206 1678 
Q 206 2153 378 2554 
Q 550 2956 876 3175 
Q 1203 3394 1644 3394 
Q 2231 3394 2613 2919 
L 2613 3319 
L 3131 3319 
L 3131 450 
Q 3131 -325 2973 -648 
Q 2816 -972 2473 -1159 
Q 2131 -1347 1631 -1347 
Q 1038 -1347 672 -1080 
Q 306 -813 319 -275 
z
M 784 1719 
Q 784 1066 1043 766 
Q 1303 466 1694 466 
Q 2081 466 2343 764 
Q 2606 1063 2606 1700 
Q 2606 2309 2336 2618 
Q 2066 2928 1684 2928 
Q 1309 2928 1046 2623 
Q 784 2319 784 1719 
z
" transform="scale(0.015625)"/>
       <path id="ArialMT-56" d="M 1803 0 
L 28 4581 
L 684 4581 
L 1875 1253 
Q 2019 853 2116 503 
Q 2222 878 2363 1253 
L 3600 4581 
L 4219 4581 
L 2425 0 
L 1803 0 
z
" transform="scale(0.015625)"/>
      </defs>
      <use xlink:href="#ArialMT-4c"/>
      <use xlink:href="#ArialMT-6f" x="55.615234"/>
      <use xlink:href="#ArialMT-67" x="111.230469"/>
      <use xlink:href="#ArialMT-31" x="166.845703"/>
      <use xlink:href="#ArialMT-30" x="222.460938"/>
      <use xlink:href="#ArialMT-28" x="278.076172"/>
      <use xlink:href="#ArialMT-56" x="311.376953"/>
      <use xlink:href="#ArialMT-29" x="378.076172"/>
     </g>
    </g>
   </g>
   <g id="patch_3">
    <path d="M 90 320.4 
L 90 43.2 
" style="fill: none; stroke: #cccccc; stroke-width: 1.25; stroke-linejoin: miter; stroke-linecap: square"/>
   </g>
   <g id="patch_4">
    <path d="M 327.272727 320.4 
L 327.272727 43.2 
" style="fill: none; stroke: #cccccc; stroke-width: 1.25; stroke-linejoin: miter; stroke-linecap: square"/>
   </g>
   <g id="patch_5">
    <path d="M 90 320.4 
L 327.272727 320.4 
" style="fill: none; stroke: #cccccc; stroke-width: 1.25; stroke-linejoin: miter; stroke-linecap: square"/>
   </g>
   <g id="patch_6">
    <path d="M 90 43.2 
L 327.272727 43.2 
" style="fill: none; stroke: #cccccc; stroke-width: 1.25; stroke-linejoin: miter; stroke-linecap: square"/>
   </g>
   <g id="PolyCollection_1">
    <path d="M 92.89357 320.4 
L 92.89357 320.4 
L 92.894618 320.4 
L 92.905096 320.4 
L 93.009874 320.4 
L 93.25975 320.4 
L 93.509626 320.4 
L 93.998996 313.403705 
L 94.488365 304.357249 
L 95.242635 295.248047 
L 95.996904 288.911859 
L 96.912344 282.969172 
L 97.487528 279.696497 
L 98.399126 274.822247 
L 99.00707 271.700223 
L 100.102553 266.145167 
L 100.722647 263.145285 
L 101.670204 258.628482 
L 102.331996 255.476254 
L 103.399807 250.382991 
L 104.057383 247.253995 
L 104.986698 242.871829 
L 105.673098 239.632879 
L 106.69082 234.830841 
L 107.370248 231.621754 
L 108.291084 227.279159 
L 108.987978 223.989032 
L 109.977863 219.320235 
L 110.664255 216.077959 
L 111.572118 211.797594 
L 112.270272 208.502265 
L 113.236876 203.94498 
L 113.923378 200.703657 
L 114.819763 196.478186 
L 115.514674 193.200055 
L 116.464174 188.725687 
L 117.147064 185.504555 
L 118.033494 181.328365 
L 118.723352 178.078926 
L 119.660534 173.66799 
L 120.338958 170.47546 
L 121.219348 166.336253 
L 121.904741 163.118736 
L 122.836465 158.749644 
L 123.512317 155.586739 
L 124.395177 151.461265 
L 125.079889 148.274035 
L 126.019018 143.912395 
L 126.698574 140.778065 
L 127.696008 136.204031 
L 128.363044 133.173725 
L 129.266195 129.104797 
L 129.957806 126.036352 
L 130.938551 121.751059 
L 131.633034 118.791281 
L 132.563495 114.934247 
L 133.271476 112.102142 
L 134.261842 108.320886 
L 134.962488 105.785967 
L 136.018949 102.219045 
L 136.716024 100.063277 
L 137.592541 97.60407 
L 138.280575 95.831405 
L 139.073992 94.016434 
L 139.705259 92.693054 
L 140.387278 91.430284 
L 140.996905 90.420429 
L 141.606532 89.523059 
L 142.216158 88.729699 
L 142.742004 88.110352 
L 143.287775 87.534617 
L 143.833547 87.018949 
L 144.379318 86.563993 
L 144.862985 86.268883 
L 145.35321 86.011515 
L 145.843435 85.781423 
L 146.33366 85.576205 
L 146.77202 85.414247 
L 147.219852 85.263026 
L 147.667684 85.130897 
L 148.115516 85.010818 
L 148.563348 84.907219 
L 149.290625 84.763522 
L 149.854525 84.675137 
L 150.873675 84.551074 
L 151.604547 84.491165 
L 152.853328 84.437497 
L 153.626898 84.42507 
L 154.852034 84.444873 
L 155.689184 84.476358 
L 157.100024 84.567646 
L 157.977082 84.637705 
L 159.354423 84.775902 
L 160.307654 84.8832 
L 161.896858 85.088616 
L 162.907167 85.228 
L 164.51004 85.469758 
L 165.612794 85.643693 
L 167.467966 85.95596 
L 168.646224 86.160273 
L 170.528496 86.502823 
L 171.818083 86.743083 
L 173.980444 87.163324 
L 175.348981 87.434472 
L 177.454353 87.868728 
L 178.925867 88.178788 
L 181.250602 88.691207 
L 182.76507 89.033338 
L 184.92796 89.54794 
L 186.509159 89.936442 
L 188.809234 90.537548 
L 190.404869 90.970967 
L 192.794134 91.670768 
L 194.373851 92.154218 
L 196.489028 92.855097 
L 198.111684 93.421397 
L 200.320175 94.260399 
L 201.946222 94.914007 
L 204.216203 95.916667 
L 205.823815 96.670367 
L 208.140876 97.875065 
L 209.718086 98.747759 
L 211.779331 100.013165 
L 213.38846 101.073317 
L 215.529 102.64985 
L 217.139073 103.9329 
L 219.337027 105.930132 
L 220.931646 107.516506 
L 223.179786 110.150776 
L 224.750665 112.30777 
L 226.802936 115.848153 
L 228.404678 119.513152 
L 230.543277 126.669947 
L 232.151969 135.963268 
L 232.594185 138.992642 
L 233.159723 142.879883 
L 233.891177 147.905547 
L 234.080378 149.211758 
L 234.118218 149.473 
L 234.130371 149.556904 
L 234.139672 149.621114 
L 234.148972 149.685324 
L 234.158892 149.75381 
L 234.161775 149.77371 
L 234.162351 149.777689 
L 234.168116 149.817488 
L 234.178313 149.887885 
L 234.200879 150.043678 
L 234.274618 150.55276 
L 234.450606 151.768704 
L 234.801714 154.678286 
L 235.152822 157.58692 
L 235.701918 162.125577 
L 236.251014 166.688487 
L 236.917179 172.205439 
L 237.585526 177.761773 
L 238.330596 184.189933 
L 239.075666 191.213844 
L 239.838859 198.419422 
L 240.602674 205.638771 
L 241.376816 212.947057 
L 242.151761 220.285273 
L 242.932707 227.65461 
L 243.714612 235.069144 
L 244.500387 242.480623 
L 245.287623 249.953945 
L 246.078328 257.41346 
L 246.87199 264.951731 
L 247.670921 272.491529 
L 248.476827 280.154615 
L 249.294033 288.065167 
L 250.128208 296.488909 
L 250.98885 305.185223 
L 251.889601 313.838314 
L 252.85093 320.4 
L 253.823371 325.754056 
L 254.962922 336.374574 
L 256.218346 348.075021 
L 257.63665 361.293494 
L 259.354963 377.308026 
L 261.073276 393.322558 
L 263.014411 411.413767 
L 264.955545 429.504977 
L 267.002348 448.581004 
L 269.051283 467.676909 
L 271.168121 487.405662 
L 273.289908 507.180542 
L 275.456497 527.372967 
L 277.623086 547.565393 
L 279.789675 567.757818 
L 281.956264 587.950244 
L 284.122853 608.142669 
L 286.289442 628.335095 
L 288.45603 648.52752 
L 290.622619 668.719946 
L 292.789208 688.912371 
L 294.959524 709.139532 
L 297.135947 729.423609 
L 299.320664 749.784991 
L 301.515584 770.241461 
L 303.722228 790.807195 
L 305.942265 811.497758 
L 308.177072 832.32597 
L 310.428176 853.306068 
L 312.696946 874.45081 
L 314.98522 895.777331 
L 317.294658 917.301104 
L 319.627418 939.042231 
L 321.985502 961.019374 
L 324.37183 983.25975 
L 324.379157 983.328039 
L 324.379157 320.4 
L 324.379157 320.4 
L 324.37183 320.4 
L 321.985502 320.4 
L 319.627418 320.4 
L 317.294658 320.4 
L 314.98522 320.4 
L 312.696946 320.4 
L 310.428176 320.4 
L 308.177072 320.4 
L 305.942265 320.4 
L 303.722228 320.4 
L 301.515584 320.4 
L 299.320664 320.4 
L 297.135947 320.4 
L 294.959524 320.4 
L 292.789208 320.4 
L 290.622619 320.4 
L 288.45603 320.4 
L 286.289442 320.4 
L 284.122853 320.4 
L 281.956264 320.4 
L 279.789675 320.4 
L 277.623086 320.4 
L 275.456497 320.4 
L 273.289908 320.4 
L 271.168121 320.4 
L 269.051283 320.4 
L 267.002348 320.4 
L 264.955545 320.4 
L 263.014411 320.4 
L 261.073276 319.971933 
L 259.354963 314.90917 
L 257.63665 302.807731 
L 256.218346 292.854972 
L 254.962922 284.077215 
L 253.823371 276.07556 
L 252.85093 269.296604 
L 251.889601 262.555737 
L 250.98885 256.280961 
L 250.128208 250.250319 
L 249.294033 244.436684 
L 248.476827 238.718751 
L 247.670921 233.093089 
L 246.87199 227.515734 
L 246.078328 221.967177 
L 245.287623 216.448231 
L 244.500387 210.875225 
L 243.714612 205.305969 
L 242.932707 199.780533 
L 242.151761 194.24513 
L 241.376816 188.773504 
L 240.602674 183.240081 
L 239.838859 177.411836 
L 239.075666 171.326437 
L 238.330596 165.390124 
L 237.585526 158.982249 
L 236.917179 152.892057 
L 236.251014 146.676608 
L 235.701918 141.575942 
L 235.152822 136.903041 
L 234.801714 134.54752 
L 234.450606 132.448074 
L 234.274618 131.47306 
L 234.200879 131.104886 
L 234.178313 130.992215 
L 234.168116 130.941302 
L 234.162351 130.91252 
L 234.161775 130.909641 
L 234.158892 130.89525 
L 234.148972 130.84572 
L 234.139672 130.799283 
L 234.130371 130.752845 
L 234.118218 130.692165 
L 234.080378 130.503231 
L 233.891177 129.593221 
L 233.159723 126.699604 
L 232.594185 124.653171 
L 232.151969 122.966728 
L 230.543277 118.056921 
L 228.404678 112.970943 
L 226.802936 109.893705 
L 224.750665 106.799054 
L 223.179786 104.738672 
L 220.931646 102.006533 
L 219.337027 100.234362 
L 217.139073 98.116672 
L 215.529 96.736891 
L 213.38846 95.098162 
L 211.779331 93.924824 
L 209.718086 92.484415 
L 208.140876 91.476416 
L 205.823815 90.097695 
L 204.216203 89.224562 
L 201.946222 88.074264 
L 200.320175 87.317135 
L 198.111684 86.355931 
L 196.489028 85.702557 
L 194.373851 84.90435 
L 192.794134 84.347702 
L 190.404869 83.559995 
L 188.809234 83.068932 
L 186.509159 82.402137 
L 184.92796 81.970259 
L 182.76507 81.409386 
L 181.250602 81.034796 
L 178.925867 80.48736 
L 177.454353 80.154778 
L 175.348981 79.698605 
L 173.980444 79.411205 
L 171.818083 78.977458 
L 170.528496 78.72742 
L 168.646224 78.377623 
L 167.467966 78.169087 
L 165.612794 77.854468 
L 164.51004 77.680489 
L 162.907167 77.441912 
L 161.896858 77.304363 
L 160.307654 77.108624 
L 159.354423 77.006766 
L 157.977082 76.88288 
L 157.100024 76.820149 
L 155.689184 76.753794 
L 154.852034 76.735091 
L 153.626898 76.745098 
L 152.853328 76.774647 
L 151.604547 76.872539 
L 150.873675 76.961037 
L 149.854525 77.130619 
L 149.290625 77.251046 
L 148.563348 77.436658 
L 148.115516 77.571041 
L 147.667684 77.721961 
L 147.219852 77.891158 
L 146.77202 78.080894 
L 146.33366 78.286819 
L 145.843435 78.54212 
L 145.35321 78.827343 
L 144.862985 79.145303 
L 144.379318 79.49556 
L 143.833547 79.93558 
L 143.287775 80.397252 
L 142.742004 80.688322 
L 142.216158 81.002362 
L 141.606532 81.421491 
L 140.996905 81.897651 
L 140.387278 82.439639 
L 139.705259 83.129886 
L 139.073992 83.875778 
L 138.280575 84.955264 
L 137.592541 86.035135 
L 136.716024 87.631395 
L 136.018949 89.083442 
L 134.962488 91.527418 
L 134.261842 93.41351 
L 133.271476 96.400221 
L 132.563495 98.800353 
L 131.633034 102.228757 
L 130.938551 104.996107 
L 129.957806 109.151333 
L 129.266195 112.23726 
L 128.363044 116.408166 
L 127.696008 119.586489 
L 126.698574 124.452649 
L 126.019018 127.834825 
L 125.079889 132.565381 
L 124.395177 136.053294 
L 123.512317 140.582143 
L 122.836465 144.069543 
L 121.904741 148.897586 
L 121.219348 152.463768 
L 120.338958 157.053698 
L 119.660534 160.597838 
L 118.723352 165.498752 
L 118.033494 169.114055 
L 117.147064 173.75928 
L 116.464174 177.341829 
L 115.514674 182.321415 
L 114.819763 185.972872 
L 113.923378 190.677336 
L 113.236876 194.284589 
L 112.270272 199.359397 
L 111.572118 203.031184 
L 110.664255 207.798443 
L 109.977863 211.406997 
L 108.987978 216.606462 
L 108.291084 220.27276 
L 107.370248 225.108823 
L 106.69082 228.680587 
L 105.673098 234.029091 
L 104.986698 237.640511 
L 104.057383 242.5218 
L 103.399807 245.977858 
L 102.331996 251.574038 
L 101.670204 254.967542 
L 100.722647 259.829966 
L 100.102553 263.011481 
L 99.00707 268.693189 
L 98.399126 271.899923 
L 97.487528 276.947702 
L 96.912344 280.390488 
L 95.996904 286.656288 
L 95.242635 293.415733 
L 94.488365 302.992497 
L 93.998996 311.986861 
L 93.509626 320.16371 
L 93.25975 320.4 
L 93.009874 320.4 
L 92.905096 320.4 
L 92.894618 320.4 
L 92.89357 320.4 
z
" clip-path="url(#pb711adb956)" style="fill: #1e90ff; fill-opacity: 0.2; stroke: #1e90ff; stroke-opacity: 0.2"/>
   </g>
   <g id="PathCollection_1">
    <defs>
     <path id="m355dd0eef8" d="M 0 3 
C 0.795609 3 1.55874 2.683901 2.12132 2.12132 
C 2.683901 1.55874 3 0.795609 3 0 
C 3 -0.795609 2.683901 -1.55874 2.12132 -2.12132 
C 1.55874 -2.683901 0.795609 -3 0 -3 
C -0.795609 -3 -1.55874 -2.683901 -2.12132 -2.12132 
C -2.683901 -1.55874 -3 -0.795609 -3 0 
C -3 0.795609 -2.683901 1.55874 -2.12132 2.12132 
C -1.55874 2.683901 -0.795609 3 0 3 
z
" style="stroke: #000000; stroke-opacity: 0.8"/>
    </defs>
    <g clip-path="url(#pb711adb956)">
     <use xlink:href="#m355dd0eef8" x="92.89357" y="320.4" style="fill: #1e90ff; fill-opacity: 0.8; stroke: #000000; stroke-opacity: 0.8"/>
     <use xlink:href="#m355dd0eef8" x="121.829268" y="153.262289" style="fill: #1e90ff; fill-opacity: 0.8; stroke: #000000; stroke-opacity: 0.8"/>
     <use xlink:href="#m355dd0eef8" x="150.764967" y="102.335511" style="fill: #1e90ff; fill-opacity: 0.8; stroke: #000000; stroke-opacity: 0.8"/>
     <use xlink:href="#m355dd0eef8" x="208.636364" y="75.799512" style="fill: #1e90ff; fill-opacity: 0.8; stroke: #000000; stroke-opacity: 0.8"/>
     <use xlink:href="#m355dd0eef8" x="237.572062" y="170.081031" style="fill: #1e90ff; fill-opacity: 0.8; stroke: #000000; stroke-opacity: 0.8"/>
     <use xlink:href="#m355dd0eef8" x="266.507761" y="320.4" style="fill: #1e90ff; fill-opacity: 0.8; stroke: #000000; stroke-opacity: 0.8"/>
     <use xlink:href="#m355dd0eef8" x="295.443459" y="320.4" style="fill: #1e90ff; fill-opacity: 0.8; stroke: #000000; stroke-opacity: 0.8"/>
    </g>
   </g>
   <g id="line2d_1">
    <path d="M 92.89357 320.4 
L 93.509626 320.4 
L 95.242635 294.425169 
L 95.996904 287.975619 
L 97.487528 278.67906 
L 100.102553 265.185092 
L 127.696008 128.378413 
L 130.938551 113.616115 
L 133.271476 104.201585 
L 134.962488 98.388026 
L 136.716024 93.468323 
L 138.280575 90.060883 
L 139.705259 87.692386 
L 140.996905 86.053109 
L 142.216158 84.863429 
L 143.833547 83.70081 
L 145.35321 82.934551 
L 147.219852 82.307423 
L 149.290625 81.902266 
L 151.604547 81.701993 
L 154.852034 81.721054 
L 157.977082 81.954743 
L 162.907167 82.578852 
L 168.646224 83.527923 
L 177.454353 85.24305 
L 184.92796 86.927553 
L 190.404869 88.362486 
L 196.489028 90.261134 
L 200.320175 91.681713 
L 204.216203 93.357793 
L 208.140876 95.340127 
L 211.779331 97.508857 
L 213.38846 98.59173 
L 217.139073 101.484237 
L 219.337027 103.477711 
L 220.931646 105.100765 
L 223.179786 107.708732 
L 224.750665 109.815749 
L 226.802936 113.052142 
L 228.404678 116.114009 
L 230.543277 121.381858 
L 232.151969 126.939172 
L 233.159723 131.797412 
L 234.274618 139.834306 
L 248.476827 264.094442 
L 254.962922 320.4 
L 324.379157 320.4 
L 324.379157 320.4 
" clip-path="url(#pb711adb956)" style="fill: none; stroke: #1e90ff; stroke-width: 1.5; stroke-linecap: round"/>
   </g>
  </g>
  <g id="axes_2">
   <g id="patch_7">
    <path d="M 374.727273 320.4 
L 612 320.4 
L 612 43.2 
L 374.727273 43.2 
z
" style="fill: #ffffff"/>
   </g>
   <g id="matplotlib.axis_3">
    <g id="xtick_10">
     <g id="text_21">
      <!-- 0 -->
      <g style="fill: #262626" transform="translate(373.616968 340.20725) scale(0.144 -0.144)">
       <use xlink:href="#ArialMT-30"/>
      </g>
     </g>
    </g>
    <g id="xtick_11">
     <g id="text_22">
      <!-- 1 -->
      <g style="fill: #262626" transform="translate(402.552666 340.20725) scale(0.144 -0.144)">
       <use xlink:href="#ArialMT-31"/>
      </g>
     </g>
    </g>
    <g id="xtick_12">
     <g id="text_23">
      <!-- 2 -->
      <g style="fill: #262626" transform="translate(431.488364 340.20725) scale(0.144 -0.144)">
       <use xlink:href="#ArialMT-32"/>
      </g>
     </g>
    </g>
    <g id="xtick_13">
     <g id="text_24">
      <!-- 3 -->
      <g style="fill: #262626" transform="translate(460.424063 340.20725) scale(0.144 -0.144)">
       <use xlink:href="#ArialMT-33"/>
      </g>
     </g>
    </g>
    <g id="xtick_14">
     <g id="text_25">
      <!-- 4 -->
      <g style="fill: #262626" transform="translate(489.359761 340.20725) scale(0.144 -0.144)">
       <use xlink:href="#ArialMT-34"/>
      </g>
     </g>
    </g>
    <g id="xtick_15">
     <g id="text_26">
      <!-- 5 -->
      <g style="fill: #262626" transform="translate(518.29546 340.20725) scale(0.144 -0.144)">
       <use xlink:href="#ArialMT-35"/>
      </g>
     </g>
    </g>
    <g id="xtick_16">
     <g id="text_27">
      <!-- 6 -->
      <g style="fill: #262626" transform="translate(547.231158 340.20725) scale(0.144 -0.144)">
       <use xlink:href="#ArialMT-36"/>
      </g>
     </g>
    </g>
    <g id="xtick_17">
     <g id="text_28">
      <!-- 7 -->
      <g style="fill: #262626" transform="translate(576.166857 340.20725) scale(0.144 -0.144)">
       <use xlink:href="#ArialMT-37"/>
      </g>
     </g>
    </g>
    <g id="xtick_18">
     <g id="text_29">
      <!-- 8 -->
      <g style="fill: #262626" transform="translate(605.102555 340.20725) scale(0.144 -0.144)">
       <use xlink:href="#ArialMT-38"/>
      </g>
     </g>
    </g>
    <g id="text_30">
     <!-- Time (d) -->
     <g style="fill: #262626" transform="translate(457.993636 361.04625) scale(0.192 -0.192)">
      <use xlink:href="#ArialMT-54"/>
      <use xlink:href="#ArialMT-69" x="57.333984"/>
      <use xlink:href="#ArialMT-6d" x="79.550781"/>
      <use xlink:href="#ArialMT-65" x="162.851562"/>
      <use xlink:href="#ArialMT-20" x="218.466797"/>
      <use xlink:href="#ArialMT-28" x="246.25"/>
      <use xlink:href="#ArialMT-64" x="279.550781"/>
      <use xlink:href="#ArialMT-29" x="335.166016"/>
     </g>
    </g>
   </g>
   <g id="matplotlib.axis_4">
    <g id="ytick_10">
     <g id="text_31">
      <!-- 4.5 -->
      <g style="fill: #262626" transform="translate(345.211273 325.553625) scale(0.144 -0.144)">
       <defs>
        <path id="ArialMT-2e" d="M 581 0 
L 581 641 
L 1222 641 
L 1222 0 
L 581 0 
z
" transform="scale(0.015625)"/>
       </defs>
       <use xlink:href="#ArialMT-34"/>
       <use xlink:href="#ArialMT-2e" x="55.615234"/>
       <use xlink:href="#ArialMT-35" x="83.398438"/>
      </g>
     </g>
    </g>
    <g id="ytick_11">
     <g id="text_32">
      <!-- 5.0 -->
      <g style="fill: #262626" transform="translate(345.211273 282.907471) scale(0.144 -0.144)">
       <use xlink:href="#ArialMT-35"/>
       <use xlink:href="#ArialMT-2e" x="55.615234"/>
       <use xlink:href="#ArialMT-30" x="83.398438"/>
      </g>
     </g>
    </g>
    <g id="ytick_12">
     <g id="text_33">
      <!-- 5.5 -->
      <g style="fill: #262626" transform="translate(345.211273 240.261317) scale(0.144 -0.144)">
       <use xlink:href="#ArialMT-35"/>
       <use xlink:href="#ArialMT-2e" x="55.615234"/>
       <use xlink:href="#ArialMT-35" x="83.398438"/>
      </g>
     </g>
    </g>
    <g id="ytick_13">
     <g id="text_34">
      <!-- 6.0 -->
      <g style="fill: #262626" transform="translate(345.211273 197.615163) scale(0.144 -0.144)">
       <use xlink:href="#ArialMT-36"/>
       <use xlink:href="#ArialMT-2e" x="55.615234"/>
       <use xlink:href="#ArialMT-30" x="83.398438"/>
      </g>
     </g>
    </g>
    <g id="ytick_14">
     <g id="text_35">
      <!-- 6.5 -->
      <g style="fill: #262626" transform="translate(345.211273 154.96901) scale(0.144 -0.144)">
       <use xlink:href="#ArialMT-36"/>
       <use xlink:href="#ArialMT-2e" x="55.615234"/>
       <use xlink:href="#ArialMT-35" x="83.398438"/>
      </g>
     </g>
    </g>
    <g id="ytick_15">
     <g id="text_36">
      <!-- 7.0 -->
      <g style="fill: #262626" transform="translate(345.211273 112.322856) scale(0.144 -0.144)">
       <use xlink:href="#ArialMT-37"/>
       <use xlink:href="#ArialMT-2e" x="55.615234"/>
       <use xlink:href="#ArialMT-30" x="83.398438"/>
      </g>
     </g>
    </g>
    <g id="ytick_16">
     <g id="text_37">
      <!-- 7.5 -->
      <g style="fill: #262626" transform="translate(345.211273 69.676702) scale(0.144 -0.144)">
       <use xlink:href="#ArialMT-37"/>
       <use xlink:href="#ArialMT-2e" x="55.615234"/>
       <use xlink:href="#ArialMT-35" x="83.398438"/>
      </g>
     </g>
    </g>
    <g id="text_38">
     <!-- Log10(CD8TE) -->
     <g style="fill: #262626" transform="translate(337.170273 246.357) rotate(-90) scale(0.192 -0.192)">
      <defs>
       <path id="ArialMT-43" d="M 3763 1606 
L 4369 1453 
Q 4178 706 3683 314 
Q 3188 -78 2472 -78 
Q 1731 -78 1267 223 
Q 803 525 561 1097 
Q 319 1669 319 2325 
Q 319 3041 592 3573 
Q 866 4106 1370 4382 
Q 1875 4659 2481 4659 
Q 3169 4659 3637 4309 
Q 4106 3959 4291 3325 
L 3694 3184 
Q 3534 3684 3231 3912 
Q 2928 4141 2469 4141 
Q 1941 4141 1586 3887 
Q 1231 3634 1087 3207 
Q 944 2781 944 2328 
Q 944 1744 1114 1308 
Q 1284 872 1643 656 
Q 2003 441 2422 441 
Q 2931 441 3284 734 
Q 3638 1028 3763 1606 
z
" transform="scale(0.015625)"/>
       <path id="ArialMT-44" d="M 494 0 
L 494 4581 
L 2072 4581 
Q 2606 4581 2888 4516 
Q 3281 4425 3559 4188 
Q 3922 3881 4101 3404 
Q 4281 2928 4281 2316 
Q 4281 1794 4159 1391 
Q 4038 988 3847 723 
Q 3656 459 3429 307 
Q 3203 156 2883 78 
Q 2563 0 2147 0 
L 494 0 
z
M 1100 541 
L 2078 541 
Q 2531 541 2789 625 
Q 3047 709 3200 863 
Q 3416 1078 3536 1442 
Q 3656 1806 3656 2325 
Q 3656 3044 3420 3430 
Q 3184 3816 2847 3947 
Q 2603 4041 2063 4041 
L 1100 4041 
L 1100 541 
z
" transform="scale(0.015625)"/>
       <path id="ArialMT-45" d="M 506 0 
L 506 4581 
L 3819 4581 
L 3819 4041 
L 1113 4041 
L 1113 2638 
L 3647 2638 
L 3647 2100 
L 1113 2100 
L 1113 541 
L 3925 541 
L 3925 0 
L 506 0 
z
" transform="scale(0.015625)"/>
      </defs>
      <use xlink:href="#ArialMT-4c"/>
      <use xlink:href="#ArialMT-6f" x="55.615234"/>
      <use xlink:href="#ArialMT-67" x="111.230469"/>
      <use xlink:href="#ArialMT-31" x="166.845703"/>
      <use xlink:href="#ArialMT-30" x="222.460938"/>
      <use xlink:href="#ArialMT-28" x="278.076172"/>
      <use xlink:href="#ArialMT-43" x="311.376953"/>
      <use xlink:href="#ArialMT-44" x="383.59375"/>
      <use xlink:href="#ArialMT-38" x="455.810547"/>
      <use xlink:href="#ArialMT-54" x="511.425781"/>
      <use xlink:href="#ArialMT-45" x="572.509766"/>
      <use xlink:href="#ArialMT-29" x="639.208984"/>
     </g>
    </g>
   </g>
   <g id="patch_8">
    <path d="M 374.727273 320.4 
L 374.727273 43.2 
" style="fill: none; stroke: #cccccc; stroke-width: 1.25; stroke-linejoin: miter; stroke-linecap: square"/>
   </g>
   <g id="patch_9">
    <path d="M 612 320.4 
L 612 43.2 
" style="fill: none; stroke: #cccccc; stroke-width: 1.25; stroke-linejoin: miter; stroke-linecap: square"/>
   </g>
   <g id="patch_10">
    <path d="M 374.727273 320.4 
L 612 320.4 
" style="fill: none; stroke: #cccccc; stroke-width: 1.25; stroke-linejoin: miter; stroke-linecap: square"/>
   </g>
   <g id="patch_11">
    <path d="M 374.727273 43.2 
L 612 43.2 
" style="fill: none; stroke: #cccccc; stroke-width: 1.25; stroke-linejoin: miter; stroke-linecap: square"/>
   </g>
   <g id="PolyCollection_2">
    <defs>
     <path id="mb26d18cb23" d="M 377.620843 -113.777095 
L 377.620843 -113.777095 
L 377.62189 -113.777095 
L 377.632368 -113.777095 
L 377.737147 -113.777095 
L 377.987023 -113.777095 
L 378.236899 -113.777095 
L 378.726268 -113.777095 
L 379.215638 -113.777095 
L 379.969907 -113.777095 
L 380.724177 -113.777095 
L 381.639616 -113.777095 
L 382.2148 -113.777095 
L 383.126398 -113.777095 
L 383.734343 -113.777095 
L 384.829826 -113.777095 
L 385.44992 -113.777095 
L 386.397477 -113.777095 
L 387.059269 -113.777095 
L 388.12708 -113.777095 
L 388.784655 -113.777095 
L 389.71397 -113.777095 
L 390.400371 -113.777095 
L 391.418093 -113.777095 
L 392.09752 -113.777095 
L 393.018356 -113.777095 
L 393.715251 -113.777095 
L 394.705136 -113.777095 
L 395.391528 -113.777095 
L 396.299391 -113.777095 
L 396.997545 -113.777095 
L 397.964149 -113.777095 
L 398.650651 -113.777095 
L 399.547036 -113.777095 
L 400.241947 -113.777095 
L 401.191447 -113.777095 
L 401.874337 -113.777095 
L 402.760767 -113.777095 
L 403.450624 -113.777095 
L 404.387806 -113.777095 
L 405.066231 -113.777095 
L 405.94662 -113.777096 
L 406.632014 -113.777096 
L 407.563738 -113.777097 
L 408.23959 -113.777098 
L 409.12245 -113.777099 
L 409.807162 -113.7771 
L 410.746291 -113.777102 
L 411.425847 -113.777104 
L 412.42328 -113.777109 
L 413.090317 -113.777112 
L 413.993468 -113.777119 
L 414.685079 -113.777126 
L 415.665824 -113.777139 
L 416.360307 -113.777151 
L 417.290768 -113.777173 
L 417.998748 -113.777195 
L 418.989115 -113.777234 
L 419.68976 -113.777272 
L 420.746221 -113.777347 
L 421.443297 -113.777415 
L 422.319814 -113.77752 
L 423.007847 -113.777629 
L 423.801265 -113.777787 
L 424.432531 -113.777947 
L 425.114551 -113.778164 
L 425.724178 -113.778401 
L 426.333804 -113.778692 
L 426.943431 -113.779047 
L 427.469276 -113.77941 
L 428.015048 -113.779861 
L 428.560819 -113.780397 
L 429.106591 -113.781033 
L 429.590257 -113.781698 
L 430.080483 -113.782483 
L 430.570708 -113.7834 
L 431.060933 -113.784467 
L 431.499293 -113.785581 
L 431.947125 -113.786895 
L 432.394956 -113.788389 
L 432.842788 -113.790111 
L 433.29062 -113.792084 
L 434.017897 -113.795873 
L 434.581798 -113.799499 
L 435.600947 -113.807766 
L 436.33182 -113.815357 
L 437.5806 -113.832768 
L 438.354171 -113.846849 
L 439.579307 -113.876683 
L 440.416457 -113.903061 
L 441.827297 -113.964845 
L 442.704355 -114.012667 
L 444.081695 -114.11449 
L 445.034927 -114.208499 
L 446.624131 -114.410636 
L 447.634439 -114.585725 
L 449.237313 -114.924886 
L 450.340066 -115.242064 
L 452.195238 -115.886171 
L 453.373497 -116.448473 
L 455.255768 -117.484105 
L 456.545356 -118.404627 
L 458.707717 -120.247714 
L 460.076254 -121.632838 
L 462.181626 -124.120199 
L 463.65314 -126.081059 
L 465.977874 -129.595146 
L 467.492342 -132.043975 
L 469.655233 -135.811963 
L 471.236431 -138.662576 
L 473.536507 -142.930491 
L 475.132142 -145.910491 
L 477.521406 -150.323942 
L 479.101124 -153.196213 
L 481.216301 -156.897181 
L 482.838957 -159.656853 
L 485.047448 -163.179202 
L 486.673495 -165.658111 
L 488.943476 -168.864689 
L 490.551087 -171.000271 
L 492.868148 -173.788086 
L 494.445359 -175.564449 
L 496.506604 -177.637655 
L 498.115732 -179.084931 
L 500.256272 -180.414947 
L 501.866346 -181.175908 
L 504.0643 -181.983197 
L 505.658919 -182.465237 
L 507.907058 -182.924325 
L 509.477938 -183.155502 
L 511.530209 -183.284956 
L 513.131951 -183.301769 
L 515.27055 -183.166115 
L 516.879242 -182.989376 
L 517.321457 -182.920198 
L 517.886996 -182.831727 
L 518.61845 -182.705569 
L 518.80765 -182.66894 
L 518.845491 -182.661326 
L 518.857644 -182.65888 
L 518.866944 -182.657009 
L 518.876245 -182.655137 
L 518.886165 -182.653141 
L 518.889047 -182.652561 
L 518.889624 -182.652445 
L 518.895389 -182.651285 
L 518.905585 -182.649233 
L 518.928151 -182.644692 
L 519.00189 -182.629854 
L 519.177879 -182.59444 
L 519.528987 -182.519532 
L 519.880095 -182.441676 
L 520.429191 -182.315541 
L 520.978287 -182.177529 
L 521.644452 -182.005647 
L 522.312799 -181.818162 
L 523.057869 -181.600272 
L 523.802939 -181.366342 
L 524.566131 -181.116788 
L 525.329947 -180.850921 
L 526.104089 -180.572424 
L 526.879034 -180.2788 
L 527.65998 -179.972369 
L 528.441884 -179.652838 
L 529.22766 -179.321634 
L 530.014896 -178.977315 
L 530.805601 -178.622796 
L 531.599263 -178.25434 
L 532.398194 -177.875774 
L 533.204099 -177.482464 
L 534.021305 -177.075459 
L 534.85548 -176.649034 
L 535.716123 -176.200966 
L 536.616874 -175.720571 
L 537.578202 -175.19893 
L 538.550644 -174.658846 
L 539.690195 -174.015019 
L 540.945619 -173.290396 
L 542.363923 -172.453556 
L 544.082236 -171.13816 
L 545.800549 -169.784126 
L 547.741683 -168.240979 
L 549.682818 -166.68033 
L 551.72962 -165.026986 
L 553.778556 -163.364647 
L 555.895394 -161.646602 
L 558.017181 -159.927994 
L 560.18377 -158.183519 
L 562.350359 -156.451235 
L 564.516948 -154.739699 
L 566.683537 -153.046716 
L 568.850125 -151.384077 
L 571.016714 -149.745096 
L 573.183303 -148.143411 
L 575.349892 -146.572258 
L 577.516481 -145.04371 
L 579.686797 -143.546221 
L 581.863219 -142.093265 
L 584.047937 -140.670612 
L 586.242857 -139.293099 
L 588.449501 -137.949088 
L 590.669538 -136.65198 
L 592.904345 -135.388105 
L 595.155449 -134.173771 
L 597.424218 -132.991992 
L 599.712492 -131.861805 
L 602.021931 -130.762794 
L 604.354691 -129.713162 
L 606.712775 -128.699661 
L 609.099103 -127.728843 
L 609.10643 -127.725862 
L 609.10643 -172.790882 
L 609.10643 -172.790882 
L 609.099103 -172.79281 
L 606.712775 -173.420962 
L 604.354691 -174.041679 
L 602.021931 -174.65573 
L 599.712492 -175.263642 
L 597.424218 -175.865983 
L 595.155449 -176.46319 
L 592.904345 -177.055747 
L 590.669538 -177.644014 
L 588.449501 -178.228393 
L 586.242857 -178.809246 
L 584.047937 -179.387014 
L 581.863219 -179.962096 
L 579.686797 -180.534994 
L 577.516481 -181.106285 
L 575.349892 -181.676595 
L 573.183303 -182.246905 
L 571.016714 -182.817215 
L 568.850125 -183.387525 
L 566.683537 -183.957834 
L 564.516948 -184.528144 
L 562.350359 -185.098454 
L 560.18377 -185.668764 
L 558.017181 -186.239074 
L 555.895394 -186.797591 
L 553.778556 -187.354805 
L 551.72962 -187.894145 
L 549.682818 -188.432923 
L 547.741683 -188.943887 
L 545.800549 -189.454851 
L 544.082236 -189.907161 
L 542.363923 -190.359472 
L 540.945619 -190.940343 
L 539.690195 -191.736041 
L 538.550644 -192.437702 
L 537.578202 -193.019695 
L 536.616874 -193.579593 
L 535.716123 -194.08954 
L 534.85548 -194.563016 
L 534.021305 -195.008639 
L 533.204099 -195.432079 
L 532.398194 -195.836534 
L 531.599263 -196.224212 
L 530.805601 -196.595839 
L 530.014896 -196.952306 
L 529.22766 -197.293138 
L 528.441884 -197.618938 
L 527.65998 -197.928432 
L 526.879034 -198.222515 
L 526.104089 -198.499057 
L 525.329947 -198.759738 
L 524.566131 -199.001232 
L 523.802939 -199.226612 
L 523.057869 -199.430807 
L 522.312799 -199.619254 
L 521.644452 -199.774215 
L 520.978287 -199.915619 
L 520.429191 -200.021716 
L 519.880095 -200.118829 
L 519.528987 -200.175809 
L 519.177879 -200.228886 
L 519.00189 -200.253666 
L 518.928151 -200.264006 
L 518.905585 -200.267075 
L 518.895389 -200.268444 
L 518.889624 -200.269218 
L 518.889047 -200.269296 
L 518.886165 -200.269683 
L 518.876245 -200.271015 
L 518.866944 -200.272263 
L 518.857644 -200.273512 
L 518.845491 -200.275144 
L 518.80765 -200.280225 
L 518.61845 -200.30469 
L 517.886996 -200.438456 
L 517.321457 -200.623659 
L 516.879242 -200.752326 
L 515.27055 -201.211495 
L 513.131951 -201.65301 
L 511.530209 -201.902843 
L 509.477938 -202.038708 
L 507.907058 -202.056455 
L 505.658919 -201.844903 
L 504.0643 -201.585817 
L 501.866346 -200.981358 
L 500.256272 -200.409061 
L 498.115732 -199.388523 
L 496.506604 -198.492267 
L 494.445359 -197.064524 
L 492.868148 -195.970534 
L 490.551087 -194.447075 
L 488.943476 -193.148889 
L 486.673495 -191.034419 
L 485.047448 -189.26016 
L 482.838957 -186.549966 
L 481.216301 -184.292577 
L 479.101124 -181.046247 
L 477.521406 -178.373556 
L 475.132142 -173.955995 
L 473.536507 -170.742432 
L 471.236431 -165.782745 
L 469.655233 -162.158583 
L 467.492342 -156.972062 
L 465.977874 -153.22315 
L 463.65314 -147.359498 
L 462.181626 -143.649234 
L 460.076254 -138.458134 
L 458.707717 -135.190627 
L 456.545356 -130.438234 
L 455.255768 -127.826535 
L 453.373497 -124.458822 
L 452.195238 -122.656118 
L 450.340066 -120.181863 
L 449.237313 -119.009168 
L 447.634439 -117.559291 
L 446.624131 -116.8297 
L 445.034927 -115.904308 
L 444.081695 -115.472267 
L 442.704355 -114.980028 
L 441.827297 -114.732783 
L 440.416457 -114.43272 
L 439.579307 -114.29501 
L 438.354171 -114.142763 
L 437.5806 -114.067858 
L 436.33182 -113.977464 
L 435.600947 -113.93734 
L 434.581798 -113.893905 
L 434.017897 -113.875019 
L 433.29062 -113.854805 
L 432.842788 -113.844479 
L 432.394956 -113.835492 
L 431.947125 -113.827696 
L 431.499293 -113.820963 
L 431.060933 -113.815205 
L 430.570708 -113.809605 
L 430.080483 -113.80481 
L 429.590257 -113.800707 
L 429.106591 -113.79726 
L 428.560819 -113.793944 
L 428.015048 -113.791166 
L 427.469276 -113.788851 
L 426.943431 -113.786945 
L 426.333804 -113.78513 
L 425.724178 -113.783655 
L 425.114551 -113.782462 
L 424.432531 -113.781366 
L 423.801265 -113.780572 
L 423.007847 -113.779753 
L 422.319814 -113.779221 
L 421.443297 -113.778666 
L 420.746221 -113.778342 
L 419.68976 -113.777964 
L 418.989115 -113.777785 
L 417.998748 -113.777584 
L 417.290768 -113.777481 
L 416.360307 -113.777374 
L 415.665824 -113.777316 
L 414.685079 -113.777252 
L 413.993468 -113.777219 
L 413.090317 -113.777185 
L 412.42328 -113.777166 
L 411.425847 -113.777144 
L 410.746291 -113.777134 
L 409.807162 -113.777122 
L 409.12245 -113.777116 
L 408.23959 -113.77711 
L 407.563738 -113.777107 
L 406.632014 -113.777103 
L 405.94662 -113.777101 
L 405.066231 -113.777099 
L 404.387806 -113.777098 
L 403.450624 -113.777097 
L 402.760767 -113.777096 
L 401.874337 -113.777096 
L 401.191447 -113.777095 
L 400.241947 -113.777095 
L 399.547036 -113.777095 
L 398.650651 -113.777095 
L 397.964149 -113.777095 
L 396.997545 -113.777095 
L 396.299391 -113.777095 
L 395.391528 -113.777095 
L 394.705136 -113.777095 
L 393.715251 -113.777095 
L 393.018356 -113.777095 
L 392.09752 -113.777095 
L 391.418093 -113.777095 
L 390.400371 -113.777095 
L 389.71397 -113.777095 
L 388.784655 -113.777095 
L 388.12708 -113.777095 
L 387.059269 -113.777095 
L 386.397477 -113.777095 
L 385.44992 -113.777095 
L 384.829826 -113.777095 
L 383.734343 -113.777095 
L 383.126398 -113.777095 
L 382.2148 -113.777095 
L 381.639616 -113.777095 
L 380.724177 -113.777095 
L 379.969907 -113.777095 
L 379.215638 -113.777095 
L 378.726268 -113.777095 
L 378.236899 -113.777095 
L 377.987023 -113.777095 
L 377.737147 -113.777095 
L 377.632368 -113.777095 
L 377.62189 -113.777095 
L 377.620843 -113.777095 
z
" style="stroke: #1e90ff; stroke-opacity: 0.2"/>
    </defs>
    <g clip-path="url(#p48fdb7383c)">
     <use xlink:href="#mb26d18cb23" x="0" y="360" style="fill: #1e90ff; fill-opacity: 0.2; stroke: #1e90ff; stroke-opacity: 0.2"/>
    </g>
   </g>
   <g id="PathCollection_2">
    <g clip-path="url(#p48fdb7383c)">
     <use xlink:href="#m355dd0eef8" x="348.685144" y="255.207603" style="fill: #1e90ff; fill-opacity: 0.8; stroke: #000000; stroke-opacity: 0.8"/>
     <use xlink:href="#m355dd0eef8" x="377.620843" y="246.222905" style="fill: #1e90ff; fill-opacity: 0.8; stroke: #000000; stroke-opacity: 0.8"/>
     <use xlink:href="#m355dd0eef8" x="406.556541" y="230.206707" style="fill: #1e90ff; fill-opacity: 0.8; stroke: #000000; stroke-opacity: 0.8"/>
     <use xlink:href="#m355dd0eef8" x="435.492239" y="245.109423" style="fill: #1e90ff; fill-opacity: 0.8; stroke: #000000; stroke-opacity: 0.8"/>
     <use xlink:href="#m355dd0eef8" x="464.427938" y="220.332821" style="fill: #1e90ff; fill-opacity: 0.8; stroke: #000000; stroke-opacity: 0.8"/>
     <use xlink:href="#m355dd0eef8" x="493.363636" y="250.242499" style="fill: #1e90ff; fill-opacity: 0.8; stroke: #000000; stroke-opacity: 0.8"/>
     <use xlink:href="#m355dd0eef8" x="522.299335" y="156.130718" style="fill: #1e90ff; fill-opacity: 0.8; stroke: #000000; stroke-opacity: 0.8"/>
     <use xlink:href="#m355dd0eef8" x="551.235033" y="187.375227" style="fill: #1e90ff; fill-opacity: 0.8; stroke: #000000; stroke-opacity: 0.8"/>
     <use xlink:href="#m355dd0eef8" x="580.170732" y="229.788943" style="fill: #1e90ff; fill-opacity: 0.8; stroke: #000000; stroke-opacity: 0.8"/>
    </g>
   </g>
   <g id="line2d_2">
    <path d="M 377.620843 246.222905 
L 436.33182 246.121146 
L 440.416457 245.888198 
L 442.704355 245.604722 
L 445.034927 245.117399 
L 447.634439 244.219233 
L 449.237313 243.413646 
L 450.340066 242.724662 
L 452.195238 241.278529 
L 453.373497 240.158639 
L 455.255768 238.018071 
L 456.545356 236.299939 
L 458.707717 232.967214 
L 460.076254 230.591092 
L 463.65314 223.590413 
L 469.655233 210.533104 
L 473.536507 202.175184 
L 477.521406 194.231578 
L 479.101124 191.324028 
L 482.838957 185.069398 
L 485.047448 181.805204 
L 486.673495 179.608467 
L 488.943476 176.835102 
L 490.551087 175.073069 
L 492.868148 172.822843 
L 494.445359 171.479989 
L 496.506604 169.948731 
L 498.115732 168.923065 
L 500.256272 167.780466 
L 501.866346 167.080977 
L 504.0643 166.337688 
L 505.658919 165.944519 
L 507.907058 165.588072 
L 509.477938 165.470011 
L 511.530209 165.469162 
L 513.131951 165.583508 
L 516.879242 166.215988 
L 519.528987 166.947756 
L 522.312799 167.945275 
L 525.329947 169.26589 
L 528.441884 170.861365 
L 532.398194 173.188268 
L 536.616874 175.980715 
L 540.945619 179.116362 
L 545.800549 182.882641 
L 553.778556 189.44138 
L 573.183303 205.656268 
L 579.686797 210.737558 
L 586.242857 215.528103 
L 590.669538 218.544403 
L 595.155449 221.406786 
L 599.712492 224.106467 
L 604.354691 226.637415 
L 609.10643 228.999821 
L 609.10643 228.999821 
" clip-path="url(#p48fdb7383c)" style="fill: none; stroke: #1e90ff; stroke-width: 1.5; stroke-linecap: round"/>
   </g>
  </g>
  <g id="legend_1">
   <g id="patch_12">
    <path d="M 769.44 42.519 
L 862.911 42.519 
Q 866.751 42.519 866.751 38.679 
L 866.751 13.44 
Q 866.751 9.6 862.911 9.6 
L 769.44 9.6 
Q 765.6 9.6 765.6 13.44 
L 765.6 38.679 
Q 765.6 42.519 769.44 42.519 
z
" style="fill: #ffffff; opacity: 0.8; stroke: #cccccc; stroke-linejoin: miter"/>
   </g>
   <g id="PathCollection_3">
    <g>
     <use xlink:href="#m355dd0eef8" x="792.48" y="25.983" style="fill: #1e90ff; fill-opacity: 0.8; stroke: #000000; stroke-opacity: 0.8"/>
    </g>
   </g>
   <g id="text_39">
    <!-- 307 -->
    <g style="fill: #262626" transform="translate(827.04 31.023) scale(0.192 -0.192)">
     <use xlink:href="#ArialMT-33"/>
     <use xlink:href="#ArialMT-30" x="55.615234"/>
     <use xlink:href="#ArialMT-37" x="111.230469"/>
    </g>
   </g>
  </g>
 </g>
 <defs>
  <clipPath id="pb711adb956">
   <rect x="90" y="43.2" width="237.272727" height="277.2"/>
  </clipPath>
  <clipPath id="p48fdb7383c">
   <rect x="374.727273" y="43.2" width="237.272727" height="277.2"/>
  </clipPath>
 </defs>
</svg>
