<?xml version="1.0" encoding="utf-8" standalone="no"?>
<!DOCTYPE svg PUBLIC "-//W3C//DTD SVG 1.1//EN"
  "http://www.w3.org/Graphics/SVG/1.1/DTD/svg11.dtd">
<svg xmlns:xlink="http://www.w3.org/1999/xlink" width="720pt" height="360pt" viewBox="0 0 720 360" xmlns="http://www.w3.org/2000/svg" version="1.1">
 <metadata>
  <rdf:RDF xmlns:dc="http://purl.org/dc/elements/1.1/" xmlns:cc="http://creativecommons.org/ns#" xmlns:rdf="http://www.w3.org/1999/02/22-rdf-syntax-ns#">
   <cc:Work>
    <dc:type rdf:resource="http://purl.org/dc/dcmitype/StillImage"/>
    <dc:date>2024-10-25T19:54:58.276493</dc:date>
    <dc:format>image/svg+xml</dc:format>
    <dc:creator>
     <cc:Agent>
      <dc:title>Matplotlib v3.9.2, https://matplotlib.org/</dc:title>
     </cc:Agent>
    </dc:creator>
   </cc:Work>
  </rdf:RDF>
 </metadata>
 <defs>
  <style type="text/css">*{stroke-linejoin: round; stroke-linecap: butt}</style>
 </defs>
 <g id="figure_1">
  <g id="patch_1">
   <path d="M 0 360 
L 720 360 
L 720 0 
L 0 0 
z
" style="fill: #ffffff"/>
  </g>
  <g id="axes_1">
   <g id="patch_2">
    <path d="M 90 320.4 
L 343.636364 320.4 
L 343.636364 43.2 
L 90 43.2 
z
" style="fill: #ffffff"/>
   </g>
   <g id="matplotlib.axis_1">
    <g id="xtick_1">
     <g id="line2d_1">
      <defs>
       <path id="m4b6dd9e5b7" d="M 0 0 
L 0 3.5 
" style="stroke: #000000; stroke-width: 0.8"/>
      </defs>
      <g>
       <use xlink:href="#m4b6dd9e5b7" x="93.093126" y="320.4" style="stroke: #000000; stroke-width: 0.8"/>
      </g>
     </g>
     <g id="text_1">
      <!-- 0 -->
      <g transform="translate(88.512126 338.34175) scale(0.144 -0.144)">
       <defs>
        <path id="DejaVuSans-30" d="M 2034 4250 
Q 1547 4250 1301 3770 
Q 1056 3291 1056 2328 
Q 1056 1369 1301 889 
Q 1547 409 2034 409 
Q 2525 409 2770 889 
Q 3016 1369 3016 2328 
Q 3016 3291 2770 3770 
Q 2525 4250 2034 4250 
z
M 2034 4750 
Q 2819 4750 3233 4129 
Q 3647 3509 3647 2328 
Q 3647 1150 3233 529 
Q 2819 -91 2034 -91 
Q 1250 -91 836 529 
Q 422 1150 422 2328 
Q 422 3509 836 4129 
Q 1250 4750 2034 4750 
z
" transform="scale(0.015625)"/>
       </defs>
       <use xlink:href="#DejaVuSans-30"/>
      </g>
     </g>
    </g>
    <g id="xtick_2">
     <g id="line2d_2">
      <g>
       <use xlink:href="#m4b6dd9e5b7" x="124.02439" y="320.4" style="stroke: #000000; stroke-width: 0.8"/>
      </g>
     </g>
     <g id="text_2">
      <!-- 1 -->
      <g transform="translate(119.44339 338.34175) scale(0.144 -0.144)">
       <defs>
        <path id="DejaVuSans-31" d="M 794 531 
L 1825 531 
L 1825 4091 
L 703 3866 
L 703 4441 
L 1819 4666 
L 2450 4666 
L 2450 531 
L 3481 531 
L 3481 0 
L 794 0 
L 794 531 
z
" transform="scale(0.015625)"/>
       </defs>
       <use xlink:href="#DejaVuSans-31"/>
      </g>
     </g>
    </g>
    <g id="xtick_3">
     <g id="line2d_3">
      <g>
       <use xlink:href="#m4b6dd9e5b7" x="154.955654" y="320.4" style="stroke: #000000; stroke-width: 0.8"/>
      </g>
     </g>
     <g id="text_3">
      <!-- 2 -->
      <g transform="translate(150.374654 338.34175) scale(0.144 -0.144)">
       <defs>
        <path id="DejaVuSans-32" d="M 1228 531 
L 3431 531 
L 3431 0 
L 469 0 
L 469 531 
Q 828 903 1448 1529 
Q 2069 2156 2228 2338 
Q 2531 2678 2651 2914 
Q 2772 3150 2772 3378 
Q 2772 3750 2511 3984 
Q 2250 4219 1831 4219 
Q 1534 4219 1204 4116 
Q 875 4013 500 3803 
L 500 4441 
Q 881 4594 1212 4672 
Q 1544 4750 1819 4750 
Q 2544 4750 2975 4387 
Q 3406 4025 3406 3419 
Q 3406 3131 3298 2873 
Q 3191 2616 2906 2266 
Q 2828 2175 2409 1742 
Q 1991 1309 1228 531 
z
" transform="scale(0.015625)"/>
       </defs>
       <use xlink:href="#DejaVuSans-32"/>
      </g>
     </g>
    </g>
    <g id="xtick_4">
     <g id="line2d_4">
      <g>
       <use xlink:href="#m4b6dd9e5b7" x="185.886918" y="320.4" style="stroke: #000000; stroke-width: 0.8"/>
      </g>
     </g>
     <g id="text_4">
      <!-- 3 -->
      <g transform="translate(181.305918 338.34175) scale(0.144 -0.144)">
       <defs>
        <path id="DejaVuSans-33" d="M 2597 2516 
Q 3050 2419 3304 2112 
Q 3559 1806 3559 1356 
Q 3559 666 3084 287 
Q 2609 -91 1734 -91 
Q 1441 -91 1130 -33 
Q 819 25 488 141 
L 488 750 
Q 750 597 1062 519 
Q 1375 441 1716 441 
Q 2309 441 2620 675 
Q 2931 909 2931 1356 
Q 2931 1769 2642 2001 
Q 2353 2234 1838 2234 
L 1294 2234 
L 1294 2753 
L 1863 2753 
Q 2328 2753 2575 2939 
Q 2822 3125 2822 3475 
Q 2822 3834 2567 4026 
Q 2313 4219 1838 4219 
Q 1578 4219 1281 4162 
Q 984 4106 628 3988 
L 628 4550 
Q 988 4650 1302 4700 
Q 1616 4750 1894 4750 
Q 2613 4750 3031 4423 
Q 3450 4097 3450 3541 
Q 3450 3153 3228 2886 
Q 3006 2619 2597 2516 
z
" transform="scale(0.015625)"/>
       </defs>
       <use xlink:href="#DejaVuSans-33"/>
      </g>
     </g>
    </g>
    <g id="xtick_5">
     <g id="line2d_5">
      <g>
       <use xlink:href="#m4b6dd9e5b7" x="216.818182" y="320.4" style="stroke: #000000; stroke-width: 0.8"/>
      </g>
     </g>
     <g id="text_5">
      <!-- 4 -->
      <g transform="translate(212.237182 338.34175) scale(0.144 -0.144)">
       <defs>
        <path id="DejaVuSans-34" d="M 2419 4116 
L 825 1625 
L 2419 1625 
L 2419 4116 
z
M 2253 4666 
L 3047 4666 
L 3047 1625 
L 3713 1625 
L 3713 1100 
L 3047 1100 
L 3047 0 
L 2419 0 
L 2419 1100 
L 313 1100 
L 313 1709 
L 2253 4666 
z
" transform="scale(0.015625)"/>
       </defs>
       <use xlink:href="#DejaVuSans-34"/>
      </g>
     </g>
    </g>
    <g id="xtick_6">
     <g id="line2d_6">
      <g>
       <use xlink:href="#m4b6dd9e5b7" x="247.749446" y="320.4" style="stroke: #000000; stroke-width: 0.8"/>
      </g>
     </g>
     <g id="text_6">
      <!-- 5 -->
      <g transform="translate(243.168446 338.34175) scale(0.144 -0.144)">
       <defs>
        <path id="DejaVuSans-35" d="M 691 4666 
L 3169 4666 
L 3169 4134 
L 1269 4134 
L 1269 2991 
Q 1406 3038 1543 3061 
Q 1681 3084 1819 3084 
Q 2600 3084 3056 2656 
Q 3513 2228 3513 1497 
Q 3513 744 3044 326 
Q 2575 -91 1722 -91 
Q 1428 -91 1123 -41 
Q 819 9 494 109 
L 494 744 
Q 775 591 1075 516 
Q 1375 441 1709 441 
Q 2250 441 2565 725 
Q 2881 1009 2881 1497 
Q 2881 1984 2565 2268 
Q 2250 2553 1709 2553 
Q 1456 2553 1204 2497 
Q 953 2441 691 2322 
L 691 4666 
z
" transform="scale(0.015625)"/>
       </defs>
       <use xlink:href="#DejaVuSans-35"/>
      </g>
     </g>
    </g>
    <g id="xtick_7">
     <g id="line2d_7">
      <g>
       <use xlink:href="#m4b6dd9e5b7" x="278.68071" y="320.4" style="stroke: #000000; stroke-width: 0.8"/>
      </g>
     </g>
     <g id="text_7">
      <!-- 6 -->
      <g transform="translate(274.09971 338.34175) scale(0.144 -0.144)">
       <defs>
        <path id="DejaVuSans-36" d="M 2113 2584 
Q 1688 2584 1439 2293 
Q 1191 2003 1191 1497 
Q 1191 994 1439 701 
Q 1688 409 2113 409 
Q 2538 409 2786 701 
Q 3034 994 3034 1497 
Q 3034 2003 2786 2293 
Q 2538 2584 2113 2584 
z
M 3366 4563 
L 3366 3988 
Q 3128 4100 2886 4159 
Q 2644 4219 2406 4219 
Q 1781 4219 1451 3797 
Q 1122 3375 1075 2522 
Q 1259 2794 1537 2939 
Q 1816 3084 2150 3084 
Q 2853 3084 3261 2657 
Q 3669 2231 3669 1497 
Q 3669 778 3244 343 
Q 2819 -91 2113 -91 
Q 1303 -91 875 529 
Q 447 1150 447 2328 
Q 447 3434 972 4092 
Q 1497 4750 2381 4750 
Q 2619 4750 2861 4703 
Q 3103 4656 3366 4563 
z
" transform="scale(0.015625)"/>
       </defs>
       <use xlink:href="#DejaVuSans-36"/>
      </g>
     </g>
    </g>
    <g id="xtick_8">
     <g id="line2d_8">
      <g>
       <use xlink:href="#m4b6dd9e5b7" x="309.611973" y="320.4" style="stroke: #000000; stroke-width: 0.8"/>
      </g>
     </g>
     <g id="text_8">
      <!-- 7 -->
      <g transform="translate(305.030973 338.34175) scale(0.144 -0.144)">
       <defs>
        <path id="DejaVuSans-37" d="M 525 4666 
L 3525 4666 
L 3525 4397 
L 1831 0 
L 1172 0 
L 2766 4134 
L 525 4134 
L 525 4666 
z
" transform="scale(0.015625)"/>
       </defs>
       <use xlink:href="#DejaVuSans-37"/>
      </g>
     </g>
    </g>
    <g id="xtick_9">
     <g id="line2d_9">
      <g>
       <use xlink:href="#m4b6dd9e5b7" x="340.543237" y="320.4" style="stroke: #000000; stroke-width: 0.8"/>
      </g>
     </g>
     <g id="text_9">
      <!-- 8 -->
      <g transform="translate(335.962237 338.34175) scale(0.144 -0.144)">
       <defs>
        <path id="DejaVuSans-38" d="M 2034 2216 
Q 1584 2216 1326 1975 
Q 1069 1734 1069 1313 
Q 1069 891 1326 650 
Q 1584 409 2034 409 
Q 2484 409 2743 651 
Q 3003 894 3003 1313 
Q 3003 1734 2745 1975 
Q 2488 2216 2034 2216 
z
M 1403 2484 
Q 997 2584 770 2862 
Q 544 3141 544 3541 
Q 544 4100 942 4425 
Q 1341 4750 2034 4750 
Q 2731 4750 3128 4425 
Q 3525 4100 3525 3541 
Q 3525 3141 3298 2862 
Q 3072 2584 2669 2484 
Q 3125 2378 3379 2068 
Q 3634 1759 3634 1313 
Q 3634 634 3220 271 
Q 2806 -91 2034 -91 
Q 1263 -91 848 271 
Q 434 634 434 1313 
Q 434 1759 690 2068 
Q 947 2378 1403 2484 
z
M 1172 3481 
Q 1172 3119 1398 2916 
Q 1625 2713 2034 2713 
Q 2441 2713 2670 2916 
Q 2900 3119 2900 3481 
Q 2900 3844 2670 4047 
Q 2441 4250 2034 4250 
Q 1625 4250 1398 4047 
Q 1172 3844 1172 3481 
z
" transform="scale(0.015625)"/>
       </defs>
       <use xlink:href="#DejaVuSans-38"/>
      </g>
     </g>
    </g>
    <g id="text_10">
     <!-- Time (d) -->
     <g transform="translate(176.693182 359.9255) scale(0.192 -0.192)">
      <defs>
       <path id="DejaVuSans-54" d="M -19 4666 
L 3928 4666 
L 3928 4134 
L 2272 4134 
L 2272 0 
L 1638 0 
L 1638 4134 
L -19 4134 
L -19 4666 
z
" transform="scale(0.015625)"/>
       <path id="DejaVuSans-69" d="M 603 3500 
L 1178 3500 
L 1178 0 
L 603 0 
L 603 3500 
z
M 603 4863 
L 1178 4863 
L 1178 4134 
L 603 4134 
L 603 4863 
z
" transform="scale(0.015625)"/>
       <path id="DejaVuSans-6d" d="M 3328 2828 
Q 3544 3216 3844 3400 
Q 4144 3584 4550 3584 
Q 5097 3584 5394 3201 
Q 5691 2819 5691 2113 
L 5691 0 
L 5113 0 
L 5113 2094 
Q 5113 2597 4934 2840 
Q 4756 3084 4391 3084 
Q 3944 3084 3684 2787 
Q 3425 2491 3425 1978 
L 3425 0 
L 2847 0 
L 2847 2094 
Q 2847 2600 2669 2842 
Q 2491 3084 2119 3084 
Q 1678 3084 1418 2786 
Q 1159 2488 1159 1978 
L 1159 0 
L 581 0 
L 581 3500 
L 1159 3500 
L 1159 2956 
Q 1356 3278 1631 3431 
Q 1906 3584 2284 3584 
Q 2666 3584 2933 3390 
Q 3200 3197 3328 2828 
z
" transform="scale(0.015625)"/>
       <path id="DejaVuSans-65" d="M 3597 1894 
L 3597 1613 
L 953 1613 
Q 991 1019 1311 708 
Q 1631 397 2203 397 
Q 2534 397 2845 478 
Q 3156 559 3463 722 
L 3463 178 
Q 3153 47 2828 -22 
Q 2503 -91 2169 -91 
Q 1331 -91 842 396 
Q 353 884 353 1716 
Q 353 2575 817 3079 
Q 1281 3584 2069 3584 
Q 2775 3584 3186 3129 
Q 3597 2675 3597 1894 
z
M 3022 2063 
Q 3016 2534 2758 2815 
Q 2500 3097 2075 3097 
Q 1594 3097 1305 2825 
Q 1016 2553 972 2059 
L 3022 2063 
z
" transform="scale(0.015625)"/>
       <path id="DejaVuSans-20" transform="scale(0.015625)"/>
       <path id="DejaVuSans-28" d="M 1984 4856 
Q 1566 4138 1362 3434 
Q 1159 2731 1159 2009 
Q 1159 1288 1364 580 
Q 1569 -128 1984 -844 
L 1484 -844 
Q 1016 -109 783 600 
Q 550 1309 550 2009 
Q 550 2706 781 3412 
Q 1013 4119 1484 4856 
L 1984 4856 
z
" transform="scale(0.015625)"/>
       <path id="DejaVuSans-64" d="M 2906 2969 
L 2906 4863 
L 3481 4863 
L 3481 0 
L 2906 0 
L 2906 525 
Q 2725 213 2448 61 
Q 2172 -91 1784 -91 
Q 1150 -91 751 415 
Q 353 922 353 1747 
Q 353 2572 751 3078 
Q 1150 3584 1784 3584 
Q 2172 3584 2448 3432 
Q 2725 3281 2906 2969 
z
M 947 1747 
Q 947 1113 1208 752 
Q 1469 391 1925 391 
Q 2381 391 2643 752 
Q 2906 1113 2906 1747 
Q 2906 2381 2643 2742 
Q 2381 3103 1925 3103 
Q 1469 3103 1208 2742 
Q 947 2381 947 1747 
z
" transform="scale(0.015625)"/>
       <path id="DejaVuSans-29" d="M 513 4856 
L 1013 4856 
Q 1481 4119 1714 3412 
Q 1947 2706 1947 2009 
Q 1947 1309 1714 600 
Q 1481 -109 1013 -844 
L 513 -844 
Q 928 -128 1133 580 
Q 1338 1288 1338 2009 
Q 1338 2731 1133 3434 
Q 928 4138 513 4856 
z
" transform="scale(0.015625)"/>
      </defs>
      <use xlink:href="#DejaVuSans-54"/>
      <use xlink:href="#DejaVuSans-69" x="57.958984"/>
      <use xlink:href="#DejaVuSans-6d" x="85.742188"/>
      <use xlink:href="#DejaVuSans-65" x="183.154297"/>
      <use xlink:href="#DejaVuSans-20" x="244.677734"/>
      <use xlink:href="#DejaVuSans-28" x="276.464844"/>
      <use xlink:href="#DejaVuSans-64" x="315.478516"/>
      <use xlink:href="#DejaVuSans-29" x="378.955078"/>
     </g>
    </g>
   </g>
   <g id="matplotlib.axis_2">
    <g id="ytick_1">
     <g id="line2d_10">
      <defs>
       <path id="mccc490d35f" d="M 0 0 
L -3.5 0 
" style="stroke: #000000; stroke-width: 0.8"/>
      </defs>
      <g>
       <use xlink:href="#mccc490d35f" x="90" y="320.4" style="stroke: #000000; stroke-width: 0.8"/>
      </g>
     </g>
     <g id="text_11">
      <!-- 0 -->
      <g transform="translate(73.838 325.870875) scale(0.144 -0.144)">
       <use xlink:href="#DejaVuSans-30"/>
      </g>
     </g>
    </g>
    <g id="ytick_2">
     <g id="line2d_11">
      <g>
       <use xlink:href="#mccc490d35f" x="90" y="286.8" style="stroke: #000000; stroke-width: 0.8"/>
      </g>
     </g>
     <g id="text_12">
      <!-- 1 -->
      <g transform="translate(73.838 292.270875) scale(0.144 -0.144)">
       <use xlink:href="#DejaVuSans-31"/>
      </g>
     </g>
    </g>
    <g id="ytick_3">
     <g id="line2d_12">
      <g>
       <use xlink:href="#mccc490d35f" x="90" y="253.2" style="stroke: #000000; stroke-width: 0.8"/>
      </g>
     </g>
     <g id="text_13">
      <!-- 2 -->
      <g transform="translate(73.838 258.670875) scale(0.144 -0.144)">
       <use xlink:href="#DejaVuSans-32"/>
      </g>
     </g>
    </g>
    <g id="ytick_4">
     <g id="line2d_13">
      <g>
       <use xlink:href="#mccc490d35f" x="90" y="219.6" style="stroke: #000000; stroke-width: 0.8"/>
      </g>
     </g>
     <g id="text_14">
      <!-- 3 -->
      <g transform="translate(73.838 225.070875) scale(0.144 -0.144)">
       <use xlink:href="#DejaVuSans-33"/>
      </g>
     </g>
    </g>
    <g id="ytick_5">
     <g id="line2d_14">
      <g>
       <use xlink:href="#mccc490d35f" x="90" y="186" style="stroke: #000000; stroke-width: 0.8"/>
      </g>
     </g>
     <g id="text_15">
      <!-- 4 -->
      <g transform="translate(73.838 191.470875) scale(0.144 -0.144)">
       <use xlink:href="#DejaVuSans-34"/>
      </g>
     </g>
    </g>
    <g id="ytick_6">
     <g id="line2d_15">
      <g>
       <use xlink:href="#mccc490d35f" x="90" y="152.4" style="stroke: #000000; stroke-width: 0.8"/>
      </g>
     </g>
     <g id="text_16">
      <!-- 5 -->
      <g transform="translate(73.838 157.870875) scale(0.144 -0.144)">
       <use xlink:href="#DejaVuSans-35"/>
      </g>
     </g>
    </g>
    <g id="ytick_7">
     <g id="line2d_16">
      <g>
       <use xlink:href="#mccc490d35f" x="90" y="118.8" style="stroke: #000000; stroke-width: 0.8"/>
      </g>
     </g>
     <g id="text_17">
      <!-- 6 -->
      <g transform="translate(73.838 124.270875) scale(0.144 -0.144)">
       <use xlink:href="#DejaVuSans-36"/>
      </g>
     </g>
    </g>
    <g id="ytick_8">
     <g id="line2d_17">
      <g>
       <use xlink:href="#mccc490d35f" x="90" y="85.2" style="stroke: #000000; stroke-width: 0.8"/>
      </g>
     </g>
     <g id="text_18">
      <!-- 7 -->
      <g transform="translate(73.838 90.670875) scale(0.144 -0.144)">
       <use xlink:href="#DejaVuSans-37"/>
      </g>
     </g>
    </g>
    <g id="ytick_9">
     <g id="line2d_18">
      <g>
       <use xlink:href="#mccc490d35f" x="90" y="51.6" style="stroke: #000000; stroke-width: 0.8"/>
      </g>
     </g>
     <g id="text_19">
      <!-- 8 -->
      <g transform="translate(73.838 57.070875) scale(0.144 -0.144)">
       <use xlink:href="#DejaVuSans-38"/>
      </g>
     </g>
    </g>
    <g id="text_20">
     <!-- Log10(V) -->
     <g transform="translate(65.845 225.2235) rotate(-90) scale(0.192 -0.192)">
      <defs>
       <path id="DejaVuSans-4c" d="M 628 4666 
L 1259 4666 
L 1259 531 
L 3531 531 
L 3531 0 
L 628 0 
L 628 4666 
z
" transform="scale(0.015625)"/>
       <path id="DejaVuSans-6f" d="M 1959 3097 
Q 1497 3097 1228 2736 
Q 959 2375 959 1747 
Q 959 1119 1226 758 
Q 1494 397 1959 397 
Q 2419 397 2687 759 
Q 2956 1122 2956 1747 
Q 2956 2369 2687 2733 
Q 2419 3097 1959 3097 
z
M 1959 3584 
Q 2709 3584 3137 3096 
Q 3566 2609 3566 1747 
Q 3566 888 3137 398 
Q 2709 -91 1959 -91 
Q 1206 -91 779 398 
Q 353 888 353 1747 
Q 353 2609 779 3096 
Q 1206 3584 1959 3584 
z
" transform="scale(0.015625)"/>
       <path id="DejaVuSans-67" d="M 2906 1791 
Q 2906 2416 2648 2759 
Q 2391 3103 1925 3103 
Q 1463 3103 1205 2759 
Q 947 2416 947 1791 
Q 947 1169 1205 825 
Q 1463 481 1925 481 
Q 2391 481 2648 825 
Q 2906 1169 2906 1791 
z
M 3481 434 
Q 3481 -459 3084 -895 
Q 2688 -1331 1869 -1331 
Q 1566 -1331 1297 -1286 
Q 1028 -1241 775 -1147 
L 775 -588 
Q 1028 -725 1275 -790 
Q 1522 -856 1778 -856 
Q 2344 -856 2625 -561 
Q 2906 -266 2906 331 
L 2906 616 
Q 2728 306 2450 153 
Q 2172 0 1784 0 
Q 1141 0 747 490 
Q 353 981 353 1791 
Q 353 2603 747 3093 
Q 1141 3584 1784 3584 
Q 2172 3584 2450 3431 
Q 2728 3278 2906 2969 
L 2906 3500 
L 3481 3500 
L 3481 434 
z
" transform="scale(0.015625)"/>
       <path id="DejaVuSans-56" d="M 1831 0 
L 50 4666 
L 709 4666 
L 2188 738 
L 3669 4666 
L 4325 4666 
L 2547 0 
L 1831 0 
z
" transform="scale(0.015625)"/>
      </defs>
      <use xlink:href="#DejaVuSans-4c"/>
      <use xlink:href="#DejaVuSans-6f" x="53.962891"/>
      <use xlink:href="#DejaVuSans-67" x="115.144531"/>
      <use xlink:href="#DejaVuSans-31" x="178.621094"/>
      <use xlink:href="#DejaVuSans-30" x="242.244141"/>
      <use xlink:href="#DejaVuSans-28" x="305.867188"/>
      <use xlink:href="#DejaVuSans-56" x="344.880859"/>
      <use xlink:href="#DejaVuSans-29" x="413.289062"/>
     </g>
    </g>
   </g>
   <g id="patch_3">
    <path d="M 90 320.4 
L 90 43.2 
" style="fill: none; stroke: #000000; stroke-width: 0.8; stroke-linejoin: miter; stroke-linecap: square"/>
   </g>
   <g id="patch_4">
    <path d="M 343.636364 320.4 
L 343.636364 43.2 
" style="fill: none; stroke: #000000; stroke-width: 0.8; stroke-linejoin: miter; stroke-linecap: square"/>
   </g>
   <g id="patch_5">
    <path d="M 90 320.4 
L 343.636364 320.4 
" style="fill: none; stroke: #000000; stroke-width: 0.8; stroke-linejoin: miter; stroke-linecap: square"/>
   </g>
   <g id="patch_6">
    <path d="M 90 43.2 
L 343.636364 43.2 
" style="fill: none; stroke: #000000; stroke-width: 0.8; stroke-linejoin: miter; stroke-linecap: square"/>
   </g>
   <g id="PolyCollection_1">
    <defs>
     <path id="m9088307982" d="M 93.093126 -39.6 
L 93.093126 -39.6 
L 93.094298 -39.6 
L 93.106015 -39.6 
L 93.223188 -39.6 
L 93.373641 -39.6 
L 93.788499 -46.495521 
L 94.374372 -55.611431 
L 95.230886 -63.315626 
L 96.321878 -69.803752 
L 97.7688 -76.30322 
L 99.346855 -82.496614 
L 100.924911 -88.339018 
L 102.659188 -94.639973 
L 104.393464 -100.886837 
L 106.127741 -106.737204 
L 107.862018 -112.414097 
L 109.596295 -118.02443 
L 111.330572 -123.632386 
L 113.064849 -129.028505 
L 114.799126 -134.24016 
L 116.740863 -140.070703 
L 118.289438 -144.70185 
L 120.379588 -150.958 
L 121.92106 -155.544907 
L 124.135824 -162.131325 
L 125.641459 -166.57392 
L 127.671344 -172.517643 
L 129.226228 -177.043867 
L 131.442149 -183.333063 
L 133.03115 -187.773411 
L 135.447824 -194.208444 
L 137.041963 -198.25265 
L 139.283173 -203.586537 
L 140.953572 -207.091321 
L 143.477592 -211.865152 
L 145.255308 -214.533192 
L 147.452888 -217.16253 
L 149.160565 -218.417534 
L 151.142047 -219.416082 
L 153.123528 -220.038832 
L 155.105009 -220.453552 
L 156.860837 -220.682958 
L 158.616665 -220.793235 
L 160.372493 -220.742641 
L 162.128321 -220.618449 
L 163.884149 -220.462824 
L 165.64075 -220.282027 
L 167.487809 -220.068441 
L 169.411359 -219.823765 
L 171.464494 -219.553242 
L 173.630078 -219.250425 
L 176.723204 -218.798535 
L 179.271361 -218.414057 
L 182.364487 -217.934881 
L 185.457614 -217.446283 
L 188.55074 -216.950257 
L 191.643866 -216.44785 
L 194.736993 -215.939384 
L 197.830119 -215.424613 
L 200.923246 -214.902838 
L 204.016372 -214.372976 
L 207.109498 -213.833632 
L 210.202625 -213.283147 
L 213.295751 -212.719641 
L 216.388878 -212.110609 
L 219.482004 -211.39391 
L 222.57513 -210.659578 
L 225.668257 -209.906607 
L 228.761383 -209.133789 
L 231.854509 -208.339713 
L 234.947636 -207.52275 
L 238.040762 -206.681036 
L 241.133889 -205.812438 
L 244.227015 -204.914513 
L 247.320141 -203.984453 
L 250.413268 -203.019016 
L 253.506394 -202.014437 
L 256.599521 -200.966312 
L 259.692647 -199.869444 
L 262.785773 -198.717649 
L 265.8789 -197.503483 
L 268.972026 -196.217879 
L 272.065152 -194.84964 
L 275.158279 -193.384713 
L 278.251405 -191.805126 
L 281.344532 -190.087382 
L 284.437658 -188.169731 
L 287.530784 -185.542956 
L 290.623911 -182.50859 
L 293.717037 -178.90557 
L 296.810164 -174.461128 
L 299.90329 -168.671174 
L 302.996416 -160.516015 
L 306.089543 -147.794713 
L 309.182669 -124.23861 
L 309.45094 -118.408144 
L 309.688202 -98.889446 
L 309.818298 -79.94932 
L 309.931429 -62.063527 
L 309.980661 -54.527717 
L 310.080361 -41.462669 
L 310.157049 -39.6 
L 310.196009 -39.6 
L 310.235793 -39.6 
L 310.352933 -39.6 
L 310.470074 -39.6 
L 310.52715 -39.6 
L 310.607875 -39.6 
L 310.827382 -39.6 
L 311.128594 -39.6 
L 312.732949 -39.6 
L 315.826076 -39.6 
L 318.919202 -39.6 
L 322.012328 -39.6 
L 325.105455 -39.6 
L 328.198581 -39.6 
L 331.291708 -39.6 
L 334.384834 -39.6 
L 337.47796 -39.6 
L 340.543237 -39.6 
L 340.543237 -39.6 
L 340.543237 -39.6 
L 337.47796 -39.6 
L 334.384834 -39.6 
L 331.291708 -39.6 
L 328.198581 -39.6 
L 325.105455 -39.6 
L 322.012328 -39.6 
L 318.919202 -40.122433 
L 315.826076 -61.369383 
L 312.732949 -94.011604 
L 311.128594 -110.328872 
L 310.827382 -113.137913 
L 310.607875 -115.184991 
L 310.52715 -115.937817 
L 310.470074 -116.470092 
L 310.352933 -117.562521 
L 310.235793 -118.65495 
L 310.196009 -119.025965 
L 310.157049 -119.389297 
L 310.080361 -121.861537 
L 309.980661 -125.514831 
L 309.931429 -126.994894 
L 309.818298 -129.617308 
L 309.688202 -133.495232 
L 309.45094 -137.861955 
L 309.182669 -142.52289 
L 306.089543 -163.947808 
L 302.996416 -172.853101 
L 299.90329 -178.492741 
L 296.810164 -182.659314 
L 293.717037 -185.980761 
L 290.623911 -188.75149 
L 287.530784 -191.140177 
L 284.437658 -193.338487 
L 281.344532 -195.3099 
L 278.251405 -197.099329 
L 275.158279 -198.738888 
L 272.065152 -200.252313 
L 268.972026 -201.657626 
L 265.8789 -202.968834 
L 262.785773 -204.197053 
L 259.692647 -205.351266 
L 256.599521 -206.438878 
L 253.506394 -207.481144 
L 250.413268 -208.513644 
L 247.320141 -209.49607 
L 244.227015 -210.431948 
L 241.133889 -211.324389 
L 238.040762 -212.1762 
L 234.947636 -212.989979 
L 231.854509 -213.768192 
L 228.761383 -214.513229 
L 225.668257 -215.22745 
L 222.57513 -215.913211 
L 219.482004 -216.572878 
L 216.388878 -217.286724 
L 213.295751 -217.982503 
L 210.202625 -218.654722 
L 207.109498 -219.302658 
L 204.016372 -219.925421 
L 200.923246 -220.522028 
L 197.830119 -221.0915 
L 194.736993 -221.632953 
L 191.643866 -222.145688 
L 188.55074 -222.62924 
L 185.457614 -223.083362 
L 182.364487 -223.5079 
L 179.271361 -223.998589 
L 176.723204 -224.419388 
L 173.630078 -224.90916 
L 171.464494 -225.232031 
L 169.411359 -225.521544 
L 167.487809 -225.778901 
L 165.64075 -225.999688 
L 163.884149 -226.181791 
L 162.128321 -226.334754 
L 160.372493 -226.448707 
L 158.616665 -226.512577 
L 156.860837 -226.516198 
L 155.105009 -226.432141 
L 153.123528 -226.222446 
L 151.142047 -225.818545 
L 149.160565 -225.203798 
L 147.452888 -224.369275 
L 145.255308 -222.924649 
L 143.477592 -221.206581 
L 140.953572 -218.97245 
L 139.283173 -216.969644 
L 137.041963 -213.700774 
L 135.447824 -210.666561 
L 133.03115 -205.174625 
L 131.442149 -200.933899 
L 129.226228 -194.453443 
L 127.671344 -189.529783 
L 125.641459 -182.842416 
L 124.135824 -177.711375 
L 121.92106 -170.006103 
L 120.379588 -164.560973 
L 118.289438 -157.116053 
L 116.740863 -151.573313 
L 114.799126 -144.59733 
L 113.064849 -138.348262 
L 111.330572 -132.083666 
L 109.596295 -125.827859 
L 107.862018 -119.609289 
L 106.127741 -113.592663 
L 104.393464 -107.557258 
L 102.659188 -101.494195 
L 100.924911 -95.453836 
L 99.346855 -90.147025 
L 97.7688 -84.2855 
L 96.321878 -78.193188 
L 95.230886 -71.626369 
L 94.374372 -63.458494 
L 93.788499 -53.132309 
L 93.373641 -39.621758 
L 93.223188 -39.6 
L 93.106015 -39.6 
L 93.094298 -39.6 
L 93.093126 -39.6 
z
" style="stroke: #808080; stroke-opacity: 0.2"/>
    </defs>
    <g clip-path="url(#pc2facca432)">
     <use xlink:href="#m9088307982" x="0" y="360" style="fill: #808080; fill-opacity: 0.2; stroke: #808080; stroke-opacity: 0.2"/>
    </g>
   </g>
   <g id="PathCollection_1">
    <defs>
     <path id="me14c40ca07" d="M 0 3 
C 0.795609 3 1.55874 2.683901 2.12132 2.12132 
C 2.683901 1.55874 3 0.795609 3 0 
C 3 -0.795609 2.683901 -1.55874 2.12132 -2.12132 
C 1.55874 -2.683901 0.795609 -3 0 -3 
C -0.795609 -3 -1.55874 -2.683901 -2.12132 -2.12132 
C -2.683901 -1.55874 -3 -0.795609 -3 0 
C -3 0.795609 -2.683901 1.55874 -2.12132 2.12132 
C -1.55874 2.683901 -0.795609 3 0 3 
z
" style="stroke: #000000; stroke-opacity: 0.8"/>
    </defs>
    <g clip-path="url(#pc2facca432)">
     <use xlink:href="#me14c40ca07" x="93.093126" y="320.4" style="fill: #808080; fill-opacity: 0.8; stroke: #000000; stroke-opacity: 0.8"/>
     <use xlink:href="#me14c40ca07" x="124.02439" y="191.915937" style="fill: #808080; fill-opacity: 0.8; stroke: #000000; stroke-opacity: 0.8"/>
     <use xlink:href="#me14c40ca07" x="154.955654" y="139.133896" style="fill: #808080; fill-opacity: 0.8; stroke: #000000; stroke-opacity: 0.8"/>
     <use xlink:href="#me14c40ca07" x="185.886918" y="123.121682" style="fill: #808080; fill-opacity: 0.8; stroke: #000000; stroke-opacity: 0.8"/>
     <use xlink:href="#me14c40ca07" x="216.818182" y="148.291014" style="fill: #808080; fill-opacity: 0.8; stroke: #000000; stroke-opacity: 0.8"/>
     <use xlink:href="#me14c40ca07" x="247.749446" y="180.605232" style="fill: #808080; fill-opacity: 0.8; stroke: #000000; stroke-opacity: 0.8"/>
     <use xlink:href="#me14c40ca07" x="278.68071" y="145.787689" style="fill: #808080; fill-opacity: 0.8; stroke: #000000; stroke-opacity: 0.8"/>
     <use xlink:href="#me14c40ca07" x="309.611973" y="237.968504" style="fill: #808080; fill-opacity: 0.8; stroke: #000000; stroke-opacity: 0.8"/>
     <use xlink:href="#me14c40ca07" x="340.543237" y="320.4" style="fill: #808080; fill-opacity: 0.8; stroke: #000000; stroke-opacity: 0.8"/>
    </g>
   </g>
   <g id="line2d_19">
    <path d="M 93.093126 320.4 
L 93.094298 320.4 
L 93.106015 320.4 
L 93.223188 320.4 
L 93.373641 320.4 
L 93.788499 311.871651 
L 94.374372 302.223866 
L 95.230886 294.539159 
L 96.321878 288.180147 
L 97.7688 281.792888 
L 99.346855 275.842792 
L 100.924911 270.264573 
L 102.659188 264.363379 
L 104.393464 258.549578 
L 106.127741 252.752589 
L 107.862018 246.962233 
L 109.596295 241.174911 
L 111.330572 235.389904 
L 113.064849 229.607616 
L 114.799126 223.666962 
L 116.740863 216.968731 
L 118.289438 211.651479 
L 120.379588 204.465712 
L 121.92106 199.20988 
L 124.135824 191.673316 
L 125.641459 186.626962 
L 127.671344 179.903098 
L 129.226228 174.878759 
L 131.442149 167.948927 
L 133.03115 163.242365 
L 135.447824 156.641274 
L 137.041963 152.756107 
L 139.283173 148.054313 
L 140.953572 145.16056 
L 143.477592 141.77746 
L 145.255308 140.020369 
L 147.452888 138.434736 
L 149.160565 137.553519 
L 151.142047 136.819854 
L 153.123528 136.318994 
L 155.105009 135.99003 
L 156.860837 135.806799 
L 158.616665 135.701723 
L 160.372493 135.658409 
L 162.128321 135.664662 
L 163.884149 135.711377 
L 165.64075 135.791784 
L 167.487809 135.907052 
L 169.411359 136.055911 
L 171.464494 136.243132 
L 173.630078 136.468737 
L 176.723204 136.835314 
L 179.271361 137.172763 
L 182.364487 137.62076 
L 185.457614 138.106777 
L 188.55074 138.62676 
L 191.643866 139.176997 
L 194.736993 139.754156 
L 197.830119 140.355368 
L 200.923246 140.978276 
L 204.016372 141.621064 
L 207.109498 142.28244 
L 210.202625 142.961598 
L 213.295751 143.658163 
L 216.388878 144.372142 
L 219.482004 145.103866 
L 222.57513 145.85396 
L 225.668257 146.623301 
L 228.761383 147.413014 
L 231.854509 148.224456 
L 234.947636 149.059229 
L 238.040762 149.919192 
L 241.133889 150.806491 
L 244.227015 151.723596 
L 247.320141 152.673359 
L 250.413268 153.659082 
L 253.506394 154.684606 
L 256.599521 155.754436 
L 259.692647 156.873891 
L 262.785773 158.049315 
L 265.8789 159.288354 
L 268.972026 160.600334 
L 272.065152 161.996796 
L 275.158279 163.492253 
L 278.251405 165.105309 
L 281.344532 166.860349 
L 284.437658 168.790218 
L 287.530784 170.940648 
L 290.623911 173.378025 
L 293.717037 176.204043 
L 296.810164 179.586222 
L 299.90329 183.830663 
L 302.996416 189.594878 
L 306.089543 198.779196 
L 309.182669 224.261473 
L 309.45094 231.21329 
L 309.688202 241.271439 
L 309.818298 250.301708 
L 309.931429 261.738233 
L 309.980661 267.827622 
L 310.080361 281.690267 
L 310.157049 292.932233 
L 310.196009 298.607114 
L 310.235793 304.423114 
L 310.352933 320.4 
L 310.470074 320.4 
L 310.52715 320.4 
L 310.607875 320.4 
L 310.827382 320.4 
L 311.128594 320.4 
L 312.732949 320.4 
L 315.826076 320.4 
L 318.919202 320.4 
L 322.012328 320.4 
L 325.105455 320.4 
L 328.198581 320.4 
L 331.291708 320.4 
L 334.384834 320.4 
L 337.47796 320.4 
L 340.543237 320.4 
" clip-path="url(#pc2facca432)" style="fill: none; stroke: #808080; stroke-width: 1.5; stroke-linecap: square"/>
   </g>
  </g>
  <g id="axes_2">
   <g id="patch_7">
    <path d="M 394.363636 320.4 
L 648 320.4 
L 648 43.2 
L 394.363636 43.2 
z
" style="fill: #ffffff"/>
   </g>
   <g id="matplotlib.axis_3">
    <g id="xtick_10">
     <g id="line2d_20">
      <g>
       <use xlink:href="#m4b6dd9e5b7" x="397.456763" y="320.4" style="stroke: #000000; stroke-width: 0.8"/>
      </g>
     </g>
     <g id="text_21">
      <!-- 0 -->
      <g transform="translate(392.875763 338.34175) scale(0.144 -0.144)">
       <use xlink:href="#DejaVuSans-30"/>
      </g>
     </g>
    </g>
    <g id="xtick_11">
     <g id="line2d_21">
      <g>
       <use xlink:href="#m4b6dd9e5b7" x="428.388027" y="320.4" style="stroke: #000000; stroke-width: 0.8"/>
      </g>
     </g>
     <g id="text_22">
      <!-- 1 -->
      <g transform="translate(423.807027 338.34175) scale(0.144 -0.144)">
       <use xlink:href="#DejaVuSans-31"/>
      </g>
     </g>
    </g>
    <g id="xtick_12">
     <g id="line2d_22">
      <g>
       <use xlink:href="#m4b6dd9e5b7" x="459.31929" y="320.4" style="stroke: #000000; stroke-width: 0.8"/>
      </g>
     </g>
     <g id="text_23">
      <!-- 2 -->
      <g transform="translate(454.73829 338.34175) scale(0.144 -0.144)">
       <use xlink:href="#DejaVuSans-32"/>
      </g>
     </g>
    </g>
    <g id="xtick_13">
     <g id="line2d_23">
      <g>
       <use xlink:href="#m4b6dd9e5b7" x="490.250554" y="320.4" style="stroke: #000000; stroke-width: 0.8"/>
      </g>
     </g>
     <g id="text_24">
      <!-- 3 -->
      <g transform="translate(485.669554 338.34175) scale(0.144 -0.144)">
       <use xlink:href="#DejaVuSans-33"/>
      </g>
     </g>
    </g>
    <g id="xtick_14">
     <g id="line2d_24">
      <g>
       <use xlink:href="#m4b6dd9e5b7" x="521.181818" y="320.4" style="stroke: #000000; stroke-width: 0.8"/>
      </g>
     </g>
     <g id="text_25">
      <!-- 4 -->
      <g transform="translate(516.600818 338.34175) scale(0.144 -0.144)">
       <use xlink:href="#DejaVuSans-34"/>
      </g>
     </g>
    </g>
    <g id="xtick_15">
     <g id="line2d_25">
      <g>
       <use xlink:href="#m4b6dd9e5b7" x="552.113082" y="320.4" style="stroke: #000000; stroke-width: 0.8"/>
      </g>
     </g>
     <g id="text_26">
      <!-- 5 -->
      <g transform="translate(547.532082 338.34175) scale(0.144 -0.144)">
       <use xlink:href="#DejaVuSans-35"/>
      </g>
     </g>
    </g>
    <g id="xtick_16">
     <g id="line2d_26">
      <g>
       <use xlink:href="#m4b6dd9e5b7" x="583.044346" y="320.4" style="stroke: #000000; stroke-width: 0.8"/>
      </g>
     </g>
     <g id="text_27">
      <!-- 6 -->
      <g transform="translate(578.463346 338.34175) scale(0.144 -0.144)">
       <use xlink:href="#DejaVuSans-36"/>
      </g>
     </g>
    </g>
    <g id="xtick_17">
     <g id="line2d_27">
      <g>
       <use xlink:href="#m4b6dd9e5b7" x="613.97561" y="320.4" style="stroke: #000000; stroke-width: 0.8"/>
      </g>
     </g>
     <g id="text_28">
      <!-- 7 -->
      <g transform="translate(609.39461 338.34175) scale(0.144 -0.144)">
       <use xlink:href="#DejaVuSans-37"/>
      </g>
     </g>
    </g>
    <g id="xtick_18">
     <g id="line2d_28">
      <g>
       <use xlink:href="#m4b6dd9e5b7" x="644.906874" y="320.4" style="stroke: #000000; stroke-width: 0.8"/>
      </g>
     </g>
     <g id="text_29">
      <!-- 8 -->
      <g transform="translate(640.325874 338.34175) scale(0.144 -0.144)">
       <use xlink:href="#DejaVuSans-38"/>
      </g>
     </g>
    </g>
    <g id="text_30">
     <!-- Time (d) -->
     <g transform="translate(481.056818 359.9255) scale(0.192 -0.192)">
      <use xlink:href="#DejaVuSans-54"/>
      <use xlink:href="#DejaVuSans-69" x="57.958984"/>
      <use xlink:href="#DejaVuSans-6d" x="85.742188"/>
      <use xlink:href="#DejaVuSans-65" x="183.154297"/>
      <use xlink:href="#DejaVuSans-20" x="244.677734"/>
      <use xlink:href="#DejaVuSans-28" x="276.464844"/>
      <use xlink:href="#DejaVuSans-64" x="315.478516"/>
      <use xlink:href="#DejaVuSans-29" x="378.955078"/>
     </g>
    </g>
   </g>
   <g id="matplotlib.axis_4">
    <g id="ytick_10">
     <g id="line2d_29">
      <g>
       <use xlink:href="#mccc490d35f" x="394.363636" y="320.4" style="stroke: #000000; stroke-width: 0.8"/>
      </g>
     </g>
     <g id="text_31">
      <!-- 4.5 -->
      <g transform="translate(364.463136 325.870875) scale(0.144 -0.144)">
       <defs>
        <path id="DejaVuSans-2e" d="M 684 794 
L 1344 794 
L 1344 0 
L 684 0 
L 684 794 
z
" transform="scale(0.015625)"/>
       </defs>
       <use xlink:href="#DejaVuSans-34"/>
       <use xlink:href="#DejaVuSans-2e" x="63.623047"/>
       <use xlink:href="#DejaVuSans-35" x="95.410156"/>
      </g>
     </g>
    </g>
    <g id="ytick_11">
     <g id="line2d_30">
      <g>
       <use xlink:href="#mccc490d35f" x="394.363636" y="277.753846" style="stroke: #000000; stroke-width: 0.8"/>
      </g>
     </g>
     <g id="text_32">
      <!-- 5.0 -->
      <g transform="translate(364.463136 283.224721) scale(0.144 -0.144)">
       <use xlink:href="#DejaVuSans-35"/>
       <use xlink:href="#DejaVuSans-2e" x="63.623047"/>
       <use xlink:href="#DejaVuSans-30" x="95.410156"/>
      </g>
     </g>
    </g>
    <g id="ytick_12">
     <g id="line2d_31">
      <g>
       <use xlink:href="#mccc490d35f" x="394.363636" y="235.107692" style="stroke: #000000; stroke-width: 0.8"/>
      </g>
     </g>
     <g id="text_33">
      <!-- 5.5 -->
      <g transform="translate(364.463136 240.578567) scale(0.144 -0.144)">
       <use xlink:href="#DejaVuSans-35"/>
       <use xlink:href="#DejaVuSans-2e" x="63.623047"/>
       <use xlink:href="#DejaVuSans-35" x="95.410156"/>
      </g>
     </g>
    </g>
    <g id="ytick_13">
     <g id="line2d_32">
      <g>
       <use xlink:href="#mccc490d35f" x="394.363636" y="192.461538" style="stroke: #000000; stroke-width: 0.8"/>
      </g>
     </g>
     <g id="text_34">
      <!-- 6.0 -->
      <g transform="translate(364.463136 197.932413) scale(0.144 -0.144)">
       <use xlink:href="#DejaVuSans-36"/>
       <use xlink:href="#DejaVuSans-2e" x="63.623047"/>
       <use xlink:href="#DejaVuSans-30" x="95.410156"/>
      </g>
     </g>
    </g>
    <g id="ytick_14">
     <g id="line2d_33">
      <g>
       <use xlink:href="#mccc490d35f" x="394.363636" y="149.815385" style="stroke: #000000; stroke-width: 0.8"/>
      </g>
     </g>
     <g id="text_35">
      <!-- 6.5 -->
      <g transform="translate(364.463136 155.28626) scale(0.144 -0.144)">
       <use xlink:href="#DejaVuSans-36"/>
       <use xlink:href="#DejaVuSans-2e" x="63.623047"/>
       <use xlink:href="#DejaVuSans-35" x="95.410156"/>
      </g>
     </g>
    </g>
    <g id="ytick_15">
     <g id="line2d_34">
      <g>
       <use xlink:href="#mccc490d35f" x="394.363636" y="107.169231" style="stroke: #000000; stroke-width: 0.8"/>
      </g>
     </g>
     <g id="text_36">
      <!-- 7.0 -->
      <g transform="translate(364.463136 112.640106) scale(0.144 -0.144)">
       <use xlink:href="#DejaVuSans-37"/>
       <use xlink:href="#DejaVuSans-2e" x="63.623047"/>
       <use xlink:href="#DejaVuSans-30" x="95.410156"/>
      </g>
     </g>
    </g>
    <g id="ytick_16">
     <g id="line2d_35">
      <g>
       <use xlink:href="#mccc490d35f" x="394.363636" y="64.523077" style="stroke: #000000; stroke-width: 0.8"/>
      </g>
     </g>
     <g id="text_37">
      <!-- 7.5 -->
      <g transform="translate(364.463136 69.993952) scale(0.144 -0.144)">
       <use xlink:href="#DejaVuSans-37"/>
       <use xlink:href="#DejaVuSans-2e" x="63.623047"/>
       <use xlink:href="#DejaVuSans-35" x="95.410156"/>
      </g>
     </g>
    </g>
    <g id="text_38">
     <!-- Log10(CD8TE) -->
     <g transform="translate(356.470136 250.7895) rotate(-90) scale(0.192 -0.192)">
      <defs>
       <path id="DejaVuSans-43" d="M 4122 4306 
L 4122 3641 
Q 3803 3938 3442 4084 
Q 3081 4231 2675 4231 
Q 1875 4231 1450 3742 
Q 1025 3253 1025 2328 
Q 1025 1406 1450 917 
Q 1875 428 2675 428 
Q 3081 428 3442 575 
Q 3803 722 4122 1019 
L 4122 359 
Q 3791 134 3420 21 
Q 3050 -91 2638 -91 
Q 1578 -91 968 557 
Q 359 1206 359 2328 
Q 359 3453 968 4101 
Q 1578 4750 2638 4750 
Q 3056 4750 3426 4639 
Q 3797 4528 4122 4306 
z
" transform="scale(0.015625)"/>
       <path id="DejaVuSans-44" d="M 1259 4147 
L 1259 519 
L 2022 519 
Q 2988 519 3436 956 
Q 3884 1394 3884 2338 
Q 3884 3275 3436 3711 
Q 2988 4147 2022 4147 
L 1259 4147 
z
M 628 4666 
L 1925 4666 
Q 3281 4666 3915 4102 
Q 4550 3538 4550 2338 
Q 4550 1131 3912 565 
Q 3275 0 1925 0 
L 628 0 
L 628 4666 
z
" transform="scale(0.015625)"/>
       <path id="DejaVuSans-45" d="M 628 4666 
L 3578 4666 
L 3578 4134 
L 1259 4134 
L 1259 2753 
L 3481 2753 
L 3481 2222 
L 1259 2222 
L 1259 531 
L 3634 531 
L 3634 0 
L 628 0 
L 628 4666 
z
" transform="scale(0.015625)"/>
      </defs>
      <use xlink:href="#DejaVuSans-4c"/>
      <use xlink:href="#DejaVuSans-6f" x="53.962891"/>
      <use xlink:href="#DejaVuSans-67" x="115.144531"/>
      <use xlink:href="#DejaVuSans-31" x="178.621094"/>
      <use xlink:href="#DejaVuSans-30" x="242.244141"/>
      <use xlink:href="#DejaVuSans-28" x="305.867188"/>
      <use xlink:href="#DejaVuSans-43" x="344.880859"/>
      <use xlink:href="#DejaVuSans-44" x="414.705078"/>
      <use xlink:href="#DejaVuSans-38" x="491.707031"/>
      <use xlink:href="#DejaVuSans-54" x="555.330078"/>
      <use xlink:href="#DejaVuSans-45" x="616.414062"/>
      <use xlink:href="#DejaVuSans-29" x="679.597656"/>
     </g>
    </g>
   </g>
   <g id="patch_8">
    <path d="M 394.363636 320.4 
L 394.363636 43.2 
" style="fill: none; stroke: #000000; stroke-width: 0.8; stroke-linejoin: miter; stroke-linecap: square"/>
   </g>
   <g id="patch_9">
    <path d="M 648 320.4 
L 648 43.2 
" style="fill: none; stroke: #000000; stroke-width: 0.8; stroke-linejoin: miter; stroke-linecap: square"/>
   </g>
   <g id="patch_10">
    <path d="M 394.363636 320.4 
L 648 320.4 
" style="fill: none; stroke: #000000; stroke-width: 0.8; stroke-linejoin: miter; stroke-linecap: square"/>
   </g>
   <g id="patch_11">
    <path d="M 394.363636 43.2 
L 648 43.2 
" style="fill: none; stroke: #000000; stroke-width: 0.8; stroke-linejoin: miter; stroke-linecap: square"/>
   </g>
   <g id="PolyCollection_2">
    <defs>
     <path id="m455dfaf1d5" d="M 397.456763 -143.738252 
L 397.456763 -143.738252 
L 397.457934 -143.738252 
L 397.469652 -143.738252 
L 397.586825 -143.738252 
L 397.737277 -143.738252 
L 398.152135 -143.738252 
L 398.738008 -143.738252 
L 399.594523 -143.738252 
L 400.685514 -143.738252 
L 402.132436 -143.738252 
L 403.710492 -143.738252 
L 405.288547 -143.738252 
L 407.022824 -143.738252 
L 408.757101 -143.738252 
L 410.491378 -143.738252 
L 412.225655 -143.738252 
L 413.959931 -143.738252 
L 415.694208 -143.738252 
L 417.428485 -143.738252 
L 419.162762 -143.738252 
L 421.104499 -143.738252 
L 422.653075 -143.738252 
L 424.743224 -143.738252 
L 426.284697 -143.738253 
L 428.49946 -143.738253 
L 430.005095 -143.738253 
L 432.03498 -143.738254 
L 433.589864 -143.738254 
L 435.805785 -143.738257 
L 437.394786 -143.738259 
L 439.811461 -143.738265 
L 441.405599 -143.738273 
L 443.646809 -143.738288 
L 445.317208 -143.738309 
L 447.841228 -143.738356 
L 449.618944 -143.738417 
L 451.816525 -143.738522 
L 453.524202 -143.738652 
L 455.505683 -143.738874 
L 457.487164 -143.739232 
L 459.468646 -143.739768 
L 461.224474 -143.740451 
L 462.980302 -143.741459 
L 464.73613 -143.742937 
L 466.491958 -143.744979 
L 468.247786 -143.74787 
L 470.004387 -143.751912 
L 471.851445 -143.757812 
L 473.774995 -143.766376 
L 475.828131 -143.779735 
L 477.993714 -143.799703 
L 481.08684 -143.842256 
L 483.634997 -143.897003 
L 486.728124 -143.993419 
L 489.82125 -144.137585 
L 492.914376 -144.348849 
L 496.007503 -144.636817 
L 499.100629 -145.012564 
L 502.193756 -145.497836 
L 505.286882 -146.106745 
L 508.380008 -146.849937 
L 511.473135 -147.733333 
L 514.566261 -148.757238 
L 517.659388 -149.915985 
L 520.752514 -151.198159 
L 523.84564 -152.587354 
L 526.938767 -154.063334 
L 530.031893 -155.603416 
L 533.125019 -157.183878 
L 536.218146 -158.781245 
L 539.311272 -160.373345 
L 542.404399 -161.940083 
L 545.497525 -163.46393 
L 548.590651 -164.930172 
L 551.683778 -166.326949 
L 554.776904 -167.645151 
L 557.870031 -168.040258 
L 560.963157 -167.840503 
L 564.056283 -167.641264 
L 567.14941 -167.442761 
L 570.242536 -167.24514 
L 573.335662 -167.0485 
L 576.428789 -166.85291 
L 579.521915 -166.658413 
L 582.615042 -166.465039 
L 585.708168 -166.272809 
L 588.801294 -166.081735 
L 591.894421 -165.891826 
L 594.987547 -165.703086 
L 598.080674 -165.515518 
L 601.1738 -165.329124 
L 604.266926 -165.143905 
L 607.360053 -164.959859 
L 610.453179 -164.776986 
L 613.546305 -164.595183 
L 613.814577 -164.579477 
L 614.051838 -164.565596 
L 614.181935 -164.557987 
L 614.295066 -164.551372 
L 614.344297 -164.548494 
L 614.443997 -164.542666 
L 614.520686 -164.538185 
L 614.559646 -164.535908 
L 614.599429 -164.533584 
L 614.71657 -164.526741 
L 614.83371 -164.5199 
L 614.890786 -164.516567 
L 614.971511 -164.511854 
L 615.191018 -164.499042 
L 615.49223 -164.481471 
L 617.096586 -164.388077 
L 620.189712 -164.208889 
L 623.282838 -164.030867 
L 626.375965 -163.85401 
L 629.469091 -163.678316 
L 632.562218 -163.503783 
L 635.655344 -163.330408 
L 638.74847 -163.115349 
L 641.841597 -162.891607 
L 644.906874 -162.67176 
L 644.906874 -189.399275 
L 644.906874 -189.399275 
L 641.841597 -189.695183 
L 638.74847 -189.985821 
L 635.655344 -190.266861 
L 632.562218 -190.536496 
L 629.469091 -190.792679 
L 626.375965 -191.033096 
L 623.282838 -191.25515 
L 620.189712 -191.454888 
L 617.096586 -191.631498 
L 615.49223 -191.71312 
L 615.191018 -191.727408 
L 614.971511 -191.73763 
L 614.890786 -191.741348 
L 614.83371 -191.743965 
L 614.71657 -191.749289 
L 614.599429 -191.754589 
L 614.559646 -191.756382 
L 614.520686 -191.758106 
L 614.443997 -191.761498 
L 614.344297 -191.765908 
L 614.295066 -191.768086 
L 614.181935 -191.773091 
L 614.051838 -191.778698 
L 613.814577 -191.788887 
L 613.546305 -191.800145 
L 610.453179 -191.911224 
L 607.360053 -191.983891 
L 604.266926 -192.017745 
L 601.1738 -192.003127 
L 598.080674 -191.936252 
L 594.987547 -191.81111 
L 591.894421 -191.621463 
L 588.801294 -191.360748 
L 585.708168 -191.022115 
L 582.615042 -190.598482 
L 579.521915 -190.082599 
L 576.428789 -189.791503 
L 573.335662 -189.610652 
L 570.242536 -189.342836 
L 567.14941 -188.978208 
L 564.056283 -188.506532 
L 560.963157 -187.917324 
L 557.870031 -187.200029 
L 554.776904 -186.344248 
L 551.683778 -185.340032 
L 548.590651 -184.488504 
L 545.497525 -184.403143 
L 542.404399 -184.231726 
L 539.311272 -183.957858 
L 536.218146 -183.563464 
L 533.125019 -183.029021 
L 530.031893 -183.04205 
L 526.938767 -183.280361 
L 523.84564 -183.50814 
L 520.752514 -183.72003 
L 517.659388 -183.908319 
L 514.566261 -184.062022 
L 511.473135 -184.165713 
L 508.380008 -184.198102 
L 505.286882 -184.130427 
L 502.193756 -183.924829 
L 499.100629 -183.533012 
L 496.007503 -182.895666 
L 492.914376 -181.943345 
L 489.82125 -180.599646 
L 486.728124 -178.787749 
L 483.634997 -176.441466 
L 481.08684 -174.131384 
L 477.993714 -173.104748 
L 475.828131 -172.055355 
L 473.774995 -170.777508 
L 471.851445 -169.30569 
L 470.004387 -167.63414 
L 468.247786 -165.812396 
L 466.491958 -163.787067 
L 464.73613 -161.592019 
L 462.980302 -159.284433 
L 461.224474 -156.941501 
L 459.468646 -154.650923 
L 457.487164 -152.236426 
L 455.505683 -150.105837 
L 453.524202 -148.328488 
L 451.816525 -147.127418 
L 449.618944 -145.930306 
L 447.841228 -145.27195 
L 445.317208 -144.614327 
L 443.646809 -144.335761 
L 441.405599 -144.090849 
L 439.811461 -143.977391 
L 437.394786 -143.872524 
L 435.805785 -143.828492 
L 433.589864 -143.791055 
L 432.03498 -143.773701 
L 430.005095 -143.75976 
L 428.49946 -143.753285 
L 426.284697 -143.746835 
L 424.743224 -143.74416 
L 422.653075 -143.741685 
L 421.104499 -143.740517 
L 419.162762 -143.739553 
L 417.428485 -143.739006 
L 415.694208 -143.738661 
L 413.959931 -143.738459 
L 412.225655 -143.738352 
L 410.491378 -143.738294 
L 408.757101 -143.738267 
L 407.022824 -143.738256 
L 405.288547 -143.738253 
L 403.710492 -143.738252 
L 402.132436 -143.738252 
L 400.685514 -143.738252 
L 399.594523 -143.738252 
L 398.738008 -143.738252 
L 398.152135 -143.738252 
L 397.737277 -143.738252 
L 397.586825 -143.738252 
L 397.469652 -143.738252 
L 397.457934 -143.738252 
L 397.456763 -143.738252 
z
" style="stroke: #808080; stroke-opacity: 0.2"/>
    </defs>
    <g clip-path="url(#pf2858bd5c8)">
     <use xlink:href="#m455dfaf1d5" x="0" y="360" style="fill: #808080; fill-opacity: 0.2; stroke: #808080; stroke-opacity: 0.2"/>
    </g>
   </g>
   <g id="PathCollection_2">
    <g clip-path="url(#pf2858bd5c8)">
     <use xlink:href="#me14c40ca07" x="397.456763" y="216.261748" style="fill: #808080; fill-opacity: 0.8; stroke: #000000; stroke-opacity: 0.8"/>
     <use xlink:href="#me14c40ca07" x="428.388027" y="180.820895" style="fill: #808080; fill-opacity: 0.8; stroke: #000000; stroke-opacity: 0.8"/>
     <use xlink:href="#me14c40ca07" x="459.31929" y="189.622265" style="fill: #808080; fill-opacity: 0.8; stroke: #000000; stroke-opacity: 0.8"/>
     <use xlink:href="#me14c40ca07" x="490.250554" y="193.099931" style="fill: #808080; fill-opacity: 0.8; stroke: #000000; stroke-opacity: 0.8"/>
     <use xlink:href="#me14c40ca07" x="521.181818" y="195.214697" style="fill: #808080; fill-opacity: 0.8; stroke: #000000; stroke-opacity: 0.8"/>
     <use xlink:href="#me14c40ca07" x="552.113082" y="174.323288" style="fill: #808080; fill-opacity: 0.8; stroke: #000000; stroke-opacity: 0.8"/>
     <use xlink:href="#me14c40ca07" x="583.044346" y="178.766541" style="fill: #808080; fill-opacity: 0.8; stroke: #000000; stroke-opacity: 0.8"/>
     <use xlink:href="#me14c40ca07" x="613.97561" y="189.172838" style="fill: #808080; fill-opacity: 0.8; stroke: #000000; stroke-opacity: 0.8"/>
    </g>
   </g>
   <g id="line2d_36">
    <path d="M 397.456763 216.261748 
L 397.457934 216.261748 
L 397.469652 216.261748 
L 397.586825 216.261748 
L 397.737277 216.261748 
L 398.152135 216.261748 
L 398.738008 216.261748 
L 399.594523 216.261748 
L 400.685514 216.261748 
L 402.132436 216.261748 
L 403.710492 216.261748 
L 405.288547 216.261748 
L 407.022824 216.261748 
L 408.757101 216.261747 
L 410.491378 216.261747 
L 412.225655 216.261745 
L 413.959931 216.261741 
L 415.694208 216.26173 
L 417.428485 216.261709 
L 419.162762 216.261665 
L 421.104499 216.261573 
L 422.653075 216.261449 
L 424.743224 216.261166 
L 426.284697 216.260832 
L 428.49946 216.260052 
L 430.005095 216.259227 
L 432.03498 216.257511 
L 433.589864 216.255516 
L 435.805785 216.251025 
L 437.394786 216.246036 
L 439.811461 216.233702 
L 441.405599 216.220872 
L 443.646809 216.192392 
L 445.317208 216.159388 
L 447.841228 216.077927 
L 449.618944 215.986594 
L 451.816525 215.812774 
L 453.524202 215.612335 
L 455.505683 215.278662 
L 457.487164 214.801038 
L 459.468646 214.138478 
L 461.224474 213.365039 
L 462.980302 212.392168 
L 464.73613 211.20611 
L 466.491958 209.805664 
L 468.247786 208.204051 
L 470.004387 206.427771 
L 471.851445 204.415313 
L 473.774995 202.219424 
L 475.828131 199.835007 
L 477.993714 197.354823 
L 481.08684 194.019139 
L 483.634997 191.543202 
L 486.728124 188.946001 
L 489.82125 186.818789 
L 492.914376 185.145592 
L 496.007503 183.882546 
L 499.100629 182.971919 
L 502.193756 182.352234 
L 505.286882 181.964844 
L 508.380008 181.757667 
L 511.473135 181.686822 
L 514.566261 181.716836 
L 517.659388 181.819995 
L 520.752514 181.97525 
L 523.84564 182.166993 
L 526.938767 182.383876 
L 530.031893 182.617787 
L 533.125019 182.863002 
L 536.218146 183.11553 
L 539.311272 183.372607 
L 542.404399 183.632337 
L 545.497525 183.893423 
L 548.590651 184.15498 
L 551.683778 184.41641 
L 554.776904 184.677305 
L 557.870031 184.937389 
L 560.963157 185.196477 
L 564.056283 185.45444 
L 567.14941 185.711193 
L 570.242536 185.966677 
L 573.335662 186.220853 
L 576.428789 186.473692 
L 579.521915 186.725175 
L 582.615042 186.97529 
L 585.708168 187.224027 
L 588.801294 187.471378 
L 591.894421 187.717339 
L 594.987547 187.961906 
L 598.080674 188.205076 
L 601.1738 188.446847 
L 604.266926 188.687218 
L 607.360053 188.926186 
L 610.453179 189.163752 
L 613.546305 189.399913 
L 613.814577 189.420329 
L 614.051838 189.438376 
L 614.181935 189.448269 
L 614.295066 189.456869 
L 614.344297 189.460611 
L 614.443997 189.468188 
L 614.520686 189.474015 
L 614.559646 189.476975 
L 614.599429 189.479998 
L 614.71657 189.488896 
L 614.83371 189.497792 
L 614.890786 189.502125 
L 614.971511 189.508254 
L 615.191018 189.524914 
L 615.49223 189.547764 
L 617.096586 189.669244 
L 620.189712 189.902387 
L 623.282838 190.134124 
L 626.375965 190.364454 
L 629.469091 190.593378 
L 632.562218 190.820895 
L 635.655344 191.047006 
L 638.74847 191.27171 
L 641.841597 191.495008 
L 644.906874 191.714909 
" clip-path="url(#pf2858bd5c8)" style="fill: none; stroke: #808080; stroke-width: 1.5; stroke-linecap: square"/>
   </g>
  </g>
  <g id="text_39">
   <!-- DoseT0_103 -->
   <g transform="translate(290.85225 23.825) scale(0.224 -0.224)">
    <defs>
     <path id="DejaVuSans-73" d="M 2834 3397 
L 2834 2853 
Q 2591 2978 2328 3040 
Q 2066 3103 1784 3103 
Q 1356 3103 1142 2972 
Q 928 2841 928 2578 
Q 928 2378 1081 2264 
Q 1234 2150 1697 2047 
L 1894 2003 
Q 2506 1872 2764 1633 
Q 3022 1394 3022 966 
Q 3022 478 2636 193 
Q 2250 -91 1575 -91 
Q 1294 -91 989 -36 
Q 684 19 347 128 
L 347 722 
Q 666 556 975 473 
Q 1284 391 1588 391 
Q 1994 391 2212 530 
Q 2431 669 2431 922 
Q 2431 1156 2273 1281 
Q 2116 1406 1581 1522 
L 1381 1569 
Q 847 1681 609 1914 
Q 372 2147 372 2553 
Q 372 3047 722 3315 
Q 1072 3584 1716 3584 
Q 2034 3584 2315 3537 
Q 2597 3491 2834 3397 
z
" transform="scale(0.015625)"/>
     <path id="DejaVuSans-5f" d="M 3263 -1063 
L 3263 -1509 
L -63 -1509 
L -63 -1063 
L 3263 -1063 
z
" transform="scale(0.015625)"/>
    </defs>
    <use xlink:href="#DejaVuSans-44"/>
    <use xlink:href="#DejaVuSans-6f" x="77.001953"/>
    <use xlink:href="#DejaVuSans-73" x="138.183594"/>
    <use xlink:href="#DejaVuSans-65" x="190.283203"/>
    <use xlink:href="#DejaVuSans-54" x="251.806641"/>
    <use xlink:href="#DejaVuSans-30" x="312.890625"/>
    <use xlink:href="#DejaVuSans-5f" x="376.513672"/>
    <use xlink:href="#DejaVuSans-31" x="426.513672"/>
    <use xlink:href="#DejaVuSans-30" x="490.136719"/>
    <use xlink:href="#DejaVuSans-33" x="553.759766"/>
   </g>
  </g>
 </g>
 <defs>
  <clipPath id="pc2facca432">
   <rect x="90" y="43.2" width="253.636364" height="277.2"/>
  </clipPath>
  <clipPath id="pf2858bd5c8">
   <rect x="394.363636" y="43.2" width="253.636364" height="277.2"/>
  </clipPath>
 </defs>
</svg>
