<?xml version="1.0" encoding="utf-8" standalone="no"?>
<!DOCTYPE svg PUBLIC "-//W3C//DTD SVG 1.1//EN"
  "http://www.w3.org/Graphics/SVG/1.1/DTD/svg11.dtd">
<svg xmlns:xlink="http://www.w3.org/1999/xlink" width="720pt" height="360pt" viewBox="0 0 720 360" xmlns="http://www.w3.org/2000/svg" version="1.1">
 <metadata>
  <rdf:RDF xmlns:dc="http://purl.org/dc/elements/1.1/" xmlns:cc="http://creativecommons.org/ns#" xmlns:rdf="http://www.w3.org/1999/02/22-rdf-syntax-ns#">
   <cc:Work>
    <dc:type rdf:resource="http://purl.org/dc/dcmitype/StillImage"/>
    <dc:date>2024-11-05T15:43:55.248976</dc:date>
    <dc:format>image/svg+xml</dc:format>
    <dc:creator>
     <cc:Agent>
      <dc:title>Matplotlib v3.9.2, https://matplotlib.org/</dc:title>
     </cc:Agent>
    </dc:creator>
   </cc:Work>
  </rdf:RDF>
 </metadata>
 <defs>
  <style type="text/css">*{stroke-linejoin: round; stroke-linecap: butt}</style>
 </defs>
 <g id="figure_1">
  <g id="patch_1">
   <path d="M 0 360 
L 720 360 
L 720 0 
L 0 0 
z
" style="fill: #ffffff"/>
  </g>
  <g id="axes_1">
   <g id="patch_2">
    <path d="M 90 320.4 
L 327.272727 320.4 
L 327.272727 43.2 
L 90 43.2 
z
" style="fill: #ffffff"/>
   </g>
   <g id="matplotlib.axis_1">
    <g id="xtick_1">
     <g id="line2d_1">
      <defs>
       <path id="m8c6ebcb899" d="M 0 0 
L 0 3.5 
" style="stroke: #000000; stroke-width: 0.8"/>
      </defs>
      <g>
       <use xlink:href="#m8c6ebcb899" x="92.89357" y="320.4" style="stroke: #000000; stroke-width: 0.8"/>
      </g>
     </g>
     <g id="text_1">
      <!-- 0 -->
      <g transform="translate(88.31257 338.34175) scale(0.144 -0.144)">
       <defs>
        <path id="DejaVuSans-30" d="M 2034 4250 
Q 1547 4250 1301 3770 
Q 1056 3291 1056 2328 
Q 1056 1369 1301 889 
Q 1547 409 2034 409 
Q 2525 409 2770 889 
Q 3016 1369 3016 2328 
Q 3016 3291 2770 3770 
Q 2525 4250 2034 4250 
z
M 2034 4750 
Q 2819 4750 3233 4129 
Q 3647 3509 3647 2328 
Q 3647 1150 3233 529 
Q 2819 -91 2034 -91 
Q 1250 -91 836 529 
Q 422 1150 422 2328 
Q 422 3509 836 4129 
Q 1250 4750 2034 4750 
z
" transform="scale(0.015625)"/>
       </defs>
       <use xlink:href="#DejaVuSans-30"/>
      </g>
     </g>
    </g>
    <g id="xtick_2">
     <g id="line2d_2">
      <g>
       <use xlink:href="#m8c6ebcb899" x="121.829268" y="320.4" style="stroke: #000000; stroke-width: 0.8"/>
      </g>
     </g>
     <g id="text_2">
      <!-- 1 -->
      <g transform="translate(117.248268 338.34175) scale(0.144 -0.144)">
       <defs>
        <path id="DejaVuSans-31" d="M 794 531 
L 1825 531 
L 1825 4091 
L 703 3866 
L 703 4441 
L 1819 4666 
L 2450 4666 
L 2450 531 
L 3481 531 
L 3481 0 
L 794 0 
L 794 531 
z
" transform="scale(0.015625)"/>
       </defs>
       <use xlink:href="#DejaVuSans-31"/>
      </g>
     </g>
    </g>
    <g id="xtick_3">
     <g id="line2d_3">
      <g>
       <use xlink:href="#m8c6ebcb899" x="150.764967" y="320.4" style="stroke: #000000; stroke-width: 0.8"/>
      </g>
     </g>
     <g id="text_3">
      <!-- 2 -->
      <g transform="translate(146.183967 338.34175) scale(0.144 -0.144)">
       <defs>
        <path id="DejaVuSans-32" d="M 1228 531 
L 3431 531 
L 3431 0 
L 469 0 
L 469 531 
Q 828 903 1448 1529 
Q 2069 2156 2228 2338 
Q 2531 2678 2651 2914 
Q 2772 3150 2772 3378 
Q 2772 3750 2511 3984 
Q 2250 4219 1831 4219 
Q 1534 4219 1204 4116 
Q 875 4013 500 3803 
L 500 4441 
Q 881 4594 1212 4672 
Q 1544 4750 1819 4750 
Q 2544 4750 2975 4387 
Q 3406 4025 3406 3419 
Q 3406 3131 3298 2873 
Q 3191 2616 2906 2266 
Q 2828 2175 2409 1742 
Q 1991 1309 1228 531 
z
" transform="scale(0.015625)"/>
       </defs>
       <use xlink:href="#DejaVuSans-32"/>
      </g>
     </g>
    </g>
    <g id="xtick_4">
     <g id="line2d_4">
      <g>
       <use xlink:href="#m8c6ebcb899" x="179.700665" y="320.4" style="stroke: #000000; stroke-width: 0.8"/>
      </g>
     </g>
     <g id="text_4">
      <!-- 3 -->
      <g transform="translate(175.119665 338.34175) scale(0.144 -0.144)">
       <defs>
        <path id="DejaVuSans-33" d="M 2597 2516 
Q 3050 2419 3304 2112 
Q 3559 1806 3559 1356 
Q 3559 666 3084 287 
Q 2609 -91 1734 -91 
Q 1441 -91 1130 -33 
Q 819 25 488 141 
L 488 750 
Q 750 597 1062 519 
Q 1375 441 1716 441 
Q 2309 441 2620 675 
Q 2931 909 2931 1356 
Q 2931 1769 2642 2001 
Q 2353 2234 1838 2234 
L 1294 2234 
L 1294 2753 
L 1863 2753 
Q 2328 2753 2575 2939 
Q 2822 3125 2822 3475 
Q 2822 3834 2567 4026 
Q 2313 4219 1838 4219 
Q 1578 4219 1281 4162 
Q 984 4106 628 3988 
L 628 4550 
Q 988 4650 1302 4700 
Q 1616 4750 1894 4750 
Q 2613 4750 3031 4423 
Q 3450 4097 3450 3541 
Q 3450 3153 3228 2886 
Q 3006 2619 2597 2516 
z
" transform="scale(0.015625)"/>
       </defs>
       <use xlink:href="#DejaVuSans-33"/>
      </g>
     </g>
    </g>
    <g id="xtick_5">
     <g id="line2d_5">
      <g>
       <use xlink:href="#m8c6ebcb899" x="208.636364" y="320.4" style="stroke: #000000; stroke-width: 0.8"/>
      </g>
     </g>
     <g id="text_5">
      <!-- 4 -->
      <g transform="translate(204.055364 338.34175) scale(0.144 -0.144)">
       <defs>
        <path id="DejaVuSans-34" d="M 2419 4116 
L 825 1625 
L 2419 1625 
L 2419 4116 
z
M 2253 4666 
L 3047 4666 
L 3047 1625 
L 3713 1625 
L 3713 1100 
L 3047 1100 
L 3047 0 
L 2419 0 
L 2419 1100 
L 313 1100 
L 313 1709 
L 2253 4666 
z
" transform="scale(0.015625)"/>
       </defs>
       <use xlink:href="#DejaVuSans-34"/>
      </g>
     </g>
    </g>
    <g id="xtick_6">
     <g id="line2d_6">
      <g>
       <use xlink:href="#m8c6ebcb899" x="237.572062" y="320.4" style="stroke: #000000; stroke-width: 0.8"/>
      </g>
     </g>
     <g id="text_6">
      <!-- 5 -->
      <g transform="translate(232.991062 338.34175) scale(0.144 -0.144)">
       <defs>
        <path id="DejaVuSans-35" d="M 691 4666 
L 3169 4666 
L 3169 4134 
L 1269 4134 
L 1269 2991 
Q 1406 3038 1543 3061 
Q 1681 3084 1819 3084 
Q 2600 3084 3056 2656 
Q 3513 2228 3513 1497 
Q 3513 744 3044 326 
Q 2575 -91 1722 -91 
Q 1428 -91 1123 -41 
Q 819 9 494 109 
L 494 744 
Q 775 591 1075 516 
Q 1375 441 1709 441 
Q 2250 441 2565 725 
Q 2881 1009 2881 1497 
Q 2881 1984 2565 2268 
Q 2250 2553 1709 2553 
Q 1456 2553 1204 2497 
Q 953 2441 691 2322 
L 691 4666 
z
" transform="scale(0.015625)"/>
       </defs>
       <use xlink:href="#DejaVuSans-35"/>
      </g>
     </g>
    </g>
    <g id="xtick_7">
     <g id="line2d_7">
      <g>
       <use xlink:href="#m8c6ebcb899" x="266.507761" y="320.4" style="stroke: #000000; stroke-width: 0.8"/>
      </g>
     </g>
     <g id="text_7">
      <!-- 6 -->
      <g transform="translate(261.926761 338.34175) scale(0.144 -0.144)">
       <defs>
        <path id="DejaVuSans-36" d="M 2113 2584 
Q 1688 2584 1439 2293 
Q 1191 2003 1191 1497 
Q 1191 994 1439 701 
Q 1688 409 2113 409 
Q 2538 409 2786 701 
Q 3034 994 3034 1497 
Q 3034 2003 2786 2293 
Q 2538 2584 2113 2584 
z
M 3366 4563 
L 3366 3988 
Q 3128 4100 2886 4159 
Q 2644 4219 2406 4219 
Q 1781 4219 1451 3797 
Q 1122 3375 1075 2522 
Q 1259 2794 1537 2939 
Q 1816 3084 2150 3084 
Q 2853 3084 3261 2657 
Q 3669 2231 3669 1497 
Q 3669 778 3244 343 
Q 2819 -91 2113 -91 
Q 1303 -91 875 529 
Q 447 1150 447 2328 
Q 447 3434 972 4092 
Q 1497 4750 2381 4750 
Q 2619 4750 2861 4703 
Q 3103 4656 3366 4563 
z
" transform="scale(0.015625)"/>
       </defs>
       <use xlink:href="#DejaVuSans-36"/>
      </g>
     </g>
    </g>
    <g id="xtick_8">
     <g id="line2d_8">
      <g>
       <use xlink:href="#m8c6ebcb899" x="295.443459" y="320.4" style="stroke: #000000; stroke-width: 0.8"/>
      </g>
     </g>
     <g id="text_8">
      <!-- 7 -->
      <g transform="translate(290.862459 338.34175) scale(0.144 -0.144)">
       <defs>
        <path id="DejaVuSans-37" d="M 525 4666 
L 3525 4666 
L 3525 4397 
L 1831 0 
L 1172 0 
L 2766 4134 
L 525 4134 
L 525 4666 
z
" transform="scale(0.015625)"/>
       </defs>
       <use xlink:href="#DejaVuSans-37"/>
      </g>
     </g>
    </g>
    <g id="xtick_9">
     <g id="line2d_9">
      <g>
       <use xlink:href="#m8c6ebcb899" x="324.379157" y="320.4" style="stroke: #000000; stroke-width: 0.8"/>
      </g>
     </g>
     <g id="text_9">
      <!-- 8 -->
      <g transform="translate(319.798157 338.34175) scale(0.144 -0.144)">
       <defs>
        <path id="DejaVuSans-38" d="M 2034 2216 
Q 1584 2216 1326 1975 
Q 1069 1734 1069 1313 
Q 1069 891 1326 650 
Q 1584 409 2034 409 
Q 2484 409 2743 651 
Q 3003 894 3003 1313 
Q 3003 1734 2745 1975 
Q 2488 2216 2034 2216 
z
M 1403 2484 
Q 997 2584 770 2862 
Q 544 3141 544 3541 
Q 544 4100 942 4425 
Q 1341 4750 2034 4750 
Q 2731 4750 3128 4425 
Q 3525 4100 3525 3541 
Q 3525 3141 3298 2862 
Q 3072 2584 2669 2484 
Q 3125 2378 3379 2068 
Q 3634 1759 3634 1313 
Q 3634 634 3220 271 
Q 2806 -91 2034 -91 
Q 1263 -91 848 271 
Q 434 634 434 1313 
Q 434 1759 690 2068 
Q 947 2378 1403 2484 
z
M 1172 3481 
Q 1172 3119 1398 2916 
Q 1625 2713 2034 2713 
Q 2441 2713 2670 2916 
Q 2900 3119 2900 3481 
Q 2900 3844 2670 4047 
Q 2441 4250 2034 4250 
Q 1625 4250 1398 4047 
Q 1172 3844 1172 3481 
z
" transform="scale(0.015625)"/>
       </defs>
       <use xlink:href="#DejaVuSans-38"/>
      </g>
     </g>
    </g>
    <g id="text_10">
     <!-- Time (d) -->
     <g transform="translate(168.511364 359.9255) scale(0.192 -0.192)">
      <defs>
       <path id="DejaVuSans-54" d="M -19 4666 
L 3928 4666 
L 3928 4134 
L 2272 4134 
L 2272 0 
L 1638 0 
L 1638 4134 
L -19 4134 
L -19 4666 
z
" transform="scale(0.015625)"/>
       <path id="DejaVuSans-69" d="M 603 3500 
L 1178 3500 
L 1178 0 
L 603 0 
L 603 3500 
z
M 603 4863 
L 1178 4863 
L 1178 4134 
L 603 4134 
L 603 4863 
z
" transform="scale(0.015625)"/>
       <path id="DejaVuSans-6d" d="M 3328 2828 
Q 3544 3216 3844 3400 
Q 4144 3584 4550 3584 
Q 5097 3584 5394 3201 
Q 5691 2819 5691 2113 
L 5691 0 
L 5113 0 
L 5113 2094 
Q 5113 2597 4934 2840 
Q 4756 3084 4391 3084 
Q 3944 3084 3684 2787 
Q 3425 2491 3425 1978 
L 3425 0 
L 2847 0 
L 2847 2094 
Q 2847 2600 2669 2842 
Q 2491 3084 2119 3084 
Q 1678 3084 1418 2786 
Q 1159 2488 1159 1978 
L 1159 0 
L 581 0 
L 581 3500 
L 1159 3500 
L 1159 2956 
Q 1356 3278 1631 3431 
Q 1906 3584 2284 3584 
Q 2666 3584 2933 3390 
Q 3200 3197 3328 2828 
z
" transform="scale(0.015625)"/>
       <path id="DejaVuSans-65" d="M 3597 1894 
L 3597 1613 
L 953 1613 
Q 991 1019 1311 708 
Q 1631 397 2203 397 
Q 2534 397 2845 478 
Q 3156 559 3463 722 
L 3463 178 
Q 3153 47 2828 -22 
Q 2503 -91 2169 -91 
Q 1331 -91 842 396 
Q 353 884 353 1716 
Q 353 2575 817 3079 
Q 1281 3584 2069 3584 
Q 2775 3584 3186 3129 
Q 3597 2675 3597 1894 
z
M 3022 2063 
Q 3016 2534 2758 2815 
Q 2500 3097 2075 3097 
Q 1594 3097 1305 2825 
Q 1016 2553 972 2059 
L 3022 2063 
z
" transform="scale(0.015625)"/>
       <path id="DejaVuSans-20" transform="scale(0.015625)"/>
       <path id="DejaVuSans-28" d="M 1984 4856 
Q 1566 4138 1362 3434 
Q 1159 2731 1159 2009 
Q 1159 1288 1364 580 
Q 1569 -128 1984 -844 
L 1484 -844 
Q 1016 -109 783 600 
Q 550 1309 550 2009 
Q 550 2706 781 3412 
Q 1013 4119 1484 4856 
L 1984 4856 
z
" transform="scale(0.015625)"/>
       <path id="DejaVuSans-64" d="M 2906 2969 
L 2906 4863 
L 3481 4863 
L 3481 0 
L 2906 0 
L 2906 525 
Q 2725 213 2448 61 
Q 2172 -91 1784 -91 
Q 1150 -91 751 415 
Q 353 922 353 1747 
Q 353 2572 751 3078 
Q 1150 3584 1784 3584 
Q 2172 3584 2448 3432 
Q 2725 3281 2906 2969 
z
M 947 1747 
Q 947 1113 1208 752 
Q 1469 391 1925 391 
Q 2381 391 2643 752 
Q 2906 1113 2906 1747 
Q 2906 2381 2643 2742 
Q 2381 3103 1925 3103 
Q 1469 3103 1208 2742 
Q 947 2381 947 1747 
z
" transform="scale(0.015625)"/>
       <path id="DejaVuSans-29" d="M 513 4856 
L 1013 4856 
Q 1481 4119 1714 3412 
Q 1947 2706 1947 2009 
Q 1947 1309 1714 600 
Q 1481 -109 1013 -844 
L 513 -844 
Q 928 -128 1133 580 
Q 1338 1288 1338 2009 
Q 1338 2731 1133 3434 
Q 928 4138 513 4856 
z
" transform="scale(0.015625)"/>
      </defs>
      <use xlink:href="#DejaVuSans-54"/>
      <use xlink:href="#DejaVuSans-69" x="57.958984"/>
      <use xlink:href="#DejaVuSans-6d" x="85.742188"/>
      <use xlink:href="#DejaVuSans-65" x="183.154297"/>
      <use xlink:href="#DejaVuSans-20" x="244.677734"/>
      <use xlink:href="#DejaVuSans-28" x="276.464844"/>
      <use xlink:href="#DejaVuSans-64" x="315.478516"/>
      <use xlink:href="#DejaVuSans-29" x="378.955078"/>
     </g>
    </g>
   </g>
   <g id="matplotlib.axis_2">
    <g id="ytick_1">
     <g id="line2d_10">
      <defs>
       <path id="me19c2f38bc" d="M 0 0 
L -3.5 0 
" style="stroke: #000000; stroke-width: 0.8"/>
      </defs>
      <g>
       <use xlink:href="#me19c2f38bc" x="90" y="320.4" style="stroke: #000000; stroke-width: 0.8"/>
      </g>
     </g>
     <g id="text_11">
      <!-- 0 -->
      <g transform="translate(73.838 325.870875) scale(0.144 -0.144)">
       <use xlink:href="#DejaVuSans-30"/>
      </g>
     </g>
    </g>
    <g id="ytick_2">
     <g id="line2d_11">
      <g>
       <use xlink:href="#me19c2f38bc" x="90" y="286.8" style="stroke: #000000; stroke-width: 0.8"/>
      </g>
     </g>
     <g id="text_12">
      <!-- 1 -->
      <g transform="translate(73.838 292.270875) scale(0.144 -0.144)">
       <use xlink:href="#DejaVuSans-31"/>
      </g>
     </g>
    </g>
    <g id="ytick_3">
     <g id="line2d_12">
      <g>
       <use xlink:href="#me19c2f38bc" x="90" y="253.2" style="stroke: #000000; stroke-width: 0.8"/>
      </g>
     </g>
     <g id="text_13">
      <!-- 2 -->
      <g transform="translate(73.838 258.670875) scale(0.144 -0.144)">
       <use xlink:href="#DejaVuSans-32"/>
      </g>
     </g>
    </g>
    <g id="ytick_4">
     <g id="line2d_13">
      <g>
       <use xlink:href="#me19c2f38bc" x="90" y="219.6" style="stroke: #000000; stroke-width: 0.8"/>
      </g>
     </g>
     <g id="text_14">
      <!-- 3 -->
      <g transform="translate(73.838 225.070875) scale(0.144 -0.144)">
       <use xlink:href="#DejaVuSans-33"/>
      </g>
     </g>
    </g>
    <g id="ytick_5">
     <g id="line2d_14">
      <g>
       <use xlink:href="#me19c2f38bc" x="90" y="186" style="stroke: #000000; stroke-width: 0.8"/>
      </g>
     </g>
     <g id="text_15">
      <!-- 4 -->
      <g transform="translate(73.838 191.470875) scale(0.144 -0.144)">
       <use xlink:href="#DejaVuSans-34"/>
      </g>
     </g>
    </g>
    <g id="ytick_6">
     <g id="line2d_15">
      <g>
       <use xlink:href="#me19c2f38bc" x="90" y="152.4" style="stroke: #000000; stroke-width: 0.8"/>
      </g>
     </g>
     <g id="text_16">
      <!-- 5 -->
      <g transform="translate(73.838 157.870875) scale(0.144 -0.144)">
       <use xlink:href="#DejaVuSans-35"/>
      </g>
     </g>
    </g>
    <g id="ytick_7">
     <g id="line2d_16">
      <g>
       <use xlink:href="#me19c2f38bc" x="90" y="118.8" style="stroke: #000000; stroke-width: 0.8"/>
      </g>
     </g>
     <g id="text_17">
      <!-- 6 -->
      <g transform="translate(73.838 124.270875) scale(0.144 -0.144)">
       <use xlink:href="#DejaVuSans-36"/>
      </g>
     </g>
    </g>
    <g id="ytick_8">
     <g id="line2d_17">
      <g>
       <use xlink:href="#me19c2f38bc" x="90" y="85.2" style="stroke: #000000; stroke-width: 0.8"/>
      </g>
     </g>
     <g id="text_18">
      <!-- 7 -->
      <g transform="translate(73.838 90.670875) scale(0.144 -0.144)">
       <use xlink:href="#DejaVuSans-37"/>
      </g>
     </g>
    </g>
    <g id="ytick_9">
     <g id="line2d_18">
      <g>
       <use xlink:href="#me19c2f38bc" x="90" y="51.6" style="stroke: #000000; stroke-width: 0.8"/>
      </g>
     </g>
     <g id="text_19">
      <!-- 8 -->
      <g transform="translate(73.838 57.070875) scale(0.144 -0.144)">
       <use xlink:href="#DejaVuSans-38"/>
      </g>
     </g>
    </g>
    <g id="text_20">
     <!-- Log10(V) -->
     <g transform="translate(65.845 225.2235) rotate(-90) scale(0.192 -0.192)">
      <defs>
       <path id="DejaVuSans-4c" d="M 628 4666 
L 1259 4666 
L 1259 531 
L 3531 531 
L 3531 0 
L 628 0 
L 628 4666 
z
" transform="scale(0.015625)"/>
       <path id="DejaVuSans-6f" d="M 1959 3097 
Q 1497 3097 1228 2736 
Q 959 2375 959 1747 
Q 959 1119 1226 758 
Q 1494 397 1959 397 
Q 2419 397 2687 759 
Q 2956 1122 2956 1747 
Q 2956 2369 2687 2733 
Q 2419 3097 1959 3097 
z
M 1959 3584 
Q 2709 3584 3137 3096 
Q 3566 2609 3566 1747 
Q 3566 888 3137 398 
Q 2709 -91 1959 -91 
Q 1206 -91 779 398 
Q 353 888 353 1747 
Q 353 2609 779 3096 
Q 1206 3584 1959 3584 
z
" transform="scale(0.015625)"/>
       <path id="DejaVuSans-67" d="M 2906 1791 
Q 2906 2416 2648 2759 
Q 2391 3103 1925 3103 
Q 1463 3103 1205 2759 
Q 947 2416 947 1791 
Q 947 1169 1205 825 
Q 1463 481 1925 481 
Q 2391 481 2648 825 
Q 2906 1169 2906 1791 
z
M 3481 434 
Q 3481 -459 3084 -895 
Q 2688 -1331 1869 -1331 
Q 1566 -1331 1297 -1286 
Q 1028 -1241 775 -1147 
L 775 -588 
Q 1028 -725 1275 -790 
Q 1522 -856 1778 -856 
Q 2344 -856 2625 -561 
Q 2906 -266 2906 331 
L 2906 616 
Q 2728 306 2450 153 
Q 2172 0 1784 0 
Q 1141 0 747 490 
Q 353 981 353 1791 
Q 353 2603 747 3093 
Q 1141 3584 1784 3584 
Q 2172 3584 2450 3431 
Q 2728 3278 2906 2969 
L 2906 3500 
L 3481 3500 
L 3481 434 
z
" transform="scale(0.015625)"/>
       <path id="DejaVuSans-56" d="M 1831 0 
L 50 4666 
L 709 4666 
L 2188 738 
L 3669 4666 
L 4325 4666 
L 2547 0 
L 1831 0 
z
" transform="scale(0.015625)"/>
      </defs>
      <use xlink:href="#DejaVuSans-4c"/>
      <use xlink:href="#DejaVuSans-6f" x="53.962891"/>
      <use xlink:href="#DejaVuSans-67" x="115.144531"/>
      <use xlink:href="#DejaVuSans-31" x="178.621094"/>
      <use xlink:href="#DejaVuSans-30" x="242.244141"/>
      <use xlink:href="#DejaVuSans-28" x="305.867188"/>
      <use xlink:href="#DejaVuSans-56" x="344.880859"/>
      <use xlink:href="#DejaVuSans-29" x="413.289062"/>
     </g>
    </g>
   </g>
   <g id="patch_3">
    <path d="M 90 320.4 
L 90 43.2 
" style="fill: none; stroke: #000000; stroke-width: 0.8; stroke-linejoin: miter; stroke-linecap: square"/>
   </g>
   <g id="patch_4">
    <path d="M 327.272727 320.4 
L 327.272727 43.2 
" style="fill: none; stroke: #000000; stroke-width: 0.8; stroke-linejoin: miter; stroke-linecap: square"/>
   </g>
   <g id="patch_5">
    <path d="M 90 320.4 
L 327.272727 320.4 
" style="fill: none; stroke: #000000; stroke-width: 0.8; stroke-linejoin: miter; stroke-linecap: square"/>
   </g>
   <g id="patch_6">
    <path d="M 90 43.2 
L 327.272727 43.2 
" style="fill: none; stroke: #000000; stroke-width: 0.8; stroke-linejoin: miter; stroke-linecap: square"/>
   </g>
   <g id="PolyCollection_1">
    <defs>
     <path id="mc4c57a40d2" d="M 92.89357 -39.6 
L 92.89357 -39.6 
L 92.896713 -39.6 
L 92.928148 -39.6 
L 93.242495 -39.6 
L 93.591523 -39.6 
L 94.454787 -39.6 
L 95.114276 -39.6 
L 96.618754 -39.6 
L 97.4794 -39.704638 
L 99.245387 -47.861569 
L 100.187054 -52.714175 
L 101.828382 -61.192069 
L 102.856816 -66.482065 
L 104.518877 -75.002995 
L 105.601102 -80.530965 
L 107.230108 -88.523239 
L 108.354349 -93.842352 
L 109.974125 -101.496284 
L 111.126848 -106.95285 
L 112.893834 -115.307394 
L 114.021363 -120.648159 
L 115.557577 -127.81573 
L 116.72563 -133.28289 
L 118.393427 -141.058758 
L 119.552765 -146.48281 
L 121.115965 -153.745635 
L 122.302302 -159.256348 
L 123.991508 -167.043687 
L 125.178736 -172.48652 
L 127.010678 -180.764577 
L 128.198597 -186.00842 
L 129.871186 -193.195352 
L 131.120354 -198.241175 
L 132.939081 -205.189473 
L 134.193922 -209.377661 
L 135.976079 -214.68322 
L 137.288916 -217.756031 
L 138.79694 -220.778527 
L 139.999443 -222.355879 
L 141.342475 -223.707507 
L 142.685508 -224.684069 
L 143.802578 -225.241103 
L 144.803685 -225.547086 
L 145.702656 -225.744602 
L 146.503017 -225.868548 
L 147.303377 -225.959317 
L 147.959315 -226.014482 
L 148.565061 -226.049447 
L 149.170807 -226.070915 
L 149.708426 -226.068083 
L 150.272113 -226.059048 
L 150.835799 -226.04074 
L 151.399485 -226.013255 
L 151.963171 -225.977802 
L 152.526857 -225.933165 
L 153.090543 -225.888527 
L 153.654229 -225.840171 
L 154.217915 -225.784984 
L 154.781601 -225.720448 
L 155.345287 -225.654312 
L 155.910052 -225.588049 
L 156.481564 -225.520995 
L 157.060401 -225.445942 
L 157.650295 -225.366385 
L 158.251755 -225.277593 
L 158.867469 -225.186696 
L 159.498065 -225.093603 
L 161.848349 -224.717851 
L 162.669329 -224.57978 
L 165.199295 -224.139664 
L 166.223667 -223.952713 
L 169.117236 -223.417635 
L 170.341956 -223.183676 
L 173.235526 -222.625632 
L 174.722028 -222.33413 
L 177.615598 -221.761888 
L 179.440902 -221.397606 
L 182.334472 -220.81649 
L 184.590229 -220.361059 
L 187.483799 -219.774112 
L 190.377368 -219.184625 
L 193.270938 -218.592704 
L 196.164508 -217.99819 
L 199.058078 -217.400684 
L 201.951648 -216.799562 
L 204.845218 -216.193978 
L 207.738787 -215.582868 
L 210.632357 -214.964943 
L 213.525927 -214.338686 
L 216.419497 -213.702354 
L 219.313067 -213.053973 
L 222.206637 -212.391335 
L 225.100207 -211.712 
L 227.993776 -211.013289 
L 230.887346 -210.292282 
L 233.780916 -209.545802 
L 236.674486 -208.770404 
L 239.568056 -207.962341 
L 242.461626 -207.117532 
L 245.355195 -206.231501 
L 248.248765 -205.299301 
L 251.142335 -204.315411 
L 254.035905 -203.273591 
L 256.929475 -202.166688 
L 259.823045 -200.986374 
L 262.716615 -199.722778 
L 265.610184 -198.363976 
L 268.503754 -196.89526 
L 271.397324 -195.298061 
L 274.290894 -193.548321 
L 277.184464 -191.613935 
L 280.078034 -189.450523 
L 282.971603 -186.744321 
L 285.865173 -183.495559 
L 288.758743 -179.468732 
L 291.652313 -173.967589 
L 294.545883 -165.111414 
L 297.439453 -132.083156 
L 300.333022 -39.6 
L 300.911736 -39.6 
L 300.996779 -39.6 
L 301.165932 -39.6 
L 301.187172 -39.6 
L 301.189304 -39.6 
L 301.199964 -39.6 
L 301.200308 -39.6 
L 301.203751 -39.6 
L 301.206669 -39.6 
L 301.210939 -39.6 
L 301.211032 -39.6 
L 301.211963 -39.6 
L 301.212993 -39.6 
L 301.213927 -39.6 
L 301.214919 -39.6 
L 301.215993 -39.6 
L 301.217217 -39.6 
L 301.218668 -39.6 
L 301.220478 -39.6 
L 301.22289 -39.6 
L 301.226458 -39.6 
L 301.258785 -39.6 
L 301.300109 -39.6 
L 301.371814 -39.6 
L 301.451253 -39.6 
L 301.585523 -39.6 
L 301.748322 -39.6 
L 302.211747 -39.6 
L 304.46131 -39.6 
L 306.071655 -39.6 
L 308.965224 -39.6 
L 311.858794 -39.6 
L 314.752364 -39.6 
L 317.645934 -39.6 
L 320.539504 -39.6 
L 323.433074 -39.6 
L 324.379157 -39.6 
L 324.379157 -39.6 
L 324.379157 -39.6 
L 323.433074 -39.6 
L 320.539504 -39.6 
L 317.645934 -39.6 
L 314.752364 -39.6 
L 311.858794 -148.418704 
L 308.965224 -161.451597 
L 306.071655 -169.063457 
L 304.46131 -172.396938 
L 302.211747 -175.987302 
L 301.748322 -176.697924 
L 301.585523 -176.905821 
L 301.451253 -177.077288 
L 301.371814 -177.178733 
L 301.300109 -177.270301 
L 301.258785 -177.323074 
L 301.226458 -177.364356 
L 301.22289 -177.368912 
L 301.220478 -177.371992 
L 301.218668 -177.374304 
L 301.217217 -177.376157 
L 301.215993 -177.37772 
L 301.214919 -177.379091 
L 301.213927 -177.380357 
L 301.212993 -177.381551 
L 301.211963 -177.382866 
L 301.211032 -177.384054 
L 301.210939 -177.384173 
L 301.206669 -177.389626 
L 301.203751 -177.393353 
L 301.200308 -177.39775 
L 301.199964 -177.398189 
L 301.189304 -177.411802 
L 301.187172 -177.414525 
L 301.165932 -177.441649 
L 300.996779 -177.657661 
L 300.911736 -177.766262 
L 300.333022 -178.505293 
L 297.439453 -181.891212 
L 294.545883 -184.775296 
L 291.652313 -187.297839 
L 288.758743 -189.865421 
L 285.865173 -192.222058 
L 282.971603 -194.392511 
L 280.078034 -197.060543 
L 277.184464 -199.348035 
L 274.290894 -201.349853 
L 271.397324 -203.128696 
L 268.503754 -204.728321 
L 265.610184 -206.180603 
L 262.716615 -207.509604 
L 259.823045 -208.734039 
L 256.929475 -209.868847 
L 254.035905 -210.926227 
L 251.142335 -211.916342 
L 248.248765 -212.847807 
L 245.355195 -213.728035 
L 242.461626 -214.563487 
L 239.568056 -215.359852 
L 236.674486 -216.122174 
L 233.780916 -216.854883 
L 230.887346 -217.561607 
L 227.993776 -218.245094 
L 225.100207 -218.910861 
L 222.206637 -219.559325 
L 219.313067 -220.194919 
L 216.419497 -220.819213 
L 213.525927 -221.43407 
L 210.632357 -222.041832 
L 207.738787 -222.643005 
L 204.845218 -223.23978 
L 201.951648 -223.832362 
L 199.058078 -224.422038 
L 196.164508 -225.009113 
L 193.270938 -225.593971 
L 190.377368 -226.176959 
L 187.483799 -226.759059 
L 184.590229 -227.336754 
L 182.334472 -227.785319 
L 179.440902 -228.355841 
L 177.615598 -228.713916 
L 174.722028 -229.272926 
L 173.235526 -229.557975 
L 170.341956 -230.098608 
L 169.117236 -230.324684 
L 166.223667 -230.837 
L 165.199295 -231.014961 
L 162.669329 -231.424456 
L 161.848349 -231.554507 
L 159.498065 -231.891498 
L 158.867469 -231.974503 
L 158.251755 -232.051651 
L 157.650295 -232.123061 
L 157.060401 -232.189182 
L 156.481564 -232.250017 
L 155.910052 -232.318864 
L 155.345287 -232.381258 
L 154.781601 -232.442508 
L 154.217915 -232.503757 
L 153.654229 -232.565007 
L 153.090543 -232.617177 
L 152.526857 -232.662599 
L 151.963171 -232.701039 
L 151.399485 -232.739479 
L 150.835799 -232.770458 
L 150.272113 -232.792134 
L 149.708426 -232.803999 
L 149.170807 -232.807194 
L 148.565061 -232.810793 
L 147.959315 -232.800872 
L 147.303377 -232.773848 
L 146.503017 -232.716969 
L 145.702656 -232.635058 
L 144.803685 -232.506846 
L 143.802578 -232.312727 
L 142.685508 -232.013459 
L 141.342475 -231.503157 
L 139.999443 -230.807057 
L 138.79694 -229.978356 
L 137.288916 -228.511893 
L 135.976079 -226.825216 
L 134.193922 -224.505449 
L 132.939081 -222.245936 
L 131.120354 -218.064494 
L 129.871186 -214.149067 
L 128.198597 -208.115383 
L 127.010678 -203.023936 
L 125.178736 -194.535594 
L 123.991508 -188.586778 
L 122.302302 -179.887799 
L 121.115965 -173.590936 
L 119.552765 -165.228231 
L 118.393427 -158.954211 
L 116.72563 -149.907158 
L 115.557577 -143.52798 
L 114.021363 -135.161639 
L 112.893834 -129.084645 
L 111.126848 -119.617239 
L 109.974125 -113.4356 
L 108.354349 -104.760564 
L 107.230108 -98.742165 
L 105.601102 -90.011869 
L 104.518877 -84.221619 
L 102.856816 -75.305631 
L 101.828382 -69.805017 
L 100.187054 -60.981135 
L 99.245387 -55.925325 
L 97.4794 -46.688184 
L 96.618754 -42.709584 
L 95.114276 -39.647594 
L 94.454787 -39.6 
L 93.591523 -39.6 
L 93.242495 -39.6 
L 92.928148 -39.6 
L 92.896713 -39.6 
L 92.89357 -39.6 
z
" style="stroke: #ff0000; stroke-opacity: 0.2"/>
    </defs>
    <g clip-path="url(#p7dd3ae7b97)">
     <use xlink:href="#mc4c57a40d2" x="0" y="360" style="fill: #ff0000; fill-opacity: 0.2; stroke: #ff0000; stroke-opacity: 0.2"/>
    </g>
   </g>
   <g id="PathCollection_1">
    <defs>
     <path id="m530fb3f651" d="M 0 3 
C 0.795609 3 1.55874 2.683901 2.12132 2.12132 
C 2.683901 1.55874 3 0.795609 3 0 
C 3 -0.795609 2.683901 -1.55874 2.12132 -2.12132 
C 1.55874 -2.683901 0.795609 -3 0 -3 
C -0.795609 -3 -1.55874 -2.683901 -2.12132 -2.12132 
C -2.683901 -1.55874 -3 -0.795609 -3 0 
C -3 0.795609 -2.683901 1.55874 -2.12132 2.12132 
C -1.55874 2.683901 -0.795609 3 0 3 
z
" style="stroke: #000000; stroke-opacity: 0.8"/>
    </defs>
    <g clip-path="url(#p7dd3ae7b97)">
     <use xlink:href="#m530fb3f651" x="92.89357" y="320.4" style="fill: #ff0000; fill-opacity: 0.8; stroke: #000000; stroke-opacity: 0.8"/>
     <use xlink:href="#m530fb3f651" x="121.829268" y="191.915937" style="fill: #ff0000; fill-opacity: 0.8; stroke: #000000; stroke-opacity: 0.8"/>
     <use xlink:href="#m530fb3f651" x="150.764967" y="144.554018" style="fill: #ff0000; fill-opacity: 0.8; stroke: #000000; stroke-opacity: 0.8"/>
     <use xlink:href="#m530fb3f651" x="179.700665" y="137.536526" style="fill: #ff0000; fill-opacity: 0.8; stroke: #000000; stroke-opacity: 0.8"/>
     <use xlink:href="#m530fb3f651" x="208.636364" y="161.939482" style="fill: #ff0000; fill-opacity: 0.8; stroke: #000000; stroke-opacity: 0.8"/>
     <use xlink:href="#m530fb3f651" x="237.572062" y="126.315559" style="fill: #ff0000; fill-opacity: 0.8; stroke: #000000; stroke-opacity: 0.8"/>
     <use xlink:href="#m530fb3f651" x="266.507761" y="144.892106" style="fill: #ff0000; fill-opacity: 0.8; stroke: #000000; stroke-opacity: 0.8"/>
     <use xlink:href="#m530fb3f651" x="295.443459" y="189.192474" style="fill: #ff0000; fill-opacity: 0.8; stroke: #000000; stroke-opacity: 0.8"/>
     <use xlink:href="#m530fb3f651" x="324.379157" y="320.4" style="fill: #ff0000; fill-opacity: 0.8; stroke: #000000; stroke-opacity: 0.8"/>
    </g>
   </g>
   <g id="line2d_19">
    <path d="M 92.89357 320.4 
L 96.618754 320.4 
L 104.518877 280.026845 
L 125.178736 176.129483 
L 128.198597 162.259709 
L 129.871186 155.347189 
L 131.120354 150.714703 
L 132.939081 144.981118 
L 134.193922 141.769715 
L 135.976079 138.249505 
L 137.288916 136.331228 
L 138.79694 134.698546 
L 139.999443 133.737263 
L 141.342475 132.934846 
L 142.685508 132.351704 
L 144.803685 131.757722 
L 147.303377 131.412825 
L 149.708426 131.324786 
L 153.090543 131.463872 
L 157.060401 131.872806 
L 162.669329 132.702934 
L 170.341956 134.07025 
L 187.483799 137.434018 
L 210.632357 142.182019 
L 222.206637 144.718393 
L 230.887346 146.784223 
L 239.568056 149.075209 
L 245.355195 150.776446 
L 251.142335 152.659718 
L 256.929475 154.772089 
L 262.716615 157.175637 
L 268.503754 159.957962 
L 271.397324 161.530308 
L 274.290894 163.253284 
L 277.184464 165.158493 
L 280.078034 167.289518 
L 282.971603 169.709039 
L 285.865173 172.512147 
L 288.758743 175.85364 
L 291.652313 180.011854 
L 294.545883 185.569856 
L 297.439453 194.134341 
L 300.333022 215.074242 
L 300.996779 233.170539 
L 301.226458 258.198109 
L 301.585523 320.4 
L 324.379157 320.4 
L 324.379157 320.4 
" clip-path="url(#p7dd3ae7b97)" style="fill: none; stroke: #ff0000; stroke-width: 1.5; stroke-linecap: square"/>
   </g>
  </g>
  <g id="axes_2">
   <g id="patch_7">
    <path d="M 374.727273 320.4 
L 612 320.4 
L 612 43.2 
L 374.727273 43.2 
z
" style="fill: #ffffff"/>
   </g>
   <g id="matplotlib.axis_3">
    <g id="xtick_10">
     <g id="line2d_20">
      <g>
       <use xlink:href="#m8c6ebcb899" x="377.620843" y="320.4" style="stroke: #000000; stroke-width: 0.8"/>
      </g>
     </g>
     <g id="text_21">
      <!-- 0 -->
      <g transform="translate(373.039843 338.34175) scale(0.144 -0.144)">
       <use xlink:href="#DejaVuSans-30"/>
      </g>
     </g>
    </g>
    <g id="xtick_11">
     <g id="line2d_21">
      <g>
       <use xlink:href="#m8c6ebcb899" x="406.556541" y="320.4" style="stroke: #000000; stroke-width: 0.8"/>
      </g>
     </g>
     <g id="text_22">
      <!-- 1 -->
      <g transform="translate(401.975541 338.34175) scale(0.144 -0.144)">
       <use xlink:href="#DejaVuSans-31"/>
      </g>
     </g>
    </g>
    <g id="xtick_12">
     <g id="line2d_22">
      <g>
       <use xlink:href="#m8c6ebcb899" x="435.492239" y="320.4" style="stroke: #000000; stroke-width: 0.8"/>
      </g>
     </g>
     <g id="text_23">
      <!-- 2 -->
      <g transform="translate(430.911239 338.34175) scale(0.144 -0.144)">
       <use xlink:href="#DejaVuSans-32"/>
      </g>
     </g>
    </g>
    <g id="xtick_13">
     <g id="line2d_23">
      <g>
       <use xlink:href="#m8c6ebcb899" x="464.427938" y="320.4" style="stroke: #000000; stroke-width: 0.8"/>
      </g>
     </g>
     <g id="text_24">
      <!-- 3 -->
      <g transform="translate(459.846938 338.34175) scale(0.144 -0.144)">
       <use xlink:href="#DejaVuSans-33"/>
      </g>
     </g>
    </g>
    <g id="xtick_14">
     <g id="line2d_24">
      <g>
       <use xlink:href="#m8c6ebcb899" x="493.363636" y="320.4" style="stroke: #000000; stroke-width: 0.8"/>
      </g>
     </g>
     <g id="text_25">
      <!-- 4 -->
      <g transform="translate(488.782636 338.34175) scale(0.144 -0.144)">
       <use xlink:href="#DejaVuSans-34"/>
      </g>
     </g>
    </g>
    <g id="xtick_15">
     <g id="line2d_25">
      <g>
       <use xlink:href="#m8c6ebcb899" x="522.299335" y="320.4" style="stroke: #000000; stroke-width: 0.8"/>
      </g>
     </g>
     <g id="text_26">
      <!-- 5 -->
      <g transform="translate(517.718335 338.34175) scale(0.144 -0.144)">
       <use xlink:href="#DejaVuSans-35"/>
      </g>
     </g>
    </g>
    <g id="xtick_16">
     <g id="line2d_26">
      <g>
       <use xlink:href="#m8c6ebcb899" x="551.235033" y="320.4" style="stroke: #000000; stroke-width: 0.8"/>
      </g>
     </g>
     <g id="text_27">
      <!-- 6 -->
      <g transform="translate(546.654033 338.34175) scale(0.144 -0.144)">
       <use xlink:href="#DejaVuSans-36"/>
      </g>
     </g>
    </g>
    <g id="xtick_17">
     <g id="line2d_27">
      <g>
       <use xlink:href="#m8c6ebcb899" x="580.170732" y="320.4" style="stroke: #000000; stroke-width: 0.8"/>
      </g>
     </g>
     <g id="text_28">
      <!-- 7 -->
      <g transform="translate(575.589732 338.34175) scale(0.144 -0.144)">
       <use xlink:href="#DejaVuSans-37"/>
      </g>
     </g>
    </g>
    <g id="xtick_18">
     <g id="line2d_28">
      <g>
       <use xlink:href="#m8c6ebcb899" x="609.10643" y="320.4" style="stroke: #000000; stroke-width: 0.8"/>
      </g>
     </g>
     <g id="text_29">
      <!-- 8 -->
      <g transform="translate(604.52543 338.34175) scale(0.144 -0.144)">
       <use xlink:href="#DejaVuSans-38"/>
      </g>
     </g>
    </g>
    <g id="text_30">
     <!-- Time (d) -->
     <g transform="translate(453.238636 359.9255) scale(0.192 -0.192)">
      <use xlink:href="#DejaVuSans-54"/>
      <use xlink:href="#DejaVuSans-69" x="57.958984"/>
      <use xlink:href="#DejaVuSans-6d" x="85.742188"/>
      <use xlink:href="#DejaVuSans-65" x="183.154297"/>
      <use xlink:href="#DejaVuSans-20" x="244.677734"/>
      <use xlink:href="#DejaVuSans-28" x="276.464844"/>
      <use xlink:href="#DejaVuSans-64" x="315.478516"/>
      <use xlink:href="#DejaVuSans-29" x="378.955078"/>
     </g>
    </g>
   </g>
   <g id="matplotlib.axis_4">
    <g id="ytick_10">
     <g id="line2d_29">
      <g>
       <use xlink:href="#me19c2f38bc" x="374.727273" y="320.4" style="stroke: #000000; stroke-width: 0.8"/>
      </g>
     </g>
     <g id="text_31">
      <!-- 4.5 -->
      <g transform="translate(344.826773 325.870875) scale(0.144 -0.144)">
       <defs>
        <path id="DejaVuSans-2e" d="M 684 794 
L 1344 794 
L 1344 0 
L 684 0 
L 684 794 
z
" transform="scale(0.015625)"/>
       </defs>
       <use xlink:href="#DejaVuSans-34"/>
       <use xlink:href="#DejaVuSans-2e" x="63.623047"/>
       <use xlink:href="#DejaVuSans-35" x="95.410156"/>
      </g>
     </g>
    </g>
    <g id="ytick_11">
     <g id="line2d_30">
      <g>
       <use xlink:href="#me19c2f38bc" x="374.727273" y="277.753846" style="stroke: #000000; stroke-width: 0.8"/>
      </g>
     </g>
     <g id="text_32">
      <!-- 5.0 -->
      <g transform="translate(344.826773 283.224721) scale(0.144 -0.144)">
       <use xlink:href="#DejaVuSans-35"/>
       <use xlink:href="#DejaVuSans-2e" x="63.623047"/>
       <use xlink:href="#DejaVuSans-30" x="95.410156"/>
      </g>
     </g>
    </g>
    <g id="ytick_12">
     <g id="line2d_31">
      <g>
       <use xlink:href="#me19c2f38bc" x="374.727273" y="235.107692" style="stroke: #000000; stroke-width: 0.8"/>
      </g>
     </g>
     <g id="text_33">
      <!-- 5.5 -->
      <g transform="translate(344.826773 240.578567) scale(0.144 -0.144)">
       <use xlink:href="#DejaVuSans-35"/>
       <use xlink:href="#DejaVuSans-2e" x="63.623047"/>
       <use xlink:href="#DejaVuSans-35" x="95.410156"/>
      </g>
     </g>
    </g>
    <g id="ytick_13">
     <g id="line2d_32">
      <g>
       <use xlink:href="#me19c2f38bc" x="374.727273" y="192.461538" style="stroke: #000000; stroke-width: 0.8"/>
      </g>
     </g>
     <g id="text_34">
      <!-- 6.0 -->
      <g transform="translate(344.826773 197.932413) scale(0.144 -0.144)">
       <use xlink:href="#DejaVuSans-36"/>
       <use xlink:href="#DejaVuSans-2e" x="63.623047"/>
       <use xlink:href="#DejaVuSans-30" x="95.410156"/>
      </g>
     </g>
    </g>
    <g id="ytick_14">
     <g id="line2d_33">
      <g>
       <use xlink:href="#me19c2f38bc" x="374.727273" y="149.815385" style="stroke: #000000; stroke-width: 0.8"/>
      </g>
     </g>
     <g id="text_35">
      <!-- 6.5 -->
      <g transform="translate(344.826773 155.28626) scale(0.144 -0.144)">
       <use xlink:href="#DejaVuSans-36"/>
       <use xlink:href="#DejaVuSans-2e" x="63.623047"/>
       <use xlink:href="#DejaVuSans-35" x="95.410156"/>
      </g>
     </g>
    </g>
    <g id="ytick_15">
     <g id="line2d_34">
      <g>
       <use xlink:href="#me19c2f38bc" x="374.727273" y="107.169231" style="stroke: #000000; stroke-width: 0.8"/>
      </g>
     </g>
     <g id="text_36">
      <!-- 7.0 -->
      <g transform="translate(344.826773 112.640106) scale(0.144 -0.144)">
       <use xlink:href="#DejaVuSans-37"/>
       <use xlink:href="#DejaVuSans-2e" x="63.623047"/>
       <use xlink:href="#DejaVuSans-30" x="95.410156"/>
      </g>
     </g>
    </g>
    <g id="ytick_16">
     <g id="line2d_35">
      <g>
       <use xlink:href="#me19c2f38bc" x="374.727273" y="64.523077" style="stroke: #000000; stroke-width: 0.8"/>
      </g>
     </g>
     <g id="text_37">
      <!-- 7.5 -->
      <g transform="translate(344.826773 69.993952) scale(0.144 -0.144)">
       <use xlink:href="#DejaVuSans-37"/>
       <use xlink:href="#DejaVuSans-2e" x="63.623047"/>
       <use xlink:href="#DejaVuSans-35" x="95.410156"/>
      </g>
     </g>
    </g>
    <g id="text_38">
     <!-- Log10(CD8TE) -->
     <g transform="translate(336.833773 250.7895) rotate(-90) scale(0.192 -0.192)">
      <defs>
       <path id="DejaVuSans-43" d="M 4122 4306 
L 4122 3641 
Q 3803 3938 3442 4084 
Q 3081 4231 2675 4231 
Q 1875 4231 1450 3742 
Q 1025 3253 1025 2328 
Q 1025 1406 1450 917 
Q 1875 428 2675 428 
Q 3081 428 3442 575 
Q 3803 722 4122 1019 
L 4122 359 
Q 3791 134 3420 21 
Q 3050 -91 2638 -91 
Q 1578 -91 968 557 
Q 359 1206 359 2328 
Q 359 3453 968 4101 
Q 1578 4750 2638 4750 
Q 3056 4750 3426 4639 
Q 3797 4528 4122 4306 
z
" transform="scale(0.015625)"/>
       <path id="DejaVuSans-44" d="M 1259 4147 
L 1259 519 
L 2022 519 
Q 2988 519 3436 956 
Q 3884 1394 3884 2338 
Q 3884 3275 3436 3711 
Q 2988 4147 2022 4147 
L 1259 4147 
z
M 628 4666 
L 1925 4666 
Q 3281 4666 3915 4102 
Q 4550 3538 4550 2338 
Q 4550 1131 3912 565 
Q 3275 0 1925 0 
L 628 0 
L 628 4666 
z
" transform="scale(0.015625)"/>
       <path id="DejaVuSans-45" d="M 628 4666 
L 3578 4666 
L 3578 4134 
L 1259 4134 
L 1259 2753 
L 3481 2753 
L 3481 2222 
L 1259 2222 
L 1259 531 
L 3634 531 
L 3634 0 
L 628 0 
L 628 4666 
z
" transform="scale(0.015625)"/>
      </defs>
      <use xlink:href="#DejaVuSans-4c"/>
      <use xlink:href="#DejaVuSans-6f" x="53.962891"/>
      <use xlink:href="#DejaVuSans-67" x="115.144531"/>
      <use xlink:href="#DejaVuSans-31" x="178.621094"/>
      <use xlink:href="#DejaVuSans-30" x="242.244141"/>
      <use xlink:href="#DejaVuSans-28" x="305.867188"/>
      <use xlink:href="#DejaVuSans-43" x="344.880859"/>
      <use xlink:href="#DejaVuSans-44" x="414.705078"/>
      <use xlink:href="#DejaVuSans-38" x="491.707031"/>
      <use xlink:href="#DejaVuSans-54" x="555.330078"/>
      <use xlink:href="#DejaVuSans-45" x="616.414062"/>
      <use xlink:href="#DejaVuSans-29" x="679.597656"/>
     </g>
    </g>
   </g>
   <g id="patch_8">
    <path d="M 374.727273 320.4 
L 374.727273 43.2 
" style="fill: none; stroke: #000000; stroke-width: 0.8; stroke-linejoin: miter; stroke-linecap: square"/>
   </g>
   <g id="patch_9">
    <path d="M 612 320.4 
L 612 43.2 
" style="fill: none; stroke: #000000; stroke-width: 0.8; stroke-linejoin: miter; stroke-linecap: square"/>
   </g>
   <g id="patch_10">
    <path d="M 374.727273 320.4 
L 612 320.4 
" style="fill: none; stroke: #000000; stroke-width: 0.8; stroke-linejoin: miter; stroke-linecap: square"/>
   </g>
   <g id="patch_11">
    <path d="M 374.727273 43.2 
L 612 43.2 
" style="fill: none; stroke: #000000; stroke-width: 0.8; stroke-linejoin: miter; stroke-linecap: square"/>
   </g>
   <g id="PolyCollection_2">
    <defs>
     <path id="me483ad9773" d="M 377.620843 -136.656835 
L 377.620843 -136.656835 
L 377.623986 -136.656835 
L 377.655421 -136.656835 
L 377.969767 -136.656835 
L 378.318796 -136.656835 
L 379.18206 -136.656835 
L 379.841548 -136.656835 
L 381.346027 -136.656835 
L 382.206673 -136.656835 
L 383.972659 -136.656835 
L 384.914326 -136.656835 
L 386.555655 -136.656835 
L 387.584089 -136.656835 
L 389.24615 -136.656835 
L 390.328374 -136.656835 
L 391.95738 -136.656835 
L 393.081622 -136.656835 
L 394.701398 -136.656835 
L 395.85412 -136.656835 
L 397.621107 -136.656835 
L 398.748636 -136.656835 
L 400.284849 -136.656835 
L 401.452903 -136.656835 
L 403.120699 -136.656835 
L 404.280037 -136.656835 
L 405.843237 -136.656835 
L 407.029575 -136.656835 
L 408.718781 -136.656835 
L 409.906009 -136.656835 
L 411.737951 -136.656835 
L 412.92587 -136.656835 
L 414.598459 -136.656835 
L 415.847626 -136.656835 
L 417.666353 -136.656835 
L 418.921195 -136.656835 
L 420.703352 -136.656836 
L 422.016189 -136.656836 
L 423.524213 -136.656838 
L 424.726716 -136.656839 
L 426.069748 -136.656842 
L 427.41278 -136.656847 
L 428.529851 -136.656852 
L 429.530958 -136.65686 
L 430.429929 -136.656869 
L 431.230289 -136.65688 
L 432.03065 -136.656895 
L 432.686588 -136.65691 
L 433.292334 -136.656927 
L 433.89808 -136.656951 
L 434.435699 -136.656976 
L 434.999385 -136.657004 
L 435.563071 -136.657035 
L 436.126757 -136.657074 
L 436.690444 -136.657123 
L 437.25413 -136.657192 
L 437.817816 -136.657261 
L 438.381502 -136.657337 
L 438.945188 -136.657435 
L 439.508874 -136.65758 
L 440.07256 -136.657743 
L 440.637325 -136.657907 
L 441.208837 -136.658073 
L 441.787674 -136.658301 
L 442.377568 -136.65857 
L 442.979027 -136.658995 
L 443.594742 -136.659448 
L 444.225338 -136.659913 
L 446.575622 -136.662877 
L 447.396602 -136.664395 
L 449.926568 -136.67115 
L 450.950939 -136.675881 
L 453.844509 -136.693487 
L 455.069228 -136.707542 
L 457.962798 -136.748668 
L 459.449301 -136.785364 
L 462.34287 -136.878702 
L 464.168175 -136.973059 
L 467.061745 -137.175595 
L 469.317501 -137.415214 
L 472.211071 -137.841275 
L 475.104641 -138.450404 
L 477.998211 -139.293813 
L 480.891781 -140.425392 
L 483.785351 -141.897015 
L 486.67892 -143.752701 
L 489.57249 -146.022576 
L 492.46606 -148.717909 
L 495.35963 -151.828479 
L 498.2532 -155.322979 
L 501.14677 -159.152353 
L 504.04034 -163.255187 
L 506.933909 -167.563837 
L 509.827479 -172.010113 
L 512.721049 -176.52971 
L 515.614619 -181.065103 
L 518.508189 -185.567008 
L 521.401759 -189.994724 
L 524.295328 -194.31572 
L 527.188898 -198.504805 
L 530.082468 -202.543108 
L 532.976038 -206.41704 
L 535.869608 -210.117323 
L 538.763178 -213.638139 
L 541.656748 -216.9764 
L 544.550317 -220.131149 
L 547.443887 -222.698042 
L 550.337457 -224.592155 
L 553.231027 -225.59564 
L 556.124597 -225.983515 
L 559.018167 -226.208321 
L 561.911736 -226.278207 
L 564.805306 -226.201105 
L 567.698876 -225.984732 
L 570.592446 -225.63658 
L 573.486016 -225.163926 
L 576.379586 -224.573828 
L 579.273156 -223.873137 
L 582.166725 -223.068501 
L 585.060295 -222.166371 
L 585.639009 -221.978772 
L 585.724052 -221.951204 
L 585.893204 -221.89637 
L 585.914444 -221.889485 
L 585.916576 -221.888794 
L 585.927236 -221.885338 
L 585.927581 -221.885227 
L 585.931023 -221.884111 
L 585.933942 -221.883164 
L 585.938212 -221.88178 
L 585.938305 -221.88175 
L 585.939236 -221.881448 
L 585.940266 -221.881115 
L 585.9412 -221.880812 
L 585.942192 -221.88049 
L 585.943265 -221.880142 
L 585.944489 -221.879745 
L 585.94594 -221.879275 
L 585.947751 -221.878688 
L 585.950163 -221.877906 
L 585.953731 -221.87675 
L 585.986057 -221.866271 
L 586.027382 -221.852874 
L 586.099086 -221.82963 
L 586.178526 -221.803057 
L 586.312796 -221.755406 
L 586.475595 -221.69763 
L 586.93902 -221.533166 
L 589.188583 -220.730719 
L 590.798927 -220.113098 
L 593.692497 -218.964998 
L 596.586067 -217.732797 
L 599.479637 -216.427867 
L 602.373207 -215.067177 
L 605.266776 -213.649143 
L 608.160346 -212.15114 
L 609.10643 -211.646391 
L 609.10643 -254.47335 
L 609.10643 -254.47335 
L 608.160346 -254.638036 
L 605.266776 -255.094857 
L 602.373207 -255.470208 
L 599.479637 -255.755402 
L 596.586067 -255.946136 
L 593.692497 -256.037959 
L 590.798927 -256.036666 
L 589.188583 -255.98511 
L 586.93902 -255.840943 
L 586.475595 -255.803787 
L 586.312796 -255.790735 
L 586.178526 -255.779969 
L 586.099086 -255.7736 
L 586.027382 -255.767851 
L 585.986057 -255.764538 
L 585.953731 -255.761946 
L 585.950163 -255.76166 
L 585.947751 -255.761466 
L 585.94594 -255.761321 
L 585.944489 -255.761205 
L 585.943265 -255.761107 
L 585.942192 -255.761021 
L 585.9412 -255.760941 
L 585.940266 -255.760866 
L 585.939236 -255.760784 
L 585.938305 -255.760709 
L 585.938212 -255.760702 
L 585.933942 -255.760359 
L 585.931023 -255.760125 
L 585.927581 -255.759849 
L 585.927236 -255.759822 
L 585.916576 -255.758967 
L 585.914444 -255.758796 
L 585.893204 -255.757093 
L 585.724052 -255.743531 
L 585.639009 -255.736713 
L 585.060295 -255.690313 
L 582.166725 -255.341308 
L 579.273156 -254.868792 
L 576.379586 -254.267301 
L 573.486016 -253.531178 
L 570.592446 -252.654579 
L 567.698876 -252.037891 
L 564.805306 -251.500464 
L 561.911736 -250.812399 
L 559.018167 -249.966539 
L 556.124597 -248.955477 
L 553.231027 -247.771567 
L 550.337457 -246.406931 
L 547.443887 -244.853472 
L 544.550317 -243.102907 
L 541.656748 -241.146808 
L 538.763178 -238.976661 
L 535.869608 -237.035341 
L 532.976038 -234.995163 
L 530.082468 -232.712799 
L 527.188898 -230.17824 
L 524.295328 -227.381841 
L 521.401759 -224.314619 
L 518.508189 -220.968671 
L 515.614619 -217.337735 
L 512.721049 -213.417956 
L 509.827479 -209.208917 
L 506.933909 -204.714995 
L 504.04034 -199.947131 
L 501.14677 -194.97132 
L 498.2532 -189.765363 
L 495.35963 -184.370614 
L 492.46606 -178.849599 
L 489.57249 -173.285376 
L 486.67892 -167.782463 
L 483.785351 -162.671645 
L 480.891781 -157.918975 
L 477.998211 -153.538743 
L 475.104641 -149.638798 
L 472.211071 -146.298572 
L 469.317501 -143.556279 
L 467.061745 -141.853128 
L 464.168175 -140.125143 
L 462.34287 -139.283271 
L 459.449301 -138.303924 
L 457.962798 -137.910879 
L 455.069228 -137.398574 
L 453.844509 -137.22212 
L 450.950939 -136.97319 
L 449.926568 -136.898003 
L 447.396602 -136.794431 
L 446.575622 -136.767295 
L 444.225338 -136.717483 
L 443.594742 -136.707999 
L 442.979027 -136.698739 
L 442.377568 -136.691985 
L 441.787674 -136.686977 
L 441.208837 -136.682944 
L 440.637325 -136.678962 
L 440.07256 -136.675026 
L 439.508874 -136.671994 
L 438.945188 -136.669618 
L 438.381502 -136.66759 
L 437.817816 -136.665863 
L 437.25413 -136.664395 
L 436.690444 -136.663151 
L 436.126757 -136.662106 
L 435.563071 -136.66123 
L 434.999385 -136.660491 
L 434.435699 -136.65987 
L 433.89808 -136.659371 
L 433.292334 -136.658901 
L 432.686588 -136.658513 
L 432.03065 -136.658174 
L 431.230289 -136.657849 
L 430.429929 -136.657601 
L 429.530958 -136.65739 
L 428.529851 -136.657225 
L 427.41278 -136.657095 
L 426.069748 -136.656999 
L 424.726716 -136.656937 
L 423.524213 -136.656901 
L 422.016189 -136.656874 
L 420.703352 -136.656859 
L 418.921195 -136.656848 
L 417.666353 -136.656843 
L 415.847626 -136.656839 
L 414.598459 -136.656837 
L 412.92587 -136.656836 
L 411.737951 -136.656836 
L 409.906009 -136.656835 
L 408.718781 -136.656835 
L 407.029575 -136.656835 
L 405.843237 -136.656835 
L 404.280037 -136.656835 
L 403.120699 -136.656835 
L 401.452903 -136.656835 
L 400.284849 -136.656835 
L 398.748636 -136.656835 
L 397.621107 -136.656835 
L 395.85412 -136.656835 
L 394.701398 -136.656835 
L 393.081622 -136.656835 
L 391.95738 -136.656835 
L 390.328374 -136.656835 
L 389.24615 -136.656835 
L 387.584089 -136.656835 
L 386.555655 -136.656835 
L 384.914326 -136.656835 
L 383.972659 -136.656835 
L 382.206673 -136.656835 
L 381.346027 -136.656835 
L 379.841548 -136.656835 
L 379.18206 -136.656835 
L 378.318796 -136.656835 
L 377.969767 -136.656835 
L 377.655421 -136.656835 
L 377.623986 -136.656835 
L 377.620843 -136.656835 
z
" style="stroke: #ff0000; stroke-opacity: 0.2"/>
    </defs>
    <g clip-path="url(#p65e0ab570d)">
     <use xlink:href="#me483ad9773" x="0" y="360" style="fill: #ff0000; fill-opacity: 0.2; stroke: #ff0000; stroke-opacity: 0.2"/>
    </g>
   </g>
   <g id="PathCollection_2">
    <g clip-path="url(#p65e0ab570d)">
     <use xlink:href="#m530fb3f651" x="348.685144" y="204.5505" style="fill: #ff0000; fill-opacity: 0.8; stroke: #000000; stroke-opacity: 0.8"/>
     <use xlink:href="#m530fb3f651" x="377.620843" y="223.343165" style="fill: #ff0000; fill-opacity: 0.8; stroke: #000000; stroke-opacity: 0.8"/>
     <use xlink:href="#m530fb3f651" x="406.556541" y="198.221473" style="fill: #ff0000; fill-opacity: 0.8; stroke: #000000; stroke-opacity: 0.8"/>
     <use xlink:href="#m530fb3f651" x="435.492239" y="193.353304" style="fill: #ff0000; fill-opacity: 0.8; stroke: #000000; stroke-opacity: 0.8"/>
     <use xlink:href="#m530fb3f651" x="464.427938" y="190.471507" style="fill: #ff0000; fill-opacity: 0.8; stroke: #000000; stroke-opacity: 0.8"/>
     <use xlink:href="#m530fb3f651" x="493.363636" y="171.217807" style="fill: #ff0000; fill-opacity: 0.8; stroke: #000000; stroke-opacity: 0.8"/>
     <use xlink:href="#m530fb3f651" x="522.299335" y="158.892645" style="fill: #ff0000; fill-opacity: 0.8; stroke: #000000; stroke-opacity: 0.8"/>
     <use xlink:href="#m530fb3f651" x="551.235033" y="121.548002" style="fill: #ff0000; fill-opacity: 0.8; stroke: #000000; stroke-opacity: 0.8"/>
     <use xlink:href="#m530fb3f651" x="580.170732" y="122.184733" style="fill: #ff0000; fill-opacity: 0.8; stroke: #000000; stroke-opacity: 0.8"/>
    </g>
   </g>
   <g id="line2d_36">
    <path d="M 377.620843 223.343165 
L 450.950939 223.234553 
L 455.069228 223.070594 
L 459.449301 222.690022 
L 462.34287 222.241134 
L 464.168175 221.844279 
L 467.061745 220.976572 
L 469.317501 220.055301 
L 472.211071 218.490425 
L 475.104641 216.434206 
L 477.998211 213.841525 
L 480.891781 210.700616 
L 483.785351 207.037487 
L 486.67892 202.913165 
L 489.57249 198.414786 
L 495.35963 188.702866 
L 504.04034 173.765364 
L 509.827479 164.367953 
L 512.721049 159.962629 
L 515.614619 155.782706 
L 518.508189 151.840714 
L 521.401759 148.143409 
L 524.295328 144.69316 
L 527.188898 141.489066 
L 530.082468 138.527828 
L 532.976038 135.804421 
L 535.869608 133.312608 
L 538.763178 131.045329 
L 541.656748 128.994987 
L 544.550317 127.153673 
L 547.443887 125.513318 
L 550.337457 124.065817 
L 553.231027 122.803112 
L 556.124597 121.717253 
L 559.018167 120.800444 
L 561.911736 120.045067 
L 564.805306 119.443707 
L 567.698876 118.989162 
L 570.592446 118.674444 
L 573.486016 118.492789 
L 576.379586 118.437651 
L 579.273156 118.5027 
L 585.060295 118.969096 
L 589.188583 119.555284 
L 593.692497 120.413823 
L 599.479637 121.822035 
L 605.266776 123.537484 
L 609.10643 124.827329 
L 609.10643 124.827329 
" clip-path="url(#p65e0ab570d)" style="fill: none; stroke: #ff0000; stroke-width: 1.5; stroke-linecap: square"/>
   </g>
  </g>
  <g id="legend_1">
   <g id="patch_12">
    <path d="M 769.44 43.542 
L 867.528 43.542 
Q 871.368 43.542 871.368 39.702 
L 871.368 13.44 
Q 871.368 9.6 867.528 9.6 
L 769.44 9.6 
Q 765.6 9.6 765.6 13.44 
L 765.6 39.702 
Q 765.6 43.542 769.44 43.542 
z
" style="fill: #ffffff; opacity: 0.8; stroke: #cccccc; stroke-linejoin: miter"/>
   </g>
   <g id="PathCollection_3">
    <g>
     <use xlink:href="#m530fb3f651" x="792.48" y="26.829" style="fill: #ff0000; fill-opacity: 0.8; stroke: #000000; stroke-opacity: 0.8"/>
    </g>
   </g>
   <g id="text_39">
    <!-- 111 -->
    <g transform="translate(827.04 31.869) scale(0.192 -0.192)">
     <use xlink:href="#DejaVuSans-31"/>
     <use xlink:href="#DejaVuSans-31" x="63.623047"/>
     <use xlink:href="#DejaVuSans-31" x="127.246094"/>
    </g>
   </g>
  </g>
 </g>
 <defs>
  <clipPath id="p7dd3ae7b97">
   <rect x="90" y="43.2" width="237.272727" height="277.2"/>
  </clipPath>
  <clipPath id="p65e0ab570d">
   <rect x="374.727273" y="43.2" width="237.272727" height="277.2"/>
  </clipPath>
 </defs>
</svg>
