<?xml version="1.0" encoding="utf-8" standalone="no"?>
<!DOCTYPE svg PUBLIC "-//W3C//DTD SVG 1.1//EN"
  "http://www.w3.org/Graphics/SVG/1.1/DTD/svg11.dtd">
<svg xmlns:xlink="http://www.w3.org/1999/xlink" width="720pt" height="360pt" viewBox="0 0 720 360" xmlns="http://www.w3.org/2000/svg" version="1.1">
 <metadata>
  <rdf:RDF xmlns:dc="http://purl.org/dc/elements/1.1/" xmlns:cc="http://creativecommons.org/ns#" xmlns:rdf="http://www.w3.org/1999/02/22-rdf-syntax-ns#">
   <cc:Work>
    <dc:type rdf:resource="http://purl.org/dc/dcmitype/StillImage"/>
    <dc:date>2024-11-13T15:46:02.662154</dc:date>
    <dc:format>image/svg+xml</dc:format>
    <dc:creator>
     <cc:Agent>
      <dc:title>Matplotlib v3.9.2, https://matplotlib.org/</dc:title>
     </cc:Agent>
    </dc:creator>
   </cc:Work>
  </rdf:RDF>
 </metadata>
 <defs>
  <style type="text/css">*{stroke-linejoin: round; stroke-linecap: butt}</style>
 </defs>
 <g id="figure_1">
  <g id="patch_1">
   <path d="M 0 360 
L 720 360 
L 720 0 
L 0 0 
z
" style="fill: #ffffff"/>
  </g>
  <g id="axes_1">
   <g id="patch_2">
    <path d="M 90 320.4 
L 327.272727 320.4 
L 327.272727 43.2 
L 90 43.2 
z
" style="fill: #ffffff"/>
   </g>
   <g id="matplotlib.axis_1">
    <g id="xtick_1">
     <g id="text_1">
      <!-- 0 -->
      <g style="fill: #262626" transform="translate(88.889695 340.20725) scale(0.144 -0.144)">
       <defs>
        <path id="ArialMT-30" d="M 266 2259 
Q 266 3072 433 3567 
Q 600 4063 929 4331 
Q 1259 4600 1759 4600 
Q 2128 4600 2406 4451 
Q 2684 4303 2865 4023 
Q 3047 3744 3150 3342 
Q 3253 2941 3253 2259 
Q 3253 1453 3087 958 
Q 2922 463 2592 192 
Q 2263 -78 1759 -78 
Q 1097 -78 719 397 
Q 266 969 266 2259 
z
M 844 2259 
Q 844 1131 1108 757 
Q 1372 384 1759 384 
Q 2147 384 2411 759 
Q 2675 1134 2675 2259 
Q 2675 3391 2411 3762 
Q 2147 4134 1753 4134 
Q 1366 4134 1134 3806 
Q 844 3388 844 2259 
z
" transform="scale(0.015625)"/>
       </defs>
       <use xlink:href="#ArialMT-30"/>
      </g>
     </g>
    </g>
    <g id="xtick_2">
     <g id="text_2">
      <!-- 1 -->
      <g style="fill: #262626" transform="translate(117.825393 340.20725) scale(0.144 -0.144)">
       <defs>
        <path id="ArialMT-31" d="M 2384 0 
L 1822 0 
L 1822 3584 
Q 1619 3391 1289 3197 
Q 959 3003 697 2906 
L 697 3450 
Q 1169 3672 1522 3987 
Q 1875 4303 2022 4600 
L 2384 4600 
L 2384 0 
z
" transform="scale(0.015625)"/>
       </defs>
       <use xlink:href="#ArialMT-31"/>
      </g>
     </g>
    </g>
    <g id="xtick_3">
     <g id="text_3">
      <!-- 2 -->
      <g style="fill: #262626" transform="translate(146.761092 340.20725) scale(0.144 -0.144)">
       <defs>
        <path id="ArialMT-32" d="M 3222 541 
L 3222 0 
L 194 0 
Q 188 203 259 391 
Q 375 700 629 1000 
Q 884 1300 1366 1694 
Q 2113 2306 2375 2664 
Q 2638 3022 2638 3341 
Q 2638 3675 2398 3904 
Q 2159 4134 1775 4134 
Q 1369 4134 1125 3890 
Q 881 3647 878 3216 
L 300 3275 
Q 359 3922 746 4261 
Q 1134 4600 1788 4600 
Q 2447 4600 2831 4234 
Q 3216 3869 3216 3328 
Q 3216 3053 3103 2787 
Q 2991 2522 2730 2228 
Q 2469 1934 1863 1422 
Q 1356 997 1212 845 
Q 1069 694 975 541 
L 3222 541 
z
" transform="scale(0.015625)"/>
       </defs>
       <use xlink:href="#ArialMT-32"/>
      </g>
     </g>
    </g>
    <g id="xtick_4">
     <g id="text_4">
      <!-- 3 -->
      <g style="fill: #262626" transform="translate(175.69679 340.20725) scale(0.144 -0.144)">
       <defs>
        <path id="ArialMT-33" d="M 269 1209 
L 831 1284 
Q 928 806 1161 595 
Q 1394 384 1728 384 
Q 2125 384 2398 659 
Q 2672 934 2672 1341 
Q 2672 1728 2419 1979 
Q 2166 2231 1775 2231 
Q 1616 2231 1378 2169 
L 1441 2663 
Q 1497 2656 1531 2656 
Q 1891 2656 2178 2843 
Q 2466 3031 2466 3422 
Q 2466 3731 2256 3934 
Q 2047 4138 1716 4138 
Q 1388 4138 1169 3931 
Q 950 3725 888 3313 
L 325 3413 
Q 428 3978 793 4289 
Q 1159 4600 1703 4600 
Q 2078 4600 2393 4439 
Q 2709 4278 2876 4000 
Q 3044 3722 3044 3409 
Q 3044 3113 2884 2869 
Q 2725 2625 2413 2481 
Q 2819 2388 3044 2092 
Q 3269 1797 3269 1353 
Q 3269 753 2831 336 
Q 2394 -81 1725 -81 
Q 1122 -81 723 278 
Q 325 638 269 1209 
z
" transform="scale(0.015625)"/>
       </defs>
       <use xlink:href="#ArialMT-33"/>
      </g>
     </g>
    </g>
    <g id="xtick_5">
     <g id="text_5">
      <!-- 4 -->
      <g style="fill: #262626" transform="translate(204.632489 340.20725) scale(0.144 -0.144)">
       <defs>
        <path id="ArialMT-34" d="M 2069 0 
L 2069 1097 
L 81 1097 
L 81 1613 
L 2172 4581 
L 2631 4581 
L 2631 1613 
L 3250 1613 
L 3250 1097 
L 2631 1097 
L 2631 0 
L 2069 0 
z
M 2069 1613 
L 2069 3678 
L 634 1613 
L 2069 1613 
z
" transform="scale(0.015625)"/>
       </defs>
       <use xlink:href="#ArialMT-34"/>
      </g>
     </g>
    </g>
    <g id="xtick_6">
     <g id="text_6">
      <!-- 5 -->
      <g style="fill: #262626" transform="translate(233.568187 340.20725) scale(0.144 -0.144)">
       <defs>
        <path id="ArialMT-35" d="M 266 1200 
L 856 1250 
Q 922 819 1161 601 
Q 1400 384 1738 384 
Q 2144 384 2425 690 
Q 2706 997 2706 1503 
Q 2706 1984 2436 2262 
Q 2166 2541 1728 2541 
Q 1456 2541 1237 2417 
Q 1019 2294 894 2097 
L 366 2166 
L 809 4519 
L 3088 4519 
L 3088 3981 
L 1259 3981 
L 1013 2750 
Q 1425 3038 1878 3038 
Q 2478 3038 2890 2622 
Q 3303 2206 3303 1553 
Q 3303 931 2941 478 
Q 2500 -78 1738 -78 
Q 1113 -78 717 272 
Q 322 622 266 1200 
z
" transform="scale(0.015625)"/>
       </defs>
       <use xlink:href="#ArialMT-35"/>
      </g>
     </g>
    </g>
    <g id="xtick_7">
     <g id="text_7">
      <!-- 6 -->
      <g style="fill: #262626" transform="translate(262.503886 340.20725) scale(0.144 -0.144)">
       <defs>
        <path id="ArialMT-36" d="M 3184 3459 
L 2625 3416 
Q 2550 3747 2413 3897 
Q 2184 4138 1850 4138 
Q 1581 4138 1378 3988 
Q 1113 3794 959 3422 
Q 806 3050 800 2363 
Q 1003 2672 1297 2822 
Q 1591 2972 1913 2972 
Q 2475 2972 2870 2558 
Q 3266 2144 3266 1488 
Q 3266 1056 3080 686 
Q 2894 316 2569 119 
Q 2244 -78 1831 -78 
Q 1128 -78 684 439 
Q 241 956 241 2144 
Q 241 3472 731 4075 
Q 1159 4600 1884 4600 
Q 2425 4600 2770 4297 
Q 3116 3994 3184 3459 
z
M 888 1484 
Q 888 1194 1011 928 
Q 1134 663 1356 523 
Q 1578 384 1822 384 
Q 2178 384 2434 671 
Q 2691 959 2691 1453 
Q 2691 1928 2437 2201 
Q 2184 2475 1800 2475 
Q 1419 2475 1153 2201 
Q 888 1928 888 1484 
z
" transform="scale(0.015625)"/>
       </defs>
       <use xlink:href="#ArialMT-36"/>
      </g>
     </g>
    </g>
    <g id="xtick_8">
     <g id="text_8">
      <!-- 7 -->
      <g style="fill: #262626" transform="translate(291.439584 340.20725) scale(0.144 -0.144)">
       <defs>
        <path id="ArialMT-37" d="M 303 3981 
L 303 4522 
L 3269 4522 
L 3269 4084 
Q 2831 3619 2401 2847 
Q 1972 2075 1738 1259 
Q 1569 684 1522 0 
L 944 0 
Q 953 541 1156 1306 
Q 1359 2072 1739 2783 
Q 2119 3494 2547 3981 
L 303 3981 
z
" transform="scale(0.015625)"/>
       </defs>
       <use xlink:href="#ArialMT-37"/>
      </g>
     </g>
    </g>
    <g id="xtick_9">
     <g id="text_9">
      <!-- 8 -->
      <g style="fill: #262626" transform="translate(320.375282 340.20725) scale(0.144 -0.144)">
       <defs>
        <path id="ArialMT-38" d="M 1131 2484 
Q 781 2613 612 2850 
Q 444 3088 444 3419 
Q 444 3919 803 4259 
Q 1163 4600 1759 4600 
Q 2359 4600 2725 4251 
Q 3091 3903 3091 3403 
Q 3091 3084 2923 2848 
Q 2756 2613 2416 2484 
Q 2838 2347 3058 2040 
Q 3278 1734 3278 1309 
Q 3278 722 2862 322 
Q 2447 -78 1769 -78 
Q 1091 -78 675 323 
Q 259 725 259 1325 
Q 259 1772 486 2073 
Q 713 2375 1131 2484 
z
M 1019 3438 
Q 1019 3113 1228 2906 
Q 1438 2700 1772 2700 
Q 2097 2700 2305 2904 
Q 2513 3109 2513 3406 
Q 2513 3716 2298 3927 
Q 2084 4138 1766 4138 
Q 1444 4138 1231 3931 
Q 1019 3725 1019 3438 
z
M 838 1322 
Q 838 1081 952 856 
Q 1066 631 1291 507 
Q 1516 384 1775 384 
Q 2178 384 2440 643 
Q 2703 903 2703 1303 
Q 2703 1709 2433 1975 
Q 2163 2241 1756 2241 
Q 1359 2241 1098 1978 
Q 838 1716 838 1322 
z
" transform="scale(0.015625)"/>
       </defs>
       <use xlink:href="#ArialMT-38"/>
      </g>
     </g>
    </g>
    <g id="text_10">
     <!-- Time (d) -->
     <g style="fill: #262626" transform="translate(173.266364 361.04625) scale(0.192 -0.192)">
      <defs>
       <path id="ArialMT-54" d="M 1659 0 
L 1659 4041 
L 150 4041 
L 150 4581 
L 3781 4581 
L 3781 4041 
L 2266 4041 
L 2266 0 
L 1659 0 
z
" transform="scale(0.015625)"/>
       <path id="ArialMT-69" d="M 425 3934 
L 425 4581 
L 988 4581 
L 988 3934 
L 425 3934 
z
M 425 0 
L 425 3319 
L 988 3319 
L 988 0 
L 425 0 
z
" transform="scale(0.015625)"/>
       <path id="ArialMT-6d" d="M 422 0 
L 422 3319 
L 925 3319 
L 925 2853 
Q 1081 3097 1340 3245 
Q 1600 3394 1931 3394 
Q 2300 3394 2536 3241 
Q 2772 3088 2869 2813 
Q 3263 3394 3894 3394 
Q 4388 3394 4653 3120 
Q 4919 2847 4919 2278 
L 4919 0 
L 4359 0 
L 4359 2091 
Q 4359 2428 4304 2576 
Q 4250 2725 4106 2815 
Q 3963 2906 3769 2906 
Q 3419 2906 3187 2673 
Q 2956 2441 2956 1928 
L 2956 0 
L 2394 0 
L 2394 2156 
Q 2394 2531 2256 2718 
Q 2119 2906 1806 2906 
Q 1569 2906 1367 2781 
Q 1166 2656 1075 2415 
Q 984 2175 984 1722 
L 984 0 
L 422 0 
z
" transform="scale(0.015625)"/>
       <path id="ArialMT-65" d="M 2694 1069 
L 3275 997 
Q 3138 488 2766 206 
Q 2394 -75 1816 -75 
Q 1088 -75 661 373 
Q 234 822 234 1631 
Q 234 2469 665 2931 
Q 1097 3394 1784 3394 
Q 2450 3394 2872 2941 
Q 3294 2488 3294 1666 
Q 3294 1616 3291 1516 
L 816 1516 
Q 847 969 1125 678 
Q 1403 388 1819 388 
Q 2128 388 2347 550 
Q 2566 713 2694 1069 
z
M 847 1978 
L 2700 1978 
Q 2663 2397 2488 2606 
Q 2219 2931 1791 2931 
Q 1403 2931 1139 2672 
Q 875 2413 847 1978 
z
" transform="scale(0.015625)"/>
       <path id="ArialMT-20" transform="scale(0.015625)"/>
       <path id="ArialMT-28" d="M 1497 -1347 
Q 1031 -759 709 28 
Q 388 816 388 1659 
Q 388 2403 628 3084 
Q 909 3875 1497 4659 
L 1900 4659 
Q 1522 4009 1400 3731 
Q 1209 3300 1100 2831 
Q 966 2247 966 1656 
Q 966 153 1900 -1347 
L 1497 -1347 
z
" transform="scale(0.015625)"/>
       <path id="ArialMT-64" d="M 2575 0 
L 2575 419 
Q 2259 -75 1647 -75 
Q 1250 -75 917 144 
Q 584 363 401 755 
Q 219 1147 219 1656 
Q 219 2153 384 2558 
Q 550 2963 881 3178 
Q 1213 3394 1622 3394 
Q 1922 3394 2156 3267 
Q 2391 3141 2538 2938 
L 2538 4581 
L 3097 4581 
L 3097 0 
L 2575 0 
z
M 797 1656 
Q 797 1019 1065 703 
Q 1334 388 1700 388 
Q 2069 388 2326 689 
Q 2584 991 2584 1609 
Q 2584 2291 2321 2609 
Q 2059 2928 1675 2928 
Q 1300 2928 1048 2622 
Q 797 2316 797 1656 
z
" transform="scale(0.015625)"/>
       <path id="ArialMT-29" d="M 791 -1347 
L 388 -1347 
Q 1322 153 1322 1656 
Q 1322 2244 1188 2822 
Q 1081 3291 891 3722 
Q 769 4003 388 4659 
L 791 4659 
Q 1378 3875 1659 3084 
Q 1900 2403 1900 1659 
Q 1900 816 1576 28 
Q 1253 -759 791 -1347 
z
" transform="scale(0.015625)"/>
      </defs>
      <use xlink:href="#ArialMT-54"/>
      <use xlink:href="#ArialMT-69" x="57.333984"/>
      <use xlink:href="#ArialMT-6d" x="79.550781"/>
      <use xlink:href="#ArialMT-65" x="162.851562"/>
      <use xlink:href="#ArialMT-20" x="218.466797"/>
      <use xlink:href="#ArialMT-28" x="246.25"/>
      <use xlink:href="#ArialMT-64" x="279.550781"/>
      <use xlink:href="#ArialMT-29" x="335.166016"/>
     </g>
    </g>
   </g>
   <g id="matplotlib.axis_2">
    <g id="ytick_1">
     <g id="text_11">
      <!-- 0 -->
      <g style="fill: #262626" transform="translate(72.49225 325.553625) scale(0.144 -0.144)">
       <use xlink:href="#ArialMT-30"/>
      </g>
     </g>
    </g>
    <g id="ytick_2">
     <g id="text_12">
      <!-- 1 -->
      <g style="fill: #262626" transform="translate(72.49225 291.953625) scale(0.144 -0.144)">
       <use xlink:href="#ArialMT-31"/>
      </g>
     </g>
    </g>
    <g id="ytick_3">
     <g id="text_13">
      <!-- 2 -->
      <g style="fill: #262626" transform="translate(72.49225 258.353625) scale(0.144 -0.144)">
       <use xlink:href="#ArialMT-32"/>
      </g>
     </g>
    </g>
    <g id="ytick_4">
     <g id="text_14">
      <!-- 3 -->
      <g style="fill: #262626" transform="translate(72.49225 224.753625) scale(0.144 -0.144)">
       <use xlink:href="#ArialMT-33"/>
      </g>
     </g>
    </g>
    <g id="ytick_5">
     <g id="text_15">
      <!-- 4 -->
      <g style="fill: #262626" transform="translate(72.49225 191.153625) scale(0.144 -0.144)">
       <use xlink:href="#ArialMT-34"/>
      </g>
     </g>
    </g>
    <g id="ytick_6">
     <g id="text_16">
      <!-- 5 -->
      <g style="fill: #262626" transform="translate(72.49225 157.553625) scale(0.144 -0.144)">
       <use xlink:href="#ArialMT-35"/>
      </g>
     </g>
    </g>
    <g id="ytick_7">
     <g id="text_17">
      <!-- 6 -->
      <g style="fill: #262626" transform="translate(72.49225 123.953625) scale(0.144 -0.144)">
       <use xlink:href="#ArialMT-36"/>
      </g>
     </g>
    </g>
    <g id="ytick_8">
     <g id="text_18">
      <!-- 7 -->
      <g style="fill: #262626" transform="translate(72.49225 90.353625) scale(0.144 -0.144)">
       <use xlink:href="#ArialMT-37"/>
      </g>
     </g>
    </g>
    <g id="ytick_9">
     <g id="text_19">
      <!-- 8 -->
      <g style="fill: #262626" transform="translate(72.49225 56.753625) scale(0.144 -0.144)">
       <use xlink:href="#ArialMT-38"/>
      </g>
     </g>
    </g>
    <g id="text_20">
     <!-- Log10(V) -->
     <g style="fill: #262626" transform="translate(64.45125 221.289) rotate(-90) scale(0.192 -0.192)">
      <defs>
       <path id="ArialMT-4c" d="M 469 0 
L 469 4581 
L 1075 4581 
L 1075 541 
L 3331 541 
L 3331 0 
L 469 0 
z
" transform="scale(0.015625)"/>
       <path id="ArialMT-6f" d="M 213 1659 
Q 213 2581 725 3025 
Q 1153 3394 1769 3394 
Q 2453 3394 2887 2945 
Q 3322 2497 3322 1706 
Q 3322 1066 3130 698 
Q 2938 331 2570 128 
Q 2203 -75 1769 -75 
Q 1072 -75 642 372 
Q 213 819 213 1659 
z
M 791 1659 
Q 791 1022 1069 705 
Q 1347 388 1769 388 
Q 2188 388 2466 706 
Q 2744 1025 2744 1678 
Q 2744 2294 2464 2611 
Q 2184 2928 1769 2928 
Q 1347 2928 1069 2612 
Q 791 2297 791 1659 
z
" transform="scale(0.015625)"/>
       <path id="ArialMT-67" d="M 319 -275 
L 866 -356 
Q 900 -609 1056 -725 
Q 1266 -881 1628 -881 
Q 2019 -881 2231 -725 
Q 2444 -569 2519 -288 
Q 2563 -116 2559 434 
Q 2191 0 1641 0 
Q 956 0 581 494 
Q 206 988 206 1678 
Q 206 2153 378 2554 
Q 550 2956 876 3175 
Q 1203 3394 1644 3394 
Q 2231 3394 2613 2919 
L 2613 3319 
L 3131 3319 
L 3131 450 
Q 3131 -325 2973 -648 
Q 2816 -972 2473 -1159 
Q 2131 -1347 1631 -1347 
Q 1038 -1347 672 -1080 
Q 306 -813 319 -275 
z
M 784 1719 
Q 784 1066 1043 766 
Q 1303 466 1694 466 
Q 2081 466 2343 764 
Q 2606 1063 2606 1700 
Q 2606 2309 2336 2618 
Q 2066 2928 1684 2928 
Q 1309 2928 1046 2623 
Q 784 2319 784 1719 
z
" transform="scale(0.015625)"/>
       <path id="ArialMT-56" d="M 1803 0 
L 28 4581 
L 684 4581 
L 1875 1253 
Q 2019 853 2116 503 
Q 2222 878 2363 1253 
L 3600 4581 
L 4219 4581 
L 2425 0 
L 1803 0 
z
" transform="scale(0.015625)"/>
      </defs>
      <use xlink:href="#ArialMT-4c"/>
      <use xlink:href="#ArialMT-6f" x="55.615234"/>
      <use xlink:href="#ArialMT-67" x="111.230469"/>
      <use xlink:href="#ArialMT-31" x="166.845703"/>
      <use xlink:href="#ArialMT-30" x="222.460938"/>
      <use xlink:href="#ArialMT-28" x="278.076172"/>
      <use xlink:href="#ArialMT-56" x="311.376953"/>
      <use xlink:href="#ArialMT-29" x="378.076172"/>
     </g>
    </g>
   </g>
   <g id="patch_3">
    <path d="M 90 320.4 
L 90 43.2 
" style="fill: none; stroke: #cccccc; stroke-width: 1.25; stroke-linejoin: miter; stroke-linecap: square"/>
   </g>
   <g id="patch_4">
    <path d="M 327.272727 320.4 
L 327.272727 43.2 
" style="fill: none; stroke: #cccccc; stroke-width: 1.25; stroke-linejoin: miter; stroke-linecap: square"/>
   </g>
   <g id="patch_5">
    <path d="M 90 320.4 
L 327.272727 320.4 
" style="fill: none; stroke: #cccccc; stroke-width: 1.25; stroke-linejoin: miter; stroke-linecap: square"/>
   </g>
   <g id="patch_6">
    <path d="M 90 43.2 
L 327.272727 43.2 
" style="fill: none; stroke: #cccccc; stroke-width: 1.25; stroke-linejoin: miter; stroke-linecap: square"/>
   </g>
   <g id="PolyCollection_1">
    <path d="M 92.89357 320.4 
L 92.89357 320.4 
L 92.894617 320.4 
L 92.905086 320.4 
L 93.009777 320.4 
L 93.150873 320.4 
L 93.644483 320.4 
L 94.010765 320.4 
L 94.968085 320.4 
L 95.548352 320.4 
L 97.086614 320.4 
L 97.887674 320.4 
L 100.155857 320.4 
L 101.178865 319.017188 
L 103.380106 314.751731 
L 104.586397 312.488918 
L 106.798297 308.42013 
L 108.125078 306.008606 
L 110.32226 302.025442 
L 111.73708 299.470546 
L 113.903853 295.557074 
L 115.37834 292.898368 
L 117.505295 289.060772 
L 119.015069 286.339489 
L 121.32233 282.215372 
L 122.784875 279.610923 
L 124.739491 276.128892 
L 126.24343 273.608171 
L 128.338284 270.103466 
L 129.813075 267.636373 
L 131.732846 264.426054 
L 133.219918 261.938678 
L 135.244349 258.555772 
L 136.694259 256.132262 
L 138.553648 253.026158 
L 140.011704 250.588979 
L 141.965034 247.327261 
L 143.390328 244.946205 
L 145.212556 241.904162 
L 146.643537 239.513689 
L 148.556211 236.321259 
L 149.957589 233.981427 
L 151.752822 230.985894 
L 153.161479 228.634371 
L 155.049032 225.485436 
L 156.432019 223.177608 
L 158.406417 219.884834 
L 159.742945 217.656865 
L 161.483557 214.756497 
L 162.849824 212.480546 
L 164.705962 209.389856 
L 166.061474 207.134373 
L 168.021821 203.87383 
L 169.341279 201.682601 
L 171.085981 198.787031 
L 172.440675 196.542196 
L 174.313379 193.441749 
L 175.662967 191.212854 
L 177.654728 187.927701 
L 178.974729 185.758638 
L 180.752535 182.844096 
L 182.117985 180.615011 
L 184.045922 177.47961 
L 185.418835 175.261002 
L 187.494529 171.927234 
L 188.85415 169.76316 
L 190.744422 166.782437 
L 192.167069 164.565217 
L 194.247534 161.370324 
L 195.695953 159.185028 
L 197.722053 156.198616 
L 199.224457 154.033063 
L 201.428417 150.966528 
L 202.933941 148.949725 
L 205.008147 146.307852 
L 206.566144 144.414188 
L 208.834605 141.855273 
L 210.425773 140.191441 
L 212.928304 137.843227 
L 214.553552 136.484221 
L 216.837918 134.849903 
L 218.534886 133.786098 
L 220.93615 132.585067 
L 222.560985 132.020374 
L 224.585669 131.954302 
L 226.198943 131.999513 
L 228.262289 132.144816 
L 229.824554 132.325127 
L 231.923625 132.642067 
L 233.421274 132.91646 
L 235.298055 133.323164 
L 236.805252 133.685399 
L 238.782885 134.302836 
L 240.2563 134.821302 
L 242.10564 135.543204 
L 243.578096 136.159285 
L 245.544117 137.063475 
L 246.937514 137.745203 
L 248.611615 138.635961 
L 250.285716 139.594066 
L 251.959816 140.628754 
L 253.633917 141.778635 
L 255.308017 143.401634 
L 256.982118 145.293195 
L 258.656219 147.516598 
L 260.330319 150.582071 
L 262.626412 156.105425 
L 264.260707 161.799184 
L 266.334382 184.143205 
L 267.978118 320.4 
L 270.100011 729.951558 
L 270.424299 804.206054 
L 271.003013 936.718569 
L 271.140283 968.150387 
L 271.367831 1020.253819 
L 271.402031 1028.084839 
L 271.451668 1039.450537 
L 271.457709 1040.833897 
L 271.458291 1040.967143 
L 271.461201 1041.633375 
L 271.463455 1042.149629 
L 271.463994 1042.273028 
L 271.464629 1042.418279 
L 271.465391 1042.592858 
L 271.466153 1042.767437 
L 271.469165 1043.457111 
L 271.47601 1045.024307 
L 271.494224 1049.194955 
L 271.524688 1056.170631 
L 271.557724 1063.735124 
L 271.606256 1074.847717 
L 271.654787 1085.96031 
L 271.716464 1100.082827 
L 271.77814 1114.205344 
L 271.857405 1132.355296 
L 271.946264 1152.702094 
L 272.087917 1185.13729 
L 272.284204 1230.08272 
L 273.194254 1438.463582 
L 274.104303 1646.844443 
L 275.471754 1960.147405 
L 276.839205 2295.853945 
L 278.443156 2689.620609 
L 280.047106 3083.387272 
L 281.787751 3510.71217 
L 283.528396 3938.037069 
L 285.276818 4367.270999 
L 287.025239 4796.504929 
L 288.77366 5225.738859 
L 290.522081 5654.972789 
L 292.270503 6084.206719 
L 294.018924 6513.440649 
L 295.767345 6942.674579 
L 297.515766 7371.90851 
L 299.264188 7801.14244 
L 301.012609 8230.37637 
L 302.76103 8659.6103 
L 304.509451 9088.84423 
L 306.257873 9518.07816 
L 308.006294 9950.749879 
L 309.754715 10434.503314 
L 311.503136 10918.25675 
L 313.251558 11402.010185 
L 315.005166 11887.198866 
L 316.765108 12374.139807 
L 318.535158 12863.877375 
L 320.316771 13356.814363 
L 322.113036 13853.805203 
L 323.925684 14355.328886 
L 324.379157 14480.796093 
L 324.379157 320.4 
L 324.379157 320.4 
L 323.925684 320.4 
L 322.113036 320.4 
L 320.316771 320.4 
L 318.535158 320.4 
L 316.765108 320.4 
L 315.005166 320.4 
L 313.251558 320.4 
L 311.503136 320.4 
L 309.754715 320.4 
L 308.006294 320.4 
L 306.257873 320.4 
L 304.509451 320.4 
L 302.76103 320.4 
L 301.012609 320.4 
L 299.264188 320.4 
L 297.515766 320.4 
L 295.767345 320.4 
L 294.018924 320.4 
L 292.270503 320.4 
L 290.522081 320.4 
L 288.77366 320.4 
L 287.025239 312.030909 
L 285.276818 192.653338 
L 283.528396 177.035926 
L 281.787751 166.929578 
L 280.047106 160.802252 
L 278.443156 156.691554 
L 276.839205 153.426109 
L 275.471754 151.094915 
L 274.104303 149.057771 
L 273.194254 147.82084 
L 272.284204 146.684017 
L 272.087917 146.438818 
L 271.946264 146.2711 
L 271.857405 146.171175 
L 271.77814 146.082039 
L 271.716464 146.012683 
L 271.654787 145.943326 
L 271.606256 145.888751 
L 271.557724 145.834176 
L 271.524688 145.797027 
L 271.494224 145.762768 
L 271.47601 145.742286 
L 271.469165 145.73459 
L 271.466153 145.731202 
L 271.465391 145.730345 
L 271.464629 145.729488 
L 271.463994 145.728774 
L 271.463455 145.728168 
L 271.461201 145.725633 
L 271.458291 145.722361 
L 271.457709 145.721707 
L 271.451668 145.714913 
L 271.402031 145.659095 
L 271.367831 145.620636 
L 271.140283 145.364753 
L 271.003013 145.210389 
L 270.424299 144.584835 
L 270.100011 144.254215 
L 267.978118 142.20025 
L 266.334382 140.781207 
L 264.260707 139.17439 
L 262.626412 138.026596 
L 260.330319 136.561631 
L 258.656219 135.393695 
L 256.982118 133.75482 
L 255.308017 132.273441 
L 253.633917 130.846265 
L 251.959816 129.573014 
L 250.285716 128.474791 
L 248.611615 127.488594 
L 246.937514 126.638797 
L 245.544117 125.979939 
L 243.578096 125.191718 
L 242.10564 124.657889 
L 240.2563 124.094556 
L 238.782885 123.71146 
L 236.805252 123.278149 
L 235.298055 123.035579 
L 233.421274 122.797629 
L 231.923625 122.696079 
L 229.824554 122.647693 
L 228.262289 122.718521 
L 226.198943 122.930411 
L 224.585669 123.229621 
L 222.560985 123.328958 
L 220.93615 123.356636 
L 218.534886 123.538071 
L 216.837918 123.808668 
L 214.553552 124.352492 
L 212.928304 124.89864 
L 210.425773 125.996333 
L 208.834605 126.88706 
L 206.566144 128.412707 
L 205.008147 129.647365 
L 202.933941 131.456203 
L 201.428417 132.880083 
L 199.224457 135.185391 
L 197.722053 136.945139 
L 195.695953 139.47355 
L 194.247534 141.388316 
L 192.167069 144.337014 
L 190.744422 146.466163 
L 188.85415 149.401767 
L 187.494529 151.589392 
L 185.418835 155.020606 
L 184.045922 157.345094 
L 182.117985 160.674027 
L 180.752535 163.064387 
L 178.974729 166.221952 
L 177.654728 168.593324 
L 175.662967 172.196579 
L 174.313379 174.656274 
L 172.440675 178.088238 
L 171.085981 180.581298 
L 169.341279 183.805114 
L 168.021821 186.252 
L 166.061474 189.89469 
L 164.705962 192.419036 
L 162.849824 195.881232 
L 161.483557 198.432878 
L 159.742945 201.687493 
L 158.406417 204.189156 
L 156.432019 207.887056 
L 155.049032 210.479012 
L 153.161479 214.018271 
L 151.752822 216.660605 
L 149.957589 220.028848 
L 148.556211 222.609573 
L 146.643537 226.131664 
L 145.212556 228.767206 
L 143.390328 232.123755 
L 141.965034 234.749452 
L 140.011704 238.348335 
L 138.553648 241.034958 
L 136.694259 244.461465 
L 135.244349 247.133691 
L 133.219918 250.864582 
L 131.732846 253.606645 
L 129.813075 257.147298 
L 128.338284 259.86761 
L 126.24343 263.732249 
L 124.739491 266.507106 
L 122.784875 270.114114 
L 121.32233 272.813487 
L 119.015069 277.072469 
L 117.505295 279.859865 
L 115.37834 283.787477 
L 113.903853 286.511061 
L 111.73708 290.337243 
L 110.32226 292.756793 
L 108.125078 296.520906 
L 106.798297 298.80981 
L 104.586397 302.668048 
L 103.380106 304.809144 
L 101.178865 308.91708 
L 100.155857 310.964836 
L 97.887674 316.215091 
L 97.086614 318.301198 
L 95.548352 320.4 
L 94.968085 320.4 
L 94.010765 320.4 
L 93.644483 320.4 
L 93.150873 320.4 
L 93.009777 320.4 
L 92.905086 320.4 
L 92.894617 320.4 
L 92.89357 320.4 
z
" clip-path="url(#p5615a12111)" style="fill: #7cfc00; fill-opacity: 0.2; stroke: #7cfc00; stroke-opacity: 0.2"/>
   </g>
   <g id="PathCollection_1">
    <defs>
     <path id="ma91cb025c7" d="M 0 3 
C 0.795609 3 1.55874 2.683901 2.12132 2.12132 
C 2.683901 1.55874 3 0.795609 3 0 
C 3 -0.795609 2.683901 -1.55874 2.12132 -2.12132 
C 1.55874 -2.683901 0.795609 -3 0 -3 
C -0.795609 -3 -1.55874 -2.683901 -2.12132 -2.12132 
C -2.683901 -1.55874 -3 -0.795609 -3 0 
C -3 0.795609 -2.683901 1.55874 -2.12132 2.12132 
C -1.55874 2.683901 -0.795609 3 0 3 
z
" style="stroke: #000000; stroke-opacity: 0.8"/>
    </defs>
    <g clip-path="url(#p5615a12111)">
     <use xlink:href="#ma91cb025c7" x="92.89357" y="320.4" style="fill: #7cfc00; fill-opacity: 0.8; stroke: #000000; stroke-opacity: 0.8"/>
     <use xlink:href="#ma91cb025c7" x="121.829268" y="320.4" style="fill: #7cfc00; fill-opacity: 0.8; stroke: #000000; stroke-opacity: 0.8"/>
     <use xlink:href="#ma91cb025c7" x="150.764967" y="212.003574" style="fill: #7cfc00; fill-opacity: 0.8; stroke: #000000; stroke-opacity: 0.8"/>
     <use xlink:href="#ma91cb025c7" x="179.700665" y="191.23392" style="fill: #7cfc00; fill-opacity: 0.8; stroke: #000000; stroke-opacity: 0.8"/>
     <use xlink:href="#ma91cb025c7" x="208.636364" y="103.443811" style="fill: #7cfc00; fill-opacity: 0.8; stroke: #000000; stroke-opacity: 0.8"/>
     <use xlink:href="#ma91cb025c7" x="237.572062" y="114.258335" style="fill: #7cfc00; fill-opacity: 0.8; stroke: #000000; stroke-opacity: 0.8"/>
     <use xlink:href="#ma91cb025c7" x="266.507761" y="157.865939" style="fill: #7cfc00; fill-opacity: 0.8; stroke: #000000; stroke-opacity: 0.8"/>
     <use xlink:href="#ma91cb025c7" x="295.443459" y="320.4" style="fill: #7cfc00; fill-opacity: 0.8; stroke: #000000; stroke-opacity: 0.8"/>
    </g>
   </g>
   <g id="line2d_1">
    <path d="M 92.89357 320.4 
L 97.887674 320.4 
L 100.155857 317.228098 
L 101.178865 315.124836 
L 104.586397 308.653432 
L 113.903853 291.959721 
L 161.483557 207.69122 
L 178.974729 177.06408 
L 185.418835 166.102209 
L 190.744422 157.39284 
L 194.247534 151.955426 
L 197.722053 146.895524 
L 201.428417 141.984247 
L 202.933941 140.162159 
L 206.566144 136.245161 
L 208.834605 134.172477 
L 210.425773 132.896406 
L 212.928304 131.192112 
L 214.553552 130.27675 
L 216.837918 129.236004 
L 218.534886 128.636775 
L 220.93615 128.021383 
L 222.560985 127.745858 
L 226.198943 127.48974 
L 229.824554 127.659771 
L 233.421274 128.184639 
L 236.805252 128.971103 
L 240.2563 130.057837 
L 243.578096 131.388621 
L 246.937514 133.051385 
L 250.285716 135.081737 
L 253.633917 137.574549 
L 255.308017 139.03742 
L 256.982118 140.67896 
L 258.656219 142.536917 
L 260.330319 144.665074 
L 262.626412 148.176879 
L 264.260707 151.276303 
L 266.334382 156.382114 
L 267.978118 162.118905 
L 270.100011 175.690204 
L 270.424299 179.505524 
L 271.140283 194.985619 
L 271.451668 219.44152 
L 271.946264 320.4 
L 324.379157 320.4 
L 324.379157 320.4 
" clip-path="url(#p5615a12111)" style="fill: none; stroke: #7cfc00; stroke-width: 1.5; stroke-linecap: round"/>
   </g>
  </g>
  <g id="axes_2">
   <g id="patch_7">
    <path d="M 374.727273 320.4 
L 612 320.4 
L 612 43.2 
L 374.727273 43.2 
z
" style="fill: #ffffff"/>
   </g>
   <g id="matplotlib.axis_3">
    <g id="xtick_10">
     <g id="text_21">
      <!-- 0 -->
      <g style="fill: #262626" transform="translate(373.616968 340.20725) scale(0.144 -0.144)">
       <use xlink:href="#ArialMT-30"/>
      </g>
     </g>
    </g>
    <g id="xtick_11">
     <g id="text_22">
      <!-- 1 -->
      <g style="fill: #262626" transform="translate(402.552666 340.20725) scale(0.144 -0.144)">
       <use xlink:href="#ArialMT-31"/>
      </g>
     </g>
    </g>
    <g id="xtick_12">
     <g id="text_23">
      <!-- 2 -->
      <g style="fill: #262626" transform="translate(431.488364 340.20725) scale(0.144 -0.144)">
       <use xlink:href="#ArialMT-32"/>
      </g>
     </g>
    </g>
    <g id="xtick_13">
     <g id="text_24">
      <!-- 3 -->
      <g style="fill: #262626" transform="translate(460.424063 340.20725) scale(0.144 -0.144)">
       <use xlink:href="#ArialMT-33"/>
      </g>
     </g>
    </g>
    <g id="xtick_14">
     <g id="text_25">
      <!-- 4 -->
      <g style="fill: #262626" transform="translate(489.359761 340.20725) scale(0.144 -0.144)">
       <use xlink:href="#ArialMT-34"/>
      </g>
     </g>
    </g>
    <g id="xtick_15">
     <g id="text_26">
      <!-- 5 -->
      <g style="fill: #262626" transform="translate(518.29546 340.20725) scale(0.144 -0.144)">
       <use xlink:href="#ArialMT-35"/>
      </g>
     </g>
    </g>
    <g id="xtick_16">
     <g id="text_27">
      <!-- 6 -->
      <g style="fill: #262626" transform="translate(547.231158 340.20725) scale(0.144 -0.144)">
       <use xlink:href="#ArialMT-36"/>
      </g>
     </g>
    </g>
    <g id="xtick_17">
     <g id="text_28">
      <!-- 7 -->
      <g style="fill: #262626" transform="translate(576.166857 340.20725) scale(0.144 -0.144)">
       <use xlink:href="#ArialMT-37"/>
      </g>
     </g>
    </g>
    <g id="xtick_18">
     <g id="text_29">
      <!-- 8 -->
      <g style="fill: #262626" transform="translate(605.102555 340.20725) scale(0.144 -0.144)">
       <use xlink:href="#ArialMT-38"/>
      </g>
     </g>
    </g>
    <g id="text_30">
     <!-- Time (d) -->
     <g style="fill: #262626" transform="translate(457.993636 361.04625) scale(0.192 -0.192)">
      <use xlink:href="#ArialMT-54"/>
      <use xlink:href="#ArialMT-69" x="57.333984"/>
      <use xlink:href="#ArialMT-6d" x="79.550781"/>
      <use xlink:href="#ArialMT-65" x="162.851562"/>
      <use xlink:href="#ArialMT-20" x="218.466797"/>
      <use xlink:href="#ArialMT-28" x="246.25"/>
      <use xlink:href="#ArialMT-64" x="279.550781"/>
      <use xlink:href="#ArialMT-29" x="335.166016"/>
     </g>
    </g>
   </g>
   <g id="matplotlib.axis_4">
    <g id="ytick_10">
     <g id="text_31">
      <!-- 4.5 -->
      <g style="fill: #262626" transform="translate(345.211273 325.553625) scale(0.144 -0.144)">
       <defs>
        <path id="ArialMT-2e" d="M 581 0 
L 581 641 
L 1222 641 
L 1222 0 
L 581 0 
z
" transform="scale(0.015625)"/>
       </defs>
       <use xlink:href="#ArialMT-34"/>
       <use xlink:href="#ArialMT-2e" x="55.615234"/>
       <use xlink:href="#ArialMT-35" x="83.398438"/>
      </g>
     </g>
    </g>
    <g id="ytick_11">
     <g id="text_32">
      <!-- 5.0 -->
      <g style="fill: #262626" transform="translate(345.211273 282.907471) scale(0.144 -0.144)">
       <use xlink:href="#ArialMT-35"/>
       <use xlink:href="#ArialMT-2e" x="55.615234"/>
       <use xlink:href="#ArialMT-30" x="83.398438"/>
      </g>
     </g>
    </g>
    <g id="ytick_12">
     <g id="text_33">
      <!-- 5.5 -->
      <g style="fill: #262626" transform="translate(345.211273 240.261317) scale(0.144 -0.144)">
       <use xlink:href="#ArialMT-35"/>
       <use xlink:href="#ArialMT-2e" x="55.615234"/>
       <use xlink:href="#ArialMT-35" x="83.398438"/>
      </g>
     </g>
    </g>
    <g id="ytick_13">
     <g id="text_34">
      <!-- 6.0 -->
      <g style="fill: #262626" transform="translate(345.211273 197.615163) scale(0.144 -0.144)">
       <use xlink:href="#ArialMT-36"/>
       <use xlink:href="#ArialMT-2e" x="55.615234"/>
       <use xlink:href="#ArialMT-30" x="83.398438"/>
      </g>
     </g>
    </g>
    <g id="ytick_14">
     <g id="text_35">
      <!-- 6.5 -->
      <g style="fill: #262626" transform="translate(345.211273 154.96901) scale(0.144 -0.144)">
       <use xlink:href="#ArialMT-36"/>
       <use xlink:href="#ArialMT-2e" x="55.615234"/>
       <use xlink:href="#ArialMT-35" x="83.398438"/>
      </g>
     </g>
    </g>
    <g id="ytick_15">
     <g id="text_36">
      <!-- 7.0 -->
      <g style="fill: #262626" transform="translate(345.211273 112.322856) scale(0.144 -0.144)">
       <use xlink:href="#ArialMT-37"/>
       <use xlink:href="#ArialMT-2e" x="55.615234"/>
       <use xlink:href="#ArialMT-30" x="83.398438"/>
      </g>
     </g>
    </g>
    <g id="ytick_16">
     <g id="text_37">
      <!-- 7.5 -->
      <g style="fill: #262626" transform="translate(345.211273 69.676702) scale(0.144 -0.144)">
       <use xlink:href="#ArialMT-37"/>
       <use xlink:href="#ArialMT-2e" x="55.615234"/>
       <use xlink:href="#ArialMT-35" x="83.398438"/>
      </g>
     </g>
    </g>
    <g id="text_38">
     <!-- Log10(CD8TE) -->
     <g style="fill: #262626" transform="translate(337.170273 246.357) rotate(-90) scale(0.192 -0.192)">
      <defs>
       <path id="ArialMT-43" d="M 3763 1606 
L 4369 1453 
Q 4178 706 3683 314 
Q 3188 -78 2472 -78 
Q 1731 -78 1267 223 
Q 803 525 561 1097 
Q 319 1669 319 2325 
Q 319 3041 592 3573 
Q 866 4106 1370 4382 
Q 1875 4659 2481 4659 
Q 3169 4659 3637 4309 
Q 4106 3959 4291 3325 
L 3694 3184 
Q 3534 3684 3231 3912 
Q 2928 4141 2469 4141 
Q 1941 4141 1586 3887 
Q 1231 3634 1087 3207 
Q 944 2781 944 2328 
Q 944 1744 1114 1308 
Q 1284 872 1643 656 
Q 2003 441 2422 441 
Q 2931 441 3284 734 
Q 3638 1028 3763 1606 
z
" transform="scale(0.015625)"/>
       <path id="ArialMT-44" d="M 494 0 
L 494 4581 
L 2072 4581 
Q 2606 4581 2888 4516 
Q 3281 4425 3559 4188 
Q 3922 3881 4101 3404 
Q 4281 2928 4281 2316 
Q 4281 1794 4159 1391 
Q 4038 988 3847 723 
Q 3656 459 3429 307 
Q 3203 156 2883 78 
Q 2563 0 2147 0 
L 494 0 
z
M 1100 541 
L 2078 541 
Q 2531 541 2789 625 
Q 3047 709 3200 863 
Q 3416 1078 3536 1442 
Q 3656 1806 3656 2325 
Q 3656 3044 3420 3430 
Q 3184 3816 2847 3947 
Q 2603 4041 2063 4041 
L 1100 4041 
L 1100 541 
z
" transform="scale(0.015625)"/>
       <path id="ArialMT-45" d="M 506 0 
L 506 4581 
L 3819 4581 
L 3819 4041 
L 1113 4041 
L 1113 2638 
L 3647 2638 
L 3647 2100 
L 1113 2100 
L 1113 541 
L 3925 541 
L 3925 0 
L 506 0 
z
" transform="scale(0.015625)"/>
      </defs>
      <use xlink:href="#ArialMT-4c"/>
      <use xlink:href="#ArialMT-6f" x="55.615234"/>
      <use xlink:href="#ArialMT-67" x="111.230469"/>
      <use xlink:href="#ArialMT-31" x="166.845703"/>
      <use xlink:href="#ArialMT-30" x="222.460938"/>
      <use xlink:href="#ArialMT-28" x="278.076172"/>
      <use xlink:href="#ArialMT-43" x="311.376953"/>
      <use xlink:href="#ArialMT-44" x="383.59375"/>
      <use xlink:href="#ArialMT-38" x="455.810547"/>
      <use xlink:href="#ArialMT-54" x="511.425781"/>
      <use xlink:href="#ArialMT-45" x="572.509766"/>
      <use xlink:href="#ArialMT-29" x="639.208984"/>
     </g>
    </g>
   </g>
   <g id="patch_8">
    <path d="M 374.727273 320.4 
L 374.727273 43.2 
" style="fill: none; stroke: #cccccc; stroke-width: 1.25; stroke-linejoin: miter; stroke-linecap: square"/>
   </g>
   <g id="patch_9">
    <path d="M 612 320.4 
L 612 43.2 
" style="fill: none; stroke: #cccccc; stroke-width: 1.25; stroke-linejoin: miter; stroke-linecap: square"/>
   </g>
   <g id="patch_10">
    <path d="M 374.727273 320.4 
L 612 320.4 
" style="fill: none; stroke: #cccccc; stroke-width: 1.25; stroke-linejoin: miter; stroke-linecap: square"/>
   </g>
   <g id="patch_11">
    <path d="M 374.727273 43.2 
L 612 43.2 
" style="fill: none; stroke: #cccccc; stroke-width: 1.25; stroke-linejoin: miter; stroke-linecap: square"/>
   </g>
   <g id="PolyCollection_2">
    <defs>
     <path id="m9a36bb4133" d="M 377.620843 -113.906103 
L 377.620843 -113.906103 
L 377.621889 -113.906103 
L 377.632359 -113.906103 
L 377.73705 -113.906103 
L 377.878146 -113.906103 
L 378.371756 -113.906103 
L 378.738038 -113.906103 
L 379.695358 -113.906103 
L 380.275624 -113.906103 
L 381.813886 -113.906103 
L 382.614947 -113.906103 
L 384.88313 -113.906103 
L 385.906138 -113.906103 
L 388.107379 -113.906103 
L 389.31367 -113.906103 
L 391.525569 -113.906103 
L 392.85235 -113.906103 
L 395.049533 -113.906103 
L 396.464352 -113.906103 
L 398.631125 -113.906104 
L 400.105612 -113.906105 
L 402.232568 -113.906108 
L 403.742342 -113.906111 
L 406.049603 -113.906119 
L 407.512148 -113.906127 
L 409.466764 -113.906143 
L 410.970703 -113.90616 
L 413.065557 -113.906193 
L 414.540348 -113.906224 
L 416.460119 -113.906278 
L 417.94719 -113.906331 
L 419.971621 -113.906423 
L 421.421531 -113.906507 
L 423.280921 -113.906641 
L 424.738976 -113.906769 
L 426.692307 -113.906982 
L 428.117601 -113.907172 
L 429.939829 -113.907473 
L 431.37081 -113.907754 
L 433.283484 -113.908219 
L 434.684862 -113.908629 
L 436.480095 -113.909278 
L 437.888752 -113.90988 
L 439.776305 -113.91088 
L 441.159291 -113.911758 
L 443.133689 -113.913316 
L 444.470218 -113.91458 
L 446.21083 -113.916618 
L 447.577097 -113.918471 
L 449.433234 -113.921625 
L 450.788746 -113.924361 
L 452.749094 -113.929299 
L 454.068552 -113.933255 
L 455.813254 -113.939753 
L 457.167948 -113.94558 
L 459.040651 -113.955724 
L 460.39024 -113.964383 
L 462.382 -113.980407 
L 463.702002 -113.993022 
L 465.479808 -114.014237 
L 466.845258 -114.033027 
L 468.773195 -114.066677 
L 470.146107 -114.095094 
L 472.221801 -114.149372 
L 473.581423 -114.191793 
L 475.471695 -114.266128 
L 476.894342 -114.331094 
L 478.974807 -114.452011 
L 480.423226 -114.5543 
L 482.449325 -114.722172 
L 483.95173 -114.881445 
L 486.15569 -115.162158 
L 487.661214 -115.400317 
L 489.73542 -115.79512 
L 491.293417 -116.161205 
L 493.561878 -116.817609 
L 495.153045 -117.37116 
L 497.655576 -118.475771 
L 499.280825 -119.313258 
L 501.56519 -120.793012 
L 503.262159 -122.052844 
L 505.663423 -124.267368 
L 507.288258 -125.938618 
L 509.312942 -128.373142 
L 510.926216 -130.538358 
L 512.989562 -133.603972 
L 514.551827 -136.163371 
L 516.650898 -139.816402 
L 518.148547 -142.62747 
L 520.025328 -146.272926 
L 521.532525 -149.324235 
L 523.510157 -153.400196 
L 524.983573 -156.486735 
L 526.832913 -160.3702 
L 528.305369 -163.42294 
L 530.271389 -167.179029 
L 531.664787 -169.759341 
L 533.338888 -172.741117 
L 535.012988 -175.482998 
L 536.687089 -177.532511 
L 538.361189 -179.386672 
L 540.03529 -181.071053 
L 541.709391 -182.594031 
L 543.383491 -183.938611 
L 545.057592 -185.118379 
L 547.353684 -186.48033 
L 548.98798 -187.25939 
L 551.061655 -188.053941 
L 552.70539 -188.52434 
L 554.827284 -188.941996 
L 555.151571 -188.97889 
L 555.730285 -189.044729 
L 555.867556 -189.060346 
L 556.095104 -189.086233 
L 556.129304 -189.090124 
L 556.17894 -189.095771 
L 556.184982 -189.096459 
L 556.185564 -189.096525 
L 556.188473 -189.096856 
L 556.190728 -189.097112 
L 556.191267 -189.097174 
L 556.191901 -189.097246 
L 556.192664 -189.097333 
L 556.193426 -189.097419 
L 556.196438 -189.097762 
L 556.203282 -189.098541 
L 556.221497 -189.100613 
L 556.251961 -189.104079 
L 556.284997 -189.107837 
L 556.333528 -189.113358 
L 556.38206 -189.11888 
L 556.443736 -189.12164 
L 556.505413 -189.124224 
L 556.584678 -189.127545 
L 556.673537 -189.131268 
L 556.81519 -189.137202 
L 557.011477 -189.145426 
L 557.921526 -189.183553 
L 558.831575 -189.170571 
L 560.199027 -189.114689 
L 561.566478 -188.983225 
L 563.170428 -188.73986 
L 564.774379 -188.027166 
L 566.515024 -186.901495 
L 568.255669 -185.747947 
L 570.00409 -184.551293 
L 571.752512 -183.1754 
L 573.500933 -181.748253 
L 575.249354 -180.304801 
L 576.997775 -178.842883 
L 578.746197 -177.371299 
L 580.494618 -175.891288 
L 582.243039 -174.408177 
L 583.99146 -172.92435 
L 585.739882 -171.442497 
L 587.488303 -169.966031 
L 589.236724 -168.496564 
L 590.985145 -167.036366 
L 592.733567 -165.588226 
L 594.481988 -164.151515 
L 596.230409 -162.730917 
L 597.97883 -161.304422 
L 599.732439 -159.785048 
L 601.492381 -158.283716 
L 603.26243 -156.79164 
L 605.044043 -155.316993 
L 606.840308 -153.852217 
L 608.652956 -152.403753 
L 609.10643 -152.042759 
L 609.10643 -235.287452 
L 609.10643 -235.287452 
L 608.652956 -235.071648 
L 606.840308 -234.209023 
L 605.044043 -233.354194 
L 603.26243 -232.506339 
L 601.492381 -231.663986 
L 599.732439 -230.826443 
L 597.97883 -229.991915 
L 596.230409 -229.159855 
L 594.481988 -228.327795 
L 592.733567 -227.495735 
L 590.985145 -226.663675 
L 589.236724 -225.831615 
L 587.488303 -224.999555 
L 585.739882 -225.019351 
L 583.99146 -225.672285 
L 582.243039 -226.269866 
L 580.494618 -226.781146 
L 578.746197 -227.224214 
L 576.997775 -227.564909 
L 575.249354 -227.834969 
L 573.500933 -227.982906 
L 571.752512 -228.043902 
L 570.00409 -227.968011 
L 568.255669 -227.796364 
L 566.515024 -227.469586 
L 564.774379 -227.040904 
L 563.170428 -226.485475 
L 561.566478 -225.841453 
L 560.199027 -225.149269 
L 558.831575 -224.399544 
L 557.921526 -223.802028 
L 557.011477 -223.204512 
L 556.81519 -223.074852 
L 556.673537 -222.97134 
L 556.584678 -222.906406 
L 556.505413 -222.848483 
L 556.443736 -222.803413 
L 556.38206 -222.758343 
L 556.333528 -222.722878 
L 556.284997 -222.687414 
L 556.251961 -222.662647 
L 556.221497 -222.638145 
L 556.203282 -222.623496 
L 556.196438 -222.617991 
L 556.193426 -222.615569 
L 556.192664 -222.614955 
L 556.191901 -222.614342 
L 556.191267 -222.613832 
L 556.190728 -222.613399 
L 556.188473 -222.611585 
L 556.185564 -222.609245 
L 556.184982 -222.608777 
L 556.17894 -222.603918 
L 556.129304 -222.563997 
L 556.095104 -222.536491 
L 555.867556 -222.353481 
L 555.730285 -222.243079 
L 555.151571 -221.777636 
L 554.827284 -221.516822 
L 552.70539 -219.633283 
L 551.061655 -217.942405 
L 548.98798 -215.949909 
L 547.353684 -215.095749 
L 545.057592 -213.61252 
L 543.383491 -213.025348 
L 541.709391 -212.341156 
L 540.03529 -211.475547 
L 538.361189 -210.41947 
L 536.687089 -209.160608 
L 535.012988 -207.685404 
L 533.338888 -205.994277 
L 531.664787 -204.076893 
L 530.271389 -202.321086 
L 528.305369 -199.571824 
L 526.832913 -197.29289 
L 524.983573 -194.188215 
L 523.510157 -191.508468 
L 521.532525 -187.677811 
L 520.025328 -184.565497 
L 518.148547 -180.488551 
L 516.650898 -177.094966 
L 514.551827 -172.145982 
L 512.989562 -168.365585 
L 510.926216 -163.283781 
L 509.312942 -159.288129 
L 507.288258 -154.317122 
L 505.663423 -150.427199 
L 503.262159 -144.88617 
L 501.56519 -141.219477 
L 499.280825 -136.629754 
L 497.655576 -133.668814 
L 495.153045 -129.606716 
L 493.561878 -127.357749 
L 491.293417 -124.588093 
L 489.73542 -122.959901 
L 487.661214 -121.13084 
L 486.15569 -119.999163 
L 483.95173 -118.649801 
L 482.449325 -117.877143 
L 480.423226 -117.03461 
L 478.974807 -116.532876 
L 476.894342 -115.946289 
L 475.471695 -115.62979 
L 473.581423 -115.273905 
L 472.221801 -115.064834 
L 470.146107 -114.802787 
L 468.773195 -114.66113 
L 466.845258 -114.500266 
L 465.479808 -114.404817 
L 463.702002 -114.306311 
L 462.382 -114.246976 
L 460.39024 -114.17169 
L 459.040651 -114.130308 
L 457.167948 -114.083344 
L 455.813254 -114.05487 
L 454.068552 -114.025629 
L 452.749094 -114.007919 
L 450.788746 -113.985668 
L 449.433234 -113.973208 
L 447.577097 -113.959223 
L 446.21083 -113.95062 
L 444.470218 -113.941828 
L 443.133689 -113.936468 
L 441.159291 -113.929772 
L 439.776305 -113.925999 
L 437.888752 -113.921778 
L 436.480095 -113.919176 
L 434.684862 -113.916589 
L 433.283484 -113.91492 
L 431.37081 -113.913094 
L 429.939829 -113.911986 
L 428.117601 -113.910828 
L 426.692307 -113.910084 
L 424.738976 -113.909243 
L 423.280921 -113.908729 
L 421.421531 -113.908176 
L 419.971621 -113.907823 
L 417.94719 -113.907402 
L 416.460119 -113.90716 
L 414.540348 -113.906893 
L 413.065557 -113.906731 
L 410.970703 -113.906538 
L 409.466764 -113.906434 
L 407.512148 -113.906324 
L 406.049603 -113.906265 
L 403.742342 -113.906193 
L 402.232568 -113.906163 
L 400.105612 -113.906133 
L 398.631125 -113.906122 
L 396.464352 -113.90611 
L 395.049533 -113.906107 
L 392.85235 -113.906104 
L 391.525569 -113.906103 
L 389.31367 -113.906103 
L 388.107379 -113.906103 
L 385.906138 -113.906103 
L 384.88313 -113.906103 
L 382.614947 -113.906103 
L 381.813886 -113.906103 
L 380.275624 -113.906103 
L 379.695358 -113.906103 
L 378.738038 -113.906103 
L 378.371756 -113.906103 
L 377.878146 -113.906103 
L 377.73705 -113.906103 
L 377.632359 -113.906103 
L 377.621889 -113.906103 
L 377.620843 -113.906103 
z
" style="stroke: #7cfc00; stroke-opacity: 0.2"/>
    </defs>
    <g clip-path="url(#pa6047dae38)">
     <use xlink:href="#m9a36bb4133" x="0" y="360" style="fill: #7cfc00; fill-opacity: 0.2; stroke: #7cfc00; stroke-opacity: 0.2"/>
    </g>
   </g>
   <g id="PathCollection_2">
    <g clip-path="url(#pa6047dae38)">
     <use xlink:href="#ma91cb025c7" x="348.685144" y="196.089313" style="fill: #7cfc00; fill-opacity: 0.8; stroke: #000000; stroke-opacity: 0.8"/>
     <use xlink:href="#ma91cb025c7" x="377.620843" y="246.093897" style="fill: #7cfc00; fill-opacity: 0.8; stroke: #000000; stroke-opacity: 0.8"/>
     <use xlink:href="#ma91cb025c7" x="406.556541" y="221.532473" style="fill: #7cfc00; fill-opacity: 0.8; stroke: #000000; stroke-opacity: 0.8"/>
     <use xlink:href="#ma91cb025c7" x="464.427938" y="202.491877" style="fill: #7cfc00; fill-opacity: 0.8; stroke: #000000; stroke-opacity: 0.8"/>
     <use xlink:href="#ma91cb025c7" x="493.363636" y="221.13355" style="fill: #7cfc00; fill-opacity: 0.8; stroke: #000000; stroke-opacity: 0.8"/>
     <use xlink:href="#ma91cb025c7" x="522.299335" y="179.285076" style="fill: #7cfc00; fill-opacity: 0.8; stroke: #000000; stroke-opacity: 0.8"/>
     <use xlink:href="#ma91cb025c7" x="551.235033" y="162.392178" style="fill: #7cfc00; fill-opacity: 0.8; stroke: #000000; stroke-opacity: 0.8"/>
     <use xlink:href="#ma91cb025c7" x="580.170732" y="163.689779" style="fill: #7cfc00; fill-opacity: 0.8; stroke: #000000; stroke-opacity: 0.8"/>
    </g>
   </g>
   <g id="line2d_2">
    <path d="M 377.620843 246.093897 
L 454.068552 246.000826 
L 463.702002 245.795296 
L 470.146107 245.445297 
L 475.471695 244.868803 
L 478.974807 244.241087 
L 482.449325 243.317094 
L 483.95173 242.794309 
L 486.15569 241.856737 
L 487.661214 241.081895 
L 489.73542 239.802402 
L 491.293417 238.659934 
L 493.561878 236.676807 
L 495.153045 235.0407 
L 497.655576 232.017009 
L 499.280825 229.751998 
L 501.56519 226.159274 
L 503.262159 223.196861 
L 507.288258 215.291677 
L 510.926216 207.390566 
L 518.148547 191.226071 
L 521.532525 184.123835 
L 524.983573 177.530866 
L 528.305369 171.947067 
L 531.664787 167.138076 
L 533.338888 165.065117 
L 535.012988 163.206838 
L 536.687089 161.56003 
L 538.361189 160.119697 
L 540.03529 158.879373 
L 541.709391 157.831407 
L 543.383491 156.967218 
L 545.057592 156.277527 
L 547.353684 155.5972 
L 548.98798 155.287439 
L 551.061655 155.086071 
L 552.70539 155.067252 
L 556.38206 155.423879 
L 558.831575 155.928037 
L 561.566478 156.701775 
L 564.774379 157.846559 
L 568.255669 159.322072 
L 573.500933 161.884544 
L 578.746197 164.721728 
L 587.488303 169.77386 
L 609.10643 182.563725 
L 609.10643 182.563725 
" clip-path="url(#pa6047dae38)" style="fill: none; stroke: #7cfc00; stroke-width: 1.5; stroke-linecap: round"/>
   </g>
  </g>
  <g id="legend_1">
   <g id="patch_12">
    <path d="M 769.44 42.519 
L 862.911 42.519 
Q 866.751 42.519 866.751 38.679 
L 866.751 13.44 
Q 866.751 9.6 862.911 9.6 
L 769.44 9.6 
Q 765.6 9.6 765.6 13.44 
L 765.6 38.679 
Q 765.6 42.519 769.44 42.519 
z
" style="fill: #ffffff; opacity: 0.8; stroke: #cccccc; stroke-linejoin: miter"/>
   </g>
   <g id="PathCollection_3">
    <g>
     <use xlink:href="#ma91cb025c7" x="792.48" y="25.983" style="fill: #7cfc00; fill-opacity: 0.8; stroke: #000000; stroke-opacity: 0.8"/>
    </g>
   </g>
   <g id="text_39">
    <!-- 312 -->
    <g style="fill: #262626" transform="translate(827.04 31.023) scale(0.192 -0.192)">
     <use xlink:href="#ArialMT-33"/>
     <use xlink:href="#ArialMT-31" x="55.615234"/>
     <use xlink:href="#ArialMT-32" x="111.230469"/>
    </g>
   </g>
  </g>
 </g>
 <defs>
  <clipPath id="p5615a12111">
   <rect x="90" y="43.2" width="237.272727" height="277.2"/>
  </clipPath>
  <clipPath id="pa6047dae38">
   <rect x="374.727273" y="43.2" width="237.272727" height="277.2"/>
  </clipPath>
 </defs>
</svg>
