<?xml version="1.0" encoding="utf-8" standalone="no"?>
<!DOCTYPE svg PUBLIC "-//W3C//DTD SVG 1.1//EN"
  "http://www.w3.org/Graphics/SVG/1.1/DTD/svg11.dtd">
<svg xmlns:xlink="http://www.w3.org/1999/xlink" width="720pt" height="360pt" viewBox="0 0 720 360" xmlns="http://www.w3.org/2000/svg" version="1.1">
 <metadata>
  <rdf:RDF xmlns:dc="http://purl.org/dc/elements/1.1/" xmlns:cc="http://creativecommons.org/ns#" xmlns:rdf="http://www.w3.org/1999/02/22-rdf-syntax-ns#">
   <cc:Work>
    <dc:type rdf:resource="http://purl.org/dc/dcmitype/StillImage"/>
    <dc:date>2024-11-05T15:43:55.949099</dc:date>
    <dc:format>image/svg+xml</dc:format>
    <dc:creator>
     <cc:Agent>
      <dc:title>Matplotlib v3.9.2, https://matplotlib.org/</dc:title>
     </cc:Agent>
    </dc:creator>
   </cc:Work>
  </rdf:RDF>
 </metadata>
 <defs>
  <style type="text/css">*{stroke-linejoin: round; stroke-linecap: butt}</style>
 </defs>
 <g id="figure_1">
  <g id="patch_1">
   <path d="M 0 360 
L 720 360 
L 720 0 
L 0 0 
z
" style="fill: #ffffff"/>
  </g>
  <g id="axes_1">
   <g id="patch_2">
    <path d="M 90 320.4 
L 327.272727 320.4 
L 327.272727 43.2 
L 90 43.2 
z
" style="fill: #ffffff"/>
   </g>
   <g id="matplotlib.axis_1">
    <g id="xtick_1">
     <g id="line2d_1">
      <defs>
       <path id="m82f5c1cad2" d="M 0 0 
L 0 3.5 
" style="stroke: #000000; stroke-width: 0.8"/>
      </defs>
      <g>
       <use xlink:href="#m82f5c1cad2" x="92.89357" y="320.4" style="stroke: #000000; stroke-width: 0.8"/>
      </g>
     </g>
     <g id="text_1">
      <!-- 0 -->
      <g transform="translate(88.31257 338.34175) scale(0.144 -0.144)">
       <defs>
        <path id="DejaVuSans-30" d="M 2034 4250 
Q 1547 4250 1301 3770 
Q 1056 3291 1056 2328 
Q 1056 1369 1301 889 
Q 1547 409 2034 409 
Q 2525 409 2770 889 
Q 3016 1369 3016 2328 
Q 3016 3291 2770 3770 
Q 2525 4250 2034 4250 
z
M 2034 4750 
Q 2819 4750 3233 4129 
Q 3647 3509 3647 2328 
Q 3647 1150 3233 529 
Q 2819 -91 2034 -91 
Q 1250 -91 836 529 
Q 422 1150 422 2328 
Q 422 3509 836 4129 
Q 1250 4750 2034 4750 
z
" transform="scale(0.015625)"/>
       </defs>
       <use xlink:href="#DejaVuSans-30"/>
      </g>
     </g>
    </g>
    <g id="xtick_2">
     <g id="line2d_2">
      <g>
       <use xlink:href="#m82f5c1cad2" x="121.829268" y="320.4" style="stroke: #000000; stroke-width: 0.8"/>
      </g>
     </g>
     <g id="text_2">
      <!-- 1 -->
      <g transform="translate(117.248268 338.34175) scale(0.144 -0.144)">
       <defs>
        <path id="DejaVuSans-31" d="M 794 531 
L 1825 531 
L 1825 4091 
L 703 3866 
L 703 4441 
L 1819 4666 
L 2450 4666 
L 2450 531 
L 3481 531 
L 3481 0 
L 794 0 
L 794 531 
z
" transform="scale(0.015625)"/>
       </defs>
       <use xlink:href="#DejaVuSans-31"/>
      </g>
     </g>
    </g>
    <g id="xtick_3">
     <g id="line2d_3">
      <g>
       <use xlink:href="#m82f5c1cad2" x="150.764967" y="320.4" style="stroke: #000000; stroke-width: 0.8"/>
      </g>
     </g>
     <g id="text_3">
      <!-- 2 -->
      <g transform="translate(146.183967 338.34175) scale(0.144 -0.144)">
       <defs>
        <path id="DejaVuSans-32" d="M 1228 531 
L 3431 531 
L 3431 0 
L 469 0 
L 469 531 
Q 828 903 1448 1529 
Q 2069 2156 2228 2338 
Q 2531 2678 2651 2914 
Q 2772 3150 2772 3378 
Q 2772 3750 2511 3984 
Q 2250 4219 1831 4219 
Q 1534 4219 1204 4116 
Q 875 4013 500 3803 
L 500 4441 
Q 881 4594 1212 4672 
Q 1544 4750 1819 4750 
Q 2544 4750 2975 4387 
Q 3406 4025 3406 3419 
Q 3406 3131 3298 2873 
Q 3191 2616 2906 2266 
Q 2828 2175 2409 1742 
Q 1991 1309 1228 531 
z
" transform="scale(0.015625)"/>
       </defs>
       <use xlink:href="#DejaVuSans-32"/>
      </g>
     </g>
    </g>
    <g id="xtick_4">
     <g id="line2d_4">
      <g>
       <use xlink:href="#m82f5c1cad2" x="179.700665" y="320.4" style="stroke: #000000; stroke-width: 0.8"/>
      </g>
     </g>
     <g id="text_4">
      <!-- 3 -->
      <g transform="translate(175.119665 338.34175) scale(0.144 -0.144)">
       <defs>
        <path id="DejaVuSans-33" d="M 2597 2516 
Q 3050 2419 3304 2112 
Q 3559 1806 3559 1356 
Q 3559 666 3084 287 
Q 2609 -91 1734 -91 
Q 1441 -91 1130 -33 
Q 819 25 488 141 
L 488 750 
Q 750 597 1062 519 
Q 1375 441 1716 441 
Q 2309 441 2620 675 
Q 2931 909 2931 1356 
Q 2931 1769 2642 2001 
Q 2353 2234 1838 2234 
L 1294 2234 
L 1294 2753 
L 1863 2753 
Q 2328 2753 2575 2939 
Q 2822 3125 2822 3475 
Q 2822 3834 2567 4026 
Q 2313 4219 1838 4219 
Q 1578 4219 1281 4162 
Q 984 4106 628 3988 
L 628 4550 
Q 988 4650 1302 4700 
Q 1616 4750 1894 4750 
Q 2613 4750 3031 4423 
Q 3450 4097 3450 3541 
Q 3450 3153 3228 2886 
Q 3006 2619 2597 2516 
z
" transform="scale(0.015625)"/>
       </defs>
       <use xlink:href="#DejaVuSans-33"/>
      </g>
     </g>
    </g>
    <g id="xtick_5">
     <g id="line2d_5">
      <g>
       <use xlink:href="#m82f5c1cad2" x="208.636364" y="320.4" style="stroke: #000000; stroke-width: 0.8"/>
      </g>
     </g>
     <g id="text_5">
      <!-- 4 -->
      <g transform="translate(204.055364 338.34175) scale(0.144 -0.144)">
       <defs>
        <path id="DejaVuSans-34" d="M 2419 4116 
L 825 1625 
L 2419 1625 
L 2419 4116 
z
M 2253 4666 
L 3047 4666 
L 3047 1625 
L 3713 1625 
L 3713 1100 
L 3047 1100 
L 3047 0 
L 2419 0 
L 2419 1100 
L 313 1100 
L 313 1709 
L 2253 4666 
z
" transform="scale(0.015625)"/>
       </defs>
       <use xlink:href="#DejaVuSans-34"/>
      </g>
     </g>
    </g>
    <g id="xtick_6">
     <g id="line2d_6">
      <g>
       <use xlink:href="#m82f5c1cad2" x="237.572062" y="320.4" style="stroke: #000000; stroke-width: 0.8"/>
      </g>
     </g>
     <g id="text_6">
      <!-- 5 -->
      <g transform="translate(232.991062 338.34175) scale(0.144 -0.144)">
       <defs>
        <path id="DejaVuSans-35" d="M 691 4666 
L 3169 4666 
L 3169 4134 
L 1269 4134 
L 1269 2991 
Q 1406 3038 1543 3061 
Q 1681 3084 1819 3084 
Q 2600 3084 3056 2656 
Q 3513 2228 3513 1497 
Q 3513 744 3044 326 
Q 2575 -91 1722 -91 
Q 1428 -91 1123 -41 
Q 819 9 494 109 
L 494 744 
Q 775 591 1075 516 
Q 1375 441 1709 441 
Q 2250 441 2565 725 
Q 2881 1009 2881 1497 
Q 2881 1984 2565 2268 
Q 2250 2553 1709 2553 
Q 1456 2553 1204 2497 
Q 953 2441 691 2322 
L 691 4666 
z
" transform="scale(0.015625)"/>
       </defs>
       <use xlink:href="#DejaVuSans-35"/>
      </g>
     </g>
    </g>
    <g id="xtick_7">
     <g id="line2d_7">
      <g>
       <use xlink:href="#m82f5c1cad2" x="266.507761" y="320.4" style="stroke: #000000; stroke-width: 0.8"/>
      </g>
     </g>
     <g id="text_7">
      <!-- 6 -->
      <g transform="translate(261.926761 338.34175) scale(0.144 -0.144)">
       <defs>
        <path id="DejaVuSans-36" d="M 2113 2584 
Q 1688 2584 1439 2293 
Q 1191 2003 1191 1497 
Q 1191 994 1439 701 
Q 1688 409 2113 409 
Q 2538 409 2786 701 
Q 3034 994 3034 1497 
Q 3034 2003 2786 2293 
Q 2538 2584 2113 2584 
z
M 3366 4563 
L 3366 3988 
Q 3128 4100 2886 4159 
Q 2644 4219 2406 4219 
Q 1781 4219 1451 3797 
Q 1122 3375 1075 2522 
Q 1259 2794 1537 2939 
Q 1816 3084 2150 3084 
Q 2853 3084 3261 2657 
Q 3669 2231 3669 1497 
Q 3669 778 3244 343 
Q 2819 -91 2113 -91 
Q 1303 -91 875 529 
Q 447 1150 447 2328 
Q 447 3434 972 4092 
Q 1497 4750 2381 4750 
Q 2619 4750 2861 4703 
Q 3103 4656 3366 4563 
z
" transform="scale(0.015625)"/>
       </defs>
       <use xlink:href="#DejaVuSans-36"/>
      </g>
     </g>
    </g>
    <g id="xtick_8">
     <g id="line2d_8">
      <g>
       <use xlink:href="#m82f5c1cad2" x="295.443459" y="320.4" style="stroke: #000000; stroke-width: 0.8"/>
      </g>
     </g>
     <g id="text_8">
      <!-- 7 -->
      <g transform="translate(290.862459 338.34175) scale(0.144 -0.144)">
       <defs>
        <path id="DejaVuSans-37" d="M 525 4666 
L 3525 4666 
L 3525 4397 
L 1831 0 
L 1172 0 
L 2766 4134 
L 525 4134 
L 525 4666 
z
" transform="scale(0.015625)"/>
       </defs>
       <use xlink:href="#DejaVuSans-37"/>
      </g>
     </g>
    </g>
    <g id="xtick_9">
     <g id="line2d_9">
      <g>
       <use xlink:href="#m82f5c1cad2" x="324.379157" y="320.4" style="stroke: #000000; stroke-width: 0.8"/>
      </g>
     </g>
     <g id="text_9">
      <!-- 8 -->
      <g transform="translate(319.798157 338.34175) scale(0.144 -0.144)">
       <defs>
        <path id="DejaVuSans-38" d="M 2034 2216 
Q 1584 2216 1326 1975 
Q 1069 1734 1069 1313 
Q 1069 891 1326 650 
Q 1584 409 2034 409 
Q 2484 409 2743 651 
Q 3003 894 3003 1313 
Q 3003 1734 2745 1975 
Q 2488 2216 2034 2216 
z
M 1403 2484 
Q 997 2584 770 2862 
Q 544 3141 544 3541 
Q 544 4100 942 4425 
Q 1341 4750 2034 4750 
Q 2731 4750 3128 4425 
Q 3525 4100 3525 3541 
Q 3525 3141 3298 2862 
Q 3072 2584 2669 2484 
Q 3125 2378 3379 2068 
Q 3634 1759 3634 1313 
Q 3634 634 3220 271 
Q 2806 -91 2034 -91 
Q 1263 -91 848 271 
Q 434 634 434 1313 
Q 434 1759 690 2068 
Q 947 2378 1403 2484 
z
M 1172 3481 
Q 1172 3119 1398 2916 
Q 1625 2713 2034 2713 
Q 2441 2713 2670 2916 
Q 2900 3119 2900 3481 
Q 2900 3844 2670 4047 
Q 2441 4250 2034 4250 
Q 1625 4250 1398 4047 
Q 1172 3844 1172 3481 
z
" transform="scale(0.015625)"/>
       </defs>
       <use xlink:href="#DejaVuSans-38"/>
      </g>
     </g>
    </g>
    <g id="text_10">
     <!-- Time (d) -->
     <g transform="translate(168.511364 359.9255) scale(0.192 -0.192)">
      <defs>
       <path id="DejaVuSans-54" d="M -19 4666 
L 3928 4666 
L 3928 4134 
L 2272 4134 
L 2272 0 
L 1638 0 
L 1638 4134 
L -19 4134 
L -19 4666 
z
" transform="scale(0.015625)"/>
       <path id="DejaVuSans-69" d="M 603 3500 
L 1178 3500 
L 1178 0 
L 603 0 
L 603 3500 
z
M 603 4863 
L 1178 4863 
L 1178 4134 
L 603 4134 
L 603 4863 
z
" transform="scale(0.015625)"/>
       <path id="DejaVuSans-6d" d="M 3328 2828 
Q 3544 3216 3844 3400 
Q 4144 3584 4550 3584 
Q 5097 3584 5394 3201 
Q 5691 2819 5691 2113 
L 5691 0 
L 5113 0 
L 5113 2094 
Q 5113 2597 4934 2840 
Q 4756 3084 4391 3084 
Q 3944 3084 3684 2787 
Q 3425 2491 3425 1978 
L 3425 0 
L 2847 0 
L 2847 2094 
Q 2847 2600 2669 2842 
Q 2491 3084 2119 3084 
Q 1678 3084 1418 2786 
Q 1159 2488 1159 1978 
L 1159 0 
L 581 0 
L 581 3500 
L 1159 3500 
L 1159 2956 
Q 1356 3278 1631 3431 
Q 1906 3584 2284 3584 
Q 2666 3584 2933 3390 
Q 3200 3197 3328 2828 
z
" transform="scale(0.015625)"/>
       <path id="DejaVuSans-65" d="M 3597 1894 
L 3597 1613 
L 953 1613 
Q 991 1019 1311 708 
Q 1631 397 2203 397 
Q 2534 397 2845 478 
Q 3156 559 3463 722 
L 3463 178 
Q 3153 47 2828 -22 
Q 2503 -91 2169 -91 
Q 1331 -91 842 396 
Q 353 884 353 1716 
Q 353 2575 817 3079 
Q 1281 3584 2069 3584 
Q 2775 3584 3186 3129 
Q 3597 2675 3597 1894 
z
M 3022 2063 
Q 3016 2534 2758 2815 
Q 2500 3097 2075 3097 
Q 1594 3097 1305 2825 
Q 1016 2553 972 2059 
L 3022 2063 
z
" transform="scale(0.015625)"/>
       <path id="DejaVuSans-20" transform="scale(0.015625)"/>
       <path id="DejaVuSans-28" d="M 1984 4856 
Q 1566 4138 1362 3434 
Q 1159 2731 1159 2009 
Q 1159 1288 1364 580 
Q 1569 -128 1984 -844 
L 1484 -844 
Q 1016 -109 783 600 
Q 550 1309 550 2009 
Q 550 2706 781 3412 
Q 1013 4119 1484 4856 
L 1984 4856 
z
" transform="scale(0.015625)"/>
       <path id="DejaVuSans-64" d="M 2906 2969 
L 2906 4863 
L 3481 4863 
L 3481 0 
L 2906 0 
L 2906 525 
Q 2725 213 2448 61 
Q 2172 -91 1784 -91 
Q 1150 -91 751 415 
Q 353 922 353 1747 
Q 353 2572 751 3078 
Q 1150 3584 1784 3584 
Q 2172 3584 2448 3432 
Q 2725 3281 2906 2969 
z
M 947 1747 
Q 947 1113 1208 752 
Q 1469 391 1925 391 
Q 2381 391 2643 752 
Q 2906 1113 2906 1747 
Q 2906 2381 2643 2742 
Q 2381 3103 1925 3103 
Q 1469 3103 1208 2742 
Q 947 2381 947 1747 
z
" transform="scale(0.015625)"/>
       <path id="DejaVuSans-29" d="M 513 4856 
L 1013 4856 
Q 1481 4119 1714 3412 
Q 1947 2706 1947 2009 
Q 1947 1309 1714 600 
Q 1481 -109 1013 -844 
L 513 -844 
Q 928 -128 1133 580 
Q 1338 1288 1338 2009 
Q 1338 2731 1133 3434 
Q 928 4138 513 4856 
z
" transform="scale(0.015625)"/>
      </defs>
      <use xlink:href="#DejaVuSans-54"/>
      <use xlink:href="#DejaVuSans-69" x="57.958984"/>
      <use xlink:href="#DejaVuSans-6d" x="85.742188"/>
      <use xlink:href="#DejaVuSans-65" x="183.154297"/>
      <use xlink:href="#DejaVuSans-20" x="244.677734"/>
      <use xlink:href="#DejaVuSans-28" x="276.464844"/>
      <use xlink:href="#DejaVuSans-64" x="315.478516"/>
      <use xlink:href="#DejaVuSans-29" x="378.955078"/>
     </g>
    </g>
   </g>
   <g id="matplotlib.axis_2">
    <g id="ytick_1">
     <g id="line2d_10">
      <defs>
       <path id="mc93da4e847" d="M 0 0 
L -3.5 0 
" style="stroke: #000000; stroke-width: 0.8"/>
      </defs>
      <g>
       <use xlink:href="#mc93da4e847" x="90" y="320.4" style="stroke: #000000; stroke-width: 0.8"/>
      </g>
     </g>
     <g id="text_11">
      <!-- 0 -->
      <g transform="translate(73.838 325.870875) scale(0.144 -0.144)">
       <use xlink:href="#DejaVuSans-30"/>
      </g>
     </g>
    </g>
    <g id="ytick_2">
     <g id="line2d_11">
      <g>
       <use xlink:href="#mc93da4e847" x="90" y="286.8" style="stroke: #000000; stroke-width: 0.8"/>
      </g>
     </g>
     <g id="text_12">
      <!-- 1 -->
      <g transform="translate(73.838 292.270875) scale(0.144 -0.144)">
       <use xlink:href="#DejaVuSans-31"/>
      </g>
     </g>
    </g>
    <g id="ytick_3">
     <g id="line2d_12">
      <g>
       <use xlink:href="#mc93da4e847" x="90" y="253.2" style="stroke: #000000; stroke-width: 0.8"/>
      </g>
     </g>
     <g id="text_13">
      <!-- 2 -->
      <g transform="translate(73.838 258.670875) scale(0.144 -0.144)">
       <use xlink:href="#DejaVuSans-32"/>
      </g>
     </g>
    </g>
    <g id="ytick_4">
     <g id="line2d_13">
      <g>
       <use xlink:href="#mc93da4e847" x="90" y="219.6" style="stroke: #000000; stroke-width: 0.8"/>
      </g>
     </g>
     <g id="text_14">
      <!-- 3 -->
      <g transform="translate(73.838 225.070875) scale(0.144 -0.144)">
       <use xlink:href="#DejaVuSans-33"/>
      </g>
     </g>
    </g>
    <g id="ytick_5">
     <g id="line2d_14">
      <g>
       <use xlink:href="#mc93da4e847" x="90" y="186" style="stroke: #000000; stroke-width: 0.8"/>
      </g>
     </g>
     <g id="text_15">
      <!-- 4 -->
      <g transform="translate(73.838 191.470875) scale(0.144 -0.144)">
       <use xlink:href="#DejaVuSans-34"/>
      </g>
     </g>
    </g>
    <g id="ytick_6">
     <g id="line2d_15">
      <g>
       <use xlink:href="#mc93da4e847" x="90" y="152.4" style="stroke: #000000; stroke-width: 0.8"/>
      </g>
     </g>
     <g id="text_16">
      <!-- 5 -->
      <g transform="translate(73.838 157.870875) scale(0.144 -0.144)">
       <use xlink:href="#DejaVuSans-35"/>
      </g>
     </g>
    </g>
    <g id="ytick_7">
     <g id="line2d_16">
      <g>
       <use xlink:href="#mc93da4e847" x="90" y="118.8" style="stroke: #000000; stroke-width: 0.8"/>
      </g>
     </g>
     <g id="text_17">
      <!-- 6 -->
      <g transform="translate(73.838 124.270875) scale(0.144 -0.144)">
       <use xlink:href="#DejaVuSans-36"/>
      </g>
     </g>
    </g>
    <g id="ytick_8">
     <g id="line2d_17">
      <g>
       <use xlink:href="#mc93da4e847" x="90" y="85.2" style="stroke: #000000; stroke-width: 0.8"/>
      </g>
     </g>
     <g id="text_18">
      <!-- 7 -->
      <g transform="translate(73.838 90.670875) scale(0.144 -0.144)">
       <use xlink:href="#DejaVuSans-37"/>
      </g>
     </g>
    </g>
    <g id="ytick_9">
     <g id="line2d_18">
      <g>
       <use xlink:href="#mc93da4e847" x="90" y="51.6" style="stroke: #000000; stroke-width: 0.8"/>
      </g>
     </g>
     <g id="text_19">
      <!-- 8 -->
      <g transform="translate(73.838 57.070875) scale(0.144 -0.144)">
       <use xlink:href="#DejaVuSans-38"/>
      </g>
     </g>
    </g>
    <g id="text_20">
     <!-- Log10(V) -->
     <g transform="translate(65.845 225.2235) rotate(-90) scale(0.192 -0.192)">
      <defs>
       <path id="DejaVuSans-4c" d="M 628 4666 
L 1259 4666 
L 1259 531 
L 3531 531 
L 3531 0 
L 628 0 
L 628 4666 
z
" transform="scale(0.015625)"/>
       <path id="DejaVuSans-6f" d="M 1959 3097 
Q 1497 3097 1228 2736 
Q 959 2375 959 1747 
Q 959 1119 1226 758 
Q 1494 397 1959 397 
Q 2419 397 2687 759 
Q 2956 1122 2956 1747 
Q 2956 2369 2687 2733 
Q 2419 3097 1959 3097 
z
M 1959 3584 
Q 2709 3584 3137 3096 
Q 3566 2609 3566 1747 
Q 3566 888 3137 398 
Q 2709 -91 1959 -91 
Q 1206 -91 779 398 
Q 353 888 353 1747 
Q 353 2609 779 3096 
Q 1206 3584 1959 3584 
z
" transform="scale(0.015625)"/>
       <path id="DejaVuSans-67" d="M 2906 1791 
Q 2906 2416 2648 2759 
Q 2391 3103 1925 3103 
Q 1463 3103 1205 2759 
Q 947 2416 947 1791 
Q 947 1169 1205 825 
Q 1463 481 1925 481 
Q 2391 481 2648 825 
Q 2906 1169 2906 1791 
z
M 3481 434 
Q 3481 -459 3084 -895 
Q 2688 -1331 1869 -1331 
Q 1566 -1331 1297 -1286 
Q 1028 -1241 775 -1147 
L 775 -588 
Q 1028 -725 1275 -790 
Q 1522 -856 1778 -856 
Q 2344 -856 2625 -561 
Q 2906 -266 2906 331 
L 2906 616 
Q 2728 306 2450 153 
Q 2172 0 1784 0 
Q 1141 0 747 490 
Q 353 981 353 1791 
Q 353 2603 747 3093 
Q 1141 3584 1784 3584 
Q 2172 3584 2450 3431 
Q 2728 3278 2906 2969 
L 2906 3500 
L 3481 3500 
L 3481 434 
z
" transform="scale(0.015625)"/>
       <path id="DejaVuSans-56" d="M 1831 0 
L 50 4666 
L 709 4666 
L 2188 738 
L 3669 4666 
L 4325 4666 
L 2547 0 
L 1831 0 
z
" transform="scale(0.015625)"/>
      </defs>
      <use xlink:href="#DejaVuSans-4c"/>
      <use xlink:href="#DejaVuSans-6f" x="53.962891"/>
      <use xlink:href="#DejaVuSans-67" x="115.144531"/>
      <use xlink:href="#DejaVuSans-31" x="178.621094"/>
      <use xlink:href="#DejaVuSans-30" x="242.244141"/>
      <use xlink:href="#DejaVuSans-28" x="305.867188"/>
      <use xlink:href="#DejaVuSans-56" x="344.880859"/>
      <use xlink:href="#DejaVuSans-29" x="413.289062"/>
     </g>
    </g>
   </g>
   <g id="patch_3">
    <path d="M 90 320.4 
L 90 43.2 
" style="fill: none; stroke: #000000; stroke-width: 0.8; stroke-linejoin: miter; stroke-linecap: square"/>
   </g>
   <g id="patch_4">
    <path d="M 327.272727 320.4 
L 327.272727 43.2 
" style="fill: none; stroke: #000000; stroke-width: 0.8; stroke-linejoin: miter; stroke-linecap: square"/>
   </g>
   <g id="patch_5">
    <path d="M 90 320.4 
L 327.272727 320.4 
" style="fill: none; stroke: #000000; stroke-width: 0.8; stroke-linejoin: miter; stroke-linecap: square"/>
   </g>
   <g id="patch_6">
    <path d="M 90 43.2 
L 327.272727 43.2 
" style="fill: none; stroke: #000000; stroke-width: 0.8; stroke-linejoin: miter; stroke-linecap: square"/>
   </g>
   <g id="PolyCollection_1">
    <defs>
     <path id="m86f18817f3" d="M 92.89357 -39.6 
L 92.89357 -39.6 
L 92.896155 -39.6 
L 92.922006 -39.6 
L 93.180512 -39.6 
L 93.507961 -39.6 
L 94.130094 -39.6 
L 94.770221 -39.6 
L 95.835695 -39.6 
L 96.688386 -39.6 
L 98.057213 -39.6 
L 98.990528 -39.6 
L 100.578222 -39.6 
L 101.511222 -39.6 
L 102.873268 -47.420251 
L 103.85963 -53.599406 
L 105.376067 -63.182841 
L 106.352367 -69.222984 
L 107.694202 -77.562073 
L 108.702582 -83.800739 
L 110.157843 -92.729068 
L 111.150486 -98.780508 
L 112.477443 -106.869049 
L 113.491606 -113.038484 
L 114.916446 -121.700385 
L 115.917915 -127.772321 
L 117.256216 -135.834069 
L 118.279753 -141.966716 
L 119.726631 -150.508761 
L 120.758492 -156.503424 
L 122.338779 -165.277593 
L 123.382911 -170.820358 
L 124.825075 -177.695175 
L 125.910134 -182.17429 
L 127.481663 -187.224193 
L 128.609241 -190.120146 
L 130.053089 -192.293078 
L 131.14442 -193.337291 
L 132.449573 -194.106593 
L 133.522285 -194.46844 
L 134.656428 -194.609477 
L 135.79057 -194.573426 
L 136.769766 -194.416943 
L 137.748962 -194.183537 
L 138.486986 -193.953092 
L 139.343534 -193.642846 
L 140.485557 -193.161499 
L 141.62758 -192.607669 
L 142.877261 -191.938036 
L 144.274365 -191.120964 
L 145.941076 -190.065491 
L 147.607786 -188.938277 
L 149.433893 -187.632378 
L 151.271065 -186.260434 
L 153.237139 -184.659862 
L 155.246382 -182.936448 
L 157.368105 -181.076786 
L 159.489828 -179.17844 
L 161.704262 -177.156473 
L 163.978197 -175.057033 
L 166.374892 -172.809931 
L 168.771586 -170.544202 
L 171.378365 -168.053089 
L 174.070677 -165.46322 
L 176.964247 -162.623513 
L 179.857817 -159.732671 
L 182.751387 -156.793786 
L 185.644956 -153.838546 
L 188.538526 -150.865269 
L 191.432096 -147.869343 
L 194.325666 -144.841828 
L 197.219236 -141.767226 
L 200.112806 -138.604677 
L 203.006375 -135.188885 
L 205.899945 -131.59287 
L 208.793515 -127.69386 
L 211.687085 -122.560548 
L 214.580655 -114.683665 
L 217.474225 -94.588565 
L 220.367795 -39.6 
L 223.261364 -39.6 
L 226.154934 -39.6 
L 228.519049 -39.6 
L 229.968545 -39.6 
L 231.418041 -39.6 
L 232.612331 -39.6 
L 233.874321 -39.6 
L 235.13631 -39.6 
L 236.3983 -39.6 
L 237.920766 -39.6 
L 239.965554 -39.6 
L 242.859124 -39.6 
L 245.752694 -39.6 
L 248.646263 -39.6 
L 251.539833 -39.6 
L 254.433403 -39.6 
L 257.326973 -39.6 
L 260.220543 -39.6 
L 263.114113 -39.6 
L 266.007682 -39.6 
L 268.901252 -39.6 
L 271.794822 -39.6 
L 274.688392 -39.6 
L 277.581962 -39.6 
L 280.475532 -39.6 
L 283.369102 -39.6 
L 286.262671 -39.6 
L 289.156241 -39.6 
L 292.049811 -39.6 
L 294.943381 -39.6 
L 297.836951 -39.6 
L 298.415665 -39.6 
L 301.309235 -39.6 
L 302.777386 -39.6 
L 305.670956 -39.6 
L 308.564525 -39.6 
L 311.458095 -39.6 
L 314.351665 -39.6 
L 317.245235 -39.6 
L 320.138805 -39.6 
L 323.032375 -39.6 
L 324.379157 -39.6 
L 324.379157 -39.6 
L 324.379157 -39.6 
L 323.032375 -39.6 
L 320.138805 -39.6 
L 317.245235 -39.6 
L 314.351665 -39.6 
L 311.458095 -39.6 
L 308.564525 -39.6 
L 305.670956 -39.6 
L 302.777386 -39.6 
L 301.309235 -39.6 
L 298.415665 -39.6 
L 297.836951 -39.6 
L 294.943381 -39.6 
L 292.049811 -39.6 
L 289.156241 -39.6 
L 286.262671 -39.6 
L 283.369102 -39.6 
L 280.475532 -39.6 
L 277.581962 -39.6 
L 274.688392 -39.6 
L 271.794822 -39.6 
L 268.901252 -39.6 
L 266.007682 -39.6 
L 263.114113 -39.6 
L 260.220543 -39.6 
L 257.326973 -39.6 
L 254.433403 -39.6 
L 251.539833 -39.6 
L 248.646263 -39.6 
L 245.752694 -39.6 
L 242.859124 -39.6 
L 239.965554 -39.6 
L 237.920766 -39.6 
L 236.3983 -39.6 
L 235.13631 -39.6 
L 233.874321 -43.6071 
L 232.612331 -53.967955 
L 231.418041 -65.179445 
L 229.968545 -77.3401 
L 228.519049 -86.383419 
L 226.154934 -99.111035 
L 223.261364 -109.069454 
L 220.367795 -116.67072 
L 217.474225 -122.554219 
L 214.580655 -127.352752 
L 211.687085 -131.378662 
L 208.793515 -134.945756 
L 205.899945 -138.236162 
L 203.006375 -141.503147 
L 200.112806 -144.655356 
L 197.219236 -147.688549 
L 194.325666 -150.646898 
L 191.432096 -153.55735 
L 188.538526 -156.43608 
L 185.644956 -159.29237 
L 182.751387 -162.201751 
L 179.857817 -165.176053 
L 176.964247 -168.130831 
L 174.070677 -171.065907 
L 171.378365 -173.770003 
L 168.771586 -176.36917 
L 166.374892 -178.726948 
L 163.978197 -181.062952 
L 161.704262 -183.240073 
L 159.489828 -185.321763 
L 157.368105 -187.28218 
L 155.246382 -189.187303 
L 153.237139 -190.938935 
L 151.271065 -192.602959 
L 149.433893 -194.087052 
L 147.607786 -195.488187 
L 145.941076 -196.689961 
L 144.274365 -197.802265 
L 142.877261 -198.651096 
L 141.62758 -199.332768 
L 140.485557 -199.879998 
L 139.343534 -200.342775 
L 138.486986 -200.617647 
L 137.748962 -200.805967 
L 136.769766 -200.965885 
L 135.79057 -201.022318 
L 134.656428 -200.901128 
L 133.522285 -200.5277 
L 132.449573 -199.852354 
L 131.14442 -199.038266 
L 130.053089 -198.173051 
L 128.609241 -196.433671 
L 127.481663 -194.470588 
L 125.910134 -190.501421 
L 124.825075 -186.901872 
L 123.382911 -181.035722 
L 122.338779 -176.182237 
L 120.758492 -167.661009 
L 119.726631 -161.695353 
L 118.279753 -152.81218 
L 117.256216 -146.372496 
L 115.917915 -137.778354 
L 114.916446 -131.300247 
L 113.491606 -121.988757 
L 112.477443 -115.360062 
L 111.150486 -106.649579 
L 110.157843 -100.191 
L 108.702582 -90.736348 
L 107.694202 -84.293637 
L 106.352367 -75.80495 
L 105.376067 -69.656155 
L 103.85963 -60.027889 
L 102.873268 -53.810197 
L 101.511222 -45.185016 
L 100.578222 -40.426028 
L 98.990528 -39.6 
L 98.057213 -39.6 
L 96.688386 -39.6 
L 95.835695 -39.6 
L 94.770221 -39.6 
L 94.130094 -39.6 
L 93.507961 -39.6 
L 93.180512 -39.6 
L 92.922006 -39.6 
L 92.896155 -39.6 
L 92.89357 -39.6 
z
" style="stroke: #ff8c00; stroke-opacity: 0.2"/>
    </defs>
    <g clip-path="url(#p42b1aa0952)">
     <use xlink:href="#m86f18817f3" x="0" y="360" style="fill: #ff8c00; fill-opacity: 0.2; stroke: #ff8c00; stroke-opacity: 0.2"/>
    </g>
   </g>
   <g id="PathCollection_1">
    <defs>
     <path id="ma07aadd518" d="M 0 3 
C 0.795609 3 1.55874 2.683901 2.12132 2.12132 
C 2.683901 1.55874 3 0.795609 3 0 
C 3 -0.795609 2.683901 -1.55874 2.12132 -2.12132 
C 1.55874 -2.683901 0.795609 -3 0 -3 
C -0.795609 -3 -1.55874 -2.683901 -2.12132 -2.12132 
C -2.683901 -1.55874 -3 -0.795609 -3 0 
C -3 0.795609 -2.683901 1.55874 -2.12132 2.12132 
C -1.55874 2.683901 -0.795609 3 0 3 
z
" style="stroke: #000000; stroke-opacity: 0.8"/>
    </defs>
    <g clip-path="url(#p42b1aa0952)">
     <use xlink:href="#ma07aadd518" x="92.89357" y="320.4" style="fill: #ff8c00; fill-opacity: 0.8; stroke: #000000; stroke-opacity: 0.8"/>
     <use xlink:href="#ma07aadd518" x="121.829268" y="191.915937" style="fill: #ff8c00; fill-opacity: 0.8; stroke: #000000; stroke-opacity: 0.8"/>
     <use xlink:href="#ma07aadd518" x="150.764967" y="160.951584" style="fill: #ff8c00; fill-opacity: 0.8; stroke: #000000; stroke-opacity: 0.8"/>
     <use xlink:href="#ma07aadd518" x="179.700665" y="212.952855" style="fill: #ff8c00; fill-opacity: 0.8; stroke: #000000; stroke-opacity: 0.8"/>
     <use xlink:href="#ma07aadd518" x="208.636364" y="221.800852" style="fill: #ff8c00; fill-opacity: 0.8; stroke: #000000; stroke-opacity: 0.8"/>
     <use xlink:href="#ma07aadd518" x="237.572062" y="320.4" style="fill: #ff8c00; fill-opacity: 0.8; stroke: #000000; stroke-opacity: 0.8"/>
     <use xlink:href="#ma07aadd518" x="266.507761" y="320.4" style="fill: #ff8c00; fill-opacity: 0.8; stroke: #000000; stroke-opacity: 0.8"/>
     <use xlink:href="#ma07aadd518" x="295.443459" y="320.4" style="fill: #ff8c00; fill-opacity: 0.8; stroke: #000000; stroke-opacity: 0.8"/>
    </g>
   </g>
   <g id="line2d_19">
    <path d="M 92.89357 320.4 
L 92.896155 320.4 
L 92.922006 320.4 
L 93.180512 320.4 
L 93.507961 320.4 
L 94.130094 320.4 
L 94.770221 320.4 
L 95.835695 320.4 
L 96.688386 320.4 
L 98.057213 320.4 
L 98.990528 320.4 
L 100.578222 320.4 
L 101.511222 318.512066 
L 102.873268 309.879877 
L 103.85963 303.668477 
L 105.376067 294.028993 
L 106.352367 287.882602 
L 107.694202 279.384695 
L 108.702582 273.035128 
L 110.157843 263.802558 
L 111.150486 257.558373 
L 112.477443 249.172086 
L 113.491606 242.803804 
L 114.916446 233.815712 
L 115.917915 227.566411 
L 117.256216 219.224189 
L 118.279753 212.938238 
L 119.726631 204.161431 
L 120.758492 198.114723 
L 122.338779 189.288207 
L 123.382911 183.934876 
L 124.825075 177.378877 
L 125.910134 173.221334 
L 127.481663 168.528514 
L 128.609241 166.073513 
L 130.053089 163.898311 
L 131.14442 162.829661 
L 132.449573 162.044593 
L 133.522285 161.707886 
L 134.656428 161.583147 
L 135.79057 161.646114 
L 136.769766 161.822596 
L 137.748962 162.092437 
L 138.486986 162.348911 
L 139.343534 162.69604 
L 140.485557 163.230712 
L 141.62758 163.836489 
L 142.877261 164.56869 
L 144.274365 165.460257 
L 145.941076 166.608612 
L 147.607786 167.834463 
L 149.433893 169.251332 
L 151.271065 170.741892 
L 153.237139 172.397251 
L 155.246382 174.142733 
L 157.368105 176.035158 
L 159.489828 177.96982 
L 161.704262 180.026693 
L 163.978197 182.172327 
L 166.374892 184.46454 
L 168.771586 186.782941 
L 171.378365 189.329653 
L 174.070677 191.982581 
L 176.964247 194.855467 
L 179.857817 197.746742 
L 182.751387 200.65397 
L 185.644956 203.576005 
L 188.538526 206.513287 
L 191.432096 209.468394 
L 194.325666 212.44697 
L 197.219236 215.459189 
L 200.112806 218.522031 
L 203.006375 221.66281 
L 205.899945 224.924781 
L 208.793515 228.376438 
L 211.687085 232.127959 
L 214.580655 236.362839 
L 217.474225 241.404977 
L 220.367795 247.87715 
L 223.261364 257.107115 
L 226.154934 272.048151 
L 228.519049 292.172125 
L 229.968545 308.460852 
L 231.418041 320.4 
L 232.612331 320.4 
L 233.874321 320.4 
L 235.13631 320.4 
L 236.3983 320.4 
L 237.920766 320.4 
L 239.965554 320.4 
L 242.859124 320.4 
L 245.752694 320.4 
L 248.646263 320.4 
L 251.539833 320.4 
L 254.433403 320.4 
L 257.326973 320.4 
L 260.220543 320.4 
L 263.114113 320.4 
L 266.007682 320.4 
L 268.901252 320.4 
L 271.794822 320.4 
L 274.688392 320.4 
L 277.581962 320.4 
L 280.475532 320.4 
L 283.369102 320.4 
L 286.262671 320.4 
L 289.156241 320.4 
L 292.049811 320.4 
L 294.943381 320.4 
L 297.836951 320.4 
L 298.415665 320.4 
L 301.309235 320.4 
L 302.777386 320.4 
L 305.670956 320.4 
L 308.564525 320.4 
L 311.458095 320.4 
L 314.351665 320.4 
L 317.245235 320.4 
L 320.138805 320.4 
L 323.032375 320.4 
L 324.379157 320.4 
" clip-path="url(#p42b1aa0952)" style="fill: none; stroke: #ff8c00; stroke-width: 1.5; stroke-linecap: square"/>
   </g>
  </g>
  <g id="axes_2">
   <g id="patch_7">
    <path d="M 374.727273 320.4 
L 612 320.4 
L 612 43.2 
L 374.727273 43.2 
z
" style="fill: #ffffff"/>
   </g>
   <g id="matplotlib.axis_3">
    <g id="xtick_10">
     <g id="line2d_20">
      <g>
       <use xlink:href="#m82f5c1cad2" x="377.620843" y="320.4" style="stroke: #000000; stroke-width: 0.8"/>
      </g>
     </g>
     <g id="text_21">
      <!-- 0 -->
      <g transform="translate(373.039843 338.34175) scale(0.144 -0.144)">
       <use xlink:href="#DejaVuSans-30"/>
      </g>
     </g>
    </g>
    <g id="xtick_11">
     <g id="line2d_21">
      <g>
       <use xlink:href="#m82f5c1cad2" x="406.556541" y="320.4" style="stroke: #000000; stroke-width: 0.8"/>
      </g>
     </g>
     <g id="text_22">
      <!-- 1 -->
      <g transform="translate(401.975541 338.34175) scale(0.144 -0.144)">
       <use xlink:href="#DejaVuSans-31"/>
      </g>
     </g>
    </g>
    <g id="xtick_12">
     <g id="line2d_22">
      <g>
       <use xlink:href="#m82f5c1cad2" x="435.492239" y="320.4" style="stroke: #000000; stroke-width: 0.8"/>
      </g>
     </g>
     <g id="text_23">
      <!-- 2 -->
      <g transform="translate(430.911239 338.34175) scale(0.144 -0.144)">
       <use xlink:href="#DejaVuSans-32"/>
      </g>
     </g>
    </g>
    <g id="xtick_13">
     <g id="line2d_23">
      <g>
       <use xlink:href="#m82f5c1cad2" x="464.427938" y="320.4" style="stroke: #000000; stroke-width: 0.8"/>
      </g>
     </g>
     <g id="text_24">
      <!-- 3 -->
      <g transform="translate(459.846938 338.34175) scale(0.144 -0.144)">
       <use xlink:href="#DejaVuSans-33"/>
      </g>
     </g>
    </g>
    <g id="xtick_14">
     <g id="line2d_24">
      <g>
       <use xlink:href="#m82f5c1cad2" x="493.363636" y="320.4" style="stroke: #000000; stroke-width: 0.8"/>
      </g>
     </g>
     <g id="text_25">
      <!-- 4 -->
      <g transform="translate(488.782636 338.34175) scale(0.144 -0.144)">
       <use xlink:href="#DejaVuSans-34"/>
      </g>
     </g>
    </g>
    <g id="xtick_15">
     <g id="line2d_25">
      <g>
       <use xlink:href="#m82f5c1cad2" x="522.299335" y="320.4" style="stroke: #000000; stroke-width: 0.8"/>
      </g>
     </g>
     <g id="text_26">
      <!-- 5 -->
      <g transform="translate(517.718335 338.34175) scale(0.144 -0.144)">
       <use xlink:href="#DejaVuSans-35"/>
      </g>
     </g>
    </g>
    <g id="xtick_16">
     <g id="line2d_26">
      <g>
       <use xlink:href="#m82f5c1cad2" x="551.235033" y="320.4" style="stroke: #000000; stroke-width: 0.8"/>
      </g>
     </g>
     <g id="text_27">
      <!-- 6 -->
      <g transform="translate(546.654033 338.34175) scale(0.144 -0.144)">
       <use xlink:href="#DejaVuSans-36"/>
      </g>
     </g>
    </g>
    <g id="xtick_17">
     <g id="line2d_27">
      <g>
       <use xlink:href="#m82f5c1cad2" x="580.170732" y="320.4" style="stroke: #000000; stroke-width: 0.8"/>
      </g>
     </g>
     <g id="text_28">
      <!-- 7 -->
      <g transform="translate(575.589732 338.34175) scale(0.144 -0.144)">
       <use xlink:href="#DejaVuSans-37"/>
      </g>
     </g>
    </g>
    <g id="xtick_18">
     <g id="line2d_28">
      <g>
       <use xlink:href="#m82f5c1cad2" x="609.10643" y="320.4" style="stroke: #000000; stroke-width: 0.8"/>
      </g>
     </g>
     <g id="text_29">
      <!-- 8 -->
      <g transform="translate(604.52543 338.34175) scale(0.144 -0.144)">
       <use xlink:href="#DejaVuSans-38"/>
      </g>
     </g>
    </g>
    <g id="text_30">
     <!-- Time (d) -->
     <g transform="translate(453.238636 359.9255) scale(0.192 -0.192)">
      <use xlink:href="#DejaVuSans-54"/>
      <use xlink:href="#DejaVuSans-69" x="57.958984"/>
      <use xlink:href="#DejaVuSans-6d" x="85.742188"/>
      <use xlink:href="#DejaVuSans-65" x="183.154297"/>
      <use xlink:href="#DejaVuSans-20" x="244.677734"/>
      <use xlink:href="#DejaVuSans-28" x="276.464844"/>
      <use xlink:href="#DejaVuSans-64" x="315.478516"/>
      <use xlink:href="#DejaVuSans-29" x="378.955078"/>
     </g>
    </g>
   </g>
   <g id="matplotlib.axis_4">
    <g id="ytick_10">
     <g id="line2d_29">
      <g>
       <use xlink:href="#mc93da4e847" x="374.727273" y="320.4" style="stroke: #000000; stroke-width: 0.8"/>
      </g>
     </g>
     <g id="text_31">
      <!-- 4.5 -->
      <g transform="translate(344.826773 325.870875) scale(0.144 -0.144)">
       <defs>
        <path id="DejaVuSans-2e" d="M 684 794 
L 1344 794 
L 1344 0 
L 684 0 
L 684 794 
z
" transform="scale(0.015625)"/>
       </defs>
       <use xlink:href="#DejaVuSans-34"/>
       <use xlink:href="#DejaVuSans-2e" x="63.623047"/>
       <use xlink:href="#DejaVuSans-35" x="95.410156"/>
      </g>
     </g>
    </g>
    <g id="ytick_11">
     <g id="line2d_30">
      <g>
       <use xlink:href="#mc93da4e847" x="374.727273" y="277.753846" style="stroke: #000000; stroke-width: 0.8"/>
      </g>
     </g>
     <g id="text_32">
      <!-- 5.0 -->
      <g transform="translate(344.826773 283.224721) scale(0.144 -0.144)">
       <use xlink:href="#DejaVuSans-35"/>
       <use xlink:href="#DejaVuSans-2e" x="63.623047"/>
       <use xlink:href="#DejaVuSans-30" x="95.410156"/>
      </g>
     </g>
    </g>
    <g id="ytick_12">
     <g id="line2d_31">
      <g>
       <use xlink:href="#mc93da4e847" x="374.727273" y="235.107692" style="stroke: #000000; stroke-width: 0.8"/>
      </g>
     </g>
     <g id="text_33">
      <!-- 5.5 -->
      <g transform="translate(344.826773 240.578567) scale(0.144 -0.144)">
       <use xlink:href="#DejaVuSans-35"/>
       <use xlink:href="#DejaVuSans-2e" x="63.623047"/>
       <use xlink:href="#DejaVuSans-35" x="95.410156"/>
      </g>
     </g>
    </g>
    <g id="ytick_13">
     <g id="line2d_32">
      <g>
       <use xlink:href="#mc93da4e847" x="374.727273" y="192.461538" style="stroke: #000000; stroke-width: 0.8"/>
      </g>
     </g>
     <g id="text_34">
      <!-- 6.0 -->
      <g transform="translate(344.826773 197.932413) scale(0.144 -0.144)">
       <use xlink:href="#DejaVuSans-36"/>
       <use xlink:href="#DejaVuSans-2e" x="63.623047"/>
       <use xlink:href="#DejaVuSans-30" x="95.410156"/>
      </g>
     </g>
    </g>
    <g id="ytick_14">
     <g id="line2d_33">
      <g>
       <use xlink:href="#mc93da4e847" x="374.727273" y="149.815385" style="stroke: #000000; stroke-width: 0.8"/>
      </g>
     </g>
     <g id="text_35">
      <!-- 6.5 -->
      <g transform="translate(344.826773 155.28626) scale(0.144 -0.144)">
       <use xlink:href="#DejaVuSans-36"/>
       <use xlink:href="#DejaVuSans-2e" x="63.623047"/>
       <use xlink:href="#DejaVuSans-35" x="95.410156"/>
      </g>
     </g>
    </g>
    <g id="ytick_15">
     <g id="line2d_34">
      <g>
       <use xlink:href="#mc93da4e847" x="374.727273" y="107.169231" style="stroke: #000000; stroke-width: 0.8"/>
      </g>
     </g>
     <g id="text_36">
      <!-- 7.0 -->
      <g transform="translate(344.826773 112.640106) scale(0.144 -0.144)">
       <use xlink:href="#DejaVuSans-37"/>
       <use xlink:href="#DejaVuSans-2e" x="63.623047"/>
       <use xlink:href="#DejaVuSans-30" x="95.410156"/>
      </g>
     </g>
    </g>
    <g id="ytick_16">
     <g id="line2d_35">
      <g>
       <use xlink:href="#mc93da4e847" x="374.727273" y="64.523077" style="stroke: #000000; stroke-width: 0.8"/>
      </g>
     </g>
     <g id="text_37">
      <!-- 7.5 -->
      <g transform="translate(344.826773 69.993952) scale(0.144 -0.144)">
       <use xlink:href="#DejaVuSans-37"/>
       <use xlink:href="#DejaVuSans-2e" x="63.623047"/>
       <use xlink:href="#DejaVuSans-35" x="95.410156"/>
      </g>
     </g>
    </g>
    <g id="text_38">
     <!-- Log10(CD8TE) -->
     <g transform="translate(336.833773 250.7895) rotate(-90) scale(0.192 -0.192)">
      <defs>
       <path id="DejaVuSans-43" d="M 4122 4306 
L 4122 3641 
Q 3803 3938 3442 4084 
Q 3081 4231 2675 4231 
Q 1875 4231 1450 3742 
Q 1025 3253 1025 2328 
Q 1025 1406 1450 917 
Q 1875 428 2675 428 
Q 3081 428 3442 575 
Q 3803 722 4122 1019 
L 4122 359 
Q 3791 134 3420 21 
Q 3050 -91 2638 -91 
Q 1578 -91 968 557 
Q 359 1206 359 2328 
Q 359 3453 968 4101 
Q 1578 4750 2638 4750 
Q 3056 4750 3426 4639 
Q 3797 4528 4122 4306 
z
" transform="scale(0.015625)"/>
       <path id="DejaVuSans-44" d="M 1259 4147 
L 1259 519 
L 2022 519 
Q 2988 519 3436 956 
Q 3884 1394 3884 2338 
Q 3884 3275 3436 3711 
Q 2988 4147 2022 4147 
L 1259 4147 
z
M 628 4666 
L 1925 4666 
Q 3281 4666 3915 4102 
Q 4550 3538 4550 2338 
Q 4550 1131 3912 565 
Q 3275 0 1925 0 
L 628 0 
L 628 4666 
z
" transform="scale(0.015625)"/>
       <path id="DejaVuSans-45" d="M 628 4666 
L 3578 4666 
L 3578 4134 
L 1259 4134 
L 1259 2753 
L 3481 2753 
L 3481 2222 
L 1259 2222 
L 1259 531 
L 3634 531 
L 3634 0 
L 628 0 
L 628 4666 
z
" transform="scale(0.015625)"/>
      </defs>
      <use xlink:href="#DejaVuSans-4c"/>
      <use xlink:href="#DejaVuSans-6f" x="53.962891"/>
      <use xlink:href="#DejaVuSans-67" x="115.144531"/>
      <use xlink:href="#DejaVuSans-31" x="178.621094"/>
      <use xlink:href="#DejaVuSans-30" x="242.244141"/>
      <use xlink:href="#DejaVuSans-28" x="305.867188"/>
      <use xlink:href="#DejaVuSans-43" x="344.880859"/>
      <use xlink:href="#DejaVuSans-44" x="414.705078"/>
      <use xlink:href="#DejaVuSans-38" x="491.707031"/>
      <use xlink:href="#DejaVuSans-54" x="555.330078"/>
      <use xlink:href="#DejaVuSans-45" x="616.414062"/>
      <use xlink:href="#DejaVuSans-29" x="679.597656"/>
     </g>
    </g>
   </g>
   <g id="patch_8">
    <path d="M 374.727273 320.4 
L 374.727273 43.2 
" style="fill: none; stroke: #000000; stroke-width: 0.8; stroke-linejoin: miter; stroke-linecap: square"/>
   </g>
   <g id="patch_9">
    <path d="M 612 320.4 
L 612 43.2 
" style="fill: none; stroke: #000000; stroke-width: 0.8; stroke-linejoin: miter; stroke-linecap: square"/>
   </g>
   <g id="patch_10">
    <path d="M 374.727273 320.4 
L 612 320.4 
" style="fill: none; stroke: #000000; stroke-width: 0.8; stroke-linejoin: miter; stroke-linecap: square"/>
   </g>
   <g id="patch_11">
    <path d="M 374.727273 43.2 
L 612 43.2 
" style="fill: none; stroke: #000000; stroke-width: 0.8; stroke-linejoin: miter; stroke-linecap: square"/>
   </g>
   <g id="PolyCollection_2">
    <defs>
     <path id="m11a8e1fc12" d="M 377.620843 -149.682346 
L 377.620843 -149.682346 
L 377.623428 -149.682346 
L 377.649278 -149.682346 
L 377.907785 -149.682346 
L 378.235234 -149.682346 
L 378.857367 -149.682346 
L 379.497493 -149.682346 
L 380.562968 -149.682346 
L 381.415659 -149.682346 
L 382.784486 -149.682346 
L 383.717801 -149.682346 
L 385.305494 -149.682346 
L 386.238494 -149.682346 
L 387.600541 -149.682346 
L 388.586902 -149.682346 
L 390.10334 -149.682346 
L 391.07964 -149.682346 
L 392.421475 -149.682346 
L 393.429855 -149.682346 
L 394.885116 -149.682346 
L 395.877759 -149.682346 
L 397.204715 -149.682346 
L 398.218879 -149.682346 
L 399.643719 -149.682346 
L 400.645188 -149.682346 
L 401.983489 -149.682346 
L 403.007026 -149.682346 
L 404.453904 -149.682346 
L 405.485764 -149.682346 
L 407.066052 -149.682346 
L 408.110184 -149.682346 
L 409.552348 -149.682346 
L 410.637406 -149.682346 
L 412.208936 -149.682346 
L 413.336514 -149.682346 
L 414.780362 -149.682347 
L 415.871693 -149.682347 
L 417.176845 -149.682347 
L 418.249558 -149.682347 
L 419.3837 -149.682348 
L 420.517843 -149.682349 
L 421.497039 -149.682351 
L 422.476234 -149.682353 
L 423.214259 -149.682355 
L 424.070806 -149.682359 
L 425.212829 -149.682366 
L 426.354852 -149.682378 
L 427.604534 -149.682398 
L 429.001638 -149.682435 
L 430.668348 -149.682513 
L 432.335059 -149.682653 
L 434.161166 -149.682934 
L 435.998338 -149.683463 
L 437.964412 -149.684457 
L 439.973654 -149.686473 
L 442.095378 -149.689978 
L 444.217101 -149.696011 
L 446.431535 -149.70765 
L 448.70547 -149.726287 
L 451.102164 -149.762027 
L 453.498859 -149.815606 
L 456.105637 -149.913067 
L 458.79795 -150.081987 
L 461.69152 -150.351607 
L 464.585089 -150.782204 
L 467.478659 -151.40667 
L 470.372229 -152.298247 
L 473.265799 -153.527551 
L 476.159369 -155.164679 
L 479.052939 -157.270713 
L 481.946509 -159.888402 
L 484.840078 -163.034273 
L 487.733648 -166.694421 
L 490.627218 -170.825355 
L 493.520788 -175.359603 
L 496.414358 -180.214352 
L 499.307928 -185.300765 
L 502.201497 -190.532015 
L 505.095067 -195.828948 
L 507.988637 -201.123265 
L 510.882207 -206.363374 
L 513.246322 -210.560239 
L 514.695818 -213.09478 
L 516.145314 -215.585911 
L 517.339604 -217.619863 
L 518.601593 -219.720916 
L 519.863583 -221.799406 
L 521.125572 -223.846165 
L 522.648039 -226.221318 
L 524.692827 -229.233731 
L 527.586396 -233.297949 
L 530.479966 -237.15188 
L 533.373536 -240.794938 
L 536.267106 -244.228466 
L 539.160676 -247.45523 
L 542.054246 -250.479025 
L 544.947816 -253.304371 
L 547.841385 -255.936285 
L 550.734955 -258.380103 
L 553.628525 -260.641348 
L 556.522095 -262.725632 
L 559.415665 -264.638579 
L 562.309235 -266.385776 
L 565.202804 -267.972726 
L 568.096374 -269.404825 
L 570.989944 -270.687342 
L 573.883514 -271.825405 
L 576.777084 -272.761259 
L 579.670654 -273.380519 
L 582.564224 -273.869282 
L 583.142937 -273.949787 
L 586.036507 -274.288088 
L 587.504658 -274.428003 
L 590.398228 -274.575754 
L 593.291798 -274.621019 
L 596.185368 -274.554594 
L 599.078938 -274.381916 
L 601.972508 -274.10676 
L 604.866078 -273.732775 
L 607.759647 -273.266362 
L 609.10643 -273.020062 
L 609.10643 -295.126549 
L 609.10643 -295.126549 
L 607.759647 -295.141887 
L 604.866078 -295.104283 
L 601.972508 -294.967841 
L 599.078938 -294.729158 
L 596.185368 -294.38473 
L 593.291798 -293.930923 
L 590.398228 -293.363961 
L 587.504658 -292.679927 
L 586.036507 -292.271458 
L 583.142937 -291.402674 
L 582.564224 -291.216537 
L 579.670654 -290.194204 
L 576.777084 -289.038887 
L 573.883514 -287.745908 
L 570.989944 -286.310413 
L 568.096374 -284.727372 
L 565.202804 -282.991579 
L 562.309235 -281.097656 
L 559.415665 -279.062979 
L 556.522095 -277.189667 
L 553.628525 -275.141076 
L 550.734955 -272.931281 
L 547.841385 -270.659036 
L 544.947816 -268.190325 
L 542.054246 -265.51832 
L 539.160676 -262.636182 
L 536.267106 -259.537159 
L 533.373536 -256.21472 
L 530.479966 -252.66274 
L 527.586396 -248.875745 
L 524.692827 -244.84925 
L 522.648039 -241.843304 
L 521.125572 -239.543509 
L 519.863583 -237.593784 
L 518.601593 -235.60224 
L 517.339604 -233.637871 
L 516.145314 -231.685334 
L 514.695818 -229.315563 
L 513.246322 -226.84054 
L 510.882207 -222.730899 
L 507.988637 -217.490929 
L 505.095067 -212.050758 
L 502.201497 -206.438669 
L 499.307928 -200.704317 
L 496.414358 -194.906747 
L 493.520788 -189.12154 
L 490.627218 -183.441085 
L 487.733648 -177.972216 
L 484.840078 -172.830067 
L 481.946509 -168.127639 
L 479.052939 -163.962027 
L 476.159369 -160.400196 
L 473.265799 -157.478946 
L 470.372229 -155.194048 
L 467.478659 -153.446436 
L 464.585089 -152.162685 
L 461.69152 -151.257213 
L 458.79795 -150.6318 
L 456.105637 -150.267637 
L 453.498859 -150.022445 
L 451.102164 -149.891943 
L 448.70547 -149.799877 
L 446.431535 -149.751368 
L 444.217101 -149.72154 
L 442.095378 -149.703821 
L 439.973654 -149.69438 
L 437.964412 -149.688734 
L 435.998338 -149.68592 
L 434.161166 -149.684174 
L 432.335059 -149.68334 
L 430.668348 -149.682869 
L 429.001638 -149.682632 
L 427.604534 -149.682511 
L 426.354852 -149.682443 
L 425.212829 -149.682408 
L 424.070806 -149.682384 
L 423.214259 -149.682373 
L 422.476234 -149.682366 
L 421.497039 -149.682359 
L 420.517843 -149.682355 
L 419.3837 -149.682352 
L 418.249558 -149.68235 
L 417.176845 -149.682348 
L 415.871693 -149.682347 
L 414.780362 -149.682347 
L 413.336514 -149.682347 
L 412.208936 -149.682347 
L 410.637406 -149.682346 
L 409.552348 -149.682346 
L 408.110184 -149.682346 
L 407.066052 -149.682346 
L 405.485764 -149.682346 
L 404.453904 -149.682346 
L 403.007026 -149.682346 
L 401.983489 -149.682346 
L 400.645188 -149.682346 
L 399.643719 -149.682346 
L 398.218879 -149.682346 
L 397.204715 -149.682346 
L 395.877759 -149.682346 
L 394.885116 -149.682346 
L 393.429855 -149.682346 
L 392.421475 -149.682346 
L 391.07964 -149.682346 
L 390.10334 -149.682346 
L 388.586902 -149.682346 
L 387.600541 -149.682346 
L 386.238494 -149.682346 
L 385.305494 -149.682346 
L 383.717801 -149.682346 
L 382.784486 -149.682346 
L 381.415659 -149.682346 
L 380.562968 -149.682346 
L 379.497493 -149.682346 
L 378.857367 -149.682346 
L 378.235234 -149.682346 
L 377.907785 -149.682346 
L 377.649278 -149.682346 
L 377.623428 -149.682346 
L 377.620843 -149.682346 
z
" style="stroke: #ff8c00; stroke-opacity: 0.2"/>
    </defs>
    <g clip-path="url(#pd399d38dfe)">
     <use xlink:href="#m11a8e1fc12" x="0" y="360" style="fill: #ff8c00; fill-opacity: 0.2; stroke: #ff8c00; stroke-opacity: 0.2"/>
    </g>
   </g>
   <g id="PathCollection_2">
    <g clip-path="url(#pd399d38dfe)">
     <use xlink:href="#ma07aadd518" x="348.685144" y="203.331276" style="fill: #ff8c00; fill-opacity: 0.8; stroke: #000000; stroke-opacity: 0.8"/>
     <use xlink:href="#ma07aadd518" x="377.620843" y="210.317654" style="fill: #ff8c00; fill-opacity: 0.8; stroke: #000000; stroke-opacity: 0.8"/>
     <use xlink:href="#ma07aadd518" x="406.556541" y="217.325685" style="fill: #ff8c00; fill-opacity: 0.8; stroke: #000000; stroke-opacity: 0.8"/>
     <use xlink:href="#ma07aadd518" x="435.492239" y="187.774487" style="fill: #ff8c00; fill-opacity: 0.8; stroke: #000000; stroke-opacity: 0.8"/>
     <use xlink:href="#ma07aadd518" x="464.427938" y="190.209538" style="fill: #ff8c00; fill-opacity: 0.8; stroke: #000000; stroke-opacity: 0.8"/>
     <use xlink:href="#ma07aadd518" x="493.363636" y="168.048161" style="fill: #ff8c00; fill-opacity: 0.8; stroke: #000000; stroke-opacity: 0.8"/>
     <use xlink:href="#ma07aadd518" x="522.299335" y="130.888016" style="fill: #ff8c00; fill-opacity: 0.8; stroke: #000000; stroke-opacity: 0.8"/>
     <use xlink:href="#ma07aadd518" x="551.235033" y="96.454122" style="fill: #ff8c00; fill-opacity: 0.8; stroke: #000000; stroke-opacity: 0.8"/>
     <use xlink:href="#ma07aadd518" x="580.170732" y="75.333926" style="fill: #ff8c00; fill-opacity: 0.8; stroke: #000000; stroke-opacity: 0.8"/>
    </g>
   </g>
   <g id="line2d_36">
    <path d="M 377.620843 210.317654 
L 377.623428 210.317654 
L 377.649278 210.317654 
L 377.907785 210.317654 
L 378.235234 210.317654 
L 378.857367 210.317654 
L 379.497493 210.317654 
L 380.562968 210.317654 
L 381.415659 210.317654 
L 382.784486 210.317654 
L 383.717801 210.317654 
L 385.305494 210.317654 
L 386.238494 210.317654 
L 387.600541 210.317654 
L 388.586902 210.317654 
L 390.10334 210.317654 
L 391.07964 210.317654 
L 392.421475 210.317654 
L 393.429855 210.317654 
L 394.885116 210.317654 
L 395.877759 210.317654 
L 397.204715 210.317654 
L 398.218879 210.317654 
L 399.643719 210.317654 
L 400.645188 210.317654 
L 401.983489 210.317654 
L 403.007026 210.317654 
L 404.453904 210.317654 
L 405.485764 210.317654 
L 407.066052 210.317654 
L 408.110184 210.317654 
L 409.552348 210.317654 
L 410.637406 210.317654 
L 412.208936 210.317654 
L 413.336514 210.317654 
L 414.780362 210.317653 
L 415.871693 210.317653 
L 417.176845 210.317653 
L 418.249558 210.317652 
L 419.3837 210.317651 
L 420.517843 210.317649 
L 421.497039 210.317646 
L 422.476234 210.317642 
L 423.214259 210.317637 
L 424.070806 210.31763 
L 425.212829 210.317616 
L 426.354852 210.317594 
L 427.604534 210.317556 
L 429.001638 210.317485 
L 430.668348 210.317334 
L 432.335059 210.317063 
L 434.161166 210.316522 
L 435.998338 210.315541 
L 437.964412 210.313653 
L 439.973654 210.310218 
L 442.095378 210.303826 
L 444.217101 210.292805 
L 446.431535 210.273371 
L 448.70547 210.240198 
L 451.102164 210.18281 
L 453.498859 210.090735 
L 456.105637 209.931831 
L 458.79795 209.674108 
L 461.69152 209.244606 
L 464.585089 208.595406 
L 467.478659 207.651607 
L 470.372229 206.331202 
L 473.265799 204.553224 
L 476.159369 202.248796 
L 479.052939 199.373025 
L 481.946509 195.914528 
L 484.840078 191.899457 
L 487.733648 187.388591 
L 490.627218 182.468507 
L 493.520788 177.239774 
L 496.414358 171.805445 
L 499.307928 166.262132 
L 502.201497 160.694515 
L 505.095067 155.172967 
L 507.988637 149.753456 
L 510.882207 144.478778 
L 513.246322 140.298963 
L 514.695818 137.79991 
L 516.145314 135.352066 
L 517.339604 133.374956 
L 518.601593 131.325796 
L 519.863583 129.31852 
L 521.125572 127.353732 
L 522.648039 125.040626 
L 524.692827 122.033321 
L 527.586396 117.973466 
L 530.479966 114.141837 
L 533.373536 110.535974 
L 536.267106 107.15204 
L 539.160676 103.985239 
L 542.054246 101.030116 
L 544.947816 98.280798 
L 547.841385 95.731163 
L 550.734955 93.374972 
L 553.628525 91.20596 
L 556.522095 89.217905 
L 559.415665 87.404683 
L 562.309235 85.760294 
L 565.202804 84.278894 
L 568.096374 82.954804 
L 570.989944 81.782523 
L 573.883514 80.756729 
L 576.777084 79.872285 
L 579.670654 79.124233 
L 582.564224 78.507792 
L 583.142937 78.399881 
L 586.036507 77.935315 
L 587.504658 77.746422 
L 590.398228 77.463675 
L 593.291798 77.296276 
L 596.185368 77.240203 
L 599.078938 77.291582 
L 601.972508 77.44667 
L 604.866078 77.701859 
L 607.759647 78.053659 
L 609.10643 78.249496 
" clip-path="url(#pd399d38dfe)" style="fill: none; stroke: #ff8c00; stroke-width: 1.5; stroke-linecap: square"/>
   </g>
  </g>
  <g id="legend_1">
   <g id="patch_12">
    <path d="M 769.44 43.542 
L 867.528 43.542 
Q 871.368 43.542 871.368 39.702 
L 871.368 13.44 
Q 871.368 9.6 867.528 9.6 
L 769.44 9.6 
Q 765.6 9.6 765.6 13.44 
L 765.6 39.702 
Q 765.6 43.542 769.44 43.542 
z
" style="fill: #ffffff; opacity: 0.8; stroke: #cccccc; stroke-linejoin: miter"/>
   </g>
   <g id="PathCollection_3">
    <g>
     <use xlink:href="#ma07aadd518" x="792.48" y="26.829" style="fill: #ff8c00; fill-opacity: 0.8; stroke: #000000; stroke-opacity: 0.8"/>
    </g>
   </g>
   <g id="text_39">
    <!-- 204 -->
    <g transform="translate(827.04 31.869) scale(0.192 -0.192)">
     <use xlink:href="#DejaVuSans-32"/>
     <use xlink:href="#DejaVuSans-30" x="63.623047"/>
     <use xlink:href="#DejaVuSans-34" x="127.246094"/>
    </g>
   </g>
  </g>
 </g>
 <defs>
  <clipPath id="p42b1aa0952">
   <rect x="90" y="43.2" width="237.272727" height="277.2"/>
  </clipPath>
  <clipPath id="pd399d38dfe">
   <rect x="374.727273" y="43.2" width="237.272727" height="277.2"/>
  </clipPath>
 </defs>
</svg>
