<?xml version="1.0" encoding="utf-8" standalone="no"?>
<!DOCTYPE svg PUBLIC "-//W3C//DTD SVG 1.1//EN"
  "http://www.w3.org/Graphics/SVG/1.1/DTD/svg11.dtd">
<svg xmlns:xlink="http://www.w3.org/1999/xlink" width="720pt" height="360pt" viewBox="0 0 720 360" xmlns="http://www.w3.org/2000/svg" version="1.1">
 <metadata>
  <rdf:RDF xmlns:dc="http://purl.org/dc/elements/1.1/" xmlns:cc="http://creativecommons.org/ns#" xmlns:rdf="http://www.w3.org/1999/02/22-rdf-syntax-ns#">
   <cc:Work>
    <dc:type rdf:resource="http://purl.org/dc/dcmitype/StillImage"/>
    <dc:date>2024-11-26T15:37:57.427186</dc:date>
    <dc:format>image/svg+xml</dc:format>
    <dc:creator>
     <cc:Agent>
      <dc:title>Matplotlib v3.9.2, https://matplotlib.org/</dc:title>
     </cc:Agent>
    </dc:creator>
   </cc:Work>
  </rdf:RDF>
 </metadata>
 <defs>
  <style type="text/css">*{stroke-linejoin: round; stroke-linecap: butt}</style>
 </defs>
 <g id="figure_1">
  <g id="patch_1">
   <path d="M 0 360 
L 720 360 
L 720 0 
L 0 0 
z
" style="fill: #ffffff"/>
  </g>
  <g id="axes_1">
   <g id="patch_2">
    <path d="M 90 320.4 
L 327.272727 320.4 
L 327.272727 43.2 
L 90 43.2 
z
" style="fill: #ffffff"/>
   </g>
   <g id="matplotlib.axis_1">
    <g id="xtick_1">
     <g id="text_1">
      <!-- 0 -->
      <g style="fill: #262626" transform="translate(88.889695 340.20725) scale(0.144 -0.144)">
       <defs>
        <path id="ArialMT-30" d="M 266 2259 
Q 266 3072 433 3567 
Q 600 4063 929 4331 
Q 1259 4600 1759 4600 
Q 2128 4600 2406 4451 
Q 2684 4303 2865 4023 
Q 3047 3744 3150 3342 
Q 3253 2941 3253 2259 
Q 3253 1453 3087 958 
Q 2922 463 2592 192 
Q 2263 -78 1759 -78 
Q 1097 -78 719 397 
Q 266 969 266 2259 
z
M 844 2259 
Q 844 1131 1108 757 
Q 1372 384 1759 384 
Q 2147 384 2411 759 
Q 2675 1134 2675 2259 
Q 2675 3391 2411 3762 
Q 2147 4134 1753 4134 
Q 1366 4134 1134 3806 
Q 844 3388 844 2259 
z
" transform="scale(0.015625)"/>
       </defs>
       <use xlink:href="#ArialMT-30"/>
      </g>
     </g>
    </g>
    <g id="xtick_2">
     <g id="text_2">
      <!-- 1 -->
      <g style="fill: #262626" transform="translate(117.825393 340.20725) scale(0.144 -0.144)">
       <defs>
        <path id="ArialMT-31" d="M 2384 0 
L 1822 0 
L 1822 3584 
Q 1619 3391 1289 3197 
Q 959 3003 697 2906 
L 697 3450 
Q 1169 3672 1522 3987 
Q 1875 4303 2022 4600 
L 2384 4600 
L 2384 0 
z
" transform="scale(0.015625)"/>
       </defs>
       <use xlink:href="#ArialMT-31"/>
      </g>
     </g>
    </g>
    <g id="xtick_3">
     <g id="text_3">
      <!-- 2 -->
      <g style="fill: #262626" transform="translate(146.761092 340.20725) scale(0.144 -0.144)">
       <defs>
        <path id="ArialMT-32" d="M 3222 541 
L 3222 0 
L 194 0 
Q 188 203 259 391 
Q 375 700 629 1000 
Q 884 1300 1366 1694 
Q 2113 2306 2375 2664 
Q 2638 3022 2638 3341 
Q 2638 3675 2398 3904 
Q 2159 4134 1775 4134 
Q 1369 4134 1125 3890 
Q 881 3647 878 3216 
L 300 3275 
Q 359 3922 746 4261 
Q 1134 4600 1788 4600 
Q 2447 4600 2831 4234 
Q 3216 3869 3216 3328 
Q 3216 3053 3103 2787 
Q 2991 2522 2730 2228 
Q 2469 1934 1863 1422 
Q 1356 997 1212 845 
Q 1069 694 975 541 
L 3222 541 
z
" transform="scale(0.015625)"/>
       </defs>
       <use xlink:href="#ArialMT-32"/>
      </g>
     </g>
    </g>
    <g id="xtick_4">
     <g id="text_4">
      <!-- 3 -->
      <g style="fill: #262626" transform="translate(175.69679 340.20725) scale(0.144 -0.144)">
       <defs>
        <path id="ArialMT-33" d="M 269 1209 
L 831 1284 
Q 928 806 1161 595 
Q 1394 384 1728 384 
Q 2125 384 2398 659 
Q 2672 934 2672 1341 
Q 2672 1728 2419 1979 
Q 2166 2231 1775 2231 
Q 1616 2231 1378 2169 
L 1441 2663 
Q 1497 2656 1531 2656 
Q 1891 2656 2178 2843 
Q 2466 3031 2466 3422 
Q 2466 3731 2256 3934 
Q 2047 4138 1716 4138 
Q 1388 4138 1169 3931 
Q 950 3725 888 3313 
L 325 3413 
Q 428 3978 793 4289 
Q 1159 4600 1703 4600 
Q 2078 4600 2393 4439 
Q 2709 4278 2876 4000 
Q 3044 3722 3044 3409 
Q 3044 3113 2884 2869 
Q 2725 2625 2413 2481 
Q 2819 2388 3044 2092 
Q 3269 1797 3269 1353 
Q 3269 753 2831 336 
Q 2394 -81 1725 -81 
Q 1122 -81 723 278 
Q 325 638 269 1209 
z
" transform="scale(0.015625)"/>
       </defs>
       <use xlink:href="#ArialMT-33"/>
      </g>
     </g>
    </g>
    <g id="xtick_5">
     <g id="text_5">
      <!-- 4 -->
      <g style="fill: #262626" transform="translate(204.632489 340.20725) scale(0.144 -0.144)">
       <defs>
        <path id="ArialMT-34" d="M 2069 0 
L 2069 1097 
L 81 1097 
L 81 1613 
L 2172 4581 
L 2631 4581 
L 2631 1613 
L 3250 1613 
L 3250 1097 
L 2631 1097 
L 2631 0 
L 2069 0 
z
M 2069 1613 
L 2069 3678 
L 634 1613 
L 2069 1613 
z
" transform="scale(0.015625)"/>
       </defs>
       <use xlink:href="#ArialMT-34"/>
      </g>
     </g>
    </g>
    <g id="xtick_6">
     <g id="text_6">
      <!-- 5 -->
      <g style="fill: #262626" transform="translate(233.568187 340.20725) scale(0.144 -0.144)">
       <defs>
        <path id="ArialMT-35" d="M 266 1200 
L 856 1250 
Q 922 819 1161 601 
Q 1400 384 1738 384 
Q 2144 384 2425 690 
Q 2706 997 2706 1503 
Q 2706 1984 2436 2262 
Q 2166 2541 1728 2541 
Q 1456 2541 1237 2417 
Q 1019 2294 894 2097 
L 366 2166 
L 809 4519 
L 3088 4519 
L 3088 3981 
L 1259 3981 
L 1013 2750 
Q 1425 3038 1878 3038 
Q 2478 3038 2890 2622 
Q 3303 2206 3303 1553 
Q 3303 931 2941 478 
Q 2500 -78 1738 -78 
Q 1113 -78 717 272 
Q 322 622 266 1200 
z
" transform="scale(0.015625)"/>
       </defs>
       <use xlink:href="#ArialMT-35"/>
      </g>
     </g>
    </g>
    <g id="xtick_7">
     <g id="text_7">
      <!-- 6 -->
      <g style="fill: #262626" transform="translate(262.503886 340.20725) scale(0.144 -0.144)">
       <defs>
        <path id="ArialMT-36" d="M 3184 3459 
L 2625 3416 
Q 2550 3747 2413 3897 
Q 2184 4138 1850 4138 
Q 1581 4138 1378 3988 
Q 1113 3794 959 3422 
Q 806 3050 800 2363 
Q 1003 2672 1297 2822 
Q 1591 2972 1913 2972 
Q 2475 2972 2870 2558 
Q 3266 2144 3266 1488 
Q 3266 1056 3080 686 
Q 2894 316 2569 119 
Q 2244 -78 1831 -78 
Q 1128 -78 684 439 
Q 241 956 241 2144 
Q 241 3472 731 4075 
Q 1159 4600 1884 4600 
Q 2425 4600 2770 4297 
Q 3116 3994 3184 3459 
z
M 888 1484 
Q 888 1194 1011 928 
Q 1134 663 1356 523 
Q 1578 384 1822 384 
Q 2178 384 2434 671 
Q 2691 959 2691 1453 
Q 2691 1928 2437 2201 
Q 2184 2475 1800 2475 
Q 1419 2475 1153 2201 
Q 888 1928 888 1484 
z
" transform="scale(0.015625)"/>
       </defs>
       <use xlink:href="#ArialMT-36"/>
      </g>
     </g>
    </g>
    <g id="xtick_8">
     <g id="text_8">
      <!-- 7 -->
      <g style="fill: #262626" transform="translate(291.439584 340.20725) scale(0.144 -0.144)">
       <defs>
        <path id="ArialMT-37" d="M 303 3981 
L 303 4522 
L 3269 4522 
L 3269 4084 
Q 2831 3619 2401 2847 
Q 1972 2075 1738 1259 
Q 1569 684 1522 0 
L 944 0 
Q 953 541 1156 1306 
Q 1359 2072 1739 2783 
Q 2119 3494 2547 3981 
L 303 3981 
z
" transform="scale(0.015625)"/>
       </defs>
       <use xlink:href="#ArialMT-37"/>
      </g>
     </g>
    </g>
    <g id="xtick_9">
     <g id="text_9">
      <!-- 8 -->
      <g style="fill: #262626" transform="translate(320.375282 340.20725) scale(0.144 -0.144)">
       <defs>
        <path id="ArialMT-38" d="M 1131 2484 
Q 781 2613 612 2850 
Q 444 3088 444 3419 
Q 444 3919 803 4259 
Q 1163 4600 1759 4600 
Q 2359 4600 2725 4251 
Q 3091 3903 3091 3403 
Q 3091 3084 2923 2848 
Q 2756 2613 2416 2484 
Q 2838 2347 3058 2040 
Q 3278 1734 3278 1309 
Q 3278 722 2862 322 
Q 2447 -78 1769 -78 
Q 1091 -78 675 323 
Q 259 725 259 1325 
Q 259 1772 486 2073 
Q 713 2375 1131 2484 
z
M 1019 3438 
Q 1019 3113 1228 2906 
Q 1438 2700 1772 2700 
Q 2097 2700 2305 2904 
Q 2513 3109 2513 3406 
Q 2513 3716 2298 3927 
Q 2084 4138 1766 4138 
Q 1444 4138 1231 3931 
Q 1019 3725 1019 3438 
z
M 838 1322 
Q 838 1081 952 856 
Q 1066 631 1291 507 
Q 1516 384 1775 384 
Q 2178 384 2440 643 
Q 2703 903 2703 1303 
Q 2703 1709 2433 1975 
Q 2163 2241 1756 2241 
Q 1359 2241 1098 1978 
Q 838 1716 838 1322 
z
" transform="scale(0.015625)"/>
       </defs>
       <use xlink:href="#ArialMT-38"/>
      </g>
     </g>
    </g>
    <g id="text_10">
     <!-- Time (d) -->
     <g style="fill: #262626" transform="translate(173.266364 361.04625) scale(0.192 -0.192)">
      <defs>
       <path id="ArialMT-54" d="M 1659 0 
L 1659 4041 
L 150 4041 
L 150 4581 
L 3781 4581 
L 3781 4041 
L 2266 4041 
L 2266 0 
L 1659 0 
z
" transform="scale(0.015625)"/>
       <path id="ArialMT-69" d="M 425 3934 
L 425 4581 
L 988 4581 
L 988 3934 
L 425 3934 
z
M 425 0 
L 425 3319 
L 988 3319 
L 988 0 
L 425 0 
z
" transform="scale(0.015625)"/>
       <path id="ArialMT-6d" d="M 422 0 
L 422 3319 
L 925 3319 
L 925 2853 
Q 1081 3097 1340 3245 
Q 1600 3394 1931 3394 
Q 2300 3394 2536 3241 
Q 2772 3088 2869 2813 
Q 3263 3394 3894 3394 
Q 4388 3394 4653 3120 
Q 4919 2847 4919 2278 
L 4919 0 
L 4359 0 
L 4359 2091 
Q 4359 2428 4304 2576 
Q 4250 2725 4106 2815 
Q 3963 2906 3769 2906 
Q 3419 2906 3187 2673 
Q 2956 2441 2956 1928 
L 2956 0 
L 2394 0 
L 2394 2156 
Q 2394 2531 2256 2718 
Q 2119 2906 1806 2906 
Q 1569 2906 1367 2781 
Q 1166 2656 1075 2415 
Q 984 2175 984 1722 
L 984 0 
L 422 0 
z
" transform="scale(0.015625)"/>
       <path id="ArialMT-65" d="M 2694 1069 
L 3275 997 
Q 3138 488 2766 206 
Q 2394 -75 1816 -75 
Q 1088 -75 661 373 
Q 234 822 234 1631 
Q 234 2469 665 2931 
Q 1097 3394 1784 3394 
Q 2450 3394 2872 2941 
Q 3294 2488 3294 1666 
Q 3294 1616 3291 1516 
L 816 1516 
Q 847 969 1125 678 
Q 1403 388 1819 388 
Q 2128 388 2347 550 
Q 2566 713 2694 1069 
z
M 847 1978 
L 2700 1978 
Q 2663 2397 2488 2606 
Q 2219 2931 1791 2931 
Q 1403 2931 1139 2672 
Q 875 2413 847 1978 
z
" transform="scale(0.015625)"/>
       <path id="ArialMT-20" transform="scale(0.015625)"/>
       <path id="ArialMT-28" d="M 1497 -1347 
Q 1031 -759 709 28 
Q 388 816 388 1659 
Q 388 2403 628 3084 
Q 909 3875 1497 4659 
L 1900 4659 
Q 1522 4009 1400 3731 
Q 1209 3300 1100 2831 
Q 966 2247 966 1656 
Q 966 153 1900 -1347 
L 1497 -1347 
z
" transform="scale(0.015625)"/>
       <path id="ArialMT-64" d="M 2575 0 
L 2575 419 
Q 2259 -75 1647 -75 
Q 1250 -75 917 144 
Q 584 363 401 755 
Q 219 1147 219 1656 
Q 219 2153 384 2558 
Q 550 2963 881 3178 
Q 1213 3394 1622 3394 
Q 1922 3394 2156 3267 
Q 2391 3141 2538 2938 
L 2538 4581 
L 3097 4581 
L 3097 0 
L 2575 0 
z
M 797 1656 
Q 797 1019 1065 703 
Q 1334 388 1700 388 
Q 2069 388 2326 689 
Q 2584 991 2584 1609 
Q 2584 2291 2321 2609 
Q 2059 2928 1675 2928 
Q 1300 2928 1048 2622 
Q 797 2316 797 1656 
z
" transform="scale(0.015625)"/>
       <path id="ArialMT-29" d="M 791 -1347 
L 388 -1347 
Q 1322 153 1322 1656 
Q 1322 2244 1188 2822 
Q 1081 3291 891 3722 
Q 769 4003 388 4659 
L 791 4659 
Q 1378 3875 1659 3084 
Q 1900 2403 1900 1659 
Q 1900 816 1576 28 
Q 1253 -759 791 -1347 
z
" transform="scale(0.015625)"/>
      </defs>
      <use xlink:href="#ArialMT-54"/>
      <use xlink:href="#ArialMT-69" x="57.333984"/>
      <use xlink:href="#ArialMT-6d" x="79.550781"/>
      <use xlink:href="#ArialMT-65" x="162.851562"/>
      <use xlink:href="#ArialMT-20" x="218.466797"/>
      <use xlink:href="#ArialMT-28" x="246.25"/>
      <use xlink:href="#ArialMT-64" x="279.550781"/>
      <use xlink:href="#ArialMT-29" x="335.166016"/>
     </g>
    </g>
   </g>
   <g id="matplotlib.axis_2">
    <g id="ytick_1">
     <g id="text_11">
      <!-- 0 -->
      <g style="fill: #262626" transform="translate(72.49225 325.553625) scale(0.144 -0.144)">
       <use xlink:href="#ArialMT-30"/>
      </g>
     </g>
    </g>
    <g id="ytick_2">
     <g id="text_12">
      <!-- 1 -->
      <g style="fill: #262626" transform="translate(72.49225 291.953625) scale(0.144 -0.144)">
       <use xlink:href="#ArialMT-31"/>
      </g>
     </g>
    </g>
    <g id="ytick_3">
     <g id="text_13">
      <!-- 2 -->
      <g style="fill: #262626" transform="translate(72.49225 258.353625) scale(0.144 -0.144)">
       <use xlink:href="#ArialMT-32"/>
      </g>
     </g>
    </g>
    <g id="ytick_4">
     <g id="text_14">
      <!-- 3 -->
      <g style="fill: #262626" transform="translate(72.49225 224.753625) scale(0.144 -0.144)">
       <use xlink:href="#ArialMT-33"/>
      </g>
     </g>
    </g>
    <g id="ytick_5">
     <g id="text_15">
      <!-- 4 -->
      <g style="fill: #262626" transform="translate(72.49225 191.153625) scale(0.144 -0.144)">
       <use xlink:href="#ArialMT-34"/>
      </g>
     </g>
    </g>
    <g id="ytick_6">
     <g id="text_16">
      <!-- 5 -->
      <g style="fill: #262626" transform="translate(72.49225 157.553625) scale(0.144 -0.144)">
       <use xlink:href="#ArialMT-35"/>
      </g>
     </g>
    </g>
    <g id="ytick_7">
     <g id="text_17">
      <!-- 6 -->
      <g style="fill: #262626" transform="translate(72.49225 123.953625) scale(0.144 -0.144)">
       <use xlink:href="#ArialMT-36"/>
      </g>
     </g>
    </g>
    <g id="ytick_8">
     <g id="text_18">
      <!-- 7 -->
      <g style="fill: #262626" transform="translate(72.49225 90.353625) scale(0.144 -0.144)">
       <use xlink:href="#ArialMT-37"/>
      </g>
     </g>
    </g>
    <g id="ytick_9">
     <g id="text_19">
      <!-- 8 -->
      <g style="fill: #262626" transform="translate(72.49225 56.753625) scale(0.144 -0.144)">
       <use xlink:href="#ArialMT-38"/>
      </g>
     </g>
    </g>
    <g id="text_20">
     <!-- Log10(V) -->
     <g style="fill: #262626" transform="translate(64.45125 221.289) rotate(-90) scale(0.192 -0.192)">
      <defs>
       <path id="ArialMT-4c" d="M 469 0 
L 469 4581 
L 1075 4581 
L 1075 541 
L 3331 541 
L 3331 0 
L 469 0 
z
" transform="scale(0.015625)"/>
       <path id="ArialMT-6f" d="M 213 1659 
Q 213 2581 725 3025 
Q 1153 3394 1769 3394 
Q 2453 3394 2887 2945 
Q 3322 2497 3322 1706 
Q 3322 1066 3130 698 
Q 2938 331 2570 128 
Q 2203 -75 1769 -75 
Q 1072 -75 642 372 
Q 213 819 213 1659 
z
M 791 1659 
Q 791 1022 1069 705 
Q 1347 388 1769 388 
Q 2188 388 2466 706 
Q 2744 1025 2744 1678 
Q 2744 2294 2464 2611 
Q 2184 2928 1769 2928 
Q 1347 2928 1069 2612 
Q 791 2297 791 1659 
z
" transform="scale(0.015625)"/>
       <path id="ArialMT-67" d="M 319 -275 
L 866 -356 
Q 900 -609 1056 -725 
Q 1266 -881 1628 -881 
Q 2019 -881 2231 -725 
Q 2444 -569 2519 -288 
Q 2563 -116 2559 434 
Q 2191 0 1641 0 
Q 956 0 581 494 
Q 206 988 206 1678 
Q 206 2153 378 2554 
Q 550 2956 876 3175 
Q 1203 3394 1644 3394 
Q 2231 3394 2613 2919 
L 2613 3319 
L 3131 3319 
L 3131 450 
Q 3131 -325 2973 -648 
Q 2816 -972 2473 -1159 
Q 2131 -1347 1631 -1347 
Q 1038 -1347 672 -1080 
Q 306 -813 319 -275 
z
M 784 1719 
Q 784 1066 1043 766 
Q 1303 466 1694 466 
Q 2081 466 2343 764 
Q 2606 1063 2606 1700 
Q 2606 2309 2336 2618 
Q 2066 2928 1684 2928 
Q 1309 2928 1046 2623 
Q 784 2319 784 1719 
z
" transform="scale(0.015625)"/>
       <path id="ArialMT-56" d="M 1803 0 
L 28 4581 
L 684 4581 
L 1875 1253 
Q 2019 853 2116 503 
Q 2222 878 2363 1253 
L 3600 4581 
L 4219 4581 
L 2425 0 
L 1803 0 
z
" transform="scale(0.015625)"/>
      </defs>
      <use xlink:href="#ArialMT-4c"/>
      <use xlink:href="#ArialMT-6f" x="55.615234"/>
      <use xlink:href="#ArialMT-67" x="111.230469"/>
      <use xlink:href="#ArialMT-31" x="166.845703"/>
      <use xlink:href="#ArialMT-30" x="222.460938"/>
      <use xlink:href="#ArialMT-28" x="278.076172"/>
      <use xlink:href="#ArialMT-56" x="311.376953"/>
      <use xlink:href="#ArialMT-29" x="378.076172"/>
     </g>
    </g>
   </g>
   <g id="patch_3">
    <path d="M 90 320.4 
L 90 43.2 
" style="fill: none; stroke: #262626; stroke-width: 1.25; stroke-linejoin: miter; stroke-linecap: square"/>
   </g>
   <g id="patch_4">
    <path d="M 327.272727 320.4 
L 327.272727 43.2 
" style="fill: none; stroke: #262626; stroke-width: 1.25; stroke-linejoin: miter; stroke-linecap: square"/>
   </g>
   <g id="patch_5">
    <path d="M 90 320.4 
L 327.272727 320.4 
" style="fill: none; stroke: #262626; stroke-width: 1.25; stroke-linejoin: miter; stroke-linecap: square"/>
   </g>
   <g id="patch_6">
    <path d="M 90 43.2 
L 327.272727 43.2 
" style="fill: none; stroke: #262626; stroke-width: 1.25; stroke-linejoin: miter; stroke-linecap: square"/>
   </g>
   <g id="PolyCollection_1">
    <defs>
     <path id="md1389372b7" d="M 92.89357 -39.6 
L 92.89357 -39.6 
L 92.893974 -39.6 
L 92.89801 -39.6 
L 92.93838 -39.6 
L 93.023894 -39.6 
L 93.15073 -39.6 
L 93.451957 -39.6 
L 94.026034 -39.6 
L 94.638623 -39.6 
L 95.496719 -39.6 
L 96.608333 -39.6 
L 97.723738 -39.6 
L 99.062175 -42.845091 
L 100.070443 -46.665885 
L 101.438316 -52.89878 
L 102.527765 -57.8527 
L 103.860098 -63.880534 
L 104.437928 -66.504012 
L 105.987003 -73.515012 
L 106.679132 -76.65121 
L 108.184147 -83.498372 
L 108.989434 -87.134403 
L 110.535118 -94.133284 
L 111.430156 -98.184126 
L 112.976494 -105.183499 
L 113.94608 -109.587368 
L 115.500594 -116.610217 
L 116.527951 -121.266285 
L 118.083965 -128.294865 
L 119.156087 -133.153169 
L 120.715161 -140.200344 
L 121.82169 -145.190341 
L 123.533928 -152.90307 
L 124.628508 -157.817305 
L 126.161501 -164.691339 
L 127.305745 -169.770577 
L 128.999309 -177.238302 
L 130.161705 -182.276496 
L 131.806303 -189.273517 
L 133.017691 -194.238717 
L 134.809849 -201.191784 
L 136.013315 -205.542909 
L 137.708444 -211.020846 
L 138.969458 -214.598652 
L 140.605555 -218.398644 
L 141.83492 -220.811448 
L 143.340553 -223.060799 
L 144.551244 -224.541591 
L 145.836321 -225.707174 
L 147.121398 -226.582417 
L 148.242308 -227.167998 
L 149.363219 -227.615029 
L 150.22002 -227.89675 
L 151.051964 -228.056365 
L 151.754584 -228.136999 
L 152.479557 -228.205469 
L 153.063769 -228.24145 
L 153.592495 -228.262812 
L 154.12122 -228.276037 
L 154.54971 -228.279641 
L 155.035201 -228.277804 
L 156.352524 -228.238511 
L 156.963295 -228.207142 
L 158.45318 -228.098676 
L 159.216423 -228.02883 
L 161.174084 -227.809655 
L 162.250076 -227.668161 
L 164.523723 -227.338162 
L 165.795499 -227.136477 
L 168.299908 -226.708239 
L 169.758235 -226.448246 
L 172.651804 -225.905799 
L 174.285005 -225.58306 
L 177.178575 -224.993149 
L 179.065928 -224.60323 
L 181.959498 -223.96219 
L 184.193197 -223.398475 
L 187.086767 -222.665104 
L 189.980337 -221.928514 
L 192.873907 -221.189268 
L 195.767476 -220.447592 
L 198.661046 -219.703423 
L 201.554616 -218.956426 
L 204.448186 -218.206006 
L 207.341756 -217.451291 
L 210.235326 -216.691118 
L 213.128895 -215.924008 
L 216.022465 -215.148138 
L 218.916035 -214.361306 
L 221.809605 -213.560894 
L 224.703175 -212.743828 
L 227.596745 -211.906534 
L 230.490315 -211.044876 
L 233.383884 -210.154091 
L 236.277454 -209.2287 
L 239.171024 -208.262392 
L 242.064594 -207.24786 
L 244.958164 -206.176593 
L 247.851734 -205.038566 
L 250.745303 -203.821814 
L 253.638873 -202.511817 
L 256.532443 -201.090592 
L 259.426013 -199.535321 
L 262.319583 -197.816215 
L 265.213153 -195.893035 
L 268.106723 -193.709125 
L 271.000292 -191.180495 
L 273.893862 -188.17397 
L 276.787432 -184.457899 
L 279.681002 -179.569249 
L 282.574572 -172.306086 
L 285.468142 -145.995078 
L 288.361711 -39.6 
L 291.255281 -39.6 
L 294.148851 -39.6 
L 294.727565 -39.6 
L 294.843308 -39.6 
L 295.045233 -39.6 
L 295.085618 -39.6 
L 295.088774 -39.6 
L 295.104557 -39.6 
L 295.10518 -39.6 
L 295.111408 -39.6 
L 295.111755 -39.6 
L 295.115232 -39.6 
L 295.115447 -39.6 
L 295.117596 -39.6 
L 295.119472 -39.6 
L 295.122536 -39.6 
L 295.122619 -39.6 
L 295.123452 -39.6 
L 295.126254 -39.6 
L 295.129057 -39.6 
L 295.136484 -39.6 
L 295.204877 -39.6 
L 295.238704 -39.6 
L 295.361308 -39.6 
L 295.421678 -39.6 
L 295.578523 -39.6 
L 295.670973 -39.6 
L 295.957238 -39.6 
L 296.243503 -39.6 
L 296.94596 -39.6 
L 298.165868 -39.6 
L 300.709048 -39.6 
L 303.252228 -39.6 
L 306.145797 -39.6 
L 309.039367 -39.6 
L 311.932937 -39.6 
L 314.826507 -39.6 
L 317.720077 -39.6 
L 320.613647 -39.6 
L 323.507217 -39.6 
L 324.379157 -39.6 
L 324.379157 -39.6 
L 324.379157 -39.6 
L 323.507217 -39.6 
L 320.613647 -39.6 
L 317.720077 -39.6 
L 314.826507 -39.6 
L 311.932937 -39.6 
L 309.039367 -39.6 
L 306.145797 -39.6 
L 303.252228 -39.6 
L 300.709048 -39.6 
L 298.165868 -39.6 
L 296.94596 -39.6 
L 296.243503 -39.6 
L 295.957238 -39.6 
L 295.670973 -39.6 
L 295.578523 -39.877919 
L 295.421678 -57.226395 
L 295.361308 -70.561628 
L 295.238704 -97.615456 
L 295.204877 -104.784021 
L 295.136484 -117.418532 
L 295.129057 -118.497058 
L 295.126254 -118.904022 
L 295.123452 -119.310987 
L 295.122619 -119.431873 
L 295.122536 -119.443961 
L 295.119472 -119.823227 
L 295.117596 -120.024063 
L 295.115447 -120.254165 
L 295.115232 -120.277175 
L 295.111755 -120.649357 
L 295.111408 -120.686575 
L 295.10518 -121.353309 
L 295.104557 -121.419983 
L 295.088774 -123.109548 
L 295.085618 -123.447461 
L 295.045233 -126.302546 
L 294.843308 -137.374678 
L 294.727565 -140.936087 
L 294.148851 -152.384195 
L 291.255281 -171.791273 
L 288.361711 -180.19622 
L 285.468142 -185.629968 
L 282.574572 -189.868728 
L 279.681002 -193.462717 
L 276.787432 -196.530318 
L 273.893862 -199.08317 
L 271.000292 -201.268307 
L 268.106723 -203.17681 
L 265.213153 -204.899184 
L 262.319583 -206.498914 
L 259.426013 -207.947704 
L 256.532443 -209.2705 
L 253.638873 -210.486725 
L 250.745303 -211.611919 
L 247.851734 -212.658805 
L 244.958164 -213.638012 
L 242.064594 -214.55858 
L 239.171024 -215.428307 
L 236.277454 -216.254003 
L 233.383884 -217.041665 
L 230.490315 -217.796608 
L 227.596745 -218.523558 
L 224.703175 -219.226723 
L 221.809605 -219.909836 
L 218.916035 -220.576199 
L 216.022465 -221.228711 
L 213.128895 -221.869889 
L 210.235326 -222.501894 
L 207.341756 -223.126551 
L 204.448186 -223.745366 
L 201.554616 -224.359542 
L 198.661046 -224.970001 
L 195.767476 -225.577386 
L 192.873907 -226.182068 
L 189.980337 -226.784131 
L 187.086767 -227.383347 
L 184.193197 -227.978927 
L 181.959498 -228.435972 
L 179.065928 -229.022147 
L 177.178575 -229.401133 
L 174.285005 -229.971728 
L 172.651804 -230.289426 
L 169.758235 -230.833772 
L 168.299908 -231.102292 
L 165.795499 -231.538805 
L 164.523723 -231.753006 
L 162.250076 -232.102164 
L 161.174084 -232.25998 
L 159.216423 -232.508957 
L 158.45318 -232.597638 
L 156.963295 -232.742961 
L 156.352524 -232.793027 
L 155.035201 -232.876461 
L 154.54971 -232.89838 
L 154.12122 -232.913894 
L 153.592495 -232.925656 
L 153.063769 -232.928718 
L 152.479557 -232.925481 
L 151.754584 -232.906483 
L 151.051964 -232.866856 
L 150.22002 -232.79523 
L 149.363219 -232.68706 
L 148.242308 -232.493447 
L 147.121398 -232.223743 
L 145.836321 -231.915803 
L 144.551244 -231.665039 
L 143.340553 -231.334426 
L 141.83492 -230.757076 
L 140.605555 -230.091547 
L 138.969458 -228.801924 
L 137.708444 -227.494776 
L 136.013315 -224.940857 
L 134.809849 -222.687387 
L 133.017691 -217.993908 
L 131.806303 -214.241865 
L 130.161705 -208.009237 
L 128.999309 -203.16563 
L 127.305745 -195.363682 
L 126.161501 -189.868484 
L 124.628508 -182.195068 
L 123.533928 -176.616398 
L 121.82169 -167.759755 
L 120.715161 -161.990049 
L 119.156087 -153.812088 
L 118.083965 -148.166757 
L 116.527951 -139.973694 
L 115.500594 -134.552469 
L 113.94608 -126.346496 
L 112.976494 -121.211542 
L 111.430156 -113.054209 
L 110.535118 -108.579332 
L 108.989434 -100.965036 
L 108.184147 -96.982021 
L 106.679132 -89.586326 
L 105.987003 -86.171481 
L 104.437928 -78.555352 
L 103.860098 -75.708144 
L 102.527765 -69.133849 
L 101.438316 -63.780453 
L 100.070443 -57.013655 
L 99.062175 -52.012433 
L 97.723738 -45.190387 
L 96.608333 -40.241229 
L 95.496719 -39.6 
L 94.638623 -39.6 
L 94.026034 -39.6 
L 93.451957 -39.6 
L 93.15073 -39.6 
L 93.023894 -39.6 
L 92.93838 -39.6 
L 92.89801 -39.6 
L 92.893974 -39.6 
L 92.89357 -39.6 
z
" style="stroke: #40e0d0; stroke-opacity: 0.2"/>
    </defs>
    <g clip-path="url(#pbcdf539b47)">
     <use xlink:href="#md1389372b7" x="0" y="360" style="fill: #40e0d0; fill-opacity: 0.2; stroke: #40e0d0; stroke-opacity: 0.2"/>
    </g>
   </g>
   <g id="PathCollection_1">
    <defs>
     <path id="m5538a3c64f" d="M 0 4.330127 
C 1.148363 4.330127 2.249847 3.873878 3.061862 3.061862 
C 3.873878 2.249847 4.330127 1.148363 4.330127 0 
C 4.330127 -1.148363 3.873878 -2.249847 3.061862 -3.061862 
C 2.249847 -3.873878 1.148363 -4.330127 0 -4.330127 
C -1.148363 -4.330127 -2.249847 -3.873878 -3.061862 -3.061862 
C -3.873878 -2.249847 -4.330127 -1.148363 -4.330127 0 
C -4.330127 1.148363 -3.873878 2.249847 -3.061862 3.061862 
C -2.249847 3.873878 -1.148363 4.330127 0 4.330127 
z
" style="stroke: #40e0d0; stroke-opacity: 0.8"/>
    </defs>
    <g clip-path="url(#pbcdf539b47)">
     <use xlink:href="#m5538a3c64f" x="92.89357" y="320.4" style="fill: #40e0d0; fill-opacity: 0.8; stroke: #40e0d0; stroke-opacity: 0.8"/>
     <use xlink:href="#m5538a3c64f" x="121.829268" y="205.612065" style="fill: #40e0d0; fill-opacity: 0.8; stroke: #40e0d0; stroke-opacity: 0.8"/>
     <use xlink:href="#m5538a3c64f" x="150.764967" y="103.221336" style="fill: #40e0d0; fill-opacity: 0.8; stroke: #40e0d0; stroke-opacity: 0.8"/>
     <use xlink:href="#m5538a3c64f" x="179.700665" y="167.996685" style="fill: #40e0d0; fill-opacity: 0.8; stroke: #40e0d0; stroke-opacity: 0.8"/>
     <use xlink:href="#m5538a3c64f" x="208.636364" y="139.288802" style="fill: #40e0d0; fill-opacity: 0.8; stroke: #40e0d0; stroke-opacity: 0.8"/>
     <use xlink:href="#m5538a3c64f" x="237.572062" y="145.676899" style="fill: #40e0d0; fill-opacity: 0.8; stroke: #40e0d0; stroke-opacity: 0.8"/>
     <use xlink:href="#m5538a3c64f" x="266.507761" y="148.735746" style="fill: #40e0d0; fill-opacity: 0.8; stroke: #40e0d0; stroke-opacity: 0.8"/>
     <use xlink:href="#m5538a3c64f" x="295.443459" y="320.4" style="fill: #40e0d0; fill-opacity: 0.8; stroke: #40e0d0; stroke-opacity: 0.8"/>
    </g>
   </g>
   <g id="line2d_1">
    <path d="M 92.89357 320.4 
L 97.723738 320.4 
L 99.062175 315.759338 
L 106.679132 278.314339 
L 124.628508 189.754468 
L 128.999309 169.036514 
L 131.806303 156.881244 
L 133.017691 152.163934 
L 134.809849 146.014935 
L 136.013315 142.520871 
L 137.708444 138.537223 
L 138.969458 136.239366 
L 140.605555 133.995749 
L 141.83492 132.752708 
L 143.340553 131.627299 
L 144.551244 130.966429 
L 145.836321 130.446116 
L 148.242308 129.839234 
L 151.051964 129.542888 
L 154.12122 129.540439 
L 156.963295 129.729277 
L 162.250076 130.371299 
L 169.758235 131.61695 
L 181.959498 133.948238 
L 204.448186 138.494924 
L 218.916035 141.581273 
L 227.596745 143.590118 
L 236.277454 145.815446 
L 242.064594 147.47544 
L 247.851734 149.327583 
L 253.638873 151.428977 
L 259.426013 153.856215 
L 262.319583 155.224545 
L 265.213153 156.719655 
L 268.106723 158.365502 
L 271.000292 160.193789 
L 273.893862 162.247989 
L 276.787432 164.590323 
L 279.681002 167.314765 
L 282.574572 170.573628 
L 285.468142 174.63938 
L 288.361711 180.078709 
L 291.255281 188.432371 
L 294.148851 208.230606 
L 294.843308 224.552948 
L 295.126254 249.946012 
L 295.421678 318.786094 
L 295.670973 320.4 
L 324.379157 320.4 
L 324.379157 320.4 
" clip-path="url(#pbcdf539b47)" style="fill: none; stroke: #40e0d0; stroke-width: 1.5; stroke-linecap: round"/>
   </g>
  </g>
  <g id="axes_2">
   <g id="patch_7">
    <path d="M 374.727273 320.4 
L 612 320.4 
L 612 43.2 
L 374.727273 43.2 
z
" style="fill: #ffffff"/>
   </g>
   <g id="matplotlib.axis_3">
    <g id="xtick_10">
     <g id="text_21">
      <!-- 0 -->
      <g style="fill: #262626" transform="translate(373.616968 340.20725) scale(0.144 -0.144)">
       <use xlink:href="#ArialMT-30"/>
      </g>
     </g>
    </g>
    <g id="xtick_11">
     <g id="text_22">
      <!-- 1 -->
      <g style="fill: #262626" transform="translate(402.552666 340.20725) scale(0.144 -0.144)">
       <use xlink:href="#ArialMT-31"/>
      </g>
     </g>
    </g>
    <g id="xtick_12">
     <g id="text_23">
      <!-- 2 -->
      <g style="fill: #262626" transform="translate(431.488364 340.20725) scale(0.144 -0.144)">
       <use xlink:href="#ArialMT-32"/>
      </g>
     </g>
    </g>
    <g id="xtick_13">
     <g id="text_24">
      <!-- 3 -->
      <g style="fill: #262626" transform="translate(460.424063 340.20725) scale(0.144 -0.144)">
       <use xlink:href="#ArialMT-33"/>
      </g>
     </g>
    </g>
    <g id="xtick_14">
     <g id="text_25">
      <!-- 4 -->
      <g style="fill: #262626" transform="translate(489.359761 340.20725) scale(0.144 -0.144)">
       <use xlink:href="#ArialMT-34"/>
      </g>
     </g>
    </g>
    <g id="xtick_15">
     <g id="text_26">
      <!-- 5 -->
      <g style="fill: #262626" transform="translate(518.29546 340.20725) scale(0.144 -0.144)">
       <use xlink:href="#ArialMT-35"/>
      </g>
     </g>
    </g>
    <g id="xtick_16">
     <g id="text_27">
      <!-- 6 -->
      <g style="fill: #262626" transform="translate(547.231158 340.20725) scale(0.144 -0.144)">
       <use xlink:href="#ArialMT-36"/>
      </g>
     </g>
    </g>
    <g id="xtick_17">
     <g id="text_28">
      <!-- 7 -->
      <g style="fill: #262626" transform="translate(576.166857 340.20725) scale(0.144 -0.144)">
       <use xlink:href="#ArialMT-37"/>
      </g>
     </g>
    </g>
    <g id="xtick_18">
     <g id="text_29">
      <!-- 8 -->
      <g style="fill: #262626" transform="translate(605.102555 340.20725) scale(0.144 -0.144)">
       <use xlink:href="#ArialMT-38"/>
      </g>
     </g>
    </g>
    <g id="text_30">
     <!-- Time (d) -->
     <g style="fill: #262626" transform="translate(457.993636 361.04625) scale(0.192 -0.192)">
      <use xlink:href="#ArialMT-54"/>
      <use xlink:href="#ArialMT-69" x="57.333984"/>
      <use xlink:href="#ArialMT-6d" x="79.550781"/>
      <use xlink:href="#ArialMT-65" x="162.851562"/>
      <use xlink:href="#ArialMT-20" x="218.466797"/>
      <use xlink:href="#ArialMT-28" x="246.25"/>
      <use xlink:href="#ArialMT-64" x="279.550781"/>
      <use xlink:href="#ArialMT-29" x="335.166016"/>
     </g>
    </g>
   </g>
   <g id="matplotlib.axis_4">
    <g id="ytick_10">
     <g id="text_31">
      <!-- 4.5 -->
      <g style="fill: #262626" transform="translate(345.211273 325.553625) scale(0.144 -0.144)">
       <defs>
        <path id="ArialMT-2e" d="M 581 0 
L 581 641 
L 1222 641 
L 1222 0 
L 581 0 
z
" transform="scale(0.015625)"/>
       </defs>
       <use xlink:href="#ArialMT-34"/>
       <use xlink:href="#ArialMT-2e" x="55.615234"/>
       <use xlink:href="#ArialMT-35" x="83.398438"/>
      </g>
     </g>
    </g>
    <g id="ytick_11">
     <g id="text_32">
      <!-- 5.0 -->
      <g style="fill: #262626" transform="translate(345.211273 282.907471) scale(0.144 -0.144)">
       <use xlink:href="#ArialMT-35"/>
       <use xlink:href="#ArialMT-2e" x="55.615234"/>
       <use xlink:href="#ArialMT-30" x="83.398438"/>
      </g>
     </g>
    </g>
    <g id="ytick_12">
     <g id="text_33">
      <!-- 5.5 -->
      <g style="fill: #262626" transform="translate(345.211273 240.261317) scale(0.144 -0.144)">
       <use xlink:href="#ArialMT-35"/>
       <use xlink:href="#ArialMT-2e" x="55.615234"/>
       <use xlink:href="#ArialMT-35" x="83.398438"/>
      </g>
     </g>
    </g>
    <g id="ytick_13">
     <g id="text_34">
      <!-- 6.0 -->
      <g style="fill: #262626" transform="translate(345.211273 197.615163) scale(0.144 -0.144)">
       <use xlink:href="#ArialMT-36"/>
       <use xlink:href="#ArialMT-2e" x="55.615234"/>
       <use xlink:href="#ArialMT-30" x="83.398438"/>
      </g>
     </g>
    </g>
    <g id="ytick_14">
     <g id="text_35">
      <!-- 6.5 -->
      <g style="fill: #262626" transform="translate(345.211273 154.96901) scale(0.144 -0.144)">
       <use xlink:href="#ArialMT-36"/>
       <use xlink:href="#ArialMT-2e" x="55.615234"/>
       <use xlink:href="#ArialMT-35" x="83.398438"/>
      </g>
     </g>
    </g>
    <g id="ytick_15">
     <g id="text_36">
      <!-- 7.0 -->
      <g style="fill: #262626" transform="translate(345.211273 112.322856) scale(0.144 -0.144)">
       <use xlink:href="#ArialMT-37"/>
       <use xlink:href="#ArialMT-2e" x="55.615234"/>
       <use xlink:href="#ArialMT-30" x="83.398438"/>
      </g>
     </g>
    </g>
    <g id="ytick_16">
     <g id="text_37">
      <!-- 7.5 -->
      <g style="fill: #262626" transform="translate(345.211273 69.676702) scale(0.144 -0.144)">
       <use xlink:href="#ArialMT-37"/>
       <use xlink:href="#ArialMT-2e" x="55.615234"/>
       <use xlink:href="#ArialMT-35" x="83.398438"/>
      </g>
     </g>
    </g>
    <g id="text_38">
     <!-- Log10(CD8TE) -->
     <g style="fill: #262626" transform="translate(337.170273 246.357) rotate(-90) scale(0.192 -0.192)">
      <defs>
       <path id="ArialMT-43" d="M 3763 1606 
L 4369 1453 
Q 4178 706 3683 314 
Q 3188 -78 2472 -78 
Q 1731 -78 1267 223 
Q 803 525 561 1097 
Q 319 1669 319 2325 
Q 319 3041 592 3573 
Q 866 4106 1370 4382 
Q 1875 4659 2481 4659 
Q 3169 4659 3637 4309 
Q 4106 3959 4291 3325 
L 3694 3184 
Q 3534 3684 3231 3912 
Q 2928 4141 2469 4141 
Q 1941 4141 1586 3887 
Q 1231 3634 1087 3207 
Q 944 2781 944 2328 
Q 944 1744 1114 1308 
Q 1284 872 1643 656 
Q 2003 441 2422 441 
Q 2931 441 3284 734 
Q 3638 1028 3763 1606 
z
" transform="scale(0.015625)"/>
       <path id="ArialMT-44" d="M 494 0 
L 494 4581 
L 2072 4581 
Q 2606 4581 2888 4516 
Q 3281 4425 3559 4188 
Q 3922 3881 4101 3404 
Q 4281 2928 4281 2316 
Q 4281 1794 4159 1391 
Q 4038 988 3847 723 
Q 3656 459 3429 307 
Q 3203 156 2883 78 
Q 2563 0 2147 0 
L 494 0 
z
M 1100 541 
L 2078 541 
Q 2531 541 2789 625 
Q 3047 709 3200 863 
Q 3416 1078 3536 1442 
Q 3656 1806 3656 2325 
Q 3656 3044 3420 3430 
Q 3184 3816 2847 3947 
Q 2603 4041 2063 4041 
L 1100 4041 
L 1100 541 
z
" transform="scale(0.015625)"/>
       <path id="ArialMT-45" d="M 506 0 
L 506 4581 
L 3819 4581 
L 3819 4041 
L 1113 4041 
L 1113 2638 
L 3647 2638 
L 3647 2100 
L 1113 2100 
L 1113 541 
L 3925 541 
L 3925 0 
L 506 0 
z
" transform="scale(0.015625)"/>
      </defs>
      <use xlink:href="#ArialMT-4c"/>
      <use xlink:href="#ArialMT-6f" x="55.615234"/>
      <use xlink:href="#ArialMT-67" x="111.230469"/>
      <use xlink:href="#ArialMT-31" x="166.845703"/>
      <use xlink:href="#ArialMT-30" x="222.460938"/>
      <use xlink:href="#ArialMT-28" x="278.076172"/>
      <use xlink:href="#ArialMT-43" x="311.376953"/>
      <use xlink:href="#ArialMT-44" x="383.59375"/>
      <use xlink:href="#ArialMT-38" x="455.810547"/>
      <use xlink:href="#ArialMT-54" x="511.425781"/>
      <use xlink:href="#ArialMT-45" x="572.509766"/>
      <use xlink:href="#ArialMT-29" x="639.208984"/>
     </g>
    </g>
   </g>
   <g id="patch_8">
    <path d="M 374.727273 320.4 
L 374.727273 43.2 
" style="fill: none; stroke: #262626; stroke-width: 1.25; stroke-linejoin: miter; stroke-linecap: square"/>
   </g>
   <g id="patch_9">
    <path d="M 612 320.4 
L 612 43.2 
" style="fill: none; stroke: #262626; stroke-width: 1.25; stroke-linejoin: miter; stroke-linecap: square"/>
   </g>
   <g id="patch_10">
    <path d="M 374.727273 320.4 
L 612 320.4 
" style="fill: none; stroke: #262626; stroke-width: 1.25; stroke-linejoin: miter; stroke-linecap: square"/>
   </g>
   <g id="patch_11">
    <path d="M 374.727273 43.2 
L 612 43.2 
" style="fill: none; stroke: #262626; stroke-width: 1.25; stroke-linejoin: miter; stroke-linecap: square"/>
   </g>
   <g id="PolyCollection_2">
    <defs>
     <path id="m23b0e309ab" d="M 377.620843 -115.441864 
L 377.620843 -115.441864 
L 377.621246 -115.441864 
L 377.625283 -115.441864 
L 377.665652 -115.441864 
L 377.751166 -115.441864 
L 377.878003 -115.441864 
L 378.179229 -115.441864 
L 378.753307 -115.441864 
L 379.365896 -115.441864 
L 380.223992 -115.441864 
L 381.335606 -115.441864 
L 382.451011 -115.441864 
L 383.789447 -115.441864 
L 384.797715 -115.441864 
L 386.165589 -115.441864 
L 387.255038 -115.441864 
L 388.587371 -115.441864 
L 389.165201 -115.441864 
L 390.714275 -115.441864 
L 391.406405 -115.441864 
L 392.911419 -115.441864 
L 393.716706 -115.441864 
L 395.262391 -115.441864 
L 396.157429 -115.441864 
L 397.703766 -115.441864 
L 398.673352 -115.441864 
L 400.227867 -115.441864 
L 401.255224 -115.441864 
L 402.811238 -115.441864 
L 403.88336 -115.441864 
L 405.442434 -115.441864 
L 406.548962 -115.441864 
L 408.261201 -115.441864 
L 409.355781 -115.441864 
L 410.888774 -115.441864 
L 412.033018 -115.441864 
L 413.726581 -115.441864 
L 414.888978 -115.441864 
L 416.533575 -115.441864 
L 417.744964 -115.441864 
L 419.537122 -115.441864 
L 420.740588 -115.441864 
L 422.435717 -115.441865 
L 423.696731 -115.441865 
L 425.332828 -115.441866 
L 426.562192 -115.441867 
L 428.067826 -115.44187 
L 429.278517 -115.441872 
L 430.563594 -115.441877 
L 431.848671 -115.441883 
L 432.969581 -115.441891 
L 434.090492 -115.441903 
L 434.947293 -115.441914 
L 435.779237 -115.441929 
L 436.481857 -115.441944 
L 437.20683 -115.441963 
L 437.791042 -115.441983 
L 438.319767 -115.442003 
L 438.848493 -115.442027 
L 439.276982 -115.442049 
L 439.762474 -115.442077 
L 441.079797 -115.442183 
L 441.690568 -115.442243 
L 443.180453 -115.442449 
L 443.943696 -115.442588 
L 445.901357 -115.443124 
L 446.977349 -115.443536 
L 449.250996 -115.4449 
L 450.522772 -115.446096 
L 453.027181 -115.449836 
L 454.485507 -115.453341 
L 457.379077 -115.463814 
L 459.012278 -115.473772 
L 461.905848 -115.498814 
L 463.793201 -115.525321 
L 466.686771 -115.582493 
L 468.92047 -115.650947 
L 471.81404 -115.776358 
L 474.707609 -115.960191 
L 477.601179 -116.2213 
L 480.494749 -116.58122 
L 483.388319 -117.063321 
L 486.281889 -117.69152 
L 489.175459 -118.488598 
L 492.069028 -119.474253 
L 494.962598 -120.663133 
L 497.856168 -122.063112 
L 500.749738 -123.674113 
L 503.643308 -125.487669 
L 506.536878 -127.487306 
L 509.430448 -129.649671 
L 512.324017 -131.946207 
L 515.217587 -134.345089 
L 518.111157 -136.813165 
L 521.004727 -139.317665 
L 523.898297 -141.82756 
L 526.791867 -144.314519 
L 529.685436 -146.753484 
L 532.579006 -149.122914 
L 535.472576 -151.404784 
L 538.366146 -153.584416 
L 541.259716 -155.6502 
L 544.153286 -157.59326 
L 547.046856 -159.407107 
L 549.940425 -161.087299 
L 552.833995 -162.631124 
L 555.727565 -164.037318 
L 558.621135 -165.30581 
L 561.514705 -166.437511 
L 564.408275 -167.434128 
L 567.301844 -168.298009 
L 570.195414 -169.032013 
L 573.088984 -169.639407 
L 575.982554 -170.136502 
L 578.876124 -170.497174 
L 579.454838 -170.553843 
L 579.570581 -170.565177 
L 579.772506 -170.58495 
L 579.812891 -170.588905 
L 579.816047 -170.589214 
L 579.831829 -170.590759 
L 579.832452 -170.59082 
L 579.83868 -170.59143 
L 579.839028 -170.591464 
L 579.842504 -170.591805 
L 579.842719 -170.591826 
L 579.844869 -170.592036 
L 579.846745 -170.59222 
L 579.849809 -170.59252 
L 579.849892 -170.592528 
L 579.850725 -170.592609 
L 579.853527 -170.592884 
L 579.856329 -170.593158 
L 579.863756 -170.593886 
L 579.93215 -170.600583 
L 579.965977 -170.603895 
L 580.088581 -170.615901 
L 580.148951 -170.621812 
L 580.305796 -170.637171 
L 580.398246 -170.646224 
L 580.684511 -170.665906 
L 580.970775 -170.684866 
L 581.673233 -170.73139 
L 582.893141 -170.812186 
L 585.436321 -170.898386 
L 587.9795 -170.90506 
L 590.87307 -170.820211 
L 593.76664 -170.637963 
L 596.66021 -170.362725 
L 599.55378 -169.998923 
L 602.44735 -169.550982 
L 605.340919 -169.023319 
L 608.234489 -168.421478 
L 609.10643 -168.232488 
L 609.10643 -188.894767 
L 609.10643 -188.894767 
L 608.234489 -189.080951 
L 605.340919 -189.655801 
L 602.44735 -190.147197 
L 599.55378 -190.546004 
L 596.66021 -190.847812 
L 593.76664 -191.048144 
L 590.87307 -191.142456 
L 587.9795 -191.126139 
L 585.436321 -191.016455 
L 582.893141 -190.816866 
L 581.673233 -190.689784 
L 580.970775 -190.613387 
L 580.684511 -190.571733 
L 580.398246 -190.530079 
L 580.305796 -190.516627 
L 580.148951 -190.493805 
L 580.088581 -190.485021 
L 579.965977 -190.467181 
L 579.93215 -190.462259 
L 579.863756 -190.452307 
L 579.856329 -190.451227 
L 579.853527 -190.450819 
L 579.850725 -190.450411 
L 579.849892 -190.45029 
L 579.849809 -190.450278 
L 579.846745 -190.449832 
L 579.844869 -190.449559 
L 579.842719 -190.449246 
L 579.842504 -190.449215 
L 579.839028 -190.448709 
L 579.83868 -190.448659 
L 579.832452 -190.447752 
L 579.831829 -190.447662 
L 579.816047 -190.445365 
L 579.812891 -190.444906 
L 579.772506 -190.43903 
L 579.570581 -190.409648 
L 579.454838 -190.392807 
L 578.876124 -190.3086 
L 575.982554 -189.791745 
L 573.088984 -189.115156 
L 570.195414 -188.314993 
L 567.301844 -187.370389 
L 564.408275 -186.276808 
L 561.514705 -185.029905 
L 558.621135 -183.625618 
L 555.727565 -182.060269 
L 552.833995 -180.531363 
L 549.940425 -179.119547 
L 547.046856 -177.534983 
L 544.153286 -175.774916 
L 541.259716 -173.83755 
L 538.366146 -171.722329 
L 535.472576 -169.430271 
L 532.579006 -166.964387 
L 529.685436 -164.330162 
L 526.791867 -161.536132 
L 523.898297 -158.594514 
L 521.004727 -155.521895 
L 518.111157 -152.339926 
L 515.217587 -149.075926 
L 512.324017 -145.763299 
L 509.430448 -142.441585 
L 506.536878 -139.15595 
L 503.643308 -135.95592 
L 500.749738 -132.893206 
L 497.856168 -130.040409 
L 494.962598 -127.551592 
L 492.069028 -125.287497 
L 489.175459 -123.276315 
L 486.281889 -121.534726 
L 483.388319 -120.066664 
L 480.494749 -118.863562 
L 477.601179 -117.906055 
L 474.707609 -117.166752 
L 471.81404 -116.613539 
L 468.92047 -116.212815 
L 466.686771 -115.979226 
L 463.793201 -115.779404 
L 461.905848 -115.682163 
L 459.012278 -115.582196 
L 457.379077 -115.543446 
L 454.485507 -115.496731 
L 453.027181 -115.481905 
L 450.522772 -115.463287 
L 449.250996 -115.457996 
L 446.977349 -115.450451 
L 445.901357 -115.448537 
L 443.943696 -115.445603 
L 443.180453 -115.444885 
L 441.690568 -115.443816 
L 441.079797 -115.443461 
L 439.762474 -115.442953 
L 439.276982 -115.4428 
L 438.848493 -115.442666 
L 438.319767 -115.442537 
L 437.791042 -115.442435 
L 437.20683 -115.442342 
L 436.481857 -115.442234 
L 435.779237 -115.44216 
L 434.947293 -115.442086 
L 434.090492 -115.44203 
L 432.969581 -115.441977 
L 431.848671 -115.441941 
L 430.563594 -115.441913 
L 429.278517 -115.441895 
L 428.067826 -115.441884 
L 426.562192 -115.441876 
L 425.332828 -115.441871 
L 423.696731 -115.441868 
L 422.435717 -115.441867 
L 420.740588 -115.441865 
L 419.537122 -115.441865 
L 417.744964 -115.441864 
L 416.533575 -115.441864 
L 414.888978 -115.441864 
L 413.726581 -115.441864 
L 412.033018 -115.441864 
L 410.888774 -115.441864 
L 409.355781 -115.441864 
L 408.261201 -115.441864 
L 406.548962 -115.441864 
L 405.442434 -115.441864 
L 403.88336 -115.441864 
L 402.811238 -115.441864 
L 401.255224 -115.441864 
L 400.227867 -115.441864 
L 398.673352 -115.441864 
L 397.703766 -115.441864 
L 396.157429 -115.441864 
L 395.262391 -115.441864 
L 393.716706 -115.441864 
L 392.911419 -115.441864 
L 391.406405 -115.441864 
L 390.714275 -115.441864 
L 389.165201 -115.441864 
L 388.587371 -115.441864 
L 387.255038 -115.441864 
L 386.165589 -115.441864 
L 384.797715 -115.441864 
L 383.789447 -115.441864 
L 382.451011 -115.441864 
L 381.335606 -115.441864 
L 380.223992 -115.441864 
L 379.365896 -115.441864 
L 378.753307 -115.441864 
L 378.179229 -115.441864 
L 377.878003 -115.441864 
L 377.751166 -115.441864 
L 377.665652 -115.441864 
L 377.625283 -115.441864 
L 377.621246 -115.441864 
L 377.620843 -115.441864 
z
" style="stroke: #40e0d0; stroke-opacity: 0.2"/>
    </defs>
    <g clip-path="url(#p463d5599fc)">
     <use xlink:href="#m23b0e309ab" x="0" y="360" style="fill: #40e0d0; fill-opacity: 0.2; stroke: #40e0d0; stroke-opacity: 0.2"/>
    </g>
   </g>
   <g id="PathCollection_2">
    <g clip-path="url(#p463d5599fc)">
     <use xlink:href="#m5538a3c64f" x="348.685144" y="216.26894" style="fill: #40e0d0; fill-opacity: 0.8; stroke: #40e0d0; stroke-opacity: 0.8"/>
     <use xlink:href="#m5538a3c64f" x="377.620843" y="244.558136" style="fill: #40e0d0; fill-opacity: 0.8; stroke: #40e0d0; stroke-opacity: 0.8"/>
     <use xlink:href="#m5538a3c64f" x="406.556541" y="233.61985" style="fill: #40e0d0; fill-opacity: 0.8; stroke: #40e0d0; stroke-opacity: 0.8"/>
     <use xlink:href="#m5538a3c64f" x="435.492239" y="239.866476" style="fill: #40e0d0; fill-opacity: 0.8; stroke: #40e0d0; stroke-opacity: 0.8"/>
     <use xlink:href="#m5538a3c64f" x="464.427938" y="269.192863" style="fill: #40e0d0; fill-opacity: 0.8; stroke: #40e0d0; stroke-opacity: 0.8"/>
     <use xlink:href="#m5538a3c64f" x="493.363636" y="220.536999" style="fill: #40e0d0; fill-opacity: 0.8; stroke: #40e0d0; stroke-opacity: 0.8"/>
     <use xlink:href="#m5538a3c64f" x="522.299335" y="209.011156" style="fill: #40e0d0; fill-opacity: 0.8; stroke: #40e0d0; stroke-opacity: 0.8"/>
     <use xlink:href="#m5538a3c64f" x="551.235033" y="188.415134" style="fill: #40e0d0; fill-opacity: 0.8; stroke: #40e0d0; stroke-opacity: 0.8"/>
     <use xlink:href="#m5538a3c64f" x="580.170732" y="186.121103" style="fill: #40e0d0; fill-opacity: 0.8; stroke: #40e0d0; stroke-opacity: 0.8"/>
    </g>
   </g>
   <g id="line2d_2">
    <path d="M 377.620843 244.558136 
L 459.012278 244.471173 
L 466.686771 244.192437 
L 471.81404 243.734848 
L 474.707609 243.315403 
L 477.601179 242.739864 
L 480.494749 241.975093 
L 483.388319 240.989896 
L 486.281889 239.758266 
L 489.175459 238.262592 
L 492.069028 236.496272 
L 494.962598 234.465184 
L 497.856168 232.187695 
L 500.749738 229.69322 
L 506.536878 224.210157 
L 523.898297 206.881256 
L 529.685436 201.718747 
L 532.579006 199.34733 
L 535.472576 197.12962 
L 538.366146 195.072047 
L 541.259716 193.178523 
L 544.153286 191.4509 
L 547.046856 189.88936 
L 549.940425 188.492754 
L 552.833995 187.258875 
L 555.727565 186.184689 
L 558.621135 185.266522 
L 561.514705 184.50021 
L 564.408275 183.88122 
L 567.301844 183.404746 
L 570.195414 183.065786 
L 573.088984 182.859205 
L 575.982554 182.779776 
L 580.970775 182.926182 
L 585.436321 183.342353 
L 590.87307 184.183049 
L 596.66021 185.444249 
L 602.44735 187.042606 
L 609.10643 189.245927 
L 609.10643 189.245927 
" clip-path="url(#p463d5599fc)" style="fill: none; stroke: #40e0d0; stroke-width: 1.5; stroke-linecap: round"/>
   </g>
  </g>
  <g id="legend_1">
   <g id="patch_12">
    <path d="M 769.44 42.519 
L 862.911 42.519 
Q 866.751 42.519 866.751 38.679 
L 866.751 13.44 
Q 866.751 9.6 862.911 9.6 
L 769.44 9.6 
Q 765.6 9.6 765.6 13.44 
L 765.6 38.679 
Q 765.6 42.519 769.44 42.519 
z
" style="fill: #ffffff; opacity: 0.8; stroke: #cccccc; stroke-linejoin: miter"/>
   </g>
   <g id="PathCollection_3">
    <g>
     <use xlink:href="#m5538a3c64f" x="792.48" y="25.983" style="fill: #40e0d0; fill-opacity: 0.8; stroke: #40e0d0; stroke-opacity: 0.8"/>
    </g>
   </g>
   <g id="text_39">
    <!-- 308 -->
    <g style="fill: #262626" transform="translate(827.04 31.023) scale(0.192 -0.192)">
     <use xlink:href="#ArialMT-33"/>
     <use xlink:href="#ArialMT-30" x="55.615234"/>
     <use xlink:href="#ArialMT-38" x="111.230469"/>
    </g>
   </g>
  </g>
 </g>
 <defs>
  <clipPath id="pbcdf539b47">
   <rect x="90" y="43.2" width="237.272727" height="277.2"/>
  </clipPath>
  <clipPath id="p463d5599fc">
   <rect x="374.727273" y="43.2" width="237.272727" height="277.2"/>
  </clipPath>
 </defs>
</svg>
