<?xml version="1.0" encoding="utf-8" standalone="no"?>
<!DOCTYPE svg PUBLIC "-//W3C//DTD SVG 1.1//EN"
  "http://www.w3.org/Graphics/SVG/1.1/DTD/svg11.dtd">
<svg xmlns:xlink="http://www.w3.org/1999/xlink" width="720pt" height="360pt" viewBox="0 0 720 360" xmlns="http://www.w3.org/2000/svg" version="1.1">
 <metadata>
  <rdf:RDF xmlns:dc="http://purl.org/dc/elements/1.1/" xmlns:cc="http://creativecommons.org/ns#" xmlns:rdf="http://www.w3.org/1999/02/22-rdf-syntax-ns#">
   <cc:Work>
    <dc:type rdf:resource="http://purl.org/dc/dcmitype/StillImage"/>
    <dc:date>2024-11-13T21:39:17.455784</dc:date>
    <dc:format>image/svg+xml</dc:format>
    <dc:creator>
     <cc:Agent>
      <dc:title>Matplotlib v3.9.2, https://matplotlib.org/</dc:title>
     </cc:Agent>
    </dc:creator>
   </cc:Work>
  </rdf:RDF>
 </metadata>
 <defs>
  <style type="text/css">*{stroke-linejoin: round; stroke-linecap: butt}</style>
 </defs>
 <g id="figure_1">
  <g id="patch_1">
   <path d="M 0 360 
L 720 360 
L 720 0 
L 0 0 
z
" style="fill: #ffffff"/>
  </g>
  <g id="axes_1">
   <g id="patch_2">
    <path d="M 90 320.4 
L 327.272727 320.4 
L 327.272727 43.2 
L 90 43.2 
z
" style="fill: #ffffff"/>
   </g>
   <g id="matplotlib.axis_1">
    <g id="xtick_1">
     <g id="line2d_1">
      <defs>
       <path id="m5442c6de0e" d="M 0 0 
L 0 3.5 
" style="stroke: #000000; stroke-width: 0.8"/>
      </defs>
      <g>
       <use xlink:href="#m5442c6de0e" x="92.326203" y="320.4" style="stroke: #000000; stroke-width: 0.8"/>
      </g>
     </g>
     <g id="text_1">
      <!-- 0 -->
      <g transform="translate(87.745203 338.34175) scale(0.144 -0.144)">
       <defs>
        <path id="DejaVuSans-30" d="M 2034 4250 
Q 1547 4250 1301 3770 
Q 1056 3291 1056 2328 
Q 1056 1369 1301 889 
Q 1547 409 2034 409 
Q 2525 409 2770 889 
Q 3016 1369 3016 2328 
Q 3016 3291 2770 3770 
Q 2525 4250 2034 4250 
z
M 2034 4750 
Q 2819 4750 3233 4129 
Q 3647 3509 3647 2328 
Q 3647 1150 3233 529 
Q 2819 -91 2034 -91 
Q 1250 -91 836 529 
Q 422 1150 422 2328 
Q 422 3509 836 4129 
Q 1250 4750 2034 4750 
z
" transform="scale(0.015625)"/>
       </defs>
       <use xlink:href="#DejaVuSans-30"/>
      </g>
     </g>
    </g>
    <g id="xtick_2">
     <g id="line2d_2">
      <g>
       <use xlink:href="#m5442c6de0e" x="115.588235" y="320.4" style="stroke: #000000; stroke-width: 0.8"/>
      </g>
     </g>
     <g id="text_2">
      <!-- 1 -->
      <g transform="translate(111.007235 338.34175) scale(0.144 -0.144)">
       <defs>
        <path id="DejaVuSans-31" d="M 794 531 
L 1825 531 
L 1825 4091 
L 703 3866 
L 703 4441 
L 1819 4666 
L 2450 4666 
L 2450 531 
L 3481 531 
L 3481 0 
L 794 0 
L 794 531 
z
" transform="scale(0.015625)"/>
       </defs>
       <use xlink:href="#DejaVuSans-31"/>
      </g>
     </g>
    </g>
    <g id="xtick_3">
     <g id="line2d_3">
      <g>
       <use xlink:href="#m5442c6de0e" x="138.850267" y="320.4" style="stroke: #000000; stroke-width: 0.8"/>
      </g>
     </g>
     <g id="text_3">
      <!-- 2 -->
      <g transform="translate(134.269267 338.34175) scale(0.144 -0.144)">
       <defs>
        <path id="DejaVuSans-32" d="M 1228 531 
L 3431 531 
L 3431 0 
L 469 0 
L 469 531 
Q 828 903 1448 1529 
Q 2069 2156 2228 2338 
Q 2531 2678 2651 2914 
Q 2772 3150 2772 3378 
Q 2772 3750 2511 3984 
Q 2250 4219 1831 4219 
Q 1534 4219 1204 4116 
Q 875 4013 500 3803 
L 500 4441 
Q 881 4594 1212 4672 
Q 1544 4750 1819 4750 
Q 2544 4750 2975 4387 
Q 3406 4025 3406 3419 
Q 3406 3131 3298 2873 
Q 3191 2616 2906 2266 
Q 2828 2175 2409 1742 
Q 1991 1309 1228 531 
z
" transform="scale(0.015625)"/>
       </defs>
       <use xlink:href="#DejaVuSans-32"/>
      </g>
     </g>
    </g>
    <g id="xtick_4">
     <g id="line2d_4">
      <g>
       <use xlink:href="#m5442c6de0e" x="162.112299" y="320.4" style="stroke: #000000; stroke-width: 0.8"/>
      </g>
     </g>
     <g id="text_4">
      <!-- 3 -->
      <g transform="translate(157.531299 338.34175) scale(0.144 -0.144)">
       <defs>
        <path id="DejaVuSans-33" d="M 2597 2516 
Q 3050 2419 3304 2112 
Q 3559 1806 3559 1356 
Q 3559 666 3084 287 
Q 2609 -91 1734 -91 
Q 1441 -91 1130 -33 
Q 819 25 488 141 
L 488 750 
Q 750 597 1062 519 
Q 1375 441 1716 441 
Q 2309 441 2620 675 
Q 2931 909 2931 1356 
Q 2931 1769 2642 2001 
Q 2353 2234 1838 2234 
L 1294 2234 
L 1294 2753 
L 1863 2753 
Q 2328 2753 2575 2939 
Q 2822 3125 2822 3475 
Q 2822 3834 2567 4026 
Q 2313 4219 1838 4219 
Q 1578 4219 1281 4162 
Q 984 4106 628 3988 
L 628 4550 
Q 988 4650 1302 4700 
Q 1616 4750 1894 4750 
Q 2613 4750 3031 4423 
Q 3450 4097 3450 3541 
Q 3450 3153 3228 2886 
Q 3006 2619 2597 2516 
z
" transform="scale(0.015625)"/>
       </defs>
       <use xlink:href="#DejaVuSans-33"/>
      </g>
     </g>
    </g>
    <g id="xtick_5">
     <g id="line2d_5">
      <g>
       <use xlink:href="#m5442c6de0e" x="185.374332" y="320.4" style="stroke: #000000; stroke-width: 0.8"/>
      </g>
     </g>
     <g id="text_5">
      <!-- 4 -->
      <g transform="translate(180.793332 338.34175) scale(0.144 -0.144)">
       <defs>
        <path id="DejaVuSans-34" d="M 2419 4116 
L 825 1625 
L 2419 1625 
L 2419 4116 
z
M 2253 4666 
L 3047 4666 
L 3047 1625 
L 3713 1625 
L 3713 1100 
L 3047 1100 
L 3047 0 
L 2419 0 
L 2419 1100 
L 313 1100 
L 313 1709 
L 2253 4666 
z
" transform="scale(0.015625)"/>
       </defs>
       <use xlink:href="#DejaVuSans-34"/>
      </g>
     </g>
    </g>
    <g id="xtick_6">
     <g id="line2d_6">
      <g>
       <use xlink:href="#m5442c6de0e" x="208.636364" y="320.4" style="stroke: #000000; stroke-width: 0.8"/>
      </g>
     </g>
     <g id="text_6">
      <!-- 5 -->
      <g transform="translate(204.055364 338.34175) scale(0.144 -0.144)">
       <defs>
        <path id="DejaVuSans-35" d="M 691 4666 
L 3169 4666 
L 3169 4134 
L 1269 4134 
L 1269 2991 
Q 1406 3038 1543 3061 
Q 1681 3084 1819 3084 
Q 2600 3084 3056 2656 
Q 3513 2228 3513 1497 
Q 3513 744 3044 326 
Q 2575 -91 1722 -91 
Q 1428 -91 1123 -41 
Q 819 9 494 109 
L 494 744 
Q 775 591 1075 516 
Q 1375 441 1709 441 
Q 2250 441 2565 725 
Q 2881 1009 2881 1497 
Q 2881 1984 2565 2268 
Q 2250 2553 1709 2553 
Q 1456 2553 1204 2497 
Q 953 2441 691 2322 
L 691 4666 
z
" transform="scale(0.015625)"/>
       </defs>
       <use xlink:href="#DejaVuSans-35"/>
      </g>
     </g>
    </g>
    <g id="xtick_7">
     <g id="line2d_7">
      <g>
       <use xlink:href="#m5442c6de0e" x="231.898396" y="320.4" style="stroke: #000000; stroke-width: 0.8"/>
      </g>
     </g>
     <g id="text_7">
      <!-- 6 -->
      <g transform="translate(227.317396 338.34175) scale(0.144 -0.144)">
       <defs>
        <path id="DejaVuSans-36" d="M 2113 2584 
Q 1688 2584 1439 2293 
Q 1191 2003 1191 1497 
Q 1191 994 1439 701 
Q 1688 409 2113 409 
Q 2538 409 2786 701 
Q 3034 994 3034 1497 
Q 3034 2003 2786 2293 
Q 2538 2584 2113 2584 
z
M 3366 4563 
L 3366 3988 
Q 3128 4100 2886 4159 
Q 2644 4219 2406 4219 
Q 1781 4219 1451 3797 
Q 1122 3375 1075 2522 
Q 1259 2794 1537 2939 
Q 1816 3084 2150 3084 
Q 2853 3084 3261 2657 
Q 3669 2231 3669 1497 
Q 3669 778 3244 343 
Q 2819 -91 2113 -91 
Q 1303 -91 875 529 
Q 447 1150 447 2328 
Q 447 3434 972 4092 
Q 1497 4750 2381 4750 
Q 2619 4750 2861 4703 
Q 3103 4656 3366 4563 
z
" transform="scale(0.015625)"/>
       </defs>
       <use xlink:href="#DejaVuSans-36"/>
      </g>
     </g>
    </g>
    <g id="xtick_8">
     <g id="line2d_8">
      <g>
       <use xlink:href="#m5442c6de0e" x="255.160428" y="320.4" style="stroke: #000000; stroke-width: 0.8"/>
      </g>
     </g>
     <g id="text_8">
      <!-- 7 -->
      <g transform="translate(250.579428 338.34175) scale(0.144 -0.144)">
       <defs>
        <path id="DejaVuSans-37" d="M 525 4666 
L 3525 4666 
L 3525 4397 
L 1831 0 
L 1172 0 
L 2766 4134 
L 525 4134 
L 525 4666 
z
" transform="scale(0.015625)"/>
       </defs>
       <use xlink:href="#DejaVuSans-37"/>
      </g>
     </g>
    </g>
    <g id="xtick_9">
     <g id="line2d_9">
      <g>
       <use xlink:href="#m5442c6de0e" x="278.42246" y="320.4" style="stroke: #000000; stroke-width: 0.8"/>
      </g>
     </g>
     <g id="text_9">
      <!-- 8 -->
      <g transform="translate(273.84146 338.34175) scale(0.144 -0.144)">
       <defs>
        <path id="DejaVuSans-38" d="M 2034 2216 
Q 1584 2216 1326 1975 
Q 1069 1734 1069 1313 
Q 1069 891 1326 650 
Q 1584 409 2034 409 
Q 2484 409 2743 651 
Q 3003 894 3003 1313 
Q 3003 1734 2745 1975 
Q 2488 2216 2034 2216 
z
M 1403 2484 
Q 997 2584 770 2862 
Q 544 3141 544 3541 
Q 544 4100 942 4425 
Q 1341 4750 2034 4750 
Q 2731 4750 3128 4425 
Q 3525 4100 3525 3541 
Q 3525 3141 3298 2862 
Q 3072 2584 2669 2484 
Q 3125 2378 3379 2068 
Q 3634 1759 3634 1313 
Q 3634 634 3220 271 
Q 2806 -91 2034 -91 
Q 1263 -91 848 271 
Q 434 634 434 1313 
Q 434 1759 690 2068 
Q 947 2378 1403 2484 
z
M 1172 3481 
Q 1172 3119 1398 2916 
Q 1625 2713 2034 2713 
Q 2441 2713 2670 2916 
Q 2900 3119 2900 3481 
Q 2900 3844 2670 4047 
Q 2441 4250 2034 4250 
Q 1625 4250 1398 4047 
Q 1172 3844 1172 3481 
z
" transform="scale(0.015625)"/>
       </defs>
       <use xlink:href="#DejaVuSans-38"/>
      </g>
     </g>
    </g>
    <g id="xtick_10">
     <g id="line2d_10">
      <g>
       <use xlink:href="#m5442c6de0e" x="301.684492" y="320.4" style="stroke: #000000; stroke-width: 0.8"/>
      </g>
     </g>
     <g id="text_10">
      <!-- 9 -->
      <g transform="translate(297.103492 338.34175) scale(0.144 -0.144)">
       <defs>
        <path id="DejaVuSans-39" d="M 703 97 
L 703 672 
Q 941 559 1184 500 
Q 1428 441 1663 441 
Q 2288 441 2617 861 
Q 2947 1281 2994 2138 
Q 2813 1869 2534 1725 
Q 2256 1581 1919 1581 
Q 1219 1581 811 2004 
Q 403 2428 403 3163 
Q 403 3881 828 4315 
Q 1253 4750 1959 4750 
Q 2769 4750 3195 4129 
Q 3622 3509 3622 2328 
Q 3622 1225 3098 567 
Q 2575 -91 1691 -91 
Q 1453 -91 1209 -44 
Q 966 3 703 97 
z
M 1959 2075 
Q 2384 2075 2632 2365 
Q 2881 2656 2881 3163 
Q 2881 3666 2632 3958 
Q 2384 4250 1959 4250 
Q 1534 4250 1286 3958 
Q 1038 3666 1038 3163 
Q 1038 2656 1286 2365 
Q 1534 2075 1959 2075 
z
" transform="scale(0.015625)"/>
       </defs>
       <use xlink:href="#DejaVuSans-39"/>
      </g>
     </g>
    </g>
    <g id="xtick_11">
     <g id="line2d_11">
      <g>
       <use xlink:href="#m5442c6de0e" x="324.946524" y="320.4" style="stroke: #000000; stroke-width: 0.8"/>
      </g>
     </g>
     <g id="text_11">
      <!-- 10 -->
      <g transform="translate(315.784524 338.34175) scale(0.144 -0.144)">
       <use xlink:href="#DejaVuSans-31"/>
       <use xlink:href="#DejaVuSans-30" x="63.623047"/>
      </g>
     </g>
    </g>
    <g id="text_12">
     <!-- Time (d) -->
     <g transform="translate(168.511364 359.9255) scale(0.192 -0.192)">
      <defs>
       <path id="DejaVuSans-54" d="M -19 4666 
L 3928 4666 
L 3928 4134 
L 2272 4134 
L 2272 0 
L 1638 0 
L 1638 4134 
L -19 4134 
L -19 4666 
z
" transform="scale(0.015625)"/>
       <path id="DejaVuSans-69" d="M 603 3500 
L 1178 3500 
L 1178 0 
L 603 0 
L 603 3500 
z
M 603 4863 
L 1178 4863 
L 1178 4134 
L 603 4134 
L 603 4863 
z
" transform="scale(0.015625)"/>
       <path id="DejaVuSans-6d" d="M 3328 2828 
Q 3544 3216 3844 3400 
Q 4144 3584 4550 3584 
Q 5097 3584 5394 3201 
Q 5691 2819 5691 2113 
L 5691 0 
L 5113 0 
L 5113 2094 
Q 5113 2597 4934 2840 
Q 4756 3084 4391 3084 
Q 3944 3084 3684 2787 
Q 3425 2491 3425 1978 
L 3425 0 
L 2847 0 
L 2847 2094 
Q 2847 2600 2669 2842 
Q 2491 3084 2119 3084 
Q 1678 3084 1418 2786 
Q 1159 2488 1159 1978 
L 1159 0 
L 581 0 
L 581 3500 
L 1159 3500 
L 1159 2956 
Q 1356 3278 1631 3431 
Q 1906 3584 2284 3584 
Q 2666 3584 2933 3390 
Q 3200 3197 3328 2828 
z
" transform="scale(0.015625)"/>
       <path id="DejaVuSans-65" d="M 3597 1894 
L 3597 1613 
L 953 1613 
Q 991 1019 1311 708 
Q 1631 397 2203 397 
Q 2534 397 2845 478 
Q 3156 559 3463 722 
L 3463 178 
Q 3153 47 2828 -22 
Q 2503 -91 2169 -91 
Q 1331 -91 842 396 
Q 353 884 353 1716 
Q 353 2575 817 3079 
Q 1281 3584 2069 3584 
Q 2775 3584 3186 3129 
Q 3597 2675 3597 1894 
z
M 3022 2063 
Q 3016 2534 2758 2815 
Q 2500 3097 2075 3097 
Q 1594 3097 1305 2825 
Q 1016 2553 972 2059 
L 3022 2063 
z
" transform="scale(0.015625)"/>
       <path id="DejaVuSans-20" transform="scale(0.015625)"/>
       <path id="DejaVuSans-28" d="M 1984 4856 
Q 1566 4138 1362 3434 
Q 1159 2731 1159 2009 
Q 1159 1288 1364 580 
Q 1569 -128 1984 -844 
L 1484 -844 
Q 1016 -109 783 600 
Q 550 1309 550 2009 
Q 550 2706 781 3412 
Q 1013 4119 1484 4856 
L 1984 4856 
z
" transform="scale(0.015625)"/>
       <path id="DejaVuSans-64" d="M 2906 2969 
L 2906 4863 
L 3481 4863 
L 3481 0 
L 2906 0 
L 2906 525 
Q 2725 213 2448 61 
Q 2172 -91 1784 -91 
Q 1150 -91 751 415 
Q 353 922 353 1747 
Q 353 2572 751 3078 
Q 1150 3584 1784 3584 
Q 2172 3584 2448 3432 
Q 2725 3281 2906 2969 
z
M 947 1747 
Q 947 1113 1208 752 
Q 1469 391 1925 391 
Q 2381 391 2643 752 
Q 2906 1113 2906 1747 
Q 2906 2381 2643 2742 
Q 2381 3103 1925 3103 
Q 1469 3103 1208 2742 
Q 947 2381 947 1747 
z
" transform="scale(0.015625)"/>
       <path id="DejaVuSans-29" d="M 513 4856 
L 1013 4856 
Q 1481 4119 1714 3412 
Q 1947 2706 1947 2009 
Q 1947 1309 1714 600 
Q 1481 -109 1013 -844 
L 513 -844 
Q 928 -128 1133 580 
Q 1338 1288 1338 2009 
Q 1338 2731 1133 3434 
Q 928 4138 513 4856 
z
" transform="scale(0.015625)"/>
      </defs>
      <use xlink:href="#DejaVuSans-54"/>
      <use xlink:href="#DejaVuSans-69" x="57.958984"/>
      <use xlink:href="#DejaVuSans-6d" x="85.742188"/>
      <use xlink:href="#DejaVuSans-65" x="183.154297"/>
      <use xlink:href="#DejaVuSans-20" x="244.677734"/>
      <use xlink:href="#DejaVuSans-28" x="276.464844"/>
      <use xlink:href="#DejaVuSans-64" x="315.478516"/>
      <use xlink:href="#DejaVuSans-29" x="378.955078"/>
     </g>
    </g>
   </g>
   <g id="matplotlib.axis_2">
    <g id="ytick_1">
     <g id="line2d_12">
      <defs>
       <path id="me80104ae3c" d="M 0 0 
L -3.5 0 
" style="stroke: #000000; stroke-width: 0.8"/>
      </defs>
      <g>
       <use xlink:href="#me80104ae3c" x="90" y="320.4" style="stroke: #000000; stroke-width: 0.8"/>
      </g>
     </g>
     <g id="text_13">
      <!-- 0 -->
      <g transform="translate(73.838 325.870875) scale(0.144 -0.144)">
       <use xlink:href="#DejaVuSans-30"/>
      </g>
     </g>
    </g>
    <g id="ytick_2">
     <g id="line2d_13">
      <g>
       <use xlink:href="#me80104ae3c" x="90" y="286.8" style="stroke: #000000; stroke-width: 0.8"/>
      </g>
     </g>
     <g id="text_14">
      <!-- 1 -->
      <g transform="translate(73.838 292.270875) scale(0.144 -0.144)">
       <use xlink:href="#DejaVuSans-31"/>
      </g>
     </g>
    </g>
    <g id="ytick_3">
     <g id="line2d_14">
      <g>
       <use xlink:href="#me80104ae3c" x="90" y="253.2" style="stroke: #000000; stroke-width: 0.8"/>
      </g>
     </g>
     <g id="text_15">
      <!-- 2 -->
      <g transform="translate(73.838 258.670875) scale(0.144 -0.144)">
       <use xlink:href="#DejaVuSans-32"/>
      </g>
     </g>
    </g>
    <g id="ytick_4">
     <g id="line2d_15">
      <g>
       <use xlink:href="#me80104ae3c" x="90" y="219.6" style="stroke: #000000; stroke-width: 0.8"/>
      </g>
     </g>
     <g id="text_16">
      <!-- 3 -->
      <g transform="translate(73.838 225.070875) scale(0.144 -0.144)">
       <use xlink:href="#DejaVuSans-33"/>
      </g>
     </g>
    </g>
    <g id="ytick_5">
     <g id="line2d_16">
      <g>
       <use xlink:href="#me80104ae3c" x="90" y="186" style="stroke: #000000; stroke-width: 0.8"/>
      </g>
     </g>
     <g id="text_17">
      <!-- 4 -->
      <g transform="translate(73.838 191.470875) scale(0.144 -0.144)">
       <use xlink:href="#DejaVuSans-34"/>
      </g>
     </g>
    </g>
    <g id="ytick_6">
     <g id="line2d_17">
      <g>
       <use xlink:href="#me80104ae3c" x="90" y="152.4" style="stroke: #000000; stroke-width: 0.8"/>
      </g>
     </g>
     <g id="text_18">
      <!-- 5 -->
      <g transform="translate(73.838 157.870875) scale(0.144 -0.144)">
       <use xlink:href="#DejaVuSans-35"/>
      </g>
     </g>
    </g>
    <g id="ytick_7">
     <g id="line2d_18">
      <g>
       <use xlink:href="#me80104ae3c" x="90" y="118.8" style="stroke: #000000; stroke-width: 0.8"/>
      </g>
     </g>
     <g id="text_19">
      <!-- 6 -->
      <g transform="translate(73.838 124.270875) scale(0.144 -0.144)">
       <use xlink:href="#DejaVuSans-36"/>
      </g>
     </g>
    </g>
    <g id="ytick_8">
     <g id="line2d_19">
      <g>
       <use xlink:href="#me80104ae3c" x="90" y="85.2" style="stroke: #000000; stroke-width: 0.8"/>
      </g>
     </g>
     <g id="text_20">
      <!-- 7 -->
      <g transform="translate(73.838 90.670875) scale(0.144 -0.144)">
       <use xlink:href="#DejaVuSans-37"/>
      </g>
     </g>
    </g>
    <g id="ytick_9">
     <g id="line2d_20">
      <g>
       <use xlink:href="#me80104ae3c" x="90" y="51.6" style="stroke: #000000; stroke-width: 0.8"/>
      </g>
     </g>
     <g id="text_21">
      <!-- 8 -->
      <g transform="translate(73.838 57.070875) scale(0.144 -0.144)">
       <use xlink:href="#DejaVuSans-38"/>
      </g>
     </g>
    </g>
    <g id="text_22">
     <!-- Log10(V) -->
     <g transform="translate(65.845 225.2235) rotate(-90) scale(0.192 -0.192)">
      <defs>
       <path id="DejaVuSans-4c" d="M 628 4666 
L 1259 4666 
L 1259 531 
L 3531 531 
L 3531 0 
L 628 0 
L 628 4666 
z
" transform="scale(0.015625)"/>
       <path id="DejaVuSans-6f" d="M 1959 3097 
Q 1497 3097 1228 2736 
Q 959 2375 959 1747 
Q 959 1119 1226 758 
Q 1494 397 1959 397 
Q 2419 397 2687 759 
Q 2956 1122 2956 1747 
Q 2956 2369 2687 2733 
Q 2419 3097 1959 3097 
z
M 1959 3584 
Q 2709 3584 3137 3096 
Q 3566 2609 3566 1747 
Q 3566 888 3137 398 
Q 2709 -91 1959 -91 
Q 1206 -91 779 398 
Q 353 888 353 1747 
Q 353 2609 779 3096 
Q 1206 3584 1959 3584 
z
" transform="scale(0.015625)"/>
       <path id="DejaVuSans-67" d="M 2906 1791 
Q 2906 2416 2648 2759 
Q 2391 3103 1925 3103 
Q 1463 3103 1205 2759 
Q 947 2416 947 1791 
Q 947 1169 1205 825 
Q 1463 481 1925 481 
Q 2391 481 2648 825 
Q 2906 1169 2906 1791 
z
M 3481 434 
Q 3481 -459 3084 -895 
Q 2688 -1331 1869 -1331 
Q 1566 -1331 1297 -1286 
Q 1028 -1241 775 -1147 
L 775 -588 
Q 1028 -725 1275 -790 
Q 1522 -856 1778 -856 
Q 2344 -856 2625 -561 
Q 2906 -266 2906 331 
L 2906 616 
Q 2728 306 2450 153 
Q 2172 0 1784 0 
Q 1141 0 747 490 
Q 353 981 353 1791 
Q 353 2603 747 3093 
Q 1141 3584 1784 3584 
Q 2172 3584 2450 3431 
Q 2728 3278 2906 2969 
L 2906 3500 
L 3481 3500 
L 3481 434 
z
" transform="scale(0.015625)"/>
       <path id="DejaVuSans-56" d="M 1831 0 
L 50 4666 
L 709 4666 
L 2188 738 
L 3669 4666 
L 4325 4666 
L 2547 0 
L 1831 0 
z
" transform="scale(0.015625)"/>
      </defs>
      <use xlink:href="#DejaVuSans-4c"/>
      <use xlink:href="#DejaVuSans-6f" x="53.962891"/>
      <use xlink:href="#DejaVuSans-67" x="115.144531"/>
      <use xlink:href="#DejaVuSans-31" x="178.621094"/>
      <use xlink:href="#DejaVuSans-30" x="242.244141"/>
      <use xlink:href="#DejaVuSans-28" x="305.867188"/>
      <use xlink:href="#DejaVuSans-56" x="344.880859"/>
      <use xlink:href="#DejaVuSans-29" x="413.289062"/>
     </g>
    </g>
   </g>
   <g id="patch_3">
    <path d="M 90 320.4 
L 90 43.2 
" style="fill: none; stroke: #000000; stroke-width: 0.8; stroke-linejoin: miter; stroke-linecap: square"/>
   </g>
   <g id="patch_4">
    <path d="M 327.272727 320.4 
L 327.272727 43.2 
" style="fill: none; stroke: #000000; stroke-width: 0.8; stroke-linejoin: miter; stroke-linecap: square"/>
   </g>
   <g id="patch_5">
    <path d="M 90 320.4 
L 327.272727 320.4 
" style="fill: none; stroke: #000000; stroke-width: 0.8; stroke-linejoin: miter; stroke-linecap: square"/>
   </g>
   <g id="patch_6">
    <path d="M 90 43.2 
L 327.272727 43.2 
" style="fill: none; stroke: #000000; stroke-width: 0.8; stroke-linejoin: miter; stroke-linecap: square"/>
   </g>
   <g id="PolyCollection_1">
    <defs>
     <path id="mab39749972" d="M 92.326203 -39.6 
L 92.326203 -39.6 
L 92.326616 -39.6 
L 92.330746 -39.6 
L 92.372048 -39.6 
L 92.490102 -39.6 
L 92.754992 -39.6 
L 93.100549 -39.6 
L 93.695003 -39.6 
L 94.349168 -39.6 
L 95.344688 -39.6 
L 96.340208 -39.6 
L 97.519934 -39.6 
L 98.69966 -39.6 
L 99.984197 -39.6 
L 101.268734 -39.6 
L 102.553271 -39.6 
L 103.837808 -39.6 
L 105.122345 -43.447609 
L 106.406882 -49.931444 
L 107.691419 -56.455188 
L 108.975956 -62.956049 
L 110.260493 -69.48723 
L 111.54503 -75.987662 
L 112.829567 -82.506834 
L 114.114104 -89.004067 
L 115.398641 -95.524194 
L 116.683179 -102.017528 
L 117.967716 -108.51432 
L 119.252253 -114.987221 
L 120.53679 -121.45766 
L 121.821327 -127.889689 
L 123.106752 -134.28835 
L 124.410732 -140.715918 
L 125.72947 -147.086047 
L 127.058167 -153.360386 
L 128.387763 -159.354897 
L 129.734522 -165.14051 
L 131.11941 -170.510345 
L 132.504297 -175.339251 
L 133.699115 -178.806382 
L 134.942662 -181.966119 
L 136.186208 -184.393145 
L 137.280615 -186.071978 
L 138.375021 -187.387123 
L 139.469428 -188.329014 
L 140.402619 -188.824678 
L 141.365851 -189.216141 
L 142.111174 -189.320849 
L 142.823495 -189.265573 
L 143.438992 -189.15924 
L 144.061967 -189.041105 
L 144.576271 -188.934652 
L 145.646685 -188.709429 
L 146.26264 -188.569164 
L 147.433645 -188.287847 
L 148.157325 -188.111522 
L 149.530907 -187.758243 
L 150.46841 -187.506281 
L 152.423445 -186.969963 
L 153.538515 -186.651626 
L 155.489417 -186.087968 
L 156.72684 -185.721803 
L 159.04851 -185.028708 
L 160.366986 -184.629134 
L 162.69319 -183.920196 
L 164.143739 -183.474423 
L 166.469943 -182.756968 
L 168.107148 -182.249695 
L 170.433351 -181.527281 
L 172.31714 -180.940807 
L 174.643343 -180.15668 
L 176.969546 -179.369532 
L 179.295749 -178.581088 
L 181.621953 -177.791859 
L 183.948156 -177.002003 
L 186.274359 -176.211695 
L 188.600562 -175.421053 
L 190.926765 -174.630155 
L 193.252969 -173.839045 
L 195.579172 -173.047747 
L 197.905375 -172.25626 
L 200.231578 -171.464566 
L 202.557781 -170.672628 
L 204.883985 -169.88039 
L 207.210188 -169.087774 
L 209.536391 -168.29468 
L 211.862594 -167.500978 
L 214.188798 -166.706506 
L 216.515001 -165.911067 
L 218.841204 -165.114419 
L 221.167407 -164.316273 
L 223.49361 -163.516281 
L 225.819814 -162.71403 
L 228.146017 -161.909036 
L 230.47222 -161.100729 
L 232.798423 -160.288446 
L 235.124626 -159.471415 
L 237.45083 -158.648748 
L 239.777033 -157.819421 
L 242.103236 -156.982261 
L 244.429439 -156.135923 
L 246.755642 -155.278875 
L 249.081846 -154.409368 
L 251.408049 -153.525408 
L 253.734252 -152.624725 
L 256.060455 -151.704724 
L 258.386658 -150.76244 
L 260.712862 -149.794471 
L 263.039065 -148.7969 
L 265.365268 -147.765185 
L 267.691471 -146.694037 
L 270.017675 -145.577236 
L 272.343878 -144.4074 
L 274.670081 -143.17567 
L 276.996284 -141.871269 
L 279.322487 -140.480881 
L 281.648691 -138.98775 
L 283.974894 -137.370323 
L 286.301097 -135.600163 
L 288.6273 -133.638543 
L 290.953503 -131.430646 
L 293.279707 -128.894941 
L 295.60591 -125.901931 
L 297.932113 -122.226001 
L 300.258316 -114.860162 
L 302.584519 -92.399887 
L 304.910723 -39.6 
L 305.375963 -39.6 
L 305.841204 -39.6 
L 306.184754 -39.6 
L 306.452577 -39.6 
L 306.649476 -39.6 
L 306.795647 -39.6 
L 306.904065 -39.6 
L 306.984654 -39.6 
L 307.044655 -39.6 
L 307.089402 -39.6 
L 307.122823 -39.6 
L 307.147817 -39.6 
L 307.166535 -39.6 
L 307.167939 -39.6 
L 307.181986 -39.6 
L 307.207489 -39.6 
L 307.218061 -39.6 
L 307.225234 -39.6 
L 307.233612 -39.6 
L 307.24199 -39.6 
L 307.244246 -39.6 
L 307.244598 -39.6 
L 307.248117 -39.6 
L 307.254032 -39.6 
L 307.264288 -39.6 
L 307.285464 -39.6 
L 307.323146 -39.6 
L 307.369758 -39.6 
L 307.478363 -39.6 
L 307.706362 -39.6 
L 308.20626 -39.6 
L 309.373237 -39.6 
L 311.69944 -39.6 
L 314.025643 -39.6 
L 316.351846 -39.6 
L 318.67805 -39.6 
L 321.004253 -39.6 
L 323.330456 -39.6 
L 324.946524 -39.6 
L 324.946524 -39.6 
L 324.946524 -39.6 
L 323.330456 -78.77283 
L 321.004253 -101.766195 
L 318.67805 -111.996399 
L 316.351846 -118.020743 
L 314.025643 -122.405689 
L 311.69944 -125.890204 
L 309.373237 -128.800465 
L 308.20626 -130.119318 
L 307.706362 -130.63319 
L 307.478363 -130.867563 
L 307.369758 -130.979204 
L 307.323146 -131.027119 
L 307.285464 -131.065855 
L 307.264288 -131.087623 
L 307.254032 -131.098166 
L 307.248117 -131.104246 
L 307.244598 -131.107864 
L 307.244246 -131.108225 
L 307.24199 -131.110544 
L 307.233612 -131.119157 
L 307.225234 -131.127769 
L 307.218061 -131.135142 
L 307.207489 -131.14601 
L 307.181986 -131.172225 
L 307.167939 -131.186665 
L 307.166535 -131.188109 
L 307.147817 -131.20735 
L 307.122823 -131.233042 
L 307.089402 -131.267397 
L 307.044655 -131.313396 
L 306.984654 -131.375074 
L 306.904065 -131.457916 
L 306.795647 -131.569365 
L 306.649476 -131.719622 
L 306.452577 -131.922025 
L 306.184754 -132.188683 
L 305.841204 -132.502609 
L 305.375963 -132.927732 
L 304.910723 -133.352856 
L 302.584519 -135.358103 
L 300.258316 -137.244425 
L 297.932113 -139.450312 
L 295.60591 -141.384686 
L 293.279707 -143.205085 
L 290.953503 -145.054272 
L 288.6273 -146.704372 
L 286.301097 -148.434129 
L 283.974894 -150.072742 
L 281.648691 -151.578207 
L 279.322487 -152.942243 
L 276.996284 -154.191003 
L 274.670081 -155.344469 
L 272.343878 -156.41828 
L 270.017675 -157.424925 
L 267.691471 -158.374555 
L 265.365268 -159.275536 
L 263.039065 -160.134851 
L 260.712862 -160.958385 
L 258.386658 -161.751143 
L 256.060455 -162.51741 
L 253.734252 -163.260877 
L 251.408049 -163.984731 
L 249.081846 -164.69174 
L 246.755642 -165.384307 
L 244.429439 -166.064524 
L 242.103236 -166.734209 
L 239.777033 -167.394944 
L 237.45083 -168.048103 
L 235.124626 -168.694875 
L 232.798423 -169.336287 
L 230.47222 -169.973225 
L 228.146017 -170.606447 
L 225.819814 -171.236601 
L 223.49361 -171.864237 
L 221.167407 -172.48982 
L 218.841204 -173.113739 
L 216.515001 -173.736322 
L 214.188798 -174.357836 
L 211.862594 -174.978504 
L 209.536391 -175.598506 
L 207.210188 -176.217985 
L 204.883985 -176.837058 
L 202.557781 -177.455813 
L 200.231578 -178.074317 
L 197.905375 -178.692619 
L 195.579172 -179.310748 
L 193.252969 -179.928719 
L 190.926765 -180.546526 
L 188.600562 -181.164147 
L 186.274359 -181.781535 
L 183.948156 -182.398613 
L 181.621953 -183.015264 
L 179.295749 -183.631313 
L 176.969546 -184.246507 
L 174.643343 -184.860573 
L 172.31714 -185.472757 
L 170.433351 -185.966975 
L 168.107148 -186.573893 
L 166.469943 -186.998657 
L 164.143739 -187.596313 
L 162.69319 -187.965181 
L 160.366986 -188.589764 
L 159.04851 -188.956376 
L 156.72684 -189.577898 
L 155.489417 -189.913795 
L 153.538515 -190.412555 
L 152.423445 -190.674272 
L 150.46841 -191.089911 
L 149.530907 -191.261054 
L 148.157325 -191.468382 
L 147.433645 -191.555913 
L 146.26264 -191.71385 
L 145.646685 -191.81937 
L 144.576271 -191.98816 
L 144.061967 -192.064267 
L 143.438992 -192.142643 
L 142.823495 -192.203686 
L 142.111174 -192.266561 
L 141.365851 -192.307682 
L 140.402619 -192.322575 
L 139.469428 -192.289237 
L 138.375021 -192.177836 
L 137.280615 -191.974347 
L 136.186208 -191.642471 
L 134.942662 -191.140263 
L 133.699115 -190.697945 
L 132.504297 -190.058667 
L 131.11941 -188.974384 
L 129.734522 -187.376722 
L 128.387763 -185.098485 
L 127.058167 -181.988224 
L 125.72947 -177.873835 
L 124.410732 -173.061252 
L 123.106752 -167.300337 
L 121.821327 -160.79903 
L 120.53679 -153.684763 
L 119.252253 -146.14684 
L 117.967716 -138.336719 
L 116.683179 -130.359664 
L 115.398641 -122.283015 
L 114.114104 -114.148077 
L 112.829567 -105.979439 
L 111.54503 -97.791452 
L 110.260493 -89.592084 
L 108.975956 -81.495024 
L 107.691419 -73.415649 
L 106.406882 -65.334489 
L 105.122345 -57.25229 
L 103.837808 -49.169456 
L 102.553271 -42.102399 
L 101.268734 -39.6 
L 99.984197 -39.6 
L 98.69966 -39.6 
L 97.519934 -39.6 
L 96.340208 -39.6 
L 95.344688 -39.6 
L 94.349168 -39.6 
L 93.695003 -39.6 
L 93.100549 -39.6 
L 92.754992 -39.6 
L 92.490102 -39.6 
L 92.372048 -39.6 
L 92.330746 -39.6 
L 92.326616 -39.6 
L 92.326203 -39.6 
z
" style="stroke: #000000; stroke-opacity: 0.2"/>
    </defs>
    <g clip-path="url(#pbaa530381d)">
     <use xlink:href="#mab39749972" x="0" y="360" style="fill-opacity: 0.2; stroke: #000000; stroke-opacity: 0.2"/>
    </g>
   </g>
   <g id="line2d_21">
    <path d="M 92.326203 320.4 
L 102.553271 320.4 
L 103.837808 316.659238 
L 120.53679 219.496258 
L 123.106752 205.463524 
L 125.72947 192.649175 
L 127.058167 187.147464 
L 128.387763 182.513931 
L 129.734522 178.773891 
L 131.11941 175.879055 
L 132.504297 173.802643 
L 133.699115 172.528934 
L 134.942662 171.58762 
L 136.186208 170.939031 
L 137.280615 170.550599 
L 139.469428 170.138117 
L 141.365851 170.054132 
L 144.061967 170.21509 
L 147.433645 170.70393 
L 150.46841 171.306681 
L 156.72684 172.799592 
L 168.107148 175.83921 
L 204.883985 186.056176 
L 225.819814 192.019451 
L 237.45083 195.524022 
L 246.755642 198.542309 
L 253.734252 201.004631 
L 260.712862 203.712081 
L 265.365268 205.6991 
L 270.017675 207.875702 
L 274.670081 210.294452 
L 279.322487 213.030233 
L 283.974894 216.196811 
L 286.301097 217.995768 
L 288.6273 219.982203 
L 290.953503 222.205098 
L 293.279707 224.736037 
L 295.60591 227.685864 
L 297.932113 231.240165 
L 300.258316 235.746866 
L 302.584519 241.987648 
L 304.910723 252.461399 
L 305.375963 255.801451 
L 305.841204 260.094376 
L 306.452577 268.670961 
L 306.795647 277.225298 
L 307.044655 289.593644 
L 307.181986 307.929133 
L 307.323146 320.4 
L 324.946524 320.4 
L 324.946524 320.4 
" clip-path="url(#pbaa530381d)" style="fill: none; stroke: #000000; stroke-width: 1.5; stroke-linecap: square"/>
   </g>
  </g>
  <g id="axes_2">
   <g id="patch_7">
    <path d="M 374.727273 320.4 
L 612 320.4 
L 612 43.2 
L 374.727273 43.2 
z
" style="fill: #ffffff"/>
   </g>
   <g id="matplotlib.axis_3">
    <g id="xtick_12">
     <g id="line2d_22">
      <g>
       <use xlink:href="#m5442c6de0e" x="377.053476" y="320.4" style="stroke: #000000; stroke-width: 0.8"/>
      </g>
     </g>
     <g id="text_23">
      <!-- 0 -->
      <g transform="translate(372.472476 338.34175) scale(0.144 -0.144)">
       <use xlink:href="#DejaVuSans-30"/>
      </g>
     </g>
    </g>
    <g id="xtick_13">
     <g id="line2d_23">
      <g>
       <use xlink:href="#m5442c6de0e" x="400.315508" y="320.4" style="stroke: #000000; stroke-width: 0.8"/>
      </g>
     </g>
     <g id="text_24">
      <!-- 1 -->
      <g transform="translate(395.734508 338.34175) scale(0.144 -0.144)">
       <use xlink:href="#DejaVuSans-31"/>
      </g>
     </g>
    </g>
    <g id="xtick_14">
     <g id="line2d_24">
      <g>
       <use xlink:href="#m5442c6de0e" x="423.57754" y="320.4" style="stroke: #000000; stroke-width: 0.8"/>
      </g>
     </g>
     <g id="text_25">
      <!-- 2 -->
      <g transform="translate(418.99654 338.34175) scale(0.144 -0.144)">
       <use xlink:href="#DejaVuSans-32"/>
      </g>
     </g>
    </g>
    <g id="xtick_15">
     <g id="line2d_25">
      <g>
       <use xlink:href="#m5442c6de0e" x="446.839572" y="320.4" style="stroke: #000000; stroke-width: 0.8"/>
      </g>
     </g>
     <g id="text_26">
      <!-- 3 -->
      <g transform="translate(442.258572 338.34175) scale(0.144 -0.144)">
       <use xlink:href="#DejaVuSans-33"/>
      </g>
     </g>
    </g>
    <g id="xtick_16">
     <g id="line2d_26">
      <g>
       <use xlink:href="#m5442c6de0e" x="470.101604" y="320.4" style="stroke: #000000; stroke-width: 0.8"/>
      </g>
     </g>
     <g id="text_27">
      <!-- 4 -->
      <g transform="translate(465.520604 338.34175) scale(0.144 -0.144)">
       <use xlink:href="#DejaVuSans-34"/>
      </g>
     </g>
    </g>
    <g id="xtick_17">
     <g id="line2d_27">
      <g>
       <use xlink:href="#m5442c6de0e" x="493.363636" y="320.4" style="stroke: #000000; stroke-width: 0.8"/>
      </g>
     </g>
     <g id="text_28">
      <!-- 5 -->
      <g transform="translate(488.782636 338.34175) scale(0.144 -0.144)">
       <use xlink:href="#DejaVuSans-35"/>
      </g>
     </g>
    </g>
    <g id="xtick_18">
     <g id="line2d_28">
      <g>
       <use xlink:href="#m5442c6de0e" x="516.625668" y="320.4" style="stroke: #000000; stroke-width: 0.8"/>
      </g>
     </g>
     <g id="text_29">
      <!-- 6 -->
      <g transform="translate(512.044668 338.34175) scale(0.144 -0.144)">
       <use xlink:href="#DejaVuSans-36"/>
      </g>
     </g>
    </g>
    <g id="xtick_19">
     <g id="line2d_29">
      <g>
       <use xlink:href="#m5442c6de0e" x="539.887701" y="320.4" style="stroke: #000000; stroke-width: 0.8"/>
      </g>
     </g>
     <g id="text_30">
      <!-- 7 -->
      <g transform="translate(535.306701 338.34175) scale(0.144 -0.144)">
       <use xlink:href="#DejaVuSans-37"/>
      </g>
     </g>
    </g>
    <g id="xtick_20">
     <g id="line2d_30">
      <g>
       <use xlink:href="#m5442c6de0e" x="563.149733" y="320.4" style="stroke: #000000; stroke-width: 0.8"/>
      </g>
     </g>
     <g id="text_31">
      <!-- 8 -->
      <g transform="translate(558.568733 338.34175) scale(0.144 -0.144)">
       <use xlink:href="#DejaVuSans-38"/>
      </g>
     </g>
    </g>
    <g id="xtick_21">
     <g id="line2d_31">
      <g>
       <use xlink:href="#m5442c6de0e" x="586.411765" y="320.4" style="stroke: #000000; stroke-width: 0.8"/>
      </g>
     </g>
     <g id="text_32">
      <!-- 9 -->
      <g transform="translate(581.830765 338.34175) scale(0.144 -0.144)">
       <use xlink:href="#DejaVuSans-39"/>
      </g>
     </g>
    </g>
    <g id="xtick_22">
     <g id="line2d_32">
      <g>
       <use xlink:href="#m5442c6de0e" x="609.673797" y="320.4" style="stroke: #000000; stroke-width: 0.8"/>
      </g>
     </g>
     <g id="text_33">
      <!-- 10 -->
      <g transform="translate(600.511797 338.34175) scale(0.144 -0.144)">
       <use xlink:href="#DejaVuSans-31"/>
       <use xlink:href="#DejaVuSans-30" x="63.623047"/>
      </g>
     </g>
    </g>
    <g id="text_34">
     <!-- Time (d) -->
     <g transform="translate(453.238636 359.9255) scale(0.192 -0.192)">
      <use xlink:href="#DejaVuSans-54"/>
      <use xlink:href="#DejaVuSans-69" x="57.958984"/>
      <use xlink:href="#DejaVuSans-6d" x="85.742188"/>
      <use xlink:href="#DejaVuSans-65" x="183.154297"/>
      <use xlink:href="#DejaVuSans-20" x="244.677734"/>
      <use xlink:href="#DejaVuSans-28" x="276.464844"/>
      <use xlink:href="#DejaVuSans-64" x="315.478516"/>
      <use xlink:href="#DejaVuSans-29" x="378.955078"/>
     </g>
    </g>
   </g>
   <g id="matplotlib.axis_4">
    <g id="ytick_10">
     <g id="line2d_33">
      <g>
       <use xlink:href="#me80104ae3c" x="374.727273" y="320.4" style="stroke: #000000; stroke-width: 0.8"/>
      </g>
     </g>
     <g id="text_35">
      <!-- 4.5 -->
      <g transform="translate(344.826773 325.870875) scale(0.144 -0.144)">
       <defs>
        <path id="DejaVuSans-2e" d="M 684 794 
L 1344 794 
L 1344 0 
L 684 0 
L 684 794 
z
" transform="scale(0.015625)"/>
       </defs>
       <use xlink:href="#DejaVuSans-34"/>
       <use xlink:href="#DejaVuSans-2e" x="63.623047"/>
       <use xlink:href="#DejaVuSans-35" x="95.410156"/>
      </g>
     </g>
    </g>
    <g id="ytick_11">
     <g id="line2d_34">
      <g>
       <use xlink:href="#me80104ae3c" x="374.727273" y="277.753846" style="stroke: #000000; stroke-width: 0.8"/>
      </g>
     </g>
     <g id="text_36">
      <!-- 5.0 -->
      <g transform="translate(344.826773 283.224721) scale(0.144 -0.144)">
       <use xlink:href="#DejaVuSans-35"/>
       <use xlink:href="#DejaVuSans-2e" x="63.623047"/>
       <use xlink:href="#DejaVuSans-30" x="95.410156"/>
      </g>
     </g>
    </g>
    <g id="ytick_12">
     <g id="line2d_35">
      <g>
       <use xlink:href="#me80104ae3c" x="374.727273" y="235.107692" style="stroke: #000000; stroke-width: 0.8"/>
      </g>
     </g>
     <g id="text_37">
      <!-- 5.5 -->
      <g transform="translate(344.826773 240.578567) scale(0.144 -0.144)">
       <use xlink:href="#DejaVuSans-35"/>
       <use xlink:href="#DejaVuSans-2e" x="63.623047"/>
       <use xlink:href="#DejaVuSans-35" x="95.410156"/>
      </g>
     </g>
    </g>
    <g id="ytick_13">
     <g id="line2d_36">
      <g>
       <use xlink:href="#me80104ae3c" x="374.727273" y="192.461538" style="stroke: #000000; stroke-width: 0.8"/>
      </g>
     </g>
     <g id="text_38">
      <!-- 6.0 -->
      <g transform="translate(344.826773 197.932413) scale(0.144 -0.144)">
       <use xlink:href="#DejaVuSans-36"/>
       <use xlink:href="#DejaVuSans-2e" x="63.623047"/>
       <use xlink:href="#DejaVuSans-30" x="95.410156"/>
      </g>
     </g>
    </g>
    <g id="ytick_14">
     <g id="line2d_37">
      <g>
       <use xlink:href="#me80104ae3c" x="374.727273" y="149.815385" style="stroke: #000000; stroke-width: 0.8"/>
      </g>
     </g>
     <g id="text_39">
      <!-- 6.5 -->
      <g transform="translate(344.826773 155.28626) scale(0.144 -0.144)">
       <use xlink:href="#DejaVuSans-36"/>
       <use xlink:href="#DejaVuSans-2e" x="63.623047"/>
       <use xlink:href="#DejaVuSans-35" x="95.410156"/>
      </g>
     </g>
    </g>
    <g id="ytick_15">
     <g id="line2d_38">
      <g>
       <use xlink:href="#me80104ae3c" x="374.727273" y="107.169231" style="stroke: #000000; stroke-width: 0.8"/>
      </g>
     </g>
     <g id="text_40">
      <!-- 7.0 -->
      <g transform="translate(344.826773 112.640106) scale(0.144 -0.144)">
       <use xlink:href="#DejaVuSans-37"/>
       <use xlink:href="#DejaVuSans-2e" x="63.623047"/>
       <use xlink:href="#DejaVuSans-30" x="95.410156"/>
      </g>
     </g>
    </g>
    <g id="ytick_16">
     <g id="line2d_39">
      <g>
       <use xlink:href="#me80104ae3c" x="374.727273" y="64.523077" style="stroke: #000000; stroke-width: 0.8"/>
      </g>
     </g>
     <g id="text_41">
      <!-- 7.5 -->
      <g transform="translate(344.826773 69.993952) scale(0.144 -0.144)">
       <use xlink:href="#DejaVuSans-37"/>
       <use xlink:href="#DejaVuSans-2e" x="63.623047"/>
       <use xlink:href="#DejaVuSans-35" x="95.410156"/>
      </g>
     </g>
    </g>
    <g id="text_42">
     <!-- Log10(None) -->
     <g transform="translate(336.833773 243.7035) rotate(-90) scale(0.192 -0.192)">
      <defs>
       <path id="DejaVuSans-4e" d="M 628 4666 
L 1478 4666 
L 3547 763 
L 3547 4666 
L 4159 4666 
L 4159 0 
L 3309 0 
L 1241 3903 
L 1241 0 
L 628 0 
L 628 4666 
z
" transform="scale(0.015625)"/>
       <path id="DejaVuSans-6e" d="M 3513 2113 
L 3513 0 
L 2938 0 
L 2938 2094 
Q 2938 2591 2744 2837 
Q 2550 3084 2163 3084 
Q 1697 3084 1428 2787 
Q 1159 2491 1159 1978 
L 1159 0 
L 581 0 
L 581 3500 
L 1159 3500 
L 1159 2956 
Q 1366 3272 1645 3428 
Q 1925 3584 2291 3584 
Q 2894 3584 3203 3211 
Q 3513 2838 3513 2113 
z
" transform="scale(0.015625)"/>
      </defs>
      <use xlink:href="#DejaVuSans-4c"/>
      <use xlink:href="#DejaVuSans-6f" x="53.962891"/>
      <use xlink:href="#DejaVuSans-67" x="115.144531"/>
      <use xlink:href="#DejaVuSans-31" x="178.621094"/>
      <use xlink:href="#DejaVuSans-30" x="242.244141"/>
      <use xlink:href="#DejaVuSans-28" x="305.867188"/>
      <use xlink:href="#DejaVuSans-4e" x="344.880859"/>
      <use xlink:href="#DejaVuSans-6f" x="419.685547"/>
      <use xlink:href="#DejaVuSans-6e" x="480.867188"/>
      <use xlink:href="#DejaVuSans-65" x="544.246094"/>
      <use xlink:href="#DejaVuSans-29" x="605.769531"/>
     </g>
    </g>
   </g>
   <g id="patch_8">
    <path d="M 374.727273 320.4 
L 374.727273 43.2 
" style="fill: none; stroke: #000000; stroke-width: 0.8; stroke-linejoin: miter; stroke-linecap: square"/>
   </g>
   <g id="patch_9">
    <path d="M 612 320.4 
L 612 43.2 
" style="fill: none; stroke: #000000; stroke-width: 0.8; stroke-linejoin: miter; stroke-linecap: square"/>
   </g>
   <g id="patch_10">
    <path d="M 374.727273 320.4 
L 612 320.4 
" style="fill: none; stroke: #000000; stroke-width: 0.8; stroke-linejoin: miter; stroke-linecap: square"/>
   </g>
   <g id="patch_11">
    <path d="M 374.727273 43.2 
L 612 43.2 
" style="fill: none; stroke: #000000; stroke-width: 0.8; stroke-linejoin: miter; stroke-linecap: square"/>
   </g>
   <g id="PolyCollection_2">
    <defs>
     <path id="ma19396d804" d="M 377.053476 -163.077169 
L 377.053476 -86.756632 
L 377.053889 -86.756632 
L 377.058019 -86.756632 
L 377.099321 -86.756632 
L 377.217375 -86.756632 
L 377.482264 -86.756632 
L 377.827822 -86.756632 
L 378.422275 -86.756632 
L 379.076441 -86.756632 
L 380.071961 -86.756632 
L 381.067481 -86.756632 
L 382.247207 -86.756632 
L 383.426932 -86.756632 
L 384.711469 -86.756632 
L 385.996007 -86.756632 
L 387.280544 -86.756632 
L 388.565081 -86.756632 
L 389.849618 -86.756632 
L 391.134155 -86.756632 
L 392.418692 -86.756632 
L 393.703229 -86.756632 
L 394.987766 -86.756632 
L 396.272303 -86.756632 
L 397.55684 -86.756632 
L 398.841377 -86.756632 
L 400.125914 -86.756632 
L 401.410451 -86.756632 
L 402.694988 -86.756632 
L 403.979525 -86.756632 
L 405.264062 -86.756632 
L 406.548599 -86.756632 
L 407.834025 -86.756632 
L 409.138004 -86.756632 
L 410.456743 -86.756632 
L 411.78544 -86.756632 
L 413.115036 -86.756632 
L 414.461795 -86.756632 
L 415.846682 -86.756632 
L 417.23157 -86.756632 
L 418.426388 -86.756632 
L 419.669935 -86.756632 
L 420.913481 -86.756632 
L 422.007888 -86.756632 
L 423.102294 -86.756633 
L 424.196701 -86.756634 
L 425.129891 -86.756634 
L 426.093124 -86.756636 
L 426.838446 -86.756637 
L 427.550768 -86.756639 
L 428.166265 -86.756641 
L 428.789239 -86.756643 
L 429.303544 -86.756646 
L 430.373957 -86.756652 
L 430.989913 -86.756658 
L 432.160917 -86.756672 
L 432.884598 -86.756685 
L 434.25818 -86.756717 
L 435.195683 -86.756752 
L 437.150718 -86.75686 
L 438.265788 -86.756964 
L 440.21669 -86.757241 
L 441.454113 -86.757531 
L 443.775783 -86.758381 
L 445.094259 -86.759191 
L 447.420462 -86.76134 
L 448.871012 -86.763523 
L 451.197215 -86.768661 
L 452.834421 -86.774388 
L 455.160624 -86.786125 
L 457.044413 -86.800792 
L 459.370616 -86.82689 
L 461.696819 -86.865688 
L 464.023022 -86.922049 
L 466.349225 -87.00216 
L 468.675429 -87.064233 
L 471.001632 -87.124337 
L 473.327835 -87.207635 
L 475.654038 -87.321061 
L 477.980241 -87.472934 
L 480.306445 -87.673035 
L 482.632648 -87.932612 
L 484.958851 -88.264308 
L 487.285054 -88.681977 
L 489.611257 -89.200382 
L 491.937461 -89.834763 
L 494.263664 -90.600263 
L 496.589867 -91.511259 
L 498.91607 -92.58061 
L 501.242273 -93.818894 
L 503.568477 -95.233695 
L 505.89468 -96.829031 
L 508.220883 -98.604965 
L 510.547086 -100.55747 
L 512.87329 -102.678553 
L 515.199493 -104.956623 
L 517.525696 -107.377064 
L 519.851899 -109.922934 
L 522.178102 -112.575733 
L 524.504306 -115.316156 
L 526.830509 -116.44182 
L 529.156712 -117.60934 
L 531.482915 -118.872619 
L 533.809118 -120.229062 
L 536.135322 -121.67478 
L 538.461525 -123.204703 
L 540.787728 -124.812719 
L 543.113931 -126.491857 
L 545.440134 -128.234473 
L 547.766338 -130.032449 
L 550.092541 -131.877389 
L 552.418744 -133.760799 
L 554.744947 -135.674245 
L 557.07115 -137.609499 
L 559.397354 -139.558647 
L 561.723557 -141.51418 
L 564.04976 -143.469056 
L 566.375963 -145.416746 
L 568.702167 -147.351256 
L 571.02837 -149.267135 
L 573.354573 -151.159468 
L 575.680776 -152.965739 
L 578.006979 -154.41847 
L 580.333183 -155.831176 
L 582.659386 -157.201586 
L 584.985589 -158.527767 
L 587.311792 -159.317593 
L 589.637995 -159.744375 
L 590.103236 -159.819967 
L 590.568477 -159.890777 
L 590.912026 -159.943065 
L 591.17985 -159.983827 
L 591.376749 -160.013795 
L 591.52292 -160.036042 
L 591.631338 -160.052543 
L 591.711927 -160.064809 
L 591.771928 -160.073941 
L 591.816675 -160.080752 
L 591.850096 -160.085838 
L 591.87509 -160.089642 
L 591.893807 -160.092491 
L 591.895212 -160.092705 
L 591.909259 -160.094843 
L 591.934762 -160.098724 
L 591.945334 -160.100333 
L 591.952507 -160.101425 
L 591.960885 -160.1027 
L 591.969263 -160.103975 
L 591.971519 -160.104319 
L 591.971871 -160.104372 
L 591.97539 -160.104908 
L 591.981304 -160.105808 
L 591.991561 -160.107369 
L 592.012737 -160.110592 
L 592.050419 -160.116327 
L 592.097031 -160.123422 
L 592.205636 -160.137742 
L 592.433635 -160.16594 
L 592.933533 -160.227765 
L 594.100509 -160.37209 
L 596.426713 -160.604803 
L 598.752916 -160.773965 
L 601.079119 -160.884985 
L 603.405322 -160.930889 
L 605.731526 -160.917884 
L 608.057729 -160.848076 
L 609.673797 -160.767678 
L 609.673797 -214.092216 
L 609.673797 -214.092216 
L 608.057729 -213.389524 
L 605.731526 -212.331362 
L 603.405322 -211.216082 
L 601.079119 -210.043173 
L 598.752916 -209.0957 
L 596.426713 -208.327375 
L 594.100509 -207.49605 
L 592.933533 -207.062021 
L 592.433635 -206.865442 
L 592.205636 -206.775475 
L 592.097031 -206.732621 
L 592.050419 -206.714228 
L 592.012737 -206.699359 
L 591.991561 -206.691003 
L 591.981304 -206.686956 
L 591.97539 -206.684622 
L 591.971871 -206.683233 
L 591.971519 -206.683094 
L 591.969263 -206.682204 
L 591.960885 -206.678898 
L 591.952507 -206.675592 
L 591.945334 -206.672762 
L 591.934762 -206.66859 
L 591.909259 -206.658527 
L 591.895212 -206.652984 
L 591.893807 -206.65243 
L 591.87509 -206.645044 
L 591.850096 -206.635182 
L 591.816675 -206.621994 
L 591.771928 -206.604337 
L 591.711927 -206.580661 
L 591.631338 -206.548861 
L 591.52292 -206.50608 
L 591.376749 -206.448363 
L 591.17985 -206.367313 
L 590.912026 -206.257066 
L 590.568477 -206.115649 
L 590.103236 -205.924138 
L 589.637995 -205.727859 
L 587.311792 -204.698961 
L 584.985589 -203.612038 
L 582.659386 -202.458644 
L 580.333183 -201.238499 
L 578.006979 -199.951498 
L 575.680776 -198.597734 
L 573.354573 -197.177537 
L 571.02837 -195.691503 
L 568.702167 -194.14054 
L 566.375963 -192.782678 
L 564.04976 -191.452967 
L 561.723557 -190.078747 
L 559.397354 -188.662943 
L 557.07115 -187.208951 
L 554.744947 -185.720658 
L 552.418744 -184.202472 
L 550.092541 -182.659341 
L 547.766338 -181.096766 
L 545.440134 -179.881206 
L 543.113931 -178.875654 
L 540.787728 -177.824778 
L 538.461525 -176.732478 
L 536.135322 -175.603252 
L 533.809118 -174.442216 
L 531.482915 -173.255104 
L 529.156712 -172.048264 
L 526.830509 -170.828622 
L 524.504306 -169.603631 
L 522.178102 -168.381192 
L 519.851899 -167.207482 
L 517.525696 -166.454891 
L 515.199493 -165.926519 
L 512.87329 -165.486879 
L 510.547086 -165.100518 
L 508.220883 -164.780023 
L 505.89468 -164.499081 
L 503.568477 -164.254848 
L 501.242273 -164.044335 
L 498.91607 -163.864478 
L 496.589867 -163.712204 
L 494.263664 -163.584491 
L 491.937461 -163.478417 
L 489.611257 -163.391204 
L 487.285054 -163.320253 
L 484.958851 -163.263164 
L 482.632648 -163.217757 
L 480.306445 -163.182076 
L 477.980241 -163.154393 
L 475.654038 -163.133202 
L 473.327835 -163.117211 
L 471.001632 -163.105323 
L 468.675429 -163.096626 
L 466.349225 -163.09037 
L 464.023022 -163.085952 
L 461.696819 -163.082891 
L 459.370616 -163.080814 
L 457.044413 -163.079436 
L 455.160624 -163.078677 
L 452.834421 -163.078064 
L 451.197215 -163.077767 
L 448.871012 -163.077508 
L 447.420462 -163.077398 
L 445.094259 -163.077291 
L 443.775783 -163.077254 
L 441.454113 -163.077211 
L 440.21669 -163.077198 
L 438.265788 -163.077185 
L 437.150718 -163.07718 
L 435.195683 -163.077174 
L 434.25818 -163.077173 
L 432.884598 -163.077171 
L 432.160917 -163.077171 
L 430.989913 -163.07717 
L 430.373957 -163.07717 
L 429.303544 -163.077169 
L 428.789239 -163.077169 
L 428.166265 -163.077169 
L 427.550768 -163.077169 
L 426.838446 -163.077169 
L 426.093124 -163.077169 
L 425.129891 -163.077169 
L 424.196701 -163.077169 
L 423.102294 -163.077169 
L 422.007888 -163.077169 
L 420.913481 -163.077169 
L 419.669935 -163.077169 
L 418.426388 -163.077169 
L 417.23157 -163.077169 
L 415.846682 -163.077169 
L 414.461795 -163.077169 
L 413.115036 -163.077169 
L 411.78544 -163.077169 
L 410.456743 -163.077169 
L 409.138004 -163.077169 
L 407.834025 -163.077169 
L 406.548599 -163.077169 
L 405.264062 -163.077169 
L 403.979525 -163.077169 
L 402.694988 -163.077169 
L 401.410451 -163.077169 
L 400.125914 -163.077169 
L 398.841377 -163.077169 
L 397.55684 -163.077169 
L 396.272303 -163.077169 
L 394.987766 -163.077169 
L 393.703229 -163.077169 
L 392.418692 -163.077169 
L 391.134155 -163.077169 
L 389.849618 -163.077169 
L 388.565081 -163.077169 
L 387.280544 -163.077169 
L 385.996007 -163.077169 
L 384.711469 -163.077169 
L 383.426932 -163.077169 
L 382.247207 -163.077169 
L 381.067481 -163.077169 
L 380.071961 -163.077169 
L 379.076441 -163.077169 
L 378.422275 -163.077169 
L 377.827822 -163.077169 
L 377.482264 -163.077169 
L 377.217375 -163.077169 
L 377.099321 -163.077169 
L 377.058019 -163.077169 
L 377.053889 -163.077169 
L 377.053476 -163.077169 
z
" style="stroke: #000000; stroke-opacity: 0.2"/>
    </defs>
    <g clip-path="url(#paf14c72413)">
     <use xlink:href="#ma19396d804" x="0" y="360" style="fill-opacity: 0.2; stroke: #000000; stroke-opacity: 0.2"/>
    </g>
   </g>
   <g id="line2d_40">
    <path d="M 377.053476 223.228407 
L 461.696819 223.150445 
L 471.001632 222.889516 
L 475.654038 222.598229 
L 480.306445 222.130655 
L 484.958851 221.42563 
L 489.611257 220.422603 
L 494.263664 219.071314 
L 498.91607 217.341803 
L 503.568477 215.231999 
L 508.220883 212.770424 
L 512.87329 210.013177 
L 519.851899 205.492187 
L 536.135322 194.621547 
L 540.787728 191.75745 
L 545.440134 189.094687 
L 550.092541 186.664596 
L 554.744947 184.488358 
L 559.397354 182.578777 
L 564.04976 180.941955 
L 568.702167 179.578758 
L 573.354573 178.486027 
L 578.006979 177.657554 
L 582.659386 177.084851 
L 587.311792 176.757734 
L 592.933533 176.673843 
L 596.426713 176.784325 
L 601.079119 177.113715 
L 605.731526 177.638919 
L 609.673797 178.226964 
L 609.673797 178.226964 
" clip-path="url(#paf14c72413)" style="fill: none; stroke: #000000; stroke-width: 1.5; stroke-linecap: square"/>
   </g>
  </g>
  <g id="legend_1">
   <g id="patch_12">
    <path d="M 769.44 43.542 
L 931.743 43.542 
Q 935.583 43.542 935.583 39.702 
L 935.583 13.44 
Q 935.583 9.6 931.743 9.6 
L 769.44 9.6 
Q 765.6 9.6 765.6 13.44 
L 765.6 39.702 
Q 765.6 43.542 769.44 43.542 
z
" style="fill: #ffffff; opacity: 0.8; stroke: #cccccc; stroke-linejoin: miter"/>
   </g>
   <g id="line2d_41">
    <path style="fill: none; stroke: #000000; stroke-width: 1.5; stroke-linecap: square"/>
   </g>
   <g id="text_43">
    <!-- Population -->
    <g transform="translate(827.04 31.869) scale(0.192 -0.192)">
     <defs>
      <path id="DejaVuSans-50" d="M 1259 4147 
L 1259 2394 
L 2053 2394 
Q 2494 2394 2734 2622 
Q 2975 2850 2975 3272 
Q 2975 3691 2734 3919 
Q 2494 4147 2053 4147 
L 1259 4147 
z
M 628 4666 
L 2053 4666 
Q 2838 4666 3239 4311 
Q 3641 3956 3641 3272 
Q 3641 2581 3239 2228 
Q 2838 1875 2053 1875 
L 1259 1875 
L 1259 0 
L 628 0 
L 628 4666 
z
" transform="scale(0.015625)"/>
      <path id="DejaVuSans-70" d="M 1159 525 
L 1159 -1331 
L 581 -1331 
L 581 3500 
L 1159 3500 
L 1159 2969 
Q 1341 3281 1617 3432 
Q 1894 3584 2278 3584 
Q 2916 3584 3314 3078 
Q 3713 2572 3713 1747 
Q 3713 922 3314 415 
Q 2916 -91 2278 -91 
Q 1894 -91 1617 61 
Q 1341 213 1159 525 
z
M 3116 1747 
Q 3116 2381 2855 2742 
Q 2594 3103 2138 3103 
Q 1681 3103 1420 2742 
Q 1159 2381 1159 1747 
Q 1159 1113 1420 752 
Q 1681 391 2138 391 
Q 2594 391 2855 752 
Q 3116 1113 3116 1747 
z
" transform="scale(0.015625)"/>
      <path id="DejaVuSans-75" d="M 544 1381 
L 544 3500 
L 1119 3500 
L 1119 1403 
Q 1119 906 1312 657 
Q 1506 409 1894 409 
Q 2359 409 2629 706 
Q 2900 1003 2900 1516 
L 2900 3500 
L 3475 3500 
L 3475 0 
L 2900 0 
L 2900 538 
Q 2691 219 2414 64 
Q 2138 -91 1772 -91 
Q 1169 -91 856 284 
Q 544 659 544 1381 
z
M 1991 3584 
L 1991 3584 
z
" transform="scale(0.015625)"/>
      <path id="DejaVuSans-6c" d="M 603 4863 
L 1178 4863 
L 1178 0 
L 603 0 
L 603 4863 
z
" transform="scale(0.015625)"/>
      <path id="DejaVuSans-61" d="M 2194 1759 
Q 1497 1759 1228 1600 
Q 959 1441 959 1056 
Q 959 750 1161 570 
Q 1363 391 1709 391 
Q 2188 391 2477 730 
Q 2766 1069 2766 1631 
L 2766 1759 
L 2194 1759 
z
M 3341 1997 
L 3341 0 
L 2766 0 
L 2766 531 
Q 2569 213 2275 61 
Q 1981 -91 1556 -91 
Q 1019 -91 701 211 
Q 384 513 384 1019 
Q 384 1609 779 1909 
Q 1175 2209 1959 2209 
L 2766 2209 
L 2766 2266 
Q 2766 2663 2505 2880 
Q 2244 3097 1772 3097 
Q 1472 3097 1187 3025 
Q 903 2953 641 2809 
L 641 3341 
Q 956 3463 1253 3523 
Q 1550 3584 1831 3584 
Q 2591 3584 2966 3190 
Q 3341 2797 3341 1997 
z
" transform="scale(0.015625)"/>
      <path id="DejaVuSans-74" d="M 1172 4494 
L 1172 3500 
L 2356 3500 
L 2356 3053 
L 1172 3053 
L 1172 1153 
Q 1172 725 1289 603 
Q 1406 481 1766 481 
L 2356 481 
L 2356 0 
L 1766 0 
Q 1100 0 847 248 
Q 594 497 594 1153 
L 594 3053 
L 172 3053 
L 172 3500 
L 594 3500 
L 594 4494 
L 1172 4494 
z
" transform="scale(0.015625)"/>
     </defs>
     <use xlink:href="#DejaVuSans-50"/>
     <use xlink:href="#DejaVuSans-6f" x="56.677734"/>
     <use xlink:href="#DejaVuSans-70" x="117.859375"/>
     <use xlink:href="#DejaVuSans-75" x="181.335938"/>
     <use xlink:href="#DejaVuSans-6c" x="244.714844"/>
     <use xlink:href="#DejaVuSans-61" x="272.498047"/>
     <use xlink:href="#DejaVuSans-74" x="333.777344"/>
     <use xlink:href="#DejaVuSans-69" x="372.986328"/>
     <use xlink:href="#DejaVuSans-6f" x="400.769531"/>
     <use xlink:href="#DejaVuSans-6e" x="461.951172"/>
    </g>
   </g>
  </g>
 </g>
 <defs>
  <clipPath id="pbaa530381d">
   <rect x="90" y="43.2" width="237.272727" height="277.2"/>
  </clipPath>
  <clipPath id="paf14c72413">
   <rect x="374.727273" y="43.2" width="237.272727" height="277.2"/>
  </clipPath>
 </defs>
</svg>
