<?xml version="1.0" encoding="utf-8" standalone="no"?>
<!DOCTYPE svg PUBLIC "-//W3C//DTD SVG 1.1//EN"
  "http://www.w3.org/Graphics/SVG/1.1/DTD/svg11.dtd">
<svg xmlns:xlink="http://www.w3.org/1999/xlink" width="1080pt" height="360pt" viewBox="0 0 1080 360" xmlns="http://www.w3.org/2000/svg" version="1.1">
 <metadata>
  <rdf:RDF xmlns:dc="http://purl.org/dc/elements/1.1/" xmlns:cc="http://creativecommons.org/ns#" xmlns:rdf="http://www.w3.org/1999/02/22-rdf-syntax-ns#">
   <cc:Work>
    <dc:type rdf:resource="http://purl.org/dc/dcmitype/StillImage"/>
    <dc:date>2024-12-11T08:57:03.559537</dc:date>
    <dc:format>image/svg+xml</dc:format>
    <dc:creator>
     <cc:Agent>
      <dc:title>Matplotlib v3.9.2, https://matplotlib.org/</dc:title>
     </cc:Agent>
    </dc:creator>
   </cc:Work>
  </rdf:RDF>
 </metadata>
 <defs>
  <style type="text/css">*{stroke-linejoin: round; stroke-linecap: butt}</style>
 </defs>
 <g id="figure_1">
  <g id="patch_1">
   <path d="M 0 360 
L 1080 360 
L 1080 0 
L 0 0 
z
" style="fill: #ffffff"/>
  </g>
  <g id="axes_1">
   <g id="patch_2">
    <path d="M 135 320.4 
L 365.294118 320.4 
L 365.294118 43.2 
L 135 43.2 
z
" style="fill: #ffffff"/>
   </g>
   <g id="matplotlib.axis_1">
    <g id="xtick_1">
     <g id="line2d_1">
      <defs>
       <path id="m374ab8e2f9" d="M 0 0 
L 0 3.5 
" style="stroke: #000000; stroke-width: 0.8"/>
      </defs>
      <g>
       <use xlink:href="#m374ab8e2f9" x="137.257785" y="320.4" style="stroke: #000000; stroke-width: 0.8"/>
      </g>
     </g>
     <g id="text_1">
      <!-- 0 -->
      <g transform="translate(132.676785 338.34175) scale(0.144 -0.144)">
       <defs>
        <path id="DejaVuSans-30" d="M 2034 4250 
Q 1547 4250 1301 3770 
Q 1056 3291 1056 2328 
Q 1056 1369 1301 889 
Q 1547 409 2034 409 
Q 2525 409 2770 889 
Q 3016 1369 3016 2328 
Q 3016 3291 2770 3770 
Q 2525 4250 2034 4250 
z
M 2034 4750 
Q 2819 4750 3233 4129 
Q 3647 3509 3647 2328 
Q 3647 1150 3233 529 
Q 2819 -91 2034 -91 
Q 1250 -91 836 529 
Q 422 1150 422 2328 
Q 422 3509 836 4129 
Q 1250 4750 2034 4750 
z
" transform="scale(0.015625)"/>
       </defs>
       <use xlink:href="#DejaVuSans-30"/>
      </g>
     </g>
    </g>
    <g id="xtick_2">
     <g id="line2d_2">
      <g>
       <use xlink:href="#m374ab8e2f9" x="159.83564" y="320.4" style="stroke: #000000; stroke-width: 0.8"/>
      </g>
     </g>
     <g id="text_2">
      <!-- 1 -->
      <g transform="translate(155.25464 338.34175) scale(0.144 -0.144)">
       <defs>
        <path id="DejaVuSans-31" d="M 794 531 
L 1825 531 
L 1825 4091 
L 703 3866 
L 703 4441 
L 1819 4666 
L 2450 4666 
L 2450 531 
L 3481 531 
L 3481 0 
L 794 0 
L 794 531 
z
" transform="scale(0.015625)"/>
       </defs>
       <use xlink:href="#DejaVuSans-31"/>
      </g>
     </g>
    </g>
    <g id="xtick_3">
     <g id="line2d_3">
      <g>
       <use xlink:href="#m374ab8e2f9" x="182.413495" y="320.4" style="stroke: #000000; stroke-width: 0.8"/>
      </g>
     </g>
     <g id="text_3">
      <!-- 2 -->
      <g transform="translate(177.832495 338.34175) scale(0.144 -0.144)">
       <defs>
        <path id="DejaVuSans-32" d="M 1228 531 
L 3431 531 
L 3431 0 
L 469 0 
L 469 531 
Q 828 903 1448 1529 
Q 2069 2156 2228 2338 
Q 2531 2678 2651 2914 
Q 2772 3150 2772 3378 
Q 2772 3750 2511 3984 
Q 2250 4219 1831 4219 
Q 1534 4219 1204 4116 
Q 875 4013 500 3803 
L 500 4441 
Q 881 4594 1212 4672 
Q 1544 4750 1819 4750 
Q 2544 4750 2975 4387 
Q 3406 4025 3406 3419 
Q 3406 3131 3298 2873 
Q 3191 2616 2906 2266 
Q 2828 2175 2409 1742 
Q 1991 1309 1228 531 
z
" transform="scale(0.015625)"/>
       </defs>
       <use xlink:href="#DejaVuSans-32"/>
      </g>
     </g>
    </g>
    <g id="xtick_4">
     <g id="line2d_4">
      <g>
       <use xlink:href="#m374ab8e2f9" x="204.991349" y="320.4" style="stroke: #000000; stroke-width: 0.8"/>
      </g>
     </g>
     <g id="text_4">
      <!-- 3 -->
      <g transform="translate(200.410349 338.34175) scale(0.144 -0.144)">
       <defs>
        <path id="DejaVuSans-33" d="M 2597 2516 
Q 3050 2419 3304 2112 
Q 3559 1806 3559 1356 
Q 3559 666 3084 287 
Q 2609 -91 1734 -91 
Q 1441 -91 1130 -33 
Q 819 25 488 141 
L 488 750 
Q 750 597 1062 519 
Q 1375 441 1716 441 
Q 2309 441 2620 675 
Q 2931 909 2931 1356 
Q 2931 1769 2642 2001 
Q 2353 2234 1838 2234 
L 1294 2234 
L 1294 2753 
L 1863 2753 
Q 2328 2753 2575 2939 
Q 2822 3125 2822 3475 
Q 2822 3834 2567 4026 
Q 2313 4219 1838 4219 
Q 1578 4219 1281 4162 
Q 984 4106 628 3988 
L 628 4550 
Q 988 4650 1302 4700 
Q 1616 4750 1894 4750 
Q 2613 4750 3031 4423 
Q 3450 4097 3450 3541 
Q 3450 3153 3228 2886 
Q 3006 2619 2597 2516 
z
" transform="scale(0.015625)"/>
       </defs>
       <use xlink:href="#DejaVuSans-33"/>
      </g>
     </g>
    </g>
    <g id="xtick_5">
     <g id="line2d_5">
      <g>
       <use xlink:href="#m374ab8e2f9" x="227.569204" y="320.4" style="stroke: #000000; stroke-width: 0.8"/>
      </g>
     </g>
     <g id="text_5">
      <!-- 4 -->
      <g transform="translate(222.988204 338.34175) scale(0.144 -0.144)">
       <defs>
        <path id="DejaVuSans-34" d="M 2419 4116 
L 825 1625 
L 2419 1625 
L 2419 4116 
z
M 2253 4666 
L 3047 4666 
L 3047 1625 
L 3713 1625 
L 3713 1100 
L 3047 1100 
L 3047 0 
L 2419 0 
L 2419 1100 
L 313 1100 
L 313 1709 
L 2253 4666 
z
" transform="scale(0.015625)"/>
       </defs>
       <use xlink:href="#DejaVuSans-34"/>
      </g>
     </g>
    </g>
    <g id="xtick_6">
     <g id="line2d_6">
      <g>
       <use xlink:href="#m374ab8e2f9" x="250.147059" y="320.4" style="stroke: #000000; stroke-width: 0.8"/>
      </g>
     </g>
     <g id="text_6">
      <!-- 5 -->
      <g transform="translate(245.566059 338.34175) scale(0.144 -0.144)">
       <defs>
        <path id="DejaVuSans-35" d="M 691 4666 
L 3169 4666 
L 3169 4134 
L 1269 4134 
L 1269 2991 
Q 1406 3038 1543 3061 
Q 1681 3084 1819 3084 
Q 2600 3084 3056 2656 
Q 3513 2228 3513 1497 
Q 3513 744 3044 326 
Q 2575 -91 1722 -91 
Q 1428 -91 1123 -41 
Q 819 9 494 109 
L 494 744 
Q 775 591 1075 516 
Q 1375 441 1709 441 
Q 2250 441 2565 725 
Q 2881 1009 2881 1497 
Q 2881 1984 2565 2268 
Q 2250 2553 1709 2553 
Q 1456 2553 1204 2497 
Q 953 2441 691 2322 
L 691 4666 
z
" transform="scale(0.015625)"/>
       </defs>
       <use xlink:href="#DejaVuSans-35"/>
      </g>
     </g>
    </g>
    <g id="xtick_7">
     <g id="line2d_7">
      <g>
       <use xlink:href="#m374ab8e2f9" x="272.724913" y="320.4" style="stroke: #000000; stroke-width: 0.8"/>
      </g>
     </g>
     <g id="text_7">
      <!-- 6 -->
      <g transform="translate(268.143913 338.34175) scale(0.144 -0.144)">
       <defs>
        <path id="DejaVuSans-36" d="M 2113 2584 
Q 1688 2584 1439 2293 
Q 1191 2003 1191 1497 
Q 1191 994 1439 701 
Q 1688 409 2113 409 
Q 2538 409 2786 701 
Q 3034 994 3034 1497 
Q 3034 2003 2786 2293 
Q 2538 2584 2113 2584 
z
M 3366 4563 
L 3366 3988 
Q 3128 4100 2886 4159 
Q 2644 4219 2406 4219 
Q 1781 4219 1451 3797 
Q 1122 3375 1075 2522 
Q 1259 2794 1537 2939 
Q 1816 3084 2150 3084 
Q 2853 3084 3261 2657 
Q 3669 2231 3669 1497 
Q 3669 778 3244 343 
Q 2819 -91 2113 -91 
Q 1303 -91 875 529 
Q 447 1150 447 2328 
Q 447 3434 972 4092 
Q 1497 4750 2381 4750 
Q 2619 4750 2861 4703 
Q 3103 4656 3366 4563 
z
" transform="scale(0.015625)"/>
       </defs>
       <use xlink:href="#DejaVuSans-36"/>
      </g>
     </g>
    </g>
    <g id="xtick_8">
     <g id="line2d_8">
      <g>
       <use xlink:href="#m374ab8e2f9" x="295.302768" y="320.4" style="stroke: #000000; stroke-width: 0.8"/>
      </g>
     </g>
     <g id="text_8">
      <!-- 7 -->
      <g transform="translate(290.721768 338.34175) scale(0.144 -0.144)">
       <defs>
        <path id="DejaVuSans-37" d="M 525 4666 
L 3525 4666 
L 3525 4397 
L 1831 0 
L 1172 0 
L 2766 4134 
L 525 4134 
L 525 4666 
z
" transform="scale(0.015625)"/>
       </defs>
       <use xlink:href="#DejaVuSans-37"/>
      </g>
     </g>
    </g>
    <g id="xtick_9">
     <g id="line2d_9">
      <g>
       <use xlink:href="#m374ab8e2f9" x="317.880623" y="320.4" style="stroke: #000000; stroke-width: 0.8"/>
      </g>
     </g>
     <g id="text_9">
      <!-- 8 -->
      <g transform="translate(313.299623 338.34175) scale(0.144 -0.144)">
       <defs>
        <path id="DejaVuSans-38" d="M 2034 2216 
Q 1584 2216 1326 1975 
Q 1069 1734 1069 1313 
Q 1069 891 1326 650 
Q 1584 409 2034 409 
Q 2484 409 2743 651 
Q 3003 894 3003 1313 
Q 3003 1734 2745 1975 
Q 2488 2216 2034 2216 
z
M 1403 2484 
Q 997 2584 770 2862 
Q 544 3141 544 3541 
Q 544 4100 942 4425 
Q 1341 4750 2034 4750 
Q 2731 4750 3128 4425 
Q 3525 4100 3525 3541 
Q 3525 3141 3298 2862 
Q 3072 2584 2669 2484 
Q 3125 2378 3379 2068 
Q 3634 1759 3634 1313 
Q 3634 634 3220 271 
Q 2806 -91 2034 -91 
Q 1263 -91 848 271 
Q 434 634 434 1313 
Q 434 1759 690 2068 
Q 947 2378 1403 2484 
z
M 1172 3481 
Q 1172 3119 1398 2916 
Q 1625 2713 2034 2713 
Q 2441 2713 2670 2916 
Q 2900 3119 2900 3481 
Q 2900 3844 2670 4047 
Q 2441 4250 2034 4250 
Q 1625 4250 1398 4047 
Q 1172 3844 1172 3481 
z
" transform="scale(0.015625)"/>
       </defs>
       <use xlink:href="#DejaVuSans-38"/>
      </g>
     </g>
    </g>
    <g id="xtick_10">
     <g id="line2d_10">
      <g>
       <use xlink:href="#m374ab8e2f9" x="340.458478" y="320.4" style="stroke: #000000; stroke-width: 0.8"/>
      </g>
     </g>
     <g id="text_10">
      <!-- 9 -->
      <g transform="translate(335.877478 338.34175) scale(0.144 -0.144)">
       <defs>
        <path id="DejaVuSans-39" d="M 703 97 
L 703 672 
Q 941 559 1184 500 
Q 1428 441 1663 441 
Q 2288 441 2617 861 
Q 2947 1281 2994 2138 
Q 2813 1869 2534 1725 
Q 2256 1581 1919 1581 
Q 1219 1581 811 2004 
Q 403 2428 403 3163 
Q 403 3881 828 4315 
Q 1253 4750 1959 4750 
Q 2769 4750 3195 4129 
Q 3622 3509 3622 2328 
Q 3622 1225 3098 567 
Q 2575 -91 1691 -91 
Q 1453 -91 1209 -44 
Q 966 3 703 97 
z
M 1959 2075 
Q 2384 2075 2632 2365 
Q 2881 2656 2881 3163 
Q 2881 3666 2632 3958 
Q 2384 4250 1959 4250 
Q 1534 4250 1286 3958 
Q 1038 3666 1038 3163 
Q 1038 2656 1286 2365 
Q 1534 2075 1959 2075 
z
" transform="scale(0.015625)"/>
       </defs>
       <use xlink:href="#DejaVuSans-39"/>
      </g>
     </g>
    </g>
    <g id="xtick_11">
     <g id="line2d_11">
      <g>
       <use xlink:href="#m374ab8e2f9" x="363.036332" y="320.4" style="stroke: #000000; stroke-width: 0.8"/>
      </g>
     </g>
     <g id="text_11">
      <!-- 10 -->
      <g transform="translate(353.874332 338.34175) scale(0.144 -0.144)">
       <use xlink:href="#DejaVuSans-31"/>
       <use xlink:href="#DejaVuSans-30" x="63.623047"/>
      </g>
     </g>
    </g>
    <g id="text_12">
     <!-- Time (d) -->
     <g transform="translate(210.022059 359.9255) scale(0.192 -0.192)">
      <defs>
       <path id="DejaVuSans-54" d="M -19 4666 
L 3928 4666 
L 3928 4134 
L 2272 4134 
L 2272 0 
L 1638 0 
L 1638 4134 
L -19 4134 
L -19 4666 
z
" transform="scale(0.015625)"/>
       <path id="DejaVuSans-69" d="M 603 3500 
L 1178 3500 
L 1178 0 
L 603 0 
L 603 3500 
z
M 603 4863 
L 1178 4863 
L 1178 4134 
L 603 4134 
L 603 4863 
z
" transform="scale(0.015625)"/>
       <path id="DejaVuSans-6d" d="M 3328 2828 
Q 3544 3216 3844 3400 
Q 4144 3584 4550 3584 
Q 5097 3584 5394 3201 
Q 5691 2819 5691 2113 
L 5691 0 
L 5113 0 
L 5113 2094 
Q 5113 2597 4934 2840 
Q 4756 3084 4391 3084 
Q 3944 3084 3684 2787 
Q 3425 2491 3425 1978 
L 3425 0 
L 2847 0 
L 2847 2094 
Q 2847 2600 2669 2842 
Q 2491 3084 2119 3084 
Q 1678 3084 1418 2786 
Q 1159 2488 1159 1978 
L 1159 0 
L 581 0 
L 581 3500 
L 1159 3500 
L 1159 2956 
Q 1356 3278 1631 3431 
Q 1906 3584 2284 3584 
Q 2666 3584 2933 3390 
Q 3200 3197 3328 2828 
z
" transform="scale(0.015625)"/>
       <path id="DejaVuSans-65" d="M 3597 1894 
L 3597 1613 
L 953 1613 
Q 991 1019 1311 708 
Q 1631 397 2203 397 
Q 2534 397 2845 478 
Q 3156 559 3463 722 
L 3463 178 
Q 3153 47 2828 -22 
Q 2503 -91 2169 -91 
Q 1331 -91 842 396 
Q 353 884 353 1716 
Q 353 2575 817 3079 
Q 1281 3584 2069 3584 
Q 2775 3584 3186 3129 
Q 3597 2675 3597 1894 
z
M 3022 2063 
Q 3016 2534 2758 2815 
Q 2500 3097 2075 3097 
Q 1594 3097 1305 2825 
Q 1016 2553 972 2059 
L 3022 2063 
z
" transform="scale(0.015625)"/>
       <path id="DejaVuSans-20" transform="scale(0.015625)"/>
       <path id="DejaVuSans-28" d="M 1984 4856 
Q 1566 4138 1362 3434 
Q 1159 2731 1159 2009 
Q 1159 1288 1364 580 
Q 1569 -128 1984 -844 
L 1484 -844 
Q 1016 -109 783 600 
Q 550 1309 550 2009 
Q 550 2706 781 3412 
Q 1013 4119 1484 4856 
L 1984 4856 
z
" transform="scale(0.015625)"/>
       <path id="DejaVuSans-64" d="M 2906 2969 
L 2906 4863 
L 3481 4863 
L 3481 0 
L 2906 0 
L 2906 525 
Q 2725 213 2448 61 
Q 2172 -91 1784 -91 
Q 1150 -91 751 415 
Q 353 922 353 1747 
Q 353 2572 751 3078 
Q 1150 3584 1784 3584 
Q 2172 3584 2448 3432 
Q 2725 3281 2906 2969 
z
M 947 1747 
Q 947 1113 1208 752 
Q 1469 391 1925 391 
Q 2381 391 2643 752 
Q 2906 1113 2906 1747 
Q 2906 2381 2643 2742 
Q 2381 3103 1925 3103 
Q 1469 3103 1208 2742 
Q 947 2381 947 1747 
z
" transform="scale(0.015625)"/>
       <path id="DejaVuSans-29" d="M 513 4856 
L 1013 4856 
Q 1481 4119 1714 3412 
Q 1947 2706 1947 2009 
Q 1947 1309 1714 600 
Q 1481 -109 1013 -844 
L 513 -844 
Q 928 -128 1133 580 
Q 1338 1288 1338 2009 
Q 1338 2731 1133 3434 
Q 928 4138 513 4856 
z
" transform="scale(0.015625)"/>
      </defs>
      <use xlink:href="#DejaVuSans-54"/>
      <use xlink:href="#DejaVuSans-69" x="57.958984"/>
      <use xlink:href="#DejaVuSans-6d" x="85.742188"/>
      <use xlink:href="#DejaVuSans-65" x="183.154297"/>
      <use xlink:href="#DejaVuSans-20" x="244.677734"/>
      <use xlink:href="#DejaVuSans-28" x="276.464844"/>
      <use xlink:href="#DejaVuSans-64" x="315.478516"/>
      <use xlink:href="#DejaVuSans-29" x="378.955078"/>
     </g>
    </g>
   </g>
   <g id="matplotlib.axis_2">
    <g id="ytick_1">
     <g id="line2d_12">
      <defs>
       <path id="m0a12c463d5" d="M 0 0 
L -3.5 0 
" style="stroke: #000000; stroke-width: 0.8"/>
      </defs>
      <g>
       <use xlink:href="#m0a12c463d5" x="135" y="320.4" style="stroke: #000000; stroke-width: 0.8"/>
      </g>
     </g>
     <g id="text_13">
      <!-- 0 -->
      <g transform="translate(118.838 325.870875) scale(0.144 -0.144)">
       <use xlink:href="#DejaVuSans-30"/>
      </g>
     </g>
    </g>
    <g id="ytick_2">
     <g id="line2d_13">
      <g>
       <use xlink:href="#m0a12c463d5" x="135" y="285.75" style="stroke: #000000; stroke-width: 0.8"/>
      </g>
     </g>
     <g id="text_14">
      <!-- 1 -->
      <g transform="translate(118.838 291.220875) scale(0.144 -0.144)">
       <use xlink:href="#DejaVuSans-31"/>
      </g>
     </g>
    </g>
    <g id="ytick_3">
     <g id="line2d_14">
      <g>
       <use xlink:href="#m0a12c463d5" x="135" y="251.1" style="stroke: #000000; stroke-width: 0.8"/>
      </g>
     </g>
     <g id="text_15">
      <!-- 2 -->
      <g transform="translate(118.838 256.570875) scale(0.144 -0.144)">
       <use xlink:href="#DejaVuSans-32"/>
      </g>
     </g>
    </g>
    <g id="ytick_4">
     <g id="line2d_15">
      <g>
       <use xlink:href="#m0a12c463d5" x="135" y="216.45" style="stroke: #000000; stroke-width: 0.8"/>
      </g>
     </g>
     <g id="text_16">
      <!-- 3 -->
      <g transform="translate(118.838 221.920875) scale(0.144 -0.144)">
       <use xlink:href="#DejaVuSans-33"/>
      </g>
     </g>
    </g>
    <g id="ytick_5">
     <g id="line2d_16">
      <g>
       <use xlink:href="#m0a12c463d5" x="135" y="181.8" style="stroke: #000000; stroke-width: 0.8"/>
      </g>
     </g>
     <g id="text_17">
      <!-- 4 -->
      <g transform="translate(118.838 187.270875) scale(0.144 -0.144)">
       <use xlink:href="#DejaVuSans-34"/>
      </g>
     </g>
    </g>
    <g id="ytick_6">
     <g id="line2d_17">
      <g>
       <use xlink:href="#m0a12c463d5" x="135" y="147.15" style="stroke: #000000; stroke-width: 0.8"/>
      </g>
     </g>
     <g id="text_18">
      <!-- 5 -->
      <g transform="translate(118.838 152.620875) scale(0.144 -0.144)">
       <use xlink:href="#DejaVuSans-35"/>
      </g>
     </g>
    </g>
    <g id="ytick_7">
     <g id="line2d_18">
      <g>
       <use xlink:href="#m0a12c463d5" x="135" y="112.5" style="stroke: #000000; stroke-width: 0.8"/>
      </g>
     </g>
     <g id="text_19">
      <!-- 6 -->
      <g transform="translate(118.838 117.970875) scale(0.144 -0.144)">
       <use xlink:href="#DejaVuSans-36"/>
      </g>
     </g>
    </g>
    <g id="ytick_8">
     <g id="line2d_19">
      <g>
       <use xlink:href="#m0a12c463d5" x="135" y="77.85" style="stroke: #000000; stroke-width: 0.8"/>
      </g>
     </g>
     <g id="text_20">
      <!-- 7 -->
      <g transform="translate(118.838 83.320875) scale(0.144 -0.144)">
       <use xlink:href="#DejaVuSans-37"/>
      </g>
     </g>
    </g>
    <g id="ytick_9">
     <g id="line2d_20">
      <g>
       <use xlink:href="#m0a12c463d5" x="135" y="43.2" style="stroke: #000000; stroke-width: 0.8"/>
      </g>
     </g>
     <g id="text_21">
      <!-- 8 -->
      <g transform="translate(118.838 48.670875) scale(0.144 -0.144)">
       <use xlink:href="#DejaVuSans-38"/>
      </g>
     </g>
    </g>
    <g id="text_22">
     <!-- Log10(V) -->
     <g transform="translate(110.845 225.2235) rotate(-90) scale(0.192 -0.192)">
      <defs>
       <path id="DejaVuSans-4c" d="M 628 4666 
L 1259 4666 
L 1259 531 
L 3531 531 
L 3531 0 
L 628 0 
L 628 4666 
z
" transform="scale(0.015625)"/>
       <path id="DejaVuSans-6f" d="M 1959 3097 
Q 1497 3097 1228 2736 
Q 959 2375 959 1747 
Q 959 1119 1226 758 
Q 1494 397 1959 397 
Q 2419 397 2687 759 
Q 2956 1122 2956 1747 
Q 2956 2369 2687 2733 
Q 2419 3097 1959 3097 
z
M 1959 3584 
Q 2709 3584 3137 3096 
Q 3566 2609 3566 1747 
Q 3566 888 3137 398 
Q 2709 -91 1959 -91 
Q 1206 -91 779 398 
Q 353 888 353 1747 
Q 353 2609 779 3096 
Q 1206 3584 1959 3584 
z
" transform="scale(0.015625)"/>
       <path id="DejaVuSans-67" d="M 2906 1791 
Q 2906 2416 2648 2759 
Q 2391 3103 1925 3103 
Q 1463 3103 1205 2759 
Q 947 2416 947 1791 
Q 947 1169 1205 825 
Q 1463 481 1925 481 
Q 2391 481 2648 825 
Q 2906 1169 2906 1791 
z
M 3481 434 
Q 3481 -459 3084 -895 
Q 2688 -1331 1869 -1331 
Q 1566 -1331 1297 -1286 
Q 1028 -1241 775 -1147 
L 775 -588 
Q 1028 -725 1275 -790 
Q 1522 -856 1778 -856 
Q 2344 -856 2625 -561 
Q 2906 -266 2906 331 
L 2906 616 
Q 2728 306 2450 153 
Q 2172 0 1784 0 
Q 1141 0 747 490 
Q 353 981 353 1791 
Q 353 2603 747 3093 
Q 1141 3584 1784 3584 
Q 2172 3584 2450 3431 
Q 2728 3278 2906 2969 
L 2906 3500 
L 3481 3500 
L 3481 434 
z
" transform="scale(0.015625)"/>
       <path id="DejaVuSans-56" d="M 1831 0 
L 50 4666 
L 709 4666 
L 2188 738 
L 3669 4666 
L 4325 4666 
L 2547 0 
L 1831 0 
z
" transform="scale(0.015625)"/>
      </defs>
      <use xlink:href="#DejaVuSans-4c"/>
      <use xlink:href="#DejaVuSans-6f" x="53.962891"/>
      <use xlink:href="#DejaVuSans-67" x="115.144531"/>
      <use xlink:href="#DejaVuSans-31" x="178.621094"/>
      <use xlink:href="#DejaVuSans-30" x="242.244141"/>
      <use xlink:href="#DejaVuSans-28" x="305.867188"/>
      <use xlink:href="#DejaVuSans-56" x="344.880859"/>
      <use xlink:href="#DejaVuSans-29" x="413.289062"/>
     </g>
    </g>
   </g>
   <g id="patch_3">
    <path d="M 135 320.4 
L 135 43.2 
" style="fill: none; stroke: #000000; stroke-width: 0.8; stroke-linejoin: miter; stroke-linecap: square"/>
   </g>
   <g id="patch_4">
    <path d="M 365.294118 320.4 
L 365.294118 43.2 
" style="fill: none; stroke: #000000; stroke-width: 0.8; stroke-linejoin: miter; stroke-linecap: square"/>
   </g>
   <g id="patch_5">
    <path d="M 135 320.4 
L 365.294118 320.4 
" style="fill: none; stroke: #000000; stroke-width: 0.8; stroke-linejoin: miter; stroke-linecap: square"/>
   </g>
   <g id="patch_6">
    <path d="M 135 43.2 
L 365.294118 43.2 
" style="fill: none; stroke: #000000; stroke-width: 0.8; stroke-linejoin: miter; stroke-linecap: square"/>
   </g>
   <g id="PolyCollection_1">
    <defs>
     <path id="mde36775555" d="M 137.257785 -39.6 
L 137.257785 -39.6 
L 137.258139 -39.6 
L 137.261676 -39.6 
L 137.297045 -39.6 
L 137.384673 -39.6 
L 137.482451 -39.6 
L 137.725644 -39.6 
L 138.015519 -39.6 
L 138.678396 -39.6 
L 139.178149 -39.6 
L 140.265431 -39.6 
L 140.897166 -42.103069 
L 142.131027 -50.625248 
L 142.825695 -55.35924 
L 144.012798 -63.411491 
L 144.766769 -68.495337 
L 145.969525 -76.662845 
L 146.7644 -82.029457 
L 147.956507 -90.089957 
L 148.783162 -95.662675 
L 150.103755 -104.522516 
L 150.916528 -109.683601 
L 152.047678 -116.914826 
L 152.896924 -122.317775 
L 154.135781 -130.203622 
L 154.978298 -135.553146 
L 156.119319 -142.815158 
L 156.984872 -148.308054 
L 158.185501 -155.910047 
L 159.05418 -161.390864 
L 160.286787 -169.134347 
L 161.154539 -174.547668 
L 162.396013 -182.180168 
L 163.281648 -187.536638 
L 164.538236 -194.8893 
L 165.455486 -200.069034 
L 166.786409 -207.021374 
L 167.686425 -211.352567 
L 168.909468 -216.441027 
L 169.842512 -219.870022 
L 171.190687 -223.711665 
L 172.114489 -225.870862 
L 173.19175 -227.753805 
L 174.064406 -228.989228 
L 175.049696 -230.062798 
L 176.034985 -230.866951 
L 176.886666 -231.400578 
L 177.63099 -231.782414 
L 178.299638 -232.063336 
L 178.885334 -232.275082 
L 179.408441 -232.423747 
L 179.875233 -232.539387 
L 180.342026 -232.640741 
L 180.724195 -232.710758 
L 181.073301 -232.764578 
L 181.422408 -232.814164 
L 181.707309 -232.847704 
L 182.029267 -232.880895 
L 183.020804 -232.952914 
L 183.441348 -232.969432 
L 184.630448 -232.986032 
L 185.201963 -232.975029 
L 187.106782 -232.888054 
L 188.059753 -232.822514 
L 190.317538 -232.597415 
L 191.580094 -232.420457 
L 193.837879 -231.955256 
L 195.506675 -231.590101 
L 197.764461 -231.076062 
L 200.022246 -230.542365 
L 202.280032 -229.990032 
L 204.537817 -229.419744 
L 206.795603 -228.82871 
L 209.053388 -228.216901 
L 211.311174 -227.581167 
L 213.568959 -226.915757 
L 215.826745 -226.221429 
L 218.08453 -225.49368 
L 220.342316 -224.729927 
L 222.600101 -223.92798 
L 224.857887 -223.086089 
L 227.115672 -222.202939 
L 229.373457 -221.277612 
L 231.631243 -220.309525 
L 233.889028 -219.29835 
L 236.146814 -218.243923 
L 238.404599 -217.146147 
L 240.662385 -216.004894 
L 242.92017 -214.819907 
L 245.177956 -213.590703 
L 247.435741 -212.316475 
L 249.693527 -210.980979 
L 251.951312 -209.517991 
L 254.209098 -208.00586 
L 256.466883 -206.441347 
L 258.724669 -204.82016 
L 260.982454 -203.136762 
L 263.240239 -201.384093 
L 265.498025 -199.553197 
L 267.75581 -197.632688 
L 270.013596 -195.607988 
L 272.271381 -193.460189 
L 274.529167 -191.164341 
L 276.786952 -188.686729 
L 279.044738 -185.980415 
L 281.302523 -182.977454 
L 283.560309 -179.574387 
L 285.818094 -175.602579 
L 288.07588 -170.586003 
L 290.333665 -163.557903 
L 292.591451 -151.546426 
L 294.849236 -123.150662 
L 295.221843 -113.075938 
L 295.413975 -102.868248 
L 295.58853 -90.494222 
L 295.790911 -69.671802 
L 295.947029 -54.004598 
L 296.103147 -39.6 
L 296.259265 -39.6 
L 296.48652 -39.6 
L 296.713775 -39.6 
L 297.057067 -39.6 
L 297.648993 -39.6 
L 299.071957 -39.6 
L 300.494921 -39.6 
L 302.46981 -39.6 
L 304.444699 -39.6 
L 306.702485 -39.6 
L 308.96027 -39.6 
L 311.218055 -39.6 
L 313.475841 -39.6 
L 315.733626 -39.6 
L 317.991412 -39.6 
L 320.249197 -39.6 
L 322.506983 -39.6 
L 324.764768 -39.6 
L 327.022554 -39.6 
L 329.280339 -39.6 
L 331.538125 -39.6 
L 333.79591 -39.6 
L 336.053696 -39.6 
L 338.311481 -39.6 
L 340.569267 -39.6 
L 342.827052 -39.6 
L 345.084837 -39.6 
L 347.342623 -39.6 
L 349.600408 -39.6 
L 351.858194 -39.6 
L 354.115979 -39.6 
L 356.373765 -39.6 
L 358.63155 -39.6 
L 360.889336 -39.6 
L 363.036332 -39.6 
L 363.036332 -39.6 
L 363.036332 -39.6 
L 360.889336 -39.6 
L 358.63155 -39.6 
L 356.373765 -39.6 
L 354.115979 -39.6 
L 351.858194 -39.6 
L 349.600408 -39.6 
L 347.342623 -39.6 
L 345.084837 -39.6 
L 342.827052 -39.6 
L 340.569267 -39.6 
L 338.311481 -39.6 
L 336.053696 -39.6 
L 333.79591 -39.6 
L 331.538125 -39.6 
L 329.280339 -39.6 
L 327.022554 -39.6 
L 324.764768 -39.6 
L 322.506983 -39.6 
L 320.249197 -39.6 
L 317.991412 -39.6 
L 315.733626 -39.6 
L 313.475841 -39.6 
L 311.218055 -39.6 
L 308.96027 -39.6 
L 306.702485 -39.6 
L 304.444699 -39.6 
L 302.46981 -39.6 
L 300.494921 -39.6 
L 299.071957 -48.570521 
L 297.648993 -81.938373 
L 297.057067 -95.635393 
L 296.713775 -103.043915 
L 296.48652 -107.594698 
L 296.259265 -112.145481 
L 296.103147 -115.271743 
L 295.947029 -118.398005 
L 295.790911 -121.329301 
L 295.58853 -126.418974 
L 295.413975 -131.668767 
L 295.221843 -135.796807 
L 294.849236 -141.269246 
L 292.591451 -160.864737 
L 290.333665 -170.813801 
L 288.07588 -177.132617 
L 285.818094 -181.861648 
L 283.560309 -185.692969 
L 281.302523 -188.94628 
L 279.044738 -191.795912 
L 276.786952 -194.347452 
L 274.529167 -196.669674 
L 272.271381 -198.809829 
L 270.013596 -200.801714 
L 267.75581 -202.670273 
L 265.498025 -204.434358 
L 263.240239 -206.108483 
L 260.982454 -207.703969 
L 258.724669 -209.229715 
L 256.466883 -210.692738 
L 254.209098 -212.098556 
L 251.951312 -213.451463 
L 249.693527 -214.754735 
L 247.435741 -216.010794 
L 245.177956 -217.22133 
L 242.92017 -218.387414 
L 240.662385 -219.509589 
L 238.404599 -220.587964 
L 236.146814 -221.622306 
L 233.889028 -222.612139 
L 231.631243 -223.556843 
L 229.373457 -224.455766 
L 227.115672 -225.308343 
L 224.857887 -226.114211 
L 222.600101 -226.873335 
L 220.342316 -227.586113 
L 218.08453 -228.253471 
L 215.826745 -228.894869 
L 213.568959 -229.506619 
L 211.311174 -230.077975 
L 209.053388 -230.611964 
L 206.795603 -231.111989 
L 204.537817 -231.581581 
L 202.280032 -232.024073 
L 200.022246 -232.442185 
L 197.764461 -232.838056 
L 195.506675 -233.209241 
L 193.837879 -233.470917 
L 191.580094 -233.793229 
L 190.317538 -233.963529 
L 188.059753 -234.217881 
L 187.106782 -234.31605 
L 185.201963 -234.451479 
L 184.630448 -234.486739 
L 183.441348 -234.518104 
L 183.020804 -234.523782 
L 182.029267 -234.508693 
L 181.707309 -234.497296 
L 181.422408 -234.486913 
L 181.073301 -234.465129 
L 180.724195 -234.437724 
L 180.342026 -234.401375 
L 179.875233 -234.346915 
L 179.408441 -234.279901 
L 178.885334 -234.189567 
L 178.299638 -234.064153 
L 177.63099 -233.886181 
L 176.886666 -233.639193 
L 176.034985 -233.279877 
L 175.049696 -232.737852 
L 174.064406 -232.030697 
L 173.19175 -231.230421 
L 172.114489 -229.909336 
L 171.190687 -228.456983 
L 169.842512 -225.505375 
L 168.909468 -222.952603 
L 167.686425 -218.579211 
L 166.786409 -214.839635 
L 165.455486 -208.267208 
L 164.538236 -203.271843 
L 163.281648 -195.834409 
L 162.396013 -190.370077 
L 161.154539 -182.42541 
L 160.286787 -176.775617 
L 159.05418 -168.614148 
L 158.185501 -162.833298 
L 156.984872 -154.787738 
L 156.119319 -148.983256 
L 154.978298 -141.285706 
L 154.135781 -135.611943 
L 152.896924 -127.251755 
L 152.047678 -121.532701 
L 150.916528 -113.869158 
L 150.103755 -108.380939 
L 148.783162 -99.453382 
L 147.956507 -93.880449 
L 146.7644 -85.815829 
L 145.969525 -80.458397 
L 144.766769 -72.348008 
L 144.012798 -67.372453 
L 142.825695 -59.489206 
L 142.131027 -54.871094 
L 140.897166 -46.446795 
L 140.265431 -41.963479 
L 139.178149 -39.733714 
L 138.678396 -39.6 
L 138.015519 -39.6 
L 137.725644 -39.6 
L 137.482451 -39.6 
L 137.384673 -39.6 
L 137.297045 -39.6 
L 137.261676 -39.6 
L 137.258139 -39.6 
L 137.257785 -39.6 
z
" style="stroke: #808080; stroke-opacity: 0.2"/>
    </defs>
    <g clip-path="url(#p151b91dda6)">
     <use xlink:href="#mde36775555" x="0" y="360" style="fill: #808080; fill-opacity: 0.2; stroke: #808080; stroke-opacity: 0.2"/>
    </g>
   </g>
   <g id="PathCollection_1">
    <defs>
     <path id="mcc3bef3d17" d="M 0 4.330127 
C 1.148363 4.330127 2.249847 3.873878 3.061862 3.061862 
C 3.873878 2.249847 4.330127 1.148363 4.330127 0 
C 4.330127 -1.148363 3.873878 -2.249847 3.061862 -3.061862 
C 2.249847 -3.873878 1.148363 -4.330127 0 -4.330127 
C -1.148363 -4.330127 -2.249847 -3.873878 -3.061862 -3.061862 
C -3.873878 -2.249847 -4.330127 -1.148363 -4.330127 0 
C -4.330127 1.148363 -3.873878 2.249847 -3.061862 3.061862 
C -2.249847 3.873878 -1.148363 4.330127 0 4.330127 
z
" style="stroke: #808080; stroke-opacity: 0.8"/>
    </defs>
    <g clip-path="url(#p151b91dda6)">
     <use xlink:href="#mcc3bef3d17" x="137.257785" y="320.4" style="fill: #808080; fill-opacity: 0.8; stroke: #808080; stroke-opacity: 0.8"/>
     <use xlink:href="#mcc3bef3d17" x="159.83564" y="187.90081" style="fill: #808080; fill-opacity: 0.8; stroke: #808080; stroke-opacity: 0.8"/>
     <use xlink:href="#mcc3bef3d17" x="182.413495" y="133.46933" style="fill: #808080; fill-opacity: 0.8; stroke: #808080; stroke-opacity: 0.8"/>
     <use xlink:href="#mcc3bef3d17" x="204.991349" y="116.956735" style="fill: #808080; fill-opacity: 0.8; stroke: #808080; stroke-opacity: 0.8"/>
     <use xlink:href="#mcc3bef3d17" x="227.569204" y="142.912608" style="fill: #808080; fill-opacity: 0.8; stroke: #808080; stroke-opacity: 0.8"/>
     <use xlink:href="#mcc3bef3d17" x="250.147059" y="176.236646" style="fill: #808080; fill-opacity: 0.8; stroke: #808080; stroke-opacity: 0.8"/>
     <use xlink:href="#mcc3bef3d17" x="272.724913" y="140.331054" style="fill: #808080; fill-opacity: 0.8; stroke: #808080; stroke-opacity: 0.8"/>
     <use xlink:href="#mcc3bef3d17" x="295.302768" y="235.39252" style="fill: #808080; fill-opacity: 0.8; stroke: #808080; stroke-opacity: 0.8"/>
    </g>
   </g>
   <g id="PathCollection_2">
    <defs>
     <path id="m0839c12474" d="M 0 4.330127 
C 1.148363 4.330127 2.249847 3.873878 3.061862 3.061862 
C 3.873878 2.249847 4.330127 1.148363 4.330127 0 
C 4.330127 -1.148363 3.873878 -2.249847 3.061862 -3.061862 
C 2.249847 -3.873878 1.148363 -4.330127 0 -4.330127 
C -1.148363 -4.330127 -2.249847 -3.873878 -3.061862 -3.061862 
C -3.873878 -2.249847 -4.330127 -1.148363 -4.330127 0 
C -4.330127 1.148363 -3.873878 2.249847 -3.061862 3.061862 
C -2.249847 3.873878 -1.148363 4.330127 0 4.330127 
z
" style="stroke: #000000; stroke-opacity: 0.8"/>
    </defs>
    <g clip-path="url(#p151b91dda6)">
     <use xlink:href="#m0839c12474" x="137.257785" y="320.4" style="fill-opacity: 0.8; stroke: #000000; stroke-opacity: 0.8"/>
     <use xlink:href="#m0839c12474" x="159.83564" y="187.90081" style="fill-opacity: 0.8; stroke: #000000; stroke-opacity: 0.8"/>
     <use xlink:href="#m0839c12474" x="182.413495" y="133.46933" style="fill-opacity: 0.8; stroke: #000000; stroke-opacity: 0.8"/>
     <use xlink:href="#m0839c12474" x="204.991349" y="116.956735" style="fill-opacity: 0.8; stroke: #000000; stroke-opacity: 0.8"/>
     <use xlink:href="#m0839c12474" x="227.569204" y="142.912608" style="fill-opacity: 0.8; stroke: #000000; stroke-opacity: 0.8"/>
     <use xlink:href="#m0839c12474" x="250.147059" y="176.236646" style="fill-opacity: 0.8; stroke: #000000; stroke-opacity: 0.8"/>
     <use xlink:href="#m0839c12474" x="272.724913" y="140.331054" style="fill-opacity: 0.8; stroke: #000000; stroke-opacity: 0.8"/>
     <use xlink:href="#m0839c12474" x="295.302768" y="235.39252" style="fill-opacity: 0.8; stroke: #000000; stroke-opacity: 0.8"/>
    </g>
   </g>
   <g id="line2d_21">
    <path d="M 137.257785 320.4 
L 140.265431 320.4 
L 140.897166 316.985679 
L 145.969525 282.346389 
L 162.396013 172.038331 
L 164.538236 158.898011 
L 165.455486 153.718388 
L 166.786409 146.911037 
L 167.686425 142.891971 
L 168.909468 138.303147 
L 169.842512 135.480477 
L 171.190687 132.367168 
L 172.114489 130.782265 
L 173.19175 129.378955 
L 174.064406 128.516396 
L 175.049696 127.768521 
L 176.886666 126.839105 
L 178.299638 126.414029 
L 180.342026 126.095577 
L 182.029267 126.015938 
L 185.201963 126.153142 
L 188.059753 126.477905 
L 193.837879 127.438816 
L 200.022246 128.69401 
L 206.795603 130.242831 
L 213.568959 132.009606 
L 220.342316 134.073903 
L 224.857887 135.648005 
L 229.373457 137.392762 
L 233.889028 139.311419 
L 238.404599 141.403573 
L 242.92017 143.668432 
L 247.435741 146.108034 
L 251.951312 148.730333 
L 256.466883 151.552403 
L 260.982454 154.604455 
L 265.498025 157.936013 
L 270.013596 161.626893 
L 274.529167 165.809136 
L 276.786952 168.151028 
L 279.044738 170.716301 
L 281.302523 173.570623 
L 283.560309 176.814076 
L 285.818094 180.610113 
L 288.07588 185.253297 
L 290.333665 191.361366 
L 292.591451 200.630692 
L 294.849236 222.21605 
L 295.221843 231.658408 
L 295.58853 250.384611 
L 295.947029 290.186325 
L 296.259265 320.4 
L 363.036332 320.4 
L 363.036332 320.4 
" clip-path="url(#p151b91dda6)" style="fill: none; stroke: #808080; stroke-width: 1.5; stroke-linecap: square"/>
   </g>
  </g>
  <g id="axes_2">
   <g id="patch_7">
    <path d="M 411.352941 320.4 
L 641.647059 320.4 
L 641.647059 43.2 
L 411.352941 43.2 
z
" style="fill: #ffffff"/>
   </g>
   <g id="matplotlib.axis_3">
    <g id="xtick_12">
     <g id="line2d_22">
      <g>
       <use xlink:href="#m374ab8e2f9" x="413.610727" y="320.4" style="stroke: #000000; stroke-width: 0.8"/>
      </g>
     </g>
     <g id="text_23">
      <!-- 0 -->
      <g transform="translate(409.029727 338.34175) scale(0.144 -0.144)">
       <use xlink:href="#DejaVuSans-30"/>
      </g>
     </g>
    </g>
    <g id="xtick_13">
     <g id="line2d_23">
      <g>
       <use xlink:href="#m374ab8e2f9" x="436.188581" y="320.4" style="stroke: #000000; stroke-width: 0.8"/>
      </g>
     </g>
     <g id="text_24">
      <!-- 1 -->
      <g transform="translate(431.607581 338.34175) scale(0.144 -0.144)">
       <use xlink:href="#DejaVuSans-31"/>
      </g>
     </g>
    </g>
    <g id="xtick_14">
     <g id="line2d_24">
      <g>
       <use xlink:href="#m374ab8e2f9" x="458.766436" y="320.4" style="stroke: #000000; stroke-width: 0.8"/>
      </g>
     </g>
     <g id="text_25">
      <!-- 2 -->
      <g transform="translate(454.185436 338.34175) scale(0.144 -0.144)">
       <use xlink:href="#DejaVuSans-32"/>
      </g>
     </g>
    </g>
    <g id="xtick_15">
     <g id="line2d_25">
      <g>
       <use xlink:href="#m374ab8e2f9" x="481.344291" y="320.4" style="stroke: #000000; stroke-width: 0.8"/>
      </g>
     </g>
     <g id="text_26">
      <!-- 3 -->
      <g transform="translate(476.763291 338.34175) scale(0.144 -0.144)">
       <use xlink:href="#DejaVuSans-33"/>
      </g>
     </g>
    </g>
    <g id="xtick_16">
     <g id="line2d_26">
      <g>
       <use xlink:href="#m374ab8e2f9" x="503.922145" y="320.4" style="stroke: #000000; stroke-width: 0.8"/>
      </g>
     </g>
     <g id="text_27">
      <!-- 4 -->
      <g transform="translate(499.341145 338.34175) scale(0.144 -0.144)">
       <use xlink:href="#DejaVuSans-34"/>
      </g>
     </g>
    </g>
    <g id="xtick_17">
     <g id="line2d_27">
      <g>
       <use xlink:href="#m374ab8e2f9" x="526.5" y="320.4" style="stroke: #000000; stroke-width: 0.8"/>
      </g>
     </g>
     <g id="text_28">
      <!-- 5 -->
      <g transform="translate(521.919 338.34175) scale(0.144 -0.144)">
       <use xlink:href="#DejaVuSans-35"/>
      </g>
     </g>
    </g>
    <g id="xtick_18">
     <g id="line2d_28">
      <g>
       <use xlink:href="#m374ab8e2f9" x="549.077855" y="320.4" style="stroke: #000000; stroke-width: 0.8"/>
      </g>
     </g>
     <g id="text_29">
      <!-- 6 -->
      <g transform="translate(544.496855 338.34175) scale(0.144 -0.144)">
       <use xlink:href="#DejaVuSans-36"/>
      </g>
     </g>
    </g>
    <g id="xtick_19">
     <g id="line2d_29">
      <g>
       <use xlink:href="#m374ab8e2f9" x="571.655709" y="320.4" style="stroke: #000000; stroke-width: 0.8"/>
      </g>
     </g>
     <g id="text_30">
      <!-- 7 -->
      <g transform="translate(567.074709 338.34175) scale(0.144 -0.144)">
       <use xlink:href="#DejaVuSans-37"/>
      </g>
     </g>
    </g>
    <g id="xtick_20">
     <g id="line2d_30">
      <g>
       <use xlink:href="#m374ab8e2f9" x="594.233564" y="320.4" style="stroke: #000000; stroke-width: 0.8"/>
      </g>
     </g>
     <g id="text_31">
      <!-- 8 -->
      <g transform="translate(589.652564 338.34175) scale(0.144 -0.144)">
       <use xlink:href="#DejaVuSans-38"/>
      </g>
     </g>
    </g>
    <g id="xtick_21">
     <g id="line2d_31">
      <g>
       <use xlink:href="#m374ab8e2f9" x="616.811419" y="320.4" style="stroke: #000000; stroke-width: 0.8"/>
      </g>
     </g>
     <g id="text_32">
      <!-- 9 -->
      <g transform="translate(612.230419 338.34175) scale(0.144 -0.144)">
       <use xlink:href="#DejaVuSans-39"/>
      </g>
     </g>
    </g>
    <g id="xtick_22">
     <g id="line2d_32">
      <g>
       <use xlink:href="#m374ab8e2f9" x="639.389273" y="320.4" style="stroke: #000000; stroke-width: 0.8"/>
      </g>
     </g>
     <g id="text_33">
      <!-- 10 -->
      <g transform="translate(630.227273 338.34175) scale(0.144 -0.144)">
       <use xlink:href="#DejaVuSans-31"/>
       <use xlink:href="#DejaVuSans-30" x="63.623047"/>
      </g>
     </g>
    </g>
    <g id="text_34">
     <!-- Time (d) -->
     <g transform="translate(486.375 359.9255) scale(0.192 -0.192)">
      <use xlink:href="#DejaVuSans-54"/>
      <use xlink:href="#DejaVuSans-69" x="57.958984"/>
      <use xlink:href="#DejaVuSans-6d" x="85.742188"/>
      <use xlink:href="#DejaVuSans-65" x="183.154297"/>
      <use xlink:href="#DejaVuSans-20" x="244.677734"/>
      <use xlink:href="#DejaVuSans-28" x="276.464844"/>
      <use xlink:href="#DejaVuSans-64" x="315.478516"/>
      <use xlink:href="#DejaVuSans-29" x="378.955078"/>
     </g>
    </g>
   </g>
   <g id="matplotlib.axis_4">
    <g id="ytick_10">
     <g id="line2d_33">
      <g>
       <use xlink:href="#m0a12c463d5" x="411.352941" y="320.4" style="stroke: #000000; stroke-width: 0.8"/>
      </g>
     </g>
     <g id="text_35">
      <!-- 4.0 -->
      <g transform="translate(381.452441 325.870875) scale(0.144 -0.144)">
       <defs>
        <path id="DejaVuSans-2e" d="M 684 794 
L 1344 794 
L 1344 0 
L 684 0 
L 684 794 
z
" transform="scale(0.015625)"/>
       </defs>
       <use xlink:href="#DejaVuSans-34"/>
       <use xlink:href="#DejaVuSans-2e" x="63.623047"/>
       <use xlink:href="#DejaVuSans-30" x="95.410156"/>
      </g>
     </g>
    </g>
    <g id="ytick_11">
     <g id="line2d_34">
      <g>
       <use xlink:href="#m0a12c463d5" x="411.352941" y="280.8" style="stroke: #000000; stroke-width: 0.8"/>
      </g>
     </g>
     <g id="text_36">
      <!-- 4.5 -->
      <g transform="translate(381.452441 286.270875) scale(0.144 -0.144)">
       <use xlink:href="#DejaVuSans-34"/>
       <use xlink:href="#DejaVuSans-2e" x="63.623047"/>
       <use xlink:href="#DejaVuSans-35" x="95.410156"/>
      </g>
     </g>
    </g>
    <g id="ytick_12">
     <g id="line2d_35">
      <g>
       <use xlink:href="#m0a12c463d5" x="411.352941" y="241.2" style="stroke: #000000; stroke-width: 0.8"/>
      </g>
     </g>
     <g id="text_37">
      <!-- 5.0 -->
      <g transform="translate(381.452441 246.670875) scale(0.144 -0.144)">
       <use xlink:href="#DejaVuSans-35"/>
       <use xlink:href="#DejaVuSans-2e" x="63.623047"/>
       <use xlink:href="#DejaVuSans-30" x="95.410156"/>
      </g>
     </g>
    </g>
    <g id="ytick_13">
     <g id="line2d_36">
      <g>
       <use xlink:href="#m0a12c463d5" x="411.352941" y="201.6" style="stroke: #000000; stroke-width: 0.8"/>
      </g>
     </g>
     <g id="text_38">
      <!-- 5.5 -->
      <g transform="translate(381.452441 207.070875) scale(0.144 -0.144)">
       <use xlink:href="#DejaVuSans-35"/>
       <use xlink:href="#DejaVuSans-2e" x="63.623047"/>
       <use xlink:href="#DejaVuSans-35" x="95.410156"/>
      </g>
     </g>
    </g>
    <g id="ytick_14">
     <g id="line2d_37">
      <g>
       <use xlink:href="#m0a12c463d5" x="411.352941" y="162" style="stroke: #000000; stroke-width: 0.8"/>
      </g>
     </g>
     <g id="text_39">
      <!-- 6.0 -->
      <g transform="translate(381.452441 167.470875) scale(0.144 -0.144)">
       <use xlink:href="#DejaVuSans-36"/>
       <use xlink:href="#DejaVuSans-2e" x="63.623047"/>
       <use xlink:href="#DejaVuSans-30" x="95.410156"/>
      </g>
     </g>
    </g>
    <g id="ytick_15">
     <g id="line2d_38">
      <g>
       <use xlink:href="#m0a12c463d5" x="411.352941" y="122.4" style="stroke: #000000; stroke-width: 0.8"/>
      </g>
     </g>
     <g id="text_40">
      <!-- 6.5 -->
      <g transform="translate(381.452441 127.870875) scale(0.144 -0.144)">
       <use xlink:href="#DejaVuSans-36"/>
       <use xlink:href="#DejaVuSans-2e" x="63.623047"/>
       <use xlink:href="#DejaVuSans-35" x="95.410156"/>
      </g>
     </g>
    </g>
    <g id="ytick_16">
     <g id="line2d_39">
      <g>
       <use xlink:href="#m0a12c463d5" x="411.352941" y="82.8" style="stroke: #000000; stroke-width: 0.8"/>
      </g>
     </g>
     <g id="text_41">
      <!-- 7.0 -->
      <g transform="translate(381.452441 88.270875) scale(0.144 -0.144)">
       <use xlink:href="#DejaVuSans-37"/>
       <use xlink:href="#DejaVuSans-2e" x="63.623047"/>
       <use xlink:href="#DejaVuSans-30" x="95.410156"/>
      </g>
     </g>
    </g>
    <g id="ytick_17">
     <g id="line2d_40">
      <g>
       <use xlink:href="#m0a12c463d5" x="411.352941" y="43.2" style="stroke: #000000; stroke-width: 0.8"/>
      </g>
     </g>
     <g id="text_42">
      <!-- 7.5 -->
      <g transform="translate(381.452441 48.670875) scale(0.144 -0.144)">
       <use xlink:href="#DejaVuSans-37"/>
       <use xlink:href="#DejaVuSans-2e" x="63.623047"/>
       <use xlink:href="#DejaVuSans-35" x="95.410156"/>
      </g>
     </g>
    </g>
    <g id="text_43">
     <!-- Log10(CD8TE) -->
     <g transform="translate(373.459441 250.7895) rotate(-90) scale(0.192 -0.192)">
      <defs>
       <path id="DejaVuSans-43" d="M 4122 4306 
L 4122 3641 
Q 3803 3938 3442 4084 
Q 3081 4231 2675 4231 
Q 1875 4231 1450 3742 
Q 1025 3253 1025 2328 
Q 1025 1406 1450 917 
Q 1875 428 2675 428 
Q 3081 428 3442 575 
Q 3803 722 4122 1019 
L 4122 359 
Q 3791 134 3420 21 
Q 3050 -91 2638 -91 
Q 1578 -91 968 557 
Q 359 1206 359 2328 
Q 359 3453 968 4101 
Q 1578 4750 2638 4750 
Q 3056 4750 3426 4639 
Q 3797 4528 4122 4306 
z
" transform="scale(0.015625)"/>
       <path id="DejaVuSans-44" d="M 1259 4147 
L 1259 519 
L 2022 519 
Q 2988 519 3436 956 
Q 3884 1394 3884 2338 
Q 3884 3275 3436 3711 
Q 2988 4147 2022 4147 
L 1259 4147 
z
M 628 4666 
L 1925 4666 
Q 3281 4666 3915 4102 
Q 4550 3538 4550 2338 
Q 4550 1131 3912 565 
Q 3275 0 1925 0 
L 628 0 
L 628 4666 
z
" transform="scale(0.015625)"/>
       <path id="DejaVuSans-45" d="M 628 4666 
L 3578 4666 
L 3578 4134 
L 1259 4134 
L 1259 2753 
L 3481 2753 
L 3481 2222 
L 1259 2222 
L 1259 531 
L 3634 531 
L 3634 0 
L 628 0 
L 628 4666 
z
" transform="scale(0.015625)"/>
      </defs>
      <use xlink:href="#DejaVuSans-4c"/>
      <use xlink:href="#DejaVuSans-6f" x="53.962891"/>
      <use xlink:href="#DejaVuSans-67" x="115.144531"/>
      <use xlink:href="#DejaVuSans-31" x="178.621094"/>
      <use xlink:href="#DejaVuSans-30" x="242.244141"/>
      <use xlink:href="#DejaVuSans-28" x="305.867188"/>
      <use xlink:href="#DejaVuSans-43" x="344.880859"/>
      <use xlink:href="#DejaVuSans-44" x="414.705078"/>
      <use xlink:href="#DejaVuSans-38" x="491.707031"/>
      <use xlink:href="#DejaVuSans-54" x="555.330078"/>
      <use xlink:href="#DejaVuSans-45" x="616.414062"/>
      <use xlink:href="#DejaVuSans-29" x="679.597656"/>
     </g>
    </g>
   </g>
   <g id="patch_8">
    <path d="M 411.352941 320.4 
L 411.352941 43.2 
" style="fill: none; stroke: #000000; stroke-width: 0.8; stroke-linejoin: miter; stroke-linecap: square"/>
   </g>
   <g id="patch_9">
    <path d="M 641.647059 320.4 
L 641.647059 43.2 
" style="fill: none; stroke: #000000; stroke-width: 0.8; stroke-linejoin: miter; stroke-linecap: square"/>
   </g>
   <g id="patch_10">
    <path d="M 411.352941 320.4 
L 641.647059 320.4 
" style="fill: none; stroke: #000000; stroke-width: 0.8; stroke-linejoin: miter; stroke-linecap: square"/>
   </g>
   <g id="patch_11">
    <path d="M 411.352941 43.2 
L 641.647059 43.2 
" style="fill: none; stroke: #000000; stroke-width: 0.8; stroke-linejoin: miter; stroke-linecap: square"/>
   </g>
   <g id="PolyCollection_2">
    <defs>
     <path id="me147c695c6" d="M 413.610727 -119.879795 
L 413.610727 -119.879795 
L 413.61108 -119.879795 
L 413.614617 -119.879795 
L 413.649986 -119.879795 
L 413.737615 -119.879795 
L 413.835392 -119.879795 
L 414.078585 -119.879795 
L 414.368461 -119.879795 
L 415.031338 -119.879795 
L 415.53109 -119.879795 
L 416.618373 -119.879795 
L 417.250107 -119.879795 
L 418.483968 -119.879795 
L 419.178636 -119.879795 
L 420.365739 -119.879795 
L 421.11971 -119.879795 
L 422.322466 -119.879795 
L 423.117341 -119.879795 
L 424.309449 -119.879795 
L 425.136104 -119.879795 
L 426.456697 -119.879795 
L 427.269469 -119.879795 
L 428.400619 -119.879795 
L 429.249865 -119.879795 
L 430.488722 -119.879795 
L 431.33124 -119.879795 
L 432.47226 -119.879795 
L 433.337813 -119.879796 
L 434.538442 -119.879797 
L 435.407122 -119.879799 
L 436.639728 -119.879803 
L 437.507481 -119.879807 
L 438.748954 -119.879818 
L 439.634589 -119.879831 
L 440.891178 -119.879861 
L 441.808428 -119.879898 
L 443.139351 -119.879987 
L 444.039366 -119.880088 
L 445.262409 -119.880307 
L 446.195453 -119.880581 
L 447.543628 -119.881233 
L 448.46743 -119.881972 
L 449.544691 -119.883318 
L 450.417347 -119.884941 
L 451.402637 -119.8877 
L 452.387927 -119.891889 
L 453.239607 -119.897188 
L 453.983931 -119.903781 
L 454.652579 -119.911453 
L 455.238276 -119.920199 
L 455.761382 -119.929836 
L 456.228174 -119.94038 
L 456.694967 -119.952802 
L 457.077136 -119.9648 
L 457.426242 -119.977409 
L 457.775349 -119.991679 
L 458.06025 -120.004838 
L 458.382208 -120.021618 
L 459.373745 -120.086746 
L 459.794289 -120.122098 
L 460.983389 -120.254005 
L 461.554904 -120.340901 
L 463.459723 -120.756387 
L 464.412694 -121.100537 
L 466.670479 -122.189543 
L 467.933035 -123.190322 
L 470.19082 -125.469379 
L 471.859617 -127.90004 
L 474.117402 -131.908927 
L 476.375188 -136.877192 
L 478.632973 -142.462841 
L 480.890758 -148.399664 
L 483.148544 -154.398454 
L 485.406329 -160.221497 
L 487.664115 -165.697338 
L 489.9219 -170.716348 
L 492.179686 -175.218249 
L 494.437471 -179.178693 
L 496.695257 -182.597934 
L 498.953042 -185.492286 
L 501.210828 -187.88807 
L 503.468613 -189.817463 
L 505.726399 -191.315709 
L 507.984184 -192.419268 
L 510.24197 -193.164588 
L 512.499755 -193.587296 
L 514.75754 -193.721662 
L 517.015326 -193.600251 
L 519.273111 -193.25369 
L 521.530897 -192.710529 
L 523.788682 -191.997158 
L 526.046468 -191.137771 
L 528.304253 -190.154374 
L 530.562039 -189.066818 
L 532.819824 -187.892867 
L 535.07761 -186.584627 
L 537.335395 -184.859688 
L 539.593181 -183.113867 
L 541.850966 -181.355804 
L 544.108752 -179.592791 
L 546.366537 -177.830957 
L 548.624322 -176.07544 
L 550.882108 -174.33055 
L 553.139893 -172.599902 
L 555.397679 -170.886539 
L 557.655464 -169.19304 
L 559.91325 -167.521601 
L 562.171035 -165.874111 
L 564.428821 -164.25221 
L 566.686606 -162.657333 
L 568.944392 -161.09075 
L 571.202177 -159.551608 
L 571.574784 -159.301078 
L 571.766916 -159.171895 
L 571.941471 -159.054651 
L 572.143852 -158.919414 
L 572.29997 -158.815091 
L 572.456088 -158.71082 
L 572.612206 -158.607014 
L 572.839461 -158.455908 
L 573.066716 -158.304979 
L 573.410008 -158.077832 
L 574.001934 -157.687818 
L 575.424898 -156.759141 
L 576.847863 -155.843353 
L 578.822751 -154.595817 
L 580.79764 -153.371432 
L 583.055426 -152.004065 
L 585.313211 -150.670019 
L 587.570997 -149.370706 
L 589.828782 -148.106533 
L 592.086568 -146.877827 
L 594.344353 -145.684843 
L 596.602138 -144.527754 
L 598.859924 -143.406661 
L 601.117709 -142.321583 
L 603.375495 -141.272465 
L 605.63328 -140.259176 
L 607.891066 -139.281509 
L 610.148851 -138.339186 
L 612.406637 -137.431858 
L 614.664422 -136.559108 
L 616.922208 -135.720458 
L 619.179993 -134.915367 
L 621.437779 -134.143239 
L 623.695564 -133.403428 
L 625.95335 -132.69524 
L 628.211135 -132.017939 
L 630.468921 -131.370751 
L 632.726706 -130.752873 
L 634.984491 -130.163472 
L 637.242277 -129.601694 
L 639.389273 -129.089669 
L 639.389273 -138.408946 
L 639.389273 -138.408946 
L 637.242277 -139.099327 
L 634.984491 -139.846378 
L 632.726706 -140.614633 
L 630.468921 -141.404207 
L 628.211135 -142.215188 
L 625.95335 -143.047635 
L 623.695564 -143.901585 
L 621.437779 -144.777044 
L 619.179993 -145.673994 
L 616.922208 -146.592388 
L 614.664422 -147.532153 
L 612.406637 -148.49319 
L 610.148851 -149.475374 
L 607.891066 -150.478554 
L 605.63328 -151.502554 
L 603.375495 -152.547175 
L 601.117709 -153.612192 
L 598.859924 -154.69736 
L 596.602138 -155.802408 
L 594.344353 -156.927047 
L 592.086568 -158.070961 
L 589.828782 -159.233818 
L 587.570997 -160.415258 
L 585.313211 -161.614902 
L 583.055426 -162.840326 
L 580.79764 -164.088088 
L 578.822751 -165.191452 
L 576.847863 -166.31027 
L 575.424898 -167.12186 
L 574.001934 -167.941226 
L 573.410008 -168.283667 
L 573.066716 -168.482898 
L 572.839461 -168.614964 
L 572.612206 -168.747217 
L 572.456088 -168.838173 
L 572.29997 -168.92919 
L 572.143852 -169.02028 
L 571.941471 -169.138504 
L 571.766916 -169.240473 
L 571.574784 -169.35291 
L 571.202177 -169.571244 
L 568.944392 -170.903325 
L 566.686606 -172.24878 
L 564.428821 -173.607412 
L 562.171035 -174.978206 
L 559.91325 -176.359968 
L 557.655464 -177.751274 
L 555.397679 -179.150418 
L 553.139893 -180.555339 
L 550.882108 -181.963535 
L 548.624322 -183.371968 
L 546.366537 -184.77695 
L 544.108752 -186.174013 
L 541.850966 -187.557766 
L 539.593181 -188.991661 
L 537.335395 -190.447614 
L 535.07761 -191.863997 
L 532.819824 -193.229324 
L 530.562039 -194.53032 
L 528.304253 -195.751758 
L 526.046468 -196.876319 
L 523.788682 -197.884464 
L 521.530897 -198.754333 
L 519.273111 -199.461667 
L 517.015326 -199.979761 
L 514.75754 -200.279443 
L 512.499755 -200.329104 
L 510.24197 -200.094759 
L 507.984184 -199.827562 
L 505.726399 -199.543582 
L 503.468613 -198.880568 
L 501.210828 -197.793388 
L 498.953042 -196.23529 
L 496.695257 -194.158787 
L 494.437471 -191.517093 
L 492.179686 -188.266399 
L 489.9219 -184.369485 
L 487.664115 -179.801397 
L 485.406329 -174.558165 
L 483.148544 -168.669767 
L 480.890758 -162.218186 
L 478.632973 -155.359608 
L 476.375188 -148.344916 
L 474.117402 -141.523776 
L 471.859617 -135.284064 
L 470.19082 -131.335362 
L 467.933035 -126.971702 
L 466.670479 -125.152228 
L 464.412694 -122.7151 
L 463.459723 -122.042431 
L 461.554904 -121.03452 
L 460.983389 -120.837971 
L 459.794289 -120.506317 
L 459.373745 -120.421266 
L 458.382208 -120.252531 
L 458.06025 -120.20986 
L 457.775349 -120.176206 
L 457.426242 -120.139082 
L 457.077136 -120.106394 
L 456.694967 -120.075123 
L 456.228174 -120.042233 
L 455.761382 -120.014671 
L 455.238276 -119.98907 
L 454.652579 -119.965868 
L 453.983931 -119.945165 
L 453.239607 -119.927677 
L 452.387927 -119.913302 
L 451.402637 -119.901766 
L 450.417347 -119.894143 
L 449.544691 -119.889616 
L 448.46743 -119.886021 
L 447.543628 -119.883939 
L 446.195453 -119.882071 
L 445.262409 -119.881294 
L 444.039366 -119.88068 
L 443.139351 -119.880378 
L 441.808428 -119.880116 
L 440.891178 -119.880003 
L 439.634589 -119.879911 
L 438.748954 -119.87987 
L 437.507481 -119.879836 
L 436.639728 -119.879821 
L 435.407122 -119.879809 
L 434.538442 -119.879804 
L 433.337813 -119.879799 
L 432.47226 -119.879797 
L 431.33124 -119.879796 
L 430.488722 -119.879795 
L 429.249865 -119.879795 
L 428.400619 -119.879795 
L 427.269469 -119.879795 
L 426.456697 -119.879795 
L 425.136104 -119.879795 
L 424.309449 -119.879795 
L 423.117341 -119.879795 
L 422.322466 -119.879795 
L 421.11971 -119.879795 
L 420.365739 -119.879795 
L 419.178636 -119.879795 
L 418.483968 -119.879795 
L 417.250107 -119.879795 
L 416.618373 -119.879795 
L 415.53109 -119.879795 
L 415.031338 -119.879795 
L 414.368461 -119.879795 
L 414.078585 -119.879795 
L 413.835392 -119.879795 
L 413.737615 -119.879795 
L 413.649986 -119.879795 
L 413.614617 -119.879795 
L 413.61108 -119.879795 
L 413.610727 -119.879795 
z
" style="stroke: #808080; stroke-opacity: 0.2"/>
    </defs>
    <g clip-path="url(#p982621bc1c)">
     <use xlink:href="#me147c695c6" x="0" y="360" style="fill: #808080; fill-opacity: 0.2; stroke: #808080; stroke-opacity: 0.2"/>
    </g>
   </g>
   <g id="PathCollection_3">
    <g clip-path="url(#p982621bc1c)">
     <use xlink:href="#mcc3bef3d17" x="413.610727" y="240.120205" style="fill: #808080; fill-opacity: 0.8; stroke: #808080; stroke-opacity: 0.8"/>
     <use xlink:href="#mcc3bef3d17" x="436.188581" y="194.012059" style="fill: #808080; fill-opacity: 0.8; stroke: #808080; stroke-opacity: 0.8"/>
     <use xlink:href="#mcc3bef3d17" x="458.766436" y="204.557849" style="fill: #808080; fill-opacity: 0.8; stroke: #808080; stroke-opacity: 0.8"/>
     <use xlink:href="#mcc3bef3d17" x="481.344291" y="207.787109" style="fill: #808080; fill-opacity: 0.8; stroke: #808080; stroke-opacity: 0.8"/>
     <use xlink:href="#mcc3bef3d17" x="503.922145" y="166.660632" style="fill: #808080; fill-opacity: 0.8; stroke: #808080; stroke-opacity: 0.8"/>
     <use xlink:href="#mcc3bef3d17" x="526.5" y="157.156615" style="fill: #808080; fill-opacity: 0.8; stroke: #808080; stroke-opacity: 0.8"/>
     <use xlink:href="#mcc3bef3d17" x="549.077855" y="168.550706" style="fill: #808080; fill-opacity: 0.8; stroke: #808080; stroke-opacity: 0.8"/>
     <use xlink:href="#mcc3bef3d17" x="571.655709" y="204.140522" style="fill: #808080; fill-opacity: 0.8; stroke: #808080; stroke-opacity: 0.8"/>
    </g>
   </g>
   <g id="PathCollection_4">
    <g clip-path="url(#p982621bc1c)">
     <use xlink:href="#m0839c12474" x="413.610727" y="240.120205" style="fill-opacity: 0.8; stroke: #000000; stroke-opacity: 0.8"/>
     <use xlink:href="#m0839c12474" x="436.188581" y="194.012059" style="fill-opacity: 0.8; stroke: #000000; stroke-opacity: 0.8"/>
     <use xlink:href="#m0839c12474" x="458.766436" y="204.557849" style="fill-opacity: 0.8; stroke: #000000; stroke-opacity: 0.8"/>
     <use xlink:href="#m0839c12474" x="481.344291" y="207.787109" style="fill-opacity: 0.8; stroke: #000000; stroke-opacity: 0.8"/>
     <use xlink:href="#m0839c12474" x="503.922145" y="166.660632" style="fill-opacity: 0.8; stroke: #000000; stroke-opacity: 0.8"/>
     <use xlink:href="#m0839c12474" x="526.5" y="157.156615" style="fill-opacity: 0.8; stroke: #000000; stroke-opacity: 0.8"/>
     <use xlink:href="#m0839c12474" x="549.077855" y="168.550706" style="fill-opacity: 0.8; stroke: #000000; stroke-opacity: 0.8"/>
     <use xlink:href="#m0839c12474" x="571.655709" y="204.140522" style="fill-opacity: 0.8; stroke: #000000; stroke-opacity: 0.8"/>
    </g>
   </g>
   <g id="line2d_41">
    <path d="M 413.610727 240.120205 
L 457.077136 240.012064 
L 459.794289 239.810336 
L 461.554904 239.535003 
L 463.459723 239.006356 
L 464.412694 238.617738 
L 466.670479 237.216971 
L 467.933035 236.07785 
L 470.19082 233.239338 
L 471.859617 230.437892 
L 474.117402 225.708247 
L 476.375188 220.09105 
L 480.890758 207.473457 
L 485.406329 195.054349 
L 487.664115 189.436055 
L 489.9219 184.348179 
L 492.179686 179.830528 
L 494.437471 175.890994 
L 496.695257 172.516688 
L 498.953042 169.681812 
L 501.210828 167.352998 
L 503.468613 165.492852 
L 505.726399 164.062271 
L 507.984184 163.021959 
L 510.24197 162.333405 
L 512.499755 161.959519 
L 514.75754 161.865051 
L 517.015326 162.016847 
L 519.273111 162.384018 
L 521.530897 162.938029 
L 523.788682 163.652741 
L 528.304253 165.471631 
L 532.819824 167.678485 
L 537.335395 170.145859 
L 544.108752 174.130817 
L 573.066716 191.580199 
L 580.79764 195.932858 
L 589.828782 200.766182 
L 598.859924 205.30264 
L 607.891066 209.521446 
L 614.664422 212.467847 
L 621.437779 215.222956 
L 628.211135 217.784812 
L 634.984491 220.153622 
L 639.389273 221.591054 
L 639.389273 221.591054 
" clip-path="url(#p982621bc1c)" style="fill: none; stroke: #808080; stroke-width: 1.5; stroke-linecap: square"/>
   </g>
  </g>
  <g id="axes_3">
   <g id="patch_12">
    <path d="M 687.705882 320.4 
L 918 320.4 
L 918 43.2 
L 687.705882 43.2 
z
" style="fill: #ffffff"/>
   </g>
   <g id="matplotlib.axis_5">
    <g id="xtick_23">
     <g id="line2d_42">
      <g>
       <use xlink:href="#m374ab8e2f9" x="689.963668" y="320.4" style="stroke: #000000; stroke-width: 0.8"/>
      </g>
     </g>
     <g id="text_44">
      <!-- 0 -->
      <g transform="translate(685.382668 338.34175) scale(0.144 -0.144)">
       <use xlink:href="#DejaVuSans-30"/>
      </g>
     </g>
    </g>
    <g id="xtick_24">
     <g id="line2d_43">
      <g>
       <use xlink:href="#m374ab8e2f9" x="712.541522" y="320.4" style="stroke: #000000; stroke-width: 0.8"/>
      </g>
     </g>
     <g id="text_45">
      <!-- 1 -->
      <g transform="translate(707.960522 338.34175) scale(0.144 -0.144)">
       <use xlink:href="#DejaVuSans-31"/>
      </g>
     </g>
    </g>
    <g id="xtick_25">
     <g id="line2d_44">
      <g>
       <use xlink:href="#m374ab8e2f9" x="735.119377" y="320.4" style="stroke: #000000; stroke-width: 0.8"/>
      </g>
     </g>
     <g id="text_46">
      <!-- 2 -->
      <g transform="translate(730.538377 338.34175) scale(0.144 -0.144)">
       <use xlink:href="#DejaVuSans-32"/>
      </g>
     </g>
    </g>
    <g id="xtick_26">
     <g id="line2d_45">
      <g>
       <use xlink:href="#m374ab8e2f9" x="757.697232" y="320.4" style="stroke: #000000; stroke-width: 0.8"/>
      </g>
     </g>
     <g id="text_47">
      <!-- 3 -->
      <g transform="translate(753.116232 338.34175) scale(0.144 -0.144)">
       <use xlink:href="#DejaVuSans-33"/>
      </g>
     </g>
    </g>
    <g id="xtick_27">
     <g id="line2d_46">
      <g>
       <use xlink:href="#m374ab8e2f9" x="780.275087" y="320.4" style="stroke: #000000; stroke-width: 0.8"/>
      </g>
     </g>
     <g id="text_48">
      <!-- 4 -->
      <g transform="translate(775.694087 338.34175) scale(0.144 -0.144)">
       <use xlink:href="#DejaVuSans-34"/>
      </g>
     </g>
    </g>
    <g id="xtick_28">
     <g id="line2d_47">
      <g>
       <use xlink:href="#m374ab8e2f9" x="802.852941" y="320.4" style="stroke: #000000; stroke-width: 0.8"/>
      </g>
     </g>
     <g id="text_49">
      <!-- 5 -->
      <g transform="translate(798.271941 338.34175) scale(0.144 -0.144)">
       <use xlink:href="#DejaVuSans-35"/>
      </g>
     </g>
    </g>
    <g id="xtick_29">
     <g id="line2d_48">
      <g>
       <use xlink:href="#m374ab8e2f9" x="825.430796" y="320.4" style="stroke: #000000; stroke-width: 0.8"/>
      </g>
     </g>
     <g id="text_50">
      <!-- 6 -->
      <g transform="translate(820.849796 338.34175) scale(0.144 -0.144)">
       <use xlink:href="#DejaVuSans-36"/>
      </g>
     </g>
    </g>
    <g id="xtick_30">
     <g id="line2d_49">
      <g>
       <use xlink:href="#m374ab8e2f9" x="848.008651" y="320.4" style="stroke: #000000; stroke-width: 0.8"/>
      </g>
     </g>
     <g id="text_51">
      <!-- 7 -->
      <g transform="translate(843.427651 338.34175) scale(0.144 -0.144)">
       <use xlink:href="#DejaVuSans-37"/>
      </g>
     </g>
    </g>
    <g id="xtick_31">
     <g id="line2d_50">
      <g>
       <use xlink:href="#m374ab8e2f9" x="870.586505" y="320.4" style="stroke: #000000; stroke-width: 0.8"/>
      </g>
     </g>
     <g id="text_52">
      <!-- 8 -->
      <g transform="translate(866.005505 338.34175) scale(0.144 -0.144)">
       <use xlink:href="#DejaVuSans-38"/>
      </g>
     </g>
    </g>
    <g id="xtick_32">
     <g id="line2d_51">
      <g>
       <use xlink:href="#m374ab8e2f9" x="893.16436" y="320.4" style="stroke: #000000; stroke-width: 0.8"/>
      </g>
     </g>
     <g id="text_53">
      <!-- 9 -->
      <g transform="translate(888.58336 338.34175) scale(0.144 -0.144)">
       <use xlink:href="#DejaVuSans-39"/>
      </g>
     </g>
    </g>
    <g id="xtick_33">
     <g id="line2d_52">
      <g>
       <use xlink:href="#m374ab8e2f9" x="915.742215" y="320.4" style="stroke: #000000; stroke-width: 0.8"/>
      </g>
     </g>
     <g id="text_54">
      <!-- 10 -->
      <g transform="translate(906.580215 338.34175) scale(0.144 -0.144)">
       <use xlink:href="#DejaVuSans-31"/>
       <use xlink:href="#DejaVuSans-30" x="63.623047"/>
      </g>
     </g>
    </g>
    <g id="text_55">
     <!-- Time (d) -->
     <g transform="translate(762.727941 359.9255) scale(0.192 -0.192)">
      <use xlink:href="#DejaVuSans-54"/>
      <use xlink:href="#DejaVuSans-69" x="57.958984"/>
      <use xlink:href="#DejaVuSans-6d" x="85.742188"/>
      <use xlink:href="#DejaVuSans-65" x="183.154297"/>
      <use xlink:href="#DejaVuSans-20" x="244.677734"/>
      <use xlink:href="#DejaVuSans-28" x="276.464844"/>
      <use xlink:href="#DejaVuSans-64" x="315.478516"/>
      <use xlink:href="#DejaVuSans-29" x="378.955078"/>
     </g>
    </g>
   </g>
   <g id="matplotlib.axis_6">
    <g id="ytick_18">
     <g id="line2d_53">
      <g>
       <use xlink:href="#m0a12c463d5" x="687.705882" y="320.4" style="stroke: #000000; stroke-width: 0.8"/>
      </g>
     </g>
     <g id="text_56">
      <!-- 4.0 -->
      <g transform="translate(657.805382 325.870875) scale(0.144 -0.144)">
       <use xlink:href="#DejaVuSans-34"/>
       <use xlink:href="#DejaVuSans-2e" x="63.623047"/>
       <use xlink:href="#DejaVuSans-30" x="95.410156"/>
      </g>
     </g>
    </g>
    <g id="ytick_19">
     <g id="line2d_54">
      <g>
       <use xlink:href="#m0a12c463d5" x="687.705882" y="280.8" style="stroke: #000000; stroke-width: 0.8"/>
      </g>
     </g>
     <g id="text_57">
      <!-- 4.5 -->
      <g transform="translate(657.805382 286.270875) scale(0.144 -0.144)">
       <use xlink:href="#DejaVuSans-34"/>
       <use xlink:href="#DejaVuSans-2e" x="63.623047"/>
       <use xlink:href="#DejaVuSans-35" x="95.410156"/>
      </g>
     </g>
    </g>
    <g id="ytick_20">
     <g id="line2d_55">
      <g>
       <use xlink:href="#m0a12c463d5" x="687.705882" y="241.2" style="stroke: #000000; stroke-width: 0.8"/>
      </g>
     </g>
     <g id="text_58">
      <!-- 5.0 -->
      <g transform="translate(657.805382 246.670875) scale(0.144 -0.144)">
       <use xlink:href="#DejaVuSans-35"/>
       <use xlink:href="#DejaVuSans-2e" x="63.623047"/>
       <use xlink:href="#DejaVuSans-30" x="95.410156"/>
      </g>
     </g>
    </g>
    <g id="ytick_21">
     <g id="line2d_56">
      <g>
       <use xlink:href="#m0a12c463d5" x="687.705882" y="201.6" style="stroke: #000000; stroke-width: 0.8"/>
      </g>
     </g>
     <g id="text_59">
      <!-- 5.5 -->
      <g transform="translate(657.805382 207.070875) scale(0.144 -0.144)">
       <use xlink:href="#DejaVuSans-35"/>
       <use xlink:href="#DejaVuSans-2e" x="63.623047"/>
       <use xlink:href="#DejaVuSans-35" x="95.410156"/>
      </g>
     </g>
    </g>
    <g id="ytick_22">
     <g id="line2d_57">
      <g>
       <use xlink:href="#m0a12c463d5" x="687.705882" y="162" style="stroke: #000000; stroke-width: 0.8"/>
      </g>
     </g>
     <g id="text_60">
      <!-- 6.0 -->
      <g transform="translate(657.805382 167.470875) scale(0.144 -0.144)">
       <use xlink:href="#DejaVuSans-36"/>
       <use xlink:href="#DejaVuSans-2e" x="63.623047"/>
       <use xlink:href="#DejaVuSans-30" x="95.410156"/>
      </g>
     </g>
    </g>
    <g id="ytick_23">
     <g id="line2d_58">
      <g>
       <use xlink:href="#m0a12c463d5" x="687.705882" y="122.4" style="stroke: #000000; stroke-width: 0.8"/>
      </g>
     </g>
     <g id="text_61">
      <!-- 6.5 -->
      <g transform="translate(657.805382 127.870875) scale(0.144 -0.144)">
       <use xlink:href="#DejaVuSans-36"/>
       <use xlink:href="#DejaVuSans-2e" x="63.623047"/>
       <use xlink:href="#DejaVuSans-35" x="95.410156"/>
      </g>
     </g>
    </g>
    <g id="ytick_24">
     <g id="line2d_59">
      <g>
       <use xlink:href="#m0a12c463d5" x="687.705882" y="82.8" style="stroke: #000000; stroke-width: 0.8"/>
      </g>
     </g>
     <g id="text_62">
      <!-- 7.0 -->
      <g transform="translate(657.805382 88.270875) scale(0.144 -0.144)">
       <use xlink:href="#DejaVuSans-37"/>
       <use xlink:href="#DejaVuSans-2e" x="63.623047"/>
       <use xlink:href="#DejaVuSans-30" x="95.410156"/>
      </g>
     </g>
    </g>
    <g id="ytick_25">
     <g id="line2d_60">
      <g>
       <use xlink:href="#m0a12c463d5" x="687.705882" y="43.2" style="stroke: #000000; stroke-width: 0.8"/>
      </g>
     </g>
     <g id="text_63">
      <!-- 7.5 -->
      <g transform="translate(657.805382 48.670875) scale(0.144 -0.144)">
       <use xlink:href="#DejaVuSans-37"/>
       <use xlink:href="#DejaVuSans-2e" x="63.623047"/>
       <use xlink:href="#DejaVuSans-35" x="95.410156"/>
      </g>
     </g>
    </g>
    <g id="text_64">
     <!-- Log10(CD8TM) -->
     <g transform="translate(649.812382 253.0065) rotate(-90) scale(0.192 -0.192)">
      <defs>
       <path id="DejaVuSans-4d" d="M 628 4666 
L 1569 4666 
L 2759 1491 
L 3956 4666 
L 4897 4666 
L 4897 0 
L 4281 0 
L 4281 4097 
L 3078 897 
L 2444 897 
L 1241 4097 
L 1241 0 
L 628 0 
L 628 4666 
z
" transform="scale(0.015625)"/>
      </defs>
      <use xlink:href="#DejaVuSans-4c"/>
      <use xlink:href="#DejaVuSans-6f" x="53.962891"/>
      <use xlink:href="#DejaVuSans-67" x="115.144531"/>
      <use xlink:href="#DejaVuSans-31" x="178.621094"/>
      <use xlink:href="#DejaVuSans-30" x="242.244141"/>
      <use xlink:href="#DejaVuSans-28" x="305.867188"/>
      <use xlink:href="#DejaVuSans-43" x="344.880859"/>
      <use xlink:href="#DejaVuSans-44" x="414.705078"/>
      <use xlink:href="#DejaVuSans-38" x="491.707031"/>
      <use xlink:href="#DejaVuSans-54" x="555.330078"/>
      <use xlink:href="#DejaVuSans-4d" x="616.414062"/>
      <use xlink:href="#DejaVuSans-29" x="702.693359"/>
     </g>
    </g>
   </g>
   <g id="patch_13">
    <path d="M 687.705882 320.4 
L 687.705882 43.2 
" style="fill: none; stroke: #000000; stroke-width: 0.8; stroke-linejoin: miter; stroke-linecap: square"/>
   </g>
   <g id="patch_14">
    <path d="M 918 320.4 
L 918 43.2 
" style="fill: none; stroke: #000000; stroke-width: 0.8; stroke-linejoin: miter; stroke-linecap: square"/>
   </g>
   <g id="patch_15">
    <path d="M 687.705882 320.4 
L 918 320.4 
" style="fill: none; stroke: #000000; stroke-width: 0.8; stroke-linejoin: miter; stroke-linecap: square"/>
   </g>
   <g id="patch_16">
    <path d="M 687.705882 43.2 
L 918 43.2 
" style="fill: none; stroke: #000000; stroke-width: 0.8; stroke-linejoin: miter; stroke-linecap: square"/>
   </g>
   <g id="PolyCollection_3">
    <defs>
     <path id="mbdaa3d9092" d="M 689.963668 -157.032942 
L 689.963668 -157.032942 
L 689.964022 -157.032942 
L 689.967558 -157.032942 
L 690.002927 -157.032942 
L 690.090556 -157.032942 
L 690.188333 -157.032942 
L 690.431527 -157.032942 
L 690.721402 -157.032942 
L 691.384279 -157.032942 
L 691.884031 -157.032942 
L 692.971314 -157.032942 
L 693.603049 -157.032942 
L 694.836909 -157.032942 
L 695.531577 -157.032942 
L 696.71868 -157.032942 
L 697.472652 -157.032942 
L 698.675407 -157.032942 
L 699.470282 -157.032942 
L 700.66239 -157.032942 
L 701.489045 -157.032942 
L 702.809638 -157.032942 
L 703.62241 -157.032942 
L 704.753561 -157.032942 
L 705.602806 -157.032942 
L 706.841663 -157.032942 
L 707.684181 -157.032942 
L 708.825201 -157.032942 
L 709.690754 -157.032942 
L 710.891384 -157.032942 
L 711.760063 -157.032942 
L 712.99267 -157.032942 
L 713.860422 -157.032942 
L 715.101895 -157.032942 
L 715.987531 -157.032942 
L 717.244119 -157.032942 
L 718.161369 -157.032942 
L 719.492292 -157.032942 
L 720.392307 -157.032942 
L 721.61535 -157.032942 
L 722.548394 -157.032942 
L 723.896569 -157.032942 
L 724.820372 -157.032942 
L 725.897632 -157.032942 
L 726.770288 -157.032942 
L 727.755578 -157.032942 
L 728.740868 -157.032942 
L 729.592548 -157.032942 
L 730.336872 -157.032942 
L 731.00552 -157.032942 
L 731.591217 -157.032942 
L 732.114323 -157.032942 
L 732.581116 -157.032942 
L 733.047908 -157.032942 
L 733.430077 -157.032942 
L 733.779184 -157.032942 
L 734.12829 -157.032942 
L 734.413191 -157.032942 
L 734.73515 -157.032942 
L 735.726687 -157.032942 
L 736.14723 -157.032942 
L 737.33633 -157.032942 
L 737.907845 -157.032942 
L 739.812664 -157.032942 
L 740.765635 -157.032942 
L 743.02342 -157.032942 
L 744.285976 -157.032942 
L 746.543762 -157.032943 
L 748.212558 -157.032945 
L 750.470343 -157.032956 
L 752.728129 -157.032985 
L 754.985914 -157.033055 
L 757.2437 -157.033268 
L 759.501485 -157.033799 
L 761.759271 -157.035173 
L 764.017056 -157.039323 
L 766.274842 -157.049992 
L 768.532627 -157.075922 
L 770.790412 -157.150084 
L 773.048198 -157.326373 
L 775.305983 -157.690527 
L 777.563769 -158.372296 
L 779.821554 -159.349794 
L 782.07934 -160.547871 
L 784.337125 -161.864087 
L 786.594911 -163.22106 
L 788.852696 -164.571442 
L 791.110482 -165.888407 
L 793.368267 -167.15716 
L 795.626053 -168.370727 
L 797.883838 -169.526735 
L 800.141624 -170.625084 
L 802.399409 -171.514479 
L 804.657194 -172.103452 
L 806.91498 -172.663352 
L 809.172765 -173.194778 
L 811.430551 -173.698268 
L 813.688336 -174.17434 
L 815.946122 -174.623519 
L 818.203907 -175.046364 
L 820.461693 -175.443485 
L 822.719478 -175.815556 
L 824.977264 -176.163318 
L 827.235049 -176.398071 
L 829.492835 -176.491675 
L 831.75062 -176.575374 
L 834.008406 -176.649837 
L 836.266191 -176.715696 
L 838.523976 -176.773546 
L 840.781762 -176.823951 
L 843.039547 -176.867438 
L 845.297333 -176.904535 
L 847.555118 -176.935658 
L 847.927726 -176.940258 
L 848.119857 -176.942567 
L 848.294412 -176.944666 
L 848.496793 -176.947015 
L 848.652911 -176.948801 
L 848.809029 -176.950547 
L 848.965147 -176.952293 
L 849.192402 -176.954778 
L 849.419657 -176.957208 
L 849.762949 -176.960774 
L 850.354875 -176.966635 
L 851.77784 -176.979382 
L 853.200804 -176.990235 
L 855.175693 -177.002262 
L 857.150581 -177.011083 
L 859.408367 -177.017936 
L 861.666152 -177.021331 
L 863.923938 -177.022308 
L 866.181723 -177.022401 
L 868.439509 -177.022403 
L 870.697294 -177.022403 
L 872.95508 -177.022403 
L 875.212865 -177.022403 
L 877.470651 -177.022403 
L 879.728436 -177.022403 
L 881.986222 -177.022403 
L 884.244007 -177.022403 
L 886.501792 -177.022403 
L 888.759578 -177.022403 
L 891.017363 -177.022403 
L 893.275149 -177.022403 
L 895.532934 -177.022403 
L 897.79072 -177.022403 
L 900.048505 -177.022403 
L 902.306291 -177.022403 
L 904.564076 -177.022403 
L 906.821862 -177.022403 
L 909.079647 -177.022403 
L 911.337433 -177.022403 
L 913.595218 -177.022403 
L 915.742215 -177.022403 
L 915.742215 -199.399608 
L 915.742215 -199.399608 
L 913.595218 -199.399608 
L 911.337433 -199.399608 
L 909.079647 -199.399608 
L 906.821862 -199.399608 
L 904.564076 -199.399608 
L 902.306291 -199.399608 
L 900.048505 -199.399608 
L 897.79072 -199.399608 
L 895.532934 -199.399608 
L 893.275149 -199.399608 
L 891.017363 -199.399608 
L 888.759578 -199.399608 
L 886.501792 -199.399608 
L 884.244007 -199.399608 
L 881.986222 -199.399608 
L 879.728436 -199.399608 
L 877.470651 -199.399608 
L 875.212865 -199.399608 
L 872.95508 -199.399608 
L 870.697294 -199.399608 
L 868.439509 -199.399608 
L 866.181723 -199.399608 
L 863.923938 -199.399608 
L 861.666152 -199.399607 
L 859.408367 -199.39917 
L 857.150581 -199.395948 
L 855.175693 -199.389103 
L 853.200804 -199.378202 
L 851.77784 -199.367316 
L 850.354875 -199.353767 
L 849.762949 -199.347311 
L 849.419657 -199.343353 
L 849.192402 -199.34063 
L 848.965147 -199.33786 
L 848.809029 -199.335901 
L 848.652911 -199.333916 
L 848.496793 -199.331865 
L 848.294412 -199.329163 
L 848.119857 -199.326833 
L 847.927726 -199.324163 
L 847.555118 -199.318894 
L 845.297333 -199.281762 
L 843.039547 -199.236503 
L 840.781762 -199.182393 
L 838.523976 -199.118579 
L 836.266191 -199.044304 
L 834.008406 -198.958757 
L 831.75062 -198.861071 
L 829.492835 -198.750317 
L 827.235049 -198.625498 
L 824.977264 -198.485547 
L 822.719478 -198.329322 
L 820.461693 -198.1556 
L 818.203907 -197.963078 
L 815.946122 -197.750363 
L 813.688336 -197.515979 
L 811.430551 -197.25836 
L 809.172765 -196.975851 
L 806.91498 -196.666715 
L 804.657194 -196.329135 
L 802.399409 -195.961223 
L 800.141624 -195.561025 
L 797.883838 -195.126538 
L 795.626053 -194.655719 
L 793.368267 -194.146497 
L 791.110482 -193.596786 
L 788.852696 -193.00449 
L 786.594911 -192.367507 
L 784.337125 -191.683716 
L 782.07934 -190.950966 
L 779.821554 -190.167033 
L 777.563769 -189.329577 
L 775.305983 -188.436067 
L 773.048198 -187.483704 
L 770.790412 -186.469316 
L 768.532627 -185.389256 
L 766.274842 -184.239296 
L 764.017056 -183.01454 
L 761.759271 -181.709357 
L 759.501485 -180.317373 
L 757.2437 -178.831514 
L 754.985914 -177.244539 
L 752.728129 -175.548958 
L 750.470343 -173.73931 
L 748.212558 -171.812444 
L 746.543762 -170.316559 
L 744.285976 -168.197944 
L 743.02342 -166.981234 
L 740.765635 -164.77098 
L 739.812664 -163.841674 
L 737.907845 -162.045765 
L 737.33633 -161.529829 
L 736.14723 -160.52991 
L 735.726687 -160.197813 
L 734.73515 -159.488979 
L 734.413191 -159.275821 
L 734.12829 -159.099241 
L 733.779184 -158.895812 
L 733.430077 -158.705726 
L 733.047908 -158.513553 
L 732.581116 -158.301614 
L 732.114323 -158.113066 
L 731.591217 -157.929244 
L 731.00552 -157.754759 
L 730.336872 -157.59195 
L 729.592548 -157.450164 
L 728.740868 -157.328898 
L 727.755578 -157.230086 
L 726.770288 -157.162573 
L 725.897632 -157.121621 
L 724.820372 -157.089035 
L 723.896569 -157.070063 
L 722.548394 -157.053906 
L 721.61535 -157.046574 
L 720.392307 -157.041014 
L 719.492292 -157.038286 
L 718.161369 -157.035968 
L 717.244119 -157.034926 
L 715.987531 -157.034092 
L 715.101895 -157.033711 
L 713.860422 -157.033391 
L 712.99267 -157.033243 
L 711.760063 -157.033116 
L 710.891384 -157.033058 
L 709.690754 -157.033009 
L 708.825201 -157.032986 
L 707.684181 -157.032967 
L 706.841663 -157.032958 
L 705.602806 -157.03295 
L 704.753561 -157.032946 
L 703.62241 -157.032943 
L 702.809638 -157.032942 
L 701.489045 -157.032942 
L 700.66239 -157.032942 
L 699.470282 -157.032942 
L 698.675407 -157.032942 
L 697.472652 -157.032942 
L 696.71868 -157.032942 
L 695.531577 -157.032942 
L 694.836909 -157.032942 
L 693.603049 -157.032942 
L 692.971314 -157.032942 
L 691.884031 -157.032942 
L 691.384279 -157.032942 
L 690.721402 -157.032942 
L 690.431527 -157.032942 
L 690.188333 -157.032942 
L 690.090556 -157.032942 
L 690.002927 -157.032942 
L 689.967558 -157.032942 
L 689.964022 -157.032942 
L 689.963668 -157.032942 
z
" style="stroke: #808080; stroke-opacity: 0.2"/>
    </defs>
    <g clip-path="url(#pc681aa8592)">
     <use xlink:href="#mbdaa3d9092" x="0" y="360" style="fill: #808080; fill-opacity: 0.2; stroke: #808080; stroke-opacity: 0.2"/>
    </g>
   </g>
   <g id="PathCollection_5">
    <g clip-path="url(#pc681aa8592)">
     <use xlink:href="#mcc3bef3d17" x="689.963668" y="202.967058" style="fill: #808080; fill-opacity: 0.8; stroke: #808080; stroke-opacity: 0.8"/>
     <use xlink:href="#mcc3bef3d17" x="712.541522" y="194.71642" style="fill: #808080; fill-opacity: 0.8; stroke: #808080; stroke-opacity: 0.8"/>
     <use xlink:href="#mcc3bef3d17" x="735.119377" y="193.114681" style="fill: #808080; fill-opacity: 0.8; stroke: #808080; stroke-opacity: 0.8"/>
     <use xlink:href="#mcc3bef3d17" x="757.697232" y="188.714868" style="fill: #808080; fill-opacity: 0.8; stroke: #808080; stroke-opacity: 0.8"/>
     <use xlink:href="#mcc3bef3d17" x="780.275087" y="179.557302" style="fill: #808080; fill-opacity: 0.8; stroke: #808080; stroke-opacity: 0.8"/>
     <use xlink:href="#mcc3bef3d17" x="802.852941" y="179.373308" style="fill: #808080; fill-opacity: 0.8; stroke: #808080; stroke-opacity: 0.8"/>
     <use xlink:href="#mcc3bef3d17" x="825.430796" y="176.917454" style="fill: #808080; fill-opacity: 0.8; stroke: #808080; stroke-opacity: 0.8"/>
     <use xlink:href="#mcc3bef3d17" x="848.008651" y="175.312108" style="fill: #808080; fill-opacity: 0.8; stroke: #808080; stroke-opacity: 0.8"/>
    </g>
   </g>
   <g id="PathCollection_6">
    <g clip-path="url(#pc681aa8592)">
     <use xlink:href="#m0839c12474" x="689.963668" y="202.967058" style="fill-opacity: 0.8; stroke: #000000; stroke-opacity: 0.8"/>
     <use xlink:href="#m0839c12474" x="712.541522" y="194.71642" style="fill-opacity: 0.8; stroke: #000000; stroke-opacity: 0.8"/>
     <use xlink:href="#m0839c12474" x="735.119377" y="193.114681" style="fill-opacity: 0.8; stroke: #000000; stroke-opacity: 0.8"/>
     <use xlink:href="#m0839c12474" x="757.697232" y="188.714868" style="fill-opacity: 0.8; stroke: #000000; stroke-opacity: 0.8"/>
     <use xlink:href="#m0839c12474" x="780.275087" y="179.557302" style="fill-opacity: 0.8; stroke: #000000; stroke-opacity: 0.8"/>
     <use xlink:href="#m0839c12474" x="802.852941" y="179.373308" style="fill-opacity: 0.8; stroke: #000000; stroke-opacity: 0.8"/>
     <use xlink:href="#m0839c12474" x="825.430796" y="176.917454" style="fill-opacity: 0.8; stroke: #000000; stroke-opacity: 0.8"/>
     <use xlink:href="#m0839c12474" x="848.008651" y="175.312108" style="fill-opacity: 0.8; stroke: #000000; stroke-opacity: 0.8"/>
    </g>
   </g>
   <g id="line2d_61">
    <path d="M 689.963668 202.967058 
L 726.770288 202.883688 
L 729.592548 202.691728 
L 731.591217 202.378083 
L 733.430077 201.88457 
L 734.73515 201.405292 
L 737.33633 200.18722 
L 740.765635 198.28514 
L 748.212558 194.051227 
L 752.728129 191.723641 
L 757.2437 189.630441 
L 761.759271 187.759581 
L 766.274842 186.088934 
L 770.790412 184.596817 
L 777.563769 182.655077 
L 784.337125 181.030038 
L 791.110482 179.687839 
L 797.883838 178.598119 
L 804.657194 177.730022 
L 811.430551 177.052068 
L 820.461693 176.391585 
L 829.492835 175.950729 
L 840.781762 175.628567 
L 855.175693 175.472458 
L 897.79072 175.464585 
L 915.742215 175.464585 
L 915.742215 175.464585 
" clip-path="url(#pc681aa8592)" style="fill: none; stroke: #808080; stroke-width: 1.5; stroke-linecap: square"/>
   </g>
  </g>
  <g id="legend_1">
   <g id="patch_17">
    <path d="M 1147.44 71.724 
L 1309.743 71.724 
Q 1313.583 71.724 1313.583 67.884 
L 1313.583 13.44 
Q 1313.583 9.6 1309.743 9.6 
L 1147.44 9.6 
Q 1143.6 9.6 1143.6 13.44 
L 1143.6 67.884 
Q 1143.6 71.724 1147.44 71.724 
z
" style="fill: #ffffff; opacity: 0.8; stroke: #cccccc; stroke-linejoin: miter"/>
   </g>
   <g id="PathCollection_7">
    <g>
     <use xlink:href="#mcc3bef3d17" x="1170.48" y="26.829" style="fill: #808080; fill-opacity: 0.8; stroke: #808080; stroke-opacity: 0.8"/>
    </g>
   </g>
   <g id="text_65">
    <!-- 103 -->
    <g transform="translate(1205.04 31.869) scale(0.192 -0.192)">
     <use xlink:href="#DejaVuSans-31"/>
     <use xlink:href="#DejaVuSans-30" x="63.623047"/>
     <use xlink:href="#DejaVuSans-33" x="127.246094"/>
    </g>
   </g>
   <g id="PathCollection_8">
    <g>
     <use xlink:href="#m0839c12474" x="1170.48" y="55.011" style="fill-opacity: 0.8; stroke: #000000; stroke-opacity: 0.8"/>
    </g>
   </g>
   <g id="text_66">
    <!-- Population -->
    <g transform="translate(1205.04 60.051) scale(0.192 -0.192)">
     <defs>
      <path id="DejaVuSans-50" d="M 1259 4147 
L 1259 2394 
L 2053 2394 
Q 2494 2394 2734 2622 
Q 2975 2850 2975 3272 
Q 2975 3691 2734 3919 
Q 2494 4147 2053 4147 
L 1259 4147 
z
M 628 4666 
L 2053 4666 
Q 2838 4666 3239 4311 
Q 3641 3956 3641 3272 
Q 3641 2581 3239 2228 
Q 2838 1875 2053 1875 
L 1259 1875 
L 1259 0 
L 628 0 
L 628 4666 
z
" transform="scale(0.015625)"/>
      <path id="DejaVuSans-70" d="M 1159 525 
L 1159 -1331 
L 581 -1331 
L 581 3500 
L 1159 3500 
L 1159 2969 
Q 1341 3281 1617 3432 
Q 1894 3584 2278 3584 
Q 2916 3584 3314 3078 
Q 3713 2572 3713 1747 
Q 3713 922 3314 415 
Q 2916 -91 2278 -91 
Q 1894 -91 1617 61 
Q 1341 213 1159 525 
z
M 3116 1747 
Q 3116 2381 2855 2742 
Q 2594 3103 2138 3103 
Q 1681 3103 1420 2742 
Q 1159 2381 1159 1747 
Q 1159 1113 1420 752 
Q 1681 391 2138 391 
Q 2594 391 2855 752 
Q 3116 1113 3116 1747 
z
" transform="scale(0.015625)"/>
      <path id="DejaVuSans-75" d="M 544 1381 
L 544 3500 
L 1119 3500 
L 1119 1403 
Q 1119 906 1312 657 
Q 1506 409 1894 409 
Q 2359 409 2629 706 
Q 2900 1003 2900 1516 
L 2900 3500 
L 3475 3500 
L 3475 0 
L 2900 0 
L 2900 538 
Q 2691 219 2414 64 
Q 2138 -91 1772 -91 
Q 1169 -91 856 284 
Q 544 659 544 1381 
z
M 1991 3584 
L 1991 3584 
z
" transform="scale(0.015625)"/>
      <path id="DejaVuSans-6c" d="M 603 4863 
L 1178 4863 
L 1178 0 
L 603 0 
L 603 4863 
z
" transform="scale(0.015625)"/>
      <path id="DejaVuSans-61" d="M 2194 1759 
Q 1497 1759 1228 1600 
Q 959 1441 959 1056 
Q 959 750 1161 570 
Q 1363 391 1709 391 
Q 2188 391 2477 730 
Q 2766 1069 2766 1631 
L 2766 1759 
L 2194 1759 
z
M 3341 1997 
L 3341 0 
L 2766 0 
L 2766 531 
Q 2569 213 2275 61 
Q 1981 -91 1556 -91 
Q 1019 -91 701 211 
Q 384 513 384 1019 
Q 384 1609 779 1909 
Q 1175 2209 1959 2209 
L 2766 2209 
L 2766 2266 
Q 2766 2663 2505 2880 
Q 2244 3097 1772 3097 
Q 1472 3097 1187 3025 
Q 903 2953 641 2809 
L 641 3341 
Q 956 3463 1253 3523 
Q 1550 3584 1831 3584 
Q 2591 3584 2966 3190 
Q 3341 2797 3341 1997 
z
" transform="scale(0.015625)"/>
      <path id="DejaVuSans-74" d="M 1172 4494 
L 1172 3500 
L 2356 3500 
L 2356 3053 
L 1172 3053 
L 1172 1153 
Q 1172 725 1289 603 
Q 1406 481 1766 481 
L 2356 481 
L 2356 0 
L 1766 0 
Q 1100 0 847 248 
Q 594 497 594 1153 
L 594 3053 
L 172 3053 
L 172 3500 
L 594 3500 
L 594 4494 
L 1172 4494 
z
" transform="scale(0.015625)"/>
      <path id="DejaVuSans-6e" d="M 3513 2113 
L 3513 0 
L 2938 0 
L 2938 2094 
Q 2938 2591 2744 2837 
Q 2550 3084 2163 3084 
Q 1697 3084 1428 2787 
Q 1159 2491 1159 1978 
L 1159 0 
L 581 0 
L 581 3500 
L 1159 3500 
L 1159 2956 
Q 1366 3272 1645 3428 
Q 1925 3584 2291 3584 
Q 2894 3584 3203 3211 
Q 3513 2838 3513 2113 
z
" transform="scale(0.015625)"/>
     </defs>
     <use xlink:href="#DejaVuSans-50"/>
     <use xlink:href="#DejaVuSans-6f" x="56.677734"/>
     <use xlink:href="#DejaVuSans-70" x="117.859375"/>
     <use xlink:href="#DejaVuSans-75" x="181.335938"/>
     <use xlink:href="#DejaVuSans-6c" x="244.714844"/>
     <use xlink:href="#DejaVuSans-61" x="272.498047"/>
     <use xlink:href="#DejaVuSans-74" x="333.777344"/>
     <use xlink:href="#DejaVuSans-69" x="372.986328"/>
     <use xlink:href="#DejaVuSans-6f" x="400.769531"/>
     <use xlink:href="#DejaVuSans-6e" x="461.951172"/>
    </g>
   </g>
  </g>
 </g>
 <defs>
  <clipPath id="p151b91dda6">
   <rect x="135" y="43.2" width="230.294118" height="277.2"/>
  </clipPath>
  <clipPath id="p982621bc1c">
   <rect x="411.352941" y="43.2" width="230.294118" height="277.2"/>
  </clipPath>
  <clipPath id="pc681aa8592">
   <rect x="687.705882" y="43.2" width="230.294118" height="277.2"/>
  </clipPath>
 </defs>
</svg>
