<?xml version="1.0" encoding="utf-8" standalone="no"?>
<!DOCTYPE svg PUBLIC "-//W3C//DTD SVG 1.1//EN"
  "http://www.w3.org/Graphics/SVG/1.1/DTD/svg11.dtd">
<svg xmlns:xlink="http://www.w3.org/1999/xlink" width="720pt" height="360pt" viewBox="0 0 720 360" xmlns="http://www.w3.org/2000/svg" version="1.1">
 <metadata>
  <rdf:RDF xmlns:dc="http://purl.org/dc/elements/1.1/" xmlns:cc="http://creativecommons.org/ns#" xmlns:rdf="http://www.w3.org/1999/02/22-rdf-syntax-ns#">
   <cc:Work>
    <dc:type rdf:resource="http://purl.org/dc/dcmitype/StillImage"/>
    <dc:date>2025-01-08T18:18:10.095314</dc:date>
    <dc:format>image/svg+xml</dc:format>
    <dc:creator>
     <cc:Agent>
      <dc:title>Matplotlib v3.9.2, https://matplotlib.org/</dc:title>
     </cc:Agent>
    </dc:creator>
   </cc:Work>
  </rdf:RDF>
 </metadata>
 <defs>
  <style type="text/css">*{stroke-linejoin: round; stroke-linecap: butt}</style>
 </defs>
 <g id="figure_1">
  <g id="patch_1">
   <path d="M 0 360 
L 720 360 
L 720 0 
L 0 0 
z
" style="fill: #ffffff"/>
  </g>
  <g id="axes_1">
   <g id="patch_2">
    <path d="M 90 320.4 
L 327.272727 320.4 
L 327.272727 43.2 
L 90 43.2 
z
" style="fill: #ffffff"/>
   </g>
   <g id="matplotlib.axis_1">
    <g id="xtick_1">
     <g id="text_1">
      <!-- 0 -->
      <g style="fill: #262626" transform="translate(88.575176 340.20725) scale(0.144 -0.144)">
       <defs>
        <path id="ArialMT-30" d="M 266 2259 
Q 266 3072 433 3567 
Q 600 4063 929 4331 
Q 1259 4600 1759 4600 
Q 2128 4600 2406 4451 
Q 2684 4303 2865 4023 
Q 3047 3744 3150 3342 
Q 3253 2941 3253 2259 
Q 3253 1453 3087 958 
Q 2922 463 2592 192 
Q 2263 -78 1759 -78 
Q 1097 -78 719 397 
Q 266 969 266 2259 
z
M 844 2259 
Q 844 1131 1108 757 
Q 1372 384 1759 384 
Q 2147 384 2411 759 
Q 2675 1134 2675 2259 
Q 2675 3391 2411 3762 
Q 2147 4134 1753 4134 
Q 1366 4134 1134 3806 
Q 844 3388 844 2259 
z
" transform="scale(0.015625)"/>
       </defs>
       <use xlink:href="#ArialMT-30"/>
      </g>
     </g>
    </g>
    <g id="xtick_2">
     <g id="text_2">
      <!-- 1 -->
      <g style="fill: #262626" transform="translate(114.36569 340.20725) scale(0.144 -0.144)">
       <defs>
        <path id="ArialMT-31" d="M 2384 0 
L 1822 0 
L 1822 3584 
Q 1619 3391 1289 3197 
Q 959 3003 697 2906 
L 697 3450 
Q 1169 3672 1522 3987 
Q 1875 4303 2022 4600 
L 2384 4600 
L 2384 0 
z
" transform="scale(0.015625)"/>
       </defs>
       <use xlink:href="#ArialMT-31"/>
      </g>
     </g>
    </g>
    <g id="xtick_3">
     <g id="text_3">
      <!-- 2 -->
      <g style="fill: #262626" transform="translate(140.156204 340.20725) scale(0.144 -0.144)">
       <defs>
        <path id="ArialMT-32" d="M 3222 541 
L 3222 0 
L 194 0 
Q 188 203 259 391 
Q 375 700 629 1000 
Q 884 1300 1366 1694 
Q 2113 2306 2375 2664 
Q 2638 3022 2638 3341 
Q 2638 3675 2398 3904 
Q 2159 4134 1775 4134 
Q 1369 4134 1125 3890 
Q 881 3647 878 3216 
L 300 3275 
Q 359 3922 746 4261 
Q 1134 4600 1788 4600 
Q 2447 4600 2831 4234 
Q 3216 3869 3216 3328 
Q 3216 3053 3103 2787 
Q 2991 2522 2730 2228 
Q 2469 1934 1863 1422 
Q 1356 997 1212 845 
Q 1069 694 975 541 
L 3222 541 
z
" transform="scale(0.015625)"/>
       </defs>
       <use xlink:href="#ArialMT-32"/>
      </g>
     </g>
    </g>
    <g id="xtick_4">
     <g id="text_4">
      <!-- 3 -->
      <g style="fill: #262626" transform="translate(165.946718 340.20725) scale(0.144 -0.144)">
       <defs>
        <path id="ArialMT-33" d="M 269 1209 
L 831 1284 
Q 928 806 1161 595 
Q 1394 384 1728 384 
Q 2125 384 2398 659 
Q 2672 934 2672 1341 
Q 2672 1728 2419 1979 
Q 2166 2231 1775 2231 
Q 1616 2231 1378 2169 
L 1441 2663 
Q 1497 2656 1531 2656 
Q 1891 2656 2178 2843 
Q 2466 3031 2466 3422 
Q 2466 3731 2256 3934 
Q 2047 4138 1716 4138 
Q 1388 4138 1169 3931 
Q 950 3725 888 3313 
L 325 3413 
Q 428 3978 793 4289 
Q 1159 4600 1703 4600 
Q 2078 4600 2393 4439 
Q 2709 4278 2876 4000 
Q 3044 3722 3044 3409 
Q 3044 3113 2884 2869 
Q 2725 2625 2413 2481 
Q 2819 2388 3044 2092 
Q 3269 1797 3269 1353 
Q 3269 753 2831 336 
Q 2394 -81 1725 -81 
Q 1122 -81 723 278 
Q 325 638 269 1209 
z
" transform="scale(0.015625)"/>
       </defs>
       <use xlink:href="#ArialMT-33"/>
      </g>
     </g>
    </g>
    <g id="xtick_5">
     <g id="text_5">
      <!-- 4 -->
      <g style="fill: #262626" transform="translate(191.737232 340.20725) scale(0.144 -0.144)">
       <defs>
        <path id="ArialMT-34" d="M 2069 0 
L 2069 1097 
L 81 1097 
L 81 1613 
L 2172 4581 
L 2631 4581 
L 2631 1613 
L 3250 1613 
L 3250 1097 
L 2631 1097 
L 2631 0 
L 2069 0 
z
M 2069 1613 
L 2069 3678 
L 634 1613 
L 2069 1613 
z
" transform="scale(0.015625)"/>
       </defs>
       <use xlink:href="#ArialMT-34"/>
      </g>
     </g>
    </g>
    <g id="xtick_6">
     <g id="text_6">
      <!-- 5 -->
      <g style="fill: #262626" transform="translate(217.527746 340.20725) scale(0.144 -0.144)">
       <defs>
        <path id="ArialMT-35" d="M 266 1200 
L 856 1250 
Q 922 819 1161 601 
Q 1400 384 1738 384 
Q 2144 384 2425 690 
Q 2706 997 2706 1503 
Q 2706 1984 2436 2262 
Q 2166 2541 1728 2541 
Q 1456 2541 1237 2417 
Q 1019 2294 894 2097 
L 366 2166 
L 809 4519 
L 3088 4519 
L 3088 3981 
L 1259 3981 
L 1013 2750 
Q 1425 3038 1878 3038 
Q 2478 3038 2890 2622 
Q 3303 2206 3303 1553 
Q 3303 931 2941 478 
Q 2500 -78 1738 -78 
Q 1113 -78 717 272 
Q 322 622 266 1200 
z
" transform="scale(0.015625)"/>
       </defs>
       <use xlink:href="#ArialMT-35"/>
      </g>
     </g>
    </g>
    <g id="xtick_7">
     <g id="text_7">
      <!-- 6 -->
      <g style="fill: #262626" transform="translate(243.318259 340.20725) scale(0.144 -0.144)">
       <defs>
        <path id="ArialMT-36" d="M 3184 3459 
L 2625 3416 
Q 2550 3747 2413 3897 
Q 2184 4138 1850 4138 
Q 1581 4138 1378 3988 
Q 1113 3794 959 3422 
Q 806 3050 800 2363 
Q 1003 2672 1297 2822 
Q 1591 2972 1913 2972 
Q 2475 2972 2870 2558 
Q 3266 2144 3266 1488 
Q 3266 1056 3080 686 
Q 2894 316 2569 119 
Q 2244 -78 1831 -78 
Q 1128 -78 684 439 
Q 241 956 241 2144 
Q 241 3472 731 4075 
Q 1159 4600 1884 4600 
Q 2425 4600 2770 4297 
Q 3116 3994 3184 3459 
z
M 888 1484 
Q 888 1194 1011 928 
Q 1134 663 1356 523 
Q 1578 384 1822 384 
Q 2178 384 2434 671 
Q 2691 959 2691 1453 
Q 2691 1928 2437 2201 
Q 2184 2475 1800 2475 
Q 1419 2475 1153 2201 
Q 888 1928 888 1484 
z
" transform="scale(0.015625)"/>
       </defs>
       <use xlink:href="#ArialMT-36"/>
      </g>
     </g>
    </g>
    <g id="xtick_8">
     <g id="text_8">
      <!-- 7 -->
      <g style="fill: #262626" transform="translate(269.108773 340.20725) scale(0.144 -0.144)">
       <defs>
        <path id="ArialMT-37" d="M 303 3981 
L 303 4522 
L 3269 4522 
L 3269 4084 
Q 2831 3619 2401 2847 
Q 1972 2075 1738 1259 
Q 1569 684 1522 0 
L 944 0 
Q 953 541 1156 1306 
Q 1359 2072 1739 2783 
Q 2119 3494 2547 3981 
L 303 3981 
z
" transform="scale(0.015625)"/>
       </defs>
       <use xlink:href="#ArialMT-37"/>
      </g>
     </g>
    </g>
    <g id="xtick_9">
     <g id="text_9">
      <!-- 8 -->
      <g style="fill: #262626" transform="translate(294.899287 340.20725) scale(0.144 -0.144)">
       <defs>
        <path id="ArialMT-38" d="M 1131 2484 
Q 781 2613 612 2850 
Q 444 3088 444 3419 
Q 444 3919 803 4259 
Q 1163 4600 1759 4600 
Q 2359 4600 2725 4251 
Q 3091 3903 3091 3403 
Q 3091 3084 2923 2848 
Q 2756 2613 2416 2484 
Q 2838 2347 3058 2040 
Q 3278 1734 3278 1309 
Q 3278 722 2862 322 
Q 2447 -78 1769 -78 
Q 1091 -78 675 323 
Q 259 725 259 1325 
Q 259 1772 486 2073 
Q 713 2375 1131 2484 
z
M 1019 3438 
Q 1019 3113 1228 2906 
Q 1438 2700 1772 2700 
Q 2097 2700 2305 2904 
Q 2513 3109 2513 3406 
Q 2513 3716 2298 3927 
Q 2084 4138 1766 4138 
Q 1444 4138 1231 3931 
Q 1019 3725 1019 3438 
z
M 838 1322 
Q 838 1081 952 856 
Q 1066 631 1291 507 
Q 1516 384 1775 384 
Q 2178 384 2440 643 
Q 2703 903 2703 1303 
Q 2703 1709 2433 1975 
Q 2163 2241 1756 2241 
Q 1359 2241 1098 1978 
Q 838 1716 838 1322 
z
" transform="scale(0.015625)"/>
       </defs>
       <use xlink:href="#ArialMT-38"/>
      </g>
     </g>
    </g>
    <g id="xtick_10">
     <g id="text_10">
      <!-- 9 -->
      <g style="fill: #262626" transform="translate(320.689801 340.20725) scale(0.144 -0.144)">
       <defs>
        <path id="ArialMT-39" d="M 350 1059 
L 891 1109 
Q 959 728 1153 556 
Q 1347 384 1650 384 
Q 1909 384 2104 503 
Q 2300 622 2425 820 
Q 2550 1019 2634 1356 
Q 2719 1694 2719 2044 
Q 2719 2081 2716 2156 
Q 2547 1888 2255 1720 
Q 1963 1553 1622 1553 
Q 1053 1553 659 1965 
Q 266 2378 266 3053 
Q 266 3750 677 4175 
Q 1088 4600 1706 4600 
Q 2153 4600 2523 4359 
Q 2894 4119 3086 3673 
Q 3278 3228 3278 2384 
Q 3278 1506 3087 986 
Q 2897 466 2520 194 
Q 2144 -78 1638 -78 
Q 1100 -78 759 220 
Q 419 519 350 1059 
z
M 2653 3081 
Q 2653 3566 2395 3850 
Q 2138 4134 1775 4134 
Q 1400 4134 1122 3828 
Q 844 3522 844 3034 
Q 844 2597 1108 2323 
Q 1372 2050 1759 2050 
Q 2150 2050 2401 2323 
Q 2653 2597 2653 3081 
z
" transform="scale(0.015625)"/>
       </defs>
       <use xlink:href="#ArialMT-39"/>
      </g>
     </g>
    </g>
    <g id="text_11">
     <!-- Time (d) -->
     <g style="fill: #262626" transform="translate(173.266364 361.04625) scale(0.192 -0.192)">
      <defs>
       <path id="ArialMT-54" d="M 1659 0 
L 1659 4041 
L 150 4041 
L 150 4581 
L 3781 4581 
L 3781 4041 
L 2266 4041 
L 2266 0 
L 1659 0 
z
" transform="scale(0.015625)"/>
       <path id="ArialMT-69" d="M 425 3934 
L 425 4581 
L 988 4581 
L 988 3934 
L 425 3934 
z
M 425 0 
L 425 3319 
L 988 3319 
L 988 0 
L 425 0 
z
" transform="scale(0.015625)"/>
       <path id="ArialMT-6d" d="M 422 0 
L 422 3319 
L 925 3319 
L 925 2853 
Q 1081 3097 1340 3245 
Q 1600 3394 1931 3394 
Q 2300 3394 2536 3241 
Q 2772 3088 2869 2813 
Q 3263 3394 3894 3394 
Q 4388 3394 4653 3120 
Q 4919 2847 4919 2278 
L 4919 0 
L 4359 0 
L 4359 2091 
Q 4359 2428 4304 2576 
Q 4250 2725 4106 2815 
Q 3963 2906 3769 2906 
Q 3419 2906 3187 2673 
Q 2956 2441 2956 1928 
L 2956 0 
L 2394 0 
L 2394 2156 
Q 2394 2531 2256 2718 
Q 2119 2906 1806 2906 
Q 1569 2906 1367 2781 
Q 1166 2656 1075 2415 
Q 984 2175 984 1722 
L 984 0 
L 422 0 
z
" transform="scale(0.015625)"/>
       <path id="ArialMT-65" d="M 2694 1069 
L 3275 997 
Q 3138 488 2766 206 
Q 2394 -75 1816 -75 
Q 1088 -75 661 373 
Q 234 822 234 1631 
Q 234 2469 665 2931 
Q 1097 3394 1784 3394 
Q 2450 3394 2872 2941 
Q 3294 2488 3294 1666 
Q 3294 1616 3291 1516 
L 816 1516 
Q 847 969 1125 678 
Q 1403 388 1819 388 
Q 2128 388 2347 550 
Q 2566 713 2694 1069 
z
M 847 1978 
L 2700 1978 
Q 2663 2397 2488 2606 
Q 2219 2931 1791 2931 
Q 1403 2931 1139 2672 
Q 875 2413 847 1978 
z
" transform="scale(0.015625)"/>
       <path id="ArialMT-20" transform="scale(0.015625)"/>
       <path id="ArialMT-28" d="M 1497 -1347 
Q 1031 -759 709 28 
Q 388 816 388 1659 
Q 388 2403 628 3084 
Q 909 3875 1497 4659 
L 1900 4659 
Q 1522 4009 1400 3731 
Q 1209 3300 1100 2831 
Q 966 2247 966 1656 
Q 966 153 1900 -1347 
L 1497 -1347 
z
" transform="scale(0.015625)"/>
       <path id="ArialMT-64" d="M 2575 0 
L 2575 419 
Q 2259 -75 1647 -75 
Q 1250 -75 917 144 
Q 584 363 401 755 
Q 219 1147 219 1656 
Q 219 2153 384 2558 
Q 550 2963 881 3178 
Q 1213 3394 1622 3394 
Q 1922 3394 2156 3267 
Q 2391 3141 2538 2938 
L 2538 4581 
L 3097 4581 
L 3097 0 
L 2575 0 
z
M 797 1656 
Q 797 1019 1065 703 
Q 1334 388 1700 388 
Q 2069 388 2326 689 
Q 2584 991 2584 1609 
Q 2584 2291 2321 2609 
Q 2059 2928 1675 2928 
Q 1300 2928 1048 2622 
Q 797 2316 797 1656 
z
" transform="scale(0.015625)"/>
       <path id="ArialMT-29" d="M 791 -1347 
L 388 -1347 
Q 1322 153 1322 1656 
Q 1322 2244 1188 2822 
Q 1081 3291 891 3722 
Q 769 4003 388 4659 
L 791 4659 
Q 1378 3875 1659 3084 
Q 1900 2403 1900 1659 
Q 1900 816 1576 28 
Q 1253 -759 791 -1347 
z
" transform="scale(0.015625)"/>
      </defs>
      <use xlink:href="#ArialMT-54"/>
      <use xlink:href="#ArialMT-69" x="57.333984"/>
      <use xlink:href="#ArialMT-6d" x="79.550781"/>
      <use xlink:href="#ArialMT-65" x="162.851562"/>
      <use xlink:href="#ArialMT-20" x="218.466797"/>
      <use xlink:href="#ArialMT-28" x="246.25"/>
      <use xlink:href="#ArialMT-64" x="279.550781"/>
      <use xlink:href="#ArialMT-29" x="335.166016"/>
     </g>
    </g>
   </g>
   <g id="matplotlib.axis_2">
    <g id="ytick_1">
     <g id="text_12">
      <!-- 0 -->
      <g style="fill: #262626" transform="translate(72.49225 325.553625) scale(0.144 -0.144)">
       <use xlink:href="#ArialMT-30"/>
      </g>
     </g>
    </g>
    <g id="ytick_2">
     <g id="text_13">
      <!-- 1 -->
      <g style="fill: #262626" transform="translate(72.49225 291.953625) scale(0.144 -0.144)">
       <use xlink:href="#ArialMT-31"/>
      </g>
     </g>
    </g>
    <g id="ytick_3">
     <g id="text_14">
      <!-- 2 -->
      <g style="fill: #262626" transform="translate(72.49225 258.353625) scale(0.144 -0.144)">
       <use xlink:href="#ArialMT-32"/>
      </g>
     </g>
    </g>
    <g id="ytick_4">
     <g id="text_15">
      <!-- 3 -->
      <g style="fill: #262626" transform="translate(72.49225 224.753625) scale(0.144 -0.144)">
       <use xlink:href="#ArialMT-33"/>
      </g>
     </g>
    </g>
    <g id="ytick_5">
     <g id="text_16">
      <!-- 4 -->
      <g style="fill: #262626" transform="translate(72.49225 191.153625) scale(0.144 -0.144)">
       <use xlink:href="#ArialMT-34"/>
      </g>
     </g>
    </g>
    <g id="ytick_6">
     <g id="text_17">
      <!-- 5 -->
      <g style="fill: #262626" transform="translate(72.49225 157.553625) scale(0.144 -0.144)">
       <use xlink:href="#ArialMT-35"/>
      </g>
     </g>
    </g>
    <g id="ytick_7">
     <g id="text_18">
      <!-- 6 -->
      <g style="fill: #262626" transform="translate(72.49225 123.953625) scale(0.144 -0.144)">
       <use xlink:href="#ArialMT-36"/>
      </g>
     </g>
    </g>
    <g id="ytick_8">
     <g id="text_19">
      <!-- 7 -->
      <g style="fill: #262626" transform="translate(72.49225 90.353625) scale(0.144 -0.144)">
       <use xlink:href="#ArialMT-37"/>
      </g>
     </g>
    </g>
    <g id="ytick_9">
     <g id="text_20">
      <!-- 8 -->
      <g style="fill: #262626" transform="translate(72.49225 56.753625) scale(0.144 -0.144)">
       <use xlink:href="#ArialMT-38"/>
      </g>
     </g>
    </g>
    <g id="text_21">
     <!-- Log10(V) -->
     <g style="fill: #262626" transform="translate(64.45125 221.289) rotate(-90) scale(0.192 -0.192)">
      <defs>
       <path id="ArialMT-4c" d="M 469 0 
L 469 4581 
L 1075 4581 
L 1075 541 
L 3331 541 
L 3331 0 
L 469 0 
z
" transform="scale(0.015625)"/>
       <path id="ArialMT-6f" d="M 213 1659 
Q 213 2581 725 3025 
Q 1153 3394 1769 3394 
Q 2453 3394 2887 2945 
Q 3322 2497 3322 1706 
Q 3322 1066 3130 698 
Q 2938 331 2570 128 
Q 2203 -75 1769 -75 
Q 1072 -75 642 372 
Q 213 819 213 1659 
z
M 791 1659 
Q 791 1022 1069 705 
Q 1347 388 1769 388 
Q 2188 388 2466 706 
Q 2744 1025 2744 1678 
Q 2744 2294 2464 2611 
Q 2184 2928 1769 2928 
Q 1347 2928 1069 2612 
Q 791 2297 791 1659 
z
" transform="scale(0.015625)"/>
       <path id="ArialMT-67" d="M 319 -275 
L 866 -356 
Q 900 -609 1056 -725 
Q 1266 -881 1628 -881 
Q 2019 -881 2231 -725 
Q 2444 -569 2519 -288 
Q 2563 -116 2559 434 
Q 2191 0 1641 0 
Q 956 0 581 494 
Q 206 988 206 1678 
Q 206 2153 378 2554 
Q 550 2956 876 3175 
Q 1203 3394 1644 3394 
Q 2231 3394 2613 2919 
L 2613 3319 
L 3131 3319 
L 3131 450 
Q 3131 -325 2973 -648 
Q 2816 -972 2473 -1159 
Q 2131 -1347 1631 -1347 
Q 1038 -1347 672 -1080 
Q 306 -813 319 -275 
z
M 784 1719 
Q 784 1066 1043 766 
Q 1303 466 1694 466 
Q 2081 466 2343 764 
Q 2606 1063 2606 1700 
Q 2606 2309 2336 2618 
Q 2066 2928 1684 2928 
Q 1309 2928 1046 2623 
Q 784 2319 784 1719 
z
" transform="scale(0.015625)"/>
       <path id="ArialMT-56" d="M 1803 0 
L 28 4581 
L 684 4581 
L 1875 1253 
Q 2019 853 2116 503 
Q 2222 878 2363 1253 
L 3600 4581 
L 4219 4581 
L 2425 0 
L 1803 0 
z
" transform="scale(0.015625)"/>
      </defs>
      <use xlink:href="#ArialMT-4c"/>
      <use xlink:href="#ArialMT-6f" x="55.615234"/>
      <use xlink:href="#ArialMT-67" x="111.230469"/>
      <use xlink:href="#ArialMT-31" x="166.845703"/>
      <use xlink:href="#ArialMT-30" x="222.460938"/>
      <use xlink:href="#ArialMT-28" x="278.076172"/>
      <use xlink:href="#ArialMT-56" x="311.376953"/>
      <use xlink:href="#ArialMT-29" x="378.076172"/>
     </g>
    </g>
   </g>
   <g id="patch_3">
    <path d="M 90 320.4 
L 90 43.2 
" style="fill: none; stroke: #262626; stroke-width: 1.25; stroke-linejoin: miter; stroke-linecap: square"/>
   </g>
   <g id="patch_4">
    <path d="M 327.272727 320.4 
L 327.272727 43.2 
" style="fill: none; stroke: #262626; stroke-width: 1.25; stroke-linejoin: miter; stroke-linecap: square"/>
   </g>
   <g id="patch_5">
    <path d="M 90 320.4 
L 327.272727 320.4 
" style="fill: none; stroke: #262626; stroke-width: 1.25; stroke-linejoin: miter; stroke-linecap: square"/>
   </g>
   <g id="patch_6">
    <path d="M 90 43.2 
L 327.272727 43.2 
" style="fill: none; stroke: #262626; stroke-width: 1.25; stroke-linejoin: miter; stroke-linecap: square"/>
   </g>
   <g id="PolyCollection_1">
    <defs>
     <path id="me101d73bd8" d="M 92.579051 -39.6 
L 92.579051 -39.6 
L 92.579444 -39.6 
L 92.583365 -39.6 
L 92.622579 -39.6 
L 92.85956 -39.6 
L 92.993689 -39.6 
L 93.536212 -39.6 
L 93.813123 -39.6 
L 94.878164 -45.695047 
L 95.353565 -49.299204 
L 96.750311 -59.966702 
L 97.355564 -63.933352 
L 98.697803 -71.817693 
L 99.413042 -75.745153 
L 100.799809 -83.350261 
L 101.596507 -87.69052 
L 102.976587 -95.266343 
L 103.839895 -99.984946 
L 105.222963 -107.586728 
L 106.136344 -112.585463 
L 107.512951 -120.079116 
L 108.463539 -125.188222 
L 109.833394 -132.479761 
L 110.810111 -137.637464 
L 112.305111 -145.579799 
L 113.265273 -150.648555 
L 114.584137 -157.63519 
L 115.580654 -162.894344 
L 117.016523 -170.506377 
L 118.009702 -175.741291 
L 119.355968 -182.855423 
L 120.37448 -188.208982 
L 121.827307 -195.859566 
L 122.84038 -201.144996 
L 124.215665 -208.296278 
L 125.257841 -213.641959 
L 126.753112 -221.210127 
L 127.807734 -226.391955 
L 129.437978 -234.085131 
L 130.497561 -238.766734 
L 131.976333 -244.75053 
L 133.083475 -248.72325 
L 134.711437 -253.630474 
L 135.882052 -256.469364 
L 137.213163 -259.011805 
L 138.249115 -260.542913 
L 139.36554 -261.757249 
L 140.360876 -262.421282 
L 141.356213 -262.905038 
L 142.183422 -263.192416 
L 142.940116 -263.37727 
L 143.577638 -263.480569 
L 144.135753 -263.537002 
L 144.619847 -263.557682 
L 145.052009 -263.56991 
L 145.438294 -263.558111 
L 145.82458 -263.536809 
L 146.142031 -263.519302 
L 146.439007 -263.49512 
L 146.735984 -263.463592 
L 146.980974 -263.422624 
L 147.256973 -263.3756 
L 148.326349 -263.193401 
L 148.713372 -263.119852 
L 150.191778 -262.66032 
L 150.799897 -262.450122 
L 153.378948 -261.481283 
L 154.386189 -261.061893 
L 156.96524 -259.863173 
L 158.067209 -259.297215 
L 160.091229 -258.235392 
L 161.186326 -257.602449 
L 163.31951 -256.331749 
L 164.506425 -255.606534 
L 166.303391 -254.486425 
L 168.188522 -253.292678 
L 170.073653 -252.073202 
L 171.997794 -250.809477 
L 173.921935 -249.524166 
L 175.919306 -248.169177 
L 178.268858 -246.548295 
L 180.61841 -244.900295 
L 182.967962 -243.226796 
L 185.317514 -241.522783 
L 187.667066 -239.723166 
L 190.05876 -237.835368 
L 192.637812 -235.755043 
L 195.216863 -233.566374 
L 197.795914 -231.307594 
L 200.374966 -228.988334 
L 202.954017 -226.601256 
L 205.533069 -224.14564 
L 208.11212 -221.606863 
L 210.691171 -218.970216 
L 213.270223 -216.216404 
L 215.849274 -213.319632 
L 218.428326 -210.244533 
L 221.007377 -206.940966 
L 223.586428 -203.334637 
L 226.16548 -198.774296 
L 228.744531 -193.067086 
L 231.323582 -185.198329 
L 233.902634 -161.013371 
L 236.481685 -39.6 
L 239.060737 -39.6 
L 241.639788 -39.6 
L 244.218839 -39.6 
L 245.182094 -39.6 
L 245.29336 -39.6 
L 245.372636 -39.6 
L 245.441627 -39.6 
L 245.501998 -39.6 
L 245.577312 -39.6 
L 245.639187 -39.6 
L 245.719642 -39.6 
L 245.820689 -39.6 
L 246.379462 -39.6 
L 247.200151 -39.6 
L 248.219928 -39.6 
L 249.533901 -39.6 
L 250.847874 -39.6 
L 252.463919 -39.6 
L 254.096238 -39.6 
L 255.924981 -39.6 
L 257.753725 -39.6 
L 259.641602 -39.6 
L 261.534905 -39.6 
L 263.462804 -39.6 
L 265.399163 -39.6 
L 267.36113 -39.6 
L 269.342145 -39.6 
L 271.364857 -39.6 
L 273.455236 -39.6 
L 275.681789 -39.6 
L 278.154513 -39.6 
L 280.733564 -39.6 
L 283.312615 -39.6 
L 285.891667 -39.6 
L 288.470718 -39.6 
L 291.04977 -39.6 
L 293.628821 -39.6 
L 296.207872 -39.6 
L 298.786924 -39.6 
L 301.365975 -39.6 
L 303.945026 -39.6 
L 306.524078 -39.6 
L 309.103129 -39.6 
L 311.682181 -39.6 
L 314.261232 -39.6 
L 316.840283 -39.6 
L 319.419335 -39.6 
L 321.998386 -39.6 
L 324.577438 -39.6 
L 324.693676 -39.6 
L 324.693676 -39.6 
L 324.693676 -39.6 
L 324.577438 -39.6 
L 321.998386 -39.6 
L 319.419335 -39.6 
L 316.840283 -39.6 
L 314.261232 -39.6 
L 311.682181 -39.6 
L 309.103129 -39.6 
L 306.524078 -39.6 
L 303.945026 -39.6 
L 301.365975 -39.6 
L 298.786924 -39.6 
L 296.207872 -39.6 
L 293.628821 -39.6 
L 291.04977 -39.6 
L 288.470718 -39.6 
L 285.891667 -39.6 
L 283.312615 -39.6 
L 280.733564 -39.6 
L 278.154513 -39.6 
L 275.681789 -39.6 
L 273.455236 -42.031735 
L 271.364857 -48.955611 
L 269.342145 -58.558877 
L 267.36113 -67.961373 
L 265.399163 -77.269191 
L 263.462804 -86.45387 
L 261.534905 -95.591443 
L 259.641602 -104.563641 
L 257.753725 -113.50212 
L 255.924981 -122.156745 
L 254.096238 -130.797887 
L 252.463919 -138.491395 
L 250.847874 -146.101631 
L 249.533901 -152.261844 
L 248.219928 -158.422037 
L 247.200151 -163.18581 
L 246.379462 -167.012386 
L 245.820689 -169.615784 
L 245.719642 -170.085491 
L 245.639187 -170.459473 
L 245.577312 -170.747092 
L 245.501998 -171.09718 
L 245.441627 -171.378528 
L 245.372636 -171.973285 
L 245.29336 -172.656698 
L 245.182094 -173.61589 
L 244.218839 -179.188108 
L 241.639788 -187.908965 
L 239.060737 -193.95472 
L 236.481685 -198.798402 
L 233.902634 -203.027736 
L 231.323582 -206.687805 
L 228.744531 -209.953633 
L 226.16548 -212.930254 
L 223.586428 -215.685671 
L 221.007377 -218.266414 
L 218.428326 -220.705678 
L 215.849274 -223.027921 
L 213.270223 -225.251618 
L 210.691171 -227.390991 
L 208.11212 -229.457142 
L 205.533069 -231.462808 
L 202.954017 -233.435885 
L 200.374966 -235.357228 
L 197.795914 -237.231464 
L 195.216863 -239.085825 
L 192.637812 -240.905595 
L 190.05876 -242.7294 
L 187.667066 -244.418758 
L 185.317514 -246.124302 
L 182.967962 -247.874309 
L 180.61841 -249.591626 
L 178.268858 -251.27288 
L 175.919306 -252.918546 
L 173.921935 -254.288455 
L 171.997794 -255.588755 
L 170.073653 -256.86085 
L 168.188522 -258.079287 
L 166.303391 -259.275104 
L 164.506425 -260.380879 
L 163.31951 -261.099631 
L 161.186326 -262.343305 
L 160.091229 -262.956911 
L 158.067209 -264.049055 
L 156.96524 -264.600734 
L 154.386189 -265.821017 
L 153.378948 -266.247483 
L 150.799897 -267.177752 
L 150.191778 -267.357459 
L 148.713372 -267.716147 
L 148.326349 -267.7924 
L 147.256973 -267.945977 
L 146.980974 -267.974687 
L 146.735984 -267.992393 
L 146.439007 -268.023828 
L 146.142031 -268.066601 
L 145.82458 -268.125253 
L 145.438294 -268.182346 
L 145.052009 -268.226219 
L 144.619847 -268.275303 
L 144.135753 -268.305656 
L 143.577638 -268.31273 
L 142.940116 -268.294776 
L 142.183422 -268.211931 
L 141.356213 -268.044852 
L 140.360876 -267.71612 
L 139.36554 -267.232733 
L 138.249115 -266.439337 
L 137.213163 -265.443381 
L 135.882052 -263.737592 
L 134.711437 -261.701405 
L 133.083475 -257.999539 
L 131.976333 -255.02683 
L 130.497561 -250.316931 
L 129.437978 -246.28199 
L 127.807734 -239.320938 
L 126.753112 -234.223899 
L 125.257841 -226.607621 
L 124.215665 -220.980569 
L 122.84038 -213.425151 
L 121.827307 -207.725058 
L 120.37448 -199.495426 
L 119.355968 -193.673776 
L 118.009702 -186.039503 
L 117.016523 -180.387873 
L 115.580654 -172.206 
L 114.584137 -166.518346 
L 113.265273 -158.99612 
L 112.305111 -153.561756 
L 110.810111 -145.216857 
L 109.833394 -139.779035 
L 108.463539 -132.13986 
L 107.512951 -126.852515 
L 106.136344 -119.172818 
L 105.222963 -114.095099 
L 103.839895 -106.378068 
L 102.976587 -101.584312 
L 101.596507 -93.892106 
L 100.799809 -89.482041 
L 99.413042 -81.774418 
L 98.697803 -77.909861 
L 97.355564 -70.391295 
L 96.750311 -66.736956 
L 95.353565 -56.624615 
L 94.878164 -52.069219 
L 93.813123 -39.944602 
L 93.536212 -39.6 
L 92.993689 -39.6 
L 92.85956 -39.6 
L 92.622579 -39.6 
L 92.583365 -39.6 
L 92.579444 -39.6 
L 92.579051 -39.6 
z
" style="stroke: #0000cd; stroke-opacity: 0.2"/>
    </defs>
    <g clip-path="url(#p81ff5c68e3)">
     <use xlink:href="#me101d73bd8" x="0" y="360" style="fill: #0000cd; fill-opacity: 0.2; stroke: #0000cd; stroke-opacity: 0.2"/>
    </g>
   </g>
   <g id="PathCollection_1">
    <defs>
     <path id="m06d41ca7d7" d="M 0 4.330127 
C 1.148363 4.330127 2.249847 3.873878 3.061862 3.061862 
C 3.873878 2.249847 4.330127 1.148363 4.330127 0 
C 4.330127 -1.148363 3.873878 -2.249847 3.061862 -3.061862 
C 2.249847 -3.873878 1.148363 -4.330127 0 -4.330127 
C -1.148363 -4.330127 -2.249847 -3.873878 -3.061862 -3.061862 
C -3.873878 -2.249847 -4.330127 -1.148363 -4.330127 0 
C -4.330127 1.148363 -3.873878 2.249847 -3.061862 3.061862 
C -2.249847 3.873878 -1.148363 4.330127 0 4.330127 
z
" style="stroke: #0000cd; stroke-opacity: 0.8"/>
    </defs>
    <g clip-path="url(#p81ff5c68e3)">
     <use xlink:href="#m06d41ca7d7" x="92.579051" y="320.4" style="fill: #0000cd; fill-opacity: 0.8; stroke: #0000cd; stroke-opacity: 0.8"/>
     <use xlink:href="#m06d41ca7d7" x="118.369565" y="177.379132" style="fill: #0000cd; fill-opacity: 0.8; stroke: #0000cd; stroke-opacity: 0.8"/>
     <use xlink:href="#m06d41ca7d7" x="144.160079" y="74.000545" style="fill: #0000cd; fill-opacity: 0.8; stroke: #0000cd; stroke-opacity: 0.8"/>
     <use xlink:href="#m06d41ca7d7" x="169.950593" y="107.073628" style="fill: #0000cd; fill-opacity: 0.8; stroke: #0000cd; stroke-opacity: 0.8"/>
     <use xlink:href="#m06d41ca7d7" x="195.741107" y="127.998703" style="fill: #0000cd; fill-opacity: 0.8; stroke: #0000cd; stroke-opacity: 0.8"/>
     <use xlink:href="#m06d41ca7d7" x="221.531621" y="144.344238" style="fill: #0000cd; fill-opacity: 0.8; stroke: #0000cd; stroke-opacity: 0.8"/>
     <use xlink:href="#m06d41ca7d7" x="247.322134" y="320.4" style="fill: #0000cd; fill-opacity: 0.8; stroke: #0000cd; stroke-opacity: 0.8"/>
     <use xlink:href="#m06d41ca7d7" x="273.112648" y="320.4" style="fill: #0000cd; fill-opacity: 0.8; stroke: #0000cd; stroke-opacity: 0.8"/>
    </g>
   </g>
   <g id="line2d_1">
    <path d="M 92.579051 320.4 
L 93.813123 320.4 
L 95.353565 304.466798 
L 97.355564 290.777844 
L 100.799809 272.250947 
L 115.580654 194.084458 
L 125.257841 143.353857 
L 127.807734 130.59853 
L 130.497561 118.204191 
L 131.976333 112.200407 
L 133.083475 108.213417 
L 134.711437 103.278673 
L 135.882052 100.425932 
L 137.213163 97.870115 
L 138.249115 96.334649 
L 139.36554 95.065727 
L 140.360876 94.221062 
L 141.356213 93.603376 
L 142.940116 93.001223 
L 144.619847 92.761888 
L 146.142031 92.814789 
L 147.256973 92.981557 
L 148.713372 93.330103 
L 150.799897 94.034533 
L 154.386189 95.649123 
L 158.067209 97.663889 
L 163.31951 100.918778 
L 168.188522 104.182411 
L 175.919306 109.671265 
L 182.967962 114.922756 
L 190.05876 120.41797 
L 197.795914 126.670164 
L 205.533069 133.243845 
L 210.691171 137.860154 
L 215.849274 142.730542 
L 221.007377 147.950417 
L 226.16548 153.678963 
L 228.744531 156.816164 
L 231.323582 160.207241 
L 233.902634 163.939978 
L 236.481685 168.155332 
L 239.060737 173.101257 
L 241.639788 179.278087 
L 244.218839 187.955373 
L 245.719642 195.5187 
L 254.096238 243.581771 
L 267.36113 320.4 
L 324.693676 320.4 
L 324.693676 320.4 
" clip-path="url(#p81ff5c68e3)" style="fill: none; stroke: #0000cd; stroke-width: 1.5; stroke-linecap: round"/>
   </g>
  </g>
  <g id="axes_2">
   <g id="patch_7">
    <path d="M 374.727273 320.4 
L 612 320.4 
L 612 43.2 
L 374.727273 43.2 
z
" style="fill: #ffffff"/>
   </g>
   <g id="matplotlib.axis_3">
    <g id="xtick_11">
     <g id="text_22">
      <!-- 0 -->
      <g style="fill: #262626" transform="translate(373.302449 340.20725) scale(0.144 -0.144)">
       <use xlink:href="#ArialMT-30"/>
      </g>
     </g>
    </g>
    <g id="xtick_12">
     <g id="text_23">
      <!-- 1 -->
      <g style="fill: #262626" transform="translate(399.092963 340.20725) scale(0.144 -0.144)">
       <use xlink:href="#ArialMT-31"/>
      </g>
     </g>
    </g>
    <g id="xtick_13">
     <g id="text_24">
      <!-- 2 -->
      <g style="fill: #262626" transform="translate(424.883477 340.20725) scale(0.144 -0.144)">
       <use xlink:href="#ArialMT-32"/>
      </g>
     </g>
    </g>
    <g id="xtick_14">
     <g id="text_25">
      <!-- 3 -->
      <g style="fill: #262626" transform="translate(450.673991 340.20725) scale(0.144 -0.144)">
       <use xlink:href="#ArialMT-33"/>
      </g>
     </g>
    </g>
    <g id="xtick_15">
     <g id="text_26">
      <!-- 4 -->
      <g style="fill: #262626" transform="translate(476.464504 340.20725) scale(0.144 -0.144)">
       <use xlink:href="#ArialMT-34"/>
      </g>
     </g>
    </g>
    <g id="xtick_16">
     <g id="text_27">
      <!-- 5 -->
      <g style="fill: #262626" transform="translate(502.255018 340.20725) scale(0.144 -0.144)">
       <use xlink:href="#ArialMT-35"/>
      </g>
     </g>
    </g>
    <g id="xtick_17">
     <g id="text_28">
      <!-- 6 -->
      <g style="fill: #262626" transform="translate(528.045532 340.20725) scale(0.144 -0.144)">
       <use xlink:href="#ArialMT-36"/>
      </g>
     </g>
    </g>
    <g id="xtick_18">
     <g id="text_29">
      <!-- 7 -->
      <g style="fill: #262626" transform="translate(553.836046 340.20725) scale(0.144 -0.144)">
       <use xlink:href="#ArialMT-37"/>
      </g>
     </g>
    </g>
    <g id="xtick_19">
     <g id="text_30">
      <!-- 8 -->
      <g style="fill: #262626" transform="translate(579.62656 340.20725) scale(0.144 -0.144)">
       <use xlink:href="#ArialMT-38"/>
      </g>
     </g>
    </g>
    <g id="xtick_20">
     <g id="text_31">
      <!-- 9 -->
      <g style="fill: #262626" transform="translate(605.417074 340.20725) scale(0.144 -0.144)">
       <use xlink:href="#ArialMT-39"/>
      </g>
     </g>
    </g>
    <g id="text_32">
     <!-- Time (d) -->
     <g style="fill: #262626" transform="translate(457.993636 361.04625) scale(0.192 -0.192)">
      <use xlink:href="#ArialMT-54"/>
      <use xlink:href="#ArialMT-69" x="57.333984"/>
      <use xlink:href="#ArialMT-6d" x="79.550781"/>
      <use xlink:href="#ArialMT-65" x="162.851562"/>
      <use xlink:href="#ArialMT-20" x="218.466797"/>
      <use xlink:href="#ArialMT-28" x="246.25"/>
      <use xlink:href="#ArialMT-64" x="279.550781"/>
      <use xlink:href="#ArialMT-29" x="335.166016"/>
     </g>
    </g>
   </g>
   <g id="matplotlib.axis_4">
    <g id="ytick_10">
     <g id="text_33">
      <!-- 4.0 -->
      <g style="fill: #262626" transform="translate(345.211273 325.553625) scale(0.144 -0.144)">
       <defs>
        <path id="ArialMT-2e" d="M 581 0 
L 581 641 
L 1222 641 
L 1222 0 
L 581 0 
z
" transform="scale(0.015625)"/>
       </defs>
       <use xlink:href="#ArialMT-34"/>
       <use xlink:href="#ArialMT-2e" x="55.615234"/>
       <use xlink:href="#ArialMT-30" x="83.398438"/>
      </g>
     </g>
    </g>
    <g id="ytick_11">
     <g id="text_34">
      <!-- 4.5 -->
      <g style="fill: #262626" transform="translate(345.211273 290.903625) scale(0.144 -0.144)">
       <use xlink:href="#ArialMT-34"/>
       <use xlink:href="#ArialMT-2e" x="55.615234"/>
       <use xlink:href="#ArialMT-35" x="83.398438"/>
      </g>
     </g>
    </g>
    <g id="ytick_12">
     <g id="text_35">
      <!-- 5.0 -->
      <g style="fill: #262626" transform="translate(345.211273 256.253625) scale(0.144 -0.144)">
       <use xlink:href="#ArialMT-35"/>
       <use xlink:href="#ArialMT-2e" x="55.615234"/>
       <use xlink:href="#ArialMT-30" x="83.398438"/>
      </g>
     </g>
    </g>
    <g id="ytick_13">
     <g id="text_36">
      <!-- 5.5 -->
      <g style="fill: #262626" transform="translate(345.211273 221.603625) scale(0.144 -0.144)">
       <use xlink:href="#ArialMT-35"/>
       <use xlink:href="#ArialMT-2e" x="55.615234"/>
       <use xlink:href="#ArialMT-35" x="83.398438"/>
      </g>
     </g>
    </g>
    <g id="ytick_14">
     <g id="text_37">
      <!-- 6.0 -->
      <g style="fill: #262626" transform="translate(345.211273 186.953625) scale(0.144 -0.144)">
       <use xlink:href="#ArialMT-36"/>
       <use xlink:href="#ArialMT-2e" x="55.615234"/>
       <use xlink:href="#ArialMT-30" x="83.398438"/>
      </g>
     </g>
    </g>
    <g id="ytick_15">
     <g id="text_38">
      <!-- 6.5 -->
      <g style="fill: #262626" transform="translate(345.211273 152.303625) scale(0.144 -0.144)">
       <use xlink:href="#ArialMT-36"/>
       <use xlink:href="#ArialMT-2e" x="55.615234"/>
       <use xlink:href="#ArialMT-35" x="83.398438"/>
      </g>
     </g>
    </g>
    <g id="ytick_16">
     <g id="text_39">
      <!-- 7.0 -->
      <g style="fill: #262626" transform="translate(345.211273 117.653625) scale(0.144 -0.144)">
       <use xlink:href="#ArialMT-37"/>
       <use xlink:href="#ArialMT-2e" x="55.615234"/>
       <use xlink:href="#ArialMT-30" x="83.398438"/>
      </g>
     </g>
    </g>
    <g id="ytick_17">
     <g id="text_40">
      <!-- 7.5 -->
      <g style="fill: #262626" transform="translate(345.211273 83.003625) scale(0.144 -0.144)">
       <use xlink:href="#ArialMT-37"/>
       <use xlink:href="#ArialMT-2e" x="55.615234"/>
       <use xlink:href="#ArialMT-35" x="83.398438"/>
      </g>
     </g>
    </g>
    <g id="ytick_18">
     <g id="text_41">
      <!-- 8.0 -->
      <g style="fill: #262626" transform="translate(345.211273 48.353625) scale(0.144 -0.144)">
       <use xlink:href="#ArialMT-38"/>
       <use xlink:href="#ArialMT-2e" x="55.615234"/>
       <use xlink:href="#ArialMT-30" x="83.398438"/>
      </g>
     </g>
    </g>
    <g id="text_42">
     <!-- Log10(CD8TE) -->
     <g style="fill: #262626" transform="translate(337.170273 246.357) rotate(-90) scale(0.192 -0.192)">
      <defs>
       <path id="ArialMT-43" d="M 3763 1606 
L 4369 1453 
Q 4178 706 3683 314 
Q 3188 -78 2472 -78 
Q 1731 -78 1267 223 
Q 803 525 561 1097 
Q 319 1669 319 2325 
Q 319 3041 592 3573 
Q 866 4106 1370 4382 
Q 1875 4659 2481 4659 
Q 3169 4659 3637 4309 
Q 4106 3959 4291 3325 
L 3694 3184 
Q 3534 3684 3231 3912 
Q 2928 4141 2469 4141 
Q 1941 4141 1586 3887 
Q 1231 3634 1087 3207 
Q 944 2781 944 2328 
Q 944 1744 1114 1308 
Q 1284 872 1643 656 
Q 2003 441 2422 441 
Q 2931 441 3284 734 
Q 3638 1028 3763 1606 
z
" transform="scale(0.015625)"/>
       <path id="ArialMT-44" d="M 494 0 
L 494 4581 
L 2072 4581 
Q 2606 4581 2888 4516 
Q 3281 4425 3559 4188 
Q 3922 3881 4101 3404 
Q 4281 2928 4281 2316 
Q 4281 1794 4159 1391 
Q 4038 988 3847 723 
Q 3656 459 3429 307 
Q 3203 156 2883 78 
Q 2563 0 2147 0 
L 494 0 
z
M 1100 541 
L 2078 541 
Q 2531 541 2789 625 
Q 3047 709 3200 863 
Q 3416 1078 3536 1442 
Q 3656 1806 3656 2325 
Q 3656 3044 3420 3430 
Q 3184 3816 2847 3947 
Q 2603 4041 2063 4041 
L 1100 4041 
L 1100 541 
z
" transform="scale(0.015625)"/>
       <path id="ArialMT-45" d="M 506 0 
L 506 4581 
L 3819 4581 
L 3819 4041 
L 1113 4041 
L 1113 2638 
L 3647 2638 
L 3647 2100 
L 1113 2100 
L 1113 541 
L 3925 541 
L 3925 0 
L 506 0 
z
" transform="scale(0.015625)"/>
      </defs>
      <use xlink:href="#ArialMT-4c"/>
      <use xlink:href="#ArialMT-6f" x="55.615234"/>
      <use xlink:href="#ArialMT-67" x="111.230469"/>
      <use xlink:href="#ArialMT-31" x="166.845703"/>
      <use xlink:href="#ArialMT-30" x="222.460938"/>
      <use xlink:href="#ArialMT-28" x="278.076172"/>
      <use xlink:href="#ArialMT-43" x="311.376953"/>
      <use xlink:href="#ArialMT-44" x="383.59375"/>
      <use xlink:href="#ArialMT-38" x="455.810547"/>
      <use xlink:href="#ArialMT-54" x="511.425781"/>
      <use xlink:href="#ArialMT-45" x="572.509766"/>
      <use xlink:href="#ArialMT-29" x="639.208984"/>
     </g>
    </g>
   </g>
   <g id="patch_8">
    <path d="M 374.727273 320.4 
L 374.727273 43.2 
" style="fill: none; stroke: #262626; stroke-width: 1.25; stroke-linejoin: miter; stroke-linecap: square"/>
   </g>
   <g id="patch_9">
    <path d="M 612 320.4 
L 612 43.2 
" style="fill: none; stroke: #262626; stroke-width: 1.25; stroke-linejoin: miter; stroke-linecap: square"/>
   </g>
   <g id="patch_10">
    <path d="M 374.727273 320.4 
L 612 320.4 
" style="fill: none; stroke: #262626; stroke-width: 1.25; stroke-linejoin: miter; stroke-linecap: square"/>
   </g>
   <g id="patch_11">
    <path d="M 374.727273 43.2 
L 612 43.2 
" style="fill: none; stroke: #262626; stroke-width: 1.25; stroke-linejoin: miter; stroke-linecap: square"/>
   </g>
   <g id="PolyCollection_2">
    <path d="M 377.306324 597.6 
L 377.306324 597.6 
L 377.306716 597.6 
L 377.310638 597.6 
L 377.349852 597.6 
L 377.586832 597.6 
L 377.720962 597.6 
L 378.263484 597.6 
L 378.540395 597.6 
L 379.605437 597.6 
L 380.080838 597.6 
L 381.477584 597.6 
L 382.082836 597.6 
L 383.425076 597.6 
L 384.140314 597.6 
L 385.527082 597.6 
L 386.32378 597.6 
L 387.703859 597.6 
L 388.567168 597.6 
L 389.950235 597.6 
L 390.863617 597.6 
L 392.240224 597.6 
L 393.190811 597.6 
L 394.560666 597.6 
L 395.537384 597.6 
L 397.032384 597.6 
L 397.992546 597.6 
L 399.31141 597.6 
L 400.307926 597.6 
L 401.743796 597.6 
L 402.736975 597.6 
L 404.083241 595.17059 
L 405.101753 583.350012 
L 406.554579 566.075291 
L 407.567653 554.216151 
L 408.942938 538.206682 
L 409.985114 526.168412 
L 411.480385 508.92902 
L 412.535007 496.828125 
L 414.165251 478.12095 
L 415.224834 466.03088 
L 416.703606 449.173095 
L 417.810748 436.57859 
L 419.438709 418.106115 
L 420.609325 404.957965 
L 421.940436 390.121681 
L 422.976388 378.694946 
L 424.092813 366.534915 
L 425.088149 355.833365 
L 426.083485 345.315711 
L 426.910695 336.721905 
L 427.667389 328.990351 
L 428.304911 322.583139 
L 428.863026 317.071866 
L 429.34712 312.32325 
L 429.779281 308.184881 
L 430.165567 304.516455 
L 430.551853 300.848028 
L 430.869303 297.890502 
L 431.16628 295.160966 
L 431.463257 292.547519 
L 431.708247 290.391565 
L 431.984246 287.962726 
L 433.053622 278.552031 
L 433.440644 275.146166 
L 434.91905 263.163217 
L 435.52717 258.597367 
L 438.106221 239.847202 
L 439.113462 233.486358 
L 441.692513 217.983519 
L 442.794481 212.269262 
L 444.818502 202.288347 
L 445.913599 197.462007 
L 448.046783 188.879301 
L 449.233697 184.654142 
L 451.030663 178.732594 
L 452.915795 173.396966 
L 454.800926 168.655929 
L 456.725067 164.53651 
L 458.649208 161.626403 
L 460.646578 159.31725 
L 462.996131 157.102782 
L 465.345683 155.511363 
L 467.695235 154.401903 
L 470.044787 153.706149 
L 472.394339 153.555334 
L 474.786033 153.84263 
L 477.365084 154.388345 
L 479.944136 155.105872 
L 482.523187 155.954609 
L 485.102239 156.902353 
L 487.68129 157.923965 
L 490.260341 159.000121 
L 492.839393 160.116176 
L 495.418444 161.261173 
L 497.997495 162.42701 
L 500.576547 163.607758 
L 503.155598 164.799119 
L 505.73465 165.997998 
L 508.313701 167.202184 
L 510.892752 168.410103 
L 513.471804 169.64084 
L 516.050855 170.926354 
L 518.629907 172.213927 
L 521.208958 173.502948 
L 523.788009 174.792985 
L 526.367061 176.08373 
L 528.946112 177.374899 
L 529.909367 177.857238 
L 530.020633 177.912958 
L 530.099909 177.952657 
L 530.1689 177.987206 
L 530.229271 178.017439 
L 530.304585 178.055154 
L 530.36646 178.08614 
L 530.446914 178.12643 
L 530.547962 178.177032 
L 531.106735 178.456868 
L 531.927423 178.867891 
L 532.947201 179.378659 
L 534.261174 180.036826 
L 535.575147 180.695034 
L 537.191192 181.504612 
L 538.823511 182.322388 
L 540.652254 183.238614 
L 542.480998 184.154876 
L 544.368875 185.100795 
L 546.262178 186.049455 
L 548.190077 187.015468 
L 550.126436 187.985734 
L 552.088403 188.968844 
L 554.069418 189.96151 
L 556.09213 191.045651 
L 558.182509 192.173952 
L 560.409062 193.37576 
L 562.881785 194.710447 
L 565.460837 196.192531 
L 568.039888 197.739445 
L 570.618939 199.286362 
L 573.197991 200.833281 
L 575.777042 202.3802 
L 578.356094 203.92712 
L 580.935145 205.474042 
L 583.514196 207.020966 
L 586.093248 208.56789 
L 588.672299 210.114813 
L 591.251351 211.661741 
L 593.830402 213.208676 
L 596.409453 214.755609 
L 598.988505 216.30254 
L 601.567556 217.849469 
L 604.146607 219.396393 
L 606.725659 220.943306 
L 609.30471 222.490156 
L 609.420949 222.559869 
L 609.420949 204.816228 
L 609.420949 204.816228 
L 609.30471 204.76066 
L 606.725659 203.527683 
L 604.146607 202.29469 
L 601.567556 201.061697 
L 598.988505 199.828705 
L 596.409453 198.595712 
L 593.830402 197.362719 
L 591.251351 196.129727 
L 588.672299 194.896734 
L 586.093248 193.663742 
L 583.514196 192.430749 
L 580.935145 191.197757 
L 578.356094 189.964765 
L 575.777042 188.731773 
L 573.197991 187.498782 
L 570.618939 186.265791 
L 568.039888 185.032801 
L 565.460837 183.799812 
L 562.881785 182.563615 
L 560.409062 181.357377 
L 558.182509 180.271229 
L 556.09213 179.251511 
L 554.069418 178.264807 
L 552.088403 177.298447 
L 550.126436 176.341384 
L 548.190077 175.396824 
L 546.262178 174.4564 
L 544.368875 173.532869 
L 542.480998 172.612014 
L 540.652254 171.720009 
L 538.823511 170.828051 
L 537.191192 170.031923 
L 535.575147 169.243745 
L 534.261174 168.602956 
L 532.947201 167.962193 
L 531.927423 167.464895 
L 531.106735 167.064725 
L 530.547962 166.79228 
L 530.446914 166.743012 
L 530.36646 166.703787 
L 530.304585 166.67362 
L 530.229271 166.636902 
L 530.1689 166.607469 
L 530.099909 166.573833 
L 530.020633 166.535184 
L 529.909367 166.480938 
L 528.946112 166.011316 
L 526.367061 164.754134 
L 523.788009 163.497294 
L 521.208958 162.241109 
L 518.629907 160.98568 
L 516.050855 159.731373 
L 513.471804 158.478703 
L 510.892752 157.228366 
L 508.313701 155.981347 
L 505.73465 154.739034 
L 503.155598 153.503379 
L 500.576547 152.277104 
L 497.997495 151.06399 
L 495.418444 149.869241 
L 492.839393 148.699964 
L 490.260341 147.565764 
L 487.68129 146.479481 
L 485.102239 145.458062 
L 482.523187 144.523574 
L 479.944136 143.704329 
L 477.365084 143.036099 
L 474.786033 142.563355 
L 472.394339 142.337343 
L 470.044787 142.381718 
L 467.695235 142.764313 
L 465.345683 143.495077 
L 462.996131 144.712336 
L 460.646578 146.468423 
L 458.649208 148.235399 
L 456.725067 150.258987 
L 454.800926 152.830886 
L 452.915795 155.843222 
L 451.030663 159.526928 
L 449.233697 163.777697 
L 448.046783 166.861172 
L 445.913599 173.418275 
L 444.818502 177.19741 
L 442.794481 184.818268 
L 441.692513 189.416882 
L 439.113462 201.663018 
L 438.106221 207.208356 
L 435.52717 222.574686 
L 434.91905 226.859021 
L 433.440644 237.307845 
L 433.053622 240.043176 
L 431.984246 248.360874 
L 431.708247 250.704897 
L 431.463257 252.785565 
L 431.16628 255.30775 
L 430.869303 257.829935 
L 430.551853 260.526002 
L 430.165567 263.806676 
L 429.779281 267.087349 
L 429.34712 270.88966 
L 428.863026 275.345325 
L 428.304911 280.580484 
L 427.667389 286.62197 
L 426.910695 294.046419 
L 426.083485 302.347254 
L 425.088149 312.616829 
L 424.092813 323.150882 
L 422.976388 335.250748 
L 421.940436 346.71018 
L 420.609325 361.682635 
L 419.438709 375.052441 
L 417.810748 393.847521 
L 416.703606 406.823789 
L 415.224834 424.149799 
L 414.165251 436.619976 
L 412.535007 455.413048 
L 411.480385 467.477674 
L 409.985114 484.536972 
L 408.942938 496.483434 
L 407.567653 512.258713 
L 406.554579 523.945985 
L 405.101753 540.837978 
L 404.083241 552.796965 
L 402.736975 568.832349 
L 401.743796 580.851954 
L 400.307926 593.754272 
L 399.31141 597.6 
L 397.992546 597.6 
L 397.032384 597.6 
L 395.537384 597.6 
L 394.560666 597.6 
L 393.190811 597.6 
L 392.240224 597.6 
L 390.863617 597.6 
L 389.950235 597.6 
L 388.567168 597.6 
L 387.703859 597.6 
L 386.32378 597.6 
L 385.527082 597.6 
L 384.140314 597.6 
L 383.425076 597.6 
L 382.082836 597.6 
L 381.477584 597.6 
L 380.080838 597.6 
L 379.605437 597.6 
L 378.540395 597.6 
L 378.263484 597.6 
L 377.720962 597.6 
L 377.586832 597.6 
L 377.349852 597.6 
L 377.310638 597.6 
L 377.306716 597.6 
L 377.306324 597.6 
z
" clip-path="url(#p0e1b61cd73)" style="fill: #0000cd; fill-opacity: 0.2; stroke: #0000cd; stroke-opacity: 0.2"/>
   </g>
   <g id="PathCollection_2">
    <g clip-path="url(#p0e1b61cd73)">
     <use xlink:href="#m06d41ca7d7" x="377.306324" y="237.614051" style="fill: #0000cd; fill-opacity: 0.8; stroke: #0000cd; stroke-opacity: 0.8"/>
     <use xlink:href="#m06d41ca7d7" x="403.096838" y="253.885074" style="fill: #0000cd; fill-opacity: 0.8; stroke: #0000cd; stroke-opacity: 0.8"/>
     <use xlink:href="#m06d41ca7d7" x="428.887352" y="217.690646" style="fill: #0000cd; fill-opacity: 0.8; stroke: #0000cd; stroke-opacity: 0.8"/>
     <use xlink:href="#m06d41ca7d7" x="454.677866" y="163.90984" style="fill: #0000cd; fill-opacity: 0.8; stroke: #0000cd; stroke-opacity: 0.8"/>
     <use xlink:href="#m06d41ca7d7" x="480.468379" y="154.00634" style="fill: #0000cd; fill-opacity: 0.8; stroke: #0000cd; stroke-opacity: 0.8"/>
     <use xlink:href="#m06d41ca7d7" x="506.258893" y="153.404358" style="fill: #0000cd; fill-opacity: 0.8; stroke: #0000cd; stroke-opacity: 0.8"/>
     <use xlink:href="#m06d41ca7d7" x="532.049407" y="162.714104" style="fill: #0000cd; fill-opacity: 0.8; stroke: #0000cd; stroke-opacity: 0.8"/>
     <use xlink:href="#m06d41ca7d7" x="557.839921" y="180.492229" style="fill: #0000cd; fill-opacity: 0.8; stroke: #0000cd; stroke-opacity: 0.8"/>
    </g>
   </g>
   <g id="line2d_2">
    <path d="M 422.369308 361 
L 426.083485 322.370178 
L 429.34712 290.533423 
L 431.984246 266.918503 
L 433.440644 254.83593 
L 435.52717 238.847197 
L 439.113462 215.13616 
L 441.692513 200.987631 
L 442.794481 195.627444 
L 444.818502 186.780259 
L 445.913599 182.496095 
L 448.046783 175.103799 
L 449.233697 171.489378 
L 451.030663 166.649509 
L 452.915795 162.318631 
L 454.800926 158.676327 
L 456.725067 155.59451 
L 458.649208 153.084346 
L 460.646578 151.01302 
L 462.996131 149.182731 
L 465.345683 147.91302 
L 467.695235 147.115353 
L 470.044787 146.711421 
L 472.394339 146.632646 
L 474.786033 146.825005 
L 477.365084 147.279337 
L 479.944136 147.935766 
L 482.523187 148.748379 
L 487.68129 150.701996 
L 492.839393 152.929387 
L 500.576547 156.525452 
L 516.050855 164.027923 
L 604.146607 207.28211 
L 609.420949 209.872575 
L 609.420949 209.872575 
" clip-path="url(#p0e1b61cd73)" style="fill: none; stroke: #0000cd; stroke-width: 1.5; stroke-linecap: round"/>
   </g>
  </g>
  <g id="legend_1">
   <g id="patch_12">
    <path d="M 769.44 42.519 
L 862.911 42.519 
Q 866.751 42.519 866.751 38.679 
L 866.751 13.44 
Q 866.751 9.6 862.911 9.6 
L 769.44 9.6 
Q 765.6 9.6 765.6 13.44 
L 765.6 38.679 
Q 765.6 42.519 769.44 42.519 
z
" style="fill: #ffffff; opacity: 0.8; stroke: #cccccc; stroke-linejoin: miter"/>
   </g>
   <g id="PathCollection_3">
    <g>
     <use xlink:href="#m06d41ca7d7" x="792.48" y="25.983" style="fill: #0000cd; fill-opacity: 0.8; stroke: #0000cd; stroke-opacity: 0.8"/>
    </g>
   </g>
   <g id="text_43">
    <!-- 302 -->
    <g style="fill: #262626" transform="translate(827.04 31.023) scale(0.192 -0.192)">
     <use xlink:href="#ArialMT-33"/>
     <use xlink:href="#ArialMT-30" x="55.615234"/>
     <use xlink:href="#ArialMT-32" x="111.230469"/>
    </g>
   </g>
  </g>
 </g>
 <defs>
  <clipPath id="p81ff5c68e3">
   <rect x="90" y="43.2" width="237.272727" height="277.2"/>
  </clipPath>
  <clipPath id="p0e1b61cd73">
   <rect x="374.727273" y="43.2" width="237.272727" height="277.2"/>
  </clipPath>
 </defs>
</svg>
