<?xml version="1.0" encoding="utf-8" standalone="no"?>
<!DOCTYPE svg PUBLIC "-//W3C//DTD SVG 1.1//EN"
  "http://www.w3.org/Graphics/SVG/1.1/DTD/svg11.dtd">
<svg xmlns:xlink="http://www.w3.org/1999/xlink" width="1080pt" height="360pt" viewBox="0 0 1080 360" xmlns="http://www.w3.org/2000/svg" version="1.1">
 <metadata>
  <rdf:RDF xmlns:dc="http://purl.org/dc/elements/1.1/" xmlns:cc="http://creativecommons.org/ns#" xmlns:rdf="http://www.w3.org/1999/02/22-rdf-syntax-ns#">
   <cc:Work>
    <dc:type rdf:resource="http://purl.org/dc/dcmitype/StillImage"/>
    <dc:date>2024-11-27T01:22:40.577401</dc:date>
    <dc:format>image/svg+xml</dc:format>
    <dc:creator>
     <cc:Agent>
      <dc:title>Matplotlib v3.9.2, https://matplotlib.org/</dc:title>
     </cc:Agent>
    </dc:creator>
   </cc:Work>
  </rdf:RDF>
 </metadata>
 <defs>
  <style type="text/css">*{stroke-linejoin: round; stroke-linecap: butt}</style>
 </defs>
 <g id="figure_1">
  <g id="patch_1">
   <path d="M 0 360 
L 1080 360 
L 1080 0 
L 0 0 
z
" style="fill: #ffffff"/>
  </g>
  <g id="axes_1">
   <g id="patch_2">
    <path d="M 63.56 305.8 
L 288.19 305.8 
L 288.19 31.2 
L 63.56 31.2 
z
" style="fill: #ffffff"/>
   </g>
   <g id="matplotlib.axis_1">
    <g id="xtick_1">
     <g id="line2d_1">
      <defs>
       <path id="me4c7c708ee" d="M 0 0 
L 0 3.5 
" style="stroke: #000000; stroke-width: 0.8"/>
      </defs>
      <g>
       <use xlink:href="#me4c7c708ee" x="66.29939" y="305.8" style="stroke: #000000; stroke-width: 0.8"/>
      </g>
     </g>
     <g id="text_1">
      <!-- 0 -->
      <g transform="translate(61.71839 323.74175) scale(0.144 -0.144)">
       <defs>
        <path id="DejaVuSans-30" d="M 2034 4250 
Q 1547 4250 1301 3770 
Q 1056 3291 1056 2328 
Q 1056 1369 1301 889 
Q 1547 409 2034 409 
Q 2525 409 2770 889 
Q 3016 1369 3016 2328 
Q 3016 3291 2770 3770 
Q 2525 4250 2034 4250 
z
M 2034 4750 
Q 2819 4750 3233 4129 
Q 3647 3509 3647 2328 
Q 3647 1150 3233 529 
Q 2819 -91 2034 -91 
Q 1250 -91 836 529 
Q 422 1150 422 2328 
Q 422 3509 836 4129 
Q 1250 4750 2034 4750 
z
" transform="scale(0.015625)"/>
       </defs>
       <use xlink:href="#DejaVuSans-30"/>
      </g>
     </g>
    </g>
    <g id="xtick_2">
     <g id="line2d_2">
      <g>
       <use xlink:href="#me4c7c708ee" x="93.693293" y="305.8" style="stroke: #000000; stroke-width: 0.8"/>
      </g>
     </g>
     <g id="text_2">
      <!-- 1 -->
      <g transform="translate(89.112293 323.74175) scale(0.144 -0.144)">
       <defs>
        <path id="DejaVuSans-31" d="M 794 531 
L 1825 531 
L 1825 4091 
L 703 3866 
L 703 4441 
L 1819 4666 
L 2450 4666 
L 2450 531 
L 3481 531 
L 3481 0 
L 794 0 
L 794 531 
z
" transform="scale(0.015625)"/>
       </defs>
       <use xlink:href="#DejaVuSans-31"/>
      </g>
     </g>
    </g>
    <g id="xtick_3">
     <g id="line2d_3">
      <g>
       <use xlink:href="#me4c7c708ee" x="121.087195" y="305.8" style="stroke: #000000; stroke-width: 0.8"/>
      </g>
     </g>
     <g id="text_3">
      <!-- 2 -->
      <g transform="translate(116.506195 323.74175) scale(0.144 -0.144)">
       <defs>
        <path id="DejaVuSans-32" d="M 1228 531 
L 3431 531 
L 3431 0 
L 469 0 
L 469 531 
Q 828 903 1448 1529 
Q 2069 2156 2228 2338 
Q 2531 2678 2651 2914 
Q 2772 3150 2772 3378 
Q 2772 3750 2511 3984 
Q 2250 4219 1831 4219 
Q 1534 4219 1204 4116 
Q 875 4013 500 3803 
L 500 4441 
Q 881 4594 1212 4672 
Q 1544 4750 1819 4750 
Q 2544 4750 2975 4387 
Q 3406 4025 3406 3419 
Q 3406 3131 3298 2873 
Q 3191 2616 2906 2266 
Q 2828 2175 2409 1742 
Q 1991 1309 1228 531 
z
" transform="scale(0.015625)"/>
       </defs>
       <use xlink:href="#DejaVuSans-32"/>
      </g>
     </g>
    </g>
    <g id="xtick_4">
     <g id="line2d_4">
      <g>
       <use xlink:href="#me4c7c708ee" x="148.481098" y="305.8" style="stroke: #000000; stroke-width: 0.8"/>
      </g>
     </g>
     <g id="text_4">
      <!-- 3 -->
      <g transform="translate(143.900098 323.74175) scale(0.144 -0.144)">
       <defs>
        <path id="DejaVuSans-33" d="M 2597 2516 
Q 3050 2419 3304 2112 
Q 3559 1806 3559 1356 
Q 3559 666 3084 287 
Q 2609 -91 1734 -91 
Q 1441 -91 1130 -33 
Q 819 25 488 141 
L 488 750 
Q 750 597 1062 519 
Q 1375 441 1716 441 
Q 2309 441 2620 675 
Q 2931 909 2931 1356 
Q 2931 1769 2642 2001 
Q 2353 2234 1838 2234 
L 1294 2234 
L 1294 2753 
L 1863 2753 
Q 2328 2753 2575 2939 
Q 2822 3125 2822 3475 
Q 2822 3834 2567 4026 
Q 2313 4219 1838 4219 
Q 1578 4219 1281 4162 
Q 984 4106 628 3988 
L 628 4550 
Q 988 4650 1302 4700 
Q 1616 4750 1894 4750 
Q 2613 4750 3031 4423 
Q 3450 4097 3450 3541 
Q 3450 3153 3228 2886 
Q 3006 2619 2597 2516 
z
" transform="scale(0.015625)"/>
       </defs>
       <use xlink:href="#DejaVuSans-33"/>
      </g>
     </g>
    </g>
    <g id="xtick_5">
     <g id="line2d_5">
      <g>
       <use xlink:href="#me4c7c708ee" x="175.875" y="305.8" style="stroke: #000000; stroke-width: 0.8"/>
      </g>
     </g>
     <g id="text_5">
      <!-- 4 -->
      <g transform="translate(171.294 323.74175) scale(0.144 -0.144)">
       <defs>
        <path id="DejaVuSans-34" d="M 2419 4116 
L 825 1625 
L 2419 1625 
L 2419 4116 
z
M 2253 4666 
L 3047 4666 
L 3047 1625 
L 3713 1625 
L 3713 1100 
L 3047 1100 
L 3047 0 
L 2419 0 
L 2419 1100 
L 313 1100 
L 313 1709 
L 2253 4666 
z
" transform="scale(0.015625)"/>
       </defs>
       <use xlink:href="#DejaVuSans-34"/>
      </g>
     </g>
    </g>
    <g id="xtick_6">
     <g id="line2d_6">
      <g>
       <use xlink:href="#me4c7c708ee" x="203.268902" y="305.8" style="stroke: #000000; stroke-width: 0.8"/>
      </g>
     </g>
     <g id="text_6">
      <!-- 5 -->
      <g transform="translate(198.687902 323.74175) scale(0.144 -0.144)">
       <defs>
        <path id="DejaVuSans-35" d="M 691 4666 
L 3169 4666 
L 3169 4134 
L 1269 4134 
L 1269 2991 
Q 1406 3038 1543 3061 
Q 1681 3084 1819 3084 
Q 2600 3084 3056 2656 
Q 3513 2228 3513 1497 
Q 3513 744 3044 326 
Q 2575 -91 1722 -91 
Q 1428 -91 1123 -41 
Q 819 9 494 109 
L 494 744 
Q 775 591 1075 516 
Q 1375 441 1709 441 
Q 2250 441 2565 725 
Q 2881 1009 2881 1497 
Q 2881 1984 2565 2268 
Q 2250 2553 1709 2553 
Q 1456 2553 1204 2497 
Q 953 2441 691 2322 
L 691 4666 
z
" transform="scale(0.015625)"/>
       </defs>
       <use xlink:href="#DejaVuSans-35"/>
      </g>
     </g>
    </g>
    <g id="xtick_7">
     <g id="line2d_7">
      <g>
       <use xlink:href="#me4c7c708ee" x="230.662805" y="305.8" style="stroke: #000000; stroke-width: 0.8"/>
      </g>
     </g>
     <g id="text_7">
      <!-- 6 -->
      <g transform="translate(226.081805 323.74175) scale(0.144 -0.144)">
       <defs>
        <path id="DejaVuSans-36" d="M 2113 2584 
Q 1688 2584 1439 2293 
Q 1191 2003 1191 1497 
Q 1191 994 1439 701 
Q 1688 409 2113 409 
Q 2538 409 2786 701 
Q 3034 994 3034 1497 
Q 3034 2003 2786 2293 
Q 2538 2584 2113 2584 
z
M 3366 4563 
L 3366 3988 
Q 3128 4100 2886 4159 
Q 2644 4219 2406 4219 
Q 1781 4219 1451 3797 
Q 1122 3375 1075 2522 
Q 1259 2794 1537 2939 
Q 1816 3084 2150 3084 
Q 2853 3084 3261 2657 
Q 3669 2231 3669 1497 
Q 3669 778 3244 343 
Q 2819 -91 2113 -91 
Q 1303 -91 875 529 
Q 447 1150 447 2328 
Q 447 3434 972 4092 
Q 1497 4750 2381 4750 
Q 2619 4750 2861 4703 
Q 3103 4656 3366 4563 
z
" transform="scale(0.015625)"/>
       </defs>
       <use xlink:href="#DejaVuSans-36"/>
      </g>
     </g>
    </g>
    <g id="xtick_8">
     <g id="line2d_8">
      <g>
       <use xlink:href="#me4c7c708ee" x="258.056707" y="305.8" style="stroke: #000000; stroke-width: 0.8"/>
      </g>
     </g>
     <g id="text_8">
      <!-- 7 -->
      <g transform="translate(253.475707 323.74175) scale(0.144 -0.144)">
       <defs>
        <path id="DejaVuSans-37" d="M 525 4666 
L 3525 4666 
L 3525 4397 
L 1831 0 
L 1172 0 
L 2766 4134 
L 525 4134 
L 525 4666 
z
" transform="scale(0.015625)"/>
       </defs>
       <use xlink:href="#DejaVuSans-37"/>
      </g>
     </g>
    </g>
    <g id="xtick_9">
     <g id="line2d_9">
      <g>
       <use xlink:href="#me4c7c708ee" x="285.45061" y="305.8" style="stroke: #000000; stroke-width: 0.8"/>
      </g>
     </g>
     <g id="text_9">
      <!-- 8 -->
      <g transform="translate(280.86961 323.74175) scale(0.144 -0.144)">
       <defs>
        <path id="DejaVuSans-38" d="M 2034 2216 
Q 1584 2216 1326 1975 
Q 1069 1734 1069 1313 
Q 1069 891 1326 650 
Q 1584 409 2034 409 
Q 2484 409 2743 651 
Q 3003 894 3003 1313 
Q 3003 1734 2745 1975 
Q 2488 2216 2034 2216 
z
M 1403 2484 
Q 997 2584 770 2862 
Q 544 3141 544 3541 
Q 544 4100 942 4425 
Q 1341 4750 2034 4750 
Q 2731 4750 3128 4425 
Q 3525 4100 3525 3541 
Q 3525 3141 3298 2862 
Q 3072 2584 2669 2484 
Q 3125 2378 3379 2068 
Q 3634 1759 3634 1313 
Q 3634 634 3220 271 
Q 2806 -91 2034 -91 
Q 1263 -91 848 271 
Q 434 634 434 1313 
Q 434 1759 690 2068 
Q 947 2378 1403 2484 
z
M 1172 3481 
Q 1172 3119 1398 2916 
Q 1625 2713 2034 2713 
Q 2441 2713 2670 2916 
Q 2900 3119 2900 3481 
Q 2900 3844 2670 4047 
Q 2441 4250 2034 4250 
Q 1625 4250 1398 4047 
Q 1172 3844 1172 3481 
z
" transform="scale(0.015625)"/>
       </defs>
       <use xlink:href="#DejaVuSans-38"/>
      </g>
     </g>
    </g>
    <g id="text_10">
     <!-- Time (d) -->
     <g transform="translate(135.75 345.3255) scale(0.192 -0.192)">
      <defs>
       <path id="DejaVuSans-54" d="M -19 4666 
L 3928 4666 
L 3928 4134 
L 2272 4134 
L 2272 0 
L 1638 0 
L 1638 4134 
L -19 4134 
L -19 4666 
z
" transform="scale(0.015625)"/>
       <path id="DejaVuSans-69" d="M 603 3500 
L 1178 3500 
L 1178 0 
L 603 0 
L 603 3500 
z
M 603 4863 
L 1178 4863 
L 1178 4134 
L 603 4134 
L 603 4863 
z
" transform="scale(0.015625)"/>
       <path id="DejaVuSans-6d" d="M 3328 2828 
Q 3544 3216 3844 3400 
Q 4144 3584 4550 3584 
Q 5097 3584 5394 3201 
Q 5691 2819 5691 2113 
L 5691 0 
L 5113 0 
L 5113 2094 
Q 5113 2597 4934 2840 
Q 4756 3084 4391 3084 
Q 3944 3084 3684 2787 
Q 3425 2491 3425 1978 
L 3425 0 
L 2847 0 
L 2847 2094 
Q 2847 2600 2669 2842 
Q 2491 3084 2119 3084 
Q 1678 3084 1418 2786 
Q 1159 2488 1159 1978 
L 1159 0 
L 581 0 
L 581 3500 
L 1159 3500 
L 1159 2956 
Q 1356 3278 1631 3431 
Q 1906 3584 2284 3584 
Q 2666 3584 2933 3390 
Q 3200 3197 3328 2828 
z
" transform="scale(0.015625)"/>
       <path id="DejaVuSans-65" d="M 3597 1894 
L 3597 1613 
L 953 1613 
Q 991 1019 1311 708 
Q 1631 397 2203 397 
Q 2534 397 2845 478 
Q 3156 559 3463 722 
L 3463 178 
Q 3153 47 2828 -22 
Q 2503 -91 2169 -91 
Q 1331 -91 842 396 
Q 353 884 353 1716 
Q 353 2575 817 3079 
Q 1281 3584 2069 3584 
Q 2775 3584 3186 3129 
Q 3597 2675 3597 1894 
z
M 3022 2063 
Q 3016 2534 2758 2815 
Q 2500 3097 2075 3097 
Q 1594 3097 1305 2825 
Q 1016 2553 972 2059 
L 3022 2063 
z
" transform="scale(0.015625)"/>
       <path id="DejaVuSans-20" transform="scale(0.015625)"/>
       <path id="DejaVuSans-28" d="M 1984 4856 
Q 1566 4138 1362 3434 
Q 1159 2731 1159 2009 
Q 1159 1288 1364 580 
Q 1569 -128 1984 -844 
L 1484 -844 
Q 1016 -109 783 600 
Q 550 1309 550 2009 
Q 550 2706 781 3412 
Q 1013 4119 1484 4856 
L 1984 4856 
z
" transform="scale(0.015625)"/>
       <path id="DejaVuSans-64" d="M 2906 2969 
L 2906 4863 
L 3481 4863 
L 3481 0 
L 2906 0 
L 2906 525 
Q 2725 213 2448 61 
Q 2172 -91 1784 -91 
Q 1150 -91 751 415 
Q 353 922 353 1747 
Q 353 2572 751 3078 
Q 1150 3584 1784 3584 
Q 2172 3584 2448 3432 
Q 2725 3281 2906 2969 
z
M 947 1747 
Q 947 1113 1208 752 
Q 1469 391 1925 391 
Q 2381 391 2643 752 
Q 2906 1113 2906 1747 
Q 2906 2381 2643 2742 
Q 2381 3103 1925 3103 
Q 1469 3103 1208 2742 
Q 947 2381 947 1747 
z
" transform="scale(0.015625)"/>
       <path id="DejaVuSans-29" d="M 513 4856 
L 1013 4856 
Q 1481 4119 1714 3412 
Q 1947 2706 1947 2009 
Q 1947 1309 1714 600 
Q 1481 -109 1013 -844 
L 513 -844 
Q 928 -128 1133 580 
Q 1338 1288 1338 2009 
Q 1338 2731 1133 3434 
Q 928 4138 513 4856 
z
" transform="scale(0.015625)"/>
      </defs>
      <use xlink:href="#DejaVuSans-54"/>
      <use xlink:href="#DejaVuSans-69" x="57.958984"/>
      <use xlink:href="#DejaVuSans-6d" x="85.742188"/>
      <use xlink:href="#DejaVuSans-65" x="183.154297"/>
      <use xlink:href="#DejaVuSans-20" x="244.677734"/>
      <use xlink:href="#DejaVuSans-28" x="276.464844"/>
      <use xlink:href="#DejaVuSans-64" x="315.478516"/>
      <use xlink:href="#DejaVuSans-29" x="378.955078"/>
     </g>
    </g>
   </g>
   <g id="matplotlib.axis_2">
    <g id="ytick_1">
     <g id="line2d_10">
      <defs>
       <path id="m6c76ea88ee" d="M 0 0 
L -3.5 0 
" style="stroke: #000000; stroke-width: 0.8"/>
      </defs>
      <g>
       <use xlink:href="#m6c76ea88ee" x="63.56" y="305.8" style="stroke: #000000; stroke-width: 0.8"/>
      </g>
     </g>
     <g id="text_11">
      <!-- 0.0 -->
      <g transform="translate(33.6595 311.270875) scale(0.144 -0.144)">
       <defs>
        <path id="DejaVuSans-2e" d="M 684 794 
L 1344 794 
L 1344 0 
L 684 0 
L 684 794 
z
" transform="scale(0.015625)"/>
       </defs>
       <use xlink:href="#DejaVuSans-30"/>
       <use xlink:href="#DejaVuSans-2e" x="63.623047"/>
       <use xlink:href="#DejaVuSans-30" x="95.410156"/>
      </g>
     </g>
    </g>
    <g id="ytick_2">
     <g id="line2d_11">
      <g>
       <use xlink:href="#m6c76ea88ee" x="63.56" y="274.303373" style="stroke: #000000; stroke-width: 0.8"/>
      </g>
     </g>
     <g id="text_12">
      <!-- 0.2 -->
      <g transform="translate(33.6595 279.774248) scale(0.144 -0.144)">
       <use xlink:href="#DejaVuSans-30"/>
       <use xlink:href="#DejaVuSans-2e" x="63.623047"/>
       <use xlink:href="#DejaVuSans-32" x="95.410156"/>
      </g>
     </g>
    </g>
    <g id="ytick_3">
     <g id="line2d_12">
      <g>
       <use xlink:href="#m6c76ea88ee" x="63.56" y="242.806746" style="stroke: #000000; stroke-width: 0.8"/>
      </g>
     </g>
     <g id="text_13">
      <!-- 0.4 -->
      <g transform="translate(33.6595 248.277621) scale(0.144 -0.144)">
       <use xlink:href="#DejaVuSans-30"/>
       <use xlink:href="#DejaVuSans-2e" x="63.623047"/>
       <use xlink:href="#DejaVuSans-34" x="95.410156"/>
      </g>
     </g>
    </g>
    <g id="ytick_4">
     <g id="line2d_13">
      <g>
       <use xlink:href="#m6c76ea88ee" x="63.56" y="211.31012" style="stroke: #000000; stroke-width: 0.8"/>
      </g>
     </g>
     <g id="text_14">
      <!-- 0.6 -->
      <g transform="translate(33.6595 216.780995) scale(0.144 -0.144)">
       <use xlink:href="#DejaVuSans-30"/>
       <use xlink:href="#DejaVuSans-2e" x="63.623047"/>
       <use xlink:href="#DejaVuSans-36" x="95.410156"/>
      </g>
     </g>
    </g>
    <g id="ytick_5">
     <g id="line2d_14">
      <g>
       <use xlink:href="#m6c76ea88ee" x="63.56" y="179.813493" style="stroke: #000000; stroke-width: 0.8"/>
      </g>
     </g>
     <g id="text_15">
      <!-- 0.8 -->
      <g transform="translate(33.6595 185.284368) scale(0.144 -0.144)">
       <use xlink:href="#DejaVuSans-30"/>
       <use xlink:href="#DejaVuSans-2e" x="63.623047"/>
       <use xlink:href="#DejaVuSans-38" x="95.410156"/>
      </g>
     </g>
    </g>
    <g id="ytick_6">
     <g id="line2d_15">
      <g>
       <use xlink:href="#m6c76ea88ee" x="63.56" y="148.316866" style="stroke: #000000; stroke-width: 0.8"/>
      </g>
     </g>
     <g id="text_16">
      <!-- 1.0 -->
      <g transform="translate(33.6595 153.787741) scale(0.144 -0.144)">
       <use xlink:href="#DejaVuSans-31"/>
       <use xlink:href="#DejaVuSans-2e" x="63.623047"/>
       <use xlink:href="#DejaVuSans-30" x="95.410156"/>
      </g>
     </g>
    </g>
    <g id="ytick_7">
     <g id="line2d_16">
      <g>
       <use xlink:href="#m6c76ea88ee" x="63.56" y="116.820239" style="stroke: #000000; stroke-width: 0.8"/>
      </g>
     </g>
     <g id="text_17">
      <!-- 1.2 -->
      <g transform="translate(33.6595 122.291114) scale(0.144 -0.144)">
       <use xlink:href="#DejaVuSans-31"/>
       <use xlink:href="#DejaVuSans-2e" x="63.623047"/>
       <use xlink:href="#DejaVuSans-32" x="95.410156"/>
      </g>
     </g>
    </g>
    <g id="ytick_8">
     <g id="line2d_17">
      <g>
       <use xlink:href="#m6c76ea88ee" x="63.56" y="85.323613" style="stroke: #000000; stroke-width: 0.8"/>
      </g>
     </g>
     <g id="text_18">
      <!-- 1.4 -->
      <g transform="translate(33.6595 90.794488) scale(0.144 -0.144)">
       <use xlink:href="#DejaVuSans-31"/>
       <use xlink:href="#DejaVuSans-2e" x="63.623047"/>
       <use xlink:href="#DejaVuSans-34" x="95.410156"/>
      </g>
     </g>
    </g>
    <g id="ytick_9">
     <g id="line2d_18">
      <g>
       <use xlink:href="#m6c76ea88ee" x="63.56" y="53.826986" style="stroke: #000000; stroke-width: 0.8"/>
      </g>
     </g>
     <g id="text_19">
      <!-- 1.6 -->
      <g transform="translate(33.6595 59.297861) scale(0.144 -0.144)">
       <use xlink:href="#DejaVuSans-31"/>
       <use xlink:href="#DejaVuSans-2e" x="63.623047"/>
       <use xlink:href="#DejaVuSans-36" x="95.410156"/>
      </g>
     </g>
    </g>
    <g id="text_20">
     <!-- CAUC I2 -->
     <g transform="translate(25.6665 207.491) rotate(-90) scale(0.192 -0.192)">
      <defs>
       <path id="DejaVuSans-43" d="M 4122 4306 
L 4122 3641 
Q 3803 3938 3442 4084 
Q 3081 4231 2675 4231 
Q 1875 4231 1450 3742 
Q 1025 3253 1025 2328 
Q 1025 1406 1450 917 
Q 1875 428 2675 428 
Q 3081 428 3442 575 
Q 3803 722 4122 1019 
L 4122 359 
Q 3791 134 3420 21 
Q 3050 -91 2638 -91 
Q 1578 -91 968 557 
Q 359 1206 359 2328 
Q 359 3453 968 4101 
Q 1578 4750 2638 4750 
Q 3056 4750 3426 4639 
Q 3797 4528 4122 4306 
z
" transform="scale(0.015625)"/>
       <path id="DejaVuSans-41" d="M 2188 4044 
L 1331 1722 
L 3047 1722 
L 2188 4044 
z
M 1831 4666 
L 2547 4666 
L 4325 0 
L 3669 0 
L 3244 1197 
L 1141 1197 
L 716 0 
L 50 0 
L 1831 4666 
z
" transform="scale(0.015625)"/>
       <path id="DejaVuSans-55" d="M 556 4666 
L 1191 4666 
L 1191 1831 
Q 1191 1081 1462 751 
Q 1734 422 2344 422 
Q 2950 422 3222 751 
Q 3494 1081 3494 1831 
L 3494 4666 
L 4128 4666 
L 4128 1753 
Q 4128 841 3676 375 
Q 3225 -91 2344 -91 
Q 1459 -91 1007 375 
Q 556 841 556 1753 
L 556 4666 
z
" transform="scale(0.015625)"/>
       <path id="DejaVuSans-49" d="M 628 4666 
L 1259 4666 
L 1259 0 
L 628 0 
L 628 4666 
z
" transform="scale(0.015625)"/>
      </defs>
      <use xlink:href="#DejaVuSans-43"/>
      <use xlink:href="#DejaVuSans-41" x="69.824219"/>
      <use xlink:href="#DejaVuSans-55" x="138.232422"/>
      <use xlink:href="#DejaVuSans-43" x="211.425781"/>
      <use xlink:href="#DejaVuSans-20" x="281.25"/>
      <use xlink:href="#DejaVuSans-49" x="313.037109"/>
      <use xlink:href="#DejaVuSans-32" x="342.529297"/>
     </g>
    </g>
    <g id="text_21">
     <!-- 1e7 -->
     <g transform="translate(63.56 28.2) scale(0.1 -0.1)">
      <use xlink:href="#DejaVuSans-31"/>
      <use xlink:href="#DejaVuSans-65" x="63.623047"/>
      <use xlink:href="#DejaVuSans-37" x="125.146484"/>
     </g>
    </g>
   </g>
   <g id="patch_3">
    <path d="M 63.56 305.8 
L 63.56 31.2 
" style="fill: none; stroke: #000000; stroke-width: 0.8; stroke-linejoin: miter; stroke-linecap: square"/>
   </g>
   <g id="patch_4">
    <path d="M 288.19 305.8 
L 288.19 31.2 
" style="fill: none; stroke: #000000; stroke-width: 0.8; stroke-linejoin: miter; stroke-linecap: square"/>
   </g>
   <g id="patch_5">
    <path d="M 63.56 305.8 
L 288.19 305.8 
" style="fill: none; stroke: #000000; stroke-width: 0.8; stroke-linejoin: miter; stroke-linecap: square"/>
   </g>
   <g id="patch_6">
    <path d="M 63.56 31.2 
L 288.19 31.2 
" style="fill: none; stroke: #000000; stroke-width: 0.8; stroke-linejoin: miter; stroke-linecap: square"/>
   </g>
   <g id="text_22">
    <!-- CAUC I2 -->
    <g transform="translate(136.884 25.2) scale(0.192 -0.192)">
     <use xlink:href="#DejaVuSans-43"/>
     <use xlink:href="#DejaVuSans-41" x="69.824219"/>
     <use xlink:href="#DejaVuSans-55" x="138.232422"/>
     <use xlink:href="#DejaVuSans-43" x="211.425781"/>
     <use xlink:href="#DejaVuSans-20" x="281.25"/>
     <use xlink:href="#DejaVuSans-49" x="313.037109"/>
     <use xlink:href="#DejaVuSans-32" x="342.529297"/>
    </g>
   </g>
   <g id="PolyCollection_1">
    <defs>
     <path id="m3fc4685a8b" d="M 66.29939 -54.2 
L 66.29939 -54.2 
L 66.299692 -54.2 
L 66.30271 -54.2 
L 66.33289 -54.2 
L 66.485954 -54.2 
L 66.584868 -54.2 
L 66.95939 -54.200001 
L 67.194265 -54.200002 
L 67.987036 -54.200008 
L 68.497368 -54.200013 
L 70.112946 -54.200035 
L 71.015705 -54.200052 
L 73.478276 -54.200114 
L 74.636821 -54.200151 
L 77.376211 -54.200274 
L 78.699323 -54.200351 
L 81.438713 -54.200574 
L 82.90669 -54.200732 
L 85.64608 -54.201145 
L 87.241575 -54.201468 
L 89.980965 -54.202233 
L 91.685211 -54.202884 
L 94.424601 -54.204342 
L 96.218507 -54.205652 
L 98.957898 -54.208469 
L 100.823112 -54.211129 
L 103.562502 -54.216634 
L 105.482198 -54.222006 
L 108.221588 -54.232853 
L 110.180941 -54.243677 
L 112.920331 -54.265174 
L 114.906748 -54.286928 
L 117.646138 -54.329691 
L 119.649235 -54.373278 
L 122.388625 -54.458493 
L 124.401346 -54.545573 
L 127.140736 -54.715377 
L 129.161767 -54.889074 
L 131.901157 -55.226839 
L 133.935669 -55.573254 
L 136.67506 -56.242354 
L 138.735082 -56.933608 
L 141.474473 -58.247854 
L 143.579497 -59.625342 
L 146.318887 -62.086522 
L 148.480869 -64.834203 
L 151.220259 -69.451308 
L 153.411174 -74.505445 
L 156.150564 -82.574793 
L 158.383011 -90.960114 
L 160.7132 -101.387537 
L 163.215585 -114.523737 
L 165.834819 -130.18753 
L 168.574209 -148.100547 
L 171.313599 -166.784033 
L 174.052989 -185.421156 
L 176.79238 -203.294519 
L 179.53177 -219.869049 
L 182.27116 -234.814466 
L 185.01055 -247.984107 
L 187.749941 -258.594586 
L 190.489331 -267.384116 
L 193.228721 -274.712902 
L 195.968111 -280.764539 
L 198.707502 -285.721029 
L 201.446892 -289.752294 
L 204.186282 -293.010705 
L 206.925672 -295.628937 
L 209.665063 -297.719906 
L 212.404453 -299.377919 
L 215.143843 -300.60196 
L 217.883233 -301.539478 
L 220.622624 -302.24887 
L 223.362014 -302.766179 
L 226.101404 -303.118379 
L 228.840794 -303.324763 
L 231.580185 -303.39956 
L 231.634972 -303.39956 
L 231.744548 -303.39956 
L 231.912696 -303.39956 
L 231.994406 -303.39956 
L 232.057837 -303.39956 
L 232.086966 -303.39956 
L 232.109041 -303.39956 
L 232.11002 -303.39956 
L 232.119811 -303.39956 
L 232.125988 -303.39956 
L 232.126364 -303.39956 
L 232.130128 -303.39956 
L 232.135286 -303.39956 
L 232.13964 -303.39956 
L 232.146267 -303.39956 
L 232.154445 -303.39956 
L 232.172719 -303.39956 
L 232.207819 -303.39956 
L 232.287137 -303.39956 
L 232.498667 -303.39956 
L 233.029479 -303.39956 
L 233.418202 -303.399561 
L 234.250513 -303.399561 
L 234.796224 -303.399561 
L 235.835893 -303.399561 
L 236.507308 -303.399561 
L 237.655427 -303.399561 
L 238.422251 -303.399561 
L 239.613394 -303.399561 
L 240.45235 -303.399561 
L 241.658289 -303.399561 
L 242.561424 -303.399561 
L 243.811133 -303.399561 
L 244.832485 -303.399561 
L 246.346699 -303.399561 
L 247.860913 -303.399562 
L 250.399944 -303.399562 
L 253.120617 -303.399562 
L 255.860007 -303.399562 
L 258.599397 -303.399562 
L 261.338788 -303.399562 
L 264.078178 -303.399562 
L 266.817568 -303.399562 
L 269.556958 -303.399562 
L 272.296349 -303.399562 
L 275.035739 -303.399562 
L 277.775129 -303.399562 
L 280.514519 -303.399562 
L 283.25391 -303.399562 
L 285.45061 -303.399562 
L 285.45061 -343.050959 
L 285.45061 -343.050959 
L 283.25391 -343.050959 
L 280.514519 -343.050959 
L 277.775129 -343.050959 
L 275.035739 -343.050959 
L 272.296349 -343.050959 
L 269.556958 -343.050959 
L 266.817568 -343.050959 
L 264.078178 -343.050959 
L 261.338788 -343.050959 
L 258.599397 -343.050959 
L 255.860007 -343.050959 
L 253.120617 -343.050959 
L 250.399944 -343.050959 
L 247.860913 -343.050958 
L 246.346699 -343.050958 
L 244.832485 -343.050958 
L 243.811133 -343.050958 
L 242.561424 -343.050958 
L 241.658289 -343.050957 
L 240.45235 -343.050957 
L 239.613394 -343.050956 
L 238.422251 -343.050956 
L 237.655427 -343.050955 
L 236.507308 -343.050954 
L 235.835893 -343.050954 
L 234.796224 -343.050953 
L 234.250513 -343.050952 
L 233.418202 -343.05095 
L 233.029479 -343.05095 
L 232.498667 -343.050949 
L 232.287137 -343.050948 
L 232.207819 -343.050948 
L 232.172719 -343.050948 
L 232.154445 -343.050948 
L 232.146267 -343.050948 
L 232.13964 -343.050948 
L 232.135286 -343.050948 
L 232.130128 -343.050948 
L 232.126364 -343.050948 
L 232.125988 -343.050948 
L 232.119811 -343.050948 
L 232.11002 -343.050948 
L 232.109041 -343.050948 
L 232.086966 -343.050948 
L 232.057837 -343.050948 
L 231.994406 -343.050948 
L 231.912696 -343.050947 
L 231.744548 -343.050947 
L 231.634972 -343.050947 
L 231.580185 -343.050947 
L 228.840794 -342.960439 
L 226.101404 -342.688672 
L 223.362014 -342.218148 
L 220.622624 -341.527188 
L 217.883233 -340.587791 
L 215.143843 -339.36272 
L 212.404453 -337.804005 
L 209.665063 -335.851314 
L 206.925672 -333.430221 
L 204.186282 -330.450443 
L 201.446892 -326.804186 
L 198.707502 -322.364874 
L 195.968111 -316.986651 
L 193.228721 -310.505298 
L 190.489331 -302.741498 
L 187.749941 -293.507746 
L 185.01055 -282.778802 
L 182.27116 -271.782734 
L 179.53177 -259.235199 
L 176.79238 -244.874655 
L 174.052989 -228.561911 
L 171.313599 -210.269022 
L 168.574209 -190.827022 
L 165.834819 -170.865871 
L 163.215585 -151.93985 
L 160.7132 -134.395597 
L 158.383011 -119.290379 
L 156.150564 -106.04959 
L 153.411174 -92.533715 
L 151.220259 -83.424522 
L 148.480869 -74.819423 
L 146.318887 -69.436782 
L 143.579497 -64.621851 
L 141.474473 -61.799855 
L 138.735082 -59.308298 
L 136.67506 -57.908282 
L 133.935669 -56.669328 
L 131.901157 -55.990214 
L 129.161767 -55.38581 
L 127.140736 -55.059726 
L 124.401346 -54.767595 
L 122.388625 -54.611845 
L 119.649235 -54.47127 
L 117.646138 -54.397172 
L 114.906748 -54.329628 
L 112.920331 -54.294513 
L 110.180941 -54.26203 
L 108.221588 -54.245444 
L 105.482198 -54.229771 
L 103.562502 -54.221955 
L 100.823112 -54.21435 
L 98.957898 -54.210673 
L 96.218507 -54.206986 
L 94.424601 -54.20523 
L 91.685211 -54.203425 
L 89.980965 -54.202591 
L 87.241575 -54.20168 
L 85.64608 -54.201283 
L 82.90669 -54.200815 
L 81.438713 -54.200627 
L 78.699323 -54.200381 
L 77.376211 -54.200292 
L 74.636821 -54.200161 
L 73.478276 -54.200118 
L 71.015705 -54.200054 
L 70.112946 -54.200036 
L 68.497368 -54.200013 
L 67.987036 -54.200008 
L 67.194265 -54.200002 
L 66.95939 -54.200001 
L 66.584868 -54.2 
L 66.485954 -54.2 
L 66.33289 -54.2 
L 66.30271 -54.2 
L 66.299692 -54.2 
L 66.29939 -54.2 
z
" style="stroke: #800080; stroke-opacity: 0.2"/>
    </defs>
    <g clip-path="url(#p88c35bd909)">
     <use xlink:href="#m3fc4685a8b" x="0" y="360" style="fill: #800080; fill-opacity: 0.2; stroke: #800080; stroke-opacity: 0.2"/>
    </g>
   </g>
   <g id="line2d_19">
    <path d="M 66.29939 305.8 
L 66.299692 305.8 
L 66.30271 305.8 
L 66.33289 305.8 
L 66.485954 305.8 
L 66.584868 305.8 
L 66.95939 305.799999 
L 67.194265 305.799998 
L 67.987036 305.799992 
L 68.497368 305.799987 
L 70.112946 305.799965 
L 71.015705 305.799948 
L 73.478276 305.799885 
L 74.636821 305.799846 
L 77.376211 305.799721 
L 78.699323 305.79964 
L 81.438713 305.79941 
L 82.90669 305.799243 
L 85.64608 305.798809 
L 87.241575 305.798464 
L 89.980965 305.797633 
L 91.685211 305.79692 
L 94.424601 305.795302 
L 96.218507 305.79383 
L 98.957898 305.790634 
L 100.823112 305.787595 
L 103.562502 305.781218 
L 105.482198 305.774948 
L 108.221588 305.762121 
L 110.180941 305.749205 
L 112.920331 305.723254 
L 114.906748 305.696704 
L 117.646138 305.644014 
L 119.649235 305.589594 
L 122.388625 305.482445 
L 124.401346 305.371238 
L 127.140736 305.153461 
L 129.161767 304.926687 
L 131.901157 304.485301 
L 133.935669 304.023504 
L 136.67506 303.134422 
L 138.735082 302.1964 
L 141.474473 300.428065 
L 143.579497 298.538351 
L 146.318887 295.111056 
L 148.480869 291.423387 
L 151.220259 285.123737 
L 153.411174 278.53285 
L 156.150564 268.049349 
L 158.383011 257.577387 
L 160.7132 244.877387 
L 163.215585 229.538274 
L 165.834819 212.171538 
L 168.574209 193.383549 
L 171.313599 174.804208 
L 174.052989 157.163107 
L 176.79238 140.975373 
L 179.53177 126.532645 
L 182.27116 113.937494 
L 185.01055 103.15441 
L 187.749941 94.059582 
L 190.489331 86.481318 
L 193.228721 80.229267 
L 195.968111 75.113674 
L 198.707502 70.956896 
L 201.446892 67.599398 
L 204.186282 64.90211 
L 206.925672 62.746496 
L 209.665063 61.033332 
L 212.404453 59.680832 
L 215.143843 58.622535 
L 217.883233 57.805202 
L 220.622624 57.186854 
L 223.362014 56.735018 
L 226.101404 56.425192 
L 228.840794 56.239529 
L 231.580185 56.165675 
L 231.634972 56.165287 
L 231.744548 56.164635 
L 231.912696 56.163954 
L 231.994406 56.163761 
L 232.057837 56.163674 
L 232.086966 56.163652 
L 232.109041 56.163643 
L 232.11002 56.163642 
L 232.119811 56.16364 
L 232.125988 56.163639 
L 232.126364 56.163639 
L 232.130128 56.163639 
L 232.135286 56.163639 
L 232.13964 56.163639 
L 232.146267 56.163639 
L 232.154445 56.163639 
L 232.172719 56.163639 
L 232.207819 56.163639 
L 232.287137 56.163639 
L 232.498667 56.163639 
L 233.029479 56.163639 
L 233.418202 56.163638 
L 234.250513 56.163638 
L 234.796224 56.163638 
L 235.835893 56.163638 
L 236.507308 56.163637 
L 237.655427 56.163637 
L 238.422251 56.163637 
L 239.613394 56.163637 
L 240.45235 56.163637 
L 241.658289 56.163637 
L 242.561424 56.163637 
L 243.811133 56.163637 
L 244.832485 56.163637 
L 246.346699 56.163637 
L 247.860913 56.163636 
L 250.399944 56.163636 
L 253.120617 56.163636 
L 255.860007 56.163636 
L 258.599397 56.163636 
L 261.338788 56.163636 
L 264.078178 56.163636 
L 266.817568 56.163636 
L 269.556958 56.163636 
L 272.296349 56.163636 
L 275.035739 56.163636 
L 277.775129 56.163636 
L 280.514519 56.163636 
L 283.25391 56.163636 
L 285.45061 56.163636 
" clip-path="url(#p88c35bd909)" style="fill: none; stroke: #800080; stroke-width: 1.5; stroke-linecap: square"/>
   </g>
  </g>
  <g id="axes_2">
   <g id="patch_7">
    <path d="M 423.05 305.8 
L 647.68 305.8 
L 647.68 31.2 
L 423.05 31.2 
z
" style="fill: #ffffff"/>
   </g>
   <g id="matplotlib.axis_3">
    <g id="xtick_10">
     <g id="line2d_20">
      <g>
       <use xlink:href="#me4c7c708ee" x="425.78939" y="305.8" style="stroke: #000000; stroke-width: 0.8"/>
      </g>
     </g>
     <g id="text_23">
      <!-- 0 -->
      <g transform="translate(421.20839 323.74175) scale(0.144 -0.144)">
       <use xlink:href="#DejaVuSans-30"/>
      </g>
     </g>
    </g>
    <g id="xtick_11">
     <g id="line2d_21">
      <g>
       <use xlink:href="#me4c7c708ee" x="453.183293" y="305.8" style="stroke: #000000; stroke-width: 0.8"/>
      </g>
     </g>
     <g id="text_24">
      <!-- 1 -->
      <g transform="translate(448.602293 323.74175) scale(0.144 -0.144)">
       <use xlink:href="#DejaVuSans-31"/>
      </g>
     </g>
    </g>
    <g id="xtick_12">
     <g id="line2d_22">
      <g>
       <use xlink:href="#me4c7c708ee" x="480.577195" y="305.8" style="stroke: #000000; stroke-width: 0.8"/>
      </g>
     </g>
     <g id="text_25">
      <!-- 2 -->
      <g transform="translate(475.996195 323.74175) scale(0.144 -0.144)">
       <use xlink:href="#DejaVuSans-32"/>
      </g>
     </g>
    </g>
    <g id="xtick_13">
     <g id="line2d_23">
      <g>
       <use xlink:href="#me4c7c708ee" x="507.971098" y="305.8" style="stroke: #000000; stroke-width: 0.8"/>
      </g>
     </g>
     <g id="text_26">
      <!-- 3 -->
      <g transform="translate(503.390098 323.74175) scale(0.144 -0.144)">
       <use xlink:href="#DejaVuSans-33"/>
      </g>
     </g>
    </g>
    <g id="xtick_14">
     <g id="line2d_24">
      <g>
       <use xlink:href="#me4c7c708ee" x="535.365" y="305.8" style="stroke: #000000; stroke-width: 0.8"/>
      </g>
     </g>
     <g id="text_27">
      <!-- 4 -->
      <g transform="translate(530.784 323.74175) scale(0.144 -0.144)">
       <use xlink:href="#DejaVuSans-34"/>
      </g>
     </g>
    </g>
    <g id="xtick_15">
     <g id="line2d_25">
      <g>
       <use xlink:href="#me4c7c708ee" x="562.758902" y="305.8" style="stroke: #000000; stroke-width: 0.8"/>
      </g>
     </g>
     <g id="text_28">
      <!-- 5 -->
      <g transform="translate(558.177902 323.74175) scale(0.144 -0.144)">
       <use xlink:href="#DejaVuSans-35"/>
      </g>
     </g>
    </g>
    <g id="xtick_16">
     <g id="line2d_26">
      <g>
       <use xlink:href="#me4c7c708ee" x="590.152805" y="305.8" style="stroke: #000000; stroke-width: 0.8"/>
      </g>
     </g>
     <g id="text_29">
      <!-- 6 -->
      <g transform="translate(585.571805 323.74175) scale(0.144 -0.144)">
       <use xlink:href="#DejaVuSans-36"/>
      </g>
     </g>
    </g>
    <g id="xtick_17">
     <g id="line2d_27">
      <g>
       <use xlink:href="#me4c7c708ee" x="617.546707" y="305.8" style="stroke: #000000; stroke-width: 0.8"/>
      </g>
     </g>
     <g id="text_30">
      <!-- 7 -->
      <g transform="translate(612.965707 323.74175) scale(0.144 -0.144)">
       <use xlink:href="#DejaVuSans-37"/>
      </g>
     </g>
    </g>
    <g id="xtick_18">
     <g id="line2d_28">
      <g>
       <use xlink:href="#me4c7c708ee" x="644.94061" y="305.8" style="stroke: #000000; stroke-width: 0.8"/>
      </g>
     </g>
     <g id="text_31">
      <!-- 8 -->
      <g transform="translate(640.35961 323.74175) scale(0.144 -0.144)">
       <use xlink:href="#DejaVuSans-38"/>
      </g>
     </g>
    </g>
    <g id="text_32">
     <!-- Time (d) -->
     <g transform="translate(495.24 345.3255) scale(0.192 -0.192)">
      <use xlink:href="#DejaVuSans-54"/>
      <use xlink:href="#DejaVuSans-69" x="57.958984"/>
      <use xlink:href="#DejaVuSans-6d" x="85.742188"/>
      <use xlink:href="#DejaVuSans-65" x="183.154297"/>
      <use xlink:href="#DejaVuSans-20" x="244.677734"/>
      <use xlink:href="#DejaVuSans-28" x="276.464844"/>
      <use xlink:href="#DejaVuSans-64" x="315.478516"/>
      <use xlink:href="#DejaVuSans-29" x="378.955078"/>
     </g>
    </g>
   </g>
   <g id="matplotlib.axis_4">
    <g id="ytick_10">
     <g id="line2d_29">
      <g>
       <use xlink:href="#m6c76ea88ee" x="423.05" y="305.8" style="stroke: #000000; stroke-width: 0.8"/>
      </g>
     </g>
     <g id="text_33">
      <!-- 0.00 -->
      <g transform="translate(383.9875 311.270875) scale(0.144 -0.144)">
       <use xlink:href="#DejaVuSans-30"/>
       <use xlink:href="#DejaVuSans-2e" x="63.623047"/>
       <use xlink:href="#DejaVuSans-30" x="95.410156"/>
       <use xlink:href="#DejaVuSans-30" x="159.033203"/>
      </g>
     </g>
    </g>
    <g id="ytick_11">
     <g id="line2d_30">
      <g>
       <use xlink:href="#m6c76ea88ee" x="423.05" y="270.156709" style="stroke: #000000; stroke-width: 0.8"/>
      </g>
     </g>
     <g id="text_34">
      <!-- 0.25 -->
      <g transform="translate(383.9875 275.627584) scale(0.144 -0.144)">
       <use xlink:href="#DejaVuSans-30"/>
       <use xlink:href="#DejaVuSans-2e" x="63.623047"/>
       <use xlink:href="#DejaVuSans-32" x="95.410156"/>
       <use xlink:href="#DejaVuSans-35" x="159.033203"/>
      </g>
     </g>
    </g>
    <g id="ytick_12">
     <g id="line2d_31">
      <g>
       <use xlink:href="#m6c76ea88ee" x="423.05" y="234.513418" style="stroke: #000000; stroke-width: 0.8"/>
      </g>
     </g>
     <g id="text_35">
      <!-- 0.50 -->
      <g transform="translate(383.9875 239.984293) scale(0.144 -0.144)">
       <use xlink:href="#DejaVuSans-30"/>
       <use xlink:href="#DejaVuSans-2e" x="63.623047"/>
       <use xlink:href="#DejaVuSans-35" x="95.410156"/>
       <use xlink:href="#DejaVuSans-30" x="159.033203"/>
      </g>
     </g>
    </g>
    <g id="ytick_13">
     <g id="line2d_32">
      <g>
       <use xlink:href="#m6c76ea88ee" x="423.05" y="198.870127" style="stroke: #000000; stroke-width: 0.8"/>
      </g>
     </g>
     <g id="text_36">
      <!-- 0.75 -->
      <g transform="translate(383.9875 204.341002) scale(0.144 -0.144)">
       <use xlink:href="#DejaVuSans-30"/>
       <use xlink:href="#DejaVuSans-2e" x="63.623047"/>
       <use xlink:href="#DejaVuSans-37" x="95.410156"/>
       <use xlink:href="#DejaVuSans-35" x="159.033203"/>
      </g>
     </g>
    </g>
    <g id="ytick_14">
     <g id="line2d_33">
      <g>
       <use xlink:href="#m6c76ea88ee" x="423.05" y="163.226836" style="stroke: #000000; stroke-width: 0.8"/>
      </g>
     </g>
     <g id="text_37">
      <!-- 1.00 -->
      <g transform="translate(383.9875 168.697711) scale(0.144 -0.144)">
       <use xlink:href="#DejaVuSans-31"/>
       <use xlink:href="#DejaVuSans-2e" x="63.623047"/>
       <use xlink:href="#DejaVuSans-30" x="95.410156"/>
       <use xlink:href="#DejaVuSans-30" x="159.033203"/>
      </g>
     </g>
    </g>
    <g id="ytick_15">
     <g id="line2d_34">
      <g>
       <use xlink:href="#m6c76ea88ee" x="423.05" y="127.583545" style="stroke: #000000; stroke-width: 0.8"/>
      </g>
     </g>
     <g id="text_38">
      <!-- 1.25 -->
      <g transform="translate(383.9875 133.05442) scale(0.144 -0.144)">
       <use xlink:href="#DejaVuSans-31"/>
       <use xlink:href="#DejaVuSans-2e" x="63.623047"/>
       <use xlink:href="#DejaVuSans-32" x="95.410156"/>
       <use xlink:href="#DejaVuSans-35" x="159.033203"/>
      </g>
     </g>
    </g>
    <g id="ytick_16">
     <g id="line2d_35">
      <g>
       <use xlink:href="#m6c76ea88ee" x="423.05" y="91.940254" style="stroke: #000000; stroke-width: 0.8"/>
      </g>
     </g>
     <g id="text_39">
      <!-- 1.50 -->
      <g transform="translate(383.9875 97.411129) scale(0.144 -0.144)">
       <use xlink:href="#DejaVuSans-31"/>
       <use xlink:href="#DejaVuSans-2e" x="63.623047"/>
       <use xlink:href="#DejaVuSans-35" x="95.410156"/>
       <use xlink:href="#DejaVuSans-30" x="159.033203"/>
      </g>
     </g>
    </g>
    <g id="ytick_17">
     <g id="line2d_36">
      <g>
       <use xlink:href="#m6c76ea88ee" x="423.05" y="56.296963" style="stroke: #000000; stroke-width: 0.8"/>
      </g>
     </g>
     <g id="text_40">
      <!-- 1.75 -->
      <g transform="translate(383.9875 61.767838) scale(0.144 -0.144)">
       <use xlink:href="#DejaVuSans-31"/>
       <use xlink:href="#DejaVuSans-2e" x="63.623047"/>
       <use xlink:href="#DejaVuSans-37" x="95.410156"/>
       <use xlink:href="#DejaVuSans-35" x="159.033203"/>
      </g>
     </g>
    </g>
    <g id="text_41">
     <!-- CAUC CD8TE -->
     <g transform="translate(375.9945 230.684) rotate(-90) scale(0.192 -0.192)">
      <defs>
       <path id="DejaVuSans-44" d="M 1259 4147 
L 1259 519 
L 2022 519 
Q 2988 519 3436 956 
Q 3884 1394 3884 2338 
Q 3884 3275 3436 3711 
Q 2988 4147 2022 4147 
L 1259 4147 
z
M 628 4666 
L 1925 4666 
Q 3281 4666 3915 4102 
Q 4550 3538 4550 2338 
Q 4550 1131 3912 565 
Q 3275 0 1925 0 
L 628 0 
L 628 4666 
z
" transform="scale(0.015625)"/>
       <path id="DejaVuSans-45" d="M 628 4666 
L 3578 4666 
L 3578 4134 
L 1259 4134 
L 1259 2753 
L 3481 2753 
L 3481 2222 
L 1259 2222 
L 1259 531 
L 3634 531 
L 3634 0 
L 628 0 
L 628 4666 
z
" transform="scale(0.015625)"/>
      </defs>
      <use xlink:href="#DejaVuSans-43"/>
      <use xlink:href="#DejaVuSans-41" x="69.824219"/>
      <use xlink:href="#DejaVuSans-55" x="138.232422"/>
      <use xlink:href="#DejaVuSans-43" x="211.425781"/>
      <use xlink:href="#DejaVuSans-20" x="281.25"/>
      <use xlink:href="#DejaVuSans-43" x="313.037109"/>
      <use xlink:href="#DejaVuSans-44" x="382.861328"/>
      <use xlink:href="#DejaVuSans-38" x="459.863281"/>
      <use xlink:href="#DejaVuSans-54" x="523.486328"/>
      <use xlink:href="#DejaVuSans-45" x="584.570312"/>
     </g>
    </g>
    <g id="text_42">
     <!-- 1e6 -->
     <g transform="translate(423.05 28.2) scale(0.1 -0.1)">
      <use xlink:href="#DejaVuSans-31"/>
      <use xlink:href="#DejaVuSans-65" x="63.623047"/>
      <use xlink:href="#DejaVuSans-36" x="125.146484"/>
     </g>
    </g>
   </g>
   <g id="patch_8">
    <path d="M 423.05 305.8 
L 423.05 31.2 
" style="fill: none; stroke: #000000; stroke-width: 0.8; stroke-linejoin: miter; stroke-linecap: square"/>
   </g>
   <g id="patch_9">
    <path d="M 647.68 305.8 
L 647.68 31.2 
" style="fill: none; stroke: #000000; stroke-width: 0.8; stroke-linejoin: miter; stroke-linecap: square"/>
   </g>
   <g id="patch_10">
    <path d="M 423.05 305.8 
L 647.68 305.8 
" style="fill: none; stroke: #000000; stroke-width: 0.8; stroke-linejoin: miter; stroke-linecap: square"/>
   </g>
   <g id="patch_11">
    <path d="M 423.05 31.2 
L 647.68 31.2 
" style="fill: none; stroke: #000000; stroke-width: 0.8; stroke-linejoin: miter; stroke-linecap: square"/>
   </g>
   <g id="text_43">
    <!-- CAUC CD8TE -->
    <g transform="translate(473.181 25.2) scale(0.192 -0.192)">
     <use xlink:href="#DejaVuSans-43"/>
     <use xlink:href="#DejaVuSans-41" x="69.824219"/>
     <use xlink:href="#DejaVuSans-55" x="138.232422"/>
     <use xlink:href="#DejaVuSans-43" x="211.425781"/>
     <use xlink:href="#DejaVuSans-20" x="281.25"/>
     <use xlink:href="#DejaVuSans-43" x="313.037109"/>
     <use xlink:href="#DejaVuSans-44" x="382.861328"/>
     <use xlink:href="#DejaVuSans-38" x="459.863281"/>
     <use xlink:href="#DejaVuSans-54" x="523.486328"/>
     <use xlink:href="#DejaVuSans-45" x="584.570312"/>
    </g>
   </g>
   <g id="PolyCollection_2">
    <defs>
     <path id="m2cf64cf6ed" d="M 425.78939 -54.2 
L 425.78939 -54.2 
L 425.789692 -54.2 
L 425.79271 -54.2 
L 425.82289 -54.2 
L 425.975954 -54.2 
L 426.074868 -54.2 
L 426.44939 -54.2 
L 426.684265 -54.2 
L 427.477036 -54.2 
L 427.987368 -54.2 
L 429.602946 -54.2 
L 430.505705 -54.2 
L 432.968276 -54.2 
L 434.126821 -54.2 
L 436.866211 -54.2 
L 438.189323 -54.2 
L 440.928713 -54.2 
L 442.39669 -54.2 
L 445.13608 -54.2 
L 446.731575 -54.2 
L 449.470965 -54.2 
L 451.175211 -54.2 
L 453.914601 -54.2 
L 455.708507 -54.2 
L 458.447898 -54.2 
L 460.313112 -54.2 
L 463.052502 -54.2 
L 464.972198 -54.2 
L 467.711588 -54.2 
L 469.670941 -54.2 
L 472.410331 -54.2 
L 474.396748 -54.2 
L 477.136138 -54.2 
L 479.139235 -54.2 
L 481.878625 -54.2 
L 483.891346 -54.200001 
L 486.630736 -54.200001 
L 488.651767 -54.200002 
L 491.391157 -54.200003 
L 493.425669 -54.200005 
L 496.16506 -54.200008 
L 498.225082 -54.200011 
L 500.964473 -54.200018 
L 503.069497 -54.200026 
L 505.808887 -54.200041 
L 507.970869 -54.200059 
L 510.710259 -54.200091 
L 512.901174 -54.200132 
L 515.640564 -54.200202 
L 517.873011 -54.200291 
L 520.2032 -54.200417 
L 522.705585 -54.200616 
L 525.324819 -54.200925 
L 528.064209 -54.201415 
L 530.803599 -54.202158 
L 533.542989 -54.203279 
L 536.28238 -54.204972 
L 539.02177 -54.207519 
L 541.76116 -54.211337 
L 544.50055 -54.217031 
L 547.239941 -54.225477 
L 549.979331 -54.237926 
L 552.718721 -54.256136 
L 555.458111 -54.282551 
L 558.197502 -54.320517 
L 560.936892 -54.374542 
L 563.676282 -54.450609 
L 566.415672 -54.556531 
L 569.155063 -54.702351 
L 571.894453 -54.900772 
L 574.633843 -55.167607 
L 577.373233 -55.52224 
L 580.112624 -55.98806 
L 582.852014 -56.592871 
L 585.591404 -57.369227 
L 588.330794 -58.354694 
L 591.070185 -59.591997 
L 591.124972 -59.618165 
L 591.234548 -59.670501 
L 591.402696 -59.750813 
L 591.484406 -59.789839 
L 591.547837 -59.820136 
L 591.576966 -59.834049 
L 591.599041 -59.844592 
L 591.60002 -59.84506 
L 591.609811 -59.849736 
L 591.615988 -59.852686 
L 591.616364 -59.852866 
L 591.620128 -59.854664 
L 591.625286 -59.857128 
L 591.62964 -59.859207 
L 591.636267 -59.862372 
L 591.644445 -59.866278 
L 591.662719 -59.875006 
L 591.697819 -59.891771 
L 591.777137 -59.929655 
L 591.988667 -60.042202 
L 592.519479 -60.327516 
L 592.908202 -60.541814 
L 593.740513 -61.027789 
L 594.286224 -61.36523 
L 595.325893 -62.044587 
L 595.997308 -62.513732 
L 597.145427 -63.360617 
L 597.912251 -63.972624 
L 599.103394 -64.977845 
L 599.94235 -65.744492 
L 601.148289 -66.911979 
L 602.051424 -67.853852 
L 603.301133 -69.241083 
L 604.322485 -70.461426 
L 605.836699 -72.405208 
L 607.350913 -74.530466 
L 609.889944 -78.574563 
L 612.610617 -83.015765 
L 615.350007 -87.983274 
L 618.089397 -93.508964 
L 620.828788 -99.607907 
L 623.568178 -106.289397 
L 626.307568 -113.556613 
L 629.046958 -121.406417 
L 631.786349 -129.829299 
L 634.525739 -138.1245 
L 637.265129 -146.429537 
L 640.004519 -155.011908 
L 642.74391 -163.827731 
L 644.94061 -171.017214 
L 644.94061 -409.475408 
L 644.94061 -409.475408 
L 642.74391 -380.811532 
L 640.004519 -346.719323 
L 637.265129 -314.828538 
L 634.525739 -285.160541 
L 631.786349 -257.71781 
L 629.046958 -232.484071 
L 626.307568 -209.424786 
L 623.568178 -190.198842 
L 620.828788 -172.565572 
L 618.089397 -156.496745 
L 615.350007 -141.963247 
L 612.610617 -129.457022 
L 609.889944 -118.466534 
L 607.350913 -109.275543 
L 605.836699 -104.271014 
L 604.322485 -99.582592 
L 603.301133 -96.626622 
L 602.051424 -93.183274 
L 601.148289 -90.843563 
L 599.94235 -87.866215 
L 599.103394 -85.919553 
L 597.912251 -83.285056 
L 597.145427 -81.690379 
L 595.997308 -79.414958 
L 595.325893 -78.160354 
L 594.286224 -76.304938 
L 593.740513 -75.379266 
L 592.908202 -74.023447 
L 592.519479 -73.411389 
L 591.988667 -72.606283 
L 591.777137 -72.291939 
L 591.697819 -72.175458 
L 591.662719 -72.123912 
L 591.644445 -72.097076 
L 591.636267 -72.085066 
L 591.62964 -72.075334 
L 591.625286 -72.068941 
L 591.620128 -72.061366 
L 591.616364 -72.055839 
L 591.615988 -72.055286 
L 591.609811 -72.046214 
L 591.60002 -72.031836 
L 591.599041 -72.030398 
L 591.576966 -71.99798 
L 591.547837 -71.955362 
L 591.484406 -71.864364 
L 591.402696 -71.747143 
L 591.234548 -71.505919 
L 591.124972 -71.35019 
L 591.070185 -71.272912 
L 588.330794 -67.826943 
L 585.591404 -64.904351 
L 582.852014 -62.516619 
L 580.112624 -60.58909 
L 577.373233 -59.052164 
L 574.633843 -57.842148 
L 571.894453 -56.901809 
L 569.155063 -56.180665 
L 566.415672 -55.634999 
L 563.676282 -55.22766 
L 560.936892 -54.927663 
L 558.197502 -54.709656 
L 555.458111 -54.55329 
L 552.718721 -54.442544 
L 549.979331 -54.365045 
L 547.239941 -54.311417 
L 544.50055 -54.274686 
L 541.76116 -54.249276 
L 539.02177 -54.232881 
L 536.28238 -54.2216 
L 533.542989 -54.214178 
L 530.803599 -54.209476 
L 528.064209 -54.206195 
L 525.324819 -54.204098 
L 522.705585 -54.202788 
L 520.2032 -54.201927 
L 517.873011 -54.201361 
L 515.640564 -54.200968 
L 512.901174 -54.20064 
L 510.710259 -54.200454 
L 507.970869 -54.200298 
L 505.808887 -54.200211 
L 503.069497 -54.200138 
L 500.964473 -54.200099 
L 498.225082 -54.200062 
L 496.16506 -54.200044 
L 493.425669 -54.200027 
L 491.391157 -54.200019 
L 488.651767 -54.200012 
L 486.630736 -54.200008 
L 483.891346 -54.200005 
L 481.878625 -54.200003 
L 479.139235 -54.200002 
L 477.136138 -54.200001 
L 474.396748 -54.200001 
L 472.410331 -54.2 
L 469.670941 -54.2 
L 467.711588 -54.2 
L 464.972198 -54.2 
L 463.052502 -54.2 
L 460.313112 -54.2 
L 458.447898 -54.2 
L 455.708507 -54.2 
L 453.914601 -54.2 
L 451.175211 -54.2 
L 449.470965 -54.2 
L 446.731575 -54.2 
L 445.13608 -54.2 
L 442.39669 -54.2 
L 440.928713 -54.2 
L 438.189323 -54.2 
L 436.866211 -54.2 
L 434.126821 -54.2 
L 432.968276 -54.2 
L 430.505705 -54.2 
L 429.602946 -54.2 
L 427.987368 -54.2 
L 427.477036 -54.2 
L 426.684265 -54.2 
L 426.44939 -54.2 
L 426.074868 -54.2 
L 425.975954 -54.2 
L 425.82289 -54.2 
L 425.79271 -54.2 
L 425.789692 -54.2 
L 425.78939 -54.2 
z
" style="stroke: #800080; stroke-opacity: 0.2"/>
    </defs>
    <g clip-path="url(#p3c9321bf5a)">
     <use xlink:href="#m2cf64cf6ed" x="0" y="360" style="fill: #800080; fill-opacity: 0.2; stroke: #800080; stroke-opacity: 0.2"/>
    </g>
   </g>
   <g id="line2d_37">
    <path d="M 425.78939 305.8 
L 425.789692 305.8 
L 425.79271 305.8 
L 425.82289 305.8 
L 425.975954 305.8 
L 426.074868 305.8 
L 426.44939 305.8 
L 426.684265 305.8 
L 427.477036 305.8 
L 427.987368 305.8 
L 429.602946 305.8 
L 430.505705 305.8 
L 432.968276 305.8 
L 434.126821 305.8 
L 436.866211 305.8 
L 438.189323 305.8 
L 440.928713 305.8 
L 442.39669 305.8 
L 445.13608 305.8 
L 446.731575 305.8 
L 449.470965 305.8 
L 451.175211 305.8 
L 453.914601 305.8 
L 455.708507 305.8 
L 458.447898 305.8 
L 460.313112 305.8 
L 463.052502 305.8 
L 464.972198 305.8 
L 467.711588 305.8 
L 469.670941 305.8 
L 472.410331 305.8 
L 474.396748 305.8 
L 477.136138 305.799999 
L 479.139235 305.799999 
L 481.878625 305.799998 
L 483.891346 305.799997 
L 486.630736 305.799995 
L 488.651767 305.799993 
L 491.391157 305.799989 
L 493.425669 305.799984 
L 496.16506 305.799974 
L 498.225082 305.799962 
L 500.964473 305.79994 
L 503.069497 305.799915 
L 505.808887 305.799867 
L 507.970869 305.799811 
L 510.710259 305.799707 
L 512.901174 305.799587 
L 515.640564 305.799367 
L 517.873011 305.799106 
L 520.2032 305.798721 
L 522.705585 305.798124 
L 525.324819 305.797205 
L 528.064209 305.795765 
L 530.803599 305.793597 
L 533.542989 305.79034 
L 536.28238 305.78546 
L 539.02177 305.778174 
L 541.76116 305.767341 
L 544.50055 305.751318 
L 547.239941 305.727765 
L 549.979331 305.693399 
L 552.718721 305.643676 
L 555.458111 305.572414 
L 558.197502 305.471334 
L 560.936892 305.32955 
L 563.676282 305.133001 
L 566.415672 304.863848 
L 569.155063 304.499878 
L 571.894453 304.013923 
L 574.633843 303.373364 
L 577.373233 302.539728 
L 580.112624 301.46845 
L 582.852014 300.10881 
L 585.591404 298.404092 
L 588.330794 296.291978 
L 591.070185 293.705187 
L 591.124972 293.648247 
L 591.234548 293.533711 
L 591.402696 293.356237 
L 591.484406 293.269243 
L 591.547837 293.201368 
L 591.576966 293.170099 
L 591.599041 293.14636 
L 591.60002 293.145306 
L 591.609811 293.134764 
L 591.615988 293.12811 
L 591.616364 293.127704 
L 591.620128 293.123648 
L 591.625286 293.118088 
L 591.62964 293.113393 
L 591.636267 293.106244 
L 591.644445 293.097418 
L 591.662719 293.077677 
L 591.697819 293.039688 
L 591.777137 292.953503 
L 591.988667 292.721337 
L 592.519479 292.123659 
L 592.908202 291.672091 
L 593.740513 290.664501 
L 594.286224 289.973091 
L 595.325893 288.58554 
L 595.997308 287.639165 
L 597.145427 285.925149 
L 597.912251 284.711115 
L 599.103394 282.71023 
L 599.94235 281.214373 
L 601.148289 278.93337 
L 602.051424 277.121033 
L 603.301133 274.460235 
L 604.322485 272.149779 
L 605.836699 268.490305 
L 607.350913 264.541478 
L 609.889944 257.237541 
L 612.610617 248.41769 
L 615.350007 238.447085 
L 618.089397 227.337596 
L 620.828788 215.05406 
L 623.568178 201.57235 
L 626.307568 186.880061 
L 629.046958 170.97694 
L 631.786349 153.875044 
L 634.525739 135.598634 
L 637.265129 116.183815 
L 640.004519 95.67795 
L 642.74391 74.138862 
L 644.94061 56.163636 
" clip-path="url(#p3c9321bf5a)" style="fill: none; stroke: #800080; stroke-width: 1.5; stroke-linecap: square"/>
   </g>
  </g>
  <g id="axes_3">
   <g id="patch_12">
    <path d="M 782.54 305.8 
L 1007.17 305.8 
L 1007.17 31.2 
L 782.54 31.2 
z
" style="fill: #ffffff"/>
   </g>
   <g id="matplotlib.axis_5">
    <g id="xtick_19">
     <g id="line2d_38">
      <g>
       <use xlink:href="#me4c7c708ee" x="785.27939" y="305.8" style="stroke: #000000; stroke-width: 0.8"/>
      </g>
     </g>
     <g id="text_44">
      <!-- 0 -->
      <g transform="translate(780.69839 323.74175) scale(0.144 -0.144)">
       <use xlink:href="#DejaVuSans-30"/>
      </g>
     </g>
    </g>
    <g id="xtick_20">
     <g id="line2d_39">
      <g>
       <use xlink:href="#me4c7c708ee" x="812.673293" y="305.8" style="stroke: #000000; stroke-width: 0.8"/>
      </g>
     </g>
     <g id="text_45">
      <!-- 1 -->
      <g transform="translate(808.092293 323.74175) scale(0.144 -0.144)">
       <use xlink:href="#DejaVuSans-31"/>
      </g>
     </g>
    </g>
    <g id="xtick_21">
     <g id="line2d_40">
      <g>
       <use xlink:href="#me4c7c708ee" x="840.067195" y="305.8" style="stroke: #000000; stroke-width: 0.8"/>
      </g>
     </g>
     <g id="text_46">
      <!-- 2 -->
      <g transform="translate(835.486195 323.74175) scale(0.144 -0.144)">
       <use xlink:href="#DejaVuSans-32"/>
      </g>
     </g>
    </g>
    <g id="xtick_22">
     <g id="line2d_41">
      <g>
       <use xlink:href="#me4c7c708ee" x="867.461098" y="305.8" style="stroke: #000000; stroke-width: 0.8"/>
      </g>
     </g>
     <g id="text_47">
      <!-- 3 -->
      <g transform="translate(862.880098 323.74175) scale(0.144 -0.144)">
       <use xlink:href="#DejaVuSans-33"/>
      </g>
     </g>
    </g>
    <g id="xtick_23">
     <g id="line2d_42">
      <g>
       <use xlink:href="#me4c7c708ee" x="894.855" y="305.8" style="stroke: #000000; stroke-width: 0.8"/>
      </g>
     </g>
     <g id="text_48">
      <!-- 4 -->
      <g transform="translate(890.274 323.74175) scale(0.144 -0.144)">
       <use xlink:href="#DejaVuSans-34"/>
      </g>
     </g>
    </g>
    <g id="xtick_24">
     <g id="line2d_43">
      <g>
       <use xlink:href="#me4c7c708ee" x="922.248902" y="305.8" style="stroke: #000000; stroke-width: 0.8"/>
      </g>
     </g>
     <g id="text_49">
      <!-- 5 -->
      <g transform="translate(917.667902 323.74175) scale(0.144 -0.144)">
       <use xlink:href="#DejaVuSans-35"/>
      </g>
     </g>
    </g>
    <g id="xtick_25">
     <g id="line2d_44">
      <g>
       <use xlink:href="#me4c7c708ee" x="949.642805" y="305.8" style="stroke: #000000; stroke-width: 0.8"/>
      </g>
     </g>
     <g id="text_50">
      <!-- 6 -->
      <g transform="translate(945.061805 323.74175) scale(0.144 -0.144)">
       <use xlink:href="#DejaVuSans-36"/>
      </g>
     </g>
    </g>
    <g id="xtick_26">
     <g id="line2d_45">
      <g>
       <use xlink:href="#me4c7c708ee" x="977.036707" y="305.8" style="stroke: #000000; stroke-width: 0.8"/>
      </g>
     </g>
     <g id="text_51">
      <!-- 7 -->
      <g transform="translate(972.455707 323.74175) scale(0.144 -0.144)">
       <use xlink:href="#DejaVuSans-37"/>
      </g>
     </g>
    </g>
    <g id="xtick_27">
     <g id="line2d_46">
      <g>
       <use xlink:href="#me4c7c708ee" x="1004.43061" y="305.8" style="stroke: #000000; stroke-width: 0.8"/>
      </g>
     </g>
     <g id="text_52">
      <!-- 8 -->
      <g transform="translate(999.84961 323.74175) scale(0.144 -0.144)">
       <use xlink:href="#DejaVuSans-38"/>
      </g>
     </g>
    </g>
    <g id="text_53">
     <!-- Time (d) -->
     <g transform="translate(854.73 345.3255) scale(0.192 -0.192)">
      <use xlink:href="#DejaVuSans-54"/>
      <use xlink:href="#DejaVuSans-69" x="57.958984"/>
      <use xlink:href="#DejaVuSans-6d" x="85.742188"/>
      <use xlink:href="#DejaVuSans-65" x="183.154297"/>
      <use xlink:href="#DejaVuSans-20" x="244.677734"/>
      <use xlink:href="#DejaVuSans-28" x="276.464844"/>
      <use xlink:href="#DejaVuSans-64" x="315.478516"/>
      <use xlink:href="#DejaVuSans-29" x="378.955078"/>
     </g>
    </g>
   </g>
   <g id="matplotlib.axis_6">
    <g id="ytick_18">
     <g id="line2d_47">
      <g>
       <use xlink:href="#m6c76ea88ee" x="782.54" y="305.8" style="stroke: #000000; stroke-width: 0.8"/>
      </g>
     </g>
     <g id="text_54">
      <!-- 0.00 -->
      <g transform="translate(743.4775 311.270875) scale(0.144 -0.144)">
       <use xlink:href="#DejaVuSans-30"/>
       <use xlink:href="#DejaVuSans-2e" x="63.623047"/>
       <use xlink:href="#DejaVuSans-30" x="95.410156"/>
       <use xlink:href="#DejaVuSans-30" x="159.033203"/>
      </g>
     </g>
    </g>
    <g id="ytick_19">
     <g id="line2d_48">
      <g>
       <use xlink:href="#m6c76ea88ee" x="782.54" y="270.345447" style="stroke: #000000; stroke-width: 0.8"/>
      </g>
     </g>
     <g id="text_55">
      <!-- 0.25 -->
      <g transform="translate(743.4775 275.816322) scale(0.144 -0.144)">
       <use xlink:href="#DejaVuSans-30"/>
       <use xlink:href="#DejaVuSans-2e" x="63.623047"/>
       <use xlink:href="#DejaVuSans-32" x="95.410156"/>
       <use xlink:href="#DejaVuSans-35" x="159.033203"/>
      </g>
     </g>
    </g>
    <g id="ytick_20">
     <g id="line2d_49">
      <g>
       <use xlink:href="#m6c76ea88ee" x="782.54" y="234.890895" style="stroke: #000000; stroke-width: 0.8"/>
      </g>
     </g>
     <g id="text_56">
      <!-- 0.50 -->
      <g transform="translate(743.4775 240.36177) scale(0.144 -0.144)">
       <use xlink:href="#DejaVuSans-30"/>
       <use xlink:href="#DejaVuSans-2e" x="63.623047"/>
       <use xlink:href="#DejaVuSans-35" x="95.410156"/>
       <use xlink:href="#DejaVuSans-30" x="159.033203"/>
      </g>
     </g>
    </g>
    <g id="ytick_21">
     <g id="line2d_50">
      <g>
       <use xlink:href="#m6c76ea88ee" x="782.54" y="199.436342" style="stroke: #000000; stroke-width: 0.8"/>
      </g>
     </g>
     <g id="text_57">
      <!-- 0.75 -->
      <g transform="translate(743.4775 204.907217) scale(0.144 -0.144)">
       <use xlink:href="#DejaVuSans-30"/>
       <use xlink:href="#DejaVuSans-2e" x="63.623047"/>
       <use xlink:href="#DejaVuSans-37" x="95.410156"/>
       <use xlink:href="#DejaVuSans-35" x="159.033203"/>
      </g>
     </g>
    </g>
    <g id="ytick_22">
     <g id="line2d_51">
      <g>
       <use xlink:href="#m6c76ea88ee" x="782.54" y="163.981789" style="stroke: #000000; stroke-width: 0.8"/>
      </g>
     </g>
     <g id="text_58">
      <!-- 1.00 -->
      <g transform="translate(743.4775 169.452664) scale(0.144 -0.144)">
       <use xlink:href="#DejaVuSans-31"/>
       <use xlink:href="#DejaVuSans-2e" x="63.623047"/>
       <use xlink:href="#DejaVuSans-30" x="95.410156"/>
       <use xlink:href="#DejaVuSans-30" x="159.033203"/>
      </g>
     </g>
    </g>
    <g id="ytick_23">
     <g id="line2d_52">
      <g>
       <use xlink:href="#m6c76ea88ee" x="782.54" y="128.527236" style="stroke: #000000; stroke-width: 0.8"/>
      </g>
     </g>
     <g id="text_59">
      <!-- 1.25 -->
      <g transform="translate(743.4775 133.998111) scale(0.144 -0.144)">
       <use xlink:href="#DejaVuSans-31"/>
       <use xlink:href="#DejaVuSans-2e" x="63.623047"/>
       <use xlink:href="#DejaVuSans-32" x="95.410156"/>
       <use xlink:href="#DejaVuSans-35" x="159.033203"/>
      </g>
     </g>
    </g>
    <g id="ytick_24">
     <g id="line2d_53">
      <g>
       <use xlink:href="#m6c76ea88ee" x="782.54" y="93.072684" style="stroke: #000000; stroke-width: 0.8"/>
      </g>
     </g>
     <g id="text_60">
      <!-- 1.50 -->
      <g transform="translate(743.4775 98.543559) scale(0.144 -0.144)">
       <use xlink:href="#DejaVuSans-31"/>
       <use xlink:href="#DejaVuSans-2e" x="63.623047"/>
       <use xlink:href="#DejaVuSans-35" x="95.410156"/>
       <use xlink:href="#DejaVuSans-30" x="159.033203"/>
      </g>
     </g>
    </g>
    <g id="ytick_25">
     <g id="line2d_54">
      <g>
       <use xlink:href="#m6c76ea88ee" x="782.54" y="57.618131" style="stroke: #000000; stroke-width: 0.8"/>
      </g>
     </g>
     <g id="text_61">
      <!-- 1.75 -->
      <g transform="translate(743.4775 63.089006) scale(0.144 -0.144)">
       <use xlink:href="#DejaVuSans-31"/>
       <use xlink:href="#DejaVuSans-2e" x="63.623047"/>
       <use xlink:href="#DejaVuSans-37" x="95.410156"/>
       <use xlink:href="#DejaVuSans-35" x="159.033203"/>
      </g>
     </g>
    </g>
    <g id="text_62">
     <!-- Sum of CAUCs -->
     <g transform="translate(735.4845 237.386) rotate(-90) scale(0.192 -0.192)">
      <defs>
       <path id="DejaVuSans-53" d="M 3425 4513 
L 3425 3897 
Q 3066 4069 2747 4153 
Q 2428 4238 2131 4238 
Q 1616 4238 1336 4038 
Q 1056 3838 1056 3469 
Q 1056 3159 1242 3001 
Q 1428 2844 1947 2747 
L 2328 2669 
Q 3034 2534 3370 2195 
Q 3706 1856 3706 1288 
Q 3706 609 3251 259 
Q 2797 -91 1919 -91 
Q 1588 -91 1214 -16 
Q 841 59 441 206 
L 441 856 
Q 825 641 1194 531 
Q 1563 422 1919 422 
Q 2459 422 2753 634 
Q 3047 847 3047 1241 
Q 3047 1584 2836 1778 
Q 2625 1972 2144 2069 
L 1759 2144 
Q 1053 2284 737 2584 
Q 422 2884 422 3419 
Q 422 4038 858 4394 
Q 1294 4750 2059 4750 
Q 2388 4750 2728 4690 
Q 3069 4631 3425 4513 
z
" transform="scale(0.015625)"/>
       <path id="DejaVuSans-75" d="M 544 1381 
L 544 3500 
L 1119 3500 
L 1119 1403 
Q 1119 906 1312 657 
Q 1506 409 1894 409 
Q 2359 409 2629 706 
Q 2900 1003 2900 1516 
L 2900 3500 
L 3475 3500 
L 3475 0 
L 2900 0 
L 2900 538 
Q 2691 219 2414 64 
Q 2138 -91 1772 -91 
Q 1169 -91 856 284 
Q 544 659 544 1381 
z
M 1991 3584 
L 1991 3584 
z
" transform="scale(0.015625)"/>
       <path id="DejaVuSans-6f" d="M 1959 3097 
Q 1497 3097 1228 2736 
Q 959 2375 959 1747 
Q 959 1119 1226 758 
Q 1494 397 1959 397 
Q 2419 397 2687 759 
Q 2956 1122 2956 1747 
Q 2956 2369 2687 2733 
Q 2419 3097 1959 3097 
z
M 1959 3584 
Q 2709 3584 3137 3096 
Q 3566 2609 3566 1747 
Q 3566 888 3137 398 
Q 2709 -91 1959 -91 
Q 1206 -91 779 398 
Q 353 888 353 1747 
Q 353 2609 779 3096 
Q 1206 3584 1959 3584 
z
" transform="scale(0.015625)"/>
       <path id="DejaVuSans-66" d="M 2375 4863 
L 2375 4384 
L 1825 4384 
Q 1516 4384 1395 4259 
Q 1275 4134 1275 3809 
L 1275 3500 
L 2222 3500 
L 2222 3053 
L 1275 3053 
L 1275 0 
L 697 0 
L 697 3053 
L 147 3053 
L 147 3500 
L 697 3500 
L 697 3744 
Q 697 4328 969 4595 
Q 1241 4863 1831 4863 
L 2375 4863 
z
" transform="scale(0.015625)"/>
       <path id="DejaVuSans-73" d="M 2834 3397 
L 2834 2853 
Q 2591 2978 2328 3040 
Q 2066 3103 1784 3103 
Q 1356 3103 1142 2972 
Q 928 2841 928 2578 
Q 928 2378 1081 2264 
Q 1234 2150 1697 2047 
L 1894 2003 
Q 2506 1872 2764 1633 
Q 3022 1394 3022 966 
Q 3022 478 2636 193 
Q 2250 -91 1575 -91 
Q 1294 -91 989 -36 
Q 684 19 347 128 
L 347 722 
Q 666 556 975 473 
Q 1284 391 1588 391 
Q 1994 391 2212 530 
Q 2431 669 2431 922 
Q 2431 1156 2273 1281 
Q 2116 1406 1581 1522 
L 1381 1569 
Q 847 1681 609 1914 
Q 372 2147 372 2553 
Q 372 3047 722 3315 
Q 1072 3584 1716 3584 
Q 2034 3584 2315 3537 
Q 2597 3491 2834 3397 
z
" transform="scale(0.015625)"/>
      </defs>
      <use xlink:href="#DejaVuSans-53"/>
      <use xlink:href="#DejaVuSans-75" x="63.476562"/>
      <use xlink:href="#DejaVuSans-6d" x="126.855469"/>
      <use xlink:href="#DejaVuSans-20" x="224.267578"/>
      <use xlink:href="#DejaVuSans-6f" x="256.054688"/>
      <use xlink:href="#DejaVuSans-66" x="317.236328"/>
      <use xlink:href="#DejaVuSans-20" x="352.441406"/>
      <use xlink:href="#DejaVuSans-43" x="384.228516"/>
      <use xlink:href="#DejaVuSans-41" x="454.052734"/>
      <use xlink:href="#DejaVuSans-55" x="522.460938"/>
      <use xlink:href="#DejaVuSans-43" x="595.654297"/>
      <use xlink:href="#DejaVuSans-73" x="665.478516"/>
     </g>
    </g>
    <g id="text_63">
     <!-- 1e7 -->
     <g transform="translate(782.54 28.2) scale(0.1 -0.1)">
      <use xlink:href="#DejaVuSans-31"/>
      <use xlink:href="#DejaVuSans-65" x="63.623047"/>
      <use xlink:href="#DejaVuSans-37" x="125.146484"/>
     </g>
    </g>
   </g>
   <g id="patch_13">
    <path d="M 782.54 305.8 
L 782.54 31.2 
" style="fill: none; stroke: #000000; stroke-width: 0.8; stroke-linejoin: miter; stroke-linecap: square"/>
   </g>
   <g id="patch_14">
    <path d="M 1007.17 305.8 
L 1007.17 31.2 
" style="fill: none; stroke: #000000; stroke-width: 0.8; stroke-linejoin: miter; stroke-linecap: square"/>
   </g>
   <g id="patch_15">
    <path d="M 782.54 305.8 
L 1007.17 305.8 
" style="fill: none; stroke: #000000; stroke-width: 0.8; stroke-linejoin: miter; stroke-linecap: square"/>
   </g>
   <g id="patch_16">
    <path d="M 782.54 31.2 
L 1007.17 31.2 
" style="fill: none; stroke: #000000; stroke-width: 0.8; stroke-linejoin: miter; stroke-linecap: square"/>
   </g>
   <g id="text_64">
    <!-- Sum of CAUCs -->
    <g transform="translate(825.969 25.2) scale(0.192 -0.192)">
     <use xlink:href="#DejaVuSans-53"/>
     <use xlink:href="#DejaVuSans-75" x="63.476562"/>
     <use xlink:href="#DejaVuSans-6d" x="126.855469"/>
     <use xlink:href="#DejaVuSans-20" x="224.267578"/>
     <use xlink:href="#DejaVuSans-6f" x="256.054688"/>
     <use xlink:href="#DejaVuSans-66" x="317.236328"/>
     <use xlink:href="#DejaVuSans-20" x="352.441406"/>
     <use xlink:href="#DejaVuSans-43" x="384.228516"/>
     <use xlink:href="#DejaVuSans-41" x="454.052734"/>
     <use xlink:href="#DejaVuSans-55" x="522.460938"/>
     <use xlink:href="#DejaVuSans-43" x="595.654297"/>
     <use xlink:href="#DejaVuSans-73" x="665.478516"/>
    </g>
   </g>
   <g id="PolyCollection_3">
    <defs>
     <path id="m564e7bae9b" d="M 785.27939 -54.2 
L 785.27939 -54.2 
L 785.279692 -54.2 
L 785.28271 -54.2 
L 785.31289 -54.2 
L 785.465954 -54.2 
L 785.564868 -54.2 
L 785.93939 -54.200001 
L 786.174265 -54.200002 
L 786.967036 -54.200007 
L 787.477368 -54.200012 
L 789.092946 -54.200032 
L 789.995705 -54.200047 
L 792.458276 -54.200103 
L 793.616821 -54.200136 
L 796.356211 -54.200246 
L 797.679323 -54.200316 
L 800.418713 -54.200517 
L 801.88669 -54.200659 
L 804.62608 -54.201031 
L 806.221575 -54.201322 
L 808.960965 -54.202011 
L 810.665211 -54.202597 
L 813.404601 -54.20391 
L 815.198507 -54.20509 
L 817.937898 -54.207627 
L 819.803112 -54.210022 
L 822.542502 -54.214979 
L 824.462198 -54.219817 
L 827.201588 -54.229585 
L 829.160941 -54.239333 
L 831.900331 -54.258691 
L 833.886748 -54.278281 
L 836.626138 -54.31679 
L 838.629235 -54.356043 
L 841.368625 -54.432781 
L 843.381346 -54.5112 
L 846.120736 -54.664113 
L 848.141767 -54.820533 
L 850.881157 -55.124701 
L 852.915669 -55.436659 
L 855.65506 -56.039204 
L 857.715082 -56.661701 
L 860.454473 -57.845222 
L 862.559497 -59.085694 
L 865.298887 -61.302067 
L 867.460869 -63.776444 
L 870.200259 -67.934298 
L 872.391174 -72.485716 
L 875.130564 -79.752435 
L 877.363011 -87.303704 
L 879.6932 -96.693962 
L 882.195585 -108.523583 
L 884.814819 -122.629422 
L 887.554209 -138.760824 
L 890.293599 -155.586155 
L 893.032989 -172.36988 
L 895.77238 -188.466031 
L 898.51177 -203.392858 
L 901.25116 -216.853082 
L 903.99055 -228.714835 
L 906.729941 -238.268321 
L 909.469331 -246.185875 
L 912.208721 -252.789015 
L 914.948111 -258.243492 
L 917.687502 -262.71376 
L 920.426892 -266.353583 
L 923.166282 -269.301135 
L 925.905672 -271.677121 
L 928.645063 -273.58477 
L 931.384453 -275.110901 
L 934.123843 -276.303832 
L 936.863233 -277.222328 
L 939.602624 -277.957318 
L 942.342014 -278.546245 
L 945.081404 -279.019075 
L 947.820794 -279.399529 
L 950.560185 -279.71269 
L 950.614972 -279.718163 
L 950.724548 -279.728967 
L 950.892696 -279.745521 
L 950.974406 -279.753634 
L 951.037837 -279.759942 
L 951.066966 -279.762903 
L 951.089041 -279.765147 
L 951.09002 -279.765247 
L 951.099811 -279.766242 
L 951.105988 -279.76687 
L 951.106364 -279.766908 
L 951.110128 -279.76729 
L 951.115286 -279.767815 
L 951.11964 -279.768257 
L 951.126267 -279.768931 
L 951.134445 -279.769762 
L 951.152719 -279.77162 
L 951.187819 -279.775188 
L 951.267137 -279.78325 
L 951.478667 -279.804751 
L 952.009479 -279.851574 
L 952.398202 -279.883616 
L 953.230513 -279.9541 
L 953.776224 -280.003347 
L 954.815893 -280.100439 
L 955.487308 -280.167987 
L 956.635427 -280.288113 
L 957.402251 -280.374857 
L 958.593394 -280.515439 
L 959.43235 -280.622405 
L 960.638289 -280.760491 
L 961.541424 -280.863771 
L 962.791133 -281.01626 
L 963.812485 -281.1482 
L 965.326699 -281.357869 
L 966.840913 -281.58373 
L 969.379944 -282.001462 
L 972.100617 -282.506302 
L 974.840007 -283.073873 
L 977.579397 -283.682455 
L 980.318788 -284.28912 
L 983.058178 -284.953731 
L 985.797568 -285.676604 
L 988.536958 -286.457428 
L 991.276349 -287.295256 
L 994.015739 -288.188517 
L 996.755129 -289.135034 
L 999.494519 -290.132061 
L 1002.23391 -291.176135 
L 1004.43061 -292.043352 
L 1004.43061 -341.340926 
L 1004.43061 -341.340926 
L 1002.23391 -339.604191 
L 999.494519 -337.488208 
L 996.755129 -335.443397 
L 994.015739 -333.478362 
L 991.276349 -331.600942 
L 988.536958 -329.818077 
L 985.797568 -328.135676 
L 983.058178 -326.55851 
L 980.318788 -325.090126 
L 977.579397 -323.732785 
L 974.840007 -322.48743 
L 972.100617 -321.353691 
L 969.379944 -320.332635 
L 966.840913 -319.484078 
L 965.326699 -319.007411 
L 963.812485 -318.574418 
L 962.791133 -318.295387 
L 961.541424 -317.975347 
L 960.638289 -317.756169 
L 959.43235 -317.477996 
L 958.593394 -317.295879 
L 957.402251 -317.04913 
L 956.635427 -316.900066 
L 955.487308 -316.686611 
L 954.815893 -316.569193 
L 953.776224 -316.395321 
L 953.230513 -316.308932 
L 952.398202 -316.180881 
L 952.009479 -316.124695 
L 951.478667 -316.047973 
L 951.267137 -316.01841 
L 951.187819 -316.007511 
L 951.152719 -316.002762 
L 951.134445 -316.000289 
L 951.126267 -315.999182 
L 951.11964 -315.998286 
L 951.115286 -315.997697 
L 951.110128 -315.996999 
L 951.106364 -315.996489 
L 951.105988 -315.996439 
L 951.099811 -315.995603 
L 951.09002 -315.994278 
L 951.089041 -315.994145 
L 951.066966 -315.991158 
L 951.037837 -315.987217 
L 950.974406 -315.978634 
L 950.892696 -315.967578 
L 950.724548 -315.944825 
L 950.614972 -315.930115 
L 950.560185 -315.922864 
L 947.820794 -315.512842 
L 945.081404 -314.994675 
L 942.342014 -314.347123 
L 939.602624 -313.544249 
L 936.863233 -312.554326 
L 934.123843 -311.337842 
L 931.384453 -309.846215 
L 928.645063 -308.020362 
L 925.905672 -305.789143 
L 923.166282 -303.067755 
L 920.426892 -299.756215 
L 917.687502 -295.738157 
L 914.948111 -290.880325 
L 912.208721 -285.03334 
L 909.469331 -278.034566 
L 906.729941 -269.714277 
L 903.99055 -260.048302 
L 901.25116 -250.144577 
L 898.51177 -238.84352 
L 895.77238 -225.910304 
L 893.032989 -211.219457 
L 890.293599 -194.745704 
L 887.554209 -177.237273 
L 884.814819 -159.261317 
L 882.195585 -142.217793 
L 879.6932 -126.418619 
L 877.363011 -112.815889 
L 875.130564 -100.892142 
L 872.391174 -88.720679 
L 870.200259 -80.51757 
L 867.460869 -72.768415 
L 865.298887 -67.921183 
L 862.559497 -63.585192 
L 860.454473 -61.043898 
L 857.715082 -58.800176 
L 855.65506 -57.53942 
L 852.915669 -56.423704 
L 850.881157 -55.812142 
L 848.141767 -55.267858 
L 846.120736 -54.974209 
L 843.381346 -54.711136 
L 841.368625 -54.570879 
L 838.629235 -54.444287 
L 836.626138 -54.377559 
L 833.886748 -54.316734 
L 831.900331 -54.285112 
L 829.160941 -54.25586 
L 827.201588 -54.240924 
L 824.462198 -54.226809 
L 822.542502 -54.219771 
L 819.803112 -54.212923 
L 817.937898 -54.209612 
L 815.198507 -54.206291 
L 813.404601 -54.20471 
L 810.665211 -54.203085 
L 808.960965 -54.202333 
L 806.221575 -54.201512 
L 804.62608 -54.201156 
L 801.88669 -54.200734 
L 800.418713 -54.200564 
L 797.679323 -54.200343 
L 796.356211 -54.200263 
L 793.616821 -54.200145 
L 792.458276 -54.200107 
L 789.995705 -54.200049 
L 789.092946 -54.200033 
L 787.477368 -54.200012 
L 786.967036 -54.200007 
L 786.174265 -54.200002 
L 785.93939 -54.200001 
L 785.564868 -54.2 
L 785.465954 -54.2 
L 785.31289 -54.2 
L 785.28271 -54.2 
L 785.279692 -54.2 
L 785.27939 -54.2 
z
" style="stroke: #800080; stroke-opacity: 0.2"/>
    </defs>
    <g clip-path="url(#p443ad13789)">
     <use xlink:href="#m564e7bae9b" x="0" y="360" style="fill: #800080; fill-opacity: 0.2; stroke: #800080; stroke-opacity: 0.2"/>
    </g>
   </g>
   <g id="line2d_55">
    <path d="M 785.27939 305.8 
L 785.279692 305.8 
L 785.28271 305.8 
L 785.31289 305.8 
L 785.465954 305.8 
L 785.564868 305.8 
L 785.93939 305.799999 
L 786.174265 305.799998 
L 786.967036 305.799993 
L 787.477368 305.799988 
L 789.092946 305.799968 
L 789.995705 305.799953 
L 792.458276 305.799897 
L 793.616821 305.799862 
L 796.356211 305.799749 
L 797.679323 305.799676 
L 800.418713 305.799468 
L 801.88669 305.799318 
L 804.62608 305.798927 
L 806.221575 305.798617 
L 808.960965 305.797868 
L 810.665211 305.797227 
L 813.404601 305.795769 
L 815.198507 305.794444 
L 817.937898 305.791566 
L 819.803112 305.788829 
L 822.542502 305.783087 
L 824.462198 305.77744 
L 827.201588 305.765889 
L 829.160941 305.754258 
L 831.900331 305.730888 
L 833.886748 305.706979 
L 836.626138 305.65953 
L 838.629235 305.610523 
L 841.368625 305.514032 
L 843.381346 305.413887 
L 846.120736 305.217772 
L 848.141767 305.013555 
L 850.881157 304.616073 
L 852.915669 304.200211 
L 855.65506 303.399565 
L 857.715082 302.554848 
L 860.454473 300.962408 
L 862.559497 299.260662 
L 865.298887 296.174277 
L 867.460869 292.853417 
L 870.200259 287.180385 
L 872.391174 281.245085 
L 875.130564 271.804361 
L 877.363011 262.374024 
L 879.6932 250.937261 
L 882.195585 237.123878 
L 884.814819 221.484528 
L 887.554209 204.565246 
L 890.293599 187.833785 
L 893.032989 171.947129 
L 895.77238 157.369112 
L 898.51177 144.362284 
L 901.25116 133.018901 
L 903.99055 123.306821 
L 906.729941 115.114318 
L 909.469331 108.286449 
L 912.208721 102.651346 
L 914.948111 98.037516 
L 917.687502 94.284159 
L 920.426892 91.24653 
L 923.166282 88.797992 
L 925.905672 86.830025 
L 928.645063 85.251066 
L 931.384453 83.984762 
L 934.123843 82.968017 
L 936.863233 82.149063 
L 939.602624 81.485662 
L 942.342014 80.943526 
L 945.081404 80.494949 
L 947.820794 80.117661 
L 950.560185 79.793845 
L 950.614972 79.787831 
L 950.724548 79.775851 
L 950.892696 79.757584 
L 950.974406 79.748757 
L 951.037837 79.741927 
L 951.066966 79.738797 
L 951.089041 79.736427 
L 951.09002 79.736322 
L 951.099811 79.735272 
L 951.105988 79.734609 
L 951.106364 79.734569 
L 951.110128 79.734165 
L 951.115286 79.733612 
L 951.11964 79.733145 
L 951.126267 79.732434 
L 951.134445 79.731556 
L 951.152719 79.729592 
L 951.187819 79.725813 
L 951.267137 79.71724 
L 951.478667 79.694147 
L 952.009479 79.634695 
L 952.398202 79.589777 
L 953.230513 79.489552 
L 953.776224 79.420777 
L 954.815893 79.282756 
L 955.487308 79.188619 
L 956.635427 79.018125 
L 957.402251 78.897364 
L 958.593394 78.698335 
L 959.43235 78.549542 
L 960.638289 78.322649 
L 961.541424 78.142375 
L 962.791133 77.877704 
L 963.812485 77.647882 
L 965.326699 77.283872 
L 966.840913 76.89108 
L 969.379944 76.164554 
L 972.100617 75.287239 
L 974.840007 74.295459 
L 977.579397 73.190392 
L 980.318788 71.968543 
L 983.058178 70.627511 
L 985.797568 69.166062 
L 988.536958 67.584171 
L 991.276349 65.883037 
L 994.015739 64.065074 
L 996.755129 62.133872 
L 999.494519 60.094144 
L 1002.23391 57.951641 
L 1004.43061 56.163636 
" clip-path="url(#p443ad13789)" style="fill: none; stroke: #800080; stroke-width: 1.5; stroke-linecap: square"/>
   </g>
  </g>
  <g id="axes_4">
   <g id="matplotlib.axis_7">
    <g id="ytick_26">
     <g id="line2d_56">
      <defs>
       <path id="mcff4f6283d" d="M 0 0 
L 3.5 0 
" style="stroke: #000000; stroke-width: 0.8"/>
      </defs>
      <g>
       <use xlink:href="#mcff4f6283d" x="288.19" y="305.8" style="stroke: #000000; stroke-width: 0.8"/>
      </g>
     </g>
     <g id="text_65">
      <!-- 0.00 -->
      <g transform="translate(295.19 311.270875) scale(0.144 -0.144)">
       <use xlink:href="#DejaVuSans-30"/>
       <use xlink:href="#DejaVuSans-2e" x="63.623047"/>
       <use xlink:href="#DejaVuSans-30" x="95.410156"/>
       <use xlink:href="#DejaVuSans-30" x="159.033203"/>
      </g>
     </g>
    </g>
    <g id="ytick_27">
     <g id="line2d_57">
      <g>
       <use xlink:href="#mcff4f6283d" x="288.19" y="263.286036" style="stroke: #000000; stroke-width: 0.8"/>
      </g>
     </g>
     <g id="text_66">
      <!-- 0.05 -->
      <g transform="translate(295.19 268.756911) scale(0.144 -0.144)">
       <use xlink:href="#DejaVuSans-30"/>
       <use xlink:href="#DejaVuSans-2e" x="63.623047"/>
       <use xlink:href="#DejaVuSans-30" x="95.410156"/>
       <use xlink:href="#DejaVuSans-35" x="159.033203"/>
      </g>
     </g>
    </g>
    <g id="ytick_28">
     <g id="line2d_58">
      <g>
       <use xlink:href="#mcff4f6283d" x="288.19" y="220.772071" style="stroke: #000000; stroke-width: 0.8"/>
      </g>
     </g>
     <g id="text_67">
      <!-- 0.10 -->
      <g transform="translate(295.19 226.242946) scale(0.144 -0.144)">
       <use xlink:href="#DejaVuSans-30"/>
       <use xlink:href="#DejaVuSans-2e" x="63.623047"/>
       <use xlink:href="#DejaVuSans-31" x="95.410156"/>
       <use xlink:href="#DejaVuSans-30" x="159.033203"/>
      </g>
     </g>
    </g>
    <g id="ytick_29">
     <g id="line2d_59">
      <g>
       <use xlink:href="#mcff4f6283d" x="288.19" y="178.258107" style="stroke: #000000; stroke-width: 0.8"/>
      </g>
     </g>
     <g id="text_68">
      <!-- 0.15 -->
      <g transform="translate(295.19 183.728982) scale(0.144 -0.144)">
       <use xlink:href="#DejaVuSans-30"/>
       <use xlink:href="#DejaVuSans-2e" x="63.623047"/>
       <use xlink:href="#DejaVuSans-31" x="95.410156"/>
       <use xlink:href="#DejaVuSans-35" x="159.033203"/>
      </g>
     </g>
    </g>
    <g id="ytick_30">
     <g id="line2d_60">
      <g>
       <use xlink:href="#mcff4f6283d" x="288.19" y="135.744143" style="stroke: #000000; stroke-width: 0.8"/>
      </g>
     </g>
     <g id="text_69">
      <!-- 0.20 -->
      <g transform="translate(295.19 141.215018) scale(0.144 -0.144)">
       <use xlink:href="#DejaVuSans-30"/>
       <use xlink:href="#DejaVuSans-2e" x="63.623047"/>
       <use xlink:href="#DejaVuSans-32" x="95.410156"/>
       <use xlink:href="#DejaVuSans-30" x="159.033203"/>
      </g>
     </g>
    </g>
    <g id="ytick_31">
     <g id="line2d_61">
      <g>
       <use xlink:href="#mcff4f6283d" x="288.19" y="93.230179" style="stroke: #000000; stroke-width: 0.8"/>
      </g>
     </g>
     <g id="text_70">
      <!-- 0.25 -->
      <g transform="translate(295.19 98.701054) scale(0.144 -0.144)">
       <use xlink:href="#DejaVuSans-30"/>
       <use xlink:href="#DejaVuSans-2e" x="63.623047"/>
       <use xlink:href="#DejaVuSans-32" x="95.410156"/>
       <use xlink:href="#DejaVuSans-35" x="159.033203"/>
      </g>
     </g>
    </g>
    <g id="ytick_32">
     <g id="line2d_62">
      <g>
       <use xlink:href="#mcff4f6283d" x="288.19" y="50.716214" style="stroke: #000000; stroke-width: 0.8"/>
      </g>
     </g>
     <g id="text_71">
      <!-- 0.30 -->
      <g transform="translate(295.19 56.187089) scale(0.144 -0.144)">
       <use xlink:href="#DejaVuSans-30"/>
       <use xlink:href="#DejaVuSans-2e" x="63.623047"/>
       <use xlink:href="#DejaVuSans-33" x="95.410156"/>
       <use xlink:href="#DejaVuSans-30" x="159.033203"/>
      </g>
     </g>
    </g>
    <g id="text_72">
     <!-- TSS -->
     <g transform="translate(345.8415 186.5525) rotate(-90) scale(0.192 -0.192)">
      <use xlink:href="#DejaVuSans-54"/>
      <use xlink:href="#DejaVuSans-53" x="61.083984"/>
      <use xlink:href="#DejaVuSans-53" x="124.560547"/>
     </g>
    </g>
   </g>
   <g id="patch_17">
    <path d="M 63.56 305.8 
L 63.56 31.2 
" style="fill: none; stroke: #000000; stroke-width: 0.8; stroke-linejoin: miter; stroke-linecap: square"/>
   </g>
   <g id="patch_18">
    <path d="M 288.19 305.8 
L 288.19 31.2 
" style="fill: none; stroke: #000000; stroke-width: 0.8; stroke-linejoin: miter; stroke-linecap: square"/>
   </g>
   <g id="patch_19">
    <path d="M 63.56 305.8 
L 288.19 305.8 
" style="fill: none; stroke: #000000; stroke-width: 0.8; stroke-linejoin: miter; stroke-linecap: square"/>
   </g>
   <g id="patch_20">
    <path d="M 63.56 31.2 
L 288.19 31.2 
" style="fill: none; stroke: #000000; stroke-width: 0.8; stroke-linejoin: miter; stroke-linecap: square"/>
   </g>
   <g id="PathCollection_1">
    <defs>
     <path id="mecb029ba70" d="M 0 4.330127 
C 1.148363 4.330127 2.249847 3.873878 3.061862 3.061862 
C 3.873878 2.249847 4.330127 1.148363 4.330127 0 
C 4.330127 -1.148363 3.873878 -2.249847 3.061862 -3.061862 
C 2.249847 -3.873878 1.148363 -4.330127 0 -4.330127 
C -1.148363 -4.330127 -2.249847 -3.873878 -3.061862 -3.061862 
C -3.873878 -2.249847 -4.330127 -1.148363 -4.330127 0 
C -4.330127 1.148363 -3.873878 2.249847 -3.061862 3.061862 
C -2.249847 3.873878 -1.148363 4.330127 0 4.330127 
z
" style="stroke: #800080; stroke-opacity: 0.8"/>
    </defs>
    <g clip-path="url(#p88c35bd909)">
     <use xlink:href="#mecb029ba70" x="66.29939" y="305.8" style="fill: #800080; fill-opacity: 0.8; stroke: #800080; stroke-opacity: 0.8"/>
     <use xlink:href="#mecb029ba70" x="93.693293" y="305.8" style="fill: #800080; fill-opacity: 0.8; stroke: #800080; stroke-opacity: 0.8"/>
     <use xlink:href="#mecb029ba70" x="121.087195" y="305.8" style="fill: #800080; fill-opacity: 0.8; stroke: #800080; stroke-opacity: 0.8"/>
     <use xlink:href="#mecb029ba70" x="148.481098" y="289.454762" style="fill: #800080; fill-opacity: 0.8; stroke: #800080; stroke-opacity: 0.8"/>
     <use xlink:href="#mecb029ba70" x="175.875" y="305.8" style="fill: #800080; fill-opacity: 0.8; stroke: #800080; stroke-opacity: 0.8"/>
     <use xlink:href="#mecb029ba70" x="203.268902" y="44.27619" style="fill: #800080; fill-opacity: 0.8; stroke: #800080; stroke-opacity: 0.8"/>
     <use xlink:href="#mecb029ba70" x="230.662805" y="240.419048" style="fill: #800080; fill-opacity: 0.8; stroke: #800080; stroke-opacity: 0.8"/>
     <use xlink:href="#mecb029ba70" x="258.056707" y="142.347619" style="fill: #800080; fill-opacity: 0.8; stroke: #800080; stroke-opacity: 0.8"/>
    </g>
   </g>
  </g>
  <g id="axes_5">
   <g id="matplotlib.axis_8">
    <g id="ytick_33">
     <g id="line2d_63">
      <g>
       <use xlink:href="#mcff4f6283d" x="647.68" y="305.8" style="stroke: #000000; stroke-width: 0.8"/>
      </g>
     </g>
     <g id="text_73">
      <!-- 0.00 -->
      <g transform="translate(654.68 311.270875) scale(0.144 -0.144)">
       <use xlink:href="#DejaVuSans-30"/>
       <use xlink:href="#DejaVuSans-2e" x="63.623047"/>
       <use xlink:href="#DejaVuSans-30" x="95.410156"/>
       <use xlink:href="#DejaVuSans-30" x="159.033203"/>
      </g>
     </g>
    </g>
    <g id="ytick_34">
     <g id="line2d_64">
      <g>
       <use xlink:href="#mcff4f6283d" x="647.68" y="263.286036" style="stroke: #000000; stroke-width: 0.8"/>
      </g>
     </g>
     <g id="text_74">
      <!-- 0.05 -->
      <g transform="translate(654.68 268.756911) scale(0.144 -0.144)">
       <use xlink:href="#DejaVuSans-30"/>
       <use xlink:href="#DejaVuSans-2e" x="63.623047"/>
       <use xlink:href="#DejaVuSans-30" x="95.410156"/>
       <use xlink:href="#DejaVuSans-35" x="159.033203"/>
      </g>
     </g>
    </g>
    <g id="ytick_35">
     <g id="line2d_65">
      <g>
       <use xlink:href="#mcff4f6283d" x="647.68" y="220.772071" style="stroke: #000000; stroke-width: 0.8"/>
      </g>
     </g>
     <g id="text_75">
      <!-- 0.10 -->
      <g transform="translate(654.68 226.242946) scale(0.144 -0.144)">
       <use xlink:href="#DejaVuSans-30"/>
       <use xlink:href="#DejaVuSans-2e" x="63.623047"/>
       <use xlink:href="#DejaVuSans-31" x="95.410156"/>
       <use xlink:href="#DejaVuSans-30" x="159.033203"/>
      </g>
     </g>
    </g>
    <g id="ytick_36">
     <g id="line2d_66">
      <g>
       <use xlink:href="#mcff4f6283d" x="647.68" y="178.258107" style="stroke: #000000; stroke-width: 0.8"/>
      </g>
     </g>
     <g id="text_76">
      <!-- 0.15 -->
      <g transform="translate(654.68 183.728982) scale(0.144 -0.144)">
       <use xlink:href="#DejaVuSans-30"/>
       <use xlink:href="#DejaVuSans-2e" x="63.623047"/>
       <use xlink:href="#DejaVuSans-31" x="95.410156"/>
       <use xlink:href="#DejaVuSans-35" x="159.033203"/>
      </g>
     </g>
    </g>
    <g id="ytick_37">
     <g id="line2d_67">
      <g>
       <use xlink:href="#mcff4f6283d" x="647.68" y="135.744143" style="stroke: #000000; stroke-width: 0.8"/>
      </g>
     </g>
     <g id="text_77">
      <!-- 0.20 -->
      <g transform="translate(654.68 141.215018) scale(0.144 -0.144)">
       <use xlink:href="#DejaVuSans-30"/>
       <use xlink:href="#DejaVuSans-2e" x="63.623047"/>
       <use xlink:href="#DejaVuSans-32" x="95.410156"/>
       <use xlink:href="#DejaVuSans-30" x="159.033203"/>
      </g>
     </g>
    </g>
    <g id="ytick_38">
     <g id="line2d_68">
      <g>
       <use xlink:href="#mcff4f6283d" x="647.68" y="93.230179" style="stroke: #000000; stroke-width: 0.8"/>
      </g>
     </g>
     <g id="text_78">
      <!-- 0.25 -->
      <g transform="translate(654.68 98.701054) scale(0.144 -0.144)">
       <use xlink:href="#DejaVuSans-30"/>
       <use xlink:href="#DejaVuSans-2e" x="63.623047"/>
       <use xlink:href="#DejaVuSans-32" x="95.410156"/>
       <use xlink:href="#DejaVuSans-35" x="159.033203"/>
      </g>
     </g>
    </g>
    <g id="ytick_39">
     <g id="line2d_69">
      <g>
       <use xlink:href="#mcff4f6283d" x="647.68" y="50.716214" style="stroke: #000000; stroke-width: 0.8"/>
      </g>
     </g>
     <g id="text_79">
      <!-- 0.30 -->
      <g transform="translate(654.68 56.187089) scale(0.144 -0.144)">
       <use xlink:href="#DejaVuSans-30"/>
       <use xlink:href="#DejaVuSans-2e" x="63.623047"/>
       <use xlink:href="#DejaVuSans-33" x="95.410156"/>
       <use xlink:href="#DejaVuSans-30" x="159.033203"/>
      </g>
     </g>
    </g>
    <g id="text_80">
     <!-- TSS -->
     <g transform="translate(705.3315 186.5525) rotate(-90) scale(0.192 -0.192)">
      <use xlink:href="#DejaVuSans-54"/>
      <use xlink:href="#DejaVuSans-53" x="61.083984"/>
      <use xlink:href="#DejaVuSans-53" x="124.560547"/>
     </g>
    </g>
   </g>
   <g id="patch_21">
    <path d="M 423.05 305.8 
L 423.05 31.2 
" style="fill: none; stroke: #000000; stroke-width: 0.8; stroke-linejoin: miter; stroke-linecap: square"/>
   </g>
   <g id="patch_22">
    <path d="M 647.68 305.8 
L 647.68 31.2 
" style="fill: none; stroke: #000000; stroke-width: 0.8; stroke-linejoin: miter; stroke-linecap: square"/>
   </g>
   <g id="patch_23">
    <path d="M 423.05 305.8 
L 647.68 305.8 
" style="fill: none; stroke: #000000; stroke-width: 0.8; stroke-linejoin: miter; stroke-linecap: square"/>
   </g>
   <g id="patch_24">
    <path d="M 423.05 31.2 
L 647.68 31.2 
" style="fill: none; stroke: #000000; stroke-width: 0.8; stroke-linejoin: miter; stroke-linecap: square"/>
   </g>
   <g id="PathCollection_2">
    <g clip-path="url(#p3c9321bf5a)">
     <use xlink:href="#mecb029ba70" x="425.78939" y="305.8" style="fill: #800080; fill-opacity: 0.8; stroke: #800080; stroke-opacity: 0.8"/>
     <use xlink:href="#mecb029ba70" x="453.183293" y="305.8" style="fill: #800080; fill-opacity: 0.8; stroke: #800080; stroke-opacity: 0.8"/>
     <use xlink:href="#mecb029ba70" x="480.577195" y="305.8" style="fill: #800080; fill-opacity: 0.8; stroke: #800080; stroke-opacity: 0.8"/>
     <use xlink:href="#mecb029ba70" x="507.971098" y="289.454762" style="fill: #800080; fill-opacity: 0.8; stroke: #800080; stroke-opacity: 0.8"/>
     <use xlink:href="#mecb029ba70" x="535.365" y="305.8" style="fill: #800080; fill-opacity: 0.8; stroke: #800080; stroke-opacity: 0.8"/>
     <use xlink:href="#mecb029ba70" x="562.758902" y="44.27619" style="fill: #800080; fill-opacity: 0.8; stroke: #800080; stroke-opacity: 0.8"/>
     <use xlink:href="#mecb029ba70" x="590.152805" y="240.419048" style="fill: #800080; fill-opacity: 0.8; stroke: #800080; stroke-opacity: 0.8"/>
     <use xlink:href="#mecb029ba70" x="617.546707" y="142.347619" style="fill: #800080; fill-opacity: 0.8; stroke: #800080; stroke-opacity: 0.8"/>
    </g>
   </g>
  </g>
  <g id="axes_6">
   <g id="matplotlib.axis_9">
    <g id="ytick_40">
     <g id="line2d_70">
      <g>
       <use xlink:href="#mcff4f6283d" x="1007.17" y="305.8" style="stroke: #000000; stroke-width: 0.8"/>
      </g>
     </g>
     <g id="text_81">
      <!-- 0.00 -->
      <g transform="translate(1014.17 311.270875) scale(0.144 -0.144)">
       <use xlink:href="#DejaVuSans-30"/>
       <use xlink:href="#DejaVuSans-2e" x="63.623047"/>
       <use xlink:href="#DejaVuSans-30" x="95.410156"/>
       <use xlink:href="#DejaVuSans-30" x="159.033203"/>
      </g>
     </g>
    </g>
    <g id="ytick_41">
     <g id="line2d_71">
      <g>
       <use xlink:href="#mcff4f6283d" x="1007.17" y="263.286036" style="stroke: #000000; stroke-width: 0.8"/>
      </g>
     </g>
     <g id="text_82">
      <!-- 0.05 -->
      <g transform="translate(1014.17 268.756911) scale(0.144 -0.144)">
       <use xlink:href="#DejaVuSans-30"/>
       <use xlink:href="#DejaVuSans-2e" x="63.623047"/>
       <use xlink:href="#DejaVuSans-30" x="95.410156"/>
       <use xlink:href="#DejaVuSans-35" x="159.033203"/>
      </g>
     </g>
    </g>
    <g id="ytick_42">
     <g id="line2d_72">
      <g>
       <use xlink:href="#mcff4f6283d" x="1007.17" y="220.772071" style="stroke: #000000; stroke-width: 0.8"/>
      </g>
     </g>
     <g id="text_83">
      <!-- 0.10 -->
      <g transform="translate(1014.17 226.242946) scale(0.144 -0.144)">
       <use xlink:href="#DejaVuSans-30"/>
       <use xlink:href="#DejaVuSans-2e" x="63.623047"/>
       <use xlink:href="#DejaVuSans-31" x="95.410156"/>
       <use xlink:href="#DejaVuSans-30" x="159.033203"/>
      </g>
     </g>
    </g>
    <g id="ytick_43">
     <g id="line2d_73">
      <g>
       <use xlink:href="#mcff4f6283d" x="1007.17" y="178.258107" style="stroke: #000000; stroke-width: 0.8"/>
      </g>
     </g>
     <g id="text_84">
      <!-- 0.15 -->
      <g transform="translate(1014.17 183.728982) scale(0.144 -0.144)">
       <use xlink:href="#DejaVuSans-30"/>
       <use xlink:href="#DejaVuSans-2e" x="63.623047"/>
       <use xlink:href="#DejaVuSans-31" x="95.410156"/>
       <use xlink:href="#DejaVuSans-35" x="159.033203"/>
      </g>
     </g>
    </g>
    <g id="ytick_44">
     <g id="line2d_74">
      <g>
       <use xlink:href="#mcff4f6283d" x="1007.17" y="135.744143" style="stroke: #000000; stroke-width: 0.8"/>
      </g>
     </g>
     <g id="text_85">
      <!-- 0.20 -->
      <g transform="translate(1014.17 141.215018) scale(0.144 -0.144)">
       <use xlink:href="#DejaVuSans-30"/>
       <use xlink:href="#DejaVuSans-2e" x="63.623047"/>
       <use xlink:href="#DejaVuSans-32" x="95.410156"/>
       <use xlink:href="#DejaVuSans-30" x="159.033203"/>
      </g>
     </g>
    </g>
    <g id="ytick_45">
     <g id="line2d_75">
      <g>
       <use xlink:href="#mcff4f6283d" x="1007.17" y="93.230179" style="stroke: #000000; stroke-width: 0.8"/>
      </g>
     </g>
     <g id="text_86">
      <!-- 0.25 -->
      <g transform="translate(1014.17 98.701054) scale(0.144 -0.144)">
       <use xlink:href="#DejaVuSans-30"/>
       <use xlink:href="#DejaVuSans-2e" x="63.623047"/>
       <use xlink:href="#DejaVuSans-32" x="95.410156"/>
       <use xlink:href="#DejaVuSans-35" x="159.033203"/>
      </g>
     </g>
    </g>
    <g id="ytick_46">
     <g id="line2d_76">
      <g>
       <use xlink:href="#mcff4f6283d" x="1007.17" y="50.716214" style="stroke: #000000; stroke-width: 0.8"/>
      </g>
     </g>
     <g id="text_87">
      <!-- 0.30 -->
      <g transform="translate(1014.17 56.187089) scale(0.144 -0.144)">
       <use xlink:href="#DejaVuSans-30"/>
       <use xlink:href="#DejaVuSans-2e" x="63.623047"/>
       <use xlink:href="#DejaVuSans-33" x="95.410156"/>
       <use xlink:href="#DejaVuSans-30" x="159.033203"/>
      </g>
     </g>
    </g>
    <g id="text_88">
     <!-- TSS -->
     <g transform="translate(1064.8215 186.5525) rotate(-90) scale(0.192 -0.192)">
      <use xlink:href="#DejaVuSans-54"/>
      <use xlink:href="#DejaVuSans-53" x="61.083984"/>
      <use xlink:href="#DejaVuSans-53" x="124.560547"/>
     </g>
    </g>
   </g>
   <g id="patch_25">
    <path d="M 782.54 305.8 
L 782.54 31.2 
" style="fill: none; stroke: #000000; stroke-width: 0.8; stroke-linejoin: miter; stroke-linecap: square"/>
   </g>
   <g id="patch_26">
    <path d="M 1007.17 305.8 
L 1007.17 31.2 
" style="fill: none; stroke: #000000; stroke-width: 0.8; stroke-linejoin: miter; stroke-linecap: square"/>
   </g>
   <g id="patch_27">
    <path d="M 782.54 305.8 
L 1007.17 305.8 
" style="fill: none; stroke: #000000; stroke-width: 0.8; stroke-linejoin: miter; stroke-linecap: square"/>
   </g>
   <g id="patch_28">
    <path d="M 782.54 31.2 
L 1007.17 31.2 
" style="fill: none; stroke: #000000; stroke-width: 0.8; stroke-linejoin: miter; stroke-linecap: square"/>
   </g>
   <g id="PathCollection_3">
    <g clip-path="url(#p443ad13789)">
     <use xlink:href="#mecb029ba70" x="785.27939" y="305.8" style="fill: #800080; fill-opacity: 0.8; stroke: #800080; stroke-opacity: 0.8"/>
     <use xlink:href="#mecb029ba70" x="812.673293" y="305.8" style="fill: #800080; fill-opacity: 0.8; stroke: #800080; stroke-opacity: 0.8"/>
     <use xlink:href="#mecb029ba70" x="840.067195" y="305.8" style="fill: #800080; fill-opacity: 0.8; stroke: #800080; stroke-opacity: 0.8"/>
     <use xlink:href="#mecb029ba70" x="867.461098" y="289.454762" style="fill: #800080; fill-opacity: 0.8; stroke: #800080; stroke-opacity: 0.8"/>
     <use xlink:href="#mecb029ba70" x="894.855" y="305.8" style="fill: #800080; fill-opacity: 0.8; stroke: #800080; stroke-opacity: 0.8"/>
     <use xlink:href="#mecb029ba70" x="922.248902" y="44.27619" style="fill: #800080; fill-opacity: 0.8; stroke: #800080; stroke-opacity: 0.8"/>
     <use xlink:href="#mecb029ba70" x="949.642805" y="240.419048" style="fill: #800080; fill-opacity: 0.8; stroke: #800080; stroke-opacity: 0.8"/>
     <use xlink:href="#mecb029ba70" x="977.036707" y="142.347619" style="fill: #800080; fill-opacity: 0.8; stroke: #800080; stroke-opacity: 0.8"/>
    </g>
   </g>
  </g>
  <g id="legend_1">
   <g id="patch_29">
    <path d="M 950.154 43.542 
L 1066.56 43.542 
Q 1070.4 43.542 1070.4 39.702 
L 1070.4 13.44 
Q 1070.4 9.6 1066.56 9.6 
L 950.154 9.6 
Q 946.314 9.6 946.314 13.44 
L 946.314 39.702 
Q 946.314 43.542 950.154 43.542 
z
" style="fill: #ffffff; opacity: 0.8; stroke: #cccccc; stroke-linejoin: miter"/>
   </g>
   <g id="line2d_77">
    <path d="M 953.994 25.149 
L 973.194 25.149 
L 992.394 25.149 
" style="fill: none; stroke: #800080; stroke-width: 1.5; stroke-linecap: square"/>
   </g>
   <g id="text_89">
    <!-- 107.0 -->
    <g transform="translate(1007.754 31.869) scale(0.192 -0.192)">
     <use xlink:href="#DejaVuSans-31"/>
     <use xlink:href="#DejaVuSans-30" x="63.623047"/>
     <use xlink:href="#DejaVuSans-37" x="127.246094"/>
     <use xlink:href="#DejaVuSans-2e" x="190.869141"/>
     <use xlink:href="#DejaVuSans-30" x="222.65625"/>
    </g>
   </g>
  </g>
 </g>
 <defs>
  <clipPath id="p88c35bd909">
   <rect x="63.56" y="31.2" width="224.63" height="274.6"/>
  </clipPath>
  <clipPath id="p3c9321bf5a">
   <rect x="423.05" y="31.2" width="224.63" height="274.6"/>
  </clipPath>
  <clipPath id="p443ad13789">
   <rect x="782.54" y="31.2" width="224.63" height="274.6"/>
  </clipPath>
 </defs>
</svg>
