<?xml version="1.0" encoding="utf-8" standalone="no"?>
<!DOCTYPE svg PUBLIC "-//W3C//DTD SVG 1.1//EN"
  "http://www.w3.org/Graphics/SVG/1.1/DTD/svg11.dtd">
<svg xmlns:xlink="http://www.w3.org/1999/xlink" width="360pt" height="360pt" viewBox="0 0 360 360" xmlns="http://www.w3.org/2000/svg" version="1.1">
 <metadata>
  <rdf:RDF xmlns:dc="http://purl.org/dc/elements/1.1/" xmlns:cc="http://creativecommons.org/ns#" xmlns:rdf="http://www.w3.org/1999/02/22-rdf-syntax-ns#">
   <cc:Work>
    <dc:type rdf:resource="http://purl.org/dc/dcmitype/StillImage"/>
    <dc:date>2025-01-23T09:11:57.702522</dc:date>
    <dc:format>image/svg+xml</dc:format>
    <dc:creator>
     <cc:Agent>
      <dc:title>Matplotlib v3.9.2, https://matplotlib.org/</dc:title>
     </cc:Agent>
    </dc:creator>
   </cc:Work>
  </rdf:RDF>
 </metadata>
 <defs>
  <style type="text/css">*{stroke-linejoin: round; stroke-linecap: butt}</style>
 </defs>
 <g id="figure_1">
  <g id="patch_1">
   <path d="M 0 360 
L 360 360 
L 360 0 
L 0 0 
z
" style="fill: #ffffff"/>
  </g>
  <g id="axes_1">
   <g id="patch_2">
    <path d="M 71.84 305.8 
L 313.29 305.8 
L 313.29 46.92 
L 71.84 46.92 
z
" style="fill: #ffffff"/>
   </g>
   <g id="matplotlib.axis_1">
    <g id="xtick_1">
     <g id="line2d_1">
      <defs>
       <path id="mf798f7581b" d="M 0 0 
L 0 3.5 
" style="stroke: #000000; stroke-width: 0.8"/>
      </defs>
      <g>
       <use xlink:href="#mf798f7581b" x="78.941471" y="305.8" style="stroke: #000000; stroke-width: 0.8"/>
      </g>
     </g>
     <g id="text_1">
      <!-- 0 -->
      <g transform="translate(74.487721 323.437813) scale(0.14 -0.14)">
       <defs>
        <path id="DejaVuSans-30" d="M 2034 4250 
Q 1547 4250 1301 3770 
Q 1056 3291 1056 2328 
Q 1056 1369 1301 889 
Q 1547 409 2034 409 
Q 2525 409 2770 889 
Q 3016 1369 3016 2328 
Q 3016 3291 2770 3770 
Q 2525 4250 2034 4250 
z
M 2034 4750 
Q 2819 4750 3233 4129 
Q 3647 3509 3647 2328 
Q 3647 1150 3233 529 
Q 2819 -91 2034 -91 
Q 1250 -91 836 529 
Q 422 1150 422 2328 
Q 422 3509 836 4129 
Q 1250 4750 2034 4750 
z
" transform="scale(0.015625)"/>
       </defs>
       <use xlink:href="#DejaVuSans-30"/>
      </g>
     </g>
    </g>
    <g id="xtick_2">
     <g id="line2d_2">
      <g>
       <use xlink:href="#mf798f7581b" x="107.347353" y="305.8" style="stroke: #000000; stroke-width: 0.8"/>
      </g>
     </g>
     <g id="text_2">
      <!-- 1 -->
      <g transform="translate(102.893603 323.437813) scale(0.14 -0.14)">
       <defs>
        <path id="DejaVuSans-31" d="M 794 531 
L 1825 531 
L 1825 4091 
L 703 3866 
L 703 4441 
L 1819 4666 
L 2450 4666 
L 2450 531 
L 3481 531 
L 3481 0 
L 794 0 
L 794 531 
z
" transform="scale(0.015625)"/>
       </defs>
       <use xlink:href="#DejaVuSans-31"/>
      </g>
     </g>
    </g>
    <g id="xtick_3">
     <g id="line2d_3">
      <g>
       <use xlink:href="#mf798f7581b" x="135.753235" y="305.8" style="stroke: #000000; stroke-width: 0.8"/>
      </g>
     </g>
     <g id="text_3">
      <!-- 2 -->
      <g transform="translate(131.299485 323.437813) scale(0.14 -0.14)">
       <defs>
        <path id="DejaVuSans-32" d="M 1228 531 
L 3431 531 
L 3431 0 
L 469 0 
L 469 531 
Q 828 903 1448 1529 
Q 2069 2156 2228 2338 
Q 2531 2678 2651 2914 
Q 2772 3150 2772 3378 
Q 2772 3750 2511 3984 
Q 2250 4219 1831 4219 
Q 1534 4219 1204 4116 
Q 875 4013 500 3803 
L 500 4441 
Q 881 4594 1212 4672 
Q 1544 4750 1819 4750 
Q 2544 4750 2975 4387 
Q 3406 4025 3406 3419 
Q 3406 3131 3298 2873 
Q 3191 2616 2906 2266 
Q 2828 2175 2409 1742 
Q 1991 1309 1228 531 
z
" transform="scale(0.015625)"/>
       </defs>
       <use xlink:href="#DejaVuSans-32"/>
      </g>
     </g>
    </g>
    <g id="xtick_4">
     <g id="line2d_4">
      <g>
       <use xlink:href="#mf798f7581b" x="164.159118" y="305.8" style="stroke: #000000; stroke-width: 0.8"/>
      </g>
     </g>
     <g id="text_4">
      <!-- 3 -->
      <g transform="translate(159.705368 323.437813) scale(0.14 -0.14)">
       <defs>
        <path id="DejaVuSans-33" d="M 2597 2516 
Q 3050 2419 3304 2112 
Q 3559 1806 3559 1356 
Q 3559 666 3084 287 
Q 2609 -91 1734 -91 
Q 1441 -91 1130 -33 
Q 819 25 488 141 
L 488 750 
Q 750 597 1062 519 
Q 1375 441 1716 441 
Q 2309 441 2620 675 
Q 2931 909 2931 1356 
Q 2931 1769 2642 2001 
Q 2353 2234 1838 2234 
L 1294 2234 
L 1294 2753 
L 1863 2753 
Q 2328 2753 2575 2939 
Q 2822 3125 2822 3475 
Q 2822 3834 2567 4026 
Q 2313 4219 1838 4219 
Q 1578 4219 1281 4162 
Q 984 4106 628 3988 
L 628 4550 
Q 988 4650 1302 4700 
Q 1616 4750 1894 4750 
Q 2613 4750 3031 4423 
Q 3450 4097 3450 3541 
Q 3450 3153 3228 2886 
Q 3006 2619 2597 2516 
z
" transform="scale(0.015625)"/>
       </defs>
       <use xlink:href="#DejaVuSans-33"/>
      </g>
     </g>
    </g>
    <g id="xtick_5">
     <g id="line2d_5">
      <g>
       <use xlink:href="#mf798f7581b" x="192.565" y="305.8" style="stroke: #000000; stroke-width: 0.8"/>
      </g>
     </g>
     <g id="text_5">
      <!-- 4 -->
      <g transform="translate(188.11125 323.437813) scale(0.14 -0.14)">
       <defs>
        <path id="DejaVuSans-34" d="M 2419 4116 
L 825 1625 
L 2419 1625 
L 2419 4116 
z
M 2253 4666 
L 3047 4666 
L 3047 1625 
L 3713 1625 
L 3713 1100 
L 3047 1100 
L 3047 0 
L 2419 0 
L 2419 1100 
L 313 1100 
L 313 1709 
L 2253 4666 
z
" transform="scale(0.015625)"/>
       </defs>
       <use xlink:href="#DejaVuSans-34"/>
      </g>
     </g>
    </g>
    <g id="xtick_6">
     <g id="line2d_6">
      <g>
       <use xlink:href="#mf798f7581b" x="220.970882" y="305.8" style="stroke: #000000; stroke-width: 0.8"/>
      </g>
     </g>
     <g id="text_6">
      <!-- 5 -->
      <g transform="translate(216.517132 323.437813) scale(0.14 -0.14)">
       <defs>
        <path id="DejaVuSans-35" d="M 691 4666 
L 3169 4666 
L 3169 4134 
L 1269 4134 
L 1269 2991 
Q 1406 3038 1543 3061 
Q 1681 3084 1819 3084 
Q 2600 3084 3056 2656 
Q 3513 2228 3513 1497 
Q 3513 744 3044 326 
Q 2575 -91 1722 -91 
Q 1428 -91 1123 -41 
Q 819 9 494 109 
L 494 744 
Q 775 591 1075 516 
Q 1375 441 1709 441 
Q 2250 441 2565 725 
Q 2881 1009 2881 1497 
Q 2881 1984 2565 2268 
Q 2250 2553 1709 2553 
Q 1456 2553 1204 2497 
Q 953 2441 691 2322 
L 691 4666 
z
" transform="scale(0.015625)"/>
       </defs>
       <use xlink:href="#DejaVuSans-35"/>
      </g>
     </g>
    </g>
    <g id="xtick_7">
     <g id="line2d_7">
      <g>
       <use xlink:href="#mf798f7581b" x="249.376765" y="305.8" style="stroke: #000000; stroke-width: 0.8"/>
      </g>
     </g>
     <g id="text_7">
      <!-- 6 -->
      <g transform="translate(244.923015 323.437813) scale(0.14 -0.14)">
       <defs>
        <path id="DejaVuSans-36" d="M 2113 2584 
Q 1688 2584 1439 2293 
Q 1191 2003 1191 1497 
Q 1191 994 1439 701 
Q 1688 409 2113 409 
Q 2538 409 2786 701 
Q 3034 994 3034 1497 
Q 3034 2003 2786 2293 
Q 2538 2584 2113 2584 
z
M 3366 4563 
L 3366 3988 
Q 3128 4100 2886 4159 
Q 2644 4219 2406 4219 
Q 1781 4219 1451 3797 
Q 1122 3375 1075 2522 
Q 1259 2794 1537 2939 
Q 1816 3084 2150 3084 
Q 2853 3084 3261 2657 
Q 3669 2231 3669 1497 
Q 3669 778 3244 343 
Q 2819 -91 2113 -91 
Q 1303 -91 875 529 
Q 447 1150 447 2328 
Q 447 3434 972 4092 
Q 1497 4750 2381 4750 
Q 2619 4750 2861 4703 
Q 3103 4656 3366 4563 
z
" transform="scale(0.015625)"/>
       </defs>
       <use xlink:href="#DejaVuSans-36"/>
      </g>
     </g>
    </g>
    <g id="xtick_8">
     <g id="line2d_8">
      <g>
       <use xlink:href="#mf798f7581b" x="277.782647" y="305.8" style="stroke: #000000; stroke-width: 0.8"/>
      </g>
     </g>
     <g id="text_8">
      <!-- 7 -->
      <g transform="translate(273.328897 323.437813) scale(0.14 -0.14)">
       <defs>
        <path id="DejaVuSans-37" d="M 525 4666 
L 3525 4666 
L 3525 4397 
L 1831 0 
L 1172 0 
L 2766 4134 
L 525 4134 
L 525 4666 
z
" transform="scale(0.015625)"/>
       </defs>
       <use xlink:href="#DejaVuSans-37"/>
      </g>
     </g>
    </g>
    <g id="xtick_9">
     <g id="line2d_9">
      <g>
       <use xlink:href="#mf798f7581b" x="306.188529" y="305.8" style="stroke: #000000; stroke-width: 0.8"/>
      </g>
     </g>
     <g id="text_9">
      <!-- 8 -->
      <g transform="translate(301.734779 323.437813) scale(0.14 -0.14)">
       <defs>
        <path id="DejaVuSans-38" d="M 2034 2216 
Q 1584 2216 1326 1975 
Q 1069 1734 1069 1313 
Q 1069 891 1326 650 
Q 1584 409 2034 409 
Q 2484 409 2743 651 
Q 3003 894 3003 1313 
Q 3003 1734 2745 1975 
Q 2488 2216 2034 2216 
z
M 1403 2484 
Q 997 2584 770 2862 
Q 544 3141 544 3541 
Q 544 4100 942 4425 
Q 1341 4750 2034 4750 
Q 2731 4750 3128 4425 
Q 3525 4100 3525 3541 
Q 3525 3141 3298 2862 
Q 3072 2584 2669 2484 
Q 3125 2378 3379 2068 
Q 3634 1759 3634 1313 
Q 3634 634 3220 271 
Q 2806 -91 2034 -91 
Q 1263 -91 848 271 
Q 434 634 434 1313 
Q 434 1759 690 2068 
Q 947 2378 1403 2484 
z
M 1172 3481 
Q 1172 3119 1398 2916 
Q 1625 2713 2034 2713 
Q 2441 2713 2670 2916 
Q 2900 3119 2900 3481 
Q 2900 3844 2670 4047 
Q 2441 4250 2034 4250 
Q 1625 4250 1398 4047 
Q 1172 3844 1172 3481 
z
" transform="scale(0.015625)"/>
       </defs>
       <use xlink:href="#DejaVuSans-38"/>
      </g>
     </g>
    </g>
    <g id="text_10">
     <!-- Time (d) -->
     <g transform="translate(152.857969 344.786406) scale(0.19 -0.19)">
      <defs>
       <path id="DejaVuSans-54" d="M -19 4666 
L 3928 4666 
L 3928 4134 
L 2272 4134 
L 2272 0 
L 1638 0 
L 1638 4134 
L -19 4134 
L -19 4666 
z
" transform="scale(0.015625)"/>
       <path id="DejaVuSans-69" d="M 603 3500 
L 1178 3500 
L 1178 0 
L 603 0 
L 603 3500 
z
M 603 4863 
L 1178 4863 
L 1178 4134 
L 603 4134 
L 603 4863 
z
" transform="scale(0.015625)"/>
       <path id="DejaVuSans-6d" d="M 3328 2828 
Q 3544 3216 3844 3400 
Q 4144 3584 4550 3584 
Q 5097 3584 5394 3201 
Q 5691 2819 5691 2113 
L 5691 0 
L 5113 0 
L 5113 2094 
Q 5113 2597 4934 2840 
Q 4756 3084 4391 3084 
Q 3944 3084 3684 2787 
Q 3425 2491 3425 1978 
L 3425 0 
L 2847 0 
L 2847 2094 
Q 2847 2600 2669 2842 
Q 2491 3084 2119 3084 
Q 1678 3084 1418 2786 
Q 1159 2488 1159 1978 
L 1159 0 
L 581 0 
L 581 3500 
L 1159 3500 
L 1159 2956 
Q 1356 3278 1631 3431 
Q 1906 3584 2284 3584 
Q 2666 3584 2933 3390 
Q 3200 3197 3328 2828 
z
" transform="scale(0.015625)"/>
       <path id="DejaVuSans-65" d="M 3597 1894 
L 3597 1613 
L 953 1613 
Q 991 1019 1311 708 
Q 1631 397 2203 397 
Q 2534 397 2845 478 
Q 3156 559 3463 722 
L 3463 178 
Q 3153 47 2828 -22 
Q 2503 -91 2169 -91 
Q 1331 -91 842 396 
Q 353 884 353 1716 
Q 353 2575 817 3079 
Q 1281 3584 2069 3584 
Q 2775 3584 3186 3129 
Q 3597 2675 3597 1894 
z
M 3022 2063 
Q 3016 2534 2758 2815 
Q 2500 3097 2075 3097 
Q 1594 3097 1305 2825 
Q 1016 2553 972 2059 
L 3022 2063 
z
" transform="scale(0.015625)"/>
       <path id="DejaVuSans-20" transform="scale(0.015625)"/>
       <path id="DejaVuSans-28" d="M 1984 4856 
Q 1566 4138 1362 3434 
Q 1159 2731 1159 2009 
Q 1159 1288 1364 580 
Q 1569 -128 1984 -844 
L 1484 -844 
Q 1016 -109 783 600 
Q 550 1309 550 2009 
Q 550 2706 781 3412 
Q 1013 4119 1484 4856 
L 1984 4856 
z
" transform="scale(0.015625)"/>
       <path id="DejaVuSans-64" d="M 2906 2969 
L 2906 4863 
L 3481 4863 
L 3481 0 
L 2906 0 
L 2906 525 
Q 2725 213 2448 61 
Q 2172 -91 1784 -91 
Q 1150 -91 751 415 
Q 353 922 353 1747 
Q 353 2572 751 3078 
Q 1150 3584 1784 3584 
Q 2172 3584 2448 3432 
Q 2725 3281 2906 2969 
z
M 947 1747 
Q 947 1113 1208 752 
Q 1469 391 1925 391 
Q 2381 391 2643 752 
Q 2906 1113 2906 1747 
Q 2906 2381 2643 2742 
Q 2381 3103 1925 3103 
Q 1469 3103 1208 2742 
Q 947 2381 947 1747 
z
" transform="scale(0.015625)"/>
       <path id="DejaVuSans-29" d="M 513 4856 
L 1013 4856 
Q 1481 4119 1714 3412 
Q 1947 2706 1947 2009 
Q 1947 1309 1714 600 
Q 1481 -109 1013 -844 
L 513 -844 
Q 928 -128 1133 580 
Q 1338 1288 1338 2009 
Q 1338 2731 1133 3434 
Q 928 4138 513 4856 
z
" transform="scale(0.015625)"/>
      </defs>
      <use xlink:href="#DejaVuSans-54"/>
      <use xlink:href="#DejaVuSans-69" x="57.958984"/>
      <use xlink:href="#DejaVuSans-6d" x="85.742188"/>
      <use xlink:href="#DejaVuSans-65" x="183.154297"/>
      <use xlink:href="#DejaVuSans-20" x="244.677734"/>
      <use xlink:href="#DejaVuSans-28" x="276.464844"/>
      <use xlink:href="#DejaVuSans-64" x="315.478516"/>
      <use xlink:href="#DejaVuSans-29" x="378.955078"/>
     </g>
    </g>
   </g>
   <g id="matplotlib.axis_2">
    <g id="ytick_1">
     <g id="line2d_10">
      <defs>
       <path id="m596d8403da" d="M 0 0 
L -3.5 0 
" style="stroke: #000000; stroke-width: 0.8"/>
      </defs>
      <g>
       <use xlink:href="#m596d8403da" x="71.84" y="299.848736" style="stroke: #000000; stroke-width: 0.8"/>
      </g>
     </g>
     <g id="text_11">
      <!-- 0.0 -->
      <g transform="translate(42.575625 305.167642) scale(0.14 -0.14)">
       <defs>
        <path id="DejaVuSans-2e" d="M 684 794 
L 1344 794 
L 1344 0 
L 684 0 
L 684 794 
z
" transform="scale(0.015625)"/>
       </defs>
       <use xlink:href="#DejaVuSans-30"/>
       <use xlink:href="#DejaVuSans-2e" x="63.623047"/>
       <use xlink:href="#DejaVuSans-30" x="95.410156"/>
      </g>
     </g>
    </g>
    <g id="ytick_2">
     <g id="line2d_11">
      <g>
       <use xlink:href="#m596d8403da" x="71.84" y="270.092414" style="stroke: #000000; stroke-width: 0.8"/>
      </g>
     </g>
     <g id="text_12">
      <!-- 2.5 -->
      <g transform="translate(42.575625 275.41132) scale(0.14 -0.14)">
       <use xlink:href="#DejaVuSans-32"/>
       <use xlink:href="#DejaVuSans-2e" x="63.623047"/>
       <use xlink:href="#DejaVuSans-35" x="95.410156"/>
      </g>
     </g>
    </g>
    <g id="ytick_3">
     <g id="line2d_12">
      <g>
       <use xlink:href="#m596d8403da" x="71.84" y="240.336092" style="stroke: #000000; stroke-width: 0.8"/>
      </g>
     </g>
     <g id="text_13">
      <!-- 5.0 -->
      <g transform="translate(42.575625 245.654998) scale(0.14 -0.14)">
       <use xlink:href="#DejaVuSans-35"/>
       <use xlink:href="#DejaVuSans-2e" x="63.623047"/>
       <use xlink:href="#DejaVuSans-30" x="95.410156"/>
      </g>
     </g>
    </g>
    <g id="ytick_4">
     <g id="line2d_13">
      <g>
       <use xlink:href="#m596d8403da" x="71.84" y="210.57977" style="stroke: #000000; stroke-width: 0.8"/>
      </g>
     </g>
     <g id="text_14">
      <!-- 7.5 -->
      <g transform="translate(42.575625 215.898676) scale(0.14 -0.14)">
       <use xlink:href="#DejaVuSans-37"/>
       <use xlink:href="#DejaVuSans-2e" x="63.623047"/>
       <use xlink:href="#DejaVuSans-35" x="95.410156"/>
      </g>
     </g>
    </g>
    <g id="ytick_5">
     <g id="line2d_14">
      <g>
       <use xlink:href="#m596d8403da" x="71.84" y="180.823448" style="stroke: #000000; stroke-width: 0.8"/>
      </g>
     </g>
     <g id="text_15">
      <!-- 10.0 -->
      <g transform="translate(33.668125 186.142355) scale(0.14 -0.14)">
       <use xlink:href="#DejaVuSans-31"/>
       <use xlink:href="#DejaVuSans-30" x="63.623047"/>
       <use xlink:href="#DejaVuSans-2e" x="127.246094"/>
       <use xlink:href="#DejaVuSans-30" x="159.033203"/>
      </g>
     </g>
    </g>
    <g id="ytick_6">
     <g id="line2d_15">
      <g>
       <use xlink:href="#m596d8403da" x="71.84" y="151.067126" style="stroke: #000000; stroke-width: 0.8"/>
      </g>
     </g>
     <g id="text_16">
      <!-- 12.5 -->
      <g transform="translate(33.668125 156.386033) scale(0.14 -0.14)">
       <use xlink:href="#DejaVuSans-31"/>
       <use xlink:href="#DejaVuSans-32" x="63.623047"/>
       <use xlink:href="#DejaVuSans-2e" x="127.246094"/>
       <use xlink:href="#DejaVuSans-35" x="159.033203"/>
      </g>
     </g>
    </g>
    <g id="ytick_7">
     <g id="line2d_16">
      <g>
       <use xlink:href="#m596d8403da" x="71.84" y="121.310805" style="stroke: #000000; stroke-width: 0.8"/>
      </g>
     </g>
     <g id="text_17">
      <!-- 15.0 -->
      <g transform="translate(33.668125 126.629711) scale(0.14 -0.14)">
       <use xlink:href="#DejaVuSans-31"/>
       <use xlink:href="#DejaVuSans-35" x="63.623047"/>
       <use xlink:href="#DejaVuSans-2e" x="127.246094"/>
       <use xlink:href="#DejaVuSans-30" x="159.033203"/>
      </g>
     </g>
    </g>
    <g id="ytick_8">
     <g id="line2d_17">
      <g>
       <use xlink:href="#m596d8403da" x="71.84" y="91.554483" style="stroke: #000000; stroke-width: 0.8"/>
      </g>
     </g>
     <g id="text_18">
      <!-- 17.5 -->
      <g transform="translate(33.668125 96.873389) scale(0.14 -0.14)">
       <use xlink:href="#DejaVuSans-31"/>
       <use xlink:href="#DejaVuSans-37" x="63.623047"/>
       <use xlink:href="#DejaVuSans-2e" x="127.246094"/>
       <use xlink:href="#DejaVuSans-35" x="159.033203"/>
      </g>
     </g>
    </g>
    <g id="ytick_9">
     <g id="line2d_18">
      <g>
       <use xlink:href="#m596d8403da" x="71.84" y="61.798161" style="stroke: #000000; stroke-width: 0.8"/>
      </g>
     </g>
     <g id="text_19">
      <!-- 20.0 -->
      <g transform="translate(33.668125 67.117067) scale(0.14 -0.14)">
       <use xlink:href="#DejaVuSans-32"/>
       <use xlink:href="#DejaVuSans-30" x="63.623047"/>
       <use xlink:href="#DejaVuSans-2e" x="127.246094"/>
       <use xlink:href="#DejaVuSans-30" x="159.033203"/>
      </g>
     </g>
    </g>
    <g id="text_20">
     <!-- Symptom Score -->
     <g transform="translate(25.716719 251.712813) rotate(-90) scale(0.19 -0.19)">
      <defs>
       <path id="DejaVuSans-53" d="M 3425 4513 
L 3425 3897 
Q 3066 4069 2747 4153 
Q 2428 4238 2131 4238 
Q 1616 4238 1336 4038 
Q 1056 3838 1056 3469 
Q 1056 3159 1242 3001 
Q 1428 2844 1947 2747 
L 2328 2669 
Q 3034 2534 3370 2195 
Q 3706 1856 3706 1288 
Q 3706 609 3251 259 
Q 2797 -91 1919 -91 
Q 1588 -91 1214 -16 
Q 841 59 441 206 
L 441 856 
Q 825 641 1194 531 
Q 1563 422 1919 422 
Q 2459 422 2753 634 
Q 3047 847 3047 1241 
Q 3047 1584 2836 1778 
Q 2625 1972 2144 2069 
L 1759 2144 
Q 1053 2284 737 2584 
Q 422 2884 422 3419 
Q 422 4038 858 4394 
Q 1294 4750 2059 4750 
Q 2388 4750 2728 4690 
Q 3069 4631 3425 4513 
z
" transform="scale(0.015625)"/>
       <path id="DejaVuSans-79" d="M 2059 -325 
Q 1816 -950 1584 -1140 
Q 1353 -1331 966 -1331 
L 506 -1331 
L 506 -850 
L 844 -850 
Q 1081 -850 1212 -737 
Q 1344 -625 1503 -206 
L 1606 56 
L 191 3500 
L 800 3500 
L 1894 763 
L 2988 3500 
L 3597 3500 
L 2059 -325 
z
" transform="scale(0.015625)"/>
       <path id="DejaVuSans-70" d="M 1159 525 
L 1159 -1331 
L 581 -1331 
L 581 3500 
L 1159 3500 
L 1159 2969 
Q 1341 3281 1617 3432 
Q 1894 3584 2278 3584 
Q 2916 3584 3314 3078 
Q 3713 2572 3713 1747 
Q 3713 922 3314 415 
Q 2916 -91 2278 -91 
Q 1894 -91 1617 61 
Q 1341 213 1159 525 
z
M 3116 1747 
Q 3116 2381 2855 2742 
Q 2594 3103 2138 3103 
Q 1681 3103 1420 2742 
Q 1159 2381 1159 1747 
Q 1159 1113 1420 752 
Q 1681 391 2138 391 
Q 2594 391 2855 752 
Q 3116 1113 3116 1747 
z
" transform="scale(0.015625)"/>
       <path id="DejaVuSans-74" d="M 1172 4494 
L 1172 3500 
L 2356 3500 
L 2356 3053 
L 1172 3053 
L 1172 1153 
Q 1172 725 1289 603 
Q 1406 481 1766 481 
L 2356 481 
L 2356 0 
L 1766 0 
Q 1100 0 847 248 
Q 594 497 594 1153 
L 594 3053 
L 172 3053 
L 172 3500 
L 594 3500 
L 594 4494 
L 1172 4494 
z
" transform="scale(0.015625)"/>
       <path id="DejaVuSans-6f" d="M 1959 3097 
Q 1497 3097 1228 2736 
Q 959 2375 959 1747 
Q 959 1119 1226 758 
Q 1494 397 1959 397 
Q 2419 397 2687 759 
Q 2956 1122 2956 1747 
Q 2956 2369 2687 2733 
Q 2419 3097 1959 3097 
z
M 1959 3584 
Q 2709 3584 3137 3096 
Q 3566 2609 3566 1747 
Q 3566 888 3137 398 
Q 2709 -91 1959 -91 
Q 1206 -91 779 398 
Q 353 888 353 1747 
Q 353 2609 779 3096 
Q 1206 3584 1959 3584 
z
" transform="scale(0.015625)"/>
       <path id="DejaVuSans-63" d="M 3122 3366 
L 3122 2828 
Q 2878 2963 2633 3030 
Q 2388 3097 2138 3097 
Q 1578 3097 1268 2742 
Q 959 2388 959 1747 
Q 959 1106 1268 751 
Q 1578 397 2138 397 
Q 2388 397 2633 464 
Q 2878 531 3122 666 
L 3122 134 
Q 2881 22 2623 -34 
Q 2366 -91 2075 -91 
Q 1284 -91 818 406 
Q 353 903 353 1747 
Q 353 2603 823 3093 
Q 1294 3584 2113 3584 
Q 2378 3584 2631 3529 
Q 2884 3475 3122 3366 
z
" transform="scale(0.015625)"/>
       <path id="DejaVuSans-72" d="M 2631 2963 
Q 2534 3019 2420 3045 
Q 2306 3072 2169 3072 
Q 1681 3072 1420 2755 
Q 1159 2438 1159 1844 
L 1159 0 
L 581 0 
L 581 3500 
L 1159 3500 
L 1159 2956 
Q 1341 3275 1631 3429 
Q 1922 3584 2338 3584 
Q 2397 3584 2469 3576 
Q 2541 3569 2628 3553 
L 2631 2963 
z
" transform="scale(0.015625)"/>
      </defs>
      <use xlink:href="#DejaVuSans-53"/>
      <use xlink:href="#DejaVuSans-79" x="63.476562"/>
      <use xlink:href="#DejaVuSans-6d" x="122.65625"/>
      <use xlink:href="#DejaVuSans-70" x="220.068359"/>
      <use xlink:href="#DejaVuSans-74" x="283.544922"/>
      <use xlink:href="#DejaVuSans-6f" x="322.753906"/>
      <use xlink:href="#DejaVuSans-6d" x="383.935547"/>
      <use xlink:href="#DejaVuSans-20" x="481.347656"/>
      <use xlink:href="#DejaVuSans-53" x="513.134766"/>
      <use xlink:href="#DejaVuSans-63" x="576.611328"/>
      <use xlink:href="#DejaVuSans-6f" x="631.591797"/>
      <use xlink:href="#DejaVuSans-72" x="692.773438"/>
      <use xlink:href="#DejaVuSans-65" x="731.636719"/>
     </g>
    </g>
   </g>
   <g id="patch_3">
    <path d="M 71.84 305.8 
L 71.84 46.92 
" style="fill: none; stroke: #000000; stroke-width: 0.8; stroke-linejoin: miter; stroke-linecap: square"/>
   </g>
   <g id="patch_4">
    <path d="M 313.29 305.8 
L 313.29 46.92 
" style="fill: none; stroke: #000000; stroke-width: 0.8; stroke-linejoin: miter; stroke-linecap: square"/>
   </g>
   <g id="patch_5">
    <path d="M 71.84 305.8 
L 313.29 305.8 
" style="fill: none; stroke: #000000; stroke-width: 0.8; stroke-linejoin: miter; stroke-linecap: square"/>
   </g>
   <g id="patch_6">
    <path d="M 71.84 46.92 
L 313.29 46.92 
" style="fill: none; stroke: #000000; stroke-width: 0.8; stroke-linejoin: miter; stroke-linecap: square"/>
   </g>
   <g id="LineCollection_1">
    <path d="M 78.941471 301.654352 
L 78.941471 293.579671 
" clip-path="url(#pd1f99ce07d)" style="fill: none; stroke: #000000; stroke-width: 1.5"/>
    <path d="M 107.347353 305.845021 
L 107.347353 274.014902 
" clip-path="url(#pd1f99ce07d)" style="fill: none; stroke: #000000; stroke-width: 1.5"/>
    <path d="M 135.753235 304.29137 
L 135.753235 226.966561 
" clip-path="url(#pd1f99ce07d)" style="fill: none; stroke: #000000; stroke-width: 1.5"/>
    <path d="M 164.159118 309.934456 
L 164.159118 180.656502 
" clip-path="url(#pd1f99ce07d)" style="fill: none; stroke: #000000; stroke-width: 1.5"/>
    <path d="M 192.565 301.41625 
L 192.565 183.223444 
" clip-path="url(#pd1f99ce07d)" style="fill: none; stroke: #000000; stroke-width: 1.5"/>
    <path d="M 220.970882 291.750509 
L 220.970882 187.929797 
" clip-path="url(#pd1f99ce07d)" style="fill: none; stroke: #000000; stroke-width: 1.5"/>
    <path d="M 249.376765 308.409313 
L 249.376765 221.85674 
" clip-path="url(#pd1f99ce07d)" style="fill: none; stroke: #000000; stroke-width: 1.5"/>
    <path d="M 277.782647 300.486991 
L 277.782647 255.567875 
" clip-path="url(#pd1f99ce07d)" style="fill: none; stroke: #000000; stroke-width: 1.5"/>
   </g>
   <g id="line2d_19">
    <defs>
     <path id="m5735eb31bd" d="M 5 0 
L -5 -0 
" style="stroke: #000000"/>
    </defs>
    <g clip-path="url(#pd1f99ce07d)">
     <use xlink:href="#m5735eb31bd" x="78.941471" y="301.654352" style="stroke: #000000"/>
     <use xlink:href="#m5735eb31bd" x="107.347353" y="305.845021" style="stroke: #000000"/>
     <use xlink:href="#m5735eb31bd" x="135.753235" y="304.29137" style="stroke: #000000"/>
     <use xlink:href="#m5735eb31bd" x="164.159118" y="309.934456" style="stroke: #000000"/>
     <use xlink:href="#m5735eb31bd" x="192.565" y="301.41625" style="stroke: #000000"/>
     <use xlink:href="#m5735eb31bd" x="220.970882" y="291.750509" style="stroke: #000000"/>
     <use xlink:href="#m5735eb31bd" x="249.376765" y="308.409313" style="stroke: #000000"/>
     <use xlink:href="#m5735eb31bd" x="277.782647" y="300.486991" style="stroke: #000000"/>
    </g>
   </g>
   <g id="line2d_20">
    <g clip-path="url(#pd1f99ce07d)">
     <use xlink:href="#m5735eb31bd" x="78.941471" y="293.579671" style="stroke: #000000"/>
     <use xlink:href="#m5735eb31bd" x="107.347353" y="274.014902" style="stroke: #000000"/>
     <use xlink:href="#m5735eb31bd" x="135.753235" y="226.966561" style="stroke: #000000"/>
     <use xlink:href="#m5735eb31bd" x="164.159118" y="180.656502" style="stroke: #000000"/>
     <use xlink:href="#m5735eb31bd" x="192.565" y="183.223444" style="stroke: #000000"/>
     <use xlink:href="#m5735eb31bd" x="220.970882" y="187.929797" style="stroke: #000000"/>
     <use xlink:href="#m5735eb31bd" x="249.376765" y="221.85674" style="stroke: #000000"/>
     <use xlink:href="#m5735eb31bd" x="277.782647" y="255.567875" style="stroke: #000000"/>
    </g>
   </g>
   <g id="PathCollection_1">
    <defs>
     <path id="m6cd6e51b9b" d="M -4.330127 4.330127 
L 4.330127 4.330127 
L 4.330127 -4.330127 
L -4.330127 -4.330127 
z
" style="stroke: #000000"/>
    </defs>
    <g clip-path="url(#pd1f99ce07d)">
     <use xlink:href="#m6cd6e51b9b" x="78.941471" y="297.617011" style="stroke: #000000"/>
     <use xlink:href="#m6cd6e51b9b" x="107.347353" y="289.929962" style="stroke: #000000"/>
     <use xlink:href="#m6cd6e51b9b" x="135.753235" y="265.628966" style="stroke: #000000"/>
     <use xlink:href="#m6cd6e51b9b" x="164.159118" y="245.295479" style="stroke: #000000"/>
     <use xlink:href="#m6cd6e51b9b" x="192.565" y="242.319847" style="stroke: #000000"/>
     <use xlink:href="#m6cd6e51b9b" x="220.970882" y="239.840153" style="stroke: #000000"/>
     <use xlink:href="#m6cd6e51b9b" x="249.376765" y="265.133027" style="stroke: #000000"/>
     <use xlink:href="#m6cd6e51b9b" x="277.782647" y="278.027433" style="stroke: #000000"/>
    </g>
   </g>
  </g>
  <g id="axes_2">
   <g id="matplotlib.axis_3">
    <g id="ytick_10">
     <g id="line2d_21">
      <defs>
       <path id="m44313164c4" d="M 0 0 
L 3.5 0 
" style="stroke: #000000; stroke-width: 0.8"/>
      </defs>
      <g>
       <use xlink:href="#m44313164c4" x="313.29" y="300.172174" style="stroke: #000000; stroke-width: 0.8"/>
      </g>
     </g>
     <g id="text_21">
      <!-- 0 -->
      <g transform="translate(320.29 305.49108) scale(0.14 -0.14)">
       <use xlink:href="#DejaVuSans-30"/>
      </g>
     </g>
    </g>
    <g id="ytick_11">
     <g id="line2d_22">
      <g>
       <use xlink:href="#m44313164c4" x="313.29" y="243.893913" style="stroke: #000000; stroke-width: 0.8"/>
      </g>
     </g>
     <g id="text_22">
      <!-- 2 -->
      <g transform="translate(320.29 249.212819) scale(0.14 -0.14)">
       <use xlink:href="#DejaVuSans-32"/>
      </g>
     </g>
    </g>
    <g id="ytick_12">
     <g id="line2d_23">
      <g>
       <use xlink:href="#m44313164c4" x="313.29" y="187.615652" style="stroke: #000000; stroke-width: 0.8"/>
      </g>
     </g>
     <g id="text_23">
      <!-- 4 -->
      <g transform="translate(320.29 192.934558) scale(0.14 -0.14)">
       <use xlink:href="#DejaVuSans-34"/>
      </g>
     </g>
    </g>
    <g id="ytick_13">
     <g id="line2d_24">
      <g>
       <use xlink:href="#m44313164c4" x="313.29" y="131.337391" style="stroke: #000000; stroke-width: 0.8"/>
      </g>
     </g>
     <g id="text_24">
      <!-- 6 -->
      <g transform="translate(320.29 136.656298) scale(0.14 -0.14)">
       <use xlink:href="#DejaVuSans-36"/>
      </g>
     </g>
    </g>
    <g id="ytick_14">
     <g id="line2d_25">
      <g>
       <use xlink:href="#m44313164c4" x="313.29" y="75.05913" style="stroke: #000000; stroke-width: 0.8"/>
      </g>
     </g>
     <g id="text_25">
      <!-- 8 -->
      <g transform="translate(320.29 80.378037) scale(0.14 -0.14)">
       <use xlink:href="#DejaVuSans-38"/>
      </g>
     </g>
    </g>
    <g id="text_26">
     <!-- CAUC Infected Cells -->
     <g transform="translate(334.760469 82.059141) rotate(-270) scale(0.19 -0.19)">
      <defs>
       <path id="DejaVuSans-43" d="M 4122 4306 
L 4122 3641 
Q 3803 3938 3442 4084 
Q 3081 4231 2675 4231 
Q 1875 4231 1450 3742 
Q 1025 3253 1025 2328 
Q 1025 1406 1450 917 
Q 1875 428 2675 428 
Q 3081 428 3442 575 
Q 3803 722 4122 1019 
L 4122 359 
Q 3791 134 3420 21 
Q 3050 -91 2638 -91 
Q 1578 -91 968 557 
Q 359 1206 359 2328 
Q 359 3453 968 4101 
Q 1578 4750 2638 4750 
Q 3056 4750 3426 4639 
Q 3797 4528 4122 4306 
z
" transform="scale(0.015625)"/>
       <path id="DejaVuSans-41" d="M 2188 4044 
L 1331 1722 
L 3047 1722 
L 2188 4044 
z
M 1831 4666 
L 2547 4666 
L 4325 0 
L 3669 0 
L 3244 1197 
L 1141 1197 
L 716 0 
L 50 0 
L 1831 4666 
z
" transform="scale(0.015625)"/>
       <path id="DejaVuSans-55" d="M 556 4666 
L 1191 4666 
L 1191 1831 
Q 1191 1081 1462 751 
Q 1734 422 2344 422 
Q 2950 422 3222 751 
Q 3494 1081 3494 1831 
L 3494 4666 
L 4128 4666 
L 4128 1753 
Q 4128 841 3676 375 
Q 3225 -91 2344 -91 
Q 1459 -91 1007 375 
Q 556 841 556 1753 
L 556 4666 
z
" transform="scale(0.015625)"/>
       <path id="DejaVuSans-49" d="M 628 4666 
L 1259 4666 
L 1259 0 
L 628 0 
L 628 4666 
z
" transform="scale(0.015625)"/>
       <path id="DejaVuSans-6e" d="M 3513 2113 
L 3513 0 
L 2938 0 
L 2938 2094 
Q 2938 2591 2744 2837 
Q 2550 3084 2163 3084 
Q 1697 3084 1428 2787 
Q 1159 2491 1159 1978 
L 1159 0 
L 581 0 
L 581 3500 
L 1159 3500 
L 1159 2956 
Q 1366 3272 1645 3428 
Q 1925 3584 2291 3584 
Q 2894 3584 3203 3211 
Q 3513 2838 3513 2113 
z
" transform="scale(0.015625)"/>
       <path id="DejaVuSans-66" d="M 2375 4863 
L 2375 4384 
L 1825 4384 
Q 1516 4384 1395 4259 
Q 1275 4134 1275 3809 
L 1275 3500 
L 2222 3500 
L 2222 3053 
L 1275 3053 
L 1275 0 
L 697 0 
L 697 3053 
L 147 3053 
L 147 3500 
L 697 3500 
L 697 3744 
Q 697 4328 969 4595 
Q 1241 4863 1831 4863 
L 2375 4863 
z
" transform="scale(0.015625)"/>
       <path id="DejaVuSans-6c" d="M 603 4863 
L 1178 4863 
L 1178 0 
L 603 0 
L 603 4863 
z
" transform="scale(0.015625)"/>
       <path id="DejaVuSans-73" d="M 2834 3397 
L 2834 2853 
Q 2591 2978 2328 3040 
Q 2066 3103 1784 3103 
Q 1356 3103 1142 2972 
Q 928 2841 928 2578 
Q 928 2378 1081 2264 
Q 1234 2150 1697 2047 
L 1894 2003 
Q 2506 1872 2764 1633 
Q 3022 1394 3022 966 
Q 3022 478 2636 193 
Q 2250 -91 1575 -91 
Q 1294 -91 989 -36 
Q 684 19 347 128 
L 347 722 
Q 666 556 975 473 
Q 1284 391 1588 391 
Q 1994 391 2212 530 
Q 2431 669 2431 922 
Q 2431 1156 2273 1281 
Q 2116 1406 1581 1522 
L 1381 1569 
Q 847 1681 609 1914 
Q 372 2147 372 2553 
Q 372 3047 722 3315 
Q 1072 3584 1716 3584 
Q 2034 3584 2315 3537 
Q 2597 3491 2834 3397 
z
" transform="scale(0.015625)"/>
      </defs>
      <use xlink:href="#DejaVuSans-43"/>
      <use xlink:href="#DejaVuSans-41" x="69.824219"/>
      <use xlink:href="#DejaVuSans-55" x="138.232422"/>
      <use xlink:href="#DejaVuSans-43" x="211.425781"/>
      <use xlink:href="#DejaVuSans-20" x="281.25"/>
      <use xlink:href="#DejaVuSans-49" x="313.037109"/>
      <use xlink:href="#DejaVuSans-6e" x="342.529297"/>
      <use xlink:href="#DejaVuSans-66" x="405.908203"/>
      <use xlink:href="#DejaVuSans-65" x="441.113281"/>
      <use xlink:href="#DejaVuSans-63" x="502.636719"/>
      <use xlink:href="#DejaVuSans-74" x="557.617188"/>
      <use xlink:href="#DejaVuSans-65" x="596.826172"/>
      <use xlink:href="#DejaVuSans-64" x="658.349609"/>
      <use xlink:href="#DejaVuSans-20" x="721.826172"/>
      <use xlink:href="#DejaVuSans-43" x="753.613281"/>
      <use xlink:href="#DejaVuSans-65" x="823.4375"/>
      <use xlink:href="#DejaVuSans-6c" x="884.960938"/>
      <use xlink:href="#DejaVuSans-6c" x="912.744141"/>
      <use xlink:href="#DejaVuSans-73" x="940.527344"/>
     </g>
    </g>
    <g id="text_27">
     <!-- 1e7 -->
     <g transform="translate(294.411875 43.92) scale(0.1 -0.1)">
      <use xlink:href="#DejaVuSans-31"/>
      <use xlink:href="#DejaVuSans-65" x="63.623047"/>
      <use xlink:href="#DejaVuSans-37" x="125.146484"/>
     </g>
    </g>
   </g>
   <g id="PolyCollection_1">
    <defs>
     <path id="m9fc7927be0" d="M 78.941471 -59.827826 
L 78.941471 -59.827826 
L 78.941899 -59.827826 
L 78.946178 -59.827826 
L 78.988972 -59.827827 
L 79.167861 -59.827828 
L 79.287217 -59.827829 
L 79.71371 -59.827834 
L 79.979239 -59.827836 
L 80.890728 -59.827846 
L 81.405749 -59.827851 
L 82.874023 -59.827871 
L 83.545893 -59.827883 
L 85.061907 -59.827916 
L 85.861056 -59.827938 
L 87.424527 -59.827998 
L 88.325036 -59.828041 
L 89.906858 -59.828152 
L 90.889091 -59.828233 
L 92.482593 -59.828437 
L 93.528429 -59.828607 
L 95.125614 -59.828961 
L 96.219936 -59.82933 
L 97.816756 -59.829997 
L 98.946918 -59.830708 
L 100.698269 -59.832141 
L 101.81025 -59.833475 
L 103.34094 -59.835899 
L 104.496265 -59.838412 
L 106.164276 -59.843671 
L 107.316574 -59.848496 
L 108.889921 -59.858243 
L 110.074675 -59.867065 
L 111.78187 -59.887188 
L 112.97032 -59.906458 
L 114.620777 -59.942479 
L 115.854439 -59.984738 
L 117.665461 -60.063853 
L 118.914978 -60.146961 
L 120.640955 -60.298932 
L 121.932618 -60.463535 
L 123.82823 -60.796231 
L 125.172356 -61.129015 
L 126.890249 -61.743247 
L 128.196161 -62.35002 
L 129.765613 -63.336361 
L 131.056821 -64.253615 
L 132.427407 -65.511288 
L 133.797993 -67.056999 
L 135.168579 -68.729573 
L 136.27888 -70.231985 
L 137.322451 -71.795375 
L 138.248689 -73.182988 
L 139.174928 -74.623883 
L 139.904119 -75.782958 
L 140.649124 -76.972118 
L 141.296791 -77.84072 
L 141.969358 -78.5106 
L 142.537797 -79.062925 
L 143.142058 -79.650058 
L 143.659816 -80.138514 
L 144.19983 -80.630229 
L 144.679804 -81.067273 
L 145.170397 -81.513987 
L 145.66099 -81.938572 
L 146.100562 -82.313949 
L 146.559068 -82.705495 
L 147.017573 -83.090759 
L 147.476078 -83.460085 
L 147.934584 -83.829411 
L 148.393089 -84.195566 
L 148.851594 -84.544589 
L 149.3101 -84.893612 
L 149.768605 -85.242634 
L 150.227111 -85.573532 
L 150.685616 -85.904153 
L 151.144121 -86.230746 
L 151.602627 -86.544657 
L 152.061132 -86.858568 
L 152.523048 -87.168684 
L 152.992371 -87.474325 
L 153.471812 -87.786554 
L 153.964776 -88.092706 
L 156.805364 -89.765895 
L 157.461643 -90.121808 
L 160.302231 -91.561792 
L 161.276023 -92.016412 
L 164.116611 -93.078692 
L 165.476589 -93.506846 
L 168.317177 -94.292457 
L 169.97781 -94.726237 
L 172.818398 -95.379175 
L 174.903524 -95.822071 
L 177.744113 -96.352711 
L 180.584701 -96.825367 
L 183.425289 -97.241195 
L 186.265877 -97.60565 
L 189.106466 -97.923658 
L 191.947054 -98.199689 
L 194.787642 -98.437819 
L 197.62823 -98.641787 
L 200.468819 -98.815041 
L 203.309407 -98.96077 
L 206.149995 -99.081941 
L 208.990583 -99.181327 
L 211.831172 -99.261534 
L 214.67176 -99.325021 
L 217.512348 -99.374129 
L 220.352936 -99.411091 
L 223.193524 -98.638759 
L 226.034113 -95.731256 
L 228.874701 -92.817637 
L 231.715289 -89.899554 
L 234.555877 -86.978375 
L 237.396466 -84.055155 
L 240.237054 -81.418915 
L 243.077642 -79.660451 
L 245.91823 -78.197907 
L 248.758819 -76.735082 
L 251.599407 -75.27209 
L 254.439995 -73.809 
L 257.280583 -72.345852 
L 260.121172 -70.88267 
L 262.96176 -69.419467 
L 265.802348 -67.956251 
L 268.642936 -66.493028 
L 271.483524 -65.029801 
L 274.324113 -63.56657 
L 277.164701 -62.103338 
L 280.005289 -60.708744 
L 282.845877 -59.827826 
L 285.686466 -59.827826 
L 288.527054 -59.827826 
L 291.367642 -59.827826 
L 294.20823 -59.827826 
L 297.048819 -59.827826 
L 299.889407 -59.827826 
L 302.729995 -59.827826 
L 305.570583 -59.827826 
L 306.188529 -59.827826 
L 306.188529 -115.052923 
L 306.188529 -115.052923 
L 305.570583 -115.371237 
L 302.729995 -116.834472 
L 299.889407 -118.297707 
L 297.048819 -119.760942 
L 294.20823 -121.224177 
L 291.367642 -122.687411 
L 288.527054 -124.150646 
L 285.686466 -126.404653 
L 282.845877 -129.331051 
L 280.005289 -132.257421 
L 277.164701 -135.183752 
L 274.324113 -138.110028 
L 271.483524 -141.036227 
L 268.642936 -143.962317 
L 265.802348 -146.888254 
L 262.96176 -149.813973 
L 260.121172 -152.739387 
L 257.280583 -155.664368 
L 254.439995 -158.588743 
L 251.599407 -161.512269 
L 248.758819 -164.434618 
L 245.91823 -167.355351 
L 243.077642 -170.273896 
L 240.237054 -173.189524 
L 237.396466 -176.101331 
L 234.555877 -179.008226 
L 231.715289 -181.90892 
L 228.874701 -184.801917 
L 226.034113 -187.685499 
L 223.193524 -190.557708 
L 220.352936 -192.012718 
L 217.512348 -191.928726 
L 214.67176 -191.825718 
L 211.831172 -191.700406 
L 208.990583 -191.549032 
L 206.149995 -191.367292 
L 203.309407 -191.150258 
L 200.468819 -190.892275 
L 197.62823 -190.586857 
L 194.787642 -190.22656 
L 191.947054 -189.802842 
L 189.106466 -189.305902 
L 186.265877 -188.724497 
L 183.425289 -188.045739 
L 180.584701 -187.254851 
L 177.744113 -186.334908 
L 174.903524 -185.26652 
L 172.818398 -184.382341 
L 169.97781 -183.003169 
L 168.317177 -182.100268 
L 165.476589 -180.383846 
L 164.116611 -179.425954 
L 161.276023 -177.296376 
L 160.302231 -176.495 
L 157.461643 -173.900625 
L 156.805364 -173.235657 
L 153.964776 -170.114457 
L 153.471812 -169.553942 
L 152.992371 -168.996759 
L 152.523048 -168.40353 
L 152.061132 -167.819664 
L 151.602627 -167.240109 
L 151.144121 -166.603097 
L 150.685616 -165.960225 
L 150.227111 -165.317353 
L 149.768605 -164.674481 
L 149.3101 -164.031609 
L 148.851594 -163.382269 
L 148.393089 -162.676585 
L 147.934584 -161.970901 
L 147.476078 -161.241835 
L 147.017573 -160.476397 
L 146.559068 -159.710958 
L 146.100562 -158.94552 
L 145.66099 -158.211689 
L 145.170397 -157.343724 
L 144.679804 -156.461895 
L 144.19983 -155.558641 
L 143.659816 -154.520504 
L 143.142058 -153.525152 
L 142.537797 -152.339706 
L 141.969358 -151.178554 
L 141.296791 -149.731189 
L 140.649124 -148.330834 
L 139.904119 -146.673762 
L 139.174928 -144.958847 
L 138.248689 -142.743934 
L 137.322451 -140.416632 
L 136.27888 -137.673899 
L 135.168579 -134.619215 
L 133.797993 -130.640119 
L 132.427407 -126.409126 
L 131.056821 -121.956725 
L 129.765613 -117.529168 
L 128.196161 -112.511965 
L 126.890249 -109.263655 
L 125.172356 -104.770318 
L 123.82823 -101.081312 
L 121.932618 -95.618949 
L 120.640955 -91.73614 
L 118.914978 -86.353748 
L 117.665461 -82.360186 
L 115.854439 -76.578555 
L 114.620777 -73.133094 
L 112.97032 -70.596388 
L 111.78187 -68.746674 
L 110.074675 -66.143252 
L 108.889921 -64.514698 
L 107.316574 -62.763274 
L 106.164276 -61.767473 
L 104.496265 -60.851816 
L 103.34094 -60.450922 
L 101.81025 -60.151805 
L 100.698269 -60.030583 
L 98.946918 -59.918816 
L 97.816756 -59.883755 
L 96.219936 -59.855579 
L 95.125614 -59.844556 
L 93.528429 -59.836025 
L 92.482593 -59.832837 
L 90.889091 -59.830308 
L 89.906858 -59.829454 
L 88.325036 -59.828601 
L 87.424527 -59.828352 
L 85.861056 -59.828087 
L 85.061907 -59.828 
L 83.545893 -59.827913 
L 82.874023 -59.827888 
L 81.405749 -59.827855 
L 80.890728 -59.827847 
L 79.979239 -59.827836 
L 79.71371 -59.827834 
L 79.287217 -59.827829 
L 79.167861 -59.827828 
L 78.988972 -59.827827 
L 78.946178 -59.827826 
L 78.941899 -59.827826 
L 78.941471 -59.827826 
z
" style="stroke: #000000; stroke-opacity: 0.2"/>
    </defs>
    <g clip-path="url(#pd1f99ce07d)">
     <use xlink:href="#m9fc7927be0" x="0" y="360" style="fill-opacity: 0.2; stroke: #000000; stroke-opacity: 0.2"/>
    </g>
   </g>
   <g id="patch_7">
    <path d="M 71.84 305.8 
L 71.84 46.92 
" style="fill: none; stroke: #000000; stroke-width: 0.8; stroke-linejoin: miter; stroke-linecap: square"/>
   </g>
   <g id="patch_8">
    <path d="M 313.29 305.8 
L 313.29 46.92 
" style="fill: none; stroke: #000000; stroke-width: 0.8; stroke-linejoin: miter; stroke-linecap: square"/>
   </g>
   <g id="patch_9">
    <path d="M 71.84 305.8 
L 313.29 305.8 
" style="fill: none; stroke: #000000; stroke-width: 0.8; stroke-linejoin: miter; stroke-linecap: square"/>
   </g>
   <g id="patch_10">
    <path d="M 71.84 46.92 
L 313.29 46.92 
" style="fill: none; stroke: #000000; stroke-width: 0.8; stroke-linejoin: miter; stroke-linecap: square"/>
   </g>
   <g id="line2d_26">
    <path d="M 78.941471 300.172174 
L 107.316574 300.064689 
L 110.074675 299.924735 
L 112.97032 299.588275 
L 114.620777 299.23419 
L 115.854439 298.854043 
L 117.665461 298.052669 
L 118.914978 297.30395 
L 120.640955 295.987773 
L 121.932618 294.805507 
L 125.172356 291.382579 
L 129.765613 286.358005 
L 133.797993 282.31363 
L 137.322451 279.127904 
L 140.649124 276.413166 
L 144.19983 273.810087 
L 147.934584 271.37428 
L 151.602627 269.255629 
L 153.964776 268.022051 
L 157.461643 266.366325 
L 161.276023 264.772338 
L 165.476589 263.245432 
L 169.97781 261.844526 
L 174.903524 260.556472 
L 180.584701 259.34678 
L 186.265877 258.390995 
L 191.947054 257.650537 
L 197.62823 257.090895 
L 206.149995 256.523058 
L 214.67176 256.19948 
L 223.193524 256.039843 
L 240.237054 273.513452 
L 243.077642 275.336495 
L 291.367642 300.172174 
L 306.188529 300.172174 
L 306.188529 300.172174 
" clip-path="url(#pd1f99ce07d)" style="fill: none; stroke: #000000; stroke-width: 1.5; stroke-linecap: square"/>
   </g>
   <g id="text_28">
    <g id="patch_11">
     <path d="M 218.2475 79.349 
L 305.2175 79.349 
L 305.2175 55.864 
L 218.2475 55.864 
z
" style="fill: #ffffff; opacity: 0.5; stroke: #000000; stroke-linejoin: miter"/>
    </g>
    <!-- Scale: 1.3 -->
    <g transform="translate(222.2475 72.0215) scale(0.16 -0.16)">
     <defs>
      <path id="DejaVuSans-61" d="M 2194 1759 
Q 1497 1759 1228 1600 
Q 959 1441 959 1056 
Q 959 750 1161 570 
Q 1363 391 1709 391 
Q 2188 391 2477 730 
Q 2766 1069 2766 1631 
L 2766 1759 
L 2194 1759 
z
M 3341 1997 
L 3341 0 
L 2766 0 
L 2766 531 
Q 2569 213 2275 61 
Q 1981 -91 1556 -91 
Q 1019 -91 701 211 
Q 384 513 384 1019 
Q 384 1609 779 1909 
Q 1175 2209 1959 2209 
L 2766 2209 
L 2766 2266 
Q 2766 2663 2505 2880 
Q 2244 3097 1772 3097 
Q 1472 3097 1187 3025 
Q 903 2953 641 2809 
L 641 3341 
Q 956 3463 1253 3523 
Q 1550 3584 1831 3584 
Q 2591 3584 2966 3190 
Q 3341 2797 3341 1997 
z
" transform="scale(0.015625)"/>
      <path id="DejaVuSans-3a" d="M 750 794 
L 1409 794 
L 1409 0 
L 750 0 
L 750 794 
z
M 750 3309 
L 1409 3309 
L 1409 2516 
L 750 2516 
L 750 3309 
z
" transform="scale(0.015625)"/>
     </defs>
     <use xlink:href="#DejaVuSans-53"/>
     <use xlink:href="#DejaVuSans-63" x="63.476562"/>
     <use xlink:href="#DejaVuSans-61" x="118.457031"/>
     <use xlink:href="#DejaVuSans-6c" x="179.736328"/>
     <use xlink:href="#DejaVuSans-65" x="207.519531"/>
     <use xlink:href="#DejaVuSans-3a" x="269.042969"/>
     <use xlink:href="#DejaVuSans-20" x="302.734375"/>
     <use xlink:href="#DejaVuSans-31" x="334.521484"/>
     <use xlink:href="#DejaVuSans-2e" x="398.144531"/>
     <use xlink:href="#DejaVuSans-33" x="429.931641"/>
    </g>
   </g>
  </g>
 </g>
 <defs>
  <clipPath id="pd1f99ce07d">
   <rect x="71.84" y="46.92" width="241.45" height="258.88"/>
  </clipPath>
 </defs>
</svg>
