<?xml version="1.0" encoding="utf-8" standalone="no"?>
<!DOCTYPE svg PUBLIC "-//W3C//DTD SVG 1.1//EN"
  "http://www.w3.org/Graphics/SVG/1.1/DTD/svg11.dtd">
<svg xmlns:xlink="http://www.w3.org/1999/xlink" width="360pt" height="360pt" viewBox="0 0 360 360" xmlns="http://www.w3.org/2000/svg" version="1.1">
 <metadata>
  <rdf:RDF xmlns:dc="http://purl.org/dc/elements/1.1/" xmlns:cc="http://creativecommons.org/ns#" xmlns:rdf="http://www.w3.org/1999/02/22-rdf-syntax-ns#">
   <cc:Work>
    <dc:type rdf:resource="http://purl.org/dc/dcmitype/StillImage"/>
    <dc:date>2025-02-10T12:37:40.382109</dc:date>
    <dc:format>image/svg+xml</dc:format>
    <dc:creator>
     <cc:Agent>
      <dc:title>Matplotlib v3.10.0, https://matplotlib.org/</dc:title>
     </cc:Agent>
    </dc:creator>
   </cc:Work>
  </rdf:RDF>
 </metadata>
 <defs>
  <style type="text/css">*{stroke-linejoin: round; stroke-linecap: butt}</style>
 </defs>
 <g id="figure_1">
  <g id="patch_1">
   <path d="M 0 360 
L 360 360 
L 360 0 
L 0 0 
L 0 360 
z
" style="fill: none"/>
  </g>
  <g id="axes_1">
   <g id="patch_2">
    <path d="M 75.6225 288.9 
L 263.27 288.9 
L 263.27 38.16 
L 75.6225 38.16 
L 75.6225 288.9 
z
" style="fill: none"/>
   </g>
   <g id="matplotlib.axis_1">
    <g id="xtick_1">
     <g id="text_1">
      <!-- 0 -->
      <g style="fill: #262626" transform="translate(74.468419 315.57875) scale(0.24 -0.24)">
       <defs>
        <path id="ArialMT-30" d="M 266 2259 
Q 266 3072 433 3567 
Q 600 4063 929 4331 
Q 1259 4600 1759 4600 
Q 2128 4600 2406 4451 
Q 2684 4303 2865 4023 
Q 3047 3744 3150 3342 
Q 3253 2941 3253 2259 
Q 3253 1453 3087 958 
Q 2922 463 2592 192 
Q 2263 -78 1759 -78 
Q 1097 -78 719 397 
Q 266 969 266 2259 
z
M 844 2259 
Q 844 1131 1108 757 
Q 1372 384 1759 384 
Q 2147 384 2411 759 
Q 2675 1134 2675 2259 
Q 2675 3391 2411 3762 
Q 2147 4134 1753 4134 
Q 1366 4134 1134 3806 
Q 844 3388 844 2259 
z
" transform="scale(0.015625)"/>
       </defs>
       <use xlink:href="#ArialMT-30"/>
      </g>
     </g>
    </g>
    <g id="xtick_2">
     <g id="text_2">
      <!-- 2 -->
      <g style="fill: #262626" transform="translate(118.620772 315.57875) scale(0.24 -0.24)">
       <defs>
        <path id="ArialMT-32" d="M 3222 541 
L 3222 0 
L 194 0 
Q 188 203 259 391 
Q 375 700 629 1000 
Q 884 1300 1366 1694 
Q 2113 2306 2375 2664 
Q 2638 3022 2638 3341 
Q 2638 3675 2398 3904 
Q 2159 4134 1775 4134 
Q 1369 4134 1125 3890 
Q 881 3647 878 3216 
L 300 3275 
Q 359 3922 746 4261 
Q 1134 4600 1788 4600 
Q 2447 4600 2831 4234 
Q 3216 3869 3216 3328 
Q 3216 3053 3103 2787 
Q 2991 2522 2730 2228 
Q 2469 1934 1863 1422 
Q 1356 997 1212 845 
Q 1069 694 975 541 
L 3222 541 
z
" transform="scale(0.015625)"/>
       </defs>
       <use xlink:href="#ArialMT-32"/>
      </g>
     </g>
    </g>
    <g id="xtick_3">
     <g id="text_3">
      <!-- 4 -->
      <g style="fill: #262626" transform="translate(162.773125 315.57875) scale(0.24 -0.24)">
       <defs>
        <path id="ArialMT-34" d="M 2069 0 
L 2069 1097 
L 81 1097 
L 81 1613 
L 2172 4581 
L 2631 4581 
L 2631 1613 
L 3250 1613 
L 3250 1097 
L 2631 1097 
L 2631 0 
L 2069 0 
z
M 2069 1613 
L 2069 3678 
L 634 1613 
L 2069 1613 
z
" transform="scale(0.015625)"/>
       </defs>
       <use xlink:href="#ArialMT-34"/>
      </g>
     </g>
    </g>
    <g id="xtick_4">
     <g id="text_4">
      <!-- 6 -->
      <g style="fill: #262626" transform="translate(206.925478 315.57875) scale(0.24 -0.24)">
       <defs>
        <path id="ArialMT-36" d="M 3184 3459 
L 2625 3416 
Q 2550 3747 2413 3897 
Q 2184 4138 1850 4138 
Q 1581 4138 1378 3988 
Q 1113 3794 959 3422 
Q 806 3050 800 2363 
Q 1003 2672 1297 2822 
Q 1591 2972 1913 2972 
Q 2475 2972 2870 2558 
Q 3266 2144 3266 1488 
Q 3266 1056 3080 686 
Q 2894 316 2569 119 
Q 2244 -78 1831 -78 
Q 1128 -78 684 439 
Q 241 956 241 2144 
Q 241 3472 731 4075 
Q 1159 4600 1884 4600 
Q 2425 4600 2770 4297 
Q 3116 3994 3184 3459 
z
M 888 1484 
Q 888 1194 1011 928 
Q 1134 663 1356 523 
Q 1578 384 1822 384 
Q 2178 384 2434 671 
Q 2691 959 2691 1453 
Q 2691 1928 2437 2201 
Q 2184 2475 1800 2475 
Q 1419 2475 1153 2201 
Q 888 1928 888 1484 
z
" transform="scale(0.015625)"/>
       </defs>
       <use xlink:href="#ArialMT-36"/>
      </g>
     </g>
    </g>
    <g id="xtick_5">
     <g id="text_5">
      <!-- 8 -->
      <g style="fill: #262626" transform="translate(251.077831 315.57875) scale(0.24 -0.24)">
       <defs>
        <path id="ArialMT-38" d="M 1131 2484 
Q 781 2613 612 2850 
Q 444 3088 444 3419 
Q 444 3919 803 4259 
Q 1163 4600 1759 4600 
Q 2359 4600 2725 4251 
Q 3091 3903 3091 3403 
Q 3091 3084 2923 2848 
Q 2756 2613 2416 2484 
Q 2838 2347 3058 2040 
Q 3278 1734 3278 1309 
Q 3278 722 2862 322 
Q 2447 -78 1769 -78 
Q 1091 -78 675 323 
Q 259 725 259 1325 
Q 259 1772 486 2073 
Q 713 2375 1131 2484 
z
M 1019 3438 
Q 1019 3113 1228 2906 
Q 1438 2700 1772 2700 
Q 2097 2700 2305 2904 
Q 2513 3109 2513 3406 
Q 2513 3716 2298 3927 
Q 2084 4138 1766 4138 
Q 1444 4138 1231 3931 
Q 1019 3725 1019 3438 
z
M 838 1322 
Q 838 1081 952 856 
Q 1066 631 1291 507 
Q 1516 384 1775 384 
Q 2178 384 2440 643 
Q 2703 903 2703 1303 
Q 2703 1709 2433 1975 
Q 2163 2241 1756 2241 
Q 1359 2241 1098 1978 
Q 838 1716 838 1322 
z
" transform="scale(0.015625)"/>
       </defs>
       <use xlink:href="#ArialMT-38"/>
      </g>
     </g>
    </g>
    <g id="text_6">
     <!-- Time (d) -->
     <g style="fill: #262626" transform="translate(125.23375 341.82) scale(0.24 -0.24)">
      <defs>
       <path id="ArialMT-54" d="M 1659 0 
L 1659 4041 
L 150 4041 
L 150 4581 
L 3781 4581 
L 3781 4041 
L 2266 4041 
L 2266 0 
L 1659 0 
z
" transform="scale(0.015625)"/>
       <path id="ArialMT-69" d="M 425 3934 
L 425 4581 
L 988 4581 
L 988 3934 
L 425 3934 
z
M 425 0 
L 425 3319 
L 988 3319 
L 988 0 
L 425 0 
z
" transform="scale(0.015625)"/>
       <path id="ArialMT-6d" d="M 422 0 
L 422 3319 
L 925 3319 
L 925 2853 
Q 1081 3097 1340 3245 
Q 1600 3394 1931 3394 
Q 2300 3394 2536 3241 
Q 2772 3088 2869 2813 
Q 3263 3394 3894 3394 
Q 4388 3394 4653 3120 
Q 4919 2847 4919 2278 
L 4919 0 
L 4359 0 
L 4359 2091 
Q 4359 2428 4304 2576 
Q 4250 2725 4106 2815 
Q 3963 2906 3769 2906 
Q 3419 2906 3187 2673 
Q 2956 2441 2956 1928 
L 2956 0 
L 2394 0 
L 2394 2156 
Q 2394 2531 2256 2718 
Q 2119 2906 1806 2906 
Q 1569 2906 1367 2781 
Q 1166 2656 1075 2415 
Q 984 2175 984 1722 
L 984 0 
L 422 0 
z
" transform="scale(0.015625)"/>
       <path id="ArialMT-65" d="M 2694 1069 
L 3275 997 
Q 3138 488 2766 206 
Q 2394 -75 1816 -75 
Q 1088 -75 661 373 
Q 234 822 234 1631 
Q 234 2469 665 2931 
Q 1097 3394 1784 3394 
Q 2450 3394 2872 2941 
Q 3294 2488 3294 1666 
Q 3294 1616 3291 1516 
L 816 1516 
Q 847 969 1125 678 
Q 1403 388 1819 388 
Q 2128 388 2347 550 
Q 2566 713 2694 1069 
z
M 847 1978 
L 2700 1978 
Q 2663 2397 2488 2606 
Q 2219 2931 1791 2931 
Q 1403 2931 1139 2672 
Q 875 2413 847 1978 
z
" transform="scale(0.015625)"/>
       <path id="ArialMT-20" transform="scale(0.015625)"/>
       <path id="ArialMT-28" d="M 1497 -1347 
Q 1031 -759 709 28 
Q 388 816 388 1659 
Q 388 2403 628 3084 
Q 909 3875 1497 4659 
L 1900 4659 
Q 1522 4009 1400 3731 
Q 1209 3300 1100 2831 
Q 966 2247 966 1656 
Q 966 153 1900 -1347 
L 1497 -1347 
z
" transform="scale(0.015625)"/>
       <path id="ArialMT-64" d="M 2575 0 
L 2575 419 
Q 2259 -75 1647 -75 
Q 1250 -75 917 144 
Q 584 363 401 755 
Q 219 1147 219 1656 
Q 219 2153 384 2558 
Q 550 2963 881 3178 
Q 1213 3394 1622 3394 
Q 1922 3394 2156 3267 
Q 2391 3141 2538 2938 
L 2538 4581 
L 3097 4581 
L 3097 0 
L 2575 0 
z
M 797 1656 
Q 797 1019 1065 703 
Q 1334 388 1700 388 
Q 2069 388 2326 689 
Q 2584 991 2584 1609 
Q 2584 2291 2321 2609 
Q 2059 2928 1675 2928 
Q 1300 2928 1048 2622 
Q 797 2316 797 1656 
z
" transform="scale(0.015625)"/>
       <path id="ArialMT-29" d="M 791 -1347 
L 388 -1347 
Q 1322 153 1322 1656 
Q 1322 2244 1188 2822 
Q 1081 3291 891 3722 
Q 769 4003 388 4659 
L 791 4659 
Q 1378 3875 1659 3084 
Q 1900 2403 1900 1659 
Q 1900 816 1576 28 
Q 1253 -759 791 -1347 
z
" transform="scale(0.015625)"/>
      </defs>
      <use xlink:href="#ArialMT-54"/>
      <use xlink:href="#ArialMT-69" transform="translate(57.333984 0)"/>
      <use xlink:href="#ArialMT-6d" transform="translate(79.550781 0)"/>
      <use xlink:href="#ArialMT-65" transform="translate(162.851562 0)"/>
      <use xlink:href="#ArialMT-20" transform="translate(218.466797 0)"/>
      <use xlink:href="#ArialMT-28" transform="translate(246.25 0)"/>
      <use xlink:href="#ArialMT-64" transform="translate(279.550781 0)"/>
      <use xlink:href="#ArialMT-29" transform="translate(335.166016 0)"/>
     </g>
    </g>
   </g>
   <g id="matplotlib.axis_2">
    <g id="ytick_1">
     <g id="line2d_1">
      <defs>
       <path id="mfff6b8de6c" d="M 0 0 
L -6 0 
" style="stroke: #262626; stroke-width: 1.25"/>
      </defs>
      <g>
       <use xlink:href="#mfff6b8de6c" x="75.6225" y="283.135862" style="fill: #262626; stroke: #262626; stroke-width: 1.25"/>
      </g>
     </g>
     <g id="text_7">
      <!-- 0 -->
      <g style="fill: #262626" transform="translate(52.77625 291.725237) scale(0.24 -0.24)">
       <use xlink:href="#ArialMT-30"/>
      </g>
     </g>
    </g>
    <g id="ytick_2">
     <g id="line2d_2">
      <g>
       <use xlink:href="#mfff6b8de6c" x="75.6225" y="225.494483" style="fill: #262626; stroke: #262626; stroke-width: 1.25"/>
      </g>
     </g>
     <g id="text_8">
      <!-- 5 -->
      <g style="fill: #262626" transform="translate(52.77625 234.083858) scale(0.24 -0.24)">
       <defs>
        <path id="ArialMT-35" d="M 266 1200 
L 856 1250 
Q 922 819 1161 601 
Q 1400 384 1738 384 
Q 2144 384 2425 690 
Q 2706 997 2706 1503 
Q 2706 1984 2436 2262 
Q 2166 2541 1728 2541 
Q 1456 2541 1237 2417 
Q 1019 2294 894 2097 
L 366 2166 
L 809 4519 
L 3088 4519 
L 3088 3981 
L 1259 3981 
L 1013 2750 
Q 1425 3038 1878 3038 
Q 2478 3038 2890 2622 
Q 3303 2206 3303 1553 
Q 3303 931 2941 478 
Q 2500 -78 1738 -78 
Q 1113 -78 717 272 
Q 322 622 266 1200 
z
" transform="scale(0.015625)"/>
       </defs>
       <use xlink:href="#ArialMT-35"/>
      </g>
     </g>
    </g>
    <g id="ytick_3">
     <g id="line2d_3">
      <g>
       <use xlink:href="#mfff6b8de6c" x="75.6225" y="167.853103" style="fill: #262626; stroke: #262626; stroke-width: 1.25"/>
      </g>
     </g>
     <g id="text_9">
      <!-- 10 -->
      <g style="fill: #262626" transform="translate(39.43 176.442478) scale(0.24 -0.24)">
       <defs>
        <path id="ArialMT-31" d="M 2384 0 
L 1822 0 
L 1822 3584 
Q 1619 3391 1289 3197 
Q 959 3003 697 2906 
L 697 3450 
Q 1169 3672 1522 3987 
Q 1875 4303 2022 4600 
L 2384 4600 
L 2384 0 
z
" transform="scale(0.015625)"/>
       </defs>
       <use xlink:href="#ArialMT-31"/>
       <use xlink:href="#ArialMT-30" transform="translate(55.615234 0)"/>
      </g>
     </g>
    </g>
    <g id="ytick_4">
     <g id="line2d_4">
      <g>
       <use xlink:href="#mfff6b8de6c" x="75.6225" y="110.211724" style="fill: #262626; stroke: #262626; stroke-width: 1.25"/>
      </g>
     </g>
     <g id="text_10">
      <!-- 15 -->
      <g style="fill: #262626" transform="translate(39.43 118.801099) scale(0.24 -0.24)">
       <use xlink:href="#ArialMT-31"/>
       <use xlink:href="#ArialMT-35" transform="translate(55.615234 0)"/>
      </g>
     </g>
    </g>
    <g id="ytick_5">
     <g id="line2d_5">
      <g>
       <use xlink:href="#mfff6b8de6c" x="75.6225" y="52.570345" style="fill: #262626; stroke: #262626; stroke-width: 1.25"/>
      </g>
     </g>
     <g id="text_11">
      <!-- 20 -->
      <g style="fill: #262626" transform="translate(39.43 61.15972) scale(0.24 -0.24)">
       <use xlink:href="#ArialMT-32"/>
       <use xlink:href="#ArialMT-30" transform="translate(55.615234 0)"/>
      </g>
     </g>
    </g>
    <g id="text_12">
     <!-- Symptom Score -->
     <g style="fill: #262626" transform="translate(30.37875 248.885625) rotate(-90) scale(0.24 -0.24)">
      <defs>
       <path id="ArialMT-53" d="M 288 1472 
L 859 1522 
Q 900 1178 1048 958 
Q 1197 738 1509 602 
Q 1822 466 2213 466 
Q 2559 466 2825 569 
Q 3091 672 3220 851 
Q 3350 1031 3350 1244 
Q 3350 1459 3225 1620 
Q 3100 1781 2813 1891 
Q 2628 1963 1997 2114 
Q 1366 2266 1113 2400 
Q 784 2572 623 2826 
Q 463 3081 463 3397 
Q 463 3744 659 4045 
Q 856 4347 1234 4503 
Q 1613 4659 2075 4659 
Q 2584 4659 2973 4495 
Q 3363 4331 3572 4012 
Q 3781 3694 3797 3291 
L 3216 3247 
Q 3169 3681 2898 3903 
Q 2628 4125 2100 4125 
Q 1550 4125 1298 3923 
Q 1047 3722 1047 3438 
Q 1047 3191 1225 3031 
Q 1400 2872 2139 2705 
Q 2878 2538 3153 2413 
Q 3553 2228 3743 1945 
Q 3934 1663 3934 1294 
Q 3934 928 3725 604 
Q 3516 281 3123 101 
Q 2731 -78 2241 -78 
Q 1619 -78 1198 103 
Q 778 284 539 648 
Q 300 1013 288 1472 
z
" transform="scale(0.015625)"/>
       <path id="ArialMT-79" d="M 397 -1278 
L 334 -750 
Q 519 -800 656 -800 
Q 844 -800 956 -737 
Q 1069 -675 1141 -563 
Q 1194 -478 1313 -144 
Q 1328 -97 1363 -6 
L 103 3319 
L 709 3319 
L 1400 1397 
Q 1534 1031 1641 628 
Q 1738 1016 1872 1384 
L 2581 3319 
L 3144 3319 
L 1881 -56 
Q 1678 -603 1566 -809 
Q 1416 -1088 1222 -1217 
Q 1028 -1347 759 -1347 
Q 597 -1347 397 -1278 
z
" transform="scale(0.015625)"/>
       <path id="ArialMT-70" d="M 422 -1272 
L 422 3319 
L 934 3319 
L 934 2888 
Q 1116 3141 1344 3267 
Q 1572 3394 1897 3394 
Q 2322 3394 2647 3175 
Q 2972 2956 3137 2557 
Q 3303 2159 3303 1684 
Q 3303 1175 3120 767 
Q 2938 359 2589 142 
Q 2241 -75 1856 -75 
Q 1575 -75 1351 44 
Q 1128 163 984 344 
L 984 -1272 
L 422 -1272 
z
M 931 1641 
Q 931 1000 1190 694 
Q 1450 388 1819 388 
Q 2194 388 2461 705 
Q 2728 1022 2728 1688 
Q 2728 2322 2467 2637 
Q 2206 2953 1844 2953 
Q 1484 2953 1207 2617 
Q 931 2281 931 1641 
z
" transform="scale(0.015625)"/>
       <path id="ArialMT-74" d="M 1650 503 
L 1731 6 
Q 1494 -44 1306 -44 
Q 1000 -44 831 53 
Q 663 150 594 308 
Q 525 466 525 972 
L 525 2881 
L 113 2881 
L 113 3319 
L 525 3319 
L 525 4141 
L 1084 4478 
L 1084 3319 
L 1650 3319 
L 1650 2881 
L 1084 2881 
L 1084 941 
Q 1084 700 1114 631 
Q 1144 563 1211 522 
Q 1278 481 1403 481 
Q 1497 481 1650 503 
z
" transform="scale(0.015625)"/>
       <path id="ArialMT-6f" d="M 213 1659 
Q 213 2581 725 3025 
Q 1153 3394 1769 3394 
Q 2453 3394 2887 2945 
Q 3322 2497 3322 1706 
Q 3322 1066 3130 698 
Q 2938 331 2570 128 
Q 2203 -75 1769 -75 
Q 1072 -75 642 372 
Q 213 819 213 1659 
z
M 791 1659 
Q 791 1022 1069 705 
Q 1347 388 1769 388 
Q 2188 388 2466 706 
Q 2744 1025 2744 1678 
Q 2744 2294 2464 2611 
Q 2184 2928 1769 2928 
Q 1347 2928 1069 2612 
Q 791 2297 791 1659 
z
" transform="scale(0.015625)"/>
       <path id="ArialMT-63" d="M 2588 1216 
L 3141 1144 
Q 3050 572 2676 248 
Q 2303 -75 1759 -75 
Q 1078 -75 664 370 
Q 250 816 250 1647 
Q 250 2184 428 2587 
Q 606 2991 970 3192 
Q 1334 3394 1763 3394 
Q 2303 3394 2647 3120 
Q 2991 2847 3088 2344 
L 2541 2259 
Q 2463 2594 2264 2762 
Q 2066 2931 1784 2931 
Q 1359 2931 1093 2626 
Q 828 2322 828 1663 
Q 828 994 1084 691 
Q 1341 388 1753 388 
Q 2084 388 2306 591 
Q 2528 794 2588 1216 
z
" transform="scale(0.015625)"/>
       <path id="ArialMT-72" d="M 416 0 
L 416 3319 
L 922 3319 
L 922 2816 
Q 1116 3169 1280 3281 
Q 1444 3394 1641 3394 
Q 1925 3394 2219 3213 
L 2025 2691 
Q 1819 2813 1613 2813 
Q 1428 2813 1281 2702 
Q 1134 2591 1072 2394 
Q 978 2094 978 1738 
L 978 0 
L 416 0 
z
" transform="scale(0.015625)"/>
      </defs>
      <use xlink:href="#ArialMT-53"/>
      <use xlink:href="#ArialMT-79" transform="translate(66.699219 0)"/>
      <use xlink:href="#ArialMT-6d" transform="translate(116.699219 0)"/>
      <use xlink:href="#ArialMT-70" transform="translate(200 0)"/>
      <use xlink:href="#ArialMT-74" transform="translate(255.615234 0)"/>
      <use xlink:href="#ArialMT-6f" transform="translate(283.398438 0)"/>
      <use xlink:href="#ArialMT-6d" transform="translate(339.013672 0)"/>
      <use xlink:href="#ArialMT-20" transform="translate(422.314453 0)"/>
      <use xlink:href="#ArialMT-53" transform="translate(450.097656 0)"/>
      <use xlink:href="#ArialMT-63" transform="translate(516.796875 0)"/>
      <use xlink:href="#ArialMT-6f" transform="translate(566.796875 0)"/>
      <use xlink:href="#ArialMT-72" transform="translate(622.412109 0)"/>
      <use xlink:href="#ArialMT-65" transform="translate(655.712891 0)"/>
     </g>
    </g>
   </g>
   <g id="patch_3">
    <path d="M 75.6225 288.9 
L 75.6225 38.16 
" style="fill: none; stroke: #000000; stroke-width: 3; stroke-linejoin: miter; stroke-linecap: square"/>
   </g>
   <g id="patch_4">
    <path d="M 263.27 288.9 
L 263.27 38.16 
" style="fill: none; stroke: #000000; stroke-width: 3; stroke-linejoin: miter; stroke-linecap: square"/>
   </g>
   <g id="patch_5">
    <path d="M 75.6225 288.9 
L 263.27 288.9 
" style="fill: none; stroke: #000000; stroke-width: 3; stroke-linejoin: miter; stroke-linecap: square"/>
   </g>
   <g id="patch_6">
    <path d="M 75.6225 38.16 
L 263.27 38.16 
" style="fill: none; stroke: #000000; stroke-width: 3; stroke-linejoin: miter; stroke-linecap: square"/>
   </g>
   <g id="LineCollection_1">
    <path d="M 81.141544 284.884705 
L 81.141544 277.063916 
" clip-path="url(#p7371bc2bad)" style="fill: none; stroke: #000000; stroke-width: 1.5"/>
    <path d="M 103.217721 288.943606 
L 103.217721 258.114325 
" clip-path="url(#p7371bc2bad)" style="fill: none; stroke: #000000; stroke-width: 1.5"/>
    <path d="M 125.293897 287.438806 
L 125.293897 212.545332 
" clip-path="url(#p7371bc2bad)" style="fill: none; stroke: #000000; stroke-width: 1.5"/>
    <path d="M 147.370074 292.904456 
L 147.370074 167.691406 
" clip-path="url(#p7371bc2bad)" style="fill: none; stroke: #000000; stroke-width: 1.5"/>
    <path d="M 169.44625 284.654089 
L 169.44625 170.177636 
" clip-path="url(#p7371bc2bad)" style="fill: none; stroke: #000000; stroke-width: 1.5"/>
    <path d="M 191.522426 275.29227 
L 191.522426 174.736006 
" clip-path="url(#p7371bc2bad)" style="fill: none; stroke: #000000; stroke-width: 1.5"/>
    <path d="M 213.598603 291.427268 
L 213.598603 207.59618 
" clip-path="url(#p7371bc2bad)" style="fill: none; stroke: #000000; stroke-width: 1.5"/>
    <path d="M 235.674779 283.754048 
L 235.674779 240.247331 
" clip-path="url(#p7371bc2bad)" style="fill: none; stroke: #000000; stroke-width: 1.5"/>
   </g>
   <g id="line2d_6">
    <defs>
     <path id="me8e20cb76c" d="M 5 0 
L -5 -0 
" style="stroke: #000000"/>
    </defs>
    <g clip-path="url(#p7371bc2bad)">
     <use xlink:href="#me8e20cb76c" x="81.141544" y="284.884705" style="stroke: #000000"/>
     <use xlink:href="#me8e20cb76c" x="103.217721" y="288.943606" style="stroke: #000000"/>
     <use xlink:href="#me8e20cb76c" x="125.293897" y="287.438806" style="stroke: #000000"/>
     <use xlink:href="#me8e20cb76c" x="147.370074" y="292.904456" style="stroke: #000000"/>
     <use xlink:href="#me8e20cb76c" x="169.44625" y="284.654089" style="stroke: #000000"/>
     <use xlink:href="#me8e20cb76c" x="191.522426" y="275.29227" style="stroke: #000000"/>
     <use xlink:href="#me8e20cb76c" x="213.598603" y="291.427268" style="stroke: #000000"/>
     <use xlink:href="#me8e20cb76c" x="235.674779" y="283.754048" style="stroke: #000000"/>
    </g>
   </g>
   <g id="line2d_7">
    <g clip-path="url(#p7371bc2bad)">
     <use xlink:href="#me8e20cb76c" x="81.141544" y="277.063916" style="stroke: #000000"/>
     <use xlink:href="#me8e20cb76c" x="103.217721" y="258.114325" style="stroke: #000000"/>
     <use xlink:href="#me8e20cb76c" x="125.293897" y="212.545332" style="stroke: #000000"/>
     <use xlink:href="#me8e20cb76c" x="147.370074" y="167.691406" style="stroke: #000000"/>
     <use xlink:href="#me8e20cb76c" x="169.44625" y="170.177636" style="stroke: #000000"/>
     <use xlink:href="#me8e20cb76c" x="191.522426" y="174.736006" style="stroke: #000000"/>
     <use xlink:href="#me8e20cb76c" x="213.598603" y="207.59618" style="stroke: #000000"/>
     <use xlink:href="#me8e20cb76c" x="235.674779" y="240.247331" style="stroke: #000000"/>
    </g>
   </g>
   <g id="PathCollection_1">
    <defs>
     <path id="me6aa0e4bef" d="M -4.330127 4.330127 
L 4.330127 4.330127 
L 4.330127 -4.330127 
L -4.330127 -4.330127 
z
" style="stroke: #000000"/>
    </defs>
    <g clip-path="url(#p7371bc2bad)">
     <use xlink:href="#me6aa0e4bef" x="81.141544" y="280.97431" style="stroke: #000000"/>
     <use xlink:href="#me6aa0e4bef" x="103.217721" y="273.528966" style="stroke: #000000"/>
     <use xlink:href="#me6aa0e4bef" x="125.293897" y="249.992069" style="stroke: #000000"/>
     <use xlink:href="#me6aa0e4bef" x="147.370074" y="230.297931" style="stroke: #000000"/>
     <use xlink:href="#me6aa0e4bef" x="169.44625" y="227.415862" style="stroke: #000000"/>
     <use xlink:href="#me6aa0e4bef" x="191.522426" y="225.014138" style="stroke: #000000"/>
     <use xlink:href="#me6aa0e4bef" x="213.598603" y="249.511724" style="stroke: #000000"/>
     <use xlink:href="#me6aa0e4bef" x="235.674779" y="262.00069" style="stroke: #000000"/>
    </g>
   </g>
  </g>
  <g id="axes_2">
   <g id="matplotlib.axis_3">
    <g id="ytick_6">
     <g id="line2d_8">
      <defs>
       <path id="m7304938e22" d="M 0 0 
L 6 0 
" style="stroke: #000000; stroke-width: 1.25"/>
      </defs>
      <g>
       <use xlink:href="#m7304938e22" x="263.27" y="283.44913" style="stroke: #000000; stroke-width: 1.25"/>
      </g>
     </g>
     <g id="text_13">
      <!-- 0e+0 -->
      <g transform="translate(272.77 292.038505) scale(0.24 -0.24)">
       <defs>
        <path id="ArialMT-2b" d="M 1603 741 
L 1603 1997 
L 356 1997 
L 356 2522 
L 1603 2522 
L 1603 3769 
L 2134 3769 
L 2134 2522 
L 3381 2522 
L 3381 1997 
L 2134 1997 
L 2134 741 
L 1603 741 
z
" transform="scale(0.015625)"/>
       </defs>
       <use xlink:href="#ArialMT-30"/>
       <use xlink:href="#ArialMT-65" transform="translate(55.615234 0)"/>
       <use xlink:href="#ArialMT-2b" transform="translate(111.230469 0)"/>
       <use xlink:href="#ArialMT-30" transform="translate(169.628906 0)"/>
      </g>
     </g>
    </g>
    <g id="ytick_7">
     <g id="line2d_9">
      <g>
       <use xlink:href="#m7304938e22" x="263.27" y="228.940435" style="stroke: #000000; stroke-width: 1.25"/>
      </g>
     </g>
     <g id="text_14">
      <!-- 2e+7 -->
      <g transform="translate(272.77 237.52981) scale(0.24 -0.24)">
       <defs>
        <path id="ArialMT-37" d="M 303 3981 
L 303 4522 
L 3269 4522 
L 3269 4084 
Q 2831 3619 2401 2847 
Q 1972 2075 1738 1259 
Q 1569 684 1522 0 
L 944 0 
Q 953 541 1156 1306 
Q 1359 2072 1739 2783 
Q 2119 3494 2547 3981 
L 303 3981 
z
" transform="scale(0.015625)"/>
       </defs>
       <use xlink:href="#ArialMT-32"/>
       <use xlink:href="#ArialMT-65" transform="translate(55.615234 0)"/>
       <use xlink:href="#ArialMT-2b" transform="translate(111.230469 0)"/>
       <use xlink:href="#ArialMT-37" transform="translate(169.628906 0)"/>
      </g>
     </g>
    </g>
    <g id="ytick_8">
     <g id="line2d_10">
      <g>
       <use xlink:href="#m7304938e22" x="263.27" y="174.431739" style="stroke: #000000; stroke-width: 1.25"/>
      </g>
     </g>
     <g id="text_15">
      <!-- 4e+7 -->
      <g transform="translate(272.77 183.021114) scale(0.24 -0.24)">
       <use xlink:href="#ArialMT-34"/>
       <use xlink:href="#ArialMT-65" transform="translate(55.615234 0)"/>
       <use xlink:href="#ArialMT-2b" transform="translate(111.230469 0)"/>
       <use xlink:href="#ArialMT-37" transform="translate(169.628906 0)"/>
      </g>
     </g>
    </g>
    <g id="ytick_9">
     <g id="line2d_11">
      <g>
       <use xlink:href="#m7304938e22" x="263.27" y="119.923043" style="stroke: #000000; stroke-width: 1.25"/>
      </g>
     </g>
     <g id="text_16">
      <!-- 6e+7 -->
      <g transform="translate(272.77 128.512418) scale(0.24 -0.24)">
       <use xlink:href="#ArialMT-36"/>
       <use xlink:href="#ArialMT-65" transform="translate(55.615234 0)"/>
       <use xlink:href="#ArialMT-2b" transform="translate(111.230469 0)"/>
       <use xlink:href="#ArialMT-37" transform="translate(169.628906 0)"/>
      </g>
     </g>
    </g>
    <g id="ytick_10">
     <g id="line2d_12">
      <g>
       <use xlink:href="#m7304938e22" x="263.27" y="65.414348" style="stroke: #000000; stroke-width: 1.25"/>
      </g>
     </g>
     <g id="text_17">
      <!-- 8e+7 -->
      <g transform="translate(272.77 74.003723) scale(0.24 -0.24)">
       <use xlink:href="#ArialMT-38"/>
       <use xlink:href="#ArialMT-65" transform="translate(55.615234 0)"/>
       <use xlink:href="#ArialMT-2b" transform="translate(111.230469 0)"/>
       <use xlink:href="#ArialMT-37" transform="translate(169.628906 0)"/>
      </g>
     </g>
    </g>
    <g id="text_18">
     <!-- CAUC Infected Cells -->
     <g transform="translate(329.6475 53.49375) rotate(-270) scale(0.24 -0.24)">
      <defs>
       <path id="ArialMT-43" d="M 3763 1606 
L 4369 1453 
Q 4178 706 3683 314 
Q 3188 -78 2472 -78 
Q 1731 -78 1267 223 
Q 803 525 561 1097 
Q 319 1669 319 2325 
Q 319 3041 592 3573 
Q 866 4106 1370 4382 
Q 1875 4659 2481 4659 
Q 3169 4659 3637 4309 
Q 4106 3959 4291 3325 
L 3694 3184 
Q 3534 3684 3231 3912 
Q 2928 4141 2469 4141 
Q 1941 4141 1586 3887 
Q 1231 3634 1087 3207 
Q 944 2781 944 2328 
Q 944 1744 1114 1308 
Q 1284 872 1643 656 
Q 2003 441 2422 441 
Q 2931 441 3284 734 
Q 3638 1028 3763 1606 
z
" transform="scale(0.015625)"/>
       <path id="ArialMT-41" d="M -9 0 
L 1750 4581 
L 2403 4581 
L 4278 0 
L 3588 0 
L 3053 1388 
L 1138 1388 
L 634 0 
L -9 0 
z
M 1313 1881 
L 2866 1881 
L 2388 3150 
Q 2169 3728 2063 4100 
Q 1975 3659 1816 3225 
L 1313 1881 
z
" transform="scale(0.015625)"/>
       <path id="ArialMT-55" d="M 3500 4581 
L 4106 4581 
L 4106 1934 
Q 4106 1244 3950 837 
Q 3794 431 3386 176 
Q 2978 -78 2316 -78 
Q 1672 -78 1262 144 
Q 853 366 678 786 
Q 503 1206 503 1934 
L 503 4581 
L 1109 4581 
L 1109 1938 
Q 1109 1341 1220 1058 
Q 1331 775 1601 622 
Q 1872 469 2263 469 
Q 2931 469 3215 772 
Q 3500 1075 3500 1938 
L 3500 4581 
z
" transform="scale(0.015625)"/>
       <path id="ArialMT-49" d="M 597 0 
L 597 4581 
L 1203 4581 
L 1203 0 
L 597 0 
z
" transform="scale(0.015625)"/>
       <path id="ArialMT-6e" d="M 422 0 
L 422 3319 
L 928 3319 
L 928 2847 
Q 1294 3394 1984 3394 
Q 2284 3394 2536 3286 
Q 2788 3178 2913 3003 
Q 3038 2828 3088 2588 
Q 3119 2431 3119 2041 
L 3119 0 
L 2556 0 
L 2556 2019 
Q 2556 2363 2490 2533 
Q 2425 2703 2258 2804 
Q 2091 2906 1866 2906 
Q 1506 2906 1245 2678 
Q 984 2450 984 1813 
L 984 0 
L 422 0 
z
" transform="scale(0.015625)"/>
       <path id="ArialMT-66" d="M 556 0 
L 556 2881 
L 59 2881 
L 59 3319 
L 556 3319 
L 556 3672 
Q 556 4006 616 4169 
Q 697 4388 901 4523 
Q 1106 4659 1475 4659 
Q 1713 4659 2000 4603 
L 1916 4113 
Q 1741 4144 1584 4144 
Q 1328 4144 1222 4034 
Q 1116 3925 1116 3625 
L 1116 3319 
L 1763 3319 
L 1763 2881 
L 1116 2881 
L 1116 0 
L 556 0 
z
" transform="scale(0.015625)"/>
       <path id="ArialMT-6c" d="M 409 0 
L 409 4581 
L 972 4581 
L 972 0 
L 409 0 
z
" transform="scale(0.015625)"/>
       <path id="ArialMT-73" d="M 197 991 
L 753 1078 
Q 800 744 1014 566 
Q 1228 388 1613 388 
Q 2000 388 2187 545 
Q 2375 703 2375 916 
Q 2375 1106 2209 1216 
Q 2094 1291 1634 1406 
Q 1016 1563 777 1677 
Q 538 1791 414 1992 
Q 291 2194 291 2438 
Q 291 2659 392 2848 
Q 494 3038 669 3163 
Q 800 3259 1026 3326 
Q 1253 3394 1513 3394 
Q 1903 3394 2198 3281 
Q 2494 3169 2634 2976 
Q 2775 2784 2828 2463 
L 2278 2388 
Q 2241 2644 2061 2787 
Q 1881 2931 1553 2931 
Q 1166 2931 1000 2803 
Q 834 2675 834 2503 
Q 834 2394 903 2306 
Q 972 2216 1119 2156 
Q 1203 2125 1616 2013 
Q 2213 1853 2448 1751 
Q 2684 1650 2818 1456 
Q 2953 1263 2953 975 
Q 2953 694 2789 445 
Q 2625 197 2315 61 
Q 2006 -75 1616 -75 
Q 969 -75 630 194 
Q 291 463 197 991 
z
" transform="scale(0.015625)"/>
      </defs>
      <use xlink:href="#ArialMT-43"/>
      <use xlink:href="#ArialMT-41" transform="translate(72.216797 0)"/>
      <use xlink:href="#ArialMT-55" transform="translate(138.916016 0)"/>
      <use xlink:href="#ArialMT-43" transform="translate(211.132812 0)"/>
      <use xlink:href="#ArialMT-20" transform="translate(283.349609 0)"/>
      <use xlink:href="#ArialMT-49" transform="translate(311.132812 0)"/>
      <use xlink:href="#ArialMT-6e" transform="translate(338.916016 0)"/>
      <use xlink:href="#ArialMT-66" transform="translate(394.53125 0)"/>
      <use xlink:href="#ArialMT-65" transform="translate(422.314453 0)"/>
      <use xlink:href="#ArialMT-63" transform="translate(477.929688 0)"/>
      <use xlink:href="#ArialMT-74" transform="translate(527.929688 0)"/>
      <use xlink:href="#ArialMT-65" transform="translate(555.712891 0)"/>
      <use xlink:href="#ArialMT-64" transform="translate(611.328125 0)"/>
      <use xlink:href="#ArialMT-20" transform="translate(666.943359 0)"/>
      <use xlink:href="#ArialMT-43" transform="translate(694.726562 0)"/>
      <use xlink:href="#ArialMT-65" transform="translate(766.943359 0)"/>
      <use xlink:href="#ArialMT-6c" transform="translate(822.558594 0)"/>
      <use xlink:href="#ArialMT-6c" transform="translate(844.775391 0)"/>
      <use xlink:href="#ArialMT-73" transform="translate(866.992188 0)"/>
     </g>
    </g>
   </g>
   <g id="FillBetweenPolyCollection_1">
    <defs>
     <path id="m50ca1e1b2c" d="M 81.141544 -76.55087 
L 81.141544 -76.55087 
L 81.141886 -76.55087 
L 81.1453 -76.55087 
L 81.179449 -76.55087 
L 81.28428 -76.55087 
L 81.38911 -76.550871 
L 81.656987 -76.550872 
L 81.944877 -76.550873 
L 82.580223 -76.550877 
L 83.215568 -76.55088 
L 84.200575 -76.550887 
L 85.004573 -76.550895 
L 86.202533 -76.550911 
L 87.060347 -76.550926 
L 88.403211 -76.550963 
L 89.254858 -76.550993 
L 90.441526 -76.55106 
L 91.325159 -76.551121 
L 92.618379 -76.551266 
L 93.490228 -76.551398 
L 94.661464 -76.551647 
L 95.553712 -76.551944 
L 96.810624 -76.552484 
L 97.688208 -76.553071 
L 98.843481 -76.554026 
L 99.73485 -76.555124 
L 100.96434 -76.557343 
L 101.840084 -76.55954 
L 102.984359 -76.563796 
L 103.871511 -76.567902 
L 105.088519 -76.576736 
L 105.96612 -76.58506 
L 107.258093 -76.603476 
L 108.118517 -76.622133 
L 109.297341 -76.654902 
L 110.194436 -76.692703 
L 111.488444 -76.766091 
L 112.399552 -76.842825 
L 113.654303 -76.984135 
L 114.59329 -77.137787 
L 115.969632 -77.477176 
L 116.94413 -77.800614 
L 118.210981 -78.40927 
L 119.171076 -78.993615 
L 120.352257 -79.979984 
L 121.323202 -80.948831 
L 122.369899 -82.240031 
L 123.416597 -83.79462 
L 124.463294 -85.474096 
L 125.345102 -87.037914 
L 126.23076 -88.715145 
L 126.911817 -90.008639 
L 127.602355 -91.341056 
L 128.198775 -92.502015 
L 128.815965 -93.687375 
L 129.326517 -94.662221 
L 129.878657 -95.716476 
L 130.331969 -96.556749 
L 131.547686 -98.757579 
L 132.137156 -99.785423 
L 133.572784 -102.192849 
L 134.289417 -103.355667 
L 135.940967 -105.750625 
L 136.815176 -106.79181 
L 138.880326 -108.645842 
L 140.021369 -109.500298 
L 142.228987 -110.969864 
L 143.80046 -111.856208 
L 146.008078 -112.915179 
L 148.215695 -113.801907 
L 150.423313 -114.5365 
L 152.63093 -115.145859 
L 154.838548 -115.648875 
L 157.046166 -116.063424 
L 159.253783 -116.404512 
L 161.461401 -116.658001 
L 163.669019 -116.859505 
L 165.876636 -117.023004 
L 168.084254 -117.155147 
L 170.291872 -117.261461 
L 172.499489 -117.34654 
L 174.707107 -117.4142 
L 176.914725 -117.467613 
L 179.122342 -117.509417 
L 181.32996 -117.541807 
L 183.537578 -117.566613 
L 185.745195 -117.585363 
L 187.952813 -117.599331 
L 190.16043 -117.609576 
L 192.368048 -117.023909 
L 194.575666 -113.761998 
L 196.783283 -110.497678 
L 198.990901 -107.231505 
L 201.198519 -103.963944 
L 203.406136 -100.695379 
L 205.613754 -97.426114 
L 207.821372 -94.156381 
L 210.028989 -91.157102 
L 212.236607 -89.114909 
L 214.444225 -87.479826 
L 216.651842 -85.844672 
L 218.85946 -84.209475 
L 221.067078 -82.574253 
L 223.274695 -80.939015 
L 225.482313 -79.303768 
L 227.68993 -77.696464 
L 229.897548 -76.55087 
L 232.105166 -76.55087 
L 234.312783 -76.55087 
L 236.520401 -76.55087 
L 238.728019 -76.55087 
L 240.935636 -76.55087 
L 243.143254 -76.55087 
L 245.350872 -76.55087 
L 247.558489 -76.55087 
L 249.766107 -76.55087 
L 251.973725 -76.55087 
L 254.181342 -76.55087 
L 256.38896 -76.55087 
L 257.750956 -76.55087 
L 257.750956 -105.955616 
L 257.750956 -105.955616 
L 256.38896 -106.964495 
L 254.181342 -108.599756 
L 251.973725 -110.235017 
L 249.766107 -111.870277 
L 247.558489 -113.505538 
L 245.350872 -115.140799 
L 243.143254 -116.77606 
L 240.935636 -118.411321 
L 238.728019 -120.046582 
L 236.520401 -121.681843 
L 234.312783 -123.317104 
L 232.105166 -124.952364 
L 229.897548 -126.587625 
L 227.68993 -128.222886 
L 225.482313 -129.858147 
L 223.274695 -131.493408 
L 221.067078 -133.128669 
L 218.85946 -134.76393 
L 216.651842 -136.399191 
L 214.444225 -138.034451 
L 212.236607 -139.777595 
L 210.028989 -142.158137 
L 207.821372 -145.37614 
L 205.613754 -148.564566 
L 203.406136 -151.721063 
L 201.198519 -154.843209 
L 198.990901 -157.928473 
L 196.783283 -160.97421 
L 194.575666 -163.97765 
L 192.368048 -166.251613 
L 190.16043 -165.891148 
L 187.952813 -165.479365 
L 185.745195 -165.013031 
L 183.537578 -164.488816 
L 181.32996 -163.903299 
L 179.122342 -163.25298 
L 176.914725 -162.534288 
L 174.707107 -161.743593 
L 172.499489 -160.877205 
L 170.291872 -159.931386 
L 168.084254 -158.902336 
L 165.876636 -157.786189 
L 163.669019 -156.57899 
L 161.461401 -155.276667 
L 159.253783 -153.874992 
L 157.046166 -152.369531 
L 154.838548 -150.755587 
L 152.63093 -149.028142 
L 150.423313 -147.182855 
L 148.215695 -145.209875 
L 146.008078 -143.116956 
L 143.80046 -140.872456 
L 142.228987 -139.190234 
L 140.021369 -136.705071 
L 138.880326 -135.339363 
L 136.815176 -132.800987 
L 135.940967 -131.656546 
L 134.289417 -129.465973 
L 133.572784 -128.463398 
L 132.137156 -126.438756 
L 131.547686 -125.564326 
L 130.331969 -123.7524 
L 129.878657 -123.062292 
L 129.326517 -122.204291 
L 128.815965 -121.399895 
L 128.198775 -120.412461 
L 127.602355 -119.442555 
L 126.911817 -118.299824 
L 126.23076 -117.208342 
L 125.345102 -115.764303 
L 124.463294 -114.301913 
L 123.416597 -113.076971 
L 122.369899 -111.822766 
L 121.323202 -110.512809 
L 120.352257 -109.222332 
L 119.171076 -107.566625 
L 118.210981 -106.149233 
L 116.94413 -104.167939 
L 115.969632 -102.563948 
L 114.59329 -100.170068 
L 113.654303 -98.45029 
L 112.399552 -96.046999 
L 111.488444 -94.220849 
L 110.194436 -91.522936 
L 109.297341 -89.581912 
L 108.118517 -86.975484 
L 107.258093 -85.081496 
L 105.96612 -82.361853 
L 105.088519 -80.796172 
L 103.871511 -79.075709 
L 102.984359 -78.174985 
L 101.840084 -77.460749 
L 100.96434 -77.100286 
L 99.73485 -76.818959 
L 98.843481 -76.712709 
L 97.688208 -76.63289 
L 96.810624 -76.600626 
L 95.553712 -76.573958 
L 94.661464 -76.56435 
L 93.490228 -76.55782 
L 92.618379 -76.554946 
L 91.325159 -76.552744 
L 90.441526 -76.551981 
L 89.254858 -76.551419 
L 88.403211 -76.551208 
L 87.060347 -76.551019 
L 86.202533 -76.550956 
L 85.004573 -76.550912 
L 84.200575 -76.550894 
L 83.215568 -76.550882 
L 82.580223 -76.550877 
L 81.944877 -76.550873 
L 81.656987 -76.550872 
L 81.38911 -76.550871 
L 81.28428 -76.55087 
L 81.179449 -76.55087 
L 81.1453 -76.55087 
L 81.141886 -76.55087 
L 81.141544 -76.55087 
z
" style="stroke: #000000; stroke-opacity: 0.2"/>
    </defs>
    <g clip-path="url(#p7371bc2bad)">
     <use xlink:href="#m50ca1e1b2c" x="0" y="360" style="fill-opacity: 0.2; stroke: #000000; stroke-opacity: 0.2"/>
    </g>
   </g>
   <g id="patch_7">
    <path d="M 75.6225 288.9 
L 75.6225 38.16 
" style="fill: none; stroke: #000000; stroke-width: 3; stroke-linejoin: miter; stroke-linecap: square"/>
   </g>
   <g id="patch_8">
    <path d="M 263.27 288.9 
L 263.27 38.16 
" style="fill: none; stroke: #000000; stroke-width: 3; stroke-linejoin: miter; stroke-linecap: square"/>
   </g>
   <g id="patch_9">
    <path d="M 75.6225 288.9 
L 263.27 288.9 
" style="fill: none; stroke: #000000; stroke-width: 3; stroke-linejoin: miter; stroke-linecap: square"/>
   </g>
   <g id="patch_10">
    <path d="M 75.6225 38.16 
L 263.27 38.16 
" style="fill: none; stroke: #000000; stroke-width: 3; stroke-linejoin: miter; stroke-linecap: square"/>
   </g>
   <g id="line2d_13">
    <path d="M 81.141544 283.44913 
L 81.141886 283.44913 
L 81.1453 283.44913 
L 81.179449 283.44913 
L 81.28428 283.44913 
L 81.38911 283.449129 
L 81.656987 283.449128 
L 81.944877 283.449127 
L 82.580223 283.449123 
L 83.215568 283.449119 
L 84.200575 283.449111 
L 85.004573 283.449101 
L 86.202533 283.449077 
L 87.060347 283.449051 
L 88.403211 283.448985 
L 89.254858 283.448918 
L 90.441526 283.448771 
L 91.325159 283.448602 
L 92.618379 283.448195 
L 93.490228 283.447765 
L 94.661464 283.446851 
L 95.553712 283.445773 
L 96.810624 283.443303 
L 97.688208 283.44061 
L 98.843481 283.435019 
L 99.73485 283.428374 
L 100.96434 283.413597 
L 101.840084 283.397267 
L 102.984359 283.363841 
L 103.871511 283.324197 
L 105.088519 283.237593 
L 105.96612 283.141836 
L 107.258093 282.916479 
L 108.118517 282.688673 
L 109.297341 282.220571 
L 110.194436 281.70505 
L 111.488444 280.630696 
L 112.399552 279.601491 
L 113.654303 277.790117 
L 114.59329 276.161575 
L 115.969632 273.487006 
L 116.94413 271.4744 
L 118.210981 268.839447 
L 119.171076 266.875511 
L 120.352257 264.537606 
L 121.323202 262.692236 
L 122.369899 260.786268 
L 123.416597 258.968541 
L 124.463294 257.238953 
L 125.345102 255.849382 
L 126.23076 254.514667 
L 126.911817 253.52897 
L 127.602355 252.564802 
L 128.198775 251.760002 
L 128.815965 250.95382 
L 129.326517 250.306984 
L 129.878657 249.627422 
L 130.331969 249.084696 
L 131.547686 247.694325 
L 132.137156 247.053545 
L 133.572784 245.578699 
L 134.289417 244.886571 
L 135.940967 243.395031 
L 136.815176 242.66164 
L 138.880326 241.069132 
L 140.021369 240.269169 
L 142.228987 238.865186 
L 143.80046 237.972897 
L 146.008078 236.852326 
L 148.215695 235.871381 
L 150.423313 235.013537 
L 152.63093 234.264178 
L 154.838548 233.6104 
L 157.046166 233.040819 
L 159.253783 232.545398 
L 161.461401 232.115282 
L 163.669019 231.742656 
L 165.876636 231.420613 
L 168.084254 231.143048 
L 170.291872 230.904559 
L 172.499489 230.700366 
L 174.707107 230.526234 
L 176.914725 230.378414 
L 179.122342 230.253585 
L 181.32996 230.148805 
L 183.537578 230.061466 
L 185.745195 229.989254 
L 187.952813 229.930114 
L 190.16043 229.882217 
L 192.368048 229.843928 
L 194.575666 233.084309 
L 196.783283 236.33152 
L 198.990901 239.584376 
L 201.198519 242.84181 
L 203.406136 246.102867 
L 205.613754 249.366712 
L 207.821372 252.632631 
L 210.028989 255.900045 
L 212.236607 258.075491 
L 214.444225 259.709396 
L 216.651842 261.343772 
L 218.85946 262.978457 
L 221.067078 264.613344 
L 223.274695 266.248362 
L 225.482313 267.883464 
L 227.68993 269.518621 
L 229.897548 271.153814 
L 232.105166 272.78903 
L 234.312783 274.424261 
L 236.520401 276.059502 
L 238.728019 277.694749 
L 240.935636 279.330001 
L 243.143254 280.965256 
L 245.350872 282.600513 
L 247.558489 283.44913 
L 249.766107 283.44913 
L 251.973725 283.44913 
L 254.181342 283.44913 
L 256.38896 283.44913 
L 257.750956 283.44913 
" clip-path="url(#p7371bc2bad)" style="fill: none; stroke: #000000; stroke-width: 1.5; stroke-linecap: round"/>
   </g>
   <g id="text_19">
    <g id="patch_11">
     <path d="M 160.947 72.987625 
L 257.887625 72.987625 
L 257.887625 46.697 
L 160.947 46.697 
z
" style="fill: #ffffff; opacity: 0.5; stroke: #ffffff; stroke-linejoin: miter"/>
    </g>
    <!-- Scale: 0.5 -->
    <g style="fill: #262626" transform="translate(164.947 65.012625) scale(0.2 -0.2)">
     <defs>
      <path id="ArialMT-61" d="M 2588 409 
Q 2275 144 1986 34 
Q 1697 -75 1366 -75 
Q 819 -75 525 192 
Q 231 459 231 875 
Q 231 1119 342 1320 
Q 453 1522 633 1644 
Q 813 1766 1038 1828 
Q 1203 1872 1538 1913 
Q 2219 1994 2541 2106 
Q 2544 2222 2544 2253 
Q 2544 2597 2384 2738 
Q 2169 2928 1744 2928 
Q 1347 2928 1158 2789 
Q 969 2650 878 2297 
L 328 2372 
Q 403 2725 575 2942 
Q 747 3159 1072 3276 
Q 1397 3394 1825 3394 
Q 2250 3394 2515 3294 
Q 2781 3194 2906 3042 
Q 3031 2891 3081 2659 
Q 3109 2516 3109 2141 
L 3109 1391 
Q 3109 606 3145 398 
Q 3181 191 3288 0 
L 2700 0 
Q 2613 175 2588 409 
z
M 2541 1666 
Q 2234 1541 1622 1453 
Q 1275 1403 1131 1340 
Q 988 1278 909 1158 
Q 831 1038 831 891 
Q 831 666 1001 516 
Q 1172 366 1500 366 
Q 1825 366 2078 508 
Q 2331 650 2450 897 
Q 2541 1088 2541 1459 
L 2541 1666 
z
" transform="scale(0.015625)"/>
      <path id="ArialMT-3a" d="M 578 2678 
L 578 3319 
L 1219 3319 
L 1219 2678 
L 578 2678 
z
M 578 0 
L 578 641 
L 1219 641 
L 1219 0 
L 578 0 
z
" transform="scale(0.015625)"/>
      <path id="ArialMT-2e" d="M 581 0 
L 581 641 
L 1222 641 
L 1222 0 
L 581 0 
z
" transform="scale(0.015625)"/>
     </defs>
     <use xlink:href="#ArialMT-53"/>
     <use xlink:href="#ArialMT-63" transform="translate(66.699219 0)"/>
     <use xlink:href="#ArialMT-61" transform="translate(116.699219 0)"/>
     <use xlink:href="#ArialMT-6c" transform="translate(172.314453 0)"/>
     <use xlink:href="#ArialMT-65" transform="translate(194.53125 0)"/>
     <use xlink:href="#ArialMT-3a" transform="translate(250.146484 0)"/>
     <use xlink:href="#ArialMT-20" transform="translate(277.929688 0)"/>
     <use xlink:href="#ArialMT-30" transform="translate(305.712891 0)"/>
     <use xlink:href="#ArialMT-2e" transform="translate(361.328125 0)"/>
     <use xlink:href="#ArialMT-35" transform="translate(389.111328 0)"/>
    </g>
   </g>
  </g>
 </g>
 <defs>
  <clipPath id="p7371bc2bad">
   <rect x="75.6225" y="38.16" width="187.6475" height="250.74"/>
  </clipPath>
 </defs>
</svg>
