<?xml version="1.0" encoding="utf-8" standalone="no"?>
<!DOCTYPE svg PUBLIC "-//W3C//DTD SVG 1.1//EN"
  "http://www.w3.org/Graphics/SVG/1.1/DTD/svg11.dtd">
<svg xmlns:xlink="http://www.w3.org/1999/xlink" width="360pt" height="360pt" viewBox="0 0 360 360" xmlns="http://www.w3.org/2000/svg" version="1.1">
 <metadata>
  <rdf:RDF xmlns:dc="http://purl.org/dc/elements/1.1/" xmlns:cc="http://creativecommons.org/ns#" xmlns:rdf="http://www.w3.org/1999/02/22-rdf-syntax-ns#">
   <cc:Work>
    <dc:type rdf:resource="http://purl.org/dc/dcmitype/StillImage"/>
    <dc:date>2025-02-05T14:15:59.246672</dc:date>
    <dc:format>image/svg+xml</dc:format>
    <dc:creator>
     <cc:Agent>
      <dc:title>Matplotlib v3.10.0, https://matplotlib.org/</dc:title>
     </cc:Agent>
    </dc:creator>
   </cc:Work>
  </rdf:RDF>
 </metadata>
 <defs>
  <style type="text/css">*{stroke-linejoin: round; stroke-linecap: butt}</style>
 </defs>
 <g id="figure_1">
  <g id="patch_1">
   <path d="M 0 360 
L 360 360 
L 360 0 
L 0 0 
L 0 360 
z
" style="fill: none"/>
  </g>
  <g id="axes_1">
   <g id="patch_2">
    <path d="M 74.9225 292.12 
L 306.81 292.12 
L 306.81 59.28 
L 74.9225 59.28 
L 74.9225 292.12 
z
" style="fill: none"/>
   </g>
   <g id="matplotlib.axis_1">
    <g id="xtick_1">
     <g id="line2d_1">
      <defs>
       <path id="me2fca70e2d" d="M 0 0 
L 0 3.5 
" style="stroke: #000000; stroke-width: 0.8"/>
      </defs>
      <g>
       <use xlink:href="#me2fca70e2d" x="81.742721" y="292.12" style="stroke: #000000; stroke-width: 0.8"/>
      </g>
     </g>
     <g id="text_1">
      <!-- 0 -->
      <g transform="translate(74.107721 317.35625) scale(0.24 -0.24)">
       <defs>
        <path id="DejaVuSans-30" d="M 2034 4250 
Q 1547 4250 1301 3770 
Q 1056 3291 1056 2328 
Q 1056 1369 1301 889 
Q 1547 409 2034 409 
Q 2525 409 2770 889 
Q 3016 1369 3016 2328 
Q 3016 3291 2770 3770 
Q 2525 4250 2034 4250 
z
M 2034 4750 
Q 2819 4750 3233 4129 
Q 3647 3509 3647 2328 
Q 3647 1150 3233 529 
Q 2819 -91 2034 -91 
Q 1250 -91 836 529 
Q 422 1150 422 2328 
Q 422 3509 836 4129 
Q 1250 4750 2034 4750 
z
" transform="scale(0.015625)"/>
       </defs>
       <use xlink:href="#DejaVuSans-30"/>
      </g>
     </g>
    </g>
    <g id="xtick_2">
     <g id="line2d_2">
      <g>
       <use xlink:href="#me2fca70e2d" x="136.304485" y="292.12" style="stroke: #000000; stroke-width: 0.8"/>
      </g>
     </g>
     <g id="text_2">
      <!-- 2 -->
      <g transform="translate(128.669485 317.35625) scale(0.24 -0.24)">
       <defs>
        <path id="DejaVuSans-32" d="M 1228 531 
L 3431 531 
L 3431 0 
L 469 0 
L 469 531 
Q 828 903 1448 1529 
Q 2069 2156 2228 2338 
Q 2531 2678 2651 2914 
Q 2772 3150 2772 3378 
Q 2772 3750 2511 3984 
Q 2250 4219 1831 4219 
Q 1534 4219 1204 4116 
Q 875 4013 500 3803 
L 500 4441 
Q 881 4594 1212 4672 
Q 1544 4750 1819 4750 
Q 2544 4750 2975 4387 
Q 3406 4025 3406 3419 
Q 3406 3131 3298 2873 
Q 3191 2616 2906 2266 
Q 2828 2175 2409 1742 
Q 1991 1309 1228 531 
z
" transform="scale(0.015625)"/>
       </defs>
       <use xlink:href="#DejaVuSans-32"/>
      </g>
     </g>
    </g>
    <g id="xtick_3">
     <g id="line2d_3">
      <g>
       <use xlink:href="#me2fca70e2d" x="190.86625" y="292.12" style="stroke: #000000; stroke-width: 0.8"/>
      </g>
     </g>
     <g id="text_3">
      <!-- 4 -->
      <g transform="translate(183.23125 317.35625) scale(0.24 -0.24)">
       <defs>
        <path id="DejaVuSans-34" d="M 2419 4116 
L 825 1625 
L 2419 1625 
L 2419 4116 
z
M 2253 4666 
L 3047 4666 
L 3047 1625 
L 3713 1625 
L 3713 1100 
L 3047 1100 
L 3047 0 
L 2419 0 
L 2419 1100 
L 313 1100 
L 313 1709 
L 2253 4666 
z
" transform="scale(0.015625)"/>
       </defs>
       <use xlink:href="#DejaVuSans-34"/>
      </g>
     </g>
    </g>
    <g id="xtick_4">
     <g id="line2d_4">
      <g>
       <use xlink:href="#me2fca70e2d" x="245.428015" y="292.12" style="stroke: #000000; stroke-width: 0.8"/>
      </g>
     </g>
     <g id="text_4">
      <!-- 6 -->
      <g transform="translate(237.793015 317.35625) scale(0.24 -0.24)">
       <defs>
        <path id="DejaVuSans-36" d="M 2113 2584 
Q 1688 2584 1439 2293 
Q 1191 2003 1191 1497 
Q 1191 994 1439 701 
Q 1688 409 2113 409 
Q 2538 409 2786 701 
Q 3034 994 3034 1497 
Q 3034 2003 2786 2293 
Q 2538 2584 2113 2584 
z
M 3366 4563 
L 3366 3988 
Q 3128 4100 2886 4159 
Q 2644 4219 2406 4219 
Q 1781 4219 1451 3797 
Q 1122 3375 1075 2522 
Q 1259 2794 1537 2939 
Q 1816 3084 2150 3084 
Q 2853 3084 3261 2657 
Q 3669 2231 3669 1497 
Q 3669 778 3244 343 
Q 2819 -91 2113 -91 
Q 1303 -91 875 529 
Q 447 1150 447 2328 
Q 447 3434 972 4092 
Q 1497 4750 2381 4750 
Q 2619 4750 2861 4703 
Q 3103 4656 3366 4563 
z
" transform="scale(0.015625)"/>
       </defs>
       <use xlink:href="#DejaVuSans-36"/>
      </g>
     </g>
    </g>
    <g id="xtick_5">
     <g id="line2d_5">
      <g>
       <use xlink:href="#me2fca70e2d" x="299.989779" y="292.12" style="stroke: #000000; stroke-width: 0.8"/>
      </g>
     </g>
     <g id="text_5">
      <!-- 8 -->
      <g transform="translate(292.354779 317.35625) scale(0.24 -0.24)">
       <defs>
        <path id="DejaVuSans-38" d="M 2034 2216 
Q 1584 2216 1326 1975 
Q 1069 1734 1069 1313 
Q 1069 891 1326 650 
Q 1584 409 2034 409 
Q 2484 409 2743 651 
Q 3003 894 3003 1313 
Q 3003 1734 2745 1975 
Q 2488 2216 2034 2216 
z
M 1403 2484 
Q 997 2584 770 2862 
Q 544 3141 544 3541 
Q 544 4100 942 4425 
Q 1341 4750 2034 4750 
Q 2731 4750 3128 4425 
Q 3525 4100 3525 3541 
Q 3525 3141 3298 2862 
Q 3072 2584 2669 2484 
Q 3125 2378 3379 2068 
Q 3634 1759 3634 1313 
Q 3634 634 3220 271 
Q 2806 -91 2034 -91 
Q 1263 -91 848 271 
Q 434 634 434 1313 
Q 434 1759 690 2068 
Q 947 2378 1403 2484 
z
M 1172 3481 
Q 1172 3119 1398 2916 
Q 1625 2713 2034 2713 
Q 2441 2713 2670 2916 
Q 2900 3119 2900 3481 
Q 2900 3844 2670 4047 
Q 2441 4250 2034 4250 
Q 1625 4250 1398 4047 
Q 1172 3844 1172 3481 
z
" transform="scale(0.015625)"/>
       </defs>
       <use xlink:href="#DejaVuSans-38"/>
      </g>
     </g>
    </g>
    <g id="text_6">
     <!-- Time (d) -->
     <g transform="translate(146.65375 343.81875) scale(0.24 -0.24)">
      <defs>
       <path id="ArialMT-54" d="M 1659 0 
L 1659 4041 
L 150 4041 
L 150 4581 
L 3781 4581 
L 3781 4041 
L 2266 4041 
L 2266 0 
L 1659 0 
z
" transform="scale(0.015625)"/>
       <path id="ArialMT-69" d="M 425 3934 
L 425 4581 
L 988 4581 
L 988 3934 
L 425 3934 
z
M 425 0 
L 425 3319 
L 988 3319 
L 988 0 
L 425 0 
z
" transform="scale(0.015625)"/>
       <path id="ArialMT-6d" d="M 422 0 
L 422 3319 
L 925 3319 
L 925 2853 
Q 1081 3097 1340 3245 
Q 1600 3394 1931 3394 
Q 2300 3394 2536 3241 
Q 2772 3088 2869 2813 
Q 3263 3394 3894 3394 
Q 4388 3394 4653 3120 
Q 4919 2847 4919 2278 
L 4919 0 
L 4359 0 
L 4359 2091 
Q 4359 2428 4304 2576 
Q 4250 2725 4106 2815 
Q 3963 2906 3769 2906 
Q 3419 2906 3187 2673 
Q 2956 2441 2956 1928 
L 2956 0 
L 2394 0 
L 2394 2156 
Q 2394 2531 2256 2718 
Q 2119 2906 1806 2906 
Q 1569 2906 1367 2781 
Q 1166 2656 1075 2415 
Q 984 2175 984 1722 
L 984 0 
L 422 0 
z
" transform="scale(0.015625)"/>
       <path id="ArialMT-65" d="M 2694 1069 
L 3275 997 
Q 3138 488 2766 206 
Q 2394 -75 1816 -75 
Q 1088 -75 661 373 
Q 234 822 234 1631 
Q 234 2469 665 2931 
Q 1097 3394 1784 3394 
Q 2450 3394 2872 2941 
Q 3294 2488 3294 1666 
Q 3294 1616 3291 1516 
L 816 1516 
Q 847 969 1125 678 
Q 1403 388 1819 388 
Q 2128 388 2347 550 
Q 2566 713 2694 1069 
z
M 847 1978 
L 2700 1978 
Q 2663 2397 2488 2606 
Q 2219 2931 1791 2931 
Q 1403 2931 1139 2672 
Q 875 2413 847 1978 
z
" transform="scale(0.015625)"/>
       <path id="ArialMT-20" transform="scale(0.015625)"/>
       <path id="ArialMT-28" d="M 1497 -1347 
Q 1031 -759 709 28 
Q 388 816 388 1659 
Q 388 2403 628 3084 
Q 909 3875 1497 4659 
L 1900 4659 
Q 1522 4009 1400 3731 
Q 1209 3300 1100 2831 
Q 966 2247 966 1656 
Q 966 153 1900 -1347 
L 1497 -1347 
z
" transform="scale(0.015625)"/>
       <path id="ArialMT-64" d="M 2575 0 
L 2575 419 
Q 2259 -75 1647 -75 
Q 1250 -75 917 144 
Q 584 363 401 755 
Q 219 1147 219 1656 
Q 219 2153 384 2558 
Q 550 2963 881 3178 
Q 1213 3394 1622 3394 
Q 1922 3394 2156 3267 
Q 2391 3141 2538 2938 
L 2538 4581 
L 3097 4581 
L 3097 0 
L 2575 0 
z
M 797 1656 
Q 797 1019 1065 703 
Q 1334 388 1700 388 
Q 2069 388 2326 689 
Q 2584 991 2584 1609 
Q 2584 2291 2321 2609 
Q 2059 2928 1675 2928 
Q 1300 2928 1048 2622 
Q 797 2316 797 1656 
z
" transform="scale(0.015625)"/>
       <path id="ArialMT-29" d="M 791 -1347 
L 388 -1347 
Q 1322 153 1322 1656 
Q 1322 2244 1188 2822 
Q 1081 3291 891 3722 
Q 769 4003 388 4659 
L 791 4659 
Q 1378 3875 1659 3084 
Q 1900 2403 1900 1659 
Q 1900 816 1576 28 
Q 1253 -759 791 -1347 
z
" transform="scale(0.015625)"/>
      </defs>
      <use xlink:href="#ArialMT-54"/>
      <use xlink:href="#ArialMT-69" transform="translate(57.333984 0)"/>
      <use xlink:href="#ArialMT-6d" transform="translate(79.550781 0)"/>
      <use xlink:href="#ArialMT-65" transform="translate(162.851562 0)"/>
      <use xlink:href="#ArialMT-20" transform="translate(218.466797 0)"/>
      <use xlink:href="#ArialMT-28" transform="translate(246.25 0)"/>
      <use xlink:href="#ArialMT-64" transform="translate(279.550781 0)"/>
      <use xlink:href="#ArialMT-29" transform="translate(335.166016 0)"/>
     </g>
    </g>
   </g>
   <g id="matplotlib.axis_2">
    <g id="ytick_1">
     <g id="line2d_6">
      <defs>
       <path id="m98772a8013" d="M 0 0 
L -3.5 0 
" style="stroke: #000000; stroke-width: 0.8"/>
      </defs>
      <g>
       <use xlink:href="#m98772a8013" x="74.9225" y="286.767356" style="stroke: #000000; stroke-width: 0.8"/>
      </g>
     </g>
     <g id="text_7">
      <!-- 0 -->
      <g transform="translate(52.6525 295.885481) scale(0.24 -0.24)">
       <use xlink:href="#DejaVuSans-30"/>
      </g>
     </g>
    </g>
    <g id="ytick_2">
     <g id="line2d_7">
      <g>
       <use xlink:href="#m98772a8013" x="74.9225" y="179.714483" style="stroke: #000000; stroke-width: 0.8"/>
      </g>
     </g>
     <g id="text_8">
      <!-- 10 -->
      <g transform="translate(37.3825 188.832608) scale(0.24 -0.24)">
       <defs>
        <path id="DejaVuSans-31" d="M 794 531 
L 1825 531 
L 1825 4091 
L 703 3866 
L 703 4441 
L 1819 4666 
L 2450 4666 
L 2450 531 
L 3481 531 
L 3481 0 
L 794 0 
L 794 531 
z
" transform="scale(0.015625)"/>
       </defs>
       <use xlink:href="#DejaVuSans-31"/>
       <use xlink:href="#DejaVuSans-30" transform="translate(63.623047 0)"/>
      </g>
     </g>
    </g>
    <g id="ytick_3">
     <g id="line2d_8">
      <g>
       <use xlink:href="#m98772a8013" x="74.9225" y="72.661609" style="stroke: #000000; stroke-width: 0.8"/>
      </g>
     </g>
     <g id="text_9">
      <!-- 20 -->
      <g transform="translate(37.3825 81.779734) scale(0.24 -0.24)">
       <use xlink:href="#DejaVuSans-32"/>
       <use xlink:href="#DejaVuSans-30" transform="translate(63.623047 0)"/>
      </g>
     </g>
    </g>
    <g id="text_10">
     <!-- Symptom Score -->
     <g transform="translate(28.33125 261.055625) rotate(-90) scale(0.24 -0.24)">
      <defs>
       <path id="ArialMT-53" d="M 288 1472 
L 859 1522 
Q 900 1178 1048 958 
Q 1197 738 1509 602 
Q 1822 466 2213 466 
Q 2559 466 2825 569 
Q 3091 672 3220 851 
Q 3350 1031 3350 1244 
Q 3350 1459 3225 1620 
Q 3100 1781 2813 1891 
Q 2628 1963 1997 2114 
Q 1366 2266 1113 2400 
Q 784 2572 623 2826 
Q 463 3081 463 3397 
Q 463 3744 659 4045 
Q 856 4347 1234 4503 
Q 1613 4659 2075 4659 
Q 2584 4659 2973 4495 
Q 3363 4331 3572 4012 
Q 3781 3694 3797 3291 
L 3216 3247 
Q 3169 3681 2898 3903 
Q 2628 4125 2100 4125 
Q 1550 4125 1298 3923 
Q 1047 3722 1047 3438 
Q 1047 3191 1225 3031 
Q 1400 2872 2139 2705 
Q 2878 2538 3153 2413 
Q 3553 2228 3743 1945 
Q 3934 1663 3934 1294 
Q 3934 928 3725 604 
Q 3516 281 3123 101 
Q 2731 -78 2241 -78 
Q 1619 -78 1198 103 
Q 778 284 539 648 
Q 300 1013 288 1472 
z
" transform="scale(0.015625)"/>
       <path id="ArialMT-79" d="M 397 -1278 
L 334 -750 
Q 519 -800 656 -800 
Q 844 -800 956 -737 
Q 1069 -675 1141 -563 
Q 1194 -478 1313 -144 
Q 1328 -97 1363 -6 
L 103 3319 
L 709 3319 
L 1400 1397 
Q 1534 1031 1641 628 
Q 1738 1016 1872 1384 
L 2581 3319 
L 3144 3319 
L 1881 -56 
Q 1678 -603 1566 -809 
Q 1416 -1088 1222 -1217 
Q 1028 -1347 759 -1347 
Q 597 -1347 397 -1278 
z
" transform="scale(0.015625)"/>
       <path id="ArialMT-70" d="M 422 -1272 
L 422 3319 
L 934 3319 
L 934 2888 
Q 1116 3141 1344 3267 
Q 1572 3394 1897 3394 
Q 2322 3394 2647 3175 
Q 2972 2956 3137 2557 
Q 3303 2159 3303 1684 
Q 3303 1175 3120 767 
Q 2938 359 2589 142 
Q 2241 -75 1856 -75 
Q 1575 -75 1351 44 
Q 1128 163 984 344 
L 984 -1272 
L 422 -1272 
z
M 931 1641 
Q 931 1000 1190 694 
Q 1450 388 1819 388 
Q 2194 388 2461 705 
Q 2728 1022 2728 1688 
Q 2728 2322 2467 2637 
Q 2206 2953 1844 2953 
Q 1484 2953 1207 2617 
Q 931 2281 931 1641 
z
" transform="scale(0.015625)"/>
       <path id="ArialMT-74" d="M 1650 503 
L 1731 6 
Q 1494 -44 1306 -44 
Q 1000 -44 831 53 
Q 663 150 594 308 
Q 525 466 525 972 
L 525 2881 
L 113 2881 
L 113 3319 
L 525 3319 
L 525 4141 
L 1084 4478 
L 1084 3319 
L 1650 3319 
L 1650 2881 
L 1084 2881 
L 1084 941 
Q 1084 700 1114 631 
Q 1144 563 1211 522 
Q 1278 481 1403 481 
Q 1497 481 1650 503 
z
" transform="scale(0.015625)"/>
       <path id="ArialMT-6f" d="M 213 1659 
Q 213 2581 725 3025 
Q 1153 3394 1769 3394 
Q 2453 3394 2887 2945 
Q 3322 2497 3322 1706 
Q 3322 1066 3130 698 
Q 2938 331 2570 128 
Q 2203 -75 1769 -75 
Q 1072 -75 642 372 
Q 213 819 213 1659 
z
M 791 1659 
Q 791 1022 1069 705 
Q 1347 388 1769 388 
Q 2188 388 2466 706 
Q 2744 1025 2744 1678 
Q 2744 2294 2464 2611 
Q 2184 2928 1769 2928 
Q 1347 2928 1069 2612 
Q 791 2297 791 1659 
z
" transform="scale(0.015625)"/>
       <path id="ArialMT-63" d="M 2588 1216 
L 3141 1144 
Q 3050 572 2676 248 
Q 2303 -75 1759 -75 
Q 1078 -75 664 370 
Q 250 816 250 1647 
Q 250 2184 428 2587 
Q 606 2991 970 3192 
Q 1334 3394 1763 3394 
Q 2303 3394 2647 3120 
Q 2991 2847 3088 2344 
L 2541 2259 
Q 2463 2594 2264 2762 
Q 2066 2931 1784 2931 
Q 1359 2931 1093 2626 
Q 828 2322 828 1663 
Q 828 994 1084 691 
Q 1341 388 1753 388 
Q 2084 388 2306 591 
Q 2528 794 2588 1216 
z
" transform="scale(0.015625)"/>
       <path id="ArialMT-72" d="M 416 0 
L 416 3319 
L 922 3319 
L 922 2816 
Q 1116 3169 1280 3281 
Q 1444 3394 1641 3394 
Q 1925 3394 2219 3213 
L 2025 2691 
Q 1819 2813 1613 2813 
Q 1428 2813 1281 2702 
Q 1134 2591 1072 2394 
Q 978 2094 978 1738 
L 978 0 
L 416 0 
z
" transform="scale(0.015625)"/>
      </defs>
      <use xlink:href="#ArialMT-53"/>
      <use xlink:href="#ArialMT-79" transform="translate(66.699219 0)"/>
      <use xlink:href="#ArialMT-6d" transform="translate(116.699219 0)"/>
      <use xlink:href="#ArialMT-70" transform="translate(200 0)"/>
      <use xlink:href="#ArialMT-74" transform="translate(255.615234 0)"/>
      <use xlink:href="#ArialMT-6f" transform="translate(283.398438 0)"/>
      <use xlink:href="#ArialMT-6d" transform="translate(339.013672 0)"/>
      <use xlink:href="#ArialMT-20" transform="translate(422.314453 0)"/>
      <use xlink:href="#ArialMT-53" transform="translate(450.097656 0)"/>
      <use xlink:href="#ArialMT-63" transform="translate(516.796875 0)"/>
      <use xlink:href="#ArialMT-6f" transform="translate(566.796875 0)"/>
      <use xlink:href="#ArialMT-72" transform="translate(622.412109 0)"/>
      <use xlink:href="#ArialMT-65" transform="translate(655.712891 0)"/>
     </g>
    </g>
   </g>
   <g id="patch_3">
    <path d="M 74.9225 292.12 
L 74.9225 59.28 
" style="fill: none; stroke: #000000; stroke-width: 0.8; stroke-linejoin: miter; stroke-linecap: square"/>
   </g>
   <g id="patch_4">
    <path d="M 306.81 292.12 
L 306.81 59.28 
" style="fill: none; stroke: #000000; stroke-width: 0.8; stroke-linejoin: miter; stroke-linecap: square"/>
   </g>
   <g id="patch_5">
    <path d="M 74.9225 292.12 
L 306.81 292.12 
" style="fill: none; stroke: #000000; stroke-width: 0.8; stroke-linejoin: miter; stroke-linecap: square"/>
   </g>
   <g id="patch_6">
    <path d="M 74.9225 59.28 
L 306.81 59.28 
" style="fill: none; stroke: #000000; stroke-width: 0.8; stroke-linejoin: miter; stroke-linecap: square"/>
   </g>
   <g id="text_11">
    <!-- Individual 1 -->
    <g transform="translate(130.16125 53.28) scale(0.24 -0.24)">
     <defs>
      <path id="ArialMT-49" d="M 597 0 
L 597 4581 
L 1203 4581 
L 1203 0 
L 597 0 
z
" transform="scale(0.015625)"/>
      <path id="ArialMT-6e" d="M 422 0 
L 422 3319 
L 928 3319 
L 928 2847 
Q 1294 3394 1984 3394 
Q 2284 3394 2536 3286 
Q 2788 3178 2913 3003 
Q 3038 2828 3088 2588 
Q 3119 2431 3119 2041 
L 3119 0 
L 2556 0 
L 2556 2019 
Q 2556 2363 2490 2533 
Q 2425 2703 2258 2804 
Q 2091 2906 1866 2906 
Q 1506 2906 1245 2678 
Q 984 2450 984 1813 
L 984 0 
L 422 0 
z
" transform="scale(0.015625)"/>
      <path id="ArialMT-76" d="M 1344 0 
L 81 3319 
L 675 3319 
L 1388 1331 
Q 1503 1009 1600 663 
Q 1675 925 1809 1294 
L 2547 3319 
L 3125 3319 
L 1869 0 
L 1344 0 
z
" transform="scale(0.015625)"/>
      <path id="ArialMT-75" d="M 2597 0 
L 2597 488 
Q 2209 -75 1544 -75 
Q 1250 -75 995 37 
Q 741 150 617 320 
Q 494 491 444 738 
Q 409 903 409 1263 
L 409 3319 
L 972 3319 
L 972 1478 
Q 972 1038 1006 884 
Q 1059 663 1231 536 
Q 1403 409 1656 409 
Q 1909 409 2131 539 
Q 2353 669 2445 892 
Q 2538 1116 2538 1541 
L 2538 3319 
L 3100 3319 
L 3100 0 
L 2597 0 
z
" transform="scale(0.015625)"/>
      <path id="ArialMT-61" d="M 2588 409 
Q 2275 144 1986 34 
Q 1697 -75 1366 -75 
Q 819 -75 525 192 
Q 231 459 231 875 
Q 231 1119 342 1320 
Q 453 1522 633 1644 
Q 813 1766 1038 1828 
Q 1203 1872 1538 1913 
Q 2219 1994 2541 2106 
Q 2544 2222 2544 2253 
Q 2544 2597 2384 2738 
Q 2169 2928 1744 2928 
Q 1347 2928 1158 2789 
Q 969 2650 878 2297 
L 328 2372 
Q 403 2725 575 2942 
Q 747 3159 1072 3276 
Q 1397 3394 1825 3394 
Q 2250 3394 2515 3294 
Q 2781 3194 2906 3042 
Q 3031 2891 3081 2659 
Q 3109 2516 3109 2141 
L 3109 1391 
Q 3109 606 3145 398 
Q 3181 191 3288 0 
L 2700 0 
Q 2613 175 2588 409 
z
M 2541 1666 
Q 2234 1541 1622 1453 
Q 1275 1403 1131 1340 
Q 988 1278 909 1158 
Q 831 1038 831 891 
Q 831 666 1001 516 
Q 1172 366 1500 366 
Q 1825 366 2078 508 
Q 2331 650 2450 897 
Q 2541 1088 2541 1459 
L 2541 1666 
z
" transform="scale(0.015625)"/>
      <path id="ArialMT-6c" d="M 409 0 
L 409 4581 
L 972 4581 
L 972 0 
L 409 0 
z
" transform="scale(0.015625)"/>
      <path id="ArialMT-31" d="M 2384 0 
L 1822 0 
L 1822 3584 
Q 1619 3391 1289 3197 
Q 959 3003 697 2906 
L 697 3450 
Q 1169 3672 1522 3987 
Q 1875 4303 2022 4600 
L 2384 4600 
L 2384 0 
z
" transform="scale(0.015625)"/>
     </defs>
     <use xlink:href="#ArialMT-49"/>
     <use xlink:href="#ArialMT-6e" transform="translate(27.783203 0)"/>
     <use xlink:href="#ArialMT-64" transform="translate(83.398438 0)"/>
     <use xlink:href="#ArialMT-69" transform="translate(139.013672 0)"/>
     <use xlink:href="#ArialMT-76" transform="translate(161.230469 0)"/>
     <use xlink:href="#ArialMT-69" transform="translate(211.230469 0)"/>
     <use xlink:href="#ArialMT-64" transform="translate(233.447266 0)"/>
     <use xlink:href="#ArialMT-75" transform="translate(289.0625 0)"/>
     <use xlink:href="#ArialMT-61" transform="translate(344.677734 0)"/>
     <use xlink:href="#ArialMT-6c" transform="translate(400.292969 0)"/>
     <use xlink:href="#ArialMT-20" transform="translate(422.509766 0)"/>
     <use xlink:href="#ArialMT-31" transform="translate(450.292969 0)"/>
    </g>
   </g>
   <g id="PathCollection_1">
    <defs>
     <path id="m2e1fa90e2d" d="M 0 4.330127 
C 1.148363 4.330127 2.249847 3.873878 3.061862 3.061862 
C 3.873878 2.249847 4.330127 1.148363 4.330127 0 
C 4.330127 -1.148363 3.873878 -2.249847 3.061862 -3.061862 
C 2.249847 -3.873878 1.148363 -4.330127 0 -4.330127 
C -1.148363 -4.330127 -2.249847 -3.873878 -3.061862 -3.061862 
C -3.873878 -2.249847 -4.330127 -1.148363 -4.330127 0 
C -4.330127 1.148363 -3.873878 2.249847 -3.061862 3.061862 
C -2.249847 3.873878 -1.148363 4.330127 0 4.330127 
z
" style="stroke: #000000; stroke-opacity: 0.8"/>
    </defs>
    <g clip-path="url(#p84417fb9bd)">
     <use xlink:href="#m2e1fa90e2d" x="81.742721" y="286.767356" style="fill-opacity: 0.8; stroke: #000000; stroke-opacity: 0.8"/>
     <use xlink:href="#m2e1fa90e2d" x="109.023603" y="248.219583" style="fill-opacity: 0.8; stroke: #000000; stroke-opacity: 0.8"/>
     <use xlink:href="#m2e1fa90e2d" x="136.304485" y="178.386153" style="fill-opacity: 0.8; stroke: #000000; stroke-opacity: 0.8"/>
     <use xlink:href="#m2e1fa90e2d" x="163.585368" y="185.587098" style="fill-opacity: 0.8; stroke: #000000; stroke-opacity: 0.8"/>
     <use xlink:href="#m2e1fa90e2d" x="190.86625" y="241.346351" style="fill-opacity: 0.8; stroke: #000000; stroke-opacity: 0.8"/>
     <use xlink:href="#m2e1fa90e2d" x="218.147132" y="247.454919" style="fill-opacity: 0.8; stroke: #000000; stroke-opacity: 0.8"/>
     <use xlink:href="#m2e1fa90e2d" x="245.428015" y="286.767356" style="fill-opacity: 0.8; stroke: #000000; stroke-opacity: 0.8"/>
     <use xlink:href="#m2e1fa90e2d" x="272.708897" y="286.767356" style="fill-opacity: 0.8; stroke: #000000; stroke-opacity: 0.8"/>
    </g>
   </g>
  </g>
  <g id="axes_2">
   <g id="matplotlib.axis_3">
    <g id="ytick_4">
     <g id="line2d_9">
      <defs>
       <path id="m86591a2049" d="M 0 0 
L 3.5 0 
" style="stroke: #ff0000; stroke-width: 0.8"/>
      </defs>
      <g>
       <use xlink:href="#m86591a2049" x="306.81" y="287.058261" style="fill: #ff0000; stroke: #ff0000; stroke-width: 0.8"/>
      </g>
     </g>
     <g id="text_12">
      <!-- 0.0 -->
      <g style="fill: #ff0000" transform="translate(313.81 296.176386) scale(0.24 -0.24)">
       <defs>
        <path id="DejaVuSans-2e" d="M 684 794 
L 1344 794 
L 1344 0 
L 684 0 
L 684 794 
z
" transform="scale(0.015625)"/>
       </defs>
       <use xlink:href="#DejaVuSans-30"/>
       <use xlink:href="#DejaVuSans-2e" transform="translate(63.623047 0)"/>
       <use xlink:href="#DejaVuSans-30" transform="translate(95.410156 0)"/>
      </g>
     </g>
    </g>
    <g id="ytick_5">
     <g id="line2d_10">
      <g>
       <use xlink:href="#m86591a2049" x="306.81" y="223.786522" style="fill: #ff0000; stroke: #ff0000; stroke-width: 0.8"/>
      </g>
     </g>
     <g id="text_13">
      <!-- 2.5 -->
      <g style="fill: #ff0000" transform="translate(313.81 232.904647) scale(0.24 -0.24)">
       <defs>
        <path id="DejaVuSans-35" d="M 691 4666 
L 3169 4666 
L 3169 4134 
L 1269 4134 
L 1269 2991 
Q 1406 3038 1543 3061 
Q 1681 3084 1819 3084 
Q 2600 3084 3056 2656 
Q 3513 2228 3513 1497 
Q 3513 744 3044 326 
Q 2575 -91 1722 -91 
Q 1428 -91 1123 -41 
Q 819 9 494 109 
L 494 744 
Q 775 591 1075 516 
Q 1375 441 1709 441 
Q 2250 441 2565 725 
Q 2881 1009 2881 1497 
Q 2881 1984 2565 2268 
Q 2250 2553 1709 2553 
Q 1456 2553 1204 2497 
Q 953 2441 691 2322 
L 691 4666 
z
" transform="scale(0.015625)"/>
       </defs>
       <use xlink:href="#DejaVuSans-32"/>
       <use xlink:href="#DejaVuSans-2e" transform="translate(63.623047 0)"/>
       <use xlink:href="#DejaVuSans-35" transform="translate(95.410156 0)"/>
      </g>
     </g>
    </g>
    <g id="ytick_6">
     <g id="line2d_11">
      <g>
       <use xlink:href="#m86591a2049" x="306.81" y="160.514783" style="fill: #ff0000; stroke: #ff0000; stroke-width: 0.8"/>
      </g>
     </g>
     <g id="text_14">
      <!-- 5.0 -->
      <g style="fill: #ff0000" transform="translate(313.81 169.632908) scale(0.24 -0.24)">
       <use xlink:href="#DejaVuSans-35"/>
       <use xlink:href="#DejaVuSans-2e" transform="translate(63.623047 0)"/>
       <use xlink:href="#DejaVuSans-30" transform="translate(95.410156 0)"/>
      </g>
     </g>
    </g>
    <g id="ytick_7">
     <g id="line2d_12">
      <g>
       <use xlink:href="#m86591a2049" x="306.81" y="97.243043" style="fill: #ff0000; stroke: #ff0000; stroke-width: 0.8"/>
      </g>
     </g>
     <g id="text_15">
      <!-- 7.5 -->
      <g style="fill: #ff0000" transform="translate(313.81 106.361168) scale(0.24 -0.24)">
       <defs>
        <path id="DejaVuSans-37" d="M 525 4666 
L 3525 4666 
L 3525 4397 
L 1831 0 
L 1172 0 
L 2766 4134 
L 525 4134 
L 525 4666 
z
" transform="scale(0.015625)"/>
       </defs>
       <use xlink:href="#DejaVuSans-37"/>
       <use xlink:href="#DejaVuSans-2e" transform="translate(63.623047 0)"/>
       <use xlink:href="#DejaVuSans-35" transform="translate(95.410156 0)"/>
      </g>
     </g>
    </g>
    <g id="text_16">
     <!-- CAUC Infected Cells -->
     <g style="fill: #ff0000" transform="translate(354.79875 65.66375) rotate(-270) scale(0.24 -0.24)">
      <defs>
       <path id="ArialMT-43" d="M 3763 1606 
L 4369 1453 
Q 4178 706 3683 314 
Q 3188 -78 2472 -78 
Q 1731 -78 1267 223 
Q 803 525 561 1097 
Q 319 1669 319 2325 
Q 319 3041 592 3573 
Q 866 4106 1370 4382 
Q 1875 4659 2481 4659 
Q 3169 4659 3637 4309 
Q 4106 3959 4291 3325 
L 3694 3184 
Q 3534 3684 3231 3912 
Q 2928 4141 2469 4141 
Q 1941 4141 1586 3887 
Q 1231 3634 1087 3207 
Q 944 2781 944 2328 
Q 944 1744 1114 1308 
Q 1284 872 1643 656 
Q 2003 441 2422 441 
Q 2931 441 3284 734 
Q 3638 1028 3763 1606 
z
" transform="scale(0.015625)"/>
       <path id="ArialMT-41" d="M -9 0 
L 1750 4581 
L 2403 4581 
L 4278 0 
L 3588 0 
L 3053 1388 
L 1138 1388 
L 634 0 
L -9 0 
z
M 1313 1881 
L 2866 1881 
L 2388 3150 
Q 2169 3728 2063 4100 
Q 1975 3659 1816 3225 
L 1313 1881 
z
" transform="scale(0.015625)"/>
       <path id="ArialMT-55" d="M 3500 4581 
L 4106 4581 
L 4106 1934 
Q 4106 1244 3950 837 
Q 3794 431 3386 176 
Q 2978 -78 2316 -78 
Q 1672 -78 1262 144 
Q 853 366 678 786 
Q 503 1206 503 1934 
L 503 4581 
L 1109 4581 
L 1109 1938 
Q 1109 1341 1220 1058 
Q 1331 775 1601 622 
Q 1872 469 2263 469 
Q 2931 469 3215 772 
Q 3500 1075 3500 1938 
L 3500 4581 
z
" transform="scale(0.015625)"/>
       <path id="ArialMT-66" d="M 556 0 
L 556 2881 
L 59 2881 
L 59 3319 
L 556 3319 
L 556 3672 
Q 556 4006 616 4169 
Q 697 4388 901 4523 
Q 1106 4659 1475 4659 
Q 1713 4659 2000 4603 
L 1916 4113 
Q 1741 4144 1584 4144 
Q 1328 4144 1222 4034 
Q 1116 3925 1116 3625 
L 1116 3319 
L 1763 3319 
L 1763 2881 
L 1116 2881 
L 1116 0 
L 556 0 
z
" transform="scale(0.015625)"/>
       <path id="ArialMT-73" d="M 197 991 
L 753 1078 
Q 800 744 1014 566 
Q 1228 388 1613 388 
Q 2000 388 2187 545 
Q 2375 703 2375 916 
Q 2375 1106 2209 1216 
Q 2094 1291 1634 1406 
Q 1016 1563 777 1677 
Q 538 1791 414 1992 
Q 291 2194 291 2438 
Q 291 2659 392 2848 
Q 494 3038 669 3163 
Q 800 3259 1026 3326 
Q 1253 3394 1513 3394 
Q 1903 3394 2198 3281 
Q 2494 3169 2634 2976 
Q 2775 2784 2828 2463 
L 2278 2388 
Q 2241 2644 2061 2787 
Q 1881 2931 1553 2931 
Q 1166 2931 1000 2803 
Q 834 2675 834 2503 
Q 834 2394 903 2306 
Q 972 2216 1119 2156 
Q 1203 2125 1616 2013 
Q 2213 1853 2448 1751 
Q 2684 1650 2818 1456 
Q 2953 1263 2953 975 
Q 2953 694 2789 445 
Q 2625 197 2315 61 
Q 2006 -75 1616 -75 
Q 969 -75 630 194 
Q 291 463 197 991 
z
" transform="scale(0.015625)"/>
      </defs>
      <use xlink:href="#ArialMT-43"/>
      <use xlink:href="#ArialMT-41" transform="translate(72.216797 0)"/>
      <use xlink:href="#ArialMT-55" transform="translate(138.916016 0)"/>
      <use xlink:href="#ArialMT-43" transform="translate(211.132812 0)"/>
      <use xlink:href="#ArialMT-20" transform="translate(283.349609 0)"/>
      <use xlink:href="#ArialMT-49" transform="translate(311.132812 0)"/>
      <use xlink:href="#ArialMT-6e" transform="translate(338.916016 0)"/>
      <use xlink:href="#ArialMT-66" transform="translate(394.53125 0)"/>
      <use xlink:href="#ArialMT-65" transform="translate(422.314453 0)"/>
      <use xlink:href="#ArialMT-63" transform="translate(477.929688 0)"/>
      <use xlink:href="#ArialMT-74" transform="translate(527.929688 0)"/>
      <use xlink:href="#ArialMT-65" transform="translate(555.712891 0)"/>
      <use xlink:href="#ArialMT-64" transform="translate(611.328125 0)"/>
      <use xlink:href="#ArialMT-20" transform="translate(666.943359 0)"/>
      <use xlink:href="#ArialMT-43" transform="translate(694.726562 0)"/>
      <use xlink:href="#ArialMT-65" transform="translate(766.943359 0)"/>
      <use xlink:href="#ArialMT-6c" transform="translate(822.558594 0)"/>
      <use xlink:href="#ArialMT-6c" transform="translate(844.775391 0)"/>
      <use xlink:href="#ArialMT-73" transform="translate(866.992188 0)"/>
     </g>
    </g>
    <g id="text_17">
     <!-- 1e7 -->
     <g style="fill: #ff0000" transform="translate(269.05375 56.28) scale(0.2 -0.2)">
      <defs>
       <path id="DejaVuSans-65" d="M 3597 1894 
L 3597 1613 
L 953 1613 
Q 991 1019 1311 708 
Q 1631 397 2203 397 
Q 2534 397 2845 478 
Q 3156 559 3463 722 
L 3463 178 
Q 3153 47 2828 -22 
Q 2503 -91 2169 -91 
Q 1331 -91 842 396 
Q 353 884 353 1716 
Q 353 2575 817 3079 
Q 1281 3584 2069 3584 
Q 2775 3584 3186 3129 
Q 3597 2675 3597 1894 
z
M 3022 2063 
Q 3016 2534 2758 2815 
Q 2500 3097 2075 3097 
Q 1594 3097 1305 2825 
Q 1016 2553 972 2059 
L 3022 2063 
z
" transform="scale(0.015625)"/>
      </defs>
      <use xlink:href="#DejaVuSans-31"/>
      <use xlink:href="#DejaVuSans-65" transform="translate(63.623047 0)"/>
      <use xlink:href="#DejaVuSans-37" transform="translate(125.146484 0)"/>
     </g>
    </g>
   </g>
   <g id="FillBetweenPolyCollection_1">
    <defs>
     <path id="m1fcef35c51" d="M 81.742721 -72.941739 
L 81.742721 -72.941739 
L 81.743043 -72.941739 
L 81.74627 -72.941739 
L 81.778537 -72.941739 
L 81.974206 -72.941741 
L 82.096958 -72.941742 
L 82.583851 -72.941745 
L 82.884034 -72.941747 
L 83.880797 -72.941755 
L 84.332098 -72.941759 
L 85.432181 -72.941774 
L 85.963071 -72.941781 
L 87.036484 -72.941806 
L 87.639476 -72.941824 
L 88.726793 -72.941871 
L 89.384434 -72.941914 
L 90.464859 -72.942003 
L 91.165776 -72.942095 
L 92.243636 -72.942273 
L 92.97644 -72.942449 
L 94.048177 -72.942854 
L 94.804174 -72.94323 
L 95.981298 -72.944166 
L 96.72226 -72.944895 
L 97.740196 -72.946507 
L 98.510551 -72.9484 
L 99.61998 -72.951832 
L 100.38484 -72.955528 
L 101.418763 -72.962082 
L 102.202157 -72.969467 
L 103.319587 -72.985962 
L 104.100629 -73.001239 
L 105.174118 -73.033895 
L 105.981649 -73.064731 
L 107.153005 -73.14001 
L 107.961068 -73.217323 
L 109.079748 -73.361702 
L 109.919071 -73.534394 
L 110.924394 -73.80074 
L 111.696549 -74.082071 
L 112.483735 -74.519408 
L 113.128188 -74.89266 
L 113.795513 -75.446324 
L 114.372071 -76.047207 
L 114.948629 -76.765738 
L 115.465372 -77.409727 
L 115.982115 -78.238077 
L 116.356501 -78.890898 
L 116.798531 -79.757424 
L 117.553326 -81.465482 
L 118.453382 -83.727292 
L 119.71841 -87.4502 
L 120.756071 -90.714082 
L 122.316708 -95.893274 
L 123.531691 -99.920131 
L 125.423721 -106.015149 
L 126.802392 -110.287308 
L 128.623255 -115.684012 
L 130.502116 -120.955161 
L 132.380977 -125.917173 
L 133.899751 -129.699641 
L 135.721286 -134.047227 
L 137.819277 -138.68914 
L 140.076395 -143.295609 
L 142.780043 -148.396423 
L 144.962614 -152.174013 
L 147.690702 -156.463321 
L 150.41879 -160.311555 
L 153.146879 -163.85484 
L 155.874967 -167.020603 
L 158.603055 -169.837878 
L 161.331143 -172.417047 
L 164.059232 -174.710797 
L 166.78732 -170.385643 
L 169.515408 -163.971625 
L 172.243496 -157.417551 
L 174.971585 -150.736636 
L 177.699673 -143.940972 
L 180.427761 -137.199089 
L 183.155849 -131.78855 
L 185.883938 -128.507601 
L 188.612026 -125.150939 
L 191.340114 -121.726302 
L 194.068202 -118.240755 
L 196.79629 -114.700733 
L 199.524379 -111.1121 
L 202.252467 -107.480194 
L 204.980555 -103.809888 
L 207.708643 -100.105661 
L 210.436732 -96.371716 
L 213.16482 -92.612259 
L 215.892908 -88.832622 
L 218.620996 -85.039363 
L 220.766057 -82.054447 
L 221.838587 -80.561956 
L 222.762881 -79.275743 
L 223.265077 -78.576906 
L 224.037564 -77.501944 
L 224.560761 -76.773882 
L 225.315362 -75.723807 
L 225.868501 -74.95408 
L 226.616981 -73.912523 
L 227.202848 -73.29152 
L 227.98495 -73.115229 
L 228.767052 -72.941739 
L 229.822715 -72.941739 
L 231.117305 -72.941739 
L 232.894023 -72.941739 
L 234.337291 -72.941739 
L 236.294866 -72.941739 
L 237.864761 -72.941739 
L 239.914986 -72.941739 
L 241.569654 -72.941739 
L 243.659812 -72.941739 
L 245.372321 -72.941739 
L 247.478645 -72.941739 
L 249.58497 -72.941739 
L 251.691295 -72.941739 
L 253.797619 -72.941739 
L 255.976004 -72.941739 
L 258.317623 -72.941739 
L 260.964738 -72.941739 
L 263.692826 -72.941739 
L 266.420914 -72.941739 
L 269.149003 -72.941739 
L 271.877091 -72.941739 
L 274.605179 -72.941739 
L 277.333267 -72.941739 
L 280.061356 -72.941739 
L 282.789444 -72.941739 
L 285.517532 -72.941739 
L 288.24562 -72.941739 
L 290.973708 -72.941739 
L 293.701797 -72.941739 
L 296.429885 -72.941739 
L 299.157973 -72.941739 
L 299.989779 -72.941739 
L 299.989779 -72.941739 
L 299.989779 -72.941739 
L 299.157973 -72.941739 
L 296.429885 -72.941739 
L 293.701797 -72.941739 
L 290.973708 -72.941739 
L 288.24562 -72.941739 
L 285.517532 -72.941739 
L 282.789444 -72.941739 
L 280.061356 -72.941739 
L 277.333267 -72.941739 
L 274.605179 -72.941739 
L 271.877091 -72.941739 
L 269.149003 -72.941739 
L 266.420914 -72.941739 
L 263.692826 -72.941739 
L 260.964738 -72.941739 
L 258.317623 -72.941739 
L 255.976004 -72.941739 
L 253.797619 -72.941739 
L 251.691295 -72.941739 
L 249.58497 -72.941739 
L 247.478645 -72.941739 
L 245.372321 -72.941739 
L 243.659812 -72.941739 
L 241.569654 -73.308851 
L 239.914986 -75.082193 
L 237.864761 -77.935208 
L 236.294866 -80.119815 
L 234.337291 -82.843903 
L 232.894023 -84.8523 
L 231.117305 -87.324713 
L 229.822715 -89.126215 
L 228.767052 -90.595229 
L 227.98495 -91.683555 
L 227.202848 -92.771821 
L 226.616981 -93.58698 
L 225.868501 -94.628038 
L 225.315362 -95.397291 
L 224.560761 -96.445027 
L 224.037564 -97.171444 
L 223.265077 -98.243979 
L 222.762881 -98.93892 
L 221.838587 -100.21732 
L 220.766057 -101.700746 
L 218.620996 -104.653369 
L 215.892908 -108.388923 
L 213.16482 -112.097609 
L 210.436732 -115.776099 
L 207.708643 -119.420913 
L 204.980555 -123.028324 
L 202.252467 -126.594305 
L 199.524379 -130.114486 
L 196.79629 -133.584117 
L 194.068202 -136.998031 
L 191.340114 -140.350615 
L 188.612026 -143.635774 
L 185.883938 -146.846897 
L 183.155849 -151.696849 
L 180.427761 -158.128581 
L 177.699673 -164.868502 
L 174.971585 -171.502117 
L 172.243496 -178.019752 
L 169.515408 -184.411019 
L 166.78732 -190.664783 
L 164.059232 -191.61984 
L 161.331143 -189.969307 
L 158.603055 -188.142789 
L 155.874967 -186.125507 
L 153.146879 -183.901519 
L 150.41879 -181.453573 
L 147.690702 -178.762941 
L 144.962614 -175.80923 
L 142.780043 -173.236722 
L 140.076395 -169.790496 
L 137.819277 -166.662851 
L 135.721286 -163.547666 
L 133.899751 -160.67993 
L 132.380977 -158.110057 
L 130.502116 -154.788237 
L 128.623255 -151.258615 
L 126.802392 -147.625603 
L 125.423721 -144.733401 
L 123.531691 -140.55219 
L 122.316708 -137.757751 
L 120.756071 -133.962889 
L 119.71841 -131.360984 
L 118.453382 -128.088729 
L 117.553326 -125.647334 
L 116.798531 -123.587253 
L 116.356501 -122.363088 
L 115.982115 -121.302069 
L 115.465372 -119.821946 
L 114.948629 -118.310013 
L 114.372071 -116.62307 
L 113.795513 -114.901411 
L 113.128188 -112.865077 
L 112.483735 -110.868219 
L 111.696549 -108.404323 
L 110.924394 -105.921907 
L 109.919071 -102.640131 
L 109.079748 -99.839684 
L 107.961068 -96.027166 
L 107.153005 -93.225664 
L 105.981649 -89.096055 
L 105.174118 -86.226727 
L 104.100629 -82.503642 
L 103.319587 -80.071098 
L 102.202157 -77.130491 
L 101.418763 -75.71573 
L 100.38484 -74.396316 
L 99.61998 -73.856635 
L 98.510551 -73.381975 
L 97.740196 -73.19861 
L 96.72226 -73.075574 
L 95.981298 -73.020034 
L 94.804174 -72.976529 
L 94.048177 -72.962328 
L 92.97644 -72.951571 
L 92.243636 -72.9478 
L 91.165776 -72.944608 
L 90.464859 -72.943558 
L 89.384434 -72.942567 
L 88.726793 -72.942287 
L 87.639476 -72.941996 
L 87.036484 -72.941905 
L 85.963071 -72.941821 
L 85.432181 -72.941793 
L 84.332098 -72.941765 
L 83.880797 -72.941758 
L 82.884034 -72.941747 
L 82.583851 -72.941745 
L 82.096958 -72.941742 
L 81.974206 -72.941741 
L 81.778537 -72.941739 
L 81.74627 -72.941739 
L 81.743043 -72.941739 
L 81.742721 -72.941739 
z
" style="stroke: #ff0000; stroke-opacity: 0.2"/>
    </defs>
    <g clip-path="url(#p84417fb9bd)">
     <use xlink:href="#m1fcef35c51" x="0" y="360" style="fill: #ff0000; fill-opacity: 0.2; stroke: #ff0000; stroke-opacity: 0.2"/>
    </g>
   </g>
   <g id="patch_7">
    <path d="M 74.9225 292.12 
L 74.9225 59.28 
" style="fill: none; stroke: #000000; stroke-width: 0.8; stroke-linejoin: miter; stroke-linecap: square"/>
   </g>
   <g id="patch_8">
    <path d="M 306.81 292.12 
L 306.81 59.28 
" style="fill: none; stroke: #000000; stroke-width: 0.8; stroke-linejoin: miter; stroke-linecap: square"/>
   </g>
   <g id="patch_9">
    <path d="M 74.9225 292.12 
L 306.81 292.12 
" style="fill: none; stroke: #000000; stroke-width: 0.8; stroke-linejoin: miter; stroke-linecap: square"/>
   </g>
   <g id="patch_10">
    <path d="M 74.9225 59.28 
L 306.81 59.28 
" style="fill: none; stroke: #000000; stroke-width: 0.8; stroke-linejoin: miter; stroke-linecap: square"/>
   </g>
   <g id="line2d_13">
    <path d="M 81.742721 287.058261 
L 99.61998 286.950919 
L 101.418763 286.771097 
L 102.202157 286.620082 
L 103.319587 286.257316 
L 104.100629 285.853855 
L 105.174118 284.975103 
L 105.981649 283.982769 
L 107.153005 281.872323 
L 107.961068 279.914957 
L 109.919071 273.831298 
L 115.465372 255.00338 
L 118.453382 245.740121 
L 120.756071 239.100917 
L 123.531691 231.677212 
L 126.802392 223.717099 
L 130.502116 215.679156 
L 133.899751 209.128596 
L 135.721286 205.918126 
L 137.819277 202.462529 
L 140.076395 199.016626 
L 142.780043 195.232868 
L 144.962614 192.433021 
L 147.690702 189.226518 
L 150.41879 186.321069 
L 153.146879 183.691469 
L 155.874967 181.314765 
L 158.603055 179.170045 
L 161.331143 177.238218 
L 164.059232 175.5018 
L 169.515408 187.737365 
L 174.971585 200.577119 
L 180.427761 213.922854 
L 183.155849 219.495427 
L 188.612026 225.852936 
L 194.068202 232.526922 
L 202.252467 243.00904 
L 210.436732 253.920518 
L 221.838587 269.605034 
L 234.337291 286.997394 
L 237.864761 287.058261 
L 299.989779 287.058261 
L 299.989779 287.058261 
" clip-path="url(#p84417fb9bd)" style="fill: none; stroke: #ff0000; stroke-width: 1.5; stroke-linecap: square"/>
   </g>
   <g id="text_18">
    <g id="patch_11">
     <path d="M 218.953125 93.212625 
L 299.215625 93.212625 
L 299.215625 66.922 
L 218.953125 66.922 
z
" style="fill: #ffffff; opacity: 0.5; stroke: #000000; stroke-linejoin: miter"/>
    </g>
    <!-- Scale: 1 -->
    <g transform="translate(222.953125 85.237625) scale(0.2 -0.2)">
     <defs>
      <path id="ArialMT-3a" d="M 578 2678 
L 578 3319 
L 1219 3319 
L 1219 2678 
L 578 2678 
z
M 578 0 
L 578 641 
L 1219 641 
L 1219 0 
L 578 0 
z
" transform="scale(0.015625)"/>
     </defs>
     <use xlink:href="#ArialMT-53"/>
     <use xlink:href="#ArialMT-63" transform="translate(66.699219 0)"/>
     <use xlink:href="#ArialMT-61" transform="translate(116.699219 0)"/>
     <use xlink:href="#ArialMT-6c" transform="translate(172.314453 0)"/>
     <use xlink:href="#ArialMT-65" transform="translate(194.53125 0)"/>
     <use xlink:href="#ArialMT-3a" transform="translate(250.146484 0)"/>
     <use xlink:href="#ArialMT-20" transform="translate(277.929688 0)"/>
     <use xlink:href="#ArialMT-31" transform="translate(305.712891 0)"/>
    </g>
   </g>
  </g>
 </g>
 <defs>
  <clipPath id="p84417fb9bd">
   <rect x="74.9225" y="59.28" width="231.8875" height="232.84"/>
  </clipPath>
 </defs>
</svg>
