<?xml version="1.0" encoding="utf-8" standalone="no"?>
<!DOCTYPE svg PUBLIC "-//W3C//DTD SVG 1.1//EN"
  "http://www.w3.org/Graphics/SVG/1.1/DTD/svg11.dtd">
<svg xmlns:xlink="http://www.w3.org/1999/xlink" width="360pt" height="360pt" viewBox="0 0 360 360" xmlns="http://www.w3.org/2000/svg" version="1.1">
 <metadata>
  <rdf:RDF xmlns:dc="http://purl.org/dc/elements/1.1/" xmlns:cc="http://creativecommons.org/ns#" xmlns:rdf="http://www.w3.org/1999/02/22-rdf-syntax-ns#">
   <cc:Work>
    <dc:type rdf:resource="http://purl.org/dc/dcmitype/StillImage"/>
    <dc:date>2025-01-23T10:33:23.438744</dc:date>
    <dc:format>image/svg+xml</dc:format>
    <dc:creator>
     <cc:Agent>
      <dc:title>Matplotlib v3.9.2, https://matplotlib.org/</dc:title>
     </cc:Agent>
    </dc:creator>
   </cc:Work>
  </rdf:RDF>
 </metadata>
 <defs>
  <style type="text/css">*{stroke-linejoin: round; stroke-linecap: butt}</style>
 </defs>
 <g id="figure_1">
  <g id="patch_1">
   <path d="M 0 360 
L 360 360 
L 360 0 
L 0 0 
z
" style="fill: #ffffff"/>
  </g>
  <g id="axes_1">
   <g id="patch_2">
    <path d="M 75.6225 288.9 
L 304.13 288.9 
L 304.13 61.44 
L 75.6225 61.44 
z
" style="fill: #ffffff"/>
   </g>
   <g id="matplotlib.axis_1">
    <g id="xtick_1">
     <g id="text_1">
      <!-- 0 -->
      <g style="fill: #262626" transform="translate(75.670184 315.57875) scale(0.24 -0.24)">
       <defs>
        <path id="ArialMT-30" d="M 266 2259 
Q 266 3072 433 3567 
Q 600 4063 929 4331 
Q 1259 4600 1759 4600 
Q 2128 4600 2406 4451 
Q 2684 4303 2865 4023 
Q 3047 3744 3150 3342 
Q 3253 2941 3253 2259 
Q 3253 1453 3087 958 
Q 2922 463 2592 192 
Q 2263 -78 1759 -78 
Q 1097 -78 719 397 
Q 266 969 266 2259 
z
M 844 2259 
Q 844 1131 1108 757 
Q 1372 384 1759 384 
Q 2147 384 2411 759 
Q 2675 1134 2675 2259 
Q 2675 3391 2411 3762 
Q 2147 4134 1753 4134 
Q 1366 4134 1134 3806 
Q 844 3388 844 2259 
z
" transform="scale(0.015625)"/>
       </defs>
       <use xlink:href="#ArialMT-30"/>
      </g>
     </g>
    </g>
    <g id="xtick_2">
     <g id="text_2">
      <!-- 2 -->
      <g style="fill: #262626" transform="translate(129.436654 315.57875) scale(0.24 -0.24)">
       <defs>
        <path id="ArialMT-32" d="M 3222 541 
L 3222 0 
L 194 0 
Q 188 203 259 391 
Q 375 700 629 1000 
Q 884 1300 1366 1694 
Q 2113 2306 2375 2664 
Q 2638 3022 2638 3341 
Q 2638 3675 2398 3904 
Q 2159 4134 1775 4134 
Q 1369 4134 1125 3890 
Q 881 3647 878 3216 
L 300 3275 
Q 359 3922 746 4261 
Q 1134 4600 1788 4600 
Q 2447 4600 2831 4234 
Q 3216 3869 3216 3328 
Q 3216 3053 3103 2787 
Q 2991 2522 2730 2228 
Q 2469 1934 1863 1422 
Q 1356 997 1212 845 
Q 1069 694 975 541 
L 3222 541 
z
" transform="scale(0.015625)"/>
       </defs>
       <use xlink:href="#ArialMT-32"/>
      </g>
     </g>
    </g>
    <g id="xtick_3">
     <g id="text_3">
      <!-- 4 -->
      <g style="fill: #262626" transform="translate(183.203125 315.57875) scale(0.24 -0.24)">
       <defs>
        <path id="ArialMT-34" d="M 2069 0 
L 2069 1097 
L 81 1097 
L 81 1613 
L 2172 4581 
L 2631 4581 
L 2631 1613 
L 3250 1613 
L 3250 1097 
L 2631 1097 
L 2631 0 
L 2069 0 
z
M 2069 1613 
L 2069 3678 
L 634 1613 
L 2069 1613 
z
" transform="scale(0.015625)"/>
       </defs>
       <use xlink:href="#ArialMT-34"/>
      </g>
     </g>
    </g>
    <g id="xtick_4">
     <g id="text_4">
      <!-- 6 -->
      <g style="fill: #262626" transform="translate(236.969596 315.57875) scale(0.24 -0.24)">
       <defs>
        <path id="ArialMT-36" d="M 3184 3459 
L 2625 3416 
Q 2550 3747 2413 3897 
Q 2184 4138 1850 4138 
Q 1581 4138 1378 3988 
Q 1113 3794 959 3422 
Q 806 3050 800 2363 
Q 1003 2672 1297 2822 
Q 1591 2972 1913 2972 
Q 2475 2972 2870 2558 
Q 3266 2144 3266 1488 
Q 3266 1056 3080 686 
Q 2894 316 2569 119 
Q 2244 -78 1831 -78 
Q 1128 -78 684 439 
Q 241 956 241 2144 
Q 241 3472 731 4075 
Q 1159 4600 1884 4600 
Q 2425 4600 2770 4297 
Q 3116 3994 3184 3459 
z
M 888 1484 
Q 888 1194 1011 928 
Q 1134 663 1356 523 
Q 1578 384 1822 384 
Q 2178 384 2434 671 
Q 2691 959 2691 1453 
Q 2691 1928 2437 2201 
Q 2184 2475 1800 2475 
Q 1419 2475 1153 2201 
Q 888 1928 888 1484 
z
" transform="scale(0.015625)"/>
       </defs>
       <use xlink:href="#ArialMT-36"/>
      </g>
     </g>
    </g>
    <g id="xtick_5">
     <g id="text_5">
      <!-- 8 -->
      <g style="fill: #262626" transform="translate(290.736066 315.57875) scale(0.24 -0.24)">
       <defs>
        <path id="ArialMT-38" d="M 1131 2484 
Q 781 2613 612 2850 
Q 444 3088 444 3419 
Q 444 3919 803 4259 
Q 1163 4600 1759 4600 
Q 2359 4600 2725 4251 
Q 3091 3903 3091 3403 
Q 3091 3084 2923 2848 
Q 2756 2613 2416 2484 
Q 2838 2347 3058 2040 
Q 3278 1734 3278 1309 
Q 3278 722 2862 322 
Q 2447 -78 1769 -78 
Q 1091 -78 675 323 
Q 259 725 259 1325 
Q 259 1772 486 2073 
Q 713 2375 1131 2484 
z
M 1019 3438 
Q 1019 3113 1228 2906 
Q 1438 2700 1772 2700 
Q 2097 2700 2305 2904 
Q 2513 3109 2513 3406 
Q 2513 3716 2298 3927 
Q 2084 4138 1766 4138 
Q 1444 4138 1231 3931 
Q 1019 3725 1019 3438 
z
M 838 1322 
Q 838 1081 952 856 
Q 1066 631 1291 507 
Q 1516 384 1775 384 
Q 2178 384 2440 643 
Q 2703 903 2703 1303 
Q 2703 1709 2433 1975 
Q 2163 2241 1756 2241 
Q 1359 2241 1098 1978 
Q 838 1716 838 1322 
z
" transform="scale(0.015625)"/>
       </defs>
       <use xlink:href="#ArialMT-38"/>
      </g>
     </g>
    </g>
    <g id="text_6">
     <!-- Time (d) -->
     <g style="fill: #262626" transform="translate(145.66375 341.82) scale(0.24 -0.24)">
      <defs>
       <path id="ArialMT-54" d="M 1659 0 
L 1659 4041 
L 150 4041 
L 150 4581 
L 3781 4581 
L 3781 4041 
L 2266 4041 
L 2266 0 
L 1659 0 
z
" transform="scale(0.015625)"/>
       <path id="ArialMT-69" d="M 425 3934 
L 425 4581 
L 988 4581 
L 988 3934 
L 425 3934 
z
M 425 0 
L 425 3319 
L 988 3319 
L 988 0 
L 425 0 
z
" transform="scale(0.015625)"/>
       <path id="ArialMT-6d" d="M 422 0 
L 422 3319 
L 925 3319 
L 925 2853 
Q 1081 3097 1340 3245 
Q 1600 3394 1931 3394 
Q 2300 3394 2536 3241 
Q 2772 3088 2869 2813 
Q 3263 3394 3894 3394 
Q 4388 3394 4653 3120 
Q 4919 2847 4919 2278 
L 4919 0 
L 4359 0 
L 4359 2091 
Q 4359 2428 4304 2576 
Q 4250 2725 4106 2815 
Q 3963 2906 3769 2906 
Q 3419 2906 3187 2673 
Q 2956 2441 2956 1928 
L 2956 0 
L 2394 0 
L 2394 2156 
Q 2394 2531 2256 2718 
Q 2119 2906 1806 2906 
Q 1569 2906 1367 2781 
Q 1166 2656 1075 2415 
Q 984 2175 984 1722 
L 984 0 
L 422 0 
z
" transform="scale(0.015625)"/>
       <path id="ArialMT-65" d="M 2694 1069 
L 3275 997 
Q 3138 488 2766 206 
Q 2394 -75 1816 -75 
Q 1088 -75 661 373 
Q 234 822 234 1631 
Q 234 2469 665 2931 
Q 1097 3394 1784 3394 
Q 2450 3394 2872 2941 
Q 3294 2488 3294 1666 
Q 3294 1616 3291 1516 
L 816 1516 
Q 847 969 1125 678 
Q 1403 388 1819 388 
Q 2128 388 2347 550 
Q 2566 713 2694 1069 
z
M 847 1978 
L 2700 1978 
Q 2663 2397 2488 2606 
Q 2219 2931 1791 2931 
Q 1403 2931 1139 2672 
Q 875 2413 847 1978 
z
" transform="scale(0.015625)"/>
       <path id="ArialMT-20" transform="scale(0.015625)"/>
       <path id="ArialMT-28" d="M 1497 -1347 
Q 1031 -759 709 28 
Q 388 816 388 1659 
Q 388 2403 628 3084 
Q 909 3875 1497 4659 
L 1900 4659 
Q 1522 4009 1400 3731 
Q 1209 3300 1100 2831 
Q 966 2247 966 1656 
Q 966 153 1900 -1347 
L 1497 -1347 
z
" transform="scale(0.015625)"/>
       <path id="ArialMT-64" d="M 2575 0 
L 2575 419 
Q 2259 -75 1647 -75 
Q 1250 -75 917 144 
Q 584 363 401 755 
Q 219 1147 219 1656 
Q 219 2153 384 2558 
Q 550 2963 881 3178 
Q 1213 3394 1622 3394 
Q 1922 3394 2156 3267 
Q 2391 3141 2538 2938 
L 2538 4581 
L 3097 4581 
L 3097 0 
L 2575 0 
z
M 797 1656 
Q 797 1019 1065 703 
Q 1334 388 1700 388 
Q 2069 388 2326 689 
Q 2584 991 2584 1609 
Q 2584 2291 2321 2609 
Q 2059 2928 1675 2928 
Q 1300 2928 1048 2622 
Q 797 2316 797 1656 
z
" transform="scale(0.015625)"/>
       <path id="ArialMT-29" d="M 791 -1347 
L 388 -1347 
Q 1322 153 1322 1656 
Q 1322 2244 1188 2822 
Q 1081 3291 891 3722 
Q 769 4003 388 4659 
L 791 4659 
Q 1378 3875 1659 3084 
Q 1900 2403 1900 1659 
Q 1900 816 1576 28 
Q 1253 -759 791 -1347 
z
" transform="scale(0.015625)"/>
      </defs>
      <use xlink:href="#ArialMT-54"/>
      <use xlink:href="#ArialMT-69" x="57.333984"/>
      <use xlink:href="#ArialMT-6d" x="79.550781"/>
      <use xlink:href="#ArialMT-65" x="162.851562"/>
      <use xlink:href="#ArialMT-20" x="218.466797"/>
      <use xlink:href="#ArialMT-28" x="246.25"/>
      <use xlink:href="#ArialMT-64" x="279.550781"/>
      <use xlink:href="#ArialMT-29" x="335.166016"/>
     </g>
    </g>
   </g>
   <g id="matplotlib.axis_2">
    <g id="ytick_1">
     <g id="line2d_1">
      <defs>
       <path id="mbcaef0e844" d="M 0 0 
L -6 0 
" style="stroke: #262626; stroke-width: 1.25"/>
      </defs>
      <g>
       <use xlink:href="#mbcaef0e844" x="75.6225" y="283.671034" style="fill: #262626; stroke: #262626; stroke-width: 1.25"/>
      </g>
     </g>
     <g id="text_7">
      <!-- 0 -->
      <g style="fill: #262626" transform="translate(52.77625 292.260409) scale(0.24 -0.24)">
       <use xlink:href="#ArialMT-30"/>
      </g>
     </g>
    </g>
    <g id="ytick_2">
     <g id="line2d_2">
      <g>
       <use xlink:href="#mbcaef0e844" x="75.6225" y="179.091724" style="fill: #262626; stroke: #262626; stroke-width: 1.25"/>
      </g>
     </g>
     <g id="text_8">
      <!-- 10 -->
      <g style="fill: #262626" transform="translate(39.43 187.681099) scale(0.24 -0.24)">
       <defs>
        <path id="ArialMT-31" d="M 2384 0 
L 1822 0 
L 1822 3584 
Q 1619 3391 1289 3197 
Q 959 3003 697 2906 
L 697 3450 
Q 1169 3672 1522 3987 
Q 1875 4303 2022 4600 
L 2384 4600 
L 2384 0 
z
" transform="scale(0.015625)"/>
       </defs>
       <use xlink:href="#ArialMT-31"/>
       <use xlink:href="#ArialMT-30" x="55.615234"/>
      </g>
     </g>
    </g>
    <g id="ytick_3">
     <g id="line2d_3">
      <g>
       <use xlink:href="#mbcaef0e844" x="75.6225" y="74.512414" style="fill: #262626; stroke: #262626; stroke-width: 1.25"/>
      </g>
     </g>
     <g id="text_9">
      <!-- 20 -->
      <g style="fill: #262626" transform="translate(39.43 83.101789) scale(0.24 -0.24)">
       <use xlink:href="#ArialMT-32"/>
       <use xlink:href="#ArialMT-30" x="55.615234"/>
      </g>
     </g>
    </g>
    <g id="text_10">
     <!-- Symptom Score -->
     <g style="fill: #262626" transform="translate(30.37875 260.525625) rotate(-90) scale(0.24 -0.24)">
      <defs>
       <path id="ArialMT-53" d="M 288 1472 
L 859 1522 
Q 900 1178 1048 958 
Q 1197 738 1509 602 
Q 1822 466 2213 466 
Q 2559 466 2825 569 
Q 3091 672 3220 851 
Q 3350 1031 3350 1244 
Q 3350 1459 3225 1620 
Q 3100 1781 2813 1891 
Q 2628 1963 1997 2114 
Q 1366 2266 1113 2400 
Q 784 2572 623 2826 
Q 463 3081 463 3397 
Q 463 3744 659 4045 
Q 856 4347 1234 4503 
Q 1613 4659 2075 4659 
Q 2584 4659 2973 4495 
Q 3363 4331 3572 4012 
Q 3781 3694 3797 3291 
L 3216 3247 
Q 3169 3681 2898 3903 
Q 2628 4125 2100 4125 
Q 1550 4125 1298 3923 
Q 1047 3722 1047 3438 
Q 1047 3191 1225 3031 
Q 1400 2872 2139 2705 
Q 2878 2538 3153 2413 
Q 3553 2228 3743 1945 
Q 3934 1663 3934 1294 
Q 3934 928 3725 604 
Q 3516 281 3123 101 
Q 2731 -78 2241 -78 
Q 1619 -78 1198 103 
Q 778 284 539 648 
Q 300 1013 288 1472 
z
" transform="scale(0.015625)"/>
       <path id="ArialMT-79" d="M 397 -1278 
L 334 -750 
Q 519 -800 656 -800 
Q 844 -800 956 -737 
Q 1069 -675 1141 -563 
Q 1194 -478 1313 -144 
Q 1328 -97 1363 -6 
L 103 3319 
L 709 3319 
L 1400 1397 
Q 1534 1031 1641 628 
Q 1738 1016 1872 1384 
L 2581 3319 
L 3144 3319 
L 1881 -56 
Q 1678 -603 1566 -809 
Q 1416 -1088 1222 -1217 
Q 1028 -1347 759 -1347 
Q 597 -1347 397 -1278 
z
" transform="scale(0.015625)"/>
       <path id="ArialMT-70" d="M 422 -1272 
L 422 3319 
L 934 3319 
L 934 2888 
Q 1116 3141 1344 3267 
Q 1572 3394 1897 3394 
Q 2322 3394 2647 3175 
Q 2972 2956 3137 2557 
Q 3303 2159 3303 1684 
Q 3303 1175 3120 767 
Q 2938 359 2589 142 
Q 2241 -75 1856 -75 
Q 1575 -75 1351 44 
Q 1128 163 984 344 
L 984 -1272 
L 422 -1272 
z
M 931 1641 
Q 931 1000 1190 694 
Q 1450 388 1819 388 
Q 2194 388 2461 705 
Q 2728 1022 2728 1688 
Q 2728 2322 2467 2637 
Q 2206 2953 1844 2953 
Q 1484 2953 1207 2617 
Q 931 2281 931 1641 
z
" transform="scale(0.015625)"/>
       <path id="ArialMT-74" d="M 1650 503 
L 1731 6 
Q 1494 -44 1306 -44 
Q 1000 -44 831 53 
Q 663 150 594 308 
Q 525 466 525 972 
L 525 2881 
L 113 2881 
L 113 3319 
L 525 3319 
L 525 4141 
L 1084 4478 
L 1084 3319 
L 1650 3319 
L 1650 2881 
L 1084 2881 
L 1084 941 
Q 1084 700 1114 631 
Q 1144 563 1211 522 
Q 1278 481 1403 481 
Q 1497 481 1650 503 
z
" transform="scale(0.015625)"/>
       <path id="ArialMT-6f" d="M 213 1659 
Q 213 2581 725 3025 
Q 1153 3394 1769 3394 
Q 2453 3394 2887 2945 
Q 3322 2497 3322 1706 
Q 3322 1066 3130 698 
Q 2938 331 2570 128 
Q 2203 -75 1769 -75 
Q 1072 -75 642 372 
Q 213 819 213 1659 
z
M 791 1659 
Q 791 1022 1069 705 
Q 1347 388 1769 388 
Q 2188 388 2466 706 
Q 2744 1025 2744 1678 
Q 2744 2294 2464 2611 
Q 2184 2928 1769 2928 
Q 1347 2928 1069 2612 
Q 791 2297 791 1659 
z
" transform="scale(0.015625)"/>
       <path id="ArialMT-63" d="M 2588 1216 
L 3141 1144 
Q 3050 572 2676 248 
Q 2303 -75 1759 -75 
Q 1078 -75 664 370 
Q 250 816 250 1647 
Q 250 2184 428 2587 
Q 606 2991 970 3192 
Q 1334 3394 1763 3394 
Q 2303 3394 2647 3120 
Q 2991 2847 3088 2344 
L 2541 2259 
Q 2463 2594 2264 2762 
Q 2066 2931 1784 2931 
Q 1359 2931 1093 2626 
Q 828 2322 828 1663 
Q 828 994 1084 691 
Q 1341 388 1753 388 
Q 2084 388 2306 591 
Q 2528 794 2588 1216 
z
" transform="scale(0.015625)"/>
       <path id="ArialMT-72" d="M 416 0 
L 416 3319 
L 922 3319 
L 922 2816 
Q 1116 3169 1280 3281 
Q 1444 3394 1641 3394 
Q 1925 3394 2219 3213 
L 2025 2691 
Q 1819 2813 1613 2813 
Q 1428 2813 1281 2702 
Q 1134 2591 1072 2394 
Q 978 2094 978 1738 
L 978 0 
L 416 0 
z
" transform="scale(0.015625)"/>
      </defs>
      <use xlink:href="#ArialMT-53"/>
      <use xlink:href="#ArialMT-79" x="66.699219"/>
      <use xlink:href="#ArialMT-6d" x="116.699219"/>
      <use xlink:href="#ArialMT-70" x="200"/>
      <use xlink:href="#ArialMT-74" x="255.615234"/>
      <use xlink:href="#ArialMT-6f" x="283.398438"/>
      <use xlink:href="#ArialMT-6d" x="339.013672"/>
      <use xlink:href="#ArialMT-20" x="422.314453"/>
      <use xlink:href="#ArialMT-53" x="450.097656"/>
      <use xlink:href="#ArialMT-63" x="516.796875"/>
      <use xlink:href="#ArialMT-6f" x="566.796875"/>
      <use xlink:href="#ArialMT-72" x="622.412109"/>
      <use xlink:href="#ArialMT-65" x="655.712891"/>
     </g>
    </g>
   </g>
   <g id="patch_3">
    <path d="M 75.6225 288.9 
L 75.6225 61.44 
" style="fill: none; stroke: #262626; stroke-width: 1.25; stroke-linejoin: miter; stroke-linecap: square"/>
   </g>
   <g id="patch_4">
    <path d="M 304.13 288.9 
L 304.13 61.44 
" style="fill: none; stroke: #262626; stroke-width: 1.25; stroke-linejoin: miter; stroke-linecap: square"/>
   </g>
   <g id="patch_5">
    <path d="M 75.6225 288.9 
L 304.13 288.9 
" style="fill: none; stroke: #262626; stroke-width: 1.25; stroke-linejoin: miter; stroke-linecap: square"/>
   </g>
   <g id="patch_6">
    <path d="M 75.6225 61.44 
L 304.13 61.44 
" style="fill: none; stroke: #262626; stroke-width: 1.25; stroke-linejoin: miter; stroke-linecap: square"/>
   </g>
   <g id="text_11">
    <!-- Volunteer 8 -->
    <g style="fill: #262626" transform="translate(129.16375 55.44) scale(0.24 -0.24)">
     <defs>
      <path id="ArialMT-56" d="M 1803 0 
L 28 4581 
L 684 4581 
L 1875 1253 
Q 2019 853 2116 503 
Q 2222 878 2363 1253 
L 3600 4581 
L 4219 4581 
L 2425 0 
L 1803 0 
z
" transform="scale(0.015625)"/>
      <path id="ArialMT-6c" d="M 409 0 
L 409 4581 
L 972 4581 
L 972 0 
L 409 0 
z
" transform="scale(0.015625)"/>
      <path id="ArialMT-75" d="M 2597 0 
L 2597 488 
Q 2209 -75 1544 -75 
Q 1250 -75 995 37 
Q 741 150 617 320 
Q 494 491 444 738 
Q 409 903 409 1263 
L 409 3319 
L 972 3319 
L 972 1478 
Q 972 1038 1006 884 
Q 1059 663 1231 536 
Q 1403 409 1656 409 
Q 1909 409 2131 539 
Q 2353 669 2445 892 
Q 2538 1116 2538 1541 
L 2538 3319 
L 3100 3319 
L 3100 0 
L 2597 0 
z
" transform="scale(0.015625)"/>
      <path id="ArialMT-6e" d="M 422 0 
L 422 3319 
L 928 3319 
L 928 2847 
Q 1294 3394 1984 3394 
Q 2284 3394 2536 3286 
Q 2788 3178 2913 3003 
Q 3038 2828 3088 2588 
Q 3119 2431 3119 2041 
L 3119 0 
L 2556 0 
L 2556 2019 
Q 2556 2363 2490 2533 
Q 2425 2703 2258 2804 
Q 2091 2906 1866 2906 
Q 1506 2906 1245 2678 
Q 984 2450 984 1813 
L 984 0 
L 422 0 
z
" transform="scale(0.015625)"/>
     </defs>
     <use xlink:href="#ArialMT-56"/>
     <use xlink:href="#ArialMT-6f" x="61.199219"/>
     <use xlink:href="#ArialMT-6c" x="116.814453"/>
     <use xlink:href="#ArialMT-75" x="139.03125"/>
     <use xlink:href="#ArialMT-6e" x="194.646484"/>
     <use xlink:href="#ArialMT-74" x="250.261719"/>
     <use xlink:href="#ArialMT-65" x="278.044922"/>
     <use xlink:href="#ArialMT-65" x="333.660156"/>
     <use xlink:href="#ArialMT-72" x="389.275391"/>
     <use xlink:href="#ArialMT-20" x="422.576172"/>
     <use xlink:href="#ArialMT-38" x="450.359375"/>
    </g>
   </g>
   <g id="PathCollection_1">
    <defs>
     <path id="mfc220ea8df" d="M 0 4.330127 
C 1.148363 4.330127 2.249847 3.873878 3.061862 3.061862 
C 3.873878 2.249847 4.330127 1.148363 4.330127 0 
C 4.330127 -1.148363 3.873878 -2.249847 3.061862 -3.061862 
C 2.249847 -3.873878 1.148363 -4.330127 0 -4.330127 
C -1.148363 -4.330127 -2.249847 -3.873878 -3.061862 -3.061862 
C -3.873878 -2.249847 -4.330127 -1.148363 -4.330127 0 
C -4.330127 1.148363 -3.873878 2.249847 -3.061862 3.061862 
C -2.249847 3.873878 -1.148363 4.330127 0 4.330127 
z
" style="stroke: #000000; stroke-opacity: 0.8"/>
    </defs>
    <g clip-path="url(#p51b779d6db)">
     <use xlink:href="#mfc220ea8df" x="82.343309" y="283.671034" style="fill-opacity: 0.8; stroke: #000000; stroke-opacity: 0.8"/>
     <use xlink:href="#mfc220ea8df" x="109.226544" y="254.1754" style="fill-opacity: 0.8; stroke: #000000; stroke-opacity: 0.8"/>
     <use xlink:href="#mfc220ea8df" x="136.109779" y="197.250107" style="fill-opacity: 0.8; stroke: #000000; stroke-opacity: 0.8"/>
     <use xlink:href="#mfc220ea8df" x="162.993015" y="229.072097" style="fill-opacity: 0.8; stroke: #000000; stroke-opacity: 0.8"/>
     <use xlink:href="#mfc220ea8df" x="189.87625" y="259.387292" style="fill-opacity: 0.8; stroke: #000000; stroke-opacity: 0.8"/>
     <use xlink:href="#mfc220ea8df" x="216.759485" y="273.631421" style="fill-opacity: 0.8; stroke: #000000; stroke-opacity: 0.8"/>
     <use xlink:href="#mfc220ea8df" x="243.642721" y="272.124625" style="fill-opacity: 0.8; stroke: #000000; stroke-opacity: 0.8"/>
     <use xlink:href="#mfc220ea8df" x="270.525956" y="283.671034" style="fill-opacity: 0.8; stroke: #000000; stroke-opacity: 0.8"/>
    </g>
   </g>
  </g>
  <g id="axes_2">
   <g id="matplotlib.axis_3">
    <g id="ytick_4">
     <g id="line2d_4">
      <defs>
       <path id="m085cbff3f2" d="M 0 0 
L 6 0 
" style="stroke: #0000cd; stroke-width: 1.25"/>
      </defs>
      <g>
       <use xlink:href="#m085cbff3f2" x="304.13" y="283.955217" style="fill: #0000cd; stroke: #0000cd; stroke-width: 1.25"/>
      </g>
     </g>
     <g id="text_12">
      <!-- 0.0 -->
      <g style="fill: #0000cd" transform="translate(313.63 292.544592) scale(0.24 -0.24)">
       <defs>
        <path id="ArialMT-2e" d="M 581 0 
L 581 641 
L 1222 641 
L 1222 0 
L 581 0 
z
" transform="scale(0.015625)"/>
       </defs>
       <use xlink:href="#ArialMT-30"/>
       <use xlink:href="#ArialMT-2e" x="55.615234"/>
       <use xlink:href="#ArialMT-30" x="83.398438"/>
      </g>
     </g>
    </g>
    <g id="ytick_5">
     <g id="line2d_5">
      <g>
       <use xlink:href="#m085cbff3f2" x="304.13" y="222.145435" style="fill: #0000cd; stroke: #0000cd; stroke-width: 1.25"/>
      </g>
     </g>
     <g id="text_13">
      <!-- 2.5 -->
      <g style="fill: #0000cd" transform="translate(313.63 230.73481) scale(0.24 -0.24)">
       <defs>
        <path id="ArialMT-35" d="M 266 1200 
L 856 1250 
Q 922 819 1161 601 
Q 1400 384 1738 384 
Q 2144 384 2425 690 
Q 2706 997 2706 1503 
Q 2706 1984 2436 2262 
Q 2166 2541 1728 2541 
Q 1456 2541 1237 2417 
Q 1019 2294 894 2097 
L 366 2166 
L 809 4519 
L 3088 4519 
L 3088 3981 
L 1259 3981 
L 1013 2750 
Q 1425 3038 1878 3038 
Q 2478 3038 2890 2622 
Q 3303 2206 3303 1553 
Q 3303 931 2941 478 
Q 2500 -78 1738 -78 
Q 1113 -78 717 272 
Q 322 622 266 1200 
z
" transform="scale(0.015625)"/>
       </defs>
       <use xlink:href="#ArialMT-32"/>
       <use xlink:href="#ArialMT-2e" x="55.615234"/>
       <use xlink:href="#ArialMT-35" x="83.398438"/>
      </g>
     </g>
    </g>
    <g id="ytick_6">
     <g id="line2d_6">
      <g>
       <use xlink:href="#m085cbff3f2" x="304.13" y="160.335652" style="fill: #0000cd; stroke: #0000cd; stroke-width: 1.25"/>
      </g>
     </g>
     <g id="text_14">
      <!-- 5.0 -->
      <g style="fill: #0000cd" transform="translate(313.63 168.925027) scale(0.24 -0.24)">
       <use xlink:href="#ArialMT-35"/>
       <use xlink:href="#ArialMT-2e" x="55.615234"/>
       <use xlink:href="#ArialMT-30" x="83.398438"/>
      </g>
     </g>
    </g>
    <g id="ytick_7">
     <g id="line2d_7">
      <g>
       <use xlink:href="#m085cbff3f2" x="304.13" y="98.52587" style="fill: #0000cd; stroke: #0000cd; stroke-width: 1.25"/>
      </g>
     </g>
     <g id="text_15">
      <!-- 7.5 -->
      <g style="fill: #0000cd" transform="translate(313.63 107.115245) scale(0.24 -0.24)">
       <defs>
        <path id="ArialMT-37" d="M 303 3981 
L 303 4522 
L 3269 4522 
L 3269 4084 
Q 2831 3619 2401 2847 
Q 1972 2075 1738 1259 
Q 1569 684 1522 0 
L 944 0 
Q 953 541 1156 1306 
Q 1359 2072 1739 2783 
Q 2119 3494 2547 3981 
L 303 3981 
z
" transform="scale(0.015625)"/>
       </defs>
       <use xlink:href="#ArialMT-37"/>
       <use xlink:href="#ArialMT-2e" x="55.615234"/>
       <use xlink:href="#ArialMT-35" x="83.398438"/>
      </g>
     </g>
    </g>
    <g id="text_16">
     <!-- CAUC Infected Cells -->
     <g style="fill: #0000cd" transform="translate(349.81125 65.13375) rotate(-270) scale(0.24 -0.24)">
      <defs>
       <path id="ArialMT-43" d="M 3763 1606 
L 4369 1453 
Q 4178 706 3683 314 
Q 3188 -78 2472 -78 
Q 1731 -78 1267 223 
Q 803 525 561 1097 
Q 319 1669 319 2325 
Q 319 3041 592 3573 
Q 866 4106 1370 4382 
Q 1875 4659 2481 4659 
Q 3169 4659 3637 4309 
Q 4106 3959 4291 3325 
L 3694 3184 
Q 3534 3684 3231 3912 
Q 2928 4141 2469 4141 
Q 1941 4141 1586 3887 
Q 1231 3634 1087 3207 
Q 944 2781 944 2328 
Q 944 1744 1114 1308 
Q 1284 872 1643 656 
Q 2003 441 2422 441 
Q 2931 441 3284 734 
Q 3638 1028 3763 1606 
z
" transform="scale(0.015625)"/>
       <path id="ArialMT-41" d="M -9 0 
L 1750 4581 
L 2403 4581 
L 4278 0 
L 3588 0 
L 3053 1388 
L 1138 1388 
L 634 0 
L -9 0 
z
M 1313 1881 
L 2866 1881 
L 2388 3150 
Q 2169 3728 2063 4100 
Q 1975 3659 1816 3225 
L 1313 1881 
z
" transform="scale(0.015625)"/>
       <path id="ArialMT-55" d="M 3500 4581 
L 4106 4581 
L 4106 1934 
Q 4106 1244 3950 837 
Q 3794 431 3386 176 
Q 2978 -78 2316 -78 
Q 1672 -78 1262 144 
Q 853 366 678 786 
Q 503 1206 503 1934 
L 503 4581 
L 1109 4581 
L 1109 1938 
Q 1109 1341 1220 1058 
Q 1331 775 1601 622 
Q 1872 469 2263 469 
Q 2931 469 3215 772 
Q 3500 1075 3500 1938 
L 3500 4581 
z
" transform="scale(0.015625)"/>
       <path id="ArialMT-49" d="M 597 0 
L 597 4581 
L 1203 4581 
L 1203 0 
L 597 0 
z
" transform="scale(0.015625)"/>
       <path id="ArialMT-66" d="M 556 0 
L 556 2881 
L 59 2881 
L 59 3319 
L 556 3319 
L 556 3672 
Q 556 4006 616 4169 
Q 697 4388 901 4523 
Q 1106 4659 1475 4659 
Q 1713 4659 2000 4603 
L 1916 4113 
Q 1741 4144 1584 4144 
Q 1328 4144 1222 4034 
Q 1116 3925 1116 3625 
L 1116 3319 
L 1763 3319 
L 1763 2881 
L 1116 2881 
L 1116 0 
L 556 0 
z
" transform="scale(0.015625)"/>
       <path id="ArialMT-73" d="M 197 991 
L 753 1078 
Q 800 744 1014 566 
Q 1228 388 1613 388 
Q 2000 388 2187 545 
Q 2375 703 2375 916 
Q 2375 1106 2209 1216 
Q 2094 1291 1634 1406 
Q 1016 1563 777 1677 
Q 538 1791 414 1992 
Q 291 2194 291 2438 
Q 291 2659 392 2848 
Q 494 3038 669 3163 
Q 800 3259 1026 3326 
Q 1253 3394 1513 3394 
Q 1903 3394 2198 3281 
Q 2494 3169 2634 2976 
Q 2775 2784 2828 2463 
L 2278 2388 
Q 2241 2644 2061 2787 
Q 1881 2931 1553 2931 
Q 1166 2931 1000 2803 
Q 834 2675 834 2503 
Q 834 2394 903 2306 
Q 972 2216 1119 2156 
Q 1203 2125 1616 2013 
Q 2213 1853 2448 1751 
Q 2684 1650 2818 1456 
Q 2953 1263 2953 975 
Q 2953 694 2789 445 
Q 2625 197 2315 61 
Q 2006 -75 1616 -75 
Q 969 -75 630 194 
Q 291 463 197 991 
z
" transform="scale(0.015625)"/>
      </defs>
      <use xlink:href="#ArialMT-43"/>
      <use xlink:href="#ArialMT-41" x="72.216797"/>
      <use xlink:href="#ArialMT-55" x="138.916016"/>
      <use xlink:href="#ArialMT-43" x="211.132812"/>
      <use xlink:href="#ArialMT-20" x="283.349609"/>
      <use xlink:href="#ArialMT-49" x="311.132812"/>
      <use xlink:href="#ArialMT-6e" x="338.916016"/>
      <use xlink:href="#ArialMT-66" x="394.53125"/>
      <use xlink:href="#ArialMT-65" x="422.314453"/>
      <use xlink:href="#ArialMT-63" x="477.929688"/>
      <use xlink:href="#ArialMT-74" x="527.929688"/>
      <use xlink:href="#ArialMT-65" x="555.712891"/>
      <use xlink:href="#ArialMT-64" x="611.328125"/>
      <use xlink:href="#ArialMT-20" x="666.943359"/>
      <use xlink:href="#ArialMT-43" x="694.726562"/>
      <use xlink:href="#ArialMT-65" x="766.943359"/>
      <use xlink:href="#ArialMT-6c" x="822.558594"/>
      <use xlink:href="#ArialMT-6c" x="844.775391"/>
      <use xlink:href="#ArialMT-73" x="866.992188"/>
     </g>
    </g>
    <g id="text_17">
     <!-- 1e7 -->
     <g style="fill: #0000cd" transform="translate(270.764375 58.44) scale(0.2 -0.2)">
      <use xlink:href="#ArialMT-31"/>
      <use xlink:href="#ArialMT-65" x="55.615234"/>
      <use xlink:href="#ArialMT-37" x="111.230469"/>
     </g>
    </g>
   </g>
   <g id="PolyCollection_1">
    <defs>
     <path id="m7be105adf6" d="M 82.343309 -76.044783 
L 82.343309 -76.044783 
L 82.34365 -76.044783 
L 82.347064 -76.044783 
L 82.381198 -76.044783 
L 82.722546 -76.04479 
L 82.924961 -76.044795 
L 83.682807 -76.044811 
L 84.065144 -76.044819 
L 85.505843 -76.044854 
L 86.130624 -76.044873 
L 87.803839 -76.044942 
L 88.576114 -76.044984 
L 90.213902 -76.045116 
L 91.1049 -76.045212 
L 92.770922 -76.045486 
L 93.752702 -76.045703 
L 95.411189 -76.046272 
L 96.466105 -76.046761 
L 98.123382 -76.047968 
L 99.233225 -76.049061 
L 100.882795 -76.051643 
L 102.033218 -76.054075 
L 103.852802 -76.060505 
L 104.982854 -76.065741 
L 106.54707 -76.077534 
L 107.724708 -76.089283 
L 109.431386 -76.117618 
L 110.600948 -76.142752 
L 112.18377 -76.198677 
L 113.381648 -76.256524 
L 115.086803 -76.387052 
L 116.274563 -76.51779 
L 117.873736 -76.768452 
L 119.09128 -77.069212 
L 120.818369 -77.655898 
L 122.038657 -78.334243 
L 123.903495 -79.724348 
L 125.118657 -81.197862 
L 126.822916 -83.888278 
L 128.099232 -86.988789 
L 129.963454 -92.683765 
L 131.249276 -98.184823 
L 133.285743 -108.577038 
L 134.608839 -116.779009 
L 136.353789 -128.157942 
L 137.660839 -135.140389 
L 139.316666 -142.237147 
L 140.586083 -147.101229 
L 142.182594 -152.361169 
L 143.436021 -155.65163 
L 145.020039 -158.805243 
L 146.248861 -160.649427 
L 147.819119 -162.104347 
L 149.043256 -162.783095 
L 150.719345 -162.891171 
L 152.0835 -162.439225 
L 153.340173 -161.555292 
L 154.823667 -160.253691 
L 156.50388 -158.332195 
L 158.815276 -155.12135 
L 161.126672 -151.420992 
L 163.801626 -146.679048 
L 166.47658 -141.574987 
L 169.164904 -136.01846 
L 171.853227 -130.321927 
L 174.541551 -124.545792 
L 177.229874 -118.714973 
L 179.918198 -112.847097 
L 182.606521 -106.954635 
L 185.294845 -101.046307 
L 187.983168 -95.128043 
L 190.671492 -90.042826 
L 193.359815 -87.010007 
L 196.048139 -84.044752 
L 198.736462 -81.078962 
L 201.424786 -78.112814 
L 204.11311 -76.044783 
L 206.801433 -76.044783 
L 209.489757 -76.044783 
L 212.17808 -76.044783 
L 214.866404 -76.044783 
L 217.554727 -76.044783 
L 220.243051 -76.044783 
L 222.931374 -76.044783 
L 225.619698 -76.044783 
L 228.308021 -76.044783 
L 230.996345 -76.044783 
L 233.684668 -76.044783 
L 236.372992 -76.044783 
L 239.061315 -76.044783 
L 241.749639 -76.044783 
L 244.437962 -76.044783 
L 247.126286 -76.044783 
L 249.81461 -76.044783 
L 252.502933 -76.044783 
L 255.191257 -76.044783 
L 257.87958 -76.044783 
L 260.567904 -76.044783 
L 263.256227 -76.044783 
L 265.944551 -76.044783 
L 268.632874 -76.044783 
L 271.321198 -76.044783 
L 274.009521 -76.044783 
L 276.697845 -76.044783 
L 279.386168 -76.044783 
L 282.074492 -76.044783 
L 284.762815 -76.044783 
L 287.451139 -76.044783 
L 290.139462 -76.044783 
L 292.827786 -76.044783 
L 295.51611 -76.044783 
L 297.409191 -76.044783 
L 297.409191 -76.044783 
L 297.409191 -76.044783 
L 295.51611 -76.044783 
L 292.827786 -76.044783 
L 290.139462 -76.044783 
L 287.451139 -76.044783 
L 284.762815 -76.044783 
L 282.074492 -76.044783 
L 279.386168 -76.044783 
L 276.697845 -76.044783 
L 274.009521 -76.044783 
L 271.321198 -76.044783 
L 268.632874 -76.044783 
L 265.944551 -76.044783 
L 263.256227 -76.044783 
L 260.567904 -76.044783 
L 257.87958 -76.044783 
L 255.191257 -76.044783 
L 252.502933 -76.044783 
L 249.81461 -76.044783 
L 247.126286 -76.044783 
L 244.437962 -76.044783 
L 241.749639 -76.044783 
L 239.061315 -76.044783 
L 236.372992 -76.044783 
L 233.684668 -76.044783 
L 230.996345 -76.044783 
L 228.308021 -76.044783 
L 225.619698 -76.044783 
L 222.931374 -76.044783 
L 220.243051 -76.044783 
L 217.554727 -76.044783 
L 214.866404 -76.044783 
L 212.17808 -76.044783 
L 209.489757 -76.044783 
L 206.801433 -76.124534 
L 204.11311 -77.391022 
L 201.424786 -80.145883 
L 198.736462 -84.657842 
L 196.048139 -90.561024 
L 193.359815 -96.491155 
L 190.671492 -102.418797 
L 187.983168 -108.342122 
L 185.294845 -114.258086 
L 182.606521 -120.161888 
L 179.918198 -126.046396 
L 177.229874 -131.901525 
L 174.541551 -137.713391 
L 171.853227 -143.463004 
L 169.164904 -149.124248 
L 166.47658 -154.660984 
L 163.801626 -159.996436 
L 161.126672 -165.066911 
L 158.815276 -169.227141 
L 156.50388 -172.983671 
L 154.823667 -175.549315 
L 153.340173 -177.539547 
L 152.0835 -178.937493 
L 150.719345 -180.382487 
L 149.043256 -181.681394 
L 147.819119 -182.317876 
L 146.248861 -182.624217 
L 145.020039 -182.470205 
L 143.436021 -181.660944 
L 142.182594 -180.424999 
L 140.586083 -178.09094 
L 139.316666 -175.495791 
L 137.660839 -172.163561 
L 136.353789 -168.920091 
L 134.608839 -159.430257 
L 133.285743 -151.269317 
L 131.249276 -137.382843 
L 129.963454 -128.058319 
L 128.099232 -114.658852 
L 126.822916 -106.407799 
L 125.118657 -96.7023 
L 123.903495 -91.461761 
L 122.038657 -85.196449 
L 120.818369 -82.645469 
L 119.09128 -79.890474 
L 117.873736 -78.752726 
L 116.274563 -77.660157 
L 115.086803 -77.176244 
L 113.381648 -76.70567 
L 112.18377 -76.494109 
L 110.600948 -76.318649 
L 109.431386 -76.230853 
L 107.724708 -76.155991 
L 106.54707 -76.119375 
L 104.982854 -76.091109 
L 103.852802 -76.076568 
L 102.033218 -76.063128 
L 100.882795 -76.057161 
L 99.233225 -76.052234 
L 98.123382 -76.04992 
L 96.466105 -76.047854 
L 95.411189 -76.046938 
L 93.752702 -76.046064 
L 92.770922 -76.045744 
L 91.1049 -76.045355 
L 90.213902 -76.045219 
L 88.576114 -76.045037 
L 87.803839 -76.04498 
L 86.130624 -76.04489 
L 85.505843 -76.044866 
L 84.065144 -76.044821 
L 83.682807 -76.044812 
L 82.924961 -76.044795 
L 82.722546 -76.04479 
L 82.381198 -76.044783 
L 82.347064 -76.044783 
L 82.34365 -76.044783 
L 82.343309 -76.044783 
z
" style="stroke: #0000cd; stroke-opacity: 0.2"/>
    </defs>
    <g clip-path="url(#p51b779d6db)">
     <use xlink:href="#m7be105adf6" x="0" y="360" style="fill: #0000cd; fill-opacity: 0.2; stroke: #0000cd; stroke-opacity: 0.2"/>
    </g>
   </g>
   <g id="patch_7">
    <path d="M 75.6225 288.9 
L 75.6225 61.44 
" style="fill: none; stroke: #262626; stroke-width: 1.25; stroke-linejoin: miter; stroke-linecap: square"/>
   </g>
   <g id="patch_8">
    <path d="M 304.13 288.9 
L 304.13 61.44 
" style="fill: none; stroke: #262626; stroke-width: 1.25; stroke-linejoin: miter; stroke-linecap: square"/>
   </g>
   <g id="patch_9">
    <path d="M 75.6225 288.9 
L 304.13 288.9 
" style="fill: none; stroke: #262626; stroke-width: 1.25; stroke-linejoin: miter; stroke-linecap: square"/>
   </g>
   <g id="patch_10">
    <path d="M 75.6225 61.44 
L 304.13 61.44 
" style="fill: none; stroke: #262626; stroke-width: 1.25; stroke-linejoin: miter; stroke-linecap: square"/>
   </g>
   <g id="line2d_8">
    <path d="M 82.343309 283.955217 
L 82.34365 283.955217 
L 82.347064 283.955217 
L 82.381198 283.955217 
L 82.722546 283.95521 
L 82.924961 283.955205 
L 83.682807 283.955189 
L 84.065144 283.955181 
L 85.505843 283.955145 
L 86.130624 283.955125 
L 87.803839 283.955052 
L 88.576114 283.955005 
L 90.213902 283.954859 
L 91.1049 283.954745 
L 92.770922 283.954428 
L 93.752702 283.954157 
L 95.411189 283.953466 
L 96.466105 283.952821 
L 98.123382 283.951279 
L 99.233225 283.949749 
L 100.882795 283.946271 
L 102.033218 283.942654 
L 103.852802 283.933574 
L 104.982854 283.925034 
L 106.54707 283.907199 
L 107.724708 283.887289 
L 109.431386 283.842339 
L 110.600948 283.796003 
L 112.18377 283.70074 
L 113.381648 283.593434 
L 115.086803 283.355833 
L 116.274563 283.107249 
L 117.873736 282.60021 
L 119.09128 282.028462 
L 120.818369 280.783612 
L 122.038657 279.48368 
L 123.903495 276.46433 
L 125.118657 273.631038 
L 126.822916 268.116259 
L 128.099232 262.64808 
L 129.963454 252.569053 
L 131.249276 244.371839 
L 133.285743 230.362568 
L 134.608839 221.145766 
L 136.353789 209.669359 
L 137.660839 204.720775 
L 139.316666 199.567075 
L 140.586083 196.46859 
L 142.182594 193.561809 
L 143.436021 191.993856 
L 145.020039 190.806039 
L 146.248861 190.431128 
L 147.819119 190.548684 
L 149.043256 191.049576 
L 150.719345 192.223589 
L 152.0835 193.539424 
L 153.340173 194.992697 
L 154.823667 196.959615 
L 156.50388 199.462759 
L 158.815276 203.285559 
L 161.126672 207.450894 
L 163.801626 212.582129 
L 166.47658 217.954429 
L 169.164904 223.52356 
L 171.853227 229.211466 
L 174.541551 234.981688 
L 177.229874 240.808527 
L 179.918198 246.673796 
L 182.606521 252.564607 
L 185.294845 258.471923 
L 187.983168 264.389579 
L 190.671492 269.757658 
L 193.359815 272.72206 
L 196.048139 275.68728 
L 198.736462 278.653047 
L 201.424786 281.61918 
L 204.11311 283.955217 
L 206.801433 283.955217 
L 209.489757 283.955217 
L 212.17808 283.955217 
L 214.866404 283.955217 
L 217.554727 283.955217 
L 220.243051 283.955217 
L 222.931374 283.955217 
L 225.619698 283.955217 
L 228.308021 283.955217 
L 230.996345 283.955217 
L 233.684668 283.955217 
L 236.372992 283.955217 
L 239.061315 283.955217 
L 241.749639 283.955217 
L 244.437962 283.955217 
L 247.126286 283.955217 
L 249.81461 283.955217 
L 252.502933 283.955217 
L 255.191257 283.955217 
L 257.87958 283.955217 
L 260.567904 283.955217 
L 263.256227 283.955217 
L 265.944551 283.955217 
L 268.632874 283.955217 
L 271.321198 283.955217 
L 274.009521 283.955217 
L 276.697845 283.955217 
L 279.386168 283.955217 
L 282.074492 283.955217 
L 284.762815 283.955217 
L 287.451139 283.955217 
L 290.139462 283.955217 
L 292.827786 283.955217 
L 295.51611 283.955217 
L 297.409191 283.955217 
" clip-path="url(#p51b779d6db)" style="fill: none; stroke: #0000cd; stroke-width: 1.5; stroke-linecap: round"/>
   </g>
   <g id="text_18">
    <g id="patch_11">
     <path d="M 216.442125 95.103625 
L 296.704625 95.103625 
L 296.704625 68.813 
L 216.442125 68.813 
z
" style="fill: #ffffff; opacity: 0.5; stroke: #ffffff; stroke-linejoin: miter"/>
    </g>
    <!-- Scale: 3 -->
    <g style="fill: #262626" transform="translate(220.442125 87.128625) scale(0.2 -0.2)">
     <defs>
      <path id="ArialMT-61" d="M 2588 409 
Q 2275 144 1986 34 
Q 1697 -75 1366 -75 
Q 819 -75 525 192 
Q 231 459 231 875 
Q 231 1119 342 1320 
Q 453 1522 633 1644 
Q 813 1766 1038 1828 
Q 1203 1872 1538 1913 
Q 2219 1994 2541 2106 
Q 2544 2222 2544 2253 
Q 2544 2597 2384 2738 
Q 2169 2928 1744 2928 
Q 1347 2928 1158 2789 
Q 969 2650 878 2297 
L 328 2372 
Q 403 2725 575 2942 
Q 747 3159 1072 3276 
Q 1397 3394 1825 3394 
Q 2250 3394 2515 3294 
Q 2781 3194 2906 3042 
Q 3031 2891 3081 2659 
Q 3109 2516 3109 2141 
L 3109 1391 
Q 3109 606 3145 398 
Q 3181 191 3288 0 
L 2700 0 
Q 2613 175 2588 409 
z
M 2541 1666 
Q 2234 1541 1622 1453 
Q 1275 1403 1131 1340 
Q 988 1278 909 1158 
Q 831 1038 831 891 
Q 831 666 1001 516 
Q 1172 366 1500 366 
Q 1825 366 2078 508 
Q 2331 650 2450 897 
Q 2541 1088 2541 1459 
L 2541 1666 
z
" transform="scale(0.015625)"/>
      <path id="ArialMT-3a" d="M 578 2678 
L 578 3319 
L 1219 3319 
L 1219 2678 
L 578 2678 
z
M 578 0 
L 578 641 
L 1219 641 
L 1219 0 
L 578 0 
z
" transform="scale(0.015625)"/>
      <path id="ArialMT-33" d="M 269 1209 
L 831 1284 
Q 928 806 1161 595 
Q 1394 384 1728 384 
Q 2125 384 2398 659 
Q 2672 934 2672 1341 
Q 2672 1728 2419 1979 
Q 2166 2231 1775 2231 
Q 1616 2231 1378 2169 
L 1441 2663 
Q 1497 2656 1531 2656 
Q 1891 2656 2178 2843 
Q 2466 3031 2466 3422 
Q 2466 3731 2256 3934 
Q 2047 4138 1716 4138 
Q 1388 4138 1169 3931 
Q 950 3725 888 3313 
L 325 3413 
Q 428 3978 793 4289 
Q 1159 4600 1703 4600 
Q 2078 4600 2393 4439 
Q 2709 4278 2876 4000 
Q 3044 3722 3044 3409 
Q 3044 3113 2884 2869 
Q 2725 2625 2413 2481 
Q 2819 2388 3044 2092 
Q 3269 1797 3269 1353 
Q 3269 753 2831 336 
Q 2394 -81 1725 -81 
Q 1122 -81 723 278 
Q 325 638 269 1209 
z
" transform="scale(0.015625)"/>
     </defs>
     <use xlink:href="#ArialMT-53"/>
     <use xlink:href="#ArialMT-63" x="66.699219"/>
     <use xlink:href="#ArialMT-61" x="116.699219"/>
     <use xlink:href="#ArialMT-6c" x="172.314453"/>
     <use xlink:href="#ArialMT-65" x="194.53125"/>
     <use xlink:href="#ArialMT-3a" x="250.146484"/>
     <use xlink:href="#ArialMT-20" x="277.929688"/>
     <use xlink:href="#ArialMT-33" x="305.712891"/>
    </g>
   </g>
  </g>
 </g>
 <defs>
  <clipPath id="p51b779d6db">
   <rect x="75.6225" y="61.44" width="228.5075" height="227.46"/>
  </clipPath>
 </defs>
</svg>
