<?xml version="1.0" encoding="utf-8" standalone="no"?>
<!DOCTYPE svg PUBLIC "-//W3C//DTD SVG 1.1//EN"
  "http://www.w3.org/Graphics/SVG/1.1/DTD/svg11.dtd">
<svg xmlns:xlink="http://www.w3.org/1999/xlink" width="360pt" height="360pt" viewBox="0 0 360 360" xmlns="http://www.w3.org/2000/svg" version="1.1">
 <metadata>
  <rdf:RDF xmlns:dc="http://purl.org/dc/elements/1.1/" xmlns:cc="http://creativecommons.org/ns#" xmlns:rdf="http://www.w3.org/1999/02/22-rdf-syntax-ns#">
   <cc:Work>
    <dc:type rdf:resource="http://purl.org/dc/dcmitype/StillImage"/>
    <dc:date>2025-01-15T19:08:31.632919</dc:date>
    <dc:format>image/svg+xml</dc:format>
    <dc:creator>
     <cc:Agent>
      <dc:title>Matplotlib v3.9.2, https://matplotlib.org/</dc:title>
     </cc:Agent>
    </dc:creator>
   </cc:Work>
  </rdf:RDF>
 </metadata>
 <defs>
  <style type="text/css">*{stroke-linejoin: round; stroke-linecap: butt}</style>
 </defs>
 <g id="figure_1">
  <g id="patch_1">
   <path d="M 0 360 
L 360 360 
L 360 0 
L 0 0 
z
" style="fill: #ffffff"/>
  </g>
  <g id="axes_1">
   <g id="patch_2">
    <path d="M 71.84 305.8 
L 310.48 305.8 
L 310.48 56.4 
L 71.84 56.4 
z
" style="fill: #ffffff"/>
   </g>
   <g id="matplotlib.axis_1">
    <g id="xtick_1">
     <g id="line2d_1">
      <defs>
       <path id="maadb6d5955" d="M 0 0 
L 0 3.5 
" style="stroke: #000000; stroke-width: 0.8"/>
      </defs>
      <g>
       <use xlink:href="#maadb6d5955" x="74.750244" y="305.8" style="stroke: #000000; stroke-width: 0.8"/>
      </g>
     </g>
     <g id="text_1">
      <!-- 0 -->
      <g transform="translate(70.296494 323.437813) scale(0.14 -0.14)">
       <defs>
        <path id="DejaVuSans-30" d="M 2034 4250 
Q 1547 4250 1301 3770 
Q 1056 3291 1056 2328 
Q 1056 1369 1301 889 
Q 1547 409 2034 409 
Q 2525 409 2770 889 
Q 3016 1369 3016 2328 
Q 3016 3291 2770 3770 
Q 2525 4250 2034 4250 
z
M 2034 4750 
Q 2819 4750 3233 4129 
Q 3647 3509 3647 2328 
Q 3647 1150 3233 529 
Q 2819 -91 2034 -91 
Q 1250 -91 836 529 
Q 422 1150 422 2328 
Q 422 3509 836 4129 
Q 1250 4750 2034 4750 
z
" transform="scale(0.015625)"/>
       </defs>
       <use xlink:href="#DejaVuSans-30"/>
      </g>
     </g>
    </g>
    <g id="xtick_2">
     <g id="line2d_2">
      <g>
       <use xlink:href="#maadb6d5955" x="103.852683" y="305.8" style="stroke: #000000; stroke-width: 0.8"/>
      </g>
     </g>
     <g id="text_2">
      <!-- 1 -->
      <g transform="translate(99.398933 323.437813) scale(0.14 -0.14)">
       <defs>
        <path id="DejaVuSans-31" d="M 794 531 
L 1825 531 
L 1825 4091 
L 703 3866 
L 703 4441 
L 1819 4666 
L 2450 4666 
L 2450 531 
L 3481 531 
L 3481 0 
L 794 0 
L 794 531 
z
" transform="scale(0.015625)"/>
       </defs>
       <use xlink:href="#DejaVuSans-31"/>
      </g>
     </g>
    </g>
    <g id="xtick_3">
     <g id="line2d_3">
      <g>
       <use xlink:href="#maadb6d5955" x="132.955122" y="305.8" style="stroke: #000000; stroke-width: 0.8"/>
      </g>
     </g>
     <g id="text_3">
      <!-- 2 -->
      <g transform="translate(128.501372 323.437813) scale(0.14 -0.14)">
       <defs>
        <path id="DejaVuSans-32" d="M 1228 531 
L 3431 531 
L 3431 0 
L 469 0 
L 469 531 
Q 828 903 1448 1529 
Q 2069 2156 2228 2338 
Q 2531 2678 2651 2914 
Q 2772 3150 2772 3378 
Q 2772 3750 2511 3984 
Q 2250 4219 1831 4219 
Q 1534 4219 1204 4116 
Q 875 4013 500 3803 
L 500 4441 
Q 881 4594 1212 4672 
Q 1544 4750 1819 4750 
Q 2544 4750 2975 4387 
Q 3406 4025 3406 3419 
Q 3406 3131 3298 2873 
Q 3191 2616 2906 2266 
Q 2828 2175 2409 1742 
Q 1991 1309 1228 531 
z
" transform="scale(0.015625)"/>
       </defs>
       <use xlink:href="#DejaVuSans-32"/>
      </g>
     </g>
    </g>
    <g id="xtick_4">
     <g id="line2d_4">
      <g>
       <use xlink:href="#maadb6d5955" x="162.057561" y="305.8" style="stroke: #000000; stroke-width: 0.8"/>
      </g>
     </g>
     <g id="text_4">
      <!-- 3 -->
      <g transform="translate(157.603811 323.437813) scale(0.14 -0.14)">
       <defs>
        <path id="DejaVuSans-33" d="M 2597 2516 
Q 3050 2419 3304 2112 
Q 3559 1806 3559 1356 
Q 3559 666 3084 287 
Q 2609 -91 1734 -91 
Q 1441 -91 1130 -33 
Q 819 25 488 141 
L 488 750 
Q 750 597 1062 519 
Q 1375 441 1716 441 
Q 2309 441 2620 675 
Q 2931 909 2931 1356 
Q 2931 1769 2642 2001 
Q 2353 2234 1838 2234 
L 1294 2234 
L 1294 2753 
L 1863 2753 
Q 2328 2753 2575 2939 
Q 2822 3125 2822 3475 
Q 2822 3834 2567 4026 
Q 2313 4219 1838 4219 
Q 1578 4219 1281 4162 
Q 984 4106 628 3988 
L 628 4550 
Q 988 4650 1302 4700 
Q 1616 4750 1894 4750 
Q 2613 4750 3031 4423 
Q 3450 4097 3450 3541 
Q 3450 3153 3228 2886 
Q 3006 2619 2597 2516 
z
" transform="scale(0.015625)"/>
       </defs>
       <use xlink:href="#DejaVuSans-33"/>
      </g>
     </g>
    </g>
    <g id="xtick_5">
     <g id="line2d_5">
      <g>
       <use xlink:href="#maadb6d5955" x="191.16" y="305.8" style="stroke: #000000; stroke-width: 0.8"/>
      </g>
     </g>
     <g id="text_5">
      <!-- 4 -->
      <g transform="translate(186.70625 323.437813) scale(0.14 -0.14)">
       <defs>
        <path id="DejaVuSans-34" d="M 2419 4116 
L 825 1625 
L 2419 1625 
L 2419 4116 
z
M 2253 4666 
L 3047 4666 
L 3047 1625 
L 3713 1625 
L 3713 1100 
L 3047 1100 
L 3047 0 
L 2419 0 
L 2419 1100 
L 313 1100 
L 313 1709 
L 2253 4666 
z
" transform="scale(0.015625)"/>
       </defs>
       <use xlink:href="#DejaVuSans-34"/>
      </g>
     </g>
    </g>
    <g id="xtick_6">
     <g id="line2d_6">
      <g>
       <use xlink:href="#maadb6d5955" x="220.262439" y="305.8" style="stroke: #000000; stroke-width: 0.8"/>
      </g>
     </g>
     <g id="text_6">
      <!-- 5 -->
      <g transform="translate(215.808689 323.437813) scale(0.14 -0.14)">
       <defs>
        <path id="DejaVuSans-35" d="M 691 4666 
L 3169 4666 
L 3169 4134 
L 1269 4134 
L 1269 2991 
Q 1406 3038 1543 3061 
Q 1681 3084 1819 3084 
Q 2600 3084 3056 2656 
Q 3513 2228 3513 1497 
Q 3513 744 3044 326 
Q 2575 -91 1722 -91 
Q 1428 -91 1123 -41 
Q 819 9 494 109 
L 494 744 
Q 775 591 1075 516 
Q 1375 441 1709 441 
Q 2250 441 2565 725 
Q 2881 1009 2881 1497 
Q 2881 1984 2565 2268 
Q 2250 2553 1709 2553 
Q 1456 2553 1204 2497 
Q 953 2441 691 2322 
L 691 4666 
z
" transform="scale(0.015625)"/>
       </defs>
       <use xlink:href="#DejaVuSans-35"/>
      </g>
     </g>
    </g>
    <g id="xtick_7">
     <g id="line2d_7">
      <g>
       <use xlink:href="#maadb6d5955" x="249.364878" y="305.8" style="stroke: #000000; stroke-width: 0.8"/>
      </g>
     </g>
     <g id="text_7">
      <!-- 6 -->
      <g transform="translate(244.911128 323.437813) scale(0.14 -0.14)">
       <defs>
        <path id="DejaVuSans-36" d="M 2113 2584 
Q 1688 2584 1439 2293 
Q 1191 2003 1191 1497 
Q 1191 994 1439 701 
Q 1688 409 2113 409 
Q 2538 409 2786 701 
Q 3034 994 3034 1497 
Q 3034 2003 2786 2293 
Q 2538 2584 2113 2584 
z
M 3366 4563 
L 3366 3988 
Q 3128 4100 2886 4159 
Q 2644 4219 2406 4219 
Q 1781 4219 1451 3797 
Q 1122 3375 1075 2522 
Q 1259 2794 1537 2939 
Q 1816 3084 2150 3084 
Q 2853 3084 3261 2657 
Q 3669 2231 3669 1497 
Q 3669 778 3244 343 
Q 2819 -91 2113 -91 
Q 1303 -91 875 529 
Q 447 1150 447 2328 
Q 447 3434 972 4092 
Q 1497 4750 2381 4750 
Q 2619 4750 2861 4703 
Q 3103 4656 3366 4563 
z
" transform="scale(0.015625)"/>
       </defs>
       <use xlink:href="#DejaVuSans-36"/>
      </g>
     </g>
    </g>
    <g id="xtick_8">
     <g id="line2d_8">
      <g>
       <use xlink:href="#maadb6d5955" x="278.467317" y="305.8" style="stroke: #000000; stroke-width: 0.8"/>
      </g>
     </g>
     <g id="text_8">
      <!-- 7 -->
      <g transform="translate(274.013567 323.437813) scale(0.14 -0.14)">
       <defs>
        <path id="DejaVuSans-37" d="M 525 4666 
L 3525 4666 
L 3525 4397 
L 1831 0 
L 1172 0 
L 2766 4134 
L 525 4134 
L 525 4666 
z
" transform="scale(0.015625)"/>
       </defs>
       <use xlink:href="#DejaVuSans-37"/>
      </g>
     </g>
    </g>
    <g id="xtick_9">
     <g id="line2d_9">
      <g>
       <use xlink:href="#maadb6d5955" x="307.569756" y="305.8" style="stroke: #000000; stroke-width: 0.8"/>
      </g>
     </g>
     <g id="text_9">
      <!-- 8 -->
      <g transform="translate(303.116006 323.437813) scale(0.14 -0.14)">
       <defs>
        <path id="DejaVuSans-38" d="M 2034 2216 
Q 1584 2216 1326 1975 
Q 1069 1734 1069 1313 
Q 1069 891 1326 650 
Q 1584 409 2034 409 
Q 2484 409 2743 651 
Q 3003 894 3003 1313 
Q 3003 1734 2745 1975 
Q 2488 2216 2034 2216 
z
M 1403 2484 
Q 997 2584 770 2862 
Q 544 3141 544 3541 
Q 544 4100 942 4425 
Q 1341 4750 2034 4750 
Q 2731 4750 3128 4425 
Q 3525 4100 3525 3541 
Q 3525 3141 3298 2862 
Q 3072 2584 2669 2484 
Q 3125 2378 3379 2068 
Q 3634 1759 3634 1313 
Q 3634 634 3220 271 
Q 2806 -91 2034 -91 
Q 1263 -91 848 271 
Q 434 634 434 1313 
Q 434 1759 690 2068 
Q 947 2378 1403 2484 
z
M 1172 3481 
Q 1172 3119 1398 2916 
Q 1625 2713 2034 2713 
Q 2441 2713 2670 2916 
Q 2900 3119 2900 3481 
Q 2900 3844 2670 4047 
Q 2441 4250 2034 4250 
Q 1625 4250 1398 4047 
Q 1172 3844 1172 3481 
z
" transform="scale(0.015625)"/>
       </defs>
       <use xlink:href="#DejaVuSans-38"/>
      </g>
     </g>
    </g>
    <g id="text_10">
     <!-- Time (d) -->
     <g transform="translate(151.452969 344.786406) scale(0.19 -0.19)">
      <defs>
       <path id="DejaVuSans-54" d="M -19 4666 
L 3928 4666 
L 3928 4134 
L 2272 4134 
L 2272 0 
L 1638 0 
L 1638 4134 
L -19 4134 
L -19 4666 
z
" transform="scale(0.015625)"/>
       <path id="DejaVuSans-69" d="M 603 3500 
L 1178 3500 
L 1178 0 
L 603 0 
L 603 3500 
z
M 603 4863 
L 1178 4863 
L 1178 4134 
L 603 4134 
L 603 4863 
z
" transform="scale(0.015625)"/>
       <path id="DejaVuSans-6d" d="M 3328 2828 
Q 3544 3216 3844 3400 
Q 4144 3584 4550 3584 
Q 5097 3584 5394 3201 
Q 5691 2819 5691 2113 
L 5691 0 
L 5113 0 
L 5113 2094 
Q 5113 2597 4934 2840 
Q 4756 3084 4391 3084 
Q 3944 3084 3684 2787 
Q 3425 2491 3425 1978 
L 3425 0 
L 2847 0 
L 2847 2094 
Q 2847 2600 2669 2842 
Q 2491 3084 2119 3084 
Q 1678 3084 1418 2786 
Q 1159 2488 1159 1978 
L 1159 0 
L 581 0 
L 581 3500 
L 1159 3500 
L 1159 2956 
Q 1356 3278 1631 3431 
Q 1906 3584 2284 3584 
Q 2666 3584 2933 3390 
Q 3200 3197 3328 2828 
z
" transform="scale(0.015625)"/>
       <path id="DejaVuSans-65" d="M 3597 1894 
L 3597 1613 
L 953 1613 
Q 991 1019 1311 708 
Q 1631 397 2203 397 
Q 2534 397 2845 478 
Q 3156 559 3463 722 
L 3463 178 
Q 3153 47 2828 -22 
Q 2503 -91 2169 -91 
Q 1331 -91 842 396 
Q 353 884 353 1716 
Q 353 2575 817 3079 
Q 1281 3584 2069 3584 
Q 2775 3584 3186 3129 
Q 3597 2675 3597 1894 
z
M 3022 2063 
Q 3016 2534 2758 2815 
Q 2500 3097 2075 3097 
Q 1594 3097 1305 2825 
Q 1016 2553 972 2059 
L 3022 2063 
z
" transform="scale(0.015625)"/>
       <path id="DejaVuSans-20" transform="scale(0.015625)"/>
       <path id="DejaVuSans-28" d="M 1984 4856 
Q 1566 4138 1362 3434 
Q 1159 2731 1159 2009 
Q 1159 1288 1364 580 
Q 1569 -128 1984 -844 
L 1484 -844 
Q 1016 -109 783 600 
Q 550 1309 550 2009 
Q 550 2706 781 3412 
Q 1013 4119 1484 4856 
L 1984 4856 
z
" transform="scale(0.015625)"/>
       <path id="DejaVuSans-64" d="M 2906 2969 
L 2906 4863 
L 3481 4863 
L 3481 0 
L 2906 0 
L 2906 525 
Q 2725 213 2448 61 
Q 2172 -91 1784 -91 
Q 1150 -91 751 415 
Q 353 922 353 1747 
Q 353 2572 751 3078 
Q 1150 3584 1784 3584 
Q 2172 3584 2448 3432 
Q 2725 3281 2906 2969 
z
M 947 1747 
Q 947 1113 1208 752 
Q 1469 391 1925 391 
Q 2381 391 2643 752 
Q 2906 1113 2906 1747 
Q 2906 2381 2643 2742 
Q 2381 3103 1925 3103 
Q 1469 3103 1208 2742 
Q 947 2381 947 1747 
z
" transform="scale(0.015625)"/>
       <path id="DejaVuSans-29" d="M 513 4856 
L 1013 4856 
Q 1481 4119 1714 3412 
Q 1947 2706 1947 2009 
Q 1947 1309 1714 600 
Q 1481 -109 1013 -844 
L 513 -844 
Q 928 -128 1133 580 
Q 1338 1288 1338 2009 
Q 1338 2731 1133 3434 
Q 928 4138 513 4856 
z
" transform="scale(0.015625)"/>
      </defs>
      <use xlink:href="#DejaVuSans-54"/>
      <use xlink:href="#DejaVuSans-69" x="57.958984"/>
      <use xlink:href="#DejaVuSans-6d" x="85.742188"/>
      <use xlink:href="#DejaVuSans-65" x="183.154297"/>
      <use xlink:href="#DejaVuSans-20" x="244.677734"/>
      <use xlink:href="#DejaVuSans-28" x="276.464844"/>
      <use xlink:href="#DejaVuSans-64" x="315.478516"/>
      <use xlink:href="#DejaVuSans-29" x="378.955078"/>
     </g>
    </g>
   </g>
   <g id="matplotlib.axis_2">
    <g id="ytick_1">
     <g id="line2d_10">
      <defs>
       <path id="m5b2d8e2106" d="M 0 0 
L -3.5 0 
" style="stroke: #000000; stroke-width: 0.8"/>
      </defs>
      <g>
       <use xlink:href="#m5b2d8e2106" x="71.84" y="305.8" style="stroke: #000000; stroke-width: 0.8"/>
      </g>
     </g>
     <g id="text_11">
      <!-- 0 -->
      <g transform="translate(55.9325 311.118906) scale(0.14 -0.14)">
       <use xlink:href="#DejaVuSans-30"/>
      </g>
     </g>
    </g>
    <g id="ytick_2">
     <g id="line2d_11">
      <g>
       <use xlink:href="#m5b2d8e2106" x="71.84" y="247.117647" style="stroke: #000000; stroke-width: 0.8"/>
      </g>
     </g>
     <g id="text_12">
      <!-- 5 -->
      <g transform="translate(55.9325 252.436553) scale(0.14 -0.14)">
       <use xlink:href="#DejaVuSans-35"/>
      </g>
     </g>
    </g>
    <g id="ytick_3">
     <g id="line2d_12">
      <g>
       <use xlink:href="#m5b2d8e2106" x="71.84" y="188.435294" style="stroke: #000000; stroke-width: 0.8"/>
      </g>
     </g>
     <g id="text_13">
      <!-- 10 -->
      <g transform="translate(47.025 193.7542) scale(0.14 -0.14)">
       <use xlink:href="#DejaVuSans-31"/>
       <use xlink:href="#DejaVuSans-30" x="63.623047"/>
      </g>
     </g>
    </g>
    <g id="ytick_4">
     <g id="line2d_13">
      <g>
       <use xlink:href="#m5b2d8e2106" x="71.84" y="129.752941" style="stroke: #000000; stroke-width: 0.8"/>
      </g>
     </g>
     <g id="text_14">
      <!-- 15 -->
      <g transform="translate(47.025 135.071847) scale(0.14 -0.14)">
       <use xlink:href="#DejaVuSans-31"/>
       <use xlink:href="#DejaVuSans-35" x="63.623047"/>
      </g>
     </g>
    </g>
    <g id="ytick_5">
     <g id="line2d_14">
      <g>
       <use xlink:href="#m5b2d8e2106" x="71.84" y="71.070588" style="stroke: #000000; stroke-width: 0.8"/>
      </g>
     </g>
     <g id="text_15">
      <!-- 20 -->
      <g transform="translate(47.025 76.389494) scale(0.14 -0.14)">
       <use xlink:href="#DejaVuSans-32"/>
       <use xlink:href="#DejaVuSans-30" x="63.623047"/>
      </g>
     </g>
    </g>
    <g id="text_16">
     <!-- Symptom Score -->
     <g transform="translate(39.073594 256.452812) rotate(-90) scale(0.19 -0.19)">
      <defs>
       <path id="DejaVuSans-53" d="M 3425 4513 
L 3425 3897 
Q 3066 4069 2747 4153 
Q 2428 4238 2131 4238 
Q 1616 4238 1336 4038 
Q 1056 3838 1056 3469 
Q 1056 3159 1242 3001 
Q 1428 2844 1947 2747 
L 2328 2669 
Q 3034 2534 3370 2195 
Q 3706 1856 3706 1288 
Q 3706 609 3251 259 
Q 2797 -91 1919 -91 
Q 1588 -91 1214 -16 
Q 841 59 441 206 
L 441 856 
Q 825 641 1194 531 
Q 1563 422 1919 422 
Q 2459 422 2753 634 
Q 3047 847 3047 1241 
Q 3047 1584 2836 1778 
Q 2625 1972 2144 2069 
L 1759 2144 
Q 1053 2284 737 2584 
Q 422 2884 422 3419 
Q 422 4038 858 4394 
Q 1294 4750 2059 4750 
Q 2388 4750 2728 4690 
Q 3069 4631 3425 4513 
z
" transform="scale(0.015625)"/>
       <path id="DejaVuSans-79" d="M 2059 -325 
Q 1816 -950 1584 -1140 
Q 1353 -1331 966 -1331 
L 506 -1331 
L 506 -850 
L 844 -850 
Q 1081 -850 1212 -737 
Q 1344 -625 1503 -206 
L 1606 56 
L 191 3500 
L 800 3500 
L 1894 763 
L 2988 3500 
L 3597 3500 
L 2059 -325 
z
" transform="scale(0.015625)"/>
       <path id="DejaVuSans-70" d="M 1159 525 
L 1159 -1331 
L 581 -1331 
L 581 3500 
L 1159 3500 
L 1159 2969 
Q 1341 3281 1617 3432 
Q 1894 3584 2278 3584 
Q 2916 3584 3314 3078 
Q 3713 2572 3713 1747 
Q 3713 922 3314 415 
Q 2916 -91 2278 -91 
Q 1894 -91 1617 61 
Q 1341 213 1159 525 
z
M 3116 1747 
Q 3116 2381 2855 2742 
Q 2594 3103 2138 3103 
Q 1681 3103 1420 2742 
Q 1159 2381 1159 1747 
Q 1159 1113 1420 752 
Q 1681 391 2138 391 
Q 2594 391 2855 752 
Q 3116 1113 3116 1747 
z
" transform="scale(0.015625)"/>
       <path id="DejaVuSans-74" d="M 1172 4494 
L 1172 3500 
L 2356 3500 
L 2356 3053 
L 1172 3053 
L 1172 1153 
Q 1172 725 1289 603 
Q 1406 481 1766 481 
L 2356 481 
L 2356 0 
L 1766 0 
Q 1100 0 847 248 
Q 594 497 594 1153 
L 594 3053 
L 172 3053 
L 172 3500 
L 594 3500 
L 594 4494 
L 1172 4494 
z
" transform="scale(0.015625)"/>
       <path id="DejaVuSans-6f" d="M 1959 3097 
Q 1497 3097 1228 2736 
Q 959 2375 959 1747 
Q 959 1119 1226 758 
Q 1494 397 1959 397 
Q 2419 397 2687 759 
Q 2956 1122 2956 1747 
Q 2956 2369 2687 2733 
Q 2419 3097 1959 3097 
z
M 1959 3584 
Q 2709 3584 3137 3096 
Q 3566 2609 3566 1747 
Q 3566 888 3137 398 
Q 2709 -91 1959 -91 
Q 1206 -91 779 398 
Q 353 888 353 1747 
Q 353 2609 779 3096 
Q 1206 3584 1959 3584 
z
" transform="scale(0.015625)"/>
       <path id="DejaVuSans-63" d="M 3122 3366 
L 3122 2828 
Q 2878 2963 2633 3030 
Q 2388 3097 2138 3097 
Q 1578 3097 1268 2742 
Q 959 2388 959 1747 
Q 959 1106 1268 751 
Q 1578 397 2138 397 
Q 2388 397 2633 464 
Q 2878 531 3122 666 
L 3122 134 
Q 2881 22 2623 -34 
Q 2366 -91 2075 -91 
Q 1284 -91 818 406 
Q 353 903 353 1747 
Q 353 2603 823 3093 
Q 1294 3584 2113 3584 
Q 2378 3584 2631 3529 
Q 2884 3475 3122 3366 
z
" transform="scale(0.015625)"/>
       <path id="DejaVuSans-72" d="M 2631 2963 
Q 2534 3019 2420 3045 
Q 2306 3072 2169 3072 
Q 1681 3072 1420 2755 
Q 1159 2438 1159 1844 
L 1159 0 
L 581 0 
L 581 3500 
L 1159 3500 
L 1159 2956 
Q 1341 3275 1631 3429 
Q 1922 3584 2338 3584 
Q 2397 3584 2469 3576 
Q 2541 3569 2628 3553 
L 2631 2963 
z
" transform="scale(0.015625)"/>
      </defs>
      <use xlink:href="#DejaVuSans-53"/>
      <use xlink:href="#DejaVuSans-79" x="63.476562"/>
      <use xlink:href="#DejaVuSans-6d" x="122.65625"/>
      <use xlink:href="#DejaVuSans-70" x="220.068359"/>
      <use xlink:href="#DejaVuSans-74" x="283.544922"/>
      <use xlink:href="#DejaVuSans-6f" x="322.753906"/>
      <use xlink:href="#DejaVuSans-6d" x="383.935547"/>
      <use xlink:href="#DejaVuSans-20" x="481.347656"/>
      <use xlink:href="#DejaVuSans-53" x="513.134766"/>
      <use xlink:href="#DejaVuSans-63" x="576.611328"/>
      <use xlink:href="#DejaVuSans-6f" x="631.591797"/>
      <use xlink:href="#DejaVuSans-72" x="692.773438"/>
      <use xlink:href="#DejaVuSans-65" x="731.636719"/>
     </g>
    </g>
   </g>
   <g id="patch_3">
    <path d="M 71.84 305.8 
L 71.84 56.4 
" style="fill: none; stroke: #000000; stroke-width: 0.8; stroke-linejoin: miter; stroke-linecap: square"/>
   </g>
   <g id="patch_4">
    <path d="M 310.48 305.8 
L 310.48 56.4 
" style="fill: none; stroke: #000000; stroke-width: 0.8; stroke-linejoin: miter; stroke-linecap: square"/>
   </g>
   <g id="patch_5">
    <path d="M 71.84 305.8 
L 310.48 305.8 
" style="fill: none; stroke: #000000; stroke-width: 0.8; stroke-linejoin: miter; stroke-linecap: square"/>
   </g>
   <g id="patch_6">
    <path d="M 71.84 56.4 
L 310.48 56.4 
" style="fill: none; stroke: #000000; stroke-width: 0.8; stroke-linejoin: miter; stroke-linecap: square"/>
   </g>
   <g id="text_17">
    <!-- Volunteer 9.0 -->
    <g transform="translate(127.456563 50.4) scale(0.19 -0.19)">
     <defs>
      <path id="DejaVuSans-56" d="M 1831 0 
L 50 4666 
L 709 4666 
L 2188 738 
L 3669 4666 
L 4325 4666 
L 2547 0 
L 1831 0 
z
" transform="scale(0.015625)"/>
      <path id="DejaVuSans-6c" d="M 603 4863 
L 1178 4863 
L 1178 0 
L 603 0 
L 603 4863 
z
" transform="scale(0.015625)"/>
      <path id="DejaVuSans-75" d="M 544 1381 
L 544 3500 
L 1119 3500 
L 1119 1403 
Q 1119 906 1312 657 
Q 1506 409 1894 409 
Q 2359 409 2629 706 
Q 2900 1003 2900 1516 
L 2900 3500 
L 3475 3500 
L 3475 0 
L 2900 0 
L 2900 538 
Q 2691 219 2414 64 
Q 2138 -91 1772 -91 
Q 1169 -91 856 284 
Q 544 659 544 1381 
z
M 1991 3584 
L 1991 3584 
z
" transform="scale(0.015625)"/>
      <path id="DejaVuSans-6e" d="M 3513 2113 
L 3513 0 
L 2938 0 
L 2938 2094 
Q 2938 2591 2744 2837 
Q 2550 3084 2163 3084 
Q 1697 3084 1428 2787 
Q 1159 2491 1159 1978 
L 1159 0 
L 581 0 
L 581 3500 
L 1159 3500 
L 1159 2956 
Q 1366 3272 1645 3428 
Q 1925 3584 2291 3584 
Q 2894 3584 3203 3211 
Q 3513 2838 3513 2113 
z
" transform="scale(0.015625)"/>
      <path id="DejaVuSans-39" d="M 703 97 
L 703 672 
Q 941 559 1184 500 
Q 1428 441 1663 441 
Q 2288 441 2617 861 
Q 2947 1281 2994 2138 
Q 2813 1869 2534 1725 
Q 2256 1581 1919 1581 
Q 1219 1581 811 2004 
Q 403 2428 403 3163 
Q 403 3881 828 4315 
Q 1253 4750 1959 4750 
Q 2769 4750 3195 4129 
Q 3622 3509 3622 2328 
Q 3622 1225 3098 567 
Q 2575 -91 1691 -91 
Q 1453 -91 1209 -44 
Q 966 3 703 97 
z
M 1959 2075 
Q 2384 2075 2632 2365 
Q 2881 2656 2881 3163 
Q 2881 3666 2632 3958 
Q 2384 4250 1959 4250 
Q 1534 4250 1286 3958 
Q 1038 3666 1038 3163 
Q 1038 2656 1286 2365 
Q 1534 2075 1959 2075 
z
" transform="scale(0.015625)"/>
      <path id="DejaVuSans-2e" d="M 684 794 
L 1344 794 
L 1344 0 
L 684 0 
L 684 794 
z
" transform="scale(0.015625)"/>
     </defs>
     <use xlink:href="#DejaVuSans-56"/>
     <use xlink:href="#DejaVuSans-6f" x="60.658203"/>
     <use xlink:href="#DejaVuSans-6c" x="121.839844"/>
     <use xlink:href="#DejaVuSans-75" x="149.623047"/>
     <use xlink:href="#DejaVuSans-6e" x="213.001953"/>
     <use xlink:href="#DejaVuSans-74" x="276.380859"/>
     <use xlink:href="#DejaVuSans-65" x="315.589844"/>
     <use xlink:href="#DejaVuSans-65" x="377.113281"/>
     <use xlink:href="#DejaVuSans-72" x="438.636719"/>
     <use xlink:href="#DejaVuSans-20" x="479.75"/>
     <use xlink:href="#DejaVuSans-39" x="511.537109"/>
     <use xlink:href="#DejaVuSans-2e" x="575.160156"/>
     <use xlink:href="#DejaVuSans-30" x="606.947266"/>
    </g>
   </g>
   <g id="PathCollection_1">
    <defs>
     <path id="m4e019fd8e4" d="M 0 4.330127 
C 1.148363 4.330127 2.249847 3.873878 3.061862 3.061862 
C 3.873878 2.249847 4.330127 1.148363 4.330127 0 
C 4.330127 -1.148363 3.873878 -2.249847 3.061862 -3.061862 
C 2.249847 -3.873878 1.148363 -4.330127 0 -4.330127 
C -1.148363 -4.330127 -2.249847 -3.873878 -3.061862 -3.061862 
C -3.873878 -2.249847 -4.330127 -1.148363 -4.330127 0 
C -4.330127 1.148363 -3.873878 2.249847 -3.061862 3.061862 
C -2.249847 3.873878 -1.148363 4.330127 0 4.330127 
z
" style="stroke: #000000; stroke-opacity: 0.8"/>
    </defs>
    <g clip-path="url(#p86e8a349c1)">
     <use xlink:href="#m4e019fd8e4" x="74.750244" y="305.8" style="fill-opacity: 0.8; stroke: #000000; stroke-opacity: 0.8"/>
     <use xlink:href="#m4e019fd8e4" x="103.852683" y="284.674353" style="fill-opacity: 0.8; stroke: #000000; stroke-opacity: 0.8"/>
     <use xlink:href="#m4e019fd8e4" x="132.955122" y="174.787455" style="fill-opacity: 0.8; stroke: #000000; stroke-opacity: 0.8"/>
     <use xlink:href="#m4e019fd8e4" x="162.057561" y="242.351203" style="fill-opacity: 0.8; stroke: #000000; stroke-opacity: 0.8"/>
     <use xlink:href="#m4e019fd8e4" x="191.16" y="292.348568" style="fill-opacity: 0.8; stroke: #000000; stroke-opacity: 0.8"/>
     <use xlink:href="#m4e019fd8e4" x="220.262439" y="291.433602" style="fill-opacity: 0.8; stroke: #000000; stroke-opacity: 0.8"/>
     <use xlink:href="#m4e019fd8e4" x="249.364878" y="304.391624" style="fill-opacity: 0.8; stroke: #000000; stroke-opacity: 0.8"/>
     <use xlink:href="#m4e019fd8e4" x="278.467317" y="305.8" style="fill-opacity: 0.8; stroke: #000000; stroke-opacity: 0.8"/>
    </g>
   </g>
  </g>
  <g id="axes_2">
   <g id="matplotlib.axis_3">
    <g id="ytick_6">
     <g id="line2d_15">
      <defs>
       <path id="m7e831890a0" d="M 0 0 
L 3.5 0 
" style="stroke: #000000; stroke-width: 0.8"/>
      </defs>
      <g>
       <use xlink:href="#m7e831890a0" x="310.48" y="305.8" style="stroke: #000000; stroke-width: 0.8"/>
      </g>
     </g>
     <g id="text_18">
      <!-- 0 -->
      <g transform="translate(317.48 311.118906) scale(0.14 -0.14)">
       <use xlink:href="#DejaVuSans-30"/>
      </g>
     </g>
    </g>
    <g id="ytick_7">
     <g id="line2d_16">
      <g>
       <use xlink:href="#m7e831890a0" x="310.48" y="250.377778" style="stroke: #000000; stroke-width: 0.8"/>
      </g>
     </g>
     <g id="text_19">
      <!-- 2 -->
      <g transform="translate(317.48 255.696684) scale(0.14 -0.14)">
       <use xlink:href="#DejaVuSans-32"/>
      </g>
     </g>
    </g>
    <g id="ytick_8">
     <g id="line2d_17">
      <g>
       <use xlink:href="#m7e831890a0" x="310.48" y="194.955556" style="stroke: #000000; stroke-width: 0.8"/>
      </g>
     </g>
     <g id="text_20">
      <!-- 4 -->
      <g transform="translate(317.48 200.274462) scale(0.14 -0.14)">
       <use xlink:href="#DejaVuSans-34"/>
      </g>
     </g>
    </g>
    <g id="ytick_9">
     <g id="line2d_18">
      <g>
       <use xlink:href="#m7e831890a0" x="310.48" y="139.533333" style="stroke: #000000; stroke-width: 0.8"/>
      </g>
     </g>
     <g id="text_21">
      <!-- 6 -->
      <g transform="translate(317.48 144.85224) scale(0.14 -0.14)">
       <use xlink:href="#DejaVuSans-36"/>
      </g>
     </g>
    </g>
    <g id="ytick_10">
     <g id="line2d_19">
      <g>
       <use xlink:href="#m7e831890a0" x="310.48" y="84.111111" style="stroke: #000000; stroke-width: 0.8"/>
      </g>
     </g>
     <g id="text_22">
      <!-- 8 -->
      <g transform="translate(317.48 89.430017) scale(0.14 -0.14)">
       <use xlink:href="#DejaVuSans-38"/>
      </g>
     </g>
    </g>
    <g id="text_23">
     <!-- CAUC Infected Cells -->
     <g style="fill: #1e90ff" transform="translate(344.824531 275.400859) rotate(-90) scale(0.19 -0.19)">
      <defs>
       <path id="DejaVuSans-43" d="M 4122 4306 
L 4122 3641 
Q 3803 3938 3442 4084 
Q 3081 4231 2675 4231 
Q 1875 4231 1450 3742 
Q 1025 3253 1025 2328 
Q 1025 1406 1450 917 
Q 1875 428 2675 428 
Q 3081 428 3442 575 
Q 3803 722 4122 1019 
L 4122 359 
Q 3791 134 3420 21 
Q 3050 -91 2638 -91 
Q 1578 -91 968 557 
Q 359 1206 359 2328 
Q 359 3453 968 4101 
Q 1578 4750 2638 4750 
Q 3056 4750 3426 4639 
Q 3797 4528 4122 4306 
z
" transform="scale(0.015625)"/>
       <path id="DejaVuSans-41" d="M 2188 4044 
L 1331 1722 
L 3047 1722 
L 2188 4044 
z
M 1831 4666 
L 2547 4666 
L 4325 0 
L 3669 0 
L 3244 1197 
L 1141 1197 
L 716 0 
L 50 0 
L 1831 4666 
z
" transform="scale(0.015625)"/>
       <path id="DejaVuSans-55" d="M 556 4666 
L 1191 4666 
L 1191 1831 
Q 1191 1081 1462 751 
Q 1734 422 2344 422 
Q 2950 422 3222 751 
Q 3494 1081 3494 1831 
L 3494 4666 
L 4128 4666 
L 4128 1753 
Q 4128 841 3676 375 
Q 3225 -91 2344 -91 
Q 1459 -91 1007 375 
Q 556 841 556 1753 
L 556 4666 
z
" transform="scale(0.015625)"/>
       <path id="DejaVuSans-49" d="M 628 4666 
L 1259 4666 
L 1259 0 
L 628 0 
L 628 4666 
z
" transform="scale(0.015625)"/>
       <path id="DejaVuSans-66" d="M 2375 4863 
L 2375 4384 
L 1825 4384 
Q 1516 4384 1395 4259 
Q 1275 4134 1275 3809 
L 1275 3500 
L 2222 3500 
L 2222 3053 
L 1275 3053 
L 1275 0 
L 697 0 
L 697 3053 
L 147 3053 
L 147 3500 
L 697 3500 
L 697 3744 
Q 697 4328 969 4595 
Q 1241 4863 1831 4863 
L 2375 4863 
z
" transform="scale(0.015625)"/>
       <path id="DejaVuSans-73" d="M 2834 3397 
L 2834 2853 
Q 2591 2978 2328 3040 
Q 2066 3103 1784 3103 
Q 1356 3103 1142 2972 
Q 928 2841 928 2578 
Q 928 2378 1081 2264 
Q 1234 2150 1697 2047 
L 1894 2003 
Q 2506 1872 2764 1633 
Q 3022 1394 3022 966 
Q 3022 478 2636 193 
Q 2250 -91 1575 -91 
Q 1294 -91 989 -36 
Q 684 19 347 128 
L 347 722 
Q 666 556 975 473 
Q 1284 391 1588 391 
Q 1994 391 2212 530 
Q 2431 669 2431 922 
Q 2431 1156 2273 1281 
Q 2116 1406 1581 1522 
L 1381 1569 
Q 847 1681 609 1914 
Q 372 2147 372 2553 
Q 372 3047 722 3315 
Q 1072 3584 1716 3584 
Q 2034 3584 2315 3537 
Q 2597 3491 2834 3397 
z
" transform="scale(0.015625)"/>
      </defs>
      <use xlink:href="#DejaVuSans-43"/>
      <use xlink:href="#DejaVuSans-41" x="69.824219"/>
      <use xlink:href="#DejaVuSans-55" x="138.232422"/>
      <use xlink:href="#DejaVuSans-43" x="211.425781"/>
      <use xlink:href="#DejaVuSans-20" x="281.25"/>
      <use xlink:href="#DejaVuSans-49" x="313.037109"/>
      <use xlink:href="#DejaVuSans-6e" x="342.529297"/>
      <use xlink:href="#DejaVuSans-66" x="405.908203"/>
      <use xlink:href="#DejaVuSans-65" x="441.113281"/>
      <use xlink:href="#DejaVuSans-63" x="502.636719"/>
      <use xlink:href="#DejaVuSans-74" x="557.617188"/>
      <use xlink:href="#DejaVuSans-65" x="596.826172"/>
      <use xlink:href="#DejaVuSans-64" x="658.349609"/>
      <use xlink:href="#DejaVuSans-20" x="721.826172"/>
      <use xlink:href="#DejaVuSans-43" x="753.613281"/>
      <use xlink:href="#DejaVuSans-65" x="823.4375"/>
      <use xlink:href="#DejaVuSans-6c" x="884.960938"/>
      <use xlink:href="#DejaVuSans-6c" x="912.744141"/>
      <use xlink:href="#DejaVuSans-73" x="940.527344"/>
     </g>
    </g>
    <g id="text_24">
     <!-- 1e7 -->
     <g transform="translate(291.601875 53.4) scale(0.1 -0.1)">
      <use xlink:href="#DejaVuSans-31"/>
      <use xlink:href="#DejaVuSans-65" x="63.623047"/>
      <use xlink:href="#DejaVuSans-37" x="125.146484"/>
     </g>
    </g>
   </g>
   <g id="PolyCollection_1">
    <defs>
     <path id="mac68c93f34" d="M 74.750244 -54.2 
L 74.750244 -54.2 
L 74.750612 -54.2 
L 74.754288 -54.2 
L 74.791054 -54.2 
L 75.006093 -54.200001 
L 75.145019 -54.200001 
L 75.712652 -54.200003 
L 76.070495 -54.200005 
L 77.265515 -54.20001 
L 77.897989 -54.200013 
L 79.869839 -54.200028 
L 80.643327 -54.200035 
L 82.333111 -54.200059 
L 83.25889 -54.200077 
L 85.083104 -54.200129 
L 86.112444 -54.200171 
L 87.908126 -54.20028 
L 89.029451 -54.200377 
L 90.843182 -54.200614 
L 92.032738 -54.20084 
L 93.840497 -54.201361 
L 95.082737 -54.201885 
L 96.887481 -54.203046 
L 98.167731 -54.204255 
L 100.142536 -54.207202 
L 101.400012 -54.209984 
L 103.122698 -54.215752 
L 104.426894 -54.222122 
L 106.298832 -54.236356 
L 107.595771 -54.250874 
L 109.349822 -54.280834 
L 110.678278 -54.313968 
L 112.56939 -54.387516 
L 113.891255 -54.462798 
L 115.685556 -54.618271 
L 117.045243 -54.788284 
L 118.994748 -55.160623 
L 120.368917 -55.533339 
L 122.487347 -56.387159 
L 123.858183 -57.131903 
L 125.759522 -58.494922 
L 127.191067 -59.743068 
L 129.284042 -61.876413 
L 130.766521 -63.510431 
L 133.102219 -66.117927 
L 134.597282 -67.721205 
L 136.983545 -70.027969 
L 138.534294 -71.358693 
L 141.035598 -73.154762 
L 142.669921 -74.147392 
L 145.424569 -75.470814 
L 147.239118 -76.176048 
L 150.149362 -77.032514 
L 152.349078 -77.52777 
L 155.259322 -78.008119 
L 158.169565 -78.351542 
L 161.079809 -78.59245 
L 163.990053 -78.760073 
L 166.900297 -78.875681 
L 169.810541 -78.954548 
L 172.720785 -79.007558 
L 175.631029 -79.042456 
L 178.541273 -79.064574 
L 181.451517 -79.077989 
L 184.361761 -79.085978 
L 187.272004 -79.09062 
L 190.182248 -79.093308 
L 193.092492 -79.094799 
L 196.002736 -79.095693 
L 198.91298 -79.096258 
L 201.823224 -79.096623 
L 204.733468 -79.096862 
L 207.643712 -79.09702 
L 210.553956 -79.097125 
L 213.4642 -79.097195 
L 216.374443 -79.097242 
L 218.954401 -79.097271 
L 221.650379 -77.335636 
L 224.346356 -69.634384 
L 226.749215 -62.770444 
L 229.214215 -56.726247 
L 231.679215 -54.2 
L 234.144215 -54.2 
L 236.609215 -54.2 
L 239.074215 -54.2 
L 241.539216 -54.2 
L 244.004216 -54.2 
L 246.469216 -54.2 
L 248.934216 -54.2 
L 251.399216 -54.2 
L 253.868999 -54.2 
L 256.603353 -54.2 
L 259.513596 -54.2 
L 262.42384 -54.2 
L 265.334084 -54.2 
L 268.244328 -54.2 
L 271.154572 -54.2 
L 274.064816 -54.2 
L 276.97506 -54.2 
L 279.885304 -54.2 
L 282.795548 -54.2 
L 285.705792 -54.2 
L 288.616036 -54.2 
L 291.526279 -54.2 
L 294.436523 -54.2 
L 297.346767 -54.2 
L 300.257011 -54.2 
L 303.167255 -54.2 
L 306.077499 -54.2 
L 307.569756 -54.2 
L 307.569756 -54.2 
L 307.569756 -54.2 
L 306.077499 -54.2 
L 303.167255 -54.2 
L 300.257011 -54.2 
L 297.346767 -54.2 
L 294.436523 -54.2 
L 291.526279 -54.2 
L 288.616036 -54.2 
L 285.705792 -54.2 
L 282.795548 -54.2 
L 279.885304 -54.2 
L 276.97506 -54.2 
L 274.064816 -54.2 
L 271.154572 -54.2 
L 268.244328 -54.2 
L 265.334084 -54.2 
L 262.42384 -54.2 
L 259.513596 -54.2 
L 256.603353 -54.2 
L 253.868999 -54.2 
L 251.399216 -54.2 
L 248.934216 -54.2 
L 246.469216 -54.2 
L 244.004216 -54.2 
L 241.539216 -54.2 
L 239.074215 -54.2 
L 236.609215 -54.2 
L 234.144215 -54.2 
L 231.679215 -56.052461 
L 229.214215 -61.588839 
L 226.749215 -68.630294 
L 224.346356 -75.494234 
L 221.650379 -79.773664 
L 218.954401 -79.773645 
L 216.374443 -79.773619 
L 213.4642 -79.773576 
L 210.553956 -79.773511 
L 207.643712 -79.773414 
L 204.733468 -79.773269 
L 201.823224 -79.773048 
L 198.91298 -79.772709 
L 196.002736 -79.772178 
L 193.092492 -79.771325 
L 190.182248 -79.7699 
L 187.272004 -79.76743 
L 184.361761 -79.763066 
L 181.451517 -79.755413 
L 178.541273 -79.742389 
L 175.631029 -79.72111 
L 172.720785 -79.687681 
L 169.810541 -79.636808 
L 166.900297 -79.561185 
L 163.990053 -79.450629 
L 161.079809 -79.290937 
L 158.169565 -79.062436 
L 155.259322 -78.738181 
L 152.349078 -78.28188 
L 150.149362 -77.835871 
L 147.239118 -77.013131 
L 145.424569 -76.391651 
L 142.669921 -75.128797 
L 141.035598 -74.23532 
L 138.534294 -72.526061 
L 136.983545 -71.295005 
L 134.597282 -69.069658 
L 133.102219 -67.513147 
L 130.766521 -64.881691 
L 129.284042 -63.174676 
L 127.191067 -60.870712 
L 125.759522 -59.440317 
L 123.858183 -57.860266 
L 122.487347 -56.933477 
L 120.368917 -55.894769 
L 118.994748 -55.408654 
L 117.045243 -54.943216 
L 115.685556 -54.72152 
L 113.891255 -54.52944 
L 112.56939 -54.430788 
L 110.678278 -54.339673 
L 109.349822 -54.297587 
L 107.595771 -54.261582 
L 106.298832 -54.243209 
L 104.426894 -54.226103 
L 103.122698 -54.218328 
L 101.400012 -54.211652 
L 100.142536 -54.208254 
L 98.167731 -54.204838 
L 96.887481 -54.203405 
L 95.082737 -54.202112 
L 93.840497 -54.201502 
L 92.032738 -54.200924 
L 90.843182 -54.200667 
L 89.029451 -54.200408 
L 87.908126 -54.200299 
L 86.112444 -54.200183 
L 85.083104 -54.200136 
L 83.25889 -54.200081 
L 82.333111 -54.200061 
L 80.643327 -54.200037 
L 79.869839 -54.200028 
L 77.897989 -54.200014 
L 77.265515 -54.20001 
L 76.070495 -54.200005 
L 75.712652 -54.200003 
L 75.145019 -54.200001 
L 75.006093 -54.200001 
L 74.791054 -54.2 
L 74.754288 -54.2 
L 74.750612 -54.2 
L 74.750244 -54.2 
z
" style="stroke: #1e90ff; stroke-opacity: 0.2"/>
    </defs>
    <g clip-path="url(#p86e8a349c1)">
     <use xlink:href="#mac68c93f34" x="0" y="360" style="fill: #1e90ff; fill-opacity: 0.2; stroke: #1e90ff; stroke-opacity: 0.2"/>
    </g>
   </g>
   <g id="patch_7">
    <path d="M 71.84 305.8 
L 71.84 56.4 
" style="fill: none; stroke: #000000; stroke-width: 0.8; stroke-linejoin: miter; stroke-linecap: square"/>
   </g>
   <g id="patch_8">
    <path d="M 310.48 305.8 
L 310.48 56.4 
" style="fill: none; stroke: #000000; stroke-width: 0.8; stroke-linejoin: miter; stroke-linecap: square"/>
   </g>
   <g id="patch_9">
    <path d="M 71.84 305.8 
L 310.48 305.8 
" style="fill: none; stroke: #000000; stroke-width: 0.8; stroke-linejoin: miter; stroke-linecap: square"/>
   </g>
   <g id="patch_10">
    <path d="M 71.84 56.4 
L 310.48 56.4 
" style="fill: none; stroke: #000000; stroke-width: 0.8; stroke-linejoin: miter; stroke-linecap: square"/>
   </g>
   <g id="line2d_20">
    <path d="M 74.750244 305.8 
L 74.750612 305.8 
L 74.754288 305.8 
L 74.791054 305.8 
L 75.006093 305.799999 
L 75.145019 305.799999 
L 75.712652 305.799997 
L 76.070495 305.799995 
L 77.265515 305.79999 
L 77.897989 305.799987 
L 79.869839 305.799972 
L 80.643327 305.799964 
L 82.333111 305.79994 
L 83.25889 305.799922 
L 85.083104 305.799869 
L 86.112444 305.799826 
L 87.908126 305.799715 
L 89.029451 305.799614 
L 90.843182 305.79937 
L 92.032738 305.799135 
L 93.840497 305.798596 
L 95.082737 305.798048 
L 96.887481 305.796838 
L 98.167731 305.795563 
L 100.142536 305.792473 
L 101.400012 305.789511 
L 103.122698 305.783416 
L 104.426894 305.776602 
L 106.298832 305.761476 
L 107.595771 305.745799 
L 109.349822 305.713735 
L 110.678278 305.67776 
L 112.56939 305.598671 
L 113.891255 305.516219 
L 115.685556 305.34806 
L 117.045243 305.161368 
L 118.994748 304.75831 
L 120.368917 304.348098 
L 122.487347 303.428946 
L 123.858183 302.615118 
L 125.759522 301.166048 
L 127.191067 299.839133 
L 129.284042 297.63128 
L 130.766521 295.955047 
L 133.102219 293.340207 
L 134.597282 291.758916 
L 136.983545 289.49996 
L 138.534294 288.225563 
L 141.035598 286.49081 
L 142.669921 285.557785 
L 145.424569 284.288917 
L 147.239118 283.6349 
L 150.149362 282.82015 
L 152.349078 282.361821 
L 155.259322 281.909418 
L 158.169565 281.590228 
L 161.079809 281.366879 
L 163.990053 281.21185 
L 166.900297 281.10521 
L 169.810541 281.032696 
L 172.720785 280.984166 
L 175.631029 280.952407 
L 178.541273 280.932242 
L 181.451517 280.919893 
L 184.361761 280.912593 
L 187.272004 280.908372 
L 190.182248 280.905928 
L 193.092492 280.90448 
L 196.002736 280.903593 
L 198.91298 280.903032 
L 201.823224 280.90267 
L 204.733468 280.902433 
L 207.643712 280.902276 
L 210.553956 280.902172 
L 213.4642 280.902102 
L 216.374443 280.902055 
L 218.954401 280.902027 
L 221.650379 280.902006 
L 224.346356 288.603257 
L 226.749215 295.467196 
L 229.214215 302.50865 
L 231.679215 305.8 
L 234.144215 305.8 
L 236.609215 305.8 
L 239.074215 305.8 
L 241.539216 305.8 
L 244.004216 305.8 
L 246.469216 305.8 
L 248.934216 305.8 
L 251.399216 305.8 
L 253.868999 305.8 
L 256.603353 305.8 
L 259.513596 305.8 
L 262.42384 305.8 
L 265.334084 305.8 
L 268.244328 305.8 
L 271.154572 305.8 
L 274.064816 305.8 
L 276.97506 305.8 
L 279.885304 305.8 
L 282.795548 305.8 
L 285.705792 305.8 
L 288.616036 305.8 
L 291.526279 305.8 
L 294.436523 305.8 
L 297.346767 305.8 
L 300.257011 305.8 
L 303.167255 305.8 
L 306.077499 305.8 
L 307.569756 305.8 
" clip-path="url(#p86e8a349c1)" style="fill: none; stroke: #1e90ff; stroke-width: 1.5; stroke-linecap: square"/>
   </g>
   <g id="text_25">
    <g id="patch_11">
     <path d="M 215.578 88.355 
L 302.548 88.355 
L 302.548 64.87 
L 215.578 64.87 
z
" style="fill: #ffffff; opacity: 0.5; stroke: #000000; stroke-linejoin: miter"/>
    </g>
    <!-- Scale: 0.5 -->
    <g transform="translate(219.578 81.0275) scale(0.16 -0.16)">
     <defs>
      <path id="DejaVuSans-61" d="M 2194 1759 
Q 1497 1759 1228 1600 
Q 959 1441 959 1056 
Q 959 750 1161 570 
Q 1363 391 1709 391 
Q 2188 391 2477 730 
Q 2766 1069 2766 1631 
L 2766 1759 
L 2194 1759 
z
M 3341 1997 
L 3341 0 
L 2766 0 
L 2766 531 
Q 2569 213 2275 61 
Q 1981 -91 1556 -91 
Q 1019 -91 701 211 
Q 384 513 384 1019 
Q 384 1609 779 1909 
Q 1175 2209 1959 2209 
L 2766 2209 
L 2766 2266 
Q 2766 2663 2505 2880 
Q 2244 3097 1772 3097 
Q 1472 3097 1187 3025 
Q 903 2953 641 2809 
L 641 3341 
Q 956 3463 1253 3523 
Q 1550 3584 1831 3584 
Q 2591 3584 2966 3190 
Q 3341 2797 3341 1997 
z
" transform="scale(0.015625)"/>
      <path id="DejaVuSans-3a" d="M 750 794 
L 1409 794 
L 1409 0 
L 750 0 
L 750 794 
z
M 750 3309 
L 1409 3309 
L 1409 2516 
L 750 2516 
L 750 3309 
z
" transform="scale(0.015625)"/>
     </defs>
     <use xlink:href="#DejaVuSans-53"/>
     <use xlink:href="#DejaVuSans-63" x="63.476562"/>
     <use xlink:href="#DejaVuSans-61" x="118.457031"/>
     <use xlink:href="#DejaVuSans-6c" x="179.736328"/>
     <use xlink:href="#DejaVuSans-65" x="207.519531"/>
     <use xlink:href="#DejaVuSans-3a" x="269.042969"/>
     <use xlink:href="#DejaVuSans-20" x="302.734375"/>
     <use xlink:href="#DejaVuSans-30" x="334.521484"/>
     <use xlink:href="#DejaVuSans-2e" x="398.144531"/>
     <use xlink:href="#DejaVuSans-35" x="429.931641"/>
    </g>
   </g>
  </g>
 </g>
 <defs>
  <clipPath id="p86e8a349c1">
   <rect x="71.84" y="56.4" width="238.64" height="249.4"/>
  </clipPath>
 </defs>
</svg>
