<?xml version="1.0" encoding="utf-8" standalone="no"?>
<!DOCTYPE svg PUBLIC "-//W3C//DTD SVG 1.1//EN"
  "http://www.w3.org/Graphics/SVG/1.1/DTD/svg11.dtd">
<svg xmlns:xlink="http://www.w3.org/1999/xlink" width="360pt" height="360pt" viewBox="0 0 360 360" xmlns="http://www.w3.org/2000/svg" version="1.1">
 <metadata>
  <rdf:RDF xmlns:dc="http://purl.org/dc/elements/1.1/" xmlns:cc="http://creativecommons.org/ns#" xmlns:rdf="http://www.w3.org/1999/02/22-rdf-syntax-ns#">
   <cc:Work>
    <dc:type rdf:resource="http://purl.org/dc/dcmitype/StillImage"/>
    <dc:date>2025-01-23T09:50:07.916833</dc:date>
    <dc:format>image/svg+xml</dc:format>
    <dc:creator>
     <cc:Agent>
      <dc:title>Matplotlib v3.9.2, https://matplotlib.org/</dc:title>
     </cc:Agent>
    </dc:creator>
   </cc:Work>
  </rdf:RDF>
 </metadata>
 <defs>
  <style type="text/css">*{stroke-linejoin: round; stroke-linecap: butt}</style>
 </defs>
 <g id="figure_1">
  <g id="patch_1">
   <path d="M 0 360 
L 360 360 
L 360 0 
L 0 0 
z
" style="fill: #ffffff"/>
  </g>
  <g id="axes_1">
   <g id="patch_2">
    <path d="M 76.25 290.68 
L 306.81 290.68 
L 306.81 60.72 
L 76.25 60.72 
z
" style="fill: #ffffff"/>
   </g>
   <g id="matplotlib.axis_1">
    <g id="xtick_1">
     <g id="line2d_1">
      <defs>
       <path id="mca33d381c9" d="M 0 0 
L 0 3.5 
" style="stroke: #000000; stroke-width: 0.8"/>
      </defs>
      <g>
       <use xlink:href="#mca33d381c9" x="83.031176" y="290.68" style="stroke: #000000; stroke-width: 0.8"/>
      </g>
     </g>
     <g id="text_1">
      <!-- 0 -->
      <g transform="translate(75.396176 315.91625) scale(0.24 -0.24)">
       <defs>
        <path id="DejaVuSans-30" d="M 2034 4250 
Q 1547 4250 1301 3770 
Q 1056 3291 1056 2328 
Q 1056 1369 1301 889 
Q 1547 409 2034 409 
Q 2525 409 2770 889 
Q 3016 1369 3016 2328 
Q 3016 3291 2770 3770 
Q 2525 4250 2034 4250 
z
M 2034 4750 
Q 2819 4750 3233 4129 
Q 3647 3509 3647 2328 
Q 3647 1150 3233 529 
Q 2819 -91 2034 -91 
Q 1250 -91 836 529 
Q 422 1150 422 2328 
Q 422 3509 836 4129 
Q 1250 4750 2034 4750 
z
" transform="scale(0.015625)"/>
       </defs>
       <use xlink:href="#DejaVuSans-30"/>
      </g>
     </g>
    </g>
    <g id="xtick_2">
     <g id="line2d_2">
      <g>
       <use xlink:href="#mca33d381c9" x="137.280588" y="290.68" style="stroke: #000000; stroke-width: 0.8"/>
      </g>
     </g>
     <g id="text_2">
      <!-- 2 -->
      <g transform="translate(129.645588 315.91625) scale(0.24 -0.24)">
       <defs>
        <path id="DejaVuSans-32" d="M 1228 531 
L 3431 531 
L 3431 0 
L 469 0 
L 469 531 
Q 828 903 1448 1529 
Q 2069 2156 2228 2338 
Q 2531 2678 2651 2914 
Q 2772 3150 2772 3378 
Q 2772 3750 2511 3984 
Q 2250 4219 1831 4219 
Q 1534 4219 1204 4116 
Q 875 4013 500 3803 
L 500 4441 
Q 881 4594 1212 4672 
Q 1544 4750 1819 4750 
Q 2544 4750 2975 4387 
Q 3406 4025 3406 3419 
Q 3406 3131 3298 2873 
Q 3191 2616 2906 2266 
Q 2828 2175 2409 1742 
Q 1991 1309 1228 531 
z
" transform="scale(0.015625)"/>
       </defs>
       <use xlink:href="#DejaVuSans-32"/>
      </g>
     </g>
    </g>
    <g id="xtick_3">
     <g id="line2d_3">
      <g>
       <use xlink:href="#mca33d381c9" x="191.53" y="290.68" style="stroke: #000000; stroke-width: 0.8"/>
      </g>
     </g>
     <g id="text_3">
      <!-- 4 -->
      <g transform="translate(183.895 315.91625) scale(0.24 -0.24)">
       <defs>
        <path id="DejaVuSans-34" d="M 2419 4116 
L 825 1625 
L 2419 1625 
L 2419 4116 
z
M 2253 4666 
L 3047 4666 
L 3047 1625 
L 3713 1625 
L 3713 1100 
L 3047 1100 
L 3047 0 
L 2419 0 
L 2419 1100 
L 313 1100 
L 313 1709 
L 2253 4666 
z
" transform="scale(0.015625)"/>
       </defs>
       <use xlink:href="#DejaVuSans-34"/>
      </g>
     </g>
    </g>
    <g id="xtick_4">
     <g id="line2d_4">
      <g>
       <use xlink:href="#mca33d381c9" x="245.779412" y="290.68" style="stroke: #000000; stroke-width: 0.8"/>
      </g>
     </g>
     <g id="text_4">
      <!-- 6 -->
      <g transform="translate(238.144412 315.91625) scale(0.24 -0.24)">
       <defs>
        <path id="DejaVuSans-36" d="M 2113 2584 
Q 1688 2584 1439 2293 
Q 1191 2003 1191 1497 
Q 1191 994 1439 701 
Q 1688 409 2113 409 
Q 2538 409 2786 701 
Q 3034 994 3034 1497 
Q 3034 2003 2786 2293 
Q 2538 2584 2113 2584 
z
M 3366 4563 
L 3366 3988 
Q 3128 4100 2886 4159 
Q 2644 4219 2406 4219 
Q 1781 4219 1451 3797 
Q 1122 3375 1075 2522 
Q 1259 2794 1537 2939 
Q 1816 3084 2150 3084 
Q 2853 3084 3261 2657 
Q 3669 2231 3669 1497 
Q 3669 778 3244 343 
Q 2819 -91 2113 -91 
Q 1303 -91 875 529 
Q 447 1150 447 2328 
Q 447 3434 972 4092 
Q 1497 4750 2381 4750 
Q 2619 4750 2861 4703 
Q 3103 4656 3366 4563 
z
" transform="scale(0.015625)"/>
       </defs>
       <use xlink:href="#DejaVuSans-36"/>
      </g>
     </g>
    </g>
    <g id="xtick_5">
     <g id="line2d_5">
      <g>
       <use xlink:href="#mca33d381c9" x="300.028824" y="290.68" style="stroke: #000000; stroke-width: 0.8"/>
      </g>
     </g>
     <g id="text_5">
      <!-- 8 -->
      <g transform="translate(292.393824 315.91625) scale(0.24 -0.24)">
       <defs>
        <path id="DejaVuSans-38" d="M 2034 2216 
Q 1584 2216 1326 1975 
Q 1069 1734 1069 1313 
Q 1069 891 1326 650 
Q 1584 409 2034 409 
Q 2484 409 2743 651 
Q 3003 894 3003 1313 
Q 3003 1734 2745 1975 
Q 2488 2216 2034 2216 
z
M 1403 2484 
Q 997 2584 770 2862 
Q 544 3141 544 3541 
Q 544 4100 942 4425 
Q 1341 4750 2034 4750 
Q 2731 4750 3128 4425 
Q 3525 4100 3525 3541 
Q 3525 3141 3298 2862 
Q 3072 2584 2669 2484 
Q 3125 2378 3379 2068 
Q 3634 1759 3634 1313 
Q 3634 634 3220 271 
Q 2806 -91 2034 -91 
Q 1263 -91 848 271 
Q 434 634 434 1313 
Q 434 1759 690 2068 
Q 947 2378 1403 2484 
z
M 1172 3481 
Q 1172 3119 1398 2916 
Q 1625 2713 2034 2713 
Q 2441 2713 2670 2916 
Q 2900 3119 2900 3481 
Q 2900 3844 2670 4047 
Q 2441 4250 2034 4250 
Q 1625 4250 1398 4047 
Q 1172 3844 1172 3481 
z
" transform="scale(0.015625)"/>
       </defs>
       <use xlink:href="#DejaVuSans-38"/>
      </g>
     </g>
    </g>
    <g id="text_6">
     <!-- Time (d) -->
     <g transform="translate(141.37375 343.14375) scale(0.24 -0.24)">
      <defs>
       <path id="DejaVuSans-54" d="M -19 4666 
L 3928 4666 
L 3928 4134 
L 2272 4134 
L 2272 0 
L 1638 0 
L 1638 4134 
L -19 4134 
L -19 4666 
z
" transform="scale(0.015625)"/>
       <path id="DejaVuSans-69" d="M 603 3500 
L 1178 3500 
L 1178 0 
L 603 0 
L 603 3500 
z
M 603 4863 
L 1178 4863 
L 1178 4134 
L 603 4134 
L 603 4863 
z
" transform="scale(0.015625)"/>
       <path id="DejaVuSans-6d" d="M 3328 2828 
Q 3544 3216 3844 3400 
Q 4144 3584 4550 3584 
Q 5097 3584 5394 3201 
Q 5691 2819 5691 2113 
L 5691 0 
L 5113 0 
L 5113 2094 
Q 5113 2597 4934 2840 
Q 4756 3084 4391 3084 
Q 3944 3084 3684 2787 
Q 3425 2491 3425 1978 
L 3425 0 
L 2847 0 
L 2847 2094 
Q 2847 2600 2669 2842 
Q 2491 3084 2119 3084 
Q 1678 3084 1418 2786 
Q 1159 2488 1159 1978 
L 1159 0 
L 581 0 
L 581 3500 
L 1159 3500 
L 1159 2956 
Q 1356 3278 1631 3431 
Q 1906 3584 2284 3584 
Q 2666 3584 2933 3390 
Q 3200 3197 3328 2828 
z
" transform="scale(0.015625)"/>
       <path id="DejaVuSans-65" d="M 3597 1894 
L 3597 1613 
L 953 1613 
Q 991 1019 1311 708 
Q 1631 397 2203 397 
Q 2534 397 2845 478 
Q 3156 559 3463 722 
L 3463 178 
Q 3153 47 2828 -22 
Q 2503 -91 2169 -91 
Q 1331 -91 842 396 
Q 353 884 353 1716 
Q 353 2575 817 3079 
Q 1281 3584 2069 3584 
Q 2775 3584 3186 3129 
Q 3597 2675 3597 1894 
z
M 3022 2063 
Q 3016 2534 2758 2815 
Q 2500 3097 2075 3097 
Q 1594 3097 1305 2825 
Q 1016 2553 972 2059 
L 3022 2063 
z
" transform="scale(0.015625)"/>
       <path id="DejaVuSans-20" transform="scale(0.015625)"/>
       <path id="DejaVuSans-28" d="M 1984 4856 
Q 1566 4138 1362 3434 
Q 1159 2731 1159 2009 
Q 1159 1288 1364 580 
Q 1569 -128 1984 -844 
L 1484 -844 
Q 1016 -109 783 600 
Q 550 1309 550 2009 
Q 550 2706 781 3412 
Q 1013 4119 1484 4856 
L 1984 4856 
z
" transform="scale(0.015625)"/>
       <path id="DejaVuSans-64" d="M 2906 2969 
L 2906 4863 
L 3481 4863 
L 3481 0 
L 2906 0 
L 2906 525 
Q 2725 213 2448 61 
Q 2172 -91 1784 -91 
Q 1150 -91 751 415 
Q 353 922 353 1747 
Q 353 2572 751 3078 
Q 1150 3584 1784 3584 
Q 2172 3584 2448 3432 
Q 2725 3281 2906 2969 
z
M 947 1747 
Q 947 1113 1208 752 
Q 1469 391 1925 391 
Q 2381 391 2643 752 
Q 2906 1113 2906 1747 
Q 2906 2381 2643 2742 
Q 2381 3103 1925 3103 
Q 1469 3103 1208 2742 
Q 947 2381 947 1747 
z
" transform="scale(0.015625)"/>
       <path id="DejaVuSans-29" d="M 513 4856 
L 1013 4856 
Q 1481 4119 1714 3412 
Q 1947 2706 1947 2009 
Q 1947 1309 1714 600 
Q 1481 -109 1013 -844 
L 513 -844 
Q 928 -128 1133 580 
Q 1338 1288 1338 2009 
Q 1338 2731 1133 3434 
Q 928 4138 513 4856 
z
" transform="scale(0.015625)"/>
      </defs>
      <use xlink:href="#DejaVuSans-54"/>
      <use xlink:href="#DejaVuSans-69" x="57.958984"/>
      <use xlink:href="#DejaVuSans-6d" x="85.742188"/>
      <use xlink:href="#DejaVuSans-65" x="183.154297"/>
      <use xlink:href="#DejaVuSans-20" x="244.677734"/>
      <use xlink:href="#DejaVuSans-28" x="276.464844"/>
      <use xlink:href="#DejaVuSans-64" x="315.478516"/>
      <use xlink:href="#DejaVuSans-29" x="378.955078"/>
     </g>
    </g>
   </g>
   <g id="matplotlib.axis_2">
    <g id="ytick_1">
     <g id="line2d_6">
      <defs>
       <path id="m8f4b2fd094" d="M 0 0 
L -3.5 0 
" style="stroke: #000000; stroke-width: 0.8"/>
      </defs>
      <g>
       <use xlink:href="#m8f4b2fd094" x="76.25" y="285.393563" style="stroke: #000000; stroke-width: 0.8"/>
      </g>
     </g>
     <g id="text_7">
      <!-- 0 -->
      <g transform="translate(53.98 294.511688) scale(0.24 -0.24)">
       <use xlink:href="#DejaVuSans-30"/>
      </g>
     </g>
    </g>
    <g id="ytick_2">
     <g id="line2d_7">
      <g>
       <use xlink:href="#m8f4b2fd094" x="76.25" y="179.664828" style="stroke: #000000; stroke-width: 0.8"/>
      </g>
     </g>
     <g id="text_8">
      <!-- 10 -->
      <g transform="translate(38.71 188.782953) scale(0.24 -0.24)">
       <defs>
        <path id="DejaVuSans-31" d="M 794 531 
L 1825 531 
L 1825 4091 
L 703 3866 
L 703 4441 
L 1819 4666 
L 2450 4666 
L 2450 531 
L 3481 531 
L 3481 0 
L 794 0 
L 794 531 
z
" transform="scale(0.015625)"/>
       </defs>
       <use xlink:href="#DejaVuSans-31"/>
       <use xlink:href="#DejaVuSans-30" x="63.623047"/>
      </g>
     </g>
    </g>
    <g id="ytick_3">
     <g id="line2d_8">
      <g>
       <use xlink:href="#m8f4b2fd094" x="76.25" y="73.936092" style="stroke: #000000; stroke-width: 0.8"/>
      </g>
     </g>
     <g id="text_9">
      <!-- 20 -->
      <g transform="translate(38.71 83.054217) scale(0.24 -0.24)">
       <use xlink:href="#DejaVuSans-32"/>
       <use xlink:href="#DejaVuSans-30" x="63.623047"/>
      </g>
     </g>
    </g>
    <g id="text_10">
     <!-- Symptom Score -->
     <g transform="translate(29.71875 270.8825) rotate(-90) scale(0.24 -0.24)">
      <defs>
       <path id="DejaVuSans-53" d="M 3425 4513 
L 3425 3897 
Q 3066 4069 2747 4153 
Q 2428 4238 2131 4238 
Q 1616 4238 1336 4038 
Q 1056 3838 1056 3469 
Q 1056 3159 1242 3001 
Q 1428 2844 1947 2747 
L 2328 2669 
Q 3034 2534 3370 2195 
Q 3706 1856 3706 1288 
Q 3706 609 3251 259 
Q 2797 -91 1919 -91 
Q 1588 -91 1214 -16 
Q 841 59 441 206 
L 441 856 
Q 825 641 1194 531 
Q 1563 422 1919 422 
Q 2459 422 2753 634 
Q 3047 847 3047 1241 
Q 3047 1584 2836 1778 
Q 2625 1972 2144 2069 
L 1759 2144 
Q 1053 2284 737 2584 
Q 422 2884 422 3419 
Q 422 4038 858 4394 
Q 1294 4750 2059 4750 
Q 2388 4750 2728 4690 
Q 3069 4631 3425 4513 
z
" transform="scale(0.015625)"/>
       <path id="DejaVuSans-79" d="M 2059 -325 
Q 1816 -950 1584 -1140 
Q 1353 -1331 966 -1331 
L 506 -1331 
L 506 -850 
L 844 -850 
Q 1081 -850 1212 -737 
Q 1344 -625 1503 -206 
L 1606 56 
L 191 3500 
L 800 3500 
L 1894 763 
L 2988 3500 
L 3597 3500 
L 2059 -325 
z
" transform="scale(0.015625)"/>
       <path id="DejaVuSans-70" d="M 1159 525 
L 1159 -1331 
L 581 -1331 
L 581 3500 
L 1159 3500 
L 1159 2969 
Q 1341 3281 1617 3432 
Q 1894 3584 2278 3584 
Q 2916 3584 3314 3078 
Q 3713 2572 3713 1747 
Q 3713 922 3314 415 
Q 2916 -91 2278 -91 
Q 1894 -91 1617 61 
Q 1341 213 1159 525 
z
M 3116 1747 
Q 3116 2381 2855 2742 
Q 2594 3103 2138 3103 
Q 1681 3103 1420 2742 
Q 1159 2381 1159 1747 
Q 1159 1113 1420 752 
Q 1681 391 2138 391 
Q 2594 391 2855 752 
Q 3116 1113 3116 1747 
z
" transform="scale(0.015625)"/>
       <path id="DejaVuSans-74" d="M 1172 4494 
L 1172 3500 
L 2356 3500 
L 2356 3053 
L 1172 3053 
L 1172 1153 
Q 1172 725 1289 603 
Q 1406 481 1766 481 
L 2356 481 
L 2356 0 
L 1766 0 
Q 1100 0 847 248 
Q 594 497 594 1153 
L 594 3053 
L 172 3053 
L 172 3500 
L 594 3500 
L 594 4494 
L 1172 4494 
z
" transform="scale(0.015625)"/>
       <path id="DejaVuSans-6f" d="M 1959 3097 
Q 1497 3097 1228 2736 
Q 959 2375 959 1747 
Q 959 1119 1226 758 
Q 1494 397 1959 397 
Q 2419 397 2687 759 
Q 2956 1122 2956 1747 
Q 2956 2369 2687 2733 
Q 2419 3097 1959 3097 
z
M 1959 3584 
Q 2709 3584 3137 3096 
Q 3566 2609 3566 1747 
Q 3566 888 3137 398 
Q 2709 -91 1959 -91 
Q 1206 -91 779 398 
Q 353 888 353 1747 
Q 353 2609 779 3096 
Q 1206 3584 1959 3584 
z
" transform="scale(0.015625)"/>
       <path id="DejaVuSans-63" d="M 3122 3366 
L 3122 2828 
Q 2878 2963 2633 3030 
Q 2388 3097 2138 3097 
Q 1578 3097 1268 2742 
Q 959 2388 959 1747 
Q 959 1106 1268 751 
Q 1578 397 2138 397 
Q 2388 397 2633 464 
Q 2878 531 3122 666 
L 3122 134 
Q 2881 22 2623 -34 
Q 2366 -91 2075 -91 
Q 1284 -91 818 406 
Q 353 903 353 1747 
Q 353 2603 823 3093 
Q 1294 3584 2113 3584 
Q 2378 3584 2631 3529 
Q 2884 3475 3122 3366 
z
" transform="scale(0.015625)"/>
       <path id="DejaVuSans-72" d="M 2631 2963 
Q 2534 3019 2420 3045 
Q 2306 3072 2169 3072 
Q 1681 3072 1420 2755 
Q 1159 2438 1159 1844 
L 1159 0 
L 581 0 
L 581 3500 
L 1159 3500 
L 1159 2956 
Q 1341 3275 1631 3429 
Q 1922 3584 2338 3584 
Q 2397 3584 2469 3576 
Q 2541 3569 2628 3553 
L 2631 2963 
z
" transform="scale(0.015625)"/>
      </defs>
      <use xlink:href="#DejaVuSans-53"/>
      <use xlink:href="#DejaVuSans-79" x="63.476562"/>
      <use xlink:href="#DejaVuSans-6d" x="122.65625"/>
      <use xlink:href="#DejaVuSans-70" x="220.068359"/>
      <use xlink:href="#DejaVuSans-74" x="283.544922"/>
      <use xlink:href="#DejaVuSans-6f" x="322.753906"/>
      <use xlink:href="#DejaVuSans-6d" x="383.935547"/>
      <use xlink:href="#DejaVuSans-20" x="481.347656"/>
      <use xlink:href="#DejaVuSans-53" x="513.134766"/>
      <use xlink:href="#DejaVuSans-63" x="576.611328"/>
      <use xlink:href="#DejaVuSans-6f" x="631.591797"/>
      <use xlink:href="#DejaVuSans-72" x="692.773438"/>
      <use xlink:href="#DejaVuSans-65" x="731.636719"/>
     </g>
    </g>
   </g>
   <g id="patch_3">
    <path d="M 76.25 290.68 
L 76.25 60.72 
" style="fill: none; stroke: #000000; stroke-width: 0.8; stroke-linejoin: miter; stroke-linecap: square"/>
   </g>
   <g id="patch_4">
    <path d="M 306.81 290.68 
L 306.81 60.72 
" style="fill: none; stroke: #000000; stroke-width: 0.8; stroke-linejoin: miter; stroke-linecap: square"/>
   </g>
   <g id="patch_5">
    <path d="M 76.25 290.68 
L 306.81 290.68 
" style="fill: none; stroke: #000000; stroke-width: 0.8; stroke-linejoin: miter; stroke-linecap: square"/>
   </g>
   <g id="patch_6">
    <path d="M 76.25 60.72 
L 306.81 60.72 
" style="fill: none; stroke: #000000; stroke-width: 0.8; stroke-linejoin: miter; stroke-linecap: square"/>
   </g>
   <g id="text_11">
    <!-- Volunteer 307 -->
    <g transform="translate(107.24125 36.523125) scale(0.24 -0.24)">
     <defs>
      <path id="DejaVuSans-56" d="M 1831 0 
L 50 4666 
L 709 4666 
L 2188 738 
L 3669 4666 
L 4325 4666 
L 2547 0 
L 1831 0 
z
" transform="scale(0.015625)"/>
      <path id="DejaVuSans-6c" d="M 603 4863 
L 1178 4863 
L 1178 0 
L 603 0 
L 603 4863 
z
" transform="scale(0.015625)"/>
      <path id="DejaVuSans-75" d="M 544 1381 
L 544 3500 
L 1119 3500 
L 1119 1403 
Q 1119 906 1312 657 
Q 1506 409 1894 409 
Q 2359 409 2629 706 
Q 2900 1003 2900 1516 
L 2900 3500 
L 3475 3500 
L 3475 0 
L 2900 0 
L 2900 538 
Q 2691 219 2414 64 
Q 2138 -91 1772 -91 
Q 1169 -91 856 284 
Q 544 659 544 1381 
z
M 1991 3584 
L 1991 3584 
z
" transform="scale(0.015625)"/>
      <path id="DejaVuSans-6e" d="M 3513 2113 
L 3513 0 
L 2938 0 
L 2938 2094 
Q 2938 2591 2744 2837 
Q 2550 3084 2163 3084 
Q 1697 3084 1428 2787 
Q 1159 2491 1159 1978 
L 1159 0 
L 581 0 
L 581 3500 
L 1159 3500 
L 1159 2956 
Q 1366 3272 1645 3428 
Q 1925 3584 2291 3584 
Q 2894 3584 3203 3211 
Q 3513 2838 3513 2113 
z
" transform="scale(0.015625)"/>
      <path id="DejaVuSans-33" d="M 2597 2516 
Q 3050 2419 3304 2112 
Q 3559 1806 3559 1356 
Q 3559 666 3084 287 
Q 2609 -91 1734 -91 
Q 1441 -91 1130 -33 
Q 819 25 488 141 
L 488 750 
Q 750 597 1062 519 
Q 1375 441 1716 441 
Q 2309 441 2620 675 
Q 2931 909 2931 1356 
Q 2931 1769 2642 2001 
Q 2353 2234 1838 2234 
L 1294 2234 
L 1294 2753 
L 1863 2753 
Q 2328 2753 2575 2939 
Q 2822 3125 2822 3475 
Q 2822 3834 2567 4026 
Q 2313 4219 1838 4219 
Q 1578 4219 1281 4162 
Q 984 4106 628 3988 
L 628 4550 
Q 988 4650 1302 4700 
Q 1616 4750 1894 4750 
Q 2613 4750 3031 4423 
Q 3450 4097 3450 3541 
Q 3450 3153 3228 2886 
Q 3006 2619 2597 2516 
z
" transform="scale(0.015625)"/>
      <path id="DejaVuSans-37" d="M 525 4666 
L 3525 4666 
L 3525 4397 
L 1831 0 
L 1172 0 
L 2766 4134 
L 525 4134 
L 525 4666 
z
" transform="scale(0.015625)"/>
     </defs>
     <use xlink:href="#DejaVuSans-56"/>
     <use xlink:href="#DejaVuSans-6f" x="60.658203"/>
     <use xlink:href="#DejaVuSans-6c" x="121.839844"/>
     <use xlink:href="#DejaVuSans-75" x="149.623047"/>
     <use xlink:href="#DejaVuSans-6e" x="213.001953"/>
     <use xlink:href="#DejaVuSans-74" x="276.380859"/>
     <use xlink:href="#DejaVuSans-65" x="315.589844"/>
     <use xlink:href="#DejaVuSans-65" x="377.113281"/>
     <use xlink:href="#DejaVuSans-72" x="438.636719"/>
     <use xlink:href="#DejaVuSans-20" x="479.75"/>
     <use xlink:href="#DejaVuSans-33" x="511.537109"/>
     <use xlink:href="#DejaVuSans-30" x="575.160156"/>
     <use xlink:href="#DejaVuSans-37" x="638.783203"/>
    </g>
   </g>
   <g id="PathCollection_1">
    <defs>
     <path id="maf9f1de86e" d="M 0 4.330127 
C 1.148363 4.330127 2.249847 3.873878 3.061862 3.061862 
C 3.873878 2.249847 4.330127 1.148363 4.330127 0 
C 4.330127 -1.148363 3.873878 -2.249847 3.061862 -3.061862 
C 2.249847 -3.873878 1.148363 -4.330127 0 -4.330127 
C -1.148363 -4.330127 -2.249847 -3.873878 -3.061862 -3.061862 
C -3.873878 -2.249847 -4.330127 -1.148363 -4.330127 0 
C -4.330127 1.148363 -3.873878 2.249847 -3.061862 3.061862 
C -2.249847 3.873878 -1.148363 4.330127 0 4.330127 
z
" style="stroke: #000000; stroke-opacity: 0.8"/>
    </defs>
    <g clip-path="url(#pfa6723d328)">
     <use xlink:href="#maf9f1de86e" x="83.031176" y="274.82069" style="fill-opacity: 0.8; stroke: #000000; stroke-opacity: 0.8"/>
     <use xlink:href="#maf9f1de86e" x="110.155882" y="280.107126" style="fill-opacity: 0.8; stroke: #000000; stroke-opacity: 0.8"/>
     <use xlink:href="#maf9f1de86e" x="137.280588" y="227.242759" style="fill-opacity: 0.8; stroke: #000000; stroke-opacity: 0.8"/>
     <use xlink:href="#maf9f1de86e" x="164.405294" y="243.102069" style="fill-opacity: 0.8; stroke: #000000; stroke-opacity: 0.8"/>
     <use xlink:href="#maf9f1de86e" x="191.53" y="190.237701" style="fill-opacity: 0.8; stroke: #000000; stroke-opacity: 0.8"/>
     <use xlink:href="#maf9f1de86e" x="218.654706" y="158.51908" style="fill-opacity: 0.8; stroke: #000000; stroke-opacity: 0.8"/>
     <use xlink:href="#maf9f1de86e" x="245.779412" y="179.664828" style="fill-opacity: 0.8; stroke: #000000; stroke-opacity: 0.8"/>
     <use xlink:href="#maf9f1de86e" x="272.904118" y="264.247816" style="fill-opacity: 0.8; stroke: #000000; stroke-opacity: 0.8"/>
    </g>
   </g>
  </g>
  <g id="axes_2">
   <g id="matplotlib.axis_3">
    <g id="ytick_4">
     <g id="line2d_9">
      <defs>
       <path id="m488fae8515" d="M 0 0 
L 3.5 0 
" style="stroke: #1e90ff; stroke-width: 0.8"/>
      </defs>
      <g>
       <use xlink:href="#m488fae8515" x="306.81" y="285.68087" style="fill: #1e90ff; stroke: #1e90ff; stroke-width: 0.8"/>
      </g>
     </g>
     <g id="text_12">
      <!-- 0.0 -->
      <g style="fill: #1e90ff" transform="translate(313.81 294.798995) scale(0.24 -0.24)">
       <defs>
        <path id="DejaVuSans-2e" d="M 684 794 
L 1344 794 
L 1344 0 
L 684 0 
L 684 794 
z
" transform="scale(0.015625)"/>
       </defs>
       <use xlink:href="#DejaVuSans-30"/>
       <use xlink:href="#DejaVuSans-2e" x="63.623047"/>
       <use xlink:href="#DejaVuSans-30" x="95.410156"/>
      </g>
     </g>
    </g>
    <g id="ytick_5">
     <g id="line2d_10">
      <g>
       <use xlink:href="#m488fae8515" x="306.81" y="223.191739" style="fill: #1e90ff; stroke: #1e90ff; stroke-width: 0.8"/>
      </g>
     </g>
     <g id="text_13">
      <!-- 2.5 -->
      <g style="fill: #1e90ff" transform="translate(313.81 232.309864) scale(0.24 -0.24)">
       <defs>
        <path id="DejaVuSans-35" d="M 691 4666 
L 3169 4666 
L 3169 4134 
L 1269 4134 
L 1269 2991 
Q 1406 3038 1543 3061 
Q 1681 3084 1819 3084 
Q 2600 3084 3056 2656 
Q 3513 2228 3513 1497 
Q 3513 744 3044 326 
Q 2575 -91 1722 -91 
Q 1428 -91 1123 -41 
Q 819 9 494 109 
L 494 744 
Q 775 591 1075 516 
Q 1375 441 1709 441 
Q 2250 441 2565 725 
Q 2881 1009 2881 1497 
Q 2881 1984 2565 2268 
Q 2250 2553 1709 2553 
Q 1456 2553 1204 2497 
Q 953 2441 691 2322 
L 691 4666 
z
" transform="scale(0.015625)"/>
       </defs>
       <use xlink:href="#DejaVuSans-32"/>
       <use xlink:href="#DejaVuSans-2e" x="63.623047"/>
       <use xlink:href="#DejaVuSans-35" x="95.410156"/>
      </g>
     </g>
    </g>
    <g id="ytick_6">
     <g id="line2d_11">
      <g>
       <use xlink:href="#m488fae8515" x="306.81" y="160.702609" style="fill: #1e90ff; stroke: #1e90ff; stroke-width: 0.8"/>
      </g>
     </g>
     <g id="text_14">
      <!-- 5.0 -->
      <g style="fill: #1e90ff" transform="translate(313.81 169.820734) scale(0.24 -0.24)">
       <use xlink:href="#DejaVuSans-35"/>
       <use xlink:href="#DejaVuSans-2e" x="63.623047"/>
       <use xlink:href="#DejaVuSans-30" x="95.410156"/>
      </g>
     </g>
    </g>
    <g id="ytick_7">
     <g id="line2d_12">
      <g>
       <use xlink:href="#m488fae8515" x="306.81" y="98.213478" style="fill: #1e90ff; stroke: #1e90ff; stroke-width: 0.8"/>
      </g>
     </g>
     <g id="text_15">
      <!-- 7.5 -->
      <g style="fill: #1e90ff" transform="translate(313.81 107.331603) scale(0.24 -0.24)">
       <use xlink:href="#DejaVuSans-37"/>
       <use xlink:href="#DejaVuSans-2e" x="63.623047"/>
       <use xlink:href="#DejaVuSans-35" x="95.410156"/>
      </g>
     </g>
    </g>
    <g id="text_16">
     <!-- CAUC Infected Cells -->
     <g style="fill: #1e90ff" transform="translate(353.74125 56.583125) rotate(-270) scale(0.24 -0.24)">
      <defs>
       <path id="DejaVuSans-43" d="M 4122 4306 
L 4122 3641 
Q 3803 3938 3442 4084 
Q 3081 4231 2675 4231 
Q 1875 4231 1450 3742 
Q 1025 3253 1025 2328 
Q 1025 1406 1450 917 
Q 1875 428 2675 428 
Q 3081 428 3442 575 
Q 3803 722 4122 1019 
L 4122 359 
Q 3791 134 3420 21 
Q 3050 -91 2638 -91 
Q 1578 -91 968 557 
Q 359 1206 359 2328 
Q 359 3453 968 4101 
Q 1578 4750 2638 4750 
Q 3056 4750 3426 4639 
Q 3797 4528 4122 4306 
z
" transform="scale(0.015625)"/>
       <path id="DejaVuSans-41" d="M 2188 4044 
L 1331 1722 
L 3047 1722 
L 2188 4044 
z
M 1831 4666 
L 2547 4666 
L 4325 0 
L 3669 0 
L 3244 1197 
L 1141 1197 
L 716 0 
L 50 0 
L 1831 4666 
z
" transform="scale(0.015625)"/>
       <path id="DejaVuSans-55" d="M 556 4666 
L 1191 4666 
L 1191 1831 
Q 1191 1081 1462 751 
Q 1734 422 2344 422 
Q 2950 422 3222 751 
Q 3494 1081 3494 1831 
L 3494 4666 
L 4128 4666 
L 4128 1753 
Q 4128 841 3676 375 
Q 3225 -91 2344 -91 
Q 1459 -91 1007 375 
Q 556 841 556 1753 
L 556 4666 
z
" transform="scale(0.015625)"/>
       <path id="DejaVuSans-49" d="M 628 4666 
L 1259 4666 
L 1259 0 
L 628 0 
L 628 4666 
z
" transform="scale(0.015625)"/>
       <path id="DejaVuSans-66" d="M 2375 4863 
L 2375 4384 
L 1825 4384 
Q 1516 4384 1395 4259 
Q 1275 4134 1275 3809 
L 1275 3500 
L 2222 3500 
L 2222 3053 
L 1275 3053 
L 1275 0 
L 697 0 
L 697 3053 
L 147 3053 
L 147 3500 
L 697 3500 
L 697 3744 
Q 697 4328 969 4595 
Q 1241 4863 1831 4863 
L 2375 4863 
z
" transform="scale(0.015625)"/>
       <path id="DejaVuSans-73" d="M 2834 3397 
L 2834 2853 
Q 2591 2978 2328 3040 
Q 2066 3103 1784 3103 
Q 1356 3103 1142 2972 
Q 928 2841 928 2578 
Q 928 2378 1081 2264 
Q 1234 2150 1697 2047 
L 1894 2003 
Q 2506 1872 2764 1633 
Q 3022 1394 3022 966 
Q 3022 478 2636 193 
Q 2250 -91 1575 -91 
Q 1294 -91 989 -36 
Q 684 19 347 128 
L 347 722 
Q 666 556 975 473 
Q 1284 391 1588 391 
Q 1994 391 2212 530 
Q 2431 669 2431 922 
Q 2431 1156 2273 1281 
Q 2116 1406 1581 1522 
L 1381 1569 
Q 847 1681 609 1914 
Q 372 2147 372 2553 
Q 372 3047 722 3315 
Q 1072 3584 1716 3584 
Q 2034 3584 2315 3537 
Q 2597 3491 2834 3397 
z
" transform="scale(0.015625)"/>
      </defs>
      <use xlink:href="#DejaVuSans-43"/>
      <use xlink:href="#DejaVuSans-41" x="69.824219"/>
      <use xlink:href="#DejaVuSans-55" x="138.232422"/>
      <use xlink:href="#DejaVuSans-43" x="211.425781"/>
      <use xlink:href="#DejaVuSans-20" x="281.25"/>
      <use xlink:href="#DejaVuSans-49" x="313.037109"/>
      <use xlink:href="#DejaVuSans-6e" x="342.529297"/>
      <use xlink:href="#DejaVuSans-66" x="405.908203"/>
      <use xlink:href="#DejaVuSans-65" x="441.113281"/>
      <use xlink:href="#DejaVuSans-63" x="502.636719"/>
      <use xlink:href="#DejaVuSans-74" x="557.617188"/>
      <use xlink:href="#DejaVuSans-65" x="596.826172"/>
      <use xlink:href="#DejaVuSans-64" x="658.349609"/>
      <use xlink:href="#DejaVuSans-20" x="721.826172"/>
      <use xlink:href="#DejaVuSans-43" x="753.613281"/>
      <use xlink:href="#DejaVuSans-65" x="823.4375"/>
      <use xlink:href="#DejaVuSans-6c" x="884.960938"/>
      <use xlink:href="#DejaVuSans-6c" x="912.744141"/>
      <use xlink:href="#DejaVuSans-73" x="940.527344"/>
     </g>
    </g>
    <g id="text_17">
     <!-- 1e7 -->
     <g style="fill: #1e90ff" transform="translate(269.05375 57.72) scale(0.2 -0.2)">
      <use xlink:href="#DejaVuSans-31"/>
      <use xlink:href="#DejaVuSans-65" x="63.623047"/>
      <use xlink:href="#DejaVuSans-37" x="125.146484"/>
     </g>
    </g>
   </g>
   <g id="PolyCollection_1">
    <defs>
     <path id="m8b70293054" d="M 83.031176 -74.31913 
L 83.031176 -74.31913 
L 83.031594 -74.31913 
L 83.03577 -74.31913 
L 83.07753 -74.319131 
L 83.327684 -74.319131 
L 83.471261 -74.319132 
L 84.050843 -74.319134 
L 84.353128 -74.319135 
L 85.482907 -74.31914 
L 85.961261 -74.319142 
L 87.220849 -74.319151 
L 87.80566 -74.319156 
L 89.067456 -74.319173 
L 89.746143 -74.319187 
L 91.033781 -74.319226 
L 91.787892 -74.319258 
L 93.080803 -74.319347 
L 93.895933 -74.319428 
L 95.193567 -74.319635 
L 96.055758 -74.319835 
L 97.353074 -74.320324 
L 98.250871 -74.320817 
L 99.546189 -74.321988 
L 100.470082 -74.323202 
L 101.885879 -74.32642 
L 102.793771 -74.329372 
L 104.035582 -74.336108 
L 104.976822 -74.343406 
L 106.326227 -74.361385 
L 107.261 -74.378881 
L 108.520724 -74.418908 
L 109.477275 -74.461532 
L 110.835143 -74.56678 
L 111.786623 -74.667229 
L 113.081868 -74.900827 
L 114.061858 -75.139663 
L 115.471423 -75.71624 
L 116.456507 -76.237099 
L 117.787472 -77.292998 
L 118.796496 -78.287623 
L 120.242394 -80.094559 
L 121.27311 -81.54898 
L 122.31744 -83.134997 
L 123.24005 -84.588027 
L 124.16266 -86.057614 
L 124.966128 -87.345285 
L 125.777831 -88.647582 
L 126.49456 -89.797172 
L 127.211288 -90.94562 
L 127.928017 -92.09305 
L 128.533429 -93.061316 
L 129.15509 -94.054709 
L 129.655961 -94.854374 
L 130.209371 -95.737137 
L 130.76278 -96.619145 
L 131.31619 -97.500347 
L 131.869599 -98.380758 
L 132.423009 -99.260324 
L 132.976418 -100.139084 
L 133.529828 -101.017015 
L 134.083237 -101.894111 
L 134.636647 -102.770359 
L 135.191145 -103.647471 
L 135.751804 -104.533459 
L 136.319309 -105.429367 
L 136.897078 -106.340543 
L 137.485742 -107.267928 
L 139.596958 -110.557633 
L 140.374035 -111.737236 
L 142.582784 -115.078492 
L 143.539348 -116.523284 
L 145.681457 -119.743182 
L 146.7627 -121.365877 
L 148.955483 -124.638622 
L 150.125088 -126.38038 
L 152.423857 -129.787441 
L 153.682982 -131.643756 
L 156.395453 -135.626118 
L 158.230264 -138.2977 
L 160.942735 -142.217371 
L 162.939036 -145.07519 
L 165.287919 -148.394387 
L 167.636803 -151.662801 
L 170.158877 -155.102118 
L 172.871348 -158.67621 
L 175.583818 -162.091028 
L 178.296289 -165.347068 
L 181.008759 -168.414747 
L 183.72123 -171.262708 
L 186.433701 -173.858649 
L 189.146171 -176.170242 
L 191.858642 -178.166058 
L 194.571112 -179.816466 
L 197.283583 -181.094445 
L 199.996053 -181.97629 
L 202.708524 -182.459379 
L 205.420995 -182.535736 
L 205.963489 -182.535738 
L 205.9671 -182.535738 
L 206.003212 -182.535738 
L 206.004814 -182.535738 
L 206.020831 -182.535738 
L 206.049995 -182.535738 
L 206.06076 -182.535738 
L 206.066314 -182.535738 
L 206.066576 -182.535738 
L 206.069204 -182.535738 
L 206.076038 -182.535738 
L 206.081604 -182.535738 
L 206.083802 -182.535738 
L 206.08621 -182.535738 
L 206.092563 -182.535738 
L 206.098916 -182.535738 
L 206.112148 -182.535738 
L 206.13415 -182.535738 
L 206.184594 -182.535738 
L 206.299184 -182.535739 
L 206.592774 -182.535739 
L 207.490484 -182.535741 
L 208.102876 -182.535743 
L 209.580712 -182.535745 
L 210.444955 -182.535747 
L 212.348824 -182.535749 
L 213.407978 -182.53575 
L 215.54983 -182.535752 
L 216.752983 -182.535753 
L 218.994822 -182.535754 
L 220.304011 -180.613619 
L 222.3209 -175.03788 
L 223.738219 -171.119665 
L 225.804337 -165.454125 
L 227.297323 -161.659259 
L 229.372176 -158.417846 
L 230.920369 -156.277837 
L 232.985804 -153.422862 
L 234.57813 -151.221849 
L 236.634331 -148.379638 
L 238.274615 -146.112334 
L 240.360256 -143.229429 
L 242.445898 -140.346524 
L 244.653648 -137.294833 
L 247.116548 -133.890457 
L 249.829018 -130.14111 
L 252.541489 -126.391762 
L 255.25396 -122.642414 
L 257.96643 -118.893066 
L 260.678901 -115.143718 
L 263.391371 -111.39437 
L 266.103842 -107.645023 
L 268.816313 -103.895675 
L 271.528783 -100.146327 
L 274.241254 -96.396979 
L 276.953724 -92.647631 
L 279.666195 -88.898284 
L 282.378666 -85.148936 
L 285.091136 -81.399588 
L 287.803607 -77.65024 
L 290.516077 -75.018187 
L 293.228548 -74.31913 
L 295.941018 -74.31913 
L 298.653489 -74.31913 
L 300.028824 -74.31913 
L 300.028824 -82.153433 
L 300.028824 -82.153433 
L 298.653489 -84.054507 
L 295.941018 -87.803854 
L 293.228548 -91.553202 
L 290.516077 -95.30255 
L 287.803607 -99.051898 
L 285.091136 -102.801246 
L 282.378666 -106.550594 
L 279.666195 -110.299941 
L 276.953724 -114.049289 
L 274.241254 -117.798637 
L 271.528783 -121.547985 
L 268.816313 -125.297333 
L 266.103842 -129.046681 
L 263.391371 -132.796028 
L 260.678901 -136.545376 
L 257.96643 -140.294724 
L 255.25396 -144.044072 
L 252.541489 -147.79342 
L 249.829018 -151.542767 
L 247.116548 -155.292115 
L 244.653648 -158.696491 
L 242.445898 -161.748182 
L 240.360256 -164.631087 
L 238.274615 -167.513992 
L 236.634331 -169.781296 
L 234.57813 -172.623507 
L 232.985804 -174.82452 
L 230.920369 -177.799612 
L 229.372176 -180.39115 
L 227.297323 -186.127135 
L 225.804337 -190.254534 
L 223.738219 -195.966373 
L 222.3209 -199.884587 
L 220.304011 -204.634101 
L 218.994822 -205.645688 
L 216.752983 -205.645687 
L 215.54983 -205.645687 
L 213.407978 -205.645685 
L 212.348824 -205.645684 
L 210.444955 -205.645682 
L 209.580712 -205.645681 
L 208.102876 -205.645678 
L 207.490484 -205.645677 
L 206.592774 -205.645675 
L 206.299184 -205.643715 
L 206.184594 -205.641321 
L 206.13415 -205.640267 
L 206.112148 -205.639808 
L 206.098916 -205.639531 
L 206.092563 -205.639398 
L 206.08621 -205.639266 
L 206.083802 -205.639215 
L 206.081604 -205.639169 
L 206.076038 -205.639053 
L 206.069204 -205.63891 
L 206.066576 -205.638855 
L 206.066314 -205.63885 
L 206.06076 -205.638734 
L 206.049995 -205.638509 
L 206.020831 -205.6379 
L 206.004814 -205.637565 
L 206.003212 -205.637532 
L 205.9671 -205.636777 
L 205.963489 -205.636702 
L 205.420995 -205.610364 
L 202.708524 -205.165893 
L 199.996053 -204.308156 
L 197.283583 -203.002495 
L 194.571112 -201.269168 
L 191.858642 -199.132733 
L 189.146171 -196.621468 
L 186.433701 -193.766627 
L 183.72123 -190.601575 
L 181.008759 -187.160819 
L 178.296289 -183.479008 
L 175.583818 -179.600351 
L 172.871348 -175.626009 
L 170.158877 -171.493114 
L 167.636803 -167.534852 
L 165.287919 -163.76577 
L 162.939036 -159.919725 
L 160.942735 -156.609207 
L 158.230264 -152.064298 
L 156.395453 -148.957268 
L 153.682982 -144.327563 
L 152.423857 -142.164417 
L 150.125088 -138.199061 
L 148.955483 -136.173692 
L 146.7627 -132.359246 
L 145.681457 -130.471998 
L 143.539348 -126.719007 
L 142.582784 -125.03802 
L 140.374035 -121.141754 
L 139.596958 -119.769565 
L 137.485742 -116.027862 
L 136.897078 -114.994616 
L 136.319309 -113.979411 
L 135.751804 -112.981195 
L 135.191145 -111.993989 
L 134.636647 -111.016485 
L 134.083237 -110.039932 
L 133.529828 -109.062411 
L 132.976418 -108.083919 
L 132.423009 -107.104463 
L 131.869599 -106.124047 
L 131.31619 -105.142678 
L 130.76278 -104.160362 
L 130.209371 -103.177062 
L 129.655961 -102.192741 
L 129.15509 -101.30105 
L 128.533429 -100.193333 
L 127.928017 -99.113453 
L 127.211288 -97.833658 
L 126.49456 -96.552395 
L 125.777831 -95.269594 
L 124.966128 -93.815039 
L 124.16266 -92.373535 
L 123.24005 -90.716227 
L 122.31744 -89.057116 
L 121.27311 -87.17799 
L 120.242394 -85.327656 
L 118.796496 -82.796187 
L 117.787472 -81.09277 
L 116.456507 -79.126029 
L 115.471423 -77.858944 
L 114.061858 -76.544772 
L 113.081868 -75.836275 
L 111.786623 -75.247453 
L 110.835143 -74.936686 
L 109.477275 -74.678299 
L 108.520724 -74.552514 
L 107.261 -74.457884 
L 106.326227 -74.410168 
L 104.976822 -74.371168 
L 104.035582 -74.352931 
L 102.793771 -74.339182 
L 101.885879 -74.332431 
L 100.470082 -74.326485 
L 99.546189 -74.323934 
L 98.250871 -74.321905 
L 97.353074 -74.320978 
L 96.055758 -74.320194 
L 95.193567 -74.31985 
L 93.895933 -74.319544 
L 93.080803 -74.319416 
L 91.787892 -74.319294 
L 91.033781 -74.319247 
L 89.746143 -74.319197 
L 89.067456 -74.319179 
L 87.80566 -74.319158 
L 87.220849 -74.319152 
L 85.961261 -74.319142 
L 85.482907 -74.31914 
L 84.353128 -74.319135 
L 84.050843 -74.319134 
L 83.471261 -74.319132 
L 83.327684 -74.319131 
L 83.07753 -74.319131 
L 83.03577 -74.31913 
L 83.031594 -74.31913 
L 83.031176 -74.31913 
z
" style="stroke: #1e90ff; stroke-opacity: 0.2"/>
    </defs>
    <g clip-path="url(#pfa6723d328)">
     <use xlink:href="#m8b70293054" x="0" y="360" style="fill: #1e90ff; fill-opacity: 0.2; stroke: #1e90ff; stroke-opacity: 0.2"/>
    </g>
   </g>
   <g id="patch_7">
    <path d="M 76.25 290.68 
L 76.25 60.72 
" style="fill: none; stroke: #000000; stroke-width: 0.8; stroke-linejoin: miter; stroke-linecap: square"/>
   </g>
   <g id="patch_8">
    <path d="M 306.81 290.68 
L 306.81 60.72 
" style="fill: none; stroke: #000000; stroke-width: 0.8; stroke-linejoin: miter; stroke-linecap: square"/>
   </g>
   <g id="patch_9">
    <path d="M 76.25 290.68 
L 306.81 290.68 
" style="fill: none; stroke: #000000; stroke-width: 0.8; stroke-linejoin: miter; stroke-linecap: square"/>
   </g>
   <g id="patch_10">
    <path d="M 76.25 60.72 
L 306.81 60.72 
" style="fill: none; stroke: #000000; stroke-width: 0.8; stroke-linejoin: miter; stroke-linecap: square"/>
   </g>
   <g id="line2d_13">
    <path d="M 83.031176 285.68087 
L 107.261 285.58661 
L 109.477275 285.445355 
L 111.786623 285.078846 
L 113.081868 284.677109 
L 114.061858 284.225471 
L 115.471423 283.260694 
L 116.456507 282.324556 
L 117.787472 280.689607 
L 118.796496 279.192533 
L 121.27311 274.962573 
L 140.374035 240.713236 
L 152.423857 219.686433 
L 160.942735 205.196391 
L 167.636803 194.191167 
L 172.871348 185.985889 
L 178.296289 178.058155 
L 181.008759 174.389109 
L 183.72123 170.961854 
L 186.433701 167.81172 
L 189.146171 164.973959 
L 191.858642 162.482711 
L 194.571112 160.370013 
L 197.283583 158.664912 
L 199.996053 157.3927 
L 202.708524 156.5743 
L 206.299184 156.212623 
L 218.994822 156.212608 
L 227.297323 179.165088 
L 229.372176 182.938391 
L 300.028824 280.604462 
L 300.028824 280.604462 
" clip-path="url(#pfa6723d328)" style="fill: none; stroke: #1e90ff; stroke-width: 1.5; stroke-linecap: square"/>
   </g>
   <g id="text_18">
    <g id="patch_11">
     <path d="M 192.5695 95.57425 
L 299.282 95.57425 
L 299.282 68.218 
L 192.5695 68.218 
z
" style="fill: #ffffff; opacity: 0.5; stroke: #000000; stroke-linejoin: miter"/>
    </g>
    <!-- Scale: 0.5 -->
    <g transform="translate(196.5695 87.414875) scale(0.2 -0.2)">
     <defs>
      <path id="DejaVuSans-61" d="M 2194 1759 
Q 1497 1759 1228 1600 
Q 959 1441 959 1056 
Q 959 750 1161 570 
Q 1363 391 1709 391 
Q 2188 391 2477 730 
Q 2766 1069 2766 1631 
L 2766 1759 
L 2194 1759 
z
M 3341 1997 
L 3341 0 
L 2766 0 
L 2766 531 
Q 2569 213 2275 61 
Q 1981 -91 1556 -91 
Q 1019 -91 701 211 
Q 384 513 384 1019 
Q 384 1609 779 1909 
Q 1175 2209 1959 2209 
L 2766 2209 
L 2766 2266 
Q 2766 2663 2505 2880 
Q 2244 3097 1772 3097 
Q 1472 3097 1187 3025 
Q 903 2953 641 2809 
L 641 3341 
Q 956 3463 1253 3523 
Q 1550 3584 1831 3584 
Q 2591 3584 2966 3190 
Q 3341 2797 3341 1997 
z
" transform="scale(0.015625)"/>
      <path id="DejaVuSans-3a" d="M 750 794 
L 1409 794 
L 1409 0 
L 750 0 
L 750 794 
z
M 750 3309 
L 1409 3309 
L 1409 2516 
L 750 2516 
L 750 3309 
z
" transform="scale(0.015625)"/>
     </defs>
     <use xlink:href="#DejaVuSans-53"/>
     <use xlink:href="#DejaVuSans-63" x="63.476562"/>
     <use xlink:href="#DejaVuSans-61" x="118.457031"/>
     <use xlink:href="#DejaVuSans-6c" x="179.736328"/>
     <use xlink:href="#DejaVuSans-65" x="207.519531"/>
     <use xlink:href="#DejaVuSans-3a" x="269.042969"/>
     <use xlink:href="#DejaVuSans-20" x="302.734375"/>
     <use xlink:href="#DejaVuSans-30" x="334.521484"/>
     <use xlink:href="#DejaVuSans-2e" x="398.144531"/>
     <use xlink:href="#DejaVuSans-35" x="429.931641"/>
    </g>
   </g>
  </g>
 </g>
 <defs>
  <clipPath id="pfa6723d328">
   <rect x="76.25" y="60.72" width="230.56" height="229.96"/>
  </clipPath>
 </defs>
</svg>
