<?xml version="1.0" encoding="utf-8" standalone="no"?>
<!DOCTYPE svg PUBLIC "-//W3C//DTD SVG 1.1//EN"
  "http://www.w3.org/Graphics/SVG/1.1/DTD/svg11.dtd">
<svg xmlns:xlink="http://www.w3.org/1999/xlink" width="360pt" height="360pt" viewBox="0 0 360 360" xmlns="http://www.w3.org/2000/svg" version="1.1">
 <metadata>
  <rdf:RDF xmlns:dc="http://purl.org/dc/elements/1.1/" xmlns:cc="http://creativecommons.org/ns#" xmlns:rdf="http://www.w3.org/1999/02/22-rdf-syntax-ns#">
   <cc:Work>
    <dc:type rdf:resource="http://purl.org/dc/dcmitype/StillImage"/>
    <dc:date>2025-01-27T10:50:44.639215</dc:date>
    <dc:format>image/svg+xml</dc:format>
    <dc:creator>
     <cc:Agent>
      <dc:title>Matplotlib v3.9.2, https://matplotlib.org/</dc:title>
     </cc:Agent>
    </dc:creator>
   </cc:Work>
  </rdf:RDF>
 </metadata>
 <defs>
  <style type="text/css">*{stroke-linejoin: round; stroke-linecap: butt}</style>
 </defs>
 <g id="figure_1">
  <g id="patch_1">
   <path d="M 0 360 
L 360 360 
L 360 0 
L 0 0 
z
" style="fill: #ffffff"/>
  </g>
  <g id="axes_1">
   <g id="patch_2">
    <path d="M 76.25 290.68 
L 306.81 290.68 
L 306.81 54.84 
L 76.25 54.84 
z
" style="fill: #ffffff"/>
   </g>
   <g id="matplotlib.axis_1">
    <g id="xtick_1">
     <g id="line2d_1">
      <defs>
       <path id="m1e9d35fbd0" d="M 0 0 
L 0 3.5 
" style="stroke: #000000; stroke-width: 0.8"/>
      </defs>
      <g>
       <use xlink:href="#m1e9d35fbd0" x="83.031176" y="290.68" style="stroke: #000000; stroke-width: 0.8"/>
      </g>
     </g>
     <g id="text_1">
      <!-- 0 -->
      <g transform="translate(75.396176 315.91625) scale(0.24 -0.24)">
       <defs>
        <path id="DejaVuSans-30" d="M 2034 4250 
Q 1547 4250 1301 3770 
Q 1056 3291 1056 2328 
Q 1056 1369 1301 889 
Q 1547 409 2034 409 
Q 2525 409 2770 889 
Q 3016 1369 3016 2328 
Q 3016 3291 2770 3770 
Q 2525 4250 2034 4250 
z
M 2034 4750 
Q 2819 4750 3233 4129 
Q 3647 3509 3647 2328 
Q 3647 1150 3233 529 
Q 2819 -91 2034 -91 
Q 1250 -91 836 529 
Q 422 1150 422 2328 
Q 422 3509 836 4129 
Q 1250 4750 2034 4750 
z
" transform="scale(0.015625)"/>
       </defs>
       <use xlink:href="#DejaVuSans-30"/>
      </g>
     </g>
    </g>
    <g id="xtick_2">
     <g id="line2d_2">
      <g>
       <use xlink:href="#m1e9d35fbd0" x="137.280588" y="290.68" style="stroke: #000000; stroke-width: 0.8"/>
      </g>
     </g>
     <g id="text_2">
      <!-- 2 -->
      <g transform="translate(129.645588 315.91625) scale(0.24 -0.24)">
       <defs>
        <path id="DejaVuSans-32" d="M 1228 531 
L 3431 531 
L 3431 0 
L 469 0 
L 469 531 
Q 828 903 1448 1529 
Q 2069 2156 2228 2338 
Q 2531 2678 2651 2914 
Q 2772 3150 2772 3378 
Q 2772 3750 2511 3984 
Q 2250 4219 1831 4219 
Q 1534 4219 1204 4116 
Q 875 4013 500 3803 
L 500 4441 
Q 881 4594 1212 4672 
Q 1544 4750 1819 4750 
Q 2544 4750 2975 4387 
Q 3406 4025 3406 3419 
Q 3406 3131 3298 2873 
Q 3191 2616 2906 2266 
Q 2828 2175 2409 1742 
Q 1991 1309 1228 531 
z
" transform="scale(0.015625)"/>
       </defs>
       <use xlink:href="#DejaVuSans-32"/>
      </g>
     </g>
    </g>
    <g id="xtick_3">
     <g id="line2d_3">
      <g>
       <use xlink:href="#m1e9d35fbd0" x="191.53" y="290.68" style="stroke: #000000; stroke-width: 0.8"/>
      </g>
     </g>
     <g id="text_3">
      <!-- 4 -->
      <g transform="translate(183.895 315.91625) scale(0.24 -0.24)">
       <defs>
        <path id="DejaVuSans-34" d="M 2419 4116 
L 825 1625 
L 2419 1625 
L 2419 4116 
z
M 2253 4666 
L 3047 4666 
L 3047 1625 
L 3713 1625 
L 3713 1100 
L 3047 1100 
L 3047 0 
L 2419 0 
L 2419 1100 
L 313 1100 
L 313 1709 
L 2253 4666 
z
" transform="scale(0.015625)"/>
       </defs>
       <use xlink:href="#DejaVuSans-34"/>
      </g>
     </g>
    </g>
    <g id="xtick_4">
     <g id="line2d_4">
      <g>
       <use xlink:href="#m1e9d35fbd0" x="245.779412" y="290.68" style="stroke: #000000; stroke-width: 0.8"/>
      </g>
     </g>
     <g id="text_4">
      <!-- 6 -->
      <g transform="translate(238.144412 315.91625) scale(0.24 -0.24)">
       <defs>
        <path id="DejaVuSans-36" d="M 2113 2584 
Q 1688 2584 1439 2293 
Q 1191 2003 1191 1497 
Q 1191 994 1439 701 
Q 1688 409 2113 409 
Q 2538 409 2786 701 
Q 3034 994 3034 1497 
Q 3034 2003 2786 2293 
Q 2538 2584 2113 2584 
z
M 3366 4563 
L 3366 3988 
Q 3128 4100 2886 4159 
Q 2644 4219 2406 4219 
Q 1781 4219 1451 3797 
Q 1122 3375 1075 2522 
Q 1259 2794 1537 2939 
Q 1816 3084 2150 3084 
Q 2853 3084 3261 2657 
Q 3669 2231 3669 1497 
Q 3669 778 3244 343 
Q 2819 -91 2113 -91 
Q 1303 -91 875 529 
Q 447 1150 447 2328 
Q 447 3434 972 4092 
Q 1497 4750 2381 4750 
Q 2619 4750 2861 4703 
Q 3103 4656 3366 4563 
z
" transform="scale(0.015625)"/>
       </defs>
       <use xlink:href="#DejaVuSans-36"/>
      </g>
     </g>
    </g>
    <g id="xtick_5">
     <g id="line2d_5">
      <g>
       <use xlink:href="#m1e9d35fbd0" x="300.028824" y="290.68" style="stroke: #000000; stroke-width: 0.8"/>
      </g>
     </g>
     <g id="text_5">
      <!-- 8 -->
      <g transform="translate(292.393824 315.91625) scale(0.24 -0.24)">
       <defs>
        <path id="DejaVuSans-38" d="M 2034 2216 
Q 1584 2216 1326 1975 
Q 1069 1734 1069 1313 
Q 1069 891 1326 650 
Q 1584 409 2034 409 
Q 2484 409 2743 651 
Q 3003 894 3003 1313 
Q 3003 1734 2745 1975 
Q 2488 2216 2034 2216 
z
M 1403 2484 
Q 997 2584 770 2862 
Q 544 3141 544 3541 
Q 544 4100 942 4425 
Q 1341 4750 2034 4750 
Q 2731 4750 3128 4425 
Q 3525 4100 3525 3541 
Q 3525 3141 3298 2862 
Q 3072 2584 2669 2484 
Q 3125 2378 3379 2068 
Q 3634 1759 3634 1313 
Q 3634 634 3220 271 
Q 2806 -91 2034 -91 
Q 1263 -91 848 271 
Q 434 634 434 1313 
Q 434 1759 690 2068 
Q 947 2378 1403 2484 
z
M 1172 3481 
Q 1172 3119 1398 2916 
Q 1625 2713 2034 2713 
Q 2441 2713 2670 2916 
Q 2900 3119 2900 3481 
Q 2900 3844 2670 4047 
Q 2441 4250 2034 4250 
Q 1625 4250 1398 4047 
Q 1172 3844 1172 3481 
z
" transform="scale(0.015625)"/>
       </defs>
       <use xlink:href="#DejaVuSans-38"/>
      </g>
     </g>
    </g>
    <g id="text_6">
     <!-- Time (d) -->
     <g transform="translate(141.37375 343.14375) scale(0.24 -0.24)">
      <defs>
       <path id="DejaVuSans-54" d="M -19 4666 
L 3928 4666 
L 3928 4134 
L 2272 4134 
L 2272 0 
L 1638 0 
L 1638 4134 
L -19 4134 
L -19 4666 
z
" transform="scale(0.015625)"/>
       <path id="DejaVuSans-69" d="M 603 3500 
L 1178 3500 
L 1178 0 
L 603 0 
L 603 3500 
z
M 603 4863 
L 1178 4863 
L 1178 4134 
L 603 4134 
L 603 4863 
z
" transform="scale(0.015625)"/>
       <path id="DejaVuSans-6d" d="M 3328 2828 
Q 3544 3216 3844 3400 
Q 4144 3584 4550 3584 
Q 5097 3584 5394 3201 
Q 5691 2819 5691 2113 
L 5691 0 
L 5113 0 
L 5113 2094 
Q 5113 2597 4934 2840 
Q 4756 3084 4391 3084 
Q 3944 3084 3684 2787 
Q 3425 2491 3425 1978 
L 3425 0 
L 2847 0 
L 2847 2094 
Q 2847 2600 2669 2842 
Q 2491 3084 2119 3084 
Q 1678 3084 1418 2786 
Q 1159 2488 1159 1978 
L 1159 0 
L 581 0 
L 581 3500 
L 1159 3500 
L 1159 2956 
Q 1356 3278 1631 3431 
Q 1906 3584 2284 3584 
Q 2666 3584 2933 3390 
Q 3200 3197 3328 2828 
z
" transform="scale(0.015625)"/>
       <path id="DejaVuSans-65" d="M 3597 1894 
L 3597 1613 
L 953 1613 
Q 991 1019 1311 708 
Q 1631 397 2203 397 
Q 2534 397 2845 478 
Q 3156 559 3463 722 
L 3463 178 
Q 3153 47 2828 -22 
Q 2503 -91 2169 -91 
Q 1331 -91 842 396 
Q 353 884 353 1716 
Q 353 2575 817 3079 
Q 1281 3584 2069 3584 
Q 2775 3584 3186 3129 
Q 3597 2675 3597 1894 
z
M 3022 2063 
Q 3016 2534 2758 2815 
Q 2500 3097 2075 3097 
Q 1594 3097 1305 2825 
Q 1016 2553 972 2059 
L 3022 2063 
z
" transform="scale(0.015625)"/>
       <path id="DejaVuSans-20" transform="scale(0.015625)"/>
       <path id="DejaVuSans-28" d="M 1984 4856 
Q 1566 4138 1362 3434 
Q 1159 2731 1159 2009 
Q 1159 1288 1364 580 
Q 1569 -128 1984 -844 
L 1484 -844 
Q 1016 -109 783 600 
Q 550 1309 550 2009 
Q 550 2706 781 3412 
Q 1013 4119 1484 4856 
L 1984 4856 
z
" transform="scale(0.015625)"/>
       <path id="DejaVuSans-64" d="M 2906 2969 
L 2906 4863 
L 3481 4863 
L 3481 0 
L 2906 0 
L 2906 525 
Q 2725 213 2448 61 
Q 2172 -91 1784 -91 
Q 1150 -91 751 415 
Q 353 922 353 1747 
Q 353 2572 751 3078 
Q 1150 3584 1784 3584 
Q 2172 3584 2448 3432 
Q 2725 3281 2906 2969 
z
M 947 1747 
Q 947 1113 1208 752 
Q 1469 391 1925 391 
Q 2381 391 2643 752 
Q 2906 1113 2906 1747 
Q 2906 2381 2643 2742 
Q 2381 3103 1925 3103 
Q 1469 3103 1208 2742 
Q 947 2381 947 1747 
z
" transform="scale(0.015625)"/>
       <path id="DejaVuSans-29" d="M 513 4856 
L 1013 4856 
Q 1481 4119 1714 3412 
Q 1947 2706 1947 2009 
Q 1947 1309 1714 600 
Q 1481 -109 1013 -844 
L 513 -844 
Q 928 -128 1133 580 
Q 1338 1288 1338 2009 
Q 1338 2731 1133 3434 
Q 928 4138 513 4856 
z
" transform="scale(0.015625)"/>
      </defs>
      <use xlink:href="#DejaVuSans-54"/>
      <use xlink:href="#DejaVuSans-69" x="57.958984"/>
      <use xlink:href="#DejaVuSans-6d" x="85.742188"/>
      <use xlink:href="#DejaVuSans-65" x="183.154297"/>
      <use xlink:href="#DejaVuSans-20" x="244.677734"/>
      <use xlink:href="#DejaVuSans-28" x="276.464844"/>
      <use xlink:href="#DejaVuSans-64" x="315.478516"/>
      <use xlink:href="#DejaVuSans-29" x="378.955078"/>
     </g>
    </g>
   </g>
   <g id="matplotlib.axis_2">
    <g id="ytick_1">
     <g id="line2d_6">
      <defs>
       <path id="m4539c88fc3" d="M 0 0 
L -3.5 0 
" style="stroke: #000000; stroke-width: 0.8"/>
      </defs>
      <g>
       <use xlink:href="#m4539c88fc3" x="76.25" y="285.258391" style="stroke: #000000; stroke-width: 0.8"/>
      </g>
     </g>
     <g id="text_7">
      <!-- 0 -->
      <g transform="translate(53.98 294.376516) scale(0.24 -0.24)">
       <use xlink:href="#DejaVuSans-30"/>
      </g>
     </g>
    </g>
    <g id="ytick_2">
     <g id="line2d_7">
      <g>
       <use xlink:href="#m4539c88fc3" x="76.25" y="176.826207" style="stroke: #000000; stroke-width: 0.8"/>
      </g>
     </g>
     <g id="text_8">
      <!-- 10 -->
      <g transform="translate(38.71 185.944332) scale(0.24 -0.24)">
       <defs>
        <path id="DejaVuSans-31" d="M 794 531 
L 1825 531 
L 1825 4091 
L 703 3866 
L 703 4441 
L 1819 4666 
L 2450 4666 
L 2450 531 
L 3481 531 
L 3481 0 
L 794 0 
L 794 531 
z
" transform="scale(0.015625)"/>
       </defs>
       <use xlink:href="#DejaVuSans-31"/>
       <use xlink:href="#DejaVuSans-30" x="63.623047"/>
      </g>
     </g>
    </g>
    <g id="ytick_3">
     <g id="line2d_8">
      <g>
       <use xlink:href="#m4539c88fc3" x="76.25" y="68.394023" style="stroke: #000000; stroke-width: 0.8"/>
      </g>
     </g>
     <g id="text_9">
      <!-- 20 -->
      <g transform="translate(38.71 77.512148) scale(0.24 -0.24)">
       <use xlink:href="#DejaVuSans-32"/>
       <use xlink:href="#DejaVuSans-30" x="63.623047"/>
      </g>
     </g>
    </g>
    <g id="text_10">
     <!-- Symptom Score -->
     <g transform="translate(29.71875 267.9425) rotate(-90) scale(0.24 -0.24)">
      <defs>
       <path id="DejaVuSans-53" d="M 3425 4513 
L 3425 3897 
Q 3066 4069 2747 4153 
Q 2428 4238 2131 4238 
Q 1616 4238 1336 4038 
Q 1056 3838 1056 3469 
Q 1056 3159 1242 3001 
Q 1428 2844 1947 2747 
L 2328 2669 
Q 3034 2534 3370 2195 
Q 3706 1856 3706 1288 
Q 3706 609 3251 259 
Q 2797 -91 1919 -91 
Q 1588 -91 1214 -16 
Q 841 59 441 206 
L 441 856 
Q 825 641 1194 531 
Q 1563 422 1919 422 
Q 2459 422 2753 634 
Q 3047 847 3047 1241 
Q 3047 1584 2836 1778 
Q 2625 1972 2144 2069 
L 1759 2144 
Q 1053 2284 737 2584 
Q 422 2884 422 3419 
Q 422 4038 858 4394 
Q 1294 4750 2059 4750 
Q 2388 4750 2728 4690 
Q 3069 4631 3425 4513 
z
" transform="scale(0.015625)"/>
       <path id="DejaVuSans-79" d="M 2059 -325 
Q 1816 -950 1584 -1140 
Q 1353 -1331 966 -1331 
L 506 -1331 
L 506 -850 
L 844 -850 
Q 1081 -850 1212 -737 
Q 1344 -625 1503 -206 
L 1606 56 
L 191 3500 
L 800 3500 
L 1894 763 
L 2988 3500 
L 3597 3500 
L 2059 -325 
z
" transform="scale(0.015625)"/>
       <path id="DejaVuSans-70" d="M 1159 525 
L 1159 -1331 
L 581 -1331 
L 581 3500 
L 1159 3500 
L 1159 2969 
Q 1341 3281 1617 3432 
Q 1894 3584 2278 3584 
Q 2916 3584 3314 3078 
Q 3713 2572 3713 1747 
Q 3713 922 3314 415 
Q 2916 -91 2278 -91 
Q 1894 -91 1617 61 
Q 1341 213 1159 525 
z
M 3116 1747 
Q 3116 2381 2855 2742 
Q 2594 3103 2138 3103 
Q 1681 3103 1420 2742 
Q 1159 2381 1159 1747 
Q 1159 1113 1420 752 
Q 1681 391 2138 391 
Q 2594 391 2855 752 
Q 3116 1113 3116 1747 
z
" transform="scale(0.015625)"/>
       <path id="DejaVuSans-74" d="M 1172 4494 
L 1172 3500 
L 2356 3500 
L 2356 3053 
L 1172 3053 
L 1172 1153 
Q 1172 725 1289 603 
Q 1406 481 1766 481 
L 2356 481 
L 2356 0 
L 1766 0 
Q 1100 0 847 248 
Q 594 497 594 1153 
L 594 3053 
L 172 3053 
L 172 3500 
L 594 3500 
L 594 4494 
L 1172 4494 
z
" transform="scale(0.015625)"/>
       <path id="DejaVuSans-6f" d="M 1959 3097 
Q 1497 3097 1228 2736 
Q 959 2375 959 1747 
Q 959 1119 1226 758 
Q 1494 397 1959 397 
Q 2419 397 2687 759 
Q 2956 1122 2956 1747 
Q 2956 2369 2687 2733 
Q 2419 3097 1959 3097 
z
M 1959 3584 
Q 2709 3584 3137 3096 
Q 3566 2609 3566 1747 
Q 3566 888 3137 398 
Q 2709 -91 1959 -91 
Q 1206 -91 779 398 
Q 353 888 353 1747 
Q 353 2609 779 3096 
Q 1206 3584 1959 3584 
z
" transform="scale(0.015625)"/>
       <path id="DejaVuSans-63" d="M 3122 3366 
L 3122 2828 
Q 2878 2963 2633 3030 
Q 2388 3097 2138 3097 
Q 1578 3097 1268 2742 
Q 959 2388 959 1747 
Q 959 1106 1268 751 
Q 1578 397 2138 397 
Q 2388 397 2633 464 
Q 2878 531 3122 666 
L 3122 134 
Q 2881 22 2623 -34 
Q 2366 -91 2075 -91 
Q 1284 -91 818 406 
Q 353 903 353 1747 
Q 353 2603 823 3093 
Q 1294 3584 2113 3584 
Q 2378 3584 2631 3529 
Q 2884 3475 3122 3366 
z
" transform="scale(0.015625)"/>
       <path id="DejaVuSans-72" d="M 2631 2963 
Q 2534 3019 2420 3045 
Q 2306 3072 2169 3072 
Q 1681 3072 1420 2755 
Q 1159 2438 1159 1844 
L 1159 0 
L 581 0 
L 581 3500 
L 1159 3500 
L 1159 2956 
Q 1341 3275 1631 3429 
Q 1922 3584 2338 3584 
Q 2397 3584 2469 3576 
Q 2541 3569 2628 3553 
L 2631 2963 
z
" transform="scale(0.015625)"/>
      </defs>
      <use xlink:href="#DejaVuSans-53"/>
      <use xlink:href="#DejaVuSans-79" x="63.476562"/>
      <use xlink:href="#DejaVuSans-6d" x="122.65625"/>
      <use xlink:href="#DejaVuSans-70" x="220.068359"/>
      <use xlink:href="#DejaVuSans-74" x="283.544922"/>
      <use xlink:href="#DejaVuSans-6f" x="322.753906"/>
      <use xlink:href="#DejaVuSans-6d" x="383.935547"/>
      <use xlink:href="#DejaVuSans-20" x="481.347656"/>
      <use xlink:href="#DejaVuSans-53" x="513.134766"/>
      <use xlink:href="#DejaVuSans-63" x="576.611328"/>
      <use xlink:href="#DejaVuSans-6f" x="631.591797"/>
      <use xlink:href="#DejaVuSans-72" x="692.773438"/>
      <use xlink:href="#DejaVuSans-65" x="731.636719"/>
     </g>
    </g>
   </g>
   <g id="patch_3">
    <path d="M 76.25 290.68 
L 76.25 54.84 
" style="fill: none; stroke: #000000; stroke-width: 0.8; stroke-linejoin: miter; stroke-linecap: square"/>
   </g>
   <g id="patch_4">
    <path d="M 306.81 290.68 
L 306.81 54.84 
" style="fill: none; stroke: #000000; stroke-width: 0.8; stroke-linejoin: miter; stroke-linecap: square"/>
   </g>
   <g id="patch_5">
    <path d="M 76.25 290.68 
L 306.81 290.68 
" style="fill: none; stroke: #000000; stroke-width: 0.8; stroke-linejoin: miter; stroke-linecap: square"/>
   </g>
   <g id="patch_6">
    <path d="M 76.25 54.84 
L 306.81 54.84 
" style="fill: none; stroke: #000000; stroke-width: 0.8; stroke-linejoin: miter; stroke-linecap: square"/>
   </g>
   <g id="LineCollection_1">
    <path d="M 83.031176 286.90331 
L 83.031176 279.547265 
" clip-path="url(#pa68967dbcb)" style="fill: none; stroke: #000000; stroke-width: 1.5"/>
    <path d="M 110.155882 290.721015 
L 110.155882 261.723736 
" clip-path="url(#pa68967dbcb)" style="fill: none; stroke: #000000; stroke-width: 1.5"/>
    <path d="M 137.280588 289.305636 
L 137.280588 218.86264 
" clip-path="url(#pa68967dbcb)" style="fill: none; stroke: #000000; stroke-width: 1.5"/>
    <path d="M 164.405294 294.446495 
L 164.405294 176.674119 
" clip-path="url(#pa68967dbcb)" style="fill: none; stroke: #000000; stroke-width: 1.5"/>
    <path d="M 191.53 286.686398 
L 191.53 179.012606 
" clip-path="url(#pa68967dbcb)" style="fill: none; stroke: #000000; stroke-width: 1.5"/>
    <path d="M 218.654706 277.880897 
L 218.654706 183.300099 
" clip-path="url(#pa68967dbcb)" style="fill: none; stroke: #000000; stroke-width: 1.5"/>
    <path d="M 245.779412 293.057088 
L 245.779412 214.207587 
" clip-path="url(#pa68967dbcb)" style="fill: none; stroke: #000000; stroke-width: 1.5"/>
    <path d="M 272.904118 285.839842 
L 272.904118 244.918472 
" clip-path="url(#pa68967dbcb)" style="fill: none; stroke: #000000; stroke-width: 1.5"/>
   </g>
   <g id="line2d_9">
    <defs>
     <path id="m3ad25c9c78" d="M 5 0 
L -5 -0 
" style="stroke: #000000"/>
    </defs>
    <g clip-path="url(#pa68967dbcb)">
     <use xlink:href="#m3ad25c9c78" x="83.031176" y="286.90331" style="stroke: #000000"/>
     <use xlink:href="#m3ad25c9c78" x="110.155882" y="290.721015" style="stroke: #000000"/>
     <use xlink:href="#m3ad25c9c78" x="137.280588" y="289.305636" style="stroke: #000000"/>
     <use xlink:href="#m3ad25c9c78" x="164.405294" y="294.446495" style="stroke: #000000"/>
     <use xlink:href="#m3ad25c9c78" x="191.53" y="286.686398" style="stroke: #000000"/>
     <use xlink:href="#m3ad25c9c78" x="218.654706" y="277.880897" style="stroke: #000000"/>
     <use xlink:href="#m3ad25c9c78" x="245.779412" y="293.057088" style="stroke: #000000"/>
     <use xlink:href="#m3ad25c9c78" x="272.904118" y="285.839842" style="stroke: #000000"/>
    </g>
   </g>
   <g id="line2d_10">
    <g clip-path="url(#pa68967dbcb)">
     <use xlink:href="#m3ad25c9c78" x="83.031176" y="279.547265" style="stroke: #000000"/>
     <use xlink:href="#m3ad25c9c78" x="110.155882" y="261.723736" style="stroke: #000000"/>
     <use xlink:href="#m3ad25c9c78" x="137.280588" y="218.86264" style="stroke: #000000"/>
     <use xlink:href="#m3ad25c9c78" x="164.405294" y="176.674119" style="stroke: #000000"/>
     <use xlink:href="#m3ad25c9c78" x="191.53" y="179.012606" style="stroke: #000000"/>
     <use xlink:href="#m3ad25c9c78" x="218.654706" y="183.300099" style="stroke: #000000"/>
     <use xlink:href="#m3ad25c9c78" x="245.779412" y="214.207587" style="stroke: #000000"/>
     <use xlink:href="#m3ad25c9c78" x="272.904118" y="244.918472" style="stroke: #000000"/>
    </g>
   </g>
   <g id="PathCollection_1">
    <defs>
     <path id="m5c1109027f" d="M -4.330127 4.330127 
L 4.330127 4.330127 
L 4.330127 -4.330127 
L -4.330127 -4.330127 
z
" style="stroke: #000000"/>
    </defs>
    <g clip-path="url(#pa68967dbcb)">
     <use xlink:href="#m5c1109027f" x="83.031176" y="283.225287" style="stroke: #000000"/>
     <use xlink:href="#m5c1109027f" x="110.155882" y="276.222375" style="stroke: #000000"/>
     <use xlink:href="#m5c1109027f" x="137.280588" y="254.084138" style="stroke: #000000"/>
     <use xlink:href="#m5c1109027f" x="164.405294" y="235.560307" style="stroke: #000000"/>
     <use xlink:href="#m5c1109027f" x="191.53" y="232.849502" style="stroke: #000000"/>
     <use xlink:href="#m5c1109027f" x="218.654706" y="230.590498" style="stroke: #000000"/>
     <use xlink:href="#m5c1109027f" x="245.779412" y="253.632337" style="stroke: #000000"/>
     <use xlink:href="#m5c1109027f" x="272.904118" y="265.379157" style="stroke: #000000"/>
    </g>
   </g>
  </g>
  <g id="axes_2">
   <g id="matplotlib.axis_3">
    <g id="ytick_4">
     <g id="line2d_11">
      <defs>
       <path id="m403803d35e" d="M 0 0 
L 3.5 0 
" style="stroke: #000000; stroke-width: 0.8"/>
      </defs>
      <g>
       <use xlink:href="#m403803d35e" x="306.81" y="285.553043" style="stroke: #000000; stroke-width: 0.8"/>
      </g>
     </g>
     <g id="text_11">
      <!-- 0.0 -->
      <g transform="translate(313.81 294.671168) scale(0.24 -0.24)">
       <defs>
        <path id="DejaVuSans-2e" d="M 684 794 
L 1344 794 
L 1344 0 
L 684 0 
L 684 794 
z
" transform="scale(0.015625)"/>
       </defs>
       <use xlink:href="#DejaVuSans-30"/>
       <use xlink:href="#DejaVuSans-2e" x="63.623047"/>
       <use xlink:href="#DejaVuSans-30" x="95.410156"/>
      </g>
     </g>
    </g>
    <g id="ytick_5">
     <g id="line2d_12">
      <g>
       <use xlink:href="#m403803d35e" x="306.81" y="221.466087" style="stroke: #000000; stroke-width: 0.8"/>
      </g>
     </g>
     <g id="text_12">
      <!-- 2.5 -->
      <g transform="translate(313.81 230.584212) scale(0.24 -0.24)">
       <defs>
        <path id="DejaVuSans-35" d="M 691 4666 
L 3169 4666 
L 3169 4134 
L 1269 4134 
L 1269 2991 
Q 1406 3038 1543 3061 
Q 1681 3084 1819 3084 
Q 2600 3084 3056 2656 
Q 3513 2228 3513 1497 
Q 3513 744 3044 326 
Q 2575 -91 1722 -91 
Q 1428 -91 1123 -41 
Q 819 9 494 109 
L 494 744 
Q 775 591 1075 516 
Q 1375 441 1709 441 
Q 2250 441 2565 725 
Q 2881 1009 2881 1497 
Q 2881 1984 2565 2268 
Q 2250 2553 1709 2553 
Q 1456 2553 1204 2497 
Q 953 2441 691 2322 
L 691 4666 
z
" transform="scale(0.015625)"/>
       </defs>
       <use xlink:href="#DejaVuSans-32"/>
       <use xlink:href="#DejaVuSans-2e" x="63.623047"/>
       <use xlink:href="#DejaVuSans-35" x="95.410156"/>
      </g>
     </g>
    </g>
    <g id="ytick_6">
     <g id="line2d_13">
      <g>
       <use xlink:href="#m403803d35e" x="306.81" y="157.37913" style="stroke: #000000; stroke-width: 0.8"/>
      </g>
     </g>
     <g id="text_13">
      <!-- 5.0 -->
      <g transform="translate(313.81 166.497255) scale(0.24 -0.24)">
       <use xlink:href="#DejaVuSans-35"/>
       <use xlink:href="#DejaVuSans-2e" x="63.623047"/>
       <use xlink:href="#DejaVuSans-30" x="95.410156"/>
      </g>
     </g>
    </g>
    <g id="ytick_7">
     <g id="line2d_14">
      <g>
       <use xlink:href="#m403803d35e" x="306.81" y="93.292174" style="stroke: #000000; stroke-width: 0.8"/>
      </g>
     </g>
     <g id="text_14">
      <!-- 7.5 -->
      <g transform="translate(313.81 102.410299) scale(0.24 -0.24)">
       <defs>
        <path id="DejaVuSans-37" d="M 525 4666 
L 3525 4666 
L 3525 4397 
L 1831 0 
L 1172 0 
L 2766 4134 
L 525 4134 
L 525 4666 
z
" transform="scale(0.015625)"/>
       </defs>
       <use xlink:href="#DejaVuSans-37"/>
       <use xlink:href="#DejaVuSans-2e" x="63.623047"/>
       <use xlink:href="#DejaVuSans-35" x="95.410156"/>
      </g>
     </g>
    </g>
    <g id="text_15">
     <!-- CAUC Infected Cells -->
     <g transform="translate(353.74125 53.643125) rotate(-270) scale(0.24 -0.24)">
      <defs>
       <path id="DejaVuSans-43" d="M 4122 4306 
L 4122 3641 
Q 3803 3938 3442 4084 
Q 3081 4231 2675 4231 
Q 1875 4231 1450 3742 
Q 1025 3253 1025 2328 
Q 1025 1406 1450 917 
Q 1875 428 2675 428 
Q 3081 428 3442 575 
Q 3803 722 4122 1019 
L 4122 359 
Q 3791 134 3420 21 
Q 3050 -91 2638 -91 
Q 1578 -91 968 557 
Q 359 1206 359 2328 
Q 359 3453 968 4101 
Q 1578 4750 2638 4750 
Q 3056 4750 3426 4639 
Q 3797 4528 4122 4306 
z
" transform="scale(0.015625)"/>
       <path id="DejaVuSans-41" d="M 2188 4044 
L 1331 1722 
L 3047 1722 
L 2188 4044 
z
M 1831 4666 
L 2547 4666 
L 4325 0 
L 3669 0 
L 3244 1197 
L 1141 1197 
L 716 0 
L 50 0 
L 1831 4666 
z
" transform="scale(0.015625)"/>
       <path id="DejaVuSans-55" d="M 556 4666 
L 1191 4666 
L 1191 1831 
Q 1191 1081 1462 751 
Q 1734 422 2344 422 
Q 2950 422 3222 751 
Q 3494 1081 3494 1831 
L 3494 4666 
L 4128 4666 
L 4128 1753 
Q 4128 841 3676 375 
Q 3225 -91 2344 -91 
Q 1459 -91 1007 375 
Q 556 841 556 1753 
L 556 4666 
z
" transform="scale(0.015625)"/>
       <path id="DejaVuSans-49" d="M 628 4666 
L 1259 4666 
L 1259 0 
L 628 0 
L 628 4666 
z
" transform="scale(0.015625)"/>
       <path id="DejaVuSans-6e" d="M 3513 2113 
L 3513 0 
L 2938 0 
L 2938 2094 
Q 2938 2591 2744 2837 
Q 2550 3084 2163 3084 
Q 1697 3084 1428 2787 
Q 1159 2491 1159 1978 
L 1159 0 
L 581 0 
L 581 3500 
L 1159 3500 
L 1159 2956 
Q 1366 3272 1645 3428 
Q 1925 3584 2291 3584 
Q 2894 3584 3203 3211 
Q 3513 2838 3513 2113 
z
" transform="scale(0.015625)"/>
       <path id="DejaVuSans-66" d="M 2375 4863 
L 2375 4384 
L 1825 4384 
Q 1516 4384 1395 4259 
Q 1275 4134 1275 3809 
L 1275 3500 
L 2222 3500 
L 2222 3053 
L 1275 3053 
L 1275 0 
L 697 0 
L 697 3053 
L 147 3053 
L 147 3500 
L 697 3500 
L 697 3744 
Q 697 4328 969 4595 
Q 1241 4863 1831 4863 
L 2375 4863 
z
" transform="scale(0.015625)"/>
       <path id="DejaVuSans-6c" d="M 603 4863 
L 1178 4863 
L 1178 0 
L 603 0 
L 603 4863 
z
" transform="scale(0.015625)"/>
       <path id="DejaVuSans-73" d="M 2834 3397 
L 2834 2853 
Q 2591 2978 2328 3040 
Q 2066 3103 1784 3103 
Q 1356 3103 1142 2972 
Q 928 2841 928 2578 
Q 928 2378 1081 2264 
Q 1234 2150 1697 2047 
L 1894 2003 
Q 2506 1872 2764 1633 
Q 3022 1394 3022 966 
Q 3022 478 2636 193 
Q 2250 -91 1575 -91 
Q 1294 -91 989 -36 
Q 684 19 347 128 
L 347 722 
Q 666 556 975 473 
Q 1284 391 1588 391 
Q 1994 391 2212 530 
Q 2431 669 2431 922 
Q 2431 1156 2273 1281 
Q 2116 1406 1581 1522 
L 1381 1569 
Q 847 1681 609 1914 
Q 372 2147 372 2553 
Q 372 3047 722 3315 
Q 1072 3584 1716 3584 
Q 2034 3584 2315 3537 
Q 2597 3491 2834 3397 
z
" transform="scale(0.015625)"/>
      </defs>
      <use xlink:href="#DejaVuSans-43"/>
      <use xlink:href="#DejaVuSans-41" x="69.824219"/>
      <use xlink:href="#DejaVuSans-55" x="138.232422"/>
      <use xlink:href="#DejaVuSans-43" x="211.425781"/>
      <use xlink:href="#DejaVuSans-20" x="281.25"/>
      <use xlink:href="#DejaVuSans-49" x="313.037109"/>
      <use xlink:href="#DejaVuSans-6e" x="342.529297"/>
      <use xlink:href="#DejaVuSans-66" x="405.908203"/>
      <use xlink:href="#DejaVuSans-65" x="441.113281"/>
      <use xlink:href="#DejaVuSans-63" x="502.636719"/>
      <use xlink:href="#DejaVuSans-74" x="557.617188"/>
      <use xlink:href="#DejaVuSans-65" x="596.826172"/>
      <use xlink:href="#DejaVuSans-64" x="658.349609"/>
      <use xlink:href="#DejaVuSans-20" x="721.826172"/>
      <use xlink:href="#DejaVuSans-43" x="753.613281"/>
      <use xlink:href="#DejaVuSans-65" x="823.4375"/>
      <use xlink:href="#DejaVuSans-6c" x="884.960938"/>
      <use xlink:href="#DejaVuSans-6c" x="912.744141"/>
      <use xlink:href="#DejaVuSans-73" x="940.527344"/>
     </g>
    </g>
    <g id="text_16">
     <!-- 1e7 -->
     <g transform="translate(269.05375 51.84) scale(0.2 -0.2)">
      <use xlink:href="#DejaVuSans-31"/>
      <use xlink:href="#DejaVuSans-65" x="63.623047"/>
      <use xlink:href="#DejaVuSans-37" x="125.146484"/>
     </g>
    </g>
   </g>
   <g id="PolyCollection_1">
    <defs>
     <path id="mc43b4769fa" d="M 83.031176 -74.446957 
L 83.031176 -74.446957 
L 83.031596 -74.446957 
L 83.035792 -74.446957 
L 83.077749 -74.446957 
L 83.206554 -74.446957 
L 83.335358 -74.446958 
L 83.664494 -74.446959 
L 84.018221 -74.44696 
L 84.798862 -74.446963 
L 85.579502 -74.446967 
L 86.789767 -74.446973 
L 87.777629 -74.446981 
L 89.249547 -74.446996 
L 90.303531 -74.447011 
L 91.95349 -74.447048 
L 92.999898 -74.447079 
L 94.457942 -74.447148 
L 95.54365 -74.447213 
L 97.132612 -74.447369 
L 98.203841 -74.447504 
L 99.642923 -74.447795 
L 100.739216 -74.448075 
L 102.283568 -74.448702 
L 103.361844 -74.449332 
L 104.781312 -74.450458 
L 105.876525 -74.451875 
L 107.387183 -74.454343 
L 108.463198 -74.457032 
L 109.869154 -74.461739 
L 110.959186 -74.466917 
L 112.454508 -74.477454 
L 113.532805 -74.48836 
L 115.120235 -74.512037 
L 116.177426 -74.534468 
L 117.625832 -74.580441 
L 118.72808 -74.624251 
L 120.318011 -74.727253 
L 121.437477 -74.822439 
L 122.979174 -75.021557 
L 124.132894 -75.236919 
L 125.823987 -75.670683 
L 127.02134 -76.146779 
L 128.577904 -76.907474 
L 129.757559 -77.714862 
L 131.20886 -78.899931 
L 132.401848 -80.106384 
L 133.687911 -81.634972 
L 134.973974 -83.301092 
L 136.260037 -85.112165 
L 137.343503 -86.680064 
L 138.4317 -88.274538 
L 139.268506 -89.506582 
L 140.116959 -90.72842 
L 140.849773 -91.783728 
L 141.608107 -92.839843 
L 142.235415 -93.705621 
L 142.913822 -94.604777 
L 143.470801 -95.332443 
L 144.964536 -97.212512 
L 145.68881 -98.095791 
L 147.452747 -99.773872 
L 148.333264 -100.535225 
L 150.362502 -102.179669 
L 151.436632 -102.963628 
L 153.974054 -104.634714 
L 155.376038 -105.438395 
L 158.088509 -106.820633 
L 160.019357 -107.654307 
L 162.731828 -108.65035 
L 165.444298 -109.484384 
L 168.156769 -110.175325 
L 170.869239 -110.748473 
L 173.58171 -111.221598 
L 176.294181 -111.611512 
L 179.006651 -111.932332 
L 181.719122 -112.195861 
L 184.431592 -112.411944 
L 187.144063 -112.588774 
L 189.856534 -112.73316 
L 192.569004 -112.850751 
L 195.281475 -112.946233 
L 197.993945 -113.02349 
L 200.706416 -113.085737 
L 203.418887 -113.135636 
L 206.131357 -113.175395 
L 208.843828 -113.206838 
L 211.556298 -113.231481 
L 214.268769 -113.250582 
L 216.981239 -113.265187 
L 219.69371 -112.514921 
L 222.406181 -109.446847 
L 225.118651 -106.376507 
L 227.831122 -103.304423 
L 230.543592 -100.231033 
L 233.256063 -97.1567 
L 235.968534 -94.081708 
L 238.681004 -91.006276 
L 241.393475 -88.185227 
L 244.105945 -86.264389 
L 246.818416 -84.726469 
L 249.530887 -83.188483 
L 252.243357 -81.650456 
L 254.955828 -80.112406 
L 257.668298 -78.574341 
L 260.380769 -77.036267 
L 263.093239 -75.524475 
L 265.80571 -74.446957 
L 268.518181 -74.446957 
L 271.230651 -74.446957 
L 273.943122 -74.446957 
L 276.655592 -74.446957 
L 279.368063 -74.446957 
L 282.080534 -74.446957 
L 284.793004 -74.446957 
L 287.505475 -74.446957 
L 290.217945 -74.446957 
L 292.930416 -74.446957 
L 295.642887 -74.446957 
L 298.355357 -74.446957 
L 300.028824 -74.446957 
L 300.028824 -95.856475 
L 300.028824 -95.856475 
L 298.355357 -96.805402 
L 295.642887 -98.343489 
L 292.930416 -99.881576 
L 290.217945 -101.419663 
L 287.505475 -102.95775 
L 284.793004 -104.495837 
L 282.080534 -106.033924 
L 279.368063 -107.572011 
L 276.655592 -109.110097 
L 273.943122 -110.648184 
L 271.230651 -112.186271 
L 268.518181 -113.724358 
L 265.80571 -115.262445 
L 263.093239 -116.800532 
L 260.380769 -118.338619 
L 257.668298 -119.876706 
L 254.955828 -121.414793 
L 252.243357 -122.95288 
L 249.530887 -124.490966 
L 246.818416 -126.029024 
L 244.105945 -127.566028 
L 241.393475 -129.498615 
L 238.681004 -132.402882 
L 235.968534 -135.4199 
L 233.256063 -138.405509 
L 230.543592 -141.356667 
L 227.831122 -144.270726 
L 225.118651 -147.1452 
L 222.406181 -149.977688 
L 219.69371 -152.765825 
L 216.981239 -152.917261 
L 214.268769 -152.5335 
L 211.556298 -152.098361 
L 208.843828 -151.609467 
L 206.131357 -151.064397 
L 203.418887 -150.460655 
L 200.706416 -149.795647 
L 197.993945 -149.066645 
L 195.281475 -148.270748 
L 192.569004 -147.404842 
L 189.856534 -146.465551 
L 187.144063 -145.449195 
L 184.431592 -144.351738 
L 181.719122 -143.168743 
L 179.006651 -141.895326 
L 176.294181 -140.52611 
L 173.58171 -139.057837 
L 170.869239 -137.482805 
L 168.156769 -135.787873 
L 165.444298 -133.957877 
L 162.731828 -132.019987 
L 160.019357 -129.925837 
L 158.088509 -128.489393 
L 155.376038 -126.905287 
L 153.974054 -126.038539 
L 151.436632 -124.467045 
L 150.362502 -123.757179 
L 148.333264 -122.349489 
L 147.452747 -121.713629 
L 145.68881 -120.37406 
L 144.964536 -119.807468 
L 143.470801 -118.580461 
L 142.913822 -118.109106 
L 142.235415 -117.534989 
L 141.608107 -116.978668 
L 140.849773 -116.286026 
L 140.116959 -115.616692 
L 139.268506 -114.812585 
L 138.4317 -113.991146 
L 137.343503 -112.911449 
L 136.260037 -111.777462 
L 134.973974 -110.387313 
L 133.687911 -108.952048 
L 132.401848 -107.450061 
L 131.20886 -105.994327 
L 129.757559 -104.162796 
L 128.577904 -102.608787 
L 127.02134 -100.478474 
L 125.823987 -98.772411 
L 124.132894 -96.361737 
L 122.979174 -94.721883 
L 121.437477 -92.427687 
L 120.318011 -90.688692 
L 118.72808 -88.125406 
L 117.625832 -86.286725 
L 116.177426 -83.826535 
L 115.120235 -82.046275 
L 113.532805 -79.553811 
L 112.454508 -78.113184 
L 110.959186 -76.602904 
L 109.869154 -75.860921 
L 108.463198 -75.203618 
L 107.387183 -74.918602 
L 105.876525 -74.682292 
L 104.781312 -74.58485 
L 103.361844 -74.51866 
L 102.283568 -74.488969 
L 100.739216 -74.467041 
L 99.642923 -74.459106 
L 98.203841 -74.452904 
L 97.132612 -74.45062 
L 95.54365 -74.448666 
L 94.457942 -74.447952 
L 92.999898 -74.447452 
L 91.95349 -74.447255 
L 90.303531 -74.447091 
L 89.249547 -74.447038 
L 87.777629 -74.446996 
L 86.789767 -74.44698 
L 85.579502 -74.446969 
L 84.798862 -74.446964 
L 84.018221 -74.44696 
L 83.664494 -74.446959 
L 83.335358 -74.446958 
L 83.206554 -74.446957 
L 83.077749 -74.446957 
L 83.035792 -74.446957 
L 83.031596 -74.446957 
L 83.031176 -74.446957 
z
" style="stroke: #000000; stroke-opacity: 0.2"/>
    </defs>
    <g clip-path="url(#pa68967dbcb)">
     <use xlink:href="#mc43b4769fa" x="0" y="360" style="fill-opacity: 0.2; stroke: #000000; stroke-opacity: 0.2"/>
    </g>
   </g>
   <g id="patch_7">
    <path d="M 76.25 290.68 
L 76.25 54.84 
" style="fill: none; stroke: #000000; stroke-width: 0.8; stroke-linejoin: miter; stroke-linecap: square"/>
   </g>
   <g id="patch_8">
    <path d="M 306.81 290.68 
L 306.81 54.84 
" style="fill: none; stroke: #000000; stroke-width: 0.8; stroke-linejoin: miter; stroke-linecap: square"/>
   </g>
   <g id="patch_9">
    <path d="M 76.25 290.68 
L 306.81 290.68 
" style="fill: none; stroke: #000000; stroke-width: 0.8; stroke-linejoin: miter; stroke-linecap: square"/>
   </g>
   <g id="patch_10">
    <path d="M 76.25 54.84 
L 306.81 54.84 
" style="fill: none; stroke: #000000; stroke-width: 0.8; stroke-linejoin: miter; stroke-linecap: square"/>
   </g>
   <g id="line2d_15">
    <path d="M 83.031176 285.553043 
L 83.031596 285.553043 
L 83.035792 285.553043 
L 83.077749 285.553043 
L 83.206554 285.553043 
L 83.335358 285.553042 
L 83.664494 285.553041 
L 84.018221 285.55304 
L 84.798862 285.553037 
L 85.579502 285.553033 
L 86.789767 285.553025 
L 87.777629 285.553015 
L 89.249547 285.552993 
L 90.303531 285.552969 
L 91.95349 285.552906 
L 92.999898 285.552844 
L 94.457942 285.552706 
L 95.54365 285.552546 
L 97.132612 285.552164 
L 98.203841 285.551759 
L 99.642923 285.550899 
L 100.739216 285.549886 
L 102.283568 285.547563 
L 103.361844 285.545029 
L 104.781312 285.539771 
L 105.876525 285.533521 
L 107.387183 285.519621 
L 108.463198 285.504262 
L 109.869154 285.472822 
L 110.959186 285.435534 
L 112.454508 285.354077 
L 113.532805 285.264009 
L 115.120235 285.052044 
L 116.177426 284.837776 
L 117.625832 284.39749 
L 118.72808 283.912603 
L 120.318011 282.902092 
L 121.437477 281.934047 
L 122.979174 280.230312 
L 124.132894 278.698545 
L 125.823987 276.182909 
L 127.02134 274.289901 
L 128.577904 271.811528 
L 129.757559 269.964297 
L 131.20886 267.765319 
L 132.401848 266.029608 
L 133.687911 264.236901 
L 134.973974 262.527191 
L 136.260037 260.900383 
L 137.343503 259.593385 
L 138.4317 258.337984 
L 139.268506 257.410862 
L 140.116959 256.503988 
L 140.849773 255.747013 
L 141.608107 254.988738 
L 142.235415 254.380339 
L 142.913822 253.741159 
L 143.470801 253.230685 
L 144.964536 251.922936 
L 145.68881 251.320233 
L 147.452747 249.933029 
L 148.333264 249.28203 
L 150.362502 247.879123 
L 151.436632 247.189313 
L 153.974054 245.691438 
L 155.376038 244.939013 
L 158.088509 243.61846 
L 160.019357 242.779194 
L 162.731828 241.725213 
L 165.444298 240.802559 
L 168.156769 239.995692 
L 170.869239 239.290863 
L 173.58171 238.675935 
L 176.294181 238.1402 
L 179.006651 237.674219 
L 181.719122 237.269663 
L 184.431592 236.91918 
L 187.144063 236.616274 
L 189.856534 236.355203 
L 192.569004 236.130886 
L 195.281475 235.938827 
L 197.993945 235.775042 
L 200.706416 235.636007 
L 203.418887 235.518596 
L 206.131357 235.420042 
L 208.843828 235.337893 
L 211.556298 235.269973 
L 214.268769 235.214347 
L 216.981239 235.169296 
L 219.69371 235.133283 
L 222.406181 238.181106 
L 225.118651 241.235355 
L 227.831122 244.294913 
L 230.543592 247.358777 
L 233.256063 250.426049 
L 235.968534 253.495942 
L 238.681004 256.567787 
L 241.393475 259.641038 
L 244.105945 261.68721 
L 246.818416 263.224021 
L 249.530887 264.761276 
L 252.243357 266.298822 
L 254.955828 267.836557 
L 257.668298 269.374415 
L 260.380769 270.912353 
L 263.093239 272.450342 
L 265.80571 273.988365 
L 268.518181 275.52641 
L 271.230651 277.064468 
L 273.943122 278.602537 
L 276.655592 280.140611 
L 279.368063 281.67869 
L 282.080534 283.216771 
L 284.793004 284.754854 
L 287.505475 285.553043 
L 290.217945 285.553043 
L 292.930416 285.553043 
L 295.642887 285.553043 
L 298.355357 285.553043 
L 300.028824 285.553043 
" clip-path="url(#pa68967dbcb)" style="fill: none; stroke: #000000; stroke-width: 1.5; stroke-linecap: square"/>
   </g>
   <g id="text_17">
    <g id="patch_11">
     <path d="M 192.5695 89.98825 
L 299.282 89.98825 
L 299.282 62.632 
L 192.5695 62.632 
z
" style="fill: #ffffff; opacity: 0.5; stroke: #000000; stroke-linejoin: miter"/>
    </g>
    <!-- Scale: 0.5 -->
    <g transform="translate(196.5695 81.828875) scale(0.2 -0.2)">
     <defs>
      <path id="DejaVuSans-61" d="M 2194 1759 
Q 1497 1759 1228 1600 
Q 959 1441 959 1056 
Q 959 750 1161 570 
Q 1363 391 1709 391 
Q 2188 391 2477 730 
Q 2766 1069 2766 1631 
L 2766 1759 
L 2194 1759 
z
M 3341 1997 
L 3341 0 
L 2766 0 
L 2766 531 
Q 2569 213 2275 61 
Q 1981 -91 1556 -91 
Q 1019 -91 701 211 
Q 384 513 384 1019 
Q 384 1609 779 1909 
Q 1175 2209 1959 2209 
L 2766 2209 
L 2766 2266 
Q 2766 2663 2505 2880 
Q 2244 3097 1772 3097 
Q 1472 3097 1187 3025 
Q 903 2953 641 2809 
L 641 3341 
Q 956 3463 1253 3523 
Q 1550 3584 1831 3584 
Q 2591 3584 2966 3190 
Q 3341 2797 3341 1997 
z
" transform="scale(0.015625)"/>
      <path id="DejaVuSans-3a" d="M 750 794 
L 1409 794 
L 1409 0 
L 750 0 
L 750 794 
z
M 750 3309 
L 1409 3309 
L 1409 2516 
L 750 2516 
L 750 3309 
z
" transform="scale(0.015625)"/>
     </defs>
     <use xlink:href="#DejaVuSans-53"/>
     <use xlink:href="#DejaVuSans-63" x="63.476562"/>
     <use xlink:href="#DejaVuSans-61" x="118.457031"/>
     <use xlink:href="#DejaVuSans-6c" x="179.736328"/>
     <use xlink:href="#DejaVuSans-65" x="207.519531"/>
     <use xlink:href="#DejaVuSans-3a" x="269.042969"/>
     <use xlink:href="#DejaVuSans-20" x="302.734375"/>
     <use xlink:href="#DejaVuSans-30" x="334.521484"/>
     <use xlink:href="#DejaVuSans-2e" x="398.144531"/>
     <use xlink:href="#DejaVuSans-35" x="429.931641"/>
    </g>
   </g>
  </g>
 </g>
 <defs>
  <clipPath id="pa68967dbcb">
   <rect x="76.25" y="54.84" width="230.56" height="235.84"/>
  </clipPath>
 </defs>
</svg>
