<?xml version="1.0" encoding="utf-8" standalone="no"?>
<!DOCTYPE svg PUBLIC "-//W3C//DTD SVG 1.1//EN"
  "http://www.w3.org/Graphics/SVG/1.1/DTD/svg11.dtd">
<svg xmlns:xlink="http://www.w3.org/1999/xlink" width="360pt" height="360pt" viewBox="0 0 360 360" xmlns="http://www.w3.org/2000/svg" version="1.1">
 <metadata>
  <rdf:RDF xmlns:dc="http://purl.org/dc/elements/1.1/" xmlns:cc="http://creativecommons.org/ns#" xmlns:rdf="http://www.w3.org/1999/02/22-rdf-syntax-ns#">
   <cc:Work>
    <dc:type rdf:resource="http://purl.org/dc/dcmitype/StillImage"/>
    <dc:date>2025-02-10T11:36:17.904716</dc:date>
    <dc:format>image/svg+xml</dc:format>
    <dc:creator>
     <cc:Agent>
      <dc:title>Matplotlib v3.10.0, https://matplotlib.org/</dc:title>
     </cc:Agent>
    </dc:creator>
   </cc:Work>
  </rdf:RDF>
 </metadata>
 <defs>
  <style type="text/css">*{stroke-linejoin: round; stroke-linecap: butt}</style>
 </defs>
 <g id="figure_1">
  <g id="patch_1">
   <path d="M 0 360 
L 360 360 
L 360 0 
L 0 0 
L 0 360 
z
" style="fill: none"/>
  </g>
  <g id="axes_1">
   <g id="patch_2">
    <path d="M 75.6225 288.9 
L 263.27 288.9 
L 263.27 61.44 
L 75.6225 61.44 
L 75.6225 288.9 
z
" style="fill: none"/>
   </g>
   <g id="matplotlib.axis_1">
    <g id="xtick_1">
     <g id="text_1">
      <!-- 0 -->
      <g style="fill: #262626" transform="translate(74.468419 315.57875) scale(0.24 -0.24)">
       <defs>
        <path id="ArialMT-30" d="M 266 2259 
Q 266 3072 433 3567 
Q 600 4063 929 4331 
Q 1259 4600 1759 4600 
Q 2128 4600 2406 4451 
Q 2684 4303 2865 4023 
Q 3047 3744 3150 3342 
Q 3253 2941 3253 2259 
Q 3253 1453 3087 958 
Q 2922 463 2592 192 
Q 2263 -78 1759 -78 
Q 1097 -78 719 397 
Q 266 969 266 2259 
z
M 844 2259 
Q 844 1131 1108 757 
Q 1372 384 1759 384 
Q 2147 384 2411 759 
Q 2675 1134 2675 2259 
Q 2675 3391 2411 3762 
Q 2147 4134 1753 4134 
Q 1366 4134 1134 3806 
Q 844 3388 844 2259 
z
" transform="scale(0.015625)"/>
       </defs>
       <use xlink:href="#ArialMT-30"/>
      </g>
     </g>
    </g>
    <g id="xtick_2">
     <g id="text_2">
      <!-- 2 -->
      <g style="fill: #262626" transform="translate(118.620772 315.57875) scale(0.24 -0.24)">
       <defs>
        <path id="ArialMT-32" d="M 3222 541 
L 3222 0 
L 194 0 
Q 188 203 259 391 
Q 375 700 629 1000 
Q 884 1300 1366 1694 
Q 2113 2306 2375 2664 
Q 2638 3022 2638 3341 
Q 2638 3675 2398 3904 
Q 2159 4134 1775 4134 
Q 1369 4134 1125 3890 
Q 881 3647 878 3216 
L 300 3275 
Q 359 3922 746 4261 
Q 1134 4600 1788 4600 
Q 2447 4600 2831 4234 
Q 3216 3869 3216 3328 
Q 3216 3053 3103 2787 
Q 2991 2522 2730 2228 
Q 2469 1934 1863 1422 
Q 1356 997 1212 845 
Q 1069 694 975 541 
L 3222 541 
z
" transform="scale(0.015625)"/>
       </defs>
       <use xlink:href="#ArialMT-32"/>
      </g>
     </g>
    </g>
    <g id="xtick_3">
     <g id="text_3">
      <!-- 4 -->
      <g style="fill: #262626" transform="translate(162.773125 315.57875) scale(0.24 -0.24)">
       <defs>
        <path id="ArialMT-34" d="M 2069 0 
L 2069 1097 
L 81 1097 
L 81 1613 
L 2172 4581 
L 2631 4581 
L 2631 1613 
L 3250 1613 
L 3250 1097 
L 2631 1097 
L 2631 0 
L 2069 0 
z
M 2069 1613 
L 2069 3678 
L 634 1613 
L 2069 1613 
z
" transform="scale(0.015625)"/>
       </defs>
       <use xlink:href="#ArialMT-34"/>
      </g>
     </g>
    </g>
    <g id="xtick_4">
     <g id="text_4">
      <!-- 6 -->
      <g style="fill: #262626" transform="translate(206.925478 315.57875) scale(0.24 -0.24)">
       <defs>
        <path id="ArialMT-36" d="M 3184 3459 
L 2625 3416 
Q 2550 3747 2413 3897 
Q 2184 4138 1850 4138 
Q 1581 4138 1378 3988 
Q 1113 3794 959 3422 
Q 806 3050 800 2363 
Q 1003 2672 1297 2822 
Q 1591 2972 1913 2972 
Q 2475 2972 2870 2558 
Q 3266 2144 3266 1488 
Q 3266 1056 3080 686 
Q 2894 316 2569 119 
Q 2244 -78 1831 -78 
Q 1128 -78 684 439 
Q 241 956 241 2144 
Q 241 3472 731 4075 
Q 1159 4600 1884 4600 
Q 2425 4600 2770 4297 
Q 3116 3994 3184 3459 
z
M 888 1484 
Q 888 1194 1011 928 
Q 1134 663 1356 523 
Q 1578 384 1822 384 
Q 2178 384 2434 671 
Q 2691 959 2691 1453 
Q 2691 1928 2437 2201 
Q 2184 2475 1800 2475 
Q 1419 2475 1153 2201 
Q 888 1928 888 1484 
z
" transform="scale(0.015625)"/>
       </defs>
       <use xlink:href="#ArialMT-36"/>
      </g>
     </g>
    </g>
    <g id="xtick_5">
     <g id="text_5">
      <!-- 8 -->
      <g style="fill: #262626" transform="translate(251.077831 315.57875) scale(0.24 -0.24)">
       <defs>
        <path id="ArialMT-38" d="M 1131 2484 
Q 781 2613 612 2850 
Q 444 3088 444 3419 
Q 444 3919 803 4259 
Q 1163 4600 1759 4600 
Q 2359 4600 2725 4251 
Q 3091 3903 3091 3403 
Q 3091 3084 2923 2848 
Q 2756 2613 2416 2484 
Q 2838 2347 3058 2040 
Q 3278 1734 3278 1309 
Q 3278 722 2862 322 
Q 2447 -78 1769 -78 
Q 1091 -78 675 323 
Q 259 725 259 1325 
Q 259 1772 486 2073 
Q 713 2375 1131 2484 
z
M 1019 3438 
Q 1019 3113 1228 2906 
Q 1438 2700 1772 2700 
Q 2097 2700 2305 2904 
Q 2513 3109 2513 3406 
Q 2513 3716 2298 3927 
Q 2084 4138 1766 4138 
Q 1444 4138 1231 3931 
Q 1019 3725 1019 3438 
z
M 838 1322 
Q 838 1081 952 856 
Q 1066 631 1291 507 
Q 1516 384 1775 384 
Q 2178 384 2440 643 
Q 2703 903 2703 1303 
Q 2703 1709 2433 1975 
Q 2163 2241 1756 2241 
Q 1359 2241 1098 1978 
Q 838 1716 838 1322 
z
" transform="scale(0.015625)"/>
       </defs>
       <use xlink:href="#ArialMT-38"/>
      </g>
     </g>
    </g>
    <g id="text_6">
     <!-- Time (d) -->
     <g style="fill: #262626" transform="translate(125.23375 341.82) scale(0.24 -0.24)">
      <defs>
       <path id="ArialMT-54" d="M 1659 0 
L 1659 4041 
L 150 4041 
L 150 4581 
L 3781 4581 
L 3781 4041 
L 2266 4041 
L 2266 0 
L 1659 0 
z
" transform="scale(0.015625)"/>
       <path id="ArialMT-69" d="M 425 3934 
L 425 4581 
L 988 4581 
L 988 3934 
L 425 3934 
z
M 425 0 
L 425 3319 
L 988 3319 
L 988 0 
L 425 0 
z
" transform="scale(0.015625)"/>
       <path id="ArialMT-6d" d="M 422 0 
L 422 3319 
L 925 3319 
L 925 2853 
Q 1081 3097 1340 3245 
Q 1600 3394 1931 3394 
Q 2300 3394 2536 3241 
Q 2772 3088 2869 2813 
Q 3263 3394 3894 3394 
Q 4388 3394 4653 3120 
Q 4919 2847 4919 2278 
L 4919 0 
L 4359 0 
L 4359 2091 
Q 4359 2428 4304 2576 
Q 4250 2725 4106 2815 
Q 3963 2906 3769 2906 
Q 3419 2906 3187 2673 
Q 2956 2441 2956 1928 
L 2956 0 
L 2394 0 
L 2394 2156 
Q 2394 2531 2256 2718 
Q 2119 2906 1806 2906 
Q 1569 2906 1367 2781 
Q 1166 2656 1075 2415 
Q 984 2175 984 1722 
L 984 0 
L 422 0 
z
" transform="scale(0.015625)"/>
       <path id="ArialMT-65" d="M 2694 1069 
L 3275 997 
Q 3138 488 2766 206 
Q 2394 -75 1816 -75 
Q 1088 -75 661 373 
Q 234 822 234 1631 
Q 234 2469 665 2931 
Q 1097 3394 1784 3394 
Q 2450 3394 2872 2941 
Q 3294 2488 3294 1666 
Q 3294 1616 3291 1516 
L 816 1516 
Q 847 969 1125 678 
Q 1403 388 1819 388 
Q 2128 388 2347 550 
Q 2566 713 2694 1069 
z
M 847 1978 
L 2700 1978 
Q 2663 2397 2488 2606 
Q 2219 2931 1791 2931 
Q 1403 2931 1139 2672 
Q 875 2413 847 1978 
z
" transform="scale(0.015625)"/>
       <path id="ArialMT-20" transform="scale(0.015625)"/>
       <path id="ArialMT-28" d="M 1497 -1347 
Q 1031 -759 709 28 
Q 388 816 388 1659 
Q 388 2403 628 3084 
Q 909 3875 1497 4659 
L 1900 4659 
Q 1522 4009 1400 3731 
Q 1209 3300 1100 2831 
Q 966 2247 966 1656 
Q 966 153 1900 -1347 
L 1497 -1347 
z
" transform="scale(0.015625)"/>
       <path id="ArialMT-64" d="M 2575 0 
L 2575 419 
Q 2259 -75 1647 -75 
Q 1250 -75 917 144 
Q 584 363 401 755 
Q 219 1147 219 1656 
Q 219 2153 384 2558 
Q 550 2963 881 3178 
Q 1213 3394 1622 3394 
Q 1922 3394 2156 3267 
Q 2391 3141 2538 2938 
L 2538 4581 
L 3097 4581 
L 3097 0 
L 2575 0 
z
M 797 1656 
Q 797 1019 1065 703 
Q 1334 388 1700 388 
Q 2069 388 2326 689 
Q 2584 991 2584 1609 
Q 2584 2291 2321 2609 
Q 2059 2928 1675 2928 
Q 1300 2928 1048 2622 
Q 797 2316 797 1656 
z
" transform="scale(0.015625)"/>
       <path id="ArialMT-29" d="M 791 -1347 
L 388 -1347 
Q 1322 153 1322 1656 
Q 1322 2244 1188 2822 
Q 1081 3291 891 3722 
Q 769 4003 388 4659 
L 791 4659 
Q 1378 3875 1659 3084 
Q 1900 2403 1900 1659 
Q 1900 816 1576 28 
Q 1253 -759 791 -1347 
z
" transform="scale(0.015625)"/>
      </defs>
      <use xlink:href="#ArialMT-54"/>
      <use xlink:href="#ArialMT-69" transform="translate(57.333984 0)"/>
      <use xlink:href="#ArialMT-6d" transform="translate(79.550781 0)"/>
      <use xlink:href="#ArialMT-65" transform="translate(162.851562 0)"/>
      <use xlink:href="#ArialMT-20" transform="translate(218.466797 0)"/>
      <use xlink:href="#ArialMT-28" transform="translate(246.25 0)"/>
      <use xlink:href="#ArialMT-64" transform="translate(279.550781 0)"/>
      <use xlink:href="#ArialMT-29" transform="translate(335.166016 0)"/>
     </g>
    </g>
   </g>
   <g id="matplotlib.axis_2">
    <g id="ytick_1">
     <g id="line2d_1">
      <defs>
       <path id="m0c5b509f5e" d="M 0 0 
L -6 0 
" style="stroke: #262626; stroke-width: 1.25"/>
      </defs>
      <g>
       <use xlink:href="#m0c5b509f5e" x="75.6225" y="283.671034" style="fill: #262626; stroke: #262626; stroke-width: 1.25"/>
      </g>
     </g>
     <g id="text_7">
      <!-- 0 -->
      <g style="fill: #262626" transform="translate(52.77625 292.260409) scale(0.24 -0.24)">
       <use xlink:href="#ArialMT-30"/>
      </g>
     </g>
    </g>
    <g id="ytick_2">
     <g id="line2d_2">
      <g>
       <use xlink:href="#m0c5b509f5e" x="75.6225" y="179.091724" style="fill: #262626; stroke: #262626; stroke-width: 1.25"/>
      </g>
     </g>
     <g id="text_8">
      <!-- 10 -->
      <g style="fill: #262626" transform="translate(39.43 187.681099) scale(0.24 -0.24)">
       <defs>
        <path id="ArialMT-31" d="M 2384 0 
L 1822 0 
L 1822 3584 
Q 1619 3391 1289 3197 
Q 959 3003 697 2906 
L 697 3450 
Q 1169 3672 1522 3987 
Q 1875 4303 2022 4600 
L 2384 4600 
L 2384 0 
z
" transform="scale(0.015625)"/>
       </defs>
       <use xlink:href="#ArialMT-31"/>
       <use xlink:href="#ArialMT-30" transform="translate(55.615234 0)"/>
      </g>
     </g>
    </g>
    <g id="ytick_3">
     <g id="line2d_3">
      <g>
       <use xlink:href="#m0c5b509f5e" x="75.6225" y="74.512414" style="fill: #262626; stroke: #262626; stroke-width: 1.25"/>
      </g>
     </g>
     <g id="text_9">
      <!-- 20 -->
      <g style="fill: #262626" transform="translate(39.43 83.101789) scale(0.24 -0.24)">
       <use xlink:href="#ArialMT-32"/>
       <use xlink:href="#ArialMT-30" transform="translate(55.615234 0)"/>
      </g>
     </g>
    </g>
    <g id="text_10">
     <!-- Symptom Score -->
     <g style="fill: #262626" transform="translate(30.37875 260.525625) rotate(-90) scale(0.24 -0.24)">
      <defs>
       <path id="ArialMT-53" d="M 288 1472 
L 859 1522 
Q 900 1178 1048 958 
Q 1197 738 1509 602 
Q 1822 466 2213 466 
Q 2559 466 2825 569 
Q 3091 672 3220 851 
Q 3350 1031 3350 1244 
Q 3350 1459 3225 1620 
Q 3100 1781 2813 1891 
Q 2628 1963 1997 2114 
Q 1366 2266 1113 2400 
Q 784 2572 623 2826 
Q 463 3081 463 3397 
Q 463 3744 659 4045 
Q 856 4347 1234 4503 
Q 1613 4659 2075 4659 
Q 2584 4659 2973 4495 
Q 3363 4331 3572 4012 
Q 3781 3694 3797 3291 
L 3216 3247 
Q 3169 3681 2898 3903 
Q 2628 4125 2100 4125 
Q 1550 4125 1298 3923 
Q 1047 3722 1047 3438 
Q 1047 3191 1225 3031 
Q 1400 2872 2139 2705 
Q 2878 2538 3153 2413 
Q 3553 2228 3743 1945 
Q 3934 1663 3934 1294 
Q 3934 928 3725 604 
Q 3516 281 3123 101 
Q 2731 -78 2241 -78 
Q 1619 -78 1198 103 
Q 778 284 539 648 
Q 300 1013 288 1472 
z
" transform="scale(0.015625)"/>
       <path id="ArialMT-79" d="M 397 -1278 
L 334 -750 
Q 519 -800 656 -800 
Q 844 -800 956 -737 
Q 1069 -675 1141 -563 
Q 1194 -478 1313 -144 
Q 1328 -97 1363 -6 
L 103 3319 
L 709 3319 
L 1400 1397 
Q 1534 1031 1641 628 
Q 1738 1016 1872 1384 
L 2581 3319 
L 3144 3319 
L 1881 -56 
Q 1678 -603 1566 -809 
Q 1416 -1088 1222 -1217 
Q 1028 -1347 759 -1347 
Q 597 -1347 397 -1278 
z
" transform="scale(0.015625)"/>
       <path id="ArialMT-70" d="M 422 -1272 
L 422 3319 
L 934 3319 
L 934 2888 
Q 1116 3141 1344 3267 
Q 1572 3394 1897 3394 
Q 2322 3394 2647 3175 
Q 2972 2956 3137 2557 
Q 3303 2159 3303 1684 
Q 3303 1175 3120 767 
Q 2938 359 2589 142 
Q 2241 -75 1856 -75 
Q 1575 -75 1351 44 
Q 1128 163 984 344 
L 984 -1272 
L 422 -1272 
z
M 931 1641 
Q 931 1000 1190 694 
Q 1450 388 1819 388 
Q 2194 388 2461 705 
Q 2728 1022 2728 1688 
Q 2728 2322 2467 2637 
Q 2206 2953 1844 2953 
Q 1484 2953 1207 2617 
Q 931 2281 931 1641 
z
" transform="scale(0.015625)"/>
       <path id="ArialMT-74" d="M 1650 503 
L 1731 6 
Q 1494 -44 1306 -44 
Q 1000 -44 831 53 
Q 663 150 594 308 
Q 525 466 525 972 
L 525 2881 
L 113 2881 
L 113 3319 
L 525 3319 
L 525 4141 
L 1084 4478 
L 1084 3319 
L 1650 3319 
L 1650 2881 
L 1084 2881 
L 1084 941 
Q 1084 700 1114 631 
Q 1144 563 1211 522 
Q 1278 481 1403 481 
Q 1497 481 1650 503 
z
" transform="scale(0.015625)"/>
       <path id="ArialMT-6f" d="M 213 1659 
Q 213 2581 725 3025 
Q 1153 3394 1769 3394 
Q 2453 3394 2887 2945 
Q 3322 2497 3322 1706 
Q 3322 1066 3130 698 
Q 2938 331 2570 128 
Q 2203 -75 1769 -75 
Q 1072 -75 642 372 
Q 213 819 213 1659 
z
M 791 1659 
Q 791 1022 1069 705 
Q 1347 388 1769 388 
Q 2188 388 2466 706 
Q 2744 1025 2744 1678 
Q 2744 2294 2464 2611 
Q 2184 2928 1769 2928 
Q 1347 2928 1069 2612 
Q 791 2297 791 1659 
z
" transform="scale(0.015625)"/>
       <path id="ArialMT-63" d="M 2588 1216 
L 3141 1144 
Q 3050 572 2676 248 
Q 2303 -75 1759 -75 
Q 1078 -75 664 370 
Q 250 816 250 1647 
Q 250 2184 428 2587 
Q 606 2991 970 3192 
Q 1334 3394 1763 3394 
Q 2303 3394 2647 3120 
Q 2991 2847 3088 2344 
L 2541 2259 
Q 2463 2594 2264 2762 
Q 2066 2931 1784 2931 
Q 1359 2931 1093 2626 
Q 828 2322 828 1663 
Q 828 994 1084 691 
Q 1341 388 1753 388 
Q 2084 388 2306 591 
Q 2528 794 2588 1216 
z
" transform="scale(0.015625)"/>
       <path id="ArialMT-72" d="M 416 0 
L 416 3319 
L 922 3319 
L 922 2816 
Q 1116 3169 1280 3281 
Q 1444 3394 1641 3394 
Q 1925 3394 2219 3213 
L 2025 2691 
Q 1819 2813 1613 2813 
Q 1428 2813 1281 2702 
Q 1134 2591 1072 2394 
Q 978 2094 978 1738 
L 978 0 
L 416 0 
z
" transform="scale(0.015625)"/>
      </defs>
      <use xlink:href="#ArialMT-53"/>
      <use xlink:href="#ArialMT-79" transform="translate(66.699219 0)"/>
      <use xlink:href="#ArialMT-6d" transform="translate(116.699219 0)"/>
      <use xlink:href="#ArialMT-70" transform="translate(200 0)"/>
      <use xlink:href="#ArialMT-74" transform="translate(255.615234 0)"/>
      <use xlink:href="#ArialMT-6f" transform="translate(283.398438 0)"/>
      <use xlink:href="#ArialMT-6d" transform="translate(339.013672 0)"/>
      <use xlink:href="#ArialMT-20" transform="translate(422.314453 0)"/>
      <use xlink:href="#ArialMT-53" transform="translate(450.097656 0)"/>
      <use xlink:href="#ArialMT-63" transform="translate(516.796875 0)"/>
      <use xlink:href="#ArialMT-6f" transform="translate(566.796875 0)"/>
      <use xlink:href="#ArialMT-72" transform="translate(622.412109 0)"/>
      <use xlink:href="#ArialMT-65" transform="translate(655.712891 0)"/>
     </g>
    </g>
   </g>
   <g id="patch_3">
    <path d="M 75.6225 288.9 
L 75.6225 61.44 
" style="fill: none; stroke: #000000; stroke-width: 3; stroke-linejoin: miter; stroke-linecap: square"/>
   </g>
   <g id="patch_4">
    <path d="M 263.27 288.9 
L 263.27 61.44 
" style="fill: none; stroke: #000000; stroke-width: 3; stroke-linejoin: miter; stroke-linecap: square"/>
   </g>
   <g id="patch_5">
    <path d="M 75.6225 288.9 
L 263.27 288.9 
" style="fill: none; stroke: #000000; stroke-width: 3; stroke-linejoin: miter; stroke-linecap: square"/>
   </g>
   <g id="patch_6">
    <path d="M 75.6225 61.44 
L 263.27 61.44 
" style="fill: none; stroke: #000000; stroke-width: 3; stroke-linejoin: miter; stroke-linecap: square"/>
   </g>
   <g id="text_11">
    <!-- Individual 27 -->
    <g style="fill: #262626" transform="translate(102.068125 55.44) scale(0.24 -0.24)">
     <defs>
      <path id="ArialMT-49" d="M 597 0 
L 597 4581 
L 1203 4581 
L 1203 0 
L 597 0 
z
" transform="scale(0.015625)"/>
      <path id="ArialMT-6e" d="M 422 0 
L 422 3319 
L 928 3319 
L 928 2847 
Q 1294 3394 1984 3394 
Q 2284 3394 2536 3286 
Q 2788 3178 2913 3003 
Q 3038 2828 3088 2588 
Q 3119 2431 3119 2041 
L 3119 0 
L 2556 0 
L 2556 2019 
Q 2556 2363 2490 2533 
Q 2425 2703 2258 2804 
Q 2091 2906 1866 2906 
Q 1506 2906 1245 2678 
Q 984 2450 984 1813 
L 984 0 
L 422 0 
z
" transform="scale(0.015625)"/>
      <path id="ArialMT-76" d="M 1344 0 
L 81 3319 
L 675 3319 
L 1388 1331 
Q 1503 1009 1600 663 
Q 1675 925 1809 1294 
L 2547 3319 
L 3125 3319 
L 1869 0 
L 1344 0 
z
" transform="scale(0.015625)"/>
      <path id="ArialMT-75" d="M 2597 0 
L 2597 488 
Q 2209 -75 1544 -75 
Q 1250 -75 995 37 
Q 741 150 617 320 
Q 494 491 444 738 
Q 409 903 409 1263 
L 409 3319 
L 972 3319 
L 972 1478 
Q 972 1038 1006 884 
Q 1059 663 1231 536 
Q 1403 409 1656 409 
Q 1909 409 2131 539 
Q 2353 669 2445 892 
Q 2538 1116 2538 1541 
L 2538 3319 
L 3100 3319 
L 3100 0 
L 2597 0 
z
" transform="scale(0.015625)"/>
      <path id="ArialMT-61" d="M 2588 409 
Q 2275 144 1986 34 
Q 1697 -75 1366 -75 
Q 819 -75 525 192 
Q 231 459 231 875 
Q 231 1119 342 1320 
Q 453 1522 633 1644 
Q 813 1766 1038 1828 
Q 1203 1872 1538 1913 
Q 2219 1994 2541 2106 
Q 2544 2222 2544 2253 
Q 2544 2597 2384 2738 
Q 2169 2928 1744 2928 
Q 1347 2928 1158 2789 
Q 969 2650 878 2297 
L 328 2372 
Q 403 2725 575 2942 
Q 747 3159 1072 3276 
Q 1397 3394 1825 3394 
Q 2250 3394 2515 3294 
Q 2781 3194 2906 3042 
Q 3031 2891 3081 2659 
Q 3109 2516 3109 2141 
L 3109 1391 
Q 3109 606 3145 398 
Q 3181 191 3288 0 
L 2700 0 
Q 2613 175 2588 409 
z
M 2541 1666 
Q 2234 1541 1622 1453 
Q 1275 1403 1131 1340 
Q 988 1278 909 1158 
Q 831 1038 831 891 
Q 831 666 1001 516 
Q 1172 366 1500 366 
Q 1825 366 2078 508 
Q 2331 650 2450 897 
Q 2541 1088 2541 1459 
L 2541 1666 
z
" transform="scale(0.015625)"/>
      <path id="ArialMT-6c" d="M 409 0 
L 409 4581 
L 972 4581 
L 972 0 
L 409 0 
z
" transform="scale(0.015625)"/>
      <path id="ArialMT-37" d="M 303 3981 
L 303 4522 
L 3269 4522 
L 3269 4084 
Q 2831 3619 2401 2847 
Q 1972 2075 1738 1259 
Q 1569 684 1522 0 
L 944 0 
Q 953 541 1156 1306 
Q 1359 2072 1739 2783 
Q 2119 3494 2547 3981 
L 303 3981 
z
" transform="scale(0.015625)"/>
     </defs>
     <use xlink:href="#ArialMT-49"/>
     <use xlink:href="#ArialMT-6e" transform="translate(27.783203 0)"/>
     <use xlink:href="#ArialMT-64" transform="translate(83.398438 0)"/>
     <use xlink:href="#ArialMT-69" transform="translate(139.013672 0)"/>
     <use xlink:href="#ArialMT-76" transform="translate(161.230469 0)"/>
     <use xlink:href="#ArialMT-69" transform="translate(211.230469 0)"/>
     <use xlink:href="#ArialMT-64" transform="translate(233.447266 0)"/>
     <use xlink:href="#ArialMT-75" transform="translate(289.0625 0)"/>
     <use xlink:href="#ArialMT-61" transform="translate(344.677734 0)"/>
     <use xlink:href="#ArialMT-6c" transform="translate(400.292969 0)"/>
     <use xlink:href="#ArialMT-20" transform="translate(422.509766 0)"/>
     <use xlink:href="#ArialMT-32" transform="translate(450.292969 0)"/>
     <use xlink:href="#ArialMT-37" transform="translate(505.908203 0)"/>
    </g>
   </g>
   <g id="PathCollection_1">
    <defs>
     <path id="mf552e5156c" d="M 0 4.330127 
C 1.148363 4.330127 2.249847 3.873878 3.061862 3.061862 
C 3.873878 2.249847 4.330127 1.148363 4.330127 0 
C 4.330127 -1.148363 3.873878 -2.249847 3.061862 -3.061862 
C 2.249847 -3.873878 1.148363 -4.330127 0 -4.330127 
C -1.148363 -4.330127 -2.249847 -3.873878 -3.061862 -3.061862 
C -3.873878 -2.249847 -4.330127 -1.148363 -4.330127 0 
C -4.330127 1.148363 -3.873878 2.249847 -3.061862 3.061862 
C -2.249847 3.873878 -1.148363 4.330127 0 4.330127 
z
" style="stroke: #000000; stroke-opacity: 0.8"/>
    </defs>
    <g clip-path="url(#p205062ad46)">
     <use xlink:href="#mf552e5156c" x="81.141544" y="283.671034" style="fill-opacity: 0.8; stroke: #000000; stroke-opacity: 0.8"/>
     <use xlink:href="#mf552e5156c" x="103.217721" y="271.83984" style="fill-opacity: 0.8; stroke: #000000; stroke-opacity: 0.8"/>
     <use xlink:href="#mf552e5156c" x="125.293897" y="208.880982" style="fill-opacity: 0.8; stroke: #000000; stroke-opacity: 0.8"/>
     <use xlink:href="#mf552e5156c" x="147.370074" y="249.445078" style="fill-opacity: 0.8; stroke: #000000; stroke-opacity: 0.8"/>
     <use xlink:href="#mf552e5156c" x="169.44625" y="269.304584" style="fill-opacity: 0.8; stroke: #000000; stroke-opacity: 0.8"/>
     <use xlink:href="#mf552e5156c" x="191.522426" y="260.642459" style="fill-opacity: 0.8; stroke: #000000; stroke-opacity: 0.8"/>
     <use xlink:href="#mf552e5156c" x="213.598603" y="282.614678" style="fill-opacity: 0.8; stroke: #000000; stroke-opacity: 0.8"/>
     <use xlink:href="#mf552e5156c" x="235.674779" y="283.671034" style="fill-opacity: 0.8; stroke: #000000; stroke-opacity: 0.8"/>
    </g>
   </g>
  </g>
  <g id="axes_2">
   <g id="matplotlib.axis_3">
    <g id="ytick_4">
     <g id="line2d_4">
      <defs>
       <path id="m9fe38417dd" d="M 0 0 
L 6 0 
" style="stroke: #e200ff; stroke-width: 1.25"/>
      </defs>
      <g>
       <use xlink:href="#m9fe38417dd" x="263.27" y="283.955217" style="fill: #e200ff; stroke: #e200ff; stroke-width: 1.25"/>
      </g>
     </g>
     <g id="text_12">
      <!-- 0e+0 -->
      <g style="fill: #e200ff" transform="translate(272.77 292.544592) scale(0.24 -0.24)">
       <defs>
        <path id="ArialMT-2b" d="M 1603 741 
L 1603 1997 
L 356 1997 
L 356 2522 
L 1603 2522 
L 1603 3769 
L 2134 3769 
L 2134 2522 
L 3381 2522 
L 3381 1997 
L 2134 1997 
L 2134 741 
L 1603 741 
z
" transform="scale(0.015625)"/>
       </defs>
       <use xlink:href="#ArialMT-30"/>
       <use xlink:href="#ArialMT-65" transform="translate(55.615234 0)"/>
       <use xlink:href="#ArialMT-2b" transform="translate(111.230469 0)"/>
       <use xlink:href="#ArialMT-30" transform="translate(169.628906 0)"/>
      </g>
     </g>
    </g>
    <g id="ytick_5">
     <g id="line2d_5">
      <g>
       <use xlink:href="#m9fe38417dd" x="263.27" y="222.145435" style="fill: #e200ff; stroke: #e200ff; stroke-width: 1.25"/>
      </g>
     </g>
     <g id="text_13">
      <!-- 2e+7 -->
      <g style="fill: #e200ff" transform="translate(272.77 230.73481) scale(0.24 -0.24)">
       <use xlink:href="#ArialMT-32"/>
       <use xlink:href="#ArialMT-65" transform="translate(55.615234 0)"/>
       <use xlink:href="#ArialMT-2b" transform="translate(111.230469 0)"/>
       <use xlink:href="#ArialMT-37" transform="translate(169.628906 0)"/>
      </g>
     </g>
    </g>
    <g id="ytick_6">
     <g id="line2d_6">
      <g>
       <use xlink:href="#m9fe38417dd" x="263.27" y="160.335652" style="fill: #e200ff; stroke: #e200ff; stroke-width: 1.25"/>
      </g>
     </g>
     <g id="text_14">
      <!-- 5e+7 -->
      <g style="fill: #e200ff" transform="translate(272.77 168.925027) scale(0.24 -0.24)">
       <defs>
        <path id="ArialMT-35" d="M 266 1200 
L 856 1250 
Q 922 819 1161 601 
Q 1400 384 1738 384 
Q 2144 384 2425 690 
Q 2706 997 2706 1503 
Q 2706 1984 2436 2262 
Q 2166 2541 1728 2541 
Q 1456 2541 1237 2417 
Q 1019 2294 894 2097 
L 366 2166 
L 809 4519 
L 3088 4519 
L 3088 3981 
L 1259 3981 
L 1013 2750 
Q 1425 3038 1878 3038 
Q 2478 3038 2890 2622 
Q 3303 2206 3303 1553 
Q 3303 931 2941 478 
Q 2500 -78 1738 -78 
Q 1113 -78 717 272 
Q 322 622 266 1200 
z
" transform="scale(0.015625)"/>
       </defs>
       <use xlink:href="#ArialMT-35"/>
       <use xlink:href="#ArialMT-65" transform="translate(55.615234 0)"/>
       <use xlink:href="#ArialMT-2b" transform="translate(111.230469 0)"/>
       <use xlink:href="#ArialMT-37" transform="translate(169.628906 0)"/>
      </g>
     </g>
    </g>
    <g id="ytick_7">
     <g id="line2d_7">
      <g>
       <use xlink:href="#m9fe38417dd" x="263.27" y="98.52587" style="fill: #e200ff; stroke: #e200ff; stroke-width: 1.25"/>
      </g>
     </g>
     <g id="text_15">
      <!-- 8e+7 -->
      <g style="fill: #e200ff" transform="translate(272.77 107.115245) scale(0.24 -0.24)">
       <use xlink:href="#ArialMT-38"/>
       <use xlink:href="#ArialMT-65" transform="translate(55.615234 0)"/>
       <use xlink:href="#ArialMT-2b" transform="translate(111.230469 0)"/>
       <use xlink:href="#ArialMT-37" transform="translate(169.628906 0)"/>
      </g>
     </g>
    </g>
    <g id="text_16">
     <!-- CAUC Infected Cells -->
     <g style="fill: #e200ff" transform="translate(329.6475 65.13375) rotate(-270) scale(0.24 -0.24)">
      <defs>
       <path id="ArialMT-43" d="M 3763 1606 
L 4369 1453 
Q 4178 706 3683 314 
Q 3188 -78 2472 -78 
Q 1731 -78 1267 223 
Q 803 525 561 1097 
Q 319 1669 319 2325 
Q 319 3041 592 3573 
Q 866 4106 1370 4382 
Q 1875 4659 2481 4659 
Q 3169 4659 3637 4309 
Q 4106 3959 4291 3325 
L 3694 3184 
Q 3534 3684 3231 3912 
Q 2928 4141 2469 4141 
Q 1941 4141 1586 3887 
Q 1231 3634 1087 3207 
Q 944 2781 944 2328 
Q 944 1744 1114 1308 
Q 1284 872 1643 656 
Q 2003 441 2422 441 
Q 2931 441 3284 734 
Q 3638 1028 3763 1606 
z
" transform="scale(0.015625)"/>
       <path id="ArialMT-41" d="M -9 0 
L 1750 4581 
L 2403 4581 
L 4278 0 
L 3588 0 
L 3053 1388 
L 1138 1388 
L 634 0 
L -9 0 
z
M 1313 1881 
L 2866 1881 
L 2388 3150 
Q 2169 3728 2063 4100 
Q 1975 3659 1816 3225 
L 1313 1881 
z
" transform="scale(0.015625)"/>
       <path id="ArialMT-55" d="M 3500 4581 
L 4106 4581 
L 4106 1934 
Q 4106 1244 3950 837 
Q 3794 431 3386 176 
Q 2978 -78 2316 -78 
Q 1672 -78 1262 144 
Q 853 366 678 786 
Q 503 1206 503 1934 
L 503 4581 
L 1109 4581 
L 1109 1938 
Q 1109 1341 1220 1058 
Q 1331 775 1601 622 
Q 1872 469 2263 469 
Q 2931 469 3215 772 
Q 3500 1075 3500 1938 
L 3500 4581 
z
" transform="scale(0.015625)"/>
       <path id="ArialMT-66" d="M 556 0 
L 556 2881 
L 59 2881 
L 59 3319 
L 556 3319 
L 556 3672 
Q 556 4006 616 4169 
Q 697 4388 901 4523 
Q 1106 4659 1475 4659 
Q 1713 4659 2000 4603 
L 1916 4113 
Q 1741 4144 1584 4144 
Q 1328 4144 1222 4034 
Q 1116 3925 1116 3625 
L 1116 3319 
L 1763 3319 
L 1763 2881 
L 1116 2881 
L 1116 0 
L 556 0 
z
" transform="scale(0.015625)"/>
       <path id="ArialMT-73" d="M 197 991 
L 753 1078 
Q 800 744 1014 566 
Q 1228 388 1613 388 
Q 2000 388 2187 545 
Q 2375 703 2375 916 
Q 2375 1106 2209 1216 
Q 2094 1291 1634 1406 
Q 1016 1563 777 1677 
Q 538 1791 414 1992 
Q 291 2194 291 2438 
Q 291 2659 392 2848 
Q 494 3038 669 3163 
Q 800 3259 1026 3326 
Q 1253 3394 1513 3394 
Q 1903 3394 2198 3281 
Q 2494 3169 2634 2976 
Q 2775 2784 2828 2463 
L 2278 2388 
Q 2241 2644 2061 2787 
Q 1881 2931 1553 2931 
Q 1166 2931 1000 2803 
Q 834 2675 834 2503 
Q 834 2394 903 2306 
Q 972 2216 1119 2156 
Q 1203 2125 1616 2013 
Q 2213 1853 2448 1751 
Q 2684 1650 2818 1456 
Q 2953 1263 2953 975 
Q 2953 694 2789 445 
Q 2625 197 2315 61 
Q 2006 -75 1616 -75 
Q 969 -75 630 194 
Q 291 463 197 991 
z
" transform="scale(0.015625)"/>
      </defs>
      <use xlink:href="#ArialMT-43"/>
      <use xlink:href="#ArialMT-41" transform="translate(72.216797 0)"/>
      <use xlink:href="#ArialMT-55" transform="translate(138.916016 0)"/>
      <use xlink:href="#ArialMT-43" transform="translate(211.132812 0)"/>
      <use xlink:href="#ArialMT-20" transform="translate(283.349609 0)"/>
      <use xlink:href="#ArialMT-49" transform="translate(311.132812 0)"/>
      <use xlink:href="#ArialMT-6e" transform="translate(338.916016 0)"/>
      <use xlink:href="#ArialMT-66" transform="translate(394.53125 0)"/>
      <use xlink:href="#ArialMT-65" transform="translate(422.314453 0)"/>
      <use xlink:href="#ArialMT-63" transform="translate(477.929688 0)"/>
      <use xlink:href="#ArialMT-74" transform="translate(527.929688 0)"/>
      <use xlink:href="#ArialMT-65" transform="translate(555.712891 0)"/>
      <use xlink:href="#ArialMT-64" transform="translate(611.328125 0)"/>
      <use xlink:href="#ArialMT-20" transform="translate(666.943359 0)"/>
      <use xlink:href="#ArialMT-43" transform="translate(694.726562 0)"/>
      <use xlink:href="#ArialMT-65" transform="translate(766.943359 0)"/>
      <use xlink:href="#ArialMT-6c" transform="translate(822.558594 0)"/>
      <use xlink:href="#ArialMT-6c" transform="translate(844.775391 0)"/>
      <use xlink:href="#ArialMT-73" transform="translate(866.992188 0)"/>
     </g>
    </g>
   </g>
   <g id="FillBetweenPolyCollection_1">
    <defs>
     <path id="m3c6be6890b" d="M 81.141544 -76.044783 
L 81.141544 -76.044783 
L 81.141885 -76.044783 
L 81.14529 -76.044783 
L 81.17934 -76.044783 
L 81.451797 -76.044785 
L 81.632743 -76.044787 
L 82.26665 -76.044792 
L 82.622753 -76.044796 
L 83.851882 -76.044809 
L 84.451342 -76.044816 
L 86.173026 -76.044845 
L 86.926609 -76.044862 
L 88.582666 -76.044914 
L 89.459372 -76.04495 
L 91.12701 -76.045051 
L 92.101632 -76.045129 
L 93.770879 -76.045326 
L 94.821544 -76.045493 
L 96.485798 -76.045888 
L 97.593821 -76.046243 
L 99.248754 -76.047039 
L 100.398238 -76.047789 
L 102.224831 -76.049605 
L 103.353548 -76.051185 
L 104.927064 -76.05451 
L 106.106025 -76.057725 
L 107.830183 -76.065064 
L 109.007901 -76.071909 
L 110.618154 -76.086253 
L 111.828791 -76.100273 
L 113.569417 -76.132353 
L 114.771262 -76.162065 
L 116.392795 -76.224506 
L 117.625834 -76.285124 
L 119.374829 -76.425267 
L 120.604834 -76.55428 
L 122.279122 -76.832608 
L 123.545219 -77.109932 
L 125.367386 -77.730111 
L 126.651275 -78.330145 
L 128.636064 -77.811244 
L 129.92187 -77.555933 
L 131.713902 -77.924767 
L 133.059528 -78.5333 
L 135.043417 -80.244529 
L 136.447464 -82.027379 
L 138.655082 -85.387613 
L 140.069583 -87.734217 
L 142.165526 -91.163985 
L 143.660356 -93.405237 
L 145.625733 -96.027358 
L 147.242344 -97.730305 
L 149.352571 -99.452404 
L 151.005233 -100.411362 
L 153.086955 -101.053739 
L 155.168678 -101.27269 
L 157.376296 -101.024629 
L 159.583913 -100.388512 
L 161.791531 -99.411529 
L 163.999149 -98.157823 
L 166.206766 -96.522992 
L 168.414384 -94.684768 
L 170.622002 -93.179242 
L 172.829619 -92.210032 
L 175.037237 -91.376549 
L 177.244855 -90.468577 
L 179.452472 -89.494228 
L 181.66009 -88.467014 
L 183.867708 -87.367889 
L 186.075325 -86.23613 
L 188.282943 -85.083584 
L 190.49056 -83.914295 
L 192.698178 -82.731535 
L 194.905796 -81.537945 
L 197.113413 -80.335658 
L 199.321031 -79.126392 
L 201.528649 -77.911534 
L 203.736266 -76.715789 
L 205.943884 -76.044783 
L 208.151502 -76.044783 
L 210.359119 -76.044783 
L 212.566737 -76.044783 
L 214.774355 -76.044783 
L 216.981972 -76.044783 
L 219.18959 -76.044783 
L 221.397208 -76.044783 
L 223.604825 -76.044783 
L 225.812443 -76.044783 
L 228.02006 -76.044783 
L 230.227678 -76.044783 
L 232.435296 -76.044783 
L 234.642913 -76.044783 
L 236.850531 -76.044783 
L 239.058149 -76.044783 
L 241.265766 -76.044783 
L 243.473384 -76.044783 
L 245.681002 -76.044783 
L 247.888619 -76.044783 
L 250.096237 -76.044783 
L 252.303855 -76.044783 
L 254.511472 -76.044783 
L 256.71909 -76.044783 
L 257.750956 -76.044783 
L 257.750956 -76.044783 
L 257.750956 -76.044783 
L 256.71909 -76.044783 
L 254.511472 -76.044783 
L 252.303855 -76.044783 
L 250.096237 -76.044783 
L 247.888619 -76.044783 
L 245.681002 -76.044783 
L 243.473384 -76.044783 
L 241.265766 -76.044783 
L 239.058149 -76.044783 
L 236.850531 -76.044783 
L 234.642913 -76.044783 
L 232.435296 -76.044783 
L 230.227678 -76.044783 
L 228.02006 -76.044783 
L 225.812443 -76.044783 
L 223.604825 -76.044783 
L 221.397208 -76.044783 
L 219.18959 -76.044783 
L 216.981972 -76.056836 
L 214.774355 -76.864935 
L 212.566737 -78.09052 
L 210.359119 -79.313567 
L 208.151502 -80.533512 
L 205.943884 -81.74967 
L 203.736266 -82.961215 
L 201.528649 -84.167141 
L 199.321031 -85.366234 
L 197.113413 -86.557019 
L 194.905796 -87.737711 
L 192.698178 -88.906147 
L 190.49056 -90.059711 
L 188.282943 -91.195235 
L 186.075325 -92.30889 
L 183.867708 -93.396051 
L 181.66009 -94.451137 
L 179.452472 -95.467423 
L 177.244855 -96.436822 
L 175.037237 -97.349627 
L 172.829619 -98.194228 
L 170.622002 -98.956783 
L 168.414384 -100.383003 
L 166.206766 -102.130246 
L 163.999149 -103.749919 
L 161.791531 -105.191978 
L 159.583913 -106.421181 
L 157.376296 -107.396158 
L 155.168678 -108.091663 
L 153.086955 -108.390327 
L 151.005233 -108.364763 
L 149.352571 -107.988554 
L 147.242344 -107.13103 
L 145.625733 -106.10063 
L 143.660356 -104.330595 
L 142.165526 -102.681517 
L 140.069583 -99.739001 
L 138.655082 -97.492249 
L 136.447464 -93.466099 
L 135.043417 -90.796759 
L 133.059528 -87.156637 
L 131.713902 -84.886772 
L 129.92187 -82.591907 
L 128.636064 -81.353687 
L 126.651275 -80.549785 
L 125.367386 -80.115485 
L 123.545219 -78.655014 
L 122.279122 -77.890135 
L 120.604834 -77.241125 
L 119.374829 -76.890928 
L 117.625834 -76.577725 
L 116.392795 -76.418352 
L 114.771262 -76.286123 
L 113.569417 -76.215718 
L 111.828791 -76.151619 
L 110.618154 -76.119978 
L 109.007901 -76.093247 
L 107.830183 -76.079337 
L 106.106025 -76.066369 
L 104.927064 -76.060135 
L 103.353548 -76.054743 
L 102.224831 -76.051994 
L 100.398238 -76.049146 
L 99.248754 -76.047909 
L 97.593821 -76.046757 
L 96.485798 -76.046218 
L 94.821544 -76.045683 
L 93.770879 -76.045446 
L 92.101632 -76.045195 
L 91.12701 -76.045091 
L 89.459372 -76.044971 
L 88.582666 -76.044927 
L 86.926609 -76.044868 
L 86.173026 -76.044849 
L 84.451342 -76.044817 
L 83.851882 -76.044809 
L 82.622753 -76.044796 
L 82.26665 -76.044792 
L 81.632743 -76.044787 
L 81.451797 -76.044785 
L 81.17934 -76.044783 
L 81.14529 -76.044783 
L 81.141885 -76.044783 
L 81.141544 -76.044783 
z
" style="stroke: #e200ff; stroke-opacity: 0.2"/>
    </defs>
    <g clip-path="url(#p205062ad46)">
     <use xlink:href="#m3c6be6890b" x="0" y="360" style="fill: #e200ff; fill-opacity: 0.2; stroke: #e200ff; stroke-opacity: 0.2"/>
    </g>
   </g>
   <g id="patch_7">
    <path d="M 75.6225 288.9 
L 75.6225 61.44 
" style="fill: none; stroke: #000000; stroke-width: 3; stroke-linejoin: miter; stroke-linecap: square"/>
   </g>
   <g id="patch_8">
    <path d="M 263.27 288.9 
L 263.27 61.44 
" style="fill: none; stroke: #000000; stroke-width: 3; stroke-linejoin: miter; stroke-linecap: square"/>
   </g>
   <g id="patch_9">
    <path d="M 75.6225 288.9 
L 263.27 288.9 
" style="fill: none; stroke: #000000; stroke-width: 3; stroke-linejoin: miter; stroke-linecap: square"/>
   </g>
   <g id="patch_10">
    <path d="M 75.6225 61.44 
L 263.27 61.44 
" style="fill: none; stroke: #000000; stroke-width: 3; stroke-linejoin: miter; stroke-linecap: square"/>
   </g>
   <g id="line2d_8">
    <path d="M 81.141544 283.955217 
L 81.141885 283.955217 
L 81.14529 283.955217 
L 81.17934 283.955217 
L 81.451797 283.955215 
L 81.632743 283.955213 
L 82.26665 283.955208 
L 82.622753 283.955204 
L 83.851882 283.955191 
L 84.451342 283.955183 
L 86.173026 283.955153 
L 86.926609 283.955135 
L 88.582666 283.955079 
L 89.459372 283.955039 
L 91.12701 283.954928 
L 92.101632 283.954837 
L 93.770879 283.954612 
L 94.821544 283.954411 
L 96.485798 283.953944 
L 97.593821 283.953499 
L 99.248754 283.952523 
L 100.398238 283.951547 
L 102.224831 283.949188 
L 103.353548 283.947058 
L 104.927064 283.942743 
L 106.106025 283.938109 
L 107.830183 283.927952 
L 109.007901 283.917851 
L 110.618154 283.897558 
L 111.828791 283.875512 
L 113.569417 283.827791 
L 114.771262 283.779654 
L 116.392795 283.684112 
L 117.625834 283.579107 
L 119.374829 283.355814 
L 120.604834 283.127447 
L 122.279122 282.672489 
L 123.545219 282.180396 
L 125.367386 281.14313 
L 126.651275 281.550308 
L 128.636064 281.515212 
L 129.92187 280.991459 
L 131.713902 279.530468 
L 133.059528 277.891997 
L 135.043417 274.821077 
L 136.447464 272.336179 
L 138.655082 268.350134 
L 140.069583 265.909165 
L 142.165526 262.694488 
L 143.660356 260.754914 
L 145.625733 258.690936 
L 147.242344 257.401889 
L 149.352571 256.238192 
L 151.005233 255.705544 
L 153.086955 255.452592 
L 155.168678 255.610765 
L 157.376296 256.162869 
L 159.583913 257.050339 
L 161.791531 258.21851 
L 163.999149 259.620244 
L 166.206766 261.215429 
L 168.414384 262.970263 
L 170.622002 264.206807 
L 172.829619 264.974487 
L 175.037237 265.827369 
L 177.244855 266.750435 
L 179.452472 267.731173 
L 181.66009 268.759207 
L 183.867708 269.825966 
L 186.075325 270.92439 
L 188.282943 272.048676 
L 190.49056 273.194066 
L 192.698178 274.356663 
L 194.905796 275.533278 
L 197.113413 276.721306 
L 199.321031 277.91862 
L 201.528649 279.123482 
L 203.736266 280.334476 
L 205.943884 281.550445 
L 208.151502 282.770447 
L 210.359119 283.955217 
L 212.566737 283.955217 
L 214.774355 283.955217 
L 216.981972 283.955217 
L 219.18959 283.955217 
L 221.397208 283.955217 
L 223.604825 283.955217 
L 225.812443 283.955217 
L 228.02006 283.955217 
L 230.227678 283.955217 
L 232.435296 283.955217 
L 234.642913 283.955217 
L 236.850531 283.955217 
L 239.058149 283.955217 
L 241.265766 283.955217 
L 243.473384 283.955217 
L 245.681002 283.955217 
L 247.888619 283.955217 
L 250.096237 283.955217 
L 252.303855 283.955217 
L 254.511472 283.955217 
L 256.71909 283.955217 
L 257.750956 283.955217 
" clip-path="url(#p205062ad46)" style="fill: none; stroke: #e200ff; stroke-width: 1.5; stroke-linecap: round"/>
   </g>
   <g id="text_17">
    <g id="patch_11">
     <path d="M 177.625125 95.103625 
L 257.887625 95.103625 
L 257.887625 68.813 
L 177.625125 68.813 
z
" style="fill: #ffffff; opacity: 0.5; stroke: #ffffff; stroke-linejoin: miter"/>
    </g>
    <!-- Scale: 1 -->
    <g style="fill: #262626" transform="translate(181.625125 87.128625) scale(0.2 -0.2)">
     <defs>
      <path id="ArialMT-3a" d="M 578 2678 
L 578 3319 
L 1219 3319 
L 1219 2678 
L 578 2678 
z
M 578 0 
L 578 641 
L 1219 641 
L 1219 0 
L 578 0 
z
" transform="scale(0.015625)"/>
     </defs>
     <use xlink:href="#ArialMT-53"/>
     <use xlink:href="#ArialMT-63" transform="translate(66.699219 0)"/>
     <use xlink:href="#ArialMT-61" transform="translate(116.699219 0)"/>
     <use xlink:href="#ArialMT-6c" transform="translate(172.314453 0)"/>
     <use xlink:href="#ArialMT-65" transform="translate(194.53125 0)"/>
     <use xlink:href="#ArialMT-3a" transform="translate(250.146484 0)"/>
     <use xlink:href="#ArialMT-20" transform="translate(277.929688 0)"/>
     <use xlink:href="#ArialMT-31" transform="translate(305.712891 0)"/>
    </g>
   </g>
  </g>
 </g>
 <defs>
  <clipPath id="p205062ad46">
   <rect x="75.6225" y="61.44" width="187.6475" height="227.46"/>
  </clipPath>
 </defs>
</svg>
