<?xml version="1.0" encoding="utf-8" standalone="no"?>
<!DOCTYPE svg PUBLIC "-//W3C//DTD SVG 1.1//EN"
  "http://www.w3.org/Graphics/SVG/1.1/DTD/svg11.dtd">
<svg xmlns:xlink="http://www.w3.org/1999/xlink" width="1440pt" height="360pt" viewBox="0 0 1440 360" xmlns="http://www.w3.org/2000/svg" version="1.1">
 <metadata>
  <rdf:RDF xmlns:dc="http://purl.org/dc/elements/1.1/" xmlns:cc="http://creativecommons.org/ns#" xmlns:rdf="http://www.w3.org/1999/02/22-rdf-syntax-ns#">
   <cc:Work>
    <dc:type rdf:resource="http://purl.org/dc/dcmitype/StillImage"/>
    <dc:date>2025-02-05T15:28:44.097616</dc:date>
    <dc:format>image/svg+xml</dc:format>
    <dc:creator>
     <cc:Agent>
      <dc:title>Matplotlib v3.10.0, https://matplotlib.org/</dc:title>
     </cc:Agent>
    </dc:creator>
   </cc:Work>
  </rdf:RDF>
 </metadata>
 <defs>
  <style type="text/css">*{stroke-linejoin: round; stroke-linecap: butt}</style>
 </defs>
 <g id="figure_1">
  <g id="patch_1">
   <path d="M 0 360 
L 1440 360 
L 1440 0 
L 0 0 
L 0 360 
z
" style="fill: none"/>
  </g>
  <g id="axes_1">
   <g id="patch_2">
    <path d="M 180 320.4 
L 407.755102 320.4 
L 407.755102 43.2 
L 180 43.2 
L 180 320.4 
z
" style="fill: none"/>
   </g>
   <g id="matplotlib.axis_1">
    <g id="xtick_1">
     <g id="text_1">
      <!-- 0 -->
      <g style="fill: #262626" transform="translate(178.023617 352.232375) scale(0.312 -0.312)">
       <defs>
        <path id="ArialMT-30" d="M 266 2259 
Q 266 3072 433 3567 
Q 600 4063 929 4331 
Q 1259 4600 1759 4600 
Q 2128 4600 2406 4451 
Q 2684 4303 2865 4023 
Q 3047 3744 3150 3342 
Q 3253 2941 3253 2259 
Q 3253 1453 3087 958 
Q 2922 463 2592 192 
Q 2263 -78 1759 -78 
Q 1097 -78 719 397 
Q 266 969 266 2259 
z
M 844 2259 
Q 844 1131 1108 757 
Q 1372 384 1759 384 
Q 2147 384 2411 759 
Q 2675 1134 2675 2259 
Q 2675 3391 2411 3762 
Q 2147 4134 1753 4134 
Q 1366 4134 1134 3806 
Q 844 3388 844 2259 
z
" transform="scale(0.015625)"/>
       </defs>
       <use xlink:href="#ArialMT-30"/>
      </g>
     </g>
    </g>
    <g id="xtick_2">
     <g id="text_2">
      <!-- 2 -->
      <g style="fill: #262626" transform="translate(231.613053 352.232375) scale(0.312 -0.312)">
       <defs>
        <path id="ArialMT-32" d="M 3222 541 
L 3222 0 
L 194 0 
Q 188 203 259 391 
Q 375 700 629 1000 
Q 884 1300 1366 1694 
Q 2113 2306 2375 2664 
Q 2638 3022 2638 3341 
Q 2638 3675 2398 3904 
Q 2159 4134 1775 4134 
Q 1369 4134 1125 3890 
Q 881 3647 878 3216 
L 300 3275 
Q 359 3922 746 4261 
Q 1134 4600 1788 4600 
Q 2447 4600 2831 4234 
Q 3216 3869 3216 3328 
Q 3216 3053 3103 2787 
Q 2991 2522 2730 2228 
Q 2469 1934 1863 1422 
Q 1356 997 1212 845 
Q 1069 694 975 541 
L 3222 541 
z
" transform="scale(0.015625)"/>
       </defs>
       <use xlink:href="#ArialMT-32"/>
      </g>
     </g>
    </g>
    <g id="xtick_3">
     <g id="text_3">
      <!-- 4 -->
      <g style="fill: #262626" transform="translate(285.202489 352.232375) scale(0.312 -0.312)">
       <defs>
        <path id="ArialMT-34" d="M 2069 0 
L 2069 1097 
L 81 1097 
L 81 1613 
L 2172 4581 
L 2631 4581 
L 2631 1613 
L 3250 1613 
L 3250 1097 
L 2631 1097 
L 2631 0 
L 2069 0 
z
M 2069 1613 
L 2069 3678 
L 634 1613 
L 2069 1613 
z
" transform="scale(0.015625)"/>
       </defs>
       <use xlink:href="#ArialMT-34"/>
      </g>
     </g>
    </g>
    <g id="xtick_4">
     <g id="text_4">
      <!-- 6 -->
      <g style="fill: #262626" transform="translate(338.791924 352.232375) scale(0.312 -0.312)">
       <defs>
        <path id="ArialMT-36" d="M 3184 3459 
L 2625 3416 
Q 2550 3747 2413 3897 
Q 2184 4138 1850 4138 
Q 1581 4138 1378 3988 
Q 1113 3794 959 3422 
Q 806 3050 800 2363 
Q 1003 2672 1297 2822 
Q 1591 2972 1913 2972 
Q 2475 2972 2870 2558 
Q 3266 2144 3266 1488 
Q 3266 1056 3080 686 
Q 2894 316 2569 119 
Q 2244 -78 1831 -78 
Q 1128 -78 684 439 
Q 241 956 241 2144 
Q 241 3472 731 4075 
Q 1159 4600 1884 4600 
Q 2425 4600 2770 4297 
Q 3116 3994 3184 3459 
z
M 888 1484 
Q 888 1194 1011 928 
Q 1134 663 1356 523 
Q 1578 384 1822 384 
Q 2178 384 2434 671 
Q 2691 959 2691 1453 
Q 2691 1928 2437 2201 
Q 2184 2475 1800 2475 
Q 1419 2475 1153 2201 
Q 888 1928 888 1484 
z
" transform="scale(0.015625)"/>
       </defs>
       <use xlink:href="#ArialMT-36"/>
      </g>
     </g>
    </g>
    <g id="xtick_5">
     <g id="text_5">
      <!-- 8 -->
      <g style="fill: #262626" transform="translate(392.38136 352.232375) scale(0.312 -0.312)">
       <defs>
        <path id="ArialMT-38" d="M 1131 2484 
Q 781 2613 612 2850 
Q 444 3088 444 3419 
Q 444 3919 803 4259 
Q 1163 4600 1759 4600 
Q 2359 4600 2725 4251 
Q 3091 3903 3091 3403 
Q 3091 3084 2923 2848 
Q 2756 2613 2416 2484 
Q 2838 2347 3058 2040 
Q 3278 1734 3278 1309 
Q 3278 722 2862 322 
Q 2447 -78 1769 -78 
Q 1091 -78 675 323 
Q 259 725 259 1325 
Q 259 1772 486 2073 
Q 713 2375 1131 2484 
z
M 1019 3438 
Q 1019 3113 1228 2906 
Q 1438 2700 1772 2700 
Q 2097 2700 2305 2904 
Q 2513 3109 2513 3406 
Q 2513 3716 2298 3927 
Q 2084 4138 1766 4138 
Q 1444 4138 1231 3931 
Q 1019 3725 1019 3438 
z
M 838 1322 
Q 838 1081 952 856 
Q 1066 631 1291 507 
Q 1516 384 1775 384 
Q 2178 384 2440 643 
Q 2703 903 2703 1303 
Q 2703 1709 2433 1975 
Q 2163 2241 1756 2241 
Q 1359 2241 1098 1978 
Q 838 1716 838 1322 
z
" transform="scale(0.015625)"/>
       </defs>
       <use xlink:href="#ArialMT-38"/>
      </g>
     </g>
    </g>
    <g id="text_6">
     <!-- Time (d) -->
     <g style="fill: #262626" transform="translate(241.190989 383.253281) scale(0.286 -0.286)">
      <defs>
       <path id="ArialMT-54" d="M 1659 0 
L 1659 4041 
L 150 4041 
L 150 4581 
L 3781 4581 
L 3781 4041 
L 2266 4041 
L 2266 0 
L 1659 0 
z
" transform="scale(0.015625)"/>
       <path id="ArialMT-69" d="M 425 3934 
L 425 4581 
L 988 4581 
L 988 3934 
L 425 3934 
z
M 425 0 
L 425 3319 
L 988 3319 
L 988 0 
L 425 0 
z
" transform="scale(0.015625)"/>
       <path id="ArialMT-6d" d="M 422 0 
L 422 3319 
L 925 3319 
L 925 2853 
Q 1081 3097 1340 3245 
Q 1600 3394 1931 3394 
Q 2300 3394 2536 3241 
Q 2772 3088 2869 2813 
Q 3263 3394 3894 3394 
Q 4388 3394 4653 3120 
Q 4919 2847 4919 2278 
L 4919 0 
L 4359 0 
L 4359 2091 
Q 4359 2428 4304 2576 
Q 4250 2725 4106 2815 
Q 3963 2906 3769 2906 
Q 3419 2906 3187 2673 
Q 2956 2441 2956 1928 
L 2956 0 
L 2394 0 
L 2394 2156 
Q 2394 2531 2256 2718 
Q 2119 2906 1806 2906 
Q 1569 2906 1367 2781 
Q 1166 2656 1075 2415 
Q 984 2175 984 1722 
L 984 0 
L 422 0 
z
" transform="scale(0.015625)"/>
       <path id="ArialMT-65" d="M 2694 1069 
L 3275 997 
Q 3138 488 2766 206 
Q 2394 -75 1816 -75 
Q 1088 -75 661 373 
Q 234 822 234 1631 
Q 234 2469 665 2931 
Q 1097 3394 1784 3394 
Q 2450 3394 2872 2941 
Q 3294 2488 3294 1666 
Q 3294 1616 3291 1516 
L 816 1516 
Q 847 969 1125 678 
Q 1403 388 1819 388 
Q 2128 388 2347 550 
Q 2566 713 2694 1069 
z
M 847 1978 
L 2700 1978 
Q 2663 2397 2488 2606 
Q 2219 2931 1791 2931 
Q 1403 2931 1139 2672 
Q 875 2413 847 1978 
z
" transform="scale(0.015625)"/>
       <path id="ArialMT-20" transform="scale(0.015625)"/>
       <path id="ArialMT-28" d="M 1497 -1347 
Q 1031 -759 709 28 
Q 388 816 388 1659 
Q 388 2403 628 3084 
Q 909 3875 1497 4659 
L 1900 4659 
Q 1522 4009 1400 3731 
Q 1209 3300 1100 2831 
Q 966 2247 966 1656 
Q 966 153 1900 -1347 
L 1497 -1347 
z
" transform="scale(0.015625)"/>
       <path id="ArialMT-64" d="M 2575 0 
L 2575 419 
Q 2259 -75 1647 -75 
Q 1250 -75 917 144 
Q 584 363 401 755 
Q 219 1147 219 1656 
Q 219 2153 384 2558 
Q 550 2963 881 3178 
Q 1213 3394 1622 3394 
Q 1922 3394 2156 3267 
Q 2391 3141 2538 2938 
L 2538 4581 
L 3097 4581 
L 3097 0 
L 2575 0 
z
M 797 1656 
Q 797 1019 1065 703 
Q 1334 388 1700 388 
Q 2069 388 2326 689 
Q 2584 991 2584 1609 
Q 2584 2291 2321 2609 
Q 2059 2928 1675 2928 
Q 1300 2928 1048 2622 
Q 797 2316 797 1656 
z
" transform="scale(0.015625)"/>
       <path id="ArialMT-29" d="M 791 -1347 
L 388 -1347 
Q 1322 153 1322 1656 
Q 1322 2244 1188 2822 
Q 1081 3291 891 3722 
Q 769 4003 388 4659 
L 791 4659 
Q 1378 3875 1659 3084 
Q 1900 2403 1900 1659 
Q 1900 816 1576 28 
Q 1253 -759 791 -1347 
z
" transform="scale(0.015625)"/>
      </defs>
      <use xlink:href="#ArialMT-54"/>
      <use xlink:href="#ArialMT-69" transform="translate(57.333984 0)"/>
      <use xlink:href="#ArialMT-6d" transform="translate(79.550781 0)"/>
      <use xlink:href="#ArialMT-65" transform="translate(162.851562 0)"/>
      <use xlink:href="#ArialMT-20" transform="translate(218.466797 0)"/>
      <use xlink:href="#ArialMT-28" transform="translate(246.25 0)"/>
      <use xlink:href="#ArialMT-64" transform="translate(279.550781 0)"/>
      <use xlink:href="#ArialMT-29" transform="translate(335.166016 0)"/>
     </g>
    </g>
   </g>
   <g id="matplotlib.axis_2">
    <g id="ytick_1">
     <g id="text_7">
      <!-- 0 -->
      <g style="fill: #262626" transform="translate(153.149875 331.566188) scale(0.312 -0.312)">
       <use xlink:href="#ArialMT-30"/>
      </g>
     </g>
    </g>
    <g id="ytick_2">
     <g id="text_8">
      <!-- 2 -->
      <g style="fill: #262626" transform="translate(153.149875 262.266188) scale(0.312 -0.312)">
       <use xlink:href="#ArialMT-32"/>
      </g>
     </g>
    </g>
    <g id="ytick_3">
     <g id="text_9">
      <!-- 4 -->
      <g style="fill: #262626" transform="translate(153.149875 192.966187) scale(0.312 -0.312)">
       <use xlink:href="#ArialMT-34"/>
      </g>
     </g>
    </g>
    <g id="ytick_4">
     <g id="text_10">
      <!-- 6 -->
      <g style="fill: #262626" transform="translate(153.149875 123.666187) scale(0.312 -0.312)">
       <use xlink:href="#ArialMT-36"/>
      </g>
     </g>
    </g>
    <g id="ytick_5">
     <g id="text_11">
      <!-- 8 -->
      <g style="fill: #262626" transform="translate(153.149875 54.366187) scale(0.312 -0.312)">
       <use xlink:href="#ArialMT-38"/>
      </g>
     </g>
    </g>
    <g id="text_12">
     <!-- Log$_{10}$ Virus (copies/mL) -->
     <g style="fill: #262626" transform="translate(142.857875 334.238) rotate(-90) scale(0.286 -0.286)">
      <defs>
       <path id="ArialMT-4c" d="M 469 0 
L 469 4581 
L 1075 4581 
L 1075 541 
L 3331 541 
L 3331 0 
L 469 0 
z
" transform="scale(0.015625)"/>
       <path id="ArialMT-6f" d="M 213 1659 
Q 213 2581 725 3025 
Q 1153 3394 1769 3394 
Q 2453 3394 2887 2945 
Q 3322 2497 3322 1706 
Q 3322 1066 3130 698 
Q 2938 331 2570 128 
Q 2203 -75 1769 -75 
Q 1072 -75 642 372 
Q 213 819 213 1659 
z
M 791 1659 
Q 791 1022 1069 705 
Q 1347 388 1769 388 
Q 2188 388 2466 706 
Q 2744 1025 2744 1678 
Q 2744 2294 2464 2611 
Q 2184 2928 1769 2928 
Q 1347 2928 1069 2612 
Q 791 2297 791 1659 
z
" transform="scale(0.015625)"/>
       <path id="ArialMT-67" d="M 319 -275 
L 866 -356 
Q 900 -609 1056 -725 
Q 1266 -881 1628 -881 
Q 2019 -881 2231 -725 
Q 2444 -569 2519 -288 
Q 2563 -116 2559 434 
Q 2191 0 1641 0 
Q 956 0 581 494 
Q 206 988 206 1678 
Q 206 2153 378 2554 
Q 550 2956 876 3175 
Q 1203 3394 1644 3394 
Q 2231 3394 2613 2919 
L 2613 3319 
L 3131 3319 
L 3131 450 
Q 3131 -325 2973 -648 
Q 2816 -972 2473 -1159 
Q 2131 -1347 1631 -1347 
Q 1038 -1347 672 -1080 
Q 306 -813 319 -275 
z
M 784 1719 
Q 784 1066 1043 766 
Q 1303 466 1694 466 
Q 2081 466 2343 764 
Q 2606 1063 2606 1700 
Q 2606 2309 2336 2618 
Q 2066 2928 1684 2928 
Q 1309 2928 1046 2623 
Q 784 2319 784 1719 
z
" transform="scale(0.015625)"/>
       <path id="DejaVuSans-31" d="M 794 531 
L 1825 531 
L 1825 4091 
L 703 3866 
L 703 4441 
L 1819 4666 
L 2450 4666 
L 2450 531 
L 3481 531 
L 3481 0 
L 794 0 
L 794 531 
z
" transform="scale(0.015625)"/>
       <path id="DejaVuSans-30" d="M 2034 4250 
Q 1547 4250 1301 3770 
Q 1056 3291 1056 2328 
Q 1056 1369 1301 889 
Q 1547 409 2034 409 
Q 2525 409 2770 889 
Q 3016 1369 3016 2328 
Q 3016 3291 2770 3770 
Q 2525 4250 2034 4250 
z
M 2034 4750 
Q 2819 4750 3233 4129 
Q 3647 3509 3647 2328 
Q 3647 1150 3233 529 
Q 2819 -91 2034 -91 
Q 1250 -91 836 529 
Q 422 1150 422 2328 
Q 422 3509 836 4129 
Q 1250 4750 2034 4750 
z
" transform="scale(0.015625)"/>
       <path id="ArialMT-56" d="M 1803 0 
L 28 4581 
L 684 4581 
L 1875 1253 
Q 2019 853 2116 503 
Q 2222 878 2363 1253 
L 3600 4581 
L 4219 4581 
L 2425 0 
L 1803 0 
z
" transform="scale(0.015625)"/>
       <path id="ArialMT-72" d="M 416 0 
L 416 3319 
L 922 3319 
L 922 2816 
Q 1116 3169 1280 3281 
Q 1444 3394 1641 3394 
Q 1925 3394 2219 3213 
L 2025 2691 
Q 1819 2813 1613 2813 
Q 1428 2813 1281 2702 
Q 1134 2591 1072 2394 
Q 978 2094 978 1738 
L 978 0 
L 416 0 
z
" transform="scale(0.015625)"/>
       <path id="ArialMT-75" d="M 2597 0 
L 2597 488 
Q 2209 -75 1544 -75 
Q 1250 -75 995 37 
Q 741 150 617 320 
Q 494 491 444 738 
Q 409 903 409 1263 
L 409 3319 
L 972 3319 
L 972 1478 
Q 972 1038 1006 884 
Q 1059 663 1231 536 
Q 1403 409 1656 409 
Q 1909 409 2131 539 
Q 2353 669 2445 892 
Q 2538 1116 2538 1541 
L 2538 3319 
L 3100 3319 
L 3100 0 
L 2597 0 
z
" transform="scale(0.015625)"/>
       <path id="ArialMT-73" d="M 197 991 
L 753 1078 
Q 800 744 1014 566 
Q 1228 388 1613 388 
Q 2000 388 2187 545 
Q 2375 703 2375 916 
Q 2375 1106 2209 1216 
Q 2094 1291 1634 1406 
Q 1016 1563 777 1677 
Q 538 1791 414 1992 
Q 291 2194 291 2438 
Q 291 2659 392 2848 
Q 494 3038 669 3163 
Q 800 3259 1026 3326 
Q 1253 3394 1513 3394 
Q 1903 3394 2198 3281 
Q 2494 3169 2634 2976 
Q 2775 2784 2828 2463 
L 2278 2388 
Q 2241 2644 2061 2787 
Q 1881 2931 1553 2931 
Q 1166 2931 1000 2803 
Q 834 2675 834 2503 
Q 834 2394 903 2306 
Q 972 2216 1119 2156 
Q 1203 2125 1616 2013 
Q 2213 1853 2448 1751 
Q 2684 1650 2818 1456 
Q 2953 1263 2953 975 
Q 2953 694 2789 445 
Q 2625 197 2315 61 
Q 2006 -75 1616 -75 
Q 969 -75 630 194 
Q 291 463 197 991 
z
" transform="scale(0.015625)"/>
       <path id="ArialMT-63" d="M 2588 1216 
L 3141 1144 
Q 3050 572 2676 248 
Q 2303 -75 1759 -75 
Q 1078 -75 664 370 
Q 250 816 250 1647 
Q 250 2184 428 2587 
Q 606 2991 970 3192 
Q 1334 3394 1763 3394 
Q 2303 3394 2647 3120 
Q 2991 2847 3088 2344 
L 2541 2259 
Q 2463 2594 2264 2762 
Q 2066 2931 1784 2931 
Q 1359 2931 1093 2626 
Q 828 2322 828 1663 
Q 828 994 1084 691 
Q 1341 388 1753 388 
Q 2084 388 2306 591 
Q 2528 794 2588 1216 
z
" transform="scale(0.015625)"/>
       <path id="ArialMT-70" d="M 422 -1272 
L 422 3319 
L 934 3319 
L 934 2888 
Q 1116 3141 1344 3267 
Q 1572 3394 1897 3394 
Q 2322 3394 2647 3175 
Q 2972 2956 3137 2557 
Q 3303 2159 3303 1684 
Q 3303 1175 3120 767 
Q 2938 359 2589 142 
Q 2241 -75 1856 -75 
Q 1575 -75 1351 44 
Q 1128 163 984 344 
L 984 -1272 
L 422 -1272 
z
M 931 1641 
Q 931 1000 1190 694 
Q 1450 388 1819 388 
Q 2194 388 2461 705 
Q 2728 1022 2728 1688 
Q 2728 2322 2467 2637 
Q 2206 2953 1844 2953 
Q 1484 2953 1207 2617 
Q 931 2281 931 1641 
z
" transform="scale(0.015625)"/>
       <path id="ArialMT-2f" d="M 0 -78 
L 1328 4659 
L 1778 4659 
L 453 -78 
L 0 -78 
z
" transform="scale(0.015625)"/>
      </defs>
      <use xlink:href="#ArialMT-4c" transform="translate(0 0.203125)"/>
      <use xlink:href="#ArialMT-6f" transform="translate(55.615234 0.203125)"/>
      <use xlink:href="#ArialMT-67" transform="translate(111.230469 0.203125)"/>
      <use xlink:href="#DejaVuSans-31" transform="translate(167.802734 -16.203125) scale(0.7)"/>
      <use xlink:href="#DejaVuSans-30" transform="translate(212.338867 -16.203125) scale(0.7)"/>
      <use xlink:href="#ArialMT-20" transform="translate(259.609375 0.203125)"/>
      <use xlink:href="#ArialMT-56" transform="translate(287.392578 0.203125)"/>
      <use xlink:href="#ArialMT-69" transform="translate(354.091797 0.203125)"/>
      <use xlink:href="#ArialMT-72" transform="translate(376.308594 0.203125)"/>
      <use xlink:href="#ArialMT-75" transform="translate(409.609375 0.203125)"/>
      <use xlink:href="#ArialMT-73" transform="translate(465.224609 0.203125)"/>
      <use xlink:href="#ArialMT-20" transform="translate(515.224609 0.203125)"/>
      <use xlink:href="#ArialMT-28" transform="translate(543.007812 0.203125)"/>
      <use xlink:href="#ArialMT-63" transform="translate(576.308594 0.203125)"/>
      <use xlink:href="#ArialMT-6f" transform="translate(626.308594 0.203125)"/>
      <use xlink:href="#ArialMT-70" transform="translate(681.923828 0.203125)"/>
      <use xlink:href="#ArialMT-69" transform="translate(737.539062 0.203125)"/>
      <use xlink:href="#ArialMT-65" transform="translate(759.755859 0.203125)"/>
      <use xlink:href="#ArialMT-73" transform="translate(815.371094 0.203125)"/>
      <use xlink:href="#ArialMT-2f" transform="translate(865.371094 0.203125)"/>
      <use xlink:href="#ArialMT-6d" transform="translate(893.154297 0.203125)"/>
      <use xlink:href="#ArialMT-4c" transform="translate(976.455078 0.203125)"/>
      <use xlink:href="#ArialMT-29" transform="translate(1032.070312 0.203125)"/>
     </g>
    </g>
   </g>
   <g id="patch_3">
    <path d="M 180 320.4 
L 180 43.2 
" style="fill: none; stroke: #262626; stroke-width: 1.25; stroke-linejoin: miter; stroke-linecap: square"/>
   </g>
   <g id="patch_4">
    <path d="M 407.755102 320.4 
L 407.755102 43.2 
" style="fill: none; stroke: #262626; stroke-width: 1.25; stroke-linejoin: miter; stroke-linecap: square"/>
   </g>
   <g id="patch_5">
    <path d="M 180 320.4 
L 407.755102 320.4 
" style="fill: none; stroke: #262626; stroke-width: 1.25; stroke-linejoin: miter; stroke-linecap: square"/>
   </g>
   <g id="patch_6">
    <path d="M 180 43.2 
L 407.755102 43.2 
" style="fill: none; stroke: #262626; stroke-width: 1.25; stroke-linejoin: miter; stroke-linecap: square"/>
   </g>
   <g id="FillBetweenPolyCollection_1">
    <defs>
     <path id="ma4d5468ac3" d="M 186.698679 -39.6 
L 186.698679 -39.6 
L 186.699074 -39.6 
L 186.703014 -39.6 
L 186.74242 -39.6 
L 186.969266 -39.6 
L 187.102087 -39.6 
L 187.627042 -39.6 
L 187.902124 -39.6 
L 188.925786 -54.720019 
L 189.405977 -59.383382 
L 191.077538 -70.031024 
L 191.763433 -73.014995 
L 193.685333 -79.49598 
L 194.580353 -81.970516 
L 196.696827 -87.318784 
L 197.789557 -89.932158 
L 200.015609 -95.18628 
L 201.272547 -98.111521 
L 203.49786 -103.203622 
L 204.867229 -106.318443 
L 207.219177 -111.695202 
L 208.714633 -115.104574 
L 211.394105 -121.229799 
L 212.973906 -124.832468 
L 215.653378 -130.957604 
L 217.28695 -134.6832 
L 219.966422 -140.80709 
L 221.637844 -144.619091 
L 224.317315 -150.740755 
L 226.019212 -154.621865 
L 228.698684 -160.739792 
L 230.426382 -164.678257 
L 233.105854 -170.789667 
L 234.856713 -174.777119 
L 237.536185 -180.876576 
L 239.31065 -184.90924 
L 241.990121 -190.986064 
L 243.795007 -195.069708 
L 246.474479 -201.102941 
L 248.327803 -205.258321 
L 251.007275 -211.206964 
L 252.946392 -215.475067 
L 255.625864 -221.259476 
L 257.716328 -225.688609 
L 260.3958 -231.157162 
L 263.075272 -236.363614 
L 265.754744 -241.202499 
L 268.434215 -245.573659 
L 271.113687 -249.379749 
L 273.793159 -252.542785 
L 276.472631 -255.019989 
L 279.152103 -256.812614 
L 281.476457 -257.845916 
L 283.800811 -257.824642 
L 285.7432 -257.400572 
L 287.824375 -256.793805 
L 289.595004 -256.13968 
L 291.418346 -255.410241 
L 293.031132 -254.688957 
L 294.686153 -253.889997 
L 296.341173 -253.052513 
L 297.813911 -252.27133 
L 299.347315 -251.419069 
L 300.88072 -250.542022 
L 302.414125 -249.638219 
L 303.947529 -248.69897 
L 305.480934 -247.734696 
L 307.014339 -246.740326 
L 308.547743 -245.715913 
L 310.081148 -244.672496 
L 311.614552 -243.586307 
L 313.147957 -242.486358 
L 314.681362 -241.330878 
L 316.214766 -240.154962 
L 317.801261 -238.890994 
L 319.60257 -237.397609 
L 322.282042 -235.063109 
L 324.381644 -233.082008 
L 327.061115 -230.210556 
L 329.740587 -227.132335 
L 332.420059 -223.74837 
L 335.099531 -220.025402 
L 337.779002 -215.793778 
L 340.458474 -210.625256 
L 343.137946 -202.933742 
L 344.477682 -196.551889 
L 345.817418 -189.001167 
L 346.206418 -186.80505 
L 346.733344 -183.830263 
L 347.027344 -182.165516 
L 347.395062 -180.07507 
L 347.696024 -178.364123 
L 348.079608 -176.183482 
L 348.463191 -174.002841 
L 349.162584 -170.02685 
L 350.164036 -164.32004 
L 351.739128 -155.313792 
L 353.028362 -147.94006 
L 354.9177 -137.090895 
L 356.400307 -128.574334 
L 358.469803 -116.67517 
L 360.077727 -107.425869 
L 362.238419 -94.990789 
L 363.927775 -85.26487 
L 366.128461 -72.591673 
L 367.873594 -62.539486 
L 370.089633 -49.772377 
L 371.879043 -41.791174 
L 374.108834 -39.6 
L 376.338626 -39.6 
L 378.58989 -39.6 
L 380.841154 -39.6 
L 383.255013 -39.6 
L 385.846064 -39.6 
L 388.525536 -39.6 
L 391.205007 -39.6 
L 393.884479 -39.6 
L 396.563951 -39.6 
L 399.243423 -39.6 
L 401.056423 -39.6 
L 401.056423 -39.6 
L 401.056423 -39.6 
L 399.243423 -39.6 
L 396.563951 -39.6 
L 393.884479 -39.6 
L 391.205007 -39.6 
L 388.525536 -39.6 
L 385.846064 -39.6 
L 383.255013 -39.6 
L 380.841154 -39.6 
L 378.58989 -39.6 
L 376.338626 -39.754372 
L 374.108834 -45.836754 
L 371.879043 -58.579345 
L 370.089633 -68.813931 
L 367.873594 -81.509538 
L 366.128461 -91.535217 
L 363.927775 -104.170394 
L 362.238419 -113.880768 
L 360.077727 -126.281144 
L 358.469803 -135.504706 
L 356.400307 -147.353757 
L 354.9177 -155.819902 
L 353.028362 -166.590413 
L 351.739128 -173.900992 
L 350.164036 -182.769967 
L 349.162584 -188.396484 
L 348.463191 -192.266268 
L 348.079608 -194.295111 
L 347.696024 -196.225387 
L 347.395062 -197.726718 
L 347.027344 -199.344892 
L 346.733344 -200.624764 
L 346.206418 -202.568315 
L 345.817418 -204.164247 
L 344.477682 -208.120668 
L 343.137946 -212.070828 
L 340.458474 -217.78857 
L 337.779002 -222.336417 
L 335.099531 -226.847205 
L 332.420059 -230.724457 
L 329.740587 -234.056185 
L 327.061115 -236.999553 
L 324.381644 -239.633959 
L 322.282042 -241.531791 
L 319.60257 -243.757717 
L 317.801261 -245.156592 
L 316.214766 -246.328471 
L 314.681362 -247.411827 
L 313.147957 -248.449693 
L 311.614552 -249.444498 
L 310.081148 -250.398218 
L 308.547743 -251.308444 
L 307.014339 -252.179398 
L 305.480934 -253.01245 
L 303.947529 -253.807439 
L 302.414125 -254.563637 
L 300.88072 -255.278045 
L 299.347315 -255.953445 
L 297.813911 -256.584082 
L 296.341173 -257.133194 
L 294.686153 -257.68482 
L 293.031132 -258.165157 
L 291.418346 -258.555901 
L 289.595004 -258.908561 
L 287.824375 -259.431744 
L 285.7432 -259.841466 
L 283.800811 -260.041449 
L 281.476457 -259.879581 
L 279.152103 -259.44457 
L 276.472631 -258.969463 
L 273.793159 -257.904967 
L 271.113687 -256.146085 
L 268.434215 -253.619247 
L 265.754744 -250.302476 
L 263.075272 -246.177501 
L 260.3958 -241.470672 
L 257.716328 -236.180843 
L 255.625864 -231.810263 
L 252.946392 -225.873905 
L 251.007275 -221.45821 
L 248.327803 -215.178966 
L 246.474479 -210.778405 
L 243.795007 -204.326909 
L 241.990121 -199.954049 
L 239.31065 -193.417449 
L 237.536185 -189.076802 
L 234.856713 -182.498246 
L 233.105854 -178.196038 
L 230.426382 -171.596633 
L 228.698684 -167.34266 
L 226.019212 -160.732684 
L 224.317315 -156.538615 
L 221.637844 -149.923074 
L 219.966422 -145.802843 
L 217.28695 -139.184162 
L 215.653378 -135.157049 
L 212.973906 -128.536416 
L 211.394105 -124.642201 
L 208.714633 -118.021291 
L 207.219177 -114.336458 
L 204.867229 -108.536232 
L 203.49786 -105.168084 
L 201.272547 -99.688922 
L 200.015609 -96.602491 
L 197.789557 -91.10069 
L 196.696827 -88.37039 
L 194.580353 -82.792277 
L 193.685333 -80.219172 
L 191.763433 -73.522835 
L 191.077538 -70.46651 
L 189.405977 -59.693647 
L 188.925786 -54.966515 
L 187.902124 -40.155925 
L 187.627042 -39.6 
L 187.102087 -39.6 
L 186.969266 -39.6 
L 186.74242 -39.6 
L 186.703014 -39.6 
L 186.699074 -39.6 
L 186.698679 -39.6 
z
" style="stroke: #800080; stroke-opacity: 0.2"/>
    </defs>
    <g clip-path="url(#pe1c0c22506)">
     <use xlink:href="#ma4d5468ac3" x="0" y="360" style="fill: #800080; fill-opacity: 0.2; stroke: #800080; stroke-opacity: 0.2"/>
    </g>
   </g>
   <g id="PathCollection_1">
    <defs>
     <path id="md529f22c59" d="M 0 7.071068 
C 1.875269 7.071068 3.673985 6.326016 5 5 
C 6.326016 3.673985 7.071068 1.875269 7.071068 0 
C 7.071068 -1.875269 6.326016 -3.673985 5 -5 
C 3.673985 -6.326016 1.875269 -7.071068 0 -7.071068 
C -1.875269 -7.071068 -3.673985 -6.326016 -5 -5 
C -6.326016 -3.673985 -7.071068 -1.875269 -7.071068 0 
C -7.071068 1.875269 -6.326016 3.673985 -5 5 
C -3.673985 6.326016 -1.875269 7.071068 0 7.071068 
z
" style="stroke: #000000; stroke-opacity: 0.8"/>
    </defs>
    <g clip-path="url(#pe1c0c22506)">
     <use xlink:href="#md529f22c59" x="186.698679" y="320.4" style="fill-opacity: 0.8; stroke: #000000; stroke-opacity: 0.8"/>
     <use xlink:href="#md529f22c59" x="213.493397" y="210.672942" style="fill-opacity: 0.8; stroke: #000000; stroke-opacity: 0.8"/>
     <use xlink:href="#md529f22c59" x="240.288115" y="157.44586" style="fill-opacity: 0.8; stroke: #000000; stroke-opacity: 0.8"/>
     <use xlink:href="#md529f22c59" x="267.082833" y="131.743725" style="fill-opacity: 0.8; stroke: #000000; stroke-opacity: 0.8"/>
     <use xlink:href="#md529f22c59" x="293.877551" y="94.423006" style="fill-opacity: 0.8; stroke: #000000; stroke-opacity: 0.8"/>
     <use xlink:href="#md529f22c59" x="320.672269" y="122.488363" style="fill-opacity: 0.8; stroke: #000000; stroke-opacity: 0.8"/>
     <use xlink:href="#md529f22c59" x="347.466987" y="168.464154" style="fill-opacity: 0.8; stroke: #000000; stroke-opacity: 0.8"/>
     <use xlink:href="#md529f22c59" x="374.261705" y="320.4" style="fill-opacity: 0.8; stroke: #000000; stroke-opacity: 0.8"/>
    </g>
   </g>
   <g id="line2d_1">
    <path d="M 186.698679 320.4 
L 186.699074 320.4 
L 186.703014 320.4 
L 186.74242 320.4 
L 186.969266 320.4 
L 187.102087 320.4 
L 187.627042 320.4 
L 187.902124 320.4 
L 188.925786 305.034546 
L 189.405977 300.30745 
L 191.077538 289.558096 
L 191.763433 286.504875 
L 193.685333 279.884657 
L 194.580353 277.347968 
L 196.696827 271.895138 
L 197.789557 269.234822 
L 200.015609 263.881137 
L 201.272547 260.88287 
L 203.49786 255.554969 
L 204.867229 252.283622 
L 207.219177 246.641332 
L 208.714633 243.064358 
L 211.394105 236.62362 
L 212.973906 232.84367 
L 215.653378 226.403313 
L 217.28695 222.494516 
L 219.966422 216.055306 
L 221.637844 212.056406 
L 224.317315 205.619376 
L 226.019212 201.549009 
L 228.698684 195.116162 
L 230.426382 190.987375 
L 233.105854 184.562725 
L 234.856713 180.385584 
L 237.536185 173.977288 
L 239.31065 169.758397 
L 241.990121 163.383059 
L 243.795007 159.122069 
L 246.474479 152.813255 
L 248.327803 148.50089 
L 251.007275 142.325713 
L 252.946392 137.946423 
L 255.625864 132.036043 
L 257.716328 127.597979 
L 260.3958 122.195207 
L 263.075272 117.223733 
L 265.754744 112.799558 
L 268.434215 109.028892 
L 271.113687 105.986226 
L 273.793159 103.696715 
L 276.472631 102.131225 
L 279.152103 101.21598 
L 281.476457 100.87269 
L 283.800811 100.875254 
L 285.7432 101.095783 
L 287.824375 101.51115 
L 289.595004 101.985682 
L 291.418346 102.570709 
L 293.031132 103.157761 
L 294.686153 103.818684 
L 296.341173 104.531918 
L 297.813911 105.206274 
L 299.347315 105.944843 
L 300.88072 106.718364 
L 302.414125 107.525315 
L 303.947529 108.364818 
L 305.480934 109.236538 
L 307.014339 110.140598 
L 308.547743 111.077521 
L 310.081148 112.048183 
L 311.614552 113.053787 
L 313.147957 114.095856 
L 314.681362 115.176237 
L 316.214766 116.297134 
L 317.801261 117.502257 
L 319.60257 118.930866 
L 322.282042 121.187615 
L 324.381644 123.08092 
L 327.061115 125.68551 
L 329.740587 128.546847 
L 332.420059 131.736661 
L 335.099531 135.367219 
L 337.779002 139.626881 
L 340.458474 144.864779 
L 343.137946 151.831262 
L 344.477682 156.485337 
L 345.817418 162.462484 
L 346.206418 164.501983 
L 346.733344 167.40388 
L 347.027344 169.05123 
L 347.395062 171.116594 
L 347.696024 172.807469 
L 348.079608 174.963399 
L 348.463191 177.11936 
L 349.162584 181.058175 
L 350.164036 186.715341 
L 351.739128 195.694711 
L 353.028362 203.006477 
L 354.9177 213.852622 
L 356.400307 222.287965 
L 358.469803 234.222102 
L 360.077727 243.389268 
L 362.238419 255.873828 
L 363.927775 265.511697 
L 366.128461 278.220545 
L 367.873594 288.161226 
L 370.089633 300.906257 
L 371.879043 311.034581 
L 374.108834 320.4 
L 376.338626 320.4 
L 378.58989 320.4 
L 380.841154 320.4 
L 383.255013 320.4 
L 385.846064 320.4 
L 388.525536 320.4 
L 391.205007 320.4 
L 393.884479 320.4 
L 396.563951 320.4 
L 399.243423 320.4 
L 401.056423 320.4 
" clip-path="url(#pe1c0c22506)" style="fill: none; stroke: #800080; stroke-width: 3; stroke-linecap: round"/>
   </g>
  </g>
  <g id="axes_2">
   <g id="patch_7">
    <path d="M 476.081633 320.4 
L 703.836735 320.4 
L 703.836735 43.2 
L 476.081633 43.2 
L 476.081633 320.4 
z
" style="fill: none"/>
   </g>
   <g id="matplotlib.axis_3">
    <g id="xtick_6">
     <g id="text_13">
      <!-- 0 -->
      <g style="fill: #262626" transform="translate(474.10525 352.232375) scale(0.312 -0.312)">
       <use xlink:href="#ArialMT-30"/>
      </g>
     </g>
    </g>
    <g id="xtick_7">
     <g id="text_14">
      <!-- 2 -->
      <g style="fill: #262626" transform="translate(527.694685 352.232375) scale(0.312 -0.312)">
       <use xlink:href="#ArialMT-32"/>
      </g>
     </g>
    </g>
    <g id="xtick_8">
     <g id="text_15">
      <!-- 4 -->
      <g style="fill: #262626" transform="translate(581.284121 352.232375) scale(0.312 -0.312)">
       <use xlink:href="#ArialMT-34"/>
      </g>
     </g>
    </g>
    <g id="xtick_9">
     <g id="text_16">
      <!-- 6 -->
      <g style="fill: #262626" transform="translate(634.873557 352.232375) scale(0.312 -0.312)">
       <use xlink:href="#ArialMT-36"/>
      </g>
     </g>
    </g>
    <g id="xtick_10">
     <g id="text_17">
      <!-- 8 -->
      <g style="fill: #262626" transform="translate(688.462993 352.232375) scale(0.312 -0.312)">
       <use xlink:href="#ArialMT-38"/>
      </g>
     </g>
    </g>
    <g id="text_18">
     <!-- Time (d) -->
     <g style="fill: #262626" transform="translate(537.272621 383.253281) scale(0.286 -0.286)">
      <use xlink:href="#ArialMT-54"/>
      <use xlink:href="#ArialMT-69" transform="translate(57.333984 0)"/>
      <use xlink:href="#ArialMT-6d" transform="translate(79.550781 0)"/>
      <use xlink:href="#ArialMT-65" transform="translate(162.851562 0)"/>
      <use xlink:href="#ArialMT-20" transform="translate(218.466797 0)"/>
      <use xlink:href="#ArialMT-28" transform="translate(246.25 0)"/>
      <use xlink:href="#ArialMT-64" transform="translate(279.550781 0)"/>
      <use xlink:href="#ArialMT-29" transform="translate(335.166016 0)"/>
     </g>
    </g>
   </g>
   <g id="matplotlib.axis_4">
    <g id="ytick_6">
     <g id="text_19">
      <!-- 4 -->
      <g style="fill: #262626" transform="translate(449.231508 269.966187) scale(0.312 -0.312)">
       <use xlink:href="#ArialMT-34"/>
      </g>
     </g>
    </g>
    <g id="ytick_7">
     <g id="text_20">
      <!-- 6 -->
      <g style="fill: #262626" transform="translate(449.231508 146.766188) scale(0.312 -0.312)">
       <use xlink:href="#ArialMT-36"/>
      </g>
     </g>
    </g>
    <g id="text_21">
     <!-- Log$_{10}$ CD8$^+$ T cells -->
     <g style="fill: #262626" transform="translate(438.939508 309.642) rotate(-90) scale(0.286 -0.286)">
      <defs>
       <path id="ArialMT-43" d="M 3763 1606 
L 4369 1453 
Q 4178 706 3683 314 
Q 3188 -78 2472 -78 
Q 1731 -78 1267 223 
Q 803 525 561 1097 
Q 319 1669 319 2325 
Q 319 3041 592 3573 
Q 866 4106 1370 4382 
Q 1875 4659 2481 4659 
Q 3169 4659 3637 4309 
Q 4106 3959 4291 3325 
L 3694 3184 
Q 3534 3684 3231 3912 
Q 2928 4141 2469 4141 
Q 1941 4141 1586 3887 
Q 1231 3634 1087 3207 
Q 944 2781 944 2328 
Q 944 1744 1114 1308 
Q 1284 872 1643 656 
Q 2003 441 2422 441 
Q 2931 441 3284 734 
Q 3638 1028 3763 1606 
z
" transform="scale(0.015625)"/>
       <path id="ArialMT-44" d="M 494 0 
L 494 4581 
L 2072 4581 
Q 2606 4581 2888 4516 
Q 3281 4425 3559 4188 
Q 3922 3881 4101 3404 
Q 4281 2928 4281 2316 
Q 4281 1794 4159 1391 
Q 4038 988 3847 723 
Q 3656 459 3429 307 
Q 3203 156 2883 78 
Q 2563 0 2147 0 
L 494 0 
z
M 1100 541 
L 2078 541 
Q 2531 541 2789 625 
Q 3047 709 3200 863 
Q 3416 1078 3536 1442 
Q 3656 1806 3656 2325 
Q 3656 3044 3420 3430 
Q 3184 3816 2847 3947 
Q 2603 4041 2063 4041 
L 1100 4041 
L 1100 541 
z
" transform="scale(0.015625)"/>
       <path id="DejaVuSans-2b" d="M 2944 4013 
L 2944 2272 
L 4684 2272 
L 4684 1741 
L 2944 1741 
L 2944 0 
L 2419 0 
L 2419 1741 
L 678 1741 
L 678 2272 
L 2419 2272 
L 2419 4013 
L 2944 4013 
z
" transform="scale(0.015625)"/>
       <path id="ArialMT-6c" d="M 409 0 
L 409 4581 
L 972 4581 
L 972 0 
L 409 0 
z
" transform="scale(0.015625)"/>
      </defs>
      <use xlink:href="#ArialMT-4c" transform="translate(0 0.826562)"/>
      <use xlink:href="#ArialMT-6f" transform="translate(55.615234 0.826562)"/>
      <use xlink:href="#ArialMT-67" transform="translate(111.230469 0.826562)"/>
      <use xlink:href="#DejaVuSans-31" transform="translate(167.802734 -15.579688) scale(0.7)"/>
      <use xlink:href="#DejaVuSans-30" transform="translate(212.338867 -15.579688) scale(0.7)"/>
      <use xlink:href="#ArialMT-20" transform="translate(259.609375 0.826562)"/>
      <use xlink:href="#ArialMT-43" transform="translate(287.392578 0.826562)"/>
      <use xlink:href="#ArialMT-44" transform="translate(359.609375 0.826562)"/>
      <use xlink:href="#ArialMT-38" transform="translate(431.826172 0.826562)"/>
      <use xlink:href="#DejaVuSans-2b" transform="translate(502.036133 39.107812) scale(0.7)"/>
      <use xlink:href="#ArialMT-20" transform="translate(577.060547 0.826562)"/>
      <use xlink:href="#ArialMT-54" transform="translate(604.84375 0.826562)"/>
      <use xlink:href="#ArialMT-20" transform="translate(665.927734 0.826562)"/>
      <use xlink:href="#ArialMT-63" transform="translate(693.710938 0.826562)"/>
      <use xlink:href="#ArialMT-65" transform="translate(743.710938 0.826562)"/>
      <use xlink:href="#ArialMT-6c" transform="translate(799.326172 0.826562)"/>
      <use xlink:href="#ArialMT-6c" transform="translate(821.542969 0.826562)"/>
      <use xlink:href="#ArialMT-73" transform="translate(843.759766 0.826562)"/>
     </g>
    </g>
   </g>
   <g id="patch_8">
    <path d="M 476.081633 320.4 
L 476.081633 43.2 
" style="fill: none; stroke: #262626; stroke-width: 1.25; stroke-linejoin: miter; stroke-linecap: square"/>
   </g>
   <g id="patch_9">
    <path d="M 703.836735 320.4 
L 703.836735 43.2 
" style="fill: none; stroke: #262626; stroke-width: 1.25; stroke-linejoin: miter; stroke-linecap: square"/>
   </g>
   <g id="patch_10">
    <path d="M 476.081633 320.4 
L 703.836735 320.4 
" style="fill: none; stroke: #262626; stroke-width: 1.25; stroke-linejoin: miter; stroke-linecap: square"/>
   </g>
   <g id="patch_11">
    <path d="M 476.081633 43.2 
L 703.836735 43.2 
" style="fill: none; stroke: #262626; stroke-width: 1.25; stroke-linejoin: miter; stroke-linecap: square"/>
   </g>
   <g id="FillBetweenPolyCollection_2">
    <defs>
     <path id="md4620dc685" d="M 482.780312 -148.247113 
L 482.780312 -148.247113 
L 482.780706 -148.247113 
L 482.784647 -148.247113 
L 482.824052 -148.247113 
L 483.050899 -148.247113 
L 483.18372 -148.247113 
L 483.708675 -148.247113 
L 483.983756 -148.247113 
L 485.007419 -148.247113 
L 485.487609 -148.247113 
L 487.15917 -148.247113 
L 487.845065 -148.247113 
L 489.766965 -148.247113 
L 490.661986 -148.247113 
L 492.77846 -148.247113 
L 493.871189 -148.247113 
L 496.097242 -148.247113 
L 497.354179 -148.247114 
L 499.579492 -148.247117 
L 500.948862 -148.247122 
L 503.300809 -148.24714 
L 504.796265 -148.247163 
L 507.475737 -148.247238 
L 509.055539 -148.247317 
L 511.735011 -148.247531 
L 513.368583 -148.247738 
L 516.048054 -148.248243 
L 517.719476 -148.24871 
L 520.398948 -148.24978 
L 522.100845 -148.250756 
L 524.780316 -148.252918 
L 526.508015 -148.254894 
L 529.187487 -148.259205 
L 530.938345 -148.26318 
L 533.617817 -148.271779 
L 535.392282 -148.279801 
L 538.071754 -148.297026 
L 539.87664 -148.313365 
L 542.556112 -148.348039 
L 544.409435 -148.381889 
L 547.088907 -148.452113 
L 549.028024 -148.524409 
L 551.707496 -148.667951 
L 553.797961 -148.829839 
L 556.477433 -149.127535 
L 559.156904 -149.588854 
L 561.836376 -150.255349 
L 564.515848 -151.228423 
L 567.19532 -152.622538 
L 569.874792 -154.569577 
L 572.554263 -157.200682 
L 575.233735 -160.615745 
L 577.558089 -164.204882 
L 579.882443 -168.41386 
L 581.824832 -172.370442 
L 583.906008 -176.835453 
L 585.676637 -180.805178 
L 587.499979 -184.986388 
L 589.112764 -188.706531 
L 590.767785 -192.479986 
L 592.422806 -196.01856 
L 593.895543 -198.869338 
L 595.428948 -201.716036 
L 596.962353 -204.390901 
L 598.495757 -206.869537 
L 600.029162 -209.173836 
L 601.562567 -211.301072 
L 603.095971 -213.250704 
L 604.629376 -215.024068 
L 606.16278 -216.624155 
L 607.696185 -218.02859 
L 609.22959 -219.264151 
L 610.762994 -220.347947 
L 612.296399 -221.159669 
L 613.882894 -221.648699 
L 615.684202 -222.04086 
L 618.363674 -222.453447 
L 620.463276 -222.571484 
L 623.142748 -222.561601 
L 625.82222 -222.382765 
L 628.501692 -222.069542 
L 631.181163 -221.651172 
L 633.860635 -221.151846 
L 636.540107 -220.591168 
L 639.219579 -219.984716 
L 640.559315 -219.669845 
L 641.89905 -219.344652 
L 642.28805 -219.25023 
L 642.814977 -219.122329 
L 643.108977 -219.049416 
L 643.476695 -218.958133 
L 643.777657 -218.882863 
L 644.16124 -218.786875 
L 644.544824 -218.690499 
L 645.244216 -218.513887 
L 646.245669 -218.259153 
L 647.820761 -217.854769 
L 649.109995 -217.520869 
L 650.999333 -217.028256 
L 652.48194 -216.639183 
L 654.551436 -216.093814 
L 656.15936 -215.668408 
L 658.320052 -215.095539 
L 660.009408 -214.646854 
L 662.210094 -213.732452 
L 663.955227 -212.726398 
L 666.171265 -211.446158 
L 667.960675 -210.411803 
L 670.190467 -209.123678 
L 672.420258 -207.837784 
L 674.671522 -206.54341 
L 676.922786 -205.254194 
L 679.336645 -203.878588 
L 681.927697 -202.411206 
L 684.607168 -200.904674 
L 687.28664 -199.410525 
L 689.966112 -197.929786 
L 692.645584 -196.463397 
L 695.325055 -195.012181 
L 697.138055 -194.039296 
L 697.138055 -215.291335 
L 697.138055 -215.291335 
L 695.325055 -215.776335 
L 692.645584 -216.49446 
L 689.966112 -217.214149 
L 687.28664 -217.935353 
L 684.607168 -218.657994 
L 681.927697 -219.381983 
L 679.336645 -220.083271 
L 676.922786 -220.737484 
L 674.671522 -221.348341 
L 672.420258 -221.959686 
L 670.190467 -222.565521 
L 667.960675 -223.171419 
L 666.171265 -223.657555 
L 663.955227 -224.258936 
L 662.210094 -224.731973 
L 660.009408 -225.326804 
L 658.320052 -225.78213 
L 656.15936 -226.361401 
L 654.551436 -226.790094 
L 652.48194 -227.337057 
L 650.999333 -227.725309 
L 649.109995 -228.213467 
L 647.820761 -228.541977 
L 646.245669 -228.937796 
L 645.244216 -229.183093 
L 644.544824 -229.354404 
L 644.16124 -229.447857 
L 643.777657 -229.539603 
L 643.476695 -229.611452 
L 643.108977 -229.697417 
L 642.814977 -229.766149 
L 642.28805 -229.889334 
L 641.89905 -229.979711 
L 640.559315 -230.281613 
L 639.219579 -230.567286 
L 636.540107 -231.10266 
L 633.860635 -231.565427 
L 631.181163 -231.933721 
L 628.501692 -232.180967 
L 625.82222 -232.275546 
L 623.142748 -232.186472 
L 620.463276 -231.863976 
L 618.363674 -231.42672 
L 615.684202 -230.562478 
L 613.882894 -229.782799 
L 612.296399 -228.945248 
L 610.762994 -227.992072 
L 609.22959 -226.888354 
L 607.696185 -225.625116 
L 606.16278 -224.193938 
L 604.629376 -222.568199 
L 603.095971 -220.754407 
L 601.562567 -218.983273 
L 600.029162 -217.277298 
L 598.495757 -215.384284 
L 596.962353 -213.340927 
L 595.428948 -211.019362 
L 593.895543 -208.611115 
L 592.422806 -205.99284 
L 590.767785 -202.940686 
L 589.112764 -199.661567 
L 587.499979 -196.274104 
L 585.676637 -192.319186 
L 583.906008 -188.301827 
L 581.824832 -183.517306 
L 579.882443 -179.060613 
L 577.558089 -173.913141 
L 575.233735 -169.136959 
L 572.554263 -164.201008 
L 569.874792 -160.016223 
L 567.19532 -156.663672 
L 564.515848 -154.108438 
L 561.836376 -152.242896 
L 559.156904 -150.927386 
L 556.477433 -150.010991 
L 553.797961 -149.41223 
L 551.707496 -149.078273 
L 549.028024 -148.792347 
L 547.088907 -148.643397 
L 544.409435 -148.506224 
L 542.556112 -148.437632 
L 539.87664 -148.37141 
L 538.071754 -148.341657 
L 535.392282 -148.310125 
L 533.617817 -148.295171 
L 530.938345 -148.279104 
L 529.187487 -148.271476 
L 526.508015 -148.263252 
L 524.780316 -148.259343 
L 522.100845 -148.255107 
L 520.398948 -148.253097 
L 517.719476 -148.250908 
L 516.048054 -148.24988 
L 513.368583 -148.248767 
L 511.735011 -148.248261 
L 509.055539 -148.247733 
L 507.475737 -148.24751 
L 504.796265 -148.247295 
L 503.300809 -148.247216 
L 500.948862 -148.247156 
L 499.579492 -148.247133 
L 497.354179 -148.24712 
L 496.097242 -148.247115 
L 493.871189 -148.247113 
L 492.77846 -148.247113 
L 490.661986 -148.247113 
L 489.766965 -148.247113 
L 487.845065 -148.247113 
L 487.15917 -148.247113 
L 485.487609 -148.247113 
L 485.007419 -148.247113 
L 483.983756 -148.247113 
L 483.708675 -148.247113 
L 483.18372 -148.247113 
L 483.050899 -148.247113 
L 482.824052 -148.247113 
L 482.784647 -148.247113 
L 482.780706 -148.247113 
L 482.780312 -148.247113 
z
" style="stroke: #800080; stroke-opacity: 0.2"/>
    </defs>
    <g clip-path="url(#p8abe14c791)">
     <use xlink:href="#md4620dc685" x="0" y="360" style="fill: #800080; fill-opacity: 0.2; stroke: #800080; stroke-opacity: 0.2"/>
    </g>
   </g>
   <g id="FillBetweenPolyCollection_3">
    <defs>
     <path id="mfd1db88137" d="M 482.780312 -91.32346 
L 482.780312 -91.32346 
L 482.780706 -91.32346 
L 482.784647 -91.32346 
L 482.824052 -91.32346 
L 483.050899 -91.32346 
L 483.18372 -91.32346 
L 483.708675 -91.32346 
L 483.983756 -91.32346 
L 485.007419 -91.32346 
L 485.487609 -91.32346 
L 487.15917 -91.32346 
L 487.845065 -91.32346 
L 489.766965 -91.32346 
L 490.661986 -91.32346 
L 492.77846 -91.32346 
L 493.871189 -91.32346 
L 496.097242 -91.32346 
L 497.354179 -91.32346 
L 499.579492 -91.32346 
L 500.948862 -91.32346 
L 503.300809 -91.32346 
L 504.796265 -91.32346 
L 507.475737 -91.32346 
L 509.055539 -91.32346 
L 511.735011 -91.32346 
L 513.368583 -91.32346 
L 516.048054 -91.32346 
L 517.719476 -91.32346 
L 520.398948 -91.32346 
L 522.100845 -91.32346 
L 524.780316 -91.32346 
L 526.508015 -91.32346 
L 529.187487 -91.323461 
L 530.938345 -91.323461 
L 533.617817 -91.323463 
L 535.392282 -91.323466 
L 538.071754 -91.323474 
L 539.87664 -91.323482 
L 542.556112 -91.323502 
L 544.409435 -91.323525 
L 547.088907 -91.323572 
L 549.028024 -91.323625 
L 551.707496 -91.32373 
L 553.797961 -91.323855 
L 556.477433 -91.324089 
L 559.156904 -91.324463 
L 561.836376 -91.325026 
L 564.515848 -91.325889 
L 567.19532 -91.327216 
L 569.874792 -91.329249 
L 572.554263 -91.332371 
L 575.233735 -91.337143 
L 577.558089 -91.343117 
L 579.882443 -91.351812 
L 581.824832 -91.362049 
L 583.906008 -91.377058 
L 585.676637 -91.394342 
L 587.499979 -91.417788 
L 589.112764 -91.44496 
L 590.767785 -91.480918 
L 592.422806 -91.526982 
L 593.895543 -91.578897 
L 595.428948 -91.64674 
L 596.962353 -91.731971 
L 598.495757 -91.838712 
L 600.029162 -91.971321 
L 601.562567 -92.134913 
L 603.095971 -92.336088 
L 604.629376 -92.581644 
L 606.16278 -92.878967 
L 607.696185 -93.235523 
L 609.22959 -93.659451 
L 610.762994 -94.157554 
L 612.296399 -94.736847 
L 613.882894 -95.428241 
L 615.684202 -96.333825 
L 618.363674 -97.907828 
L 620.463276 -99.322922 
L 623.142748 -101.372028 
L 625.82222 -103.570866 
L 628.501692 -105.925699 
L 631.181163 -108.354213 
L 633.860635 -110.792104 
L 636.540107 -113.191714 
L 639.219579 -115.519598 
L 640.559315 -116.660715 
L 641.89905 -117.762505 
L 642.28805 -118.076956 
L 642.814977 -118.498237 
L 643.108977 -118.731508 
L 643.476695 -119.018876 
L 643.777657 -119.254076 
L 644.16124 -119.553648 
L 644.544824 -119.846135 
L 645.244216 -120.378857 
L 646.245669 -121.119093 
L 647.820761 -122.253236 
L 649.109995 -123.144529 
L 650.999333 -124.400794 
L 652.48194 -125.341241 
L 654.551436 -126.591406 
L 656.15936 -127.5147 
L 658.320052 -128.688424 
L 660.009408 -129.558971 
L 662.210094 -130.628655 
L 663.955227 -131.432848 
L 666.171265 -132.395728 
L 667.960675 -133.065871 
L 670.190467 -133.727499 
L 672.420258 -134.361117 
L 674.671522 -134.968611 
L 676.922786 -135.548703 
L 679.336645 -136.142132 
L 681.927697 -136.748321 
L 684.607168 -137.344391 
L 687.28664 -137.910934 
L 689.966112 -138.449954 
L 692.645584 -138.963284 
L 695.325055 -139.452611 
L 697.138055 -139.77208 
L 697.138055 -151.945901 
L 697.138055 -151.945901 
L 695.325055 -151.618552 
L 692.645584 -151.117863 
L 689.966112 -150.590508 
L 687.28664 -150.034492 
L 684.607168 -149.447605 
L 681.927697 -148.827428 
L 679.336645 -148.193366 
L 676.922786 -147.572728 
L 674.671522 -146.959544 
L 672.420258 -146.318693 
L 670.190467 -145.646598 
L 667.960675 -144.941945 
L 666.171265 -144.344123 
L 663.955227 -143.571757 
L 662.210094 -142.928876 
L 660.009408 -142.080173 
L 658.320052 -141.393254 
L 656.15936 -140.467534 
L 654.551436 -139.743435 
L 652.48194 -138.765522 
L 650.999333 -138.024333 
L 649.109995 -137.044582 
L 647.820761 -136.333423 
L 646.245669 -135.443014 
L 645.244216 -134.846212 
L 644.544824 -134.426337 
L 644.16124 -134.190901 
L 643.777657 -133.952386 
L 643.476695 -133.762445 
L 643.108977 -133.527538 
L 642.814977 -133.339724 
L 642.28805 -132.999009 
L 641.89905 -132.743303 
L 640.559315 -131.83853 
L 639.219579 -130.891826 
L 636.540107 -128.897879 
L 633.860635 -126.746901 
L 631.181163 -124.435208 
L 628.501692 -121.964775 
L 625.82222 -119.771703 
L 623.142748 -117.601949 
L 620.463276 -115.314393 
L 618.363674 -113.453199 
L 615.684202 -111.007047 
L 613.882894 -109.339647 
L 612.296399 -107.866688 
L 610.762994 -106.451944 
L 609.22959 -105.057703 
L 607.696185 -103.696115 
L 606.16278 -102.37955 
L 604.629376 -101.120058 
L 603.095971 -99.928827 
L 601.562567 -98.815659 
L 600.029162 -97.788467 
L 598.495757 -96.852177 
L 596.962353 -96.009917 
L 595.428948 -95.259804 
L 593.895543 -94.607914 
L 592.422806 -94.064781 
L 590.767785 -93.53948 
L 589.112764 -93.101251 
L 587.499979 -92.751443 
L 585.676637 -92.426339 
L 583.906008 -92.180471 
L 581.824832 -91.951413 
L 579.882443 -91.794946 
L 577.558089 -91.653603 
L 575.233735 -91.556151 
L 572.554263 -91.476993 
L 569.874792 -91.424541 
L 567.19532 -91.389873 
L 564.515848 -91.366969 
L 561.836376 -91.351888 
L 559.156904 -91.341989 
L 556.477433 -91.335366 
L 553.797961 -91.331245 
L 551.707496 -91.328995 
L 549.028024 -91.327061 
L 547.088907 -91.32608 
L 544.409435 -91.325153 
L 542.556112 -91.324704 
L 539.87664 -91.324254 
L 538.071754 -91.324042 
L 535.392282 -91.323824 
L 533.617817 -91.323724 
L 530.938345 -91.323619 
L 529.187487 -91.323572 
L 526.508015 -91.323524 
L 524.780316 -91.323503 
L 522.100845 -91.323482 
L 520.398948 -91.323474 
L 517.719476 -91.323466 
L 516.048054 -91.323463 
L 513.368583 -91.323461 
L 511.735011 -91.323461 
L 509.055539 -91.32346 
L 507.475737 -91.32346 
L 504.796265 -91.32346 
L 503.300809 -91.32346 
L 500.948862 -91.32346 
L 499.579492 -91.32346 
L 497.354179 -91.32346 
L 496.097242 -91.32346 
L 493.871189 -91.32346 
L 492.77846 -91.32346 
L 490.661986 -91.32346 
L 489.766965 -91.32346 
L 487.845065 -91.32346 
L 487.15917 -91.32346 
L 485.487609 -91.32346 
L 485.007419 -91.32346 
L 483.983756 -91.32346 
L 483.708675 -91.32346 
L 483.18372 -91.32346 
L 483.050899 -91.32346 
L 482.824052 -91.32346 
L 482.784647 -91.32346 
L 482.780706 -91.32346 
L 482.780312 -91.32346 
z
" style="stroke: #800080; stroke-opacity: 0.2"/>
    </defs>
    <g clip-path="url(#p8abe14c791)">
     <use xlink:href="#mfd1db88137" x="0" y="360" style="fill: #800080; fill-opacity: 0.2; stroke: #800080; stroke-opacity: 0.2"/>
    </g>
   </g>
   <g id="PathCollection_2">
    <g clip-path="url(#p8abe14c791)">
     <use xlink:href="#md529f22c59" x="482.780312" y="211.752887" style="fill-opacity: 0.8; stroke: #000000; stroke-opacity: 0.8"/>
     <use xlink:href="#md529f22c59" x="509.57503" y="194.374406" style="fill-opacity: 0.8; stroke: #000000; stroke-opacity: 0.8"/>
     <use xlink:href="#md529f22c59" x="563.164466" y="189.682111" style="fill-opacity: 0.8; stroke: #000000; stroke-opacity: 0.8"/>
     <use xlink:href="#md529f22c59" x="589.959184" y="166.802964" style="fill-opacity: 0.8; stroke: #000000; stroke-opacity: 0.8"/>
     <use xlink:href="#md529f22c59" x="616.753902" y="146.938807" style="fill-opacity: 0.8; stroke: #000000; stroke-opacity: 0.8"/>
     <use xlink:href="#md529f22c59" x="643.548619" y="143.185283" style="fill-opacity: 0.8; stroke: #000000; stroke-opacity: 0.8"/>
     <use xlink:href="#md529f22c59" x="670.343337" y="139.073351" style="fill-opacity: 0.8; stroke: #000000; stroke-opacity: 0.8"/>
    </g>
   </g>
   <g id="PathCollection_3">
    <defs>
     <path id="mfbf2d40a98" d="M -7.071068 7.071068 
L 7.071068 7.071068 
L 7.071068 -7.071068 
L -7.071068 -7.071068 
z
" style="stroke: #000000; stroke-opacity: 0.8"/>
    </defs>
    <g clip-path="url(#p8abe14c791)">
     <use xlink:href="#mfbf2d40a98" x="482.780312" y="268.673476" style="fill-opacity: 0.8; stroke: #000000; stroke-opacity: 0.8"/>
     <use xlink:href="#mfbf2d40a98" x="509.57503" y="261.162308" style="fill-opacity: 0.8; stroke: #000000; stroke-opacity: 0.8"/>
     <use xlink:href="#mfbf2d40a98" x="536.369748" y="284.818387" style="fill-opacity: 0.8; stroke: #000000; stroke-opacity: 0.8"/>
     <use xlink:href="#mfbf2d40a98" x="563.164466" y="261.838464" style="fill-opacity: 0.8; stroke: #000000; stroke-opacity: 0.8"/>
     <use xlink:href="#mfbf2d40a98" x="589.959184" y="253.806891" style="fill-opacity: 0.8; stroke: #000000; stroke-opacity: 0.8"/>
     <use xlink:href="#mfbf2d40a98" x="616.753902" y="257.711186" style="fill-opacity: 0.8; stroke: #000000; stroke-opacity: 0.8"/>
     <use xlink:href="#mfbf2d40a98" x="643.548619" y="235.153212" style="fill-opacity: 0.8; stroke: #000000; stroke-opacity: 0.8"/>
     <use xlink:href="#mfbf2d40a98" x="670.343337" y="221.567336" style="fill-opacity: 0.8; stroke: #000000; stroke-opacity: 0.8"/>
    </g>
   </g>
   <g id="line2d_2">
    <path d="M 482.780312 211.752887 
L 482.780706 211.752887 
L 482.784647 211.752887 
L 482.824052 211.752887 
L 483.050899 211.752887 
L 483.18372 211.752887 
L 483.708675 211.752887 
L 483.983756 211.752887 
L 485.007419 211.752887 
L 485.487609 211.752887 
L 487.15917 211.752887 
L 487.845065 211.752887 
L 489.766965 211.752887 
L 490.661986 211.752887 
L 492.77846 211.752887 
L 493.871189 211.752887 
L 496.097242 211.752885 
L 497.354179 211.752883 
L 499.579492 211.752873 
L 500.948862 211.752859 
L 503.300809 211.752813 
L 504.796265 211.752762 
L 507.475737 211.752598 
L 509.055539 211.752444 
L 511.735011 211.752036 
L 513.368583 211.75167 
L 516.048054 211.750792 
L 517.719476 211.750017 
L 520.398948 211.748243 
L 522.100845 211.746662 
L 524.780316 211.743118 
L 526.508015 211.73991 
L 529.187487 211.732799 
L 530.938345 211.726254 
L 533.617817 211.711896 
L 535.392282 211.698464 
L 538.071754 211.669335 
L 539.87664 211.641549 
L 542.556112 211.582228 
L 544.409435 211.523956 
L 547.088907 211.402653 
L 549.028024 211.277439 
L 551.707496 211.028008 
L 553.797961 210.748705 
L 556.477433 210.232574 
L 559.156904 209.466404 
L 561.836376 208.346882 
L 564.515848 206.746861 
L 567.19532 204.527336 
L 569.874792 201.563958 
L 572.554263 197.785514 
L 575.233735 193.210522 
L 577.558089 188.691875 
L 579.882443 183.796989 
L 581.824832 179.535373 
L 583.906008 174.912042 
L 585.676637 171.014484 
L 587.499979 167.103146 
L 589.112764 163.773701 
L 590.767785 160.518178 
L 592.422806 157.451005 
L 593.895543 154.894595 
L 595.428948 152.41608 
L 596.962353 150.12978 
L 598.495757 148.037637 
L 600.029162 146.138562 
L 601.562567 144.428971 
L 603.095971 142.90326 
L 604.629376 141.55424 
L 606.16278 140.37351 
L 607.696185 139.351787 
L 609.22959 138.47919 
L 610.762994 137.745479 
L 612.296399 137.140265 
L 613.882894 136.6383 
L 615.684202 136.207288 
L 618.363674 135.805807 
L 620.463276 135.664567 
L 623.142748 135.667255 
L 625.82222 135.838809 
L 628.501692 136.144556 
L 631.181163 136.555207 
L 633.860635 137.046562 
L 636.540107 137.599037 
L 639.219579 138.197093 
L 640.559315 138.509481 
L 641.89905 138.82891 
L 642.28805 138.922833 
L 642.814977 139.050813 
L 643.108977 139.122581 
L 643.476695 139.212689 
L 643.777657 139.286713 
L 644.16124 139.381399 
L 644.544824 139.476451 
L 645.244216 139.650639 
L 646.245669 139.901863 
L 647.820761 140.300699 
L 649.109995 140.630008 
L 650.999333 141.116256 
L 652.48194 141.500266 
L 654.551436 142.038927 
L 656.15936 142.459041 
L 658.320052 143.025054 
L 660.009408 143.468375 
L 662.210094 144.046416 
L 663.955227 144.504956 
L 666.171265 145.087121 
L 667.960675 145.556936 
L 670.190467 146.141842 
L 672.420258 146.725988 
L 674.671522 147.314843 
L 676.922786 147.902663 
L 679.336645 148.531685 
L 681.927697 149.205339 
L 684.607168 149.900206 
L 687.28664 150.593181 
L 689.966112 151.28419 
L 692.645584 151.973168 
L 695.325055 152.660054 
L 697.138055 153.123594 
" clip-path="url(#p8abe14c791)" style="fill: none; stroke: #800080; stroke-width: 3; stroke-linecap: round"/>
   </g>
   <g id="line2d_3">
    <path d="M 482.780312 268.67654 
L 482.780706 268.67654 
L 482.784647 268.67654 
L 482.824052 268.67654 
L 483.050899 268.67654 
L 483.18372 268.67654 
L 483.708675 268.67654 
L 483.983756 268.67654 
L 485.007419 268.67654 
L 485.487609 268.67654 
L 487.15917 268.67654 
L 487.845065 268.67654 
L 489.766965 268.67654 
L 490.661986 268.67654 
L 492.77846 268.67654 
L 493.871189 268.67654 
L 496.097242 268.67654 
L 497.354179 268.67654 
L 499.579492 268.67654 
L 500.948862 268.67654 
L 503.300809 268.67654 
L 504.796265 268.67654 
L 507.475737 268.67654 
L 509.055539 268.67654 
L 511.735011 268.67654 
L 513.368583 268.67654 
L 516.048054 268.67654 
L 517.719476 268.67654 
L 520.398948 268.676539 
L 522.100845 268.676537 
L 524.780316 268.676533 
L 526.508015 268.676529 
L 529.187487 268.676517 
L 530.938345 268.676504 
L 533.617817 268.676474 
L 535.392282 268.676443 
L 538.071754 268.676374 
L 539.87664 268.676306 
L 542.556112 268.676159 
L 544.409435 268.676013 
L 547.088907 268.675704 
L 549.028024 268.675383 
L 551.707496 268.674735 
L 553.797961 268.674003 
L 556.477433 268.672609 
L 559.156904 268.670474 
L 561.836376 268.667225 
L 564.515848 268.662231 
L 567.19532 268.654565 
L 569.874792 268.642841 
L 572.554263 268.624861 
L 575.233735 268.597426 
L 577.558089 268.562574 
L 579.882443 268.512364 
L 581.824832 268.454433 
L 583.906008 268.370196 
L 585.676637 268.274364 
L 587.499979 268.147072 
L 589.112764 268.003103 
L 590.767785 267.817519 
L 592.422806 267.585005 
L 593.895543 267.331905 
L 595.428948 267.014523 
L 596.962353 266.633882 
L 598.495757 266.182795 
L 600.029162 265.652541 
L 601.562567 265.038157 
L 603.095971 264.333747 
L 604.629376 263.536583 
L 606.16278 262.646308 
L 607.696185 261.665048 
L 609.22959 260.59714 
L 610.762994 259.449042 
L 612.296399 258.229762 
L 613.882894 256.904544 
L 615.684202 255.337656 
L 618.363674 252.92556 
L 620.463276 251.002521 
L 623.142748 248.554379 
L 625.82222 246.154255 
L 628.501692 243.83706 
L 631.181163 241.627215 
L 633.860635 239.537547 
L 636.540107 237.574693 
L 639.219579 235.739302 
L 640.559315 234.867887 
L 641.89905 234.026881 
L 642.28805 233.78829 
L 642.814977 233.468989 
L 643.108977 233.292739 
L 643.476695 233.074236 
L 643.777657 232.897078 
L 644.16124 232.673363 
L 644.544824 232.451935 
L 645.244216 232.053974 
L 646.245669 231.496899 
L 647.820761 230.65057 
L 649.109995 229.983706 
L 650.999333 229.046755 
L 652.48194 228.343345 
L 654.551436 227.405622 
L 656.15936 226.710537 
L 658.320052 225.819648 
L 660.009408 225.155492 
L 662.210094 224.330108 
L 663.955227 223.705616 
L 666.171265 222.948331 
L 667.960675 222.364204 
L 670.190467 221.668278 
L 672.420258 221.005524 
L 674.671522 220.367739 
L 676.922786 219.759362 
L 679.336645 219.137518 
L 681.927697 218.502709 
L 684.607168 217.879314 
L 687.28664 217.28718 
L 689.966112 216.724108 
L 692.645584 216.188113 
L 695.325055 215.677417 
L 697.138055 215.345381 
" clip-path="url(#p8abe14c791)" style="fill: none; stroke-dasharray: 11.1,4.8; stroke-dashoffset: 0; stroke: #800080; stroke-width: 3"/>
   </g>
  </g>
  <g id="text_22">
   <!-- Individual 107 -->
   <g style="fill: #262626" transform="translate(335.733375 29.532375) scale(0.312 -0.312)">
    <defs>
     <path id="ArialMT-49" d="M 597 0 
L 597 4581 
L 1203 4581 
L 1203 0 
L 597 0 
z
" transform="scale(0.015625)"/>
     <path id="ArialMT-6e" d="M 422 0 
L 422 3319 
L 928 3319 
L 928 2847 
Q 1294 3394 1984 3394 
Q 2284 3394 2536 3286 
Q 2788 3178 2913 3003 
Q 3038 2828 3088 2588 
Q 3119 2431 3119 2041 
L 3119 0 
L 2556 0 
L 2556 2019 
Q 2556 2363 2490 2533 
Q 2425 2703 2258 2804 
Q 2091 2906 1866 2906 
Q 1506 2906 1245 2678 
Q 984 2450 984 1813 
L 984 0 
L 422 0 
z
" transform="scale(0.015625)"/>
     <path id="ArialMT-76" d="M 1344 0 
L 81 3319 
L 675 3319 
L 1388 1331 
Q 1503 1009 1600 663 
Q 1675 925 1809 1294 
L 2547 3319 
L 3125 3319 
L 1869 0 
L 1344 0 
z
" transform="scale(0.015625)"/>
     <path id="ArialMT-61" d="M 2588 409 
Q 2275 144 1986 34 
Q 1697 -75 1366 -75 
Q 819 -75 525 192 
Q 231 459 231 875 
Q 231 1119 342 1320 
Q 453 1522 633 1644 
Q 813 1766 1038 1828 
Q 1203 1872 1538 1913 
Q 2219 1994 2541 2106 
Q 2544 2222 2544 2253 
Q 2544 2597 2384 2738 
Q 2169 2928 1744 2928 
Q 1347 2928 1158 2789 
Q 969 2650 878 2297 
L 328 2372 
Q 403 2725 575 2942 
Q 747 3159 1072 3276 
Q 1397 3394 1825 3394 
Q 2250 3394 2515 3294 
Q 2781 3194 2906 3042 
Q 3031 2891 3081 2659 
Q 3109 2516 3109 2141 
L 3109 1391 
Q 3109 606 3145 398 
Q 3181 191 3288 0 
L 2700 0 
Q 2613 175 2588 409 
z
M 2541 1666 
Q 2234 1541 1622 1453 
Q 1275 1403 1131 1340 
Q 988 1278 909 1158 
Q 831 1038 831 891 
Q 831 666 1001 516 
Q 1172 366 1500 366 
Q 1825 366 2078 508 
Q 2331 650 2450 897 
Q 2541 1088 2541 1459 
L 2541 1666 
z
" transform="scale(0.015625)"/>
     <path id="ArialMT-31" d="M 2384 0 
L 1822 0 
L 1822 3584 
Q 1619 3391 1289 3197 
Q 959 3003 697 2906 
L 697 3450 
Q 1169 3672 1522 3987 
Q 1875 4303 2022 4600 
L 2384 4600 
L 2384 0 
z
" transform="scale(0.015625)"/>
     <path id="ArialMT-37" d="M 303 3981 
L 303 4522 
L 3269 4522 
L 3269 4084 
Q 2831 3619 2401 2847 
Q 1972 2075 1738 1259 
Q 1569 684 1522 0 
L 944 0 
Q 953 541 1156 1306 
Q 1359 2072 1739 2783 
Q 2119 3494 2547 3981 
L 303 3981 
z
" transform="scale(0.015625)"/>
    </defs>
    <use xlink:href="#ArialMT-49"/>
    <use xlink:href="#ArialMT-6e" transform="translate(27.783203 0)"/>
    <use xlink:href="#ArialMT-64" transform="translate(83.398438 0)"/>
    <use xlink:href="#ArialMT-69" transform="translate(139.013672 0)"/>
    <use xlink:href="#ArialMT-76" transform="translate(161.230469 0)"/>
    <use xlink:href="#ArialMT-69" transform="translate(211.230469 0)"/>
    <use xlink:href="#ArialMT-64" transform="translate(233.447266 0)"/>
    <use xlink:href="#ArialMT-75" transform="translate(289.0625 0)"/>
    <use xlink:href="#ArialMT-61" transform="translate(344.677734 0)"/>
    <use xlink:href="#ArialMT-6c" transform="translate(400.292969 0)"/>
    <use xlink:href="#ArialMT-20" transform="translate(422.509766 0)"/>
    <use xlink:href="#ArialMT-31" transform="translate(450.292969 0)"/>
    <use xlink:href="#ArialMT-30" transform="translate(505.908203 0)"/>
    <use xlink:href="#ArialMT-37" transform="translate(561.523438 0)"/>
   </g>
  </g>
 </g>
 <defs>
  <clipPath id="pe1c0c22506">
   <rect x="180" y="43.2" width="227.755102" height="277.2"/>
  </clipPath>
  <clipPath id="p8abe14c791">
   <rect x="476.081633" y="43.2" width="227.755102" height="277.2"/>
  </clipPath>
 </defs>
</svg>
