<?xml version="1.0" encoding="utf-8" standalone="no"?>
<!DOCTYPE svg PUBLIC "-//W3C//DTD SVG 1.1//EN"
  "http://www.w3.org/Graphics/SVG/1.1/DTD/svg11.dtd">
<svg xmlns:xlink="http://www.w3.org/1999/xlink" width="1440pt" height="360pt" viewBox="0 0 1440 360" xmlns="http://www.w3.org/2000/svg" version="1.1">
 <metadata>
  <rdf:RDF xmlns:dc="http://purl.org/dc/elements/1.1/" xmlns:cc="http://creativecommons.org/ns#" xmlns:rdf="http://www.w3.org/1999/02/22-rdf-syntax-ns#">
   <cc:Work>
    <dc:type rdf:resource="http://purl.org/dc/dcmitype/StillImage"/>
    <dc:date>2025-02-05T15:28:46.769619</dc:date>
    <dc:format>image/svg+xml</dc:format>
    <dc:creator>
     <cc:Agent>
      <dc:title>Matplotlib v3.10.0, https://matplotlib.org/</dc:title>
     </cc:Agent>
    </dc:creator>
   </cc:Work>
  </rdf:RDF>
 </metadata>
 <defs>
  <style type="text/css">*{stroke-linejoin: round; stroke-linecap: butt}</style>
 </defs>
 <g id="figure_1">
  <g id="patch_1">
   <path d="M 0 360 
L 1440 360 
L 1440 0 
L 0 0 
L 0 360 
z
" style="fill: none"/>
  </g>
  <g id="axes_1">
   <g id="patch_2">
    <path d="M 180 320.4 
L 407.755102 320.4 
L 407.755102 43.2 
L 180 43.2 
L 180 320.4 
z
" style="fill: none"/>
   </g>
   <g id="matplotlib.axis_1">
    <g id="xtick_1">
     <g id="text_1">
      <!-- 0 -->
      <g style="fill: #262626" transform="translate(178.023617 352.232375) scale(0.312 -0.312)">
       <defs>
        <path id="ArialMT-30" d="M 266 2259 
Q 266 3072 433 3567 
Q 600 4063 929 4331 
Q 1259 4600 1759 4600 
Q 2128 4600 2406 4451 
Q 2684 4303 2865 4023 
Q 3047 3744 3150 3342 
Q 3253 2941 3253 2259 
Q 3253 1453 3087 958 
Q 2922 463 2592 192 
Q 2263 -78 1759 -78 
Q 1097 -78 719 397 
Q 266 969 266 2259 
z
M 844 2259 
Q 844 1131 1108 757 
Q 1372 384 1759 384 
Q 2147 384 2411 759 
Q 2675 1134 2675 2259 
Q 2675 3391 2411 3762 
Q 2147 4134 1753 4134 
Q 1366 4134 1134 3806 
Q 844 3388 844 2259 
z
" transform="scale(0.015625)"/>
       </defs>
       <use xlink:href="#ArialMT-30"/>
      </g>
     </g>
    </g>
    <g id="xtick_2">
     <g id="text_2">
      <!-- 2 -->
      <g style="fill: #262626" transform="translate(231.613053 352.232375) scale(0.312 -0.312)">
       <defs>
        <path id="ArialMT-32" d="M 3222 541 
L 3222 0 
L 194 0 
Q 188 203 259 391 
Q 375 700 629 1000 
Q 884 1300 1366 1694 
Q 2113 2306 2375 2664 
Q 2638 3022 2638 3341 
Q 2638 3675 2398 3904 
Q 2159 4134 1775 4134 
Q 1369 4134 1125 3890 
Q 881 3647 878 3216 
L 300 3275 
Q 359 3922 746 4261 
Q 1134 4600 1788 4600 
Q 2447 4600 2831 4234 
Q 3216 3869 3216 3328 
Q 3216 3053 3103 2787 
Q 2991 2522 2730 2228 
Q 2469 1934 1863 1422 
Q 1356 997 1212 845 
Q 1069 694 975 541 
L 3222 541 
z
" transform="scale(0.015625)"/>
       </defs>
       <use xlink:href="#ArialMT-32"/>
      </g>
     </g>
    </g>
    <g id="xtick_3">
     <g id="text_3">
      <!-- 4 -->
      <g style="fill: #262626" transform="translate(285.202489 352.232375) scale(0.312 -0.312)">
       <defs>
        <path id="ArialMT-34" d="M 2069 0 
L 2069 1097 
L 81 1097 
L 81 1613 
L 2172 4581 
L 2631 4581 
L 2631 1613 
L 3250 1613 
L 3250 1097 
L 2631 1097 
L 2631 0 
L 2069 0 
z
M 2069 1613 
L 2069 3678 
L 634 1613 
L 2069 1613 
z
" transform="scale(0.015625)"/>
       </defs>
       <use xlink:href="#ArialMT-34"/>
      </g>
     </g>
    </g>
    <g id="xtick_4">
     <g id="text_4">
      <!-- 6 -->
      <g style="fill: #262626" transform="translate(338.791924 352.232375) scale(0.312 -0.312)">
       <defs>
        <path id="ArialMT-36" d="M 3184 3459 
L 2625 3416 
Q 2550 3747 2413 3897 
Q 2184 4138 1850 4138 
Q 1581 4138 1378 3988 
Q 1113 3794 959 3422 
Q 806 3050 800 2363 
Q 1003 2672 1297 2822 
Q 1591 2972 1913 2972 
Q 2475 2972 2870 2558 
Q 3266 2144 3266 1488 
Q 3266 1056 3080 686 
Q 2894 316 2569 119 
Q 2244 -78 1831 -78 
Q 1128 -78 684 439 
Q 241 956 241 2144 
Q 241 3472 731 4075 
Q 1159 4600 1884 4600 
Q 2425 4600 2770 4297 
Q 3116 3994 3184 3459 
z
M 888 1484 
Q 888 1194 1011 928 
Q 1134 663 1356 523 
Q 1578 384 1822 384 
Q 2178 384 2434 671 
Q 2691 959 2691 1453 
Q 2691 1928 2437 2201 
Q 2184 2475 1800 2475 
Q 1419 2475 1153 2201 
Q 888 1928 888 1484 
z
" transform="scale(0.015625)"/>
       </defs>
       <use xlink:href="#ArialMT-36"/>
      </g>
     </g>
    </g>
    <g id="xtick_5">
     <g id="text_5">
      <!-- 8 -->
      <g style="fill: #262626" transform="translate(392.38136 352.232375) scale(0.312 -0.312)">
       <defs>
        <path id="ArialMT-38" d="M 1131 2484 
Q 781 2613 612 2850 
Q 444 3088 444 3419 
Q 444 3919 803 4259 
Q 1163 4600 1759 4600 
Q 2359 4600 2725 4251 
Q 3091 3903 3091 3403 
Q 3091 3084 2923 2848 
Q 2756 2613 2416 2484 
Q 2838 2347 3058 2040 
Q 3278 1734 3278 1309 
Q 3278 722 2862 322 
Q 2447 -78 1769 -78 
Q 1091 -78 675 323 
Q 259 725 259 1325 
Q 259 1772 486 2073 
Q 713 2375 1131 2484 
z
M 1019 3438 
Q 1019 3113 1228 2906 
Q 1438 2700 1772 2700 
Q 2097 2700 2305 2904 
Q 2513 3109 2513 3406 
Q 2513 3716 2298 3927 
Q 2084 4138 1766 4138 
Q 1444 4138 1231 3931 
Q 1019 3725 1019 3438 
z
M 838 1322 
Q 838 1081 952 856 
Q 1066 631 1291 507 
Q 1516 384 1775 384 
Q 2178 384 2440 643 
Q 2703 903 2703 1303 
Q 2703 1709 2433 1975 
Q 2163 2241 1756 2241 
Q 1359 2241 1098 1978 
Q 838 1716 838 1322 
z
" transform="scale(0.015625)"/>
       </defs>
       <use xlink:href="#ArialMT-38"/>
      </g>
     </g>
    </g>
    <g id="text_6">
     <!-- Time (d) -->
     <g style="fill: #262626" transform="translate(241.190989 383.253281) scale(0.286 -0.286)">
      <defs>
       <path id="ArialMT-54" d="M 1659 0 
L 1659 4041 
L 150 4041 
L 150 4581 
L 3781 4581 
L 3781 4041 
L 2266 4041 
L 2266 0 
L 1659 0 
z
" transform="scale(0.015625)"/>
       <path id="ArialMT-69" d="M 425 3934 
L 425 4581 
L 988 4581 
L 988 3934 
L 425 3934 
z
M 425 0 
L 425 3319 
L 988 3319 
L 988 0 
L 425 0 
z
" transform="scale(0.015625)"/>
       <path id="ArialMT-6d" d="M 422 0 
L 422 3319 
L 925 3319 
L 925 2853 
Q 1081 3097 1340 3245 
Q 1600 3394 1931 3394 
Q 2300 3394 2536 3241 
Q 2772 3088 2869 2813 
Q 3263 3394 3894 3394 
Q 4388 3394 4653 3120 
Q 4919 2847 4919 2278 
L 4919 0 
L 4359 0 
L 4359 2091 
Q 4359 2428 4304 2576 
Q 4250 2725 4106 2815 
Q 3963 2906 3769 2906 
Q 3419 2906 3187 2673 
Q 2956 2441 2956 1928 
L 2956 0 
L 2394 0 
L 2394 2156 
Q 2394 2531 2256 2718 
Q 2119 2906 1806 2906 
Q 1569 2906 1367 2781 
Q 1166 2656 1075 2415 
Q 984 2175 984 1722 
L 984 0 
L 422 0 
z
" transform="scale(0.015625)"/>
       <path id="ArialMT-65" d="M 2694 1069 
L 3275 997 
Q 3138 488 2766 206 
Q 2394 -75 1816 -75 
Q 1088 -75 661 373 
Q 234 822 234 1631 
Q 234 2469 665 2931 
Q 1097 3394 1784 3394 
Q 2450 3394 2872 2941 
Q 3294 2488 3294 1666 
Q 3294 1616 3291 1516 
L 816 1516 
Q 847 969 1125 678 
Q 1403 388 1819 388 
Q 2128 388 2347 550 
Q 2566 713 2694 1069 
z
M 847 1978 
L 2700 1978 
Q 2663 2397 2488 2606 
Q 2219 2931 1791 2931 
Q 1403 2931 1139 2672 
Q 875 2413 847 1978 
z
" transform="scale(0.015625)"/>
       <path id="ArialMT-20" transform="scale(0.015625)"/>
       <path id="ArialMT-28" d="M 1497 -1347 
Q 1031 -759 709 28 
Q 388 816 388 1659 
Q 388 2403 628 3084 
Q 909 3875 1497 4659 
L 1900 4659 
Q 1522 4009 1400 3731 
Q 1209 3300 1100 2831 
Q 966 2247 966 1656 
Q 966 153 1900 -1347 
L 1497 -1347 
z
" transform="scale(0.015625)"/>
       <path id="ArialMT-64" d="M 2575 0 
L 2575 419 
Q 2259 -75 1647 -75 
Q 1250 -75 917 144 
Q 584 363 401 755 
Q 219 1147 219 1656 
Q 219 2153 384 2558 
Q 550 2963 881 3178 
Q 1213 3394 1622 3394 
Q 1922 3394 2156 3267 
Q 2391 3141 2538 2938 
L 2538 4581 
L 3097 4581 
L 3097 0 
L 2575 0 
z
M 797 1656 
Q 797 1019 1065 703 
Q 1334 388 1700 388 
Q 2069 388 2326 689 
Q 2584 991 2584 1609 
Q 2584 2291 2321 2609 
Q 2059 2928 1675 2928 
Q 1300 2928 1048 2622 
Q 797 2316 797 1656 
z
" transform="scale(0.015625)"/>
       <path id="ArialMT-29" d="M 791 -1347 
L 388 -1347 
Q 1322 153 1322 1656 
Q 1322 2244 1188 2822 
Q 1081 3291 891 3722 
Q 769 4003 388 4659 
L 791 4659 
Q 1378 3875 1659 3084 
Q 1900 2403 1900 1659 
Q 1900 816 1576 28 
Q 1253 -759 791 -1347 
z
" transform="scale(0.015625)"/>
      </defs>
      <use xlink:href="#ArialMT-54"/>
      <use xlink:href="#ArialMT-69" transform="translate(57.333984 0)"/>
      <use xlink:href="#ArialMT-6d" transform="translate(79.550781 0)"/>
      <use xlink:href="#ArialMT-65" transform="translate(162.851562 0)"/>
      <use xlink:href="#ArialMT-20" transform="translate(218.466797 0)"/>
      <use xlink:href="#ArialMT-28" transform="translate(246.25 0)"/>
      <use xlink:href="#ArialMT-64" transform="translate(279.550781 0)"/>
      <use xlink:href="#ArialMT-29" transform="translate(335.166016 0)"/>
     </g>
    </g>
   </g>
   <g id="matplotlib.axis_2">
    <g id="ytick_1">
     <g id="text_7">
      <!-- 0 -->
      <g style="fill: #262626" transform="translate(153.149875 331.566188) scale(0.312 -0.312)">
       <use xlink:href="#ArialMT-30"/>
      </g>
     </g>
    </g>
    <g id="ytick_2">
     <g id="text_8">
      <!-- 2 -->
      <g style="fill: #262626" transform="translate(153.149875 262.266188) scale(0.312 -0.312)">
       <use xlink:href="#ArialMT-32"/>
      </g>
     </g>
    </g>
    <g id="ytick_3">
     <g id="text_9">
      <!-- 4 -->
      <g style="fill: #262626" transform="translate(153.149875 192.966187) scale(0.312 -0.312)">
       <use xlink:href="#ArialMT-34"/>
      </g>
     </g>
    </g>
    <g id="ytick_4">
     <g id="text_10">
      <!-- 6 -->
      <g style="fill: #262626" transform="translate(153.149875 123.666187) scale(0.312 -0.312)">
       <use xlink:href="#ArialMT-36"/>
      </g>
     </g>
    </g>
    <g id="ytick_5">
     <g id="text_11">
      <!-- 8 -->
      <g style="fill: #262626" transform="translate(153.149875 54.366187) scale(0.312 -0.312)">
       <use xlink:href="#ArialMT-38"/>
      </g>
     </g>
    </g>
    <g id="text_12">
     <!-- Log$_{10}$ Virus (copies/mL) -->
     <g style="fill: #262626" transform="translate(142.857875 334.238) rotate(-90) scale(0.286 -0.286)">
      <defs>
       <path id="ArialMT-4c" d="M 469 0 
L 469 4581 
L 1075 4581 
L 1075 541 
L 3331 541 
L 3331 0 
L 469 0 
z
" transform="scale(0.015625)"/>
       <path id="ArialMT-6f" d="M 213 1659 
Q 213 2581 725 3025 
Q 1153 3394 1769 3394 
Q 2453 3394 2887 2945 
Q 3322 2497 3322 1706 
Q 3322 1066 3130 698 
Q 2938 331 2570 128 
Q 2203 -75 1769 -75 
Q 1072 -75 642 372 
Q 213 819 213 1659 
z
M 791 1659 
Q 791 1022 1069 705 
Q 1347 388 1769 388 
Q 2188 388 2466 706 
Q 2744 1025 2744 1678 
Q 2744 2294 2464 2611 
Q 2184 2928 1769 2928 
Q 1347 2928 1069 2612 
Q 791 2297 791 1659 
z
" transform="scale(0.015625)"/>
       <path id="ArialMT-67" d="M 319 -275 
L 866 -356 
Q 900 -609 1056 -725 
Q 1266 -881 1628 -881 
Q 2019 -881 2231 -725 
Q 2444 -569 2519 -288 
Q 2563 -116 2559 434 
Q 2191 0 1641 0 
Q 956 0 581 494 
Q 206 988 206 1678 
Q 206 2153 378 2554 
Q 550 2956 876 3175 
Q 1203 3394 1644 3394 
Q 2231 3394 2613 2919 
L 2613 3319 
L 3131 3319 
L 3131 450 
Q 3131 -325 2973 -648 
Q 2816 -972 2473 -1159 
Q 2131 -1347 1631 -1347 
Q 1038 -1347 672 -1080 
Q 306 -813 319 -275 
z
M 784 1719 
Q 784 1066 1043 766 
Q 1303 466 1694 466 
Q 2081 466 2343 764 
Q 2606 1063 2606 1700 
Q 2606 2309 2336 2618 
Q 2066 2928 1684 2928 
Q 1309 2928 1046 2623 
Q 784 2319 784 1719 
z
" transform="scale(0.015625)"/>
       <path id="DejaVuSans-31" d="M 794 531 
L 1825 531 
L 1825 4091 
L 703 3866 
L 703 4441 
L 1819 4666 
L 2450 4666 
L 2450 531 
L 3481 531 
L 3481 0 
L 794 0 
L 794 531 
z
" transform="scale(0.015625)"/>
       <path id="DejaVuSans-30" d="M 2034 4250 
Q 1547 4250 1301 3770 
Q 1056 3291 1056 2328 
Q 1056 1369 1301 889 
Q 1547 409 2034 409 
Q 2525 409 2770 889 
Q 3016 1369 3016 2328 
Q 3016 3291 2770 3770 
Q 2525 4250 2034 4250 
z
M 2034 4750 
Q 2819 4750 3233 4129 
Q 3647 3509 3647 2328 
Q 3647 1150 3233 529 
Q 2819 -91 2034 -91 
Q 1250 -91 836 529 
Q 422 1150 422 2328 
Q 422 3509 836 4129 
Q 1250 4750 2034 4750 
z
" transform="scale(0.015625)"/>
       <path id="ArialMT-56" d="M 1803 0 
L 28 4581 
L 684 4581 
L 1875 1253 
Q 2019 853 2116 503 
Q 2222 878 2363 1253 
L 3600 4581 
L 4219 4581 
L 2425 0 
L 1803 0 
z
" transform="scale(0.015625)"/>
       <path id="ArialMT-72" d="M 416 0 
L 416 3319 
L 922 3319 
L 922 2816 
Q 1116 3169 1280 3281 
Q 1444 3394 1641 3394 
Q 1925 3394 2219 3213 
L 2025 2691 
Q 1819 2813 1613 2813 
Q 1428 2813 1281 2702 
Q 1134 2591 1072 2394 
Q 978 2094 978 1738 
L 978 0 
L 416 0 
z
" transform="scale(0.015625)"/>
       <path id="ArialMT-75" d="M 2597 0 
L 2597 488 
Q 2209 -75 1544 -75 
Q 1250 -75 995 37 
Q 741 150 617 320 
Q 494 491 444 738 
Q 409 903 409 1263 
L 409 3319 
L 972 3319 
L 972 1478 
Q 972 1038 1006 884 
Q 1059 663 1231 536 
Q 1403 409 1656 409 
Q 1909 409 2131 539 
Q 2353 669 2445 892 
Q 2538 1116 2538 1541 
L 2538 3319 
L 3100 3319 
L 3100 0 
L 2597 0 
z
" transform="scale(0.015625)"/>
       <path id="ArialMT-73" d="M 197 991 
L 753 1078 
Q 800 744 1014 566 
Q 1228 388 1613 388 
Q 2000 388 2187 545 
Q 2375 703 2375 916 
Q 2375 1106 2209 1216 
Q 2094 1291 1634 1406 
Q 1016 1563 777 1677 
Q 538 1791 414 1992 
Q 291 2194 291 2438 
Q 291 2659 392 2848 
Q 494 3038 669 3163 
Q 800 3259 1026 3326 
Q 1253 3394 1513 3394 
Q 1903 3394 2198 3281 
Q 2494 3169 2634 2976 
Q 2775 2784 2828 2463 
L 2278 2388 
Q 2241 2644 2061 2787 
Q 1881 2931 1553 2931 
Q 1166 2931 1000 2803 
Q 834 2675 834 2503 
Q 834 2394 903 2306 
Q 972 2216 1119 2156 
Q 1203 2125 1616 2013 
Q 2213 1853 2448 1751 
Q 2684 1650 2818 1456 
Q 2953 1263 2953 975 
Q 2953 694 2789 445 
Q 2625 197 2315 61 
Q 2006 -75 1616 -75 
Q 969 -75 630 194 
Q 291 463 197 991 
z
" transform="scale(0.015625)"/>
       <path id="ArialMT-63" d="M 2588 1216 
L 3141 1144 
Q 3050 572 2676 248 
Q 2303 -75 1759 -75 
Q 1078 -75 664 370 
Q 250 816 250 1647 
Q 250 2184 428 2587 
Q 606 2991 970 3192 
Q 1334 3394 1763 3394 
Q 2303 3394 2647 3120 
Q 2991 2847 3088 2344 
L 2541 2259 
Q 2463 2594 2264 2762 
Q 2066 2931 1784 2931 
Q 1359 2931 1093 2626 
Q 828 2322 828 1663 
Q 828 994 1084 691 
Q 1341 388 1753 388 
Q 2084 388 2306 591 
Q 2528 794 2588 1216 
z
" transform="scale(0.015625)"/>
       <path id="ArialMT-70" d="M 422 -1272 
L 422 3319 
L 934 3319 
L 934 2888 
Q 1116 3141 1344 3267 
Q 1572 3394 1897 3394 
Q 2322 3394 2647 3175 
Q 2972 2956 3137 2557 
Q 3303 2159 3303 1684 
Q 3303 1175 3120 767 
Q 2938 359 2589 142 
Q 2241 -75 1856 -75 
Q 1575 -75 1351 44 
Q 1128 163 984 344 
L 984 -1272 
L 422 -1272 
z
M 931 1641 
Q 931 1000 1190 694 
Q 1450 388 1819 388 
Q 2194 388 2461 705 
Q 2728 1022 2728 1688 
Q 2728 2322 2467 2637 
Q 2206 2953 1844 2953 
Q 1484 2953 1207 2617 
Q 931 2281 931 1641 
z
" transform="scale(0.015625)"/>
       <path id="ArialMT-2f" d="M 0 -78 
L 1328 4659 
L 1778 4659 
L 453 -78 
L 0 -78 
z
" transform="scale(0.015625)"/>
      </defs>
      <use xlink:href="#ArialMT-4c" transform="translate(0 0.203125)"/>
      <use xlink:href="#ArialMT-6f" transform="translate(55.615234 0.203125)"/>
      <use xlink:href="#ArialMT-67" transform="translate(111.230469 0.203125)"/>
      <use xlink:href="#DejaVuSans-31" transform="translate(167.802734 -16.203125) scale(0.7)"/>
      <use xlink:href="#DejaVuSans-30" transform="translate(212.338867 -16.203125) scale(0.7)"/>
      <use xlink:href="#ArialMT-20" transform="translate(259.609375 0.203125)"/>
      <use xlink:href="#ArialMT-56" transform="translate(287.392578 0.203125)"/>
      <use xlink:href="#ArialMT-69" transform="translate(354.091797 0.203125)"/>
      <use xlink:href="#ArialMT-72" transform="translate(376.308594 0.203125)"/>
      <use xlink:href="#ArialMT-75" transform="translate(409.609375 0.203125)"/>
      <use xlink:href="#ArialMT-73" transform="translate(465.224609 0.203125)"/>
      <use xlink:href="#ArialMT-20" transform="translate(515.224609 0.203125)"/>
      <use xlink:href="#ArialMT-28" transform="translate(543.007812 0.203125)"/>
      <use xlink:href="#ArialMT-63" transform="translate(576.308594 0.203125)"/>
      <use xlink:href="#ArialMT-6f" transform="translate(626.308594 0.203125)"/>
      <use xlink:href="#ArialMT-70" transform="translate(681.923828 0.203125)"/>
      <use xlink:href="#ArialMT-69" transform="translate(737.539062 0.203125)"/>
      <use xlink:href="#ArialMT-65" transform="translate(759.755859 0.203125)"/>
      <use xlink:href="#ArialMT-73" transform="translate(815.371094 0.203125)"/>
      <use xlink:href="#ArialMT-2f" transform="translate(865.371094 0.203125)"/>
      <use xlink:href="#ArialMT-6d" transform="translate(893.154297 0.203125)"/>
      <use xlink:href="#ArialMT-4c" transform="translate(976.455078 0.203125)"/>
      <use xlink:href="#ArialMT-29" transform="translate(1032.070312 0.203125)"/>
     </g>
    </g>
   </g>
   <g id="patch_3">
    <path d="M 180 320.4 
L 180 43.2 
" style="fill: none; stroke: #262626; stroke-width: 1.25; stroke-linejoin: miter; stroke-linecap: square"/>
   </g>
   <g id="patch_4">
    <path d="M 407.755102 320.4 
L 407.755102 43.2 
" style="fill: none; stroke: #262626; stroke-width: 1.25; stroke-linejoin: miter; stroke-linecap: square"/>
   </g>
   <g id="patch_5">
    <path d="M 180 320.4 
L 407.755102 320.4 
" style="fill: none; stroke: #262626; stroke-width: 1.25; stroke-linejoin: miter; stroke-linecap: square"/>
   </g>
   <g id="patch_6">
    <path d="M 180 43.2 
L 407.755102 43.2 
" style="fill: none; stroke: #262626; stroke-width: 1.25; stroke-linejoin: miter; stroke-linecap: square"/>
   </g>
   <g id="FillBetweenPolyCollection_1">
    <defs>
     <path id="mcd3977ff66" d="M 186.698679 -39.6 
L 186.698679 -39.6 
L 186.699043 -39.6 
L 186.70268 -39.6 
L 186.739046 -39.6 
L 186.854783 -39.6 
L 186.97052 -39.6 
L 187.26287 -39.6 
L 187.566554 -39.6 
L 188.254888 -39.6 
L 188.807097 -39.6 
L 189.926922 -39.6 
L 190.659585 -39.6 
L 192.125979 -44.700624 
L 192.919116 -49.358046 
L 194.250586 -57.111069 
L 195.118633 -62.164353 
L 196.501841 -70.208285 
L 197.414404 -75.486927 
L 198.776996 -83.35188 
L 199.72675 -88.83516 
L 201.235051 -97.549251 
L 202.169831 -102.939609 
L 203.468218 -110.440535 
L 204.443284 -116.059974 
L 205.862216 -124.261561 
L 206.831564 -129.841369 
L 208.151008 -137.432342 
L 209.146195 -143.132899 
L 210.572896 -151.299816 
L 211.563182 -156.914536 
L 212.911383 -164.50078 
L 213.930998 -170.140494 
L 215.397981 -178.072278 
L 216.429291 -183.428726 
L 218.028718 -191.219586 
L 219.063349 -195.796505 
L 220.512733 -201.426549 
L 221.596489 -204.947816 
L 223.196606 -208.88672 
L 224.328694 -210.928043 
L 225.917575 -212.669506 
L 227.075029 -213.282731 
L 228.602261 -213.528855 
L 229.711073 -213.390929 
L 231.14179 -212.926027 
L 232.219582 -212.395335 
L 233.581464 -211.556494 
L 234.596414 -210.834273 
L 235.685432 -209.960292 
L 236.77445 -209.017772 
L 237.863468 -208.015272 
L 238.952485 -206.960915 
L 240.802769 -205.032604 
L 242.026943 -203.697807 
L 244.049849 -201.352675 
L 245.420927 -199.697896 
L 247.470412 -197.080786 
L 249.047233 -194.963464 
L 251.326757 -191.692103 
L 253.024747 -189.060154 
L 255.42229 -184.953017 
L 257.267523 -181.299024 
L 259.946994 -174.88685 
L 262.132648 -167.677062 
L 264.81212 -149.886247 
L 266.151856 -129.03311 
L 266.259035 -121.610344 
L 266.262967 -121.279373 
L 266.302292 -117.965437 
L 266.355708 -113.43395 
L 266.430206 -107.064805 
L 266.439478 -106.272146 
L 266.448935 -105.461027 
L 266.455283 -104.915558 
L 266.466445 -103.956436 
L 266.477608 -102.997313 
L 266.500855 -100.999765 
L 266.543988 -97.293574 
L 266.636121 -89.221466 
L 266.795778 -75.165589 
L 266.955434 -61.187628 
L 267.176693 -41.671661 
L 267.397953 -39.6 
L 267.66264 -39.6 
L 267.94511 -39.6 
L 268.289134 -39.6 
L 268.823072 -39.6 
L 269.808007 -39.6 
L 271.932667 -39.6 
L 273.391162 -39.6 
L 276.070633 -39.6 
L 277.79415 -39.6 
L 280.473622 -39.6 
L 282.413453 -39.6 
L 285.092925 -39.6 
L 287.207505 -39.6 
L 289.886977 -39.6 
L 292.566449 -39.6 
L 295.24592 -39.6 
L 297.925392 -39.6 
L 300.604864 -39.6 
L 303.284336 -39.6 
L 305.963808 -39.6 
L 308.643279 -39.6 
L 311.322751 -39.6 
L 314.002223 -39.6 
L 316.681695 -39.6 
L 319.361166 -39.6 
L 322.040638 -39.6 
L 324.72011 -39.6 
L 327.399582 -39.6 
L 330.079054 -39.6 
L 332.758525 -39.6 
L 335.437997 -39.6 
L 338.117469 -39.6 
L 340.796941 -39.6 
L 343.476413 -39.6 
L 346.155884 -39.6 
L 348.835356 -39.6 
L 351.514828 -39.6 
L 354.1943 -39.6 
L 356.873772 -39.6 
L 359.553243 -39.6 
L 362.232715 -39.6 
L 364.912187 -39.6 
L 367.591659 -39.6 
L 370.27113 -39.6 
L 372.950602 -39.6 
L 375.630074 -39.6 
L 378.309546 -39.6 
L 380.989018 -39.6 
L 383.668489 -39.6 
L 386.347961 -39.6 
L 389.027433 -39.6 
L 391.706905 -39.6 
L 394.386377 -39.6 
L 397.065848 -39.6 
L 399.74532 -39.6 
L 401.056423 -39.6 
L 401.056423 -39.6 
L 401.056423 -39.6 
L 399.74532 -39.6 
L 397.065848 -39.6 
L 394.386377 -39.6 
L 391.706905 -39.6 
L 389.027433 -39.6 
L 386.347961 -39.6 
L 383.668489 -39.6 
L 380.989018 -39.6 
L 378.309546 -39.6 
L 375.630074 -39.6 
L 372.950602 -39.6 
L 370.27113 -39.6 
L 367.591659 -39.6 
L 364.912187 -39.6 
L 362.232715 -39.6 
L 359.553243 -39.6 
L 356.873772 -39.6 
L 354.1943 -39.6 
L 351.514828 -39.6 
L 348.835356 -39.6 
L 346.155884 -39.6 
L 343.476413 -39.6 
L 340.796941 -39.6 
L 338.117469 -39.6 
L 335.437997 -39.6 
L 332.758525 -39.6 
L 330.079054 -39.6 
L 327.399582 -39.6 
L 324.72011 -39.6 
L 322.040638 -39.6 
L 319.361166 -39.6 
L 316.681695 -39.6 
L 314.002223 -39.6 
L 311.322751 -39.6 
L 308.643279 -39.6 
L 305.963808 -39.6 
L 303.284336 -39.6 
L 300.604864 -39.6 
L 297.925392 -39.6 
L 295.24592 -39.6 
L 292.566449 -39.6 
L 289.886977 -39.6 
L 287.207505 -39.6 
L 285.092925 -40.989595 
L 282.413453 -45.172719 
L 280.473622 -49.219251 
L 277.79415 -54.904666 
L 276.070633 -58.71846 
L 273.391162 -64.796326 
L 271.932667 -68.256586 
L 269.808007 -73.665522 
L 268.823072 -80.817458 
L 268.289134 -92.977641 
L 267.94511 -105.233872 
L 267.66264 -115.701029 
L 267.397953 -124.1338 
L 267.176693 -130.187401 
L 266.955434 -136.458215 
L 266.795778 -140.780949 
L 266.636121 -144.253376 
L 266.543988 -146.012757 
L 266.500855 -146.708695 
L 266.477608 -147.058088 
L 266.466445 -147.225849 
L 266.455283 -147.393611 
L 266.448935 -147.489019 
L 266.439478 -147.63115 
L 266.430206 -147.770494 
L 266.355708 -148.890138 
L 266.302292 -149.692934 
L 266.262967 -150.283955 
L 266.259035 -150.343057 
L 266.151856 -151.681309 
L 264.81212 -163.162105 
L 262.132648 -176.039669 
L 259.946994 -182.570467 
L 257.267523 -188.672745 
L 255.42229 -192.106726 
L 253.024747 -196.071077 
L 251.326757 -198.586283 
L 249.047233 -201.731338 
L 247.470412 -203.751314 
L 245.420927 -206.249923 
L 244.049849 -207.817136 
L 242.026943 -210.034128 
L 240.802769 -211.278999 
L 238.952485 -213.071056 
L 237.863468 -214.038299 
L 236.77445 -214.963179 
L 235.685432 -215.940698 
L 234.596414 -216.838915 
L 233.581464 -217.606959 
L 232.219582 -218.5243 
L 231.14179 -219.126335 
L 229.711073 -219.747843 
L 228.602261 -220.003566 
L 227.075029 -220.031495 
L 225.917575 -219.669193 
L 224.328694 -218.429563 
L 223.196606 -217.041569 
L 221.596489 -213.714843 
L 220.512733 -210.882914 
L 219.063349 -205.73208 
L 218.028718 -201.543952 
L 216.429291 -193.929893 
L 215.397981 -188.697371 
L 213.930998 -180.713393 
L 212.911383 -175.003551 
L 211.563182 -167.266759 
L 210.572896 -161.515111 
L 209.146195 -153.143177 
L 208.151008 -147.27338 
L 206.831564 -139.469775 
L 205.862216 -133.726759 
L 204.443284 -125.29578 
L 203.468218 -119.503094 
L 202.169831 -111.785786 
L 201.235051 -106.235052 
L 199.72675 -97.240318 
L 198.776996 -91.594413 
L 197.414404 -83.479247 
L 196.501841 -78.061251 
L 195.118633 -69.8164 
L 194.250586 -64.663505 
L 192.919116 -56.717346 
L 192.125979 -51.990576 
L 190.659585 -43.031138 
L 189.926922 -39.641189 
L 188.807097 -39.6 
L 188.254888 -39.6 
L 187.566554 -39.6 
L 187.26287 -39.6 
L 186.97052 -39.6 
L 186.854783 -39.6 
L 186.739046 -39.6 
L 186.70268 -39.6 
L 186.699043 -39.6 
L 186.698679 -39.6 
z
" style="stroke: #006400; stroke-opacity: 0.2"/>
    </defs>
    <g clip-path="url(#p17ed87d43a)">
     <use xlink:href="#mcd3977ff66" x="0" y="360" style="fill: #006400; fill-opacity: 0.2; stroke: #006400; stroke-opacity: 0.2"/>
    </g>
   </g>
   <g id="PathCollection_1">
    <defs>
     <path id="m8ba145ca4c" d="M 0 7.071068 
C 1.875269 7.071068 3.673985 6.326016 5 5 
C 6.326016 3.673985 7.071068 1.875269 7.071068 0 
C 7.071068 -1.875269 6.326016 -3.673985 5 -5 
C 3.673985 -6.326016 1.875269 -7.071068 0 -7.071068 
C -1.875269 -7.071068 -3.673985 -6.326016 -5 -5 
C -6.326016 -3.673985 -7.071068 -1.875269 -7.071068 0 
C -7.071068 1.875269 -6.326016 3.673985 -5 5 
C -3.673985 6.326016 -1.875269 7.071068 0 7.071068 
z
" style="stroke: #000000; stroke-opacity: 0.8"/>
    </defs>
    <g clip-path="url(#p17ed87d43a)">
     <use xlink:href="#m8ba145ca4c" x="186.698679" y="320.4" style="fill-opacity: 0.8; stroke: #000000; stroke-opacity: 0.8"/>
     <use xlink:href="#m8ba145ca4c" x="213.493397" y="196.439909" style="fill-opacity: 0.8; stroke: #000000; stroke-opacity: 0.8"/>
     <use xlink:href="#m8ba145ca4c" x="240.288115" y="134.99343" style="fill-opacity: 0.8; stroke: #000000; stroke-opacity: 0.8"/>
     <use xlink:href="#m8ba145ca4c" x="267.082833" y="220.035367" style="fill-opacity: 0.8; stroke: #000000; stroke-opacity: 0.8"/>
     <use xlink:href="#m8ba145ca4c" x="293.877551" y="320.4" style="fill-opacity: 0.8; stroke: #000000; stroke-opacity: 0.8"/>
     <use xlink:href="#m8ba145ca4c" x="320.672269" y="320.4" style="fill-opacity: 0.8; stroke: #000000; stroke-opacity: 0.8"/>
     <use xlink:href="#m8ba145ca4c" x="347.466987" y="320.4" style="fill-opacity: 0.8; stroke: #000000; stroke-opacity: 0.8"/>
     <use xlink:href="#m8ba145ca4c" x="374.261705" y="320.4" style="fill-opacity: 0.8; stroke: #000000; stroke-opacity: 0.8"/>
    </g>
   </g>
   <g id="line2d_1">
    <path d="M 186.698679 320.4 
L 189.926922 320.4 
L 190.659585 317.956576 
L 195.118633 292.437228 
L 211.563182 199.647658 
L 215.397981 178.830929 
L 218.028718 165.755249 
L 219.063349 161.138691 
L 220.512733 155.387871 
L 221.596489 151.731971 
L 223.196606 147.479539 
L 224.328694 145.272874 
L 225.917575 143.203137 
L 227.075029 142.324784 
L 228.602261 141.79979 
L 229.711073 141.773482 
L 231.14179 142.072188 
L 232.219582 142.495706 
L 234.596414 143.87742 
L 236.77445 145.54782 
L 238.952485 147.501175 
L 242.026943 150.626644 
L 245.420927 154.492844 
L 249.047233 159.100078 
L 251.326757 162.304052 
L 253.024747 164.894522 
L 255.42229 168.960253 
L 257.267523 172.545031 
L 259.946994 178.899278 
L 262.132648 185.921231 
L 264.81212 200.938513 
L 266.151856 221.997424 
L 266.439478 236.396336 
L 267.397953 319.329324 
L 267.66264 320.4 
L 401.056423 320.4 
L 401.056423 320.4 
" clip-path="url(#p17ed87d43a)" style="fill: none; stroke: #006400; stroke-width: 3; stroke-linecap: round"/>
   </g>
  </g>
  <g id="axes_2">
   <g id="patch_7">
    <path d="M 476.081633 320.4 
L 703.836735 320.4 
L 703.836735 43.2 
L 476.081633 43.2 
L 476.081633 320.4 
z
" style="fill: none"/>
   </g>
   <g id="matplotlib.axis_3">
    <g id="xtick_6">
     <g id="text_13">
      <!-- 0 -->
      <g style="fill: #262626" transform="translate(474.10525 352.232375) scale(0.312 -0.312)">
       <use xlink:href="#ArialMT-30"/>
      </g>
     </g>
    </g>
    <g id="xtick_7">
     <g id="text_14">
      <!-- 2 -->
      <g style="fill: #262626" transform="translate(527.694685 352.232375) scale(0.312 -0.312)">
       <use xlink:href="#ArialMT-32"/>
      </g>
     </g>
    </g>
    <g id="xtick_8">
     <g id="text_15">
      <!-- 4 -->
      <g style="fill: #262626" transform="translate(581.284121 352.232375) scale(0.312 -0.312)">
       <use xlink:href="#ArialMT-34"/>
      </g>
     </g>
    </g>
    <g id="xtick_9">
     <g id="text_16">
      <!-- 6 -->
      <g style="fill: #262626" transform="translate(634.873557 352.232375) scale(0.312 -0.312)">
       <use xlink:href="#ArialMT-36"/>
      </g>
     </g>
    </g>
    <g id="xtick_10">
     <g id="text_17">
      <!-- 8 -->
      <g style="fill: #262626" transform="translate(688.462993 352.232375) scale(0.312 -0.312)">
       <use xlink:href="#ArialMT-38"/>
      </g>
     </g>
    </g>
    <g id="text_18">
     <!-- Time (d) -->
     <g style="fill: #262626" transform="translate(537.272621 383.253281) scale(0.286 -0.286)">
      <use xlink:href="#ArialMT-54"/>
      <use xlink:href="#ArialMT-69" transform="translate(57.333984 0)"/>
      <use xlink:href="#ArialMT-6d" transform="translate(79.550781 0)"/>
      <use xlink:href="#ArialMT-65" transform="translate(162.851562 0)"/>
      <use xlink:href="#ArialMT-20" transform="translate(218.466797 0)"/>
      <use xlink:href="#ArialMT-28" transform="translate(246.25 0)"/>
      <use xlink:href="#ArialMT-64" transform="translate(279.550781 0)"/>
      <use xlink:href="#ArialMT-29" transform="translate(335.166016 0)"/>
     </g>
    </g>
   </g>
   <g id="matplotlib.axis_4">
    <g id="ytick_6">
     <g id="text_19">
      <!-- 4 -->
      <g style="fill: #262626" transform="translate(449.231508 269.966187) scale(0.312 -0.312)">
       <use xlink:href="#ArialMT-34"/>
      </g>
     </g>
    </g>
    <g id="ytick_7">
     <g id="text_20">
      <!-- 6 -->
      <g style="fill: #262626" transform="translate(449.231508 146.766188) scale(0.312 -0.312)">
       <use xlink:href="#ArialMT-36"/>
      </g>
     </g>
    </g>
    <g id="text_21">
     <!-- Log$_{10}$ CD8$^+$ T cells -->
     <g style="fill: #262626" transform="translate(438.939508 309.642) rotate(-90) scale(0.286 -0.286)">
      <defs>
       <path id="ArialMT-43" d="M 3763 1606 
L 4369 1453 
Q 4178 706 3683 314 
Q 3188 -78 2472 -78 
Q 1731 -78 1267 223 
Q 803 525 561 1097 
Q 319 1669 319 2325 
Q 319 3041 592 3573 
Q 866 4106 1370 4382 
Q 1875 4659 2481 4659 
Q 3169 4659 3637 4309 
Q 4106 3959 4291 3325 
L 3694 3184 
Q 3534 3684 3231 3912 
Q 2928 4141 2469 4141 
Q 1941 4141 1586 3887 
Q 1231 3634 1087 3207 
Q 944 2781 944 2328 
Q 944 1744 1114 1308 
Q 1284 872 1643 656 
Q 2003 441 2422 441 
Q 2931 441 3284 734 
Q 3638 1028 3763 1606 
z
" transform="scale(0.015625)"/>
       <path id="ArialMT-44" d="M 494 0 
L 494 4581 
L 2072 4581 
Q 2606 4581 2888 4516 
Q 3281 4425 3559 4188 
Q 3922 3881 4101 3404 
Q 4281 2928 4281 2316 
Q 4281 1794 4159 1391 
Q 4038 988 3847 723 
Q 3656 459 3429 307 
Q 3203 156 2883 78 
Q 2563 0 2147 0 
L 494 0 
z
M 1100 541 
L 2078 541 
Q 2531 541 2789 625 
Q 3047 709 3200 863 
Q 3416 1078 3536 1442 
Q 3656 1806 3656 2325 
Q 3656 3044 3420 3430 
Q 3184 3816 2847 3947 
Q 2603 4041 2063 4041 
L 1100 4041 
L 1100 541 
z
" transform="scale(0.015625)"/>
       <path id="DejaVuSans-2b" d="M 2944 4013 
L 2944 2272 
L 4684 2272 
L 4684 1741 
L 2944 1741 
L 2944 0 
L 2419 0 
L 2419 1741 
L 678 1741 
L 678 2272 
L 2419 2272 
L 2419 4013 
L 2944 4013 
z
" transform="scale(0.015625)"/>
       <path id="ArialMT-6c" d="M 409 0 
L 409 4581 
L 972 4581 
L 972 0 
L 409 0 
z
" transform="scale(0.015625)"/>
      </defs>
      <use xlink:href="#ArialMT-4c" transform="translate(0 0.826562)"/>
      <use xlink:href="#ArialMT-6f" transform="translate(55.615234 0.826562)"/>
      <use xlink:href="#ArialMT-67" transform="translate(111.230469 0.826562)"/>
      <use xlink:href="#DejaVuSans-31" transform="translate(167.802734 -15.579688) scale(0.7)"/>
      <use xlink:href="#DejaVuSans-30" transform="translate(212.338867 -15.579688) scale(0.7)"/>
      <use xlink:href="#ArialMT-20" transform="translate(259.609375 0.826562)"/>
      <use xlink:href="#ArialMT-43" transform="translate(287.392578 0.826562)"/>
      <use xlink:href="#ArialMT-44" transform="translate(359.609375 0.826562)"/>
      <use xlink:href="#ArialMT-38" transform="translate(431.826172 0.826562)"/>
      <use xlink:href="#DejaVuSans-2b" transform="translate(502.036133 39.107812) scale(0.7)"/>
      <use xlink:href="#ArialMT-20" transform="translate(577.060547 0.826562)"/>
      <use xlink:href="#ArialMT-54" transform="translate(604.84375 0.826562)"/>
      <use xlink:href="#ArialMT-20" transform="translate(665.927734 0.826562)"/>
      <use xlink:href="#ArialMT-63" transform="translate(693.710938 0.826562)"/>
      <use xlink:href="#ArialMT-65" transform="translate(743.710938 0.826562)"/>
      <use xlink:href="#ArialMT-6c" transform="translate(799.326172 0.826562)"/>
      <use xlink:href="#ArialMT-6c" transform="translate(821.542969 0.826562)"/>
      <use xlink:href="#ArialMT-73" transform="translate(843.759766 0.826562)"/>
     </g>
    </g>
   </g>
   <g id="patch_8">
    <path d="M 476.081633 320.4 
L 476.081633 43.2 
" style="fill: none; stroke: #262626; stroke-width: 1.25; stroke-linejoin: miter; stroke-linecap: square"/>
   </g>
   <g id="patch_9">
    <path d="M 703.836735 320.4 
L 703.836735 43.2 
" style="fill: none; stroke: #262626; stroke-width: 1.25; stroke-linejoin: miter; stroke-linecap: square"/>
   </g>
   <g id="patch_10">
    <path d="M 476.081633 320.4 
L 703.836735 320.4 
" style="fill: none; stroke: #262626; stroke-width: 1.25; stroke-linejoin: miter; stroke-linecap: square"/>
   </g>
   <g id="patch_11">
    <path d="M 476.081633 43.2 
L 703.836735 43.2 
" style="fill: none; stroke: #262626; stroke-width: 1.25; stroke-linejoin: miter; stroke-linecap: square"/>
   </g>
   <g id="FillBetweenPolyCollection_2">
    <defs>
     <path id="mfeefb9653a" d="M 482.780312 -122.192535 
L 482.780312 -122.192535 
L 482.780676 -122.192535 
L 482.784312 -122.192535 
L 482.820678 -122.192535 
L 482.936416 -122.192535 
L 483.052153 -122.192535 
L 483.344503 -122.192535 
L 483.648187 -122.192535 
L 484.33652 -122.192535 
L 484.88873 -122.192535 
L 486.008554 -122.192535 
L 486.741218 -122.192535 
L 488.207612 -122.192535 
L 489.000749 -122.192535 
L 490.332219 -122.192535 
L 491.200265 -122.192535 
L 492.583473 -122.192535 
L 493.496036 -122.192535 
L 494.858628 -122.192537 
L 495.808382 -122.192538 
L 497.316684 -122.192545 
L 498.251464 -122.192553 
L 499.54985 -122.192574 
L 500.524917 -122.192602 
L 501.943849 -122.192677 
L 502.913197 -122.192763 
L 504.23264 -122.192956 
L 505.227827 -122.193192 
L 506.654529 -122.193748 
L 507.644814 -122.194366 
L 508.993015 -122.1957 
L 510.012631 -122.197287 
L 511.479613 -122.200984 
L 512.510923 -122.205038 
L 514.110351 -122.215675 
L 515.144982 -122.226206 
L 516.594366 -122.250812 
L 517.678121 -122.27882 
L 519.278239 -122.350137 
L 520.410327 -122.428336 
L 521.999208 -122.617839 
L 523.156662 -122.829036 
L 524.683894 -123.294123 
L 525.792706 -123.782581 
L 527.223422 -124.76914 
L 528.301214 -125.779675 
L 529.663097 -127.6222 
L 530.678046 -129.35041 
L 531.767064 -131.715995 
L 532.856082 -134.557023 
L 533.9451 -137.86889 
L 535.034118 -141.593783 
L 536.884402 -148.737022 
L 538.108576 -153.698483 
L 540.131482 -162.101147 
L 541.502559 -167.702605 
L 543.552045 -175.560669 
L 545.128866 -181.280782 
L 547.40839 -188.50834 
L 549.10638 -193.45058 
L 551.503922 -199.226532 
L 553.349155 -203.159642 
L 556.028627 -207.635837 
L 558.214281 -210.613203 
L 560.893753 -213.019926 
L 562.233489 -213.909416 
L 562.340667 -213.973972 
L 562.3446 -213.976341 
L 562.383925 -213.999379 
L 562.437341 -214.02985 
L 562.511839 -214.072347 
L 562.52111 -214.077636 
L 562.530567 -214.083031 
L 562.536916 -214.086638 
L 562.548078 -214.092846 
L 562.55924 -214.099054 
L 562.582488 -214.111983 
L 562.625621 -214.135971 
L 562.717754 -214.186491 
L 562.87741 -214.271668 
L 563.037067 -214.3546 
L 563.258326 -214.465106 
L 563.479585 -214.570164 
L 563.744273 -214.690677 
L 564.026743 -214.810854 
L 564.370767 -214.948036 
L 564.904705 -215.137819 
L 565.88964 -215.427139 
L 568.014299 -215.774674 
L 569.472794 -215.8247 
L 572.152266 -215.56843 
L 573.875783 -215.194428 
L 576.555255 -214.341119 
L 578.495086 -213.546227 
L 581.174558 -212.2574 
L 583.289138 -211.107656 
L 585.968609 -209.521137 
L 588.648081 -207.820069 
L 591.327553 -206.031625 
L 594.007025 -204.178434 
L 596.686497 -202.278426 
L 599.365968 -200.345682 
L 602.04544 -198.391184 
L 604.724912 -196.423466 
L 607.404384 -194.449158 
L 610.083856 -192.473434 
L 612.763327 -190.500371 
L 615.442799 -188.533227 
L 618.122271 -186.574661 
L 620.801743 -184.6269 
L 623.481215 -182.691867 
L 626.160686 -180.771269 
L 628.840158 -178.86667 
L 631.51963 -176.979542 
L 634.199102 -175.111298 
L 636.878573 -173.26332 
L 639.558045 -171.436977 
L 642.237517 -169.63363 
L 644.916989 -167.854647 
L 647.596461 -166.101397 
L 650.275932 -164.375253 
L 652.955404 -162.677591 
L 655.634876 -161.00978 
L 658.314348 -159.373177 
L 660.99382 -157.769122 
L 663.673291 -156.198924 
L 666.352763 -154.663854 
L 669.032235 -153.165134 
L 671.711707 -151.703922 
L 674.391179 -150.281307 
L 677.07065 -148.898293 
L 679.750122 -147.55579 
L 682.429594 -146.254603 
L 685.109066 -144.995424 
L 687.788537 -143.778821 
L 690.468009 -142.605234 
L 693.147481 -141.474968 
L 695.826953 -140.388187 
L 697.138055 -139.87101 
L 697.138055 -147.855255 
L 697.138055 -147.855255 
L 695.826953 -148.434733 
L 693.147481 -149.64175 
L 690.468009 -150.879296 
L 687.788537 -152.147367 
L 685.109066 -153.445253 
L 682.429594 -154.772193 
L 679.750122 -156.127385 
L 677.07065 -157.509991 
L 674.391179 -158.919145 
L 671.711707 -160.353954 
L 669.032235 -161.81351 
L 666.352763 -163.296891 
L 663.673291 -164.803168 
L 660.99382 -166.331409 
L 658.314348 -167.880687 
L 655.634876 -169.450077 
L 652.955404 -171.038664 
L 650.275932 -172.645546 
L 647.596461 -174.269833 
L 644.916989 -175.910648 
L 642.237517 -177.567131 
L 639.558045 -179.238431 
L 636.878573 -180.92371 
L 634.199102 -182.62213 
L 631.51963 -184.332853 
L 628.840158 -186.055022 
L 626.160686 -187.787749 
L 623.481215 -189.530089 
L 620.801743 -191.281006 
L 618.122271 -193.03933 
L 615.442799 -194.803694 
L 612.763327 -196.572445 
L 610.083856 -198.343535 
L 607.404384 -200.114366 
L 604.724912 -201.881583 
L 602.04544 -203.640816 
L 599.365968 -205.406838 
L 596.686497 -207.250915 
L 594.007025 -209.06293 
L 591.327553 -210.829645 
L 588.648081 -212.534071 
L 585.968609 -214.154623 
L 583.289138 -215.664182 
L 581.174558 -216.763179 
L 578.495086 -217.988369 
L 576.555255 -218.750145 
L 573.875783 -219.562155 
L 572.152266 -219.890546 
L 569.472794 -220.133059 
L 568.014299 -220.110191 
L 565.88964 -219.792224 
L 564.904705 -219.549043 
L 564.370767 -219.375597 
L 564.026743 -219.249388 
L 563.744273 -219.137048 
L 563.479585 -219.025772 
L 563.258326 -218.927251 
L 563.037067 -218.824275 
L 562.87741 -218.746888 
L 562.717754 -218.666884 
L 562.625621 -218.619711 
L 562.582488 -218.597389 
L 562.55924 -218.585179 
L 562.548078 -218.579252 
L 562.536916 -218.573325 
L 562.530567 -218.569955 
L 562.52111 -218.564933 
L 562.511839 -218.560011 
L 562.437341 -218.520455 
L 562.383925 -218.491509 
L 562.3446 -218.469531 
L 562.340667 -218.467334 
L 562.233489 -218.407433 
L 560.893753 -217.565063 
L 558.214281 -215.273456 
L 556.028627 -212.699772 
L 553.349155 -208.671149 
L 551.503922 -205.221376 
L 549.10638 -199.992481 
L 547.40839 -195.719279 
L 545.128866 -189.176172 
L 543.552045 -183.994896 
L 541.502559 -176.555745 
L 540.131482 -171.14157 
L 538.108576 -162.675905 
L 536.884402 -157.397735 
L 535.034118 -149.465004 
L 533.9451 -145.004503 
L 532.856082 -140.793479 
L 531.767064 -136.932801 
L 530.678046 -133.638299 
L 529.663097 -131.034216 
L 528.301214 -128.198954 
L 527.223422 -126.518209 
L 525.792706 -124.864471 
L 524.683894 -124.034145 
L 523.156662 -123.238314 
L 521.999208 -122.874806 
L 520.410327 -122.569028 
L 519.278239 -122.429433 
L 517.678121 -122.3236 
L 516.594366 -122.274958 
L 515.144982 -122.24035 
L 514.110351 -122.223382 
L 512.510923 -122.209479 
L 511.479613 -122.203302 
L 510.012631 -122.198642 
L 508.993015 -122.196438 
L 507.644814 -122.194803 
L 506.654529 -122.19399 
L 505.227827 -122.193333 
L 504.23264 -122.19303 
L 502.913197 -122.192806 
L 501.943849 -122.192699 
L 500.524917 -122.192615 
L 499.54985 -122.19258 
L 498.251464 -122.192556 
L 497.316684 -122.192546 
L 495.808382 -122.192539 
L 494.858628 -122.192537 
L 493.496036 -122.192536 
L 492.583473 -122.192535 
L 491.200265 -122.192535 
L 490.332219 -122.192535 
L 489.000749 -122.192535 
L 488.207612 -122.192535 
L 486.741218 -122.192535 
L 486.008554 -122.192535 
L 484.88873 -122.192535 
L 484.33652 -122.192535 
L 483.648187 -122.192535 
L 483.344503 -122.192535 
L 483.052153 -122.192535 
L 482.936416 -122.192535 
L 482.820678 -122.192535 
L 482.784312 -122.192535 
L 482.780676 -122.192535 
L 482.780312 -122.192535 
z
" style="stroke: #006400; stroke-opacity: 0.2"/>
    </defs>
    <g clip-path="url(#p6a8811fb7c)">
     <use xlink:href="#mfeefb9653a" x="0" y="360" style="fill: #006400; fill-opacity: 0.2; stroke: #006400; stroke-opacity: 0.2"/>
    </g>
   </g>
   <g id="FillBetweenPolyCollection_3">
    <defs>
     <path id="mab8bfaef62" d="M 482.780312 -93.375052 
L 482.780312 -93.375052 
L 482.780676 -93.375052 
L 482.784312 -93.375052 
L 482.820678 -93.375052 
L 482.936416 -93.375052 
L 483.052153 -93.375052 
L 483.344503 -93.375052 
L 483.648187 -93.375052 
L 484.33652 -93.375052 
L 484.88873 -93.375052 
L 486.008554 -93.375052 
L 486.741218 -93.375052 
L 488.207612 -93.375052 
L 489.000749 -93.375052 
L 490.332219 -93.375052 
L 491.200265 -93.375052 
L 492.583473 -93.375052 
L 493.496036 -93.375052 
L 494.858628 -93.375052 
L 495.808382 -93.375052 
L 497.316684 -93.375052 
L 498.251464 -93.375052 
L 499.54985 -93.375052 
L 500.524917 -93.375052 
L 501.943849 -93.375052 
L 502.913197 -93.375052 
L 504.23264 -93.375052 
L 505.227827 -93.375052 
L 506.654529 -93.375052 
L 507.644814 -93.375052 
L 508.993015 -93.375052 
L 510.012631 -93.375052 
L 511.479613 -93.375052 
L 512.510923 -93.375052 
L 514.110351 -93.375052 
L 515.144982 -93.375052 
L 516.594366 -93.375052 
L 517.678121 -93.375052 
L 519.278239 -93.375052 
L 520.410327 -93.375052 
L 521.999208 -93.375052 
L 523.156662 -93.375052 
L 524.683894 -93.375052 
L 525.792706 -93.375052 
L 527.223422 -93.375053 
L 528.301214 -93.375053 
L 529.663097 -93.375053 
L 530.678046 -93.375053 
L 531.767064 -93.375054 
L 532.856082 -93.375054 
L 533.9451 -93.375056 
L 535.034118 -93.375058 
L 536.884402 -93.375063 
L 538.108576 -93.375071 
L 540.131482 -93.375093 
L 541.502559 -93.375122 
L 543.552045 -93.375209 
L 545.128866 -93.375336 
L 547.40839 -93.375731 
L 549.10638 -93.376325 
L 551.503922 -93.378095 
L 553.349155 -93.380974 
L 556.028627 -93.391016 
L 558.214281 -93.4078 
L 560.893753 -93.450522 
L 562.233489 -93.481538 
L 562.340667 -93.484113 
L 562.3446 -93.484232 
L 562.383925 -93.485424 
L 562.437341 -93.487045 
L 562.511839 -93.489359 
L 562.52111 -93.489649 
L 562.530567 -93.489948 
L 562.536916 -93.490152 
L 562.548078 -93.490511 
L 562.55924 -93.490872 
L 562.582488 -93.491626 
L 562.625621 -93.493039 
L 562.717754 -93.496104 
L 562.87741 -93.501586 
L 563.037067 -93.507279 
L 563.258326 -93.515518 
L 563.479585 -93.524185 
L 563.744273 -93.535134 
L 564.026743 -93.547548 
L 564.370767 -93.563853 
L 564.904705 -93.591739 
L 565.88964 -93.652435 
L 568.014299 -93.838137 
L 569.472794 -93.997721 
L 572.152266 -94.433396 
L 573.875783 -94.77268 
L 576.555255 -95.48912 
L 578.495086 -96.092429 
L 581.174558 -97.091378 
L 583.289138 -97.964898 
L 585.968609 -99.169249 
L 588.648081 -100.437026 
L 591.327553 -101.727263 
L 594.007025 -103.007045 
L 596.686497 -104.249669 
L 599.365968 -105.436271 
L 602.04544 -106.555271 
L 604.724912 -107.600655 
L 607.404384 -108.569749 
L 610.083856 -109.210384 
L 612.763327 -109.703733 
L 615.442799 -110.156942 
L 618.122271 -110.573377 
L 620.801743 -110.956162 
L 623.481215 -111.308285 
L 626.160686 -111.63242 
L 628.840158 -111.930997 
L 631.51963 -112.206222 
L 634.199102 -112.460091 
L 636.878573 -112.694413 
L 639.558045 -112.910827 
L 642.237517 -113.110821 
L 644.916989 -113.29577 
L 647.596461 -113.466865 
L 650.275932 -113.625185 
L 652.955404 -113.771779 
L 655.634876 -113.90757 
L 658.314348 -114.033403 
L 660.99382 -114.150048 
L 663.673291 -114.258214 
L 666.352763 -114.358544 
L 669.032235 -114.451635 
L 671.711707 -114.538029 
L 674.391179 -114.618228 
L 677.07065 -114.692693 
L 679.750122 -114.761849 
L 682.429594 -114.826084 
L 685.109066 -114.885761 
L 687.788537 -114.941213 
L 690.468009 -114.992745 
L 693.147481 -115.040643 
L 695.826953 -115.085244 
L 697.138055 -115.105971 
L 697.138055 -121.159011 
L 697.138055 -121.159011 
L 695.826953 -121.135029 
L 693.147481 -121.083428 
L 690.468009 -121.027999 
L 687.788537 -120.968338 
L 685.109066 -120.904112 
L 682.429594 -120.83496 
L 679.750122 -120.76049 
L 677.07065 -120.680275 
L 674.391179 -120.593854 
L 671.711707 -120.500724 
L 669.032235 -120.400338 
L 666.352763 -120.2921 
L 663.673291 -120.17536 
L 660.99382 -120.04941 
L 658.314348 -119.913474 
L 655.634876 -119.766705 
L 652.955404 -119.608173 
L 650.275932 -119.436822 
L 647.596461 -119.251563 
L 644.916989 -119.051198 
L 642.237517 -118.83434 
L 639.558045 -118.59948 
L 636.878573 -118.344956 
L 634.199102 -118.068925 
L 631.51963 -117.769343 
L 628.840158 -117.44394 
L 626.160686 -117.090188 
L 623.481215 -116.763244 
L 620.801743 -116.438845 
L 618.122271 -116.08467 
L 615.442799 -115.697629 
L 612.763327 -115.274305 
L 610.083856 -114.810907 
L 607.404384 -114.303244 
L 604.724912 -113.746716 
L 602.04544 -113.136282 
L 599.365968 -112.466636 
L 596.686497 -111.732272 
L 594.007025 -110.927568 
L 591.327553 -110.047209 
L 588.648081 -109.086689 
L 585.968609 -108.043092 
L 583.289138 -106.916118 
L 581.174558 -105.968498 
L 578.495086 -104.704651 
L 576.555255 -103.753625 
L 573.875783 -102.397611 
L 572.152266 -101.513698 
L 569.472794 -100.147023 
L 568.014299 -99.415543 
L 565.88964 -98.392781 
L 564.904705 -97.93563 
L 564.370767 -97.696469 
L 564.026743 -97.545035 
L 563.744273 -97.422465 
L 563.479585 -97.308964 
L 563.258326 -97.215076 
L 563.037067 -97.122154 
L 562.87741 -97.05644 
L 562.717754 -96.992825 
L 562.625621 -96.956115 
L 562.582488 -96.938928 
L 562.55924 -96.929665 
L 562.548078 -96.925217 
L 562.536916 -96.92077 
L 562.530567 -96.91824 
L 562.52111 -96.914472 
L 562.511839 -96.910778 
L 562.437341 -96.881094 
L 562.383925 -96.85981 
L 562.3446 -96.844141 
L 562.340667 -96.842574 
L 562.233489 -96.799869 
L 560.893753 -96.280097 
L 558.214281 -95.401735 
L 556.028627 -94.823605 
L 553.349155 -94.274856 
L 551.503922 -93.99511 
L 549.10638 -93.73371 
L 547.40839 -93.60559 
L 545.128866 -93.499734 
L 543.552045 -93.454912 
L 541.502559 -93.416965 
L 540.131482 -93.402014 
L 538.108576 -93.38833 
L 536.884402 -93.383699 
L 535.034118 -93.379362 
L 533.9451 -93.377969 
L 532.856082 -93.376983 
L 531.767064 -93.376313 
L 530.678046 -93.375867 
L 529.663097 -93.37561 
L 528.301214 -93.375381 
L 527.223422 -93.375268 
L 525.792706 -93.375176 
L 524.683894 -93.375132 
L 523.156662 -93.375095 
L 521.999208 -93.375079 
L 520.410327 -93.375066 
L 519.278239 -93.375061 
L 517.678121 -93.375057 
L 516.594366 -93.375055 
L 515.144982 -93.375054 
L 514.110351 -93.375053 
L 512.510923 -93.375053 
L 511.479613 -93.375053 
L 510.012631 -93.375053 
L 508.993015 -93.375053 
L 507.644814 -93.375052 
L 506.654529 -93.375052 
L 505.227827 -93.375052 
L 504.23264 -93.375052 
L 502.913197 -93.375052 
L 501.943849 -93.375052 
L 500.524917 -93.375052 
L 499.54985 -93.375052 
L 498.251464 -93.375052 
L 497.316684 -93.375052 
L 495.808382 -93.375052 
L 494.858628 -93.375052 
L 493.496036 -93.375052 
L 492.583473 -93.375052 
L 491.200265 -93.375052 
L 490.332219 -93.375052 
L 489.000749 -93.375052 
L 488.207612 -93.375052 
L 486.741218 -93.375052 
L 486.008554 -93.375052 
L 484.88873 -93.375052 
L 484.33652 -93.375052 
L 483.648187 -93.375052 
L 483.344503 -93.375052 
L 483.052153 -93.375052 
L 482.936416 -93.375052 
L 482.820678 -93.375052 
L 482.784312 -93.375052 
L 482.780676 -93.375052 
L 482.780312 -93.375052 
z
" style="stroke: #006400; stroke-opacity: 0.2"/>
    </defs>
    <g clip-path="url(#p6a8811fb7c)">
     <use xlink:href="#mab8bfaef62" x="0" y="360" style="fill: #006400; fill-opacity: 0.2; stroke: #006400; stroke-opacity: 0.2"/>
    </g>
   </g>
   <g id="PathCollection_2">
    <g clip-path="url(#p6a8811fb7c)">
     <use xlink:href="#m8ba145ca4c" x="482.780312" y="237.807465" style="fill-opacity: 0.8; stroke: #000000; stroke-opacity: 0.8"/>
     <use xlink:href="#m8ba145ca4c" x="509.57503" y="192.476616" style="fill-opacity: 0.8; stroke: #000000; stroke-opacity: 0.8"/>
     <use xlink:href="#m8ba145ca4c" x="536.369748" y="180.555761" style="fill-opacity: 0.8; stroke: #000000; stroke-opacity: 0.8"/>
     <use xlink:href="#m8ba145ca4c" x="563.164466" y="167.878203" style="fill-opacity: 0.8; stroke: #000000; stroke-opacity: 0.8"/>
     <use xlink:href="#m8ba145ca4c" x="589.959184" y="176.291568" style="fill-opacity: 0.8; stroke: #000000; stroke-opacity: 0.8"/>
     <use xlink:href="#m8ba145ca4c" x="616.753902" y="172.94141" style="fill-opacity: 0.8; stroke: #000000; stroke-opacity: 0.8"/>
     <use xlink:href="#m8ba145ca4c" x="643.548619" y="177.986774" style="fill-opacity: 0.8; stroke: #000000; stroke-opacity: 0.8"/>
     <use xlink:href="#m8ba145ca4c" x="670.343337" y="189.412773" style="fill-opacity: 0.8; stroke: #000000; stroke-opacity: 0.8"/>
    </g>
   </g>
   <g id="PathCollection_3">
    <defs>
     <path id="mbd5f27ab8e" d="M -7.071068 7.071068 
L 7.071068 7.071068 
L 7.071068 -7.071068 
L -7.071068 -7.071068 
z
" style="stroke: #000000; stroke-opacity: 0.8"/>
    </defs>
    <g clip-path="url(#p6a8811fb7c)">
     <use xlink:href="#mbd5f27ab8e" x="482.780312" y="266.62198" style="fill-opacity: 0.8; stroke: #000000; stroke-opacity: 0.8"/>
     <use xlink:href="#mbd5f27ab8e" x="509.57503" y="267.783965" style="fill-opacity: 0.8; stroke: #000000; stroke-opacity: 0.8"/>
     <use xlink:href="#mbd5f27ab8e" x="536.369748" y="254.637585" style="fill-opacity: 0.8; stroke: #000000; stroke-opacity: 0.8"/>
     <use xlink:href="#mbd5f27ab8e" x="563.164466" y="260.107134" style="fill-opacity: 0.8; stroke: #000000; stroke-opacity: 0.8"/>
     <use xlink:href="#mbd5f27ab8e" x="589.959184" y="256.144146" style="fill-opacity: 0.8; stroke: #000000; stroke-opacity: 0.8"/>
     <use xlink:href="#mbd5f27ab8e" x="616.753902" y="250.882279" style="fill-opacity: 0.8; stroke: #000000; stroke-opacity: 0.8"/>
     <use xlink:href="#mbd5f27ab8e" x="643.548619" y="243.010132" style="fill-opacity: 0.8; stroke: #000000; stroke-opacity: 0.8"/>
     <use xlink:href="#mbd5f27ab8e" x="670.343337" y="238.480445" style="fill-opacity: 0.8; stroke: #000000; stroke-opacity: 0.8"/>
    </g>
   </g>
   <g id="line2d_2">
    <path d="M 482.780312 237.807465 
L 517.678121 237.713371 
L 520.410327 237.546276 
L 523.156662 237.093525 
L 524.683894 236.577777 
L 525.792706 236.005885 
L 527.223422 234.907413 
L 528.301214 233.730969 
L 529.663097 231.691457 
L 530.678046 229.712186 
L 531.767064 227.110355 
L 532.856082 224.012375 
L 533.9451 220.45297 
L 535.034118 216.500339 
L 538.108576 204.032602 
L 541.502559 190.01945 
L 543.552045 182.209309 
L 545.128866 176.696237 
L 547.40839 169.575417 
L 549.10638 164.924976 
L 551.503922 159.291582 
L 553.349155 155.647842 
L 556.028627 151.347368 
L 558.214281 148.614081 
L 560.893753 146.102653 
L 563.258326 144.55531 
L 564.904705 143.803772 
L 565.88964 143.469066 
L 568.014299 143.009642 
L 569.472794 142.882507 
L 572.152266 142.989814 
L 573.875783 143.263299 
L 576.555255 143.94901 
L 578.495086 144.614368 
L 581.174558 145.719872 
L 583.289138 146.718791 
L 588.648081 149.609731 
L 594.007025 152.837165 
L 602.04544 157.98789 
L 634.199102 178.936568 
L 644.916989 185.605645 
L 655.634876 192.01073 
L 663.673291 196.606574 
L 671.711707 200.996257 
L 679.750122 205.154872 
L 687.788537 209.058986 
L 695.826953 212.688077 
L 697.138055 213.252644 
L 697.138055 213.252644 
" clip-path="url(#p6a8811fb7c)" style="fill: none; stroke: #006400; stroke-width: 3; stroke-linecap: round"/>
   </g>
   <g id="line2d_3">
    <path d="M 482.780312 266.624948 
L 553.349155 266.546037 
L 558.214281 266.334238 
L 563.258326 265.766888 
L 565.88964 265.261026 
L 569.472794 264.298489 
L 573.875783 262.705479 
L 578.495086 260.675726 
L 591.327553 254.68712 
L 596.686497 252.519952 
L 602.04544 250.652052 
L 607.404384 249.070816 
L 612.763327 247.742126 
L 618.122271 246.627446 
L 623.481215 245.690887 
L 631.51963 244.554351 
L 639.558045 243.668827 
L 650.275932 242.776917 
L 660.99382 242.125221 
L 674.391179 241.546533 
L 690.468009 241.085446 
L 697.138055 240.946588 
L 697.138055 240.946588 
" clip-path="url(#p6a8811fb7c)" style="fill: none; stroke-dasharray: 11.1,4.8; stroke-dashoffset: 0; stroke: #006400; stroke-width: 3"/>
   </g>
  </g>
  <g id="text_22">
   <!-- Individual 311 -->
   <g style="fill: #262626" transform="translate(336.883875 29.532375) scale(0.312 -0.312)">
    <defs>
     <path id="ArialMT-49" d="M 597 0 
L 597 4581 
L 1203 4581 
L 1203 0 
L 597 0 
z
" transform="scale(0.015625)"/>
     <path id="ArialMT-6e" d="M 422 0 
L 422 3319 
L 928 3319 
L 928 2847 
Q 1294 3394 1984 3394 
Q 2284 3394 2536 3286 
Q 2788 3178 2913 3003 
Q 3038 2828 3088 2588 
Q 3119 2431 3119 2041 
L 3119 0 
L 2556 0 
L 2556 2019 
Q 2556 2363 2490 2533 
Q 2425 2703 2258 2804 
Q 2091 2906 1866 2906 
Q 1506 2906 1245 2678 
Q 984 2450 984 1813 
L 984 0 
L 422 0 
z
" transform="scale(0.015625)"/>
     <path id="ArialMT-76" d="M 1344 0 
L 81 3319 
L 675 3319 
L 1388 1331 
Q 1503 1009 1600 663 
Q 1675 925 1809 1294 
L 2547 3319 
L 3125 3319 
L 1869 0 
L 1344 0 
z
" transform="scale(0.015625)"/>
     <path id="ArialMT-61" d="M 2588 409 
Q 2275 144 1986 34 
Q 1697 -75 1366 -75 
Q 819 -75 525 192 
Q 231 459 231 875 
Q 231 1119 342 1320 
Q 453 1522 633 1644 
Q 813 1766 1038 1828 
Q 1203 1872 1538 1913 
Q 2219 1994 2541 2106 
Q 2544 2222 2544 2253 
Q 2544 2597 2384 2738 
Q 2169 2928 1744 2928 
Q 1347 2928 1158 2789 
Q 969 2650 878 2297 
L 328 2372 
Q 403 2725 575 2942 
Q 747 3159 1072 3276 
Q 1397 3394 1825 3394 
Q 2250 3394 2515 3294 
Q 2781 3194 2906 3042 
Q 3031 2891 3081 2659 
Q 3109 2516 3109 2141 
L 3109 1391 
Q 3109 606 3145 398 
Q 3181 191 3288 0 
L 2700 0 
Q 2613 175 2588 409 
z
M 2541 1666 
Q 2234 1541 1622 1453 
Q 1275 1403 1131 1340 
Q 988 1278 909 1158 
Q 831 1038 831 891 
Q 831 666 1001 516 
Q 1172 366 1500 366 
Q 1825 366 2078 508 
Q 2331 650 2450 897 
Q 2541 1088 2541 1459 
L 2541 1666 
z
" transform="scale(0.015625)"/>
     <path id="ArialMT-33" d="M 269 1209 
L 831 1284 
Q 928 806 1161 595 
Q 1394 384 1728 384 
Q 2125 384 2398 659 
Q 2672 934 2672 1341 
Q 2672 1728 2419 1979 
Q 2166 2231 1775 2231 
Q 1616 2231 1378 2169 
L 1441 2663 
Q 1497 2656 1531 2656 
Q 1891 2656 2178 2843 
Q 2466 3031 2466 3422 
Q 2466 3731 2256 3934 
Q 2047 4138 1716 4138 
Q 1388 4138 1169 3931 
Q 950 3725 888 3313 
L 325 3413 
Q 428 3978 793 4289 
Q 1159 4600 1703 4600 
Q 2078 4600 2393 4439 
Q 2709 4278 2876 4000 
Q 3044 3722 3044 3409 
Q 3044 3113 2884 2869 
Q 2725 2625 2413 2481 
Q 2819 2388 3044 2092 
Q 3269 1797 3269 1353 
Q 3269 753 2831 336 
Q 2394 -81 1725 -81 
Q 1122 -81 723 278 
Q 325 638 269 1209 
z
" transform="scale(0.015625)"/>
     <path id="ArialMT-31" d="M 2384 0 
L 1822 0 
L 1822 3584 
Q 1619 3391 1289 3197 
Q 959 3003 697 2906 
L 697 3450 
Q 1169 3672 1522 3987 
Q 1875 4303 2022 4600 
L 2384 4600 
L 2384 0 
z
" transform="scale(0.015625)"/>
    </defs>
    <use xlink:href="#ArialMT-49"/>
    <use xlink:href="#ArialMT-6e" transform="translate(27.783203 0)"/>
    <use xlink:href="#ArialMT-64" transform="translate(83.398438 0)"/>
    <use xlink:href="#ArialMT-69" transform="translate(139.013672 0)"/>
    <use xlink:href="#ArialMT-76" transform="translate(161.230469 0)"/>
    <use xlink:href="#ArialMT-69" transform="translate(211.230469 0)"/>
    <use xlink:href="#ArialMT-64" transform="translate(233.447266 0)"/>
    <use xlink:href="#ArialMT-75" transform="translate(289.0625 0)"/>
    <use xlink:href="#ArialMT-61" transform="translate(344.677734 0)"/>
    <use xlink:href="#ArialMT-6c" transform="translate(400.292969 0)"/>
    <use xlink:href="#ArialMT-20" transform="translate(422.509766 0)"/>
    <use xlink:href="#ArialMT-33" transform="translate(450.292969 0)"/>
    <use xlink:href="#ArialMT-31" transform="translate(505.908203 0)"/>
    <use xlink:href="#ArialMT-31" transform="translate(554.148438 0)"/>
   </g>
  </g>
 </g>
 <defs>
  <clipPath id="p17ed87d43a">
   <rect x="180" y="43.2" width="227.755102" height="277.2"/>
  </clipPath>
  <clipPath id="p6a8811fb7c">
   <rect x="476.081633" y="43.2" width="227.755102" height="277.2"/>
  </clipPath>
 </defs>
</svg>
