<?xml version="1.0" encoding="utf-8" standalone="no"?>
<!DOCTYPE svg PUBLIC "-//W3C//DTD SVG 1.1//EN"
  "http://www.w3.org/Graphics/SVG/1.1/DTD/svg11.dtd">
<svg xmlns:xlink="http://www.w3.org/1999/xlink" width="720pt" height="360pt" viewBox="0 0 720 360" xmlns="http://www.w3.org/2000/svg" version="1.1">
 <metadata>
  <rdf:RDF xmlns:dc="http://purl.org/dc/elements/1.1/" xmlns:cc="http://creativecommons.org/ns#" xmlns:rdf="http://www.w3.org/1999/02/22-rdf-syntax-ns#">
   <cc:Work>
    <dc:type rdf:resource="http://purl.org/dc/dcmitype/StillImage"/>
    <dc:date>2024-12-04T11:15:18.175786</dc:date>
    <dc:format>image/svg+xml</dc:format>
    <dc:creator>
     <cc:Agent>
      <dc:title>Matplotlib v3.9.2, https://matplotlib.org/</dc:title>
     </cc:Agent>
    </dc:creator>
   </cc:Work>
  </rdf:RDF>
 </metadata>
 <defs>
  <style type="text/css">*{stroke-linejoin: round; stroke-linecap: butt}</style>
 </defs>
 <g id="figure_1">
  <g id="patch_1">
   <path d="M 0 360 
L 720 360 
L 720 0 
L 0 0 
z
" style="fill: #ffffff"/>
  </g>
  <g id="axes_1">
   <g id="patch_2">
    <path d="M 90 320.4 
L 327.272727 320.4 
L 327.272727 43.2 
L 90 43.2 
z
" style="fill: #ffffff"/>
   </g>
   <g id="matplotlib.axis_1">
    <g id="xtick_1">
     <g id="text_1">
      <!-- 0 -->
      <g style="fill: #262626" transform="translate(88.889695 340.20725) scale(0.144 -0.144)">
       <defs>
        <path id="ArialMT-30" d="M 266 2259 
Q 266 3072 433 3567 
Q 600 4063 929 4331 
Q 1259 4600 1759 4600 
Q 2128 4600 2406 4451 
Q 2684 4303 2865 4023 
Q 3047 3744 3150 3342 
Q 3253 2941 3253 2259 
Q 3253 1453 3087 958 
Q 2922 463 2592 192 
Q 2263 -78 1759 -78 
Q 1097 -78 719 397 
Q 266 969 266 2259 
z
M 844 2259 
Q 844 1131 1108 757 
Q 1372 384 1759 384 
Q 2147 384 2411 759 
Q 2675 1134 2675 2259 
Q 2675 3391 2411 3762 
Q 2147 4134 1753 4134 
Q 1366 4134 1134 3806 
Q 844 3388 844 2259 
z
" transform="scale(0.015625)"/>
       </defs>
       <use xlink:href="#ArialMT-30"/>
      </g>
     </g>
    </g>
    <g id="xtick_2">
     <g id="text_2">
      <!-- 1 -->
      <g style="fill: #262626" transform="translate(117.825393 340.20725) scale(0.144 -0.144)">
       <defs>
        <path id="ArialMT-31" d="M 2384 0 
L 1822 0 
L 1822 3584 
Q 1619 3391 1289 3197 
Q 959 3003 697 2906 
L 697 3450 
Q 1169 3672 1522 3987 
Q 1875 4303 2022 4600 
L 2384 4600 
L 2384 0 
z
" transform="scale(0.015625)"/>
       </defs>
       <use xlink:href="#ArialMT-31"/>
      </g>
     </g>
    </g>
    <g id="xtick_3">
     <g id="text_3">
      <!-- 2 -->
      <g style="fill: #262626" transform="translate(146.761092 340.20725) scale(0.144 -0.144)">
       <defs>
        <path id="ArialMT-32" d="M 3222 541 
L 3222 0 
L 194 0 
Q 188 203 259 391 
Q 375 700 629 1000 
Q 884 1300 1366 1694 
Q 2113 2306 2375 2664 
Q 2638 3022 2638 3341 
Q 2638 3675 2398 3904 
Q 2159 4134 1775 4134 
Q 1369 4134 1125 3890 
Q 881 3647 878 3216 
L 300 3275 
Q 359 3922 746 4261 
Q 1134 4600 1788 4600 
Q 2447 4600 2831 4234 
Q 3216 3869 3216 3328 
Q 3216 3053 3103 2787 
Q 2991 2522 2730 2228 
Q 2469 1934 1863 1422 
Q 1356 997 1212 845 
Q 1069 694 975 541 
L 3222 541 
z
" transform="scale(0.015625)"/>
       </defs>
       <use xlink:href="#ArialMT-32"/>
      </g>
     </g>
    </g>
    <g id="xtick_4">
     <g id="text_4">
      <!-- 3 -->
      <g style="fill: #262626" transform="translate(175.69679 340.20725) scale(0.144 -0.144)">
       <defs>
        <path id="ArialMT-33" d="M 269 1209 
L 831 1284 
Q 928 806 1161 595 
Q 1394 384 1728 384 
Q 2125 384 2398 659 
Q 2672 934 2672 1341 
Q 2672 1728 2419 1979 
Q 2166 2231 1775 2231 
Q 1616 2231 1378 2169 
L 1441 2663 
Q 1497 2656 1531 2656 
Q 1891 2656 2178 2843 
Q 2466 3031 2466 3422 
Q 2466 3731 2256 3934 
Q 2047 4138 1716 4138 
Q 1388 4138 1169 3931 
Q 950 3725 888 3313 
L 325 3413 
Q 428 3978 793 4289 
Q 1159 4600 1703 4600 
Q 2078 4600 2393 4439 
Q 2709 4278 2876 4000 
Q 3044 3722 3044 3409 
Q 3044 3113 2884 2869 
Q 2725 2625 2413 2481 
Q 2819 2388 3044 2092 
Q 3269 1797 3269 1353 
Q 3269 753 2831 336 
Q 2394 -81 1725 -81 
Q 1122 -81 723 278 
Q 325 638 269 1209 
z
" transform="scale(0.015625)"/>
       </defs>
       <use xlink:href="#ArialMT-33"/>
      </g>
     </g>
    </g>
    <g id="xtick_5">
     <g id="text_5">
      <!-- 4 -->
      <g style="fill: #262626" transform="translate(204.632489 340.20725) scale(0.144 -0.144)">
       <defs>
        <path id="ArialMT-34" d="M 2069 0 
L 2069 1097 
L 81 1097 
L 81 1613 
L 2172 4581 
L 2631 4581 
L 2631 1613 
L 3250 1613 
L 3250 1097 
L 2631 1097 
L 2631 0 
L 2069 0 
z
M 2069 1613 
L 2069 3678 
L 634 1613 
L 2069 1613 
z
" transform="scale(0.015625)"/>
       </defs>
       <use xlink:href="#ArialMT-34"/>
      </g>
     </g>
    </g>
    <g id="xtick_6">
     <g id="text_6">
      <!-- 5 -->
      <g style="fill: #262626" transform="translate(233.568187 340.20725) scale(0.144 -0.144)">
       <defs>
        <path id="ArialMT-35" d="M 266 1200 
L 856 1250 
Q 922 819 1161 601 
Q 1400 384 1738 384 
Q 2144 384 2425 690 
Q 2706 997 2706 1503 
Q 2706 1984 2436 2262 
Q 2166 2541 1728 2541 
Q 1456 2541 1237 2417 
Q 1019 2294 894 2097 
L 366 2166 
L 809 4519 
L 3088 4519 
L 3088 3981 
L 1259 3981 
L 1013 2750 
Q 1425 3038 1878 3038 
Q 2478 3038 2890 2622 
Q 3303 2206 3303 1553 
Q 3303 931 2941 478 
Q 2500 -78 1738 -78 
Q 1113 -78 717 272 
Q 322 622 266 1200 
z
" transform="scale(0.015625)"/>
       </defs>
       <use xlink:href="#ArialMT-35"/>
      </g>
     </g>
    </g>
    <g id="xtick_7">
     <g id="text_7">
      <!-- 6 -->
      <g style="fill: #262626" transform="translate(262.503886 340.20725) scale(0.144 -0.144)">
       <defs>
        <path id="ArialMT-36" d="M 3184 3459 
L 2625 3416 
Q 2550 3747 2413 3897 
Q 2184 4138 1850 4138 
Q 1581 4138 1378 3988 
Q 1113 3794 959 3422 
Q 806 3050 800 2363 
Q 1003 2672 1297 2822 
Q 1591 2972 1913 2972 
Q 2475 2972 2870 2558 
Q 3266 2144 3266 1488 
Q 3266 1056 3080 686 
Q 2894 316 2569 119 
Q 2244 -78 1831 -78 
Q 1128 -78 684 439 
Q 241 956 241 2144 
Q 241 3472 731 4075 
Q 1159 4600 1884 4600 
Q 2425 4600 2770 4297 
Q 3116 3994 3184 3459 
z
M 888 1484 
Q 888 1194 1011 928 
Q 1134 663 1356 523 
Q 1578 384 1822 384 
Q 2178 384 2434 671 
Q 2691 959 2691 1453 
Q 2691 1928 2437 2201 
Q 2184 2475 1800 2475 
Q 1419 2475 1153 2201 
Q 888 1928 888 1484 
z
" transform="scale(0.015625)"/>
       </defs>
       <use xlink:href="#ArialMT-36"/>
      </g>
     </g>
    </g>
    <g id="xtick_8">
     <g id="text_8">
      <!-- 7 -->
      <g style="fill: #262626" transform="translate(291.439584 340.20725) scale(0.144 -0.144)">
       <defs>
        <path id="ArialMT-37" d="M 303 3981 
L 303 4522 
L 3269 4522 
L 3269 4084 
Q 2831 3619 2401 2847 
Q 1972 2075 1738 1259 
Q 1569 684 1522 0 
L 944 0 
Q 953 541 1156 1306 
Q 1359 2072 1739 2783 
Q 2119 3494 2547 3981 
L 303 3981 
z
" transform="scale(0.015625)"/>
       </defs>
       <use xlink:href="#ArialMT-37"/>
      </g>
     </g>
    </g>
    <g id="xtick_9">
     <g id="text_9">
      <!-- 8 -->
      <g style="fill: #262626" transform="translate(320.375282 340.20725) scale(0.144 -0.144)">
       <defs>
        <path id="ArialMT-38" d="M 1131 2484 
Q 781 2613 612 2850 
Q 444 3088 444 3419 
Q 444 3919 803 4259 
Q 1163 4600 1759 4600 
Q 2359 4600 2725 4251 
Q 3091 3903 3091 3403 
Q 3091 3084 2923 2848 
Q 2756 2613 2416 2484 
Q 2838 2347 3058 2040 
Q 3278 1734 3278 1309 
Q 3278 722 2862 322 
Q 2447 -78 1769 -78 
Q 1091 -78 675 323 
Q 259 725 259 1325 
Q 259 1772 486 2073 
Q 713 2375 1131 2484 
z
M 1019 3438 
Q 1019 3113 1228 2906 
Q 1438 2700 1772 2700 
Q 2097 2700 2305 2904 
Q 2513 3109 2513 3406 
Q 2513 3716 2298 3927 
Q 2084 4138 1766 4138 
Q 1444 4138 1231 3931 
Q 1019 3725 1019 3438 
z
M 838 1322 
Q 838 1081 952 856 
Q 1066 631 1291 507 
Q 1516 384 1775 384 
Q 2178 384 2440 643 
Q 2703 903 2703 1303 
Q 2703 1709 2433 1975 
Q 2163 2241 1756 2241 
Q 1359 2241 1098 1978 
Q 838 1716 838 1322 
z
" transform="scale(0.015625)"/>
       </defs>
       <use xlink:href="#ArialMT-38"/>
      </g>
     </g>
    </g>
    <g id="text_10">
     <!-- Time (d) -->
     <g style="fill: #262626" transform="translate(173.266364 361.04625) scale(0.192 -0.192)">
      <defs>
       <path id="ArialMT-54" d="M 1659 0 
L 1659 4041 
L 150 4041 
L 150 4581 
L 3781 4581 
L 3781 4041 
L 2266 4041 
L 2266 0 
L 1659 0 
z
" transform="scale(0.015625)"/>
       <path id="ArialMT-69" d="M 425 3934 
L 425 4581 
L 988 4581 
L 988 3934 
L 425 3934 
z
M 425 0 
L 425 3319 
L 988 3319 
L 988 0 
L 425 0 
z
" transform="scale(0.015625)"/>
       <path id="ArialMT-6d" d="M 422 0 
L 422 3319 
L 925 3319 
L 925 2853 
Q 1081 3097 1340 3245 
Q 1600 3394 1931 3394 
Q 2300 3394 2536 3241 
Q 2772 3088 2869 2813 
Q 3263 3394 3894 3394 
Q 4388 3394 4653 3120 
Q 4919 2847 4919 2278 
L 4919 0 
L 4359 0 
L 4359 2091 
Q 4359 2428 4304 2576 
Q 4250 2725 4106 2815 
Q 3963 2906 3769 2906 
Q 3419 2906 3187 2673 
Q 2956 2441 2956 1928 
L 2956 0 
L 2394 0 
L 2394 2156 
Q 2394 2531 2256 2718 
Q 2119 2906 1806 2906 
Q 1569 2906 1367 2781 
Q 1166 2656 1075 2415 
Q 984 2175 984 1722 
L 984 0 
L 422 0 
z
" transform="scale(0.015625)"/>
       <path id="ArialMT-65" d="M 2694 1069 
L 3275 997 
Q 3138 488 2766 206 
Q 2394 -75 1816 -75 
Q 1088 -75 661 373 
Q 234 822 234 1631 
Q 234 2469 665 2931 
Q 1097 3394 1784 3394 
Q 2450 3394 2872 2941 
Q 3294 2488 3294 1666 
Q 3294 1616 3291 1516 
L 816 1516 
Q 847 969 1125 678 
Q 1403 388 1819 388 
Q 2128 388 2347 550 
Q 2566 713 2694 1069 
z
M 847 1978 
L 2700 1978 
Q 2663 2397 2488 2606 
Q 2219 2931 1791 2931 
Q 1403 2931 1139 2672 
Q 875 2413 847 1978 
z
" transform="scale(0.015625)"/>
       <path id="ArialMT-20" transform="scale(0.015625)"/>
       <path id="ArialMT-28" d="M 1497 -1347 
Q 1031 -759 709 28 
Q 388 816 388 1659 
Q 388 2403 628 3084 
Q 909 3875 1497 4659 
L 1900 4659 
Q 1522 4009 1400 3731 
Q 1209 3300 1100 2831 
Q 966 2247 966 1656 
Q 966 153 1900 -1347 
L 1497 -1347 
z
" transform="scale(0.015625)"/>
       <path id="ArialMT-64" d="M 2575 0 
L 2575 419 
Q 2259 -75 1647 -75 
Q 1250 -75 917 144 
Q 584 363 401 755 
Q 219 1147 219 1656 
Q 219 2153 384 2558 
Q 550 2963 881 3178 
Q 1213 3394 1622 3394 
Q 1922 3394 2156 3267 
Q 2391 3141 2538 2938 
L 2538 4581 
L 3097 4581 
L 3097 0 
L 2575 0 
z
M 797 1656 
Q 797 1019 1065 703 
Q 1334 388 1700 388 
Q 2069 388 2326 689 
Q 2584 991 2584 1609 
Q 2584 2291 2321 2609 
Q 2059 2928 1675 2928 
Q 1300 2928 1048 2622 
Q 797 2316 797 1656 
z
" transform="scale(0.015625)"/>
       <path id="ArialMT-29" d="M 791 -1347 
L 388 -1347 
Q 1322 153 1322 1656 
Q 1322 2244 1188 2822 
Q 1081 3291 891 3722 
Q 769 4003 388 4659 
L 791 4659 
Q 1378 3875 1659 3084 
Q 1900 2403 1900 1659 
Q 1900 816 1576 28 
Q 1253 -759 791 -1347 
z
" transform="scale(0.015625)"/>
      </defs>
      <use xlink:href="#ArialMT-54"/>
      <use xlink:href="#ArialMT-69" x="57.333984"/>
      <use xlink:href="#ArialMT-6d" x="79.550781"/>
      <use xlink:href="#ArialMT-65" x="162.851562"/>
      <use xlink:href="#ArialMT-20" x="218.466797"/>
      <use xlink:href="#ArialMT-28" x="246.25"/>
      <use xlink:href="#ArialMT-64" x="279.550781"/>
      <use xlink:href="#ArialMT-29" x="335.166016"/>
     </g>
    </g>
   </g>
   <g id="matplotlib.axis_2">
    <g id="ytick_1">
     <g id="text_11">
      <!-- 0 -->
      <g style="fill: #262626" transform="translate(72.49225 325.553625) scale(0.144 -0.144)">
       <use xlink:href="#ArialMT-30"/>
      </g>
     </g>
    </g>
    <g id="ytick_2">
     <g id="text_12">
      <!-- 1 -->
      <g style="fill: #262626" transform="translate(72.49225 291.953625) scale(0.144 -0.144)">
       <use xlink:href="#ArialMT-31"/>
      </g>
     </g>
    </g>
    <g id="ytick_3">
     <g id="text_13">
      <!-- 2 -->
      <g style="fill: #262626" transform="translate(72.49225 258.353625) scale(0.144 -0.144)">
       <use xlink:href="#ArialMT-32"/>
      </g>
     </g>
    </g>
    <g id="ytick_4">
     <g id="text_14">
      <!-- 3 -->
      <g style="fill: #262626" transform="translate(72.49225 224.753625) scale(0.144 -0.144)">
       <use xlink:href="#ArialMT-33"/>
      </g>
     </g>
    </g>
    <g id="ytick_5">
     <g id="text_15">
      <!-- 4 -->
      <g style="fill: #262626" transform="translate(72.49225 191.153625) scale(0.144 -0.144)">
       <use xlink:href="#ArialMT-34"/>
      </g>
     </g>
    </g>
    <g id="ytick_6">
     <g id="text_16">
      <!-- 5 -->
      <g style="fill: #262626" transform="translate(72.49225 157.553625) scale(0.144 -0.144)">
       <use xlink:href="#ArialMT-35"/>
      </g>
     </g>
    </g>
    <g id="ytick_7">
     <g id="text_17">
      <!-- 6 -->
      <g style="fill: #262626" transform="translate(72.49225 123.953625) scale(0.144 -0.144)">
       <use xlink:href="#ArialMT-36"/>
      </g>
     </g>
    </g>
    <g id="ytick_8">
     <g id="text_18">
      <!-- 7 -->
      <g style="fill: #262626" transform="translate(72.49225 90.353625) scale(0.144 -0.144)">
       <use xlink:href="#ArialMT-37"/>
      </g>
     </g>
    </g>
    <g id="ytick_9">
     <g id="text_19">
      <!-- 8 -->
      <g style="fill: #262626" transform="translate(72.49225 56.753625) scale(0.144 -0.144)">
       <use xlink:href="#ArialMT-38"/>
      </g>
     </g>
    </g>
    <g id="text_20">
     <!-- Log10(V) -->
     <g style="fill: #262626" transform="translate(64.45125 221.289) rotate(-90) scale(0.192 -0.192)">
      <defs>
       <path id="ArialMT-4c" d="M 469 0 
L 469 4581 
L 1075 4581 
L 1075 541 
L 3331 541 
L 3331 0 
L 469 0 
z
" transform="scale(0.015625)"/>
       <path id="ArialMT-6f" d="M 213 1659 
Q 213 2581 725 3025 
Q 1153 3394 1769 3394 
Q 2453 3394 2887 2945 
Q 3322 2497 3322 1706 
Q 3322 1066 3130 698 
Q 2938 331 2570 128 
Q 2203 -75 1769 -75 
Q 1072 -75 642 372 
Q 213 819 213 1659 
z
M 791 1659 
Q 791 1022 1069 705 
Q 1347 388 1769 388 
Q 2188 388 2466 706 
Q 2744 1025 2744 1678 
Q 2744 2294 2464 2611 
Q 2184 2928 1769 2928 
Q 1347 2928 1069 2612 
Q 791 2297 791 1659 
z
" transform="scale(0.015625)"/>
       <path id="ArialMT-67" d="M 319 -275 
L 866 -356 
Q 900 -609 1056 -725 
Q 1266 -881 1628 -881 
Q 2019 -881 2231 -725 
Q 2444 -569 2519 -288 
Q 2563 -116 2559 434 
Q 2191 0 1641 0 
Q 956 0 581 494 
Q 206 988 206 1678 
Q 206 2153 378 2554 
Q 550 2956 876 3175 
Q 1203 3394 1644 3394 
Q 2231 3394 2613 2919 
L 2613 3319 
L 3131 3319 
L 3131 450 
Q 3131 -325 2973 -648 
Q 2816 -972 2473 -1159 
Q 2131 -1347 1631 -1347 
Q 1038 -1347 672 -1080 
Q 306 -813 319 -275 
z
M 784 1719 
Q 784 1066 1043 766 
Q 1303 466 1694 466 
Q 2081 466 2343 764 
Q 2606 1063 2606 1700 
Q 2606 2309 2336 2618 
Q 2066 2928 1684 2928 
Q 1309 2928 1046 2623 
Q 784 2319 784 1719 
z
" transform="scale(0.015625)"/>
       <path id="ArialMT-56" d="M 1803 0 
L 28 4581 
L 684 4581 
L 1875 1253 
Q 2019 853 2116 503 
Q 2222 878 2363 1253 
L 3600 4581 
L 4219 4581 
L 2425 0 
L 1803 0 
z
" transform="scale(0.015625)"/>
      </defs>
      <use xlink:href="#ArialMT-4c"/>
      <use xlink:href="#ArialMT-6f" x="55.615234"/>
      <use xlink:href="#ArialMT-67" x="111.230469"/>
      <use xlink:href="#ArialMT-31" x="166.845703"/>
      <use xlink:href="#ArialMT-30" x="222.460938"/>
      <use xlink:href="#ArialMT-28" x="278.076172"/>
      <use xlink:href="#ArialMT-56" x="311.376953"/>
      <use xlink:href="#ArialMT-29" x="378.076172"/>
     </g>
    </g>
   </g>
   <g id="patch_3">
    <path d="M 90 320.4 
L 90 43.2 
" style="fill: none; stroke: #262626; stroke-width: 1.25; stroke-linejoin: miter; stroke-linecap: square"/>
   </g>
   <g id="patch_4">
    <path d="M 327.272727 320.4 
L 327.272727 43.2 
" style="fill: none; stroke: #262626; stroke-width: 1.25; stroke-linejoin: miter; stroke-linecap: square"/>
   </g>
   <g id="patch_5">
    <path d="M 90 320.4 
L 327.272727 320.4 
" style="fill: none; stroke: #262626; stroke-width: 1.25; stroke-linejoin: miter; stroke-linecap: square"/>
   </g>
   <g id="patch_6">
    <path d="M 90 43.2 
L 327.272727 43.2 
" style="fill: none; stroke: #262626; stroke-width: 1.25; stroke-linejoin: miter; stroke-linecap: square"/>
   </g>
   <g id="PolyCollection_1">
    <defs>
     <path id="m31bcdbe14a" d="M 92.89357 -39.6 
L 92.89357 -39.6 
L 92.893884 -39.6 
L 92.897023 -39.6 
L 92.928418 -39.6 
L 93.042009 -39.6 
L 93.136402 -39.6 
L 93.475677 -39.6 
L 93.74118 -39.6 
L 94.414547 -39.6 
L 94.871588 -39.6 
L 95.959767 -39.6 
L 96.565543 -39.6 
L 98.052196 -39.6 
L 98.737279 -41.873733 
L 100.036632 -48.771642 
L 100.827475 -52.712092 
L 102.232316 -59.678866 
L 103.092707 -63.929318 
L 104.489867 -70.635332 
L 105.411131 -75.012632 
L 106.827133 -81.736333 
L 107.793248 -86.32149 
L 109.21089 -93.235036 
L 110.21167 -98.205764 
L 111.772097 -105.937344 
L 112.759661 -110.853678 
L 114.126574 -117.632828 
L 115.15492 -122.735762 
L 116.647299 -130.079493 
L 117.670555 -135.053481 
L 119.057755 -141.756513 
L 120.10718 -146.838898 
L 121.604335 -154.053755 
L 122.646234 -159.080538 
L 124.058043 -165.838468 
L 125.129004 -170.935038 
L 126.662057 -178.15448 
L 127.739628 -183.138595 
L 129.20783 -189.798419 
L 130.315947 -194.614168 
L 131.896575 -201.193674 
L 133.005456 -205.38953 
L 134.524707 -210.710889 
L 135.668351 -214.124119 
L 137.188915 -218.039047 
L 138.241242 -220.213102 
L 139.426882 -222.246974 
L 140.612522 -223.812408 
L 141.633339 -224.755686 
L 142.667447 -225.301961 
L 143.449833 -225.438294 
L 144.199295 -225.535561 
L 144.828502 -225.597368 
L 145.412262 -225.640379 
L 145.925172 -225.667197 
L 146.438082 -225.684363 
L 146.864519 -225.691524 
L 147.262029 -225.691753 
L 147.65954 -225.686711 
L 147.982483 -225.682616 
L 148.350925 -225.676479 
L 149.569211 -225.618366 
L 150.053472 -225.591827 
L 151.300834 -225.489625 
L 151.943268 -225.427597 
L 153.706482 -225.239939 
L 154.677734 -225.111895 
L 156.915698 -224.797957 
L 158.084522 -224.611999 
L 160.566974 -224.201234 
L 161.943559 -223.955086 
L 164.837129 -223.424821 
L 166.430267 -223.119047 
L 169.323837 -222.554593 
L 171.23534 -222.172255 
L 174.12891 -221.58697 
L 176.47362 -221.10597 
L 179.36719 -220.507286 
L 182.260759 -219.903399 
L 185.154329 -219.294845 
L 188.047899 -218.681656 
L 190.941469 -218.063449 
L 193.835039 -217.439495 
L 196.728609 -216.808771 
L 199.622178 -216.170004 
L 202.515748 -215.521708 
L 205.409318 -214.862227 
L 208.302888 -214.18977 
L 211.196458 -213.502447 
L 214.090028 -212.798309 
L 216.983598 -212.075376 
L 219.877167 -211.331674 
L 222.770737 -210.565253 
L 225.664307 -209.774211 
L 228.557877 -208.956706 
L 231.451447 -208.110969 
L 234.345017 -207.235301 
L 237.238586 -206.32807 
L 240.132156 -205.387706 
L 243.025726 -204.412682 
L 245.919296 -203.401496 
L 248.812866 -202.352643 
L 251.706436 -201.264589 
L 254.600006 -200.135729 
L 257.493575 -198.964349 
L 260.387145 -197.748575 
L 263.280715 -196.435576 
L 266.174285 -194.86835 
L 269.067855 -193.207063 
L 271.961425 -191.428484 
L 274.854994 -189.355731 
L 277.748564 -187.097988 
L 280.642134 -184.610084 
L 283.535704 -181.825904 
L 286.429274 -178.643178 
L 289.322844 -174.891155 
L 292.216414 -170.250532 
L 295.109983 -163.999108 
L 298.003553 -153.641697 
L 300.897123 -124.672685 
L 303.790693 -39.6 
L 306.684263 -39.6 
L 308.131048 -39.6 
L 308.420405 -39.6 
L 308.53621 -39.6 
L 308.672233 -39.6 
L 308.721021 -39.6 
L 308.822294 -39.6 
L 308.888382 -39.6 
L 309.004756 -39.6 
L 309.092967 -39.6 
L 309.121589 -39.6 
L 309.16061 -39.6 
L 309.237889 -39.6 
L 309.324739 -39.6 
L 309.473258 -39.6 
L 309.623159 -39.6 
L 309.91667 -39.6 
L 310.301145 -39.6 
L 311.647213 -39.6 
L 313.51621 -39.6 
L 315.723651 -39.6 
L 318.512776 -39.6 
L 321.301902 -39.6 
L 324.195472 -39.6 
L 324.379157 -39.6 
L 324.379157 -167.655344 
L 324.379157 -167.655344 
L 324.195472 -167.79544 
L 321.301902 -169.992146 
L 318.512776 -172.023911 
L 315.723651 -173.960106 
L 313.51621 -175.429236 
L 311.647213 -176.642136 
L 310.301145 -177.496524 
L 309.91667 -177.740561 
L 309.623159 -177.926861 
L 309.473258 -178.018719 
L 309.324739 -178.109537 
L 309.237889 -178.162645 
L 309.16061 -178.2099 
L 309.121589 -178.233761 
L 309.092967 -178.251263 
L 309.004756 -178.305204 
L 308.888382 -178.376365 
L 308.822294 -178.416777 
L 308.721021 -178.478704 
L 308.672233 -178.508538 
L 308.53621 -178.591715 
L 308.420405 -178.662529 
L 308.131048 -178.839468 
L 306.684263 -179.723398 
L 303.790693 -181.432213 
L 300.897123 -183.106451 
L 298.003553 -184.79321 
L 295.109983 -186.423661 
L 292.216414 -188.002725 
L 289.322844 -189.534433 
L 286.429274 -191.243384 
L 283.535704 -193.016996 
L 280.642134 -194.707406 
L 277.748564 -196.32374 
L 274.854994 -197.873288 
L 271.961425 -199.361924 
L 269.067855 -200.794413 
L 266.174285 -202.430016 
L 263.280715 -204.058531 
L 260.387145 -205.598277 
L 257.493575 -207.058201 
L 254.600006 -208.44555 
L 251.706436 -209.766294 
L 248.812866 -211.025425 
L 245.919296 -212.227195 
L 243.025726 -213.375296 
L 240.132156 -214.473 
L 237.238586 -215.523272 
L 234.345017 -216.528864 
L 231.451447 -217.492386 
L 228.557877 -218.416365 
L 225.664307 -219.303289 
L 222.770737 -220.155643 
L 219.877167 -220.975926 
L 216.983598 -221.766664 
L 214.090028 -222.530408 
L 211.196458 -223.269723 
L 208.302888 -223.987165 
L 205.409318 -224.685251 
L 202.515748 -225.366418 
L 199.622178 -226.032981 
L 196.728609 -226.687079 
L 193.835039 -227.330622 
L 190.941469 -227.965231 
L 188.047899 -228.59218 
L 185.154329 -229.21232 
L 182.260759 -229.826001 
L 179.36719 -230.432955 
L 176.47362 -231.03215 
L 174.12891 -231.511494 
L 171.23534 -232.089841 
L 169.323837 -232.465304 
L 166.430267 -233.010756 
L 164.837129 -233.303067 
L 161.943559 -233.795954 
L 160.566974 -234.017274 
L 158.084522 -234.370519 
L 156.915698 -234.520263 
L 154.677734 -234.751538 
L 153.706482 -234.824157 
L 151.943268 -234.912938 
L 151.300834 -234.930415 
L 150.053472 -234.92472 
L 149.569211 -234.908321 
L 148.350925 -234.828891 
L 147.982483 -234.794763 
L 147.65954 -234.756137 
L 147.262029 -234.702444 
L 146.864519 -234.647264 
L 146.438082 -234.566546 
L 145.925172 -234.469459 
L 145.412262 -234.336448 
L 144.828502 -234.185056 
L 144.199295 -233.962125 
L 143.449833 -233.680539 
L 142.667447 -233.373532 
L 141.633339 -232.880759 
L 140.612522 -232.244176 
L 139.426882 -231.303978 
L 138.241242 -230.113601 
L 137.188915 -229.343208 
L 135.668351 -228.128665 
L 134.524707 -226.923791 
L 133.005456 -224.615367 
L 131.896575 -222.507257 
L 130.315947 -218.354872 
L 129.20783 -214.898964 
L 127.739628 -209.232046 
L 126.662057 -204.616751 
L 125.129004 -197.292724 
L 124.058043 -191.864796 
L 122.646234 -184.393889 
L 121.604335 -178.758945 
L 120.10718 -170.498462 
L 119.057755 -164.655176 
L 117.670555 -156.882514 
L 116.647299 -151.129574 
L 115.15492 -142.704993 
L 114.126574 -136.895723 
L 112.759661 -129.168976 
L 111.772097 -123.58898 
L 110.21167 -114.738533 
L 109.21089 -109.075008 
L 107.793248 -101.043184 
L 106.827133 -95.582184 
L 105.411131 -87.557561 
L 104.489867 -82.352774 
L 103.092707 -74.433654 
L 102.232316 -69.574937 
L 100.827475 -61.606846 
L 100.036632 -57.137014 
L 98.737279 -50.105257 
L 98.052196 -46.517978 
L 96.565543 -39.69717 
L 95.959767 -39.6 
L 94.871588 -39.6 
L 94.414547 -39.6 
L 93.74118 -39.6 
L 93.475677 -39.6 
L 93.136402 -39.6 
L 93.042009 -39.6 
L 92.928418 -39.6 
L 92.897023 -39.6 
L 92.893884 -39.6 
L 92.89357 -39.6 
z
" style="stroke: #ff0000; stroke-opacity: 0.2"/>
    </defs>
    <g clip-path="url(#p64aa32e937)">
     <use xlink:href="#m31bcdbe14a" x="0" y="360" style="fill: #ff0000; fill-opacity: 0.2; stroke: #ff0000; stroke-opacity: 0.2"/>
    </g>
   </g>
   <g id="PathCollection_1">
    <defs>
     <path id="m48976c1fe8" d="M 0 4.330127 
C 1.148363 4.330127 2.249847 3.873878 3.061862 3.061862 
C 3.873878 2.249847 4.330127 1.148363 4.330127 0 
C 4.330127 -1.148363 3.873878 -2.249847 3.061862 -3.061862 
C 2.249847 -3.873878 1.148363 -4.330127 0 -4.330127 
C -1.148363 -4.330127 -2.249847 -3.873878 -3.061862 -3.061862 
C -3.873878 -2.249847 -4.330127 -1.148363 -4.330127 0 
C -4.330127 1.148363 -3.873878 2.249847 -3.061862 3.061862 
C -2.249847 3.873878 -1.148363 4.330127 0 4.330127 
z
" style="stroke: #ff0000; stroke-opacity: 0.8"/>
    </defs>
    <g clip-path="url(#p64aa32e937)">
     <use xlink:href="#m48976c1fe8" x="92.89357" y="320.4" style="fill: #ff0000; fill-opacity: 0.8; stroke: #ff0000; stroke-opacity: 0.8"/>
     <use xlink:href="#m48976c1fe8" x="121.829268" y="191.915937" style="fill: #ff0000; fill-opacity: 0.8; stroke: #ff0000; stroke-opacity: 0.8"/>
     <use xlink:href="#m48976c1fe8" x="150.764967" y="144.554018" style="fill: #ff0000; fill-opacity: 0.8; stroke: #ff0000; stroke-opacity: 0.8"/>
     <use xlink:href="#m48976c1fe8" x="179.700665" y="137.536526" style="fill: #ff0000; fill-opacity: 0.8; stroke: #ff0000; stroke-opacity: 0.8"/>
     <use xlink:href="#m48976c1fe8" x="208.636364" y="161.939482" style="fill: #ff0000; fill-opacity: 0.8; stroke: #ff0000; stroke-opacity: 0.8"/>
     <use xlink:href="#m48976c1fe8" x="237.572062" y="126.315559" style="fill: #ff0000; fill-opacity: 0.8; stroke: #ff0000; stroke-opacity: 0.8"/>
     <use xlink:href="#m48976c1fe8" x="266.507761" y="144.892106" style="fill: #ff0000; fill-opacity: 0.8; stroke: #ff0000; stroke-opacity: 0.8"/>
     <use xlink:href="#m48976c1fe8" x="295.443459" y="189.192474" style="fill: #ff0000; fill-opacity: 0.8; stroke: #ff0000; stroke-opacity: 0.8"/>
    </g>
   </g>
   <g id="line2d_1">
    <path d="M 92.89357 320.4 
L 96.565543 320.4 
L 98.052196 318.447833 
L 109.21089 257.902726 
L 124.058043 178.184529 
L 126.662057 165.190981 
L 129.20783 153.861908 
L 130.315947 149.594736 
L 131.896575 144.40858 
L 133.005456 141.43033 
L 134.524707 138.218842 
L 135.668351 136.377814 
L 137.188915 134.55053 
L 138.241242 133.609727 
L 139.426882 132.791585 
L 140.612522 132.173128 
L 142.667447 131.449714 
L 144.828502 131.025737 
L 147.262029 130.826275 
L 150.053472 130.840182 
L 153.706482 131.110248 
L 158.084522 131.661967 
L 164.837129 132.769569 
L 176.47362 134.977263 
L 193.835039 138.520087 
L 205.409318 141.063199 
L 214.090028 143.14347 
L 222.770737 145.436827 
L 231.451447 147.999802 
L 240.132156 150.88543 
L 245.919296 153.015046 
L 251.706436 155.330897 
L 257.493575 157.856783 
L 263.280715 160.625192 
L 269.067855 163.683168 
L 274.854994 167.102425 
L 277.748564 168.981096 
L 280.642134 170.998672 
L 283.535704 173.183179 
L 286.429274 175.573292 
L 289.322844 178.224341 
L 292.216414 181.219231 
L 295.109983 184.690148 
L 298.003553 188.866925 
L 300.897123 194.204601 
L 303.790693 201.824602 
L 306.684263 216.179348 
L 308.131048 236.573244 
L 308.53621 254.952326 
L 308.888382 294.585382 
L 309.16061 320.4 
L 324.379157 320.4 
L 324.379157 320.4 
" clip-path="url(#p64aa32e937)" style="fill: none; stroke: #ff0000; stroke-width: 1.5; stroke-linecap: round"/>
   </g>
  </g>
  <g id="axes_2">
   <g id="patch_7">
    <path d="M 374.727273 320.4 
L 612 320.4 
L 612 43.2 
L 374.727273 43.2 
z
" style="fill: #ffffff"/>
   </g>
   <g id="matplotlib.axis_3">
    <g id="xtick_10">
     <g id="text_21">
      <!-- 0 -->
      <g style="fill: #262626" transform="translate(373.616968 340.20725) scale(0.144 -0.144)">
       <use xlink:href="#ArialMT-30"/>
      </g>
     </g>
    </g>
    <g id="xtick_11">
     <g id="text_22">
      <!-- 1 -->
      <g style="fill: #262626" transform="translate(402.552666 340.20725) scale(0.144 -0.144)">
       <use xlink:href="#ArialMT-31"/>
      </g>
     </g>
    </g>
    <g id="xtick_12">
     <g id="text_23">
      <!-- 2 -->
      <g style="fill: #262626" transform="translate(431.488364 340.20725) scale(0.144 -0.144)">
       <use xlink:href="#ArialMT-32"/>
      </g>
     </g>
    </g>
    <g id="xtick_13">
     <g id="text_24">
      <!-- 3 -->
      <g style="fill: #262626" transform="translate(460.424063 340.20725) scale(0.144 -0.144)">
       <use xlink:href="#ArialMT-33"/>
      </g>
     </g>
    </g>
    <g id="xtick_14">
     <g id="text_25">
      <!-- 4 -->
      <g style="fill: #262626" transform="translate(489.359761 340.20725) scale(0.144 -0.144)">
       <use xlink:href="#ArialMT-34"/>
      </g>
     </g>
    </g>
    <g id="xtick_15">
     <g id="text_26">
      <!-- 5 -->
      <g style="fill: #262626" transform="translate(518.29546 340.20725) scale(0.144 -0.144)">
       <use xlink:href="#ArialMT-35"/>
      </g>
     </g>
    </g>
    <g id="xtick_16">
     <g id="text_27">
      <!-- 6 -->
      <g style="fill: #262626" transform="translate(547.231158 340.20725) scale(0.144 -0.144)">
       <use xlink:href="#ArialMT-36"/>
      </g>
     </g>
    </g>
    <g id="xtick_17">
     <g id="text_28">
      <!-- 7 -->
      <g style="fill: #262626" transform="translate(576.166857 340.20725) scale(0.144 -0.144)">
       <use xlink:href="#ArialMT-37"/>
      </g>
     </g>
    </g>
    <g id="xtick_18">
     <g id="text_29">
      <!-- 8 -->
      <g style="fill: #262626" transform="translate(605.102555 340.20725) scale(0.144 -0.144)">
       <use xlink:href="#ArialMT-38"/>
      </g>
     </g>
    </g>
    <g id="text_30">
     <!-- Time (d) -->
     <g style="fill: #262626" transform="translate(457.993636 361.04625) scale(0.192 -0.192)">
      <use xlink:href="#ArialMT-54"/>
      <use xlink:href="#ArialMT-69" x="57.333984"/>
      <use xlink:href="#ArialMT-6d" x="79.550781"/>
      <use xlink:href="#ArialMT-65" x="162.851562"/>
      <use xlink:href="#ArialMT-20" x="218.466797"/>
      <use xlink:href="#ArialMT-28" x="246.25"/>
      <use xlink:href="#ArialMT-64" x="279.550781"/>
      <use xlink:href="#ArialMT-29" x="335.166016"/>
     </g>
    </g>
   </g>
   <g id="matplotlib.axis_4">
    <g id="ytick_10">
     <g id="text_31">
      <!-- 4.0 -->
      <g style="fill: #262626" transform="translate(345.211273 325.553625) scale(0.144 -0.144)">
       <defs>
        <path id="ArialMT-2e" d="M 581 0 
L 581 641 
L 1222 641 
L 1222 0 
L 581 0 
z
" transform="scale(0.015625)"/>
       </defs>
       <use xlink:href="#ArialMT-34"/>
       <use xlink:href="#ArialMT-2e" x="55.615234"/>
       <use xlink:href="#ArialMT-30" x="83.398438"/>
      </g>
     </g>
    </g>
    <g id="ytick_11">
     <g id="text_32">
      <!-- 4.5 -->
      <g style="fill: #262626" transform="translate(345.211273 290.903625) scale(0.144 -0.144)">
       <use xlink:href="#ArialMT-34"/>
       <use xlink:href="#ArialMT-2e" x="55.615234"/>
       <use xlink:href="#ArialMT-35" x="83.398438"/>
      </g>
     </g>
    </g>
    <g id="ytick_12">
     <g id="text_33">
      <!-- 5.0 -->
      <g style="fill: #262626" transform="translate(345.211273 256.253625) scale(0.144 -0.144)">
       <use xlink:href="#ArialMT-35"/>
       <use xlink:href="#ArialMT-2e" x="55.615234"/>
       <use xlink:href="#ArialMT-30" x="83.398438"/>
      </g>
     </g>
    </g>
    <g id="ytick_13">
     <g id="text_34">
      <!-- 5.5 -->
      <g style="fill: #262626" transform="translate(345.211273 221.603625) scale(0.144 -0.144)">
       <use xlink:href="#ArialMT-35"/>
       <use xlink:href="#ArialMT-2e" x="55.615234"/>
       <use xlink:href="#ArialMT-35" x="83.398438"/>
      </g>
     </g>
    </g>
    <g id="ytick_14">
     <g id="text_35">
      <!-- 6.0 -->
      <g style="fill: #262626" transform="translate(345.211273 186.953625) scale(0.144 -0.144)">
       <use xlink:href="#ArialMT-36"/>
       <use xlink:href="#ArialMT-2e" x="55.615234"/>
       <use xlink:href="#ArialMT-30" x="83.398438"/>
      </g>
     </g>
    </g>
    <g id="ytick_15">
     <g id="text_36">
      <!-- 6.5 -->
      <g style="fill: #262626" transform="translate(345.211273 152.303625) scale(0.144 -0.144)">
       <use xlink:href="#ArialMT-36"/>
       <use xlink:href="#ArialMT-2e" x="55.615234"/>
       <use xlink:href="#ArialMT-35" x="83.398438"/>
      </g>
     </g>
    </g>
    <g id="ytick_16">
     <g id="text_37">
      <!-- 7.0 -->
      <g style="fill: #262626" transform="translate(345.211273 117.653625) scale(0.144 -0.144)">
       <use xlink:href="#ArialMT-37"/>
       <use xlink:href="#ArialMT-2e" x="55.615234"/>
       <use xlink:href="#ArialMT-30" x="83.398438"/>
      </g>
     </g>
    </g>
    <g id="ytick_17">
     <g id="text_38">
      <!-- 7.5 -->
      <g style="fill: #262626" transform="translate(345.211273 83.003625) scale(0.144 -0.144)">
       <use xlink:href="#ArialMT-37"/>
       <use xlink:href="#ArialMT-2e" x="55.615234"/>
       <use xlink:href="#ArialMT-35" x="83.398438"/>
      </g>
     </g>
    </g>
    <g id="ytick_18">
     <g id="text_39">
      <!-- 8.0 -->
      <g style="fill: #262626" transform="translate(345.211273 48.353625) scale(0.144 -0.144)">
       <use xlink:href="#ArialMT-38"/>
       <use xlink:href="#ArialMT-2e" x="55.615234"/>
       <use xlink:href="#ArialMT-30" x="83.398438"/>
      </g>
     </g>
    </g>
    <g id="text_40">
     <!-- Log10(CD8TE) -->
     <g style="fill: #262626" transform="translate(337.170273 246.357) rotate(-90) scale(0.192 -0.192)">
      <defs>
       <path id="ArialMT-43" d="M 3763 1606 
L 4369 1453 
Q 4178 706 3683 314 
Q 3188 -78 2472 -78 
Q 1731 -78 1267 223 
Q 803 525 561 1097 
Q 319 1669 319 2325 
Q 319 3041 592 3573 
Q 866 4106 1370 4382 
Q 1875 4659 2481 4659 
Q 3169 4659 3637 4309 
Q 4106 3959 4291 3325 
L 3694 3184 
Q 3534 3684 3231 3912 
Q 2928 4141 2469 4141 
Q 1941 4141 1586 3887 
Q 1231 3634 1087 3207 
Q 944 2781 944 2328 
Q 944 1744 1114 1308 
Q 1284 872 1643 656 
Q 2003 441 2422 441 
Q 2931 441 3284 734 
Q 3638 1028 3763 1606 
z
" transform="scale(0.015625)"/>
       <path id="ArialMT-44" d="M 494 0 
L 494 4581 
L 2072 4581 
Q 2606 4581 2888 4516 
Q 3281 4425 3559 4188 
Q 3922 3881 4101 3404 
Q 4281 2928 4281 2316 
Q 4281 1794 4159 1391 
Q 4038 988 3847 723 
Q 3656 459 3429 307 
Q 3203 156 2883 78 
Q 2563 0 2147 0 
L 494 0 
z
M 1100 541 
L 2078 541 
Q 2531 541 2789 625 
Q 3047 709 3200 863 
Q 3416 1078 3536 1442 
Q 3656 1806 3656 2325 
Q 3656 3044 3420 3430 
Q 3184 3816 2847 3947 
Q 2603 4041 2063 4041 
L 1100 4041 
L 1100 541 
z
" transform="scale(0.015625)"/>
       <path id="ArialMT-45" d="M 506 0 
L 506 4581 
L 3819 4581 
L 3819 4041 
L 1113 4041 
L 1113 2638 
L 3647 2638 
L 3647 2100 
L 1113 2100 
L 1113 541 
L 3925 541 
L 3925 0 
L 506 0 
z
" transform="scale(0.015625)"/>
      </defs>
      <use xlink:href="#ArialMT-4c"/>
      <use xlink:href="#ArialMT-6f" x="55.615234"/>
      <use xlink:href="#ArialMT-67" x="111.230469"/>
      <use xlink:href="#ArialMT-31" x="166.845703"/>
      <use xlink:href="#ArialMT-30" x="222.460938"/>
      <use xlink:href="#ArialMT-28" x="278.076172"/>
      <use xlink:href="#ArialMT-43" x="311.376953"/>
      <use xlink:href="#ArialMT-44" x="383.59375"/>
      <use xlink:href="#ArialMT-38" x="455.810547"/>
      <use xlink:href="#ArialMT-54" x="511.425781"/>
      <use xlink:href="#ArialMT-45" x="572.509766"/>
      <use xlink:href="#ArialMT-29" x="639.208984"/>
     </g>
    </g>
   </g>
   <g id="patch_8">
    <path d="M 374.727273 320.4 
L 374.727273 43.2 
" style="fill: none; stroke: #262626; stroke-width: 1.25; stroke-linejoin: miter; stroke-linecap: square"/>
   </g>
   <g id="patch_9">
    <path d="M 612 320.4 
L 612 43.2 
" style="fill: none; stroke: #262626; stroke-width: 1.25; stroke-linejoin: miter; stroke-linecap: square"/>
   </g>
   <g id="patch_10">
    <path d="M 374.727273 320.4 
L 612 320.4 
" style="fill: none; stroke: #262626; stroke-width: 1.25; stroke-linejoin: miter; stroke-linecap: square"/>
   </g>
   <g id="patch_11">
    <path d="M 374.727273 43.2 
L 612 43.2 
" style="fill: none; stroke: #262626; stroke-width: 1.25; stroke-linejoin: miter; stroke-linecap: square"/>
   </g>
   <g id="PolyCollection_2">
    <defs>
     <path id="mc81c7981a4" d="M 377.620843 -117.613053 
L 377.620843 -117.613053 
L 377.621157 -117.613053 
L 377.624296 -117.613053 
L 377.655691 -117.613053 
L 377.769282 -117.613053 
L 377.863675 -117.613053 
L 378.20295 -117.613053 
L 378.468452 -117.613053 
L 379.14182 -117.613053 
L 379.598861 -117.613053 
L 380.68704 -117.613053 
L 381.292816 -117.613053 
L 382.779468 -117.613053 
L 383.464552 -117.613053 
L 384.763905 -117.613053 
L 385.554747 -117.613053 
L 386.959588 -117.613053 
L 387.81998 -117.613053 
L 389.217139 -117.613053 
L 390.138404 -117.613053 
L 391.554406 -117.613053 
L 392.520521 -117.613053 
L 393.938162 -117.613053 
L 394.938943 -117.613053 
L 396.49937 -117.613053 
L 397.486934 -117.613053 
L 398.853847 -117.613053 
L 399.882193 -117.613053 
L 401.374572 -117.613053 
L 402.397827 -117.613053 
L 403.785028 -117.613053 
L 404.834452 -117.613053 
L 406.331608 -117.613054 
L 407.373507 -117.613054 
L 408.785316 -117.613056 
L 409.856277 -117.613057 
L 411.38933 -117.613061 
L 412.466901 -117.613066 
L 413.935102 -117.613076 
L 415.043219 -117.613088 
L 416.623848 -117.613118 
L 417.732729 -117.613152 
L 419.25198 -117.613229 
L 420.395623 -117.613321 
L 421.916187 -117.613517 
L 422.968515 -117.613737 
L 424.154155 -117.614109 
L 425.339794 -117.614704 
L 426.360612 -117.615472 
L 427.39472 -117.6166 
L 428.177106 -117.617805 
L 428.926567 -117.619298 
L 429.555775 -117.620846 
L 430.139535 -117.622799 
L 430.652445 -117.624651 
L 431.165354 -117.627162 
L 431.591791 -117.62928 
L 431.989302 -117.632004 
L 432.386813 -117.634728 
L 432.709756 -117.637314 
L 433.078198 -117.640687 
L 434.296484 -117.655183 
L 434.780745 -117.662753 
L 436.028107 -117.689959 
L 436.67054 -117.708287 
L 438.433755 -117.786672 
L 439.405007 -117.843981 
L 441.642971 -118.077492 
L 442.811794 -118.237833 
L 445.294247 -118.896237 
L 446.670832 -119.38393 
L 449.564402 -121.236481 
L 451.15754 -122.586669 
L 454.05111 -126.437212 
L 455.962613 -129.666275 
L 458.856183 -136.104454 
L 461.200892 -142.194506 
L 464.094462 -150.703637 
L 466.988032 -159.724788 
L 469.881602 -168.881299 
L 472.775172 -177.877245 
L 475.668742 -186.522157 
L 478.562312 -194.706556 
L 481.455881 -202.376088 
L 484.349451 -209.511335 
L 487.243021 -216.113974 
L 490.136591 -222.197872 
L 493.030161 -227.783552 
L 495.923731 -232.894825 
L 498.8173 -237.556773 
L 501.71087 -241.794562 
L 504.60444 -245.632761 
L 507.49801 -249.094971 
L 510.39158 -252.203647 
L 513.28515 -254.980019 
L 516.178719 -257.444097 
L 519.072289 -259.593976 
L 521.965859 -260.875213 
L 524.859429 -261.495983 
L 527.752999 -261.908537 
L 530.646569 -262.129196 
L 533.540139 -262.173297 
L 536.433708 -262.055248 
L 539.327278 -261.788584 
L 542.220848 -261.386009 
L 545.114418 -260.859433 
L 548.007988 -260.220015 
L 550.901558 -259.168171 
L 553.795127 -257.994668 
L 556.688697 -256.741642 
L 559.582267 -255.417459 
L 562.475837 -254.029842 
L 565.369407 -252.583855 
L 568.262977 -250.999084 
L 571.156547 -249.361286 
L 574.050116 -247.676397 
L 576.943686 -245.949876 
L 579.837256 -244.186727 
L 582.730826 -242.391527 
L 585.624396 -240.568446 
L 588.517966 -238.721273 
L 591.411535 -236.833982 
L 592.85832 -235.822346 
L 593.147677 -235.619493 
L 593.263483 -235.538308 
L 593.399506 -235.44295 
L 593.448294 -235.408747 
L 593.549567 -235.33775 
L 593.615655 -235.291419 
L 593.732029 -235.209835 
L 593.82024 -235.147995 
L 593.848862 -235.12793 
L 593.887882 -235.100574 
L 593.965161 -235.046398 
L 594.052012 -234.985512 
L 594.20053 -234.881393 
L 594.350432 -234.776305 
L 594.643943 -234.570056 
L 595.028418 -234.297375 
L 596.374486 -233.342707 
L 598.243483 -232.011767 
L 600.450924 -230.430148 
L 603.240049 -228.415588 
L 606.029175 -226.387059 
L 608.922745 -224.2709 
L 609.10643 -224.136436 
L 609.10643 -249.296737 
L 609.10643 -249.296737 
L 608.922745 -249.384898 
L 606.029175 -250.772668 
L 603.240049 -252.091431 
L 600.450924 -253.394566 
L 598.243483 -254.407358 
L 596.374486 -255.25823 
L 595.028418 -255.887321 
L 594.643943 -256.065421 
L 594.350432 -256.201191 
L 594.20053 -256.270531 
L 594.052012 -256.339232 
L 593.965161 -256.379406 
L 593.887882 -256.415153 
L 593.848862 -256.433203 
L 593.82024 -256.446443 
L 593.732029 -256.487247 
L 593.615655 -256.541078 
L 593.549567 -256.571649 
L 593.448294 -256.618494 
L 593.399506 -256.641063 
L 593.263483 -256.703983 
L 593.147677 -256.757551 
L 592.85832 -256.891315 
L 591.411535 -257.553196 
L 588.517966 -258.856311 
L 585.624396 -260.130999 
L 582.730826 -261.372749 
L 579.837256 -262.577438 
L 576.943686 -263.740568 
L 574.050116 -264.857255 
L 571.156547 -265.922207 
L 568.262977 -266.929707 
L 565.369407 -267.873599 
L 562.475837 -268.747266 
L 559.582267 -269.543618 
L 556.688697 -270.255071 
L 553.795127 -270.927832 
L 550.901558 -271.614982 
L 548.007988 -272.186297 
L 545.114418 -272.63168 
L 542.220848 -272.978033 
L 539.327278 -273.424866 
L 536.433708 -273.736271 
L 533.540139 -273.900336 
L 530.646569 -273.904393 
L 527.752999 -273.734975 
L 524.859429 -273.377765 
L 521.965859 -272.817532 
L 519.072289 -272.038073 
L 516.178719 -271.022128 
L 513.28515 -269.953226 
L 510.39158 -268.929753 
L 507.49801 -267.606151 
L 504.60444 -265.955566 
L 501.71087 -263.949206 
L 498.8173 -261.556187 
L 495.923731 -258.743368 
L 493.030161 -255.475193 
L 490.136591 -251.713562 
L 487.243021 -247.417759 
L 484.349451 -242.544508 
L 481.455881 -237.189093 
L 478.562312 -231.451291 
L 475.668742 -225.036203 
L 472.775172 -217.89985 
L 469.881602 -210.003855 
L 466.988032 -201.32312 
L 464.094462 -191.859672 
L 461.200892 -181.666976 
L 458.856183 -172.943152 
L 455.962613 -161.94071 
L 454.05111 -154.708489 
L 451.15754 -144.167625 
L 449.564402 -139.094978 
L 446.670832 -131.051827 
L 445.294247 -128.035866 
L 442.811794 -123.781346 
L 441.642971 -122.201745 
L 439.405007 -120.229666 
L 438.433755 -119.622803 
L 436.67054 -118.815791 
L 436.028107 -118.593821 
L 434.780745 -118.272456 
L 434.296484 -118.186253 
L 433.078198 -117.998015 
L 432.709756 -117.950956 
L 432.386813 -117.917704 
L 431.989302 -117.880827 
L 431.591791 -117.843949 
L 431.165354 -117.815292 
L 430.652445 -117.781079 
L 430.139535 -117.754217 
L 429.555775 -117.727697 
L 428.926567 -117.705332 
L 428.177106 -117.683293 
L 427.39472 -117.666308 
L 426.360612 -117.649184 
L 425.339794 -117.638086 
L 424.154155 -117.629239 
L 422.968515 -117.623666 
L 421.916187 -117.620262 
L 420.395623 -117.617166 
L 419.25198 -117.615735 
L 417.732729 -117.614582 
L 416.623848 -117.614055 
L 415.043219 -117.613607 
L 413.935102 -117.61343 
L 412.466901 -117.613268 
L 411.38933 -117.613202 
L 409.856277 -117.613134 
L 408.785316 -117.613108 
L 407.373507 -117.613083 
L 406.331608 -117.613073 
L 404.834452 -117.613063 
L 403.785028 -117.61306 
L 402.397827 -117.613056 
L 401.374572 -117.613055 
L 399.882193 -117.613054 
L 398.853847 -117.613053 
L 397.486934 -117.613053 
L 396.49937 -117.613053 
L 394.938943 -117.613053 
L 393.938162 -117.613053 
L 392.520521 -117.613053 
L 391.554406 -117.613053 
L 390.138404 -117.613053 
L 389.217139 -117.613053 
L 387.81998 -117.613053 
L 386.959588 -117.613053 
L 385.554747 -117.613053 
L 384.763905 -117.613053 
L 383.464552 -117.613053 
L 382.779468 -117.613053 
L 381.292816 -117.613053 
L 380.68704 -117.613053 
L 379.598861 -117.613053 
L 379.14182 -117.613053 
L 378.468452 -117.613053 
L 378.20295 -117.613053 
L 377.863675 -117.613053 
L 377.769282 -117.613053 
L 377.655691 -117.613053 
L 377.624296 -117.613053 
L 377.621157 -117.613053 
L 377.620843 -117.613053 
z
" style="stroke: #ff0000; stroke-opacity: 0.2"/>
    </defs>
    <g clip-path="url(#pd23821eee9)">
     <use xlink:href="#mc81c7981a4" x="0" y="360" style="fill: #ff0000; fill-opacity: 0.2; stroke: #ff0000; stroke-opacity: 0.2"/>
    </g>
   </g>
   <g id="PathCollection_2">
    <g clip-path="url(#pd23821eee9)">
     <use xlink:href="#m48976c1fe8" x="377.620843" y="242.386947" style="fill: #ff0000; fill-opacity: 0.8; stroke: #ff0000; stroke-opacity: 0.8"/>
     <use xlink:href="#m48976c1fe8" x="406.556541" y="203.934991" style="fill: #ff0000; fill-opacity: 0.8; stroke: #ff0000; stroke-opacity: 0.8"/>
     <use xlink:href="#m48976c1fe8" x="435.492239" y="201.750504" style="fill: #ff0000; fill-opacity: 0.8; stroke: #ff0000; stroke-opacity: 0.8"/>
     <use xlink:href="#m48976c1fe8" x="464.427938" y="161.705127" style="fill: #ff0000; fill-opacity: 0.8; stroke: #ff0000; stroke-opacity: 0.8"/>
     <use xlink:href="#m48976c1fe8" x="493.363636" y="127.472639" style="fill: #ff0000; fill-opacity: 0.8; stroke: #ff0000; stroke-opacity: 0.8"/>
     <use xlink:href="#m48976c1fe8" x="522.299335" y="115.87783" style="fill: #ff0000; fill-opacity: 0.8; stroke: #ff0000; stroke-opacity: 0.8"/>
     <use xlink:href="#m48976c1fe8" x="551.235033" y="86.633816" style="fill: #ff0000; fill-opacity: 0.8; stroke: #ff0000; stroke-opacity: 0.8"/>
     <use xlink:href="#m48976c1fe8" x="580.170732" y="91.400252" style="fill: #ff0000; fill-opacity: 0.8; stroke: #ff0000; stroke-opacity: 0.8"/>
    </g>
   </g>
   <g id="line2d_2">
    <path d="M 377.620843 242.386947 
L 432.386813 242.286303 
L 436.028107 242.056423 
L 438.433755 241.696912 
L 439.405007 241.471517 
L 441.642971 240.676576 
L 442.811794 240.066188 
L 445.294247 238.124928 
L 446.670832 236.594807 
L 449.564402 232.028624 
L 451.15754 228.71209 
L 454.05111 221.235001 
L 455.962613 215.481904 
L 461.200892 197.822793 
L 466.988032 178.029148 
L 469.881602 168.761399 
L 472.775172 160.085949 
L 475.668742 152.045184 
L 478.562312 144.644641 
L 481.455881 137.869188 
L 484.349451 131.692754 
L 487.243021 126.08402 
L 490.136591 121.009698 
L 493.030161 116.436372 
L 495.923731 112.331513 
L 498.8173 108.664 
L 501.71087 105.404358 
L 504.60444 102.524834 
L 507.49801 99.999377 
L 510.39158 97.803576 
L 513.28515 95.914565 
L 516.178719 94.310923 
L 519.072289 92.972571 
L 521.965859 91.880677 
L 524.859429 91.017558 
L 527.752999 90.366602 
L 530.646569 89.91219 
L 533.540139 89.639627 
L 536.433708 89.535083 
L 539.327278 89.585539 
L 542.220848 89.778741 
L 545.114418 90.10316 
L 550.901558 91.102933 
L 556.688697 92.505825 
L 562.475837 94.242457 
L 568.262977 96.252373 
L 574.050116 98.483394 
L 582.730826 102.148994 
L 593.263483 106.959919 
L 603.240049 111.750784 
L 609.10643 114.634655 
L 609.10643 114.634655 
" clip-path="url(#pd23821eee9)" style="fill: none; stroke: #ff0000; stroke-width: 1.5; stroke-linecap: round"/>
   </g>
  </g>
  <g id="legend_1">
   <g id="patch_12">
    <path d="M 769.44 42.519 
L 860.079 42.519 
Q 863.919 42.519 863.919 38.679 
L 863.919 13.44 
Q 863.919 9.6 860.079 9.6 
L 769.44 9.6 
Q 765.6 9.6 765.6 13.44 
L 765.6 38.679 
Q 765.6 42.519 769.44 42.519 
z
" style="fill: #ffffff; opacity: 0.8; stroke: #cccccc; stroke-linejoin: miter"/>
   </g>
   <g id="PathCollection_3">
    <g>
     <use xlink:href="#m48976c1fe8" x="792.48" y="25.983" style="fill: #ff0000; fill-opacity: 0.8; stroke: #ff0000; stroke-opacity: 0.8"/>
    </g>
   </g>
   <g id="text_41">
    <!-- 111 -->
    <g style="fill: #262626" transform="translate(827.04 31.023) scale(0.192 -0.192)">
     <use xlink:href="#ArialMT-31"/>
     <use xlink:href="#ArialMT-31" x="48.240234"/>
     <use xlink:href="#ArialMT-31" x="96.480469"/>
    </g>
   </g>
  </g>
 </g>
 <defs>
  <clipPath id="p64aa32e937">
   <rect x="90" y="43.2" width="237.272727" height="277.2"/>
  </clipPath>
  <clipPath id="pd23821eee9">
   <rect x="374.727273" y="43.2" width="237.272727" height="277.2"/>
  </clipPath>
 </defs>
</svg>
