<?xml version="1.0" encoding="utf-8" standalone="no"?>
<!DOCTYPE svg PUBLIC "-//W3C//DTD SVG 1.1//EN"
  "http://www.w3.org/Graphics/SVG/1.1/DTD/svg11.dtd">
<svg xmlns:xlink="http://www.w3.org/1999/xlink" width="720pt" height="360pt" viewBox="0 0 720 360" xmlns="http://www.w3.org/2000/svg" version="1.1">
 <metadata>
  <rdf:RDF xmlns:dc="http://purl.org/dc/elements/1.1/" xmlns:cc="http://creativecommons.org/ns#" xmlns:rdf="http://www.w3.org/1999/02/22-rdf-syntax-ns#">
   <cc:Work>
    <dc:type rdf:resource="http://purl.org/dc/dcmitype/StillImage"/>
    <dc:date>2024-12-04T11:15:16.388786</dc:date>
    <dc:format>image/svg+xml</dc:format>
    <dc:creator>
     <cc:Agent>
      <dc:title>Matplotlib v3.9.2, https://matplotlib.org/</dc:title>
     </cc:Agent>
    </dc:creator>
   </cc:Work>
  </rdf:RDF>
 </metadata>
 <defs>
  <style type="text/css">*{stroke-linejoin: round; stroke-linecap: butt}</style>
 </defs>
 <g id="figure_1">
  <g id="patch_1">
   <path d="M 0 360 
L 720 360 
L 720 0 
L 0 0 
z
" style="fill: #ffffff"/>
  </g>
  <g id="axes_1">
   <g id="patch_2">
    <path d="M 90 320.4 
L 327.272727 320.4 
L 327.272727 43.2 
L 90 43.2 
z
" style="fill: #ffffff"/>
   </g>
   <g id="matplotlib.axis_1">
    <g id="xtick_1">
     <g id="text_1">
      <!-- 0 -->
      <g style="fill: #262626" transform="translate(88.889695 340.20725) scale(0.144 -0.144)">
       <defs>
        <path id="ArialMT-30" d="M 266 2259 
Q 266 3072 433 3567 
Q 600 4063 929 4331 
Q 1259 4600 1759 4600 
Q 2128 4600 2406 4451 
Q 2684 4303 2865 4023 
Q 3047 3744 3150 3342 
Q 3253 2941 3253 2259 
Q 3253 1453 3087 958 
Q 2922 463 2592 192 
Q 2263 -78 1759 -78 
Q 1097 -78 719 397 
Q 266 969 266 2259 
z
M 844 2259 
Q 844 1131 1108 757 
Q 1372 384 1759 384 
Q 2147 384 2411 759 
Q 2675 1134 2675 2259 
Q 2675 3391 2411 3762 
Q 2147 4134 1753 4134 
Q 1366 4134 1134 3806 
Q 844 3388 844 2259 
z
" transform="scale(0.015625)"/>
       </defs>
       <use xlink:href="#ArialMT-30"/>
      </g>
     </g>
    </g>
    <g id="xtick_2">
     <g id="text_2">
      <!-- 1 -->
      <g style="fill: #262626" transform="translate(117.825393 340.20725) scale(0.144 -0.144)">
       <defs>
        <path id="ArialMT-31" d="M 2384 0 
L 1822 0 
L 1822 3584 
Q 1619 3391 1289 3197 
Q 959 3003 697 2906 
L 697 3450 
Q 1169 3672 1522 3987 
Q 1875 4303 2022 4600 
L 2384 4600 
L 2384 0 
z
" transform="scale(0.015625)"/>
       </defs>
       <use xlink:href="#ArialMT-31"/>
      </g>
     </g>
    </g>
    <g id="xtick_3">
     <g id="text_3">
      <!-- 2 -->
      <g style="fill: #262626" transform="translate(146.761092 340.20725) scale(0.144 -0.144)">
       <defs>
        <path id="ArialMT-32" d="M 3222 541 
L 3222 0 
L 194 0 
Q 188 203 259 391 
Q 375 700 629 1000 
Q 884 1300 1366 1694 
Q 2113 2306 2375 2664 
Q 2638 3022 2638 3341 
Q 2638 3675 2398 3904 
Q 2159 4134 1775 4134 
Q 1369 4134 1125 3890 
Q 881 3647 878 3216 
L 300 3275 
Q 359 3922 746 4261 
Q 1134 4600 1788 4600 
Q 2447 4600 2831 4234 
Q 3216 3869 3216 3328 
Q 3216 3053 3103 2787 
Q 2991 2522 2730 2228 
Q 2469 1934 1863 1422 
Q 1356 997 1212 845 
Q 1069 694 975 541 
L 3222 541 
z
" transform="scale(0.015625)"/>
       </defs>
       <use xlink:href="#ArialMT-32"/>
      </g>
     </g>
    </g>
    <g id="xtick_4">
     <g id="text_4">
      <!-- 3 -->
      <g style="fill: #262626" transform="translate(175.69679 340.20725) scale(0.144 -0.144)">
       <defs>
        <path id="ArialMT-33" d="M 269 1209 
L 831 1284 
Q 928 806 1161 595 
Q 1394 384 1728 384 
Q 2125 384 2398 659 
Q 2672 934 2672 1341 
Q 2672 1728 2419 1979 
Q 2166 2231 1775 2231 
Q 1616 2231 1378 2169 
L 1441 2663 
Q 1497 2656 1531 2656 
Q 1891 2656 2178 2843 
Q 2466 3031 2466 3422 
Q 2466 3731 2256 3934 
Q 2047 4138 1716 4138 
Q 1388 4138 1169 3931 
Q 950 3725 888 3313 
L 325 3413 
Q 428 3978 793 4289 
Q 1159 4600 1703 4600 
Q 2078 4600 2393 4439 
Q 2709 4278 2876 4000 
Q 3044 3722 3044 3409 
Q 3044 3113 2884 2869 
Q 2725 2625 2413 2481 
Q 2819 2388 3044 2092 
Q 3269 1797 3269 1353 
Q 3269 753 2831 336 
Q 2394 -81 1725 -81 
Q 1122 -81 723 278 
Q 325 638 269 1209 
z
" transform="scale(0.015625)"/>
       </defs>
       <use xlink:href="#ArialMT-33"/>
      </g>
     </g>
    </g>
    <g id="xtick_5">
     <g id="text_5">
      <!-- 4 -->
      <g style="fill: #262626" transform="translate(204.632489 340.20725) scale(0.144 -0.144)">
       <defs>
        <path id="ArialMT-34" d="M 2069 0 
L 2069 1097 
L 81 1097 
L 81 1613 
L 2172 4581 
L 2631 4581 
L 2631 1613 
L 3250 1613 
L 3250 1097 
L 2631 1097 
L 2631 0 
L 2069 0 
z
M 2069 1613 
L 2069 3678 
L 634 1613 
L 2069 1613 
z
" transform="scale(0.015625)"/>
       </defs>
       <use xlink:href="#ArialMT-34"/>
      </g>
     </g>
    </g>
    <g id="xtick_6">
     <g id="text_6">
      <!-- 5 -->
      <g style="fill: #262626" transform="translate(233.568187 340.20725) scale(0.144 -0.144)">
       <defs>
        <path id="ArialMT-35" d="M 266 1200 
L 856 1250 
Q 922 819 1161 601 
Q 1400 384 1738 384 
Q 2144 384 2425 690 
Q 2706 997 2706 1503 
Q 2706 1984 2436 2262 
Q 2166 2541 1728 2541 
Q 1456 2541 1237 2417 
Q 1019 2294 894 2097 
L 366 2166 
L 809 4519 
L 3088 4519 
L 3088 3981 
L 1259 3981 
L 1013 2750 
Q 1425 3038 1878 3038 
Q 2478 3038 2890 2622 
Q 3303 2206 3303 1553 
Q 3303 931 2941 478 
Q 2500 -78 1738 -78 
Q 1113 -78 717 272 
Q 322 622 266 1200 
z
" transform="scale(0.015625)"/>
       </defs>
       <use xlink:href="#ArialMT-35"/>
      </g>
     </g>
    </g>
    <g id="xtick_7">
     <g id="text_7">
      <!-- 6 -->
      <g style="fill: #262626" transform="translate(262.503886 340.20725) scale(0.144 -0.144)">
       <defs>
        <path id="ArialMT-36" d="M 3184 3459 
L 2625 3416 
Q 2550 3747 2413 3897 
Q 2184 4138 1850 4138 
Q 1581 4138 1378 3988 
Q 1113 3794 959 3422 
Q 806 3050 800 2363 
Q 1003 2672 1297 2822 
Q 1591 2972 1913 2972 
Q 2475 2972 2870 2558 
Q 3266 2144 3266 1488 
Q 3266 1056 3080 686 
Q 2894 316 2569 119 
Q 2244 -78 1831 -78 
Q 1128 -78 684 439 
Q 241 956 241 2144 
Q 241 3472 731 4075 
Q 1159 4600 1884 4600 
Q 2425 4600 2770 4297 
Q 3116 3994 3184 3459 
z
M 888 1484 
Q 888 1194 1011 928 
Q 1134 663 1356 523 
Q 1578 384 1822 384 
Q 2178 384 2434 671 
Q 2691 959 2691 1453 
Q 2691 1928 2437 2201 
Q 2184 2475 1800 2475 
Q 1419 2475 1153 2201 
Q 888 1928 888 1484 
z
" transform="scale(0.015625)"/>
       </defs>
       <use xlink:href="#ArialMT-36"/>
      </g>
     </g>
    </g>
    <g id="xtick_8">
     <g id="text_8">
      <!-- 7 -->
      <g style="fill: #262626" transform="translate(291.439584 340.20725) scale(0.144 -0.144)">
       <defs>
        <path id="ArialMT-37" d="M 303 3981 
L 303 4522 
L 3269 4522 
L 3269 4084 
Q 2831 3619 2401 2847 
Q 1972 2075 1738 1259 
Q 1569 684 1522 0 
L 944 0 
Q 953 541 1156 1306 
Q 1359 2072 1739 2783 
Q 2119 3494 2547 3981 
L 303 3981 
z
" transform="scale(0.015625)"/>
       </defs>
       <use xlink:href="#ArialMT-37"/>
      </g>
     </g>
    </g>
    <g id="xtick_9">
     <g id="text_9">
      <!-- 8 -->
      <g style="fill: #262626" transform="translate(320.375282 340.20725) scale(0.144 -0.144)">
       <defs>
        <path id="ArialMT-38" d="M 1131 2484 
Q 781 2613 612 2850 
Q 444 3088 444 3419 
Q 444 3919 803 4259 
Q 1163 4600 1759 4600 
Q 2359 4600 2725 4251 
Q 3091 3903 3091 3403 
Q 3091 3084 2923 2848 
Q 2756 2613 2416 2484 
Q 2838 2347 3058 2040 
Q 3278 1734 3278 1309 
Q 3278 722 2862 322 
Q 2447 -78 1769 -78 
Q 1091 -78 675 323 
Q 259 725 259 1325 
Q 259 1772 486 2073 
Q 713 2375 1131 2484 
z
M 1019 3438 
Q 1019 3113 1228 2906 
Q 1438 2700 1772 2700 
Q 2097 2700 2305 2904 
Q 2513 3109 2513 3406 
Q 2513 3716 2298 3927 
Q 2084 4138 1766 4138 
Q 1444 4138 1231 3931 
Q 1019 3725 1019 3438 
z
M 838 1322 
Q 838 1081 952 856 
Q 1066 631 1291 507 
Q 1516 384 1775 384 
Q 2178 384 2440 643 
Q 2703 903 2703 1303 
Q 2703 1709 2433 1975 
Q 2163 2241 1756 2241 
Q 1359 2241 1098 1978 
Q 838 1716 838 1322 
z
" transform="scale(0.015625)"/>
       </defs>
       <use xlink:href="#ArialMT-38"/>
      </g>
     </g>
    </g>
    <g id="text_10">
     <!-- Time (d) -->
     <g style="fill: #262626" transform="translate(173.266364 361.04625) scale(0.192 -0.192)">
      <defs>
       <path id="ArialMT-54" d="M 1659 0 
L 1659 4041 
L 150 4041 
L 150 4581 
L 3781 4581 
L 3781 4041 
L 2266 4041 
L 2266 0 
L 1659 0 
z
" transform="scale(0.015625)"/>
       <path id="ArialMT-69" d="M 425 3934 
L 425 4581 
L 988 4581 
L 988 3934 
L 425 3934 
z
M 425 0 
L 425 3319 
L 988 3319 
L 988 0 
L 425 0 
z
" transform="scale(0.015625)"/>
       <path id="ArialMT-6d" d="M 422 0 
L 422 3319 
L 925 3319 
L 925 2853 
Q 1081 3097 1340 3245 
Q 1600 3394 1931 3394 
Q 2300 3394 2536 3241 
Q 2772 3088 2869 2813 
Q 3263 3394 3894 3394 
Q 4388 3394 4653 3120 
Q 4919 2847 4919 2278 
L 4919 0 
L 4359 0 
L 4359 2091 
Q 4359 2428 4304 2576 
Q 4250 2725 4106 2815 
Q 3963 2906 3769 2906 
Q 3419 2906 3187 2673 
Q 2956 2441 2956 1928 
L 2956 0 
L 2394 0 
L 2394 2156 
Q 2394 2531 2256 2718 
Q 2119 2906 1806 2906 
Q 1569 2906 1367 2781 
Q 1166 2656 1075 2415 
Q 984 2175 984 1722 
L 984 0 
L 422 0 
z
" transform="scale(0.015625)"/>
       <path id="ArialMT-65" d="M 2694 1069 
L 3275 997 
Q 3138 488 2766 206 
Q 2394 -75 1816 -75 
Q 1088 -75 661 373 
Q 234 822 234 1631 
Q 234 2469 665 2931 
Q 1097 3394 1784 3394 
Q 2450 3394 2872 2941 
Q 3294 2488 3294 1666 
Q 3294 1616 3291 1516 
L 816 1516 
Q 847 969 1125 678 
Q 1403 388 1819 388 
Q 2128 388 2347 550 
Q 2566 713 2694 1069 
z
M 847 1978 
L 2700 1978 
Q 2663 2397 2488 2606 
Q 2219 2931 1791 2931 
Q 1403 2931 1139 2672 
Q 875 2413 847 1978 
z
" transform="scale(0.015625)"/>
       <path id="ArialMT-20" transform="scale(0.015625)"/>
       <path id="ArialMT-28" d="M 1497 -1347 
Q 1031 -759 709 28 
Q 388 816 388 1659 
Q 388 2403 628 3084 
Q 909 3875 1497 4659 
L 1900 4659 
Q 1522 4009 1400 3731 
Q 1209 3300 1100 2831 
Q 966 2247 966 1656 
Q 966 153 1900 -1347 
L 1497 -1347 
z
" transform="scale(0.015625)"/>
       <path id="ArialMT-64" d="M 2575 0 
L 2575 419 
Q 2259 -75 1647 -75 
Q 1250 -75 917 144 
Q 584 363 401 755 
Q 219 1147 219 1656 
Q 219 2153 384 2558 
Q 550 2963 881 3178 
Q 1213 3394 1622 3394 
Q 1922 3394 2156 3267 
Q 2391 3141 2538 2938 
L 2538 4581 
L 3097 4581 
L 3097 0 
L 2575 0 
z
M 797 1656 
Q 797 1019 1065 703 
Q 1334 388 1700 388 
Q 2069 388 2326 689 
Q 2584 991 2584 1609 
Q 2584 2291 2321 2609 
Q 2059 2928 1675 2928 
Q 1300 2928 1048 2622 
Q 797 2316 797 1656 
z
" transform="scale(0.015625)"/>
       <path id="ArialMT-29" d="M 791 -1347 
L 388 -1347 
Q 1322 153 1322 1656 
Q 1322 2244 1188 2822 
Q 1081 3291 891 3722 
Q 769 4003 388 4659 
L 791 4659 
Q 1378 3875 1659 3084 
Q 1900 2403 1900 1659 
Q 1900 816 1576 28 
Q 1253 -759 791 -1347 
z
" transform="scale(0.015625)"/>
      </defs>
      <use xlink:href="#ArialMT-54"/>
      <use xlink:href="#ArialMT-69" x="57.333984"/>
      <use xlink:href="#ArialMT-6d" x="79.550781"/>
      <use xlink:href="#ArialMT-65" x="162.851562"/>
      <use xlink:href="#ArialMT-20" x="218.466797"/>
      <use xlink:href="#ArialMT-28" x="246.25"/>
      <use xlink:href="#ArialMT-64" x="279.550781"/>
      <use xlink:href="#ArialMT-29" x="335.166016"/>
     </g>
    </g>
   </g>
   <g id="matplotlib.axis_2">
    <g id="ytick_1">
     <g id="text_11">
      <!-- 0 -->
      <g style="fill: #262626" transform="translate(72.49225 325.553625) scale(0.144 -0.144)">
       <use xlink:href="#ArialMT-30"/>
      </g>
     </g>
    </g>
    <g id="ytick_2">
     <g id="text_12">
      <!-- 1 -->
      <g style="fill: #262626" transform="translate(72.49225 291.953625) scale(0.144 -0.144)">
       <use xlink:href="#ArialMT-31"/>
      </g>
     </g>
    </g>
    <g id="ytick_3">
     <g id="text_13">
      <!-- 2 -->
      <g style="fill: #262626" transform="translate(72.49225 258.353625) scale(0.144 -0.144)">
       <use xlink:href="#ArialMT-32"/>
      </g>
     </g>
    </g>
    <g id="ytick_4">
     <g id="text_14">
      <!-- 3 -->
      <g style="fill: #262626" transform="translate(72.49225 224.753625) scale(0.144 -0.144)">
       <use xlink:href="#ArialMT-33"/>
      </g>
     </g>
    </g>
    <g id="ytick_5">
     <g id="text_15">
      <!-- 4 -->
      <g style="fill: #262626" transform="translate(72.49225 191.153625) scale(0.144 -0.144)">
       <use xlink:href="#ArialMT-34"/>
      </g>
     </g>
    </g>
    <g id="ytick_6">
     <g id="text_16">
      <!-- 5 -->
      <g style="fill: #262626" transform="translate(72.49225 157.553625) scale(0.144 -0.144)">
       <use xlink:href="#ArialMT-35"/>
      </g>
     </g>
    </g>
    <g id="ytick_7">
     <g id="text_17">
      <!-- 6 -->
      <g style="fill: #262626" transform="translate(72.49225 123.953625) scale(0.144 -0.144)">
       <use xlink:href="#ArialMT-36"/>
      </g>
     </g>
    </g>
    <g id="ytick_8">
     <g id="text_18">
      <!-- 7 -->
      <g style="fill: #262626" transform="translate(72.49225 90.353625) scale(0.144 -0.144)">
       <use xlink:href="#ArialMT-37"/>
      </g>
     </g>
    </g>
    <g id="ytick_9">
     <g id="text_19">
      <!-- 8 -->
      <g style="fill: #262626" transform="translate(72.49225 56.753625) scale(0.144 -0.144)">
       <use xlink:href="#ArialMT-38"/>
      </g>
     </g>
    </g>
    <g id="text_20">
     <!-- Log10(V) -->
     <g style="fill: #262626" transform="translate(64.45125 221.289) rotate(-90) scale(0.192 -0.192)">
      <defs>
       <path id="ArialMT-4c" d="M 469 0 
L 469 4581 
L 1075 4581 
L 1075 541 
L 3331 541 
L 3331 0 
L 469 0 
z
" transform="scale(0.015625)"/>
       <path id="ArialMT-6f" d="M 213 1659 
Q 213 2581 725 3025 
Q 1153 3394 1769 3394 
Q 2453 3394 2887 2945 
Q 3322 2497 3322 1706 
Q 3322 1066 3130 698 
Q 2938 331 2570 128 
Q 2203 -75 1769 -75 
Q 1072 -75 642 372 
Q 213 819 213 1659 
z
M 791 1659 
Q 791 1022 1069 705 
Q 1347 388 1769 388 
Q 2188 388 2466 706 
Q 2744 1025 2744 1678 
Q 2744 2294 2464 2611 
Q 2184 2928 1769 2928 
Q 1347 2928 1069 2612 
Q 791 2297 791 1659 
z
" transform="scale(0.015625)"/>
       <path id="ArialMT-67" d="M 319 -275 
L 866 -356 
Q 900 -609 1056 -725 
Q 1266 -881 1628 -881 
Q 2019 -881 2231 -725 
Q 2444 -569 2519 -288 
Q 2563 -116 2559 434 
Q 2191 0 1641 0 
Q 956 0 581 494 
Q 206 988 206 1678 
Q 206 2153 378 2554 
Q 550 2956 876 3175 
Q 1203 3394 1644 3394 
Q 2231 3394 2613 2919 
L 2613 3319 
L 3131 3319 
L 3131 450 
Q 3131 -325 2973 -648 
Q 2816 -972 2473 -1159 
Q 2131 -1347 1631 -1347 
Q 1038 -1347 672 -1080 
Q 306 -813 319 -275 
z
M 784 1719 
Q 784 1066 1043 766 
Q 1303 466 1694 466 
Q 2081 466 2343 764 
Q 2606 1063 2606 1700 
Q 2606 2309 2336 2618 
Q 2066 2928 1684 2928 
Q 1309 2928 1046 2623 
Q 784 2319 784 1719 
z
" transform="scale(0.015625)"/>
       <path id="ArialMT-56" d="M 1803 0 
L 28 4581 
L 684 4581 
L 1875 1253 
Q 2019 853 2116 503 
Q 2222 878 2363 1253 
L 3600 4581 
L 4219 4581 
L 2425 0 
L 1803 0 
z
" transform="scale(0.015625)"/>
      </defs>
      <use xlink:href="#ArialMT-4c"/>
      <use xlink:href="#ArialMT-6f" x="55.615234"/>
      <use xlink:href="#ArialMT-67" x="111.230469"/>
      <use xlink:href="#ArialMT-31" x="166.845703"/>
      <use xlink:href="#ArialMT-30" x="222.460938"/>
      <use xlink:href="#ArialMT-28" x="278.076172"/>
      <use xlink:href="#ArialMT-56" x="311.376953"/>
      <use xlink:href="#ArialMT-29" x="378.076172"/>
     </g>
    </g>
   </g>
   <g id="patch_3">
    <path d="M 90 320.4 
L 90 43.2 
" style="fill: none; stroke: #262626; stroke-width: 1.25; stroke-linejoin: miter; stroke-linecap: square"/>
   </g>
   <g id="patch_4">
    <path d="M 327.272727 320.4 
L 327.272727 43.2 
" style="fill: none; stroke: #262626; stroke-width: 1.25; stroke-linejoin: miter; stroke-linecap: square"/>
   </g>
   <g id="patch_5">
    <path d="M 90 320.4 
L 327.272727 320.4 
" style="fill: none; stroke: #262626; stroke-width: 1.25; stroke-linejoin: miter; stroke-linecap: square"/>
   </g>
   <g id="patch_6">
    <path d="M 90 43.2 
L 327.272727 43.2 
" style="fill: none; stroke: #262626; stroke-width: 1.25; stroke-linejoin: miter; stroke-linecap: square"/>
   </g>
   <g id="PolyCollection_1">
    <defs>
     <path id="m31101f0ef9" d="M 92.89357 -39.6 
L 92.89357 -39.6 
L 92.893965 -39.6 
L 92.897918 -39.6 
L 92.937446 -39.6 
L 93.068869 -39.6 
L 93.174005 -39.6 
L 93.506355 -39.6 
L 93.774582 -39.6 
L 94.602392 -39.6 
L 95.096578 -39.6 
L 96.476691 -39.6 
L 97.133945 -39.6 
L 98.658661 -39.6 
L 99.44302 -39.969849 
L 101.000648 -44.93181 
L 101.893031 -49.186581 
L 103.486563 -56.795546 
L 104.465312 -61.449267 
L 106.074195 -69.120776 
L 107.121809 -74.100432 
L 108.74062 -81.141695 
L 109.841291 -85.210921 
L 111.463704 -91.064819 
L 112.604495 -95.182406 
L 114.392008 -101.651243 
L 115.517516 -105.701435 
L 117.078964 -111.340661 
L 118.252051 -115.564568 
L 119.958468 -121.726968 
L 121.126877 -125.941758 
L 122.716528 -131.664119 
L 123.916267 -135.989281 
L 125.635546 -142.164337 
L 126.830414 -146.465779 
L 128.462731 -152.310116 
L 129.694765 -156.710945 
L 131.47187 -163.027878 
L 132.709864 -167.396737 
L 134.385099 -173.26921 
L 135.654495 -177.644667 
L 137.46106 -183.770253 
L 138.743064 -187.990818 
L 140.464056 -193.431422 
L 141.764967 -197.335957 
L 143.457251 -202.021401 
L 144.683637 -205.176045 
L 146.247822 -208.691089 
L 147.413228 -208.930133 
L 148.865573 -208.917515 
L 150.317918 -208.807868 
L 151.770263 -208.606243 
L 153.222609 -208.344993 
L 154.674954 -208.028988 
L 156.127299 -207.669749 
L 157.579645 -207.273948 
L 159.03199 -206.844776 
L 160.484335 -206.398043 
L 161.936681 -205.923211 
L 163.170497 -205.514009 
L 164.502561 -205.053268 
L 165.834624 -204.580399 
L 167.166687 -204.106865 
L 168.498751 -203.6199 
L 169.88192 -203.103881 
L 172.77549 -202.01449 
L 174.552912 -201.331851 
L 177.446482 -200.21091 
L 179.695277 -199.329349 
L 182.588847 -198.186459 
L 185.482417 -197.034404 
L 188.375987 -195.873891 
L 191.269556 -194.704775 
L 194.163126 -192.990339 
L 197.056696 -191.221395 
L 199.950266 -189.440623 
L 202.843836 -187.644743 
L 205.737406 -185.829321 
L 208.630976 -183.988596 
L 211.524545 -182.11526 
L 214.418115 -180.200182 
L 217.311685 -178.232062 
L 220.205255 -176.196966 
L 223.098825 -174.077684 
L 225.992395 -171.852826 
L 228.885964 -168.567399 
L 231.779534 -164.474776 
L 234.673104 -159.845157 
L 237.566674 -154.595531 
L 240.460244 -148.672202 
L 243.353814 -142.08489 
L 246.247384 -134.93104 
L 249.140953 -127.385485 
L 252.034523 -117.844675 
L 254.928093 -107.131076 
L 257.821663 -96.679101 
L 260.715233 -86.598393 
L 263.608803 -76.986626 
L 266.502372 -65.360929 
L 269.395942 -39.6 
L 272.289512 -39.6 
L 275.183082 -39.6 
L 278.076652 -39.6 
L 280.970222 -39.6 
L 283.863792 -39.6 
L 286.757361 -39.6 
L 289.650931 -39.6 
L 292.544501 -39.6 
L 295.438071 -39.6 
L 298.331641 -39.6 
L 301.225211 -39.6 
L 304.11878 -39.6 
L 307.01235 -39.6 
L 309.90592 -39.6 
L 312.79949 -39.6 
L 315.69306 -39.6 
L 318.58663 -39.6 
L 321.4802 -39.6 
L 324.373769 -39.6 
L 324.379157 -39.6 
L 324.379157 -58.209324 
L 324.379157 -58.209324 
L 324.373769 -58.213352 
L 321.4802 -60.416628 
L 318.58663 -62.696853 
L 315.69306 -65.066582 
L 312.79949 -67.536114 
L 309.90592 -70.116304 
L 307.01235 -72.819658 
L 304.11878 -75.655294 
L 301.225211 -78.628963 
L 298.331641 -81.922969 
L 295.438071 -85.360519 
L 292.544501 -89.13028 
L 289.650931 -105.447766 
L 286.757361 -117.03194 
L 283.863792 -125.205912 
L 280.970222 -131.567992 
L 278.076652 -136.855063 
L 275.183082 -141.438231 
L 272.289512 -145.524862 
L 269.395942 -150.226679 
L 266.502372 -154.483601 
L 263.608803 -158.190165 
L 260.715233 -161.478705 
L 257.821663 -168.980423 
L 254.928093 -174.512585 
L 252.034523 -178.842006 
L 249.140953 -182.444183 
L 246.247384 -185.555108 
L 243.353814 -188.310109 
L 240.460244 -190.794599 
L 237.566674 -193.06639 
L 234.673104 -195.166802 
L 231.779534 -197.126697 
L 228.885964 -198.969991 
L 225.992395 -200.715789 
L 223.098825 -202.379746 
L 220.205255 -203.974952 
L 217.311685 -205.512515 
L 214.418115 -207.001959 
L 211.524545 -208.451485 
L 208.630976 -209.868159 
L 205.737406 -211.258028 
L 202.843836 -212.626217 
L 199.950266 -213.976982 
L 197.056696 -215.313767 
L 194.163126 -216.639233 
L 191.269556 -217.955286 
L 188.375987 -219.263087 
L 185.482417 -220.563038 
L 182.588847 -221.854743 
L 179.695277 -223.136911 
L 177.446482 -224.126248 
L 174.552912 -225.383979 
L 172.77549 -226.150442 
L 169.88192 -227.374338 
L 168.498751 -227.948782 
L 167.166687 -228.495071 
L 165.834624 -229.02941 
L 164.502561 -229.555049 
L 163.170497 -230.072029 
L 161.936681 -230.534289 
L 160.484335 -231.064398 
L 159.03199 -231.566396 
L 157.579645 -232.044686 
L 156.127299 -232.483734 
L 154.674954 -232.891419 
L 153.222609 -233.246591 
L 151.770263 -233.542511 
L 150.317918 -233.762706 
L 148.865573 -233.892842 
L 147.413228 -233.907787 
L 146.247822 -233.816566 
L 144.683637 -233.510544 
L 143.457251 -233.087447 
L 141.764967 -232.123362 
L 140.464056 -231.039497 
L 138.743064 -228.922553 
L 137.46106 -227.281067 
L 135.654495 -226.943986 
L 134.385099 -226.478248 
L 132.709864 -225.45603 
L 131.47187 -224.30869 
L 129.694765 -221.799869 
L 128.462731 -219.320988 
L 126.830414 -214.789576 
L 125.635546 -210.502256 
L 123.916267 -203.199596 
L 122.716528 -197.35163 
L 121.126877 -189.056375 
L 119.958468 -182.580269 
L 118.252051 -172.904135 
L 117.078964 -166.108853 
L 115.517516 -156.983805 
L 114.392008 -150.365029 
L 112.604495 -139.829467 
L 111.463704 -133.108819 
L 109.841291 -123.480108 
L 108.74062 -116.979487 
L 107.121809 -107.398546 
L 106.074195 -101.195352 
L 104.465312 -91.6835 
L 103.486563 -85.87589 
L 101.893031 -76.454244 
L 101.000648 -71.159737 
L 99.44302 -62.758299 
L 98.658661 -58.65891 
L 97.133945 -50.879224 
L 96.476691 -47.37428 
L 95.096578 -39.882042 
L 94.602392 -39.6 
L 93.774582 -39.6 
L 93.506355 -39.6 
L 93.174005 -39.6 
L 93.068869 -39.6 
L 92.937446 -39.6 
L 92.897918 -39.6 
L 92.893965 -39.6 
L 92.89357 -39.6 
z
" style="stroke: #000000; stroke-opacity: 0.2"/>
    </defs>
    <g clip-path="url(#p888b5fa04c)">
     <use xlink:href="#m31101f0ef9" x="0" y="360" style="fill-opacity: 0.2; stroke: #000000; stroke-opacity: 0.2"/>
    </g>
   </g>
   <g id="PathCollection_1">
    <defs>
     <path id="m93d8f66341" d="M 0 4.330127 
C 1.148363 4.330127 2.249847 3.873878 3.061862 3.061862 
C 3.873878 2.249847 4.330127 1.148363 4.330127 0 
C 4.330127 -1.148363 3.873878 -2.249847 3.061862 -3.061862 
C 2.249847 -3.873878 1.148363 -4.330127 0 -4.330127 
C -1.148363 -4.330127 -2.249847 -3.873878 -3.061862 -3.061862 
C -3.873878 -2.249847 -4.330127 -1.148363 -4.330127 0 
C -4.330127 1.148363 -3.873878 2.249847 -3.061862 3.061862 
C -2.249847 3.873878 -1.148363 4.330127 0 4.330127 
z
" style="stroke: #808080; stroke-opacity: 0.8"/>
    </defs>
    <g clip-path="url(#p888b5fa04c)">
     <use xlink:href="#m93d8f66341" x="92.89357" y="320.4" style="fill: #808080; fill-opacity: 0.8; stroke: #808080; stroke-opacity: 0.8"/>
     <use xlink:href="#m93d8f66341" x="121.829268" y="191.915937" style="fill: #808080; fill-opacity: 0.8; stroke: #808080; stroke-opacity: 0.8"/>
     <use xlink:href="#m93d8f66341" x="150.764967" y="139.133896" style="fill: #808080; fill-opacity: 0.8; stroke: #808080; stroke-opacity: 0.8"/>
     <use xlink:href="#m93d8f66341" x="179.700665" y="123.121682" style="fill: #808080; fill-opacity: 0.8; stroke: #808080; stroke-opacity: 0.8"/>
     <use xlink:href="#m93d8f66341" x="208.636364" y="148.291014" style="fill: #808080; fill-opacity: 0.8; stroke: #808080; stroke-opacity: 0.8"/>
     <use xlink:href="#m93d8f66341" x="237.572062" y="180.605232" style="fill: #808080; fill-opacity: 0.8; stroke: #808080; stroke-opacity: 0.8"/>
     <use xlink:href="#m93d8f66341" x="266.507761" y="145.787689" style="fill: #808080; fill-opacity: 0.8; stroke: #808080; stroke-opacity: 0.8"/>
     <use xlink:href="#m93d8f66341" x="295.443459" y="237.968504" style="fill: #808080; fill-opacity: 0.8; stroke: #808080; stroke-opacity: 0.8"/>
    </g>
   </g>
   <g id="PathCollection_2">
    <defs>
     <path id="m17919a8229" d="M 0 4.330127 
C 1.148363 4.330127 2.249847 3.873878 3.061862 3.061862 
C 3.873878 2.249847 4.330127 1.148363 4.330127 0 
C 4.330127 -1.148363 3.873878 -2.249847 3.061862 -3.061862 
C 2.249847 -3.873878 1.148363 -4.330127 0 -4.330127 
C -1.148363 -4.330127 -2.249847 -3.873878 -3.061862 -3.061862 
C -3.873878 -2.249847 -4.330127 -1.148363 -4.330127 0 
C -4.330127 1.148363 -3.873878 2.249847 -3.061862 3.061862 
C -2.249847 3.873878 -1.148363 4.330127 0 4.330127 
z
" style="stroke: #800080; stroke-opacity: 0.8"/>
    </defs>
    <g clip-path="url(#p888b5fa04c)">
     <use xlink:href="#m17919a8229" x="92.89357" y="320.4" style="fill: #800080; fill-opacity: 0.8; stroke: #800080; stroke-opacity: 0.8"/>
     <use xlink:href="#m17919a8229" x="121.829268" y="213.998005" style="fill: #800080; fill-opacity: 0.8; stroke: #800080; stroke-opacity: 0.8"/>
     <use xlink:href="#m17919a8229" x="150.764967" y="162.383865" style="fill: #800080; fill-opacity: 0.8; stroke: #800080; stroke-opacity: 0.8"/>
     <use xlink:href="#m17919a8229" x="179.700665" y="137.460582" style="fill: #800080; fill-opacity: 0.8; stroke: #800080; stroke-opacity: 0.8"/>
     <use xlink:href="#m17919a8229" x="208.636364" y="101.270794" style="fill: #800080; fill-opacity: 0.8; stroke: #800080; stroke-opacity: 0.8"/>
     <use xlink:href="#m17919a8229" x="237.572062" y="128.485686" style="fill: #800080; fill-opacity: 0.8; stroke: #800080; stroke-opacity: 0.8"/>
     <use xlink:href="#m17919a8229" x="266.507761" y="173.068271" style="fill: #800080; fill-opacity: 0.8; stroke: #800080; stroke-opacity: 0.8"/>
     <use xlink:href="#m17919a8229" x="295.443459" y="320.4" style="fill: #800080; fill-opacity: 0.8; stroke: #800080; stroke-opacity: 0.8"/>
    </g>
   </g>
   <g id="PathCollection_3">
    <defs>
     <path id="m21ad920477" d="M 0 4.330127 
C 1.148363 4.330127 2.249847 3.873878 3.061862 3.061862 
C 3.873878 2.249847 4.330127 1.148363 4.330127 0 
C 4.330127 -1.148363 3.873878 -2.249847 3.061862 -3.061862 
C 2.249847 -3.873878 1.148363 -4.330127 0 -4.330127 
C -1.148363 -4.330127 -2.249847 -3.873878 -3.061862 -3.061862 
C -3.873878 -2.249847 -4.330127 -1.148363 -4.330127 0 
C -4.330127 1.148363 -3.873878 2.249847 -3.061862 3.061862 
C -2.249847 3.873878 -1.148363 4.330127 0 4.330127 
z
" style="stroke: #ff00ff; stroke-opacity: 0.8"/>
    </defs>
    <g clip-path="url(#p888b5fa04c)">
     <use xlink:href="#m21ad920477" x="92.89357" y="320.4" style="fill: #ff00ff; fill-opacity: 0.8; stroke: #ff00ff; stroke-opacity: 0.8"/>
     <use xlink:href="#m21ad920477" x="121.829268" y="191.915937" style="fill: #ff00ff; fill-opacity: 0.8; stroke: #ff00ff; stroke-opacity: 0.8"/>
     <use xlink:href="#m21ad920477" x="150.764967" y="144.554018" style="fill: #ff00ff; fill-opacity: 0.8; stroke: #ff00ff; stroke-opacity: 0.8"/>
     <use xlink:href="#m21ad920477" x="179.700665" y="143.938254" style="fill: #ff00ff; fill-opacity: 0.8; stroke: #ff00ff; stroke-opacity: 0.8"/>
     <use xlink:href="#m21ad920477" x="237.572062" y="187.093533" style="fill: #ff00ff; fill-opacity: 0.8; stroke: #ff00ff; stroke-opacity: 0.8"/>
     <use xlink:href="#m21ad920477" x="266.507761" y="320.4" style="fill: #ff00ff; fill-opacity: 0.8; stroke: #ff00ff; stroke-opacity: 0.8"/>
     <use xlink:href="#m21ad920477" x="295.443459" y="320.4" style="fill: #ff00ff; fill-opacity: 0.8; stroke: #ff00ff; stroke-opacity: 0.8"/>
    </g>
   </g>
   <g id="PathCollection_4">
    <defs>
     <path id="madc865c153" d="M 0 4.330127 
C 1.148363 4.330127 2.249847 3.873878 3.061862 3.061862 
C 3.873878 2.249847 4.330127 1.148363 4.330127 0 
C 4.330127 -1.148363 3.873878 -2.249847 3.061862 -3.061862 
C 2.249847 -3.873878 1.148363 -4.330127 0 -4.330127 
C -1.148363 -4.330127 -2.249847 -3.873878 -3.061862 -3.061862 
C -3.873878 -2.249847 -4.330127 -1.148363 -4.330127 0 
C -4.330127 1.148363 -3.873878 2.249847 -3.061862 3.061862 
C -2.249847 3.873878 -1.148363 4.330127 0 4.330127 
z
" style="stroke: #ff0000; stroke-opacity: 0.8"/>
    </defs>
    <g clip-path="url(#p888b5fa04c)">
     <use xlink:href="#madc865c153" x="92.89357" y="320.4" style="fill: #ff0000; fill-opacity: 0.8; stroke: #ff0000; stroke-opacity: 0.8"/>
     <use xlink:href="#madc865c153" x="121.829268" y="191.915937" style="fill: #ff0000; fill-opacity: 0.8; stroke: #ff0000; stroke-opacity: 0.8"/>
     <use xlink:href="#madc865c153" x="150.764967" y="144.554018" style="fill: #ff0000; fill-opacity: 0.8; stroke: #ff0000; stroke-opacity: 0.8"/>
     <use xlink:href="#madc865c153" x="179.700665" y="137.536526" style="fill: #ff0000; fill-opacity: 0.8; stroke: #ff0000; stroke-opacity: 0.8"/>
     <use xlink:href="#madc865c153" x="208.636364" y="161.939482" style="fill: #ff0000; fill-opacity: 0.8; stroke: #ff0000; stroke-opacity: 0.8"/>
     <use xlink:href="#madc865c153" x="237.572062" y="126.315559" style="fill: #ff0000; fill-opacity: 0.8; stroke: #ff0000; stroke-opacity: 0.8"/>
     <use xlink:href="#madc865c153" x="266.507761" y="144.892106" style="fill: #ff0000; fill-opacity: 0.8; stroke: #ff0000; stroke-opacity: 0.8"/>
     <use xlink:href="#madc865c153" x="295.443459" y="189.192474" style="fill: #ff0000; fill-opacity: 0.8; stroke: #ff0000; stroke-opacity: 0.8"/>
    </g>
   </g>
   <g id="PathCollection_5">
    <defs>
     <path id="m07df1240db" d="M 0 4.330127 
C 1.148363 4.330127 2.249847 3.873878 3.061862 3.061862 
C 3.873878 2.249847 4.330127 1.148363 4.330127 0 
C 4.330127 -1.148363 3.873878 -2.249847 3.061862 -3.061862 
C 2.249847 -3.873878 1.148363 -4.330127 0 -4.330127 
C -1.148363 -4.330127 -2.249847 -3.873878 -3.061862 -3.061862 
C -3.873878 -2.249847 -4.330127 -1.148363 -4.330127 0 
C -4.330127 1.148363 -3.873878 2.249847 -3.061862 3.061862 
C -2.249847 3.873878 -1.148363 4.330127 0 4.330127 
z
" style="stroke: #ffd700; stroke-opacity: 0.8"/>
    </defs>
    <g clip-path="url(#p888b5fa04c)">
     <use xlink:href="#m07df1240db" x="92.89357" y="320.4" style="fill: #ffd700; fill-opacity: 0.8; stroke: #ffd700; stroke-opacity: 0.8"/>
     <use xlink:href="#m07df1240db" x="121.829268" y="191.915937" style="fill: #ffd700; fill-opacity: 0.8; stroke: #ffd700; stroke-opacity: 0.8"/>
     <use xlink:href="#m07df1240db" x="150.764967" y="144.554018" style="fill: #ffd700; fill-opacity: 0.8; stroke: #ffd700; stroke-opacity: 0.8"/>
     <use xlink:href="#m07df1240db" x="179.700665" y="122.307529" style="fill: #ffd700; fill-opacity: 0.8; stroke: #ffd700; stroke-opacity: 0.8"/>
     <use xlink:href="#m07df1240db" x="208.636364" y="113.913078" style="fill: #ffd700; fill-opacity: 0.8; stroke: #ffd700; stroke-opacity: 0.8"/>
     <use xlink:href="#m07df1240db" x="237.572062" y="237.968504" style="fill: #ffd700; fill-opacity: 0.8; stroke: #ffd700; stroke-opacity: 0.8"/>
     <use xlink:href="#m07df1240db" x="266.507761" y="320.4" style="fill: #ffd700; fill-opacity: 0.8; stroke: #ffd700; stroke-opacity: 0.8"/>
     <use xlink:href="#m07df1240db" x="295.443459" y="320.4" style="fill: #ffd700; fill-opacity: 0.8; stroke: #ffd700; stroke-opacity: 0.8"/>
    </g>
   </g>
   <g id="PathCollection_6">
    <defs>
     <path id="m1b0698e371" d="M 0 4.330127 
C 1.148363 4.330127 2.249847 3.873878 3.061862 3.061862 
C 3.873878 2.249847 4.330127 1.148363 4.330127 0 
C 4.330127 -1.148363 3.873878 -2.249847 3.061862 -3.061862 
C 2.249847 -3.873878 1.148363 -4.330127 0 -4.330127 
C -1.148363 -4.330127 -2.249847 -3.873878 -3.061862 -3.061862 
C -3.873878 -2.249847 -4.330127 -1.148363 -4.330127 0 
C -4.330127 1.148363 -3.873878 2.249847 -3.061862 3.061862 
C -2.249847 3.873878 -1.148363 4.330127 0 4.330127 
z
" style="stroke: #ff8c00; stroke-opacity: 0.8"/>
    </defs>
    <g clip-path="url(#p888b5fa04c)">
     <use xlink:href="#m1b0698e371" x="92.89357" y="320.4" style="fill: #ff8c00; fill-opacity: 0.8; stroke: #ff8c00; stroke-opacity: 0.8"/>
     <use xlink:href="#m1b0698e371" x="121.829268" y="191.915937" style="fill: #ff8c00; fill-opacity: 0.8; stroke: #ff8c00; stroke-opacity: 0.8"/>
     <use xlink:href="#m1b0698e371" x="150.764967" y="160.951584" style="fill: #ff8c00; fill-opacity: 0.8; stroke: #ff8c00; stroke-opacity: 0.8"/>
     <use xlink:href="#m1b0698e371" x="179.700665" y="212.952855" style="fill: #ff8c00; fill-opacity: 0.8; stroke: #ff8c00; stroke-opacity: 0.8"/>
     <use xlink:href="#m1b0698e371" x="208.636364" y="221.800852" style="fill: #ff8c00; fill-opacity: 0.8; stroke: #ff8c00; stroke-opacity: 0.8"/>
     <use xlink:href="#m1b0698e371" x="237.572062" y="320.4" style="fill: #ff8c00; fill-opacity: 0.8; stroke: #ff8c00; stroke-opacity: 0.8"/>
     <use xlink:href="#m1b0698e371" x="266.507761" y="320.4" style="fill: #ff8c00; fill-opacity: 0.8; stroke: #ff8c00; stroke-opacity: 0.8"/>
     <use xlink:href="#m1b0698e371" x="295.443459" y="320.4" style="fill: #ff8c00; fill-opacity: 0.8; stroke: #ff8c00; stroke-opacity: 0.8"/>
    </g>
   </g>
   <g id="PathCollection_7">
    <defs>
     <path id="m677db90d71" d="M 0 4.330127 
C 1.148363 4.330127 2.249847 3.873878 3.061862 3.061862 
C 3.873878 2.249847 4.330127 1.148363 4.330127 0 
C 4.330127 -1.148363 3.873878 -2.249847 3.061862 -3.061862 
C 2.249847 -3.873878 1.148363 -4.330127 0 -4.330127 
C -1.148363 -4.330127 -2.249847 -3.873878 -3.061862 -3.061862 
C -3.873878 -2.249847 -4.330127 -1.148363 -4.330127 0 
C -4.330127 1.148363 -3.873878 2.249847 -3.061862 3.061862 
C -2.249847 3.873878 -1.148363 4.330127 0 4.330127 
z
" style="stroke: #8b4513; stroke-opacity: 0.8"/>
    </defs>
    <g clip-path="url(#p888b5fa04c)">
     <use xlink:href="#m677db90d71" x="92.89357" y="320.4" style="fill: #8b4513; fill-opacity: 0.8; stroke: #8b4513; stroke-opacity: 0.8"/>
     <use xlink:href="#m677db90d71" x="121.829268" y="191.915937" style="fill: #8b4513; fill-opacity: 0.8; stroke: #8b4513; stroke-opacity: 0.8"/>
     <use xlink:href="#m677db90d71" x="150.764967" y="126.942083" style="fill: #8b4513; fill-opacity: 0.8; stroke: #8b4513; stroke-opacity: 0.8"/>
     <use xlink:href="#m677db90d71" x="179.700665" y="109.928387" style="fill: #8b4513; fill-opacity: 0.8; stroke: #8b4513; stroke-opacity: 0.8"/>
     <use xlink:href="#m677db90d71" x="208.636364" y="160.004952" style="fill: #8b4513; fill-opacity: 0.8; stroke: #8b4513; stroke-opacity: 0.8"/>
     <use xlink:href="#m677db90d71" x="237.572062" y="230.617512" style="fill: #8b4513; fill-opacity: 0.8; stroke: #8b4513; stroke-opacity: 0.8"/>
     <use xlink:href="#m677db90d71" x="266.507761" y="320.4" style="fill: #8b4513; fill-opacity: 0.8; stroke: #8b4513; stroke-opacity: 0.8"/>
     <use xlink:href="#m677db90d71" x="295.443459" y="320.4" style="fill: #8b4513; fill-opacity: 0.8; stroke: #8b4513; stroke-opacity: 0.8"/>
    </g>
   </g>
   <g id="PathCollection_8">
    <defs>
     <path id="m14acac30fe" d="M 0 4.330127 
C 1.148363 4.330127 2.249847 3.873878 3.061862 3.061862 
C 3.873878 2.249847 4.330127 1.148363 4.330127 0 
C 4.330127 -1.148363 3.873878 -2.249847 3.061862 -3.061862 
C 2.249847 -3.873878 1.148363 -4.330127 0 -4.330127 
C -1.148363 -4.330127 -2.249847 -3.873878 -3.061862 -3.061862 
C -3.873878 -2.249847 -4.330127 -1.148363 -4.330127 0 
C -4.330127 1.148363 -3.873878 2.249847 -3.061862 3.061862 
C -2.249847 3.873878 -1.148363 4.330127 0 4.330127 
z
" style="stroke: #0000cd; stroke-opacity: 0.8"/>
    </defs>
    <g clip-path="url(#p888b5fa04c)">
     <use xlink:href="#m14acac30fe" x="92.89357" y="320.4" style="fill: #0000cd; fill-opacity: 0.8; stroke: #0000cd; stroke-opacity: 0.8"/>
     <use xlink:href="#m14acac30fe" x="121.829268" y="177.379132" style="fill: #0000cd; fill-opacity: 0.8; stroke: #0000cd; stroke-opacity: 0.8"/>
     <use xlink:href="#m14acac30fe" x="150.764967" y="74.000545" style="fill: #0000cd; fill-opacity: 0.8; stroke: #0000cd; stroke-opacity: 0.8"/>
     <use xlink:href="#m14acac30fe" x="179.700665" y="107.073628" style="fill: #0000cd; fill-opacity: 0.8; stroke: #0000cd; stroke-opacity: 0.8"/>
     <use xlink:href="#m14acac30fe" x="208.636364" y="127.998703" style="fill: #0000cd; fill-opacity: 0.8; stroke: #0000cd; stroke-opacity: 0.8"/>
     <use xlink:href="#m14acac30fe" x="237.572062" y="144.344238" style="fill: #0000cd; fill-opacity: 0.8; stroke: #0000cd; stroke-opacity: 0.8"/>
     <use xlink:href="#m14acac30fe" x="266.507761" y="320.4" style="fill: #0000cd; fill-opacity: 0.8; stroke: #0000cd; stroke-opacity: 0.8"/>
     <use xlink:href="#m14acac30fe" x="295.443459" y="320.4" style="fill: #0000cd; fill-opacity: 0.8; stroke: #0000cd; stroke-opacity: 0.8"/>
    </g>
   </g>
   <g id="PathCollection_9">
    <defs>
     <path id="m1b81c89c95" d="M 0 4.330127 
C 1.148363 4.330127 2.249847 3.873878 3.061862 3.061862 
C 3.873878 2.249847 4.330127 1.148363 4.330127 0 
C 4.330127 -1.148363 3.873878 -2.249847 3.061862 -3.061862 
C 2.249847 -3.873878 1.148363 -4.330127 0 -4.330127 
C -1.148363 -4.330127 -2.249847 -3.873878 -3.061862 -3.061862 
C -3.873878 -2.249847 -4.330127 -1.148363 -4.330127 0 
C -4.330127 1.148363 -3.873878 2.249847 -3.061862 3.061862 
C -2.249847 3.873878 -1.148363 4.330127 0 4.330127 
z
" style="stroke: #1e90ff; stroke-opacity: 0.8"/>
    </defs>
    <g clip-path="url(#p888b5fa04c)">
     <use xlink:href="#m1b81c89c95" x="92.89357" y="320.4" style="fill: #1e90ff; fill-opacity: 0.8; stroke: #1e90ff; stroke-opacity: 0.8"/>
     <use xlink:href="#m1b81c89c95" x="121.829268" y="153.262289" style="fill: #1e90ff; fill-opacity: 0.8; stroke: #1e90ff; stroke-opacity: 0.8"/>
     <use xlink:href="#m1b81c89c95" x="150.764967" y="102.335511" style="fill: #1e90ff; fill-opacity: 0.8; stroke: #1e90ff; stroke-opacity: 0.8"/>
     <use xlink:href="#m1b81c89c95" x="208.636364" y="75.799512" style="fill: #1e90ff; fill-opacity: 0.8; stroke: #1e90ff; stroke-opacity: 0.8"/>
     <use xlink:href="#m1b81c89c95" x="237.572062" y="170.081031" style="fill: #1e90ff; fill-opacity: 0.8; stroke: #1e90ff; stroke-opacity: 0.8"/>
     <use xlink:href="#m1b81c89c95" x="266.507761" y="320.4" style="fill: #1e90ff; fill-opacity: 0.8; stroke: #1e90ff; stroke-opacity: 0.8"/>
     <use xlink:href="#m1b81c89c95" x="295.443459" y="320.4" style="fill: #1e90ff; fill-opacity: 0.8; stroke: #1e90ff; stroke-opacity: 0.8"/>
    </g>
   </g>
   <g id="PathCollection_10">
    <defs>
     <path id="m732025569f" d="M 0 4.330127 
C 1.148363 4.330127 2.249847 3.873878 3.061862 3.061862 
C 3.873878 2.249847 4.330127 1.148363 4.330127 0 
C 4.330127 -1.148363 3.873878 -2.249847 3.061862 -3.061862 
C 2.249847 -3.873878 1.148363 -4.330127 0 -4.330127 
C -1.148363 -4.330127 -2.249847 -3.873878 -3.061862 -3.061862 
C -3.873878 -2.249847 -4.330127 -1.148363 -4.330127 0 
C -4.330127 1.148363 -3.873878 2.249847 -3.061862 3.061862 
C -2.249847 3.873878 -1.148363 4.330127 0 4.330127 
z
" style="stroke: #40e0d0; stroke-opacity: 0.8"/>
    </defs>
    <g clip-path="url(#p888b5fa04c)">
     <use xlink:href="#m732025569f" x="92.89357" y="320.4" style="fill: #40e0d0; fill-opacity: 0.8; stroke: #40e0d0; stroke-opacity: 0.8"/>
     <use xlink:href="#m732025569f" x="121.829268" y="205.612065" style="fill: #40e0d0; fill-opacity: 0.8; stroke: #40e0d0; stroke-opacity: 0.8"/>
     <use xlink:href="#m732025569f" x="150.764967" y="103.221336" style="fill: #40e0d0; fill-opacity: 0.8; stroke: #40e0d0; stroke-opacity: 0.8"/>
     <use xlink:href="#m732025569f" x="179.700665" y="167.996685" style="fill: #40e0d0; fill-opacity: 0.8; stroke: #40e0d0; stroke-opacity: 0.8"/>
     <use xlink:href="#m732025569f" x="208.636364" y="139.288802" style="fill: #40e0d0; fill-opacity: 0.8; stroke: #40e0d0; stroke-opacity: 0.8"/>
     <use xlink:href="#m732025569f" x="237.572062" y="145.676899" style="fill: #40e0d0; fill-opacity: 0.8; stroke: #40e0d0; stroke-opacity: 0.8"/>
     <use xlink:href="#m732025569f" x="266.507761" y="148.735746" style="fill: #40e0d0; fill-opacity: 0.8; stroke: #40e0d0; stroke-opacity: 0.8"/>
     <use xlink:href="#m732025569f" x="295.443459" y="320.4" style="fill: #40e0d0; fill-opacity: 0.8; stroke: #40e0d0; stroke-opacity: 0.8"/>
    </g>
   </g>
   <g id="PathCollection_11">
    <defs>
     <path id="m3bb3976ba3" d="M 0 4.330127 
C 1.148363 4.330127 2.249847 3.873878 3.061862 3.061862 
C 3.873878 2.249847 4.330127 1.148363 4.330127 0 
C 4.330127 -1.148363 3.873878 -2.249847 3.061862 -3.061862 
C 2.249847 -3.873878 1.148363 -4.330127 0 -4.330127 
C -1.148363 -4.330127 -2.249847 -3.873878 -3.061862 -3.061862 
C -3.873878 -2.249847 -4.330127 -1.148363 -4.330127 0 
C -4.330127 1.148363 -3.873878 2.249847 -3.061862 3.061862 
C -2.249847 3.873878 -1.148363 4.330127 0 4.330127 
z
" style="stroke: #006400; stroke-opacity: 0.8"/>
    </defs>
    <g clip-path="url(#p888b5fa04c)">
     <use xlink:href="#m3bb3976ba3" x="92.89357" y="320.4" style="fill: #006400; fill-opacity: 0.8; stroke: #006400; stroke-opacity: 0.8"/>
     <use xlink:href="#m3bb3976ba3" x="121.829268" y="200.196276" style="fill: #006400; fill-opacity: 0.8; stroke: #006400; stroke-opacity: 0.8"/>
     <use xlink:href="#m3bb3976ba3" x="150.764967" y="140.611811" style="fill: #006400; fill-opacity: 0.8; stroke: #006400; stroke-opacity: 0.8"/>
     <use xlink:href="#m3bb3976ba3" x="179.700665" y="223.076719" style="fill: #006400; fill-opacity: 0.8; stroke: #006400; stroke-opacity: 0.8"/>
     <use xlink:href="#m3bb3976ba3" x="208.636364" y="320.4" style="fill: #006400; fill-opacity: 0.8; stroke: #006400; stroke-opacity: 0.8"/>
     <use xlink:href="#m3bb3976ba3" x="237.572062" y="320.4" style="fill: #006400; fill-opacity: 0.8; stroke: #006400; stroke-opacity: 0.8"/>
     <use xlink:href="#m3bb3976ba3" x="266.507761" y="320.4" style="fill: #006400; fill-opacity: 0.8; stroke: #006400; stroke-opacity: 0.8"/>
     <use xlink:href="#m3bb3976ba3" x="295.443459" y="320.4" style="fill: #006400; fill-opacity: 0.8; stroke: #006400; stroke-opacity: 0.8"/>
    </g>
   </g>
   <g id="PathCollection_12">
    <defs>
     <path id="m9a55138cf5" d="M 0 4.330127 
C 1.148363 4.330127 2.249847 3.873878 3.061862 3.061862 
C 3.873878 2.249847 4.330127 1.148363 4.330127 0 
C 4.330127 -1.148363 3.873878 -2.249847 3.061862 -3.061862 
C 2.249847 -3.873878 1.148363 -4.330127 0 -4.330127 
C -1.148363 -4.330127 -2.249847 -3.873878 -3.061862 -3.061862 
C -3.873878 -2.249847 -4.330127 -1.148363 -4.330127 0 
C -4.330127 1.148363 -3.873878 2.249847 -3.061862 3.061862 
C -2.249847 3.873878 -1.148363 4.330127 0 4.330127 
z
" style="stroke: #7cfc00; stroke-opacity: 0.8"/>
    </defs>
    <g clip-path="url(#p888b5fa04c)">
     <use xlink:href="#m9a55138cf5" x="92.89357" y="320.4" style="fill: #7cfc00; fill-opacity: 0.8; stroke: #7cfc00; stroke-opacity: 0.8"/>
     <use xlink:href="#m9a55138cf5" x="121.829268" y="320.4" style="fill: #7cfc00; fill-opacity: 0.8; stroke: #7cfc00; stroke-opacity: 0.8"/>
     <use xlink:href="#m9a55138cf5" x="150.764967" y="212.003574" style="fill: #7cfc00; fill-opacity: 0.8; stroke: #7cfc00; stroke-opacity: 0.8"/>
     <use xlink:href="#m9a55138cf5" x="179.700665" y="191.23392" style="fill: #7cfc00; fill-opacity: 0.8; stroke: #7cfc00; stroke-opacity: 0.8"/>
     <use xlink:href="#m9a55138cf5" x="208.636364" y="103.443811" style="fill: #7cfc00; fill-opacity: 0.8; stroke: #7cfc00; stroke-opacity: 0.8"/>
     <use xlink:href="#m9a55138cf5" x="237.572062" y="114.258335" style="fill: #7cfc00; fill-opacity: 0.8; stroke: #7cfc00; stroke-opacity: 0.8"/>
     <use xlink:href="#m9a55138cf5" x="266.507761" y="157.865939" style="fill: #7cfc00; fill-opacity: 0.8; stroke: #7cfc00; stroke-opacity: 0.8"/>
     <use xlink:href="#m9a55138cf5" x="295.443459" y="320.4" style="fill: #7cfc00; fill-opacity: 0.8; stroke: #7cfc00; stroke-opacity: 0.8"/>
    </g>
   </g>
   <g id="line2d_1">
    <path d="M 92.89357 320.4 
L 92.893965 320.4 
L 92.897918 320.4 
L 92.937446 320.4 
L 93.068869 320.4 
L 93.174005 320.4 
L 93.506355 320.4 
L 93.774582 320.4 
L 94.602392 320.4 
L 95.096578 320.4 
L 96.476691 318.042216 
L 97.133945 314.687124 
L 98.658661 307.388463 
L 99.44302 303.784169 
L 101.000648 296.660252 
L 101.893031 292.623688 
L 103.486563 285.38033 
L 104.465312 280.96028 
L 106.074195 273.652079 
L 107.121809 268.920055 
L 108.74062 261.567149 
L 109.841291 256.594087 
L 111.463704 249.225957 
L 112.604495 244.071359 
L 114.392008 235.940483 
L 115.517516 230.859267 
L 117.078964 223.784128 
L 118.252051 218.494409 
L 119.958468 210.769602 
L 121.126877 205.522468 
L 122.716528 198.381083 
L 123.916267 193.041579 
L 125.635546 185.424296 
L 126.830414 180.229131 
L 128.462731 173.259191 
L 129.694765 168.177504 
L 131.47187 161.200582 
L 132.709864 156.697793 
L 134.385099 151.208841 
L 135.654495 147.598915 
L 137.46106 143.391606 
L 138.743064 141.060702 
L 140.464056 138.731809 
L 141.764967 137.489056 
L 143.457251 136.405663 
L 144.683637 135.917653 
L 146.247822 135.570365 
L 147.413228 135.470782 
L 148.865573 135.494341 
L 150.317918 135.64929 
L 151.770263 135.908685 
L 153.222609 136.25213 
L 154.674954 136.663941 
L 156.127299 137.131869 
L 157.579645 137.646212 
L 159.03199 138.19919 
L 160.484335 138.784503 
L 161.936681 139.397001 
L 163.170497 139.935556 
L 164.502561 140.53303 
L 165.834624 141.144913 
L 167.166687 141.76923 
L 168.498751 142.404303 
L 169.88192 143.073595 
L 172.77549 144.500467 
L 174.552912 145.391844 
L 177.446482 146.862073 
L 179.695277 148.018204 
L 182.588847 149.520673 
L 185.482417 151.038235 
L 188.375987 152.570733 
L 191.269556 154.119499 
L 194.163126 155.687308 
L 197.056696 157.278386 
L 199.950266 158.898435 
L 202.843836 160.554688 
L 205.737406 162.255978 
L 208.630976 164.012844 
L 211.524545 165.83768 
L 214.418115 167.744958 
L 217.311685 169.751554 
L 220.205255 171.877212 
L 223.098825 174.1452 
L 225.992395 176.583193 
L 228.885964 179.224437 
L 231.779534 182.109166 
L 234.673104 185.286186 
L 237.566674 188.814142 
L 240.460244 192.761421 
L 243.353814 197.202301 
L 246.247384 202.206189 
L 249.140953 207.816114 
L 252.034523 214.019786 
L 254.928093 220.728392 
L 257.821663 227.783856 
L 260.715233 234.998018 
L 263.608803 242.197902 
L 266.502372 249.251482 
L 269.395942 256.070551 
L 272.289512 262.602017 
L 275.183082 268.817459 
L 278.076652 274.7049 
L 280.970222 280.26312 
L 283.863792 285.498097 
L 286.757361 290.420572 
L 289.650931 295.044467 
L 292.544501 299.385767 
L 295.438071 303.46172 
L 298.331641 307.290214 
L 301.225211 310.889287 
L 304.11878 314.276862 
L 307.01235 317.470386 
L 309.90592 320.4 
L 312.79949 320.4 
L 315.69306 320.4 
L 318.58663 320.4 
L 321.4802 320.4 
L 324.373769 320.4 
L 324.379157 320.4 
" clip-path="url(#p888b5fa04c)" style="fill: none; stroke: #000000; stroke-width: 1.5; stroke-linecap: round"/>
   </g>
  </g>
  <g id="axes_2">
   <g id="patch_7">
    <path d="M 374.727273 320.4 
L 612 320.4 
L 612 43.2 
L 374.727273 43.2 
z
" style="fill: #ffffff"/>
   </g>
   <g id="matplotlib.axis_3">
    <g id="xtick_10">
     <g id="text_21">
      <!-- 0 -->
      <g style="fill: #262626" transform="translate(373.616968 340.20725) scale(0.144 -0.144)">
       <use xlink:href="#ArialMT-30"/>
      </g>
     </g>
    </g>
    <g id="xtick_11">
     <g id="text_22">
      <!-- 1 -->
      <g style="fill: #262626" transform="translate(402.552666 340.20725) scale(0.144 -0.144)">
       <use xlink:href="#ArialMT-31"/>
      </g>
     </g>
    </g>
    <g id="xtick_12">
     <g id="text_23">
      <!-- 2 -->
      <g style="fill: #262626" transform="translate(431.488364 340.20725) scale(0.144 -0.144)">
       <use xlink:href="#ArialMT-32"/>
      </g>
     </g>
    </g>
    <g id="xtick_13">
     <g id="text_24">
      <!-- 3 -->
      <g style="fill: #262626" transform="translate(460.424063 340.20725) scale(0.144 -0.144)">
       <use xlink:href="#ArialMT-33"/>
      </g>
     </g>
    </g>
    <g id="xtick_14">
     <g id="text_25">
      <!-- 4 -->
      <g style="fill: #262626" transform="translate(489.359761 340.20725) scale(0.144 -0.144)">
       <use xlink:href="#ArialMT-34"/>
      </g>
     </g>
    </g>
    <g id="xtick_15">
     <g id="text_26">
      <!-- 5 -->
      <g style="fill: #262626" transform="translate(518.29546 340.20725) scale(0.144 -0.144)">
       <use xlink:href="#ArialMT-35"/>
      </g>
     </g>
    </g>
    <g id="xtick_16">
     <g id="text_27">
      <!-- 6 -->
      <g style="fill: #262626" transform="translate(547.231158 340.20725) scale(0.144 -0.144)">
       <use xlink:href="#ArialMT-36"/>
      </g>
     </g>
    </g>
    <g id="xtick_17">
     <g id="text_28">
      <!-- 7 -->
      <g style="fill: #262626" transform="translate(576.166857 340.20725) scale(0.144 -0.144)">
       <use xlink:href="#ArialMT-37"/>
      </g>
     </g>
    </g>
    <g id="xtick_18">
     <g id="text_29">
      <!-- 8 -->
      <g style="fill: #262626" transform="translate(605.102555 340.20725) scale(0.144 -0.144)">
       <use xlink:href="#ArialMT-38"/>
      </g>
     </g>
    </g>
    <g id="text_30">
     <!-- Time (d) -->
     <g style="fill: #262626" transform="translate(457.993636 361.04625) scale(0.192 -0.192)">
      <use xlink:href="#ArialMT-54"/>
      <use xlink:href="#ArialMT-69" x="57.333984"/>
      <use xlink:href="#ArialMT-6d" x="79.550781"/>
      <use xlink:href="#ArialMT-65" x="162.851562"/>
      <use xlink:href="#ArialMT-20" x="218.466797"/>
      <use xlink:href="#ArialMT-28" x="246.25"/>
      <use xlink:href="#ArialMT-64" x="279.550781"/>
      <use xlink:href="#ArialMT-29" x="335.166016"/>
     </g>
    </g>
   </g>
   <g id="matplotlib.axis_4">
    <g id="ytick_10">
     <g id="text_31">
      <!-- 4.0 -->
      <g style="fill: #262626" transform="translate(345.211273 325.553625) scale(0.144 -0.144)">
       <defs>
        <path id="ArialMT-2e" d="M 581 0 
L 581 641 
L 1222 641 
L 1222 0 
L 581 0 
z
" transform="scale(0.015625)"/>
       </defs>
       <use xlink:href="#ArialMT-34"/>
       <use xlink:href="#ArialMT-2e" x="55.615234"/>
       <use xlink:href="#ArialMT-30" x="83.398438"/>
      </g>
     </g>
    </g>
    <g id="ytick_11">
     <g id="text_32">
      <!-- 4.5 -->
      <g style="fill: #262626" transform="translate(345.211273 290.903625) scale(0.144 -0.144)">
       <use xlink:href="#ArialMT-34"/>
       <use xlink:href="#ArialMT-2e" x="55.615234"/>
       <use xlink:href="#ArialMT-35" x="83.398438"/>
      </g>
     </g>
    </g>
    <g id="ytick_12">
     <g id="text_33">
      <!-- 5.0 -->
      <g style="fill: #262626" transform="translate(345.211273 256.253625) scale(0.144 -0.144)">
       <use xlink:href="#ArialMT-35"/>
       <use xlink:href="#ArialMT-2e" x="55.615234"/>
       <use xlink:href="#ArialMT-30" x="83.398438"/>
      </g>
     </g>
    </g>
    <g id="ytick_13">
     <g id="text_34">
      <!-- 5.5 -->
      <g style="fill: #262626" transform="translate(345.211273 221.603625) scale(0.144 -0.144)">
       <use xlink:href="#ArialMT-35"/>
       <use xlink:href="#ArialMT-2e" x="55.615234"/>
       <use xlink:href="#ArialMT-35" x="83.398438"/>
      </g>
     </g>
    </g>
    <g id="ytick_14">
     <g id="text_35">
      <!-- 6.0 -->
      <g style="fill: #262626" transform="translate(345.211273 186.953625) scale(0.144 -0.144)">
       <use xlink:href="#ArialMT-36"/>
       <use xlink:href="#ArialMT-2e" x="55.615234"/>
       <use xlink:href="#ArialMT-30" x="83.398438"/>
      </g>
     </g>
    </g>
    <g id="ytick_15">
     <g id="text_36">
      <!-- 6.5 -->
      <g style="fill: #262626" transform="translate(345.211273 152.303625) scale(0.144 -0.144)">
       <use xlink:href="#ArialMT-36"/>
       <use xlink:href="#ArialMT-2e" x="55.615234"/>
       <use xlink:href="#ArialMT-35" x="83.398438"/>
      </g>
     </g>
    </g>
    <g id="ytick_16">
     <g id="text_37">
      <!-- 7.0 -->
      <g style="fill: #262626" transform="translate(345.211273 117.653625) scale(0.144 -0.144)">
       <use xlink:href="#ArialMT-37"/>
       <use xlink:href="#ArialMT-2e" x="55.615234"/>
       <use xlink:href="#ArialMT-30" x="83.398438"/>
      </g>
     </g>
    </g>
    <g id="ytick_17">
     <g id="text_38">
      <!-- 7.5 -->
      <g style="fill: #262626" transform="translate(345.211273 83.003625) scale(0.144 -0.144)">
       <use xlink:href="#ArialMT-37"/>
       <use xlink:href="#ArialMT-2e" x="55.615234"/>
       <use xlink:href="#ArialMT-35" x="83.398438"/>
      </g>
     </g>
    </g>
    <g id="ytick_18">
     <g id="text_39">
      <!-- 8.0 -->
      <g style="fill: #262626" transform="translate(345.211273 48.353625) scale(0.144 -0.144)">
       <use xlink:href="#ArialMT-38"/>
       <use xlink:href="#ArialMT-2e" x="55.615234"/>
       <use xlink:href="#ArialMT-30" x="83.398438"/>
      </g>
     </g>
    </g>
    <g id="text_40">
     <!-- Log10(CD8TE) -->
     <g style="fill: #262626" transform="translate(337.170273 246.357) rotate(-90) scale(0.192 -0.192)">
      <defs>
       <path id="ArialMT-43" d="M 3763 1606 
L 4369 1453 
Q 4178 706 3683 314 
Q 3188 -78 2472 -78 
Q 1731 -78 1267 223 
Q 803 525 561 1097 
Q 319 1669 319 2325 
Q 319 3041 592 3573 
Q 866 4106 1370 4382 
Q 1875 4659 2481 4659 
Q 3169 4659 3637 4309 
Q 4106 3959 4291 3325 
L 3694 3184 
Q 3534 3684 3231 3912 
Q 2928 4141 2469 4141 
Q 1941 4141 1586 3887 
Q 1231 3634 1087 3207 
Q 944 2781 944 2328 
Q 944 1744 1114 1308 
Q 1284 872 1643 656 
Q 2003 441 2422 441 
Q 2931 441 3284 734 
Q 3638 1028 3763 1606 
z
" transform="scale(0.015625)"/>
       <path id="ArialMT-44" d="M 494 0 
L 494 4581 
L 2072 4581 
Q 2606 4581 2888 4516 
Q 3281 4425 3559 4188 
Q 3922 3881 4101 3404 
Q 4281 2928 4281 2316 
Q 4281 1794 4159 1391 
Q 4038 988 3847 723 
Q 3656 459 3429 307 
Q 3203 156 2883 78 
Q 2563 0 2147 0 
L 494 0 
z
M 1100 541 
L 2078 541 
Q 2531 541 2789 625 
Q 3047 709 3200 863 
Q 3416 1078 3536 1442 
Q 3656 1806 3656 2325 
Q 3656 3044 3420 3430 
Q 3184 3816 2847 3947 
Q 2603 4041 2063 4041 
L 1100 4041 
L 1100 541 
z
" transform="scale(0.015625)"/>
       <path id="ArialMT-45" d="M 506 0 
L 506 4581 
L 3819 4581 
L 3819 4041 
L 1113 4041 
L 1113 2638 
L 3647 2638 
L 3647 2100 
L 1113 2100 
L 1113 541 
L 3925 541 
L 3925 0 
L 506 0 
z
" transform="scale(0.015625)"/>
      </defs>
      <use xlink:href="#ArialMT-4c"/>
      <use xlink:href="#ArialMT-6f" x="55.615234"/>
      <use xlink:href="#ArialMT-67" x="111.230469"/>
      <use xlink:href="#ArialMT-31" x="166.845703"/>
      <use xlink:href="#ArialMT-30" x="222.460938"/>
      <use xlink:href="#ArialMT-28" x="278.076172"/>
      <use xlink:href="#ArialMT-43" x="311.376953"/>
      <use xlink:href="#ArialMT-44" x="383.59375"/>
      <use xlink:href="#ArialMT-38" x="455.810547"/>
      <use xlink:href="#ArialMT-54" x="511.425781"/>
      <use xlink:href="#ArialMT-45" x="572.509766"/>
      <use xlink:href="#ArialMT-29" x="639.208984"/>
     </g>
    </g>
   </g>
   <g id="patch_8">
    <path d="M 374.727273 320.4 
L 374.727273 43.2 
" style="fill: none; stroke: #262626; stroke-width: 1.25; stroke-linejoin: miter; stroke-linecap: square"/>
   </g>
   <g id="patch_9">
    <path d="M 612 320.4 
L 612 43.2 
" style="fill: none; stroke: #262626; stroke-width: 1.25; stroke-linejoin: miter; stroke-linecap: square"/>
   </g>
   <g id="patch_10">
    <path d="M 374.727273 320.4 
L 612 320.4 
" style="fill: none; stroke: #262626; stroke-width: 1.25; stroke-linejoin: miter; stroke-linecap: square"/>
   </g>
   <g id="patch_11">
    <path d="M 374.727273 43.2 
L 612 43.2 
" style="fill: none; stroke: #262626; stroke-width: 1.25; stroke-linejoin: miter; stroke-linecap: square"/>
   </g>
   <g id="PolyCollection_2">
    <defs>
     <path id="mf61bb44ae6" d="M 377.620843 -162.252997 
L 377.620843 -113.558128 
L 377.621238 -113.558128 
L 377.625191 -113.558128 
L 377.664718 -113.558128 
L 377.796142 -113.558128 
L 377.901277 -113.558128 
L 378.233627 -113.558128 
L 378.501855 -113.558128 
L 379.329665 -113.558128 
L 379.82385 -113.558128 
L 381.203964 -113.558128 
L 381.861217 -113.558128 
L 383.385933 -113.558128 
L 384.170293 -113.558128 
L 385.727921 -113.558128 
L 386.620304 -113.558128 
L 388.213835 -113.558128 
L 389.192585 -113.558128 
L 390.801468 -113.558128 
L 391.849081 -113.558128 
L 393.467893 -113.558128 
L 394.568564 -113.558128 
L 396.190977 -113.558128 
L 397.331768 -113.558128 
L 399.119281 -113.558128 
L 400.244789 -113.558128 
L 401.806237 -113.558128 
L 402.979323 -113.558128 
L 404.68574 -113.558128 
L 405.85415 -113.558128 
L 407.443801 -113.558129 
L 408.64354 -113.55813 
L 410.362819 -113.558132 
L 411.557687 -113.558134 
L 413.190004 -113.558139 
L 414.422038 -113.558144 
L 416.199143 -113.558156 
L 417.437136 -113.55817 
L 419.112372 -113.558198 
L 420.381768 -113.558229 
L 422.188333 -113.558301 
L 423.470337 -113.558373 
L 425.191329 -113.558535 
L 426.492239 -113.558694 
L 428.184524 -113.559049 
L 429.41091 -113.55941 
L 430.975095 -113.560075 
L 432.1405 -113.560875 
L 433.592846 -113.562097 
L 435.045191 -113.564016 
L 436.497536 -113.566671 
L 437.949882 -113.570717 
L 439.402227 -113.576386 
L 440.854572 -113.584957 
L 442.306917 -113.597264 
L 443.759263 -113.614752 
L 445.211608 -113.639325 
L 446.663953 -113.673552 
L 447.89777 -113.710772 
L 449.229833 -113.767832 
L 450.561897 -113.843925 
L 451.89396 -113.942056 
L 453.226023 -114.065882 
L 454.609193 -114.234352 
L 457.502763 -114.76993 
L 459.280185 -115.243631 
L 462.173754 -116.325743 
L 464.42255 -117.505901 
L 467.31612 -119.528525 
L 470.20969 -120.440482 
L 473.103259 -121.200423 
L 475.996829 -122.2494 
L 478.890399 -123.640811 
L 481.783969 -125.415058 
L 484.677539 -127.189673 
L 487.571109 -129.116552 
L 490.464678 -131.239059 
L 493.358248 -133.520322 
L 496.251818 -135.918084 
L 499.145388 -138.388181 
L 502.038958 -140.887531 
L 504.932528 -143.376351 
L 507.826098 -145.819526 
L 510.719667 -148.187248 
L 513.613237 -150.455089 
L 516.506807 -152.6037 
L 519.400377 -154.618298 
L 522.293947 -156.488063 
L 525.187517 -158.205519 
L 528.081086 -159.765964 
L 530.974656 -161.166946 
L 533.868226 -162.407828 
L 536.761796 -163.489408 
L 539.655366 -164.413616 
L 542.548936 -165.183265 
L 545.442505 -165.801848 
L 548.336075 -166.273379 
L 551.229645 -166.602271 
L 554.123215 -166.787635 
L 557.016785 -164.181262 
L 559.910355 -160.405937 
L 562.803925 -156.662929 
L 565.697494 -152.981057 
L 568.591064 -149.389107 
L 571.484634 -145.915183 
L 574.378204 -142.585919 
L 577.271774 -139.425585 
L 580.165344 -136.45516 
L 583.058913 -133.691477 
L 585.952483 -131.146548 
L 588.846053 -128.827146 
L 591.739623 -126.734724 
L 594.633193 -124.865678 
L 597.526763 -123.211918 
L 600.420333 -121.761668 
L 603.313902 -120.50041 
L 606.207472 -119.411837 
L 609.101042 -118.462689 
L 609.10643 -118.461039 
L 609.10643 -184.741417 
L 609.10643 -184.741417 
L 609.101042 -184.744882 
L 606.207472 -186.591255 
L 603.313902 -188.405432 
L 600.420333 -190.177447 
L 597.526763 -191.900152 
L 594.633193 -193.566509 
L 591.739623 -195.290339 
L 588.846053 -197.306506 
L 585.952483 -199.245086 
L 583.058913 -201.098676 
L 580.165344 -202.859832 
L 577.271774 -204.521048 
L 574.378204 -206.074724 
L 571.484634 -207.513134 
L 568.591064 -208.828404 
L 565.697494 -210.012474 
L 562.803925 -211.057075 
L 559.910355 -211.958851 
L 557.016785 -212.704139 
L 554.123215 -213.282048 
L 551.229645 -213.682665 
L 548.336075 -213.896625 
L 545.442505 -213.906711 
L 542.548936 -213.719408 
L 539.655366 -213.315379 
L 536.761796 -212.683258 
L 533.868226 -212.03925 
L 530.974656 -212.383472 
L 528.081086 -212.497427 
L 525.187517 -212.368066 
L 522.293947 -211.981841 
L 519.400377 -211.324712 
L 516.506807 -210.382171 
L 513.613237 -209.139308 
L 510.719667 -207.988908 
L 507.826098 -208.453266 
L 504.932528 -208.493541 
L 502.038958 -208.078382 
L 499.145388 -207.174859 
L 496.251818 -205.748532 
L 493.358248 -203.763693 
L 490.464678 -201.183876 
L 487.571109 -197.972806 
L 484.677539 -194.096068 
L 481.783969 -189.52392 
L 478.890399 -184.235964 
L 475.996829 -178.228724 
L 473.103259 -171.527633 
L 470.20969 -167.103688 
L 467.31612 -165.788195 
L 464.42255 -164.73752 
L 462.173754 -164.098159 
L 459.280185 -163.462182 
L 457.502763 -163.15418 
L 454.609193 -162.802402 
L 453.226023 -162.683665 
L 451.89396 -162.581482 
L 450.561897 -162.50746 
L 449.229833 -162.443697 
L 447.89777 -162.396188 
L 446.663953 -162.361136 
L 445.211608 -162.328072 
L 443.759263 -162.306796 
L 442.306917 -162.28986 
L 440.854572 -162.277775 
L 439.402227 -162.269221 
L 437.949882 -162.263734 
L 436.497536 -162.259942 
L 435.045191 -162.257382 
L 433.592846 -162.255784 
L 432.1405 -162.25473 
L 430.975095 -162.254166 
L 429.41091 -162.253672 
L 428.184524 -162.253438 
L 426.492239 -162.253239 
L 425.191329 -162.253148 
L 423.470337 -162.253076 
L 422.188333 -162.253046 
L 420.381768 -162.253023 
L 419.112372 -162.253013 
L 417.437136 -162.253005 
L 416.199143 -162.253002 
L 414.422038 -162.252999 
L 413.190004 -162.252998 
L 411.557687 -162.252998 
L 410.362819 -162.252997 
L 408.64354 -162.252997 
L 407.443801 -162.252997 
L 405.85415 -162.252997 
L 404.68574 -162.252997 
L 402.979323 -162.252997 
L 401.806237 -162.252997 
L 400.244789 -162.252997 
L 399.119281 -162.252997 
L 397.331768 -162.252997 
L 396.190977 -162.252997 
L 394.568564 -162.252997 
L 393.467893 -162.252997 
L 391.849081 -162.252997 
L 390.801468 -162.252997 
L 389.192585 -162.252997 
L 388.213835 -162.252997 
L 386.620304 -162.252997 
L 385.727921 -162.252997 
L 384.170293 -162.252997 
L 383.385933 -162.252997 
L 381.861217 -162.252997 
L 381.203964 -162.252997 
L 379.82385 -162.252997 
L 379.329665 -162.252997 
L 378.501855 -162.252997 
L 378.233627 -162.252997 
L 377.901277 -162.252997 
L 377.796142 -162.252997 
L 377.664718 -162.252997 
L 377.625191 -162.252997 
L 377.621238 -162.252997 
L 377.620843 -162.252997 
z
" style="stroke: #000000; stroke-opacity: 0.2"/>
    </defs>
    <g clip-path="url(#pd4169e2dd3)">
     <use xlink:href="#mf61bb44ae6" x="0" y="360" style="fill-opacity: 0.2; stroke: #000000; stroke-opacity: 0.2"/>
    </g>
   </g>
   <g id="PathCollection_13">
    <g clip-path="url(#pd4169e2dd3)">
     <use xlink:href="#m93d8f66341" x="377.620843" y="250.15518" style="fill: #808080; fill-opacity: 0.8; stroke: #808080; stroke-opacity: 0.8"/>
     <use xlink:href="#m93d8f66341" x="406.556541" y="209.810551" style="fill: #808080; fill-opacity: 0.8; stroke: #808080; stroke-opacity: 0.8"/>
     <use xlink:href="#m93d8f66341" x="435.492239" y="219.038118" style="fill: #808080; fill-opacity: 0.8; stroke: #808080; stroke-opacity: 0.8"/>
     <use xlink:href="#m93d8f66341" x="464.427938" y="221.863721" style="fill: #808080; fill-opacity: 0.8; stroke: #808080; stroke-opacity: 0.8"/>
     <use xlink:href="#m93d8f66341" x="493.363636" y="185.878053" style="fill: #808080; fill-opacity: 0.8; stroke: #808080; stroke-opacity: 0.8"/>
     <use xlink:href="#m93d8f66341" x="522.299335" y="177.562038" style="fill: #808080; fill-opacity: 0.8; stroke: #808080; stroke-opacity: 0.8"/>
     <use xlink:href="#m93d8f66341" x="551.235033" y="187.531868" style="fill: #808080; fill-opacity: 0.8; stroke: #808080; stroke-opacity: 0.8"/>
     <use xlink:href="#m93d8f66341" x="580.170732" y="218.672957" style="fill: #808080; fill-opacity: 0.8; stroke: #808080; stroke-opacity: 0.8"/>
    </g>
   </g>
   <g id="PathCollection_14">
    <g clip-path="url(#pd4169e2dd3)">
     <use xlink:href="#m17919a8229" x="377.620843" y="267.471998" style="fill: #800080; fill-opacity: 0.8; stroke: #800080; stroke-opacity: 0.8"/>
     <use xlink:href="#m17919a8229" x="406.556541" y="247.921207" style="fill: #800080; fill-opacity: 0.8; stroke: #800080; stroke-opacity: 0.8"/>
     <use xlink:href="#m17919a8229" x="464.427938" y="242.642375" style="fill: #800080; fill-opacity: 0.8; stroke: #800080; stroke-opacity: 0.8"/>
     <use xlink:href="#m17919a8229" x="493.363636" y="216.903335" style="fill: #800080; fill-opacity: 0.8; stroke: #800080; stroke-opacity: 0.8"/>
     <use xlink:href="#m17919a8229" x="522.299335" y="194.556157" style="fill: #800080; fill-opacity: 0.8; stroke: #800080; stroke-opacity: 0.8"/>
     <use xlink:href="#m17919a8229" x="551.235033" y="190.333444" style="fill: #800080; fill-opacity: 0.8; stroke: #800080; stroke-opacity: 0.8"/>
     <use xlink:href="#m17919a8229" x="580.170732" y="185.70752" style="fill: #800080; fill-opacity: 0.8; stroke: #800080; stroke-opacity: 0.8"/>
    </g>
   </g>
   <g id="PathCollection_15">
    <g clip-path="url(#pd4169e2dd3)">
     <use xlink:href="#m21ad920477" x="377.620843" y="244.278135" style="fill: #ff00ff; fill-opacity: 0.8; stroke: #ff00ff; stroke-opacity: 0.8"/>
     <use xlink:href="#m21ad920477" x="406.556541" y="251.744724" style="fill: #ff00ff; fill-opacity: 0.8; stroke: #ff00ff; stroke-opacity: 0.8"/>
     <use xlink:href="#m21ad920477" x="435.492239" y="227.451068" style="fill: #ff00ff; fill-opacity: 0.8; stroke: #ff00ff; stroke-opacity: 0.8"/>
     <use xlink:href="#m21ad920477" x="464.427938" y="201.804279" style="fill: #ff00ff; fill-opacity: 0.8; stroke: #ff00ff; stroke-opacity: 0.8"/>
     <use xlink:href="#m21ad920477" x="493.363636" y="195.687096" style="fill: #ff00ff; fill-opacity: 0.8; stroke: #ff00ff; stroke-opacity: 0.8"/>
     <use xlink:href="#m21ad920477" x="522.299335" y="200.92871" style="fill: #ff00ff; fill-opacity: 0.8; stroke: #ff00ff; stroke-opacity: 0.8"/>
     <use xlink:href="#m21ad920477" x="551.235033" y="214.470636" style="fill: #ff00ff; fill-opacity: 0.8; stroke: #ff00ff; stroke-opacity: 0.8"/>
     <use xlink:href="#m21ad920477" x="580.170732" y="225.982492" style="fill: #ff00ff; fill-opacity: 0.8; stroke: #ff00ff; stroke-opacity: 0.8"/>
    </g>
   </g>
   <g id="PathCollection_16">
    <g clip-path="url(#pd4169e2dd3)">
     <use xlink:href="#madc865c153" x="377.620843" y="242.386947" style="fill: #ff0000; fill-opacity: 0.8; stroke: #ff0000; stroke-opacity: 0.8"/>
     <use xlink:href="#madc865c153" x="406.556541" y="203.934991" style="fill: #ff0000; fill-opacity: 0.8; stroke: #ff0000; stroke-opacity: 0.8"/>
     <use xlink:href="#madc865c153" x="435.492239" y="201.750504" style="fill: #ff0000; fill-opacity: 0.8; stroke: #ff0000; stroke-opacity: 0.8"/>
     <use xlink:href="#madc865c153" x="464.427938" y="161.705127" style="fill: #ff0000; fill-opacity: 0.8; stroke: #ff0000; stroke-opacity: 0.8"/>
     <use xlink:href="#madc865c153" x="493.363636" y="127.472639" style="fill: #ff0000; fill-opacity: 0.8; stroke: #ff0000; stroke-opacity: 0.8"/>
     <use xlink:href="#madc865c153" x="522.299335" y="115.87783" style="fill: #ff0000; fill-opacity: 0.8; stroke: #ff0000; stroke-opacity: 0.8"/>
     <use xlink:href="#madc865c153" x="551.235033" y="86.633816" style="fill: #ff0000; fill-opacity: 0.8; stroke: #ff0000; stroke-opacity: 0.8"/>
     <use xlink:href="#madc865c153" x="580.170732" y="91.400252" style="fill: #ff0000; fill-opacity: 0.8; stroke: #ff0000; stroke-opacity: 0.8"/>
    </g>
   </g>
   <g id="PathCollection_17">
    <g clip-path="url(#pd4169e2dd3)">
     <use xlink:href="#m07df1240db" x="377.620843" y="253.650461" style="fill: #ffd700; fill-opacity: 0.8; stroke: #ffd700; stroke-opacity: 0.8"/>
     <use xlink:href="#m07df1240db" x="406.556541" y="212.253098" style="fill: #ffd700; fill-opacity: 0.8; stroke: #ffd700; stroke-opacity: 0.8"/>
     <use xlink:href="#m07df1240db" x="435.492239" y="189.630812" style="fill: #ffd700; fill-opacity: 0.8; stroke: #ffd700; stroke-opacity: 0.8"/>
     <use xlink:href="#m07df1240db" x="464.427938" y="205.273895" style="fill: #ffd700; fill-opacity: 0.8; stroke: #ffd700; stroke-opacity: 0.8"/>
     <use xlink:href="#m07df1240db" x="493.363636" y="229.729467" style="fill: #ffd700; fill-opacity: 0.8; stroke: #ffd700; stroke-opacity: 0.8"/>
     <use xlink:href="#m07df1240db" x="522.299335" y="242.616993" style="fill: #ffd700; fill-opacity: 0.8; stroke: #ffd700; stroke-opacity: 0.8"/>
     <use xlink:href="#m07df1240db" x="551.235033" y="196.009177" style="fill: #ffd700; fill-opacity: 0.8; stroke: #ffd700; stroke-opacity: 0.8"/>
    </g>
   </g>
   <g id="PathCollection_18">
    <g clip-path="url(#pd4169e2dd3)">
     <use xlink:href="#m1b0698e371" x="377.620843" y="243.169124" style="fill: #ff8c00; fill-opacity: 0.8; stroke: #ff8c00; stroke-opacity: 0.8"/>
     <use xlink:href="#m1b0698e371" x="406.556541" y="230.191867" style="fill: #ff8c00; fill-opacity: 0.8; stroke: #ff8c00; stroke-opacity: 0.8"/>
     <use xlink:href="#m1b0698e371" x="435.492239" y="226.195053" style="fill: #ff8c00; fill-opacity: 0.8; stroke: #ff8c00; stroke-opacity: 0.8"/>
     <use xlink:href="#m1b0698e371" x="464.427938" y="200.596288" style="fill: #ff8c00; fill-opacity: 0.8; stroke: #ff8c00; stroke-opacity: 0.8"/>
     <use xlink:href="#m1b0698e371" x="493.363636" y="186.135039" style="fill: #ff8c00; fill-opacity: 0.8; stroke: #ff8c00; stroke-opacity: 0.8"/>
     <use xlink:href="#m1b0698e371" x="522.299335" y="167.048903" style="fill: #ff8c00; fill-opacity: 0.8; stroke: #ff8c00; stroke-opacity: 0.8"/>
     <use xlink:href="#m1b0698e371" x="551.235033" y="143.175875" style="fill: #ff8c00; fill-opacity: 0.8; stroke: #ff8c00; stroke-opacity: 0.8"/>
     <use xlink:href="#m1b0698e371" x="580.170732" y="142.83842" style="fill: #ff8c00; fill-opacity: 0.8; stroke: #ff8c00; stroke-opacity: 0.8"/>
    </g>
   </g>
   <g id="PathCollection_19">
    <g clip-path="url(#pd4169e2dd3)">
     <use xlink:href="#m677db90d71" x="377.620843" y="180.277258" style="fill: #8b4513; fill-opacity: 0.8; stroke: #8b4513; stroke-opacity: 0.8"/>
     <use xlink:href="#m677db90d71" x="406.556541" y="180.491814" style="fill: #8b4513; fill-opacity: 0.8; stroke: #8b4513; stroke-opacity: 0.8"/>
     <use xlink:href="#m677db90d71" x="435.492239" y="202.953289" style="fill: #8b4513; fill-opacity: 0.8; stroke: #8b4513; stroke-opacity: 0.8"/>
     <use xlink:href="#m677db90d71" x="464.427938" y="130.521257" style="fill: #8b4513; fill-opacity: 0.8; stroke: #8b4513; stroke-opacity: 0.8"/>
     <use xlink:href="#m677db90d71" x="493.363636" y="94.092579" style="fill: #8b4513; fill-opacity: 0.8; stroke: #8b4513; stroke-opacity: 0.8"/>
     <use xlink:href="#m677db90d71" x="522.299335" y="104.662744" style="fill: #8b4513; fill-opacity: 0.8; stroke: #8b4513; stroke-opacity: 0.8"/>
     <use xlink:href="#m677db90d71" x="551.235033" y="111.546039" style="fill: #8b4513; fill-opacity: 0.8; stroke: #8b4513; stroke-opacity: 0.8"/>
     <use xlink:href="#m677db90d71" x="580.170732" y="119.157246" style="fill: #8b4513; fill-opacity: 0.8; stroke: #8b4513; stroke-opacity: 0.8"/>
    </g>
   </g>
   <g id="PathCollection_20">
    <g clip-path="url(#pd4169e2dd3)">
     <use xlink:href="#m14acac30fe" x="377.620843" y="237.614051" style="fill: #0000cd; fill-opacity: 0.8; stroke: #0000cd; stroke-opacity: 0.8"/>
     <use xlink:href="#m14acac30fe" x="406.556541" y="253.885074" style="fill: #0000cd; fill-opacity: 0.8; stroke: #0000cd; stroke-opacity: 0.8"/>
     <use xlink:href="#m14acac30fe" x="435.492239" y="217.690646" style="fill: #0000cd; fill-opacity: 0.8; stroke: #0000cd; stroke-opacity: 0.8"/>
     <use xlink:href="#m14acac30fe" x="464.427938" y="163.90984" style="fill: #0000cd; fill-opacity: 0.8; stroke: #0000cd; stroke-opacity: 0.8"/>
     <use xlink:href="#m14acac30fe" x="493.363636" y="154.00634" style="fill: #0000cd; fill-opacity: 0.8; stroke: #0000cd; stroke-opacity: 0.8"/>
     <use xlink:href="#m14acac30fe" x="522.299335" y="153.404358" style="fill: #0000cd; fill-opacity: 0.8; stroke: #0000cd; stroke-opacity: 0.8"/>
     <use xlink:href="#m14acac30fe" x="551.235033" y="162.714104" style="fill: #0000cd; fill-opacity: 0.8; stroke: #0000cd; stroke-opacity: 0.8"/>
     <use xlink:href="#m14acac30fe" x="580.170732" y="180.492229" style="fill: #0000cd; fill-opacity: 0.8; stroke: #0000cd; stroke-opacity: 0.8"/>
    </g>
   </g>
   <g id="PathCollection_21">
    <g clip-path="url(#pd4169e2dd3)">
     <use xlink:href="#m1b81c89c95" x="377.620843" y="246.107152" style="fill: #1e90ff; fill-opacity: 0.8; stroke: #1e90ff; stroke-opacity: 0.8"/>
     <use xlink:href="#m1b81c89c95" x="406.556541" y="245.297112" style="fill: #1e90ff; fill-opacity: 0.8; stroke: #1e90ff; stroke-opacity: 0.8"/>
     <use xlink:href="#m1b81c89c95" x="464.427938" y="199.570665" style="fill: #1e90ff; fill-opacity: 0.8; stroke: #1e90ff; stroke-opacity: 0.8"/>
     <use xlink:href="#m1b81c89c95" x="493.363636" y="155.444699" style="fill: #1e90ff; fill-opacity: 0.8; stroke: #1e90ff; stroke-opacity: 0.8"/>
     <use xlink:href="#m1b81c89c95" x="522.299335" y="131.184489" style="fill: #1e90ff; fill-opacity: 0.8; stroke: #1e90ff; stroke-opacity: 0.8"/>
     <use xlink:href="#m1b81c89c95" x="551.235033" y="139.160238" style="fill: #1e90ff; fill-opacity: 0.8; stroke: #1e90ff; stroke-opacity: 0.8"/>
     <use xlink:href="#m1b81c89c95" x="580.170732" y="167.761402" style="fill: #1e90ff; fill-opacity: 0.8; stroke: #1e90ff; stroke-opacity: 0.8"/>
    </g>
   </g>
   <g id="PathCollection_22">
    <g clip-path="url(#pd4169e2dd3)">
     <use xlink:href="#m732025569f" x="377.620843" y="255.877126" style="fill: #40e0d0; fill-opacity: 0.8; stroke: #40e0d0; stroke-opacity: 0.8"/>
     <use xlink:href="#m732025569f" x="406.556541" y="232.696175" style="fill: #40e0d0; fill-opacity: 0.8; stroke: #40e0d0; stroke-opacity: 0.8"/>
     <use xlink:href="#m732025569f" x="435.492239" y="225.568434" style="fill: #40e0d0; fill-opacity: 0.8; stroke: #40e0d0; stroke-opacity: 0.8"/>
     <use xlink:href="#m732025569f" x="464.427938" y="223.047488" style="fill: #40e0d0; fill-opacity: 0.8; stroke: #40e0d0; stroke-opacity: 0.8"/>
     <use xlink:href="#m732025569f" x="493.363636" y="197.660105" style="fill: #40e0d0; fill-opacity: 0.8; stroke: #40e0d0; stroke-opacity: 0.8"/>
     <use xlink:href="#m732025569f" x="522.299335" y="180.865709" style="fill: #40e0d0; fill-opacity: 0.8; stroke: #40e0d0; stroke-opacity: 0.8"/>
     <use xlink:href="#m732025569f" x="551.235033" y="195.50784" style="fill: #40e0d0; fill-opacity: 0.8; stroke: #40e0d0; stroke-opacity: 0.8"/>
     <use xlink:href="#m732025569f" x="580.170732" y="195.332045" style="fill: #40e0d0; fill-opacity: 0.8; stroke: #40e0d0; stroke-opacity: 0.8"/>
    </g>
   </g>
   <g id="PathCollection_23">
    <g clip-path="url(#pd4169e2dd3)">
     <use xlink:href="#m3bb3976ba3" x="377.620843" y="296.783398" style="fill: #006400; fill-opacity: 0.8; stroke: #006400; stroke-opacity: 0.8"/>
     <use xlink:href="#m3bb3976ba3" x="406.556541" y="245.786193" style="fill: #006400; fill-opacity: 0.8; stroke: #006400; stroke-opacity: 0.8"/>
     <use xlink:href="#m3bb3976ba3" x="435.492239" y="232.375231" style="fill: #006400; fill-opacity: 0.8; stroke: #006400; stroke-opacity: 0.8"/>
     <use xlink:href="#m3bb3976ba3" x="464.427938" y="218.112979" style="fill: #006400; fill-opacity: 0.8; stroke: #006400; stroke-opacity: 0.8"/>
     <use xlink:href="#m3bb3976ba3" x="493.363636" y="227.578014" style="fill: #006400; fill-opacity: 0.8; stroke: #006400; stroke-opacity: 0.8"/>
     <use xlink:href="#m3bb3976ba3" x="522.299335" y="223.809086" style="fill: #006400; fill-opacity: 0.8; stroke: #006400; stroke-opacity: 0.8"/>
     <use xlink:href="#m3bb3976ba3" x="551.235033" y="229.485121" style="fill: #006400; fill-opacity: 0.8; stroke: #006400; stroke-opacity: 0.8"/>
     <use xlink:href="#m3bb3976ba3" x="580.170732" y="242.33937" style="fill: #006400; fill-opacity: 0.8; stroke: #006400; stroke-opacity: 0.8"/>
    </g>
   </g>
   <g id="PathCollection_24">
    <g clip-path="url(#pd4169e2dd3)">
     <use xlink:href="#m9a55138cf5" x="377.620843" y="252.36161" style="fill: #7cfc00; fill-opacity: 0.8; stroke: #7cfc00; stroke-opacity: 0.8"/>
     <use xlink:href="#m9a55138cf5" x="406.556541" y="250.452421" style="fill: #7cfc00; fill-opacity: 0.8; stroke: #7cfc00; stroke-opacity: 0.8"/>
     <use xlink:href="#m9a55138cf5" x="435.492239" y="278.764523" style="fill: #7cfc00; fill-opacity: 0.8; stroke: #7cfc00; stroke-opacity: 0.8"/>
     <use xlink:href="#m9a55138cf5" x="464.427938" y="264.501564" style="fill: #7cfc00; fill-opacity: 0.8; stroke: #7cfc00; stroke-opacity: 0.8"/>
     <use xlink:href="#m9a55138cf5" x="493.363636" y="237.925172" style="fill: #7cfc00; fill-opacity: 0.8; stroke: #7cfc00; stroke-opacity: 0.8"/>
     <use xlink:href="#m9a55138cf5" x="522.299335" y="164.819276" style="fill: #7cfc00; fill-opacity: 0.8; stroke: #7cfc00; stroke-opacity: 0.8"/>
     <use xlink:href="#m9a55138cf5" x="551.235033" y="145.038248" style="fill: #7cfc00; fill-opacity: 0.8; stroke: #7cfc00; stroke-opacity: 0.8"/>
     <use xlink:href="#m9a55138cf5" x="580.170732" y="147.352743" style="fill: #7cfc00; fill-opacity: 0.8; stroke: #7cfc00; stroke-opacity: 0.8"/>
    </g>
   </g>
   <g id="line2d_2">
    <path d="M 377.620843 229.115119 
L 377.621238 229.115119 
L 377.625191 229.115119 
L 377.664718 229.115119 
L 377.796142 229.115119 
L 377.901277 229.115119 
L 378.233627 229.115119 
L 378.501855 229.115119 
L 379.329665 229.115119 
L 379.82385 229.115119 
L 381.203964 229.115119 
L 381.861217 229.115119 
L 383.385933 229.115119 
L 384.170293 229.115119 
L 385.727921 229.115119 
L 386.620304 229.115119 
L 388.213835 229.115119 
L 389.192585 229.115119 
L 390.801468 229.115119 
L 391.849081 229.115119 
L 393.467893 229.115119 
L 394.568564 229.115119 
L 396.190977 229.115119 
L 397.331768 229.115119 
L 399.119281 229.115119 
L 400.244789 229.115119 
L 401.806237 229.115119 
L 402.979323 229.115119 
L 404.68574 229.115119 
L 405.85415 229.115118 
L 407.443801 229.115118 
L 408.64354 229.115117 
L 410.362819 229.115114 
L 411.557687 229.115112 
L 413.190004 229.115106 
L 414.422038 229.115099 
L 416.199143 229.115082 
L 417.437136 229.115063 
L 419.112372 229.115021 
L 420.381768 229.114971 
L 422.188333 229.114854 
L 423.470337 229.114721 
L 425.191329 229.114433 
L 426.492239 229.114089 
L 428.184524 229.113372 
L 429.41091 229.11257 
L 430.975095 229.110998 
L 432.1405 229.10925 
L 433.592846 229.10603 
L 435.045191 229.101121 
L 436.497536 229.093702 
L 437.949882 229.082599 
L 439.402227 229.066167 
L 440.854572 229.042137 
L 442.306917 229.00745 
L 443.759263 228.958061 
L 445.211608 228.888734 
L 446.663953 228.792841 
L 447.89777 228.684541 
L 449.229833 228.532552 
L 450.561897 228.335677 
L 451.89396 228.084008 
L 453.226023 227.766564 
L 454.609193 227.354609 
L 457.502763 226.155499 
L 459.280185 225.157273 
L 462.173754 223.027657 
L 464.42255 220.918479 
L 467.31612 217.620626 
L 470.20969 213.741758 
L 473.103259 209.415286 
L 475.996829 204.805207 
L 478.890399 200.076814 
L 481.783969 195.376026 
L 484.677539 190.819617 
L 487.571109 186.493909 
L 490.464678 182.458217 
L 493.358248 178.750058 
L 496.251818 175.390386 
L 499.145388 172.388096 
L 502.038958 169.743568 
L 504.932528 167.451346 
L 507.826098 165.502075 
L 510.719667 163.883892 
L 513.613237 162.583396 
L 516.506807 161.586325 
L 519.400377 160.878012 
L 522.293947 160.443689 
L 525.187517 160.268689 
L 528.081086 160.338565 
L 530.974656 160.639163 
L 533.868226 161.156646 
L 536.761796 161.877507 
L 539.655366 162.78855 
L 542.548936 163.876865 
L 545.442505 165.129791 
L 548.336075 166.534881 
L 551.229645 168.079848 
L 554.123215 169.752531 
L 557.016785 171.540839 
L 559.910355 173.432717 
L 562.803925 175.416101 
L 565.697494 177.478884 
L 568.591064 179.608897 
L 571.484634 181.793884 
L 574.378204 184.021508 
L 577.271774 186.279356 
L 580.165344 188.554972 
L 583.058913 190.835907 
L 585.952483 193.10979 
L 588.846053 195.364421 
L 591.739623 197.587888 
L 594.633193 199.768702 
L 597.526763 201.895945 
L 600.420333 203.959437 
L 603.313902 205.949892 
L 606.207472 207.859082 
L 609.101042 209.679967 
L 609.10643 209.68327 
" clip-path="url(#pd4169e2dd3)" style="fill: none; stroke: #000000; stroke-width: 1.5; stroke-linecap: round"/>
   </g>
  </g>
  <g id="legend_1">
   <g id="patch_12">
    <path d="M 769.44 368.427 
L 921.615 368.427 
Q 925.455 368.427 925.455 364.587 
L 925.455 13.44 
Q 925.455 9.6 921.615 9.6 
L 769.44 9.6 
Q 765.6 9.6 765.6 13.44 
L 765.6 364.587 
Q 765.6 368.427 769.44 368.427 
z
" style="fill: #ffffff; opacity: 0.8; stroke: #cccccc; stroke-linejoin: miter"/>
   </g>
   <g id="PathCollection_25">
    <g>
     <use xlink:href="#m93d8f66341" x="792.48" y="25.983" style="fill: #808080; fill-opacity: 0.8; stroke: #808080; stroke-opacity: 0.8"/>
    </g>
   </g>
   <g id="text_41">
    <!-- 103 -->
    <g style="fill: #262626" transform="translate(827.04 31.023) scale(0.192 -0.192)">
     <use xlink:href="#ArialMT-31"/>
     <use xlink:href="#ArialMT-30" x="55.615234"/>
     <use xlink:href="#ArialMT-33" x="111.230469"/>
    </g>
   </g>
   <g id="PathCollection_26">
    <g>
     <use xlink:href="#m17919a8229" x="792.48" y="53.142" style="fill: #800080; fill-opacity: 0.8; stroke: #800080; stroke-opacity: 0.8"/>
    </g>
   </g>
   <g id="text_42">
    <!-- 107 -->
    <g style="fill: #262626" transform="translate(827.04 58.182) scale(0.192 -0.192)">
     <use xlink:href="#ArialMT-31"/>
     <use xlink:href="#ArialMT-30" x="55.615234"/>
     <use xlink:href="#ArialMT-37" x="111.230469"/>
    </g>
   </g>
   <g id="PathCollection_27">
    <g>
     <use xlink:href="#m21ad920477" x="792.48" y="80.301" style="fill: #ff00ff; fill-opacity: 0.8; stroke: #ff00ff; stroke-opacity: 0.8"/>
    </g>
   </g>
   <g id="text_43">
    <!-- 110 -->
    <g style="fill: #262626" transform="translate(827.04 85.341) scale(0.192 -0.192)">
     <use xlink:href="#ArialMT-31"/>
     <use xlink:href="#ArialMT-31" x="48.240234"/>
     <use xlink:href="#ArialMT-30" x="103.855469"/>
    </g>
   </g>
   <g id="PathCollection_28">
    <g>
     <use xlink:href="#madc865c153" x="792.48" y="107.46" style="fill: #ff0000; fill-opacity: 0.8; stroke: #ff0000; stroke-opacity: 0.8"/>
    </g>
   </g>
   <g id="text_44">
    <!-- 111 -->
    <g style="fill: #262626" transform="translate(827.04 112.5) scale(0.192 -0.192)">
     <use xlink:href="#ArialMT-31"/>
     <use xlink:href="#ArialMT-31" x="48.240234"/>
     <use xlink:href="#ArialMT-31" x="96.480469"/>
    </g>
   </g>
   <g id="PathCollection_29">
    <g>
     <use xlink:href="#m07df1240db" x="792.48" y="134.619" style="fill: #ffd700; fill-opacity: 0.8; stroke: #ffd700; stroke-opacity: 0.8"/>
    </g>
   </g>
   <g id="text_45">
    <!-- 112 -->
    <g style="fill: #262626" transform="translate(827.04 139.659) scale(0.192 -0.192)">
     <use xlink:href="#ArialMT-31"/>
     <use xlink:href="#ArialMT-31" x="48.240234"/>
     <use xlink:href="#ArialMT-32" x="103.855469"/>
    </g>
   </g>
   <g id="PathCollection_30">
    <g>
     <use xlink:href="#m1b0698e371" x="792.48" y="161.778" style="fill: #ff8c00; fill-opacity: 0.8; stroke: #ff8c00; stroke-opacity: 0.8"/>
    </g>
   </g>
   <g id="text_46">
    <!-- 204 -->
    <g style="fill: #262626" transform="translate(827.04 166.818) scale(0.192 -0.192)">
     <use xlink:href="#ArialMT-32"/>
     <use xlink:href="#ArialMT-30" x="55.615234"/>
     <use xlink:href="#ArialMT-34" x="111.230469"/>
    </g>
   </g>
   <g id="PathCollection_31">
    <g>
     <use xlink:href="#m677db90d71" x="792.48" y="188.937" style="fill: #8b4513; fill-opacity: 0.8; stroke: #8b4513; stroke-opacity: 0.8"/>
    </g>
   </g>
   <g id="text_47">
    <!-- 207 -->
    <g style="fill: #262626" transform="translate(827.04 193.977) scale(0.192 -0.192)">
     <use xlink:href="#ArialMT-32"/>
     <use xlink:href="#ArialMT-30" x="55.615234"/>
     <use xlink:href="#ArialMT-37" x="111.230469"/>
    </g>
   </g>
   <g id="PathCollection_32">
    <g>
     <use xlink:href="#m14acac30fe" x="792.48" y="216.096" style="fill: #0000cd; fill-opacity: 0.8; stroke: #0000cd; stroke-opacity: 0.8"/>
    </g>
   </g>
   <g id="text_48">
    <!-- 302 -->
    <g style="fill: #262626" transform="translate(827.04 221.136) scale(0.192 -0.192)">
     <use xlink:href="#ArialMT-33"/>
     <use xlink:href="#ArialMT-30" x="55.615234"/>
     <use xlink:href="#ArialMT-32" x="111.230469"/>
    </g>
   </g>
   <g id="PathCollection_33">
    <g>
     <use xlink:href="#m1b81c89c95" x="792.48" y="243.255" style="fill: #1e90ff; fill-opacity: 0.8; stroke: #1e90ff; stroke-opacity: 0.8"/>
    </g>
   </g>
   <g id="text_49">
    <!-- 307 -->
    <g style="fill: #262626" transform="translate(827.04 248.295) scale(0.192 -0.192)">
     <use xlink:href="#ArialMT-33"/>
     <use xlink:href="#ArialMT-30" x="55.615234"/>
     <use xlink:href="#ArialMT-37" x="111.230469"/>
    </g>
   </g>
   <g id="PathCollection_34">
    <g>
     <use xlink:href="#m732025569f" x="792.48" y="270.414" style="fill: #40e0d0; fill-opacity: 0.8; stroke: #40e0d0; stroke-opacity: 0.8"/>
    </g>
   </g>
   <g id="text_50">
    <!-- 308 -->
    <g style="fill: #262626" transform="translate(827.04 275.454) scale(0.192 -0.192)">
     <use xlink:href="#ArialMT-33"/>
     <use xlink:href="#ArialMT-30" x="55.615234"/>
     <use xlink:href="#ArialMT-38" x="111.230469"/>
    </g>
   </g>
   <g id="PathCollection_35">
    <g>
     <use xlink:href="#m3bb3976ba3" x="792.48" y="297.573" style="fill: #006400; fill-opacity: 0.8; stroke: #006400; stroke-opacity: 0.8"/>
    </g>
   </g>
   <g id="text_51">
    <!-- 311 -->
    <g style="fill: #262626" transform="translate(827.04 302.613) scale(0.192 -0.192)">
     <use xlink:href="#ArialMT-33"/>
     <use xlink:href="#ArialMT-31" x="55.615234"/>
     <use xlink:href="#ArialMT-31" x="103.855469"/>
    </g>
   </g>
   <g id="PathCollection_36">
    <g>
     <use xlink:href="#m9a55138cf5" x="792.48" y="324.732" style="fill: #7cfc00; fill-opacity: 0.8; stroke: #7cfc00; stroke-opacity: 0.8"/>
    </g>
   </g>
   <g id="text_52">
    <!-- 312 -->
    <g style="fill: #262626" transform="translate(827.04 329.772) scale(0.192 -0.192)">
     <use xlink:href="#ArialMT-33"/>
     <use xlink:href="#ArialMT-31" x="55.615234"/>
     <use xlink:href="#ArialMT-32" x="111.230469"/>
    </g>
   </g>
   <g id="line2d_3">
    <path style="fill: none; stroke: #000000; stroke-width: 1.5; stroke-linecap: round"/>
   </g>
   <g id="text_53">
    <!-- Population -->
    <g style="fill: #262626" transform="translate(827.04 356.931) scale(0.192 -0.192)">
     <defs>
      <path id="ArialMT-50" d="M 494 0 
L 494 4581 
L 2222 4581 
Q 2678 4581 2919 4538 
Q 3256 4481 3484 4323 
Q 3713 4166 3852 3881 
Q 3991 3597 3991 3256 
Q 3991 2672 3619 2267 
Q 3247 1863 2275 1863 
L 1100 1863 
L 1100 0 
L 494 0 
z
M 1100 2403 
L 2284 2403 
Q 2872 2403 3119 2622 
Q 3366 2841 3366 3238 
Q 3366 3525 3220 3729 
Q 3075 3934 2838 4000 
Q 2684 4041 2272 4041 
L 1100 4041 
L 1100 2403 
z
" transform="scale(0.015625)"/>
      <path id="ArialMT-70" d="M 422 -1272 
L 422 3319 
L 934 3319 
L 934 2888 
Q 1116 3141 1344 3267 
Q 1572 3394 1897 3394 
Q 2322 3394 2647 3175 
Q 2972 2956 3137 2557 
Q 3303 2159 3303 1684 
Q 3303 1175 3120 767 
Q 2938 359 2589 142 
Q 2241 -75 1856 -75 
Q 1575 -75 1351 44 
Q 1128 163 984 344 
L 984 -1272 
L 422 -1272 
z
M 931 1641 
Q 931 1000 1190 694 
Q 1450 388 1819 388 
Q 2194 388 2461 705 
Q 2728 1022 2728 1688 
Q 2728 2322 2467 2637 
Q 2206 2953 1844 2953 
Q 1484 2953 1207 2617 
Q 931 2281 931 1641 
z
" transform="scale(0.015625)"/>
      <path id="ArialMT-75" d="M 2597 0 
L 2597 488 
Q 2209 -75 1544 -75 
Q 1250 -75 995 37 
Q 741 150 617 320 
Q 494 491 444 738 
Q 409 903 409 1263 
L 409 3319 
L 972 3319 
L 972 1478 
Q 972 1038 1006 884 
Q 1059 663 1231 536 
Q 1403 409 1656 409 
Q 1909 409 2131 539 
Q 2353 669 2445 892 
Q 2538 1116 2538 1541 
L 2538 3319 
L 3100 3319 
L 3100 0 
L 2597 0 
z
" transform="scale(0.015625)"/>
      <path id="ArialMT-6c" d="M 409 0 
L 409 4581 
L 972 4581 
L 972 0 
L 409 0 
z
" transform="scale(0.015625)"/>
      <path id="ArialMT-61" d="M 2588 409 
Q 2275 144 1986 34 
Q 1697 -75 1366 -75 
Q 819 -75 525 192 
Q 231 459 231 875 
Q 231 1119 342 1320 
Q 453 1522 633 1644 
Q 813 1766 1038 1828 
Q 1203 1872 1538 1913 
Q 2219 1994 2541 2106 
Q 2544 2222 2544 2253 
Q 2544 2597 2384 2738 
Q 2169 2928 1744 2928 
Q 1347 2928 1158 2789 
Q 969 2650 878 2297 
L 328 2372 
Q 403 2725 575 2942 
Q 747 3159 1072 3276 
Q 1397 3394 1825 3394 
Q 2250 3394 2515 3294 
Q 2781 3194 2906 3042 
Q 3031 2891 3081 2659 
Q 3109 2516 3109 2141 
L 3109 1391 
Q 3109 606 3145 398 
Q 3181 191 3288 0 
L 2700 0 
Q 2613 175 2588 409 
z
M 2541 1666 
Q 2234 1541 1622 1453 
Q 1275 1403 1131 1340 
Q 988 1278 909 1158 
Q 831 1038 831 891 
Q 831 666 1001 516 
Q 1172 366 1500 366 
Q 1825 366 2078 508 
Q 2331 650 2450 897 
Q 2541 1088 2541 1459 
L 2541 1666 
z
" transform="scale(0.015625)"/>
      <path id="ArialMT-74" d="M 1650 503 
L 1731 6 
Q 1494 -44 1306 -44 
Q 1000 -44 831 53 
Q 663 150 594 308 
Q 525 466 525 972 
L 525 2881 
L 113 2881 
L 113 3319 
L 525 3319 
L 525 4141 
L 1084 4478 
L 1084 3319 
L 1650 3319 
L 1650 2881 
L 1084 2881 
L 1084 941 
Q 1084 700 1114 631 
Q 1144 563 1211 522 
Q 1278 481 1403 481 
Q 1497 481 1650 503 
z
" transform="scale(0.015625)"/>
      <path id="ArialMT-6e" d="M 422 0 
L 422 3319 
L 928 3319 
L 928 2847 
Q 1294 3394 1984 3394 
Q 2284 3394 2536 3286 
Q 2788 3178 2913 3003 
Q 3038 2828 3088 2588 
Q 3119 2431 3119 2041 
L 3119 0 
L 2556 0 
L 2556 2019 
Q 2556 2363 2490 2533 
Q 2425 2703 2258 2804 
Q 2091 2906 1866 2906 
Q 1506 2906 1245 2678 
Q 984 2450 984 1813 
L 984 0 
L 422 0 
z
" transform="scale(0.015625)"/>
     </defs>
     <use xlink:href="#ArialMT-50"/>
     <use xlink:href="#ArialMT-6f" x="66.699219"/>
     <use xlink:href="#ArialMT-70" x="122.314453"/>
     <use xlink:href="#ArialMT-75" x="177.929688"/>
     <use xlink:href="#ArialMT-6c" x="233.544922"/>
     <use xlink:href="#ArialMT-61" x="255.761719"/>
     <use xlink:href="#ArialMT-74" x="311.376953"/>
     <use xlink:href="#ArialMT-69" x="339.160156"/>
     <use xlink:href="#ArialMT-6f" x="361.376953"/>
     <use xlink:href="#ArialMT-6e" x="416.992188"/>
    </g>
   </g>
  </g>
 </g>
 <defs>
  <clipPath id="p888b5fa04c">
   <rect x="90" y="43.2" width="237.272727" height="277.2"/>
  </clipPath>
  <clipPath id="pd4169e2dd3">
   <rect x="374.727273" y="43.2" width="237.272727" height="277.2"/>
  </clipPath>
 </defs>
</svg>
