<?xml version="1.0" encoding="utf-8" standalone="no"?>
<!DOCTYPE svg PUBLIC "-//W3C//DTD SVG 1.1//EN"
  "http://www.w3.org/Graphics/SVG/1.1/DTD/svg11.dtd">
<svg xmlns:xlink="http://www.w3.org/1999/xlink" width="720pt" height="360pt" viewBox="0 0 720 360" xmlns="http://www.w3.org/2000/svg" version="1.1">
 <metadata>
  <rdf:RDF xmlns:dc="http://purl.org/dc/elements/1.1/" xmlns:cc="http://creativecommons.org/ns#" xmlns:rdf="http://www.w3.org/1999/02/22-rdf-syntax-ns#">
   <cc:Work>
    <dc:type rdf:resource="http://purl.org/dc/dcmitype/StillImage"/>
    <dc:date>2024-12-04T11:15:19.664785</dc:date>
    <dc:format>image/svg+xml</dc:format>
    <dc:creator>
     <cc:Agent>
      <dc:title>Matplotlib v3.9.2, https://matplotlib.org/</dc:title>
     </cc:Agent>
    </dc:creator>
   </cc:Work>
  </rdf:RDF>
 </metadata>
 <defs>
  <style type="text/css">*{stroke-linejoin: round; stroke-linecap: butt}</style>
 </defs>
 <g id="figure_1">
  <g id="patch_1">
   <path d="M 0 360 
L 720 360 
L 720 0 
L 0 0 
z
" style="fill: #ffffff"/>
  </g>
  <g id="axes_1">
   <g id="patch_2">
    <path d="M 90 320.4 
L 327.272727 320.4 
L 327.272727 43.2 
L 90 43.2 
z
" style="fill: #ffffff"/>
   </g>
   <g id="matplotlib.axis_1">
    <g id="xtick_1">
     <g id="text_1">
      <!-- 0 -->
      <g style="fill: #262626" transform="translate(88.889695 340.20725) scale(0.144 -0.144)">
       <defs>
        <path id="ArialMT-30" d="M 266 2259 
Q 266 3072 433 3567 
Q 600 4063 929 4331 
Q 1259 4600 1759 4600 
Q 2128 4600 2406 4451 
Q 2684 4303 2865 4023 
Q 3047 3744 3150 3342 
Q 3253 2941 3253 2259 
Q 3253 1453 3087 958 
Q 2922 463 2592 192 
Q 2263 -78 1759 -78 
Q 1097 -78 719 397 
Q 266 969 266 2259 
z
M 844 2259 
Q 844 1131 1108 757 
Q 1372 384 1759 384 
Q 2147 384 2411 759 
Q 2675 1134 2675 2259 
Q 2675 3391 2411 3762 
Q 2147 4134 1753 4134 
Q 1366 4134 1134 3806 
Q 844 3388 844 2259 
z
" transform="scale(0.015625)"/>
       </defs>
       <use xlink:href="#ArialMT-30"/>
      </g>
     </g>
    </g>
    <g id="xtick_2">
     <g id="text_2">
      <!-- 1 -->
      <g style="fill: #262626" transform="translate(117.825393 340.20725) scale(0.144 -0.144)">
       <defs>
        <path id="ArialMT-31" d="M 2384 0 
L 1822 0 
L 1822 3584 
Q 1619 3391 1289 3197 
Q 959 3003 697 2906 
L 697 3450 
Q 1169 3672 1522 3987 
Q 1875 4303 2022 4600 
L 2384 4600 
L 2384 0 
z
" transform="scale(0.015625)"/>
       </defs>
       <use xlink:href="#ArialMT-31"/>
      </g>
     </g>
    </g>
    <g id="xtick_3">
     <g id="text_3">
      <!-- 2 -->
      <g style="fill: #262626" transform="translate(146.761092 340.20725) scale(0.144 -0.144)">
       <defs>
        <path id="ArialMT-32" d="M 3222 541 
L 3222 0 
L 194 0 
Q 188 203 259 391 
Q 375 700 629 1000 
Q 884 1300 1366 1694 
Q 2113 2306 2375 2664 
Q 2638 3022 2638 3341 
Q 2638 3675 2398 3904 
Q 2159 4134 1775 4134 
Q 1369 4134 1125 3890 
Q 881 3647 878 3216 
L 300 3275 
Q 359 3922 746 4261 
Q 1134 4600 1788 4600 
Q 2447 4600 2831 4234 
Q 3216 3869 3216 3328 
Q 3216 3053 3103 2787 
Q 2991 2522 2730 2228 
Q 2469 1934 1863 1422 
Q 1356 997 1212 845 
Q 1069 694 975 541 
L 3222 541 
z
" transform="scale(0.015625)"/>
       </defs>
       <use xlink:href="#ArialMT-32"/>
      </g>
     </g>
    </g>
    <g id="xtick_4">
     <g id="text_4">
      <!-- 3 -->
      <g style="fill: #262626" transform="translate(175.69679 340.20725) scale(0.144 -0.144)">
       <defs>
        <path id="ArialMT-33" d="M 269 1209 
L 831 1284 
Q 928 806 1161 595 
Q 1394 384 1728 384 
Q 2125 384 2398 659 
Q 2672 934 2672 1341 
Q 2672 1728 2419 1979 
Q 2166 2231 1775 2231 
Q 1616 2231 1378 2169 
L 1441 2663 
Q 1497 2656 1531 2656 
Q 1891 2656 2178 2843 
Q 2466 3031 2466 3422 
Q 2466 3731 2256 3934 
Q 2047 4138 1716 4138 
Q 1388 4138 1169 3931 
Q 950 3725 888 3313 
L 325 3413 
Q 428 3978 793 4289 
Q 1159 4600 1703 4600 
Q 2078 4600 2393 4439 
Q 2709 4278 2876 4000 
Q 3044 3722 3044 3409 
Q 3044 3113 2884 2869 
Q 2725 2625 2413 2481 
Q 2819 2388 3044 2092 
Q 3269 1797 3269 1353 
Q 3269 753 2831 336 
Q 2394 -81 1725 -81 
Q 1122 -81 723 278 
Q 325 638 269 1209 
z
" transform="scale(0.015625)"/>
       </defs>
       <use xlink:href="#ArialMT-33"/>
      </g>
     </g>
    </g>
    <g id="xtick_5">
     <g id="text_5">
      <!-- 4 -->
      <g style="fill: #262626" transform="translate(204.632489 340.20725) scale(0.144 -0.144)">
       <defs>
        <path id="ArialMT-34" d="M 2069 0 
L 2069 1097 
L 81 1097 
L 81 1613 
L 2172 4581 
L 2631 4581 
L 2631 1613 
L 3250 1613 
L 3250 1097 
L 2631 1097 
L 2631 0 
L 2069 0 
z
M 2069 1613 
L 2069 3678 
L 634 1613 
L 2069 1613 
z
" transform="scale(0.015625)"/>
       </defs>
       <use xlink:href="#ArialMT-34"/>
      </g>
     </g>
    </g>
    <g id="xtick_6">
     <g id="text_6">
      <!-- 5 -->
      <g style="fill: #262626" transform="translate(233.568187 340.20725) scale(0.144 -0.144)">
       <defs>
        <path id="ArialMT-35" d="M 266 1200 
L 856 1250 
Q 922 819 1161 601 
Q 1400 384 1738 384 
Q 2144 384 2425 690 
Q 2706 997 2706 1503 
Q 2706 1984 2436 2262 
Q 2166 2541 1728 2541 
Q 1456 2541 1237 2417 
Q 1019 2294 894 2097 
L 366 2166 
L 809 4519 
L 3088 4519 
L 3088 3981 
L 1259 3981 
L 1013 2750 
Q 1425 3038 1878 3038 
Q 2478 3038 2890 2622 
Q 3303 2206 3303 1553 
Q 3303 931 2941 478 
Q 2500 -78 1738 -78 
Q 1113 -78 717 272 
Q 322 622 266 1200 
z
" transform="scale(0.015625)"/>
       </defs>
       <use xlink:href="#ArialMT-35"/>
      </g>
     </g>
    </g>
    <g id="xtick_7">
     <g id="text_7">
      <!-- 6 -->
      <g style="fill: #262626" transform="translate(262.503886 340.20725) scale(0.144 -0.144)">
       <defs>
        <path id="ArialMT-36" d="M 3184 3459 
L 2625 3416 
Q 2550 3747 2413 3897 
Q 2184 4138 1850 4138 
Q 1581 4138 1378 3988 
Q 1113 3794 959 3422 
Q 806 3050 800 2363 
Q 1003 2672 1297 2822 
Q 1591 2972 1913 2972 
Q 2475 2972 2870 2558 
Q 3266 2144 3266 1488 
Q 3266 1056 3080 686 
Q 2894 316 2569 119 
Q 2244 -78 1831 -78 
Q 1128 -78 684 439 
Q 241 956 241 2144 
Q 241 3472 731 4075 
Q 1159 4600 1884 4600 
Q 2425 4600 2770 4297 
Q 3116 3994 3184 3459 
z
M 888 1484 
Q 888 1194 1011 928 
Q 1134 663 1356 523 
Q 1578 384 1822 384 
Q 2178 384 2434 671 
Q 2691 959 2691 1453 
Q 2691 1928 2437 2201 
Q 2184 2475 1800 2475 
Q 1419 2475 1153 2201 
Q 888 1928 888 1484 
z
" transform="scale(0.015625)"/>
       </defs>
       <use xlink:href="#ArialMT-36"/>
      </g>
     </g>
    </g>
    <g id="xtick_8">
     <g id="text_8">
      <!-- 7 -->
      <g style="fill: #262626" transform="translate(291.439584 340.20725) scale(0.144 -0.144)">
       <defs>
        <path id="ArialMT-37" d="M 303 3981 
L 303 4522 
L 3269 4522 
L 3269 4084 
Q 2831 3619 2401 2847 
Q 1972 2075 1738 1259 
Q 1569 684 1522 0 
L 944 0 
Q 953 541 1156 1306 
Q 1359 2072 1739 2783 
Q 2119 3494 2547 3981 
L 303 3981 
z
" transform="scale(0.015625)"/>
       </defs>
       <use xlink:href="#ArialMT-37"/>
      </g>
     </g>
    </g>
    <g id="xtick_9">
     <g id="text_9">
      <!-- 8 -->
      <g style="fill: #262626" transform="translate(320.375282 340.20725) scale(0.144 -0.144)">
       <defs>
        <path id="ArialMT-38" d="M 1131 2484 
Q 781 2613 612 2850 
Q 444 3088 444 3419 
Q 444 3919 803 4259 
Q 1163 4600 1759 4600 
Q 2359 4600 2725 4251 
Q 3091 3903 3091 3403 
Q 3091 3084 2923 2848 
Q 2756 2613 2416 2484 
Q 2838 2347 3058 2040 
Q 3278 1734 3278 1309 
Q 3278 722 2862 322 
Q 2447 -78 1769 -78 
Q 1091 -78 675 323 
Q 259 725 259 1325 
Q 259 1772 486 2073 
Q 713 2375 1131 2484 
z
M 1019 3438 
Q 1019 3113 1228 2906 
Q 1438 2700 1772 2700 
Q 2097 2700 2305 2904 
Q 2513 3109 2513 3406 
Q 2513 3716 2298 3927 
Q 2084 4138 1766 4138 
Q 1444 4138 1231 3931 
Q 1019 3725 1019 3438 
z
M 838 1322 
Q 838 1081 952 856 
Q 1066 631 1291 507 
Q 1516 384 1775 384 
Q 2178 384 2440 643 
Q 2703 903 2703 1303 
Q 2703 1709 2433 1975 
Q 2163 2241 1756 2241 
Q 1359 2241 1098 1978 
Q 838 1716 838 1322 
z
" transform="scale(0.015625)"/>
       </defs>
       <use xlink:href="#ArialMT-38"/>
      </g>
     </g>
    </g>
    <g id="text_10">
     <!-- Time (d) -->
     <g style="fill: #262626" transform="translate(173.266364 361.04625) scale(0.192 -0.192)">
      <defs>
       <path id="ArialMT-54" d="M 1659 0 
L 1659 4041 
L 150 4041 
L 150 4581 
L 3781 4581 
L 3781 4041 
L 2266 4041 
L 2266 0 
L 1659 0 
z
" transform="scale(0.015625)"/>
       <path id="ArialMT-69" d="M 425 3934 
L 425 4581 
L 988 4581 
L 988 3934 
L 425 3934 
z
M 425 0 
L 425 3319 
L 988 3319 
L 988 0 
L 425 0 
z
" transform="scale(0.015625)"/>
       <path id="ArialMT-6d" d="M 422 0 
L 422 3319 
L 925 3319 
L 925 2853 
Q 1081 3097 1340 3245 
Q 1600 3394 1931 3394 
Q 2300 3394 2536 3241 
Q 2772 3088 2869 2813 
Q 3263 3394 3894 3394 
Q 4388 3394 4653 3120 
Q 4919 2847 4919 2278 
L 4919 0 
L 4359 0 
L 4359 2091 
Q 4359 2428 4304 2576 
Q 4250 2725 4106 2815 
Q 3963 2906 3769 2906 
Q 3419 2906 3187 2673 
Q 2956 2441 2956 1928 
L 2956 0 
L 2394 0 
L 2394 2156 
Q 2394 2531 2256 2718 
Q 2119 2906 1806 2906 
Q 1569 2906 1367 2781 
Q 1166 2656 1075 2415 
Q 984 2175 984 1722 
L 984 0 
L 422 0 
z
" transform="scale(0.015625)"/>
       <path id="ArialMT-65" d="M 2694 1069 
L 3275 997 
Q 3138 488 2766 206 
Q 2394 -75 1816 -75 
Q 1088 -75 661 373 
Q 234 822 234 1631 
Q 234 2469 665 2931 
Q 1097 3394 1784 3394 
Q 2450 3394 2872 2941 
Q 3294 2488 3294 1666 
Q 3294 1616 3291 1516 
L 816 1516 
Q 847 969 1125 678 
Q 1403 388 1819 388 
Q 2128 388 2347 550 
Q 2566 713 2694 1069 
z
M 847 1978 
L 2700 1978 
Q 2663 2397 2488 2606 
Q 2219 2931 1791 2931 
Q 1403 2931 1139 2672 
Q 875 2413 847 1978 
z
" transform="scale(0.015625)"/>
       <path id="ArialMT-20" transform="scale(0.015625)"/>
       <path id="ArialMT-28" d="M 1497 -1347 
Q 1031 -759 709 28 
Q 388 816 388 1659 
Q 388 2403 628 3084 
Q 909 3875 1497 4659 
L 1900 4659 
Q 1522 4009 1400 3731 
Q 1209 3300 1100 2831 
Q 966 2247 966 1656 
Q 966 153 1900 -1347 
L 1497 -1347 
z
" transform="scale(0.015625)"/>
       <path id="ArialMT-64" d="M 2575 0 
L 2575 419 
Q 2259 -75 1647 -75 
Q 1250 -75 917 144 
Q 584 363 401 755 
Q 219 1147 219 1656 
Q 219 2153 384 2558 
Q 550 2963 881 3178 
Q 1213 3394 1622 3394 
Q 1922 3394 2156 3267 
Q 2391 3141 2538 2938 
L 2538 4581 
L 3097 4581 
L 3097 0 
L 2575 0 
z
M 797 1656 
Q 797 1019 1065 703 
Q 1334 388 1700 388 
Q 2069 388 2326 689 
Q 2584 991 2584 1609 
Q 2584 2291 2321 2609 
Q 2059 2928 1675 2928 
Q 1300 2928 1048 2622 
Q 797 2316 797 1656 
z
" transform="scale(0.015625)"/>
       <path id="ArialMT-29" d="M 791 -1347 
L 388 -1347 
Q 1322 153 1322 1656 
Q 1322 2244 1188 2822 
Q 1081 3291 891 3722 
Q 769 4003 388 4659 
L 791 4659 
Q 1378 3875 1659 3084 
Q 1900 2403 1900 1659 
Q 1900 816 1576 28 
Q 1253 -759 791 -1347 
z
" transform="scale(0.015625)"/>
      </defs>
      <use xlink:href="#ArialMT-54"/>
      <use xlink:href="#ArialMT-69" x="57.333984"/>
      <use xlink:href="#ArialMT-6d" x="79.550781"/>
      <use xlink:href="#ArialMT-65" x="162.851562"/>
      <use xlink:href="#ArialMT-20" x="218.466797"/>
      <use xlink:href="#ArialMT-28" x="246.25"/>
      <use xlink:href="#ArialMT-64" x="279.550781"/>
      <use xlink:href="#ArialMT-29" x="335.166016"/>
     </g>
    </g>
   </g>
   <g id="matplotlib.axis_2">
    <g id="ytick_1">
     <g id="text_11">
      <!-- 0 -->
      <g style="fill: #262626" transform="translate(72.49225 325.553625) scale(0.144 -0.144)">
       <use xlink:href="#ArialMT-30"/>
      </g>
     </g>
    </g>
    <g id="ytick_2">
     <g id="text_12">
      <!-- 1 -->
      <g style="fill: #262626" transform="translate(72.49225 291.953625) scale(0.144 -0.144)">
       <use xlink:href="#ArialMT-31"/>
      </g>
     </g>
    </g>
    <g id="ytick_3">
     <g id="text_13">
      <!-- 2 -->
      <g style="fill: #262626" transform="translate(72.49225 258.353625) scale(0.144 -0.144)">
       <use xlink:href="#ArialMT-32"/>
      </g>
     </g>
    </g>
    <g id="ytick_4">
     <g id="text_14">
      <!-- 3 -->
      <g style="fill: #262626" transform="translate(72.49225 224.753625) scale(0.144 -0.144)">
       <use xlink:href="#ArialMT-33"/>
      </g>
     </g>
    </g>
    <g id="ytick_5">
     <g id="text_15">
      <!-- 4 -->
      <g style="fill: #262626" transform="translate(72.49225 191.153625) scale(0.144 -0.144)">
       <use xlink:href="#ArialMT-34"/>
      </g>
     </g>
    </g>
    <g id="ytick_6">
     <g id="text_16">
      <!-- 5 -->
      <g style="fill: #262626" transform="translate(72.49225 157.553625) scale(0.144 -0.144)">
       <use xlink:href="#ArialMT-35"/>
      </g>
     </g>
    </g>
    <g id="ytick_7">
     <g id="text_17">
      <!-- 6 -->
      <g style="fill: #262626" transform="translate(72.49225 123.953625) scale(0.144 -0.144)">
       <use xlink:href="#ArialMT-36"/>
      </g>
     </g>
    </g>
    <g id="ytick_8">
     <g id="text_18">
      <!-- 7 -->
      <g style="fill: #262626" transform="translate(72.49225 90.353625) scale(0.144 -0.144)">
       <use xlink:href="#ArialMT-37"/>
      </g>
     </g>
    </g>
    <g id="ytick_9">
     <g id="text_19">
      <!-- 8 -->
      <g style="fill: #262626" transform="translate(72.49225 56.753625) scale(0.144 -0.144)">
       <use xlink:href="#ArialMT-38"/>
      </g>
     </g>
    </g>
    <g id="text_20">
     <!-- Log10(V) -->
     <g style="fill: #262626" transform="translate(64.45125 221.289) rotate(-90) scale(0.192 -0.192)">
      <defs>
       <path id="ArialMT-4c" d="M 469 0 
L 469 4581 
L 1075 4581 
L 1075 541 
L 3331 541 
L 3331 0 
L 469 0 
z
" transform="scale(0.015625)"/>
       <path id="ArialMT-6f" d="M 213 1659 
Q 213 2581 725 3025 
Q 1153 3394 1769 3394 
Q 2453 3394 2887 2945 
Q 3322 2497 3322 1706 
Q 3322 1066 3130 698 
Q 2938 331 2570 128 
Q 2203 -75 1769 -75 
Q 1072 -75 642 372 
Q 213 819 213 1659 
z
M 791 1659 
Q 791 1022 1069 705 
Q 1347 388 1769 388 
Q 2188 388 2466 706 
Q 2744 1025 2744 1678 
Q 2744 2294 2464 2611 
Q 2184 2928 1769 2928 
Q 1347 2928 1069 2612 
Q 791 2297 791 1659 
z
" transform="scale(0.015625)"/>
       <path id="ArialMT-67" d="M 319 -275 
L 866 -356 
Q 900 -609 1056 -725 
Q 1266 -881 1628 -881 
Q 2019 -881 2231 -725 
Q 2444 -569 2519 -288 
Q 2563 -116 2559 434 
Q 2191 0 1641 0 
Q 956 0 581 494 
Q 206 988 206 1678 
Q 206 2153 378 2554 
Q 550 2956 876 3175 
Q 1203 3394 1644 3394 
Q 2231 3394 2613 2919 
L 2613 3319 
L 3131 3319 
L 3131 450 
Q 3131 -325 2973 -648 
Q 2816 -972 2473 -1159 
Q 2131 -1347 1631 -1347 
Q 1038 -1347 672 -1080 
Q 306 -813 319 -275 
z
M 784 1719 
Q 784 1066 1043 766 
Q 1303 466 1694 466 
Q 2081 466 2343 764 
Q 2606 1063 2606 1700 
Q 2606 2309 2336 2618 
Q 2066 2928 1684 2928 
Q 1309 2928 1046 2623 
Q 784 2319 784 1719 
z
" transform="scale(0.015625)"/>
       <path id="ArialMT-56" d="M 1803 0 
L 28 4581 
L 684 4581 
L 1875 1253 
Q 2019 853 2116 503 
Q 2222 878 2363 1253 
L 3600 4581 
L 4219 4581 
L 2425 0 
L 1803 0 
z
" transform="scale(0.015625)"/>
      </defs>
      <use xlink:href="#ArialMT-4c"/>
      <use xlink:href="#ArialMT-6f" x="55.615234"/>
      <use xlink:href="#ArialMT-67" x="111.230469"/>
      <use xlink:href="#ArialMT-31" x="166.845703"/>
      <use xlink:href="#ArialMT-30" x="222.460938"/>
      <use xlink:href="#ArialMT-28" x="278.076172"/>
      <use xlink:href="#ArialMT-56" x="311.376953"/>
      <use xlink:href="#ArialMT-29" x="378.076172"/>
     </g>
    </g>
   </g>
   <g id="patch_3">
    <path d="M 90 320.4 
L 90 43.2 
" style="fill: none; stroke: #262626; stroke-width: 1.25; stroke-linejoin: miter; stroke-linecap: square"/>
   </g>
   <g id="patch_4">
    <path d="M 327.272727 320.4 
L 327.272727 43.2 
" style="fill: none; stroke: #262626; stroke-width: 1.25; stroke-linejoin: miter; stroke-linecap: square"/>
   </g>
   <g id="patch_5">
    <path d="M 90 320.4 
L 327.272727 320.4 
" style="fill: none; stroke: #262626; stroke-width: 1.25; stroke-linejoin: miter; stroke-linecap: square"/>
   </g>
   <g id="patch_6">
    <path d="M 90 43.2 
L 327.272727 43.2 
" style="fill: none; stroke: #262626; stroke-width: 1.25; stroke-linejoin: miter; stroke-linecap: square"/>
   </g>
   <g id="PolyCollection_1">
    <defs>
     <path id="mfd61852f5a" d="M 92.89357 -39.6 
L 92.89357 -39.6 
L 92.893989 -39.6 
L 92.898185 -39.6 
L 92.940143 -39.6 
L 93.171224 -39.6 
L 93.310328 -39.6 
L 93.852865 -39.6 
L 94.151079 -39.6 
L 95.232915 -52.722547 
L 95.778139 -57.468298 
L 97.520564 -68.634626 
L 98.188148 -72.040863 
L 99.645071 -79.068768 
L 100.449255 -82.815458 
L 102.034291 -90.160763 
L 102.927167 -94.232037 
L 104.480135 -101.36196 
L 105.452177 -105.804581 
L 107.020639 -112.971163 
L 108.050472 -117.623094 
L 109.611121 -124.704627 
L 110.685422 -129.560016 
L 112.241616 -136.61965 
L 113.347424 -141.61913 
L 115.048215 -149.345478 
L 116.133285 -154.252895 
L 117.6204 -160.989334 
L 118.746057 -166.077178 
L 120.363715 -173.408788 
L 121.484362 -178.472152 
L 122.999138 -185.317525 
L 124.146782 -190.490057 
L 125.778415 -197.841414 
L 126.917399 -202.949557 
L 128.455562 -209.809592 
L 129.624926 -214.98544 
L 131.292171 -222.267684 
L 132.470992 -227.330878 
L 134.27985 -234.824582 
L 135.456199 -239.521258 
L 137.082207 -245.533831 
L 138.30842 -249.74168 
L 140.08878 -254.990484 
L 141.361288 -258.25623 
L 142.92412 -261.419793 
L 144.116718 -263.379202 
L 145.459066 -264.882409 
L 146.561507 -265.83651 
L 147.676931 -266.418293 
L 148.673574 -266.764958 
L 149.675103 -266.994382 
L 150.437476 -267.102573 
L 151.15718 -267.157184 
L 151.760155 -267.172505 
L 152.316808 -267.162948 
L 152.806267 -267.13979 
L 153.295726 -267.10152 
L 153.702585 -267.059568 
L 154.084458 -267.012855 
L 154.466331 -266.958242 
L 154.779074 -266.908557 
L 155.133607 -266.84231 
L 156.382637 -266.590414 
L 156.860746 -266.473826 
L 158.406003 -266.063572 
L 159.075324 -265.858168 
L 161.651408 -264.997645 
L 162.817461 -264.555789 
L 165.711031 -263.384411 
L 167.280493 -262.639284 
L 170.174063 -261.228919 
L 172.210606 -260.19418 
L 175.104176 -258.686559 
L 177.997746 -257.134858 
L 180.891316 -255.542451 
L 183.784886 -253.91006 
L 186.678456 -252.173099 
L 189.572025 -250.370036 
L 192.465595 -248.516875 
L 195.359165 -246.611417 
L 198.252735 -244.651004 
L 201.146305 -242.632401 
L 204.039875 -240.551577 
L 206.933444 -238.403411 
L 209.827014 -236.181313 
L 212.720584 -233.876729 
L 215.614154 -231.478485 
L 218.507724 -228.971859 
L 221.401294 -226.337236 
L 224.294863 -223.548036 
L 227.188433 -220.56737 
L 230.082003 -217.342356 
L 232.975573 -213.607617 
L 235.869143 -208.88768 
L 238.762713 -203.007086 
L 241.656283 -194.713842 
L 244.549852 -181.55203 
L 245.128566 -177.529662 
L 245.70728 -173.47981 
L 246.004937 -171.395542 
L 246.96299 -164.692002 
L 247.043424 -164.122322 
L 247.053106 -164.053745 
L 247.101518 -163.710864 
L 247.102807 -163.701735 
L 247.115696 -163.610444 
L 247.140164 -163.437152 
L 247.15014 -163.366494 
L 247.156109 -163.324218 
L 247.167511 -163.243465 
L 247.175283 -163.188417 
L 247.193375 -163.06028 
L 247.221109 -162.863852 
L 247.283251 -162.423725 
L 247.421192 -161.446749 
L 247.769595 -158.979155 
L 248.669238 -152.641703 
L 249.310668 -148.125937 
L 250.723367 -138.007192 
L 251.60795 -131.761126 
L 253.381891 -118.443371 
L 254.452437 -110.27681 
L 256.423138 -95.236618 
L 257.629774 -86.015277 
L 259.682202 -70.323709 
L 260.988351 -60.329817 
L 263.058415 -44.486533 
L 264.439948 -40.207504 
L 266.502301 -39.6 
L 267.949815 -39.6 
L 270.025417 -39.6 
L 271.570711 -39.6 
L 273.815836 -39.6 
L 275.636632 -39.6 
L 278.523779 -39.6 
L 280.855884 -39.6 
L 283.749453 -39.6 
L 286.643023 -39.6 
L 289.536593 -39.6 
L 292.430163 -39.6 
L 295.323733 -39.6 
L 298.217303 -39.6 
L 301.110873 -39.6 
L 304.004442 -39.6 
L 306.898012 -39.6 
L 309.791582 -39.6 
L 312.685152 -39.6 
L 315.578722 -39.6 
L 318.472292 -39.6 
L 321.365861 -39.6 
L 324.259431 -39.6 
L 324.379157 -39.6 
L 324.379157 -39.6 
L 324.379157 -39.6 
L 324.259431 -39.6 
L 321.365861 -39.6 
L 318.472292 -39.6 
L 315.578722 -39.6 
L 312.685152 -39.6 
L 309.791582 -39.6 
L 306.898012 -39.6 
L 304.004442 -39.6 
L 301.110873 -39.6 
L 298.217303 -39.6 
L 295.323733 -39.6 
L 292.430163 -39.6 
L 289.536593 -39.6 
L 286.643023 -39.6 
L 283.749453 -39.6 
L 280.855884 -39.6 
L 278.523779 -39.6 
L 275.636632 -39.6 
L 273.815836 -39.6 
L 271.570711 -39.6 
L 270.025417 -39.6 
L 267.949815 -41.161965 
L 266.502301 -47.350419 
L 264.439948 -62.001372 
L 263.058415 -72.09011 
L 260.988351 -87.844051 
L 259.682202 -97.84977 
L 257.629774 -114.170452 
L 256.423138 -124.212713 
L 254.452437 -140.610628 
L 253.381891 -149.359299 
L 251.60795 -163.890631 
L 250.723367 -171.051336 
L 249.310668 -181.494522 
L 248.669238 -184.871562 
L 247.769595 -188.331691 
L 247.421192 -189.671691 
L 247.283251 -190.202228 
L 247.221109 -190.441233 
L 247.193375 -190.547902 
L 247.175283 -190.617485 
L 247.167511 -190.647379 
L 247.156109 -190.69123 
L 247.15014 -190.714188 
L 247.140164 -190.752558 
L 247.115696 -190.846663 
L 247.102807 -190.896237 
L 247.101518 -190.901194 
L 247.053106 -191.087393 
L 247.043424 -191.124632 
L 246.96299 -191.433991 
L 246.004937 -195.118775 
L 245.70728 -195.933959 
L 245.128566 -197.348207 
L 244.549852 -198.762456 
L 241.656283 -205.005195 
L 238.762713 -210.014195 
L 235.869143 -214.379166 
L 232.975573 -218.16178 
L 230.082003 -221.540218 
L 227.188433 -224.620938 
L 224.294863 -227.706662 
L 221.401294 -230.592335 
L 218.507724 -233.284605 
L 215.614154 -235.819034 
L 212.720584 -238.221144 
L 209.827014 -240.509674 
L 206.933444 -242.698634 
L 204.039875 -244.798657 
L 201.146305 -246.817945 
L 198.252735 -248.762966 
L 195.359165 -250.638963 
L 192.465595 -252.450351 
L 189.572025 -254.200983 
L 186.678456 -255.894297 
L 183.784886 -257.533317 
L 180.891316 -259.120477 
L 177.997746 -260.661511 
L 175.104176 -262.147882 
L 172.210606 -263.575356 
L 170.174063 -264.555691 
L 167.280493 -265.873659 
L 165.711031 -266.568992 
L 162.817461 -267.759656 
L 161.651408 -268.206571 
L 159.075324 -269.104563 
L 158.406003 -269.312935 
L 156.860746 -269.750498 
L 156.382637 -269.872859 
L 155.133607 -270.150684 
L 154.779074 -270.221524 
L 154.466331 -270.275106 
L 154.084458 -270.340531 
L 153.702585 -270.391976 
L 153.295726 -270.445047 
L 152.806267 -270.494645 
L 152.316808 -270.533675 
L 151.760155 -270.553885 
L 151.15718 -270.564102 
L 150.437476 -270.526587 
L 149.675103 -270.450428 
L 148.673574 -270.315823 
L 147.676931 -270.062569 
L 146.561507 -269.638394 
L 145.459066 -269.027541 
L 144.116718 -267.985382 
L 142.92412 -266.733458 
L 141.361288 -264.555325 
L 140.08878 -262.513467 
L 138.30842 -258.573679 
L 137.082207 -255.36139 
L 135.456199 -250.065862 
L 134.27985 -245.824667 
L 132.470992 -238.460702 
L 131.292171 -233.407666 
L 129.624926 -225.859884 
L 128.455562 -220.440671 
L 126.917399 -213.168827 
L 125.778415 -207.729959 
L 124.146782 -199.86861 
L 122.999138 -194.315388 
L 121.484362 -186.967561 
L 120.363715 -181.523445 
L 118.746057 -173.644941 
L 117.6204 -168.16299 
L 116.133285 -160.918047 
L 115.048215 -155.635504 
L 113.347424 -147.326682 
L 112.241616 -141.936737 
L 110.685422 -134.342067 
L 109.611121 -129.110959 
L 108.050472 -121.492383 
L 107.020639 -116.480209 
L 105.452177 -108.821923 
L 104.480135 -104.139369 
L 102.927167 -96.685154 
L 102.034291 -92.427668 
L 100.449255 -84.823715 
L 99.645071 -80.971332 
L 98.188148 -73.74345 
L 97.520564 -70.192419 
L 95.778139 -58.748775 
L 95.232915 -53.701745 
L 94.151079 -40.127041 
L 93.852865 -39.6 
L 93.310328 -39.6 
L 93.171224 -39.6 
L 92.940143 -39.6 
L 92.898185 -39.6 
L 92.893989 -39.6 
L 92.89357 -39.6 
z
" style="stroke: #0000cd; stroke-opacity: 0.2"/>
    </defs>
    <g clip-path="url(#p4572470772)">
     <use xlink:href="#mfd61852f5a" x="0" y="360" style="fill: #0000cd; fill-opacity: 0.2; stroke: #0000cd; stroke-opacity: 0.2"/>
    </g>
   </g>
   <g id="PathCollection_1">
    <defs>
     <path id="mddf342da37" d="M 0 4.330127 
C 1.148363 4.330127 2.249847 3.873878 3.061862 3.061862 
C 3.873878 2.249847 4.330127 1.148363 4.330127 0 
C 4.330127 -1.148363 3.873878 -2.249847 3.061862 -3.061862 
C 2.249847 -3.873878 1.148363 -4.330127 0 -4.330127 
C -1.148363 -4.330127 -2.249847 -3.873878 -3.061862 -3.061862 
C -3.873878 -2.249847 -4.330127 -1.148363 -4.330127 0 
C -4.330127 1.148363 -3.873878 2.249847 -3.061862 3.061862 
C -2.249847 3.873878 -1.148363 4.330127 0 4.330127 
z
" style="stroke: #0000cd; stroke-opacity: 0.8"/>
    </defs>
    <g clip-path="url(#p4572470772)">
     <use xlink:href="#mddf342da37" x="92.89357" y="320.4" style="fill: #0000cd; fill-opacity: 0.8; stroke: #0000cd; stroke-opacity: 0.8"/>
     <use xlink:href="#mddf342da37" x="121.829268" y="177.379132" style="fill: #0000cd; fill-opacity: 0.8; stroke: #0000cd; stroke-opacity: 0.8"/>
     <use xlink:href="#mddf342da37" x="150.764967" y="74.000545" style="fill: #0000cd; fill-opacity: 0.8; stroke: #0000cd; stroke-opacity: 0.8"/>
     <use xlink:href="#mddf342da37" x="179.700665" y="107.073628" style="fill: #0000cd; fill-opacity: 0.8; stroke: #0000cd; stroke-opacity: 0.8"/>
     <use xlink:href="#mddf342da37" x="208.636364" y="127.998703" style="fill: #0000cd; fill-opacity: 0.8; stroke: #0000cd; stroke-opacity: 0.8"/>
     <use xlink:href="#mddf342da37" x="237.572062" y="144.344238" style="fill: #0000cd; fill-opacity: 0.8; stroke: #0000cd; stroke-opacity: 0.8"/>
     <use xlink:href="#mddf342da37" x="266.507761" y="320.4" style="fill: #0000cd; fill-opacity: 0.8; stroke: #0000cd; stroke-opacity: 0.8"/>
     <use xlink:href="#mddf342da37" x="295.443459" y="320.4" style="fill: #0000cd; fill-opacity: 0.8; stroke: #0000cd; stroke-opacity: 0.8"/>
    </g>
   </g>
   <g id="line2d_1">
    <path d="M 92.89357 320.4 
L 94.151079 320.4 
L 95.232915 306.577513 
L 95.778139 301.651033 
L 97.520564 290.405604 
L 99.645071 279.881208 
L 129.624926 139.944553 
L 132.470992 127.369207 
L 135.456199 115.237846 
L 137.082207 109.418776 
L 138.30842 105.525687 
L 140.08878 100.764798 
L 141.361288 98.024271 
L 142.92412 95.397496 
L 144.116718 93.88102 
L 145.459066 92.606998 
L 146.561507 91.847179 
L 147.676931 91.295309 
L 148.673574 90.956114 
L 150.437476 90.641651 
L 152.316808 90.617774 
L 154.466331 90.879066 
L 156.860746 91.432309 
L 159.075324 92.123097 
L 162.817461 93.563116 
L 167.280493 95.581982 
L 172.210606 98.054124 
L 177.997746 101.171659 
L 183.784886 104.472475 
L 189.572025 107.950387 
L 195.359165 111.622979 
L 201.146305 115.519149 
L 206.933444 119.676961 
L 212.720584 124.149915 
L 218.507724 129.021803 
L 221.401294 131.648458 
L 224.294863 134.435906 
L 227.188433 137.421733 
L 230.082003 140.660012 
L 232.975573 144.232028 
L 235.869143 148.267553 
L 238.762713 152.99223 
L 241.656283 158.852453 
L 244.549852 166.94763 
L 245.70728 171.462369 
L 246.004937 172.832964 
L 247.421192 181.334219 
L 254.452437 231.468824 
L 266.502301 319.090901 
L 267.949815 320.4 
L 324.379157 320.4 
L 324.379157 320.4 
" clip-path="url(#p4572470772)" style="fill: none; stroke: #0000cd; stroke-width: 1.5; stroke-linecap: round"/>
   </g>
  </g>
  <g id="axes_2">
   <g id="patch_7">
    <path d="M 374.727273 320.4 
L 612 320.4 
L 612 43.2 
L 374.727273 43.2 
z
" style="fill: #ffffff"/>
   </g>
   <g id="matplotlib.axis_3">
    <g id="xtick_10">
     <g id="text_21">
      <!-- 0 -->
      <g style="fill: #262626" transform="translate(373.616968 340.20725) scale(0.144 -0.144)">
       <use xlink:href="#ArialMT-30"/>
      </g>
     </g>
    </g>
    <g id="xtick_11">
     <g id="text_22">
      <!-- 1 -->
      <g style="fill: #262626" transform="translate(402.552666 340.20725) scale(0.144 -0.144)">
       <use xlink:href="#ArialMT-31"/>
      </g>
     </g>
    </g>
    <g id="xtick_12">
     <g id="text_23">
      <!-- 2 -->
      <g style="fill: #262626" transform="translate(431.488364 340.20725) scale(0.144 -0.144)">
       <use xlink:href="#ArialMT-32"/>
      </g>
     </g>
    </g>
    <g id="xtick_13">
     <g id="text_24">
      <!-- 3 -->
      <g style="fill: #262626" transform="translate(460.424063 340.20725) scale(0.144 -0.144)">
       <use xlink:href="#ArialMT-33"/>
      </g>
     </g>
    </g>
    <g id="xtick_14">
     <g id="text_25">
      <!-- 4 -->
      <g style="fill: #262626" transform="translate(489.359761 340.20725) scale(0.144 -0.144)">
       <use xlink:href="#ArialMT-34"/>
      </g>
     </g>
    </g>
    <g id="xtick_15">
     <g id="text_26">
      <!-- 5 -->
      <g style="fill: #262626" transform="translate(518.29546 340.20725) scale(0.144 -0.144)">
       <use xlink:href="#ArialMT-35"/>
      </g>
     </g>
    </g>
    <g id="xtick_16">
     <g id="text_27">
      <!-- 6 -->
      <g style="fill: #262626" transform="translate(547.231158 340.20725) scale(0.144 -0.144)">
       <use xlink:href="#ArialMT-36"/>
      </g>
     </g>
    </g>
    <g id="xtick_17">
     <g id="text_28">
      <!-- 7 -->
      <g style="fill: #262626" transform="translate(576.166857 340.20725) scale(0.144 -0.144)">
       <use xlink:href="#ArialMT-37"/>
      </g>
     </g>
    </g>
    <g id="xtick_18">
     <g id="text_29">
      <!-- 8 -->
      <g style="fill: #262626" transform="translate(605.102555 340.20725) scale(0.144 -0.144)">
       <use xlink:href="#ArialMT-38"/>
      </g>
     </g>
    </g>
    <g id="text_30">
     <!-- Time (d) -->
     <g style="fill: #262626" transform="translate(457.993636 361.04625) scale(0.192 -0.192)">
      <use xlink:href="#ArialMT-54"/>
      <use xlink:href="#ArialMT-69" x="57.333984"/>
      <use xlink:href="#ArialMT-6d" x="79.550781"/>
      <use xlink:href="#ArialMT-65" x="162.851562"/>
      <use xlink:href="#ArialMT-20" x="218.466797"/>
      <use xlink:href="#ArialMT-28" x="246.25"/>
      <use xlink:href="#ArialMT-64" x="279.550781"/>
      <use xlink:href="#ArialMT-29" x="335.166016"/>
     </g>
    </g>
   </g>
   <g id="matplotlib.axis_4">
    <g id="ytick_10">
     <g id="text_31">
      <!-- 4.0 -->
      <g style="fill: #262626" transform="translate(345.211273 325.553625) scale(0.144 -0.144)">
       <defs>
        <path id="ArialMT-2e" d="M 581 0 
L 581 641 
L 1222 641 
L 1222 0 
L 581 0 
z
" transform="scale(0.015625)"/>
       </defs>
       <use xlink:href="#ArialMT-34"/>
       <use xlink:href="#ArialMT-2e" x="55.615234"/>
       <use xlink:href="#ArialMT-30" x="83.398438"/>
      </g>
     </g>
    </g>
    <g id="ytick_11">
     <g id="text_32">
      <!-- 4.5 -->
      <g style="fill: #262626" transform="translate(345.211273 290.903625) scale(0.144 -0.144)">
       <use xlink:href="#ArialMT-34"/>
       <use xlink:href="#ArialMT-2e" x="55.615234"/>
       <use xlink:href="#ArialMT-35" x="83.398438"/>
      </g>
     </g>
    </g>
    <g id="ytick_12">
     <g id="text_33">
      <!-- 5.0 -->
      <g style="fill: #262626" transform="translate(345.211273 256.253625) scale(0.144 -0.144)">
       <use xlink:href="#ArialMT-35"/>
       <use xlink:href="#ArialMT-2e" x="55.615234"/>
       <use xlink:href="#ArialMT-30" x="83.398438"/>
      </g>
     </g>
    </g>
    <g id="ytick_13">
     <g id="text_34">
      <!-- 5.5 -->
      <g style="fill: #262626" transform="translate(345.211273 221.603625) scale(0.144 -0.144)">
       <use xlink:href="#ArialMT-35"/>
       <use xlink:href="#ArialMT-2e" x="55.615234"/>
       <use xlink:href="#ArialMT-35" x="83.398438"/>
      </g>
     </g>
    </g>
    <g id="ytick_14">
     <g id="text_35">
      <!-- 6.0 -->
      <g style="fill: #262626" transform="translate(345.211273 186.953625) scale(0.144 -0.144)">
       <use xlink:href="#ArialMT-36"/>
       <use xlink:href="#ArialMT-2e" x="55.615234"/>
       <use xlink:href="#ArialMT-30" x="83.398438"/>
      </g>
     </g>
    </g>
    <g id="ytick_15">
     <g id="text_36">
      <!-- 6.5 -->
      <g style="fill: #262626" transform="translate(345.211273 152.303625) scale(0.144 -0.144)">
       <use xlink:href="#ArialMT-36"/>
       <use xlink:href="#ArialMT-2e" x="55.615234"/>
       <use xlink:href="#ArialMT-35" x="83.398438"/>
      </g>
     </g>
    </g>
    <g id="ytick_16">
     <g id="text_37">
      <!-- 7.0 -->
      <g style="fill: #262626" transform="translate(345.211273 117.653625) scale(0.144 -0.144)">
       <use xlink:href="#ArialMT-37"/>
       <use xlink:href="#ArialMT-2e" x="55.615234"/>
       <use xlink:href="#ArialMT-30" x="83.398438"/>
      </g>
     </g>
    </g>
    <g id="ytick_17">
     <g id="text_38">
      <!-- 7.5 -->
      <g style="fill: #262626" transform="translate(345.211273 83.003625) scale(0.144 -0.144)">
       <use xlink:href="#ArialMT-37"/>
       <use xlink:href="#ArialMT-2e" x="55.615234"/>
       <use xlink:href="#ArialMT-35" x="83.398438"/>
      </g>
     </g>
    </g>
    <g id="ytick_18">
     <g id="text_39">
      <!-- 8.0 -->
      <g style="fill: #262626" transform="translate(345.211273 48.353625) scale(0.144 -0.144)">
       <use xlink:href="#ArialMT-38"/>
       <use xlink:href="#ArialMT-2e" x="55.615234"/>
       <use xlink:href="#ArialMT-30" x="83.398438"/>
      </g>
     </g>
    </g>
    <g id="text_40">
     <!-- Log10(CD8TE) -->
     <g style="fill: #262626" transform="translate(337.170273 246.357) rotate(-90) scale(0.192 -0.192)">
      <defs>
       <path id="ArialMT-43" d="M 3763 1606 
L 4369 1453 
Q 4178 706 3683 314 
Q 3188 -78 2472 -78 
Q 1731 -78 1267 223 
Q 803 525 561 1097 
Q 319 1669 319 2325 
Q 319 3041 592 3573 
Q 866 4106 1370 4382 
Q 1875 4659 2481 4659 
Q 3169 4659 3637 4309 
Q 4106 3959 4291 3325 
L 3694 3184 
Q 3534 3684 3231 3912 
Q 2928 4141 2469 4141 
Q 1941 4141 1586 3887 
Q 1231 3634 1087 3207 
Q 944 2781 944 2328 
Q 944 1744 1114 1308 
Q 1284 872 1643 656 
Q 2003 441 2422 441 
Q 2931 441 3284 734 
Q 3638 1028 3763 1606 
z
" transform="scale(0.015625)"/>
       <path id="ArialMT-44" d="M 494 0 
L 494 4581 
L 2072 4581 
Q 2606 4581 2888 4516 
Q 3281 4425 3559 4188 
Q 3922 3881 4101 3404 
Q 4281 2928 4281 2316 
Q 4281 1794 4159 1391 
Q 4038 988 3847 723 
Q 3656 459 3429 307 
Q 3203 156 2883 78 
Q 2563 0 2147 0 
L 494 0 
z
M 1100 541 
L 2078 541 
Q 2531 541 2789 625 
Q 3047 709 3200 863 
Q 3416 1078 3536 1442 
Q 3656 1806 3656 2325 
Q 3656 3044 3420 3430 
Q 3184 3816 2847 3947 
Q 2603 4041 2063 4041 
L 1100 4041 
L 1100 541 
z
" transform="scale(0.015625)"/>
       <path id="ArialMT-45" d="M 506 0 
L 506 4581 
L 3819 4581 
L 3819 4041 
L 1113 4041 
L 1113 2638 
L 3647 2638 
L 3647 2100 
L 1113 2100 
L 1113 541 
L 3925 541 
L 3925 0 
L 506 0 
z
" transform="scale(0.015625)"/>
      </defs>
      <use xlink:href="#ArialMT-4c"/>
      <use xlink:href="#ArialMT-6f" x="55.615234"/>
      <use xlink:href="#ArialMT-67" x="111.230469"/>
      <use xlink:href="#ArialMT-31" x="166.845703"/>
      <use xlink:href="#ArialMT-30" x="222.460938"/>
      <use xlink:href="#ArialMT-28" x="278.076172"/>
      <use xlink:href="#ArialMT-43" x="311.376953"/>
      <use xlink:href="#ArialMT-44" x="383.59375"/>
      <use xlink:href="#ArialMT-38" x="455.810547"/>
      <use xlink:href="#ArialMT-54" x="511.425781"/>
      <use xlink:href="#ArialMT-45" x="572.509766"/>
      <use xlink:href="#ArialMT-29" x="639.208984"/>
     </g>
    </g>
   </g>
   <g id="patch_8">
    <path d="M 374.727273 320.4 
L 374.727273 43.2 
" style="fill: none; stroke: #262626; stroke-width: 1.25; stroke-linejoin: miter; stroke-linecap: square"/>
   </g>
   <g id="patch_9">
    <path d="M 612 320.4 
L 612 43.2 
" style="fill: none; stroke: #262626; stroke-width: 1.25; stroke-linejoin: miter; stroke-linecap: square"/>
   </g>
   <g id="patch_10">
    <path d="M 374.727273 320.4 
L 612 320.4 
" style="fill: none; stroke: #262626; stroke-width: 1.25; stroke-linejoin: miter; stroke-linecap: square"/>
   </g>
   <g id="patch_11">
    <path d="M 374.727273 43.2 
L 612 43.2 
" style="fill: none; stroke: #262626; stroke-width: 1.25; stroke-linejoin: miter; stroke-linecap: square"/>
   </g>
   <g id="PolyCollection_2">
    <defs>
     <path id="m4940b37698" d="M 377.620843 -122.385949 
L 377.620843 -122.385949 
L 377.621262 -122.385949 
L 377.625458 -122.385949 
L 377.667416 -122.385949 
L 377.898496 -122.385949 
L 378.037601 -122.385949 
L 378.580137 -122.385949 
L 378.878352 -122.385949 
L 379.960188 -122.385949 
L 380.505411 -122.385949 
L 382.247837 -122.385949 
L 382.915421 -122.385949 
L 384.372344 -122.385949 
L 385.176528 -122.385949 
L 386.761564 -122.385949 
L 387.65444 -122.385949 
L 389.207408 -122.385949 
L 390.17945 -122.385949 
L 391.747912 -122.38595 
L 392.777745 -122.38595 
L 394.338394 -122.38595 
L 395.412695 -122.38595 
L 396.968888 -122.385951 
L 398.074697 -122.385952 
L 399.775488 -122.385955 
L 400.860557 -122.385958 
L 402.347673 -122.385966 
L 403.47333 -122.385976 
L 405.090988 -122.385999 
L 406.211635 -122.386024 
L 407.726411 -122.386078 
L 408.874054 -122.386142 
L 410.505688 -122.386288 
L 411.644671 -122.386448 
L 413.182835 -122.386785 
L 414.352199 -122.387182 
L 416.019444 -122.388087 
L 417.198265 -122.389098 
L 419.007123 -122.391641 
L 420.183471 -122.394305 
L 421.809479 -122.400121 
L 423.035693 -122.407087 
L 424.816053 -122.423515 
L 426.088561 -122.442586 
L 427.651393 -122.479391 
L 428.843991 -122.522669 
L 430.186338 -122.594339 
L 431.28878 -122.679738 
L 432.404204 -122.799056 
L 433.400847 -122.944303 
L 434.402376 -123.134648 
L 435.164749 -123.321977 
L 435.884453 -123.53469 
L 436.487428 -123.747592 
L 437.044081 -123.974385 
L 437.53354 -124.202554 
L 438.022999 -124.457386 
L 438.429858 -124.693496 
L 438.811731 -124.936497 
L 439.193604 -125.200309 
L 439.506347 -125.434493 
L 439.860879 -125.724288 
L 441.109909 -126.90959 
L 441.588018 -127.450631 
L 443.133276 -129.526694 
L 443.802597 -130.615753 
L 446.37868 -135.739683 
L 447.544734 -138.596205 
L 450.438304 -146.516218 
L 452.007766 -151.235776 
L 454.901336 -160.159935 
L 456.937879 -166.322971 
L 459.831449 -174.618913 
L 462.725019 -182.123913 
L 465.618589 -188.72335 
L 468.512158 -194.396647 
L 471.405728 -199.175991 
L 474.299298 -203.120883 
L 477.192868 -206.303365 
L 480.086438 -208.799686 
L 482.980008 -210.685674 
L 485.873577 -212.034191 
L 488.767147 -212.913766 
L 491.660717 -213.341037 
L 494.554287 -212.635242 
L 497.447857 -211.75452 
L 500.341427 -210.736759 
L 503.234997 -209.61316 
L 506.128566 -208.409041 
L 509.022136 -207.144658 
L 511.915706 -205.836 
L 514.809276 -204.495532 
L 517.702846 -203.132869 
L 520.596416 -201.755354 
L 523.489985 -200.368557 
L 526.383555 -198.976678 
L 529.277125 -197.582881 
L 529.855839 -197.304077 
L 530.434553 -197.025327 
L 530.732209 -196.881979 
L 531.690262 -196.420694 
L 531.770696 -196.381974 
L 531.780379 -196.377314 
L 531.828791 -196.354012 
L 531.83008 -196.353392 
L 531.842969 -196.347188 
L 531.867436 -196.335411 
L 531.877413 -196.33061 
L 531.883382 -196.327737 
L 531.894783 -196.322249 
L 531.902556 -196.318508 
L 531.920648 -196.3098 
L 531.948382 -196.296451 
L 532.010524 -196.266543 
L 532.148465 -196.200157 
L 532.496868 -196.032508 
L 533.39651 -195.599786 
L 534.037941 -195.29146 
L 535.45064 -194.612962 
L 536.335222 -194.18851 
L 538.109164 -193.336939 
L 539.17971 -192.822781 
L 541.150411 -191.878687 
L 542.357047 -191.30183 
L 544.409474 -190.323315 
L 545.715624 -189.702489 
L 547.785687 -188.72122 
L 549.167221 -188.068599 
L 551.229574 -187.097097 
L 552.677088 -186.417943 
L 554.75269 -185.434941 
L 556.297984 -184.667631 
L 558.543109 -183.558302 
L 560.363905 -182.662342 
L 563.251051 -181.251024 
L 565.583156 -180.117904 
L 568.476726 -178.722588 
L 571.370296 -177.338838 
L 574.263866 -175.967132 
L 577.157436 -174.607942 
L 580.051006 -173.261741 
L 582.944575 -171.889153 
L 585.838145 -170.521406 
L 588.731715 -169.169205 
L 591.625285 -167.83308 
L 594.518855 -166.513561 
L 597.412425 -165.211175 
L 600.305995 -163.926443 
L 603.199564 -162.659881 
L 606.093134 -161.411998 
L 608.986704 -160.181336 
L 609.10643 -160.130793 
L 609.10643 -169.53782 
L 609.10643 -169.53782 
L 608.986704 -169.587368 
L 606.093134 -170.790248 
L 603.199564 -172.003905 
L 600.305995 -173.22933 
L 597.412425 -174.46616 
L 594.518855 -175.714035 
L 591.625285 -176.972597 
L 588.731715 -178.241492 
L 585.838145 -179.52037 
L 582.944575 -180.808886 
L 580.051006 -182.106695 
L 577.157436 -183.413461 
L 574.263866 -184.728845 
L 571.370296 -186.052513 
L 568.476726 -187.38413 
L 565.583156 -188.723323 
L 563.251051 -189.808009 
L 560.363905 -191.191077 
L 558.543109 -192.08485 
L 556.297984 -193.190455 
L 554.75269 -193.953666 
L 552.677088 -194.981432 
L 551.229574 -195.699858 
L 549.167221 -196.725566 
L 547.785687 -197.41394 
L 545.715624 -198.446995 
L 544.409474 -199.099665 
L 542.357047 -200.126207 
L 541.150411 -200.730083 
L 539.17971 -201.716552 
L 538.109164 -202.252348 
L 536.335222 -203.139676 
L 535.45064 -203.581805 
L 534.037941 -204.287004 
L 533.39651 -204.60692 
L 532.496868 -205.054901 
L 532.148465 -205.228205 
L 532.010524 -205.296821 
L 531.948382 -205.327732 
L 531.920648 -205.341527 
L 531.902556 -205.350523 
L 531.894783 -205.354386 
L 531.883382 -205.360052 
L 531.877413 -205.363018 
L 531.867436 -205.367976 
L 531.842969 -205.380135 
L 531.83008 -205.38654 
L 531.828791 -205.38718 
L 531.780379 -205.411239 
L 531.770696 -205.41605 
L 531.690262 -205.456022 
L 530.732209 -205.931232 
L 530.434553 -206.078719 
L 529.855839 -206.36547 
L 529.277125 -206.651561 
L 526.383555 -208.071707 
L 523.489985 -209.474008 
L 520.596416 -210.849828 
L 517.702846 -212.189472 
L 514.809276 -213.480795 
L 511.915706 -214.708739 
L 509.022136 -215.879637 
L 506.128566 -217.106591 
L 503.234997 -218.236141 
L 500.341427 -219.241109 
L 497.447857 -220.088836 
L 494.554287 -220.740599 
L 491.660717 -221.151091 
L 488.767147 -221.26799 
L 485.873577 -221.169283 
L 482.980008 -220.939041 
L 480.086438 -220.261989 
L 477.192868 -219.163363 
L 474.299298 -217.650587 
L 471.405728 -215.753686 
L 468.512158 -213.132228 
L 465.618589 -209.613149 
L 462.725019 -205.093463 
L 459.831449 -199.807584 
L 456.937879 -193.272762 
L 454.901336 -187.749094 
L 452.007766 -179.086881 
L 450.438304 -173.74821 
L 447.544734 -163.350413 
L 446.37868 -159.00213 
L 443.802597 -149.483739 
L 443.133276 -147.100999 
L 441.588018 -141.886975 
L 441.109909 -140.396517 
L 439.860879 -136.734672 
L 439.506347 -135.797793 
L 439.193604 -134.971346 
L 438.811731 -134.039142 
L 438.429858 -133.128776 
L 438.022999 -132.241398 
L 437.53354 -131.213215 
L 437.044081 -130.281211 
L 436.487428 -129.28231 
L 435.884453 -128.36207 
L 435.164749 -127.343965 
L 434.402376 -126.436942 
L 433.400847 -125.469763 
L 432.404204 -124.713358 
L 431.28878 -124.062879 
L 430.186338 -123.59207 
L 428.843991 -123.193214 
L 427.651393 -122.94258 
L 426.088561 -122.731054 
L 424.816053 -122.614397 
L 423.035693 -122.517486 
L 421.809479 -122.473202 
L 420.183471 -122.438383 
L 419.007123 -122.421348 
L 417.198265 -122.406091 
L 416.019444 -122.399432 
L 414.352199 -122.393927 
L 413.182835 -122.391323 
L 411.644671 -122.389241 
L 410.505688 -122.388189 
L 408.874054 -122.387274 
L 407.726411 -122.386838 
L 406.211635 -122.386486 
L 405.090988 -122.386309 
L 403.47333 -122.386155 
L 402.347673 -122.386083 
L 400.860557 -122.386026 
L 399.775488 -122.385998 
L 398.074697 -122.385973 
L 396.968888 -122.385964 
L 395.412695 -122.385956 
L 394.338394 -122.385953 
L 392.777745 -122.385951 
L 391.747912 -122.38595 
L 390.17945 -122.38595 
L 389.207408 -122.38595 
L 387.65444 -122.38595 
L 386.761564 -122.385949 
L 385.176528 -122.385949 
L 384.372344 -122.385949 
L 382.915421 -122.385949 
L 382.247837 -122.385949 
L 380.505411 -122.385949 
L 379.960188 -122.385949 
L 378.878352 -122.385949 
L 378.580137 -122.385949 
L 378.037601 -122.385949 
L 377.898496 -122.385949 
L 377.667416 -122.385949 
L 377.625458 -122.385949 
L 377.621262 -122.385949 
L 377.620843 -122.385949 
z
" style="stroke: #0000cd; stroke-opacity: 0.2"/>
    </defs>
    <g clip-path="url(#p8f25646bf7)">
     <use xlink:href="#m4940b37698" x="0" y="360" style="fill: #0000cd; fill-opacity: 0.2; stroke: #0000cd; stroke-opacity: 0.2"/>
    </g>
   </g>
   <g id="PathCollection_2">
    <g clip-path="url(#p8f25646bf7)">
     <use xlink:href="#mddf342da37" x="377.620843" y="237.614051" style="fill: #0000cd; fill-opacity: 0.8; stroke: #0000cd; stroke-opacity: 0.8"/>
     <use xlink:href="#mddf342da37" x="406.556541" y="253.885074" style="fill: #0000cd; fill-opacity: 0.8; stroke: #0000cd; stroke-opacity: 0.8"/>
     <use xlink:href="#mddf342da37" x="435.492239" y="217.690646" style="fill: #0000cd; fill-opacity: 0.8; stroke: #0000cd; stroke-opacity: 0.8"/>
     <use xlink:href="#mddf342da37" x="464.427938" y="163.90984" style="fill: #0000cd; fill-opacity: 0.8; stroke: #0000cd; stroke-opacity: 0.8"/>
     <use xlink:href="#mddf342da37" x="493.363636" y="154.00634" style="fill: #0000cd; fill-opacity: 0.8; stroke: #0000cd; stroke-opacity: 0.8"/>
     <use xlink:href="#mddf342da37" x="522.299335" y="153.404358" style="fill: #0000cd; fill-opacity: 0.8; stroke: #0000cd; stroke-opacity: 0.8"/>
     <use xlink:href="#mddf342da37" x="551.235033" y="162.714104" style="fill: #0000cd; fill-opacity: 0.8; stroke: #0000cd; stroke-opacity: 0.8"/>
     <use xlink:href="#mddf342da37" x="580.170732" y="180.492229" style="fill: #0000cd; fill-opacity: 0.8; stroke: #0000cd; stroke-opacity: 0.8"/>
    </g>
   </g>
   <g id="line2d_2">
    <path d="M 377.620843 237.614051 
L 426.088561 237.509638 
L 430.186338 237.236232 
L 432.404204 236.872197 
L 434.402376 236.279216 
L 435.884453 235.585765 
L 437.044081 234.835278 
L 438.429858 233.633714 
L 439.506347 232.426704 
L 439.860879 231.970625 
L 441.588018 229.291133 
L 443.802597 224.694899 
L 446.37868 217.80619 
L 447.544734 214.28013 
L 456.937879 184.04078 
L 459.831449 176.023887 
L 462.725019 169.046882 
L 465.618589 163.121617 
L 468.512158 158.199515 
L 471.405728 154.202468 
L 474.299298 151.040085 
L 477.192868 148.619094 
L 480.086438 146.848399 
L 482.980008 145.641777 
L 485.873577 144.919291 
L 488.767147 144.607981 
L 491.660717 144.64215 
L 494.554287 144.963396 
L 497.447857 145.520455 
L 500.341427 146.268917 
L 503.234997 147.170821 
L 509.022136 149.312298 
L 514.809276 151.749798 
L 523.489985 155.693594 
L 571.370296 177.985142 
L 585.838145 184.353631 
L 600.305995 190.456321 
L 609.10643 194.019349 
L 609.10643 194.019349 
" clip-path="url(#p8f25646bf7)" style="fill: none; stroke: #0000cd; stroke-width: 1.5; stroke-linecap: round"/>
   </g>
  </g>
  <g id="legend_1">
   <g id="patch_12">
    <path d="M 769.44 42.519 
L 862.911 42.519 
Q 866.751 42.519 866.751 38.679 
L 866.751 13.44 
Q 866.751 9.6 862.911 9.6 
L 769.44 9.6 
Q 765.6 9.6 765.6 13.44 
L 765.6 38.679 
Q 765.6 42.519 769.44 42.519 
z
" style="fill: #ffffff; opacity: 0.8; stroke: #cccccc; stroke-linejoin: miter"/>
   </g>
   <g id="PathCollection_3">
    <g>
     <use xlink:href="#mddf342da37" x="792.48" y="25.983" style="fill: #0000cd; fill-opacity: 0.8; stroke: #0000cd; stroke-opacity: 0.8"/>
    </g>
   </g>
   <g id="text_41">
    <!-- 302 -->
    <g style="fill: #262626" transform="translate(827.04 31.023) scale(0.192 -0.192)">
     <use xlink:href="#ArialMT-33"/>
     <use xlink:href="#ArialMT-30" x="55.615234"/>
     <use xlink:href="#ArialMT-32" x="111.230469"/>
    </g>
   </g>
  </g>
 </g>
 <defs>
  <clipPath id="p4572470772">
   <rect x="90" y="43.2" width="237.272727" height="277.2"/>
  </clipPath>
  <clipPath id="p8f25646bf7">
   <rect x="374.727273" y="43.2" width="237.272727" height="277.2"/>
  </clipPath>
 </defs>
</svg>
