<?xml version="1.0" encoding="utf-8" standalone="no"?>
<!DOCTYPE svg PUBLIC "-//W3C//DTD SVG 1.1//EN"
  "http://www.w3.org/Graphics/SVG/1.1/DTD/svg11.dtd">
<svg xmlns:xlink="http://www.w3.org/1999/xlink" width="720pt" height="360pt" viewBox="0 0 720 360" xmlns="http://www.w3.org/2000/svg" version="1.1">
 <metadata>
  <rdf:RDF xmlns:dc="http://purl.org/dc/elements/1.1/" xmlns:cc="http://creativecommons.org/ns#" xmlns:rdf="http://www.w3.org/1999/02/22-rdf-syntax-ns#">
   <cc:Work>
    <dc:type rdf:resource="http://purl.org/dc/dcmitype/StillImage"/>
    <dc:date>2024-12-18T19:26:27.951878</dc:date>
    <dc:format>image/svg+xml</dc:format>
    <dc:creator>
     <cc:Agent>
      <dc:title>Matplotlib v3.9.2, https://matplotlib.org/</dc:title>
     </cc:Agent>
    </dc:creator>
   </cc:Work>
  </rdf:RDF>
 </metadata>
 <defs>
  <style type="text/css">*{stroke-linejoin: round; stroke-linecap: butt}</style>
 </defs>
 <g id="figure_1">
  <g id="patch_1">
   <path d="M 0 360 
L 720 360 
L 720 0 
L 0 0 
z
" style="fill: #ffffff"/>
  </g>
  <g id="axes_1">
   <g id="patch_2">
    <path d="M 90 320.4 
L 327.272727 320.4 
L 327.272727 43.2 
L 90 43.2 
z
" style="fill: #ffffff"/>
   </g>
   <g id="matplotlib.axis_1">
    <g id="xtick_1">
     <g id="text_1">
      <!-- 0 -->
      <g style="fill: #262626" transform="translate(88.889695 340.20725) scale(0.144 -0.144)">
       <defs>
        <path id="ArialMT-30" d="M 266 2259 
Q 266 3072 433 3567 
Q 600 4063 929 4331 
Q 1259 4600 1759 4600 
Q 2128 4600 2406 4451 
Q 2684 4303 2865 4023 
Q 3047 3744 3150 3342 
Q 3253 2941 3253 2259 
Q 3253 1453 3087 958 
Q 2922 463 2592 192 
Q 2263 -78 1759 -78 
Q 1097 -78 719 397 
Q 266 969 266 2259 
z
M 844 2259 
Q 844 1131 1108 757 
Q 1372 384 1759 384 
Q 2147 384 2411 759 
Q 2675 1134 2675 2259 
Q 2675 3391 2411 3762 
Q 2147 4134 1753 4134 
Q 1366 4134 1134 3806 
Q 844 3388 844 2259 
z
" transform="scale(0.015625)"/>
       </defs>
       <use xlink:href="#ArialMT-30"/>
      </g>
     </g>
    </g>
    <g id="xtick_2">
     <g id="text_2">
      <!-- 1 -->
      <g style="fill: #262626" transform="translate(117.825393 340.20725) scale(0.144 -0.144)">
       <defs>
        <path id="ArialMT-31" d="M 2384 0 
L 1822 0 
L 1822 3584 
Q 1619 3391 1289 3197 
Q 959 3003 697 2906 
L 697 3450 
Q 1169 3672 1522 3987 
Q 1875 4303 2022 4600 
L 2384 4600 
L 2384 0 
z
" transform="scale(0.015625)"/>
       </defs>
       <use xlink:href="#ArialMT-31"/>
      </g>
     </g>
    </g>
    <g id="xtick_3">
     <g id="text_3">
      <!-- 2 -->
      <g style="fill: #262626" transform="translate(146.761092 340.20725) scale(0.144 -0.144)">
       <defs>
        <path id="ArialMT-32" d="M 3222 541 
L 3222 0 
L 194 0 
Q 188 203 259 391 
Q 375 700 629 1000 
Q 884 1300 1366 1694 
Q 2113 2306 2375 2664 
Q 2638 3022 2638 3341 
Q 2638 3675 2398 3904 
Q 2159 4134 1775 4134 
Q 1369 4134 1125 3890 
Q 881 3647 878 3216 
L 300 3275 
Q 359 3922 746 4261 
Q 1134 4600 1788 4600 
Q 2447 4600 2831 4234 
Q 3216 3869 3216 3328 
Q 3216 3053 3103 2787 
Q 2991 2522 2730 2228 
Q 2469 1934 1863 1422 
Q 1356 997 1212 845 
Q 1069 694 975 541 
L 3222 541 
z
" transform="scale(0.015625)"/>
       </defs>
       <use xlink:href="#ArialMT-32"/>
      </g>
     </g>
    </g>
    <g id="xtick_4">
     <g id="text_4">
      <!-- 3 -->
      <g style="fill: #262626" transform="translate(175.69679 340.20725) scale(0.144 -0.144)">
       <defs>
        <path id="ArialMT-33" d="M 269 1209 
L 831 1284 
Q 928 806 1161 595 
Q 1394 384 1728 384 
Q 2125 384 2398 659 
Q 2672 934 2672 1341 
Q 2672 1728 2419 1979 
Q 2166 2231 1775 2231 
Q 1616 2231 1378 2169 
L 1441 2663 
Q 1497 2656 1531 2656 
Q 1891 2656 2178 2843 
Q 2466 3031 2466 3422 
Q 2466 3731 2256 3934 
Q 2047 4138 1716 4138 
Q 1388 4138 1169 3931 
Q 950 3725 888 3313 
L 325 3413 
Q 428 3978 793 4289 
Q 1159 4600 1703 4600 
Q 2078 4600 2393 4439 
Q 2709 4278 2876 4000 
Q 3044 3722 3044 3409 
Q 3044 3113 2884 2869 
Q 2725 2625 2413 2481 
Q 2819 2388 3044 2092 
Q 3269 1797 3269 1353 
Q 3269 753 2831 336 
Q 2394 -81 1725 -81 
Q 1122 -81 723 278 
Q 325 638 269 1209 
z
" transform="scale(0.015625)"/>
       </defs>
       <use xlink:href="#ArialMT-33"/>
      </g>
     </g>
    </g>
    <g id="xtick_5">
     <g id="text_5">
      <!-- 4 -->
      <g style="fill: #262626" transform="translate(204.632489 340.20725) scale(0.144 -0.144)">
       <defs>
        <path id="ArialMT-34" d="M 2069 0 
L 2069 1097 
L 81 1097 
L 81 1613 
L 2172 4581 
L 2631 4581 
L 2631 1613 
L 3250 1613 
L 3250 1097 
L 2631 1097 
L 2631 0 
L 2069 0 
z
M 2069 1613 
L 2069 3678 
L 634 1613 
L 2069 1613 
z
" transform="scale(0.015625)"/>
       </defs>
       <use xlink:href="#ArialMT-34"/>
      </g>
     </g>
    </g>
    <g id="xtick_6">
     <g id="text_6">
      <!-- 5 -->
      <g style="fill: #262626" transform="translate(233.568187 340.20725) scale(0.144 -0.144)">
       <defs>
        <path id="ArialMT-35" d="M 266 1200 
L 856 1250 
Q 922 819 1161 601 
Q 1400 384 1738 384 
Q 2144 384 2425 690 
Q 2706 997 2706 1503 
Q 2706 1984 2436 2262 
Q 2166 2541 1728 2541 
Q 1456 2541 1237 2417 
Q 1019 2294 894 2097 
L 366 2166 
L 809 4519 
L 3088 4519 
L 3088 3981 
L 1259 3981 
L 1013 2750 
Q 1425 3038 1878 3038 
Q 2478 3038 2890 2622 
Q 3303 2206 3303 1553 
Q 3303 931 2941 478 
Q 2500 -78 1738 -78 
Q 1113 -78 717 272 
Q 322 622 266 1200 
z
" transform="scale(0.015625)"/>
       </defs>
       <use xlink:href="#ArialMT-35"/>
      </g>
     </g>
    </g>
    <g id="xtick_7">
     <g id="text_7">
      <!-- 6 -->
      <g style="fill: #262626" transform="translate(262.503886 340.20725) scale(0.144 -0.144)">
       <defs>
        <path id="ArialMT-36" d="M 3184 3459 
L 2625 3416 
Q 2550 3747 2413 3897 
Q 2184 4138 1850 4138 
Q 1581 4138 1378 3988 
Q 1113 3794 959 3422 
Q 806 3050 800 2363 
Q 1003 2672 1297 2822 
Q 1591 2972 1913 2972 
Q 2475 2972 2870 2558 
Q 3266 2144 3266 1488 
Q 3266 1056 3080 686 
Q 2894 316 2569 119 
Q 2244 -78 1831 -78 
Q 1128 -78 684 439 
Q 241 956 241 2144 
Q 241 3472 731 4075 
Q 1159 4600 1884 4600 
Q 2425 4600 2770 4297 
Q 3116 3994 3184 3459 
z
M 888 1484 
Q 888 1194 1011 928 
Q 1134 663 1356 523 
Q 1578 384 1822 384 
Q 2178 384 2434 671 
Q 2691 959 2691 1453 
Q 2691 1928 2437 2201 
Q 2184 2475 1800 2475 
Q 1419 2475 1153 2201 
Q 888 1928 888 1484 
z
" transform="scale(0.015625)"/>
       </defs>
       <use xlink:href="#ArialMT-36"/>
      </g>
     </g>
    </g>
    <g id="xtick_8">
     <g id="text_8">
      <!-- 7 -->
      <g style="fill: #262626" transform="translate(291.439584 340.20725) scale(0.144 -0.144)">
       <defs>
        <path id="ArialMT-37" d="M 303 3981 
L 303 4522 
L 3269 4522 
L 3269 4084 
Q 2831 3619 2401 2847 
Q 1972 2075 1738 1259 
Q 1569 684 1522 0 
L 944 0 
Q 953 541 1156 1306 
Q 1359 2072 1739 2783 
Q 2119 3494 2547 3981 
L 303 3981 
z
" transform="scale(0.015625)"/>
       </defs>
       <use xlink:href="#ArialMT-37"/>
      </g>
     </g>
    </g>
    <g id="xtick_9">
     <g id="text_9">
      <!-- 8 -->
      <g style="fill: #262626" transform="translate(320.375282 340.20725) scale(0.144 -0.144)">
       <defs>
        <path id="ArialMT-38" d="M 1131 2484 
Q 781 2613 612 2850 
Q 444 3088 444 3419 
Q 444 3919 803 4259 
Q 1163 4600 1759 4600 
Q 2359 4600 2725 4251 
Q 3091 3903 3091 3403 
Q 3091 3084 2923 2848 
Q 2756 2613 2416 2484 
Q 2838 2347 3058 2040 
Q 3278 1734 3278 1309 
Q 3278 722 2862 322 
Q 2447 -78 1769 -78 
Q 1091 -78 675 323 
Q 259 725 259 1325 
Q 259 1772 486 2073 
Q 713 2375 1131 2484 
z
M 1019 3438 
Q 1019 3113 1228 2906 
Q 1438 2700 1772 2700 
Q 2097 2700 2305 2904 
Q 2513 3109 2513 3406 
Q 2513 3716 2298 3927 
Q 2084 4138 1766 4138 
Q 1444 4138 1231 3931 
Q 1019 3725 1019 3438 
z
M 838 1322 
Q 838 1081 952 856 
Q 1066 631 1291 507 
Q 1516 384 1775 384 
Q 2178 384 2440 643 
Q 2703 903 2703 1303 
Q 2703 1709 2433 1975 
Q 2163 2241 1756 2241 
Q 1359 2241 1098 1978 
Q 838 1716 838 1322 
z
" transform="scale(0.015625)"/>
       </defs>
       <use xlink:href="#ArialMT-38"/>
      </g>
     </g>
    </g>
    <g id="text_10">
     <!-- Time (d) -->
     <g style="fill: #262626" transform="translate(173.266364 361.04625) scale(0.192 -0.192)">
      <defs>
       <path id="ArialMT-54" d="M 1659 0 
L 1659 4041 
L 150 4041 
L 150 4581 
L 3781 4581 
L 3781 4041 
L 2266 4041 
L 2266 0 
L 1659 0 
z
" transform="scale(0.015625)"/>
       <path id="ArialMT-69" d="M 425 3934 
L 425 4581 
L 988 4581 
L 988 3934 
L 425 3934 
z
M 425 0 
L 425 3319 
L 988 3319 
L 988 0 
L 425 0 
z
" transform="scale(0.015625)"/>
       <path id="ArialMT-6d" d="M 422 0 
L 422 3319 
L 925 3319 
L 925 2853 
Q 1081 3097 1340 3245 
Q 1600 3394 1931 3394 
Q 2300 3394 2536 3241 
Q 2772 3088 2869 2813 
Q 3263 3394 3894 3394 
Q 4388 3394 4653 3120 
Q 4919 2847 4919 2278 
L 4919 0 
L 4359 0 
L 4359 2091 
Q 4359 2428 4304 2576 
Q 4250 2725 4106 2815 
Q 3963 2906 3769 2906 
Q 3419 2906 3187 2673 
Q 2956 2441 2956 1928 
L 2956 0 
L 2394 0 
L 2394 2156 
Q 2394 2531 2256 2718 
Q 2119 2906 1806 2906 
Q 1569 2906 1367 2781 
Q 1166 2656 1075 2415 
Q 984 2175 984 1722 
L 984 0 
L 422 0 
z
" transform="scale(0.015625)"/>
       <path id="ArialMT-65" d="M 2694 1069 
L 3275 997 
Q 3138 488 2766 206 
Q 2394 -75 1816 -75 
Q 1088 -75 661 373 
Q 234 822 234 1631 
Q 234 2469 665 2931 
Q 1097 3394 1784 3394 
Q 2450 3394 2872 2941 
Q 3294 2488 3294 1666 
Q 3294 1616 3291 1516 
L 816 1516 
Q 847 969 1125 678 
Q 1403 388 1819 388 
Q 2128 388 2347 550 
Q 2566 713 2694 1069 
z
M 847 1978 
L 2700 1978 
Q 2663 2397 2488 2606 
Q 2219 2931 1791 2931 
Q 1403 2931 1139 2672 
Q 875 2413 847 1978 
z
" transform="scale(0.015625)"/>
       <path id="ArialMT-20" transform="scale(0.015625)"/>
       <path id="ArialMT-28" d="M 1497 -1347 
Q 1031 -759 709 28 
Q 388 816 388 1659 
Q 388 2403 628 3084 
Q 909 3875 1497 4659 
L 1900 4659 
Q 1522 4009 1400 3731 
Q 1209 3300 1100 2831 
Q 966 2247 966 1656 
Q 966 153 1900 -1347 
L 1497 -1347 
z
" transform="scale(0.015625)"/>
       <path id="ArialMT-64" d="M 2575 0 
L 2575 419 
Q 2259 -75 1647 -75 
Q 1250 -75 917 144 
Q 584 363 401 755 
Q 219 1147 219 1656 
Q 219 2153 384 2558 
Q 550 2963 881 3178 
Q 1213 3394 1622 3394 
Q 1922 3394 2156 3267 
Q 2391 3141 2538 2938 
L 2538 4581 
L 3097 4581 
L 3097 0 
L 2575 0 
z
M 797 1656 
Q 797 1019 1065 703 
Q 1334 388 1700 388 
Q 2069 388 2326 689 
Q 2584 991 2584 1609 
Q 2584 2291 2321 2609 
Q 2059 2928 1675 2928 
Q 1300 2928 1048 2622 
Q 797 2316 797 1656 
z
" transform="scale(0.015625)"/>
       <path id="ArialMT-29" d="M 791 -1347 
L 388 -1347 
Q 1322 153 1322 1656 
Q 1322 2244 1188 2822 
Q 1081 3291 891 3722 
Q 769 4003 388 4659 
L 791 4659 
Q 1378 3875 1659 3084 
Q 1900 2403 1900 1659 
Q 1900 816 1576 28 
Q 1253 -759 791 -1347 
z
" transform="scale(0.015625)"/>
      </defs>
      <use xlink:href="#ArialMT-54"/>
      <use xlink:href="#ArialMT-69" x="57.333984"/>
      <use xlink:href="#ArialMT-6d" x="79.550781"/>
      <use xlink:href="#ArialMT-65" x="162.851562"/>
      <use xlink:href="#ArialMT-20" x="218.466797"/>
      <use xlink:href="#ArialMT-28" x="246.25"/>
      <use xlink:href="#ArialMT-64" x="279.550781"/>
      <use xlink:href="#ArialMT-29" x="335.166016"/>
     </g>
    </g>
   </g>
   <g id="matplotlib.axis_2">
    <g id="ytick_1">
     <g id="text_11">
      <!-- 0 -->
      <g style="fill: #262626" transform="translate(72.49225 325.553625) scale(0.144 -0.144)">
       <use xlink:href="#ArialMT-30"/>
      </g>
     </g>
    </g>
    <g id="ytick_2">
     <g id="text_12">
      <!-- 1 -->
      <g style="fill: #262626" transform="translate(72.49225 291.953625) scale(0.144 -0.144)">
       <use xlink:href="#ArialMT-31"/>
      </g>
     </g>
    </g>
    <g id="ytick_3">
     <g id="text_13">
      <!-- 2 -->
      <g style="fill: #262626" transform="translate(72.49225 258.353625) scale(0.144 -0.144)">
       <use xlink:href="#ArialMT-32"/>
      </g>
     </g>
    </g>
    <g id="ytick_4">
     <g id="text_14">
      <!-- 3 -->
      <g style="fill: #262626" transform="translate(72.49225 224.753625) scale(0.144 -0.144)">
       <use xlink:href="#ArialMT-33"/>
      </g>
     </g>
    </g>
    <g id="ytick_5">
     <g id="text_15">
      <!-- 4 -->
      <g style="fill: #262626" transform="translate(72.49225 191.153625) scale(0.144 -0.144)">
       <use xlink:href="#ArialMT-34"/>
      </g>
     </g>
    </g>
    <g id="ytick_6">
     <g id="text_16">
      <!-- 5 -->
      <g style="fill: #262626" transform="translate(72.49225 157.553625) scale(0.144 -0.144)">
       <use xlink:href="#ArialMT-35"/>
      </g>
     </g>
    </g>
    <g id="ytick_7">
     <g id="text_17">
      <!-- 6 -->
      <g style="fill: #262626" transform="translate(72.49225 123.953625) scale(0.144 -0.144)">
       <use xlink:href="#ArialMT-36"/>
      </g>
     </g>
    </g>
    <g id="ytick_8">
     <g id="text_18">
      <!-- 7 -->
      <g style="fill: #262626" transform="translate(72.49225 90.353625) scale(0.144 -0.144)">
       <use xlink:href="#ArialMT-37"/>
      </g>
     </g>
    </g>
    <g id="ytick_9">
     <g id="text_19">
      <!-- 8 -->
      <g style="fill: #262626" transform="translate(72.49225 56.753625) scale(0.144 -0.144)">
       <use xlink:href="#ArialMT-38"/>
      </g>
     </g>
    </g>
    <g id="text_20">
     <!-- Log10(V) -->
     <g style="fill: #262626" transform="translate(64.45125 221.289) rotate(-90) scale(0.192 -0.192)">
      <defs>
       <path id="ArialMT-4c" d="M 469 0 
L 469 4581 
L 1075 4581 
L 1075 541 
L 3331 541 
L 3331 0 
L 469 0 
z
" transform="scale(0.015625)"/>
       <path id="ArialMT-6f" d="M 213 1659 
Q 213 2581 725 3025 
Q 1153 3394 1769 3394 
Q 2453 3394 2887 2945 
Q 3322 2497 3322 1706 
Q 3322 1066 3130 698 
Q 2938 331 2570 128 
Q 2203 -75 1769 -75 
Q 1072 -75 642 372 
Q 213 819 213 1659 
z
M 791 1659 
Q 791 1022 1069 705 
Q 1347 388 1769 388 
Q 2188 388 2466 706 
Q 2744 1025 2744 1678 
Q 2744 2294 2464 2611 
Q 2184 2928 1769 2928 
Q 1347 2928 1069 2612 
Q 791 2297 791 1659 
z
" transform="scale(0.015625)"/>
       <path id="ArialMT-67" d="M 319 -275 
L 866 -356 
Q 900 -609 1056 -725 
Q 1266 -881 1628 -881 
Q 2019 -881 2231 -725 
Q 2444 -569 2519 -288 
Q 2563 -116 2559 434 
Q 2191 0 1641 0 
Q 956 0 581 494 
Q 206 988 206 1678 
Q 206 2153 378 2554 
Q 550 2956 876 3175 
Q 1203 3394 1644 3394 
Q 2231 3394 2613 2919 
L 2613 3319 
L 3131 3319 
L 3131 450 
Q 3131 -325 2973 -648 
Q 2816 -972 2473 -1159 
Q 2131 -1347 1631 -1347 
Q 1038 -1347 672 -1080 
Q 306 -813 319 -275 
z
M 784 1719 
Q 784 1066 1043 766 
Q 1303 466 1694 466 
Q 2081 466 2343 764 
Q 2606 1063 2606 1700 
Q 2606 2309 2336 2618 
Q 2066 2928 1684 2928 
Q 1309 2928 1046 2623 
Q 784 2319 784 1719 
z
" transform="scale(0.015625)"/>
       <path id="ArialMT-56" d="M 1803 0 
L 28 4581 
L 684 4581 
L 1875 1253 
Q 2019 853 2116 503 
Q 2222 878 2363 1253 
L 3600 4581 
L 4219 4581 
L 2425 0 
L 1803 0 
z
" transform="scale(0.015625)"/>
      </defs>
      <use xlink:href="#ArialMT-4c"/>
      <use xlink:href="#ArialMT-6f" x="55.615234"/>
      <use xlink:href="#ArialMT-67" x="111.230469"/>
      <use xlink:href="#ArialMT-31" x="166.845703"/>
      <use xlink:href="#ArialMT-30" x="222.460938"/>
      <use xlink:href="#ArialMT-28" x="278.076172"/>
      <use xlink:href="#ArialMT-56" x="311.376953"/>
      <use xlink:href="#ArialMT-29" x="378.076172"/>
     </g>
    </g>
   </g>
   <g id="patch_3">
    <path d="M 90 320.4 
L 90 43.2 
" style="fill: none; stroke: #262626; stroke-width: 1.25; stroke-linejoin: miter; stroke-linecap: square"/>
   </g>
   <g id="patch_4">
    <path d="M 327.272727 320.4 
L 327.272727 43.2 
" style="fill: none; stroke: #262626; stroke-width: 1.25; stroke-linejoin: miter; stroke-linecap: square"/>
   </g>
   <g id="patch_5">
    <path d="M 90 320.4 
L 327.272727 320.4 
" style="fill: none; stroke: #262626; stroke-width: 1.25; stroke-linejoin: miter; stroke-linecap: square"/>
   </g>
   <g id="patch_6">
    <path d="M 90 43.2 
L 327.272727 43.2 
" style="fill: none; stroke: #262626; stroke-width: 1.25; stroke-linejoin: miter; stroke-linecap: square"/>
   </g>
   <g id="PolyCollection_1">
    <defs>
     <path id="m009eb5d43c" d="M 92.89357 -39.6 
L 92.89357 -39.6 
L 92.893846 -39.6 
L 92.896607 -39.6 
L 92.924214 -39.6 
L 93.099048 -39.6 
L 93.199082 -39.6 
L 93.610232 -39.6 
L 93.823025 -39.6 
L 94.648544 -39.6 
L 95.009599 -39.667938 
L 96.315842 -47.620253 
L 96.794053 -50.182467 
L 98.043766 -56.402924 
L 98.651881 -59.275921 
L 100.029998 -65.601967 
L 100.750954 -68.856172 
L 102.177768 -75.306125 
L 102.999616 -78.998543 
L 104.472868 -85.53325 
L 105.37863 -89.488027 
L 106.878916 -96.069507 
L 107.85318 -100.325453 
L 109.37139 -106.985646 
L 110.399565 -111.479276 
L 111.925848 -118.174119 
L 112.994842 -122.847725 
L 114.680839 -130.253354 
L 115.740023 -134.885334 
L 117.231594 -141.419314 
L 118.341158 -146.268198 
L 119.983028 -153.462622 
L 121.095781 -158.321303 
L 122.629164 -165.015454 
L 123.77745 -170.011545 
L 125.44323 -177.249311 
L 126.588595 -182.19537 
L 128.160487 -188.929334 
L 129.343461 -193.943266 
L 131.058997 -201.075822 
L 132.255556 -205.934761 
L 133.922582 -212.399634 
L 135.164505 -216.981347 
L 136.976757 -223.017358 
L 138.220904 -226.771714 
L 139.987718 -231.180692 
L 141.295048 -233.914483 
L 143.020375 -236.573287 
L 144.307615 -237.594391 
L 145.907961 -238.249515 
L 147.19489 -238.534579 
L 148.579518 -238.661992 
L 149.964146 -238.647593 
L 151.348774 -238.514172 
L 152.444917 -238.333926 
L 153.46993 -238.124065 
L 154.379531 -237.899555 
L 155.289133 -237.661176 
L 156.002656 -237.453669 
L 156.732938 -237.221904 
L 157.365679 -237.021094 
L 158.024917 -236.797035 
L 158.577697 -236.603236 
L 159.168562 -236.38659 
L 159.660183 -236.206334 
L 161.182832 -235.621363 
L 161.842758 -235.353725 
L 163.708139 -234.581417 
L 164.550234 -234.217008 
L 166.88397 -233.182857 
L 168.02578 -232.65856 
L 170.91935 -231.299221 
L 172.661166 -230.455196 
L 175.554736 -229.020776 
L 177.799749 -227.882197 
L 180.693319 -226.371802 
L 183.586889 -224.813607 
L 186.480458 -223.200077 
L 189.374028 -221.521033 
L 192.267598 -219.763851 
L 195.161168 -217.913468 
L 198.054738 -215.952126 
L 200.948308 -213.858759 
L 203.841877 -211.607862 
L 206.735447 -209.167613 
L 209.629017 -206.496835 
L 212.522587 -203.540039 
L 215.416157 -200.219124 
L 218.309727 -196.418889 
L 221.203297 -191.960574 
L 224.096866 -186.551504 
L 226.990436 -179.630124 
L 229.884006 -168.876975 
L 232.777576 -154.155589 
L 234.905921 -140.509364 
L 236.700881 -127.082919 
L 238.495841 -112.008572 
L 240.2908 -92.04016 
L 242.08576 -72.370233 
L 243.88072 -53.511029 
L 245.675679 -41.029106 
L 247.470639 -39.6 
L 249.265599 -39.6 
L 251.060559 -39.6 
L 252.934335 -39.6 
L 254.808111 -39.6 
L 256.812046 -39.6 
L 258.947278 -39.6 
L 261.331196 -39.6 
L 263.761291 -39.6 
L 266.552449 -39.6 
L 269.365514 -39.6 
L 272.259084 -39.6 
L 275.152654 -39.6 
L 278.046224 -39.6 
L 280.939793 -39.6 
L 283.833363 -39.6 
L 286.726933 -39.6 
L 289.620503 -39.6 
L 292.514073 -39.6 
L 295.407643 -39.6 
L 298.301212 -39.6 
L 301.194782 -39.6 
L 304.088352 -39.6 
L 306.981922 -39.6 
L 309.875492 -39.6 
L 312.769062 -39.6 
L 315.662632 -39.6 
L 318.556201 -39.6 
L 321.449771 -39.6 
L 324.343341 -39.6 
L 324.379157 -39.6 
L 324.379157 -39.6 
L 324.379157 -39.6 
L 324.343341 -39.6 
L 321.449771 -39.6 
L 318.556201 -39.6 
L 315.662632 -39.6 
L 312.769062 -39.6 
L 309.875492 -39.6 
L 306.981922 -39.6 
L 304.088352 -39.6 
L 301.194782 -39.6 
L 298.301212 -39.6 
L 295.407643 -39.6 
L 292.514073 -39.6 
L 289.620503 -39.6 
L 286.726933 -39.6 
L 283.833363 -39.6 
L 280.939793 -39.6 
L 278.046224 -39.6 
L 275.152654 -39.6 
L 272.259084 -39.6 
L 269.365514 -39.6 
L 266.552449 -39.6 
L 263.761291 -39.6 
L 261.331196 -39.6 
L 258.947278 -39.6 
L 256.812046 -39.6 
L 254.808111 -39.6 
L 252.934335 -40.759204 
L 251.060559 -48.565876 
L 249.265599 -58.882921 
L 247.470639 -69.676772 
L 245.675679 -80.893414 
L 243.88072 -92.484464 
L 242.08576 -104.390215 
L 240.2908 -116.810063 
L 238.495841 -129.388031 
L 236.700881 -142.921664 
L 234.905921 -155.734248 
L 232.777576 -168.54839 
L 229.884006 -180.334868 
L 226.990436 -188.484681 
L 224.096866 -194.494717 
L 221.203297 -199.26792 
L 218.309727 -203.24939 
L 215.416157 -206.682291 
L 212.522587 -209.711717 
L 209.629017 -212.476561 
L 206.735447 -215.136828 
L 203.841877 -217.565675 
L 200.948308 -219.803485 
L 198.054738 -221.881129 
L 195.161168 -223.823182 
L 192.267598 -225.649902 
L 189.374028 -227.378434 
L 186.480458 -229.023468 
L 183.586889 -230.597505 
L 180.693319 -232.194145 
L 177.799749 -233.814432 
L 175.554736 -235.038005 
L 172.661166 -236.562682 
L 170.91935 -237.453946 
L 168.02578 -238.886894 
L 166.88397 -239.433406 
L 164.550234 -240.512721 
L 163.708139 -240.888348 
L 161.842758 -241.687147 
L 161.182832 -241.956692 
L 159.660183 -242.550544 
L 159.168562 -242.736839 
L 158.577697 -242.951093 
L 158.024917 -243.139314 
L 157.365679 -243.360761 
L 156.732938 -243.565342 
L 156.002656 -243.782997 
L 155.289133 -243.981218 
L 154.379531 -244.20629 
L 153.46993 -244.400831 
L 152.444917 -244.572387 
L 151.348774 -244.701564 
L 149.964146 -244.747193 
L 148.579518 -244.648039 
L 147.19489 -244.360192 
L 145.907961 -243.864285 
L 144.307615 -242.88543 
L 143.020375 -241.685791 
L 141.295048 -240.067317 
L 139.987718 -238.481035 
L 138.220904 -235.399673 
L 136.976757 -232.684753 
L 135.164505 -227.592435 
L 133.922582 -223.579361 
L 132.255556 -217.408326 
L 131.058997 -212.656281 
L 129.343461 -205.378517 
L 128.160487 -200.199354 
L 126.588595 -193.124148 
L 125.44323 -187.903765 
L 123.77745 -180.207592 
L 122.629164 -174.880754 
L 121.095781 -167.727985 
L 119.983028 -162.534169 
L 118.341158 -154.833043 
L 117.231594 -149.638171 
L 115.740023 -142.638235 
L 114.680839 -137.677872 
L 112.994842 -129.742071 
L 111.925848 -124.731846 
L 110.399565 -117.556489 
L 109.37139 -112.740317 
L 107.85318 -105.601653 
L 106.878916 -101.04011 
L 105.37863 -93.985644 
L 104.472868 -89.747199 
L 102.999616 -82.819583 
L 102.177768 -78.974649 
L 100.750954 -72.257973 
L 100.029998 -68.874385 
L 98.651881 -62.317954 
L 98.043766 -59.388763 
L 96.794053 -53.146063 
L 96.315842 -50.549774 
L 95.009599 -41.689692 
L 94.648544 -39.636389 
L 93.823025 -39.6 
L 93.610232 -39.6 
L 93.199082 -39.6 
L 93.099048 -39.6 
L 92.924214 -39.6 
L 92.896607 -39.6 
L 92.893846 -39.6 
L 92.89357 -39.6 
z
" style="stroke: #8b4513; stroke-opacity: 0.2"/>
    </defs>
    <g clip-path="url(#p88bffa7b50)">
     <use xlink:href="#m009eb5d43c" x="0" y="360" style="fill: #8b4513; fill-opacity: 0.2; stroke: #8b4513; stroke-opacity: 0.2"/>
    </g>
   </g>
   <g id="PolyCollection_2">
    <defs>
     <path id="m20e0934651" d="M 92.89357 -39.6 
L 92.89357 -39.6 
L 92.893884 -39.6 
L 92.897023 -39.6 
L 92.928418 -39.6 
L 93.042009 -39.6 
L 93.136402 -39.6 
L 93.475677 -39.6 
L 93.74118 -39.6 
L 94.414547 -39.6 
L 94.871588 -39.6 
L 95.959767 -39.6 
L 96.565543 -39.6 
L 98.052196 -39.6 
L 98.737279 -41.873733 
L 100.036632 -48.771642 
L 100.827475 -52.712092 
L 102.232316 -59.678866 
L 103.092707 -63.929318 
L 104.489867 -70.635332 
L 105.411131 -75.012632 
L 106.827133 -81.736333 
L 107.793248 -86.32149 
L 109.21089 -93.235036 
L 110.21167 -98.205764 
L 111.772097 -105.937344 
L 112.759661 -110.853678 
L 114.126574 -117.632828 
L 115.15492 -122.735762 
L 116.647299 -130.079493 
L 117.670555 -135.053481 
L 119.057755 -141.756513 
L 120.10718 -146.838898 
L 121.604335 -154.053755 
L 122.646234 -159.080538 
L 124.058043 -165.838468 
L 125.129004 -170.935038 
L 126.662057 -178.15448 
L 127.739628 -183.138595 
L 129.20783 -189.798419 
L 130.315947 -194.614168 
L 131.896575 -201.193674 
L 133.005456 -205.38953 
L 134.524707 -210.710889 
L 135.668351 -214.124119 
L 137.188915 -218.039047 
L 138.241242 -220.213102 
L 139.426882 -222.246974 
L 140.612522 -223.812408 
L 141.633339 -224.755686 
L 142.667447 -225.301961 
L 143.449833 -225.438294 
L 144.199295 -225.535561 
L 144.828502 -225.597368 
L 145.412262 -225.640379 
L 145.925172 -225.667197 
L 146.438082 -225.684363 
L 146.864519 -225.691524 
L 147.262029 -225.691753 
L 147.65954 -225.686711 
L 147.982483 -225.682616 
L 148.350925 -225.676479 
L 149.569211 -225.618366 
L 150.053472 -225.591827 
L 151.300834 -225.489625 
L 151.943268 -225.427597 
L 153.706482 -225.239939 
L 154.677734 -225.111895 
L 156.915698 -224.797957 
L 158.084522 -224.611999 
L 160.566974 -224.201234 
L 161.943559 -223.955086 
L 164.837129 -223.424821 
L 166.430267 -223.119047 
L 169.323837 -222.554593 
L 171.23534 -222.172255 
L 174.12891 -221.58697 
L 176.47362 -221.10597 
L 179.36719 -220.507286 
L 182.260759 -219.903399 
L 185.154329 -219.294845 
L 188.047899 -218.681656 
L 190.941469 -218.063449 
L 193.835039 -217.439495 
L 196.728609 -216.808771 
L 199.622178 -216.170004 
L 202.515748 -215.521708 
L 205.409318 -214.862227 
L 208.302888 -214.18977 
L 211.196458 -213.502447 
L 214.090028 -212.798309 
L 216.983598 -212.075376 
L 219.877167 -211.331674 
L 222.770737 -210.565253 
L 225.664307 -209.774211 
L 228.557877 -208.956706 
L 231.451447 -208.110969 
L 234.345017 -207.235301 
L 237.238586 -206.32807 
L 240.132156 -205.387706 
L 243.025726 -204.412682 
L 245.919296 -203.401496 
L 248.812866 -202.352643 
L 251.706436 -201.264589 
L 254.600006 -200.135729 
L 257.493575 -198.964349 
L 260.387145 -197.748575 
L 263.280715 -196.435576 
L 266.174285 -194.86835 
L 269.067855 -193.207063 
L 271.961425 -191.428484 
L 274.854994 -189.355731 
L 277.748564 -187.097988 
L 280.642134 -184.610084 
L 283.535704 -181.825904 
L 286.429274 -178.643178 
L 289.322844 -174.891155 
L 292.216414 -170.250532 
L 295.109983 -163.999108 
L 298.003553 -153.641697 
L 300.897123 -124.672685 
L 303.790693 -39.6 
L 306.684263 -39.6 
L 308.131048 -39.6 
L 308.420405 -39.6 
L 308.53621 -39.6 
L 308.672233 -39.6 
L 308.721021 -39.6 
L 308.822294 -39.6 
L 308.888382 -39.6 
L 309.004756 -39.6 
L 309.092967 -39.6 
L 309.121589 -39.6 
L 309.16061 -39.6 
L 309.237889 -39.6 
L 309.324739 -39.6 
L 309.473258 -39.6 
L 309.623159 -39.6 
L 309.91667 -39.6 
L 310.301145 -39.6 
L 311.647213 -39.6 
L 313.51621 -39.6 
L 315.723651 -39.6 
L 318.512776 -39.6 
L 321.301902 -39.6 
L 324.195472 -39.6 
L 324.379157 -39.6 
L 324.379157 -167.655344 
L 324.379157 -167.655344 
L 324.195472 -167.79544 
L 321.301902 -169.992146 
L 318.512776 -172.023911 
L 315.723651 -173.960106 
L 313.51621 -175.429236 
L 311.647213 -176.642136 
L 310.301145 -177.496524 
L 309.91667 -177.740561 
L 309.623159 -177.926861 
L 309.473258 -178.018719 
L 309.324739 -178.109537 
L 309.237889 -178.162645 
L 309.16061 -178.2099 
L 309.121589 -178.233761 
L 309.092967 -178.251263 
L 309.004756 -178.305204 
L 308.888382 -178.376365 
L 308.822294 -178.416777 
L 308.721021 -178.478704 
L 308.672233 -178.508538 
L 308.53621 -178.591715 
L 308.420405 -178.662529 
L 308.131048 -178.839468 
L 306.684263 -179.723398 
L 303.790693 -181.432213 
L 300.897123 -183.106451 
L 298.003553 -184.79321 
L 295.109983 -186.423661 
L 292.216414 -188.002725 
L 289.322844 -189.534433 
L 286.429274 -191.243384 
L 283.535704 -193.016996 
L 280.642134 -194.707406 
L 277.748564 -196.32374 
L 274.854994 -197.873288 
L 271.961425 -199.361924 
L 269.067855 -200.794413 
L 266.174285 -202.430016 
L 263.280715 -204.058531 
L 260.387145 -205.598277 
L 257.493575 -207.058201 
L 254.600006 -208.44555 
L 251.706436 -209.766294 
L 248.812866 -211.025425 
L 245.919296 -212.227195 
L 243.025726 -213.375296 
L 240.132156 -214.473 
L 237.238586 -215.523272 
L 234.345017 -216.528864 
L 231.451447 -217.492386 
L 228.557877 -218.416365 
L 225.664307 -219.303289 
L 222.770737 -220.155643 
L 219.877167 -220.975926 
L 216.983598 -221.766664 
L 214.090028 -222.530408 
L 211.196458 -223.269723 
L 208.302888 -223.987165 
L 205.409318 -224.685251 
L 202.515748 -225.366418 
L 199.622178 -226.032981 
L 196.728609 -226.687079 
L 193.835039 -227.330622 
L 190.941469 -227.965231 
L 188.047899 -228.59218 
L 185.154329 -229.21232 
L 182.260759 -229.826001 
L 179.36719 -230.432955 
L 176.47362 -231.03215 
L 174.12891 -231.511494 
L 171.23534 -232.089841 
L 169.323837 -232.465304 
L 166.430267 -233.010756 
L 164.837129 -233.303067 
L 161.943559 -233.795954 
L 160.566974 -234.017274 
L 158.084522 -234.370519 
L 156.915698 -234.520263 
L 154.677734 -234.751538 
L 153.706482 -234.824157 
L 151.943268 -234.912938 
L 151.300834 -234.930415 
L 150.053472 -234.92472 
L 149.569211 -234.908321 
L 148.350925 -234.828891 
L 147.982483 -234.794763 
L 147.65954 -234.756137 
L 147.262029 -234.702444 
L 146.864519 -234.647264 
L 146.438082 -234.566546 
L 145.925172 -234.469459 
L 145.412262 -234.336448 
L 144.828502 -234.185056 
L 144.199295 -233.962125 
L 143.449833 -233.680539 
L 142.667447 -233.373532 
L 141.633339 -232.880759 
L 140.612522 -232.244176 
L 139.426882 -231.303978 
L 138.241242 -230.113601 
L 137.188915 -229.343208 
L 135.668351 -228.128665 
L 134.524707 -226.923791 
L 133.005456 -224.615367 
L 131.896575 -222.507257 
L 130.315947 -218.354872 
L 129.20783 -214.898964 
L 127.739628 -209.232046 
L 126.662057 -204.616751 
L 125.129004 -197.292724 
L 124.058043 -191.864796 
L 122.646234 -184.393889 
L 121.604335 -178.758945 
L 120.10718 -170.498462 
L 119.057755 -164.655176 
L 117.670555 -156.882514 
L 116.647299 -151.129574 
L 115.15492 -142.704993 
L 114.126574 -136.895723 
L 112.759661 -129.168976 
L 111.772097 -123.58898 
L 110.21167 -114.738533 
L 109.21089 -109.075008 
L 107.793248 -101.043184 
L 106.827133 -95.582184 
L 105.411131 -87.557561 
L 104.489867 -82.352774 
L 103.092707 -74.433654 
L 102.232316 -69.574937 
L 100.827475 -61.606846 
L 100.036632 -57.137014 
L 98.737279 -50.105257 
L 98.052196 -46.517978 
L 96.565543 -39.69717 
L 95.959767 -39.6 
L 94.871588 -39.6 
L 94.414547 -39.6 
L 93.74118 -39.6 
L 93.475677 -39.6 
L 93.136402 -39.6 
L 93.042009 -39.6 
L 92.928418 -39.6 
L 92.897023 -39.6 
L 92.893884 -39.6 
L 92.89357 -39.6 
z
" style="stroke: #ff0000; stroke-opacity: 0.2"/>
    </defs>
    <g clip-path="url(#p88bffa7b50)">
     <use xlink:href="#m20e0934651" x="0" y="360" style="fill: #ff0000; fill-opacity: 0.2; stroke: #ff0000; stroke-opacity: 0.2"/>
    </g>
   </g>
   <g id="PathCollection_1">
    <defs>
     <path id="mc7e4fc5058" d="M 0 4.330127 
C 1.148363 4.330127 2.249847 3.873878 3.061862 3.061862 
C 3.873878 2.249847 4.330127 1.148363 4.330127 0 
C 4.330127 -1.148363 3.873878 -2.249847 3.061862 -3.061862 
C 2.249847 -3.873878 1.148363 -4.330127 0 -4.330127 
C -1.148363 -4.330127 -2.249847 -3.873878 -3.061862 -3.061862 
C -3.873878 -2.249847 -4.330127 -1.148363 -4.330127 0 
C -4.330127 1.148363 -3.873878 2.249847 -3.061862 3.061862 
C -2.249847 3.873878 -1.148363 4.330127 0 4.330127 
z
" style="stroke: #ff0000; stroke-opacity: 0.8"/>
    </defs>
    <g clip-path="url(#p88bffa7b50)">
     <use xlink:href="#mc7e4fc5058" x="92.89357" y="320.4" style="fill: #ff0000; fill-opacity: 0.8; stroke: #ff0000; stroke-opacity: 0.8"/>
     <use xlink:href="#mc7e4fc5058" x="121.829268" y="191.915937" style="fill: #ff0000; fill-opacity: 0.8; stroke: #ff0000; stroke-opacity: 0.8"/>
     <use xlink:href="#mc7e4fc5058" x="150.764967" y="144.554018" style="fill: #ff0000; fill-opacity: 0.8; stroke: #ff0000; stroke-opacity: 0.8"/>
     <use xlink:href="#mc7e4fc5058" x="179.700665" y="137.536526" style="fill: #ff0000; fill-opacity: 0.8; stroke: #ff0000; stroke-opacity: 0.8"/>
     <use xlink:href="#mc7e4fc5058" x="208.636364" y="161.939482" style="fill: #ff0000; fill-opacity: 0.8; stroke: #ff0000; stroke-opacity: 0.8"/>
     <use xlink:href="#mc7e4fc5058" x="237.572062" y="126.315559" style="fill: #ff0000; fill-opacity: 0.8; stroke: #ff0000; stroke-opacity: 0.8"/>
     <use xlink:href="#mc7e4fc5058" x="266.507761" y="144.892106" style="fill: #ff0000; fill-opacity: 0.8; stroke: #ff0000; stroke-opacity: 0.8"/>
     <use xlink:href="#mc7e4fc5058" x="295.443459" y="189.192474" style="fill: #ff0000; fill-opacity: 0.8; stroke: #ff0000; stroke-opacity: 0.8"/>
    </g>
   </g>
   <g id="PathCollection_2">
    <defs>
     <path id="m0b8b13fb90" d="M 0 4.330127 
C 1.148363 4.330127 2.249847 3.873878 3.061862 3.061862 
C 3.873878 2.249847 4.330127 1.148363 4.330127 0 
C 4.330127 -1.148363 3.873878 -2.249847 3.061862 -3.061862 
C 2.249847 -3.873878 1.148363 -4.330127 0 -4.330127 
C -1.148363 -4.330127 -2.249847 -3.873878 -3.061862 -3.061862 
C -3.873878 -2.249847 -4.330127 -1.148363 -4.330127 0 
C -4.330127 1.148363 -3.873878 2.249847 -3.061862 3.061862 
C -2.249847 3.873878 -1.148363 4.330127 0 4.330127 
z
" style="stroke: #8b4513; stroke-opacity: 0.8"/>
    </defs>
    <g clip-path="url(#p88bffa7b50)">
     <use xlink:href="#m0b8b13fb90" x="92.89357" y="320.4" style="fill: #8b4513; fill-opacity: 0.8; stroke: #8b4513; stroke-opacity: 0.8"/>
     <use xlink:href="#m0b8b13fb90" x="121.829268" y="191.915937" style="fill: #8b4513; fill-opacity: 0.8; stroke: #8b4513; stroke-opacity: 0.8"/>
     <use xlink:href="#m0b8b13fb90" x="150.764967" y="126.942083" style="fill: #8b4513; fill-opacity: 0.8; stroke: #8b4513; stroke-opacity: 0.8"/>
     <use xlink:href="#m0b8b13fb90" x="179.700665" y="109.928387" style="fill: #8b4513; fill-opacity: 0.8; stroke: #8b4513; stroke-opacity: 0.8"/>
     <use xlink:href="#m0b8b13fb90" x="208.636364" y="160.004952" style="fill: #8b4513; fill-opacity: 0.8; stroke: #8b4513; stroke-opacity: 0.8"/>
     <use xlink:href="#m0b8b13fb90" x="237.572062" y="230.617512" style="fill: #8b4513; fill-opacity: 0.8; stroke: #8b4513; stroke-opacity: 0.8"/>
     <use xlink:href="#m0b8b13fb90" x="266.507761" y="320.4" style="fill: #8b4513; fill-opacity: 0.8; stroke: #8b4513; stroke-opacity: 0.8"/>
     <use xlink:href="#m0b8b13fb90" x="295.443459" y="320.4" style="fill: #8b4513; fill-opacity: 0.8; stroke: #8b4513; stroke-opacity: 0.8"/>
    </g>
   </g>
   <g id="line2d_1">
    <path d="M 92.89357 320.4 
L 94.648544 320.4 
L 95.009599 319.050031 
L 96.794053 307.60823 
L 98.651881 298.606295 
L 106.878916 261.201601 
L 129.343461 160.116027 
L 132.255556 147.987376 
L 135.164505 137.153704 
L 136.976757 131.454144 
L 138.220904 128.125193 
L 139.987718 124.304009 
L 141.295048 122.13555 
L 143.020375 120.051149 
L 144.307615 118.975754 
L 145.907961 118.088902 
L 147.19489 117.658857 
L 148.579518 117.412137 
L 149.964146 117.340816 
L 152.444917 117.539304 
L 155.289133 118.13018 
L 158.577697 119.132962 
L 161.842758 120.352967 
L 166.88397 122.517292 
L 172.661166 125.266028 
L 180.693319 129.428491 
L 186.480458 132.686504 
L 192.267598 136.236765 
L 198.054738 140.188581 
L 200.948308 142.360534 
L 203.841877 144.694977 
L 206.735447 147.22337 
L 209.629017 149.986934 
L 212.522587 153.041948 
L 215.416157 156.468642 
L 218.309727 160.386785 
L 221.203297 164.984465 
L 224.096866 170.573514 
L 226.990436 177.696414 
L 229.884006 187.298543 
L 232.777576 200.78044 
L 234.905921 213.724949 
L 238.495841 239.379148 
L 243.88072 278.819118 
L 247.470639 303.289289 
L 249.265599 314.70182 
L 251.060559 320.4 
L 324.379157 320.4 
L 324.379157 320.4 
" clip-path="url(#p88bffa7b50)" style="fill: none; stroke: #8b4513; stroke-width: 1.5; stroke-linecap: round"/>
   </g>
   <g id="line2d_2">
    <path d="M 92.89357 320.4 
L 96.565543 320.4 
L 98.052196 318.447833 
L 109.21089 257.902726 
L 124.058043 178.184529 
L 126.662057 165.190981 
L 129.20783 153.861908 
L 130.315947 149.594736 
L 131.896575 144.40858 
L 133.005456 141.43033 
L 134.524707 138.218842 
L 135.668351 136.377814 
L 137.188915 134.55053 
L 138.241242 133.609727 
L 139.426882 132.791585 
L 140.612522 132.173128 
L 142.667447 131.449714 
L 144.828502 131.025737 
L 147.262029 130.826275 
L 150.053472 130.840182 
L 153.706482 131.110248 
L 158.084522 131.661967 
L 164.837129 132.769569 
L 176.47362 134.977263 
L 193.835039 138.520087 
L 205.409318 141.063199 
L 214.090028 143.14347 
L 222.770737 145.436827 
L 231.451447 147.999802 
L 240.132156 150.88543 
L 245.919296 153.015046 
L 251.706436 155.330897 
L 257.493575 157.856783 
L 263.280715 160.625192 
L 269.067855 163.683168 
L 274.854994 167.102425 
L 277.748564 168.981096 
L 280.642134 170.998672 
L 283.535704 173.183179 
L 286.429274 175.573292 
L 289.322844 178.224341 
L 292.216414 181.219231 
L 295.109983 184.690148 
L 298.003553 188.866925 
L 300.897123 194.204601 
L 303.790693 201.824602 
L 306.684263 216.179348 
L 308.131048 236.573244 
L 308.53621 254.952326 
L 308.888382 294.585382 
L 309.16061 320.4 
L 324.379157 320.4 
L 324.379157 320.4 
" clip-path="url(#p88bffa7b50)" style="fill: none; stroke: #ff0000; stroke-width: 1.5; stroke-linecap: round"/>
   </g>
  </g>
  <g id="axes_2">
   <g id="patch_7">
    <path d="M 374.727273 320.4 
L 612 320.4 
L 612 43.2 
L 374.727273 43.2 
z
" style="fill: #ffffff"/>
   </g>
   <g id="matplotlib.axis_3">
    <g id="xtick_10">
     <g id="text_21">
      <!-- 0 -->
      <g style="fill: #262626" transform="translate(373.616968 340.20725) scale(0.144 -0.144)">
       <use xlink:href="#ArialMT-30"/>
      </g>
     </g>
    </g>
    <g id="xtick_11">
     <g id="text_22">
      <!-- 1 -->
      <g style="fill: #262626" transform="translate(402.552666 340.20725) scale(0.144 -0.144)">
       <use xlink:href="#ArialMT-31"/>
      </g>
     </g>
    </g>
    <g id="xtick_12">
     <g id="text_23">
      <!-- 2 -->
      <g style="fill: #262626" transform="translate(431.488364 340.20725) scale(0.144 -0.144)">
       <use xlink:href="#ArialMT-32"/>
      </g>
     </g>
    </g>
    <g id="xtick_13">
     <g id="text_24">
      <!-- 3 -->
      <g style="fill: #262626" transform="translate(460.424063 340.20725) scale(0.144 -0.144)">
       <use xlink:href="#ArialMT-33"/>
      </g>
     </g>
    </g>
    <g id="xtick_14">
     <g id="text_25">
      <!-- 4 -->
      <g style="fill: #262626" transform="translate(489.359761 340.20725) scale(0.144 -0.144)">
       <use xlink:href="#ArialMT-34"/>
      </g>
     </g>
    </g>
    <g id="xtick_15">
     <g id="text_26">
      <!-- 5 -->
      <g style="fill: #262626" transform="translate(518.29546 340.20725) scale(0.144 -0.144)">
       <use xlink:href="#ArialMT-35"/>
      </g>
     </g>
    </g>
    <g id="xtick_16">
     <g id="text_27">
      <!-- 6 -->
      <g style="fill: #262626" transform="translate(547.231158 340.20725) scale(0.144 -0.144)">
       <use xlink:href="#ArialMT-36"/>
      </g>
     </g>
    </g>
    <g id="xtick_17">
     <g id="text_28">
      <!-- 7 -->
      <g style="fill: #262626" transform="translate(576.166857 340.20725) scale(0.144 -0.144)">
       <use xlink:href="#ArialMT-37"/>
      </g>
     </g>
    </g>
    <g id="xtick_18">
     <g id="text_29">
      <!-- 8 -->
      <g style="fill: #262626" transform="translate(605.102555 340.20725) scale(0.144 -0.144)">
       <use xlink:href="#ArialMT-38"/>
      </g>
     </g>
    </g>
    <g id="text_30">
     <!-- Time (d) -->
     <g style="fill: #262626" transform="translate(457.993636 361.04625) scale(0.192 -0.192)">
      <use xlink:href="#ArialMT-54"/>
      <use xlink:href="#ArialMT-69" x="57.333984"/>
      <use xlink:href="#ArialMT-6d" x="79.550781"/>
      <use xlink:href="#ArialMT-65" x="162.851562"/>
      <use xlink:href="#ArialMT-20" x="218.466797"/>
      <use xlink:href="#ArialMT-28" x="246.25"/>
      <use xlink:href="#ArialMT-64" x="279.550781"/>
      <use xlink:href="#ArialMT-29" x="335.166016"/>
     </g>
    </g>
   </g>
   <g id="matplotlib.axis_4">
    <g id="ytick_10">
     <g id="text_31">
      <!-- 4.5 -->
      <g style="fill: #262626" transform="translate(345.211273 325.553625) scale(0.144 -0.144)">
       <defs>
        <path id="ArialMT-2e" d="M 581 0 
L 581 641 
L 1222 641 
L 1222 0 
L 581 0 
z
" transform="scale(0.015625)"/>
       </defs>
       <use xlink:href="#ArialMT-34"/>
       <use xlink:href="#ArialMT-2e" x="55.615234"/>
       <use xlink:href="#ArialMT-35" x="83.398438"/>
      </g>
     </g>
    </g>
    <g id="ytick_11">
     <g id="text_32">
      <!-- 5.0 -->
      <g style="fill: #262626" transform="translate(345.211273 282.907471) scale(0.144 -0.144)">
       <use xlink:href="#ArialMT-35"/>
       <use xlink:href="#ArialMT-2e" x="55.615234"/>
       <use xlink:href="#ArialMT-30" x="83.398438"/>
      </g>
     </g>
    </g>
    <g id="ytick_12">
     <g id="text_33">
      <!-- 5.5 -->
      <g style="fill: #262626" transform="translate(345.211273 240.261317) scale(0.144 -0.144)">
       <use xlink:href="#ArialMT-35"/>
       <use xlink:href="#ArialMT-2e" x="55.615234"/>
       <use xlink:href="#ArialMT-35" x="83.398438"/>
      </g>
     </g>
    </g>
    <g id="ytick_13">
     <g id="text_34">
      <!-- 6.0 -->
      <g style="fill: #262626" transform="translate(345.211273 197.615163) scale(0.144 -0.144)">
       <use xlink:href="#ArialMT-36"/>
       <use xlink:href="#ArialMT-2e" x="55.615234"/>
       <use xlink:href="#ArialMT-30" x="83.398438"/>
      </g>
     </g>
    </g>
    <g id="ytick_14">
     <g id="text_35">
      <!-- 6.5 -->
      <g style="fill: #262626" transform="translate(345.211273 154.96901) scale(0.144 -0.144)">
       <use xlink:href="#ArialMT-36"/>
       <use xlink:href="#ArialMT-2e" x="55.615234"/>
       <use xlink:href="#ArialMT-35" x="83.398438"/>
      </g>
     </g>
    </g>
    <g id="ytick_15">
     <g id="text_36">
      <!-- 7.0 -->
      <g style="fill: #262626" transform="translate(345.211273 112.322856) scale(0.144 -0.144)">
       <use xlink:href="#ArialMT-37"/>
       <use xlink:href="#ArialMT-2e" x="55.615234"/>
       <use xlink:href="#ArialMT-30" x="83.398438"/>
      </g>
     </g>
    </g>
    <g id="ytick_16">
     <g id="text_37">
      <!-- 7.5 -->
      <g style="fill: #262626" transform="translate(345.211273 69.676702) scale(0.144 -0.144)">
       <use xlink:href="#ArialMT-37"/>
       <use xlink:href="#ArialMT-2e" x="55.615234"/>
       <use xlink:href="#ArialMT-35" x="83.398438"/>
      </g>
     </g>
    </g>
    <g id="text_38">
     <!-- Log10(CD8TE) -->
     <g style="fill: #262626" transform="translate(337.170273 246.357) rotate(-90) scale(0.192 -0.192)">
      <defs>
       <path id="ArialMT-43" d="M 3763 1606 
L 4369 1453 
Q 4178 706 3683 314 
Q 3188 -78 2472 -78 
Q 1731 -78 1267 223 
Q 803 525 561 1097 
Q 319 1669 319 2325 
Q 319 3041 592 3573 
Q 866 4106 1370 4382 
Q 1875 4659 2481 4659 
Q 3169 4659 3637 4309 
Q 4106 3959 4291 3325 
L 3694 3184 
Q 3534 3684 3231 3912 
Q 2928 4141 2469 4141 
Q 1941 4141 1586 3887 
Q 1231 3634 1087 3207 
Q 944 2781 944 2328 
Q 944 1744 1114 1308 
Q 1284 872 1643 656 
Q 2003 441 2422 441 
Q 2931 441 3284 734 
Q 3638 1028 3763 1606 
z
" transform="scale(0.015625)"/>
       <path id="ArialMT-44" d="M 494 0 
L 494 4581 
L 2072 4581 
Q 2606 4581 2888 4516 
Q 3281 4425 3559 4188 
Q 3922 3881 4101 3404 
Q 4281 2928 4281 2316 
Q 4281 1794 4159 1391 
Q 4038 988 3847 723 
Q 3656 459 3429 307 
Q 3203 156 2883 78 
Q 2563 0 2147 0 
L 494 0 
z
M 1100 541 
L 2078 541 
Q 2531 541 2789 625 
Q 3047 709 3200 863 
Q 3416 1078 3536 1442 
Q 3656 1806 3656 2325 
Q 3656 3044 3420 3430 
Q 3184 3816 2847 3947 
Q 2603 4041 2063 4041 
L 1100 4041 
L 1100 541 
z
" transform="scale(0.015625)"/>
       <path id="ArialMT-45" d="M 506 0 
L 506 4581 
L 3819 4581 
L 3819 4041 
L 1113 4041 
L 1113 2638 
L 3647 2638 
L 3647 2100 
L 1113 2100 
L 1113 541 
L 3925 541 
L 3925 0 
L 506 0 
z
" transform="scale(0.015625)"/>
      </defs>
      <use xlink:href="#ArialMT-4c"/>
      <use xlink:href="#ArialMT-6f" x="55.615234"/>
      <use xlink:href="#ArialMT-67" x="111.230469"/>
      <use xlink:href="#ArialMT-31" x="166.845703"/>
      <use xlink:href="#ArialMT-30" x="222.460938"/>
      <use xlink:href="#ArialMT-28" x="278.076172"/>
      <use xlink:href="#ArialMT-43" x="311.376953"/>
      <use xlink:href="#ArialMT-44" x="383.59375"/>
      <use xlink:href="#ArialMT-38" x="455.810547"/>
      <use xlink:href="#ArialMT-54" x="511.425781"/>
      <use xlink:href="#ArialMT-45" x="572.509766"/>
      <use xlink:href="#ArialMT-29" x="639.208984"/>
     </g>
    </g>
   </g>
   <g id="patch_8">
    <path d="M 374.727273 320.4 
L 374.727273 43.2 
" style="fill: none; stroke: #262626; stroke-width: 1.25; stroke-linejoin: miter; stroke-linecap: square"/>
   </g>
   <g id="patch_9">
    <path d="M 612 320.4 
L 612 43.2 
" style="fill: none; stroke: #262626; stroke-width: 1.25; stroke-linejoin: miter; stroke-linecap: square"/>
   </g>
   <g id="patch_10">
    <path d="M 374.727273 320.4 
L 612 320.4 
" style="fill: none; stroke: #262626; stroke-width: 1.25; stroke-linejoin: miter; stroke-linecap: square"/>
   </g>
   <g id="patch_11">
    <path d="M 374.727273 43.2 
L 612 43.2 
" style="fill: none; stroke: #262626; stroke-width: 1.25; stroke-linejoin: miter; stroke-linecap: square"/>
   </g>
   <g id="PolyCollection_3">
    <defs>
     <path id="m34861f88c5" d="M 377.620843 -169.412606 
L 377.620843 -169.412606 
L 377.621119 -169.412606 
L 377.623879 -169.412606 
L 377.651487 -169.412606 
L 377.82632 -169.412606 
L 377.926355 -169.412606 
L 378.337505 -169.412606 
L 378.550297 -169.412606 
L 379.375817 -169.412606 
L 379.736872 -169.412606 
L 381.043115 -169.412606 
L 381.521325 -169.412606 
L 382.771039 -169.412606 
L 383.379153 -169.412606 
L 384.757271 -169.412606 
L 385.478226 -169.412606 
L 386.90504 -169.412606 
L 387.726889 -169.412606 
L 389.200141 -169.412606 
L 390.105902 -169.412606 
L 391.606188 -169.412606 
L 392.580453 -169.412606 
L 394.098663 -169.412606 
L 395.126837 -169.412606 
L 396.653121 -169.412607 
L 397.722115 -169.412607 
L 399.408111 -169.412608 
L 400.467296 -169.412609 
L 401.958866 -169.412612 
L 403.06843 -169.412615 
L 404.7103 -169.412624 
L 405.823053 -169.412634 
L 407.356437 -169.412655 
L 408.504723 -169.412681 
L 410.170503 -169.412741 
L 411.315868 -169.412805 
L 412.88776 -169.412946 
L 414.070734 -169.413109 
L 415.78627 -169.413493 
L 416.982829 -169.413913 
L 418.649854 -169.414849 
L 419.891778 -169.415944 
L 421.70403 -169.418592 
L 422.948177 -169.421512 
L 424.71499 -169.428235 
L 426.022321 -169.436262 
L 427.747647 -169.453472 
L 429.034887 -169.473921 
L 430.635233 -169.513012 
L 431.922162 -169.560992 
L 433.30679 -169.636769 
L 434.691419 -169.748032 
L 436.076047 -169.910645 
L 437.172189 -170.085996 
L 438.197202 -170.300745 
L 439.106804 -170.543787 
L 440.016406 -170.842809 
L 440.729929 -171.126268 
L 441.46021 -171.473622 
L 442.092952 -171.822343 
L 442.75219 -172.238477 
L 443.30497 -172.629225 
L 443.895835 -173.099398 
L 444.387455 -173.526744 
L 445.910105 -175.140862 
L 446.57003 -175.970819 
L 448.435412 -178.737479 
L 449.277507 -180.220631 
L 451.611242 -185.012154 
L 452.753053 -187.712755 
L 455.646623 -195.449998 
L 457.388439 -200.507467 
L 460.282009 -209.180194 
L 462.527022 -215.860107 
L 465.420591 -224.155458 
L 468.314161 -231.858941 
L 471.207731 -238.830332 
L 474.101301 -245.009602 
L 476.994871 -250.388681 
L 479.888441 -254.991086 
L 482.78201 -258.858427 
L 485.67558 -262.041866 
L 488.56915 -264.596829 
L 491.46272 -266.579798 
L 494.35629 -267.951456 
L 497.24986 -268.117033 
L 500.14343 -267.943834 
L 503.036999 -267.482531 
L 505.930569 -266.778645 
L 508.824139 -265.872634 
L 511.717709 -264.800074 
L 514.611279 -263.591897 
L 517.504849 -262.274704 
L 519.633194 -261.255837 
L 521.428154 -260.359518 
L 523.223113 -259.440284 
L 525.018073 -258.499831 
L 526.813033 -257.543811 
L 528.607992 -256.574146 
L 530.402952 -255.59332 
L 532.197912 -254.603512 
L 533.992872 -253.606627 
L 535.787831 -252.604311 
L 537.661607 -251.553762 
L 539.535384 -250.480352 
L 541.539319 -249.330018 
L 543.67455 -248.105151 
L 546.058468 -246.740083 
L 548.488564 -245.35228 
L 551.279721 -243.764431 
L 554.092787 -242.172216 
L 556.986357 -240.543865 
L 559.879926 -238.926226 
L 562.773496 -237.170102 
L 565.667066 -235.364558 
L 568.560636 -233.575332 
L 571.454206 -231.803507 
L 574.347776 -230.050077 
L 577.241345 -228.31596 
L 580.134915 -226.602024 
L 583.028485 -224.909095 
L 585.922055 -223.237967 
L 588.815625 -221.589409 
L 591.709195 -219.964168 
L 594.602765 -218.362969 
L 597.496334 -216.786516 
L 600.389904 -215.235495 
L 603.283474 -213.710566 
L 606.177044 -212.212368 
L 609.070614 -210.738676 
L 609.10643 -210.720527 
L 609.10643 -225.03645 
L 609.10643 -225.03645 
L 609.070614 -225.054542 
L 606.177044 -226.523871 
L 603.283474 -228.007631 
L 600.389904 -229.506909 
L 597.496334 -231.02123 
L 594.602765 -232.550115 
L 591.709195 -234.093081 
L 588.815625 -235.649641 
L 585.922055 -237.219298 
L 583.028485 -238.801721 
L 580.134915 -240.423652 
L 577.241345 -242.057315 
L 574.347776 -243.702037 
L 571.454206 -245.357073 
L 568.560636 -247.021587 
L 565.667066 -248.694613 
L 562.773496 -250.375026 
L 559.879926 -252.061482 
L 556.986357 -253.752361 
L 554.092787 -255.445688 
L 551.279721 -257.091989 
L 548.488564 -258.72293 
L 546.058468 -260.138303 
L 543.67455 -261.51929 
L 541.539319 -262.74845 
L 539.535384 -263.893093 
L 537.661607 -264.953455 
L 535.787831 -266.002483 
L 533.992872 -266.993034 
L 532.197912 -267.967674 
L 530.402952 -268.925142 
L 528.607992 -269.860806 
L 526.813033 -270.771043 
L 525.018073 -271.654837 
L 523.223113 -272.50468 
L 521.428154 -273.317893 
L 519.633194 -274.080508 
L 517.504849 -274.945898 
L 514.611279 -275.983113 
L 511.717709 -276.852903 
L 508.824139 -277.613062 
L 505.930569 -278.166504 
L 503.036999 -278.458646 
L 500.14343 -278.447325 
L 497.24986 -278.086301 
L 494.35629 -277.325242 
L 491.46272 -276.1098 
L 488.56915 -274.466249 
L 485.67558 -272.362402 
L 482.78201 -269.800976 
L 479.888441 -266.953233 
L 476.994871 -263.349849 
L 474.101301 -258.913485 
L 471.207731 -253.572366 
L 468.314161 -247.2687 
L 465.420591 -239.972927 
L 462.527022 -231.707247 
L 460.282009 -224.662124 
L 457.388439 -215.078174 
L 455.646623 -209.110798 
L 452.753053 -199.266197 
L 451.611242 -195.626073 
L 449.277507 -188.567041 
L 448.435412 -186.363768 
L 446.57003 -181.870524 
L 445.910105 -180.563948 
L 444.387455 -177.741054 
L 443.895835 -176.950259 
L 443.30497 -176.124824 
L 442.75219 -175.389737 
L 442.092952 -174.538115 
L 441.46021 -173.855427 
L 440.729929 -173.195215 
L 440.016406 -172.574492 
L 439.106804 -171.923376 
L 438.197202 -171.420042 
L 437.172189 -170.924648 
L 436.076047 -170.537219 
L 434.691419 -170.173982 
L 433.30679 -169.924144 
L 431.922162 -169.74791 
L 430.635233 -169.639517 
L 429.034887 -169.553463 
L 427.747647 -169.506019 
L 426.022321 -169.467736 
L 424.71499 -169.449131 
L 422.948177 -169.433769 
L 421.70403 -169.427088 
L 419.891778 -169.420789 
L 418.649854 -169.418222 
L 416.982829 -169.415921 
L 415.78627 -169.414907 
L 414.070734 -169.413933 
L 412.88776 -169.413523 
L 411.315868 -169.413154 
L 410.170503 -169.412986 
L 408.504723 -169.412821 
L 407.356437 -169.412752 
L 405.823053 -169.41269 
L 404.7103 -169.412663 
L 403.06843 -169.412636 
L 401.958866 -169.412625 
L 400.467296 -169.412616 
L 399.408111 -169.412613 
L 397.722115 -169.412609 
L 396.653121 -169.412608 
L 395.126837 -169.412607 
L 394.098663 -169.412607 
L 392.580453 -169.412606 
L 391.606188 -169.412606 
L 390.105902 -169.412606 
L 389.200141 -169.412606 
L 387.726889 -169.412606 
L 386.90504 -169.412606 
L 385.478226 -169.412606 
L 384.757271 -169.412606 
L 383.379153 -169.412606 
L 382.771039 -169.412606 
L 381.521325 -169.412606 
L 381.043115 -169.412606 
L 379.736872 -169.412606 
L 379.375817 -169.412606 
L 378.550297 -169.412606 
L 378.337505 -169.412606 
L 377.926355 -169.412606 
L 377.82632 -169.412606 
L 377.651487 -169.412606 
L 377.623879 -169.412606 
L 377.621119 -169.412606 
L 377.620843 -169.412606 
z
" style="stroke: #8b4513; stroke-opacity: 0.2"/>
    </defs>
    <g clip-path="url(#p5dada50437)">
     <use xlink:href="#m34861f88c5" x="0" y="360" style="fill: #8b4513; fill-opacity: 0.2; stroke: #8b4513; stroke-opacity: 0.2"/>
    </g>
   </g>
   <g id="PolyCollection_4">
    <defs>
     <path id="m3dacd99740" d="M 377.620843 -92.969911 
L 377.620843 -92.969911 
L 377.621157 -92.969911 
L 377.624296 -92.969911 
L 377.655691 -92.969911 
L 377.769282 -92.969911 
L 377.863675 -92.969911 
L 378.20295 -92.969911 
L 378.468452 -92.969911 
L 379.14182 -92.969911 
L 379.598861 -92.969911 
L 380.68704 -92.969911 
L 381.292816 -92.969911 
L 382.779468 -92.969911 
L 383.464552 -92.969911 
L 384.763905 -92.969911 
L 385.554747 -92.969911 
L 386.959588 -92.969911 
L 387.81998 -92.969911 
L 389.217139 -92.969911 
L 390.138404 -92.969911 
L 391.554406 -92.969911 
L 392.520521 -92.969911 
L 393.938162 -92.969911 
L 394.938943 -92.969911 
L 396.49937 -92.969911 
L 397.486934 -92.969911 
L 398.853847 -92.969911 
L 399.882193 -92.969911 
L 401.374572 -92.969911 
L 402.397827 -92.969911 
L 403.785028 -92.969912 
L 404.834452 -92.969912 
L 406.331608 -92.969912 
L 407.373507 -92.969913 
L 408.785316 -92.969915 
L 409.856277 -92.969917 
L 411.38933 -92.969922 
L 412.466901 -92.969927 
L 413.935102 -92.969939 
L 415.043219 -92.969955 
L 416.623848 -92.969991 
L 417.732729 -92.970033 
L 419.25198 -92.970128 
L 420.395623 -92.970242 
L 421.916187 -92.970482 
L 422.968515 -92.970753 
L 424.154155 -92.971211 
L 425.339794 -92.971944 
L 426.360612 -92.972889 
L 427.39472 -92.974277 
L 428.177106 -92.97576 
L 428.926567 -92.977598 
L 429.555775 -92.979503 
L 430.139535 -92.981906 
L 430.652445 -92.984186 
L 431.165354 -92.987276 
L 431.591791 -92.989883 
L 431.989302 -92.993236 
L 432.386813 -92.996589 
L 432.709756 -92.999771 
L 433.078198 -93.003922 
L 434.296484 -93.021763 
L 434.780745 -93.03108 
L 436.028107 -93.064565 
L 436.67054 -93.087123 
L 438.433755 -93.183597 
L 439.405007 -93.25413 
L 441.642971 -93.541528 
L 442.811794 -93.738871 
L 445.294247 -94.549215 
L 446.670832 -95.149452 
L 449.564402 -97.429515 
L 451.15754 -99.091285 
L 454.05111 -103.830415 
L 455.962613 -107.804646 
L 458.856183 -115.728559 
L 461.200892 -123.224008 
L 464.094462 -133.696784 
L 466.988032 -144.799739 
L 469.881602 -156.069291 
L 472.775172 -167.141225 
L 475.668742 -177.781116 
L 478.562312 -187.854223 
L 481.455881 -197.293647 
L 484.349451 -206.075489 
L 487.243021 -214.201814 
L 490.136591 -221.689689 
L 493.030161 -228.564372 
L 495.923731 -234.855169 
L 498.8173 -240.592952 
L 501.71087 -245.808692 
L 504.60444 -250.532628 
L 507.49801 -254.793811 
L 510.39158 -258.619873 
L 513.28515 -262.036946 
L 516.178719 -265.069657 
L 519.072289 -267.715662 
L 521.965859 -269.29257 
L 524.859429 -270.056594 
L 527.752999 -270.564353 
L 530.646569 -270.835934 
L 533.540139 -270.890212 
L 536.433708 -270.744921 
L 539.327278 -270.416719 
L 542.220848 -269.921241 
L 545.114418 -269.273149 
L 548.007988 -268.486172 
L 550.901558 -267.191595 
L 553.795127 -265.747284 
L 556.688697 -264.205098 
L 559.582267 -262.575334 
L 562.475837 -260.867497 
L 565.369407 -259.087821 
L 568.262977 -257.137334 
L 571.156547 -255.121583 
L 574.050116 -253.047874 
L 576.943686 -250.922924 
L 579.837256 -248.752895 
L 582.730826 -246.543418 
L 585.624396 -244.299626 
L 588.517966 -242.026182 
L 591.411535 -239.703363 
L 592.85832 -238.458272 
L 593.147677 -238.208607 
L 593.263483 -238.108687 
L 593.399506 -237.991323 
L 593.448294 -237.949227 
L 593.549567 -237.861846 
L 593.615655 -237.804823 
L 593.732029 -237.704413 
L 593.82024 -237.628302 
L 593.848862 -237.603606 
L 593.887882 -237.569938 
L 593.965161 -237.503259 
L 594.052012 -237.428322 
L 594.20053 -237.300176 
L 594.350432 -237.170837 
L 594.643943 -236.916991 
L 595.028418 -236.581385 
L 596.374486 -235.406409 
L 598.243483 -233.768329 
L 600.450924 -231.821721 
L 603.240049 -229.342263 
L 606.029175 -226.845611 
L 608.922745 -224.241108 
L 609.10643 -224.075614 
L 609.10643 -255.042137 
L 609.10643 -255.042137 
L 608.922745 -255.150644 
L 606.029175 -256.858668 
L 603.240049 -258.481762 
L 600.450924 -260.085619 
L 598.243483 -261.332133 
L 596.374486 -262.37936 
L 595.028418 -263.153626 
L 594.643943 -263.372826 
L 594.350432 -263.539927 
L 594.20053 -263.625269 
L 594.052012 -263.709824 
L 593.965161 -263.759269 
L 593.887882 -263.803266 
L 593.848862 -263.825481 
L 593.82024 -263.841776 
L 593.732029 -263.891996 
L 593.615655 -263.95825 
L 593.549567 -263.995875 
L 593.448294 -264.053532 
L 593.399506 -264.081308 
L 593.263483 -264.158748 
L 593.147677 -264.224678 
L 592.85832 -264.38931 
L 591.411535 -265.203933 
L 588.517966 -266.807768 
L 585.624396 -268.376614 
L 582.730826 -269.904922 
L 579.837256 -271.387616 
L 576.943686 -272.819161 
L 574.050116 -274.193545 
L 571.156547 -275.504255 
L 568.262977 -276.744255 
L 565.369407 -277.905968 
L 562.475837 -278.981251 
L 559.582267 -279.961376 
L 556.688697 -280.83701 
L 553.795127 -281.665024 
L 550.901558 -282.510748 
L 548.007988 -283.213903 
L 545.114418 -283.762068 
L 542.220848 -284.188348 
L 539.327278 -284.738296 
L 536.433708 -285.121564 
L 533.540139 -285.32349 
L 530.646569 -285.328484 
L 527.752999 -285.11997 
L 524.859429 -284.680326 
L 521.965859 -283.990809 
L 519.072289 -283.031474 
L 516.178719 -281.781081 
L 513.28515 -280.465509 
L 510.39158 -279.20585 
L 507.49801 -277.576801 
L 504.60444 -275.545312 
L 501.71087 -273.075946 
L 498.8173 -270.130692 
L 495.923731 -266.66876 
L 493.030161 -262.646391 
L 490.136591 -258.016692 
L 487.243021 -252.72955 
L 484.349451 -246.731702 
L 481.455881 -240.140422 
L 478.562312 -233.078511 
L 475.668742 -225.183019 
L 472.775172 -216.399815 
L 469.881602 -206.681668 
L 466.988032 -195.997686 
L 464.094462 -184.350366 
L 461.200892 -171.805509 
L 458.856183 -161.068495 
L 455.962613 -147.527028 
L 454.05111 -138.625833 
L 451.15754 -125.652461 
L 449.564402 -119.409203 
L 446.670832 -109.509941 
L 445.294247 -105.797989 
L 442.811794 -100.561656 
L 441.642971 -98.617533 
L 439.405007 -96.190358 
L 438.433755 -95.44345 
L 436.67054 -94.450204 
L 436.028107 -94.177011 
L 434.780745 -93.781484 
L 434.296484 -93.675388 
L 433.078198 -93.44371 
L 432.709756 -93.385792 
L 432.386813 -93.344867 
L 431.989302 -93.299479 
L 431.591791 -93.254091 
L 431.165354 -93.218821 
L 430.652445 -93.176713 
L 430.139535 -93.143652 
L 429.555775 -93.111012 
L 428.926567 -93.083486 
L 428.177106 -93.056361 
L 427.39472 -93.035456 
L 426.360612 -93.01438 
L 425.339794 -93.000721 
L 424.154155 -92.989832 
L 422.968515 -92.982974 
L 421.916187 -92.978784 
L 420.395623 -92.974974 
L 419.25198 -92.973212 
L 417.732729 -92.971794 
L 416.623848 -92.971145 
L 415.043219 -92.970594 
L 413.935102 -92.970376 
L 412.466901 -92.970176 
L 411.38933 -92.970095 
L 409.856277 -92.970011 
L 408.785316 -92.969979 
L 407.373507 -92.969949 
L 406.331608 -92.969937 
L 404.834452 -92.969924 
L 403.785028 -92.96992 
L 402.397827 -92.969916 
L 401.374572 -92.969914 
L 399.882193 -92.969912 
L 398.853847 -92.969912 
L 397.486934 -92.969912 
L 396.49937 -92.969911 
L 394.938943 -92.969911 
L 393.938162 -92.969911 
L 392.520521 -92.969911 
L 391.554406 -92.969911 
L 390.138404 -92.969911 
L 389.217139 -92.969911 
L 387.81998 -92.969911 
L 386.959588 -92.969911 
L 385.554747 -92.969911 
L 384.763905 -92.969911 
L 383.464552 -92.969911 
L 382.779468 -92.969911 
L 381.292816 -92.969911 
L 380.68704 -92.969911 
L 379.598861 -92.969911 
L 379.14182 -92.969911 
L 378.468452 -92.969911 
L 378.20295 -92.969911 
L 377.863675 -92.969911 
L 377.769282 -92.969911 
L 377.655691 -92.969911 
L 377.624296 -92.969911 
L 377.621157 -92.969911 
L 377.620843 -92.969911 
z
" style="stroke: #ff0000; stroke-opacity: 0.2"/>
    </defs>
    <g clip-path="url(#p5dada50437)">
     <use xlink:href="#m3dacd99740" x="0" y="360" style="fill: #ff0000; fill-opacity: 0.2; stroke: #ff0000; stroke-opacity: 0.2"/>
    </g>
   </g>
   <g id="PathCollection_3">
    <g clip-path="url(#p5dada50437)">
     <use xlink:href="#mc7e4fc5058" x="377.620843" y="267.030089" style="fill: #ff0000; fill-opacity: 0.8; stroke: #ff0000; stroke-opacity: 0.8"/>
     <use xlink:href="#mc7e4fc5058" x="406.556541" y="219.704604" style="fill: #ff0000; fill-opacity: 0.8; stroke: #ff0000; stroke-opacity: 0.8"/>
     <use xlink:href="#mc7e4fc5058" x="435.492239" y="217.016004" style="fill: #ff0000; fill-opacity: 0.8; stroke: #ff0000; stroke-opacity: 0.8"/>
     <use xlink:href="#mc7e4fc5058" x="464.427938" y="167.729387" style="fill: #ff0000; fill-opacity: 0.8; stroke: #ff0000; stroke-opacity: 0.8"/>
     <use xlink:href="#mc7e4fc5058" x="493.363636" y="125.597094" style="fill: #ff0000; fill-opacity: 0.8; stroke: #ff0000; stroke-opacity: 0.8"/>
     <use xlink:href="#mc7e4fc5058" x="522.299335" y="111.32656" style="fill: #ff0000; fill-opacity: 0.8; stroke: #ff0000; stroke-opacity: 0.8"/>
     <use xlink:href="#mc7e4fc5058" x="551.235033" y="75.333927" style="fill: #ff0000; fill-opacity: 0.8; stroke: #ff0000; stroke-opacity: 0.8"/>
     <use xlink:href="#mc7e4fc5058" x="580.170732" y="81.20031" style="fill: #ff0000; fill-opacity: 0.8; stroke: #ff0000; stroke-opacity: 0.8"/>
    </g>
   </g>
   <g id="PathCollection_4">
    <g clip-path="url(#p5dada50437)">
     <use xlink:href="#m0b8b13fb90" x="377.620843" y="190.587394" style="fill: #8b4513; fill-opacity: 0.8; stroke: #8b4513; stroke-opacity: 0.8"/>
     <use xlink:href="#m0b8b13fb90" x="406.556541" y="190.851464" style="fill: #8b4513; fill-opacity: 0.8; stroke: #8b4513; stroke-opacity: 0.8"/>
     <use xlink:href="#m0b8b13fb90" x="435.492239" y="218.496356" style="fill: #8b4513; fill-opacity: 0.8; stroke: #8b4513; stroke-opacity: 0.8"/>
     <use xlink:href="#m0b8b13fb90" x="464.427938" y="129.349239" style="fill: #8b4513; fill-opacity: 0.8; stroke: #8b4513; stroke-opacity: 0.8"/>
     <use xlink:href="#m0b8b13fb90" x="493.363636" y="84.513944" style="fill: #8b4513; fill-opacity: 0.8; stroke: #8b4513; stroke-opacity: 0.8"/>
     <use xlink:href="#m0b8b13fb90" x="522.299335" y="97.523377" style="fill: #8b4513; fill-opacity: 0.8; stroke: #8b4513; stroke-opacity: 0.8"/>
     <use xlink:href="#m0b8b13fb90" x="551.235033" y="105.995124" style="fill: #8b4513; fill-opacity: 0.8; stroke: #8b4513; stroke-opacity: 0.8"/>
     <use xlink:href="#m0b8b13fb90" x="580.170732" y="115.362765" style="fill: #8b4513; fill-opacity: 0.8; stroke: #8b4513; stroke-opacity: 0.8"/>
    </g>
   </g>
   <g id="line2d_3">
    <path d="M 377.620843 190.587394 
L 429.034887 190.481032 
L 433.30679 190.205458 
L 436.076047 189.743637 
L 438.197202 189.084579 
L 440.016406 188.183756 
L 441.46021 187.165377 
L 442.75219 185.968471 
L 443.895835 184.646111 
L 444.387455 183.99446 
L 446.57003 180.440474 
L 449.277507 174.494237 
L 452.753053 164.69219 
L 457.388439 149.569638 
L 462.527022 132.983883 
L 465.420591 124.551451 
L 468.314161 117.002476 
L 471.207731 110.391272 
L 474.101301 104.711212 
L 476.994871 99.920786 
L 479.888441 95.959917 
L 482.78201 92.759802 
L 485.67558 90.248737 
L 488.56915 88.355534 
L 491.46272 87.011493 
L 494.35629 86.151546 
L 497.24986 85.714893 
L 500.14343 85.645346 
L 503.036999 85.891488 
L 505.930569 86.406707 
L 508.824139 87.149151 
L 511.717709 88.081599 
L 514.611279 89.171287 
L 519.633194 91.353894 
L 525.018073 93.989366 
L 532.197912 97.793614 
L 543.67455 104.189977 
L 568.560636 118.12185 
L 583.028485 125.919192 
L 594.602765 131.923447 
L 606.177044 137.686741 
L 609.10643 139.103715 
L 609.10643 139.103715 
" clip-path="url(#p5dada50437)" style="fill: none; stroke: #8b4513; stroke-width: 1.5; stroke-linecap: round"/>
   </g>
   <g id="line2d_4">
    <path d="M 377.620843 267.030089 
L 431.989302 266.921784 
L 434.780745 266.756881 
L 436.67054 266.533269 
L 439.405007 265.903406 
L 441.642971 264.925017 
L 442.811794 264.17377 
L 445.294247 261.784527 
L 446.670832 259.9013 
L 449.564402 254.281383 
L 451.15754 250.199496 
L 454.05111 240.996924 
L 455.962613 233.916189 
L 461.200892 212.1819 
L 466.988032 187.820489 
L 469.881602 176.414029 
L 472.775172 165.736552 
L 475.668742 155.840227 
L 478.562312 146.731866 
L 481.455881 138.392847 
L 484.349451 130.791081 
L 487.243021 123.888025 
L 490.136591 117.642705 
L 493.030161 112.013996 
L 495.923731 106.961862 
L 498.8173 102.448 
L 501.71087 98.436133 
L 504.60444 94.892103 
L 507.49801 91.783849 
L 510.39158 89.081325 
L 513.28515 86.756388 
L 516.178719 84.782675 
L 519.072289 83.135473 
L 521.965859 81.791602 
L 524.859429 80.729302 
L 527.752999 79.928125 
L 530.646569 79.368849 
L 533.540139 79.033387 
L 536.433708 78.904718 
L 539.327278 78.966817 
L 542.220848 79.204605 
L 545.114418 79.603889 
L 548.007988 80.151326 
L 550.901558 80.834379 
L 556.688697 82.561016 
L 562.475837 84.698408 
L 568.262977 87.172152 
L 574.050116 89.918023 
L 579.837256 92.881204 
L 588.517966 97.634502 
L 598.243483 103.267493 
L 609.10643 109.796498 
L 609.10643 109.796498 
" clip-path="url(#p5dada50437)" style="fill: none; stroke: #ff0000; stroke-width: 1.5; stroke-linecap: round"/>
   </g>
  </g>
  <g id="legend_1">
   <g id="patch_12">
    <path d="M 769.44 69.678 
L 862.911 69.678 
Q 866.751 69.678 866.751 65.838 
L 866.751 13.44 
Q 866.751 9.6 862.911 9.6 
L 769.44 9.6 
Q 765.6 9.6 765.6 13.44 
L 765.6 65.838 
Q 765.6 69.678 769.44 69.678 
z
" style="fill: #ffffff; opacity: 0.8; stroke: #cccccc; stroke-linejoin: miter"/>
   </g>
   <g id="PathCollection_5">
    <g>
     <use xlink:href="#mc7e4fc5058" x="792.48" y="25.983" style="fill: #ff0000; fill-opacity: 0.8; stroke: #ff0000; stroke-opacity: 0.8"/>
    </g>
   </g>
   <g id="text_39">
    <!-- 111 -->
    <g style="fill: #262626" transform="translate(827.04 31.023) scale(0.192 -0.192)">
     <use xlink:href="#ArialMT-31"/>
     <use xlink:href="#ArialMT-31" x="48.240234"/>
     <use xlink:href="#ArialMT-31" x="96.480469"/>
    </g>
   </g>
   <g id="PathCollection_6">
    <g>
     <use xlink:href="#m0b8b13fb90" x="792.48" y="53.142" style="fill: #8b4513; fill-opacity: 0.8; stroke: #8b4513; stroke-opacity: 0.8"/>
    </g>
   </g>
   <g id="text_40">
    <!-- 207 -->
    <g style="fill: #262626" transform="translate(827.04 58.182) scale(0.192 -0.192)">
     <use xlink:href="#ArialMT-32"/>
     <use xlink:href="#ArialMT-30" x="55.615234"/>
     <use xlink:href="#ArialMT-37" x="111.230469"/>
    </g>
   </g>
  </g>
 </g>
 <defs>
  <clipPath id="p88bffa7b50">
   <rect x="90" y="43.2" width="237.272727" height="277.2"/>
  </clipPath>
  <clipPath id="p5dada50437">
   <rect x="374.727273" y="43.2" width="237.272727" height="277.2"/>
  </clipPath>
 </defs>
</svg>
