<?xml version="1.0" encoding="utf-8" standalone="no"?>
<!DOCTYPE svg PUBLIC "-//W3C//DTD SVG 1.1//EN"
  "http://www.w3.org/Graphics/SVG/1.1/DTD/svg11.dtd">
<svg xmlns:xlink="http://www.w3.org/1999/xlink" width="720pt" height="360pt" viewBox="0 0 720 360" xmlns="http://www.w3.org/2000/svg" version="1.1">
 <metadata>
  <rdf:RDF xmlns:dc="http://purl.org/dc/elements/1.1/" xmlns:cc="http://creativecommons.org/ns#" xmlns:rdf="http://www.w3.org/1999/02/22-rdf-syntax-ns#">
   <cc:Work>
    <dc:type rdf:resource="http://purl.org/dc/dcmitype/StillImage"/>
    <dc:date>2024-12-11T10:40:13.971867</dc:date>
    <dc:format>image/svg+xml</dc:format>
    <dc:creator>
     <cc:Agent>
      <dc:title>Matplotlib v3.9.2, https://matplotlib.org/</dc:title>
     </cc:Agent>
    </dc:creator>
   </cc:Work>
  </rdf:RDF>
 </metadata>
 <defs>
  <style type="text/css">*{stroke-linejoin: round; stroke-linecap: butt}</style>
 </defs>
 <g id="figure_1">
  <g id="patch_1">
   <path d="M 0 360 
L 720 360 
L 720 0 
L 0 0 
z
" style="fill: #ffffff"/>
  </g>
  <g id="axes_1">
   <g id="patch_2">
    <path d="M 90 320.4 
L 327.272727 320.4 
L 327.272727 43.2 
L 90 43.2 
z
" style="fill: #ffffff"/>
   </g>
   <g id="matplotlib.axis_1">
    <g id="xtick_1">
     <g id="line2d_1">
      <defs>
       <path id="m40869b1320" d="M 0 0 
L 0 3.5 
" style="stroke: #000000; stroke-width: 0.8"/>
      </defs>
      <g>
       <use xlink:href="#m40869b1320" x="92.89357" y="320.4" style="stroke: #000000; stroke-width: 0.8"/>
      </g>
     </g>
     <g id="text_1">
      <!-- 0 -->
      <g transform="translate(88.31257 338.34175) scale(0.144 -0.144)">
       <defs>
        <path id="DejaVuSans-30" d="M 2034 4250 
Q 1547 4250 1301 3770 
Q 1056 3291 1056 2328 
Q 1056 1369 1301 889 
Q 1547 409 2034 409 
Q 2525 409 2770 889 
Q 3016 1369 3016 2328 
Q 3016 3291 2770 3770 
Q 2525 4250 2034 4250 
z
M 2034 4750 
Q 2819 4750 3233 4129 
Q 3647 3509 3647 2328 
Q 3647 1150 3233 529 
Q 2819 -91 2034 -91 
Q 1250 -91 836 529 
Q 422 1150 422 2328 
Q 422 3509 836 4129 
Q 1250 4750 2034 4750 
z
" transform="scale(0.015625)"/>
       </defs>
       <use xlink:href="#DejaVuSans-30"/>
      </g>
     </g>
    </g>
    <g id="xtick_2">
     <g id="line2d_2">
      <g>
       <use xlink:href="#m40869b1320" x="121.829268" y="320.4" style="stroke: #000000; stroke-width: 0.8"/>
      </g>
     </g>
     <g id="text_2">
      <!-- 1 -->
      <g transform="translate(117.248268 338.34175) scale(0.144 -0.144)">
       <defs>
        <path id="DejaVuSans-31" d="M 794 531 
L 1825 531 
L 1825 4091 
L 703 3866 
L 703 4441 
L 1819 4666 
L 2450 4666 
L 2450 531 
L 3481 531 
L 3481 0 
L 794 0 
L 794 531 
z
" transform="scale(0.015625)"/>
       </defs>
       <use xlink:href="#DejaVuSans-31"/>
      </g>
     </g>
    </g>
    <g id="xtick_3">
     <g id="line2d_3">
      <g>
       <use xlink:href="#m40869b1320" x="150.764967" y="320.4" style="stroke: #000000; stroke-width: 0.8"/>
      </g>
     </g>
     <g id="text_3">
      <!-- 2 -->
      <g transform="translate(146.183967 338.34175) scale(0.144 -0.144)">
       <defs>
        <path id="DejaVuSans-32" d="M 1228 531 
L 3431 531 
L 3431 0 
L 469 0 
L 469 531 
Q 828 903 1448 1529 
Q 2069 2156 2228 2338 
Q 2531 2678 2651 2914 
Q 2772 3150 2772 3378 
Q 2772 3750 2511 3984 
Q 2250 4219 1831 4219 
Q 1534 4219 1204 4116 
Q 875 4013 500 3803 
L 500 4441 
Q 881 4594 1212 4672 
Q 1544 4750 1819 4750 
Q 2544 4750 2975 4387 
Q 3406 4025 3406 3419 
Q 3406 3131 3298 2873 
Q 3191 2616 2906 2266 
Q 2828 2175 2409 1742 
Q 1991 1309 1228 531 
z
" transform="scale(0.015625)"/>
       </defs>
       <use xlink:href="#DejaVuSans-32"/>
      </g>
     </g>
    </g>
    <g id="xtick_4">
     <g id="line2d_4">
      <g>
       <use xlink:href="#m40869b1320" x="179.700665" y="320.4" style="stroke: #000000; stroke-width: 0.8"/>
      </g>
     </g>
     <g id="text_4">
      <!-- 3 -->
      <g transform="translate(175.119665 338.34175) scale(0.144 -0.144)">
       <defs>
        <path id="DejaVuSans-33" d="M 2597 2516 
Q 3050 2419 3304 2112 
Q 3559 1806 3559 1356 
Q 3559 666 3084 287 
Q 2609 -91 1734 -91 
Q 1441 -91 1130 -33 
Q 819 25 488 141 
L 488 750 
Q 750 597 1062 519 
Q 1375 441 1716 441 
Q 2309 441 2620 675 
Q 2931 909 2931 1356 
Q 2931 1769 2642 2001 
Q 2353 2234 1838 2234 
L 1294 2234 
L 1294 2753 
L 1863 2753 
Q 2328 2753 2575 2939 
Q 2822 3125 2822 3475 
Q 2822 3834 2567 4026 
Q 2313 4219 1838 4219 
Q 1578 4219 1281 4162 
Q 984 4106 628 3988 
L 628 4550 
Q 988 4650 1302 4700 
Q 1616 4750 1894 4750 
Q 2613 4750 3031 4423 
Q 3450 4097 3450 3541 
Q 3450 3153 3228 2886 
Q 3006 2619 2597 2516 
z
" transform="scale(0.015625)"/>
       </defs>
       <use xlink:href="#DejaVuSans-33"/>
      </g>
     </g>
    </g>
    <g id="xtick_5">
     <g id="line2d_5">
      <g>
       <use xlink:href="#m40869b1320" x="208.636364" y="320.4" style="stroke: #000000; stroke-width: 0.8"/>
      </g>
     </g>
     <g id="text_5">
      <!-- 4 -->
      <g transform="translate(204.055364 338.34175) scale(0.144 -0.144)">
       <defs>
        <path id="DejaVuSans-34" d="M 2419 4116 
L 825 1625 
L 2419 1625 
L 2419 4116 
z
M 2253 4666 
L 3047 4666 
L 3047 1625 
L 3713 1625 
L 3713 1100 
L 3047 1100 
L 3047 0 
L 2419 0 
L 2419 1100 
L 313 1100 
L 313 1709 
L 2253 4666 
z
" transform="scale(0.015625)"/>
       </defs>
       <use xlink:href="#DejaVuSans-34"/>
      </g>
     </g>
    </g>
    <g id="xtick_6">
     <g id="line2d_6">
      <g>
       <use xlink:href="#m40869b1320" x="237.572062" y="320.4" style="stroke: #000000; stroke-width: 0.8"/>
      </g>
     </g>
     <g id="text_6">
      <!-- 5 -->
      <g transform="translate(232.991062 338.34175) scale(0.144 -0.144)">
       <defs>
        <path id="DejaVuSans-35" d="M 691 4666 
L 3169 4666 
L 3169 4134 
L 1269 4134 
L 1269 2991 
Q 1406 3038 1543 3061 
Q 1681 3084 1819 3084 
Q 2600 3084 3056 2656 
Q 3513 2228 3513 1497 
Q 3513 744 3044 326 
Q 2575 -91 1722 -91 
Q 1428 -91 1123 -41 
Q 819 9 494 109 
L 494 744 
Q 775 591 1075 516 
Q 1375 441 1709 441 
Q 2250 441 2565 725 
Q 2881 1009 2881 1497 
Q 2881 1984 2565 2268 
Q 2250 2553 1709 2553 
Q 1456 2553 1204 2497 
Q 953 2441 691 2322 
L 691 4666 
z
" transform="scale(0.015625)"/>
       </defs>
       <use xlink:href="#DejaVuSans-35"/>
      </g>
     </g>
    </g>
    <g id="xtick_7">
     <g id="line2d_7">
      <g>
       <use xlink:href="#m40869b1320" x="266.507761" y="320.4" style="stroke: #000000; stroke-width: 0.8"/>
      </g>
     </g>
     <g id="text_7">
      <!-- 6 -->
      <g transform="translate(261.926761 338.34175) scale(0.144 -0.144)">
       <defs>
        <path id="DejaVuSans-36" d="M 2113 2584 
Q 1688 2584 1439 2293 
Q 1191 2003 1191 1497 
Q 1191 994 1439 701 
Q 1688 409 2113 409 
Q 2538 409 2786 701 
Q 3034 994 3034 1497 
Q 3034 2003 2786 2293 
Q 2538 2584 2113 2584 
z
M 3366 4563 
L 3366 3988 
Q 3128 4100 2886 4159 
Q 2644 4219 2406 4219 
Q 1781 4219 1451 3797 
Q 1122 3375 1075 2522 
Q 1259 2794 1537 2939 
Q 1816 3084 2150 3084 
Q 2853 3084 3261 2657 
Q 3669 2231 3669 1497 
Q 3669 778 3244 343 
Q 2819 -91 2113 -91 
Q 1303 -91 875 529 
Q 447 1150 447 2328 
Q 447 3434 972 4092 
Q 1497 4750 2381 4750 
Q 2619 4750 2861 4703 
Q 3103 4656 3366 4563 
z
" transform="scale(0.015625)"/>
       </defs>
       <use xlink:href="#DejaVuSans-36"/>
      </g>
     </g>
    </g>
    <g id="xtick_8">
     <g id="line2d_8">
      <g>
       <use xlink:href="#m40869b1320" x="295.443459" y="320.4" style="stroke: #000000; stroke-width: 0.8"/>
      </g>
     </g>
     <g id="text_8">
      <!-- 7 -->
      <g transform="translate(290.862459 338.34175) scale(0.144 -0.144)">
       <defs>
        <path id="DejaVuSans-37" d="M 525 4666 
L 3525 4666 
L 3525 4397 
L 1831 0 
L 1172 0 
L 2766 4134 
L 525 4134 
L 525 4666 
z
" transform="scale(0.015625)"/>
       </defs>
       <use xlink:href="#DejaVuSans-37"/>
      </g>
     </g>
    </g>
    <g id="xtick_9">
     <g id="line2d_9">
      <g>
       <use xlink:href="#m40869b1320" x="324.379157" y="320.4" style="stroke: #000000; stroke-width: 0.8"/>
      </g>
     </g>
     <g id="text_9">
      <!-- 8 -->
      <g transform="translate(319.798157 338.34175) scale(0.144 -0.144)">
       <defs>
        <path id="DejaVuSans-38" d="M 2034 2216 
Q 1584 2216 1326 1975 
Q 1069 1734 1069 1313 
Q 1069 891 1326 650 
Q 1584 409 2034 409 
Q 2484 409 2743 651 
Q 3003 894 3003 1313 
Q 3003 1734 2745 1975 
Q 2488 2216 2034 2216 
z
M 1403 2484 
Q 997 2584 770 2862 
Q 544 3141 544 3541 
Q 544 4100 942 4425 
Q 1341 4750 2034 4750 
Q 2731 4750 3128 4425 
Q 3525 4100 3525 3541 
Q 3525 3141 3298 2862 
Q 3072 2584 2669 2484 
Q 3125 2378 3379 2068 
Q 3634 1759 3634 1313 
Q 3634 634 3220 271 
Q 2806 -91 2034 -91 
Q 1263 -91 848 271 
Q 434 634 434 1313 
Q 434 1759 690 2068 
Q 947 2378 1403 2484 
z
M 1172 3481 
Q 1172 3119 1398 2916 
Q 1625 2713 2034 2713 
Q 2441 2713 2670 2916 
Q 2900 3119 2900 3481 
Q 2900 3844 2670 4047 
Q 2441 4250 2034 4250 
Q 1625 4250 1398 4047 
Q 1172 3844 1172 3481 
z
" transform="scale(0.015625)"/>
       </defs>
       <use xlink:href="#DejaVuSans-38"/>
      </g>
     </g>
    </g>
    <g id="text_10">
     <!-- Time (d) -->
     <g transform="translate(168.511364 359.9255) scale(0.192 -0.192)">
      <defs>
       <path id="DejaVuSans-54" d="M -19 4666 
L 3928 4666 
L 3928 4134 
L 2272 4134 
L 2272 0 
L 1638 0 
L 1638 4134 
L -19 4134 
L -19 4666 
z
" transform="scale(0.015625)"/>
       <path id="DejaVuSans-69" d="M 603 3500 
L 1178 3500 
L 1178 0 
L 603 0 
L 603 3500 
z
M 603 4863 
L 1178 4863 
L 1178 4134 
L 603 4134 
L 603 4863 
z
" transform="scale(0.015625)"/>
       <path id="DejaVuSans-6d" d="M 3328 2828 
Q 3544 3216 3844 3400 
Q 4144 3584 4550 3584 
Q 5097 3584 5394 3201 
Q 5691 2819 5691 2113 
L 5691 0 
L 5113 0 
L 5113 2094 
Q 5113 2597 4934 2840 
Q 4756 3084 4391 3084 
Q 3944 3084 3684 2787 
Q 3425 2491 3425 1978 
L 3425 0 
L 2847 0 
L 2847 2094 
Q 2847 2600 2669 2842 
Q 2491 3084 2119 3084 
Q 1678 3084 1418 2786 
Q 1159 2488 1159 1978 
L 1159 0 
L 581 0 
L 581 3500 
L 1159 3500 
L 1159 2956 
Q 1356 3278 1631 3431 
Q 1906 3584 2284 3584 
Q 2666 3584 2933 3390 
Q 3200 3197 3328 2828 
z
" transform="scale(0.015625)"/>
       <path id="DejaVuSans-65" d="M 3597 1894 
L 3597 1613 
L 953 1613 
Q 991 1019 1311 708 
Q 1631 397 2203 397 
Q 2534 397 2845 478 
Q 3156 559 3463 722 
L 3463 178 
Q 3153 47 2828 -22 
Q 2503 -91 2169 -91 
Q 1331 -91 842 396 
Q 353 884 353 1716 
Q 353 2575 817 3079 
Q 1281 3584 2069 3584 
Q 2775 3584 3186 3129 
Q 3597 2675 3597 1894 
z
M 3022 2063 
Q 3016 2534 2758 2815 
Q 2500 3097 2075 3097 
Q 1594 3097 1305 2825 
Q 1016 2553 972 2059 
L 3022 2063 
z
" transform="scale(0.015625)"/>
       <path id="DejaVuSans-20" transform="scale(0.015625)"/>
       <path id="DejaVuSans-28" d="M 1984 4856 
Q 1566 4138 1362 3434 
Q 1159 2731 1159 2009 
Q 1159 1288 1364 580 
Q 1569 -128 1984 -844 
L 1484 -844 
Q 1016 -109 783 600 
Q 550 1309 550 2009 
Q 550 2706 781 3412 
Q 1013 4119 1484 4856 
L 1984 4856 
z
" transform="scale(0.015625)"/>
       <path id="DejaVuSans-64" d="M 2906 2969 
L 2906 4863 
L 3481 4863 
L 3481 0 
L 2906 0 
L 2906 525 
Q 2725 213 2448 61 
Q 2172 -91 1784 -91 
Q 1150 -91 751 415 
Q 353 922 353 1747 
Q 353 2572 751 3078 
Q 1150 3584 1784 3584 
Q 2172 3584 2448 3432 
Q 2725 3281 2906 2969 
z
M 947 1747 
Q 947 1113 1208 752 
Q 1469 391 1925 391 
Q 2381 391 2643 752 
Q 2906 1113 2906 1747 
Q 2906 2381 2643 2742 
Q 2381 3103 1925 3103 
Q 1469 3103 1208 2742 
Q 947 2381 947 1747 
z
" transform="scale(0.015625)"/>
       <path id="DejaVuSans-29" d="M 513 4856 
L 1013 4856 
Q 1481 4119 1714 3412 
Q 1947 2706 1947 2009 
Q 1947 1309 1714 600 
Q 1481 -109 1013 -844 
L 513 -844 
Q 928 -128 1133 580 
Q 1338 1288 1338 2009 
Q 1338 2731 1133 3434 
Q 928 4138 513 4856 
z
" transform="scale(0.015625)"/>
      </defs>
      <use xlink:href="#DejaVuSans-54"/>
      <use xlink:href="#DejaVuSans-69" x="57.958984"/>
      <use xlink:href="#DejaVuSans-6d" x="85.742188"/>
      <use xlink:href="#DejaVuSans-65" x="183.154297"/>
      <use xlink:href="#DejaVuSans-20" x="244.677734"/>
      <use xlink:href="#DejaVuSans-28" x="276.464844"/>
      <use xlink:href="#DejaVuSans-64" x="315.478516"/>
      <use xlink:href="#DejaVuSans-29" x="378.955078"/>
     </g>
    </g>
   </g>
   <g id="matplotlib.axis_2">
    <g id="ytick_1">
     <g id="line2d_10">
      <defs>
       <path id="m15b84855d1" d="M 0 0 
L -3.5 0 
" style="stroke: #000000; stroke-width: 0.8"/>
      </defs>
      <g>
       <use xlink:href="#m15b84855d1" x="90" y="320.4" style="stroke: #000000; stroke-width: 0.8"/>
      </g>
     </g>
     <g id="text_11">
      <!-- 0 -->
      <g transform="translate(73.838 325.870875) scale(0.144 -0.144)">
       <use xlink:href="#DejaVuSans-30"/>
      </g>
     </g>
    </g>
    <g id="ytick_2">
     <g id="line2d_11">
      <g>
       <use xlink:href="#m15b84855d1" x="90" y="286.8" style="stroke: #000000; stroke-width: 0.8"/>
      </g>
     </g>
     <g id="text_12">
      <!-- 1 -->
      <g transform="translate(73.838 292.270875) scale(0.144 -0.144)">
       <use xlink:href="#DejaVuSans-31"/>
      </g>
     </g>
    </g>
    <g id="ytick_3">
     <g id="line2d_12">
      <g>
       <use xlink:href="#m15b84855d1" x="90" y="253.2" style="stroke: #000000; stroke-width: 0.8"/>
      </g>
     </g>
     <g id="text_13">
      <!-- 2 -->
      <g transform="translate(73.838 258.670875) scale(0.144 -0.144)">
       <use xlink:href="#DejaVuSans-32"/>
      </g>
     </g>
    </g>
    <g id="ytick_4">
     <g id="line2d_13">
      <g>
       <use xlink:href="#m15b84855d1" x="90" y="219.6" style="stroke: #000000; stroke-width: 0.8"/>
      </g>
     </g>
     <g id="text_14">
      <!-- 3 -->
      <g transform="translate(73.838 225.070875) scale(0.144 -0.144)">
       <use xlink:href="#DejaVuSans-33"/>
      </g>
     </g>
    </g>
    <g id="ytick_5">
     <g id="line2d_14">
      <g>
       <use xlink:href="#m15b84855d1" x="90" y="186" style="stroke: #000000; stroke-width: 0.8"/>
      </g>
     </g>
     <g id="text_15">
      <!-- 4 -->
      <g transform="translate(73.838 191.470875) scale(0.144 -0.144)">
       <use xlink:href="#DejaVuSans-34"/>
      </g>
     </g>
    </g>
    <g id="ytick_6">
     <g id="line2d_15">
      <g>
       <use xlink:href="#m15b84855d1" x="90" y="152.4" style="stroke: #000000; stroke-width: 0.8"/>
      </g>
     </g>
     <g id="text_16">
      <!-- 5 -->
      <g transform="translate(73.838 157.870875) scale(0.144 -0.144)">
       <use xlink:href="#DejaVuSans-35"/>
      </g>
     </g>
    </g>
    <g id="ytick_7">
     <g id="line2d_16">
      <g>
       <use xlink:href="#m15b84855d1" x="90" y="118.8" style="stroke: #000000; stroke-width: 0.8"/>
      </g>
     </g>
     <g id="text_17">
      <!-- 6 -->
      <g transform="translate(73.838 124.270875) scale(0.144 -0.144)">
       <use xlink:href="#DejaVuSans-36"/>
      </g>
     </g>
    </g>
    <g id="ytick_8">
     <g id="line2d_17">
      <g>
       <use xlink:href="#m15b84855d1" x="90" y="85.2" style="stroke: #000000; stroke-width: 0.8"/>
      </g>
     </g>
     <g id="text_18">
      <!-- 7 -->
      <g transform="translate(73.838 90.670875) scale(0.144 -0.144)">
       <use xlink:href="#DejaVuSans-37"/>
      </g>
     </g>
    </g>
    <g id="ytick_9">
     <g id="line2d_18">
      <g>
       <use xlink:href="#m15b84855d1" x="90" y="51.6" style="stroke: #000000; stroke-width: 0.8"/>
      </g>
     </g>
     <g id="text_19">
      <!-- 8 -->
      <g transform="translate(73.838 57.070875) scale(0.144 -0.144)">
       <use xlink:href="#DejaVuSans-38"/>
      </g>
     </g>
    </g>
    <g id="text_20">
     <!-- Log10(V) -->
     <g transform="translate(65.845 225.2235) rotate(-90) scale(0.192 -0.192)">
      <defs>
       <path id="DejaVuSans-4c" d="M 628 4666 
L 1259 4666 
L 1259 531 
L 3531 531 
L 3531 0 
L 628 0 
L 628 4666 
z
" transform="scale(0.015625)"/>
       <path id="DejaVuSans-6f" d="M 1959 3097 
Q 1497 3097 1228 2736 
Q 959 2375 959 1747 
Q 959 1119 1226 758 
Q 1494 397 1959 397 
Q 2419 397 2687 759 
Q 2956 1122 2956 1747 
Q 2956 2369 2687 2733 
Q 2419 3097 1959 3097 
z
M 1959 3584 
Q 2709 3584 3137 3096 
Q 3566 2609 3566 1747 
Q 3566 888 3137 398 
Q 2709 -91 1959 -91 
Q 1206 -91 779 398 
Q 353 888 353 1747 
Q 353 2609 779 3096 
Q 1206 3584 1959 3584 
z
" transform="scale(0.015625)"/>
       <path id="DejaVuSans-67" d="M 2906 1791 
Q 2906 2416 2648 2759 
Q 2391 3103 1925 3103 
Q 1463 3103 1205 2759 
Q 947 2416 947 1791 
Q 947 1169 1205 825 
Q 1463 481 1925 481 
Q 2391 481 2648 825 
Q 2906 1169 2906 1791 
z
M 3481 434 
Q 3481 -459 3084 -895 
Q 2688 -1331 1869 -1331 
Q 1566 -1331 1297 -1286 
Q 1028 -1241 775 -1147 
L 775 -588 
Q 1028 -725 1275 -790 
Q 1522 -856 1778 -856 
Q 2344 -856 2625 -561 
Q 2906 -266 2906 331 
L 2906 616 
Q 2728 306 2450 153 
Q 2172 0 1784 0 
Q 1141 0 747 490 
Q 353 981 353 1791 
Q 353 2603 747 3093 
Q 1141 3584 1784 3584 
Q 2172 3584 2450 3431 
Q 2728 3278 2906 2969 
L 2906 3500 
L 3481 3500 
L 3481 434 
z
" transform="scale(0.015625)"/>
       <path id="DejaVuSans-56" d="M 1831 0 
L 50 4666 
L 709 4666 
L 2188 738 
L 3669 4666 
L 4325 4666 
L 2547 0 
L 1831 0 
z
" transform="scale(0.015625)"/>
      </defs>
      <use xlink:href="#DejaVuSans-4c"/>
      <use xlink:href="#DejaVuSans-6f" x="53.962891"/>
      <use xlink:href="#DejaVuSans-67" x="115.144531"/>
      <use xlink:href="#DejaVuSans-31" x="178.621094"/>
      <use xlink:href="#DejaVuSans-30" x="242.244141"/>
      <use xlink:href="#DejaVuSans-28" x="305.867188"/>
      <use xlink:href="#DejaVuSans-56" x="344.880859"/>
      <use xlink:href="#DejaVuSans-29" x="413.289062"/>
     </g>
    </g>
   </g>
   <g id="patch_3">
    <path d="M 90 320.4 
L 90 43.2 
" style="fill: none; stroke: #000000; stroke-width: 0.8; stroke-linejoin: miter; stroke-linecap: square"/>
   </g>
   <g id="patch_4">
    <path d="M 327.272727 320.4 
L 327.272727 43.2 
" style="fill: none; stroke: #000000; stroke-width: 0.8; stroke-linejoin: miter; stroke-linecap: square"/>
   </g>
   <g id="patch_5">
    <path d="M 90 320.4 
L 327.272727 320.4 
" style="fill: none; stroke: #000000; stroke-width: 0.8; stroke-linejoin: miter; stroke-linecap: square"/>
   </g>
   <g id="patch_6">
    <path d="M 90 43.2 
L 327.272727 43.2 
" style="fill: none; stroke: #000000; stroke-width: 0.8; stroke-linejoin: miter; stroke-linecap: square"/>
   </g>
   <g id="PolyCollection_1">
    <defs>
     <path id="mde65b69afd" d="M 92.89357 -39.6 
L 92.89357 -39.6 
L 92.893989 -39.6 
L 92.898185 -39.6 
L 92.940143 -39.6 
L 93.171224 -39.6 
L 93.310328 -39.6 
L 93.852865 -39.6 
L 94.151079 -39.6 
L 95.232915 -52.722547 
L 95.778139 -57.468298 
L 97.520564 -68.634626 
L 98.188148 -72.040863 
L 99.645071 -79.068768 
L 100.449255 -82.815458 
L 102.034291 -90.160763 
L 102.927167 -94.232037 
L 104.480135 -101.36196 
L 105.452177 -105.804581 
L 107.020639 -112.971163 
L 108.050472 -117.623094 
L 109.611121 -124.704627 
L 110.685422 -129.560016 
L 112.241616 -136.61965 
L 113.347424 -141.61913 
L 115.048215 -149.345478 
L 116.133285 -154.252895 
L 117.6204 -160.989334 
L 118.746057 -166.077178 
L 120.363715 -173.408788 
L 121.484362 -178.472152 
L 122.999138 -185.317525 
L 124.146782 -190.490057 
L 125.778415 -197.841414 
L 126.917399 -202.949557 
L 128.455562 -209.809592 
L 129.624926 -214.98544 
L 131.292171 -222.267684 
L 132.470992 -227.330878 
L 134.27985 -234.824582 
L 135.456199 -239.521258 
L 137.082207 -245.533831 
L 138.30842 -249.74168 
L 140.08878 -254.990484 
L 141.361288 -258.25623 
L 142.92412 -261.419793 
L 144.116718 -263.379202 
L 145.459066 -264.882409 
L 146.561507 -265.83651 
L 147.676931 -266.418293 
L 148.673574 -266.764958 
L 149.675103 -266.994382 
L 150.437476 -267.102573 
L 151.15718 -267.157184 
L 151.760155 -267.172505 
L 152.316808 -267.162948 
L 152.806267 -267.13979 
L 153.295726 -267.10152 
L 153.702585 -267.059568 
L 154.084458 -267.012855 
L 154.466331 -266.958242 
L 154.779074 -266.908557 
L 155.133607 -266.84231 
L 156.382637 -266.590414 
L 156.860746 -266.473826 
L 158.406003 -266.063572 
L 159.075324 -265.858168 
L 161.651408 -264.997645 
L 162.817461 -264.555789 
L 165.711031 -263.384411 
L 167.280493 -262.639284 
L 170.174063 -261.228919 
L 172.210606 -260.19418 
L 175.104176 -258.686559 
L 177.997746 -257.134858 
L 180.891316 -255.542451 
L 183.784886 -253.91006 
L 186.678456 -252.173099 
L 189.572025 -250.370036 
L 192.465595 -248.516875 
L 195.359165 -246.611417 
L 198.252735 -244.651004 
L 201.146305 -242.632401 
L 204.039875 -240.551577 
L 206.933444 -238.403411 
L 209.827014 -236.181313 
L 212.720584 -233.876729 
L 215.614154 -231.478485 
L 218.507724 -228.971859 
L 221.401294 -226.337236 
L 224.294863 -223.548036 
L 227.188433 -220.56737 
L 230.082003 -217.342356 
L 232.975573 -213.607617 
L 235.869143 -208.88768 
L 238.762713 -203.007086 
L 241.656283 -194.713842 
L 244.549852 -181.55203 
L 245.128566 -177.529662 
L 245.70728 -173.47981 
L 246.004937 -171.395542 
L 246.96299 -164.692002 
L 247.043424 -164.122322 
L 247.053106 -164.053745 
L 247.101518 -163.710864 
L 247.102807 -163.701735 
L 247.115696 -163.610444 
L 247.140164 -163.437152 
L 247.15014 -163.366494 
L 247.156109 -163.324218 
L 247.167511 -163.243465 
L 247.175283 -163.188417 
L 247.193375 -163.06028 
L 247.221109 -162.863852 
L 247.283251 -162.423725 
L 247.421192 -161.446749 
L 247.769595 -158.979155 
L 248.669238 -152.641703 
L 249.310668 -148.125937 
L 250.723367 -138.007192 
L 251.60795 -131.761126 
L 253.381891 -118.443371 
L 254.452437 -110.27681 
L 256.423138 -95.236618 
L 257.629774 -86.015277 
L 259.682202 -70.323709 
L 260.988351 -60.329817 
L 263.058415 -44.486533 
L 264.439948 -40.207504 
L 266.502301 -39.6 
L 267.949815 -39.6 
L 270.025417 -39.6 
L 271.570711 -39.6 
L 273.815836 -39.6 
L 275.636632 -39.6 
L 278.523779 -39.6 
L 280.855884 -39.6 
L 283.749453 -39.6 
L 286.643023 -39.6 
L 289.536593 -39.6 
L 292.430163 -39.6 
L 295.323733 -39.6 
L 298.217303 -39.6 
L 301.110873 -39.6 
L 304.004442 -39.6 
L 306.898012 -39.6 
L 309.791582 -39.6 
L 312.685152 -39.6 
L 315.578722 -39.6 
L 318.472292 -39.6 
L 321.365861 -39.6 
L 324.259431 -39.6 
L 324.379157 -39.6 
L 324.379157 -39.6 
L 324.379157 -39.6 
L 324.259431 -39.6 
L 321.365861 -39.6 
L 318.472292 -39.6 
L 315.578722 -39.6 
L 312.685152 -39.6 
L 309.791582 -39.6 
L 306.898012 -39.6 
L 304.004442 -39.6 
L 301.110873 -39.6 
L 298.217303 -39.6 
L 295.323733 -39.6 
L 292.430163 -39.6 
L 289.536593 -39.6 
L 286.643023 -39.6 
L 283.749453 -39.6 
L 280.855884 -39.6 
L 278.523779 -39.6 
L 275.636632 -39.6 
L 273.815836 -39.6 
L 271.570711 -39.6 
L 270.025417 -39.6 
L 267.949815 -41.161965 
L 266.502301 -47.350419 
L 264.439948 -62.001372 
L 263.058415 -72.09011 
L 260.988351 -87.844051 
L 259.682202 -97.84977 
L 257.629774 -114.170452 
L 256.423138 -124.212713 
L 254.452437 -140.610628 
L 253.381891 -149.359299 
L 251.60795 -163.890631 
L 250.723367 -171.051336 
L 249.310668 -181.494522 
L 248.669238 -184.871562 
L 247.769595 -188.331691 
L 247.421192 -189.671691 
L 247.283251 -190.202228 
L 247.221109 -190.441233 
L 247.193375 -190.547902 
L 247.175283 -190.617485 
L 247.167511 -190.647379 
L 247.156109 -190.69123 
L 247.15014 -190.714188 
L 247.140164 -190.752558 
L 247.115696 -190.846663 
L 247.102807 -190.896237 
L 247.101518 -190.901194 
L 247.053106 -191.087393 
L 247.043424 -191.124632 
L 246.96299 -191.433991 
L 246.004937 -195.118775 
L 245.70728 -195.933959 
L 245.128566 -197.348207 
L 244.549852 -198.762456 
L 241.656283 -205.005195 
L 238.762713 -210.014195 
L 235.869143 -214.379166 
L 232.975573 -218.16178 
L 230.082003 -221.540218 
L 227.188433 -224.620938 
L 224.294863 -227.706662 
L 221.401294 -230.592335 
L 218.507724 -233.284605 
L 215.614154 -235.819034 
L 212.720584 -238.221144 
L 209.827014 -240.509674 
L 206.933444 -242.698634 
L 204.039875 -244.798657 
L 201.146305 -246.817945 
L 198.252735 -248.762966 
L 195.359165 -250.638963 
L 192.465595 -252.450351 
L 189.572025 -254.200983 
L 186.678456 -255.894297 
L 183.784886 -257.533317 
L 180.891316 -259.120477 
L 177.997746 -260.661511 
L 175.104176 -262.147882 
L 172.210606 -263.575356 
L 170.174063 -264.555691 
L 167.280493 -265.873659 
L 165.711031 -266.568992 
L 162.817461 -267.759656 
L 161.651408 -268.206571 
L 159.075324 -269.104563 
L 158.406003 -269.312935 
L 156.860746 -269.750498 
L 156.382637 -269.872859 
L 155.133607 -270.150684 
L 154.779074 -270.221524 
L 154.466331 -270.275106 
L 154.084458 -270.340531 
L 153.702585 -270.391976 
L 153.295726 -270.445047 
L 152.806267 -270.494645 
L 152.316808 -270.533675 
L 151.760155 -270.553885 
L 151.15718 -270.564102 
L 150.437476 -270.526587 
L 149.675103 -270.450428 
L 148.673574 -270.315823 
L 147.676931 -270.062569 
L 146.561507 -269.638394 
L 145.459066 -269.027541 
L 144.116718 -267.985382 
L 142.92412 -266.733458 
L 141.361288 -264.555325 
L 140.08878 -262.513467 
L 138.30842 -258.573679 
L 137.082207 -255.36139 
L 135.456199 -250.065862 
L 134.27985 -245.824667 
L 132.470992 -238.460702 
L 131.292171 -233.407666 
L 129.624926 -225.859884 
L 128.455562 -220.440671 
L 126.917399 -213.168827 
L 125.778415 -207.729959 
L 124.146782 -199.86861 
L 122.999138 -194.315388 
L 121.484362 -186.967561 
L 120.363715 -181.523445 
L 118.746057 -173.644941 
L 117.6204 -168.16299 
L 116.133285 -160.918047 
L 115.048215 -155.635504 
L 113.347424 -147.326682 
L 112.241616 -141.936737 
L 110.685422 -134.342067 
L 109.611121 -129.110959 
L 108.050472 -121.492383 
L 107.020639 -116.480209 
L 105.452177 -108.821923 
L 104.480135 -104.139369 
L 102.927167 -96.685154 
L 102.034291 -92.427668 
L 100.449255 -84.823715 
L 99.645071 -80.971332 
L 98.188148 -73.74345 
L 97.520564 -70.192419 
L 95.778139 -58.748775 
L 95.232915 -53.701745 
L 94.151079 -40.127041 
L 93.852865 -39.6 
L 93.310328 -39.6 
L 93.171224 -39.6 
L 92.940143 -39.6 
L 92.898185 -39.6 
L 92.893989 -39.6 
L 92.89357 -39.6 
z
" style="stroke: #0000cd; stroke-opacity: 0.2"/>
    </defs>
    <g clip-path="url(#pc0cbed2512)">
     <use xlink:href="#mde65b69afd" x="0" y="360" style="fill: #0000cd; fill-opacity: 0.2; stroke: #0000cd; stroke-opacity: 0.2"/>
    </g>
   </g>
   <g id="PathCollection_1">
    <defs>
     <path id="m8f2ea1c5ea" d="M 0 4.330127 
C 1.148363 4.330127 2.249847 3.873878 3.061862 3.061862 
C 3.873878 2.249847 4.330127 1.148363 4.330127 0 
C 4.330127 -1.148363 3.873878 -2.249847 3.061862 -3.061862 
C 2.249847 -3.873878 1.148363 -4.330127 0 -4.330127 
C -1.148363 -4.330127 -2.249847 -3.873878 -3.061862 -3.061862 
C -3.873878 -2.249847 -4.330127 -1.148363 -4.330127 0 
C -4.330127 1.148363 -3.873878 2.249847 -3.061862 3.061862 
C -2.249847 3.873878 -1.148363 4.330127 0 4.330127 
z
" style="stroke: #0000cd; stroke-opacity: 0.8"/>
    </defs>
    <g clip-path="url(#pc0cbed2512)">
     <use xlink:href="#m8f2ea1c5ea" x="92.89357" y="320.4" style="fill: #0000cd; fill-opacity: 0.8; stroke: #0000cd; stroke-opacity: 0.8"/>
     <use xlink:href="#m8f2ea1c5ea" x="121.829268" y="177.379132" style="fill: #0000cd; fill-opacity: 0.8; stroke: #0000cd; stroke-opacity: 0.8"/>
     <use xlink:href="#m8f2ea1c5ea" x="150.764967" y="74.000545" style="fill: #0000cd; fill-opacity: 0.8; stroke: #0000cd; stroke-opacity: 0.8"/>
     <use xlink:href="#m8f2ea1c5ea" x="179.700665" y="107.073628" style="fill: #0000cd; fill-opacity: 0.8; stroke: #0000cd; stroke-opacity: 0.8"/>
     <use xlink:href="#m8f2ea1c5ea" x="208.636364" y="127.998703" style="fill: #0000cd; fill-opacity: 0.8; stroke: #0000cd; stroke-opacity: 0.8"/>
     <use xlink:href="#m8f2ea1c5ea" x="237.572062" y="144.344238" style="fill: #0000cd; fill-opacity: 0.8; stroke: #0000cd; stroke-opacity: 0.8"/>
     <use xlink:href="#m8f2ea1c5ea" x="266.507761" y="320.4" style="fill: #0000cd; fill-opacity: 0.8; stroke: #0000cd; stroke-opacity: 0.8"/>
     <use xlink:href="#m8f2ea1c5ea" x="295.443459" y="320.4" style="fill: #0000cd; fill-opacity: 0.8; stroke: #0000cd; stroke-opacity: 0.8"/>
    </g>
   </g>
   <g id="PathCollection_2">
    <defs>
     <path id="m0e7acaefcd" d="M 0 4.330127 
C 1.148363 4.330127 2.249847 3.873878 3.061862 3.061862 
C 3.873878 2.249847 4.330127 1.148363 4.330127 0 
C 4.330127 -1.148363 3.873878 -2.249847 3.061862 -3.061862 
C 2.249847 -3.873878 1.148363 -4.330127 0 -4.330127 
C -1.148363 -4.330127 -2.249847 -3.873878 -3.061862 -3.061862 
C -3.873878 -2.249847 -4.330127 -1.148363 -4.330127 0 
C -4.330127 1.148363 -3.873878 2.249847 -3.061862 3.061862 
C -2.249847 3.873878 -1.148363 4.330127 0 4.330127 
z
" style="stroke: #000000; stroke-opacity: 0.8"/>
    </defs>
    <g clip-path="url(#pc0cbed2512)">
     <use xlink:href="#m0e7acaefcd" x="92.89357" y="320.4" style="fill-opacity: 0.8; stroke: #000000; stroke-opacity: 0.8"/>
     <use xlink:href="#m0e7acaefcd" x="121.829268" y="177.379132" style="fill-opacity: 0.8; stroke: #000000; stroke-opacity: 0.8"/>
     <use xlink:href="#m0e7acaefcd" x="150.764967" y="74.000545" style="fill-opacity: 0.8; stroke: #000000; stroke-opacity: 0.8"/>
     <use xlink:href="#m0e7acaefcd" x="179.700665" y="107.073628" style="fill-opacity: 0.8; stroke: #000000; stroke-opacity: 0.8"/>
     <use xlink:href="#m0e7acaefcd" x="208.636364" y="127.998703" style="fill-opacity: 0.8; stroke: #000000; stroke-opacity: 0.8"/>
     <use xlink:href="#m0e7acaefcd" x="237.572062" y="144.344238" style="fill-opacity: 0.8; stroke: #000000; stroke-opacity: 0.8"/>
     <use xlink:href="#m0e7acaefcd" x="266.507761" y="320.4" style="fill-opacity: 0.8; stroke: #000000; stroke-opacity: 0.8"/>
     <use xlink:href="#m0e7acaefcd" x="295.443459" y="320.4" style="fill-opacity: 0.8; stroke: #000000; stroke-opacity: 0.8"/>
    </g>
   </g>
   <g id="line2d_19">
    <path d="M 92.89357 320.4 
L 94.151079 320.4 
L 95.232915 306.577513 
L 95.778139 301.651033 
L 97.520564 290.405604 
L 99.645071 279.881208 
L 129.624926 139.944553 
L 132.470992 127.369207 
L 135.456199 115.237846 
L 137.082207 109.418776 
L 138.30842 105.525687 
L 140.08878 100.764798 
L 141.361288 98.024271 
L 142.92412 95.397496 
L 144.116718 93.88102 
L 145.459066 92.606998 
L 146.561507 91.847179 
L 147.676931 91.295309 
L 148.673574 90.956114 
L 150.437476 90.641651 
L 152.316808 90.617774 
L 154.466331 90.879066 
L 156.860746 91.432309 
L 159.075324 92.123097 
L 162.817461 93.563116 
L 167.280493 95.581982 
L 172.210606 98.054124 
L 177.997746 101.171659 
L 183.784886 104.472475 
L 189.572025 107.950387 
L 195.359165 111.622979 
L 201.146305 115.519149 
L 206.933444 119.676961 
L 212.720584 124.149915 
L 218.507724 129.021803 
L 221.401294 131.648458 
L 224.294863 134.435906 
L 227.188433 137.421733 
L 230.082003 140.660012 
L 232.975573 144.232028 
L 235.869143 148.267553 
L 238.762713 152.99223 
L 241.656283 158.852453 
L 244.549852 166.94763 
L 245.70728 171.462369 
L 246.004937 172.832964 
L 247.421192 181.334219 
L 254.452437 231.468824 
L 266.502301 319.090901 
L 267.949815 320.4 
L 324.379157 320.4 
L 324.379157 320.4 
" clip-path="url(#pc0cbed2512)" style="fill: none; stroke: #0000cd; stroke-width: 1.5; stroke-linecap: square"/>
   </g>
  </g>
  <g id="axes_2">
   <g id="patch_7">
    <path d="M 374.727273 320.4 
L 612 320.4 
L 612 43.2 
L 374.727273 43.2 
z
" style="fill: #ffffff"/>
   </g>
   <g id="matplotlib.axis_3">
    <g id="xtick_10">
     <g id="line2d_20">
      <g>
       <use xlink:href="#m40869b1320" x="377.620843" y="320.4" style="stroke: #000000; stroke-width: 0.8"/>
      </g>
     </g>
     <g id="text_21">
      <!-- 0 -->
      <g transform="translate(373.039843 338.34175) scale(0.144 -0.144)">
       <use xlink:href="#DejaVuSans-30"/>
      </g>
     </g>
    </g>
    <g id="xtick_11">
     <g id="line2d_21">
      <g>
       <use xlink:href="#m40869b1320" x="406.556541" y="320.4" style="stroke: #000000; stroke-width: 0.8"/>
      </g>
     </g>
     <g id="text_22">
      <!-- 1 -->
      <g transform="translate(401.975541 338.34175) scale(0.144 -0.144)">
       <use xlink:href="#DejaVuSans-31"/>
      </g>
     </g>
    </g>
    <g id="xtick_12">
     <g id="line2d_22">
      <g>
       <use xlink:href="#m40869b1320" x="435.492239" y="320.4" style="stroke: #000000; stroke-width: 0.8"/>
      </g>
     </g>
     <g id="text_23">
      <!-- 2 -->
      <g transform="translate(430.911239 338.34175) scale(0.144 -0.144)">
       <use xlink:href="#DejaVuSans-32"/>
      </g>
     </g>
    </g>
    <g id="xtick_13">
     <g id="line2d_23">
      <g>
       <use xlink:href="#m40869b1320" x="464.427938" y="320.4" style="stroke: #000000; stroke-width: 0.8"/>
      </g>
     </g>
     <g id="text_24">
      <!-- 3 -->
      <g transform="translate(459.846938 338.34175) scale(0.144 -0.144)">
       <use xlink:href="#DejaVuSans-33"/>
      </g>
     </g>
    </g>
    <g id="xtick_14">
     <g id="line2d_24">
      <g>
       <use xlink:href="#m40869b1320" x="493.363636" y="320.4" style="stroke: #000000; stroke-width: 0.8"/>
      </g>
     </g>
     <g id="text_25">
      <!-- 4 -->
      <g transform="translate(488.782636 338.34175) scale(0.144 -0.144)">
       <use xlink:href="#DejaVuSans-34"/>
      </g>
     </g>
    </g>
    <g id="xtick_15">
     <g id="line2d_25">
      <g>
       <use xlink:href="#m40869b1320" x="522.299335" y="320.4" style="stroke: #000000; stroke-width: 0.8"/>
      </g>
     </g>
     <g id="text_26">
      <!-- 5 -->
      <g transform="translate(517.718335 338.34175) scale(0.144 -0.144)">
       <use xlink:href="#DejaVuSans-35"/>
      </g>
     </g>
    </g>
    <g id="xtick_16">
     <g id="line2d_26">
      <g>
       <use xlink:href="#m40869b1320" x="551.235033" y="320.4" style="stroke: #000000; stroke-width: 0.8"/>
      </g>
     </g>
     <g id="text_27">
      <!-- 6 -->
      <g transform="translate(546.654033 338.34175) scale(0.144 -0.144)">
       <use xlink:href="#DejaVuSans-36"/>
      </g>
     </g>
    </g>
    <g id="xtick_17">
     <g id="line2d_27">
      <g>
       <use xlink:href="#m40869b1320" x="580.170732" y="320.4" style="stroke: #000000; stroke-width: 0.8"/>
      </g>
     </g>
     <g id="text_28">
      <!-- 7 -->
      <g transform="translate(575.589732 338.34175) scale(0.144 -0.144)">
       <use xlink:href="#DejaVuSans-37"/>
      </g>
     </g>
    </g>
    <g id="xtick_18">
     <g id="line2d_28">
      <g>
       <use xlink:href="#m40869b1320" x="609.10643" y="320.4" style="stroke: #000000; stroke-width: 0.8"/>
      </g>
     </g>
     <g id="text_29">
      <!-- 8 -->
      <g transform="translate(604.52543 338.34175) scale(0.144 -0.144)">
       <use xlink:href="#DejaVuSans-38"/>
      </g>
     </g>
    </g>
    <g id="text_30">
     <!-- Time (d) -->
     <g transform="translate(453.238636 359.9255) scale(0.192 -0.192)">
      <use xlink:href="#DejaVuSans-54"/>
      <use xlink:href="#DejaVuSans-69" x="57.958984"/>
      <use xlink:href="#DejaVuSans-6d" x="85.742188"/>
      <use xlink:href="#DejaVuSans-65" x="183.154297"/>
      <use xlink:href="#DejaVuSans-20" x="244.677734"/>
      <use xlink:href="#DejaVuSans-28" x="276.464844"/>
      <use xlink:href="#DejaVuSans-64" x="315.478516"/>
      <use xlink:href="#DejaVuSans-29" x="378.955078"/>
     </g>
    </g>
   </g>
   <g id="matplotlib.axis_4">
    <g id="ytick_10">
     <g id="line2d_29">
      <g>
       <use xlink:href="#m15b84855d1" x="374.727273" y="320.4" style="stroke: #000000; stroke-width: 0.8"/>
      </g>
     </g>
     <g id="text_31">
      <!-- 4.0 -->
      <g transform="translate(344.826773 325.870875) scale(0.144 -0.144)">
       <defs>
        <path id="DejaVuSans-2e" d="M 684 794 
L 1344 794 
L 1344 0 
L 684 0 
L 684 794 
z
" transform="scale(0.015625)"/>
       </defs>
       <use xlink:href="#DejaVuSans-34"/>
       <use xlink:href="#DejaVuSans-2e" x="63.623047"/>
       <use xlink:href="#DejaVuSans-30" x="95.410156"/>
      </g>
     </g>
    </g>
    <g id="ytick_11">
     <g id="line2d_30">
      <g>
       <use xlink:href="#m15b84855d1" x="374.727273" y="285.75" style="stroke: #000000; stroke-width: 0.8"/>
      </g>
     </g>
     <g id="text_32">
      <!-- 4.5 -->
      <g transform="translate(344.826773 291.220875) scale(0.144 -0.144)">
       <use xlink:href="#DejaVuSans-34"/>
       <use xlink:href="#DejaVuSans-2e" x="63.623047"/>
       <use xlink:href="#DejaVuSans-35" x="95.410156"/>
      </g>
     </g>
    </g>
    <g id="ytick_12">
     <g id="line2d_31">
      <g>
       <use xlink:href="#m15b84855d1" x="374.727273" y="251.1" style="stroke: #000000; stroke-width: 0.8"/>
      </g>
     </g>
     <g id="text_33">
      <!-- 5.0 -->
      <g transform="translate(344.826773 256.570875) scale(0.144 -0.144)">
       <use xlink:href="#DejaVuSans-35"/>
       <use xlink:href="#DejaVuSans-2e" x="63.623047"/>
       <use xlink:href="#DejaVuSans-30" x="95.410156"/>
      </g>
     </g>
    </g>
    <g id="ytick_13">
     <g id="line2d_32">
      <g>
       <use xlink:href="#m15b84855d1" x="374.727273" y="216.45" style="stroke: #000000; stroke-width: 0.8"/>
      </g>
     </g>
     <g id="text_34">
      <!-- 5.5 -->
      <g transform="translate(344.826773 221.920875) scale(0.144 -0.144)">
       <use xlink:href="#DejaVuSans-35"/>
       <use xlink:href="#DejaVuSans-2e" x="63.623047"/>
       <use xlink:href="#DejaVuSans-35" x="95.410156"/>
      </g>
     </g>
    </g>
    <g id="ytick_14">
     <g id="line2d_33">
      <g>
       <use xlink:href="#m15b84855d1" x="374.727273" y="181.8" style="stroke: #000000; stroke-width: 0.8"/>
      </g>
     </g>
     <g id="text_35">
      <!-- 6.0 -->
      <g transform="translate(344.826773 187.270875) scale(0.144 -0.144)">
       <use xlink:href="#DejaVuSans-36"/>
       <use xlink:href="#DejaVuSans-2e" x="63.623047"/>
       <use xlink:href="#DejaVuSans-30" x="95.410156"/>
      </g>
     </g>
    </g>
    <g id="ytick_15">
     <g id="line2d_34">
      <g>
       <use xlink:href="#m15b84855d1" x="374.727273" y="147.15" style="stroke: #000000; stroke-width: 0.8"/>
      </g>
     </g>
     <g id="text_36">
      <!-- 6.5 -->
      <g transform="translate(344.826773 152.620875) scale(0.144 -0.144)">
       <use xlink:href="#DejaVuSans-36"/>
       <use xlink:href="#DejaVuSans-2e" x="63.623047"/>
       <use xlink:href="#DejaVuSans-35" x="95.410156"/>
      </g>
     </g>
    </g>
    <g id="ytick_16">
     <g id="line2d_35">
      <g>
       <use xlink:href="#m15b84855d1" x="374.727273" y="112.5" style="stroke: #000000; stroke-width: 0.8"/>
      </g>
     </g>
     <g id="text_37">
      <!-- 7.0 -->
      <g transform="translate(344.826773 117.970875) scale(0.144 -0.144)">
       <use xlink:href="#DejaVuSans-37"/>
       <use xlink:href="#DejaVuSans-2e" x="63.623047"/>
       <use xlink:href="#DejaVuSans-30" x="95.410156"/>
      </g>
     </g>
    </g>
    <g id="ytick_17">
     <g id="line2d_36">
      <g>
       <use xlink:href="#m15b84855d1" x="374.727273" y="77.85" style="stroke: #000000; stroke-width: 0.8"/>
      </g>
     </g>
     <g id="text_38">
      <!-- 7.5 -->
      <g transform="translate(344.826773 83.320875) scale(0.144 -0.144)">
       <use xlink:href="#DejaVuSans-37"/>
       <use xlink:href="#DejaVuSans-2e" x="63.623047"/>
       <use xlink:href="#DejaVuSans-35" x="95.410156"/>
      </g>
     </g>
    </g>
    <g id="ytick_18">
     <g id="line2d_37">
      <g>
       <use xlink:href="#m15b84855d1" x="374.727273" y="43.2" style="stroke: #000000; stroke-width: 0.8"/>
      </g>
     </g>
     <g id="text_39">
      <!-- 8.0 -->
      <g transform="translate(344.826773 48.670875) scale(0.144 -0.144)">
       <use xlink:href="#DejaVuSans-38"/>
       <use xlink:href="#DejaVuSans-2e" x="63.623047"/>
       <use xlink:href="#DejaVuSans-30" x="95.410156"/>
      </g>
     </g>
    </g>
    <g id="text_40">
     <!-- Log10(CD8TE) -->
     <g transform="translate(336.833773 250.7895) rotate(-90) scale(0.192 -0.192)">
      <defs>
       <path id="DejaVuSans-43" d="M 4122 4306 
L 4122 3641 
Q 3803 3938 3442 4084 
Q 3081 4231 2675 4231 
Q 1875 4231 1450 3742 
Q 1025 3253 1025 2328 
Q 1025 1406 1450 917 
Q 1875 428 2675 428 
Q 3081 428 3442 575 
Q 3803 722 4122 1019 
L 4122 359 
Q 3791 134 3420 21 
Q 3050 -91 2638 -91 
Q 1578 -91 968 557 
Q 359 1206 359 2328 
Q 359 3453 968 4101 
Q 1578 4750 2638 4750 
Q 3056 4750 3426 4639 
Q 3797 4528 4122 4306 
z
" transform="scale(0.015625)"/>
       <path id="DejaVuSans-44" d="M 1259 4147 
L 1259 519 
L 2022 519 
Q 2988 519 3436 956 
Q 3884 1394 3884 2338 
Q 3884 3275 3436 3711 
Q 2988 4147 2022 4147 
L 1259 4147 
z
M 628 4666 
L 1925 4666 
Q 3281 4666 3915 4102 
Q 4550 3538 4550 2338 
Q 4550 1131 3912 565 
Q 3275 0 1925 0 
L 628 0 
L 628 4666 
z
" transform="scale(0.015625)"/>
       <path id="DejaVuSans-45" d="M 628 4666 
L 3578 4666 
L 3578 4134 
L 1259 4134 
L 1259 2753 
L 3481 2753 
L 3481 2222 
L 1259 2222 
L 1259 531 
L 3634 531 
L 3634 0 
L 628 0 
L 628 4666 
z
" transform="scale(0.015625)"/>
      </defs>
      <use xlink:href="#DejaVuSans-4c"/>
      <use xlink:href="#DejaVuSans-6f" x="53.962891"/>
      <use xlink:href="#DejaVuSans-67" x="115.144531"/>
      <use xlink:href="#DejaVuSans-31" x="178.621094"/>
      <use xlink:href="#DejaVuSans-30" x="242.244141"/>
      <use xlink:href="#DejaVuSans-28" x="305.867188"/>
      <use xlink:href="#DejaVuSans-43" x="344.880859"/>
      <use xlink:href="#DejaVuSans-44" x="414.705078"/>
      <use xlink:href="#DejaVuSans-38" x="491.707031"/>
      <use xlink:href="#DejaVuSans-54" x="555.330078"/>
      <use xlink:href="#DejaVuSans-45" x="616.414062"/>
      <use xlink:href="#DejaVuSans-29" x="679.597656"/>
     </g>
    </g>
   </g>
   <g id="patch_8">
    <path d="M 374.727273 320.4 
L 374.727273 43.2 
" style="fill: none; stroke: #000000; stroke-width: 0.8; stroke-linejoin: miter; stroke-linecap: square"/>
   </g>
   <g id="patch_9">
    <path d="M 612 320.4 
L 612 43.2 
" style="fill: none; stroke: #000000; stroke-width: 0.8; stroke-linejoin: miter; stroke-linecap: square"/>
   </g>
   <g id="patch_10">
    <path d="M 374.727273 320.4 
L 612 320.4 
" style="fill: none; stroke: #000000; stroke-width: 0.8; stroke-linejoin: miter; stroke-linecap: square"/>
   </g>
   <g id="patch_11">
    <path d="M 374.727273 43.2 
L 612 43.2 
" style="fill: none; stroke: #000000; stroke-width: 0.8; stroke-linejoin: miter; stroke-linecap: square"/>
   </g>
   <g id="PolyCollection_2">
    <defs>
     <path id="m25421373b4" d="M 377.620843 -122.385949 
L 377.620843 -122.385949 
L 377.621262 -122.385949 
L 377.625458 -122.385949 
L 377.667416 -122.385949 
L 377.898496 -122.385949 
L 378.037601 -122.385949 
L 378.580137 -122.385949 
L 378.878352 -122.385949 
L 379.960188 -122.385949 
L 380.505411 -122.385949 
L 382.247837 -122.385949 
L 382.915421 -122.385949 
L 384.372344 -122.385949 
L 385.176528 -122.385949 
L 386.761564 -122.385949 
L 387.65444 -122.385949 
L 389.207408 -122.385949 
L 390.17945 -122.385949 
L 391.747912 -122.38595 
L 392.777745 -122.38595 
L 394.338394 -122.38595 
L 395.412695 -122.38595 
L 396.968888 -122.385951 
L 398.074697 -122.385952 
L 399.775488 -122.385955 
L 400.860557 -122.385958 
L 402.347673 -122.385966 
L 403.47333 -122.385976 
L 405.090988 -122.385999 
L 406.211635 -122.386024 
L 407.726411 -122.386078 
L 408.874054 -122.386142 
L 410.505688 -122.386288 
L 411.644671 -122.386448 
L 413.182835 -122.386785 
L 414.352199 -122.387182 
L 416.019444 -122.388087 
L 417.198265 -122.389098 
L 419.007123 -122.391641 
L 420.183471 -122.394305 
L 421.809479 -122.400121 
L 423.035693 -122.407087 
L 424.816053 -122.423515 
L 426.088561 -122.442586 
L 427.651393 -122.479391 
L 428.843991 -122.522669 
L 430.186338 -122.594339 
L 431.28878 -122.679738 
L 432.404204 -122.799056 
L 433.400847 -122.944303 
L 434.402376 -123.134648 
L 435.164749 -123.321977 
L 435.884453 -123.53469 
L 436.487428 -123.747592 
L 437.044081 -123.974385 
L 437.53354 -124.202554 
L 438.022999 -124.457386 
L 438.429858 -124.693496 
L 438.811731 -124.936497 
L 439.193604 -125.200309 
L 439.506347 -125.434493 
L 439.860879 -125.724288 
L 441.109909 -126.90959 
L 441.588018 -127.450631 
L 443.133276 -129.526694 
L 443.802597 -130.615753 
L 446.37868 -135.739683 
L 447.544734 -138.596205 
L 450.438304 -146.516218 
L 452.007766 -151.235776 
L 454.901336 -160.159935 
L 456.937879 -166.322971 
L 459.831449 -174.618913 
L 462.725019 -182.123913 
L 465.618589 -188.72335 
L 468.512158 -194.396647 
L 471.405728 -199.175991 
L 474.299298 -203.120883 
L 477.192868 -206.303365 
L 480.086438 -208.799686 
L 482.980008 -210.685674 
L 485.873577 -212.034191 
L 488.767147 -212.913766 
L 491.660717 -213.341037 
L 494.554287 -212.635242 
L 497.447857 -211.75452 
L 500.341427 -210.736759 
L 503.234997 -209.61316 
L 506.128566 -208.409041 
L 509.022136 -207.144658 
L 511.915706 -205.836 
L 514.809276 -204.495532 
L 517.702846 -203.132869 
L 520.596416 -201.755354 
L 523.489985 -200.368557 
L 526.383555 -198.976678 
L 529.277125 -197.582881 
L 529.855839 -197.304077 
L 530.434553 -197.025327 
L 530.732209 -196.881979 
L 531.690262 -196.420694 
L 531.770696 -196.381974 
L 531.780379 -196.377314 
L 531.828791 -196.354012 
L 531.83008 -196.353392 
L 531.842969 -196.347188 
L 531.867436 -196.335411 
L 531.877413 -196.33061 
L 531.883382 -196.327737 
L 531.894783 -196.322249 
L 531.902556 -196.318508 
L 531.920648 -196.3098 
L 531.948382 -196.296451 
L 532.010524 -196.266543 
L 532.148465 -196.200157 
L 532.496868 -196.032508 
L 533.39651 -195.599786 
L 534.037941 -195.29146 
L 535.45064 -194.612962 
L 536.335222 -194.18851 
L 538.109164 -193.336939 
L 539.17971 -192.822781 
L 541.150411 -191.878687 
L 542.357047 -191.30183 
L 544.409474 -190.323315 
L 545.715624 -189.702489 
L 547.785687 -188.72122 
L 549.167221 -188.068599 
L 551.229574 -187.097097 
L 552.677088 -186.417943 
L 554.75269 -185.434941 
L 556.297984 -184.667631 
L 558.543109 -183.558302 
L 560.363905 -182.662342 
L 563.251051 -181.251024 
L 565.583156 -180.117904 
L 568.476726 -178.722588 
L 571.370296 -177.338838 
L 574.263866 -175.967132 
L 577.157436 -174.607942 
L 580.051006 -173.261741 
L 582.944575 -171.889153 
L 585.838145 -170.521406 
L 588.731715 -169.169205 
L 591.625285 -167.83308 
L 594.518855 -166.513561 
L 597.412425 -165.211175 
L 600.305995 -163.926443 
L 603.199564 -162.659881 
L 606.093134 -161.411998 
L 608.986704 -160.181336 
L 609.10643 -160.130793 
L 609.10643 -169.53782 
L 609.10643 -169.53782 
L 608.986704 -169.587368 
L 606.093134 -170.790248 
L 603.199564 -172.003905 
L 600.305995 -173.22933 
L 597.412425 -174.46616 
L 594.518855 -175.714035 
L 591.625285 -176.972597 
L 588.731715 -178.241492 
L 585.838145 -179.52037 
L 582.944575 -180.808886 
L 580.051006 -182.106695 
L 577.157436 -183.413461 
L 574.263866 -184.728845 
L 571.370296 -186.052513 
L 568.476726 -187.38413 
L 565.583156 -188.723323 
L 563.251051 -189.808009 
L 560.363905 -191.191077 
L 558.543109 -192.08485 
L 556.297984 -193.190455 
L 554.75269 -193.953666 
L 552.677088 -194.981432 
L 551.229574 -195.699858 
L 549.167221 -196.725566 
L 547.785687 -197.41394 
L 545.715624 -198.446995 
L 544.409474 -199.099665 
L 542.357047 -200.126207 
L 541.150411 -200.730083 
L 539.17971 -201.716552 
L 538.109164 -202.252348 
L 536.335222 -203.139676 
L 535.45064 -203.581805 
L 534.037941 -204.287004 
L 533.39651 -204.60692 
L 532.496868 -205.054901 
L 532.148465 -205.228205 
L 532.010524 -205.296821 
L 531.948382 -205.327732 
L 531.920648 -205.341527 
L 531.902556 -205.350523 
L 531.894783 -205.354386 
L 531.883382 -205.360052 
L 531.877413 -205.363018 
L 531.867436 -205.367976 
L 531.842969 -205.380135 
L 531.83008 -205.38654 
L 531.828791 -205.38718 
L 531.780379 -205.411239 
L 531.770696 -205.41605 
L 531.690262 -205.456022 
L 530.732209 -205.931232 
L 530.434553 -206.078719 
L 529.855839 -206.36547 
L 529.277125 -206.651561 
L 526.383555 -208.071707 
L 523.489985 -209.474008 
L 520.596416 -210.849828 
L 517.702846 -212.189472 
L 514.809276 -213.480795 
L 511.915706 -214.708739 
L 509.022136 -215.879637 
L 506.128566 -217.106591 
L 503.234997 -218.236141 
L 500.341427 -219.241109 
L 497.447857 -220.088836 
L 494.554287 -220.740599 
L 491.660717 -221.151091 
L 488.767147 -221.26799 
L 485.873577 -221.169283 
L 482.980008 -220.939041 
L 480.086438 -220.261989 
L 477.192868 -219.163363 
L 474.299298 -217.650587 
L 471.405728 -215.753686 
L 468.512158 -213.132228 
L 465.618589 -209.613149 
L 462.725019 -205.093463 
L 459.831449 -199.807584 
L 456.937879 -193.272762 
L 454.901336 -187.749094 
L 452.007766 -179.086881 
L 450.438304 -173.74821 
L 447.544734 -163.350413 
L 446.37868 -159.00213 
L 443.802597 -149.483739 
L 443.133276 -147.100999 
L 441.588018 -141.886975 
L 441.109909 -140.396517 
L 439.860879 -136.734672 
L 439.506347 -135.797793 
L 439.193604 -134.971346 
L 438.811731 -134.039142 
L 438.429858 -133.128776 
L 438.022999 -132.241398 
L 437.53354 -131.213215 
L 437.044081 -130.281211 
L 436.487428 -129.28231 
L 435.884453 -128.36207 
L 435.164749 -127.343965 
L 434.402376 -126.436942 
L 433.400847 -125.469763 
L 432.404204 -124.713358 
L 431.28878 -124.062879 
L 430.186338 -123.59207 
L 428.843991 -123.193214 
L 427.651393 -122.94258 
L 426.088561 -122.731054 
L 424.816053 -122.614397 
L 423.035693 -122.517486 
L 421.809479 -122.473202 
L 420.183471 -122.438383 
L 419.007123 -122.421348 
L 417.198265 -122.406091 
L 416.019444 -122.399432 
L 414.352199 -122.393927 
L 413.182835 -122.391323 
L 411.644671 -122.389241 
L 410.505688 -122.388189 
L 408.874054 -122.387274 
L 407.726411 -122.386838 
L 406.211635 -122.386486 
L 405.090988 -122.386309 
L 403.47333 -122.386155 
L 402.347673 -122.386083 
L 400.860557 -122.386026 
L 399.775488 -122.385998 
L 398.074697 -122.385973 
L 396.968888 -122.385964 
L 395.412695 -122.385956 
L 394.338394 -122.385953 
L 392.777745 -122.385951 
L 391.747912 -122.38595 
L 390.17945 -122.38595 
L 389.207408 -122.38595 
L 387.65444 -122.38595 
L 386.761564 -122.385949 
L 385.176528 -122.385949 
L 384.372344 -122.385949 
L 382.915421 -122.385949 
L 382.247837 -122.385949 
L 380.505411 -122.385949 
L 379.960188 -122.385949 
L 378.878352 -122.385949 
L 378.580137 -122.385949 
L 378.037601 -122.385949 
L 377.898496 -122.385949 
L 377.667416 -122.385949 
L 377.625458 -122.385949 
L 377.621262 -122.385949 
L 377.620843 -122.385949 
z
" style="stroke: #0000cd; stroke-opacity: 0.2"/>
    </defs>
    <g clip-path="url(#pbf9421fb02)">
     <use xlink:href="#m25421373b4" x="0" y="360" style="fill: #0000cd; fill-opacity: 0.2; stroke: #0000cd; stroke-opacity: 0.2"/>
    </g>
   </g>
   <g id="PathCollection_3">
    <g clip-path="url(#pbf9421fb02)">
     <use xlink:href="#m8f2ea1c5ea" x="377.620843" y="237.614051" style="fill: #0000cd; fill-opacity: 0.8; stroke: #0000cd; stroke-opacity: 0.8"/>
     <use xlink:href="#m8f2ea1c5ea" x="406.556541" y="253.885074" style="fill: #0000cd; fill-opacity: 0.8; stroke: #0000cd; stroke-opacity: 0.8"/>
     <use xlink:href="#m8f2ea1c5ea" x="435.492239" y="217.690646" style="fill: #0000cd; fill-opacity: 0.8; stroke: #0000cd; stroke-opacity: 0.8"/>
     <use xlink:href="#m8f2ea1c5ea" x="464.427938" y="163.90984" style="fill: #0000cd; fill-opacity: 0.8; stroke: #0000cd; stroke-opacity: 0.8"/>
     <use xlink:href="#m8f2ea1c5ea" x="493.363636" y="154.00634" style="fill: #0000cd; fill-opacity: 0.8; stroke: #0000cd; stroke-opacity: 0.8"/>
     <use xlink:href="#m8f2ea1c5ea" x="522.299335" y="153.404358" style="fill: #0000cd; fill-opacity: 0.8; stroke: #0000cd; stroke-opacity: 0.8"/>
     <use xlink:href="#m8f2ea1c5ea" x="551.235033" y="162.714104" style="fill: #0000cd; fill-opacity: 0.8; stroke: #0000cd; stroke-opacity: 0.8"/>
     <use xlink:href="#m8f2ea1c5ea" x="580.170732" y="180.492229" style="fill: #0000cd; fill-opacity: 0.8; stroke: #0000cd; stroke-opacity: 0.8"/>
    </g>
   </g>
   <g id="PathCollection_4">
    <g clip-path="url(#pbf9421fb02)">
     <use xlink:href="#m0e7acaefcd" x="377.620843" y="237.614051" style="fill-opacity: 0.8; stroke: #000000; stroke-opacity: 0.8"/>
     <use xlink:href="#m0e7acaefcd" x="406.556541" y="253.885074" style="fill-opacity: 0.8; stroke: #000000; stroke-opacity: 0.8"/>
     <use xlink:href="#m0e7acaefcd" x="435.492239" y="217.690646" style="fill-opacity: 0.8; stroke: #000000; stroke-opacity: 0.8"/>
     <use xlink:href="#m0e7acaefcd" x="464.427938" y="163.90984" style="fill-opacity: 0.8; stroke: #000000; stroke-opacity: 0.8"/>
     <use xlink:href="#m0e7acaefcd" x="493.363636" y="154.00634" style="fill-opacity: 0.8; stroke: #000000; stroke-opacity: 0.8"/>
     <use xlink:href="#m0e7acaefcd" x="522.299335" y="153.404358" style="fill-opacity: 0.8; stroke: #000000; stroke-opacity: 0.8"/>
     <use xlink:href="#m0e7acaefcd" x="551.235033" y="162.714104" style="fill-opacity: 0.8; stroke: #000000; stroke-opacity: 0.8"/>
     <use xlink:href="#m0e7acaefcd" x="580.170732" y="180.492229" style="fill-opacity: 0.8; stroke: #000000; stroke-opacity: 0.8"/>
    </g>
   </g>
   <g id="line2d_38">
    <path d="M 377.620843 237.614051 
L 426.088561 237.509638 
L 430.186338 237.236232 
L 432.404204 236.872197 
L 434.402376 236.279216 
L 435.884453 235.585765 
L 437.044081 234.835278 
L 438.429858 233.633714 
L 439.506347 232.426704 
L 439.860879 231.970625 
L 441.588018 229.291133 
L 443.802597 224.694899 
L 446.37868 217.80619 
L 447.544734 214.28013 
L 456.937879 184.04078 
L 459.831449 176.023887 
L 462.725019 169.046882 
L 465.618589 163.121617 
L 468.512158 158.199515 
L 471.405728 154.202468 
L 474.299298 151.040085 
L 477.192868 148.619094 
L 480.086438 146.848399 
L 482.980008 145.641777 
L 485.873577 144.919291 
L 488.767147 144.607981 
L 491.660717 144.64215 
L 494.554287 144.963396 
L 497.447857 145.520455 
L 500.341427 146.268917 
L 503.234997 147.170821 
L 509.022136 149.312298 
L 514.809276 151.749798 
L 523.489985 155.693594 
L 571.370296 177.985142 
L 585.838145 184.353631 
L 600.305995 190.456321 
L 609.10643 194.019349 
L 609.10643 194.019349 
" clip-path="url(#pbf9421fb02)" style="fill: none; stroke: #0000cd; stroke-width: 1.5; stroke-linecap: square"/>
   </g>
  </g>
  <g id="legend_1">
   <g id="patch_12">
    <path d="M 769.44 71.724 
L 931.743 71.724 
Q 935.583 71.724 935.583 67.884 
L 935.583 13.44 
Q 935.583 9.6 931.743 9.6 
L 769.44 9.6 
Q 765.6 9.6 765.6 13.44 
L 765.6 67.884 
Q 765.6 71.724 769.44 71.724 
z
" style="fill: #ffffff; opacity: 0.8; stroke: #cccccc; stroke-linejoin: miter"/>
   </g>
   <g id="PathCollection_5">
    <g>
     <use xlink:href="#m8f2ea1c5ea" x="792.48" y="26.829" style="fill: #0000cd; fill-opacity: 0.8; stroke: #0000cd; stroke-opacity: 0.8"/>
    </g>
   </g>
   <g id="text_41">
    <!-- 302 -->
    <g transform="translate(827.04 31.869) scale(0.192 -0.192)">
     <use xlink:href="#DejaVuSans-33"/>
     <use xlink:href="#DejaVuSans-30" x="63.623047"/>
     <use xlink:href="#DejaVuSans-32" x="127.246094"/>
    </g>
   </g>
   <g id="PathCollection_6">
    <g>
     <use xlink:href="#m0e7acaefcd" x="792.48" y="55.011" style="fill-opacity: 0.8; stroke: #000000; stroke-opacity: 0.8"/>
    </g>
   </g>
   <g id="text_42">
    <!-- Population -->
    <g transform="translate(827.04 60.051) scale(0.192 -0.192)">
     <defs>
      <path id="DejaVuSans-50" d="M 1259 4147 
L 1259 2394 
L 2053 2394 
Q 2494 2394 2734 2622 
Q 2975 2850 2975 3272 
Q 2975 3691 2734 3919 
Q 2494 4147 2053 4147 
L 1259 4147 
z
M 628 4666 
L 2053 4666 
Q 2838 4666 3239 4311 
Q 3641 3956 3641 3272 
Q 3641 2581 3239 2228 
Q 2838 1875 2053 1875 
L 1259 1875 
L 1259 0 
L 628 0 
L 628 4666 
z
" transform="scale(0.015625)"/>
      <path id="DejaVuSans-70" d="M 1159 525 
L 1159 -1331 
L 581 -1331 
L 581 3500 
L 1159 3500 
L 1159 2969 
Q 1341 3281 1617 3432 
Q 1894 3584 2278 3584 
Q 2916 3584 3314 3078 
Q 3713 2572 3713 1747 
Q 3713 922 3314 415 
Q 2916 -91 2278 -91 
Q 1894 -91 1617 61 
Q 1341 213 1159 525 
z
M 3116 1747 
Q 3116 2381 2855 2742 
Q 2594 3103 2138 3103 
Q 1681 3103 1420 2742 
Q 1159 2381 1159 1747 
Q 1159 1113 1420 752 
Q 1681 391 2138 391 
Q 2594 391 2855 752 
Q 3116 1113 3116 1747 
z
" transform="scale(0.015625)"/>
      <path id="DejaVuSans-75" d="M 544 1381 
L 544 3500 
L 1119 3500 
L 1119 1403 
Q 1119 906 1312 657 
Q 1506 409 1894 409 
Q 2359 409 2629 706 
Q 2900 1003 2900 1516 
L 2900 3500 
L 3475 3500 
L 3475 0 
L 2900 0 
L 2900 538 
Q 2691 219 2414 64 
Q 2138 -91 1772 -91 
Q 1169 -91 856 284 
Q 544 659 544 1381 
z
M 1991 3584 
L 1991 3584 
z
" transform="scale(0.015625)"/>
      <path id="DejaVuSans-6c" d="M 603 4863 
L 1178 4863 
L 1178 0 
L 603 0 
L 603 4863 
z
" transform="scale(0.015625)"/>
      <path id="DejaVuSans-61" d="M 2194 1759 
Q 1497 1759 1228 1600 
Q 959 1441 959 1056 
Q 959 750 1161 570 
Q 1363 391 1709 391 
Q 2188 391 2477 730 
Q 2766 1069 2766 1631 
L 2766 1759 
L 2194 1759 
z
M 3341 1997 
L 3341 0 
L 2766 0 
L 2766 531 
Q 2569 213 2275 61 
Q 1981 -91 1556 -91 
Q 1019 -91 701 211 
Q 384 513 384 1019 
Q 384 1609 779 1909 
Q 1175 2209 1959 2209 
L 2766 2209 
L 2766 2266 
Q 2766 2663 2505 2880 
Q 2244 3097 1772 3097 
Q 1472 3097 1187 3025 
Q 903 2953 641 2809 
L 641 3341 
Q 956 3463 1253 3523 
Q 1550 3584 1831 3584 
Q 2591 3584 2966 3190 
Q 3341 2797 3341 1997 
z
" transform="scale(0.015625)"/>
      <path id="DejaVuSans-74" d="M 1172 4494 
L 1172 3500 
L 2356 3500 
L 2356 3053 
L 1172 3053 
L 1172 1153 
Q 1172 725 1289 603 
Q 1406 481 1766 481 
L 2356 481 
L 2356 0 
L 1766 0 
Q 1100 0 847 248 
Q 594 497 594 1153 
L 594 3053 
L 172 3053 
L 172 3500 
L 594 3500 
L 594 4494 
L 1172 4494 
z
" transform="scale(0.015625)"/>
      <path id="DejaVuSans-6e" d="M 3513 2113 
L 3513 0 
L 2938 0 
L 2938 2094 
Q 2938 2591 2744 2837 
Q 2550 3084 2163 3084 
Q 1697 3084 1428 2787 
Q 1159 2491 1159 1978 
L 1159 0 
L 581 0 
L 581 3500 
L 1159 3500 
L 1159 2956 
Q 1366 3272 1645 3428 
Q 1925 3584 2291 3584 
Q 2894 3584 3203 3211 
Q 3513 2838 3513 2113 
z
" transform="scale(0.015625)"/>
     </defs>
     <use xlink:href="#DejaVuSans-50"/>
     <use xlink:href="#DejaVuSans-6f" x="56.677734"/>
     <use xlink:href="#DejaVuSans-70" x="117.859375"/>
     <use xlink:href="#DejaVuSans-75" x="181.335938"/>
     <use xlink:href="#DejaVuSans-6c" x="244.714844"/>
     <use xlink:href="#DejaVuSans-61" x="272.498047"/>
     <use xlink:href="#DejaVuSans-74" x="333.777344"/>
     <use xlink:href="#DejaVuSans-69" x="372.986328"/>
     <use xlink:href="#DejaVuSans-6f" x="400.769531"/>
     <use xlink:href="#DejaVuSans-6e" x="461.951172"/>
    </g>
   </g>
  </g>
 </g>
 <defs>
  <clipPath id="pc0cbed2512">
   <rect x="90" y="43.2" width="237.272727" height="277.2"/>
  </clipPath>
  <clipPath id="pbf9421fb02">
   <rect x="374.727273" y="43.2" width="237.272727" height="277.2"/>
  </clipPath>
 </defs>
</svg>
