<?xml version="1.0" encoding="utf-8" standalone="no"?>
<!DOCTYPE svg PUBLIC "-//W3C//DTD SVG 1.1//EN"
  "http://www.w3.org/Graphics/SVG/1.1/DTD/svg11.dtd">
<svg xmlns:xlink="http://www.w3.org/1999/xlink" width="720pt" height="360pt" viewBox="0 0 720 360" xmlns="http://www.w3.org/2000/svg" version="1.1">
 <metadata>
  <rdf:RDF xmlns:dc="http://purl.org/dc/elements/1.1/" xmlns:cc="http://creativecommons.org/ns#" xmlns:rdf="http://www.w3.org/1999/02/22-rdf-syntax-ns#">
   <cc:Work>
    <dc:type rdf:resource="http://purl.org/dc/dcmitype/StillImage"/>
    <dc:date>2024-12-04T11:15:17.365784</dc:date>
    <dc:format>image/svg+xml</dc:format>
    <dc:creator>
     <cc:Agent>
      <dc:title>Matplotlib v3.9.2, https://matplotlib.org/</dc:title>
     </cc:Agent>
    </dc:creator>
   </cc:Work>
  </rdf:RDF>
 </metadata>
 <defs>
  <style type="text/css">*{stroke-linejoin: round; stroke-linecap: butt}</style>
 </defs>
 <g id="figure_1">
  <g id="patch_1">
   <path d="M 0 360 
L 720 360 
L 720 0 
L 0 0 
z
" style="fill: #ffffff"/>
  </g>
  <g id="axes_1">
   <g id="patch_2">
    <path d="M 90 320.4 
L 327.272727 320.4 
L 327.272727 43.2 
L 90 43.2 
z
" style="fill: #ffffff"/>
   </g>
   <g id="matplotlib.axis_1">
    <g id="xtick_1">
     <g id="text_1">
      <!-- 0 -->
      <g style="fill: #262626" transform="translate(88.889695 340.20725) scale(0.144 -0.144)">
       <defs>
        <path id="ArialMT-30" d="M 266 2259 
Q 266 3072 433 3567 
Q 600 4063 929 4331 
Q 1259 4600 1759 4600 
Q 2128 4600 2406 4451 
Q 2684 4303 2865 4023 
Q 3047 3744 3150 3342 
Q 3253 2941 3253 2259 
Q 3253 1453 3087 958 
Q 2922 463 2592 192 
Q 2263 -78 1759 -78 
Q 1097 -78 719 397 
Q 266 969 266 2259 
z
M 844 2259 
Q 844 1131 1108 757 
Q 1372 384 1759 384 
Q 2147 384 2411 759 
Q 2675 1134 2675 2259 
Q 2675 3391 2411 3762 
Q 2147 4134 1753 4134 
Q 1366 4134 1134 3806 
Q 844 3388 844 2259 
z
" transform="scale(0.015625)"/>
       </defs>
       <use xlink:href="#ArialMT-30"/>
      </g>
     </g>
    </g>
    <g id="xtick_2">
     <g id="text_2">
      <!-- 1 -->
      <g style="fill: #262626" transform="translate(117.825393 340.20725) scale(0.144 -0.144)">
       <defs>
        <path id="ArialMT-31" d="M 2384 0 
L 1822 0 
L 1822 3584 
Q 1619 3391 1289 3197 
Q 959 3003 697 2906 
L 697 3450 
Q 1169 3672 1522 3987 
Q 1875 4303 2022 4600 
L 2384 4600 
L 2384 0 
z
" transform="scale(0.015625)"/>
       </defs>
       <use xlink:href="#ArialMT-31"/>
      </g>
     </g>
    </g>
    <g id="xtick_3">
     <g id="text_3">
      <!-- 2 -->
      <g style="fill: #262626" transform="translate(146.761092 340.20725) scale(0.144 -0.144)">
       <defs>
        <path id="ArialMT-32" d="M 3222 541 
L 3222 0 
L 194 0 
Q 188 203 259 391 
Q 375 700 629 1000 
Q 884 1300 1366 1694 
Q 2113 2306 2375 2664 
Q 2638 3022 2638 3341 
Q 2638 3675 2398 3904 
Q 2159 4134 1775 4134 
Q 1369 4134 1125 3890 
Q 881 3647 878 3216 
L 300 3275 
Q 359 3922 746 4261 
Q 1134 4600 1788 4600 
Q 2447 4600 2831 4234 
Q 3216 3869 3216 3328 
Q 3216 3053 3103 2787 
Q 2991 2522 2730 2228 
Q 2469 1934 1863 1422 
Q 1356 997 1212 845 
Q 1069 694 975 541 
L 3222 541 
z
" transform="scale(0.015625)"/>
       </defs>
       <use xlink:href="#ArialMT-32"/>
      </g>
     </g>
    </g>
    <g id="xtick_4">
     <g id="text_4">
      <!-- 3 -->
      <g style="fill: #262626" transform="translate(175.69679 340.20725) scale(0.144 -0.144)">
       <defs>
        <path id="ArialMT-33" d="M 269 1209 
L 831 1284 
Q 928 806 1161 595 
Q 1394 384 1728 384 
Q 2125 384 2398 659 
Q 2672 934 2672 1341 
Q 2672 1728 2419 1979 
Q 2166 2231 1775 2231 
Q 1616 2231 1378 2169 
L 1441 2663 
Q 1497 2656 1531 2656 
Q 1891 2656 2178 2843 
Q 2466 3031 2466 3422 
Q 2466 3731 2256 3934 
Q 2047 4138 1716 4138 
Q 1388 4138 1169 3931 
Q 950 3725 888 3313 
L 325 3413 
Q 428 3978 793 4289 
Q 1159 4600 1703 4600 
Q 2078 4600 2393 4439 
Q 2709 4278 2876 4000 
Q 3044 3722 3044 3409 
Q 3044 3113 2884 2869 
Q 2725 2625 2413 2481 
Q 2819 2388 3044 2092 
Q 3269 1797 3269 1353 
Q 3269 753 2831 336 
Q 2394 -81 1725 -81 
Q 1122 -81 723 278 
Q 325 638 269 1209 
z
" transform="scale(0.015625)"/>
       </defs>
       <use xlink:href="#ArialMT-33"/>
      </g>
     </g>
    </g>
    <g id="xtick_5">
     <g id="text_5">
      <!-- 4 -->
      <g style="fill: #262626" transform="translate(204.632489 340.20725) scale(0.144 -0.144)">
       <defs>
        <path id="ArialMT-34" d="M 2069 0 
L 2069 1097 
L 81 1097 
L 81 1613 
L 2172 4581 
L 2631 4581 
L 2631 1613 
L 3250 1613 
L 3250 1097 
L 2631 1097 
L 2631 0 
L 2069 0 
z
M 2069 1613 
L 2069 3678 
L 634 1613 
L 2069 1613 
z
" transform="scale(0.015625)"/>
       </defs>
       <use xlink:href="#ArialMT-34"/>
      </g>
     </g>
    </g>
    <g id="xtick_6">
     <g id="text_6">
      <!-- 5 -->
      <g style="fill: #262626" transform="translate(233.568187 340.20725) scale(0.144 -0.144)">
       <defs>
        <path id="ArialMT-35" d="M 266 1200 
L 856 1250 
Q 922 819 1161 601 
Q 1400 384 1738 384 
Q 2144 384 2425 690 
Q 2706 997 2706 1503 
Q 2706 1984 2436 2262 
Q 2166 2541 1728 2541 
Q 1456 2541 1237 2417 
Q 1019 2294 894 2097 
L 366 2166 
L 809 4519 
L 3088 4519 
L 3088 3981 
L 1259 3981 
L 1013 2750 
Q 1425 3038 1878 3038 
Q 2478 3038 2890 2622 
Q 3303 2206 3303 1553 
Q 3303 931 2941 478 
Q 2500 -78 1738 -78 
Q 1113 -78 717 272 
Q 322 622 266 1200 
z
" transform="scale(0.015625)"/>
       </defs>
       <use xlink:href="#ArialMT-35"/>
      </g>
     </g>
    </g>
    <g id="xtick_7">
     <g id="text_7">
      <!-- 6 -->
      <g style="fill: #262626" transform="translate(262.503886 340.20725) scale(0.144 -0.144)">
       <defs>
        <path id="ArialMT-36" d="M 3184 3459 
L 2625 3416 
Q 2550 3747 2413 3897 
Q 2184 4138 1850 4138 
Q 1581 4138 1378 3988 
Q 1113 3794 959 3422 
Q 806 3050 800 2363 
Q 1003 2672 1297 2822 
Q 1591 2972 1913 2972 
Q 2475 2972 2870 2558 
Q 3266 2144 3266 1488 
Q 3266 1056 3080 686 
Q 2894 316 2569 119 
Q 2244 -78 1831 -78 
Q 1128 -78 684 439 
Q 241 956 241 2144 
Q 241 3472 731 4075 
Q 1159 4600 1884 4600 
Q 2425 4600 2770 4297 
Q 3116 3994 3184 3459 
z
M 888 1484 
Q 888 1194 1011 928 
Q 1134 663 1356 523 
Q 1578 384 1822 384 
Q 2178 384 2434 671 
Q 2691 959 2691 1453 
Q 2691 1928 2437 2201 
Q 2184 2475 1800 2475 
Q 1419 2475 1153 2201 
Q 888 1928 888 1484 
z
" transform="scale(0.015625)"/>
       </defs>
       <use xlink:href="#ArialMT-36"/>
      </g>
     </g>
    </g>
    <g id="xtick_8">
     <g id="text_8">
      <!-- 7 -->
      <g style="fill: #262626" transform="translate(291.439584 340.20725) scale(0.144 -0.144)">
       <defs>
        <path id="ArialMT-37" d="M 303 3981 
L 303 4522 
L 3269 4522 
L 3269 4084 
Q 2831 3619 2401 2847 
Q 1972 2075 1738 1259 
Q 1569 684 1522 0 
L 944 0 
Q 953 541 1156 1306 
Q 1359 2072 1739 2783 
Q 2119 3494 2547 3981 
L 303 3981 
z
" transform="scale(0.015625)"/>
       </defs>
       <use xlink:href="#ArialMT-37"/>
      </g>
     </g>
    </g>
    <g id="xtick_9">
     <g id="text_9">
      <!-- 8 -->
      <g style="fill: #262626" transform="translate(320.375282 340.20725) scale(0.144 -0.144)">
       <defs>
        <path id="ArialMT-38" d="M 1131 2484 
Q 781 2613 612 2850 
Q 444 3088 444 3419 
Q 444 3919 803 4259 
Q 1163 4600 1759 4600 
Q 2359 4600 2725 4251 
Q 3091 3903 3091 3403 
Q 3091 3084 2923 2848 
Q 2756 2613 2416 2484 
Q 2838 2347 3058 2040 
Q 3278 1734 3278 1309 
Q 3278 722 2862 322 
Q 2447 -78 1769 -78 
Q 1091 -78 675 323 
Q 259 725 259 1325 
Q 259 1772 486 2073 
Q 713 2375 1131 2484 
z
M 1019 3438 
Q 1019 3113 1228 2906 
Q 1438 2700 1772 2700 
Q 2097 2700 2305 2904 
Q 2513 3109 2513 3406 
Q 2513 3716 2298 3927 
Q 2084 4138 1766 4138 
Q 1444 4138 1231 3931 
Q 1019 3725 1019 3438 
z
M 838 1322 
Q 838 1081 952 856 
Q 1066 631 1291 507 
Q 1516 384 1775 384 
Q 2178 384 2440 643 
Q 2703 903 2703 1303 
Q 2703 1709 2433 1975 
Q 2163 2241 1756 2241 
Q 1359 2241 1098 1978 
Q 838 1716 838 1322 
z
" transform="scale(0.015625)"/>
       </defs>
       <use xlink:href="#ArialMT-38"/>
      </g>
     </g>
    </g>
    <g id="text_10">
     <!-- Time (d) -->
     <g style="fill: #262626" transform="translate(173.266364 361.04625) scale(0.192 -0.192)">
      <defs>
       <path id="ArialMT-54" d="M 1659 0 
L 1659 4041 
L 150 4041 
L 150 4581 
L 3781 4581 
L 3781 4041 
L 2266 4041 
L 2266 0 
L 1659 0 
z
" transform="scale(0.015625)"/>
       <path id="ArialMT-69" d="M 425 3934 
L 425 4581 
L 988 4581 
L 988 3934 
L 425 3934 
z
M 425 0 
L 425 3319 
L 988 3319 
L 988 0 
L 425 0 
z
" transform="scale(0.015625)"/>
       <path id="ArialMT-6d" d="M 422 0 
L 422 3319 
L 925 3319 
L 925 2853 
Q 1081 3097 1340 3245 
Q 1600 3394 1931 3394 
Q 2300 3394 2536 3241 
Q 2772 3088 2869 2813 
Q 3263 3394 3894 3394 
Q 4388 3394 4653 3120 
Q 4919 2847 4919 2278 
L 4919 0 
L 4359 0 
L 4359 2091 
Q 4359 2428 4304 2576 
Q 4250 2725 4106 2815 
Q 3963 2906 3769 2906 
Q 3419 2906 3187 2673 
Q 2956 2441 2956 1928 
L 2956 0 
L 2394 0 
L 2394 2156 
Q 2394 2531 2256 2718 
Q 2119 2906 1806 2906 
Q 1569 2906 1367 2781 
Q 1166 2656 1075 2415 
Q 984 2175 984 1722 
L 984 0 
L 422 0 
z
" transform="scale(0.015625)"/>
       <path id="ArialMT-65" d="M 2694 1069 
L 3275 997 
Q 3138 488 2766 206 
Q 2394 -75 1816 -75 
Q 1088 -75 661 373 
Q 234 822 234 1631 
Q 234 2469 665 2931 
Q 1097 3394 1784 3394 
Q 2450 3394 2872 2941 
Q 3294 2488 3294 1666 
Q 3294 1616 3291 1516 
L 816 1516 
Q 847 969 1125 678 
Q 1403 388 1819 388 
Q 2128 388 2347 550 
Q 2566 713 2694 1069 
z
M 847 1978 
L 2700 1978 
Q 2663 2397 2488 2606 
Q 2219 2931 1791 2931 
Q 1403 2931 1139 2672 
Q 875 2413 847 1978 
z
" transform="scale(0.015625)"/>
       <path id="ArialMT-20" transform="scale(0.015625)"/>
       <path id="ArialMT-28" d="M 1497 -1347 
Q 1031 -759 709 28 
Q 388 816 388 1659 
Q 388 2403 628 3084 
Q 909 3875 1497 4659 
L 1900 4659 
Q 1522 4009 1400 3731 
Q 1209 3300 1100 2831 
Q 966 2247 966 1656 
Q 966 153 1900 -1347 
L 1497 -1347 
z
" transform="scale(0.015625)"/>
       <path id="ArialMT-64" d="M 2575 0 
L 2575 419 
Q 2259 -75 1647 -75 
Q 1250 -75 917 144 
Q 584 363 401 755 
Q 219 1147 219 1656 
Q 219 2153 384 2558 
Q 550 2963 881 3178 
Q 1213 3394 1622 3394 
Q 1922 3394 2156 3267 
Q 2391 3141 2538 2938 
L 2538 4581 
L 3097 4581 
L 3097 0 
L 2575 0 
z
M 797 1656 
Q 797 1019 1065 703 
Q 1334 388 1700 388 
Q 2069 388 2326 689 
Q 2584 991 2584 1609 
Q 2584 2291 2321 2609 
Q 2059 2928 1675 2928 
Q 1300 2928 1048 2622 
Q 797 2316 797 1656 
z
" transform="scale(0.015625)"/>
       <path id="ArialMT-29" d="M 791 -1347 
L 388 -1347 
Q 1322 153 1322 1656 
Q 1322 2244 1188 2822 
Q 1081 3291 891 3722 
Q 769 4003 388 4659 
L 791 4659 
Q 1378 3875 1659 3084 
Q 1900 2403 1900 1659 
Q 1900 816 1576 28 
Q 1253 -759 791 -1347 
z
" transform="scale(0.015625)"/>
      </defs>
      <use xlink:href="#ArialMT-54"/>
      <use xlink:href="#ArialMT-69" x="57.333984"/>
      <use xlink:href="#ArialMT-6d" x="79.550781"/>
      <use xlink:href="#ArialMT-65" x="162.851562"/>
      <use xlink:href="#ArialMT-20" x="218.466797"/>
      <use xlink:href="#ArialMT-28" x="246.25"/>
      <use xlink:href="#ArialMT-64" x="279.550781"/>
      <use xlink:href="#ArialMT-29" x="335.166016"/>
     </g>
    </g>
   </g>
   <g id="matplotlib.axis_2">
    <g id="ytick_1">
     <g id="text_11">
      <!-- 0 -->
      <g style="fill: #262626" transform="translate(72.49225 325.553625) scale(0.144 -0.144)">
       <use xlink:href="#ArialMT-30"/>
      </g>
     </g>
    </g>
    <g id="ytick_2">
     <g id="text_12">
      <!-- 1 -->
      <g style="fill: #262626" transform="translate(72.49225 291.953625) scale(0.144 -0.144)">
       <use xlink:href="#ArialMT-31"/>
      </g>
     </g>
    </g>
    <g id="ytick_3">
     <g id="text_13">
      <!-- 2 -->
      <g style="fill: #262626" transform="translate(72.49225 258.353625) scale(0.144 -0.144)">
       <use xlink:href="#ArialMT-32"/>
      </g>
     </g>
    </g>
    <g id="ytick_4">
     <g id="text_14">
      <!-- 3 -->
      <g style="fill: #262626" transform="translate(72.49225 224.753625) scale(0.144 -0.144)">
       <use xlink:href="#ArialMT-33"/>
      </g>
     </g>
    </g>
    <g id="ytick_5">
     <g id="text_15">
      <!-- 4 -->
      <g style="fill: #262626" transform="translate(72.49225 191.153625) scale(0.144 -0.144)">
       <use xlink:href="#ArialMT-34"/>
      </g>
     </g>
    </g>
    <g id="ytick_6">
     <g id="text_16">
      <!-- 5 -->
      <g style="fill: #262626" transform="translate(72.49225 157.553625) scale(0.144 -0.144)">
       <use xlink:href="#ArialMT-35"/>
      </g>
     </g>
    </g>
    <g id="ytick_7">
     <g id="text_17">
      <!-- 6 -->
      <g style="fill: #262626" transform="translate(72.49225 123.953625) scale(0.144 -0.144)">
       <use xlink:href="#ArialMT-36"/>
      </g>
     </g>
    </g>
    <g id="ytick_8">
     <g id="text_18">
      <!-- 7 -->
      <g style="fill: #262626" transform="translate(72.49225 90.353625) scale(0.144 -0.144)">
       <use xlink:href="#ArialMT-37"/>
      </g>
     </g>
    </g>
    <g id="ytick_9">
     <g id="text_19">
      <!-- 8 -->
      <g style="fill: #262626" transform="translate(72.49225 56.753625) scale(0.144 -0.144)">
       <use xlink:href="#ArialMT-38"/>
      </g>
     </g>
    </g>
    <g id="text_20">
     <!-- Log10(V) -->
     <g style="fill: #262626" transform="translate(64.45125 221.289) rotate(-90) scale(0.192 -0.192)">
      <defs>
       <path id="ArialMT-4c" d="M 469 0 
L 469 4581 
L 1075 4581 
L 1075 541 
L 3331 541 
L 3331 0 
L 469 0 
z
" transform="scale(0.015625)"/>
       <path id="ArialMT-6f" d="M 213 1659 
Q 213 2581 725 3025 
Q 1153 3394 1769 3394 
Q 2453 3394 2887 2945 
Q 3322 2497 3322 1706 
Q 3322 1066 3130 698 
Q 2938 331 2570 128 
Q 2203 -75 1769 -75 
Q 1072 -75 642 372 
Q 213 819 213 1659 
z
M 791 1659 
Q 791 1022 1069 705 
Q 1347 388 1769 388 
Q 2188 388 2466 706 
Q 2744 1025 2744 1678 
Q 2744 2294 2464 2611 
Q 2184 2928 1769 2928 
Q 1347 2928 1069 2612 
Q 791 2297 791 1659 
z
" transform="scale(0.015625)"/>
       <path id="ArialMT-67" d="M 319 -275 
L 866 -356 
Q 900 -609 1056 -725 
Q 1266 -881 1628 -881 
Q 2019 -881 2231 -725 
Q 2444 -569 2519 -288 
Q 2563 -116 2559 434 
Q 2191 0 1641 0 
Q 956 0 581 494 
Q 206 988 206 1678 
Q 206 2153 378 2554 
Q 550 2956 876 3175 
Q 1203 3394 1644 3394 
Q 2231 3394 2613 2919 
L 2613 3319 
L 3131 3319 
L 3131 450 
Q 3131 -325 2973 -648 
Q 2816 -972 2473 -1159 
Q 2131 -1347 1631 -1347 
Q 1038 -1347 672 -1080 
Q 306 -813 319 -275 
z
M 784 1719 
Q 784 1066 1043 766 
Q 1303 466 1694 466 
Q 2081 466 2343 764 
Q 2606 1063 2606 1700 
Q 2606 2309 2336 2618 
Q 2066 2928 1684 2928 
Q 1309 2928 1046 2623 
Q 784 2319 784 1719 
z
" transform="scale(0.015625)"/>
       <path id="ArialMT-56" d="M 1803 0 
L 28 4581 
L 684 4581 
L 1875 1253 
Q 2019 853 2116 503 
Q 2222 878 2363 1253 
L 3600 4581 
L 4219 4581 
L 2425 0 
L 1803 0 
z
" transform="scale(0.015625)"/>
      </defs>
      <use xlink:href="#ArialMT-4c"/>
      <use xlink:href="#ArialMT-6f" x="55.615234"/>
      <use xlink:href="#ArialMT-67" x="111.230469"/>
      <use xlink:href="#ArialMT-31" x="166.845703"/>
      <use xlink:href="#ArialMT-30" x="222.460938"/>
      <use xlink:href="#ArialMT-28" x="278.076172"/>
      <use xlink:href="#ArialMT-56" x="311.376953"/>
      <use xlink:href="#ArialMT-29" x="378.076172"/>
     </g>
    </g>
   </g>
   <g id="patch_3">
    <path d="M 90 320.4 
L 90 43.2 
" style="fill: none; stroke: #262626; stroke-width: 1.25; stroke-linejoin: miter; stroke-linecap: square"/>
   </g>
   <g id="patch_4">
    <path d="M 327.272727 320.4 
L 327.272727 43.2 
" style="fill: none; stroke: #262626; stroke-width: 1.25; stroke-linejoin: miter; stroke-linecap: square"/>
   </g>
   <g id="patch_5">
    <path d="M 90 320.4 
L 327.272727 320.4 
" style="fill: none; stroke: #262626; stroke-width: 1.25; stroke-linejoin: miter; stroke-linecap: square"/>
   </g>
   <g id="patch_6">
    <path d="M 90 43.2 
L 327.272727 43.2 
" style="fill: none; stroke: #262626; stroke-width: 1.25; stroke-linejoin: miter; stroke-linecap: square"/>
   </g>
   <g id="PolyCollection_1">
    <defs>
     <path id="m04f2d3fc51" d="M 92.89357 -39.6 
L 92.89357 -39.6 
L 92.893987 -39.6 
L 92.898159 -39.6 
L 92.939879 -39.6 
L 93.182681 -39.6 
L 93.324482 -39.6 
L 93.886821 -39.6 
L 94.180986 -39.6 
L 95.278239 -54.224738 
L 95.791974 -58.614821 
L 97.583107 -68.823529 
L 98.313478 -71.647453 
L 100.350844 -77.85149 
L 101.30127 -80.220825 
L 103.551419 -85.37687 
L 104.711027 -87.892323 
L 107.096721 -93.006449 
L 108.439772 -95.865287 
L 110.868639 -100.909946 
L 112.347011 -103.92366 
L 114.836518 -109.011152 
L 116.432397 -112.268945 
L 119.325967 -118.19361 
L 121.001185 -121.614083 
L 123.894754 -127.538685 
L 125.628864 -131.079188 
L 128.522434 -137.003172 
L 130.303855 -140.639589 
L 133.197425 -146.562479 
L 135.020885 -150.283403 
L 137.914455 -156.204119 
L 139.774244 -159.996717 
L 142.667814 -165.91292 
L 144.559625 -169.766134 
L 147.453194 -175.673025 
L 149.375334 -179.579181 
L 152.268904 -185.46599 
L 154.224173 -189.422266 
L 157.117743 -195.269717 
L 159.116832 -199.279318 
L 162.010401 -205.050159 
L 164.078085 -209.124495 
L 166.971655 -214.74658 
L 169.152643 -218.893179 
L 172.046213 -224.230655 
L 174.386633 -228.356164 
L 177.280203 -233.174007 
L 180.173773 -237.575127 
L 183.067343 -241.462598 
L 185.960912 -244.752207 
L 188.854482 -247.388748 
L 191.748052 -249.357663 
L 194.641622 -250.687157 
L 197.535192 -250.865188 
L 200.029335 -250.487877 
L 202.194678 -249.984383 
L 204.42779 -249.320255 
L 206.396056 -248.64052 
L 208.400477 -247.866808 
L 210.404898 -247.033031 
L 212.151503 -246.25854 
L 214.012779 -245.395108 
L 215.874054 -244.495427 
L 217.73533 -243.56277 
L 219.596605 -242.599239 
L 221.45788 -241.603936 
L 223.319156 -240.5398 
L 225.180431 -239.446676 
L 227.041706 -238.313034 
L 228.902982 -237.14201 
L 230.764257 -235.913921 
L 232.625532 -234.623393 
L 234.487526 -233.271362 
L 236.430793 -231.78833 
L 238.555471 -230.070885 
L 241.449041 -227.590018 
L 244.342611 -224.898159 
L 247.236181 -221.949358 
L 250.12975 -218.679631 
L 253.02332 -214.995713 
L 255.91689 -210.754642 
L 258.81046 -205.725561 
L 261.70403 -198.774838 
L 264.5976 -187.059548 
L 265.176314 -184.032381 
L 265.36414 -183.047122 
L 265.434002 -182.680483 
L 265.564531 -181.995458 
L 265.665646 -181.464796 
L 265.766762 -180.934134 
L 265.88774 -180.29923 
L 266.02344 -179.587067 
L 266.295139 -178.16042 
L 267.978402 -169.292901 
L 268.584439 -166.090707 
L 271.210753 -152.193124 
L 272.025006 -147.867418 
L 274.382042 -135.039736 
L 275.424262 -128.972311 
L 277.796488 -115.233283 
L 279.048987 -107.90474 
L 281.704705 -92.506698 
L 283.10792 -84.312533 
L 285.483521 -69.788829 
L 287.043149 -60.063563 
L 289.548628 -46.063671 
L 291.216373 -39.6 
L 293.778925 -39.6 
L 295.530114 -39.6 
L 298.135736 -39.6 
L 299.980533 -39.6 
L 302.719177 -39.6 
L 304.750683 -39.6 
L 307.644253 -39.6 
L 310.020596 -39.6 
L 312.914166 -39.6 
L 315.807736 -39.6 
L 318.701306 -39.6 
L 321.594876 -39.6 
L 324.379157 -39.6 
L 324.379157 -39.6 
L 324.379157 -39.6 
L 321.594876 -39.6 
L 318.701306 -39.6 
L 315.807736 -39.6 
L 312.914166 -39.6 
L 310.020596 -39.6 
L 307.644253 -39.6 
L 304.750683 -39.6 
L 302.719177 -39.6 
L 299.980533 -39.6 
L 298.135736 -39.762509 
L 295.530114 -45.478019 
L 293.778925 -54.371512 
L 291.216373 -67.503177 
L 289.548628 -76.221929 
L 287.043149 -89.326961 
L 285.483521 -97.482422 
L 283.10792 -109.90453 
L 281.704705 -117.235409 
L 279.048987 -131.105052 
L 277.796488 -137.630288 
L 275.424262 -149.972049 
L 274.382042 -155.417558 
L 272.025006 -167.73875 
L 271.210753 -171.976274 
L 268.584439 -185.377716 
L 267.978402 -188.364172 
L 266.295139 -195.829365 
L 266.02344 -196.893942 
L 265.88774 -197.425644 
L 265.766762 -197.899663 
L 265.665646 -198.292768 
L 265.564531 -198.628473 
L 265.434002 -199.151781 
L 265.36414 -199.431866 
L 265.176314 -200.184891 
L 264.5976 -202.368856 
L 261.70403 -209.987518 
L 258.81046 -215.624311 
L 255.91689 -220.138816 
L 253.02332 -223.961024 
L 250.12975 -227.211376 
L 247.236181 -230.138829 
L 244.342611 -232.733787 
L 241.449041 -235.089562 
L 238.555471 -237.249048 
L 236.430793 -238.728181 
L 234.487526 -240.012012 
L 232.625532 -241.184823 
L 230.764257 -242.302482 
L 228.902982 -243.368403 
L 227.041706 -244.38738 
L 225.180431 -245.362776 
L 223.319156 -246.296452 
L 221.45788 -247.189623 
L 219.596605 -248.042899 
L 217.73533 -248.854463 
L 215.874054 -249.624928 
L 214.012779 -250.35067 
L 212.151503 -251.028736 
L 210.404898 -251.612147 
L 208.400477 -252.216671 
L 206.396056 -252.737651 
L 204.42779 -253.147893 
L 202.194678 -253.543636 
L 200.029335 -253.755988 
L 197.535192 -253.772543 
L 194.641622 -253.732955 
L 191.748052 -253.606352 
L 188.854482 -252.975328 
L 185.960912 -251.731338 
L 183.067343 -249.782218 
L 180.173773 -247.07354 
L 177.280203 -243.62981 
L 174.386633 -239.422137 
L 172.046213 -235.624951 
L 169.152643 -230.419318 
L 166.971655 -226.271632 
L 164.078085 -220.466719 
L 162.010401 -216.206915 
L 159.116832 -210.081811 
L 157.117743 -205.79943 
L 154.224173 -199.512237 
L 152.268904 -195.245049 
L 149.375334 -188.877419 
L 147.453194 -184.645869 
L 144.559625 -178.238432 
L 142.667814 -174.05709 
L 139.774244 -167.629783 
L 137.914455 -163.512073 
L 135.020885 -157.074673 
L 133.197425 -153.034373 
L 130.303855 -146.592094 
L 128.522434 -142.643298 
L 125.628864 -136.19924 
L 123.894754 -132.354417 
L 121.001185 -125.909234 
L 119.325967 -122.195156 
L 116.432397 -115.761967 
L 114.836518 -112.222966 
L 112.347011 -106.692878 
L 110.868639 -103.417836 
L 108.439772 -98.030364 
L 107.096721 -95.057912 
L 104.711027 -89.745917 
L 103.551419 -87.118725 
L 101.30127 -81.798887 
L 100.350844 -79.328946 
L 98.313478 -72.942928 
L 97.583107 -69.97812 
L 95.791974 -59.539374 
L 95.278239 -54.946892 
L 94.180986 -40.16777 
L 93.886821 -39.6 
L 93.324482 -39.6 
L 93.182681 -39.6 
L 92.939879 -39.6 
L 92.898159 -39.6 
L 92.893987 -39.6 
L 92.89357 -39.6 
z
" style="stroke: #800080; stroke-opacity: 0.2"/>
    </defs>
    <g clip-path="url(#paeb47b82fd)">
     <use xlink:href="#m04f2d3fc51" x="0" y="360" style="fill: #800080; fill-opacity: 0.2; stroke: #800080; stroke-opacity: 0.2"/>
    </g>
   </g>
   <g id="PathCollection_1">
    <defs>
     <path id="m3651b3291c" d="M 0 4.330127 
C 1.148363 4.330127 2.249847 3.873878 3.061862 3.061862 
C 3.873878 2.249847 4.330127 1.148363 4.330127 0 
C 4.330127 -1.148363 3.873878 -2.249847 3.061862 -3.061862 
C 2.249847 -3.873878 1.148363 -4.330127 0 -4.330127 
C -1.148363 -4.330127 -2.249847 -3.873878 -3.061862 -3.061862 
C -3.873878 -2.249847 -4.330127 -1.148363 -4.330127 0 
C -4.330127 1.148363 -3.873878 2.249847 -3.061862 3.061862 
C -2.249847 3.873878 -1.148363 4.330127 0 4.330127 
z
" style="stroke: #800080; stroke-opacity: 0.8"/>
    </defs>
    <g clip-path="url(#paeb47b82fd)">
     <use xlink:href="#m3651b3291c" x="92.89357" y="320.4" style="fill: #800080; fill-opacity: 0.8; stroke: #800080; stroke-opacity: 0.8"/>
     <use xlink:href="#m3651b3291c" x="121.829268" y="213.998005" style="fill: #800080; fill-opacity: 0.8; stroke: #800080; stroke-opacity: 0.8"/>
     <use xlink:href="#m3651b3291c" x="150.764967" y="162.383865" style="fill: #800080; fill-opacity: 0.8; stroke: #800080; stroke-opacity: 0.8"/>
     <use xlink:href="#m3651b3291c" x="179.700665" y="137.460582" style="fill: #800080; fill-opacity: 0.8; stroke: #800080; stroke-opacity: 0.8"/>
     <use xlink:href="#m3651b3291c" x="208.636364" y="101.270794" style="fill: #800080; fill-opacity: 0.8; stroke: #800080; stroke-opacity: 0.8"/>
     <use xlink:href="#m3651b3291c" x="237.572062" y="128.485686" style="fill: #800080; fill-opacity: 0.8; stroke: #800080; stroke-opacity: 0.8"/>
     <use xlink:href="#m3651b3291c" x="266.507761" y="173.068271" style="fill: #800080; fill-opacity: 0.8; stroke: #800080; stroke-opacity: 0.8"/>
     <use xlink:href="#m3651b3291c" x="295.443459" y="320.4" style="fill: #800080; fill-opacity: 0.8; stroke: #800080; stroke-opacity: 0.8"/>
    </g>
   </g>
   <g id="line2d_1">
    <path d="M 92.89357 320.4 
L 92.893987 320.4 
L 92.898159 320.4 
L 92.939879 320.4 
L 93.182681 320.4 
L 93.324482 320.4 
L 93.886821 320.4 
L 94.180986 320.4 
L 95.278239 305.063348 
L 95.791974 300.480385 
L 97.583107 290.055994 
L 98.313478 287.119633 
L 100.350844 280.800974 
L 101.30127 278.388059 
L 103.551419 273.228997 
L 104.711027 270.729248 
L 107.096721 265.664017 
L 108.439772 262.839281 
L 110.868639 257.713354 
L 112.347011 254.60031 
L 114.836518 249.337539 
L 116.432397 245.972796 
L 119.325967 239.842422 
L 121.001185 236.309291 
L 123.894754 230.179214 
L 125.628864 226.521711 
L 128.522434 220.392665 
L 130.303855 216.635679 
L 133.197425 210.508451 
L 135.020885 206.663833 
L 137.914455 200.539965 
L 139.774244 196.621226 
L 142.667814 190.503859 
L 144.559625 186.523064 
L 147.453194 180.418615 
L 149.375334 176.385414 
L 152.268904 170.30681 
L 154.224173 166.227727 
L 157.117743 160.200865 
L 159.116832 156.079084 
L 162.010401 150.155328 
L 164.078085 145.992757 
L 166.971655 140.271888 
L 169.152643 136.089559 
L 172.046213 130.756543 
L 174.386633 126.688659 
L 177.280203 122.048187 
L 180.173773 117.941852 
L 183.067343 114.464885 
L 185.960912 111.680988 
L 188.854482 109.607792 
L 191.748052 108.21383 
L 194.641622 107.428233 
L 197.535192 107.15802 
L 200.029335 107.26483 
L 202.194678 107.564814 
L 204.42779 108.038242 
L 206.396056 108.570026 
L 208.400477 109.203107 
L 210.404898 109.914496 
L 212.151503 110.589719 
L 214.012779 111.359203 
L 215.874054 112.175453 
L 217.73533 113.035044 
L 219.596605 113.935841 
L 221.45788 114.876794 
L 223.319156 115.857773 
L 225.180431 116.879429 
L 227.041706 117.943085 
L 228.902982 119.050669 
L 230.764257 120.204668 
L 232.625532 121.408125 
L 234.487526 122.66517 
L 236.430793 124.038403 
L 238.555471 125.618314 
L 241.449041 127.918453 
L 244.342611 130.418029 
L 247.236181 133.159322 
L 250.12975 136.203851 
L 253.02332 139.646043 
L 255.91689 143.641217 
L 258.81046 148.470803 
L 261.70403 154.726104 
L 264.5976 163.99315 
L 265.176314 166.562096 
L 265.36414 167.470936 
L 265.434002 167.817223 
L 265.564531 168.471229 
L 265.665646 168.980675 
L 265.766762 169.490572 
L 265.88774 170.100719 
L 266.02344 170.785135 
L 266.295139 172.155847 
L 267.978402 180.770811 
L 268.584439 183.832673 
L 271.210753 197.593564 
L 272.025006 201.713438 
L 274.382042 213.964054 
L 275.424262 219.248583 
L 277.796488 231.58261 
L 279.048987 237.9487 
L 281.704705 251.873413 
L 283.10792 259.01877 
L 285.483521 271.364553 
L 287.043149 279.321153 
L 289.548628 292.377537 
L 291.216373 300.887369 
L 293.778925 314.226268 
L 295.530114 320.4 
L 298.135736 320.4 
L 299.980533 320.4 
L 302.719177 320.4 
L 304.750683 320.4 
L 307.644253 320.4 
L 310.020596 320.4 
L 312.914166 320.4 
L 315.807736 320.4 
L 318.701306 320.4 
L 321.594876 320.4 
L 324.379157 320.4 
" clip-path="url(#paeb47b82fd)" style="fill: none; stroke: #800080; stroke-width: 1.5; stroke-linecap: round"/>
   </g>
  </g>
  <g id="axes_2">
   <g id="patch_7">
    <path d="M 374.727273 320.4 
L 612 320.4 
L 612 43.2 
L 374.727273 43.2 
z
" style="fill: #ffffff"/>
   </g>
   <g id="matplotlib.axis_3">
    <g id="xtick_10">
     <g id="text_21">
      <!-- 0 -->
      <g style="fill: #262626" transform="translate(373.616968 340.20725) scale(0.144 -0.144)">
       <use xlink:href="#ArialMT-30"/>
      </g>
     </g>
    </g>
    <g id="xtick_11">
     <g id="text_22">
      <!-- 1 -->
      <g style="fill: #262626" transform="translate(402.552666 340.20725) scale(0.144 -0.144)">
       <use xlink:href="#ArialMT-31"/>
      </g>
     </g>
    </g>
    <g id="xtick_12">
     <g id="text_23">
      <!-- 2 -->
      <g style="fill: #262626" transform="translate(431.488364 340.20725) scale(0.144 -0.144)">
       <use xlink:href="#ArialMT-32"/>
      </g>
     </g>
    </g>
    <g id="xtick_13">
     <g id="text_24">
      <!-- 3 -->
      <g style="fill: #262626" transform="translate(460.424063 340.20725) scale(0.144 -0.144)">
       <use xlink:href="#ArialMT-33"/>
      </g>
     </g>
    </g>
    <g id="xtick_14">
     <g id="text_25">
      <!-- 4 -->
      <g style="fill: #262626" transform="translate(489.359761 340.20725) scale(0.144 -0.144)">
       <use xlink:href="#ArialMT-34"/>
      </g>
     </g>
    </g>
    <g id="xtick_15">
     <g id="text_26">
      <!-- 5 -->
      <g style="fill: #262626" transform="translate(518.29546 340.20725) scale(0.144 -0.144)">
       <use xlink:href="#ArialMT-35"/>
      </g>
     </g>
    </g>
    <g id="xtick_16">
     <g id="text_27">
      <!-- 6 -->
      <g style="fill: #262626" transform="translate(547.231158 340.20725) scale(0.144 -0.144)">
       <use xlink:href="#ArialMT-36"/>
      </g>
     </g>
    </g>
    <g id="xtick_17">
     <g id="text_28">
      <!-- 7 -->
      <g style="fill: #262626" transform="translate(576.166857 340.20725) scale(0.144 -0.144)">
       <use xlink:href="#ArialMT-37"/>
      </g>
     </g>
    </g>
    <g id="xtick_18">
     <g id="text_29">
      <!-- 8 -->
      <g style="fill: #262626" transform="translate(605.102555 340.20725) scale(0.144 -0.144)">
       <use xlink:href="#ArialMT-38"/>
      </g>
     </g>
    </g>
    <g id="text_30">
     <!-- Time (d) -->
     <g style="fill: #262626" transform="translate(457.993636 361.04625) scale(0.192 -0.192)">
      <use xlink:href="#ArialMT-54"/>
      <use xlink:href="#ArialMT-69" x="57.333984"/>
      <use xlink:href="#ArialMT-6d" x="79.550781"/>
      <use xlink:href="#ArialMT-65" x="162.851562"/>
      <use xlink:href="#ArialMT-20" x="218.466797"/>
      <use xlink:href="#ArialMT-28" x="246.25"/>
      <use xlink:href="#ArialMT-64" x="279.550781"/>
      <use xlink:href="#ArialMT-29" x="335.166016"/>
     </g>
    </g>
   </g>
   <g id="matplotlib.axis_4">
    <g id="ytick_10">
     <g id="text_31">
      <!-- 4.0 -->
      <g style="fill: #262626" transform="translate(345.211273 325.553625) scale(0.144 -0.144)">
       <defs>
        <path id="ArialMT-2e" d="M 581 0 
L 581 641 
L 1222 641 
L 1222 0 
L 581 0 
z
" transform="scale(0.015625)"/>
       </defs>
       <use xlink:href="#ArialMT-34"/>
       <use xlink:href="#ArialMT-2e" x="55.615234"/>
       <use xlink:href="#ArialMT-30" x="83.398438"/>
      </g>
     </g>
    </g>
    <g id="ytick_11">
     <g id="text_32">
      <!-- 4.5 -->
      <g style="fill: #262626" transform="translate(345.211273 290.903625) scale(0.144 -0.144)">
       <use xlink:href="#ArialMT-34"/>
       <use xlink:href="#ArialMT-2e" x="55.615234"/>
       <use xlink:href="#ArialMT-35" x="83.398438"/>
      </g>
     </g>
    </g>
    <g id="ytick_12">
     <g id="text_33">
      <!-- 5.0 -->
      <g style="fill: #262626" transform="translate(345.211273 256.253625) scale(0.144 -0.144)">
       <use xlink:href="#ArialMT-35"/>
       <use xlink:href="#ArialMT-2e" x="55.615234"/>
       <use xlink:href="#ArialMT-30" x="83.398438"/>
      </g>
     </g>
    </g>
    <g id="ytick_13">
     <g id="text_34">
      <!-- 5.5 -->
      <g style="fill: #262626" transform="translate(345.211273 221.603625) scale(0.144 -0.144)">
       <use xlink:href="#ArialMT-35"/>
       <use xlink:href="#ArialMT-2e" x="55.615234"/>
       <use xlink:href="#ArialMT-35" x="83.398438"/>
      </g>
     </g>
    </g>
    <g id="ytick_14">
     <g id="text_35">
      <!-- 6.0 -->
      <g style="fill: #262626" transform="translate(345.211273 186.953625) scale(0.144 -0.144)">
       <use xlink:href="#ArialMT-36"/>
       <use xlink:href="#ArialMT-2e" x="55.615234"/>
       <use xlink:href="#ArialMT-30" x="83.398438"/>
      </g>
     </g>
    </g>
    <g id="ytick_15">
     <g id="text_36">
      <!-- 6.5 -->
      <g style="fill: #262626" transform="translate(345.211273 152.303625) scale(0.144 -0.144)">
       <use xlink:href="#ArialMT-36"/>
       <use xlink:href="#ArialMT-2e" x="55.615234"/>
       <use xlink:href="#ArialMT-35" x="83.398438"/>
      </g>
     </g>
    </g>
    <g id="ytick_16">
     <g id="text_37">
      <!-- 7.0 -->
      <g style="fill: #262626" transform="translate(345.211273 117.653625) scale(0.144 -0.144)">
       <use xlink:href="#ArialMT-37"/>
       <use xlink:href="#ArialMT-2e" x="55.615234"/>
       <use xlink:href="#ArialMT-30" x="83.398438"/>
      </g>
     </g>
    </g>
    <g id="ytick_17">
     <g id="text_38">
      <!-- 7.5 -->
      <g style="fill: #262626" transform="translate(345.211273 83.003625) scale(0.144 -0.144)">
       <use xlink:href="#ArialMT-37"/>
       <use xlink:href="#ArialMT-2e" x="55.615234"/>
       <use xlink:href="#ArialMT-35" x="83.398438"/>
      </g>
     </g>
    </g>
    <g id="ytick_18">
     <g id="text_39">
      <!-- 8.0 -->
      <g style="fill: #262626" transform="translate(345.211273 48.353625) scale(0.144 -0.144)">
       <use xlink:href="#ArialMT-38"/>
       <use xlink:href="#ArialMT-2e" x="55.615234"/>
       <use xlink:href="#ArialMT-30" x="83.398438"/>
      </g>
     </g>
    </g>
    <g id="text_40">
     <!-- Log10(CD8TE) -->
     <g style="fill: #262626" transform="translate(337.170273 246.357) rotate(-90) scale(0.192 -0.192)">
      <defs>
       <path id="ArialMT-43" d="M 3763 1606 
L 4369 1453 
Q 4178 706 3683 314 
Q 3188 -78 2472 -78 
Q 1731 -78 1267 223 
Q 803 525 561 1097 
Q 319 1669 319 2325 
Q 319 3041 592 3573 
Q 866 4106 1370 4382 
Q 1875 4659 2481 4659 
Q 3169 4659 3637 4309 
Q 4106 3959 4291 3325 
L 3694 3184 
Q 3534 3684 3231 3912 
Q 2928 4141 2469 4141 
Q 1941 4141 1586 3887 
Q 1231 3634 1087 3207 
Q 944 2781 944 2328 
Q 944 1744 1114 1308 
Q 1284 872 1643 656 
Q 2003 441 2422 441 
Q 2931 441 3284 734 
Q 3638 1028 3763 1606 
z
" transform="scale(0.015625)"/>
       <path id="ArialMT-44" d="M 494 0 
L 494 4581 
L 2072 4581 
Q 2606 4581 2888 4516 
Q 3281 4425 3559 4188 
Q 3922 3881 4101 3404 
Q 4281 2928 4281 2316 
Q 4281 1794 4159 1391 
Q 4038 988 3847 723 
Q 3656 459 3429 307 
Q 3203 156 2883 78 
Q 2563 0 2147 0 
L 494 0 
z
M 1100 541 
L 2078 541 
Q 2531 541 2789 625 
Q 3047 709 3200 863 
Q 3416 1078 3536 1442 
Q 3656 1806 3656 2325 
Q 3656 3044 3420 3430 
Q 3184 3816 2847 3947 
Q 2603 4041 2063 4041 
L 1100 4041 
L 1100 541 
z
" transform="scale(0.015625)"/>
       <path id="ArialMT-45" d="M 506 0 
L 506 4581 
L 3819 4581 
L 3819 4041 
L 1113 4041 
L 1113 2638 
L 3647 2638 
L 3647 2100 
L 1113 2100 
L 1113 541 
L 3925 541 
L 3925 0 
L 506 0 
z
" transform="scale(0.015625)"/>
      </defs>
      <use xlink:href="#ArialMT-4c"/>
      <use xlink:href="#ArialMT-6f" x="55.615234"/>
      <use xlink:href="#ArialMT-67" x="111.230469"/>
      <use xlink:href="#ArialMT-31" x="166.845703"/>
      <use xlink:href="#ArialMT-30" x="222.460938"/>
      <use xlink:href="#ArialMT-28" x="278.076172"/>
      <use xlink:href="#ArialMT-43" x="311.376953"/>
      <use xlink:href="#ArialMT-44" x="383.59375"/>
      <use xlink:href="#ArialMT-38" x="455.810547"/>
      <use xlink:href="#ArialMT-54" x="511.425781"/>
      <use xlink:href="#ArialMT-45" x="572.509766"/>
      <use xlink:href="#ArialMT-29" x="639.208984"/>
     </g>
    </g>
   </g>
   <g id="patch_8">
    <path d="M 374.727273 320.4 
L 374.727273 43.2 
" style="fill: none; stroke: #262626; stroke-width: 1.25; stroke-linejoin: miter; stroke-linecap: square"/>
   </g>
   <g id="patch_9">
    <path d="M 612 320.4 
L 612 43.2 
" style="fill: none; stroke: #262626; stroke-width: 1.25; stroke-linejoin: miter; stroke-linecap: square"/>
   </g>
   <g id="patch_10">
    <path d="M 374.727273 320.4 
L 612 320.4 
" style="fill: none; stroke: #262626; stroke-width: 1.25; stroke-linejoin: miter; stroke-linecap: square"/>
   </g>
   <g id="patch_11">
    <path d="M 374.727273 43.2 
L 612 43.2 
" style="fill: none; stroke: #262626; stroke-width: 1.25; stroke-linejoin: miter; stroke-linecap: square"/>
   </g>
   <g id="PolyCollection_2">
    <defs>
     <path id="m588d5cfa79" d="M 377.620843 -92.528002 
L 377.620843 -92.528002 
L 377.62126 -92.528002 
L 377.625432 -92.528002 
L 377.667152 -92.528002 
L 377.909954 -92.528002 
L 378.051755 -92.528002 
L 378.614094 -92.528002 
L 378.908259 -92.528002 
L 380.005511 -92.528002 
L 380.519246 -92.528002 
L 382.31038 -92.528002 
L 383.04075 -92.528002 
L 385.078117 -92.528002 
L 386.028543 -92.528002 
L 388.278691 -92.528002 
L 389.4383 -92.528002 
L 391.823994 -92.528002 
L 393.167044 -92.528002 
L 395.595911 -92.528003 
L 397.074284 -92.528004 
L 399.56379 -92.528009 
L 401.15967 -92.528015 
L 404.05324 -92.528039 
L 405.728457 -92.528062 
L 408.622027 -92.528142 
L 410.356136 -92.528213 
L 413.249706 -92.528421 
L 415.031128 -92.528602 
L 417.924698 -92.529081 
L 419.748158 -92.529493 
L 422.641728 -92.530516 
L 424.501517 -92.5314 
L 427.395087 -92.533505 
L 429.286897 -92.53535 
L 432.180467 -92.539625 
L 434.102607 -92.543447 
L 436.996177 -92.552122 
L 438.951446 -92.560059 
L 441.845016 -92.577724 
L 443.844104 -92.594385 
L 446.737674 -92.630553 
L 448.805357 -92.666208 
L 451.698927 -92.740837 
L 453.879916 -92.819494 
L 456.773486 -92.975165 
L 459.113906 -93.153604 
L 462.007476 -93.479586 
L 464.901045 -93.954428 
L 467.794615 -94.65427 
L 470.688185 -95.670232 
L 473.581755 -97.117469 
L 476.475325 -99.126733 
L 479.368895 -101.826336 
L 482.262465 -105.312808 
L 484.756608 -108.985356 
L 486.921951 -112.598014 
L 489.155063 -116.763899 
L 491.123329 -120.702889 
L 493.12775 -124.933584 
L 495.13217 -129.284869 
L 496.878776 -133.121168 
L 498.740052 -137.189491 
L 500.601327 -141.19442 
L 502.462602 -145.046859 
L 504.323878 -148.613802 
L 506.185153 -151.99858 
L 508.046428 -155.183385 
L 509.907704 -158.198792 
L 511.768979 -160.978262 
L 513.630254 -163.540564 
L 515.49153 -165.885472 
L 517.352805 -167.64682 
L 519.214799 -169.14641 
L 521.158065 -170.42965 
L 523.282744 -171.640995 
L 526.176314 -172.901767 
L 529.069883 -173.764567 
L 531.963453 -174.271487 
L 534.857023 -174.46399 
L 537.750593 -174.301415 
L 540.644163 -173.299633 
L 543.537733 -172.180291 
L 546.431303 -170.968423 
L 549.324872 -169.685997 
L 549.903586 -169.422107 
L 550.091413 -169.335968 
L 550.161275 -169.303929 
L 550.291803 -169.244068 
L 550.392919 -169.197518 
L 550.494035 -169.150854 
L 550.615013 -169.095025 
L 550.750713 -169.032387 
L 551.022412 -168.906463 
L 552.705675 -168.117734 
L 553.311711 -167.830863 
L 555.938026 -166.570245 
L 556.752278 -166.174113 
L 559.109315 -165.02067 
L 560.151535 -164.505877 
L 562.523761 -163.329732 
L 563.77626 -162.705672 
L 566.431978 -161.379116 
L 567.835193 -160.67689 
L 570.210793 -159.487507 
L 571.770421 -158.706957 
L 574.275901 -157.266859 
L 575.943645 -156.164565 
L 578.506198 -154.472631 
L 580.257387 -153.319604 
L 582.863009 -151.610283 
L 584.707806 -150.392128 
L 587.44645 -148.562613 
L 589.477956 -147.217234 
L 592.371525 -145.317201 
L 594.747869 -143.774301 
L 597.641439 -141.916373 
L 600.535009 -140.08424 
L 603.428579 -138.016778 
L 606.322149 -135.752456 
L 609.10643 -133.618683 
L 609.10643 -155.738067 
L 609.10643 -155.738067 
L 606.322149 -157.131239 
L 603.428579 -158.585753 
L 600.535009 -160.047127 
L 597.641439 -161.514272 
L 594.747869 -162.985883 
L 592.371525 -164.196613 
L 589.477956 -165.67215 
L 587.44645 -166.707879 
L 584.707806 -168.101484 
L 582.863009 -169.037721 
L 580.257387 -170.353373 
L 578.506198 -171.232484 
L 575.943645 -172.508639 
L 574.275901 -173.330387 
L 571.770421 -174.548949 
L 570.210793 -175.296224 
L 567.835193 -176.411919 
L 566.431978 -177.057728 
L 563.77626 -178.267424 
L 562.523761 -178.932265 
L 560.151535 -180.133396 
L 559.109315 -180.641065 
L 556.752278 -181.718554 
L 555.938026 -182.06726 
L 553.311711 -183.112815 
L 552.705675 -183.353246 
L 551.022412 -184.04796 
L 550.750713 -184.156492 
L 550.615013 -184.210018 
L 550.494035 -184.257283 
L 550.392919 -184.296787 
L 550.291803 -184.336292 
L 550.161275 -184.387287 
L 550.091413 -184.414581 
L 549.903586 -184.486154 
L 549.324872 -184.705326 
L 546.431303 -185.693605 
L 543.537733 -186.524813 
L 540.644163 -187.154983 
L 537.750593 -187.550228 
L 534.857023 -187.673913 
L 531.963453 -187.486985 
L 529.069883 -187.010955 
L 526.176314 -186.669144 
L 523.282744 -185.91911 
L 521.158065 -185.096316 
L 519.214799 -184.055847 
L 517.352805 -183.072905 
L 515.49153 -182.020583 
L 513.630254 -180.745514 
L 511.768979 -179.356214 
L 509.907704 -177.793306 
L 508.046428 -175.92844 
L 506.185153 -173.79877 
L 504.323878 -171.388148 
L 502.462602 -168.686937 
L 500.601327 -165.668732 
L 498.740052 -162.363129 
L 496.878776 -158.782527 
L 495.13217 -155.17777 
L 493.12775 -150.791004 
L 491.123329 -146.171389 
L 489.155063 -141.453648 
L 486.921951 -135.979356 
L 484.756608 -130.640864 
L 482.262465 -124.602813 
L 479.368895 -118.026532 
L 476.475325 -112.113029 
L 473.581755 -107.081853 
L 470.688185 -103.019813 
L 467.794615 -99.896871 
L 464.901045 -97.595827 
L 462.007476 -95.954367 
L 459.113906 -94.844066 
L 456.773486 -94.173264 
L 453.879916 -93.629289 
L 451.698927 -93.320135 
L 448.805357 -93.056317 
L 446.737674 -92.912324 
L 443.844104 -92.783898 
L 441.845016 -92.71557 
L 438.951446 -92.652738 
L 436.996177 -92.621428 
L 434.102607 -92.589769 
L 432.180467 -92.574907 
L 429.286897 -92.558954 
L 427.395087 -92.551538 
L 424.501517 -92.543452 
L 422.641728 -92.539729 
L 419.748158 -92.535595 
L 417.924698 -92.533715 
L 415.031128 -92.531587 
L 413.249706 -92.53064 
L 410.356136 -92.529557 
L 408.622027 -92.529097 
L 405.728457 -92.52858 
L 404.05324 -92.52838 
L 401.15967 -92.528169 
L 399.56379 -92.528099 
L 397.074284 -92.528042 
L 395.595911 -92.528022 
L 393.167044 -92.528008 
L 391.823994 -92.528004 
L 389.4383 -92.528002 
L 388.278691 -92.528002 
L 386.028543 -92.528002 
L 385.078117 -92.528002 
L 383.04075 -92.528002 
L 382.31038 -92.528002 
L 380.519246 -92.528002 
L 380.005511 -92.528002 
L 378.908259 -92.528002 
L 378.614094 -92.528002 
L 378.051755 -92.528002 
L 377.909954 -92.528002 
L 377.667152 -92.528002 
L 377.625432 -92.528002 
L 377.62126 -92.528002 
L 377.620843 -92.528002 
z
" style="stroke: #800080; stroke-opacity: 0.2"/>
    </defs>
    <g clip-path="url(#p0c8d42ae4b)">
     <use xlink:href="#m588d5cfa79" x="0" y="360" style="fill: #800080; fill-opacity: 0.2; stroke: #800080; stroke-opacity: 0.2"/>
    </g>
   </g>
   <g id="PathCollection_2">
    <g clip-path="url(#p0c8d42ae4b)">
     <use xlink:href="#m3651b3291c" x="377.620843" y="267.471998" style="fill: #800080; fill-opacity: 0.8; stroke: #800080; stroke-opacity: 0.8"/>
     <use xlink:href="#m3651b3291c" x="406.556541" y="247.921207" style="fill: #800080; fill-opacity: 0.8; stroke: #800080; stroke-opacity: 0.8"/>
     <use xlink:href="#m3651b3291c" x="464.427938" y="242.642375" style="fill: #800080; fill-opacity: 0.8; stroke: #800080; stroke-opacity: 0.8"/>
     <use xlink:href="#m3651b3291c" x="493.363636" y="216.903335" style="fill: #800080; fill-opacity: 0.8; stroke: #800080; stroke-opacity: 0.8"/>
     <use xlink:href="#m3651b3291c" x="522.299335" y="194.556157" style="fill: #800080; fill-opacity: 0.8; stroke: #800080; stroke-opacity: 0.8"/>
     <use xlink:href="#m3651b3291c" x="551.235033" y="190.333444" style="fill: #800080; fill-opacity: 0.8; stroke: #800080; stroke-opacity: 0.8"/>
     <use xlink:href="#m3651b3291c" x="580.170732" y="185.70752" style="fill: #800080; fill-opacity: 0.8; stroke: #800080; stroke-opacity: 0.8"/>
    </g>
   </g>
   <g id="line2d_2">
    <path d="M 377.620843 267.471998 
L 377.62126 267.471998 
L 377.625432 267.471998 
L 377.667152 267.471998 
L 377.909954 267.471998 
L 378.051755 267.471998 
L 378.614094 267.471998 
L 378.908259 267.471998 
L 380.005511 267.471998 
L 380.519246 267.471998 
L 382.31038 267.471998 
L 383.04075 267.471998 
L 385.078117 267.471998 
L 386.028543 267.471998 
L 388.278691 267.471998 
L 389.4383 267.471998 
L 391.823994 267.471997 
L 393.167044 267.471996 
L 395.595911 267.471989 
L 397.074284 267.471981 
L 399.56379 267.47195 
L 401.15967 267.471914 
L 404.05324 267.471792 
L 405.728457 267.471675 
L 408.622027 267.471348 
L 410.356136 267.471053 
L 413.249706 267.47032 
L 415.031128 267.469675 
L 417.924698 267.468173 
L 419.748158 267.466847 
L 422.641728 267.463866 
L 424.501517 267.461192 
L 427.395087 267.455293 
L 429.286897 267.449897 
L 432.180467 267.438156 
L 434.102607 267.427207 
L 436.996177 267.403694 
L 438.951446 267.381322 
L 441.845016 267.333998 
L 443.844104 267.287834 
L 446.737674 267.192176 
L 448.805357 267.095334 
L 451.698927 266.901088 
L 453.879916 266.692743 
L 456.773486 266.296415 
L 459.113906 265.839016 
L 462.007476 265.031957 
L 464.901045 263.857778 
L 467.794615 262.183704 
L 470.688185 259.861204 
L 473.581755 256.750418 
L 476.475325 252.757994 
L 479.368895 247.876769 
L 482.262465 242.207546 
L 484.756608 236.840846 
L 486.921951 231.951587 
L 489.155063 226.809269 
L 491.123329 222.286979 
L 493.12775 217.770144 
L 495.13217 213.40805 
L 496.878776 209.77454 
L 498.740052 206.107397 
L 500.601327 202.675817 
L 502.462602 199.497002 
L 504.323878 196.581407 
L 506.185153 193.933774 
L 508.046428 191.554098 
L 509.907704 189.438518 
L 511.768979 187.580088 
L 513.630254 185.969461 
L 515.49153 184.595465 
L 517.352805 183.445598 
L 519.214799 182.506117 
L 521.158065 181.735348 
L 523.282744 181.118769 
L 526.176314 180.621073 
L 529.069883 180.470719 
L 531.963453 180.618216 
L 534.857023 181.017502 
L 537.750593 181.626593 
L 540.644163 182.407976 
L 543.537733 183.328758 
L 546.431303 184.360615 
L 549.324872 185.479579 
L 549.903586 185.712186 
L 550.091413 185.78823 
L 550.161275 185.816581 
L 550.291803 185.869648 
L 550.392919 185.910841 
L 550.494035 185.952108 
L 550.615013 186.001577 
L 550.750713 186.057187 
L 551.022412 186.168912 
L 552.705675 186.871549 
L 553.311711 187.128686 
L 555.938026 188.26391 
L 556.752278 188.622097 
L 559.109315 189.671825 
L 560.151535 190.141323 
L 562.523761 191.219255 
L 563.77626 191.792721 
L 566.431978 193.0157 
L 567.835193 193.664825 
L 570.210793 194.766642 
L 571.770421 195.491219 
L 574.275901 196.655911 
L 575.943645 197.430989 
L 578.506198 198.620662 
L 580.257387 199.43224 
L 582.863009 200.636992 
L 584.707806 201.48749 
L 587.44645 202.745785 
L 589.477956 203.675447 
L 592.371525 204.993706 
L 594.747869 206.070681 
L 597.641439 207.374816 
L 600.535009 208.670501 
L 603.428579 209.957296 
L 606.322149 211.23479 
L 609.10643 212.454878 
" clip-path="url(#p0c8d42ae4b)" style="fill: none; stroke: #800080; stroke-width: 1.5; stroke-linecap: round"/>
   </g>
  </g>
  <g id="legend_1">
   <g id="patch_12">
    <path d="M 769.44 42.519 
L 862.911 42.519 
Q 866.751 42.519 866.751 38.679 
L 866.751 13.44 
Q 866.751 9.6 862.911 9.6 
L 769.44 9.6 
Q 765.6 9.6 765.6 13.44 
L 765.6 38.679 
Q 765.6 42.519 769.44 42.519 
z
" style="fill: #ffffff; opacity: 0.8; stroke: #cccccc; stroke-linejoin: miter"/>
   </g>
   <g id="PathCollection_3">
    <g>
     <use xlink:href="#m3651b3291c" x="792.48" y="25.983" style="fill: #800080; fill-opacity: 0.8; stroke: #800080; stroke-opacity: 0.8"/>
    </g>
   </g>
   <g id="text_41">
    <!-- 107 -->
    <g style="fill: #262626" transform="translate(827.04 31.023) scale(0.192 -0.192)">
     <use xlink:href="#ArialMT-31"/>
     <use xlink:href="#ArialMT-30" x="55.615234"/>
     <use xlink:href="#ArialMT-37" x="111.230469"/>
    </g>
   </g>
  </g>
 </g>
 <defs>
  <clipPath id="paeb47b82fd">
   <rect x="90" y="43.2" width="237.272727" height="277.2"/>
  </clipPath>
  <clipPath id="p0c8d42ae4b">
   <rect x="374.727273" y="43.2" width="237.272727" height="277.2"/>
  </clipPath>
 </defs>
</svg>
