<?xml version="1.0" encoding="utf-8" standalone="no"?>
<!DOCTYPE svg PUBLIC "-//W3C//DTD SVG 1.1//EN"
  "http://www.w3.org/Graphics/SVG/1.1/DTD/svg11.dtd">
<svg xmlns:xlink="http://www.w3.org/1999/xlink" width="720pt" height="360pt" viewBox="0 0 720 360" xmlns="http://www.w3.org/2000/svg" version="1.1">
 <metadata>
  <rdf:RDF xmlns:dc="http://purl.org/dc/elements/1.1/" xmlns:cc="http://creativecommons.org/ns#" xmlns:rdf="http://www.w3.org/1999/02/22-rdf-syntax-ns#">
   <cc:Work>
    <dc:type rdf:resource="http://purl.org/dc/dcmitype/StillImage"/>
    <dc:date>2024-12-11T10:40:12.732868</dc:date>
    <dc:format>image/svg+xml</dc:format>
    <dc:creator>
     <cc:Agent>
      <dc:title>Matplotlib v3.9.2, https://matplotlib.org/</dc:title>
     </cc:Agent>
    </dc:creator>
   </cc:Work>
  </rdf:RDF>
 </metadata>
 <defs>
  <style type="text/css">*{stroke-linejoin: round; stroke-linecap: butt}</style>
 </defs>
 <g id="figure_1">
  <g id="patch_1">
   <path d="M 0 360 
L 720 360 
L 720 0 
L 0 0 
z
" style="fill: #ffffff"/>
  </g>
  <g id="axes_1">
   <g id="patch_2">
    <path d="M 90 320.4 
L 327.272727 320.4 
L 327.272727 43.2 
L 90 43.2 
z
" style="fill: #ffffff"/>
   </g>
   <g id="matplotlib.axis_1">
    <g id="xtick_1">
     <g id="line2d_1">
      <defs>
       <path id="m3303cc38bc" d="M 0 0 
L 0 3.5 
" style="stroke: #000000; stroke-width: 0.8"/>
      </defs>
      <g>
       <use xlink:href="#m3303cc38bc" x="92.89357" y="320.4" style="stroke: #000000; stroke-width: 0.8"/>
      </g>
     </g>
     <g id="text_1">
      <!-- 0 -->
      <g transform="translate(88.31257 338.34175) scale(0.144 -0.144)">
       <defs>
        <path id="DejaVuSans-30" d="M 2034 4250 
Q 1547 4250 1301 3770 
Q 1056 3291 1056 2328 
Q 1056 1369 1301 889 
Q 1547 409 2034 409 
Q 2525 409 2770 889 
Q 3016 1369 3016 2328 
Q 3016 3291 2770 3770 
Q 2525 4250 2034 4250 
z
M 2034 4750 
Q 2819 4750 3233 4129 
Q 3647 3509 3647 2328 
Q 3647 1150 3233 529 
Q 2819 -91 2034 -91 
Q 1250 -91 836 529 
Q 422 1150 422 2328 
Q 422 3509 836 4129 
Q 1250 4750 2034 4750 
z
" transform="scale(0.015625)"/>
       </defs>
       <use xlink:href="#DejaVuSans-30"/>
      </g>
     </g>
    </g>
    <g id="xtick_2">
     <g id="line2d_2">
      <g>
       <use xlink:href="#m3303cc38bc" x="121.829268" y="320.4" style="stroke: #000000; stroke-width: 0.8"/>
      </g>
     </g>
     <g id="text_2">
      <!-- 1 -->
      <g transform="translate(117.248268 338.34175) scale(0.144 -0.144)">
       <defs>
        <path id="DejaVuSans-31" d="M 794 531 
L 1825 531 
L 1825 4091 
L 703 3866 
L 703 4441 
L 1819 4666 
L 2450 4666 
L 2450 531 
L 3481 531 
L 3481 0 
L 794 0 
L 794 531 
z
" transform="scale(0.015625)"/>
       </defs>
       <use xlink:href="#DejaVuSans-31"/>
      </g>
     </g>
    </g>
    <g id="xtick_3">
     <g id="line2d_3">
      <g>
       <use xlink:href="#m3303cc38bc" x="150.764967" y="320.4" style="stroke: #000000; stroke-width: 0.8"/>
      </g>
     </g>
     <g id="text_3">
      <!-- 2 -->
      <g transform="translate(146.183967 338.34175) scale(0.144 -0.144)">
       <defs>
        <path id="DejaVuSans-32" d="M 1228 531 
L 3431 531 
L 3431 0 
L 469 0 
L 469 531 
Q 828 903 1448 1529 
Q 2069 2156 2228 2338 
Q 2531 2678 2651 2914 
Q 2772 3150 2772 3378 
Q 2772 3750 2511 3984 
Q 2250 4219 1831 4219 
Q 1534 4219 1204 4116 
Q 875 4013 500 3803 
L 500 4441 
Q 881 4594 1212 4672 
Q 1544 4750 1819 4750 
Q 2544 4750 2975 4387 
Q 3406 4025 3406 3419 
Q 3406 3131 3298 2873 
Q 3191 2616 2906 2266 
Q 2828 2175 2409 1742 
Q 1991 1309 1228 531 
z
" transform="scale(0.015625)"/>
       </defs>
       <use xlink:href="#DejaVuSans-32"/>
      </g>
     </g>
    </g>
    <g id="xtick_4">
     <g id="line2d_4">
      <g>
       <use xlink:href="#m3303cc38bc" x="179.700665" y="320.4" style="stroke: #000000; stroke-width: 0.8"/>
      </g>
     </g>
     <g id="text_4">
      <!-- 3 -->
      <g transform="translate(175.119665 338.34175) scale(0.144 -0.144)">
       <defs>
        <path id="DejaVuSans-33" d="M 2597 2516 
Q 3050 2419 3304 2112 
Q 3559 1806 3559 1356 
Q 3559 666 3084 287 
Q 2609 -91 1734 -91 
Q 1441 -91 1130 -33 
Q 819 25 488 141 
L 488 750 
Q 750 597 1062 519 
Q 1375 441 1716 441 
Q 2309 441 2620 675 
Q 2931 909 2931 1356 
Q 2931 1769 2642 2001 
Q 2353 2234 1838 2234 
L 1294 2234 
L 1294 2753 
L 1863 2753 
Q 2328 2753 2575 2939 
Q 2822 3125 2822 3475 
Q 2822 3834 2567 4026 
Q 2313 4219 1838 4219 
Q 1578 4219 1281 4162 
Q 984 4106 628 3988 
L 628 4550 
Q 988 4650 1302 4700 
Q 1616 4750 1894 4750 
Q 2613 4750 3031 4423 
Q 3450 4097 3450 3541 
Q 3450 3153 3228 2886 
Q 3006 2619 2597 2516 
z
" transform="scale(0.015625)"/>
       </defs>
       <use xlink:href="#DejaVuSans-33"/>
      </g>
     </g>
    </g>
    <g id="xtick_5">
     <g id="line2d_5">
      <g>
       <use xlink:href="#m3303cc38bc" x="208.636364" y="320.4" style="stroke: #000000; stroke-width: 0.8"/>
      </g>
     </g>
     <g id="text_5">
      <!-- 4 -->
      <g transform="translate(204.055364 338.34175) scale(0.144 -0.144)">
       <defs>
        <path id="DejaVuSans-34" d="M 2419 4116 
L 825 1625 
L 2419 1625 
L 2419 4116 
z
M 2253 4666 
L 3047 4666 
L 3047 1625 
L 3713 1625 
L 3713 1100 
L 3047 1100 
L 3047 0 
L 2419 0 
L 2419 1100 
L 313 1100 
L 313 1709 
L 2253 4666 
z
" transform="scale(0.015625)"/>
       </defs>
       <use xlink:href="#DejaVuSans-34"/>
      </g>
     </g>
    </g>
    <g id="xtick_6">
     <g id="line2d_6">
      <g>
       <use xlink:href="#m3303cc38bc" x="237.572062" y="320.4" style="stroke: #000000; stroke-width: 0.8"/>
      </g>
     </g>
     <g id="text_6">
      <!-- 5 -->
      <g transform="translate(232.991062 338.34175) scale(0.144 -0.144)">
       <defs>
        <path id="DejaVuSans-35" d="M 691 4666 
L 3169 4666 
L 3169 4134 
L 1269 4134 
L 1269 2991 
Q 1406 3038 1543 3061 
Q 1681 3084 1819 3084 
Q 2600 3084 3056 2656 
Q 3513 2228 3513 1497 
Q 3513 744 3044 326 
Q 2575 -91 1722 -91 
Q 1428 -91 1123 -41 
Q 819 9 494 109 
L 494 744 
Q 775 591 1075 516 
Q 1375 441 1709 441 
Q 2250 441 2565 725 
Q 2881 1009 2881 1497 
Q 2881 1984 2565 2268 
Q 2250 2553 1709 2553 
Q 1456 2553 1204 2497 
Q 953 2441 691 2322 
L 691 4666 
z
" transform="scale(0.015625)"/>
       </defs>
       <use xlink:href="#DejaVuSans-35"/>
      </g>
     </g>
    </g>
    <g id="xtick_7">
     <g id="line2d_7">
      <g>
       <use xlink:href="#m3303cc38bc" x="266.507761" y="320.4" style="stroke: #000000; stroke-width: 0.8"/>
      </g>
     </g>
     <g id="text_7">
      <!-- 6 -->
      <g transform="translate(261.926761 338.34175) scale(0.144 -0.144)">
       <defs>
        <path id="DejaVuSans-36" d="M 2113 2584 
Q 1688 2584 1439 2293 
Q 1191 2003 1191 1497 
Q 1191 994 1439 701 
Q 1688 409 2113 409 
Q 2538 409 2786 701 
Q 3034 994 3034 1497 
Q 3034 2003 2786 2293 
Q 2538 2584 2113 2584 
z
M 3366 4563 
L 3366 3988 
Q 3128 4100 2886 4159 
Q 2644 4219 2406 4219 
Q 1781 4219 1451 3797 
Q 1122 3375 1075 2522 
Q 1259 2794 1537 2939 
Q 1816 3084 2150 3084 
Q 2853 3084 3261 2657 
Q 3669 2231 3669 1497 
Q 3669 778 3244 343 
Q 2819 -91 2113 -91 
Q 1303 -91 875 529 
Q 447 1150 447 2328 
Q 447 3434 972 4092 
Q 1497 4750 2381 4750 
Q 2619 4750 2861 4703 
Q 3103 4656 3366 4563 
z
" transform="scale(0.015625)"/>
       </defs>
       <use xlink:href="#DejaVuSans-36"/>
      </g>
     </g>
    </g>
    <g id="xtick_8">
     <g id="line2d_8">
      <g>
       <use xlink:href="#m3303cc38bc" x="295.443459" y="320.4" style="stroke: #000000; stroke-width: 0.8"/>
      </g>
     </g>
     <g id="text_8">
      <!-- 7 -->
      <g transform="translate(290.862459 338.34175) scale(0.144 -0.144)">
       <defs>
        <path id="DejaVuSans-37" d="M 525 4666 
L 3525 4666 
L 3525 4397 
L 1831 0 
L 1172 0 
L 2766 4134 
L 525 4134 
L 525 4666 
z
" transform="scale(0.015625)"/>
       </defs>
       <use xlink:href="#DejaVuSans-37"/>
      </g>
     </g>
    </g>
    <g id="xtick_9">
     <g id="line2d_9">
      <g>
       <use xlink:href="#m3303cc38bc" x="324.379157" y="320.4" style="stroke: #000000; stroke-width: 0.8"/>
      </g>
     </g>
     <g id="text_9">
      <!-- 8 -->
      <g transform="translate(319.798157 338.34175) scale(0.144 -0.144)">
       <defs>
        <path id="DejaVuSans-38" d="M 2034 2216 
Q 1584 2216 1326 1975 
Q 1069 1734 1069 1313 
Q 1069 891 1326 650 
Q 1584 409 2034 409 
Q 2484 409 2743 651 
Q 3003 894 3003 1313 
Q 3003 1734 2745 1975 
Q 2488 2216 2034 2216 
z
M 1403 2484 
Q 997 2584 770 2862 
Q 544 3141 544 3541 
Q 544 4100 942 4425 
Q 1341 4750 2034 4750 
Q 2731 4750 3128 4425 
Q 3525 4100 3525 3541 
Q 3525 3141 3298 2862 
Q 3072 2584 2669 2484 
Q 3125 2378 3379 2068 
Q 3634 1759 3634 1313 
Q 3634 634 3220 271 
Q 2806 -91 2034 -91 
Q 1263 -91 848 271 
Q 434 634 434 1313 
Q 434 1759 690 2068 
Q 947 2378 1403 2484 
z
M 1172 3481 
Q 1172 3119 1398 2916 
Q 1625 2713 2034 2713 
Q 2441 2713 2670 2916 
Q 2900 3119 2900 3481 
Q 2900 3844 2670 4047 
Q 2441 4250 2034 4250 
Q 1625 4250 1398 4047 
Q 1172 3844 1172 3481 
z
" transform="scale(0.015625)"/>
       </defs>
       <use xlink:href="#DejaVuSans-38"/>
      </g>
     </g>
    </g>
    <g id="text_10">
     <!-- Time (d) -->
     <g transform="translate(168.511364 359.9255) scale(0.192 -0.192)">
      <defs>
       <path id="DejaVuSans-54" d="M -19 4666 
L 3928 4666 
L 3928 4134 
L 2272 4134 
L 2272 0 
L 1638 0 
L 1638 4134 
L -19 4134 
L -19 4666 
z
" transform="scale(0.015625)"/>
       <path id="DejaVuSans-69" d="M 603 3500 
L 1178 3500 
L 1178 0 
L 603 0 
L 603 3500 
z
M 603 4863 
L 1178 4863 
L 1178 4134 
L 603 4134 
L 603 4863 
z
" transform="scale(0.015625)"/>
       <path id="DejaVuSans-6d" d="M 3328 2828 
Q 3544 3216 3844 3400 
Q 4144 3584 4550 3584 
Q 5097 3584 5394 3201 
Q 5691 2819 5691 2113 
L 5691 0 
L 5113 0 
L 5113 2094 
Q 5113 2597 4934 2840 
Q 4756 3084 4391 3084 
Q 3944 3084 3684 2787 
Q 3425 2491 3425 1978 
L 3425 0 
L 2847 0 
L 2847 2094 
Q 2847 2600 2669 2842 
Q 2491 3084 2119 3084 
Q 1678 3084 1418 2786 
Q 1159 2488 1159 1978 
L 1159 0 
L 581 0 
L 581 3500 
L 1159 3500 
L 1159 2956 
Q 1356 3278 1631 3431 
Q 1906 3584 2284 3584 
Q 2666 3584 2933 3390 
Q 3200 3197 3328 2828 
z
" transform="scale(0.015625)"/>
       <path id="DejaVuSans-65" d="M 3597 1894 
L 3597 1613 
L 953 1613 
Q 991 1019 1311 708 
Q 1631 397 2203 397 
Q 2534 397 2845 478 
Q 3156 559 3463 722 
L 3463 178 
Q 3153 47 2828 -22 
Q 2503 -91 2169 -91 
Q 1331 -91 842 396 
Q 353 884 353 1716 
Q 353 2575 817 3079 
Q 1281 3584 2069 3584 
Q 2775 3584 3186 3129 
Q 3597 2675 3597 1894 
z
M 3022 2063 
Q 3016 2534 2758 2815 
Q 2500 3097 2075 3097 
Q 1594 3097 1305 2825 
Q 1016 2553 972 2059 
L 3022 2063 
z
" transform="scale(0.015625)"/>
       <path id="DejaVuSans-20" transform="scale(0.015625)"/>
       <path id="DejaVuSans-28" d="M 1984 4856 
Q 1566 4138 1362 3434 
Q 1159 2731 1159 2009 
Q 1159 1288 1364 580 
Q 1569 -128 1984 -844 
L 1484 -844 
Q 1016 -109 783 600 
Q 550 1309 550 2009 
Q 550 2706 781 3412 
Q 1013 4119 1484 4856 
L 1984 4856 
z
" transform="scale(0.015625)"/>
       <path id="DejaVuSans-64" d="M 2906 2969 
L 2906 4863 
L 3481 4863 
L 3481 0 
L 2906 0 
L 2906 525 
Q 2725 213 2448 61 
Q 2172 -91 1784 -91 
Q 1150 -91 751 415 
Q 353 922 353 1747 
Q 353 2572 751 3078 
Q 1150 3584 1784 3584 
Q 2172 3584 2448 3432 
Q 2725 3281 2906 2969 
z
M 947 1747 
Q 947 1113 1208 752 
Q 1469 391 1925 391 
Q 2381 391 2643 752 
Q 2906 1113 2906 1747 
Q 2906 2381 2643 2742 
Q 2381 3103 1925 3103 
Q 1469 3103 1208 2742 
Q 947 2381 947 1747 
z
" transform="scale(0.015625)"/>
       <path id="DejaVuSans-29" d="M 513 4856 
L 1013 4856 
Q 1481 4119 1714 3412 
Q 1947 2706 1947 2009 
Q 1947 1309 1714 600 
Q 1481 -109 1013 -844 
L 513 -844 
Q 928 -128 1133 580 
Q 1338 1288 1338 2009 
Q 1338 2731 1133 3434 
Q 928 4138 513 4856 
z
" transform="scale(0.015625)"/>
      </defs>
      <use xlink:href="#DejaVuSans-54"/>
      <use xlink:href="#DejaVuSans-69" x="57.958984"/>
      <use xlink:href="#DejaVuSans-6d" x="85.742188"/>
      <use xlink:href="#DejaVuSans-65" x="183.154297"/>
      <use xlink:href="#DejaVuSans-20" x="244.677734"/>
      <use xlink:href="#DejaVuSans-28" x="276.464844"/>
      <use xlink:href="#DejaVuSans-64" x="315.478516"/>
      <use xlink:href="#DejaVuSans-29" x="378.955078"/>
     </g>
    </g>
   </g>
   <g id="matplotlib.axis_2">
    <g id="ytick_1">
     <g id="line2d_10">
      <defs>
       <path id="m356230f6f9" d="M 0 0 
L -3.5 0 
" style="stroke: #000000; stroke-width: 0.8"/>
      </defs>
      <g>
       <use xlink:href="#m356230f6f9" x="90" y="320.4" style="stroke: #000000; stroke-width: 0.8"/>
      </g>
     </g>
     <g id="text_11">
      <!-- 0 -->
      <g transform="translate(73.838 325.870875) scale(0.144 -0.144)">
       <use xlink:href="#DejaVuSans-30"/>
      </g>
     </g>
    </g>
    <g id="ytick_2">
     <g id="line2d_11">
      <g>
       <use xlink:href="#m356230f6f9" x="90" y="286.8" style="stroke: #000000; stroke-width: 0.8"/>
      </g>
     </g>
     <g id="text_12">
      <!-- 1 -->
      <g transform="translate(73.838 292.270875) scale(0.144 -0.144)">
       <use xlink:href="#DejaVuSans-31"/>
      </g>
     </g>
    </g>
    <g id="ytick_3">
     <g id="line2d_12">
      <g>
       <use xlink:href="#m356230f6f9" x="90" y="253.2" style="stroke: #000000; stroke-width: 0.8"/>
      </g>
     </g>
     <g id="text_13">
      <!-- 2 -->
      <g transform="translate(73.838 258.670875) scale(0.144 -0.144)">
       <use xlink:href="#DejaVuSans-32"/>
      </g>
     </g>
    </g>
    <g id="ytick_4">
     <g id="line2d_13">
      <g>
       <use xlink:href="#m356230f6f9" x="90" y="219.6" style="stroke: #000000; stroke-width: 0.8"/>
      </g>
     </g>
     <g id="text_14">
      <!-- 3 -->
      <g transform="translate(73.838 225.070875) scale(0.144 -0.144)">
       <use xlink:href="#DejaVuSans-33"/>
      </g>
     </g>
    </g>
    <g id="ytick_5">
     <g id="line2d_14">
      <g>
       <use xlink:href="#m356230f6f9" x="90" y="186" style="stroke: #000000; stroke-width: 0.8"/>
      </g>
     </g>
     <g id="text_15">
      <!-- 4 -->
      <g transform="translate(73.838 191.470875) scale(0.144 -0.144)">
       <use xlink:href="#DejaVuSans-34"/>
      </g>
     </g>
    </g>
    <g id="ytick_6">
     <g id="line2d_15">
      <g>
       <use xlink:href="#m356230f6f9" x="90" y="152.4" style="stroke: #000000; stroke-width: 0.8"/>
      </g>
     </g>
     <g id="text_16">
      <!-- 5 -->
      <g transform="translate(73.838 157.870875) scale(0.144 -0.144)">
       <use xlink:href="#DejaVuSans-35"/>
      </g>
     </g>
    </g>
    <g id="ytick_7">
     <g id="line2d_16">
      <g>
       <use xlink:href="#m356230f6f9" x="90" y="118.8" style="stroke: #000000; stroke-width: 0.8"/>
      </g>
     </g>
     <g id="text_17">
      <!-- 6 -->
      <g transform="translate(73.838 124.270875) scale(0.144 -0.144)">
       <use xlink:href="#DejaVuSans-36"/>
      </g>
     </g>
    </g>
    <g id="ytick_8">
     <g id="line2d_17">
      <g>
       <use xlink:href="#m356230f6f9" x="90" y="85.2" style="stroke: #000000; stroke-width: 0.8"/>
      </g>
     </g>
     <g id="text_18">
      <!-- 7 -->
      <g transform="translate(73.838 90.670875) scale(0.144 -0.144)">
       <use xlink:href="#DejaVuSans-37"/>
      </g>
     </g>
    </g>
    <g id="ytick_9">
     <g id="line2d_18">
      <g>
       <use xlink:href="#m356230f6f9" x="90" y="51.6" style="stroke: #000000; stroke-width: 0.8"/>
      </g>
     </g>
     <g id="text_19">
      <!-- 8 -->
      <g transform="translate(73.838 57.070875) scale(0.144 -0.144)">
       <use xlink:href="#DejaVuSans-38"/>
      </g>
     </g>
    </g>
    <g id="text_20">
     <!-- Log10(V) -->
     <g transform="translate(65.845 225.2235) rotate(-90) scale(0.192 -0.192)">
      <defs>
       <path id="DejaVuSans-4c" d="M 628 4666 
L 1259 4666 
L 1259 531 
L 3531 531 
L 3531 0 
L 628 0 
L 628 4666 
z
" transform="scale(0.015625)"/>
       <path id="DejaVuSans-6f" d="M 1959 3097 
Q 1497 3097 1228 2736 
Q 959 2375 959 1747 
Q 959 1119 1226 758 
Q 1494 397 1959 397 
Q 2419 397 2687 759 
Q 2956 1122 2956 1747 
Q 2956 2369 2687 2733 
Q 2419 3097 1959 3097 
z
M 1959 3584 
Q 2709 3584 3137 3096 
Q 3566 2609 3566 1747 
Q 3566 888 3137 398 
Q 2709 -91 1959 -91 
Q 1206 -91 779 398 
Q 353 888 353 1747 
Q 353 2609 779 3096 
Q 1206 3584 1959 3584 
z
" transform="scale(0.015625)"/>
       <path id="DejaVuSans-67" d="M 2906 1791 
Q 2906 2416 2648 2759 
Q 2391 3103 1925 3103 
Q 1463 3103 1205 2759 
Q 947 2416 947 1791 
Q 947 1169 1205 825 
Q 1463 481 1925 481 
Q 2391 481 2648 825 
Q 2906 1169 2906 1791 
z
M 3481 434 
Q 3481 -459 3084 -895 
Q 2688 -1331 1869 -1331 
Q 1566 -1331 1297 -1286 
Q 1028 -1241 775 -1147 
L 775 -588 
Q 1028 -725 1275 -790 
Q 1522 -856 1778 -856 
Q 2344 -856 2625 -561 
Q 2906 -266 2906 331 
L 2906 616 
Q 2728 306 2450 153 
Q 2172 0 1784 0 
Q 1141 0 747 490 
Q 353 981 353 1791 
Q 353 2603 747 3093 
Q 1141 3584 1784 3584 
Q 2172 3584 2450 3431 
Q 2728 3278 2906 2969 
L 2906 3500 
L 3481 3500 
L 3481 434 
z
" transform="scale(0.015625)"/>
       <path id="DejaVuSans-56" d="M 1831 0 
L 50 4666 
L 709 4666 
L 2188 738 
L 3669 4666 
L 4325 4666 
L 2547 0 
L 1831 0 
z
" transform="scale(0.015625)"/>
      </defs>
      <use xlink:href="#DejaVuSans-4c"/>
      <use xlink:href="#DejaVuSans-6f" x="53.962891"/>
      <use xlink:href="#DejaVuSans-67" x="115.144531"/>
      <use xlink:href="#DejaVuSans-31" x="178.621094"/>
      <use xlink:href="#DejaVuSans-30" x="242.244141"/>
      <use xlink:href="#DejaVuSans-28" x="305.867188"/>
      <use xlink:href="#DejaVuSans-56" x="344.880859"/>
      <use xlink:href="#DejaVuSans-29" x="413.289062"/>
     </g>
    </g>
   </g>
   <g id="patch_3">
    <path d="M 90 320.4 
L 90 43.2 
" style="fill: none; stroke: #000000; stroke-width: 0.8; stroke-linejoin: miter; stroke-linecap: square"/>
   </g>
   <g id="patch_4">
    <path d="M 327.272727 320.4 
L 327.272727 43.2 
" style="fill: none; stroke: #000000; stroke-width: 0.8; stroke-linejoin: miter; stroke-linecap: square"/>
   </g>
   <g id="patch_5">
    <path d="M 90 320.4 
L 327.272727 320.4 
" style="fill: none; stroke: #000000; stroke-width: 0.8; stroke-linejoin: miter; stroke-linecap: square"/>
   </g>
   <g id="patch_6">
    <path d="M 90 43.2 
L 327.272727 43.2 
" style="fill: none; stroke: #000000; stroke-width: 0.8; stroke-linejoin: miter; stroke-linecap: square"/>
   </g>
   <g id="PolyCollection_1">
    <defs>
     <path id="m301edf428d" d="M 92.89357 -39.6 
L 92.89357 -39.6 
L 92.893884 -39.6 
L 92.897023 -39.6 
L 92.928418 -39.6 
L 93.042009 -39.6 
L 93.136402 -39.6 
L 93.475677 -39.6 
L 93.74118 -39.6 
L 94.414547 -39.6 
L 94.871588 -39.6 
L 95.959767 -39.6 
L 96.565543 -39.6 
L 98.052196 -39.6 
L 98.737279 -41.873733 
L 100.036632 -48.771642 
L 100.827475 -52.712092 
L 102.232316 -59.678866 
L 103.092707 -63.929318 
L 104.489867 -70.635332 
L 105.411131 -75.012632 
L 106.827133 -81.736333 
L 107.793248 -86.32149 
L 109.21089 -93.235036 
L 110.21167 -98.205764 
L 111.772097 -105.937344 
L 112.759661 -110.853678 
L 114.126574 -117.632828 
L 115.15492 -122.735762 
L 116.647299 -130.079493 
L 117.670555 -135.053481 
L 119.057755 -141.756513 
L 120.10718 -146.838898 
L 121.604335 -154.053755 
L 122.646234 -159.080538 
L 124.058043 -165.838468 
L 125.129004 -170.935038 
L 126.662057 -178.15448 
L 127.739628 -183.138595 
L 129.20783 -189.798419 
L 130.315947 -194.614168 
L 131.896575 -201.193674 
L 133.005456 -205.38953 
L 134.524707 -210.710889 
L 135.668351 -214.124119 
L 137.188915 -218.039047 
L 138.241242 -220.213102 
L 139.426882 -222.246974 
L 140.612522 -223.812408 
L 141.633339 -224.755686 
L 142.667447 -225.301961 
L 143.449833 -225.438294 
L 144.199295 -225.535561 
L 144.828502 -225.597368 
L 145.412262 -225.640379 
L 145.925172 -225.667197 
L 146.438082 -225.684363 
L 146.864519 -225.691524 
L 147.262029 -225.691753 
L 147.65954 -225.686711 
L 147.982483 -225.682616 
L 148.350925 -225.676479 
L 149.569211 -225.618366 
L 150.053472 -225.591827 
L 151.300834 -225.489625 
L 151.943268 -225.427597 
L 153.706482 -225.239939 
L 154.677734 -225.111895 
L 156.915698 -224.797957 
L 158.084522 -224.611999 
L 160.566974 -224.201234 
L 161.943559 -223.955086 
L 164.837129 -223.424821 
L 166.430267 -223.119047 
L 169.323837 -222.554593 
L 171.23534 -222.172255 
L 174.12891 -221.58697 
L 176.47362 -221.10597 
L 179.36719 -220.507286 
L 182.260759 -219.903399 
L 185.154329 -219.294845 
L 188.047899 -218.681656 
L 190.941469 -218.063449 
L 193.835039 -217.439495 
L 196.728609 -216.808771 
L 199.622178 -216.170004 
L 202.515748 -215.521708 
L 205.409318 -214.862227 
L 208.302888 -214.18977 
L 211.196458 -213.502447 
L 214.090028 -212.798309 
L 216.983598 -212.075376 
L 219.877167 -211.331674 
L 222.770737 -210.565253 
L 225.664307 -209.774211 
L 228.557877 -208.956706 
L 231.451447 -208.110969 
L 234.345017 -207.235301 
L 237.238586 -206.32807 
L 240.132156 -205.387706 
L 243.025726 -204.412682 
L 245.919296 -203.401496 
L 248.812866 -202.352643 
L 251.706436 -201.264589 
L 254.600006 -200.135729 
L 257.493575 -198.964349 
L 260.387145 -197.748575 
L 263.280715 -196.435576 
L 266.174285 -194.86835 
L 269.067855 -193.207063 
L 271.961425 -191.428484 
L 274.854994 -189.355731 
L 277.748564 -187.097988 
L 280.642134 -184.610084 
L 283.535704 -181.825904 
L 286.429274 -178.643178 
L 289.322844 -174.891155 
L 292.216414 -170.250532 
L 295.109983 -163.999108 
L 298.003553 -153.641697 
L 300.897123 -124.672685 
L 303.790693 -39.6 
L 306.684263 -39.6 
L 308.131048 -39.6 
L 308.420405 -39.6 
L 308.53621 -39.6 
L 308.672233 -39.6 
L 308.721021 -39.6 
L 308.822294 -39.6 
L 308.888382 -39.6 
L 309.004756 -39.6 
L 309.092967 -39.6 
L 309.121589 -39.6 
L 309.16061 -39.6 
L 309.237889 -39.6 
L 309.324739 -39.6 
L 309.473258 -39.6 
L 309.623159 -39.6 
L 309.91667 -39.6 
L 310.301145 -39.6 
L 311.647213 -39.6 
L 313.51621 -39.6 
L 315.723651 -39.6 
L 318.512776 -39.6 
L 321.301902 -39.6 
L 324.195472 -39.6 
L 324.379157 -39.6 
L 324.379157 -167.655344 
L 324.379157 -167.655344 
L 324.195472 -167.79544 
L 321.301902 -169.992146 
L 318.512776 -172.023911 
L 315.723651 -173.960106 
L 313.51621 -175.429236 
L 311.647213 -176.642136 
L 310.301145 -177.496524 
L 309.91667 -177.740561 
L 309.623159 -177.926861 
L 309.473258 -178.018719 
L 309.324739 -178.109537 
L 309.237889 -178.162645 
L 309.16061 -178.2099 
L 309.121589 -178.233761 
L 309.092967 -178.251263 
L 309.004756 -178.305204 
L 308.888382 -178.376365 
L 308.822294 -178.416777 
L 308.721021 -178.478704 
L 308.672233 -178.508538 
L 308.53621 -178.591715 
L 308.420405 -178.662529 
L 308.131048 -178.839468 
L 306.684263 -179.723398 
L 303.790693 -181.432213 
L 300.897123 -183.106451 
L 298.003553 -184.79321 
L 295.109983 -186.423661 
L 292.216414 -188.002725 
L 289.322844 -189.534433 
L 286.429274 -191.243384 
L 283.535704 -193.016996 
L 280.642134 -194.707406 
L 277.748564 -196.32374 
L 274.854994 -197.873288 
L 271.961425 -199.361924 
L 269.067855 -200.794413 
L 266.174285 -202.430016 
L 263.280715 -204.058531 
L 260.387145 -205.598277 
L 257.493575 -207.058201 
L 254.600006 -208.44555 
L 251.706436 -209.766294 
L 248.812866 -211.025425 
L 245.919296 -212.227195 
L 243.025726 -213.375296 
L 240.132156 -214.473 
L 237.238586 -215.523272 
L 234.345017 -216.528864 
L 231.451447 -217.492386 
L 228.557877 -218.416365 
L 225.664307 -219.303289 
L 222.770737 -220.155643 
L 219.877167 -220.975926 
L 216.983598 -221.766664 
L 214.090028 -222.530408 
L 211.196458 -223.269723 
L 208.302888 -223.987165 
L 205.409318 -224.685251 
L 202.515748 -225.366418 
L 199.622178 -226.032981 
L 196.728609 -226.687079 
L 193.835039 -227.330622 
L 190.941469 -227.965231 
L 188.047899 -228.59218 
L 185.154329 -229.21232 
L 182.260759 -229.826001 
L 179.36719 -230.432955 
L 176.47362 -231.03215 
L 174.12891 -231.511494 
L 171.23534 -232.089841 
L 169.323837 -232.465304 
L 166.430267 -233.010756 
L 164.837129 -233.303067 
L 161.943559 -233.795954 
L 160.566974 -234.017274 
L 158.084522 -234.370519 
L 156.915698 -234.520263 
L 154.677734 -234.751538 
L 153.706482 -234.824157 
L 151.943268 -234.912938 
L 151.300834 -234.930415 
L 150.053472 -234.92472 
L 149.569211 -234.908321 
L 148.350925 -234.828891 
L 147.982483 -234.794763 
L 147.65954 -234.756137 
L 147.262029 -234.702444 
L 146.864519 -234.647264 
L 146.438082 -234.566546 
L 145.925172 -234.469459 
L 145.412262 -234.336448 
L 144.828502 -234.185056 
L 144.199295 -233.962125 
L 143.449833 -233.680539 
L 142.667447 -233.373532 
L 141.633339 -232.880759 
L 140.612522 -232.244176 
L 139.426882 -231.303978 
L 138.241242 -230.113601 
L 137.188915 -229.343208 
L 135.668351 -228.128665 
L 134.524707 -226.923791 
L 133.005456 -224.615367 
L 131.896575 -222.507257 
L 130.315947 -218.354872 
L 129.20783 -214.898964 
L 127.739628 -209.232046 
L 126.662057 -204.616751 
L 125.129004 -197.292724 
L 124.058043 -191.864796 
L 122.646234 -184.393889 
L 121.604335 -178.758945 
L 120.10718 -170.498462 
L 119.057755 -164.655176 
L 117.670555 -156.882514 
L 116.647299 -151.129574 
L 115.15492 -142.704993 
L 114.126574 -136.895723 
L 112.759661 -129.168976 
L 111.772097 -123.58898 
L 110.21167 -114.738533 
L 109.21089 -109.075008 
L 107.793248 -101.043184 
L 106.827133 -95.582184 
L 105.411131 -87.557561 
L 104.489867 -82.352774 
L 103.092707 -74.433654 
L 102.232316 -69.574937 
L 100.827475 -61.606846 
L 100.036632 -57.137014 
L 98.737279 -50.105257 
L 98.052196 -46.517978 
L 96.565543 -39.69717 
L 95.959767 -39.6 
L 94.871588 -39.6 
L 94.414547 -39.6 
L 93.74118 -39.6 
L 93.475677 -39.6 
L 93.136402 -39.6 
L 93.042009 -39.6 
L 92.928418 -39.6 
L 92.897023 -39.6 
L 92.893884 -39.6 
L 92.89357 -39.6 
z
" style="stroke: #ff0000; stroke-opacity: 0.2"/>
    </defs>
    <g clip-path="url(#pd907f4235f)">
     <use xlink:href="#m301edf428d" x="0" y="360" style="fill: #ff0000; fill-opacity: 0.2; stroke: #ff0000; stroke-opacity: 0.2"/>
    </g>
   </g>
   <g id="PathCollection_1">
    <defs>
     <path id="m42950e4976" d="M 0 4.330127 
C 1.148363 4.330127 2.249847 3.873878 3.061862 3.061862 
C 3.873878 2.249847 4.330127 1.148363 4.330127 0 
C 4.330127 -1.148363 3.873878 -2.249847 3.061862 -3.061862 
C 2.249847 -3.873878 1.148363 -4.330127 0 -4.330127 
C -1.148363 -4.330127 -2.249847 -3.873878 -3.061862 -3.061862 
C -3.873878 -2.249847 -4.330127 -1.148363 -4.330127 0 
C -4.330127 1.148363 -3.873878 2.249847 -3.061862 3.061862 
C -2.249847 3.873878 -1.148363 4.330127 0 4.330127 
z
" style="stroke: #ff0000; stroke-opacity: 0.8"/>
    </defs>
    <g clip-path="url(#pd907f4235f)">
     <use xlink:href="#m42950e4976" x="92.89357" y="320.4" style="fill: #ff0000; fill-opacity: 0.8; stroke: #ff0000; stroke-opacity: 0.8"/>
     <use xlink:href="#m42950e4976" x="121.829268" y="191.915937" style="fill: #ff0000; fill-opacity: 0.8; stroke: #ff0000; stroke-opacity: 0.8"/>
     <use xlink:href="#m42950e4976" x="150.764967" y="144.554018" style="fill: #ff0000; fill-opacity: 0.8; stroke: #ff0000; stroke-opacity: 0.8"/>
     <use xlink:href="#m42950e4976" x="179.700665" y="137.536526" style="fill: #ff0000; fill-opacity: 0.8; stroke: #ff0000; stroke-opacity: 0.8"/>
     <use xlink:href="#m42950e4976" x="208.636364" y="161.939482" style="fill: #ff0000; fill-opacity: 0.8; stroke: #ff0000; stroke-opacity: 0.8"/>
     <use xlink:href="#m42950e4976" x="237.572062" y="126.315559" style="fill: #ff0000; fill-opacity: 0.8; stroke: #ff0000; stroke-opacity: 0.8"/>
     <use xlink:href="#m42950e4976" x="266.507761" y="144.892106" style="fill: #ff0000; fill-opacity: 0.8; stroke: #ff0000; stroke-opacity: 0.8"/>
     <use xlink:href="#m42950e4976" x="295.443459" y="189.192474" style="fill: #ff0000; fill-opacity: 0.8; stroke: #ff0000; stroke-opacity: 0.8"/>
    </g>
   </g>
   <g id="PathCollection_2">
    <defs>
     <path id="m86f89ee06e" d="M 0 4.330127 
C 1.148363 4.330127 2.249847 3.873878 3.061862 3.061862 
C 3.873878 2.249847 4.330127 1.148363 4.330127 0 
C 4.330127 -1.148363 3.873878 -2.249847 3.061862 -3.061862 
C 2.249847 -3.873878 1.148363 -4.330127 0 -4.330127 
C -1.148363 -4.330127 -2.249847 -3.873878 -3.061862 -3.061862 
C -3.873878 -2.249847 -4.330127 -1.148363 -4.330127 0 
C -4.330127 1.148363 -3.873878 2.249847 -3.061862 3.061862 
C -2.249847 3.873878 -1.148363 4.330127 0 4.330127 
z
" style="stroke: #000000; stroke-opacity: 0.8"/>
    </defs>
    <g clip-path="url(#pd907f4235f)">
     <use xlink:href="#m86f89ee06e" x="92.89357" y="320.4" style="fill-opacity: 0.8; stroke: #000000; stroke-opacity: 0.8"/>
     <use xlink:href="#m86f89ee06e" x="121.829268" y="191.915937" style="fill-opacity: 0.8; stroke: #000000; stroke-opacity: 0.8"/>
     <use xlink:href="#m86f89ee06e" x="150.764967" y="144.554018" style="fill-opacity: 0.8; stroke: #000000; stroke-opacity: 0.8"/>
     <use xlink:href="#m86f89ee06e" x="179.700665" y="137.536526" style="fill-opacity: 0.8; stroke: #000000; stroke-opacity: 0.8"/>
     <use xlink:href="#m86f89ee06e" x="208.636364" y="161.939482" style="fill-opacity: 0.8; stroke: #000000; stroke-opacity: 0.8"/>
     <use xlink:href="#m86f89ee06e" x="237.572062" y="126.315559" style="fill-opacity: 0.8; stroke: #000000; stroke-opacity: 0.8"/>
     <use xlink:href="#m86f89ee06e" x="266.507761" y="144.892106" style="fill-opacity: 0.8; stroke: #000000; stroke-opacity: 0.8"/>
     <use xlink:href="#m86f89ee06e" x="295.443459" y="189.192474" style="fill-opacity: 0.8; stroke: #000000; stroke-opacity: 0.8"/>
    </g>
   </g>
   <g id="line2d_19">
    <path d="M 92.89357 320.4 
L 96.565543 320.4 
L 98.052196 318.447833 
L 109.21089 257.902726 
L 124.058043 178.184529 
L 126.662057 165.190981 
L 129.20783 153.861908 
L 130.315947 149.594736 
L 131.896575 144.40858 
L 133.005456 141.43033 
L 134.524707 138.218842 
L 135.668351 136.377814 
L 137.188915 134.55053 
L 138.241242 133.609727 
L 139.426882 132.791585 
L 140.612522 132.173128 
L 142.667447 131.449714 
L 144.828502 131.025737 
L 147.262029 130.826275 
L 150.053472 130.840182 
L 153.706482 131.110248 
L 158.084522 131.661967 
L 164.837129 132.769569 
L 176.47362 134.977263 
L 193.835039 138.520087 
L 205.409318 141.063199 
L 214.090028 143.14347 
L 222.770737 145.436827 
L 231.451447 147.999802 
L 240.132156 150.88543 
L 245.919296 153.015046 
L 251.706436 155.330897 
L 257.493575 157.856783 
L 263.280715 160.625192 
L 269.067855 163.683168 
L 274.854994 167.102425 
L 277.748564 168.981096 
L 280.642134 170.998672 
L 283.535704 173.183179 
L 286.429274 175.573292 
L 289.322844 178.224341 
L 292.216414 181.219231 
L 295.109983 184.690148 
L 298.003553 188.866925 
L 300.897123 194.204601 
L 303.790693 201.824602 
L 306.684263 216.179348 
L 308.131048 236.573244 
L 308.53621 254.952326 
L 308.888382 294.585382 
L 309.16061 320.4 
L 324.379157 320.4 
L 324.379157 320.4 
" clip-path="url(#pd907f4235f)" style="fill: none; stroke: #ff0000; stroke-width: 1.5; stroke-linecap: square"/>
   </g>
  </g>
  <g id="axes_2">
   <g id="patch_7">
    <path d="M 374.727273 320.4 
L 612 320.4 
L 612 43.2 
L 374.727273 43.2 
z
" style="fill: #ffffff"/>
   </g>
   <g id="matplotlib.axis_3">
    <g id="xtick_10">
     <g id="line2d_20">
      <g>
       <use xlink:href="#m3303cc38bc" x="377.620843" y="320.4" style="stroke: #000000; stroke-width: 0.8"/>
      </g>
     </g>
     <g id="text_21">
      <!-- 0 -->
      <g transform="translate(373.039843 338.34175) scale(0.144 -0.144)">
       <use xlink:href="#DejaVuSans-30"/>
      </g>
     </g>
    </g>
    <g id="xtick_11">
     <g id="line2d_21">
      <g>
       <use xlink:href="#m3303cc38bc" x="406.556541" y="320.4" style="stroke: #000000; stroke-width: 0.8"/>
      </g>
     </g>
     <g id="text_22">
      <!-- 1 -->
      <g transform="translate(401.975541 338.34175) scale(0.144 -0.144)">
       <use xlink:href="#DejaVuSans-31"/>
      </g>
     </g>
    </g>
    <g id="xtick_12">
     <g id="line2d_22">
      <g>
       <use xlink:href="#m3303cc38bc" x="435.492239" y="320.4" style="stroke: #000000; stroke-width: 0.8"/>
      </g>
     </g>
     <g id="text_23">
      <!-- 2 -->
      <g transform="translate(430.911239 338.34175) scale(0.144 -0.144)">
       <use xlink:href="#DejaVuSans-32"/>
      </g>
     </g>
    </g>
    <g id="xtick_13">
     <g id="line2d_23">
      <g>
       <use xlink:href="#m3303cc38bc" x="464.427938" y="320.4" style="stroke: #000000; stroke-width: 0.8"/>
      </g>
     </g>
     <g id="text_24">
      <!-- 3 -->
      <g transform="translate(459.846938 338.34175) scale(0.144 -0.144)">
       <use xlink:href="#DejaVuSans-33"/>
      </g>
     </g>
    </g>
    <g id="xtick_14">
     <g id="line2d_24">
      <g>
       <use xlink:href="#m3303cc38bc" x="493.363636" y="320.4" style="stroke: #000000; stroke-width: 0.8"/>
      </g>
     </g>
     <g id="text_25">
      <!-- 4 -->
      <g transform="translate(488.782636 338.34175) scale(0.144 -0.144)">
       <use xlink:href="#DejaVuSans-34"/>
      </g>
     </g>
    </g>
    <g id="xtick_15">
     <g id="line2d_25">
      <g>
       <use xlink:href="#m3303cc38bc" x="522.299335" y="320.4" style="stroke: #000000; stroke-width: 0.8"/>
      </g>
     </g>
     <g id="text_26">
      <!-- 5 -->
      <g transform="translate(517.718335 338.34175) scale(0.144 -0.144)">
       <use xlink:href="#DejaVuSans-35"/>
      </g>
     </g>
    </g>
    <g id="xtick_16">
     <g id="line2d_26">
      <g>
       <use xlink:href="#m3303cc38bc" x="551.235033" y="320.4" style="stroke: #000000; stroke-width: 0.8"/>
      </g>
     </g>
     <g id="text_27">
      <!-- 6 -->
      <g transform="translate(546.654033 338.34175) scale(0.144 -0.144)">
       <use xlink:href="#DejaVuSans-36"/>
      </g>
     </g>
    </g>
    <g id="xtick_17">
     <g id="line2d_27">
      <g>
       <use xlink:href="#m3303cc38bc" x="580.170732" y="320.4" style="stroke: #000000; stroke-width: 0.8"/>
      </g>
     </g>
     <g id="text_28">
      <!-- 7 -->
      <g transform="translate(575.589732 338.34175) scale(0.144 -0.144)">
       <use xlink:href="#DejaVuSans-37"/>
      </g>
     </g>
    </g>
    <g id="xtick_18">
     <g id="line2d_28">
      <g>
       <use xlink:href="#m3303cc38bc" x="609.10643" y="320.4" style="stroke: #000000; stroke-width: 0.8"/>
      </g>
     </g>
     <g id="text_29">
      <!-- 8 -->
      <g transform="translate(604.52543 338.34175) scale(0.144 -0.144)">
       <use xlink:href="#DejaVuSans-38"/>
      </g>
     </g>
    </g>
    <g id="text_30">
     <!-- Time (d) -->
     <g transform="translate(453.238636 359.9255) scale(0.192 -0.192)">
      <use xlink:href="#DejaVuSans-54"/>
      <use xlink:href="#DejaVuSans-69" x="57.958984"/>
      <use xlink:href="#DejaVuSans-6d" x="85.742188"/>
      <use xlink:href="#DejaVuSans-65" x="183.154297"/>
      <use xlink:href="#DejaVuSans-20" x="244.677734"/>
      <use xlink:href="#DejaVuSans-28" x="276.464844"/>
      <use xlink:href="#DejaVuSans-64" x="315.478516"/>
      <use xlink:href="#DejaVuSans-29" x="378.955078"/>
     </g>
    </g>
   </g>
   <g id="matplotlib.axis_4">
    <g id="ytick_10">
     <g id="line2d_29">
      <g>
       <use xlink:href="#m356230f6f9" x="374.727273" y="320.4" style="stroke: #000000; stroke-width: 0.8"/>
      </g>
     </g>
     <g id="text_31">
      <!-- 4.0 -->
      <g transform="translate(344.826773 325.870875) scale(0.144 -0.144)">
       <defs>
        <path id="DejaVuSans-2e" d="M 684 794 
L 1344 794 
L 1344 0 
L 684 0 
L 684 794 
z
" transform="scale(0.015625)"/>
       </defs>
       <use xlink:href="#DejaVuSans-34"/>
       <use xlink:href="#DejaVuSans-2e" x="63.623047"/>
       <use xlink:href="#DejaVuSans-30" x="95.410156"/>
      </g>
     </g>
    </g>
    <g id="ytick_11">
     <g id="line2d_30">
      <g>
       <use xlink:href="#m356230f6f9" x="374.727273" y="285.75" style="stroke: #000000; stroke-width: 0.8"/>
      </g>
     </g>
     <g id="text_32">
      <!-- 4.5 -->
      <g transform="translate(344.826773 291.220875) scale(0.144 -0.144)">
       <use xlink:href="#DejaVuSans-34"/>
       <use xlink:href="#DejaVuSans-2e" x="63.623047"/>
       <use xlink:href="#DejaVuSans-35" x="95.410156"/>
      </g>
     </g>
    </g>
    <g id="ytick_12">
     <g id="line2d_31">
      <g>
       <use xlink:href="#m356230f6f9" x="374.727273" y="251.1" style="stroke: #000000; stroke-width: 0.8"/>
      </g>
     </g>
     <g id="text_33">
      <!-- 5.0 -->
      <g transform="translate(344.826773 256.570875) scale(0.144 -0.144)">
       <use xlink:href="#DejaVuSans-35"/>
       <use xlink:href="#DejaVuSans-2e" x="63.623047"/>
       <use xlink:href="#DejaVuSans-30" x="95.410156"/>
      </g>
     </g>
    </g>
    <g id="ytick_13">
     <g id="line2d_32">
      <g>
       <use xlink:href="#m356230f6f9" x="374.727273" y="216.45" style="stroke: #000000; stroke-width: 0.8"/>
      </g>
     </g>
     <g id="text_34">
      <!-- 5.5 -->
      <g transform="translate(344.826773 221.920875) scale(0.144 -0.144)">
       <use xlink:href="#DejaVuSans-35"/>
       <use xlink:href="#DejaVuSans-2e" x="63.623047"/>
       <use xlink:href="#DejaVuSans-35" x="95.410156"/>
      </g>
     </g>
    </g>
    <g id="ytick_14">
     <g id="line2d_33">
      <g>
       <use xlink:href="#m356230f6f9" x="374.727273" y="181.8" style="stroke: #000000; stroke-width: 0.8"/>
      </g>
     </g>
     <g id="text_35">
      <!-- 6.0 -->
      <g transform="translate(344.826773 187.270875) scale(0.144 -0.144)">
       <use xlink:href="#DejaVuSans-36"/>
       <use xlink:href="#DejaVuSans-2e" x="63.623047"/>
       <use xlink:href="#DejaVuSans-30" x="95.410156"/>
      </g>
     </g>
    </g>
    <g id="ytick_15">
     <g id="line2d_34">
      <g>
       <use xlink:href="#m356230f6f9" x="374.727273" y="147.15" style="stroke: #000000; stroke-width: 0.8"/>
      </g>
     </g>
     <g id="text_36">
      <!-- 6.5 -->
      <g transform="translate(344.826773 152.620875) scale(0.144 -0.144)">
       <use xlink:href="#DejaVuSans-36"/>
       <use xlink:href="#DejaVuSans-2e" x="63.623047"/>
       <use xlink:href="#DejaVuSans-35" x="95.410156"/>
      </g>
     </g>
    </g>
    <g id="ytick_16">
     <g id="line2d_35">
      <g>
       <use xlink:href="#m356230f6f9" x="374.727273" y="112.5" style="stroke: #000000; stroke-width: 0.8"/>
      </g>
     </g>
     <g id="text_37">
      <!-- 7.0 -->
      <g transform="translate(344.826773 117.970875) scale(0.144 -0.144)">
       <use xlink:href="#DejaVuSans-37"/>
       <use xlink:href="#DejaVuSans-2e" x="63.623047"/>
       <use xlink:href="#DejaVuSans-30" x="95.410156"/>
      </g>
     </g>
    </g>
    <g id="ytick_17">
     <g id="line2d_36">
      <g>
       <use xlink:href="#m356230f6f9" x="374.727273" y="77.85" style="stroke: #000000; stroke-width: 0.8"/>
      </g>
     </g>
     <g id="text_38">
      <!-- 7.5 -->
      <g transform="translate(344.826773 83.320875) scale(0.144 -0.144)">
       <use xlink:href="#DejaVuSans-37"/>
       <use xlink:href="#DejaVuSans-2e" x="63.623047"/>
       <use xlink:href="#DejaVuSans-35" x="95.410156"/>
      </g>
     </g>
    </g>
    <g id="ytick_18">
     <g id="line2d_37">
      <g>
       <use xlink:href="#m356230f6f9" x="374.727273" y="43.2" style="stroke: #000000; stroke-width: 0.8"/>
      </g>
     </g>
     <g id="text_39">
      <!-- 8.0 -->
      <g transform="translate(344.826773 48.670875) scale(0.144 -0.144)">
       <use xlink:href="#DejaVuSans-38"/>
       <use xlink:href="#DejaVuSans-2e" x="63.623047"/>
       <use xlink:href="#DejaVuSans-30" x="95.410156"/>
      </g>
     </g>
    </g>
    <g id="text_40">
     <!-- Log10(CD8TE) -->
     <g transform="translate(336.833773 250.7895) rotate(-90) scale(0.192 -0.192)">
      <defs>
       <path id="DejaVuSans-43" d="M 4122 4306 
L 4122 3641 
Q 3803 3938 3442 4084 
Q 3081 4231 2675 4231 
Q 1875 4231 1450 3742 
Q 1025 3253 1025 2328 
Q 1025 1406 1450 917 
Q 1875 428 2675 428 
Q 3081 428 3442 575 
Q 3803 722 4122 1019 
L 4122 359 
Q 3791 134 3420 21 
Q 3050 -91 2638 -91 
Q 1578 -91 968 557 
Q 359 1206 359 2328 
Q 359 3453 968 4101 
Q 1578 4750 2638 4750 
Q 3056 4750 3426 4639 
Q 3797 4528 4122 4306 
z
" transform="scale(0.015625)"/>
       <path id="DejaVuSans-44" d="M 1259 4147 
L 1259 519 
L 2022 519 
Q 2988 519 3436 956 
Q 3884 1394 3884 2338 
Q 3884 3275 3436 3711 
Q 2988 4147 2022 4147 
L 1259 4147 
z
M 628 4666 
L 1925 4666 
Q 3281 4666 3915 4102 
Q 4550 3538 4550 2338 
Q 4550 1131 3912 565 
Q 3275 0 1925 0 
L 628 0 
L 628 4666 
z
" transform="scale(0.015625)"/>
       <path id="DejaVuSans-45" d="M 628 4666 
L 3578 4666 
L 3578 4134 
L 1259 4134 
L 1259 2753 
L 3481 2753 
L 3481 2222 
L 1259 2222 
L 1259 531 
L 3634 531 
L 3634 0 
L 628 0 
L 628 4666 
z
" transform="scale(0.015625)"/>
      </defs>
      <use xlink:href="#DejaVuSans-4c"/>
      <use xlink:href="#DejaVuSans-6f" x="53.962891"/>
      <use xlink:href="#DejaVuSans-67" x="115.144531"/>
      <use xlink:href="#DejaVuSans-31" x="178.621094"/>
      <use xlink:href="#DejaVuSans-30" x="242.244141"/>
      <use xlink:href="#DejaVuSans-28" x="305.867188"/>
      <use xlink:href="#DejaVuSans-43" x="344.880859"/>
      <use xlink:href="#DejaVuSans-44" x="414.705078"/>
      <use xlink:href="#DejaVuSans-38" x="491.707031"/>
      <use xlink:href="#DejaVuSans-54" x="555.330078"/>
      <use xlink:href="#DejaVuSans-45" x="616.414062"/>
      <use xlink:href="#DejaVuSans-29" x="679.597656"/>
     </g>
    </g>
   </g>
   <g id="patch_8">
    <path d="M 374.727273 320.4 
L 374.727273 43.2 
" style="fill: none; stroke: #000000; stroke-width: 0.8; stroke-linejoin: miter; stroke-linecap: square"/>
   </g>
   <g id="patch_9">
    <path d="M 612 320.4 
L 612 43.2 
" style="fill: none; stroke: #000000; stroke-width: 0.8; stroke-linejoin: miter; stroke-linecap: square"/>
   </g>
   <g id="patch_10">
    <path d="M 374.727273 320.4 
L 612 320.4 
" style="fill: none; stroke: #000000; stroke-width: 0.8; stroke-linejoin: miter; stroke-linecap: square"/>
   </g>
   <g id="patch_11">
    <path d="M 374.727273 43.2 
L 612 43.2 
" style="fill: none; stroke: #000000; stroke-width: 0.8; stroke-linejoin: miter; stroke-linecap: square"/>
   </g>
   <g id="PolyCollection_2">
    <defs>
     <path id="m82eb3a01e7" d="M 377.620843 -117.613053 
L 377.620843 -117.613053 
L 377.621157 -117.613053 
L 377.624296 -117.613053 
L 377.655691 -117.613053 
L 377.769282 -117.613053 
L 377.863675 -117.613053 
L 378.20295 -117.613053 
L 378.468452 -117.613053 
L 379.14182 -117.613053 
L 379.598861 -117.613053 
L 380.68704 -117.613053 
L 381.292816 -117.613053 
L 382.779468 -117.613053 
L 383.464552 -117.613053 
L 384.763905 -117.613053 
L 385.554747 -117.613053 
L 386.959588 -117.613053 
L 387.81998 -117.613053 
L 389.217139 -117.613053 
L 390.138404 -117.613053 
L 391.554406 -117.613053 
L 392.520521 -117.613053 
L 393.938162 -117.613053 
L 394.938943 -117.613053 
L 396.49937 -117.613053 
L 397.486934 -117.613053 
L 398.853847 -117.613053 
L 399.882193 -117.613053 
L 401.374572 -117.613053 
L 402.397827 -117.613053 
L 403.785028 -117.613053 
L 404.834452 -117.613053 
L 406.331608 -117.613054 
L 407.373507 -117.613054 
L 408.785316 -117.613056 
L 409.856277 -117.613057 
L 411.38933 -117.613061 
L 412.466901 -117.613066 
L 413.935102 -117.613076 
L 415.043219 -117.613088 
L 416.623848 -117.613118 
L 417.732729 -117.613152 
L 419.25198 -117.613229 
L 420.395623 -117.613321 
L 421.916187 -117.613517 
L 422.968515 -117.613737 
L 424.154155 -117.614109 
L 425.339794 -117.614704 
L 426.360612 -117.615472 
L 427.39472 -117.6166 
L 428.177106 -117.617805 
L 428.926567 -117.619298 
L 429.555775 -117.620846 
L 430.139535 -117.622799 
L 430.652445 -117.624651 
L 431.165354 -117.627162 
L 431.591791 -117.62928 
L 431.989302 -117.632004 
L 432.386813 -117.634728 
L 432.709756 -117.637314 
L 433.078198 -117.640687 
L 434.296484 -117.655183 
L 434.780745 -117.662753 
L 436.028107 -117.689959 
L 436.67054 -117.708287 
L 438.433755 -117.786672 
L 439.405007 -117.843981 
L 441.642971 -118.077492 
L 442.811794 -118.237833 
L 445.294247 -118.896237 
L 446.670832 -119.38393 
L 449.564402 -121.236481 
L 451.15754 -122.586669 
L 454.05111 -126.437212 
L 455.962613 -129.666275 
L 458.856183 -136.104454 
L 461.200892 -142.194506 
L 464.094462 -150.703637 
L 466.988032 -159.724788 
L 469.881602 -168.881299 
L 472.775172 -177.877245 
L 475.668742 -186.522157 
L 478.562312 -194.706556 
L 481.455881 -202.376088 
L 484.349451 -209.511335 
L 487.243021 -216.113974 
L 490.136591 -222.197872 
L 493.030161 -227.783552 
L 495.923731 -232.894825 
L 498.8173 -237.556773 
L 501.71087 -241.794562 
L 504.60444 -245.632761 
L 507.49801 -249.094971 
L 510.39158 -252.203647 
L 513.28515 -254.980019 
L 516.178719 -257.444097 
L 519.072289 -259.593976 
L 521.965859 -260.875213 
L 524.859429 -261.495983 
L 527.752999 -261.908537 
L 530.646569 -262.129196 
L 533.540139 -262.173297 
L 536.433708 -262.055248 
L 539.327278 -261.788584 
L 542.220848 -261.386009 
L 545.114418 -260.859433 
L 548.007988 -260.220015 
L 550.901558 -259.168171 
L 553.795127 -257.994668 
L 556.688697 -256.741642 
L 559.582267 -255.417459 
L 562.475837 -254.029842 
L 565.369407 -252.583855 
L 568.262977 -250.999084 
L 571.156547 -249.361286 
L 574.050116 -247.676397 
L 576.943686 -245.949876 
L 579.837256 -244.186727 
L 582.730826 -242.391527 
L 585.624396 -240.568446 
L 588.517966 -238.721273 
L 591.411535 -236.833982 
L 592.85832 -235.822346 
L 593.147677 -235.619493 
L 593.263483 -235.538308 
L 593.399506 -235.44295 
L 593.448294 -235.408747 
L 593.549567 -235.33775 
L 593.615655 -235.291419 
L 593.732029 -235.209835 
L 593.82024 -235.147995 
L 593.848862 -235.12793 
L 593.887882 -235.100574 
L 593.965161 -235.046398 
L 594.052012 -234.985512 
L 594.20053 -234.881393 
L 594.350432 -234.776305 
L 594.643943 -234.570056 
L 595.028418 -234.297375 
L 596.374486 -233.342707 
L 598.243483 -232.011767 
L 600.450924 -230.430148 
L 603.240049 -228.415588 
L 606.029175 -226.387059 
L 608.922745 -224.2709 
L 609.10643 -224.136436 
L 609.10643 -249.296737 
L 609.10643 -249.296737 
L 608.922745 -249.384898 
L 606.029175 -250.772668 
L 603.240049 -252.091431 
L 600.450924 -253.394566 
L 598.243483 -254.407358 
L 596.374486 -255.25823 
L 595.028418 -255.887321 
L 594.643943 -256.065421 
L 594.350432 -256.201191 
L 594.20053 -256.270531 
L 594.052012 -256.339232 
L 593.965161 -256.379406 
L 593.887882 -256.415153 
L 593.848862 -256.433203 
L 593.82024 -256.446443 
L 593.732029 -256.487247 
L 593.615655 -256.541078 
L 593.549567 -256.571649 
L 593.448294 -256.618494 
L 593.399506 -256.641063 
L 593.263483 -256.703983 
L 593.147677 -256.757551 
L 592.85832 -256.891315 
L 591.411535 -257.553196 
L 588.517966 -258.856311 
L 585.624396 -260.130999 
L 582.730826 -261.372749 
L 579.837256 -262.577438 
L 576.943686 -263.740568 
L 574.050116 -264.857255 
L 571.156547 -265.922207 
L 568.262977 -266.929707 
L 565.369407 -267.873599 
L 562.475837 -268.747266 
L 559.582267 -269.543618 
L 556.688697 -270.255071 
L 553.795127 -270.927832 
L 550.901558 -271.614982 
L 548.007988 -272.186297 
L 545.114418 -272.63168 
L 542.220848 -272.978033 
L 539.327278 -273.424866 
L 536.433708 -273.736271 
L 533.540139 -273.900336 
L 530.646569 -273.904393 
L 527.752999 -273.734975 
L 524.859429 -273.377765 
L 521.965859 -272.817532 
L 519.072289 -272.038073 
L 516.178719 -271.022128 
L 513.28515 -269.953226 
L 510.39158 -268.929753 
L 507.49801 -267.606151 
L 504.60444 -265.955566 
L 501.71087 -263.949206 
L 498.8173 -261.556187 
L 495.923731 -258.743368 
L 493.030161 -255.475193 
L 490.136591 -251.713562 
L 487.243021 -247.417759 
L 484.349451 -242.544508 
L 481.455881 -237.189093 
L 478.562312 -231.451291 
L 475.668742 -225.036203 
L 472.775172 -217.89985 
L 469.881602 -210.003855 
L 466.988032 -201.32312 
L 464.094462 -191.859672 
L 461.200892 -181.666976 
L 458.856183 -172.943152 
L 455.962613 -161.94071 
L 454.05111 -154.708489 
L 451.15754 -144.167625 
L 449.564402 -139.094978 
L 446.670832 -131.051827 
L 445.294247 -128.035866 
L 442.811794 -123.781346 
L 441.642971 -122.201745 
L 439.405007 -120.229666 
L 438.433755 -119.622803 
L 436.67054 -118.815791 
L 436.028107 -118.593821 
L 434.780745 -118.272456 
L 434.296484 -118.186253 
L 433.078198 -117.998015 
L 432.709756 -117.950956 
L 432.386813 -117.917704 
L 431.989302 -117.880827 
L 431.591791 -117.843949 
L 431.165354 -117.815292 
L 430.652445 -117.781079 
L 430.139535 -117.754217 
L 429.555775 -117.727697 
L 428.926567 -117.705332 
L 428.177106 -117.683293 
L 427.39472 -117.666308 
L 426.360612 -117.649184 
L 425.339794 -117.638086 
L 424.154155 -117.629239 
L 422.968515 -117.623666 
L 421.916187 -117.620262 
L 420.395623 -117.617166 
L 419.25198 -117.615735 
L 417.732729 -117.614582 
L 416.623848 -117.614055 
L 415.043219 -117.613607 
L 413.935102 -117.61343 
L 412.466901 -117.613268 
L 411.38933 -117.613202 
L 409.856277 -117.613134 
L 408.785316 -117.613108 
L 407.373507 -117.613083 
L 406.331608 -117.613073 
L 404.834452 -117.613063 
L 403.785028 -117.61306 
L 402.397827 -117.613056 
L 401.374572 -117.613055 
L 399.882193 -117.613054 
L 398.853847 -117.613053 
L 397.486934 -117.613053 
L 396.49937 -117.613053 
L 394.938943 -117.613053 
L 393.938162 -117.613053 
L 392.520521 -117.613053 
L 391.554406 -117.613053 
L 390.138404 -117.613053 
L 389.217139 -117.613053 
L 387.81998 -117.613053 
L 386.959588 -117.613053 
L 385.554747 -117.613053 
L 384.763905 -117.613053 
L 383.464552 -117.613053 
L 382.779468 -117.613053 
L 381.292816 -117.613053 
L 380.68704 -117.613053 
L 379.598861 -117.613053 
L 379.14182 -117.613053 
L 378.468452 -117.613053 
L 378.20295 -117.613053 
L 377.863675 -117.613053 
L 377.769282 -117.613053 
L 377.655691 -117.613053 
L 377.624296 -117.613053 
L 377.621157 -117.613053 
L 377.620843 -117.613053 
z
" style="stroke: #ff0000; stroke-opacity: 0.2"/>
    </defs>
    <g clip-path="url(#pa5990bfc2c)">
     <use xlink:href="#m82eb3a01e7" x="0" y="360" style="fill: #ff0000; fill-opacity: 0.2; stroke: #ff0000; stroke-opacity: 0.2"/>
    </g>
   </g>
   <g id="PathCollection_3">
    <g clip-path="url(#pa5990bfc2c)">
     <use xlink:href="#m42950e4976" x="377.620843" y="242.386947" style="fill: #ff0000; fill-opacity: 0.8; stroke: #ff0000; stroke-opacity: 0.8"/>
     <use xlink:href="#m42950e4976" x="406.556541" y="203.934991" style="fill: #ff0000; fill-opacity: 0.8; stroke: #ff0000; stroke-opacity: 0.8"/>
     <use xlink:href="#m42950e4976" x="435.492239" y="201.750504" style="fill: #ff0000; fill-opacity: 0.8; stroke: #ff0000; stroke-opacity: 0.8"/>
     <use xlink:href="#m42950e4976" x="464.427938" y="161.705127" style="fill: #ff0000; fill-opacity: 0.8; stroke: #ff0000; stroke-opacity: 0.8"/>
     <use xlink:href="#m42950e4976" x="493.363636" y="127.472639" style="fill: #ff0000; fill-opacity: 0.8; stroke: #ff0000; stroke-opacity: 0.8"/>
     <use xlink:href="#m42950e4976" x="522.299335" y="115.87783" style="fill: #ff0000; fill-opacity: 0.8; stroke: #ff0000; stroke-opacity: 0.8"/>
     <use xlink:href="#m42950e4976" x="551.235033" y="86.633816" style="fill: #ff0000; fill-opacity: 0.8; stroke: #ff0000; stroke-opacity: 0.8"/>
     <use xlink:href="#m42950e4976" x="580.170732" y="91.400252" style="fill: #ff0000; fill-opacity: 0.8; stroke: #ff0000; stroke-opacity: 0.8"/>
    </g>
   </g>
   <g id="PathCollection_4">
    <g clip-path="url(#pa5990bfc2c)">
     <use xlink:href="#m86f89ee06e" x="377.620843" y="242.386947" style="fill-opacity: 0.8; stroke: #000000; stroke-opacity: 0.8"/>
     <use xlink:href="#m86f89ee06e" x="406.556541" y="203.934991" style="fill-opacity: 0.8; stroke: #000000; stroke-opacity: 0.8"/>
     <use xlink:href="#m86f89ee06e" x="435.492239" y="201.750504" style="fill-opacity: 0.8; stroke: #000000; stroke-opacity: 0.8"/>
     <use xlink:href="#m86f89ee06e" x="464.427938" y="161.705127" style="fill-opacity: 0.8; stroke: #000000; stroke-opacity: 0.8"/>
     <use xlink:href="#m86f89ee06e" x="493.363636" y="127.472639" style="fill-opacity: 0.8; stroke: #000000; stroke-opacity: 0.8"/>
     <use xlink:href="#m86f89ee06e" x="522.299335" y="115.87783" style="fill-opacity: 0.8; stroke: #000000; stroke-opacity: 0.8"/>
     <use xlink:href="#m86f89ee06e" x="551.235033" y="86.633816" style="fill-opacity: 0.8; stroke: #000000; stroke-opacity: 0.8"/>
     <use xlink:href="#m86f89ee06e" x="580.170732" y="91.400252" style="fill-opacity: 0.8; stroke: #000000; stroke-opacity: 0.8"/>
    </g>
   </g>
   <g id="line2d_38">
    <path d="M 377.620843 242.386947 
L 432.386813 242.286303 
L 436.028107 242.056423 
L 438.433755 241.696912 
L 439.405007 241.471517 
L 441.642971 240.676576 
L 442.811794 240.066188 
L 445.294247 238.124928 
L 446.670832 236.594807 
L 449.564402 232.028624 
L 451.15754 228.71209 
L 454.05111 221.235001 
L 455.962613 215.481904 
L 461.200892 197.822793 
L 466.988032 178.029148 
L 469.881602 168.761399 
L 472.775172 160.085949 
L 475.668742 152.045184 
L 478.562312 144.644641 
L 481.455881 137.869188 
L 484.349451 131.692754 
L 487.243021 126.08402 
L 490.136591 121.009698 
L 493.030161 116.436372 
L 495.923731 112.331513 
L 498.8173 108.664 
L 501.71087 105.404358 
L 504.60444 102.524834 
L 507.49801 99.999377 
L 510.39158 97.803576 
L 513.28515 95.914565 
L 516.178719 94.310923 
L 519.072289 92.972571 
L 521.965859 91.880677 
L 524.859429 91.017558 
L 527.752999 90.366602 
L 530.646569 89.91219 
L 533.540139 89.639627 
L 536.433708 89.535083 
L 539.327278 89.585539 
L 542.220848 89.778741 
L 545.114418 90.10316 
L 550.901558 91.102933 
L 556.688697 92.505825 
L 562.475837 94.242457 
L 568.262977 96.252373 
L 574.050116 98.483394 
L 582.730826 102.148994 
L 593.263483 106.959919 
L 603.240049 111.750784 
L 609.10643 114.634655 
L 609.10643 114.634655 
" clip-path="url(#pa5990bfc2c)" style="fill: none; stroke: #ff0000; stroke-width: 1.5; stroke-linecap: square"/>
   </g>
  </g>
  <g id="legend_1">
   <g id="patch_12">
    <path d="M 769.44 71.724 
L 931.743 71.724 
Q 935.583 71.724 935.583 67.884 
L 935.583 13.44 
Q 935.583 9.6 931.743 9.6 
L 769.44 9.6 
Q 765.6 9.6 765.6 13.44 
L 765.6 67.884 
Q 765.6 71.724 769.44 71.724 
z
" style="fill: #ffffff; opacity: 0.8; stroke: #cccccc; stroke-linejoin: miter"/>
   </g>
   <g id="PathCollection_5">
    <g>
     <use xlink:href="#m42950e4976" x="792.48" y="26.829" style="fill: #ff0000; fill-opacity: 0.8; stroke: #ff0000; stroke-opacity: 0.8"/>
    </g>
   </g>
   <g id="text_41">
    <!-- 111 -->
    <g transform="translate(827.04 31.869) scale(0.192 -0.192)">
     <use xlink:href="#DejaVuSans-31"/>
     <use xlink:href="#DejaVuSans-31" x="63.623047"/>
     <use xlink:href="#DejaVuSans-31" x="127.246094"/>
    </g>
   </g>
   <g id="PathCollection_6">
    <g>
     <use xlink:href="#m86f89ee06e" x="792.48" y="55.011" style="fill-opacity: 0.8; stroke: #000000; stroke-opacity: 0.8"/>
    </g>
   </g>
   <g id="text_42">
    <!-- Population -->
    <g transform="translate(827.04 60.051) scale(0.192 -0.192)">
     <defs>
      <path id="DejaVuSans-50" d="M 1259 4147 
L 1259 2394 
L 2053 2394 
Q 2494 2394 2734 2622 
Q 2975 2850 2975 3272 
Q 2975 3691 2734 3919 
Q 2494 4147 2053 4147 
L 1259 4147 
z
M 628 4666 
L 2053 4666 
Q 2838 4666 3239 4311 
Q 3641 3956 3641 3272 
Q 3641 2581 3239 2228 
Q 2838 1875 2053 1875 
L 1259 1875 
L 1259 0 
L 628 0 
L 628 4666 
z
" transform="scale(0.015625)"/>
      <path id="DejaVuSans-70" d="M 1159 525 
L 1159 -1331 
L 581 -1331 
L 581 3500 
L 1159 3500 
L 1159 2969 
Q 1341 3281 1617 3432 
Q 1894 3584 2278 3584 
Q 2916 3584 3314 3078 
Q 3713 2572 3713 1747 
Q 3713 922 3314 415 
Q 2916 -91 2278 -91 
Q 1894 -91 1617 61 
Q 1341 213 1159 525 
z
M 3116 1747 
Q 3116 2381 2855 2742 
Q 2594 3103 2138 3103 
Q 1681 3103 1420 2742 
Q 1159 2381 1159 1747 
Q 1159 1113 1420 752 
Q 1681 391 2138 391 
Q 2594 391 2855 752 
Q 3116 1113 3116 1747 
z
" transform="scale(0.015625)"/>
      <path id="DejaVuSans-75" d="M 544 1381 
L 544 3500 
L 1119 3500 
L 1119 1403 
Q 1119 906 1312 657 
Q 1506 409 1894 409 
Q 2359 409 2629 706 
Q 2900 1003 2900 1516 
L 2900 3500 
L 3475 3500 
L 3475 0 
L 2900 0 
L 2900 538 
Q 2691 219 2414 64 
Q 2138 -91 1772 -91 
Q 1169 -91 856 284 
Q 544 659 544 1381 
z
M 1991 3584 
L 1991 3584 
z
" transform="scale(0.015625)"/>
      <path id="DejaVuSans-6c" d="M 603 4863 
L 1178 4863 
L 1178 0 
L 603 0 
L 603 4863 
z
" transform="scale(0.015625)"/>
      <path id="DejaVuSans-61" d="M 2194 1759 
Q 1497 1759 1228 1600 
Q 959 1441 959 1056 
Q 959 750 1161 570 
Q 1363 391 1709 391 
Q 2188 391 2477 730 
Q 2766 1069 2766 1631 
L 2766 1759 
L 2194 1759 
z
M 3341 1997 
L 3341 0 
L 2766 0 
L 2766 531 
Q 2569 213 2275 61 
Q 1981 -91 1556 -91 
Q 1019 -91 701 211 
Q 384 513 384 1019 
Q 384 1609 779 1909 
Q 1175 2209 1959 2209 
L 2766 2209 
L 2766 2266 
Q 2766 2663 2505 2880 
Q 2244 3097 1772 3097 
Q 1472 3097 1187 3025 
Q 903 2953 641 2809 
L 641 3341 
Q 956 3463 1253 3523 
Q 1550 3584 1831 3584 
Q 2591 3584 2966 3190 
Q 3341 2797 3341 1997 
z
" transform="scale(0.015625)"/>
      <path id="DejaVuSans-74" d="M 1172 4494 
L 1172 3500 
L 2356 3500 
L 2356 3053 
L 1172 3053 
L 1172 1153 
Q 1172 725 1289 603 
Q 1406 481 1766 481 
L 2356 481 
L 2356 0 
L 1766 0 
Q 1100 0 847 248 
Q 594 497 594 1153 
L 594 3053 
L 172 3053 
L 172 3500 
L 594 3500 
L 594 4494 
L 1172 4494 
z
" transform="scale(0.015625)"/>
      <path id="DejaVuSans-6e" d="M 3513 2113 
L 3513 0 
L 2938 0 
L 2938 2094 
Q 2938 2591 2744 2837 
Q 2550 3084 2163 3084 
Q 1697 3084 1428 2787 
Q 1159 2491 1159 1978 
L 1159 0 
L 581 0 
L 581 3500 
L 1159 3500 
L 1159 2956 
Q 1366 3272 1645 3428 
Q 1925 3584 2291 3584 
Q 2894 3584 3203 3211 
Q 3513 2838 3513 2113 
z
" transform="scale(0.015625)"/>
     </defs>
     <use xlink:href="#DejaVuSans-50"/>
     <use xlink:href="#DejaVuSans-6f" x="56.677734"/>
     <use xlink:href="#DejaVuSans-70" x="117.859375"/>
     <use xlink:href="#DejaVuSans-75" x="181.335938"/>
     <use xlink:href="#DejaVuSans-6c" x="244.714844"/>
     <use xlink:href="#DejaVuSans-61" x="272.498047"/>
     <use xlink:href="#DejaVuSans-74" x="333.777344"/>
     <use xlink:href="#DejaVuSans-69" x="372.986328"/>
     <use xlink:href="#DejaVuSans-6f" x="400.769531"/>
     <use xlink:href="#DejaVuSans-6e" x="461.951172"/>
    </g>
   </g>
  </g>
 </g>
 <defs>
  <clipPath id="pd907f4235f">
   <rect x="90" y="43.2" width="237.272727" height="277.2"/>
  </clipPath>
  <clipPath id="pa5990bfc2c">
   <rect x="374.727273" y="43.2" width="237.272727" height="277.2"/>
  </clipPath>
 </defs>
</svg>
