<?xml version="1.0" encoding="utf-8" standalone="no"?>
<!DOCTYPE svg PUBLIC "-//W3C//DTD SVG 1.1//EN"
  "http://www.w3.org/Graphics/SVG/1.1/DTD/svg11.dtd">
<svg xmlns:xlink="http://www.w3.org/1999/xlink" width="720pt" height="360pt" viewBox="0 0 720 360" xmlns="http://www.w3.org/2000/svg" version="1.1">
 <metadata>
  <rdf:RDF xmlns:dc="http://purl.org/dc/elements/1.1/" xmlns:cc="http://creativecommons.org/ns#" xmlns:rdf="http://www.w3.org/1999/02/22-rdf-syntax-ns#">
   <cc:Work>
    <dc:type rdf:resource="http://purl.org/dc/dcmitype/StillImage"/>
    <dc:date>2024-12-04T11:15:16.996786</dc:date>
    <dc:format>image/svg+xml</dc:format>
    <dc:creator>
     <cc:Agent>
      <dc:title>Matplotlib v3.9.2, https://matplotlib.org/</dc:title>
     </cc:Agent>
    </dc:creator>
   </cc:Work>
  </rdf:RDF>
 </metadata>
 <defs>
  <style type="text/css">*{stroke-linejoin: round; stroke-linecap: butt}</style>
 </defs>
 <g id="figure_1">
  <g id="patch_1">
   <path d="M 0 360 
L 720 360 
L 720 0 
L 0 0 
z
" style="fill: #ffffff"/>
  </g>
  <g id="axes_1">
   <g id="patch_2">
    <path d="M 90 320.4 
L 327.272727 320.4 
L 327.272727 43.2 
L 90 43.2 
z
" style="fill: #ffffff"/>
   </g>
   <g id="matplotlib.axis_1">
    <g id="xtick_1">
     <g id="text_1">
      <!-- 0 -->
      <g style="fill: #262626" transform="translate(88.889695 340.20725) scale(0.144 -0.144)">
       <defs>
        <path id="ArialMT-30" d="M 266 2259 
Q 266 3072 433 3567 
Q 600 4063 929 4331 
Q 1259 4600 1759 4600 
Q 2128 4600 2406 4451 
Q 2684 4303 2865 4023 
Q 3047 3744 3150 3342 
Q 3253 2941 3253 2259 
Q 3253 1453 3087 958 
Q 2922 463 2592 192 
Q 2263 -78 1759 -78 
Q 1097 -78 719 397 
Q 266 969 266 2259 
z
M 844 2259 
Q 844 1131 1108 757 
Q 1372 384 1759 384 
Q 2147 384 2411 759 
Q 2675 1134 2675 2259 
Q 2675 3391 2411 3762 
Q 2147 4134 1753 4134 
Q 1366 4134 1134 3806 
Q 844 3388 844 2259 
z
" transform="scale(0.015625)"/>
       </defs>
       <use xlink:href="#ArialMT-30"/>
      </g>
     </g>
    </g>
    <g id="xtick_2">
     <g id="text_2">
      <!-- 1 -->
      <g style="fill: #262626" transform="translate(117.825393 340.20725) scale(0.144 -0.144)">
       <defs>
        <path id="ArialMT-31" d="M 2384 0 
L 1822 0 
L 1822 3584 
Q 1619 3391 1289 3197 
Q 959 3003 697 2906 
L 697 3450 
Q 1169 3672 1522 3987 
Q 1875 4303 2022 4600 
L 2384 4600 
L 2384 0 
z
" transform="scale(0.015625)"/>
       </defs>
       <use xlink:href="#ArialMT-31"/>
      </g>
     </g>
    </g>
    <g id="xtick_3">
     <g id="text_3">
      <!-- 2 -->
      <g style="fill: #262626" transform="translate(146.761092 340.20725) scale(0.144 -0.144)">
       <defs>
        <path id="ArialMT-32" d="M 3222 541 
L 3222 0 
L 194 0 
Q 188 203 259 391 
Q 375 700 629 1000 
Q 884 1300 1366 1694 
Q 2113 2306 2375 2664 
Q 2638 3022 2638 3341 
Q 2638 3675 2398 3904 
Q 2159 4134 1775 4134 
Q 1369 4134 1125 3890 
Q 881 3647 878 3216 
L 300 3275 
Q 359 3922 746 4261 
Q 1134 4600 1788 4600 
Q 2447 4600 2831 4234 
Q 3216 3869 3216 3328 
Q 3216 3053 3103 2787 
Q 2991 2522 2730 2228 
Q 2469 1934 1863 1422 
Q 1356 997 1212 845 
Q 1069 694 975 541 
L 3222 541 
z
" transform="scale(0.015625)"/>
       </defs>
       <use xlink:href="#ArialMT-32"/>
      </g>
     </g>
    </g>
    <g id="xtick_4">
     <g id="text_4">
      <!-- 3 -->
      <g style="fill: #262626" transform="translate(175.69679 340.20725) scale(0.144 -0.144)">
       <defs>
        <path id="ArialMT-33" d="M 269 1209 
L 831 1284 
Q 928 806 1161 595 
Q 1394 384 1728 384 
Q 2125 384 2398 659 
Q 2672 934 2672 1341 
Q 2672 1728 2419 1979 
Q 2166 2231 1775 2231 
Q 1616 2231 1378 2169 
L 1441 2663 
Q 1497 2656 1531 2656 
Q 1891 2656 2178 2843 
Q 2466 3031 2466 3422 
Q 2466 3731 2256 3934 
Q 2047 4138 1716 4138 
Q 1388 4138 1169 3931 
Q 950 3725 888 3313 
L 325 3413 
Q 428 3978 793 4289 
Q 1159 4600 1703 4600 
Q 2078 4600 2393 4439 
Q 2709 4278 2876 4000 
Q 3044 3722 3044 3409 
Q 3044 3113 2884 2869 
Q 2725 2625 2413 2481 
Q 2819 2388 3044 2092 
Q 3269 1797 3269 1353 
Q 3269 753 2831 336 
Q 2394 -81 1725 -81 
Q 1122 -81 723 278 
Q 325 638 269 1209 
z
" transform="scale(0.015625)"/>
       </defs>
       <use xlink:href="#ArialMT-33"/>
      </g>
     </g>
    </g>
    <g id="xtick_5">
     <g id="text_5">
      <!-- 4 -->
      <g style="fill: #262626" transform="translate(204.632489 340.20725) scale(0.144 -0.144)">
       <defs>
        <path id="ArialMT-34" d="M 2069 0 
L 2069 1097 
L 81 1097 
L 81 1613 
L 2172 4581 
L 2631 4581 
L 2631 1613 
L 3250 1613 
L 3250 1097 
L 2631 1097 
L 2631 0 
L 2069 0 
z
M 2069 1613 
L 2069 3678 
L 634 1613 
L 2069 1613 
z
" transform="scale(0.015625)"/>
       </defs>
       <use xlink:href="#ArialMT-34"/>
      </g>
     </g>
    </g>
    <g id="xtick_6">
     <g id="text_6">
      <!-- 5 -->
      <g style="fill: #262626" transform="translate(233.568187 340.20725) scale(0.144 -0.144)">
       <defs>
        <path id="ArialMT-35" d="M 266 1200 
L 856 1250 
Q 922 819 1161 601 
Q 1400 384 1738 384 
Q 2144 384 2425 690 
Q 2706 997 2706 1503 
Q 2706 1984 2436 2262 
Q 2166 2541 1728 2541 
Q 1456 2541 1237 2417 
Q 1019 2294 894 2097 
L 366 2166 
L 809 4519 
L 3088 4519 
L 3088 3981 
L 1259 3981 
L 1013 2750 
Q 1425 3038 1878 3038 
Q 2478 3038 2890 2622 
Q 3303 2206 3303 1553 
Q 3303 931 2941 478 
Q 2500 -78 1738 -78 
Q 1113 -78 717 272 
Q 322 622 266 1200 
z
" transform="scale(0.015625)"/>
       </defs>
       <use xlink:href="#ArialMT-35"/>
      </g>
     </g>
    </g>
    <g id="xtick_7">
     <g id="text_7">
      <!-- 6 -->
      <g style="fill: #262626" transform="translate(262.503886 340.20725) scale(0.144 -0.144)">
       <defs>
        <path id="ArialMT-36" d="M 3184 3459 
L 2625 3416 
Q 2550 3747 2413 3897 
Q 2184 4138 1850 4138 
Q 1581 4138 1378 3988 
Q 1113 3794 959 3422 
Q 806 3050 800 2363 
Q 1003 2672 1297 2822 
Q 1591 2972 1913 2972 
Q 2475 2972 2870 2558 
Q 3266 2144 3266 1488 
Q 3266 1056 3080 686 
Q 2894 316 2569 119 
Q 2244 -78 1831 -78 
Q 1128 -78 684 439 
Q 241 956 241 2144 
Q 241 3472 731 4075 
Q 1159 4600 1884 4600 
Q 2425 4600 2770 4297 
Q 3116 3994 3184 3459 
z
M 888 1484 
Q 888 1194 1011 928 
Q 1134 663 1356 523 
Q 1578 384 1822 384 
Q 2178 384 2434 671 
Q 2691 959 2691 1453 
Q 2691 1928 2437 2201 
Q 2184 2475 1800 2475 
Q 1419 2475 1153 2201 
Q 888 1928 888 1484 
z
" transform="scale(0.015625)"/>
       </defs>
       <use xlink:href="#ArialMT-36"/>
      </g>
     </g>
    </g>
    <g id="xtick_8">
     <g id="text_8">
      <!-- 7 -->
      <g style="fill: #262626" transform="translate(291.439584 340.20725) scale(0.144 -0.144)">
       <defs>
        <path id="ArialMT-37" d="M 303 3981 
L 303 4522 
L 3269 4522 
L 3269 4084 
Q 2831 3619 2401 2847 
Q 1972 2075 1738 1259 
Q 1569 684 1522 0 
L 944 0 
Q 953 541 1156 1306 
Q 1359 2072 1739 2783 
Q 2119 3494 2547 3981 
L 303 3981 
z
" transform="scale(0.015625)"/>
       </defs>
       <use xlink:href="#ArialMT-37"/>
      </g>
     </g>
    </g>
    <g id="xtick_9">
     <g id="text_9">
      <!-- 8 -->
      <g style="fill: #262626" transform="translate(320.375282 340.20725) scale(0.144 -0.144)">
       <defs>
        <path id="ArialMT-38" d="M 1131 2484 
Q 781 2613 612 2850 
Q 444 3088 444 3419 
Q 444 3919 803 4259 
Q 1163 4600 1759 4600 
Q 2359 4600 2725 4251 
Q 3091 3903 3091 3403 
Q 3091 3084 2923 2848 
Q 2756 2613 2416 2484 
Q 2838 2347 3058 2040 
Q 3278 1734 3278 1309 
Q 3278 722 2862 322 
Q 2447 -78 1769 -78 
Q 1091 -78 675 323 
Q 259 725 259 1325 
Q 259 1772 486 2073 
Q 713 2375 1131 2484 
z
M 1019 3438 
Q 1019 3113 1228 2906 
Q 1438 2700 1772 2700 
Q 2097 2700 2305 2904 
Q 2513 3109 2513 3406 
Q 2513 3716 2298 3927 
Q 2084 4138 1766 4138 
Q 1444 4138 1231 3931 
Q 1019 3725 1019 3438 
z
M 838 1322 
Q 838 1081 952 856 
Q 1066 631 1291 507 
Q 1516 384 1775 384 
Q 2178 384 2440 643 
Q 2703 903 2703 1303 
Q 2703 1709 2433 1975 
Q 2163 2241 1756 2241 
Q 1359 2241 1098 1978 
Q 838 1716 838 1322 
z
" transform="scale(0.015625)"/>
       </defs>
       <use xlink:href="#ArialMT-38"/>
      </g>
     </g>
    </g>
    <g id="text_10">
     <!-- Time (d) -->
     <g style="fill: #262626" transform="translate(173.266364 361.04625) scale(0.192 -0.192)">
      <defs>
       <path id="ArialMT-54" d="M 1659 0 
L 1659 4041 
L 150 4041 
L 150 4581 
L 3781 4581 
L 3781 4041 
L 2266 4041 
L 2266 0 
L 1659 0 
z
" transform="scale(0.015625)"/>
       <path id="ArialMT-69" d="M 425 3934 
L 425 4581 
L 988 4581 
L 988 3934 
L 425 3934 
z
M 425 0 
L 425 3319 
L 988 3319 
L 988 0 
L 425 0 
z
" transform="scale(0.015625)"/>
       <path id="ArialMT-6d" d="M 422 0 
L 422 3319 
L 925 3319 
L 925 2853 
Q 1081 3097 1340 3245 
Q 1600 3394 1931 3394 
Q 2300 3394 2536 3241 
Q 2772 3088 2869 2813 
Q 3263 3394 3894 3394 
Q 4388 3394 4653 3120 
Q 4919 2847 4919 2278 
L 4919 0 
L 4359 0 
L 4359 2091 
Q 4359 2428 4304 2576 
Q 4250 2725 4106 2815 
Q 3963 2906 3769 2906 
Q 3419 2906 3187 2673 
Q 2956 2441 2956 1928 
L 2956 0 
L 2394 0 
L 2394 2156 
Q 2394 2531 2256 2718 
Q 2119 2906 1806 2906 
Q 1569 2906 1367 2781 
Q 1166 2656 1075 2415 
Q 984 2175 984 1722 
L 984 0 
L 422 0 
z
" transform="scale(0.015625)"/>
       <path id="ArialMT-65" d="M 2694 1069 
L 3275 997 
Q 3138 488 2766 206 
Q 2394 -75 1816 -75 
Q 1088 -75 661 373 
Q 234 822 234 1631 
Q 234 2469 665 2931 
Q 1097 3394 1784 3394 
Q 2450 3394 2872 2941 
Q 3294 2488 3294 1666 
Q 3294 1616 3291 1516 
L 816 1516 
Q 847 969 1125 678 
Q 1403 388 1819 388 
Q 2128 388 2347 550 
Q 2566 713 2694 1069 
z
M 847 1978 
L 2700 1978 
Q 2663 2397 2488 2606 
Q 2219 2931 1791 2931 
Q 1403 2931 1139 2672 
Q 875 2413 847 1978 
z
" transform="scale(0.015625)"/>
       <path id="ArialMT-20" transform="scale(0.015625)"/>
       <path id="ArialMT-28" d="M 1497 -1347 
Q 1031 -759 709 28 
Q 388 816 388 1659 
Q 388 2403 628 3084 
Q 909 3875 1497 4659 
L 1900 4659 
Q 1522 4009 1400 3731 
Q 1209 3300 1100 2831 
Q 966 2247 966 1656 
Q 966 153 1900 -1347 
L 1497 -1347 
z
" transform="scale(0.015625)"/>
       <path id="ArialMT-64" d="M 2575 0 
L 2575 419 
Q 2259 -75 1647 -75 
Q 1250 -75 917 144 
Q 584 363 401 755 
Q 219 1147 219 1656 
Q 219 2153 384 2558 
Q 550 2963 881 3178 
Q 1213 3394 1622 3394 
Q 1922 3394 2156 3267 
Q 2391 3141 2538 2938 
L 2538 4581 
L 3097 4581 
L 3097 0 
L 2575 0 
z
M 797 1656 
Q 797 1019 1065 703 
Q 1334 388 1700 388 
Q 2069 388 2326 689 
Q 2584 991 2584 1609 
Q 2584 2291 2321 2609 
Q 2059 2928 1675 2928 
Q 1300 2928 1048 2622 
Q 797 2316 797 1656 
z
" transform="scale(0.015625)"/>
       <path id="ArialMT-29" d="M 791 -1347 
L 388 -1347 
Q 1322 153 1322 1656 
Q 1322 2244 1188 2822 
Q 1081 3291 891 3722 
Q 769 4003 388 4659 
L 791 4659 
Q 1378 3875 1659 3084 
Q 1900 2403 1900 1659 
Q 1900 816 1576 28 
Q 1253 -759 791 -1347 
z
" transform="scale(0.015625)"/>
      </defs>
      <use xlink:href="#ArialMT-54"/>
      <use xlink:href="#ArialMT-69" x="57.333984"/>
      <use xlink:href="#ArialMT-6d" x="79.550781"/>
      <use xlink:href="#ArialMT-65" x="162.851562"/>
      <use xlink:href="#ArialMT-20" x="218.466797"/>
      <use xlink:href="#ArialMT-28" x="246.25"/>
      <use xlink:href="#ArialMT-64" x="279.550781"/>
      <use xlink:href="#ArialMT-29" x="335.166016"/>
     </g>
    </g>
   </g>
   <g id="matplotlib.axis_2">
    <g id="ytick_1">
     <g id="text_11">
      <!-- 0 -->
      <g style="fill: #262626" transform="translate(72.49225 325.553625) scale(0.144 -0.144)">
       <use xlink:href="#ArialMT-30"/>
      </g>
     </g>
    </g>
    <g id="ytick_2">
     <g id="text_12">
      <!-- 1 -->
      <g style="fill: #262626" transform="translate(72.49225 291.953625) scale(0.144 -0.144)">
       <use xlink:href="#ArialMT-31"/>
      </g>
     </g>
    </g>
    <g id="ytick_3">
     <g id="text_13">
      <!-- 2 -->
      <g style="fill: #262626" transform="translate(72.49225 258.353625) scale(0.144 -0.144)">
       <use xlink:href="#ArialMT-32"/>
      </g>
     </g>
    </g>
    <g id="ytick_4">
     <g id="text_14">
      <!-- 3 -->
      <g style="fill: #262626" transform="translate(72.49225 224.753625) scale(0.144 -0.144)">
       <use xlink:href="#ArialMT-33"/>
      </g>
     </g>
    </g>
    <g id="ytick_5">
     <g id="text_15">
      <!-- 4 -->
      <g style="fill: #262626" transform="translate(72.49225 191.153625) scale(0.144 -0.144)">
       <use xlink:href="#ArialMT-34"/>
      </g>
     </g>
    </g>
    <g id="ytick_6">
     <g id="text_16">
      <!-- 5 -->
      <g style="fill: #262626" transform="translate(72.49225 157.553625) scale(0.144 -0.144)">
       <use xlink:href="#ArialMT-35"/>
      </g>
     </g>
    </g>
    <g id="ytick_7">
     <g id="text_17">
      <!-- 6 -->
      <g style="fill: #262626" transform="translate(72.49225 123.953625) scale(0.144 -0.144)">
       <use xlink:href="#ArialMT-36"/>
      </g>
     </g>
    </g>
    <g id="ytick_8">
     <g id="text_18">
      <!-- 7 -->
      <g style="fill: #262626" transform="translate(72.49225 90.353625) scale(0.144 -0.144)">
       <use xlink:href="#ArialMT-37"/>
      </g>
     </g>
    </g>
    <g id="ytick_9">
     <g id="text_19">
      <!-- 8 -->
      <g style="fill: #262626" transform="translate(72.49225 56.753625) scale(0.144 -0.144)">
       <use xlink:href="#ArialMT-38"/>
      </g>
     </g>
    </g>
    <g id="text_20">
     <!-- Log10(V) -->
     <g style="fill: #262626" transform="translate(64.45125 221.289) rotate(-90) scale(0.192 -0.192)">
      <defs>
       <path id="ArialMT-4c" d="M 469 0 
L 469 4581 
L 1075 4581 
L 1075 541 
L 3331 541 
L 3331 0 
L 469 0 
z
" transform="scale(0.015625)"/>
       <path id="ArialMT-6f" d="M 213 1659 
Q 213 2581 725 3025 
Q 1153 3394 1769 3394 
Q 2453 3394 2887 2945 
Q 3322 2497 3322 1706 
Q 3322 1066 3130 698 
Q 2938 331 2570 128 
Q 2203 -75 1769 -75 
Q 1072 -75 642 372 
Q 213 819 213 1659 
z
M 791 1659 
Q 791 1022 1069 705 
Q 1347 388 1769 388 
Q 2188 388 2466 706 
Q 2744 1025 2744 1678 
Q 2744 2294 2464 2611 
Q 2184 2928 1769 2928 
Q 1347 2928 1069 2612 
Q 791 2297 791 1659 
z
" transform="scale(0.015625)"/>
       <path id="ArialMT-67" d="M 319 -275 
L 866 -356 
Q 900 -609 1056 -725 
Q 1266 -881 1628 -881 
Q 2019 -881 2231 -725 
Q 2444 -569 2519 -288 
Q 2563 -116 2559 434 
Q 2191 0 1641 0 
Q 956 0 581 494 
Q 206 988 206 1678 
Q 206 2153 378 2554 
Q 550 2956 876 3175 
Q 1203 3394 1644 3394 
Q 2231 3394 2613 2919 
L 2613 3319 
L 3131 3319 
L 3131 450 
Q 3131 -325 2973 -648 
Q 2816 -972 2473 -1159 
Q 2131 -1347 1631 -1347 
Q 1038 -1347 672 -1080 
Q 306 -813 319 -275 
z
M 784 1719 
Q 784 1066 1043 766 
Q 1303 466 1694 466 
Q 2081 466 2343 764 
Q 2606 1063 2606 1700 
Q 2606 2309 2336 2618 
Q 2066 2928 1684 2928 
Q 1309 2928 1046 2623 
Q 784 2319 784 1719 
z
" transform="scale(0.015625)"/>
       <path id="ArialMT-56" d="M 1803 0 
L 28 4581 
L 684 4581 
L 1875 1253 
Q 2019 853 2116 503 
Q 2222 878 2363 1253 
L 3600 4581 
L 4219 4581 
L 2425 0 
L 1803 0 
z
" transform="scale(0.015625)"/>
      </defs>
      <use xlink:href="#ArialMT-4c"/>
      <use xlink:href="#ArialMT-6f" x="55.615234"/>
      <use xlink:href="#ArialMT-67" x="111.230469"/>
      <use xlink:href="#ArialMT-31" x="166.845703"/>
      <use xlink:href="#ArialMT-30" x="222.460938"/>
      <use xlink:href="#ArialMT-28" x="278.076172"/>
      <use xlink:href="#ArialMT-56" x="311.376953"/>
      <use xlink:href="#ArialMT-29" x="378.076172"/>
     </g>
    </g>
   </g>
   <g id="patch_3">
    <path d="M 90 320.4 
L 90 43.2 
" style="fill: none; stroke: #262626; stroke-width: 1.25; stroke-linejoin: miter; stroke-linecap: square"/>
   </g>
   <g id="patch_4">
    <path d="M 327.272727 320.4 
L 327.272727 43.2 
" style="fill: none; stroke: #262626; stroke-width: 1.25; stroke-linejoin: miter; stroke-linecap: square"/>
   </g>
   <g id="patch_5">
    <path d="M 90 320.4 
L 327.272727 320.4 
" style="fill: none; stroke: #262626; stroke-width: 1.25; stroke-linejoin: miter; stroke-linecap: square"/>
   </g>
   <g id="patch_6">
    <path d="M 90 43.2 
L 327.272727 43.2 
" style="fill: none; stroke: #262626; stroke-width: 1.25; stroke-linejoin: miter; stroke-linecap: square"/>
   </g>
   <g id="PolyCollection_1">
    <defs>
     <path id="mce4d0d42fd" d="M 92.89357 -39.6 
L 92.89357 -39.6 
L 92.89401 -39.6 
L 92.898409 -39.6 
L 92.942404 -39.6 
L 93.081057 -39.6 
L 93.19512 -39.6 
L 93.534383 -39.6 
L 93.810981 -39.6 
L 94.638418 -39.6 
L 95.215884 -39.6 
L 96.585199 -43.593627 
L 97.351886 -47.64195 
L 98.959957 -55.739826 
L 99.82615 -59.981092 
L 101.385835 -67.558457 
L 102.343195 -72.021992 
L 103.934739 -79.456254 
L 104.957608 -84.218597 
L 106.542382 -91.178423 
L 107.617106 -95.875299 
L 109.202588 -102.8182 
L 110.314922 -107.682413 
L 112.060569 -115.334789 
L 113.154723 -120.127631 
L 114.66828 -126.741427 
L 115.808035 -131.724532 
L 117.460179 -138.942218 
L 118.593425 -143.899694 
L 120.128118 -150.579484 
L 121.289456 -155.639508 
L 122.944836 -162.80733 
L 124.098264 -167.802395 
L 125.666969 -174.510953 
L 126.85432 -179.553928 
L 128.561917 -186.658667 
L 129.760467 -191.538466 
L 131.394525 -197.956163 
L 132.626684 -202.502322 
L 134.387871 -208.590891 
L 135.630817 -212.320957 
L 137.31747 -216.886614 
L 138.585901 -219.608842 
L 140.202074 -222.445692 
L 141.362392 -223.39418 
L 142.789587 -224.23321 
L 143.931905 -224.742767 
L 145.131308 -225.143547 
L 146.151716 -225.393302 
L 147.074886 -225.51151 
L 147.889872 -225.583717 
L 148.62117 -225.62239 
L 149.276935 -225.634311 
L 149.9327 -225.643363 
L 150.472505 -225.633898 
L 150.968876 -225.619124 
L 151.465248 -225.595999 
L 151.872893 -225.577007 
L 152.331159 -225.548763 
L 152.697809 -225.522288 
L 153.980121 -225.409007 
L 154.494388 -225.357472 
L 156.212376 -225.148897 
L 156.952809 -225.050713 
L 159.846378 -224.600965 
L 160.979511 -224.406702 
L 163.873081 -223.874005 
L 165.337031 -223.589673 
L 168.230601 -223.001933 
L 170.131937 -222.604748 
L 173.025507 -221.980857 
L 175.435793 -221.448879 
L 178.329362 -220.797625 
L 181.222932 -220.133112 
L 184.116502 -219.454976 
L 187.010072 -218.761935 
L 189.903642 -218.05203 
L 192.797212 -217.322825 
L 195.690782 -216.571578 
L 198.584351 -215.795398 
L 201.477921 -214.991368 
L 204.371491 -214.15665 
L 207.265061 -213.288557 
L 210.158631 -212.38461 
L 213.052201 -211.442555 
L 215.94577 -210.460371 
L 218.83934 -209.43625 
L 221.73291 -208.368561 
L 224.62648 -207.255805 
L 227.52005 -206.096548 
L 230.41362 -204.889354 
L 233.30719 -203.6327 
L 236.200759 -202.324882 
L 239.094329 -200.963919 
L 241.987899 -199.547425 
L 244.881469 -198.072476 
L 247.775039 -196.535443 
L 250.668609 -194.931788 
L 253.562178 -193.255803 
L 256.455748 -191.500268 
L 259.349318 -189.655991 
L 262.242888 -187.711165 
L 265.136458 -185.499965 
L 268.030028 -183.108956 
L 270.923598 -180.541903 
L 273.817167 -177.756524 
L 276.710737 -174.691633 
L 279.604307 -171.254356 
L 282.497877 -167.294204 
L 285.391447 -162.543703 
L 288.285017 -156.455551 
L 291.178586 -147.592499 
L 294.072156 -130.886137 
L 294.65087 -124.53056 
L 295.229584 -114.951505 
L 295.435346 -108.175148 
L 295.544954 -102.751012 
L 295.575085 -101.264555 
L 295.576105 -101.214212 
L 295.581207 -100.962498 
L 295.585466 -100.752382 
L 295.588209 -100.617071 
L 295.588313 -100.611951 
L 295.589351 -100.560752 
L 295.59258 -100.401459 
L 295.595809 -100.242166 
L 295.608015 -99.63997 
L 295.643849 -97.872173 
L 295.736656 -93.151504 
L 295.926045 -83.2807 
L 296.115434 -73.325585 
L 296.420463 -56.003901 
L 296.725492 -43.098986 
L 297.109302 -39.6 
L 297.493111 -39.6 
L 297.930412 -39.6 
L 298.391775 -39.6 
L 298.953667 -39.6 
L 299.65532 -39.6 
L 300.974278 -39.6 
L 303.582411 -39.6 
L 305.571717 -39.6 
L 308.465287 -39.6 
L 311.358857 -39.6 
L 314.252427 -39.6 
L 317.145997 -39.6 
L 320.039567 -39.6 
L 322.933137 -39.6 
L 324.379157 -39.6 
L 324.379157 -39.6 
L 324.379157 -39.6 
L 322.933137 -39.6 
L 320.039567 -39.6 
L 317.145997 -39.6 
L 314.252427 -39.6 
L 311.358857 -39.6 
L 308.465287 -39.6 
L 305.571717 -39.6 
L 303.582411 -39.6 
L 300.974278 -39.6 
L 299.65532 -52.460447 
L 298.953667 -71.152094 
L 298.391775 -85.575133 
L 297.930412 -96.278525 
L 297.493111 -104.738656 
L 297.109302 -113.008355 
L 296.725492 -119.790531 
L 296.420463 -124.190289 
L 296.115434 -127.770318 
L 295.926045 -129.993122 
L 295.736656 -132.215925 
L 295.643849 -133.70699 
L 295.608015 -134.226208 
L 295.595809 -134.304373 
L 295.59258 -134.325049 
L 295.589351 -134.345725 
L 295.588313 -134.352371 
L 295.588209 -134.353035 
L 295.585466 -134.370599 
L 295.581207 -134.397872 
L 295.576105 -134.430544 
L 295.575085 -134.437079 
L 295.544954 -134.636144 
L 295.435346 -135.361565 
L 295.229584 -137.91337 
L 294.65087 -142.575474 
L 294.072156 -146.675384 
L 291.178586 -158.769444 
L 288.285017 -165.986827 
L 285.391447 -171.111036 
L 282.497877 -175.30078 
L 279.604307 -178.886065 
L 276.710737 -181.991689 
L 273.817167 -184.743918 
L 270.923598 -187.231278 
L 268.030028 -189.512383 
L 265.136458 -191.627981 
L 262.242888 -193.607472 
L 259.349318 -195.472689 
L 256.455748 -197.240206 
L 253.562178 -198.922819 
L 250.668609 -200.530532 
L 247.775039 -202.071224 
L 244.881469 -203.55113 
L 241.987899 -204.975183 
L 239.094329 -206.347269 
L 236.200759 -207.670431 
L 233.30719 -208.947018 
L 230.41362 -210.178822 
L 227.52005 -211.367188 
L 224.62648 -212.513111 
L 221.73291 -213.631955 
L 218.83934 -214.708716 
L 215.94577 -215.758019 
L 213.052201 -216.778617 
L 210.158631 -217.758044 
L 207.265061 -218.696778 
L 204.371491 -219.595536 
L 201.477921 -220.455342 
L 198.584351 -221.277569 
L 195.690782 -222.063967 
L 192.797212 -222.816657 
L 189.903642 -223.538076 
L 187.010072 -224.23089 
L 184.116502 -224.916807 
L 181.222932 -225.598995 
L 178.329362 -226.258765 
L 175.435793 -226.89828 
L 173.025507 -227.417182 
L 170.131937 -228.022567 
L 168.230601 -228.409914 
L 165.337031 -228.980459 
L 163.873081 -229.25939 
L 160.979511 -229.784793 
L 159.846378 -229.979561 
L 156.952809 -230.437918 
L 156.212376 -230.548002 
L 154.494388 -230.768694 
L 153.980121 -230.829699 
L 152.697809 -230.981239 
L 152.331159 -231.016213 
L 151.872893 -231.058823 
L 151.465248 -231.089384 
L 150.968876 -231.13281 
L 150.472505 -231.179689 
L 149.9327 -231.219571 
L 149.276935 -231.262481 
L 148.62117 -231.29732 
L 147.889872 -231.31959 
L 147.074886 -231.324536 
L 146.151716 -231.302232 
L 145.131308 -231.240519 
L 143.931905 -231.099113 
L 142.789587 -230.891758 
L 141.362392 -230.493674 
L 140.202074 -230.037958 
L 138.585901 -229.11646 
L 137.31747 -228.083212 
L 135.630817 -226.222804 
L 134.387871 -224.257165 
L 132.626684 -220.722212 
L 131.394525 -217.356673 
L 129.760467 -212.220002 
L 128.561917 -207.700863 
L 126.85432 -200.681578 
L 125.666969 -195.387466 
L 124.098264 -188.104307 
L 122.944836 -182.559824 
L 121.289456 -174.463705 
L 120.128118 -168.697617 
L 118.593425 -161.042651 
L 117.460179 -155.351777 
L 115.808035 -147.042071 
L 114.66828 -141.283491 
L 113.154723 -133.653282 
L 112.060569 -128.125055 
L 110.314922 -119.296038 
L 109.202588 -113.662159 
L 107.617106 -105.647444 
L 106.542382 -100.214403 
L 104.957608 -92.199387 
L 103.934739 -87.031653 
L 102.343195 -78.976724 
L 101.385835 -74.140707 
L 99.82615 -66.220959 
L 98.959957 -61.815034 
L 97.351886 -53.402007 
L 96.585199 -49.193475 
L 95.215884 -40.355087 
L 94.638418 -39.6 
L 93.810981 -39.6 
L 93.534383 -39.6 
L 93.19512 -39.6 
L 93.081057 -39.6 
L 92.942404 -39.6 
L 92.898409 -39.6 
L 92.89401 -39.6 
L 92.89357 -39.6 
z
" style="stroke: #808080; stroke-opacity: 0.2"/>
    </defs>
    <g clip-path="url(#pebdc17c0e6)">
     <use xlink:href="#mce4d0d42fd" x="0" y="360" style="fill: #808080; fill-opacity: 0.2; stroke: #808080; stroke-opacity: 0.2"/>
    </g>
   </g>
   <g id="PathCollection_1">
    <defs>
     <path id="mefde85025a" d="M 0 4.330127 
C 1.148363 4.330127 2.249847 3.873878 3.061862 3.061862 
C 3.873878 2.249847 4.330127 1.148363 4.330127 0 
C 4.330127 -1.148363 3.873878 -2.249847 3.061862 -3.061862 
C 2.249847 -3.873878 1.148363 -4.330127 0 -4.330127 
C -1.148363 -4.330127 -2.249847 -3.873878 -3.061862 -3.061862 
C -3.873878 -2.249847 -4.330127 -1.148363 -4.330127 0 
C -4.330127 1.148363 -3.873878 2.249847 -3.061862 3.061862 
C -2.249847 3.873878 -1.148363 4.330127 0 4.330127 
z
" style="stroke: #808080; stroke-opacity: 0.8"/>
    </defs>
    <g clip-path="url(#pebdc17c0e6)">
     <use xlink:href="#mefde85025a" x="92.89357" y="320.4" style="fill: #808080; fill-opacity: 0.8; stroke: #808080; stroke-opacity: 0.8"/>
     <use xlink:href="#mefde85025a" x="121.829268" y="191.915937" style="fill: #808080; fill-opacity: 0.8; stroke: #808080; stroke-opacity: 0.8"/>
     <use xlink:href="#mefde85025a" x="150.764967" y="139.133896" style="fill: #808080; fill-opacity: 0.8; stroke: #808080; stroke-opacity: 0.8"/>
     <use xlink:href="#mefde85025a" x="179.700665" y="123.121682" style="fill: #808080; fill-opacity: 0.8; stroke: #808080; stroke-opacity: 0.8"/>
     <use xlink:href="#mefde85025a" x="208.636364" y="148.291014" style="fill: #808080; fill-opacity: 0.8; stroke: #808080; stroke-opacity: 0.8"/>
     <use xlink:href="#mefde85025a" x="237.572062" y="180.605232" style="fill: #808080; fill-opacity: 0.8; stroke: #808080; stroke-opacity: 0.8"/>
     <use xlink:href="#mefde85025a" x="266.507761" y="145.787689" style="fill: #808080; fill-opacity: 0.8; stroke: #808080; stroke-opacity: 0.8"/>
     <use xlink:href="#mefde85025a" x="295.443459" y="237.968504" style="fill: #808080; fill-opacity: 0.8; stroke: #808080; stroke-opacity: 0.8"/>
    </g>
   </g>
   <g id="line2d_1">
    <path d="M 92.89357 320.4 
L 95.215884 320.4 
L 97.351886 308.935611 
L 101.385835 289.387285 
L 124.098264 182.224936 
L 126.85432 169.908423 
L 129.760467 157.931565 
L 131.394525 151.989631 
L 132.626684 148.021442 
L 134.387871 143.250263 
L 135.630817 140.533165 
L 137.31747 137.67315 
L 138.585901 136.060828 
L 140.202074 134.544268 
L 141.362392 133.746139 
L 142.789587 133.016687 
L 145.131308 132.259291 
L 147.074886 131.920476 
L 149.276935 131.75337 
L 152.331159 131.781273 
L 154.494388 131.926285 
L 159.846378 132.558745 
L 165.337031 133.442684 
L 175.435793 135.3555 
L 187.010072 137.831847 
L 195.690782 139.926692 
L 204.371491 142.297143 
L 213.052201 144.992956 
L 218.83934 146.984689 
L 224.62648 149.13717 
L 230.41362 151.454465 
L 236.200759 153.943299 
L 241.987899 156.615945 
L 247.775039 159.493596 
L 253.562178 162.610942 
L 259.349318 166.023476 
L 265.136458 169.820784 
L 268.030028 171.907195 
L 270.923598 174.153785 
L 273.817167 176.599199 
L 276.710737 179.298632 
L 279.604307 182.334669 
L 282.497877 185.838839 
L 285.391447 190.039753 
L 288.285017 195.390511 
L 291.178586 203.013099 
L 294.072156 217.480122 
L 294.65087 223.134764 
L 295.229584 232.251072 
L 295.643849 245.644704 
L 297.109302 312.442612 
L 297.493111 320.4 
L 324.379157 320.4 
L 324.379157 320.4 
" clip-path="url(#pebdc17c0e6)" style="fill: none; stroke: #808080; stroke-width: 1.5; stroke-linecap: round"/>
   </g>
  </g>
  <g id="axes_2">
   <g id="patch_7">
    <path d="M 374.727273 320.4 
L 612 320.4 
L 612 43.2 
L 374.727273 43.2 
z
" style="fill: #ffffff"/>
   </g>
   <g id="matplotlib.axis_3">
    <g id="xtick_10">
     <g id="text_21">
      <!-- 0 -->
      <g style="fill: #262626" transform="translate(373.616968 340.20725) scale(0.144 -0.144)">
       <use xlink:href="#ArialMT-30"/>
      </g>
     </g>
    </g>
    <g id="xtick_11">
     <g id="text_22">
      <!-- 1 -->
      <g style="fill: #262626" transform="translate(402.552666 340.20725) scale(0.144 -0.144)">
       <use xlink:href="#ArialMT-31"/>
      </g>
     </g>
    </g>
    <g id="xtick_12">
     <g id="text_23">
      <!-- 2 -->
      <g style="fill: #262626" transform="translate(431.488364 340.20725) scale(0.144 -0.144)">
       <use xlink:href="#ArialMT-32"/>
      </g>
     </g>
    </g>
    <g id="xtick_13">
     <g id="text_24">
      <!-- 3 -->
      <g style="fill: #262626" transform="translate(460.424063 340.20725) scale(0.144 -0.144)">
       <use xlink:href="#ArialMT-33"/>
      </g>
     </g>
    </g>
    <g id="xtick_14">
     <g id="text_25">
      <!-- 4 -->
      <g style="fill: #262626" transform="translate(489.359761 340.20725) scale(0.144 -0.144)">
       <use xlink:href="#ArialMT-34"/>
      </g>
     </g>
    </g>
    <g id="xtick_15">
     <g id="text_26">
      <!-- 5 -->
      <g style="fill: #262626" transform="translate(518.29546 340.20725) scale(0.144 -0.144)">
       <use xlink:href="#ArialMT-35"/>
      </g>
     </g>
    </g>
    <g id="xtick_16">
     <g id="text_27">
      <!-- 6 -->
      <g style="fill: #262626" transform="translate(547.231158 340.20725) scale(0.144 -0.144)">
       <use xlink:href="#ArialMT-36"/>
      </g>
     </g>
    </g>
    <g id="xtick_17">
     <g id="text_28">
      <!-- 7 -->
      <g style="fill: #262626" transform="translate(576.166857 340.20725) scale(0.144 -0.144)">
       <use xlink:href="#ArialMT-37"/>
      </g>
     </g>
    </g>
    <g id="xtick_18">
     <g id="text_29">
      <!-- 8 -->
      <g style="fill: #262626" transform="translate(605.102555 340.20725) scale(0.144 -0.144)">
       <use xlink:href="#ArialMT-38"/>
      </g>
     </g>
    </g>
    <g id="text_30">
     <!-- Time (d) -->
     <g style="fill: #262626" transform="translate(457.993636 361.04625) scale(0.192 -0.192)">
      <use xlink:href="#ArialMT-54"/>
      <use xlink:href="#ArialMT-69" x="57.333984"/>
      <use xlink:href="#ArialMT-6d" x="79.550781"/>
      <use xlink:href="#ArialMT-65" x="162.851562"/>
      <use xlink:href="#ArialMT-20" x="218.466797"/>
      <use xlink:href="#ArialMT-28" x="246.25"/>
      <use xlink:href="#ArialMT-64" x="279.550781"/>
      <use xlink:href="#ArialMT-29" x="335.166016"/>
     </g>
    </g>
   </g>
   <g id="matplotlib.axis_4">
    <g id="ytick_10">
     <g id="text_31">
      <!-- 4.0 -->
      <g style="fill: #262626" transform="translate(345.211273 325.553625) scale(0.144 -0.144)">
       <defs>
        <path id="ArialMT-2e" d="M 581 0 
L 581 641 
L 1222 641 
L 1222 0 
L 581 0 
z
" transform="scale(0.015625)"/>
       </defs>
       <use xlink:href="#ArialMT-34"/>
       <use xlink:href="#ArialMT-2e" x="55.615234"/>
       <use xlink:href="#ArialMT-30" x="83.398438"/>
      </g>
     </g>
    </g>
    <g id="ytick_11">
     <g id="text_32">
      <!-- 4.5 -->
      <g style="fill: #262626" transform="translate(345.211273 290.903625) scale(0.144 -0.144)">
       <use xlink:href="#ArialMT-34"/>
       <use xlink:href="#ArialMT-2e" x="55.615234"/>
       <use xlink:href="#ArialMT-35" x="83.398438"/>
      </g>
     </g>
    </g>
    <g id="ytick_12">
     <g id="text_33">
      <!-- 5.0 -->
      <g style="fill: #262626" transform="translate(345.211273 256.253625) scale(0.144 -0.144)">
       <use xlink:href="#ArialMT-35"/>
       <use xlink:href="#ArialMT-2e" x="55.615234"/>
       <use xlink:href="#ArialMT-30" x="83.398438"/>
      </g>
     </g>
    </g>
    <g id="ytick_13">
     <g id="text_34">
      <!-- 5.5 -->
      <g style="fill: #262626" transform="translate(345.211273 221.603625) scale(0.144 -0.144)">
       <use xlink:href="#ArialMT-35"/>
       <use xlink:href="#ArialMT-2e" x="55.615234"/>
       <use xlink:href="#ArialMT-35" x="83.398438"/>
      </g>
     </g>
    </g>
    <g id="ytick_14">
     <g id="text_35">
      <!-- 6.0 -->
      <g style="fill: #262626" transform="translate(345.211273 186.953625) scale(0.144 -0.144)">
       <use xlink:href="#ArialMT-36"/>
       <use xlink:href="#ArialMT-2e" x="55.615234"/>
       <use xlink:href="#ArialMT-30" x="83.398438"/>
      </g>
     </g>
    </g>
    <g id="ytick_15">
     <g id="text_36">
      <!-- 6.5 -->
      <g style="fill: #262626" transform="translate(345.211273 152.303625) scale(0.144 -0.144)">
       <use xlink:href="#ArialMT-36"/>
       <use xlink:href="#ArialMT-2e" x="55.615234"/>
       <use xlink:href="#ArialMT-35" x="83.398438"/>
      </g>
     </g>
    </g>
    <g id="ytick_16">
     <g id="text_37">
      <!-- 7.0 -->
      <g style="fill: #262626" transform="translate(345.211273 117.653625) scale(0.144 -0.144)">
       <use xlink:href="#ArialMT-37"/>
       <use xlink:href="#ArialMT-2e" x="55.615234"/>
       <use xlink:href="#ArialMT-30" x="83.398438"/>
      </g>
     </g>
    </g>
    <g id="ytick_17">
     <g id="text_38">
      <!-- 7.5 -->
      <g style="fill: #262626" transform="translate(345.211273 83.003625) scale(0.144 -0.144)">
       <use xlink:href="#ArialMT-37"/>
       <use xlink:href="#ArialMT-2e" x="55.615234"/>
       <use xlink:href="#ArialMT-35" x="83.398438"/>
      </g>
     </g>
    </g>
    <g id="ytick_18">
     <g id="text_39">
      <!-- 8.0 -->
      <g style="fill: #262626" transform="translate(345.211273 48.353625) scale(0.144 -0.144)">
       <use xlink:href="#ArialMT-38"/>
       <use xlink:href="#ArialMT-2e" x="55.615234"/>
       <use xlink:href="#ArialMT-30" x="83.398438"/>
      </g>
     </g>
    </g>
    <g id="text_40">
     <!-- Log10(CD8TE) -->
     <g style="fill: #262626" transform="translate(337.170273 246.357) rotate(-90) scale(0.192 -0.192)">
      <defs>
       <path id="ArialMT-43" d="M 3763 1606 
L 4369 1453 
Q 4178 706 3683 314 
Q 3188 -78 2472 -78 
Q 1731 -78 1267 223 
Q 803 525 561 1097 
Q 319 1669 319 2325 
Q 319 3041 592 3573 
Q 866 4106 1370 4382 
Q 1875 4659 2481 4659 
Q 3169 4659 3637 4309 
Q 4106 3959 4291 3325 
L 3694 3184 
Q 3534 3684 3231 3912 
Q 2928 4141 2469 4141 
Q 1941 4141 1586 3887 
Q 1231 3634 1087 3207 
Q 944 2781 944 2328 
Q 944 1744 1114 1308 
Q 1284 872 1643 656 
Q 2003 441 2422 441 
Q 2931 441 3284 734 
Q 3638 1028 3763 1606 
z
" transform="scale(0.015625)"/>
       <path id="ArialMT-44" d="M 494 0 
L 494 4581 
L 2072 4581 
Q 2606 4581 2888 4516 
Q 3281 4425 3559 4188 
Q 3922 3881 4101 3404 
Q 4281 2928 4281 2316 
Q 4281 1794 4159 1391 
Q 4038 988 3847 723 
Q 3656 459 3429 307 
Q 3203 156 2883 78 
Q 2563 0 2147 0 
L 494 0 
z
M 1100 541 
L 2078 541 
Q 2531 541 2789 625 
Q 3047 709 3200 863 
Q 3416 1078 3536 1442 
Q 3656 1806 3656 2325 
Q 3656 3044 3420 3430 
Q 3184 3816 2847 3947 
Q 2603 4041 2063 4041 
L 1100 4041 
L 1100 541 
z
" transform="scale(0.015625)"/>
       <path id="ArialMT-45" d="M 506 0 
L 506 4581 
L 3819 4581 
L 3819 4041 
L 1113 4041 
L 1113 2638 
L 3647 2638 
L 3647 2100 
L 1113 2100 
L 1113 541 
L 3925 541 
L 3925 0 
L 506 0 
z
" transform="scale(0.015625)"/>
      </defs>
      <use xlink:href="#ArialMT-4c"/>
      <use xlink:href="#ArialMT-6f" x="55.615234"/>
      <use xlink:href="#ArialMT-67" x="111.230469"/>
      <use xlink:href="#ArialMT-31" x="166.845703"/>
      <use xlink:href="#ArialMT-30" x="222.460938"/>
      <use xlink:href="#ArialMT-28" x="278.076172"/>
      <use xlink:href="#ArialMT-43" x="311.376953"/>
      <use xlink:href="#ArialMT-44" x="383.59375"/>
      <use xlink:href="#ArialMT-38" x="455.810547"/>
      <use xlink:href="#ArialMT-54" x="511.425781"/>
      <use xlink:href="#ArialMT-45" x="572.509766"/>
      <use xlink:href="#ArialMT-29" x="639.208984"/>
     </g>
    </g>
   </g>
   <g id="patch_8">
    <path d="M 374.727273 320.4 
L 374.727273 43.2 
" style="fill: none; stroke: #262626; stroke-width: 1.25; stroke-linejoin: miter; stroke-linecap: square"/>
   </g>
   <g id="patch_9">
    <path d="M 612 320.4 
L 612 43.2 
" style="fill: none; stroke: #262626; stroke-width: 1.25; stroke-linejoin: miter; stroke-linecap: square"/>
   </g>
   <g id="patch_10">
    <path d="M 374.727273 320.4 
L 612 320.4 
" style="fill: none; stroke: #262626; stroke-width: 1.25; stroke-linejoin: miter; stroke-linecap: square"/>
   </g>
   <g id="patch_11">
    <path d="M 374.727273 43.2 
L 612 43.2 
" style="fill: none; stroke: #262626; stroke-width: 1.25; stroke-linejoin: miter; stroke-linecap: square"/>
   </g>
   <g id="PolyCollection_2">
    <defs>
     <path id="me35ca33aa0" d="M 377.620843 -109.84482 
L 377.620843 -109.84482 
L 377.621283 -109.84482 
L 377.625682 -109.84482 
L 377.669677 -109.84482 
L 377.80833 -109.84482 
L 377.922392 -109.84482 
L 378.261656 -109.84482 
L 378.538254 -109.84482 
L 379.36569 -109.84482 
L 379.943156 -109.84482 
L 381.312472 -109.84482 
L 382.079159 -109.84482 
L 383.68723 -109.84482 
L 384.553423 -109.84482 
L 386.113108 -109.84482 
L 387.070468 -109.84482 
L 388.662012 -109.84482 
L 389.684881 -109.84482 
L 391.269655 -109.84482 
L 392.344379 -109.84482 
L 393.92986 -109.84482 
L 395.042195 -109.84482 
L 396.787842 -109.84482 
L 397.881996 -109.84482 
L 399.395552 -109.84482 
L 400.535307 -109.844821 
L 402.187451 -109.844821 
L 403.320698 -109.844821 
L 404.855391 -109.844822 
L 406.016729 -109.844822 
L 407.672109 -109.844824 
L 408.825536 -109.844826 
L 410.394242 -109.844831 
L 411.581593 -109.844837 
L 413.289189 -109.844852 
L 414.48774 -109.844868 
L 416.121798 -109.844905 
L 417.353956 -109.844949 
L 419.115144 -109.845056 
L 420.35809 -109.845173 
L 422.044742 -109.845442 
L 423.313174 -109.845756 
L 424.929346 -109.846412 
L 426.089665 -109.847132 
L 427.516859 -109.848469 
L 428.659177 -109.850099 
L 429.858581 -109.852486 
L 430.878989 -109.855386 
L 431.802158 -109.858797 
L 432.617145 -109.862749 
L 433.348443 -109.867152 
L 434.004208 -109.872016 
L 434.659973 -109.877812 
L 435.199778 -109.883475 
L 435.696149 -109.889498 
L 436.19252 -109.89637 
L 436.600165 -109.902781 
L 437.058432 -109.911001 
L 437.425081 -109.919151 
L 438.707393 -109.949906 
L 439.221661 -109.966956 
L 440.939649 -110.036715 
L 441.680081 -110.080992 
L 444.573651 -110.322594 
L 445.706784 -110.485958 
L 448.600354 -111.020665 
L 450.064303 -111.454033 
L 452.957873 -112.565861 
L 454.85921 -113.63474 
L 457.75278 -115.695187 
L 460.163065 -117.961166 
L 463.056635 -121.231031 
L 465.950205 -125.059507 
L 468.843775 -129.307454 
L 471.737345 -133.808403 
L 474.630915 -138.397834 
L 477.524484 -142.933168 
L 480.418054 -147.302655 
L 483.311624 -151.425877 
L 486.205194 -155.249735 
L 489.098764 -158.742876 
L 491.992334 -161.89026 
L 494.885904 -164.688575 
L 497.779473 -167.142667 
L 500.673043 -169.262875 
L 503.566613 -171.063109 
L 506.460183 -172.559488 
L 509.353753 -173.769382 
L 512.247323 -174.710754 
L 515.140892 -175.401704 
L 518.034462 -175.860161 
L 520.928032 -175.280029 
L 523.821602 -174.532051 
L 526.715172 -173.580011 
L 529.608742 -172.486616 
L 532.502311 -171.318187 
L 535.395881 -170.087962 
L 538.289451 -168.80773 
L 541.183021 -167.487913 
L 544.076591 -165.964615 
L 546.970161 -164.342096 
L 549.863731 -162.712062 
L 552.7573 -161.080469 
L 555.65087 -159.452459 
L 558.54444 -157.832469 
L 561.43801 -156.224324 
L 564.33158 -154.631326 
L 567.22515 -153.05633 
L 570.118719 -151.501817 
L 573.012289 -149.969947 
L 575.905859 -148.462612 
L 578.799429 -146.980279 
L 579.378143 -146.68552 
L 579.956857 -146.393692 
L 580.162618 -146.2902 
L 580.272227 -146.235127 
L 580.302357 -146.219987 
L 580.303378 -146.219475 
L 580.30848 -146.216911 
L 580.312739 -146.214771 
L 580.315482 -146.213393 
L 580.315586 -146.213341 
L 580.316623 -146.212819 
L 580.319852 -146.211197 
L 580.323081 -146.209574 
L 580.335288 -146.203441 
L 580.371121 -146.185436 
L 580.463929 -146.138957 
L 580.653318 -146.044119 
L 580.842707 -145.949281 
L 581.147736 -145.796703 
L 581.452764 -145.644602 
L 581.836574 -145.453694 
L 582.220384 -145.26322 
L 582.657685 -145.046888 
L 583.119047 -144.819467 
L 583.68094 -144.543288 
L 584.382592 -144.200235 
L 585.701551 -143.561141 
L 588.309684 -142.312601 
L 590.29899 -141.379941 
L 593.19256 -140.048857 
L 596.08613 -138.749097 
L 598.9797 -137.482055 
L 601.87327 -136.250268 
L 604.766839 -135.057846 
L 607.660409 -133.89255 
L 609.10643 -133.324839 
L 609.10643 -148.134991 
L 609.10643 -148.134991 
L 607.660409 -148.713619 
L 604.766839 -149.883347 
L 601.87327 -151.06815 
L 598.9797 -152.267204 
L 596.08613 -153.479565 
L 593.19256 -154.704167 
L 590.29899 -155.939804 
L 588.309684 -156.795033 
L 585.701551 -157.922375 
L 584.382592 -158.494651 
L 583.68094 -158.799669 
L 583.119047 -159.044129 
L 582.657685 -159.245057 
L 582.220384 -159.43561 
L 581.836574 -159.602945 
L 581.452764 -159.77037 
L 581.147736 -159.90347 
L 580.842707 -160.03662 
L 580.653318 -160.119315 
L 580.463929 -160.202024 
L 580.371121 -160.242561 
L 580.335288 -160.258213 
L 580.323081 -160.263544 
L 580.319852 -160.264955 
L 580.316623 -160.266365 
L 580.315586 -160.266818 
L 580.315482 -160.266863 
L 580.312739 -160.268061 
L 580.30848 -160.269922 
L 580.303378 -160.27215 
L 580.302357 -160.272596 
L 580.272227 -160.285757 
L 580.162618 -160.333642 
L 579.956857 -160.423544 
L 579.378143 -160.676508 
L 578.799429 -160.929627 
L 575.905859 -162.195342 
L 573.012289 -163.460239 
L 570.118719 -164.721349 
L 567.22515 -165.97518 
L 564.33158 -167.21776 
L 561.43801 -168.444585 
L 558.54444 -169.650566 
L 555.65087 -170.829978 
L 552.7573 -172.133866 
L 549.863731 -173.658214 
L 546.970161 -175.191674 
L 544.076591 -176.695141 
L 541.183021 -178.121251 
L 538.289451 -179.457957 
L 535.395881 -180.692395 
L 532.502311 -181.810858 
L 529.608742 -182.798782 
L 526.715172 -183.69303 
L 523.821602 -184.49118 
L 520.928032 -185.136255 
L 518.034462 -185.609449 
L 515.140892 -185.890712 
L 512.247323 -185.958743 
L 509.353753 -185.791002 
L 506.460183 -185.363737 
L 503.566613 -185.30725 
L 500.673043 -185.058869 
L 497.779473 -184.511535 
L 494.885904 -183.634943 
L 491.992334 -182.397547 
L 489.098764 -180.76691 
L 486.205194 -178.710262 
L 483.311624 -176.195434 
L 480.418054 -173.192347 
L 477.524484 -169.675379 
L 474.630915 -165.780006 
L 471.737345 -161.504313 
L 468.843775 -156.670537 
L 465.950205 -151.317437 
L 463.056635 -145.532507 
L 460.163065 -139.470393 
L 457.75278 -134.376977 
L 454.85921 -128.44931 
L 452.957873 -124.842821 
L 450.064303 -120.000846 
L 448.600354 -117.924975 
L 445.706784 -114.757574 
L 444.573651 -113.778408 
L 441.680081 -112.000541 
L 440.939649 -111.666188 
L 439.221661 -111.008575 
L 438.707393 -110.882274 
L 437.425081 -110.579608 
L 437.058432 -110.510599 
L 436.600165 -110.440891 
L 436.19252 -110.378883 
L 435.696149 -110.304717 
L 435.199778 -110.245681 
L 434.659973 -110.189556 
L 434.004208 -110.130318 
L 433.348443 -110.081223 
L 432.617145 -110.035757 
L 431.802158 -109.994772 
L 430.878989 -109.95809 
L 429.858581 -109.927324 
L 428.659177 -109.901819 
L 427.516859 -109.88496 
L 426.089665 -109.870308 
L 424.929346 -109.862296 
L 423.313174 -109.855275 
L 422.044742 -109.851689 
L 420.35809 -109.848824 
L 419.115144 -109.847439 
L 417.353956 -109.846302 
L 416.121798 -109.845786 
L 414.48774 -109.845383 
L 413.289189 -109.84519 
L 411.581593 -109.845028 
L 410.394242 -109.844955 
L 408.825536 -109.844898 
L 407.672109 -109.84487 
L 406.016729 -109.844847 
L 404.855391 -109.844837 
L 403.320698 -109.844829 
L 402.187451 -109.844826 
L 400.535307 -109.844823 
L 399.395552 -109.844822 
L 397.881996 -109.844821 
L 396.787842 -109.844821 
L 395.042195 -109.844821 
L 393.92986 -109.84482 
L 392.344379 -109.84482 
L 391.269655 -109.84482 
L 389.684881 -109.84482 
L 388.662012 -109.84482 
L 387.070468 -109.84482 
L 386.113108 -109.84482 
L 384.553423 -109.84482 
L 383.68723 -109.84482 
L 382.079159 -109.84482 
L 381.312472 -109.84482 
L 379.943156 -109.84482 
L 379.36569 -109.84482 
L 378.538254 -109.84482 
L 378.261656 -109.84482 
L 377.922392 -109.84482 
L 377.80833 -109.84482 
L 377.669677 -109.84482 
L 377.625682 -109.84482 
L 377.621283 -109.84482 
L 377.620843 -109.84482 
z
" style="stroke: #808080; stroke-opacity: 0.2"/>
    </defs>
    <g clip-path="url(#pf956c4dd06)">
     <use xlink:href="#me35ca33aa0" x="0" y="360" style="fill: #808080; fill-opacity: 0.2; stroke: #808080; stroke-opacity: 0.2"/>
    </g>
   </g>
   <g id="PathCollection_2">
    <g clip-path="url(#pf956c4dd06)">
     <use xlink:href="#mefde85025a" x="377.620843" y="250.15518" style="fill: #808080; fill-opacity: 0.8; stroke: #808080; stroke-opacity: 0.8"/>
     <use xlink:href="#mefde85025a" x="406.556541" y="209.810551" style="fill: #808080; fill-opacity: 0.8; stroke: #808080; stroke-opacity: 0.8"/>
     <use xlink:href="#mefde85025a" x="435.492239" y="219.038118" style="fill: #808080; fill-opacity: 0.8; stroke: #808080; stroke-opacity: 0.8"/>
     <use xlink:href="#mefde85025a" x="464.427938" y="221.863721" style="fill: #808080; fill-opacity: 0.8; stroke: #808080; stroke-opacity: 0.8"/>
     <use xlink:href="#mefde85025a" x="493.363636" y="185.878053" style="fill: #808080; fill-opacity: 0.8; stroke: #808080; stroke-opacity: 0.8"/>
     <use xlink:href="#mefde85025a" x="522.299335" y="177.562038" style="fill: #808080; fill-opacity: 0.8; stroke: #808080; stroke-opacity: 0.8"/>
     <use xlink:href="#mefde85025a" x="551.235033" y="187.531868" style="fill: #808080; fill-opacity: 0.8; stroke: #808080; stroke-opacity: 0.8"/>
     <use xlink:href="#mefde85025a" x="580.170732" y="218.672957" style="fill: #808080; fill-opacity: 0.8; stroke: #808080; stroke-opacity: 0.8"/>
    </g>
   </g>
   <g id="line2d_2">
    <path d="M 377.620843 250.15518 
L 432.617145 250.063354 
L 437.058432 249.830175 
L 439.221661 249.579637 
L 441.680081 249.097837 
L 444.573651 248.115822 
L 445.706784 247.574364 
L 448.600354 245.665229 
L 450.064303 244.384733 
L 452.957873 241.166533 
L 454.85921 238.579547 
L 457.75278 234.018479 
L 460.163065 229.798448 
L 468.843775 213.808575 
L 471.737345 208.85692 
L 474.630915 204.297273 
L 477.524484 200.181344 
L 480.418054 196.530238 
L 483.311624 193.344243 
L 486.205194 190.610122 
L 489.098764 188.306241 
L 491.992334 186.406064 
L 494.885904 184.880486 
L 497.779473 183.699377 
L 500.673043 182.832593 
L 503.566613 182.250637 
L 506.460183 181.925085 
L 509.353753 181.828866 
L 512.247323 181.936433 
L 515.140892 182.223874 
L 518.034462 182.66897 
L 520.928032 183.251222 
L 526.715172 184.753761 
L 532.502311 186.601299 
L 538.289451 188.68902 
L 546.970161 192.097108 
L 564.33158 199.279313 
L 581.452764 206.255734 
L 593.19256 210.815456 
L 604.766839 215.081139 
L 609.10643 216.615811 
L 609.10643 216.615811 
" clip-path="url(#pf956c4dd06)" style="fill: none; stroke: #808080; stroke-width: 1.5; stroke-linecap: round"/>
   </g>
  </g>
  <g id="legend_1">
   <g id="patch_12">
    <path d="M 769.44 42.519 
L 862.911 42.519 
Q 866.751 42.519 866.751 38.679 
L 866.751 13.44 
Q 866.751 9.6 862.911 9.6 
L 769.44 9.6 
Q 765.6 9.6 765.6 13.44 
L 765.6 38.679 
Q 765.6 42.519 769.44 42.519 
z
" style="fill: #ffffff; opacity: 0.8; stroke: #cccccc; stroke-linejoin: miter"/>
   </g>
   <g id="PathCollection_3">
    <g>
     <use xlink:href="#mefde85025a" x="792.48" y="25.983" style="fill: #808080; fill-opacity: 0.8; stroke: #808080; stroke-opacity: 0.8"/>
    </g>
   </g>
   <g id="text_41">
    <!-- 103 -->
    <g style="fill: #262626" transform="translate(827.04 31.023) scale(0.192 -0.192)">
     <use xlink:href="#ArialMT-31"/>
     <use xlink:href="#ArialMT-30" x="55.615234"/>
     <use xlink:href="#ArialMT-33" x="111.230469"/>
    </g>
   </g>
  </g>
 </g>
 <defs>
  <clipPath id="pebdc17c0e6">
   <rect x="90" y="43.2" width="237.272727" height="277.2"/>
  </clipPath>
  <clipPath id="pf956c4dd06">
   <rect x="374.727273" y="43.2" width="237.272727" height="277.2"/>
  </clipPath>
 </defs>
</svg>
