<?xml version="1.0" encoding="utf-8" standalone="no"?>
<!DOCTYPE svg PUBLIC "-//W3C//DTD SVG 1.1//EN"
  "http://www.w3.org/Graphics/SVG/1.1/DTD/svg11.dtd">
<svg xmlns:xlink="http://www.w3.org/1999/xlink" width="720pt" height="432pt" viewBox="0 0 720 432" xmlns="http://www.w3.org/2000/svg" version="1.1">
 <metadata>
  <rdf:RDF xmlns:dc="http://purl.org/dc/elements/1.1/" xmlns:cc="http://creativecommons.org/ns#" xmlns:rdf="http://www.w3.org/1999/02/22-rdf-syntax-ns#">
   <cc:Work>
    <dc:type rdf:resource="http://purl.org/dc/dcmitype/StillImage"/>
    <dc:date>2024-01-12T14:31:42.299078</dc:date>
    <dc:format>image/svg+xml</dc:format>
    <dc:creator>
     <cc:Agent>
      <dc:title>Matplotlib v3.7.2, https://matplotlib.org/</dc:title>
     </cc:Agent>
    </dc:creator>
   </cc:Work>
  </rdf:RDF>
 </metadata>
 <defs>
  <style type="text/css">*{stroke-linejoin: round; stroke-linecap: butt}</style>
 </defs>
 <g id="figure_1">
  <g id="patch_1">
   <path d="M 0 432 
L 720 432 
L 720 0 
L 0 0 
z
" style="fill: #ffffff"/>
  </g>
  <g id="axes_1">
   <g id="patch_2">
    <path d="M 90 384.48 
L 648 384.48 
L 648 51.84 
L 90 51.84 
z
" style="fill: #ffffff"/>
   </g>
   <g id="PathCollection_1">
    <defs>
     <path id="ma0c421084d" d="M 0 5 
C 1.326016 5 2.597899 4.473168 3.535534 3.535534 
C 4.473168 2.597899 5 1.326016 5 0 
C 5 -1.326016 4.473168 -2.597899 3.535534 -3.535534 
C 2.597899 -4.473168 1.326016 -5 0 -5 
C -1.326016 -5 -2.597899 -4.473168 -3.535534 -3.535534 
C -4.473168 -2.597899 -5 -1.326016 -5 0 
C -5 1.326016 -4.473168 2.597899 -3.535534 3.535534 
C -2.597899 4.473168 -1.326016 5 0 5 
z
"/>
    </defs>
    <g clip-path="url(#pc17e17e324)">
     <use xlink:href="#ma0c421084d" x="141.859155" y="213.82829" style="fill: #008000"/>
     <use xlink:href="#ma0c421084d" x="141.001428" y="264.070487" style="fill: #008000"/>
     <use xlink:href="#ma0c421084d" x="145.320623" y="172.015322" style="fill: #008000"/>
     <use xlink:href="#ma0c421084d" x="128.388214" y="209.396055" style="fill: #008000"/>
     <use xlink:href="#ma0c421084d" x="145.516804" y="213.165148" style="fill: #008000"/>
     <use xlink:href="#ma0c421084d" x="140.658053" y="287.843941" style="fill: #008000"/>
     <use xlink:href="#ma0c421084d" x="127.726082" y="257.886372" style="fill: #008000"/>
     <use xlink:href="#ma0c421084d" x="119.926343" y="287.843941" style="fill: #008000"/>
     <use xlink:href="#ma0c421084d" x="120.928132" y="190.563188" style="fill: #008000"/>
     <use xlink:href="#ma0c421084d" x="125.099786" y="223.222045" style="fill: #008000"/>
     <use xlink:href="#ma0c421084d" x="134.507299" y="287.843941" style="fill: #008000"/>
     <use xlink:href="#ma0c421084d" x="145.302256" y="241.45616" style="fill: #008000"/>
     <use xlink:href="#ma0c421084d" x="141.59983" y="192.992036" style="fill: #008000"/>
     <use xlink:href="#ma0c421084d" x="138.312797" y="302.290313" style="fill: #008000"/>
     <use xlink:href="#ma0c421084d" x="142.343034" y="177.563082" style="fill: #008000"/>
     <use xlink:href="#ma0c421084d" x="137.117662" y="206.659522" style="fill: #008000"/>
     <use xlink:href="#ma0c421084d" x="132.460076" y="287.843941" style="fill: #008000"/>
     <use xlink:href="#ma0c421084d" x="130.341515" y="295.859273" style="fill: #008000"/>
     <use xlink:href="#ma0c421084d" x="129.883612" y="287.843941" style="fill: #008000"/>
     <use xlink:href="#ma0c421084d" x="134.803379" y="321.107281" style="fill: #008000"/>
     <use xlink:href="#ma0c421084d" x="130.225031" y="287.843941" style="fill: #008000"/>
     <use xlink:href="#ma0c421084d" x="128.580925" y="150.88308" style="fill: #008000"/>
     <use xlink:href="#ma0c421084d" x="121.597372" y="311.456607" style="fill: #008000"/>
     <use xlink:href="#ma0c421084d" x="130.61068" y="175.871538" style="fill: #008000"/>
     <use xlink:href="#ma0c421084d" x="119.848898" y="131.482564" style="fill: #008000"/>
     <use xlink:href="#ma0c421084d" x="133.793613" y="287.843941" style="fill: #008000"/>
     <use xlink:href="#ma0c421084d" x="128.270644" y="159.215187" style="fill: #008000"/>
     <use xlink:href="#ma0c421084d" x="143.666456" y="139.951329" style="fill: #008000"/>
     <use xlink:href="#ma0c421084d" x="130.307062" y="287.843941" style="fill: #008000"/>
     <use xlink:href="#ma0c421084d" x="124.703643" y="278.899079" style="fill: #008000"/>
     <use xlink:href="#ma0c421084d" x="136.176347" y="196.068748" style="fill: #008000"/>
     <use xlink:href="#ma0c421084d" x="132.04909" y="108.362506" style="fill: #008000"/>
     <use xlink:href="#ma0c421084d" x="142.560245" y="214.633914" style="fill: #008000"/>
     <use xlink:href="#ma0c421084d" x="138.205461" y="287.843941" style="fill: #008000"/>
     <use xlink:href="#ma0c421084d" x="146.103548" y="174.18896" style="fill: #008000"/>
     <use xlink:href="#ma0c421084d" x="141.401639" y="155.70987" style="fill: #008000"/>
     <use xlink:href="#ma0c421084d" x="115.866144" y="138.419269" style="fill: #008000"/>
     <use xlink:href="#ma0c421084d" x="119.355902" y="287.843941" style="fill: #008000"/>
     <use xlink:href="#ma0c421084d" x="119.660958" y="178.962476" style="fill: #008000"/>
     <use xlink:href="#ma0c421084d" x="122.875067" y="96.339761" style="fill: #008000"/>
     <use xlink:href="#ma0c421084d" x="117.648441" y="138.566056" style="fill: #008000"/>
     <use xlink:href="#ma0c421084d" x="141.061779" y="287.843941" style="fill: #008000"/>
     <use xlink:href="#ma0c421084d" x="144.75828" y="220.258724" style="fill: #008000"/>
     <use xlink:href="#ma0c421084d" x="124.909238" y="152.845595" style="fill: #008000"/>
     <use xlink:href="#ma0c421084d" x="138.9344" y="146.507591" style="fill: #008000"/>
     <use xlink:href="#ma0c421084d" x="127.18682" y="164.404168" style="fill: #008000"/>
     <use xlink:href="#ma0c421084d" x="136.673622" y="181.887107" style="fill: #008000"/>
     <use xlink:href="#ma0c421084d" x="117.361157" y="147.977667" style="fill: #008000"/>
     <use xlink:href="#ma0c421084d" x="141.140969" y="174.482812" style="fill: #008000"/>
     <use xlink:href="#ma0c421084d" x="125.134066" y="177.923617" style="fill: #008000"/>
     <use xlink:href="#ma0c421084d" x="126.731577" y="276.459619" style="fill: #008000"/>
     <use xlink:href="#ma0c421084d" x="117.406219" y="189.302712" style="fill: #008000"/>
     <use xlink:href="#ma0c421084d" x="143.46306" y="180.930316" style="fill: #008000"/>
     <use xlink:href="#ma0c421084d" x="136.256948" y="257.112221" style="fill: #008000"/>
     <use xlink:href="#ma0c421084d" x="137.916387" y="223.222045" style="fill: #008000"/>
     <use xlink:href="#ma0c421084d" x="143.568671" y="205.329286" style="fill: #008000"/>
     <use xlink:href="#ma0c421084d" x="133.908319" y="158.512924" style="fill: #008000"/>
     <use xlink:href="#ma0c421084d" x="120.583841" y="367.714245" style="fill: #008000"/>
     <use xlink:href="#ma0c421084d" x="126.919409" y="184.385322" style="fill: #008000"/>
     <use xlink:href="#ma0c421084d" x="135.966122" y="216.164591" style="fill: #008000"/>
     <use xlink:href="#ma0c421084d" x="132.882916" y="231.049619" style="fill: #008000"/>
     <use xlink:href="#ma0c421084d" x="118.244925" y="192.471183" style="fill: #008000"/>
     <use xlink:href="#ma0c421084d" x="121.518931" y="117.874076" style="fill: #008000"/>
     <use xlink:href="#ma0c421084d" x="141.780163" y="126.03604" style="fill: #008000"/>
     <use xlink:href="#ma0c421084d" x="134.556896" y="154.907729" style="fill: #008000"/>
    </g>
   </g>
   <g id="PathCollection_2">
    <defs>
     <path id="m1e40e84c14" d="M 0 5 
C 1.326016 5 2.597899 4.473168 3.535534 3.535534 
C 4.473168 2.597899 5 1.326016 5 0 
C 5 -1.326016 4.473168 -2.597899 3.535534 -3.535534 
C 2.597899 -4.473168 1.326016 -5 0 -5 
C -1.326016 -5 -2.597899 -4.473168 -3.535534 -3.535534 
C -4.473168 -2.597899 -5 -1.326016 -5 0 
C -5 1.326016 -4.473168 2.597899 -3.535534 3.535534 
C -2.597899 4.473168 -1.326016 5 0 5 
z
"/>
    </defs>
    <g clip-path="url(#pc17e17e324)">
     <use xlink:href="#m1e40e84c14" x="298.388904" y="184.090546" style="fill: #800080"/>
     <use xlink:href="#m1e40e84c14" x="288.105428" y="246.638034" style="fill: #800080"/>
     <use xlink:href="#m1e40e84c14" x="285.664299" y="227.025972" style="fill: #800080"/>
     <use xlink:href="#m1e40e84c14" x="287.462042" y="201.935375" style="fill: #800080"/>
     <use xlink:href="#m1e40e84c14" x="277.594961" y="163.030734" style="fill: #800080"/>
     <use xlink:href="#m1e40e84c14" x="303.47722" y="182.376477" style="fill: #800080"/>
     <use xlink:href="#m1e40e84c14" x="282.849857" y="123.693732" style="fill: #800080"/>
     <use xlink:href="#m1e40e84c14" x="287.176759" y="228.699008" style="fill: #800080"/>
     <use xlink:href="#m1e40e84c14" x="282.905087" y="210.366851" style="fill: #800080"/>
     <use xlink:href="#m1e40e84c14" x="293.422634" y="212.884629" style="fill: #800080"/>
     <use xlink:href="#m1e40e84c14" x="297.093246" y="194.022654" style="fill: #800080"/>
     <use xlink:href="#m1e40e84c14" x="302.294524" y="262.521342" style="fill: #800080"/>
     <use xlink:href="#m1e40e84c14" x="286.443866" y="199.453953" style="fill: #800080"/>
     <use xlink:href="#m1e40e84c14" x="287.710601" y="233.98553" style="fill: #800080"/>
     <use xlink:href="#m1e40e84c14" x="284.577934" y="143.68363" style="fill: #800080"/>
     <use xlink:href="#m1e40e84c14" x="275.034732" y="141.089549" style="fill: #800080"/>
     <use xlink:href="#m1e40e84c14" x="301.858083" y="287.843941" style="fill: #800080"/>
     <use xlink:href="#m1e40e84c14" x="288.777108" y="196.668535" style="fill: #800080"/>
     <use xlink:href="#m1e40e84c14" x="298.75684" y="180.83379" style="fill: #800080"/>
     <use xlink:href="#m1e40e84c14" x="288.790626" y="253.881689" style="fill: #800080"/>
     <use xlink:href="#m1e40e84c14" x="302.980672" y="207.745002" style="fill: #800080"/>
     <use xlink:href="#m1e40e84c14" x="284.045961" y="227.483402" style="fill: #800080"/>
     <use xlink:href="#m1e40e84c14" x="298.892458" y="170.30162" style="fill: #800080"/>
     <use xlink:href="#m1e40e84c14" x="291.105059" y="158.082464" style="fill: #800080"/>
     <use xlink:href="#m1e40e84c14" x="282.799629" y="183.430469" style="fill: #800080"/>
     <use xlink:href="#m1e40e84c14" x="283.427136" y="177.195902" style="fill: #800080"/>
     <use xlink:href="#m1e40e84c14" x="279.368773" y="124.505646" style="fill: #800080"/>
     <use xlink:href="#m1e40e84c14" x="286.173805" y="121.894701" style="fill: #800080"/>
     <use xlink:href="#m1e40e84c14" x="284.286477" y="216.164591" style="fill: #800080"/>
     <use xlink:href="#m1e40e84c14" x="299.140682" y="152.793418" style="fill: #800080"/>
     <use xlink:href="#m1e40e84c14" x="278.825318" y="186.384129" style="fill: #800080"/>
     <use xlink:href="#m1e40e84c14" x="274.555347" y="163.02399" style="fill: #800080"/>
     <use xlink:href="#m1e40e84c14" x="290.301387" y="295.193633" style="fill: #800080"/>
     <use xlink:href="#m1e40e84c14" x="282.525634" y="142.388309" style="fill: #800080"/>
     <use xlink:href="#m1e40e84c14" x="303.380093" y="254.508396" style="fill: #800080"/>
     <use xlink:href="#m1e40e84c14" x="285.041802" y="265.443375" style="fill: #800080"/>
     <use xlink:href="#m1e40e84c14" x="303.454327" y="205.404675" style="fill: #800080"/>
     <use xlink:href="#m1e40e84c14" x="289.320088" y="287.843941" style="fill: #800080"/>
     <use xlink:href="#m1e40e84c14" x="299.477927" y="233.123866" style="fill: #800080"/>
     <use xlink:href="#m1e40e84c14" x="281.52732" y="185.550204" style="fill: #800080"/>
     <use xlink:href="#m1e40e84c14" x="298.3256" y="227.025972" style="fill: #800080"/>
     <use xlink:href="#m1e40e84c14" x="275.745809" y="369.36" style="fill: #800080"/>
     <use xlink:href="#m1e40e84c14" x="293.598774" y="157.708867" style="fill: #800080"/>
     <use xlink:href="#m1e40e84c14" x="293.913713" y="369.36" style="fill: #800080"/>
     <use xlink:href="#m1e40e84c14" x="297.478989" y="103.940288" style="fill: #800080"/>
     <use xlink:href="#m1e40e84c14" x="288.171269" y="227.71419" style="fill: #800080"/>
     <use xlink:href="#m1e40e84c14" x="298.269684" y="189.648915" style="fill: #800080"/>
     <use xlink:href="#m1e40e84c14" x="282.63286" y="109.678579" style="fill: #800080"/>
     <use xlink:href="#m1e40e84c14" x="294.793148" y="243.202446" style="fill: #800080"/>
     <use xlink:href="#m1e40e84c14" x="282.608715" y="177.40056" style="fill: #800080"/>
     <use xlink:href="#m1e40e84c14" x="279.315962" y="232.228744" style="fill: #800080"/>
     <use xlink:href="#m1e40e84c14" x="290.691936" y="305.9804" style="fill: #800080"/>
     <use xlink:href="#m1e40e84c14" x="275.8235" y="180.593747" style="fill: #800080"/>
     <use xlink:href="#m1e40e84c14" x="299.682663" y="272.616676" style="fill: #800080"/>
     <use xlink:href="#m1e40e84c14" x="274.029457" y="287.843941" style="fill: #800080"/>
     <use xlink:href="#m1e40e84c14" x="285.566083" y="321.107281" style="fill: #800080"/>
     <use xlink:href="#m1e40e84c14" x="277.649286" y="295.859273" style="fill: #800080"/>
     <use xlink:href="#m1e40e84c14" x="285.358267" y="221.103832" style="fill: #800080"/>
     <use xlink:href="#m1e40e84c14" x="298.234743" y="149.648075" style="fill: #800080"/>
     <use xlink:href="#m1e40e84c14" x="283.620962" y="278.899079" style="fill: #800080"/>
     <use xlink:href="#m1e40e84c14" x="303.528281" y="240.417974" style="fill: #800080"/>
     <use xlink:href="#m1e40e84c14" x="285.541014" y="369.36" style="fill: #800080"/>
     <use xlink:href="#m1e40e84c14" x="276.197404" y="295.859273" style="fill: #800080"/>
     <use xlink:href="#m1e40e84c14" x="294.220158" y="186.42711" style="fill: #800080"/>
     <use xlink:href="#m1e40e84c14" x="281.398542" y="287.843941" style="fill: #800080"/>
     <use xlink:href="#m1e40e84c14" x="300.31409" y="287.843941" style="fill: #800080"/>
     <use xlink:href="#m1e40e84c14" x="298.52886" y="321.107281" style="fill: #800080"/>
     <use xlink:href="#m1e40e84c14" x="299.677569" y="176.631978" style="fill: #800080"/>
     <use xlink:href="#m1e40e84c14" x="280.095028" y="133.456336" style="fill: #800080"/>
     <use xlink:href="#m1e40e84c14" x="277.942571" y="185.010513" style="fill: #800080"/>
     <use xlink:href="#m1e40e84c14" x="275.737364" y="148.932332" style="fill: #800080"/>
     <use xlink:href="#m1e40e84c14" x="279.8003" y="171.270365" style="fill: #800080"/>
     <use xlink:href="#m1e40e84c14" x="283.899177" y="171.519658" style="fill: #800080"/>
     <use xlink:href="#m1e40e84c14" x="275.613469" y="305.9804" style="fill: #800080"/>
     <use xlink:href="#m1e40e84c14" x="292.308751" y="237.10073" style="fill: #800080"/>
     <use xlink:href="#m1e40e84c14" x="291.534918" y="287.843941" style="fill: #800080"/>
     <use xlink:href="#m1e40e84c14" x="302.941745" y="190.84084" style="fill: #800080"/>
     <use xlink:href="#m1e40e84c14" x="292.324266" y="287.843941" style="fill: #800080"/>
     <use xlink:href="#m1e40e84c14" x="284.552998" y="197.880696" style="fill: #800080"/>
     <use xlink:href="#m1e40e84c14" x="292.085474" y="214.116257" style="fill: #800080"/>
     <use xlink:href="#m1e40e84c14" x="280.288065" y="237.515455" style="fill: #800080"/>
     <use xlink:href="#m1e40e84c14" x="284.544458" y="241.45616" style="fill: #800080"/>
     <use xlink:href="#m1e40e84c14" x="275.134585" y="246.118651" style="fill: #800080"/>
     <use xlink:href="#m1e40e84c14" x="276.160653" y="172.015322" style="fill: #800080"/>
     <use xlink:href="#m1e40e84c14" x="274.801953" y="237.874419" style="fill: #800080"/>
     <use xlink:href="#m1e40e84c14" x="289.001613" y="270.09543" style="fill: #800080"/>
     <use xlink:href="#m1e40e84c14" x="289.483169" y="266.860442" style="fill: #800080"/>
     <use xlink:href="#m1e40e84c14" x="301.563346" y="317.236915" style="fill: #800080"/>
     <use xlink:href="#m1e40e84c14" x="291.474572" y="258.874164" style="fill: #800080"/>
     <use xlink:href="#m1e40e84c14" x="277.896681" y="193.185072" style="fill: #800080"/>
     <use xlink:href="#m1e40e84c14" x="295.095506" y="184.941969" style="fill: #800080"/>
     <use xlink:href="#m1e40e84c14" x="294.127249" y="287.843941" style="fill: #800080"/>
     <use xlink:href="#m1e40e84c14" x="289.421594" y="287.843941" style="fill: #800080"/>
     <use xlink:href="#m1e40e84c14" x="296.779386" y="171.031883" style="fill: #800080"/>
     <use xlink:href="#m1e40e84c14" x="281.909457" y="177.195902" style="fill: #800080"/>
     <use xlink:href="#m1e40e84c14" x="279.099839" y="287.843941" style="fill: #800080"/>
     <use xlink:href="#m1e40e84c14" x="280.982405" y="204.120396" style="fill: #800080"/>
     <use xlink:href="#m1e40e84c14" x="288.462212" y="161.048465" style="fill: #800080"/>
     <use xlink:href="#m1e40e84c14" x="299.041201" y="182.477793" style="fill: #800080"/>
     <use xlink:href="#m1e40e84c14" x="279.622231" y="192.265101" style="fill: #800080"/>
     <use xlink:href="#m1e40e84c14" x="281.253025" y="287.843941" style="fill: #800080"/>
     <use xlink:href="#m1e40e84c14" x="275.192319" y="276.459619" style="fill: #800080"/>
     <use xlink:href="#m1e40e84c14" x="277.079158" y="215.691889" style="fill: #800080"/>
     <use xlink:href="#m1e40e84c14" x="285.932478" y="104.153334" style="fill: #800080"/>
     <use xlink:href="#m1e40e84c14" x="290.411683" y="78.048819" style="fill: #800080"/>
     <use xlink:href="#m1e40e84c14" x="283.356182" y="166.314671" style="fill: #800080"/>
     <use xlink:href="#m1e40e84c14" x="283.552149" y="235.427486" style="fill: #800080"/>
     <use xlink:href="#m1e40e84c14" x="281.199404" y="209.707252" style="fill: #800080"/>
     <use xlink:href="#m1e40e84c14" x="282.50778" y="291.176143" style="fill: #800080"/>
     <use xlink:href="#m1e40e84c14" x="275.286205" y="232.228744" style="fill: #800080"/>
     <use xlink:href="#m1e40e84c14" x="303.196648" y="287.843941" style="fill: #800080"/>
     <use xlink:href="#m1e40e84c14" x="294.963945" y="182.13713" style="fill: #800080"/>
     <use xlink:href="#m1e40e84c14" x="280.844937" y="241.852495" style="fill: #800080"/>
     <use xlink:href="#m1e40e84c14" x="280.946247" y="266.860442" style="fill: #800080"/>
     <use xlink:href="#m1e40e84c14" x="291.71626" y="170.57776" style="fill: #800080"/>
     <use xlink:href="#m1e40e84c14" x="289.945149" y="197.880696" style="fill: #800080"/>
     <use xlink:href="#m1e40e84c14" x="280.964248" y="287.843941" style="fill: #800080"/>
     <use xlink:href="#m1e40e84c14" x="275.333262" y="287.843941" style="fill: #800080"/>
     <use xlink:href="#m1e40e84c14" x="305.234197" y="215.258371" style="fill: #800080"/>
     <use xlink:href="#m1e40e84c14" x="292.380706" y="167.693635" style="fill: #800080"/>
     <use xlink:href="#m1e40e84c14" x="276.69931" y="200.859379" style="fill: #800080"/>
     <use xlink:href="#m1e40e84c14" x="290.486715" y="232.228744" style="fill: #800080"/>
     <use xlink:href="#m1e40e84c14" x="283.341003" y="115.141882" style="fill: #800080"/>
     <use xlink:href="#m1e40e84c14" x="300.192017" y="287.843941" style="fill: #800080"/>
     <use xlink:href="#m1e40e84c14" x="280.310565" y="164.404168" style="fill: #800080"/>
     <use xlink:href="#m1e40e84c14" x="302.012665" y="243.40888" style="fill: #800080"/>
     <use xlink:href="#m1e40e84c14" x="297.428745" y="213.165148" style="fill: #800080"/>
     <use xlink:href="#m1e40e84c14" x="289.324002" y="287.843941" style="fill: #800080"/>
     <use xlink:href="#m1e40e84c14" x="277.172653" y="234.313614" style="fill: #800080"/>
     <use xlink:href="#m1e40e84c14" x="275.243723" y="287.843941" style="fill: #800080"/>
     <use xlink:href="#m1e40e84c14" x="275.518098" y="162.555715" style="fill: #800080"/>
     <use xlink:href="#m1e40e84c14" x="293.577115" y="276.459619" style="fill: #800080"/>
     <use xlink:href="#m1e40e84c14" x="304.238371" y="287.843941" style="fill: #800080"/>
     <use xlink:href="#m1e40e84c14" x="282.163297" y="224.732225" style="fill: #800080"/>
     <use xlink:href="#m1e40e84c14" x="290.33638" y="265.443375" style="fill: #800080"/>
     <use xlink:href="#m1e40e84c14" x="274.639784" y="161.339986" style="fill: #800080"/>
     <use xlink:href="#m1e40e84c14" x="295.52609" y="107.359868" style="fill: #800080"/>
     <use xlink:href="#m1e40e84c14" x="292.908291" y="186.084847" style="fill: #800080"/>
     <use xlink:href="#m1e40e84c14" x="288.306552" y="191.170499" style="fill: #800080"/>
     <use xlink:href="#m1e40e84c14" x="288.779275" y="213.892085" style="fill: #800080"/>
     <use xlink:href="#m1e40e84c14" x="292.283128" y="104.368348" style="fill: #800080"/>
     <use xlink:href="#m1e40e84c14" x="290.218685" y="145.350316" style="fill: #800080"/>
     <use xlink:href="#m1e40e84c14" x="284.979303" y="178.455523" style="fill: #800080"/>
     <use xlink:href="#m1e40e84c14" x="278.973371" y="252.483276" style="fill: #800080"/>
     <use xlink:href="#m1e40e84c14" x="288.039333" y="200.859379" style="fill: #800080"/>
     <use xlink:href="#m1e40e84c14" x="292.777203" y="162.53581" style="fill: #800080"/>
     <use xlink:href="#m1e40e84c14" x="297.964433" y="144.860663" style="fill: #800080"/>
     <use xlink:href="#m1e40e84c14" x="291.913886" y="129.603473" style="fill: #800080"/>
     <use xlink:href="#m1e40e84c14" x="298.694882" y="133.979861" style="fill: #800080"/>
     <use xlink:href="#m1e40e84c14" x="277.176789" y="167.93105" style="fill: #800080"/>
    </g>
   </g>
   <g id="PathCollection_3">
    <defs>
     <path id="m21f4e4a3f6" d="M 0 -5 
L -5 5 
L 5 5 
z
"/>
    </defs>
    <g clip-path="url(#pc17e17e324)">
     <use xlink:href="#m21f4e4a3f6" x="434.300523" y="192.817513" style="fill: #008000"/>
     <use xlink:href="#m21f4e4a3f6" x="458.382213" y="140.857425" style="fill: #008000"/>
     <use xlink:href="#m21f4e4a3f6" x="434.694775" y="132.545385" style="fill: #008000"/>
     <use xlink:href="#m21f4e4a3f6" x="442.757699" y="139.616658" style="fill: #008000"/>
     <use xlink:href="#m21f4e4a3f6" x="452.154013" y="148.375873" style="fill: #008000"/>
     <use xlink:href="#m21f4e4a3f6" x="435.850812" y="204.535085" style="fill: #008000"/>
     <use xlink:href="#m21f4e4a3f6" x="450.497343" y="202.625298" style="fill: #008000"/>
     <use xlink:href="#m21f4e4a3f6" x="455.173445" y="192.817513" style="fill: #008000"/>
     <use xlink:href="#m21f4e4a3f6" x="454.836546" y="179.05346" style="fill: #008000"/>
     <use xlink:href="#m21f4e4a3f6" x="459.732581" y="110.360318" style="fill: #008000"/>
     <use xlink:href="#m21f4e4a3f6" x="463.951314" y="148.375873" style="fill: #008000"/>
     <use xlink:href="#m21f4e4a3f6" x="460.179253" y="179.05346" style="fill: #008000"/>
     <use xlink:href="#m21f4e4a3f6" x="434.8755" y="176.737604" style="fill: #008000"/>
     <use xlink:href="#m21f4e4a3f6" x="451.628658" y="140.919131" style="fill: #008000"/>
     <use xlink:href="#m21f4e4a3f6" x="449.02978" y="196.590543" style="fill: #008000"/>
     <use xlink:href="#m21f4e4a3f6" x="446.852012" y="204.535085" style="fill: #008000"/>
     <use xlink:href="#m21f4e4a3f6" x="440.156269" y="107.829987" style="fill: #008000"/>
     <use xlink:href="#m21f4e4a3f6" x="436.042803" y="147.74699" style="fill: #008000"/>
     <use xlink:href="#m21f4e4a3f6" x="454.965996" y="190.384766" style="fill: #008000"/>
     <use xlink:href="#m21f4e4a3f6" x="456.937719" y="204.535085" style="fill: #008000"/>
     <use xlink:href="#m21f4e4a3f6" x="445.850963" y="204.535085" style="fill: #008000"/>
     <use xlink:href="#m21f4e4a3f6" x="441.963267" y="204.535085" style="fill: #008000"/>
     <use xlink:href="#m21f4e4a3f6" x="462.315589" y="145.41578" style="fill: #008000"/>
     <use xlink:href="#m21f4e4a3f6" x="441.272524" y="204.535085" style="fill: #008000"/>
     <use xlink:href="#m21f4e4a3f6" x="460.930211" y="204.535085" style="fill: #008000"/>
     <use xlink:href="#m21f4e4a3f6" x="450.681004" y="147.74699" style="fill: #008000"/>
     <use xlink:href="#m21f4e4a3f6" x="450.308626" y="204.535085" style="fill: #008000"/>
     <use xlink:href="#m21f4e4a3f6" x="462.345839" y="196.590543" style="fill: #008000"/>
     <use xlink:href="#m21f4e4a3f6" x="438.282235" y="204.120396" style="fill: #008000"/>
     <use xlink:href="#m21f4e4a3f6" x="457.403261" y="204.535085" style="fill: #008000"/>
     <use xlink:href="#m21f4e4a3f6" x="436.64642" y="173.926857" style="fill: #008000"/>
     <use xlink:href="#m21f4e4a3f6" x="461.432655" y="204.535085" style="fill: #008000"/>
     <use xlink:href="#m21f4e4a3f6" x="459.174606" y="140.857425" style="fill: #008000"/>
    </g>
   </g>
   <g id="PathCollection_4">
    <defs>
     <path id="m7f8ecb0b6f" d="M 0 -5 
L -5 5 
L 5 5 
z
"/>
    </defs>
    <g clip-path="url(#pc17e17e324)">
     <use xlink:href="#m7f8ecb0b6f" x="592.208486" y="154.426959" style="fill: #800080"/>
     <use xlink:href="#m7f8ecb0b6f" x="598.816011" y="185.203215" style="fill: #800080"/>
     <use xlink:href="#m7f8ecb0b6f" x="592.258994" y="107.705973" style="fill: #800080"/>
     <use xlink:href="#m7f8ecb0b6f" x="599.536237" y="204.535085" style="fill: #800080"/>
     <use xlink:href="#m7f8ecb0b6f" x="600.603611" y="138.447435" style="fill: #800080"/>
     <use xlink:href="#m7f8ecb0b6f" x="602.463432" y="134.327512" style="fill: #800080"/>
     <use xlink:href="#m7f8ecb0b6f" x="613.224514" y="204.535085" style="fill: #800080"/>
     <use xlink:href="#m7f8ecb0b6f" x="592.855876" y="204.535085" style="fill: #800080"/>
     <use xlink:href="#m7f8ecb0b6f" x="605.210991" y="204.535085" style="fill: #800080"/>
     <use xlink:href="#m7f8ecb0b6f" x="598.356191" y="86.892014" style="fill: #800080"/>
     <use xlink:href="#m7f8ecb0b6f" x="616.281965" y="204.535085" style="fill: #800080"/>
     <use xlink:href="#m7f8ecb0b6f" x="606.262407" y="165.777373" style="fill: #800080"/>
     <use xlink:href="#m7f8ecb0b6f" x="593.309881" y="204.535085" style="fill: #800080"/>
     <use xlink:href="#m7f8ecb0b6f" x="608.976875" y="165.777373" style="fill: #800080"/>
     <use xlink:href="#m7f8ecb0b6f" x="606.442406" y="142.170729" style="fill: #800080"/>
     <use xlink:href="#m7f8ecb0b6f" x="617.763025" y="154.426959" style="fill: #800080"/>
     <use xlink:href="#m7f8ecb0b6f" x="596.243001" y="116.101037" style="fill: #800080"/>
     <use xlink:href="#m7f8ecb0b6f" x="608.591646" y="107.8083" style="fill: #800080"/>
     <use xlink:href="#m7f8ecb0b6f" x="591.497911" y="204.535085" style="fill: #800080"/>
     <use xlink:href="#m7f8ecb0b6f" x="621.465049" y="113.118803" style="fill: #800080"/>
     <use xlink:href="#m7f8ecb0b6f" x="612.888668" y="204.535085" style="fill: #800080"/>
     <use xlink:href="#m7f8ecb0b6f" x="595.747765" y="110.356605" style="fill: #800080"/>
     <use xlink:href="#m7f8ecb0b6f" x="621.950948" y="66.96" style="fill: #800080"/>
     <use xlink:href="#m7f8ecb0b6f" x="612.503153" y="173.266959" style="fill: #800080"/>
     <use xlink:href="#m7f8ecb0b6f" x="595.020272" y="193.343845" style="fill: #800080"/>
     <use xlink:href="#m7f8ecb0b6f" x="617.718648" y="149.006818" style="fill: #800080"/>
     <use xlink:href="#m7f8ecb0b6f" x="621.370533" y="154.851646" style="fill: #800080"/>
     <use xlink:href="#m7f8ecb0b6f" x="592.869158" y="178.63484" style="fill: #800080"/>
     <use xlink:href="#m7f8ecb0b6f" x="615.598569" y="204.535085" style="fill: #800080"/>
     <use xlink:href="#m7f8ecb0b6f" x="621.96037" y="196.590543" style="fill: #800080"/>
     <use xlink:href="#m7f8ecb0b6f" x="603.708733" y="126.799235" style="fill: #800080"/>
     <use xlink:href="#m7f8ecb0b6f" x="612.034096" y="144.33402" style="fill: #800080"/>
     <use xlink:href="#m7f8ecb0b6f" x="613.639848" y="133.092294" style="fill: #800080"/>
     <use xlink:href="#m7f8ecb0b6f" x="621.366836" y="133.721512" style="fill: #800080"/>
     <use xlink:href="#m7f8ecb0b6f" x="592.568908" y="180.66557" style="fill: #800080"/>
     <use xlink:href="#m7f8ecb0b6f" x="612.21106" y="204.535085" style="fill: #800080"/>
     <use xlink:href="#m7f8ecb0b6f" x="603.771097" y="135.735228" style="fill: #800080"/>
     <use xlink:href="#m7f8ecb0b6f" x="593.95834" y="196.590543" style="fill: #800080"/>
     <use xlink:href="#m7f8ecb0b6f" x="594.077871" y="147.498574" style="fill: #800080"/>
     <use xlink:href="#m7f8ecb0b6f" x="596.204706" y="149.006818" style="fill: #800080"/>
     <use xlink:href="#m7f8ecb0b6f" x="604.311234" y="185.161825" style="fill: #800080"/>
     <use xlink:href="#m7f8ecb0b6f" x="604.850677" y="176.737604" style="fill: #800080"/>
     <use xlink:href="#m7f8ecb0b6f" x="605.748733" y="185.161825" style="fill: #800080"/>
     <use xlink:href="#m7f8ecb0b6f" x="604.466621" y="149.006818" style="fill: #800080"/>
     <use xlink:href="#m7f8ecb0b6f" x="605.443071" y="164.831027" style="fill: #800080"/>
    </g>
   </g>
   <g id="matplotlib.axis_1">
    <g id="xtick_1">
     <g id="line2d_1">
      <defs>
       <path id="m58d9c4c917" d="M 0 0 
L 0 3.5 
" style="stroke: #000000; stroke-width: 0.8"/>
      </defs>
      <g>
       <use xlink:href="#m58d9c4c917" x="210.477273" y="384.48" style="stroke: #000000; stroke-width: 0.8"/>
      </g>
     </g>
     <g id="text_1">
      <!-- FLU09 -->
      <g transform="translate(195.043679 399.078438) scale(0.1 -0.1)">
       <defs>
        <path id="DejaVuSans-46" d="M 628 4666 
L 3309 4666 
L 3309 4134 
L 1259 4134 
L 1259 2759 
L 3109 2759 
L 3109 2228 
L 1259 2228 
L 1259 0 
L 628 0 
L 628 4666 
z
" transform="scale(0.015625)"/>
        <path id="DejaVuSans-4c" d="M 628 4666 
L 1259 4666 
L 1259 531 
L 3531 531 
L 3531 0 
L 628 0 
L 628 4666 
z
" transform="scale(0.015625)"/>
        <path id="DejaVuSans-55" d="M 556 4666 
L 1191 4666 
L 1191 1831 
Q 1191 1081 1462 751 
Q 1734 422 2344 422 
Q 2950 422 3222 751 
Q 3494 1081 3494 1831 
L 3494 4666 
L 4128 4666 
L 4128 1753 
Q 4128 841 3676 375 
Q 3225 -91 2344 -91 
Q 1459 -91 1007 375 
Q 556 841 556 1753 
L 556 4666 
z
" transform="scale(0.015625)"/>
        <path id="DejaVuSans-30" d="M 2034 4250 
Q 1547 4250 1301 3770 
Q 1056 3291 1056 2328 
Q 1056 1369 1301 889 
Q 1547 409 2034 409 
Q 2525 409 2770 889 
Q 3016 1369 3016 2328 
Q 3016 3291 2770 3770 
Q 2525 4250 2034 4250 
z
M 2034 4750 
Q 2819 4750 3233 4129 
Q 3647 3509 3647 2328 
Q 3647 1150 3233 529 
Q 2819 -91 2034 -91 
Q 1250 -91 836 529 
Q 422 1150 422 2328 
Q 422 3509 836 4129 
Q 1250 4750 2034 4750 
z
" transform="scale(0.015625)"/>
        <path id="DejaVuSans-39" d="M 703 97 
L 703 672 
Q 941 559 1184 500 
Q 1428 441 1663 441 
Q 2288 441 2617 861 
Q 2947 1281 2994 2138 
Q 2813 1869 2534 1725 
Q 2256 1581 1919 1581 
Q 1219 1581 811 2004 
Q 403 2428 403 3163 
Q 403 3881 828 4315 
Q 1253 4750 1959 4750 
Q 2769 4750 3195 4129 
Q 3622 3509 3622 2328 
Q 3622 1225 3098 567 
Q 2575 -91 1691 -91 
Q 1453 -91 1209 -44 
Q 966 3 703 97 
z
M 1959 2075 
Q 2384 2075 2632 2365 
Q 2881 2656 2881 3163 
Q 2881 3666 2632 3958 
Q 2384 4250 1959 4250 
Q 1534 4250 1286 3958 
Q 1038 3666 1038 3163 
Q 1038 2656 1286 2365 
Q 1534 2075 1959 2075 
z
" transform="scale(0.015625)"/>
       </defs>
       <use xlink:href="#DejaVuSans-46"/>
       <use xlink:href="#DejaVuSans-4c" x="57.519531"/>
       <use xlink:href="#DejaVuSans-55" x="108.232422"/>
       <use xlink:href="#DejaVuSans-30" x="181.425781"/>
       <use xlink:href="#DejaVuSans-39" x="245.048828"/>
      </g>
     </g>
    </g>
    <g id="xtick_2">
     <g id="line2d_2">
      <g>
       <use xlink:href="#m58d9c4c917" x="527.522727" y="384.48" style="stroke: #000000; stroke-width: 0.8"/>
      </g>
     </g>
     <g id="text_2">
      <!-- Hopkins -->
      <g transform="translate(507.471165 399.078438) scale(0.1 -0.1)">
       <defs>
        <path id="DejaVuSans-48" d="M 628 4666 
L 1259 4666 
L 1259 2753 
L 3553 2753 
L 3553 4666 
L 4184 4666 
L 4184 0 
L 3553 0 
L 3553 2222 
L 1259 2222 
L 1259 0 
L 628 0 
L 628 4666 
z
" transform="scale(0.015625)"/>
        <path id="DejaVuSans-6f" d="M 1959 3097 
Q 1497 3097 1228 2736 
Q 959 2375 959 1747 
Q 959 1119 1226 758 
Q 1494 397 1959 397 
Q 2419 397 2687 759 
Q 2956 1122 2956 1747 
Q 2956 2369 2687 2733 
Q 2419 3097 1959 3097 
z
M 1959 3584 
Q 2709 3584 3137 3096 
Q 3566 2609 3566 1747 
Q 3566 888 3137 398 
Q 2709 -91 1959 -91 
Q 1206 -91 779 398 
Q 353 888 353 1747 
Q 353 2609 779 3096 
Q 1206 3584 1959 3584 
z
" transform="scale(0.015625)"/>
        <path id="DejaVuSans-70" d="M 1159 525 
L 1159 -1331 
L 581 -1331 
L 581 3500 
L 1159 3500 
L 1159 2969 
Q 1341 3281 1617 3432 
Q 1894 3584 2278 3584 
Q 2916 3584 3314 3078 
Q 3713 2572 3713 1747 
Q 3713 922 3314 415 
Q 2916 -91 2278 -91 
Q 1894 -91 1617 61 
Q 1341 213 1159 525 
z
M 3116 1747 
Q 3116 2381 2855 2742 
Q 2594 3103 2138 3103 
Q 1681 3103 1420 2742 
Q 1159 2381 1159 1747 
Q 1159 1113 1420 752 
Q 1681 391 2138 391 
Q 2594 391 2855 752 
Q 3116 1113 3116 1747 
z
" transform="scale(0.015625)"/>
        <path id="DejaVuSans-6b" d="M 581 4863 
L 1159 4863 
L 1159 1991 
L 2875 3500 
L 3609 3500 
L 1753 1863 
L 3688 0 
L 2938 0 
L 1159 1709 
L 1159 0 
L 581 0 
L 581 4863 
z
" transform="scale(0.015625)"/>
        <path id="DejaVuSans-69" d="M 603 3500 
L 1178 3500 
L 1178 0 
L 603 0 
L 603 3500 
z
M 603 4863 
L 1178 4863 
L 1178 4134 
L 603 4134 
L 603 4863 
z
" transform="scale(0.015625)"/>
        <path id="DejaVuSans-6e" d="M 3513 2113 
L 3513 0 
L 2938 0 
L 2938 2094 
Q 2938 2591 2744 2837 
Q 2550 3084 2163 3084 
Q 1697 3084 1428 2787 
Q 1159 2491 1159 1978 
L 1159 0 
L 581 0 
L 581 3500 
L 1159 3500 
L 1159 2956 
Q 1366 3272 1645 3428 
Q 1925 3584 2291 3584 
Q 2894 3584 3203 3211 
Q 3513 2838 3513 2113 
z
" transform="scale(0.015625)"/>
        <path id="DejaVuSans-73" d="M 2834 3397 
L 2834 2853 
Q 2591 2978 2328 3040 
Q 2066 3103 1784 3103 
Q 1356 3103 1142 2972 
Q 928 2841 928 2578 
Q 928 2378 1081 2264 
Q 1234 2150 1697 2047 
L 1894 2003 
Q 2506 1872 2764 1633 
Q 3022 1394 3022 966 
Q 3022 478 2636 193 
Q 2250 -91 1575 -91 
Q 1294 -91 989 -36 
Q 684 19 347 128 
L 347 722 
Q 666 556 975 473 
Q 1284 391 1588 391 
Q 1994 391 2212 530 
Q 2431 669 2431 922 
Q 2431 1156 2273 1281 
Q 2116 1406 1581 1522 
L 1381 1569 
Q 847 1681 609 1914 
Q 372 2147 372 2553 
Q 372 3047 722 3315 
Q 1072 3584 1716 3584 
Q 2034 3584 2315 3537 
Q 2597 3491 2834 3397 
z
" transform="scale(0.015625)"/>
       </defs>
       <use xlink:href="#DejaVuSans-48"/>
       <use xlink:href="#DejaVuSans-6f" x="75.195312"/>
       <use xlink:href="#DejaVuSans-70" x="136.376953"/>
       <use xlink:href="#DejaVuSans-6b" x="199.853516"/>
       <use xlink:href="#DejaVuSans-69" x="257.763672"/>
       <use xlink:href="#DejaVuSans-6e" x="285.546875"/>
       <use xlink:href="#DejaVuSans-73" x="348.925781"/>
      </g>
     </g>
    </g>
   </g>
   <g id="matplotlib.axis_2">
    <g id="ytick_1">
     <g id="line2d_3">
      <defs>
       <path id="m8356fce73e" d="M 0 0 
L -3.5 0 
" style="stroke: #000000; stroke-width: 0.8"/>
      </defs>
      <g>
       <use xlink:href="#m8356fce73e" x="90" y="376.403835" style="stroke: #000000; stroke-width: 0.8"/>
      </g>
     </g>
     <g id="text_3">
      <!-- 0.0 -->
      <g transform="translate(67.096875 380.203054) scale(0.1 -0.1)">
       <defs>
        <path id="DejaVuSans-2e" d="M 684 794 
L 1344 794 
L 1344 0 
L 684 0 
L 684 794 
z
" transform="scale(0.015625)"/>
       </defs>
       <use xlink:href="#DejaVuSans-30"/>
       <use xlink:href="#DejaVuSans-2e" x="63.623047"/>
       <use xlink:href="#DejaVuSans-30" x="95.410156"/>
      </g>
     </g>
    </g>
    <g id="ytick_2">
     <g id="line2d_4">
      <g>
       <use xlink:href="#m8356fce73e" x="90" y="327.071872" style="stroke: #000000; stroke-width: 0.8"/>
      </g>
     </g>
     <g id="text_4">
      <!-- 0.1 -->
      <g transform="translate(67.096875 330.871091) scale(0.1 -0.1)">
       <defs>
        <path id="DejaVuSans-31" d="M 794 531 
L 1825 531 
L 1825 4091 
L 703 3866 
L 703 4441 
L 1819 4666 
L 2450 4666 
L 2450 531 
L 3481 531 
L 3481 0 
L 794 0 
L 794 531 
z
" transform="scale(0.015625)"/>
       </defs>
       <use xlink:href="#DejaVuSans-30"/>
       <use xlink:href="#DejaVuSans-2e" x="63.623047"/>
       <use xlink:href="#DejaVuSans-31" x="95.410156"/>
      </g>
     </g>
    </g>
    <g id="ytick_3">
     <g id="line2d_5">
      <g>
       <use xlink:href="#m8356fce73e" x="90" y="277.73991" style="stroke: #000000; stroke-width: 0.8"/>
      </g>
     </g>
     <g id="text_5">
      <!-- 0.2 -->
      <g transform="translate(67.096875 281.539129) scale(0.1 -0.1)">
       <defs>
        <path id="DejaVuSans-32" d="M 1228 531 
L 3431 531 
L 3431 0 
L 469 0 
L 469 531 
Q 828 903 1448 1529 
Q 2069 2156 2228 2338 
Q 2531 2678 2651 2914 
Q 2772 3150 2772 3378 
Q 2772 3750 2511 3984 
Q 2250 4219 1831 4219 
Q 1534 4219 1204 4116 
Q 875 4013 500 3803 
L 500 4441 
Q 881 4594 1212 4672 
Q 1544 4750 1819 4750 
Q 2544 4750 2975 4387 
Q 3406 4025 3406 3419 
Q 3406 3131 3298 2873 
Q 3191 2616 2906 2266 
Q 2828 2175 2409 1742 
Q 1991 1309 1228 531 
z
" transform="scale(0.015625)"/>
       </defs>
       <use xlink:href="#DejaVuSans-30"/>
       <use xlink:href="#DejaVuSans-2e" x="63.623047"/>
       <use xlink:href="#DejaVuSans-32" x="95.410156"/>
      </g>
     </g>
    </g>
    <g id="ytick_4">
     <g id="line2d_6">
      <g>
       <use xlink:href="#m8356fce73e" x="90" y="228.407947" style="stroke: #000000; stroke-width: 0.8"/>
      </g>
     </g>
     <g id="text_6">
      <!-- 0.3 -->
      <g transform="translate(67.096875 232.207166) scale(0.1 -0.1)">
       <defs>
        <path id="DejaVuSans-33" d="M 2597 2516 
Q 3050 2419 3304 2112 
Q 3559 1806 3559 1356 
Q 3559 666 3084 287 
Q 2609 -91 1734 -91 
Q 1441 -91 1130 -33 
Q 819 25 488 141 
L 488 750 
Q 750 597 1062 519 
Q 1375 441 1716 441 
Q 2309 441 2620 675 
Q 2931 909 2931 1356 
Q 2931 1769 2642 2001 
Q 2353 2234 1838 2234 
L 1294 2234 
L 1294 2753 
L 1863 2753 
Q 2328 2753 2575 2939 
Q 2822 3125 2822 3475 
Q 2822 3834 2567 4026 
Q 2313 4219 1838 4219 
Q 1578 4219 1281 4162 
Q 984 4106 628 3988 
L 628 4550 
Q 988 4650 1302 4700 
Q 1616 4750 1894 4750 
Q 2613 4750 3031 4423 
Q 3450 4097 3450 3541 
Q 3450 3153 3228 2886 
Q 3006 2619 2597 2516 
z
" transform="scale(0.015625)"/>
       </defs>
       <use xlink:href="#DejaVuSans-30"/>
       <use xlink:href="#DejaVuSans-2e" x="63.623047"/>
       <use xlink:href="#DejaVuSans-33" x="95.410156"/>
      </g>
     </g>
    </g>
    <g id="ytick_5">
     <g id="line2d_7">
      <g>
       <use xlink:href="#m8356fce73e" x="90" y="179.075985" style="stroke: #000000; stroke-width: 0.8"/>
      </g>
     </g>
     <g id="text_7">
      <!-- 0.4 -->
      <g transform="translate(67.096875 182.875204) scale(0.1 -0.1)">
       <defs>
        <path id="DejaVuSans-34" d="M 2419 4116 
L 825 1625 
L 2419 1625 
L 2419 4116 
z
M 2253 4666 
L 3047 4666 
L 3047 1625 
L 3713 1625 
L 3713 1100 
L 3047 1100 
L 3047 0 
L 2419 0 
L 2419 1100 
L 313 1100 
L 313 1709 
L 2253 4666 
z
" transform="scale(0.015625)"/>
       </defs>
       <use xlink:href="#DejaVuSans-30"/>
       <use xlink:href="#DejaVuSans-2e" x="63.623047"/>
       <use xlink:href="#DejaVuSans-34" x="95.410156"/>
      </g>
     </g>
    </g>
    <g id="ytick_6">
     <g id="line2d_8">
      <g>
       <use xlink:href="#m8356fce73e" x="90" y="129.744022" style="stroke: #000000; stroke-width: 0.8"/>
      </g>
     </g>
     <g id="text_8">
      <!-- 0.5 -->
      <g transform="translate(67.096875 133.543241) scale(0.1 -0.1)">
       <defs>
        <path id="DejaVuSans-35" d="M 691 4666 
L 3169 4666 
L 3169 4134 
L 1269 4134 
L 1269 2991 
Q 1406 3038 1543 3061 
Q 1681 3084 1819 3084 
Q 2600 3084 3056 2656 
Q 3513 2228 3513 1497 
Q 3513 744 3044 326 
Q 2575 -91 1722 -91 
Q 1428 -91 1123 -41 
Q 819 9 494 109 
L 494 744 
Q 775 591 1075 516 
Q 1375 441 1709 441 
Q 2250 441 2565 725 
Q 2881 1009 2881 1497 
Q 2881 1984 2565 2268 
Q 2250 2553 1709 2553 
Q 1456 2553 1204 2497 
Q 953 2441 691 2322 
L 691 4666 
z
" transform="scale(0.015625)"/>
       </defs>
       <use xlink:href="#DejaVuSans-30"/>
       <use xlink:href="#DejaVuSans-2e" x="63.623047"/>
       <use xlink:href="#DejaVuSans-35" x="95.410156"/>
      </g>
     </g>
    </g>
    <g id="ytick_7">
     <g id="line2d_9">
      <g>
       <use xlink:href="#m8356fce73e" x="90" y="80.41206" style="stroke: #000000; stroke-width: 0.8"/>
      </g>
     </g>
     <g id="text_9">
      <!-- 0.6 -->
      <g transform="translate(67.096875 84.211278) scale(0.1 -0.1)">
       <defs>
        <path id="DejaVuSans-36" d="M 2113 2584 
Q 1688 2584 1439 2293 
Q 1191 2003 1191 1497 
Q 1191 994 1439 701 
Q 1688 409 2113 409 
Q 2538 409 2786 701 
Q 3034 994 3034 1497 
Q 3034 2003 2786 2293 
Q 2538 2584 2113 2584 
z
M 3366 4563 
L 3366 3988 
Q 3128 4100 2886 4159 
Q 2644 4219 2406 4219 
Q 1781 4219 1451 3797 
Q 1122 3375 1075 2522 
Q 1259 2794 1537 2939 
Q 1816 3084 2150 3084 
Q 2853 3084 3261 2657 
Q 3669 2231 3669 1497 
Q 3669 778 3244 343 
Q 2819 -91 2113 -91 
Q 1303 -91 875 529 
Q 447 1150 447 2328 
Q 447 3434 972 4092 
Q 1497 4750 2381 4750 
Q 2619 4750 2861 4703 
Q 3103 4656 3366 4563 
z
" transform="scale(0.015625)"/>
       </defs>
       <use xlink:href="#DejaVuSans-30"/>
       <use xlink:href="#DejaVuSans-2e" x="63.623047"/>
       <use xlink:href="#DejaVuSans-36" x="95.410156"/>
      </g>
     </g>
    </g>
    <g id="text_10">
     <!-- Log10 IFNα2.P Relative Luminescence -->
     <g transform="translate(61.017187 313.355312) rotate(-90) scale(0.1 -0.1)">
      <defs>
       <path id="DejaVuSans-67" d="M 2906 1791 
Q 2906 2416 2648 2759 
Q 2391 3103 1925 3103 
Q 1463 3103 1205 2759 
Q 947 2416 947 1791 
Q 947 1169 1205 825 
Q 1463 481 1925 481 
Q 2391 481 2648 825 
Q 2906 1169 2906 1791 
z
M 3481 434 
Q 3481 -459 3084 -895 
Q 2688 -1331 1869 -1331 
Q 1566 -1331 1297 -1286 
Q 1028 -1241 775 -1147 
L 775 -588 
Q 1028 -725 1275 -790 
Q 1522 -856 1778 -856 
Q 2344 -856 2625 -561 
Q 2906 -266 2906 331 
L 2906 616 
Q 2728 306 2450 153 
Q 2172 0 1784 0 
Q 1141 0 747 490 
Q 353 981 353 1791 
Q 353 2603 747 3093 
Q 1141 3584 1784 3584 
Q 2172 3584 2450 3431 
Q 2728 3278 2906 2969 
L 2906 3500 
L 3481 3500 
L 3481 434 
z
" transform="scale(0.015625)"/>
       <path id="DejaVuSans-20" transform="scale(0.015625)"/>
       <path id="DejaVuSans-49" d="M 628 4666 
L 1259 4666 
L 1259 0 
L 628 0 
L 628 4666 
z
" transform="scale(0.015625)"/>
       <path id="DejaVuSans-4e" d="M 628 4666 
L 1478 4666 
L 3547 763 
L 3547 4666 
L 4159 4666 
L 4159 0 
L 3309 0 
L 1241 3903 
L 1241 0 
L 628 0 
L 628 4666 
z
" transform="scale(0.015625)"/>
       <path id="DejaVuSans-3b1" d="M 2644 1628 
L 2506 2350 
Q 2366 3091 1809 3091 
Q 1391 3091 1200 2747 
Q 959 2316 959 1747 
Q 959 1059 1194 731 
Q 1431 397 1809 397 
Q 2228 397 2453 1063 
L 2644 1628 
z
M 2966 2584 
L 3275 3500 
L 3788 3500 
L 3147 1603 
L 3272 919 
Q 3300 766 3409 638 
Q 3538 488 3638 488 
L 3913 488 
L 3913 0 
L 3569 0 
Q 3275 0 3013 263 
Q 2884 394 2831 669 
Q 2688 322 2394 50 
Q 2256 -78 1809 -78 
Q 1075 -78 719 397 
Q 353 888 353 1747 
Q 353 2666 750 3097 
Q 1191 3578 1809 3578 
Q 2781 3578 2966 2584 
z
" transform="scale(0.015625)"/>
       <path id="DejaVuSans-50" d="M 1259 4147 
L 1259 2394 
L 2053 2394 
Q 2494 2394 2734 2622 
Q 2975 2850 2975 3272 
Q 2975 3691 2734 3919 
Q 2494 4147 2053 4147 
L 1259 4147 
z
M 628 4666 
L 2053 4666 
Q 2838 4666 3239 4311 
Q 3641 3956 3641 3272 
Q 3641 2581 3239 2228 
Q 2838 1875 2053 1875 
L 1259 1875 
L 1259 0 
L 628 0 
L 628 4666 
z
" transform="scale(0.015625)"/>
       <path id="DejaVuSans-52" d="M 2841 2188 
Q 3044 2119 3236 1894 
Q 3428 1669 3622 1275 
L 4263 0 
L 3584 0 
L 2988 1197 
Q 2756 1666 2539 1819 
Q 2322 1972 1947 1972 
L 1259 1972 
L 1259 0 
L 628 0 
L 628 4666 
L 2053 4666 
Q 2853 4666 3247 4331 
Q 3641 3997 3641 3322 
Q 3641 2881 3436 2590 
Q 3231 2300 2841 2188 
z
M 1259 4147 
L 1259 2491 
L 2053 2491 
Q 2509 2491 2742 2702 
Q 2975 2913 2975 3322 
Q 2975 3731 2742 3939 
Q 2509 4147 2053 4147 
L 1259 4147 
z
" transform="scale(0.015625)"/>
       <path id="DejaVuSans-65" d="M 3597 1894 
L 3597 1613 
L 953 1613 
Q 991 1019 1311 708 
Q 1631 397 2203 397 
Q 2534 397 2845 478 
Q 3156 559 3463 722 
L 3463 178 
Q 3153 47 2828 -22 
Q 2503 -91 2169 -91 
Q 1331 -91 842 396 
Q 353 884 353 1716 
Q 353 2575 817 3079 
Q 1281 3584 2069 3584 
Q 2775 3584 3186 3129 
Q 3597 2675 3597 1894 
z
M 3022 2063 
Q 3016 2534 2758 2815 
Q 2500 3097 2075 3097 
Q 1594 3097 1305 2825 
Q 1016 2553 972 2059 
L 3022 2063 
z
" transform="scale(0.015625)"/>
       <path id="DejaVuSans-6c" d="M 603 4863 
L 1178 4863 
L 1178 0 
L 603 0 
L 603 4863 
z
" transform="scale(0.015625)"/>
       <path id="DejaVuSans-61" d="M 2194 1759 
Q 1497 1759 1228 1600 
Q 959 1441 959 1056 
Q 959 750 1161 570 
Q 1363 391 1709 391 
Q 2188 391 2477 730 
Q 2766 1069 2766 1631 
L 2766 1759 
L 2194 1759 
z
M 3341 1997 
L 3341 0 
L 2766 0 
L 2766 531 
Q 2569 213 2275 61 
Q 1981 -91 1556 -91 
Q 1019 -91 701 211 
Q 384 513 384 1019 
Q 384 1609 779 1909 
Q 1175 2209 1959 2209 
L 2766 2209 
L 2766 2266 
Q 2766 2663 2505 2880 
Q 2244 3097 1772 3097 
Q 1472 3097 1187 3025 
Q 903 2953 641 2809 
L 641 3341 
Q 956 3463 1253 3523 
Q 1550 3584 1831 3584 
Q 2591 3584 2966 3190 
Q 3341 2797 3341 1997 
z
" transform="scale(0.015625)"/>
       <path id="DejaVuSans-74" d="M 1172 4494 
L 1172 3500 
L 2356 3500 
L 2356 3053 
L 1172 3053 
L 1172 1153 
Q 1172 725 1289 603 
Q 1406 481 1766 481 
L 2356 481 
L 2356 0 
L 1766 0 
Q 1100 0 847 248 
Q 594 497 594 1153 
L 594 3053 
L 172 3053 
L 172 3500 
L 594 3500 
L 594 4494 
L 1172 4494 
z
" transform="scale(0.015625)"/>
       <path id="DejaVuSans-76" d="M 191 3500 
L 800 3500 
L 1894 563 
L 2988 3500 
L 3597 3500 
L 2284 0 
L 1503 0 
L 191 3500 
z
" transform="scale(0.015625)"/>
       <path id="DejaVuSans-75" d="M 544 1381 
L 544 3500 
L 1119 3500 
L 1119 1403 
Q 1119 906 1312 657 
Q 1506 409 1894 409 
Q 2359 409 2629 706 
Q 2900 1003 2900 1516 
L 2900 3500 
L 3475 3500 
L 3475 0 
L 2900 0 
L 2900 538 
Q 2691 219 2414 64 
Q 2138 -91 1772 -91 
Q 1169 -91 856 284 
Q 544 659 544 1381 
z
M 1991 3584 
L 1991 3584 
z
" transform="scale(0.015625)"/>
       <path id="DejaVuSans-6d" d="M 3328 2828 
Q 3544 3216 3844 3400 
Q 4144 3584 4550 3584 
Q 5097 3584 5394 3201 
Q 5691 2819 5691 2113 
L 5691 0 
L 5113 0 
L 5113 2094 
Q 5113 2597 4934 2840 
Q 4756 3084 4391 3084 
Q 3944 3084 3684 2787 
Q 3425 2491 3425 1978 
L 3425 0 
L 2847 0 
L 2847 2094 
Q 2847 2600 2669 2842 
Q 2491 3084 2119 3084 
Q 1678 3084 1418 2786 
Q 1159 2488 1159 1978 
L 1159 0 
L 581 0 
L 581 3500 
L 1159 3500 
L 1159 2956 
Q 1356 3278 1631 3431 
Q 1906 3584 2284 3584 
Q 2666 3584 2933 3390 
Q 3200 3197 3328 2828 
z
" transform="scale(0.015625)"/>
       <path id="DejaVuSans-63" d="M 3122 3366 
L 3122 2828 
Q 2878 2963 2633 3030 
Q 2388 3097 2138 3097 
Q 1578 3097 1268 2742 
Q 959 2388 959 1747 
Q 959 1106 1268 751 
Q 1578 397 2138 397 
Q 2388 397 2633 464 
Q 2878 531 3122 666 
L 3122 134 
Q 2881 22 2623 -34 
Q 2366 -91 2075 -91 
Q 1284 -91 818 406 
Q 353 903 353 1747 
Q 353 2603 823 3093 
Q 1294 3584 2113 3584 
Q 2378 3584 2631 3529 
Q 2884 3475 3122 3366 
z
" transform="scale(0.015625)"/>
      </defs>
      <use xlink:href="#DejaVuSans-4c"/>
      <use xlink:href="#DejaVuSans-6f" x="53.962891"/>
      <use xlink:href="#DejaVuSans-67" x="115.144531"/>
      <use xlink:href="#DejaVuSans-31" x="178.621094"/>
      <use xlink:href="#DejaVuSans-30" x="242.244141"/>
      <use xlink:href="#DejaVuSans-20" x="305.867188"/>
      <use xlink:href="#DejaVuSans-49" x="337.654297"/>
      <use xlink:href="#DejaVuSans-46" x="367.146484"/>
      <use xlink:href="#DejaVuSans-4e" x="424.666016"/>
      <use xlink:href="#DejaVuSans-3b1" x="499.470703"/>
      <use xlink:href="#DejaVuSans-32" x="565.388672"/>
      <use xlink:href="#DejaVuSans-2e" x="629.011719"/>
      <use xlink:href="#DejaVuSans-50" x="660.798828"/>
      <use xlink:href="#DejaVuSans-20" x="721.101562"/>
      <use xlink:href="#DejaVuSans-52" x="752.888672"/>
      <use xlink:href="#DejaVuSans-65" x="817.871094"/>
      <use xlink:href="#DejaVuSans-6c" x="879.394531"/>
      <use xlink:href="#DejaVuSans-61" x="907.177734"/>
      <use xlink:href="#DejaVuSans-74" x="968.457031"/>
      <use xlink:href="#DejaVuSans-69" x="1007.666016"/>
      <use xlink:href="#DejaVuSans-76" x="1035.449219"/>
      <use xlink:href="#DejaVuSans-65" x="1094.628906"/>
      <use xlink:href="#DejaVuSans-20" x="1156.152344"/>
      <use xlink:href="#DejaVuSans-4c" x="1187.939453"/>
      <use xlink:href="#DejaVuSans-75" x="1241.902344"/>
      <use xlink:href="#DejaVuSans-6d" x="1305.28125"/>
      <use xlink:href="#DejaVuSans-69" x="1402.693359"/>
      <use xlink:href="#DejaVuSans-6e" x="1430.476562"/>
      <use xlink:href="#DejaVuSans-65" x="1493.855469"/>
      <use xlink:href="#DejaVuSans-73" x="1555.378906"/>
      <use xlink:href="#DejaVuSans-63" x="1607.478516"/>
      <use xlink:href="#DejaVuSans-65" x="1662.458984"/>
      <use xlink:href="#DejaVuSans-6e" x="1723.982422"/>
      <use xlink:href="#DejaVuSans-63" x="1787.361328"/>
      <use xlink:href="#DejaVuSans-65" x="1842.341797"/>
     </g>
    </g>
   </g>
   <g id="LineCollection_1">
    <path d="M 115.363636 213.00197 
L 147.068182 213.00197 
" clip-path="url(#pc17e17e324)" style="fill: none; stroke: #000000; stroke-width: 1.5"/>
   </g>
   <g id="LineCollection_2">
    <path d="M 273.886364 215.976328 
L 305.590909 215.976328 
" clip-path="url(#pc17e17e324)" style="fill: none; stroke: #000000; stroke-width: 1.5"/>
   </g>
   <g id="LineCollection_3">
    <path d="M 432.409091 175.173231 
L 464.113636 175.173231 
" clip-path="url(#pc17e17e324)" style="fill: none; stroke: #000000; stroke-width: 1.5"/>
   </g>
   <g id="LineCollection_4">
    <path d="M 590.931818 161.086415 
L 622.636364 161.086415 
" clip-path="url(#pc17e17e324)" style="fill: none; stroke: #000000; stroke-width: 1.5"/>
   </g>
   <g id="patch_3">
    <path d="M 90 384.48 
L 90 51.84 
" style="fill: none; stroke: #000000; stroke-width: 0.8; stroke-linejoin: miter; stroke-linecap: square"/>
   </g>
   <g id="patch_4">
    <path d="M 90 384.48 
L 648 384.48 
" style="fill: none; stroke: #000000; stroke-width: 0.8; stroke-linejoin: miter; stroke-linecap: square"/>
   </g>
   <g id="LineCollection_5">
    <path d="M 131.215909 275.273659 
L 131.215909 150.730282 
" clip-path="url(#pc17e17e324)" style="fill: none; stroke: #000000; stroke-width: 2"/>
   </g>
   <g id="line2d_10">
    <defs>
     <path id="mc25a629743" d="M 10 0 
L -10 -0 
" style="stroke: #000000; stroke-width: 2"/>
    </defs>
    <g clip-path="url(#pc17e17e324)">
     <use xlink:href="#mc25a629743" x="131.215909" y="275.273659" style="stroke: #000000; stroke-width: 2"/>
    </g>
   </g>
   <g id="line2d_11">
    <g clip-path="url(#pc17e17e324)">
     <use xlink:href="#mc25a629743" x="131.215909" y="150.730282" style="stroke: #000000; stroke-width: 2"/>
    </g>
   </g>
   <g id="LineCollection_6">
    <path d="M 289.738636 275.64508 
L 289.738636 156.307576 
" clip-path="url(#pc17e17e324)" style="fill: none; stroke: #000000; stroke-width: 2"/>
   </g>
   <g id="line2d_12">
    <g clip-path="url(#pc17e17e324)">
     <use xlink:href="#mc25a629743" x="289.738636" y="275.64508" style="stroke: #000000; stroke-width: 2"/>
    </g>
   </g>
   <g id="line2d_13">
    <g clip-path="url(#pc17e17e324)">
     <use xlink:href="#mc25a629743" x="289.738636" y="156.307576" style="stroke: #000000; stroke-width: 2"/>
    </g>
   </g>
   <g id="LineCollection_7">
    <path d="M 448.261364 206.393271 
L 448.261364 143.953192 
" clip-path="url(#pc17e17e324)" style="fill: none; stroke: #000000; stroke-width: 2"/>
   </g>
   <g id="line2d_14">
    <g clip-path="url(#pc17e17e324)">
     <use xlink:href="#mc25a629743" x="448.261364" y="206.393271" style="stroke: #000000; stroke-width: 2"/>
    </g>
   </g>
   <g id="line2d_15">
    <g clip-path="url(#pc17e17e324)">
     <use xlink:href="#mc25a629743" x="448.261364" y="143.953192" style="stroke: #000000; stroke-width: 2"/>
    </g>
   </g>
   <g id="LineCollection_8">
    <path d="M 606.784091 197.468692 
L 606.784091 124.704138 
" clip-path="url(#pc17e17e324)" style="fill: none; stroke: #000000; stroke-width: 2"/>
   </g>
   <g id="line2d_16">
    <g clip-path="url(#pc17e17e324)">
     <use xlink:href="#mc25a629743" x="606.784091" y="197.468692" style="stroke: #000000; stroke-width: 2"/>
    </g>
   </g>
   <g id="line2d_17">
    <g clip-path="url(#pc17e17e324)">
     <use xlink:href="#mc25a629743" x="606.784091" y="124.704138" style="stroke: #000000; stroke-width: 2"/>
    </g>
   </g>
   <g id="text_11">
    <!-- IFNα2.P by Sex -->
    <g transform="translate(323.871562 45.84) scale(0.12 -0.12)">
     <defs>
      <path id="DejaVuSans-62" d="M 3116 1747 
Q 3116 2381 2855 2742 
Q 2594 3103 2138 3103 
Q 1681 3103 1420 2742 
Q 1159 2381 1159 1747 
Q 1159 1113 1420 752 
Q 1681 391 2138 391 
Q 2594 391 2855 752 
Q 3116 1113 3116 1747 
z
M 1159 2969 
Q 1341 3281 1617 3432 
Q 1894 3584 2278 3584 
Q 2916 3584 3314 3078 
Q 3713 2572 3713 1747 
Q 3713 922 3314 415 
Q 2916 -91 2278 -91 
Q 1894 -91 1617 61 
Q 1341 213 1159 525 
L 1159 0 
L 581 0 
L 581 4863 
L 1159 4863 
L 1159 2969 
z
" transform="scale(0.015625)"/>
      <path id="DejaVuSans-79" d="M 2059 -325 
Q 1816 -950 1584 -1140 
Q 1353 -1331 966 -1331 
L 506 -1331 
L 506 -850 
L 844 -850 
Q 1081 -850 1212 -737 
Q 1344 -625 1503 -206 
L 1606 56 
L 191 3500 
L 800 3500 
L 1894 763 
L 2988 3500 
L 3597 3500 
L 2059 -325 
z
" transform="scale(0.015625)"/>
      <path id="DejaVuSans-53" d="M 3425 4513 
L 3425 3897 
Q 3066 4069 2747 4153 
Q 2428 4238 2131 4238 
Q 1616 4238 1336 4038 
Q 1056 3838 1056 3469 
Q 1056 3159 1242 3001 
Q 1428 2844 1947 2747 
L 2328 2669 
Q 3034 2534 3370 2195 
Q 3706 1856 3706 1288 
Q 3706 609 3251 259 
Q 2797 -91 1919 -91 
Q 1588 -91 1214 -16 
Q 841 59 441 206 
L 441 856 
Q 825 641 1194 531 
Q 1563 422 1919 422 
Q 2459 422 2753 634 
Q 3047 847 3047 1241 
Q 3047 1584 2836 1778 
Q 2625 1972 2144 2069 
L 1759 2144 
Q 1053 2284 737 2584 
Q 422 2884 422 3419 
Q 422 4038 858 4394 
Q 1294 4750 2059 4750 
Q 2388 4750 2728 4690 
Q 3069 4631 3425 4513 
z
" transform="scale(0.015625)"/>
      <path id="DejaVuSans-78" d="M 3513 3500 
L 2247 1797 
L 3578 0 
L 2900 0 
L 1881 1375 
L 863 0 
L 184 0 
L 1544 1831 
L 300 3500 
L 978 3500 
L 1906 2253 
L 2834 3500 
L 3513 3500 
z
" transform="scale(0.015625)"/>
     </defs>
     <use xlink:href="#DejaVuSans-49"/>
     <use xlink:href="#DejaVuSans-46" x="29.492188"/>
     <use xlink:href="#DejaVuSans-4e" x="87.011719"/>
     <use xlink:href="#DejaVuSans-3b1" x="161.816406"/>
     <use xlink:href="#DejaVuSans-32" x="227.734375"/>
     <use xlink:href="#DejaVuSans-2e" x="291.357422"/>
     <use xlink:href="#DejaVuSans-50" x="323.144531"/>
     <use xlink:href="#DejaVuSans-20" x="383.447266"/>
     <use xlink:href="#DejaVuSans-62" x="415.234375"/>
     <use xlink:href="#DejaVuSans-79" x="478.710938"/>
     <use xlink:href="#DejaVuSans-20" x="537.890625"/>
     <use xlink:href="#DejaVuSans-53" x="569.677734"/>
     <use xlink:href="#DejaVuSans-65" x="633.154297"/>
     <use xlink:href="#DejaVuSans-78" x="692.927734"/>
    </g>
   </g>
   <g id="legend_1">
    <g id="patch_5">
     <path d="M 532.129688 379.48 
L 641 379.48 
Q 643 379.48 643 377.48 
L 643 319.7675 
Q 643 317.7675 641 317.7675 
L 532.129688 317.7675 
Q 530.129688 317.7675 530.129688 319.7675 
L 530.129688 377.48 
Q 530.129688 379.48 532.129688 379.48 
z
" style="fill: #ffffff; opacity: 0.8; stroke: #cccccc; stroke-linejoin: miter"/>
    </g>
    <g id="line2d_18">
     <path d="M 534.129688 325.865937 
L 544.129688 325.865937 
L 554.129688 325.865937 
" style="fill: none; stroke: #ffffff; stroke-width: 1.5; stroke-linecap: square"/>
     <defs>
      <path id="mece6ef7f86" d="M 0 5 
C 1.326016 5 2.597899 4.473168 3.535534 3.535534 
C 4.473168 2.597899 5 1.326016 5 0 
C 5 -1.326016 4.473168 -2.597899 3.535534 -3.535534 
C 2.597899 -4.473168 1.326016 -5 0 -5 
C -1.326016 -5 -2.597899 -4.473168 -3.535534 -3.535534 
C -4.473168 -2.597899 -5 -1.326016 -5 0 
C -5 1.326016 -4.473168 2.597899 -3.535534 3.535534 
C -2.597899 4.473168 -1.326016 5 0 5 
z
" style="stroke: #000000"/>
     </defs>
     <g>
      <use xlink:href="#mece6ef7f86" x="544.129688" y="325.865937" style="fill: #808080; stroke: #000000"/>
     </g>
    </g>
    <g id="text_12">
     <!-- Cohort FLU09 -->
     <g transform="translate(562.129688 329.365937) scale(0.1 -0.1)">
      <defs>
       <path id="DejaVuSans-43" d="M 4122 4306 
L 4122 3641 
Q 3803 3938 3442 4084 
Q 3081 4231 2675 4231 
Q 1875 4231 1450 3742 
Q 1025 3253 1025 2328 
Q 1025 1406 1450 917 
Q 1875 428 2675 428 
Q 3081 428 3442 575 
Q 3803 722 4122 1019 
L 4122 359 
Q 3791 134 3420 21 
Q 3050 -91 2638 -91 
Q 1578 -91 968 557 
Q 359 1206 359 2328 
Q 359 3453 968 4101 
Q 1578 4750 2638 4750 
Q 3056 4750 3426 4639 
Q 3797 4528 4122 4306 
z
" transform="scale(0.015625)"/>
       <path id="DejaVuSans-68" d="M 3513 2113 
L 3513 0 
L 2938 0 
L 2938 2094 
Q 2938 2591 2744 2837 
Q 2550 3084 2163 3084 
Q 1697 3084 1428 2787 
Q 1159 2491 1159 1978 
L 1159 0 
L 581 0 
L 581 4863 
L 1159 4863 
L 1159 2956 
Q 1366 3272 1645 3428 
Q 1925 3584 2291 3584 
Q 2894 3584 3203 3211 
Q 3513 2838 3513 2113 
z
" transform="scale(0.015625)"/>
       <path id="DejaVuSans-72" d="M 2631 2963 
Q 2534 3019 2420 3045 
Q 2306 3072 2169 3072 
Q 1681 3072 1420 2755 
Q 1159 2438 1159 1844 
L 1159 0 
L 581 0 
L 581 3500 
L 1159 3500 
L 1159 2956 
Q 1341 3275 1631 3429 
Q 1922 3584 2338 3584 
Q 2397 3584 2469 3576 
Q 2541 3569 2628 3553 
L 2631 2963 
z
" transform="scale(0.015625)"/>
      </defs>
      <use xlink:href="#DejaVuSans-43"/>
      <use xlink:href="#DejaVuSans-6f" x="69.824219"/>
      <use xlink:href="#DejaVuSans-68" x="131.005859"/>
      <use xlink:href="#DejaVuSans-6f" x="194.384766"/>
      <use xlink:href="#DejaVuSans-72" x="255.566406"/>
      <use xlink:href="#DejaVuSans-74" x="296.679688"/>
      <use xlink:href="#DejaVuSans-20" x="335.888672"/>
      <use xlink:href="#DejaVuSans-46" x="367.675781"/>
      <use xlink:href="#DejaVuSans-4c" x="425.195312"/>
      <use xlink:href="#DejaVuSans-55" x="475.908203"/>
      <use xlink:href="#DejaVuSans-30" x="549.101562"/>
      <use xlink:href="#DejaVuSans-39" x="612.724609"/>
     </g>
    </g>
    <g id="line2d_19">
     <path d="M 534.129688 340.544062 
L 544.129688 340.544062 
L 554.129688 340.544062 
" style="fill: none; stroke: #ffffff; stroke-width: 1.5; stroke-linecap: square"/>
     <defs>
      <path id="mfe95088cfe" d="M 0 -5 
L -5 5 
L 5 5 
z
" style="stroke: #000000; stroke-linejoin: miter"/>
     </defs>
     <g>
      <use xlink:href="#mfe95088cfe" x="544.129688" y="340.544062" style="fill: #808080; stroke: #000000; stroke-linejoin: miter"/>
     </g>
    </g>
    <g id="text_13">
     <!-- Cohort Hopkins -->
     <g transform="translate(562.129688 344.044062) scale(0.1 -0.1)">
      <use xlink:href="#DejaVuSans-43"/>
      <use xlink:href="#DejaVuSans-6f" x="69.824219"/>
      <use xlink:href="#DejaVuSans-68" x="131.005859"/>
      <use xlink:href="#DejaVuSans-6f" x="194.384766"/>
      <use xlink:href="#DejaVuSans-72" x="255.566406"/>
      <use xlink:href="#DejaVuSans-74" x="296.679688"/>
      <use xlink:href="#DejaVuSans-20" x="335.888672"/>
      <use xlink:href="#DejaVuSans-48" x="367.675781"/>
      <use xlink:href="#DejaVuSans-6f" x="442.871094"/>
      <use xlink:href="#DejaVuSans-70" x="504.052734"/>
      <use xlink:href="#DejaVuSans-6b" x="567.529297"/>
      <use xlink:href="#DejaVuSans-69" x="625.439453"/>
      <use xlink:href="#DejaVuSans-6e" x="653.222656"/>
      <use xlink:href="#DejaVuSans-73" x="716.601562"/>
     </g>
    </g>
    <g id="line2d_20">
     <path d="M 534.129688 355.222188 
L 544.129688 355.222188 
L 554.129688 355.222188 
" style="fill: none; stroke: #008000; stroke-width: 4; stroke-linecap: square"/>
    </g>
    <g id="text_14">
     <!-- Male -->
     <g transform="translate(562.129688 358.722188) scale(0.1 -0.1)">
      <defs>
       <path id="DejaVuSans-4d" d="M 628 4666 
L 1569 4666 
L 2759 1491 
L 3956 4666 
L 4897 4666 
L 4897 0 
L 4281 0 
L 4281 4097 
L 3078 897 
L 2444 897 
L 1241 4097 
L 1241 0 
L 628 0 
L 628 4666 
z
" transform="scale(0.015625)"/>
      </defs>
      <use xlink:href="#DejaVuSans-4d"/>
      <use xlink:href="#DejaVuSans-61" x="86.279297"/>
      <use xlink:href="#DejaVuSans-6c" x="147.558594"/>
      <use xlink:href="#DejaVuSans-65" x="175.341797"/>
     </g>
    </g>
    <g id="line2d_21">
     <path d="M 534.129688 369.900312 
L 544.129688 369.900312 
L 554.129688 369.900312 
" style="fill: none; stroke: #800080; stroke-width: 4; stroke-linecap: square"/>
    </g>
    <g id="text_15">
     <!-- Female -->
     <g transform="translate(562.129688 373.400312) scale(0.1 -0.1)">
      <use xlink:href="#DejaVuSans-46"/>
      <use xlink:href="#DejaVuSans-65" x="52.019531"/>
      <use xlink:href="#DejaVuSans-6d" x="113.542969"/>
      <use xlink:href="#DejaVuSans-61" x="210.955078"/>
      <use xlink:href="#DejaVuSans-6c" x="272.234375"/>
      <use xlink:href="#DejaVuSans-65" x="300.017578"/>
     </g>
    </g>
   </g>
  </g>
 </g>
 <defs>
  <clipPath id="pc17e17e324">
   <rect x="90" y="51.84" width="558" height="332.64"/>
  </clipPath>
 </defs>
</svg>
