<?xml version="1.0" encoding="utf-8" standalone="no"?>
<!DOCTYPE svg PUBLIC "-//W3C//DTD SVG 1.1//EN"
  "http://www.w3.org/Graphics/SVG/1.1/DTD/svg11.dtd">
<svg xmlns:xlink="http://www.w3.org/1999/xlink" width="720pt" height="432pt" viewBox="0 0 720 432" xmlns="http://www.w3.org/2000/svg" version="1.1">
 <metadata>
  <rdf:RDF xmlns:dc="http://purl.org/dc/elements/1.1/" xmlns:cc="http://creativecommons.org/ns#" xmlns:rdf="http://www.w3.org/1999/02/22-rdf-syntax-ns#">
   <cc:Work>
    <dc:type rdf:resource="http://purl.org/dc/dcmitype/StillImage"/>
    <dc:date>2025-02-05T18:03:26.378862</dc:date>
    <dc:format>image/svg+xml</dc:format>
    <dc:creator>
     <cc:Agent>
      <dc:title>Matplotlib v3.10.0, https://matplotlib.org/</dc:title>
     </cc:Agent>
    </dc:creator>
   </cc:Work>
  </rdf:RDF>
 </metadata>
 <defs>
  <style type="text/css">*{stroke-linejoin: round; stroke-linecap: butt}</style>
 </defs>
 <g id="figure_1">
  <g id="patch_1">
   <path d="M 0 432 
L 720 432 
L 720 0 
L 0 0 
z
" style="fill: #ffffff"/>
  </g>
  <g id="axes_1">
   <g id="patch_2">
    <path d="M 90 384.48 
L 648 384.48 
L 648 51.84 
L 90 51.84 
z
" style="fill: #ffffff"/>
   </g>
   <g id="matplotlib.axis_1">
    <g id="xtick_1">
     <g id="text_1">
      <!-- −1.00 -->
      <g style="fill: #262626" transform="translate(76.084141 401.853594) scale(0.11 -0.11)">
       <defs>
        <path id="ArialMT-2212" d="M 3381 1997 
L 356 1997 
L 356 2522 
L 3381 2522 
L 3381 1997 
z
" transform="scale(0.015625)"/>
        <path id="ArialMT-31" d="M 2384 0 
L 1822 0 
L 1822 3584 
Q 1619 3391 1289 3197 
Q 959 3003 697 2906 
L 697 3450 
Q 1169 3672 1522 3987 
Q 1875 4303 2022 4600 
L 2384 4600 
L 2384 0 
z
" transform="scale(0.015625)"/>
        <path id="ArialMT-2e" d="M 581 0 
L 581 641 
L 1222 641 
L 1222 0 
L 581 0 
z
" transform="scale(0.015625)"/>
        <path id="ArialMT-30" d="M 266 2259 
Q 266 3072 433 3567 
Q 600 4063 929 4331 
Q 1259 4600 1759 4600 
Q 2128 4600 2406 4451 
Q 2684 4303 2865 4023 
Q 3047 3744 3150 3342 
Q 3253 2941 3253 2259 
Q 3253 1453 3087 958 
Q 2922 463 2592 192 
Q 2263 -78 1759 -78 
Q 1097 -78 719 397 
Q 266 969 266 2259 
z
M 844 2259 
Q 844 1131 1108 757 
Q 1372 384 1759 384 
Q 2147 384 2411 759 
Q 2675 1134 2675 2259 
Q 2675 3391 2411 3762 
Q 2147 4134 1753 4134 
Q 1366 4134 1134 3806 
Q 844 3388 844 2259 
z
" transform="scale(0.015625)"/>
       </defs>
       <use xlink:href="#ArialMT-2212"/>
       <use xlink:href="#ArialMT-31" transform="translate(58.398438 0)"/>
       <use xlink:href="#ArialMT-2e" transform="translate(114.013672 0)"/>
       <use xlink:href="#ArialMT-30" transform="translate(141.796875 0)"/>
       <use xlink:href="#ArialMT-30" transform="translate(197.412109 0)"/>
      </g>
     </g>
    </g>
    <g id="xtick_2">
     <g id="text_2">
      <!-- −0.75 -->
      <g style="fill: #262626" transform="translate(145.834141 401.853594) scale(0.11 -0.11)">
       <defs>
        <path id="ArialMT-37" d="M 303 3981 
L 303 4522 
L 3269 4522 
L 3269 4084 
Q 2831 3619 2401 2847 
Q 1972 2075 1738 1259 
Q 1569 684 1522 0 
L 944 0 
Q 953 541 1156 1306 
Q 1359 2072 1739 2783 
Q 2119 3494 2547 3981 
L 303 3981 
z
" transform="scale(0.015625)"/>
        <path id="ArialMT-35" d="M 266 1200 
L 856 1250 
Q 922 819 1161 601 
Q 1400 384 1738 384 
Q 2144 384 2425 690 
Q 2706 997 2706 1503 
Q 2706 1984 2436 2262 
Q 2166 2541 1728 2541 
Q 1456 2541 1237 2417 
Q 1019 2294 894 2097 
L 366 2166 
L 809 4519 
L 3088 4519 
L 3088 3981 
L 1259 3981 
L 1013 2750 
Q 1425 3038 1878 3038 
Q 2478 3038 2890 2622 
Q 3303 2206 3303 1553 
Q 3303 931 2941 478 
Q 2500 -78 1738 -78 
Q 1113 -78 717 272 
Q 322 622 266 1200 
z
" transform="scale(0.015625)"/>
       </defs>
       <use xlink:href="#ArialMT-2212"/>
       <use xlink:href="#ArialMT-30" transform="translate(58.398438 0)"/>
       <use xlink:href="#ArialMT-2e" transform="translate(114.013672 0)"/>
       <use xlink:href="#ArialMT-37" transform="translate(141.796875 0)"/>
       <use xlink:href="#ArialMT-35" transform="translate(197.412109 0)"/>
      </g>
     </g>
    </g>
    <g id="xtick_3">
     <g id="text_3">
      <!-- −0.50 -->
      <g style="fill: #262626" transform="translate(215.584141 401.853594) scale(0.11 -0.11)">
       <use xlink:href="#ArialMT-2212"/>
       <use xlink:href="#ArialMT-30" transform="translate(58.398438 0)"/>
       <use xlink:href="#ArialMT-2e" transform="translate(114.013672 0)"/>
       <use xlink:href="#ArialMT-35" transform="translate(141.796875 0)"/>
       <use xlink:href="#ArialMT-30" transform="translate(197.412109 0)"/>
      </g>
     </g>
    </g>
    <g id="xtick_4">
     <g id="text_4">
      <!-- −0.25 -->
      <g style="fill: #262626" transform="translate(285.334141 401.853594) scale(0.11 -0.11)">
       <defs>
        <path id="ArialMT-32" d="M 3222 541 
L 3222 0 
L 194 0 
Q 188 203 259 391 
Q 375 700 629 1000 
Q 884 1300 1366 1694 
Q 2113 2306 2375 2664 
Q 2638 3022 2638 3341 
Q 2638 3675 2398 3904 
Q 2159 4134 1775 4134 
Q 1369 4134 1125 3890 
Q 881 3647 878 3216 
L 300 3275 
Q 359 3922 746 4261 
Q 1134 4600 1788 4600 
Q 2447 4600 2831 4234 
Q 3216 3869 3216 3328 
Q 3216 3053 3103 2787 
Q 2991 2522 2730 2228 
Q 2469 1934 1863 1422 
Q 1356 997 1212 845 
Q 1069 694 975 541 
L 3222 541 
z
" transform="scale(0.015625)"/>
       </defs>
       <use xlink:href="#ArialMT-2212"/>
       <use xlink:href="#ArialMT-30" transform="translate(58.398438 0)"/>
       <use xlink:href="#ArialMT-2e" transform="translate(114.013672 0)"/>
       <use xlink:href="#ArialMT-32" transform="translate(141.796875 0)"/>
       <use xlink:href="#ArialMT-35" transform="translate(197.412109 0)"/>
      </g>
     </g>
    </g>
    <g id="xtick_5">
     <g id="text_5">
      <!-- 0.00 -->
      <g style="fill: #262626" transform="translate(358.296484 401.853594) scale(0.11 -0.11)">
       <use xlink:href="#ArialMT-30"/>
       <use xlink:href="#ArialMT-2e" transform="translate(55.615234 0)"/>
       <use xlink:href="#ArialMT-30" transform="translate(83.398438 0)"/>
       <use xlink:href="#ArialMT-30" transform="translate(139.013672 0)"/>
      </g>
     </g>
    </g>
    <g id="xtick_6">
     <g id="text_6">
      <!-- 0.25 -->
      <g style="fill: #262626" transform="translate(428.046484 401.853594) scale(0.11 -0.11)">
       <use xlink:href="#ArialMT-30"/>
       <use xlink:href="#ArialMT-2e" transform="translate(55.615234 0)"/>
       <use xlink:href="#ArialMT-32" transform="translate(83.398438 0)"/>
       <use xlink:href="#ArialMT-35" transform="translate(139.013672 0)"/>
      </g>
     </g>
    </g>
    <g id="xtick_7">
     <g id="text_7">
      <!-- 0.50 -->
      <g style="fill: #262626" transform="translate(497.796484 401.853594) scale(0.11 -0.11)">
       <use xlink:href="#ArialMT-30"/>
       <use xlink:href="#ArialMT-2e" transform="translate(55.615234 0)"/>
       <use xlink:href="#ArialMT-35" transform="translate(83.398438 0)"/>
       <use xlink:href="#ArialMT-30" transform="translate(139.013672 0)"/>
      </g>
     </g>
    </g>
    <g id="xtick_8">
     <g id="text_8">
      <!-- 0.75 -->
      <g style="fill: #262626" transform="translate(567.546484 401.853594) scale(0.11 -0.11)">
       <use xlink:href="#ArialMT-30"/>
       <use xlink:href="#ArialMT-2e" transform="translate(55.615234 0)"/>
       <use xlink:href="#ArialMT-37" transform="translate(83.398438 0)"/>
       <use xlink:href="#ArialMT-35" transform="translate(139.013672 0)"/>
      </g>
     </g>
    </g>
    <g id="xtick_9">
     <g id="text_9">
      <!-- 1.00 -->
      <g style="fill: #262626" transform="translate(637.296484 401.853594) scale(0.11 -0.11)">
       <use xlink:href="#ArialMT-31"/>
       <use xlink:href="#ArialMT-2e" transform="translate(55.615234 0)"/>
       <use xlink:href="#ArialMT-30" transform="translate(83.398438 0)"/>
       <use xlink:href="#ArialMT-30" transform="translate(139.013672 0)"/>
      </g>
     </g>
    </g>
    <g id="text_10">
     <!-- PC1 -->
     <g style="fill: #262626" transform="translate(353.4375 419.492344) scale(0.16 -0.16)">
      <defs>
       <path id="ArialMT-50" d="M 494 0 
L 494 4581 
L 2222 4581 
Q 2678 4581 2919 4538 
Q 3256 4481 3484 4323 
Q 3713 4166 3852 3881 
Q 3991 3597 3991 3256 
Q 3991 2672 3619 2267 
Q 3247 1863 2275 1863 
L 1100 1863 
L 1100 0 
L 494 0 
z
M 1100 2403 
L 2284 2403 
Q 2872 2403 3119 2622 
Q 3366 2841 3366 3238 
Q 3366 3525 3220 3729 
Q 3075 3934 2838 4000 
Q 2684 4041 2272 4041 
L 1100 4041 
L 1100 2403 
z
" transform="scale(0.015625)"/>
       <path id="ArialMT-43" d="M 3763 1606 
L 4369 1453 
Q 4178 706 3683 314 
Q 3188 -78 2472 -78 
Q 1731 -78 1267 223 
Q 803 525 561 1097 
Q 319 1669 319 2325 
Q 319 3041 592 3573 
Q 866 4106 1370 4382 
Q 1875 4659 2481 4659 
Q 3169 4659 3637 4309 
Q 4106 3959 4291 3325 
L 3694 3184 
Q 3534 3684 3231 3912 
Q 2928 4141 2469 4141 
Q 1941 4141 1586 3887 
Q 1231 3634 1087 3207 
Q 944 2781 944 2328 
Q 944 1744 1114 1308 
Q 1284 872 1643 656 
Q 2003 441 2422 441 
Q 2931 441 3284 734 
Q 3638 1028 3763 1606 
z
" transform="scale(0.015625)"/>
      </defs>
      <use xlink:href="#ArialMT-50"/>
      <use xlink:href="#ArialMT-43" transform="translate(66.699219 0)"/>
      <use xlink:href="#ArialMT-31" transform="translate(138.916016 0)"/>
     </g>
    </g>
   </g>
   <g id="matplotlib.axis_2">
    <g id="ytick_1">
     <g id="text_11">
      <!-- −1.00 -->
      <g style="fill: #262626" transform="translate(52.668281 388.416797) scale(0.11 -0.11)">
       <use xlink:href="#ArialMT-2212"/>
       <use xlink:href="#ArialMT-31" transform="translate(58.398438 0)"/>
       <use xlink:href="#ArialMT-2e" transform="translate(114.013672 0)"/>
       <use xlink:href="#ArialMT-30" transform="translate(141.796875 0)"/>
       <use xlink:href="#ArialMT-30" transform="translate(197.412109 0)"/>
      </g>
     </g>
    </g>
    <g id="ytick_2">
     <g id="text_12">
      <!-- −0.75 -->
      <g style="fill: #262626" transform="translate(52.668281 346.836797) scale(0.11 -0.11)">
       <use xlink:href="#ArialMT-2212"/>
       <use xlink:href="#ArialMT-30" transform="translate(58.398438 0)"/>
       <use xlink:href="#ArialMT-2e" transform="translate(114.013672 0)"/>
       <use xlink:href="#ArialMT-37" transform="translate(141.796875 0)"/>
       <use xlink:href="#ArialMT-35" transform="translate(197.412109 0)"/>
      </g>
     </g>
    </g>
    <g id="ytick_3">
     <g id="text_13">
      <!-- −0.50 -->
      <g style="fill: #262626" transform="translate(52.668281 305.256797) scale(0.11 -0.11)">
       <use xlink:href="#ArialMT-2212"/>
       <use xlink:href="#ArialMT-30" transform="translate(58.398438 0)"/>
       <use xlink:href="#ArialMT-2e" transform="translate(114.013672 0)"/>
       <use xlink:href="#ArialMT-35" transform="translate(141.796875 0)"/>
       <use xlink:href="#ArialMT-30" transform="translate(197.412109 0)"/>
      </g>
     </g>
    </g>
    <g id="ytick_4">
     <g id="text_14">
      <!-- −0.25 -->
      <g style="fill: #262626" transform="translate(52.668281 263.676797) scale(0.11 -0.11)">
       <use xlink:href="#ArialMT-2212"/>
       <use xlink:href="#ArialMT-30" transform="translate(58.398438 0)"/>
       <use xlink:href="#ArialMT-2e" transform="translate(114.013672 0)"/>
       <use xlink:href="#ArialMT-32" transform="translate(141.796875 0)"/>
       <use xlink:href="#ArialMT-35" transform="translate(197.412109 0)"/>
      </g>
     </g>
    </g>
    <g id="ytick_5">
     <g id="text_15">
      <!-- 0.00 -->
      <g style="fill: #262626" transform="translate(59.092969 222.096797) scale(0.11 -0.11)">
       <use xlink:href="#ArialMT-30"/>
       <use xlink:href="#ArialMT-2e" transform="translate(55.615234 0)"/>
       <use xlink:href="#ArialMT-30" transform="translate(83.398438 0)"/>
       <use xlink:href="#ArialMT-30" transform="translate(139.013672 0)"/>
      </g>
     </g>
    </g>
    <g id="ytick_6">
     <g id="text_16">
      <!-- 0.25 -->
      <g style="fill: #262626" transform="translate(59.092969 180.516797) scale(0.11 -0.11)">
       <use xlink:href="#ArialMT-30"/>
       <use xlink:href="#ArialMT-2e" transform="translate(55.615234 0)"/>
       <use xlink:href="#ArialMT-32" transform="translate(83.398438 0)"/>
       <use xlink:href="#ArialMT-35" transform="translate(139.013672 0)"/>
      </g>
     </g>
    </g>
    <g id="ytick_7">
     <g id="text_17">
      <!-- 0.50 -->
      <g style="fill: #262626" transform="translate(59.092969 138.936797) scale(0.11 -0.11)">
       <use xlink:href="#ArialMT-30"/>
       <use xlink:href="#ArialMT-2e" transform="translate(55.615234 0)"/>
       <use xlink:href="#ArialMT-35" transform="translate(83.398438 0)"/>
       <use xlink:href="#ArialMT-30" transform="translate(139.013672 0)"/>
      </g>
     </g>
    </g>
    <g id="ytick_8">
     <g id="text_18">
      <!-- 0.75 -->
      <g style="fill: #262626" transform="translate(59.092969 97.356797) scale(0.11 -0.11)">
       <use xlink:href="#ArialMT-30"/>
       <use xlink:href="#ArialMT-2e" transform="translate(55.615234 0)"/>
       <use xlink:href="#ArialMT-37" transform="translate(83.398438 0)"/>
       <use xlink:href="#ArialMT-35" transform="translate(139.013672 0)"/>
      </g>
     </g>
    </g>
    <g id="ytick_9">
     <g id="text_19">
      <!-- 1.00 -->
      <g style="fill: #262626" transform="translate(59.092969 55.776797) scale(0.11 -0.11)">
       <use xlink:href="#ArialMT-31"/>
       <use xlink:href="#ArialMT-2e" transform="translate(55.615234 0)"/>
       <use xlink:href="#ArialMT-30" transform="translate(83.398438 0)"/>
       <use xlink:href="#ArialMT-30" transform="translate(139.013672 0)"/>
      </g>
     </g>
    </g>
    <g id="text_20">
     <!-- PC2 -->
     <g style="fill: #262626" transform="translate(45.488281 233.7225) rotate(-90) scale(0.16 -0.16)">
      <use xlink:href="#ArialMT-50"/>
      <use xlink:href="#ArialMT-43" transform="translate(66.699219 0)"/>
      <use xlink:href="#ArialMT-32" transform="translate(138.916016 0)"/>
     </g>
    </g>
   </g>
   <g id="patch_3">
    <path d="M 310.411079 307.075592 
L 309.019246 297.815117 
L 315.381509 299.304923 
L 368.870158 218.129596 
L 369.129842 218.190404 
L 315.641193 299.365731 
L 322.003457 300.855537 
z
" clip-path="url(#pda01eef37b)" style="stroke: #000000; stroke-linejoin: miter"/>
   </g>
   <g id="patch_4">
    <path d="M 522.430444 233.221352 
L 507.532512 235.972908 
L 508.64315 231.952215 
L 368.977334 218.242055 
L 369.022666 218.077945 
L 508.688482 231.788105 
L 509.799121 227.767413 
z
" clip-path="url(#pda01eef37b)" style="stroke: #000000; stroke-linejoin: miter"/>
   </g>
   <g id="patch_5">
    <path d="M 405.86749 278.704915 
L 394.551151 272.306765 
L 400.976422 270.916371 
L 368.868872 218.188375 
L 369.131128 218.131625 
L 401.238678 270.85962 
L 407.663948 269.469226 
z
" clip-path="url(#pda01eef37b)" style="stroke: #000000; stroke-linejoin: miter"/>
   </g>
   <g id="patch_6">
    <path d="M 410.784592 249.354652 
L 396.629514 245.450717 
L 401.971042 242.908093 
L 368.890989 218.21189 
L 369.109011 218.10811 
L 402.189064 242.804313 
L 407.530592 240.261689 
z
" clip-path="url(#pda01eef37b)" style="stroke: #000000; stroke-linejoin: miter"/>
   </g>
   <g id="patch_7">
    <path d="M 418.396088 155.142858 
L 418.809655 164.43716 
L 412.616888 162.71212 
L 369.126383 218.195205 
L 368.873617 218.124795 
L 412.364122 162.64171 
L 406.171356 160.91667 
z
" clip-path="url(#pda01eef37b)" style="stroke: #000000; stroke-linejoin: miter"/>
   </g>
   <g id="patch_8">
    <path d="M 517.056867 180.05276 
L 507.014416 187.166513 
L 504.304905 183.425472 
L 369.055296 218.236348 
L 368.944704 218.083652 
L 504.194312 183.272776 
L 501.484802 179.531735 
z
" clip-path="url(#pda01eef37b)" style="stroke: #000000; stroke-linejoin: miter"/>
   </g>
   <g id="patch_9">
    <path d="M 411.594574 223.094354 
L 396.570193 225.589642 
L 397.87413 221.58963 
L 368.973389 218.241633 
L 369.026611 218.078367 
L 397.927352 221.426364 
L 399.23129 217.426351 
z
" clip-path="url(#pda01eef37b)" style="stroke: #000000; stroke-linejoin: miter"/>
   </g>
   <g id="patch_10">
    <path d="M 546.127466 213.784274 
L 532.478228 218.283031 
L 532.195205 214.211685 
L 369.005776 218.243089 
L 368.994224 218.076911 
L 532.183653 214.045508 
L 531.90063 209.974162 
z
" clip-path="url(#pda01eef37b)" style="stroke: #000000; stroke-linejoin: miter"/>
   </g>
   <g id="patch_11">
    <path d="M 417.351499 213.999371 
L 404.541093 219.302797 
L 403.564528 215.269757 
L 369.01993 218.242307 
L 368.98007 218.077693 
L 403.524668 215.105143 
L 402.548104 211.072103 
z
" clip-path="url(#pda01eef37b)" style="stroke: #000000; stroke-linejoin: miter"/>
   </g>
   <g id="patch_12">
    <path d="M 297.287954 95.554297 
L 308.466926 102.037696 
L 302.012522 103.379281 
L 369.131723 218.132621 
L 368.868277 218.187379 
L 301.749077 103.434039 
L 295.294672 104.775624 
z
" clip-path="url(#pda01eef37b)" style="stroke: #000000; stroke-linejoin: miter"/>
   </g>
   <g id="line2d_1">
    <path d="M 90 218.16 
L 648 218.16 
" clip-path="url(#pda01eef37b)" style="fill: none; stroke: #808080; stroke-linecap: round"/>
   </g>
   <g id="line2d_2">
    <path d="M 369 384.48 
L 369 51.84 
" clip-path="url(#pda01eef37b)" style="fill: none; stroke: #808080; stroke-linecap: round"/>
   </g>
   <g id="patch_13">
    <path d="M 90 384.48 
L 90 51.84 
" style="fill: none; stroke: #262626; stroke-width: 1.25; stroke-linejoin: miter; stroke-linecap: square"/>
   </g>
   <g id="patch_14">
    <path d="M 648 384.48 
L 648 51.84 
" style="fill: none; stroke: #262626; stroke-width: 1.25; stroke-linejoin: miter; stroke-linecap: square"/>
   </g>
   <g id="patch_15">
    <path d="M 90 384.48 
L 648 384.48 
" style="fill: none; stroke: #262626; stroke-width: 1.25; stroke-linejoin: miter; stroke-linecap: square"/>
   </g>
   <g id="patch_16">
    <path d="M 90 51.84 
L 648 51.84 
" style="fill: none; stroke: #262626; stroke-width: 1.25; stroke-linejoin: miter; stroke-linecap: square"/>
   </g>
   <g id="text_21">
    <path d="M 293.619189 323.765409 
L 293.619189 312.312909 
L 301.901689 312.312909 
L 301.901689 313.662909 
L 295.136689 313.662909 
L 295.136689 317.170409 
L 301.471689 317.170409 
L 301.471689 318.515409 
L 295.136689 318.515409 
L 295.136689 322.412909 
L 302.166689 322.412909 
L 302.166689 323.765409 
L 293.619189 323.765409 
z
M 303.691064 318.117909 
Q 303.691064 316.085409 304.108564 314.847909 
Q 304.526064 313.607909 305.348564 312.937909 
Q 306.173564 312.265409 307.423564 312.265409 
Q 308.346064 312.265409 309.041064 312.637909 
Q 309.736064 313.007909 310.188564 313.707909 
Q 310.643564 314.405409 310.901064 315.410409 
Q 311.158564 316.412909 311.158564 318.117909 
Q 311.158564 320.132909 310.743564 321.370409 
Q 310.331064 322.607909 309.506064 323.285409 
Q 308.683564 323.960409 307.423564 323.960409 
Q 305.768564 323.960409 304.823564 322.772909 
Q 303.691064 321.342909 303.691064 318.117909 
z
M 305.136064 318.117909 
Q 305.136064 320.937909 305.796064 321.872909 
Q 306.456064 322.805409 307.423564 322.805409 
Q 308.393564 322.805409 309.053564 321.867909 
Q 309.713564 320.930409 309.713564 318.117909 
Q 309.713564 315.287909 309.053564 314.360409 
Q 308.393564 313.430409 307.408564 313.430409 
Q 306.441064 313.430409 305.861064 314.250409 
Q 305.136064 315.295409 305.136064 318.117909 
z
" style="stroke: #ffffff; stroke-width: 3"/>
    <path d="M 293.619189 323.765409 
L 293.619189 312.312909 
L 301.901689 312.312909 
L 301.901689 313.662909 
L 295.136689 313.662909 
L 295.136689 317.170409 
L 301.471689 317.170409 
L 301.471689 318.515409 
L 295.136689 318.515409 
L 295.136689 322.412909 
L 302.166689 322.412909 
L 302.166689 323.765409 
L 293.619189 323.765409 
z
M 303.691064 318.117909 
Q 303.691064 316.085409 304.108564 314.847909 
Q 304.526064 313.607909 305.348564 312.937909 
Q 306.173564 312.265409 307.423564 312.265409 
Q 308.346064 312.265409 309.041064 312.637909 
Q 309.736064 313.007909 310.188564 313.707909 
Q 310.643564 314.405409 310.901064 315.410409 
Q 311.158564 316.412909 311.158564 318.117909 
Q 311.158564 320.132909 310.743564 321.370409 
Q 310.331064 322.607909 309.506064 323.285409 
Q 308.683564 323.960409 307.423564 323.960409 
Q 305.768564 323.960409 304.823564 322.772909 
Q 303.691064 321.342909 303.691064 318.117909 
z
M 305.136064 318.117909 
Q 305.136064 320.937909 305.796064 321.872909 
Q 306.456064 322.805409 307.423564 322.805409 
Q 308.393564 322.805409 309.053564 321.867909 
Q 309.713564 320.930409 309.713564 318.117909 
Q 309.713564 315.287909 309.053564 314.360409 
Q 308.393564 313.430409 307.408564 313.430409 
Q 306.441064 313.430409 305.861064 314.250409 
Q 305.136064 315.295409 305.136064 318.117909 
z
"/>
   </g>
   <g id="text_22">
    <path d="M 541.47352 238.476451 
L 541.47352 242.711451 
L 540.07602 242.711451 
L 540.07602 231.671451 
Q 540.07602 230.351451 540.43102 229.606451 
Q 540.78602 228.858951 541.65352 228.371451 
Q 542.52102 227.883951 543.58352 227.883951 
Q 545.15352 227.883951 545.96102 228.786451 
Q 546.77102 229.686451 546.77102 230.758951 
Q 546.77102 231.803951 546.11852 232.446451 
Q 545.46602 233.086451 544.62102 233.233951 
Q 545.98102 233.366451 546.71852 234.211451 
Q 547.45852 235.053951 547.45852 236.288951 
Q 547.45852 237.616451 546.58602 238.668951 
Q 545.71602 239.718951 544.06602 239.718951 
Q 542.37852 239.718951 541.47352 238.476451 
z
M 542.71602 232.781451 
Q 544.15352 232.781451 544.80852 232.281451 
Q 545.46602 231.781451 545.46602 230.836451 
Q 545.46602 230.071451 544.90602 229.556451 
Q 544.34852 229.038951 543.51352 229.038951 
Q 542.78602 229.038951 542.25102 229.421451 
Q 541.71602 229.803951 541.59352 230.273951 
Q 541.47352 230.741451 541.47352 231.913951 
L 541.47352 235.061451 
Q 541.47352 236.406451 541.66102 237.038951 
Q 541.84852 237.671451 542.46602 238.178951 
Q 543.08352 238.686451 543.88852 238.686451 
Q 544.86352 238.686451 545.42852 238.018951 
Q 545.99602 237.351451 545.99602 236.366451 
Q 545.99602 235.553951 545.57852 234.911451 
Q 545.16102 234.266451 544.54602 234.036451 
Q 543.93352 233.803951 542.91852 233.803951 
L 542.71602 233.803951 
L 542.71602 232.781451 
z
" style="stroke: #ffffff; stroke-width: 3"/>
    <path d="M 541.47352 238.476451 
L 541.47352 242.711451 
L 540.07602 242.711451 
L 540.07602 231.671451 
Q 540.07602 230.351451 540.43102 229.606451 
Q 540.78602 228.858951 541.65352 228.371451 
Q 542.52102 227.883951 543.58352 227.883951 
Q 545.15352 227.883951 545.96102 228.786451 
Q 546.77102 229.686451 546.77102 230.758951 
Q 546.77102 231.803951 546.11852 232.446451 
Q 545.46602 233.086451 544.62102 233.233951 
Q 545.98102 233.366451 546.71852 234.211451 
Q 547.45852 235.053951 547.45852 236.288951 
Q 547.45852 237.616451 546.58602 238.668951 
Q 545.71602 239.718951 544.06602 239.718951 
Q 542.37852 239.718951 541.47352 238.476451 
z
M 542.71602 232.781451 
Q 544.15352 232.781451 544.80852 232.281451 
Q 545.46602 231.781451 545.46602 230.836451 
Q 545.46602 230.071451 544.90602 229.556451 
Q 544.34852 229.038951 543.51352 229.038951 
Q 542.78602 229.038951 542.25102 229.421451 
Q 541.71602 229.803951 541.59352 230.273951 
Q 541.47352 230.741451 541.47352 231.913951 
L 541.47352 235.061451 
Q 541.47352 236.406451 541.66102 237.038951 
Q 541.84852 237.671451 542.46602 238.178951 
Q 543.08352 238.686451 543.88852 238.686451 
Q 544.86352 238.686451 545.42852 238.018951 
Q 545.99602 237.351451 545.99602 236.366451 
Q 545.99602 235.553951 545.57852 234.911451 
Q 545.16102 234.266451 544.54602 234.036451 
Q 543.93352 233.803951 542.91852 233.803951 
L 542.71602 233.803951 
L 542.71602 232.781451 
z
"/>
   </g>
   <g id="text_23">
    <path d="M 405.740687 291.386244 
L 405.740687 279.908744 
L 407.020687 279.908744 
L 407.020687 280.986244 
Q 407.475687 280.353744 408.045687 280.038744 
Q 408.615687 279.721244 409.428187 279.721244 
Q 410.490687 279.721244 411.303187 280.268744 
Q 412.115687 280.816244 412.528187 281.813744 
Q 412.943187 282.808744 412.943187 283.996244 
Q 412.943187 285.268744 412.485687 286.288744 
Q 412.030687 287.308744 411.158187 287.851244 
Q 410.288187 288.393744 409.325687 288.393744 
Q 408.623187 288.393744 408.063187 288.096244 
Q 407.505687 287.798744 407.145687 287.346244 
L 407.145687 291.386244 
L 405.740687 291.386244 
z
M 407.013187 284.103744 
Q 407.013187 285.706244 407.660687 286.471244 
Q 408.310687 287.236244 409.233187 287.236244 
Q 410.170687 287.236244 410.838187 286.443744 
Q 411.505687 285.651244 411.505687 283.986244 
Q 411.505687 282.401244 410.853187 281.613744 
Q 410.200687 280.823744 409.295687 280.823744 
Q 408.395687 280.823744 407.703187 281.663744 
Q 407.013187 282.503744 407.013187 284.103744 
z
" style="stroke: #ffffff; stroke-width: 3"/>
    <path d="M 405.740687 291.386244 
L 405.740687 279.908744 
L 407.020687 279.908744 
L 407.020687 280.986244 
Q 407.475687 280.353744 408.045687 280.038744 
Q 408.615687 279.721244 409.428187 279.721244 
Q 410.490687 279.721244 411.303187 280.268744 
Q 412.115687 280.816244 412.528187 281.813744 
Q 412.943187 282.808744 412.943187 283.996244 
Q 412.943187 285.268744 412.485687 286.288744 
Q 412.030687 287.308744 411.158187 287.851244 
Q 410.288187 288.393744 409.325687 288.393744 
Q 408.623187 288.393744 408.063187 288.096244 
Q 407.505687 287.798744 407.145687 287.346244 
L 407.145687 291.386244 
L 405.740687 291.386244 
z
M 407.013187 284.103744 
Q 407.013187 285.706244 407.660687 286.471244 
Q 408.310687 287.236244 409.233187 287.236244 
Q 410.170687 287.236244 410.838187 286.443744 
Q 411.505687 285.651244 411.505687 283.986244 
Q 411.505687 282.401244 410.853187 281.613744 
Q 410.200687 280.823744 409.295687 280.823744 
Q 408.395687 280.823744 407.703187 281.663744 
Q 407.013187 282.503744 407.013187 284.103744 
z
"/>
   </g>
   <g id="text_24">
    <path d="M 412.820067 250.126504 
L 414.202567 250.306504 
Q 413.975067 251.736504 413.040067 252.546504 
Q 412.107567 253.354004 410.747567 253.354004 
Q 409.045067 253.354004 408.010067 252.241504 
Q 406.975067 251.126504 406.975067 249.049004 
Q 406.975067 247.706504 407.420067 246.699004 
Q 407.865067 245.689004 408.775067 245.186504 
Q 409.685067 244.681504 410.757567 244.681504 
Q 412.107567 244.681504 412.967567 245.366504 
Q 413.827567 246.049004 414.070067 247.306504 
L 412.702567 247.519004 
Q 412.507567 246.681504 412.010067 246.261504 
Q 411.515067 245.839004 410.810067 245.839004 
Q 409.747567 245.839004 409.082567 246.601504 
Q 408.420067 247.361504 408.420067 249.009004 
Q 408.420067 250.681504 409.060067 251.439004 
Q 409.702567 252.196504 410.732567 252.196504 
Q 411.560067 252.196504 412.115067 251.689004 
Q 412.670067 251.181504 412.820067 250.126504 
z
" style="stroke: #ffffff; stroke-width: 3"/>
    <path d="M 412.820067 250.126504 
L 414.202567 250.306504 
Q 413.975067 251.736504 413.040067 252.546504 
Q 412.107567 253.354004 410.747567 253.354004 
Q 409.045067 253.354004 408.010067 252.241504 
Q 406.975067 251.126504 406.975067 249.049004 
Q 406.975067 247.706504 407.420067 246.699004 
Q 407.865067 245.689004 408.775067 245.186504 
Q 409.685067 244.681504 410.757567 244.681504 
Q 412.107567 244.681504 412.967567 245.366504 
Q 413.827567 246.049004 414.070067 247.306504 
L 412.702567 247.519004 
Q 412.507567 246.681504 412.010067 246.261504 
Q 411.515067 245.839004 410.810067 245.839004 
Q 409.747567 245.839004 409.082567 246.601504 
Q 408.420067 247.361504 408.420067 249.009004 
Q 408.420067 250.681504 409.060067 251.439004 
Q 409.702567 252.196504 410.732567 252.196504 
Q 411.560067 252.196504 412.115067 251.689004 
Q 412.670067 251.181504 412.820067 250.126504 
z
"/>
   </g>
   <g id="text_25">
    <path d="M 420.269382 141.489894 
L 426.526882 141.489894 
L 426.526882 142.629894 
L 422.151882 142.629894 
Q 422.931882 143.427394 424.596882 144.574894 
Q 426.081882 145.607394 426.666882 146.489894 
Q 427.254382 147.372394 427.254382 148.879894 
Q 427.254382 150.902394 426.164382 152.017394 
Q 425.074382 153.129894 423.324382 153.129894 
Q 421.409382 153.129894 420.439382 151.879894 
Q 419.471882 150.629894 419.471882 148.909894 
Q 419.471882 146.909894 420.494382 145.859894 
Q 421.519382 144.809894 422.941882 144.754894 
Q 422.214382 144.247394 420.269382 142.504894 
L 420.269382 141.489894 
z
M 420.909382 148.927394 
Q 420.909382 150.254894 421.606882 151.114894 
Q 422.306882 151.972394 423.394382 151.972394 
Q 424.346882 151.972394 425.076882 151.239894 
Q 425.806882 150.504894 425.806882 148.919894 
Q 425.806882 147.449894 425.111882 146.644894 
Q 424.416882 145.839894 423.361882 145.839894 
Q 422.199382 145.839894 421.554382 146.747394 
Q 420.909382 147.652394 420.909382 148.927394 
z
" style="stroke: #ffffff; stroke-width: 3"/>
    <path d="M 420.269382 141.489894 
L 426.526882 141.489894 
L 426.526882 142.629894 
L 422.151882 142.629894 
Q 422.931882 143.427394 424.596882 144.574894 
Q 426.081882 145.607394 426.666882 146.489894 
Q 427.254382 147.372394 427.254382 148.879894 
Q 427.254382 150.902394 426.164382 152.017394 
Q 425.074382 153.129894 423.324382 153.129894 
Q 421.409382 153.129894 420.439382 151.879894 
Q 419.471882 150.629894 419.471882 148.909894 
Q 419.471882 146.909894 420.494382 145.859894 
Q 421.519382 144.809894 422.941882 144.754894 
Q 422.214382 144.247394 420.269382 142.504894 
L 420.269382 141.489894 
z
M 420.909382 148.927394 
Q 420.909382 150.254894 421.606882 151.114894 
Q 422.306882 151.972394 423.394382 151.972394 
Q 424.346882 151.972394 425.076882 151.239894 
Q 425.806882 150.504894 425.806882 148.919894 
Q 425.806882 147.449894 425.111882 146.644894 
Q 424.416882 145.839894 423.361882 145.839894 
Q 422.199382 145.839894 421.554382 146.747394 
Q 420.909382 147.652394 420.909382 148.927394 
z
"/>
   </g>
   <g id="text_26">
    <path d="M 540.512011 167.138905 
L 540.512011 168.301405 
L 539.362011 168.301405 
Q 538.082011 168.301405 537.507011 168.681405 
Q 536.932011 169.058905 536.932011 169.763905 
Q 536.932011 171.106405 539.269511 171.106405 
L 540.417011 171.106405 
L 540.417011 172.271405 
Q 539.387011 172.271405 538.619511 172.576405 
Q 537.854511 172.878905 537.239511 173.668905 
Q 536.627011 174.458905 536.627011 175.458905 
Q 536.627011 176.208905 537.069511 176.793905 
Q 537.512011 177.378905 538.964511 177.543905 
Q 539.902011 177.653905 540.339511 177.891405 
Q 540.777011 178.128905 541.064511 178.613905 
Q 541.354511 179.098905 541.354511 179.661405 
Q 541.354511 180.693905 540.502011 181.416405 
Q 539.652011 182.138905 538.207011 182.153905 
L 538.564511 180.848905 
Q 539.339511 180.793905 539.662011 180.448905 
Q 539.987011 180.106405 539.987011 179.746405 
Q 539.987011 178.951405 538.652011 178.801405 
Q 535.199511 178.426405 535.199511 175.503905 
Q 535.199511 174.308905 535.912011 173.356405 
Q 536.627011 172.403905 537.737011 171.926405 
Q 536.627011 171.786405 536.122011 171.088905 
Q 535.619511 170.388905 535.619511 169.661405 
Q 535.619511 168.646405 536.514511 167.893905 
Q 537.409511 167.138905 539.119511 167.138905 
L 540.512011 167.138905 
z
" style="stroke: #ffffff; stroke-width: 3"/>
    <path d="M 540.512011 167.138905 
L 540.512011 168.301405 
L 539.362011 168.301405 
Q 538.082011 168.301405 537.507011 168.681405 
Q 536.932011 169.058905 536.932011 169.763905 
Q 536.932011 171.106405 539.269511 171.106405 
L 540.417011 171.106405 
L 540.417011 172.271405 
Q 539.387011 172.271405 538.619511 172.576405 
Q 537.854511 172.878905 537.239511 173.668905 
Q 536.627011 174.458905 536.627011 175.458905 
Q 536.627011 176.208905 537.069511 176.793905 
Q 537.512011 177.378905 538.964511 177.543905 
Q 539.902011 177.653905 540.339511 177.891405 
Q 540.777011 178.128905 541.064511 178.613905 
Q 541.354511 179.098905 541.354511 179.661405 
Q 541.354511 180.693905 540.502011 181.416405 
Q 539.652011 182.138905 538.207011 182.153905 
L 538.564511 180.848905 
Q 539.339511 180.793905 539.662011 180.448905 
Q 539.987011 180.106405 539.987011 179.746405 
Q 539.987011 178.951405 538.652011 178.801405 
Q 535.199511 178.426405 535.199511 175.503905 
Q 535.199511 174.308905 535.912011 173.356405 
Q 536.627011 172.403905 537.737011 171.926405 
Q 536.627011 171.786405 536.122011 171.088905 
Q 535.619511 170.388905 535.619511 169.661405 
Q 535.619511 168.646405 536.514511 167.893905 
Q 537.409511 167.138905 539.119511 167.138905 
L 540.512011 167.138905 
z
"/>
   </g>
   <g id="text_27">
    <path d="M 407.147177 225.458746 
Q 406.364677 226.121246 405.642177 226.396246 
Q 404.919677 226.668746 404.092177 226.668746 
Q 402.724677 226.668746 401.989677 226.001246 
Q 401.254677 225.333746 401.254677 224.293746 
Q 401.254677 223.683746 401.532177 223.181246 
Q 401.809677 222.676246 402.259677 222.371246 
Q 402.709677 222.066246 403.272177 221.911246 
Q 403.684677 221.801246 404.522177 221.698746 
Q 406.224677 221.496246 407.029677 221.216246 
Q 407.037177 220.926246 407.037177 220.848746 
Q 407.037177 219.988746 406.637177 219.636246 
Q 406.099677 219.161246 405.037177 219.161246 
Q 404.044677 219.161246 403.572177 219.508746 
Q 403.099677 219.856246 402.872177 220.738746 
L 401.497177 220.551246 
Q 401.684677 219.668746 402.114677 219.126246 
Q 402.544677 218.583746 403.357177 218.291246 
Q 404.169677 217.996246 405.239677 217.996246 
Q 406.302177 217.996246 406.964677 218.246246 
Q 407.629677 218.496246 407.942177 218.876246 
Q 408.254677 219.253746 408.379677 219.833746 
Q 408.449677 220.191246 408.449677 221.128746 
L 408.449677 223.003746 
Q 408.449677 224.966246 408.539677 225.486246 
Q 408.629677 226.003746 408.897177 226.481246 
L 407.427177 226.481246 
Q 407.209677 226.043746 407.147177 225.458746 
z
M 407.029677 222.316246 
Q 406.262177 222.628746 404.732177 222.848746 
Q 403.864677 222.973746 403.504677 223.131246 
Q 403.147177 223.286246 402.949677 223.586246 
Q 402.754677 223.886246 402.754677 224.253746 
Q 402.754677 224.816246 403.179677 225.191246 
Q 403.607177 225.566246 404.427177 225.566246 
Q 405.239677 225.566246 405.872177 225.211246 
Q 406.504677 224.856246 406.802177 224.238746 
Q 407.029677 223.761246 407.029677 222.833746 
L 407.029677 222.316246 
z
" style="stroke: #ffffff; stroke-width: 3"/>
    <path d="M 407.147177 225.458746 
Q 406.364677 226.121246 405.642177 226.396246 
Q 404.919677 226.668746 404.092177 226.668746 
Q 402.724677 226.668746 401.989677 226.001246 
Q 401.254677 225.333746 401.254677 224.293746 
Q 401.254677 223.683746 401.532177 223.181246 
Q 401.809677 222.676246 402.259677 222.371246 
Q 402.709677 222.066246 403.272177 221.911246 
Q 403.684677 221.801246 404.522177 221.698746 
Q 406.224677 221.496246 407.029677 221.216246 
Q 407.037177 220.926246 407.037177 220.848746 
Q 407.037177 219.988746 406.637177 219.636246 
Q 406.099677 219.161246 405.037177 219.161246 
Q 404.044677 219.161246 403.572177 219.508746 
Q 403.099677 219.856246 402.872177 220.738746 
L 401.497177 220.551246 
Q 401.684677 219.668746 402.114677 219.126246 
Q 402.544677 218.583746 403.357177 218.291246 
Q 404.169677 217.996246 405.239677 217.996246 
Q 406.302177 217.996246 406.964677 218.246246 
Q 407.629677 218.496246 407.942177 218.876246 
Q 408.254677 219.253746 408.379677 219.833746 
Q 408.449677 220.191246 408.449677 221.128746 
L 408.449677 223.003746 
Q 408.449677 224.966246 408.539677 225.486246 
Q 408.629677 226.003746 408.897177 226.481246 
L 407.427177 226.481246 
Q 407.209677 226.043746 407.147177 225.458746 
z
M 407.029677 222.316246 
Q 406.262177 222.628746 404.732177 222.848746 
Q 403.864677 222.973746 403.504677 223.131246 
Q 403.147177 223.286246 402.949677 223.586246 
Q 402.754677 223.886246 402.754677 224.253746 
Q 402.754677 224.816246 403.179677 225.191246 
Q 403.607177 225.566246 404.427177 225.566246 
Q 405.239677 225.566246 405.872177 225.211246 
Q 406.504677 224.856246 406.802177 224.238746 
Q 407.029677 223.761246 407.029677 222.833746 
L 407.029677 222.316246 
z
"/>
   </g>
   <g id="text_28">
    <path d="M 569.639286 217.256996 
L 569.639286 216.209496 
Q 568.849286 217.444496 567.319286 217.444496 
Q 566.326786 217.444496 565.494286 216.896996 
Q 564.661786 216.349496 564.204286 215.369496 
Q 563.749286 214.389496 563.749286 213.116996 
Q 563.749286 211.874496 564.161786 210.861996 
Q 564.576786 209.849496 565.404286 209.311996 
Q 566.234286 208.771996 567.256786 208.771996 
Q 568.006786 208.771996 568.591786 209.089496 
Q 569.179286 209.404496 569.546786 209.911996 
L 569.546786 205.804496 
L 570.944286 205.804496 
L 570.944286 217.256996 
L 569.639286 217.256996 
z
M 565.194286 213.116996 
Q 565.194286 214.709496 565.864286 215.499496 
Q 566.536786 216.286996 567.451786 216.286996 
Q 568.374286 216.286996 569.016786 215.534496 
Q 569.661786 214.779496 569.661786 213.234496 
Q 569.661786 211.529496 569.004286 210.734496 
Q 568.349286 209.936996 567.389286 209.936996 
Q 566.451786 209.936996 565.821786 210.701996 
Q 565.194286 211.466996 565.194286 213.116996 
z
M 573.365223 217.256996 
L 573.365223 205.804496 
L 581.647723 205.804496 
L 581.647723 207.154496 
L 574.882723 207.154496 
L 574.882723 210.661996 
L 581.217723 210.661996 
L 581.217723 212.006996 
L 574.882723 212.006996 
L 574.882723 215.904496 
L 581.912723 215.904496 
L 581.912723 217.256996 
L 573.365223 217.256996 
z
" style="stroke: #ffffff; stroke-width: 3"/>
    <path d="M 569.639286 217.256996 
L 569.639286 216.209496 
Q 568.849286 217.444496 567.319286 217.444496 
Q 566.326786 217.444496 565.494286 216.896996 
Q 564.661786 216.349496 564.204286 215.369496 
Q 563.749286 214.389496 563.749286 213.116996 
Q 563.749286 211.874496 564.161786 210.861996 
Q 564.576786 209.849496 565.404286 209.311996 
Q 566.234286 208.771996 567.256786 208.771996 
Q 568.006786 208.771996 568.591786 209.089496 
Q 569.179286 209.404496 569.546786 209.911996 
L 569.546786 205.804496 
L 570.944286 205.804496 
L 570.944286 217.256996 
L 569.639286 217.256996 
z
M 565.194286 213.116996 
Q 565.194286 214.709496 565.864286 215.499496 
Q 566.536786 216.286996 567.451786 216.286996 
Q 568.374286 216.286996 569.016786 215.534496 
Q 569.661786 214.779496 569.661786 213.234496 
Q 569.661786 211.529496 569.004286 210.734496 
Q 568.349286 209.936996 567.389286 209.936996 
Q 566.451786 209.936996 565.821786 210.701996 
Q 565.194286 211.466996 565.194286 213.116996 
z
M 573.365223 217.256996 
L 573.365223 205.804496 
L 581.647723 205.804496 
L 581.647723 207.154496 
L 574.882723 207.154496 
L 574.882723 210.661996 
L 581.217723 210.661996 
L 581.217723 212.006996 
L 574.882723 212.006996 
L 574.882723 215.904496 
L 581.912723 215.904496 
L 581.912723 217.256996 
L 573.365223 217.256996 
z
"/>
   </g>
   <g id="text_29">
    <path d="M 403.750748 207.128062 
L 410.008248 207.128062 
L 410.008248 208.268062 
L 405.633248 208.268062 
Q 406.413248 209.065562 408.078248 210.213062 
Q 409.563248 211.245562 410.148248 212.128062 
Q 410.735748 213.010562 410.735748 214.518062 
Q 410.735748 216.540562 409.645748 217.655562 
Q 408.555748 218.768062 406.805748 218.768062 
Q 404.890748 218.768062 403.920748 217.518062 
Q 402.953248 216.268062 402.953248 214.548062 
Q 402.953248 212.548062 403.975748 211.498062 
Q 405.000748 210.448062 406.423248 210.393062 
Q 405.695748 209.885562 403.750748 208.143062 
L 403.750748 207.128062 
z
M 404.390748 214.565562 
Q 404.390748 215.893062 405.088248 216.753062 
Q 405.788248 217.610562 406.875748 217.610562 
Q 407.828248 217.610562 408.558248 216.878062 
Q 409.288248 216.143062 409.288248 214.558062 
Q 409.288248 213.088062 408.593248 212.283062 
Q 407.898248 211.478062 406.843248 211.478062 
Q 405.680748 211.478062 405.035748 212.385562 
Q 404.390748 213.290562 404.390748 214.565562 
z
M 412.561998 218.580562 
L 412.561998 207.128062 
L 420.844498 207.128062 
L 420.844498 208.478062 
L 414.079498 208.478062 
L 414.079498 211.985562 
L 420.414498 211.985562 
L 420.414498 213.330562 
L 414.079498 213.330562 
L 414.079498 217.228062 
L 421.109498 217.228062 
L 421.109498 218.580562 
L 412.561998 218.580562 
z
" style="stroke: #ffffff; stroke-width: 3"/>
    <path d="M 403.750748 207.128062 
L 410.008248 207.128062 
L 410.008248 208.268062 
L 405.633248 208.268062 
Q 406.413248 209.065562 408.078248 210.213062 
Q 409.563248 211.245562 410.148248 212.128062 
Q 410.735748 213.010562 410.735748 214.518062 
Q 410.735748 216.540562 409.645748 217.655562 
Q 408.555748 218.768062 406.805748 218.768062 
Q 404.890748 218.768062 403.920748 217.518062 
Q 402.953248 216.268062 402.953248 214.548062 
Q 402.953248 212.548062 403.975748 211.498062 
Q 405.000748 210.448062 406.423248 210.393062 
Q 405.695748 209.885562 403.750748 208.143062 
L 403.750748 207.128062 
z
M 404.390748 214.565562 
Q 404.390748 215.893062 405.088248 216.753062 
Q 405.788248 217.610562 406.875748 217.610562 
Q 407.828248 217.610562 408.558248 216.878062 
Q 409.288248 216.143062 409.288248 214.558062 
Q 409.288248 213.088062 408.593248 212.283062 
Q 407.898248 211.478062 406.843248 211.478062 
Q 405.680748 211.478062 405.035748 212.385562 
Q 404.390748 213.290562 404.390748 214.565562 
z
M 412.561998 218.580562 
L 412.561998 207.128062 
L 420.844498 207.128062 
L 420.844498 208.478062 
L 414.079498 208.478062 
L 414.079498 211.985562 
L 420.414498 211.985562 
L 420.414498 213.330562 
L 414.079498 213.330562 
L 414.079498 217.228062 
L 421.109498 217.228062 
L 421.109498 218.580562 
L 412.561998 218.580562 
z
"/>
   </g>
   <g id="text_30">
    <path d="M 265.819749 78.858325 
L 265.819749 67.405825 
L 267.334749 67.405825 
L 267.334749 73.085825 
L 273.022249 67.405825 
L 275.077249 67.405825 
L 270.272249 72.045825 
L 275.287249 78.858325 
L 273.287249 78.858325 
L 269.209749 73.060825 
L 267.334749 74.888325 
L 267.334749 78.858325 
L 265.819749 78.858325 
z
M 279.061624 82.225825 
Q 277.896624 80.755825 277.091624 78.788325 
Q 276.289124 76.818325 276.289124 74.710825 
Q 276.289124 72.850825 276.889124 71.148325 
Q 277.591624 69.170825 279.061624 67.210825 
L 280.069124 67.210825 
Q 279.124124 68.835825 278.819124 69.530825 
Q 278.341624 70.608325 278.069124 71.780825 
Q 277.734124 73.240825 277.734124 74.718325 
Q 277.734124 78.475825 280.069124 82.225825 
L 279.061624 82.225825 
z
M 282.007249 67.405825 
L 288.264749 67.405825 
L 288.264749 68.545825 
L 283.889749 68.545825 
Q 284.669749 69.343325 286.334749 70.490825 
Q 287.819749 71.523325 288.404749 72.405825 
Q 288.992249 73.288325 288.992249 74.795825 
Q 288.992249 76.818325 287.902249 77.933325 
Q 286.812249 79.045825 285.062249 79.045825 
Q 283.147249 79.045825 282.177249 77.795825 
Q 281.209749 76.545825 281.209749 74.825825 
Q 281.209749 72.825825 282.232249 71.775825 
Q 283.257249 70.725825 284.679749 70.670825 
Q 283.952249 70.163325 282.007249 68.420825 
L 282.007249 67.405825 
z
M 282.647249 74.843325 
Q 282.647249 76.170825 283.344749 77.030825 
Q 284.044749 77.888325 285.132249 77.888325 
Q 286.084749 77.888325 286.814749 77.155825 
Q 287.544749 76.420825 287.544749 74.835825 
Q 287.544749 73.365825 286.849749 72.560825 
Q 286.154749 71.755825 285.099749 71.755825 
Q 283.937249 71.755825 283.292249 72.663325 
Q 282.647249 73.568325 282.647249 74.843325 
z
M 290.818499 78.858325 
L 290.818499 67.405825 
L 299.100999 67.405825 
L 299.100999 68.755825 
L 292.335999 68.755825 
L 292.335999 72.263325 
L 298.670999 72.263325 
L 298.670999 73.608325 
L 292.335999 73.608325 
L 292.335999 77.505825 
L 299.365999 77.505825 
L 299.365999 78.858325 
L 290.818499 78.858325 
z
M 302.202874 82.225825 
L 301.195374 82.225825 
Q 303.530374 78.475825 303.530374 74.718325 
Q 303.530374 73.248325 303.195374 71.803325 
Q 302.927874 70.630825 302.452874 69.553325 
Q 302.147874 68.850825 301.195374 67.210825 
L 302.202874 67.210825 
Q 303.670374 69.170825 304.372874 71.148325 
Q 304.975374 72.850825 304.975374 74.710825 
Q 304.975374 76.818325 304.165374 78.788325 
Q 303.357874 80.755825 302.202874 82.225825 
z
" style="stroke: #ffffff; stroke-width: 3"/>
    <path d="M 265.819749 78.858325 
L 265.819749 67.405825 
L 267.334749 67.405825 
L 267.334749 73.085825 
L 273.022249 67.405825 
L 275.077249 67.405825 
L 270.272249 72.045825 
L 275.287249 78.858325 
L 273.287249 78.858325 
L 269.209749 73.060825 
L 267.334749 74.888325 
L 267.334749 78.858325 
L 265.819749 78.858325 
z
M 279.061624 82.225825 
Q 277.896624 80.755825 277.091624 78.788325 
Q 276.289124 76.818325 276.289124 74.710825 
Q 276.289124 72.850825 276.889124 71.148325 
Q 277.591624 69.170825 279.061624 67.210825 
L 280.069124 67.210825 
Q 279.124124 68.835825 278.819124 69.530825 
Q 278.341624 70.608325 278.069124 71.780825 
Q 277.734124 73.240825 277.734124 74.718325 
Q 277.734124 78.475825 280.069124 82.225825 
L 279.061624 82.225825 
z
M 282.007249 67.405825 
L 288.264749 67.405825 
L 288.264749 68.545825 
L 283.889749 68.545825 
Q 284.669749 69.343325 286.334749 70.490825 
Q 287.819749 71.523325 288.404749 72.405825 
Q 288.992249 73.288325 288.992249 74.795825 
Q 288.992249 76.818325 287.902249 77.933325 
Q 286.812249 79.045825 285.062249 79.045825 
Q 283.147249 79.045825 282.177249 77.795825 
Q 281.209749 76.545825 281.209749 74.825825 
Q 281.209749 72.825825 282.232249 71.775825 
Q 283.257249 70.725825 284.679749 70.670825 
Q 283.952249 70.163325 282.007249 68.420825 
L 282.007249 67.405825 
z
M 282.647249 74.843325 
Q 282.647249 76.170825 283.344749 77.030825 
Q 284.044749 77.888325 285.132249 77.888325 
Q 286.084749 77.888325 286.814749 77.155825 
Q 287.544749 76.420825 287.544749 74.835825 
Q 287.544749 73.365825 286.849749 72.560825 
Q 286.154749 71.755825 285.099749 71.755825 
Q 283.937249 71.755825 283.292249 72.663325 
Q 282.647249 73.568325 282.647249 74.843325 
z
M 290.818499 78.858325 
L 290.818499 67.405825 
L 299.100999 67.405825 
L 299.100999 68.755825 
L 292.335999 68.755825 
L 292.335999 72.263325 
L 298.670999 72.263325 
L 298.670999 73.608325 
L 292.335999 73.608325 
L 292.335999 77.505825 
L 299.365999 77.505825 
L 299.365999 78.858325 
L 290.818499 78.858325 
z
M 302.202874 82.225825 
L 301.195374 82.225825 
Q 303.530374 78.475825 303.530374 74.718325 
Q 303.530374 73.248325 303.195374 71.803325 
Q 302.927874 70.630825 302.452874 69.553325 
Q 302.147874 68.850825 301.195374 67.210825 
L 302.202874 67.210825 
Q 303.670374 69.170825 304.372874 71.148325 
Q 304.975374 72.850825 304.975374 74.710825 
Q 304.975374 76.818325 304.165374 78.788325 
Q 303.357874 80.755825 302.202874 82.225825 
z
"/>
   </g>
   <g id="text_31">
    <!-- PC1 vs PC2 Loadings -->
    <g style="fill: #262626" transform="translate(290.7375 45.84) scale(0.16 -0.16)">
     <defs>
      <path id="ArialMT-20" transform="scale(0.015625)"/>
      <path id="ArialMT-76" d="M 1344 0 
L 81 3319 
L 675 3319 
L 1388 1331 
Q 1503 1009 1600 663 
Q 1675 925 1809 1294 
L 2547 3319 
L 3125 3319 
L 1869 0 
L 1344 0 
z
" transform="scale(0.015625)"/>
      <path id="ArialMT-73" d="M 197 991 
L 753 1078 
Q 800 744 1014 566 
Q 1228 388 1613 388 
Q 2000 388 2187 545 
Q 2375 703 2375 916 
Q 2375 1106 2209 1216 
Q 2094 1291 1634 1406 
Q 1016 1563 777 1677 
Q 538 1791 414 1992 
Q 291 2194 291 2438 
Q 291 2659 392 2848 
Q 494 3038 669 3163 
Q 800 3259 1026 3326 
Q 1253 3394 1513 3394 
Q 1903 3394 2198 3281 
Q 2494 3169 2634 2976 
Q 2775 2784 2828 2463 
L 2278 2388 
Q 2241 2644 2061 2787 
Q 1881 2931 1553 2931 
Q 1166 2931 1000 2803 
Q 834 2675 834 2503 
Q 834 2394 903 2306 
Q 972 2216 1119 2156 
Q 1203 2125 1616 2013 
Q 2213 1853 2448 1751 
Q 2684 1650 2818 1456 
Q 2953 1263 2953 975 
Q 2953 694 2789 445 
Q 2625 197 2315 61 
Q 2006 -75 1616 -75 
Q 969 -75 630 194 
Q 291 463 197 991 
z
" transform="scale(0.015625)"/>
      <path id="ArialMT-4c" d="M 469 0 
L 469 4581 
L 1075 4581 
L 1075 541 
L 3331 541 
L 3331 0 
L 469 0 
z
" transform="scale(0.015625)"/>
      <path id="ArialMT-6f" d="M 213 1659 
Q 213 2581 725 3025 
Q 1153 3394 1769 3394 
Q 2453 3394 2887 2945 
Q 3322 2497 3322 1706 
Q 3322 1066 3130 698 
Q 2938 331 2570 128 
Q 2203 -75 1769 -75 
Q 1072 -75 642 372 
Q 213 819 213 1659 
z
M 791 1659 
Q 791 1022 1069 705 
Q 1347 388 1769 388 
Q 2188 388 2466 706 
Q 2744 1025 2744 1678 
Q 2744 2294 2464 2611 
Q 2184 2928 1769 2928 
Q 1347 2928 1069 2612 
Q 791 2297 791 1659 
z
" transform="scale(0.015625)"/>
      <path id="ArialMT-61" d="M 2588 409 
Q 2275 144 1986 34 
Q 1697 -75 1366 -75 
Q 819 -75 525 192 
Q 231 459 231 875 
Q 231 1119 342 1320 
Q 453 1522 633 1644 
Q 813 1766 1038 1828 
Q 1203 1872 1538 1913 
Q 2219 1994 2541 2106 
Q 2544 2222 2544 2253 
Q 2544 2597 2384 2738 
Q 2169 2928 1744 2928 
Q 1347 2928 1158 2789 
Q 969 2650 878 2297 
L 328 2372 
Q 403 2725 575 2942 
Q 747 3159 1072 3276 
Q 1397 3394 1825 3394 
Q 2250 3394 2515 3294 
Q 2781 3194 2906 3042 
Q 3031 2891 3081 2659 
Q 3109 2516 3109 2141 
L 3109 1391 
Q 3109 606 3145 398 
Q 3181 191 3288 0 
L 2700 0 
Q 2613 175 2588 409 
z
M 2541 1666 
Q 2234 1541 1622 1453 
Q 1275 1403 1131 1340 
Q 988 1278 909 1158 
Q 831 1038 831 891 
Q 831 666 1001 516 
Q 1172 366 1500 366 
Q 1825 366 2078 508 
Q 2331 650 2450 897 
Q 2541 1088 2541 1459 
L 2541 1666 
z
" transform="scale(0.015625)"/>
      <path id="ArialMT-64" d="M 2575 0 
L 2575 419 
Q 2259 -75 1647 -75 
Q 1250 -75 917 144 
Q 584 363 401 755 
Q 219 1147 219 1656 
Q 219 2153 384 2558 
Q 550 2963 881 3178 
Q 1213 3394 1622 3394 
Q 1922 3394 2156 3267 
Q 2391 3141 2538 2938 
L 2538 4581 
L 3097 4581 
L 3097 0 
L 2575 0 
z
M 797 1656 
Q 797 1019 1065 703 
Q 1334 388 1700 388 
Q 2069 388 2326 689 
Q 2584 991 2584 1609 
Q 2584 2291 2321 2609 
Q 2059 2928 1675 2928 
Q 1300 2928 1048 2622 
Q 797 2316 797 1656 
z
" transform="scale(0.015625)"/>
      <path id="ArialMT-69" d="M 425 3934 
L 425 4581 
L 988 4581 
L 988 3934 
L 425 3934 
z
M 425 0 
L 425 3319 
L 988 3319 
L 988 0 
L 425 0 
z
" transform="scale(0.015625)"/>
      <path id="ArialMT-6e" d="M 422 0 
L 422 3319 
L 928 3319 
L 928 2847 
Q 1294 3394 1984 3394 
Q 2284 3394 2536 3286 
Q 2788 3178 2913 3003 
Q 3038 2828 3088 2588 
Q 3119 2431 3119 2041 
L 3119 0 
L 2556 0 
L 2556 2019 
Q 2556 2363 2490 2533 
Q 2425 2703 2258 2804 
Q 2091 2906 1866 2906 
Q 1506 2906 1245 2678 
Q 984 2450 984 1813 
L 984 0 
L 422 0 
z
" transform="scale(0.015625)"/>
      <path id="ArialMT-67" d="M 319 -275 
L 866 -356 
Q 900 -609 1056 -725 
Q 1266 -881 1628 -881 
Q 2019 -881 2231 -725 
Q 2444 -569 2519 -288 
Q 2563 -116 2559 434 
Q 2191 0 1641 0 
Q 956 0 581 494 
Q 206 988 206 1678 
Q 206 2153 378 2554 
Q 550 2956 876 3175 
Q 1203 3394 1644 3394 
Q 2231 3394 2613 2919 
L 2613 3319 
L 3131 3319 
L 3131 450 
Q 3131 -325 2973 -648 
Q 2816 -972 2473 -1159 
Q 2131 -1347 1631 -1347 
Q 1038 -1347 672 -1080 
Q 306 -813 319 -275 
z
M 784 1719 
Q 784 1066 1043 766 
Q 1303 466 1694 466 
Q 2081 466 2343 764 
Q 2606 1063 2606 1700 
Q 2606 2309 2336 2618 
Q 2066 2928 1684 2928 
Q 1309 2928 1046 2623 
Q 784 2319 784 1719 
z
" transform="scale(0.015625)"/>
     </defs>
     <use xlink:href="#ArialMT-50"/>
     <use xlink:href="#ArialMT-43" transform="translate(66.699219 0)"/>
     <use xlink:href="#ArialMT-31" transform="translate(138.916016 0)"/>
     <use xlink:href="#ArialMT-20" transform="translate(194.53125 0)"/>
     <use xlink:href="#ArialMT-76" transform="translate(222.314453 0)"/>
     <use xlink:href="#ArialMT-73" transform="translate(272.314453 0)"/>
     <use xlink:href="#ArialMT-20" transform="translate(322.314453 0)"/>
     <use xlink:href="#ArialMT-50" transform="translate(350.097656 0)"/>
     <use xlink:href="#ArialMT-43" transform="translate(416.796875 0)"/>
     <use xlink:href="#ArialMT-32" transform="translate(489.013672 0)"/>
     <use xlink:href="#ArialMT-20" transform="translate(544.628906 0)"/>
     <use xlink:href="#ArialMT-4c" transform="translate(572.412109 0)"/>
     <use xlink:href="#ArialMT-6f" transform="translate(628.027344 0)"/>
     <use xlink:href="#ArialMT-61" transform="translate(683.642578 0)"/>
     <use xlink:href="#ArialMT-64" transform="translate(739.257812 0)"/>
     <use xlink:href="#ArialMT-69" transform="translate(794.873047 0)"/>
     <use xlink:href="#ArialMT-6e" transform="translate(817.089844 0)"/>
     <use xlink:href="#ArialMT-67" transform="translate(872.705078 0)"/>
     <use xlink:href="#ArialMT-73" transform="translate(928.320312 0)"/>
    </g>
   </g>
  </g>
 </g>
 <defs>
  <clipPath id="pda01eef37b">
   <rect x="90" y="51.84" width="558" height="332.64"/>
  </clipPath>
 </defs>
</svg>
