<?xml version="1.0" encoding="utf-8" standalone="no"?>
<!DOCTYPE svg PUBLIC "-//W3C//DTD SVG 1.1//EN"
  "http://www.w3.org/Graphics/SVG/1.1/DTD/svg11.dtd">
<svg xmlns:xlink="http://www.w3.org/1999/xlink" width="720pt" height="432pt" viewBox="0 0 720 432" xmlns="http://www.w3.org/2000/svg" version="1.1">
 <metadata>
  <rdf:RDF xmlns:dc="http://purl.org/dc/elements/1.1/" xmlns:cc="http://creativecommons.org/ns#" xmlns:rdf="http://www.w3.org/1999/02/22-rdf-syntax-ns#">
   <cc:Work>
    <dc:type rdf:resource="http://purl.org/dc/dcmitype/StillImage"/>
    <dc:date>2024-12-18T19:29:49.065379</dc:date>
    <dc:format>image/svg+xml</dc:format>
    <dc:creator>
     <cc:Agent>
      <dc:title>Matplotlib v3.9.2, https://matplotlib.org/</dc:title>
     </cc:Agent>
    </dc:creator>
   </cc:Work>
  </rdf:RDF>
 </metadata>
 <defs>
  <style type="text/css">*{stroke-linejoin: round; stroke-linecap: butt}</style>
 </defs>
 <g id="figure_1">
  <g id="patch_1">
   <path d="M 0 432 
L 720 432 
L 720 0 
L 0 0 
z
" style="fill: #ffffff"/>
  </g>
  <g id="axes_1">
   <g id="patch_2">
    <path d="M 90 384.48 
L 648 384.48 
L 648 51.84 
L 90 51.84 
z
" style="fill: #ffffff"/>
   </g>
   <g id="matplotlib.axis_1">
    <g id="xtick_1">
     <g id="text_1">
      <!-- −1.00 -->
      <g style="fill: #262626" transform="translate(76.084141 401.853594) scale(0.11 -0.11)">
       <defs>
        <path id="ArialMT-2212" d="M 3381 1997 
L 356 1997 
L 356 2522 
L 3381 2522 
L 3381 1997 
z
" transform="scale(0.015625)"/>
        <path id="ArialMT-31" d="M 2384 0 
L 1822 0 
L 1822 3584 
Q 1619 3391 1289 3197 
Q 959 3003 697 2906 
L 697 3450 
Q 1169 3672 1522 3987 
Q 1875 4303 2022 4600 
L 2384 4600 
L 2384 0 
z
" transform="scale(0.015625)"/>
        <path id="ArialMT-2e" d="M 581 0 
L 581 641 
L 1222 641 
L 1222 0 
L 581 0 
z
" transform="scale(0.015625)"/>
        <path id="ArialMT-30" d="M 266 2259 
Q 266 3072 433 3567 
Q 600 4063 929 4331 
Q 1259 4600 1759 4600 
Q 2128 4600 2406 4451 
Q 2684 4303 2865 4023 
Q 3047 3744 3150 3342 
Q 3253 2941 3253 2259 
Q 3253 1453 3087 958 
Q 2922 463 2592 192 
Q 2263 -78 1759 -78 
Q 1097 -78 719 397 
Q 266 969 266 2259 
z
M 844 2259 
Q 844 1131 1108 757 
Q 1372 384 1759 384 
Q 2147 384 2411 759 
Q 2675 1134 2675 2259 
Q 2675 3391 2411 3762 
Q 2147 4134 1753 4134 
Q 1366 4134 1134 3806 
Q 844 3388 844 2259 
z
" transform="scale(0.015625)"/>
       </defs>
       <use xlink:href="#ArialMT-2212"/>
       <use xlink:href="#ArialMT-31" x="58.398438"/>
       <use xlink:href="#ArialMT-2e" x="114.013672"/>
       <use xlink:href="#ArialMT-30" x="141.796875"/>
       <use xlink:href="#ArialMT-30" x="197.412109"/>
      </g>
     </g>
    </g>
    <g id="xtick_2">
     <g id="text_2">
      <!-- −0.75 -->
      <g style="fill: #262626" transform="translate(145.834141 401.853594) scale(0.11 -0.11)">
       <defs>
        <path id="ArialMT-37" d="M 303 3981 
L 303 4522 
L 3269 4522 
L 3269 4084 
Q 2831 3619 2401 2847 
Q 1972 2075 1738 1259 
Q 1569 684 1522 0 
L 944 0 
Q 953 541 1156 1306 
Q 1359 2072 1739 2783 
Q 2119 3494 2547 3981 
L 303 3981 
z
" transform="scale(0.015625)"/>
        <path id="ArialMT-35" d="M 266 1200 
L 856 1250 
Q 922 819 1161 601 
Q 1400 384 1738 384 
Q 2144 384 2425 690 
Q 2706 997 2706 1503 
Q 2706 1984 2436 2262 
Q 2166 2541 1728 2541 
Q 1456 2541 1237 2417 
Q 1019 2294 894 2097 
L 366 2166 
L 809 4519 
L 3088 4519 
L 3088 3981 
L 1259 3981 
L 1013 2750 
Q 1425 3038 1878 3038 
Q 2478 3038 2890 2622 
Q 3303 2206 3303 1553 
Q 3303 931 2941 478 
Q 2500 -78 1738 -78 
Q 1113 -78 717 272 
Q 322 622 266 1200 
z
" transform="scale(0.015625)"/>
       </defs>
       <use xlink:href="#ArialMT-2212"/>
       <use xlink:href="#ArialMT-30" x="58.398438"/>
       <use xlink:href="#ArialMT-2e" x="114.013672"/>
       <use xlink:href="#ArialMT-37" x="141.796875"/>
       <use xlink:href="#ArialMT-35" x="197.412109"/>
      </g>
     </g>
    </g>
    <g id="xtick_3">
     <g id="text_3">
      <!-- −0.50 -->
      <g style="fill: #262626" transform="translate(215.584141 401.853594) scale(0.11 -0.11)">
       <use xlink:href="#ArialMT-2212"/>
       <use xlink:href="#ArialMT-30" x="58.398438"/>
       <use xlink:href="#ArialMT-2e" x="114.013672"/>
       <use xlink:href="#ArialMT-35" x="141.796875"/>
       <use xlink:href="#ArialMT-30" x="197.412109"/>
      </g>
     </g>
    </g>
    <g id="xtick_4">
     <g id="text_4">
      <!-- −0.25 -->
      <g style="fill: #262626" transform="translate(285.334141 401.853594) scale(0.11 -0.11)">
       <defs>
        <path id="ArialMT-32" d="M 3222 541 
L 3222 0 
L 194 0 
Q 188 203 259 391 
Q 375 700 629 1000 
Q 884 1300 1366 1694 
Q 2113 2306 2375 2664 
Q 2638 3022 2638 3341 
Q 2638 3675 2398 3904 
Q 2159 4134 1775 4134 
Q 1369 4134 1125 3890 
Q 881 3647 878 3216 
L 300 3275 
Q 359 3922 746 4261 
Q 1134 4600 1788 4600 
Q 2447 4600 2831 4234 
Q 3216 3869 3216 3328 
Q 3216 3053 3103 2787 
Q 2991 2522 2730 2228 
Q 2469 1934 1863 1422 
Q 1356 997 1212 845 
Q 1069 694 975 541 
L 3222 541 
z
" transform="scale(0.015625)"/>
       </defs>
       <use xlink:href="#ArialMT-2212"/>
       <use xlink:href="#ArialMT-30" x="58.398438"/>
       <use xlink:href="#ArialMT-2e" x="114.013672"/>
       <use xlink:href="#ArialMT-32" x="141.796875"/>
       <use xlink:href="#ArialMT-35" x="197.412109"/>
      </g>
     </g>
    </g>
    <g id="xtick_5">
     <g id="text_5">
      <!-- 0.00 -->
      <g style="fill: #262626" transform="translate(358.296484 401.853594) scale(0.11 -0.11)">
       <use xlink:href="#ArialMT-30"/>
       <use xlink:href="#ArialMT-2e" x="55.615234"/>
       <use xlink:href="#ArialMT-30" x="83.398438"/>
       <use xlink:href="#ArialMT-30" x="139.013672"/>
      </g>
     </g>
    </g>
    <g id="xtick_6">
     <g id="text_6">
      <!-- 0.25 -->
      <g style="fill: #262626" transform="translate(428.046484 401.853594) scale(0.11 -0.11)">
       <use xlink:href="#ArialMT-30"/>
       <use xlink:href="#ArialMT-2e" x="55.615234"/>
       <use xlink:href="#ArialMT-32" x="83.398438"/>
       <use xlink:href="#ArialMT-35" x="139.013672"/>
      </g>
     </g>
    </g>
    <g id="xtick_7">
     <g id="text_7">
      <!-- 0.50 -->
      <g style="fill: #262626" transform="translate(497.796484 401.853594) scale(0.11 -0.11)">
       <use xlink:href="#ArialMT-30"/>
       <use xlink:href="#ArialMT-2e" x="55.615234"/>
       <use xlink:href="#ArialMT-35" x="83.398438"/>
       <use xlink:href="#ArialMT-30" x="139.013672"/>
      </g>
     </g>
    </g>
    <g id="xtick_8">
     <g id="text_8">
      <!-- 0.75 -->
      <g style="fill: #262626" transform="translate(567.546484 401.853594) scale(0.11 -0.11)">
       <use xlink:href="#ArialMT-30"/>
       <use xlink:href="#ArialMT-2e" x="55.615234"/>
       <use xlink:href="#ArialMT-37" x="83.398438"/>
       <use xlink:href="#ArialMT-35" x="139.013672"/>
      </g>
     </g>
    </g>
    <g id="xtick_9">
     <g id="text_9">
      <!-- 1.00 -->
      <g style="fill: #262626" transform="translate(637.296484 401.853594) scale(0.11 -0.11)">
       <use xlink:href="#ArialMT-31"/>
       <use xlink:href="#ArialMT-2e" x="55.615234"/>
       <use xlink:href="#ArialMT-30" x="83.398438"/>
       <use xlink:href="#ArialMT-30" x="139.013672"/>
      </g>
     </g>
    </g>
    <g id="text_10">
     <!-- PC1 -->
     <g style="fill: #262626" transform="translate(353.4375 419.492344) scale(0.16 -0.16)">
      <defs>
       <path id="ArialMT-50" d="M 494 0 
L 494 4581 
L 2222 4581 
Q 2678 4581 2919 4538 
Q 3256 4481 3484 4323 
Q 3713 4166 3852 3881 
Q 3991 3597 3991 3256 
Q 3991 2672 3619 2267 
Q 3247 1863 2275 1863 
L 1100 1863 
L 1100 0 
L 494 0 
z
M 1100 2403 
L 2284 2403 
Q 2872 2403 3119 2622 
Q 3366 2841 3366 3238 
Q 3366 3525 3220 3729 
Q 3075 3934 2838 4000 
Q 2684 4041 2272 4041 
L 1100 4041 
L 1100 2403 
z
" transform="scale(0.015625)"/>
       <path id="ArialMT-43" d="M 3763 1606 
L 4369 1453 
Q 4178 706 3683 314 
Q 3188 -78 2472 -78 
Q 1731 -78 1267 223 
Q 803 525 561 1097 
Q 319 1669 319 2325 
Q 319 3041 592 3573 
Q 866 4106 1370 4382 
Q 1875 4659 2481 4659 
Q 3169 4659 3637 4309 
Q 4106 3959 4291 3325 
L 3694 3184 
Q 3534 3684 3231 3912 
Q 2928 4141 2469 4141 
Q 1941 4141 1586 3887 
Q 1231 3634 1087 3207 
Q 944 2781 944 2328 
Q 944 1744 1114 1308 
Q 1284 872 1643 656 
Q 2003 441 2422 441 
Q 2931 441 3284 734 
Q 3638 1028 3763 1606 
z
" transform="scale(0.015625)"/>
      </defs>
      <use xlink:href="#ArialMT-50"/>
      <use xlink:href="#ArialMT-43" x="66.699219"/>
      <use xlink:href="#ArialMT-31" x="138.916016"/>
     </g>
    </g>
   </g>
   <g id="matplotlib.axis_2">
    <g id="ytick_1">
     <g id="text_11">
      <!-- −1.00 -->
      <g style="fill: #262626" transform="translate(52.668281 388.416797) scale(0.11 -0.11)">
       <use xlink:href="#ArialMT-2212"/>
       <use xlink:href="#ArialMT-31" x="58.398438"/>
       <use xlink:href="#ArialMT-2e" x="114.013672"/>
       <use xlink:href="#ArialMT-30" x="141.796875"/>
       <use xlink:href="#ArialMT-30" x="197.412109"/>
      </g>
     </g>
    </g>
    <g id="ytick_2">
     <g id="text_12">
      <!-- −0.75 -->
      <g style="fill: #262626" transform="translate(52.668281 346.836797) scale(0.11 -0.11)">
       <use xlink:href="#ArialMT-2212"/>
       <use xlink:href="#ArialMT-30" x="58.398438"/>
       <use xlink:href="#ArialMT-2e" x="114.013672"/>
       <use xlink:href="#ArialMT-37" x="141.796875"/>
       <use xlink:href="#ArialMT-35" x="197.412109"/>
      </g>
     </g>
    </g>
    <g id="ytick_3">
     <g id="text_13">
      <!-- −0.50 -->
      <g style="fill: #262626" transform="translate(52.668281 305.256797) scale(0.11 -0.11)">
       <use xlink:href="#ArialMT-2212"/>
       <use xlink:href="#ArialMT-30" x="58.398438"/>
       <use xlink:href="#ArialMT-2e" x="114.013672"/>
       <use xlink:href="#ArialMT-35" x="141.796875"/>
       <use xlink:href="#ArialMT-30" x="197.412109"/>
      </g>
     </g>
    </g>
    <g id="ytick_4">
     <g id="text_14">
      <!-- −0.25 -->
      <g style="fill: #262626" transform="translate(52.668281 263.676797) scale(0.11 -0.11)">
       <use xlink:href="#ArialMT-2212"/>
       <use xlink:href="#ArialMT-30" x="58.398438"/>
       <use xlink:href="#ArialMT-2e" x="114.013672"/>
       <use xlink:href="#ArialMT-32" x="141.796875"/>
       <use xlink:href="#ArialMT-35" x="197.412109"/>
      </g>
     </g>
    </g>
    <g id="ytick_5">
     <g id="text_15">
      <!-- 0.00 -->
      <g style="fill: #262626" transform="translate(59.092969 222.096797) scale(0.11 -0.11)">
       <use xlink:href="#ArialMT-30"/>
       <use xlink:href="#ArialMT-2e" x="55.615234"/>
       <use xlink:href="#ArialMT-30" x="83.398438"/>
       <use xlink:href="#ArialMT-30" x="139.013672"/>
      </g>
     </g>
    </g>
    <g id="ytick_6">
     <g id="text_16">
      <!-- 0.25 -->
      <g style="fill: #262626" transform="translate(59.092969 180.516797) scale(0.11 -0.11)">
       <use xlink:href="#ArialMT-30"/>
       <use xlink:href="#ArialMT-2e" x="55.615234"/>
       <use xlink:href="#ArialMT-32" x="83.398438"/>
       <use xlink:href="#ArialMT-35" x="139.013672"/>
      </g>
     </g>
    </g>
    <g id="ytick_7">
     <g id="text_17">
      <!-- 0.50 -->
      <g style="fill: #262626" transform="translate(59.092969 138.936797) scale(0.11 -0.11)">
       <use xlink:href="#ArialMT-30"/>
       <use xlink:href="#ArialMT-2e" x="55.615234"/>
       <use xlink:href="#ArialMT-35" x="83.398438"/>
       <use xlink:href="#ArialMT-30" x="139.013672"/>
      </g>
     </g>
    </g>
    <g id="ytick_8">
     <g id="text_18">
      <!-- 0.75 -->
      <g style="fill: #262626" transform="translate(59.092969 97.356797) scale(0.11 -0.11)">
       <use xlink:href="#ArialMT-30"/>
       <use xlink:href="#ArialMT-2e" x="55.615234"/>
       <use xlink:href="#ArialMT-37" x="83.398438"/>
       <use xlink:href="#ArialMT-35" x="139.013672"/>
      </g>
     </g>
    </g>
    <g id="ytick_9">
     <g id="text_19">
      <!-- 1.00 -->
      <g style="fill: #262626" transform="translate(59.092969 55.776797) scale(0.11 -0.11)">
       <use xlink:href="#ArialMT-31"/>
       <use xlink:href="#ArialMT-2e" x="55.615234"/>
       <use xlink:href="#ArialMT-30" x="83.398438"/>
       <use xlink:href="#ArialMT-30" x="139.013672"/>
      </g>
     </g>
    </g>
    <g id="text_20">
     <!-- PC2 -->
     <g style="fill: #262626" transform="translate(45.488281 233.7225) rotate(-90) scale(0.16 -0.16)">
      <use xlink:href="#ArialMT-50"/>
      <use xlink:href="#ArialMT-43" x="66.699219"/>
      <use xlink:href="#ArialMT-32" x="138.916016"/>
     </g>
    </g>
   </g>
   <g id="patch_3">
    <path d="M 515.460165 197.389289 
L 503.503206 203.359046 
L 501.921203 199.394841 
L 369.032286 218.240902 
L 368.967714 218.079098 
L 501.856631 199.233036 
L 500.274628 195.268831 
z
" clip-path="url(#pa95f8dbfdc)" style="fill: #1f77b4; stroke: #1f77b4; stroke-linejoin: miter"/>
   </g>
   <g id="patch_4">
    <path d="M 346.146351 260.8854 
L 343.738971 251.699254 
L 350.251405 252.937176 
L 368.867093 218.134736 
L 369.132907 218.185264 
L 350.517219 252.987703 
L 357.029652 254.225625 
z
" clip-path="url(#pa95f8dbfdc)" style="fill: #1f77b4; stroke: #1f77b4; stroke-linejoin: miter"/>
   </g>
   <g id="patch_5">
    <path d="M 326.523224 87.128502 
L 336.018368 94.504509 
L 329.307036 95.277662 
L 369.136966 218.144221 
L 368.863034 218.175779 
L 329.033104 95.309219 
L 322.321773 96.082371 
z
" clip-path="url(#pa95f8dbfdc)" style="fill: #1f77b4; stroke: #1f77b4; stroke-linejoin: miter"/>
   </g>
   <g id="patch_6">
    <path d="M 580.625554 268.193058 
L 565.086726 268.992395 
L 567.606712 265.204571 
L 368.948572 218.237303 
L 369.051428 218.082697 
L 567.709569 265.049966 
L 570.229555 261.262143 
z
" clip-path="url(#pa95f8dbfdc)" style="fill: #1f77b4; stroke: #1f77b4; stroke-linejoin: miter"/>
   </g>
   <g id="patch_7">
    <path d="M 463.854351 139.790192 
L 461.348346 148.96696 
L 455.805103 146.582704 
L 369.113127 218.208658 
L 368.886873 218.111342 
L 455.578848 146.485387 
L 450.035605 144.101131 
z
" clip-path="url(#pa95f8dbfdc)" style="fill: #1f77b4; stroke: #1f77b4; stroke-linejoin: miter"/>
   </g>
   <g id="patch_8">
    <path d="M 425.729803 239.026259 
L 410.195217 238.198142 
L 413.784545 234.730291 
L 368.926748 218.230772 
L 369.073252 218.089228 
L 413.931049 234.588746 
L 417.520377 231.120894 
z
" clip-path="url(#pa95f8dbfdc)" style="fill: #1f77b4; stroke: #1f77b4; stroke-linejoin: miter"/>
   </g>
   <g id="patch_9">
    <path d="M 263.004506 282.320203 
L 267.82336 273.477542 
L 272.693584 276.336786 
L 368.900608 218.101648 
L 369.099392 218.218352 
L 272.892369 276.45349 
L 277.762593 279.312733 
z
" clip-path="url(#pa95f8dbfdc)" style="fill: #1f77b4; stroke: #1f77b4; stroke-linejoin: miter"/>
   </g>
   <g id="line2d_1">
    <path d="M 90 218.16 
L 648 218.16 
" clip-path="url(#pa95f8dbfdc)" style="fill: none; stroke: #808080; stroke-linecap: round"/>
   </g>
   <g id="line2d_2">
    <path d="M 369 384.48 
L 369 51.84 
" clip-path="url(#pa95f8dbfdc)" style="fill: none; stroke: #808080; stroke-linecap: round"/>
   </g>
   <g id="patch_10">
    <path d="M 90 384.48 
L 90 51.84 
" style="fill: none; stroke: #262626; stroke-width: 1.25; stroke-linejoin: miter; stroke-linecap: square"/>
   </g>
   <g id="patch_11">
    <path d="M 648 384.48 
L 648 51.84 
" style="fill: none; stroke: #262626; stroke-width: 1.25; stroke-linejoin: miter; stroke-linecap: square"/>
   </g>
   <g id="patch_12">
    <path d="M 90 384.48 
L 648 384.48 
" style="fill: none; stroke: #262626; stroke-width: 1.25; stroke-linejoin: miter; stroke-linecap: square"/>
   </g>
   <g id="patch_13">
    <path d="M 90 51.84 
L 648 51.84 
" style="fill: none; stroke: #262626; stroke-width: 1.25; stroke-linejoin: miter; stroke-linecap: square"/>
   </g>
   <g id="text_21">
    <path d="M 526.591146 198.738673 
L 526.591146 187.286173 
L 534.873646 187.286173 
L 534.873646 188.636173 
L 528.108646 188.636173 
L 528.108646 192.143673 
L 534.443646 192.143673 
L 534.443646 193.488673 
L 528.108646 193.488673 
L 528.108646 197.386173 
L 535.138646 197.386173 
L 535.138646 198.738673 
L 526.591146 198.738673 
z
M 536.663021 193.091173 
Q 536.663021 191.058673 537.080521 189.821173 
Q 537.498021 188.581173 538.320521 187.911173 
Q 539.145521 187.238673 540.395521 187.238673 
Q 541.318021 187.238673 542.013021 187.611173 
Q 542.708021 187.981173 543.160521 188.681173 
Q 543.615521 189.378673 543.873021 190.383673 
Q 544.130521 191.386173 544.130521 193.091173 
Q 544.130521 195.106173 543.715521 196.343673 
Q 543.303021 197.581173 542.478021 198.258673 
Q 541.655521 198.933673 540.395521 198.933673 
Q 538.740521 198.933673 537.795521 197.746173 
Q 536.663021 196.316173 536.663021 193.091173 
z
M 538.108021 193.091173 
Q 538.108021 195.911173 538.768021 196.846173 
Q 539.428021 197.778673 540.395521 197.778673 
Q 541.365521 197.778673 542.025521 196.841173 
Q 542.685521 195.903673 542.685521 193.091173 
Q 542.685521 190.261173 542.025521 189.333673 
Q 541.365521 188.403673 540.380521 188.403673 
Q 539.413021 188.403673 538.833021 189.223673 
Q 538.108021 190.268673 538.108021 193.091173 
z
" style="stroke: #ffffff; stroke-width: 3"/>
    <path d="M 526.591146 198.738673 
L 526.591146 187.286173 
L 534.873646 187.286173 
L 534.873646 188.636173 
L 528.108646 188.636173 
L 528.108646 192.143673 
L 534.443646 192.143673 
L 534.443646 193.488673 
L 528.108646 193.488673 
L 528.108646 197.386173 
L 535.138646 197.386173 
L 535.138646 198.738673 
L 526.591146 198.738673 
z
M 536.663021 193.091173 
Q 536.663021 191.058673 537.080521 189.821173 
Q 537.498021 188.581173 538.320521 187.911173 
Q 539.145521 187.238673 540.395521 187.238673 
Q 541.318021 187.238673 542.013021 187.611173 
Q 542.708021 187.981173 543.160521 188.681173 
Q 543.615521 189.378673 543.873021 190.383673 
Q 544.130521 191.386173 544.130521 193.091173 
Q 544.130521 195.106173 543.715521 196.343673 
Q 543.303021 197.581173 542.478021 198.258673 
Q 541.655521 198.933673 540.395521 198.933673 
Q 538.740521 198.933673 537.795521 197.746173 
Q 536.663021 196.316173 536.663021 193.091173 
z
M 538.108021 193.091173 
Q 538.108021 195.911173 538.768021 196.846173 
Q 539.428021 197.778673 540.395521 197.778673 
Q 541.365521 197.778673 542.025521 196.841173 
Q 542.685521 195.903673 542.685521 193.091173 
Q 542.685521 190.261173 542.025521 189.333673 
Q 541.365521 188.403673 540.380521 188.403673 
Q 539.413021 188.403673 538.833021 189.223673 
Q 538.108021 190.268673 538.108021 193.091173 
z
"/>
   </g>
   <g id="text_22">
    <path d="M 343.62164 264.841799 
L 343.62164 269.076799 
L 342.22414 269.076799 
L 342.22414 258.036799 
Q 342.22414 256.716799 342.57914 255.971799 
Q 342.93414 255.224299 343.80164 254.736799 
Q 344.66914 254.249299 345.73164 254.249299 
Q 347.30164 254.249299 348.10914 255.151799 
Q 348.91914 256.051799 348.91914 257.124299 
Q 348.91914 258.169299 348.26664 258.811799 
Q 347.61414 259.451799 346.76914 259.599299 
Q 348.12914 259.731799 348.86664 260.576799 
Q 349.60664 261.419299 349.60664 262.654299 
Q 349.60664 263.981799 348.73414 265.034299 
Q 347.86414 266.084299 346.21414 266.084299 
Q 344.52664 266.084299 343.62164 264.841799 
z
M 344.86414 259.146799 
Q 346.30164 259.146799 346.95664 258.646799 
Q 347.61414 258.146799 347.61414 257.201799 
Q 347.61414 256.436799 347.05414 255.921799 
Q 346.49664 255.404299 345.66164 255.404299 
Q 344.93414 255.404299 344.39914 255.786799 
Q 343.86414 256.169299 343.74164 256.639299 
Q 343.62164 257.106799 343.62164 258.279299 
L 343.62164 261.426799 
Q 343.62164 262.771799 343.80914 263.404299 
Q 343.99664 264.036799 344.61414 264.544299 
Q 345.23164 265.051799 346.03664 265.051799 
Q 347.01164 265.051799 347.57664 264.384299 
Q 348.14414 263.716799 348.14414 262.731799 
Q 348.14414 261.919299 347.72664 261.276799 
Q 347.30914 260.631799 346.69414 260.401799 
Q 346.08164 260.169299 345.06664 260.169299 
L 344.86414 260.169299 
L 344.86414 259.146799 
z
" style="stroke: #ffffff; stroke-width: 3"/>
    <path d="M 343.62164 264.841799 
L 343.62164 269.076799 
L 342.22414 269.076799 
L 342.22414 258.036799 
Q 342.22414 256.716799 342.57914 255.971799 
Q 342.93414 255.224299 343.80164 254.736799 
Q 344.66914 254.249299 345.73164 254.249299 
Q 347.30164 254.249299 348.10914 255.151799 
Q 348.91914 256.051799 348.91914 257.124299 
Q 348.91914 258.169299 348.26664 258.811799 
Q 347.61414 259.451799 346.76914 259.599299 
Q 348.12914 259.731799 348.86664 260.576799 
Q 349.60664 261.419299 349.60664 262.654299 
Q 349.60664 263.981799 348.73414 265.034299 
Q 347.86414 266.084299 346.21414 266.084299 
Q 344.52664 266.084299 343.62164 264.841799 
z
M 344.86414 259.146799 
Q 346.30164 259.146799 346.95664 258.646799 
Q 347.61414 258.146799 347.61414 257.201799 
Q 347.61414 256.436799 347.05414 255.921799 
Q 346.49664 255.404299 345.66164 255.404299 
Q 344.93414 255.404299 344.39914 255.786799 
Q 343.86414 256.169299 343.74164 256.639299 
Q 343.62164 257.106799 343.62164 258.279299 
L 343.62164 261.426799 
Q 343.62164 262.771799 343.80914 263.404299 
Q 343.99664 264.036799 344.61414 264.544299 
Q 345.23164 265.051799 346.03664 265.051799 
Q 347.01164 265.051799 347.57664 264.384299 
Q 348.14414 263.716799 348.14414 262.731799 
Q 348.14414 261.919299 347.72664 261.276799 
Q 347.30914 260.631799 346.69414 260.401799 
Q 346.08164 260.169299 345.06664 260.169299 
L 344.86414 260.169299 
L 344.86414 259.146799 
z
"/>
   </g>
   <g id="text_23">
    <path d="M 314.025088 68.71305 
L 314.025088 58.61055 
L 310.252588 58.61055 
L 310.252588 57.26055 
L 319.330088 57.26055 
L 319.330088 58.61055 
L 315.542588 58.61055 
L 315.542588 68.71305 
L 314.025088 68.71305 
z
M 320.316025 63.06555 
Q 320.316025 61.03305 320.733525 59.79555 
Q 321.151025 58.55555 321.973525 57.88555 
Q 322.798525 57.21305 324.048525 57.21305 
Q 324.971025 57.21305 325.666025 57.58555 
Q 326.361025 57.95555 326.813525 58.65555 
Q 327.268525 59.35305 327.526025 60.35805 
Q 327.783525 61.36055 327.783525 63.06555 
Q 327.783525 65.08055 327.368525 66.31805 
Q 326.956025 67.55555 326.131025 68.23305 
Q 325.308525 68.90805 324.048525 68.90805 
Q 322.393525 68.90805 321.448525 67.72055 
Q 320.316025 66.29055 320.316025 63.06555 
z
M 321.761025 63.06555 
Q 321.761025 65.88555 322.421025 66.82055 
Q 323.081025 67.75305 324.048525 67.75305 
Q 325.018525 67.75305 325.678525 66.81555 
Q 326.338525 65.87805 326.338525 63.06555 
Q 326.338525 60.23555 325.678525 59.30805 
Q 325.018525 58.37805 324.033525 58.37805 
Q 323.066025 58.37805 322.486025 59.19805 
Q 321.761025 60.24305 321.761025 63.06555 
z
" style="stroke: #ffffff; stroke-width: 3"/>
    <path d="M 314.025088 68.71305 
L 314.025088 58.61055 
L 310.252588 58.61055 
L 310.252588 57.26055 
L 319.330088 57.26055 
L 319.330088 58.61055 
L 315.542588 58.61055 
L 315.542588 68.71305 
L 314.025088 68.71305 
z
M 320.316025 63.06555 
Q 320.316025 61.03305 320.733525 59.79555 
Q 321.151025 58.55555 321.973525 57.88555 
Q 322.798525 57.21305 324.048525 57.21305 
Q 324.971025 57.21305 325.666025 57.58555 
Q 326.361025 57.95555 326.813525 58.65555 
Q 327.268525 59.35305 327.526025 60.35805 
Q 327.783525 61.36055 327.783525 63.06555 
Q 327.783525 65.08055 327.368525 66.31805 
Q 326.956025 67.55555 326.131025 68.23305 
Q 325.308525 68.90805 324.048525 68.90805 
Q 322.393525 68.90805 321.448525 67.72055 
Q 320.316025 66.29055 320.316025 63.06555 
z
M 321.761025 63.06555 
Q 321.761025 65.88555 322.421025 66.82055 
Q 323.081025 67.75305 324.048525 67.75305 
Q 325.018525 67.75305 325.678525 66.81555 
Q 326.338525 65.87805 326.338525 63.06555 
Q 326.338525 60.23555 325.678525 59.30805 
Q 325.018525 58.37805 324.033525 58.37805 
Q 323.066025 58.37805 322.486025 59.19805 
Q 321.761025 60.24305 321.761025 63.06555 
z
"/>
   </g>
   <g id="text_24">
    <path d="M 614.228925 269.552836 
L 620.486425 269.552836 
L 620.486425 270.692836 
L 616.111425 270.692836 
Q 616.891425 271.490336 618.556425 272.637836 
Q 620.041425 273.670336 620.626425 274.552836 
Q 621.213925 275.435336 621.213925 276.942836 
Q 621.213925 278.965336 620.123925 280.080336 
Q 619.033925 281.192836 617.283925 281.192836 
Q 615.368925 281.192836 614.398925 279.942836 
Q 613.431425 278.692836 613.431425 276.972836 
Q 613.431425 274.972836 614.453925 273.922836 
Q 615.478925 272.872836 616.901425 272.817836 
Q 616.173925 272.310336 614.228925 270.567836 
L 614.228925 269.552836 
z
M 614.868925 276.990336 
Q 614.868925 278.317836 615.566425 279.177836 
Q 616.266425 280.035336 617.353925 280.035336 
Q 618.306425 280.035336 619.036425 279.302836 
Q 619.766425 278.567836 619.766425 276.982836 
Q 619.766425 275.512836 619.071425 274.707836 
Q 618.376425 273.902836 617.321425 273.902836 
Q 616.158925 273.902836 615.513925 274.810336 
Q 614.868925 275.715336 614.868925 276.990336 
z
" style="stroke: #ffffff; stroke-width: 3"/>
    <path d="M 614.228925 269.552836 
L 620.486425 269.552836 
L 620.486425 270.692836 
L 616.111425 270.692836 
Q 616.891425 271.490336 618.556425 272.637836 
Q 620.041425 273.670336 620.626425 274.552836 
Q 621.213925 275.435336 621.213925 276.942836 
Q 621.213925 278.965336 620.123925 280.080336 
Q 619.033925 281.192836 617.283925 281.192836 
Q 615.368925 281.192836 614.398925 279.942836 
Q 613.431425 278.692836 613.431425 276.972836 
Q 613.431425 274.972836 614.453925 273.922836 
Q 615.478925 272.872836 616.901425 272.817836 
Q 616.173925 272.310336 614.228925 270.567836 
L 614.228925 269.552836 
z
M 614.868925 276.990336 
Q 614.868925 278.317836 615.566425 279.177836 
Q 616.266425 280.035336 617.353925 280.035336 
Q 618.306425 280.035336 619.036425 279.302836 
Q 619.766425 278.567836 619.766425 276.982836 
Q 619.766425 275.512836 619.071425 274.707836 
Q 618.376425 273.902836 617.321425 273.902836 
Q 616.158925 273.902836 615.513925 274.810336 
Q 614.868925 275.715336 614.868925 276.990336 
z
"/>
   </g>
   <g id="text_25">
    <path d="M 479.814969 121.120057 
L 479.814969 122.282557 
L 478.664969 122.282557 
Q 477.384969 122.282557 476.809969 122.662557 
Q 476.234969 123.040057 476.234969 123.745057 
Q 476.234969 125.087557 478.572469 125.087557 
L 479.719969 125.087557 
L 479.719969 126.252557 
Q 478.689969 126.252557 477.922469 126.557557 
Q 477.157469 126.860057 476.542469 127.650057 
Q 475.929969 128.440057 475.929969 129.440057 
Q 475.929969 130.190057 476.372469 130.775057 
Q 476.814969 131.360057 478.267469 131.525057 
Q 479.204969 131.635057 479.642469 131.872557 
Q 480.079969 132.110057 480.367469 132.595057 
Q 480.657469 133.080057 480.657469 133.642557 
Q 480.657469 134.675057 479.804969 135.397557 
Q 478.954969 136.120057 477.509969 136.135057 
L 477.867469 134.830057 
Q 478.642469 134.775057 478.964969 134.430057 
Q 479.289969 134.087557 479.289969 133.727557 
Q 479.289969 132.932557 477.954969 132.782557 
Q 474.502469 132.407557 474.502469 129.485057 
Q 474.502469 128.290057 475.214969 127.337557 
Q 475.929969 126.385057 477.039969 125.907557 
Q 475.929969 125.767557 475.424969 125.070057 
Q 474.922469 124.370057 474.922469 123.642557 
Q 474.922469 122.627557 475.817469 121.875057 
Q 476.712469 121.120057 478.422469 121.120057 
L 479.814969 121.120057 
z
" style="stroke: #ffffff; stroke-width: 3"/>
    <path d="M 479.814969 121.120057 
L 479.814969 122.282557 
L 478.664969 122.282557 
Q 477.384969 122.282557 476.809969 122.662557 
Q 476.234969 123.040057 476.234969 123.745057 
Q 476.234969 125.087557 478.572469 125.087557 
L 479.719969 125.087557 
L 479.719969 126.252557 
Q 478.689969 126.252557 477.922469 126.557557 
Q 477.157469 126.860057 476.542469 127.650057 
Q 475.929969 128.440057 475.929969 129.440057 
Q 475.929969 130.190057 476.372469 130.775057 
Q 476.814969 131.360057 478.267469 131.525057 
Q 479.204969 131.635057 479.642469 131.872557 
Q 480.079969 132.110057 480.367469 132.595057 
Q 480.657469 133.080057 480.657469 133.642557 
Q 480.657469 134.675057 479.804969 135.397557 
Q 478.954969 136.120057 477.509969 136.135057 
L 477.867469 134.830057 
Q 478.642469 134.775057 478.964969 134.430057 
Q 479.289969 134.087557 479.289969 133.727557 
Q 479.289969 132.932557 477.954969 132.782557 
Q 474.502469 132.407557 474.502469 129.485057 
Q 474.502469 128.290057 475.214969 127.337557 
Q 475.929969 126.385057 477.039969 125.907557 
Q 475.929969 125.767557 475.424969 125.070057 
Q 474.922469 124.370057 474.922469 123.642557 
Q 474.922469 122.627557 475.817469 121.875057 
Q 476.712469 121.120057 478.422469 121.120057 
L 479.814969 121.120057 
z
"/>
   </g>
   <g id="text_26">
    <path d="M 427.093496 241.898148 
Q 426.310996 242.560648 425.588496 242.835648 
Q 424.865996 243.108148 424.038496 243.108148 
Q 422.670996 243.108148 421.935996 242.440648 
Q 421.200996 241.773148 421.200996 240.733148 
Q 421.200996 240.123148 421.478496 239.620648 
Q 421.755996 239.115648 422.205996 238.810648 
Q 422.655996 238.505648 423.218496 238.350648 
Q 423.630996 238.240648 424.468496 238.138148 
Q 426.170996 237.935648 426.975996 237.655648 
Q 426.983496 237.365648 426.983496 237.288148 
Q 426.983496 236.428148 426.583496 236.075648 
Q 426.045996 235.600648 424.983496 235.600648 
Q 423.990996 235.600648 423.518496 235.948148 
Q 423.045996 236.295648 422.818496 237.178148 
L 421.443496 236.990648 
Q 421.630996 236.108148 422.060996 235.565648 
Q 422.490996 235.023148 423.303496 234.730648 
Q 424.115996 234.435648 425.185996 234.435648 
Q 426.248496 234.435648 426.910996 234.685648 
Q 427.575996 234.935648 427.888496 235.315648 
Q 428.200996 235.693148 428.325996 236.273148 
Q 428.395996 236.630648 428.395996 237.568148 
L 428.395996 239.443148 
Q 428.395996 241.405648 428.485996 241.925648 
Q 428.575996 242.443148 428.843496 242.920648 
L 427.373496 242.920648 
Q 427.155996 242.483148 427.093496 241.898148 
z
M 426.975996 238.755648 
Q 426.208496 239.068148 424.678496 239.288148 
Q 423.810996 239.413148 423.450996 239.570648 
Q 423.093496 239.725648 422.895996 240.025648 
Q 422.700996 240.325648 422.700996 240.693148 
Q 422.700996 241.255648 423.125996 241.630648 
Q 423.553496 242.005648 424.373496 242.005648 
Q 425.185996 242.005648 425.818496 241.650648 
Q 426.450996 241.295648 426.748496 240.678148 
Q 426.975996 240.200648 426.975996 239.273148 
L 426.975996 238.755648 
z
" style="stroke: #ffffff; stroke-width: 3"/>
    <path d="M 427.093496 241.898148 
Q 426.310996 242.560648 425.588496 242.835648 
Q 424.865996 243.108148 424.038496 243.108148 
Q 422.670996 243.108148 421.935996 242.440648 
Q 421.200996 241.773148 421.200996 240.733148 
Q 421.200996 240.123148 421.478496 239.620648 
Q 421.755996 239.115648 422.205996 238.810648 
Q 422.655996 238.505648 423.218496 238.350648 
Q 423.630996 238.240648 424.468496 238.138148 
Q 426.170996 237.935648 426.975996 237.655648 
Q 426.983496 237.365648 426.983496 237.288148 
Q 426.983496 236.428148 426.583496 236.075648 
Q 426.045996 235.600648 424.983496 235.600648 
Q 423.990996 235.600648 423.518496 235.948148 
Q 423.045996 236.295648 422.818496 237.178148 
L 421.443496 236.990648 
Q 421.630996 236.108148 422.060996 235.565648 
Q 422.490996 235.023148 423.303496 234.730648 
Q 424.115996 234.435648 425.185996 234.435648 
Q 426.248496 234.435648 426.910996 234.685648 
Q 427.575996 234.935648 427.888496 235.315648 
Q 428.200996 235.693148 428.325996 236.273148 
Q 428.395996 236.630648 428.395996 237.568148 
L 428.395996 239.443148 
Q 428.395996 241.405648 428.485996 241.925648 
Q 428.575996 242.443148 428.843496 242.920648 
L 427.373496 242.920648 
Q 427.155996 242.483148 427.093496 241.898148 
z
M 426.975996 238.755648 
Q 426.208496 239.068148 424.678496 239.288148 
Q 423.810996 239.413148 423.450996 239.570648 
Q 423.093496 239.725648 422.895996 240.025648 
Q 422.700996 240.325648 422.700996 240.693148 
Q 422.700996 241.255648 423.125996 241.630648 
Q 423.553496 242.005648 424.373496 242.005648 
Q 425.185996 242.005648 425.818496 241.650648 
Q 426.450996 241.295648 426.748496 240.678148 
Q 426.975996 240.200648 426.975996 239.273148 
L 426.975996 238.755648 
z
"/>
   </g>
   <g id="text_27">
    <path d="M 240.311221 283.637672 
L 246.568721 283.637672 
L 246.568721 284.777672 
L 242.193721 284.777672 
Q 242.973721 285.575172 244.638721 286.722672 
Q 246.123721 287.755172 246.708721 288.637672 
Q 247.296221 289.520172 247.296221 291.027672 
Q 247.296221 293.050172 246.206221 294.165172 
Q 245.116221 295.277672 243.366221 295.277672 
Q 241.451221 295.277672 240.481221 294.027672 
Q 239.513721 292.777672 239.513721 291.057672 
Q 239.513721 289.057672 240.536221 288.007672 
Q 241.561221 286.957672 242.983721 286.902672 
Q 242.256221 286.395172 240.311221 284.652672 
L 240.311221 283.637672 
z
M 240.951221 291.075172 
Q 240.951221 292.402672 241.648721 293.262672 
Q 242.348721 294.120172 243.436221 294.120172 
Q 244.388721 294.120172 245.118721 293.387672 
Q 245.848721 292.652672 245.848721 291.067672 
Q 245.848721 289.597672 245.153721 288.792672 
Q 244.458721 287.987672 243.403721 287.987672 
Q 242.241221 287.987672 241.596221 288.895172 
Q 240.951221 289.800172 240.951221 291.075172 
z
M 249.122471 295.090172 
L 249.122471 283.637672 
L 257.404971 283.637672 
L 257.404971 284.987672 
L 250.639971 284.987672 
L 250.639971 288.495172 
L 256.974971 288.495172 
L 256.974971 289.840172 
L 250.639971 289.840172 
L 250.639971 293.737672 
L 257.669971 293.737672 
L 257.669971 295.090172 
L 249.122471 295.090172 
z
" style="stroke: #ffffff; stroke-width: 3"/>
    <path d="M 240.311221 283.637672 
L 246.568721 283.637672 
L 246.568721 284.777672 
L 242.193721 284.777672 
Q 242.973721 285.575172 244.638721 286.722672 
Q 246.123721 287.755172 246.708721 288.637672 
Q 247.296221 289.520172 247.296221 291.027672 
Q 247.296221 293.050172 246.206221 294.165172 
Q 245.116221 295.277672 243.366221 295.277672 
Q 241.451221 295.277672 240.481221 294.027672 
Q 239.513721 292.777672 239.513721 291.057672 
Q 239.513721 289.057672 240.536221 288.007672 
Q 241.561221 286.957672 242.983721 286.902672 
Q 242.256221 286.395172 240.311221 284.652672 
L 240.311221 283.637672 
z
M 240.951221 291.075172 
Q 240.951221 292.402672 241.648721 293.262672 
Q 242.348721 294.120172 243.436221 294.120172 
Q 244.388721 294.120172 245.118721 293.387672 
Q 245.848721 292.652672 245.848721 291.067672 
Q 245.848721 289.597672 245.153721 288.792672 
Q 244.458721 287.987672 243.403721 287.987672 
Q 242.241221 287.987672 241.596221 288.895172 
Q 240.951221 289.800172 240.951221 291.075172 
z
M 249.122471 295.090172 
L 249.122471 283.637672 
L 257.404971 283.637672 
L 257.404971 284.987672 
L 250.639971 284.987672 
L 250.639971 288.495172 
L 256.974971 288.495172 
L 256.974971 289.840172 
L 250.639971 289.840172 
L 250.639971 293.737672 
L 257.669971 293.737672 
L 257.669971 295.090172 
L 249.122471 295.090172 
z
"/>
   </g>
   <g id="text_28">
    <!-- PC1 vs PC2 Loadings -->
    <g style="fill: #262626" transform="translate(290.7375 45.84) scale(0.16 -0.16)">
     <defs>
      <path id="ArialMT-20" transform="scale(0.015625)"/>
      <path id="ArialMT-76" d="M 1344 0 
L 81 3319 
L 675 3319 
L 1388 1331 
Q 1503 1009 1600 663 
Q 1675 925 1809 1294 
L 2547 3319 
L 3125 3319 
L 1869 0 
L 1344 0 
z
" transform="scale(0.015625)"/>
      <path id="ArialMT-73" d="M 197 991 
L 753 1078 
Q 800 744 1014 566 
Q 1228 388 1613 388 
Q 2000 388 2187 545 
Q 2375 703 2375 916 
Q 2375 1106 2209 1216 
Q 2094 1291 1634 1406 
Q 1016 1563 777 1677 
Q 538 1791 414 1992 
Q 291 2194 291 2438 
Q 291 2659 392 2848 
Q 494 3038 669 3163 
Q 800 3259 1026 3326 
Q 1253 3394 1513 3394 
Q 1903 3394 2198 3281 
Q 2494 3169 2634 2976 
Q 2775 2784 2828 2463 
L 2278 2388 
Q 2241 2644 2061 2787 
Q 1881 2931 1553 2931 
Q 1166 2931 1000 2803 
Q 834 2675 834 2503 
Q 834 2394 903 2306 
Q 972 2216 1119 2156 
Q 1203 2125 1616 2013 
Q 2213 1853 2448 1751 
Q 2684 1650 2818 1456 
Q 2953 1263 2953 975 
Q 2953 694 2789 445 
Q 2625 197 2315 61 
Q 2006 -75 1616 -75 
Q 969 -75 630 194 
Q 291 463 197 991 
z
" transform="scale(0.015625)"/>
      <path id="ArialMT-4c" d="M 469 0 
L 469 4581 
L 1075 4581 
L 1075 541 
L 3331 541 
L 3331 0 
L 469 0 
z
" transform="scale(0.015625)"/>
      <path id="ArialMT-6f" d="M 213 1659 
Q 213 2581 725 3025 
Q 1153 3394 1769 3394 
Q 2453 3394 2887 2945 
Q 3322 2497 3322 1706 
Q 3322 1066 3130 698 
Q 2938 331 2570 128 
Q 2203 -75 1769 -75 
Q 1072 -75 642 372 
Q 213 819 213 1659 
z
M 791 1659 
Q 791 1022 1069 705 
Q 1347 388 1769 388 
Q 2188 388 2466 706 
Q 2744 1025 2744 1678 
Q 2744 2294 2464 2611 
Q 2184 2928 1769 2928 
Q 1347 2928 1069 2612 
Q 791 2297 791 1659 
z
" transform="scale(0.015625)"/>
      <path id="ArialMT-61" d="M 2588 409 
Q 2275 144 1986 34 
Q 1697 -75 1366 -75 
Q 819 -75 525 192 
Q 231 459 231 875 
Q 231 1119 342 1320 
Q 453 1522 633 1644 
Q 813 1766 1038 1828 
Q 1203 1872 1538 1913 
Q 2219 1994 2541 2106 
Q 2544 2222 2544 2253 
Q 2544 2597 2384 2738 
Q 2169 2928 1744 2928 
Q 1347 2928 1158 2789 
Q 969 2650 878 2297 
L 328 2372 
Q 403 2725 575 2942 
Q 747 3159 1072 3276 
Q 1397 3394 1825 3394 
Q 2250 3394 2515 3294 
Q 2781 3194 2906 3042 
Q 3031 2891 3081 2659 
Q 3109 2516 3109 2141 
L 3109 1391 
Q 3109 606 3145 398 
Q 3181 191 3288 0 
L 2700 0 
Q 2613 175 2588 409 
z
M 2541 1666 
Q 2234 1541 1622 1453 
Q 1275 1403 1131 1340 
Q 988 1278 909 1158 
Q 831 1038 831 891 
Q 831 666 1001 516 
Q 1172 366 1500 366 
Q 1825 366 2078 508 
Q 2331 650 2450 897 
Q 2541 1088 2541 1459 
L 2541 1666 
z
" transform="scale(0.015625)"/>
      <path id="ArialMT-64" d="M 2575 0 
L 2575 419 
Q 2259 -75 1647 -75 
Q 1250 -75 917 144 
Q 584 363 401 755 
Q 219 1147 219 1656 
Q 219 2153 384 2558 
Q 550 2963 881 3178 
Q 1213 3394 1622 3394 
Q 1922 3394 2156 3267 
Q 2391 3141 2538 2938 
L 2538 4581 
L 3097 4581 
L 3097 0 
L 2575 0 
z
M 797 1656 
Q 797 1019 1065 703 
Q 1334 388 1700 388 
Q 2069 388 2326 689 
Q 2584 991 2584 1609 
Q 2584 2291 2321 2609 
Q 2059 2928 1675 2928 
Q 1300 2928 1048 2622 
Q 797 2316 797 1656 
z
" transform="scale(0.015625)"/>
      <path id="ArialMT-69" d="M 425 3934 
L 425 4581 
L 988 4581 
L 988 3934 
L 425 3934 
z
M 425 0 
L 425 3319 
L 988 3319 
L 988 0 
L 425 0 
z
" transform="scale(0.015625)"/>
      <path id="ArialMT-6e" d="M 422 0 
L 422 3319 
L 928 3319 
L 928 2847 
Q 1294 3394 1984 3394 
Q 2284 3394 2536 3286 
Q 2788 3178 2913 3003 
Q 3038 2828 3088 2588 
Q 3119 2431 3119 2041 
L 3119 0 
L 2556 0 
L 2556 2019 
Q 2556 2363 2490 2533 
Q 2425 2703 2258 2804 
Q 2091 2906 1866 2906 
Q 1506 2906 1245 2678 
Q 984 2450 984 1813 
L 984 0 
L 422 0 
z
" transform="scale(0.015625)"/>
      <path id="ArialMT-67" d="M 319 -275 
L 866 -356 
Q 900 -609 1056 -725 
Q 1266 -881 1628 -881 
Q 2019 -881 2231 -725 
Q 2444 -569 2519 -288 
Q 2563 -116 2559 434 
Q 2191 0 1641 0 
Q 956 0 581 494 
Q 206 988 206 1678 
Q 206 2153 378 2554 
Q 550 2956 876 3175 
Q 1203 3394 1644 3394 
Q 2231 3394 2613 2919 
L 2613 3319 
L 3131 3319 
L 3131 450 
Q 3131 -325 2973 -648 
Q 2816 -972 2473 -1159 
Q 2131 -1347 1631 -1347 
Q 1038 -1347 672 -1080 
Q 306 -813 319 -275 
z
M 784 1719 
Q 784 1066 1043 766 
Q 1303 466 1694 466 
Q 2081 466 2343 764 
Q 2606 1063 2606 1700 
Q 2606 2309 2336 2618 
Q 2066 2928 1684 2928 
Q 1309 2928 1046 2623 
Q 784 2319 784 1719 
z
" transform="scale(0.015625)"/>
     </defs>
     <use xlink:href="#ArialMT-50"/>
     <use xlink:href="#ArialMT-43" x="66.699219"/>
     <use xlink:href="#ArialMT-31" x="138.916016"/>
     <use xlink:href="#ArialMT-20" x="194.53125"/>
     <use xlink:href="#ArialMT-76" x="222.314453"/>
     <use xlink:href="#ArialMT-73" x="272.314453"/>
     <use xlink:href="#ArialMT-20" x="322.314453"/>
     <use xlink:href="#ArialMT-50" x="350.097656"/>
     <use xlink:href="#ArialMT-43" x="416.796875"/>
     <use xlink:href="#ArialMT-32" x="489.013672"/>
     <use xlink:href="#ArialMT-20" x="544.628906"/>
     <use xlink:href="#ArialMT-4c" x="572.412109"/>
     <use xlink:href="#ArialMT-6f" x="628.027344"/>
     <use xlink:href="#ArialMT-61" x="683.642578"/>
     <use xlink:href="#ArialMT-64" x="739.257812"/>
     <use xlink:href="#ArialMT-69" x="794.873047"/>
     <use xlink:href="#ArialMT-6e" x="817.089844"/>
     <use xlink:href="#ArialMT-67" x="872.705078"/>
     <use xlink:href="#ArialMT-73" x="928.320312"/>
    </g>
   </g>
  </g>
 </g>
 <defs>
  <clipPath id="pa95f8dbfdc">
   <rect x="90" y="51.84" width="558" height="332.64"/>
  </clipPath>
 </defs>
</svg>
