<?xml version="1.0" encoding="utf-8" standalone="no"?>
<!DOCTYPE svg PUBLIC "-//W3C//DTD SVG 1.1//EN"
  "http://www.w3.org/Graphics/SVG/1.1/DTD/svg11.dtd">
<svg xmlns:xlink="http://www.w3.org/1999/xlink" width="864pt" height="432pt" viewBox="0 0 864 432" xmlns="http://www.w3.org/2000/svg" version="1.1">
 <metadata>
  <rdf:RDF xmlns:dc="http://purl.org/dc/elements/1.1/" xmlns:cc="http://creativecommons.org/ns#" xmlns:rdf="http://www.w3.org/1999/02/22-rdf-syntax-ns#">
   <cc:Work>
    <dc:type rdf:resource="http://purl.org/dc/dcmitype/StillImage"/>
    <dc:date>2025-01-23T10:33:25.176247</dc:date>
    <dc:format>image/svg+xml</dc:format>
    <dc:creator>
     <cc:Agent>
      <dc:title>Matplotlib v3.9.2, https://matplotlib.org/</dc:title>
     </cc:Agent>
    </dc:creator>
   </cc:Work>
  </rdf:RDF>
 </metadata>
 <defs>
  <style type="text/css">*{stroke-linejoin: round; stroke-linecap: butt}</style>
 </defs>
 <g id="figure_1">
  <g id="patch_1">
   <path d="M 0 432 
L 864 432 
L 864 0 
L 0 0 
z
" style="fill: #ffffff"/>
  </g>
  <g id="axes_1">
   <g id="patch_2">
    <path d="M 59.67 406.44 
L 409.95 406.44 
L 409.95 46.44 
L 59.67 46.44 
z
" style="fill: #ffffff"/>
   </g>
   <g id="matplotlib.axis_1"/>
   <g id="matplotlib.axis_2">
    <g id="ytick_1">
     <g id="text_1">
      <!-- 0 -->
      <g style="fill: #262626" transform="translate(37.935938 396.22839) scale(0.22 -0.22)">
       <defs>
        <path id="ArialMT-30" d="M 266 2259 
Q 266 3072 433 3567 
Q 600 4063 929 4331 
Q 1259 4600 1759 4600 
Q 2128 4600 2406 4451 
Q 2684 4303 2865 4023 
Q 3047 3744 3150 3342 
Q 3253 2941 3253 2259 
Q 3253 1453 3087 958 
Q 2922 463 2592 192 
Q 2263 -78 1759 -78 
Q 1097 -78 719 397 
Q 266 969 266 2259 
z
M 844 2259 
Q 844 1131 1108 757 
Q 1372 384 1759 384 
Q 2147 384 2411 759 
Q 2675 1134 2675 2259 
Q 2675 3391 2411 3762 
Q 2147 4134 1753 4134 
Q 1366 4134 1134 3806 
Q 844 3388 844 2259 
z
" transform="scale(0.015625)"/>
       </defs>
       <use xlink:href="#ArialMT-30"/>
      </g>
     </g>
    </g>
    <g id="ytick_2">
     <g id="text_2">
      <!-- 1 -->
      <g style="fill: #262626" transform="translate(37.935938 323.887575) scale(0.22 -0.22)">
       <defs>
        <path id="ArialMT-31" d="M 2384 0 
L 1822 0 
L 1822 3584 
Q 1619 3391 1289 3197 
Q 959 3003 697 2906 
L 697 3450 
Q 1169 3672 1522 3987 
Q 1875 4303 2022 4600 
L 2384 4600 
L 2384 0 
z
" transform="scale(0.015625)"/>
       </defs>
       <use xlink:href="#ArialMT-31"/>
      </g>
     </g>
    </g>
    <g id="ytick_3">
     <g id="text_3">
      <!-- 2 -->
      <g style="fill: #262626" transform="translate(37.935938 251.546761) scale(0.22 -0.22)">
       <defs>
        <path id="ArialMT-32" d="M 3222 541 
L 3222 0 
L 194 0 
Q 188 203 259 391 
Q 375 700 629 1000 
Q 884 1300 1366 1694 
Q 2113 2306 2375 2664 
Q 2638 3022 2638 3341 
Q 2638 3675 2398 3904 
Q 2159 4134 1775 4134 
Q 1369 4134 1125 3890 
Q 881 3647 878 3216 
L 300 3275 
Q 359 3922 746 4261 
Q 1134 4600 1788 4600 
Q 2447 4600 2831 4234 
Q 3216 3869 3216 3328 
Q 3216 3053 3103 2787 
Q 2991 2522 2730 2228 
Q 2469 1934 1863 1422 
Q 1356 997 1212 845 
Q 1069 694 975 541 
L 3222 541 
z
" transform="scale(0.015625)"/>
       </defs>
       <use xlink:href="#ArialMT-32"/>
      </g>
     </g>
    </g>
    <g id="ytick_4">
     <g id="text_4">
      <!-- 3 -->
      <g style="fill: #262626" transform="translate(37.935938 179.205946) scale(0.22 -0.22)">
       <defs>
        <path id="ArialMT-33" d="M 269 1209 
L 831 1284 
Q 928 806 1161 595 
Q 1394 384 1728 384 
Q 2125 384 2398 659 
Q 2672 934 2672 1341 
Q 2672 1728 2419 1979 
Q 2166 2231 1775 2231 
Q 1616 2231 1378 2169 
L 1441 2663 
Q 1497 2656 1531 2656 
Q 1891 2656 2178 2843 
Q 2466 3031 2466 3422 
Q 2466 3731 2256 3934 
Q 2047 4138 1716 4138 
Q 1388 4138 1169 3931 
Q 950 3725 888 3313 
L 325 3413 
Q 428 3978 793 4289 
Q 1159 4600 1703 4600 
Q 2078 4600 2393 4439 
Q 2709 4278 2876 4000 
Q 3044 3722 3044 3409 
Q 3044 3113 2884 2869 
Q 2725 2625 2413 2481 
Q 2819 2388 3044 2092 
Q 3269 1797 3269 1353 
Q 3269 753 2831 336 
Q 2394 -81 1725 -81 
Q 1122 -81 723 278 
Q 325 638 269 1209 
z
" transform="scale(0.015625)"/>
       </defs>
       <use xlink:href="#ArialMT-33"/>
      </g>
     </g>
    </g>
    <g id="ytick_5">
     <g id="text_5">
      <!-- 4 -->
      <g style="fill: #262626" transform="translate(37.935938 106.865131) scale(0.22 -0.22)">
       <defs>
        <path id="ArialMT-34" d="M 2069 0 
L 2069 1097 
L 81 1097 
L 81 1613 
L 2172 4581 
L 2631 4581 
L 2631 1613 
L 3250 1613 
L 3250 1097 
L 2631 1097 
L 2631 0 
L 2069 0 
z
M 2069 1613 
L 2069 3678 
L 634 1613 
L 2069 1613 
z
" transform="scale(0.015625)"/>
       </defs>
       <use xlink:href="#ArialMT-34"/>
      </g>
     </g>
    </g>
    <g id="text_6">
     <!-- Scale Value -->
     <g style="fill: #262626" transform="translate(29.563438 284.332656) rotate(-90) scale(0.22 -0.22)">
      <defs>
       <path id="ArialMT-53" d="M 288 1472 
L 859 1522 
Q 900 1178 1048 958 
Q 1197 738 1509 602 
Q 1822 466 2213 466 
Q 2559 466 2825 569 
Q 3091 672 3220 851 
Q 3350 1031 3350 1244 
Q 3350 1459 3225 1620 
Q 3100 1781 2813 1891 
Q 2628 1963 1997 2114 
Q 1366 2266 1113 2400 
Q 784 2572 623 2826 
Q 463 3081 463 3397 
Q 463 3744 659 4045 
Q 856 4347 1234 4503 
Q 1613 4659 2075 4659 
Q 2584 4659 2973 4495 
Q 3363 4331 3572 4012 
Q 3781 3694 3797 3291 
L 3216 3247 
Q 3169 3681 2898 3903 
Q 2628 4125 2100 4125 
Q 1550 4125 1298 3923 
Q 1047 3722 1047 3438 
Q 1047 3191 1225 3031 
Q 1400 2872 2139 2705 
Q 2878 2538 3153 2413 
Q 3553 2228 3743 1945 
Q 3934 1663 3934 1294 
Q 3934 928 3725 604 
Q 3516 281 3123 101 
Q 2731 -78 2241 -78 
Q 1619 -78 1198 103 
Q 778 284 539 648 
Q 300 1013 288 1472 
z
" transform="scale(0.015625)"/>
       <path id="ArialMT-63" d="M 2588 1216 
L 3141 1144 
Q 3050 572 2676 248 
Q 2303 -75 1759 -75 
Q 1078 -75 664 370 
Q 250 816 250 1647 
Q 250 2184 428 2587 
Q 606 2991 970 3192 
Q 1334 3394 1763 3394 
Q 2303 3394 2647 3120 
Q 2991 2847 3088 2344 
L 2541 2259 
Q 2463 2594 2264 2762 
Q 2066 2931 1784 2931 
Q 1359 2931 1093 2626 
Q 828 2322 828 1663 
Q 828 994 1084 691 
Q 1341 388 1753 388 
Q 2084 388 2306 591 
Q 2528 794 2588 1216 
z
" transform="scale(0.015625)"/>
       <path id="ArialMT-61" d="M 2588 409 
Q 2275 144 1986 34 
Q 1697 -75 1366 -75 
Q 819 -75 525 192 
Q 231 459 231 875 
Q 231 1119 342 1320 
Q 453 1522 633 1644 
Q 813 1766 1038 1828 
Q 1203 1872 1538 1913 
Q 2219 1994 2541 2106 
Q 2544 2222 2544 2253 
Q 2544 2597 2384 2738 
Q 2169 2928 1744 2928 
Q 1347 2928 1158 2789 
Q 969 2650 878 2297 
L 328 2372 
Q 403 2725 575 2942 
Q 747 3159 1072 3276 
Q 1397 3394 1825 3394 
Q 2250 3394 2515 3294 
Q 2781 3194 2906 3042 
Q 3031 2891 3081 2659 
Q 3109 2516 3109 2141 
L 3109 1391 
Q 3109 606 3145 398 
Q 3181 191 3288 0 
L 2700 0 
Q 2613 175 2588 409 
z
M 2541 1666 
Q 2234 1541 1622 1453 
Q 1275 1403 1131 1340 
Q 988 1278 909 1158 
Q 831 1038 831 891 
Q 831 666 1001 516 
Q 1172 366 1500 366 
Q 1825 366 2078 508 
Q 2331 650 2450 897 
Q 2541 1088 2541 1459 
L 2541 1666 
z
" transform="scale(0.015625)"/>
       <path id="ArialMT-6c" d="M 409 0 
L 409 4581 
L 972 4581 
L 972 0 
L 409 0 
z
" transform="scale(0.015625)"/>
       <path id="ArialMT-65" d="M 2694 1069 
L 3275 997 
Q 3138 488 2766 206 
Q 2394 -75 1816 -75 
Q 1088 -75 661 373 
Q 234 822 234 1631 
Q 234 2469 665 2931 
Q 1097 3394 1784 3394 
Q 2450 3394 2872 2941 
Q 3294 2488 3294 1666 
Q 3294 1616 3291 1516 
L 816 1516 
Q 847 969 1125 678 
Q 1403 388 1819 388 
Q 2128 388 2347 550 
Q 2566 713 2694 1069 
z
M 847 1978 
L 2700 1978 
Q 2663 2397 2488 2606 
Q 2219 2931 1791 2931 
Q 1403 2931 1139 2672 
Q 875 2413 847 1978 
z
" transform="scale(0.015625)"/>
       <path id="ArialMT-20" transform="scale(0.015625)"/>
       <path id="ArialMT-56" d="M 1803 0 
L 28 4581 
L 684 4581 
L 1875 1253 
Q 2019 853 2116 503 
Q 2222 878 2363 1253 
L 3600 4581 
L 4219 4581 
L 2425 0 
L 1803 0 
z
" transform="scale(0.015625)"/>
       <path id="ArialMT-75" d="M 2597 0 
L 2597 488 
Q 2209 -75 1544 -75 
Q 1250 -75 995 37 
Q 741 150 617 320 
Q 494 491 444 738 
Q 409 903 409 1263 
L 409 3319 
L 972 3319 
L 972 1478 
Q 972 1038 1006 884 
Q 1059 663 1231 536 
Q 1403 409 1656 409 
Q 1909 409 2131 539 
Q 2353 669 2445 892 
Q 2538 1116 2538 1541 
L 2538 3319 
L 3100 3319 
L 3100 0 
L 2597 0 
z
" transform="scale(0.015625)"/>
      </defs>
      <use xlink:href="#ArialMT-53"/>
      <use xlink:href="#ArialMT-63" x="66.699219"/>
      <use xlink:href="#ArialMT-61" x="116.699219"/>
      <use xlink:href="#ArialMT-6c" x="172.314453"/>
      <use xlink:href="#ArialMT-65" x="194.53125"/>
      <use xlink:href="#ArialMT-20" x="250.146484"/>
      <use xlink:href="#ArialMT-56" x="277.929688"/>
      <use xlink:href="#ArialMT-61" x="337.253906"/>
      <use xlink:href="#ArialMT-6c" x="392.869141"/>
      <use xlink:href="#ArialMT-75" x="415.085938"/>
      <use xlink:href="#ArialMT-65" x="470.701172"/>
     </g>
    </g>
   </g>
   <g id="PolyCollection_1">
    <defs>
     <path id="mff46336064" d="M 242.230188 -43.550252 
L 227.389812 -43.550252 
L 223.989398 -46.840389 
L 219.46626 -50.130526 
L 213.638668 -53.420663 
L 206.36432 -56.7108 
L 197.565318 -60.000937 
L 187.251591 -63.291074 
L 175.539641 -66.581211 
L 162.663934 -69.871348 
L 148.978964 -73.161485 
L 134.950741 -76.451622 
L 121.137004 -79.74176 
L 108.155882 -83.031897 
L 96.643369 -86.322034 
L 87.201188 -89.612171 
L 80.338721 -92.902308 
L 76.415326 -96.192445 
L 75.591818 -99.482582 
L 77.801046 -102.772719 
L 82.74616 -106.062856 
L 89.931038 -109.352993 
L 98.720832 -112.64313 
L 108.423419 -115.933267 
L 118.376724 -119.223404 
L 128.02463 -122.513541 
L 136.966453 -125.803678 
L 144.971522 -129.093816 
L 151.95948 -132.383953 
L 157.9558 -135.67409 
L 163.037959 -138.964227 
L 167.288941 -142.254364 
L 170.770878 -145.544501 
L 173.524059 -148.834638 
L 175.587734 -152.124775 
L 177.031963 -155.414912 
L 177.986404 -158.705049 
L 178.653365 -161.995186 
L 179.297874 -165.285323 
L 180.21522 -168.57546 
L 181.6836 -171.865597 
L 183.914185 -175.155735 
L 187.0116 -178.445872 
L 190.954687 -181.736009 
L 195.601588 -185.026146 
L 200.716751 -188.316283 
L 206.012185 -191.60642 
L 211.192665 -194.896557 
L 215.994935 -198.186694 
L 220.213779 -201.476831 
L 223.71195 -204.766968 
L 226.415115 -208.057105 
L 228.29616 -211.347242 
L 229.354856 -214.637379 
L 229.599035 -217.927516 
L 229.032289 -221.217653 
L 227.651347 -224.507791 
L 225.453938 -227.797928 
L 222.455573 -231.088065 
L 218.711455 -234.378202 
L 214.338026 -237.668339 
L 209.527881 -240.958476 
L 204.552274 -244.248613 
L 199.747474 -247.53875 
L 195.484521 -250.828887 
L 192.125975 -254.119024 
L 189.976909 -257.409161 
L 189.2396 -260.699298 
L 189.981327 -263.989435 
L 192.122136 -267.279572 
L 195.445015 -270.569709 
L 199.625856 -273.859847 
L 204.276348 -277.149984 
L 208.990647 -280.440121 
L 213.387057 -283.730258 
L 217.138489 -287.020395 
L 219.989463 -290.310532 
L 221.761313 -293.600669 
L 222.350089 -296.890806 
L 221.722491 -300.180943 
L 219.914037 -303.47108 
L 217.031007 -306.761217 
L 213.254522 -310.051354 
L 208.842493 -313.341491 
L 204.124095 -316.631628 
L 199.482348 -319.921765 
L 195.32323 -323.211903 
L 192.033745 -326.50204 
L 189.935223 -329.792177 
L 189.240753 -333.082314 
L 190.025811 -336.372451 
L 192.218906 -339.662588 
L 195.614728 -342.952725 
L 199.907265 -346.242862 
L 204.735991 -349.532999 
L 209.735808 -352.823136 
L 214.581428 -356.113273 
L 219.019148 -359.40341 
L 222.882546 -362.693547 
L 226.092507 -365.983684 
L 228.644943 -369.273822 
L 240.975057 -369.273822 
L 240.975057 -369.273822 
L 243.527493 -365.983684 
L 246.737454 -362.693547 
L 250.600852 -359.40341 
L 255.038572 -356.113273 
L 259.884192 -352.823136 
L 264.884009 -349.532999 
L 269.712735 -346.242862 
L 274.005272 -342.952725 
L 277.401094 -339.662588 
L 279.594189 -336.372451 
L 280.379247 -333.082314 
L 279.684777 -329.792177 
L 277.586255 -326.50204 
L 274.29677 -323.211903 
L 270.137652 -319.921765 
L 265.495905 -316.631628 
L 260.777507 -313.341491 
L 256.365478 -310.051354 
L 252.588993 -306.761217 
L 249.705963 -303.47108 
L 247.897509 -300.180943 
L 247.269911 -296.890806 
L 247.858687 -293.600669 
L 249.630537 -290.310532 
L 252.481511 -287.020395 
L 256.232943 -283.730258 
L 260.629353 -280.440121 
L 265.343652 -277.149984 
L 269.994144 -273.859847 
L 274.174985 -270.569709 
L 277.497864 -267.279572 
L 279.638673 -263.989435 
L 280.3804 -260.699298 
L 279.643091 -257.409161 
L 277.494025 -254.119024 
L 274.135479 -250.828887 
L 269.872526 -247.53875 
L 265.067726 -244.248613 
L 260.092119 -240.958476 
L 255.281974 -237.668339 
L 250.908545 -234.378202 
L 247.164427 -231.088065 
L 244.166062 -227.797928 
L 241.968653 -224.507791 
L 240.587711 -221.217653 
L 240.020965 -217.927516 
L 240.265144 -214.637379 
L 241.32384 -211.347242 
L 243.204885 -208.057105 
L 245.90805 -204.766968 
L 249.406221 -201.476831 
L 253.625065 -198.186694 
L 258.427335 -194.896557 
L 263.607815 -191.60642 
L 268.903249 -188.316283 
L 274.018412 -185.026146 
L 278.665313 -181.736009 
L 282.6084 -178.445872 
L 285.705815 -175.155735 
L 287.9364 -171.865597 
L 289.40478 -168.57546 
L 290.322126 -165.285323 
L 290.966635 -161.995186 
L 291.633596 -158.705049 
L 292.588037 -155.414912 
L 294.032266 -152.124775 
L 296.095941 -148.834638 
L 298.849122 -145.544501 
L 302.331059 -142.254364 
L 306.582041 -138.964227 
L 311.6642 -135.67409 
L 317.66052 -132.383953 
L 324.648478 -129.093816 
L 332.653547 -125.803678 
L 341.59537 -122.513541 
L 351.243276 -119.223404 
L 361.196581 -115.933267 
L 370.899168 -112.64313 
L 379.688962 -109.352993 
L 386.87384 -106.062856 
L 391.818954 -102.772719 
L 394.028182 -99.482582 
L 393.204674 -96.192445 
L 389.281279 -92.902308 
L 382.418812 -89.612171 
L 372.976631 -86.322034 
L 361.464118 -83.031897 
L 348.482996 -79.74176 
L 334.669259 -76.451622 
L 320.641036 -73.161485 
L 306.956066 -69.871348 
L 294.080359 -66.581211 
L 282.368409 -63.291074 
L 272.054682 -60.000937 
L 263.25568 -56.7108 
L 255.981332 -53.420663 
L 250.15374 -50.130526 
L 245.630602 -46.840389 
L 242.230188 -43.550252 
z
"/>
    </defs>
    <g clip-path="url(#p31b62e24cc)">
     <use xlink:href="#mff46336064" x="0" y="432" style="fill: #d3d3d3"/>
    </g>
   </g>
   <g id="patch_3">
    <path d="M 59.67 406.44 
L 59.67 46.44 
" style="fill: none; stroke: #262626; stroke-width: 1.25; stroke-linejoin: miter; stroke-linecap: square"/>
   </g>
   <g id="patch_4">
    <path d="M 409.95 406.44 
L 409.95 46.44 
" style="fill: none; stroke: #262626; stroke-width: 1.25; stroke-linejoin: miter; stroke-linecap: square"/>
   </g>
   <g id="patch_5">
    <path d="M 59.67 406.44 
L 409.95 406.44 
" style="fill: none; stroke: #262626; stroke-width: 1.25; stroke-linejoin: miter; stroke-linecap: square"/>
   </g>
   <g id="patch_6">
    <path d="M 59.67 46.44 
L 409.95 46.44 
" style="fill: none; stroke: #262626; stroke-width: 1.25; stroke-linejoin: miter; stroke-linecap: square"/>
   </g>
   <g id="PathCollection_1">
    <defs>
     <path id="C0_0_a371ece3dd" d="M 0 6.123724 
C 1.624031 6.123724 3.181764 5.47849 4.330127 4.330127 
C 5.47849 3.181764 6.123724 1.624031 6.123724 -0 
C 6.123724 -1.624031 5.47849 -3.181764 4.330127 -4.330127 
C 3.181764 -5.47849 1.624031 -6.123724 0 -6.123724 
C -1.624031 -6.123724 -3.181764 -5.47849 -4.330127 -4.330127 
C -5.47849 -3.181764 -6.123724 -1.624031 -6.123724 0 
C -6.123724 1.624031 -5.47849 3.181764 -4.330127 4.330127 
C -3.181764 5.47849 -1.624031 6.123724 0 6.123724 
z
"/>
    </defs>
    <g clip-path="url(#p31b62e24cc)">
     <use xlink:href="#C0_0_a371ece3dd" x="175.103182" y="294.311737" style="fill: #808080; stroke: #1a1a1a"/>
    </g>
    <g clip-path="url(#p31b62e24cc)">
     <use xlink:href="#C0_0_a371ece3dd" x="192.162273" y="323.248063" style="fill: #800080; stroke: #1a1a1a"/>
    </g>
    <g clip-path="url(#p31b62e24cc)">
     <use xlink:href="#C0_0_a371ece3dd" x="209.221364" y="352.184389" style="fill: #ff00ff; stroke: #1a1a1a"/>
    </g>
    <g clip-path="url(#p31b62e24cc)">
     <use xlink:href="#C0_0_a371ece3dd" x="226.280455" y="330.482145" style="fill: #ff0000; stroke: #1a1a1a"/>
    </g>
    <g clip-path="url(#p31b62e24cc)">
     <use xlink:href="#C0_0_a371ece3dd" x="243.339545" y="98.991538" style="fill: #daa520; stroke: #1a1a1a"/>
    </g>
    <g clip-path="url(#p31b62e24cc)">
     <use xlink:href="#C0_0_a371ece3dd" x="260.398636" y="258.14133" style="fill: #ff8c00; stroke: #1a1a1a"/>
    </g>
    <g clip-path="url(#p31b62e24cc)">
     <use xlink:href="#C0_0_a371ece3dd" x="277.457727" y="337.716226" style="fill: #8b4513; stroke: #1a1a1a"/>
    </g>
    <g clip-path="url(#p31b62e24cc)">
     <use xlink:href="#C0_0_a371ece3dd" x="294.516818" y="171.332352" style="fill: #0000cd; stroke: #1a1a1a"/>
    </g>
   </g>
   <g id="text_7">
    <!-- Symptom Scale -->
    <g style="fill: #262626" transform="translate(157.785937 40.44) scale(0.22 -0.22)">
     <defs>
      <path id="ArialMT-79" d="M 397 -1278 
L 334 -750 
Q 519 -800 656 -800 
Q 844 -800 956 -737 
Q 1069 -675 1141 -563 
Q 1194 -478 1313 -144 
Q 1328 -97 1363 -6 
L 103 3319 
L 709 3319 
L 1400 1397 
Q 1534 1031 1641 628 
Q 1738 1016 1872 1384 
L 2581 3319 
L 3144 3319 
L 1881 -56 
Q 1678 -603 1566 -809 
Q 1416 -1088 1222 -1217 
Q 1028 -1347 759 -1347 
Q 597 -1347 397 -1278 
z
" transform="scale(0.015625)"/>
      <path id="ArialMT-6d" d="M 422 0 
L 422 3319 
L 925 3319 
L 925 2853 
Q 1081 3097 1340 3245 
Q 1600 3394 1931 3394 
Q 2300 3394 2536 3241 
Q 2772 3088 2869 2813 
Q 3263 3394 3894 3394 
Q 4388 3394 4653 3120 
Q 4919 2847 4919 2278 
L 4919 0 
L 4359 0 
L 4359 2091 
Q 4359 2428 4304 2576 
Q 4250 2725 4106 2815 
Q 3963 2906 3769 2906 
Q 3419 2906 3187 2673 
Q 2956 2441 2956 1928 
L 2956 0 
L 2394 0 
L 2394 2156 
Q 2394 2531 2256 2718 
Q 2119 2906 1806 2906 
Q 1569 2906 1367 2781 
Q 1166 2656 1075 2415 
Q 984 2175 984 1722 
L 984 0 
L 422 0 
z
" transform="scale(0.015625)"/>
      <path id="ArialMT-70" d="M 422 -1272 
L 422 3319 
L 934 3319 
L 934 2888 
Q 1116 3141 1344 3267 
Q 1572 3394 1897 3394 
Q 2322 3394 2647 3175 
Q 2972 2956 3137 2557 
Q 3303 2159 3303 1684 
Q 3303 1175 3120 767 
Q 2938 359 2589 142 
Q 2241 -75 1856 -75 
Q 1575 -75 1351 44 
Q 1128 163 984 344 
L 984 -1272 
L 422 -1272 
z
M 931 1641 
Q 931 1000 1190 694 
Q 1450 388 1819 388 
Q 2194 388 2461 705 
Q 2728 1022 2728 1688 
Q 2728 2322 2467 2637 
Q 2206 2953 1844 2953 
Q 1484 2953 1207 2617 
Q 931 2281 931 1641 
z
" transform="scale(0.015625)"/>
      <path id="ArialMT-74" d="M 1650 503 
L 1731 6 
Q 1494 -44 1306 -44 
Q 1000 -44 831 53 
Q 663 150 594 308 
Q 525 466 525 972 
L 525 2881 
L 113 2881 
L 113 3319 
L 525 3319 
L 525 4141 
L 1084 4478 
L 1084 3319 
L 1650 3319 
L 1650 2881 
L 1084 2881 
L 1084 941 
Q 1084 700 1114 631 
Q 1144 563 1211 522 
Q 1278 481 1403 481 
Q 1497 481 1650 503 
z
" transform="scale(0.015625)"/>
      <path id="ArialMT-6f" d="M 213 1659 
Q 213 2581 725 3025 
Q 1153 3394 1769 3394 
Q 2453 3394 2887 2945 
Q 3322 2497 3322 1706 
Q 3322 1066 3130 698 
Q 2938 331 2570 128 
Q 2203 -75 1769 -75 
Q 1072 -75 642 372 
Q 213 819 213 1659 
z
M 791 1659 
Q 791 1022 1069 705 
Q 1347 388 1769 388 
Q 2188 388 2466 706 
Q 2744 1025 2744 1678 
Q 2744 2294 2464 2611 
Q 2184 2928 1769 2928 
Q 1347 2928 1069 2612 
Q 791 2297 791 1659 
z
" transform="scale(0.015625)"/>
     </defs>
     <use xlink:href="#ArialMT-53"/>
     <use xlink:href="#ArialMT-79" x="66.699219"/>
     <use xlink:href="#ArialMT-6d" x="116.699219"/>
     <use xlink:href="#ArialMT-70" x="200"/>
     <use xlink:href="#ArialMT-74" x="255.615234"/>
     <use xlink:href="#ArialMT-6f" x="283.398438"/>
     <use xlink:href="#ArialMT-6d" x="339.013672"/>
     <use xlink:href="#ArialMT-20" x="422.314453"/>
     <use xlink:href="#ArialMT-53" x="450.097656"/>
     <use xlink:href="#ArialMT-63" x="516.796875"/>
     <use xlink:href="#ArialMT-61" x="566.796875"/>
     <use xlink:href="#ArialMT-6c" x="622.412109"/>
     <use xlink:href="#ArialMT-65" x="644.628906"/>
    </g>
   </g>
  </g>
  <g id="axes_2">
   <g id="patch_7">
    <path d="M 500.76 406.44 
L 851.04 406.44 
L 851.04 46.44 
L 500.76 46.44 
z
" style="fill: #ffffff"/>
   </g>
   <g id="matplotlib.axis_3"/>
   <g id="matplotlib.axis_4">
    <g id="ytick_6">
     <g id="text_8">
      <!-- −1.0 -->
      <g style="fill: #262626" transform="translate(447.830625 414.313594) scale(0.22 -0.22)">
       <defs>
        <path id="ArialMT-2212" d="M 3381 1997 
L 356 1997 
L 356 2522 
L 3381 2522 
L 3381 1997 
z
" transform="scale(0.015625)"/>
        <path id="ArialMT-2e" d="M 581 0 
L 581 641 
L 1222 641 
L 1222 0 
L 581 0 
z
" transform="scale(0.015625)"/>
       </defs>
       <use xlink:href="#ArialMT-2212"/>
       <use xlink:href="#ArialMT-31" x="58.398438"/>
       <use xlink:href="#ArialMT-2e" x="114.013672"/>
       <use xlink:href="#ArialMT-30" x="141.796875"/>
      </g>
     </g>
    </g>
    <g id="ytick_7">
     <g id="text_9">
      <!-- −0.5 -->
      <g style="fill: #262626" transform="translate(447.830625 331.353923) scale(0.22 -0.22)">
       <defs>
        <path id="ArialMT-35" d="M 266 1200 
L 856 1250 
Q 922 819 1161 601 
Q 1400 384 1738 384 
Q 2144 384 2425 690 
Q 2706 997 2706 1503 
Q 2706 1984 2436 2262 
Q 2166 2541 1728 2541 
Q 1456 2541 1237 2417 
Q 1019 2294 894 2097 
L 366 2166 
L 809 4519 
L 3088 4519 
L 3088 3981 
L 1259 3981 
L 1013 2750 
Q 1425 3038 1878 3038 
Q 2478 3038 2890 2622 
Q 3303 2206 3303 1553 
Q 3303 931 2941 478 
Q 2500 -78 1738 -78 
Q 1113 -78 717 272 
Q 322 622 266 1200 
z
" transform="scale(0.015625)"/>
       </defs>
       <use xlink:href="#ArialMT-2212"/>
       <use xlink:href="#ArialMT-30" x="58.398438"/>
       <use xlink:href="#ArialMT-2e" x="114.013672"/>
       <use xlink:href="#ArialMT-35" x="141.796875"/>
      </g>
     </g>
    </g>
    <g id="ytick_8">
     <g id="text_10">
      <!-- 0.0 -->
      <g style="fill: #262626" transform="translate(460.68 248.394253) scale(0.22 -0.22)">
       <use xlink:href="#ArialMT-30"/>
       <use xlink:href="#ArialMT-2e" x="55.615234"/>
       <use xlink:href="#ArialMT-30" x="83.398438"/>
      </g>
     </g>
    </g>
    <g id="ytick_9">
     <g id="text_11">
      <!-- 0.5 -->
      <g style="fill: #262626" transform="translate(460.68 165.434583) scale(0.22 -0.22)">
       <use xlink:href="#ArialMT-30"/>
       <use xlink:href="#ArialMT-2e" x="55.615234"/>
       <use xlink:href="#ArialMT-35" x="83.398438"/>
      </g>
     </g>
    </g>
    <g id="ytick_10">
     <g id="text_12">
      <!-- 1.0 -->
      <g style="fill: #262626" transform="translate(460.68 82.474912) scale(0.22 -0.22)">
       <use xlink:href="#ArialMT-31"/>
       <use xlink:href="#ArialMT-2e" x="55.615234"/>
       <use xlink:href="#ArialMT-30" x="83.398438"/>
      </g>
     </g>
    </g>
    <g id="text_13">
     <!-- Scale Value -->
     <g style="fill: #262626" transform="translate(439.458125 284.332656) rotate(-90) scale(0.22 -0.22)">
      <use xlink:href="#ArialMT-53"/>
      <use xlink:href="#ArialMT-63" x="66.699219"/>
      <use xlink:href="#ArialMT-61" x="116.699219"/>
      <use xlink:href="#ArialMT-6c" x="172.314453"/>
      <use xlink:href="#ArialMT-65" x="194.53125"/>
      <use xlink:href="#ArialMT-20" x="250.146484"/>
      <use xlink:href="#ArialMT-56" x="277.929688"/>
      <use xlink:href="#ArialMT-61" x="337.253906"/>
      <use xlink:href="#ArialMT-6c" x="392.869141"/>
      <use xlink:href="#ArialMT-75" x="415.085938"/>
      <use xlink:href="#ArialMT-65" x="470.701172"/>
     </g>
    </g>
    <g id="text_14">
     <!-- 1e7 -->
     <g style="fill: #262626" transform="translate(500.76 43.44) scale(0.11 -0.11)">
      <defs>
       <path id="ArialMT-37" d="M 303 3981 
L 303 4522 
L 3269 4522 
L 3269 4084 
Q 2831 3619 2401 2847 
Q 1972 2075 1738 1259 
Q 1569 684 1522 0 
L 944 0 
Q 953 541 1156 1306 
Q 1359 2072 1739 2783 
Q 2119 3494 2547 3981 
L 303 3981 
z
" transform="scale(0.015625)"/>
      </defs>
      <use xlink:href="#ArialMT-31"/>
      <use xlink:href="#ArialMT-65" x="55.615234"/>
      <use xlink:href="#ArialMT-37" x="111.230469"/>
     </g>
    </g>
   </g>
   <g id="PolyCollection_2">
    <defs>
     <path id="m603183e157" d="M 680.938342 -213.014318 
L 670.861658 -213.014318 
L 668.967115 -214.67421 
L 666.620106 -216.334101 
L 663.816507 -217.993992 
L 660.593022 -219.653883 
L 657.034217 -221.313774 
L 653.273867 -222.973665 
L 649.488742 -224.633556 
L 645.884107 -226.293447 
L 642.671773 -227.953339 
L 640.04327 -229.61323 
L 638.142192 -231.273121 
L 637.040569 -232.933012 
L 636.723993 -234.592903 
L 637.089062 -236.252794 
L 637.95467 -237.912685 
L 639.08621 -239.572576 
L 640.229312 -241.232467 
L 641.147853 -242.892359 
L 641.660057 -244.55225 
L 641.666653 -246.212141 
L 641.166373 -247.872032 
L 640.256142 -249.531923 
L 639.115959 -251.191814 
L 637.980997 -252.851705 
L 637.105639 -254.511596 
L 636.725436 -256.171487 
L 637.023188 -257.831379 
L 638.104456 -259.49127 
L 639.985915 -261.151161 
L 642.59758 -262.811052 
L 645.797398 -264.470943 
L 649.394715 -266.130834 
L 653.177887 -267.790725 
L 656.941185 -269.450616 
L 660.506902 -271.110508 
L 663.740058 -272.770399 
L 666.554806 -274.43029 
L 668.913248 -276.090181 
L 670.818489 -277.750072 
L 672.304288 -279.409963 
L 673.423647 -281.069854 
L 674.238193 -282.729745 
L 674.809525 -284.389636 
L 675.192998 -286.049528 
L 675.433826 -287.709419 
L 675.565016 -289.36931 
L 675.60651 -291.029201 
L 675.56493 -292.689092 
L 675.433522 -294.348983 
L 675.192131 -296.008874 
L 674.807356 -297.668765 
L 674.233249 -299.328657 
L 673.41312 -300.988548 
L 672.283055 -302.648439 
L 670.777555 -304.30833 
L 668.837404 -305.968221 
L 666.419266 -307.628112 
L 663.505874 -309.288003 
L 660.115081 -310.947894 
L 656.305649 -312.607785 
L 652.177767 -314.267677 
L 647.866887 -315.927568 
L 643.530638 -317.587459 
L 639.330013 -319.24735 
L 635.407476 -320.907241 
L 631.865548 -322.567132 
L 628.749641 -324.227023 
L 626.038114 -325.886914 
L 623.640988 -327.546805 
L 621.406954 -329.206697 
L 619.136666 -330.866588 
L 616.599625 -332.526479 
L 613.552229 -334.18637 
L 609.755867 -335.846261 
L 604.995487 -337.506152 
L 599.100312 -339.166043 
L 591.96832 -340.825934 
L 583.594626 -342.485826 
L 574.101101 -344.145717 
L 563.76144 -345.805608 
L 553.013562 -347.465499 
L 542.45105 -349.12539 
L 532.787834 -350.785281 
L 524.795445 -352.445172 
L 519.218684 -354.105063 
L 516.681818 -355.764954 
L 517.601392 -357.424846 
L 522.122178 -359.084737 
L 530.089208 -360.744628 
L 541.06195 -362.404519 
L 554.368351 -364.06441 
L 569.188675 -365.724301 
L 584.653795 -367.384192 
L 599.941019 -369.044083 
L 614.352633 -370.703975 
L 627.367324 -372.363866 
L 638.660924 -374.023757 
L 648.098898 -375.683648 
L 655.707406 -377.343539 
L 696.092594 -377.343539 
L 696.092594 -377.343539 
L 703.701102 -375.683648 
L 713.139076 -374.023757 
L 724.432676 -372.363866 
L 737.447367 -370.703975 
L 751.858981 -369.044083 
L 767.146205 -367.384192 
L 782.611325 -365.724301 
L 797.431649 -364.06441 
L 810.73805 -362.404519 
L 821.710792 -360.744628 
L 829.677822 -359.084737 
L 834.198608 -357.424846 
L 835.118182 -355.764954 
L 832.581316 -354.105063 
L 827.004555 -352.445172 
L 819.012166 -350.785281 
L 809.34895 -349.12539 
L 798.786438 -347.465499 
L 788.03856 -345.805608 
L 777.698899 -344.145717 
L 768.205374 -342.485826 
L 759.83168 -340.825934 
L 752.699688 -339.166043 
L 746.804513 -337.506152 
L 742.044133 -335.846261 
L 738.247771 -334.18637 
L 735.200375 -332.526479 
L 732.663334 -330.866588 
L 730.393046 -329.206697 
L 728.159012 -327.546805 
L 725.761886 -325.886914 
L 723.050359 -324.227023 
L 719.934452 -322.567132 
L 716.392524 -320.907241 
L 712.469987 -319.24735 
L 708.269362 -317.587459 
L 703.933113 -315.927568 
L 699.622233 -314.267677 
L 695.494351 -312.607785 
L 691.684919 -310.947894 
L 688.294126 -309.288003 
L 685.380734 -307.628112 
L 682.962596 -305.968221 
L 681.022445 -304.30833 
L 679.516945 -302.648439 
L 678.38688 -300.988548 
L 677.566751 -299.328657 
L 676.992644 -297.668765 
L 676.607869 -296.008874 
L 676.366478 -294.348983 
L 676.23507 -292.689092 
L 676.19349 -291.029201 
L 676.234984 -289.36931 
L 676.366174 -287.709419 
L 676.607002 -286.049528 
L 676.990475 -284.389636 
L 677.561807 -282.729745 
L 678.376353 -281.069854 
L 679.495712 -279.409963 
L 680.981511 -277.750072 
L 682.886752 -276.090181 
L 685.245194 -274.43029 
L 688.059942 -272.770399 
L 691.293098 -271.110508 
L 694.858815 -269.450616 
L 698.622113 -267.790725 
L 702.405285 -266.130834 
L 706.002602 -264.470943 
L 709.20242 -262.811052 
L 711.814085 -261.151161 
L 713.695544 -259.49127 
L 714.776812 -257.831379 
L 715.074564 -256.171487 
L 714.694361 -254.511596 
L 713.819003 -252.851705 
L 712.684041 -251.191814 
L 711.543858 -249.531923 
L 710.633627 -247.872032 
L 710.133347 -246.212141 
L 710.139943 -244.55225 
L 710.652147 -242.892359 
L 711.570688 -241.232467 
L 712.71379 -239.572576 
L 713.84533 -237.912685 
L 714.710938 -236.252794 
L 715.076007 -234.592903 
L 714.759431 -232.933012 
L 713.657808 -231.273121 
L 711.75673 -229.61323 
L 709.128227 -227.953339 
L 705.915893 -226.293447 
L 702.311258 -224.633556 
L 698.526133 -222.973665 
L 694.765783 -221.313774 
L 691.206978 -219.653883 
L 687.983493 -217.993992 
L 685.179894 -216.334101 
L 682.832885 -214.67421 
L 680.938342 -213.014318 
z
"/>
    </defs>
    <g clip-path="url(#pc8ee09787f)">
     <use xlink:href="#m603183e157" x="0" y="432" style="fill: #d3d3d3"/>
    </g>
   </g>
   <g id="patch_8">
    <path d="M 500.76 406.44 
L 500.76 46.44 
" style="fill: none; stroke: #262626; stroke-width: 1.25; stroke-linejoin: miter; stroke-linecap: square"/>
   </g>
   <g id="patch_9">
    <path d="M 851.04 406.44 
L 851.04 46.44 
" style="fill: none; stroke: #262626; stroke-width: 1.25; stroke-linejoin: miter; stroke-linecap: square"/>
   </g>
   <g id="patch_10">
    <path d="M 500.76 406.44 
L 851.04 406.44 
" style="fill: none; stroke: #262626; stroke-width: 1.25; stroke-linejoin: miter; stroke-linecap: square"/>
   </g>
   <g id="patch_11">
    <path d="M 500.76 46.44 
L 851.04 46.44 
" style="fill: none; stroke: #262626; stroke-width: 1.25; stroke-linejoin: miter; stroke-linecap: square"/>
   </g>
   <g id="PathCollection_2">
    <defs>
     <path id="C1_0_cca193300a" d="M 0 6.123724 
C 1.624031 6.123724 3.181764 5.47849 4.330127 4.330127 
C 5.47849 3.181764 6.123724 1.624031 6.123724 -0 
C 6.123724 -1.624031 5.47849 -3.181764 4.330127 -4.330127 
C 3.181764 -5.47849 1.624031 -6.123724 0 -6.123724 
C -1.624031 -6.123724 -3.181764 -5.47849 -4.330127 -4.330127 
C -5.47849 -3.181764 -6.123724 -1.624031 -6.123724 0 
C -6.123724 1.624031 -5.47849 3.181764 -4.330127 4.330127 
C -3.181764 5.47849 -1.624031 6.123724 0 6.123724 
z
"/>
    </defs>
    <g clip-path="url(#pc8ee09787f)">
     <use xlink:href="#C1_0_cca193300a" x="616.193182" y="74.601318" style="fill: #808080; stroke: #1a1a1a"/>
    </g>
    <g clip-path="url(#pc8ee09787f)">
     <use xlink:href="#C1_0_cca193300a" x="633.252273" y="74.601318" style="fill: #800080; stroke: #1a1a1a"/>
    </g>
    <g clip-path="url(#pc8ee09787f)">
     <use xlink:href="#C1_0_cca193300a" x="650.311364" y="74.601318" style="fill: #ff00ff; stroke: #1a1a1a"/>
    </g>
    <g clip-path="url(#pc8ee09787f)">
     <use xlink:href="#C1_0_cca193300a" x="667.370455" y="74.601318" style="fill: #ff0000; stroke: #1a1a1a"/>
    </g>
    <g clip-path="url(#pc8ee09787f)">
     <use xlink:href="#C1_0_cca193300a" x="684.429545" y="199.040824" style="fill: #daa520; stroke: #1a1a1a"/>
    </g>
    <g clip-path="url(#pc8ee09787f)">
     <use xlink:href="#C1_0_cca193300a" x="701.488636" y="91.193253" style="fill: #ff8c00; stroke: #1a1a1a"/>
    </g>
    <g clip-path="url(#pc8ee09787f)">
     <use xlink:href="#C1_0_cca193300a" x="718.547727" y="107.785187" style="fill: #8b4513; stroke: #1a1a1a"/>
    </g>
    <g clip-path="url(#pc8ee09787f)">
     <use xlink:href="#C1_0_cca193300a" x="735.606818" y="174.152923" style="fill: #0000cd; stroke: #1a1a1a"/>
    </g>
   </g>
   <g id="text_15">
    <!-- Symptom Resolution Speed -->
    <g style="fill: #262626" transform="translate(539.556719 40.44) scale(0.22 -0.22)">
     <defs>
      <path id="ArialMT-52" d="M 503 0 
L 503 4581 
L 2534 4581 
Q 3147 4581 3465 4457 
Q 3784 4334 3975 4021 
Q 4166 3709 4166 3331 
Q 4166 2844 3850 2509 
Q 3534 2175 2875 2084 
Q 3116 1969 3241 1856 
Q 3506 1613 3744 1247 
L 4541 0 
L 3778 0 
L 3172 953 
Q 2906 1366 2734 1584 
Q 2563 1803 2427 1890 
Q 2291 1978 2150 2013 
Q 2047 2034 1813 2034 
L 1109 2034 
L 1109 0 
L 503 0 
z
M 1109 2559 
L 2413 2559 
Q 2828 2559 3062 2645 
Q 3297 2731 3419 2920 
Q 3541 3109 3541 3331 
Q 3541 3656 3305 3865 
Q 3069 4075 2559 4075 
L 1109 4075 
L 1109 2559 
z
" transform="scale(0.015625)"/>
      <path id="ArialMT-73" d="M 197 991 
L 753 1078 
Q 800 744 1014 566 
Q 1228 388 1613 388 
Q 2000 388 2187 545 
Q 2375 703 2375 916 
Q 2375 1106 2209 1216 
Q 2094 1291 1634 1406 
Q 1016 1563 777 1677 
Q 538 1791 414 1992 
Q 291 2194 291 2438 
Q 291 2659 392 2848 
Q 494 3038 669 3163 
Q 800 3259 1026 3326 
Q 1253 3394 1513 3394 
Q 1903 3394 2198 3281 
Q 2494 3169 2634 2976 
Q 2775 2784 2828 2463 
L 2278 2388 
Q 2241 2644 2061 2787 
Q 1881 2931 1553 2931 
Q 1166 2931 1000 2803 
Q 834 2675 834 2503 
Q 834 2394 903 2306 
Q 972 2216 1119 2156 
Q 1203 2125 1616 2013 
Q 2213 1853 2448 1751 
Q 2684 1650 2818 1456 
Q 2953 1263 2953 975 
Q 2953 694 2789 445 
Q 2625 197 2315 61 
Q 2006 -75 1616 -75 
Q 969 -75 630 194 
Q 291 463 197 991 
z
" transform="scale(0.015625)"/>
      <path id="ArialMT-69" d="M 425 3934 
L 425 4581 
L 988 4581 
L 988 3934 
L 425 3934 
z
M 425 0 
L 425 3319 
L 988 3319 
L 988 0 
L 425 0 
z
" transform="scale(0.015625)"/>
      <path id="ArialMT-6e" d="M 422 0 
L 422 3319 
L 928 3319 
L 928 2847 
Q 1294 3394 1984 3394 
Q 2284 3394 2536 3286 
Q 2788 3178 2913 3003 
Q 3038 2828 3088 2588 
Q 3119 2431 3119 2041 
L 3119 0 
L 2556 0 
L 2556 2019 
Q 2556 2363 2490 2533 
Q 2425 2703 2258 2804 
Q 2091 2906 1866 2906 
Q 1506 2906 1245 2678 
Q 984 2450 984 1813 
L 984 0 
L 422 0 
z
" transform="scale(0.015625)"/>
      <path id="ArialMT-64" d="M 2575 0 
L 2575 419 
Q 2259 -75 1647 -75 
Q 1250 -75 917 144 
Q 584 363 401 755 
Q 219 1147 219 1656 
Q 219 2153 384 2558 
Q 550 2963 881 3178 
Q 1213 3394 1622 3394 
Q 1922 3394 2156 3267 
Q 2391 3141 2538 2938 
L 2538 4581 
L 3097 4581 
L 3097 0 
L 2575 0 
z
M 797 1656 
Q 797 1019 1065 703 
Q 1334 388 1700 388 
Q 2069 388 2326 689 
Q 2584 991 2584 1609 
Q 2584 2291 2321 2609 
Q 2059 2928 1675 2928 
Q 1300 2928 1048 2622 
Q 797 2316 797 1656 
z
" transform="scale(0.015625)"/>
     </defs>
     <use xlink:href="#ArialMT-53"/>
     <use xlink:href="#ArialMT-79" x="66.699219"/>
     <use xlink:href="#ArialMT-6d" x="116.699219"/>
     <use xlink:href="#ArialMT-70" x="200"/>
     <use xlink:href="#ArialMT-74" x="255.615234"/>
     <use xlink:href="#ArialMT-6f" x="283.398438"/>
     <use xlink:href="#ArialMT-6d" x="339.013672"/>
     <use xlink:href="#ArialMT-20" x="422.314453"/>
     <use xlink:href="#ArialMT-52" x="450.097656"/>
     <use xlink:href="#ArialMT-65" x="522.314453"/>
     <use xlink:href="#ArialMT-73" x="577.929688"/>
     <use xlink:href="#ArialMT-6f" x="627.929688"/>
     <use xlink:href="#ArialMT-6c" x="683.544922"/>
     <use xlink:href="#ArialMT-75" x="705.761719"/>
     <use xlink:href="#ArialMT-74" x="761.376953"/>
     <use xlink:href="#ArialMT-69" x="789.160156"/>
     <use xlink:href="#ArialMT-6f" x="811.376953"/>
     <use xlink:href="#ArialMT-6e" x="866.992188"/>
     <use xlink:href="#ArialMT-20" x="922.607422"/>
     <use xlink:href="#ArialMT-53" x="950.390625"/>
     <use xlink:href="#ArialMT-70" x="1017.089844"/>
     <use xlink:href="#ArialMT-65" x="1072.705078"/>
     <use xlink:href="#ArialMT-65" x="1128.320312"/>
     <use xlink:href="#ArialMT-64" x="1183.935547"/>
    </g>
   </g>
  </g>
 </g>
 <defs>
  <clipPath id="p31b62e24cc">
   <rect x="59.67" y="46.44" width="350.28" height="360"/>
  </clipPath>
  <clipPath id="pc8ee09787f">
   <rect x="500.76" y="46.44" width="350.28" height="360"/>
  </clipPath>
 </defs>
</svg>
