<?xml version="1.0" encoding="utf-8" standalone="no"?>
<!DOCTYPE svg PUBLIC "-//W3C//DTD SVG 1.1//EN"
  "http://www.w3.org/Graphics/SVG/1.1/DTD/svg11.dtd">
<svg xmlns:xlink="http://www.w3.org/1999/xlink" width="864pt" height="432pt" viewBox="0 0 864 432" xmlns="http://www.w3.org/2000/svg" version="1.1">
 <metadata>
  <rdf:RDF xmlns:dc="http://purl.org/dc/elements/1.1/" xmlns:cc="http://creativecommons.org/ns#" xmlns:rdf="http://www.w3.org/1999/02/22-rdf-syntax-ns#">
   <cc:Work>
    <dc:type rdf:resource="http://purl.org/dc/dcmitype/StillImage"/>
    <dc:date>2025-01-29T14:03:49.098303</dc:date>
    <dc:format>image/svg+xml</dc:format>
    <dc:creator>
     <cc:Agent>
      <dc:title>Matplotlib v3.10.0, https://matplotlib.org/</dc:title>
     </cc:Agent>
    </dc:creator>
   </cc:Work>
  </rdf:RDF>
 </metadata>
 <defs>
  <style type="text/css">*{stroke-linejoin: round; stroke-linecap: butt}</style>
 </defs>
 <g id="figure_1">
  <g id="patch_1">
   <path d="M 0 432 
L 864 432 
L 864 0 
L 0 0 
z
" style="fill: #ffffff"/>
  </g>
  <g id="axes_1">
   <g id="patch_2">
    <path d="M 59.58 415.122451 
L 425.52 415.122451 
L 425.52 46.44 
L 59.58 46.44 
z
" style="fill: #ffffff"/>
   </g>
   <g id="matplotlib.axis_1"/>
   <g id="matplotlib.axis_2">
    <g id="ytick_1">
     <g id="text_1">
      <!-- 0 -->
      <g style="fill: #262626" transform="translate(37.845938 413.372826) scale(0.22 -0.22)">
       <defs>
        <path id="ArialMT-30" d="M 266 2259 
Q 266 3072 433 3567 
Q 600 4063 929 4331 
Q 1259 4600 1759 4600 
Q 2128 4600 2406 4451 
Q 2684 4303 2865 4023 
Q 3047 3744 3150 3342 
Q 3253 2941 3253 2259 
Q 3253 1453 3087 958 
Q 2922 463 2592 192 
Q 2263 -78 1759 -78 
Q 1097 -78 719 397 
Q 266 969 266 2259 
z
M 844 2259 
Q 844 1131 1108 757 
Q 1372 384 1759 384 
Q 2147 384 2411 759 
Q 2675 1134 2675 2259 
Q 2675 3391 2411 3762 
Q 2147 4134 1753 4134 
Q 1366 4134 1134 3806 
Q 844 3388 844 2259 
z
" transform="scale(0.015625)"/>
       </defs>
       <use xlink:href="#ArialMT-30"/>
      </g>
     </g>
    </g>
    <g id="ytick_2">
     <g id="text_2">
      <!-- 2 -->
      <g style="fill: #262626" transform="translate(37.845938 336.387078) scale(0.22 -0.22)">
       <defs>
        <path id="ArialMT-32" d="M 3222 541 
L 3222 0 
L 194 0 
Q 188 203 259 391 
Q 375 700 629 1000 
Q 884 1300 1366 1694 
Q 2113 2306 2375 2664 
Q 2638 3022 2638 3341 
Q 2638 3675 2398 3904 
Q 2159 4134 1775 4134 
Q 1369 4134 1125 3890 
Q 881 3647 878 3216 
L 300 3275 
Q 359 3922 746 4261 
Q 1134 4600 1788 4600 
Q 2447 4600 2831 4234 
Q 3216 3869 3216 3328 
Q 3216 3053 3103 2787 
Q 2991 2522 2730 2228 
Q 2469 1934 1863 1422 
Q 1356 997 1212 845 
Q 1069 694 975 541 
L 3222 541 
z
" transform="scale(0.015625)"/>
       </defs>
       <use xlink:href="#ArialMT-32"/>
      </g>
     </g>
    </g>
    <g id="ytick_3">
     <g id="text_3">
      <!-- 4 -->
      <g style="fill: #262626" transform="translate(37.845938 259.40133) scale(0.22 -0.22)">
       <defs>
        <path id="ArialMT-34" d="M 2069 0 
L 2069 1097 
L 81 1097 
L 81 1613 
L 2172 4581 
L 2631 4581 
L 2631 1613 
L 3250 1613 
L 3250 1097 
L 2631 1097 
L 2631 0 
L 2069 0 
z
M 2069 1613 
L 2069 3678 
L 634 1613 
L 2069 1613 
z
" transform="scale(0.015625)"/>
       </defs>
       <use xlink:href="#ArialMT-34"/>
      </g>
     </g>
    </g>
    <g id="ytick_4">
     <g id="text_4">
      <!-- 6 -->
      <g style="fill: #262626" transform="translate(37.845938 182.415582) scale(0.22 -0.22)">
       <defs>
        <path id="ArialMT-36" d="M 3184 3459 
L 2625 3416 
Q 2550 3747 2413 3897 
Q 2184 4138 1850 4138 
Q 1581 4138 1378 3988 
Q 1113 3794 959 3422 
Q 806 3050 800 2363 
Q 1003 2672 1297 2822 
Q 1591 2972 1913 2972 
Q 2475 2972 2870 2558 
Q 3266 2144 3266 1488 
Q 3266 1056 3080 686 
Q 2894 316 2569 119 
Q 2244 -78 1831 -78 
Q 1128 -78 684 439 
Q 241 956 241 2144 
Q 241 3472 731 4075 
Q 1159 4600 1884 4600 
Q 2425 4600 2770 4297 
Q 3116 3994 3184 3459 
z
M 888 1484 
Q 888 1194 1011 928 
Q 1134 663 1356 523 
Q 1578 384 1822 384 
Q 2178 384 2434 671 
Q 2691 959 2691 1453 
Q 2691 1928 2437 2201 
Q 2184 2475 1800 2475 
Q 1419 2475 1153 2201 
Q 888 1928 888 1484 
z
" transform="scale(0.015625)"/>
       </defs>
       <use xlink:href="#ArialMT-36"/>
      </g>
     </g>
    </g>
    <g id="ytick_5">
     <g id="text_5">
      <!-- 8 -->
      <g style="fill: #262626" transform="translate(37.845938 105.429833) scale(0.22 -0.22)">
       <defs>
        <path id="ArialMT-38" d="M 1131 2484 
Q 781 2613 612 2850 
Q 444 3088 444 3419 
Q 444 3919 803 4259 
Q 1163 4600 1759 4600 
Q 2359 4600 2725 4251 
Q 3091 3903 3091 3403 
Q 3091 3084 2923 2848 
Q 2756 2613 2416 2484 
Q 2838 2347 3058 2040 
Q 3278 1734 3278 1309 
Q 3278 722 2862 322 
Q 2447 -78 1769 -78 
Q 1091 -78 675 323 
Q 259 725 259 1325 
Q 259 1772 486 2073 
Q 713 2375 1131 2484 
z
M 1019 3438 
Q 1019 3113 1228 2906 
Q 1438 2700 1772 2700 
Q 2097 2700 2305 2904 
Q 2513 3109 2513 3406 
Q 2513 3716 2298 3927 
Q 2084 4138 1766 4138 
Q 1444 4138 1231 3931 
Q 1019 3725 1019 3438 
z
M 838 1322 
Q 838 1081 952 856 
Q 1066 631 1291 507 
Q 1516 384 1775 384 
Q 2178 384 2440 643 
Q 2703 903 2703 1303 
Q 2703 1709 2433 1975 
Q 2163 2241 1756 2241 
Q 1359 2241 1098 1978 
Q 838 1716 838 1322 
z
" transform="scale(0.015625)"/>
       </defs>
       <use xlink:href="#ArialMT-38"/>
      </g>
     </g>
    </g>
    <g id="text_6">
     <!-- Scale Value -->
     <g style="fill: #262626" transform="translate(29.473438 288.673882) rotate(-90) scale(0.22 -0.22)">
      <defs>
       <path id="ArialMT-53" d="M 288 1472 
L 859 1522 
Q 900 1178 1048 958 
Q 1197 738 1509 602 
Q 1822 466 2213 466 
Q 2559 466 2825 569 
Q 3091 672 3220 851 
Q 3350 1031 3350 1244 
Q 3350 1459 3225 1620 
Q 3100 1781 2813 1891 
Q 2628 1963 1997 2114 
Q 1366 2266 1113 2400 
Q 784 2572 623 2826 
Q 463 3081 463 3397 
Q 463 3744 659 4045 
Q 856 4347 1234 4503 
Q 1613 4659 2075 4659 
Q 2584 4659 2973 4495 
Q 3363 4331 3572 4012 
Q 3781 3694 3797 3291 
L 3216 3247 
Q 3169 3681 2898 3903 
Q 2628 4125 2100 4125 
Q 1550 4125 1298 3923 
Q 1047 3722 1047 3438 
Q 1047 3191 1225 3031 
Q 1400 2872 2139 2705 
Q 2878 2538 3153 2413 
Q 3553 2228 3743 1945 
Q 3934 1663 3934 1294 
Q 3934 928 3725 604 
Q 3516 281 3123 101 
Q 2731 -78 2241 -78 
Q 1619 -78 1198 103 
Q 778 284 539 648 
Q 300 1013 288 1472 
z
" transform="scale(0.015625)"/>
       <path id="ArialMT-63" d="M 2588 1216 
L 3141 1144 
Q 3050 572 2676 248 
Q 2303 -75 1759 -75 
Q 1078 -75 664 370 
Q 250 816 250 1647 
Q 250 2184 428 2587 
Q 606 2991 970 3192 
Q 1334 3394 1763 3394 
Q 2303 3394 2647 3120 
Q 2991 2847 3088 2344 
L 2541 2259 
Q 2463 2594 2264 2762 
Q 2066 2931 1784 2931 
Q 1359 2931 1093 2626 
Q 828 2322 828 1663 
Q 828 994 1084 691 
Q 1341 388 1753 388 
Q 2084 388 2306 591 
Q 2528 794 2588 1216 
z
" transform="scale(0.015625)"/>
       <path id="ArialMT-61" d="M 2588 409 
Q 2275 144 1986 34 
Q 1697 -75 1366 -75 
Q 819 -75 525 192 
Q 231 459 231 875 
Q 231 1119 342 1320 
Q 453 1522 633 1644 
Q 813 1766 1038 1828 
Q 1203 1872 1538 1913 
Q 2219 1994 2541 2106 
Q 2544 2222 2544 2253 
Q 2544 2597 2384 2738 
Q 2169 2928 1744 2928 
Q 1347 2928 1158 2789 
Q 969 2650 878 2297 
L 328 2372 
Q 403 2725 575 2942 
Q 747 3159 1072 3276 
Q 1397 3394 1825 3394 
Q 2250 3394 2515 3294 
Q 2781 3194 2906 3042 
Q 3031 2891 3081 2659 
Q 3109 2516 3109 2141 
L 3109 1391 
Q 3109 606 3145 398 
Q 3181 191 3288 0 
L 2700 0 
Q 2613 175 2588 409 
z
M 2541 1666 
Q 2234 1541 1622 1453 
Q 1275 1403 1131 1340 
Q 988 1278 909 1158 
Q 831 1038 831 891 
Q 831 666 1001 516 
Q 1172 366 1500 366 
Q 1825 366 2078 508 
Q 2331 650 2450 897 
Q 2541 1088 2541 1459 
L 2541 1666 
z
" transform="scale(0.015625)"/>
       <path id="ArialMT-6c" d="M 409 0 
L 409 4581 
L 972 4581 
L 972 0 
L 409 0 
z
" transform="scale(0.015625)"/>
       <path id="ArialMT-65" d="M 2694 1069 
L 3275 997 
Q 3138 488 2766 206 
Q 2394 -75 1816 -75 
Q 1088 -75 661 373 
Q 234 822 234 1631 
Q 234 2469 665 2931 
Q 1097 3394 1784 3394 
Q 2450 3394 2872 2941 
Q 3294 2488 3294 1666 
Q 3294 1616 3291 1516 
L 816 1516 
Q 847 969 1125 678 
Q 1403 388 1819 388 
Q 2128 388 2347 550 
Q 2566 713 2694 1069 
z
M 847 1978 
L 2700 1978 
Q 2663 2397 2488 2606 
Q 2219 2931 1791 2931 
Q 1403 2931 1139 2672 
Q 875 2413 847 1978 
z
" transform="scale(0.015625)"/>
       <path id="ArialMT-20" transform="scale(0.015625)"/>
       <path id="ArialMT-56" d="M 1803 0 
L 28 4581 
L 684 4581 
L 1875 1253 
Q 2019 853 2116 503 
Q 2222 878 2363 1253 
L 3600 4581 
L 4219 4581 
L 2425 0 
L 1803 0 
z
" transform="scale(0.015625)"/>
       <path id="ArialMT-75" d="M 2597 0 
L 2597 488 
Q 2209 -75 1544 -75 
Q 1250 -75 995 37 
Q 741 150 617 320 
Q 494 491 444 738 
Q 409 903 409 1263 
L 409 3319 
L 972 3319 
L 972 1478 
Q 972 1038 1006 884 
Q 1059 663 1231 536 
Q 1403 409 1656 409 
Q 1909 409 2131 539 
Q 2353 669 2445 892 
Q 2538 1116 2538 1541 
L 2538 3319 
L 3100 3319 
L 3100 0 
L 2597 0 
z
" transform="scale(0.015625)"/>
      </defs>
      <use xlink:href="#ArialMT-53"/>
      <use xlink:href="#ArialMT-63" transform="translate(66.699219 0)"/>
      <use xlink:href="#ArialMT-61" transform="translate(116.699219 0)"/>
      <use xlink:href="#ArialMT-6c" transform="translate(172.314453 0)"/>
      <use xlink:href="#ArialMT-65" transform="translate(194.53125 0)"/>
      <use xlink:href="#ArialMT-20" transform="translate(250.146484 0)"/>
      <use xlink:href="#ArialMT-56" transform="translate(277.929688 0)"/>
      <use xlink:href="#ArialMT-61" transform="translate(337.253906 0)"/>
      <use xlink:href="#ArialMT-6c" transform="translate(392.869141 0)"/>
      <use xlink:href="#ArialMT-75" transform="translate(415.085938 0)"/>
      <use xlink:href="#ArialMT-65" transform="translate(470.701172 0)"/>
     </g>
    </g>
   </g>
   <g id="FillBetweenPolyCollection_1">
    <defs>
     <path id="mcee89889b1" d="M 250.423628 5.971133 
L 234.676372 5.971133 
L 229.60169 2.204599 
L 222.246052 -1.561934 
L 212.165861 -5.328467 
L 199.116893 -9.095 
L 183.182866 -12.861534 
L 164.872387 -16.628067 
L 145.148429 -20.3946 
L 125.366469 -24.161134 
L 107.119457 -27.927667 
L 92.012727 -31.6942 
L 81.411713 -35.460733 
L 76.213636 -39.227267 
L 76.689707 -42.9938 
L 82.429308 -46.760333 
L 92.396907 -50.526866 
L 105.091206 -54.2934 
L 118.778388 -58.059933 
L 131.759715 -61.826466 
L 142.628893 -65.592999 
L 150.476316 -69.359533 
L 155.004865 -73.126066 
L 156.535588 -76.892599 
L 155.901196 -80.659132 
L 154.248894 -84.425666 
L 152.796165 -88.192199 
L 152.59569 -91.958732 
L 154.362117 -95.725266 
L 158.393176 -99.491799 
L 164.587951 -103.258332 
L 172.537941 -107.024865 
L 181.652248 -110.791399 
L 191.280285 -114.557932 
L 200.808897 -118.324465 
L 209.726651 -122.090998 
L 217.658733 -125.857532 
L 224.379144 -129.624065 
L 229.805329 -133.390598 
L 233.978392 -137.157131 
L 237.032133 -140.923665 
L 239.155933 -144.690198 
L 240.558128 -148.456731 
L 241.436121 -152.223264 
L 241.957099 -155.989798 
L 242.249871 -159.756331 
L 242.405622 -163.522864 
L 242.484036 -167.289397 
L 242.52139 -171.055931 
L 242.538225 -174.822464 
L 242.545402 -178.588997 
L 242.548297 -182.355531 
L 242.549402 -186.122064 
L 242.549801 -189.888597 
L 242.549937 -193.65513 
L 242.549981 -197.421664 
L 242.549995 -201.188197 
L 242.549999 -204.95473 
L 242.55 -208.721263 
L 242.55 -212.487797 
L 242.55 -216.25433 
L 242.55 -220.020863 
L 242.55 -223.787396 
L 242.55 -227.55393 
L 242.55 -231.320463 
L 242.55 -235.086996 
L 242.549999 -238.853529 
L 242.549997 -242.620063 
L 242.54999 -246.386596 
L 242.549965 -250.153129 
L 242.549886 -253.919663 
L 242.549649 -257.686196 
L 242.548978 -261.452729 
L 242.547178 -265.219262 
L 242.542612 -268.985796 
L 242.531677 -272.752329 
L 242.506933 -276.518862 
L 242.454082 -280.285395 
L 242.347563 -284.051929 
L 242.145139 -287.818462 
L 241.782729 -291.584995 
L 241.172098 -295.351528 
L 240.205148 -299.118062 
L 238.768713 -302.884595 
L 236.771823 -306.651128 
L 234.183012 -310.417661 
L 231.069136 -314.184195 
L 227.621812 -317.950728 
L 224.156401 -321.717261 
L 221.073997 -325.483794 
L 218.788858 -329.250328 
L 217.638019 -333.016861 
L 217.799937 -336.783394 
L 219.249166 -340.549928 
L 221.762908 -344.316461 
L 224.977114 -348.082994 
L 228.472693 -351.849527 
L 231.863804 -355.616061 
L 234.863054 -359.382594 
L 237.310237 -363.149127 
L 239.165485 -366.91566 
L 245.934515 -366.91566 
L 245.934515 -366.91566 
L 247.789763 -363.149127 
L 250.236946 -359.382594 
L 253.236196 -355.616061 
L 256.627307 -351.849527 
L 260.122886 -348.082994 
L 263.337092 -344.316461 
L 265.850834 -340.549928 
L 267.300063 -336.783394 
L 267.461981 -333.016861 
L 266.311142 -329.250328 
L 264.026003 -325.483794 
L 260.943599 -321.717261 
L 257.478188 -317.950728 
L 254.030864 -314.184195 
L 250.916988 -310.417661 
L 248.328177 -306.651128 
L 246.331287 -302.884595 
L 244.894852 -299.118062 
L 243.927902 -295.351528 
L 243.317271 -291.584995 
L 242.954861 -287.818462 
L 242.752437 -284.051929 
L 242.645918 -280.285395 
L 242.593067 -276.518862 
L 242.568323 -272.752329 
L 242.557388 -268.985796 
L 242.552822 -265.219262 
L 242.551022 -261.452729 
L 242.550351 -257.686196 
L 242.550114 -253.919663 
L 242.550035 -250.153129 
L 242.55001 -246.386596 
L 242.550003 -242.620063 
L 242.550001 -238.853529 
L 242.55 -235.086996 
L 242.55 -231.320463 
L 242.55 -227.55393 
L 242.55 -223.787396 
L 242.55 -220.020863 
L 242.55 -216.25433 
L 242.55 -212.487797 
L 242.55 -208.721263 
L 242.550001 -204.95473 
L 242.550005 -201.188197 
L 242.550019 -197.421664 
L 242.550063 -193.65513 
L 242.550199 -189.888597 
L 242.550598 -186.122064 
L 242.551703 -182.355531 
L 242.554598 -178.588997 
L 242.561775 -174.822464 
L 242.57861 -171.055931 
L 242.615964 -167.289397 
L 242.694378 -163.522864 
L 242.850129 -159.756331 
L 243.142901 -155.989798 
L 243.663879 -152.223264 
L 244.541872 -148.456731 
L 245.944067 -144.690198 
L 248.067867 -140.923665 
L 251.121608 -137.157131 
L 255.294671 -133.390598 
L 260.720856 -129.624065 
L 267.441267 -125.857532 
L 275.373349 -122.090998 
L 284.291103 -118.324465 
L 293.819715 -114.557932 
L 303.447752 -110.791399 
L 312.562059 -107.024865 
L 320.512049 -103.258332 
L 326.706824 -99.491799 
L 330.737883 -95.725266 
L 332.50431 -91.958732 
L 332.303835 -88.192199 
L 330.851106 -84.425666 
L 329.198804 -80.659132 
L 328.564412 -76.892599 
L 330.095135 -73.126066 
L 334.623684 -69.359533 
L 342.471107 -65.592999 
L 353.340285 -61.826466 
L 366.321612 -58.059933 
L 380.008794 -54.2934 
L 392.703093 -50.526866 
L 402.670692 -46.760333 
L 408.410293 -42.9938 
L 408.886364 -39.227267 
L 403.688287 -35.460733 
L 393.087273 -31.6942 
L 377.980543 -27.927667 
L 359.733531 -24.161134 
L 339.951571 -20.3946 
L 320.227613 -16.628067 
L 301.917134 -12.861534 
L 285.983107 -9.095 
L 272.934139 -5.328467 
L 262.853948 -1.561934 
L 255.49831 2.204599 
L 250.423628 5.971133 
z
"/>
    </defs>
    <g clip-path="url(#p048b4f61b0)">
     <use xlink:href="#mcee89889b1" x="0" y="432" style="fill: #d3d3d3"/>
    </g>
   </g>
   <g id="patch_3">
    <path d="M 59.58 415.122451 
L 59.58 46.44 
" style="fill: none; stroke: #262626; stroke-width: 1.25; stroke-linejoin: miter; stroke-linecap: square"/>
   </g>
   <g id="patch_4">
    <path d="M 425.52 415.122451 
L 425.52 46.44 
" style="fill: none; stroke: #262626; stroke-width: 1.25; stroke-linejoin: miter; stroke-linecap: square"/>
   </g>
   <g id="patch_5">
    <path d="M 59.58 415.122451 
L 425.52 415.122451 
" style="fill: none; stroke: #262626; stroke-width: 1.25; stroke-linejoin: miter; stroke-linecap: square"/>
   </g>
   <g id="patch_6">
    <path d="M 59.58 46.44 
L 425.52 46.44 
" style="fill: none; stroke: #262626; stroke-width: 1.25; stroke-linejoin: miter; stroke-linecap: square"/>
   </g>
   <g id="PathCollection_1">
    <defs>
     <path id="C0_0_da71bd3a9e" d="M 0 6.123724 
C 1.624031 6.123724 3.181764 5.47849 4.330127 4.330127 
C 5.47849 3.181764 6.123724 1.624031 6.123724 -0 
C 6.123724 -1.624031 5.47849 -3.181764 4.330127 -4.330127 
C 3.181764 -5.47849 1.624031 -6.123724 0 -6.123724 
C -1.624031 -6.123724 -3.181764 -5.47849 -4.330127 -4.330127 
C -5.47849 -3.181764 -6.123724 -1.624031 -6.123724 0 
C -6.123724 1.624031 -5.47849 3.181764 -4.330127 4.330127 
C -3.181764 5.47849 -1.624031 6.123724 0 6.123724 
z
"/>
    </defs>
    <g clip-path="url(#p048b4f61b0)">
     <use xlink:href="#C0_0_da71bd3a9e" x="180.173864" y="382.403508" style="fill: #808080; stroke: #1a1a1a"/>
    </g>
    <g clip-path="url(#p048b4f61b0)">
     <use xlink:href="#C0_0_da71bd3a9e" x="190.569886" y="320.81491" style="fill: #800080; stroke: #1a1a1a"/>
    </g>
    <g clip-path="url(#p048b4f61b0)">
     <use xlink:href="#C0_0_da71bd3a9e" x="200.965909" y="347.759921" style="fill: #ff00ff; stroke: #1a1a1a"/>
    </g>
    <g clip-path="url(#p048b4f61b0)">
     <use xlink:href="#C0_0_da71bd3a9e" x="211.361932" y="390.102083" style="fill: #ff0000; stroke: #1a1a1a"/>
    </g>
    <g clip-path="url(#p048b4f61b0)">
     <use xlink:href="#C0_0_da71bd3a9e" x="221.757955" y="390.102083" style="fill: #daa520; stroke: #1a1a1a"/>
    </g>
    <g clip-path="url(#p048b4f61b0)">
     <use xlink:href="#C0_0_da71bd3a9e" x="232.153977" y="401.649945" style="fill: #ff8c00; stroke: #1a1a1a"/>
    </g>
    <g clip-path="url(#p048b4f61b0)">
     <use xlink:href="#C0_0_da71bd3a9e" x="242.55" y="97.556239" style="fill: #8b4513; stroke: #1a1a1a"/>
    </g>
    <g clip-path="url(#p048b4f61b0)">
     <use xlink:href="#C0_0_da71bd3a9e" x="252.946023" y="340.061347" style="fill: #0000cd; stroke: #1a1a1a"/>
    </g>
    <g clip-path="url(#p048b4f61b0)">
     <use xlink:href="#C0_0_da71bd3a9e" x="263.342045" y="386.252796" style="fill: #1e90ff; stroke: #1a1a1a"/>
    </g>
    <g clip-path="url(#p048b4f61b0)">
     <use xlink:href="#C0_0_da71bd3a9e" x="273.738068" y="399.725302" style="fill: #40e0d0; stroke: #1a1a1a"/>
    </g>
    <g clip-path="url(#p048b4f61b0)">
     <use xlink:href="#C0_0_da71bd3a9e" x="284.134091" y="370.855646" style="fill: #006400; stroke: #1a1a1a"/>
    </g>
    <g clip-path="url(#p048b4f61b0)">
     <use xlink:href="#C0_0_da71bd3a9e" x="294.530114" y="405.499233" style="fill: #7cfc00; stroke: #1a1a1a"/>
    </g>
    <g clip-path="url(#p048b4f61b0)">
     <use xlink:href="#C0_0_da71bd3a9e" x="304.926136" y="336.212059" style="stroke: #1a1a1a"/>
    </g>
   </g>
   <g id="text_7">
    <!-- Symptom Scale -->
    <g style="fill: #262626" transform="translate(165.525937 40.44) scale(0.22 -0.22)">
     <defs>
      <path id="ArialMT-79" d="M 397 -1278 
L 334 -750 
Q 519 -800 656 -800 
Q 844 -800 956 -737 
Q 1069 -675 1141 -563 
Q 1194 -478 1313 -144 
Q 1328 -97 1363 -6 
L 103 3319 
L 709 3319 
L 1400 1397 
Q 1534 1031 1641 628 
Q 1738 1016 1872 1384 
L 2581 3319 
L 3144 3319 
L 1881 -56 
Q 1678 -603 1566 -809 
Q 1416 -1088 1222 -1217 
Q 1028 -1347 759 -1347 
Q 597 -1347 397 -1278 
z
" transform="scale(0.015625)"/>
      <path id="ArialMT-6d" d="M 422 0 
L 422 3319 
L 925 3319 
L 925 2853 
Q 1081 3097 1340 3245 
Q 1600 3394 1931 3394 
Q 2300 3394 2536 3241 
Q 2772 3088 2869 2813 
Q 3263 3394 3894 3394 
Q 4388 3394 4653 3120 
Q 4919 2847 4919 2278 
L 4919 0 
L 4359 0 
L 4359 2091 
Q 4359 2428 4304 2576 
Q 4250 2725 4106 2815 
Q 3963 2906 3769 2906 
Q 3419 2906 3187 2673 
Q 2956 2441 2956 1928 
L 2956 0 
L 2394 0 
L 2394 2156 
Q 2394 2531 2256 2718 
Q 2119 2906 1806 2906 
Q 1569 2906 1367 2781 
Q 1166 2656 1075 2415 
Q 984 2175 984 1722 
L 984 0 
L 422 0 
z
" transform="scale(0.015625)"/>
      <path id="ArialMT-70" d="M 422 -1272 
L 422 3319 
L 934 3319 
L 934 2888 
Q 1116 3141 1344 3267 
Q 1572 3394 1897 3394 
Q 2322 3394 2647 3175 
Q 2972 2956 3137 2557 
Q 3303 2159 3303 1684 
Q 3303 1175 3120 767 
Q 2938 359 2589 142 
Q 2241 -75 1856 -75 
Q 1575 -75 1351 44 
Q 1128 163 984 344 
L 984 -1272 
L 422 -1272 
z
M 931 1641 
Q 931 1000 1190 694 
Q 1450 388 1819 388 
Q 2194 388 2461 705 
Q 2728 1022 2728 1688 
Q 2728 2322 2467 2637 
Q 2206 2953 1844 2953 
Q 1484 2953 1207 2617 
Q 931 2281 931 1641 
z
" transform="scale(0.015625)"/>
      <path id="ArialMT-74" d="M 1650 503 
L 1731 6 
Q 1494 -44 1306 -44 
Q 1000 -44 831 53 
Q 663 150 594 308 
Q 525 466 525 972 
L 525 2881 
L 113 2881 
L 113 3319 
L 525 3319 
L 525 4141 
L 1084 4478 
L 1084 3319 
L 1650 3319 
L 1650 2881 
L 1084 2881 
L 1084 941 
Q 1084 700 1114 631 
Q 1144 563 1211 522 
Q 1278 481 1403 481 
Q 1497 481 1650 503 
z
" transform="scale(0.015625)"/>
      <path id="ArialMT-6f" d="M 213 1659 
Q 213 2581 725 3025 
Q 1153 3394 1769 3394 
Q 2453 3394 2887 2945 
Q 3322 2497 3322 1706 
Q 3322 1066 3130 698 
Q 2938 331 2570 128 
Q 2203 -75 1769 -75 
Q 1072 -75 642 372 
Q 213 819 213 1659 
z
M 791 1659 
Q 791 1022 1069 705 
Q 1347 388 1769 388 
Q 2188 388 2466 706 
Q 2744 1025 2744 1678 
Q 2744 2294 2464 2611 
Q 2184 2928 1769 2928 
Q 1347 2928 1069 2612 
Q 791 2297 791 1659 
z
" transform="scale(0.015625)"/>
     </defs>
     <use xlink:href="#ArialMT-53"/>
     <use xlink:href="#ArialMT-79" transform="translate(66.699219 0)"/>
     <use xlink:href="#ArialMT-6d" transform="translate(116.699219 0)"/>
     <use xlink:href="#ArialMT-70" transform="translate(200 0)"/>
     <use xlink:href="#ArialMT-74" transform="translate(255.615234 0)"/>
     <use xlink:href="#ArialMT-6f" transform="translate(283.398438 0)"/>
     <use xlink:href="#ArialMT-6d" transform="translate(339.013672 0)"/>
     <use xlink:href="#ArialMT-20" transform="translate(422.314453 0)"/>
     <use xlink:href="#ArialMT-53" transform="translate(450.097656 0)"/>
     <use xlink:href="#ArialMT-63" transform="translate(516.796875 0)"/>
     <use xlink:href="#ArialMT-61" transform="translate(566.796875 0)"/>
     <use xlink:href="#ArialMT-6c" transform="translate(622.412109 0)"/>
     <use xlink:href="#ArialMT-65" transform="translate(644.628906 0)"/>
    </g>
   </g>
  </g>
  <g id="axes_2">
   <g id="patch_7">
    <path d="M 485.1 415.122451 
L 851.04 415.122451 
L 851.04 46.44 
L 485.1 46.44 
z
" style="fill: #ffffff"/>
   </g>
   <g id="matplotlib.axis_3"/>
   <g id="matplotlib.axis_4">
    <g id="ytick_6">
     <g id="text_8">
      <!-- 0 -->
      <g style="fill: #262626" transform="translate(463.365937 383.455329) scale(0.22 -0.22)">
       <use xlink:href="#ArialMT-30"/>
      </g>
     </g>
    </g>
    <g id="ytick_7">
     <g id="text_9">
      <!-- 2 -->
      <g style="fill: #262626" transform="translate(463.365937 304.373896) scale(0.22 -0.22)">
       <use xlink:href="#ArialMT-32"/>
      </g>
     </g>
    </g>
    <g id="ytick_8">
     <g id="text_10">
      <!-- 4 -->
      <g style="fill: #262626" transform="translate(463.365937 225.292463) scale(0.22 -0.22)">
       <use xlink:href="#ArialMT-34"/>
      </g>
     </g>
    </g>
    <g id="ytick_9">
     <g id="text_11">
      <!-- 6 -->
      <g style="fill: #262626" transform="translate(463.365937 146.21103) scale(0.22 -0.22)">
       <use xlink:href="#ArialMT-36"/>
      </g>
     </g>
    </g>
    <g id="ytick_10">
     <g id="text_12">
      <!-- 8 -->
      <g style="fill: #262626" transform="translate(463.365937 67.129597) scale(0.22 -0.22)">
       <use xlink:href="#ArialMT-38"/>
      </g>
     </g>
    </g>
    <g id="text_13">
     <!-- Scale Value -->
     <g style="fill: #262626" transform="translate(454.993437 288.673882) rotate(-90) scale(0.22 -0.22)">
      <use xlink:href="#ArialMT-53"/>
      <use xlink:href="#ArialMT-63" transform="translate(66.699219 0)"/>
      <use xlink:href="#ArialMT-61" transform="translate(116.699219 0)"/>
      <use xlink:href="#ArialMT-6c" transform="translate(172.314453 0)"/>
      <use xlink:href="#ArialMT-65" transform="translate(194.53125 0)"/>
      <use xlink:href="#ArialMT-20" transform="translate(250.146484 0)"/>
      <use xlink:href="#ArialMT-56" transform="translate(277.929688 0)"/>
      <use xlink:href="#ArialMT-61" transform="translate(337.253906 0)"/>
      <use xlink:href="#ArialMT-6c" transform="translate(392.869141 0)"/>
      <use xlink:href="#ArialMT-75" transform="translate(415.085938 0)"/>
      <use xlink:href="#ArialMT-65" transform="translate(470.701172 0)"/>
     </g>
    </g>
    <g id="text_14">
     <!-- 1e7 -->
     <g style="fill: #262626" transform="translate(485.1 43.44) scale(0.11 -0.11)">
      <defs>
       <path id="ArialMT-31" d="M 2384 0 
L 1822 0 
L 1822 3584 
Q 1619 3391 1289 3197 
Q 959 3003 697 2906 
L 697 3450 
Q 1169 3672 1522 3987 
Q 1875 4303 2022 4600 
L 2384 4600 
L 2384 0 
z
" transform="scale(0.015625)"/>
       <path id="ArialMT-37" d="M 303 3981 
L 303 4522 
L 3269 4522 
L 3269 4084 
Q 2831 3619 2401 2847 
Q 1972 2075 1738 1259 
Q 1569 684 1522 0 
L 944 0 
Q 953 541 1156 1306 
Q 1359 2072 1739 2783 
Q 2119 3494 2547 3981 
L 303 3981 
z
" transform="scale(0.015625)"/>
      </defs>
      <use xlink:href="#ArialMT-31"/>
      <use xlink:href="#ArialMT-65" transform="translate(55.615234 0)"/>
      <use xlink:href="#ArialMT-37" transform="translate(111.230469 0)"/>
     </g>
    </g>
   </g>
   <g id="FillBetweenPolyCollection_2">
    <defs>
     <path id="m68f621275d" d="M 673.445259 -21.402385 
L 662.694741 -21.402385 
L 659.654406 -24.905584 
L 655.317951 -28.408784 
L 649.360115 -31.911984 
L 641.479381 -35.415184 
L 631.451207 -38.918383 
L 619.190116 -42.421583 
L 604.811471 -45.924783 
L 588.680436 -49.427983 
L 571.434338 -52.931182 
L 553.966554 -56.434382 
L 537.365599 -59.937582 
L 522.811547 -63.440782 
L 511.441644 -66.943981 
L 504.205348 -70.447181 
L 501.733636 -73.950381 
L 504.246548 -77.453581 
L 511.516479 -80.956781 
L 522.894222 -84.45998 
L 537.392737 -87.96318 
L 553.813169 -91.46638 
L 570.891068 -94.96958 
L 587.439219 -98.472779 
L 602.466809 -101.975979 
L 615.261196 -105.479179 
L 625.426453 -108.982379 
L 632.879979 -112.485578 
L 637.813577 -115.988778 
L 640.628235 -119.491978 
L 641.852837 -122.995178 
L 642.057203 -126.498377 
L 641.769823 -130.001577 
L 641.410412 -133.504777 
L 641.246389 -137.007977 
L 641.379677 -140.511177 
L 641.765495 -144.014376 
L 642.258588 -147.517576 
L 642.676129 -151.020776 
L 642.862192 -154.523976 
L 642.737988 -158.027175 
L 642.325549 -161.530375 
L 641.739638 -165.033575 
L 641.151411 -168.536775 
L 640.735296 -172.039974 
L 640.615274 -175.543174 
L 640.826757 -179.046374 
L 641.305483 -182.549574 
L 641.906707 -186.052773 
L 642.448804 -189.555973 
L 642.768055 -193.059173 
L 642.768055 -196.562373 
L 642.448805 -200.065573 
L 641.906712 -203.568772 
L 641.305498 -207.071972 
L 640.826802 -210.575172 
L 640.615402 -214.078372 
L 640.735644 -217.581571 
L 641.15232 -221.084771 
L 641.741921 -224.587971 
L 642.331068 -228.091171 
L 642.750827 -231.59437 
L 642.890939 -235.09757 
L 642.738083 -238.60077 
L 642.387137 -242.10397 
L 642.02235 -245.607169 
L 641.874011 -249.110369 
L 642.162992 -252.613569 
L 643.048327 -256.116769 
L 644.591344 -259.619968 
L 646.74425 -263.123168 
L 649.363713 -266.626368 
L 652.243137 -270.129568 
L 655.153094 -273.632768 
L 657.878792 -277.135967 
L 660.246125 -280.639167 
L 662.132585 -284.142367 
L 663.464267 -287.645567 
L 664.203999 -291.148766 
L 664.337321 -294.651966 
L 663.862586 -298.155166 
L 662.789255 -301.658366 
L 661.145231 -305.161565 
L 658.990662 -308.664765 
L 656.432903 -312.167965 
L 653.635953 -315.671165 
L 650.81832 -319.174364 
L 648.235969 -322.677564 
L 646.151265 -326.180764 
L 644.79346 -329.683964 
L 644.319731 -333.187164 
L 644.786675 -336.690363 
L 646.13996 -340.193563 
L 648.225123 -343.696763 
L 650.816764 -347.199963 
L 653.658629 -350.703162 
L 656.504819 -354.206362 
L 659.153142 -357.709562 
L 661.464837 -361.212762 
L 663.369247 -364.715961 
L 664.855869 -368.219161 
L 671.284131 -368.219161 
L 671.284131 -368.219161 
L 672.770753 -364.715961 
L 674.675163 -361.212762 
L 676.986858 -357.709562 
L 679.635181 -354.206362 
L 682.481371 -350.703162 
L 685.323236 -347.199963 
L 687.914877 -343.696763 
L 690.00004 -340.193563 
L 691.353325 -336.690363 
L 691.820269 -333.187164 
L 691.34654 -329.683964 
L 689.988735 -326.180764 
L 687.904031 -322.677564 
L 685.32168 -319.174364 
L 682.504047 -315.671165 
L 679.707097 -312.167965 
L 677.149338 -308.664765 
L 674.994769 -305.161565 
L 673.350745 -301.658366 
L 672.277414 -298.155166 
L 671.802679 -294.651966 
L 671.936001 -291.148766 
L 672.675733 -287.645567 
L 674.007415 -284.142367 
L 675.893875 -280.639167 
L 678.261208 -277.135967 
L 680.986906 -273.632768 
L 683.896863 -270.129568 
L 686.776287 -266.626368 
L 689.39575 -263.123168 
L 691.548656 -259.619968 
L 693.091673 -256.116769 
L 693.977008 -252.613569 
L 694.265989 -249.110369 
L 694.11765 -245.607169 
L 693.752863 -242.10397 
L 693.401917 -238.60077 
L 693.249061 -235.09757 
L 693.389173 -231.59437 
L 693.808932 -228.091171 
L 694.398079 -224.587971 
L 694.98768 -221.084771 
L 695.404356 -217.581571 
L 695.524598 -214.078372 
L 695.313198 -210.575172 
L 694.834502 -207.071972 
L 694.233288 -203.568772 
L 693.691195 -200.065573 
L 693.371945 -196.562373 
L 693.371945 -193.059173 
L 693.691196 -189.555973 
L 694.233293 -186.052773 
L 694.834517 -182.549574 
L 695.313243 -179.046374 
L 695.524726 -175.543174 
L 695.404704 -172.039974 
L 694.988589 -168.536775 
L 694.400362 -165.033575 
L 693.814451 -161.530375 
L 693.402012 -158.027175 
L 693.277808 -154.523976 
L 693.463871 -151.020776 
L 693.881412 -147.517576 
L 694.374505 -144.014376 
L 694.760323 -140.511177 
L 694.893611 -137.007977 
L 694.729588 -133.504777 
L 694.370177 -130.001577 
L 694.082797 -126.498377 
L 694.287163 -122.995178 
L 695.511765 -119.491978 
L 698.326423 -115.988778 
L 703.260021 -112.485578 
L 710.713547 -108.982379 
L 720.878804 -105.479179 
L 733.673191 -101.975979 
L 748.700781 -98.472779 
L 765.248932 -94.96958 
L 782.326831 -91.46638 
L 798.747263 -87.96318 
L 813.245778 -84.45998 
L 824.623521 -80.956781 
L 831.893452 -77.453581 
L 834.406364 -73.950381 
L 831.934652 -70.447181 
L 824.698356 -66.943981 
L 813.328453 -63.440782 
L 798.774401 -59.937582 
L 782.173446 -56.434382 
L 764.705662 -52.931182 
L 747.459564 -49.427983 
L 731.328529 -45.924783 
L 716.949884 -42.421583 
L 704.688793 -38.918383 
L 694.660619 -35.415184 
L 686.779885 -31.911984 
L 680.822049 -28.408784 
L 676.485594 -24.905584 
L 673.445259 -21.402385 
z
"/>
    </defs>
    <g clip-path="url(#pf4a396daa7)">
     <use xlink:href="#m68f621275d" x="0" y="432" style="fill: #d3d3d3"/>
    </g>
   </g>
   <g id="patch_8">
    <path d="M 485.1 415.122451 
L 485.1 46.44 
" style="fill: none; stroke: #262626; stroke-width: 1.25; stroke-linejoin: miter; stroke-linecap: square"/>
   </g>
   <g id="patch_9">
    <path d="M 851.04 415.122451 
L 851.04 46.44 
" style="fill: none; stroke: #262626; stroke-width: 1.25; stroke-linejoin: miter; stroke-linecap: square"/>
   </g>
   <g id="patch_10">
    <path d="M 485.1 415.122451 
L 851.04 415.122451 
" style="fill: none; stroke: #262626; stroke-width: 1.25; stroke-linejoin: miter; stroke-linecap: square"/>
   </g>
   <g id="patch_11">
    <path d="M 485.1 46.44 
L 851.04 46.44 
" style="fill: none; stroke: #262626; stroke-width: 1.25; stroke-linejoin: miter; stroke-linecap: square"/>
   </g>
   <g id="PathCollection_2">
    <defs>
     <path id="C1_0_6377fd7978" d="M 0 6.123724 
C 1.624031 6.123724 3.181764 5.47849 4.330127 4.330127 
C 5.47849 3.181764 6.123724 1.624031 6.123724 -0 
C 6.123724 -1.624031 5.47849 -3.181764 4.330127 -4.330127 
C 3.181764 -5.47849 1.624031 -6.123724 0 -6.123724 
C -1.624031 -6.123724 -3.181764 -5.47849 -4.330127 -4.330127 
C -5.47849 -3.181764 -6.123724 -1.624031 -6.123724 0 
C -6.123724 1.624031 -5.47849 3.181764 -4.330127 4.330127 
C -3.181764 5.47849 -1.624031 6.123724 0 6.123724 
z
"/>
    </defs>
    <g clip-path="url(#pf4a396daa7)">
     <use xlink:href="#C1_0_6377fd7978" x="605.693864" y="363.71952" style="fill: #808080; stroke: #1a1a1a"/>
    </g>
    <g clip-path="url(#pf4a396daa7)">
     <use xlink:href="#C1_0_6377fd7978" x="616.089886" y="359.765448" style="fill: #800080; stroke: #1a1a1a"/>
    </g>
    <g clip-path="url(#pf4a396daa7)">
     <use xlink:href="#C1_0_6377fd7978" x="626.485909" y="351.857305" style="fill: #ff00ff; stroke: #1a1a1a"/>
    </g>
    <g clip-path="url(#pf4a396daa7)">
     <use xlink:href="#C1_0_6377fd7978" x="636.881932" y="98.796719" style="fill: #ff0000; stroke: #1a1a1a"/>
    </g>
    <g clip-path="url(#pf4a396daa7)">
     <use xlink:href="#C1_0_6377fd7978" x="647.277955" y="296.500302" style="fill: #daa520; stroke: #1a1a1a"/>
    </g>
    <g clip-path="url(#pf4a396daa7)">
     <use xlink:href="#C1_0_6377fd7978" x="657.673977" y="177.878152" style="fill: #ff8c00; stroke: #1a1a1a"/>
    </g>
    <g clip-path="url(#pf4a396daa7)">
     <use xlink:href="#C1_0_6377fd7978" x="668.07" y="363.71952" style="fill: #8b4513; stroke: #1a1a1a"/>
    </g>
    <g clip-path="url(#pf4a396daa7)">
     <use xlink:href="#C1_0_6377fd7978" x="678.466023" y="343.949162" style="fill: #0000cd; stroke: #1a1a1a"/>
    </g>
    <g clip-path="url(#pf4a396daa7)">
     <use xlink:href="#C1_0_6377fd7978" x="688.862045" y="256.959585" style="fill: #1e90ff; stroke: #1a1a1a"/>
    </g>
    <g clip-path="url(#pf4a396daa7)">
     <use xlink:href="#C1_0_6377fd7978" x="699.258068" y="217.418869" style="fill: #40e0d0; stroke: #1a1a1a"/>
    </g>
    <g clip-path="url(#pf4a396daa7)">
     <use xlink:href="#C1_0_6377fd7978" x="709.654091" y="347.903233" style="fill: #006400; stroke: #1a1a1a"/>
    </g>
    <g clip-path="url(#pf4a396daa7)">
     <use xlink:href="#C1_0_6377fd7978" x="720.050114" y="375.581735" style="fill: #7cfc00; stroke: #1a1a1a"/>
    </g>
    <g clip-path="url(#pf4a396daa7)">
     <use xlink:href="#C1_0_6377fd7978" x="730.446136" y="359.765448" style="stroke: #1a1a1a"/>
    </g>
   </g>
   <g id="text_15">
    <!-- Symptom Resolution Speed -->
    <g style="fill: #262626" transform="translate(531.726719 40.44) scale(0.22 -0.22)">
     <defs>
      <path id="ArialMT-52" d="M 503 0 
L 503 4581 
L 2534 4581 
Q 3147 4581 3465 4457 
Q 3784 4334 3975 4021 
Q 4166 3709 4166 3331 
Q 4166 2844 3850 2509 
Q 3534 2175 2875 2084 
Q 3116 1969 3241 1856 
Q 3506 1613 3744 1247 
L 4541 0 
L 3778 0 
L 3172 953 
Q 2906 1366 2734 1584 
Q 2563 1803 2427 1890 
Q 2291 1978 2150 2013 
Q 2047 2034 1813 2034 
L 1109 2034 
L 1109 0 
L 503 0 
z
M 1109 2559 
L 2413 2559 
Q 2828 2559 3062 2645 
Q 3297 2731 3419 2920 
Q 3541 3109 3541 3331 
Q 3541 3656 3305 3865 
Q 3069 4075 2559 4075 
L 1109 4075 
L 1109 2559 
z
" transform="scale(0.015625)"/>
      <path id="ArialMT-73" d="M 197 991 
L 753 1078 
Q 800 744 1014 566 
Q 1228 388 1613 388 
Q 2000 388 2187 545 
Q 2375 703 2375 916 
Q 2375 1106 2209 1216 
Q 2094 1291 1634 1406 
Q 1016 1563 777 1677 
Q 538 1791 414 1992 
Q 291 2194 291 2438 
Q 291 2659 392 2848 
Q 494 3038 669 3163 
Q 800 3259 1026 3326 
Q 1253 3394 1513 3394 
Q 1903 3394 2198 3281 
Q 2494 3169 2634 2976 
Q 2775 2784 2828 2463 
L 2278 2388 
Q 2241 2644 2061 2787 
Q 1881 2931 1553 2931 
Q 1166 2931 1000 2803 
Q 834 2675 834 2503 
Q 834 2394 903 2306 
Q 972 2216 1119 2156 
Q 1203 2125 1616 2013 
Q 2213 1853 2448 1751 
Q 2684 1650 2818 1456 
Q 2953 1263 2953 975 
Q 2953 694 2789 445 
Q 2625 197 2315 61 
Q 2006 -75 1616 -75 
Q 969 -75 630 194 
Q 291 463 197 991 
z
" transform="scale(0.015625)"/>
      <path id="ArialMT-69" d="M 425 3934 
L 425 4581 
L 988 4581 
L 988 3934 
L 425 3934 
z
M 425 0 
L 425 3319 
L 988 3319 
L 988 0 
L 425 0 
z
" transform="scale(0.015625)"/>
      <path id="ArialMT-6e" d="M 422 0 
L 422 3319 
L 928 3319 
L 928 2847 
Q 1294 3394 1984 3394 
Q 2284 3394 2536 3286 
Q 2788 3178 2913 3003 
Q 3038 2828 3088 2588 
Q 3119 2431 3119 2041 
L 3119 0 
L 2556 0 
L 2556 2019 
Q 2556 2363 2490 2533 
Q 2425 2703 2258 2804 
Q 2091 2906 1866 2906 
Q 1506 2906 1245 2678 
Q 984 2450 984 1813 
L 984 0 
L 422 0 
z
" transform="scale(0.015625)"/>
      <path id="ArialMT-64" d="M 2575 0 
L 2575 419 
Q 2259 -75 1647 -75 
Q 1250 -75 917 144 
Q 584 363 401 755 
Q 219 1147 219 1656 
Q 219 2153 384 2558 
Q 550 2963 881 3178 
Q 1213 3394 1622 3394 
Q 1922 3394 2156 3267 
Q 2391 3141 2538 2938 
L 2538 4581 
L 3097 4581 
L 3097 0 
L 2575 0 
z
M 797 1656 
Q 797 1019 1065 703 
Q 1334 388 1700 388 
Q 2069 388 2326 689 
Q 2584 991 2584 1609 
Q 2584 2291 2321 2609 
Q 2059 2928 1675 2928 
Q 1300 2928 1048 2622 
Q 797 2316 797 1656 
z
" transform="scale(0.015625)"/>
     </defs>
     <use xlink:href="#ArialMT-53"/>
     <use xlink:href="#ArialMT-79" transform="translate(66.699219 0)"/>
     <use xlink:href="#ArialMT-6d" transform="translate(116.699219 0)"/>
     <use xlink:href="#ArialMT-70" transform="translate(200 0)"/>
     <use xlink:href="#ArialMT-74" transform="translate(255.615234 0)"/>
     <use xlink:href="#ArialMT-6f" transform="translate(283.398438 0)"/>
     <use xlink:href="#ArialMT-6d" transform="translate(339.013672 0)"/>
     <use xlink:href="#ArialMT-20" transform="translate(422.314453 0)"/>
     <use xlink:href="#ArialMT-52" transform="translate(450.097656 0)"/>
     <use xlink:href="#ArialMT-65" transform="translate(522.314453 0)"/>
     <use xlink:href="#ArialMT-73" transform="translate(577.929688 0)"/>
     <use xlink:href="#ArialMT-6f" transform="translate(627.929688 0)"/>
     <use xlink:href="#ArialMT-6c" transform="translate(683.544922 0)"/>
     <use xlink:href="#ArialMT-75" transform="translate(705.761719 0)"/>
     <use xlink:href="#ArialMT-74" transform="translate(761.376953 0)"/>
     <use xlink:href="#ArialMT-69" transform="translate(789.160156 0)"/>
     <use xlink:href="#ArialMT-6f" transform="translate(811.376953 0)"/>
     <use xlink:href="#ArialMT-6e" transform="translate(866.992188 0)"/>
     <use xlink:href="#ArialMT-20" transform="translate(922.607422 0)"/>
     <use xlink:href="#ArialMT-53" transform="translate(950.390625 0)"/>
     <use xlink:href="#ArialMT-70" transform="translate(1017.089844 0)"/>
     <use xlink:href="#ArialMT-65" transform="translate(1072.705078 0)"/>
     <use xlink:href="#ArialMT-65" transform="translate(1128.320312 0)"/>
     <use xlink:href="#ArialMT-64" transform="translate(1183.935547 0)"/>
    </g>
   </g>
  </g>
 </g>
 <defs>
  <clipPath id="p048b4f61b0">
   <rect x="59.58" y="46.44" width="365.94" height="368.682451"/>
  </clipPath>
  <clipPath id="pf4a396daa7">
   <rect x="485.1" y="46.44" width="365.94" height="368.682451"/>
  </clipPath>
 </defs>
</svg>
