<?xml version="1.0" encoding="utf-8" standalone="no"?>
<!DOCTYPE svg PUBLIC "-//W3C//DTD SVG 1.1//EN"
  "http://www.w3.org/Graphics/SVG/1.1/DTD/svg11.dtd">
<svg xmlns:xlink="http://www.w3.org/1999/xlink" width="864pt" height="432pt" viewBox="0 0 864 432" xmlns="http://www.w3.org/2000/svg" version="1.1">
 <metadata>
  <rdf:RDF xmlns:dc="http://purl.org/dc/elements/1.1/" xmlns:cc="http://creativecommons.org/ns#" xmlns:rdf="http://www.w3.org/1999/02/22-rdf-syntax-ns#">
   <cc:Work>
    <dc:type rdf:resource="http://purl.org/dc/dcmitype/StillImage"/>
    <dc:date>2025-01-23T09:11:57.912522</dc:date>
    <dc:format>image/svg+xml</dc:format>
    <dc:creator>
     <cc:Agent>
      <dc:title>Matplotlib v3.9.2, https://matplotlib.org/</dc:title>
     </cc:Agent>
    </dc:creator>
   </cc:Work>
  </rdf:RDF>
 </metadata>
 <defs>
  <style type="text/css">*{stroke-linejoin: round; stroke-linecap: butt}</style>
 </defs>
 <g id="figure_1">
  <g id="patch_1">
   <path d="M 0 432 
L 864 432 
L 864 0 
L 0 0 
z
" style="fill: #ffffff"/>
  </g>
  <g id="axes_1">
   <g id="patch_2">
    <path d="M 94.25 410.76 
L 448.425 410.76 
L 448.425 30.48 
L 94.25 30.48 
z
" style="fill: #ffffff"/>
   </g>
   <g id="PolyCollection_1">
    <defs>
     <path id="mf022973cd5" d="M 277.138887 -33.361473 
L 265.536113 -33.361473 
L 262.868579 -36.903161 
L 259.371817 -40.44485 
L 254.960966 -43.986538 
L 249.604115 -47.528227 
L 243.334758 -51.069916 
L 236.253618 -54.611604 
L 228.517083 -58.153293 
L 220.312821 -61.694981 
L 211.827009 -65.23667 
L 203.210991 -68.778358 
L 194.556679 -72.320047 
L 185.888944 -75.861736 
L 177.179451 -79.403424 
L 168.380705 -82.945113 
L 159.472951 -86.486801 
L 150.511786 -90.02849 
L 141.662497 -93.570178 
L 133.209172 -97.111867 
L 125.532478 -100.653556 
L 119.058415 -104.195244 
L 114.189012 -107.736933 
L 111.232124 -111.278621 
L 110.348864 -114.82031 
L 111.532779 -118.361999 
L 114.625718 -121.903687 
L 119.364168 -125.445376 
L 125.440574 -128.987064 
L 132.560025 -132.528753 
L 140.475294 -136.070441 
L 148.991615 -139.61213 
L 157.94374 -143.153819 
L 167.157778 -146.695507 
L 176.415539 -150.237196 
L 185.437988 -153.778884 
L 193.897503 -157.320573 
L 201.458411 -160.862261 
L 207.835264 -164.40395 
L 212.851674 -167.945639 
L 216.481294 -171.487327 
L 218.856994 -175.029016 
L 220.243038 -178.570704 
L 220.975565 -182.112393 
L 221.385742 -185.654081 
L 221.725164 -189.19577 
L 222.112719 -192.737459 
L 222.516507 -196.279147 
L 222.775014 -199.820836 
L 222.651403 -203.362524 
L 221.906391 -206.904213 
L 220.371101 -210.445901 
L 218.002371 -213.98759 
L 214.908552 -217.529279 
L 211.341892 -221.070967 
L 207.661589 -224.612656 
L 204.277318 -228.154344 
L 201.585476 -231.696033 
L 199.909578 -235.237721 
L 199.453514 -238.77941 
L 200.273032 -242.321099 
L 202.268085 -245.862787 
L 205.196659 -249.404476 
L 208.708949 -252.946164 
L 212.398595 -256.487853 
L 215.864689 -260.029541 
L 218.775004 -263.57123 
L 220.918583 -267.112919 
L 222.23589 -270.654607 
L 222.818112 -274.196296 
L 222.87372 -277.737984 
L 222.668562 -281.279673 
L 222.453175 -284.821361 
L 222.395248 -288.36305 
L 222.534603 -291.904739 
L 222.772539 -295.446427 
L 222.898375 -298.988116 
L 222.646209 -302.529804 
L 221.767149 -306.071493 
L 220.098832 -309.613182 
L 217.615697 -313.15487 
L 214.449441 -316.696559 
L 210.8771 -320.238247 
L 207.281948 -323.779936 
L 204.097536 -327.321624 
L 201.746917 -330.863313 
L 200.587638 -334.405002 
L 200.869728 -337.94669 
L 202.710228 -341.488379 
L 206.084901 -345.030067 
L 210.836005 -348.571756 
L 216.694052 -352.113444 
L 223.310695 -355.655133 
L 230.298916 -359.196822 
L 237.275524 -362.73851 
L 243.900256 -366.280199 
L 249.906051 -369.821887 
L 255.11651 -373.363576 
L 259.449125 -376.905264 
L 262.90565 -380.446953 
L 265.553263 -383.988642 
L 277.121737 -383.988642 
L 277.121737 -383.988642 
L 279.76935 -380.446953 
L 283.225875 -376.905264 
L 287.55849 -373.363576 
L 292.768949 -369.821887 
L 298.774744 -366.280199 
L 305.399476 -362.73851 
L 312.376084 -359.196822 
L 319.364305 -355.655133 
L 325.980948 -352.113444 
L 331.838995 -348.571756 
L 336.590099 -345.030067 
L 339.964772 -341.488379 
L 341.805272 -337.94669 
L 342.087362 -334.405002 
L 340.928083 -330.863313 
L 338.577464 -327.321624 
L 335.393052 -323.779936 
L 331.7979 -320.238247 
L 328.225559 -316.696559 
L 325.059303 -313.15487 
L 322.576168 -309.613182 
L 320.907851 -306.071493 
L 320.028791 -302.529804 
L 319.776625 -298.988116 
L 319.902461 -295.446427 
L 320.140397 -291.904739 
L 320.279752 -288.36305 
L 320.221825 -284.821361 
L 320.006438 -281.279673 
L 319.80128 -277.737984 
L 319.856888 -274.196296 
L 320.43911 -270.654607 
L 321.756417 -267.112919 
L 323.899996 -263.57123 
L 326.810311 -260.029541 
L 330.276405 -256.487853 
L 333.966051 -252.946164 
L 337.478341 -249.404476 
L 340.406915 -245.862787 
L 342.401968 -242.321099 
L 343.221486 -238.77941 
L 342.765422 -235.237721 
L 341.089524 -231.696033 
L 338.397682 -228.154344 
L 335.013411 -224.612656 
L 331.333108 -221.070967 
L 327.766448 -217.529279 
L 324.672629 -213.98759 
L 322.303899 -210.445901 
L 320.768609 -206.904213 
L 320.023597 -203.362524 
L 319.899986 -199.820836 
L 320.158493 -196.279147 
L 320.562281 -192.737459 
L 320.949836 -189.19577 
L 321.289258 -185.654081 
L 321.699435 -182.112393 
L 322.431962 -178.570704 
L 323.818006 -175.029016 
L 326.193706 -171.487327 
L 329.823326 -167.945639 
L 334.839736 -164.40395 
L 341.216589 -160.862261 
L 348.777497 -157.320573 
L 357.237012 -153.778884 
L 366.259461 -150.237196 
L 375.517222 -146.695507 
L 384.73126 -143.153819 
L 393.683385 -139.61213 
L 402.199706 -136.070441 
L 410.114975 -132.528753 
L 417.234426 -128.987064 
L 423.310832 -125.445376 
L 428.049282 -121.903687 
L 431.142221 -118.361999 
L 432.326136 -114.82031 
L 431.442876 -111.278621 
L 428.485988 -107.736933 
L 423.616585 -104.195244 
L 417.142522 -100.653556 
L 409.465828 -97.111867 
L 401.012503 -93.570178 
L 392.163214 -90.02849 
L 383.202049 -86.486801 
L 374.294295 -82.945113 
L 365.495549 -79.403424 
L 356.786056 -75.861736 
L 348.118321 -72.320047 
L 339.464009 -68.778358 
L 330.847991 -65.23667 
L 322.362179 -61.694981 
L 314.157917 -58.153293 
L 306.421382 -54.611604 
L 299.340242 -51.069916 
L 293.070885 -47.528227 
L 287.714034 -43.986538 
L 283.303183 -40.44485 
L 279.806421 -36.903161 
L 277.138887 -33.361473 
z
"/>
    </defs>
    <g clip-path="url(#p95e9133c81)">
     <use xlink:href="#mf022973cd5" x="0" y="432" style="fill: #d3d3d3"/>
    </g>
   </g>
   <g id="matplotlib.axis_1"/>
   <g id="matplotlib.axis_2">
    <g id="ytick_1">
     <g id="line2d_1">
      <defs>
       <path id="m48190d74aa" d="M 0 0 
L -3.5 0 
" style="stroke: #000000; stroke-width: 0.8"/>
      </defs>
      <g>
       <use xlink:href="#m48190d74aa" x="94.25" y="410.76" style="stroke: #000000; stroke-width: 0.8"/>
      </g>
     </g>
     <g id="text_1">
      <!-- −0.25 -->
      <g transform="translate(32.088438 417.598594) scale(0.18 -0.18)">
       <defs>
        <path id="DejaVuSans-2212" d="M 678 2272 
L 4684 2272 
L 4684 1741 
L 678 1741 
L 678 2272 
z
" transform="scale(0.015625)"/>
        <path id="DejaVuSans-30" d="M 2034 4250 
Q 1547 4250 1301 3770 
Q 1056 3291 1056 2328 
Q 1056 1369 1301 889 
Q 1547 409 2034 409 
Q 2525 409 2770 889 
Q 3016 1369 3016 2328 
Q 3016 3291 2770 3770 
Q 2525 4250 2034 4250 
z
M 2034 4750 
Q 2819 4750 3233 4129 
Q 3647 3509 3647 2328 
Q 3647 1150 3233 529 
Q 2819 -91 2034 -91 
Q 1250 -91 836 529 
Q 422 1150 422 2328 
Q 422 3509 836 4129 
Q 1250 4750 2034 4750 
z
" transform="scale(0.015625)"/>
        <path id="DejaVuSans-2e" d="M 684 794 
L 1344 794 
L 1344 0 
L 684 0 
L 684 794 
z
" transform="scale(0.015625)"/>
        <path id="DejaVuSans-32" d="M 1228 531 
L 3431 531 
L 3431 0 
L 469 0 
L 469 531 
Q 828 903 1448 1529 
Q 2069 2156 2228 2338 
Q 2531 2678 2651 2914 
Q 2772 3150 2772 3378 
Q 2772 3750 2511 3984 
Q 2250 4219 1831 4219 
Q 1534 4219 1204 4116 
Q 875 4013 500 3803 
L 500 4441 
Q 881 4594 1212 4672 
Q 1544 4750 1819 4750 
Q 2544 4750 2975 4387 
Q 3406 4025 3406 3419 
Q 3406 3131 3298 2873 
Q 3191 2616 2906 2266 
Q 2828 2175 2409 1742 
Q 1991 1309 1228 531 
z
" transform="scale(0.015625)"/>
        <path id="DejaVuSans-35" d="M 691 4666 
L 3169 4666 
L 3169 4134 
L 1269 4134 
L 1269 2991 
Q 1406 3038 1543 3061 
Q 1681 3084 1819 3084 
Q 2600 3084 3056 2656 
Q 3513 2228 3513 1497 
Q 3513 744 3044 326 
Q 2575 -91 1722 -91 
Q 1428 -91 1123 -41 
Q 819 9 494 109 
L 494 744 
Q 775 591 1075 516 
Q 1375 441 1709 441 
Q 2250 441 2565 725 
Q 2881 1009 2881 1497 
Q 2881 1984 2565 2268 
Q 2250 2553 1709 2553 
Q 1456 2553 1204 2497 
Q 953 2441 691 2322 
L 691 4666 
z
" transform="scale(0.015625)"/>
       </defs>
       <use xlink:href="#DejaVuSans-2212"/>
       <use xlink:href="#DejaVuSans-30" x="83.789062"/>
       <use xlink:href="#DejaVuSans-2e" x="147.412109"/>
       <use xlink:href="#DejaVuSans-32" x="179.199219"/>
       <use xlink:href="#DejaVuSans-35" x="242.822266"/>
      </g>
     </g>
    </g>
    <g id="ytick_2">
     <g id="line2d_2">
      <g>
       <use xlink:href="#m48190d74aa" x="94.25" y="361.434985" style="stroke: #000000; stroke-width: 0.8"/>
      </g>
     </g>
     <g id="text_2">
      <!-- 0.00 -->
      <g transform="translate(47.171875 368.273579) scale(0.18 -0.18)">
       <use xlink:href="#DejaVuSans-30"/>
       <use xlink:href="#DejaVuSans-2e" x="63.623047"/>
       <use xlink:href="#DejaVuSans-30" x="95.410156"/>
       <use xlink:href="#DejaVuSans-30" x="159.033203"/>
      </g>
     </g>
    </g>
    <g id="ytick_3">
     <g id="line2d_3">
      <g>
       <use xlink:href="#m48190d74aa" x="94.25" y="312.10997" style="stroke: #000000; stroke-width: 0.8"/>
      </g>
     </g>
     <g id="text_3">
      <!-- 0.25 -->
      <g transform="translate(47.171875 318.948564) scale(0.18 -0.18)">
       <use xlink:href="#DejaVuSans-30"/>
       <use xlink:href="#DejaVuSans-2e" x="63.623047"/>
       <use xlink:href="#DejaVuSans-32" x="95.410156"/>
       <use xlink:href="#DejaVuSans-35" x="159.033203"/>
      </g>
     </g>
    </g>
    <g id="ytick_4">
     <g id="line2d_4">
      <g>
       <use xlink:href="#m48190d74aa" x="94.25" y="262.784955" style="stroke: #000000; stroke-width: 0.8"/>
      </g>
     </g>
     <g id="text_4">
      <!-- 0.50 -->
      <g transform="translate(47.171875 269.623549) scale(0.18 -0.18)">
       <use xlink:href="#DejaVuSans-30"/>
       <use xlink:href="#DejaVuSans-2e" x="63.623047"/>
       <use xlink:href="#DejaVuSans-35" x="95.410156"/>
       <use xlink:href="#DejaVuSans-30" x="159.033203"/>
      </g>
     </g>
    </g>
    <g id="ytick_5">
     <g id="line2d_5">
      <g>
       <use xlink:href="#m48190d74aa" x="94.25" y="213.45994" style="stroke: #000000; stroke-width: 0.8"/>
      </g>
     </g>
     <g id="text_5">
      <!-- 0.75 -->
      <g transform="translate(47.171875 220.298534) scale(0.18 -0.18)">
       <defs>
        <path id="DejaVuSans-37" d="M 525 4666 
L 3525 4666 
L 3525 4397 
L 1831 0 
L 1172 0 
L 2766 4134 
L 525 4134 
L 525 4666 
z
" transform="scale(0.015625)"/>
       </defs>
       <use xlink:href="#DejaVuSans-30"/>
       <use xlink:href="#DejaVuSans-2e" x="63.623047"/>
       <use xlink:href="#DejaVuSans-37" x="95.410156"/>
       <use xlink:href="#DejaVuSans-35" x="159.033203"/>
      </g>
     </g>
    </g>
    <g id="ytick_6">
     <g id="line2d_6">
      <g>
       <use xlink:href="#m48190d74aa" x="94.25" y="164.134925" style="stroke: #000000; stroke-width: 0.8"/>
      </g>
     </g>
     <g id="text_6">
      <!-- 1.00 -->
      <g transform="translate(47.171875 170.973519) scale(0.18 -0.18)">
       <defs>
        <path id="DejaVuSans-31" d="M 794 531 
L 1825 531 
L 1825 4091 
L 703 3866 
L 703 4441 
L 1819 4666 
L 2450 4666 
L 2450 531 
L 3481 531 
L 3481 0 
L 794 0 
L 794 531 
z
" transform="scale(0.015625)"/>
       </defs>
       <use xlink:href="#DejaVuSans-31"/>
       <use xlink:href="#DejaVuSans-2e" x="63.623047"/>
       <use xlink:href="#DejaVuSans-30" x="95.410156"/>
       <use xlink:href="#DejaVuSans-30" x="159.033203"/>
      </g>
     </g>
    </g>
    <g id="ytick_7">
     <g id="line2d_7">
      <g>
       <use xlink:href="#m48190d74aa" x="94.25" y="114.80991" style="stroke: #000000; stroke-width: 0.8"/>
      </g>
     </g>
     <g id="text_7">
      <!-- 1.25 -->
      <g transform="translate(47.171875 121.648504) scale(0.18 -0.18)">
       <use xlink:href="#DejaVuSans-31"/>
       <use xlink:href="#DejaVuSans-2e" x="63.623047"/>
       <use xlink:href="#DejaVuSans-32" x="95.410156"/>
       <use xlink:href="#DejaVuSans-35" x="159.033203"/>
      </g>
     </g>
    </g>
    <g id="ytick_8">
     <g id="line2d_8">
      <g>
       <use xlink:href="#m48190d74aa" x="94.25" y="65.484895" style="stroke: #000000; stroke-width: 0.8"/>
      </g>
     </g>
     <g id="text_8">
      <!-- 1.50 -->
      <g transform="translate(47.171875 72.323488) scale(0.18 -0.18)">
       <use xlink:href="#DejaVuSans-31"/>
       <use xlink:href="#DejaVuSans-2e" x="63.623047"/>
       <use xlink:href="#DejaVuSans-35" x="95.410156"/>
       <use xlink:href="#DejaVuSans-30" x="159.033203"/>
      </g>
     </g>
    </g>
    <g id="text_9">
     <!-- Scale Value -->
     <g transform="translate(24.345 272.412187) rotate(-90) scale(0.18 -0.18)">
      <defs>
       <path id="DejaVuSans-53" d="M 3425 4513 
L 3425 3897 
Q 3066 4069 2747 4153 
Q 2428 4238 2131 4238 
Q 1616 4238 1336 4038 
Q 1056 3838 1056 3469 
Q 1056 3159 1242 3001 
Q 1428 2844 1947 2747 
L 2328 2669 
Q 3034 2534 3370 2195 
Q 3706 1856 3706 1288 
Q 3706 609 3251 259 
Q 2797 -91 1919 -91 
Q 1588 -91 1214 -16 
Q 841 59 441 206 
L 441 856 
Q 825 641 1194 531 
Q 1563 422 1919 422 
Q 2459 422 2753 634 
Q 3047 847 3047 1241 
Q 3047 1584 2836 1778 
Q 2625 1972 2144 2069 
L 1759 2144 
Q 1053 2284 737 2584 
Q 422 2884 422 3419 
Q 422 4038 858 4394 
Q 1294 4750 2059 4750 
Q 2388 4750 2728 4690 
Q 3069 4631 3425 4513 
z
" transform="scale(0.015625)"/>
       <path id="DejaVuSans-63" d="M 3122 3366 
L 3122 2828 
Q 2878 2963 2633 3030 
Q 2388 3097 2138 3097 
Q 1578 3097 1268 2742 
Q 959 2388 959 1747 
Q 959 1106 1268 751 
Q 1578 397 2138 397 
Q 2388 397 2633 464 
Q 2878 531 3122 666 
L 3122 134 
Q 2881 22 2623 -34 
Q 2366 -91 2075 -91 
Q 1284 -91 818 406 
Q 353 903 353 1747 
Q 353 2603 823 3093 
Q 1294 3584 2113 3584 
Q 2378 3584 2631 3529 
Q 2884 3475 3122 3366 
z
" transform="scale(0.015625)"/>
       <path id="DejaVuSans-61" d="M 2194 1759 
Q 1497 1759 1228 1600 
Q 959 1441 959 1056 
Q 959 750 1161 570 
Q 1363 391 1709 391 
Q 2188 391 2477 730 
Q 2766 1069 2766 1631 
L 2766 1759 
L 2194 1759 
z
M 3341 1997 
L 3341 0 
L 2766 0 
L 2766 531 
Q 2569 213 2275 61 
Q 1981 -91 1556 -91 
Q 1019 -91 701 211 
Q 384 513 384 1019 
Q 384 1609 779 1909 
Q 1175 2209 1959 2209 
L 2766 2209 
L 2766 2266 
Q 2766 2663 2505 2880 
Q 2244 3097 1772 3097 
Q 1472 3097 1187 3025 
Q 903 2953 641 2809 
L 641 3341 
Q 956 3463 1253 3523 
Q 1550 3584 1831 3584 
Q 2591 3584 2966 3190 
Q 3341 2797 3341 1997 
z
" transform="scale(0.015625)"/>
       <path id="DejaVuSans-6c" d="M 603 4863 
L 1178 4863 
L 1178 0 
L 603 0 
L 603 4863 
z
" transform="scale(0.015625)"/>
       <path id="DejaVuSans-65" d="M 3597 1894 
L 3597 1613 
L 953 1613 
Q 991 1019 1311 708 
Q 1631 397 2203 397 
Q 2534 397 2845 478 
Q 3156 559 3463 722 
L 3463 178 
Q 3153 47 2828 -22 
Q 2503 -91 2169 -91 
Q 1331 -91 842 396 
Q 353 884 353 1716 
Q 353 2575 817 3079 
Q 1281 3584 2069 3584 
Q 2775 3584 3186 3129 
Q 3597 2675 3597 1894 
z
M 3022 2063 
Q 3016 2534 2758 2815 
Q 2500 3097 2075 3097 
Q 1594 3097 1305 2825 
Q 1016 2553 972 2059 
L 3022 2063 
z
" transform="scale(0.015625)"/>
       <path id="DejaVuSans-20" transform="scale(0.015625)"/>
       <path id="DejaVuSans-56" d="M 1831 0 
L 50 4666 
L 709 4666 
L 2188 738 
L 3669 4666 
L 4325 4666 
L 2547 0 
L 1831 0 
z
" transform="scale(0.015625)"/>
       <path id="DejaVuSans-75" d="M 544 1381 
L 544 3500 
L 1119 3500 
L 1119 1403 
Q 1119 906 1312 657 
Q 1506 409 1894 409 
Q 2359 409 2629 706 
Q 2900 1003 2900 1516 
L 2900 3500 
L 3475 3500 
L 3475 0 
L 2900 0 
L 2900 538 
Q 2691 219 2414 64 
Q 2138 -91 1772 -91 
Q 1169 -91 856 284 
Q 544 659 544 1381 
z
M 1991 3584 
L 1991 3584 
z
" transform="scale(0.015625)"/>
      </defs>
      <use xlink:href="#DejaVuSans-53"/>
      <use xlink:href="#DejaVuSans-63" x="63.476562"/>
      <use xlink:href="#DejaVuSans-61" x="118.457031"/>
      <use xlink:href="#DejaVuSans-6c" x="179.736328"/>
      <use xlink:href="#DejaVuSans-65" x="207.519531"/>
      <use xlink:href="#DejaVuSans-20" x="269.042969"/>
      <use xlink:href="#DejaVuSans-56" x="300.830078"/>
      <use xlink:href="#DejaVuSans-61" x="361.488281"/>
      <use xlink:href="#DejaVuSans-6c" x="422.767578"/>
      <use xlink:href="#DejaVuSans-75" x="450.550781"/>
      <use xlink:href="#DejaVuSans-65" x="513.929688"/>
     </g>
    </g>
   </g>
   <g id="patch_3">
    <path d="M 94.25 410.76 
L 94.25 30.48 
" style="fill: none; stroke: #000000; stroke-width: 0.8; stroke-linejoin: miter; stroke-linecap: square"/>
   </g>
   <g id="patch_4">
    <path d="M 448.425 410.76 
L 448.425 30.48 
" style="fill: none; stroke: #000000; stroke-width: 0.8; stroke-linejoin: miter; stroke-linecap: square"/>
   </g>
   <g id="patch_5">
    <path d="M 94.25 410.76 
L 448.425 410.76 
" style="fill: none; stroke: #000000; stroke-width: 0.8; stroke-linejoin: miter; stroke-linecap: square"/>
   </g>
   <g id="patch_6">
    <path d="M 94.25 30.48 
L 448.425 30.48 
" style="fill: none; stroke: #000000; stroke-width: 0.8; stroke-linejoin: miter; stroke-linecap: square"/>
   </g>
   <g id="PathCollection_1">
    <defs>
     <path id="C0_0_1cd8c7133a" d="M 0 6.123724 
C 1.624031 6.123724 3.181764 5.47849 4.330127 4.330127 
C 5.47849 3.181764 6.123724 1.624031 6.123724 -0 
C 6.123724 -1.624031 5.47849 -3.181764 4.330127 -4.330127 
C 3.181764 -5.47849 1.624031 -6.123724 0 -6.123724 
C -1.624031 -6.123724 -3.181764 -5.47849 -4.330127 -4.330127 
C -5.47849 -3.181764 -6.123724 -1.624031 -6.123724 0 
C -6.123724 1.624031 -5.47849 3.181764 -4.330127 4.330127 
C -3.181764 5.47849 -1.624031 6.123724 0 6.123724 
z
"/>
    </defs>
    <g clip-path="url(#p95e9133c81)">
     <use xlink:href="#C0_0_1cd8c7133a" x="210.966761" y="321.974973" style="fill: #808080; stroke: #000000"/>
    </g>
    <g clip-path="url(#p95e9133c81)">
     <use xlink:href="#C0_0_1cd8c7133a" x="221.028551" y="85.214901" style="fill: #800080; stroke: #000000"/>
    </g>
    <g clip-path="url(#p95e9133c81)">
     <use xlink:href="#C0_0_1cd8c7133a" x="231.090341" y="203.594937" style="fill: #ff00ff; stroke: #000000"/>
    </g>
    <g clip-path="url(#p95e9133c81)">
     <use xlink:href="#C0_0_1cd8c7133a" x="241.152131" y="312.10997" style="fill: #ff0000; stroke: #000000"/>
    </g>
    <g clip-path="url(#p95e9133c81)">
     <use xlink:href="#C0_0_1cd8c7133a" x="251.21392" y="282.514961" style="fill: #daa520; stroke: #000000"/>
    </g>
    <g clip-path="url(#p95e9133c81)">
     <use xlink:href="#C0_0_1cd8c7133a" x="261.27571" y="341.704979" style="fill: #ff8c00; stroke: #000000"/>
    </g>
    <g clip-path="url(#p95e9133c81)">
     <use xlink:href="#C0_0_1cd8c7133a" x="271.3375" y="144.404919" style="fill: #8b4513; stroke: #000000"/>
    </g>
    <g clip-path="url(#p95e9133c81)">
     <use xlink:href="#C0_0_1cd8c7133a" x="281.39929" y="183.864931" style="fill: #0000cd; stroke: #000000"/>
    </g>
    <g clip-path="url(#p95e9133c81)">
     <use xlink:href="#C0_0_1cd8c7133a" x="291.46108" y="294.352965" style="fill: #1e90ff; stroke: #000000"/>
    </g>
    <g clip-path="url(#p95e9133c81)">
     <use xlink:href="#C0_0_1cd8c7133a" x="301.522869" y="321.974973" style="fill: #40e0d0; stroke: #000000"/>
    </g>
    <g clip-path="url(#p95e9133c81)">
     <use xlink:href="#C0_0_1cd8c7133a" x="311.584659" y="243.054949" style="fill: #006400; stroke: #000000"/>
    </g>
    <g clip-path="url(#p95e9133c81)">
     <use xlink:href="#C0_0_1cd8c7133a" x="321.646449" y="361.434985" style="fill: #7cfc00; stroke: #000000"/>
    </g>
    <g clip-path="url(#p95e9133c81)">
     <use xlink:href="#C0_0_1cd8c7133a" x="331.708239" y="104.944907" style="stroke: #000000"/>
    </g>
   </g>
   <g id="text_10">
    <!-- Symptom Scale -->
    <g transform="translate(200.939219 24.48) scale(0.18 -0.18)">
     <defs>
      <path id="DejaVuSans-79" d="M 2059 -325 
Q 1816 -950 1584 -1140 
Q 1353 -1331 966 -1331 
L 506 -1331 
L 506 -850 
L 844 -850 
Q 1081 -850 1212 -737 
Q 1344 -625 1503 -206 
L 1606 56 
L 191 3500 
L 800 3500 
L 1894 763 
L 2988 3500 
L 3597 3500 
L 2059 -325 
z
" transform="scale(0.015625)"/>
      <path id="DejaVuSans-6d" d="M 3328 2828 
Q 3544 3216 3844 3400 
Q 4144 3584 4550 3584 
Q 5097 3584 5394 3201 
Q 5691 2819 5691 2113 
L 5691 0 
L 5113 0 
L 5113 2094 
Q 5113 2597 4934 2840 
Q 4756 3084 4391 3084 
Q 3944 3084 3684 2787 
Q 3425 2491 3425 1978 
L 3425 0 
L 2847 0 
L 2847 2094 
Q 2847 2600 2669 2842 
Q 2491 3084 2119 3084 
Q 1678 3084 1418 2786 
Q 1159 2488 1159 1978 
L 1159 0 
L 581 0 
L 581 3500 
L 1159 3500 
L 1159 2956 
Q 1356 3278 1631 3431 
Q 1906 3584 2284 3584 
Q 2666 3584 2933 3390 
Q 3200 3197 3328 2828 
z
" transform="scale(0.015625)"/>
      <path id="DejaVuSans-70" d="M 1159 525 
L 1159 -1331 
L 581 -1331 
L 581 3500 
L 1159 3500 
L 1159 2969 
Q 1341 3281 1617 3432 
Q 1894 3584 2278 3584 
Q 2916 3584 3314 3078 
Q 3713 2572 3713 1747 
Q 3713 922 3314 415 
Q 2916 -91 2278 -91 
Q 1894 -91 1617 61 
Q 1341 213 1159 525 
z
M 3116 1747 
Q 3116 2381 2855 2742 
Q 2594 3103 2138 3103 
Q 1681 3103 1420 2742 
Q 1159 2381 1159 1747 
Q 1159 1113 1420 752 
Q 1681 391 2138 391 
Q 2594 391 2855 752 
Q 3116 1113 3116 1747 
z
" transform="scale(0.015625)"/>
      <path id="DejaVuSans-74" d="M 1172 4494 
L 1172 3500 
L 2356 3500 
L 2356 3053 
L 1172 3053 
L 1172 1153 
Q 1172 725 1289 603 
Q 1406 481 1766 481 
L 2356 481 
L 2356 0 
L 1766 0 
Q 1100 0 847 248 
Q 594 497 594 1153 
L 594 3053 
L 172 3053 
L 172 3500 
L 594 3500 
L 594 4494 
L 1172 4494 
z
" transform="scale(0.015625)"/>
      <path id="DejaVuSans-6f" d="M 1959 3097 
Q 1497 3097 1228 2736 
Q 959 2375 959 1747 
Q 959 1119 1226 758 
Q 1494 397 1959 397 
Q 2419 397 2687 759 
Q 2956 1122 2956 1747 
Q 2956 2369 2687 2733 
Q 2419 3097 1959 3097 
z
M 1959 3584 
Q 2709 3584 3137 3096 
Q 3566 2609 3566 1747 
Q 3566 888 3137 398 
Q 2709 -91 1959 -91 
Q 1206 -91 779 398 
Q 353 888 353 1747 
Q 353 2609 779 3096 
Q 1206 3584 1959 3584 
z
" transform="scale(0.015625)"/>
     </defs>
     <use xlink:href="#DejaVuSans-53"/>
     <use xlink:href="#DejaVuSans-79" x="63.476562"/>
     <use xlink:href="#DejaVuSans-6d" x="122.65625"/>
     <use xlink:href="#DejaVuSans-70" x="220.068359"/>
     <use xlink:href="#DejaVuSans-74" x="283.544922"/>
     <use xlink:href="#DejaVuSans-6f" x="322.753906"/>
     <use xlink:href="#DejaVuSans-6d" x="383.935547"/>
     <use xlink:href="#DejaVuSans-20" x="481.347656"/>
     <use xlink:href="#DejaVuSans-53" x="513.134766"/>
     <use xlink:href="#DejaVuSans-63" x="576.611328"/>
     <use xlink:href="#DejaVuSans-61" x="631.591797"/>
     <use xlink:href="#DejaVuSans-6c" x="692.871094"/>
     <use xlink:href="#DejaVuSans-65" x="720.654297"/>
    </g>
   </g>
  </g>
  <g id="axes_2">
   <g id="patch_7">
    <path d="M 499.025 410.76 
L 853.2 410.76 
L 853.2 30.48 
L 499.025 30.48 
z
" style="fill: #ffffff"/>
   </g>
   <g id="PolyCollection_2">
    <defs>
     <path id="m1f317b1596" d="M 681.061018 -24.666045 
L 671.163982 -24.666045 
L 668.76051 -28.291384 
L 665.542872 -31.916722 
L 661.392825 -35.542061 
L 656.230048 -39.1674 
L 650.025308 -42.792738 
L 642.805628 -46.418077 
L 634.64912 -50.043416 
L 625.670181 -53.668754 
L 615.999291 -57.294093 
L 605.764475 -60.919432 
L 595.082323 -64.54477 
L 584.064471 -68.170109 
L 572.840689 -71.795448 
L 561.59344 -75.420786 
L 550.592879 -79.046125 
L 540.218016 -82.671464 
L 530.950996 -86.296802 
L 523.337386 -89.922141 
L 517.914967 -93.54748 
L 515.123864 -97.172818 
L 515.21854 -100.798157 
L 518.204231 -104.423496 
L 523.815638 -108.048834 
L 531.545345 -111.674173 
L 540.716574 -115.299512 
L 550.583928 -118.92485 
L 560.439754 -122.550189 
L 569.704483 -126.175528 
L 577.985575 -129.800866 
L 585.099022 -133.426205 
L 591.056324 -137.051544 
L 596.026093 -140.676882 
L 600.281712 -144.302221 
L 604.145429 -147.92756 
L 607.93632 -151.552898 
L 611.926409 -155.178237 
L 616.3071 -158.803576 
L 621.167105 -162.428914 
L 626.482909 -166.054253 
L 632.12253 -169.679592 
L 637.86243 -173.304931 
L 643.415779 -176.930269 
L 648.468526 -180.555608 
L 652.718541 -184.180947 
L 655.912904 -187.806285 
L 657.879322 -191.431624 
L 658.548833 -195.056963 
L 657.967967 -198.682301 
L 656.298896 -202.30764 
L 653.806153 -205.932979 
L 650.829018 -209.558317 
L 647.740364 -213.183656 
L 644.895819 -216.808995 
L 642.580859 -220.434333 
L 640.96634 -224.059672 
L 640.083515 -227.685011 
L 639.826603 -231.310349 
L 639.98484 -234.935688 
L 640.298072 -238.561027 
L 640.522887 -242.186365 
L 640.49237 -245.811704 
L 640.15354 -249.437043 
L 639.572232 -253.062381 
L 638.904339 -256.68772 
L 638.342011 -260.313059 
L 638.05081 -263.938397 
L 638.11652 -267.563736 
L 638.5174 -271.189075 
L 639.130001 -274.814413 
L 639.766508 -278.439752 
L 640.231992 -282.065091 
L 640.383952 -285.690429 
L 640.175874 -289.315768 
L 639.671449 -292.941107 
L 639.025107 -296.566445 
L 638.43481 -300.191784 
L 638.081598 -303.817123 
L 638.07444 -307.442461 
L 638.417376 -311.0678 
L 639.009222 -314.693139 
L 639.676195 -318.318477 
L 640.227913 -321.943816 
L 640.52015 -325.569155 
L 640.505786 -329.194493 
L 640.258918 -332.819832 
L 639.965137 -336.445171 
L 639.880766 -340.070509 
L 640.272647 -343.695848 
L 641.355044 -347.321187 
L 643.2402 -350.946526 
L 645.914352 -354.571864 
L 649.24321 -358.197203 
L 653.002803 -361.822542 
L 656.92551 -365.44788 
L 660.748666 -369.073219 
L 664.254531 -372.698558 
L 667.294591 -376.323896 
L 669.796365 -379.949235 
L 671.755447 -383.574574 
L 680.469553 -383.574574 
L 680.469553 -383.574574 
L 682.428635 -379.949235 
L 684.930409 -376.323896 
L 687.970469 -372.698558 
L 691.476334 -369.073219 
L 695.29949 -365.44788 
L 699.222197 -361.822542 
L 702.98179 -358.197203 
L 706.310648 -354.571864 
L 708.9848 -350.946526 
L 710.869956 -347.321187 
L 711.952353 -343.695848 
L 712.344234 -340.070509 
L 712.259863 -336.445171 
L 711.966082 -332.819832 
L 711.719214 -329.194493 
L 711.70485 -325.569155 
L 711.997087 -321.943816 
L 712.548805 -318.318477 
L 713.215778 -314.693139 
L 713.807624 -311.0678 
L 714.15056 -307.442461 
L 714.143402 -303.817123 
L 713.79019 -300.191784 
L 713.199893 -296.566445 
L 712.553551 -292.941107 
L 712.049126 -289.315768 
L 711.841048 -285.690429 
L 711.993008 -282.065091 
L 712.458492 -278.439752 
L 713.094999 -274.814413 
L 713.7076 -271.189075 
L 714.10848 -267.563736 
L 714.17419 -263.938397 
L 713.882989 -260.313059 
L 713.320661 -256.68772 
L 712.652768 -253.062381 
L 712.07146 -249.437043 
L 711.73263 -245.811704 
L 711.702113 -242.186365 
L 711.926928 -238.561027 
L 712.24016 -234.935688 
L 712.398397 -231.310349 
L 712.141485 -227.685011 
L 711.25866 -224.059672 
L 709.644141 -220.434333 
L 707.329181 -216.808995 
L 704.484636 -213.183656 
L 701.395982 -209.558317 
L 698.418847 -205.932979 
L 695.926104 -202.30764 
L 694.257033 -198.682301 
L 693.676167 -195.056963 
L 694.345678 -191.431624 
L 696.312096 -187.806285 
L 699.506459 -184.180947 
L 703.756474 -180.555608 
L 708.809221 -176.930269 
L 714.36257 -173.304931 
L 720.10247 -169.679592 
L 725.742091 -166.054253 
L 731.057895 -162.428914 
L 735.9179 -158.803576 
L 740.298591 -155.178237 
L 744.28868 -151.552898 
L 748.079571 -147.92756 
L 751.943288 -144.302221 
L 756.198907 -140.676882 
L 761.168676 -137.051544 
L 767.125978 -133.426205 
L 774.239425 -129.800866 
L 782.520517 -126.175528 
L 791.785246 -122.550189 
L 801.641072 -118.92485 
L 811.508426 -115.299512 
L 820.679655 -111.674173 
L 828.409362 -108.048834 
L 834.020769 -104.423496 
L 837.00646 -100.798157 
L 837.101136 -97.172818 
L 834.310033 -93.54748 
L 828.887614 -89.922141 
L 821.274004 -86.296802 
L 812.006984 -82.671464 
L 801.632121 -79.046125 
L 790.63156 -75.420786 
L 779.384311 -71.795448 
L 768.160529 -68.170109 
L 757.142677 -64.54477 
L 746.460525 -60.919432 
L 736.225709 -57.294093 
L 726.554819 -53.668754 
L 717.57588 -50.043416 
L 709.419372 -46.418077 
L 702.199692 -42.792738 
L 695.994952 -39.1674 
L 690.832175 -35.542061 
L 686.682128 -31.916722 
L 683.46449 -28.291384 
L 681.061018 -24.666045 
z
"/>
    </defs>
    <g clip-path="url(#p547aaa2880)">
     <use xlink:href="#m1f317b1596" x="0" y="432" style="fill: #d3d3d3"/>
    </g>
   </g>
   <g id="matplotlib.axis_3"/>
   <g id="matplotlib.axis_4">
    <g id="ytick_9">
     <g id="line2d_9">
      <g>
       <use xlink:href="#m48190d74aa" x="499.025" y="370.119931" style="stroke: #000000; stroke-width: 0.8"/>
      </g>
     </g>
     <g id="text_11">
      <!-- 0 -->
      <g transform="translate(480.5725 376.958525) scale(0.18 -0.18)">
       <use xlink:href="#DejaVuSans-30"/>
      </g>
     </g>
    </g>
    <g id="ytick_10">
     <g id="line2d_10">
      <g>
       <use xlink:href="#m48190d74aa" x="499.025" y="288.839794" style="stroke: #000000; stroke-width: 0.8"/>
      </g>
     </g>
     <g id="text_12">
      <!-- 2 -->
      <g transform="translate(480.5725 295.678388) scale(0.18 -0.18)">
       <use xlink:href="#DejaVuSans-32"/>
      </g>
     </g>
    </g>
    <g id="ytick_11">
     <g id="line2d_11">
      <g>
       <use xlink:href="#m48190d74aa" x="499.025" y="207.559656" style="stroke: #000000; stroke-width: 0.8"/>
      </g>
     </g>
     <g id="text_13">
      <!-- 4 -->
      <g transform="translate(480.5725 214.39825) scale(0.18 -0.18)">
       <defs>
        <path id="DejaVuSans-34" d="M 2419 4116 
L 825 1625 
L 2419 1625 
L 2419 4116 
z
M 2253 4666 
L 3047 4666 
L 3047 1625 
L 3713 1625 
L 3713 1100 
L 3047 1100 
L 3047 0 
L 2419 0 
L 2419 1100 
L 313 1100 
L 313 1709 
L 2253 4666 
z
" transform="scale(0.015625)"/>
       </defs>
       <use xlink:href="#DejaVuSans-34"/>
      </g>
     </g>
    </g>
    <g id="ytick_12">
     <g id="line2d_12">
      <g>
       <use xlink:href="#m48190d74aa" x="499.025" y="126.279519" style="stroke: #000000; stroke-width: 0.8"/>
      </g>
     </g>
     <g id="text_14">
      <!-- 6 -->
      <g transform="translate(480.5725 133.118113) scale(0.18 -0.18)">
       <defs>
        <path id="DejaVuSans-36" d="M 2113 2584 
Q 1688 2584 1439 2293 
Q 1191 2003 1191 1497 
Q 1191 994 1439 701 
Q 1688 409 2113 409 
Q 2538 409 2786 701 
Q 3034 994 3034 1497 
Q 3034 2003 2786 2293 
Q 2538 2584 2113 2584 
z
M 3366 4563 
L 3366 3988 
Q 3128 4100 2886 4159 
Q 2644 4219 2406 4219 
Q 1781 4219 1451 3797 
Q 1122 3375 1075 2522 
Q 1259 2794 1537 2939 
Q 1816 3084 2150 3084 
Q 2853 3084 3261 2657 
Q 3669 2231 3669 1497 
Q 3669 778 3244 343 
Q 2819 -91 2113 -91 
Q 1303 -91 875 529 
Q 447 1150 447 2328 
Q 447 3434 972 4092 
Q 1497 4750 2381 4750 
Q 2619 4750 2861 4703 
Q 3103 4656 3366 4563 
z
" transform="scale(0.015625)"/>
       </defs>
       <use xlink:href="#DejaVuSans-36"/>
      </g>
     </g>
    </g>
    <g id="ytick_13">
     <g id="line2d_13">
      <g>
       <use xlink:href="#m48190d74aa" x="499.025" y="44.999382" style="stroke: #000000; stroke-width: 0.8"/>
      </g>
     </g>
     <g id="text_15">
      <!-- 8 -->
      <g transform="translate(480.5725 51.837975) scale(0.18 -0.18)">
       <defs>
        <path id="DejaVuSans-38" d="M 2034 2216 
Q 1584 2216 1326 1975 
Q 1069 1734 1069 1313 
Q 1069 891 1326 650 
Q 1584 409 2034 409 
Q 2484 409 2743 651 
Q 3003 894 3003 1313 
Q 3003 1734 2745 1975 
Q 2488 2216 2034 2216 
z
M 1403 2484 
Q 997 2584 770 2862 
Q 544 3141 544 3541 
Q 544 4100 942 4425 
Q 1341 4750 2034 4750 
Q 2731 4750 3128 4425 
Q 3525 4100 3525 3541 
Q 3525 3141 3298 2862 
Q 3072 2584 2669 2484 
Q 3125 2378 3379 2068 
Q 3634 1759 3634 1313 
Q 3634 634 3220 271 
Q 2806 -91 2034 -91 
Q 1263 -91 848 271 
Q 434 634 434 1313 
Q 434 1759 690 2068 
Q 947 2378 1403 2484 
z
M 1172 3481 
Q 1172 3119 1398 2916 
Q 1625 2713 2034 2713 
Q 2441 2713 2670 2916 
Q 2900 3119 2900 3481 
Q 2900 3844 2670 4047 
Q 2441 4250 2034 4250 
Q 1625 4250 1398 4047 
Q 1172 3844 1172 3481 
z
" transform="scale(0.015625)"/>
       </defs>
       <use xlink:href="#DejaVuSans-38"/>
      </g>
     </g>
    </g>
    <g id="text_16">
     <!-- Scale Value -->
     <g transform="translate(472.829062 272.412187) rotate(-90) scale(0.18 -0.18)">
      <use xlink:href="#DejaVuSans-53"/>
      <use xlink:href="#DejaVuSans-63" x="63.476562"/>
      <use xlink:href="#DejaVuSans-61" x="118.457031"/>
      <use xlink:href="#DejaVuSans-6c" x="179.736328"/>
      <use xlink:href="#DejaVuSans-65" x="207.519531"/>
      <use xlink:href="#DejaVuSans-20" x="269.042969"/>
      <use xlink:href="#DejaVuSans-56" x="300.830078"/>
      <use xlink:href="#DejaVuSans-61" x="361.488281"/>
      <use xlink:href="#DejaVuSans-6c" x="422.767578"/>
      <use xlink:href="#DejaVuSans-75" x="450.550781"/>
      <use xlink:href="#DejaVuSans-65" x="513.929688"/>
     </g>
    </g>
    <g id="text_17">
     <!-- 1e7 -->
     <g transform="translate(499.025 27.48) scale(0.1 -0.1)">
      <use xlink:href="#DejaVuSans-31"/>
      <use xlink:href="#DejaVuSans-65" x="63.623047"/>
      <use xlink:href="#DejaVuSans-37" x="125.146484"/>
     </g>
    </g>
   </g>
   <g id="patch_8">
    <path d="M 499.025 410.76 
L 499.025 30.48 
" style="fill: none; stroke: #000000; stroke-width: 0.8; stroke-linejoin: miter; stroke-linecap: square"/>
   </g>
   <g id="patch_9">
    <path d="M 853.2 410.76 
L 853.2 30.48 
" style="fill: none; stroke: #000000; stroke-width: 0.8; stroke-linejoin: miter; stroke-linecap: square"/>
   </g>
   <g id="patch_10">
    <path d="M 499.025 410.76 
L 853.2 410.76 
" style="fill: none; stroke: #000000; stroke-width: 0.8; stroke-linejoin: miter; stroke-linecap: square"/>
   </g>
   <g id="patch_11">
    <path d="M 499.025 30.48 
L 853.2 30.48 
" style="fill: none; stroke: #000000; stroke-width: 0.8; stroke-linejoin: miter; stroke-linecap: square"/>
   </g>
   <g id="PathCollection_2">
    <defs>
     <path id="C1_0_f7c7b51228" d="M 0 6.123724 
C 1.624031 6.123724 3.181764 5.47849 4.330127 4.330127 
C 5.47849 3.181764 6.123724 1.624031 6.123724 -0 
C 6.123724 -1.624031 5.47849 -3.181764 4.330127 -4.330127 
C 3.181764 -5.47849 1.624031 -6.123724 0 -6.123724 
C -1.624031 -6.123724 -3.181764 -5.47849 -4.330127 -4.330127 
C -5.47849 -3.181764 -6.123724 -1.624031 -6.123724 0 
C -6.123724 1.624031 -5.47849 3.181764 -4.330127 4.330127 
C -3.181764 5.47849 -1.624031 6.123724 0 6.123724 
z
"/>
    </defs>
    <g clip-path="url(#p547aaa2880)">
     <use xlink:href="#C1_0_f7c7b51228" x="615.741761" y="329.479863" style="fill: #808080; stroke: #000000"/>
    </g>
    <g clip-path="url(#p547aaa2880)">
     <use xlink:href="#C1_0_f7c7b51228" x="625.803551" y="329.479863" style="fill: #800080; stroke: #000000"/>
    </g>
    <g clip-path="url(#p547aaa2880)">
     <use xlink:href="#C1_0_f7c7b51228" x="635.865341" y="329.479863" style="fill: #ff00ff; stroke: #000000"/>
    </g>
    <g clip-path="url(#p547aaa2880)">
     <use xlink:href="#C1_0_f7c7b51228" x="645.927131" y="85.63945" style="fill: #ff0000; stroke: #000000"/>
    </g>
    <g clip-path="url(#p547aaa2880)">
     <use xlink:href="#C1_0_f7c7b51228" x="655.98892" y="288.839794" style="fill: #daa520; stroke: #000000"/>
    </g>
    <g clip-path="url(#p547aaa2880)">
     <use xlink:href="#C1_0_f7c7b51228" x="666.05071" y="166.919588" style="fill: #ff8c00; stroke: #000000"/>
    </g>
    <g clip-path="url(#p547aaa2880)">
     <use xlink:href="#C1_0_f7c7b51228" x="676.1125" y="268.519759" style="fill: #8b4513; stroke: #000000"/>
    </g>
    <g clip-path="url(#p547aaa2880)">
     <use xlink:href="#C1_0_f7c7b51228" x="686.17429" y="309.159828" style="fill: #0000cd; stroke: #000000"/>
    </g>
    <g clip-path="url(#p547aaa2880)">
     <use xlink:href="#C1_0_f7c7b51228" x="696.23608" y="126.279519" style="fill: #1e90ff; stroke: #000000"/>
    </g>
    <g clip-path="url(#p547aaa2880)">
     <use xlink:href="#C1_0_f7c7b51228" x="706.297869" y="207.559656" style="fill: #40e0d0; stroke: #000000"/>
    </g>
    <g clip-path="url(#p547aaa2880)">
     <use xlink:href="#C1_0_f7c7b51228" x="716.359659" y="341.671883" style="fill: #006400; stroke: #000000"/>
    </g>
    <g clip-path="url(#p547aaa2880)">
     <use xlink:href="#C1_0_f7c7b51228" x="726.421449" y="370.119931" style="fill: #7cfc00; stroke: #000000"/>
    </g>
    <g clip-path="url(#p547aaa2880)">
     <use xlink:href="#C1_0_f7c7b51228" x="736.483239" y="353.863904" style="stroke: #000000"/>
    </g>
   </g>
   <g id="text_18">
    <!-- Symptom Resolution Speed -->
    <g transform="translate(551.828125 24.48) scale(0.18 -0.18)">
     <defs>
      <path id="DejaVuSans-52" d="M 2841 2188 
Q 3044 2119 3236 1894 
Q 3428 1669 3622 1275 
L 4263 0 
L 3584 0 
L 2988 1197 
Q 2756 1666 2539 1819 
Q 2322 1972 1947 1972 
L 1259 1972 
L 1259 0 
L 628 0 
L 628 4666 
L 2053 4666 
Q 2853 4666 3247 4331 
Q 3641 3997 3641 3322 
Q 3641 2881 3436 2590 
Q 3231 2300 2841 2188 
z
M 1259 4147 
L 1259 2491 
L 2053 2491 
Q 2509 2491 2742 2702 
Q 2975 2913 2975 3322 
Q 2975 3731 2742 3939 
Q 2509 4147 2053 4147 
L 1259 4147 
z
" transform="scale(0.015625)"/>
      <path id="DejaVuSans-73" d="M 2834 3397 
L 2834 2853 
Q 2591 2978 2328 3040 
Q 2066 3103 1784 3103 
Q 1356 3103 1142 2972 
Q 928 2841 928 2578 
Q 928 2378 1081 2264 
Q 1234 2150 1697 2047 
L 1894 2003 
Q 2506 1872 2764 1633 
Q 3022 1394 3022 966 
Q 3022 478 2636 193 
Q 2250 -91 1575 -91 
Q 1294 -91 989 -36 
Q 684 19 347 128 
L 347 722 
Q 666 556 975 473 
Q 1284 391 1588 391 
Q 1994 391 2212 530 
Q 2431 669 2431 922 
Q 2431 1156 2273 1281 
Q 2116 1406 1581 1522 
L 1381 1569 
Q 847 1681 609 1914 
Q 372 2147 372 2553 
Q 372 3047 722 3315 
Q 1072 3584 1716 3584 
Q 2034 3584 2315 3537 
Q 2597 3491 2834 3397 
z
" transform="scale(0.015625)"/>
      <path id="DejaVuSans-69" d="M 603 3500 
L 1178 3500 
L 1178 0 
L 603 0 
L 603 3500 
z
M 603 4863 
L 1178 4863 
L 1178 4134 
L 603 4134 
L 603 4863 
z
" transform="scale(0.015625)"/>
      <path id="DejaVuSans-6e" d="M 3513 2113 
L 3513 0 
L 2938 0 
L 2938 2094 
Q 2938 2591 2744 2837 
Q 2550 3084 2163 3084 
Q 1697 3084 1428 2787 
Q 1159 2491 1159 1978 
L 1159 0 
L 581 0 
L 581 3500 
L 1159 3500 
L 1159 2956 
Q 1366 3272 1645 3428 
Q 1925 3584 2291 3584 
Q 2894 3584 3203 3211 
Q 3513 2838 3513 2113 
z
" transform="scale(0.015625)"/>
      <path id="DejaVuSans-64" d="M 2906 2969 
L 2906 4863 
L 3481 4863 
L 3481 0 
L 2906 0 
L 2906 525 
Q 2725 213 2448 61 
Q 2172 -91 1784 -91 
Q 1150 -91 751 415 
Q 353 922 353 1747 
Q 353 2572 751 3078 
Q 1150 3584 1784 3584 
Q 2172 3584 2448 3432 
Q 2725 3281 2906 2969 
z
M 947 1747 
Q 947 1113 1208 752 
Q 1469 391 1925 391 
Q 2381 391 2643 752 
Q 2906 1113 2906 1747 
Q 2906 2381 2643 2742 
Q 2381 3103 1925 3103 
Q 1469 3103 1208 2742 
Q 947 2381 947 1747 
z
" transform="scale(0.015625)"/>
     </defs>
     <use xlink:href="#DejaVuSans-53"/>
     <use xlink:href="#DejaVuSans-79" x="63.476562"/>
     <use xlink:href="#DejaVuSans-6d" x="122.65625"/>
     <use xlink:href="#DejaVuSans-70" x="220.068359"/>
     <use xlink:href="#DejaVuSans-74" x="283.544922"/>
     <use xlink:href="#DejaVuSans-6f" x="322.753906"/>
     <use xlink:href="#DejaVuSans-6d" x="383.935547"/>
     <use xlink:href="#DejaVuSans-20" x="481.347656"/>
     <use xlink:href="#DejaVuSans-52" x="513.134766"/>
     <use xlink:href="#DejaVuSans-65" x="578.117188"/>
     <use xlink:href="#DejaVuSans-73" x="639.640625"/>
     <use xlink:href="#DejaVuSans-6f" x="691.740234"/>
     <use xlink:href="#DejaVuSans-6c" x="752.921875"/>
     <use xlink:href="#DejaVuSans-75" x="780.705078"/>
     <use xlink:href="#DejaVuSans-74" x="844.083984"/>
     <use xlink:href="#DejaVuSans-69" x="883.292969"/>
     <use xlink:href="#DejaVuSans-6f" x="911.076172"/>
     <use xlink:href="#DejaVuSans-6e" x="972.257812"/>
     <use xlink:href="#DejaVuSans-20" x="1035.636719"/>
     <use xlink:href="#DejaVuSans-53" x="1067.423828"/>
     <use xlink:href="#DejaVuSans-70" x="1130.900391"/>
     <use xlink:href="#DejaVuSans-65" x="1194.376953"/>
     <use xlink:href="#DejaVuSans-65" x="1255.900391"/>
     <use xlink:href="#DejaVuSans-64" x="1317.423828"/>
    </g>
   </g>
  </g>
 </g>
 <defs>
  <clipPath id="p95e9133c81">
   <rect x="94.25" y="30.48" width="354.175" height="380.28"/>
  </clipPath>
  <clipPath id="p547aaa2880">
   <rect x="499.025" y="30.48" width="354.175" height="380.28"/>
  </clipPath>
 </defs>
</svg>
