<?xml version="1.0" encoding="utf-8" standalone="no"?>
<!DOCTYPE svg PUBLIC "-//W3C//DTD SVG 1.1//EN"
  "http://www.w3.org/Graphics/SVG/1.1/DTD/svg11.dtd">
<svg xmlns:xlink="http://www.w3.org/1999/xlink" width="864pt" height="432pt" viewBox="0 0 864 432" xmlns="http://www.w3.org/2000/svg" version="1.1">
 <metadata>
  <rdf:RDF xmlns:dc="http://purl.org/dc/elements/1.1/" xmlns:cc="http://creativecommons.org/ns#" xmlns:rdf="http://www.w3.org/1999/02/22-rdf-syntax-ns#">
   <cc:Work>
    <dc:type rdf:resource="http://purl.org/dc/dcmitype/StillImage"/>
    <dc:date>2025-02-05T15:35:30.755258</dc:date>
    <dc:format>image/svg+xml</dc:format>
    <dc:creator>
     <cc:Agent>
      <dc:title>Matplotlib v3.10.0, https://matplotlib.org/</dc:title>
     </cc:Agent>
    </dc:creator>
   </cc:Work>
  </rdf:RDF>
 </metadata>
 <defs>
  <style type="text/css">*{stroke-linejoin: round; stroke-linecap: butt}</style>
 </defs>
 <g id="figure_1">
  <g id="patch_1">
   <path d="M 0 432 
L 864 432 
L 864 0 
L 0 0 
z
" style="fill: #ffffff"/>
  </g>
  <g id="axes_1">
   <g id="patch_2">
    <path d="M 59.67 419.04 
L 425.565 419.04 
L 425.565 46.44 
L 59.67 46.44 
z
" style="fill: #ffffff"/>
   </g>
   <g id="matplotlib.axis_1"/>
   <g id="matplotlib.axis_2">
    <g id="ytick_1">
     <g id="text_1">
      <!-- 0 -->
      <g style="fill: #262626" transform="translate(37.935938 409.170737) scale(0.22 -0.22)">
       <defs>
        <path id="ArialMT-30" d="M 266 2259 
Q 266 3072 433 3567 
Q 600 4063 929 4331 
Q 1259 4600 1759 4600 
Q 2128 4600 2406 4451 
Q 2684 4303 2865 4023 
Q 3047 3744 3150 3342 
Q 3253 2941 3253 2259 
Q 3253 1453 3087 958 
Q 2922 463 2592 192 
Q 2263 -78 1759 -78 
Q 1097 -78 719 397 
Q 266 969 266 2259 
z
M 844 2259 
Q 844 1131 1108 757 
Q 1372 384 1759 384 
Q 2147 384 2411 759 
Q 2675 1134 2675 2259 
Q 2675 3391 2411 3762 
Q 2147 4134 1753 4134 
Q 1366 4134 1134 3806 
Q 844 3388 844 2259 
z
" transform="scale(0.015625)"/>
       </defs>
       <use xlink:href="#ArialMT-30"/>
      </g>
     </g>
    </g>
    <g id="ytick_2">
     <g id="text_2">
      <!-- 1 -->
      <g style="fill: #262626" transform="translate(37.935938 338.199308) scale(0.22 -0.22)">
       <defs>
        <path id="ArialMT-31" d="M 2384 0 
L 1822 0 
L 1822 3584 
Q 1619 3391 1289 3197 
Q 959 3003 697 2906 
L 697 3450 
Q 1169 3672 1522 3987 
Q 1875 4303 2022 4600 
L 2384 4600 
L 2384 0 
z
" transform="scale(0.015625)"/>
       </defs>
       <use xlink:href="#ArialMT-31"/>
      </g>
     </g>
    </g>
    <g id="ytick_3">
     <g id="text_3">
      <!-- 2 -->
      <g style="fill: #262626" transform="translate(37.935938 267.227879) scale(0.22 -0.22)">
       <defs>
        <path id="ArialMT-32" d="M 3222 541 
L 3222 0 
L 194 0 
Q 188 203 259 391 
Q 375 700 629 1000 
Q 884 1300 1366 1694 
Q 2113 2306 2375 2664 
Q 2638 3022 2638 3341 
Q 2638 3675 2398 3904 
Q 2159 4134 1775 4134 
Q 1369 4134 1125 3890 
Q 881 3647 878 3216 
L 300 3275 
Q 359 3922 746 4261 
Q 1134 4600 1788 4600 
Q 2447 4600 2831 4234 
Q 3216 3869 3216 3328 
Q 3216 3053 3103 2787 
Q 2991 2522 2730 2228 
Q 2469 1934 1863 1422 
Q 1356 997 1212 845 
Q 1069 694 975 541 
L 3222 541 
z
" transform="scale(0.015625)"/>
       </defs>
       <use xlink:href="#ArialMT-32"/>
      </g>
     </g>
    </g>
    <g id="ytick_4">
     <g id="text_4">
      <!-- 3 -->
      <g style="fill: #262626" transform="translate(37.935938 196.256451) scale(0.22 -0.22)">
       <defs>
        <path id="ArialMT-33" d="M 269 1209 
L 831 1284 
Q 928 806 1161 595 
Q 1394 384 1728 384 
Q 2125 384 2398 659 
Q 2672 934 2672 1341 
Q 2672 1728 2419 1979 
Q 2166 2231 1775 2231 
Q 1616 2231 1378 2169 
L 1441 2663 
Q 1497 2656 1531 2656 
Q 1891 2656 2178 2843 
Q 2466 3031 2466 3422 
Q 2466 3731 2256 3934 
Q 2047 4138 1716 4138 
Q 1388 4138 1169 3931 
Q 950 3725 888 3313 
L 325 3413 
Q 428 3978 793 4289 
Q 1159 4600 1703 4600 
Q 2078 4600 2393 4439 
Q 2709 4278 2876 4000 
Q 3044 3722 3044 3409 
Q 3044 3113 2884 2869 
Q 2725 2625 2413 2481 
Q 2819 2388 3044 2092 
Q 3269 1797 3269 1353 
Q 3269 753 2831 336 
Q 2394 -81 1725 -81 
Q 1122 -81 723 278 
Q 325 638 269 1209 
z
" transform="scale(0.015625)"/>
       </defs>
       <use xlink:href="#ArialMT-33"/>
      </g>
     </g>
    </g>
    <g id="ytick_5">
     <g id="text_5">
      <!-- 4 -->
      <g style="fill: #262626" transform="translate(37.935938 125.285022) scale(0.22 -0.22)">
       <defs>
        <path id="ArialMT-34" d="M 2069 0 
L 2069 1097 
L 81 1097 
L 81 1613 
L 2172 4581 
L 2631 4581 
L 2631 1613 
L 3250 1613 
L 3250 1097 
L 2631 1097 
L 2631 0 
L 2069 0 
z
M 2069 1613 
L 2069 3678 
L 634 1613 
L 2069 1613 
z
" transform="scale(0.015625)"/>
       </defs>
       <use xlink:href="#ArialMT-34"/>
      </g>
     </g>
    </g>
    <g id="ytick_6">
     <g id="text_6">
      <!-- 5 -->
      <g style="fill: #262626" transform="translate(37.935938 54.313594) scale(0.22 -0.22)">
       <defs>
        <path id="ArialMT-35" d="M 266 1200 
L 856 1250 
Q 922 819 1161 601 
Q 1400 384 1738 384 
Q 2144 384 2425 690 
Q 2706 997 2706 1503 
Q 2706 1984 2436 2262 
Q 2166 2541 1728 2541 
Q 1456 2541 1237 2417 
Q 1019 2294 894 2097 
L 366 2166 
L 809 4519 
L 3088 4519 
L 3088 3981 
L 1259 3981 
L 1013 2750 
Q 1425 3038 1878 3038 
Q 2478 3038 2890 2622 
Q 3303 2206 3303 1553 
Q 3303 931 2941 478 
Q 2500 -78 1738 -78 
Q 1113 -78 717 272 
Q 322 622 266 1200 
z
" transform="scale(0.015625)"/>
       </defs>
       <use xlink:href="#ArialMT-35"/>
      </g>
     </g>
    </g>
    <g id="text_7">
     <!-- Scale Value -->
     <g style="fill: #262626" transform="translate(29.563438 290.632656) rotate(-90) scale(0.22 -0.22)">
      <defs>
       <path id="ArialMT-53" d="M 288 1472 
L 859 1522 
Q 900 1178 1048 958 
Q 1197 738 1509 602 
Q 1822 466 2213 466 
Q 2559 466 2825 569 
Q 3091 672 3220 851 
Q 3350 1031 3350 1244 
Q 3350 1459 3225 1620 
Q 3100 1781 2813 1891 
Q 2628 1963 1997 2114 
Q 1366 2266 1113 2400 
Q 784 2572 623 2826 
Q 463 3081 463 3397 
Q 463 3744 659 4045 
Q 856 4347 1234 4503 
Q 1613 4659 2075 4659 
Q 2584 4659 2973 4495 
Q 3363 4331 3572 4012 
Q 3781 3694 3797 3291 
L 3216 3247 
Q 3169 3681 2898 3903 
Q 2628 4125 2100 4125 
Q 1550 4125 1298 3923 
Q 1047 3722 1047 3438 
Q 1047 3191 1225 3031 
Q 1400 2872 2139 2705 
Q 2878 2538 3153 2413 
Q 3553 2228 3743 1945 
Q 3934 1663 3934 1294 
Q 3934 928 3725 604 
Q 3516 281 3123 101 
Q 2731 -78 2241 -78 
Q 1619 -78 1198 103 
Q 778 284 539 648 
Q 300 1013 288 1472 
z
" transform="scale(0.015625)"/>
       <path id="ArialMT-63" d="M 2588 1216 
L 3141 1144 
Q 3050 572 2676 248 
Q 2303 -75 1759 -75 
Q 1078 -75 664 370 
Q 250 816 250 1647 
Q 250 2184 428 2587 
Q 606 2991 970 3192 
Q 1334 3394 1763 3394 
Q 2303 3394 2647 3120 
Q 2991 2847 3088 2344 
L 2541 2259 
Q 2463 2594 2264 2762 
Q 2066 2931 1784 2931 
Q 1359 2931 1093 2626 
Q 828 2322 828 1663 
Q 828 994 1084 691 
Q 1341 388 1753 388 
Q 2084 388 2306 591 
Q 2528 794 2588 1216 
z
" transform="scale(0.015625)"/>
       <path id="ArialMT-61" d="M 2588 409 
Q 2275 144 1986 34 
Q 1697 -75 1366 -75 
Q 819 -75 525 192 
Q 231 459 231 875 
Q 231 1119 342 1320 
Q 453 1522 633 1644 
Q 813 1766 1038 1828 
Q 1203 1872 1538 1913 
Q 2219 1994 2541 2106 
Q 2544 2222 2544 2253 
Q 2544 2597 2384 2738 
Q 2169 2928 1744 2928 
Q 1347 2928 1158 2789 
Q 969 2650 878 2297 
L 328 2372 
Q 403 2725 575 2942 
Q 747 3159 1072 3276 
Q 1397 3394 1825 3394 
Q 2250 3394 2515 3294 
Q 2781 3194 2906 3042 
Q 3031 2891 3081 2659 
Q 3109 2516 3109 2141 
L 3109 1391 
Q 3109 606 3145 398 
Q 3181 191 3288 0 
L 2700 0 
Q 2613 175 2588 409 
z
M 2541 1666 
Q 2234 1541 1622 1453 
Q 1275 1403 1131 1340 
Q 988 1278 909 1158 
Q 831 1038 831 891 
Q 831 666 1001 516 
Q 1172 366 1500 366 
Q 1825 366 2078 508 
Q 2331 650 2450 897 
Q 2541 1088 2541 1459 
L 2541 1666 
z
" transform="scale(0.015625)"/>
       <path id="ArialMT-6c" d="M 409 0 
L 409 4581 
L 972 4581 
L 972 0 
L 409 0 
z
" transform="scale(0.015625)"/>
       <path id="ArialMT-65" d="M 2694 1069 
L 3275 997 
Q 3138 488 2766 206 
Q 2394 -75 1816 -75 
Q 1088 -75 661 373 
Q 234 822 234 1631 
Q 234 2469 665 2931 
Q 1097 3394 1784 3394 
Q 2450 3394 2872 2941 
Q 3294 2488 3294 1666 
Q 3294 1616 3291 1516 
L 816 1516 
Q 847 969 1125 678 
Q 1403 388 1819 388 
Q 2128 388 2347 550 
Q 2566 713 2694 1069 
z
M 847 1978 
L 2700 1978 
Q 2663 2397 2488 2606 
Q 2219 2931 1791 2931 
Q 1403 2931 1139 2672 
Q 875 2413 847 1978 
z
" transform="scale(0.015625)"/>
       <path id="ArialMT-20" transform="scale(0.015625)"/>
       <path id="ArialMT-56" d="M 1803 0 
L 28 4581 
L 684 4581 
L 1875 1253 
Q 2019 853 2116 503 
Q 2222 878 2363 1253 
L 3600 4581 
L 4219 4581 
L 2425 0 
L 1803 0 
z
" transform="scale(0.015625)"/>
       <path id="ArialMT-75" d="M 2597 0 
L 2597 488 
Q 2209 -75 1544 -75 
Q 1250 -75 995 37 
Q 741 150 617 320 
Q 494 491 444 738 
Q 409 903 409 1263 
L 409 3319 
L 972 3319 
L 972 1478 
Q 972 1038 1006 884 
Q 1059 663 1231 536 
Q 1403 409 1656 409 
Q 1909 409 2131 539 
Q 2353 669 2445 892 
Q 2538 1116 2538 1541 
L 2538 3319 
L 3100 3319 
L 3100 0 
L 2597 0 
z
" transform="scale(0.015625)"/>
      </defs>
      <use xlink:href="#ArialMT-53"/>
      <use xlink:href="#ArialMT-63" transform="translate(66.699219 0)"/>
      <use xlink:href="#ArialMT-61" transform="translate(116.699219 0)"/>
      <use xlink:href="#ArialMT-6c" transform="translate(172.314453 0)"/>
      <use xlink:href="#ArialMT-65" transform="translate(194.53125 0)"/>
      <use xlink:href="#ArialMT-20" transform="translate(250.146484 0)"/>
      <use xlink:href="#ArialMT-56" transform="translate(277.929688 0)"/>
      <use xlink:href="#ArialMT-61" transform="translate(337.253906 0)"/>
      <use xlink:href="#ArialMT-6c" transform="translate(392.869141 0)"/>
      <use xlink:href="#ArialMT-75" transform="translate(415.085938 0)"/>
      <use xlink:href="#ArialMT-65" transform="translate(470.701172 0)"/>
     </g>
    </g>
   </g>
   <g id="FillBetweenPolyCollection_1">
    <path d="M 250.49016 461.16737 
L 234.74484 461.16737 
L 229.670782 454.222806 
L 222.316049 447.278241 
L 212.237097 440.333677 
L 199.189734 433.389112 
L 183.257666 426.444548 
L 164.94944 419.499983 
L 145.227906 412.555419 
L 125.448379 405.610854 
L 107.203611 398.66629 
L 92.098739 391.721725 
L 81.499028 384.777161 
L 76.301591 377.832596 
L 76.777603 370.888032 
L 82.516498 363.943467 
L 92.482872 356.998903 
L 105.175609 350.054338 
L 118.861109 343.109774 
L 131.840839 336.165209 
L 142.70868 329.220645 
L 150.555138 322.276081 
L 155.08313 315.331516 
L 156.613665 308.386952 
L 155.979351 301.442387 
L 154.327253 294.497823 
L 152.874702 287.553258 
L 152.674252 280.608694 
L 154.440462 273.664129 
L 158.471024 266.719565 
L 164.665038 259.775 
L 172.61405 252.830436 
L 181.727236 245.885871 
L 191.354089 238.941307 
L 200.88153 231.996742 
L 209.798187 225.052178 
L 217.729294 218.107613 
L 224.448879 211.163049 
L 229.874396 204.218484 
L 234.046946 197.27392 
L 237.100312 190.329356 
L 239.223851 183.384791 
L 240.625873 176.440227 
L 241.503758 169.495662 
L 242.024672 162.551098 
L 242.317408 155.606533 
L 242.47314 148.661969 
L 242.551544 141.717404 
L 242.588893 134.77284 
L 242.605726 127.828275 
L 242.612903 120.883711 
L 242.615798 113.939146 
L 242.616902 106.994582 
L 242.617301 100.050017 
L 242.617437 93.105453 
L 242.617481 86.160888 
L 242.617495 79.216324 
L 242.617499 72.271759 
L 242.6175 65.327195 
L 242.6175 58.382631 
L 242.6175 51.438066 
L 242.6175 44.493502 
L 242.6175 37.548937 
L 242.6175 30.604373 
L 242.6175 23.659808 
L 242.6175 16.715244 
L 242.617499 9.770679 
L 242.617497 2.826115 
L 242.61749 -4.11845 
L 242.617465 -11.063014 
L 242.617386 -18.007579 
L 242.61715 -24.952143 
L 242.616478 -31.896708 
L 242.614678 -38.841272 
L 242.610113 -45.785837 
L 242.599179 -52.730401 
L 242.574439 -59.674966 
L 242.521593 -66.61953 
L 242.415088 -73.564094 
L 242.212689 -80.508659 
L 241.850324 -87.453223 
L 241.239767 -94.397788 
L 240.272936 -101.342352 
L 238.836678 -108.286917 
L 236.840034 -115.231481 
L 234.251541 -122.176046 
L 231.138048 -129.12061 
L 227.691148 -136.065175 
L 224.226163 -143.009739 
L 221.144138 -149.954304 
L 218.85928 -156.898868 
L 217.708583 -163.843433 
L 217.87048 -170.787997 
L 219.319531 -177.732562 
L 221.832965 -184.677126 
L 225.046775 -191.621691 
L 228.541925 -198.566255 
L 231.932618 -205.510819 
L 234.931499 -212.455384 
L 237.378382 -219.399948 
L 239.233401 -226.344513 
L 246.001599 -226.344513 
L 246.001599 -226.344513 
L 247.856618 -219.399948 
L 250.303501 -212.455384 
L 253.302382 -205.510819 
L 256.693075 -198.566255 
L 260.188225 -191.621691 
L 263.402035 -184.677126 
L 265.915469 -177.732562 
L 267.36452 -170.787997 
L 267.526417 -163.843433 
L 266.37572 -156.898868 
L 264.090862 -149.954304 
L 261.008837 -143.009739 
L 257.543852 -136.065175 
L 254.096952 -129.12061 
L 250.983459 -122.176046 
L 248.394966 -115.231481 
L 246.398322 -108.286917 
L 244.962064 -101.342352 
L 243.995233 -94.397788 
L 243.384676 -87.453223 
L 243.022311 -80.508659 
L 242.819912 -73.564094 
L 242.713407 -66.61953 
L 242.660561 -59.674966 
L 242.635821 -52.730401 
L 242.624887 -45.785837 
L 242.620322 -38.841272 
L 242.618522 -31.896708 
L 242.61785 -24.952143 
L 242.617614 -18.007579 
L 242.617535 -11.063014 
L 242.61751 -4.11845 
L 242.617503 2.826115 
L 242.617501 9.770679 
L 242.6175 16.715244 
L 242.6175 23.659808 
L 242.6175 30.604373 
L 242.6175 37.548937 
L 242.6175 44.493502 
L 242.6175 51.438066 
L 242.6175 58.382631 
L 242.6175 65.327195 
L 242.617501 72.271759 
L 242.617505 79.216324 
L 242.617519 86.160888 
L 242.617563 93.105453 
L 242.617699 100.050017 
L 242.618098 106.994582 
L 242.619202 113.939146 
L 242.622097 120.883711 
L 242.629274 127.828275 
L 242.646107 134.77284 
L 242.683456 141.717404 
L 242.76186 148.661969 
L 242.917592 155.606533 
L 243.210328 162.551098 
L 243.731242 169.495662 
L 244.609127 176.440227 
L 246.011149 183.384791 
L 248.134688 190.329356 
L 251.188054 197.27392 
L 255.360604 204.218484 
L 260.786121 211.163049 
L 267.505706 218.107613 
L 275.436813 225.052178 
L 284.35347 231.996742 
L 293.880911 238.941307 
L 303.507764 245.885871 
L 312.62095 252.830436 
L 320.569962 259.775 
L 326.763976 266.719565 
L 330.794538 273.664129 
L 332.560748 280.608694 
L 332.360298 287.553258 
L 330.907747 294.497823 
L 329.255649 301.442387 
L 328.621335 308.386952 
L 330.15187 315.331516 
L 334.679862 322.276081 
L 342.52632 329.220645 
L 353.394161 336.165209 
L 366.373891 343.109774 
L 380.059391 350.054338 
L 392.752128 356.998903 
L 402.718502 363.943467 
L 408.457397 370.888032 
L 408.933409 377.832596 
L 403.735972 384.777161 
L 393.136261 391.721725 
L 378.031389 398.66629 
L 359.786621 405.610854 
L 340.007094 412.555419 
L 320.28556 419.499983 
L 301.977334 426.444548 
L 286.045266 433.389112 
L 272.997903 440.333677 
L 262.918951 447.278241 
L 255.564218 454.222806 
L 250.49016 461.16737 
z
" clip-path="url(#paaaa91122c)" style="fill: #d3d3d3"/>
   </g>
   <g id="patch_3">
    <path d="M 59.67 419.04 
L 59.67 46.44 
" style="fill: none; stroke: #262626; stroke-width: 1.25; stroke-linejoin: miter; stroke-linecap: square"/>
   </g>
   <g id="patch_4">
    <path d="M 425.565 419.04 
L 425.565 46.44 
" style="fill: none; stroke: #262626; stroke-width: 1.25; stroke-linejoin: miter; stroke-linecap: square"/>
   </g>
   <g id="patch_5">
    <path d="M 59.67 419.04 
L 425.565 419.04 
" style="fill: none; stroke: #262626; stroke-width: 1.25; stroke-linejoin: miter; stroke-linecap: square"/>
   </g>
   <g id="patch_6">
    <path d="M 59.67 46.44 
L 425.565 46.44 
" style="fill: none; stroke: #262626; stroke-width: 1.25; stroke-linejoin: miter; stroke-linecap: square"/>
   </g>
   <g id="PathCollection_1">
    <defs>
     <path id="C0_0_19b3a27599" d="M 0 6.123724 
C 1.624031 6.123724 3.181764 5.47849 4.330127 4.330127 
C 5.47849 3.181764 6.123724 1.624031 6.123724 -0 
C 6.123724 -1.624031 5.47849 -3.181764 4.330127 -4.330127 
C 3.181764 -5.47849 1.624031 -6.123724 0 -6.123724 
C -1.624031 -6.123724 -3.181764 -5.47849 -4.330127 -4.330127 
C -5.47849 -3.181764 -6.123724 -1.624031 -6.123724 0 
C -6.123724 1.624031 -5.47849 3.181764 -4.330127 4.330127 
C -3.181764 5.47849 -1.624031 6.123724 0 6.123724 
z
"/>
    </defs>
    <g clip-path="url(#paaaa91122c)">
     <use xlink:href="#C0_0_19b3a27599" x="180.249034" y="358.714286" style="fill: #808080; stroke: #1a1a1a"/>
    </g>
    <g clip-path="url(#paaaa91122c)">
     <use xlink:href="#C0_0_19b3a27599" x="190.643778" y="245.16" style="fill: #800080; stroke: #1a1a1a"/>
    </g>
    <g clip-path="url(#paaaa91122c)">
     <use xlink:href="#C0_0_19b3a27599" x="201.038523" y="294.84" style="fill: #ff00ff; stroke: #1a1a1a"/>
    </g>
    <g clip-path="url(#paaaa91122c)">
     <use xlink:href="#C0_0_19b3a27599" x="211.433267" y="372.908571" style="fill: #ff0000; stroke: #1a1a1a"/>
    </g>
    <g clip-path="url(#paaaa91122c)">
     <use xlink:href="#C0_0_19b3a27599" x="221.828011" y="372.908571" style="fill: #daa520; stroke: #1a1a1a"/>
    </g>
    <g clip-path="url(#paaaa91122c)">
     <use xlink:href="#C0_0_19b3a27599" x="232.222756" y="394.2" style="fill: #ff8c00; stroke: #1a1a1a"/>
    </g>
    <g clip-path="url(#paaaa91122c)">
     <use xlink:href="#C0_0_19b3a27599" x="242.6175" y="-166.474286" style="fill: #8b4513; stroke: #1a1a1a"/>
    </g>
    <g clip-path="url(#paaaa91122c)">
     <use xlink:href="#C0_0_19b3a27599" x="253.012244" y="280.645714" style="fill: #0000cd; stroke: #1a1a1a"/>
    </g>
    <g clip-path="url(#paaaa91122c)">
     <use xlink:href="#C0_0_19b3a27599" x="263.406989" y="365.811429" style="fill: #1e90ff; stroke: #1a1a1a"/>
    </g>
    <g clip-path="url(#paaaa91122c)">
     <use xlink:href="#C0_0_19b3a27599" x="273.801733" y="390.651429" style="fill: #40e0d0; stroke: #1a1a1a"/>
    </g>
    <g clip-path="url(#paaaa91122c)">
     <use xlink:href="#C0_0_19b3a27599" x="284.196477" y="337.422857" style="fill: #006400; stroke: #1a1a1a"/>
    </g>
    <g clip-path="url(#paaaa91122c)">
     <use xlink:href="#C0_0_19b3a27599" x="294.591222" y="401.297143" style="fill: #7cfc00; stroke: #1a1a1a"/>
    </g>
    <g clip-path="url(#paaaa91122c)">
     <use xlink:href="#C0_0_19b3a27599" x="304.985966" y="273.548571" style="stroke: #1a1a1a"/>
    </g>
   </g>
   <g id="text_8">
    <!-- Symptom Scale -->
    <g style="fill: #262626" transform="translate(165.593437 40.44) scale(0.22 -0.22)">
     <defs>
      <path id="ArialMT-79" d="M 397 -1278 
L 334 -750 
Q 519 -800 656 -800 
Q 844 -800 956 -737 
Q 1069 -675 1141 -563 
Q 1194 -478 1313 -144 
Q 1328 -97 1363 -6 
L 103 3319 
L 709 3319 
L 1400 1397 
Q 1534 1031 1641 628 
Q 1738 1016 1872 1384 
L 2581 3319 
L 3144 3319 
L 1881 -56 
Q 1678 -603 1566 -809 
Q 1416 -1088 1222 -1217 
Q 1028 -1347 759 -1347 
Q 597 -1347 397 -1278 
z
" transform="scale(0.015625)"/>
      <path id="ArialMT-6d" d="M 422 0 
L 422 3319 
L 925 3319 
L 925 2853 
Q 1081 3097 1340 3245 
Q 1600 3394 1931 3394 
Q 2300 3394 2536 3241 
Q 2772 3088 2869 2813 
Q 3263 3394 3894 3394 
Q 4388 3394 4653 3120 
Q 4919 2847 4919 2278 
L 4919 0 
L 4359 0 
L 4359 2091 
Q 4359 2428 4304 2576 
Q 4250 2725 4106 2815 
Q 3963 2906 3769 2906 
Q 3419 2906 3187 2673 
Q 2956 2441 2956 1928 
L 2956 0 
L 2394 0 
L 2394 2156 
Q 2394 2531 2256 2718 
Q 2119 2906 1806 2906 
Q 1569 2906 1367 2781 
Q 1166 2656 1075 2415 
Q 984 2175 984 1722 
L 984 0 
L 422 0 
z
" transform="scale(0.015625)"/>
      <path id="ArialMT-70" d="M 422 -1272 
L 422 3319 
L 934 3319 
L 934 2888 
Q 1116 3141 1344 3267 
Q 1572 3394 1897 3394 
Q 2322 3394 2647 3175 
Q 2972 2956 3137 2557 
Q 3303 2159 3303 1684 
Q 3303 1175 3120 767 
Q 2938 359 2589 142 
Q 2241 -75 1856 -75 
Q 1575 -75 1351 44 
Q 1128 163 984 344 
L 984 -1272 
L 422 -1272 
z
M 931 1641 
Q 931 1000 1190 694 
Q 1450 388 1819 388 
Q 2194 388 2461 705 
Q 2728 1022 2728 1688 
Q 2728 2322 2467 2637 
Q 2206 2953 1844 2953 
Q 1484 2953 1207 2617 
Q 931 2281 931 1641 
z
" transform="scale(0.015625)"/>
      <path id="ArialMT-74" d="M 1650 503 
L 1731 6 
Q 1494 -44 1306 -44 
Q 1000 -44 831 53 
Q 663 150 594 308 
Q 525 466 525 972 
L 525 2881 
L 113 2881 
L 113 3319 
L 525 3319 
L 525 4141 
L 1084 4478 
L 1084 3319 
L 1650 3319 
L 1650 2881 
L 1084 2881 
L 1084 941 
Q 1084 700 1114 631 
Q 1144 563 1211 522 
Q 1278 481 1403 481 
Q 1497 481 1650 503 
z
" transform="scale(0.015625)"/>
      <path id="ArialMT-6f" d="M 213 1659 
Q 213 2581 725 3025 
Q 1153 3394 1769 3394 
Q 2453 3394 2887 2945 
Q 3322 2497 3322 1706 
Q 3322 1066 3130 698 
Q 2938 331 2570 128 
Q 2203 -75 1769 -75 
Q 1072 -75 642 372 
Q 213 819 213 1659 
z
M 791 1659 
Q 791 1022 1069 705 
Q 1347 388 1769 388 
Q 2188 388 2466 706 
Q 2744 1025 2744 1678 
Q 2744 2294 2464 2611 
Q 2184 2928 1769 2928 
Q 1347 2928 1069 2612 
Q 791 2297 791 1659 
z
" transform="scale(0.015625)"/>
     </defs>
     <use xlink:href="#ArialMT-53"/>
     <use xlink:href="#ArialMT-79" transform="translate(66.699219 0)"/>
     <use xlink:href="#ArialMT-6d" transform="translate(116.699219 0)"/>
     <use xlink:href="#ArialMT-70" transform="translate(200 0)"/>
     <use xlink:href="#ArialMT-74" transform="translate(255.615234 0)"/>
     <use xlink:href="#ArialMT-6f" transform="translate(283.398438 0)"/>
     <use xlink:href="#ArialMT-6d" transform="translate(339.013672 0)"/>
     <use xlink:href="#ArialMT-20" transform="translate(422.314453 0)"/>
     <use xlink:href="#ArialMT-53" transform="translate(450.097656 0)"/>
     <use xlink:href="#ArialMT-63" transform="translate(516.796875 0)"/>
     <use xlink:href="#ArialMT-61" transform="translate(566.796875 0)"/>
     <use xlink:href="#ArialMT-6c" transform="translate(622.412109 0)"/>
     <use xlink:href="#ArialMT-65" transform="translate(644.628906 0)"/>
    </g>
   </g>
  </g>
  <g id="axes_2">
   <g id="patch_7">
    <path d="M 485.145 419.04 
L 851.04 419.04 
L 851.04 46.44 
L 485.145 46.44 
z
" style="fill: #ffffff"/>
   </g>
   <g id="matplotlib.axis_3"/>
   <g id="matplotlib.axis_4">
    <g id="ytick_7">
     <g id="text_9">
      <!-- 0 -->
      <g style="fill: #262626" transform="translate(463.410937 386.952725) scale(0.22 -0.22)">
       <use xlink:href="#ArialMT-30"/>
      </g>
     </g>
    </g>
    <g id="ytick_8">
     <g id="text_10">
      <!-- 2 -->
      <g style="fill: #262626" transform="translate(463.410937 307.030988) scale(0.22 -0.22)">
       <use xlink:href="#ArialMT-32"/>
      </g>
     </g>
    </g>
    <g id="ytick_9">
     <g id="text_11">
      <!-- 4 -->
      <g style="fill: #262626" transform="translate(463.410937 227.109251) scale(0.22 -0.22)">
       <use xlink:href="#ArialMT-34"/>
      </g>
     </g>
    </g>
    <g id="ytick_10">
     <g id="text_12">
      <!-- 6 -->
      <g style="fill: #262626" transform="translate(463.410937 147.187514) scale(0.22 -0.22)">
       <defs>
        <path id="ArialMT-36" d="M 3184 3459 
L 2625 3416 
Q 2550 3747 2413 3897 
Q 2184 4138 1850 4138 
Q 1581 4138 1378 3988 
Q 1113 3794 959 3422 
Q 806 3050 800 2363 
Q 1003 2672 1297 2822 
Q 1591 2972 1913 2972 
Q 2475 2972 2870 2558 
Q 3266 2144 3266 1488 
Q 3266 1056 3080 686 
Q 2894 316 2569 119 
Q 2244 -78 1831 -78 
Q 1128 -78 684 439 
Q 241 956 241 2144 
Q 241 3472 731 4075 
Q 1159 4600 1884 4600 
Q 2425 4600 2770 4297 
Q 3116 3994 3184 3459 
z
M 888 1484 
Q 888 1194 1011 928 
Q 1134 663 1356 523 
Q 1578 384 1822 384 
Q 2178 384 2434 671 
Q 2691 959 2691 1453 
Q 2691 1928 2437 2201 
Q 2184 2475 1800 2475 
Q 1419 2475 1153 2201 
Q 888 1928 888 1484 
z
" transform="scale(0.015625)"/>
       </defs>
       <use xlink:href="#ArialMT-36"/>
      </g>
     </g>
    </g>
    <g id="ytick_11">
     <g id="text_13">
      <!-- 8 -->
      <g style="fill: #262626" transform="translate(463.410937 67.265777) scale(0.22 -0.22)">
       <defs>
        <path id="ArialMT-38" d="M 1131 2484 
Q 781 2613 612 2850 
Q 444 3088 444 3419 
Q 444 3919 803 4259 
Q 1163 4600 1759 4600 
Q 2359 4600 2725 4251 
Q 3091 3903 3091 3403 
Q 3091 3084 2923 2848 
Q 2756 2613 2416 2484 
Q 2838 2347 3058 2040 
Q 3278 1734 3278 1309 
Q 3278 722 2862 322 
Q 2447 -78 1769 -78 
Q 1091 -78 675 323 
Q 259 725 259 1325 
Q 259 1772 486 2073 
Q 713 2375 1131 2484 
z
M 1019 3438 
Q 1019 3113 1228 2906 
Q 1438 2700 1772 2700 
Q 2097 2700 2305 2904 
Q 2513 3109 2513 3406 
Q 2513 3716 2298 3927 
Q 2084 4138 1766 4138 
Q 1444 4138 1231 3931 
Q 1019 3725 1019 3438 
z
M 838 1322 
Q 838 1081 952 856 
Q 1066 631 1291 507 
Q 1516 384 1775 384 
Q 2178 384 2440 643 
Q 2703 903 2703 1303 
Q 2703 1709 2433 1975 
Q 2163 2241 1756 2241 
Q 1359 2241 1098 1978 
Q 838 1716 838 1322 
z
" transform="scale(0.015625)"/>
       </defs>
       <use xlink:href="#ArialMT-38"/>
      </g>
     </g>
    </g>
    <g id="text_14">
     <!-- Scale Value -->
     <g style="fill: #262626" transform="translate(455.038437 290.632656) rotate(-90) scale(0.22 -0.22)">
      <use xlink:href="#ArialMT-53"/>
      <use xlink:href="#ArialMT-63" transform="translate(66.699219 0)"/>
      <use xlink:href="#ArialMT-61" transform="translate(116.699219 0)"/>
      <use xlink:href="#ArialMT-6c" transform="translate(172.314453 0)"/>
      <use xlink:href="#ArialMT-65" transform="translate(194.53125 0)"/>
      <use xlink:href="#ArialMT-20" transform="translate(250.146484 0)"/>
      <use xlink:href="#ArialMT-56" transform="translate(277.929688 0)"/>
      <use xlink:href="#ArialMT-61" transform="translate(337.253906 0)"/>
      <use xlink:href="#ArialMT-6c" transform="translate(392.869141 0)"/>
      <use xlink:href="#ArialMT-75" transform="translate(415.085938 0)"/>
      <use xlink:href="#ArialMT-65" transform="translate(470.701172 0)"/>
     </g>
    </g>
    <g id="text_15">
     <!-- 1e7 -->
     <g style="fill: #262626" transform="translate(485.145 43.44) scale(0.11 -0.11)">
      <defs>
       <path id="ArialMT-37" d="M 303 3981 
L 303 4522 
L 3269 4522 
L 3269 4084 
Q 2831 3619 2401 2847 
Q 1972 2075 1738 1259 
Q 1569 684 1522 0 
L 944 0 
Q 953 541 1156 1306 
Q 1359 2072 1739 2783 
Q 2119 3494 2547 3981 
L 303 3981 
z
" transform="scale(0.015625)"/>
      </defs>
      <use xlink:href="#ArialMT-31"/>
      <use xlink:href="#ArialMT-65" transform="translate(55.615234 0)"/>
      <use xlink:href="#ArialMT-37" transform="translate(111.230469 0)"/>
     </g>
    </g>
   </g>
   <g id="FillBetweenPolyCollection_2">
    <defs>
     <path id="m1a86c0c0af" d="M 673.467098 -17.532916 
L 662.717902 -17.532916 
L 659.677941 -21.07334 
L 655.342019 -24.613764 
L 649.384916 -28.154188 
L 641.505151 -31.694612 
L 631.47821 -35.235036 
L 619.218627 -38.77546 
L 604.84175 -42.315884 
L 588.712699 -45.856309 
L 571.468721 -49.396733 
L 554.003085 -52.937157 
L 537.404172 -56.477581 
L 522.85191 -60.018005 
L 511.483405 -63.558429 
L 504.247998 -67.098853 
L 501.776591 -70.639277 
L 504.289194 -74.179701 
L 511.558231 -77.720125 
L 522.934575 -81.260549 
L 537.431306 -84.800974 
L 553.849719 -88.341398 
L 570.925518 -91.881822 
L 587.471635 -95.422246 
L 602.497377 -98.96267 
L 615.29019 -102.503094 
L 625.454197 -106.043518 
L 632.906807 -109.583942 
L 637.839798 -113.124366 
L 640.65411 -116.66479 
L 641.878561 -120.205214 
L 642.082902 -123.745639 
L 641.795558 -127.286063 
L 641.43619 -130.826487 
L 641.272187 -134.366911 
L 641.405459 -137.907335 
L 641.791229 -141.447759 
L 642.284262 -144.988183 
L 642.701752 -148.528607 
L 642.887792 -152.069031 
L 642.763603 -155.609455 
L 642.351215 -159.149879 
L 641.765376 -162.690304 
L 641.177221 -166.230728 
L 640.761157 -169.771152 
L 640.64115 -173.311576 
L 640.852607 -176.852 
L 641.331274 -180.392424 
L 641.932424 -183.932848 
L 642.474455 -187.473272 
L 642.793667 -191.013696 
L 642.793667 -194.55412 
L 642.474456 -198.094544 
L 641.932429 -201.634969 
L 641.331289 -205.175393 
L 640.852652 -208.715817 
L 640.641279 -212.256241 
L 640.761505 -215.796665 
L 641.17813 -219.337089 
L 641.767659 -222.877513 
L 642.356733 -226.417937 
L 642.776441 -229.958361 
L 642.916535 -233.498785 
L 642.763698 -237.039209 
L 642.412796 -240.579634 
L 642.048053 -244.120058 
L 641.899733 -247.660482 
L 642.188678 -251.200906 
L 643.073904 -254.74133 
L 644.616731 -258.281754 
L 646.769372 -261.822178 
L 649.388513 -265.362602 
L 652.267583 -268.903026 
L 655.177183 -272.44345 
L 657.902545 -275.983874 
L 660.269587 -279.524299 
L 662.155815 -283.064723 
L 663.487333 -286.605147 
L 664.226974 -290.145571 
L 664.36028 -293.685995 
L 663.885603 -297.226419 
L 662.812405 -300.766843 
L 661.168583 -304.307267 
L 659.014279 -307.847691 
L 656.456834 -311.388115 
L 653.660228 -314.928539 
L 650.842941 -318.468963 
L 648.260908 -322.009388 
L 646.17646 -325.549812 
L 644.818822 -329.090236 
L 644.345152 -332.63066 
L 644.812038 -336.171084 
L 646.165156 -339.711508 
L 648.250063 -343.251932 
L 650.841386 -346.792356 
L 653.682901 -350.33278 
L 656.528741 -353.873204 
L 659.176738 -357.413628 
L 661.48815 -360.954053 
L 663.392325 -364.494477 
L 664.878764 -368.034901 
L 671.306236 -368.034901 
L 671.306236 -368.034901 
L 672.792675 -364.494477 
L 674.69685 -360.954053 
L 677.008262 -357.413628 
L 679.656259 -353.873204 
L 682.502099 -350.33278 
L 685.343614 -346.792356 
L 687.934937 -343.251932 
L 690.019844 -339.711508 
L 691.372962 -336.171084 
L 691.839848 -332.63066 
L 691.366178 -329.090236 
L 690.00854 -325.549812 
L 687.924092 -322.009388 
L 685.342059 -318.468963 
L 682.524772 -314.928539 
L 679.728166 -311.388115 
L 677.170721 -307.847691 
L 675.016417 -304.307267 
L 673.372595 -300.766843 
L 672.299397 -297.226419 
L 671.82472 -293.685995 
L 671.958026 -290.145571 
L 672.697667 -286.605147 
L 674.029185 -283.064723 
L 675.915413 -279.524299 
L 678.282455 -275.983874 
L 681.007817 -272.44345 
L 683.917417 -268.903026 
L 686.796487 -265.362602 
L 689.415628 -261.822178 
L 691.568269 -258.281754 
L 693.111096 -254.74133 
L 693.996322 -251.200906 
L 694.285267 -247.660482 
L 694.136947 -244.120058 
L 693.772204 -240.579634 
L 693.421302 -237.039209 
L 693.268465 -233.498785 
L 693.408559 -229.958361 
L 693.828267 -226.417937 
L 694.417341 -222.877513 
L 695.00687 -219.337089 
L 695.423495 -215.796665 
L 695.543721 -212.256241 
L 695.332348 -208.715817 
L 694.853711 -205.175393 
L 694.252571 -201.634969 
L 693.710544 -198.094544 
L 693.391333 -194.55412 
L 693.391333 -191.013696 
L 693.710545 -187.473272 
L 694.252576 -183.932848 
L 694.853726 -180.392424 
L 695.332393 -176.852 
L 695.54385 -173.311576 
L 695.423843 -169.771152 
L 695.007779 -166.230728 
L 694.419624 -162.690304 
L 693.833785 -159.149879 
L 693.421397 -155.609455 
L 693.297208 -152.069031 
L 693.483248 -148.528607 
L 693.900738 -144.988183 
L 694.393771 -141.447759 
L 694.779541 -137.907335 
L 694.912813 -134.366911 
L 694.74881 -130.826487 
L 694.389442 -127.286063 
L 694.102098 -123.745639 
L 694.306439 -120.205214 
L 695.53089 -116.66479 
L 698.345202 -113.124366 
L 703.278193 -109.583942 
L 710.730803 -106.043518 
L 720.89481 -102.503094 
L 733.687623 -98.96267 
L 748.713365 -95.422246 
L 765.259482 -91.881822 
L 782.335281 -88.341398 
L 798.753694 -84.800974 
L 813.250425 -81.260549 
L 824.626769 -77.720125 
L 831.895806 -74.179701 
L 834.408409 -70.639277 
L 831.937002 -67.098853 
L 824.701595 -63.558429 
L 813.33309 -60.018005 
L 798.780828 -56.477581 
L 782.181915 -52.937157 
L 764.716279 -49.396733 
L 747.472301 -45.856309 
L 731.34325 -42.315884 
L 716.966373 -38.77546 
L 704.70679 -35.235036 
L 694.679849 -31.694612 
L 686.800084 -28.154188 
L 680.842981 -24.613764 
L 676.507059 -21.07334 
L 673.467098 -17.532916 
z
"/>
    </defs>
    <g clip-path="url(#pd4daba5eb6)">
     <use xlink:href="#m1a86c0c0af" x="0" y="432" style="fill: #d3d3d3"/>
    </g>
   </g>
   <g id="patch_8">
    <path d="M 485.145 419.04 
L 485.145 46.44 
" style="fill: none; stroke: #262626; stroke-width: 1.25; stroke-linejoin: miter; stroke-linecap: square"/>
   </g>
   <g id="patch_9">
    <path d="M 851.04 419.04 
L 851.04 46.44 
" style="fill: none; stroke: #262626; stroke-width: 1.25; stroke-linejoin: miter; stroke-linecap: square"/>
   </g>
   <g id="patch_10">
    <path d="M 485.145 419.04 
L 851.04 419.04 
" style="fill: none; stroke: #262626; stroke-width: 1.25; stroke-linejoin: miter; stroke-linecap: square"/>
   </g>
   <g id="patch_11">
    <path d="M 485.145 46.44 
L 851.04 46.44 
" style="fill: none; stroke: #262626; stroke-width: 1.25; stroke-linejoin: miter; stroke-linecap: square"/>
   </g>
   <g id="PathCollection_2">
    <defs>
     <path id="C1_0_8808c7e45e" d="M 0 6.123724 
C 1.624031 6.123724 3.181764 5.47849 4.330127 4.330127 
C 5.47849 3.181764 6.123724 1.624031 6.123724 -0 
C 6.123724 -1.624031 5.47849 -3.181764 4.330127 -4.330127 
C 3.181764 -5.47849 1.624031 -6.123724 0 -6.123724 
C -1.624031 -6.123724 -3.181764 -5.47849 -4.330127 -4.330127 
C -5.47849 -3.181764 -6.123724 -1.624031 -6.123724 0 
C -6.123724 1.624031 -5.47849 3.181764 -4.330127 4.330127 
C -3.181764 5.47849 -1.624031 6.123724 0 6.123724 
z
"/>
    </defs>
    <g clip-path="url(#pd4daba5eb6)">
     <use xlink:href="#C1_0_8808c7e45e" x="605.724034" y="367.090871" style="fill: #808080; stroke: #1a1a1a"/>
    </g>
    <g clip-path="url(#pd4daba5eb6)">
     <use xlink:href="#C1_0_8808c7e45e" x="616.118778" y="363.094784" style="fill: #800080; stroke: #1a1a1a"/>
    </g>
    <g clip-path="url(#pd4daba5eb6)">
     <use xlink:href="#C1_0_8808c7e45e" x="626.513523" y="355.10261" style="fill: #ff00ff; stroke: #1a1a1a"/>
    </g>
    <g clip-path="url(#pd4daba5eb6)">
     <use xlink:href="#C1_0_8808c7e45e" x="636.908267" y="99.353052" style="fill: #ff0000; stroke: #1a1a1a"/>
    </g>
    <g clip-path="url(#pd4daba5eb6)">
     <use xlink:href="#C1_0_8808c7e45e" x="647.303011" y="299.157394" style="fill: #daa520; stroke: #1a1a1a"/>
    </g>
    <g clip-path="url(#pd4daba5eb6)">
     <use xlink:href="#C1_0_8808c7e45e" x="657.697756" y="179.274789" style="fill: #ff8c00; stroke: #1a1a1a"/>
    </g>
    <g clip-path="url(#pd4daba5eb6)">
     <use xlink:href="#C1_0_8808c7e45e" x="668.0925" y="367.090871" style="fill: #8b4513; stroke: #1a1a1a"/>
    </g>
    <g clip-path="url(#pd4daba5eb6)">
     <use xlink:href="#C1_0_8808c7e45e" x="678.487244" y="347.110437" style="fill: #0000cd; stroke: #1a1a1a"/>
    </g>
    <g clip-path="url(#pd4daba5eb6)">
     <use xlink:href="#C1_0_8808c7e45e" x="688.881989" y="259.196526" style="fill: #1e90ff; stroke: #1a1a1a"/>
    </g>
    <g clip-path="url(#pd4daba5eb6)">
     <use xlink:href="#C1_0_8808c7e45e" x="699.276733" y="219.235657" style="fill: #40e0d0; stroke: #1a1a1a"/>
    </g>
    <g clip-path="url(#pd4daba5eb6)">
     <use xlink:href="#C1_0_8808c7e45e" x="709.671477" y="351.106524" style="fill: #006400; stroke: #1a1a1a"/>
    </g>
    <g clip-path="url(#pd4daba5eb6)">
     <use xlink:href="#C1_0_8808c7e45e" x="720.066222" y="379.079131" style="fill: #7cfc00; stroke: #1a1a1a"/>
    </g>
    <g clip-path="url(#pd4daba5eb6)">
     <use xlink:href="#C1_0_8808c7e45e" x="730.460966" y="363.094784" style="stroke: #1a1a1a"/>
    </g>
   </g>
   <g id="text_16">
    <!-- Symptom Resolution Speed -->
    <g style="fill: #262626" transform="translate(531.749219 40.44) scale(0.22 -0.22)">
     <defs>
      <path id="ArialMT-52" d="M 503 0 
L 503 4581 
L 2534 4581 
Q 3147 4581 3465 4457 
Q 3784 4334 3975 4021 
Q 4166 3709 4166 3331 
Q 4166 2844 3850 2509 
Q 3534 2175 2875 2084 
Q 3116 1969 3241 1856 
Q 3506 1613 3744 1247 
L 4541 0 
L 3778 0 
L 3172 953 
Q 2906 1366 2734 1584 
Q 2563 1803 2427 1890 
Q 2291 1978 2150 2013 
Q 2047 2034 1813 2034 
L 1109 2034 
L 1109 0 
L 503 0 
z
M 1109 2559 
L 2413 2559 
Q 2828 2559 3062 2645 
Q 3297 2731 3419 2920 
Q 3541 3109 3541 3331 
Q 3541 3656 3305 3865 
Q 3069 4075 2559 4075 
L 1109 4075 
L 1109 2559 
z
" transform="scale(0.015625)"/>
      <path id="ArialMT-73" d="M 197 991 
L 753 1078 
Q 800 744 1014 566 
Q 1228 388 1613 388 
Q 2000 388 2187 545 
Q 2375 703 2375 916 
Q 2375 1106 2209 1216 
Q 2094 1291 1634 1406 
Q 1016 1563 777 1677 
Q 538 1791 414 1992 
Q 291 2194 291 2438 
Q 291 2659 392 2848 
Q 494 3038 669 3163 
Q 800 3259 1026 3326 
Q 1253 3394 1513 3394 
Q 1903 3394 2198 3281 
Q 2494 3169 2634 2976 
Q 2775 2784 2828 2463 
L 2278 2388 
Q 2241 2644 2061 2787 
Q 1881 2931 1553 2931 
Q 1166 2931 1000 2803 
Q 834 2675 834 2503 
Q 834 2394 903 2306 
Q 972 2216 1119 2156 
Q 1203 2125 1616 2013 
Q 2213 1853 2448 1751 
Q 2684 1650 2818 1456 
Q 2953 1263 2953 975 
Q 2953 694 2789 445 
Q 2625 197 2315 61 
Q 2006 -75 1616 -75 
Q 969 -75 630 194 
Q 291 463 197 991 
z
" transform="scale(0.015625)"/>
      <path id="ArialMT-69" d="M 425 3934 
L 425 4581 
L 988 4581 
L 988 3934 
L 425 3934 
z
M 425 0 
L 425 3319 
L 988 3319 
L 988 0 
L 425 0 
z
" transform="scale(0.015625)"/>
      <path id="ArialMT-6e" d="M 422 0 
L 422 3319 
L 928 3319 
L 928 2847 
Q 1294 3394 1984 3394 
Q 2284 3394 2536 3286 
Q 2788 3178 2913 3003 
Q 3038 2828 3088 2588 
Q 3119 2431 3119 2041 
L 3119 0 
L 2556 0 
L 2556 2019 
Q 2556 2363 2490 2533 
Q 2425 2703 2258 2804 
Q 2091 2906 1866 2906 
Q 1506 2906 1245 2678 
Q 984 2450 984 1813 
L 984 0 
L 422 0 
z
" transform="scale(0.015625)"/>
      <path id="ArialMT-64" d="M 2575 0 
L 2575 419 
Q 2259 -75 1647 -75 
Q 1250 -75 917 144 
Q 584 363 401 755 
Q 219 1147 219 1656 
Q 219 2153 384 2558 
Q 550 2963 881 3178 
Q 1213 3394 1622 3394 
Q 1922 3394 2156 3267 
Q 2391 3141 2538 2938 
L 2538 4581 
L 3097 4581 
L 3097 0 
L 2575 0 
z
M 797 1656 
Q 797 1019 1065 703 
Q 1334 388 1700 388 
Q 2069 388 2326 689 
Q 2584 991 2584 1609 
Q 2584 2291 2321 2609 
Q 2059 2928 1675 2928 
Q 1300 2928 1048 2622 
Q 797 2316 797 1656 
z
" transform="scale(0.015625)"/>
     </defs>
     <use xlink:href="#ArialMT-53"/>
     <use xlink:href="#ArialMT-79" transform="translate(66.699219 0)"/>
     <use xlink:href="#ArialMT-6d" transform="translate(116.699219 0)"/>
     <use xlink:href="#ArialMT-70" transform="translate(200 0)"/>
     <use xlink:href="#ArialMT-74" transform="translate(255.615234 0)"/>
     <use xlink:href="#ArialMT-6f" transform="translate(283.398438 0)"/>
     <use xlink:href="#ArialMT-6d" transform="translate(339.013672 0)"/>
     <use xlink:href="#ArialMT-20" transform="translate(422.314453 0)"/>
     <use xlink:href="#ArialMT-52" transform="translate(450.097656 0)"/>
     <use xlink:href="#ArialMT-65" transform="translate(522.314453 0)"/>
     <use xlink:href="#ArialMT-73" transform="translate(577.929688 0)"/>
     <use xlink:href="#ArialMT-6f" transform="translate(627.929688 0)"/>
     <use xlink:href="#ArialMT-6c" transform="translate(683.544922 0)"/>
     <use xlink:href="#ArialMT-75" transform="translate(705.761719 0)"/>
     <use xlink:href="#ArialMT-74" transform="translate(761.376953 0)"/>
     <use xlink:href="#ArialMT-69" transform="translate(789.160156 0)"/>
     <use xlink:href="#ArialMT-6f" transform="translate(811.376953 0)"/>
     <use xlink:href="#ArialMT-6e" transform="translate(866.992188 0)"/>
     <use xlink:href="#ArialMT-20" transform="translate(922.607422 0)"/>
     <use xlink:href="#ArialMT-53" transform="translate(950.390625 0)"/>
     <use xlink:href="#ArialMT-70" transform="translate(1017.089844 0)"/>
     <use xlink:href="#ArialMT-65" transform="translate(1072.705078 0)"/>
     <use xlink:href="#ArialMT-65" transform="translate(1128.320312 0)"/>
     <use xlink:href="#ArialMT-64" transform="translate(1183.935547 0)"/>
    </g>
   </g>
  </g>
 </g>
 <defs>
  <clipPath id="paaaa91122c">
   <rect x="59.67" y="46.44" width="365.895" height="372.6"/>
  </clipPath>
  <clipPath id="pd4daba5eb6">
   <rect x="485.145" y="46.44" width="365.895" height="372.6"/>
  </clipPath>
 </defs>
</svg>
