<?xml version="1.0" encoding="utf-8" standalone="no"?>
<!DOCTYPE svg PUBLIC "-//W3C//DTD SVG 1.1//EN"
  "http://www.w3.org/Graphics/SVG/1.1/DTD/svg11.dtd">
<svg xmlns:xlink="http://www.w3.org/1999/xlink" width="1440pt" height="360pt" viewBox="0 0 1440 360" xmlns="http://www.w3.org/2000/svg" version="1.1">
 <metadata>
  <rdf:RDF xmlns:dc="http://purl.org/dc/elements/1.1/" xmlns:cc="http://creativecommons.org/ns#" xmlns:rdf="http://www.w3.org/1999/02/22-rdf-syntax-ns#">
   <cc:Work>
    <dc:type rdf:resource="http://purl.org/dc/dcmitype/StillImage"/>
    <dc:date>2025-02-18T18:36:41.560519</dc:date>
    <dc:format>image/svg+xml</dc:format>
    <dc:creator>
     <cc:Agent>
      <dc:title>Matplotlib v3.10.0, https://matplotlib.org/</dc:title>
     </cc:Agent>
    </dc:creator>
   </cc:Work>
  </rdf:RDF>
 </metadata>
 <defs>
  <style type="text/css">*{stroke-linejoin: round; stroke-linecap: butt}</style>
 </defs>
 <g id="figure_1">
  <g id="patch_1">
   <path d="M 0 360 
L 1440 360 
L 1440 0 
L 0 0 
L 0 360 
z
" style="fill: none"/>
  </g>
  <g id="axes_1">
   <g id="patch_2">
    <path d="M 180 320.4 
L 407.755102 320.4 
L 407.755102 72 
L 180 72 
L 180 320.4 
z
" style="fill: none"/>
   </g>
   <g id="matplotlib.axis_1">
    <g id="xtick_1">
     <g id="line2d_1">
      <defs>
       <path id="m25a103ac9d" d="M 0 0 
L 0 3.5 
" style="stroke: #000000; stroke-width: 0.8"/>
      </defs>
      <g>
       <use xlink:href="#m25a103ac9d" x="186.698679" y="320.4" style="stroke: #000000; stroke-width: 0.8"/>
      </g>
     </g>
     <g id="text_1">
      <!-- 0 -->
      <g transform="translate(176.773179 351.107125) scale(0.312 -0.312)">
       <defs>
        <path id="DejaVuSans-30" d="M 2034 4250 
Q 1547 4250 1301 3770 
Q 1056 3291 1056 2328 
Q 1056 1369 1301 889 
Q 1547 409 2034 409 
Q 2525 409 2770 889 
Q 3016 1369 3016 2328 
Q 3016 3291 2770 3770 
Q 2525 4250 2034 4250 
z
M 2034 4750 
Q 2819 4750 3233 4129 
Q 3647 3509 3647 2328 
Q 3647 1150 3233 529 
Q 2819 -91 2034 -91 
Q 1250 -91 836 529 
Q 422 1150 422 2328 
Q 422 3509 836 4129 
Q 1250 4750 2034 4750 
z
" transform="scale(0.015625)"/>
       </defs>
       <use xlink:href="#DejaVuSans-30"/>
      </g>
     </g>
    </g>
    <g id="xtick_2">
     <g id="line2d_2">
      <g>
       <use xlink:href="#m25a103ac9d" x="240.288115" y="320.4" style="stroke: #000000; stroke-width: 0.8"/>
      </g>
     </g>
     <g id="text_2">
      <!-- 2 -->
      <g transform="translate(230.362615 351.107125) scale(0.312 -0.312)">
       <defs>
        <path id="DejaVuSans-32" d="M 1228 531 
L 3431 531 
L 3431 0 
L 469 0 
L 469 531 
Q 828 903 1448 1529 
Q 2069 2156 2228 2338 
Q 2531 2678 2651 2914 
Q 2772 3150 2772 3378 
Q 2772 3750 2511 3984 
Q 2250 4219 1831 4219 
Q 1534 4219 1204 4116 
Q 875 4013 500 3803 
L 500 4441 
Q 881 4594 1212 4672 
Q 1544 4750 1819 4750 
Q 2544 4750 2975 4387 
Q 3406 4025 3406 3419 
Q 3406 3131 3298 2873 
Q 3191 2616 2906 2266 
Q 2828 2175 2409 1742 
Q 1991 1309 1228 531 
z
" transform="scale(0.015625)"/>
       </defs>
       <use xlink:href="#DejaVuSans-32"/>
      </g>
     </g>
    </g>
    <g id="xtick_3">
     <g id="line2d_3">
      <g>
       <use xlink:href="#m25a103ac9d" x="293.877551" y="320.4" style="stroke: #000000; stroke-width: 0.8"/>
      </g>
     </g>
     <g id="text_3">
      <!-- 4 -->
      <g transform="translate(283.952051 351.107125) scale(0.312 -0.312)">
       <defs>
        <path id="DejaVuSans-34" d="M 2419 4116 
L 825 1625 
L 2419 1625 
L 2419 4116 
z
M 2253 4666 
L 3047 4666 
L 3047 1625 
L 3713 1625 
L 3713 1100 
L 3047 1100 
L 3047 0 
L 2419 0 
L 2419 1100 
L 313 1100 
L 313 1709 
L 2253 4666 
z
" transform="scale(0.015625)"/>
       </defs>
       <use xlink:href="#DejaVuSans-34"/>
      </g>
     </g>
    </g>
    <g id="xtick_4">
     <g id="line2d_4">
      <g>
       <use xlink:href="#m25a103ac9d" x="347.466987" y="320.4" style="stroke: #000000; stroke-width: 0.8"/>
      </g>
     </g>
     <g id="text_4">
      <!-- 6 -->
      <g transform="translate(337.541487 351.107125) scale(0.312 -0.312)">
       <defs>
        <path id="DejaVuSans-36" d="M 2113 2584 
Q 1688 2584 1439 2293 
Q 1191 2003 1191 1497 
Q 1191 994 1439 701 
Q 1688 409 2113 409 
Q 2538 409 2786 701 
Q 3034 994 3034 1497 
Q 3034 2003 2786 2293 
Q 2538 2584 2113 2584 
z
M 3366 4563 
L 3366 3988 
Q 3128 4100 2886 4159 
Q 2644 4219 2406 4219 
Q 1781 4219 1451 3797 
Q 1122 3375 1075 2522 
Q 1259 2794 1537 2939 
Q 1816 3084 2150 3084 
Q 2853 3084 3261 2657 
Q 3669 2231 3669 1497 
Q 3669 778 3244 343 
Q 2819 -91 2113 -91 
Q 1303 -91 875 529 
Q 447 1150 447 2328 
Q 447 3434 972 4092 
Q 1497 4750 2381 4750 
Q 2619 4750 2861 4703 
Q 3103 4656 3366 4563 
z
" transform="scale(0.015625)"/>
       </defs>
       <use xlink:href="#DejaVuSans-36"/>
      </g>
     </g>
    </g>
    <g id="xtick_5">
     <g id="line2d_5">
      <g>
       <use xlink:href="#m25a103ac9d" x="401.056423" y="320.4" style="stroke: #000000; stroke-width: 0.8"/>
      </g>
     </g>
     <g id="text_5">
      <!-- 8 -->
      <g transform="translate(391.130923 351.107125) scale(0.312 -0.312)">
       <defs>
        <path id="DejaVuSans-38" d="M 2034 2216 
Q 1584 2216 1326 1975 
Q 1069 1734 1069 1313 
Q 1069 891 1326 650 
Q 1584 409 2034 409 
Q 2484 409 2743 651 
Q 3003 894 3003 1313 
Q 3003 1734 2745 1975 
Q 2488 2216 2034 2216 
z
M 1403 2484 
Q 997 2584 770 2862 
Q 544 3141 544 3541 
Q 544 4100 942 4425 
Q 1341 4750 2034 4750 
Q 2731 4750 3128 4425 
Q 3525 4100 3525 3541 
Q 3525 3141 3298 2862 
Q 3072 2584 2669 2484 
Q 3125 2378 3379 2068 
Q 3634 1759 3634 1313 
Q 3634 634 3220 271 
Q 2806 -91 2034 -91 
Q 1263 -91 848 271 
Q 434 634 434 1313 
Q 434 1759 690 2068 
Q 947 2378 1403 2484 
z
M 1172 3481 
Q 1172 3119 1398 2916 
Q 1625 2713 2034 2713 
Q 2441 2713 2670 2916 
Q 2900 3119 2900 3481 
Q 2900 3844 2670 4047 
Q 2441 4250 2034 4250 
Q 1625 4250 1398 4047 
Q 1172 3844 1172 3481 
z
" transform="scale(0.015625)"/>
       </defs>
       <use xlink:href="#DejaVuSans-38"/>
      </g>
     </g>
    </g>
    <g id="text_6">
     <!-- Time (d) -->
     <g transform="translate(241.190989 382.415656) scale(0.286 -0.286)">
      <defs>
       <path id="ArialMT-54" d="M 1659 0 
L 1659 4041 
L 150 4041 
L 150 4581 
L 3781 4581 
L 3781 4041 
L 2266 4041 
L 2266 0 
L 1659 0 
z
" transform="scale(0.015625)"/>
       <path id="ArialMT-69" d="M 425 3934 
L 425 4581 
L 988 4581 
L 988 3934 
L 425 3934 
z
M 425 0 
L 425 3319 
L 988 3319 
L 988 0 
L 425 0 
z
" transform="scale(0.015625)"/>
       <path id="ArialMT-6d" d="M 422 0 
L 422 3319 
L 925 3319 
L 925 2853 
Q 1081 3097 1340 3245 
Q 1600 3394 1931 3394 
Q 2300 3394 2536 3241 
Q 2772 3088 2869 2813 
Q 3263 3394 3894 3394 
Q 4388 3394 4653 3120 
Q 4919 2847 4919 2278 
L 4919 0 
L 4359 0 
L 4359 2091 
Q 4359 2428 4304 2576 
Q 4250 2725 4106 2815 
Q 3963 2906 3769 2906 
Q 3419 2906 3187 2673 
Q 2956 2441 2956 1928 
L 2956 0 
L 2394 0 
L 2394 2156 
Q 2394 2531 2256 2718 
Q 2119 2906 1806 2906 
Q 1569 2906 1367 2781 
Q 1166 2656 1075 2415 
Q 984 2175 984 1722 
L 984 0 
L 422 0 
z
" transform="scale(0.015625)"/>
       <path id="ArialMT-65" d="M 2694 1069 
L 3275 997 
Q 3138 488 2766 206 
Q 2394 -75 1816 -75 
Q 1088 -75 661 373 
Q 234 822 234 1631 
Q 234 2469 665 2931 
Q 1097 3394 1784 3394 
Q 2450 3394 2872 2941 
Q 3294 2488 3294 1666 
Q 3294 1616 3291 1516 
L 816 1516 
Q 847 969 1125 678 
Q 1403 388 1819 388 
Q 2128 388 2347 550 
Q 2566 713 2694 1069 
z
M 847 1978 
L 2700 1978 
Q 2663 2397 2488 2606 
Q 2219 2931 1791 2931 
Q 1403 2931 1139 2672 
Q 875 2413 847 1978 
z
" transform="scale(0.015625)"/>
       <path id="ArialMT-20" transform="scale(0.015625)"/>
       <path id="ArialMT-28" d="M 1497 -1347 
Q 1031 -759 709 28 
Q 388 816 388 1659 
Q 388 2403 628 3084 
Q 909 3875 1497 4659 
L 1900 4659 
Q 1522 4009 1400 3731 
Q 1209 3300 1100 2831 
Q 966 2247 966 1656 
Q 966 153 1900 -1347 
L 1497 -1347 
z
" transform="scale(0.015625)"/>
       <path id="ArialMT-64" d="M 2575 0 
L 2575 419 
Q 2259 -75 1647 -75 
Q 1250 -75 917 144 
Q 584 363 401 755 
Q 219 1147 219 1656 
Q 219 2153 384 2558 
Q 550 2963 881 3178 
Q 1213 3394 1622 3394 
Q 1922 3394 2156 3267 
Q 2391 3141 2538 2938 
L 2538 4581 
L 3097 4581 
L 3097 0 
L 2575 0 
z
M 797 1656 
Q 797 1019 1065 703 
Q 1334 388 1700 388 
Q 2069 388 2326 689 
Q 2584 991 2584 1609 
Q 2584 2291 2321 2609 
Q 2059 2928 1675 2928 
Q 1300 2928 1048 2622 
Q 797 2316 797 1656 
z
" transform="scale(0.015625)"/>
       <path id="ArialMT-29" d="M 791 -1347 
L 388 -1347 
Q 1322 153 1322 1656 
Q 1322 2244 1188 2822 
Q 1081 3291 891 3722 
Q 769 4003 388 4659 
L 791 4659 
Q 1378 3875 1659 3084 
Q 1900 2403 1900 1659 
Q 1900 816 1576 28 
Q 1253 -759 791 -1347 
z
" transform="scale(0.015625)"/>
      </defs>
      <use xlink:href="#ArialMT-54"/>
      <use xlink:href="#ArialMT-69" transform="translate(57.333984 0)"/>
      <use xlink:href="#ArialMT-6d" transform="translate(79.550781 0)"/>
      <use xlink:href="#ArialMT-65" transform="translate(162.851562 0)"/>
      <use xlink:href="#ArialMT-20" transform="translate(218.466797 0)"/>
      <use xlink:href="#ArialMT-28" transform="translate(246.25 0)"/>
      <use xlink:href="#ArialMT-64" transform="translate(279.550781 0)"/>
      <use xlink:href="#ArialMT-29" transform="translate(335.166016 0)"/>
     </g>
    </g>
   </g>
   <g id="matplotlib.axis_2">
    <g id="ytick_1">
     <g id="line2d_6">
      <defs>
       <path id="m0275d673fb" d="M 0 0 
L -3.5 0 
" style="stroke: #000000; stroke-width: 0.8"/>
      </defs>
      <g>
       <use xlink:href="#m0275d673fb" x="180" y="312.872727" style="stroke: #000000; stroke-width: 0.8"/>
      </g>
     </g>
     <g id="text_7">
      <!-- 0 -->
      <g transform="translate(153.149 324.72629) scale(0.312 -0.312)">
       <use xlink:href="#DejaVuSans-30"/>
      </g>
     </g>
    </g>
    <g id="ytick_2">
     <g id="line2d_7">
      <g>
       <use xlink:href="#m0275d673fb" x="180" y="252.654545" style="stroke: #000000; stroke-width: 0.8"/>
      </g>
     </g>
     <g id="text_8">
      <!-- 2 -->
      <g transform="translate(153.149 264.508108) scale(0.312 -0.312)">
       <use xlink:href="#DejaVuSans-32"/>
      </g>
     </g>
    </g>
    <g id="ytick_3">
     <g id="line2d_8">
      <g>
       <use xlink:href="#m0275d673fb" x="180" y="192.436364" style="stroke: #000000; stroke-width: 0.8"/>
      </g>
     </g>
     <g id="text_9">
      <!-- 4 -->
      <g transform="translate(153.149 204.289926) scale(0.312 -0.312)">
       <use xlink:href="#DejaVuSans-34"/>
      </g>
     </g>
    </g>
    <g id="ytick_4">
     <g id="line2d_9">
      <g>
       <use xlink:href="#m0275d673fb" x="180" y="132.218182" style="stroke: #000000; stroke-width: 0.8"/>
      </g>
     </g>
     <g id="text_10">
      <!-- 6 -->
      <g transform="translate(153.149 144.071744) scale(0.312 -0.312)">
       <use xlink:href="#DejaVuSans-36"/>
      </g>
     </g>
    </g>
    <g id="ytick_5">
     <g id="line2d_10">
      <g>
       <use xlink:href="#m0275d673fb" x="180" y="72" style="stroke: #000000; stroke-width: 0.8"/>
      </g>
     </g>
     <g id="text_11">
      <!-- 8 -->
      <g transform="translate(153.149 83.853563) scale(0.312 -0.312)">
       <use xlink:href="#DejaVuSans-38"/>
      </g>
     </g>
    </g>
    <g id="text_12">
     <!-- Log$_{10}$ Virus (copies/mL) -->
     <g transform="translate(142.857 348.638) rotate(-90) scale(0.286 -0.286)">
      <defs>
       <path id="ArialMT-4c" d="M 469 0 
L 469 4581 
L 1075 4581 
L 1075 541 
L 3331 541 
L 3331 0 
L 469 0 
z
" transform="scale(0.015625)"/>
       <path id="ArialMT-6f" d="M 213 1659 
Q 213 2581 725 3025 
Q 1153 3394 1769 3394 
Q 2453 3394 2887 2945 
Q 3322 2497 3322 1706 
Q 3322 1066 3130 698 
Q 2938 331 2570 128 
Q 2203 -75 1769 -75 
Q 1072 -75 642 372 
Q 213 819 213 1659 
z
M 791 1659 
Q 791 1022 1069 705 
Q 1347 388 1769 388 
Q 2188 388 2466 706 
Q 2744 1025 2744 1678 
Q 2744 2294 2464 2611 
Q 2184 2928 1769 2928 
Q 1347 2928 1069 2612 
Q 791 2297 791 1659 
z
" transform="scale(0.015625)"/>
       <path id="ArialMT-67" d="M 319 -275 
L 866 -356 
Q 900 -609 1056 -725 
Q 1266 -881 1628 -881 
Q 2019 -881 2231 -725 
Q 2444 -569 2519 -288 
Q 2563 -116 2559 434 
Q 2191 0 1641 0 
Q 956 0 581 494 
Q 206 988 206 1678 
Q 206 2153 378 2554 
Q 550 2956 876 3175 
Q 1203 3394 1644 3394 
Q 2231 3394 2613 2919 
L 2613 3319 
L 3131 3319 
L 3131 450 
Q 3131 -325 2973 -648 
Q 2816 -972 2473 -1159 
Q 2131 -1347 1631 -1347 
Q 1038 -1347 672 -1080 
Q 306 -813 319 -275 
z
M 784 1719 
Q 784 1066 1043 766 
Q 1303 466 1694 466 
Q 2081 466 2343 764 
Q 2606 1063 2606 1700 
Q 2606 2309 2336 2618 
Q 2066 2928 1684 2928 
Q 1309 2928 1046 2623 
Q 784 2319 784 1719 
z
" transform="scale(0.015625)"/>
       <path id="DejaVuSans-31" d="M 794 531 
L 1825 531 
L 1825 4091 
L 703 3866 
L 703 4441 
L 1819 4666 
L 2450 4666 
L 2450 531 
L 3481 531 
L 3481 0 
L 794 0 
L 794 531 
z
" transform="scale(0.015625)"/>
       <path id="ArialMT-56" d="M 1803 0 
L 28 4581 
L 684 4581 
L 1875 1253 
Q 2019 853 2116 503 
Q 2222 878 2363 1253 
L 3600 4581 
L 4219 4581 
L 2425 0 
L 1803 0 
z
" transform="scale(0.015625)"/>
       <path id="ArialMT-72" d="M 416 0 
L 416 3319 
L 922 3319 
L 922 2816 
Q 1116 3169 1280 3281 
Q 1444 3394 1641 3394 
Q 1925 3394 2219 3213 
L 2025 2691 
Q 1819 2813 1613 2813 
Q 1428 2813 1281 2702 
Q 1134 2591 1072 2394 
Q 978 2094 978 1738 
L 978 0 
L 416 0 
z
" transform="scale(0.015625)"/>
       <path id="ArialMT-75" d="M 2597 0 
L 2597 488 
Q 2209 -75 1544 -75 
Q 1250 -75 995 37 
Q 741 150 617 320 
Q 494 491 444 738 
Q 409 903 409 1263 
L 409 3319 
L 972 3319 
L 972 1478 
Q 972 1038 1006 884 
Q 1059 663 1231 536 
Q 1403 409 1656 409 
Q 1909 409 2131 539 
Q 2353 669 2445 892 
Q 2538 1116 2538 1541 
L 2538 3319 
L 3100 3319 
L 3100 0 
L 2597 0 
z
" transform="scale(0.015625)"/>
       <path id="ArialMT-73" d="M 197 991 
L 753 1078 
Q 800 744 1014 566 
Q 1228 388 1613 388 
Q 2000 388 2187 545 
Q 2375 703 2375 916 
Q 2375 1106 2209 1216 
Q 2094 1291 1634 1406 
Q 1016 1563 777 1677 
Q 538 1791 414 1992 
Q 291 2194 291 2438 
Q 291 2659 392 2848 
Q 494 3038 669 3163 
Q 800 3259 1026 3326 
Q 1253 3394 1513 3394 
Q 1903 3394 2198 3281 
Q 2494 3169 2634 2976 
Q 2775 2784 2828 2463 
L 2278 2388 
Q 2241 2644 2061 2787 
Q 1881 2931 1553 2931 
Q 1166 2931 1000 2803 
Q 834 2675 834 2503 
Q 834 2394 903 2306 
Q 972 2216 1119 2156 
Q 1203 2125 1616 2013 
Q 2213 1853 2448 1751 
Q 2684 1650 2818 1456 
Q 2953 1263 2953 975 
Q 2953 694 2789 445 
Q 2625 197 2315 61 
Q 2006 -75 1616 -75 
Q 969 -75 630 194 
Q 291 463 197 991 
z
" transform="scale(0.015625)"/>
       <path id="ArialMT-63" d="M 2588 1216 
L 3141 1144 
Q 3050 572 2676 248 
Q 2303 -75 1759 -75 
Q 1078 -75 664 370 
Q 250 816 250 1647 
Q 250 2184 428 2587 
Q 606 2991 970 3192 
Q 1334 3394 1763 3394 
Q 2303 3394 2647 3120 
Q 2991 2847 3088 2344 
L 2541 2259 
Q 2463 2594 2264 2762 
Q 2066 2931 1784 2931 
Q 1359 2931 1093 2626 
Q 828 2322 828 1663 
Q 828 994 1084 691 
Q 1341 388 1753 388 
Q 2084 388 2306 591 
Q 2528 794 2588 1216 
z
" transform="scale(0.015625)"/>
       <path id="ArialMT-70" d="M 422 -1272 
L 422 3319 
L 934 3319 
L 934 2888 
Q 1116 3141 1344 3267 
Q 1572 3394 1897 3394 
Q 2322 3394 2647 3175 
Q 2972 2956 3137 2557 
Q 3303 2159 3303 1684 
Q 3303 1175 3120 767 
Q 2938 359 2589 142 
Q 2241 -75 1856 -75 
Q 1575 -75 1351 44 
Q 1128 163 984 344 
L 984 -1272 
L 422 -1272 
z
M 931 1641 
Q 931 1000 1190 694 
Q 1450 388 1819 388 
Q 2194 388 2461 705 
Q 2728 1022 2728 1688 
Q 2728 2322 2467 2637 
Q 2206 2953 1844 2953 
Q 1484 2953 1207 2617 
Q 931 2281 931 1641 
z
" transform="scale(0.015625)"/>
       <path id="ArialMT-2f" d="M 0 -78 
L 1328 4659 
L 1778 4659 
L 453 -78 
L 0 -78 
z
" transform="scale(0.015625)"/>
      </defs>
      <use xlink:href="#ArialMT-4c" transform="translate(0 0.203125)"/>
      <use xlink:href="#ArialMT-6f" transform="translate(55.615234 0.203125)"/>
      <use xlink:href="#ArialMT-67" transform="translate(111.230469 0.203125)"/>
      <use xlink:href="#DejaVuSans-31" transform="translate(167.802734 -16.203125) scale(0.7)"/>
      <use xlink:href="#DejaVuSans-30" transform="translate(212.338867 -16.203125) scale(0.7)"/>
      <use xlink:href="#ArialMT-20" transform="translate(259.609375 0.203125)"/>
      <use xlink:href="#ArialMT-56" transform="translate(287.392578 0.203125)"/>
      <use xlink:href="#ArialMT-69" transform="translate(354.091797 0.203125)"/>
      <use xlink:href="#ArialMT-72" transform="translate(376.308594 0.203125)"/>
      <use xlink:href="#ArialMT-75" transform="translate(409.609375 0.203125)"/>
      <use xlink:href="#ArialMT-73" transform="translate(465.224609 0.203125)"/>
      <use xlink:href="#ArialMT-20" transform="translate(515.224609 0.203125)"/>
      <use xlink:href="#ArialMT-28" transform="translate(543.007812 0.203125)"/>
      <use xlink:href="#ArialMT-63" transform="translate(576.308594 0.203125)"/>
      <use xlink:href="#ArialMT-6f" transform="translate(626.308594 0.203125)"/>
      <use xlink:href="#ArialMT-70" transform="translate(681.923828 0.203125)"/>
      <use xlink:href="#ArialMT-69" transform="translate(737.539062 0.203125)"/>
      <use xlink:href="#ArialMT-65" transform="translate(759.755859 0.203125)"/>
      <use xlink:href="#ArialMT-73" transform="translate(815.371094 0.203125)"/>
      <use xlink:href="#ArialMT-2f" transform="translate(865.371094 0.203125)"/>
      <use xlink:href="#ArialMT-6d" transform="translate(893.154297 0.203125)"/>
      <use xlink:href="#ArialMT-4c" transform="translate(976.455078 0.203125)"/>
      <use xlink:href="#ArialMT-29" transform="translate(1032.070312 0.203125)"/>
     </g>
    </g>
   </g>
   <g id="patch_3">
    <path d="M 180 320.4 
L 180 72 
" style="fill: none; stroke: #000000; stroke-width: 3; stroke-linejoin: miter; stroke-linecap: square"/>
   </g>
   <g id="patch_4">
    <path d="M 407.755102 320.4 
L 407.755102 72 
" style="fill: none; stroke: #000000; stroke-width: 3; stroke-linejoin: miter; stroke-linecap: square"/>
   </g>
   <g id="patch_5">
    <path d="M 180 320.4 
L 407.755102 320.4 
" style="fill: none; stroke: #000000; stroke-width: 3; stroke-linejoin: miter; stroke-linecap: square"/>
   </g>
   <g id="patch_6">
    <path d="M 180 72 
L 407.755102 72 
" style="fill: none; stroke: #000000; stroke-width: 3; stroke-linejoin: miter; stroke-linecap: square"/>
   </g>
   <g id="FillBetweenPolyCollection_1">
    <defs>
     <path id="m87ed0577a6" d="M 186.698679 -47.127273 
L 186.698679 -47.127273 
L 187.775854 -47.127273 
L 188.853029 -47.127273 
L 189.930203 -47.127273 
L 191.007378 -47.127273 
L 192.084552 -47.127273 
L 193.161727 -47.127273 
L 194.238902 -47.127273 
L 195.316076 -47.127273 
L 196.393251 -51.982057 
L 197.470425 -58.503971 
L 198.5476 -65.080249 
L 199.624775 -71.609225 
L 200.701949 -78.178528 
L 201.779124 -84.715828 
L 202.856298 -91.301603 
L 203.933473 -97.827458 
L 205.010647 -104.375312 
L 206.087822 -110.899883 
L 207.164997 -117.436273 
L 208.242171 -123.922892 
L 209.319346 -130.388455 
L 210.39652 -136.787689 
L 211.473695 -143.106533 
L 212.55087 -149.259463 
L 213.493397 -154.469789 
L 213.628044 -155.194005 
L 214.705219 -160.784121 
L 215.782393 -165.908081 
L 216.859568 -170.42813 
L 217.936743 -174.23182 
L 219.013917 -177.290153 
L 220.091092 -179.617508 
L 221.168266 -181.325139 
L 222.245441 -182.520179 
L 223.322615 -183.318862 
L 224.39979 -183.816882 
L 225.476965 -184.085227 
L 226.554139 -184.175251 
L 227.631314 -184.124677 
L 228.708488 -183.961007 
L 229.785663 -183.704971 
L 230.862838 -183.372341 
L 231.940012 -182.975666 
L 233.017187 -182.524616 
L 234.094361 -182.027184 
L 235.171536 -181.489426 
L 236.248711 -180.917156 
L 237.325885 -180.314528 
L 238.40306 -179.685856 
L 239.480234 -179.033307 
L 240.288115 -178.530504 
L 240.557409 -178.3606 
L 241.634583 -177.669715 
L 242.711758 -176.962405 
L 243.788933 -176.240917 
L 244.866107 -175.501997 
L 245.943282 -174.75155 
L 247.020456 -173.992022 
L 248.097631 -173.224353 
L 249.174806 -172.44935 
L 250.25198 -171.667733 
L 251.329155 -170.879804 
L 252.406329 -170.086592 
L 253.483504 -169.288329 
L 254.560679 -168.485532 
L 255.637853 -167.678037 
L 256.715028 -166.86638 
L 257.792202 -166.051111 
L 258.869377 -165.231486 
L 259.946551 -164.40853 
L 261.023726 -163.58131 
L 262.100901 -162.748626 
L 263.178075 -161.910754 
L 264.25525 -161.069013 
L 265.332424 -160.222599 
L 266.409599 -159.370809 
L 267.082833 -158.836096 
L 267.486774 -158.514042 
L 268.563948 -157.650196 
L 269.641123 -156.779561 
L 270.718297 -155.899702 
L 271.795472 -155.004637 
L 272.872647 -154.078503 
L 273.949821 -153.107209 
L 275.026996 -152.114057 
L 276.10417 -151.093792 
L 277.181345 -150.041947 
L 278.258519 -148.953642 
L 279.335694 -147.820241 
L 280.412869 -146.635065 
L 281.490043 -145.386163 
L 282.567218 -144.060805 
L 283.644392 -142.643057 
L 284.721567 -141.109128 
L 285.798742 -139.431662 
L 286.875916 -137.568193 
L 287.953091 -135.460463 
L 289.030265 -133.019863 
L 290.10744 -130.097322 
L 291.184615 -126.428974 
L 292.261789 -121.44621 
L 293.338964 -113.536691 
L 293.877551 -106.671992 
L 294.416138 -91.986457 
L 295.493313 -47.127273 
L 296.570487 -47.127273 
L 297.647662 -47.127273 
L 298.724837 -47.127273 
L 299.802011 -47.127273 
L 300.879186 -47.127273 
L 301.95636 -47.127273 
L 303.033535 -47.127273 
L 304.11071 -47.127273 
L 305.187884 -47.127273 
L 306.265059 -47.127273 
L 307.342233 -47.127273 
L 308.419408 -47.127273 
L 309.496583 -47.127273 
L 310.573757 -47.127273 
L 311.650932 -47.127273 
L 312.728106 -47.127273 
L 313.805281 -47.127273 
L 314.882455 -47.127273 
L 315.95963 -47.127273 
L 317.036805 -47.127273 
L 318.113979 -47.127273 
L 319.191154 -47.127273 
L 320.268328 -47.127273 
L 320.672269 -47.127273 
L 321.345503 -47.127273 
L 322.422678 -47.127273 
L 323.499852 -47.127273 
L 324.577027 -47.127273 
L 325.654201 -47.127273 
L 326.731376 -47.127273 
L 327.808551 -47.127273 
L 328.885725 -47.127273 
L 329.9629 -47.127273 
L 331.040074 -47.127273 
L 332.117249 -47.127273 
L 333.194423 -47.127273 
L 334.271598 -47.127273 
L 335.348773 -47.127273 
L 336.425947 -47.127273 
L 337.503122 -47.127273 
L 338.580296 -47.127273 
L 339.657471 -47.127273 
L 340.734646 -47.127273 
L 341.81182 -47.127273 
L 342.888995 -47.127273 
L 343.966169 -47.127273 
L 345.043344 -47.127273 
L 346.120519 -47.127273 
L 347.197693 -47.127273 
L 347.466987 -47.127273 
L 348.274868 -47.127273 
L 349.352042 -47.127273 
L 350.429217 -47.127273 
L 351.506392 -47.127273 
L 352.583566 -47.127273 
L 353.660741 -47.127273 
L 354.737915 -47.127273 
L 355.81509 -47.127273 
L 356.892264 -47.127273 
L 357.969439 -47.127273 
L 359.046614 -47.127273 
L 360.123788 -47.127273 
L 361.200963 -47.127273 
L 362.278137 -47.127273 
L 363.355312 -47.127273 
L 364.432487 -47.127273 
L 365.509661 -47.127273 
L 366.586836 -47.127273 
L 367.66401 -47.127273 
L 368.741185 -47.127273 
L 369.81836 -47.127273 
L 370.895534 -47.127273 
L 371.972709 -47.127273 
L 373.049883 -47.127273 
L 374.127058 -47.127273 
L 374.261705 -47.127273 
L 375.204232 -47.127273 
L 376.281407 -47.127273 
L 377.358582 -47.127273 
L 378.435756 -47.127273 
L 379.512931 -47.127273 
L 380.590105 -47.127273 
L 381.66728 -47.127273 
L 382.744455 -47.127273 
L 383.821629 -47.127273 
L 384.898804 -47.127273 
L 385.975978 -47.127273 
L 387.053153 -47.127273 
L 388.130328 -47.127273 
L 389.207502 -47.127273 
L 390.284677 -47.127273 
L 391.361851 -47.127273 
L 392.439026 -47.127273 
L 393.5162 -47.127273 
L 394.593375 -47.127273 
L 395.67055 -47.127273 
L 396.747724 -47.127273 
L 397.824899 -47.127273 
L 398.902073 -47.127273 
L 399.979248 -47.127273 
L 401.056423 -47.127273 
L 401.056423 -47.127273 
L 401.056423 -47.127273 
L 399.979248 -47.127273 
L 398.902073 -47.127273 
L 397.824899 -47.127273 
L 396.747724 -47.127273 
L 395.67055 -47.127273 
L 394.593375 -47.127273 
L 393.5162 -47.127273 
L 392.439026 -47.127273 
L 391.361851 -47.127273 
L 390.284677 -47.127273 
L 389.207502 -47.127273 
L 388.130328 -47.127273 
L 387.053153 -47.127273 
L 385.975978 -47.127273 
L 384.898804 -47.127273 
L 383.821629 -47.127273 
L 382.744455 -47.127273 
L 381.66728 -47.127273 
L 380.590105 -47.127273 
L 379.512931 -47.127273 
L 378.435756 -47.127273 
L 377.358582 -47.127273 
L 376.281407 -47.127273 
L 375.204232 -47.127273 
L 374.261705 -47.127273 
L 374.127058 -47.127273 
L 373.049883 -47.127273 
L 371.972709 -47.127273 
L 370.895534 -47.127273 
L 369.81836 -47.127273 
L 368.741185 -47.127273 
L 367.66401 -47.127273 
L 366.586836 -47.127273 
L 365.509661 -47.127273 
L 364.432487 -47.127273 
L 363.355312 -47.127273 
L 362.278137 -47.127273 
L 361.200963 -47.127273 
L 360.123788 -47.127273 
L 359.046614 -47.127273 
L 357.969439 -47.127273 
L 356.892264 -47.127273 
L 355.81509 -47.127273 
L 354.737915 -47.127273 
L 353.660741 -47.127273 
L 352.583566 -47.127273 
L 351.506392 -47.127273 
L 350.429217 -47.127273 
L 349.352042 -47.127273 
L 348.274868 -47.127273 
L 347.466987 -47.127273 
L 347.197693 -47.127273 
L 346.120519 -47.127273 
L 345.043344 -47.127273 
L 343.966169 -47.127273 
L 342.888995 -47.127273 
L 341.81182 -47.127273 
L 340.734646 -47.127273 
L 339.657471 -47.127273 
L 338.580296 -47.127273 
L 337.503122 -47.127273 
L 336.425947 -47.127273 
L 335.348773 -47.127273 
L 334.271598 -47.127273 
L 333.194423 -47.127273 
L 332.117249 -47.127273 
L 331.040074 -47.127273 
L 329.9629 -47.127273 
L 328.885725 -47.127273 
L 327.808551 -47.127273 
L 326.731376 -47.127273 
L 325.654201 -47.127273 
L 324.577027 -47.127273 
L 323.499852 -47.127273 
L 322.422678 -47.127273 
L 321.345503 -47.127273 
L 320.672269 -47.127273 
L 320.268328 -47.127273 
L 319.191154 -47.127273 
L 318.113979 -47.127273 
L 317.036805 -47.127273 
L 315.95963 -47.127273 
L 314.882455 -47.127273 
L 313.805281 -47.127273 
L 312.728106 -47.127273 
L 311.650932 -47.127273 
L 310.573757 -47.127273 
L 309.496583 -47.127273 
L 308.419408 -47.127273 
L 307.342233 -47.127273 
L 306.265059 -47.127273 
L 305.187884 -47.127273 
L 304.11071 -47.127273 
L 303.033535 -47.127273 
L 301.95636 -47.127273 
L 300.879186 -47.127273 
L 299.802011 -47.127273 
L 298.724837 -47.127273 
L 297.647662 -107.150746 
L 296.570487 -118.622714 
L 295.493313 -124.732945 
L 294.416138 -128.948089 
L 293.877551 -130.658886 
L 293.338964 -132.186352 
L 292.261789 -134.829376 
L 291.184615 -137.071423 
L 290.10744 -139.028551 
L 289.030265 -140.77132 
L 287.953091 -142.349399 
L 286.875916 -143.797553 
L 285.798742 -145.139937 
L 284.721567 -146.397478 
L 283.644392 -147.583568 
L 282.567218 -148.710797 
L 281.490043 -149.788761 
L 280.412869 -150.824138 
L 279.335694 -151.824849 
L 278.258519 -152.794808 
L 277.181345 -153.73928 
L 276.10417 -154.662039 
L 275.026996 -155.565355 
L 273.949821 -156.453322 
L 272.872647 -157.326929 
L 271.795472 -158.188942 
L 270.718297 -159.040947 
L 269.641123 -159.883572 
L 268.563948 -160.719232 
L 267.486774 -161.547714 
L 267.082833 -161.856842 
L 266.409599 -162.370619 
L 265.332424 -163.188478 
L 264.25525 -164.001185 
L 263.178075 -164.810216 
L 262.100901 -165.614818 
L 261.023726 -166.415924 
L 259.946551 -167.213481 
L 258.869377 -168.007044 
L 257.792202 -168.797424 
L 256.715028 -169.583659 
L 255.637853 -170.365864 
L 254.560679 -171.143967 
L 253.483504 -171.917747 
L 252.406329 -172.686497 
L 251.329155 -173.449991 
L 250.25198 -174.207798 
L 249.174806 -174.959103 
L 248.097631 -175.703331 
L 247.020456 -176.43967 
L 245.943282 -177.167239 
L 244.866107 -177.885036 
L 243.788933 -178.591708 
L 242.711758 -179.286141 
L 241.634583 -179.966897 
L 240.557409 -180.631731 
L 240.288115 -180.795248 
L 239.480234 -181.279158 
L 238.40306 -181.906897 
L 237.325885 -182.511169 
L 236.248711 -183.090348 
L 235.171536 -183.640102 
L 234.094361 -184.156141 
L 233.017187 -184.632996 
L 231.940012 -185.064816 
L 230.862838 -185.443446 
L 229.785663 -185.759785 
L 228.708488 -186.001543 
L 227.631314 -186.153285 
L 226.554139 -186.340561 
L 225.476965 -186.49289 
L 224.39979 -186.526384 
L 223.322615 -186.411214 
L 222.245441 -186.106348 
L 221.168266 -185.554549 
L 220.091092 -184.673701 
L 219.013917 -183.35149 
L 217.936743 -181.454752 
L 216.859568 -178.833172 
L 215.782393 -175.392826 
L 214.705219 -171.098817 
L 213.628044 -166.036323 
L 213.493397 -165.355656 
L 212.55087 -160.342092 
L 211.473695 -154.174003 
L 210.39652 -147.70454 
L 209.319346 -141.000397 
L 208.242171 -134.204857 
L 207.164997 -127.302884 
L 206.087822 -120.397336 
L 205.010647 -113.403081 
L 203.933473 -106.452168 
L 202.856298 -99.456406 
L 201.779124 -92.474031 
L 200.701949 -85.44941 
L 199.624775 -78.460246 
L 198.5476 -71.456565 
L 197.470425 -64.453999 
L 196.393251 -57.46367 
L 195.316076 -50.448064 
L 194.238902 -47.127273 
L 193.161727 -47.127273 
L 192.084552 -47.127273 
L 191.007378 -47.127273 
L 189.930203 -47.127273 
L 188.853029 -47.127273 
L 187.775854 -47.127273 
L 186.698679 -47.127273 
z
" style="stroke: #ff8c00; stroke-opacity: 0.2"/>
    </defs>
    <g clip-path="url(#pd805d3b60b)">
     <use xlink:href="#m87ed0577a6" x="0" y="360" style="fill: #ff8c00; fill-opacity: 0.2; stroke: #ff8c00; stroke-opacity: 0.2"/>
    </g>
   </g>
   <g id="PathCollection_1">
    <defs>
     <path id="mee0b4b4043" d="M 0 7.071068 
C 1.875269 7.071068 3.673985 6.326016 5 5 
C 6.326016 3.673985 7.071068 1.875269 7.071068 0 
C 7.071068 -1.875269 6.326016 -3.673985 5 -5 
C 3.673985 -6.326016 1.875269 -7.071068 0 -7.071068 
C -1.875269 -7.071068 -3.673985 -6.326016 -5 -5 
C -6.326016 -3.673985 -7.071068 -1.875269 -7.071068 0 
C -7.071068 1.875269 -6.326016 3.673985 -5 5 
C -3.673985 6.326016 -1.875269 7.071068 0 7.071068 
z
" style="stroke: #000000; stroke-opacity: 0.8"/>
    </defs>
    <g clip-path="url(#pd805d3b60b)">
     <use xlink:href="#mee0b4b4043" x="186.698679" y="312.872727" style="fill: #ff8c00; fill-opacity: 0.8; stroke: #000000; stroke-opacity: 0.8"/>
     <use xlink:href="#mee0b4b4043" x="213.493397" y="197.737658" style="fill: #ff8c00; fill-opacity: 0.8; stroke: #000000; stroke-opacity: 0.8"/>
     <use xlink:href="#mee0b4b4043" x="240.288115" y="169.99038" style="fill: #ff8c00; fill-opacity: 0.8; stroke: #000000; stroke-opacity: 0.8"/>
     <use xlink:href="#mee0b4b4043" x="267.082833" y="216.588922" style="fill: #ff8c00; fill-opacity: 0.8; stroke: #000000; stroke-opacity: 0.8"/>
     <use xlink:href="#mee0b4b4043" x="293.877551" y="224.517647" style="fill: #ff8c00; fill-opacity: 0.8; stroke: #000000; stroke-opacity: 0.8"/>
     <use xlink:href="#mee0b4b4043" x="320.672269" y="312.872727" style="fill: #ff8c00; fill-opacity: 0.8; stroke: #000000; stroke-opacity: 0.8"/>
     <use xlink:href="#mee0b4b4043" x="347.466987" y="312.872727" style="fill: #ff8c00; fill-opacity: 0.8; stroke: #000000; stroke-opacity: 0.8"/>
     <use xlink:href="#mee0b4b4043" x="374.261705" y="312.872727" style="fill: #ff8c00; fill-opacity: 0.8; stroke: #000000; stroke-opacity: 0.8"/>
    </g>
   </g>
   <g id="line2d_11">
    <path d="M 186.698679 312.872727 
L 194.238902 312.872727 
L 195.316076 311.58419 
L 209.319346 222.693552 
L 212.55087 203.418073 
L 214.705219 192.337082 
L 215.782393 187.741325 
L 216.859568 183.946458 
L 217.936743 180.956261 
L 219.013917 178.729781 
L 220.091092 177.130982 
L 221.168266 176.031402 
L 222.245441 175.309011 
L 223.322615 174.868626 
L 224.39979 174.642838 
L 225.476965 174.583794 
L 227.631314 174.836254 
L 229.785663 175.442261 
L 231.940012 176.294349 
L 235.171536 177.893499 
L 238.40306 179.756526 
L 242.711758 182.509479 
L 248.097631 186.223265 
L 255.637853 191.713705 
L 264.25525 198.245164 
L 270.718297 203.360293 
L 275.026996 206.983793 
L 278.258519 209.922258 
L 281.490043 213.181711 
L 283.644392 215.615866 
L 285.798742 218.383142 
L 287.953091 221.658334 
L 289.030265 223.578767 
L 290.10744 225.769091 
L 291.184615 228.336427 
L 292.261789 231.455921 
L 293.338964 235.465398 
L 293.877551 238.010235 
L 294.416138 241.138927 
L 295.493313 251.076891 
L 296.570487 311.539709 
L 297.647662 312.872727 
L 401.056423 312.872727 
L 401.056423 312.872727 
" clip-path="url(#pd805d3b60b)" style="fill: none; stroke: #ff8c00; stroke-width: 3; stroke-linecap: square"/>
   </g>
  </g>
  <g id="axes_2">
   <g id="patch_7">
    <path d="M 476.081633 320.4 
L 703.836735 320.4 
L 703.836735 72 
L 476.081633 72 
L 476.081633 320.4 
z
" style="fill: none"/>
   </g>
   <g id="matplotlib.axis_3">
    <g id="xtick_6">
     <g id="line2d_12">
      <g>
       <use xlink:href="#m25a103ac9d" x="482.780312" y="320.4" style="stroke: #000000; stroke-width: 0.8"/>
      </g>
     </g>
     <g id="text_13">
      <!-- 0 -->
      <g transform="translate(472.854812 351.107125) scale(0.312 -0.312)">
       <use xlink:href="#DejaVuSans-30"/>
      </g>
     </g>
    </g>
    <g id="xtick_7">
     <g id="line2d_13">
      <g>
       <use xlink:href="#m25a103ac9d" x="536.369748" y="320.4" style="stroke: #000000; stroke-width: 0.8"/>
      </g>
     </g>
     <g id="text_14">
      <!-- 2 -->
      <g transform="translate(526.444248 351.107125) scale(0.312 -0.312)">
       <use xlink:href="#DejaVuSans-32"/>
      </g>
     </g>
    </g>
    <g id="xtick_8">
     <g id="line2d_14">
      <g>
       <use xlink:href="#m25a103ac9d" x="589.959184" y="320.4" style="stroke: #000000; stroke-width: 0.8"/>
      </g>
     </g>
     <g id="text_15">
      <!-- 4 -->
      <g transform="translate(580.033684 351.107125) scale(0.312 -0.312)">
       <use xlink:href="#DejaVuSans-34"/>
      </g>
     </g>
    </g>
    <g id="xtick_9">
     <g id="line2d_15">
      <g>
       <use xlink:href="#m25a103ac9d" x="643.548619" y="320.4" style="stroke: #000000; stroke-width: 0.8"/>
      </g>
     </g>
     <g id="text_16">
      <!-- 6 -->
      <g transform="translate(633.623119 351.107125) scale(0.312 -0.312)">
       <use xlink:href="#DejaVuSans-36"/>
      </g>
     </g>
    </g>
    <g id="xtick_10">
     <g id="line2d_16">
      <g>
       <use xlink:href="#m25a103ac9d" x="697.138055" y="320.4" style="stroke: #000000; stroke-width: 0.8"/>
      </g>
     </g>
     <g id="text_17">
      <!-- 8 -->
      <g transform="translate(687.212555 351.107125) scale(0.312 -0.312)">
       <use xlink:href="#DejaVuSans-38"/>
      </g>
     </g>
    </g>
    <g id="text_18">
     <!-- Time (d) -->
     <g transform="translate(537.272621 382.415656) scale(0.286 -0.286)">
      <use xlink:href="#ArialMT-54"/>
      <use xlink:href="#ArialMT-69" transform="translate(57.333984 0)"/>
      <use xlink:href="#ArialMT-6d" transform="translate(79.550781 0)"/>
      <use xlink:href="#ArialMT-65" transform="translate(162.851562 0)"/>
      <use xlink:href="#ArialMT-20" transform="translate(218.466797 0)"/>
      <use xlink:href="#ArialMT-28" transform="translate(246.25 0)"/>
      <use xlink:href="#ArialMT-64" transform="translate(279.550781 0)"/>
      <use xlink:href="#ArialMT-29" transform="translate(335.166016 0)"/>
     </g>
    </g>
   </g>
   <g id="matplotlib.axis_4">
    <g id="ytick_6">
     <g id="line2d_17">
      <g>
       <use xlink:href="#m0275d673fb" x="476.081633" y="320.4" style="stroke: #000000; stroke-width: 0.8"/>
      </g>
     </g>
     <g id="text_19">
      <!-- 3 -->
      <g transform="translate(449.230633 332.253562) scale(0.312 -0.312)">
       <defs>
        <path id="DejaVuSans-33" d="M 2597 2516 
Q 3050 2419 3304 2112 
Q 3559 1806 3559 1356 
Q 3559 666 3084 287 
Q 2609 -91 1734 -91 
Q 1441 -91 1130 -33 
Q 819 25 488 141 
L 488 750 
Q 750 597 1062 519 
Q 1375 441 1716 441 
Q 2309 441 2620 675 
Q 2931 909 2931 1356 
Q 2931 1769 2642 2001 
Q 2353 2234 1838 2234 
L 1294 2234 
L 1294 2753 
L 1863 2753 
Q 2328 2753 2575 2939 
Q 2822 3125 2822 3475 
Q 2822 3834 2567 4026 
Q 2313 4219 1838 4219 
Q 1578 4219 1281 4162 
Q 984 4106 628 3988 
L 628 4550 
Q 988 4650 1302 4700 
Q 1616 4750 1894 4750 
Q 2613 4750 3031 4423 
Q 3450 4097 3450 3541 
Q 3450 3153 3228 2886 
Q 3006 2619 2597 2516 
z
" transform="scale(0.015625)"/>
       </defs>
       <use xlink:href="#DejaVuSans-33"/>
      </g>
     </g>
    </g>
    <g id="ytick_7">
     <g id="line2d_18">
      <g>
       <use xlink:href="#m0275d673fb" x="476.081633" y="265.2" style="stroke: #000000; stroke-width: 0.8"/>
      </g>
     </g>
     <g id="text_20">
      <!-- 4 -->
      <g transform="translate(449.230633 277.053562) scale(0.312 -0.312)">
       <use xlink:href="#DejaVuSans-34"/>
      </g>
     </g>
    </g>
    <g id="ytick_8">
     <g id="line2d_19">
      <g>
       <use xlink:href="#m0275d673fb" x="476.081633" y="210" style="stroke: #000000; stroke-width: 0.8"/>
      </g>
     </g>
     <g id="text_21">
      <!-- 5 -->
      <g transform="translate(449.230633 221.853563) scale(0.312 -0.312)">
       <defs>
        <path id="DejaVuSans-35" d="M 691 4666 
L 3169 4666 
L 3169 4134 
L 1269 4134 
L 1269 2991 
Q 1406 3038 1543 3061 
Q 1681 3084 1819 3084 
Q 2600 3084 3056 2656 
Q 3513 2228 3513 1497 
Q 3513 744 3044 326 
Q 2575 -91 1722 -91 
Q 1428 -91 1123 -41 
Q 819 9 494 109 
L 494 744 
Q 775 591 1075 516 
Q 1375 441 1709 441 
Q 2250 441 2565 725 
Q 2881 1009 2881 1497 
Q 2881 1984 2565 2268 
Q 2250 2553 1709 2553 
Q 1456 2553 1204 2497 
Q 953 2441 691 2322 
L 691 4666 
z
" transform="scale(0.015625)"/>
       </defs>
       <use xlink:href="#DejaVuSans-35"/>
      </g>
     </g>
    </g>
    <g id="ytick_9">
     <g id="line2d_20">
      <g>
       <use xlink:href="#m0275d673fb" x="476.081633" y="154.8" style="stroke: #000000; stroke-width: 0.8"/>
      </g>
     </g>
     <g id="text_22">
      <!-- 6 -->
      <g transform="translate(449.230633 166.653563) scale(0.312 -0.312)">
       <use xlink:href="#DejaVuSans-36"/>
      </g>
     </g>
    </g>
    <g id="ytick_10">
     <g id="line2d_21">
      <g>
       <use xlink:href="#m0275d673fb" x="476.081633" y="99.6" style="stroke: #000000; stroke-width: 0.8"/>
      </g>
     </g>
     <g id="text_23">
      <!-- 7 -->
      <g transform="translate(449.230633 111.453563) scale(0.312 -0.312)">
       <defs>
        <path id="DejaVuSans-37" d="M 525 4666 
L 3525 4666 
L 3525 4397 
L 1831 0 
L 1172 0 
L 2766 4134 
L 525 4134 
L 525 4666 
z
" transform="scale(0.015625)"/>
       </defs>
       <use xlink:href="#DejaVuSans-37"/>
      </g>
     </g>
    </g>
    <g id="text_24">
     <!-- Log$_{10}$ CD8$^+$ T cells -->
     <g transform="translate(438.938633 324.042) rotate(-90) scale(0.286 -0.286)">
      <defs>
       <path id="ArialMT-43" d="M 3763 1606 
L 4369 1453 
Q 4178 706 3683 314 
Q 3188 -78 2472 -78 
Q 1731 -78 1267 223 
Q 803 525 561 1097 
Q 319 1669 319 2325 
Q 319 3041 592 3573 
Q 866 4106 1370 4382 
Q 1875 4659 2481 4659 
Q 3169 4659 3637 4309 
Q 4106 3959 4291 3325 
L 3694 3184 
Q 3534 3684 3231 3912 
Q 2928 4141 2469 4141 
Q 1941 4141 1586 3887 
Q 1231 3634 1087 3207 
Q 944 2781 944 2328 
Q 944 1744 1114 1308 
Q 1284 872 1643 656 
Q 2003 441 2422 441 
Q 2931 441 3284 734 
Q 3638 1028 3763 1606 
z
" transform="scale(0.015625)"/>
       <path id="ArialMT-44" d="M 494 0 
L 494 4581 
L 2072 4581 
Q 2606 4581 2888 4516 
Q 3281 4425 3559 4188 
Q 3922 3881 4101 3404 
Q 4281 2928 4281 2316 
Q 4281 1794 4159 1391 
Q 4038 988 3847 723 
Q 3656 459 3429 307 
Q 3203 156 2883 78 
Q 2563 0 2147 0 
L 494 0 
z
M 1100 541 
L 2078 541 
Q 2531 541 2789 625 
Q 3047 709 3200 863 
Q 3416 1078 3536 1442 
Q 3656 1806 3656 2325 
Q 3656 3044 3420 3430 
Q 3184 3816 2847 3947 
Q 2603 4041 2063 4041 
L 1100 4041 
L 1100 541 
z
" transform="scale(0.015625)"/>
       <path id="ArialMT-38" d="M 1131 2484 
Q 781 2613 612 2850 
Q 444 3088 444 3419 
Q 444 3919 803 4259 
Q 1163 4600 1759 4600 
Q 2359 4600 2725 4251 
Q 3091 3903 3091 3403 
Q 3091 3084 2923 2848 
Q 2756 2613 2416 2484 
Q 2838 2347 3058 2040 
Q 3278 1734 3278 1309 
Q 3278 722 2862 322 
Q 2447 -78 1769 -78 
Q 1091 -78 675 323 
Q 259 725 259 1325 
Q 259 1772 486 2073 
Q 713 2375 1131 2484 
z
M 1019 3438 
Q 1019 3113 1228 2906 
Q 1438 2700 1772 2700 
Q 2097 2700 2305 2904 
Q 2513 3109 2513 3406 
Q 2513 3716 2298 3927 
Q 2084 4138 1766 4138 
Q 1444 4138 1231 3931 
Q 1019 3725 1019 3438 
z
M 838 1322 
Q 838 1081 952 856 
Q 1066 631 1291 507 
Q 1516 384 1775 384 
Q 2178 384 2440 643 
Q 2703 903 2703 1303 
Q 2703 1709 2433 1975 
Q 2163 2241 1756 2241 
Q 1359 2241 1098 1978 
Q 838 1716 838 1322 
z
" transform="scale(0.015625)"/>
       <path id="DejaVuSans-2b" d="M 2944 4013 
L 2944 2272 
L 4684 2272 
L 4684 1741 
L 2944 1741 
L 2944 0 
L 2419 0 
L 2419 1741 
L 678 1741 
L 678 2272 
L 2419 2272 
L 2419 4013 
L 2944 4013 
z
" transform="scale(0.015625)"/>
       <path id="ArialMT-6c" d="M 409 0 
L 409 4581 
L 972 4581 
L 972 0 
L 409 0 
z
" transform="scale(0.015625)"/>
      </defs>
      <use xlink:href="#ArialMT-4c" transform="translate(0 0.826562)"/>
      <use xlink:href="#ArialMT-6f" transform="translate(55.615234 0.826562)"/>
      <use xlink:href="#ArialMT-67" transform="translate(111.230469 0.826562)"/>
      <use xlink:href="#DejaVuSans-31" transform="translate(167.802734 -15.579688) scale(0.7)"/>
      <use xlink:href="#DejaVuSans-30" transform="translate(212.338867 -15.579688) scale(0.7)"/>
      <use xlink:href="#ArialMT-20" transform="translate(259.609375 0.826562)"/>
      <use xlink:href="#ArialMT-43" transform="translate(287.392578 0.826562)"/>
      <use xlink:href="#ArialMT-44" transform="translate(359.609375 0.826562)"/>
      <use xlink:href="#ArialMT-38" transform="translate(431.826172 0.826562)"/>
      <use xlink:href="#DejaVuSans-2b" transform="translate(502.036133 39.107812) scale(0.7)"/>
      <use xlink:href="#ArialMT-20" transform="translate(577.060547 0.826562)"/>
      <use xlink:href="#ArialMT-54" transform="translate(604.84375 0.826562)"/>
      <use xlink:href="#ArialMT-20" transform="translate(665.927734 0.826562)"/>
      <use xlink:href="#ArialMT-63" transform="translate(693.710938 0.826562)"/>
      <use xlink:href="#ArialMT-65" transform="translate(743.710938 0.826562)"/>
      <use xlink:href="#ArialMT-6c" transform="translate(799.326172 0.826562)"/>
      <use xlink:href="#ArialMT-6c" transform="translate(821.542969 0.826562)"/>
      <use xlink:href="#ArialMT-73" transform="translate(843.759766 0.826562)"/>
     </g>
    </g>
   </g>
   <g id="patch_8">
    <path d="M 476.081633 320.4 
L 476.081633 72 
" style="fill: none; stroke: #000000; stroke-width: 3; stroke-linejoin: miter; stroke-linecap: square"/>
   </g>
   <g id="patch_9">
    <path d="M 703.836735 320.4 
L 703.836735 72 
" style="fill: none; stroke: #000000; stroke-width: 3; stroke-linejoin: miter; stroke-linecap: square"/>
   </g>
   <g id="patch_10">
    <path d="M 476.081633 320.4 
L 703.836735 320.4 
" style="fill: none; stroke: #000000; stroke-width: 3; stroke-linejoin: miter; stroke-linecap: square"/>
   </g>
   <g id="patch_11">
    <path d="M 476.081633 72 
L 703.836735 72 
" style="fill: none; stroke: #000000; stroke-width: 3; stroke-linejoin: miter; stroke-linecap: square"/>
   </g>
   <g id="FillBetweenPolyCollection_2">
    <defs>
     <path id="m348aa17b42" d="M 482.780312 -156.317235 
L 482.780312 -156.317235 
L 483.857487 -156.317235 
L 484.934661 -156.317235 
L 486.011836 -156.317235 
L 487.08901 -156.317235 
L 488.166185 -156.317235 
L 489.24336 -156.317235 
L 490.320534 -156.317235 
L 491.397709 -156.317235 
L 492.474883 -156.317235 
L 493.552058 -156.317235 
L 494.629233 -156.317235 
L 495.706407 -156.317235 
L 496.783582 -156.317235 
L 497.860756 -156.317235 
L 498.937931 -156.317235 
L 500.015106 -156.317235 
L 501.09228 -156.317235 
L 502.169455 -156.317235 
L 503.246629 -156.317235 
L 504.323804 -156.317235 
L 505.400978 -156.317235 
L 506.478153 -156.317235 
L 507.555328 -156.317235 
L 508.632502 -156.317235 
L 509.57503 -156.317235 
L 509.709677 -156.317235 
L 510.786851 -156.317236 
L 511.864026 -156.317236 
L 512.941201 -156.317237 
L 514.018375 -156.317238 
L 515.09555 -156.317241 
L 516.172724 -156.317245 
L 517.249899 -156.317252 
L 518.327074 -156.317263 
L 519.404248 -156.317281 
L 520.481423 -156.317311 
L 521.558597 -156.317359 
L 522.635772 -156.317438 
L 523.712946 -156.317566 
L 524.790121 -156.317769 
L 525.867296 -156.318093 
L 526.94447 -156.3186 
L 528.021645 -156.319393 
L 529.098819 -156.320613 
L 530.175994 -156.322476 
L 531.253169 -156.325266 
L 532.330343 -156.329412 
L 533.407518 -156.335471 
L 534.484692 -156.344283 
L 535.561867 -156.356675 
L 536.369748 -156.369252 
L 536.639042 -156.37423 
L 537.716216 -156.398492 
L 538.793391 -156.431341 
L 539.870565 -156.475859 
L 540.94774 -156.535081 
L 542.024914 -156.61229 
L 543.102089 -156.712513 
L 544.179264 -156.841463 
L 545.256438 -157.003527 
L 546.333613 -157.206106 
L 547.410787 -157.457788 
L 548.487962 -157.763777 
L 549.565137 -158.133115 
L 550.642311 -158.575648 
L 551.719486 -159.099115 
L 552.79666 -159.706655 
L 553.873835 -160.410173 
L 554.95101 -161.209914 
L 556.028184 -162.11156 
L 557.105359 -163.117911 
L 558.182533 -164.224291 
L 559.259708 -165.434264 
L 560.336882 -166.738667 
L 561.414057 -168.133839 
L 562.491232 -169.612892 
L 563.164466 -170.573896 
L 563.568406 -171.163811 
L 564.645581 -172.781376 
L 565.722755 -174.452053 
L 566.79993 -176.167068 
L 567.877105 -177.916469 
L 568.954279 -179.689867 
L 570.031454 -181.479096 
L 571.108628 -183.274521 
L 572.185803 -185.06936 
L 573.262978 -186.855745 
L 574.340152 -188.627735 
L 575.417327 -190.379974 
L 576.494501 -192.10752 
L 577.571676 -193.806349 
L 578.64885 -195.473319 
L 579.726025 -197.104907 
L 580.8032 -198.699564 
L 581.880374 -200.25476 
L 582.957549 -201.769073 
L 584.034723 -203.242023 
L 585.111898 -204.671565 
L 586.189073 -206.058339 
L 587.266247 -207.401114 
L 588.343422 -208.699871 
L 589.420596 -209.955339 
L 589.959184 -210.56633 
L 590.497771 -211.166385 
L 591.574946 -212.334563 
L 592.65212 -213.460102 
L 593.729295 -214.542942 
L 594.806469 -215.583592 
L 595.883644 -216.5826 
L 596.960818 -217.540583 
L 598.037993 -218.458197 
L 599.115168 -219.336074 
L 600.192342 -220.174385 
L 601.269517 -220.97458 
L 602.346691 -221.737796 
L 603.423866 -222.464131 
L 604.501041 -223.154158 
L 605.578215 -223.809384 
L 606.65539 -224.430238 
L 607.732564 -225.017409 
L 608.809739 -225.571429 
L 609.886914 -226.093563 
L 610.964088 -226.584256 
L 612.041263 -227.044366 
L 613.118437 -227.474429 
L 614.195612 -227.875293 
L 615.272787 -228.247769 
L 616.349961 -228.592358 
L 616.753902 -228.714572 
L 617.427136 -228.890594 
L 618.50431 -229.087864 
L 619.581485 -229.260094 
L 620.658659 -229.407895 
L 621.735834 -229.531911 
L 622.813009 -229.632801 
L 623.890183 -229.711063 
L 624.967358 -229.767449 
L 626.044532 -229.802416 
L 627.121707 -229.816572 
L 628.198882 -229.810568 
L 629.276056 -229.784761 
L 630.353231 -229.739943 
L 631.430405 -229.67645 
L 632.50758 -229.594866 
L 633.584755 -229.495804 
L 634.661929 -229.379524 
L 635.739104 -229.246826 
L 636.816278 -229.097952 
L 637.893453 -228.933464 
L 638.970627 -228.753922 
L 640.047802 -228.559526 
L 641.124977 -228.351055 
L 642.202151 -228.12868 
L 643.279326 -227.892945 
L 643.548619 -227.832 
L 644.3565 -227.644346 
L 645.433675 -227.383052 
L 646.51085 -227.109794 
L 647.588024 -226.8247 
L 648.665199 -226.528289 
L 649.742373 -226.220993 
L 650.819548 -225.902965 
L 651.896723 -225.574877 
L 652.973897 -225.236829 
L 654.051072 -224.889308 
L 655.128246 -224.532689 
L 656.205421 -224.16712 
L 657.282595 -223.7932 
L 658.35977 -223.41102 
L 659.436945 -223.021028 
L 660.514119 -222.622194 
L 661.591294 -222.198847 
L 662.668468 -221.768344 
L 663.745643 -221.33118 
L 664.822818 -220.88744 
L 665.899992 -220.437565 
L 666.977167 -219.98178 
L 668.054341 -219.520284 
L 669.131516 -219.053494 
L 670.208691 -218.581509 
L 670.343337 -218.522165 
L 671.285865 -218.104711 
L 672.36304 -217.623299 
L 673.440214 -217.13747 
L 674.517389 -216.647567 
L 675.594563 -216.153708 
L 676.671738 -215.656211 
L 677.748913 -215.155258 
L 678.826087 -214.651042 
L 679.903262 -214.143836 
L 680.980436 -213.633779 
L 682.057611 -213.121125 
L 683.134786 -212.606049 
L 684.21196 -212.088729 
L 685.289135 -211.569384 
L 686.366309 -211.048167 
L 687.443484 -210.525275 
L 688.520659 -210.000875 
L 689.597833 -209.475135 
L 690.675008 -208.948222 
L 691.752182 -208.420303 
L 692.829357 -207.891523 
L 693.906531 -207.362045 
L 694.983706 -206.832022 
L 696.060881 -206.30158 
L 697.138055 -205.770902 
L 697.138055 -213.783753 
L 697.138055 -213.783753 
L 696.060881 -214.224712 
L 694.983706 -214.664594 
L 693.906531 -215.103273 
L 692.829357 -215.540649 
L 691.752182 -215.976573 
L 690.675008 -216.41093 
L 689.597833 -216.843595 
L 688.520659 -217.274401 
L 687.443484 -217.703251 
L 686.366309 -218.129949 
L 685.289135 -218.554374 
L 684.21196 -218.97638 
L 683.134786 -219.395757 
L 682.057611 -219.812413 
L 680.980436 -220.226099 
L 679.903262 -220.636685 
L 678.826087 -221.044001 
L 677.748913 -221.447794 
L 676.671738 -221.847974 
L 675.594563 -222.244231 
L 674.517389 -222.636432 
L 673.440214 -223.024374 
L 672.36304 -223.407759 
L 671.285865 -223.786499 
L 670.343337 -224.129586 
L 670.208691 -224.178373 
L 669.131516 -224.565827 
L 668.054341 -224.947892 
L 666.977167 -225.324337 
L 665.899992 -225.695008 
L 664.822818 -226.059463 
L 663.745643 -226.417624 
L 662.668468 -226.769073 
L 661.591294 -227.113562 
L 660.514119 -227.450911 
L 659.436945 -227.780617 
L 658.35977 -228.102602 
L 657.282595 -228.416378 
L 656.205421 -228.721681 
L 655.128246 -229.018299 
L 654.051072 -229.305668 
L 652.973897 -229.583706 
L 651.896723 -229.851854 
L 650.819548 -230.109831 
L 649.742373 -230.357383 
L 648.665199 -230.593896 
L 647.588024 -230.819268 
L 646.51085 -231.032876 
L 645.433675 -231.234416 
L 644.3565 -231.423586 
L 643.548619 -231.556921 
L 643.279326 -231.599728 
L 642.202151 -231.762705 
L 641.124977 -231.911838 
L 640.047802 -232.046796 
L 638.970627 -232.167214 
L 637.893453 -232.272407 
L 636.816278 -232.362177 
L 635.739104 -232.43581 
L 634.661929 -232.492928 
L 633.584755 -232.533097 
L 632.50758 -232.555622 
L 631.430405 -232.560211 
L 630.353231 -232.54614 
L 629.276056 -232.512964 
L 628.198882 -232.460173 
L 627.121707 -232.387079 
L 626.044532 -232.29326 
L 624.967358 -232.178013 
L 623.890183 -232.040798 
L 622.813009 -231.881028 
L 621.735834 -231.698038 
L 620.658659 -231.491235 
L 619.581485 -231.259978 
L 618.50431 -231.003595 
L 617.427136 -230.72143 
L 616.753902 -230.531716 
L 616.349961 -230.412854 
L 615.272787 -230.077061 
L 614.195612 -229.713524 
L 613.118437 -229.321398 
L 612.041263 -228.899971 
L 610.964088 -228.448668 
L 609.886914 -227.966433 
L 608.809739 -227.452909 
L 607.732564 -226.907038 
L 606.65539 -226.32809 
L 605.578215 -225.715554 
L 604.501041 -225.068092 
L 603.423866 -224.414632 
L 602.346691 -223.759369 
L 601.269517 -223.10381 
L 600.192342 -222.410664 
L 599.115168 -221.679415 
L 598.037993 -220.909255 
L 596.960818 -220.099246 
L 595.883644 -219.248952 
L 594.806469 -218.35694 
L 593.729295 -217.422838 
L 592.65212 -216.445863 
L 591.574946 -215.425364 
L 590.497771 -214.360677 
L 589.959184 -213.811607 
L 589.420596 -213.251303 
L 588.343422 -212.096857 
L 587.266247 -210.897735 
L 586.189073 -209.652387 
L 585.111898 -208.360606 
L 584.034723 -207.023089 
L 582.957549 -205.638546 
L 581.880374 -204.20869 
L 580.8032 -202.733034 
L 579.726025 -201.212404 
L 578.64885 -199.648514 
L 577.571676 -198.041624 
L 576.494501 -196.394679 
L 575.417327 -194.709229 
L 574.340152 -192.988114 
L 573.262978 -191.235049 
L 572.185803 -189.45363 
L 571.108628 -187.64878 
L 570.031454 -185.82612 
L 568.954279 -183.99197 
L 567.877105 -182.153662 
L 566.79993 -180.31879 
L 565.722755 -178.496017 
L 564.645581 -176.696811 
L 563.568406 -174.93022 
L 563.164466 -174.278616 
L 562.491232 -173.206662 
L 561.414057 -171.535824 
L 560.336882 -169.932499 
L 559.259708 -168.404066 
L 558.182533 -166.961909 
L 557.105359 -165.610112 
L 556.028184 -164.36036 
L 554.95101 -163.216532 
L 553.873835 -162.18099 
L 552.79666 -161.252004 
L 551.719486 -160.438112 
L 550.642311 -159.72228 
L 549.565137 -159.102955 
L 548.487962 -158.574473 
L 547.410787 -158.127141 
L 546.333613 -157.75266 
L 545.256438 -157.44198 
L 544.179264 -157.190601 
L 543.102089 -156.987844 
L 542.024914 -156.825756 
L 540.94774 -156.697327 
L 539.870565 -156.598861 
L 538.793391 -156.523478 
L 537.716216 -156.465847 
L 536.639042 -156.42287 
L 536.369748 -156.414144 
L 535.561867 -156.39162 
L 534.484692 -156.368792 
L 533.407518 -156.352367 
L 532.330343 -156.340968 
L 531.253169 -156.332978 
L 530.175994 -156.327536 
L 529.098819 -156.3239 
L 528.021645 -156.321476 
L 526.94447 -156.319907 
L 525.867296 -156.318898 
L 524.790121 -156.318257 
L 523.712946 -156.317859 
L 522.635772 -156.317613 
L 521.558597 -156.317462 
L 520.481423 -156.31737 
L 519.404248 -156.317315 
L 518.327074 -156.317282 
L 517.249899 -156.317263 
L 516.172724 -156.317251 
L 515.09555 -156.317244 
L 514.018375 -156.31724 
L 512.941201 -156.317238 
L 511.864026 -156.317237 
L 510.786851 -156.317236 
L 509.709677 -156.317236 
L 509.57503 -156.317235 
L 508.632502 -156.317235 
L 507.555328 -156.317235 
L 506.478153 -156.317235 
L 505.400978 -156.317235 
L 504.323804 -156.317235 
L 503.246629 -156.317235 
L 502.169455 -156.317235 
L 501.09228 -156.317235 
L 500.015106 -156.317235 
L 498.937931 -156.317235 
L 497.860756 -156.317235 
L 496.783582 -156.317235 
L 495.706407 -156.317235 
L 494.629233 -156.317235 
L 493.552058 -156.317235 
L 492.474883 -156.317235 
L 491.397709 -156.317235 
L 490.320534 -156.317235 
L 489.24336 -156.317235 
L 488.166185 -156.317235 
L 487.08901 -156.317235 
L 486.011836 -156.317235 
L 484.934661 -156.317235 
L 483.857487 -156.317235 
L 482.780312 -156.317235 
z
" style="stroke: #ff8c00; stroke-opacity: 0.2"/>
    </defs>
    <g clip-path="url(#pd0d716cd57)">
     <use xlink:href="#m348aa17b42" x="0" y="360" style="fill: #ff8c00; fill-opacity: 0.2; stroke: #ff8c00; stroke-opacity: 0.2"/>
    </g>
   </g>
   <g id="FillBetweenPolyCollection_3">
    <defs>
     <path id="mdfdd6bf15f" d="M 482.780312 -57.340799 
L 482.780312 -57.340799 
L 483.857487 -57.340799 
L 484.934661 -57.340799 
L 486.011836 -57.340799 
L 487.08901 -57.340799 
L 488.166185 -57.340799 
L 489.24336 -57.340799 
L 490.320534 -57.340799 
L 491.397709 -57.340799 
L 492.474883 -57.340799 
L 493.552058 -57.340799 
L 494.629233 -57.340799 
L 495.706407 -57.340799 
L 496.783582 -57.340799 
L 497.860756 -57.340799 
L 498.937931 -57.340799 
L 500.015106 -57.340799 
L 501.09228 -57.340799 
L 502.169455 -57.340799 
L 503.246629 -57.340799 
L 504.323804 -57.340799 
L 505.400978 -57.340799 
L 506.478153 -57.340799 
L 507.555328 -57.340799 
L 508.632502 -57.340799 
L 509.57503 -57.340799 
L 509.709677 -57.340799 
L 510.786851 -57.340799 
L 511.864026 -57.340799 
L 512.941201 -57.340799 
L 514.018375 -57.340799 
L 515.09555 -57.340799 
L 516.172724 -57.340799 
L 517.249899 -57.340799 
L 518.327074 -57.340799 
L 519.404248 -57.340799 
L 520.481423 -57.340799 
L 521.558597 -57.340799 
L 522.635772 -57.340799 
L 523.712946 -57.340799 
L 524.790121 -57.340799 
L 525.867296 -57.340799 
L 526.94447 -57.340799 
L 528.021645 -57.340799 
L 529.098819 -57.340799 
L 530.175994 -57.340799 
L 531.253169 -57.340799 
L 532.330343 -57.340799 
L 533.407518 -57.340799 
L 534.484692 -57.340799 
L 535.561867 -57.340799 
L 536.369748 -57.340799 
L 536.639042 -57.340799 
L 537.716216 -57.340799 
L 538.793391 -57.340799 
L 539.870565 -57.340799 
L 540.94774 -57.340799 
L 542.024914 -57.340799 
L 543.102089 -57.340799 
L 544.179264 -57.340799 
L 545.256438 -57.340799 
L 546.333613 -57.340799 
L 547.410787 -57.340799 
L 548.487962 -57.340799 
L 549.565137 -57.340799 
L 550.642311 -57.3408 
L 551.719486 -57.340801 
L 552.79666 -57.340802 
L 553.873835 -57.340804 
L 554.95101 -57.340808 
L 556.028184 -57.340813 
L 557.105359 -57.340822 
L 558.182533 -57.340835 
L 559.259708 -57.340855 
L 560.336882 -57.340884 
L 561.414057 -57.340928 
L 562.491232 -57.340993 
L 563.164466 -57.341046 
L 563.568406 -57.341085 
L 564.645581 -57.341222 
L 565.722755 -57.341411 
L 566.79993 -57.341668 
L 567.877105 -57.342024 
L 568.954279 -57.342518 
L 570.031454 -57.343176 
L 571.108628 -57.34403 
L 572.185803 -57.345193 
L 573.262978 -57.34671 
L 574.340152 -57.348686 
L 575.417327 -57.351206 
L 576.494501 -57.354433 
L 577.571676 -57.358511 
L 578.64885 -57.363539 
L 579.726025 -57.369795 
L 580.8032 -57.377441 
L 581.880374 -57.386776 
L 582.957549 -57.398083 
L 584.034723 -57.411614 
L 585.111898 -57.427824 
L 586.189073 -57.446979 
L 587.266247 -57.46957 
L 588.343422 -57.496039 
L 589.420596 -57.526782 
L 589.959184 -57.543977 
L 590.497771 -57.562456 
L 591.574946 -57.603441 
L 592.65212 -57.650309 
L 593.729295 -57.703474 
L 594.806469 -57.763842 
L 595.883644 -57.831972 
L 596.960818 -57.908496 
L 598.037993 -57.994096 
L 599.115168 -58.089175 
L 600.192342 -58.194921 
L 601.269517 -58.311538 
L 602.346691 -58.439452 
L 603.423866 -58.579366 
L 604.501041 -58.731993 
L 605.578215 -58.89737 
L 606.65539 -59.075902 
L 607.732564 -59.268486 
L 608.809739 -59.475173 
L 609.886914 -59.696136 
L 610.964088 -59.93156 
L 612.041263 -60.181489 
L 613.118437 -60.446062 
L 614.195612 -60.72514 
L 615.272787 -61.018541 
L 616.349961 -61.326154 
L 616.753902 -61.445095 
L 617.427136 -61.647597 
L 618.50431 -61.982593 
L 619.581485 -62.330694 
L 620.658659 -62.691398 
L 621.735834 -63.064205 
L 622.813009 -63.448502 
L 623.890183 -63.843651 
L 624.967358 -64.248988 
L 626.044532 -64.663827 
L 627.121707 -65.087395 
L 628.198882 -65.518946 
L 629.276056 -65.957661 
L 630.353231 -66.402892 
L 631.430405 -66.853847 
L 632.50758 -67.30954 
L 633.584755 -67.769393 
L 634.661929 -68.232618 
L 635.739104 -68.698466 
L 636.816278 -69.166237 
L 637.893453 -69.635233 
L 638.970627 -70.104847 
L 640.047802 -70.574458 
L 641.124977 -71.043366 
L 642.202151 -71.510994 
L 643.279326 -71.97684 
L 643.548619 -72.092951 
L 644.3565 -72.44031 
L 645.433675 -72.901011 
L 646.51085 -73.358432 
L 647.588024 -73.81216 
L 648.665199 -74.261857 
L 649.742373 -74.707085 
L 650.819548 -75.147609 
L 651.896723 -75.583074 
L 652.973897 -76.013216 
L 654.051072 -76.43784 
L 655.128246 -76.856654 
L 656.205421 -77.269551 
L 657.282595 -77.676309 
L 658.35977 -78.076792 
L 659.436945 -78.470912 
L 660.514119 -78.858502 
L 661.591294 -79.239546 
L 662.668468 -79.613932 
L 663.745643 -79.981615 
L 664.822818 -80.342588 
L 665.899992 -80.696777 
L 666.977167 -81.044232 
L 668.054341 -81.384916 
L 669.131516 -81.718853 
L 670.208691 -82.046088 
L 670.343337 -82.08652 
L 671.285865 -82.366617 
L 672.36304 -82.680526 
L 673.440214 -82.987835 
L 674.517389 -83.288611 
L 675.594563 -83.582931 
L 676.671738 -83.870837 
L 677.748913 -84.152437 
L 678.826087 -84.427788 
L 679.903262 -84.69698 
L 680.980436 -84.96011 
L 682.057611 -85.21725 
L 683.134786 -85.468513 
L 684.21196 -85.713982 
L 685.289135 -85.953758 
L 686.366309 -86.187944 
L 687.443484 -86.416631 
L 688.520659 -86.639931 
L 689.597833 -86.85794 
L 690.675008 -87.07076 
L 691.752182 -87.278498 
L 692.829357 -87.48125 
L 693.906531 -87.679125 
L 694.983706 -87.872221 
L 696.060881 -88.06064 
L 697.138055 -88.244486 
L 697.138055 -94.054441 
L 697.138055 -94.054441 
L 696.060881 -93.890111 
L 694.983706 -93.721066 
L 693.906531 -93.547167 
L 692.829357 -93.368298 
L 691.752182 -93.184329 
L 690.675008 -92.995123 
L 689.597833 -92.800557 
L 688.520659 -92.60049 
L 687.443484 -92.394787 
L 686.366309 -92.183313 
L 685.289135 -91.965929 
L 684.21196 -91.74249 
L 683.134786 -91.512866 
L 682.057611 -91.276903 
L 680.980436 -91.034466 
L 679.903262 -90.785418 
L 678.826087 -90.529593 
L 677.748913 -90.266887 
L 676.671738 -89.997121 
L 675.594563 -89.720177 
L 674.517389 -89.435924 
L 673.440214 -89.144178 
L 672.36304 -88.844878 
L 671.285865 -88.537822 
L 670.343337 -88.262715 
L 670.208691 -88.222923 
L 669.131516 -87.900067 
L 668.054341 -87.569061 
L 666.977167 -87.229908 
L 665.899992 -86.882386 
L 664.822818 -86.526466 
L 663.745643 -86.162063 
L 662.668468 -85.78899 
L 661.591294 -85.407339 
L 660.514119 -85.016882 
L 659.436945 -84.617679 
L 658.35977 -84.209691 
L 657.282595 -83.792761 
L 656.205421 -83.367107 
L 655.128246 -82.932513 
L 654.051072 -82.489168 
L 652.973897 -82.037107 
L 651.896723 -81.576238 
L 650.819548 -81.106944 
L 649.742373 -80.629055 
L 648.665199 -80.147224 
L 647.588024 -79.658328 
L 646.51085 -79.161677 
L 645.433675 -78.657182 
L 644.3565 -78.145448 
L 643.548619 -77.756971 
L 643.279326 -77.626579 
L 642.202151 -77.100891 
L 641.124977 -76.569004 
L 640.047802 -76.030987 
L 638.970627 -75.487687 
L 637.893453 -74.939387 
L 636.816278 -74.386636 
L 635.739104 -73.830276 
L 634.661929 -73.270602 
L 633.584755 -72.7087 
L 632.50758 -72.145082 
L 631.430405 -71.580557 
L 630.353231 -71.016168 
L 629.276056 -70.452488 
L 628.198882 -69.890778 
L 627.121707 -69.331799 
L 626.044532 -68.776578 
L 624.967358 -68.226304 
L 623.890183 -67.681822 
L 622.813009 -67.144372 
L 621.735834 -66.61493 
L 620.658659 -66.094573 
L 619.581485 -65.58442 
L 618.50431 -65.085464 
L 617.427136 -64.598772 
L 616.753902 -64.301267 
L 616.349961 -64.125356 
L 615.272787 -63.666108 
L 614.195612 -63.221926 
L 613.118437 -62.793739 
L 612.041263 -62.381955 
L 610.964088 -61.987524 
L 609.886914 -61.610795 
L 608.809739 -61.252119 
L 607.732564 -60.91222 
L 606.65539 -60.590691 
L 605.578215 -60.288204 
L 604.501041 -60.004422 
L 603.423866 -59.739111 
L 602.346691 -59.492603 
L 601.269517 -59.263709 
L 600.192342 -59.052756 
L 599.115168 -58.858792 
L 598.037993 -58.681093 
L 596.960818 -58.519318 
L 595.883644 -58.372355 
L 594.806469 -58.239779 
L 593.729295 -58.120558 
L 592.65212 -58.013815 
L 591.574946 -57.919223 
L 590.497771 -57.83524 
L 589.959184 -57.797158 
L 589.420596 -57.761367 
L 588.343422 -57.696406 
L 587.266247 -57.639722 
L 586.189073 -57.590637 
L 585.111898 -57.548316 
L 584.034723 -57.512164 
L 582.957549 -57.481804 
L 581.880374 -57.455857 
L 580.8032 -57.434001 
L 579.726025 -57.41577 
L 578.64885 -57.400525 
L 577.571676 -57.38805 
L 576.494501 -57.377868 
L 575.417327 -57.36964 
L 574.340152 -57.363018 
L 573.262978 -57.357777 
L 572.185803 -57.353768 
L 571.108628 -57.350553 
L 570.031454 -57.348039 
L 568.954279 -57.34612 
L 567.877105 -57.34468 
L 566.79993 -57.343602 
L 565.722755 -57.342782 
L 564.645581 -57.342189 
L 563.568406 -57.341762 
L 563.164466 -57.341637 
L 562.491232 -57.341459 
L 561.414057 -57.341244 
L 560.336882 -57.341101 
L 559.259708 -57.341 
L 558.182533 -57.34093 
L 557.105359 -57.340883 
L 556.028184 -57.340853 
L 554.95101 -57.340833 
L 553.873835 -57.34082 
L 552.79666 -57.340812 
L 551.719486 -57.340807 
L 550.642311 -57.340804 
L 549.565137 -57.340802 
L 548.487962 -57.3408 
L 547.410787 -57.3408 
L 546.333613 -57.340799 
L 545.256438 -57.340799 
L 544.179264 -57.340799 
L 543.102089 -57.340799 
L 542.024914 -57.340799 
L 540.94774 -57.340799 
L 539.870565 -57.340799 
L 538.793391 -57.340799 
L 537.716216 -57.340799 
L 536.639042 -57.340799 
L 536.369748 -57.340799 
L 535.561867 -57.340799 
L 534.484692 -57.340799 
L 533.407518 -57.340799 
L 532.330343 -57.340799 
L 531.253169 -57.340799 
L 530.175994 -57.340799 
L 529.098819 -57.340799 
L 528.021645 -57.340799 
L 526.94447 -57.340799 
L 525.867296 -57.340799 
L 524.790121 -57.340799 
L 523.712946 -57.340799 
L 522.635772 -57.340799 
L 521.558597 -57.340799 
L 520.481423 -57.340799 
L 519.404248 -57.340799 
L 518.327074 -57.340799 
L 517.249899 -57.340799 
L 516.172724 -57.340799 
L 515.09555 -57.340799 
L 514.018375 -57.340799 
L 512.941201 -57.340799 
L 511.864026 -57.340799 
L 510.786851 -57.340799 
L 509.709677 -57.340799 
L 509.57503 -57.340799 
L 508.632502 -57.340799 
L 507.555328 -57.340799 
L 506.478153 -57.340799 
L 505.400978 -57.340799 
L 504.323804 -57.340799 
L 503.246629 -57.340799 
L 502.169455 -57.340799 
L 501.09228 -57.340799 
L 500.015106 -57.340799 
L 498.937931 -57.340799 
L 497.860756 -57.340799 
L 496.783582 -57.340799 
L 495.706407 -57.340799 
L 494.629233 -57.340799 
L 493.552058 -57.340799 
L 492.474883 -57.340799 
L 491.397709 -57.340799 
L 490.320534 -57.340799 
L 489.24336 -57.340799 
L 488.166185 -57.340799 
L 487.08901 -57.340799 
L 486.011836 -57.340799 
L 484.934661 -57.340799 
L 483.857487 -57.340799 
L 482.780312 -57.340799 
z
" style="stroke: #ff8c00; stroke-opacity: 0.2"/>
    </defs>
    <g clip-path="url(#pd0d716cd57)">
     <use xlink:href="#mdfdd6bf15f" x="0" y="360" style="fill: #ff8c00; fill-opacity: 0.2; stroke: #ff8c00; stroke-opacity: 0.2"/>
    </g>
   </g>
   <g id="PathCollection_2">
    <g clip-path="url(#pd0d716cd57)">
     <use xlink:href="#mee0b4b4043" x="482.780312" y="203.682765" style="fill: #ff8c00; fill-opacity: 0.8; stroke: #000000; stroke-opacity: 0.8"/>
     <use xlink:href="#mee0b4b4043" x="509.57503" y="193.345902" style="fill: #ff8c00; fill-opacity: 0.8; stroke: #000000; stroke-opacity: 0.8"/>
     <use xlink:href="#mee0b4b4043" x="536.369748" y="190.162294" style="fill: #ff8c00; fill-opacity: 0.8; stroke: #000000; stroke-opacity: 0.8"/>
     <use xlink:href="#mee0b4b4043" x="563.164466" y="169.771935" style="fill: #ff8c00; fill-opacity: 0.8; stroke: #000000; stroke-opacity: 0.8"/>
     <use xlink:href="#mee0b4b4043" x="589.959184" y="158.253018" style="fill: #ff8c00; fill-opacity: 0.8; stroke: #000000; stroke-opacity: 0.8"/>
     <use xlink:href="#mee0b4b4043" x="616.753902" y="143.050209" style="fill: #ff8c00; fill-opacity: 0.8; stroke: #000000; stroke-opacity: 0.8"/>
     <use xlink:href="#mee0b4b4043" x="643.548619" y="124.034463" style="fill: #ff8c00; fill-opacity: 0.8; stroke: #000000; stroke-opacity: 0.8"/>
     <use xlink:href="#mee0b4b4043" x="670.343337" y="123.765668" style="fill: #ff8c00; fill-opacity: 0.8; stroke: #000000; stroke-opacity: 0.8"/>
    </g>
   </g>
   <g id="PathCollection_3">
    <defs>
     <path id="m4d25e5cda1" d="M -7.071068 7.071068 
L 7.071068 7.071068 
L 7.071068 -7.071068 
L -7.071068 -7.071068 
z
" style="stroke: #000000; stroke-opacity: 0.8"/>
    </defs>
    <g clip-path="url(#pd0d716cd57)">
     <use xlink:href="#m4d25e5cda1" x="482.780312" y="302.647827" style="fill: #ff8c00; fill-opacity: 0.8; stroke: #000000; stroke-opacity: 0.8"/>
     <use xlink:href="#m4d25e5cda1" x="509.57503" y="298.778568" style="fill: #ff8c00; fill-opacity: 0.8; stroke: #000000; stroke-opacity: 0.8"/>
     <use xlink:href="#m4d25e5cda1" x="536.369748" y="297.775829" style="fill: #ff8c00; fill-opacity: 0.8; stroke: #000000; stroke-opacity: 0.8"/>
     <use xlink:href="#m4d25e5cda1" x="563.164466" y="301.541693" style="fill: #ff8c00; fill-opacity: 0.8; stroke: #000000; stroke-opacity: 0.8"/>
     <use xlink:href="#m4d25e5cda1" x="589.959184" y="294.289576" style="fill: #ff8c00; fill-opacity: 0.8; stroke: #000000; stroke-opacity: 0.8"/>
     <use xlink:href="#m4d25e5cda1" x="616.753902" y="292.428704" style="fill: #ff8c00; fill-opacity: 0.8; stroke: #000000; stroke-opacity: 0.8"/>
     <use xlink:href="#m4d25e5cda1" x="643.548619" y="286.20868" style="fill: #ff8c00; fill-opacity: 0.8; stroke: #000000; stroke-opacity: 0.8"/>
     <use xlink:href="#m4d25e5cda1" x="670.343337" y="279.59195" style="fill: #ff8c00; fill-opacity: 0.8; stroke: #000000; stroke-opacity: 0.8"/>
    </g>
   </g>
   <g id="line2d_22">
    <path d="M 482.780312 203.682765 
L 536.639042 203.597208 
L 540.94774 203.36762 
L 544.179264 202.946057 
L 546.333613 202.45893 
L 548.487962 201.733638 
L 550.642311 200.707354 
L 552.79666 199.315446 
L 554.95101 197.517059 
L 557.105359 195.298526 
L 559.259708 192.675501 
L 561.414057 189.694203 
L 564.645581 184.706537 
L 570.031454 175.701712 
L 575.417327 166.801323 
L 579.726025 160.164873 
L 582.957549 155.596873 
L 586.189073 151.42284 
L 589.420596 147.650532 
L 592.65212 144.273114 
L 595.883644 141.27787 
L 599.115168 138.64896 
L 602.346691 136.365202 
L 605.578215 134.406067 
L 608.809739 132.750012 
L 612.041263 131.376299 
L 615.272787 130.264972 
L 618.50431 129.396992 
L 621.735834 128.754234 
L 624.967358 128.319429 
L 628.198882 128.076281 
L 631.430405 128.009438 
L 635.739104 128.169548 
L 640.047802 128.585238 
L 644.3565 129.226713 
L 648.665199 130.066953 
L 654.051072 131.358481 
L 659.436945 132.876946 
L 665.899992 134.943216 
L 673.440214 137.615843 
L 682.057611 140.918553 
L 693.906531 145.725132 
L 697.138055 147.066588 
L 697.138055 147.066588 
" clip-path="url(#pd0d716cd57)" style="fill: none; stroke: #ff8c00; stroke-width: 3; stroke-linecap: square"/>
   </g>
   <g id="line2d_23">
    <path d="M 482.780312 302.659201 
L 584.034723 302.557613 
L 591.574946 302.299787 
L 596.960818 301.90442 
L 601.269517 301.396206 
L 605.578215 300.676516 
L 609.886914 299.715746 
L 614.195612 298.504494 
L 618.50431 297.054059 
L 623.890183 294.953445 
L 630.353231 292.13353 
L 651.896723 282.435649 
L 658.35977 279.875479 
L 664.822818 277.56781 
L 671.285865 275.518645 
L 677.748913 273.718509 
L 684.21196 272.149302 
L 690.675008 270.788646 
L 697.138055 269.613009 
L 697.138055 269.613009 
" clip-path="url(#pd0d716cd57)" style="fill: none; stroke-dasharray: 11.1,4.8; stroke-dashoffset: 0; stroke: #ff8c00; stroke-width: 3"/>
   </g>
  </g>
  <g id="text_25">
   <!-- Individual 204 -->
   <g transform="translate(335.733375 29.532375) scale(0.312 -0.312)">
    <defs>
     <path id="ArialMT-49" d="M 597 0 
L 597 4581 
L 1203 4581 
L 1203 0 
L 597 0 
z
" transform="scale(0.015625)"/>
     <path id="ArialMT-6e" d="M 422 0 
L 422 3319 
L 928 3319 
L 928 2847 
Q 1294 3394 1984 3394 
Q 2284 3394 2536 3286 
Q 2788 3178 2913 3003 
Q 3038 2828 3088 2588 
Q 3119 2431 3119 2041 
L 3119 0 
L 2556 0 
L 2556 2019 
Q 2556 2363 2490 2533 
Q 2425 2703 2258 2804 
Q 2091 2906 1866 2906 
Q 1506 2906 1245 2678 
Q 984 2450 984 1813 
L 984 0 
L 422 0 
z
" transform="scale(0.015625)"/>
     <path id="ArialMT-76" d="M 1344 0 
L 81 3319 
L 675 3319 
L 1388 1331 
Q 1503 1009 1600 663 
Q 1675 925 1809 1294 
L 2547 3319 
L 3125 3319 
L 1869 0 
L 1344 0 
z
" transform="scale(0.015625)"/>
     <path id="ArialMT-61" d="M 2588 409 
Q 2275 144 1986 34 
Q 1697 -75 1366 -75 
Q 819 -75 525 192 
Q 231 459 231 875 
Q 231 1119 342 1320 
Q 453 1522 633 1644 
Q 813 1766 1038 1828 
Q 1203 1872 1538 1913 
Q 2219 1994 2541 2106 
Q 2544 2222 2544 2253 
Q 2544 2597 2384 2738 
Q 2169 2928 1744 2928 
Q 1347 2928 1158 2789 
Q 969 2650 878 2297 
L 328 2372 
Q 403 2725 575 2942 
Q 747 3159 1072 3276 
Q 1397 3394 1825 3394 
Q 2250 3394 2515 3294 
Q 2781 3194 2906 3042 
Q 3031 2891 3081 2659 
Q 3109 2516 3109 2141 
L 3109 1391 
Q 3109 606 3145 398 
Q 3181 191 3288 0 
L 2700 0 
Q 2613 175 2588 409 
z
M 2541 1666 
Q 2234 1541 1622 1453 
Q 1275 1403 1131 1340 
Q 988 1278 909 1158 
Q 831 1038 831 891 
Q 831 666 1001 516 
Q 1172 366 1500 366 
Q 1825 366 2078 508 
Q 2331 650 2450 897 
Q 2541 1088 2541 1459 
L 2541 1666 
z
" transform="scale(0.015625)"/>
     <path id="ArialMT-32" d="M 3222 541 
L 3222 0 
L 194 0 
Q 188 203 259 391 
Q 375 700 629 1000 
Q 884 1300 1366 1694 
Q 2113 2306 2375 2664 
Q 2638 3022 2638 3341 
Q 2638 3675 2398 3904 
Q 2159 4134 1775 4134 
Q 1369 4134 1125 3890 
Q 881 3647 878 3216 
L 300 3275 
Q 359 3922 746 4261 
Q 1134 4600 1788 4600 
Q 2447 4600 2831 4234 
Q 3216 3869 3216 3328 
Q 3216 3053 3103 2787 
Q 2991 2522 2730 2228 
Q 2469 1934 1863 1422 
Q 1356 997 1212 845 
Q 1069 694 975 541 
L 3222 541 
z
" transform="scale(0.015625)"/>
     <path id="ArialMT-30" d="M 266 2259 
Q 266 3072 433 3567 
Q 600 4063 929 4331 
Q 1259 4600 1759 4600 
Q 2128 4600 2406 4451 
Q 2684 4303 2865 4023 
Q 3047 3744 3150 3342 
Q 3253 2941 3253 2259 
Q 3253 1453 3087 958 
Q 2922 463 2592 192 
Q 2263 -78 1759 -78 
Q 1097 -78 719 397 
Q 266 969 266 2259 
z
M 844 2259 
Q 844 1131 1108 757 
Q 1372 384 1759 384 
Q 2147 384 2411 759 
Q 2675 1134 2675 2259 
Q 2675 3391 2411 3762 
Q 2147 4134 1753 4134 
Q 1366 4134 1134 3806 
Q 844 3388 844 2259 
z
" transform="scale(0.015625)"/>
     <path id="ArialMT-34" d="M 2069 0 
L 2069 1097 
L 81 1097 
L 81 1613 
L 2172 4581 
L 2631 4581 
L 2631 1613 
L 3250 1613 
L 3250 1097 
L 2631 1097 
L 2631 0 
L 2069 0 
z
M 2069 1613 
L 2069 3678 
L 634 1613 
L 2069 1613 
z
" transform="scale(0.015625)"/>
    </defs>
    <use xlink:href="#ArialMT-49"/>
    <use xlink:href="#ArialMT-6e" transform="translate(27.783203 0)"/>
    <use xlink:href="#ArialMT-64" transform="translate(83.398438 0)"/>
    <use xlink:href="#ArialMT-69" transform="translate(139.013672 0)"/>
    <use xlink:href="#ArialMT-76" transform="translate(161.230469 0)"/>
    <use xlink:href="#ArialMT-69" transform="translate(211.230469 0)"/>
    <use xlink:href="#ArialMT-64" transform="translate(233.447266 0)"/>
    <use xlink:href="#ArialMT-75" transform="translate(289.0625 0)"/>
    <use xlink:href="#ArialMT-61" transform="translate(344.677734 0)"/>
    <use xlink:href="#ArialMT-6c" transform="translate(400.292969 0)"/>
    <use xlink:href="#ArialMT-20" transform="translate(422.509766 0)"/>
    <use xlink:href="#ArialMT-32" transform="translate(450.292969 0)"/>
    <use xlink:href="#ArialMT-30" transform="translate(505.908203 0)"/>
    <use xlink:href="#ArialMT-34" transform="translate(561.523438 0)"/>
   </g>
  </g>
 </g>
 <defs>
  <clipPath id="pd805d3b60b">
   <rect x="180" y="72" width="227.755102" height="248.4"/>
  </clipPath>
  <clipPath id="pd0d716cd57">
   <rect x="476.081633" y="72" width="227.755102" height="248.4"/>
  </clipPath>
 </defs>
</svg>
