<?xml version="1.0" encoding="utf-8" standalone="no"?>
<!DOCTYPE svg PUBLIC "-//W3C//DTD SVG 1.1//EN"
  "http://www.w3.org/Graphics/SVG/1.1/DTD/svg11.dtd">
<svg xmlns:xlink="http://www.w3.org/1999/xlink" width="1440pt" height="360pt" viewBox="0 0 1440 360" xmlns="http://www.w3.org/2000/svg" version="1.1">
 <metadata>
  <rdf:RDF xmlns:dc="http://purl.org/dc/elements/1.1/" xmlns:cc="http://creativecommons.org/ns#" xmlns:rdf="http://www.w3.org/1999/02/22-rdf-syntax-ns#">
   <cc:Work>
    <dc:type rdf:resource="http://purl.org/dc/dcmitype/StillImage"/>
    <dc:date>2025-02-18T18:36:42.685016</dc:date>
    <dc:format>image/svg+xml</dc:format>
    <dc:creator>
     <cc:Agent>
      <dc:title>Matplotlib v3.10.0, https://matplotlib.org/</dc:title>
     </cc:Agent>
    </dc:creator>
   </cc:Work>
  </rdf:RDF>
 </metadata>
 <defs>
  <style type="text/css">*{stroke-linejoin: round; stroke-linecap: butt}</style>
 </defs>
 <g id="figure_1">
  <g id="patch_1">
   <path d="M 0 360 
L 1440 360 
L 1440 0 
L 0 0 
L 0 360 
z
" style="fill: none"/>
  </g>
  <g id="axes_1">
   <g id="patch_2">
    <path d="M 180 320.4 
L 407.755102 320.4 
L 407.755102 72 
L 180 72 
L 180 320.4 
z
" style="fill: none"/>
   </g>
   <g id="matplotlib.axis_1">
    <g id="xtick_1">
     <g id="line2d_1">
      <defs>
       <path id="md6124dcc02" d="M 0 0 
L 0 3.5 
" style="stroke: #000000; stroke-width: 0.8"/>
      </defs>
      <g>
       <use xlink:href="#md6124dcc02" x="186.698679" y="320.4" style="stroke: #000000; stroke-width: 0.8"/>
      </g>
     </g>
     <g id="text_1">
      <!-- 0 -->
      <g transform="translate(176.773179 351.107125) scale(0.312 -0.312)">
       <defs>
        <path id="DejaVuSans-30" d="M 2034 4250 
Q 1547 4250 1301 3770 
Q 1056 3291 1056 2328 
Q 1056 1369 1301 889 
Q 1547 409 2034 409 
Q 2525 409 2770 889 
Q 3016 1369 3016 2328 
Q 3016 3291 2770 3770 
Q 2525 4250 2034 4250 
z
M 2034 4750 
Q 2819 4750 3233 4129 
Q 3647 3509 3647 2328 
Q 3647 1150 3233 529 
Q 2819 -91 2034 -91 
Q 1250 -91 836 529 
Q 422 1150 422 2328 
Q 422 3509 836 4129 
Q 1250 4750 2034 4750 
z
" transform="scale(0.015625)"/>
       </defs>
       <use xlink:href="#DejaVuSans-30"/>
      </g>
     </g>
    </g>
    <g id="xtick_2">
     <g id="line2d_2">
      <g>
       <use xlink:href="#md6124dcc02" x="240.288115" y="320.4" style="stroke: #000000; stroke-width: 0.8"/>
      </g>
     </g>
     <g id="text_2">
      <!-- 2 -->
      <g transform="translate(230.362615 351.107125) scale(0.312 -0.312)">
       <defs>
        <path id="DejaVuSans-32" d="M 1228 531 
L 3431 531 
L 3431 0 
L 469 0 
L 469 531 
Q 828 903 1448 1529 
Q 2069 2156 2228 2338 
Q 2531 2678 2651 2914 
Q 2772 3150 2772 3378 
Q 2772 3750 2511 3984 
Q 2250 4219 1831 4219 
Q 1534 4219 1204 4116 
Q 875 4013 500 3803 
L 500 4441 
Q 881 4594 1212 4672 
Q 1544 4750 1819 4750 
Q 2544 4750 2975 4387 
Q 3406 4025 3406 3419 
Q 3406 3131 3298 2873 
Q 3191 2616 2906 2266 
Q 2828 2175 2409 1742 
Q 1991 1309 1228 531 
z
" transform="scale(0.015625)"/>
       </defs>
       <use xlink:href="#DejaVuSans-32"/>
      </g>
     </g>
    </g>
    <g id="xtick_3">
     <g id="line2d_3">
      <g>
       <use xlink:href="#md6124dcc02" x="293.877551" y="320.4" style="stroke: #000000; stroke-width: 0.8"/>
      </g>
     </g>
     <g id="text_3">
      <!-- 4 -->
      <g transform="translate(283.952051 351.107125) scale(0.312 -0.312)">
       <defs>
        <path id="DejaVuSans-34" d="M 2419 4116 
L 825 1625 
L 2419 1625 
L 2419 4116 
z
M 2253 4666 
L 3047 4666 
L 3047 1625 
L 3713 1625 
L 3713 1100 
L 3047 1100 
L 3047 0 
L 2419 0 
L 2419 1100 
L 313 1100 
L 313 1709 
L 2253 4666 
z
" transform="scale(0.015625)"/>
       </defs>
       <use xlink:href="#DejaVuSans-34"/>
      </g>
     </g>
    </g>
    <g id="xtick_4">
     <g id="line2d_4">
      <g>
       <use xlink:href="#md6124dcc02" x="347.466987" y="320.4" style="stroke: #000000; stroke-width: 0.8"/>
      </g>
     </g>
     <g id="text_4">
      <!-- 6 -->
      <g transform="translate(337.541487 351.107125) scale(0.312 -0.312)">
       <defs>
        <path id="DejaVuSans-36" d="M 2113 2584 
Q 1688 2584 1439 2293 
Q 1191 2003 1191 1497 
Q 1191 994 1439 701 
Q 1688 409 2113 409 
Q 2538 409 2786 701 
Q 3034 994 3034 1497 
Q 3034 2003 2786 2293 
Q 2538 2584 2113 2584 
z
M 3366 4563 
L 3366 3988 
Q 3128 4100 2886 4159 
Q 2644 4219 2406 4219 
Q 1781 4219 1451 3797 
Q 1122 3375 1075 2522 
Q 1259 2794 1537 2939 
Q 1816 3084 2150 3084 
Q 2853 3084 3261 2657 
Q 3669 2231 3669 1497 
Q 3669 778 3244 343 
Q 2819 -91 2113 -91 
Q 1303 -91 875 529 
Q 447 1150 447 2328 
Q 447 3434 972 4092 
Q 1497 4750 2381 4750 
Q 2619 4750 2861 4703 
Q 3103 4656 3366 4563 
z
" transform="scale(0.015625)"/>
       </defs>
       <use xlink:href="#DejaVuSans-36"/>
      </g>
     </g>
    </g>
    <g id="xtick_5">
     <g id="line2d_5">
      <g>
       <use xlink:href="#md6124dcc02" x="401.056423" y="320.4" style="stroke: #000000; stroke-width: 0.8"/>
      </g>
     </g>
     <g id="text_5">
      <!-- 8 -->
      <g transform="translate(391.130923 351.107125) scale(0.312 -0.312)">
       <defs>
        <path id="DejaVuSans-38" d="M 2034 2216 
Q 1584 2216 1326 1975 
Q 1069 1734 1069 1313 
Q 1069 891 1326 650 
Q 1584 409 2034 409 
Q 2484 409 2743 651 
Q 3003 894 3003 1313 
Q 3003 1734 2745 1975 
Q 2488 2216 2034 2216 
z
M 1403 2484 
Q 997 2584 770 2862 
Q 544 3141 544 3541 
Q 544 4100 942 4425 
Q 1341 4750 2034 4750 
Q 2731 4750 3128 4425 
Q 3525 4100 3525 3541 
Q 3525 3141 3298 2862 
Q 3072 2584 2669 2484 
Q 3125 2378 3379 2068 
Q 3634 1759 3634 1313 
Q 3634 634 3220 271 
Q 2806 -91 2034 -91 
Q 1263 -91 848 271 
Q 434 634 434 1313 
Q 434 1759 690 2068 
Q 947 2378 1403 2484 
z
M 1172 3481 
Q 1172 3119 1398 2916 
Q 1625 2713 2034 2713 
Q 2441 2713 2670 2916 
Q 2900 3119 2900 3481 
Q 2900 3844 2670 4047 
Q 2441 4250 2034 4250 
Q 1625 4250 1398 4047 
Q 1172 3844 1172 3481 
z
" transform="scale(0.015625)"/>
       </defs>
       <use xlink:href="#DejaVuSans-38"/>
      </g>
     </g>
    </g>
    <g id="text_6">
     <!-- Time (d) -->
     <g transform="translate(241.190989 382.415656) scale(0.286 -0.286)">
      <defs>
       <path id="ArialMT-54" d="M 1659 0 
L 1659 4041 
L 150 4041 
L 150 4581 
L 3781 4581 
L 3781 4041 
L 2266 4041 
L 2266 0 
L 1659 0 
z
" transform="scale(0.015625)"/>
       <path id="ArialMT-69" d="M 425 3934 
L 425 4581 
L 988 4581 
L 988 3934 
L 425 3934 
z
M 425 0 
L 425 3319 
L 988 3319 
L 988 0 
L 425 0 
z
" transform="scale(0.015625)"/>
       <path id="ArialMT-6d" d="M 422 0 
L 422 3319 
L 925 3319 
L 925 2853 
Q 1081 3097 1340 3245 
Q 1600 3394 1931 3394 
Q 2300 3394 2536 3241 
Q 2772 3088 2869 2813 
Q 3263 3394 3894 3394 
Q 4388 3394 4653 3120 
Q 4919 2847 4919 2278 
L 4919 0 
L 4359 0 
L 4359 2091 
Q 4359 2428 4304 2576 
Q 4250 2725 4106 2815 
Q 3963 2906 3769 2906 
Q 3419 2906 3187 2673 
Q 2956 2441 2956 1928 
L 2956 0 
L 2394 0 
L 2394 2156 
Q 2394 2531 2256 2718 
Q 2119 2906 1806 2906 
Q 1569 2906 1367 2781 
Q 1166 2656 1075 2415 
Q 984 2175 984 1722 
L 984 0 
L 422 0 
z
" transform="scale(0.015625)"/>
       <path id="ArialMT-65" d="M 2694 1069 
L 3275 997 
Q 3138 488 2766 206 
Q 2394 -75 1816 -75 
Q 1088 -75 661 373 
Q 234 822 234 1631 
Q 234 2469 665 2931 
Q 1097 3394 1784 3394 
Q 2450 3394 2872 2941 
Q 3294 2488 3294 1666 
Q 3294 1616 3291 1516 
L 816 1516 
Q 847 969 1125 678 
Q 1403 388 1819 388 
Q 2128 388 2347 550 
Q 2566 713 2694 1069 
z
M 847 1978 
L 2700 1978 
Q 2663 2397 2488 2606 
Q 2219 2931 1791 2931 
Q 1403 2931 1139 2672 
Q 875 2413 847 1978 
z
" transform="scale(0.015625)"/>
       <path id="ArialMT-20" transform="scale(0.015625)"/>
       <path id="ArialMT-28" d="M 1497 -1347 
Q 1031 -759 709 28 
Q 388 816 388 1659 
Q 388 2403 628 3084 
Q 909 3875 1497 4659 
L 1900 4659 
Q 1522 4009 1400 3731 
Q 1209 3300 1100 2831 
Q 966 2247 966 1656 
Q 966 153 1900 -1347 
L 1497 -1347 
z
" transform="scale(0.015625)"/>
       <path id="ArialMT-64" d="M 2575 0 
L 2575 419 
Q 2259 -75 1647 -75 
Q 1250 -75 917 144 
Q 584 363 401 755 
Q 219 1147 219 1656 
Q 219 2153 384 2558 
Q 550 2963 881 3178 
Q 1213 3394 1622 3394 
Q 1922 3394 2156 3267 
Q 2391 3141 2538 2938 
L 2538 4581 
L 3097 4581 
L 3097 0 
L 2575 0 
z
M 797 1656 
Q 797 1019 1065 703 
Q 1334 388 1700 388 
Q 2069 388 2326 689 
Q 2584 991 2584 1609 
Q 2584 2291 2321 2609 
Q 2059 2928 1675 2928 
Q 1300 2928 1048 2622 
Q 797 2316 797 1656 
z
" transform="scale(0.015625)"/>
       <path id="ArialMT-29" d="M 791 -1347 
L 388 -1347 
Q 1322 153 1322 1656 
Q 1322 2244 1188 2822 
Q 1081 3291 891 3722 
Q 769 4003 388 4659 
L 791 4659 
Q 1378 3875 1659 3084 
Q 1900 2403 1900 1659 
Q 1900 816 1576 28 
Q 1253 -759 791 -1347 
z
" transform="scale(0.015625)"/>
      </defs>
      <use xlink:href="#ArialMT-54"/>
      <use xlink:href="#ArialMT-69" transform="translate(57.333984 0)"/>
      <use xlink:href="#ArialMT-6d" transform="translate(79.550781 0)"/>
      <use xlink:href="#ArialMT-65" transform="translate(162.851562 0)"/>
      <use xlink:href="#ArialMT-20" transform="translate(218.466797 0)"/>
      <use xlink:href="#ArialMT-28" transform="translate(246.25 0)"/>
      <use xlink:href="#ArialMT-64" transform="translate(279.550781 0)"/>
      <use xlink:href="#ArialMT-29" transform="translate(335.166016 0)"/>
     </g>
    </g>
   </g>
   <g id="matplotlib.axis_2">
    <g id="ytick_1">
     <g id="line2d_6">
      <defs>
       <path id="mb824de91ef" d="M 0 0 
L -3.5 0 
" style="stroke: #000000; stroke-width: 0.8"/>
      </defs>
      <g>
       <use xlink:href="#mb824de91ef" x="180" y="312.872727" style="stroke: #000000; stroke-width: 0.8"/>
      </g>
     </g>
     <g id="text_7">
      <!-- 0 -->
      <g transform="translate(153.149 324.72629) scale(0.312 -0.312)">
       <use xlink:href="#DejaVuSans-30"/>
      </g>
     </g>
    </g>
    <g id="ytick_2">
     <g id="line2d_7">
      <g>
       <use xlink:href="#mb824de91ef" x="180" y="252.654545" style="stroke: #000000; stroke-width: 0.8"/>
      </g>
     </g>
     <g id="text_8">
      <!-- 2 -->
      <g transform="translate(153.149 264.508108) scale(0.312 -0.312)">
       <use xlink:href="#DejaVuSans-32"/>
      </g>
     </g>
    </g>
    <g id="ytick_3">
     <g id="line2d_8">
      <g>
       <use xlink:href="#mb824de91ef" x="180" y="192.436364" style="stroke: #000000; stroke-width: 0.8"/>
      </g>
     </g>
     <g id="text_9">
      <!-- 4 -->
      <g transform="translate(153.149 204.289926) scale(0.312 -0.312)">
       <use xlink:href="#DejaVuSans-34"/>
      </g>
     </g>
    </g>
    <g id="ytick_4">
     <g id="line2d_9">
      <g>
       <use xlink:href="#mb824de91ef" x="180" y="132.218182" style="stroke: #000000; stroke-width: 0.8"/>
      </g>
     </g>
     <g id="text_10">
      <!-- 6 -->
      <g transform="translate(153.149 144.071744) scale(0.312 -0.312)">
       <use xlink:href="#DejaVuSans-36"/>
      </g>
     </g>
    </g>
    <g id="ytick_5">
     <g id="line2d_10">
      <g>
       <use xlink:href="#mb824de91ef" x="180" y="72" style="stroke: #000000; stroke-width: 0.8"/>
      </g>
     </g>
     <g id="text_11">
      <!-- 8 -->
      <g transform="translate(153.149 83.853563) scale(0.312 -0.312)">
       <use xlink:href="#DejaVuSans-38"/>
      </g>
     </g>
    </g>
    <g id="text_12">
     <!-- Log$_{10}$ Virus (copies/mL) -->
     <g transform="translate(142.857 348.638) rotate(-90) scale(0.286 -0.286)">
      <defs>
       <path id="ArialMT-4c" d="M 469 0 
L 469 4581 
L 1075 4581 
L 1075 541 
L 3331 541 
L 3331 0 
L 469 0 
z
" transform="scale(0.015625)"/>
       <path id="ArialMT-6f" d="M 213 1659 
Q 213 2581 725 3025 
Q 1153 3394 1769 3394 
Q 2453 3394 2887 2945 
Q 3322 2497 3322 1706 
Q 3322 1066 3130 698 
Q 2938 331 2570 128 
Q 2203 -75 1769 -75 
Q 1072 -75 642 372 
Q 213 819 213 1659 
z
M 791 1659 
Q 791 1022 1069 705 
Q 1347 388 1769 388 
Q 2188 388 2466 706 
Q 2744 1025 2744 1678 
Q 2744 2294 2464 2611 
Q 2184 2928 1769 2928 
Q 1347 2928 1069 2612 
Q 791 2297 791 1659 
z
" transform="scale(0.015625)"/>
       <path id="ArialMT-67" d="M 319 -275 
L 866 -356 
Q 900 -609 1056 -725 
Q 1266 -881 1628 -881 
Q 2019 -881 2231 -725 
Q 2444 -569 2519 -288 
Q 2563 -116 2559 434 
Q 2191 0 1641 0 
Q 956 0 581 494 
Q 206 988 206 1678 
Q 206 2153 378 2554 
Q 550 2956 876 3175 
Q 1203 3394 1644 3394 
Q 2231 3394 2613 2919 
L 2613 3319 
L 3131 3319 
L 3131 450 
Q 3131 -325 2973 -648 
Q 2816 -972 2473 -1159 
Q 2131 -1347 1631 -1347 
Q 1038 -1347 672 -1080 
Q 306 -813 319 -275 
z
M 784 1719 
Q 784 1066 1043 766 
Q 1303 466 1694 466 
Q 2081 466 2343 764 
Q 2606 1063 2606 1700 
Q 2606 2309 2336 2618 
Q 2066 2928 1684 2928 
Q 1309 2928 1046 2623 
Q 784 2319 784 1719 
z
" transform="scale(0.015625)"/>
       <path id="DejaVuSans-31" d="M 794 531 
L 1825 531 
L 1825 4091 
L 703 3866 
L 703 4441 
L 1819 4666 
L 2450 4666 
L 2450 531 
L 3481 531 
L 3481 0 
L 794 0 
L 794 531 
z
" transform="scale(0.015625)"/>
       <path id="ArialMT-56" d="M 1803 0 
L 28 4581 
L 684 4581 
L 1875 1253 
Q 2019 853 2116 503 
Q 2222 878 2363 1253 
L 3600 4581 
L 4219 4581 
L 2425 0 
L 1803 0 
z
" transform="scale(0.015625)"/>
       <path id="ArialMT-72" d="M 416 0 
L 416 3319 
L 922 3319 
L 922 2816 
Q 1116 3169 1280 3281 
Q 1444 3394 1641 3394 
Q 1925 3394 2219 3213 
L 2025 2691 
Q 1819 2813 1613 2813 
Q 1428 2813 1281 2702 
Q 1134 2591 1072 2394 
Q 978 2094 978 1738 
L 978 0 
L 416 0 
z
" transform="scale(0.015625)"/>
       <path id="ArialMT-75" d="M 2597 0 
L 2597 488 
Q 2209 -75 1544 -75 
Q 1250 -75 995 37 
Q 741 150 617 320 
Q 494 491 444 738 
Q 409 903 409 1263 
L 409 3319 
L 972 3319 
L 972 1478 
Q 972 1038 1006 884 
Q 1059 663 1231 536 
Q 1403 409 1656 409 
Q 1909 409 2131 539 
Q 2353 669 2445 892 
Q 2538 1116 2538 1541 
L 2538 3319 
L 3100 3319 
L 3100 0 
L 2597 0 
z
" transform="scale(0.015625)"/>
       <path id="ArialMT-73" d="M 197 991 
L 753 1078 
Q 800 744 1014 566 
Q 1228 388 1613 388 
Q 2000 388 2187 545 
Q 2375 703 2375 916 
Q 2375 1106 2209 1216 
Q 2094 1291 1634 1406 
Q 1016 1563 777 1677 
Q 538 1791 414 1992 
Q 291 2194 291 2438 
Q 291 2659 392 2848 
Q 494 3038 669 3163 
Q 800 3259 1026 3326 
Q 1253 3394 1513 3394 
Q 1903 3394 2198 3281 
Q 2494 3169 2634 2976 
Q 2775 2784 2828 2463 
L 2278 2388 
Q 2241 2644 2061 2787 
Q 1881 2931 1553 2931 
Q 1166 2931 1000 2803 
Q 834 2675 834 2503 
Q 834 2394 903 2306 
Q 972 2216 1119 2156 
Q 1203 2125 1616 2013 
Q 2213 1853 2448 1751 
Q 2684 1650 2818 1456 
Q 2953 1263 2953 975 
Q 2953 694 2789 445 
Q 2625 197 2315 61 
Q 2006 -75 1616 -75 
Q 969 -75 630 194 
Q 291 463 197 991 
z
" transform="scale(0.015625)"/>
       <path id="ArialMT-63" d="M 2588 1216 
L 3141 1144 
Q 3050 572 2676 248 
Q 2303 -75 1759 -75 
Q 1078 -75 664 370 
Q 250 816 250 1647 
Q 250 2184 428 2587 
Q 606 2991 970 3192 
Q 1334 3394 1763 3394 
Q 2303 3394 2647 3120 
Q 2991 2847 3088 2344 
L 2541 2259 
Q 2463 2594 2264 2762 
Q 2066 2931 1784 2931 
Q 1359 2931 1093 2626 
Q 828 2322 828 1663 
Q 828 994 1084 691 
Q 1341 388 1753 388 
Q 2084 388 2306 591 
Q 2528 794 2588 1216 
z
" transform="scale(0.015625)"/>
       <path id="ArialMT-70" d="M 422 -1272 
L 422 3319 
L 934 3319 
L 934 2888 
Q 1116 3141 1344 3267 
Q 1572 3394 1897 3394 
Q 2322 3394 2647 3175 
Q 2972 2956 3137 2557 
Q 3303 2159 3303 1684 
Q 3303 1175 3120 767 
Q 2938 359 2589 142 
Q 2241 -75 1856 -75 
Q 1575 -75 1351 44 
Q 1128 163 984 344 
L 984 -1272 
L 422 -1272 
z
M 931 1641 
Q 931 1000 1190 694 
Q 1450 388 1819 388 
Q 2194 388 2461 705 
Q 2728 1022 2728 1688 
Q 2728 2322 2467 2637 
Q 2206 2953 1844 2953 
Q 1484 2953 1207 2617 
Q 931 2281 931 1641 
z
" transform="scale(0.015625)"/>
       <path id="ArialMT-2f" d="M 0 -78 
L 1328 4659 
L 1778 4659 
L 453 -78 
L 0 -78 
z
" transform="scale(0.015625)"/>
      </defs>
      <use xlink:href="#ArialMT-4c" transform="translate(0 0.203125)"/>
      <use xlink:href="#ArialMT-6f" transform="translate(55.615234 0.203125)"/>
      <use xlink:href="#ArialMT-67" transform="translate(111.230469 0.203125)"/>
      <use xlink:href="#DejaVuSans-31" transform="translate(167.802734 -16.203125) scale(0.7)"/>
      <use xlink:href="#DejaVuSans-30" transform="translate(212.338867 -16.203125) scale(0.7)"/>
      <use xlink:href="#ArialMT-20" transform="translate(259.609375 0.203125)"/>
      <use xlink:href="#ArialMT-56" transform="translate(287.392578 0.203125)"/>
      <use xlink:href="#ArialMT-69" transform="translate(354.091797 0.203125)"/>
      <use xlink:href="#ArialMT-72" transform="translate(376.308594 0.203125)"/>
      <use xlink:href="#ArialMT-75" transform="translate(409.609375 0.203125)"/>
      <use xlink:href="#ArialMT-73" transform="translate(465.224609 0.203125)"/>
      <use xlink:href="#ArialMT-20" transform="translate(515.224609 0.203125)"/>
      <use xlink:href="#ArialMT-28" transform="translate(543.007812 0.203125)"/>
      <use xlink:href="#ArialMT-63" transform="translate(576.308594 0.203125)"/>
      <use xlink:href="#ArialMT-6f" transform="translate(626.308594 0.203125)"/>
      <use xlink:href="#ArialMT-70" transform="translate(681.923828 0.203125)"/>
      <use xlink:href="#ArialMT-69" transform="translate(737.539062 0.203125)"/>
      <use xlink:href="#ArialMT-65" transform="translate(759.755859 0.203125)"/>
      <use xlink:href="#ArialMT-73" transform="translate(815.371094 0.203125)"/>
      <use xlink:href="#ArialMT-2f" transform="translate(865.371094 0.203125)"/>
      <use xlink:href="#ArialMT-6d" transform="translate(893.154297 0.203125)"/>
      <use xlink:href="#ArialMT-4c" transform="translate(976.455078 0.203125)"/>
      <use xlink:href="#ArialMT-29" transform="translate(1032.070312 0.203125)"/>
     </g>
    </g>
   </g>
   <g id="patch_3">
    <path d="M 180 320.4 
L 180 72 
" style="fill: none; stroke: #000000; stroke-width: 3; stroke-linejoin: miter; stroke-linecap: square"/>
   </g>
   <g id="patch_4">
    <path d="M 407.755102 320.4 
L 407.755102 72 
" style="fill: none; stroke: #000000; stroke-width: 3; stroke-linejoin: miter; stroke-linecap: square"/>
   </g>
   <g id="patch_5">
    <path d="M 180 320.4 
L 407.755102 320.4 
" style="fill: none; stroke: #000000; stroke-width: 3; stroke-linejoin: miter; stroke-linecap: square"/>
   </g>
   <g id="patch_6">
    <path d="M 180 72 
L 407.755102 72 
" style="fill: none; stroke: #000000; stroke-width: 3; stroke-linejoin: miter; stroke-linecap: square"/>
   </g>
   <g id="FillBetweenPolyCollection_1">
    <defs>
     <path id="m9f25b065f5" d="M 186.698679 -47.127273 
L 186.698679 -47.127273 
L 187.775854 -47.127273 
L 188.853029 -47.127273 
L 189.930203 -47.127273 
L 191.007378 -47.127273 
L 192.084552 -47.127273 
L 193.161727 -50.281697 
L 194.238902 -55.289291 
L 195.316076 -60.306527 
L 196.393251 -65.297762 
L 197.470425 -70.229824 
L 198.5476 -74.987882 
L 199.624775 -79.718449 
L 200.701949 -84.486778 
L 201.779124 -89.221085 
L 202.856298 -93.972105 
L 203.933473 -98.735693 
L 205.010647 -103.465669 
L 206.087822 -108.225144 
L 207.164997 -112.95729 
L 208.242171 -117.70478 
L 209.319346 -122.450753 
L 210.39652 -127.178897 
L 211.473695 -131.932526 
L 212.55087 -136.655445 
L 213.493397 -140.798892 
L 213.628044 -141.394307 
L 214.705219 -146.115001 
L 215.782393 -150.818374 
L 216.859568 -155.527627 
L 217.936743 -160.196444 
L 219.013917 -164.861083 
L 220.091092 -169.466132 
L 221.168266 -174.01772 
L 222.245441 -178.513075 
L 223.322615 -182.875068 
L 224.39979 -187.10456 
L 225.476965 -191.141083 
L 226.554139 -194.94024 
L 227.631314 -198.445659 
L 228.708488 -201.614552 
L 229.785663 -204.404814 
L 230.862838 -206.802041 
L 231.940012 -208.821531 
L 233.017187 -210.481278 
L 234.094361 -211.802593 
L 235.171536 -212.481103 
L 236.248711 -213.01378 
L 237.325885 -213.431056 
L 238.40306 -213.7562 
L 239.480234 -214.007027 
L 240.288115 -214.154941 
L 240.557409 -214.197524 
L 241.634583 -214.338481 
L 242.711758 -214.438538 
L 243.788933 -214.504606 
L 244.866107 -214.542214 
L 245.943282 -214.555947 
L 247.020456 -214.5494 
L 248.097631 -214.525653 
L 249.174806 -214.486998 
L 250.25198 -214.435766 
L 251.329155 -214.373409 
L 252.406329 -214.301154 
L 253.483504 -214.220424 
L 254.560679 -214.13197 
L 255.637853 -214.036473 
L 256.715028 -213.934593 
L 257.792202 -213.826871 
L 258.869377 -213.71347 
L 259.946551 -213.594747 
L 261.023726 -213.470899 
L 262.100901 -213.342126 
L 263.178075 -213.208427 
L 264.25525 -213.069908 
L 265.332424 -212.926609 
L 266.409599 -212.778597 
L 267.082833 -212.683682 
L 267.486774 -212.625836 
L 268.563948 -212.468343 
L 269.641123 -212.306152 
L 270.718297 -212.139217 
L 271.795472 -211.967618 
L 272.872647 -211.791319 
L 273.949821 -211.610363 
L 275.026996 -211.424806 
L 276.10417 -211.234621 
L 277.181345 -211.039937 
L 278.258519 -210.840736 
L 279.335694 -210.637101 
L 280.412869 -210.429116 
L 281.490043 -210.216772 
L 282.567218 -210.000227 
L 283.644392 -209.77947 
L 284.721567 -209.554598 
L 285.798742 -209.325693 
L 286.875916 -209.09275 
L 287.953091 -208.855909 
L 289.030265 -208.615154 
L 290.10744 -208.370562 
L 291.184615 -208.122183 
L 292.261789 -207.870003 
L 293.338964 -207.614111 
L 293.877551 -207.484763 
L 294.416138 -207.354473 
L 295.493313 -207.091123 
L 296.570487 -206.824068 
L 297.647662 -206.553269 
L 298.724837 -206.258082 
L 299.802011 -205.948795 
L 300.879186 -205.634748 
L 301.95636 -205.315834 
L 303.033535 -204.992006 
L 304.11071 -204.66317 
L 305.187884 -204.329212 
L 306.265059 -203.99005 
L 307.342233 -203.645535 
L 308.419408 -203.295549 
L 309.496583 -202.939936 
L 310.573757 -202.578524 
L 311.650932 -202.211142 
L 312.728106 -201.837582 
L 313.805281 -201.457631 
L 314.882455 -201.071051 
L 315.95963 -200.677583 
L 317.036805 -200.276945 
L 318.113979 -199.868834 
L 319.191154 -199.452914 
L 320.268328 -199.028825 
L 320.672269 -198.867609 
L 321.345503 -198.596178 
L 322.422678 -198.154535 
L 323.499852 -197.703445 
L 324.577027 -197.242385 
L 325.654201 -196.770808 
L 326.731376 -196.288114 
L 327.808551 -195.793621 
L 328.885725 -195.286624 
L 329.9629 -194.766298 
L 331.040074 -194.231772 
L 332.117249 -193.682071 
L 333.194423 -193.116091 
L 334.271598 -192.532654 
L 335.348773 -191.930378 
L 336.425947 -191.30777 
L 337.503122 -190.663128 
L 338.580296 -189.994498 
L 339.657471 -189.275916 
L 340.734646 -188.478755 
L 341.81182 -187.641811 
L 342.888995 -186.760241 
L 343.966169 -185.828383 
L 345.043344 -184.839339 
L 346.120519 -183.784711 
L 347.197693 -182.65417 
L 347.466987 -182.358206 
L 348.274868 -181.434615 
L 349.352042 -180.109389 
L 350.429217 -178.656578 
L 351.506392 -177.046708 
L 352.583566 -175.238825 
L 353.660741 -173.173547 
L 354.737915 -170.759988 
L 355.81509 -167.849532 
L 356.892264 -164.172046 
L 357.969439 -159.152949 
L 359.046614 -148.695721 
L 360.123788 -97.166057 
L 361.200963 -47.127273 
L 362.278137 -47.127273 
L 363.355312 -47.127273 
L 364.432487 -47.127273 
L 365.509661 -47.127273 
L 366.586836 -47.127273 
L 367.66401 -47.127273 
L 368.741185 -47.127273 
L 369.81836 -47.127273 
L 370.895534 -47.127273 
L 371.972709 -47.127273 
L 373.049883 -47.127273 
L 374.127058 -47.127273 
L 374.261705 -47.127273 
L 375.204232 -47.127273 
L 376.281407 -47.127273 
L 377.358582 -47.127273 
L 378.435756 -47.127273 
L 379.512931 -47.127273 
L 380.590105 -47.127273 
L 381.66728 -47.127273 
L 382.744455 -47.127273 
L 383.821629 -47.127273 
L 384.898804 -47.127273 
L 385.975978 -47.127273 
L 387.053153 -47.127273 
L 388.130328 -47.127273 
L 389.207502 -47.127273 
L 390.284677 -47.127273 
L 391.361851 -47.127273 
L 392.439026 -47.127273 
L 393.5162 -47.127273 
L 394.593375 -47.127273 
L 395.67055 -47.127273 
L 396.747724 -47.127273 
L 397.824899 -47.127273 
L 398.902073 -47.127273 
L 399.979248 -47.127273 
L 401.056423 -47.127273 
L 401.056423 -47.127273 
L 401.056423 -47.127273 
L 399.979248 -47.127273 
L 398.902073 -47.127273 
L 397.824899 -47.127273 
L 396.747724 -47.127273 
L 395.67055 -47.127273 
L 394.593375 -47.127273 
L 393.5162 -47.127273 
L 392.439026 -47.127273 
L 391.361851 -47.127273 
L 390.284677 -47.127273 
L 389.207502 -47.127273 
L 388.130328 -47.127273 
L 387.053153 -47.127273 
L 385.975978 -47.127273 
L 384.898804 -47.127273 
L 383.821629 -47.127273 
L 382.744455 -47.127273 
L 381.66728 -47.127273 
L 380.590105 -47.127273 
L 379.512931 -47.127273 
L 378.435756 -47.127273 
L 377.358582 -47.127273 
L 376.281407 -47.127273 
L 375.204232 -47.127273 
L 374.261705 -47.127273 
L 374.127058 -47.127273 
L 373.049883 -80.900116 
L 371.972709 -137.869922 
L 370.895534 -151.680851 
L 369.81836 -158.400937 
L 368.741185 -163.979077 
L 367.66401 -168.12557 
L 366.586836 -171.314497 
L 365.509661 -173.912936 
L 364.432487 -176.110695 
L 363.355312 -178.018694 
L 362.278137 -179.7074 
L 361.200963 -181.224249 
L 360.123788 -182.602932 
L 359.046614 -183.86799 
L 357.969439 -185.038019 
L 356.892264 -186.127418 
L 355.81509 -187.147459 
L 354.737915 -188.107325 
L 353.660741 -189.014381 
L 352.583566 -189.874778 
L 351.506392 -190.693655 
L 350.429217 -191.475289 
L 349.352042 -192.223418 
L 348.274868 -192.941159 
L 347.466987 -193.461189 
L 347.197693 -193.631263 
L 346.120519 -194.296123 
L 345.043344 -194.937787 
L 343.966169 -195.558137 
L 342.888995 -196.158764 
L 341.81182 -196.741127 
L 340.734646 -197.306527 
L 339.657471 -197.856093 
L 338.580296 -198.390903 
L 337.503122 -198.911868 
L 336.425947 -199.419853 
L 335.348773 -199.915636 
L 334.271598 -200.399901 
L 333.194423 -200.873317 
L 332.117249 -201.336449 
L 331.040074 -201.789847 
L 329.9629 -202.234005 
L 328.885725 -202.669366 
L 327.808551 -203.096364 
L 326.731376 -203.515369 
L 325.654201 -203.926744 
L 324.577027 -204.330816 
L 323.499852 -204.727881 
L 322.422678 -205.118225 
L 321.345503 -205.502101 
L 320.672269 -205.738845 
L 320.268328 -205.879746 
L 319.191154 -206.251379 
L 318.113979 -206.617204 
L 317.036805 -206.9774 
L 315.95963 -207.332144 
L 314.882455 -207.681585 
L 313.805281 -208.025868 
L 312.728106 -208.365128 
L 311.650932 -208.699467 
L 310.573757 -209.029011 
L 309.496583 -209.353837 
L 308.419408 -209.674037 
L 307.342233 -209.989698 
L 306.265059 -210.30086 
L 305.187884 -210.607615 
L 304.11071 -210.909982 
L 303.033535 -211.208017 
L 301.95636 -211.501772 
L 300.879186 -211.791238 
L 299.802011 -212.076488 
L 298.724837 -212.360569 
L 297.647662 -212.658738 
L 296.570487 -212.952883 
L 295.493313 -213.245796 
L 294.416138 -213.547549 
L 293.877551 -213.696966 
L 293.338964 -213.845401 
L 292.261789 -214.139357 
L 291.184615 -214.429453 
L 290.10744 -214.715641 
L 289.030265 -214.997964 
L 287.953091 -215.27639 
L 286.875916 -215.550911 
L 285.798742 -215.821554 
L 284.721567 -216.088257 
L 283.644392 -216.351065 
L 282.567218 -216.609941 
L 281.490043 -216.864883 
L 280.412869 -217.115924 
L 279.335694 -217.363016 
L 278.258519 -217.606218 
L 277.181345 -217.84551 
L 276.10417 -218.080917 
L 275.026996 -218.312486 
L 273.949821 -218.540208 
L 272.872647 -218.764153 
L 271.795472 -218.984335 
L 270.718297 -219.200801 
L 269.641123 -219.413612 
L 268.563948 -219.622781 
L 267.486774 -219.828383 
L 267.082833 -219.904566 
L 266.409599 -220.037718 
L 265.332424 -220.254567 
L 264.25525 -220.466972 
L 263.178075 -220.674836 
L 262.100901 -220.878092 
L 261.023726 -221.076712 
L 259.946551 -221.270442 
L 258.869377 -221.459225 
L 257.792202 -221.642662 
L 256.715028 -221.82055 
L 255.637853 -221.992445 
L 254.560679 -222.157829 
L 253.483504 -222.315993 
L 252.406329 -222.466211 
L 251.329155 -222.607398 
L 250.25198 -222.738511 
L 249.174806 -222.857971 
L 248.097631 -222.964167 
L 247.020456 -223.054908 
L 245.943282 -223.127616 
L 244.866107 -223.17918 
L 243.788933 -223.205834 
L 242.711758 -223.202992 
L 241.634583 -223.194044 
L 240.557409 -223.171864 
L 240.288115 -223.160873 
L 239.480234 -223.113178 
L 238.40306 -223.010618 
L 237.325885 -222.854929 
L 236.248711 -222.634466 
L 235.171536 -222.3342 
L 234.094361 -221.934413 
L 233.017187 -221.409558 
L 231.940012 -220.725702 
L 230.862838 -219.838208 
L 229.785663 -218.692372 
L 228.708488 -217.225396 
L 227.631314 -215.369271 
L 226.554139 -213.688114 
L 225.476965 -211.706976 
L 224.39979 -209.282338 
L 223.322615 -206.511443 
L 222.245441 -203.208402 
L 221.168266 -199.380492 
L 220.091092 -195.09631 
L 219.013917 -190.434759 
L 217.936743 -185.483773 
L 216.859568 -180.306264 
L 215.782393 -174.995567 
L 214.705219 -169.556547 
L 213.628044 -164.076607 
L 213.493397 -163.387954 
L 212.55087 -158.508655 
L 211.473695 -152.946371 
L 210.39652 -147.344858 
L 209.319346 -141.746876 
L 208.242171 -136.122935 
L 207.164997 -130.499438 
L 206.087822 -124.879227 
L 205.010647 -119.249694 
L 203.933473 -113.626083 
L 202.856298 -107.963785 
L 201.779124 -102.402998 
L 200.701949 -96.83249 
L 199.624775 -91.441422 
L 198.5476 -86.146803 
L 197.470425 -80.899605 
L 196.393251 -75.611251 
L 195.316076 -70.357842 
L 194.238902 -65.067201 
L 193.161727 -59.789794 
L 192.084552 -54.461514 
L 191.007378 -49.047668 
L 189.930203 -47.127273 
L 188.853029 -47.127273 
L 187.775854 -47.127273 
L 186.698679 -47.127273 
z
" style="stroke: #40e0d0; stroke-opacity: 0.2"/>
    </defs>
    <g clip-path="url(#pbc0cbe7d10)">
     <use xlink:href="#m9f25b065f5" x="0" y="360" style="fill: #40e0d0; fill-opacity: 0.2; stroke: #40e0d0; stroke-opacity: 0.2"/>
    </g>
   </g>
   <g id="PathCollection_1">
    <defs>
     <path id="mee23f64305" d="M 0 7.071068 
C 1.875269 7.071068 3.673985 6.326016 5 5 
C 6.326016 3.673985 7.071068 1.875269 7.071068 0 
C 7.071068 -1.875269 6.326016 -3.673985 5 -5 
C 3.673985 -6.326016 1.875269 -7.071068 0 -7.071068 
C -1.875269 -7.071068 -3.673985 -6.326016 -5 -5 
C -6.326016 -3.673985 -7.071068 -1.875269 -7.071068 0 
C -7.071068 1.875269 -6.326016 3.673985 -5 5 
C -3.673985 6.326016 -1.875269 7.071068 0 7.071068 
z
" style="stroke: #000000; stroke-opacity: 0.8"/>
    </defs>
    <g clip-path="url(#pbc0cbe7d10)">
     <use xlink:href="#mee23f64305" x="186.698679" y="312.872727" style="fill: #40e0d0; fill-opacity: 0.8; stroke: #000000; stroke-opacity: 0.8"/>
     <use xlink:href="#mee23f64305" x="213.493397" y="210.010812" style="fill: #40e0d0; fill-opacity: 0.8; stroke: #000000; stroke-opacity: 0.8"/>
     <use xlink:href="#mee23f64305" x="240.288115" y="118.258081" style="fill: #40e0d0; fill-opacity: 0.8; stroke: #000000; stroke-opacity: 0.8"/>
     <use xlink:href="#mee23f64305" x="267.082833" y="176.303523" style="fill: #40e0d0; fill-opacity: 0.8; stroke: #000000; stroke-opacity: 0.8"/>
     <use xlink:href="#mee23f64305" x="293.877551" y="150.578277" style="fill: #40e0d0; fill-opacity: 0.8; stroke: #000000; stroke-opacity: 0.8"/>
     <use xlink:href="#mee23f64305" x="320.672269" y="156.302676" style="fill: #40e0d0; fill-opacity: 0.8; stroke: #000000; stroke-opacity: 0.8"/>
     <use xlink:href="#mee23f64305" x="347.466987" y="159.04372" style="fill: #40e0d0; fill-opacity: 0.8; stroke: #000000; stroke-opacity: 0.8"/>
     <use xlink:href="#mee23f64305" x="374.261705" y="312.872727" style="fill: #40e0d0; fill-opacity: 0.8; stroke: #000000; stroke-opacity: 0.8"/>
    </g>
   </g>
   <g id="line2d_11">
    <path d="M 186.698679 312.872727 
L 191.007378 312.872727 
L 192.084552 311.083043 
L 200.701949 269.331695 
L 217.936743 186.610362 
L 221.168266 172.209783 
L 223.322615 163.65928 
L 224.39979 159.889423 
L 225.476965 156.543398 
L 226.554139 153.647904 
L 227.631314 151.22753 
L 228.708488 149.242281 
L 229.785663 147.651487 
L 230.862838 146.396442 
L 231.940012 145.413118 
L 233.017187 144.645384 
L 234.094361 144.047421 
L 236.248711 143.222833 
L 238.40306 142.740648 
L 240.557409 142.483899 
L 243.788933 142.371433 
L 248.097631 142.526283 
L 253.483504 142.981953 
L 261.023726 143.865882 
L 269.641123 145.098658 
L 278.258519 146.559371 
L 286.875916 148.264763 
L 295.493313 150.215081 
L 304.11071 152.406033 
L 311.650932 154.529822 
L 319.191154 156.875572 
L 325.654201 159.103513 
L 331.040074 161.155064 
L 336.425947 163.435934 
L 340.734646 165.475112 
L 345.043344 167.766518 
L 348.274868 169.702276 
L 351.506392 171.885252 
L 354.737915 174.401365 
L 356.892264 176.329462 
L 359.046614 178.530636 
L 361.200963 181.105604 
L 363.355312 184.223547 
L 364.432487 186.075328 
L 365.509661 188.202684 
L 366.586836 190.707376 
L 367.66401 193.760682 
L 368.741185 197.682736 
L 369.81836 203.197445 
L 370.895534 212.632393 
L 371.972709 246.909157 
L 373.049883 312.872727 
L 401.056423 312.872727 
L 401.056423 312.872727 
" clip-path="url(#pbc0cbe7d10)" style="fill: none; stroke: #40e0d0; stroke-width: 3; stroke-linecap: square"/>
   </g>
  </g>
  <g id="axes_2">
   <g id="patch_7">
    <path d="M 476.081633 320.4 
L 703.836735 320.4 
L 703.836735 72 
L 476.081633 72 
L 476.081633 320.4 
z
" style="fill: none"/>
   </g>
   <g id="matplotlib.axis_3">
    <g id="xtick_6">
     <g id="line2d_12">
      <g>
       <use xlink:href="#md6124dcc02" x="482.780312" y="320.4" style="stroke: #000000; stroke-width: 0.8"/>
      </g>
     </g>
     <g id="text_13">
      <!-- 0 -->
      <g transform="translate(472.854812 351.107125) scale(0.312 -0.312)">
       <use xlink:href="#DejaVuSans-30"/>
      </g>
     </g>
    </g>
    <g id="xtick_7">
     <g id="line2d_13">
      <g>
       <use xlink:href="#md6124dcc02" x="536.369748" y="320.4" style="stroke: #000000; stroke-width: 0.8"/>
      </g>
     </g>
     <g id="text_14">
      <!-- 2 -->
      <g transform="translate(526.444248 351.107125) scale(0.312 -0.312)">
       <use xlink:href="#DejaVuSans-32"/>
      </g>
     </g>
    </g>
    <g id="xtick_8">
     <g id="line2d_14">
      <g>
       <use xlink:href="#md6124dcc02" x="589.959184" y="320.4" style="stroke: #000000; stroke-width: 0.8"/>
      </g>
     </g>
     <g id="text_15">
      <!-- 4 -->
      <g transform="translate(580.033684 351.107125) scale(0.312 -0.312)">
       <use xlink:href="#DejaVuSans-34"/>
      </g>
     </g>
    </g>
    <g id="xtick_9">
     <g id="line2d_15">
      <g>
       <use xlink:href="#md6124dcc02" x="643.548619" y="320.4" style="stroke: #000000; stroke-width: 0.8"/>
      </g>
     </g>
     <g id="text_16">
      <!-- 6 -->
      <g transform="translate(633.623119 351.107125) scale(0.312 -0.312)">
       <use xlink:href="#DejaVuSans-36"/>
      </g>
     </g>
    </g>
    <g id="xtick_10">
     <g id="line2d_16">
      <g>
       <use xlink:href="#md6124dcc02" x="697.138055" y="320.4" style="stroke: #000000; stroke-width: 0.8"/>
      </g>
     </g>
     <g id="text_17">
      <!-- 8 -->
      <g transform="translate(687.212555 351.107125) scale(0.312 -0.312)">
       <use xlink:href="#DejaVuSans-38"/>
      </g>
     </g>
    </g>
    <g id="text_18">
     <!-- Time (d) -->
     <g transform="translate(537.272621 382.415656) scale(0.286 -0.286)">
      <use xlink:href="#ArialMT-54"/>
      <use xlink:href="#ArialMT-69" transform="translate(57.333984 0)"/>
      <use xlink:href="#ArialMT-6d" transform="translate(79.550781 0)"/>
      <use xlink:href="#ArialMT-65" transform="translate(162.851562 0)"/>
      <use xlink:href="#ArialMT-20" transform="translate(218.466797 0)"/>
      <use xlink:href="#ArialMT-28" transform="translate(246.25 0)"/>
      <use xlink:href="#ArialMT-64" transform="translate(279.550781 0)"/>
      <use xlink:href="#ArialMT-29" transform="translate(335.166016 0)"/>
     </g>
    </g>
   </g>
   <g id="matplotlib.axis_4">
    <g id="ytick_6">
     <g id="line2d_17">
      <g>
       <use xlink:href="#mb824de91ef" x="476.081633" y="320.4" style="stroke: #000000; stroke-width: 0.8"/>
      </g>
     </g>
     <g id="text_19">
      <!-- 3 -->
      <g transform="translate(449.230633 332.253562) scale(0.312 -0.312)">
       <defs>
        <path id="DejaVuSans-33" d="M 2597 2516 
Q 3050 2419 3304 2112 
Q 3559 1806 3559 1356 
Q 3559 666 3084 287 
Q 2609 -91 1734 -91 
Q 1441 -91 1130 -33 
Q 819 25 488 141 
L 488 750 
Q 750 597 1062 519 
Q 1375 441 1716 441 
Q 2309 441 2620 675 
Q 2931 909 2931 1356 
Q 2931 1769 2642 2001 
Q 2353 2234 1838 2234 
L 1294 2234 
L 1294 2753 
L 1863 2753 
Q 2328 2753 2575 2939 
Q 2822 3125 2822 3475 
Q 2822 3834 2567 4026 
Q 2313 4219 1838 4219 
Q 1578 4219 1281 4162 
Q 984 4106 628 3988 
L 628 4550 
Q 988 4650 1302 4700 
Q 1616 4750 1894 4750 
Q 2613 4750 3031 4423 
Q 3450 4097 3450 3541 
Q 3450 3153 3228 2886 
Q 3006 2619 2597 2516 
z
" transform="scale(0.015625)"/>
       </defs>
       <use xlink:href="#DejaVuSans-33"/>
      </g>
     </g>
    </g>
    <g id="ytick_7">
     <g id="line2d_18">
      <g>
       <use xlink:href="#mb824de91ef" x="476.081633" y="265.2" style="stroke: #000000; stroke-width: 0.8"/>
      </g>
     </g>
     <g id="text_20">
      <!-- 4 -->
      <g transform="translate(449.230633 277.053562) scale(0.312 -0.312)">
       <use xlink:href="#DejaVuSans-34"/>
      </g>
     </g>
    </g>
    <g id="ytick_8">
     <g id="line2d_19">
      <g>
       <use xlink:href="#mb824de91ef" x="476.081633" y="210" style="stroke: #000000; stroke-width: 0.8"/>
      </g>
     </g>
     <g id="text_21">
      <!-- 5 -->
      <g transform="translate(449.230633 221.853563) scale(0.312 -0.312)">
       <defs>
        <path id="DejaVuSans-35" d="M 691 4666 
L 3169 4666 
L 3169 4134 
L 1269 4134 
L 1269 2991 
Q 1406 3038 1543 3061 
Q 1681 3084 1819 3084 
Q 2600 3084 3056 2656 
Q 3513 2228 3513 1497 
Q 3513 744 3044 326 
Q 2575 -91 1722 -91 
Q 1428 -91 1123 -41 
Q 819 9 494 109 
L 494 744 
Q 775 591 1075 516 
Q 1375 441 1709 441 
Q 2250 441 2565 725 
Q 2881 1009 2881 1497 
Q 2881 1984 2565 2268 
Q 2250 2553 1709 2553 
Q 1456 2553 1204 2497 
Q 953 2441 691 2322 
L 691 4666 
z
" transform="scale(0.015625)"/>
       </defs>
       <use xlink:href="#DejaVuSans-35"/>
      </g>
     </g>
    </g>
    <g id="ytick_9">
     <g id="line2d_20">
      <g>
       <use xlink:href="#mb824de91ef" x="476.081633" y="154.8" style="stroke: #000000; stroke-width: 0.8"/>
      </g>
     </g>
     <g id="text_22">
      <!-- 6 -->
      <g transform="translate(449.230633 166.653563) scale(0.312 -0.312)">
       <use xlink:href="#DejaVuSans-36"/>
      </g>
     </g>
    </g>
    <g id="ytick_10">
     <g id="line2d_21">
      <g>
       <use xlink:href="#mb824de91ef" x="476.081633" y="99.6" style="stroke: #000000; stroke-width: 0.8"/>
      </g>
     </g>
     <g id="text_23">
      <!-- 7 -->
      <g transform="translate(449.230633 111.453563) scale(0.312 -0.312)">
       <defs>
        <path id="DejaVuSans-37" d="M 525 4666 
L 3525 4666 
L 3525 4397 
L 1831 0 
L 1172 0 
L 2766 4134 
L 525 4134 
L 525 4666 
z
" transform="scale(0.015625)"/>
       </defs>
       <use xlink:href="#DejaVuSans-37"/>
      </g>
     </g>
    </g>
    <g id="text_24">
     <!-- Log$_{10}$ CD8$^+$ T cells -->
     <g transform="translate(438.938633 324.042) rotate(-90) scale(0.286 -0.286)">
      <defs>
       <path id="ArialMT-43" d="M 3763 1606 
L 4369 1453 
Q 4178 706 3683 314 
Q 3188 -78 2472 -78 
Q 1731 -78 1267 223 
Q 803 525 561 1097 
Q 319 1669 319 2325 
Q 319 3041 592 3573 
Q 866 4106 1370 4382 
Q 1875 4659 2481 4659 
Q 3169 4659 3637 4309 
Q 4106 3959 4291 3325 
L 3694 3184 
Q 3534 3684 3231 3912 
Q 2928 4141 2469 4141 
Q 1941 4141 1586 3887 
Q 1231 3634 1087 3207 
Q 944 2781 944 2328 
Q 944 1744 1114 1308 
Q 1284 872 1643 656 
Q 2003 441 2422 441 
Q 2931 441 3284 734 
Q 3638 1028 3763 1606 
z
" transform="scale(0.015625)"/>
       <path id="ArialMT-44" d="M 494 0 
L 494 4581 
L 2072 4581 
Q 2606 4581 2888 4516 
Q 3281 4425 3559 4188 
Q 3922 3881 4101 3404 
Q 4281 2928 4281 2316 
Q 4281 1794 4159 1391 
Q 4038 988 3847 723 
Q 3656 459 3429 307 
Q 3203 156 2883 78 
Q 2563 0 2147 0 
L 494 0 
z
M 1100 541 
L 2078 541 
Q 2531 541 2789 625 
Q 3047 709 3200 863 
Q 3416 1078 3536 1442 
Q 3656 1806 3656 2325 
Q 3656 3044 3420 3430 
Q 3184 3816 2847 3947 
Q 2603 4041 2063 4041 
L 1100 4041 
L 1100 541 
z
" transform="scale(0.015625)"/>
       <path id="ArialMT-38" d="M 1131 2484 
Q 781 2613 612 2850 
Q 444 3088 444 3419 
Q 444 3919 803 4259 
Q 1163 4600 1759 4600 
Q 2359 4600 2725 4251 
Q 3091 3903 3091 3403 
Q 3091 3084 2923 2848 
Q 2756 2613 2416 2484 
Q 2838 2347 3058 2040 
Q 3278 1734 3278 1309 
Q 3278 722 2862 322 
Q 2447 -78 1769 -78 
Q 1091 -78 675 323 
Q 259 725 259 1325 
Q 259 1772 486 2073 
Q 713 2375 1131 2484 
z
M 1019 3438 
Q 1019 3113 1228 2906 
Q 1438 2700 1772 2700 
Q 2097 2700 2305 2904 
Q 2513 3109 2513 3406 
Q 2513 3716 2298 3927 
Q 2084 4138 1766 4138 
Q 1444 4138 1231 3931 
Q 1019 3725 1019 3438 
z
M 838 1322 
Q 838 1081 952 856 
Q 1066 631 1291 507 
Q 1516 384 1775 384 
Q 2178 384 2440 643 
Q 2703 903 2703 1303 
Q 2703 1709 2433 1975 
Q 2163 2241 1756 2241 
Q 1359 2241 1098 1978 
Q 838 1716 838 1322 
z
" transform="scale(0.015625)"/>
       <path id="DejaVuSans-2b" d="M 2944 4013 
L 2944 2272 
L 4684 2272 
L 4684 1741 
L 2944 1741 
L 2944 0 
L 2419 0 
L 2419 1741 
L 678 1741 
L 678 2272 
L 2419 2272 
L 2419 4013 
L 2944 4013 
z
" transform="scale(0.015625)"/>
       <path id="ArialMT-6c" d="M 409 0 
L 409 4581 
L 972 4581 
L 972 0 
L 409 0 
z
" transform="scale(0.015625)"/>
      </defs>
      <use xlink:href="#ArialMT-4c" transform="translate(0 0.826562)"/>
      <use xlink:href="#ArialMT-6f" transform="translate(55.615234 0.826562)"/>
      <use xlink:href="#ArialMT-67" transform="translate(111.230469 0.826562)"/>
      <use xlink:href="#DejaVuSans-31" transform="translate(167.802734 -15.579688) scale(0.7)"/>
      <use xlink:href="#DejaVuSans-30" transform="translate(212.338867 -15.579688) scale(0.7)"/>
      <use xlink:href="#ArialMT-20" transform="translate(259.609375 0.826562)"/>
      <use xlink:href="#ArialMT-43" transform="translate(287.392578 0.826562)"/>
      <use xlink:href="#ArialMT-44" transform="translate(359.609375 0.826562)"/>
      <use xlink:href="#ArialMT-38" transform="translate(431.826172 0.826562)"/>
      <use xlink:href="#DejaVuSans-2b" transform="translate(502.036133 39.107812) scale(0.7)"/>
      <use xlink:href="#ArialMT-20" transform="translate(577.060547 0.826562)"/>
      <use xlink:href="#ArialMT-54" transform="translate(604.84375 0.826562)"/>
      <use xlink:href="#ArialMT-20" transform="translate(665.927734 0.826562)"/>
      <use xlink:href="#ArialMT-63" transform="translate(693.710938 0.826562)"/>
      <use xlink:href="#ArialMT-65" transform="translate(743.710938 0.826562)"/>
      <use xlink:href="#ArialMT-6c" transform="translate(799.326172 0.826562)"/>
      <use xlink:href="#ArialMT-6c" transform="translate(821.542969 0.826562)"/>
      <use xlink:href="#ArialMT-73" transform="translate(843.759766 0.826562)"/>
     </g>
    </g>
   </g>
   <g id="patch_8">
    <path d="M 476.081633 320.4 
L 476.081633 72 
" style="fill: none; stroke: #000000; stroke-width: 3; stroke-linejoin: miter; stroke-linecap: square"/>
   </g>
   <g id="patch_9">
    <path d="M 703.836735 320.4 
L 703.836735 72 
" style="fill: none; stroke: #000000; stroke-width: 3; stroke-linejoin: miter; stroke-linecap: square"/>
   </g>
   <g id="patch_10">
    <path d="M 476.081633 320.4 
L 703.836735 320.4 
" style="fill: none; stroke: #000000; stroke-width: 3; stroke-linejoin: miter; stroke-linecap: square"/>
   </g>
   <g id="patch_11">
    <path d="M 476.081633 72 
L 703.836735 72 
" style="fill: none; stroke: #000000; stroke-width: 3; stroke-linejoin: miter; stroke-linecap: square"/>
   </g>
   <g id="FillBetweenPolyCollection_2">
    <defs>
     <path id="m3581f338be" d="M 482.780312 -146.194844 
L 482.780312 -146.194844 
L 483.857487 -146.194844 
L 484.934661 -146.194844 
L 486.011836 -146.194844 
L 487.08901 -146.194844 
L 488.166185 -146.194844 
L 489.24336 -146.194844 
L 490.320534 -146.194844 
L 491.397709 -146.194844 
L 492.474883 -146.194844 
L 493.552058 -146.194844 
L 494.629233 -146.194844 
L 495.706407 -146.194844 
L 496.783582 -146.194844 
L 497.860756 -146.194844 
L 498.937931 -146.194844 
L 500.015106 -146.194844 
L 501.09228 -146.194844 
L 502.169455 -146.194844 
L 503.246629 -146.194844 
L 504.323804 -146.194844 
L 505.400978 -146.194844 
L 506.478153 -146.194844 
L 507.555328 -146.194845 
L 508.632502 -146.194846 
L 509.57503 -146.194847 
L 509.709677 -146.194847 
L 510.786851 -146.194849 
L 511.864026 -146.194852 
L 512.941201 -146.194857 
L 514.018375 -146.194864 
L 515.09555 -146.194874 
L 516.172724 -146.194889 
L 517.249899 -146.194912 
L 518.327074 -146.194945 
L 519.404248 -146.194995 
L 520.481423 -146.195068 
L 521.558597 -146.195175 
L 522.635772 -146.195333 
L 523.712946 -146.195565 
L 524.790121 -146.19591 
L 525.867296 -146.196411 
L 526.94447 -146.197145 
L 528.021645 -146.198221 
L 529.098819 -146.199786 
L 530.175994 -146.202072 
L 531.253169 -146.205372 
L 532.330343 -146.210134 
L 533.407518 -146.216966 
L 534.484692 -146.226695 
L 535.561867 -146.240461 
L 536.369748 -146.25431 
L 536.639042 -146.259746 
L 537.716216 -146.286556 
L 538.793391 -146.32345 
L 539.870565 -146.373687 
L 540.94774 -146.441344 
L 542.024914 -146.531713 
L 543.102089 -146.650315 
L 544.179264 -146.804695 
L 545.256438 -147.002165 
L 546.333613 -147.253344 
L 547.410787 -147.564724 
L 548.487962 -147.947791 
L 549.565137 -148.4153 
L 550.642311 -148.97072 
L 551.719486 -149.621906 
L 552.79666 -150.378599 
L 553.873835 -151.245683 
L 554.95101 -152.218801 
L 556.028184 -153.300212 
L 557.105359 -154.486125 
L 558.182533 -155.771458 
L 559.259708 -157.143176 
L 560.336882 -158.592659 
L 561.414057 -160.108777 
L 562.491232 -161.678502 
L 563.164466 -162.680385 
L 563.568406 -163.287731 
L 564.645581 -164.924656 
L 565.722755 -166.576828 
L 566.79993 -168.232749 
L 567.877105 -169.882978 
L 568.954279 -171.517577 
L 570.031454 -173.129074 
L 571.108628 -174.709174 
L 572.185803 -176.254256 
L 573.262978 -177.757997 
L 574.340152 -179.216964 
L 575.417327 -180.629419 
L 576.494501 -181.99086 
L 577.571676 -183.301988 
L 578.64885 -184.560103 
L 579.726025 -185.765053 
L 580.8032 -186.917687 
L 581.880374 -188.016353 
L 582.957549 -189.063331 
L 584.034723 -190.058063 
L 585.111898 -191.001819 
L 586.189073 -191.640303 
L 587.266247 -191.955268 
L 588.343422 -192.235261 
L 589.420596 -192.482711 
L 589.959184 -192.59513 
L 590.497771 -192.700336 
L 591.574946 -192.736551 
L 592.65212 -192.757755 
L 593.729295 -192.76779 
L 594.806469 -192.767758 
L 595.883644 -192.758529 
L 596.960818 -192.74148 
L 598.037993 -192.717131 
L 599.115168 -192.686554 
L 600.192342 -192.650401 
L 601.269517 -192.609203 
L 602.346691 -192.563777 
L 603.423866 -192.51442 
L 604.501041 -192.461764 
L 605.578215 -192.406169 
L 606.65539 -192.347941 
L 607.732564 -192.287534 
L 608.809739 -192.22511 
L 609.886914 -192.161018 
L 610.964088 -192.095447 
L 612.041263 -192.028564 
L 613.118437 -191.960609 
L 614.195612 -191.891665 
L 615.272787 -191.821917 
L 616.349961 -191.751458 
L 616.753902 -191.724865 
L 617.427136 -191.680378 
L 618.50431 -191.608796 
L 619.581485 -191.536755 
L 620.658659 -191.464347 
L 621.735834 -191.391619 
L 622.813009 -191.318616 
L 623.890183 -191.245396 
L 624.967358 -191.171979 
L 626.044532 -191.098411 
L 627.121707 -191.024714 
L 628.198882 -190.950911 
L 629.276056 -190.877028 
L 630.353231 -190.803076 
L 631.430405 -190.729078 
L 632.50758 -190.655042 
L 633.584755 -190.580979 
L 634.661929 -190.506904 
L 635.739104 -190.43282 
L 636.816278 -190.358737 
L 637.893453 -190.284661 
L 638.970627 -190.210597 
L 640.047802 -190.13655 
L 641.124977 -190.062524 
L 642.202151 -189.988522 
L 643.279326 -189.914547 
L 643.548619 -189.896058 
L 644.3565 -189.840602 
L 645.433675 -189.766689 
L 646.51085 -189.69281 
L 647.588024 -189.618966 
L 648.665199 -189.545159 
L 649.742373 -189.47139 
L 650.819548 -189.39766 
L 651.896723 -189.32397 
L 652.973897 -189.250321 
L 654.051072 -189.176713 
L 655.128246 -189.103148 
L 656.205421 -189.029625 
L 657.282595 -188.956146 
L 658.35977 -188.88271 
L 659.436945 -188.809319 
L 660.514119 -188.735971 
L 661.591294 -188.662668 
L 662.668468 -188.589411 
L 663.745643 -188.516198 
L 664.822818 -188.443031 
L 665.899992 -188.369909 
L 666.977167 -188.296834 
L 668.054341 -188.223805 
L 669.131516 -188.150821 
L 670.208691 -188.077884 
L 670.343337 -188.068771 
L 671.285865 -188.004994 
L 672.36304 -187.93215 
L 673.440214 -187.859353 
L 674.517389 -187.786603 
L 675.594563 -187.713901 
L 676.671738 -187.641245 
L 677.748913 -187.568636 
L 678.826087 -187.496076 
L 679.903262 -187.423562 
L 680.980436 -187.351097 
L 682.057611 -187.27868 
L 683.134786 -187.20631 
L 684.21196 -187.133989 
L 685.289135 -187.061715 
L 686.366309 -186.989491 
L 687.443484 -186.917314 
L 688.520659 -186.845187 
L 689.597833 -186.773108 
L 690.675008 -186.701077 
L 691.752182 -186.629096 
L 692.829357 -186.557164 
L 693.906531 -186.485281 
L 694.983706 -186.413447 
L 696.060881 -186.341663 
L 697.138055 -186.269928 
L 697.138055 -205.934662 
L 697.138055 -205.934662 
L 696.060881 -206.002893 
L 694.983706 -206.07116 
L 693.906531 -206.139437 
L 692.829357 -206.207726 
L 691.752182 -206.276038 
L 690.675008 -206.344352 
L 689.597833 -206.41269 
L 688.520659 -206.481036 
L 687.443484 -206.549392 
L 686.366309 -206.617766 
L 685.289135 -206.686139 
L 684.21196 -206.754532 
L 683.134786 -206.822927 
L 682.057611 -206.891328 
L 680.980436 -206.95974 
L 679.903262 -207.028144 
L 678.826087 -207.096556 
L 677.748913 -207.164955 
L 676.671738 -207.233336 
L 675.594563 -207.30171 
L 674.517389 -207.370075 
L 673.440214 -207.438425 
L 672.36304 -207.506758 
L 671.285865 -207.575068 
L 670.343337 -207.634816 
L 670.208691 -207.64335 
L 669.131516 -207.711597 
L 668.054341 -207.779803 
L 666.977167 -207.847959 
L 665.899992 -207.916056 
L 664.822818 -207.984085 
L 663.745643 -208.052022 
L 662.668468 -208.119873 
L 661.591294 -208.187609 
L 660.514119 -208.255226 
L 659.436945 -208.322696 
L 658.35977 -208.390004 
L 657.282595 -208.457123 
L 656.205421 -208.524032 
L 655.128246 -208.590693 
L 654.051072 -208.657086 
L 652.973897 -208.723157 
L 651.896723 -208.788888 
L 650.819548 -208.854206 
L 649.742373 -208.919092 
L 648.665199 -208.983454 
L 647.588024 -209.047267 
L 646.51085 -209.110425 
L 645.433675 -209.17288 
L 644.3565 -209.234532 
L 643.548619 -209.280193 
L 643.279326 -209.295277 
L 642.202151 -209.355052 
L 641.124977 -209.413669 
L 640.047802 -209.471107 
L 638.970627 -209.527089 
L 637.893453 -209.581629 
L 636.816278 -209.63437 
L 635.739104 -209.685329 
L 634.661929 -209.734103 
L 633.584755 -209.780656 
L 632.50758 -209.824605 
L 631.430405 -209.865765 
L 630.353231 -209.903875 
L 629.276056 -209.93849 
L 628.198882 -209.969544 
L 627.121707 -209.99629 
L 626.044532 -210.018831 
L 624.967358 -210.036167 
L 623.890183 -210.048489 
L 622.813009 -210.054639 
L 621.735834 -210.054752 
L 620.658659 -210.047679 
L 619.581485 -210.033278 
L 618.50431 -210.010666 
L 617.427136 -209.979128 
L 616.753902 -209.954694 
L 616.349961 -209.93833 
L 615.272787 -209.886781 
L 614.195612 -209.824703 
L 613.118437 -209.749935 
L 612.041263 -209.663071 
L 610.964088 -209.561515 
L 609.886914 -209.445932 
L 608.809739 -209.313645 
L 607.732564 -209.164961 
L 606.65539 -208.997618 
L 605.578215 -208.810988 
L 604.501041 -208.603864 
L 603.423866 -208.374167 
L 602.346691 -208.121945 
L 601.269517 -207.843741 
L 600.192342 -207.540549 
L 599.115168 -207.208003 
L 598.037993 -206.847506 
L 596.960818 -206.454399 
L 595.883644 -206.029819 
L 594.806469 -205.569564 
L 593.729295 -205.073728 
L 592.65212 -204.539396 
L 591.574946 -203.964896 
L 590.497771 -203.349153 
L 589.959184 -203.024952 
L 589.420596 -202.750209 
L 588.343422 -202.40268 
L 587.266247 -202.067139 
L 586.189073 -201.866902 
L 585.111898 -201.637022 
L 584.034723 -201.374294 
L 582.957549 -201.076576 
L 581.880374 -200.740901 
L 580.8032 -200.493744 
L 579.726025 -200.220586 
L 578.64885 -199.910362 
L 577.571676 -199.560181 
L 576.494501 -199.16694 
L 575.417327 -198.726744 
L 574.340152 -198.236397 
L 573.262978 -197.691989 
L 572.185803 -197.089677 
L 571.108628 -196.42557 
L 570.031454 -195.695898 
L 568.954279 -194.895975 
L 567.877105 -194.022791 
L 566.79993 -193.071642 
L 565.722755 -192.038466 
L 564.645581 -190.921076 
L 563.568406 -189.713498 
L 563.164466 -189.237531 
L 562.491232 -188.443047 
L 561.414057 -187.199813 
L 560.336882 -185.857895 
L 559.259708 -184.413093 
L 558.182533 -182.865241 
L 557.105359 -181.214903 
L 556.028184 -179.461204 
L 554.95101 -177.609493 
L 553.873835 -175.665475 
L 552.79666 -173.637274 
L 551.719486 -171.539702 
L 550.642311 -169.386083 
L 549.565137 -167.198013 
L 548.487962 -165.000793 
L 547.410787 -162.822402 
L 546.333613 -160.694986 
L 545.256438 -158.652205 
L 544.179264 -156.726402 
L 543.102089 -154.948919 
L 542.024914 -153.343628 
L 540.94774 -151.928352 
L 539.870565 -150.709822 
L 538.793391 -149.687064 
L 537.716216 -148.848646 
L 536.639042 -148.17814 
L 536.369748 -148.034032 
L 535.561867 -147.653871 
L 534.484692 -147.252607 
L 533.407518 -146.951962 
L 532.330343 -146.730587 
L 531.253169 -146.570169 
L 530.175994 -146.45544 
L 529.098819 -146.374509 
L 528.021645 -146.317864 
L 526.94447 -146.27877 
L 525.867296 -146.251795 
L 524.790121 -146.233441 
L 523.712946 -146.220926 
L 522.635772 -146.212382 
L 521.558597 -146.206678 
L 520.481423 -146.202801 
L 519.404248 -146.200199 
L 518.327074 -146.198448 
L 517.249899 -146.197263 
L 516.172724 -146.19647 
L 515.09555 -146.195931 
L 514.018375 -146.195572 
L 512.941201 -146.19533 
L 511.864026 -146.195168 
L 510.786851 -146.195059 
L 509.709677 -146.194985 
L 509.57503 -146.194978 
L 508.632502 -146.194937 
L 507.555328 -146.194904 
L 506.478153 -146.194882 
L 505.400978 -146.194868 
L 504.323804 -146.194859 
L 503.246629 -146.194853 
L 502.169455 -146.194849 
L 501.09228 -146.194847 
L 500.015106 -146.194845 
L 498.937931 -146.194845 
L 497.860756 -146.194844 
L 496.783582 -146.194844 
L 495.706407 -146.194844 
L 494.629233 -146.194844 
L 493.552058 -146.194844 
L 492.474883 -146.194844 
L 491.397709 -146.194844 
L 490.320534 -146.194844 
L 489.24336 -146.194844 
L 488.166185 -146.194844 
L 487.08901 -146.194844 
L 486.011836 -146.194844 
L 484.934661 -146.194844 
L 483.857487 -146.194844 
L 482.780312 -146.194844 
z
" style="stroke: #40e0d0; stroke-opacity: 0.2"/>
    </defs>
    <g clip-path="url(#pc9f7669173)">
     <use xlink:href="#m3581f338be" x="0" y="360" style="fill: #40e0d0; fill-opacity: 0.2; stroke: #40e0d0; stroke-opacity: 0.2"/>
    </g>
   </g>
   <g id="FillBetweenPolyCollection_3">
    <defs>
     <path id="m10a972c85f" d="M 482.780312 -107.142707 
L 482.780312 -107.142707 
L 483.857487 -107.142707 
L 484.934661 -107.142707 
L 486.011836 -107.142707 
L 487.08901 -107.142707 
L 488.166185 -107.142707 
L 489.24336 -107.142707 
L 490.320534 -107.142707 
L 491.397709 -107.142707 
L 492.474883 -107.142707 
L 493.552058 -107.142707 
L 494.629233 -107.142707 
L 495.706407 -107.142707 
L 496.783582 -107.142707 
L 497.860756 -107.142707 
L 498.937931 -107.142707 
L 500.015106 -107.142707 
L 501.09228 -107.142707 
L 502.169455 -107.142707 
L 503.246629 -107.142707 
L 504.323804 -107.142707 
L 505.400978 -107.142707 
L 506.478153 -107.142707 
L 507.555328 -107.142707 
L 508.632502 -107.142707 
L 509.57503 -107.142707 
L 509.709677 -107.142707 
L 510.786851 -107.142707 
L 511.864026 -107.142707 
L 512.941201 -107.142707 
L 514.018375 -107.142707 
L 515.09555 -107.142707 
L 516.172724 -107.142707 
L 517.249899 -107.142707 
L 518.327074 -107.142707 
L 519.404248 -107.142707 
L 520.481423 -107.142707 
L 521.558597 -107.142707 
L 522.635772 -107.142707 
L 523.712946 -107.142707 
L 524.790121 -107.142707 
L 525.867296 -107.142707 
L 526.94447 -107.142707 
L 528.021645 -107.142707 
L 529.098819 -107.142708 
L 530.175994 -107.142708 
L 531.253169 -107.142708 
L 532.330343 -107.142709 
L 533.407518 -107.14271 
L 534.484692 -107.142711 
L 535.561867 -107.142713 
L 536.369748 -107.142715 
L 536.639042 -107.142716 
L 537.716216 -107.14272 
L 538.793391 -107.142726 
L 539.870565 -107.142735 
L 540.94774 -107.142748 
L 542.024914 -107.142767 
L 543.102089 -107.142795 
L 544.179264 -107.142835 
L 545.256438 -107.142893 
L 546.333613 -107.142976 
L 547.410787 -107.143097 
L 548.487962 -107.14327 
L 549.565137 -107.143518 
L 550.642311 -107.14387 
L 551.719486 -107.144368 
L 552.79666 -107.145065 
L 553.873835 -107.146037 
L 554.95101 -107.147381 
L 556.028184 -107.149263 
L 557.105359 -107.151794 
L 558.182533 -107.15513 
L 559.259708 -107.159635 
L 560.336882 -107.165558 
L 561.414057 -107.173149 
L 562.491232 -107.182969 
L 563.164466 -107.190514 
L 563.568406 -107.195601 
L 564.645581 -107.203737 
L 565.722755 -107.198131 
L 566.79993 -107.192167 
L 567.877105 -107.186005 
L 568.954279 -107.179782 
L 570.031454 -107.173584 
L 571.108628 -107.167482 
L 572.185803 -107.161583 
L 573.262978 -107.155952 
L 574.340152 -107.150665 
L 575.417327 -107.24669 
L 576.494501 -107.629056 
L 577.571676 -107.567311 
L 578.64885 -107.483038 
L 579.726025 -107.391305 
L 580.8032 -107.674252 
L 581.880374 -107.773991 
L 582.957549 -107.797582 
L 584.034723 -107.82239 
L 585.111898 -107.848401 
L 586.189073 -107.875583 
L 587.266247 -107.903902 
L 588.343422 -107.933323 
L 589.420596 -107.963781 
L 589.959184 -107.979389 
L 590.497771 -107.995242 
L 591.574946 -108.027636 
L 592.65212 -108.060906 
L 593.729295 -108.095005 
L 594.806469 -108.129852 
L 595.883644 -108.165409 
L 596.960818 -108.201602 
L 598.037993 -108.238379 
L 599.115168 -108.275693 
L 600.192342 -108.313477 
L 601.269517 -108.351697 
L 602.346691 -108.390293 
L 603.423866 -108.429226 
L 604.501041 -108.46846 
L 605.578215 -108.507945 
L 606.65539 -108.547658 
L 607.732564 -108.587557 
L 608.809739 -108.627615 
L 609.886914 -108.667808 
L 610.964088 -108.708105 
L 612.041263 -108.748488 
L 613.118437 -108.788934 
L 614.195612 -108.829426 
L 615.272787 -108.869948 
L 616.349961 -108.910482 
L 616.753902 -108.925683 
L 617.427136 -108.951018 
L 618.50431 -108.991542 
L 619.581485 -109.032046 
L 620.658659 -109.072518 
L 621.735834 -109.112952 
L 622.813009 -109.15334 
L 623.890183 -109.193675 
L 624.967358 -109.233953 
L 626.044532 -109.274167 
L 627.121707 -109.314316 
L 628.198882 -109.354393 
L 629.276056 -109.394398 
L 630.353231 -109.434327 
L 631.430405 -109.474177 
L 632.50758 -109.513947 
L 633.584755 -109.553635 
L 634.661929 -109.59324 
L 635.739104 -109.632762 
L 636.816278 -109.672197 
L 637.893453 -109.711548 
L 638.970627 -109.750812 
L 640.047802 -109.78999 
L 641.124977 -109.82908 
L 642.202151 -109.868084 
L 643.279326 -109.907 
L 643.548619 -109.916716 
L 644.3565 -109.945829 
L 645.433675 -109.984571 
L 646.51085 -110.023226 
L 647.588024 -110.061793 
L 648.665199 -110.100275 
L 649.742373 -110.138669 
L 650.819548 -110.176978 
L 651.896723 -110.2152 
L 652.973897 -110.253337 
L 654.051072 -110.291389 
L 655.128246 -110.329355 
L 656.205421 -110.367237 
L 657.282595 -110.405034 
L 658.35977 -110.442748 
L 659.436945 -110.480378 
L 660.514119 -110.517924 
L 661.591294 -110.555387 
L 662.668468 -110.592768 
L 663.745643 -110.630064 
L 664.822818 -110.667276 
L 665.899992 -110.922707 
L 666.977167 -111.59675 
L 668.054341 -112.250606 
L 669.131516 -112.885394 
L 670.208691 -113.502152 
L 670.343337 -113.578027 
L 671.285865 -114.101828 
L 672.36304 -114.685301 
L 673.440214 -115.253382 
L 674.517389 -115.806824 
L 675.594563 -116.346324 
L 676.671738 -116.872534 
L 677.748913 -117.386057 
L 678.826087 -117.887459 
L 679.903262 -118.377268 
L 680.980436 -118.85598 
L 682.057611 -119.324059 
L 683.134786 -119.781938 
L 684.21196 -120.230026 
L 685.289135 -120.668709 
L 686.366309 -121.098351 
L 687.443484 -121.519292 
L 688.520659 -121.931855 
L 689.597833 -122.336347 
L 690.675008 -122.733055 
L 691.752182 -123.122255 
L 692.829357 -123.504205 
L 693.906531 -123.879152 
L 694.983706 -124.24733 
L 696.060881 -124.608962 
L 697.138055 -124.964258 
L 697.138055 -160.179481 
L 697.138055 -160.179481 
L 696.060881 -160.00641 
L 694.983706 -159.831726 
L 693.906531 -159.655403 
L 692.829357 -159.477412 
L 691.752182 -159.297726 
L 690.675008 -159.116315 
L 689.597833 -158.933149 
L 688.520659 -158.748199 
L 687.443484 -158.561431 
L 686.366309 -158.372815 
L 685.289135 -158.182317 
L 684.21196 -157.989903 
L 683.134786 -157.795538 
L 682.057611 -157.599187 
L 680.980436 -157.400811 
L 679.903262 -157.200374 
L 678.826087 -156.997836 
L 677.748913 -156.793158 
L 676.671738 -156.586298 
L 675.594563 -156.377213 
L 674.517389 -156.16586 
L 673.440214 -155.952193 
L 672.36304 -155.736168 
L 671.285865 -155.517735 
L 670.343337 -155.324593 
L 670.208691 -155.296845 
L 669.131516 -155.073449 
L 668.054341 -154.847493 
L 666.977167 -154.618924 
L 665.899992 -154.387685 
L 664.822818 -154.15372 
L 663.745643 -153.916969 
L 662.668468 -153.677372 
L 661.591294 -153.434864 
L 660.514119 -153.18938 
L 659.436945 -152.940853 
L 658.35977 -152.689214 
L 657.282595 -152.434389 
L 656.205421 -152.176304 
L 655.128246 -151.914883 
L 654.051072 -151.650043 
L 652.973897 -151.381704 
L 651.896723 -151.109778 
L 650.819548 -150.834178 
L 649.742373 -150.554809 
L 648.665199 -150.271578 
L 647.588024 -149.984384 
L 646.51085 -149.693124 
L 645.433675 -149.397692 
L 644.3565 -149.097977 
L 643.548619 -148.87031 
L 643.279326 -148.793863 
L 642.202151 -148.48523 
L 641.124977 -148.171955 
L 640.047802 -147.853908 
L 638.970627 -147.530955 
L 637.893453 -147.202956 
L 636.816278 -146.869766 
L 635.739104 -146.531236 
L 634.661929 -146.187207 
L 633.584755 -145.837518 
L 632.50758 -145.482001 
L 631.430405 -145.120483 
L 630.353231 -144.752774 
L 629.276056 -144.378692 
L 628.198882 -143.998035 
L 627.121707 -143.6106 
L 626.044532 -143.216182 
L 624.967358 -142.814553 
L 623.890183 -142.405498 
L 622.813009 -141.988778 
L 621.735834 -141.564148 
L 620.658659 -141.131375 
L 619.581485 -140.690182 
L 618.50431 -140.240334 
L 617.427136 -139.781548 
L 616.753902 -139.490139 
L 616.349961 -139.313547 
L 615.272787 -138.836082 
L 614.195612 -138.348829 
L 613.118437 -137.851557 
L 612.041263 -137.343951 
L 610.964088 -136.825725 
L 609.886914 -136.296651 
L 608.809739 -135.756373 
L 607.732564 -135.204733 
L 606.65539 -134.641412 
L 605.578215 -134.066176 
L 604.501041 -133.478902 
L 603.423866 -132.879256 
L 602.346691 -132.267272 
L 601.269517 -131.64271 
L 600.192342 -131.005518 
L 599.115168 -130.355821 
L 598.037993 -129.693433 
L 596.960818 -129.018788 
L 595.883644 -128.331887 
L 594.806469 -127.633082 
L 593.729295 -126.922985 
L 592.65212 -126.201782 
L 591.574946 -125.470609 
L 590.497771 -124.729971 
L 589.959184 -124.356372 
L 589.420596 -123.980942 
L 588.343422 -123.224919 
L 587.266247 -122.462799 
L 586.189073 -121.696709 
L 585.111898 -120.927983 
L 584.034723 -120.158704 
L 582.957549 -119.391262 
L 581.880374 -118.627545 
L 580.8032 -117.870668 
L 579.726025 -117.122946 
L 578.64885 -116.387344 
L 577.571676 -115.666966 
L 576.494501 -114.96452 
L 575.417327 -114.283299 
L 574.340152 -113.626118 
L 573.262978 -112.995785 
L 572.185803 -112.394965 
L 571.108628 -111.826211 
L 570.031454 -111.291404 
L 568.954279 -110.792084 
L 567.877105 -110.329668 
L 566.79993 -109.904888 
L 565.722755 -109.517864 
L 564.645581 -109.168302 
L 563.568406 -108.856998 
L 563.164466 -108.749616 
L 562.491232 -108.580853 
L 561.414057 -108.337861 
L 560.336882 -108.126138 
L 559.259708 -107.943659 
L 558.182533 -107.789267 
L 557.105359 -107.659114 
L 556.028184 -107.550574 
L 554.95101 -107.460817 
L 553.873835 -107.388557 
L 552.79666 -107.330615 
L 551.719486 -107.284903 
L 550.642311 -107.249562 
L 549.565137 -107.223382 
L 548.487962 -107.203003 
L 547.410787 -107.187224 
L 546.333613 -107.175178 
L 545.256438 -107.16616 
L 544.179264 -107.159459 
L 543.102089 -107.154446 
L 542.024914 -107.15087 
L 540.94774 -107.14836 
L 539.870565 -107.146548 
L 538.793391 -107.145302 
L 537.716216 -107.144576 
L 536.639042 -107.143971 
L 536.369748 -107.143852 
L 535.561867 -107.143558 
L 534.484692 -107.143277 
L 533.407518 -107.143089 
L 532.330343 -107.142961 
L 531.253169 -107.142876 
L 530.175994 -107.142819 
L 529.098819 -107.142781 
L 528.021645 -107.142756 
L 526.94447 -107.142739 
L 525.867296 -107.142728 
L 524.790121 -107.142721 
L 523.712946 -107.142716 
L 522.635772 -107.142713 
L 521.558597 -107.142711 
L 520.481423 -107.14271 
L 519.404248 -107.142709 
L 518.327074 -107.142708 
L 517.249899 -107.142708 
L 516.172724 -107.142707 
L 515.09555 -107.142707 
L 514.018375 -107.142707 
L 512.941201 -107.142707 
L 511.864026 -107.142707 
L 510.786851 -107.142707 
L 509.709677 -107.142707 
L 509.57503 -107.142707 
L 508.632502 -107.142707 
L 507.555328 -107.142707 
L 506.478153 -107.142707 
L 505.400978 -107.142707 
L 504.323804 -107.142707 
L 503.246629 -107.142707 
L 502.169455 -107.142707 
L 501.09228 -107.142707 
L 500.015106 -107.142707 
L 498.937931 -107.142707 
L 497.860756 -107.142707 
L 496.783582 -107.142707 
L 495.706407 -107.142707 
L 494.629233 -107.142707 
L 493.552058 -107.142707 
L 492.474883 -107.142707 
L 491.397709 -107.142707 
L 490.320534 -107.142707 
L 489.24336 -107.142707 
L 488.166185 -107.142707 
L 487.08901 -107.142707 
L 486.011836 -107.142707 
L 484.934661 -107.142707 
L 483.857487 -107.142707 
L 482.780312 -107.142707 
z
" style="stroke: #40e0d0; stroke-opacity: 0.2"/>
    </defs>
    <g clip-path="url(#pc9f7669173)">
     <use xlink:href="#m10a972c85f" x="0" y="360" style="fill: #40e0d0; fill-opacity: 0.2; stroke: #40e0d0; stroke-opacity: 0.2"/>
    </g>
   </g>
   <g id="PathCollection_2">
    <g clip-path="url(#pc9f7669173)">
     <use xlink:href="#mee23f64305" x="482.780312" y="213.805156" style="fill: #40e0d0; fill-opacity: 0.8; stroke: #000000; stroke-opacity: 0.8"/>
     <use xlink:href="#mee23f64305" x="509.57503" y="195.340676" style="fill: #40e0d0; fill-opacity: 0.8; stroke: #000000; stroke-opacity: 0.8"/>
     <use xlink:href="#mee23f64305" x="536.369748" y="189.663168" style="fill: #40e0d0; fill-opacity: 0.8; stroke: #000000; stroke-opacity: 0.8"/>
     <use xlink:href="#mee23f64305" x="563.164466" y="187.655142" style="fill: #40e0d0; fill-opacity: 0.8; stroke: #000000; stroke-opacity: 0.8"/>
     <use xlink:href="#mee23f64305" x="589.959184" y="167.433158" style="fill: #40e0d0; fill-opacity: 0.8; stroke: #000000; stroke-opacity: 0.8"/>
     <use xlink:href="#mee23f64305" x="616.753902" y="154.055803" style="fill: #40e0d0; fill-opacity: 0.8; stroke: #000000; stroke-opacity: 0.8"/>
     <use xlink:href="#mee23f64305" x="643.548619" y="165.718799" style="fill: #40e0d0; fill-opacity: 0.8; stroke: #000000; stroke-opacity: 0.8"/>
     <use xlink:href="#mee23f64305" x="670.343337" y="165.578772" style="fill: #40e0d0; fill-opacity: 0.8; stroke: #000000; stroke-opacity: 0.8"/>
    </g>
   </g>
   <g id="PathCollection_3">
    <defs>
     <path id="m410161db72" d="M -7.071068 7.071068 
L 7.071068 7.071068 
L 7.071068 -7.071068 
L -7.071068 -7.071068 
z
" style="stroke: #000000; stroke-opacity: 0.8"/>
    </defs>
    <g clip-path="url(#pc9f7669173)">
     <use xlink:href="#m410161db72" x="482.780312" y="252.856826" style="fill: #40e0d0; fill-opacity: 0.8; stroke: #000000; stroke-opacity: 0.8"/>
     <use xlink:href="#m410161db72" x="509.57503" y="257.47445" style="fill: #40e0d0; fill-opacity: 0.8; stroke: #000000; stroke-opacity: 0.8"/>
     <use xlink:href="#m410161db72" x="536.369748" y="250.627293" style="fill: #40e0d0; fill-opacity: 0.8; stroke: #000000; stroke-opacity: 0.8"/>
     <use xlink:href="#m410161db72" x="563.164466" y="244.599839" style="fill: #40e0d0; fill-opacity: 0.8; stroke: #000000; stroke-opacity: 0.8"/>
     <use xlink:href="#m410161db72" x="589.959184" y="240.390983" style="fill: #40e0d0; fill-opacity: 0.8; stroke: #000000; stroke-opacity: 0.8"/>
     <use xlink:href="#m410161db72" x="616.753902" y="232.117221" style="fill: #40e0d0; fill-opacity: 0.8; stroke: #000000; stroke-opacity: 0.8"/>
     <use xlink:href="#m410161db72" x="643.548619" y="227.367163" style="fill: #40e0d0; fill-opacity: 0.8; stroke: #000000; stroke-opacity: 0.8"/>
     <use xlink:href="#m410161db72" x="670.343337" y="221.538406" style="fill: #40e0d0; fill-opacity: 0.8; stroke: #000000; stroke-opacity: 0.8"/>
    </g>
   </g>
   <g id="line2d_22">
    <path d="M 482.780312 213.805156 
L 532.330343 213.71655 
L 536.369748 213.47071 
L 538.793391 213.112267 
L 540.94774 212.54856 
L 543.102089 211.645466 
L 545.256438 210.297651 
L 547.410787 208.428437 
L 549.565137 206.018285 
L 551.719486 203.116217 
L 553.873835 199.83905 
L 558.182533 192.741467 
L 562.491232 185.785578 
L 564.645581 182.586371 
L 566.79993 179.632202 
L 568.954279 176.948747 
L 571.108628 174.53893 
L 573.262978 172.398743 
L 575.417327 170.516949 
L 577.571676 168.877617 
L 579.726025 167.461893 
L 581.880374 166.250259 
L 584.034723 165.222934 
L 587.266247 163.984579 
L 590.497771 163.053872 
L 593.729295 162.373882 
L 596.960818 161.89429 
L 601.269517 161.493023 
L 606.65539 161.262294 
L 613.118437 161.232515 
L 622.813009 161.442213 
L 642.202151 162.145456 
L 697.138055 164.313349 
L 697.138055 164.313349 
" clip-path="url(#pc9f7669173)" style="fill: none; stroke: #40e0d0; stroke-width: 3; stroke-linecap: square"/>
   </g>
   <g id="line2d_23">
    <path d="M 482.780312 252.857293 
L 553.873835 252.758625 
L 559.259708 252.530613 
L 563.568406 252.140826 
L 566.79993 251.672874 
L 570.031454 251.025343 
L 573.262978 250.187704 
L 576.494501 249.165387 
L 580.8032 247.552911 
L 586.189073 245.250322 
L 607.732564 235.677176 
L 614.195612 233.181784 
L 620.658659 230.908791 
L 628.198882 228.512191 
L 635.739104 226.353757 
L 644.3565 224.132283 
L 654.051072 221.892477 
L 663.745643 219.879221 
L 674.517389 217.861677 
L 686.366309 215.863534 
L 697.138055 214.215301 
L 697.138055 214.215301 
" clip-path="url(#pc9f7669173)" style="fill: none; stroke-dasharray: 11.1,4.8; stroke-dashoffset: 0; stroke: #40e0d0; stroke-width: 3"/>
   </g>
  </g>
  <g id="text_25">
   <!-- Individual 308 -->
   <g transform="translate(335.733375 29.532375) scale(0.312 -0.312)">
    <defs>
     <path id="ArialMT-49" d="M 597 0 
L 597 4581 
L 1203 4581 
L 1203 0 
L 597 0 
z
" transform="scale(0.015625)"/>
     <path id="ArialMT-6e" d="M 422 0 
L 422 3319 
L 928 3319 
L 928 2847 
Q 1294 3394 1984 3394 
Q 2284 3394 2536 3286 
Q 2788 3178 2913 3003 
Q 3038 2828 3088 2588 
Q 3119 2431 3119 2041 
L 3119 0 
L 2556 0 
L 2556 2019 
Q 2556 2363 2490 2533 
Q 2425 2703 2258 2804 
Q 2091 2906 1866 2906 
Q 1506 2906 1245 2678 
Q 984 2450 984 1813 
L 984 0 
L 422 0 
z
" transform="scale(0.015625)"/>
     <path id="ArialMT-76" d="M 1344 0 
L 81 3319 
L 675 3319 
L 1388 1331 
Q 1503 1009 1600 663 
Q 1675 925 1809 1294 
L 2547 3319 
L 3125 3319 
L 1869 0 
L 1344 0 
z
" transform="scale(0.015625)"/>
     <path id="ArialMT-61" d="M 2588 409 
Q 2275 144 1986 34 
Q 1697 -75 1366 -75 
Q 819 -75 525 192 
Q 231 459 231 875 
Q 231 1119 342 1320 
Q 453 1522 633 1644 
Q 813 1766 1038 1828 
Q 1203 1872 1538 1913 
Q 2219 1994 2541 2106 
Q 2544 2222 2544 2253 
Q 2544 2597 2384 2738 
Q 2169 2928 1744 2928 
Q 1347 2928 1158 2789 
Q 969 2650 878 2297 
L 328 2372 
Q 403 2725 575 2942 
Q 747 3159 1072 3276 
Q 1397 3394 1825 3394 
Q 2250 3394 2515 3294 
Q 2781 3194 2906 3042 
Q 3031 2891 3081 2659 
Q 3109 2516 3109 2141 
L 3109 1391 
Q 3109 606 3145 398 
Q 3181 191 3288 0 
L 2700 0 
Q 2613 175 2588 409 
z
M 2541 1666 
Q 2234 1541 1622 1453 
Q 1275 1403 1131 1340 
Q 988 1278 909 1158 
Q 831 1038 831 891 
Q 831 666 1001 516 
Q 1172 366 1500 366 
Q 1825 366 2078 508 
Q 2331 650 2450 897 
Q 2541 1088 2541 1459 
L 2541 1666 
z
" transform="scale(0.015625)"/>
     <path id="ArialMT-33" d="M 269 1209 
L 831 1284 
Q 928 806 1161 595 
Q 1394 384 1728 384 
Q 2125 384 2398 659 
Q 2672 934 2672 1341 
Q 2672 1728 2419 1979 
Q 2166 2231 1775 2231 
Q 1616 2231 1378 2169 
L 1441 2663 
Q 1497 2656 1531 2656 
Q 1891 2656 2178 2843 
Q 2466 3031 2466 3422 
Q 2466 3731 2256 3934 
Q 2047 4138 1716 4138 
Q 1388 4138 1169 3931 
Q 950 3725 888 3313 
L 325 3413 
Q 428 3978 793 4289 
Q 1159 4600 1703 4600 
Q 2078 4600 2393 4439 
Q 2709 4278 2876 4000 
Q 3044 3722 3044 3409 
Q 3044 3113 2884 2869 
Q 2725 2625 2413 2481 
Q 2819 2388 3044 2092 
Q 3269 1797 3269 1353 
Q 3269 753 2831 336 
Q 2394 -81 1725 -81 
Q 1122 -81 723 278 
Q 325 638 269 1209 
z
" transform="scale(0.015625)"/>
     <path id="ArialMT-30" d="M 266 2259 
Q 266 3072 433 3567 
Q 600 4063 929 4331 
Q 1259 4600 1759 4600 
Q 2128 4600 2406 4451 
Q 2684 4303 2865 4023 
Q 3047 3744 3150 3342 
Q 3253 2941 3253 2259 
Q 3253 1453 3087 958 
Q 2922 463 2592 192 
Q 2263 -78 1759 -78 
Q 1097 -78 719 397 
Q 266 969 266 2259 
z
M 844 2259 
Q 844 1131 1108 757 
Q 1372 384 1759 384 
Q 2147 384 2411 759 
Q 2675 1134 2675 2259 
Q 2675 3391 2411 3762 
Q 2147 4134 1753 4134 
Q 1366 4134 1134 3806 
Q 844 3388 844 2259 
z
" transform="scale(0.015625)"/>
    </defs>
    <use xlink:href="#ArialMT-49"/>
    <use xlink:href="#ArialMT-6e" transform="translate(27.783203 0)"/>
    <use xlink:href="#ArialMT-64" transform="translate(83.398438 0)"/>
    <use xlink:href="#ArialMT-69" transform="translate(139.013672 0)"/>
    <use xlink:href="#ArialMT-76" transform="translate(161.230469 0)"/>
    <use xlink:href="#ArialMT-69" transform="translate(211.230469 0)"/>
    <use xlink:href="#ArialMT-64" transform="translate(233.447266 0)"/>
    <use xlink:href="#ArialMT-75" transform="translate(289.0625 0)"/>
    <use xlink:href="#ArialMT-61" transform="translate(344.677734 0)"/>
    <use xlink:href="#ArialMT-6c" transform="translate(400.292969 0)"/>
    <use xlink:href="#ArialMT-20" transform="translate(422.509766 0)"/>
    <use xlink:href="#ArialMT-33" transform="translate(450.292969 0)"/>
    <use xlink:href="#ArialMT-30" transform="translate(505.908203 0)"/>
    <use xlink:href="#ArialMT-38" transform="translate(561.523438 0)"/>
   </g>
  </g>
 </g>
 <defs>
  <clipPath id="pbc0cbe7d10">
   <rect x="180" y="72" width="227.755102" height="248.4"/>
  </clipPath>
  <clipPath id="pc9f7669173">
   <rect x="476.081633" y="72" width="227.755102" height="248.4"/>
  </clipPath>
 </defs>
</svg>
