<?xml version="1.0" encoding="utf-8" standalone="no"?>
<!DOCTYPE svg PUBLIC "-//W3C//DTD SVG 1.1//EN"
  "http://www.w3.org/Graphics/SVG/1.1/DTD/svg11.dtd">
<svg xmlns:xlink="http://www.w3.org/1999/xlink" width="1440pt" height="360pt" viewBox="0 0 1440 360" xmlns="http://www.w3.org/2000/svg" version="1.1">
 <metadata>
  <rdf:RDF xmlns:dc="http://purl.org/dc/elements/1.1/" xmlns:cc="http://creativecommons.org/ns#" xmlns:rdf="http://www.w3.org/1999/02/22-rdf-syntax-ns#">
   <cc:Work>
    <dc:type rdf:resource="http://purl.org/dc/dcmitype/StillImage"/>
    <dc:date>2025-02-24T11:25:12.778691</dc:date>
    <dc:format>image/svg+xml</dc:format>
    <dc:creator>
     <cc:Agent>
      <dc:title>Matplotlib v3.10.0, https://matplotlib.org/</dc:title>
     </cc:Agent>
    </dc:creator>
   </cc:Work>
  </rdf:RDF>
 </metadata>
 <defs>
  <style type="text/css">*{stroke-linejoin: round; stroke-linecap: butt}</style>
 </defs>
 <g id="figure_1">
  <g id="patch_1">
   <path d="M 0 360 
L 1440 360 
L 1440 0 
L 0 0 
L 0 360 
z
" style="fill: none"/>
  </g>
  <g id="axes_1">
   <g id="patch_2">
    <path d="M 180 320.4 
L 407.755102 320.4 
L 407.755102 72 
L 180 72 
L 180 320.4 
z
" style="fill: none"/>
   </g>
   <g id="matplotlib.axis_1">
    <g id="xtick_1">
     <g id="line2d_1">
      <defs>
       <path id="m0d678455a4" d="M 0 0 
L 0 3.5 
" style="stroke: #000000; stroke-width: 0.8"/>
      </defs>
      <g>
       <use xlink:href="#m0d678455a4" x="186.698679" y="320.4" style="stroke: #000000; stroke-width: 0.8"/>
      </g>
     </g>
     <g id="text_1">
      <!-- 0 -->
      <g transform="translate(176.773179 351.107125) scale(0.312 -0.312)">
       <defs>
        <path id="DejaVuSans-30" d="M 2034 4250 
Q 1547 4250 1301 3770 
Q 1056 3291 1056 2328 
Q 1056 1369 1301 889 
Q 1547 409 2034 409 
Q 2525 409 2770 889 
Q 3016 1369 3016 2328 
Q 3016 3291 2770 3770 
Q 2525 4250 2034 4250 
z
M 2034 4750 
Q 2819 4750 3233 4129 
Q 3647 3509 3647 2328 
Q 3647 1150 3233 529 
Q 2819 -91 2034 -91 
Q 1250 -91 836 529 
Q 422 1150 422 2328 
Q 422 3509 836 4129 
Q 1250 4750 2034 4750 
z
" transform="scale(0.015625)"/>
       </defs>
       <use xlink:href="#DejaVuSans-30"/>
      </g>
     </g>
    </g>
    <g id="xtick_2">
     <g id="line2d_2">
      <g>
       <use xlink:href="#m0d678455a4" x="240.288115" y="320.4" style="stroke: #000000; stroke-width: 0.8"/>
      </g>
     </g>
     <g id="text_2">
      <!-- 2 -->
      <g transform="translate(230.362615 351.107125) scale(0.312 -0.312)">
       <defs>
        <path id="DejaVuSans-32" d="M 1228 531 
L 3431 531 
L 3431 0 
L 469 0 
L 469 531 
Q 828 903 1448 1529 
Q 2069 2156 2228 2338 
Q 2531 2678 2651 2914 
Q 2772 3150 2772 3378 
Q 2772 3750 2511 3984 
Q 2250 4219 1831 4219 
Q 1534 4219 1204 4116 
Q 875 4013 500 3803 
L 500 4441 
Q 881 4594 1212 4672 
Q 1544 4750 1819 4750 
Q 2544 4750 2975 4387 
Q 3406 4025 3406 3419 
Q 3406 3131 3298 2873 
Q 3191 2616 2906 2266 
Q 2828 2175 2409 1742 
Q 1991 1309 1228 531 
z
" transform="scale(0.015625)"/>
       </defs>
       <use xlink:href="#DejaVuSans-32"/>
      </g>
     </g>
    </g>
    <g id="xtick_3">
     <g id="line2d_3">
      <g>
       <use xlink:href="#m0d678455a4" x="293.877551" y="320.4" style="stroke: #000000; stroke-width: 0.8"/>
      </g>
     </g>
     <g id="text_3">
      <!-- 4 -->
      <g transform="translate(283.952051 351.107125) scale(0.312 -0.312)">
       <defs>
        <path id="DejaVuSans-34" d="M 2419 4116 
L 825 1625 
L 2419 1625 
L 2419 4116 
z
M 2253 4666 
L 3047 4666 
L 3047 1625 
L 3713 1625 
L 3713 1100 
L 3047 1100 
L 3047 0 
L 2419 0 
L 2419 1100 
L 313 1100 
L 313 1709 
L 2253 4666 
z
" transform="scale(0.015625)"/>
       </defs>
       <use xlink:href="#DejaVuSans-34"/>
      </g>
     </g>
    </g>
    <g id="xtick_4">
     <g id="line2d_4">
      <g>
       <use xlink:href="#m0d678455a4" x="347.466987" y="320.4" style="stroke: #000000; stroke-width: 0.8"/>
      </g>
     </g>
     <g id="text_4">
      <!-- 6 -->
      <g transform="translate(337.541487 351.107125) scale(0.312 -0.312)">
       <defs>
        <path id="DejaVuSans-36" d="M 2113 2584 
Q 1688 2584 1439 2293 
Q 1191 2003 1191 1497 
Q 1191 994 1439 701 
Q 1688 409 2113 409 
Q 2538 409 2786 701 
Q 3034 994 3034 1497 
Q 3034 2003 2786 2293 
Q 2538 2584 2113 2584 
z
M 3366 4563 
L 3366 3988 
Q 3128 4100 2886 4159 
Q 2644 4219 2406 4219 
Q 1781 4219 1451 3797 
Q 1122 3375 1075 2522 
Q 1259 2794 1537 2939 
Q 1816 3084 2150 3084 
Q 2853 3084 3261 2657 
Q 3669 2231 3669 1497 
Q 3669 778 3244 343 
Q 2819 -91 2113 -91 
Q 1303 -91 875 529 
Q 447 1150 447 2328 
Q 447 3434 972 4092 
Q 1497 4750 2381 4750 
Q 2619 4750 2861 4703 
Q 3103 4656 3366 4563 
z
" transform="scale(0.015625)"/>
       </defs>
       <use xlink:href="#DejaVuSans-36"/>
      </g>
     </g>
    </g>
    <g id="xtick_5">
     <g id="line2d_5">
      <g>
       <use xlink:href="#m0d678455a4" x="401.056423" y="320.4" style="stroke: #000000; stroke-width: 0.8"/>
      </g>
     </g>
     <g id="text_5">
      <!-- 8 -->
      <g transform="translate(391.130923 351.107125) scale(0.312 -0.312)">
       <defs>
        <path id="DejaVuSans-38" d="M 2034 2216 
Q 1584 2216 1326 1975 
Q 1069 1734 1069 1313 
Q 1069 891 1326 650 
Q 1584 409 2034 409 
Q 2484 409 2743 651 
Q 3003 894 3003 1313 
Q 3003 1734 2745 1975 
Q 2488 2216 2034 2216 
z
M 1403 2484 
Q 997 2584 770 2862 
Q 544 3141 544 3541 
Q 544 4100 942 4425 
Q 1341 4750 2034 4750 
Q 2731 4750 3128 4425 
Q 3525 4100 3525 3541 
Q 3525 3141 3298 2862 
Q 3072 2584 2669 2484 
Q 3125 2378 3379 2068 
Q 3634 1759 3634 1313 
Q 3634 634 3220 271 
Q 2806 -91 2034 -91 
Q 1263 -91 848 271 
Q 434 634 434 1313 
Q 434 1759 690 2068 
Q 947 2378 1403 2484 
z
M 1172 3481 
Q 1172 3119 1398 2916 
Q 1625 2713 2034 2713 
Q 2441 2713 2670 2916 
Q 2900 3119 2900 3481 
Q 2900 3844 2670 4047 
Q 2441 4250 2034 4250 
Q 1625 4250 1398 4047 
Q 1172 3844 1172 3481 
z
" transform="scale(0.015625)"/>
       </defs>
       <use xlink:href="#DejaVuSans-38"/>
      </g>
     </g>
    </g>
    <g id="text_6">
     <!-- Time (d) -->
     <g transform="translate(241.190989 382.415656) scale(0.286 -0.286)">
      <defs>
       <path id="ArialMT-54" d="M 1659 0 
L 1659 4041 
L 150 4041 
L 150 4581 
L 3781 4581 
L 3781 4041 
L 2266 4041 
L 2266 0 
L 1659 0 
z
" transform="scale(0.015625)"/>
       <path id="ArialMT-69" d="M 425 3934 
L 425 4581 
L 988 4581 
L 988 3934 
L 425 3934 
z
M 425 0 
L 425 3319 
L 988 3319 
L 988 0 
L 425 0 
z
" transform="scale(0.015625)"/>
       <path id="ArialMT-6d" d="M 422 0 
L 422 3319 
L 925 3319 
L 925 2853 
Q 1081 3097 1340 3245 
Q 1600 3394 1931 3394 
Q 2300 3394 2536 3241 
Q 2772 3088 2869 2813 
Q 3263 3394 3894 3394 
Q 4388 3394 4653 3120 
Q 4919 2847 4919 2278 
L 4919 0 
L 4359 0 
L 4359 2091 
Q 4359 2428 4304 2576 
Q 4250 2725 4106 2815 
Q 3963 2906 3769 2906 
Q 3419 2906 3187 2673 
Q 2956 2441 2956 1928 
L 2956 0 
L 2394 0 
L 2394 2156 
Q 2394 2531 2256 2718 
Q 2119 2906 1806 2906 
Q 1569 2906 1367 2781 
Q 1166 2656 1075 2415 
Q 984 2175 984 1722 
L 984 0 
L 422 0 
z
" transform="scale(0.015625)"/>
       <path id="ArialMT-65" d="M 2694 1069 
L 3275 997 
Q 3138 488 2766 206 
Q 2394 -75 1816 -75 
Q 1088 -75 661 373 
Q 234 822 234 1631 
Q 234 2469 665 2931 
Q 1097 3394 1784 3394 
Q 2450 3394 2872 2941 
Q 3294 2488 3294 1666 
Q 3294 1616 3291 1516 
L 816 1516 
Q 847 969 1125 678 
Q 1403 388 1819 388 
Q 2128 388 2347 550 
Q 2566 713 2694 1069 
z
M 847 1978 
L 2700 1978 
Q 2663 2397 2488 2606 
Q 2219 2931 1791 2931 
Q 1403 2931 1139 2672 
Q 875 2413 847 1978 
z
" transform="scale(0.015625)"/>
       <path id="ArialMT-20" transform="scale(0.015625)"/>
       <path id="ArialMT-28" d="M 1497 -1347 
Q 1031 -759 709 28 
Q 388 816 388 1659 
Q 388 2403 628 3084 
Q 909 3875 1497 4659 
L 1900 4659 
Q 1522 4009 1400 3731 
Q 1209 3300 1100 2831 
Q 966 2247 966 1656 
Q 966 153 1900 -1347 
L 1497 -1347 
z
" transform="scale(0.015625)"/>
       <path id="ArialMT-64" d="M 2575 0 
L 2575 419 
Q 2259 -75 1647 -75 
Q 1250 -75 917 144 
Q 584 363 401 755 
Q 219 1147 219 1656 
Q 219 2153 384 2558 
Q 550 2963 881 3178 
Q 1213 3394 1622 3394 
Q 1922 3394 2156 3267 
Q 2391 3141 2538 2938 
L 2538 4581 
L 3097 4581 
L 3097 0 
L 2575 0 
z
M 797 1656 
Q 797 1019 1065 703 
Q 1334 388 1700 388 
Q 2069 388 2326 689 
Q 2584 991 2584 1609 
Q 2584 2291 2321 2609 
Q 2059 2928 1675 2928 
Q 1300 2928 1048 2622 
Q 797 2316 797 1656 
z
" transform="scale(0.015625)"/>
       <path id="ArialMT-29" d="M 791 -1347 
L 388 -1347 
Q 1322 153 1322 1656 
Q 1322 2244 1188 2822 
Q 1081 3291 891 3722 
Q 769 4003 388 4659 
L 791 4659 
Q 1378 3875 1659 3084 
Q 1900 2403 1900 1659 
Q 1900 816 1576 28 
Q 1253 -759 791 -1347 
z
" transform="scale(0.015625)"/>
      </defs>
      <use xlink:href="#ArialMT-54"/>
      <use xlink:href="#ArialMT-69" transform="translate(57.333984 0)"/>
      <use xlink:href="#ArialMT-6d" transform="translate(79.550781 0)"/>
      <use xlink:href="#ArialMT-65" transform="translate(162.851562 0)"/>
      <use xlink:href="#ArialMT-20" transform="translate(218.466797 0)"/>
      <use xlink:href="#ArialMT-28" transform="translate(246.25 0)"/>
      <use xlink:href="#ArialMT-64" transform="translate(279.550781 0)"/>
      <use xlink:href="#ArialMT-29" transform="translate(335.166016 0)"/>
     </g>
    </g>
   </g>
   <g id="matplotlib.axis_2">
    <g id="ytick_1">
     <g id="line2d_6">
      <defs>
       <path id="m20a563c171" d="M 0 0 
L -3.5 0 
" style="stroke: #000000; stroke-width: 0.8"/>
      </defs>
      <g>
       <use xlink:href="#m20a563c171" x="180" y="312.872727" style="stroke: #000000; stroke-width: 0.8"/>
      </g>
     </g>
     <g id="text_7">
      <!-- 0 -->
      <g transform="translate(153.149 324.72629) scale(0.312 -0.312)">
       <use xlink:href="#DejaVuSans-30"/>
      </g>
     </g>
    </g>
    <g id="ytick_2">
     <g id="line2d_7">
      <g>
       <use xlink:href="#m20a563c171" x="180" y="252.654545" style="stroke: #000000; stroke-width: 0.8"/>
      </g>
     </g>
     <g id="text_8">
      <!-- 2 -->
      <g transform="translate(153.149 264.508108) scale(0.312 -0.312)">
       <use xlink:href="#DejaVuSans-32"/>
      </g>
     </g>
    </g>
    <g id="ytick_3">
     <g id="line2d_8">
      <g>
       <use xlink:href="#m20a563c171" x="180" y="192.436364" style="stroke: #000000; stroke-width: 0.8"/>
      </g>
     </g>
     <g id="text_9">
      <!-- 4 -->
      <g transform="translate(153.149 204.289926) scale(0.312 -0.312)">
       <use xlink:href="#DejaVuSans-34"/>
      </g>
     </g>
    </g>
    <g id="ytick_4">
     <g id="line2d_9">
      <g>
       <use xlink:href="#m20a563c171" x="180" y="132.218182" style="stroke: #000000; stroke-width: 0.8"/>
      </g>
     </g>
     <g id="text_10">
      <!-- 6 -->
      <g transform="translate(153.149 144.071744) scale(0.312 -0.312)">
       <use xlink:href="#DejaVuSans-36"/>
      </g>
     </g>
    </g>
    <g id="ytick_5">
     <g id="line2d_10">
      <g>
       <use xlink:href="#m20a563c171" x="180" y="72" style="stroke: #000000; stroke-width: 0.8"/>
      </g>
     </g>
     <g id="text_11">
      <!-- 8 -->
      <g transform="translate(153.149 83.853563) scale(0.312 -0.312)">
       <use xlink:href="#DejaVuSans-38"/>
      </g>
     </g>
    </g>
    <g id="text_12">
     <!-- Log$_{10}$ Virus (copies/mL) -->
     <g transform="translate(142.857 348.638) rotate(-90) scale(0.286 -0.286)">
      <defs>
       <path id="ArialMT-4c" d="M 469 0 
L 469 4581 
L 1075 4581 
L 1075 541 
L 3331 541 
L 3331 0 
L 469 0 
z
" transform="scale(0.015625)"/>
       <path id="ArialMT-6f" d="M 213 1659 
Q 213 2581 725 3025 
Q 1153 3394 1769 3394 
Q 2453 3394 2887 2945 
Q 3322 2497 3322 1706 
Q 3322 1066 3130 698 
Q 2938 331 2570 128 
Q 2203 -75 1769 -75 
Q 1072 -75 642 372 
Q 213 819 213 1659 
z
M 791 1659 
Q 791 1022 1069 705 
Q 1347 388 1769 388 
Q 2188 388 2466 706 
Q 2744 1025 2744 1678 
Q 2744 2294 2464 2611 
Q 2184 2928 1769 2928 
Q 1347 2928 1069 2612 
Q 791 2297 791 1659 
z
" transform="scale(0.015625)"/>
       <path id="ArialMT-67" d="M 319 -275 
L 866 -356 
Q 900 -609 1056 -725 
Q 1266 -881 1628 -881 
Q 2019 -881 2231 -725 
Q 2444 -569 2519 -288 
Q 2563 -116 2559 434 
Q 2191 0 1641 0 
Q 956 0 581 494 
Q 206 988 206 1678 
Q 206 2153 378 2554 
Q 550 2956 876 3175 
Q 1203 3394 1644 3394 
Q 2231 3394 2613 2919 
L 2613 3319 
L 3131 3319 
L 3131 450 
Q 3131 -325 2973 -648 
Q 2816 -972 2473 -1159 
Q 2131 -1347 1631 -1347 
Q 1038 -1347 672 -1080 
Q 306 -813 319 -275 
z
M 784 1719 
Q 784 1066 1043 766 
Q 1303 466 1694 466 
Q 2081 466 2343 764 
Q 2606 1063 2606 1700 
Q 2606 2309 2336 2618 
Q 2066 2928 1684 2928 
Q 1309 2928 1046 2623 
Q 784 2319 784 1719 
z
" transform="scale(0.015625)"/>
       <path id="DejaVuSans-31" d="M 794 531 
L 1825 531 
L 1825 4091 
L 703 3866 
L 703 4441 
L 1819 4666 
L 2450 4666 
L 2450 531 
L 3481 531 
L 3481 0 
L 794 0 
L 794 531 
z
" transform="scale(0.015625)"/>
       <path id="ArialMT-56" d="M 1803 0 
L 28 4581 
L 684 4581 
L 1875 1253 
Q 2019 853 2116 503 
Q 2222 878 2363 1253 
L 3600 4581 
L 4219 4581 
L 2425 0 
L 1803 0 
z
" transform="scale(0.015625)"/>
       <path id="ArialMT-72" d="M 416 0 
L 416 3319 
L 922 3319 
L 922 2816 
Q 1116 3169 1280 3281 
Q 1444 3394 1641 3394 
Q 1925 3394 2219 3213 
L 2025 2691 
Q 1819 2813 1613 2813 
Q 1428 2813 1281 2702 
Q 1134 2591 1072 2394 
Q 978 2094 978 1738 
L 978 0 
L 416 0 
z
" transform="scale(0.015625)"/>
       <path id="ArialMT-75" d="M 2597 0 
L 2597 488 
Q 2209 -75 1544 -75 
Q 1250 -75 995 37 
Q 741 150 617 320 
Q 494 491 444 738 
Q 409 903 409 1263 
L 409 3319 
L 972 3319 
L 972 1478 
Q 972 1038 1006 884 
Q 1059 663 1231 536 
Q 1403 409 1656 409 
Q 1909 409 2131 539 
Q 2353 669 2445 892 
Q 2538 1116 2538 1541 
L 2538 3319 
L 3100 3319 
L 3100 0 
L 2597 0 
z
" transform="scale(0.015625)"/>
       <path id="ArialMT-73" d="M 197 991 
L 753 1078 
Q 800 744 1014 566 
Q 1228 388 1613 388 
Q 2000 388 2187 545 
Q 2375 703 2375 916 
Q 2375 1106 2209 1216 
Q 2094 1291 1634 1406 
Q 1016 1563 777 1677 
Q 538 1791 414 1992 
Q 291 2194 291 2438 
Q 291 2659 392 2848 
Q 494 3038 669 3163 
Q 800 3259 1026 3326 
Q 1253 3394 1513 3394 
Q 1903 3394 2198 3281 
Q 2494 3169 2634 2976 
Q 2775 2784 2828 2463 
L 2278 2388 
Q 2241 2644 2061 2787 
Q 1881 2931 1553 2931 
Q 1166 2931 1000 2803 
Q 834 2675 834 2503 
Q 834 2394 903 2306 
Q 972 2216 1119 2156 
Q 1203 2125 1616 2013 
Q 2213 1853 2448 1751 
Q 2684 1650 2818 1456 
Q 2953 1263 2953 975 
Q 2953 694 2789 445 
Q 2625 197 2315 61 
Q 2006 -75 1616 -75 
Q 969 -75 630 194 
Q 291 463 197 991 
z
" transform="scale(0.015625)"/>
       <path id="ArialMT-63" d="M 2588 1216 
L 3141 1144 
Q 3050 572 2676 248 
Q 2303 -75 1759 -75 
Q 1078 -75 664 370 
Q 250 816 250 1647 
Q 250 2184 428 2587 
Q 606 2991 970 3192 
Q 1334 3394 1763 3394 
Q 2303 3394 2647 3120 
Q 2991 2847 3088 2344 
L 2541 2259 
Q 2463 2594 2264 2762 
Q 2066 2931 1784 2931 
Q 1359 2931 1093 2626 
Q 828 2322 828 1663 
Q 828 994 1084 691 
Q 1341 388 1753 388 
Q 2084 388 2306 591 
Q 2528 794 2588 1216 
z
" transform="scale(0.015625)"/>
       <path id="ArialMT-70" d="M 422 -1272 
L 422 3319 
L 934 3319 
L 934 2888 
Q 1116 3141 1344 3267 
Q 1572 3394 1897 3394 
Q 2322 3394 2647 3175 
Q 2972 2956 3137 2557 
Q 3303 2159 3303 1684 
Q 3303 1175 3120 767 
Q 2938 359 2589 142 
Q 2241 -75 1856 -75 
Q 1575 -75 1351 44 
Q 1128 163 984 344 
L 984 -1272 
L 422 -1272 
z
M 931 1641 
Q 931 1000 1190 694 
Q 1450 388 1819 388 
Q 2194 388 2461 705 
Q 2728 1022 2728 1688 
Q 2728 2322 2467 2637 
Q 2206 2953 1844 2953 
Q 1484 2953 1207 2617 
Q 931 2281 931 1641 
z
" transform="scale(0.015625)"/>
       <path id="ArialMT-2f" d="M 0 -78 
L 1328 4659 
L 1778 4659 
L 453 -78 
L 0 -78 
z
" transform="scale(0.015625)"/>
      </defs>
      <use xlink:href="#ArialMT-4c" transform="translate(0 0.203125)"/>
      <use xlink:href="#ArialMT-6f" transform="translate(55.615234 0.203125)"/>
      <use xlink:href="#ArialMT-67" transform="translate(111.230469 0.203125)"/>
      <use xlink:href="#DejaVuSans-31" transform="translate(167.802734 -16.203125) scale(0.7)"/>
      <use xlink:href="#DejaVuSans-30" transform="translate(212.338867 -16.203125) scale(0.7)"/>
      <use xlink:href="#ArialMT-20" transform="translate(259.609375 0.203125)"/>
      <use xlink:href="#ArialMT-56" transform="translate(287.392578 0.203125)"/>
      <use xlink:href="#ArialMT-69" transform="translate(354.091797 0.203125)"/>
      <use xlink:href="#ArialMT-72" transform="translate(376.308594 0.203125)"/>
      <use xlink:href="#ArialMT-75" transform="translate(409.609375 0.203125)"/>
      <use xlink:href="#ArialMT-73" transform="translate(465.224609 0.203125)"/>
      <use xlink:href="#ArialMT-20" transform="translate(515.224609 0.203125)"/>
      <use xlink:href="#ArialMT-28" transform="translate(543.007812 0.203125)"/>
      <use xlink:href="#ArialMT-63" transform="translate(576.308594 0.203125)"/>
      <use xlink:href="#ArialMT-6f" transform="translate(626.308594 0.203125)"/>
      <use xlink:href="#ArialMT-70" transform="translate(681.923828 0.203125)"/>
      <use xlink:href="#ArialMT-69" transform="translate(737.539062 0.203125)"/>
      <use xlink:href="#ArialMT-65" transform="translate(759.755859 0.203125)"/>
      <use xlink:href="#ArialMT-73" transform="translate(815.371094 0.203125)"/>
      <use xlink:href="#ArialMT-2f" transform="translate(865.371094 0.203125)"/>
      <use xlink:href="#ArialMT-6d" transform="translate(893.154297 0.203125)"/>
      <use xlink:href="#ArialMT-4c" transform="translate(976.455078 0.203125)"/>
      <use xlink:href="#ArialMT-29" transform="translate(1032.070312 0.203125)"/>
     </g>
    </g>
   </g>
   <g id="patch_3">
    <path d="M 180 320.4 
L 180 72 
" style="fill: none; stroke: #000000; stroke-width: 3; stroke-linejoin: miter; stroke-linecap: square"/>
   </g>
   <g id="patch_4">
    <path d="M 407.755102 320.4 
L 407.755102 72 
" style="fill: none; stroke: #000000; stroke-width: 3; stroke-linejoin: miter; stroke-linecap: square"/>
   </g>
   <g id="patch_5">
    <path d="M 180 320.4 
L 407.755102 320.4 
" style="fill: none; stroke: #000000; stroke-width: 3; stroke-linejoin: miter; stroke-linecap: square"/>
   </g>
   <g id="patch_6">
    <path d="M 180 72 
L 407.755102 72 
" style="fill: none; stroke: #000000; stroke-width: 3; stroke-linejoin: miter; stroke-linecap: square"/>
   </g>
   <g id="FillBetweenPolyCollection_1">
    <defs>
     <path id="m696308a079" d="M 186.698679 -47.127273 
L 186.698679 -47.127273 
L 187.775854 -47.127273 
L 188.853029 -47.127273 
L 189.930203 -47.127273 
L 191.007378 -49.026669 
L 192.084552 -54.813744 
L 193.161727 -60.489441 
L 194.238902 -66.17301 
L 195.316076 -71.770928 
L 196.393251 -77.357201 
L 197.470425 -82.840235 
L 198.5476 -88.25631 
L 199.624775 -93.546984 
L 200.701949 -98.712507 
L 201.779124 -103.753809 
L 202.856298 -108.642262 
L 203.933473 -113.400373 
L 205.010647 -118.062999 
L 206.087822 -122.65974 
L 207.164997 -127.221851 
L 208.242171 -131.782752 
L 209.319346 -136.380795 
L 210.39652 -141.055322 
L 211.473695 -145.804443 
L 212.55087 -150.728629 
L 213.493397 -155.084123 
L 213.628044 -155.718157 
L 214.705219 -160.80994 
L 215.782393 -165.990992 
L 216.859568 -171.172772 
L 217.936743 -176.354363 
L 219.013917 -181.481921 
L 220.091092 -186.489428 
L 221.168266 -191.296485 
L 222.245441 -195.80798 
L 223.322615 -199.918956 
L 224.39979 -203.527408 
L 225.476965 -206.554077 
L 226.554139 -208.942432 
L 227.631314 -210.737756 
L 228.708488 -211.998196 
L 229.785663 -212.793053 
L 230.862838 -213.204262 
L 231.940012 -213.291841 
L 233.017187 -213.126105 
L 234.094361 -212.766391 
L 235.171536 -212.248373 
L 236.248711 -211.598941 
L 237.325885 -210.838466 
L 238.40306 -209.982461 
L 239.480234 -209.042819 
L 240.288115 -208.287138 
L 240.557409 -208.026525 
L 241.634583 -206.943246 
L 242.711758 -205.797464 
L 243.788933 -204.593359 
L 244.866107 -203.33378 
L 245.943282 -202.019674 
L 247.020456 -200.651915 
L 248.097631 -199.230035 
L 249.174806 -197.752461 
L 250.25198 -196.216788 
L 251.329155 -194.618244 
L 252.406329 -192.953136 
L 253.483504 -191.213234 
L 254.560679 -189.389548 
L 255.637853 -187.467047 
L 256.715028 -185.433942 
L 257.792202 -183.264846 
L 258.869377 -180.930665 
L 259.946551 -178.381291 
L 261.023726 -175.558698 
L 262.100901 -172.360245 
L 263.178075 -168.613721 
L 264.25525 -163.98736 
L 265.332424 -157.74737 
L 266.409599 -147.55022 
L 267.082833 -134.021121 
L 267.486774 -115.375711 
L 268.563948 -69.430555 
L 269.641123 -66.23614 
L 270.718297 -64.254492 
L 271.795472 -62.139111 
L 272.872647 -60.047326 
L 273.949821 -57.968615 
L 275.026996 -55.890629 
L 276.10417 -53.838428 
L 277.181345 -51.797687 
L 278.258519 -49.751958 
L 279.335694 -47.71168 
L 280.412869 -47.127273 
L 281.490043 -47.127273 
L 282.567218 -47.127273 
L 283.644392 -47.127273 
L 284.721567 -47.127273 
L 285.798742 -47.127273 
L 286.875916 -47.127273 
L 287.953091 -47.127273 
L 289.030265 -47.127273 
L 290.10744 -47.127273 
L 291.184615 -47.127273 
L 292.261789 -47.127273 
L 293.338964 -47.127273 
L 293.877551 -47.127273 
L 294.416138 -47.127273 
L 295.493313 -47.127273 
L 296.570487 -47.127273 
L 297.647662 -47.127273 
L 298.724837 -47.127273 
L 299.802011 -47.127273 
L 300.879186 -47.127273 
L 301.95636 -47.127273 
L 303.033535 -47.127273 
L 304.11071 -47.127273 
L 305.187884 -47.127273 
L 306.265059 -47.127273 
L 307.342233 -47.127273 
L 308.419408 -47.127273 
L 309.496583 -47.127273 
L 310.573757 -47.127273 
L 311.650932 -47.127273 
L 312.728106 -47.127273 
L 313.805281 -47.127273 
L 314.882455 -47.127273 
L 315.95963 -47.127273 
L 317.036805 -47.127273 
L 318.113979 -47.127273 
L 319.191154 -47.127273 
L 320.268328 -47.127273 
L 320.672269 -47.127273 
L 321.345503 -47.127273 
L 322.422678 -47.127273 
L 323.499852 -47.127273 
L 324.577027 -47.127273 
L 325.654201 -47.127273 
L 326.731376 -47.127273 
L 327.808551 -47.127273 
L 328.885725 -47.127273 
L 329.9629 -47.127273 
L 331.040074 -47.127273 
L 332.117249 -47.127273 
L 333.194423 -47.127273 
L 334.271598 -47.127273 
L 335.348773 -47.127273 
L 336.425947 -47.127273 
L 337.503122 -47.127273 
L 338.580296 -47.127273 
L 339.657471 -47.127273 
L 340.734646 -47.127273 
L 341.81182 -47.127273 
L 342.888995 -47.127273 
L 343.966169 -47.127273 
L 345.043344 -47.127273 
L 346.120519 -47.127273 
L 347.197693 -47.127273 
L 347.466987 -47.127273 
L 348.274868 -47.127273 
L 349.352042 -47.127273 
L 350.429217 -47.127273 
L 351.506392 -47.127273 
L 352.583566 -47.127273 
L 353.660741 -47.127273 
L 354.737915 -47.127273 
L 355.81509 -47.127273 
L 356.892264 -47.127273 
L 357.969439 -47.127273 
L 359.046614 -47.127273 
L 360.123788 -47.127273 
L 361.200963 -47.127273 
L 362.278137 -47.127273 
L 363.355312 -47.127273 
L 364.432487 -47.127273 
L 365.509661 -47.127273 
L 366.586836 -47.127273 
L 367.66401 -47.127273 
L 368.741185 -47.127273 
L 369.81836 -47.127273 
L 370.895534 -47.127273 
L 371.972709 -47.127273 
L 373.049883 -47.127273 
L 374.127058 -47.127273 
L 374.261705 -47.127273 
L 375.204232 -47.127273 
L 376.281407 -47.127273 
L 377.358582 -47.127273 
L 378.435756 -47.127273 
L 379.512931 -47.127273 
L 380.590105 -47.127273 
L 381.66728 -47.127273 
L 382.744455 -47.127273 
L 383.821629 -47.127273 
L 384.898804 -47.127273 
L 385.975978 -47.127273 
L 387.053153 -47.127273 
L 388.130328 -47.127273 
L 389.207502 -47.127273 
L 390.284677 -47.127273 
L 391.361851 -47.127273 
L 392.439026 -47.127273 
L 393.5162 -47.127273 
L 394.593375 -47.127273 
L 395.67055 -47.127273 
L 396.747724 -47.127273 
L 397.824899 -47.127273 
L 398.902073 -47.127273 
L 399.979248 -47.127273 
L 401.056423 -47.127273 
L 401.056423 -47.127273 
L 401.056423 -47.127273 
L 399.979248 -47.127273 
L 398.902073 -47.127273 
L 397.824899 -47.127273 
L 396.747724 -47.127273 
L 395.67055 -47.127273 
L 394.593375 -47.127273 
L 393.5162 -47.127273 
L 392.439026 -47.127273 
L 391.361851 -47.127273 
L 390.284677 -47.127273 
L 389.207502 -47.127273 
L 388.130328 -47.127273 
L 387.053153 -47.127273 
L 385.975978 -47.127273 
L 384.898804 -47.127273 
L 383.821629 -47.127273 
L 382.744455 -47.127273 
L 381.66728 -47.127273 
L 380.590105 -47.127273 
L 379.512931 -47.127273 
L 378.435756 -47.127273 
L 377.358582 -47.127273 
L 376.281407 -47.127273 
L 375.204232 -47.127273 
L 374.261705 -47.127273 
L 374.127058 -47.127273 
L 373.049883 -47.127273 
L 371.972709 -47.127273 
L 370.895534 -47.127273 
L 369.81836 -47.127273 
L 368.741185 -47.127273 
L 367.66401 -47.127273 
L 366.586836 -47.127273 
L 365.509661 -47.127273 
L 364.432487 -47.127273 
L 363.355312 -47.127273 
L 362.278137 -47.127273 
L 361.200963 -47.127273 
L 360.123788 -47.127273 
L 359.046614 -47.127273 
L 357.969439 -47.127273 
L 356.892264 -47.127273 
L 355.81509 -47.127273 
L 354.737915 -47.127273 
L 353.660741 -47.127273 
L 352.583566 -47.127273 
L 351.506392 -47.127273 
L 350.429217 -47.127273 
L 349.352042 -47.127273 
L 348.274868 -47.127273 
L 347.466987 -47.127273 
L 347.197693 -47.127273 
L 346.120519 -47.127273 
L 345.043344 -47.127273 
L 343.966169 -47.127273 
L 342.888995 -47.127273 
L 341.81182 -47.127273 
L 340.734646 -47.127273 
L 339.657471 -47.127273 
L 338.580296 -47.127273 
L 337.503122 -47.127273 
L 336.425947 -47.127273 
L 335.348773 -47.127273 
L 334.271598 -47.127273 
L 333.194423 -47.127273 
L 332.117249 -47.127273 
L 331.040074 -47.127273 
L 329.9629 -47.127273 
L 328.885725 -47.127273 
L 327.808551 -47.127273 
L 326.731376 -47.127273 
L 325.654201 -47.127273 
L 324.577027 -47.127273 
L 323.499852 -47.127273 
L 322.422678 -47.127273 
L 321.345503 -47.127273 
L 320.672269 -47.127273 
L 320.268328 -47.127273 
L 319.191154 -47.127273 
L 318.113979 -47.127273 
L 317.036805 -47.127273 
L 315.95963 -47.127273 
L 314.882455 -47.127273 
L 313.805281 -47.127273 
L 312.728106 -47.127273 
L 311.650932 -47.127273 
L 310.573757 -47.127273 
L 309.496583 -47.127273 
L 308.419408 -47.127273 
L 307.342233 -47.127273 
L 306.265059 -47.127273 
L 305.187884 -47.127273 
L 304.11071 -47.127273 
L 303.033535 -47.127273 
L 301.95636 -47.127273 
L 300.879186 -47.127273 
L 299.802011 -47.127273 
L 298.724837 -47.127273 
L 297.647662 -47.127273 
L 296.570487 -47.127273 
L 295.493313 -47.127273 
L 294.416138 -47.127273 
L 293.877551 -47.127273 
L 293.338964 -47.127273 
L 292.261789 -47.127273 
L 291.184615 -47.127273 
L 290.10744 -47.127273 
L 289.030265 -47.127273 
L 287.953091 -47.127273 
L 286.875916 -47.127273 
L 285.798742 -47.127273 
L 284.721567 -47.127273 
L 283.644392 -47.127273 
L 282.567218 -47.127273 
L 281.490043 -47.127273 
L 280.412869 -47.127273 
L 279.335694 -48.050033 
L 278.258519 -50.081341 
L 277.181345 -52.12976 
L 276.10417 -54.180745 
L 275.026996 -56.237541 
L 273.949821 -58.302007 
L 272.872647 -60.382144 
L 271.795472 -62.480822 
L 270.718297 -64.585901 
L 269.641123 -66.732428 
L 268.563948 -73.559852 
L 267.486774 -121.33572 
L 267.082833 -137.260632 
L 266.409599 -149.025363 
L 265.332424 -158.525715 
L 264.25525 -164.529821 
L 263.178075 -169.033056 
L 262.100901 -172.708916 
L 261.023726 -175.86294 
L 259.946551 -178.656135 
L 258.869377 -181.176386 
L 257.792202 -183.491252 
L 256.715028 -185.646911 
L 255.637853 -187.669844 
L 254.560679 -189.578406 
L 253.483504 -191.392685 
L 252.406329 -193.12609 
L 251.329155 -194.784223 
L 250.25198 -196.374755 
L 249.174806 -197.904364 
L 248.097631 -199.375718 
L 247.020456 -200.791448 
L 245.943282 -202.152816 
L 244.866107 -203.460763 
L 243.788933 -204.713545 
L 242.711758 -205.911721 
L 241.634583 -207.051668 
L 240.557409 -208.12911 
L 240.288115 -208.387903 
L 239.480234 -209.138384 
L 238.40306 -210.072086 
L 237.325885 -210.920974 
L 236.248711 -211.673048 
L 235.171536 -212.312781 
L 234.094361 -212.818207 
L 233.017187 -213.162235 
L 231.940012 -213.313096 
L 230.862838 -213.235504 
L 229.785663 -212.859494 
L 228.708488 -212.110135 
L 227.631314 -210.905775 
L 226.554139 -209.160998 
L 225.476965 -206.820995 
L 224.39979 -203.880967 
L 223.322615 -200.367746 
L 222.245441 -196.322697 
L 221.168266 -191.861673 
L 220.091092 -187.082961 
L 219.013917 -182.058327 
L 217.936743 -176.91957 
L 216.859568 -171.675007 
L 215.782393 -166.437343 
L 214.705219 -161.25493 
L 213.628044 -156.097241 
L 213.493397 -155.467158 
L 212.55087 -151.08697 
L 211.473695 -146.173591 
L 210.39652 -141.374816 
L 209.319346 -136.672854 
L 208.242171 -131.99274 
L 207.164997 -127.404195 
L 206.087822 -122.79331 
L 205.010647 -118.163629 
L 203.933473 -113.475663 
L 202.856298 -108.666957 
L 201.779124 -103.778723 
L 200.701949 -98.716958 
L 199.624775 -93.548344 
L 198.5476 -88.256999 
L 197.470425 -82.841099 
L 196.393251 -77.357685 
L 195.316076 -71.771283 
L 194.238902 -66.173227 
L 193.161727 -60.489441 
L 192.084552 -54.813744 
L 191.007378 -49.026669 
L 189.930203 -47.127273 
L 188.853029 -47.127273 
L 187.775854 -47.127273 
L 186.698679 -47.127273 
z
" style="stroke: #006400; stroke-opacity: 0.2"/>
    </defs>
    <g clip-path="url(#p0da4e56bb4)">
     <use xlink:href="#m696308a079" x="0" y="360" style="fill: #006400; fill-opacity: 0.2; stroke: #006400; stroke-opacity: 0.2"/>
    </g>
   </g>
   <g id="PathCollection_1">
    <defs>
     <path id="m0c8d801803" d="M 0 7.071068 
C 1.875269 7.071068 3.673985 6.326016 5 5 
C 6.326016 3.673985 7.071068 1.875269 7.071068 0 
C 7.071068 -1.875269 6.326016 -3.673985 5 -5 
C 3.673985 -6.326016 1.875269 -7.071068 0 -7.071068 
C -1.875269 -7.071068 -3.673985 -6.326016 -5 -5 
C -6.326016 -3.673985 -7.071068 -1.875269 -7.071068 0 
C -7.071068 1.875269 -6.326016 3.673985 -5 5 
C -3.673985 6.326016 -1.875269 7.071068 0 7.071068 
z
" style="stroke: #000000; stroke-opacity: 0.8"/>
    </defs>
    <g clip-path="url(#p0da4e56bb4)">
     <use xlink:href="#m0c8d801803" x="186.698679" y="312.872727" style="fill: #006400; fill-opacity: 0.8; stroke: #000000; stroke-opacity: 0.8"/>
     <use xlink:href="#m0c8d801803" x="213.493397" y="205.157701" style="fill: #006400; fill-opacity: 0.8; stroke: #000000; stroke-opacity: 0.8"/>
     <use xlink:href="#m0c8d801803" x="240.288115" y="151.763831" style="fill: #006400; fill-opacity: 0.8; stroke: #000000; stroke-opacity: 0.8"/>
     <use xlink:href="#m0c8d801803" x="267.082833" y="225.660956" style="fill: #006400; fill-opacity: 0.8; stroke: #000000; stroke-opacity: 0.8"/>
     <use xlink:href="#m0c8d801803" x="293.877551" y="312.872727" style="fill: #006400; fill-opacity: 0.8; stroke: #000000; stroke-opacity: 0.8"/>
     <use xlink:href="#m0c8d801803" x="320.672269" y="312.872727" style="fill: #006400; fill-opacity: 0.8; stroke: #000000; stroke-opacity: 0.8"/>
     <use xlink:href="#m0c8d801803" x="347.466987" y="312.872727" style="fill: #006400; fill-opacity: 0.8; stroke: #000000; stroke-opacity: 0.8"/>
     <use xlink:href="#m0c8d801803" x="374.261705" y="312.872727" style="fill: #006400; fill-opacity: 0.8; stroke: #000000; stroke-opacity: 0.8"/>
    </g>
   </g>
   <g id="line2d_11">
    <path d="M 186.698679 312.872727 
L 189.930203 312.872727 
L 191.007378 310.973331 
L 196.393251 282.642734 
L 199.624775 266.452097 
L 202.856298 251.352926 
L 206.087822 237.22547 
L 211.473695 213.853849 
L 214.705219 198.798843 
L 221.168266 168.175304 
L 223.322615 159.676378 
L 224.39979 156.150025 
L 225.476965 153.220985 
L 226.554139 150.882771 
L 227.631314 149.132855 
L 228.708488 147.918844 
L 229.785663 147.157554 
L 230.862838 146.774003 
L 231.940012 146.694112 
L 233.017187 146.857498 
L 234.094361 147.215557 
L 235.171536 147.732785 
L 237.325885 149.143687 
L 239.480234 150.941645 
L 241.634583 153.040121 
L 243.788933 155.388726 
L 247.020456 159.327668 
L 250.25198 163.758512 
L 252.406329 167.019696 
L 254.560679 170.58107 
L 256.715028 174.530665 
L 258.869377 179.031884 
L 261.023726 184.386559 
L 262.100901 187.577832 
L 263.178075 191.320726 
L 264.25525 195.922113 
L 265.332424 202.111589 
L 266.409599 212.179223 
L 267.082833 225.506558 
L 268.563948 288.424961 
L 269.641123 293.590678 
L 279.335694 312.193775 
L 280.412869 312.872727 
L 401.056423 312.872727 
L 401.056423 312.872727 
" clip-path="url(#p0da4e56bb4)" style="fill: none; stroke: #006400; stroke-width: 3; stroke-linecap: square"/>
   </g>
  </g>
  <g id="axes_2">
   <g id="patch_7">
    <path d="M 476.081633 320.4 
L 703.836735 320.4 
L 703.836735 72 
L 476.081633 72 
L 476.081633 320.4 
z
" style="fill: none"/>
   </g>
   <g id="matplotlib.axis_3">
    <g id="xtick_6">
     <g id="line2d_12">
      <g>
       <use xlink:href="#m0d678455a4" x="482.780312" y="320.4" style="stroke: #000000; stroke-width: 0.8"/>
      </g>
     </g>
     <g id="text_13">
      <!-- 0 -->
      <g transform="translate(472.854812 351.107125) scale(0.312 -0.312)">
       <use xlink:href="#DejaVuSans-30"/>
      </g>
     </g>
    </g>
    <g id="xtick_7">
     <g id="line2d_13">
      <g>
       <use xlink:href="#m0d678455a4" x="536.369748" y="320.4" style="stroke: #000000; stroke-width: 0.8"/>
      </g>
     </g>
     <g id="text_14">
      <!-- 2 -->
      <g transform="translate(526.444248 351.107125) scale(0.312 -0.312)">
       <use xlink:href="#DejaVuSans-32"/>
      </g>
     </g>
    </g>
    <g id="xtick_8">
     <g id="line2d_14">
      <g>
       <use xlink:href="#m0d678455a4" x="589.959184" y="320.4" style="stroke: #000000; stroke-width: 0.8"/>
      </g>
     </g>
     <g id="text_15">
      <!-- 4 -->
      <g transform="translate(580.033684 351.107125) scale(0.312 -0.312)">
       <use xlink:href="#DejaVuSans-34"/>
      </g>
     </g>
    </g>
    <g id="xtick_9">
     <g id="line2d_15">
      <g>
       <use xlink:href="#m0d678455a4" x="643.548619" y="320.4" style="stroke: #000000; stroke-width: 0.8"/>
      </g>
     </g>
     <g id="text_16">
      <!-- 6 -->
      <g transform="translate(633.623119 351.107125) scale(0.312 -0.312)">
       <use xlink:href="#DejaVuSans-36"/>
      </g>
     </g>
    </g>
    <g id="xtick_10">
     <g id="line2d_16">
      <g>
       <use xlink:href="#m0d678455a4" x="697.138055" y="320.4" style="stroke: #000000; stroke-width: 0.8"/>
      </g>
     </g>
     <g id="text_17">
      <!-- 8 -->
      <g transform="translate(687.212555 351.107125) scale(0.312 -0.312)">
       <use xlink:href="#DejaVuSans-38"/>
      </g>
     </g>
    </g>
    <g id="text_18">
     <!-- Time (d) -->
     <g transform="translate(537.272621 382.415656) scale(0.286 -0.286)">
      <use xlink:href="#ArialMT-54"/>
      <use xlink:href="#ArialMT-69" transform="translate(57.333984 0)"/>
      <use xlink:href="#ArialMT-6d" transform="translate(79.550781 0)"/>
      <use xlink:href="#ArialMT-65" transform="translate(162.851562 0)"/>
      <use xlink:href="#ArialMT-20" transform="translate(218.466797 0)"/>
      <use xlink:href="#ArialMT-28" transform="translate(246.25 0)"/>
      <use xlink:href="#ArialMT-64" transform="translate(279.550781 0)"/>
      <use xlink:href="#ArialMT-29" transform="translate(335.166016 0)"/>
     </g>
    </g>
   </g>
   <g id="matplotlib.axis_4">
    <g id="ytick_6">
     <g id="line2d_17">
      <g>
       <use xlink:href="#m20a563c171" x="476.081633" y="320.4" style="stroke: #000000; stroke-width: 0.8"/>
      </g>
     </g>
     <g id="text_19">
      <!-- 3 -->
      <g transform="translate(449.230633 332.253562) scale(0.312 -0.312)">
       <defs>
        <path id="DejaVuSans-33" d="M 2597 2516 
Q 3050 2419 3304 2112 
Q 3559 1806 3559 1356 
Q 3559 666 3084 287 
Q 2609 -91 1734 -91 
Q 1441 -91 1130 -33 
Q 819 25 488 141 
L 488 750 
Q 750 597 1062 519 
Q 1375 441 1716 441 
Q 2309 441 2620 675 
Q 2931 909 2931 1356 
Q 2931 1769 2642 2001 
Q 2353 2234 1838 2234 
L 1294 2234 
L 1294 2753 
L 1863 2753 
Q 2328 2753 2575 2939 
Q 2822 3125 2822 3475 
Q 2822 3834 2567 4026 
Q 2313 4219 1838 4219 
Q 1578 4219 1281 4162 
Q 984 4106 628 3988 
L 628 4550 
Q 988 4650 1302 4700 
Q 1616 4750 1894 4750 
Q 2613 4750 3031 4423 
Q 3450 4097 3450 3541 
Q 3450 3153 3228 2886 
Q 3006 2619 2597 2516 
z
" transform="scale(0.015625)"/>
       </defs>
       <use xlink:href="#DejaVuSans-33"/>
      </g>
     </g>
    </g>
    <g id="ytick_7">
     <g id="line2d_18">
      <g>
       <use xlink:href="#m20a563c171" x="476.081633" y="265.2" style="stroke: #000000; stroke-width: 0.8"/>
      </g>
     </g>
     <g id="text_20">
      <!-- 4 -->
      <g transform="translate(449.230633 277.053562) scale(0.312 -0.312)">
       <use xlink:href="#DejaVuSans-34"/>
      </g>
     </g>
    </g>
    <g id="ytick_8">
     <g id="line2d_19">
      <g>
       <use xlink:href="#m20a563c171" x="476.081633" y="210" style="stroke: #000000; stroke-width: 0.8"/>
      </g>
     </g>
     <g id="text_21">
      <!-- 5 -->
      <g transform="translate(449.230633 221.853563) scale(0.312 -0.312)">
       <defs>
        <path id="DejaVuSans-35" d="M 691 4666 
L 3169 4666 
L 3169 4134 
L 1269 4134 
L 1269 2991 
Q 1406 3038 1543 3061 
Q 1681 3084 1819 3084 
Q 2600 3084 3056 2656 
Q 3513 2228 3513 1497 
Q 3513 744 3044 326 
Q 2575 -91 1722 -91 
Q 1428 -91 1123 -41 
Q 819 9 494 109 
L 494 744 
Q 775 591 1075 516 
Q 1375 441 1709 441 
Q 2250 441 2565 725 
Q 2881 1009 2881 1497 
Q 2881 1984 2565 2268 
Q 2250 2553 1709 2553 
Q 1456 2553 1204 2497 
Q 953 2441 691 2322 
L 691 4666 
z
" transform="scale(0.015625)"/>
       </defs>
       <use xlink:href="#DejaVuSans-35"/>
      </g>
     </g>
    </g>
    <g id="ytick_9">
     <g id="line2d_20">
      <g>
       <use xlink:href="#m20a563c171" x="476.081633" y="154.8" style="stroke: #000000; stroke-width: 0.8"/>
      </g>
     </g>
     <g id="text_22">
      <!-- 6 -->
      <g transform="translate(449.230633 166.653563) scale(0.312 -0.312)">
       <use xlink:href="#DejaVuSans-36"/>
      </g>
     </g>
    </g>
    <g id="ytick_10">
     <g id="line2d_21">
      <g>
       <use xlink:href="#m20a563c171" x="476.081633" y="99.6" style="stroke: #000000; stroke-width: 0.8"/>
      </g>
     </g>
     <g id="text_23">
      <!-- 7 -->
      <g transform="translate(449.230633 111.453563) scale(0.312 -0.312)">
       <defs>
        <path id="DejaVuSans-37" d="M 525 4666 
L 3525 4666 
L 3525 4397 
L 1831 0 
L 1172 0 
L 2766 4134 
L 525 4134 
L 525 4666 
z
" transform="scale(0.015625)"/>
       </defs>
       <use xlink:href="#DejaVuSans-37"/>
      </g>
     </g>
    </g>
    <g id="text_24">
     <!-- Log$_{10}$ CD8$^+$ T cells -->
     <g transform="translate(438.938633 324.042) rotate(-90) scale(0.286 -0.286)">
      <defs>
       <path id="ArialMT-43" d="M 3763 1606 
L 4369 1453 
Q 4178 706 3683 314 
Q 3188 -78 2472 -78 
Q 1731 -78 1267 223 
Q 803 525 561 1097 
Q 319 1669 319 2325 
Q 319 3041 592 3573 
Q 866 4106 1370 4382 
Q 1875 4659 2481 4659 
Q 3169 4659 3637 4309 
Q 4106 3959 4291 3325 
L 3694 3184 
Q 3534 3684 3231 3912 
Q 2928 4141 2469 4141 
Q 1941 4141 1586 3887 
Q 1231 3634 1087 3207 
Q 944 2781 944 2328 
Q 944 1744 1114 1308 
Q 1284 872 1643 656 
Q 2003 441 2422 441 
Q 2931 441 3284 734 
Q 3638 1028 3763 1606 
z
" transform="scale(0.015625)"/>
       <path id="ArialMT-44" d="M 494 0 
L 494 4581 
L 2072 4581 
Q 2606 4581 2888 4516 
Q 3281 4425 3559 4188 
Q 3922 3881 4101 3404 
Q 4281 2928 4281 2316 
Q 4281 1794 4159 1391 
Q 4038 988 3847 723 
Q 3656 459 3429 307 
Q 3203 156 2883 78 
Q 2563 0 2147 0 
L 494 0 
z
M 1100 541 
L 2078 541 
Q 2531 541 2789 625 
Q 3047 709 3200 863 
Q 3416 1078 3536 1442 
Q 3656 1806 3656 2325 
Q 3656 3044 3420 3430 
Q 3184 3816 2847 3947 
Q 2603 4041 2063 4041 
L 1100 4041 
L 1100 541 
z
" transform="scale(0.015625)"/>
       <path id="ArialMT-38" d="M 1131 2484 
Q 781 2613 612 2850 
Q 444 3088 444 3419 
Q 444 3919 803 4259 
Q 1163 4600 1759 4600 
Q 2359 4600 2725 4251 
Q 3091 3903 3091 3403 
Q 3091 3084 2923 2848 
Q 2756 2613 2416 2484 
Q 2838 2347 3058 2040 
Q 3278 1734 3278 1309 
Q 3278 722 2862 322 
Q 2447 -78 1769 -78 
Q 1091 -78 675 323 
Q 259 725 259 1325 
Q 259 1772 486 2073 
Q 713 2375 1131 2484 
z
M 1019 3438 
Q 1019 3113 1228 2906 
Q 1438 2700 1772 2700 
Q 2097 2700 2305 2904 
Q 2513 3109 2513 3406 
Q 2513 3716 2298 3927 
Q 2084 4138 1766 4138 
Q 1444 4138 1231 3931 
Q 1019 3725 1019 3438 
z
M 838 1322 
Q 838 1081 952 856 
Q 1066 631 1291 507 
Q 1516 384 1775 384 
Q 2178 384 2440 643 
Q 2703 903 2703 1303 
Q 2703 1709 2433 1975 
Q 2163 2241 1756 2241 
Q 1359 2241 1098 1978 
Q 838 1716 838 1322 
z
" transform="scale(0.015625)"/>
       <path id="DejaVuSans-2b" d="M 2944 4013 
L 2944 2272 
L 4684 2272 
L 4684 1741 
L 2944 1741 
L 2944 0 
L 2419 0 
L 2419 1741 
L 678 1741 
L 678 2272 
L 2419 2272 
L 2419 4013 
L 2944 4013 
z
" transform="scale(0.015625)"/>
       <path id="ArialMT-6c" d="M 409 0 
L 409 4581 
L 972 4581 
L 972 0 
L 409 0 
z
" transform="scale(0.015625)"/>
      </defs>
      <use xlink:href="#ArialMT-4c" transform="translate(0 0.826562)"/>
      <use xlink:href="#ArialMT-6f" transform="translate(55.615234 0.826562)"/>
      <use xlink:href="#ArialMT-67" transform="translate(111.230469 0.826562)"/>
      <use xlink:href="#DejaVuSans-31" transform="translate(167.802734 -15.579688) scale(0.7)"/>
      <use xlink:href="#DejaVuSans-30" transform="translate(212.338867 -15.579688) scale(0.7)"/>
      <use xlink:href="#ArialMT-20" transform="translate(259.609375 0.826562)"/>
      <use xlink:href="#ArialMT-43" transform="translate(287.392578 0.826562)"/>
      <use xlink:href="#ArialMT-44" transform="translate(359.609375 0.826562)"/>
      <use xlink:href="#ArialMT-38" transform="translate(431.826172 0.826562)"/>
      <use xlink:href="#DejaVuSans-2b" transform="translate(502.036133 39.107812) scale(0.7)"/>
      <use xlink:href="#ArialMT-20" transform="translate(577.060547 0.826562)"/>
      <use xlink:href="#ArialMT-54" transform="translate(604.84375 0.826562)"/>
      <use xlink:href="#ArialMT-20" transform="translate(665.927734 0.826562)"/>
      <use xlink:href="#ArialMT-63" transform="translate(693.710938 0.826562)"/>
      <use xlink:href="#ArialMT-65" transform="translate(743.710938 0.826562)"/>
      <use xlink:href="#ArialMT-6c" transform="translate(799.326172 0.826562)"/>
      <use xlink:href="#ArialMT-6c" transform="translate(821.542969 0.826562)"/>
      <use xlink:href="#ArialMT-73" transform="translate(843.759766 0.826562)"/>
     </g>
    </g>
   </g>
   <g id="patch_8">
    <path d="M 476.081633 320.4 
L 476.081633 72 
" style="fill: none; stroke: #000000; stroke-width: 3; stroke-linejoin: miter; stroke-linecap: square"/>
   </g>
   <g id="patch_9">
    <path d="M 703.836735 320.4 
L 703.836735 72 
" style="fill: none; stroke: #000000; stroke-width: 3; stroke-linejoin: miter; stroke-linecap: square"/>
   </g>
   <g id="patch_10">
    <path d="M 476.081633 320.4 
L 703.836735 320.4 
" style="fill: none; stroke: #000000; stroke-width: 3; stroke-linejoin: miter; stroke-linecap: square"/>
   </g>
   <g id="patch_11">
    <path d="M 476.081633 72 
L 703.836735 72 
" style="fill: none; stroke: #000000; stroke-width: 3; stroke-linejoin: miter; stroke-linecap: square"/>
   </g>
   <g id="FillBetweenPolyCollection_2">
    <defs>
     <path id="mabfa10bf67" d="M 482.780312 -113.611492 
L 482.780312 -113.611492 
L 483.857487 -113.615978 
L 484.934661 -113.620933 
L 486.011836 -113.6277 
L 487.08901 -113.637714 
L 488.166185 -113.653071 
L 489.24336 -113.676538 
L 490.320534 -113.713015 
L 491.397709 -113.768627 
L 492.474883 -113.85453 
L 493.552058 -113.984597 
L 494.629233 -114.18233 
L 495.706407 -114.477297 
L 496.783582 -114.912324 
L 497.860756 -115.54338 
L 498.937931 -116.43024 
L 500.015106 -117.642842 
L 501.09228 -119.249921 
L 502.169455 -121.301154 
L 503.246629 -123.812518 
L 504.323804 -126.75554 
L 505.400978 -130.056047 
L 506.478153 -133.603906 
L 507.555328 -137.27153 
L 508.632502 -140.924318 
L 509.57503 -144.024169 
L 509.709677 -144.455265 
L 510.786851 -147.781658 
L 511.864026 -150.850423 
L 512.941201 -153.646465 
L 514.018375 -156.162639 
L 515.09555 -158.419567 
L 516.172724 -160.434827 
L 517.249899 -162.236882 
L 518.327074 -163.849502 
L 519.404248 -165.295626 
L 520.481423 -166.596028 
L 521.558597 -167.768565 
L 522.635772 -168.828484 
L 523.712946 -169.78878 
L 524.790121 -170.660562 
L 525.867296 -171.453055 
L 526.94447 -172.174387 
L 528.021645 -172.831467 
L 529.098819 -173.430229 
L 530.175994 -173.975911 
L 531.253169 -174.473007 
L 532.330343 -174.925338 
L 533.407518 -175.336271 
L 534.484692 -175.708779 
L 535.561867 -176.045351 
L 536.369748 -176.275603 
L 536.639042 -176.348308 
L 537.716216 -176.619539 
L 538.793391 -176.860759 
L 539.870565 -177.07356 
L 540.94774 -177.259172 
L 542.024914 -177.418912 
L 543.102089 -177.5538 
L 544.179264 -177.664768 
L 545.256438 -177.752803 
L 546.333613 -177.818578 
L 547.410787 -177.862062 
L 548.487962 -177.885143 
L 549.565137 -177.888897 
L 550.642311 -177.874192 
L 551.719486 -177.842167 
L 552.79666 -177.793373 
L 553.873835 -177.729151 
L 554.95101 -177.650432 
L 556.028184 -177.558624 
L 557.105359 -177.454328 
L 558.182533 -177.338723 
L 559.259708 -177.212894 
L 560.336882 -177.07803 
L 561.414057 -176.934942 
L 562.491232 -176.784201 
L 563.164466 -176.686627 
L 563.568406 -176.626942 
L 564.645581 -176.46395 
L 565.722755 -176.295931 
L 566.79993 -176.123509 
L 567.877105 -175.947244 
L 568.954279 -175.767746 
L 570.031454 -175.585292 
L 571.108628 -175.400234 
L 572.185803 -175.213025 
L 573.262978 -175.024036 
L 574.340152 -174.833418 
L 575.417327 -174.641426 
L 576.494501 -174.448287 
L 577.571676 -174.254221 
L 578.64885 -174.059337 
L 579.726025 -173.863757 
L 580.8032 -173.667631 
L 581.880374 -173.471043 
L 582.957549 -173.274103 
L 584.034723 -173.076859 
L 585.111898 -172.879398 
L 586.189073 -172.681772 
L 587.266247 -172.484024 
L 588.343422 -172.286212 
L 589.420596 -172.088363 
L 589.959184 -171.989438 
L 590.497771 -171.890519 
L 591.574946 -171.692709 
L 592.65212 -171.494958 
L 593.729295 -171.297295 
L 594.806469 -171.099739 
L 595.883644 -170.902312 
L 596.960818 -170.705033 
L 598.037993 -170.507921 
L 599.115168 -170.310993 
L 600.192342 -170.114266 
L 601.269517 -169.917757 
L 602.346691 -169.721482 
L 603.423866 -169.525458 
L 604.501041 -169.329701 
L 605.578215 -169.13423 
L 606.65539 -168.939061 
L 607.732564 -168.744214 
L 608.809739 -168.549708 
L 609.886914 -168.355563 
L 610.964088 -168.1618 
L 612.041263 -167.968443 
L 613.118437 -167.775514 
L 614.195612 -167.58304 
L 615.272787 -167.391048 
L 616.349961 -167.199563 
L 616.753902 -167.127895 
L 617.427136 -167.00862 
L 618.50431 -166.818247 
L 619.581485 -166.628478 
L 620.658659 -166.439351 
L 621.735834 -166.2509 
L 622.813009 -166.06317 
L 623.890183 -165.876198 
L 624.967358 -165.690031 
L 626.044532 -165.504716 
L 627.121707 -165.320298 
L 628.198882 -165.136837 
L 629.276056 -164.954379 
L 630.353231 -164.772984 
L 631.430405 -164.592716 
L 632.50758 -164.413628 
L 633.584755 -164.235796 
L 634.661929 -164.059281 
L 635.739104 -163.884157 
L 636.816278 -163.710501 
L 637.893453 -163.53838 
L 638.970627 -163.36789 
L 640.047802 -163.1991 
L 641.124977 -163.032103 
L 642.202151 -162.866992 
L 643.279326 -162.703846 
L 643.548619 -162.663381 
L 644.3565 -162.54278 
L 645.433675 -162.383875 
L 646.51085 -162.227241 
L 647.588024 -162.072985 
L 648.665199 -161.921199 
L 649.742373 -161.772015 
L 650.819548 -161.625524 
L 651.896723 -161.481854 
L 652.973897 -161.341123 
L 654.051072 -161.203434 
L 655.128246 -161.068933 
L 656.205421 -160.93772 
L 657.282595 -160.809935 
L 658.35977 -160.685704 
L 659.436945 -160.565138 
L 660.514119 -160.448392 
L 661.591294 -160.335543 
L 662.668468 -160.22675 
L 663.745643 -160.122141 
L 664.822818 -160.021863 
L 665.899992 -159.926047 
L 666.977167 -159.834801 
L 668.054341 -159.748284 
L 669.131516 -159.666594 
L 670.208691 -159.589874 
L 670.343337 -159.58064 
L 671.285865 -159.518244 
L 672.36304 -159.451808 
L 673.440214 -159.390711 
L 674.517389 -159.33504 
L 675.594563 -159.284923 
L 676.671738 -159.240464 
L 677.748913 -159.201749 
L 678.826087 -159.168903 
L 679.903262 -159.141991 
L 680.980436 -159.121118 
L 682.057611 -159.106362 
L 683.134786 -159.097783 
L 684.21196 -159.095474 
L 685.289135 -159.099473 
L 686.366309 -159.109851 
L 687.443484 -159.126652 
L 688.520659 -159.149842 
L 689.597833 -159.179056 
L 690.675008 -159.214779 
L 691.752182 -159.257031 
L 692.829357 -159.30583 
L 693.906531 -159.36116 
L 694.983706 -159.423031 
L 696.060881 -159.491415 
L 697.138055 -159.566253 
L 697.138055 -159.581054 
L 697.138055 -159.581054 
L 696.060881 -159.505779 
L 694.983706 -159.436987 
L 693.906531 -159.374718 
L 692.829357 -159.318974 
L 691.752182 -159.26977 
L 690.675008 -159.227112 
L 689.597833 -159.190975 
L 688.520659 -159.161362 
L 687.443484 -159.138232 
L 686.366309 -159.121558 
L 685.289135 -159.11131 
L 684.21196 -159.107446 
L 683.134786 -159.109987 
L 682.057611 -159.118793 
L 680.980436 -159.133771 
L 679.903262 -159.154861 
L 678.826087 -159.181984 
L 677.748913 -159.215035 
L 676.671738 -159.25395 
L 675.594563 -159.298602 
L 674.517389 -159.348908 
L 673.440214 -159.404761 
L 672.36304 -159.466034 
L 671.285865 -159.532711 
L 670.343337 -159.59536 
L 670.208691 -159.604631 
L 669.131516 -159.681624 
L 668.054341 -159.763568 
L 666.977167 -159.850356 
L 665.899992 -159.941832 
L 664.822818 -160.037897 
L 663.745643 -160.138403 
L 662.668468 -160.243223 
L 661.591294 -160.352244 
L 660.514119 -160.465307 
L 659.436945 -160.582311 
L 658.35977 -160.703106 
L 657.282595 -160.827568 
L 656.205421 -160.955609 
L 655.128246 -161.087189 
L 654.051072 -161.222062 
L 652.973897 -161.360096 
L 651.896723 -161.501163 
L 650.819548 -161.645163 
L 649.742373 -161.791956 
L 648.665199 -161.941446 
L 647.588024 -162.093512 
L 646.51085 -162.248042 
L 645.433675 -162.404944 
L 644.3565 -162.564093 
L 643.548619 -162.684879 
L 643.279326 -162.725406 
L 642.202151 -162.888775 
L 641.124977 -163.054105 
L 640.047802 -163.221314 
L 638.970627 -163.390297 
L 637.893453 -163.560983 
L 636.816278 -163.733279 
L 635.739104 -163.907107 
L 634.661929 -164.082398 
L 633.584755 -164.259064 
L 632.50758 -164.437047 
L 631.430405 -164.616271 
L 630.353231 -164.796673 
L 629.276056 -164.978195 
L 628.198882 -165.16077 
L 627.121707 -165.344348 
L 626.044532 -165.528871 
L 624.967358 -165.714287 
L 623.890183 -165.900553 
L 622.813009 -166.087614 
L 621.735834 -166.275433 
L 620.658659 -166.463964 
L 619.581485 -166.653169 
L 618.50431 -166.843011 
L 617.427136 -167.033453 
L 616.753902 -167.15277 
L 616.349961 -167.224464 
L 615.272787 -167.41601 
L 614.195612 -167.608062 
L 613.118437 -167.800592 
L 612.041263 -167.993574 
L 610.964088 -168.186982 
L 609.886914 -168.380792 
L 608.809739 -168.574983 
L 607.732564 -168.769532 
L 606.65539 -168.96442 
L 605.578215 -169.159628 
L 604.501041 -169.355136 
L 603.423866 -169.550928 
L 602.346691 -169.746985 
L 601.269517 -169.943291 
L 600.192342 -170.13983 
L 599.115168 -170.336585 
L 598.037993 -170.533539 
L 596.960818 -170.730675 
L 595.883644 -170.927977 
L 594.806469 -171.125425 
L 593.729295 -171.322999 
L 592.65212 -171.52068 
L 591.574946 -171.718445 
L 590.497771 -171.916267 
L 589.959184 -172.015192 
L 589.420596 -172.114122 
L 588.343422 -172.311974 
L 587.266247 -172.509792 
L 586.189073 -172.707539 
L 585.111898 -172.905159 
L 584.034723 -173.102618 
L 582.957549 -173.299837 
L 581.880374 -173.496763 
L 580.8032 -173.693319 
L 579.726025 -173.889394 
L 578.64885 -174.084925 
L 577.571676 -174.279741 
L 576.494501 -174.473744 
L 575.417327 -174.666773 
L 574.340152 -174.858601 
L 573.262978 -175.04911 
L 572.185803 -175.237977 
L 571.108628 -175.425002 
L 570.031454 -175.609783 
L 568.954279 -175.792066 
L 567.877105 -175.971382 
L 566.79993 -176.147336 
L 565.722755 -176.319393 
L 564.645581 -176.487018 
L 563.568406 -176.649555 
L 563.164466 -176.709054 
L 562.491232 -176.806286 
L 561.414057 -176.956302 
L 560.336882 -177.098672 
L 559.259708 -177.23295 
L 558.182533 -177.357999 
L 557.105359 -177.472678 
L 556.028184 -177.575821 
L 554.95101 -177.666885 
L 553.873835 -177.744597 
L 552.79666 -177.807557 
L 551.719486 -177.854893 
L 550.642311 -177.885944 
L 549.565137 -177.899431 
L 548.487962 -177.894435 
L 547.410787 -177.87023 
L 546.333613 -177.82576 
L 545.256438 -177.76019 
L 544.179264 -177.672568 
L 543.102089 -177.562119 
L 542.024914 -177.42825 
L 540.94774 -177.269765 
L 539.870565 -177.085447 
L 538.793391 -176.874103 
L 537.716216 -176.634397 
L 536.639042 -176.364896 
L 536.369748 -176.292669 
L 535.561867 -176.063848 
L 534.484692 -175.729478 
L 533.407518 -175.359386 
L 532.330343 -174.950991 
L 531.253169 -174.501386 
L 530.175994 -174.007251 
L 529.098819 -173.464699 
L 528.021645 -172.869345 
L 526.94447 -172.216035 
L 525.867296 -171.498871 
L 524.790121 -170.71099 
L 523.712946 -169.844388 
L 522.635772 -168.889799 
L 521.558597 -167.836235 
L 520.481423 -166.670872 
L 519.404248 -165.378569 
L 518.327074 -163.941407 
L 517.249899 -162.339067 
L 516.172724 -160.548506 
L 515.09555 -158.544997 
L 514.018375 -156.301185 
L 512.941201 -153.798008 
L 511.864026 -151.015979 
L 510.786851 -147.953137 
L 509.709677 -144.637007 
L 509.57503 -144.205566 
L 508.632502 -141.105675 
L 507.555328 -137.444779 
L 506.478153 -133.7647 
L 505.400978 -130.192695 
L 504.323804 -126.863399 
L 503.246629 -123.895675 
L 502.169455 -121.357638 
L 501.09228 -119.286032 
L 500.015106 -117.663731 
L 498.937931 -116.435975 
L 497.860756 -115.547589 
L 496.783582 -114.912852 
L 495.706407 -114.477401 
L 494.629233 -114.182364 
L 493.552058 -113.984624 
L 492.474883 -113.85454 
L 491.397709 -113.768632 
L 490.320534 -113.713017 
L 489.24336 -113.676538 
L 488.166185 -113.653071 
L 487.08901 -113.637714 
L 486.011836 -113.6277 
L 484.934661 -113.620933 
L 483.857487 -113.615978 
L 482.780312 -113.611492 
z
" style="stroke: #006400; stroke-opacity: 0.2"/>
    </defs>
    <g clip-path="url(#p0c28fbb493)">
     <use xlink:href="#mabfa10bf67" x="0" y="360" style="fill: #006400; fill-opacity: 0.2; stroke: #006400; stroke-opacity: 0.2"/>
    </g>
   </g>
   <g id="FillBetweenPolyCollection_3">
    <defs>
     <path id="m49fdca1b44" d="M 482.780312 -87.788034 
L 482.780312 -87.788034 
L 483.857487 -87.788034 
L 484.934661 -87.788034 
L 486.011836 -87.788034 
L 487.08901 -87.788034 
L 488.166185 -87.788034 
L 489.24336 -87.788034 
L 490.320534 -87.788034 
L 491.397709 -87.788034 
L 492.474883 -87.788034 
L 493.552058 -87.788034 
L 494.629233 -87.788034 
L 495.706407 -87.788034 
L 496.783582 -87.788034 
L 497.860756 -87.788034 
L 498.937931 -87.788034 
L 500.015106 -87.788034 
L 501.09228 -87.788034 
L 502.169455 -87.788034 
L 503.246629 -87.788034 
L 504.323804 -87.788034 
L 505.400978 -87.788034 
L 506.478153 -87.788034 
L 507.555328 -87.788034 
L 508.632502 -87.788034 
L 509.57503 -87.788035 
L 509.709677 -87.788035 
L 510.786851 -87.788041 
L 511.864026 -87.788052 
L 512.941201 -87.788072 
L 514.018375 -87.788104 
L 515.09555 -87.788155 
L 516.172724 -87.788236 
L 517.249899 -87.78836 
L 518.327074 -87.788553 
L 519.404248 -87.788854 
L 520.481423 -87.789309 
L 521.558597 -87.790006 
L 522.635772 -87.789854 
L 523.712946 -87.792691 
L 524.790121 -87.795152 
L 525.867296 -87.798767 
L 526.94447 -87.804097 
L 528.021645 -87.811811 
L 529.098819 -87.822772 
L 530.175994 -87.838106 
L 531.253169 -87.859033 
L 532.330343 -87.887308 
L 533.407518 -87.924455 
L 534.484692 -87.972024 
L 535.561867 -88.032239 
L 536.369748 -88.086313 
L 536.639042 -88.106116 
L 537.716216 -88.194567 
L 538.793391 -88.298217 
L 539.870565 -88.417222 
L 540.94774 -88.551425 
L 542.024914 -88.700371 
L 543.102089 -88.863358 
L 544.179264 -89.03966 
L 545.256438 -89.228367 
L 546.333613 -89.428596 
L 547.410787 -89.639439 
L 548.487962 -89.8599 
L 549.565137 -90.078101 
L 550.642311 -90.298148 
L 551.719486 -90.523953 
L 552.79666 -90.754896 
L 553.873835 -90.990479 
L 554.95101 -91.23 
L 556.028184 -91.47284 
L 557.105359 -91.718538 
L 558.182533 -91.966717 
L 559.259708 -92.216803 
L 560.336882 -92.468299 
L 561.414057 -92.720847 
L 562.491232 -92.974184 
L 563.164466 -93.132765 
L 563.568406 -93.22782 
L 564.645581 -93.481469 
L 565.722755 -93.734789 
L 566.79993 -93.987428 
L 567.877105 -94.239195 
L 568.954279 -94.489712 
L 570.031454 -94.738863 
L 571.108628 -94.986342 
L 572.185803 -95.231892 
L 573.262978 -95.475437 
L 574.340152 -95.716709 
L 575.417327 -95.955537 
L 576.494501 -96.191817 
L 577.571676 -96.425413 
L 578.64885 -96.656211 
L 579.726025 -96.884134 
L 580.8032 -97.109089 
L 581.880374 -97.331009 
L 582.957549 -97.534865 
L 584.034723 -97.733742 
L 585.111898 -97.92968 
L 586.189073 -98.122677 
L 587.266247 -98.312763 
L 588.343422 -98.499948 
L 589.420596 -98.684263 
L 589.959184 -98.775356 
L 590.497771 -98.865742 
L 591.574946 -99.044419 
L 592.65212 -99.220342 
L 593.729295 -99.393538 
L 594.806469 -99.56405 
L 595.883644 -99.731928 
L 596.960818 -99.897215 
L 598.037993 -100.033107 
L 599.115168 -100.155745 
L 600.192342 -100.276663 
L 601.269517 -100.395896 
L 602.346691 -100.51347 
L 603.423866 -100.62942 
L 604.501041 -100.743773 
L 605.578215 -100.856558 
L 606.65539 -100.967807 
L 607.732564 -101.077543 
L 608.809739 -101.185797 
L 609.886914 -101.292595 
L 610.964088 -101.39796 
L 612.041263 -101.501923 
L 613.118437 -101.604503 
L 614.195612 -101.705729 
L 615.272787 -101.805624 
L 616.349961 -101.904209 
L 616.753902 -101.940847 
L 617.427136 -102.001511 
L 618.50431 -102.097548 
L 619.581485 -102.192346 
L 620.658659 -102.285925 
L 621.735834 -102.378305 
L 622.813009 -102.46951 
L 623.890183 -102.559556 
L 624.967358 -102.648468 
L 626.044532 -102.736262 
L 627.121707 -102.822958 
L 628.198882 -102.908577 
L 629.276056 -102.993135 
L 630.353231 -103.076653 
L 631.430405 -103.159147 
L 632.50758 -103.240635 
L 633.584755 -103.321138 
L 634.661929 -103.40067 
L 635.739104 -103.47925 
L 636.816278 -103.556892 
L 637.893453 -103.633613 
L 638.970627 -103.709433 
L 640.047802 -103.784364 
L 641.124977 -103.858427 
L 642.202151 -103.931634 
L 643.279326 -104.004002 
L 643.548619 -104.021966 
L 644.3565 -104.075549 
L 645.433675 -104.146286 
L 646.51085 -104.216233 
L 647.588024 -104.285403 
L 648.665199 -104.353811 
L 649.742373 -104.421475 
L 650.819548 -104.488405 
L 651.896723 -104.554622 
L 652.973897 -104.620136 
L 654.051072 -104.684964 
L 655.128246 -104.749123 
L 656.205421 -104.812622 
L 657.282595 -104.875482 
L 658.35977 -104.937714 
L 659.436945 -104.999334 
L 660.514119 -105.060358 
L 661.591294 -105.120796 
L 662.668468 -105.18067 
L 663.745643 -105.239988 
L 664.822818 -105.298769 
L 665.899992 -105.357027 
L 666.977167 -105.414773 
L 668.054341 -105.472029 
L 669.131516 -105.528803 
L 670.208691 -105.585113 
L 670.343337 -105.59212 
L 671.285865 -105.640976 
L 672.36304 -105.6964 
L 673.440214 -105.751409 
L 674.517389 -105.806011 
L 675.594563 -105.860225 
L 676.671738 -105.914066 
L 677.748913 -105.967544 
L 678.826087 -106.020683 
L 679.903262 -106.07349 
L 680.980436 -106.125985 
L 682.057611 -106.178184 
L 683.134786 -106.230097 
L 684.21196 -106.281748 
L 685.289135 -106.333144 
L 686.366309 -106.384306 
L 687.443484 -106.435249 
L 688.520659 -106.485984 
L 689.597833 -106.536534 
L 690.675008 -106.586909 
L 691.752182 -106.637128 
L 692.829357 -106.687206 
L 693.906531 -106.737156 
L 694.983706 -106.787001 
L 696.060881 -106.836747 
L 697.138055 -106.886411 
L 697.138055 -113.846054 
L 697.138055 -113.846054 
L 696.060881 -113.78403 
L 694.983706 -113.721724 
L 693.906531 -113.659124 
L 692.829357 -113.596211 
L 691.752182 -113.53296 
L 690.675008 -113.469359 
L 689.597833 -113.405381 
L 688.520659 -113.34101 
L 687.443484 -113.276228 
L 686.366309 -113.211011 
L 685.289135 -113.145346 
L 684.21196 -113.079206 
L 683.134786 -113.012576 
L 682.057611 -112.945437 
L 680.980436 -112.877765 
L 679.903262 -112.809547 
L 678.826087 -112.740758 
L 677.748913 -112.671381 
L 676.671738 -112.601398 
L 675.594563 -112.530784 
L 674.517389 -112.459528 
L 673.440214 -112.387601 
L 672.36304 -112.314991 
L 671.285865 -112.241675 
L 670.343337 -112.176928 
L 670.208691 -112.167633 
L 669.131516 -112.092849 
L 668.054341 -112.017297 
L 666.977167 -111.940963 
L 665.899992 -111.867269 
L 664.822818 -111.793746 
L 663.745643 -111.719482 
L 662.668468 -111.644459 
L 661.591294 -111.568659 
L 660.514119 -111.492059 
L 659.436945 -111.414642 
L 658.35977 -111.336386 
L 657.282595 -111.257273 
L 656.205421 -111.177283 
L 655.128246 -111.096394 
L 654.051072 -111.014588 
L 652.973897 -110.931842 
L 651.896723 -110.848138 
L 650.819548 -110.763454 
L 649.742373 -110.677768 
L 648.665199 -110.591062 
L 647.588024 -110.503311 
L 646.51085 -110.414496 
L 645.433675 -110.324595 
L 644.3565 -110.233584 
L 643.548619 -110.164585 
L 643.279326 -110.141443 
L 642.202151 -110.048147 
L 641.124977 -109.953675 
L 640.047802 -109.858003 
L 638.970627 -109.761106 
L 637.893453 -109.662963 
L 636.816278 -109.563547 
L 635.739104 -109.462834 
L 634.661929 -109.360799 
L 633.584755 -109.257416 
L 632.50758 -109.152659 
L 631.430405 -109.0465 
L 630.353231 -108.938995 
L 629.276056 -108.835108 
L 628.198882 -108.729838 
L 627.121707 -108.623153 
L 626.044532 -108.51503 
L 624.967358 -108.405439 
L 623.890183 -108.294352 
L 622.813009 -108.181741 
L 621.735834 -108.067573 
L 620.658659 -107.951823 
L 619.581485 -107.834455 
L 618.50431 -107.715438 
L 617.427136 -107.594743 
L 616.753902 -107.518439 
L 616.349961 -107.472331 
L 615.272787 -107.348174 
L 614.195612 -107.222232 
L 613.118437 -107.094472 
L 612.041263 -106.964857 
L 610.964088 -106.833347 
L 609.886914 -106.699907 
L 608.809739 -106.564494 
L 607.732564 -106.427068 
L 606.65539 -106.287589 
L 605.578215 -106.146011 
L 604.501041 -106.002294 
L 603.423866 -105.856388 
L 602.346691 -105.708248 
L 601.269517 -105.55783 
L 600.192342 -105.405078 
L 599.115168 -105.249949 
L 598.037993 -105.092385 
L 596.960818 -104.932335 
L 595.883644 -104.769747 
L 594.806469 -104.604559 
L 593.729295 -104.436721 
L 592.65212 -104.266169 
L 591.574946 -104.092844 
L 590.497771 -103.916686 
L 589.959184 -103.827524 
L 589.420596 -103.737629 
L 588.343422 -103.555614 
L 587.266247 -103.370571 
L 586.189073 -103.182435 
L 585.111898 -102.991141 
L 584.034723 -102.79662 
L 582.957549 -102.598805 
L 581.880374 -102.397625 
L 580.8032 -102.193014 
L 579.726025 -101.984907 
L 578.64885 -101.773236 
L 577.571676 -101.557932 
L 576.494501 -101.338945 
L 575.417327 -101.116212 
L 574.340152 -100.889676 
L 573.262978 -100.659292 
L 572.185803 -100.425021 
L 571.108628 -100.188554 
L 570.031454 -99.954184 
L 568.954279 -99.715962 
L 567.877105 -99.473878 
L 566.79993 -99.227936 
L 565.722755 -98.980491 
L 564.645581 -98.742742 
L 563.568406 -98.501297 
L 563.164466 -98.409841 
L 562.491232 -98.256299 
L 561.414057 -98.00772 
L 560.336882 -97.755682 
L 559.259708 -97.500248 
L 558.182533 -97.241468 
L 557.105359 -96.979502 
L 556.028184 -96.714438 
L 554.95101 -96.446391 
L 553.873835 -96.175607 
L 552.79666 -95.902287 
L 551.719486 -95.626486 
L 550.642311 -95.348565 
L 549.565137 -95.068854 
L 548.487962 -94.787607 
L 547.410787 -94.504986 
L 546.333613 -94.221304 
L 545.256438 -93.936941 
L 544.179264 -93.652277 
L 543.102089 -93.367622 
L 542.024914 -93.083411 
L 540.94774 -92.800156 
L 539.870565 -92.518243 
L 538.793391 -92.238181 
L 537.716216 -91.960582 
L 536.639042 -91.685914 
L 536.369748 -91.617777 
L 535.561867 -91.41485 
L 534.484692 -91.148031 
L 533.407518 -90.886085 
L 532.330343 -90.629846 
L 531.253169 -90.379937 
L 530.175994 -90.13739 
L 529.098819 -89.902988 
L 528.021645 -89.67761 
L 526.94447 -89.462119 
L 525.867296 -89.257476 
L 524.790121 -89.064541 
L 523.712946 -88.884415 
L 522.635772 -88.717889 
L 521.558597 -88.565835 
L 520.481423 -88.428965 
L 519.404248 -88.307655 
L 518.327074 -88.20202 
L 517.249899 -88.111896 
L 516.172724 -88.036766 
L 515.09555 -87.975311 
L 514.018375 -87.926641 
L 512.941201 -87.888814 
L 511.864026 -87.859998 
L 510.786851 -87.838715 
L 509.709677 -87.823121 
L 509.57503 -87.821509 
L 508.632502 -87.812032 
L 507.555328 -87.80426 
L 506.478153 -87.79886 
L 505.400978 -87.795179 
L 504.323804 -87.792709 
L 503.246629 -87.791105 
L 502.169455 -87.790022 
L 501.09228 -87.789314 
L 500.015106 -87.788855 
L 498.937931 -87.788553 
L 497.860756 -87.788359 
L 496.783582 -87.788235 
L 495.706407 -87.788156 
L 494.629233 -87.788104 
L 493.552058 -87.788072 
L 492.474883 -87.788053 
L 491.397709 -87.788041 
L 490.320534 -87.788035 
L 489.24336 -87.788034 
L 488.166185 -87.788034 
L 487.08901 -87.788034 
L 486.011836 -87.788034 
L 484.934661 -87.788034 
L 483.857487 -87.788034 
L 482.780312 -87.788034 
z
" style="stroke: #006400; stroke-opacity: 0.2"/>
    </defs>
    <g clip-path="url(#p0c28fbb493)">
     <use xlink:href="#m49fdca1b44" x="0" y="360" style="fill: #006400; fill-opacity: 0.2; stroke: #006400; stroke-opacity: 0.2"/>
    </g>
   </g>
   <g id="PathCollection_2">
    <g clip-path="url(#p0c28fbb493)">
     <use xlink:href="#m0c8d801803" x="482.780312" y="246.388508" style="fill: #006400; fill-opacity: 0.8; stroke: #000000; stroke-opacity: 0.8"/>
     <use xlink:href="#m0c8d801803" x="509.57503" y="205.767358" style="fill: #006400; fill-opacity: 0.8; stroke: #000000; stroke-opacity: 0.8"/>
     <use xlink:href="#m0c8d801803" x="536.369748" y="195.085032" style="fill: #006400; fill-opacity: 0.8; stroke: #000000; stroke-opacity: 0.8"/>
     <use xlink:href="#m0c8d801803" x="563.164466" y="183.724624" style="fill: #006400; fill-opacity: 0.8; stroke: #000000; stroke-opacity: 0.8"/>
     <use xlink:href="#m0c8d801803" x="589.959184" y="191.263873" style="fill: #006400; fill-opacity: 0.8; stroke: #000000; stroke-opacity: 0.8"/>
     <use xlink:href="#m0c8d801803" x="616.753902" y="188.261783" style="fill: #006400; fill-opacity: 0.8; stroke: #000000; stroke-opacity: 0.8"/>
     <use xlink:href="#m0c8d801803" x="643.548619" y="192.782954" style="fill: #006400; fill-opacity: 0.8; stroke: #000000; stroke-opacity: 0.8"/>
     <use xlink:href="#m0c8d801803" x="670.343337" y="203.021836" style="fill: #006400; fill-opacity: 0.8; stroke: #000000; stroke-opacity: 0.8"/>
    </g>
   </g>
   <g id="PathCollection_3">
    <defs>
     <path id="m6815b90a43" d="M -7.071068 7.071068 
L 7.071068 7.071068 
L 7.071068 -7.071068 
L -7.071068 -7.071068 
z
" style="stroke: #000000; stroke-opacity: 0.8"/>
    </defs>
    <g clip-path="url(#p0c28fbb493)">
     <use xlink:href="#m6815b90a43" x="482.780312" y="272.209307" style="fill: #006400; fill-opacity: 0.8; stroke: #000000; stroke-opacity: 0.8"/>
     <use xlink:href="#m6815b90a43" x="509.57503" y="273.250566" style="fill: #006400; fill-opacity: 0.8; stroke: #000000; stroke-opacity: 0.8"/>
     <use xlink:href="#m6815b90a43" x="536.369748" y="261.470044" style="fill: #006400; fill-opacity: 0.8; stroke: #000000; stroke-opacity: 0.8"/>
     <use xlink:href="#m6815b90a43" x="563.164466" y="266.371328" style="fill: #006400; fill-opacity: 0.8; stroke: #000000; stroke-opacity: 0.8"/>
     <use xlink:href="#m6815b90a43" x="589.959184" y="262.820079" style="fill: #006400; fill-opacity: 0.8; stroke: #000000; stroke-opacity: 0.8"/>
     <use xlink:href="#m6815b90a43" x="616.753902" y="258.104899" style="fill: #006400; fill-opacity: 0.8; stroke: #000000; stroke-opacity: 0.8"/>
     <use xlink:href="#m6815b90a43" x="643.548619" y="251.050637" style="fill: #006400; fill-opacity: 0.8; stroke: #000000; stroke-opacity: 0.8"/>
     <use xlink:href="#m6815b90a43" x="670.343337" y="246.991568" style="fill: #006400; fill-opacity: 0.8; stroke: #000000; stroke-opacity: 0.8"/>
    </g>
   </g>
   <g id="line2d_22">
    <path d="M 482.780312 246.388508 
L 490.320534 246.286985 
L 493.552058 246.015397 
L 495.706407 245.522631 
L 496.783582 245.08764 
L 497.860756 244.456428 
L 498.937931 243.568703 
L 500.015106 242.342014 
L 501.09228 240.723445 
L 502.169455 238.652281 
L 503.246629 236.119311 
L 504.323804 233.154211 
L 506.478153 226.260736 
L 509.709677 215.389918 
L 511.864026 209.00541 
L 514.018375 203.715929 
L 516.172724 199.466482 
L 518.327074 196.070519 
L 520.481423 193.338966 
L 522.635772 191.118256 
L 524.790121 189.295565 
L 526.94447 187.789328 
L 529.098819 186.539669 
L 531.253169 185.502129 
L 533.407518 184.643444 
L 536.639042 183.637383 
L 539.870565 182.917253 
L 543.102089 182.441484 
L 546.333613 182.180183 
L 549.565137 182.109007 
L 553.873835 182.267783 
L 558.182533 182.657446 
L 563.568406 183.368605 
L 572.185803 184.781794 
L 590.497771 188.104058 
L 622.813009 193.931589 
L 638.970627 196.62711 
L 649.742373 198.223267 
L 659.436945 199.430509 
L 666.977167 200.160982 
L 674.517389 200.66095 
L 680.980436 200.875162 
L 687.443484 200.870042 
L 693.906531 200.633224 
L 697.138055 200.426713 
L 697.138055 200.426713 
" clip-path="url(#p0c28fbb493)" style="fill: none; stroke: #006400; stroke-width: 3; stroke-linecap: square"/>
   </g>
   <g id="line2d_23">
    <path d="M 482.780312 272.211966 
L 514.018375 272.112657 
L 518.327074 271.903575 
L 522.635772 271.491483 
L 526.94447 270.876441 
L 532.330343 269.88784 
L 539.870565 268.254819 
L 564.645581 262.695342 
L 574.340152 260.858497 
L 584.034723 259.262564 
L 594.806469 257.733209 
L 606.65539 256.294492 
L 619.581485 254.959521 
L 633.584755 253.733817 
L 649.742373 252.542287 
L 669.131516 251.343441 
L 697.138055 249.864015 
L 697.138055 249.864015 
" clip-path="url(#p0c28fbb493)" style="fill: none; stroke-dasharray: 11.1,4.8; stroke-dashoffset: 0; stroke: #006400; stroke-width: 3"/>
   </g>
  </g>
  <g id="text_25">
   <!-- Individual 311 -->
   <g transform="translate(336.883875 29.532375) scale(0.312 -0.312)">
    <defs>
     <path id="ArialMT-49" d="M 597 0 
L 597 4581 
L 1203 4581 
L 1203 0 
L 597 0 
z
" transform="scale(0.015625)"/>
     <path id="ArialMT-6e" d="M 422 0 
L 422 3319 
L 928 3319 
L 928 2847 
Q 1294 3394 1984 3394 
Q 2284 3394 2536 3286 
Q 2788 3178 2913 3003 
Q 3038 2828 3088 2588 
Q 3119 2431 3119 2041 
L 3119 0 
L 2556 0 
L 2556 2019 
Q 2556 2363 2490 2533 
Q 2425 2703 2258 2804 
Q 2091 2906 1866 2906 
Q 1506 2906 1245 2678 
Q 984 2450 984 1813 
L 984 0 
L 422 0 
z
" transform="scale(0.015625)"/>
     <path id="ArialMT-76" d="M 1344 0 
L 81 3319 
L 675 3319 
L 1388 1331 
Q 1503 1009 1600 663 
Q 1675 925 1809 1294 
L 2547 3319 
L 3125 3319 
L 1869 0 
L 1344 0 
z
" transform="scale(0.015625)"/>
     <path id="ArialMT-61" d="M 2588 409 
Q 2275 144 1986 34 
Q 1697 -75 1366 -75 
Q 819 -75 525 192 
Q 231 459 231 875 
Q 231 1119 342 1320 
Q 453 1522 633 1644 
Q 813 1766 1038 1828 
Q 1203 1872 1538 1913 
Q 2219 1994 2541 2106 
Q 2544 2222 2544 2253 
Q 2544 2597 2384 2738 
Q 2169 2928 1744 2928 
Q 1347 2928 1158 2789 
Q 969 2650 878 2297 
L 328 2372 
Q 403 2725 575 2942 
Q 747 3159 1072 3276 
Q 1397 3394 1825 3394 
Q 2250 3394 2515 3294 
Q 2781 3194 2906 3042 
Q 3031 2891 3081 2659 
Q 3109 2516 3109 2141 
L 3109 1391 
Q 3109 606 3145 398 
Q 3181 191 3288 0 
L 2700 0 
Q 2613 175 2588 409 
z
M 2541 1666 
Q 2234 1541 1622 1453 
Q 1275 1403 1131 1340 
Q 988 1278 909 1158 
Q 831 1038 831 891 
Q 831 666 1001 516 
Q 1172 366 1500 366 
Q 1825 366 2078 508 
Q 2331 650 2450 897 
Q 2541 1088 2541 1459 
L 2541 1666 
z
" transform="scale(0.015625)"/>
     <path id="ArialMT-33" d="M 269 1209 
L 831 1284 
Q 928 806 1161 595 
Q 1394 384 1728 384 
Q 2125 384 2398 659 
Q 2672 934 2672 1341 
Q 2672 1728 2419 1979 
Q 2166 2231 1775 2231 
Q 1616 2231 1378 2169 
L 1441 2663 
Q 1497 2656 1531 2656 
Q 1891 2656 2178 2843 
Q 2466 3031 2466 3422 
Q 2466 3731 2256 3934 
Q 2047 4138 1716 4138 
Q 1388 4138 1169 3931 
Q 950 3725 888 3313 
L 325 3413 
Q 428 3978 793 4289 
Q 1159 4600 1703 4600 
Q 2078 4600 2393 4439 
Q 2709 4278 2876 4000 
Q 3044 3722 3044 3409 
Q 3044 3113 2884 2869 
Q 2725 2625 2413 2481 
Q 2819 2388 3044 2092 
Q 3269 1797 3269 1353 
Q 3269 753 2831 336 
Q 2394 -81 1725 -81 
Q 1122 -81 723 278 
Q 325 638 269 1209 
z
" transform="scale(0.015625)"/>
     <path id="ArialMT-31" d="M 2384 0 
L 1822 0 
L 1822 3584 
Q 1619 3391 1289 3197 
Q 959 3003 697 2906 
L 697 3450 
Q 1169 3672 1522 3987 
Q 1875 4303 2022 4600 
L 2384 4600 
L 2384 0 
z
" transform="scale(0.015625)"/>
    </defs>
    <use xlink:href="#ArialMT-49"/>
    <use xlink:href="#ArialMT-6e" transform="translate(27.783203 0)"/>
    <use xlink:href="#ArialMT-64" transform="translate(83.398438 0)"/>
    <use xlink:href="#ArialMT-69" transform="translate(139.013672 0)"/>
    <use xlink:href="#ArialMT-76" transform="translate(161.230469 0)"/>
    <use xlink:href="#ArialMT-69" transform="translate(211.230469 0)"/>
    <use xlink:href="#ArialMT-64" transform="translate(233.447266 0)"/>
    <use xlink:href="#ArialMT-75" transform="translate(289.0625 0)"/>
    <use xlink:href="#ArialMT-61" transform="translate(344.677734 0)"/>
    <use xlink:href="#ArialMT-6c" transform="translate(400.292969 0)"/>
    <use xlink:href="#ArialMT-20" transform="translate(422.509766 0)"/>
    <use xlink:href="#ArialMT-33" transform="translate(450.292969 0)"/>
    <use xlink:href="#ArialMT-31" transform="translate(505.908203 0)"/>
    <use xlink:href="#ArialMT-31" transform="translate(554.148438 0)"/>
   </g>
  </g>
 </g>
 <defs>
  <clipPath id="p0da4e56bb4">
   <rect x="180" y="72" width="227.755102" height="248.4"/>
  </clipPath>
  <clipPath id="p0c28fbb493">
   <rect x="476.081633" y="72" width="227.755102" height="248.4"/>
  </clipPath>
 </defs>
</svg>
