<?xml version="1.0" encoding="utf-8" standalone="no"?>
<!DOCTYPE svg PUBLIC "-//W3C//DTD SVG 1.1//EN"
  "http://www.w3.org/Graphics/SVG/1.1/DTD/svg11.dtd">
<svg xmlns:xlink="http://www.w3.org/1999/xlink" width="1440pt" height="360pt" viewBox="0 0 1440 360" xmlns="http://www.w3.org/2000/svg" version="1.1">
 <metadata>
  <rdf:RDF xmlns:dc="http://purl.org/dc/elements/1.1/" xmlns:cc="http://creativecommons.org/ns#" xmlns:rdf="http://www.w3.org/1999/02/22-rdf-syntax-ns#">
   <cc:Work>
    <dc:type rdf:resource="http://purl.org/dc/dcmitype/StillImage"/>
    <dc:date>2025-02-18T18:36:42.400517</dc:date>
    <dc:format>image/svg+xml</dc:format>
    <dc:creator>
     <cc:Agent>
      <dc:title>Matplotlib v3.10.0, https://matplotlib.org/</dc:title>
     </cc:Agent>
    </dc:creator>
   </cc:Work>
  </rdf:RDF>
 </metadata>
 <defs>
  <style type="text/css">*{stroke-linejoin: round; stroke-linecap: butt}</style>
 </defs>
 <g id="figure_1">
  <g id="patch_1">
   <path d="M 0 360 
L 1440 360 
L 1440 0 
L 0 0 
L 0 360 
z
" style="fill: none"/>
  </g>
  <g id="axes_1">
   <g id="patch_2">
    <path d="M 180 320.4 
L 407.755102 320.4 
L 407.755102 72 
L 180 72 
L 180 320.4 
z
" style="fill: none"/>
   </g>
   <g id="matplotlib.axis_1">
    <g id="xtick_1">
     <g id="line2d_1">
      <defs>
       <path id="mfe9ad8a1b4" d="M 0 0 
L 0 3.5 
" style="stroke: #000000; stroke-width: 0.8"/>
      </defs>
      <g>
       <use xlink:href="#mfe9ad8a1b4" x="186.698679" y="320.4" style="stroke: #000000; stroke-width: 0.8"/>
      </g>
     </g>
     <g id="text_1">
      <!-- 0 -->
      <g transform="translate(176.773179 351.107125) scale(0.312 -0.312)">
       <defs>
        <path id="DejaVuSans-30" d="M 2034 4250 
Q 1547 4250 1301 3770 
Q 1056 3291 1056 2328 
Q 1056 1369 1301 889 
Q 1547 409 2034 409 
Q 2525 409 2770 889 
Q 3016 1369 3016 2328 
Q 3016 3291 2770 3770 
Q 2525 4250 2034 4250 
z
M 2034 4750 
Q 2819 4750 3233 4129 
Q 3647 3509 3647 2328 
Q 3647 1150 3233 529 
Q 2819 -91 2034 -91 
Q 1250 -91 836 529 
Q 422 1150 422 2328 
Q 422 3509 836 4129 
Q 1250 4750 2034 4750 
z
" transform="scale(0.015625)"/>
       </defs>
       <use xlink:href="#DejaVuSans-30"/>
      </g>
     </g>
    </g>
    <g id="xtick_2">
     <g id="line2d_2">
      <g>
       <use xlink:href="#mfe9ad8a1b4" x="240.288115" y="320.4" style="stroke: #000000; stroke-width: 0.8"/>
      </g>
     </g>
     <g id="text_2">
      <!-- 2 -->
      <g transform="translate(230.362615 351.107125) scale(0.312 -0.312)">
       <defs>
        <path id="DejaVuSans-32" d="M 1228 531 
L 3431 531 
L 3431 0 
L 469 0 
L 469 531 
Q 828 903 1448 1529 
Q 2069 2156 2228 2338 
Q 2531 2678 2651 2914 
Q 2772 3150 2772 3378 
Q 2772 3750 2511 3984 
Q 2250 4219 1831 4219 
Q 1534 4219 1204 4116 
Q 875 4013 500 3803 
L 500 4441 
Q 881 4594 1212 4672 
Q 1544 4750 1819 4750 
Q 2544 4750 2975 4387 
Q 3406 4025 3406 3419 
Q 3406 3131 3298 2873 
Q 3191 2616 2906 2266 
Q 2828 2175 2409 1742 
Q 1991 1309 1228 531 
z
" transform="scale(0.015625)"/>
       </defs>
       <use xlink:href="#DejaVuSans-32"/>
      </g>
     </g>
    </g>
    <g id="xtick_3">
     <g id="line2d_3">
      <g>
       <use xlink:href="#mfe9ad8a1b4" x="293.877551" y="320.4" style="stroke: #000000; stroke-width: 0.8"/>
      </g>
     </g>
     <g id="text_3">
      <!-- 4 -->
      <g transform="translate(283.952051 351.107125) scale(0.312 -0.312)">
       <defs>
        <path id="DejaVuSans-34" d="M 2419 4116 
L 825 1625 
L 2419 1625 
L 2419 4116 
z
M 2253 4666 
L 3047 4666 
L 3047 1625 
L 3713 1625 
L 3713 1100 
L 3047 1100 
L 3047 0 
L 2419 0 
L 2419 1100 
L 313 1100 
L 313 1709 
L 2253 4666 
z
" transform="scale(0.015625)"/>
       </defs>
       <use xlink:href="#DejaVuSans-34"/>
      </g>
     </g>
    </g>
    <g id="xtick_4">
     <g id="line2d_4">
      <g>
       <use xlink:href="#mfe9ad8a1b4" x="347.466987" y="320.4" style="stroke: #000000; stroke-width: 0.8"/>
      </g>
     </g>
     <g id="text_4">
      <!-- 6 -->
      <g transform="translate(337.541487 351.107125) scale(0.312 -0.312)">
       <defs>
        <path id="DejaVuSans-36" d="M 2113 2584 
Q 1688 2584 1439 2293 
Q 1191 2003 1191 1497 
Q 1191 994 1439 701 
Q 1688 409 2113 409 
Q 2538 409 2786 701 
Q 3034 994 3034 1497 
Q 3034 2003 2786 2293 
Q 2538 2584 2113 2584 
z
M 3366 4563 
L 3366 3988 
Q 3128 4100 2886 4159 
Q 2644 4219 2406 4219 
Q 1781 4219 1451 3797 
Q 1122 3375 1075 2522 
Q 1259 2794 1537 2939 
Q 1816 3084 2150 3084 
Q 2853 3084 3261 2657 
Q 3669 2231 3669 1497 
Q 3669 778 3244 343 
Q 2819 -91 2113 -91 
Q 1303 -91 875 529 
Q 447 1150 447 2328 
Q 447 3434 972 4092 
Q 1497 4750 2381 4750 
Q 2619 4750 2861 4703 
Q 3103 4656 3366 4563 
z
" transform="scale(0.015625)"/>
       </defs>
       <use xlink:href="#DejaVuSans-36"/>
      </g>
     </g>
    </g>
    <g id="xtick_5">
     <g id="line2d_5">
      <g>
       <use xlink:href="#mfe9ad8a1b4" x="401.056423" y="320.4" style="stroke: #000000; stroke-width: 0.8"/>
      </g>
     </g>
     <g id="text_5">
      <!-- 8 -->
      <g transform="translate(391.130923 351.107125) scale(0.312 -0.312)">
       <defs>
        <path id="DejaVuSans-38" d="M 2034 2216 
Q 1584 2216 1326 1975 
Q 1069 1734 1069 1313 
Q 1069 891 1326 650 
Q 1584 409 2034 409 
Q 2484 409 2743 651 
Q 3003 894 3003 1313 
Q 3003 1734 2745 1975 
Q 2488 2216 2034 2216 
z
M 1403 2484 
Q 997 2584 770 2862 
Q 544 3141 544 3541 
Q 544 4100 942 4425 
Q 1341 4750 2034 4750 
Q 2731 4750 3128 4425 
Q 3525 4100 3525 3541 
Q 3525 3141 3298 2862 
Q 3072 2584 2669 2484 
Q 3125 2378 3379 2068 
Q 3634 1759 3634 1313 
Q 3634 634 3220 271 
Q 2806 -91 2034 -91 
Q 1263 -91 848 271 
Q 434 634 434 1313 
Q 434 1759 690 2068 
Q 947 2378 1403 2484 
z
M 1172 3481 
Q 1172 3119 1398 2916 
Q 1625 2713 2034 2713 
Q 2441 2713 2670 2916 
Q 2900 3119 2900 3481 
Q 2900 3844 2670 4047 
Q 2441 4250 2034 4250 
Q 1625 4250 1398 4047 
Q 1172 3844 1172 3481 
z
" transform="scale(0.015625)"/>
       </defs>
       <use xlink:href="#DejaVuSans-38"/>
      </g>
     </g>
    </g>
    <g id="text_6">
     <!-- Time (d) -->
     <g transform="translate(241.190989 382.415656) scale(0.286 -0.286)">
      <defs>
       <path id="ArialMT-54" d="M 1659 0 
L 1659 4041 
L 150 4041 
L 150 4581 
L 3781 4581 
L 3781 4041 
L 2266 4041 
L 2266 0 
L 1659 0 
z
" transform="scale(0.015625)"/>
       <path id="ArialMT-69" d="M 425 3934 
L 425 4581 
L 988 4581 
L 988 3934 
L 425 3934 
z
M 425 0 
L 425 3319 
L 988 3319 
L 988 0 
L 425 0 
z
" transform="scale(0.015625)"/>
       <path id="ArialMT-6d" d="M 422 0 
L 422 3319 
L 925 3319 
L 925 2853 
Q 1081 3097 1340 3245 
Q 1600 3394 1931 3394 
Q 2300 3394 2536 3241 
Q 2772 3088 2869 2813 
Q 3263 3394 3894 3394 
Q 4388 3394 4653 3120 
Q 4919 2847 4919 2278 
L 4919 0 
L 4359 0 
L 4359 2091 
Q 4359 2428 4304 2576 
Q 4250 2725 4106 2815 
Q 3963 2906 3769 2906 
Q 3419 2906 3187 2673 
Q 2956 2441 2956 1928 
L 2956 0 
L 2394 0 
L 2394 2156 
Q 2394 2531 2256 2718 
Q 2119 2906 1806 2906 
Q 1569 2906 1367 2781 
Q 1166 2656 1075 2415 
Q 984 2175 984 1722 
L 984 0 
L 422 0 
z
" transform="scale(0.015625)"/>
       <path id="ArialMT-65" d="M 2694 1069 
L 3275 997 
Q 3138 488 2766 206 
Q 2394 -75 1816 -75 
Q 1088 -75 661 373 
Q 234 822 234 1631 
Q 234 2469 665 2931 
Q 1097 3394 1784 3394 
Q 2450 3394 2872 2941 
Q 3294 2488 3294 1666 
Q 3294 1616 3291 1516 
L 816 1516 
Q 847 969 1125 678 
Q 1403 388 1819 388 
Q 2128 388 2347 550 
Q 2566 713 2694 1069 
z
M 847 1978 
L 2700 1978 
Q 2663 2397 2488 2606 
Q 2219 2931 1791 2931 
Q 1403 2931 1139 2672 
Q 875 2413 847 1978 
z
" transform="scale(0.015625)"/>
       <path id="ArialMT-20" transform="scale(0.015625)"/>
       <path id="ArialMT-28" d="M 1497 -1347 
Q 1031 -759 709 28 
Q 388 816 388 1659 
Q 388 2403 628 3084 
Q 909 3875 1497 4659 
L 1900 4659 
Q 1522 4009 1400 3731 
Q 1209 3300 1100 2831 
Q 966 2247 966 1656 
Q 966 153 1900 -1347 
L 1497 -1347 
z
" transform="scale(0.015625)"/>
       <path id="ArialMT-64" d="M 2575 0 
L 2575 419 
Q 2259 -75 1647 -75 
Q 1250 -75 917 144 
Q 584 363 401 755 
Q 219 1147 219 1656 
Q 219 2153 384 2558 
Q 550 2963 881 3178 
Q 1213 3394 1622 3394 
Q 1922 3394 2156 3267 
Q 2391 3141 2538 2938 
L 2538 4581 
L 3097 4581 
L 3097 0 
L 2575 0 
z
M 797 1656 
Q 797 1019 1065 703 
Q 1334 388 1700 388 
Q 2069 388 2326 689 
Q 2584 991 2584 1609 
Q 2584 2291 2321 2609 
Q 2059 2928 1675 2928 
Q 1300 2928 1048 2622 
Q 797 2316 797 1656 
z
" transform="scale(0.015625)"/>
       <path id="ArialMT-29" d="M 791 -1347 
L 388 -1347 
Q 1322 153 1322 1656 
Q 1322 2244 1188 2822 
Q 1081 3291 891 3722 
Q 769 4003 388 4659 
L 791 4659 
Q 1378 3875 1659 3084 
Q 1900 2403 1900 1659 
Q 1900 816 1576 28 
Q 1253 -759 791 -1347 
z
" transform="scale(0.015625)"/>
      </defs>
      <use xlink:href="#ArialMT-54"/>
      <use xlink:href="#ArialMT-69" transform="translate(57.333984 0)"/>
      <use xlink:href="#ArialMT-6d" transform="translate(79.550781 0)"/>
      <use xlink:href="#ArialMT-65" transform="translate(162.851562 0)"/>
      <use xlink:href="#ArialMT-20" transform="translate(218.466797 0)"/>
      <use xlink:href="#ArialMT-28" transform="translate(246.25 0)"/>
      <use xlink:href="#ArialMT-64" transform="translate(279.550781 0)"/>
      <use xlink:href="#ArialMT-29" transform="translate(335.166016 0)"/>
     </g>
    </g>
   </g>
   <g id="matplotlib.axis_2">
    <g id="ytick_1">
     <g id="line2d_6">
      <defs>
       <path id="me4fb5e0910" d="M 0 0 
L -3.5 0 
" style="stroke: #000000; stroke-width: 0.8"/>
      </defs>
      <g>
       <use xlink:href="#me4fb5e0910" x="180" y="312.872727" style="stroke: #000000; stroke-width: 0.8"/>
      </g>
     </g>
     <g id="text_7">
      <!-- 0 -->
      <g transform="translate(153.149 324.72629) scale(0.312 -0.312)">
       <use xlink:href="#DejaVuSans-30"/>
      </g>
     </g>
    </g>
    <g id="ytick_2">
     <g id="line2d_7">
      <g>
       <use xlink:href="#me4fb5e0910" x="180" y="252.654545" style="stroke: #000000; stroke-width: 0.8"/>
      </g>
     </g>
     <g id="text_8">
      <!-- 2 -->
      <g transform="translate(153.149 264.508108) scale(0.312 -0.312)">
       <use xlink:href="#DejaVuSans-32"/>
      </g>
     </g>
    </g>
    <g id="ytick_3">
     <g id="line2d_8">
      <g>
       <use xlink:href="#me4fb5e0910" x="180" y="192.436364" style="stroke: #000000; stroke-width: 0.8"/>
      </g>
     </g>
     <g id="text_9">
      <!-- 4 -->
      <g transform="translate(153.149 204.289926) scale(0.312 -0.312)">
       <use xlink:href="#DejaVuSans-34"/>
      </g>
     </g>
    </g>
    <g id="ytick_4">
     <g id="line2d_9">
      <g>
       <use xlink:href="#me4fb5e0910" x="180" y="132.218182" style="stroke: #000000; stroke-width: 0.8"/>
      </g>
     </g>
     <g id="text_10">
      <!-- 6 -->
      <g transform="translate(153.149 144.071744) scale(0.312 -0.312)">
       <use xlink:href="#DejaVuSans-36"/>
      </g>
     </g>
    </g>
    <g id="ytick_5">
     <g id="line2d_10">
      <g>
       <use xlink:href="#me4fb5e0910" x="180" y="72" style="stroke: #000000; stroke-width: 0.8"/>
      </g>
     </g>
     <g id="text_11">
      <!-- 8 -->
      <g transform="translate(153.149 83.853563) scale(0.312 -0.312)">
       <use xlink:href="#DejaVuSans-38"/>
      </g>
     </g>
    </g>
    <g id="text_12">
     <!-- Log$_{10}$ Virus (copies/mL) -->
     <g transform="translate(142.857 348.638) rotate(-90) scale(0.286 -0.286)">
      <defs>
       <path id="ArialMT-4c" d="M 469 0 
L 469 4581 
L 1075 4581 
L 1075 541 
L 3331 541 
L 3331 0 
L 469 0 
z
" transform="scale(0.015625)"/>
       <path id="ArialMT-6f" d="M 213 1659 
Q 213 2581 725 3025 
Q 1153 3394 1769 3394 
Q 2453 3394 2887 2945 
Q 3322 2497 3322 1706 
Q 3322 1066 3130 698 
Q 2938 331 2570 128 
Q 2203 -75 1769 -75 
Q 1072 -75 642 372 
Q 213 819 213 1659 
z
M 791 1659 
Q 791 1022 1069 705 
Q 1347 388 1769 388 
Q 2188 388 2466 706 
Q 2744 1025 2744 1678 
Q 2744 2294 2464 2611 
Q 2184 2928 1769 2928 
Q 1347 2928 1069 2612 
Q 791 2297 791 1659 
z
" transform="scale(0.015625)"/>
       <path id="ArialMT-67" d="M 319 -275 
L 866 -356 
Q 900 -609 1056 -725 
Q 1266 -881 1628 -881 
Q 2019 -881 2231 -725 
Q 2444 -569 2519 -288 
Q 2563 -116 2559 434 
Q 2191 0 1641 0 
Q 956 0 581 494 
Q 206 988 206 1678 
Q 206 2153 378 2554 
Q 550 2956 876 3175 
Q 1203 3394 1644 3394 
Q 2231 3394 2613 2919 
L 2613 3319 
L 3131 3319 
L 3131 450 
Q 3131 -325 2973 -648 
Q 2816 -972 2473 -1159 
Q 2131 -1347 1631 -1347 
Q 1038 -1347 672 -1080 
Q 306 -813 319 -275 
z
M 784 1719 
Q 784 1066 1043 766 
Q 1303 466 1694 466 
Q 2081 466 2343 764 
Q 2606 1063 2606 1700 
Q 2606 2309 2336 2618 
Q 2066 2928 1684 2928 
Q 1309 2928 1046 2623 
Q 784 2319 784 1719 
z
" transform="scale(0.015625)"/>
       <path id="DejaVuSans-31" d="M 794 531 
L 1825 531 
L 1825 4091 
L 703 3866 
L 703 4441 
L 1819 4666 
L 2450 4666 
L 2450 531 
L 3481 531 
L 3481 0 
L 794 0 
L 794 531 
z
" transform="scale(0.015625)"/>
       <path id="ArialMT-56" d="M 1803 0 
L 28 4581 
L 684 4581 
L 1875 1253 
Q 2019 853 2116 503 
Q 2222 878 2363 1253 
L 3600 4581 
L 4219 4581 
L 2425 0 
L 1803 0 
z
" transform="scale(0.015625)"/>
       <path id="ArialMT-72" d="M 416 0 
L 416 3319 
L 922 3319 
L 922 2816 
Q 1116 3169 1280 3281 
Q 1444 3394 1641 3394 
Q 1925 3394 2219 3213 
L 2025 2691 
Q 1819 2813 1613 2813 
Q 1428 2813 1281 2702 
Q 1134 2591 1072 2394 
Q 978 2094 978 1738 
L 978 0 
L 416 0 
z
" transform="scale(0.015625)"/>
       <path id="ArialMT-75" d="M 2597 0 
L 2597 488 
Q 2209 -75 1544 -75 
Q 1250 -75 995 37 
Q 741 150 617 320 
Q 494 491 444 738 
Q 409 903 409 1263 
L 409 3319 
L 972 3319 
L 972 1478 
Q 972 1038 1006 884 
Q 1059 663 1231 536 
Q 1403 409 1656 409 
Q 1909 409 2131 539 
Q 2353 669 2445 892 
Q 2538 1116 2538 1541 
L 2538 3319 
L 3100 3319 
L 3100 0 
L 2597 0 
z
" transform="scale(0.015625)"/>
       <path id="ArialMT-73" d="M 197 991 
L 753 1078 
Q 800 744 1014 566 
Q 1228 388 1613 388 
Q 2000 388 2187 545 
Q 2375 703 2375 916 
Q 2375 1106 2209 1216 
Q 2094 1291 1634 1406 
Q 1016 1563 777 1677 
Q 538 1791 414 1992 
Q 291 2194 291 2438 
Q 291 2659 392 2848 
Q 494 3038 669 3163 
Q 800 3259 1026 3326 
Q 1253 3394 1513 3394 
Q 1903 3394 2198 3281 
Q 2494 3169 2634 2976 
Q 2775 2784 2828 2463 
L 2278 2388 
Q 2241 2644 2061 2787 
Q 1881 2931 1553 2931 
Q 1166 2931 1000 2803 
Q 834 2675 834 2503 
Q 834 2394 903 2306 
Q 972 2216 1119 2156 
Q 1203 2125 1616 2013 
Q 2213 1853 2448 1751 
Q 2684 1650 2818 1456 
Q 2953 1263 2953 975 
Q 2953 694 2789 445 
Q 2625 197 2315 61 
Q 2006 -75 1616 -75 
Q 969 -75 630 194 
Q 291 463 197 991 
z
" transform="scale(0.015625)"/>
       <path id="ArialMT-63" d="M 2588 1216 
L 3141 1144 
Q 3050 572 2676 248 
Q 2303 -75 1759 -75 
Q 1078 -75 664 370 
Q 250 816 250 1647 
Q 250 2184 428 2587 
Q 606 2991 970 3192 
Q 1334 3394 1763 3394 
Q 2303 3394 2647 3120 
Q 2991 2847 3088 2344 
L 2541 2259 
Q 2463 2594 2264 2762 
Q 2066 2931 1784 2931 
Q 1359 2931 1093 2626 
Q 828 2322 828 1663 
Q 828 994 1084 691 
Q 1341 388 1753 388 
Q 2084 388 2306 591 
Q 2528 794 2588 1216 
z
" transform="scale(0.015625)"/>
       <path id="ArialMT-70" d="M 422 -1272 
L 422 3319 
L 934 3319 
L 934 2888 
Q 1116 3141 1344 3267 
Q 1572 3394 1897 3394 
Q 2322 3394 2647 3175 
Q 2972 2956 3137 2557 
Q 3303 2159 3303 1684 
Q 3303 1175 3120 767 
Q 2938 359 2589 142 
Q 2241 -75 1856 -75 
Q 1575 -75 1351 44 
Q 1128 163 984 344 
L 984 -1272 
L 422 -1272 
z
M 931 1641 
Q 931 1000 1190 694 
Q 1450 388 1819 388 
Q 2194 388 2461 705 
Q 2728 1022 2728 1688 
Q 2728 2322 2467 2637 
Q 2206 2953 1844 2953 
Q 1484 2953 1207 2617 
Q 931 2281 931 1641 
z
" transform="scale(0.015625)"/>
       <path id="ArialMT-2f" d="M 0 -78 
L 1328 4659 
L 1778 4659 
L 453 -78 
L 0 -78 
z
" transform="scale(0.015625)"/>
      </defs>
      <use xlink:href="#ArialMT-4c" transform="translate(0 0.203125)"/>
      <use xlink:href="#ArialMT-6f" transform="translate(55.615234 0.203125)"/>
      <use xlink:href="#ArialMT-67" transform="translate(111.230469 0.203125)"/>
      <use xlink:href="#DejaVuSans-31" transform="translate(167.802734 -16.203125) scale(0.7)"/>
      <use xlink:href="#DejaVuSans-30" transform="translate(212.338867 -16.203125) scale(0.7)"/>
      <use xlink:href="#ArialMT-20" transform="translate(259.609375 0.203125)"/>
      <use xlink:href="#ArialMT-56" transform="translate(287.392578 0.203125)"/>
      <use xlink:href="#ArialMT-69" transform="translate(354.091797 0.203125)"/>
      <use xlink:href="#ArialMT-72" transform="translate(376.308594 0.203125)"/>
      <use xlink:href="#ArialMT-75" transform="translate(409.609375 0.203125)"/>
      <use xlink:href="#ArialMT-73" transform="translate(465.224609 0.203125)"/>
      <use xlink:href="#ArialMT-20" transform="translate(515.224609 0.203125)"/>
      <use xlink:href="#ArialMT-28" transform="translate(543.007812 0.203125)"/>
      <use xlink:href="#ArialMT-63" transform="translate(576.308594 0.203125)"/>
      <use xlink:href="#ArialMT-6f" transform="translate(626.308594 0.203125)"/>
      <use xlink:href="#ArialMT-70" transform="translate(681.923828 0.203125)"/>
      <use xlink:href="#ArialMT-69" transform="translate(737.539062 0.203125)"/>
      <use xlink:href="#ArialMT-65" transform="translate(759.755859 0.203125)"/>
      <use xlink:href="#ArialMT-73" transform="translate(815.371094 0.203125)"/>
      <use xlink:href="#ArialMT-2f" transform="translate(865.371094 0.203125)"/>
      <use xlink:href="#ArialMT-6d" transform="translate(893.154297 0.203125)"/>
      <use xlink:href="#ArialMT-4c" transform="translate(976.455078 0.203125)"/>
      <use xlink:href="#ArialMT-29" transform="translate(1032.070312 0.203125)"/>
     </g>
    </g>
   </g>
   <g id="patch_3">
    <path d="M 180 320.4 
L 180 72 
" style="fill: none; stroke: #000000; stroke-width: 3; stroke-linejoin: miter; stroke-linecap: square"/>
   </g>
   <g id="patch_4">
    <path d="M 407.755102 320.4 
L 407.755102 72 
" style="fill: none; stroke: #000000; stroke-width: 3; stroke-linejoin: miter; stroke-linecap: square"/>
   </g>
   <g id="patch_5">
    <path d="M 180 320.4 
L 407.755102 320.4 
" style="fill: none; stroke: #000000; stroke-width: 3; stroke-linejoin: miter; stroke-linecap: square"/>
   </g>
   <g id="patch_6">
    <path d="M 180 72 
L 407.755102 72 
" style="fill: none; stroke: #000000; stroke-width: 3; stroke-linejoin: miter; stroke-linecap: square"/>
   </g>
   <g id="FillBetweenPolyCollection_1">
    <defs>
     <path id="mc34f418f8f" d="M 186.698679 -47.127273 
L 186.698679 -47.127273 
L 187.775854 -47.127273 
L 188.853029 -56.861623 
L 189.930203 -65.592115 
L 191.007378 -72.335996 
L 192.084552 -78.45548 
L 193.161727 -84.375193 
L 194.238902 -90.310778 
L 195.316076 -96.197248 
L 196.393251 -101.860279 
L 197.470425 -107.447741 
L 198.5476 -113.076177 
L 199.624775 -118.668462 
L 200.701949 -124.292899 
L 201.779124 -129.889555 
L 202.856298 -135.519597 
L 203.933473 -141.130177 
L 205.010647 -146.734284 
L 206.087822 -152.338594 
L 207.164997 -157.865408 
L 208.242171 -163.363336 
L 209.319346 -168.829751 
L 210.39652 -174.338123 
L 211.473695 -179.795814 
L 212.55087 -185.268354 
L 213.493397 -190.026335 
L 213.628044 -190.705791 
L 214.705219 -196.140906 
L 215.782393 -201.531855 
L 216.859568 -206.871012 
L 217.936743 -212.142804 
L 219.013917 -217.299808 
L 220.091092 -222.323481 
L 221.168266 -227.113991 
L 222.245441 -231.629697 
L 223.322615 -235.782372 
L 224.39979 -239.503413 
L 225.476965 -242.675517 
L 226.554139 -245.080193 
L 227.631314 -247.027178 
L 228.708488 -248.581524 
L 229.785663 -249.816295 
L 230.862838 -250.798608 
L 231.940012 -251.584053 
L 233.017187 -252.196671 
L 234.094361 -252.57338 
L 235.171536 -252.881201 
L 236.248711 -253.133049 
L 237.325885 -253.339094 
L 238.40306 -253.507409 
L 239.480234 -253.64445 
L 240.288115 -253.729912 
L 240.557409 -253.755471 
L 241.634583 -253.844741 
L 242.711758 -253.915751 
L 243.788933 -253.971783 
L 244.866107 -254.014939 
L 245.943282 -254.046497 
L 247.020456 -254.068667 
L 248.097631 -254.083018 
L 249.174806 -254.090178 
L 250.25198 -254.091159 
L 251.329155 -254.086915 
L 252.406329 -254.077875 
L 253.483504 -254.064437 
L 254.560679 -254.047009 
L 255.637853 -254.025769 
L 256.715028 -254.000765 
L 257.792202 -253.972045 
L 258.869377 -253.939518 
L 259.946551 -253.903013 
L 261.023726 -253.862371 
L 262.100901 -253.817266 
L 263.178075 -253.767236 
L 264.25525 -253.71193 
L 265.332424 -253.650955 
L 266.409599 -253.583686 
L 267.082833 -253.538118 
L 267.486774 -253.509405 
L 268.563948 -253.427621 
L 269.641123 -253.337707 
L 270.718297 -253.238839 
L 271.795472 -253.130105 
L 272.872647 -253.010859 
L 273.949821 -252.88028 
L 275.026996 -252.737387 
L 276.10417 -252.581167 
L 277.181345 -252.410675 
L 278.258519 -252.225004 
L 279.335694 -252.022887 
L 280.412869 -251.803343 
L 281.490043 -251.565081 
L 282.567218 -251.306832 
L 283.644392 -251.0273 
L 284.721567 -250.724949 
L 285.798742 -250.398253 
L 286.875916 -250.045503 
L 287.953091 -249.664818 
L 289.030265 -249.254116 
L 290.10744 -248.811177 
L 291.184615 -248.333301 
L 292.261789 -247.817702 
L 293.338964 -247.260993 
L 293.877551 -246.965961 
L 294.416138 -246.65921 
L 295.493313 -246.008123 
L 296.570487 -245.302084 
L 297.647662 -244.535084 
L 298.724837 -243.699341 
L 299.802011 -242.785245 
L 300.879186 -241.781581 
L 301.95636 -240.672825 
L 303.033535 -239.400303 
L 304.11071 -237.822788 
L 305.187884 -236.002897 
L 306.265059 -233.861013 
L 307.342233 -231.271508 
L 308.419408 -228.008527 
L 309.496583 -223.616352 
L 310.573757 -216.913899 
L 311.650932 -207.860362 
L 312.728106 -198.705647 
L 313.805281 -189.432058 
L 314.882455 -180.224752 
L 315.95963 -170.805332 
L 317.036805 -160.261006 
L 318.113979 -147.05313 
L 319.191154 -133.693693 
L 320.268328 -120.339328 
L 320.672269 -115.382062 
L 321.345503 -106.944879 
L 322.422678 -93.545042 
L 323.499852 -80.119662 
L 324.577027 -66.688345 
L 325.654201 -53.240533 
L 326.731376 -47.127273 
L 327.808551 -47.127273 
L 328.885725 -47.127273 
L 329.9629 -47.127273 
L 331.040074 -47.127273 
L 332.117249 -47.127273 
L 333.194423 -47.127273 
L 334.271598 -47.127273 
L 335.348773 -47.127273 
L 336.425947 -47.127273 
L 337.503122 -47.127273 
L 338.580296 -47.127273 
L 339.657471 -47.127273 
L 340.734646 -47.127273 
L 341.81182 -47.127273 
L 342.888995 -47.127273 
L 343.966169 -47.127273 
L 345.043344 -47.127273 
L 346.120519 -47.127273 
L 347.197693 -47.127273 
L 347.466987 -47.127273 
L 348.274868 -47.127273 
L 349.352042 -47.127273 
L 350.429217 -47.127273 
L 351.506392 -47.127273 
L 352.583566 -47.127273 
L 353.660741 -47.127273 
L 354.737915 -47.127273 
L 355.81509 -47.127273 
L 356.892264 -47.127273 
L 357.969439 -47.127273 
L 359.046614 -47.127273 
L 360.123788 -47.127273 
L 361.200963 -47.127273 
L 362.278137 -47.127273 
L 363.355312 -47.127273 
L 364.432487 -47.127273 
L 365.509661 -47.127273 
L 366.586836 -47.127273 
L 367.66401 -47.127273 
L 368.741185 -47.127273 
L 369.81836 -47.127273 
L 370.895534 -47.127273 
L 371.972709 -47.127273 
L 373.049883 -47.127273 
L 374.127058 -47.127273 
L 374.261705 -47.127273 
L 375.204232 -47.127273 
L 376.281407 -47.127273 
L 377.358582 -47.127273 
L 378.435756 -47.127273 
L 379.512931 -47.127273 
L 380.590105 -47.127273 
L 381.66728 -47.127273 
L 382.744455 -47.127273 
L 383.821629 -47.127273 
L 384.898804 -47.127273 
L 385.975978 -47.127273 
L 387.053153 -47.127273 
L 388.130328 -47.127273 
L 389.207502 -47.127273 
L 390.284677 -47.127273 
L 391.361851 -47.127273 
L 392.439026 -47.127273 
L 393.5162 -47.127273 
L 394.593375 -47.127273 
L 395.67055 -47.127273 
L 396.747724 -47.127273 
L 397.824899 -47.127273 
L 398.902073 -47.127273 
L 399.979248 -47.127273 
L 401.056423 -47.127273 
L 401.056423 -47.127273 
L 401.056423 -47.127273 
L 399.979248 -47.127273 
L 398.902073 -47.127273 
L 397.824899 -47.127273 
L 396.747724 -47.127273 
L 395.67055 -47.127273 
L 394.593375 -47.127273 
L 393.5162 -47.127273 
L 392.439026 -47.127273 
L 391.361851 -47.127273 
L 390.284677 -47.127273 
L 389.207502 -47.127273 
L 388.130328 -47.127273 
L 387.053153 -47.127273 
L 385.975978 -47.127273 
L 384.898804 -47.127273 
L 383.821629 -47.127273 
L 382.744455 -47.127273 
L 381.66728 -47.127273 
L 380.590105 -47.127273 
L 379.512931 -47.127273 
L 378.435756 -47.127273 
L 377.358582 -47.127273 
L 376.281407 -47.127273 
L 375.204232 -47.127273 
L 374.261705 -47.127273 
L 374.127058 -47.127273 
L 373.049883 -47.127273 
L 371.972709 -47.127273 
L 370.895534 -47.127273 
L 369.81836 -47.127273 
L 368.741185 -47.127273 
L 367.66401 -47.127273 
L 366.586836 -47.127273 
L 365.509661 -47.127273 
L 364.432487 -47.127273 
L 363.355312 -47.127273 
L 362.278137 -47.127273 
L 361.200963 -47.127273 
L 360.123788 -47.127273 
L 359.046614 -47.127273 
L 357.969439 -47.127273 
L 356.892264 -47.127273 
L 355.81509 -47.127273 
L 354.737915 -47.127273 
L 353.660741 -47.127273 
L 352.583566 -47.127273 
L 351.506392 -47.127273 
L 350.429217 -47.127273 
L 349.352042 -47.127273 
L 348.274868 -47.127273 
L 347.466987 -47.127273 
L 347.197693 -47.127273 
L 346.120519 -47.127273 
L 345.043344 -47.127273 
L 343.966169 -47.127273 
L 342.888995 -47.127273 
L 341.81182 -47.127273 
L 340.734646 -47.127273 
L 339.657471 -47.127273 
L 338.580296 -47.127273 
L 337.503122 -47.127273 
L 336.425947 -47.127273 
L 335.348773 -47.127273 
L 334.271598 -47.127273 
L 333.194423 -48.781122 
L 332.117249 -57.346206 
L 331.040074 -65.861885 
L 329.9629 -74.399576 
L 328.885725 -83.010895 
L 327.808551 -91.564118 
L 326.731376 -100.074529 
L 325.654201 -108.593044 
L 324.577027 -117.173345 
L 323.499852 -125.734127 
L 322.422678 -134.243708 
L 321.345503 -142.740187 
L 320.672269 -148.119435 
L 320.268328 -151.261697 
L 319.191154 -160.333508 
L 318.113979 -169.411391 
L 317.036805 -178.476016 
L 315.95963 -187.50662 
L 314.882455 -196.508054 
L 313.805281 -206.917946 
L 312.728106 -217.413777 
L 311.650932 -224.165459 
L 310.573757 -228.710217 
L 309.496583 -232.290502 
L 308.419408 -235.440408 
L 307.342233 -237.98478 
L 306.265059 -240.14552 
L 305.187884 -241.980938 
L 304.11071 -243.570414 
L 303.033535 -244.96807 
L 301.95636 -246.2111 
L 300.879186 -247.326028 
L 299.802011 -248.333702 
L 298.724837 -249.248978 
L 297.647662 -250.084412 
L 296.570487 -250.849706 
L 295.493313 -251.552551 
L 294.416138 -252.199828 
L 293.877551 -252.504244 
L 293.338964 -252.796677 
L 292.261789 -253.347926 
L 291.184615 -253.857522 
L 290.10744 -254.328807 
L 289.030265 -254.764912 
L 287.953091 -255.168394 
L 286.875916 -255.541655 
L 285.798742 -255.886831 
L 284.721567 -256.205843 
L 283.644392 -256.500418 
L 282.567218 -256.772262 
L 281.490043 -257.022792 
L 280.412869 -257.253456 
L 279.335694 -257.465613 
L 278.258519 -257.660365 
L 277.181345 -257.83909 
L 276.10417 -258.002727 
L 275.026996 -258.152419 
L 273.949821 -258.289228 
L 272.872647 -258.413933 
L 271.795472 -258.527701 
L 270.718297 -258.63119 
L 269.641123 -258.725321 
L 268.563948 -258.810908 
L 267.486774 -258.888509 
L 267.082833 -258.915753 
L 266.409599 -258.959017 
L 265.332424 -259.022872 
L 264.25525 -259.080686 
L 263.178075 -259.132974 
L 262.100901 -259.180231 
L 261.023726 -259.222772 
L 259.946551 -259.260862 
L 258.869377 -259.294775 
L 257.792202 -259.324637 
L 256.715028 -259.350514 
L 255.637853 -259.372346 
L 254.560679 -259.390029 
L 253.483504 -259.403298 
L 252.406329 -259.41171 
L 251.329155 -259.414775 
L 250.25198 -259.411966 
L 249.174806 -259.402362 
L 248.097631 -259.384612 
L 247.020456 -259.357778 
L 245.943282 -259.320487 
L 244.866107 -259.270674 
L 243.788933 -259.205634 
L 242.711758 -259.123374 
L 241.634583 -259.020289 
L 240.557409 -258.891921 
L 240.288115 -258.855365 
L 239.480234 -258.733869 
L 238.40306 -258.539835 
L 237.325885 -258.302178 
L 236.248711 -258.011323 
L 235.171536 -257.655038 
L 234.094361 -257.217509 
L 233.017187 -256.67834 
L 231.940012 -256.010869 
L 230.862838 -255.288177 
L 229.785663 -254.430472 
L 228.708488 -253.550545 
L 227.631314 -252.608718 
L 226.554139 -251.426088 
L 225.476965 -249.933766 
L 224.39979 -248.050822 
L 223.322615 -245.689613 
L 222.245441 -242.911929 
L 221.168266 -239.647617 
L 220.091092 -235.81468 
L 219.013917 -231.413411 
L 217.936743 -226.515777 
L 216.859568 -221.21947 
L 215.782393 -215.648204 
L 214.705219 -209.852383 
L 213.628044 -203.941093 
L 213.493397 -203.196781 
L 212.55087 -197.927454 
L 211.473695 -191.87302 
L 210.39652 -185.757051 
L 209.319346 -179.637785 
L 208.242171 -173.494248 
L 207.164997 -167.356146 
L 206.087822 -161.187945 
L 205.010647 -155.035004 
L 203.933473 -148.872292 
L 202.856298 -142.724413 
L 201.779124 -136.57513 
L 200.701949 -130.488954 
L 199.624775 -124.494986 
L 198.5476 -118.523675 
L 197.470425 -112.527825 
L 196.393251 -106.561037 
L 195.316076 -100.564955 
L 194.238902 -94.880763 
L 193.161727 -89.285184 
L 192.084552 -83.699323 
L 191.007378 -77.889039 
L 189.930203 -71.433078 
L 188.853029 -62.95101 
L 187.775854 -47.998802 
L 186.698679 -47.127273 
z
" style="stroke: #1e90ff; stroke-opacity: 0.2"/>
    </defs>
    <g clip-path="url(#pa54901f960)">
     <use xlink:href="#mc34f418f8f" x="0" y="360" style="fill: #1e90ff; fill-opacity: 0.2; stroke: #1e90ff; stroke-opacity: 0.2"/>
    </g>
   </g>
   <g id="PathCollection_1">
    <defs>
     <path id="m43de023253" d="M 0 7.071068 
C 1.875269 7.071068 3.673985 6.326016 5 5 
C 6.326016 3.673985 7.071068 1.875269 7.071068 0 
C 7.071068 -1.875269 6.326016 -3.673985 5 -5 
C 3.673985 -6.326016 1.875269 -7.071068 0 -7.071068 
C -1.875269 -7.071068 -3.673985 -6.326016 -5 -5 
C -6.326016 -3.673985 -7.071068 -1.875269 -7.071068 0 
C -7.071068 1.875269 -6.326016 3.673985 -5 5 
C -3.673985 6.326016 -1.875269 7.071068 0 7.071068 
z
" style="stroke: #000000; stroke-opacity: 0.8"/>
    </defs>
    <g clip-path="url(#pa54901f960)">
     <use xlink:href="#m43de023253" x="186.698679" y="312.872727" style="fill: #1e90ff; fill-opacity: 0.8; stroke: #000000; stroke-opacity: 0.8"/>
     <use xlink:href="#m43de023253" x="213.493397" y="163.099973" style="fill: #1e90ff; fill-opacity: 0.8; stroke: #000000; stroke-opacity: 0.8"/>
     <use xlink:href="#m43de023253" x="240.288115" y="117.464289" style="fill: #1e90ff; fill-opacity: 0.8; stroke: #000000; stroke-opacity: 0.8"/>
     <use xlink:href="#m43de023253" x="293.877551" y="93.685277" style="fill: #1e90ff; fill-opacity: 0.8; stroke: #000000; stroke-opacity: 0.8"/>
     <use xlink:href="#m43de023253" x="320.672269" y="178.171314" style="fill: #1e90ff; fill-opacity: 0.8; stroke: #000000; stroke-opacity: 0.8"/>
     <use xlink:href="#m43de023253" x="347.466987" y="312.872727" style="fill: #1e90ff; fill-opacity: 0.8; stroke: #000000; stroke-opacity: 0.8"/>
     <use xlink:href="#m43de023253" x="374.261705" y="312.872727" style="fill: #1e90ff; fill-opacity: 0.8; stroke: #000000; stroke-opacity: 0.8"/>
    </g>
   </g>
   <g id="line2d_11">
    <path d="M 186.698679 312.872727 
L 187.775854 312.872727 
L 188.853029 300.023733 
L 189.930203 291.413462 
L 192.084552 278.777352 
L 215.782393 151.608346 
L 219.013917 135.534631 
L 221.168266 126.149869 
L 222.245441 122.102163 
L 223.322615 118.582364 
L 224.39979 115.606418 
L 225.476965 113.158168 
L 226.554139 111.188216 
L 227.631314 109.620784 
L 228.708488 108.378042 
L 229.785663 107.390018 
L 230.862838 106.59986 
L 233.017187 105.448789 
L 235.171536 104.687354 
L 237.325885 104.177483 
L 240.557409 103.709352 
L 244.866107 103.409962 
L 250.25198 103.303898 
L 257.792202 103.396825 
L 265.332424 103.697712 
L 270.718297 104.09346 
L 276.10417 104.729282 
L 280.412869 105.478343 
L 283.644392 106.230829 
L 286.875916 107.187613 
L 290.10744 108.395475 
L 293.338964 109.91872 
L 295.493313 111.154674 
L 297.647662 112.610693 
L 299.802011 114.342765 
L 301.95636 116.43707 
L 304.11071 119.034212 
L 305.187884 120.592319 
L 306.265059 122.384574 
L 307.342233 124.484405 
L 308.419408 127.014829 
L 309.496583 130.176674 
L 310.573757 134.385258 
L 311.650932 140.66554 
L 313.805281 160.812158 
L 322.422678 245.008036 
L 328.885725 308.794656 
L 329.9629 312.872727 
L 401.056423 312.872727 
L 401.056423 312.872727 
" clip-path="url(#pa54901f960)" style="fill: none; stroke: #1e90ff; stroke-width: 3; stroke-linecap: square"/>
   </g>
  </g>
  <g id="axes_2">
   <g id="patch_7">
    <path d="M 476.081633 320.4 
L 703.836735 320.4 
L 703.836735 72 
L 476.081633 72 
L 476.081633 320.4 
z
" style="fill: none"/>
   </g>
   <g id="matplotlib.axis_3">
    <g id="xtick_6">
     <g id="line2d_12">
      <g>
       <use xlink:href="#mfe9ad8a1b4" x="482.780312" y="320.4" style="stroke: #000000; stroke-width: 0.8"/>
      </g>
     </g>
     <g id="text_13">
      <!-- 0 -->
      <g transform="translate(472.854812 351.107125) scale(0.312 -0.312)">
       <use xlink:href="#DejaVuSans-30"/>
      </g>
     </g>
    </g>
    <g id="xtick_7">
     <g id="line2d_13">
      <g>
       <use xlink:href="#mfe9ad8a1b4" x="536.369748" y="320.4" style="stroke: #000000; stroke-width: 0.8"/>
      </g>
     </g>
     <g id="text_14">
      <!-- 2 -->
      <g transform="translate(526.444248 351.107125) scale(0.312 -0.312)">
       <use xlink:href="#DejaVuSans-32"/>
      </g>
     </g>
    </g>
    <g id="xtick_8">
     <g id="line2d_14">
      <g>
       <use xlink:href="#mfe9ad8a1b4" x="589.959184" y="320.4" style="stroke: #000000; stroke-width: 0.8"/>
      </g>
     </g>
     <g id="text_15">
      <!-- 4 -->
      <g transform="translate(580.033684 351.107125) scale(0.312 -0.312)">
       <use xlink:href="#DejaVuSans-34"/>
      </g>
     </g>
    </g>
    <g id="xtick_9">
     <g id="line2d_15">
      <g>
       <use xlink:href="#mfe9ad8a1b4" x="643.548619" y="320.4" style="stroke: #000000; stroke-width: 0.8"/>
      </g>
     </g>
     <g id="text_16">
      <!-- 6 -->
      <g transform="translate(633.623119 351.107125) scale(0.312 -0.312)">
       <use xlink:href="#DejaVuSans-36"/>
      </g>
     </g>
    </g>
    <g id="xtick_10">
     <g id="line2d_16">
      <g>
       <use xlink:href="#mfe9ad8a1b4" x="697.138055" y="320.4" style="stroke: #000000; stroke-width: 0.8"/>
      </g>
     </g>
     <g id="text_17">
      <!-- 8 -->
      <g transform="translate(687.212555 351.107125) scale(0.312 -0.312)">
       <use xlink:href="#DejaVuSans-38"/>
      </g>
     </g>
    </g>
    <g id="text_18">
     <!-- Time (d) -->
     <g transform="translate(537.272621 382.415656) scale(0.286 -0.286)">
      <use xlink:href="#ArialMT-54"/>
      <use xlink:href="#ArialMT-69" transform="translate(57.333984 0)"/>
      <use xlink:href="#ArialMT-6d" transform="translate(79.550781 0)"/>
      <use xlink:href="#ArialMT-65" transform="translate(162.851562 0)"/>
      <use xlink:href="#ArialMT-20" transform="translate(218.466797 0)"/>
      <use xlink:href="#ArialMT-28" transform="translate(246.25 0)"/>
      <use xlink:href="#ArialMT-64" transform="translate(279.550781 0)"/>
      <use xlink:href="#ArialMT-29" transform="translate(335.166016 0)"/>
     </g>
    </g>
   </g>
   <g id="matplotlib.axis_4">
    <g id="ytick_6">
     <g id="line2d_17">
      <g>
       <use xlink:href="#me4fb5e0910" x="476.081633" y="320.4" style="stroke: #000000; stroke-width: 0.8"/>
      </g>
     </g>
     <g id="text_19">
      <!-- 3 -->
      <g transform="translate(449.230633 332.253562) scale(0.312 -0.312)">
       <defs>
        <path id="DejaVuSans-33" d="M 2597 2516 
Q 3050 2419 3304 2112 
Q 3559 1806 3559 1356 
Q 3559 666 3084 287 
Q 2609 -91 1734 -91 
Q 1441 -91 1130 -33 
Q 819 25 488 141 
L 488 750 
Q 750 597 1062 519 
Q 1375 441 1716 441 
Q 2309 441 2620 675 
Q 2931 909 2931 1356 
Q 2931 1769 2642 2001 
Q 2353 2234 1838 2234 
L 1294 2234 
L 1294 2753 
L 1863 2753 
Q 2328 2753 2575 2939 
Q 2822 3125 2822 3475 
Q 2822 3834 2567 4026 
Q 2313 4219 1838 4219 
Q 1578 4219 1281 4162 
Q 984 4106 628 3988 
L 628 4550 
Q 988 4650 1302 4700 
Q 1616 4750 1894 4750 
Q 2613 4750 3031 4423 
Q 3450 4097 3450 3541 
Q 3450 3153 3228 2886 
Q 3006 2619 2597 2516 
z
" transform="scale(0.015625)"/>
       </defs>
       <use xlink:href="#DejaVuSans-33"/>
      </g>
     </g>
    </g>
    <g id="ytick_7">
     <g id="line2d_18">
      <g>
       <use xlink:href="#me4fb5e0910" x="476.081633" y="265.2" style="stroke: #000000; stroke-width: 0.8"/>
      </g>
     </g>
     <g id="text_20">
      <!-- 4 -->
      <g transform="translate(449.230633 277.053562) scale(0.312 -0.312)">
       <use xlink:href="#DejaVuSans-34"/>
      </g>
     </g>
    </g>
    <g id="ytick_8">
     <g id="line2d_19">
      <g>
       <use xlink:href="#me4fb5e0910" x="476.081633" y="210" style="stroke: #000000; stroke-width: 0.8"/>
      </g>
     </g>
     <g id="text_21">
      <!-- 5 -->
      <g transform="translate(449.230633 221.853563) scale(0.312 -0.312)">
       <defs>
        <path id="DejaVuSans-35" d="M 691 4666 
L 3169 4666 
L 3169 4134 
L 1269 4134 
L 1269 2991 
Q 1406 3038 1543 3061 
Q 1681 3084 1819 3084 
Q 2600 3084 3056 2656 
Q 3513 2228 3513 1497 
Q 3513 744 3044 326 
Q 2575 -91 1722 -91 
Q 1428 -91 1123 -41 
Q 819 9 494 109 
L 494 744 
Q 775 591 1075 516 
Q 1375 441 1709 441 
Q 2250 441 2565 725 
Q 2881 1009 2881 1497 
Q 2881 1984 2565 2268 
Q 2250 2553 1709 2553 
Q 1456 2553 1204 2497 
Q 953 2441 691 2322 
L 691 4666 
z
" transform="scale(0.015625)"/>
       </defs>
       <use xlink:href="#DejaVuSans-35"/>
      </g>
     </g>
    </g>
    <g id="ytick_9">
     <g id="line2d_20">
      <g>
       <use xlink:href="#me4fb5e0910" x="476.081633" y="154.8" style="stroke: #000000; stroke-width: 0.8"/>
      </g>
     </g>
     <g id="text_22">
      <!-- 6 -->
      <g transform="translate(449.230633 166.653563) scale(0.312 -0.312)">
       <use xlink:href="#DejaVuSans-36"/>
      </g>
     </g>
    </g>
    <g id="ytick_10">
     <g id="line2d_21">
      <g>
       <use xlink:href="#me4fb5e0910" x="476.081633" y="99.6" style="stroke: #000000; stroke-width: 0.8"/>
      </g>
     </g>
     <g id="text_23">
      <!-- 7 -->
      <g transform="translate(449.230633 111.453563) scale(0.312 -0.312)">
       <defs>
        <path id="DejaVuSans-37" d="M 525 4666 
L 3525 4666 
L 3525 4397 
L 1831 0 
L 1172 0 
L 2766 4134 
L 525 4134 
L 525 4666 
z
" transform="scale(0.015625)"/>
       </defs>
       <use xlink:href="#DejaVuSans-37"/>
      </g>
     </g>
    </g>
    <g id="text_24">
     <!-- Log$_{10}$ CD8$^+$ T cells -->
     <g transform="translate(438.938633 324.042) rotate(-90) scale(0.286 -0.286)">
      <defs>
       <path id="ArialMT-43" d="M 3763 1606 
L 4369 1453 
Q 4178 706 3683 314 
Q 3188 -78 2472 -78 
Q 1731 -78 1267 223 
Q 803 525 561 1097 
Q 319 1669 319 2325 
Q 319 3041 592 3573 
Q 866 4106 1370 4382 
Q 1875 4659 2481 4659 
Q 3169 4659 3637 4309 
Q 4106 3959 4291 3325 
L 3694 3184 
Q 3534 3684 3231 3912 
Q 2928 4141 2469 4141 
Q 1941 4141 1586 3887 
Q 1231 3634 1087 3207 
Q 944 2781 944 2328 
Q 944 1744 1114 1308 
Q 1284 872 1643 656 
Q 2003 441 2422 441 
Q 2931 441 3284 734 
Q 3638 1028 3763 1606 
z
" transform="scale(0.015625)"/>
       <path id="ArialMT-44" d="M 494 0 
L 494 4581 
L 2072 4581 
Q 2606 4581 2888 4516 
Q 3281 4425 3559 4188 
Q 3922 3881 4101 3404 
Q 4281 2928 4281 2316 
Q 4281 1794 4159 1391 
Q 4038 988 3847 723 
Q 3656 459 3429 307 
Q 3203 156 2883 78 
Q 2563 0 2147 0 
L 494 0 
z
M 1100 541 
L 2078 541 
Q 2531 541 2789 625 
Q 3047 709 3200 863 
Q 3416 1078 3536 1442 
Q 3656 1806 3656 2325 
Q 3656 3044 3420 3430 
Q 3184 3816 2847 3947 
Q 2603 4041 2063 4041 
L 1100 4041 
L 1100 541 
z
" transform="scale(0.015625)"/>
       <path id="ArialMT-38" d="M 1131 2484 
Q 781 2613 612 2850 
Q 444 3088 444 3419 
Q 444 3919 803 4259 
Q 1163 4600 1759 4600 
Q 2359 4600 2725 4251 
Q 3091 3903 3091 3403 
Q 3091 3084 2923 2848 
Q 2756 2613 2416 2484 
Q 2838 2347 3058 2040 
Q 3278 1734 3278 1309 
Q 3278 722 2862 322 
Q 2447 -78 1769 -78 
Q 1091 -78 675 323 
Q 259 725 259 1325 
Q 259 1772 486 2073 
Q 713 2375 1131 2484 
z
M 1019 3438 
Q 1019 3113 1228 2906 
Q 1438 2700 1772 2700 
Q 2097 2700 2305 2904 
Q 2513 3109 2513 3406 
Q 2513 3716 2298 3927 
Q 2084 4138 1766 4138 
Q 1444 4138 1231 3931 
Q 1019 3725 1019 3438 
z
M 838 1322 
Q 838 1081 952 856 
Q 1066 631 1291 507 
Q 1516 384 1775 384 
Q 2178 384 2440 643 
Q 2703 903 2703 1303 
Q 2703 1709 2433 1975 
Q 2163 2241 1756 2241 
Q 1359 2241 1098 1978 
Q 838 1716 838 1322 
z
" transform="scale(0.015625)"/>
       <path id="DejaVuSans-2b" d="M 2944 4013 
L 2944 2272 
L 4684 2272 
L 4684 1741 
L 2944 1741 
L 2944 0 
L 2419 0 
L 2419 1741 
L 678 1741 
L 678 2272 
L 2419 2272 
L 2419 4013 
L 2944 4013 
z
" transform="scale(0.015625)"/>
       <path id="ArialMT-6c" d="M 409 0 
L 409 4581 
L 972 4581 
L 972 0 
L 409 0 
z
" transform="scale(0.015625)"/>
      </defs>
      <use xlink:href="#ArialMT-4c" transform="translate(0 0.826562)"/>
      <use xlink:href="#ArialMT-6f" transform="translate(55.615234 0.826562)"/>
      <use xlink:href="#ArialMT-67" transform="translate(111.230469 0.826562)"/>
      <use xlink:href="#DejaVuSans-31" transform="translate(167.802734 -15.579688) scale(0.7)"/>
      <use xlink:href="#DejaVuSans-30" transform="translate(212.338867 -15.579688) scale(0.7)"/>
      <use xlink:href="#ArialMT-20" transform="translate(259.609375 0.826562)"/>
      <use xlink:href="#ArialMT-43" transform="translate(287.392578 0.826562)"/>
      <use xlink:href="#ArialMT-44" transform="translate(359.609375 0.826562)"/>
      <use xlink:href="#ArialMT-38" transform="translate(431.826172 0.826562)"/>
      <use xlink:href="#DejaVuSans-2b" transform="translate(502.036133 39.107812) scale(0.7)"/>
      <use xlink:href="#ArialMT-20" transform="translate(577.060547 0.826562)"/>
      <use xlink:href="#ArialMT-54" transform="translate(604.84375 0.826562)"/>
      <use xlink:href="#ArialMT-20" transform="translate(665.927734 0.826562)"/>
      <use xlink:href="#ArialMT-63" transform="translate(693.710938 0.826562)"/>
      <use xlink:href="#ArialMT-65" transform="translate(743.710938 0.826562)"/>
      <use xlink:href="#ArialMT-6c" transform="translate(799.326172 0.826562)"/>
      <use xlink:href="#ArialMT-6c" transform="translate(821.542969 0.826562)"/>
      <use xlink:href="#ArialMT-73" transform="translate(843.759766 0.826562)"/>
     </g>
    </g>
   </g>
   <g id="patch_8">
    <path d="M 476.081633 320.4 
L 476.081633 72 
" style="fill: none; stroke: #000000; stroke-width: 3; stroke-linejoin: miter; stroke-linecap: square"/>
   </g>
   <g id="patch_9">
    <path d="M 703.836735 320.4 
L 703.836735 72 
" style="fill: none; stroke: #000000; stroke-width: 3; stroke-linejoin: miter; stroke-linecap: square"/>
   </g>
   <g id="patch_10">
    <path d="M 476.081633 320.4 
L 703.836735 320.4 
" style="fill: none; stroke: #000000; stroke-width: 3; stroke-linejoin: miter; stroke-linecap: square"/>
   </g>
   <g id="patch_11">
    <path d="M 476.081633 72 
L 703.836735 72 
" style="fill: none; stroke: #000000; stroke-width: 3; stroke-linejoin: miter; stroke-linecap: square"/>
   </g>
   <g id="FillBetweenPolyCollection_2">
    <defs>
     <path id="m622174522a" d="M 482.780312 -153.976987 
L 482.780312 -153.976987 
L 483.857487 -153.976987 
L 484.934661 -153.976987 
L 486.011836 -153.976987 
L 487.08901 -153.976987 
L 488.166185 -153.976987 
L 489.24336 -153.976987 
L 490.320534 -153.976987 
L 491.397709 -153.976987 
L 492.474883 -153.976987 
L 493.552058 -153.976987 
L 494.629233 -153.976987 
L 495.706407 -153.976987 
L 496.783582 -153.976987 
L 497.860756 -153.976987 
L 498.937931 -153.976987 
L 500.015106 -153.976987 
L 501.09228 -153.976987 
L 502.169455 -153.976987 
L 503.246629 -153.976987 
L 504.323804 -153.976987 
L 505.400978 -153.976987 
L 506.478153 -153.976988 
L 507.555328 -153.976988 
L 508.632502 -153.976989 
L 509.57503 -153.97699 
L 509.709677 -153.97699 
L 510.786851 -153.976993 
L 511.864026 -153.976996 
L 512.941201 -153.977002 
L 514.018375 -153.977011 
L 515.09555 -153.977025 
L 516.172724 -153.977048 
L 517.249899 -153.977083 
L 518.327074 -153.977138 
L 519.404248 -153.977225 
L 520.481423 -153.977361 
L 521.558597 -153.977571 
L 522.635772 -153.977897 
L 523.712946 -153.978403 
L 524.790121 -153.979184 
L 525.867296 -153.980386 
L 526.94447 -153.982232 
L 528.021645 -153.985052 
L 529.098819 -153.989333 
L 530.175994 -153.995794 
L 531.253169 -154.005456 
L 532.330343 -154.019776 
L 533.407518 -154.040797 
L 534.484692 -154.071273 
L 535.561867 -154.114978 
L 536.369748 -154.159349 
L 536.639042 -154.176855 
L 537.716216 -154.26325 
L 538.793391 -154.382289 
L 539.870565 -154.544345 
L 540.94774 -154.764811 
L 542.024914 -155.053016 
L 543.102089 -155.424713 
L 544.179264 -155.903645 
L 545.256438 -156.504561 
L 546.333613 -157.24099 
L 547.410787 -158.136387 
L 548.487962 -159.210572 
L 549.565137 -160.45932 
L 550.642311 -161.893165 
L 551.719486 -163.515202 
L 552.79666 -165.316505 
L 553.873835 -167.283207 
L 554.95101 -169.403743 
L 556.028184 -171.655814 
L 557.105359 -174.01023 
L 558.182533 -176.449342 
L 559.259708 -178.953447 
L 560.336882 -181.492063 
L 561.414057 -184.046717 
L 562.491232 -186.601969 
L 563.164466 -188.192997 
L 563.568406 -189.143072 
L 564.645581 -191.653205 
L 565.722755 -194.122938 
L 566.79993 -196.543398 
L 567.877105 -198.907188 
L 568.954279 -201.208592 
L 570.031454 -203.443013 
L 571.108628 -205.607747 
L 572.185803 -207.699202 
L 573.262978 -209.716973 
L 574.340152 -211.66048 
L 575.417327 -213.527914 
L 576.494501 -215.321709 
L 577.571676 -217.039931 
L 578.64885 -218.68476 
L 579.726025 -220.257413 
L 580.8032 -221.757362 
L 581.880374 -223.18826 
L 582.957549 -224.549098 
L 584.034723 -225.842716 
L 585.111898 -227.070735 
L 586.189073 -228.233335 
L 587.266247 -229.333994 
L 588.343422 -230.37237 
L 589.420596 -231.351147 
L 589.959184 -231.8189 
L 590.497771 -232.271895 
L 591.574946 -233.135245 
L 592.65212 -233.944031 
L 593.729295 -234.69847 
L 594.806469 -235.330313 
L 595.883644 -235.864905 
L 596.960818 -236.352157 
L 598.037993 -236.790066 
L 599.115168 -237.18428 
L 600.192342 -237.533377 
L 601.269517 -237.83912 
L 602.346691 -238.105188 
L 603.423866 -238.328874 
L 604.501041 -238.516173 
L 605.578215 -238.665212 
L 606.65539 -238.773495 
L 607.732564 -238.846627 
L 608.809739 -238.886595 
L 609.886914 -238.894665 
L 610.964088 -238.872058 
L 612.041263 -238.81994 
L 613.118437 -238.739482 
L 614.195612 -238.631782 
L 615.272787 -238.497941 
L 616.349961 -238.338992 
L 616.753902 -238.273107 
L 617.427136 -238.131911 
L 618.50431 -237.867051 
L 619.581485 -237.581679 
L 620.658659 -237.276661 
L 621.735834 -236.952834 
L 622.813009 -236.610997 
L 623.890183 -236.251937 
L 624.967358 -235.876425 
L 626.044532 -235.485208 
L 627.121707 -235.079014 
L 628.198882 -234.658554 
L 629.276056 -234.224493 
L 630.353231 -233.777475 
L 631.430405 -233.318162 
L 632.50758 -232.847217 
L 633.584755 -232.365119 
L 634.661929 -231.872692 
L 635.739104 -231.342359 
L 636.816278 -230.782172 
L 637.893453 -230.211176 
L 638.970627 -229.63019 
L 640.047802 -229.039658 
L 641.124977 -228.439936 
L 642.202151 -227.831838 
L 643.279326 -227.215552 
L 643.548619 -227.060281 
L 644.3565 -226.59177 
L 645.433675 -225.960886 
L 646.51085 -225.323246 
L 647.588024 -224.679469 
L 648.665199 -224.029787 
L 649.742373 -223.374732 
L 650.819548 -222.714651 
L 651.896723 -222.049873 
L 652.973897 -221.380848 
L 654.051072 -220.707849 
L 655.128246 -220.031258 
L 656.205421 -219.351393 
L 657.282595 -218.668557 
L 658.35977 -217.98306 
L 659.436945 -217.295212 
L 660.514119 -216.605261 
L 661.591294 -215.913505 
L 662.668468 -215.22022 
L 663.745643 -214.525604 
L 664.822818 -213.829993 
L 665.899992 -213.133522 
L 666.977167 -212.436482 
L 668.054341 -211.739113 
L 669.131516 -211.041531 
L 670.208691 -210.344092 
L 670.343337 -210.256923 
L 671.285865 -209.646837 
L 672.36304 -208.950054 
L 673.440214 -208.253951 
L 674.517389 -207.558584 
L 675.594563 -206.864319 
L 676.671738 -206.171125 
L 677.748913 -205.479296 
L 678.826087 -204.789 
L 679.903262 -204.100259 
L 680.980436 -203.413444 
L 682.057611 -202.728468 
L 683.134786 -202.04563 
L 684.21196 -201.365066 
L 685.289135 -200.68678 
L 686.366309 -200.011138 
L 687.443484 -199.338014 
L 688.520659 -198.667717 
L 689.597833 -198.000348 
L 690.675008 -197.335907 
L 691.752182 -196.674751 
L 692.829357 -196.016732 
L 693.906531 -195.36216 
L 694.983706 -194.71111 
L 696.060881 -194.063585 
L 697.138055 -193.419965 
L 697.138055 -213.7315 
L 697.138055 -213.7315 
L 696.060881 -214.189376 
L 694.983706 -214.647932 
L 693.906531 -215.10719 
L 692.829357 -215.567072 
L 691.752182 -216.027552 
L 690.675008 -216.488647 
L 689.597833 -216.950263 
L 688.520659 -217.412444 
L 687.443484 -217.875112 
L 686.366309 -218.338242 
L 685.289135 -218.801837 
L 684.21196 -219.265801 
L 683.134786 -219.730167 
L 682.057611 -220.19485 
L 680.980436 -220.659819 
L 679.903262 -221.12506 
L 678.826087 -221.590475 
L 677.748913 -222.056075 
L 676.671738 -222.569872 
L 675.594563 -223.09671 
L 674.517389 -223.62314 
L 673.440214 -224.149051 
L 672.36304 -224.674365 
L 671.285865 -225.198933 
L 670.343337 -225.657247 
L 670.208691 -225.722663 
L 669.131516 -226.245416 
L 668.054341 -226.767054 
L 666.977167 -227.287444 
L 665.899992 -227.806436 
L 664.822818 -228.323865 
L 663.745643 -228.839576 
L 662.668468 -229.370867 
L 661.591294 -229.943743 
L 660.514119 -230.513008 
L 659.436945 -231.078488 
L 658.35977 -231.639834 
L 657.282595 -232.196802 
L 656.205421 -232.749153 
L 655.128246 -233.296464 
L 654.051072 -233.838583 
L 652.973897 -234.375041 
L 651.896723 -234.905569 
L 650.819548 -235.429893 
L 649.742373 -235.947471 
L 648.665199 -236.45817 
L 647.588024 -236.961384 
L 646.51085 -237.456827 
L 645.433675 -237.944172 
L 644.3565 -238.422758 
L 643.548619 -238.775899 
L 643.279326 -238.892466 
L 642.202151 -239.352543 
L 641.124977 -239.802682 
L 640.047802 -240.242495 
L 638.970627 -240.671199 
L 637.893453 -241.088682 
L 636.816278 -241.494062 
L 635.739104 -241.887019 
L 634.661929 -242.266973 
L 633.584755 -242.633189 
L 632.50758 -242.98545 
L 631.430405 -243.322869 
L 630.353231 -243.644951 
L 629.276056 -243.951018 
L 628.198882 -244.240386 
L 627.121707 -244.512399 
L 626.044532 -244.766383 
L 624.967358 -245.00162 
L 623.890183 -245.21738 
L 622.813009 -245.507424 
L 621.735834 -245.788413 
L 620.658659 -246.046598 
L 619.581485 -246.281022 
L 618.50431 -246.491081 
L 617.427136 -246.675772 
L 616.753902 -246.777957 
L 616.349961 -246.834301 
L 615.272787 -246.965769 
L 614.195612 -247.06918 
L 613.118437 -247.143808 
L 612.041263 -247.188485 
L 610.964088 -247.202414 
L 609.886914 -247.184399 
L 608.809739 -247.133613 
L 607.732564 -247.04888 
L 606.65539 -246.929176 
L 605.578215 -246.773342 
L 604.501041 -246.580222 
L 603.423866 -246.348736 
L 602.346691 -246.077717 
L 601.269517 -245.765993 
L 600.192342 -245.412166 
L 599.115168 -245.015136 
L 598.037993 -244.573525 
L 596.960818 -244.085761 
L 595.883644 -243.550955 
L 594.806469 -242.96705 
L 593.729295 -242.333163 
L 592.65212 -241.647628 
L 591.574946 -240.908429 
L 590.497771 -240.115044 
L 589.959184 -239.697143 
L 589.420596 -239.264626 
L 588.343422 -238.356629 
L 587.266247 -237.38903 
L 586.189073 -236.359387 
L 585.111898 -235.267609 
L 584.034723 -234.257463 
L 582.957549 -233.237427 
L 581.880374 -232.153157 
L 580.8032 -231.000696 
L 579.726025 -229.77962 
L 578.64885 -228.486717 
L 577.571676 -227.120612 
L 576.494501 -225.679102 
L 575.417327 -224.160022 
L 574.340152 -222.561776 
L 573.262978 -220.882484 
L 572.185803 -219.119728 
L 571.108628 -217.274101 
L 570.031454 -215.340334 
L 568.954279 -213.32425 
L 567.877105 -211.216504 
L 566.79993 -209.036964 
L 565.722755 -206.792735 
L 564.645581 -204.458888 
L 563.568406 -202.02604 
L 563.164466 -201.093628 
L 562.491232 -199.516181 
L 561.414057 -196.934708 
L 560.336882 -194.289113 
L 559.259708 -191.586819 
L 558.182533 -188.841031 
L 557.105359 -186.068157 
L 556.028184 -183.283725 
L 554.95101 -180.503473 
L 553.873835 -177.759307 
L 552.79666 -175.079036 
L 551.719486 -172.481116 
L 550.642311 -169.996973 
L 549.565137 -167.669709 
L 548.487962 -165.517214 
L 547.410787 -163.554058 
L 546.333613 -161.807899 
L 545.256438 -160.280832 
L 544.179264 -158.967184 
L 543.102089 -157.867792 
L 542.024914 -156.962087 
L 540.94774 -156.228695 
L 539.870565 -155.651375 
L 538.793391 -155.202411 
L 537.716216 -154.856847 
L 536.639042 -154.601908 
L 536.369748 -154.549449 
L 535.561867 -154.414786 
L 534.484692 -154.277929 
L 533.407518 -154.182077 
L 532.330343 -154.11489 
L 531.253169 -154.068037 
L 530.175994 -154.036946 
L 529.098819 -154.016128 
L 528.021645 -154.002329 
L 526.94447 -153.993284 
L 525.867296 -153.987405 
L 524.790121 -153.983612 
L 523.712946 -153.981183 
L 522.635772 -153.97964 
L 521.558597 -153.978698 
L 520.481423 -153.97809 
L 519.404248 -153.977696 
L 518.327074 -153.977443 
L 517.249899 -153.977279 
L 516.172724 -153.977173 
L 515.09555 -153.977106 
L 514.018375 -153.977062 
L 512.941201 -153.977034 
L 511.864026 -153.977017 
L 510.786851 -153.977005 
L 509.709677 -153.976998 
L 509.57503 -153.976998 
L 508.632502 -153.976994 
L 507.555328 -153.976991 
L 506.478153 -153.976989 
L 505.400978 -153.976988 
L 504.323804 -153.976988 
L 503.246629 -153.976987 
L 502.169455 -153.976987 
L 501.09228 -153.976987 
L 500.015106 -153.976987 
L 498.937931 -153.976987 
L 497.860756 -153.976987 
L 496.783582 -153.976987 
L 495.706407 -153.976987 
L 494.629233 -153.976987 
L 493.552058 -153.976987 
L 492.474883 -153.976987 
L 491.397709 -153.976987 
L 490.320534 -153.976987 
L 489.24336 -153.976987 
L 488.166185 -153.976987 
L 487.08901 -153.976987 
L 486.011836 -153.976987 
L 484.934661 -153.976987 
L 483.857487 -153.976987 
L 482.780312 -153.976987 
z
" style="stroke: #1e90ff; stroke-opacity: 0.2"/>
    </defs>
    <g clip-path="url(#pe1a2420653)">
     <use xlink:href="#m622174522a" x="0" y="360" style="fill: #1e90ff; fill-opacity: 0.2; stroke: #1e90ff; stroke-opacity: 0.2"/>
    </g>
   </g>
   <g id="FillBetweenPolyCollection_3">
    <defs>
     <path id="m6a537ccb69" d="M 482.780312 -77.383643 
L 482.780312 -77.383643 
L 483.857487 -77.383643 
L 484.934661 -77.383643 
L 486.011836 -77.383643 
L 487.08901 -77.383643 
L 488.166185 -77.383643 
L 489.24336 -77.383643 
L 490.320534 -77.383643 
L 491.397709 -77.383643 
L 492.474883 -77.383643 
L 493.552058 -77.383643 
L 494.629233 -77.383643 
L 495.706407 -77.383643 
L 496.783582 -77.383643 
L 497.860756 -77.383643 
L 498.937931 -77.383643 
L 500.015106 -77.383643 
L 501.09228 -77.383643 
L 502.169455 -77.383643 
L 503.246629 -77.383643 
L 504.323804 -77.383643 
L 505.400978 -77.383643 
L 506.478153 -77.383643 
L 507.555328 -77.383643 
L 508.632502 -77.383643 
L 509.57503 -77.383643 
L 509.709677 -77.383643 
L 510.786851 -77.383643 
L 511.864026 -77.383643 
L 512.941201 -77.383643 
L 514.018375 -77.383643 
L 515.09555 -77.383643 
L 516.172724 -77.383643 
L 517.249899 -77.383643 
L 518.327074 -77.383643 
L 519.404248 -77.383643 
L 520.481423 -77.383643 
L 521.558597 -77.383643 
L 522.635772 -77.383643 
L 523.712946 -77.383643 
L 524.790121 -77.383643 
L 525.867296 -77.383643 
L 526.94447 -77.383643 
L 528.021645 -77.383643 
L 529.098819 -77.383643 
L 530.175994 -77.383643 
L 531.253169 -77.383644 
L 532.330343 -77.383644 
L 533.407518 -77.383644 
L 534.484692 -77.383644 
L 535.561867 -77.383645 
L 536.369748 -77.383646 
L 536.639042 -77.383646 
L 537.716216 -77.383648 
L 538.793391 -77.38365 
L 539.870565 -77.383654 
L 540.94774 -77.38366 
L 542.024914 -77.38367 
L 543.102089 -77.383685 
L 544.179264 -77.383707 
L 545.256438 -77.383741 
L 546.333613 -77.383796 
L 547.410787 -77.383877 
L 548.487962 -77.383996 
L 549.565137 -77.384176 
L 550.642311 -77.384448 
L 551.719486 -77.384833 
L 552.79666 -77.385282 
L 553.873835 -77.386201 
L 554.95101 -77.387318 
L 556.028184 -77.386374 
L 557.105359 -77.391079 
L 558.182533 -77.394097 
L 559.259708 -77.398257 
L 560.336882 -77.403824 
L 561.414057 -77.399857 
L 562.491232 -77.420936 
L 563.164466 -77.428362 
L 563.568406 -77.433432 
L 564.645581 -77.449466 
L 565.722755 -77.46642 
L 566.79993 -77.472528 
L 567.877105 -77.479182 
L 568.954279 -77.486445 
L 570.031454 -77.494261 
L 571.108628 -77.502667 
L 572.185803 -77.51165 
L 573.262978 -77.521148 
L 574.340152 -77.546595 
L 575.417327 -77.729758 
L 576.494501 -78.005639 
L 577.571676 -78.305099 
L 578.64885 -78.476541 
L 579.726025 -78.671598 
L 580.8032 -78.888413 
L 581.880374 -79.128814 
L 582.957549 -79.394621 
L 584.034723 -79.687294 
L 585.111898 -80.009218 
L 586.189073 -80.359774 
L 587.266247 -80.739099 
L 588.343422 -81.147441 
L 589.420596 -81.584778 
L 589.959184 -81.814164 
L 590.497771 -82.050557 
L 591.574946 -82.543928 
L 592.65212 -83.06397 
L 593.729295 -83.609458 
L 594.806469 -84.178986 
L 595.883644 -84.770896 
L 596.960818 -85.383515 
L 598.037993 -86.014884 
L 599.115168 -86.663095 
L 600.192342 -87.326137 
L 601.269517 -88.001878 
L 602.346691 -88.688396 
L 603.423866 -89.383507 
L 604.501041 -90.085321 
L 605.578215 -90.791891 
L 606.65539 -91.501291 
L 607.732564 -92.211979 
L 608.809739 -92.92268 
L 609.886914 -93.630737 
L 610.964088 -94.335504 
L 612.041263 -95.035486 
L 613.118437 -95.728937 
L 614.195612 -96.415619 
L 615.272787 -97.093628 
L 616.349961 -97.762706 
L 616.753902 -98.011206 
L 617.427136 -98.421944 
L 618.50431 -99.070243 
L 619.581485 -99.707825 
L 620.658659 -100.245762 
L 621.735834 -100.759622 
L 622.813009 -101.261688 
L 623.890183 -101.751775 
L 624.967358 -102.229936 
L 626.044532 -102.696071 
L 627.121707 -103.150324 
L 628.198882 -103.592673 
L 629.276056 -104.023298 
L 630.353231 -104.442223 
L 631.430405 -104.849585 
L 632.50758 -105.245551 
L 633.584755 -105.630294 
L 634.661929 -106.004044 
L 635.739104 -106.366917 
L 636.816278 -106.7192 
L 637.893453 -107.061037 
L 638.970627 -107.392676 
L 640.047802 -107.714376 
L 641.124977 -108.026313 
L 642.202151 -108.328753 
L 643.279326 -108.621907 
L 643.548619 -108.693773 
L 644.3565 -108.906019 
L 645.433675 -109.181334 
L 646.51085 -109.448081 
L 647.588024 -109.70649 
L 648.665199 -109.956795 
L 649.742373 -110.199228 
L 650.819548 -110.434009 
L 651.896723 -110.661365 
L 652.973897 -110.881513 
L 654.051072 -111.094669 
L 655.128246 -111.301044 
L 656.205421 -111.500853 
L 657.282595 -111.694304 
L 658.35977 -111.881565 
L 659.436945 -112.062837 
L 660.514119 -112.238318 
L 661.591294 -112.408189 
L 662.668468 -112.572632 
L 663.745643 -112.731818 
L 664.822818 -112.885918 
L 665.899992 -113.035097 
L 666.977167 -113.179513 
L 668.054341 -113.319324 
L 669.131516 -113.454677 
L 670.208691 -113.585721 
L 670.343337 -113.601805 
L 671.285865 -113.712595 
L 672.36304 -113.835438 
L 673.440214 -113.954374 
L 674.517389 -114.069524 
L 675.594563 -114.181035 
L 676.671738 -114.289018 
L 677.748913 -114.393589 
L 678.826087 -114.494871 
L 679.903262 -114.592955 
L 680.980436 -114.687966 
L 682.057611 -114.779992 
L 683.134786 -114.869134 
L 684.21196 -114.955494 
L 685.289135 -115.039151 
L 686.366309 -115.120207 
L 687.443484 -115.198739 
L 688.520659 -115.274831 
L 689.597833 -115.348568 
L 690.675008 -115.420016 
L 691.752182 -115.489263 
L 692.829357 -115.556371 
L 693.906531 -115.621413 
L 694.983706 -115.684459 
L 696.060881 -115.745566 
L 697.138055 -115.804797 
L 697.138055 -130.361424 
L 697.138055 -130.361424 
L 696.060881 -130.278373 
L 694.983706 -130.193094 
L 693.906531 -130.105508 
L 692.829357 -130.015573 
L 691.752182 -129.929082 
L 690.675008 -129.850763 
L 689.597833 -129.769922 
L 688.520659 -129.686484 
L 687.443484 -129.60037 
L 686.366309 -129.511462 
L 685.289135 -129.419693 
L 684.21196 -129.324939 
L 683.134786 -129.227108 
L 682.057611 -129.126102 
L 680.980436 -129.021785 
L 679.903262 -128.914075 
L 678.826087 -128.802822 
L 677.748913 -128.687918 
L 676.671738 -128.569244 
L 675.594563 -128.446639 
L 674.517389 -128.320001 
L 673.440214 -128.189156 
L 672.36304 -128.053972 
L 671.285865 -127.914305 
L 670.343337 -127.78827 
L 670.208691 -127.769969 
L 669.131516 -127.620837 
L 668.054341 -127.466703 
L 666.977167 -127.307413 
L 665.899992 -127.142789 
L 664.822818 -126.972618 
L 663.745643 -126.796743 
L 662.668468 -126.614926 
L 661.591294 -126.426982 
L 660.514119 -126.232698 
L 659.436945 -126.031832 
L 658.35977 -125.824187 
L 657.282595 -125.609497 
L 656.205421 -125.387537 
L 655.128246 -125.158059 
L 654.051072 -124.920788 
L 652.973897 -124.675483 
L 651.896723 -124.421851 
L 650.819548 -124.159623 
L 649.742373 -123.888512 
L 648.665199 -123.608217 
L 647.588024 -123.318441 
L 646.51085 -123.018875 
L 645.433675 -122.709198 
L 644.3565 -122.389076 
L 643.548619 -122.141937 
L 643.279326 -122.058189 
L 642.202151 -121.716214 
L 641.124977 -121.362812 
L 640.047802 -120.997602 
L 638.970627 -120.620259 
L 637.893453 -120.230443 
L 636.816278 -119.827727 
L 635.739104 -119.411823 
L 634.661929 -118.982317 
L 633.584755 -118.538892 
L 632.50758 -118.081179 
L 631.430405 -117.608744 
L 630.353231 -117.121298 
L 629.276056 -116.618492 
L 628.198882 -116.09994 
L 627.121707 -115.565365 
L 626.044532 -115.014443 
L 624.967358 -114.44687 
L 623.890183 -113.862322 
L 622.813009 -113.260608 
L 621.735834 -112.641479 
L 620.658659 -112.004711 
L 619.581485 -111.350164 
L 618.50431 -110.67774 
L 617.427136 -109.987325 
L 616.753902 -109.546507 
L 616.349961 -109.27871 
L 615.272787 -108.552383 
L 614.195612 -107.807616 
L 613.118437 -107.045703 
L 612.041263 -106.266413 
L 610.964088 -105.469837 
L 609.886914 -104.657045 
L 608.809739 -103.827616 
L 607.732564 -102.983473 
L 606.65539 -102.125346 
L 605.578215 -101.25356 
L 604.501041 -100.42663 
L 603.423866 -99.607729 
L 602.346691 -98.778585 
L 601.269517 -97.939744 
L 600.192342 -97.093264 
L 599.115168 -96.240375 
L 598.037993 -95.382611 
L 596.960818 -94.522438 
L 595.883644 -93.661138 
L 594.806469 -92.801609 
L 593.729295 -91.945824 
L 592.65212 -91.096105 
L 591.574946 -90.255563 
L 590.497771 -89.426196 
L 589.959184 -89.016778 
L 589.420596 -88.611344 
L 588.343422 -87.81346 
L 587.266247 -87.035208 
L 586.189073 -86.279635 
L 585.111898 -85.592806 
L 584.034723 -84.927482 
L 582.957549 -84.289399 
L 581.880374 -83.676344 
L 580.8032 -83.092647 
L 579.726025 -82.539715 
L 578.64885 -82.016247 
L 577.571676 -81.527049 
L 576.494501 -81.069231 
L 575.417327 -80.645194 
L 574.340152 -80.25473 
L 573.262978 -79.895662 
L 572.185803 -79.570025 
L 571.108628 -79.274527 
L 570.031454 -79.009246 
L 568.954279 -78.772598 
L 567.877105 -78.561928 
L 566.79993 -78.377076 
L 565.722755 -78.215187 
L 564.645581 -78.075087 
L 563.568406 -77.954779 
L 563.164466 -77.914172 
L 562.491232 -77.851818 
L 561.414057 -77.764684 
L 560.336882 -77.690638 
L 559.259708 -77.628334 
L 558.182533 -77.576882 
L 557.105359 -77.53495 
L 556.028184 -77.501082 
L 554.95101 -77.473782 
L 553.873835 -77.452022 
L 552.79666 -77.435158 
L 551.719486 -77.422092 
L 550.642311 -77.411888 
L 549.565137 -77.404209 
L 548.487962 -77.398558 
L 547.410787 -77.394318 
L 546.333613 -77.391139 
L 545.256438 -77.388849 
L 544.179264 -77.387247 
L 543.102089 -77.386107 
L 542.024914 -77.3853 
L 540.94774 -77.384756 
L 539.870565 -77.384382 
L 538.793391 -77.384125 
L 537.716216 -77.383958 
L 536.639042 -77.383848 
L 536.369748 -77.383827 
L 535.561867 -77.383776 
L 534.484692 -77.383728 
L 533.407518 -77.383698 
L 532.330343 -77.383678 
L 531.253169 -77.383665 
L 530.175994 -77.383657 
L 529.098819 -77.383652 
L 528.021645 -77.383649 
L 526.94447 -77.383647 
L 525.867296 -77.383646 
L 524.790121 -77.383645 
L 523.712946 -77.383644 
L 522.635772 -77.383644 
L 521.558597 -77.383644 
L 520.481423 -77.383644 
L 519.404248 -77.383643 
L 518.327074 -77.383643 
L 517.249899 -77.383643 
L 516.172724 -77.383643 
L 515.09555 -77.383643 
L 514.018375 -77.383643 
L 512.941201 -77.383643 
L 511.864026 -77.383643 
L 510.786851 -77.383643 
L 509.709677 -77.383643 
L 509.57503 -77.383643 
L 508.632502 -77.383643 
L 507.555328 -77.383643 
L 506.478153 -77.383643 
L 505.400978 -77.383643 
L 504.323804 -77.383643 
L 503.246629 -77.383643 
L 502.169455 -77.383643 
L 501.09228 -77.383643 
L 500.015106 -77.383643 
L 498.937931 -77.383643 
L 497.860756 -77.383643 
L 496.783582 -77.383643 
L 495.706407 -77.383643 
L 494.629233 -77.383643 
L 493.552058 -77.383643 
L 492.474883 -77.383643 
L 491.397709 -77.383643 
L 490.320534 -77.383643 
L 489.24336 -77.383643 
L 488.166185 -77.383643 
L 487.08901 -77.383643 
L 486.011836 -77.383643 
L 484.934661 -77.383643 
L 483.857487 -77.383643 
L 482.780312 -77.383643 
z
" style="stroke: #1e90ff; stroke-opacity: 0.2"/>
    </defs>
    <g clip-path="url(#pe1a2420653)">
     <use xlink:href="#m6a537ccb69" x="0" y="360" style="fill: #1e90ff; fill-opacity: 0.2; stroke: #1e90ff; stroke-opacity: 0.2"/>
    </g>
   </g>
   <g id="PathCollection_2">
    <g clip-path="url(#pe1a2420653)">
     <use xlink:href="#m43de023253" x="482.780312" y="206.023013" style="fill: #1e90ff; fill-opacity: 0.8; stroke: #000000; stroke-opacity: 0.8"/>
     <use xlink:href="#m43de023253" x="509.57503" y="205.377786" style="fill: #1e90ff; fill-opacity: 0.8; stroke: #000000; stroke-opacity: 0.8"/>
     <use xlink:href="#m43de023253" x="563.164466" y="168.954988" style="fill: #1e90ff; fill-opacity: 0.8; stroke: #000000; stroke-opacity: 0.8"/>
     <use xlink:href="#m43de023253" x="589.959184" y="133.807033" style="fill: #1e90ff; fill-opacity: 0.8; stroke: #000000; stroke-opacity: 0.8"/>
     <use xlink:href="#m43de023253" x="616.753902" y="114.482883" style="fill: #1e90ff; fill-opacity: 0.8; stroke: #000000; stroke-opacity: 0.8"/>
     <use xlink:href="#m43de023253" x="643.548619" y="120.835861" style="fill: #1e90ff; fill-opacity: 0.8; stroke: #000000; stroke-opacity: 0.8"/>
     <use xlink:href="#m43de023253" x="670.343337" y="143.61774" style="fill: #1e90ff; fill-opacity: 0.8; stroke: #000000; stroke-opacity: 0.8"/>
    </g>
   </g>
   <g id="PathCollection_3">
    <defs>
     <path id="mfefdd1ddce" d="M -7.071068 7.071068 
L 7.071068 7.071068 
L 7.071068 -7.071068 
L -7.071068 -7.071068 
z
" style="stroke: #000000; stroke-opacity: 0.8"/>
    </defs>
    <g clip-path="url(#pe1a2420653)">
     <use xlink:href="#mfefdd1ddce" x="482.780312" y="282.611922" style="fill: #1e90ff; fill-opacity: 0.8; stroke: #000000; stroke-opacity: 0.8"/>
     <use xlink:href="#mfefdd1ddce" x="509.57503" y="272.123301" style="fill: #1e90ff; fill-opacity: 0.8; stroke: #000000; stroke-opacity: 0.8"/>
     <use xlink:href="#mfefdd1ddce" x="536.369748" y="310.390103" style="fill: #1e90ff; fill-opacity: 0.8; stroke: #000000; stroke-opacity: 0.8"/>
     <use xlink:href="#mfefdd1ddce" x="563.164466" y="276.568524" style="fill: #1e90ff; fill-opacity: 0.8; stroke: #000000; stroke-opacity: 0.8"/>
     <use xlink:href="#mfefdd1ddce" x="589.959184" y="268.473329" style="fill: #1e90ff; fill-opacity: 0.8; stroke: #000000; stroke-opacity: 0.8"/>
     <use xlink:href="#mfefdd1ddce" x="616.753902" y="258.966474" style="fill: #1e90ff; fill-opacity: 0.8; stroke: #000000; stroke-opacity: 0.8"/>
     <use xlink:href="#mfefdd1ddce" x="643.548619" y="249.571864" style="fill: #1e90ff; fill-opacity: 0.8; stroke: #000000; stroke-opacity: 0.8"/>
     <use xlink:href="#mfefdd1ddce" x="670.343337" y="239.356908" style="fill: #1e90ff; fill-opacity: 0.8; stroke: #000000; stroke-opacity: 0.8"/>
    </g>
   </g>
   <g id="line2d_22">
    <path d="M 482.780312 206.023013 
L 532.330343 205.943519 
L 535.561867 205.768742 
L 537.716216 205.500376 
L 539.870565 204.999923 
L 540.94774 204.622769 
L 542.024914 204.126039 
L 543.102089 203.499269 
L 544.179264 202.721254 
L 545.256438 201.763817 
L 546.333613 200.613722 
L 547.410787 199.259878 
L 548.487962 197.690289 
L 550.642311 193.934227 
L 552.79666 189.432387 
L 554.95101 184.398763 
L 560.336882 170.828973 
L 563.568406 162.875183 
L 566.79993 155.543723 
L 570.031454 148.855539 
L 573.262978 142.944034 
L 575.417327 139.38983 
L 577.571676 136.142324 
L 579.726025 133.193641 
L 581.880374 130.531096 
L 584.034723 128.143665 
L 586.189073 126.02033 
L 588.343422 124.148185 
L 590.497771 122.513279 
L 592.65212 121.102789 
L 594.806469 119.905691 
L 596.960818 118.909482 
L 599.115168 118.101403 
L 601.269517 117.468904 
L 603.423866 117.001476 
L 606.65539 116.590811 
L 609.886914 116.520897 
L 613.118437 116.727576 
L 616.753902 117.251523 
L 619.581485 117.847687 
L 622.813009 118.706966 
L 627.121707 120.10918 
L 631.430405 121.758845 
L 636.816278 124.102038 
L 642.202151 126.689871 
L 648.665199 130.032861 
L 657.282595 134.755978 
L 671.285865 142.738243 
L 692.829357 155.0031 
L 697.138055 157.391718 
L 697.138055 157.391718 
" clip-path="url(#pe1a2420653)" style="fill: none; stroke: #1e90ff; stroke-width: 3; stroke-linecap: square"/>
   </g>
   <g id="line2d_23">
    <path d="M 482.780312 282.616357 
L 557.105359 282.51857 
L 563.164466 282.250517 
L 566.79993 281.907906 
L 570.031454 281.419798 
L 573.262978 280.726256 
L 576.494501 279.778289 
L 579.726025 278.54866 
L 582.957549 277.039653 
L 586.189073 275.272738 
L 589.959184 272.939972 
L 594.806469 269.645942 
L 607.732564 260.632084 
L 613.118437 257.227656 
L 617.427136 254.761685 
L 621.735834 252.537336 
L 626.044532 250.549081 
L 630.353231 248.783789 
L 634.661929 247.224273 
L 640.047802 245.534797 
L 645.433675 244.098801 
L 650.819548 242.88051 
L 657.282595 241.660716 
L 663.745643 240.659697 
L 671.285865 239.714903 
L 679.903262 238.866809 
L 689.597833 238.137957 
L 697.138055 237.697022 
L 697.138055 237.697022 
" clip-path="url(#pe1a2420653)" style="fill: none; stroke-dasharray: 11.1,4.8; stroke-dashoffset: 0; stroke: #1e90ff; stroke-width: 3"/>
   </g>
  </g>
  <g id="text_25">
   <!-- Individual 307 -->
   <g transform="translate(335.733375 29.532375) scale(0.312 -0.312)">
    <defs>
     <path id="ArialMT-49" d="M 597 0 
L 597 4581 
L 1203 4581 
L 1203 0 
L 597 0 
z
" transform="scale(0.015625)"/>
     <path id="ArialMT-6e" d="M 422 0 
L 422 3319 
L 928 3319 
L 928 2847 
Q 1294 3394 1984 3394 
Q 2284 3394 2536 3286 
Q 2788 3178 2913 3003 
Q 3038 2828 3088 2588 
Q 3119 2431 3119 2041 
L 3119 0 
L 2556 0 
L 2556 2019 
Q 2556 2363 2490 2533 
Q 2425 2703 2258 2804 
Q 2091 2906 1866 2906 
Q 1506 2906 1245 2678 
Q 984 2450 984 1813 
L 984 0 
L 422 0 
z
" transform="scale(0.015625)"/>
     <path id="ArialMT-76" d="M 1344 0 
L 81 3319 
L 675 3319 
L 1388 1331 
Q 1503 1009 1600 663 
Q 1675 925 1809 1294 
L 2547 3319 
L 3125 3319 
L 1869 0 
L 1344 0 
z
" transform="scale(0.015625)"/>
     <path id="ArialMT-61" d="M 2588 409 
Q 2275 144 1986 34 
Q 1697 -75 1366 -75 
Q 819 -75 525 192 
Q 231 459 231 875 
Q 231 1119 342 1320 
Q 453 1522 633 1644 
Q 813 1766 1038 1828 
Q 1203 1872 1538 1913 
Q 2219 1994 2541 2106 
Q 2544 2222 2544 2253 
Q 2544 2597 2384 2738 
Q 2169 2928 1744 2928 
Q 1347 2928 1158 2789 
Q 969 2650 878 2297 
L 328 2372 
Q 403 2725 575 2942 
Q 747 3159 1072 3276 
Q 1397 3394 1825 3394 
Q 2250 3394 2515 3294 
Q 2781 3194 2906 3042 
Q 3031 2891 3081 2659 
Q 3109 2516 3109 2141 
L 3109 1391 
Q 3109 606 3145 398 
Q 3181 191 3288 0 
L 2700 0 
Q 2613 175 2588 409 
z
M 2541 1666 
Q 2234 1541 1622 1453 
Q 1275 1403 1131 1340 
Q 988 1278 909 1158 
Q 831 1038 831 891 
Q 831 666 1001 516 
Q 1172 366 1500 366 
Q 1825 366 2078 508 
Q 2331 650 2450 897 
Q 2541 1088 2541 1459 
L 2541 1666 
z
" transform="scale(0.015625)"/>
     <path id="ArialMT-33" d="M 269 1209 
L 831 1284 
Q 928 806 1161 595 
Q 1394 384 1728 384 
Q 2125 384 2398 659 
Q 2672 934 2672 1341 
Q 2672 1728 2419 1979 
Q 2166 2231 1775 2231 
Q 1616 2231 1378 2169 
L 1441 2663 
Q 1497 2656 1531 2656 
Q 1891 2656 2178 2843 
Q 2466 3031 2466 3422 
Q 2466 3731 2256 3934 
Q 2047 4138 1716 4138 
Q 1388 4138 1169 3931 
Q 950 3725 888 3313 
L 325 3413 
Q 428 3978 793 4289 
Q 1159 4600 1703 4600 
Q 2078 4600 2393 4439 
Q 2709 4278 2876 4000 
Q 3044 3722 3044 3409 
Q 3044 3113 2884 2869 
Q 2725 2625 2413 2481 
Q 2819 2388 3044 2092 
Q 3269 1797 3269 1353 
Q 3269 753 2831 336 
Q 2394 -81 1725 -81 
Q 1122 -81 723 278 
Q 325 638 269 1209 
z
" transform="scale(0.015625)"/>
     <path id="ArialMT-30" d="M 266 2259 
Q 266 3072 433 3567 
Q 600 4063 929 4331 
Q 1259 4600 1759 4600 
Q 2128 4600 2406 4451 
Q 2684 4303 2865 4023 
Q 3047 3744 3150 3342 
Q 3253 2941 3253 2259 
Q 3253 1453 3087 958 
Q 2922 463 2592 192 
Q 2263 -78 1759 -78 
Q 1097 -78 719 397 
Q 266 969 266 2259 
z
M 844 2259 
Q 844 1131 1108 757 
Q 1372 384 1759 384 
Q 2147 384 2411 759 
Q 2675 1134 2675 2259 
Q 2675 3391 2411 3762 
Q 2147 4134 1753 4134 
Q 1366 4134 1134 3806 
Q 844 3388 844 2259 
z
" transform="scale(0.015625)"/>
     <path id="ArialMT-37" d="M 303 3981 
L 303 4522 
L 3269 4522 
L 3269 4084 
Q 2831 3619 2401 2847 
Q 1972 2075 1738 1259 
Q 1569 684 1522 0 
L 944 0 
Q 953 541 1156 1306 
Q 1359 2072 1739 2783 
Q 2119 3494 2547 3981 
L 303 3981 
z
" transform="scale(0.015625)"/>
    </defs>
    <use xlink:href="#ArialMT-49"/>
    <use xlink:href="#ArialMT-6e" transform="translate(27.783203 0)"/>
    <use xlink:href="#ArialMT-64" transform="translate(83.398438 0)"/>
    <use xlink:href="#ArialMT-69" transform="translate(139.013672 0)"/>
    <use xlink:href="#ArialMT-76" transform="translate(161.230469 0)"/>
    <use xlink:href="#ArialMT-69" transform="translate(211.230469 0)"/>
    <use xlink:href="#ArialMT-64" transform="translate(233.447266 0)"/>
    <use xlink:href="#ArialMT-75" transform="translate(289.0625 0)"/>
    <use xlink:href="#ArialMT-61" transform="translate(344.677734 0)"/>
    <use xlink:href="#ArialMT-6c" transform="translate(400.292969 0)"/>
    <use xlink:href="#ArialMT-20" transform="translate(422.509766 0)"/>
    <use xlink:href="#ArialMT-33" transform="translate(450.292969 0)"/>
    <use xlink:href="#ArialMT-30" transform="translate(505.908203 0)"/>
    <use xlink:href="#ArialMT-37" transform="translate(561.523438 0)"/>
   </g>
  </g>
 </g>
 <defs>
  <clipPath id="pa54901f960">
   <rect x="180" y="72" width="227.755102" height="248.4"/>
  </clipPath>
  <clipPath id="pe1a2420653">
   <rect x="476.081633" y="72" width="227.755102" height="248.4"/>
  </clipPath>
 </defs>
</svg>
