<?xml version="1.0" encoding="utf-8" standalone="no"?>
<!DOCTYPE svg PUBLIC "-//W3C//DTD SVG 1.1//EN"
  "http://www.w3.org/Graphics/SVG/1.1/DTD/svg11.dtd">
<svg xmlns:xlink="http://www.w3.org/1999/xlink" width="360pt" height="360pt" viewBox="0 0 360 360" xmlns="http://www.w3.org/2000/svg" version="1.1">
 <metadata>
  <rdf:RDF xmlns:dc="http://purl.org/dc/elements/1.1/" xmlns:cc="http://creativecommons.org/ns#" xmlns:rdf="http://www.w3.org/1999/02/22-rdf-syntax-ns#">
   <cc:Work>
    <dc:type rdf:resource="http://purl.org/dc/dcmitype/StillImage"/>
    <dc:date>2025-02-18T19:39:37.484348</dc:date>
    <dc:format>image/svg+xml</dc:format>
    <dc:creator>
     <cc:Agent>
      <dc:title>Matplotlib v3.10.0, https://matplotlib.org/</dc:title>
     </cc:Agent>
    </dc:creator>
   </cc:Work>
  </rdf:RDF>
 </metadata>
 <defs>
  <style type="text/css">*{stroke-linejoin: round; stroke-linecap: butt}</style>
 </defs>
 <g id="figure_1">
  <g id="patch_1">
   <path d="M 0 360 
L 360 360 
L 360 0 
L 0 0 
L 0 360 
z
" style="fill: none"/>
  </g>
  <g id="axes_1">
   <g id="patch_2">
    <path d="M 45 320.4 
L 324 320.4 
L 324 72 
L 45 72 
L 45 320.4 
z
" style="fill: none"/>
   </g>
   <g id="matplotlib.axis_1">
    <g id="xtick_1">
     <g id="line2d_1">
      <defs>
       <path id="m8b3b546ce7" d="M 0 0 
L 0 3.5 
" style="stroke: #000000; stroke-width: 0.8"/>
      </defs>
      <g>
       <use xlink:href="#m8b3b546ce7" x="53.205882" y="320.4" style="stroke: #000000; stroke-width: 0.8"/>
      </g>
     </g>
     <g id="text_1">
      <!-- 0 -->
      <g transform="translate(43.280382 351.107125) scale(0.312 -0.312)">
       <defs>
        <path id="DejaVuSans-30" d="M 2034 4250 
Q 1547 4250 1301 3770 
Q 1056 3291 1056 2328 
Q 1056 1369 1301 889 
Q 1547 409 2034 409 
Q 2525 409 2770 889 
Q 3016 1369 3016 2328 
Q 3016 3291 2770 3770 
Q 2525 4250 2034 4250 
z
M 2034 4750 
Q 2819 4750 3233 4129 
Q 3647 3509 3647 2328 
Q 3647 1150 3233 529 
Q 2819 -91 2034 -91 
Q 1250 -91 836 529 
Q 422 1150 422 2328 
Q 422 3509 836 4129 
Q 1250 4750 2034 4750 
z
" transform="scale(0.015625)"/>
       </defs>
       <use xlink:href="#DejaVuSans-30"/>
      </g>
     </g>
    </g>
    <g id="xtick_2">
     <g id="line2d_2">
      <g>
       <use xlink:href="#m8b3b546ce7" x="118.852941" y="320.4" style="stroke: #000000; stroke-width: 0.8"/>
      </g>
     </g>
     <g id="text_2">
      <!-- 2 -->
      <g transform="translate(108.927441 351.107125) scale(0.312 -0.312)">
       <defs>
        <path id="DejaVuSans-32" d="M 1228 531 
L 3431 531 
L 3431 0 
L 469 0 
L 469 531 
Q 828 903 1448 1529 
Q 2069 2156 2228 2338 
Q 2531 2678 2651 2914 
Q 2772 3150 2772 3378 
Q 2772 3750 2511 3984 
Q 2250 4219 1831 4219 
Q 1534 4219 1204 4116 
Q 875 4013 500 3803 
L 500 4441 
Q 881 4594 1212 4672 
Q 1544 4750 1819 4750 
Q 2544 4750 2975 4387 
Q 3406 4025 3406 3419 
Q 3406 3131 3298 2873 
Q 3191 2616 2906 2266 
Q 2828 2175 2409 1742 
Q 1991 1309 1228 531 
z
" transform="scale(0.015625)"/>
       </defs>
       <use xlink:href="#DejaVuSans-32"/>
      </g>
     </g>
    </g>
    <g id="xtick_3">
     <g id="line2d_3">
      <g>
       <use xlink:href="#m8b3b546ce7" x="184.5" y="320.4" style="stroke: #000000; stroke-width: 0.8"/>
      </g>
     </g>
     <g id="text_3">
      <!-- 4 -->
      <g transform="translate(174.5745 351.107125) scale(0.312 -0.312)">
       <defs>
        <path id="DejaVuSans-34" d="M 2419 4116 
L 825 1625 
L 2419 1625 
L 2419 4116 
z
M 2253 4666 
L 3047 4666 
L 3047 1625 
L 3713 1625 
L 3713 1100 
L 3047 1100 
L 3047 0 
L 2419 0 
L 2419 1100 
L 313 1100 
L 313 1709 
L 2253 4666 
z
" transform="scale(0.015625)"/>
       </defs>
       <use xlink:href="#DejaVuSans-34"/>
      </g>
     </g>
    </g>
    <g id="xtick_4">
     <g id="line2d_4">
      <g>
       <use xlink:href="#m8b3b546ce7" x="250.147059" y="320.4" style="stroke: #000000; stroke-width: 0.8"/>
      </g>
     </g>
     <g id="text_4">
      <!-- 6 -->
      <g transform="translate(240.221559 351.107125) scale(0.312 -0.312)">
       <defs>
        <path id="DejaVuSans-36" d="M 2113 2584 
Q 1688 2584 1439 2293 
Q 1191 2003 1191 1497 
Q 1191 994 1439 701 
Q 1688 409 2113 409 
Q 2538 409 2786 701 
Q 3034 994 3034 1497 
Q 3034 2003 2786 2293 
Q 2538 2584 2113 2584 
z
M 3366 4563 
L 3366 3988 
Q 3128 4100 2886 4159 
Q 2644 4219 2406 4219 
Q 1781 4219 1451 3797 
Q 1122 3375 1075 2522 
Q 1259 2794 1537 2939 
Q 1816 3084 2150 3084 
Q 2853 3084 3261 2657 
Q 3669 2231 3669 1497 
Q 3669 778 3244 343 
Q 2819 -91 2113 -91 
Q 1303 -91 875 529 
Q 447 1150 447 2328 
Q 447 3434 972 4092 
Q 1497 4750 2381 4750 
Q 2619 4750 2861 4703 
Q 3103 4656 3366 4563 
z
" transform="scale(0.015625)"/>
       </defs>
       <use xlink:href="#DejaVuSans-36"/>
      </g>
     </g>
    </g>
    <g id="xtick_5">
     <g id="line2d_5">
      <g>
       <use xlink:href="#m8b3b546ce7" x="315.794118" y="320.4" style="stroke: #000000; stroke-width: 0.8"/>
      </g>
     </g>
     <g id="text_5">
      <!-- 8 -->
      <g transform="translate(305.868618 351.107125) scale(0.312 -0.312)">
       <defs>
        <path id="DejaVuSans-38" d="M 2034 2216 
Q 1584 2216 1326 1975 
Q 1069 1734 1069 1313 
Q 1069 891 1326 650 
Q 1584 409 2034 409 
Q 2484 409 2743 651 
Q 3003 894 3003 1313 
Q 3003 1734 2745 1975 
Q 2488 2216 2034 2216 
z
M 1403 2484 
Q 997 2584 770 2862 
Q 544 3141 544 3541 
Q 544 4100 942 4425 
Q 1341 4750 2034 4750 
Q 2731 4750 3128 4425 
Q 3525 4100 3525 3541 
Q 3525 3141 3298 2862 
Q 3072 2584 2669 2484 
Q 3125 2378 3379 2068 
Q 3634 1759 3634 1313 
Q 3634 634 3220 271 
Q 2806 -91 2034 -91 
Q 1263 -91 848 271 
Q 434 634 434 1313 
Q 434 1759 690 2068 
Q 947 2378 1403 2484 
z
M 1172 3481 
Q 1172 3119 1398 2916 
Q 1625 2713 2034 2713 
Q 2441 2713 2670 2916 
Q 2900 3119 2900 3481 
Q 2900 3844 2670 4047 
Q 2441 4250 2034 4250 
Q 1625 4250 1398 4047 
Q 1172 3844 1172 3481 
z
" transform="scale(0.015625)"/>
       </defs>
       <use xlink:href="#DejaVuSans-38"/>
      </g>
     </g>
    </g>
    <g id="text_6">
     <!-- Time (d) -->
     <g transform="translate(131.813437 382.415656) scale(0.286 -0.286)">
      <defs>
       <path id="ArialMT-54" d="M 1659 0 
L 1659 4041 
L 150 4041 
L 150 4581 
L 3781 4581 
L 3781 4041 
L 2266 4041 
L 2266 0 
L 1659 0 
z
" transform="scale(0.015625)"/>
       <path id="ArialMT-69" d="M 425 3934 
L 425 4581 
L 988 4581 
L 988 3934 
L 425 3934 
z
M 425 0 
L 425 3319 
L 988 3319 
L 988 0 
L 425 0 
z
" transform="scale(0.015625)"/>
       <path id="ArialMT-6d" d="M 422 0 
L 422 3319 
L 925 3319 
L 925 2853 
Q 1081 3097 1340 3245 
Q 1600 3394 1931 3394 
Q 2300 3394 2536 3241 
Q 2772 3088 2869 2813 
Q 3263 3394 3894 3394 
Q 4388 3394 4653 3120 
Q 4919 2847 4919 2278 
L 4919 0 
L 4359 0 
L 4359 2091 
Q 4359 2428 4304 2576 
Q 4250 2725 4106 2815 
Q 3963 2906 3769 2906 
Q 3419 2906 3187 2673 
Q 2956 2441 2956 1928 
L 2956 0 
L 2394 0 
L 2394 2156 
Q 2394 2531 2256 2718 
Q 2119 2906 1806 2906 
Q 1569 2906 1367 2781 
Q 1166 2656 1075 2415 
Q 984 2175 984 1722 
L 984 0 
L 422 0 
z
" transform="scale(0.015625)"/>
       <path id="ArialMT-65" d="M 2694 1069 
L 3275 997 
Q 3138 488 2766 206 
Q 2394 -75 1816 -75 
Q 1088 -75 661 373 
Q 234 822 234 1631 
Q 234 2469 665 2931 
Q 1097 3394 1784 3394 
Q 2450 3394 2872 2941 
Q 3294 2488 3294 1666 
Q 3294 1616 3291 1516 
L 816 1516 
Q 847 969 1125 678 
Q 1403 388 1819 388 
Q 2128 388 2347 550 
Q 2566 713 2694 1069 
z
M 847 1978 
L 2700 1978 
Q 2663 2397 2488 2606 
Q 2219 2931 1791 2931 
Q 1403 2931 1139 2672 
Q 875 2413 847 1978 
z
" transform="scale(0.015625)"/>
       <path id="ArialMT-20" transform="scale(0.015625)"/>
       <path id="ArialMT-28" d="M 1497 -1347 
Q 1031 -759 709 28 
Q 388 816 388 1659 
Q 388 2403 628 3084 
Q 909 3875 1497 4659 
L 1900 4659 
Q 1522 4009 1400 3731 
Q 1209 3300 1100 2831 
Q 966 2247 966 1656 
Q 966 153 1900 -1347 
L 1497 -1347 
z
" transform="scale(0.015625)"/>
       <path id="ArialMT-64" d="M 2575 0 
L 2575 419 
Q 2259 -75 1647 -75 
Q 1250 -75 917 144 
Q 584 363 401 755 
Q 219 1147 219 1656 
Q 219 2153 384 2558 
Q 550 2963 881 3178 
Q 1213 3394 1622 3394 
Q 1922 3394 2156 3267 
Q 2391 3141 2538 2938 
L 2538 4581 
L 3097 4581 
L 3097 0 
L 2575 0 
z
M 797 1656 
Q 797 1019 1065 703 
Q 1334 388 1700 388 
Q 2069 388 2326 689 
Q 2584 991 2584 1609 
Q 2584 2291 2321 2609 
Q 2059 2928 1675 2928 
Q 1300 2928 1048 2622 
Q 797 2316 797 1656 
z
" transform="scale(0.015625)"/>
       <path id="ArialMT-29" d="M 791 -1347 
L 388 -1347 
Q 1322 153 1322 1656 
Q 1322 2244 1188 2822 
Q 1081 3291 891 3722 
Q 769 4003 388 4659 
L 791 4659 
Q 1378 3875 1659 3084 
Q 1900 2403 1900 1659 
Q 1900 816 1576 28 
Q 1253 -759 791 -1347 
z
" transform="scale(0.015625)"/>
      </defs>
      <use xlink:href="#ArialMT-54"/>
      <use xlink:href="#ArialMT-69" transform="translate(57.333984 0)"/>
      <use xlink:href="#ArialMT-6d" transform="translate(79.550781 0)"/>
      <use xlink:href="#ArialMT-65" transform="translate(162.851562 0)"/>
      <use xlink:href="#ArialMT-20" transform="translate(218.466797 0)"/>
      <use xlink:href="#ArialMT-28" transform="translate(246.25 0)"/>
      <use xlink:href="#ArialMT-64" transform="translate(279.550781 0)"/>
      <use xlink:href="#ArialMT-29" transform="translate(335.166016 0)"/>
     </g>
    </g>
   </g>
   <g id="matplotlib.axis_2">
    <g id="ytick_1">
     <g id="line2d_6">
      <defs>
       <path id="m46906db907" d="M 0 0 
L -3.5 0 
" style="stroke: #000000; stroke-width: 0.8"/>
      </defs>
      <g>
       <use xlink:href="#m46906db907" x="45" y="312.872727" style="stroke: #000000; stroke-width: 0.8"/>
      </g>
     </g>
     <g id="text_7">
      <!-- 0 -->
      <g transform="translate(18.149 324.72629) scale(0.312 -0.312)">
       <use xlink:href="#DejaVuSans-30"/>
      </g>
     </g>
    </g>
    <g id="ytick_2">
     <g id="line2d_7">
      <g>
       <use xlink:href="#m46906db907" x="45" y="252.654545" style="stroke: #000000; stroke-width: 0.8"/>
      </g>
     </g>
     <g id="text_8">
      <!-- 2 -->
      <g transform="translate(18.149 264.508108) scale(0.312 -0.312)">
       <use xlink:href="#DejaVuSans-32"/>
      </g>
     </g>
    </g>
    <g id="ytick_3">
     <g id="line2d_8">
      <g>
       <use xlink:href="#m46906db907" x="45" y="192.436364" style="stroke: #000000; stroke-width: 0.8"/>
      </g>
     </g>
     <g id="text_9">
      <!-- 4 -->
      <g transform="translate(18.149 204.289926) scale(0.312 -0.312)">
       <use xlink:href="#DejaVuSans-34"/>
      </g>
     </g>
    </g>
    <g id="ytick_4">
     <g id="line2d_9">
      <g>
       <use xlink:href="#m46906db907" x="45" y="132.218182" style="stroke: #000000; stroke-width: 0.8"/>
      </g>
     </g>
     <g id="text_10">
      <!-- 6 -->
      <g transform="translate(18.149 144.071744) scale(0.312 -0.312)">
       <use xlink:href="#DejaVuSans-36"/>
      </g>
     </g>
    </g>
    <g id="ytick_5">
     <g id="line2d_10">
      <g>
       <use xlink:href="#m46906db907" x="45" y="72" style="stroke: #000000; stroke-width: 0.8"/>
      </g>
     </g>
     <g id="text_11">
      <!-- 8 -->
      <g transform="translate(18.149 83.853563) scale(0.312 -0.312)">
       <use xlink:href="#DejaVuSans-38"/>
      </g>
     </g>
    </g>
    <g id="text_12">
     <!-- Log$_{10}$ Virus (copies/mL) -->
     <g transform="translate(7.857 348.638) rotate(-90) scale(0.286 -0.286)">
      <defs>
       <path id="ArialMT-4c" d="M 469 0 
L 469 4581 
L 1075 4581 
L 1075 541 
L 3331 541 
L 3331 0 
L 469 0 
z
" transform="scale(0.015625)"/>
       <path id="ArialMT-6f" d="M 213 1659 
Q 213 2581 725 3025 
Q 1153 3394 1769 3394 
Q 2453 3394 2887 2945 
Q 3322 2497 3322 1706 
Q 3322 1066 3130 698 
Q 2938 331 2570 128 
Q 2203 -75 1769 -75 
Q 1072 -75 642 372 
Q 213 819 213 1659 
z
M 791 1659 
Q 791 1022 1069 705 
Q 1347 388 1769 388 
Q 2188 388 2466 706 
Q 2744 1025 2744 1678 
Q 2744 2294 2464 2611 
Q 2184 2928 1769 2928 
Q 1347 2928 1069 2612 
Q 791 2297 791 1659 
z
" transform="scale(0.015625)"/>
       <path id="ArialMT-67" d="M 319 -275 
L 866 -356 
Q 900 -609 1056 -725 
Q 1266 -881 1628 -881 
Q 2019 -881 2231 -725 
Q 2444 -569 2519 -288 
Q 2563 -116 2559 434 
Q 2191 0 1641 0 
Q 956 0 581 494 
Q 206 988 206 1678 
Q 206 2153 378 2554 
Q 550 2956 876 3175 
Q 1203 3394 1644 3394 
Q 2231 3394 2613 2919 
L 2613 3319 
L 3131 3319 
L 3131 450 
Q 3131 -325 2973 -648 
Q 2816 -972 2473 -1159 
Q 2131 -1347 1631 -1347 
Q 1038 -1347 672 -1080 
Q 306 -813 319 -275 
z
M 784 1719 
Q 784 1066 1043 766 
Q 1303 466 1694 466 
Q 2081 466 2343 764 
Q 2606 1063 2606 1700 
Q 2606 2309 2336 2618 
Q 2066 2928 1684 2928 
Q 1309 2928 1046 2623 
Q 784 2319 784 1719 
z
" transform="scale(0.015625)"/>
       <path id="DejaVuSans-31" d="M 794 531 
L 1825 531 
L 1825 4091 
L 703 3866 
L 703 4441 
L 1819 4666 
L 2450 4666 
L 2450 531 
L 3481 531 
L 3481 0 
L 794 0 
L 794 531 
z
" transform="scale(0.015625)"/>
       <path id="ArialMT-56" d="M 1803 0 
L 28 4581 
L 684 4581 
L 1875 1253 
Q 2019 853 2116 503 
Q 2222 878 2363 1253 
L 3600 4581 
L 4219 4581 
L 2425 0 
L 1803 0 
z
" transform="scale(0.015625)"/>
       <path id="ArialMT-72" d="M 416 0 
L 416 3319 
L 922 3319 
L 922 2816 
Q 1116 3169 1280 3281 
Q 1444 3394 1641 3394 
Q 1925 3394 2219 3213 
L 2025 2691 
Q 1819 2813 1613 2813 
Q 1428 2813 1281 2702 
Q 1134 2591 1072 2394 
Q 978 2094 978 1738 
L 978 0 
L 416 0 
z
" transform="scale(0.015625)"/>
       <path id="ArialMT-75" d="M 2597 0 
L 2597 488 
Q 2209 -75 1544 -75 
Q 1250 -75 995 37 
Q 741 150 617 320 
Q 494 491 444 738 
Q 409 903 409 1263 
L 409 3319 
L 972 3319 
L 972 1478 
Q 972 1038 1006 884 
Q 1059 663 1231 536 
Q 1403 409 1656 409 
Q 1909 409 2131 539 
Q 2353 669 2445 892 
Q 2538 1116 2538 1541 
L 2538 3319 
L 3100 3319 
L 3100 0 
L 2597 0 
z
" transform="scale(0.015625)"/>
       <path id="ArialMT-73" d="M 197 991 
L 753 1078 
Q 800 744 1014 566 
Q 1228 388 1613 388 
Q 2000 388 2187 545 
Q 2375 703 2375 916 
Q 2375 1106 2209 1216 
Q 2094 1291 1634 1406 
Q 1016 1563 777 1677 
Q 538 1791 414 1992 
Q 291 2194 291 2438 
Q 291 2659 392 2848 
Q 494 3038 669 3163 
Q 800 3259 1026 3326 
Q 1253 3394 1513 3394 
Q 1903 3394 2198 3281 
Q 2494 3169 2634 2976 
Q 2775 2784 2828 2463 
L 2278 2388 
Q 2241 2644 2061 2787 
Q 1881 2931 1553 2931 
Q 1166 2931 1000 2803 
Q 834 2675 834 2503 
Q 834 2394 903 2306 
Q 972 2216 1119 2156 
Q 1203 2125 1616 2013 
Q 2213 1853 2448 1751 
Q 2684 1650 2818 1456 
Q 2953 1263 2953 975 
Q 2953 694 2789 445 
Q 2625 197 2315 61 
Q 2006 -75 1616 -75 
Q 969 -75 630 194 
Q 291 463 197 991 
z
" transform="scale(0.015625)"/>
       <path id="ArialMT-63" d="M 2588 1216 
L 3141 1144 
Q 3050 572 2676 248 
Q 2303 -75 1759 -75 
Q 1078 -75 664 370 
Q 250 816 250 1647 
Q 250 2184 428 2587 
Q 606 2991 970 3192 
Q 1334 3394 1763 3394 
Q 2303 3394 2647 3120 
Q 2991 2847 3088 2344 
L 2541 2259 
Q 2463 2594 2264 2762 
Q 2066 2931 1784 2931 
Q 1359 2931 1093 2626 
Q 828 2322 828 1663 
Q 828 994 1084 691 
Q 1341 388 1753 388 
Q 2084 388 2306 591 
Q 2528 794 2588 1216 
z
" transform="scale(0.015625)"/>
       <path id="ArialMT-70" d="M 422 -1272 
L 422 3319 
L 934 3319 
L 934 2888 
Q 1116 3141 1344 3267 
Q 1572 3394 1897 3394 
Q 2322 3394 2647 3175 
Q 2972 2956 3137 2557 
Q 3303 2159 3303 1684 
Q 3303 1175 3120 767 
Q 2938 359 2589 142 
Q 2241 -75 1856 -75 
Q 1575 -75 1351 44 
Q 1128 163 984 344 
L 984 -1272 
L 422 -1272 
z
M 931 1641 
Q 931 1000 1190 694 
Q 1450 388 1819 388 
Q 2194 388 2461 705 
Q 2728 1022 2728 1688 
Q 2728 2322 2467 2637 
Q 2206 2953 1844 2953 
Q 1484 2953 1207 2617 
Q 931 2281 931 1641 
z
" transform="scale(0.015625)"/>
       <path id="ArialMT-2f" d="M 0 -78 
L 1328 4659 
L 1778 4659 
L 453 -78 
L 0 -78 
z
" transform="scale(0.015625)"/>
      </defs>
      <use xlink:href="#ArialMT-4c" transform="translate(0 0.203125)"/>
      <use xlink:href="#ArialMT-6f" transform="translate(55.615234 0.203125)"/>
      <use xlink:href="#ArialMT-67" transform="translate(111.230469 0.203125)"/>
      <use xlink:href="#DejaVuSans-31" transform="translate(167.802734 -16.203125) scale(0.7)"/>
      <use xlink:href="#DejaVuSans-30" transform="translate(212.338867 -16.203125) scale(0.7)"/>
      <use xlink:href="#ArialMT-20" transform="translate(259.609375 0.203125)"/>
      <use xlink:href="#ArialMT-56" transform="translate(287.392578 0.203125)"/>
      <use xlink:href="#ArialMT-69" transform="translate(354.091797 0.203125)"/>
      <use xlink:href="#ArialMT-72" transform="translate(376.308594 0.203125)"/>
      <use xlink:href="#ArialMT-75" transform="translate(409.609375 0.203125)"/>
      <use xlink:href="#ArialMT-73" transform="translate(465.224609 0.203125)"/>
      <use xlink:href="#ArialMT-20" transform="translate(515.224609 0.203125)"/>
      <use xlink:href="#ArialMT-28" transform="translate(543.007812 0.203125)"/>
      <use xlink:href="#ArialMT-63" transform="translate(576.308594 0.203125)"/>
      <use xlink:href="#ArialMT-6f" transform="translate(626.308594 0.203125)"/>
      <use xlink:href="#ArialMT-70" transform="translate(681.923828 0.203125)"/>
      <use xlink:href="#ArialMT-69" transform="translate(737.539062 0.203125)"/>
      <use xlink:href="#ArialMT-65" transform="translate(759.755859 0.203125)"/>
      <use xlink:href="#ArialMT-73" transform="translate(815.371094 0.203125)"/>
      <use xlink:href="#ArialMT-2f" transform="translate(865.371094 0.203125)"/>
      <use xlink:href="#ArialMT-6d" transform="translate(893.154297 0.203125)"/>
      <use xlink:href="#ArialMT-4c" transform="translate(976.455078 0.203125)"/>
      <use xlink:href="#ArialMT-29" transform="translate(1032.070312 0.203125)"/>
     </g>
    </g>
   </g>
   <g id="patch_3">
    <path d="M 45 320.4 
L 45 72 
" style="fill: none; stroke: #000000; stroke-width: 3; stroke-linejoin: miter; stroke-linecap: square"/>
   </g>
   <g id="patch_4">
    <path d="M 324 320.4 
L 324 72 
" style="fill: none; stroke: #000000; stroke-width: 3; stroke-linejoin: miter; stroke-linecap: square"/>
   </g>
   <g id="patch_5">
    <path d="M 45 320.4 
L 324 320.4 
" style="fill: none; stroke: #000000; stroke-width: 3; stroke-linejoin: miter; stroke-linecap: square"/>
   </g>
   <g id="patch_6">
    <path d="M 45 72 
L 324 72 
" style="fill: none; stroke: #000000; stroke-width: 3; stroke-linejoin: miter; stroke-linecap: square"/>
   </g>
   <g id="FillBetweenPolyCollection_1">
    <defs>
     <path id="m5bb4016282" d="M 53.205882 -47.127273 
L 53.205882 -47.127273 
L 54.525421 -47.127273 
L 55.84496 -47.127273 
L 57.164499 -47.127273 
L 58.484038 -47.127273 
L 59.803577 -47.127273 
L 61.123116 -47.127273 
L 62.442654 -47.127273 
L 63.762193 -47.127273 
L 65.081732 -47.127273 
L 66.401271 -47.127273 
L 67.72081 -47.127273 
L 69.040349 -47.127273 
L 70.359888 -47.127273 
L 71.679427 -47.127273 
L 72.998965 -47.127273 
L 74.318504 -47.127273 
L 75.638043 -47.127273 
L 76.957582 -47.127273 
L 78.277121 -47.127273 
L 79.59666 -47.127273 
L 80.916199 -47.127273 
L 82.235738 -47.127273 
L 83.555276 -47.451011 
L 84.874815 -50.284097 
L 86.029412 -52.749902 
L 86.194354 -53.101916 
L 87.513893 -55.919764 
L 88.833432 -58.747525 
L 90.152971 -61.581331 
L 91.47251 -64.105304 
L 92.792048 -66.59225 
L 94.111587 -69.077731 
L 95.431126 -71.565358 
L 96.750665 -74.061152 
L 98.070204 -76.543603 
L 99.389743 -79.026149 
L 100.709282 -81.52261 
L 102.028821 -84.017764 
L 103.348359 -86.498485 
L 104.667898 -88.977994 
L 105.987437 -91.469993 
L 107.306976 -93.952023 
L 108.626515 -96.431428 
L 109.946054 -98.907451 
L 111.265593 -101.39833 
L 112.585132 -103.871996 
L 113.90467 -106.341938 
L 115.224209 -108.806586 
L 116.543748 -111.278881 
L 117.863287 -113.732112 
L 118.852941 -115.570949 
L 119.182826 -116.181786 
L 120.502365 -118.626041 
L 121.821904 -121.070579 
L 123.141443 -123.488325 
L 124.460981 -125.894688 
L 125.78052 -128.287938 
L 127.100059 -130.670647 
L 128.419598 -133.015521 
L 129.739137 -135.333747 
L 131.058676 -137.619452 
L 132.378215 -139.872925 
L 133.697753 -142.07205 
L 135.017292 -144.217973 
L 136.336831 -146.301416 
L 137.65637 -148.314078 
L 138.975909 -150.244458 
L 140.295448 -152.082534 
L 141.614987 -153.819339 
L 142.934526 -155.436046 
L 144.254064 -156.931594 
L 145.573603 -157.838425 
L 146.893142 -157.480798 
L 148.212681 -156.882413 
L 149.53222 -155.874797 
L 150.851759 -154.808113 
L 151.676471 -154.11187 
L 152.171298 -153.683954 
L 153.490837 -152.510273 
L 154.810375 -151.291599 
L 156.129914 -150.032882 
L 157.449453 -148.736166 
L 158.768992 -147.405341 
L 160.088531 -146.043734 
L 161.40807 -144.652568 
L 162.727609 -143.235206 
L 164.047148 -141.79364 
L 165.366686 -140.327773 
L 166.686225 -138.842721 
L 168.005764 -137.335396 
L 169.325303 -135.809978 
L 170.644842 -134.267446 
L 171.964381 -132.705169 
L 173.28392 -131.129738 
L 174.603458 -129.534694 
L 175.922997 -127.92496 
L 177.242536 -126.30025 
L 178.562075 -124.656178 
L 179.881614 -123.000013 
L 181.201153 -121.322322 
L 182.520692 -119.628358 
L 183.840231 -117.915951 
L 184.5 -117.049973 
L 185.159769 -116.179016 
L 186.479308 -114.424481 
L 187.798847 -112.623818 
L 189.118386 -110.370266 
L 190.437925 -107.977057 
L 191.757464 -105.423067 
L 193.077003 -102.654471 
L 194.396542 -99.610108 
L 195.71608 -96.214416 
L 197.035619 -92.342298 
L 198.355158 -87.844829 
L 199.674697 -82.552236 
L 200.994236 -76.315313 
L 202.313775 -69.207609 
L 203.633314 -61.89648 
L 204.952852 -55.401244 
L 206.272391 -50.513702 
L 207.59193 -47.127273 
L 208.911469 -47.127273 
L 210.231008 -47.127273 
L 211.550547 -47.127273 
L 212.870086 -47.127273 
L 214.189625 -47.127273 
L 215.509163 -47.127273 
L 216.828702 -47.127273 
L 217.323529 -47.127273 
L 218.148241 -47.127273 
L 219.46778 -47.127273 
L 220.787319 -47.127273 
L 222.106858 -47.127273 
L 223.426397 -47.127273 
L 224.745936 -47.127273 
L 226.065474 -47.127273 
L 227.385013 -47.127273 
L 228.704552 -47.127273 
L 230.024091 -47.127273 
L 231.34363 -47.127273 
L 232.663169 -47.127273 
L 233.982708 -47.127273 
L 235.302247 -47.127273 
L 236.621785 -47.127273 
L 237.941324 -47.127273 
L 239.260863 -47.127273 
L 240.580402 -47.127273 
L 241.899941 -47.127273 
L 243.21948 -47.127273 
L 244.539019 -47.127273 
L 245.858557 -47.127273 
L 247.178096 -47.127273 
L 248.497635 -47.127273 
L 249.817174 -47.127273 
L 250.147059 -47.127273 
L 251.136713 -47.127273 
L 252.456252 -47.127273 
L 253.775791 -47.127273 
L 255.09533 -47.127273 
L 256.414868 -47.127273 
L 257.734407 -47.127273 
L 259.053946 -47.127273 
L 260.373485 -47.127273 
L 261.693024 -47.127273 
L 263.012563 -47.127273 
L 264.332102 -47.127273 
L 265.651641 -47.127273 
L 266.971179 -47.127273 
L 268.290718 -47.127273 
L 269.610257 -47.127273 
L 270.929796 -47.127273 
L 272.249335 -47.127273 
L 273.568874 -47.127273 
L 274.888413 -47.127273 
L 276.207952 -47.127273 
L 277.52749 -47.127273 
L 278.847029 -47.127273 
L 280.166568 -47.127273 
L 281.486107 -47.127273 
L 282.805646 -47.127273 
L 282.970588 -47.127273 
L 284.125185 -47.127273 
L 285.444724 -47.127273 
L 286.764262 -47.127273 
L 288.083801 -47.127273 
L 289.40334 -47.127273 
L 290.722879 -47.127273 
L 292.042418 -47.127273 
L 293.361957 -47.127273 
L 294.681496 -47.127273 
L 296.001035 -47.127273 
L 297.320573 -47.127273 
L 298.640112 -47.127273 
L 299.959651 -47.127273 
L 301.27919 -47.127273 
L 302.598729 -47.127273 
L 303.918268 -47.127273 
L 305.237807 -47.127273 
L 306.557346 -47.127273 
L 307.876884 -47.127273 
L 309.196423 -47.127273 
L 310.515962 -47.127273 
L 311.835501 -47.127273 
L 313.15504 -47.127273 
L 314.474579 -47.127273 
L 315.794118 -47.127273 
L 315.794118 -47.127273 
L 315.794118 -47.127273 
L 314.474579 -47.127273 
L 313.15504 -47.127273 
L 311.835501 -47.127273 
L 310.515962 -47.127273 
L 309.196423 -47.127273 
L 307.876884 -47.127273 
L 306.557346 -47.127273 
L 305.237807 -47.127273 
L 303.918268 -47.127273 
L 302.598729 -47.127273 
L 301.27919 -47.127273 
L 299.959651 -47.127273 
L 298.640112 -47.127273 
L 297.320573 -47.127273 
L 296.001035 -47.127273 
L 294.681496 -47.127273 
L 293.361957 -47.127273 
L 292.042418 -47.127273 
L 290.722879 -47.127273 
L 289.40334 -47.127273 
L 288.083801 -47.127273 
L 286.764262 -47.127273 
L 285.444724 -47.127273 
L 284.125185 -47.127273 
L 282.970588 -47.127273 
L 282.805646 -47.127273 
L 281.486107 -47.127273 
L 280.166568 -47.127273 
L 278.847029 -47.127273 
L 277.52749 -47.127273 
L 276.207952 -47.127273 
L 274.888413 -47.127273 
L 273.568874 -47.127273 
L 272.249335 -47.127273 
L 270.929796 -47.127273 
L 269.610257 -47.127273 
L 268.290718 -47.127273 
L 266.971179 -47.127273 
L 265.651641 -47.127273 
L 264.332102 -47.127273 
L 263.012563 -47.127273 
L 261.693024 -47.127273 
L 260.373485 -47.127273 
L 259.053946 -47.127273 
L 257.734407 -47.127273 
L 256.414868 -47.127273 
L 255.09533 -47.127273 
L 253.775791 -47.127273 
L 252.456252 -47.127273 
L 251.136713 -47.127273 
L 250.147059 -47.127273 
L 249.817174 -47.127273 
L 248.497635 -47.127273 
L 247.178096 -47.127273 
L 245.858557 -47.127273 
L 244.539019 -47.127273 
L 243.21948 -47.127273 
L 241.899941 -49.431016 
L 240.580402 -52.692815 
L 239.260863 -55.919065 
L 237.941324 -59.069368 
L 236.621785 -62.15405 
L 235.302247 -65.143615 
L 233.982708 -68.02751 
L 232.663169 -70.809799 
L 231.34363 -73.478898 
L 230.024091 -76.047801 
L 228.704552 -78.503385 
L 227.385013 -80.86364 
L 226.065474 -83.128922 
L 224.745936 -85.303832 
L 223.426397 -87.403913 
L 222.106858 -89.426262 
L 220.787319 -91.386991 
L 219.46778 -93.287763 
L 218.148241 -95.133079 
L 217.323529 -96.26449 
L 216.828702 -96.934636 
L 215.509163 -98.689067 
L 214.189625 -100.52636 
L 212.870086 -104.075208 
L 211.550547 -107.212314 
L 210.231008 -110.041799 
L 208.911469 -112.629546 
L 207.59193 -115.023615 
L 206.272391 -117.271232 
L 204.952852 -119.390974 
L 203.633314 -121.413553 
L 202.313775 -123.352475 
L 200.994236 -125.218303 
L 199.674697 -127.028841 
L 198.355158 -128.784137 
L 197.035619 -130.497755 
L 195.71608 -132.17177 
L 194.396542 -133.808274 
L 193.077003 -135.415709 
L 191.757464 -136.990197 
L 190.437925 -138.538518 
L 189.118386 -140.059332 
L 187.798847 -141.551999 
L 186.479308 -143.019901 
L 185.159769 -144.459047 
L 184.5 -145.168621 
L 183.840231 -145.871445 
L 182.520692 -147.254871 
L 181.201153 -148.60738 
L 179.881614 -149.928177 
L 178.562075 -151.214711 
L 177.242536 -152.463968 
L 175.922997 -153.673908 
L 174.603458 -154.841265 
L 173.28392 -155.960829 
L 171.964381 -157.031957 
L 170.644842 -158.045664 
L 169.325303 -159.000214 
L 168.005764 -159.890318 
L 166.686225 -160.706031 
L 165.366686 -161.447681 
L 164.047148 -162.100699 
L 162.727609 -162.662497 
L 161.40807 -163.1256 
L 160.088531 -163.477328 
L 158.768992 -163.715865 
L 157.449453 -163.827763 
L 156.129914 -163.807538 
L 154.810375 -163.6488 
L 153.490837 -163.508055 
L 152.171298 -163.420378 
L 151.676471 -163.348879 
L 150.851759 -163.181368 
L 149.53222 -162.784115 
L 148.212681 -163.184309 
L 146.893142 -163.558434 
L 145.573603 -163.79917 
L 144.254064 -163.896329 
L 142.934526 -163.839661 
L 141.614987 -163.826673 
L 140.295448 -163.958131 
L 138.975909 -163.999077 
L 137.65637 -163.86641 
L 136.336831 -163.546493 
L 135.017292 -163.024814 
L 133.697753 -162.290877 
L 132.378215 -161.337244 
L 131.058676 -160.17158 
L 129.739137 -158.7747 
L 128.419598 -157.162435 
L 127.100059 -155.623806 
L 125.78052 -153.864656 
L 124.460981 -151.90339 
L 123.141443 -149.740848 
L 121.821904 -147.408203 
L 120.502365 -144.925386 
L 119.182826 -142.312395 
L 118.852941 -141.641076 
L 117.863287 -139.589601 
L 116.543748 -136.771323 
L 115.224209 -133.869281 
L 113.90467 -130.917099 
L 112.585132 -127.915659 
L 111.265593 -124.856344 
L 109.946054 -121.77973 
L 108.626515 -118.678416 
L 107.306976 -115.547626 
L 105.987437 -112.40607 
L 104.667898 -109.254566 
L 103.348359 -106.087699 
L 102.028821 -102.90423 
L 100.709282 -99.73037 
L 99.389743 -96.551697 
L 98.070204 -93.353381 
L 96.750665 -90.1696 
L 95.431126 -86.982525 
L 94.111587 -83.770806 
L 92.792048 -80.580375 
L 91.47251 -77.418091 
L 90.152971 -74.30057 
L 88.833432 -71.196735 
L 87.513893 -68.089655 
L 86.194354 -64.958839 
L 86.029412 -64.569059 
L 84.874815 -61.853016 
L 83.555276 -58.748272 
L 82.235738 -55.624717 
L 80.916199 -52.517189 
L 79.59666 -49.412111 
L 78.277121 -47.127273 
L 76.957582 -47.127273 
L 75.638043 -47.127273 
L 74.318504 -47.127273 
L 72.998965 -47.127273 
L 71.679427 -47.127273 
L 70.359888 -47.127273 
L 69.040349 -47.127273 
L 67.72081 -47.127273 
L 66.401271 -47.127273 
L 65.081732 -47.127273 
L 63.762193 -47.127273 
L 62.442654 -47.127273 
L 61.123116 -47.127273 
L 59.803577 -47.127273 
L 58.484038 -47.127273 
L 57.164499 -47.127273 
L 55.84496 -47.127273 
L 54.525421 -47.127273 
L 53.205882 -47.127273 
z
" style="stroke: #000000; stroke-opacity: 0.2"/>
    </defs>
    <g clip-path="url(#p8591a3ef56)">
     <use xlink:href="#m5bb4016282" x="0" y="360" style="fill-opacity: 0.2; stroke: #000000; stroke-opacity: 0.2"/>
    </g>
   </g>
   <g id="PathCollection_1">
    <defs>
     <path id="m1a819d84e7" d="M 0 7.071068 
C 1.875269 7.071068 3.673985 6.326016 5 5 
C 6.326016 3.673985 7.071068 1.875269 7.071068 0 
C 7.071068 -1.875269 6.326016 -3.673985 5 -5 
C 3.673985 -6.326016 1.875269 -7.071068 0 -7.071068 
C -1.875269 -7.071068 -3.673985 -6.326016 -5 -5 
C -6.326016 -3.673985 -7.071068 -1.875269 -7.071068 0 
C -7.071068 1.875269 -6.326016 3.673985 -5 5 
C -3.673985 6.326016 -1.875269 7.071068 0 7.071068 
z
" style="stroke: #000000; stroke-opacity: 0.8"/>
    </defs>
    <g clip-path="url(#p8591a3ef56)">
     <use xlink:href="#m1a819d84e7" x="53.205882" y="312.872727" style="fill-opacity: 0.8; stroke: #000000; stroke-opacity: 0.8"/>
     <use xlink:href="#m1a819d84e7" x="86.029412" y="245.420543" style="fill-opacity: 0.8; stroke: #000000; stroke-opacity: 0.8"/>
     <use xlink:href="#m1a819d84e7" x="118.852941" y="271.814876" style="fill-opacity: 0.8; stroke: #000000; stroke-opacity: 0.8"/>
     <use xlink:href="#m1a819d84e7" x="151.676471" y="219.02621" style="fill-opacity: 0.8; stroke: #000000; stroke-opacity: 0.8"/>
     <use xlink:href="#m1a819d84e7" x="184.5" y="242.487839" style="fill-opacity: 0.8; stroke: #000000; stroke-opacity: 0.8"/>
     <use xlink:href="#m1a819d84e7" x="217.323529" y="286.478394" style="fill-opacity: 0.8; stroke: #000000; stroke-opacity: 0.8"/>
     <use xlink:href="#m1a819d84e7" x="250.147059" y="312.872727" style="fill-opacity: 0.8; stroke: #000000; stroke-opacity: 0.8"/>
     <use xlink:href="#m1a819d84e7" x="282.970588" y="312.872727" style="fill-opacity: 0.8; stroke: #000000; stroke-opacity: 0.8"/>
    </g>
   </g>
   <g id="line2d_11">
    <path d="M 53.205882 312.872727 
L 78.277121 312.872727 
L 79.59666 311.231115 
L 111.265593 237.586128 
L 116.543748 225.845754 
L 120.502365 217.541731 
L 123.141443 212.438311 
L 125.78052 207.830508 
L 128.419598 203.878396 
L 129.739137 202.180768 
L 131.058676 200.689681 
L 132.378215 199.425795 
L 133.697753 198.375523 
L 135.017292 197.537856 
L 136.336831 196.914504 
L 137.65637 196.49731 
L 138.975909 196.271324 
L 140.295448 196.224184 
L 141.614987 196.343118 
L 142.934526 196.607437 
L 144.254064 197.008804 
L 146.893142 198.169785 
L 149.53222 199.715586 
L 152.171298 201.579539 
L 154.810375 203.690285 
L 158.768992 207.231265 
L 162.727609 211.115963 
L 168.005764 216.695791 
L 173.28392 222.619139 
L 179.881614 230.378574 
L 187.798847 240.087523 
L 195.71608 250.174738 
L 202.313775 258.888452 
L 208.911469 267.967965 
L 214.189625 275.569203 
L 219.46778 283.525955 
L 226.065474 293.940213 
L 233.982708 306.896876 
L 236.621785 311.263939 
L 237.941324 312.872727 
L 315.794118 312.872727 
L 315.794118 312.872727 
" clip-path="url(#p8591a3ef56)" style="fill: none; stroke: #000000; stroke-width: 3; stroke-linecap: square"/>
   </g>
  </g>
  <g id="text_13">
   <!-- Individual 32 -->
   <g transform="translate(20.408438 29.532375) scale(0.312 -0.312)">
    <defs>
     <path id="ArialMT-49" d="M 597 0 
L 597 4581 
L 1203 4581 
L 1203 0 
L 597 0 
z
" transform="scale(0.015625)"/>
     <path id="ArialMT-6e" d="M 422 0 
L 422 3319 
L 928 3319 
L 928 2847 
Q 1294 3394 1984 3394 
Q 2284 3394 2536 3286 
Q 2788 3178 2913 3003 
Q 3038 2828 3088 2588 
Q 3119 2431 3119 2041 
L 3119 0 
L 2556 0 
L 2556 2019 
Q 2556 2363 2490 2533 
Q 2425 2703 2258 2804 
Q 2091 2906 1866 2906 
Q 1506 2906 1245 2678 
Q 984 2450 984 1813 
L 984 0 
L 422 0 
z
" transform="scale(0.015625)"/>
     <path id="ArialMT-76" d="M 1344 0 
L 81 3319 
L 675 3319 
L 1388 1331 
Q 1503 1009 1600 663 
Q 1675 925 1809 1294 
L 2547 3319 
L 3125 3319 
L 1869 0 
L 1344 0 
z
" transform="scale(0.015625)"/>
     <path id="ArialMT-61" d="M 2588 409 
Q 2275 144 1986 34 
Q 1697 -75 1366 -75 
Q 819 -75 525 192 
Q 231 459 231 875 
Q 231 1119 342 1320 
Q 453 1522 633 1644 
Q 813 1766 1038 1828 
Q 1203 1872 1538 1913 
Q 2219 1994 2541 2106 
Q 2544 2222 2544 2253 
Q 2544 2597 2384 2738 
Q 2169 2928 1744 2928 
Q 1347 2928 1158 2789 
Q 969 2650 878 2297 
L 328 2372 
Q 403 2725 575 2942 
Q 747 3159 1072 3276 
Q 1397 3394 1825 3394 
Q 2250 3394 2515 3294 
Q 2781 3194 2906 3042 
Q 3031 2891 3081 2659 
Q 3109 2516 3109 2141 
L 3109 1391 
Q 3109 606 3145 398 
Q 3181 191 3288 0 
L 2700 0 
Q 2613 175 2588 409 
z
M 2541 1666 
Q 2234 1541 1622 1453 
Q 1275 1403 1131 1340 
Q 988 1278 909 1158 
Q 831 1038 831 891 
Q 831 666 1001 516 
Q 1172 366 1500 366 
Q 1825 366 2078 508 
Q 2331 650 2450 897 
Q 2541 1088 2541 1459 
L 2541 1666 
z
" transform="scale(0.015625)"/>
     <path id="ArialMT-6c" d="M 409 0 
L 409 4581 
L 972 4581 
L 972 0 
L 409 0 
z
" transform="scale(0.015625)"/>
     <path id="ArialMT-33" d="M 269 1209 
L 831 1284 
Q 928 806 1161 595 
Q 1394 384 1728 384 
Q 2125 384 2398 659 
Q 2672 934 2672 1341 
Q 2672 1728 2419 1979 
Q 2166 2231 1775 2231 
Q 1616 2231 1378 2169 
L 1441 2663 
Q 1497 2656 1531 2656 
Q 1891 2656 2178 2843 
Q 2466 3031 2466 3422 
Q 2466 3731 2256 3934 
Q 2047 4138 1716 4138 
Q 1388 4138 1169 3931 
Q 950 3725 888 3313 
L 325 3413 
Q 428 3978 793 4289 
Q 1159 4600 1703 4600 
Q 2078 4600 2393 4439 
Q 2709 4278 2876 4000 
Q 3044 3722 3044 3409 
Q 3044 3113 2884 2869 
Q 2725 2625 2413 2481 
Q 2819 2388 3044 2092 
Q 3269 1797 3269 1353 
Q 3269 753 2831 336 
Q 2394 -81 1725 -81 
Q 1122 -81 723 278 
Q 325 638 269 1209 
z
" transform="scale(0.015625)"/>
     <path id="ArialMT-32" d="M 3222 541 
L 3222 0 
L 194 0 
Q 188 203 259 391 
Q 375 700 629 1000 
Q 884 1300 1366 1694 
Q 2113 2306 2375 2664 
Q 2638 3022 2638 3341 
Q 2638 3675 2398 3904 
Q 2159 4134 1775 4134 
Q 1369 4134 1125 3890 
Q 881 3647 878 3216 
L 300 3275 
Q 359 3922 746 4261 
Q 1134 4600 1788 4600 
Q 2447 4600 2831 4234 
Q 3216 3869 3216 3328 
Q 3216 3053 3103 2787 
Q 2991 2522 2730 2228 
Q 2469 1934 1863 1422 
Q 1356 997 1212 845 
Q 1069 694 975 541 
L 3222 541 
z
" transform="scale(0.015625)"/>
    </defs>
    <use xlink:href="#ArialMT-49"/>
    <use xlink:href="#ArialMT-6e" transform="translate(27.783203 0)"/>
    <use xlink:href="#ArialMT-64" transform="translate(83.398438 0)"/>
    <use xlink:href="#ArialMT-69" transform="translate(139.013672 0)"/>
    <use xlink:href="#ArialMT-76" transform="translate(161.230469 0)"/>
    <use xlink:href="#ArialMT-69" transform="translate(211.230469 0)"/>
    <use xlink:href="#ArialMT-64" transform="translate(233.447266 0)"/>
    <use xlink:href="#ArialMT-75" transform="translate(289.0625 0)"/>
    <use xlink:href="#ArialMT-61" transform="translate(344.677734 0)"/>
    <use xlink:href="#ArialMT-6c" transform="translate(400.292969 0)"/>
    <use xlink:href="#ArialMT-20" transform="translate(422.509766 0)"/>
    <use xlink:href="#ArialMT-33" transform="translate(450.292969 0)"/>
    <use xlink:href="#ArialMT-32" transform="translate(505.908203 0)"/>
   </g>
  </g>
 </g>
 <defs>
  <clipPath id="p8591a3ef56">
   <rect x="45" y="72" width="279" height="248.4"/>
  </clipPath>
 </defs>
</svg>
