<?xml version="1.0" encoding="utf-8" standalone="no"?>
<!DOCTYPE svg PUBLIC "-//W3C//DTD SVG 1.1//EN"
  "http://www.w3.org/Graphics/SVG/1.1/DTD/svg11.dtd">
<svg xmlns:xlink="http://www.w3.org/1999/xlink" width="360pt" height="360pt" viewBox="0 0 360 360" xmlns="http://www.w3.org/2000/svg" version="1.1">
 <metadata>
  <rdf:RDF xmlns:dc="http://purl.org/dc/elements/1.1/" xmlns:cc="http://creativecommons.org/ns#" xmlns:rdf="http://www.w3.org/1999/02/22-rdf-syntax-ns#">
   <cc:Work>
    <dc:type rdf:resource="http://purl.org/dc/dcmitype/StillImage"/>
    <dc:date>2025-02-18T19:39:34.202849</dc:date>
    <dc:format>image/svg+xml</dc:format>
    <dc:creator>
     <cc:Agent>
      <dc:title>Matplotlib v3.10.0, https://matplotlib.org/</dc:title>
     </cc:Agent>
    </dc:creator>
   </cc:Work>
  </rdf:RDF>
 </metadata>
 <defs>
  <style type="text/css">*{stroke-linejoin: round; stroke-linecap: butt}</style>
 </defs>
 <g id="figure_1">
  <g id="patch_1">
   <path d="M 0 360 
L 360 360 
L 360 0 
L 0 0 
L 0 360 
z
" style="fill: none"/>
  </g>
  <g id="axes_1">
   <g id="patch_2">
    <path d="M 45 320.4 
L 324 320.4 
L 324 72 
L 45 72 
L 45 320.4 
z
" style="fill: none"/>
   </g>
   <g id="matplotlib.axis_1">
    <g id="xtick_1">
     <g id="line2d_1">
      <defs>
       <path id="mdf0a05d9af" d="M 0 0 
L 0 3.5 
" style="stroke: #000000; stroke-width: 0.8"/>
      </defs>
      <g>
       <use xlink:href="#mdf0a05d9af" x="53.205882" y="320.4" style="stroke: #000000; stroke-width: 0.8"/>
      </g>
     </g>
     <g id="text_1">
      <!-- 0 -->
      <g transform="translate(43.280382 351.107125) scale(0.312 -0.312)">
       <defs>
        <path id="DejaVuSans-30" d="M 2034 4250 
Q 1547 4250 1301 3770 
Q 1056 3291 1056 2328 
Q 1056 1369 1301 889 
Q 1547 409 2034 409 
Q 2525 409 2770 889 
Q 3016 1369 3016 2328 
Q 3016 3291 2770 3770 
Q 2525 4250 2034 4250 
z
M 2034 4750 
Q 2819 4750 3233 4129 
Q 3647 3509 3647 2328 
Q 3647 1150 3233 529 
Q 2819 -91 2034 -91 
Q 1250 -91 836 529 
Q 422 1150 422 2328 
Q 422 3509 836 4129 
Q 1250 4750 2034 4750 
z
" transform="scale(0.015625)"/>
       </defs>
       <use xlink:href="#DejaVuSans-30"/>
      </g>
     </g>
    </g>
    <g id="xtick_2">
     <g id="line2d_2">
      <g>
       <use xlink:href="#mdf0a05d9af" x="118.852941" y="320.4" style="stroke: #000000; stroke-width: 0.8"/>
      </g>
     </g>
     <g id="text_2">
      <!-- 2 -->
      <g transform="translate(108.927441 351.107125) scale(0.312 -0.312)">
       <defs>
        <path id="DejaVuSans-32" d="M 1228 531 
L 3431 531 
L 3431 0 
L 469 0 
L 469 531 
Q 828 903 1448 1529 
Q 2069 2156 2228 2338 
Q 2531 2678 2651 2914 
Q 2772 3150 2772 3378 
Q 2772 3750 2511 3984 
Q 2250 4219 1831 4219 
Q 1534 4219 1204 4116 
Q 875 4013 500 3803 
L 500 4441 
Q 881 4594 1212 4672 
Q 1544 4750 1819 4750 
Q 2544 4750 2975 4387 
Q 3406 4025 3406 3419 
Q 3406 3131 3298 2873 
Q 3191 2616 2906 2266 
Q 2828 2175 2409 1742 
Q 1991 1309 1228 531 
z
" transform="scale(0.015625)"/>
       </defs>
       <use xlink:href="#DejaVuSans-32"/>
      </g>
     </g>
    </g>
    <g id="xtick_3">
     <g id="line2d_3">
      <g>
       <use xlink:href="#mdf0a05d9af" x="184.5" y="320.4" style="stroke: #000000; stroke-width: 0.8"/>
      </g>
     </g>
     <g id="text_3">
      <!-- 4 -->
      <g transform="translate(174.5745 351.107125) scale(0.312 -0.312)">
       <defs>
        <path id="DejaVuSans-34" d="M 2419 4116 
L 825 1625 
L 2419 1625 
L 2419 4116 
z
M 2253 4666 
L 3047 4666 
L 3047 1625 
L 3713 1625 
L 3713 1100 
L 3047 1100 
L 3047 0 
L 2419 0 
L 2419 1100 
L 313 1100 
L 313 1709 
L 2253 4666 
z
" transform="scale(0.015625)"/>
       </defs>
       <use xlink:href="#DejaVuSans-34"/>
      </g>
     </g>
    </g>
    <g id="xtick_4">
     <g id="line2d_4">
      <g>
       <use xlink:href="#mdf0a05d9af" x="250.147059" y="320.4" style="stroke: #000000; stroke-width: 0.8"/>
      </g>
     </g>
     <g id="text_4">
      <!-- 6 -->
      <g transform="translate(240.221559 351.107125) scale(0.312 -0.312)">
       <defs>
        <path id="DejaVuSans-36" d="M 2113 2584 
Q 1688 2584 1439 2293 
Q 1191 2003 1191 1497 
Q 1191 994 1439 701 
Q 1688 409 2113 409 
Q 2538 409 2786 701 
Q 3034 994 3034 1497 
Q 3034 2003 2786 2293 
Q 2538 2584 2113 2584 
z
M 3366 4563 
L 3366 3988 
Q 3128 4100 2886 4159 
Q 2644 4219 2406 4219 
Q 1781 4219 1451 3797 
Q 1122 3375 1075 2522 
Q 1259 2794 1537 2939 
Q 1816 3084 2150 3084 
Q 2853 3084 3261 2657 
Q 3669 2231 3669 1497 
Q 3669 778 3244 343 
Q 2819 -91 2113 -91 
Q 1303 -91 875 529 
Q 447 1150 447 2328 
Q 447 3434 972 4092 
Q 1497 4750 2381 4750 
Q 2619 4750 2861 4703 
Q 3103 4656 3366 4563 
z
" transform="scale(0.015625)"/>
       </defs>
       <use xlink:href="#DejaVuSans-36"/>
      </g>
     </g>
    </g>
    <g id="xtick_5">
     <g id="line2d_5">
      <g>
       <use xlink:href="#mdf0a05d9af" x="315.794118" y="320.4" style="stroke: #000000; stroke-width: 0.8"/>
      </g>
     </g>
     <g id="text_5">
      <!-- 8 -->
      <g transform="translate(305.868618 351.107125) scale(0.312 -0.312)">
       <defs>
        <path id="DejaVuSans-38" d="M 2034 2216 
Q 1584 2216 1326 1975 
Q 1069 1734 1069 1313 
Q 1069 891 1326 650 
Q 1584 409 2034 409 
Q 2484 409 2743 651 
Q 3003 894 3003 1313 
Q 3003 1734 2745 1975 
Q 2488 2216 2034 2216 
z
M 1403 2484 
Q 997 2584 770 2862 
Q 544 3141 544 3541 
Q 544 4100 942 4425 
Q 1341 4750 2034 4750 
Q 2731 4750 3128 4425 
Q 3525 4100 3525 3541 
Q 3525 3141 3298 2862 
Q 3072 2584 2669 2484 
Q 3125 2378 3379 2068 
Q 3634 1759 3634 1313 
Q 3634 634 3220 271 
Q 2806 -91 2034 -91 
Q 1263 -91 848 271 
Q 434 634 434 1313 
Q 434 1759 690 2068 
Q 947 2378 1403 2484 
z
M 1172 3481 
Q 1172 3119 1398 2916 
Q 1625 2713 2034 2713 
Q 2441 2713 2670 2916 
Q 2900 3119 2900 3481 
Q 2900 3844 2670 4047 
Q 2441 4250 2034 4250 
Q 1625 4250 1398 4047 
Q 1172 3844 1172 3481 
z
" transform="scale(0.015625)"/>
       </defs>
       <use xlink:href="#DejaVuSans-38"/>
      </g>
     </g>
    </g>
    <g id="text_6">
     <!-- Time (d) -->
     <g transform="translate(131.813437 382.415656) scale(0.286 -0.286)">
      <defs>
       <path id="ArialMT-54" d="M 1659 0 
L 1659 4041 
L 150 4041 
L 150 4581 
L 3781 4581 
L 3781 4041 
L 2266 4041 
L 2266 0 
L 1659 0 
z
" transform="scale(0.015625)"/>
       <path id="ArialMT-69" d="M 425 3934 
L 425 4581 
L 988 4581 
L 988 3934 
L 425 3934 
z
M 425 0 
L 425 3319 
L 988 3319 
L 988 0 
L 425 0 
z
" transform="scale(0.015625)"/>
       <path id="ArialMT-6d" d="M 422 0 
L 422 3319 
L 925 3319 
L 925 2853 
Q 1081 3097 1340 3245 
Q 1600 3394 1931 3394 
Q 2300 3394 2536 3241 
Q 2772 3088 2869 2813 
Q 3263 3394 3894 3394 
Q 4388 3394 4653 3120 
Q 4919 2847 4919 2278 
L 4919 0 
L 4359 0 
L 4359 2091 
Q 4359 2428 4304 2576 
Q 4250 2725 4106 2815 
Q 3963 2906 3769 2906 
Q 3419 2906 3187 2673 
Q 2956 2441 2956 1928 
L 2956 0 
L 2394 0 
L 2394 2156 
Q 2394 2531 2256 2718 
Q 2119 2906 1806 2906 
Q 1569 2906 1367 2781 
Q 1166 2656 1075 2415 
Q 984 2175 984 1722 
L 984 0 
L 422 0 
z
" transform="scale(0.015625)"/>
       <path id="ArialMT-65" d="M 2694 1069 
L 3275 997 
Q 3138 488 2766 206 
Q 2394 -75 1816 -75 
Q 1088 -75 661 373 
Q 234 822 234 1631 
Q 234 2469 665 2931 
Q 1097 3394 1784 3394 
Q 2450 3394 2872 2941 
Q 3294 2488 3294 1666 
Q 3294 1616 3291 1516 
L 816 1516 
Q 847 969 1125 678 
Q 1403 388 1819 388 
Q 2128 388 2347 550 
Q 2566 713 2694 1069 
z
M 847 1978 
L 2700 1978 
Q 2663 2397 2488 2606 
Q 2219 2931 1791 2931 
Q 1403 2931 1139 2672 
Q 875 2413 847 1978 
z
" transform="scale(0.015625)"/>
       <path id="ArialMT-20" transform="scale(0.015625)"/>
       <path id="ArialMT-28" d="M 1497 -1347 
Q 1031 -759 709 28 
Q 388 816 388 1659 
Q 388 2403 628 3084 
Q 909 3875 1497 4659 
L 1900 4659 
Q 1522 4009 1400 3731 
Q 1209 3300 1100 2831 
Q 966 2247 966 1656 
Q 966 153 1900 -1347 
L 1497 -1347 
z
" transform="scale(0.015625)"/>
       <path id="ArialMT-64" d="M 2575 0 
L 2575 419 
Q 2259 -75 1647 -75 
Q 1250 -75 917 144 
Q 584 363 401 755 
Q 219 1147 219 1656 
Q 219 2153 384 2558 
Q 550 2963 881 3178 
Q 1213 3394 1622 3394 
Q 1922 3394 2156 3267 
Q 2391 3141 2538 2938 
L 2538 4581 
L 3097 4581 
L 3097 0 
L 2575 0 
z
M 797 1656 
Q 797 1019 1065 703 
Q 1334 388 1700 388 
Q 2069 388 2326 689 
Q 2584 991 2584 1609 
Q 2584 2291 2321 2609 
Q 2059 2928 1675 2928 
Q 1300 2928 1048 2622 
Q 797 2316 797 1656 
z
" transform="scale(0.015625)"/>
       <path id="ArialMT-29" d="M 791 -1347 
L 388 -1347 
Q 1322 153 1322 1656 
Q 1322 2244 1188 2822 
Q 1081 3291 891 3722 
Q 769 4003 388 4659 
L 791 4659 
Q 1378 3875 1659 3084 
Q 1900 2403 1900 1659 
Q 1900 816 1576 28 
Q 1253 -759 791 -1347 
z
" transform="scale(0.015625)"/>
      </defs>
      <use xlink:href="#ArialMT-54"/>
      <use xlink:href="#ArialMT-69" transform="translate(57.333984 0)"/>
      <use xlink:href="#ArialMT-6d" transform="translate(79.550781 0)"/>
      <use xlink:href="#ArialMT-65" transform="translate(162.851562 0)"/>
      <use xlink:href="#ArialMT-20" transform="translate(218.466797 0)"/>
      <use xlink:href="#ArialMT-28" transform="translate(246.25 0)"/>
      <use xlink:href="#ArialMT-64" transform="translate(279.550781 0)"/>
      <use xlink:href="#ArialMT-29" transform="translate(335.166016 0)"/>
     </g>
    </g>
   </g>
   <g id="matplotlib.axis_2">
    <g id="ytick_1">
     <g id="line2d_6">
      <defs>
       <path id="m2c4ee3b6d9" d="M 0 0 
L -3.5 0 
" style="stroke: #000000; stroke-width: 0.8"/>
      </defs>
      <g>
       <use xlink:href="#m2c4ee3b6d9" x="45" y="312.872727" style="stroke: #000000; stroke-width: 0.8"/>
      </g>
     </g>
     <g id="text_7">
      <!-- 0 -->
      <g transform="translate(18.149 324.72629) scale(0.312 -0.312)">
       <use xlink:href="#DejaVuSans-30"/>
      </g>
     </g>
    </g>
    <g id="ytick_2">
     <g id="line2d_7">
      <g>
       <use xlink:href="#m2c4ee3b6d9" x="45" y="252.654545" style="stroke: #000000; stroke-width: 0.8"/>
      </g>
     </g>
     <g id="text_8">
      <!-- 2 -->
      <g transform="translate(18.149 264.508108) scale(0.312 -0.312)">
       <use xlink:href="#DejaVuSans-32"/>
      </g>
     </g>
    </g>
    <g id="ytick_3">
     <g id="line2d_8">
      <g>
       <use xlink:href="#m2c4ee3b6d9" x="45" y="192.436364" style="stroke: #000000; stroke-width: 0.8"/>
      </g>
     </g>
     <g id="text_9">
      <!-- 4 -->
      <g transform="translate(18.149 204.289926) scale(0.312 -0.312)">
       <use xlink:href="#DejaVuSans-34"/>
      </g>
     </g>
    </g>
    <g id="ytick_4">
     <g id="line2d_9">
      <g>
       <use xlink:href="#m2c4ee3b6d9" x="45" y="132.218182" style="stroke: #000000; stroke-width: 0.8"/>
      </g>
     </g>
     <g id="text_10">
      <!-- 6 -->
      <g transform="translate(18.149 144.071744) scale(0.312 -0.312)">
       <use xlink:href="#DejaVuSans-36"/>
      </g>
     </g>
    </g>
    <g id="ytick_5">
     <g id="line2d_10">
      <g>
       <use xlink:href="#m2c4ee3b6d9" x="45" y="72" style="stroke: #000000; stroke-width: 0.8"/>
      </g>
     </g>
     <g id="text_11">
      <!-- 8 -->
      <g transform="translate(18.149 83.853563) scale(0.312 -0.312)">
       <use xlink:href="#DejaVuSans-38"/>
      </g>
     </g>
    </g>
    <g id="text_12">
     <!-- Log$_{10}$ Virus (copies/mL) -->
     <g transform="translate(7.857 348.638) rotate(-90) scale(0.286 -0.286)">
      <defs>
       <path id="ArialMT-4c" d="M 469 0 
L 469 4581 
L 1075 4581 
L 1075 541 
L 3331 541 
L 3331 0 
L 469 0 
z
" transform="scale(0.015625)"/>
       <path id="ArialMT-6f" d="M 213 1659 
Q 213 2581 725 3025 
Q 1153 3394 1769 3394 
Q 2453 3394 2887 2945 
Q 3322 2497 3322 1706 
Q 3322 1066 3130 698 
Q 2938 331 2570 128 
Q 2203 -75 1769 -75 
Q 1072 -75 642 372 
Q 213 819 213 1659 
z
M 791 1659 
Q 791 1022 1069 705 
Q 1347 388 1769 388 
Q 2188 388 2466 706 
Q 2744 1025 2744 1678 
Q 2744 2294 2464 2611 
Q 2184 2928 1769 2928 
Q 1347 2928 1069 2612 
Q 791 2297 791 1659 
z
" transform="scale(0.015625)"/>
       <path id="ArialMT-67" d="M 319 -275 
L 866 -356 
Q 900 -609 1056 -725 
Q 1266 -881 1628 -881 
Q 2019 -881 2231 -725 
Q 2444 -569 2519 -288 
Q 2563 -116 2559 434 
Q 2191 0 1641 0 
Q 956 0 581 494 
Q 206 988 206 1678 
Q 206 2153 378 2554 
Q 550 2956 876 3175 
Q 1203 3394 1644 3394 
Q 2231 3394 2613 2919 
L 2613 3319 
L 3131 3319 
L 3131 450 
Q 3131 -325 2973 -648 
Q 2816 -972 2473 -1159 
Q 2131 -1347 1631 -1347 
Q 1038 -1347 672 -1080 
Q 306 -813 319 -275 
z
M 784 1719 
Q 784 1066 1043 766 
Q 1303 466 1694 466 
Q 2081 466 2343 764 
Q 2606 1063 2606 1700 
Q 2606 2309 2336 2618 
Q 2066 2928 1684 2928 
Q 1309 2928 1046 2623 
Q 784 2319 784 1719 
z
" transform="scale(0.015625)"/>
       <path id="DejaVuSans-31" d="M 794 531 
L 1825 531 
L 1825 4091 
L 703 3866 
L 703 4441 
L 1819 4666 
L 2450 4666 
L 2450 531 
L 3481 531 
L 3481 0 
L 794 0 
L 794 531 
z
" transform="scale(0.015625)"/>
       <path id="ArialMT-56" d="M 1803 0 
L 28 4581 
L 684 4581 
L 1875 1253 
Q 2019 853 2116 503 
Q 2222 878 2363 1253 
L 3600 4581 
L 4219 4581 
L 2425 0 
L 1803 0 
z
" transform="scale(0.015625)"/>
       <path id="ArialMT-72" d="M 416 0 
L 416 3319 
L 922 3319 
L 922 2816 
Q 1116 3169 1280 3281 
Q 1444 3394 1641 3394 
Q 1925 3394 2219 3213 
L 2025 2691 
Q 1819 2813 1613 2813 
Q 1428 2813 1281 2702 
Q 1134 2591 1072 2394 
Q 978 2094 978 1738 
L 978 0 
L 416 0 
z
" transform="scale(0.015625)"/>
       <path id="ArialMT-75" d="M 2597 0 
L 2597 488 
Q 2209 -75 1544 -75 
Q 1250 -75 995 37 
Q 741 150 617 320 
Q 494 491 444 738 
Q 409 903 409 1263 
L 409 3319 
L 972 3319 
L 972 1478 
Q 972 1038 1006 884 
Q 1059 663 1231 536 
Q 1403 409 1656 409 
Q 1909 409 2131 539 
Q 2353 669 2445 892 
Q 2538 1116 2538 1541 
L 2538 3319 
L 3100 3319 
L 3100 0 
L 2597 0 
z
" transform="scale(0.015625)"/>
       <path id="ArialMT-73" d="M 197 991 
L 753 1078 
Q 800 744 1014 566 
Q 1228 388 1613 388 
Q 2000 388 2187 545 
Q 2375 703 2375 916 
Q 2375 1106 2209 1216 
Q 2094 1291 1634 1406 
Q 1016 1563 777 1677 
Q 538 1791 414 1992 
Q 291 2194 291 2438 
Q 291 2659 392 2848 
Q 494 3038 669 3163 
Q 800 3259 1026 3326 
Q 1253 3394 1513 3394 
Q 1903 3394 2198 3281 
Q 2494 3169 2634 2976 
Q 2775 2784 2828 2463 
L 2278 2388 
Q 2241 2644 2061 2787 
Q 1881 2931 1553 2931 
Q 1166 2931 1000 2803 
Q 834 2675 834 2503 
Q 834 2394 903 2306 
Q 972 2216 1119 2156 
Q 1203 2125 1616 2013 
Q 2213 1853 2448 1751 
Q 2684 1650 2818 1456 
Q 2953 1263 2953 975 
Q 2953 694 2789 445 
Q 2625 197 2315 61 
Q 2006 -75 1616 -75 
Q 969 -75 630 194 
Q 291 463 197 991 
z
" transform="scale(0.015625)"/>
       <path id="ArialMT-63" d="M 2588 1216 
L 3141 1144 
Q 3050 572 2676 248 
Q 2303 -75 1759 -75 
Q 1078 -75 664 370 
Q 250 816 250 1647 
Q 250 2184 428 2587 
Q 606 2991 970 3192 
Q 1334 3394 1763 3394 
Q 2303 3394 2647 3120 
Q 2991 2847 3088 2344 
L 2541 2259 
Q 2463 2594 2264 2762 
Q 2066 2931 1784 2931 
Q 1359 2931 1093 2626 
Q 828 2322 828 1663 
Q 828 994 1084 691 
Q 1341 388 1753 388 
Q 2084 388 2306 591 
Q 2528 794 2588 1216 
z
" transform="scale(0.015625)"/>
       <path id="ArialMT-70" d="M 422 -1272 
L 422 3319 
L 934 3319 
L 934 2888 
Q 1116 3141 1344 3267 
Q 1572 3394 1897 3394 
Q 2322 3394 2647 3175 
Q 2972 2956 3137 2557 
Q 3303 2159 3303 1684 
Q 3303 1175 3120 767 
Q 2938 359 2589 142 
Q 2241 -75 1856 -75 
Q 1575 -75 1351 44 
Q 1128 163 984 344 
L 984 -1272 
L 422 -1272 
z
M 931 1641 
Q 931 1000 1190 694 
Q 1450 388 1819 388 
Q 2194 388 2461 705 
Q 2728 1022 2728 1688 
Q 2728 2322 2467 2637 
Q 2206 2953 1844 2953 
Q 1484 2953 1207 2617 
Q 931 2281 931 1641 
z
" transform="scale(0.015625)"/>
       <path id="ArialMT-2f" d="M 0 -78 
L 1328 4659 
L 1778 4659 
L 453 -78 
L 0 -78 
z
" transform="scale(0.015625)"/>
      </defs>
      <use xlink:href="#ArialMT-4c" transform="translate(0 0.203125)"/>
      <use xlink:href="#ArialMT-6f" transform="translate(55.615234 0.203125)"/>
      <use xlink:href="#ArialMT-67" transform="translate(111.230469 0.203125)"/>
      <use xlink:href="#DejaVuSans-31" transform="translate(167.802734 -16.203125) scale(0.7)"/>
      <use xlink:href="#DejaVuSans-30" transform="translate(212.338867 -16.203125) scale(0.7)"/>
      <use xlink:href="#ArialMT-20" transform="translate(259.609375 0.203125)"/>
      <use xlink:href="#ArialMT-56" transform="translate(287.392578 0.203125)"/>
      <use xlink:href="#ArialMT-69" transform="translate(354.091797 0.203125)"/>
      <use xlink:href="#ArialMT-72" transform="translate(376.308594 0.203125)"/>
      <use xlink:href="#ArialMT-75" transform="translate(409.609375 0.203125)"/>
      <use xlink:href="#ArialMT-73" transform="translate(465.224609 0.203125)"/>
      <use xlink:href="#ArialMT-20" transform="translate(515.224609 0.203125)"/>
      <use xlink:href="#ArialMT-28" transform="translate(543.007812 0.203125)"/>
      <use xlink:href="#ArialMT-63" transform="translate(576.308594 0.203125)"/>
      <use xlink:href="#ArialMT-6f" transform="translate(626.308594 0.203125)"/>
      <use xlink:href="#ArialMT-70" transform="translate(681.923828 0.203125)"/>
      <use xlink:href="#ArialMT-69" transform="translate(737.539062 0.203125)"/>
      <use xlink:href="#ArialMT-65" transform="translate(759.755859 0.203125)"/>
      <use xlink:href="#ArialMT-73" transform="translate(815.371094 0.203125)"/>
      <use xlink:href="#ArialMT-2f" transform="translate(865.371094 0.203125)"/>
      <use xlink:href="#ArialMT-6d" transform="translate(893.154297 0.203125)"/>
      <use xlink:href="#ArialMT-4c" transform="translate(976.455078 0.203125)"/>
      <use xlink:href="#ArialMT-29" transform="translate(1032.070312 0.203125)"/>
     </g>
    </g>
   </g>
   <g id="patch_3">
    <path d="M 45 320.4 
L 45 72 
" style="fill: none; stroke: #000000; stroke-width: 3; stroke-linejoin: miter; stroke-linecap: square"/>
   </g>
   <g id="patch_4">
    <path d="M 324 320.4 
L 324 72 
" style="fill: none; stroke: #000000; stroke-width: 3; stroke-linejoin: miter; stroke-linecap: square"/>
   </g>
   <g id="patch_5">
    <path d="M 45 320.4 
L 324 320.4 
" style="fill: none; stroke: #000000; stroke-width: 3; stroke-linejoin: miter; stroke-linecap: square"/>
   </g>
   <g id="patch_6">
    <path d="M 45 72 
L 324 72 
" style="fill: none; stroke: #000000; stroke-width: 3; stroke-linejoin: miter; stroke-linecap: square"/>
   </g>
   <g id="FillBetweenPolyCollection_1">
    <defs>
     <path id="m1b040f7f11" d="M 53.205882 -47.127273 
L 53.205882 -47.127273 
L 54.525421 -47.127273 
L 55.84496 -47.127273 
L 57.164499 -50.074039 
L 58.484038 -54.732488 
L 59.803577 -58.1587 
L 61.123116 -60.942716 
L 62.442654 -63.357031 
L 63.762193 -65.517461 
L 65.081732 -67.542733 
L 66.401271 -69.54362 
L 67.72081 -71.525677 
L 69.040349 -73.505212 
L 70.359888 -75.494287 
L 71.679427 -77.477252 
L 72.998965 -79.453773 
L 74.318504 -81.431482 
L 75.638043 -83.419521 
L 76.957582 -85.399827 
L 78.277121 -87.377246 
L 79.59666 -89.354954 
L 80.916199 -91.342906 
L 82.235738 -93.323036 
L 83.555276 -95.300996 
L 84.874815 -97.278199 
L 86.029412 -99.017363 
L 86.194354 -99.265869 
L 87.513893 -101.247005 
L 88.833432 -103.224978 
L 90.152971 -105.201609 
L 91.47251 -107.188333 
L 92.792048 -109.17157 
L 94.111587 -111.148901 
L 95.431126 -113.125995 
L 96.750665 -115.110043 
L 98.070204 -117.095751 
L 99.389743 -119.072376 
L 100.709282 -121.051857 
L 102.028821 -123.03094 
L 103.348359 -125.018074 
L 104.667898 -126.995387 
L 105.987437 -128.975478 
L 107.306976 -130.951483 
L 108.626515 -132.937036 
L 109.946054 -134.918376 
L 111.265593 -136.895091 
L 112.585132 -138.872679 
L 113.90467 -140.851431 
L 115.224209 -142.8356 
L 116.543748 -144.809526 
L 117.863287 -146.787651 
L 118.852941 -148.266458 
L 119.182826 -148.759643 
L 120.502365 -150.736242 
L 121.821904 -152.706643 
L 123.141443 -154.682951 
L 124.460981 -156.652557 
L 125.78052 -158.624356 
L 127.100059 -160.593431 
L 128.419598 -162.559104 
L 129.739137 -164.527543 
L 131.058676 -166.485608 
L 132.378215 -168.448334 
L 133.697753 -170.400921 
L 135.017292 -172.353136 
L 136.336831 -174.300887 
L 137.65637 -176.237729 
L 138.975909 -178.174626 
L 140.295448 -180.096438 
L 141.614987 -182.015212 
L 142.934526 -183.921499 
L 144.254064 -185.813265 
L 145.573603 -187.695994 
L 146.893142 -189.556528 
L 148.212681 -191.403764 
L 149.53222 -193.227875 
L 150.851759 -195.026476 
L 151.676471 -196.138941 
L 152.171298 -196.800515 
L 153.490837 -198.539984 
L 154.810375 -200.246477 
L 156.129914 -201.912561 
L 157.449453 -203.533459 
L 158.768992 -205.10499 
L 160.088531 -206.621798 
L 161.40807 -208.076249 
L 162.727609 -209.465139 
L 164.047148 -210.781272 
L 165.366686 -212.01696 
L 166.686225 -213.172138 
L 168.005764 -214.233705 
L 169.325303 -215.203142 
L 170.644842 -216.074142 
L 171.964381 -216.840475 
L 173.28392 -217.505595 
L 174.603458 -218.060778 
L 175.922997 -218.509628 
L 177.242536 -218.851205 
L 178.562075 -219.085063 
L 179.881614 -219.214634 
L 181.201153 -219.241811 
L 182.520692 -219.168968 
L 183.840231 -219.000733 
L 184.5 -218.882481 
L 185.159769 -218.741521 
L 186.479308 -218.293111 
L 187.798847 -217.311599 
L 189.118386 -216.292758 
L 190.437925 -215.236987 
L 191.757464 -214.148061 
L 193.077003 -213.027581 
L 194.396542 -211.853957 
L 195.71608 -210.431452 
L 197.035619 -208.975589 
L 198.355158 -207.483971 
L 199.674697 -205.957168 
L 200.994236 -204.394983 
L 202.313775 -202.791498 
L 203.633314 -201.148488 
L 204.952852 -199.456417 
L 206.272391 -197.711719 
L 207.59193 -195.908456 
L 208.911469 -194.030578 
L 210.231008 -192.072392 
L 211.550547 -190.008903 
L 212.870086 -187.820591 
L 214.189625 -185.441799 
L 215.509163 -182.795284 
L 216.828702 -179.868187 
L 217.323529 -178.681218 
L 218.148241 -176.573969 
L 219.46778 -172.791073 
L 220.787319 -168.347131 
L 222.106858 -163.003694 
L 223.426397 -156.580256 
L 224.745936 -149.044991 
L 226.065474 -141.152453 
L 227.385013 -133.713798 
L 228.704552 -127.309093 
L 230.024091 -122.448592 
L 231.34363 -118.75973 
L 232.663169 -112.884357 
L 233.982708 -108.518235 
L 235.302247 -105.833292 
L 236.621785 -103.408119 
L 237.941324 -101.03485 
L 239.260863 -98.696398 
L 240.580402 -96.385812 
L 241.899941 -94.101438 
L 243.21948 -91.83957 
L 244.539019 -88.709936 
L 245.858557 -85.296111 
L 247.178096 -82.1399 
L 248.497635 -79.430971 
L 249.817174 -76.94275 
L 250.147059 -76.359958 
L 251.136713 -74.633772 
L 252.456252 -72.390909 
L 253.775791 -70.205499 
L 255.09533 -68.032921 
L 256.414868 -65.897387 
L 257.734407 -63.764424 
L 259.053946 -61.647424 
L 260.373485 -59.541689 
L 261.693024 -57.4351 
L 263.012563 -55.348827 
L 264.332102 -53.257198 
L 265.651641 -51.17751 
L 266.971179 -49.104242 
L 268.290718 -47.127273 
L 269.610257 -47.127273 
L 270.929796 -47.127273 
L 272.249335 -47.127273 
L 273.568874 -47.127273 
L 274.888413 -47.127273 
L 276.207952 -47.127273 
L 277.52749 -47.127273 
L 278.847029 -47.127273 
L 280.166568 -47.127273 
L 281.486107 -47.127273 
L 282.805646 -47.127273 
L 282.970588 -47.127273 
L 284.125185 -47.127273 
L 285.444724 -47.127273 
L 286.764262 -47.127273 
L 288.083801 -47.127273 
L 289.40334 -47.127273 
L 290.722879 -47.127273 
L 292.042418 -47.127273 
L 293.361957 -47.127273 
L 294.681496 -47.127273 
L 296.001035 -47.127273 
L 297.320573 -47.127273 
L 298.640112 -47.127273 
L 299.959651 -47.127273 
L 301.27919 -47.127273 
L 302.598729 -47.127273 
L 303.918268 -47.127273 
L 305.237807 -47.127273 
L 306.557346 -47.127273 
L 307.876884 -47.127273 
L 309.196423 -47.127273 
L 310.515962 -47.127273 
L 311.835501 -47.127273 
L 313.15504 -47.127273 
L 314.474579 -47.127273 
L 315.794118 -47.127273 
L 315.794118 -47.127273 
L 315.794118 -47.127273 
L 314.474579 -47.127273 
L 313.15504 -47.127273 
L 311.835501 -47.127273 
L 310.515962 -47.127273 
L 309.196423 -47.127273 
L 307.876884 -47.127273 
L 306.557346 -47.127273 
L 305.237807 -47.127273 
L 303.918268 -47.127273 
L 302.598729 -47.127273 
L 301.27919 -47.127273 
L 299.959651 -47.127273 
L 298.640112 -47.127273 
L 297.320573 -47.127273 
L 296.001035 -47.127273 
L 294.681496 -47.127273 
L 293.361957 -48.730064 
L 292.042418 -50.76927 
L 290.722879 -52.810663 
L 289.40334 -54.861501 
L 288.083801 -56.904408 
L 286.764262 -58.962395 
L 285.444724 -61.017315 
L 284.125185 -63.076907 
L 282.970588 -64.888762 
L 282.805646 -65.147216 
L 281.486107 -67.211067 
L 280.166568 -69.292785 
L 278.847029 -71.372548 
L 277.52749 -73.460551 
L 276.207952 -75.561532 
L 274.888413 -77.656928 
L 273.568874 -79.766353 
L 272.249335 -81.880643 
L 270.929796 -84.020069 
L 269.610257 -86.158932 
L 268.290718 -88.307002 
L 266.971179 -90.467137 
L 265.651641 -92.661835 
L 264.332102 -94.865408 
L 263.012563 -97.078791 
L 261.693024 -99.314617 
L 260.373485 -101.579293 
L 259.053946 -103.882202 
L 257.734407 -106.237965 
L 256.414868 -108.667621 
L 255.09533 -111.210022 
L 253.775791 -113.931346 
L 252.456252 -116.94045 
L 251.136713 -120.408234 
L 250.147059 -125.109659 
L 249.817174 -127.062362 
L 248.497635 -135.272134 
L 247.178096 -144.389147 
L 245.858557 -153.425265 
L 244.539019 -161.48037 
L 243.21948 -167.999928 
L 241.899941 -173.16066 
L 240.580402 -177.345166 
L 239.260863 -180.862405 
L 237.941324 -183.904997 
L 236.621785 -186.600544 
L 235.302247 -189.030109 
L 233.982708 -191.259283 
L 232.663169 -193.32644 
L 231.34363 -195.262718 
L 230.024091 -197.09462 
L 228.704552 -198.83501 
L 227.385013 -200.502768 
L 226.065474 -202.105574 
L 224.745936 -203.652239 
L 223.426397 -205.151888 
L 222.106858 -206.606458 
L 220.787319 -208.023979 
L 219.46778 -209.405599 
L 218.148241 -210.754275 
L 217.323529 -211.582303 
L 216.828702 -212.073447 
L 215.509163 -213.36246 
L 214.189625 -214.624451 
L 212.870086 -215.858777 
L 211.550547 -217.06577 
L 210.231008 -218.519128 
L 208.911469 -220.016075 
L 207.59193 -221.478408 
L 206.272391 -222.90973 
L 204.952852 -224.307785 
L 203.633314 -225.674889 
L 202.313775 -227.009873 
L 200.994236 -228.312038 
L 199.674697 -229.581762 
L 198.355158 -230.818194 
L 197.035619 -232.020211 
L 195.71608 -233.185374 
L 194.396542 -234.312135 
L 193.077003 -235.396384 
L 191.757464 -236.436424 
L 190.437925 -237.429924 
L 189.118386 -238.367029 
L 187.798847 -239.247488 
L 186.479308 -240.063268 
L 185.159769 -240.814435 
L 184.5 -241.161907 
L 183.840231 -241.490098 
L 182.520692 -242.090492 
L 181.201153 -242.603784 
L 179.881614 -243.029765 
L 178.562075 -243.357482 
L 177.242536 -243.585787 
L 175.922997 -243.706736 
L 174.603458 -243.718506 
L 173.28392 -243.618696 
L 171.964381 -243.502094 
L 170.644842 -243.474068 
L 169.325303 -243.328487 
L 168.005764 -243.061449 
L 166.686225 -242.670429 
L 165.366686 -242.14874 
L 164.047148 -241.699872 
L 162.727609 -241.309054 
L 161.40807 -240.847334 
L 160.088531 -240.246404 
L 158.768992 -239.499594 
L 157.449453 -238.619376 
L 156.129914 -237.599921 
L 154.810375 -236.450296 
L 153.490837 -235.180736 
L 152.171298 -233.788763 
L 151.676471 -233.239494 
L 150.851759 -232.291779 
L 149.53222 -230.694656 
L 148.212681 -229.011321 
L 146.893142 -227.246618 
L 145.573603 -225.410057 
L 144.254064 -223.511289 
L 142.934526 -221.554394 
L 141.614987 -219.549301 
L 140.295448 -217.506433 
L 138.975909 -215.427455 
L 137.65637 -213.313408 
L 136.336831 -211.168472 
L 135.017292 -209.010786 
L 133.697753 -206.832318 
L 132.378215 -204.635312 
L 131.058676 -202.415183 
L 129.739137 -200.195806 
L 128.419598 -197.965493 
L 127.100059 -195.726143 
L 125.78052 -193.467329 
L 124.460981 -191.215444 
L 123.141443 -188.958965 
L 121.821904 -186.698418 
L 120.502365 -184.420187 
L 119.182826 -182.151271 
L 118.852941 -181.584587 
L 117.863287 -179.881865 
L 116.543748 -177.610821 
L 115.224209 -175.322983 
L 113.90467 -173.045148 
L 112.585132 -170.769486 
L 111.265593 -168.493236 
L 109.946054 -166.20066 
L 108.626515 -163.91823 
L 107.306976 -161.639614 
L 105.987437 -159.360694 
L 104.667898 -157.06572 
L 103.348359 -154.781146 
L 102.028821 -152.501182 
L 100.709282 -150.220694 
L 99.389743 -147.924395 
L 98.070204 -145.639228 
L 96.750665 -143.358709 
L 95.431126 -141.076924 
L 94.111587 -138.779791 
L 92.792048 -136.495141 
L 91.47251 -134.214542 
L 90.152971 -131.931118 
L 88.833432 -129.633491 
L 87.513893 -127.350168 
L 86.194354 -125.069952 
L 86.029412 -124.785605 
L 84.874815 -122.784031 
L 83.555276 -120.486429 
L 82.235738 -118.204842 
L 80.916199 -115.925547 
L 79.59666 -113.635997 
L 78.277121 -111.339316 
L 76.957582 -109.059431 
L 75.638043 -106.801013 
L 74.318504 -104.554244 
L 72.998965 -102.314594 
L 71.679427 -100.08447 
L 70.359888 -97.850369 
L 69.040349 -95.603571 
L 67.72081 -93.371577 
L 66.401271 -91.147089 
L 65.081732 -88.909453 
L 63.762193 -86.659548 
L 62.442654 -84.402732 
L 61.123116 -82.05597 
L 59.803577 -79.449345 
L 58.484038 -76.360766 
L 57.164499 -72.158691 
L 55.84496 -65.438862 
L 54.525421 -51.956899 
L 53.205882 -47.127273 
z
" style="stroke: #000000; stroke-opacity: 0.2"/>
    </defs>
    <g clip-path="url(#p391e74dbea)">
     <use xlink:href="#m1b040f7f11" x="0" y="360" style="fill-opacity: 0.2; stroke: #000000; stroke-opacity: 0.2"/>
    </g>
   </g>
   <g id="PathCollection_1">
    <defs>
     <path id="m6def7a95a6" d="M 0 7.071068 
C 1.875269 7.071068 3.673985 6.326016 5 5 
C 6.326016 3.673985 7.071068 1.875269 7.071068 0 
C 7.071068 -1.875269 6.326016 -3.673985 5 -5 
C 3.673985 -6.326016 1.875269 -7.071068 0 -7.071068 
C -1.875269 -7.071068 -3.673985 -6.326016 -5 -5 
C -6.326016 -3.673985 -7.071068 -1.875269 -7.071068 0 
C -7.071068 1.875269 -6.326016 3.673985 -5 5 
C -3.673985 6.326016 -1.875269 7.071068 0 7.071068 
z
" style="stroke: #000000; stroke-opacity: 0.8"/>
    </defs>
    <g clip-path="url(#p391e74dbea)">
     <use xlink:href="#m6def7a95a6" x="53.205882" y="312.872727" style="fill-opacity: 0.8; stroke: #000000; stroke-opacity: 0.8"/>
     <use xlink:href="#m6def7a95a6" x="86.029412" y="225.932727" style="fill-opacity: 0.8; stroke: #000000; stroke-opacity: 0.8"/>
     <use xlink:href="#m6def7a95a6" x="118.852941" y="162.703636" style="fill-opacity: 0.8; stroke: #000000; stroke-opacity: 0.8"/>
     <use xlink:href="#m6def7a95a6" x="151.676471" y="228.567273" style="fill-opacity: 0.8; stroke: #000000; stroke-opacity: 0.8"/>
     <use xlink:href="#m6def7a95a6" x="184.5" y="49.418182" style="fill-opacity: 0.8; stroke: #000000; stroke-opacity: 0.8"/>
     <use xlink:href="#m6def7a95a6" x="217.323529" y="183.78" style="fill-opacity: 0.8; stroke: #000000; stroke-opacity: 0.8"/>
     <use xlink:href="#m6def7a95a6" x="250.147059" y="275.989091" style="fill-opacity: 0.8; stroke: #000000; stroke-opacity: 0.8"/>
     <use xlink:href="#m6def7a95a6" x="282.970588" y="312.872727" style="fill-opacity: 0.8; stroke: #000000; stroke-opacity: 0.8"/>
    </g>
   </g>
   <g id="line2d_11">
    <path d="M 53.205882 312.872727 
L 54.525421 312.872727 
L 57.164499 298.631656 
L 58.484038 294.282526 
L 59.803577 291.145917 
L 61.123116 288.577393 
L 63.762193 284.114335 
L 128.419598 181.049571 
L 140.295448 162.499508 
L 146.893142 152.609836 
L 151.676471 145.864664 
L 154.810375 141.75621 
L 157.449453 138.555749 
L 160.088531 135.649319 
L 162.727609 133.094583 
L 165.366686 130.944532 
L 168.005764 129.237659 
L 170.644842 128.004132 
L 171.964381 127.571007 
L 173.28392 127.257435 
L 174.603458 127.065342 
L 175.922997 126.990829 
L 178.562075 127.180063 
L 181.201153 127.792619 
L 183.840231 128.788539 
L 185.159769 129.415112 
L 187.798847 130.902204 
L 190.437925 132.66624 
L 193.077003 134.669023 
L 195.71608 136.878384 
L 199.674697 140.526207 
L 203.633314 144.521658 
L 207.59193 148.838219 
L 211.550547 153.493474 
L 215.509163 158.573533 
L 218.148241 162.293837 
L 220.787319 166.404993 
L 223.426397 171.105556 
L 224.745936 173.782974 
L 226.065474 176.765354 
L 227.385013 180.160735 
L 228.704552 184.112911 
L 230.024091 188.790252 
L 231.34363 194.39877 
L 232.663169 201.008122 
L 235.302247 215.304421 
L 236.621785 221.819809 
L 237.941324 227.662945 
L 239.260863 232.54792 
L 240.580402 236.70296 
L 241.899941 240.337528 
L 244.539019 246.379939 
L 247.178096 251.59445 
L 251.136713 258.766524 
L 256.414868 267.826981 
L 264.332102 280.86465 
L 273.568874 295.608999 
L 284.125185 312.097958 
L 285.444724 312.872727 
L 315.794118 312.872727 
L 315.794118 312.872727 
" clip-path="url(#p391e74dbea)" style="fill: none; stroke: #000000; stroke-width: 3; stroke-linecap: square"/>
   </g>
  </g>
  <g id="text_13">
   <!-- Individual 4 -->
   <g transform="translate(29.0835 29.532375) scale(0.312 -0.312)">
    <defs>
     <path id="ArialMT-49" d="M 597 0 
L 597 4581 
L 1203 4581 
L 1203 0 
L 597 0 
z
" transform="scale(0.015625)"/>
     <path id="ArialMT-6e" d="M 422 0 
L 422 3319 
L 928 3319 
L 928 2847 
Q 1294 3394 1984 3394 
Q 2284 3394 2536 3286 
Q 2788 3178 2913 3003 
Q 3038 2828 3088 2588 
Q 3119 2431 3119 2041 
L 3119 0 
L 2556 0 
L 2556 2019 
Q 2556 2363 2490 2533 
Q 2425 2703 2258 2804 
Q 2091 2906 1866 2906 
Q 1506 2906 1245 2678 
Q 984 2450 984 1813 
L 984 0 
L 422 0 
z
" transform="scale(0.015625)"/>
     <path id="ArialMT-76" d="M 1344 0 
L 81 3319 
L 675 3319 
L 1388 1331 
Q 1503 1009 1600 663 
Q 1675 925 1809 1294 
L 2547 3319 
L 3125 3319 
L 1869 0 
L 1344 0 
z
" transform="scale(0.015625)"/>
     <path id="ArialMT-61" d="M 2588 409 
Q 2275 144 1986 34 
Q 1697 -75 1366 -75 
Q 819 -75 525 192 
Q 231 459 231 875 
Q 231 1119 342 1320 
Q 453 1522 633 1644 
Q 813 1766 1038 1828 
Q 1203 1872 1538 1913 
Q 2219 1994 2541 2106 
Q 2544 2222 2544 2253 
Q 2544 2597 2384 2738 
Q 2169 2928 1744 2928 
Q 1347 2928 1158 2789 
Q 969 2650 878 2297 
L 328 2372 
Q 403 2725 575 2942 
Q 747 3159 1072 3276 
Q 1397 3394 1825 3394 
Q 2250 3394 2515 3294 
Q 2781 3194 2906 3042 
Q 3031 2891 3081 2659 
Q 3109 2516 3109 2141 
L 3109 1391 
Q 3109 606 3145 398 
Q 3181 191 3288 0 
L 2700 0 
Q 2613 175 2588 409 
z
M 2541 1666 
Q 2234 1541 1622 1453 
Q 1275 1403 1131 1340 
Q 988 1278 909 1158 
Q 831 1038 831 891 
Q 831 666 1001 516 
Q 1172 366 1500 366 
Q 1825 366 2078 508 
Q 2331 650 2450 897 
Q 2541 1088 2541 1459 
L 2541 1666 
z
" transform="scale(0.015625)"/>
     <path id="ArialMT-6c" d="M 409 0 
L 409 4581 
L 972 4581 
L 972 0 
L 409 0 
z
" transform="scale(0.015625)"/>
     <path id="ArialMT-34" d="M 2069 0 
L 2069 1097 
L 81 1097 
L 81 1613 
L 2172 4581 
L 2631 4581 
L 2631 1613 
L 3250 1613 
L 3250 1097 
L 2631 1097 
L 2631 0 
L 2069 0 
z
M 2069 1613 
L 2069 3678 
L 634 1613 
L 2069 1613 
z
" transform="scale(0.015625)"/>
    </defs>
    <use xlink:href="#ArialMT-49"/>
    <use xlink:href="#ArialMT-6e" transform="translate(27.783203 0)"/>
    <use xlink:href="#ArialMT-64" transform="translate(83.398438 0)"/>
    <use xlink:href="#ArialMT-69" transform="translate(139.013672 0)"/>
    <use xlink:href="#ArialMT-76" transform="translate(161.230469 0)"/>
    <use xlink:href="#ArialMT-69" transform="translate(211.230469 0)"/>
    <use xlink:href="#ArialMT-64" transform="translate(233.447266 0)"/>
    <use xlink:href="#ArialMT-75" transform="translate(289.0625 0)"/>
    <use xlink:href="#ArialMT-61" transform="translate(344.677734 0)"/>
    <use xlink:href="#ArialMT-6c" transform="translate(400.292969 0)"/>
    <use xlink:href="#ArialMT-20" transform="translate(422.509766 0)"/>
    <use xlink:href="#ArialMT-34" transform="translate(450.292969 0)"/>
   </g>
  </g>
 </g>
 <defs>
  <clipPath id="p391e74dbea">
   <rect x="45" y="72" width="279" height="248.4"/>
  </clipPath>
 </defs>
</svg>
