<?xml version="1.0" encoding="utf-8" standalone="no"?>
<!DOCTYPE svg PUBLIC "-//W3C//DTD SVG 1.1//EN"
  "http://www.w3.org/Graphics/SVG/1.1/DTD/svg11.dtd">
<svg xmlns:xlink="http://www.w3.org/1999/xlink" width="360pt" height="360pt" viewBox="0 0 360 360" xmlns="http://www.w3.org/2000/svg" version="1.1">
 <metadata>
  <rdf:RDF xmlns:dc="http://purl.org/dc/elements/1.1/" xmlns:cc="http://creativecommons.org/ns#" xmlns:rdf="http://www.w3.org/1999/02/22-rdf-syntax-ns#">
   <cc:Work>
    <dc:type rdf:resource="http://purl.org/dc/dcmitype/StillImage"/>
    <dc:date>2025-02-18T19:39:36.419348</dc:date>
    <dc:format>image/svg+xml</dc:format>
    <dc:creator>
     <cc:Agent>
      <dc:title>Matplotlib v3.10.0, https://matplotlib.org/</dc:title>
     </cc:Agent>
    </dc:creator>
   </cc:Work>
  </rdf:RDF>
 </metadata>
 <defs>
  <style type="text/css">*{stroke-linejoin: round; stroke-linecap: butt}</style>
 </defs>
 <g id="figure_1">
  <g id="patch_1">
   <path d="M 0 360 
L 360 360 
L 360 0 
L 0 0 
L 0 360 
z
" style="fill: none"/>
  </g>
  <g id="axes_1">
   <g id="patch_2">
    <path d="M 45 320.4 
L 324 320.4 
L 324 72 
L 45 72 
L 45 320.4 
z
" style="fill: none"/>
   </g>
   <g id="matplotlib.axis_1">
    <g id="xtick_1">
     <g id="line2d_1">
      <defs>
       <path id="m505bbe8fa3" d="M 0 0 
L 0 3.5 
" style="stroke: #000000; stroke-width: 0.8"/>
      </defs>
      <g>
       <use xlink:href="#m505bbe8fa3" x="53.205882" y="320.4" style="stroke: #000000; stroke-width: 0.8"/>
      </g>
     </g>
     <g id="text_1">
      <!-- 0 -->
      <g transform="translate(43.280382 351.107125) scale(0.312 -0.312)">
       <defs>
        <path id="DejaVuSans-30" d="M 2034 4250 
Q 1547 4250 1301 3770 
Q 1056 3291 1056 2328 
Q 1056 1369 1301 889 
Q 1547 409 2034 409 
Q 2525 409 2770 889 
Q 3016 1369 3016 2328 
Q 3016 3291 2770 3770 
Q 2525 4250 2034 4250 
z
M 2034 4750 
Q 2819 4750 3233 4129 
Q 3647 3509 3647 2328 
Q 3647 1150 3233 529 
Q 2819 -91 2034 -91 
Q 1250 -91 836 529 
Q 422 1150 422 2328 
Q 422 3509 836 4129 
Q 1250 4750 2034 4750 
z
" transform="scale(0.015625)"/>
       </defs>
       <use xlink:href="#DejaVuSans-30"/>
      </g>
     </g>
    </g>
    <g id="xtick_2">
     <g id="line2d_2">
      <g>
       <use xlink:href="#m505bbe8fa3" x="118.852941" y="320.4" style="stroke: #000000; stroke-width: 0.8"/>
      </g>
     </g>
     <g id="text_2">
      <!-- 2 -->
      <g transform="translate(108.927441 351.107125) scale(0.312 -0.312)">
       <defs>
        <path id="DejaVuSans-32" d="M 1228 531 
L 3431 531 
L 3431 0 
L 469 0 
L 469 531 
Q 828 903 1448 1529 
Q 2069 2156 2228 2338 
Q 2531 2678 2651 2914 
Q 2772 3150 2772 3378 
Q 2772 3750 2511 3984 
Q 2250 4219 1831 4219 
Q 1534 4219 1204 4116 
Q 875 4013 500 3803 
L 500 4441 
Q 881 4594 1212 4672 
Q 1544 4750 1819 4750 
Q 2544 4750 2975 4387 
Q 3406 4025 3406 3419 
Q 3406 3131 3298 2873 
Q 3191 2616 2906 2266 
Q 2828 2175 2409 1742 
Q 1991 1309 1228 531 
z
" transform="scale(0.015625)"/>
       </defs>
       <use xlink:href="#DejaVuSans-32"/>
      </g>
     </g>
    </g>
    <g id="xtick_3">
     <g id="line2d_3">
      <g>
       <use xlink:href="#m505bbe8fa3" x="184.5" y="320.4" style="stroke: #000000; stroke-width: 0.8"/>
      </g>
     </g>
     <g id="text_3">
      <!-- 4 -->
      <g transform="translate(174.5745 351.107125) scale(0.312 -0.312)">
       <defs>
        <path id="DejaVuSans-34" d="M 2419 4116 
L 825 1625 
L 2419 1625 
L 2419 4116 
z
M 2253 4666 
L 3047 4666 
L 3047 1625 
L 3713 1625 
L 3713 1100 
L 3047 1100 
L 3047 0 
L 2419 0 
L 2419 1100 
L 313 1100 
L 313 1709 
L 2253 4666 
z
" transform="scale(0.015625)"/>
       </defs>
       <use xlink:href="#DejaVuSans-34"/>
      </g>
     </g>
    </g>
    <g id="xtick_4">
     <g id="line2d_4">
      <g>
       <use xlink:href="#m505bbe8fa3" x="250.147059" y="320.4" style="stroke: #000000; stroke-width: 0.8"/>
      </g>
     </g>
     <g id="text_4">
      <!-- 6 -->
      <g transform="translate(240.221559 351.107125) scale(0.312 -0.312)">
       <defs>
        <path id="DejaVuSans-36" d="M 2113 2584 
Q 1688 2584 1439 2293 
Q 1191 2003 1191 1497 
Q 1191 994 1439 701 
Q 1688 409 2113 409 
Q 2538 409 2786 701 
Q 3034 994 3034 1497 
Q 3034 2003 2786 2293 
Q 2538 2584 2113 2584 
z
M 3366 4563 
L 3366 3988 
Q 3128 4100 2886 4159 
Q 2644 4219 2406 4219 
Q 1781 4219 1451 3797 
Q 1122 3375 1075 2522 
Q 1259 2794 1537 2939 
Q 1816 3084 2150 3084 
Q 2853 3084 3261 2657 
Q 3669 2231 3669 1497 
Q 3669 778 3244 343 
Q 2819 -91 2113 -91 
Q 1303 -91 875 529 
Q 447 1150 447 2328 
Q 447 3434 972 4092 
Q 1497 4750 2381 4750 
Q 2619 4750 2861 4703 
Q 3103 4656 3366 4563 
z
" transform="scale(0.015625)"/>
       </defs>
       <use xlink:href="#DejaVuSans-36"/>
      </g>
     </g>
    </g>
    <g id="xtick_5">
     <g id="line2d_5">
      <g>
       <use xlink:href="#m505bbe8fa3" x="315.794118" y="320.4" style="stroke: #000000; stroke-width: 0.8"/>
      </g>
     </g>
     <g id="text_5">
      <!-- 8 -->
      <g transform="translate(305.868618 351.107125) scale(0.312 -0.312)">
       <defs>
        <path id="DejaVuSans-38" d="M 2034 2216 
Q 1584 2216 1326 1975 
Q 1069 1734 1069 1313 
Q 1069 891 1326 650 
Q 1584 409 2034 409 
Q 2484 409 2743 651 
Q 3003 894 3003 1313 
Q 3003 1734 2745 1975 
Q 2488 2216 2034 2216 
z
M 1403 2484 
Q 997 2584 770 2862 
Q 544 3141 544 3541 
Q 544 4100 942 4425 
Q 1341 4750 2034 4750 
Q 2731 4750 3128 4425 
Q 3525 4100 3525 3541 
Q 3525 3141 3298 2862 
Q 3072 2584 2669 2484 
Q 3125 2378 3379 2068 
Q 3634 1759 3634 1313 
Q 3634 634 3220 271 
Q 2806 -91 2034 -91 
Q 1263 -91 848 271 
Q 434 634 434 1313 
Q 434 1759 690 2068 
Q 947 2378 1403 2484 
z
M 1172 3481 
Q 1172 3119 1398 2916 
Q 1625 2713 2034 2713 
Q 2441 2713 2670 2916 
Q 2900 3119 2900 3481 
Q 2900 3844 2670 4047 
Q 2441 4250 2034 4250 
Q 1625 4250 1398 4047 
Q 1172 3844 1172 3481 
z
" transform="scale(0.015625)"/>
       </defs>
       <use xlink:href="#DejaVuSans-38"/>
      </g>
     </g>
    </g>
    <g id="text_6">
     <!-- Time (d) -->
     <g transform="translate(131.813437 382.415656) scale(0.286 -0.286)">
      <defs>
       <path id="ArialMT-54" d="M 1659 0 
L 1659 4041 
L 150 4041 
L 150 4581 
L 3781 4581 
L 3781 4041 
L 2266 4041 
L 2266 0 
L 1659 0 
z
" transform="scale(0.015625)"/>
       <path id="ArialMT-69" d="M 425 3934 
L 425 4581 
L 988 4581 
L 988 3934 
L 425 3934 
z
M 425 0 
L 425 3319 
L 988 3319 
L 988 0 
L 425 0 
z
" transform="scale(0.015625)"/>
       <path id="ArialMT-6d" d="M 422 0 
L 422 3319 
L 925 3319 
L 925 2853 
Q 1081 3097 1340 3245 
Q 1600 3394 1931 3394 
Q 2300 3394 2536 3241 
Q 2772 3088 2869 2813 
Q 3263 3394 3894 3394 
Q 4388 3394 4653 3120 
Q 4919 2847 4919 2278 
L 4919 0 
L 4359 0 
L 4359 2091 
Q 4359 2428 4304 2576 
Q 4250 2725 4106 2815 
Q 3963 2906 3769 2906 
Q 3419 2906 3187 2673 
Q 2956 2441 2956 1928 
L 2956 0 
L 2394 0 
L 2394 2156 
Q 2394 2531 2256 2718 
Q 2119 2906 1806 2906 
Q 1569 2906 1367 2781 
Q 1166 2656 1075 2415 
Q 984 2175 984 1722 
L 984 0 
L 422 0 
z
" transform="scale(0.015625)"/>
       <path id="ArialMT-65" d="M 2694 1069 
L 3275 997 
Q 3138 488 2766 206 
Q 2394 -75 1816 -75 
Q 1088 -75 661 373 
Q 234 822 234 1631 
Q 234 2469 665 2931 
Q 1097 3394 1784 3394 
Q 2450 3394 2872 2941 
Q 3294 2488 3294 1666 
Q 3294 1616 3291 1516 
L 816 1516 
Q 847 969 1125 678 
Q 1403 388 1819 388 
Q 2128 388 2347 550 
Q 2566 713 2694 1069 
z
M 847 1978 
L 2700 1978 
Q 2663 2397 2488 2606 
Q 2219 2931 1791 2931 
Q 1403 2931 1139 2672 
Q 875 2413 847 1978 
z
" transform="scale(0.015625)"/>
       <path id="ArialMT-20" transform="scale(0.015625)"/>
       <path id="ArialMT-28" d="M 1497 -1347 
Q 1031 -759 709 28 
Q 388 816 388 1659 
Q 388 2403 628 3084 
Q 909 3875 1497 4659 
L 1900 4659 
Q 1522 4009 1400 3731 
Q 1209 3300 1100 2831 
Q 966 2247 966 1656 
Q 966 153 1900 -1347 
L 1497 -1347 
z
" transform="scale(0.015625)"/>
       <path id="ArialMT-64" d="M 2575 0 
L 2575 419 
Q 2259 -75 1647 -75 
Q 1250 -75 917 144 
Q 584 363 401 755 
Q 219 1147 219 1656 
Q 219 2153 384 2558 
Q 550 2963 881 3178 
Q 1213 3394 1622 3394 
Q 1922 3394 2156 3267 
Q 2391 3141 2538 2938 
L 2538 4581 
L 3097 4581 
L 3097 0 
L 2575 0 
z
M 797 1656 
Q 797 1019 1065 703 
Q 1334 388 1700 388 
Q 2069 388 2326 689 
Q 2584 991 2584 1609 
Q 2584 2291 2321 2609 
Q 2059 2928 1675 2928 
Q 1300 2928 1048 2622 
Q 797 2316 797 1656 
z
" transform="scale(0.015625)"/>
       <path id="ArialMT-29" d="M 791 -1347 
L 388 -1347 
Q 1322 153 1322 1656 
Q 1322 2244 1188 2822 
Q 1081 3291 891 3722 
Q 769 4003 388 4659 
L 791 4659 
Q 1378 3875 1659 3084 
Q 1900 2403 1900 1659 
Q 1900 816 1576 28 
Q 1253 -759 791 -1347 
z
" transform="scale(0.015625)"/>
      </defs>
      <use xlink:href="#ArialMT-54"/>
      <use xlink:href="#ArialMT-69" transform="translate(57.333984 0)"/>
      <use xlink:href="#ArialMT-6d" transform="translate(79.550781 0)"/>
      <use xlink:href="#ArialMT-65" transform="translate(162.851562 0)"/>
      <use xlink:href="#ArialMT-20" transform="translate(218.466797 0)"/>
      <use xlink:href="#ArialMT-28" transform="translate(246.25 0)"/>
      <use xlink:href="#ArialMT-64" transform="translate(279.550781 0)"/>
      <use xlink:href="#ArialMT-29" transform="translate(335.166016 0)"/>
     </g>
    </g>
   </g>
   <g id="matplotlib.axis_2">
    <g id="ytick_1">
     <g id="line2d_6">
      <defs>
       <path id="m11c7cb0afc" d="M 0 0 
L -3.5 0 
" style="stroke: #000000; stroke-width: 0.8"/>
      </defs>
      <g>
       <use xlink:href="#m11c7cb0afc" x="45" y="312.872727" style="stroke: #000000; stroke-width: 0.8"/>
      </g>
     </g>
     <g id="text_7">
      <!-- 0 -->
      <g transform="translate(18.149 324.72629) scale(0.312 -0.312)">
       <use xlink:href="#DejaVuSans-30"/>
      </g>
     </g>
    </g>
    <g id="ytick_2">
     <g id="line2d_7">
      <g>
       <use xlink:href="#m11c7cb0afc" x="45" y="252.654545" style="stroke: #000000; stroke-width: 0.8"/>
      </g>
     </g>
     <g id="text_8">
      <!-- 2 -->
      <g transform="translate(18.149 264.508108) scale(0.312 -0.312)">
       <use xlink:href="#DejaVuSans-32"/>
      </g>
     </g>
    </g>
    <g id="ytick_3">
     <g id="line2d_8">
      <g>
       <use xlink:href="#m11c7cb0afc" x="45" y="192.436364" style="stroke: #000000; stroke-width: 0.8"/>
      </g>
     </g>
     <g id="text_9">
      <!-- 4 -->
      <g transform="translate(18.149 204.289926) scale(0.312 -0.312)">
       <use xlink:href="#DejaVuSans-34"/>
      </g>
     </g>
    </g>
    <g id="ytick_4">
     <g id="line2d_9">
      <g>
       <use xlink:href="#m11c7cb0afc" x="45" y="132.218182" style="stroke: #000000; stroke-width: 0.8"/>
      </g>
     </g>
     <g id="text_10">
      <!-- 6 -->
      <g transform="translate(18.149 144.071744) scale(0.312 -0.312)">
       <use xlink:href="#DejaVuSans-36"/>
      </g>
     </g>
    </g>
    <g id="ytick_5">
     <g id="line2d_10">
      <g>
       <use xlink:href="#m11c7cb0afc" x="45" y="72" style="stroke: #000000; stroke-width: 0.8"/>
      </g>
     </g>
     <g id="text_11">
      <!-- 8 -->
      <g transform="translate(18.149 83.853563) scale(0.312 -0.312)">
       <use xlink:href="#DejaVuSans-38"/>
      </g>
     </g>
    </g>
    <g id="text_12">
     <!-- Log$_{10}$ Virus (copies/mL) -->
     <g transform="translate(7.857 348.638) rotate(-90) scale(0.286 -0.286)">
      <defs>
       <path id="ArialMT-4c" d="M 469 0 
L 469 4581 
L 1075 4581 
L 1075 541 
L 3331 541 
L 3331 0 
L 469 0 
z
" transform="scale(0.015625)"/>
       <path id="ArialMT-6f" d="M 213 1659 
Q 213 2581 725 3025 
Q 1153 3394 1769 3394 
Q 2453 3394 2887 2945 
Q 3322 2497 3322 1706 
Q 3322 1066 3130 698 
Q 2938 331 2570 128 
Q 2203 -75 1769 -75 
Q 1072 -75 642 372 
Q 213 819 213 1659 
z
M 791 1659 
Q 791 1022 1069 705 
Q 1347 388 1769 388 
Q 2188 388 2466 706 
Q 2744 1025 2744 1678 
Q 2744 2294 2464 2611 
Q 2184 2928 1769 2928 
Q 1347 2928 1069 2612 
Q 791 2297 791 1659 
z
" transform="scale(0.015625)"/>
       <path id="ArialMT-67" d="M 319 -275 
L 866 -356 
Q 900 -609 1056 -725 
Q 1266 -881 1628 -881 
Q 2019 -881 2231 -725 
Q 2444 -569 2519 -288 
Q 2563 -116 2559 434 
Q 2191 0 1641 0 
Q 956 0 581 494 
Q 206 988 206 1678 
Q 206 2153 378 2554 
Q 550 2956 876 3175 
Q 1203 3394 1644 3394 
Q 2231 3394 2613 2919 
L 2613 3319 
L 3131 3319 
L 3131 450 
Q 3131 -325 2973 -648 
Q 2816 -972 2473 -1159 
Q 2131 -1347 1631 -1347 
Q 1038 -1347 672 -1080 
Q 306 -813 319 -275 
z
M 784 1719 
Q 784 1066 1043 766 
Q 1303 466 1694 466 
Q 2081 466 2343 764 
Q 2606 1063 2606 1700 
Q 2606 2309 2336 2618 
Q 2066 2928 1684 2928 
Q 1309 2928 1046 2623 
Q 784 2319 784 1719 
z
" transform="scale(0.015625)"/>
       <path id="DejaVuSans-31" d="M 794 531 
L 1825 531 
L 1825 4091 
L 703 3866 
L 703 4441 
L 1819 4666 
L 2450 4666 
L 2450 531 
L 3481 531 
L 3481 0 
L 794 0 
L 794 531 
z
" transform="scale(0.015625)"/>
       <path id="ArialMT-56" d="M 1803 0 
L 28 4581 
L 684 4581 
L 1875 1253 
Q 2019 853 2116 503 
Q 2222 878 2363 1253 
L 3600 4581 
L 4219 4581 
L 2425 0 
L 1803 0 
z
" transform="scale(0.015625)"/>
       <path id="ArialMT-72" d="M 416 0 
L 416 3319 
L 922 3319 
L 922 2816 
Q 1116 3169 1280 3281 
Q 1444 3394 1641 3394 
Q 1925 3394 2219 3213 
L 2025 2691 
Q 1819 2813 1613 2813 
Q 1428 2813 1281 2702 
Q 1134 2591 1072 2394 
Q 978 2094 978 1738 
L 978 0 
L 416 0 
z
" transform="scale(0.015625)"/>
       <path id="ArialMT-75" d="M 2597 0 
L 2597 488 
Q 2209 -75 1544 -75 
Q 1250 -75 995 37 
Q 741 150 617 320 
Q 494 491 444 738 
Q 409 903 409 1263 
L 409 3319 
L 972 3319 
L 972 1478 
Q 972 1038 1006 884 
Q 1059 663 1231 536 
Q 1403 409 1656 409 
Q 1909 409 2131 539 
Q 2353 669 2445 892 
Q 2538 1116 2538 1541 
L 2538 3319 
L 3100 3319 
L 3100 0 
L 2597 0 
z
" transform="scale(0.015625)"/>
       <path id="ArialMT-73" d="M 197 991 
L 753 1078 
Q 800 744 1014 566 
Q 1228 388 1613 388 
Q 2000 388 2187 545 
Q 2375 703 2375 916 
Q 2375 1106 2209 1216 
Q 2094 1291 1634 1406 
Q 1016 1563 777 1677 
Q 538 1791 414 1992 
Q 291 2194 291 2438 
Q 291 2659 392 2848 
Q 494 3038 669 3163 
Q 800 3259 1026 3326 
Q 1253 3394 1513 3394 
Q 1903 3394 2198 3281 
Q 2494 3169 2634 2976 
Q 2775 2784 2828 2463 
L 2278 2388 
Q 2241 2644 2061 2787 
Q 1881 2931 1553 2931 
Q 1166 2931 1000 2803 
Q 834 2675 834 2503 
Q 834 2394 903 2306 
Q 972 2216 1119 2156 
Q 1203 2125 1616 2013 
Q 2213 1853 2448 1751 
Q 2684 1650 2818 1456 
Q 2953 1263 2953 975 
Q 2953 694 2789 445 
Q 2625 197 2315 61 
Q 2006 -75 1616 -75 
Q 969 -75 630 194 
Q 291 463 197 991 
z
" transform="scale(0.015625)"/>
       <path id="ArialMT-63" d="M 2588 1216 
L 3141 1144 
Q 3050 572 2676 248 
Q 2303 -75 1759 -75 
Q 1078 -75 664 370 
Q 250 816 250 1647 
Q 250 2184 428 2587 
Q 606 2991 970 3192 
Q 1334 3394 1763 3394 
Q 2303 3394 2647 3120 
Q 2991 2847 3088 2344 
L 2541 2259 
Q 2463 2594 2264 2762 
Q 2066 2931 1784 2931 
Q 1359 2931 1093 2626 
Q 828 2322 828 1663 
Q 828 994 1084 691 
Q 1341 388 1753 388 
Q 2084 388 2306 591 
Q 2528 794 2588 1216 
z
" transform="scale(0.015625)"/>
       <path id="ArialMT-70" d="M 422 -1272 
L 422 3319 
L 934 3319 
L 934 2888 
Q 1116 3141 1344 3267 
Q 1572 3394 1897 3394 
Q 2322 3394 2647 3175 
Q 2972 2956 3137 2557 
Q 3303 2159 3303 1684 
Q 3303 1175 3120 767 
Q 2938 359 2589 142 
Q 2241 -75 1856 -75 
Q 1575 -75 1351 44 
Q 1128 163 984 344 
L 984 -1272 
L 422 -1272 
z
M 931 1641 
Q 931 1000 1190 694 
Q 1450 388 1819 388 
Q 2194 388 2461 705 
Q 2728 1022 2728 1688 
Q 2728 2322 2467 2637 
Q 2206 2953 1844 2953 
Q 1484 2953 1207 2617 
Q 931 2281 931 1641 
z
" transform="scale(0.015625)"/>
       <path id="ArialMT-2f" d="M 0 -78 
L 1328 4659 
L 1778 4659 
L 453 -78 
L 0 -78 
z
" transform="scale(0.015625)"/>
      </defs>
      <use xlink:href="#ArialMT-4c" transform="translate(0 0.203125)"/>
      <use xlink:href="#ArialMT-6f" transform="translate(55.615234 0.203125)"/>
      <use xlink:href="#ArialMT-67" transform="translate(111.230469 0.203125)"/>
      <use xlink:href="#DejaVuSans-31" transform="translate(167.802734 -16.203125) scale(0.7)"/>
      <use xlink:href="#DejaVuSans-30" transform="translate(212.338867 -16.203125) scale(0.7)"/>
      <use xlink:href="#ArialMT-20" transform="translate(259.609375 0.203125)"/>
      <use xlink:href="#ArialMT-56" transform="translate(287.392578 0.203125)"/>
      <use xlink:href="#ArialMT-69" transform="translate(354.091797 0.203125)"/>
      <use xlink:href="#ArialMT-72" transform="translate(376.308594 0.203125)"/>
      <use xlink:href="#ArialMT-75" transform="translate(409.609375 0.203125)"/>
      <use xlink:href="#ArialMT-73" transform="translate(465.224609 0.203125)"/>
      <use xlink:href="#ArialMT-20" transform="translate(515.224609 0.203125)"/>
      <use xlink:href="#ArialMT-28" transform="translate(543.007812 0.203125)"/>
      <use xlink:href="#ArialMT-63" transform="translate(576.308594 0.203125)"/>
      <use xlink:href="#ArialMT-6f" transform="translate(626.308594 0.203125)"/>
      <use xlink:href="#ArialMT-70" transform="translate(681.923828 0.203125)"/>
      <use xlink:href="#ArialMT-69" transform="translate(737.539062 0.203125)"/>
      <use xlink:href="#ArialMT-65" transform="translate(759.755859 0.203125)"/>
      <use xlink:href="#ArialMT-73" transform="translate(815.371094 0.203125)"/>
      <use xlink:href="#ArialMT-2f" transform="translate(865.371094 0.203125)"/>
      <use xlink:href="#ArialMT-6d" transform="translate(893.154297 0.203125)"/>
      <use xlink:href="#ArialMT-4c" transform="translate(976.455078 0.203125)"/>
      <use xlink:href="#ArialMT-29" transform="translate(1032.070312 0.203125)"/>
     </g>
    </g>
   </g>
   <g id="patch_3">
    <path d="M 45 320.4 
L 45 72 
" style="fill: none; stroke: #000000; stroke-width: 3; stroke-linejoin: miter; stroke-linecap: square"/>
   </g>
   <g id="patch_4">
    <path d="M 324 320.4 
L 324 72 
" style="fill: none; stroke: #000000; stroke-width: 3; stroke-linejoin: miter; stroke-linecap: square"/>
   </g>
   <g id="patch_5">
    <path d="M 45 320.4 
L 324 320.4 
" style="fill: none; stroke: #000000; stroke-width: 3; stroke-linejoin: miter; stroke-linecap: square"/>
   </g>
   <g id="patch_6">
    <path d="M 45 72 
L 324 72 
" style="fill: none; stroke: #000000; stroke-width: 3; stroke-linejoin: miter; stroke-linecap: square"/>
   </g>
   <g id="FillBetweenPolyCollection_1">
    <defs>
     <path id="m4954203b43" d="M 53.205882 -47.127273 
L 53.205882 -47.127273 
L 54.525421 -47.127273 
L 55.84496 -47.127273 
L 57.164499 -47.127273 
L 58.484038 -47.127273 
L 59.803577 -47.127273 
L 61.123116 -47.127273 
L 62.442654 -47.127273 
L 63.762193 -56.936272 
L 65.081732 -66.793177 
L 66.401271 -76.647127 
L 67.72081 -86.446928 
L 69.040349 -96.314542 
L 70.359888 -106.12171 
L 71.679427 -115.848953 
L 72.998965 -125.519083 
L 74.318504 -134.978176 
L 75.638043 -144.023392 
L 76.957582 -152.367161 
L 78.277121 -159.570002 
L 79.59666 -165.297005 
L 80.916199 -169.460492 
L 82.235738 -172.32008 
L 83.555276 -174.243137 
L 84.874815 -175.544229 
L 86.029412 -176.334415 
L 86.194354 -176.426482 
L 87.513893 -177.012569 
L 88.833432 -177.379554 
L 90.152971 -177.578922 
L 91.47251 -177.646685 
L 92.792048 -177.608936 
L 94.111587 -177.485204 
L 95.431126 -177.290459 
L 96.750665 -177.036414 
L 98.070204 -176.73241 
L 99.389743 -176.387033 
L 100.709282 -176.004648 
L 102.028821 -175.590763 
L 103.348359 -175.15031 
L 104.667898 -174.68583 
L 105.987437 -174.201606 
L 107.306976 -173.699665 
L 108.626515 -173.181392 
L 109.946054 -172.649536 
L 111.265593 -172.105697 
L 112.585132 -171.551227 
L 113.90467 -170.987301 
L 115.224209 -170.415154 
L 116.543748 -169.835515 
L 117.863287 -169.249344 
L 118.852941 -168.805803 
L 119.182826 -168.65727 
L 120.502365 -168.059948 
L 121.821904 -167.45792 
L 123.141443 -166.851665 
L 124.460981 -166.241626 
L 125.78052 -165.628083 
L 127.100059 -165.011361 
L 128.419598 -164.391886 
L 129.739137 -163.769608 
L 131.058676 -163.145058 
L 132.378215 -162.518155 
L 133.697753 -161.889097 
L 135.017292 -161.258235 
L 136.336831 -160.625251 
L 137.65637 -159.990682 
L 138.975909 -159.35425 
L 140.295448 -158.716099 
L 141.614987 -158.076521 
L 142.934526 -157.435066 
L 144.254064 -156.792276 
L 145.573603 -156.147753 
L 146.893142 -155.50163 
L 148.212681 -154.854153 
L 149.53222 -154.204806 
L 150.851759 -153.554139 
L 151.676471 -153.146577 
L 152.171298 -152.901674 
L 153.490837 -152.247553 
L 154.810375 -151.59198 
L 156.129914 -150.934411 
L 157.449453 -150.2754 
L 158.768992 -149.614405 
L 160.088531 -148.95159 
L 161.40807 -148.287115 
L 162.727609 -147.620419 
L 164.047148 -146.952059 
L 165.366686 -146.281434 
L 166.686225 -145.608729 
L 168.005764 -144.934053 
L 169.325303 -144.256835 
L 170.644842 -143.577624 
L 171.964381 -142.895759 
L 173.28392 -142.211442 
L 174.603458 -141.524722 
L 175.922997 -140.835012 
L 177.242536 -140.142848 
L 178.562075 -139.447497 
L 179.881614 -138.749172 
L 181.201153 -138.04785 
L 182.520692 -137.342918 
L 183.840231 -136.634888 
L 184.5 -136.279419 
L 185.159769 -135.922943 
L 186.479308 -135.207294 
L 187.798847 -134.487829 
L 189.118386 -133.763897 
L 190.437925 -133.035969 
L 191.757464 -132.303123 
L 193.077003 -131.565553 
L 194.396542 -130.823031 
L 195.71608 -130.07485 
L 197.035619 -129.321414 
L 198.355158 -128.561667 
L 199.674697 -127.795758 
L 200.994236 -127.023309 
L 202.313775 -126.243519 
L 203.633314 -125.456689 
L 204.952852 -124.661578 
L 206.272391 -123.858253 
L 207.59193 -123.04612 
L 208.911469 -122.224231 
L 210.231008 -121.392722 
L 211.550547 -120.550084 
L 212.870086 -119.69623 
L 214.189625 -118.83025 
L 215.509163 -117.950949 
L 216.828702 -117.058195 
L 217.323529 -116.719492 
L 218.148241 -116.150067 
L 219.46778 -115.226199 
L 220.787319 -114.28519 
L 222.106858 -113.325427 
L 223.426397 -112.346311 
L 224.745936 -111.345271 
L 226.065474 -110.321422 
L 227.385013 -109.272575 
L 228.704552 -108.196377 
L 230.024091 -107.09142 
L 231.34363 -105.954059 
L 232.663169 -104.782462 
L 233.982708 -103.57315 
L 235.302247 -102.322493 
L 236.621785 -101.027686 
L 237.941324 -99.683396 
L 239.260863 -98.286189 
L 240.580402 -96.830653 
L 241.899941 -95.31128 
L 243.21948 -93.723341 
L 244.539019 -92.05947 
L 245.858557 -90.314638 
L 247.178096 -88.481778 
L 248.497635 -86.554529 
L 249.817174 -84.528493 
L 250.147059 -84.005501 
L 251.136713 -82.396126 
L 252.456252 -80.156848 
L 253.775791 -77.805601 
L 255.09533 -75.342291 
L 256.414868 -72.775366 
L 257.734407 -70.096627 
L 259.053946 -67.329983 
L 260.373485 -64.470068 
L 261.693024 -61.527765 
L 263.012563 -58.536722 
L 264.332102 -55.457131 
L 265.651641 -52.337506 
L 266.971179 -49.211783 
L 268.290718 -47.127273 
L 269.610257 -47.127273 
L 270.929796 -47.127273 
L 272.249335 -47.127273 
L 273.568874 -47.127273 
L 274.888413 -47.127273 
L 276.207952 -47.127273 
L 277.52749 -47.127273 
L 278.847029 -47.127273 
L 280.166568 -47.127273 
L 281.486107 -47.127273 
L 282.805646 -47.127273 
L 282.970588 -47.127273 
L 284.125185 -47.127273 
L 285.444724 -47.127273 
L 286.764262 -47.127273 
L 288.083801 -47.127273 
L 289.40334 -47.127273 
L 290.722879 -47.127273 
L 292.042418 -47.127273 
L 293.361957 -47.127273 
L 294.681496 -47.127273 
L 296.001035 -47.127273 
L 297.320573 -47.127273 
L 298.640112 -47.127273 
L 299.959651 -47.127273 
L 301.27919 -47.127273 
L 302.598729 -47.127273 
L 303.918268 -47.127273 
L 305.237807 -47.127273 
L 306.557346 -47.127273 
L 307.876884 -47.127273 
L 309.196423 -47.127273 
L 310.515962 -47.127273 
L 311.835501 -47.127273 
L 313.15504 -47.127273 
L 314.474579 -47.127273 
L 315.794118 -47.127273 
L 315.794118 -47.127273 
L 315.794118 -47.127273 
L 314.474579 -47.127273 
L 313.15504 -47.127273 
L 311.835501 -47.127273 
L 310.515962 -47.127273 
L 309.196423 -47.127273 
L 307.876884 -47.127273 
L 306.557346 -47.127273 
L 305.237807 -47.127273 
L 303.918268 -47.127273 
L 302.598729 -47.127273 
L 301.27919 -47.127273 
L 299.959651 -47.127273 
L 298.640112 -47.127273 
L 297.320573 -47.127273 
L 296.001035 -47.127273 
L 294.681496 -47.127273 
L 293.361957 -47.127273 
L 292.042418 -47.127273 
L 290.722879 -47.127273 
L 289.40334 -47.127273 
L 288.083801 -47.127273 
L 286.764262 -47.127273 
L 285.444724 -47.127273 
L 284.125185 -47.127273 
L 282.970588 -47.127273 
L 282.805646 -47.127273 
L 281.486107 -47.127273 
L 280.166568 -47.127273 
L 278.847029 -47.127273 
L 277.52749 -47.127273 
L 276.207952 -47.127273 
L 274.888413 -47.127273 
L 273.568874 -47.127273 
L 272.249335 -47.127273 
L 270.929796 -47.127273 
L 269.610257 -47.127273 
L 268.290718 -48.01547 
L 266.971179 -51.152725 
L 265.651641 -54.251008 
L 264.332102 -57.301527 
L 263.012563 -60.324464 
L 261.693024 -63.265397 
L 260.373485 -66.152446 
L 259.053946 -68.952818 
L 257.734407 -71.657201 
L 256.414868 -74.26955 
L 255.09533 -76.769883 
L 253.775791 -79.165683 
L 252.456252 -81.450553 
L 251.136713 -83.625786 
L 250.147059 -85.188707 
L 249.817174 -85.696629 
L 248.497635 -87.664729 
L 247.178096 -89.537666 
L 245.858557 -91.320061 
L 244.539019 -93.018314 
L 243.21948 -94.639283 
L 241.899941 -96.187866 
L 240.580402 -97.671166 
L 239.260863 -99.093653 
L 237.941324 -100.460614 
L 236.621785 -101.777159 
L 235.302247 -103.046522 
L 233.982708 -104.273793 
L 232.663169 -105.461568 
L 231.34363 -106.613327 
L 230.024091 -107.732335 
L 228.704552 -108.820312 
L 227.385013 -109.880746 
L 226.065474 -110.914921 
L 224.745936 -111.92512 
L 223.426397 -112.913388 
L 222.106858 -113.880561 
L 220.787319 -114.829116 
L 219.46778 -115.759577 
L 218.148241 -116.673532 
L 217.323529 -117.237035 
L 216.828702 -117.572282 
L 215.509163 -118.456181 
L 214.189625 -119.327083 
L 212.870086 -120.185082 
L 211.550547 -121.031363 
L 210.231008 -121.866768 
L 208.911469 -122.691384 
L 207.59193 -123.506677 
L 206.272391 -124.312487 
L 204.952852 -125.109762 
L 203.633314 -125.899045 
L 202.313775 -126.680278 
L 200.994236 -127.454669 
L 199.674697 -128.221903 
L 198.355158 -128.982786 
L 197.035619 -129.737657 
L 195.71608 -130.486379 
L 194.396542 -131.22998 
L 193.077003 -131.96805 
L 191.757464 -132.701304 
L 190.437925 -133.429935 
L 189.118386 -134.153767 
L 187.798847 -134.873696 
L 186.479308 -135.58925 
L 185.159769 -136.301086 
L 184.5 -136.655681 
L 183.840231 -137.009288 
L 182.520692 -137.713664 
L 181.201153 -138.415008 
L 179.881614 -139.115011 
L 178.562075 -139.811918 
L 177.242536 -140.506131 
L 175.922997 -141.197117 
L 174.603458 -141.885595 
L 173.28392 -142.571359 
L 171.964381 -143.25438 
L 170.644842 -143.935225 
L 169.325303 -144.613355 
L 168.005764 -145.289454 
L 166.686225 -145.963264 
L 165.366686 -146.634772 
L 164.047148 -147.304472 
L 162.727609 -147.971829 
L 161.40807 -148.637497 
L 160.088531 -149.301179 
L 158.768992 -149.96288 
L 157.449453 -150.623029 
L 156.129914 -151.281099 
L 154.810375 -151.93772 
L 153.490837 -152.592558 
L 152.171298 -153.245638 
L 151.676471 -153.490219 
L 150.851759 -153.897326 
L 149.53222 -154.547107 
L 148.212681 -155.195576 
L 146.893142 -155.842368 
L 145.573603 -156.487523 
L 144.254064 -157.131329 
L 142.934526 -157.773291 
L 141.614987 -158.41394 
L 140.295448 -159.052883 
L 138.975909 -159.69015 
L 137.65637 -160.325936 
L 136.336831 -160.959752 
L 135.017292 -161.592022 
L 133.697753 -162.222317 
L 132.378215 -162.850617 
L 131.058676 -163.476972 
L 129.739137 -164.100896 
L 128.419598 -164.722604 
L 127.100059 -165.341632 
L 125.78052 -165.957815 
L 124.460981 -166.570986 
L 123.141443 -167.180642 
L 121.821904 -167.78661 
L 120.502365 -168.388384 
L 119.182826 -168.985501 
L 118.852941 -169.133997 
L 117.863287 -169.577469 
L 116.543748 -170.163654 
L 115.224209 -170.743357 
L 113.90467 -171.315809 
L 112.585132 -171.880077 
L 111.265593 -172.435041 
L 109.946054 -172.979641 
L 108.626515 -173.512514 
L 107.306976 -174.031593 
L 105.987437 -174.535454 
L 104.667898 -175.02218 
L 103.348359 -175.488381 
L 102.028821 -175.932105 
L 100.709282 -176.34909 
L 99.389743 -176.735091 
L 98.070204 -177.086419 
L 96.750665 -177.396301 
L 95.431126 -177.657388 
L 94.111587 -177.86067 
L 92.792048 -177.994825 
L 91.47251 -178.060141 
L 90.152971 -178.034849 
L 88.833432 -177.889122 
L 87.513893 -177.591352 
L 86.194354 -177.097022 
L 86.029412 -177.018476 
L 84.874815 -176.340652 
L 83.555276 -175.220599 
L 82.235738 -173.569096 
L 80.916199 -171.109745 
L 79.59666 -167.456774 
L 78.277121 -162.270162 
L 76.957582 -155.464623 
L 75.638043 -147.324793 
L 74.318504 -138.274486 
L 72.998965 -128.711166 
L 71.679427 -118.916022 
L 70.359888 -108.962726 
L 69.040349 -98.964121 
L 67.72081 -88.909811 
L 66.401271 -78.882172 
L 65.081732 -68.813503 
L 63.762193 -58.740458 
L 62.442654 -48.719196 
L 61.123116 -47.127273 
L 59.803577 -47.127273 
L 58.484038 -47.127273 
L 57.164499 -47.127273 
L 55.84496 -47.127273 
L 54.525421 -47.127273 
L 53.205882 -47.127273 
z
" style="stroke: #000000; stroke-opacity: 0.2"/>
    </defs>
    <g clip-path="url(#pd66d532d1e)">
     <use xlink:href="#m4954203b43" x="0" y="360" style="fill-opacity: 0.2; stroke: #000000; stroke-opacity: 0.2"/>
    </g>
   </g>
   <g id="PathCollection_1">
    <defs>
     <path id="m62396453de" d="M 0 7.071068 
C 1.875269 7.071068 3.673985 6.326016 5 5 
C 6.326016 3.673985 7.071068 1.875269 7.071068 0 
C 7.071068 -1.875269 6.326016 -3.673985 5 -5 
C 3.673985 -6.326016 1.875269 -7.071068 0 -7.071068 
C -1.875269 -7.071068 -3.673985 -6.326016 -5 -5 
C -6.326016 -3.673985 -7.071068 -1.875269 -7.071068 0 
C -7.071068 1.875269 -6.326016 3.673985 -5 5 
C -3.673985 6.326016 -1.875269 7.071068 0 7.071068 
z
" style="stroke: #000000; stroke-opacity: 0.8"/>
    </defs>
    <g clip-path="url(#pd66d532d1e)">
     <use xlink:href="#m62396453de" x="53.205882" y="312.872727" style="fill-opacity: 0.8; stroke: #000000; stroke-opacity: 0.8"/>
     <use xlink:href="#m62396453de" x="86.029412" y="184.630303" style="fill-opacity: 0.8; stroke: #000000; stroke-opacity: 0.8"/>
     <use xlink:href="#m62396453de" x="118.852941" y="190.206061" style="fill-opacity: 0.8; stroke: #000000; stroke-opacity: 0.8"/>
     <use xlink:href="#m62396453de" x="151.676471" y="209.721212" style="fill-opacity: 0.8; stroke: #000000; stroke-opacity: 0.8"/>
     <use xlink:href="#m62396453de" x="184.5" y="223.660606" style="fill-opacity: 0.8; stroke: #000000; stroke-opacity: 0.8"/>
     <use xlink:href="#m62396453de" x="217.323529" y="237.6" style="fill-opacity: 0.8; stroke: #000000; stroke-opacity: 0.8"/>
     <use xlink:href="#m62396453de" x="250.147059" y="276.630303" style="fill-opacity: 0.8; stroke: #000000; stroke-opacity: 0.8"/>
     <use xlink:href="#m62396453de" x="282.970588" y="312.872727" style="fill-opacity: 0.8; stroke: #000000; stroke-opacity: 0.8"/>
    </g>
   </g>
   <g id="line2d_11">
    <path d="M 53.205882 312.872727 
L 61.123116 312.872727 
L 62.442654 312.443621 
L 74.318504 224.280016 
L 76.957582 206.9172 
L 78.277121 199.779967 
L 79.59666 194.147838 
L 80.916199 190.077924 
L 82.235738 187.293769 
L 83.555276 185.422532 
L 84.874815 184.155641 
L 86.194354 183.29672 
L 87.513893 182.727259 
L 88.833432 182.372411 
L 90.152971 182.182225 
L 92.792048 182.164616 
L 95.431126 182.490485 
L 98.070204 183.051581 
L 102.028821 184.1966 
L 105.987437 185.586259 
L 111.265593 187.680209 
L 119.182826 191.121469 
L 129.739137 196.001223 
L 148.212681 204.920294 
L 164.047148 212.801371 
L 177.242536 219.590964 
L 189.118386 225.949647 
L 198.355158 231.133277 
L 206.272391 235.817632 
L 212.870086 239.960115 
L 218.148241 243.48697 
L 223.426397 247.266828 
L 227.385013 250.318122 
L 231.34363 253.608841 
L 235.302247 257.205131 
L 239.260863 261.195661 
L 241.899941 264.131873 
L 244.539019 267.336915 
L 247.178096 270.858173 
L 250.147059 275.257118 
L 252.456252 279.034187 
L 255.09533 283.75256 
L 257.734407 288.89392 
L 260.373485 294.418325 
L 264.332102 303.313568 
L 268.290718 312.637269 
L 269.610257 312.872727 
L 315.794118 312.872727 
L 315.794118 312.872727 
" clip-path="url(#pd66d532d1e)" style="fill: none; stroke: #000000; stroke-width: 3; stroke-linecap: square"/>
   </g>
  </g>
  <g id="text_13">
   <!-- Individual 23 -->
   <g transform="translate(20.408438 29.532375) scale(0.312 -0.312)">
    <defs>
     <path id="ArialMT-49" d="M 597 0 
L 597 4581 
L 1203 4581 
L 1203 0 
L 597 0 
z
" transform="scale(0.015625)"/>
     <path id="ArialMT-6e" d="M 422 0 
L 422 3319 
L 928 3319 
L 928 2847 
Q 1294 3394 1984 3394 
Q 2284 3394 2536 3286 
Q 2788 3178 2913 3003 
Q 3038 2828 3088 2588 
Q 3119 2431 3119 2041 
L 3119 0 
L 2556 0 
L 2556 2019 
Q 2556 2363 2490 2533 
Q 2425 2703 2258 2804 
Q 2091 2906 1866 2906 
Q 1506 2906 1245 2678 
Q 984 2450 984 1813 
L 984 0 
L 422 0 
z
" transform="scale(0.015625)"/>
     <path id="ArialMT-76" d="M 1344 0 
L 81 3319 
L 675 3319 
L 1388 1331 
Q 1503 1009 1600 663 
Q 1675 925 1809 1294 
L 2547 3319 
L 3125 3319 
L 1869 0 
L 1344 0 
z
" transform="scale(0.015625)"/>
     <path id="ArialMT-61" d="M 2588 409 
Q 2275 144 1986 34 
Q 1697 -75 1366 -75 
Q 819 -75 525 192 
Q 231 459 231 875 
Q 231 1119 342 1320 
Q 453 1522 633 1644 
Q 813 1766 1038 1828 
Q 1203 1872 1538 1913 
Q 2219 1994 2541 2106 
Q 2544 2222 2544 2253 
Q 2544 2597 2384 2738 
Q 2169 2928 1744 2928 
Q 1347 2928 1158 2789 
Q 969 2650 878 2297 
L 328 2372 
Q 403 2725 575 2942 
Q 747 3159 1072 3276 
Q 1397 3394 1825 3394 
Q 2250 3394 2515 3294 
Q 2781 3194 2906 3042 
Q 3031 2891 3081 2659 
Q 3109 2516 3109 2141 
L 3109 1391 
Q 3109 606 3145 398 
Q 3181 191 3288 0 
L 2700 0 
Q 2613 175 2588 409 
z
M 2541 1666 
Q 2234 1541 1622 1453 
Q 1275 1403 1131 1340 
Q 988 1278 909 1158 
Q 831 1038 831 891 
Q 831 666 1001 516 
Q 1172 366 1500 366 
Q 1825 366 2078 508 
Q 2331 650 2450 897 
Q 2541 1088 2541 1459 
L 2541 1666 
z
" transform="scale(0.015625)"/>
     <path id="ArialMT-6c" d="M 409 0 
L 409 4581 
L 972 4581 
L 972 0 
L 409 0 
z
" transform="scale(0.015625)"/>
     <path id="ArialMT-32" d="M 3222 541 
L 3222 0 
L 194 0 
Q 188 203 259 391 
Q 375 700 629 1000 
Q 884 1300 1366 1694 
Q 2113 2306 2375 2664 
Q 2638 3022 2638 3341 
Q 2638 3675 2398 3904 
Q 2159 4134 1775 4134 
Q 1369 4134 1125 3890 
Q 881 3647 878 3216 
L 300 3275 
Q 359 3922 746 4261 
Q 1134 4600 1788 4600 
Q 2447 4600 2831 4234 
Q 3216 3869 3216 3328 
Q 3216 3053 3103 2787 
Q 2991 2522 2730 2228 
Q 2469 1934 1863 1422 
Q 1356 997 1212 845 
Q 1069 694 975 541 
L 3222 541 
z
" transform="scale(0.015625)"/>
     <path id="ArialMT-33" d="M 269 1209 
L 831 1284 
Q 928 806 1161 595 
Q 1394 384 1728 384 
Q 2125 384 2398 659 
Q 2672 934 2672 1341 
Q 2672 1728 2419 1979 
Q 2166 2231 1775 2231 
Q 1616 2231 1378 2169 
L 1441 2663 
Q 1497 2656 1531 2656 
Q 1891 2656 2178 2843 
Q 2466 3031 2466 3422 
Q 2466 3731 2256 3934 
Q 2047 4138 1716 4138 
Q 1388 4138 1169 3931 
Q 950 3725 888 3313 
L 325 3413 
Q 428 3978 793 4289 
Q 1159 4600 1703 4600 
Q 2078 4600 2393 4439 
Q 2709 4278 2876 4000 
Q 3044 3722 3044 3409 
Q 3044 3113 2884 2869 
Q 2725 2625 2413 2481 
Q 2819 2388 3044 2092 
Q 3269 1797 3269 1353 
Q 3269 753 2831 336 
Q 2394 -81 1725 -81 
Q 1122 -81 723 278 
Q 325 638 269 1209 
z
" transform="scale(0.015625)"/>
    </defs>
    <use xlink:href="#ArialMT-49"/>
    <use xlink:href="#ArialMT-6e" transform="translate(27.783203 0)"/>
    <use xlink:href="#ArialMT-64" transform="translate(83.398438 0)"/>
    <use xlink:href="#ArialMT-69" transform="translate(139.013672 0)"/>
    <use xlink:href="#ArialMT-76" transform="translate(161.230469 0)"/>
    <use xlink:href="#ArialMT-69" transform="translate(211.230469 0)"/>
    <use xlink:href="#ArialMT-64" transform="translate(233.447266 0)"/>
    <use xlink:href="#ArialMT-75" transform="translate(289.0625 0)"/>
    <use xlink:href="#ArialMT-61" transform="translate(344.677734 0)"/>
    <use xlink:href="#ArialMT-6c" transform="translate(400.292969 0)"/>
    <use xlink:href="#ArialMT-20" transform="translate(422.509766 0)"/>
    <use xlink:href="#ArialMT-32" transform="translate(450.292969 0)"/>
    <use xlink:href="#ArialMT-33" transform="translate(505.908203 0)"/>
   </g>
  </g>
 </g>
 <defs>
  <clipPath id="pd66d532d1e">
   <rect x="45" y="72" width="279" height="248.4"/>
  </clipPath>
 </defs>
</svg>
