<?xml version="1.0" encoding="utf-8" standalone="no"?>
<!DOCTYPE svg PUBLIC "-//W3C//DTD SVG 1.1//EN"
  "http://www.w3.org/Graphics/SVG/1.1/DTD/svg11.dtd">
<svg xmlns:xlink="http://www.w3.org/1999/xlink" width="360pt" height="360pt" viewBox="0 0 360 360" xmlns="http://www.w3.org/2000/svg" version="1.1">
 <metadata>
  <rdf:RDF xmlns:dc="http://purl.org/dc/elements/1.1/" xmlns:cc="http://creativecommons.org/ns#" xmlns:rdf="http://www.w3.org/1999/02/22-rdf-syntax-ns#">
   <cc:Work>
    <dc:type rdf:resource="http://purl.org/dc/dcmitype/StillImage"/>
    <dc:date>2025-02-18T19:39:35.067849</dc:date>
    <dc:format>image/svg+xml</dc:format>
    <dc:creator>
     <cc:Agent>
      <dc:title>Matplotlib v3.10.0, https://matplotlib.org/</dc:title>
     </cc:Agent>
    </dc:creator>
   </cc:Work>
  </rdf:RDF>
 </metadata>
 <defs>
  <style type="text/css">*{stroke-linejoin: round; stroke-linecap: butt}</style>
 </defs>
 <g id="figure_1">
  <g id="patch_1">
   <path d="M 0 360 
L 360 360 
L 360 0 
L 0 0 
L 0 360 
z
" style="fill: none"/>
  </g>
  <g id="axes_1">
   <g id="patch_2">
    <path d="M 45 320.4 
L 324 320.4 
L 324 72 
L 45 72 
L 45 320.4 
z
" style="fill: none"/>
   </g>
   <g id="matplotlib.axis_1">
    <g id="xtick_1">
     <g id="line2d_1">
      <defs>
       <path id="m35ec72d156" d="M 0 0 
L 0 3.5 
" style="stroke: #000000; stroke-width: 0.8"/>
      </defs>
      <g>
       <use xlink:href="#m35ec72d156" x="53.205882" y="320.4" style="stroke: #000000; stroke-width: 0.8"/>
      </g>
     </g>
     <g id="text_1">
      <!-- 0 -->
      <g transform="translate(43.280382 351.107125) scale(0.312 -0.312)">
       <defs>
        <path id="DejaVuSans-30" d="M 2034 4250 
Q 1547 4250 1301 3770 
Q 1056 3291 1056 2328 
Q 1056 1369 1301 889 
Q 1547 409 2034 409 
Q 2525 409 2770 889 
Q 3016 1369 3016 2328 
Q 3016 3291 2770 3770 
Q 2525 4250 2034 4250 
z
M 2034 4750 
Q 2819 4750 3233 4129 
Q 3647 3509 3647 2328 
Q 3647 1150 3233 529 
Q 2819 -91 2034 -91 
Q 1250 -91 836 529 
Q 422 1150 422 2328 
Q 422 3509 836 4129 
Q 1250 4750 2034 4750 
z
" transform="scale(0.015625)"/>
       </defs>
       <use xlink:href="#DejaVuSans-30"/>
      </g>
     </g>
    </g>
    <g id="xtick_2">
     <g id="line2d_2">
      <g>
       <use xlink:href="#m35ec72d156" x="118.852941" y="320.4" style="stroke: #000000; stroke-width: 0.8"/>
      </g>
     </g>
     <g id="text_2">
      <!-- 2 -->
      <g transform="translate(108.927441 351.107125) scale(0.312 -0.312)">
       <defs>
        <path id="DejaVuSans-32" d="M 1228 531 
L 3431 531 
L 3431 0 
L 469 0 
L 469 531 
Q 828 903 1448 1529 
Q 2069 2156 2228 2338 
Q 2531 2678 2651 2914 
Q 2772 3150 2772 3378 
Q 2772 3750 2511 3984 
Q 2250 4219 1831 4219 
Q 1534 4219 1204 4116 
Q 875 4013 500 3803 
L 500 4441 
Q 881 4594 1212 4672 
Q 1544 4750 1819 4750 
Q 2544 4750 2975 4387 
Q 3406 4025 3406 3419 
Q 3406 3131 3298 2873 
Q 3191 2616 2906 2266 
Q 2828 2175 2409 1742 
Q 1991 1309 1228 531 
z
" transform="scale(0.015625)"/>
       </defs>
       <use xlink:href="#DejaVuSans-32"/>
      </g>
     </g>
    </g>
    <g id="xtick_3">
     <g id="line2d_3">
      <g>
       <use xlink:href="#m35ec72d156" x="184.5" y="320.4" style="stroke: #000000; stroke-width: 0.8"/>
      </g>
     </g>
     <g id="text_3">
      <!-- 4 -->
      <g transform="translate(174.5745 351.107125) scale(0.312 -0.312)">
       <defs>
        <path id="DejaVuSans-34" d="M 2419 4116 
L 825 1625 
L 2419 1625 
L 2419 4116 
z
M 2253 4666 
L 3047 4666 
L 3047 1625 
L 3713 1625 
L 3713 1100 
L 3047 1100 
L 3047 0 
L 2419 0 
L 2419 1100 
L 313 1100 
L 313 1709 
L 2253 4666 
z
" transform="scale(0.015625)"/>
       </defs>
       <use xlink:href="#DejaVuSans-34"/>
      </g>
     </g>
    </g>
    <g id="xtick_4">
     <g id="line2d_4">
      <g>
       <use xlink:href="#m35ec72d156" x="250.147059" y="320.4" style="stroke: #000000; stroke-width: 0.8"/>
      </g>
     </g>
     <g id="text_4">
      <!-- 6 -->
      <g transform="translate(240.221559 351.107125) scale(0.312 -0.312)">
       <defs>
        <path id="DejaVuSans-36" d="M 2113 2584 
Q 1688 2584 1439 2293 
Q 1191 2003 1191 1497 
Q 1191 994 1439 701 
Q 1688 409 2113 409 
Q 2538 409 2786 701 
Q 3034 994 3034 1497 
Q 3034 2003 2786 2293 
Q 2538 2584 2113 2584 
z
M 3366 4563 
L 3366 3988 
Q 3128 4100 2886 4159 
Q 2644 4219 2406 4219 
Q 1781 4219 1451 3797 
Q 1122 3375 1075 2522 
Q 1259 2794 1537 2939 
Q 1816 3084 2150 3084 
Q 2853 3084 3261 2657 
Q 3669 2231 3669 1497 
Q 3669 778 3244 343 
Q 2819 -91 2113 -91 
Q 1303 -91 875 529 
Q 447 1150 447 2328 
Q 447 3434 972 4092 
Q 1497 4750 2381 4750 
Q 2619 4750 2861 4703 
Q 3103 4656 3366 4563 
z
" transform="scale(0.015625)"/>
       </defs>
       <use xlink:href="#DejaVuSans-36"/>
      </g>
     </g>
    </g>
    <g id="xtick_5">
     <g id="line2d_5">
      <g>
       <use xlink:href="#m35ec72d156" x="315.794118" y="320.4" style="stroke: #000000; stroke-width: 0.8"/>
      </g>
     </g>
     <g id="text_5">
      <!-- 8 -->
      <g transform="translate(305.868618 351.107125) scale(0.312 -0.312)">
       <defs>
        <path id="DejaVuSans-38" d="M 2034 2216 
Q 1584 2216 1326 1975 
Q 1069 1734 1069 1313 
Q 1069 891 1326 650 
Q 1584 409 2034 409 
Q 2484 409 2743 651 
Q 3003 894 3003 1313 
Q 3003 1734 2745 1975 
Q 2488 2216 2034 2216 
z
M 1403 2484 
Q 997 2584 770 2862 
Q 544 3141 544 3541 
Q 544 4100 942 4425 
Q 1341 4750 2034 4750 
Q 2731 4750 3128 4425 
Q 3525 4100 3525 3541 
Q 3525 3141 3298 2862 
Q 3072 2584 2669 2484 
Q 3125 2378 3379 2068 
Q 3634 1759 3634 1313 
Q 3634 634 3220 271 
Q 2806 -91 2034 -91 
Q 1263 -91 848 271 
Q 434 634 434 1313 
Q 434 1759 690 2068 
Q 947 2378 1403 2484 
z
M 1172 3481 
Q 1172 3119 1398 2916 
Q 1625 2713 2034 2713 
Q 2441 2713 2670 2916 
Q 2900 3119 2900 3481 
Q 2900 3844 2670 4047 
Q 2441 4250 2034 4250 
Q 1625 4250 1398 4047 
Q 1172 3844 1172 3481 
z
" transform="scale(0.015625)"/>
       </defs>
       <use xlink:href="#DejaVuSans-38"/>
      </g>
     </g>
    </g>
    <g id="text_6">
     <!-- Time (d) -->
     <g transform="translate(131.813437 382.415656) scale(0.286 -0.286)">
      <defs>
       <path id="ArialMT-54" d="M 1659 0 
L 1659 4041 
L 150 4041 
L 150 4581 
L 3781 4581 
L 3781 4041 
L 2266 4041 
L 2266 0 
L 1659 0 
z
" transform="scale(0.015625)"/>
       <path id="ArialMT-69" d="M 425 3934 
L 425 4581 
L 988 4581 
L 988 3934 
L 425 3934 
z
M 425 0 
L 425 3319 
L 988 3319 
L 988 0 
L 425 0 
z
" transform="scale(0.015625)"/>
       <path id="ArialMT-6d" d="M 422 0 
L 422 3319 
L 925 3319 
L 925 2853 
Q 1081 3097 1340 3245 
Q 1600 3394 1931 3394 
Q 2300 3394 2536 3241 
Q 2772 3088 2869 2813 
Q 3263 3394 3894 3394 
Q 4388 3394 4653 3120 
Q 4919 2847 4919 2278 
L 4919 0 
L 4359 0 
L 4359 2091 
Q 4359 2428 4304 2576 
Q 4250 2725 4106 2815 
Q 3963 2906 3769 2906 
Q 3419 2906 3187 2673 
Q 2956 2441 2956 1928 
L 2956 0 
L 2394 0 
L 2394 2156 
Q 2394 2531 2256 2718 
Q 2119 2906 1806 2906 
Q 1569 2906 1367 2781 
Q 1166 2656 1075 2415 
Q 984 2175 984 1722 
L 984 0 
L 422 0 
z
" transform="scale(0.015625)"/>
       <path id="ArialMT-65" d="M 2694 1069 
L 3275 997 
Q 3138 488 2766 206 
Q 2394 -75 1816 -75 
Q 1088 -75 661 373 
Q 234 822 234 1631 
Q 234 2469 665 2931 
Q 1097 3394 1784 3394 
Q 2450 3394 2872 2941 
Q 3294 2488 3294 1666 
Q 3294 1616 3291 1516 
L 816 1516 
Q 847 969 1125 678 
Q 1403 388 1819 388 
Q 2128 388 2347 550 
Q 2566 713 2694 1069 
z
M 847 1978 
L 2700 1978 
Q 2663 2397 2488 2606 
Q 2219 2931 1791 2931 
Q 1403 2931 1139 2672 
Q 875 2413 847 1978 
z
" transform="scale(0.015625)"/>
       <path id="ArialMT-20" transform="scale(0.015625)"/>
       <path id="ArialMT-28" d="M 1497 -1347 
Q 1031 -759 709 28 
Q 388 816 388 1659 
Q 388 2403 628 3084 
Q 909 3875 1497 4659 
L 1900 4659 
Q 1522 4009 1400 3731 
Q 1209 3300 1100 2831 
Q 966 2247 966 1656 
Q 966 153 1900 -1347 
L 1497 -1347 
z
" transform="scale(0.015625)"/>
       <path id="ArialMT-64" d="M 2575 0 
L 2575 419 
Q 2259 -75 1647 -75 
Q 1250 -75 917 144 
Q 584 363 401 755 
Q 219 1147 219 1656 
Q 219 2153 384 2558 
Q 550 2963 881 3178 
Q 1213 3394 1622 3394 
Q 1922 3394 2156 3267 
Q 2391 3141 2538 2938 
L 2538 4581 
L 3097 4581 
L 3097 0 
L 2575 0 
z
M 797 1656 
Q 797 1019 1065 703 
Q 1334 388 1700 388 
Q 2069 388 2326 689 
Q 2584 991 2584 1609 
Q 2584 2291 2321 2609 
Q 2059 2928 1675 2928 
Q 1300 2928 1048 2622 
Q 797 2316 797 1656 
z
" transform="scale(0.015625)"/>
       <path id="ArialMT-29" d="M 791 -1347 
L 388 -1347 
Q 1322 153 1322 1656 
Q 1322 2244 1188 2822 
Q 1081 3291 891 3722 
Q 769 4003 388 4659 
L 791 4659 
Q 1378 3875 1659 3084 
Q 1900 2403 1900 1659 
Q 1900 816 1576 28 
Q 1253 -759 791 -1347 
z
" transform="scale(0.015625)"/>
      </defs>
      <use xlink:href="#ArialMT-54"/>
      <use xlink:href="#ArialMT-69" transform="translate(57.333984 0)"/>
      <use xlink:href="#ArialMT-6d" transform="translate(79.550781 0)"/>
      <use xlink:href="#ArialMT-65" transform="translate(162.851562 0)"/>
      <use xlink:href="#ArialMT-20" transform="translate(218.466797 0)"/>
      <use xlink:href="#ArialMT-28" transform="translate(246.25 0)"/>
      <use xlink:href="#ArialMT-64" transform="translate(279.550781 0)"/>
      <use xlink:href="#ArialMT-29" transform="translate(335.166016 0)"/>
     </g>
    </g>
   </g>
   <g id="matplotlib.axis_2">
    <g id="ytick_1">
     <g id="line2d_6">
      <defs>
       <path id="mae76c5e1d2" d="M 0 0 
L -3.5 0 
" style="stroke: #000000; stroke-width: 0.8"/>
      </defs>
      <g>
       <use xlink:href="#mae76c5e1d2" x="45" y="312.872727" style="stroke: #000000; stroke-width: 0.8"/>
      </g>
     </g>
     <g id="text_7">
      <!-- 0 -->
      <g transform="translate(18.149 324.72629) scale(0.312 -0.312)">
       <use xlink:href="#DejaVuSans-30"/>
      </g>
     </g>
    </g>
    <g id="ytick_2">
     <g id="line2d_7">
      <g>
       <use xlink:href="#mae76c5e1d2" x="45" y="252.654545" style="stroke: #000000; stroke-width: 0.8"/>
      </g>
     </g>
     <g id="text_8">
      <!-- 2 -->
      <g transform="translate(18.149 264.508108) scale(0.312 -0.312)">
       <use xlink:href="#DejaVuSans-32"/>
      </g>
     </g>
    </g>
    <g id="ytick_3">
     <g id="line2d_8">
      <g>
       <use xlink:href="#mae76c5e1d2" x="45" y="192.436364" style="stroke: #000000; stroke-width: 0.8"/>
      </g>
     </g>
     <g id="text_9">
      <!-- 4 -->
      <g transform="translate(18.149 204.289926) scale(0.312 -0.312)">
       <use xlink:href="#DejaVuSans-34"/>
      </g>
     </g>
    </g>
    <g id="ytick_4">
     <g id="line2d_9">
      <g>
       <use xlink:href="#mae76c5e1d2" x="45" y="132.218182" style="stroke: #000000; stroke-width: 0.8"/>
      </g>
     </g>
     <g id="text_10">
      <!-- 6 -->
      <g transform="translate(18.149 144.071744) scale(0.312 -0.312)">
       <use xlink:href="#DejaVuSans-36"/>
      </g>
     </g>
    </g>
    <g id="ytick_5">
     <g id="line2d_10">
      <g>
       <use xlink:href="#mae76c5e1d2" x="45" y="72" style="stroke: #000000; stroke-width: 0.8"/>
      </g>
     </g>
     <g id="text_11">
      <!-- 8 -->
      <g transform="translate(18.149 83.853563) scale(0.312 -0.312)">
       <use xlink:href="#DejaVuSans-38"/>
      </g>
     </g>
    </g>
    <g id="text_12">
     <!-- Log$_{10}$ Virus (copies/mL) -->
     <g transform="translate(7.857 348.638) rotate(-90) scale(0.286 -0.286)">
      <defs>
       <path id="ArialMT-4c" d="M 469 0 
L 469 4581 
L 1075 4581 
L 1075 541 
L 3331 541 
L 3331 0 
L 469 0 
z
" transform="scale(0.015625)"/>
       <path id="ArialMT-6f" d="M 213 1659 
Q 213 2581 725 3025 
Q 1153 3394 1769 3394 
Q 2453 3394 2887 2945 
Q 3322 2497 3322 1706 
Q 3322 1066 3130 698 
Q 2938 331 2570 128 
Q 2203 -75 1769 -75 
Q 1072 -75 642 372 
Q 213 819 213 1659 
z
M 791 1659 
Q 791 1022 1069 705 
Q 1347 388 1769 388 
Q 2188 388 2466 706 
Q 2744 1025 2744 1678 
Q 2744 2294 2464 2611 
Q 2184 2928 1769 2928 
Q 1347 2928 1069 2612 
Q 791 2297 791 1659 
z
" transform="scale(0.015625)"/>
       <path id="ArialMT-67" d="M 319 -275 
L 866 -356 
Q 900 -609 1056 -725 
Q 1266 -881 1628 -881 
Q 2019 -881 2231 -725 
Q 2444 -569 2519 -288 
Q 2563 -116 2559 434 
Q 2191 0 1641 0 
Q 956 0 581 494 
Q 206 988 206 1678 
Q 206 2153 378 2554 
Q 550 2956 876 3175 
Q 1203 3394 1644 3394 
Q 2231 3394 2613 2919 
L 2613 3319 
L 3131 3319 
L 3131 450 
Q 3131 -325 2973 -648 
Q 2816 -972 2473 -1159 
Q 2131 -1347 1631 -1347 
Q 1038 -1347 672 -1080 
Q 306 -813 319 -275 
z
M 784 1719 
Q 784 1066 1043 766 
Q 1303 466 1694 466 
Q 2081 466 2343 764 
Q 2606 1063 2606 1700 
Q 2606 2309 2336 2618 
Q 2066 2928 1684 2928 
Q 1309 2928 1046 2623 
Q 784 2319 784 1719 
z
" transform="scale(0.015625)"/>
       <path id="DejaVuSans-31" d="M 794 531 
L 1825 531 
L 1825 4091 
L 703 3866 
L 703 4441 
L 1819 4666 
L 2450 4666 
L 2450 531 
L 3481 531 
L 3481 0 
L 794 0 
L 794 531 
z
" transform="scale(0.015625)"/>
       <path id="ArialMT-56" d="M 1803 0 
L 28 4581 
L 684 4581 
L 1875 1253 
Q 2019 853 2116 503 
Q 2222 878 2363 1253 
L 3600 4581 
L 4219 4581 
L 2425 0 
L 1803 0 
z
" transform="scale(0.015625)"/>
       <path id="ArialMT-72" d="M 416 0 
L 416 3319 
L 922 3319 
L 922 2816 
Q 1116 3169 1280 3281 
Q 1444 3394 1641 3394 
Q 1925 3394 2219 3213 
L 2025 2691 
Q 1819 2813 1613 2813 
Q 1428 2813 1281 2702 
Q 1134 2591 1072 2394 
Q 978 2094 978 1738 
L 978 0 
L 416 0 
z
" transform="scale(0.015625)"/>
       <path id="ArialMT-75" d="M 2597 0 
L 2597 488 
Q 2209 -75 1544 -75 
Q 1250 -75 995 37 
Q 741 150 617 320 
Q 494 491 444 738 
Q 409 903 409 1263 
L 409 3319 
L 972 3319 
L 972 1478 
Q 972 1038 1006 884 
Q 1059 663 1231 536 
Q 1403 409 1656 409 
Q 1909 409 2131 539 
Q 2353 669 2445 892 
Q 2538 1116 2538 1541 
L 2538 3319 
L 3100 3319 
L 3100 0 
L 2597 0 
z
" transform="scale(0.015625)"/>
       <path id="ArialMT-73" d="M 197 991 
L 753 1078 
Q 800 744 1014 566 
Q 1228 388 1613 388 
Q 2000 388 2187 545 
Q 2375 703 2375 916 
Q 2375 1106 2209 1216 
Q 2094 1291 1634 1406 
Q 1016 1563 777 1677 
Q 538 1791 414 1992 
Q 291 2194 291 2438 
Q 291 2659 392 2848 
Q 494 3038 669 3163 
Q 800 3259 1026 3326 
Q 1253 3394 1513 3394 
Q 1903 3394 2198 3281 
Q 2494 3169 2634 2976 
Q 2775 2784 2828 2463 
L 2278 2388 
Q 2241 2644 2061 2787 
Q 1881 2931 1553 2931 
Q 1166 2931 1000 2803 
Q 834 2675 834 2503 
Q 834 2394 903 2306 
Q 972 2216 1119 2156 
Q 1203 2125 1616 2013 
Q 2213 1853 2448 1751 
Q 2684 1650 2818 1456 
Q 2953 1263 2953 975 
Q 2953 694 2789 445 
Q 2625 197 2315 61 
Q 2006 -75 1616 -75 
Q 969 -75 630 194 
Q 291 463 197 991 
z
" transform="scale(0.015625)"/>
       <path id="ArialMT-63" d="M 2588 1216 
L 3141 1144 
Q 3050 572 2676 248 
Q 2303 -75 1759 -75 
Q 1078 -75 664 370 
Q 250 816 250 1647 
Q 250 2184 428 2587 
Q 606 2991 970 3192 
Q 1334 3394 1763 3394 
Q 2303 3394 2647 3120 
Q 2991 2847 3088 2344 
L 2541 2259 
Q 2463 2594 2264 2762 
Q 2066 2931 1784 2931 
Q 1359 2931 1093 2626 
Q 828 2322 828 1663 
Q 828 994 1084 691 
Q 1341 388 1753 388 
Q 2084 388 2306 591 
Q 2528 794 2588 1216 
z
" transform="scale(0.015625)"/>
       <path id="ArialMT-70" d="M 422 -1272 
L 422 3319 
L 934 3319 
L 934 2888 
Q 1116 3141 1344 3267 
Q 1572 3394 1897 3394 
Q 2322 3394 2647 3175 
Q 2972 2956 3137 2557 
Q 3303 2159 3303 1684 
Q 3303 1175 3120 767 
Q 2938 359 2589 142 
Q 2241 -75 1856 -75 
Q 1575 -75 1351 44 
Q 1128 163 984 344 
L 984 -1272 
L 422 -1272 
z
M 931 1641 
Q 931 1000 1190 694 
Q 1450 388 1819 388 
Q 2194 388 2461 705 
Q 2728 1022 2728 1688 
Q 2728 2322 2467 2637 
Q 2206 2953 1844 2953 
Q 1484 2953 1207 2617 
Q 931 2281 931 1641 
z
" transform="scale(0.015625)"/>
       <path id="ArialMT-2f" d="M 0 -78 
L 1328 4659 
L 1778 4659 
L 453 -78 
L 0 -78 
z
" transform="scale(0.015625)"/>
      </defs>
      <use xlink:href="#ArialMT-4c" transform="translate(0 0.203125)"/>
      <use xlink:href="#ArialMT-6f" transform="translate(55.615234 0.203125)"/>
      <use xlink:href="#ArialMT-67" transform="translate(111.230469 0.203125)"/>
      <use xlink:href="#DejaVuSans-31" transform="translate(167.802734 -16.203125) scale(0.7)"/>
      <use xlink:href="#DejaVuSans-30" transform="translate(212.338867 -16.203125) scale(0.7)"/>
      <use xlink:href="#ArialMT-20" transform="translate(259.609375 0.203125)"/>
      <use xlink:href="#ArialMT-56" transform="translate(287.392578 0.203125)"/>
      <use xlink:href="#ArialMT-69" transform="translate(354.091797 0.203125)"/>
      <use xlink:href="#ArialMT-72" transform="translate(376.308594 0.203125)"/>
      <use xlink:href="#ArialMT-75" transform="translate(409.609375 0.203125)"/>
      <use xlink:href="#ArialMT-73" transform="translate(465.224609 0.203125)"/>
      <use xlink:href="#ArialMT-20" transform="translate(515.224609 0.203125)"/>
      <use xlink:href="#ArialMT-28" transform="translate(543.007812 0.203125)"/>
      <use xlink:href="#ArialMT-63" transform="translate(576.308594 0.203125)"/>
      <use xlink:href="#ArialMT-6f" transform="translate(626.308594 0.203125)"/>
      <use xlink:href="#ArialMT-70" transform="translate(681.923828 0.203125)"/>
      <use xlink:href="#ArialMT-69" transform="translate(737.539062 0.203125)"/>
      <use xlink:href="#ArialMT-65" transform="translate(759.755859 0.203125)"/>
      <use xlink:href="#ArialMT-73" transform="translate(815.371094 0.203125)"/>
      <use xlink:href="#ArialMT-2f" transform="translate(865.371094 0.203125)"/>
      <use xlink:href="#ArialMT-6d" transform="translate(893.154297 0.203125)"/>
      <use xlink:href="#ArialMT-4c" transform="translate(976.455078 0.203125)"/>
      <use xlink:href="#ArialMT-29" transform="translate(1032.070312 0.203125)"/>
     </g>
    </g>
   </g>
   <g id="patch_3">
    <path d="M 45 320.4 
L 45 72 
" style="fill: none; stroke: #000000; stroke-width: 3; stroke-linejoin: miter; stroke-linecap: square"/>
   </g>
   <g id="patch_4">
    <path d="M 324 320.4 
L 324 72 
" style="fill: none; stroke: #000000; stroke-width: 3; stroke-linejoin: miter; stroke-linecap: square"/>
   </g>
   <g id="patch_5">
    <path d="M 45 320.4 
L 324 320.4 
" style="fill: none; stroke: #000000; stroke-width: 3; stroke-linejoin: miter; stroke-linecap: square"/>
   </g>
   <g id="patch_6">
    <path d="M 45 72 
L 324 72 
" style="fill: none; stroke: #000000; stroke-width: 3; stroke-linejoin: miter; stroke-linecap: square"/>
   </g>
   <g id="FillBetweenPolyCollection_1">
    <defs>
     <path id="m1c7149768a" d="M 53.205882 -47.127273 
L 53.205882 -47.127273 
L 54.525421 -47.127273 
L 55.84496 -47.127273 
L 57.164499 -47.127273 
L 58.484038 -47.127273 
L 59.803577 -47.127273 
L 61.123116 -47.127273 
L 62.442654 -47.127273 
L 63.762193 -47.127273 
L 65.081732 -47.127273 
L 66.401271 -47.127273 
L 67.72081 -48.442896 
L 69.040349 -50.813658 
L 70.359888 -53.192705 
L 71.679427 -55.584018 
L 72.998965 -57.95694 
L 74.318504 -60.326031 
L 75.638043 -62.705779 
L 76.957582 -65.093395 
L 78.277121 -67.462788 
L 79.59666 -69.8309 
L 80.916199 -72.214098 
L 82.235738 -74.599471 
L 83.555276 -76.967794 
L 84.874815 -79.33577 
L 86.029412 -81.419449 
L 86.194354 -81.717529 
L 87.513893 -84.092752 
L 88.833432 -86.462362 
L 90.152971 -88.832249 
L 91.47251 -91.21561 
L 92.792048 -93.585706 
L 94.111587 -95.956515 
L 95.431126 -98.331188 
L 96.750665 -100.719172 
L 98.070204 -103.089754 
L 99.389743 -105.459948 
L 100.709282 -107.833836 
L 102.028821 -110.220993 
L 103.348359 -112.590665 
L 104.667898 -114.959653 
L 105.987437 -117.332114 
L 107.306976 -119.717523 
L 108.626515 -122.085202 
L 109.946054 -124.451762 
L 111.265593 -126.821349 
L 112.585132 -129.203136 
L 113.90467 -131.566661 
L 115.224209 -133.928276 
L 116.543748 -136.291902 
L 117.863287 -138.666226 
L 118.852941 -140.433791 
L 119.182826 -141.021223 
L 120.502365 -143.372726 
L 121.821904 -145.724004 
L 123.141443 -148.08307 
L 124.460981 -150.420687 
L 125.78052 -152.75158 
L 127.100059 -155.077559 
L 128.419598 -157.405696 
L 129.739137 -159.708217 
L 131.058676 -161.997524 
L 132.378215 -164.272725 
L 133.697753 -166.539312 
L 135.017292 -168.772338 
L 136.336831 -170.979647 
L 137.65637 -173.156618 
L 138.975909 -175.305205 
L 140.295448 -177.405989 
L 141.614987 -179.459071 
L 142.934526 -181.457459 
L 144.254064 -183.39531 
L 145.573603 -185.262237 
L 146.893142 -187.050599 
L 148.212681 -188.753699 
L 149.53222 -190.358429 
L 150.851759 -191.860447 
L 151.676471 -192.747084 
L 152.171298 -193.256889 
L 153.490837 -194.536237 
L 154.810375 -195.696613 
L 156.129914 -196.729392 
L 157.449453 -197.642698 
L 158.768992 -198.42885 
L 160.088531 -199.093561 
L 161.40807 -199.640872 
L 162.727609 -200.072334 
L 164.047148 -200.3959 
L 165.366686 -200.617045 
L 166.686225 -200.742008 
L 168.005764 -200.777998 
L 169.325303 -200.733074 
L 170.644842 -200.611378 
L 171.964381 -200.422934 
L 173.28392 -200.171579 
L 174.603458 -199.863265 
L 175.922997 -199.505407 
L 177.242536 -199.099658 
L 178.562075 -198.65394 
L 179.881614 -198.170218 
L 181.201153 -197.652338 
L 182.520692 -197.105021 
L 183.840231 -196.529074 
L 184.5 -196.23204 
L 185.159769 -195.9293 
L 186.479308 -195.3068 
L 187.798847 -194.469337 
L 189.118386 -193.591248 
L 190.437925 -192.698267 
L 191.757464 -191.791561 
L 193.077003 -190.872 
L 194.396542 -189.94045 
L 195.71608 -188.998118 
L 197.035619 -188.044921 
L 198.355158 -187.082237 
L 199.674697 -186.110085 
L 200.994236 -185.128713 
L 202.313775 -184.139408 
L 203.633314 -183.140974 
L 204.952852 -182.134956 
L 206.272391 -181.120666 
L 207.59193 -180.097985 
L 208.911469 -179.068143 
L 210.231008 -178.029133 
L 211.550547 -176.982573 
L 212.870086 -175.92713 
L 214.189625 -174.862418 
L 215.509163 -173.78947 
L 216.828702 -172.705604 
L 217.323529 -172.296633 
L 218.148241 -171.61239 
L 219.46778 -170.507816 
L 220.787319 -169.391204 
L 222.106858 -168.263222 
L 223.426397 -167.120468 
L 224.745936 -165.964281 
L 226.065474 -164.791784 
L 227.385013 -163.601816 
L 228.704552 -162.394378 
L 230.024091 -161.165044 
L 231.34363 -159.914545 
L 232.663169 -158.638632 
L 233.982708 -157.335129 
L 235.302247 -156.002695 
L 236.621785 -154.634996 
L 237.941324 -153.231246 
L 239.260863 -151.784499 
L 240.580402 -150.290108 
L 241.899941 -148.74359 
L 243.21948 -147.134283 
L 244.539019 -145.457211 
L 245.858557 -143.699439 
L 247.178096 -141.849725 
L 248.497635 -139.89254 
L 249.817174 -137.808476 
L 250.147059 -137.265716 
L 251.136713 -135.577916 
L 252.456252 -133.169844 
L 253.775791 -129.103858 
L 255.09533 -117.82572 
L 256.414868 -99.493698 
L 257.734407 -73.938555 
L 259.053946 -48.533604 
L 260.373485 -47.127273 
L 261.693024 -47.127273 
L 263.012563 -47.127273 
L 264.332102 -47.127273 
L 265.651641 -47.127273 
L 266.971179 -47.127273 
L 268.290718 -47.127273 
L 269.610257 -47.127273 
L 270.929796 -47.127273 
L 272.249335 -47.127273 
L 273.568874 -47.127273 
L 274.888413 -47.127273 
L 276.207952 -47.127273 
L 277.52749 -47.127273 
L 278.847029 -47.127273 
L 280.166568 -47.127273 
L 281.486107 -47.127273 
L 282.805646 -47.127273 
L 282.970588 -47.127273 
L 284.125185 -47.127273 
L 285.444724 -47.127273 
L 286.764262 -47.127273 
L 288.083801 -47.127273 
L 289.40334 -47.127273 
L 290.722879 -47.127273 
L 292.042418 -47.127273 
L 293.361957 -47.127273 
L 294.681496 -47.127273 
L 296.001035 -47.127273 
L 297.320573 -47.127273 
L 298.640112 -47.127273 
L 299.959651 -47.127273 
L 301.27919 -47.127273 
L 302.598729 -47.127273 
L 303.918268 -47.127273 
L 305.237807 -47.127273 
L 306.557346 -47.127273 
L 307.876884 -47.127273 
L 309.196423 -47.127273 
L 310.515962 -47.127273 
L 311.835501 -47.127273 
L 313.15504 -47.127273 
L 314.474579 -47.127273 
L 315.794118 -47.127273 
L 315.794118 -47.127273 
L 315.794118 -47.127273 
L 314.474579 -47.127273 
L 313.15504 -47.127273 
L 311.835501 -47.127273 
L 310.515962 -47.127273 
L 309.196423 -47.127273 
L 307.876884 -47.127273 
L 306.557346 -47.127273 
L 305.237807 -47.127273 
L 303.918268 -47.127273 
L 302.598729 -47.127273 
L 301.27919 -47.127273 
L 299.959651 -47.127273 
L 298.640112 -47.127273 
L 297.320573 -47.127273 
L 296.001035 -47.127273 
L 294.681496 -47.127273 
L 293.361957 -47.127273 
L 292.042418 -47.127273 
L 290.722879 -47.127273 
L 289.40334 -47.127273 
L 288.083801 -47.127273 
L 286.764262 -47.127273 
L 285.444724 -47.127273 
L 284.125185 -48.131464 
L 282.970588 -55.915587 
L 282.805646 -57.030623 
L 281.486107 -66.440362 
L 280.166568 -75.526796 
L 278.847029 -84.462361 
L 277.52749 -92.773201 
L 276.207952 -100.446238 
L 274.888413 -107.114417 
L 273.568874 -112.760959 
L 272.249335 -117.540803 
L 270.929796 -121.628949 
L 269.610257 -125.155267 
L 268.290718 -128.244402 
L 266.971179 -130.989388 
L 265.651641 -133.458827 
L 264.332102 -135.706258 
L 263.012563 -137.773162 
L 261.693024 -139.689761 
L 260.373485 -141.481994 
L 259.053946 -143.167607 
L 257.734407 -144.763681 
L 256.414868 -146.28113 
L 255.09533 -147.731693 
L 253.775791 -149.122431 
L 252.456252 -150.461642 
L 251.136713 -151.754187 
L 250.147059 -152.696699 
L 249.817174 -153.006163 
L 248.497635 -154.221221 
L 247.178096 -155.402748 
L 245.858557 -156.554928 
L 244.539019 -157.679155 
L 243.21948 -158.927436 
L 241.899941 -160.788599 
L 240.580402 -162.515087 
L 239.260863 -164.128437 
L 237.941324 -165.64785 
L 236.621785 -167.087083 
L 235.302247 -168.456493 
L 233.982708 -169.766631 
L 232.663169 -171.02344 
L 231.34363 -172.234167 
L 230.024091 -173.403702 
L 228.704552 -174.535811 
L 227.385013 -175.635446 
L 226.065474 -176.704589 
L 224.745936 -177.746992 
L 223.426397 -178.764784 
L 222.106858 -179.759619 
L 220.787319 -180.734374 
L 219.46778 -181.689623 
L 218.148241 -182.627685 
L 217.323529 -183.205735 
L 216.828702 -183.549526 
L 215.509163 -184.455914 
L 214.189625 -185.348669 
L 212.870086 -186.284795 
L 211.550547 -187.300793 
L 210.231008 -188.30689 
L 208.911469 -189.304064 
L 207.59193 -190.292465 
L 206.272391 -191.271109 
L 204.952852 -192.241261 
L 203.633314 -193.201571 
L 202.313775 -194.152392 
L 200.994236 -195.093376 
L 199.674697 -196.023506 
L 198.355158 -196.942976 
L 197.035619 -197.850587 
L 195.71608 -198.745779 
L 194.396542 -199.627706 
L 193.077003 -200.495291 
L 191.757464 -201.347259 
L 190.437925 -202.18271 
L 189.118386 -202.999654 
L 187.798847 -203.796659 
L 186.479308 -204.572423 
L 185.159769 -205.323559 
L 184.5 -205.689722 
L 183.840231 -206.049515 
L 182.520692 -206.746075 
L 181.201153 -207.410958 
L 179.881614 -208.042524 
L 178.562075 -208.635432 
L 177.242536 -209.186353 
L 175.922997 -209.688963 
L 174.603458 -210.142573 
L 173.28392 -210.539488 
L 171.964381 -210.874928 
L 170.644842 -211.139868 
L 169.325303 -211.339971 
L 168.005764 -211.473722 
L 166.686225 -211.520248 
L 165.366686 -211.516789 
L 164.047148 -211.419669 
L 162.727609 -211.224445 
L 161.40807 -210.981323 
L 160.088531 -210.768602 
L 158.768992 -210.439988 
L 157.449453 -209.98737 
L 156.129914 -209.407411 
L 154.810375 -208.69519 
L 153.490837 -207.843787 
L 152.171298 -206.860617 
L 151.676471 -206.456111 
L 150.851759 -205.736325 
L 149.53222 -204.479306 
L 148.212681 -203.091636 
L 146.893142 -201.586701 
L 145.573603 -199.966461 
L 144.254064 -198.235888 
L 142.934526 -196.410022 
L 141.614987 -194.496764 
L 140.295448 -192.50486 
L 138.975909 -190.445291 
L 137.65637 -188.325585 
L 136.336831 -186.152886 
L 135.017292 -183.928387 
L 133.697753 -181.673415 
L 132.378215 -179.384964 
L 131.058676 -177.069096 
L 129.739137 -174.716957 
L 128.419598 -172.356451 
L 127.100059 -169.980012 
L 125.78052 -167.591773 
L 124.460981 -165.176844 
L 123.141443 -162.76411 
L 121.821904 -160.344167 
L 120.502365 -157.920468 
L 119.182826 -155.477812 
L 118.852941 -154.867569 
L 117.863287 -153.043205 
L 116.543748 -150.602983 
L 115.224209 -148.158624 
L 113.90467 -145.697241 
L 112.585132 -143.250465 
L 111.265593 -140.800251 
L 109.946054 -138.348076 
L 108.626515 -135.884766 
L 107.306976 -133.43441 
L 105.987437 -130.982418 
L 104.667898 -128.518217 
L 103.348359 -126.048803 
L 102.028821 -123.595574 
L 100.709282 -121.141695 
L 99.389743 -118.676857 
L 98.070204 -116.214618 
L 96.750665 -113.758984 
L 95.431126 -111.303607 
L 94.111587 -108.829464 
L 92.792048 -106.366175 
L 91.47251 -103.909148 
L 90.152971 -101.453179 
L 88.833432 -98.98306 
L 87.513893 -96.526797 
L 86.194354 -94.070823 
L 86.029412 -93.764535 
L 84.874815 -91.608447 
L 83.555276 -89.141176 
L 82.235738 -86.686818 
L 80.916199 -84.231867 
L 79.59666 -81.761603 
L 78.277121 -79.302787 
L 76.957582 -76.84819 
L 75.638043 -74.385192 
L 74.318504 -71.915184 
L 72.998965 -69.461348 
L 71.679427 -67.004451 
L 70.359888 -64.572436 
L 69.040349 -62.177158 
L 67.72081 -59.785209 
L 66.401271 -57.370488 
L 65.081732 -54.941794 
L 63.762193 -52.513672 
L 62.442654 -50.038611 
L 61.123116 -47.461873 
L 59.803577 -47.127273 
L 58.484038 -47.127273 
L 57.164499 -47.127273 
L 55.84496 -47.127273 
L 54.525421 -47.127273 
L 53.205882 -47.127273 
z
" style="stroke: #000000; stroke-opacity: 0.2"/>
    </defs>
    <g clip-path="url(#p091394a107)">
     <use xlink:href="#m1c7149768a" x="0" y="360" style="fill-opacity: 0.2; stroke: #000000; stroke-opacity: 0.2"/>
    </g>
   </g>
   <g id="PathCollection_1">
    <defs>
     <path id="m5a704ecab6" d="M 0 7.071068 
C 1.875269 7.071068 3.673985 6.326016 5 5 
C 6.326016 3.673985 7.071068 1.875269 7.071068 0 
C 7.071068 -1.875269 6.326016 -3.673985 5 -5 
C 3.673985 -6.326016 1.875269 -7.071068 0 -7.071068 
C -1.875269 -7.071068 -3.673985 -6.326016 -5 -5 
C -6.326016 -3.673985 -7.071068 -1.875269 -7.071068 0 
C -7.071068 1.875269 -6.326016 3.673985 -5 5 
C -3.673985 6.326016 -1.875269 7.071068 0 7.071068 
z
" style="stroke: #000000; stroke-opacity: 0.8"/>
    </defs>
    <g clip-path="url(#p091394a107)">
     <use xlink:href="#m5a704ecab6" x="53.205882" y="312.872727" style="fill-opacity: 0.8; stroke: #000000; stroke-opacity: 0.8"/>
     <use xlink:href="#m5a704ecab6" x="86.029412" y="295.276505" style="fill-opacity: 0.8; stroke: #000000; stroke-opacity: 0.8"/>
     <use xlink:href="#m5a704ecab6" x="118.852941" y="230.757025" style="fill-opacity: 0.8; stroke: #000000; stroke-opacity: 0.8"/>
     <use xlink:href="#m5a704ecab6" x="151.676471" y="110.516175" style="fill-opacity: 0.8; stroke: #000000; stroke-opacity: 0.8"/>
     <use xlink:href="#m5a704ecab6" x="184.5" y="154.50673" style="fill-opacity: 0.8; stroke: #000000; stroke-opacity: 0.8"/>
     <use xlink:href="#m5a704ecab6" x="217.323529" y="201.429988" style="fill-opacity: 0.8; stroke: #000000; stroke-opacity: 0.8"/>
     <use xlink:href="#m5a704ecab6" x="250.147059" y="198.497285" style="fill-opacity: 0.8; stroke: #000000; stroke-opacity: 0.8"/>
     <use xlink:href="#m5a704ecab6" x="282.970588" y="312.872727" style="fill-opacity: 0.8; stroke: #000000; stroke-opacity: 0.8"/>
    </g>
   </g>
   <g id="line2d_11">
    <path d="M 53.205882 312.872727 
L 61.123116 312.872727 
L 62.442654 311.620389 
L 69.040349 299.315242 
L 112.585132 219.196479 
L 128.419598 190.428863 
L 135.017292 178.924915 
L 138.975909 172.38794 
L 142.934526 166.332329 
L 145.573603 162.667852 
L 148.212681 159.388017 
L 150.851759 156.553638 
L 152.171298 155.320003 
L 154.810375 153.254708 
L 156.129914 152.418094 
L 157.449453 151.717233 
L 158.768992 151.142613 
L 160.088531 150.694373 
L 162.727609 150.149351 
L 165.366686 150.027887 
L 168.005764 150.268873 
L 170.644842 150.815314 
L 173.28392 151.614515 
L 175.922997 152.619842 
L 179.881614 154.431765 
L 184.5 156.894764 
L 189.118386 159.628794 
L 194.396542 162.989667 
L 200.994236 167.443931 
L 208.911469 173.062601 
L 217.323529 179.316608 
L 224.745936 185.109848 
L 231.34363 190.556193 
L 236.621785 195.202393 
L 240.580402 198.923339 
L 244.539019 202.925128 
L 248.497635 207.318991 
L 251.136713 210.547269 
L 253.775791 214.102618 
L 256.414868 218.098206 
L 259.053946 222.701603 
L 260.373485 225.30492 
L 261.693024 228.161714 
L 263.012563 231.319678 
L 264.332102 234.834268 
L 265.651641 238.760889 
L 266.971179 243.147945 
L 268.290718 248.031078 
L 269.610257 253.392909 
L 272.249335 265.512517 
L 281.486107 309.964953 
L 282.805646 312.872727 
L 315.794118 312.872727 
L 315.794118 312.872727 
" clip-path="url(#p091394a107)" style="fill: none; stroke: #000000; stroke-width: 3; stroke-linecap: square"/>
   </g>
  </g>
  <g id="text_13">
   <!-- Individual 11 -->
   <g transform="translate(21.558937 29.532375) scale(0.312 -0.312)">
    <defs>
     <path id="ArialMT-49" d="M 597 0 
L 597 4581 
L 1203 4581 
L 1203 0 
L 597 0 
z
" transform="scale(0.015625)"/>
     <path id="ArialMT-6e" d="M 422 0 
L 422 3319 
L 928 3319 
L 928 2847 
Q 1294 3394 1984 3394 
Q 2284 3394 2536 3286 
Q 2788 3178 2913 3003 
Q 3038 2828 3088 2588 
Q 3119 2431 3119 2041 
L 3119 0 
L 2556 0 
L 2556 2019 
Q 2556 2363 2490 2533 
Q 2425 2703 2258 2804 
Q 2091 2906 1866 2906 
Q 1506 2906 1245 2678 
Q 984 2450 984 1813 
L 984 0 
L 422 0 
z
" transform="scale(0.015625)"/>
     <path id="ArialMT-76" d="M 1344 0 
L 81 3319 
L 675 3319 
L 1388 1331 
Q 1503 1009 1600 663 
Q 1675 925 1809 1294 
L 2547 3319 
L 3125 3319 
L 1869 0 
L 1344 0 
z
" transform="scale(0.015625)"/>
     <path id="ArialMT-61" d="M 2588 409 
Q 2275 144 1986 34 
Q 1697 -75 1366 -75 
Q 819 -75 525 192 
Q 231 459 231 875 
Q 231 1119 342 1320 
Q 453 1522 633 1644 
Q 813 1766 1038 1828 
Q 1203 1872 1538 1913 
Q 2219 1994 2541 2106 
Q 2544 2222 2544 2253 
Q 2544 2597 2384 2738 
Q 2169 2928 1744 2928 
Q 1347 2928 1158 2789 
Q 969 2650 878 2297 
L 328 2372 
Q 403 2725 575 2942 
Q 747 3159 1072 3276 
Q 1397 3394 1825 3394 
Q 2250 3394 2515 3294 
Q 2781 3194 2906 3042 
Q 3031 2891 3081 2659 
Q 3109 2516 3109 2141 
L 3109 1391 
Q 3109 606 3145 398 
Q 3181 191 3288 0 
L 2700 0 
Q 2613 175 2588 409 
z
M 2541 1666 
Q 2234 1541 1622 1453 
Q 1275 1403 1131 1340 
Q 988 1278 909 1158 
Q 831 1038 831 891 
Q 831 666 1001 516 
Q 1172 366 1500 366 
Q 1825 366 2078 508 
Q 2331 650 2450 897 
Q 2541 1088 2541 1459 
L 2541 1666 
z
" transform="scale(0.015625)"/>
     <path id="ArialMT-6c" d="M 409 0 
L 409 4581 
L 972 4581 
L 972 0 
L 409 0 
z
" transform="scale(0.015625)"/>
     <path id="ArialMT-31" d="M 2384 0 
L 1822 0 
L 1822 3584 
Q 1619 3391 1289 3197 
Q 959 3003 697 2906 
L 697 3450 
Q 1169 3672 1522 3987 
Q 1875 4303 2022 4600 
L 2384 4600 
L 2384 0 
z
" transform="scale(0.015625)"/>
    </defs>
    <use xlink:href="#ArialMT-49"/>
    <use xlink:href="#ArialMT-6e" transform="translate(27.783203 0)"/>
    <use xlink:href="#ArialMT-64" transform="translate(83.398438 0)"/>
    <use xlink:href="#ArialMT-69" transform="translate(139.013672 0)"/>
    <use xlink:href="#ArialMT-76" transform="translate(161.230469 0)"/>
    <use xlink:href="#ArialMT-69" transform="translate(211.230469 0)"/>
    <use xlink:href="#ArialMT-64" transform="translate(233.447266 0)"/>
    <use xlink:href="#ArialMT-75" transform="translate(289.0625 0)"/>
    <use xlink:href="#ArialMT-61" transform="translate(344.677734 0)"/>
    <use xlink:href="#ArialMT-6c" transform="translate(400.292969 0)"/>
    <use xlink:href="#ArialMT-20" transform="translate(422.509766 0)"/>
    <use xlink:href="#ArialMT-31" transform="translate(450.292969 0)"/>
    <use xlink:href="#ArialMT-31" transform="translate(498.533203 0)"/>
   </g>
  </g>
 </g>
 <defs>
  <clipPath id="p091394a107">
   <rect x="45" y="72" width="279" height="248.4"/>
  </clipPath>
 </defs>
</svg>
