<?xml version="1.0" encoding="utf-8" standalone="no"?>
<!DOCTYPE svg PUBLIC "-//W3C//DTD SVG 1.1//EN"
  "http://www.w3.org/Graphics/SVG/1.1/DTD/svg11.dtd">
<svg xmlns:xlink="http://www.w3.org/1999/xlink" width="1080pt" height="360pt" viewBox="0 0 1080 360" xmlns="http://www.w3.org/2000/svg" version="1.1">
 <metadata>
  <rdf:RDF xmlns:dc="http://purl.org/dc/elements/1.1/" xmlns:cc="http://creativecommons.org/ns#" xmlns:rdf="http://www.w3.org/1999/02/22-rdf-syntax-ns#">
   <cc:Work>
    <dc:type rdf:resource="http://purl.org/dc/dcmitype/StillImage"/>
    <dc:date>2024-01-11T11:16:06.677315</dc:date>
    <dc:format>image/svg+xml</dc:format>
    <dc:creator>
     <cc:Agent>
      <dc:title>Matplotlib v3.7.2, https://matplotlib.org/</dc:title>
     </cc:Agent>
    </dc:creator>
   </cc:Work>
  </rdf:RDF>
 </metadata>
 <defs>
  <style type="text/css">*{stroke-linejoin: round; stroke-linecap: butt}</style>
 </defs>
 <g id="figure_1">
  <g id="patch_1">
   <path d="M 0 360 
L 1080 360 
L 1080 0 
L 0 0 
z
" style="fill: #ffffff"/>
  </g>
  <g id="axes_1">
   <g id="patch_2">
    <path d="M 57.17 307.24 
L 508.265 307.24 
L 508.265 62.88 
L 57.17 62.88 
z
" style="fill: #ffffff"/>
   </g>
   <g id="patch_3">
    <path d="M 77.674318 307.24 
L 83.070191 307.24 
L 83.070191 279.865264 
L 77.674318 279.865264 
z
" clip-path="url(#p13b11e4d3f)" style="fill: #0000ff; fill-opacity: 0.5; stroke: #000000; stroke-width: 0.455089; stroke-linejoin: miter"/>
   </g>
   <g id="patch_4">
    <path d="M 83.070191 307.24 
L 88.466065 307.24 
L 88.466065 259.584826 
L 83.070191 259.584826 
z
" clip-path="url(#p13b11e4d3f)" style="fill: #0000ff; fill-opacity: 0.5; stroke: #000000; stroke-width: 0.455089; stroke-linejoin: miter"/>
   </g>
   <g id="patch_5">
    <path d="M 88.466065 307.24 
L 93.861938 307.24 
L 93.861938 175.301485 
L 88.466065 175.301485 
z
" clip-path="url(#p13b11e4d3f)" style="fill: #0000ff; fill-opacity: 0.5; stroke: #000000; stroke-width: 0.455089; stroke-linejoin: miter"/>
   </g>
   <g id="patch_6">
    <path d="M 93.861938 307.24 
L 99.257811 307.24 
L 99.257811 220.566189 
L 93.861938 220.566189 
z
" clip-path="url(#p13b11e4d3f)" style="fill: #0000ff; fill-opacity: 0.5; stroke: #000000; stroke-width: 0.455089; stroke-linejoin: miter"/>
   </g>
   <g id="patch_7">
    <path d="M 99.257811 307.24 
L 104.653684 307.24 
L 104.653684 146.77007 
L 99.257811 146.77007 
z
" clip-path="url(#p13b11e4d3f)" style="fill: #0000ff; fill-opacity: 0.5; stroke: #000000; stroke-width: 0.455089; stroke-linejoin: miter"/>
   </g>
   <g id="patch_8">
    <path d="M 104.653684 307.24 
L 110.049557 307.24 
L 110.049557 276.472339 
L 104.653684 276.472339 
z
" clip-path="url(#p13b11e4d3f)" style="fill: #0000ff; fill-opacity: 0.5; stroke: #000000; stroke-width: 0.455089; stroke-linejoin: miter"/>
   </g>
   <g id="patch_9">
    <path d="M 110.049557 307.24 
L 115.445431 307.24 
L 115.445431 163.426248 
L 110.049557 163.426248 
z
" clip-path="url(#p13b11e4d3f)" style="fill: #0000ff; fill-opacity: 0.5; stroke: #000000; stroke-width: 0.455089; stroke-linejoin: miter"/>
   </g>
   <g id="patch_10">
    <path d="M 115.445431 307.24 
L 120.841304 307.24 
L 120.841304 187.022499 
L 115.445431 187.022499 
z
" clip-path="url(#p13b11e4d3f)" style="fill: #0000ff; fill-opacity: 0.5; stroke: #000000; stroke-width: 0.455089; stroke-linejoin: miter"/>
   </g>
   <g id="patch_11">
    <path d="M 120.841304 307.24 
L 126.237177 307.24 
L 126.237177 190.184088 
L 120.841304 190.184088 
z
" clip-path="url(#p13b11e4d3f)" style="fill: #0000ff; fill-opacity: 0.5; stroke: #000000; stroke-width: 0.455089; stroke-linejoin: miter"/>
   </g>
   <g id="patch_12">
    <path d="M 126.237177 307.24 
L 131.63305 307.24 
L 131.63305 255.266558 
L 126.237177 255.266558 
z
" clip-path="url(#p13b11e4d3f)" style="fill: #0000ff; fill-opacity: 0.5; stroke: #000000; stroke-width: 0.455089; stroke-linejoin: miter"/>
   </g>
   <g id="patch_13">
    <path d="M 131.63305 307.24 
L 137.028923 307.24 
L 137.028923 229.279837 
L 131.63305 229.279837 
z
" clip-path="url(#p13b11e4d3f)" style="fill: #0000ff; fill-opacity: 0.5; stroke: #000000; stroke-width: 0.455089; stroke-linejoin: miter"/>
   </g>
   <g id="patch_14">
    <path d="M 137.028923 307.24 
L 142.424797 307.24 
L 142.424797 191.186543 
L 137.028923 191.186543 
z
" clip-path="url(#p13b11e4d3f)" style="fill: #0000ff; fill-opacity: 0.5; stroke: #000000; stroke-width: 0.455089; stroke-linejoin: miter"/>
   </g>
   <g id="patch_15">
    <path d="M 142.424797 307.24 
L 147.82067 307.24 
L 147.82067 247.169805 
L 142.424797 247.169805 
z
" clip-path="url(#p13b11e4d3f)" style="fill: #0000ff; fill-opacity: 0.5; stroke: #000000; stroke-width: 0.455089; stroke-linejoin: miter"/>
   </g>
   <g id="patch_16">
    <path d="M 147.82067 307.24 
L 153.216543 307.24 
L 153.216543 276.241004 
L 147.82067 276.241004 
z
" clip-path="url(#p13b11e4d3f)" style="fill: #0000ff; fill-opacity: 0.5; stroke: #000000; stroke-width: 0.455089; stroke-linejoin: miter"/>
   </g>
   <g id="patch_17">
    <path d="M 153.216543 307.24 
L 158.612416 307.24 
L 158.612416 265.368221 
L 153.216543 265.368221 
z
" clip-path="url(#p13b11e4d3f)" style="fill: #0000ff; fill-opacity: 0.5; stroke: #000000; stroke-width: 0.455089; stroke-linejoin: miter"/>
   </g>
   <g id="patch_18">
    <path d="M 158.612416 307.24 
L 164.008289 307.24 
L 164.008289 177.229283 
L 158.612416 177.229283 
z
" clip-path="url(#p13b11e4d3f)" style="fill: #0000ff; fill-opacity: 0.5; stroke: #000000; stroke-width: 0.455089; stroke-linejoin: miter"/>
   </g>
   <g id="patch_19">
    <path d="M 164.008289 307.24 
L 169.404163 307.24 
L 169.404163 74.747526 
L 164.008289 74.747526 
z
" clip-path="url(#p13b11e4d3f)" style="fill: #0000ff; fill-opacity: 0.5; stroke: #000000; stroke-width: 0.455089; stroke-linejoin: miter"/>
   </g>
   <g id="patch_20">
    <path d="M 169.404163 307.24 
L 174.800036 307.24 
L 174.800036 191.263655 
L 169.404163 191.263655 
z
" clip-path="url(#p13b11e4d3f)" style="fill: #0000ff; fill-opacity: 0.5; stroke: #000000; stroke-width: 0.455089; stroke-linejoin: miter"/>
   </g>
   <g id="patch_21">
    <path d="M 174.800036 307.24 
L 180.195909 307.24 
L 180.195909 250.56273 
L 174.800036 250.56273 
z
" clip-path="url(#p13b11e4d3f)" style="fill: #0000ff; fill-opacity: 0.5; stroke: #000000; stroke-width: 0.455089; stroke-linejoin: miter"/>
   </g>
   <g id="patch_22">
    <path d="M 180.195909 307.24 
L 185.591782 307.24 
L 185.591782 132.812811 
L 180.195909 132.812811 
z
" clip-path="url(#p13b11e4d3f)" style="fill: #0000ff; fill-opacity: 0.5; stroke: #000000; stroke-width: 0.455089; stroke-linejoin: miter"/>
   </g>
   <g id="patch_23">
    <path d="M 185.591782 307.24 
L 190.987656 307.24 
L 190.987656 136.128624 
L 185.591782 136.128624 
z
" clip-path="url(#p13b11e4d3f)" style="fill: #0000ff; fill-opacity: 0.5; stroke: #000000; stroke-width: 0.455089; stroke-linejoin: miter"/>
   </g>
   <g id="patch_24">
    <path d="M 190.987656 307.24 
L 196.383529 307.24 
L 196.383529 115.925298 
L 190.987656 115.925298 
z
" clip-path="url(#p13b11e4d3f)" style="fill: #0000ff; fill-opacity: 0.5; stroke: #000000; stroke-width: 0.455089; stroke-linejoin: miter"/>
   </g>
   <g id="patch_25">
    <path d="M 196.383529 307.24 
L 201.779402 307.24 
L 201.779402 159.262203 
L 196.383529 159.262203 
z
" clip-path="url(#p13b11e4d3f)" style="fill: #0000ff; fill-opacity: 0.5; stroke: #000000; stroke-width: 0.455089; stroke-linejoin: miter"/>
   </g>
   <g id="patch_26">
    <path d="M 201.779402 307.24 
L 207.175275 307.24 
L 207.175275 245.781791 
L 201.779402 245.781791 
z
" clip-path="url(#p13b11e4d3f)" style="fill: #0000ff; fill-opacity: 0.5; stroke: #000000; stroke-width: 0.455089; stroke-linejoin: miter"/>
   </g>
   <g id="patch_27">
    <path d="M 207.175275 307.24 
L 212.571148 307.24 
L 212.571148 173.836358 
L 207.175275 173.836358 
z
" clip-path="url(#p13b11e4d3f)" style="fill: #0000ff; fill-opacity: 0.5; stroke: #000000; stroke-width: 0.455089; stroke-linejoin: miter"/>
   </g>
   <g id="patch_28">
    <path d="M 212.571148 307.24 
L 217.967022 307.24 
L 217.967022 220.103517 
L 212.571148 220.103517 
z
" clip-path="url(#p13b11e4d3f)" style="fill: #0000ff; fill-opacity: 0.5; stroke: #000000; stroke-width: 0.455089; stroke-linejoin: miter"/>
   </g>
   <g id="patch_29">
    <path d="M 217.967022 307.24 
L 223.362895 307.24 
L 223.362895 74.51619 
L 217.967022 74.51619 
z
" clip-path="url(#p13b11e4d3f)" style="fill: #0000ff; fill-opacity: 0.5; stroke: #000000; stroke-width: 0.455089; stroke-linejoin: miter"/>
   </g>
   <g id="patch_30">
    <path d="M 223.362895 307.24 
L 228.758768 307.24 
L 228.758768 225.424241 
L 223.362895 225.424241 
z
" clip-path="url(#p13b11e4d3f)" style="fill: #0000ff; fill-opacity: 0.5; stroke: #000000; stroke-width: 0.455089; stroke-linejoin: miter"/>
   </g>
   <g id="patch_31">
    <path d="M 228.758768 307.24 
L 234.154641 307.24 
L 234.154641 276.703675 
L 228.758768 276.703675 
z
" clip-path="url(#p13b11e4d3f)" style="fill: #0000ff; fill-opacity: 0.5; stroke: #000000; stroke-width: 0.455089; stroke-linejoin: miter"/>
   </g>
   <g id="patch_32">
    <path d="M 234.154641 307.24 
L 239.550514 307.24 
L 239.550514 168.978307 
L 234.154641 168.978307 
z
" clip-path="url(#p13b11e4d3f)" style="fill: #0000ff; fill-opacity: 0.5; stroke: #000000; stroke-width: 0.455089; stroke-linejoin: miter"/>
   </g>
   <g id="patch_33">
    <path d="M 239.550514 307.24 
L 244.946388 307.24 
L 244.946388 217.713047 
L 239.550514 217.713047 
z
" clip-path="url(#p13b11e4d3f)" style="fill: #0000ff; fill-opacity: 0.5; stroke: #000000; stroke-width: 0.455089; stroke-linejoin: miter"/>
   </g>
   <g id="patch_34">
    <path d="M 244.946388 307.24 
L 250.342261 307.24 
L 250.342261 253.030312 
L 244.946388 253.030312 
z
" clip-path="url(#p13b11e4d3f)" style="fill: #0000ff; fill-opacity: 0.5; stroke: #000000; stroke-width: 0.455089; stroke-linejoin: miter"/>
   </g>
   <g id="patch_35">
    <path d="M 250.342261 307.24 
L 255.738134 307.24 
L 255.738134 249.868723 
L 250.342261 249.868723 
z
" clip-path="url(#p13b11e4d3f)" style="fill: #0000ff; fill-opacity: 0.5; stroke: #000000; stroke-width: 0.455089; stroke-linejoin: miter"/>
   </g>
   <g id="patch_36">
    <path d="M 255.738134 307.24 
L 261.134007 307.24 
L 261.134007 254.264103 
L 255.738134 254.264103 
z
" clip-path="url(#p13b11e4d3f)" style="fill: #0000ff; fill-opacity: 0.5; stroke: #000000; stroke-width: 0.455089; stroke-linejoin: miter"/>
   </g>
   <g id="patch_37">
    <path d="M 261.134007 307.24 
L 266.52988 307.24 
L 266.52988 280.713496 
L 261.134007 280.713496 
z
" clip-path="url(#p13b11e4d3f)" style="fill: #0000ff; fill-opacity: 0.5; stroke: #000000; stroke-width: 0.455089; stroke-linejoin: miter"/>
   </g>
   <g id="patch_38">
    <path d="M 266.52988 307.24 
L 271.925754 307.24 
L 271.925754 277.012123 
L 266.52988 277.012123 
z
" clip-path="url(#p13b11e4d3f)" style="fill: #0000ff; fill-opacity: 0.5; stroke: #000000; stroke-width: 0.455089; stroke-linejoin: miter"/>
   </g>
   <g id="patch_39">
    <path d="M 271.925754 307.24 
L 277.321627 307.24 
L 277.321627 137.362415 
L 271.925754 137.362415 
z
" clip-path="url(#p13b11e4d3f)" style="fill: #0000ff; fill-opacity: 0.5; stroke: #000000; stroke-width: 0.455089; stroke-linejoin: miter"/>
   </g>
   <g id="patch_40">
    <path d="M 277.321627 307.24 
L 282.7175 307.24 
L 282.7175 275.855444 
L 277.321627 275.855444 
z
" clip-path="url(#p13b11e4d3f)" style="fill: #0000ff; fill-opacity: 0.5; stroke: #000000; stroke-width: 0.455089; stroke-linejoin: miter"/>
   </g>
   <g id="patch_41">
    <path d="M 282.7175 307.24 
L 288.113373 307.24 
L 288.113373 227.737599 
L 282.7175 227.737599 
z
" clip-path="url(#p13b11e4d3f)" style="fill: #0000ff; fill-opacity: 0.5; stroke: #000000; stroke-width: 0.455089; stroke-linejoin: miter"/>
   </g>
   <g id="patch_42">
    <path d="M 288.113373 307.24 
L 293.509246 307.24 
L 293.509246 276.318115 
L 288.113373 276.318115 
z
" clip-path="url(#p13b11e4d3f)" style="fill: #0000ff; fill-opacity: 0.5; stroke: #000000; stroke-width: 0.455089; stroke-linejoin: miter"/>
   </g>
   <g id="patch_43">
    <path d="M 293.509246 307.24 
L 298.90512 307.24 
L 298.90512 266.679124 
L 293.509246 266.679124 
z
" clip-path="url(#p13b11e4d3f)" style="fill: #0000ff; fill-opacity: 0.5; stroke: #000000; stroke-width: 0.455089; stroke-linejoin: miter"/>
   </g>
   <g id="patch_44">
    <path d="M 298.90512 307.24 
L 304.300993 307.24 
L 304.300993 307.24 
L 298.90512 307.24 
z
" clip-path="url(#p13b11e4d3f)" style="fill: #0000ff; fill-opacity: 0.5; stroke: #000000; stroke-width: 0.455089; stroke-linejoin: miter"/>
   </g>
   <g id="patch_45">
    <path d="M 304.300993 307.24 
L 309.696866 307.24 
L 309.696866 276.472339 
L 304.300993 276.472339 
z
" clip-path="url(#p13b11e4d3f)" style="fill: #0000ff; fill-opacity: 0.5; stroke: #000000; stroke-width: 0.455089; stroke-linejoin: miter"/>
   </g>
   <g id="patch_46">
    <path d="M 309.696866 307.24 
L 315.092739 307.24 
L 315.092739 279.094145 
L 309.696866 279.094145 
z
" clip-path="url(#p13b11e4d3f)" style="fill: #0000ff; fill-opacity: 0.5; stroke: #000000; stroke-width: 0.455089; stroke-linejoin: miter"/>
   </g>
   <g id="patch_47">
    <path d="M 315.092739 307.24 
L 320.488612 307.24 
L 320.488612 196.892826 
L 315.092739 196.892826 
z
" clip-path="url(#p13b11e4d3f)" style="fill: #0000ff; fill-opacity: 0.5; stroke: #000000; stroke-width: 0.455089; stroke-linejoin: miter"/>
   </g>
   <g id="patch_48">
    <path d="M 320.488612 307.24 
L 325.884486 307.24 
L 325.884486 275.624108 
L 320.488612 275.624108 
z
" clip-path="url(#p13b11e4d3f)" style="fill: #0000ff; fill-opacity: 0.5; stroke: #000000; stroke-width: 0.455089; stroke-linejoin: miter"/>
   </g>
   <g id="patch_49">
    <path d="M 325.884486 307.24 
L 331.280359 307.24 
L 331.280359 275.469884 
L 325.884486 275.469884 
z
" clip-path="url(#p13b11e4d3f)" style="fill: #0000ff; fill-opacity: 0.5; stroke: #000000; stroke-width: 0.455089; stroke-linejoin: miter"/>
   </g>
   <g id="patch_50">
    <path d="M 331.280359 307.24 
L 336.676232 307.24 
L 336.676232 256.114789 
L 331.280359 256.114789 
z
" clip-path="url(#p13b11e4d3f)" style="fill: #0000ff; fill-opacity: 0.5; stroke: #000000; stroke-width: 0.455089; stroke-linejoin: miter"/>
   </g>
   <g id="patch_51">
    <path d="M 336.676232 307.24 
L 342.072105 307.24 
L 342.072105 277.70613 
L 336.676232 277.70613 
z
" clip-path="url(#p13b11e4d3f)" style="fill: #0000ff; fill-opacity: 0.5; stroke: #000000; stroke-width: 0.455089; stroke-linejoin: miter"/>
   </g>
   <g id="patch_52">
    <path d="M 342.072105 307.24 
L 347.467978 307.24 
L 347.467978 260.433058 
L 342.072105 260.433058 
z
" clip-path="url(#p13b11e4d3f)" style="fill: #0000ff; fill-opacity: 0.5; stroke: #000000; stroke-width: 0.455089; stroke-linejoin: miter"/>
   </g>
   <g id="patch_53">
    <path d="M 347.467978 307.24 
L 352.863852 307.24 
L 352.863852 277.166347 
L 347.467978 277.166347 
z
" clip-path="url(#p13b11e4d3f)" style="fill: #0000ff; fill-opacity: 0.5; stroke: #000000; stroke-width: 0.455089; stroke-linejoin: miter"/>
   </g>
   <g id="patch_54">
    <path d="M 352.863852 307.24 
L 358.259725 307.24 
L 358.259725 264.597102 
L 352.863852 264.597102 
z
" clip-path="url(#p13b11e4d3f)" style="fill: #0000ff; fill-opacity: 0.5; stroke: #000000; stroke-width: 0.455089; stroke-linejoin: miter"/>
   </g>
   <g id="patch_55">
    <path d="M 358.259725 307.24 
L 363.655598 307.24 
L 363.655598 275.778332 
L 358.259725 275.778332 
z
" clip-path="url(#p13b11e4d3f)" style="fill: #0000ff; fill-opacity: 0.5; stroke: #000000; stroke-width: 0.455089; stroke-linejoin: miter"/>
   </g>
   <g id="patch_56">
    <path d="M 363.655598 307.24 
L 369.051471 307.24 
L 369.051471 307.24 
L 363.655598 307.24 
z
" clip-path="url(#p13b11e4d3f)" style="fill: #0000ff; fill-opacity: 0.5; stroke: #000000; stroke-width: 0.455089; stroke-linejoin: miter"/>
   </g>
   <g id="patch_57">
    <path d="M 369.051471 307.24 
L 374.447344 307.24 
L 374.447344 253.261648 
L 369.051471 253.261648 
z
" clip-path="url(#p13b11e4d3f)" style="fill: #0000ff; fill-opacity: 0.5; stroke: #000000; stroke-width: 0.455089; stroke-linejoin: miter"/>
   </g>
   <g id="patch_58">
    <path d="M 374.447344 307.24 
L 379.843218 307.24 
L 379.843218 307.24 
L 374.447344 307.24 
z
" clip-path="url(#p13b11e4d3f)" style="fill: #0000ff; fill-opacity: 0.5; stroke: #000000; stroke-width: 0.455089; stroke-linejoin: miter"/>
   </g>
   <g id="patch_59">
    <path d="M 379.843218 307.24 
L 385.239091 307.24 
L 385.239091 307.24 
L 379.843218 307.24 
z
" clip-path="url(#p13b11e4d3f)" style="fill: #0000ff; fill-opacity: 0.5; stroke: #000000; stroke-width: 0.455089; stroke-linejoin: miter"/>
   </g>
   <g id="patch_60">
    <path d="M 385.239091 307.24 
L 390.634964 307.24 
L 390.634964 244.470888 
L 385.239091 244.470888 
z
" clip-path="url(#p13b11e4d3f)" style="fill: #0000ff; fill-opacity: 0.5; stroke: #000000; stroke-width: 0.455089; stroke-linejoin: miter"/>
   </g>
   <g id="patch_61">
    <path d="M 390.634964 307.24 
L 396.030837 307.24 
L 396.030837 307.24 
L 390.634964 307.24 
z
" clip-path="url(#p13b11e4d3f)" style="fill: #0000ff; fill-opacity: 0.5; stroke: #000000; stroke-width: 0.455089; stroke-linejoin: miter"/>
   </g>
   <g id="patch_62">
    <path d="M 396.030837 307.24 
L 401.426711 307.24 
L 401.426711 279.71104 
L 396.030837 279.71104 
z
" clip-path="url(#p13b11e4d3f)" style="fill: #0000ff; fill-opacity: 0.5; stroke: #000000; stroke-width: 0.455089; stroke-linejoin: miter"/>
   </g>
   <g id="patch_63">
    <path d="M 401.426711 307.24 
L 406.822584 307.24 
L 406.822584 307.24 
L 401.426711 307.24 
z
" clip-path="url(#p13b11e4d3f)" style="fill: #0000ff; fill-opacity: 0.5; stroke: #000000; stroke-width: 0.455089; stroke-linejoin: miter"/>
   </g>
   <g id="patch_64">
    <path d="M 406.822584 307.24 
L 412.218457 307.24 
L 412.218457 307.24 
L 406.822584 307.24 
z
" clip-path="url(#p13b11e4d3f)" style="fill: #0000ff; fill-opacity: 0.5; stroke: #000000; stroke-width: 0.455089; stroke-linejoin: miter"/>
   </g>
   <g id="patch_65">
    <path d="M 412.218457 307.24 
L 417.61433 307.24 
L 417.61433 307.24 
L 412.218457 307.24 
z
" clip-path="url(#p13b11e4d3f)" style="fill: #0000ff; fill-opacity: 0.5; stroke: #000000; stroke-width: 0.455089; stroke-linejoin: miter"/>
   </g>
   <g id="patch_66">
    <path d="M 417.61433 307.24 
L 423.010203 307.24 
L 423.010203 307.24 
L 417.61433 307.24 
z
" clip-path="url(#p13b11e4d3f)" style="fill: #0000ff; fill-opacity: 0.5; stroke: #000000; stroke-width: 0.455089; stroke-linejoin: miter"/>
   </g>
   <g id="patch_67">
    <path d="M 423.010203 307.24 
L 428.406077 307.24 
L 428.406077 307.24 
L 423.010203 307.24 
z
" clip-path="url(#p13b11e4d3f)" style="fill: #0000ff; fill-opacity: 0.5; stroke: #000000; stroke-width: 0.455089; stroke-linejoin: miter"/>
   </g>
   <g id="patch_68">
    <path d="M 428.406077 307.24 
L 433.80195 307.24 
L 433.80195 307.24 
L 428.406077 307.24 
z
" clip-path="url(#p13b11e4d3f)" style="fill: #0000ff; fill-opacity: 0.5; stroke: #000000; stroke-width: 0.455089; stroke-linejoin: miter"/>
   </g>
   <g id="patch_69">
    <path d="M 433.80195 307.24 
L 439.197823 307.24 
L 439.197823 307.24 
L 433.80195 307.24 
z
" clip-path="url(#p13b11e4d3f)" style="fill: #0000ff; fill-opacity: 0.5; stroke: #000000; stroke-width: 0.455089; stroke-linejoin: miter"/>
   </g>
   <g id="patch_70">
    <path d="M 439.197823 307.24 
L 444.593696 307.24 
L 444.593696 307.24 
L 439.197823 307.24 
z
" clip-path="url(#p13b11e4d3f)" style="fill: #0000ff; fill-opacity: 0.5; stroke: #000000; stroke-width: 0.455089; stroke-linejoin: miter"/>
   </g>
   <g id="patch_71">
    <path d="M 444.593696 307.24 
L 449.989569 307.24 
L 449.989569 307.24 
L 444.593696 307.24 
z
" clip-path="url(#p13b11e4d3f)" style="fill: #0000ff; fill-opacity: 0.5; stroke: #000000; stroke-width: 0.455089; stroke-linejoin: miter"/>
   </g>
   <g id="patch_72">
    <path d="M 449.989569 307.24 
L 455.385443 307.24 
L 455.385443 307.24 
L 449.989569 307.24 
z
" clip-path="url(#p13b11e4d3f)" style="fill: #0000ff; fill-opacity: 0.5; stroke: #000000; stroke-width: 0.455089; stroke-linejoin: miter"/>
   </g>
   <g id="patch_73">
    <path d="M 455.385443 307.24 
L 460.781316 307.24 
L 460.781316 294.05386 
L 455.385443 294.05386 
z
" clip-path="url(#p13b11e4d3f)" style="fill: #0000ff; fill-opacity: 0.5; stroke: #000000; stroke-width: 0.455089; stroke-linejoin: miter"/>
   </g>
   <g id="patch_74">
    <path d="M 460.781316 307.24 
L 466.177189 307.24 
L 466.177189 307.24 
L 460.781316 307.24 
z
" clip-path="url(#p13b11e4d3f)" style="fill: #0000ff; fill-opacity: 0.5; stroke: #000000; stroke-width: 0.455089; stroke-linejoin: miter"/>
   </g>
   <g id="patch_75">
    <path d="M 466.177189 307.24 
L 471.573062 307.24 
L 471.573062 277.551906 
L 466.177189 277.551906 
z
" clip-path="url(#p13b11e4d3f)" style="fill: #0000ff; fill-opacity: 0.5; stroke: #000000; stroke-width: 0.455089; stroke-linejoin: miter"/>
   </g>
   <g id="patch_76">
    <path d="M 471.573062 307.24 
L 476.968935 307.24 
L 476.968935 307.24 
L 471.573062 307.24 
z
" clip-path="url(#p13b11e4d3f)" style="fill: #0000ff; fill-opacity: 0.5; stroke: #000000; stroke-width: 0.455089; stroke-linejoin: miter"/>
   </g>
   <g id="patch_77">
    <path d="M 476.968935 307.24 
L 482.364809 307.24 
L 482.364809 307.24 
L 476.968935 307.24 
z
" clip-path="url(#p13b11e4d3f)" style="fill: #0000ff; fill-opacity: 0.5; stroke: #000000; stroke-width: 0.455089; stroke-linejoin: miter"/>
   </g>
   <g id="patch_78">
    <path d="M 482.364809 307.24 
L 487.760682 307.24 
L 487.760682 282.795518 
L 482.364809 282.795518 
z
" clip-path="url(#p13b11e4d3f)" style="fill: #0000ff; fill-opacity: 0.5; stroke: #000000; stroke-width: 0.455089; stroke-linejoin: miter"/>
   </g>
   <g id="matplotlib.axis_1">
    <g id="xtick_1">
     <g id="line2d_1">
      <defs>
       <path id="mc2871b6040" d="M 0 0 
L 0 3.5 
" style="stroke: #000000; stroke-width: 0.8"/>
      </defs>
      <g>
       <use xlink:href="#mc2871b6040" x="67.672212" y="307.24" style="stroke: #000000; stroke-width: 0.8"/>
      </g>
     </g>
     <g id="text_1">
      <!-- 0 -->
      <g transform="translate(64.490962 321.838437) scale(0.1 -0.1)">
       <defs>
        <path id="DejaVuSans-30" d="M 2034 4250 
Q 1547 4250 1301 3770 
Q 1056 3291 1056 2328 
Q 1056 1369 1301 889 
Q 1547 409 2034 409 
Q 2525 409 2770 889 
Q 3016 1369 3016 2328 
Q 3016 3291 2770 3770 
Q 2525 4250 2034 4250 
z
M 2034 4750 
Q 2819 4750 3233 4129 
Q 3647 3509 3647 2328 
Q 3647 1150 3233 529 
Q 2819 -91 2034 -91 
Q 1250 -91 836 529 
Q 422 1150 422 2328 
Q 422 3509 836 4129 
Q 1250 4750 2034 4750 
z
" transform="scale(0.015625)"/>
       </defs>
       <use xlink:href="#DejaVuSans-30"/>
      </g>
     </g>
    </g>
    <g id="xtick_2">
     <g id="line2d_2">
      <g>
       <use xlink:href="#mc2871b6040" x="167.693276" y="307.24" style="stroke: #000000; stroke-width: 0.8"/>
      </g>
     </g>
     <g id="text_2">
      <!-- 20 -->
      <g transform="translate(161.330776 321.838437) scale(0.1 -0.1)">
       <defs>
        <path id="DejaVuSans-32" d="M 1228 531 
L 3431 531 
L 3431 0 
L 469 0 
L 469 531 
Q 828 903 1448 1529 
Q 2069 2156 2228 2338 
Q 2531 2678 2651 2914 
Q 2772 3150 2772 3378 
Q 2772 3750 2511 3984 
Q 2250 4219 1831 4219 
Q 1534 4219 1204 4116 
Q 875 4013 500 3803 
L 500 4441 
Q 881 4594 1212 4672 
Q 1544 4750 1819 4750 
Q 2544 4750 2975 4387 
Q 3406 4025 3406 3419 
Q 3406 3131 3298 2873 
Q 3191 2616 2906 2266 
Q 2828 2175 2409 1742 
Q 1991 1309 1228 531 
z
" transform="scale(0.015625)"/>
       </defs>
       <use xlink:href="#DejaVuSans-32"/>
       <use xlink:href="#DejaVuSans-30" x="63.623047"/>
      </g>
     </g>
    </g>
    <g id="xtick_3">
     <g id="line2d_3">
      <g>
       <use xlink:href="#mc2871b6040" x="267.71434" y="307.24" style="stroke: #000000; stroke-width: 0.8"/>
      </g>
     </g>
     <g id="text_3">
      <!-- 40 -->
      <g transform="translate(261.35184 321.838437) scale(0.1 -0.1)">
       <defs>
        <path id="DejaVuSans-34" d="M 2419 4116 
L 825 1625 
L 2419 1625 
L 2419 4116 
z
M 2253 4666 
L 3047 4666 
L 3047 1625 
L 3713 1625 
L 3713 1100 
L 3047 1100 
L 3047 0 
L 2419 0 
L 2419 1100 
L 313 1100 
L 313 1709 
L 2253 4666 
z
" transform="scale(0.015625)"/>
       </defs>
       <use xlink:href="#DejaVuSans-34"/>
       <use xlink:href="#DejaVuSans-30" x="63.623047"/>
      </g>
     </g>
    </g>
    <g id="xtick_4">
     <g id="line2d_4">
      <g>
       <use xlink:href="#mc2871b6040" x="367.735405" y="307.24" style="stroke: #000000; stroke-width: 0.8"/>
      </g>
     </g>
     <g id="text_4">
      <!-- 60 -->
      <g transform="translate(361.372905 321.838437) scale(0.1 -0.1)">
       <defs>
        <path id="DejaVuSans-36" d="M 2113 2584 
Q 1688 2584 1439 2293 
Q 1191 2003 1191 1497 
Q 1191 994 1439 701 
Q 1688 409 2113 409 
Q 2538 409 2786 701 
Q 3034 994 3034 1497 
Q 3034 2003 2786 2293 
Q 2538 2584 2113 2584 
z
M 3366 4563 
L 3366 3988 
Q 3128 4100 2886 4159 
Q 2644 4219 2406 4219 
Q 1781 4219 1451 3797 
Q 1122 3375 1075 2522 
Q 1259 2794 1537 2939 
Q 1816 3084 2150 3084 
Q 2853 3084 3261 2657 
Q 3669 2231 3669 1497 
Q 3669 778 3244 343 
Q 2819 -91 2113 -91 
Q 1303 -91 875 529 
Q 447 1150 447 2328 
Q 447 3434 972 4092 
Q 1497 4750 2381 4750 
Q 2619 4750 2861 4703 
Q 3103 4656 3366 4563 
z
" transform="scale(0.015625)"/>
       </defs>
       <use xlink:href="#DejaVuSans-36"/>
       <use xlink:href="#DejaVuSans-30" x="63.623047"/>
      </g>
     </g>
    </g>
    <g id="xtick_5">
     <g id="line2d_5">
      <g>
       <use xlink:href="#mc2871b6040" x="467.756469" y="307.24" style="stroke: #000000; stroke-width: 0.8"/>
      </g>
     </g>
     <g id="text_5">
      <!-- 80 -->
      <g transform="translate(461.393969 321.838437) scale(0.1 -0.1)">
       <defs>
        <path id="DejaVuSans-38" d="M 2034 2216 
Q 1584 2216 1326 1975 
Q 1069 1734 1069 1313 
Q 1069 891 1326 650 
Q 1584 409 2034 409 
Q 2484 409 2743 651 
Q 3003 894 3003 1313 
Q 3003 1734 2745 1975 
Q 2488 2216 2034 2216 
z
M 1403 2484 
Q 997 2584 770 2862 
Q 544 3141 544 3541 
Q 544 4100 942 4425 
Q 1341 4750 2034 4750 
Q 2731 4750 3128 4425 
Q 3525 4100 3525 3541 
Q 3525 3141 3298 2862 
Q 3072 2584 2669 2484 
Q 3125 2378 3379 2068 
Q 3634 1759 3634 1313 
Q 3634 634 3220 271 
Q 2806 -91 2034 -91 
Q 1263 -91 848 271 
Q 434 634 434 1313 
Q 434 1759 690 2068 
Q 947 2378 1403 2484 
z
M 1172 3481 
Q 1172 3119 1398 2916 
Q 1625 2713 2034 2713 
Q 2441 2713 2670 2916 
Q 2900 3119 2900 3481 
Q 2900 3844 2670 4047 
Q 2441 4250 2034 4250 
Q 1625 4250 1398 4047 
Q 1172 3844 1172 3481 
z
" transform="scale(0.015625)"/>
       </defs>
       <use xlink:href="#DejaVuSans-38"/>
       <use xlink:href="#DejaVuSans-30" x="63.623047"/>
      </g>
     </g>
    </g>
    <g id="text_6">
     <!-- Age (Years) -->
     <g transform="translate(254.363594 335.516563) scale(0.1 -0.1)">
      <defs>
       <path id="DejaVuSans-41" d="M 2188 4044 
L 1331 1722 
L 3047 1722 
L 2188 4044 
z
M 1831 4666 
L 2547 4666 
L 4325 0 
L 3669 0 
L 3244 1197 
L 1141 1197 
L 716 0 
L 50 0 
L 1831 4666 
z
" transform="scale(0.015625)"/>
       <path id="DejaVuSans-67" d="M 2906 1791 
Q 2906 2416 2648 2759 
Q 2391 3103 1925 3103 
Q 1463 3103 1205 2759 
Q 947 2416 947 1791 
Q 947 1169 1205 825 
Q 1463 481 1925 481 
Q 2391 481 2648 825 
Q 2906 1169 2906 1791 
z
M 3481 434 
Q 3481 -459 3084 -895 
Q 2688 -1331 1869 -1331 
Q 1566 -1331 1297 -1286 
Q 1028 -1241 775 -1147 
L 775 -588 
Q 1028 -725 1275 -790 
Q 1522 -856 1778 -856 
Q 2344 -856 2625 -561 
Q 2906 -266 2906 331 
L 2906 616 
Q 2728 306 2450 153 
Q 2172 0 1784 0 
Q 1141 0 747 490 
Q 353 981 353 1791 
Q 353 2603 747 3093 
Q 1141 3584 1784 3584 
Q 2172 3584 2450 3431 
Q 2728 3278 2906 2969 
L 2906 3500 
L 3481 3500 
L 3481 434 
z
" transform="scale(0.015625)"/>
       <path id="DejaVuSans-65" d="M 3597 1894 
L 3597 1613 
L 953 1613 
Q 991 1019 1311 708 
Q 1631 397 2203 397 
Q 2534 397 2845 478 
Q 3156 559 3463 722 
L 3463 178 
Q 3153 47 2828 -22 
Q 2503 -91 2169 -91 
Q 1331 -91 842 396 
Q 353 884 353 1716 
Q 353 2575 817 3079 
Q 1281 3584 2069 3584 
Q 2775 3584 3186 3129 
Q 3597 2675 3597 1894 
z
M 3022 2063 
Q 3016 2534 2758 2815 
Q 2500 3097 2075 3097 
Q 1594 3097 1305 2825 
Q 1016 2553 972 2059 
L 3022 2063 
z
" transform="scale(0.015625)"/>
       <path id="DejaVuSans-20" transform="scale(0.015625)"/>
       <path id="DejaVuSans-28" d="M 1984 4856 
Q 1566 4138 1362 3434 
Q 1159 2731 1159 2009 
Q 1159 1288 1364 580 
Q 1569 -128 1984 -844 
L 1484 -844 
Q 1016 -109 783 600 
Q 550 1309 550 2009 
Q 550 2706 781 3412 
Q 1013 4119 1484 4856 
L 1984 4856 
z
" transform="scale(0.015625)"/>
       <path id="DejaVuSans-59" d="M -13 4666 
L 666 4666 
L 1959 2747 
L 3244 4666 
L 3922 4666 
L 2272 2222 
L 2272 0 
L 1638 0 
L 1638 2222 
L -13 4666 
z
" transform="scale(0.015625)"/>
       <path id="DejaVuSans-61" d="M 2194 1759 
Q 1497 1759 1228 1600 
Q 959 1441 959 1056 
Q 959 750 1161 570 
Q 1363 391 1709 391 
Q 2188 391 2477 730 
Q 2766 1069 2766 1631 
L 2766 1759 
L 2194 1759 
z
M 3341 1997 
L 3341 0 
L 2766 0 
L 2766 531 
Q 2569 213 2275 61 
Q 1981 -91 1556 -91 
Q 1019 -91 701 211 
Q 384 513 384 1019 
Q 384 1609 779 1909 
Q 1175 2209 1959 2209 
L 2766 2209 
L 2766 2266 
Q 2766 2663 2505 2880 
Q 2244 3097 1772 3097 
Q 1472 3097 1187 3025 
Q 903 2953 641 2809 
L 641 3341 
Q 956 3463 1253 3523 
Q 1550 3584 1831 3584 
Q 2591 3584 2966 3190 
Q 3341 2797 3341 1997 
z
" transform="scale(0.015625)"/>
       <path id="DejaVuSans-72" d="M 2631 2963 
Q 2534 3019 2420 3045 
Q 2306 3072 2169 3072 
Q 1681 3072 1420 2755 
Q 1159 2438 1159 1844 
L 1159 0 
L 581 0 
L 581 3500 
L 1159 3500 
L 1159 2956 
Q 1341 3275 1631 3429 
Q 1922 3584 2338 3584 
Q 2397 3584 2469 3576 
Q 2541 3569 2628 3553 
L 2631 2963 
z
" transform="scale(0.015625)"/>
       <path id="DejaVuSans-73" d="M 2834 3397 
L 2834 2853 
Q 2591 2978 2328 3040 
Q 2066 3103 1784 3103 
Q 1356 3103 1142 2972 
Q 928 2841 928 2578 
Q 928 2378 1081 2264 
Q 1234 2150 1697 2047 
L 1894 2003 
Q 2506 1872 2764 1633 
Q 3022 1394 3022 966 
Q 3022 478 2636 193 
Q 2250 -91 1575 -91 
Q 1294 -91 989 -36 
Q 684 19 347 128 
L 347 722 
Q 666 556 975 473 
Q 1284 391 1588 391 
Q 1994 391 2212 530 
Q 2431 669 2431 922 
Q 2431 1156 2273 1281 
Q 2116 1406 1581 1522 
L 1381 1569 
Q 847 1681 609 1914 
Q 372 2147 372 2553 
Q 372 3047 722 3315 
Q 1072 3584 1716 3584 
Q 2034 3584 2315 3537 
Q 2597 3491 2834 3397 
z
" transform="scale(0.015625)"/>
       <path id="DejaVuSans-29" d="M 513 4856 
L 1013 4856 
Q 1481 4119 1714 3412 
Q 1947 2706 1947 2009 
Q 1947 1309 1714 600 
Q 1481 -109 1013 -844 
L 513 -844 
Q 928 -128 1133 580 
Q 1338 1288 1338 2009 
Q 1338 2731 1133 3434 
Q 928 4138 513 4856 
z
" transform="scale(0.015625)"/>
      </defs>
      <use xlink:href="#DejaVuSans-41"/>
      <use xlink:href="#DejaVuSans-67" x="68.408203"/>
      <use xlink:href="#DejaVuSans-65" x="131.884766"/>
      <use xlink:href="#DejaVuSans-20" x="193.408203"/>
      <use xlink:href="#DejaVuSans-28" x="225.195312"/>
      <use xlink:href="#DejaVuSans-59" x="264.208984"/>
      <use xlink:href="#DejaVuSans-65" x="312.042969"/>
      <use xlink:href="#DejaVuSans-61" x="373.566406"/>
      <use xlink:href="#DejaVuSans-72" x="434.845703"/>
      <use xlink:href="#DejaVuSans-73" x="475.958984"/>
      <use xlink:href="#DejaVuSans-29" x="528.058594"/>
     </g>
    </g>
   </g>
   <g id="matplotlib.axis_2">
    <g id="ytick_1">
     <g id="line2d_6">
      <defs>
       <path id="mc8a1a49223" d="M 0 0 
L -3.5 0 
" style="stroke: #000000; stroke-width: 0.8"/>
      </defs>
      <g>
       <use xlink:href="#mc8a1a49223" x="57.17" y="307.24" style="stroke: #000000; stroke-width: 0.8"/>
      </g>
     </g>
     <g id="text_7">
      <!-- 0 -->
      <g transform="translate(43.8075 311.039219) scale(0.1 -0.1)">
       <use xlink:href="#DejaVuSans-30"/>
      </g>
     </g>
    </g>
    <g id="ytick_2">
     <g id="line2d_7">
      <g>
       <use xlink:href="#mc8a1a49223" x="57.17" y="268.684034" style="stroke: #000000; stroke-width: 0.8"/>
      </g>
     </g>
     <g id="text_8">
      <!-- 500 -->
      <g transform="translate(31.0825 272.483253) scale(0.1 -0.1)">
       <defs>
        <path id="DejaVuSans-35" d="M 691 4666 
L 3169 4666 
L 3169 4134 
L 1269 4134 
L 1269 2991 
Q 1406 3038 1543 3061 
Q 1681 3084 1819 3084 
Q 2600 3084 3056 2656 
Q 3513 2228 3513 1497 
Q 3513 744 3044 326 
Q 2575 -91 1722 -91 
Q 1428 -91 1123 -41 
Q 819 9 494 109 
L 494 744 
Q 775 591 1075 516 
Q 1375 441 1709 441 
Q 2250 441 2565 725 
Q 2881 1009 2881 1497 
Q 2881 1984 2565 2268 
Q 2250 2553 1709 2553 
Q 1456 2553 1204 2497 
Q 953 2441 691 2322 
L 691 4666 
z
" transform="scale(0.015625)"/>
       </defs>
       <use xlink:href="#DejaVuSans-35"/>
       <use xlink:href="#DejaVuSans-30" x="63.623047"/>
       <use xlink:href="#DejaVuSans-30" x="127.246094"/>
      </g>
     </g>
    </g>
    <g id="ytick_3">
     <g id="line2d_8">
      <g>
       <use xlink:href="#mc8a1a49223" x="57.17" y="230.128068" style="stroke: #000000; stroke-width: 0.8"/>
      </g>
     </g>
     <g id="text_9">
      <!-- 1000 -->
      <g transform="translate(24.72 233.927287) scale(0.1 -0.1)">
       <defs>
        <path id="DejaVuSans-31" d="M 794 531 
L 1825 531 
L 1825 4091 
L 703 3866 
L 703 4441 
L 1819 4666 
L 2450 4666 
L 2450 531 
L 3481 531 
L 3481 0 
L 794 0 
L 794 531 
z
" transform="scale(0.015625)"/>
       </defs>
       <use xlink:href="#DejaVuSans-31"/>
       <use xlink:href="#DejaVuSans-30" x="63.623047"/>
       <use xlink:href="#DejaVuSans-30" x="127.246094"/>
       <use xlink:href="#DejaVuSans-30" x="190.869141"/>
      </g>
     </g>
    </g>
    <g id="ytick_4">
     <g id="line2d_9">
      <g>
       <use xlink:href="#mc8a1a49223" x="57.17" y="191.572103" style="stroke: #000000; stroke-width: 0.8"/>
      </g>
     </g>
     <g id="text_10">
      <!-- 1500 -->
      <g transform="translate(24.72 195.371321) scale(0.1 -0.1)">
       <use xlink:href="#DejaVuSans-31"/>
       <use xlink:href="#DejaVuSans-35" x="63.623047"/>
       <use xlink:href="#DejaVuSans-30" x="127.246094"/>
       <use xlink:href="#DejaVuSans-30" x="190.869141"/>
      </g>
     </g>
    </g>
    <g id="ytick_5">
     <g id="line2d_10">
      <g>
       <use xlink:href="#mc8a1a49223" x="57.17" y="153.016137" style="stroke: #000000; stroke-width: 0.8"/>
      </g>
     </g>
     <g id="text_11">
      <!-- 2000 -->
      <g transform="translate(24.72 156.815356) scale(0.1 -0.1)">
       <use xlink:href="#DejaVuSans-32"/>
       <use xlink:href="#DejaVuSans-30" x="63.623047"/>
       <use xlink:href="#DejaVuSans-30" x="127.246094"/>
       <use xlink:href="#DejaVuSans-30" x="190.869141"/>
      </g>
     </g>
    </g>
    <g id="ytick_6">
     <g id="line2d_11">
      <g>
       <use xlink:href="#mc8a1a49223" x="57.17" y="114.460171" style="stroke: #000000; stroke-width: 0.8"/>
      </g>
     </g>
     <g id="text_12">
      <!-- 2500 -->
      <g transform="translate(24.72 118.25939) scale(0.1 -0.1)">
       <use xlink:href="#DejaVuSans-32"/>
       <use xlink:href="#DejaVuSans-35" x="63.623047"/>
       <use xlink:href="#DejaVuSans-30" x="127.246094"/>
       <use xlink:href="#DejaVuSans-30" x="190.869141"/>
      </g>
     </g>
    </g>
    <g id="ytick_7">
     <g id="line2d_12">
      <g>
       <use xlink:href="#mc8a1a49223" x="57.17" y="75.904205" style="stroke: #000000; stroke-width: 0.8"/>
      </g>
     </g>
     <g id="text_13">
      <!-- 3000 -->
      <g transform="translate(24.72 79.703424) scale(0.1 -0.1)">
       <defs>
        <path id="DejaVuSans-33" d="M 2597 2516 
Q 3050 2419 3304 2112 
Q 3559 1806 3559 1356 
Q 3559 666 3084 287 
Q 2609 -91 1734 -91 
Q 1441 -91 1130 -33 
Q 819 25 488 141 
L 488 750 
Q 750 597 1062 519 
Q 1375 441 1716 441 
Q 2309 441 2620 675 
Q 2931 909 2931 1356 
Q 2931 1769 2642 2001 
Q 2353 2234 1838 2234 
L 1294 2234 
L 1294 2753 
L 1863 2753 
Q 2328 2753 2575 2939 
Q 2822 3125 2822 3475 
Q 2822 3834 2567 4026 
Q 2313 4219 1838 4219 
Q 1578 4219 1281 4162 
Q 984 4106 628 3988 
L 628 4550 
Q 988 4650 1302 4700 
Q 1616 4750 1894 4750 
Q 2613 4750 3031 4423 
Q 3450 4097 3450 3541 
Q 3450 3153 3228 2886 
Q 3006 2619 2597 2516 
z
" transform="scale(0.015625)"/>
       </defs>
       <use xlink:href="#DejaVuSans-33"/>
       <use xlink:href="#DejaVuSans-30" x="63.623047"/>
       <use xlink:href="#DejaVuSans-30" x="127.246094"/>
       <use xlink:href="#DejaVuSans-30" x="190.869141"/>
      </g>
     </g>
    </g>
    <g id="text_14">
     <!-- Count -->
     <g transform="translate(18.640312 199.908437) rotate(-90) scale(0.1 -0.1)">
      <defs>
       <path id="DejaVuSans-43" d="M 4122 4306 
L 4122 3641 
Q 3803 3938 3442 4084 
Q 3081 4231 2675 4231 
Q 1875 4231 1450 3742 
Q 1025 3253 1025 2328 
Q 1025 1406 1450 917 
Q 1875 428 2675 428 
Q 3081 428 3442 575 
Q 3803 722 4122 1019 
L 4122 359 
Q 3791 134 3420 21 
Q 3050 -91 2638 -91 
Q 1578 -91 968 557 
Q 359 1206 359 2328 
Q 359 3453 968 4101 
Q 1578 4750 2638 4750 
Q 3056 4750 3426 4639 
Q 3797 4528 4122 4306 
z
" transform="scale(0.015625)"/>
       <path id="DejaVuSans-6f" d="M 1959 3097 
Q 1497 3097 1228 2736 
Q 959 2375 959 1747 
Q 959 1119 1226 758 
Q 1494 397 1959 397 
Q 2419 397 2687 759 
Q 2956 1122 2956 1747 
Q 2956 2369 2687 2733 
Q 2419 3097 1959 3097 
z
M 1959 3584 
Q 2709 3584 3137 3096 
Q 3566 2609 3566 1747 
Q 3566 888 3137 398 
Q 2709 -91 1959 -91 
Q 1206 -91 779 398 
Q 353 888 353 1747 
Q 353 2609 779 3096 
Q 1206 3584 1959 3584 
z
" transform="scale(0.015625)"/>
       <path id="DejaVuSans-75" d="M 544 1381 
L 544 3500 
L 1119 3500 
L 1119 1403 
Q 1119 906 1312 657 
Q 1506 409 1894 409 
Q 2359 409 2629 706 
Q 2900 1003 2900 1516 
L 2900 3500 
L 3475 3500 
L 3475 0 
L 2900 0 
L 2900 538 
Q 2691 219 2414 64 
Q 2138 -91 1772 -91 
Q 1169 -91 856 284 
Q 544 659 544 1381 
z
M 1991 3584 
L 1991 3584 
z
" transform="scale(0.015625)"/>
       <path id="DejaVuSans-6e" d="M 3513 2113 
L 3513 0 
L 2938 0 
L 2938 2094 
Q 2938 2591 2744 2837 
Q 2550 3084 2163 3084 
Q 1697 3084 1428 2787 
Q 1159 2491 1159 1978 
L 1159 0 
L 581 0 
L 581 3500 
L 1159 3500 
L 1159 2956 
Q 1366 3272 1645 3428 
Q 1925 3584 2291 3584 
Q 2894 3584 3203 3211 
Q 3513 2838 3513 2113 
z
" transform="scale(0.015625)"/>
       <path id="DejaVuSans-74" d="M 1172 4494 
L 1172 3500 
L 2356 3500 
L 2356 3053 
L 1172 3053 
L 1172 1153 
Q 1172 725 1289 603 
Q 1406 481 1766 481 
L 2356 481 
L 2356 0 
L 1766 0 
Q 1100 0 847 248 
Q 594 497 594 1153 
L 594 3053 
L 172 3053 
L 172 3500 
L 594 3500 
L 594 4494 
L 1172 4494 
z
" transform="scale(0.015625)"/>
      </defs>
      <use xlink:href="#DejaVuSans-43"/>
      <use xlink:href="#DejaVuSans-6f" x="69.824219"/>
      <use xlink:href="#DejaVuSans-75" x="131.005859"/>
      <use xlink:href="#DejaVuSans-6e" x="194.384766"/>
      <use xlink:href="#DejaVuSans-74" x="257.763672"/>
     </g>
    </g>
   </g>
   <g id="line2d_13">
    <path d="M 77.674318 283.598193 
L 79.735054 277.009232 
L 81.795789 269.330489 
L 83.856525 260.688659 
L 92.099467 223.236351 
L 94.160202 215.353777 
L 96.220938 208.783875 
L 98.281673 203.637922 
L 100.342409 199.851447 
L 102.403144 197.220675 
L 104.46388 195.470381 
L 106.524615 194.33502 
L 108.585351 193.630007 
L 110.646086 193.29188 
L 112.706822 193.37529 
L 114.767557 194.009074 
L 116.828293 195.3281 
L 118.889028 197.406384 
L 120.949764 200.216178 
L 123.010499 203.627369 
L 127.13197 211.472093 
L 141.557119 240.000365 
L 143.617854 243.058266 
L 145.67859 244.873747 
L 147.739325 244.926647 
L 149.800061 242.791906 
L 151.860796 238.247996 
L 153.921532 231.360571 
L 155.982267 222.51817 
L 162.164474 191.919647 
L 164.225209 183.270597 
L 166.285944 176.461638 
L 168.34668 171.634654 
L 170.407415 168.562097 
L 172.468151 166.739302 
L 176.589622 164.38194 
L 178.650357 162.874554 
L 180.711093 160.882744 
L 184.832564 156.143067 
L 186.893299 154.146784 
L 188.954035 152.975928 
L 191.01477 152.981981 
L 193.075506 154.368801 
L 195.136241 157.15293 
L 197.196977 161.152848 
L 199.257712 166.010741 
L 203.379183 176.348124 
L 205.439919 180.853604 
L 207.500654 184.452974 
L 209.56139 187.038704 
L 211.622125 188.719364 
L 213.682861 189.782687 
L 215.743596 190.618073 
L 217.804332 191.617514 
L 219.865067 193.08007 
L 221.925803 195.145076 
L 223.986538 197.772617 
L 232.22948 209.66854 
L 238.411687 217.122956 
L 240.472422 219.979426 
L 242.533158 223.319858 
L 244.593893 227.182696 
L 248.715364 236.004458 
L 250.7761 240.476462 
L 252.836835 244.568409 
L 254.897571 247.952674 
L 256.958306 250.341693 
L 259.019042 251.532192 
L 261.079777 251.450224 
L 263.140513 250.188347 
L 265.201248 248.020481 
L 269.322719 242.796102 
L 271.383455 240.795104 
L 273.44419 239.795259 
L 275.504926 240.022922 
L 277.565661 241.479622 
L 279.626397 243.969249 
L 281.687132 247.173561 
L 287.869339 257.925465 
L 289.930074 261.225208 
L 291.99081 264.241878 
L 294.051545 266.924917 
L 296.112281 269.189343 
L 298.173016 270.903658 
L 300.233752 271.907656 
L 302.294487 272.053672 
L 304.355223 271.258031 
L 306.415958 269.546634 
L 308.476694 267.079653 
L 314.6589 258.394102 
L 316.719636 256.315557 
L 318.780371 255.104625 
L 320.841107 254.831628 
L 322.901842 255.420442 
L 324.962578 256.689165 
L 327.023313 258.409817 
L 337.326991 268.129314 
L 339.387726 269.829116 
L 341.448462 271.382735 
L 343.509197 272.754336 
L 345.569933 273.913215 
L 347.630668 274.850801 
L 349.691404 275.592169 
L 359.995081 278.677182 
L 364.116552 280.390407 
L 370.298759 282.980457 
L 372.359494 283.689711 
L 374.42023 284.260992 
L 376.480965 284.665799 
L 378.541701 284.8957 
L 382.663172 284.982545 
L 384.723907 285.022929 
L 386.784643 285.232738 
L 388.845378 285.739112 
L 390.906114 286.632618 
L 392.966849 287.946591 
L 395.027585 289.651126 
L 397.08832 291.661737 
L 403.270526 298.279836 
L 405.331262 300.274038 
L 407.391997 302.015839 
L 409.452733 303.466271 
L 411.513468 304.618347 
L 413.574204 305.491066 
L 415.634939 306.121197 
L 417.695675 306.554497 
L 421.817146 307.013727 
L 425.938617 307.170766 
L 432.120823 307.166646 
L 436.242294 307.019236 
L 440.363765 306.641129 
L 442.424501 306.314136 
L 444.485236 305.867068 
L 446.545972 305.284797 
L 448.606707 304.562225 
L 452.728178 302.749252 
L 458.910385 299.760715 
L 460.97112 298.961288 
L 463.031856 298.378157 
L 465.092591 298.057191 
L 467.153327 298.010286 
L 469.214062 298.20884 
L 473.335533 299.051915 
L 477.457004 299.890274 
L 481.578475 300.321662 
L 485.699946 300.593821 
L 487.760682 300.850857 
L 487.760682 300.850857 
" clip-path="url(#p13b11e4d3f)" style="fill: none; stroke: #0000ff; stroke-width: 1.5; stroke-linecap: square"/>
   </g>
   <g id="patch_79">
    <path d="M 57.17 307.24 
L 57.17 62.88 
" style="fill: none; stroke: #000000; stroke-width: 0.8; stroke-linejoin: miter; stroke-linecap: square"/>
   </g>
   <g id="patch_80">
    <path d="M 508.265 307.24 
L 508.265 62.88 
" style="fill: none; stroke: #000000; stroke-width: 0.8; stroke-linejoin: miter; stroke-linecap: square"/>
   </g>
   <g id="patch_81">
    <path d="M 57.17 307.24 
L 508.265 307.24 
" style="fill: none; stroke: #000000; stroke-width: 0.8; stroke-linejoin: miter; stroke-linecap: square"/>
   </g>
   <g id="patch_82">
    <path d="M 57.17 62.88 
L 508.265 62.88 
" style="fill: none; stroke: #000000; stroke-width: 0.8; stroke-linejoin: miter; stroke-linecap: square"/>
   </g>
   <g id="text_15">
    <!-- Age Distribution -->
    <g transform="translate(234.202812 56.88) scale(0.12 -0.12)">
     <defs>
      <path id="DejaVuSans-44" d="M 1259 4147 
L 1259 519 
L 2022 519 
Q 2988 519 3436 956 
Q 3884 1394 3884 2338 
Q 3884 3275 3436 3711 
Q 2988 4147 2022 4147 
L 1259 4147 
z
M 628 4666 
L 1925 4666 
Q 3281 4666 3915 4102 
Q 4550 3538 4550 2338 
Q 4550 1131 3912 565 
Q 3275 0 1925 0 
L 628 0 
L 628 4666 
z
" transform="scale(0.015625)"/>
      <path id="DejaVuSans-69" d="M 603 3500 
L 1178 3500 
L 1178 0 
L 603 0 
L 603 3500 
z
M 603 4863 
L 1178 4863 
L 1178 4134 
L 603 4134 
L 603 4863 
z
" transform="scale(0.015625)"/>
      <path id="DejaVuSans-62" d="M 3116 1747 
Q 3116 2381 2855 2742 
Q 2594 3103 2138 3103 
Q 1681 3103 1420 2742 
Q 1159 2381 1159 1747 
Q 1159 1113 1420 752 
Q 1681 391 2138 391 
Q 2594 391 2855 752 
Q 3116 1113 3116 1747 
z
M 1159 2969 
Q 1341 3281 1617 3432 
Q 1894 3584 2278 3584 
Q 2916 3584 3314 3078 
Q 3713 2572 3713 1747 
Q 3713 922 3314 415 
Q 2916 -91 2278 -91 
Q 1894 -91 1617 61 
Q 1341 213 1159 525 
L 1159 0 
L 581 0 
L 581 4863 
L 1159 4863 
L 1159 2969 
z
" transform="scale(0.015625)"/>
     </defs>
     <use xlink:href="#DejaVuSans-41"/>
     <use xlink:href="#DejaVuSans-67" x="68.408203"/>
     <use xlink:href="#DejaVuSans-65" x="131.884766"/>
     <use xlink:href="#DejaVuSans-20" x="193.408203"/>
     <use xlink:href="#DejaVuSans-44" x="225.195312"/>
     <use xlink:href="#DejaVuSans-69" x="302.197266"/>
     <use xlink:href="#DejaVuSans-73" x="329.980469"/>
     <use xlink:href="#DejaVuSans-74" x="382.080078"/>
     <use xlink:href="#DejaVuSans-72" x="421.289062"/>
     <use xlink:href="#DejaVuSans-69" x="462.402344"/>
     <use xlink:href="#DejaVuSans-62" x="490.185547"/>
     <use xlink:href="#DejaVuSans-75" x="553.662109"/>
     <use xlink:href="#DejaVuSans-74" x="617.041016"/>
     <use xlink:href="#DejaVuSans-69" x="656.25"/>
     <use xlink:href="#DejaVuSans-6f" x="684.033203"/>
     <use xlink:href="#DejaVuSans-6e" x="745.214844"/>
    </g>
   </g>
   <g id="legend_1">
    <g id="patch_83">
     <path d="M 429.813438 100.23625 
L 501.265 100.23625 
Q 503.265 100.23625 503.265 98.23625 
L 503.265 69.88 
Q 503.265 67.88 501.265 67.88 
L 429.813438 67.88 
Q 427.813438 67.88 427.813438 69.88 
L 427.813438 98.23625 
Q 427.813438 100.23625 429.813438 100.23625 
z
" style="fill: #ffffff; opacity: 0.8; stroke: #cccccc; stroke-linejoin: miter"/>
    </g>
    <g id="patch_84">
     <path d="M 431.813438 79.478437 
L 451.813438 79.478437 
L 451.813438 72.478437 
L 431.813438 72.478437 
z
" style="fill: #0000ff; fill-opacity: 0.5; stroke: #000000; stroke-width: 0.455089; stroke-linejoin: miter"/>
    </g>
    <g id="text_16">
     <!-- All Data -->
     <g transform="translate(459.813438 79.478437) scale(0.1 -0.1)">
      <defs>
       <path id="DejaVuSans-6c" d="M 603 4863 
L 1178 4863 
L 1178 0 
L 603 0 
L 603 4863 
z
" transform="scale(0.015625)"/>
      </defs>
      <use xlink:href="#DejaVuSans-41"/>
      <use xlink:href="#DejaVuSans-6c" x="68.408203"/>
      <use xlink:href="#DejaVuSans-6c" x="96.191406"/>
      <use xlink:href="#DejaVuSans-20" x="123.974609"/>
      <use xlink:href="#DejaVuSans-44" x="155.761719"/>
      <use xlink:href="#DejaVuSans-61" x="232.763672"/>
      <use xlink:href="#DejaVuSans-74" x="294.042969"/>
      <use xlink:href="#DejaVuSans-61" x="333.251953"/>
     </g>
    </g>
    <g id="patch_85">
     <path d="M 431.813438 94.156562 
L 451.813438 94.156562 
L 451.813438 87.156562 
L 431.813438 87.156562 
z
" style="fill: #ffa500; fill-opacity: 0.5; stroke: #000000; stroke-width: 0.455089; stroke-linejoin: miter"/>
    </g>
    <g id="text_17">
     <!-- VPC -->
     <g transform="translate(459.813438 94.156562) scale(0.1 -0.1)">
      <defs>
       <path id="DejaVuSans-56" d="M 1831 0 
L 50 4666 
L 709 4666 
L 2188 738 
L 3669 4666 
L 4325 4666 
L 2547 0 
L 1831 0 
z
" transform="scale(0.015625)"/>
       <path id="DejaVuSans-50" d="M 1259 4147 
L 1259 2394 
L 2053 2394 
Q 2494 2394 2734 2622 
Q 2975 2850 2975 3272 
Q 2975 3691 2734 3919 
Q 2494 4147 2053 4147 
L 1259 4147 
z
M 628 4666 
L 2053 4666 
Q 2838 4666 3239 4311 
Q 3641 3956 3641 3272 
Q 3641 2581 3239 2228 
Q 2838 1875 2053 1875 
L 1259 1875 
L 1259 0 
L 628 0 
L 628 4666 
z
" transform="scale(0.015625)"/>
      </defs>
      <use xlink:href="#DejaVuSans-56"/>
      <use xlink:href="#DejaVuSans-50" x="68.408203"/>
      <use xlink:href="#DejaVuSans-43" x="128.710938"/>
     </g>
    </g>
   </g>
  </g>
  <g id="axes_2">
   <g id="patch_86">
    <path d="M 618.105 307.24 
L 1069.2 307.24 
L 1069.2 62.88 
L 618.105 62.88 
z
" style="fill: #ffffff"/>
   </g>
   <g id="patch_87">
    <path d="M 663.2145 307.24 
L 1024.0905 307.24 
L 1024.0905 74.51619 
L 663.2145 74.51619 
z
" clip-path="url(#p3c7005760a)" style="fill: #b3cede"/>
   </g>
   <g id="patch_88">
    <path d="M 1114.3095 307.24 
L 1475.1855 307.24 
L 1475.1855 243.306538 
L 1114.3095 243.306538 
z
" clip-path="url(#p3c7005760a)" style="fill: #4884af"/>
   </g>
   <g id="patch_89">
    <path d="M 663.2145 307.24 
L 1024.0905 307.24 
L 1024.0905 264.058629 
L 663.2145 264.058629 
z
" clip-path="url(#p3c7005760a)" style="fill: #e59054"/>
   </g>
   <g id="matplotlib.axis_3">
    <g id="xtick_6">
     <g id="line2d_14">
      <g>
       <use xlink:href="#mc2871b6040" x="843.6525" y="307.24" style="stroke: #000000; stroke-width: 0.8"/>
      </g>
     </g>
     <g id="text_18">
      <!-- Female -->
      <g transform="translate(825.575156 321.838437) scale(0.1 -0.1)">
       <defs>
        <path id="DejaVuSans-46" d="M 628 4666 
L 3309 4666 
L 3309 4134 
L 1259 4134 
L 1259 2759 
L 3109 2759 
L 3109 2228 
L 1259 2228 
L 1259 0 
L 628 0 
L 628 4666 
z
" transform="scale(0.015625)"/>
        <path id="DejaVuSans-6d" d="M 3328 2828 
Q 3544 3216 3844 3400 
Q 4144 3584 4550 3584 
Q 5097 3584 5394 3201 
Q 5691 2819 5691 2113 
L 5691 0 
L 5113 0 
L 5113 2094 
Q 5113 2597 4934 2840 
Q 4756 3084 4391 3084 
Q 3944 3084 3684 2787 
Q 3425 2491 3425 1978 
L 3425 0 
L 2847 0 
L 2847 2094 
Q 2847 2600 2669 2842 
Q 2491 3084 2119 3084 
Q 1678 3084 1418 2786 
Q 1159 2488 1159 1978 
L 1159 0 
L 581 0 
L 581 3500 
L 1159 3500 
L 1159 2956 
Q 1356 3278 1631 3431 
Q 1906 3584 2284 3584 
Q 2666 3584 2933 3390 
Q 3200 3197 3328 2828 
z
" transform="scale(0.015625)"/>
       </defs>
       <use xlink:href="#DejaVuSans-46"/>
       <use xlink:href="#DejaVuSans-65" x="52.019531"/>
       <use xlink:href="#DejaVuSans-6d" x="113.542969"/>
       <use xlink:href="#DejaVuSans-61" x="210.955078"/>
       <use xlink:href="#DejaVuSans-6c" x="272.234375"/>
       <use xlink:href="#DejaVuSans-65" x="300.017578"/>
      </g>
     </g>
    </g>
    <g id="text_19">
     <!-- Sex -->
     <g transform="translate(834.529844 335.516563) scale(0.1 -0.1)">
      <defs>
       <path id="DejaVuSans-53" d="M 3425 4513 
L 3425 3897 
Q 3066 4069 2747 4153 
Q 2428 4238 2131 4238 
Q 1616 4238 1336 4038 
Q 1056 3838 1056 3469 
Q 1056 3159 1242 3001 
Q 1428 2844 1947 2747 
L 2328 2669 
Q 3034 2534 3370 2195 
Q 3706 1856 3706 1288 
Q 3706 609 3251 259 
Q 2797 -91 1919 -91 
Q 1588 -91 1214 -16 
Q 841 59 441 206 
L 441 856 
Q 825 641 1194 531 
Q 1563 422 1919 422 
Q 2459 422 2753 634 
Q 3047 847 3047 1241 
Q 3047 1584 2836 1778 
Q 2625 1972 2144 2069 
L 1759 2144 
Q 1053 2284 737 2584 
Q 422 2884 422 3419 
Q 422 4038 858 4394 
Q 1294 4750 2059 4750 
Q 2388 4750 2728 4690 
Q 3069 4631 3425 4513 
z
" transform="scale(0.015625)"/>
       <path id="DejaVuSans-78" d="M 3513 3500 
L 2247 1797 
L 3578 0 
L 2900 0 
L 1881 1375 
L 863 0 
L 184 0 
L 1544 1831 
L 300 3500 
L 978 3500 
L 1906 2253 
L 2834 3500 
L 3513 3500 
z
" transform="scale(0.015625)"/>
      </defs>
      <use xlink:href="#DejaVuSans-53"/>
      <use xlink:href="#DejaVuSans-65" x="63.476562"/>
      <use xlink:href="#DejaVuSans-78" x="123.25"/>
     </g>
    </g>
   </g>
   <g id="matplotlib.axis_4">
    <g id="ytick_8">
     <g id="line2d_15">
      <g>
       <use xlink:href="#mc8a1a49223" x="618.105" y="307.24" style="stroke: #000000; stroke-width: 0.8"/>
      </g>
     </g>
     <g id="text_20">
      <!-- 0 -->
      <g transform="translate(604.7425 311.039219) scale(0.1 -0.1)">
       <use xlink:href="#DejaVuSans-30"/>
      </g>
     </g>
    </g>
    <g id="ytick_9">
     <g id="line2d_16">
      <g>
       <use xlink:href="#mc8a1a49223" x="618.105" y="257.174642" style="stroke: #000000; stroke-width: 0.8"/>
      </g>
     </g>
     <g id="text_21">
      <!-- 10000 -->
      <g transform="translate(579.2925 260.973861) scale(0.1 -0.1)">
       <use xlink:href="#DejaVuSans-31"/>
       <use xlink:href="#DejaVuSans-30" x="63.623047"/>
       <use xlink:href="#DejaVuSans-30" x="127.246094"/>
       <use xlink:href="#DejaVuSans-30" x="190.869141"/>
       <use xlink:href="#DejaVuSans-30" x="254.492188"/>
      </g>
     </g>
    </g>
    <g id="ytick_10">
     <g id="line2d_17">
      <g>
       <use xlink:href="#mc8a1a49223" x="618.105" y="207.109284" style="stroke: #000000; stroke-width: 0.8"/>
      </g>
     </g>
     <g id="text_22">
      <!-- 20000 -->
      <g transform="translate(579.2925 210.908503) scale(0.1 -0.1)">
       <use xlink:href="#DejaVuSans-32"/>
       <use xlink:href="#DejaVuSans-30" x="63.623047"/>
       <use xlink:href="#DejaVuSans-30" x="127.246094"/>
       <use xlink:href="#DejaVuSans-30" x="190.869141"/>
       <use xlink:href="#DejaVuSans-30" x="254.492188"/>
      </g>
     </g>
    </g>
    <g id="ytick_11">
     <g id="line2d_18">
      <g>
       <use xlink:href="#mc8a1a49223" x="618.105" y="157.043926" style="stroke: #000000; stroke-width: 0.8"/>
      </g>
     </g>
     <g id="text_23">
      <!-- 30000 -->
      <g transform="translate(579.2925 160.843145) scale(0.1 -0.1)">
       <use xlink:href="#DejaVuSans-33"/>
       <use xlink:href="#DejaVuSans-30" x="63.623047"/>
       <use xlink:href="#DejaVuSans-30" x="127.246094"/>
       <use xlink:href="#DejaVuSans-30" x="190.869141"/>
       <use xlink:href="#DejaVuSans-30" x="254.492188"/>
      </g>
     </g>
    </g>
    <g id="ytick_12">
     <g id="line2d_19">
      <g>
       <use xlink:href="#mc8a1a49223" x="618.105" y="106.978569" style="stroke: #000000; stroke-width: 0.8"/>
      </g>
     </g>
     <g id="text_24">
      <!-- 40000 -->
      <g transform="translate(579.2925 110.777787) scale(0.1 -0.1)">
       <use xlink:href="#DejaVuSans-34"/>
       <use xlink:href="#DejaVuSans-30" x="63.623047"/>
       <use xlink:href="#DejaVuSans-30" x="127.246094"/>
       <use xlink:href="#DejaVuSans-30" x="190.869141"/>
       <use xlink:href="#DejaVuSans-30" x="254.492188"/>
      </g>
     </g>
    </g>
    <g id="text_25">
     <!-- Count -->
     <g transform="translate(573.212812 199.908437) rotate(-90) scale(0.1 -0.1)">
      <use xlink:href="#DejaVuSans-43"/>
      <use xlink:href="#DejaVuSans-6f" x="69.824219"/>
      <use xlink:href="#DejaVuSans-75" x="131.005859"/>
      <use xlink:href="#DejaVuSans-6e" x="194.384766"/>
      <use xlink:href="#DejaVuSans-74" x="257.763672"/>
     </g>
    </g>
   </g>
   <g id="patch_90">
    <path d="M 618.105 307.24 
L 618.105 62.88 
" style="fill: none; stroke: #000000; stroke-width: 0.8; stroke-linejoin: miter; stroke-linecap: square"/>
   </g>
   <g id="patch_91">
    <path d="M 1069.2 307.24 
L 1069.2 62.88 
" style="fill: none; stroke: #000000; stroke-width: 0.8; stroke-linejoin: miter; stroke-linecap: square"/>
   </g>
   <g id="patch_92">
    <path d="M 618.105 307.24 
L 1069.2 307.24 
" style="fill: none; stroke: #000000; stroke-width: 0.8; stroke-linejoin: miter; stroke-linecap: square"/>
   </g>
   <g id="patch_93">
    <path d="M 618.105 62.88 
L 1069.2 62.88 
" style="fill: none; stroke: #000000; stroke-width: 0.8; stroke-linejoin: miter; stroke-linecap: square"/>
   </g>
   <g id="text_26">
    <!-- Sex Distribution -->
    <g transform="translate(795.795937 56.88) scale(0.12 -0.12)">
     <use xlink:href="#DejaVuSans-53"/>
     <use xlink:href="#DejaVuSans-65" x="63.476562"/>
     <use xlink:href="#DejaVuSans-78" x="123.25"/>
     <use xlink:href="#DejaVuSans-20" x="182.429688"/>
     <use xlink:href="#DejaVuSans-44" x="214.216797"/>
     <use xlink:href="#DejaVuSans-69" x="291.21875"/>
     <use xlink:href="#DejaVuSans-73" x="319.001953"/>
     <use xlink:href="#DejaVuSans-74" x="371.101562"/>
     <use xlink:href="#DejaVuSans-72" x="410.310547"/>
     <use xlink:href="#DejaVuSans-69" x="451.423828"/>
     <use xlink:href="#DejaVuSans-62" x="479.207031"/>
     <use xlink:href="#DejaVuSans-75" x="542.683594"/>
     <use xlink:href="#DejaVuSans-74" x="606.0625"/>
     <use xlink:href="#DejaVuSans-69" x="645.271484"/>
     <use xlink:href="#DejaVuSans-6f" x="673.054688"/>
     <use xlink:href="#DejaVuSans-6e" x="734.236328"/>
    </g>
   </g>
  </g>
  <g id="axes_3">
   <g id="patch_94">
    <path d="M 77.674318 307.24 
L 83.070191 307.24 
L 83.070191 307.24 
L 77.674318 307.24 
z
" clip-path="url(#p13b11e4d3f)" style="fill: #ffa500; fill-opacity: 0.5; stroke: #000000; stroke-width: 0.455089; stroke-linejoin: miter"/>
   </g>
   <g id="patch_95">
    <path d="M 83.070191 307.24 
L 88.466065 307.24 
L 88.466065 307.24 
L 83.070191 307.24 
z
" clip-path="url(#p13b11e4d3f)" style="fill: #ffa500; fill-opacity: 0.5; stroke: #000000; stroke-width: 0.455089; stroke-linejoin: miter"/>
   </g>
   <g id="patch_96">
    <path d="M 88.466065 307.24 
L 93.861938 307.24 
L 93.861938 307.24 
L 88.466065 307.24 
z
" clip-path="url(#p13b11e4d3f)" style="fill: #ffa500; fill-opacity: 0.5; stroke: #000000; stroke-width: 0.455089; stroke-linejoin: miter"/>
   </g>
   <g id="patch_97">
    <path d="M 93.861938 307.24 
L 99.257811 307.24 
L 99.257811 307.24 
L 93.861938 307.24 
z
" clip-path="url(#p13b11e4d3f)" style="fill: #ffa500; fill-opacity: 0.5; stroke: #000000; stroke-width: 0.455089; stroke-linejoin: miter"/>
   </g>
   <g id="patch_98">
    <path d="M 99.257811 307.24 
L 104.653684 307.24 
L 104.653684 307.24 
L 99.257811 307.24 
z
" clip-path="url(#p13b11e4d3f)" style="fill: #ffa500; fill-opacity: 0.5; stroke: #000000; stroke-width: 0.455089; stroke-linejoin: miter"/>
   </g>
   <g id="patch_99">
    <path d="M 104.653684 307.24 
L 110.049557 307.24 
L 110.049557 307.24 
L 104.653684 307.24 
z
" clip-path="url(#p13b11e4d3f)" style="fill: #ffa500; fill-opacity: 0.5; stroke: #000000; stroke-width: 0.455089; stroke-linejoin: miter"/>
   </g>
   <g id="patch_100">
    <path d="M 110.049557 307.24 
L 115.445431 307.24 
L 115.445431 307.24 
L 110.049557 307.24 
z
" clip-path="url(#p13b11e4d3f)" style="fill: #ffa500; fill-opacity: 0.5; stroke: #000000; stroke-width: 0.455089; stroke-linejoin: miter"/>
   </g>
   <g id="patch_101">
    <path d="M 115.445431 307.24 
L 120.841304 307.24 
L 120.841304 307.24 
L 115.445431 307.24 
z
" clip-path="url(#p13b11e4d3f)" style="fill: #ffa500; fill-opacity: 0.5; stroke: #000000; stroke-width: 0.455089; stroke-linejoin: miter"/>
   </g>
   <g id="patch_102">
    <path d="M 120.841304 307.24 
L 126.237177 307.24 
L 126.237177 307.24 
L 120.841304 307.24 
z
" clip-path="url(#p13b11e4d3f)" style="fill: #ffa500; fill-opacity: 0.5; stroke: #000000; stroke-width: 0.455089; stroke-linejoin: miter"/>
   </g>
   <g id="patch_103">
    <path d="M 126.237177 307.24 
L 131.63305 307.24 
L 131.63305 307.24 
L 126.237177 307.24 
z
" clip-path="url(#p13b11e4d3f)" style="fill: #ffa500; fill-opacity: 0.5; stroke: #000000; stroke-width: 0.455089; stroke-linejoin: miter"/>
   </g>
   <g id="patch_104">
    <path d="M 131.63305 307.24 
L 137.028923 307.24 
L 137.028923 307.24 
L 131.63305 307.24 
z
" clip-path="url(#p13b11e4d3f)" style="fill: #ffa500; fill-opacity: 0.5; stroke: #000000; stroke-width: 0.455089; stroke-linejoin: miter"/>
   </g>
   <g id="patch_105">
    <path d="M 137.028923 307.24 
L 142.424797 307.24 
L 142.424797 307.24 
L 137.028923 307.24 
z
" clip-path="url(#p13b11e4d3f)" style="fill: #ffa500; fill-opacity: 0.5; stroke: #000000; stroke-width: 0.455089; stroke-linejoin: miter"/>
   </g>
   <g id="patch_106">
    <path d="M 142.424797 307.24 
L 147.82067 307.24 
L 147.82067 307.24 
L 142.424797 307.24 
z
" clip-path="url(#p13b11e4d3f)" style="fill: #ffa500; fill-opacity: 0.5; stroke: #000000; stroke-width: 0.455089; stroke-linejoin: miter"/>
   </g>
   <g id="patch_107">
    <path d="M 147.82067 307.24 
L 153.216543 307.24 
L 153.216543 307.24 
L 147.82067 307.24 
z
" clip-path="url(#p13b11e4d3f)" style="fill: #ffa500; fill-opacity: 0.5; stroke: #000000; stroke-width: 0.455089; stroke-linejoin: miter"/>
   </g>
   <g id="patch_108">
    <path d="M 153.216543 307.24 
L 158.612416 307.24 
L 158.612416 275.262683 
L 153.216543 275.262683 
z
" clip-path="url(#p13b11e4d3f)" style="fill: #ffa500; fill-opacity: 0.5; stroke: #000000; stroke-width: 0.455089; stroke-linejoin: miter"/>
   </g>
   <g id="patch_109">
    <path d="M 158.612416 307.24 
L 164.008289 307.24 
L 164.008289 207.532948 
L 158.612416 207.532948 
z
" clip-path="url(#p13b11e4d3f)" style="fill: #ffa500; fill-opacity: 0.5; stroke: #000000; stroke-width: 0.455089; stroke-linejoin: miter"/>
   </g>
   <g id="patch_110">
    <path d="M 164.008289 307.24 
L 169.404163 307.24 
L 169.404163 74.51619 
L 164.008289 74.51619 
z
" clip-path="url(#p13b11e4d3f)" style="fill: #ffa500; fill-opacity: 0.5; stroke: #000000; stroke-width: 0.455089; stroke-linejoin: miter"/>
   </g>
   <g id="patch_111">
    <path d="M 169.404163 307.24 
L 174.800036 307.24 
L 174.800036 181.995507 
L 169.404163 181.995507 
z
" clip-path="url(#p13b11e4d3f)" style="fill: #ffa500; fill-opacity: 0.5; stroke: #000000; stroke-width: 0.455089; stroke-linejoin: miter"/>
   </g>
   <g id="patch_112">
    <path d="M 174.800036 307.24 
L 180.195909 307.24 
L 180.195909 245.728077 
L 174.800036 245.728077 
z
" clip-path="url(#p13b11e4d3f)" style="fill: #ffa500; fill-opacity: 0.5; stroke: #000000; stroke-width: 0.455089; stroke-linejoin: miter"/>
   </g>
   <g id="patch_113">
    <path d="M 180.195909 307.24 
L 185.591782 307.24 
L 185.591782 222.855413 
L 180.195909 222.855413 
z
" clip-path="url(#p13b11e4d3f)" style="fill: #ffa500; fill-opacity: 0.5; stroke: #000000; stroke-width: 0.455089; stroke-linejoin: miter"/>
   </g>
   <g id="patch_114">
    <path d="M 185.591782 307.24 
L 190.987656 307.24 
L 190.987656 194.209066 
L 185.591782 194.209066 
z
" clip-path="url(#p13b11e4d3f)" style="fill: #ffa500; fill-opacity: 0.5; stroke: #000000; stroke-width: 0.455089; stroke-linejoin: miter"/>
   </g>
   <g id="patch_115">
    <path d="M 190.987656 307.24 
L 196.383529 307.24 
L 196.383529 113.821643 
L 190.987656 113.821643 
z
" clip-path="url(#p13b11e4d3f)" style="fill: #ffa500; fill-opacity: 0.5; stroke: #000000; stroke-width: 0.455089; stroke-linejoin: miter"/>
   </g>
   <g id="patch_116">
    <path d="M 196.383529 307.24 
L 201.779402 307.24 
L 201.779402 176.888019 
L 196.383529 176.888019 
z
" clip-path="url(#p13b11e4d3f)" style="fill: #ffa500; fill-opacity: 0.5; stroke: #000000; stroke-width: 0.455089; stroke-linejoin: miter"/>
   </g>
   <g id="patch_117">
    <path d="M 201.779402 307.24 
L 207.175275 307.24 
L 207.175275 285.699724 
L 201.779402 285.699724 
z
" clip-path="url(#p13b11e4d3f)" style="fill: #ffa500; fill-opacity: 0.5; stroke: #000000; stroke-width: 0.455089; stroke-linejoin: miter"/>
   </g>
   <g id="patch_118">
    <path d="M 207.175275 307.24 
L 212.571148 307.24 
L 212.571148 176.888019 
L 207.175275 176.888019 
z
" clip-path="url(#p13b11e4d3f)" style="fill: #ffa500; fill-opacity: 0.5; stroke: #000000; stroke-width: 0.455089; stroke-linejoin: miter"/>
   </g>
   <g id="patch_119">
    <path d="M 212.571148 307.24 
L 217.967022 307.24 
L 217.967022 273.70823 
L 212.571148 273.70823 
z
" clip-path="url(#p13b11e4d3f)" style="fill: #ffa500; fill-opacity: 0.5; stroke: #000000; stroke-width: 0.455089; stroke-linejoin: miter"/>
   </g>
   <g id="patch_120">
    <path d="M 217.967022 307.24 
L 223.362895 307.24 
L 223.362895 159.344907 
L 217.967022 159.344907 
z
" clip-path="url(#p13b11e4d3f)" style="fill: #ffa500; fill-opacity: 0.5; stroke: #000000; stroke-width: 0.455089; stroke-linejoin: miter"/>
   </g>
   <g id="patch_121">
    <path d="M 223.362895 307.24 
L 228.758768 307.24 
L 228.758768 273.70823 
L 223.362895 273.70823 
z
" clip-path="url(#p13b11e4d3f)" style="fill: #ffa500; fill-opacity: 0.5; stroke: #000000; stroke-width: 0.455089; stroke-linejoin: miter"/>
   </g>
   <g id="patch_122">
    <path d="M 228.758768 307.24 
L 234.154641 307.24 
L 234.154641 272.597906 
L 228.758768 272.597906 
z
" clip-path="url(#p13b11e4d3f)" style="fill: #ffa500; fill-opacity: 0.5; stroke: #000000; stroke-width: 0.455089; stroke-linejoin: miter"/>
   </g>
   <g id="patch_123">
    <path d="M 234.154641 307.24 
L 239.550514 307.24 
L 239.550514 242.619171 
L 234.154641 242.619171 
z
" clip-path="url(#p13b11e4d3f)" style="fill: #ffa500; fill-opacity: 0.5; stroke: #000000; stroke-width: 0.455089; stroke-linejoin: miter"/>
   </g>
   <g id="patch_124">
    <path d="M 239.550514 307.24 
L 244.946388 307.24 
L 244.946388 240.620589 
L 239.550514 240.620589 
z
" clip-path="url(#p13b11e4d3f)" style="fill: #ffa500; fill-opacity: 0.5; stroke: #000000; stroke-width: 0.455089; stroke-linejoin: miter"/>
   </g>
   <g id="patch_125">
    <path d="M 244.946388 307.24 
L 250.342261 307.24 
L 250.342261 290.363083 
L 244.946388 290.363083 
z
" clip-path="url(#p13b11e4d3f)" style="fill: #ffa500; fill-opacity: 0.5; stroke: #000000; stroke-width: 0.455089; stroke-linejoin: miter"/>
   </g>
   <g id="patch_126">
    <path d="M 250.342261 307.24 
L 255.738134 307.24 
L 255.738134 243.063301 
L 250.342261 243.063301 
z
" clip-path="url(#p13b11e4d3f)" style="fill: #ffa500; fill-opacity: 0.5; stroke: #000000; stroke-width: 0.455089; stroke-linejoin: miter"/>
   </g>
   <g id="patch_127">
    <path d="M 255.738134 307.24 
L 261.134007 307.24 
L 261.134007 276.373006 
L 255.738134 276.373006 
z
" clip-path="url(#p13b11e4d3f)" style="fill: #ffa500; fill-opacity: 0.5; stroke: #000000; stroke-width: 0.455089; stroke-linejoin: miter"/>
   </g>
   <g id="patch_128">
    <path d="M 261.134007 307.24 
L 266.52988 307.24 
L 266.52988 277.0392 
L 261.134007 277.0392 
z
" clip-path="url(#p13b11e4d3f)" style="fill: #ffa500; fill-opacity: 0.5; stroke: #000000; stroke-width: 0.455089; stroke-linejoin: miter"/>
   </g>
   <g id="patch_129">
    <path d="M 266.52988 307.24 
L 271.925754 307.24 
L 271.925754 273.2641 
L 266.52988 273.2641 
z
" clip-path="url(#p13b11e4d3f)" style="fill: #ffa500; fill-opacity: 0.5; stroke: #000000; stroke-width: 0.455089; stroke-linejoin: miter"/>
   </g>
   <g id="patch_130">
    <path d="M 271.925754 307.24 
L 277.321627 307.24 
L 277.321627 173.112919 
L 271.925754 173.112919 
z
" clip-path="url(#p13b11e4d3f)" style="fill: #ffa500; fill-opacity: 0.5; stroke: #000000; stroke-width: 0.455089; stroke-linejoin: miter"/>
   </g>
   <g id="patch_131">
    <path d="M 277.321627 307.24 
L 282.7175 307.24 
L 282.7175 307.24 
L 277.321627 307.24 
z
" clip-path="url(#p13b11e4d3f)" style="fill: #ffa500; fill-opacity: 0.5; stroke: #000000; stroke-width: 0.455089; stroke-linejoin: miter"/>
   </g>
   <g id="patch_132">
    <path d="M 282.7175 307.24 
L 288.113373 307.24 
L 288.113373 307.24 
L 282.7175 307.24 
z
" clip-path="url(#p13b11e4d3f)" style="fill: #ffa500; fill-opacity: 0.5; stroke: #000000; stroke-width: 0.455089; stroke-linejoin: miter"/>
   </g>
   <g id="patch_133">
    <path d="M 288.113373 307.24 
L 293.509246 307.24 
L 293.509246 307.24 
L 288.113373 307.24 
z
" clip-path="url(#p13b11e4d3f)" style="fill: #ffa500; fill-opacity: 0.5; stroke: #000000; stroke-width: 0.455089; stroke-linejoin: miter"/>
   </g>
   <g id="patch_134">
    <path d="M 293.509246 307.24 
L 298.90512 307.24 
L 298.90512 307.24 
L 293.509246 307.24 
z
" clip-path="url(#p13b11e4d3f)" style="fill: #ffa500; fill-opacity: 0.5; stroke: #000000; stroke-width: 0.455089; stroke-linejoin: miter"/>
   </g>
   <g id="patch_135">
    <path d="M 298.90512 307.24 
L 304.300993 307.24 
L 304.300993 307.24 
L 298.90512 307.24 
z
" clip-path="url(#p13b11e4d3f)" style="fill: #ffa500; fill-opacity: 0.5; stroke: #000000; stroke-width: 0.455089; stroke-linejoin: miter"/>
   </g>
   <g id="patch_136">
    <path d="M 304.300993 307.24 
L 309.696866 307.24 
L 309.696866 307.24 
L 304.300993 307.24 
z
" clip-path="url(#p13b11e4d3f)" style="fill: #ffa500; fill-opacity: 0.5; stroke: #000000; stroke-width: 0.455089; stroke-linejoin: miter"/>
   </g>
   <g id="patch_137">
    <path d="M 309.696866 307.24 
L 315.092739 307.24 
L 315.092739 307.24 
L 309.696866 307.24 
z
" clip-path="url(#p13b11e4d3f)" style="fill: #ffa500; fill-opacity: 0.5; stroke: #000000; stroke-width: 0.455089; stroke-linejoin: miter"/>
   </g>
   <g id="patch_138">
    <path d="M 315.092739 307.24 
L 320.488612 307.24 
L 320.488612 307.24 
L 315.092739 307.24 
z
" clip-path="url(#p13b11e4d3f)" style="fill: #ffa500; fill-opacity: 0.5; stroke: #000000; stroke-width: 0.455089; stroke-linejoin: miter"/>
   </g>
   <g id="patch_139">
    <path d="M 320.488612 307.24 
L 325.884486 307.24 
L 325.884486 307.24 
L 320.488612 307.24 
z
" clip-path="url(#p13b11e4d3f)" style="fill: #ffa500; fill-opacity: 0.5; stroke: #000000; stroke-width: 0.455089; stroke-linejoin: miter"/>
   </g>
   <g id="patch_140">
    <path d="M 325.884486 307.24 
L 331.280359 307.24 
L 331.280359 307.24 
L 325.884486 307.24 
z
" clip-path="url(#p13b11e4d3f)" style="fill: #ffa500; fill-opacity: 0.5; stroke: #000000; stroke-width: 0.455089; stroke-linejoin: miter"/>
   </g>
   <g id="patch_141">
    <path d="M 331.280359 307.24 
L 336.676232 307.24 
L 336.676232 307.24 
L 331.280359 307.24 
z
" clip-path="url(#p13b11e4d3f)" style="fill: #ffa500; fill-opacity: 0.5; stroke: #000000; stroke-width: 0.455089; stroke-linejoin: miter"/>
   </g>
   <g id="patch_142">
    <path d="M 336.676232 307.24 
L 342.072105 307.24 
L 342.072105 307.24 
L 336.676232 307.24 
z
" clip-path="url(#p13b11e4d3f)" style="fill: #ffa500; fill-opacity: 0.5; stroke: #000000; stroke-width: 0.455089; stroke-linejoin: miter"/>
   </g>
   <g id="patch_143">
    <path d="M 342.072105 307.24 
L 347.467978 307.24 
L 347.467978 307.24 
L 342.072105 307.24 
z
" clip-path="url(#p13b11e4d3f)" style="fill: #ffa500; fill-opacity: 0.5; stroke: #000000; stroke-width: 0.455089; stroke-linejoin: miter"/>
   </g>
   <g id="patch_144">
    <path d="M 347.467978 307.24 
L 352.863852 307.24 
L 352.863852 307.24 
L 347.467978 307.24 
z
" clip-path="url(#p13b11e4d3f)" style="fill: #ffa500; fill-opacity: 0.5; stroke: #000000; stroke-width: 0.455089; stroke-linejoin: miter"/>
   </g>
   <g id="patch_145">
    <path d="M 352.863852 307.24 
L 358.259725 307.24 
L 358.259725 307.24 
L 352.863852 307.24 
z
" clip-path="url(#p13b11e4d3f)" style="fill: #ffa500; fill-opacity: 0.5; stroke: #000000; stroke-width: 0.455089; stroke-linejoin: miter"/>
   </g>
   <g id="patch_146">
    <path d="M 358.259725 307.24 
L 363.655598 307.24 
L 363.655598 307.24 
L 358.259725 307.24 
z
" clip-path="url(#p13b11e4d3f)" style="fill: #ffa500; fill-opacity: 0.5; stroke: #000000; stroke-width: 0.455089; stroke-linejoin: miter"/>
   </g>
   <g id="patch_147">
    <path d="M 363.655598 307.24 
L 369.051471 307.24 
L 369.051471 307.24 
L 363.655598 307.24 
z
" clip-path="url(#p13b11e4d3f)" style="fill: #ffa500; fill-opacity: 0.5; stroke: #000000; stroke-width: 0.455089; stroke-linejoin: miter"/>
   </g>
   <g id="patch_148">
    <path d="M 369.051471 307.24 
L 374.447344 307.24 
L 374.447344 307.24 
L 369.051471 307.24 
z
" clip-path="url(#p13b11e4d3f)" style="fill: #ffa500; fill-opacity: 0.5; stroke: #000000; stroke-width: 0.455089; stroke-linejoin: miter"/>
   </g>
   <g id="patch_149">
    <path d="M 374.447344 307.24 
L 379.843218 307.24 
L 379.843218 307.24 
L 374.447344 307.24 
z
" clip-path="url(#p13b11e4d3f)" style="fill: #ffa500; fill-opacity: 0.5; stroke: #000000; stroke-width: 0.455089; stroke-linejoin: miter"/>
   </g>
   <g id="patch_150">
    <path d="M 379.843218 307.24 
L 385.239091 307.24 
L 385.239091 307.24 
L 379.843218 307.24 
z
" clip-path="url(#p13b11e4d3f)" style="fill: #ffa500; fill-opacity: 0.5; stroke: #000000; stroke-width: 0.455089; stroke-linejoin: miter"/>
   </g>
   <g id="patch_151">
    <path d="M 385.239091 307.24 
L 390.634964 307.24 
L 390.634964 307.24 
L 385.239091 307.24 
z
" clip-path="url(#p13b11e4d3f)" style="fill: #ffa500; fill-opacity: 0.5; stroke: #000000; stroke-width: 0.455089; stroke-linejoin: miter"/>
   </g>
   <g id="patch_152">
    <path d="M 390.634964 307.24 
L 396.030837 307.24 
L 396.030837 307.24 
L 390.634964 307.24 
z
" clip-path="url(#p13b11e4d3f)" style="fill: #ffa500; fill-opacity: 0.5; stroke: #000000; stroke-width: 0.455089; stroke-linejoin: miter"/>
   </g>
   <g id="patch_153">
    <path d="M 396.030837 307.24 
L 401.426711 307.24 
L 401.426711 307.24 
L 396.030837 307.24 
z
" clip-path="url(#p13b11e4d3f)" style="fill: #ffa500; fill-opacity: 0.5; stroke: #000000; stroke-width: 0.455089; stroke-linejoin: miter"/>
   </g>
   <g id="patch_154">
    <path d="M 401.426711 307.24 
L 406.822584 307.24 
L 406.822584 307.24 
L 401.426711 307.24 
z
" clip-path="url(#p13b11e4d3f)" style="fill: #ffa500; fill-opacity: 0.5; stroke: #000000; stroke-width: 0.455089; stroke-linejoin: miter"/>
   </g>
   <g id="patch_155">
    <path d="M 406.822584 307.24 
L 412.218457 307.24 
L 412.218457 307.24 
L 406.822584 307.24 
z
" clip-path="url(#p13b11e4d3f)" style="fill: #ffa500; fill-opacity: 0.5; stroke: #000000; stroke-width: 0.455089; stroke-linejoin: miter"/>
   </g>
   <g id="patch_156">
    <path d="M 412.218457 307.24 
L 417.61433 307.24 
L 417.61433 307.24 
L 412.218457 307.24 
z
" clip-path="url(#p13b11e4d3f)" style="fill: #ffa500; fill-opacity: 0.5; stroke: #000000; stroke-width: 0.455089; stroke-linejoin: miter"/>
   </g>
   <g id="patch_157">
    <path d="M 417.61433 307.24 
L 423.010203 307.24 
L 423.010203 307.24 
L 417.61433 307.24 
z
" clip-path="url(#p13b11e4d3f)" style="fill: #ffa500; fill-opacity: 0.5; stroke: #000000; stroke-width: 0.455089; stroke-linejoin: miter"/>
   </g>
   <g id="patch_158">
    <path d="M 423.010203 307.24 
L 428.406077 307.24 
L 428.406077 307.24 
L 423.010203 307.24 
z
" clip-path="url(#p13b11e4d3f)" style="fill: #ffa500; fill-opacity: 0.5; stroke: #000000; stroke-width: 0.455089; stroke-linejoin: miter"/>
   </g>
   <g id="patch_159">
    <path d="M 428.406077 307.24 
L 433.80195 307.24 
L 433.80195 307.24 
L 428.406077 307.24 
z
" clip-path="url(#p13b11e4d3f)" style="fill: #ffa500; fill-opacity: 0.5; stroke: #000000; stroke-width: 0.455089; stroke-linejoin: miter"/>
   </g>
   <g id="patch_160">
    <path d="M 433.80195 307.24 
L 439.197823 307.24 
L 439.197823 307.24 
L 433.80195 307.24 
z
" clip-path="url(#p13b11e4d3f)" style="fill: #ffa500; fill-opacity: 0.5; stroke: #000000; stroke-width: 0.455089; stroke-linejoin: miter"/>
   </g>
   <g id="patch_161">
    <path d="M 439.197823 307.24 
L 444.593696 307.24 
L 444.593696 307.24 
L 439.197823 307.24 
z
" clip-path="url(#p13b11e4d3f)" style="fill: #ffa500; fill-opacity: 0.5; stroke: #000000; stroke-width: 0.455089; stroke-linejoin: miter"/>
   </g>
   <g id="patch_162">
    <path d="M 444.593696 307.24 
L 449.989569 307.24 
L 449.989569 307.24 
L 444.593696 307.24 
z
" clip-path="url(#p13b11e4d3f)" style="fill: #ffa500; fill-opacity: 0.5; stroke: #000000; stroke-width: 0.455089; stroke-linejoin: miter"/>
   </g>
   <g id="patch_163">
    <path d="M 449.989569 307.24 
L 455.385443 307.24 
L 455.385443 307.24 
L 449.989569 307.24 
z
" clip-path="url(#p13b11e4d3f)" style="fill: #ffa500; fill-opacity: 0.5; stroke: #000000; stroke-width: 0.455089; stroke-linejoin: miter"/>
   </g>
   <g id="patch_164">
    <path d="M 455.385443 307.24 
L 460.781316 307.24 
L 460.781316 307.24 
L 455.385443 307.24 
z
" clip-path="url(#p13b11e4d3f)" style="fill: #ffa500; fill-opacity: 0.5; stroke: #000000; stroke-width: 0.455089; stroke-linejoin: miter"/>
   </g>
   <g id="patch_165">
    <path d="M 460.781316 307.24 
L 466.177189 307.24 
L 466.177189 307.24 
L 460.781316 307.24 
z
" clip-path="url(#p13b11e4d3f)" style="fill: #ffa500; fill-opacity: 0.5; stroke: #000000; stroke-width: 0.455089; stroke-linejoin: miter"/>
   </g>
   <g id="patch_166">
    <path d="M 466.177189 307.24 
L 471.573062 307.24 
L 471.573062 307.24 
L 466.177189 307.24 
z
" clip-path="url(#p13b11e4d3f)" style="fill: #ffa500; fill-opacity: 0.5; stroke: #000000; stroke-width: 0.455089; stroke-linejoin: miter"/>
   </g>
   <g id="patch_167">
    <path d="M 471.573062 307.24 
L 476.968935 307.24 
L 476.968935 307.24 
L 471.573062 307.24 
z
" clip-path="url(#p13b11e4d3f)" style="fill: #ffa500; fill-opacity: 0.5; stroke: #000000; stroke-width: 0.455089; stroke-linejoin: miter"/>
   </g>
   <g id="patch_168">
    <path d="M 476.968935 307.24 
L 482.364809 307.24 
L 482.364809 307.24 
L 476.968935 307.24 
z
" clip-path="url(#p13b11e4d3f)" style="fill: #ffa500; fill-opacity: 0.5; stroke: #000000; stroke-width: 0.455089; stroke-linejoin: miter"/>
   </g>
   <g id="patch_169">
    <path d="M 482.364809 307.24 
L 487.760682 307.24 
L 487.760682 307.24 
L 482.364809 307.24 
z
" clip-path="url(#p13b11e4d3f)" style="fill: #ffa500; fill-opacity: 0.5; stroke: #000000; stroke-width: 0.455089; stroke-linejoin: miter"/>
   </g>
   <g id="matplotlib.axis_5">
    <g id="ytick_13">
     <g id="line2d_20">
      <defs>
       <path id="m60522fd849" d="M 0 0 
L 3.5 0 
" style="stroke: #000000; stroke-width: 0.8"/>
      </defs>
      <g>
       <use xlink:href="#m60522fd849" x="508.265" y="307.24" style="stroke: #000000; stroke-width: 0.8"/>
      </g>
     </g>
     <g id="text_27">
      <!-- 0 -->
      <g transform="translate(515.265 311.039219) scale(0.1 -0.1)">
       <use xlink:href="#DejaVuSans-30"/>
      </g>
     </g>
    </g>
    <g id="ytick_14">
     <g id="line2d_21">
      <g>
       <use xlink:href="#m60522fd849" x="508.265" y="262.827059" style="stroke: #000000; stroke-width: 0.8"/>
      </g>
     </g>
     <g id="text_28">
      <!-- 200 -->
      <g transform="translate(515.265 266.626278) scale(0.1 -0.1)">
       <use xlink:href="#DejaVuSans-32"/>
       <use xlink:href="#DejaVuSans-30" x="63.623047"/>
       <use xlink:href="#DejaVuSans-30" x="127.246094"/>
      </g>
     </g>
    </g>
    <g id="ytick_15">
     <g id="line2d_22">
      <g>
       <use xlink:href="#m60522fd849" x="508.265" y="218.414119" style="stroke: #000000; stroke-width: 0.8"/>
      </g>
     </g>
     <g id="text_29">
      <!-- 400 -->
      <g transform="translate(515.265 222.213337) scale(0.1 -0.1)">
       <use xlink:href="#DejaVuSans-34"/>
       <use xlink:href="#DejaVuSans-30" x="63.623047"/>
       <use xlink:href="#DejaVuSans-30" x="127.246094"/>
      </g>
     </g>
    </g>
    <g id="ytick_16">
     <g id="line2d_23">
      <g>
       <use xlink:href="#m60522fd849" x="508.265" y="174.001178" style="stroke: #000000; stroke-width: 0.8"/>
      </g>
     </g>
     <g id="text_30">
      <!-- 600 -->
      <g transform="translate(515.265 177.800397) scale(0.1 -0.1)">
       <use xlink:href="#DejaVuSans-36"/>
       <use xlink:href="#DejaVuSans-30" x="63.623047"/>
       <use xlink:href="#DejaVuSans-30" x="127.246094"/>
      </g>
     </g>
    </g>
    <g id="ytick_17">
     <g id="line2d_24">
      <g>
       <use xlink:href="#m60522fd849" x="508.265" y="129.588237" style="stroke: #000000; stroke-width: 0.8"/>
      </g>
     </g>
     <g id="text_31">
      <!-- 800 -->
      <g transform="translate(515.265 133.387456) scale(0.1 -0.1)">
       <use xlink:href="#DejaVuSans-38"/>
       <use xlink:href="#DejaVuSans-30" x="63.623047"/>
       <use xlink:href="#DejaVuSans-30" x="127.246094"/>
      </g>
     </g>
    </g>
    <g id="ytick_18">
     <g id="line2d_25">
      <g>
       <use xlink:href="#m60522fd849" x="508.265" y="85.175296" style="stroke: #000000; stroke-width: 0.8"/>
      </g>
     </g>
     <g id="text_32">
      <!-- 1000 -->
      <g transform="translate(515.265 88.974515) scale(0.1 -0.1)">
       <use xlink:href="#DejaVuSans-31"/>
       <use xlink:href="#DejaVuSans-30" x="63.623047"/>
       <use xlink:href="#DejaVuSans-30" x="127.246094"/>
       <use xlink:href="#DejaVuSans-30" x="190.869141"/>
      </g>
     </g>
    </g>
    <g id="text_33">
     <!-- Count -->
     <g transform="translate(552.313438 199.908437) rotate(-90) scale(0.1 -0.1)">
      <use xlink:href="#DejaVuSans-43"/>
      <use xlink:href="#DejaVuSans-6f" x="69.824219"/>
      <use xlink:href="#DejaVuSans-75" x="131.005859"/>
      <use xlink:href="#DejaVuSans-6e" x="194.384766"/>
      <use xlink:href="#DejaVuSans-74" x="257.763672"/>
     </g>
    </g>
   </g>
   <g id="line2d_26">
    <path d="M 158.246842 238.091932 
L 162.983183 180.445206 
L 164.167268 169.624244 
L 165.351353 161.705945 
L 165.943396 158.954716 
L 166.535439 157.032888 
L 167.127481 155.933208 
L 167.719524 155.629101 
L 168.311567 156.076347 
L 168.903609 157.215363 
L 169.495652 158.973926 
L 170.087694 161.270159 
L 171.27178 167.118256 
L 173.047907 177.653016 
L 175.416078 191.519205 
L 176.600163 197.250073 
L 177.784248 201.783132 
L 178.968333 205.003872 
L 179.560376 206.119872 
L 180.152419 206.916732 
L 180.744461 207.407066 
L 181.336504 207.605466 
L 181.928546 207.526993 
L 182.520589 207.185825 
L 183.112632 206.594181 
L 183.704674 205.761627 
L 184.296717 204.694861 
L 185.480802 201.873646 
L 186.664887 198.152728 
L 187.848973 193.582249 
L 189.6251 185.493934 
L 191.993271 174.46405 
L 193.177356 170.206211 
L 193.769399 168.692513 
L 194.361441 167.69113 
L 194.953484 167.262352 
L 195.545526 167.448335 
L 196.137569 168.269821 
L 196.729612 169.723996 
L 197.321654 171.783688 
L 198.505739 177.494488 
L 199.689825 184.757464 
L 202.650038 204.026665 
L 203.834123 210.128048 
L 205.018208 214.635426 
L 205.610251 216.272972 
L 206.202293 217.52565 
L 206.794336 218.430139 
L 207.386379 219.032526 
L 207.978421 219.384481 
L 208.570464 219.539627 
L 209.754549 219.465753 
L 212.122719 218.958114 
L 213.306805 219.002946 
L 213.898847 219.17403 
L 214.49089 219.468246 
L 215.082932 219.903686 
L 215.674975 220.498715 
L 216.267018 221.271492 
L 217.451103 223.415608 
L 218.635188 226.431172 
L 219.819273 230.321136 
L 221.003358 234.957202 
L 225.147657 252.355541 
L 226.331742 256.020024 
L 226.923785 257.435577 
L 227.515827 258.549762 
L 228.10787 259.357564 
L 228.699912 259.86384 
L 229.291955 260.082603 
L 229.883998 260.035931 
L 230.47604 259.752633 
L 231.068083 259.266744 
L 232.252168 257.840033 
L 235.804424 252.707449 
L 236.988509 251.565855 
L 237.580551 251.194542 
L 238.172594 250.967151 
L 238.764637 250.885601 
L 239.356679 250.947056 
L 239.948722 251.144289 
L 241.132807 251.898304 
L 242.316892 253.023787 
L 244.685063 255.791116 
L 247.053233 258.45185 
L 252.381617 263.900145 
L 254.157744 266.189032 
L 257.117957 270.157698 
L 258.302043 271.437295 
L 259.486128 272.318269 
L 260.07817 272.562485 
L 260.670213 272.651789 
L 261.262256 272.569102 
L 261.854298 272.298546 
L 262.446341 271.825976 
L 263.038384 271.139688 
L 263.630426 270.2313 
L 264.814511 267.737541 
L 265.998597 264.384573 
L 267.182682 260.332323 
L 270.142895 249.425053 
L 271.32698 246.049399 
L 271.919023 244.841828 
L 272.511065 244.032794 
L 273.103108 243.669232 
L 273.69515 243.785663 
L 274.287193 244.402359 
L 274.879236 245.524181 
L 275.471278 247.140185 
L 276.063321 249.224019 
L 276.063321 249.224019 
" clip-path="url(#p13b11e4d3f)" style="fill: none; stroke: #ffa500; stroke-width: 1.5; stroke-linecap: square"/>
   </g>
   <g id="patch_170">
    <path d="M 57.17 307.24 
L 57.17 62.88 
" style="fill: none; stroke: #000000; stroke-width: 0.8; stroke-linejoin: miter; stroke-linecap: square"/>
   </g>
   <g id="patch_171">
    <path d="M 508.265 307.24 
L 508.265 62.88 
" style="fill: none; stroke: #000000; stroke-width: 0.8; stroke-linejoin: miter; stroke-linecap: square"/>
   </g>
   <g id="patch_172">
    <path d="M 57.17 307.24 
L 508.265 307.24 
" style="fill: none; stroke: #000000; stroke-width: 0.8; stroke-linejoin: miter; stroke-linecap: square"/>
   </g>
   <g id="patch_173">
    <path d="M 57.17 62.88 
L 508.265 62.88 
" style="fill: none; stroke: #000000; stroke-width: 0.8; stroke-linejoin: miter; stroke-linecap: square"/>
   </g>
  </g>
  <g id="text_34">
   <!-- VPC vs Original Age and Sex Distributions -->
   <g transform="translate(372.69625 19.3575) scale(0.16 -0.16)">
    <defs>
     <path id="DejaVuSans-76" d="M 191 3500 
L 800 3500 
L 1894 563 
L 2988 3500 
L 3597 3500 
L 2284 0 
L 1503 0 
L 191 3500 
z
" transform="scale(0.015625)"/>
     <path id="DejaVuSans-4f" d="M 2522 4238 
Q 1834 4238 1429 3725 
Q 1025 3213 1025 2328 
Q 1025 1447 1429 934 
Q 1834 422 2522 422 
Q 3209 422 3611 934 
Q 4013 1447 4013 2328 
Q 4013 3213 3611 3725 
Q 3209 4238 2522 4238 
z
M 2522 4750 
Q 3503 4750 4090 4092 
Q 4678 3434 4678 2328 
Q 4678 1225 4090 567 
Q 3503 -91 2522 -91 
Q 1538 -91 948 565 
Q 359 1222 359 2328 
Q 359 3434 948 4092 
Q 1538 4750 2522 4750 
z
" transform="scale(0.015625)"/>
     <path id="DejaVuSans-64" d="M 2906 2969 
L 2906 4863 
L 3481 4863 
L 3481 0 
L 2906 0 
L 2906 525 
Q 2725 213 2448 61 
Q 2172 -91 1784 -91 
Q 1150 -91 751 415 
Q 353 922 353 1747 
Q 353 2572 751 3078 
Q 1150 3584 1784 3584 
Q 2172 3584 2448 3432 
Q 2725 3281 2906 2969 
z
M 947 1747 
Q 947 1113 1208 752 
Q 1469 391 1925 391 
Q 2381 391 2643 752 
Q 2906 1113 2906 1747 
Q 2906 2381 2643 2742 
Q 2381 3103 1925 3103 
Q 1469 3103 1208 2742 
Q 947 2381 947 1747 
z
" transform="scale(0.015625)"/>
    </defs>
    <use xlink:href="#DejaVuSans-56"/>
    <use xlink:href="#DejaVuSans-50" x="68.408203"/>
    <use xlink:href="#DejaVuSans-43" x="128.710938"/>
    <use xlink:href="#DejaVuSans-20" x="198.535156"/>
    <use xlink:href="#DejaVuSans-76" x="230.322266"/>
    <use xlink:href="#DejaVuSans-73" x="289.501953"/>
    <use xlink:href="#DejaVuSans-20" x="341.601562"/>
    <use xlink:href="#DejaVuSans-4f" x="373.388672"/>
    <use xlink:href="#DejaVuSans-72" x="452.099609"/>
    <use xlink:href="#DejaVuSans-69" x="493.212891"/>
    <use xlink:href="#DejaVuSans-67" x="520.996094"/>
    <use xlink:href="#DejaVuSans-69" x="584.472656"/>
    <use xlink:href="#DejaVuSans-6e" x="612.255859"/>
    <use xlink:href="#DejaVuSans-61" x="675.634766"/>
    <use xlink:href="#DejaVuSans-6c" x="736.914062"/>
    <use xlink:href="#DejaVuSans-20" x="764.697266"/>
    <use xlink:href="#DejaVuSans-41" x="796.484375"/>
    <use xlink:href="#DejaVuSans-67" x="864.892578"/>
    <use xlink:href="#DejaVuSans-65" x="928.369141"/>
    <use xlink:href="#DejaVuSans-20" x="989.892578"/>
    <use xlink:href="#DejaVuSans-61" x="1021.679688"/>
    <use xlink:href="#DejaVuSans-6e" x="1082.958984"/>
    <use xlink:href="#DejaVuSans-64" x="1146.337891"/>
    <use xlink:href="#DejaVuSans-20" x="1209.814453"/>
    <use xlink:href="#DejaVuSans-53" x="1241.601562"/>
    <use xlink:href="#DejaVuSans-65" x="1305.078125"/>
    <use xlink:href="#DejaVuSans-78" x="1364.851562"/>
    <use xlink:href="#DejaVuSans-20" x="1424.03125"/>
    <use xlink:href="#DejaVuSans-44" x="1455.818359"/>
    <use xlink:href="#DejaVuSans-69" x="1532.820312"/>
    <use xlink:href="#DejaVuSans-73" x="1560.603516"/>
    <use xlink:href="#DejaVuSans-74" x="1612.703125"/>
    <use xlink:href="#DejaVuSans-72" x="1651.912109"/>
    <use xlink:href="#DejaVuSans-69" x="1693.025391"/>
    <use xlink:href="#DejaVuSans-62" x="1720.808594"/>
    <use xlink:href="#DejaVuSans-75" x="1784.285156"/>
    <use xlink:href="#DejaVuSans-74" x="1847.664062"/>
    <use xlink:href="#DejaVuSans-69" x="1886.873047"/>
    <use xlink:href="#DejaVuSans-6f" x="1914.65625"/>
    <use xlink:href="#DejaVuSans-6e" x="1975.837891"/>
    <use xlink:href="#DejaVuSans-73" x="2039.216797"/>
   </g>
  </g>
 </g>
 <defs>
  <clipPath id="p13b11e4d3f">
   <rect x="57.17" y="62.88" width="451.095" height="244.36"/>
  </clipPath>
  <clipPath id="p3c7005760a">
   <rect x="618.105" y="62.88" width="451.095" height="244.36"/>
  </clipPath>
 </defs>
</svg>
